<svg width="207" height="200" viewBox="0 0 207 200" fill="none" xmlns="http://www.w3.org/2000/svg">
<path d="M0.521484 68.5714H6.23577V74.2857H0.521484V68.5714Z" fill="#263238"/>
<path d="M0.521484 74.2857H6.23577V80.0004H0.521484L0.521484 74.2857Z" fill="#263238"/>
<path d="M0.521484 80.0004H6.23577V85.7143H0.521484L0.521484 80.0004Z" fill="#263238"/>
<path d="M0.521484 85.7143H6.23577V91.4282H0.521484L0.521484 85.7143Z" fill="#263238"/>
<path d="M0.521484 91.4282H6.23577V97.1429H0.521484L0.521484 91.4282Z" fill="#263238"/>
<path d="M120.521 0H126.236V5.71429H120.521V0Z" fill="#263238"/>
<path d="M126.236 0H131.951V5.71429H126.236V0Z" fill="#263238"/>
<path d="M131.949 0H137.663V5.71429H131.949V0Z" fill="#263238"/>
<path d="M137.663 0H143.378V5.71429H137.663V0Z" fill="#263238"/>
<path d="M143.378 0H149.093V5.71429H143.378V0Z" fill="#263238"/>
<path d="M74.8066 5.71387H80.5209V11.4282H74.8066V5.71387Z" fill="#263238"/>
<path d="M80.5209 5.71387H86.2358V11.4282H80.5209V5.71387Z" fill="#263238"/>
<path d="M86.2358 5.71387H91.9506V11.4282H86.2358V5.71387Z" fill="#263238"/>
<path d="M91.9492 5.71387H97.6635V11.4282H91.9492V5.71387Z" fill="#263238"/>
<path d="M97.6635 5.71387H103.378V11.4282H97.6635V5.71387Z" fill="#263238"/>
<path d="M114.807 5.71387L120.521 5.71429L120.521 11.4282H114.807V5.71387Z" fill="#263238"/>
<path d="M120.521 5.71429H126.236V11.4282H120.521L120.521 5.71429Z" fill="#13B26B"/>
<path d="M126.236 5.71429H131.951V11.4282H126.236V5.71429Z" fill="#13B26B"/>
<path d="M131.949 5.71429H137.663V11.4282H131.949V5.71429Z" fill="#13B26B"/>
<path d="M137.663 5.71429H143.378V11.4282H137.663V5.71429Z" fill="#13B26B"/>
<path d="M143.378 5.71429H149.093V11.4282H143.378V5.71429Z" fill="#13B26B"/>
<path d="M149.093 5.71429L154.808 5.71387V11.4282H149.093V5.71429Z" fill="#263238"/>
<path d="M34.8066 11.4287H40.5209V17.143H34.8066V11.4287Z" fill="#263238"/>
<path d="M40.5209 11.4287L46.2358 11.4286V17.1429L40.5209 17.143V11.4287Z" fill="#263238"/>
<path d="M46.2358 11.4286L51.9506 11.4287V17.143L46.2358 17.1429V11.4286Z" fill="#263238"/>
<path d="M51.9492 11.4287H57.6635V17.143H51.9492V11.4287Z" fill="#263238"/>
<path d="M69.0938 11.4287H74.808V17.143H69.0938V11.4287Z" fill="#263238"/>
<path d="M74.8066 11.4282H80.5209V17.143H74.8066V11.4282Z" fill="#13B26B"/>
<path d="M80.5209 11.4282H86.2358V17.1429L80.5209 17.143V11.4282Z" fill="#13B26B"/>
<path d="M86.2358 11.4282H91.9506V17.143L86.2358 17.1429V11.4282Z" fill="#13B26B"/>
<path d="M91.9492 11.4282H97.6635V17.143H91.9492V11.4282Z" fill="#13B26B"/>
<path d="M97.6635 11.4282H103.378V17.143H97.6635V11.4282Z" fill="#13B26B"/>
<path d="M103.378 11.4282L109.093 11.4287V17.143H103.378V11.4282Z" fill="#263238"/>
<path d="M109.093 11.4287H114.808V17.143H109.093V11.4287Z" fill="#263238"/>
<path d="M114.807 11.4282H120.521V17.143H114.807V11.4282Z" fill="#13B26B"/>
<path d="M120.521 11.4282H126.236V17.1429L120.521 17.143V11.4282Z" fill="#13B26B"/>
<path d="M126.236 11.4282H131.951V17.143L126.236 17.1429V11.4282Z" fill="#00874B"/>
<path d="M131.949 11.4282H137.663V17.143H131.949V11.4282Z" fill="#00874B"/>
<path d="M137.663 11.4282H143.378V17.143H137.663V11.4282Z" fill="#13B26B"/>
<path d="M143.378 11.4282H149.093V17.143H143.378V11.4282Z" fill="#13B26B"/>
<path d="M149.093 11.4282H154.808V17.143H149.093V11.4282Z" fill="#13B26B"/>
<path d="M154.807 11.4287H160.521V17.143H154.807V11.4287Z" fill="#263238"/>
<path d="M29.0938 17.1426H34.808V22.8569H29.0938V17.1426Z" fill="#263238"/>
<path d="M34.8066 17.143H40.5209V22.8569H34.8066V17.143Z" fill="#13B26B"/>
<path d="M40.5209 17.143L46.2358 17.1429V22.8569H40.5209V17.143Z" fill="#13B26B"/>
<path d="M46.2358 17.1429L51.9506 17.143V22.8569H46.2358V17.1429Z" fill="#13B26B"/>
<path d="M51.9492 17.143H57.6635V22.8569H51.9492V17.143Z" fill="#13B26B"/>
<path d="M57.6635 17.143L63.3783 17.1426V22.8569H57.6635V17.143Z" fill="#263238"/>
<path d="M63.3783 17.1426L69.0938 17.143L69.0932 22.8569H63.3783V17.1426Z" fill="#263238"/>
<path d="M69.0938 17.143H74.808V22.8569H69.0932L69.0938 17.143Z" fill="#13B26B"/>
<path d="M74.8066 17.143H80.5209V22.8569H74.8066V17.143Z" fill="#13B26B"/>
<path d="M80.5209 17.143L86.2358 17.1429V22.8569H80.5209V17.143Z" fill="#13B26B"/>
<path d="M86.2358 17.1429L91.9506 17.143V22.8569H86.2358V17.1429Z" fill="#00874B"/>
<path d="M91.9492 17.143H97.6635V22.8569H91.9492V17.143Z" fill="#00874B"/>
<path d="M97.6635 17.143H103.378V22.8569H97.6635V17.143Z" fill="#13B26B"/>
<path d="M103.378 17.143H109.093V22.8569H103.378V17.143Z" fill="#13B26B"/>
<path d="M109.093 17.143H114.808V22.8569H109.093V17.143Z" fill="#13B26B"/>
<path d="M114.807 17.143H120.521V22.8569H114.807V17.143Z" fill="#13B26B"/>
<path d="M120.521 17.143L126.236 17.1429V22.8569H120.521V17.143Z" fill="#00874B"/>
<path d="M126.236 17.1429L131.951 17.143V22.8569H126.236V17.1429Z" fill="#13B26B"/>
<path d="M131.949 17.143H137.663V22.8569H131.949V17.143Z" fill="#13B26B"/>
<path d="M137.663 17.143H143.378V22.8569H137.663V17.143Z" fill="#00874B"/>
<path d="M143.378 17.143H149.093V22.8569H143.378V17.143Z" fill="#00874B"/>
<path d="M149.093 17.143H154.808V22.8569H149.093V17.143Z" fill="#13B26B"/>
<path d="M154.807 17.143H160.521V22.8569H154.807V17.143Z" fill="#13B26B"/>
<path d="M160.521 17.143L166.236 17.1426V22.8569H160.521V17.143Z" fill="#263238"/>
<path d="M23.3789 22.8574L29.0938 22.8569L29.0932 28.5717H23.3789V22.8574Z" fill="#263238"/>
<path d="M29.0938 22.8569H34.808V28.5717H29.0932L29.0938 22.8569Z" fill="#13B26B"/>
<path d="M34.8066 22.8569H40.5209V28.5717H34.8066V22.8569Z" fill="#13B26B"/>
<path d="M40.5209 22.8569H46.2358V28.5717H40.5209V22.8569Z" fill="#13B26B"/>
<path d="M46.2358 22.8569H51.9506V28.5717H46.2358V22.8569Z" fill="#13B26B"/>
<path d="M51.9492 22.8569H57.6635V28.5717H51.9492V22.8569Z" fill="#13B26B"/>
<path d="M57.6635 22.8569H63.3783V28.5717H57.6635V22.8569Z" fill="#13B26B"/>
<path d="M63.3783 22.8569H69.0932V28.5717H63.3783V22.8569Z" fill="#13B26B"/>
<path d="M69.0932 22.8569H74.808V28.5717H69.0932V22.8569Z" fill="#13B26B"/>
<path d="M74.8066 22.8569H80.5209V28.5717H74.8066V22.8569Z" fill="#00874B"/>
<path d="M80.5209 22.8569H86.2358V28.5717H80.5209V22.8569Z" fill="#00874B"/>
<path d="M86.2358 22.8569H91.9506V28.5717H86.2358V22.8569Z" fill="#00874B"/>
<path d="M91.9492 22.8569H97.6635V28.5717H91.9492V22.8569Z" fill="#00874B"/>
<path d="M97.6635 22.8569H103.378V28.5717H97.6635V22.8569Z" fill="#00874B"/>
<path d="M103.378 22.8569H109.093V28.5717H103.378V22.8569Z" fill="#00874B"/>
<path d="M109.093 22.8569H114.808V28.5717H109.093V22.8569Z" fill="#13B26B"/>
<path d="M114.807 22.8569H120.521V28.5717H114.807V22.8569Z" fill="#13B26B"/>
<path d="M120.521 22.8569H126.236V28.5717H120.521V22.8569Z" fill="#13B26B"/>
<path d="M126.236 22.8569H131.951V28.5717H126.236V22.8569Z" fill="#00874B"/>
<path d="M131.949 22.8569H137.663V28.5717H131.949V22.8569Z" fill="#00874B"/>
<path d="M137.663 22.8569H143.378V28.5717H137.663V22.8569Z" fill="#00874B"/>
<path d="M143.378 22.8569H149.093V28.5717H143.378V22.8569Z" fill="#00874B"/>
<path d="M149.093 22.8569H154.808V28.5717H149.093V22.8569Z" fill="#00874B"/>
<path d="M154.807 22.8569H160.521V28.5717H154.807V22.8569Z" fill="#00874B"/>
<path d="M160.521 22.8569H166.236V28.5717H160.521V22.8569Z" fill="#13B26B"/>
<path d="M166.236 22.8569L171.951 22.8574V28.5717H166.236V22.8569Z" fill="#263238"/>
<path d="M17.6641 28.5713L23.3789 28.5717L23.3783 34.2856H17.6641V28.5713Z" fill="#263238"/>
<path d="M23.3789 28.5717H29.0932V34.2856H23.3783L23.3789 28.5717Z" fill="#13B26B"/>
<path d="M29.0932 28.5717H34.808V34.2856H29.0932V28.5717Z" fill="#00874B"/>
<path d="M34.8066 28.5717H40.5209V34.2856H34.8066V28.5717Z" fill="#00874B"/>
<path d="M40.5209 28.5717H46.2358V34.2857L40.5209 34.2856V28.5717Z" fill="#00874B"/>
<path d="M46.2358 28.5717H51.9506V34.2856L46.2358 34.2857V28.5717Z" fill="#00874B"/>
<path d="M51.9492 28.5717H57.6635V34.2856H51.9492V28.5717Z" fill="#00874B"/>
<path d="M57.6635 28.5717H63.3783V34.2856H57.6635V28.5717Z" fill="#13B26B"/>
<path d="M63.3783 28.5717H69.0932V34.2856H63.3783V28.5717Z" fill="#13B26B"/>
<path d="M69.0932 28.5717H74.808V34.2856H69.0932V28.5717Z" fill="#00695C"/>
<path d="M74.8066 28.5717H80.5209V34.2856H74.8066V28.5717Z" fill="#00874B"/>
<path d="M80.5209 28.5717H86.2358V34.2857L80.5209 34.2856V28.5717Z" fill="#00874B"/>
<path d="M86.2358 28.5717H91.9506V34.2856L86.2358 34.2857V28.5717Z" fill="#00874B"/>
<path d="M91.9492 28.5717H97.6635V34.2856H91.9492V28.5717Z" fill="#00874B"/>
<path d="M97.6635 28.5717H103.378V34.2856H97.6635V28.5717Z" fill="#00874B"/>
<path d="M103.378 28.5717H109.093V34.2856H103.378V28.5717Z" fill="#00695C"/>
<path d="M109.093 28.5717H114.808V34.2856H109.093V28.5717Z" fill="#13B26B"/>
<path d="M114.807 28.5717H120.521V34.2856H114.807V28.5717Z" fill="#00874B"/>
<path d="M120.521 28.5717H126.236V34.2857L120.521 34.2856V28.5717Z" fill="#13B26B"/>
<path d="M126.236 28.5717H131.951V34.2856L126.236 34.2857V28.5717Z" fill="#13B26B"/>
<path d="M131.949 28.5717H137.663V34.2856H131.949V28.5717Z" fill="#00874B"/>
<path d="M137.663 28.5717H143.378V34.2856H137.663V28.5717Z" fill="#00874B"/>
<path d="M143.378 28.5717H149.093V34.2856H143.378V28.5717Z" fill="#00874B"/>
<path d="M149.093 28.5717H154.808V34.2856H149.093V28.5717Z" fill="#00874B"/>
<path d="M154.807 28.5717H160.521V34.2856H154.807V28.5717Z" fill="#00874B"/>
<path d="M160.521 28.5717H166.236V34.2857L160.521 34.2856V28.5717Z" fill="#13B26B"/>
<path d="M166.236 28.5717H171.951V34.2856L166.236 34.2857V28.5717Z" fill="#263238"/>
<path d="M11.9492 34.2861L17.6641 34.2856L17.6635 40.0004H11.9492V34.2861Z" fill="#263238"/>
<path d="M17.6641 34.2856H23.3783V40.0004H17.6635L17.6641 34.2856Z" fill="#13B26B"/>
<path d="M23.3783 34.2856H29.0932V40.0004H23.3783V34.2856Z" fill="#00874B"/>
<path d="M29.0932 34.2856H34.808V40.0004H29.0932V34.2856Z" fill="#00874B"/>
<path d="M34.8066 34.2856H40.5209V40.0004H34.8066V34.2856Z" fill="#00874B"/>
<path d="M40.5209 34.2856L46.2358 34.2857V40.0004H40.5209V34.2856Z" fill="#00874B"/>
<path d="M46.2358 34.2857L51.9506 34.2856V40.0004H46.2358V34.2857Z" fill="#00874B"/>
<path d="M51.9492 34.2856H57.6635V40.0004H51.9492V34.2856Z" fill="#13B26B"/>
<path d="M57.6635 34.2856H63.3783V40.0004H57.6635V34.2856Z" fill="#00874B"/>
<path d="M63.3783 34.2856H69.0932V40.0004H63.3783V34.2856Z" fill="#13B26B"/>
<path d="M69.0932 34.2856H74.808V40.0004H69.0932V34.2856Z" fill="#00695C"/>
<path d="M74.8066 34.2856H80.5209V40.0004H74.8066V34.2856Z" fill="#00695C"/>
<path d="M80.5209 34.2856L86.2358 34.2857V40.0004H80.5209V34.2856Z" fill="#00874B"/>
<path d="M86.2358 34.2857L91.9506 34.2856V40.0004H86.2358V34.2857Z" fill="#00695C"/>
<path d="M91.9492 34.2856H97.6635V40.0004H91.9492V34.2856Z" fill="#00695C"/>
<path d="M97.6635 34.2856H103.378V40.0004H97.6635V34.2856Z" fill="#00695C"/>
<path d="M103.378 34.2856H109.093V40.0004H103.378V34.2856Z" fill="#13B26B"/>
<path d="M109.093 34.2856H114.808V40.0004H109.093V34.2856Z" fill="#00874B"/>
<path d="M114.807 34.2856H120.521V40.0004H114.807V34.2856Z" fill="#00874B"/>
<path d="M120.521 34.2856L126.236 34.2857V40.0004H120.521V34.2856Z" fill="#00874B"/>
<path d="M126.236 34.2857L131.951 34.2856V40.0004H126.236V34.2857Z" fill="#00874B"/>
<path d="M131.949 34.2856H137.663V40.0004H131.949V34.2856Z" fill="#00695C"/>
<path d="M137.663 34.2856H143.378V40.0004H137.663V34.2856Z" fill="#00874B"/>
<path d="M143.378 34.2856H149.093V40.0004H143.378V34.2856Z" fill="#00874B"/>
<path d="M149.093 34.2856H154.808V40.0004H149.093V34.2856Z" fill="#00874B"/>
<path d="M154.807 34.2856H160.521V40.0004H154.807V34.2856Z" fill="#00874B"/>
<path d="M160.521 34.2856L166.236 34.2857V40.0004H160.521V34.2856Z" fill="#00874B"/>
<path d="M166.236 34.2857L171.951 34.2856V40.0004H166.236V34.2857Z" fill="#13B26B"/>
<path d="M171.949 34.2861H177.663V40.0004H171.949V34.2861Z" fill="#263238"/>
<path d="M11.9492 40.0004H17.6635V45.7143H11.9492V40.0004Z" fill="#263238"/>
<path d="M17.6635 40.0004H23.3783V45.7143H17.6635V40.0004Z" fill="#13B26B"/>
<path d="M23.3783 40.0004H29.0932V45.7143H23.3783V40.0004Z" fill="#00874B"/>
<path d="M29.0932 40.0004H34.808V45.7143H29.0932V40.0004Z" fill="#00874B"/>
<path d="M34.8066 40.0004H40.5209V45.7143H34.8066V40.0004Z" fill="#00874B"/>
<path d="M40.5209 40.0004H46.2358V45.7143H40.5209V40.0004Z" fill="#00874B"/>
<path d="M46.2358 40.0004H51.9506V45.7143H46.2358V40.0004Z" fill="#00874B"/>
<path d="M51.9492 40.0004H57.6635V45.7143H51.9492V40.0004Z" fill="#00874B"/>
<path d="M57.6635 40.0004H63.3783V45.7143H57.6635V40.0004Z" fill="#00874B"/>
<path d="M63.3783 40.0004H69.0932V45.7143H63.3783V40.0004Z" fill="#13B26B"/>
<path d="M69.0932 40.0004H74.808V45.7143H69.0932V40.0004Z" fill="#13B26B"/>
<path d="M74.8066 40.0004H80.5209V45.7143H74.8066V40.0004Z" fill="#00695C"/>
<path d="M80.5209 40.0004H86.2358V45.7143H80.5209V40.0004Z" fill="#00695C"/>
<path d="M86.2358 40.0004H91.9506V45.7143H86.2358V40.0004Z" fill="#00695C"/>
<path d="M91.9492 40.0004H97.6635V45.7143H91.9492V40.0004Z" fill="#13B26B"/>
<path d="M97.6635 40.0004H103.378V45.7143H97.6635V40.0004Z" fill="#13B26B"/>
<path d="M103.378 40.0004H109.093V45.7143H103.378V40.0004Z" fill="#13B26B"/>
<path d="M109.093 40.0004H114.808V45.7143H109.093V40.0004Z" fill="#00874B"/>
<path d="M114.807 40.0004H120.521V45.7143H114.807V40.0004Z" fill="#00874B"/>
<path d="M120.521 40.0004H126.236V45.7143H120.521V40.0004Z" fill="#00874B"/>
<path d="M126.236 40.0004H131.951V45.7143H126.236V40.0004Z" fill="#00874B"/>
<path d="M131.949 40.0004H137.663V45.7143H131.949V40.0004Z" fill="#00874B"/>
<path d="M137.663 40.0004H143.378V45.7143H137.663V40.0004Z" fill="#00695C"/>
<path d="M143.378 40.0004H149.093V45.7143H143.378V40.0004Z" fill="#00874B"/>
<path d="M149.093 40.0004H154.808V45.7143H149.093V40.0004Z" fill="#00874B"/>
<path d="M154.807 40.0004H160.521V45.7143H154.807V40.0004Z" fill="#00874B"/>
<path d="M160.521 40.0004H166.236V45.7143H160.521V40.0004Z" fill="#00874B"/>
<path d="M166.236 40.0004H171.951V45.7143H166.236V40.0004Z" fill="#00874B"/>
<path d="M171.949 40.0004H177.663V45.7143H171.949V40.0004Z" fill="#00695C"/>
<path d="M177.663 40.0004L183.378 40V45.7143H177.663V40.0004Z" fill="#263238"/>
<path d="M183.378 40H189.093V45.7143H183.378V40Z" fill="#263238"/>
<path d="M11.9492 45.7143H17.6635V51.4282H11.9492V45.7143Z" fill="#263238"/>
<path d="M17.6635 45.7143H23.3783V51.4282H17.6635V45.7143Z" fill="#00695C"/>
<path d="M23.3783 45.7143H29.0932V51.4282H23.3783V45.7143Z" fill="#00874B"/>
<path d="M29.0932 45.7143H34.808V51.4282H29.0932V45.7143Z" fill="#00874B"/>
<path d="M34.8066 45.7143H40.5209V51.4282H34.8066V45.7143Z" fill="#00874B"/>
<path d="M40.5209 45.7143H46.2358V51.4282H40.5209V45.7143Z" fill="#00874B"/>
<path d="M46.2358 45.7143H51.9506V51.4282H46.2358V45.7143Z" fill="#00874B"/>
<path d="M51.9492 45.7143H57.6635V51.4282H51.9492V45.7143Z" fill="#00695C"/>
<path d="M57.6635 45.7143H63.3783V51.4282H57.6635V45.7143Z" fill="#00874B"/>
<path d="M63.3783 45.7143H69.0932V51.4282H63.3783V45.7143Z" fill="#00874B"/>
<path d="M69.0932 45.7143H74.808V51.4282H69.0932V45.7143Z" fill="#13B26B"/>
<path d="M74.8066 45.7143H80.5209V51.4282H74.8066V45.7143Z" fill="#00874B"/>
<path d="M80.5209 45.7143H86.2358V51.4282H80.5209V45.7143Z" fill="#00874B"/>
<path d="M86.2358 45.7143H91.9506V51.4282H86.2358V45.7143Z" fill="#00874B"/>
<path d="M91.9492 45.7143H97.6635V51.4282H91.9492V45.7143Z" fill="#00874B"/>
<path d="M97.6635 45.7143H103.378V51.4282H97.6635V45.7143Z" fill="#00874B"/>
<path d="M103.378 45.7143H109.093V51.4282H103.378V45.7143Z" fill="#13B26B"/>
<path d="M109.093 45.7143H114.808V51.4282H109.093V45.7143Z" fill="#13B26B"/>
<path d="M114.807 45.7143H120.521V51.4282H114.807V45.7143Z" fill="#13B26B"/>
<path d="M120.521 45.7143H126.236V51.4282H120.521V45.7143Z" fill="#13B26B"/>
<path d="M126.236 45.7143H131.951V51.4282H126.236V45.7143Z" fill="#13B26B"/>
<path d="M131.949 45.7143H137.663V51.4282H131.949V45.7143Z" fill="#13B26B"/>
<path d="M137.663 45.7143H143.378V51.4282H137.663V45.7143Z" fill="#00695C"/>
<path d="M143.378 45.7143H149.093V51.4282H143.378V45.7143Z" fill="#00695C"/>
<path d="M149.093 45.7143H154.808V51.4282H149.093V45.7143Z" fill="#00695C"/>
<path d="M154.807 45.7143H160.521V51.4282H154.807V45.7143Z" fill="#00874B"/>
<path d="M160.521 45.7143H166.236V51.4282H160.521V45.7143Z" fill="#00874B"/>
<path d="M166.236 45.7143H171.951V51.4282H166.236V45.7143Z" fill="#00695C"/>
<path d="M171.949 45.7143H177.663V51.4282H171.949V45.7143Z" fill="#00695C"/>
<path d="M177.663 45.7143H183.378V51.4282H177.663V45.7143Z" fill="#13B26B"/>
<path d="M183.378 45.7143H189.093V51.4282H183.378V45.7143Z" fill="#13B26B"/>
<path d="M189.093 45.7143L194.808 45.7139V51.4282H189.093V45.7143Z" fill="#263238"/>
<path d="M11.9492 51.4282H17.6635V57.143H11.9492V51.4282Z" fill="#263238"/>
<path d="M17.6635 51.4282H23.3783V57.143H17.6635V51.4282Z" fill="#00695C"/>
<path d="M23.3783 51.4282H29.0932V57.143H23.3783V51.4282Z" fill="#00695C"/>
<path d="M29.0932 51.4282H34.808V57.143H29.0932V51.4282Z" fill="#00874B"/>
<path d="M34.8066 51.4282H40.5209V57.143H34.8066V51.4282Z" fill="#00874B"/>
<path d="M40.5209 51.4282H46.2358V57.1429L40.5209 57.143V51.4282Z" fill="#00874B"/>
<path d="M46.2358 51.4282H51.9506V57.143L46.2358 57.1429V51.4282Z" fill="#00874B"/>
<path d="M51.9492 51.4282H57.6635V57.143H51.9492V51.4282Z" fill="#00874B"/>
<path d="M57.6635 51.4282H63.3783V57.143H57.6635V51.4282Z" fill="#00695C"/>
<path d="M63.3783 51.4282H69.0932V57.143H63.3783V51.4282Z" fill="#00695C"/>
<path d="M69.0932 51.4282H74.808V57.143H69.0932V51.4282Z" fill="#13B26B"/>
<path d="M74.8066 51.4282H80.5209V57.143H74.8066V51.4282Z" fill="#00874B"/>
<path d="M80.5209 51.4282H86.2358V57.1429L80.5209 57.143V51.4282Z" fill="#00874B"/>
<path d="M86.2358 51.4282H91.9506V57.143L86.2358 57.1429V51.4282Z" fill="#00874B"/>
<path d="M91.9492 51.4282H97.6635V57.143H91.9492V51.4282Z" fill="#00874B"/>
<path d="M97.6635 51.4282H103.378V57.143H97.6635V51.4282Z" fill="#00874B"/>
<path d="M103.378 51.4282H109.093V57.143H103.378V51.4282Z" fill="#13B26B"/>
<path d="M109.093 51.4282H114.808V57.143H109.093V51.4282Z" fill="#13B26B"/>
<path d="M114.807 51.4282H120.521V57.143H114.807V51.4282Z" fill="#00874B"/>
<path d="M120.521 51.4282H126.236V57.1429L120.521 57.143V51.4282Z" fill="#00874B"/>
<path d="M126.236 51.4282H131.951V57.143L126.236 57.1429V51.4282Z" fill="#13B26B"/>
<path d="M131.949 51.4282H137.663V57.143H131.949V51.4282Z" fill="#13B26B"/>
<path d="M137.663 51.4282H143.378V57.143H137.663V51.4282Z" fill="#13B26B"/>
<path d="M143.378 51.4282H149.093V57.143H143.378V51.4282Z" fill="#13B26B"/>
<path d="M149.093 51.4282H154.808V57.143H149.093V51.4282Z" fill="#00695C"/>
<path d="M154.807 51.4282H160.521V57.143H154.807V51.4282Z" fill="#00695C"/>
<path d="M160.521 51.4282H166.236V57.1429L160.521 57.143V51.4282Z" fill="#00695C"/>
<path d="M166.236 51.4282H171.951V57.143L166.236 57.1429V51.4282Z" fill="#00695C"/>
<path d="M171.949 51.4282H177.663V57.143H171.949V51.4282Z" fill="#13B26B"/>
<path d="M177.663 51.4282H183.378V57.143H177.663V51.4282Z" fill="#00874B"/>
<path d="M183.378 51.4282H189.093V57.143H183.378V51.4282Z" fill="#13B26B"/>
<path d="M189.093 51.4282H194.808V57.143H189.093V51.4282Z" fill="#13B26B"/>
<path d="M194.807 51.4287H200.521V57.143H194.807V51.4287Z" fill="#263238"/>
<path d="M11.9492 57.143H17.6635V62.8569H11.9492V57.143Z" fill="#263238"/>
<path d="M17.6635 57.143H23.3783V62.8569H17.6635V57.143Z" fill="#00695C"/>
<path d="M23.3783 57.143H29.0932V62.8569H23.3783V57.143Z" fill="#00695C"/>
<path d="M29.0932 57.143H34.808V62.8569H29.0932V57.143Z" fill="#00695C"/>
<path d="M34.8066 57.143H40.5209V62.8569H34.8066V57.143Z" fill="#00695C"/>
<path d="M40.5209 57.143L46.2358 57.1429V62.8569H40.5209V57.143Z" fill="#00695C"/>
<path d="M46.2358 57.1429L51.9506 57.143V62.8569H46.2358V57.1429Z" fill="#00874B"/>
<path d="M51.9492 57.143H57.6635V62.8569H51.9492V57.143Z" fill="#00695C"/>
<path d="M57.6635 57.143H63.3783V62.8569H57.6635V57.143Z" fill="#00695C"/>
<path d="M63.3783 57.143H69.0932V62.8569H63.3783V57.143Z" fill="#13B26B"/>
<path d="M69.0932 57.143H74.808V62.8569H69.0932V57.143Z" fill="#13B26B"/>
<path d="M74.8066 57.143H80.5209V62.8569H74.8066V57.143Z" fill="#13B26B"/>
<path d="M80.5209 57.143L86.2358 57.1429V62.8569H80.5209V57.143Z" fill="#13B26B"/>
<path d="M86.2358 57.1429L91.9506 57.143V62.8569H86.2358V57.1429Z" fill="#13B26B"/>
<path d="M91.9492 57.143H97.6635V62.8569H91.9492V57.143Z" fill="#00874B"/>
<path d="M97.6635 57.143H103.378V62.8569H97.6635V57.143Z" fill="#13B26B"/>
<path d="M103.378 57.143H109.093V62.8569H103.378V57.143Z" fill="#00874B"/>
<path d="M109.093 57.143H114.808V62.8569H109.093V57.143Z" fill="#00874B"/>
<path d="M114.807 57.143H120.521V62.8569H114.807V57.143Z" fill="#00874B"/>
<path d="M120.521 57.143L126.236 57.1429V62.8569H120.521V57.143Z" fill="#00874B"/>
<path d="M126.236 57.1429L131.951 57.143V62.8569H126.236V57.1429Z" fill="#00874B"/>
<path d="M131.949 57.143H137.663V62.8569H131.949V57.143Z" fill="#00874B"/>
<path d="M137.663 57.143H143.378V62.8569H137.663V57.143Z" fill="#00874B"/>
<path d="M143.378 57.143H149.093V62.8569H143.378V57.143Z" fill="#13B26B"/>
<path d="M149.093 57.143H154.808V62.8569H149.093V57.143Z" fill="#13B26B"/>
<path d="M154.807 57.143H160.521V62.8569H154.807V57.143Z" fill="#00874B"/>
<path d="M160.521 57.143L166.236 57.1429V62.8569H160.521V57.143Z" fill="#13B26B"/>
<path d="M166.236 57.1429L171.951 57.143V62.8569H166.236V57.1429Z" fill="#13B26B"/>
<path d="M171.949 57.143H177.663V62.8569H171.949V57.143Z" fill="#00874B"/>
<path d="M177.663 57.143H183.378V62.8569H177.663V57.143Z" fill="#00874B"/>
<path d="M183.378 57.143H189.093V62.8569H183.378V57.143Z" fill="#00874B"/>
<path d="M189.093 57.143H194.808V62.8569H189.093V57.143Z" fill="#00874B"/>
<path d="M194.807 57.143H200.521V62.8569H194.807V57.143Z" fill="#13B26B"/>
<path d="M200.521 57.143L206.236 57.1426V62.8569H200.521V57.143Z" fill="#263238"/>
<path d="M6.23633 62.8574H11.9506V68.5717L6.23577 68.5714L6.23633 62.8574Z" fill="#263238"/>
<path d="M11.9492 62.8569H17.6635V68.5717H11.9492V62.8569Z" fill="#13B26B"/>
<path d="M17.6635 62.8569H23.3783V68.5717H17.6635V62.8569Z" fill="#13B26B"/>
<path d="M23.3783 62.8569H29.0932V68.5717H23.3783V62.8569Z" fill="#00695C"/>
<path d="M29.0932 62.8569H34.808V68.5717H29.0932V62.8569Z" fill="#00695C"/>
<path d="M34.8066 62.8569H40.5209V68.5717H34.8066V62.8569Z" fill="#00695C"/>
<path d="M40.5209 62.8569H46.2358V68.5717H40.5209V62.8569Z" fill="#00695C"/>
<path d="M46.2358 62.8569H51.9506V68.5717H46.2358V62.8569Z" fill="#00695C"/>
<path d="M51.9492 62.8569H57.6635V68.5717H51.9492V62.8569Z" fill="#00695C"/>
<path d="M57.6635 62.8569H63.3783V68.5717H57.6635V62.8569Z" fill="#13B26B"/>
<path d="M63.3783 62.8569H69.0932V68.5717H63.3783V62.8569Z" fill="#13B26B"/>
<path d="M69.0932 62.8569H74.808V68.5717H69.0932V62.8569Z" fill="#00874B"/>
<path d="M74.8066 62.8569H80.5209V68.5717H74.8066V62.8569Z" fill="#13B26B"/>
<path d="M80.5209 62.8569H86.2358V68.5717H80.5209V62.8569Z" fill="#13B26B"/>
<path d="M86.2358 62.8569H91.9506V68.5717H86.2358V62.8569Z" fill="#13B26B"/>
<path d="M91.9492 62.8569H97.6635V68.5717H91.9492V62.8569Z" fill="#00695C"/>
<path d="M97.6635 62.8569H103.378V68.5717H97.6635V62.8569Z" fill="#00874B"/>
<path d="M103.378 62.8569H109.093V68.5717H103.378V62.8569Z" fill="#00874B"/>
<path d="M109.093 62.8569H114.808V68.5717H109.093V62.8569Z" fill="#00874B"/>
<path d="M114.807 62.8569H120.521V68.5717H114.807V62.8569Z" fill="#00874B"/>
<path d="M120.521 62.8569H126.236V68.5717H120.521V62.8569Z" fill="#00874B"/>
<path d="M126.236 62.8569H131.951V68.5717H126.236V62.8569Z" fill="#00874B"/>
<path d="M131.949 62.8569H137.663V68.5717H131.949V62.8569Z" fill="#00874B"/>
<path d="M137.663 62.8569H143.378V68.5717H137.663V62.8569Z" fill="#00874B"/>
<path d="M143.378 62.8569H149.093V68.5717H143.378V62.8569Z" fill="#00695C"/>
<path d="M149.093 62.8569H154.808V68.5717H149.093V62.8569Z" fill="#00695C"/>
<path d="M154.807 62.8569H160.521V68.5717H154.807V62.8569Z" fill="#00874B"/>
<path d="M160.521 62.8569H166.236V68.5717H160.521V62.8569Z" fill="#13B26B"/>
<path d="M166.236 62.8569H171.951V68.5717H166.236V62.8569Z" fill="#00874B"/>
<path d="M171.949 62.8569H177.663V68.5717H171.949V62.8569Z" fill="#00874B"/>
<path d="M177.663 62.8569H183.378V68.5717H177.663V62.8569Z" fill="#00874B"/>
<path d="M183.378 62.8569H189.093V68.5717H183.378V62.8569Z" fill="#00874B"/>
<path d="M189.093 62.8569H194.808V68.5717H189.093V62.8569Z" fill="#00874B"/>
<path d="M194.807 62.8569H200.521V68.5717H194.807V62.8569Z" fill="#13B26B"/>
<path d="M200.521 62.8569H206.236V68.5717H200.521V62.8569Z" fill="#263238"/>
<path d="M6.23577 68.5714L11.9506 68.5717V74.2856L6.23577 74.2857V68.5714Z" fill="#13B26B"/>
<path d="M11.9492 68.5717H17.6635V74.2856H11.9492V68.5717Z" fill="#00874B"/>
<path d="M17.6635 68.5717H23.3783V74.2856H17.6635V68.5717Z" fill="#13B26B"/>
<path d="M23.3783 68.5717H29.0932V74.2856H23.3783V68.5717Z" fill="#13B26B"/>
<path d="M29.0932 68.5717H34.808V74.2856H29.0932V68.5717Z" fill="#00874B"/>
<path d="M34.8066 68.5717H40.5209V74.2856H34.8066V68.5717Z" fill="#13B26B"/>
<path d="M40.5209 68.5717H46.2358V74.2857L40.5209 74.2856V68.5717Z" fill="#00874B"/>
<path d="M46.2358 68.5717H51.9506V74.2856L46.2358 74.2857V68.5717Z" fill="#00874B"/>
<path d="M51.9492 68.5717H57.6635V74.2856H51.9492V68.5717Z" fill="#13B26B"/>
<path d="M57.6635 68.5717H63.3783V74.2856H57.6635V68.5717Z" fill="#00874B"/>
<path d="M63.3783 68.5717H69.0932V74.2856H63.3783V68.5717Z" fill="#00874B"/>
<path d="M69.0932 68.5717H74.808V74.2856H69.0932V68.5717Z" fill="#00874B"/>
<path d="M74.8066 68.5717H80.5209V74.2856H74.8066V68.5717Z" fill="#00874B"/>
<path d="M80.5209 68.5717H86.2358V74.2857L80.5209 74.2856V68.5717Z" fill="#00874B"/>
<path d="M86.2358 68.5717H91.9506V74.2856L86.2358 74.2857V68.5717Z" fill="#13B26B"/>
<path d="M91.9492 68.5717H97.6635V74.2856H91.9492V68.5717Z" fill="#13B26B"/>
<path d="M97.6635 68.5717H103.378V74.2856H97.6635V68.5717Z" fill="#00695C"/>
<path d="M103.378 68.5717H109.093V74.2856H103.378V68.5717Z" fill="#00695C"/>
<path d="M109.093 68.5717H114.808V74.2856H109.093V68.5717Z" fill="#00874B"/>
<path d="M114.807 68.5717H120.521V74.2856H114.807V68.5717Z" fill="#00874B"/>
<path d="M120.521 68.5717H126.236V74.2857L120.521 74.2856V68.5717Z" fill="#00874B"/>
<path d="M126.236 68.5717H131.951V74.2856L126.236 74.2857V68.5717Z" fill="#00874B"/>
<path d="M131.949 68.5717H137.663V74.2856H131.949V68.5717Z" fill="#00874B"/>
<path d="M137.663 68.5717H143.378V74.2856H137.663V68.5717Z" fill="#00874B"/>
<path d="M143.378 68.5717H149.093V74.2856H143.378V68.5717Z" fill="#00695C"/>
<path d="M149.093 68.5717H154.808V74.2856H149.093V68.5717Z" fill="#00874B"/>
<path d="M154.807 68.5717H160.521V74.2856H154.807V68.5717Z" fill="#00874B"/>
<path d="M160.521 68.5717H166.236V74.2857L160.521 74.2856V68.5717Z" fill="#00874B"/>
<path d="M166.236 68.5717H171.951V74.2856L166.236 74.2857V68.5717Z" fill="#00874B"/>
<path d="M171.949 68.5717H177.663V74.2856H171.949V68.5717Z" fill="#00874B"/>
<path d="M177.663 68.5717H183.378V74.2856H177.663V68.5717Z" fill="#00874B"/>
<path d="M183.378 68.5717H189.093V74.2856H183.378V68.5717Z" fill="#00874B"/>
<path d="M189.093 68.5717H194.808V74.2856H189.093V68.5717Z" fill="#00874B"/>
<path d="M194.807 68.5717H200.521V74.2856H194.807V68.5717Z" fill="#00874B"/>
<path d="M200.521 68.5717H206.236V74.2857L200.521 74.2856V68.5717Z" fill="#263238"/>
<path d="M6.23577 74.2857L11.9506 74.2856V80.0004H6.23577V74.2857Z" fill="#00874B"/>
<path d="M11.9492 74.2856H17.6635V80.0004H11.9492V74.2856Z" fill="#00874B"/>
<path d="M17.6635 74.2856H23.3783V80.0004H17.6635V74.2856Z" fill="#00874B"/>
<path d="M23.3783 74.2856H29.0932V80.0004H23.3783V74.2856Z" fill="#00874B"/>
<path d="M29.0932 74.2856H34.808V80.0004H29.0932V74.2856Z" fill="#00874B"/>
<path d="M34.8066 74.2856H40.5209V80.0004H34.8066V74.2856Z" fill="#00874B"/>
<path d="M40.5209 74.2856L46.2358 74.2857V80.0004H40.5209V74.2856Z" fill="#13B26B"/>
<path d="M46.2358 74.2857L51.9506 74.2856V80.0004H46.2358V74.2857Z" fill="#00874B"/>
<path d="M51.9492 74.2856H57.6635V80.0004H51.9492V74.2856Z" fill="#00874B"/>
<path d="M57.6635 74.2856H63.3783V80.0004H57.6635V74.2856Z" fill="#00874B"/>
<path d="M63.3783 74.2856H69.0932V80.0004H63.3783V74.2856Z" fill="#00874B"/>
<path d="M69.0932 74.2856H74.808V80.0004H69.0932V74.2856Z" fill="#00874B"/>
<path d="M74.8066 74.2856H80.5209V80.0004H74.8066V74.2856Z" fill="#00874B"/>
<path d="M80.5209 74.2856L86.2358 74.2857V80.0004H80.5209V74.2856Z" fill="#00874B"/>
<path d="M86.2358 74.2857L91.9506 74.2856V80.0004H86.2358V74.2857Z" fill="#13B26B"/>
<path d="M91.9492 74.2856H97.6635V80.0004H91.9492V74.2856Z" fill="#13B26B"/>
<path d="M97.6635 74.2856H103.378V80.0004H97.6635V74.2856Z" fill="#13B26B"/>
<path d="M103.378 74.2856H109.093V80.0004H103.378V74.2856Z" fill="#00695C"/>
<path d="M109.093 74.2856H114.808V80.0004H109.093V74.2856Z" fill="#00695C"/>
<path d="M114.807 74.2856H120.521V80.0004H114.807V74.2856Z" fill="#00874B"/>
<path d="M120.521 74.2856L126.236 74.2857V80.0004H120.521V74.2856Z" fill="#00695C"/>
<path d="M126.236 74.2857L131.951 74.2856V80.0004H126.236V74.2857Z" fill="#00695C"/>
<path d="M131.949 74.2856H137.663V80.0004H131.949V74.2856Z" fill="#00695C"/>
<path d="M137.663 74.2856H143.378V80.0004H137.663V74.2856Z" fill="#00695C"/>
<path d="M143.378 74.2856H149.093V80.0004H143.378V74.2856Z" fill="#00695C"/>
<path d="M149.093 74.2856H154.808V80.0004H149.093V74.2856Z" fill="#00874B"/>
<path d="M154.807 74.2856H160.521V80.0004H154.807V74.2856Z" fill="#00874B"/>
<path d="M160.521 74.2856L166.236 74.2857V80.0004H160.521V74.2856Z" fill="#00695C"/>
<path d="M166.236 74.2857L171.951 74.2856V80.0004H166.236V74.2857Z" fill="#00874B"/>
<path d="M171.949 74.2856H177.663V80.0004H171.949V74.2856Z" fill="#00874B"/>
<path d="M177.663 74.2856H183.378V80.0004H177.663V74.2856Z" fill="#00874B"/>
<path d="M183.378 74.2856H189.093V80.0004H183.378V74.2856Z" fill="#00874B"/>
<path d="M189.093 74.2856H194.808V80.0004H189.093V74.2856Z" fill="#00874B"/>
<path d="M194.807 74.2856H200.521V80.0004H194.807V74.2856Z" fill="#00695C"/>
<path d="M200.521 74.2856L206.236 74.2857V80.0004H200.521V74.2856Z" fill="#263238"/>
<path d="M6.23577 80.0004H11.9506V85.7143H6.23577V80.0004Z" fill="#00695C"/>
<path d="M11.9492 80.0004H17.6635V85.7143H11.9492V80.0004Z" fill="#00874B"/>
<path d="M17.6635 80.0004H23.3783V85.7143H17.6635V80.0004Z" fill="#00874B"/>
<path d="M23.3783 80.0004H29.0932V85.7143H23.3783V80.0004Z" fill="#00874B"/>
<path d="M29.0932 80.0004H34.808V85.7143H29.0932V80.0004Z" fill="#00874B"/>
<path d="M34.8066 80.0004H40.5209V85.7143H34.8066V80.0004Z" fill="#00874B"/>
<path d="M40.5209 80.0004H46.2358V85.7143H40.5209V80.0004Z" fill="#00874B"/>
<path d="M46.2358 80.0004H51.9506V85.7143H46.2358V80.0004Z" fill="#00695C"/>
<path d="M51.9492 80.0004H57.6635V85.7143H51.9492V80.0004Z" fill="#00874B"/>
<path d="M57.6635 80.0004H63.3783V85.7143H57.6635V80.0004Z" fill="#00874B"/>
<path d="M63.3783 80.0004H69.0932V85.7143H63.3783V80.0004Z" fill="#00874B"/>
<path d="M69.0932 80.0004H74.808V85.7143H69.0932V80.0004Z" fill="#00874B"/>
<path d="M74.8066 80.0004H80.5209V85.7143H74.8066V80.0004Z" fill="#00874B"/>
<path d="M80.5209 80.0004H86.2358V85.7143H80.5209V80.0004Z" fill="#00874B"/>
<path d="M86.2358 80.0004H91.9506V85.7143H86.2358V80.0004Z" fill="#00695C"/>
<path d="M91.9492 80.0004H97.6635V85.7143H91.9492V80.0004Z" fill="#13B26B"/>
<path d="M97.6635 80.0004H103.378V85.7143H97.6635V80.0004Z" fill="#00874B"/>
<path d="M103.378 80.0004H109.093V85.7143H103.378V80.0004Z" fill="#13B26B"/>
<path d="M109.093 80.0004H114.808V85.7143H109.093V80.0004Z" fill="#00695C"/>
<path d="M114.807 80.0004H120.521V85.7143H114.807V80.0004Z" fill="#00695C"/>
<path d="M120.521 80.0004H126.236V85.7143H120.521V80.0004Z" fill="#13B26B"/>
<path d="M126.236 80.0004H131.951V85.7143H126.236V80.0004Z" fill="#13B26B"/>
<path d="M131.949 80.0004H137.663V85.7143H131.949V80.0004Z" fill="#13B26B"/>
<path d="M137.663 80.0004H143.378V85.7143H137.663V80.0004Z" fill="#13B26B"/>
<path d="M143.378 80.0004H149.093V85.7143H143.378V80.0004Z" fill="#00695C"/>
<path d="M149.093 80.0004H154.808V85.7143H149.093V80.0004Z" fill="#00695C"/>
<path d="M154.807 80.0004H160.521V85.7143H154.807V80.0004Z" fill="#00874B"/>
<path d="M160.521 80.0004H166.236V85.7143H160.521V80.0004Z" fill="#00874B"/>
<path d="M166.236 80.0004H171.951V85.7143H166.236V80.0004Z" fill="#00695C"/>
<path d="M171.949 80.0004H177.663V85.7143H171.949V80.0004Z" fill="#00874B"/>
<path d="M177.663 80.0004H183.378V85.7143H177.663V80.0004Z" fill="#00874B"/>
<path d="M183.378 80.0004H189.093V85.7143H183.378V80.0004Z" fill="#00874B"/>
<path d="M189.093 80.0004H194.808V85.7143H189.093V80.0004Z" fill="#00695C"/>
<path d="M194.807 80.0004H200.521V85.7143H194.807V80.0004Z" fill="#00695C"/>
<path d="M200.521 80.0004H206.236V85.7143H200.521V80.0004Z" fill="#263238"/>
<path d="M6.23577 85.7143H11.9506V91.4282H6.23577V85.7143Z" fill="#00695C"/>
<path d="M11.9492 85.7143H17.6635V91.4282H11.9492V85.7143Z" fill="#00874B"/>
<path d="M17.6635 85.7143H23.3783V91.4282H17.6635V85.7143Z" fill="#00874B"/>
<path d="M23.3783 85.7143H29.0932V91.4282H23.3783V85.7143Z" fill="#00874B"/>
<path d="M29.0932 85.7143H34.808V91.4282H29.0932V85.7143Z" fill="#00874B"/>
<path d="M34.8066 85.7143H40.5209V91.4282H34.8066V85.7143Z" fill="#00874B"/>
<path d="M40.5209 85.7143H46.2358V91.4282H40.5209V85.7143Z" fill="#00874B"/>
<path d="M46.2358 85.7143H51.9506V91.4282H46.2358V85.7143Z" fill="#00695C"/>
<path d="M51.9492 85.7143H57.6635V91.4282H51.9492V85.7143Z" fill="#00695C"/>
<path d="M57.6635 85.7143H63.3783V91.4282H57.6635V85.7143Z" fill="#00695C"/>
<path d="M63.3783 85.7143H69.0932V91.4282H63.3783V85.7143Z" fill="#00874B"/>
<path d="M69.0932 85.7143H74.808V91.4282H69.0932V85.7143Z" fill="#00874B"/>
<path d="M74.8066 85.7143H80.5209V91.4282H74.8066V85.7143Z" fill="#00874B"/>
<path d="M80.5209 85.7143H86.2358V91.4282H80.5209V85.7143Z" fill="#00695C"/>
<path d="M86.2358 85.7143H91.9506V91.4282H86.2358V85.7143Z" fill="#13B26B"/>
<path d="M91.9492 85.7143H97.6635V91.4282H91.9492V85.7143Z" fill="#00874B"/>
<path d="M97.6635 85.7143H103.378V91.4282H97.6635V85.7143Z" fill="#00874B"/>
<path d="M103.378 85.7143H109.093V91.4282H103.378V85.7143Z" fill="#00874B"/>
<path d="M109.093 85.7143H114.808V91.4282H109.093V85.7143Z" fill="#13B26B"/>
<path d="M114.807 85.7143H120.521V91.4282H114.807V85.7143Z" fill="#13B26B"/>
<path d="M120.521 85.7143H126.236V91.4282H120.521V85.7143Z" fill="#00874B"/>
<path d="M126.236 85.7143H131.951V91.4282H126.236V85.7143Z" fill="#00874B"/>
<path d="M131.949 85.7143H137.663V91.4282H131.949V85.7143Z" fill="#00874B"/>
<path d="M137.663 85.7143H143.378V91.4282H137.663V85.7143Z" fill="#00874B"/>
<path d="M143.378 85.7143H149.093V91.4282H143.378V85.7143Z" fill="#13B26B"/>
<path d="M149.093 85.7143H154.808V91.4282H149.093V85.7143Z" fill="#00695C"/>
<path d="M154.807 85.7143H160.521V91.4282H154.807V85.7143Z" fill="#00874B"/>
<path d="M160.521 85.7143H166.236V91.4282H160.521V85.7143Z" fill="#13B26B"/>
<path d="M166.236 85.7143H171.951V91.4282H166.236V85.7143Z" fill="#00695C"/>
<path d="M171.949 85.7143H177.663V91.4282H171.949V85.7143Z" fill="#00695C"/>
<path d="M177.663 85.7143H183.378V91.4282H177.663V85.7143Z" fill="#00695C"/>
<path d="M183.378 85.7143H189.093V91.4282H183.378V85.7143Z" fill="#00695C"/>
<path d="M189.093 85.7143H194.808V91.4282H189.093V85.7143Z" fill="#00695C"/>
<path d="M194.807 85.7143H200.521V91.4282H194.807V85.7143Z" fill="#263238"/>
<path d="M6.23577 91.4282H11.9506V97.143L6.23577 97.1429V91.4282Z" fill="#00695C"/>
<path d="M11.9492 91.4282H17.6635V97.143H11.9492V91.4282Z" fill="#00695C"/>
<path d="M17.6635 91.4282H23.3783V97.143H17.6635V91.4282Z" fill="#00874B"/>
<path d="M23.3783 91.4282H29.0932V97.143H23.3783V91.4282Z" fill="#00874B"/>
<path d="M29.0932 91.4282H34.808V97.143H29.0932V91.4282Z" fill="#00874B"/>
<path d="M34.8066 91.4282H40.5209V97.143H34.8066V91.4282Z" fill="#00695C"/>
<path d="M40.5209 91.4282H46.2358V97.1429L40.5209 97.143V91.4282Z" fill="#00695C"/>
<path d="M46.2358 91.4282H51.9506V97.143L46.2358 97.1429V91.4282Z" fill="#13B26B"/>
<path d="M51.9492 91.4282H57.6635V97.143H51.9492V91.4282Z" fill="#13B26B"/>
<path d="M57.6635 91.4282H63.3783V97.143H57.6635V91.4282Z" fill="#13B26B"/>
<path d="M63.3783 91.4282H69.0932V97.143H63.3783V91.4282Z" fill="#00695C"/>
<path d="M69.0932 91.4282H74.808V97.143H69.0932V91.4282Z" fill="#00695C"/>
<path d="M74.8066 91.4282H80.5209V97.143H74.8066V91.4282Z" fill="#00695C"/>
<path d="M80.5209 91.4282H86.2358V97.1429L80.5209 97.143V91.4282Z" fill="#00695C"/>
<path d="M86.2358 91.4282H91.9506V97.143L86.2358 97.1429V91.4282Z" fill="#00874B"/>
<path d="M91.9492 91.4282H97.6635V97.143H91.9492V91.4282Z" fill="#00874B"/>
<path d="M97.6635 91.4282H103.378V97.143H97.6635V91.4282Z" fill="#00874B"/>
<path d="M103.378 91.4282H109.093V97.143H103.378V91.4282Z" fill="#13B26B"/>
<path d="M109.093 91.4282H114.808V97.143H109.093V91.4282Z" fill="#00874B"/>
<path d="M114.807 91.4282H120.521V97.143H114.807V91.4282Z" fill="#00874B"/>
<path d="M120.521 91.4282H126.236V97.1429L120.521 97.143V91.4282Z" fill="#00874B"/>
<path d="M126.236 91.4282H131.951V97.143L126.236 97.1429V91.4282Z" fill="#00874B"/>
<path d="M131.949 91.4282H137.663V97.143H131.949V91.4282Z" fill="#00874B"/>
<path d="M137.663 91.4282H143.378V97.143H137.663V91.4282Z" fill="#00874B"/>
<path d="M143.378 91.4282H149.093V97.143H143.378V91.4282Z" fill="#00874B"/>
<path d="M149.093 91.4282H154.808V97.143H149.093V91.4282Z" fill="#00874B"/>
<path d="M154.807 91.4282H160.521V97.143H154.807V91.4282Z" fill="#00874B"/>
<path d="M160.521 91.4282H166.236V97.1429L160.521 97.143V91.4282Z" fill="#13B26B"/>
<path d="M166.236 91.4282H171.951V97.143L166.236 97.1429V91.4282Z" fill="#00874B"/>
<path d="M171.949 91.4282H177.663V97.143H171.949V91.4282Z" fill="#00874B"/>
<path d="M177.663 91.4282H183.378V97.143H177.663V91.4282Z" fill="#00874B"/>
<path d="M183.378 91.4282H189.093V97.143H183.378V91.4282Z" fill="#00874B"/>
<path d="M189.093 91.4282H194.808V97.143H189.093V91.4282Z" fill="#00874B"/>
<path d="M194.807 91.4282H200.521V97.143H194.807V91.4282Z" fill="#263238"/>
<path d="M6.23577 97.1429L11.9506 97.143V102.857H6.23633L6.23577 97.1429Z" fill="#263238"/>
<path d="M11.9492 97.143H17.6635V102.857H11.9492V97.143Z" fill="#00695C"/>
<path d="M17.6635 97.143H23.3783V102.857H17.6635V97.143Z" fill="#00695C"/>
<path d="M23.3783 97.143H29.0932V102.857H23.3783V97.143Z" fill="#00695C"/>
<path d="M29.0932 97.143H34.808V102.857H29.0932V97.143Z" fill="#00695C"/>
<path d="M34.8066 97.143H40.5209V102.857H34.8066V97.143Z" fill="#00695C"/>
<path d="M40.5209 97.143L46.2358 97.1429V102.857H40.5209V97.143Z" fill="#00695C"/>
<path d="M46.2358 97.1429L51.9506 97.143V102.857H46.2358V97.1429Z" fill="#13B26B"/>
<path d="M51.9492 97.143H57.6635V102.857H51.9492V97.143Z" fill="#00874B"/>
<path d="M57.6635 97.143H63.3783V102.857H57.6635V97.143Z" fill="#00874B"/>
<path d="M63.3783 97.143H69.0932V102.857H63.3783V97.143Z" fill="#00874B"/>
<path d="M69.0932 97.143H74.808V102.857H69.0932V97.143Z" fill="#13B26B"/>
<path d="M74.8066 97.143H80.5209V102.857H74.8066V97.143Z" fill="#00874B"/>
<path d="M80.5209 97.143L86.2358 97.1429V102.857H80.5209V97.143Z" fill="#00695C"/>
<path d="M86.2358 97.1429L91.9506 97.143V102.857H86.2358V97.1429Z" fill="#00695C"/>
<path d="M91.9492 97.143H97.6635V102.857H91.9492V97.143Z" fill="#00874B"/>
<path d="M97.6635 97.143H103.378V102.857H97.6635V97.143Z" fill="#00874B"/>
<path d="M103.378 97.143H109.093V102.857H103.378V97.143Z" fill="#00874B"/>
<path d="M109.093 97.143H114.808V102.857H109.093V97.143Z" fill="#00874B"/>
<path d="M114.807 97.143H120.521V102.857H114.807V97.143Z" fill="#00874B"/>
<path d="M120.521 97.143L126.236 97.1429V102.857H120.521V97.143Z" fill="#00874B"/>
<path d="M126.236 97.1429L131.951 97.143V102.857H126.236V97.1429Z" fill="#00874B"/>
<path d="M131.949 97.143H137.663V102.857H131.949V97.143Z" fill="#00874B"/>
<path d="M137.663 97.143H143.378V102.857H137.663V97.143Z" fill="#00874B"/>
<path d="M143.378 97.143H149.093V102.857H143.378V97.143Z" fill="#00874B"/>
<path d="M149.093 97.143H154.808V102.857H149.093V97.143Z" fill="#00874B"/>
<path d="M154.807 97.143H160.521V102.857H154.807V97.143Z" fill="#00695C"/>
<path d="M160.521 97.143L166.236 97.1429V102.857H160.521V97.143Z" fill="#00874B"/>
<path d="M166.236 97.1429L171.951 97.143V102.857H166.236V97.1429Z" fill="#00874B"/>
<path d="M171.949 97.143H177.663V102.857H171.949V97.143Z" fill="#00874B"/>
<path d="M177.663 97.143H183.378V102.857H177.663V97.143Z" fill="#00874B"/>
<path d="M183.378 97.143H189.093V102.857H183.378V97.143Z" fill="#00874B"/>
<path d="M189.093 97.143H194.808V102.857H189.093V97.143Z" fill="#263238"/>
<path d="M6.23633 102.857H11.9506V108.572H6.23633V102.857Z" fill="#263238"/>
<path d="M11.9492 102.857H17.6635V108.572H11.9492V102.857Z" fill="#00695C"/>
<path d="M17.6635 102.857H23.3783V108.572H17.6635V102.857Z" fill="#00695C"/>
<path d="M23.3783 102.857H29.0932V108.572H23.3783V102.857Z" fill="#00695C"/>
<path d="M29.0932 102.857H34.808V108.572H29.0932V102.857Z" fill="#00695C"/>
<path d="M34.8066 102.857H40.5209V108.572H34.8066V102.857Z" fill="#00695C"/>
<path d="M40.5209 102.857H46.2358V108.572H40.5209V102.857Z" fill="#13B26B"/>
<path d="M46.2358 102.857H51.9506V108.572H46.2358V102.857Z" fill="#00874B"/>
<path d="M51.9492 102.857H57.6635V108.572H51.9492V102.857Z" fill="#00874B"/>
<path d="M57.6635 102.857H63.3783V108.572H57.6635V102.857Z" fill="#00874B"/>
<path d="M63.3783 102.857H69.0932V108.572H63.3783V102.857Z" fill="#00874B"/>
<path d="M69.0932 102.857H74.808V108.572H69.0932V102.857Z" fill="#00874B"/>
<path d="M74.8066 102.857H80.5209V108.572H74.8066V102.857Z" fill="#00874B"/>
<path d="M80.5209 102.857H86.2358V108.572H80.5209V102.857Z" fill="#00874B"/>
<path d="M86.2358 102.857H91.9506V108.572H86.2358V102.857Z" fill="#00874B"/>
<path d="M91.9492 102.857H97.6635V108.572H91.9492V102.857Z" fill="#00874B"/>
<path d="M97.6635 102.857H103.378V108.572H97.6635V102.857Z" fill="#00695C"/>
<path d="M103.378 102.857H109.093V108.572H103.378V102.857Z" fill="#00874B"/>
<path d="M109.093 102.857H114.808V108.572H109.093V102.857Z" fill="#00874B"/>
<path d="M114.807 102.857H120.521V108.572H114.807V102.857Z" fill="#00874B"/>
<path d="M120.521 102.857H126.236V108.572H120.521V102.857Z" fill="#00874B"/>
<path d="M126.236 102.857H131.951V108.572H126.236V102.857Z" fill="#00874B"/>
<path d="M131.949 102.857H137.663V108.572H131.949V102.857Z" fill="#00874B"/>
<path d="M137.663 102.857H143.378V108.572H137.663V102.857Z" fill="#00874B"/>
<path d="M143.378 102.857H149.093V108.572H143.378V102.857Z" fill="#00874B"/>
<path d="M149.093 102.857H154.808V108.572H149.093V102.857Z" fill="#00874B"/>
<path d="M154.807 102.857H160.521V108.572H154.807V102.857Z" fill="#00695C"/>
<path d="M160.521 102.857H166.236V108.572H160.521V102.857Z" fill="#00695C"/>
<path d="M166.236 102.857H171.951V108.572H166.236V102.857Z" fill="#00874B"/>
<path d="M171.949 102.857H177.663V108.572H171.949V102.857Z" fill="#00874B"/>
<path d="M177.663 102.857H183.378V108.572H177.663V102.857Z" fill="#00874B"/>
<path d="M183.378 102.857H189.093V108.572H183.378V102.857Z" fill="#00695C"/>
<path d="M189.093 102.857H194.808V108.572H189.093V102.857Z" fill="#263238"/>
<path d="M11.9492 108.572H17.6635V114.286H11.9492V108.572Z" fill="#263238"/>
<path d="M17.6635 108.572H23.3783V114.286H17.6635V108.572Z" fill="#263238"/>
<path d="M23.3783 108.572H29.0932V114.286H23.3783V108.572Z" fill="#263238"/>
<path d="M29.0932 108.572H34.808V114.286H29.0932V108.572Z" fill="#263238"/>
<path d="M34.8066 108.572H40.5209V114.286H34.8066V108.572Z" fill="#00695C"/>
<path d="M40.5209 108.572H46.2358V114.286L40.5209 114.286V108.572Z" fill="#00874B"/>
<path d="M46.2358 108.572H51.9506V114.286L46.2358 114.286V108.572Z" fill="#00874B"/>
<path d="M51.9492 108.572H57.6635V114.286H51.9492V108.572Z" fill="#00874B"/>
<path d="M57.6635 108.572H63.3783V114.286H57.6635V108.572Z" fill="#00874B"/>
<path d="M63.3783 108.572H69.0932V114.286H63.3783V108.572Z" fill="#00874B"/>
<path d="M69.0932 108.572H74.808V114.286H69.0932V108.572Z" fill="#00874B"/>
<path d="M74.8066 108.572H80.5209V114.286H74.8066V108.572Z" fill="#00695C"/>
<path d="M80.5209 108.572H86.2358V114.286L80.5209 114.286V108.572Z" fill="#00874B"/>
<path d="M86.2358 108.572H91.9506V114.286L86.2358 114.286V108.572Z" fill="#00874B"/>
<path d="M91.9492 108.572H97.6635V114.286H91.9492V108.572Z" fill="#00874B"/>
<path d="M97.6635 108.572H103.378V114.286H97.6635V108.572Z" fill="#00874B"/>
<path d="M103.378 108.572H109.093V114.286H103.378V108.572Z" fill="#00695C"/>
<path d="M109.093 108.572H114.808V114.286H109.093V108.572Z" fill="#00874B"/>
<path d="M114.807 108.572H120.521V114.286H114.807V108.572Z" fill="#00874B"/>
<path d="M120.521 108.572H126.236V114.286L120.521 114.286V108.572Z" fill="#00874B"/>
<path d="M126.236 108.572H131.951V114.286L126.236 114.286V108.572Z" fill="#00874B"/>
<path d="M131.949 108.572H137.663V114.286H131.949V108.572Z" fill="#00874B"/>
<path d="M137.663 108.572H143.378V114.286H137.663V108.572Z" fill="#00874B"/>
<path d="M143.378 108.572H149.093V114.286H143.378V108.572Z" fill="#00695C"/>
<path d="M149.093 108.572H154.808V114.286H149.093V108.572Z" fill="#00695C"/>
<path d="M154.807 108.572H160.521V114.286H154.807V108.572Z" fill="#00695C"/>
<path d="M160.521 108.572H166.236V114.286L160.521 114.286V108.572Z" fill="#00695C"/>
<path d="M166.236 108.572H171.951V114.286L166.236 114.286V108.572Z" fill="#00695C"/>
<path d="M171.949 108.572H177.663V114.286H171.949V108.572Z" fill="#00874B"/>
<path d="M177.663 108.572H183.378V114.286H177.663V108.572Z" fill="#00695C"/>
<path d="M183.378 108.572H189.093V114.286H183.378V108.572Z" fill="#263238"/>
<path d="M29.0932 114.286H34.808V120H29.0938L29.0932 114.286Z" fill="#263238"/>
<path d="M34.8066 114.286H40.5209V120H34.8066V114.286Z" fill="#00695C"/>
<path d="M40.5209 114.286L46.2358 114.286V120H40.5209V114.286Z" fill="#00695C"/>
<path d="M46.2358 114.286L51.9506 114.286V120H46.2358V114.286Z" fill="#00874B"/>
<path d="M51.9492 114.286H57.6635V120H51.9492V114.286Z" fill="#00874B"/>
<path d="M57.6635 114.286H63.3783V120H57.6635V114.286Z" fill="#00874B"/>
<path d="M63.3783 114.286H69.0932V120H63.3783V114.286Z" fill="#00695C"/>
<path d="M69.0932 114.286H74.808V120H69.0932V114.286Z" fill="#00695C"/>
<path d="M74.8066 114.286H80.5209V120H74.8066V114.286Z" fill="#00695C"/>
<path d="M80.5209 114.286L86.2358 114.286V120H80.5209V114.286Z" fill="#00874B"/>
<path d="M86.2358 114.286L91.9506 114.286V120H86.2358V114.286Z" fill="#00874B"/>
<path d="M91.9492 114.286H97.6635V120H91.9492V114.286Z" fill="#00874B"/>
<path d="M97.6635 114.286H103.378V120H97.6635V114.286Z" fill="#00874B"/>
<path d="M103.378 114.286H109.093V120H103.378V114.286Z" fill="#00695C"/>
<path d="M109.093 114.286H114.808V120H109.093V114.286Z" fill="#00695C"/>
<path d="M114.807 114.286H120.521V120H114.807V114.286Z" fill="#00874B"/>
<path d="M120.521 114.286L126.236 114.286V120H120.521V114.286Z" fill="#00695C"/>
<path d="M126.236 114.286L131.951 114.286V120H126.236V114.286Z" fill="#00695C"/>
<path d="M131.949 114.286H137.663V120H131.949V114.286Z" fill="#00695C"/>
<path d="M137.663 114.286H143.378V120H137.663V114.286Z" fill="#00695C"/>
<path d="M143.378 114.286H149.093V120H143.378V114.286Z" fill="#00695C"/>
<path d="M149.093 114.286H154.808V120H149.093V114.286Z" fill="#00695C"/>
<path d="M154.807 114.286H160.521V120H154.807V114.286Z" fill="#00695C"/>
<path d="M160.521 114.286L166.236 114.286V120H160.521V114.286Z" fill="#00695C"/>
<path d="M166.236 114.286L171.951 114.286V120H166.236V114.286Z" fill="#00695C"/>
<path d="M171.949 114.286H177.663V120H171.949V114.286Z" fill="#00695C"/>
<path d="M177.663 114.286H183.378V120H177.663V114.286Z" fill="#00695C"/>
<path d="M183.378 114.286H189.093V120H183.378V114.286Z" fill="#263238"/>
<path d="M29.0938 120H34.808V125.714H29.0938V120Z" fill="#263238"/>
<path d="M34.8066 120H40.5209V125.714H34.8066V120Z" fill="#00695C"/>
<path d="M40.5209 120H46.2358V125.714H40.5209V120Z" fill="#00695C"/>
<path d="M46.2358 120H51.9506V125.714H46.2358V120Z" fill="#00695C"/>
<path d="M51.9492 120H57.6635V125.714H51.9492V120Z" fill="#00695C"/>
<path d="M57.6635 120H63.3783V125.714H57.6635V120Z" fill="#00695C"/>
<path d="M63.3783 120H69.0932V125.714H63.3783V120Z" fill="#00695C"/>
<path d="M69.0932 120H74.808V125.714H69.0932V120Z" fill="#00695C"/>
<path d="M74.8066 120H80.5209V125.714H74.8066V120Z" fill="#00695C"/>
<path d="M80.5209 120H86.2358V125.714H80.5209V120Z" fill="#00695C"/>
<path d="M86.2358 120H91.9506V125.714H86.2358V120Z" fill="#00874B"/>
<path d="M91.9492 120H97.6635V125.714H91.9492V120Z" fill="#00695C"/>
<path d="M97.6635 120H103.378V125.714H97.6635V120Z" fill="#00695C"/>
<path d="M103.378 120H109.093V125.714H103.378V120Z" fill="#00695C"/>
<path d="M109.093 120H114.808V125.714H109.093V120Z" fill="#00695C"/>
<path d="M114.807 120H120.521V125.714H114.807V120Z" fill="#00695C"/>
<path d="M120.521 120H126.236V125.714H120.521V120Z" fill="#00695C"/>
<path d="M126.236 120H131.951V125.714H126.236V120Z" fill="#00695C"/>
<path d="M131.949 120H137.663V125.714H131.949V120Z" fill="#00695C"/>
<path d="M137.663 120H143.378V125.714H137.663V120Z" fill="#00695C"/>
<path d="M143.378 120H149.093V125.714H143.378V120Z" fill="#00695C"/>
<path d="M149.093 120H154.808V125.714H149.093V120Z" fill="#00695C"/>
<path d="M154.807 120H160.521V125.714H154.807V120Z" fill="#263238"/>
<path d="M160.521 120H166.236V125.714H160.521V120Z" fill="#263238"/>
<path d="M166.236 120H171.951V125.714H166.236V120Z" fill="#263238"/>
<path d="M171.949 120H177.663V125.714H171.949V120Z" fill="#263238"/>
<path d="M177.663 120H183.378V125.714H177.663V120Z" fill="#263238"/>
<path d="M34.8066 125.714H40.5209V131.428H34.8066V125.714Z" fill="#263238"/>
<path d="M40.5209 125.714H46.2358V131.428H40.5209V125.714Z" fill="#00695C"/>
<path d="M46.2358 125.714H51.9506V131.428H46.2358V125.714Z" fill="#00695C"/>
<path d="M51.9492 125.714H57.6635V131.428H51.9492V125.714Z" fill="#00695C"/>
<path d="M57.6635 125.714H63.3783V131.428H57.6635V125.714Z" fill="#00695C"/>
<path d="M63.3783 125.714H69.0932V131.428H63.3783V125.714Z" fill="#00695C"/>
<path d="M69.0932 125.714H74.808V131.428H69.0932V125.714Z" fill="#00695C"/>
<path d="M74.8066 125.714H80.5209V131.428H74.8066V125.714Z" fill="#00695C"/>
<path d="M80.5209 125.714H86.2358V131.428H80.5209V125.714Z" fill="#00695C"/>
<path d="M86.2358 125.714H91.9506V131.428H86.2358V125.714Z" fill="#00695C"/>
<path d="M91.9492 125.714H97.6635V131.428H91.9492V125.714Z" fill="#00695C"/>
<path d="M97.6635 125.714H103.378V131.428H97.6635V125.714Z" fill="#00695C"/>
<path d="M103.378 125.714H109.093V131.428H103.378V125.714Z" fill="#00695C"/>
<path d="M109.093 125.714H114.808V131.428H109.093V125.714Z" fill="#00695C"/>
<path d="M114.807 125.714H120.521V131.428H114.807V125.714Z" fill="#00695C"/>
<path d="M120.521 125.714H126.236V131.428H120.521V125.714Z" fill="#00695C"/>
<path d="M126.236 125.714H131.951V131.428H126.236V125.714Z" fill="#00695C"/>
<path d="M131.949 125.714H137.663V131.428H131.949V125.714Z" fill="#00695C"/>
<path d="M137.663 125.714H143.378V131.428H137.663V125.714Z" fill="#00695C"/>
<path d="M143.378 125.714H149.093V131.428H143.378V125.714Z" fill="#00695C"/>
<path d="M149.093 125.714H154.808V131.428H149.093V125.714Z" fill="#263238"/>
<path d="M40.5209 131.428H46.2358V137.143H40.5215L40.5209 131.428Z" fill="#263238"/>
<path d="M46.2358 131.428H51.9506V137.143L46.2358 137.143V131.428Z" fill="#263238"/>
<path d="M51.9492 131.428H57.6635V137.143H51.9492V131.428Z" fill="#263238"/>
<path d="M57.6635 131.428H63.3783V137.143H57.6635V131.428Z" fill="#263238"/>
<path d="M63.3783 131.428H69.0932V137.143H63.3783V131.428Z" fill="#4E342E"/>
<path d="M69.0932 131.428H74.808V137.143H69.0932V131.428Z" fill="#00695C"/>
<path d="M74.8066 131.428H80.5209V137.143H74.8066V131.428Z" fill="#00695C"/>
<path d="M80.5209 131.428H86.2358V137.143L80.5209 137.143V131.428Z" fill="#00695C"/>
<path d="M86.2358 131.428H91.9506V137.143L86.2358 137.143V131.428Z" fill="#00695C"/>
<path d="M91.9492 131.428H97.6635V137.143H91.9492V131.428Z" fill="#00695C"/>
<path d="M97.6635 131.428H103.378V137.143H97.6635V131.428Z" fill="#00695C"/>
<path d="M103.378 131.428H109.093V137.143H103.378V131.428Z" fill="#4E342E"/>
<path d="M109.093 131.428H114.808V137.143H109.093V131.428Z" fill="#263238"/>
<path d="M114.807 131.428H120.521V137.143H114.807V131.428Z" fill="#263238"/>
<path d="M120.521 131.428H126.236V137.143L120.521 137.143V131.428Z" fill="#4E342E"/>
<path d="M126.236 131.428H131.951V137.143L126.236 137.143V131.428Z" fill="#4E342E"/>
<path d="M131.949 131.428H137.663V137.143H131.949V131.428Z" fill="#263238"/>
<path d="M137.663 131.428H143.378V137.143H137.663V131.428Z" fill="#263238"/>
<path d="M143.378 131.428H149.093V137.143H143.378V131.428Z" fill="#263238"/>
<path d="M63.3783 137.143H69.0932V142.857H63.3789L63.3783 137.143Z" fill="#263238"/>
<path d="M69.0932 137.143H74.808V142.857H69.0932V137.143Z" fill="#4E342E"/>
<path d="M74.8066 137.143H80.5209V142.857H74.8066V137.143Z" fill="#4E342E"/>
<path d="M80.5209 137.143L86.2358 137.143V142.857H80.5209V137.143Z" fill="#263238"/>
<path d="M86.2358 137.143L91.9506 137.143V142.857H86.2358V137.143Z" fill="#263238"/>
<path d="M91.9492 137.143H97.6635V142.857H91.9492V137.143Z" fill="#263238"/>
<path d="M97.6635 137.143H103.378V142.857H97.6635V137.143Z" fill="#4E342E"/>
<path d="M103.378 137.143H109.093V142.857H103.378V137.143Z" fill="#4E342E"/>
<path d="M109.093 137.143H114.808V142.857H109.093V137.143Z" fill="#263238"/>
<path d="M114.807 137.143H120.521V142.857H114.807V137.143Z" fill="#8D6E63"/>
<path d="M120.521 137.143L126.236 137.143V142.857H120.521V137.143Z" fill="#6D4C41"/>
<path d="M126.236 137.143L131.951 137.143V142.857H126.236V137.143Z" fill="#263238"/>
<path d="M69.0932 142.857H74.808V148.572H69.0938L69.0932 142.857Z" fill="#263238"/>
<path d="M74.8066 142.857H80.5209V148.572H74.8066V142.857Z" fill="#6D4C41"/>
<path d="M80.5209 142.857H86.2358V148.572H80.5209V142.857Z" fill="#8D6E63"/>
<path d="M86.2358 142.857H91.9506V148.572H86.2358V142.857Z" fill="#8D6E63"/>
<path d="M91.9492 142.857H97.6635V148.572H91.9492V142.857Z" fill="#263238"/>
<path d="M97.6635 142.857H103.378V148.572H97.6635V142.857Z" fill="#6D4C41"/>
<path d="M103.378 142.857H109.093V148.572H103.378V142.857Z" fill="#6D4C41"/>
<path d="M109.093 142.857H114.808V148.572H109.093V142.857Z" fill="#6D4C41"/>
<path d="M114.807 142.857H120.521V148.572H114.807V142.857Z" fill="#6D4C41"/>
<path d="M120.521 142.857H126.236V148.572H120.521V142.857Z" fill="#263238"/>
<path d="M74.8066 148.572H80.5209V154.286H74.8066V148.572Z" fill="#263238"/>
<path d="M80.5209 148.572H86.2358V154.286L80.5209 154.286V148.572Z" fill="#263238"/>
<path d="M86.2358 148.572H91.9506V154.286L86.2358 154.286V148.572Z" fill="#6D4C41"/>
<path d="M91.9492 148.572H97.6635V154.286H91.9492V148.572Z" fill="#6D4C41"/>
<path d="M97.6635 148.572H103.378V154.286H97.6635V148.572Z" fill="#6D4C41"/>
<path d="M103.378 148.572H109.093V154.286H103.378V148.572Z" fill="#6D4C41"/>
<path d="M109.093 148.572H114.808V154.286H109.093V148.572Z" fill="#795548"/>
<path d="M114.807 148.572H120.521V154.286H114.807V148.572Z" fill="#263238"/>
<path d="M86.2358 154.286L91.9506 154.286V160H86.2363L86.2358 154.286Z" fill="#263238"/>
<path d="M91.9492 154.286H97.6635V160H91.9492V154.286Z" fill="#795548"/>
<path d="M97.6635 154.286H103.378V160H97.6635V154.286Z" fill="#6D4C41"/>
<path d="M103.378 154.286H109.093V160H103.378V154.286Z" fill="#6D4C41"/>
<path d="M109.093 154.286H114.808V160H109.093V154.286Z" fill="#263238"/>
<path d="M91.9492 160H97.6635V165.714H91.9492V160Z" fill="#263238"/>
<path d="M97.6635 160H103.378V165.714H97.6635V160Z" fill="#8D6E63"/>
<path d="M103.378 160H109.093V165.714H103.378V160Z" fill="#6D4C41"/>
<path d="M109.093 160H114.808V165.714H109.093V160Z" fill="#263238"/>
<path d="M91.9492 165.714H97.6635V171.428H91.9492V165.714Z" fill="#263238"/>
<path d="M97.6635 165.714H103.378V171.428H97.6635V165.714Z" fill="#8D6E63"/>
<path d="M103.378 165.714H109.093V171.428H103.378V165.714Z" fill="#6D4C41"/>
<path d="M109.093 165.714H114.808V171.428H109.093V165.714Z" fill="#263238"/>
<path d="M74.8066 171.429H80.5209V177.143H74.8066V171.429Z" fill="#263238"/>
<path d="M91.9492 171.428H97.6635V177.143H91.9492V171.428Z" fill="#263238"/>
<path d="M97.6635 171.428H103.378V177.143H97.6635V171.428Z" fill="#795548"/>
<path d="M103.378 171.428H109.093V177.143H103.378V171.428Z" fill="#6D4C41"/>
<path d="M109.093 171.428H114.808V177.143H109.093V171.428Z" fill="#263238"/>
<path d="M69.0938 177.143H74.808V182.857H69.0938V177.143Z" fill="#263238"/>
<path d="M74.8066 177.143H80.5209V182.857H74.8066V177.143Z" fill="#13B26B"/>
<path d="M80.5209 177.143L86.2358 177.143V182.857H80.5209V177.143Z" fill="#263238"/>
<path d="M91.9492 177.143H97.6635V182.857H91.9492V177.143Z" fill="#263238"/>
<path d="M97.6635 177.143H103.378V182.857H97.6635V177.143Z" fill="#6D4C41"/>
<path d="M103.378 177.143H109.093V182.857H103.378V177.143Z" fill="#6D4C41"/>
<path d="M109.093 177.143H114.808V182.857H109.093V177.143Z" fill="#263238"/>
<path d="M120.521 177.143H126.236V182.857H120.521V177.143Z" fill="#263238"/>
<path d="M63.3789 182.857L69.0938 182.857L69.0932 188.572H63.3789V182.857Z" fill="#263238"/>
<path d="M74.8066 182.857H80.5209V188.572H74.8066V182.857Z" fill="#263238"/>
<path d="M80.5209 182.857H86.2358V188.572H80.5209V182.857Z" fill="#00874B"/>
<path d="M86.2358 182.857L91.9506 182.857V188.572H86.2358V182.857Z" fill="#263238"/>
<path d="M91.9492 182.857H97.6635V188.572H91.9492V182.857Z" fill="#263238"/>
<path d="M97.6635 182.857H103.378V188.572H97.6635V182.857Z" fill="#6D4C41"/>
<path d="M103.378 182.857H109.093V188.572H103.378V182.857Z" fill="#6D4C41"/>
<path d="M109.093 182.857H114.808V188.572H109.093V182.857Z" fill="#263238"/>
<path d="M114.807 182.857L120.521 182.857L120.521 188.572H114.807V182.857Z" fill="#263238"/>
<path d="M120.521 182.857H126.236V188.572H120.521L120.521 182.857Z" fill="#13B26B"/>
<path d="M126.236 182.857L131.951 182.857V188.572H126.236V182.857Z" fill="#263238"/>
<path d="M131.949 182.857H137.663V188.572H131.949V182.857Z" fill="#263238"/>
<path d="M57.6641 188.571L63.3789 188.572L63.3783 194.286H57.6641V188.571Z" fill="#263238"/>
<path d="M63.3789 188.572H69.0932V194.286H63.3783L63.3789 188.572Z" fill="#00874B"/>
<path d="M69.0932 188.572L74.808 188.571V194.286H69.0932V188.572Z" fill="#263238"/>
<path d="M74.8066 188.572H80.5209V194.286H74.8066V188.572Z" fill="#00874B"/>
<path d="M80.5209 188.572H86.2358V194.286L80.5209 194.286V188.572Z" fill="#00874B"/>
<path d="M86.2358 188.572H91.9506V194.286L86.2358 194.286V188.572Z" fill="#00695C"/>
<path d="M91.9492 188.572H97.6635V194.286H91.9492V188.572Z" fill="#00695C"/>
<path d="M97.6635 188.572H103.378V194.286H97.6635V188.572Z" fill="#00695C"/>
<path d="M103.378 188.572H109.093V194.286H103.378V188.572Z" fill="#00695C"/>
<path d="M109.093 188.572H114.808V194.286H109.093V188.572Z" fill="#00695C"/>
<path d="M114.807 188.572H120.521V194.286H114.807V188.572Z" fill="#00695C"/>
<path d="M120.521 188.572H126.236V194.286L120.521 194.286V188.572Z" fill="#00874B"/>
<path d="M126.236 188.572H131.951V194.286L126.236 194.286V188.572Z" fill="#00874B"/>
<path d="M131.949 188.572H137.663V194.286H131.949V188.572Z" fill="#00874B"/>
<path d="M137.663 188.572L143.378 188.571V194.286H137.663V188.572Z" fill="#263238"/>
<path d="M63.3783 194.286H69.0932V200H63.3789L63.3783 194.286Z" fill="#263238"/>
<path d="M69.0932 194.286H74.808V200H69.0932V194.286Z" fill="#263238"/>
<path d="M74.8066 194.286H80.5209V200H74.8066V194.286Z" fill="#263238"/>
<path d="M80.5209 194.286L86.2358 194.286V200H80.5209V194.286Z" fill="#263238"/>
<path d="M86.2358 194.286L91.9506 194.286V200H86.2358V194.286Z" fill="#263238"/>
<path d="M91.9492 194.286H97.6635V200H91.9492V194.286Z" fill="#263238"/>
<path d="M97.6635 194.286H103.378V200H97.6635V194.286Z" fill="#263238"/>
<path d="M103.378 194.286H109.093V200H103.378V194.286Z" fill="#263238"/>
<path d="M109.093 194.286H114.808V200H109.093V194.286Z" fill="#263238"/>
<path d="M114.807 194.286H120.521V200H114.807V194.286Z" fill="#263238"/>
<path d="M120.521 194.286L126.236 194.286V200H120.521V194.286Z" fill="#263238"/>
<path d="M126.236 194.286L131.951 194.286V200H126.236V194.286Z" fill="#263238"/>
<path d="M131.949 194.286H137.663V200H131.949V194.286Z" fill="#263238"/>
</svg>
