<svg width="312" height="200" viewBox="0 0 312 200" fill="none" xmlns="http://www.w3.org/2000/svg">
<path d="M133.629 0H144.743V11.1076H133.629V0Z" fill="#263238"/>
<path d="M144.744 0H155.849V11.1076H144.744V0Z" fill="#263238"/>
<path d="M55.8418 11.1074H66.9555V22.2211H55.8418V11.1074Z" fill="#263238"/>
<path d="M66.957 11.1074H78.0707V22.2211H66.957V11.1074Z" fill="#263238"/>
<path d="M89.1837 11.1072H100.288V22.2209H89.1837V11.1072Z" fill="#263238"/>
<path d="M111.402 11.1074H122.516V22.2211H111.402V11.1074Z" fill="#263238"/>
<path d="M122.516 11.1074L133.629 11.1076L133.629 22.2209L122.516 22.2211V11.1074Z" fill="#263238"/>
<path d="M133.629 11.1076H144.743V22.2211L133.629 22.2209L133.629 11.1076Z" fill="#13B26B"/>
<path d="M144.744 11.1076H155.849V22.2211H144.744V11.1076Z" fill="#13B26B"/>
<path d="M155.847 11.1072H166.961V22.2209H155.847V11.1072Z" fill="#263238"/>
<path d="M178.076 11.1074H189.19V22.2211H178.076V11.1074Z" fill="#263238"/>
<path d="M189.188 11.1074H200.292V22.2211H189.188V11.1074Z" fill="#263238"/>
<path d="M200.292 11.1074H211.407V22.2211H200.292V11.1074Z" fill="#263238"/>
<path d="M44.7383 22.2207H55.8428V33.3313H44.7383V22.2207Z" fill="#263238"/>
<path d="M55.8418 22.2211H66.9555V33.3313H55.8418V22.2211Z" fill="#13B26B"/>
<path d="M66.957 22.2211H78.0707V33.3313H66.957V22.2211Z" fill="#13B26B"/>
<path d="M78.0707 22.2211L89.1837 22.2209L89.184 33.3313H78.0707V22.2211Z" fill="#263238"/>
<path d="M89.1837 22.2209H100.288L100.288 33.3313H89.184L89.1837 22.2209Z" fill="#13B26B"/>
<path d="M100.288 22.2209L111.402 22.2211L111.403 33.3313H100.288L100.288 22.2209Z" fill="#263238"/>
<path d="M111.402 22.2211H122.516V33.3313H111.403L111.402 22.2211Z" fill="#13B26B"/>
<path d="M122.516 22.2211L133.629 22.2209L133.629 33.3313H122.516V22.2211Z" fill="#13B26B"/>
<path d="M133.629 22.2209L144.743 22.2211V33.3313H133.629L133.629 22.2209Z" fill="#13B26B"/>
<path d="M144.744 22.2211H155.849V33.3313H144.744V22.2211Z" fill="#13B26B"/>
<path d="M155.847 22.2209H166.961L166.961 33.3313H155.848L155.847 22.2209Z" fill="#13B26B"/>
<path d="M166.961 22.2209L178.075 22.2207V33.3313H166.961L166.961 22.2209Z" fill="#263238"/>
<path d="M178.076 22.2211H189.19V33.3313H178.076V22.2211Z" fill="#13B26B"/>
<path d="M189.188 22.2211H200.292V33.3313H189.188V22.2211Z" fill="#13B26B"/>
<path d="M200.293 22.2207L211.407 22.2211V33.3313H200.292L200.293 22.2207Z" fill="#13B26B"/>
<path d="M211.408 22.2207H222.522V33.3313H211.408V22.2207Z" fill="#263238"/>
<path d="M222.52 22.2207H233.633V33.3313H222.52V22.2207Z" fill="#263238"/>
<path d="M33.6248 33.3319L44.7383 33.3313L44.7385 44.4455H33.6248V33.3319Z" fill="#263238"/>
<path d="M44.7383 33.3313H55.8428V44.4457L44.7385 44.4455L44.7383 33.3313Z" fill="#13B26B"/>
<path d="M55.8418 33.3313H66.9555V44.4457H55.8418V33.3313Z" fill="#13B26B"/>
<path d="M66.957 33.3313H78.0707V44.4457H66.957V33.3313Z" fill="#13B26B"/>
<path d="M78.0707 33.3313H89.184V44.4457H78.0707V33.3313Z" fill="#13B26B"/>
<path d="M89.184 33.3313H100.288L100.288 44.4455L89.184 44.4457V33.3313Z" fill="#13B26B"/>
<path d="M100.289 33.332L111.403 33.3313V44.4457L100.288 44.4455L100.289 33.332Z" fill="#13B26B"/>
<path d="M111.403 33.3313H122.516V44.4457H111.403V33.3313Z" fill="#13B26B"/>
<path d="M122.516 33.3313H133.629L133.629 44.4455L122.516 44.4457V33.3313Z" fill="#13B26B"/>
<path d="M133.629 33.3313H144.743V44.4457L133.629 44.4455L133.629 33.3313Z" fill="#13B26B"/>
<path d="M144.744 33.3313H155.849V44.4457H144.744V33.3313Z" fill="#13B26B"/>
<path d="M155.848 33.3313H166.961L166.961 44.4455H155.847L155.848 33.3313Z" fill="#13B26B"/>
<path d="M166.961 33.3313H178.075V44.4457L166.961 44.4455L166.961 33.3313Z" fill="#13B26B"/>
<path d="M178.076 33.3313H189.19V44.4457H178.076V33.3313Z" fill="#13B26B"/>
<path d="M189.188 33.3313H200.292V44.4457H189.188V33.3313Z" fill="#13B26B"/>
<path d="M200.293 33.332L211.407 33.3313V44.4457H200.292L200.293 33.332Z" fill="#13B26B"/>
<path d="M211.408 33.3313H222.522V44.4457H211.408V33.3313Z" fill="#13B26B"/>
<path d="M222.52 33.3313H233.633V44.4457H222.52V33.3313Z" fill="#13B26B"/>
<path d="M233.635 33.332H244.739V44.4457H233.635V33.332Z" fill="#263238"/>
<path d="M22.5117 44.4453L33.6248 44.4455L33.6254 55.5529H22.5117V44.4453Z" fill="#263238"/>
<path d="M33.6248 44.4455H44.7385L44.7387 55.5529H33.6254L33.6248 44.4455Z" fill="#13B26B"/>
<path d="M44.7385 44.4455L55.8428 44.4457V55.5529H44.7387L44.7385 44.4455Z" fill="#13B26B"/>
<path d="M55.8418 44.4457H66.9555V55.5529H55.8418V44.4457Z" fill="#00874B"/>
<path d="M66.957 44.4457H78.0707V55.5529H66.957V44.4457Z" fill="#00874B"/>
<path d="M78.0707 44.4457H89.184V55.5529H78.0707V44.4457Z" fill="#00874B"/>
<path d="M89.184 44.4457L100.288 44.4455L100.288 55.5529H89.184V44.4457Z" fill="#13B26B"/>
<path d="M100.288 44.4455L111.403 44.4457V55.5529H100.288L100.288 44.4455Z" fill="#13B26B"/>
<path d="M111.403 44.4457H122.516V55.5529H111.403V44.4457Z" fill="#13B26B"/>
<path d="M122.516 44.4457L133.629 44.4455L133.629 55.5529H122.516V44.4457Z" fill="#13B26B"/>
<path d="M133.629 44.4455L144.743 44.4457V55.5529H133.629L133.629 44.4455Z" fill="#13B26B"/>
<path d="M144.744 44.4457H155.849V55.5529H144.744V44.4457Z" fill="#13B26B"/>
<path d="M155.847 44.4455H166.961L166.961 55.5529H155.848L155.847 44.4455Z" fill="#00874B"/>
<path d="M166.961 44.4455L178.075 44.4457V55.5529H166.961L166.961 44.4455Z" fill="#13B26B"/>
<path d="M178.076 44.4457H189.19V55.5529H178.076V44.4457Z" fill="#13B26B"/>
<path d="M189.188 44.4457H200.292V55.5529H189.188V44.4457Z" fill="#13B26B"/>
<path d="M200.293 44.4453L211.407 44.4457V55.5529H200.292L200.293 44.4453Z" fill="#00874B"/>
<path d="M211.408 44.4457H222.522V55.5529H211.408V44.4457Z" fill="#00874B"/>
<path d="M222.52 44.4457H233.633V55.5529H222.52V44.4457Z" fill="#13B26B"/>
<path d="M233.635 44.4457H244.739V55.5529H233.635V44.4457Z" fill="#13B26B"/>
<path d="M244.74 44.4453H255.854V55.5529H244.739L244.74 44.4453Z" fill="#263238"/>
<path d="M11.3984 55.5527L22.5117 55.5529L22.5121 66.6634H11.3984V55.5527Z" fill="#263238"/>
<path d="M22.5117 55.5529H33.6254V66.6634H22.5121L22.5117 55.5529Z" fill="#13B26B"/>
<path d="M33.6254 55.5529H44.7387V66.6634H33.6254V55.5529Z" fill="#13B26B"/>
<path d="M44.7387 55.5529H55.8428V66.6634H44.7387V55.5529Z" fill="#00874B"/>
<path d="M55.8418 55.5529H66.9555V66.6634H55.8418V55.5529Z" fill="#00874B"/>
<path d="M66.957 55.5529H78.0707V66.6634H66.957V55.5529Z" fill="#00874B"/>
<path d="M78.0707 55.5529H89.184V66.6634H78.0707V55.5529Z" fill="#00874B"/>
<path d="M89.184 55.5529H100.288V66.6634H89.184V55.5529Z" fill="#00874B"/>
<path d="M100.288 55.5529H111.403V66.6634H100.288V55.5529Z" fill="#13B26B"/>
<path d="M111.403 55.5529H122.516V66.6634H111.403V55.5529Z" fill="#00874B"/>
<path d="M122.516 55.5529H133.629V66.6634H122.516V55.5529Z" fill="#00874B"/>
<path d="M133.629 55.5529H144.743V66.6634H133.629V55.5529Z" fill="#00874B"/>
<path d="M144.744 55.5529H155.849V66.6634H144.744V55.5529Z" fill="#00874B"/>
<path d="M155.848 55.5529H166.961V66.6634H155.848V55.5529Z" fill="#00874B"/>
<path d="M166.961 55.5529H178.075V66.6634H166.961V55.5529Z" fill="#00874B"/>
<path d="M178.076 55.5529H189.19V66.6634H178.076V55.5529Z" fill="#00874B"/>
<path d="M189.188 55.5529H200.292V66.6634H189.188V55.5529Z" fill="#00874B"/>
<path d="M200.292 55.5529H211.407V66.6634H200.292V55.5529Z" fill="#00874B"/>
<path d="M211.408 55.5529H222.522V66.6634H211.408V55.5529Z" fill="#00874B"/>
<path d="M222.52 55.5529H233.633V66.6634H222.52V55.5529Z" fill="#00874B"/>
<path d="M233.635 55.5529H244.739V66.6634H233.635V55.5529Z" fill="#13B26B"/>
<path d="M244.739 55.5529H255.854V66.6634H244.739V55.5529Z" fill="#263238"/>
<path d="M255.852 55.5527H266.965V66.6634H255.852V55.5527Z" fill="#263238"/>
<path d="M266.967 55.5527H278.08V66.6634H266.967V55.5527Z" fill="#263238"/>
<path d="M11.3984 66.6634H22.5121V77.7777H11.3984V66.6634Z" fill="#263238"/>
<path d="M22.5121 66.6634H33.6254V77.7777H22.5121V66.6634Z" fill="#13B26B"/>
<path d="M33.6254 66.6634H44.7387V77.7777H33.6254V66.6634Z" fill="#00874B"/>
<path d="M44.7387 66.6634H55.8428V77.7777H44.7387V66.6634Z" fill="#00874B"/>
<path d="M55.8418 66.6634H66.9555V77.7777H55.8418V66.6634Z" fill="#00874B"/>
<path d="M66.957 66.6634H78.0707V77.7777H66.957V66.6634Z" fill="#00874B"/>
<path d="M78.0707 66.6634H89.184V77.7777H78.0707V66.6634Z" fill="#00874B"/>
<path d="M89.184 66.6634H100.288V77.7777H89.184V66.6634Z" fill="#00874B"/>
<path d="M100.289 66.6641L111.403 66.6634V77.7777H100.288L100.289 66.6641Z" fill="#00695C"/>
<path d="M111.403 66.6634H122.516V77.7777H111.403V66.6634Z" fill="#00874B"/>
<path d="M122.516 66.6634H133.629V77.7777H122.516V66.6634Z" fill="#00874B"/>
<path d="M133.629 66.6634H144.743V77.7777H133.629V66.6634Z" fill="#00874B"/>
<path d="M144.744 66.6634H155.849V77.7777H144.744V66.6634Z" fill="#00874B"/>
<path d="M155.848 66.6634H166.961V77.7777H155.848V66.6634Z" fill="#00874B"/>
<path d="M166.961 66.6634H178.075V77.7777H166.961V66.6634Z" fill="#00874B"/>
<path d="M178.076 66.6634H189.19V77.7777H178.076V66.6634Z" fill="#00695C"/>
<path d="M189.188 66.6634H200.292V77.7777H189.188V66.6634Z" fill="#00874B"/>
<path d="M200.293 66.6641L211.407 66.6634V77.7777H200.292L200.293 66.6641Z" fill="#00874B"/>
<path d="M211.408 66.6634H222.522V77.7777H211.408V66.6634Z" fill="#00874B"/>
<path d="M222.52 66.6634H233.633V77.7777H222.52V66.6634Z" fill="#13B26B"/>
<path d="M233.635 66.6634H244.739V77.7777H233.635V66.6634Z" fill="#13B26B"/>
<path d="M244.74 66.6641L255.854 66.6634V77.7777H244.739L244.74 66.6641Z" fill="#13B26B"/>
<path d="M255.852 66.6634H266.965V77.7777H255.852V66.6634Z" fill="#13B26B"/>
<path d="M266.967 66.6634H278.08V77.7777H266.967V66.6634Z" fill="#13B26B"/>
<path d="M278.08 66.6634L289.185 66.6641V77.7777H278.08V66.6634Z" fill="#263238"/>
<path d="M11.3984 77.7777H22.5121V88.891H11.3984V77.7777Z" fill="#263238"/>
<path d="M22.5121 77.7777H33.6254V88.891H22.5121V77.7777Z" fill="#00874B"/>
<path d="M33.6254 77.7777H44.7387V88.891H33.6254V77.7777Z" fill="#00874B"/>
<path d="M44.7387 77.7777H55.8428V88.891H44.7387V77.7777Z" fill="#00874B"/>
<path d="M55.8418 77.7777H66.9555V88.891H55.8418V77.7777Z" fill="#00874B"/>
<path d="M66.957 77.7777H78.0707V88.891H66.957V77.7777Z" fill="#00874B"/>
<path d="M78.0707 77.7777H89.184V88.891H78.0707V77.7777Z" fill="#00874B"/>
<path d="M89.184 77.7777H100.288V88.891H89.184V77.7777Z" fill="#00695C"/>
<path d="M100.289 77.7773L111.403 77.7777V88.891H100.288L100.289 77.7773Z" fill="#00695C"/>
<path d="M111.403 77.7777H122.516V88.891H111.403V77.7777Z" fill="#00695C"/>
<path d="M122.516 77.7777H133.629V88.891H122.516V77.7777Z" fill="#00874B"/>
<path d="M133.629 77.7777H144.743V88.891H133.629V77.7777Z" fill="#00874B"/>
<path d="M144.744 77.7777H155.849V88.891H144.744V77.7777Z" fill="#00874B"/>
<path d="M155.848 77.7777H166.961V88.891H155.848V77.7777Z" fill="#00874B"/>
<path d="M166.961 77.7777H178.075V88.891H166.961V77.7777Z" fill="#00695C"/>
<path d="M178.076 77.7777H189.19V88.891H178.076V77.7777Z" fill="#00695C"/>
<path d="M189.188 77.7777H200.292V88.891H189.188V77.7777Z" fill="#00874B"/>
<path d="M200.293 77.7773L211.407 77.7777V88.891H200.292L200.293 77.7773Z" fill="#00874B"/>
<path d="M211.408 77.7777H222.522V88.891H211.408V77.7777Z" fill="#13B26B"/>
<path d="M222.52 77.7777H233.633V88.891H222.52V77.7777Z" fill="#13B26B"/>
<path d="M233.635 77.7777H244.739V88.891H233.635V77.7777Z" fill="#00874B"/>
<path d="M244.74 77.7773L255.854 77.7777V88.891H244.739L244.74 77.7773Z" fill="#00874B"/>
<path d="M255.852 77.7777H266.965V88.891H255.852V77.7777Z" fill="#00874B"/>
<path d="M266.967 77.7777H278.08V88.891H266.967V77.7777Z" fill="#13B26B"/>
<path d="M278.08 77.7777H289.185V88.891H278.08V77.7777Z" fill="#263238"/>
<path d="M11.3984 88.891H22.5121V100.004H11.3984V88.891Z" fill="#263238"/>
<path d="M22.5121 88.891H33.6254V100.004H22.5121V88.891Z" fill="#13B26B"/>
<path d="M33.6254 88.891H44.7387L44.7385 100.004L33.6254 100.004V88.891Z" fill="#00874B"/>
<path d="M44.7387 88.891H55.8428V100.004L44.7385 100.004L44.7387 88.891Z" fill="#00874B"/>
<path d="M55.8418 88.891H66.9555V100.004H55.8418V88.891Z" fill="#00874B"/>
<path d="M66.957 88.891H78.0707V100.004H66.957V88.891Z" fill="#00874B"/>
<path d="M78.0707 88.891H89.184V100.004H78.0707V88.891Z" fill="#00874B"/>
<path d="M89.184 88.891H100.288L100.288 100.004L89.184 100.004V88.891Z" fill="#00874B"/>
<path d="M100.289 88.8906L111.403 88.891V100.004L100.288 100.004L100.289 88.8906Z" fill="#00695C"/>
<path d="M111.403 88.891H122.516V100.004H111.403V88.891Z" fill="#00695C"/>
<path d="M122.516 88.891H133.629L133.629 100.004L122.516 100.004V88.891Z" fill="#00695C"/>
<path d="M133.629 88.891H144.743V100.004L133.629 100.004L133.629 88.891Z" fill="#00695C"/>
<path d="M144.744 88.891H155.849V100.004H144.744V88.891Z" fill="#00695C"/>
<path d="M155.848 88.891H166.961L166.961 100.004H155.847L155.848 88.891Z" fill="#00695C"/>
<path d="M166.961 88.891H178.075V100.004L166.961 100.004L166.961 88.891Z" fill="#00695C"/>
<path d="M178.076 88.891H189.19V100.004H178.076V88.891Z" fill="#00874B"/>
<path d="M189.188 88.891H200.292V100.004H189.188V88.891Z" fill="#00695C"/>
<path d="M200.293 88.8906L211.407 88.891V100.004H200.292L200.293 88.8906Z" fill="#00695C"/>
<path d="M211.408 88.891H222.522V100.004H211.408V88.891Z" fill="#00874B"/>
<path d="M222.52 88.891H233.633V100.004H222.52V88.891Z" fill="#00874B"/>
<path d="M233.635 88.891H244.739V100.004H233.635V88.891Z" fill="#00874B"/>
<path d="M244.74 88.8906L255.854 88.891V100.004H244.739L244.74 88.8906Z" fill="#00874B"/>
<path d="M255.852 88.891H266.965V100.004H255.852V88.891Z" fill="#00874B"/>
<path d="M266.967 88.891H278.08V100.004H266.967V88.891Z" fill="#00874B"/>
<path d="M278.08 88.891H289.185L289.185 100.004L278.08 100.004V88.891Z" fill="#13B26B"/>
<path d="M289.184 88.8906H300.297V100.004H289.184V88.8906Z" fill="#263238"/>
<path d="M11.3984 100.004H22.5121V111.108H11.3984V100.004Z" fill="#263238"/>
<path d="M22.5121 100.004H33.6254V111.108H22.5121V100.004Z" fill="#00874B"/>
<path d="M33.6254 100.004L44.7385 100.004L44.7387 111.108H33.6254V100.004Z" fill="#00874B"/>
<path d="M44.7385 100.004L55.8428 100.004V111.108H44.7387L44.7385 100.004Z" fill="#00695C"/>
<path d="M55.8418 100.004H66.9555V111.108H55.8418V100.004Z" fill="#00874B"/>
<path d="M66.957 100.004H78.0707V111.108H66.957V100.004Z" fill="#00874B"/>
<path d="M78.0707 100.004H89.184V111.108H78.0707V100.004Z" fill="#00874B"/>
<path d="M89.184 100.004L100.288 100.004L100.288 111.108H89.184V100.004Z" fill="#00874B"/>
<path d="M100.288 100.004L111.403 100.004V111.108H100.288L100.288 100.004Z" fill="#00695C"/>
<path d="M111.403 100.004H122.516V111.108H111.403V100.004Z" fill="#00695C"/>
<path d="M122.516 100.004L133.629 100.004L133.629 111.108H122.516V100.004Z" fill="#00695C"/>
<path d="M133.629 100.004L144.743 100.004V111.108H133.629L133.629 100.004Z" fill="#00695C"/>
<path d="M144.744 100.004H155.849V111.108H144.744V100.004Z" fill="#00695C"/>
<path d="M155.847 100.004H166.961L166.961 111.108H155.848L155.847 100.004Z" fill="#263238"/>
<path d="M166.961 100.004L178.075 100.004V111.108H166.961L166.961 100.004Z" fill="#4E342E"/>
<path d="M178.076 100.004H189.19V111.108H178.076V100.004Z" fill="#263238"/>
<path d="M189.188 100.004H200.292V111.108H189.188V100.004Z" fill="#00695C"/>
<path d="M200.293 100.004L211.407 100.004V111.108H200.292L200.293 100.004Z" fill="#00695C"/>
<path d="M211.408 100.004H222.522V111.108H211.408V100.004Z" fill="#00695C"/>
<path d="M222.52 100.004H233.633V111.108H222.52V100.004Z" fill="#00874B"/>
<path d="M233.635 100.004H244.739V111.108H233.635V100.004Z" fill="#00874B"/>
<path d="M244.74 100.004L255.854 100.004V111.108H244.739L244.74 100.004Z" fill="#00874B"/>
<path d="M255.852 100.004H266.965V111.108H255.852V100.004Z" fill="#00874B"/>
<path d="M266.967 100.004H278.08V111.108H266.967V100.004Z" fill="#00874B"/>
<path d="M278.08 100.004L289.185 100.004L289.185 111.108H278.08V100.004Z" fill="#00695C"/>
<path d="M289.184 100.004H300.297V111.108H289.184V100.004Z" fill="#263238"/>
<path d="M0.292969 111.109H11.3975V122.223H0.292969V111.109Z" fill="#263238"/>
<path d="M11.3984 111.108H22.5121V122.223H11.3975L11.3984 111.108Z" fill="#00874B"/>
<path d="M22.5117 111.109L33.6254 111.108V122.223H22.5121L22.5117 111.109Z" fill="#13B26B"/>
<path d="M33.625 111.109L44.7387 111.108V122.223H33.6254L33.625 111.109Z" fill="#13B26B"/>
<path d="M44.7383 111.109L55.8428 111.108V122.223H44.7387L44.7383 111.109Z" fill="#00695C"/>
<path d="M55.8418 111.108H66.9555V122.223H55.8418V111.108Z" fill="#00695C"/>
<path d="M66.957 111.108H78.0707V122.223H66.957V111.108Z" fill="#00695C"/>
<path d="M78.0703 111.109L89.184 111.108V122.223H78.0707L78.0703 111.109Z" fill="#00695C"/>
<path d="M89.1836 111.109L100.288 111.108V122.223H89.184L89.1836 111.109Z" fill="#00695C"/>
<path d="M100.289 111.109L111.403 111.108V122.223H100.288L100.289 111.109Z" fill="#00695C"/>
<path d="M111.402 111.109L122.516 111.108V122.223H111.403L111.402 111.109Z" fill="#4E342E"/>
<path d="M122.516 111.109L133.629 111.108V122.223H122.516L122.516 111.109Z" fill="#263238"/>
<path d="M133.629 111.109L144.743 111.108V122.223H133.629L133.629 111.109Z" fill="#263238"/>
<path d="M144.744 111.108H155.849V122.223H144.744V111.108Z" fill="#263238"/>
<path d="M155.848 111.108H166.961V122.223H155.848V111.108Z" fill="#263238"/>
<path d="M166.961 111.109L178.075 111.108V122.223H166.961L166.961 111.109Z" fill="#4E342E"/>
<path d="M178.076 111.108H189.19V122.223H178.076V111.108Z" fill="#263238"/>
<path d="M189.188 111.108H200.292V122.223H189.188V111.108Z" fill="#263238"/>
<path d="M200.293 111.109L211.407 111.108V122.223H200.292L200.293 111.109Z" fill="#00695C"/>
<path d="M211.408 111.108H222.522V122.223H211.408V111.108Z" fill="#00695C"/>
<path d="M222.52 111.108H233.633V122.223H222.52V111.108Z" fill="#00695C"/>
<path d="M233.635 111.108H244.739V122.223H233.635V111.108Z" fill="#00874B"/>
<path d="M244.74 111.109L255.854 111.108V122.223H244.739L244.74 111.109Z" fill="#00695C"/>
<path d="M255.852 111.108H266.965V122.223H255.852V111.108Z" fill="#00695C"/>
<path d="M266.967 111.108H278.08V122.223H266.967V111.108Z" fill="#00695C"/>
<path d="M278.08 111.109L289.185 111.108V122.223H278.08L278.08 111.109Z" fill="#00695C"/>
<path d="M289.184 111.108H300.297V122.223H289.184V111.108Z" fill="#263238"/>
<path d="M0.292969 122.223H11.3975V133.336H0.292969V122.223Z" fill="#263238"/>
<path d="M11.3984 122.223L22.5121 122.223V133.336L11.3975 133.336L11.3984 122.223Z" fill="#13B26B"/>
<path d="M22.5121 122.223H33.6254V133.336H22.5121V122.223Z" fill="#13B26B"/>
<path d="M33.6254 122.223H44.7387L44.7385 133.336L33.6254 133.336V122.223Z" fill="#13B26B"/>
<path d="M44.7387 122.223H55.8428V133.336L44.7385 133.336L44.7387 122.223Z" fill="#13B26B"/>
<path d="M55.8418 122.223H66.9555V133.336H55.8418V122.223Z" fill="#13B26B"/>
<path d="M66.957 122.223H78.0707V133.336H66.957V122.223Z" fill="#00695C"/>
<path d="M78.0707 122.223H89.184V133.336H78.0707V122.223Z" fill="#00695C"/>
<path d="M89.184 122.223H100.288L100.288 133.336L89.184 133.336V122.223Z" fill="#263238"/>
<path d="M100.289 122.223L111.403 122.223V133.336L100.288 133.336L100.289 122.223Z" fill="#263238"/>
<path d="M111.403 122.223H122.516V133.336H111.403V122.223Z" fill="#4E342E"/>
<path d="M122.516 122.223H133.629L133.629 133.336L122.516 133.336V122.223Z" fill="#6D4C41"/>
<path d="M133.629 122.223H144.743V133.336L133.629 133.336L133.629 122.223Z" fill="#263238"/>
<path d="M155.848 122.223H166.961L166.961 133.336H155.847L155.848 122.223Z" fill="#263238"/>
<path d="M166.961 122.223H178.075V133.336L166.961 133.336L166.961 122.223Z" fill="#6D4C41"/>
<path d="M178.076 122.223H189.19V133.336H178.076V122.223Z" fill="#263238"/>
<path d="M189.188 122.223H200.292V133.336H189.188V122.223Z" fill="#263238"/>
<path d="M200.293 122.223L211.407 122.223V133.336H200.292L200.293 122.223Z" fill="#4E342E"/>
<path d="M211.408 122.223H222.522V133.336H211.408V122.223Z" fill="#00695C"/>
<path d="M222.52 122.223H233.633V133.336H222.52V122.223Z" fill="#00695C"/>
<path d="M233.635 122.223H244.739V133.336H233.635V122.223Z" fill="#00695C"/>
<path d="M244.74 122.223L255.854 122.223V133.336H244.739L244.74 122.223Z" fill="#00695C"/>
<path d="M255.852 122.223H266.965V133.336H255.852V122.223Z" fill="#00695C"/>
<path d="M266.967 122.223H278.08V133.336H266.967V122.223Z" fill="#00695C"/>
<path d="M278.08 122.223H289.185L289.185 133.336L278.08 133.336V122.223Z" fill="#00695C"/>
<path d="M289.184 122.223H300.297V133.336H289.184V122.223Z" fill="#263238"/>
<path d="M0.292969 133.336H11.3975V144.45H0.292969V133.336Z" fill="#263238"/>
<path d="M11.3975 133.336L22.5121 133.336V144.45H11.3975V133.336Z" fill="#13B26B"/>
<path d="M22.5121 133.336H33.6254V144.45H22.5121V133.336Z" fill="#00874B"/>
<path d="M33.6254 133.336L44.7385 133.336L44.7387 144.45H33.6254V133.336Z" fill="#00874B"/>
<path d="M44.7385 133.336L55.8428 133.336V144.45H44.7387L44.7385 133.336Z" fill="#00874B"/>
<path d="M55.8418 133.336H66.9555V144.45H55.8418V133.336Z" fill="#00874B"/>
<path d="M66.957 133.336H78.0707V144.45H66.957V133.336Z" fill="#13B26B"/>
<path d="M78.0707 133.336H89.184V144.45H78.0707V133.336Z" fill="#00695C"/>
<path d="M89.184 133.336L100.288 133.336L100.288 144.45H89.184V133.336Z" fill="#263238"/>
<path d="M111.403 133.336H122.516V144.45H111.402L111.403 133.336Z" fill="#263238"/>
<path d="M122.516 133.336L133.629 133.336L133.629 144.45H122.516V133.336Z" fill="#6D4C41"/>
<path d="M133.629 133.336L144.743 133.336V144.45H133.629L133.629 133.336Z" fill="#6D4C41"/>
<path d="M144.744 133.336H155.849V144.45H144.744V133.336Z" fill="#263238"/>
<path d="M155.847 133.336H166.961L166.961 144.45H155.848L155.847 133.336Z" fill="#263238"/>
<path d="M166.961 133.336L178.075 133.336V144.45H166.961L166.961 133.336Z" fill="#6D4C41"/>
<path d="M178.076 133.336H189.19V144.45H178.076V133.336Z" fill="#263238"/>
<path d="M189.188 133.336H200.292V144.45H189.188V133.336Z" fill="#6D4C41"/>
<path d="M200.293 133.336L211.407 133.336V144.45H200.292L200.293 133.336Z" fill="#4E342E"/>
<path d="M211.408 133.336H222.522V144.45H211.408V133.336Z" fill="#263238"/>
<path d="M222.52 133.336H233.633V144.45H222.52V133.336Z" fill="#263238"/>
<path d="M233.635 133.336H244.739V144.45H233.635V133.336Z" fill="#263238"/>
<path d="M244.74 133.336L255.854 133.336V144.45H244.739L244.74 133.336Z" fill="#13B26B"/>
<path d="M255.852 133.336H266.965V144.45H255.852V133.336Z" fill="#00874B"/>
<path d="M266.967 133.336H278.08V144.45H266.967V133.336Z" fill="#00874B"/>
<path d="M278.08 133.336L289.185 133.336L289.185 144.45H278.08V133.336Z" fill="#13B26B"/>
<path d="M289.184 133.336H300.297V144.45H289.184V133.336Z" fill="#13B26B"/>
<path d="M300.299 133.336H311.413V144.45H300.299V133.336Z" fill="#263238"/>
<path d="M11.3984 144.451H22.5121V155.556H11.3984V144.451Z" fill="#263238"/>
<path d="M22.5121 144.451H33.6254V155.556H22.5121V144.451Z" fill="#00874B"/>
<path d="M33.6254 144.451H44.7387V155.556H33.6254V144.451Z" fill="#00874B"/>
<path d="M44.7387 144.451H55.8428V155.556H44.7387V144.451Z" fill="#00874B"/>
<path d="M55.8418 144.451H66.9555V155.556H55.8418V144.451Z" fill="#00874B"/>
<path d="M66.957 144.451H78.0707V155.556H66.957V144.451Z" fill="#00695C"/>
<path d="M78.0707 144.451H89.184V155.556H78.0707V144.451Z" fill="#00695C"/>
<path d="M89.184 144.451H100.288V155.556H89.184V144.451Z" fill="#4E342E"/>
<path d="M100.288 144.451H111.403V155.556H100.288V144.451Z" fill="#263238"/>
<path d="M111.403 144.451H122.516V155.556H111.403V144.451Z" fill="#263238"/>
<path d="M122.516 144.451H133.629V155.556H122.516V144.451Z" fill="#263238"/>
<path d="M133.629 144.451H144.743V155.556H133.629V144.451Z" fill="#6D4C41"/>
<path d="M144.744 144.451H155.849V155.556H144.744V144.451Z" fill="#263238"/>
<path d="M155.848 144.451H166.961V155.556H155.848V144.451Z" fill="#263238"/>
<path d="M166.961 144.451H178.075V155.556H166.961V144.451Z" fill="#6D4C41"/>
<path d="M178.076 144.451H189.19V155.556H178.076V144.451Z" fill="#6D4C41"/>
<path d="M189.188 144.451H200.292V155.556H189.188V144.451Z" fill="#6D4C41"/>
<path d="M200.292 144.451H211.407V155.556H200.292V144.451Z" fill="#263238"/>
<path d="M222.52 144.451H233.633V155.556H222.52V144.451Z" fill="#263238"/>
<path d="M233.635 144.451H244.739V155.556H233.635V144.451Z" fill="#00695C"/>
<path d="M244.739 144.451H255.854V155.556H244.739V144.451Z" fill="#00874B"/>
<path d="M255.852 144.451H266.965V155.556H255.852V144.451Z" fill="#00874B"/>
<path d="M266.967 144.451H278.08V155.556H266.967V144.451Z" fill="#00874B"/>
<path d="M278.08 144.451H289.185V155.556H278.08V144.451Z" fill="#00874B"/>
<path d="M289.184 144.451H300.297V155.556H289.184V144.451Z" fill="#00695C"/>
<path d="M300.299 144.451H311.413V155.556H300.299V144.451Z" fill="#263238"/>
<path d="M0.292969 155.555H11.3975V166.668H0.292969V155.555Z" fill="#263238"/>
<path d="M11.3975 155.555H22.5121V166.668H11.3975V155.555Z" fill="#00695C"/>
<path d="M22.5121 155.555H33.6254V166.668H22.5121V155.555Z" fill="#00874B"/>
<path d="M33.6254 155.555H44.7387V166.668H33.6254V155.555Z" fill="#00874B"/>
<path d="M44.7387 155.555H55.8428V166.668H44.7387V155.555Z" fill="#00874B"/>
<path d="M55.8418 155.555H66.9555V166.668H55.8418V155.555Z" fill="#00874B"/>
<path d="M66.957 155.555H78.0707V166.668H66.957V155.555Z" fill="#00695C"/>
<path d="M78.0707 155.555H89.184V166.668H78.0707V155.555Z" fill="#00695C"/>
<path d="M89.184 155.555H100.288V166.668H89.184V155.555Z" fill="#4E342E"/>
<path d="M100.288 155.555H111.403V166.668H100.288V155.555Z" fill="#6D4C41"/>
<path d="M111.403 155.555H122.516V166.668H111.403V155.555Z" fill="#6D4C41"/>
<path d="M122.516 155.555H133.629V166.668H122.516V155.555Z" fill="#263238"/>
<path d="M133.629 155.555H144.743V166.668H133.629V155.555Z" fill="#6D4C41"/>
<path d="M144.744 155.555H155.849V166.668H144.744V155.555Z" fill="#263238"/>
<path d="M155.848 155.555H166.961V166.668H155.848V155.555Z" fill="#263238"/>
<path d="M166.961 155.555H178.075V166.668H166.961V155.555Z" fill="#6D4C41"/>
<path d="M178.076 155.555H189.19V166.668H178.076V155.555Z" fill="#6D4C41"/>
<path d="M189.188 155.555H200.292V166.668H189.188V155.555Z" fill="#263238"/>
<path d="M211.408 155.555H222.522V166.668H211.408V155.555Z" fill="#263238"/>
<path d="M222.52 155.555H233.633V166.668H222.52V155.555Z" fill="#4E342E"/>
<path d="M233.635 155.555H244.739V166.668H233.635V155.555Z" fill="#00695C"/>
<path d="M244.739 155.555H255.854V166.668H244.739V155.555Z" fill="#00695C"/>
<path d="M255.852 155.555H266.965V166.668H255.852V155.555Z" fill="#00874B"/>
<path d="M266.967 155.555H278.08V166.668H266.967V155.555Z" fill="#00874B"/>
<path d="M278.08 155.555H289.185V166.668H278.08V155.555Z" fill="#00695C"/>
<path d="M289.184 155.555H300.297V166.668H289.184V155.555Z" fill="#00695C"/>
<path d="M300.299 155.555H311.413V166.668H300.299V155.555Z" fill="#263238"/>
<path d="M0.292969 166.668H11.3975V177.782H0.292969V166.668Z" fill="#263238"/>
<path d="M11.3984 166.668L22.5121 166.668V177.782H11.3975L11.3984 166.668Z" fill="#00695C"/>
<path d="M22.5121 166.668H33.6254V177.782H22.5121V166.668Z" fill="#00695C"/>
<path d="M33.6254 166.668H44.7387V177.782H33.6254V166.668Z" fill="#00874B"/>
<path d="M44.7387 166.668H55.8428V177.782H44.7387V166.668Z" fill="#00695C"/>
<path d="M55.8418 166.668H66.9555V177.782H55.8418V166.668Z" fill="#00695C"/>
<path d="M66.957 166.668H78.0707V177.782H66.957V166.668Z" fill="#00695C"/>
<path d="M78.0707 166.668H89.184V177.782H78.0707V166.668Z" fill="#263238"/>
<path d="M89.184 166.668H100.288V177.782H89.184V166.668Z" fill="#263238"/>
<path d="M100.289 166.668L111.403 166.668V177.782H100.288L100.289 166.668Z" fill="#263238"/>
<path d="M111.403 166.668H122.516V177.782H111.403V166.668Z" fill="#6D4C41"/>
<path d="M122.516 166.668H133.629V177.782H122.516V166.668Z" fill="#6D4C41"/>
<path d="M133.629 166.668H144.743V177.782H133.629V166.668Z" fill="#6D4C41"/>
<path d="M144.744 166.668H155.849V177.782H144.744V166.668Z" fill="#263238"/>
<path d="M155.848 166.668H166.961V177.782H155.848V166.668Z" fill="#263238"/>
<path d="M166.961 166.668H178.075V177.782H166.961V166.668Z" fill="#6D4C41"/>
<path d="M178.076 166.668H189.19V177.782H178.076V166.668Z" fill="#6D4C41"/>
<path d="M189.188 166.668H200.292V177.782H189.188V166.668Z" fill="#263238"/>
<path d="M200.293 166.668H211.407V177.782H200.292L200.293 166.668Z" fill="#263238"/>
<path d="M211.408 166.668H222.522V177.782H211.408V166.668Z" fill="#6D4C41"/>
<path d="M222.52 166.668H233.633V177.782H222.52V166.668Z" fill="#4E342E"/>
<path d="M233.635 166.668H244.739V177.782H233.635V166.668Z" fill="#00695C"/>
<path d="M244.74 166.668L255.854 166.668V177.782H244.739L244.74 166.668Z" fill="#00695C"/>
<path d="M255.852 166.668H266.965V177.782H255.852V166.668Z" fill="#00695C"/>
<path d="M266.967 166.668H278.08V177.782H266.967V166.668Z" fill="#00695C"/>
<path d="M278.08 166.668H289.185V177.782H278.08V166.668Z" fill="#00695C"/>
<path d="M289.184 166.668H300.297V177.782H289.184V166.668Z" fill="#263238"/>
<path d="M11.3984 177.783H22.5121V188.897H11.3984V177.783Z" fill="#263238"/>
<path d="M22.5121 177.783H33.6254V188.897H22.5121V177.783Z" fill="#00695C"/>
<path d="M33.6254 177.783H44.7387V188.897H33.6254V177.783Z" fill="#00695C"/>
<path d="M44.7387 177.783H55.8428V188.897H44.7387V177.783Z" fill="#00695C"/>
<path d="M55.8418 177.783H66.9555V188.897H55.8418V177.783Z" fill="#00695C"/>
<path d="M66.957 177.783H78.0707V188.897H66.957V177.783Z" fill="#263238"/>
<path d="M111.402 177.783H122.516V188.897H111.402V177.783Z" fill="#263238"/>
<path d="M122.516 177.783H133.629V188.897H122.516V177.783Z" fill="#263238"/>
<path d="M133.629 177.783H144.743V188.897H133.629V177.783Z" fill="#6D4C41"/>
<path d="M144.744 177.783H155.849V188.897H144.744V177.783Z" fill="#263238"/>
<path d="M155.848 177.783H166.961V188.897H155.848V177.783Z" fill="#263238"/>
<path d="M166.961 177.783H178.075V188.897H166.961V177.783Z" fill="#6D4C41"/>
<path d="M178.076 177.783H189.19V188.897H178.076V177.783Z" fill="#263238"/>
<path d="M189.188 177.783H200.292V188.897H189.188V177.783Z" fill="#263238"/>
<path d="M200.292 177.783H211.407V188.897H200.292V177.783Z" fill="#6D4C41"/>
<path d="M211.408 177.783H222.522V188.897H211.408V177.783Z" fill="#6D4C41"/>
<path d="M222.52 177.783H233.633V188.897H222.52V177.783Z" fill="#263238"/>
<path d="M233.635 177.783H244.739V188.897H233.635V177.783Z" fill="#263238"/>
<path d="M244.739 177.783H255.854V188.897H244.739V177.783Z" fill="#00695C"/>
<path d="M255.852 177.783H266.965V188.897H255.852V177.783Z" fill="#00695C"/>
<path d="M266.967 177.783H278.08V188.897H266.967V177.783Z" fill="#00695C"/>
<path d="M278.08 177.783H289.185V188.897H278.08V177.783Z" fill="#263238"/>
<path d="M22.5117 188.895H33.6254V199.999H22.5117V188.895Z" fill="#263238"/>
<path d="M33.6254 188.895H44.7387V199.999H33.6254V188.895Z" fill="#263238"/>
<path d="M44.7387 188.895H55.8428V199.999H44.7387V188.895Z" fill="#263238"/>
<path d="M55.8418 188.895H66.9555V199.999H55.8418V188.895Z" fill="#263238"/>
<path d="M122.516 188.895H133.629V199.999H122.516V188.895Z" fill="#263238"/>
<path d="M133.629 188.895H144.743V199.999H133.629V188.895Z" fill="#263238"/>
<path d="M144.744 188.895H155.849V199.999H144.744V188.895Z" fill="#263238"/>
<path d="M155.848 188.895H166.961V199.999H155.848V188.895Z" fill="#263238"/>
<path d="M166.961 188.895H178.075V199.999H166.961V188.895Z" fill="#263238"/>
<path d="M178.076 188.895H189.19V199.999H178.076V188.895Z" fill="#263238"/>
<path d="M200.293 188.895H211.407V199.999H200.293V188.895Z" fill="#263238"/>
<path d="M211.408 188.895H222.522V199.999H211.408V188.895Z" fill="#263238"/>
<path d="M244.74 188.895H255.854V199.999H244.74V188.895Z" fill="#263238"/>
<path d="M255.852 188.895H266.965V199.999H255.852V188.895Z" fill="#263238"/>
<path d="M266.967 188.895H278.08V199.999H266.967V188.895Z" fill="#263238"/>
</svg>
