<svg width="65" height="200" viewBox="0 0 65 200" fill="none" xmlns="http://www.w3.org/2000/svg">
<path d="M28.0039 0H32.5494V4.54545H28.0039V0Z" fill="#263238"/>
<path d="M32.5494 0H37.0941V4.54545H32.5494V0Z" fill="#263238"/>
<path d="M23.457 4.5459H28.0025V9.09135H23.457V4.5459Z" fill="#263238"/>
<path d="M28.0039 4.54545H32.5494V9.09135H28.0039V4.54545Z" fill="#13B26B"/>
<path d="M32.5494 4.54545H37.0941L37.0943 9.09135H32.5494V4.54545Z" fill="#13B26B"/>
<path d="M37.0941 4.54545L41.6392 4.5459V9.09135H37.0943L37.0941 4.54545Z" fill="#263238"/>
<path d="M23.457 9.09135H28.0025V13.6363H23.457V9.09135Z" fill="#263238"/>
<path d="M28.0039 9.09135H32.5494V13.6363H28.0039V9.09135Z" fill="#13B26B"/>
<path d="M32.5494 9.09135H37.0943L37.0941 13.6364L32.5494 13.6363V9.09135Z" fill="#13B26B"/>
<path d="M37.0943 9.09135H41.6392V13.6363L37.0941 13.6364L37.0943 9.09135Z" fill="#13B26B"/>
<path d="M41.6392 9.09135L46.1841 9.09082V13.6363H41.6392V9.09135Z" fill="#263238"/>
<path d="M23.457 13.6363H28.0025V18.1822H23.457V13.6363Z" fill="#263238"/>
<path d="M28.0039 13.6363H32.5494V18.1822H28.0039V13.6363Z" fill="#13B26B"/>
<path d="M32.5494 13.6363L37.0941 13.6364L37.0943 18.1822H32.5494V13.6363Z" fill="#00874B"/>
<path d="M37.0941 13.6364L41.6392 13.6363V18.1822H37.0943L37.0941 13.6364Z" fill="#13B26B"/>
<path d="M41.6392 13.6363H46.1841V18.1822H41.6392V13.6363Z" fill="#263238"/>
<path d="M23.457 18.1822H28.0025V22.7271H23.457V18.1822Z" fill="#263238"/>
<path d="M28.0039 18.1822H32.5494V22.7271H28.0039V18.1822Z" fill="#13B26B"/>
<path d="M32.5494 18.1822H37.0943L37.0941 22.7273L32.5494 22.7271V18.1822Z" fill="#00874B"/>
<path d="M37.0943 18.1822H41.6392V22.7271L37.0941 22.7273L37.0943 18.1822Z" fill="#13B26B"/>
<path d="M41.6392 18.1822H46.1841V22.7271H41.6392V18.1822Z" fill="#263238"/>
<path d="M18.9121 22.7275L23.457 22.7271L23.4576 27.273H18.9121V22.7275Z" fill="#263238"/>
<path d="M23.457 22.7271H28.0025V27.273H23.4576L23.457 22.7271Z" fill="#13B26B"/>
<path d="M28.0039 22.7271H32.5494V27.273H28.0039V22.7271Z" fill="#00874B"/>
<path d="M32.5494 22.7271L37.0941 22.7273L37.0943 27.273H32.5494V22.7271Z" fill="#00874B"/>
<path d="M37.0941 22.7273L41.6392 22.7271V27.273H37.0943L37.0941 22.7273Z" fill="#00874B"/>
<path d="M41.6392 22.7271H46.1841V27.273H41.6392V22.7271Z" fill="#263238"/>
<path d="M18.9121 27.273H23.4576V31.8179H18.9121V27.273Z" fill="#263238"/>
<path d="M23.4576 27.273H28.0025V31.8179H23.4576V27.273Z" fill="#13B26B"/>
<path d="M28.0039 27.273H32.5494V31.8179H28.0039V27.273Z" fill="#13B26B"/>
<path d="M32.5494 27.273H37.0943V31.8179H32.5494V27.273Z" fill="#00874B"/>
<path d="M37.0943 27.273H41.6392V31.8179H37.0943V27.273Z" fill="#00874B"/>
<path d="M41.6392 27.273H46.1841V31.8179H41.6392V27.273Z" fill="#13B26B"/>
<path d="M46.1855 27.2725H50.731V31.8179H46.1855V27.2725Z" fill="#263238"/>
<path d="M18.9121 31.8179H23.4576L23.4577 36.3636H18.9123L18.9121 31.8179Z" fill="#263238"/>
<path d="M23.4576 31.8179H28.0025V36.3638L23.4577 36.3636L23.4576 31.8179Z" fill="#13B26B"/>
<path d="M28.0039 31.8179H32.5494V36.3638H28.0039V31.8179Z" fill="#00874B"/>
<path d="M32.5494 31.8179H37.0943L37.0941 36.3636L32.5494 36.3638V31.8179Z" fill="#00874B"/>
<path d="M37.0943 31.8179H41.6392V36.3638L37.0941 36.3636L37.0943 31.8179Z" fill="#00874B"/>
<path d="M41.6392 31.8179H46.1841V36.3638H41.6392V31.8179Z" fill="#13B26B"/>
<path d="M46.1855 31.8179H50.731V36.3638H46.1855V31.8179Z" fill="#263238"/>
<path d="M14.3672 36.3633L18.9123 36.3636L18.9126 40.9087H14.3672V36.3633Z" fill="#263238"/>
<path d="M18.9123 36.3636H23.4577L23.4576 40.9087H18.9126L18.9123 36.3636Z" fill="#13B26B"/>
<path d="M23.4577 36.3636L28.0025 36.3638V40.9087H23.4576L23.4577 36.3636Z" fill="#00874B"/>
<path d="M28.0039 36.3638H32.5494V40.9087H28.0039V36.3638Z" fill="#00874B"/>
<path d="M32.5494 36.3638L37.0941 36.3636L37.0943 40.9087H32.5494V36.3638Z" fill="#00874B"/>
<path d="M37.0941 36.3636L41.6392 36.3638V40.9087H37.0943L37.0941 36.3636Z" fill="#00874B"/>
<path d="M41.6392 36.3638H46.1841V40.9087H41.6392V36.3638Z" fill="#13B26B"/>
<path d="M46.1855 36.3638H50.731V40.9087H46.1855V36.3638Z" fill="#13B26B"/>
<path d="M50.731 36.3638L55.2759 36.3633V40.9087H50.731V36.3638Z" fill="#263238"/>
<path d="M14.3672 40.9087H18.9126V45.4546H14.3672V40.9087Z" fill="#263238"/>
<path d="M18.9126 40.9087H23.4576L23.4577 45.4545L18.9126 45.4546V40.9087Z" fill="#13B26B"/>
<path d="M23.4576 40.9087H28.0025V45.4546L23.4577 45.4545L23.4576 40.9087Z" fill="#00874B"/>
<path d="M28.0039 40.9087H32.5494V45.4546H28.0039V40.9087Z" fill="#00874B"/>
<path d="M32.5494 40.9087H37.0943L37.0941 45.4545L32.5494 45.4546V40.9087Z" fill="#00874B"/>
<path d="M37.0943 40.9087H41.6392V45.4546L37.0941 45.4545L37.0943 40.9087Z" fill="#00874B"/>
<path d="M41.6392 40.9087H46.1841V45.4546H41.6392V40.9087Z" fill="#00874B"/>
<path d="M46.1855 40.9087H50.731V45.4546H46.1855V40.9087Z" fill="#00874B"/>
<path d="M50.731 40.9087H55.2759V45.4545L50.731 45.4546V40.9087Z" fill="#263238"/>
<path d="M14.3672 45.4546H18.9126V49.9996H14.3672V45.4546Z" fill="#263238"/>
<path d="M18.9126 45.4546L23.4577 45.4545L23.4576 49.9996H18.9126V45.4546Z" fill="#13B26B"/>
<path d="M23.4577 45.4545L28.0025 45.4546V49.9996H23.4576L23.4577 45.4545Z" fill="#13B26B"/>
<path d="M28.0039 45.4546H32.5494V49.9996H28.0039V45.4546Z" fill="#00874B"/>
<path d="M32.5494 45.4546L37.0941 45.4545L37.0943 49.9996H32.5494V45.4546Z" fill="#00874B"/>
<path d="M37.0941 45.4545L41.6392 45.4546V49.9996H37.0943L37.0941 45.4545Z" fill="#13B26B"/>
<path d="M41.6392 45.4546H46.1841V49.9996H41.6392V45.4546Z" fill="#13B26B"/>
<path d="M46.1855 45.4546H50.731V49.9996H46.1855V45.4546Z" fill="#00874B"/>
<path d="M50.731 45.4546L55.2759 45.4545V49.9996H50.731V45.4546Z" fill="#263238"/>
<path d="M9.82227 50L14.3672 49.9996L14.3677 54.5455H9.82227V50Z" fill="#263238"/>
<path d="M14.3672 49.9996H18.9126V54.5455H14.3677L14.3672 49.9996Z" fill="#13B26B"/>
<path d="M18.9126 49.9996H23.4576L23.4577 54.5455H18.9126V49.9996Z" fill="#00874B"/>
<path d="M23.4576 49.9996H28.0025V54.5455H23.4577L23.4576 49.9996Z" fill="#00874B"/>
<path d="M28.0039 49.9996H32.5494V54.5455H28.0039V49.9996Z" fill="#00874B"/>
<path d="M32.5494 49.9996H37.0943L37.0941 54.5455H32.5494V49.9996Z" fill="#13B26B"/>
<path d="M37.0943 49.9996H41.6392V54.5455H37.0941L37.0943 49.9996Z" fill="#00874B"/>
<path d="M41.6392 49.9996H46.1841V54.5455H41.6392V49.9996Z" fill="#00874B"/>
<path d="M46.1855 49.9996H50.731V54.5455H46.1855V49.9996Z" fill="#13B26B"/>
<path d="M50.731 49.9996H55.2759V54.5455H50.731V49.9996Z" fill="#00695C"/>
<path d="M55.2759 49.9996L59.8208 50V54.5455H55.2759V49.9996Z" fill="#263238"/>
<path d="M9.82227 54.5455H14.3677V59.0914H9.82227V54.5455Z" fill="#263238"/>
<path d="M14.3677 54.5455H18.9126V59.0914H14.3677V54.5455Z" fill="#13B26B"/>
<path d="M18.9126 54.5455H23.4577L23.4576 59.0914H18.9126V54.5455Z" fill="#00874B"/>
<path d="M23.4577 54.5455H28.0025V59.0914H23.4576L23.4577 54.5455Z" fill="#00874B"/>
<path d="M28.0039 54.5455H32.5494V59.0914H28.0039V54.5455Z" fill="#00874B"/>
<path d="M32.5494 54.5455H37.0941L37.0943 59.0914H32.5494V54.5455Z" fill="#00874B"/>
<path d="M37.0941 54.5455H41.6392V59.0914H37.0943L37.0941 54.5455Z" fill="#00874B"/>
<path d="M41.6392 54.5455H46.1841V59.0914H41.6392V54.5455Z" fill="#00874B"/>
<path d="M46.1855 54.5455H50.731V59.0914H46.1855V54.5455Z" fill="#00874B"/>
<path d="M50.731 54.5455H55.2759V59.0914H50.731V54.5455Z" fill="#00695C"/>
<path d="M55.2759 54.5455H59.8208V59.0914H55.2759V54.5455Z" fill="#263238"/>
<path d="M9.82227 59.0914H14.3677V63.6363H9.82227V59.0914Z" fill="#263238"/>
<path d="M14.3677 59.0914H18.9126V63.6363H14.3677V59.0914Z" fill="#00874B"/>
<path d="M18.9126 59.0914H23.4576L23.4577 63.6364L18.9126 63.6363V59.0914Z" fill="#00874B"/>
<path d="M23.4576 59.0914H28.0025V63.6363L23.4577 63.6364L23.4576 59.0914Z" fill="#00874B"/>
<path d="M28.0039 59.0914H32.5494V63.6363H28.0039V59.0914Z" fill="#00874B"/>
<path d="M32.5494 59.0914H37.0943L37.0941 63.6364L32.5494 63.6363V59.0914Z" fill="#00695C"/>
<path d="M37.0943 59.0914H41.6392V63.6363L37.0941 63.6364L37.0943 59.0914Z" fill="#00874B"/>
<path d="M41.6392 59.0914H46.1841V63.6363H41.6392V59.0914Z" fill="#00874B"/>
<path d="M46.1855 59.0914H50.731V63.6363H46.1855V59.0914Z" fill="#00874B"/>
<path d="M50.731 59.0914H55.2759V63.6364L50.731 63.6363V59.0914Z" fill="#00695C"/>
<path d="M55.2759 59.0914H59.8208V63.6363L55.2759 63.6364V59.0914Z" fill="#263238"/>
<path d="M9.82227 63.6363H14.3677V68.1822H9.82227V63.6363Z" fill="#263238"/>
<path d="M14.3677 63.6363H18.9126V68.1822H14.3677V63.6363Z" fill="#00874B"/>
<path d="M18.9126 63.6363L23.4577 63.6364L23.4576 68.1822H18.9126V63.6363Z" fill="#00874B"/>
<path d="M23.4577 63.6364L28.0025 63.6363V68.1822H23.4576L23.4577 63.6364Z" fill="#00874B"/>
<path d="M28.0039 63.6363H32.5494V68.1822H28.0039V63.6363Z" fill="#00874B"/>
<path d="M32.5494 63.6363L37.0941 63.6364L37.0943 68.1822H32.5494V63.6363Z" fill="#00874B"/>
<path d="M37.0941 63.6364L41.6392 63.6363V68.1822H37.0943L37.0941 63.6364Z" fill="#00695C"/>
<path d="M41.6392 63.6363H46.1841V68.1822H41.6392V63.6363Z" fill="#00874B"/>
<path d="M46.1855 63.6363H50.731V68.1822H46.1855V63.6363Z" fill="#00874B"/>
<path d="M50.731 63.6363L55.2759 63.6364V68.1822H50.731V63.6363Z" fill="#00695C"/>
<path d="M55.2759 63.6364L59.8208 63.6363V68.1822H55.2759V63.6364Z" fill="#263238"/>
<path d="M5.27539 68.1816H9.82084V72.7271H5.27539V68.1816Z" fill="#263238"/>
<path d="M9.82227 68.1822H14.3677V72.7271H9.82227V68.1822Z" fill="#13B26B"/>
<path d="M14.3677 68.1822H18.9126V72.7271H14.3677V68.1822Z" fill="#13B26B"/>
<path d="M18.9126 68.1822H23.4576L23.4577 72.7273L18.9126 72.7271V68.1822Z" fill="#13B26B"/>
<path d="M23.4576 68.1822H28.0025V72.7271L23.4577 72.7273L23.4576 68.1822Z" fill="#00874B"/>
<path d="M28.0039 68.1822H32.5494V72.7271H28.0039V68.1822Z" fill="#00874B"/>
<path d="M32.5494 68.1822H37.0943L37.0941 72.7273L32.5494 72.7271V68.1822Z" fill="#00874B"/>
<path d="M37.0943 68.1822H41.6392V72.7271L37.0941 72.7273L37.0943 68.1822Z" fill="#00695C"/>
<path d="M41.6392 68.1822H46.1841V72.7271H41.6392V68.1822Z" fill="#00695C"/>
<path d="M46.1855 68.1822H50.731V72.7271H46.1855V68.1822Z" fill="#00695C"/>
<path d="M50.731 68.1822H55.2759V72.7273L50.731 72.7271V68.1822Z" fill="#263238"/>
<path d="M5.27539 72.7271H9.82084V77.273H5.27539V72.7271Z" fill="#263238"/>
<path d="M9.82227 72.7271H14.3677V77.273H9.82227V72.7271Z" fill="#13B26B"/>
<path d="M14.3677 72.7271H18.9126V77.273H14.3677V72.7271Z" fill="#00874B"/>
<path d="M18.9126 72.7271L23.4577 72.7273L23.4576 77.273H18.9126V72.7271Z" fill="#00874B"/>
<path d="M23.4577 72.7273L28.0025 72.7271V77.273H23.4576L23.4577 72.7273Z" fill="#13B26B"/>
<path d="M28.0039 72.7271H32.5494V77.273H28.0039V72.7271Z" fill="#00874B"/>
<path d="M32.5494 72.7271L37.0941 72.7273L37.0943 77.273H32.5494V72.7271Z" fill="#00874B"/>
<path d="M37.0941 72.7273L41.6392 72.7271V77.273H37.0943L37.0941 72.7273Z" fill="#00874B"/>
<path d="M41.6392 72.7271H46.1841V77.273H41.6392V72.7271Z" fill="#00874B"/>
<path d="M46.1855 72.7271H50.731V77.273H46.1855V72.7271Z" fill="#13B26B"/>
<path d="M50.731 72.7271L55.2759 72.7273V77.273H50.731V72.7271Z" fill="#263238"/>
<path d="M0.730469 77.2725L5.27539 77.273L5.27592 81.8179H0.730469V77.2725Z" fill="#263238"/>
<path d="M5.27539 77.273H9.82084V81.8179H5.27592L5.27539 77.273Z" fill="#13B26B"/>
<path d="M9.82227 77.273H14.3677V81.8179H9.82227V77.273Z" fill="#00874B"/>
<path d="M14.3677 77.273H18.9126V81.8179H14.3677V77.273Z" fill="#00874B"/>
<path d="M18.9126 77.273H23.4576V81.8179H18.9126V77.273Z" fill="#00874B"/>
<path d="M23.4576 77.273H28.0025V81.8179H23.4576V77.273Z" fill="#13B26B"/>
<path d="M28.0039 77.273H32.5494V81.8179H28.0039V77.273Z" fill="#13B26B"/>
<path d="M32.5494 77.273H37.0943V81.8179H32.5494V77.273Z" fill="#00874B"/>
<path d="M37.0943 77.273H41.6392V81.8179H37.0943V77.273Z" fill="#00874B"/>
<path d="M41.6392 77.273H46.1841V81.8179H41.6392V77.273Z" fill="#00874B"/>
<path d="M46.1855 77.273H50.731V81.8179H46.1855V77.273Z" fill="#00874B"/>
<path d="M50.731 77.273H55.2759V81.8179H50.731V77.273Z" fill="#13B26B"/>
<path d="M55.2759 77.273L59.8208 77.2725V81.8179H55.2759V77.273Z" fill="#263238"/>
<path d="M0.730469 81.8179H5.27592V86.3636H0.730469V81.8179Z" fill="#263238"/>
<path d="M5.27592 81.8179H9.82084V86.3638L5.27592 86.3636V81.8179Z" fill="#13B26B"/>
<path d="M9.82227 81.8179H14.3677V86.3638H9.82227V81.8179Z" fill="#00874B"/>
<path d="M14.3677 81.8179H18.9126V86.3638H14.3677V81.8179Z" fill="#00874B"/>
<path d="M18.9126 81.8179H23.4576L23.4577 86.3636L18.9126 86.3638V81.8179Z" fill="#00874B"/>
<path d="M23.4576 81.8179H28.0025V86.3638L23.4577 86.3636L23.4576 81.8179Z" fill="#00874B"/>
<path d="M28.0039 81.8179H32.5494V86.3638H28.0039V81.8179Z" fill="#13B26B"/>
<path d="M32.5494 81.8179H37.0943L37.0941 86.3636L32.5494 86.3638V81.8179Z" fill="#00874B"/>
<path d="M37.0943 81.8179H41.6392V86.3638L37.0941 86.3636L37.0943 81.8179Z" fill="#00874B"/>
<path d="M41.6392 81.8179H46.1841V86.3638H41.6392V81.8179Z" fill="#00874B"/>
<path d="M46.1855 81.8179H50.731V86.3638H46.1855V81.8179Z" fill="#00874B"/>
<path d="M50.731 81.8179H55.2759V86.3636L50.731 86.3638V81.8179Z" fill="#00874B"/>
<path d="M55.2759 81.8179H59.8208V86.3638L55.2759 86.3636V81.8179Z" fill="#13B26B"/>
<path d="M59.8223 81.8184H64.3677V86.3638H59.8223V81.8184Z" fill="#263238"/>
<path d="M0.730469 86.3636H5.27592V90.9087H0.730469V86.3636Z" fill="#263238"/>
<path d="M5.27592 86.3636L9.82084 86.3638V90.9087H5.27592V86.3636Z" fill="#00695C"/>
<path d="M9.82227 86.3638H14.3677V90.9087H9.82227V86.3638Z" fill="#00874B"/>
<path d="M14.3677 86.3638H18.9126V90.9087H14.3677V86.3638Z" fill="#00874B"/>
<path d="M18.9126 86.3638L23.4577 86.3636L23.4576 90.9087H18.9126V86.3638Z" fill="#00874B"/>
<path d="M23.4577 86.3636L28.0025 86.3638V90.9087H23.4576L23.4577 86.3636Z" fill="#00874B"/>
<path d="M28.0039 86.3638H32.5494V90.9087H28.0039V86.3638Z" fill="#00874B"/>
<path d="M32.5494 86.3638L37.0941 86.3636L37.0943 90.9087H32.5494V86.3638Z" fill="#00874B"/>
<path d="M37.0941 86.3636L41.6392 86.3638V90.9087H37.0943L37.0941 86.3636Z" fill="#00874B"/>
<path d="M41.6392 86.3638H46.1841V90.9087H41.6392V86.3638Z" fill="#00874B"/>
<path d="M46.1855 86.3638H50.731V90.9087H46.1855V86.3638Z" fill="#00874B"/>
<path d="M50.731 86.3638L55.2759 86.3636V90.9087H50.731V86.3638Z" fill="#00874B"/>
<path d="M55.2759 86.3636L59.8208 86.3638V90.9087H55.2759V86.3636Z" fill="#13B26B"/>
<path d="M59.8223 86.3638H64.3677V90.9087H59.8223V86.3638Z" fill="#263238"/>
<path d="M0.730469 90.9087H5.27592V95.4545H0.730469V90.9087Z" fill="#263238"/>
<path d="M5.27592 90.9087H9.82084V95.4546L5.27592 95.4545V90.9087Z" fill="#00695C"/>
<path d="M9.82227 90.9087H14.3677V95.4546H9.82227V90.9087Z" fill="#00874B"/>
<path d="M14.3677 90.9087H18.9126V95.4546H14.3677V90.9087Z" fill="#00874B"/>
<path d="M18.9126 90.9087H23.4576L23.4577 95.4545L18.9126 95.4546V90.9087Z" fill="#00874B"/>
<path d="M23.4576 90.9087H28.0025V95.4546L23.4577 95.4545L23.4576 90.9087Z" fill="#00874B"/>
<path d="M28.0039 90.9087H32.5494V95.4546H28.0039V90.9087Z" fill="#00695C"/>
<path d="M32.5494 90.9087H37.0943L37.0941 95.4545L32.5494 95.4546V90.9087Z" fill="#00874B"/>
<path d="M37.0943 90.9087H41.6392V95.4546L37.0941 95.4545L37.0943 90.9087Z" fill="#00874B"/>
<path d="M41.6392 90.9087H46.1841V95.4546H41.6392V90.9087Z" fill="#00874B"/>
<path d="M46.1855 90.9087H50.731V95.4546H46.1855V90.9087Z" fill="#00874B"/>
<path d="M50.731 90.9087H55.2759V95.4545L50.731 95.4546V90.9087Z" fill="#00874B"/>
<path d="M55.2759 90.9087H59.8208V95.4546L55.2759 95.4545V90.9087Z" fill="#00874B"/>
<path d="M59.8223 90.9087H64.3677V95.4546H59.8223V90.9087Z" fill="#263238"/>
<path d="M0.730469 95.4545H5.27592V99.9996H0.730469V95.4545Z" fill="#263238"/>
<path d="M5.27592 95.4545L9.82084 95.4546V99.9996H5.27592V95.4545Z" fill="#00695C"/>
<path d="M9.82227 95.4546H14.3677V99.9996H9.82227V95.4546Z" fill="#00695C"/>
<path d="M14.3677 95.4546H18.9126V99.9996H14.3677V95.4546Z" fill="#00874B"/>
<path d="M18.9126 95.4546L23.4577 95.4545L23.4576 99.9996H18.9126V95.4546Z" fill="#00874B"/>
<path d="M23.4577 95.4545L28.0025 95.4546V99.9996H23.4576L23.4577 95.4545Z" fill="#00695C"/>
<path d="M28.0039 95.4546H32.5494V99.9996H28.0039V95.4546Z" fill="#00695C"/>
<path d="M32.5494 95.4546L37.0941 95.4545L37.0943 99.9996H32.5494V95.4546Z" fill="#00874B"/>
<path d="M37.0941 95.4545L41.6392 95.4546V99.9996H37.0943L37.0941 95.4545Z" fill="#00874B"/>
<path d="M41.6392 95.4546H46.1841V99.9996H41.6392V95.4546Z" fill="#00874B"/>
<path d="M46.1855 95.4546H50.731V99.9996H46.1855V95.4546Z" fill="#00874B"/>
<path d="M50.731 95.4546L55.2759 95.4545V99.9996H50.731V95.4546Z" fill="#00874B"/>
<path d="M55.2759 95.4545L59.8208 95.4546V99.9996H55.2759V95.4545Z" fill="#00874B"/>
<path d="M59.8223 95.4546H64.3677V99.9996H59.8223V95.4546Z" fill="#263238"/>
<path d="M5.27592 99.9996H9.82084V104.545H5.27539L5.27592 99.9996Z" fill="#263238"/>
<path d="M9.82227 99.9996H14.3677V104.545H9.82227V99.9996Z" fill="#00695C"/>
<path d="M14.3677 99.9996H18.9126V104.545H14.3677V99.9996Z" fill="#00695C"/>
<path d="M18.9126 99.9996H23.4576L23.4577 104.545H18.9126V99.9996Z" fill="#00695C"/>
<path d="M23.4576 99.9996H28.0025V104.545H23.4577L23.4576 99.9996Z" fill="#00695C"/>
<path d="M28.0039 99.9996H32.5494V104.545H28.0039V99.9996Z" fill="#00874B"/>
<path d="M32.5494 99.9996H37.0943L37.0941 104.545H32.5494V99.9996Z" fill="#00874B"/>
<path d="M37.0943 99.9996H41.6392V104.545H37.0941L37.0943 99.9996Z" fill="#00695C"/>
<path d="M41.6392 99.9996H46.1841V104.545H41.6392V99.9996Z" fill="#00874B"/>
<path d="M46.1855 99.9996H50.731V104.545H46.1855V99.9996Z" fill="#00874B"/>
<path d="M50.731 99.9996H55.2759V104.545H50.731V99.9996Z" fill="#00874B"/>
<path d="M55.2759 99.9996H59.8208V104.545H55.2759V99.9996Z" fill="#00874B"/>
<path d="M59.8223 99.9996H64.3677V104.545H59.8223V99.9996Z" fill="#263238"/>
<path d="M5.27539 104.545H9.82084V109.091H5.27539V104.545Z" fill="#263238"/>
<path d="M9.82227 104.545H14.3677V109.091H9.82227V104.545Z" fill="#13B26B"/>
<path d="M14.3677 104.545H18.9126V109.091H14.3677V104.545Z" fill="#13B26B"/>
<path d="M18.9126 104.545H23.4577L23.4576 109.091H18.9126V104.545Z" fill="#13B26B"/>
<path d="M23.4577 104.545H28.0025V109.091H23.4576L23.4577 104.545Z" fill="#00874B"/>
<path d="M28.0039 104.545H32.5494V109.091H28.0039V104.545Z" fill="#00874B"/>
<path d="M32.5494 104.545H37.0941L37.0943 109.091H32.5494V104.545Z" fill="#00874B"/>
<path d="M37.0941 104.545H41.6392V109.091H37.0943L37.0941 104.545Z" fill="#00874B"/>
<path d="M41.6392 104.545H46.1841V109.091H41.6392V104.545Z" fill="#00695C"/>
<path d="M46.1855 104.545H50.731V109.091H46.1855V104.545Z" fill="#00874B"/>
<path d="M50.731 104.545H55.2759V109.091H50.731V104.545Z" fill="#00695C"/>
<path d="M55.2759 104.545H59.8208V109.091H55.2759V104.545Z" fill="#00695C"/>
<path d="M59.8223 104.545H64.3677V109.091H59.8223V104.545Z" fill="#263238"/>
<path d="M0.730469 109.091L5.27539 109.091L5.27592 113.636H0.730469V109.091Z" fill="#263238"/>
<path d="M5.27539 109.091H9.82084V113.636L5.27592 113.636L5.27539 109.091Z" fill="#13B26B"/>
<path d="M9.82227 109.091H14.3677V113.636H9.82227V109.091Z" fill="#13B26B"/>
<path d="M14.3677 109.091H18.9126V113.636H14.3677V109.091Z" fill="#13B26B"/>
<path d="M18.9126 109.091H23.4576L23.4577 113.636L18.9126 113.636V109.091Z" fill="#00874B"/>
<path d="M23.4576 109.091H28.0025V113.636L23.4577 113.636L23.4576 109.091Z" fill="#13B26B"/>
<path d="M28.0039 109.091H32.5494V113.636H28.0039V109.091Z" fill="#13B26B"/>
<path d="M32.5494 109.091H37.0943L37.0941 113.636L32.5494 113.636V109.091Z" fill="#00874B"/>
<path d="M37.0943 109.091H41.6392V113.636L37.0941 113.636L37.0943 109.091Z" fill="#00874B"/>
<path d="M41.6392 109.091H46.1841V113.636H41.6392V109.091Z" fill="#00695C"/>
<path d="M46.1855 109.091H50.731V113.636H46.1855V109.091Z" fill="#00695C"/>
<path d="M50.731 109.091H55.2759V113.636L50.731 113.636V109.091Z" fill="#00695C"/>
<path d="M55.2759 109.091H59.8208V113.636L55.2759 113.636V109.091Z" fill="#00874B"/>
<path d="M59.8223 109.091H64.3677V113.636H59.8223V109.091Z" fill="#263238"/>
<path d="M0.730469 113.636H5.27592V118.182H0.730469V113.636Z" fill="#263238"/>
<path d="M5.27592 113.636L9.82084 113.636V118.182H5.27592V113.636Z" fill="#13B26B"/>
<path d="M9.82227 113.636H14.3677V118.182H9.82227V113.636Z" fill="#13B26B"/>
<path d="M14.3677 113.636H18.9126V118.182H14.3677V113.636Z" fill="#00874B"/>
<path d="M18.9126 113.636L23.4577 113.636L23.4576 118.182H18.9126V113.636Z" fill="#00874B"/>
<path d="M23.4577 113.636L28.0025 113.636V118.182H23.4576L23.4577 113.636Z" fill="#00874B"/>
<path d="M28.0039 113.636H32.5494V118.182H28.0039V113.636Z" fill="#13B26B"/>
<path d="M32.5494 113.636L37.0941 113.636L37.0943 118.182H32.5494V113.636Z" fill="#00874B"/>
<path d="M37.0941 113.636L41.6392 113.636V118.182H37.0943L37.0941 113.636Z" fill="#00874B"/>
<path d="M41.6392 113.636H46.1841V118.182H41.6392V113.636Z" fill="#13B26B"/>
<path d="M46.1855 113.636H50.731V118.182H46.1855V113.636Z" fill="#13B26B"/>
<path d="M50.731 113.636L55.2759 113.636V118.182H50.731V113.636Z" fill="#13B26B"/>
<path d="M55.2759 113.636L59.8208 113.636V118.182H55.2759V113.636Z" fill="#00874B"/>
<path d="M59.8223 113.636H64.3677V118.182H59.8223V113.636Z" fill="#263238"/>
<path d="M0.730469 118.182H5.27592V122.727H0.730469V118.182Z" fill="#263238"/>
<path d="M5.27592 118.182H9.82084V122.727L5.27592 122.727V118.182Z" fill="#00695C"/>
<path d="M9.82227 118.182H14.3677V122.727H9.82227V118.182Z" fill="#00874B"/>
<path d="M14.3677 118.182H18.9126V122.727H14.3677V118.182Z" fill="#00874B"/>
<path d="M18.9126 118.182H23.4576L23.4577 122.727L18.9126 122.727V118.182Z" fill="#00874B"/>
<path d="M23.4576 118.182H28.0025V122.727L23.4577 122.727L23.4576 118.182Z" fill="#00874B"/>
<path d="M28.0039 118.182H32.5494V122.727H28.0039V118.182Z" fill="#00874B"/>
<path d="M32.5494 118.182H37.0943L37.0941 122.727L32.5494 122.727V118.182Z" fill="#00695C"/>
<path d="M37.0943 118.182H41.6392V122.727L37.0941 122.727L37.0943 118.182Z" fill="#00874B"/>
<path d="M41.6392 118.182H46.1841V122.727H41.6392V118.182Z" fill="#00874B"/>
<path d="M46.1855 118.182H50.731V122.727H46.1855V118.182Z" fill="#00874B"/>
<path d="M50.731 118.182H55.2759V122.727L50.731 122.727V118.182Z" fill="#00874B"/>
<path d="M55.2759 118.182H59.8208V122.727L55.2759 122.727V118.182Z" fill="#13B26B"/>
<path d="M59.8223 118.182H64.3677V122.727H59.8223V118.182Z" fill="#263238"/>
<path d="M0.730469 122.727H5.27592V127.273H0.730469V122.727Z" fill="#263238"/>
<path d="M5.27592 122.727L9.82084 122.727V127.273H5.27592V122.727Z" fill="#00874B"/>
<path d="M9.82227 122.727H14.3677V127.273H9.82227V122.727Z" fill="#00874B"/>
<path d="M14.3677 122.727H18.9126V127.273H14.3677V122.727Z" fill="#00874B"/>
<path d="M18.9126 122.727L23.4577 122.727L23.4576 127.273H18.9126V122.727Z" fill="#00874B"/>
<path d="M23.4577 122.727L28.0025 122.727V127.273H23.4576L23.4577 122.727Z" fill="#00874B"/>
<path d="M28.0039 122.727H32.5494V127.273H28.0039V122.727Z" fill="#00874B"/>
<path d="M32.5494 122.727L37.0941 122.727L37.0943 127.273H32.5494V122.727Z" fill="#00874B"/>
<path d="M37.0941 122.727L41.6392 122.727V127.273H37.0943L37.0941 122.727Z" fill="#00874B"/>
<path d="M41.6392 122.727H46.1841V127.273H41.6392V122.727Z" fill="#00874B"/>
<path d="M46.1855 122.727H50.731V127.273H46.1855V122.727Z" fill="#00874B"/>
<path d="M50.731 122.727L55.2759 122.727V127.273H50.731V122.727Z" fill="#00874B"/>
<path d="M55.2759 122.727L59.8208 122.727V127.273H55.2759V122.727Z" fill="#13B26B"/>
<path d="M59.8223 122.727H64.3677V127.273H59.8223V122.727Z" fill="#263238"/>
<path d="M0.730469 127.273H5.27592V131.818H0.730469V127.273Z" fill="#263238"/>
<path d="M5.27592 127.273H9.82084V131.818H5.27592V127.273Z" fill="#00695C"/>
<path d="M9.82227 127.273H14.3677V131.818H9.82227V127.273Z" fill="#00874B"/>
<path d="M14.3677 127.273H18.9126V131.818H14.3677V127.273Z" fill="#00874B"/>
<path d="M18.9126 127.273H23.4576V131.818H18.9126V127.273Z" fill="#00874B"/>
<path d="M23.4576 127.273H28.0025V131.818H23.4576V127.273Z" fill="#00874B"/>
<path d="M28.0039 127.273H32.5494V131.818H28.0039V127.273Z" fill="#00874B"/>
<path d="M32.5494 127.273H37.0943V131.818H32.5494V127.273Z" fill="#00695C"/>
<path d="M37.0943 127.273H41.6392V131.818H37.0943V127.273Z" fill="#00874B"/>
<path d="M41.6392 127.273H46.1841V131.818H41.6392V127.273Z" fill="#00874B"/>
<path d="M46.1855 127.273H50.731V131.818H46.1855V127.273Z" fill="#00874B"/>
<path d="M50.731 127.273H55.2759V131.818H50.731V127.273Z" fill="#00874B"/>
<path d="M55.2759 127.273H59.8208V131.818H55.2759V127.273Z" fill="#00874B"/>
<path d="M59.8223 127.273H64.3677V131.818H59.8223V127.273Z" fill="#263238"/>
<path d="M0.730469 131.818H5.27592V136.364H0.730469V131.818Z" fill="#263238"/>
<path d="M5.27592 131.818H9.82084V136.364L5.27592 136.364V131.818Z" fill="#00695C"/>
<path d="M9.82227 131.818H14.3677V136.364H9.82227V131.818Z" fill="#00695C"/>
<path d="M14.3677 131.818H18.9126V136.364H14.3677V131.818Z" fill="#00874B"/>
<path d="M18.9126 131.818H23.4576L23.4577 136.364L18.9126 136.364V131.818Z" fill="#00874B"/>
<path d="M23.4576 131.818H28.0025V136.364L23.4577 136.364L23.4576 131.818Z" fill="#00874B"/>
<path d="M28.0039 131.818H32.5494V136.364H28.0039V131.818Z" fill="#00695C"/>
<path d="M32.5494 131.818H37.0943L37.0941 136.364L32.5494 136.364V131.818Z" fill="#00695C"/>
<path d="M37.0943 131.818H41.6392V136.364L37.0941 136.364L37.0943 131.818Z" fill="#00874B"/>
<path d="M41.6392 131.818H46.1841V136.364H41.6392V131.818Z" fill="#00874B"/>
<path d="M46.1855 131.818H50.731V136.364H46.1855V131.818Z" fill="#00874B"/>
<path d="M50.731 131.818H55.2759V136.364L50.731 136.364V131.818Z" fill="#00874B"/>
<path d="M55.2759 131.818H59.8208V136.364L55.2759 136.364V131.818Z" fill="#00874B"/>
<path d="M59.8223 131.818H64.3677V136.364H59.8223V131.818Z" fill="#263238"/>
<path d="M5.27592 136.364L9.82084 136.364V140.909H5.27539L5.27592 136.364Z" fill="#263238"/>
<path d="M9.82227 136.364H14.3677V140.909H9.82227V136.364Z" fill="#00695C"/>
<path d="M14.3677 136.364H18.9126V140.909H14.3677V136.364Z" fill="#00695C"/>
<path d="M18.9126 136.364L23.4577 136.364L23.4576 140.909H18.9126V136.364Z" fill="#00695C"/>
<path d="M23.4577 136.364L28.0025 136.364V140.909H23.4576L23.4577 136.364Z" fill="#00695C"/>
<path d="M28.0039 136.364H32.5494V140.909H28.0039V136.364Z" fill="#00695C"/>
<path d="M32.5494 136.364L37.0941 136.364L37.0943 140.909H32.5494V136.364Z" fill="#00874B"/>
<path d="M37.0941 136.364L41.6392 136.364V140.909H37.0943L37.0941 136.364Z" fill="#00695C"/>
<path d="M41.6392 136.364H46.1841V140.909H41.6392V136.364Z" fill="#00874B"/>
<path d="M46.1855 136.364H50.731V140.909H46.1855V136.364Z" fill="#00874B"/>
<path d="M50.731 136.364L55.2759 136.364V140.909H50.731V136.364Z" fill="#00874B"/>
<path d="M55.2759 136.364L59.8208 136.364V140.909H55.2759V136.364Z" fill="#00695C"/>
<path d="M59.8223 136.364H64.3677V140.909H59.8223V136.364Z" fill="#263238"/>
<path d="M9.82227 140.909H14.3677V145.455H9.82227V140.909Z" fill="#263238"/>
<path d="M14.3677 140.909H18.9126V145.455H14.3677V140.909Z" fill="#00695C"/>
<path d="M18.9126 140.909H23.4576L23.4577 145.455L18.9126 145.455V140.909Z" fill="#00695C"/>
<path d="M23.4576 140.909H28.0025V145.455L23.4577 145.455L23.4576 140.909Z" fill="#00695C"/>
<path d="M28.0039 140.909H32.5494V145.455H28.0039V140.909Z" fill="#00874B"/>
<path d="M32.5494 140.909H37.0943L37.0941 145.455L32.5494 145.455V140.909Z" fill="#00874B"/>
<path d="M37.0943 140.909H41.6392V145.455L37.0941 145.455L37.0943 140.909Z" fill="#00695C"/>
<path d="M41.6392 140.909H46.1841V145.455H41.6392V140.909Z" fill="#00695C"/>
<path d="M46.1855 140.909H50.731V145.455H46.1855V140.909Z" fill="#00874B"/>
<path d="M50.731 140.909H55.2759V145.455L50.731 145.455V140.909Z" fill="#00695C"/>
<path d="M55.2759 140.909H59.8208V145.455L55.2759 145.455V140.909Z" fill="#00695C"/>
<path d="M59.8223 140.909H64.3677V145.455H59.8223V140.909Z" fill="#263238"/>
<path d="M9.82227 145.455H14.3677V150H9.82227V145.455Z" fill="#263238"/>
<path d="M14.3677 145.455H18.9126V150H14.3677V145.455Z" fill="#00695C"/>
<path d="M18.9126 145.455L23.4577 145.455L23.4576 150H18.9126V145.455Z" fill="#00695C"/>
<path d="M23.4577 145.455L28.0025 145.455V150H23.4576L23.4577 145.455Z" fill="#00874B"/>
<path d="M28.0039 145.455H32.5494V150H28.0039V145.455Z" fill="#00874B"/>
<path d="M32.5494 145.455L37.0941 145.455L37.0943 150H32.5494V145.455Z" fill="#00874B"/>
<path d="M37.0941 145.455L41.6392 145.455V150H37.0943L37.0941 145.455Z" fill="#00695C"/>
<path d="M41.6392 145.455H46.1841V150H41.6392V145.455Z" fill="#00695C"/>
<path d="M46.1855 145.455H50.731V150H46.1855V145.455Z" fill="#00695C"/>
<path d="M50.731 145.455L55.2759 145.455V150H50.731V145.455Z" fill="#00695C"/>
<path d="M55.2759 145.455L59.8208 145.455V150H55.2759V145.455Z" fill="#263238"/>
<path d="M9.82227 150H14.3677V154.545H9.82227V150Z" fill="#263238"/>
<path d="M14.3677 150H18.9126V154.545H14.3677V150Z" fill="#00695C"/>
<path d="M18.9126 150H23.4576L23.4577 154.545H18.9126V150Z" fill="#00695C"/>
<path d="M23.4576 150H28.0025V154.545H23.4577L23.4576 150Z" fill="#00695C"/>
<path d="M28.0039 150H32.5494V154.545H28.0039V150Z" fill="#00874B"/>
<path d="M32.5494 150H37.0943L37.0941 154.545H32.5494V150Z" fill="#00695C"/>
<path d="M37.0943 150H41.6392V154.545H37.0941L37.0943 150Z" fill="#00695C"/>
<path d="M41.6392 150H46.1841V154.545H41.6392V150Z" fill="#00695C"/>
<path d="M46.1855 150H50.731V154.545H46.1855V150Z" fill="#00695C"/>
<path d="M50.731 150H55.2759V154.545H50.731V150Z" fill="#263238"/>
<path d="M14.3677 154.545H18.9126V159.091H14.3672L14.3677 154.545Z" fill="#263238"/>
<path d="M18.9126 154.545H23.4577L23.4576 159.091H18.9126V154.545Z" fill="#00695C"/>
<path d="M23.4577 154.545H28.0025V159.091H23.4576L23.4577 154.545Z" fill="#00695C"/>
<path d="M28.0039 154.545H32.5494V159.091H28.0039V154.545Z" fill="#00695C"/>
<path d="M32.5494 154.545H37.0941L37.0943 159.091H32.5494V154.545Z" fill="#00695C"/>
<path d="M37.0941 154.545H41.6392V159.091H37.0943L37.0941 154.545Z" fill="#00695C"/>
<path d="M41.6392 154.545H46.1841V159.091H41.6392V154.545Z" fill="#00695C"/>
<path d="M46.1855 154.545H50.731V159.091H46.1855V154.545Z" fill="#263238"/>
<path d="M18.9126 159.091H23.4576L23.4577 163.636H18.9123L18.9126 159.091Z" fill="#263238"/>
<path d="M23.4576 159.091H28.0025V163.636L23.4577 163.636L23.4576 159.091Z" fill="#00695C"/>
<path d="M28.0039 159.091H32.5494V163.636H28.0039V159.091Z" fill="#00695C"/>
<path d="M32.5494 159.091H37.0943L37.0941 163.636L32.5494 163.636V159.091Z" fill="#00695C"/>
<path d="M37.0943 159.091H41.6392V163.636L37.0941 163.636L37.0943 159.091Z" fill="#00695C"/>
<path d="M41.6392 159.091H46.1841V163.636H41.6392V159.091Z" fill="#263238"/>
<path d="M23.4577 163.636L28.0025 163.636V168.182H23.457L23.4577 163.636Z" fill="#263238"/>
<path d="M28.0039 163.636H32.5494V168.182H28.0039V163.636Z" fill="#4E342E"/>
<path d="M32.5494 163.636L37.0941 163.636L37.0943 168.182H32.5494V163.636Z" fill="#4E342E"/>
<path d="M37.0941 163.636L41.6392 163.636V168.182H37.0943L37.0941 163.636Z" fill="#263238"/>
<path d="M23.457 168.182H28.0025V172.727H23.457V168.182Z" fill="#263238"/>
<path d="M28.0039 168.182H32.5494V172.727H28.0039V168.182Z" fill="#8D6E63"/>
<path d="M32.5494 168.182H37.0943L37.0941 172.727L32.5494 172.727V168.182Z" fill="#6D4C41"/>
<path d="M37.0943 168.182H41.6392V172.727L37.0941 172.727L37.0943 168.182Z" fill="#263238"/>
<path d="M14.3672 172.728H18.9126V177.273H14.3672V172.728Z" fill="#263238"/>
<path d="M23.457 172.727H28.0025V177.273H23.457V172.727Z" fill="#263238"/>
<path d="M28.0039 172.727H32.5494V177.273H28.0039V172.727Z" fill="#8D6E63"/>
<path d="M32.5494 172.727L37.0941 172.727L37.0943 177.273H32.5494V172.727Z" fill="#6D4C41"/>
<path d="M37.0941 172.727L41.6392 172.727V177.273H37.0943L37.0941 172.727Z" fill="#263238"/>
<path d="M9.82227 177.272L14.3672 177.273L14.3677 181.818H9.82227V177.272Z" fill="#263238"/>
<path d="M14.3672 177.273H18.9126V181.818H14.3677L14.3672 177.273Z" fill="#13B26B"/>
<path d="M18.9126 177.273H23.457L23.4576 181.818H18.9126V177.273Z" fill="#263238"/>
<path d="M23.457 177.273H28.0025V181.818H23.4576L23.457 177.273Z" fill="#263238"/>
<path d="M28.0039 177.273H32.5494V181.818H28.0039V177.273Z" fill="#795548"/>
<path d="M32.5494 177.273H37.0943V181.818H32.5494V177.273Z" fill="#6D4C41"/>
<path d="M37.0943 177.273H41.6392V181.818H37.0943V177.273Z" fill="#263238"/>
<path d="M14.3677 181.818H18.9126V186.364H14.3672L14.3677 181.818Z" fill="#263238"/>
<path d="M18.9126 181.818H23.4576L23.4577 186.364L18.9126 186.364V181.818Z" fill="#00874B"/>
<path d="M23.4576 181.818H28.0025V186.364L23.4577 186.364L23.4576 181.818Z" fill="#263238"/>
<path d="M28.0039 181.818H32.5494V186.364H28.0039V181.818Z" fill="#6D4C41"/>
<path d="M32.5494 181.818H37.0943L37.0941 186.364L32.5494 186.364V181.818Z" fill="#8D6E63"/>
<path d="M37.0943 181.818H41.6392V186.364L37.0941 186.364L37.0943 181.818Z" fill="#263238"/>
<path d="M50.7305 181.818H55.2759V186.364H50.7305V181.818Z" fill="#263238"/>
<path d="M14.3672 186.364H18.9126V190.909H14.3672V186.364Z" fill="#263238"/>
<path d="M18.9126 186.364L23.4577 186.364L23.4576 190.909H18.9126V186.364Z" fill="#00874B"/>
<path d="M23.4577 186.364L28.0025 186.364V190.909H23.4576L23.4577 186.364Z" fill="#263238"/>
<path d="M28.0039 186.364H32.5494V190.909H28.0039V186.364Z" fill="#6D4C41"/>
<path d="M32.5494 186.364L37.0941 186.364L37.0943 190.909H32.5494V186.364Z" fill="#795548"/>
<path d="M37.0941 186.364L41.6392 186.364V190.909H37.0943L37.0941 186.364Z" fill="#263238"/>
<path d="M41.6392 186.364L46.1841 186.363V190.909H41.6392V186.364Z" fill="#263238"/>
<path d="M46.1855 186.363L50.7305 186.364L50.731 190.909H46.1855V186.363Z" fill="#263238"/>
<path d="M50.7305 186.364H55.2759V190.909H50.731L50.7305 186.364Z" fill="#13B26B"/>
<path d="M55.2759 186.364L59.8208 186.363V190.909H55.2759V186.364Z" fill="#263238"/>
<path d="M9.82227 190.909L14.3672 190.909L14.3677 195.455H9.82227V190.909Z" fill="#263238"/>
<path d="M14.3672 190.909H18.9126V195.455H14.3677L14.3672 190.909Z" fill="#00874B"/>
<path d="M18.9126 190.909H23.4576L23.4577 195.455L18.9126 195.455V190.909Z" fill="#00874B"/>
<path d="M23.4576 190.909H28.0025V195.455L23.4577 195.455L23.4576 190.909Z" fill="#00695C"/>
<path d="M28.0039 190.909H32.5494V195.455H28.0039V190.909Z" fill="#00695C"/>
<path d="M32.5494 190.909H37.0943L37.0941 195.455L32.5494 195.455V190.909Z" fill="#00695C"/>
<path d="M37.0943 190.909H41.6392V195.455L37.0941 195.455L37.0943 190.909Z" fill="#00695C"/>
<path d="M41.6392 190.909H46.1841V195.455H41.6392V190.909Z" fill="#00874B"/>
<path d="M46.1855 190.909H50.731V195.455H46.1855V190.909Z" fill="#00874B"/>
<path d="M50.731 190.909H55.2759V195.455L50.731 195.455V190.909Z" fill="#263238"/>
<path d="M14.3677 195.455H18.9126V200H14.3672L14.3677 195.455Z" fill="#263238"/>
<path d="M18.9126 195.455L23.4577 195.455L23.4576 200H18.9126V195.455Z" fill="#263238"/>
<path d="M23.4577 195.455L28.0025 195.455V200H23.4576L23.4577 195.455Z" fill="#263238"/>
<path d="M28.0039 195.455H32.5494V200H28.0039V195.455Z" fill="#263238"/>
<path d="M32.5494 195.455L37.0941 195.455L37.0943 200H32.5494V195.455Z" fill="#263238"/>
<path d="M37.0941 195.455L41.6392 195.455V200H37.0943L37.0941 195.455Z" fill="#263238"/>
<path d="M41.6392 195.455H46.1841V200H41.6392V195.455Z" fill="#263238"/>
<path d="M46.1855 195.455H50.731V200H46.1855V195.455Z" fill="#263238"/>
</svg>
