<svg width="246" height="200" viewBox="0 0 246 200" fill="none" xmlns="http://www.w3.org/2000/svg">
<path d="M100.418 0H109.511V9.08796H100.418V0Z" fill="#263238"/>
<path d="M109.51 0H118.598V9.08796H109.51V0Z" fill="#263238"/>
<path d="M118.598 0L127.691 0V9.08796H118.598V0Z" fill="#263238"/>
<path d="M127.691 0H136.782V9.08796H127.691V0Z" fill="#263238"/>
<path d="M136.782 0L145.874 0V9.08796H136.782V0Z" fill="#263238"/>
<path d="M91.3262 9.08789H100.417V18.1808H91.3262V9.08789Z" fill="#263238"/>
<path d="M100.418 9.08796H109.511V18.1808H100.418V9.08796Z" fill="#13B26B"/>
<path d="M109.51 9.08796H118.598L118.598 18.1808H109.51L109.51 9.08796Z" fill="#13B26B"/>
<path d="M118.598 9.08796H127.691V18.1808H118.598L118.598 9.08796Z" fill="#13B26B"/>
<path d="M127.691 9.08796H136.782V18.1808H127.691V9.08796Z" fill="#13B26B"/>
<path d="M136.782 9.08796H145.874L145.874 18.1808H136.782V9.08796Z" fill="#13B26B"/>
<path d="M145.874 9.08796L154.963 9.08789V18.1808H145.874L145.874 9.08796Z" fill="#263238"/>
<path d="M82.2344 18.1816H91.3273V27.2721H82.2344V18.1816Z" fill="#263238"/>
<path d="M91.3262 18.1808H100.417V27.2721H91.3262V18.1808Z" fill="#13B26B"/>
<path d="M100.418 18.1808H109.511V27.2721H100.418V18.1808Z" fill="#13B26B"/>
<path d="M109.51 18.1808H118.598V27.2721H109.51V18.1808Z" fill="#13B26B"/>
<path d="M118.598 18.1808H127.691V27.2721H118.598V18.1808Z" fill="#13B26B"/>
<path d="M127.691 18.1816L136.782 18.1808V27.2721H127.691L127.691 18.1816Z" fill="#13B26B"/>
<path d="M136.781 18.1816L145.874 18.1808V27.2721H136.782L136.781 18.1816Z" fill="#13B26B"/>
<path d="M145.875 18.1816L154.963 18.1808V27.2721H145.874L145.875 18.1816Z" fill="#13B26B"/>
<path d="M154.963 18.1808L164.056 18.1816V27.2721H154.963V18.1808Z" fill="#263238"/>
<path d="M73.1465 27.2715L82.2344 27.2721L82.2344 36.3644H73.1465V27.2715Z" fill="#263238"/>
<path d="M82.2344 27.2721H91.3273V36.3644H82.2344L82.2344 27.2721Z" fill="#13B26B"/>
<path d="M91.3262 27.2721H100.417V36.3644H91.3262V27.2721Z" fill="#13B26B"/>
<path d="M100.418 27.2721H109.511V36.3644H100.418V27.2721Z" fill="#13B26B"/>
<path d="M109.51 27.2721H118.598L118.598 36.3643H109.51L109.51 27.2721Z" fill="#00874B"/>
<path d="M118.598 27.2721H127.691V36.3644L118.598 36.3643L118.598 27.2721Z" fill="#00874B"/>
<path d="M127.691 27.2715L136.782 27.2721V36.3644H127.691L127.691 27.2715Z" fill="#00874B"/>
<path d="M136.781 27.2714L145.874 27.2721L145.874 36.3643L136.782 36.3644L136.781 27.2714Z" fill="#13B26B"/>
<path d="M145.875 27.2715L154.963 27.2721V36.3644L145.874 36.3643L145.875 27.2715Z" fill="#13B26B"/>
<path d="M154.963 27.2721H164.056V36.3644H154.963V27.2721Z" fill="#13B26B"/>
<path d="M164.055 27.2715H173.145V36.3644H164.055V27.2715Z" fill="#263238"/>
<path d="M45.8691 36.3652H54.9621V45.4532H45.8691V36.3652Z" fill="#263238"/>
<path d="M54.9621 36.3652H64.0558V45.4532H54.9621V36.3652Z" fill="#263238"/>
<path d="M64.0547 36.3652H73.1451V45.4532H64.0547V36.3652Z" fill="#263238"/>
<path d="M73.1465 36.3644H82.2344V45.4532H73.1465V36.3644Z" fill="#263238"/>
<path d="M82.2344 36.3644H91.3273V45.4532H82.2344V36.3644Z" fill="#00695C"/>
<path d="M91.3262 36.3644H100.417V45.4532H91.3262V36.3644Z" fill="#13B26B"/>
<path d="M100.418 36.3644H109.511V45.4532H100.418V36.3644Z" fill="#00874B"/>
<path d="M109.51 36.3643H118.598L118.598 45.4532H109.51L109.51 36.3643Z" fill="#00874B"/>
<path d="M118.598 36.3643L127.691 36.3644V45.4532H118.598L118.598 36.3643Z" fill="#00874B"/>
<path d="M127.691 36.3652L136.782 36.3644V45.4532H127.691L127.691 36.3652Z" fill="#00874B"/>
<path d="M136.781 36.3652L145.874 36.3643L145.874 45.4532H136.782L136.781 36.3652Z" fill="#00874B"/>
<path d="M145.875 36.3652L154.963 36.3644V45.4532H145.874L145.875 36.3652Z" fill="#13B26B"/>
<path d="M154.963 36.3644H164.056V45.4532H154.963V36.3644Z" fill="#00695C"/>
<path d="M164.055 36.3644H173.145V45.4532H164.055V36.3644Z" fill="#263238"/>
<path d="M36.7773 45.4531H45.8703V54.5461H36.7773V45.4531Z" fill="#263238"/>
<path d="M45.8691 45.4532H54.9621V54.5461H45.8691V45.4532Z" fill="#13B26B"/>
<path d="M54.9621 45.4532H64.0558V54.5461H54.9621V45.4532Z" fill="#13B26B"/>
<path d="M64.0547 45.4532H73.1451V54.5461H64.0547V45.4532Z" fill="#13B26B"/>
<path d="M73.1465 45.4532H82.2344V54.5461H73.1465V45.4532Z" fill="#13B26B"/>
<path d="M82.2344 45.4532H91.3273V54.5461H82.2344V45.4532Z" fill="#00695C"/>
<path d="M91.3262 45.4532H100.417V54.5461H91.3262V45.4532Z" fill="#00695C"/>
<path d="M100.418 45.4532H109.511V54.5461H100.418V45.4532Z" fill="#00874B"/>
<path d="M109.51 45.4532H118.598V54.5461H109.51V45.4532Z" fill="#00874B"/>
<path d="M118.598 45.4532H127.691V54.5461H118.598V45.4532Z" fill="#00874B"/>
<path d="M127.691 45.4532H136.782V54.5461H127.691V45.4532Z" fill="#00874B"/>
<path d="M136.782 45.4532H145.874V54.5461H136.782V45.4532Z" fill="#00874B"/>
<path d="M145.874 45.4532H154.963V54.5461H145.874V45.4532Z" fill="#00695C"/>
<path d="M154.963 45.4532H164.056V54.5461H154.963V45.4532Z" fill="#00695C"/>
<path d="M164.055 45.4532H173.145V54.5461H164.055V45.4532Z" fill="#263238"/>
<path d="M27.6914 54.5449H36.7769V63.6354H27.6914V54.5449Z" fill="#263238"/>
<path d="M36.7769 54.5449H45.8703V63.6354H36.7769V54.5449Z" fill="#13B26B"/>
<path d="M45.8691 54.5449H54.9621V63.6354H45.8691V54.5449Z" fill="#13B26B"/>
<path d="M54.9621 54.5449H64.0558V63.6354H54.9621V54.5449Z" fill="#13B26B"/>
<path d="M64.0547 54.5449H73.1451V63.6354H64.0547V54.5449Z" fill="#00874B"/>
<path d="M73.1465 54.5449H82.2344V63.6354H73.1465V54.5449Z" fill="#13B26B"/>
<path d="M82.2344 54.5449H91.3273V63.6354H82.2344V54.5449Z" fill="#00874B"/>
<path d="M91.3262 54.5449H100.417V63.6354H91.3262V54.5449Z" fill="#00695C"/>
<path d="M100.418 54.5449H109.511V63.6354H100.418V54.5449Z" fill="#00695C"/>
<path d="M109.51 54.5449H118.598V63.6354H109.51V54.5449Z" fill="#00695C"/>
<path d="M118.598 54.5449H127.691V63.6354H118.598V54.5449Z" fill="#00695C"/>
<path d="M127.691 54.5449H136.782V63.6354H127.691V54.5449Z" fill="#00695C"/>
<path d="M136.782 54.5449H145.874V63.6354H136.782V54.5449Z" fill="#00695C"/>
<path d="M145.874 54.5449H154.963V63.6354H145.874V54.5449Z" fill="#13B26B"/>
<path d="M154.963 54.5449H164.056V63.6354H154.963V54.5449Z" fill="#13B26B"/>
<path d="M164.055 54.5449H173.145V63.6354H164.055V54.5449Z" fill="#13B26B"/>
<path d="M173.146 54.5449H182.239V63.6354H173.146V54.5449Z" fill="#263238"/>
<path d="M27.6914 63.6367H36.7769V72.7297H27.6914V63.6367Z" fill="#263238"/>
<path d="M36.7769 63.6367H45.8703V72.7297H36.7769V63.6367Z" fill="#13B26B"/>
<path d="M45.8691 63.6367H54.9621V72.7297H45.8691V63.6367Z" fill="#13B26B"/>
<path d="M54.9621 63.6367H64.0558V72.7297H54.9621V63.6367Z" fill="#00874B"/>
<path d="M64.0547 63.6367H73.1451V72.7297H64.0547V63.6367Z" fill="#00874B"/>
<path d="M73.1465 63.6367H82.2344V72.7297H73.1465V63.6367Z" fill="#00874B"/>
<path d="M82.2344 63.6367H91.3273V72.7297H82.2344V63.6367Z" fill="#13B26B"/>
<path d="M91.3262 63.6367H100.417V72.7297H91.3262V63.6367Z" fill="#00874B"/>
<path d="M100.418 63.6367H109.511V72.7297H100.418V63.6367Z" fill="#00874B"/>
<path d="M109.51 63.6367H118.598V72.7297H109.51V63.6367Z" fill="#00874B"/>
<path d="M118.598 63.6367H127.691V72.7297H118.598V63.6367Z" fill="#00874B"/>
<path d="M127.691 63.6367H136.782V72.7297H127.691V63.6367Z" fill="#00874B"/>
<path d="M136.782 63.6367H145.874V72.7297H136.782V63.6367Z" fill="#00874B"/>
<path d="M145.874 63.6367H154.963V72.7297H145.874V63.6367Z" fill="#13B26B"/>
<path d="M154.963 63.6367H164.056V72.7297H154.963V63.6367Z" fill="#13B26B"/>
<path d="M164.055 63.6367H173.145V72.7297H164.055V63.6367Z" fill="#13B26B"/>
<path d="M173.146 63.6367H182.239V72.7297H173.146V63.6367Z" fill="#13B26B"/>
<path d="M182.238 63.6367H191.326V72.7297H182.238V63.6367Z" fill="#263238"/>
<path d="M27.6914 72.7285H36.7769V81.8165H27.6914V72.7285Z" fill="#263238"/>
<path d="M36.7769 72.7285H45.8703V81.8165H36.7769V72.7285Z" fill="#00695C"/>
<path d="M45.8691 72.7285H54.9621V81.8165H45.8691V72.7285Z" fill="#00874B"/>
<path d="M54.9621 72.7285H64.0558V81.8165H54.9621V72.7285Z" fill="#00874B"/>
<path d="M64.0547 72.7285H73.1451V81.8165H64.0547V72.7285Z" fill="#00874B"/>
<path d="M73.1465 72.7285H82.2344V81.8165H73.1465V72.7285Z" fill="#00874B"/>
<path d="M82.2344 72.7285H91.3273V81.8165H82.2344V72.7285Z" fill="#00874B"/>
<path d="M91.3262 72.7285H100.417V81.8165H91.3262V72.7285Z" fill="#00874B"/>
<path d="M100.418 72.7285H109.511V81.8165H100.418V72.7285Z" fill="#00874B"/>
<path d="M109.51 72.7285H118.598V81.8165H109.51V72.7285Z" fill="#00874B"/>
<path d="M118.598 72.7285H127.691V81.8165H118.598V72.7285Z" fill="#00874B"/>
<path d="M127.691 72.7285H136.782V81.8165H127.691V72.7285Z" fill="#00874B"/>
<path d="M136.782 72.7285H145.874V81.8165H136.782V72.7285Z" fill="#13B26B"/>
<path d="M145.874 72.7285H154.963V81.8165H145.874V72.7285Z" fill="#13B26B"/>
<path d="M154.963 72.7285H164.056V81.8165H154.963V72.7285Z" fill="#00874B"/>
<path d="M164.055 72.7285H173.145V81.8165H164.055V72.7285Z" fill="#00874B"/>
<path d="M173.146 72.7285H182.239V81.8165H173.146V72.7285Z" fill="#13B26B"/>
<path d="M182.238 72.7285H191.326V81.8165H182.238V72.7285Z" fill="#13B26B"/>
<path d="M191.326 72.7285H200.417V81.8165H191.326V72.7285Z" fill="#263238"/>
<path d="M27.6914 81.8165H36.7769V90.9069H27.6914V81.8165Z" fill="#263238"/>
<path d="M36.7769 81.8165H45.8703V90.9069H36.7769V81.8165Z" fill="#00695C"/>
<path d="M45.8691 81.8165H54.9621V90.9069H45.8691V81.8165Z" fill="#00695C"/>
<path d="M54.9621 81.8165H64.0558V90.9069H54.9621V81.8165Z" fill="#00874B"/>
<path d="M64.0547 81.8165H73.1451V90.9069H64.0547V81.8165Z" fill="#00874B"/>
<path d="M73.1465 81.8165H82.2344V90.9069H73.1465V81.8165Z" fill="#00874B"/>
<path d="M82.2344 81.8165H91.3273V90.9069H82.2344V81.8165Z" fill="#00874B"/>
<path d="M91.3262 81.8165H100.417V90.9069H91.3262V81.8165Z" fill="#00874B"/>
<path d="M100.418 81.8165H109.511V90.9069H100.418V81.8165Z" fill="#00695C"/>
<path d="M109.51 81.8165H118.598V90.9069H109.51V81.8165Z" fill="#263238"/>
<path d="M118.598 81.8165H127.691V90.9069H118.598V81.8165Z" fill="#00874B"/>
<path d="M127.691 81.8165H136.782V90.9069H127.691V81.8165Z" fill="#00874B"/>
<path d="M136.782 81.8165H145.874V90.9069H136.782V81.8165Z" fill="#00874B"/>
<path d="M145.874 81.8165H154.963V90.9069H145.874V81.8165Z" fill="#00874B"/>
<path d="M154.963 81.8165H164.056V90.9069H154.963V81.8165Z" fill="#00874B"/>
<path d="M164.055 81.8165H173.145V90.9069H164.055V81.8165Z" fill="#00874B"/>
<path d="M173.146 81.8165H182.239V90.9069H173.146V81.8165Z" fill="#00874B"/>
<path d="M182.238 81.8165H191.326V90.9069H182.238V81.8165Z" fill="#00695C"/>
<path d="M191.326 81.8165H200.417V90.9069H191.326V81.8165Z" fill="#263238"/>
<path d="M27.6914 90.9082H36.7769V100.001H27.6914V90.9082Z" fill="#263238"/>
<path d="M36.7769 90.9082H45.8703V100.001H36.7769V90.9082Z" fill="#00695C"/>
<path d="M45.8691 90.9082H54.9621V100.001H45.8691V90.9082Z" fill="#00695C"/>
<path d="M54.9621 90.9082H64.0558V100.001H54.9621V90.9082Z" fill="#00695C"/>
<path d="M64.0547 90.9082H73.1451V100.001H64.0547V90.9082Z" fill="#00874B"/>
<path d="M73.1465 90.9082H82.2344V100.001H73.1465V90.9082Z" fill="#00874B"/>
<path d="M82.2344 90.9082H91.3273V100.001H82.2344V90.9082Z" fill="#00695C"/>
<path d="M91.3262 90.9082H100.417V100.001H91.3262V90.9082Z" fill="#00695C"/>
<path d="M100.418 90.9082H109.511V100.001H100.418V90.9082Z" fill="#00695C"/>
<path d="M109.51 90.9082H118.598V100.001H109.51V90.9082Z" fill="#263238"/>
<path d="M118.598 90.9082H127.691V100.001H118.598V90.9082Z" fill="#00695C"/>
<path d="M127.691 90.9082H136.782V100.001H127.691V90.9082Z" fill="#00874B"/>
<path d="M136.782 90.9082H145.874V100.001H136.782V90.9082Z" fill="#00874B"/>
<path d="M145.874 90.9082H154.963V100.001H145.874V90.9082Z" fill="#00874B"/>
<path d="M154.963 90.9082H164.056V100.001H154.963V90.9082Z" fill="#00874B"/>
<path d="M164.055 90.9082H173.145V100.001H164.055V90.9082Z" fill="#00874B"/>
<path d="M173.146 90.9082H182.239V100.001H173.146V90.9082Z" fill="#00874B"/>
<path d="M182.238 90.9082H191.326V100.001H182.238V90.9082Z" fill="#00695C"/>
<path d="M191.326 90.9082H200.417V100.001H191.326V90.9082Z" fill="#263238"/>
<path d="M27.6914 100H36.7769V109.093H27.6914V100Z" fill="#263238"/>
<path d="M36.7769 100H45.8703V109.093H36.7769V100Z" fill="#263238"/>
<path d="M45.8691 100H54.9621V109.093H45.8691V100Z" fill="#00695C"/>
<path d="M54.9621 100H64.0558V109.093H54.9621V100Z" fill="#00695C"/>
<path d="M64.0547 100H73.1451V109.093H64.0547V100Z" fill="#00695C"/>
<path d="M73.1465 100H82.2344V109.093H73.1465V100Z" fill="#00695C"/>
<path d="M82.2344 100H91.3273V109.093H82.2344V100Z" fill="#00695C"/>
<path d="M91.3262 100H100.417V109.093H91.3262V100Z" fill="#00695C"/>
<path d="M100.418 100H109.511V109.093H100.418V100Z" fill="#263238"/>
<path d="M109.51 100H118.598V109.093H109.51V100Z" fill="#263238"/>
<path d="M118.598 100H127.691V109.093H118.598V100Z" fill="#00695C"/>
<path d="M127.691 100H136.782V109.093H127.691V100Z" fill="#00695C"/>
<path d="M136.782 100H145.874V109.093H136.782V100Z" fill="#00695C"/>
<path d="M145.874 100H154.963V109.093H145.874V100Z" fill="#00874B"/>
<path d="M154.963 100H164.056V109.093H154.963V100Z" fill="#00874B"/>
<path d="M164.055 100H173.145V109.093H164.055V100Z" fill="#00695C"/>
<path d="M173.146 100H182.239V109.093H173.146V100Z" fill="#00695C"/>
<path d="M182.238 100H191.326V109.093H182.238V100Z" fill="#00695C"/>
<path d="M191.326 100H200.417V109.093H191.326V100Z" fill="#263238"/>
<path d="M200.418 100H209.511V109.093H200.418V100Z" fill="#263238"/>
<path d="M209.51 100H218.603V109.093H209.51V100Z" fill="#263238"/>
<path d="M218.603 100H227.696V109.093H218.603V100Z" fill="#263238"/>
<path d="M18.5977 109.094H27.6906V118.187H18.5977V109.094Z" fill="#263238"/>
<path d="M27.6914 109.093H36.7769V118.187H27.6906L27.6914 109.093Z" fill="#13B26B"/>
<path d="M36.7769 109.093H45.8703V118.187H36.7769V109.093Z" fill="#13B26B"/>
<path d="M45.8691 109.093H54.9621V118.187H45.8691V109.093Z" fill="#13B26B"/>
<path d="M54.9629 109.094L64.0558 109.093V118.187H54.9621L54.9629 109.094Z" fill="#00874B"/>
<path d="M64.0547 109.093H73.1451V118.187H64.0547V109.093Z" fill="#00874B"/>
<path d="M73.1465 109.093H82.2344V118.187H73.1465V109.093Z" fill="#263238"/>
<path d="M82.2344 109.093H91.3273V118.187H82.2344V109.093Z" fill="#263238"/>
<path d="M91.3262 109.093H100.417V118.187H91.3262V109.093Z" fill="#263238"/>
<path d="M109.51 109.093H118.598V118.187H109.51V109.093Z" fill="#263238"/>
<path d="M118.598 109.093H127.691V118.187H118.598V109.093Z" fill="#263238"/>
<path d="M127.691 109.094L136.782 109.093V118.187H127.691L127.691 109.094Z" fill="#13B26B"/>
<path d="M136.781 109.094L145.874 109.093V118.187H136.782L136.781 109.094Z" fill="#00695C"/>
<path d="M145.875 109.094L154.963 109.093V118.187H145.874L145.875 109.094Z" fill="#00695C"/>
<path d="M154.963 109.093H164.056V118.187H154.963V109.093Z" fill="#00695C"/>
<path d="M164.055 109.093H173.145V118.187H164.055V109.093Z" fill="#00695C"/>
<path d="M173.146 109.093H182.239V118.187H173.146V109.093Z" fill="#00695C"/>
<path d="M182.238 109.093H191.326V118.187H182.238V109.093Z" fill="#13B26B"/>
<path d="M191.326 109.093H200.417V118.187H191.326V109.093Z" fill="#13B26B"/>
<path d="M200.418 109.093H209.511V118.187H200.418V109.093Z" fill="#13B26B"/>
<path d="M209.51 109.093H218.603V118.187H209.51V109.093Z" fill="#13B26B"/>
<path d="M218.604 109.094L227.696 109.093V118.187H218.603L218.604 109.094Z" fill="#13B26B"/>
<path d="M227.695 109.094H236.781V118.187H227.695V109.094Z" fill="#263238"/>
<path d="M9.50586 118.186H18.5988V127.271H9.50586V118.186Z" fill="#263238"/>
<path d="M18.5977 118.186H27.6906V127.271H18.5977V118.186Z" fill="#13B26B"/>
<path d="M27.6906 118.186H36.7769V127.271H27.6906V118.186Z" fill="#13B26B"/>
<path d="M36.7769 118.186H45.8703V127.271H36.7769V118.186Z" fill="#00874B"/>
<path d="M45.8691 118.186H54.9621V127.271H45.8691V118.186Z" fill="#00874B"/>
<path d="M54.9621 118.186H64.0558V127.271H54.9621V118.186Z" fill="#00874B"/>
<path d="M64.0547 118.186H73.1451V127.271H64.0547V118.186Z" fill="#00874B"/>
<path d="M73.1465 118.186H82.2344V127.271H73.1465V118.186Z" fill="#00874B"/>
<path d="M82.2344 118.186H91.3273V127.271H82.2344V118.186Z" fill="#263238"/>
<path d="M100.418 118.186H109.511V127.271H100.418V118.186Z" fill="#263238"/>
<path d="M109.51 118.186H118.598V127.271H109.51V118.186Z" fill="#13B26B"/>
<path d="M118.598 118.186H127.691V127.271H118.598V118.186Z" fill="#13B26B"/>
<path d="M127.691 118.186H136.782V127.271H127.691V118.186Z" fill="#13B26B"/>
<path d="M136.782 118.186H145.874V127.271H136.782V118.186Z" fill="#13B26B"/>
<path d="M145.874 118.186H154.963V127.271H145.874V118.186Z" fill="#13B26B"/>
<path d="M154.963 118.186H164.056V127.271H154.963V118.186Z" fill="#263238"/>
<path d="M164.055 118.186H173.145V127.271H164.055V118.186Z" fill="#263238"/>
<path d="M173.146 118.186H182.239V127.271H173.146V118.186Z" fill="#13B26B"/>
<path d="M182.238 118.186H191.326V127.271H182.238V118.186Z" fill="#13B26B"/>
<path d="M191.326 118.186H200.417V127.271H191.326V118.186Z" fill="#00874B"/>
<path d="M200.418 118.186H209.511V127.271H200.418V118.186Z" fill="#00874B"/>
<path d="M209.51 118.186H218.603V127.271H209.51V118.186Z" fill="#13B26B"/>
<path d="M218.603 118.186H227.696V127.271H218.603V118.186Z" fill="#13B26B"/>
<path d="M227.695 118.186H236.781V127.271H227.695V118.186Z" fill="#13B26B"/>
<path d="M236.781 118.186H245.874V127.271H236.781V118.186Z" fill="#263238"/>
<path d="M0.412109 127.271L9.50586 127.271L9.50506 136.364H0.412109V127.271Z" fill="#263238"/>
<path d="M9.50586 127.271H18.5988V136.364H9.50506L9.50586 127.271Z" fill="#13B26B"/>
<path d="M18.5977 127.271H27.6906V136.364H18.5977V127.271Z" fill="#13B26B"/>
<path d="M27.6906 127.271H36.7769V136.364H27.6906V127.271Z" fill="#13B26B"/>
<path d="M36.7769 127.271H45.8703V136.364H36.7769V127.271Z" fill="#13B26B"/>
<path d="M45.8691 127.271H54.9621V136.364H45.8691V127.271Z" fill="#13B26B"/>
<path d="M54.9621 127.271H64.0558V136.364H54.9621V127.271Z" fill="#00874B"/>
<path d="M64.0547 127.271H73.1451V136.364H64.0547V127.271Z" fill="#00874B"/>
<path d="M73.1465 127.271H82.2344V136.364H73.1465V127.271Z" fill="#00874B"/>
<path d="M82.2344 127.271H91.3273V136.364H82.2344V127.271Z" fill="#00874B"/>
<path d="M91.3262 127.271H100.417V136.364H91.3262V127.271Z" fill="#263238"/>
<path d="M100.418 127.271H109.511V136.364H100.418V127.271Z" fill="#263238"/>
<path d="M109.51 127.271H118.598V136.364H109.51V127.271Z" fill="#13B26B"/>
<path d="M118.598 127.271H127.691V136.364H118.598V127.271Z" fill="#00874B"/>
<path d="M127.691 127.271H136.782V136.364H127.691V127.271Z" fill="#00874B"/>
<path d="M136.782 127.271H145.874V136.364H136.782V127.271Z" fill="#00874B"/>
<path d="M145.874 127.271H154.963V136.364H145.874V127.271Z" fill="#00874B"/>
<path d="M154.963 127.271H164.056V136.364H154.963V127.271Z" fill="#13B26B"/>
<path d="M164.055 127.271H173.145V136.364H164.055V127.271Z" fill="#263238"/>
<path d="M173.146 127.271H182.239V136.364H173.146V127.271Z" fill="#00874B"/>
<path d="M182.238 127.271H191.326V136.364H182.238V127.271Z" fill="#00874B"/>
<path d="M191.326 127.271H200.417V136.364H191.326V127.271Z" fill="#00874B"/>
<path d="M200.418 127.271H209.511V136.364H200.418V127.271Z" fill="#13B26B"/>
<path d="M209.51 127.271H218.603V136.364H209.51V127.271Z" fill="#13B26B"/>
<path d="M218.603 127.271H227.696V136.364H218.603V127.271Z" fill="#13B26B"/>
<path d="M227.695 127.271H236.781V136.364H227.695V127.271Z" fill="#13B26B"/>
<path d="M236.781 127.271H245.874V136.364H236.781V127.271Z" fill="#263238"/>
<path d="M0.412109 136.364H9.50506V145.458H0.412109V136.364Z" fill="#263238"/>
<path d="M9.50586 136.365L18.5988 136.364V145.458H9.50506L9.50586 136.365Z" fill="#13B26B"/>
<path d="M18.5977 136.364H27.6906V145.458H18.5977V136.364Z" fill="#13B26B"/>
<path d="M27.6914 136.365L36.7769 136.364V145.458H27.6906L27.6914 136.365Z" fill="#13B26B"/>
<path d="M36.7769 136.364H45.8703V145.458H36.7769V136.364Z" fill="#00874B"/>
<path d="M45.8691 136.364H54.9621V145.458H45.8691V136.364Z" fill="#13B26B"/>
<path d="M54.9629 136.365L64.0558 136.364V145.458H54.9621L54.9629 136.365Z" fill="#13B26B"/>
<path d="M64.0547 136.364H73.1451V145.458H64.0547V136.364Z" fill="#00874B"/>
<path d="M73.1465 136.364H82.2344V145.458H73.1465V136.364Z" fill="#00874B"/>
<path d="M82.2344 136.364H91.3273V145.458H82.2344V136.364Z" fill="#00874B"/>
<path d="M91.3262 136.364H100.417V145.458H91.3262V136.364Z" fill="#00874B"/>
<path d="M100.418 136.364H109.511V145.458H100.418V136.364Z" fill="#13B26B"/>
<path d="M109.51 136.364H118.598V145.458H109.51V136.364Z" fill="#00874B"/>
<path d="M118.598 136.364H127.691V145.458H118.598V136.364Z" fill="#00874B"/>
<path d="M127.691 136.365L136.782 136.364V145.458H127.691L127.691 136.365Z" fill="#00874B"/>
<path d="M136.781 136.365L145.874 136.364V145.458H136.782L136.781 136.365Z" fill="#13B26B"/>
<path d="M145.875 136.365L154.963 136.364V145.458H145.874L145.875 136.365Z" fill="#13B26B"/>
<path d="M154.963 136.364H164.056V145.458H154.963V136.364Z" fill="#13B26B"/>
<path d="M164.055 136.364H173.145V145.458H164.055V136.364Z" fill="#13B26B"/>
<path d="M173.146 136.364H182.239V145.458H173.146V136.364Z" fill="#00695C"/>
<path d="M182.238 136.364H191.326V145.458H182.238V136.364Z" fill="#00874B"/>
<path d="M191.326 136.364H200.417V145.458H191.326V136.364Z" fill="#13B26B"/>
<path d="M200.418 136.364H209.511V145.458H200.418V136.364Z" fill="#13B26B"/>
<path d="M209.51 136.364H218.603V145.458H209.51V136.364Z" fill="#00874B"/>
<path d="M218.604 136.365L227.696 136.364V145.458H218.603L218.604 136.365Z" fill="#00874B"/>
<path d="M227.695 136.364H236.781V145.458H227.695V136.364Z" fill="#00695C"/>
<path d="M236.781 136.364H245.874V145.458H236.781V136.364Z" fill="#263238"/>
<path d="M0.412109 145.457H9.50506V154.55H0.412109V145.457Z" fill="#263238"/>
<path d="M9.50506 145.457H18.5988V154.55H9.50506V145.457Z" fill="#13B26B"/>
<path d="M18.5977 145.457H27.6906V154.55H18.5977V145.457Z" fill="#00874B"/>
<path d="M27.6906 145.457H36.7769V154.55H27.6906V145.457Z" fill="#00874B"/>
<path d="M36.7769 145.457H45.8703V154.55H36.7769V145.457Z" fill="#00874B"/>
<path d="M45.8691 145.457H54.9621V154.55H45.8691V145.457Z" fill="#00874B"/>
<path d="M54.9621 145.457H64.0558V154.55H54.9621V145.457Z" fill="#13B26B"/>
<path d="M64.0547 145.457H73.1451V154.55H64.0547V145.457Z" fill="#00874B"/>
<path d="M73.1465 145.457H82.2344V154.55H73.1465V145.457Z" fill="#00874B"/>
<path d="M82.2344 145.457H91.3273V154.55H82.2344V145.457Z" fill="#00874B"/>
<path d="M91.3262 145.457H100.417V154.55H91.3262V145.457Z" fill="#00874B"/>
<path d="M100.418 145.457H109.511V154.55H100.418V145.457Z" fill="#00874B"/>
<path d="M109.51 145.457H118.598V154.55H109.51V145.457Z" fill="#00874B"/>
<path d="M118.598 145.457H127.691V154.55H118.598V145.457Z" fill="#00874B"/>
<path d="M127.691 145.457H136.782V154.55H127.691V145.457Z" fill="#13B26B"/>
<path d="M136.782 145.457H145.874V154.55H136.782V145.457Z" fill="#13B26B"/>
<path d="M145.874 145.457H154.963V154.55H145.874V145.457Z" fill="#00874B"/>
<path d="M154.963 145.457H164.056V154.55H154.963V145.457Z" fill="#00874B"/>
<path d="M164.055 145.457H173.145V154.55H164.055V145.457Z" fill="#13B26B"/>
<path d="M173.146 145.457H182.239V154.55H173.146V145.457Z" fill="#00695C"/>
<path d="M182.238 145.457H191.326V154.55H182.238V145.457Z" fill="#00695C"/>
<path d="M191.326 145.457H200.417V154.55H191.326V145.457Z" fill="#00874B"/>
<path d="M200.418 145.457H209.511V154.55H200.418V145.457Z" fill="#00874B"/>
<path d="M209.51 145.457H218.603V154.55H209.51V145.457Z" fill="#00874B"/>
<path d="M218.603 145.457H227.696V154.55H218.603V145.457Z" fill="#00695C"/>
<path d="M227.695 145.457H236.781V154.55H227.695V145.457Z" fill="#00695C"/>
<path d="M236.781 145.457H245.874V154.55H236.781V145.457Z" fill="#263238"/>
<path d="M0.412109 154.55H9.50506V163.636H0.412109V154.55Z" fill="#263238"/>
<path d="M9.50586 154.551L18.5988 154.55V163.636L9.50506 163.636L9.50586 154.551Z" fill="#00695C"/>
<path d="M18.5977 154.55H27.6906L27.6907 163.636H18.5977L18.5977 154.55Z" fill="#00695C"/>
<path d="M27.6914 154.551L36.7769 154.55V163.636L27.6907 163.636L27.6914 154.551Z" fill="#00874B"/>
<path d="M36.7769 154.55H45.8703V163.636H36.7769V154.55Z" fill="#00874B"/>
<path d="M45.8691 154.55H54.9621L54.962 163.636H45.8691L45.8691 154.55Z" fill="#00874B"/>
<path d="M54.9629 154.551L64.0558 154.55V163.636L54.962 163.636L54.9629 154.551Z" fill="#00874B"/>
<path d="M64.0547 154.55H73.1451V163.636H64.0547V154.55Z" fill="#00874B"/>
<path d="M73.1465 154.55H82.2344V163.636H73.1465V154.55Z" fill="#00695C"/>
<path d="M82.2344 154.55H91.3273V163.636H82.2344V154.55Z" fill="#00695C"/>
<path d="M91.3262 154.55H100.417V163.636H91.3262V154.55Z" fill="#00874B"/>
<path d="M100.418 154.55H109.511V163.636H100.418V154.55Z" fill="#00874B"/>
<path d="M109.51 154.55H118.598L118.598 163.636H109.51L109.51 154.55Z" fill="#00874B"/>
<path d="M118.598 154.55H127.691V163.636L118.598 163.636L118.598 154.55Z" fill="#00874B"/>
<path d="M127.691 154.551L136.782 154.55V163.636H127.691L127.691 154.551Z" fill="#00874B"/>
<path d="M136.781 154.551L145.874 154.55L145.874 163.636L136.782 163.636L136.781 154.551Z" fill="#00874B"/>
<path d="M145.875 154.551L154.963 154.55V163.636L145.874 163.636L145.875 154.551Z" fill="#00874B"/>
<path d="M154.963 154.55H164.056V163.636H154.963V154.55Z" fill="#00874B"/>
<path d="M164.055 154.55H173.145V163.636H164.055V154.55Z" fill="#00874B"/>
<path d="M173.146 154.55H182.239V163.636H173.146V154.55Z" fill="#00695C"/>
<path d="M182.238 154.55H191.326V163.636H182.238V154.55Z" fill="#00695C"/>
<path d="M191.326 154.55H200.417V163.636H191.326V154.55Z" fill="#00695C"/>
<path d="M200.418 154.55H209.511V163.636H200.418V154.55Z" fill="#00695C"/>
<path d="M209.51 154.55H218.603V163.636H209.51V154.55Z" fill="#00874B"/>
<path d="M218.604 154.551L227.696 154.55V163.636H218.603L218.604 154.551Z" fill="#00695C"/>
<path d="M227.695 154.55H236.781V163.636H227.695V154.55Z" fill="#00695C"/>
<path d="M236.781 154.55H245.874V163.636H236.781V154.55Z" fill="#263238"/>
<path d="M9.50586 163.635H18.5988V172.728H9.50586V163.635Z" fill="#263238"/>
<path d="M18.5977 163.635H27.6906V172.728H18.5977V163.635Z" fill="#00695C"/>
<path d="M27.6906 163.635H36.7769V172.728H27.6906V163.635Z" fill="#00695C"/>
<path d="M36.7769 163.635H45.8703V172.728H36.7769V163.635Z" fill="#00695C"/>
<path d="M45.8691 163.635H54.9621V172.728H45.8691V163.635Z" fill="#00695C"/>
<path d="M54.9621 163.635H64.0558V172.728H54.9621V163.635Z" fill="#00695C"/>
<path d="M64.0547 163.635H73.1451V172.728H64.0547V163.635Z" fill="#00695C"/>
<path d="M73.1465 163.635H82.2344V172.728H73.1465V163.635Z" fill="#00695C"/>
<path d="M82.2344 163.635H91.3273V172.728H82.2344V163.635Z" fill="#263238"/>
<path d="M91.3262 163.635H100.417V172.728H91.3262V163.635Z" fill="#00695C"/>
<path d="M100.418 163.635H109.511V172.728H100.418V163.635Z" fill="#00695C"/>
<path d="M109.51 163.635H118.598V172.728H109.51V163.635Z" fill="#00874B"/>
<path d="M118.598 163.635H127.691V172.728H118.598V163.635Z" fill="#00874B"/>
<path d="M127.691 163.635H136.782V172.728H127.691V163.635Z" fill="#00874B"/>
<path d="M136.782 163.635H145.874V172.728H136.782V163.635Z" fill="#00874B"/>
<path d="M145.874 163.635H154.963V172.728H145.874V163.635Z" fill="#00874B"/>
<path d="M154.963 163.635H164.056V172.728H154.963V163.635Z" fill="#00874B"/>
<path d="M164.055 163.635H173.145V172.728H164.055V163.635Z" fill="#00695C"/>
<path d="M173.146 163.635H182.239V172.728H173.146V163.635Z" fill="#00695C"/>
<path d="M182.238 163.635H191.326V172.728H182.238V163.635Z" fill="#00695C"/>
<path d="M191.326 163.635H200.417V172.728H191.326V163.635Z" fill="#00695C"/>
<path d="M200.418 163.635H209.511V172.728H200.418V163.635Z" fill="#00695C"/>
<path d="M209.51 163.635H218.603V172.728H209.51V163.635Z" fill="#00695C"/>
<path d="M218.603 163.635H227.696V172.728H218.603V163.635Z" fill="#00695C"/>
<path d="M227.695 163.635H236.781V172.728H227.695V163.635Z" fill="#00695C"/>
<path d="M236.781 163.635H245.874V172.728H236.781V163.635Z" fill="#263238"/>
<path d="M18.5977 172.728H27.6906V181.821H18.5977V172.728Z" fill="#263238"/>
<path d="M27.6914 172.729L36.7769 172.728V181.821H27.6906L27.6914 172.729Z" fill="#00695C"/>
<path d="M36.7769 172.728H45.8703V181.821H36.7769V172.728Z" fill="#00695C"/>
<path d="M45.8691 172.728H54.9621V181.821H45.8691V172.728Z" fill="#00695C"/>
<path d="M54.9629 172.729L64.0558 172.728V181.821H54.9621L54.9629 172.729Z" fill="#00695C"/>
<path d="M64.0547 172.728H73.1451V181.821H64.0547V172.728Z" fill="#00695C"/>
<path d="M73.1465 172.728H82.2344V181.821H73.1465V172.728Z" fill="#263238"/>
<path d="M82.2344 172.728H91.3273V181.821H82.2344V172.728Z" fill="#263238"/>
<path d="M91.3262 172.728H100.417V181.821H91.3262V172.728Z" fill="#00695C"/>
<path d="M100.418 172.728H109.511V181.821H100.418V172.728Z" fill="#00695C"/>
<path d="M109.51 172.728H118.598V181.821H109.51V172.728Z" fill="#00695C"/>
<path d="M118.598 172.728H127.691V181.821H118.598V172.728Z" fill="#00695C"/>
<path d="M127.691 172.729L136.782 172.728V181.821H127.691L127.691 172.729Z" fill="#00695C"/>
<path d="M136.781 172.729L145.874 172.728V181.821H136.782L136.781 172.729Z" fill="#00695C"/>
<path d="M145.875 172.729L154.963 172.728V181.821H145.874L145.875 172.729Z" fill="#00695C"/>
<path d="M154.963 172.728H164.056V181.821H154.963V172.728Z" fill="#00695C"/>
<path d="M164.055 172.728H173.145V181.821H164.055V172.728Z" fill="#00695C"/>
<path d="M173.146 172.728H182.239V181.821H173.146V172.728Z" fill="#00695C"/>
<path d="M182.238 172.728H191.326V181.821H182.238V172.728Z" fill="#00695C"/>
<path d="M191.326 172.728H200.417V181.821H191.326V172.728Z" fill="#00695C"/>
<path d="M200.418 172.728H209.511V181.821H200.418V172.728Z" fill="#00695C"/>
<path d="M209.51 172.728H218.603V181.821H209.51V172.728Z" fill="#00695C"/>
<path d="M218.604 172.729L227.696 172.728V181.821H218.603L218.604 172.729Z" fill="#00695C"/>
<path d="M227.695 172.728H236.781V181.821H227.695V172.728Z" fill="#263238"/>
<path d="M27.6914 181.822L36.7769 181.821V190.915H27.6914V181.822Z" fill="#263238"/>
<path d="M36.7769 181.821H45.8703V190.915H36.7769V181.821Z" fill="#00695C"/>
<path d="M45.8691 181.821H54.9621L54.962 190.915H45.8691L45.8691 181.821Z" fill="#00695C"/>
<path d="M54.9629 181.822L64.0558 181.821V190.915L54.962 190.915L54.9629 181.822Z" fill="#00695C"/>
<path d="M64.0547 181.821H73.1451V190.915H64.0547V181.821Z" fill="#263238"/>
<path d="M91.3262 181.821H100.417V190.915H91.3262V181.821Z" fill="#263238"/>
<path d="M100.418 181.821H109.511V190.915H100.418V181.821Z" fill="#00695C"/>
<path d="M109.51 181.821H118.598L118.598 190.915H109.51L109.51 181.821Z" fill="#00695C"/>
<path d="M118.598 181.821H127.691V190.915L118.598 190.915L118.598 181.821Z" fill="#00695C"/>
<path d="M127.691 181.822L136.782 181.821V190.915H127.691L127.691 181.822Z" fill="#00695C"/>
<path d="M136.781 181.822L145.874 181.821L145.874 190.915L136.782 190.915L136.781 181.822Z" fill="#00695C"/>
<path d="M145.875 181.822L154.963 181.821V190.915L145.874 190.915L145.875 181.822Z" fill="#00695C"/>
<path d="M154.963 181.821H164.056V190.915H154.963V181.821Z" fill="#00695C"/>
<path d="M164.055 181.821H173.145V190.915H164.055V181.821Z" fill="#263238"/>
<path d="M173.146 181.821H182.239V190.915H173.146V181.821Z" fill="#00695C"/>
<path d="M182.238 181.821H191.326V190.915H182.238V181.821Z" fill="#00695C"/>
<path d="M191.326 181.821H200.417V190.915H191.326V181.821Z" fill="#00695C"/>
<path d="M200.418 181.821H209.511V190.915H200.418V181.821Z" fill="#00695C"/>
<path d="M209.51 181.821H218.603V190.915H209.51V181.821Z" fill="#00695C"/>
<path d="M218.604 181.822L227.696 181.821V190.915H218.603L218.604 181.822Z" fill="#263238"/>
<path d="M36.7773 190.914H45.8703V200H36.7773V190.914Z" fill="#263238"/>
<path d="M45.8691 190.914H54.9621V200H45.8691V190.914Z" fill="#263238"/>
<path d="M54.9621 190.914H64.0558V200H54.9621V190.914Z" fill="#263238"/>
<path d="M100.418 190.914H109.511V200H100.418V190.914Z" fill="#263238"/>
<path d="M109.51 190.914H118.598V200H109.51V190.914Z" fill="#263238"/>
<path d="M118.598 190.914H127.691V200H118.598V190.914Z" fill="#263238"/>
<path d="M127.691 190.914H136.782V200H127.691V190.914Z" fill="#263238"/>
<path d="M136.782 190.914H145.874V200H136.782V190.914Z" fill="#263238"/>
<path d="M145.874 190.914H154.963V200H145.874V190.914Z" fill="#263238"/>
<path d="M154.963 190.914H164.056V200H154.963V190.914Z" fill="#263238"/>
<path d="M173.146 190.914H182.239V200H173.146V190.914Z" fill="#263238"/>
<path d="M182.238 190.914H191.326V200H182.238V190.914Z" fill="#263238"/>
<path d="M191.326 190.914H200.417V200H191.326V190.914Z" fill="#263238"/>
<path d="M200.418 190.914H209.511V200H200.418V190.914Z" fill="#263238"/>
<path d="M209.51 190.914H218.603V200H209.51V190.914Z" fill="#263238"/>
</svg>
