<svg width="568" height="200" viewBox="0 0 568 200" fill="none" xmlns="http://www.w3.org/2000/svg">
<path d="M150.621 0H167.291V16.6701H150.621V0Z" fill="#263238"/>
<path d="M167.291 0L183.961 0V16.6701H167.291V0Z" fill="#263238"/>
<path d="M183.961 0L200.617 0V16.6701H183.961V0Z" fill="#263238"/>
<path d="M117.293 16.6699H133.949V33.3401H117.293V16.6699Z" fill="#263238"/>
<path d="M133.951 16.6699L150.621 16.6701L150.621 33.3401H133.951V16.6699Z" fill="#263238"/>
<path d="M150.621 16.6701H167.291L167.291 33.3401H150.621L150.621 16.6701Z" fill="#13B26B"/>
<path d="M167.291 16.6701H183.961V33.3401H167.291L167.291 16.6701Z" fill="#13B26B"/>
<path d="M183.961 16.6701H200.617L200.617 33.3401H183.961V16.6701Z" fill="#13B26B"/>
<path d="M200.617 16.6701L217.287 16.6699V33.3401H200.617L200.617 16.6701Z" fill="#263238"/>
<path d="M217.287 16.6699H233.957V33.3401H217.287V16.6699Z" fill="#263238"/>
<path d="M100.625 33.3398H117.295V50.01H100.625V33.3398Z" fill="#263238"/>
<path d="M117.293 33.3401H133.949V50.01H117.293V33.3401Z" fill="#13B26B"/>
<path d="M133.951 33.3401H150.621V50.01H133.951V33.3401Z" fill="#13B26B"/>
<path d="M150.621 33.3401H167.291L167.291 50.0099L150.621 50.01V33.3401Z" fill="#13B26B"/>
<path d="M167.291 33.3401H183.961V50.01L167.291 50.0099L167.291 33.3401Z" fill="#00874B"/>
<path d="M183.961 33.3401H200.617L200.617 50.0099L183.961 50.01V33.3401Z" fill="#00874B"/>
<path d="M200.617 33.3401H217.287V50.01L200.617 50.0099L200.617 33.3401Z" fill="#13B26B"/>
<path d="M217.287 33.3401H233.957V50.01H217.287V33.3401Z" fill="#13B26B"/>
<path d="M233.957 33.3401L250.627 33.3398V50.01H233.957V33.3401Z" fill="#263238"/>
<path d="M250.629 33.3398H267.285V50.01H250.629V33.3398Z" fill="#263238"/>
<path d="M467.297 33.3398H483.953V50.01H467.297V33.3398Z" fill="#263238"/>
<path d="M483.955 33.3398H500.625V50.01H483.955V33.3398Z" fill="#263238"/>
<path d="M500.625 33.3398H517.295V50.01H500.625V33.3398Z" fill="#263238"/>
<path d="M517.295 33.3398H533.965V50.01H517.295V33.3398Z" fill="#263238"/>
<path d="M83.9531 50.0098H100.623V66.6662H83.9531V50.0098Z" fill="#263238"/>
<path d="M100.625 50.01H117.295V66.6662H100.625V50.01Z" fill="#13B26B"/>
<path d="M117.293 50.01H133.949V66.6662H117.293V50.01Z" fill="#13B26B"/>
<path d="M133.951 50.01H150.621V66.6662H133.951V50.01Z" fill="#13B26B"/>
<path d="M150.621 50.01L167.291 50.0099L167.291 66.6662H150.621V50.01Z" fill="#00874B"/>
<path d="M167.291 50.0099L183.961 50.01V66.6662H167.291L167.291 50.0099Z" fill="#00874B"/>
<path d="M183.961 50.01L200.617 50.0099L200.617 66.6662H183.961V50.01Z" fill="#00874B"/>
<path d="M200.617 50.0099L217.287 50.01V66.6662H200.617L200.617 50.0099Z" fill="#00874B"/>
<path d="M217.287 50.01H233.957V66.6662H217.287V50.01Z" fill="#13B26B"/>
<path d="M233.957 50.01H250.627V66.6662H233.957V50.01Z" fill="#13B26B"/>
<path d="M250.629 50.01H267.285V66.6662H250.629V50.01Z" fill="#13B26B"/>
<path d="M267.283 50.0098H283.953V66.6662H267.283V50.0098Z" fill="#263238"/>
<path d="M300.625 50.0098H317.295V66.6662H300.625V50.0098Z" fill="#263238"/>
<path d="M317.293 50.0098H333.963V66.6662H317.293V50.0098Z" fill="#263238"/>
<path d="M333.965 50.0098H350.621V66.6662H333.965V50.0098Z" fill="#263238"/>
<path d="M350.621 50.0098H367.291V66.6662H350.621V50.0098Z" fill="#263238"/>
<path d="M367.291 50.0098H383.961V66.6662H367.291V50.0098Z" fill="#263238"/>
<path d="M383.961 50.0098H400.631V66.6662H383.961V50.0098Z" fill="#263238"/>
<path d="M433.959 50.0098H450.629V66.6662H433.959V50.0098Z" fill="#263238"/>
<path d="M450.629 50.0098H467.299V66.6662H450.629V50.0098Z" fill="#263238"/>
<path d="M467.297 50.01H483.953V66.6662H467.297V50.01Z" fill="#13B26B"/>
<path d="M483.955 50.01H500.625V66.6662H483.955V50.01Z" fill="#13B26B"/>
<path d="M500.625 50.01H517.295V66.6662H500.625V50.01Z" fill="#13B26B"/>
<path d="M517.295 50.01H533.965V66.6662H517.295V50.01Z" fill="#13B26B"/>
<path d="M533.965 50.01L550.621 50.0098V66.6662H533.965V50.01Z" fill="#263238"/>
<path d="M33.957 66.668H50.6134V83.3381H33.957V66.668Z" fill="#263238"/>
<path d="M50.6134 66.668H67.2834V83.3381H50.6134V66.668Z" fill="#263238"/>
<path d="M67.2834 66.668H83.9534V83.3381H67.2834V66.668Z" fill="#263238"/>
<path d="M83.9534 66.668H100.623V83.3381H83.9534V66.668Z" fill="#263238"/>
<path d="M100.625 66.668H117.295V83.3381H100.625V66.668Z" fill="#13B26B"/>
<path d="M117.293 66.668H133.949V83.3381H117.293V66.668Z" fill="#00874B"/>
<path d="M133.951 66.668H150.621V83.3381H133.951V66.668Z" fill="#00874B"/>
<path d="M150.621 66.668H167.291V83.3381H150.621V66.668Z" fill="#00874B"/>
<path d="M167.291 66.668H183.961V83.3381H167.291V66.668Z" fill="#00874B"/>
<path d="M183.961 66.668H200.617V83.3381H183.961V66.668Z" fill="#00874B"/>
<path d="M200.617 66.668H217.287V83.3381H200.617V66.668Z" fill="#13B26B"/>
<path d="M217.287 66.668H233.957V83.3381H217.287V66.668Z" fill="#13B26B"/>
<path d="M233.957 66.668H250.627V83.3381H233.957V66.668Z" fill="#00874B"/>
<path d="M250.629 66.668H267.285V83.3381H250.629V66.668Z" fill="#13B26B"/>
<path d="M267.283 66.668H283.953V83.3381H267.283V66.668Z" fill="#13B26B"/>
<path d="M283.955 66.668H300.625V83.3381H283.955V66.668Z" fill="#263238"/>
<path d="M300.625 66.668H317.295V83.3381H300.625V66.668Z" fill="#13B26B"/>
<path d="M317.293 66.668H333.963V83.3381H317.293V66.668Z" fill="#13B26B"/>
<path d="M333.965 66.668H350.621V83.3381H333.965V66.668Z" fill="#13B26B"/>
<path d="M350.621 66.668H367.291V83.3381H350.621V66.668Z" fill="#13B26B"/>
<path d="M367.291 66.668H383.961V83.3381H367.291V66.668Z" fill="#13B26B"/>
<path d="M383.961 66.668H400.631V83.3381H383.961V66.668Z" fill="#13B26B"/>
<path d="M400.633 66.668H417.289V83.3381H400.633V66.668Z" fill="#263238"/>
<path d="M417.287 66.668H433.957V83.3381H417.287V66.668Z" fill="#263238"/>
<path d="M433.959 66.668H450.629V83.3381H433.959V66.668Z" fill="#13B26B"/>
<path d="M450.629 66.668H467.299V83.3381H450.629V66.668Z" fill="#13B26B"/>
<path d="M467.297 66.668H483.953V83.3381H467.297V66.668Z" fill="#13B26B"/>
<path d="M483.955 66.668H500.625V83.3381H483.955V66.668Z" fill="#00874B"/>
<path d="M500.625 66.668H517.295V83.3381H500.625V66.668Z" fill="#00874B"/>
<path d="M517.295 66.668H533.965V83.3381H517.295V66.668Z" fill="#13B26B"/>
<path d="M533.965 66.668H550.621V83.3381H533.965V66.668Z" fill="#13B26B"/>
<path d="M550.623 66.668H567.293V83.3381H550.623V66.668Z" fill="#263238"/>
<path d="M17.2871 83.3359H33.9573V100.006H17.2871V83.3359Z" fill="#263238"/>
<path d="M33.9573 83.3359H50.6134V100.006H33.9573V83.3359Z" fill="#13B26B"/>
<path d="M50.6134 83.3359H67.2834V100.006H50.6134V83.3359Z" fill="#13B26B"/>
<path d="M67.2834 83.3359H83.9534V100.006H67.2834V83.3359Z" fill="#13B26B"/>
<path d="M83.9534 83.3359H100.623V100.006H83.9534V83.3359Z" fill="#263238"/>
<path d="M100.625 83.3359H117.295V100.006H100.625V83.3359Z" fill="#13B26B"/>
<path d="M117.293 83.3359H133.949V100.006H117.293V83.3359Z" fill="#00874B"/>
<path d="M133.951 83.3359H150.621V100.006H133.951V83.3359Z" fill="#00874B"/>
<path d="M150.621 83.3359H167.291V100.006H150.621V83.3359Z" fill="#00874B"/>
<path d="M167.291 83.3359H183.961V100.006H167.291V83.3359Z" fill="#00874B"/>
<path d="M183.961 83.3359H200.617V100.006H183.961V83.3359Z" fill="#13B26B"/>
<path d="M200.617 83.3359H217.287V100.006H200.617V83.3359Z" fill="#13B26B"/>
<path d="M217.287 83.3359H233.957V100.006H217.287V83.3359Z" fill="#00874B"/>
<path d="M233.957 83.3359H250.627V100.006H233.957V83.3359Z" fill="#00874B"/>
<path d="M250.629 83.3359H267.285V100.006H250.629V83.3359Z" fill="#00874B"/>
<path d="M267.283 83.3359H283.953V100.006H267.283V83.3359Z" fill="#13B26B"/>
<path d="M283.955 83.3359H300.625V100.006H283.955V83.3359Z" fill="#13B26B"/>
<path d="M300.625 83.3359H317.295V100.006H300.625V83.3359Z" fill="#13B26B"/>
<path d="M317.293 83.3359H333.963V100.006H317.293V83.3359Z" fill="#13B26B"/>
<path d="M333.965 83.3359H350.621V100.006H333.965V83.3359Z" fill="#00874B"/>
<path d="M350.621 83.3359H367.291V100.006H350.621V83.3359Z" fill="#00874B"/>
<path d="M367.291 83.3359H383.961V100.006H367.291V83.3359Z" fill="#13B26B"/>
<path d="M383.961 83.3359H400.631V100.006H383.961V83.3359Z" fill="#13B26B"/>
<path d="M400.633 83.3359H417.289V100.006H400.633V83.3359Z" fill="#263238"/>
<path d="M417.287 83.3359H433.957V100.006H417.287V83.3359Z" fill="#13B26B"/>
<path d="M433.959 83.3359H450.629V100.006H433.959V83.3359Z" fill="#13B26B"/>
<path d="M450.629 83.3359H467.299V100.006H450.629V83.3359Z" fill="#13B26B"/>
<path d="M467.297 83.3359H483.953V100.006H467.297V83.3359Z" fill="#13B26B"/>
<path d="M483.955 83.3359H500.625V100.006H483.955V83.3359Z" fill="#00874B"/>
<path d="M500.625 83.3359H517.295V100.006H500.625V83.3359Z" fill="#00874B"/>
<path d="M517.295 83.3359H533.965V100.006H517.295V83.3359Z" fill="#13B26B"/>
<path d="M533.965 83.3359H550.621V100.006H533.965V83.3359Z" fill="#13B26B"/>
<path d="M550.623 83.3359H567.293V100.006H550.623V83.3359Z" fill="#263238"/>
<path d="M0.617188 100.008H17.2873V116.678H0.617188V100.008Z" fill="#263238"/>
<path d="M17.2873 100.008H33.9573V116.678H17.2873V100.008Z" fill="#13B26B"/>
<path d="M33.9573 100.008H50.6134V116.678H33.9573V100.008Z" fill="#13B26B"/>
<path d="M50.6134 100.008H67.2834V116.678H50.6134V100.008Z" fill="#13B26B"/>
<path d="M67.2834 100.008H83.9534V116.678H67.2834V100.008Z" fill="#13B26B"/>
<path d="M83.9534 100.008H100.623V116.678H83.9534V100.008Z" fill="#13B26B"/>
<path d="M100.625 100.008H117.295V116.678H100.625V100.008Z" fill="#13B26B"/>
<path d="M117.293 100.008H133.949V116.678H117.293V100.008Z" fill="#00874B"/>
<path d="M133.951 100.008H150.621V116.678H133.951V100.008Z" fill="#00874B"/>
<path d="M150.621 100.008H167.291V116.678H150.621V100.008Z" fill="#00874B"/>
<path d="M167.291 100.008H183.961V116.678H167.291V100.008Z" fill="#00874B"/>
<path d="M183.961 100.008H200.617V116.678H183.961V100.008Z" fill="#13B26B"/>
<path d="M200.617 100.008H217.287V116.678H200.617V100.008Z" fill="#00874B"/>
<path d="M217.287 100.008H233.957V116.678H217.287V100.008Z" fill="#00874B"/>
<path d="M233.957 100.008H250.627V116.678H233.957V100.008Z" fill="#00874B"/>
<path d="M250.629 100.008H267.285V116.678H250.629V100.008Z" fill="#00874B"/>
<path d="M267.283 100.008H283.953V116.678H267.283V100.008Z" fill="#13B26B"/>
<path d="M283.955 100.008H300.625V116.678H283.955V100.008Z" fill="#13B26B"/>
<path d="M300.625 100.008H317.295V116.678H300.625V100.008Z" fill="#00874B"/>
<path d="M317.293 100.008H333.963V116.678H317.293V100.008Z" fill="#00874B"/>
<path d="M333.965 100.008H350.621V116.678H333.965V100.008Z" fill="#00874B"/>
<path d="M350.621 100.008H367.291V116.678H350.621V100.008Z" fill="#00874B"/>
<path d="M367.291 100.008H383.961V116.678H367.291V100.008Z" fill="#00874B"/>
<path d="M383.961 100.008H400.631V116.678H383.961V100.008Z" fill="#13B26B"/>
<path d="M400.633 100.008H417.289V116.678H400.633V100.008Z" fill="#13B26B"/>
<path d="M417.287 100.008H433.957V116.678H417.287V100.008Z" fill="#13B26B"/>
<path d="M433.959 100.008H450.629V116.678H433.959V100.008Z" fill="#00874B"/>
<path d="M450.629 100.008H467.299V116.678H450.629V100.008Z" fill="#00874B"/>
<path d="M467.297 100.008H483.953V116.678H467.297V100.008Z" fill="#13B26B"/>
<path d="M483.955 100.008H500.625V116.678H483.955V100.008Z" fill="#13B26B"/>
<path d="M500.625 100.008H517.295V116.678H500.625V100.008Z" fill="#00874B"/>
<path d="M517.295 100.008H533.965V116.678H517.295V100.008Z" fill="#00874B"/>
<path d="M533.965 100.008H550.621V116.678H533.965V100.008Z" fill="#13B26B"/>
<path d="M550.623 100.008H567.293V116.678H550.623V100.008Z" fill="#263238"/>
<path d="M0.617188 116.678H17.2873V133.334H0.617188V116.678Z" fill="#263238"/>
<path d="M17.2873 116.678H33.9573V133.334L17.2873 133.334V116.678Z" fill="#13B26B"/>
<path d="M33.9573 116.678H50.6134L50.6133 133.334L33.9573 133.334V116.678Z" fill="#00874B"/>
<path d="M50.6134 116.678H67.2834V133.334L50.6133 133.334L50.6134 116.678Z" fill="#00874B"/>
<path d="M67.2834 116.678H83.9534V133.334H67.2834V116.678Z" fill="#00874B"/>
<path d="M83.9534 116.678H100.623V133.334H83.9534V116.678Z" fill="#13B26B"/>
<path d="M100.625 116.678H117.295V133.334H100.625V116.678Z" fill="#13B26B"/>
<path d="M117.293 116.678H133.949V133.334H117.293V116.678Z" fill="#13B26B"/>
<path d="M133.951 116.678H150.621V133.334H133.951V116.678Z" fill="#00874B"/>
<path d="M150.621 116.678H167.291L167.291 133.334L150.621 133.334V116.678Z" fill="#00874B"/>
<path d="M167.291 116.678H183.961V133.334L167.291 133.334L167.291 116.678Z" fill="#00874B"/>
<path d="M183.961 116.678H200.617L200.617 133.334L183.961 133.334V116.678Z" fill="#00874B"/>
<path d="M200.617 116.678H217.287V133.334L200.617 133.334L200.617 116.678Z" fill="#00874B"/>
<path d="M217.287 116.678H233.957V133.334H217.287V116.678Z" fill="#00874B"/>
<path d="M233.957 116.678H250.627V133.334H233.957V116.678Z" fill="#00874B"/>
<path d="M250.629 116.678H267.285V133.334H250.629V116.678Z" fill="#00695C"/>
<path d="M267.283 116.678H283.953V133.334H267.283V116.678Z" fill="#13B26B"/>
<path d="M283.955 116.678H300.625V133.334H283.955V116.678Z" fill="#13B26B"/>
<path d="M300.625 116.678H317.295L317.295 133.334L300.625 133.334V116.678Z" fill="#00874B"/>
<path d="M317.293 116.678H333.963V133.334H317.293V116.678Z" fill="#00874B"/>
<path d="M333.965 116.678H350.621L350.621 133.334H333.965L333.965 116.678Z" fill="#00874B"/>
<path d="M350.621 116.678H367.291V133.334L350.621 133.334L350.621 116.678Z" fill="#00874B"/>
<path d="M367.291 116.678H383.961V133.334H367.291V116.678Z" fill="#00874B"/>
<path d="M383.961 116.678H400.631V133.334H383.961V116.678Z" fill="#00874B"/>
<path d="M400.633 116.678H417.289V133.334H400.633V116.678Z" fill="#00874B"/>
<path d="M417.287 116.678H433.957V133.334H417.287V116.678Z" fill="#13B26B"/>
<path d="M433.959 116.678H450.629V133.334H433.959V116.678Z" fill="#00874B"/>
<path d="M450.629 116.678H467.299L467.299 133.334L450.629 133.334V116.678Z" fill="#00874B"/>
<path d="M467.297 116.678H483.953V133.334H467.297V116.678Z" fill="#00874B"/>
<path d="M483.955 116.678H500.625V133.334H483.955V116.678Z" fill="#13B26B"/>
<path d="M500.625 116.678H517.295V133.334H500.625V116.678Z" fill="#00874B"/>
<path d="M517.295 116.678H533.965V133.334H517.295V116.678Z" fill="#00874B"/>
<path d="M533.965 116.678H550.621V133.334H533.965V116.678Z" fill="#13B26B"/>
<path d="M550.623 116.678H567.293V133.334H550.623V116.678Z" fill="#263238"/>
<path d="M0.617188 133.334H17.2873V150.004H0.617188V133.334Z" fill="#263238"/>
<path d="M17.2873 133.334L33.9573 133.334V150.004H17.2873V133.334Z" fill="#13B26B"/>
<path d="M33.9573 133.334L50.6133 133.334L50.6134 150.004H33.9573V133.334Z" fill="#00874B"/>
<path d="M50.6133 133.334L67.2834 133.334V150.004H50.6134L50.6133 133.334Z" fill="#00874B"/>
<path d="M67.2834 133.334H83.9534V150.004H67.2834V133.334Z" fill="#00874B"/>
<path d="M83.9534 133.334H100.623V150.004H83.9534V133.334Z" fill="#00874B"/>
<path d="M100.625 133.334H117.295V150.004H100.625V133.334Z" fill="#00695C"/>
<path d="M117.293 133.334H133.949V150.004H117.293V133.334Z" fill="#13B26B"/>
<path d="M133.951 133.334H150.621V150.004H133.951V133.334Z" fill="#13B26B"/>
<path d="M150.621 133.334L167.291 133.334L167.291 150.004H150.621V133.334Z" fill="#00874B"/>
<path d="M167.291 133.334L183.961 133.334V150.004H167.291L167.291 133.334Z" fill="#00874B"/>
<path d="M183.961 133.334L200.617 133.334L200.617 150.004H183.961V133.334Z" fill="#00874B"/>
<path d="M200.617 133.334L217.287 133.334V150.004H200.617L200.617 133.334Z" fill="#00695C"/>
<path d="M217.287 133.334H233.957V150.004H217.287V133.334Z" fill="#00874B"/>
<path d="M233.957 133.334H250.627V150.004H233.957V133.334Z" fill="#00695C"/>
<path d="M250.629 133.334H267.285V150.004H250.629V133.334Z" fill="#00695C"/>
<path d="M267.283 133.334H283.953V150.004H267.283V133.334Z" fill="#00695C"/>
<path d="M283.955 133.334H300.625V150.004H283.955V133.334Z" fill="#00695C"/>
<path d="M300.625 133.334L317.295 133.334L317.295 150.004H300.625V133.334Z" fill="#13B26B"/>
<path d="M317.293 133.334H333.963V150.004H317.293V133.334Z" fill="#00874B"/>
<path d="M333.965 133.334H350.621L350.621 150.004H333.965L333.965 133.334Z" fill="#00874B"/>
<path d="M350.621 133.334L367.291 133.334V150.004H350.621L350.621 133.334Z" fill="#00874B"/>
<path d="M367.291 133.334H383.961V150.004H367.291V133.334Z" fill="#00874B"/>
<path d="M383.961 133.334H400.631V150.004H383.961V133.334Z" fill="#00874B"/>
<path d="M400.633 133.334H417.289V150.004H400.633V133.334Z" fill="#13B26B"/>
<path d="M417.287 133.334H433.957V150.004H417.287V133.334Z" fill="#13B26B"/>
<path d="M433.959 133.334H450.629V150.004H433.959V133.334Z" fill="#00874B"/>
<path d="M450.629 133.334L467.299 133.334L467.299 150.004H450.629V133.334Z" fill="#00874B"/>
<path d="M467.297 133.334H483.953V150.004H467.297V133.334Z" fill="#00874B"/>
<path d="M483.955 133.334H500.625V150.004H483.955V133.334Z" fill="#00874B"/>
<path d="M500.625 133.334H517.295V150.004H500.625V133.334Z" fill="#00874B"/>
<path d="M517.295 133.334H533.965V150.004H517.295V133.334Z" fill="#00695C"/>
<path d="M533.965 133.334H550.621V150.004H533.965V133.334Z" fill="#263238"/>
<path d="M0.617188 150.004H17.2873V166.674H0.617188V150.004Z" fill="#263238"/>
<path d="M17.2873 150.004H33.9573V166.674L17.2873 166.674V150.004Z" fill="#13B26B"/>
<path d="M33.9573 150.004H50.6134L50.6133 166.674L33.9573 166.674V150.004Z" fill="#13B26B"/>
<path d="M50.6134 150.004H67.2834V166.674L50.6133 166.674L50.6134 150.004Z" fill="#00695C"/>
<path d="M67.2834 150.004H83.9534V166.674H67.2834V150.004Z" fill="#00874B"/>
<path d="M83.9534 150.004H100.623V166.674H83.9534V150.004Z" fill="#00874B"/>
<path d="M100.625 150.004H117.295V166.674H100.625V150.004Z" fill="#00874B"/>
<path d="M117.293 150.004H133.949V166.674H117.293V150.004Z" fill="#00695C"/>
<path d="M133.951 150.004H150.621V166.674H133.951V150.004Z" fill="#00695C"/>
<path d="M150.621 150.004H167.291L167.291 166.674L150.621 166.674V150.004Z" fill="#00695C"/>
<path d="M167.291 150.004H183.961V166.674L167.291 166.674L167.291 150.004Z" fill="#00874B"/>
<path d="M183.961 150.004H200.617L200.617 166.674L183.961 166.674V150.004Z" fill="#00874B"/>
<path d="M200.617 150.004H217.287V166.674L200.617 166.674L200.617 150.004Z" fill="#00874B"/>
<path d="M217.287 150.004H233.957V166.674H217.287V150.004Z" fill="#00695C"/>
<path d="M233.957 150.004H250.627V166.674H233.957V150.004Z" fill="#00695C"/>
<path d="M250.629 150.004H267.285V166.674H250.629V150.004Z" fill="#00695C"/>
<path d="M267.283 150.004H283.953V166.674H267.283V150.004Z" fill="#00695C"/>
<path d="M283.955 150.004H300.625V166.674H283.955V150.004Z" fill="#00695C"/>
<path d="M300.625 150.004H317.295L317.295 166.674L300.625 166.674V150.004Z" fill="#00695C"/>
<path d="M317.293 150.004H333.963V166.674H317.293V150.004Z" fill="#00695C"/>
<path d="M333.965 150.004H350.621L350.621 166.674H333.965L333.965 150.004Z" fill="#00874B"/>
<path d="M350.621 150.004H367.291V166.674L350.621 166.674L350.621 150.004Z" fill="#00874B"/>
<path d="M367.291 150.004H383.961V166.674H367.291V150.004Z" fill="#00874B"/>
<path d="M383.961 150.004H400.631V166.674H383.961V150.004Z" fill="#00874B"/>
<path d="M400.633 150.004H417.289V166.674H400.633V150.004Z" fill="#00695C"/>
<path d="M417.287 150.004H433.957V166.674H417.287V150.004Z" fill="#00695C"/>
<path d="M433.959 150.004H450.629V166.674H433.959V150.004Z" fill="#00695C"/>
<path d="M450.629 150.004H467.299L467.299 166.674L450.629 166.674V150.004Z" fill="#00874B"/>
<path d="M467.297 150.004H483.953V166.674H467.297V150.004Z" fill="#00874B"/>
<path d="M483.955 150.004H500.625V166.674H483.955V150.004Z" fill="#00695C"/>
<path d="M500.625 150.004H517.295V166.674H500.625V150.004Z" fill="#00695C"/>
<path d="M517.295 150.004H533.965V166.674H517.295V150.004Z" fill="#263238"/>
<path d="M17.2873 166.674L33.9573 166.674V183.344H17.2871L17.2873 166.674Z" fill="#263238"/>
<path d="M33.9573 166.674L50.6133 166.674L50.6134 183.344H33.9573V166.674Z" fill="#263238"/>
<path d="M50.6133 166.674L67.2834 166.674V183.344H50.6134L50.6133 166.674Z" fill="#00695C"/>
<path d="M67.2834 166.674H83.9534V183.344H67.2834V166.674Z" fill="#00695C"/>
<path d="M83.9534 166.674H100.623V183.344H83.9534V166.674Z" fill="#00695C"/>
<path d="M100.625 166.674H117.295V183.344H100.625V166.674Z" fill="#00695C"/>
<path d="M117.293 166.674H133.949V183.344H117.293V166.674Z" fill="#00695C"/>
<path d="M133.951 166.674H150.621V183.344H133.951V166.674Z" fill="#00695C"/>
<path d="M150.621 166.674L167.291 166.674L167.291 183.344H150.621V166.674Z" fill="#00695C"/>
<path d="M167.291 166.674L183.961 166.674V183.344H167.291L167.291 166.674Z" fill="#00695C"/>
<path d="M183.961 166.674L200.617 166.674L200.617 183.344H183.961V166.674Z" fill="#00695C"/>
<path d="M200.617 166.674L217.287 166.674V183.344H200.617L200.617 166.674Z" fill="#00695C"/>
<path d="M217.287 166.674H233.957V183.344H217.287V166.674Z" fill="#00695C"/>
<path d="M233.957 166.674H250.627V183.344H233.957V166.674Z" fill="#00695C"/>
<path d="M250.629 166.674H267.285V183.344H250.629V166.674Z" fill="#00695C"/>
<path d="M267.283 166.674H283.953V183.344H267.283V166.674Z" fill="#00695C"/>
<path d="M283.955 166.674H300.625V183.344H283.955V166.674Z" fill="#00695C"/>
<path d="M300.625 166.674L317.295 166.674L317.295 183.344H300.625V166.674Z" fill="#00695C"/>
<path d="M317.293 166.674H333.963V183.344H317.293V166.674Z" fill="#00695C"/>
<path d="M333.965 166.674H350.621L350.621 183.344H333.965L333.965 166.674Z" fill="#00695C"/>
<path d="M350.621 166.674L367.291 166.674V183.344H350.621L350.621 166.674Z" fill="#00695C"/>
<path d="M367.291 166.674H383.961V183.344H367.291V166.674Z" fill="#00695C"/>
<path d="M383.961 166.674H400.631V183.344H383.961V166.674Z" fill="#00695C"/>
<path d="M400.633 166.674H417.289V183.344H400.633V166.674Z" fill="#00695C"/>
<path d="M417.287 166.674H433.957V183.344H417.287V166.674Z" fill="#00695C"/>
<path d="M433.959 166.674H450.629V183.344H433.959V166.674Z" fill="#00695C"/>
<path d="M450.629 166.674L467.299 166.674L467.299 183.344H450.629V166.674Z" fill="#00695C"/>
<path d="M467.297 166.674H483.953V183.344H467.297V166.674Z" fill="#00695C"/>
<path d="M483.955 166.674H500.625V183.344H483.955V166.674Z" fill="#263238"/>
<path d="M500.625 166.674H517.295V183.344H500.625V166.674Z" fill="#263238"/>
<path d="M50.6134 183.344H67.2834V200H50.6133L50.6134 183.344Z" fill="#263238"/>
<path d="M67.2834 183.344H83.9534V200H67.2834V183.344Z" fill="#263238"/>
<path d="M83.9534 183.344H100.623V200H83.9534V183.344Z" fill="#263238"/>
<path d="M100.625 183.344H117.295V200H100.625V183.344Z" fill="#263238"/>
<path d="M117.293 183.344H133.949V200H117.293V183.344Z" fill="#263238"/>
<path d="M133.951 183.344H150.621V200H133.951V183.344Z" fill="#263238"/>
<path d="M150.621 183.344H167.291L167.291 200L150.621 200V183.344Z" fill="#263238"/>
<path d="M167.291 183.344H183.961V200L167.291 200L167.291 183.344Z" fill="#263238"/>
<path d="M183.961 183.344H200.617L200.617 200L183.961 200V183.344Z" fill="#263238"/>
<path d="M200.617 183.344H217.287V200L200.617 200L200.617 183.344Z" fill="#263238"/>
<path d="M217.287 183.344H233.957V200H217.287V183.344Z" fill="#263238"/>
<path d="M233.957 183.344H250.627V200H233.957V183.344Z" fill="#263238"/>
<path d="M250.629 183.344H267.285V200H250.629V183.344Z" fill="#263238"/>
<path d="M267.283 183.344H283.953V200H267.283V183.344Z" fill="#263238"/>
<path d="M283.955 183.344H300.625V200H283.955V183.344Z" fill="#263238"/>
<path d="M300.625 183.344H317.295L317.295 200L300.625 200V183.344Z" fill="#263238"/>
<path d="M317.293 183.344H333.963V200H317.293V183.344Z" fill="#263238"/>
<path d="M333.965 183.344H350.621L350.621 200H333.965L333.965 183.344Z" fill="#263238"/>
<path d="M350.621 183.344H367.291V200L350.621 200L350.621 183.344Z" fill="#263238"/>
<path d="M367.291 183.344H383.961V200H367.291V183.344Z" fill="#263238"/>
<path d="M383.961 183.344H400.631V200H383.961V183.344Z" fill="#263238"/>
<path d="M400.633 183.344H417.289V200H400.633V183.344Z" fill="#263238"/>
<path d="M417.287 183.344H433.957V200H417.287V183.344Z" fill="#263238"/>
<path d="M433.959 183.344H450.629V200H433.959V183.344Z" fill="#263238"/>
<path d="M450.629 183.344H467.299L467.299 200L450.629 200V183.344Z" fill="#263238"/>
<path d="M467.297 183.344H483.953V200H467.297V183.344Z" fill="#263238"/>
</svg>
