<svg width="401" height="187" viewBox="0 0 401 187" fill="none" xmlns="http://www.w3.org/2000/svg">
<path d="M400.012 160.348V173.667H386.681V160.348H400.012Z" fill="#CEE0E0"/>
<path d="M400.012 146.994V160.349H386.681V146.994H400.012Z" fill="#CEE0E0"/>
<path d="M400.012 133.666V146.997H386.681V133.666H400.012Z" fill="#CEE0E0"/>
<path d="M386.684 173.668V186.999H373.353V173.668H386.684Z" fill="#CEE0E0"/>
<path d="M386.684 160.348V173.667H373.353V160.348H386.684Z" fill="#CEE0E0"/>
<path d="M386.684 146.994V160.349H373.353V146.994H386.684Z" fill="#CEE0E0"/>
<path d="M386.684 133.666V146.997H373.353V133.666H386.684Z" fill="#F2F2F2"/>
<path d="M386.684 120.334V133.665H373.353V120.334H386.684Z" fill="white"/>
<path d="M373.353 173.668V186.999H360.033V173.668H373.353Z" fill="#CEE0E0"/>
<path d="M373.353 160.348V173.667H360.033V160.348H373.353Z" fill="#CEE0E0"/>
<path d="M373.353 146.994V160.349H360.033V146.994H373.353Z" fill="#F2F2F2"/>
<path d="M373.353 133.666V146.997H360.033V133.666H373.353Z" fill="#F2F2F2"/>
<path d="M373.353 120.334V133.665H360.033V120.334H373.353Z" fill="white"/>
<path d="M373.352 107V120.331H360.033V107H373.352Z" fill="white"/>
<path d="M373.352 93.6719V107.003H360.033V93.6719H373.352Z" fill="white"/>
<path d="M373.352 80.3184V93.6729H360.033V80.3184H373.352Z" fill="white"/>
<path d="M360.036 173.668V186.999H346.705V173.668H360.036Z" fill="#CEE0E0"/>
<path d="M360.036 160.348V173.667H346.705V160.348H360.036Z" fill="#CEE0E0"/>
<path d="M360.036 146.994V160.349H346.705V146.994H360.036Z" fill="#F2F2F2"/>
<path d="M360.036 133.666V146.997H346.705V133.666H360.036Z" fill="#F2F2F2"/>
<path d="M360.036 120.334V133.665H346.705V120.334H360.036Z" fill="#F2F2F2"/>
<path d="M360.036 107V120.331H346.705V107H360.036Z" fill="#F2F2F2"/>
<path d="M360.036 93.6719V107.003H346.705V93.6719H360.036Z" fill="#F2F2F2"/>
<path d="M360.036 80.3184V93.6729H346.705V80.3184H360.036Z" fill="white"/>
<path d="M360.036 67V80.3184H346.705V67H360.036Z" fill="white"/>
<path d="M346.705 160.348V173.667H333.351V160.348H346.705Z" fill="#CEE0E0"/>
<path d="M346.705 146.994V160.349H333.351V146.994H346.705Z" fill="#CEE0E0"/>
<path d="M346.705 133.666V146.997H333.351V133.666H346.705Z" fill="#F2F2F2"/>
<path d="M346.705 120.334V133.665H333.351V120.334H346.705Z" fill="#F2F2F2"/>
<path d="M346.705 107V120.331H333.351V107H346.705Z" fill="#F2F2F2"/>
<path d="M346.705 93.6719V107.003H333.351V93.6719H346.705Z" fill="#F2F2F2"/>
<path d="M346.705 80.3184V93.6729H333.351V80.3184H346.705Z" fill="#F2F2F2"/>
<path d="M346.705 67V80.3184H333.351V67H346.705Z" fill="white"/>
<path d="M333.345 173.668V186.999H320.014V173.668H333.345Z" fill="#CEE0E0"/>
<path d="M333.345 160.348V173.667H320.014V160.348H333.345Z" fill="#CEE0E0"/>
<path d="M333.345 146.994V160.349H320.014V146.994H333.345Z" fill="#CEE0E0"/>
<path d="M333.345 133.666V146.997H320.014V133.666H333.345Z" fill="#F2F2F2"/>
<path d="M333.345 120.334V133.665H320.014V120.334H333.345Z" fill="#F2F2F2"/>
<path d="M333.345 107V120.331H320.014V107H333.345Z" fill="#CEE0E0"/>
<path d="M333.345 93.6719V107.003H320.014V93.6719H333.345Z" fill="#CEE0E0"/>
<path d="M333.345 80.3184V93.6729H320.014V80.3184H333.345Z" fill="#F2F2F2"/>
<path d="M333.345 67V80.3184H320.014V67H333.345Z" fill="white"/>
<path d="M333.345 53.666V66.997H320.014V53.666H333.345Z" fill="white"/>
<path d="M320.017 173.668V186.999H306.686V173.668H320.017Z" fill="#CEE0E0"/>
<path d="M320.017 160.348V173.667H306.686V160.348H320.017Z" fill="#CEE0E0"/>
<path d="M320.017 146.994V160.349H306.686V146.994H320.017Z" fill="#CEE0E0"/>
<path d="M320.017 133.666V146.997H306.686V133.666H320.017Z" fill="#F2F2F2"/>
<path d="M320.017 120.334V133.665H306.686V120.334H320.017Z" fill="#F2F2F2"/>
<path d="M320.017 107V120.331H306.686V107H320.017Z" fill="#CEE0E0"/>
<path d="M320.017 93.6719V107.003H306.686V93.6719H320.017Z" fill="#F2F2F2"/>
<path d="M320.017 80.3184V93.6729H306.686V80.3184H320.017Z" fill="#F2F2F2"/>
<path d="M320.017 67V80.3184H306.686V67H320.017Z" fill="#F2F2F2"/>
<path d="M320.017 53.666V66.997H306.686V53.666H320.017Z" fill="white"/>
<path d="M306.686 173.668V186.999H293.366V173.668H306.686Z" fill="#CEE0E0"/>
<path d="M306.686 160.348V173.667H293.366V160.348H306.686Z" fill="#CEE0E0"/>
<path d="M306.686 146.994V160.349H293.366V146.994H306.686Z" fill="#CEE0E0"/>
<path d="M306.686 133.666V146.997H293.366V133.666H306.686Z" fill="#CEE0E0"/>
<path d="M306.686 120.334V133.665H293.366V120.334H306.686Z" fill="#CEE0E0"/>
<path d="M306.686 107V120.331H293.366V107H306.686Z" fill="#CEE0E0"/>
<path d="M306.686 93.6719V107.003H293.366V93.6719H306.686Z" fill="#CEE0E0"/>
<path d="M306.686 80.3184V93.6729H293.366V80.3184H306.686Z" fill="#F2F2F2"/>
<path d="M306.686 67V80.3184H293.366L293.366 67H306.686Z" fill="#F2F2F2"/>
<path d="M306.686 53.666V66.997H293.366V53.666H306.686Z" fill="white"/>
<path d="M293.369 173.668V186.999H280.038V173.668H293.369Z" fill="#CEE0E0"/>
<path d="M293.369 160.348V173.667H280.038V160.348H293.369Z" fill="#CEE0E0"/>
<path d="M293.369 146.994V160.349H280.038V146.994H293.369Z" fill="#CEE0E0"/>
<path d="M293.369 133.666V146.997H280.038V133.666H293.369Z" fill="#CEE0E0"/>
<path d="M293.369 120.334V133.665H280.038V120.334H293.369Z" fill="#CEE0E0"/>
<path d="M293.369 107V120.331H280.038V107H293.369Z" fill="#F2F2F2"/>
<path d="M293.369 93.6719V107.003H280.038V93.6719H293.369Z" fill="#CEE0E0"/>
<path d="M293.369 80.3184V93.6729H280.038V80.3184H293.369Z" fill="#F2F2F2"/>
<path d="M293.369 67V80.3184H280.038V67H293.369Z" fill="#F2F2F2"/>
<path d="M293.369 53.666V66.997H280.038V53.666H293.369Z" fill="white"/>
<path d="M293.369 40.334V53.665H280.038V40.334H293.369Z" fill="white"/>
<path d="M280.038 173.668V186.999H266.684V173.668H280.038Z" fill="#CEE0E0"/>
<path d="M280.038 160.348V173.667H266.684V160.348H280.038Z" fill="#CEE0E0"/>
<path d="M280.038 146.994V160.349H266.684V146.994H280.038Z" fill="#CEE0E0"/>
<path d="M280.038 133.666V146.997H266.684V133.666H280.038Z" fill="#CEE0E0"/>
<path d="M280.038 120.334V133.665H266.684V120.334H280.038Z" fill="#F2F2F2"/>
<path d="M280.038 107V120.331H266.684V107H280.038Z" fill="#F2F2F2"/>
<path d="M280.038 93.6719V107.003H266.684V93.6719H280.038Z" fill="#F2F2F2"/>
<path d="M280.038 80.3184V93.6729H266.684V80.3184H280.038Z" fill="#F2F2F2"/>
<path d="M280.038 67V80.3184H266.684V67H280.038Z" fill="#F2F2F2"/>
<path d="M280.038 53.666V66.997H266.684V53.666H280.038Z" fill="#F2F2F2"/>
<path d="M280.038 40.334V53.665H266.684V40.334H280.038Z" fill="white"/>
<path d="M280.038 27.0059V40.3368H266.684V27.0059H280.038Z" fill="white"/>
<path d="M280.038 13.6523V27.0069H266.684V13.6523H280.038Z" fill="white"/>
<path d="M266.678 160.348V173.667H253.347V160.348H266.678Z" fill="#CEE0E0"/>
<path d="M266.678 146.994V160.349H253.347V146.994H266.678Z" fill="#CEE0E0"/>
<path d="M266.678 133.666V146.997H253.347V133.666H266.678Z" fill="#F2F2F2"/>
<path d="M266.678 120.334V133.665H253.347V120.334H266.678Z" fill="#F2F2F2"/>
<path d="M266.678 107V120.331H253.347V107H266.678Z" fill="#F2F2F2"/>
<path d="M266.678 93.6719V107.003H253.347V93.6719H266.678Z" fill="#F2F2F2"/>
<path d="M266.678 80.3184V93.6729H253.347V80.3184H266.678Z" fill="#F2F2F2"/>
<path d="M266.678 67V80.3184H253.347V67H266.678Z" fill="#F2F2F2"/>
<path d="M266.678 53.666V66.997H253.347V53.666H266.678Z" fill="#F2F2F2"/>
<path d="M266.678 40.334V53.665H253.347V40.334H266.678Z" fill="#F2F2F2"/>
<path d="M266.678 27.0059V40.3368H253.347V27.0059H266.678Z" fill="#F2F2F2"/>
<path d="M266.678 13.6523V27.0069H253.347V13.6523H266.678Z" fill="white"/>
<path d="M266.678 0.332031V13.6512H253.347V0.332031H266.678Z" fill="white"/>
<path d="M253.35 160.348V173.667H240.019V160.348H253.35Z" fill="#CEE0E0"/>
<path d="M253.35 146.994V160.349H240.019V146.994H253.35Z" fill="#CEE0E0"/>
<path d="M253.35 133.666V146.997H240.019V133.666H253.35Z" fill="#F2F2F2"/>
<path d="M253.35 120.334V133.665H240.019V120.334H253.35Z" fill="#F2F2F2"/>
<path d="M253.35 107V120.331H240.019V107H253.35Z" fill="white"/>
<path d="M253.35 93.6719V107.003H240.019V93.6719H253.35Z" fill="white"/>
<path d="M253.35 80.3184V93.6729H240.019V80.3184H253.35Z" fill="white"/>
<path d="M253.35 67V80.3184H240.019V67H253.35Z" fill="#F2F2F2"/>
<path d="M253.35 53.666V66.997H240.019V53.666H253.35Z" fill="#F2F2F2"/>
<path d="M253.35 40.334V53.665H240.019V40.334H253.35Z" fill="#F2F2F2"/>
<path d="M253.35 27.0059V40.3368H240.019V27.0059H253.35Z" fill="#F2F2F2"/>
<path d="M253.35 13.6523V27.0069H240.019V13.6523H253.35Z" fill="#F2F2F2"/>
<path d="M253.35 0.332031V13.6512H240.019V0.332031H253.35Z" fill="white"/>
<path d="M240.019 160.348V173.667H226.7V160.348H240.019Z" fill="#CEE0E0"/>
<path d="M240.019 146.994V160.349H226.7V146.994H240.019Z" fill="#F2F2F2"/>
<path d="M240.019 133.666V146.997H226.7V133.666H240.019Z" fill="#F2F2F2"/>
<path d="M240.019 120.334V133.665H226.7V120.334H240.019Z" fill="#F2F2F2"/>
<path d="M240.019 107V120.331H226.7V107H240.019Z" fill="white"/>
<path d="M240.019 93.6719V107.003H226.7V93.6719H240.019Z" fill="white"/>
<path d="M240.019 80.3184V93.6729H226.7V80.3184H240.019Z" fill="white"/>
<path d="M240.019 67L240.019 80.3192L226.7 80.3184V67H240.019Z" fill="#F2F2F2"/>
<path d="M240.019 53.666V66.997H226.7V53.666H240.019Z" fill="#F2F2F2"/>
<path d="M240.019 40.334V53.665H226.7V40.334H240.019Z" fill="#F2F2F2"/>
<path d="M240.019 27.0059V40.3368H226.7V27.0059H240.019Z" fill="#F2F2F2"/>
<path d="M240.019 13.6523V27.0069H226.7V13.6523H240.019Z" fill="#F2F2F2"/>
<path d="M240.019 0.332031V13.6512H226.7V0.332031H240.019Z" fill="white"/>
<path d="M226.703 160.348V173.667H213.372V160.348H226.703Z" fill="#CEE0E0"/>
<path d="M226.703 146.994V160.349H213.372V146.994H226.703Z" fill="#F2F2F2"/>
<path d="M226.703 133.666V146.997H213.372V133.666H226.703Z" fill="#F2F2F2"/>
<path d="M226.703 120.334V133.665H213.372V120.334H226.703Z" fill="#F2F2F2"/>
<path d="M226.703 107V120.331H213.372V107H226.703Z" fill="white"/>
<path d="M226.703 93.6719V107.003H213.372V93.6719H226.703Z" fill="white"/>
<path d="M226.703 80.3184V93.6729H213.372V80.3184H226.703Z" fill="#F2F2F2"/>
<path d="M226.703 67V80.3184H213.372V67H226.703Z" fill="#F2F2F2"/>
<path d="M226.703 53.666V66.997H213.372V53.666H226.703Z" fill="#F2F2F2"/>
<path d="M226.703 40.334V53.665H213.372V40.334H226.703Z" fill="white"/>
<path d="M226.703 27.0059V40.3368H213.372V27.0059H226.703Z" fill="white"/>
<path d="M226.703 13.6523V27.0069H213.372V13.6523H226.703Z" fill="#F2F2F2"/>
<path d="M226.703 0.332031V13.6512H213.372V0.332031H226.703Z" fill="#F2F2F2"/>
<path d="M213.372 160.348V173.667H200.018V160.348H213.372Z" fill="#CEE0E0"/>
<path d="M213.372 146.994V160.349H200.018V146.994H213.372Z" fill="#CEE0E0"/>
<path d="M213.372 133.666V146.997H200.018V133.666H213.372Z" fill="#F2F2F2"/>
<path d="M213.372 120.334V133.665H200.018V120.334H213.372Z" fill="#F2F2F2"/>
<path d="M213.372 107V120.331H200.018V107H213.372Z" fill="#F2F2F2"/>
<path d="M213.372 93.6719V107.003H200.018V93.6719H213.372Z" fill="#F2F2F2"/>
<path d="M213.372 80.3184V93.6729H200.018V80.3184H213.372Z" fill="#F2F2F2"/>
<path d="M213.372 67V80.3184H200.018V67H213.372Z" fill="#CEE0E0"/>
<path d="M213.372 53.666V66.997H200.018V53.666H213.372Z" fill="#F2F2F2"/>
<path d="M213.372 40.334V53.665H200.018V40.334H213.372Z" fill="white"/>
<path d="M213.372 27.0059V40.3368H200.018V27.0059H213.372Z" fill="white"/>
<path d="M213.372 13.6523V27.0069H200.018V13.6523H213.372Z" fill="#F2F2F2"/>
<path d="M213.372 0.332031V13.6512H200.018V0.332031H213.372Z" fill="#F2F2F2"/>
<path d="M200.012 160.348V173.667H186.681V160.348H200.012Z" fill="#CEE0E0"/>
<path d="M200.012 146.994V160.349H186.681V146.994H200.012Z" fill="#CEE0E0"/>
<path d="M200.012 133.666V146.997H186.681V133.666H200.012Z" fill="#F2F2F2"/>
<path d="M200.012 120.334V133.665H186.681V120.334H200.012Z" fill="#F2F2F2"/>
<path d="M200.012 107V120.331H186.681V107H200.012Z" fill="#F2F2F2"/>
<path d="M200.012 93.6719V107.003H186.681V93.6719H200.012Z" fill="#F2F2F2"/>
<path d="M200.012 80.3184V93.6729H186.681V80.3184H200.012Z" fill="#CEE0E0"/>
<path d="M200.012 67V80.3184H186.681V67H200.012Z" fill="#CEE0E0"/>
<path d="M200.012 53.666V66.997H186.681V53.666H200.012Z" fill="#F2F2F2"/>
<path d="M200.012 40.334V53.665H186.681V40.334H200.012Z" fill="#F2F2F2"/>
<path d="M200.012 27.0059V40.3368H186.681V27.0059H200.012Z" fill="#F2F2F2"/>
<path d="M200.012 13.6523V27.0069H186.681V13.6523H200.012Z" fill="#F2F2F2"/>
<path d="M200.012 0.332031V13.6512H186.681V0.332031H200.012Z" fill="white"/>
<path d="M186.684 160.348V173.667H173.353V160.348H186.684Z" fill="#CEE0E0"/>
<path d="M186.684 146.994V160.349H173.353V146.994H186.684Z" fill="#CEE0E0"/>
<path d="M186.684 133.666V146.997H173.353V133.666H186.684Z" fill="#F2F2F2"/>
<path d="M186.684 120.334V133.665H173.353V120.334H186.684Z" fill="#F2F2F2"/>
<path d="M186.684 107V120.331H173.353V107H186.684Z" fill="#F2F2F2"/>
<path d="M186.684 93.6719V107.003H173.353V93.6719H186.684Z" fill="#CEE0E0"/>
<path d="M186.683 80.3184V93.6729H173.352V80.3184H186.683Z" fill="#CEE0E0"/>
<path d="M186.684 67L186.683 80.3184H173.352L173.353 67H186.684Z" fill="#F2F2F2"/>
<path d="M186.684 53.666V66.997H173.353V53.666H186.684Z" fill="#F2F2F2"/>
<path d="M186.683 40.334V53.665H173.352V40.334H186.683Z" fill="#F2F2F2"/>
<path d="M186.684 27.0059V40.3368H173.353V27.0059H186.684Z" fill="#F2F2F2"/>
<path d="M186.684 13.6523V27.0069H173.353V13.6523H186.684Z" fill="white"/>
<path d="M186.684 0.332031V13.6512H173.353V0.332031H186.684Z" fill="white"/>
<path d="M173.353 160.348V173.667H160.033V160.348H173.353Z" fill="#CEE0E0"/>
<path d="M173.353 146.994V160.349H160.033V146.994H173.353Z" fill="#CEE0E0"/>
<path d="M173.353 133.666V146.997H160.033V133.666H173.353Z" fill="#CEE0E0"/>
<path d="M173.353 120.334V133.665H160.033V120.334H173.353Z" fill="#CEE0E0"/>
<path d="M173.353 107V120.331H160.033V107H173.353Z" fill="#CEE0E0"/>
<path d="M173.353 93.6719V107.003H160.033V93.6719H173.353Z" fill="#CEE0E0"/>
<path d="M173.352 80.3184V93.6729H160.033V80.3184H173.352Z" fill="#CEE0E0"/>
<path d="M173.353 67L173.352 80.3184H160.033V67H173.353Z" fill="#F2F2F2"/>
<path d="M173.353 53.666V66.997H160.033V53.666H173.353Z" fill="#F2F2F2"/>
<path d="M173.352 40.334V53.665H160.033V40.334H173.352Z" fill="#F2F2F2"/>
<path d="M173.353 27.0059V40.3368H160.033V27.0059H173.353Z" fill="#F2F2F2"/>
<path d="M173.353 13.6523V27.0069H160.033V13.6523H173.353Z" fill="white"/>
<path d="M160.036 160.348V173.667H146.705V160.348H160.036Z" fill="#CEE0E0"/>
<path d="M160.036 146.994V160.349H146.705V146.994H160.036Z" fill="#CEE0E0"/>
<path d="M160.036 133.666V146.997H146.705V133.666H160.036Z" fill="#CEE0E0"/>
<path d="M160.036 120.334V133.665H146.705V120.334H160.036Z" fill="#CEE0E0"/>
<path d="M160.036 107V120.331H146.705V107H160.036Z" fill="#CEE0E0"/>
<path d="M160.036 93.6719V107.003H146.705V93.6719H160.036Z" fill="#CEE0E0"/>
<path d="M160.036 80.3184V93.6729H146.705V80.3184H160.036Z" fill="#CEE0E0"/>
<path d="M160.036 67V80.3184H146.705V67H160.036Z" fill="#F2F2F2"/>
<path d="M160.036 53.666V66.997H146.705V53.666H160.036Z" fill="#F2F2F2"/>
<path d="M160.036 40.334V53.665H146.705V40.334H160.036Z" fill="#F2F2F2"/>
<path d="M160.036 27.0059V40.3368H146.705V27.0059H160.036Z" fill="white"/>
<path d="M160.036 13.6523V27.0069H146.705V13.6523H160.036Z" fill="white"/>
<path d="M146.705 160.348V173.667H133.351V160.348H146.705Z" fill="#CEE0E0"/>
<path d="M146.705 146.994V160.349H133.351V146.994H146.705Z" fill="#CEE0E0"/>
<path d="M146.705 133.666V146.997H133.351V133.666H146.705Z" fill="#CEE0E0"/>
<path d="M146.705 120.334V133.665H133.351V120.334H146.705Z" fill="#CEE0E0"/>
<path d="M146.705 107V120.331H133.351V107H146.705Z" fill="#F2F2F2"/>
<path d="M146.705 93.6719V107.003H133.351V93.6719H146.705Z" fill="#F2F2F2"/>
<path d="M146.705 80.3184V93.6729H133.351V80.3184H146.705Z" fill="#CEE0E0"/>
<path d="M146.705 67V80.3184H133.351V67H146.705Z" fill="#CEE0E0"/>
<path d="M146.705 53.666V66.997H133.351V53.666H146.705Z" fill="#F2F2F2"/>
<path d="M146.705 40.334V53.665H133.351V40.334H146.705Z" fill="white"/>
<path d="M133.345 173.668V186.999H120.014V173.668H133.345Z" fill="#CEE0E0"/>
<path d="M133.345 160.348V173.667H120.014V160.348H133.345Z" fill="#CEE0E0"/>
<path d="M133.345 146.994V160.349H120.014V146.994H133.345Z" fill="#CEE0E0"/>
<path d="M133.345 133.666V146.997H120.014V133.666H133.345Z" fill="#F2F2F2"/>
<path d="M133.345 120.334V133.665H120.014V120.334H133.345Z" fill="#F2F2F2"/>
<path d="M133.345 107V120.331H120.014V107H133.345Z" fill="#F2F2F2"/>
<path d="M133.345 93.6719V107.003H120.014V93.6719H133.345Z" fill="#F2F2F2"/>
<path d="M133.345 80.3184V93.6729H120.014V80.3184H133.345Z" fill="#F2F2F2"/>
<path d="M133.345 67V80.3184H120.014V67H133.345Z" fill="white"/>
<path d="M133.345 53.666V66.997H120.014V53.666H133.345Z" fill="white"/>
<path d="M120.017 173.668V186.999H106.686V173.668H120.017Z" fill="#CEE0E0"/>
<path d="M120.017 160.348V173.667H106.686V160.348H120.017Z" fill="#CEE0E0"/>
<path d="M120.017 146.994V160.349H106.686V146.994H120.017Z" fill="#F2F2F2"/>
<path d="M120.017 133.666V146.997H106.686V133.666H120.017Z" fill="#F2F2F2"/>
<path d="M120.017 120.334V133.665H106.686V120.334H120.017Z" fill="#F2F2F2"/>
<path d="M120.017 107V120.331H106.686V107H120.017Z" fill="#F2F2F2"/>
<path d="M120.017 93.6719V107.003H106.686V93.6719H120.017Z" fill="#F2F2F2"/>
<path d="M120.017 80.3184V93.6729H106.686V80.3184H120.017Z" fill="white"/>
<path d="M120.017 67V80.3184H106.686V67H120.017Z" fill="white"/>
<path d="M106.688 173.668V186.999H93.3574V173.668H106.688Z" fill="#CEE0E0"/>
<path d="M106.688 160.348V173.667H93.3574V160.348H106.688Z" fill="#CEE0E0"/>
<path d="M106.688 146.994V160.349H93.3574V146.994H106.688Z" fill="#F2F2F2"/>
<path d="M106.688 133.666V146.997H93.3574V133.666H106.688Z" fill="#F2F2F2"/>
<path d="M106.688 120.334V133.665H93.3574V120.334H106.688Z" fill="#F2F2F2"/>
<path d="M106.688 107V120.331H93.3574V107H106.688Z" fill="#F2F2F2"/>
<path d="M106.688 93.6719V107.003H93.3574V93.6719H106.688Z" fill="white"/>
<path d="M106.689 80.3184V93.6729H93.3577V80.3184H106.689Z" fill="white"/>
<path d="M93.3574 173.668V186.999H80.0381V173.668H93.3574Z" fill="#CEE0E0"/>
<path d="M93.3574 160.348V173.667H80.0381V160.348H93.3574Z" fill="#F2F2F2"/>
<path d="M93.3574 146.994V160.349H80.0381V146.994H93.3574Z" fill="#F2F2F2"/>
<path d="M93.3574 133.666V146.997H80.0381V133.666H93.3574Z" fill="#F2F2F2"/>
<path d="M93.3574 120.334V133.665H80.0381V120.334H93.3574Z" fill="white"/>
<path d="M93.3574 107V120.331H80.0381V107H93.3574Z" fill="white"/>
<path d="M93.3574 93.6719V107.003H80.0381V93.6719H93.3574Z" fill="white"/>
<path d="M80.0381 173.668V186.999H66.6836V173.668H80.0381Z" fill="#CEE0E0"/>
<path d="M80.0381 160.348V173.667H66.6836V160.348H80.0381Z" fill="#F2F2F2"/>
<path d="M80.0381 146.994V160.349H66.6836V146.994H80.0381Z" fill="#F2F2F2"/>
<path d="M80.0381 133.666V146.997H66.6836V133.666H80.0381Z" fill="#F2F2F2"/>
<path d="M80.0381 120.334V133.665H66.6836V120.334H80.0381Z" fill="white"/>
<path d="M66.6777 173.668V186.999H53.3467V173.668H66.6777Z" fill="#CEE0E0"/>
<path d="M66.6777 160.348V173.667H53.3467V160.348H66.6777Z" fill="#F2F2F2"/>
<path d="M66.6777 146.994V160.349H53.3467V146.994H66.6777Z" fill="#F2F2F2"/>
<path d="M66.6777 133.666V146.997H53.3467V133.666H66.6777Z" fill="#F2F2F2"/>
<path d="M66.6777 120.334V133.665H53.3467V120.334H66.6777Z" fill="white"/>
<path d="M66.6777 107V120.331H53.3467V107H66.6777Z" fill="white"/>
<path d="M53.3495 173.668V186.999H40.0186V173.668H53.3495Z" fill="#CEE0E0"/>
<path d="M53.3495 160.348V173.667H40.0186V160.348H53.3495Z" fill="#F2F2F2"/>
<path d="M53.3495 146.994V160.349H40.0186V146.994H53.3495Z" fill="#F2F2F2"/>
<path d="M53.3495 133.666V146.997H40.0186V133.666H53.3495Z" fill="#F2F2F2"/>
<path d="M53.3495 120.334V133.665H40.0186V120.334H53.3495Z" fill="#F2F2F2"/>
<path d="M53.3495 107V120.331H40.0186V107H53.3495Z" fill="white"/>
<path d="M40.0224 173.668V186.999H26.6914V173.668H40.0224Z" fill="#CEE0E0"/>
<path d="M40.0224 160.348V173.667H26.6914V160.348H40.0224Z" fill="#CEE0E0"/>
<path d="M40.0224 146.994V160.349H26.6914V146.994H40.0224Z" fill="#F2F2F2"/>
<path d="M40.0224 133.666V146.997H26.6914V133.666H40.0224Z" fill="#F2F2F2"/>
<path d="M40.0224 120.334V133.665H26.6914V120.334H40.0224Z" fill="#F2F2F2"/>
<path d="M40.0224 107V120.331H26.6914V107H40.0224Z" fill="white"/>
<path d="M26.6855 173.668V186.999H13.3545V173.668H26.6855Z" fill="#CEE0E0"/>
<path d="M26.6855 160.348V173.667H13.3545V160.348H26.6855Z" fill="#CEE0E0"/>
<path d="M26.6855 146.994V160.349H13.3545V146.994H26.6855Z" fill="#CEE0E0"/>
<path d="M26.6855 133.666V146.997H13.3545V133.666H26.6855Z" fill="#F2F2F2"/>
<path d="M26.6855 120.334V133.665H13.3545V120.334H26.6855Z" fill="#F2F2F2"/>
<path d="M26.6855 107V120.331H13.3545V107H26.6855Z" fill="#F2F2F2"/>
<path d="M13.3545 160.348V173.667H0V160.348H13.3545Z" fill="#F2F2F2"/>
<path d="M13.3545 146.994V160.349H0V146.994H13.3545Z" fill="#F2F2F2"/>
<path d="M13.3545 133.666V146.997H0V133.666H13.3545Z" fill="#F2F2F2"/>
<path d="M13.3545 120.334V133.665H0V120.334H13.3545Z" fill="#F2F2F2"/>
</svg>
