<svg width="138" height="198" viewBox="0 0 138 198" fill="none" xmlns="http://www.w3.org/2000/svg">
<path d="M122.302 30.4375H107.089V15.224H91.875V0H31.0052V15.224H15.7917V30.4375H0.578125V152.146H15.7917V167.359H31.0052V182.573H46.2188V197.786H107.089V182.573H122.302V167.359H137.516V106.505H122.302V76.0781H137.516V45.651H122.302V30.4375Z" fill="#040606"/>
<path d="M91.8763 15.2236H31.0065V30.4372H15.793V152.146H31.0065V167.359H91.8763V152.146H107.09V91.2913H61.4336V106.505H76.6628V136.932H46.2201V45.6507H76.6628V60.8643H107.09V30.4372H91.8763V15.2236Z" fill="#EDD922"/>
<path d="M31.0065 76.0781H15.793V60.8646H31.0065V76.0781ZM31.0065 45.651H15.793V30.4372H31.0065V45.651Z" fill="#F6F4A6"/>
<path d="M91.8737 30.4372H31.0039V15.2236H91.8737V30.4372Z" fill="#F6F4A6"/>
<path d="M15.793 121.718H31.0065V106.505H15.793V121.718Z" fill="#F47427"/>
<path d="M31.0039 136.932H46.2174V121.719H31.0039V136.932Z" fill="#F47427"/>
<path d="M76.6628 167.359H61.4336V152.145H46.2201V136.932L61.4336 136.932V152.145H76.6628V167.359ZM46.2201 167.359L31.0065 167.359V152.146L46.2201 152.145V167.359ZM91.8763 152.146L76.6628 152.145V136.932L91.8763 136.932V152.146ZM31.0065 152.146H15.793V136.932H31.0065V152.146Z" fill="#F47427"/>
<path d="M76.6602 167.359H91.8737V152.146H76.6602V167.359Z" fill="#F1452F"/>
<path d="M46.2188 167.359H61.4323V152.146H46.2188V167.359Z" fill="#F1452F"/>
<path d="M76.6602 121.718H91.8737V106.505H76.6602V121.718Z" fill="#F47427"/>
<path d="M91.875 136.932H107.089V121.719H91.875V136.932Z" fill="#F47427"/>
</svg>
