<svg width="138" height="198" viewBox="0 0 138 198" fill="none" xmlns="http://www.w3.org/2000/svg">
<path d="M122.708 15.2135H107.495V0H31.4115V15.2135H16.1979V30.4271H0.984375V91.2812H16.1979V106.495H31.4115V121.708H16.1979V136.922H0.984375V167.349H16.1979V182.562H31.4115V197.786H107.495V182.562H122.708V167.349H137.922V106.495H122.708V91.2812H107.495V76.0677H122.708V60.8542H137.922V30.4271H122.708V15.2135Z" fill="#040606"/>
<path d="M31.4128 15.2129V30.4264H16.1992V91.2806H31.4128V106.494H77.0534V136.921H16.1992V167.348H92.2826V152.135H107.496V91.2806H92.2826V76.0671H46.6263V45.64H107.496V15.2129H31.4128Z" fill="#EDD922"/>
<path d="M16.1992 76.0671H31.4128V60.8535H16.1992V76.0671Z" fill="#F6F4A6"/>
<path d="M16.1992 45.6393H31.4128V30.4264H16.1992V45.6393Z" fill="#F6F4A6"/>
<path d="M107.497 30.4264H31.4141V15.2285H107.497V30.4264Z" fill="#F6F4A6"/>
<path d="M77.0534 167.349H61.8398V152.135H46.6263V167.349H31.4128V152.135H16.1992V167.348V136.921L31.4128 136.922V152.135H46.6263V136.922H61.8398V152.135H77.0534V136.921L92.2826 136.922V152.135L77.0534 152.135V167.349Z" fill="#F47427"/>
<path d="M77.0547 121.708H92.2839V106.494H77.0547V121.708Z" fill="#F47427"/>
<path d="M92.2812 136.921H107.495V121.707H92.2812V136.921Z" fill="#F47427"/>
<path d="M77.0547 167.348H92.2839V152.135H77.0547V167.348Z" fill="#F1452F"/>
<path d="M46.625 167.348H61.8385V152.135H46.625V167.348Z" fill="#F1452F"/>
<path d="M16.1992 167.348L31.4128 167.349V152.135H16.1992V167.348Z" fill="#F1452F"/>
</svg>
