<svg width="137" height="198" viewBox="0 0 137 198" fill="none" xmlns="http://www.w3.org/2000/svg">
<path d="M121.771 30.4271H106.557V15.2135H91.3438V0H30.474V15.2135H15.2604V30.4271H0.046875V167.349H15.2604V182.562H30.474V197.786H60.901V182.562H91.3438V197.786H121.771V182.562H136.984V136.922H121.771V121.708H136.984V45.6406H121.771V30.4271Z" fill="#040606"/>
<path d="M76.112 91.2806H45.6849V45.64H76.112V91.2806ZM91.3411 15.2129H30.4714V30.4264H15.2578V167.348H45.6849V121.708H60.8984V136.921H76.112V167.348H106.555V121.708H91.3411V106.494H106.555V30.4264H91.3411V15.2129Z" fill="#EDD922"/>
<path d="M15.2578 76.0671H30.4714V60.8535H15.2578V76.0671Z" fill="#F6F4A6"/>
<path d="M15.2578 45.6393H30.4714V30.4264H15.2578V45.6393Z" fill="#F6F4A6"/>
<path d="M91.3425 30.4264H30.4727V15.2285H91.3425V30.4264Z" fill="#F6F4A6"/>
<path d="M45.6849 167.348L30.4714 167.349V152.135H15.2578V167.348V136.922H30.4714V152.135H45.6849V167.348Z" fill="#F47427"/>
<path d="M15.2578 121.708H30.4714V106.494H15.2578V121.708Z" fill="#F47427"/>
<path d="M30.4727 136.921H45.6862V121.707H30.4727V136.921Z" fill="#F47427"/>
<path d="M45.6875 121.708H60.901V106.494H45.6875V121.708Z" fill="#F47427"/>
<path d="M60.8984 136.921H76.112L76.112 121.707L60.8984 121.708V136.921Z" fill="#F47427"/>
<path d="M106.556 167.349H91.3424V152.135H76.1133V167.349V136.922H91.3424V152.135H106.556V167.349Z" fill="#F47427"/>
<path d="M76.1133 121.708H91.3424V106.494H76.1133V121.708Z" fill="#F47427"/>
<path d="M91.3438 136.921H106.557V121.707H91.3438V136.921Z" fill="#F47427"/>
<path d="M76.1133 167.349H91.3424V152.135H76.1133V167.349Z" fill="#F1452F"/>
<path d="M15.2578 167.348L30.4714 167.349V152.135H15.2578V167.348Z" fill="#F1452F"/>
</svg>
