<svg width="138" height="198" viewBox="0 0 138 198" fill="none" xmlns="http://www.w3.org/2000/svg">
<path d="M122.616 15.2135H107.402V0H76.9753V15.2135H46.5482V0H16.1159V15.2135H0.902344V167.349H16.1159V182.562H31.3294V197.786H61.7617V182.562H92.1888V197.786H122.616V182.562H137.829V121.708H122.616V106.495H107.402V91.2812H122.616V76.0677H137.829V30.4271H122.616V15.2135Z" fill="#040606"/>
<path d="M76.9766 15.2129V45.64H61.763V60.8535H46.5495V15.2129H16.1172V167.348H46.5495V106.494H61.763V121.708H76.9766V167.348H107.404V106.494H92.1901V91.2806H76.9766V76.0671H92.1901V60.8535H107.404V15.2129H76.9766Z" fill="#EDD922"/>
<path d="M16.1172 76.0671H31.3307V60.8535H16.1172V76.0671Z" fill="#F6F4A6"/>
<path d="M31.3307 45.64H16.1172V15.2129H46.5495V30.4264H31.3307V45.64Z" fill="#F6F4A6"/>
<path d="M107.404 30.4264H76.9766V15.2129H107.404V30.4264Z" fill="#F6F4A6"/>
<path d="M46.5495 167.348L31.3307 167.349V152.135H16.1172V167.348V136.922H31.3307V152.135H46.5495V167.348Z" fill="#F47427"/>
<path d="M16.1172 121.708H31.3307V106.494H16.1172V121.708Z" fill="#F47427"/>
<path d="M31.332 136.921H46.5508V121.707H31.332V136.921Z" fill="#F47427"/>
<path d="M107.404 167.348L92.1901 167.349V152.135H76.9766V167.348V136.922H92.1901V152.135H107.404V167.348Z" fill="#F47427"/>
<path d="M76.9766 121.708L92.1901 121.708L92.1901 106.494H76.9766V121.708Z" fill="#F47427"/>
<path d="M92.1914 136.921H107.405V121.707H92.1914V136.921Z" fill="#F47427"/>
<path d="M76.9766 167.348L92.1901 167.349V152.135H76.9766V167.348Z" fill="#F1452F"/>
<path d="M16.1172 167.348L31.3307 167.349V152.135H16.1172V167.348Z" fill="#F1452F"/>
</svg>
