<svg width="138" height="198" viewBox="0 0 138 198" fill="none" xmlns="http://www.w3.org/2000/svg">
<path d="M122.689 15.224H107.475V0H61.819V15.224H46.6055V30.4375H61.819V106.505H46.6055V91.2917H16.1784V106.505H0.964844V152.146H16.1784V167.359H31.3919V182.573H46.6055V197.786H107.475V182.573H122.689V167.359H137.902V30.4375H122.689V15.224Z" fill="#040606"/>
<path d="M61.8203 15.2236V30.4372H77.0495V136.932H46.6068V106.505H16.1797V152.146H31.3932V167.359H92.263V152.146H107.477V15.2236H61.8203Z" fill="#EDD922"/>
<path d="M16.1797 121.718H31.3932V106.505H16.1797V121.718Z" fill="#F47427"/>
<path d="M31.3906 136.932H46.6042V121.719H31.3906V136.932Z" fill="#F47427"/>
<path d="M77.0495 167.359H61.8203V152.145H46.6068V167.359L31.3932 167.359V152.146H16.1797V136.932H31.3932V152.146L46.6068 152.145V136.932L61.8203 136.932V152.145H77.0495V136.932L92.263 136.932V152.146L77.0495 152.145V167.359Z" fill="#F47427"/>
<path d="M77.0469 121.718H92.2604V106.505H77.0469V121.718Z" fill="#F47427"/>
<path d="M92.2617 136.932H107.475V121.719H92.2617V136.932Z" fill="#F47427"/>
<path d="M77.0469 167.359H92.2604V152.146H77.0469V167.359Z" fill="#F1452F"/>
<path d="M46.6055 167.359H61.819V152.146H46.6055V167.359Z" fill="#F1452F"/>
<path d="M107.477 30.4372H61.8203V15.2236H107.477V30.4372Z" fill="#F6F4A6"/>
</svg>
