<svg width="138" height="198" viewBox="0 0 138 198" fill="none" xmlns="http://www.w3.org/2000/svg">
<path d="M121.823 15.2135H106.609V0H76.1823V15.2135H45.75V0H15.3229V15.2135H0.109375V167.349H15.3229V182.562H30.5365V197.786H60.9688V182.562H91.3958V197.786H121.823V182.562H137.036V30.4271H121.823V15.2135Z" fill="#040606"/>
<path d="M76.1836 15.2129V76.0671H60.9701V45.64H45.7513V15.2129H15.3242V167.348H45.7513V106.494H60.9701V136.921H76.1836V167.348H106.611V15.2129H76.1836Z" fill="#EDD922"/>
<path d="M30.5378 76.0671H15.3242V60.8535H30.5378V76.0671ZM30.5378 45.64H15.3242V15.2129H45.7513V30.4264H30.5378V45.64ZM106.611 30.4264H76.1836V15.2129H106.611V30.4264Z" fill="#F6F4A6"/>
<path d="M45.7513 167.348L30.5378 167.349V152.135H15.3242V167.348V136.922H30.5378V152.135H45.7513V167.348Z" fill="#F47427"/>
<path d="M15.3242 121.708H30.5378V106.494H15.3242V121.708Z" fill="#F47427"/>
<path d="M30.5391 136.921H45.7526V121.707H30.5391V136.921Z" fill="#F47427"/>
<path d="M60.9688 136.921H76.1823V121.707H60.9688V136.921Z" fill="#F47427"/>
<path d="M106.611 167.348L91.3971 167.349V152.135H76.1836V167.348V136.921L91.3971 136.922V152.135H106.611V167.348Z" fill="#F47427"/>
<path d="M76.1836 121.708H91.3971V106.494H76.1836V121.708Z" fill="#F47427"/>
<path d="M91.3984 136.921H106.612V121.707H91.3984V136.921Z" fill="#F47427"/>
<path d="M76.1836 167.348L91.3971 167.349V152.135H76.1836V167.348Z" fill="#F1452F"/>
<path d="M15.3242 167.348L30.5378 167.349V152.135H15.3242V167.348Z" fill="#F1452F"/>
</svg>
