<svg width="137" height="198" viewBox="0 0 137 198" fill="none" xmlns="http://www.w3.org/2000/svg">
<path d="M121.759 30.4271H106.546V15.2135H91.332V0H30.4622V15.2135H15.2487V30.4271H0.0351562V152.135H15.2487V167.349H30.4622V182.562H45.6758V197.786H106.546V182.562H121.759V167.349H136.973V45.6406H121.759V30.4271Z" fill="#040606"/>
<path d="M76.1003 136.921H45.6732V45.64H76.1003V136.921ZM91.3294 15.2129H30.4596V30.4264H15.2461V152.135H30.4596V167.348H91.3294V152.135H106.543V30.4264H91.3294V15.2129Z" fill="#EDD922"/>
<path d="M15.2461 76.0671H30.4596V60.8535H15.2461V76.0671Z" fill="#F6F4A6"/>
<path d="M15.2461 45.6393H30.4596V30.4264H15.2461V45.6393Z" fill="#F6F4A6"/>
<path d="M91.3307 30.4264H30.4609V15.2285H91.3307V30.4264Z" fill="#F6F4A6"/>
<path d="M15.2461 121.708H30.4596V106.494H15.2461V121.708Z" fill="#F47427"/>
<path d="M30.4609 136.921H45.6745V121.707H30.4609V136.921Z" fill="#F47427"/>
<path d="M76.1003 167.349H60.8867V152.135H45.6732V167.349L30.4596 167.348V152.135H15.2461V136.922H30.4596V152.135L45.6732 152.135V136.921L60.8867 136.922V152.135H76.1003V136.921L91.3294 136.922V152.135L76.1003 152.135V167.349Z" fill="#F47427"/>
<path d="M76.1016 121.708H91.3307V106.494H76.1016V121.708Z" fill="#F47427"/>
<path d="M91.332 136.921H106.546V121.707H91.332V136.921Z" fill="#F47427"/>
<path d="M76.1016 167.348H91.3307V152.135H76.1016V167.348Z" fill="#F1452F"/>
<path d="M45.6758 167.348H60.8893V152.135H45.6758V167.348Z" fill="#F1452F"/>
</svg>
