<svg width="107" height="198" viewBox="0 0 107 198" fill="none" xmlns="http://www.w3.org/2000/svg">
<path d="M91.2865 30.4271H76.0729V15.2135H60.8594V0H45.6458V15.2135H30.4271V30.4271H15.2135V45.6406H0V76.0677H15.2135V136.922H0V167.349H15.2135V182.573H30.4271V197.786H91.2865V182.573H106.5V152.135H91.2865V30.4271Z" fill="#040606"/>
<path d="M60.8607 121.708V15.2129H45.6471V30.4264H30.4284V45.64H15.2148V76.0671H30.4284V136.921H15.2148V167.348H76.0742V136.921H60.8607V121.708Z" fill="#EDD922"/>
<path d="M60.8607 167.348H45.6471V152.135H30.4284V167.348H15.2148V152.135H30.4284V136.921L45.6471 136.921V152.135H60.8607V136.921H76.0742V152.135H60.8607V167.348ZM60.8607 136.921L45.6471 136.921V121.708L60.8607 121.708V136.921ZM45.6471 121.708H30.4284V106.494H45.6471V121.708Z" fill="#F47427"/>
<path d="M60.8594 167.348H76.0729V152.135H60.8594V167.348Z" fill="#F1452F"/>
<path d="M30.4297 167.348H45.6484V152.135H30.4297V167.348Z" fill="#F1452F"/>
<path d="M30.4284 76.0671H15.2148V60.8529H30.4284V76.0671ZM45.6471 45.6393L30.4284 45.64V30.4264H45.6471V45.6393Z" fill="#F6F4A6"/>
<path d="M45.6484 30.4264H60.8568V15.2129H45.6484V30.4264Z" fill="#F6F4A6"/>
</svg>
