<svg width="138" height="198" viewBox="0 0 138 198" fill="none" xmlns="http://www.w3.org/2000/svg">
<path d="M122.652 45.6406V30.4271H107.439V15.2135H92.2148V0H31.3607V15.2135H16.1471V30.4271H0.933594V152.135H16.1471V167.349H31.3607V182.573H46.5742V197.786H107.439V182.573H122.652V167.349H137.866V45.6406H122.652Z" fill="#040606"/>
<path d="M77.0026 136.921H46.5755V45.64H77.0026V136.921ZM92.2161 30.4264V15.2129H31.362V30.4264H16.1484V152.135H31.362V167.348H92.2161V152.135H107.44V30.4264H92.2161Z" fill="#EDD922"/>
<path d="M16.1484 121.708H31.362V106.494H16.1484V121.708Z" fill="#F47427"/>
<path d="M31.3633 136.921H46.5768V121.707H31.3633V136.921Z" fill="#F47427"/>
<path d="M77.0026 167.349H61.7891V152.135H46.5755V167.349L31.362 167.348V152.135H16.1484V136.922H31.362V152.135L46.5755 152.135V136.921L61.7891 136.922V152.135H77.0026V136.921L92.2161 136.922V152.135L77.0026 152.135V167.349Z" fill="#F47427"/>
<path d="M77.0039 121.708H92.2174V106.494H77.0039V121.708Z" fill="#F47427"/>
<path d="M92.2148 136.921H107.439V121.707H92.2148V136.921Z" fill="#F47427"/>
<path d="M77.0039 167.348H92.2174V152.135H77.0039V167.348Z" fill="#F1452F"/>
<path d="M46.5742 167.348H61.7878V152.135H46.5742V167.348Z" fill="#F1452F"/>
<path d="M31.362 76.0664H16.1484V60.8529H31.362V76.0664ZM31.362 45.6393H16.1484V30.4264H31.362V45.6393Z" fill="#F6F4A6"/>
<path d="M92.2175 30.4264H31.3633V15.2129H92.2175V30.4264Z" fill="#F6F4A6"/>
</svg>
