<svg width="311" height="200" viewBox="0 0 311 200" fill="none" xmlns="http://www.w3.org/2000/svg">
<path d="M34.5254 144.829H41.4207V137.932H34.5254V144.829Z" fill="#231F20"/>
<path d="M34.5254 151.723H41.4207V144.829H34.5254V151.723Z" fill="#E641A2"/>
<path d="M34.5254 158.622H41.4207V151.725H34.5254V158.622Z" fill="#C72F8C"/>
<path d="M34.5254 172.413H41.4207V165.518H34.5254V172.413Z" fill="#231F20"/>
<path d="M34.5254 165.518H41.4207V158.622H34.5254V165.518Z" fill="#C59BB1"/>
<path d="M34.5254 68.9656H41.4207V62.0703H34.5254V68.9656Z" fill="#E641A2"/>
<path d="M34.5254 62.0689H41.4207V55.1719H34.5254V62.0689Z" fill="#231F20"/>
<path d="M34.5254 75.8619H41.4207V68.9656H34.5254V75.8619Z" fill="#C72F8C"/>
<path d="M34.5254 82.7603H41.4207V75.8633H34.5254V82.7603Z" fill="#C72F8C"/>
<path d="M34.5254 96.5516H41.4207V89.6562H34.5254V96.5516Z" fill="#231F20"/>
<path d="M34.5254 89.6562H41.4207V82.7603H34.5254V89.6562Z" fill="#951865"/>
<path d="M27.627 89.6568H34.524V82.7598H27.627V89.6568Z" fill="#231F20"/>
<path d="M27.627 75.8619H34.524V68.9648H27.627V75.8619Z" fill="#231F20"/>
<path d="M27.627 68.9648H34.524V62.0703H27.627V68.9648Z" fill="#231F20"/>
<path d="M27.627 82.7584H34.524V75.8619H27.627V82.7584Z" fill="#231F20"/>
<path d="M241.42 68.9656H248.315V62.0703H241.42V68.9656Z" fill="#C72F8C"/>
<path d="M241.42 124.137H248.315V117.242H241.42V124.137Z" fill="#231F20"/>
<path d="M241.42 131.036H248.315V124.139H241.42V131.036Z" fill="#231F20"/>
<path d="M241.42 82.7603H248.315V75.8633H241.42V82.7603Z" fill="#C72F8C"/>
<path d="M241.42 75.8619H248.315V68.9656H241.42V75.8619Z" fill="#C72F8C"/>
<path d="M241.42 96.5516H248.315V89.6562H241.42V96.5516Z" fill="#231F20"/>
<path d="M241.42 89.6562H248.315V82.7603H241.42V89.6562Z" fill="#951865"/>
<path d="M241.42 137.932H248.315V131.036H241.42V137.932Z" fill="#E641A2"/>
<path d="M241.42 186.208H248.315V179.311H241.42V186.208Z" fill="#C59BB1"/>
<path d="M241.42 193.104H248.315V186.208H241.42V193.104Z" fill="#231F20"/>
<path d="M241.42 179.311H248.315V172.416H241.42V179.311Z" fill="#C72F8C"/>
<path d="M241.42 172.413H248.315V165.518H241.42V172.413Z" fill="#C72F8C"/>
<path d="M241.42 158.622H248.315V151.725H241.42V158.622Z" fill="#231F20"/>
<path d="M241.42 151.725H248.315V144.828H241.42V151.725Z" fill="#951865"/>
<path d="M241.42 144.827H248.315V137.932H241.42V144.827Z" fill="#C72F8C"/>
<path d="M241.42 165.518H248.315V158.622H241.42V165.518Z" fill="#E641A2"/>
<path d="M241.42 34.483H248.315V27.5859H241.42V34.483Z" fill="#231F20"/>
<path d="M241.42 48.2779H248.315V41.3809H241.42V48.2779Z" fill="#C72F8C"/>
<path d="M241.42 41.3809H248.315V34.4844H241.42V41.3809Z" fill="#E641A2"/>
<path d="M241.42 55.1727H248.315V48.2779H241.42V55.1727Z" fill="#C72F8C"/>
<path d="M241.42 62.0689H248.315V55.1727H241.42V62.0689Z" fill="#C72F8C"/>
<path d="M200.041 6.89703H206.938V0H200.041V6.89703Z" fill="#231F20"/>
<path d="M206.939 6.89703H213.836V0H206.939V6.89703Z" fill="#231F20"/>
<path d="M158.662 6.89703H165.557V0H158.662V6.89703Z" fill="#231F20"/>
<path d="M213.834 6.89703H220.729V0H213.834V6.89703Z" fill="#231F20"/>
<path d="M193.143 6.89703H200.04V0H193.143V6.89703Z" fill="#231F20"/>
<path d="M172.455 6.89703H179.352V0H172.455V6.89703Z" fill="#231F20"/>
<path d="M186.248 6.89703H193.143V0H186.248V6.89703Z" fill="#231F20"/>
<path d="M165.561 6.89703H172.455V0H165.561V6.89703Z" fill="#231F20"/>
<path d="M179.354 6.89703H186.251V0H179.354V6.89703Z" fill="#231F20"/>
<path d="M227.627 55.1727H234.524V48.2773H227.627V55.1727Z" fill="#C72F8C"/>
<path d="M227.627 48.2773H234.524V41.3809H227.627V48.2773Z" fill="#C72F8C"/>
<path d="M227.627 62.0689H234.524V55.1727H227.627V62.0689Z" fill="#C72F8C"/>
<path d="M227.627 75.8619H234.524V68.9648H227.627V75.8619Z" fill="#C72F8C"/>
<path d="M227.627 68.9648H234.524V62.0703H227.627V68.9648Z" fill="#C72F8C"/>
<path d="M227.627 34.483H234.524V27.5859H227.627V34.483Z" fill="#E641A2"/>
<path d="M227.627 27.5859H234.524V20.6914H227.627V27.5859Z" fill="#E641A2"/>
<path d="M227.627 20.6914H234.524V13.7949H227.627V20.6914Z" fill="#231F20"/>
<path d="M227.627 82.7603H234.524V75.8633H227.627V82.7603Z" fill="#C72F8C"/>
<path d="M227.627 41.3809H234.524V34.4844H227.627V41.3809Z" fill="#C72F8C"/>
<path d="M131.076 193.104H137.973V186.207H131.076V193.104Z" fill="#C59BB1"/>
<path d="M137.975 193.104H144.87V186.207H137.975V193.104Z" fill="#951865"/>
<path d="M144.87 193.104H151.766V186.207H144.87V193.104Z" fill="#951865"/>
<path d="M110.385 193.104H117.28V186.207H110.385V193.104Z" fill="#C59BB1"/>
<path d="M117.283 193.104H124.18V186.207H117.283V193.104Z" fill="#951865"/>
<path d="M151.768 193.104H158.665V186.207H151.768V193.104Z" fill="#C59BB1"/>
<path d="M158.662 193.104H165.557V186.207H158.662V193.104Z" fill="#231F20"/>
<path d="M124.178 193.104H131.075V186.207H124.178V193.104Z" fill="#951865"/>
<path d="M103.49 193.104H110.387V186.207H103.49V193.104Z" fill="#951865"/>
<path d="M62.1074 193.104H69.0044V186.207H62.1074V193.104Z" fill="#E641A2"/>
<path d="M55.2129 193.104H62.1074V186.207H55.2129V193.104Z" fill="#231F20"/>
<path d="M27.627 137.932H34.524V131.035H27.627V137.932Z" fill="#231F20"/>
<path d="M69.0059 193.104H75.9029V186.207H69.0059V193.104Z" fill="#C72F8C"/>
<path d="M96.5918 193.104H103.489V186.207H96.5918V193.104Z" fill="#951865"/>
<path d="M89.6934 193.104H96.5904V186.207H89.6934V193.104Z" fill="#231F20"/>
<path d="M82.7988 193.104H89.6934V186.207H82.7988V193.104Z" fill="#231F20"/>
<path d="M75.9043 193.104H82.8013V186.207H75.9043V193.104Z" fill="#951865"/>
<path d="M227.627 186.208H234.524V179.311H227.627V186.208Z" fill="#C72F8C"/>
<path d="M227.627 137.932H234.524V131.035H227.627V137.932Z" fill="#231F20"/>
<path d="M227.627 151.725H234.524V144.828H227.627V151.725Z" fill="#951865"/>
<path d="M227.627 158.622H234.524V151.725H227.627V158.622Z" fill="#620F39"/>
<path d="M227.627 144.827H234.524V137.932H227.627V144.827Z" fill="#951865"/>
<path d="M227.627 96.5516H234.524V89.6562H227.627V96.5516Z" fill="#C72F8C"/>
<path d="M227.627 103.448H234.524V96.5516H227.627V103.448Z" fill="#951865"/>
<path d="M227.627 110.346H234.524V103.449H227.627V110.346Z" fill="#231F20"/>
<path d="M213.834 193.104H220.729V186.207H213.834V193.104Z" fill="#951865"/>
<path d="M206.939 193.104H213.836V186.207H206.939V193.104Z" fill="#231F20"/>
<path d="M220.729 193.104H227.626V186.207H220.729V193.104Z" fill="#C59BB1"/>
<path d="M227.627 165.518H234.524V158.622H227.627V165.518Z" fill="#620F39"/>
<path d="M227.627 179.311H234.524V172.416H227.627V179.311Z" fill="#C72F8C"/>
<path d="M227.627 172.413H234.524V165.518H227.627V172.413Z" fill="#231F20"/>
<path d="M227.627 89.6562H234.524V82.7603H227.627V89.6562Z" fill="#C72F8C"/>
<path d="M227.627 193.104H234.524V186.208H227.627V193.104Z" fill="#951865"/>
<path d="M234.525 172.413H241.422V165.518H234.525V172.413Z" fill="#E641A2"/>
<path d="M234.525 165.518H241.422V158.621H234.525V165.518Z" fill="#231F20"/>
<path d="M234.525 186.208H241.422V179.311H234.525V186.208Z" fill="#C72F8C"/>
<path d="M234.525 179.311H241.422V172.416H234.525V179.311Z" fill="#C72F8C"/>
<path d="M234.525 193.104H241.422V186.208H234.525V193.104Z" fill="#951865"/>
<path d="M234.525 158.621H241.422V151.725H234.525V158.621Z" fill="#620F39"/>
<path d="M234.525 137.932H241.422V131.035H234.525V137.932Z" fill="#231F20"/>
<path d="M234.525 200.001H241.422V193.105H234.525V200.001Z" fill="#231F20"/>
<path d="M213.834 200.001H220.729V193.105H213.834V200.001Z" fill="#231F20"/>
<path d="M220.729 200.001H227.626V193.105H220.729V200.001Z" fill="#231F20"/>
<path d="M227.627 200.001H234.524V193.105H227.627V200.001Z" fill="#231F20"/>
<path d="M234.525 151.725H241.422V144.828H234.525V151.725Z" fill="#951865"/>
<path d="M234.525 27.5867H241.422V20.6914H234.525V27.5867Z" fill="#231F20"/>
<path d="M234.525 34.483H241.422V27.5867H234.525V34.483Z" fill="#E641A2"/>
<path d="M234.525 41.3814H241.422V34.4844H234.525V41.3814Z" fill="#C72F8C"/>
<path d="M234.525 48.2779H241.422V41.3814H234.525V48.2779Z" fill="#FBC707"/>
<path d="M234.525 75.8619H241.422V68.9648H234.525V75.8619Z" fill="#C72F8C"/>
<path d="M234.525 89.6568H241.422V82.7598H234.525V89.6568Z" fill="#C72F8C"/>
<path d="M234.525 103.448H241.422V96.5508H234.525V103.448Z" fill="#231F20"/>
<path d="M234.525 55.1727H241.422V48.2779H234.525V55.1727Z" fill="#C72F8C"/>
<path d="M234.525 96.5508H241.422V89.6568H234.525V96.5508Z" fill="#951865"/>
<path d="M234.525 62.0689H241.422V55.1727H234.525V62.0689Z" fill="#C72F8C"/>
<path d="M234.525 68.9648H241.422V62.0703H234.525V68.9648Z" fill="#FBC707"/>
<path d="M234.525 82.7598H241.422V75.8633H234.525V82.7598Z" fill="#C72F8C"/>
<path d="M234.525 144.827H241.422V137.932H234.525V144.827Z" fill="#C72F8C"/>
<path d="M41.4207 151.723H48.3169V144.828L41.4207 144.829V151.723Z" fill="#231F20"/>
<path d="M41.4207 165.518L48.3169 165.518V158.621L41.4207 158.622V165.518Z" fill="#951865"/>
<path d="M41.4207 172.413H48.3169V165.518L41.4207 165.518V172.413Z" fill="#951865"/>
<path d="M41.4207 158.622L48.3169 158.621V151.725H41.4207V158.622Z" fill="#C72F8C"/>
<path d="M41.4199 55.1727H48.3169V48.2773H41.4199V55.1727Z" fill="#231F20"/>
<path d="M41.4199 179.311H48.3169V172.416H41.4199V179.311Z" fill="#231F20"/>
<path d="M41.4207 62.0689H48.3169V55.1727H41.4199L41.4207 62.0689Z" fill="#E641A2"/>
<path d="M41.4207 68.9656H48.3169V62.0703H41.4207V68.9656Z" fill="#C72F8C"/>
<path d="M41.4207 75.8619H48.3169V68.9656L41.4199 68.9648L41.4207 75.8619Z" fill="#951865"/>
<path d="M41.4207 89.6562L48.3169 89.6568V82.7598L41.4207 82.7603V89.6562Z" fill="#231F20"/>
<path d="M41.4207 82.7603L48.3169 82.7598V75.8633H41.4207V82.7603Z" fill="#231F20"/>
<path d="M131.076 200.001H137.973V193.105H131.076V200.001Z" fill="#231F20"/>
<path d="M96.5918 200.001H103.489V193.105H96.5918V200.001Z" fill="#231F20"/>
<path d="M124.178 200.001H131.075V193.105H124.178V200.001Z" fill="#231F20"/>
<path d="M110.385 200.001H117.28V193.105H110.385V200.001Z" fill="#231F20"/>
<path d="M103.49 200.001H110.387V193.105H103.49V200.001Z" fill="#231F20"/>
<path d="M117.283 200.001H124.18V193.105H117.283V200.001Z" fill="#231F20"/>
<path d="M151.768 200.001H158.665V193.105H151.768V200.001Z" fill="#231F20"/>
<path d="M137.975 200.001H144.87V193.105H137.975V200.001Z" fill="#231F20"/>
<path d="M144.87 200.001H151.766V193.105H144.87V200.001Z" fill="#231F20"/>
<path d="M62.1074 200.001H69.0044V193.105H62.1074V200.001Z" fill="#231F20"/>
<path d="M75.9043 200.001H82.8013V193.105H75.9043V200.001Z" fill="#231F20"/>
<path d="M69.0059 200.001H75.9029V193.105H69.0059V200.001Z" fill="#231F20"/>
<path d="M255.213 179.311H262.11V172.416H255.213V179.311Z" fill="#231F20"/>
<path d="M255.213 172.413H262.11V165.518H255.213V172.413Z" fill="#C59BB1"/>
<path d="M255.213 131.036H262.11V124.139H255.213V131.036Z" fill="#C72F8C"/>
<path d="M255.213 165.518H262.11V158.621H255.213V165.518Z" fill="#C72F8C"/>
<path d="M255.213 151.725H262.11V144.828H255.213V151.725Z" fill="#231F20"/>
<path d="M255.213 137.932H262.11V131.036H255.213V137.932Z" fill="#C72F8C"/>
<path d="M255.213 144.827H262.11V137.932H255.213V144.827Z" fill="#951865"/>
<path d="M255.213 158.621H262.11V151.725H255.213V158.621Z" fill="#E641A2"/>
<path d="M255.213 124.137H262.11V117.242H255.213V124.137Z" fill="#C72F8C"/>
<path d="M255.213 110.346H262.11V103.449H255.213V110.346Z" fill="#E641A2"/>
<path d="M255.213 103.448H262.11V96.5508H255.213V103.448Z" fill="#231F20"/>
<path d="M255.213 117.242H262.11V110.346H255.213V117.242Z" fill="#C72F8C"/>
<path d="M262.111 137.932H269.008V131.035H262.111V137.932Z" fill="#231F20"/>
<path d="M262.111 144.827H269.008V137.932H262.111V144.827Z" fill="#231F20"/>
<path d="M262.111 131.035H269.008V124.139H262.111V131.035Z" fill="#951865"/>
<path d="M262.111 158.622H269.008V151.725H262.111V158.622Z" fill="#E641A2"/>
<path d="M262.111 165.518H269.008V158.622H262.111V165.518Z" fill="#C72F8C"/>
<path d="M262.111 151.725H269.008V144.828H262.111V151.725Z" fill="#231F20"/>
<path d="M262.111 103.448H269.008V96.5508H262.111V103.448Z" fill="#E641A2"/>
<path d="M262.111 124.137H269.008V117.242H262.111V124.137Z" fill="#C72F8C"/>
<path d="M262.111 110.346H269.008V103.449H262.111V110.346Z" fill="#C72F8C"/>
<path d="M262.111 117.242H269.008V110.346H262.111V117.242Z" fill="#C72F8C"/>
<path d="M262.111 172.413H269.008V165.518H262.111V172.413Z" fill="#231F20"/>
<path d="M13.834 158.622H20.731V151.725H13.834V158.622Z" fill="#231F20"/>
<path d="M13.834 144.829H20.731V137.932H13.834V144.829Z" fill="#231F20"/>
<path d="M13.834 151.723H20.731V144.829H13.834V151.723Z" fill="#E641A2"/>
<path d="M248.318 110.346H255.215V103.449H248.318V110.346Z" fill="#231F20"/>
<path d="M248.318 117.243H255.215V110.346H248.318V117.243Z" fill="#231F20"/>
<path d="M248.318 124.137H255.215V117.243H248.318V124.137Z" fill="#E641A2"/>
<path d="M248.318 131.036H255.215V124.139H248.318V131.036Z" fill="#C72F8C"/>
<path d="M248.318 82.7603H255.215V75.8633H248.318V82.7603Z" fill="#231F20"/>
<path d="M248.318 68.9656H255.215V62.0703H248.318V68.9656Z" fill="#231F20"/>
<path d="M248.318 137.932H255.215V131.036H248.318V137.932Z" fill="#C72F8C"/>
<path d="M248.318 89.6568H255.215V82.7603H248.318V89.6568Z" fill="#231F20"/>
<path d="M248.318 75.8619H255.215V68.9656H248.318V75.8619Z" fill="#231F20"/>
<path d="M248.318 186.208H255.215V179.311H248.318V186.208Z" fill="#231F20"/>
<path d="M248.318 144.827H255.215V137.932H248.318V144.827Z" fill="#C72F8C"/>
<path d="M248.318 172.413H255.215V165.518H248.318V172.413Z" fill="#C72F8C"/>
<path d="M248.318 151.725H255.215V144.828H248.318V151.725Z" fill="#231F20"/>
<path d="M248.318 158.622H255.215V151.725H248.318V158.622Z" fill="#E641A2"/>
<path d="M248.318 165.518H255.215V158.622H248.318V165.518Z" fill="#C72F8C"/>
<path d="M248.318 179.311H255.215V172.416H248.318V179.311Z" fill="#951865"/>
<path d="M248.318 48.2779H255.215V41.3809H248.318V48.2779Z" fill="#231F20"/>
<path d="M248.318 41.3809H255.215V34.4844H248.318V41.3809Z" fill="#231F20"/>
<path d="M248.318 55.1727H255.215V48.2779H248.318V55.1727Z" fill="#231F20"/>
<path d="M248.318 62.0689H255.215V55.1727H248.318V62.0689Z" fill="#231F20"/>
<path d="M27.627 158.622H34.524V151.725H27.627V158.622Z" fill="#951865"/>
<path d="M27.627 165.518H34.524L34.524 158.622H27.627L27.627 165.518Z" fill="#231F20"/>
<path d="M27.627 151.723H34.524V144.828H27.627V151.723Z" fill="#C72F8C"/>
<path d="M20.7324 144.829H27.6294V137.932H20.7324V144.829Z" fill="#E641A2"/>
<path d="M20.7324 137.932H27.6294V131.035H20.7324V137.932Z" fill="#231F20"/>
<path d="M20.7324 151.723H27.6294V144.829H20.7324V151.723Z" fill="#C72F8C"/>
<path d="M20.7324 158.622H27.6294V151.725H20.7324V158.622Z" fill="#231F20"/>
<path d="M27.627 144.828H34.524V137.932H27.627V144.828Z" fill="#E641A2"/>
<path d="M137.975 131.036H144.87V124.139H137.975V131.036Z" fill="#231F20"/>
<path d="M186.248 68.9656H193.143V62.0703H186.248V68.9656Z" fill="#C72F8C"/>
<path d="M186.248 48.2779H193.143V41.3809H186.248V48.2779Z" fill="#C72F8C"/>
<path d="M172.455 48.2779H179.352V41.3809H172.455V48.2779Z" fill="#C72F8C"/>
<path d="M186.248 55.1727H193.143V48.2779H186.248V55.1727Z" fill="#C72F8C"/>
<path d="M186.248 62.0689H193.143V55.1727H186.248V62.0689Z" fill="#C72F8C"/>
<path d="M179.354 48.2779H186.251V41.3809H179.354V48.2779Z" fill="#C72F8C"/>
<path d="M144.869 48.2779H151.766V41.3809H144.869V48.2779Z" fill="#C72F8C"/>
<path d="M165.561 48.2779H172.455V41.3809H165.561V48.2779Z" fill="#C72F8C"/>
<path d="M151.768 48.2779H158.663V41.3809H151.768V48.2779Z" fill="#C72F8C"/>
<path d="M179.354 55.1727H186.251V48.2779H179.354V55.1727Z" fill="#C72F8C"/>
<path d="M186.248 89.6568H193.143V82.7598H186.248V89.6568Z" fill="#C72F8C"/>
<path d="M186.248 124.137H193.143V117.242H186.248V124.137Z" fill="#231F20"/>
<path d="M186.248 117.242H193.143V110.346H186.248V117.242Z" fill="#C72F8C"/>
<path d="M186.248 75.8619H193.143V68.9656H186.248V75.8619Z" fill="#C72F8C"/>
<path d="M186.248 131.036H193.143V124.139H186.248V131.036Z" fill="#E641A2"/>
<path d="M186.248 110.346H193.143V103.449H186.248V110.346Z" fill="#C72F8C"/>
<path d="M186.248 137.932H193.143V131.036H186.248V137.932Z" fill="#C72F8C"/>
<path d="M137.975 48.2779H144.869V41.3809H137.975V48.2779Z" fill="#C72F8C"/>
<path d="M186.248 103.448H193.143V96.5508H186.248V103.448Z" fill="#C72F8C"/>
<path d="M186.248 82.7598H193.143V75.8633H186.248V82.7598Z" fill="#C72F8C"/>
<path d="M186.248 96.5508H193.143V89.6568H186.248V96.5508Z" fill="#C72F8C"/>
<path d="M82.7988 68.9656H89.6941V62.0703H82.7988V68.9656Z" fill="#C72F8C"/>
<path d="M82.7988 89.6568H89.6941V82.7598H82.7988V89.6568Z" fill="#C72F8C"/>
<path d="M82.7988 96.5516H89.6941V89.6568H82.7988V96.5516Z" fill="#C72F8C"/>
<path d="M82.7988 103.448H89.6941V96.5516H82.7988V103.448Z" fill="#951865"/>
<path d="M82.7988 82.7598H89.6941V75.8633H82.7988V82.7598Z" fill="#C72F8C"/>
<path d="M82.7988 75.8619H89.6941V68.9656H82.7988V75.8619Z" fill="#C72F8C"/>
<path d="M82.7988 110.346H89.6941V103.449H82.7988V110.346Z" fill="#231F20"/>
<path d="M82.7988 124.137H89.6941V117.242H82.7988V124.137Z" fill="#C72F8C"/>
<path d="M82.7988 131.036H89.6941V124.139H82.7988V131.036Z" fill="#C72F8C"/>
<path d="M82.7988 117.242H89.6941V110.346H82.7988V117.242Z" fill="#E641A2"/>
<path d="M186.248 144.827H193.143V137.932H186.248V144.827Z" fill="#C72F8C"/>
<path d="M117.283 48.2779H124.18V41.3809H117.283V48.2779Z" fill="#231F20"/>
<path d="M131.076 48.2779H137.973V41.3809H131.076V48.2779Z" fill="#E641A2"/>
<path d="M82.7988 62.0689H89.6941V55.1719H82.7988V62.0689Z" fill="#C72F8C"/>
<path d="M124.178 48.2779H131.075V41.3809H124.178V48.2779Z" fill="#E641A2"/>
<path d="M82.7988 48.2779H89.6941V41.3809H82.7988V48.2779Z" fill="#231F20"/>
<path d="M82.7988 55.1719H89.6941V48.2779H82.7988V55.1719Z" fill="#E641A2"/>
<path d="M89.6934 144.829H96.5904V137.932H89.6934V144.829Z" fill="#231F20"/>
<path d="M89.6941 62.0689H96.5904V55.1719H89.6941V62.0689Z" fill="#E641A2"/>
<path d="M89.6934 55.1727L96.5904 55.1719V48.2773L89.6941 48.2779L89.6934 55.1727Z" fill="#231F20"/>
<path d="M89.6941 68.9656H96.5904V62.0703H89.6941V68.9656Z" fill="#C72F8C"/>
<path d="M89.6941 96.5516H96.5904V89.6562L89.6941 89.6568V96.5516Z" fill="#231F20"/>
<path d="M89.6941 103.448H96.5904V96.5516L89.6934 96.5508L89.6941 103.448Z" fill="#231F20"/>
<path d="M89.6941 82.7598L96.5904 82.7603V75.8633H89.6941V82.7598Z" fill="#C72F8C"/>
<path d="M89.6941 75.8619H96.5904V68.9656L89.6934 68.9648L89.6941 75.8619Z" fill="#C72F8C"/>
<path d="M89.6941 89.6568L96.5904 89.6562V82.7603L89.6941 82.7598V89.6568Z" fill="#231F20"/>
<path d="M151.768 55.1727H158.663V48.2779H151.768V55.1727Z" fill="#C72F8C"/>
<path d="M186.248 151.725H193.143V144.828H186.248V151.725Z" fill="#C72F8C"/>
<path d="M117.283 55.1727H124.18V48.2779H117.283V55.1727Z" fill="#231F20"/>
<path d="M172.455 55.1727H179.352V48.2779H172.455V55.1727Z" fill="#C72F8C"/>
<path d="M158.663 55.1727H165.557V48.2773L158.663 48.2779V55.1727Z" fill="#C72F8C"/>
<path d="M144.869 55.1727H151.766V48.2779H144.869V55.1727Z" fill="#C72F8C"/>
<path d="M124.178 55.1727H131.075V48.2779H124.178V55.1727Z" fill="#E641A2"/>
<path d="M131.076 55.1727H137.973V48.2779H131.076V55.1727Z" fill="#C72F8C"/>
<path d="M137.975 55.1727H144.869V48.2779H137.975V55.1727Z" fill="#C72F8C"/>
<path d="M165.561 55.1727H172.455V48.2779H165.561V55.1727Z" fill="#C72F8C"/>
<path d="M144.869 151.725H151.766V144.828H144.869V151.725Z" fill="#C72F8C"/>
<path d="M151.768 151.725H158.665V144.828H151.768V151.725Z" fill="#C72F8C"/>
<path d="M117.283 151.723H124.18V144.828H117.283V151.723Z" fill="#231F20"/>
<path d="M124.178 144.83V151.725H131.075V144.828L124.178 144.83Z" fill="#C72F8C"/>
<path d="M131.076 151.725H137.973V144.828H131.076V151.725Z" fill="#C72F8C"/>
<path d="M89.6941 110.346H96.5904V103.449H89.6941V110.346Z" fill="#231F20"/>
<path d="M179.354 151.725H186.251V144.828H179.354V151.725Z" fill="#951865"/>
<path d="M158.662 151.725H165.557V144.828H158.662V151.725Z" fill="#231F20"/>
<path d="M172.455 151.725H179.352V144.828H172.455V151.725Z" fill="#951865"/>
<path d="M165.561 151.725H172.455V144.828H165.561V151.725Z" fill="#620F39"/>
<path d="M137.975 151.725H144.869V144.828H137.975V151.725Z" fill="#E641A2"/>
<path d="M89.6941 124.137H96.5904V117.242H89.6941V124.137Z" fill="#C72F8C"/>
<path d="M89.6941 131.036H96.5904V124.139H89.6941V131.036Z" fill="#C72F8C"/>
<path d="M89.6941 117.242H96.5904V110.346H89.6941V117.242Z" fill="#E641A2"/>
<path d="M89.6934 137.932H96.5904V131.036H89.6941L89.6934 137.932Z" fill="#951865"/>
<path d="M96.5918 151.723H103.489V144.828H96.5918V151.723Z" fill="#231F20"/>
<path d="M103.49 151.723H110.387V144.828H103.49V151.723Z" fill="#951865"/>
<path d="M82.7988 137.932L89.6934 137.932L89.6941 131.036H82.7988V137.932Z" fill="#231F20"/>
<path d="M110.385 151.723H117.28V144.828H110.385V151.723Z" fill="#951865"/>
<path d="M96.5918 144.828H103.489V137.932H96.5918V144.828Z" fill="#951865"/>
<path d="M158.663 48.2779L165.557 48.2773V41.3809H158.663V48.2779Z" fill="#C72F8C"/>
<path d="M75.9043 68.9656H82.8013V62.0703H75.9043V68.9656Z" fill="#951865"/>
<path d="M75.9043 75.8619H82.8013V68.9656H75.9043V75.8619Z" fill="#231F20"/>
<path d="M75.9043 55.1727H82.8013V48.2773H75.9043V55.1727Z" fill="#E641A2"/>
<path d="M75.9043 48.2773H82.8013V41.3809H75.9043V48.2773Z" fill="#231F20"/>
<path d="M75.9043 62.0689H82.8013V55.1727H75.9043V62.0689Z" fill="#C72F8C"/>
<path d="M75.9043 82.7603H82.8013V75.8633H75.9043V82.7603Z" fill="#951865"/>
<path d="M75.9043 103.448H82.7988L82.7996 96.5508H75.9043V103.448Z" fill="#951865"/>
<path d="M75.9043 96.5508L82.8013 96.5516V89.6562H75.9043V96.5508Z" fill="#951865"/>
<path d="M75.9043 89.6562H82.8013V82.7603H75.9043V89.6562Z" fill="#C59BB1"/>
<path d="M137.975 41.3809H144.869L144.87 34.4844H137.975V41.3809Z" fill="#E641A2"/>
<path d="M117.283 41.3809H124.18V34.4844H117.283V41.3809Z" fill="#231F20"/>
<path d="M131.076 41.3809H137.973V34.4844H131.076V41.3809Z" fill="#E641A2"/>
<path d="M124.178 41.3809H131.075V34.4844H124.178V41.3809Z" fill="#EB8BC2"/>
<path d="M75.9043 110.346H82.8013V103.449H75.9043V110.346Z" fill="#231F20"/>
<path d="M144.869 41.3809H151.766V34.4844H144.87L144.869 41.3809Z" fill="#C72F8C"/>
<path d="M124.178 158.621V165.518H131.075V158.621H124.178Z" fill="#231F20"/>
<path d="M117.283 165.518H124.18V158.621H117.283V165.518Z" fill="#231F20"/>
<path d="M110.385 165.518H117.28V158.621H110.385V165.518Z" fill="#231F20"/>
<path d="M131.076 165.518H137.973V158.621H131.076V165.518Z" fill="#231F20"/>
<path d="M137.975 165.518H144.87V158.621H137.975V165.518Z" fill="#C72F8C"/>
<path d="M151.768 165.518H158.665V158.621H151.768V165.518Z" fill="#C72F8C"/>
<path d="M158.662 165.518H165.557V158.621H158.662V165.518Z" fill="#C72F8C"/>
<path d="M144.87 165.518H151.766V158.621H144.87V165.518Z" fill="#C72F8C"/>
<path d="M75.9043 137.932H82.8013V131.035H75.9043V137.932Z" fill="#C72F8C"/>
<path d="M75.9043 131.035H82.8013V124.139H75.9043V131.035Z" fill="#C72F8C"/>
<path d="M75.9043 144.829H82.8013V137.932H75.9043V144.829Z" fill="#231F20"/>
<path d="M75.9043 124.137H82.8013V117.242H75.9043V124.137Z" fill="#C72F8C"/>
<path d="M75.9043 151.723H82.8013V144.829H75.9043V151.723Z" fill="#231F20"/>
<path d="M75.9043 117.242H82.8013V110.346H75.9043V117.242Z" fill="#E641A2"/>
<path d="M82.7988 158.622H89.6941V151.725H82.7988V158.622Z" fill="#231F20"/>
<path d="M179.354 158.622H186.251V151.725H179.354V158.622Z" fill="#620F39"/>
<path d="M137.975 158.621H144.87L144.869 151.725H137.975V158.621Z" fill="#C72F8C"/>
<path d="M158.662 158.621H165.557V151.725H158.662V158.621Z" fill="#C72F8C"/>
<path d="M172.455 158.622H179.352V151.725H172.455V158.622Z" fill="#231F20"/>
<path d="M144.87 158.621H151.766V151.725H144.869L144.87 158.621Z" fill="#C72F8C"/>
<path d="M151.768 158.621H158.665V151.725H151.768V158.621Z" fill="#C72F8C"/>
<path d="M165.561 158.622H172.455V151.725H165.561V158.622Z" fill="#231F20"/>
<path d="M193.143 158.622H200.04V151.725L193.143 151.725L193.143 158.622Z" fill="#951865"/>
<path d="M193.143 151.725L200.04 151.725V144.828H193.143V151.725Z" fill="#C72F8C"/>
<path d="M186.248 158.622H193.143L193.143 151.725H186.248V158.622Z" fill="#231F20"/>
<path d="M82.7988 144.829H89.6934V137.932L82.7988 137.932V144.829Z" fill="#951865"/>
<path d="M193.143 144.827H200.04V137.932L193.143 137.932V144.827Z" fill="#C72F8C"/>
<path d="M96.5918 158.622H103.489V151.725H96.5918V158.622Z" fill="#231F20"/>
<path d="M89.6934 151.723H96.5904V144.829H89.6934V151.723Z" fill="#951865"/>
<path d="M89.6941 158.622H96.5904V151.725H89.6941V158.622Z" fill="#231F20"/>
<path d="M82.7988 151.723H89.6934V144.829H82.7988V151.723Z" fill="#620F39"/>
<path d="M131.076 158.621H137.973V151.725H131.076V158.621Z" fill="#C72F8C"/>
<path d="M103.49 158.622H110.387V151.725H103.49V158.622Z" fill="#231F20"/>
<path d="M124.178 151.725V158.621H131.075V151.725H124.178Z" fill="#C72F8C"/>
<path d="M117.283 158.621H124.18V151.725H117.283V158.621Z" fill="#231F20"/>
<path d="M110.385 158.621H117.28V151.725H110.385V158.621Z" fill="#620F39"/>
<path d="M151.768 41.3809L158.665 41.3814V34.4844H151.768V41.3809Z" fill="#C72F8C"/>
<path d="M193.143 48.2779H200.04V41.3809H193.143V48.2779Z" fill="#C72F8C"/>
<path d="M186.248 41.3809H193.143V34.4844H186.248V41.3809Z" fill="#C72F8C"/>
<path d="M193.143 41.3809H200.04V34.4844H193.143V41.3809Z" fill="#C72F8C"/>
<path d="M193.143 62.0689H200.04V55.1719H193.143L193.143 62.0689Z" fill="#C72F8C"/>
<path d="M193.143 137.932L200.04 137.932V131.035L193.143 131.036V137.932Z" fill="#E641A2"/>
<path d="M158.663 41.3809H165.557V34.4844H158.662L158.663 41.3809Z" fill="#C72F8C"/>
<path d="M193.143 68.9656H200.04V62.0703H193.143V68.9656Z" fill="#C72F8C"/>
<path d="M165.561 41.3809H172.455L172.456 34.4844H165.561V41.3809Z" fill="#C72F8C"/>
<path d="M172.455 41.3809H179.352V34.4844H172.456L172.455 41.3809Z" fill="#C72F8C"/>
<path d="M179.354 41.3809H186.251V34.4844H179.354V41.3809Z" fill="#C72F8C"/>
<path d="M193.143 55.1719H200.04V48.2779H193.143L193.143 55.1719Z" fill="#C72F8C"/>
<path d="M193.143 124.137H200.04V117.242H193.143V124.137Z" fill="#231F20"/>
<path d="M193.143 117.242H200.04V110.346H193.143V117.242Z" fill="#C72F8C"/>
<path d="M193.143 131.036L200.04 131.035V124.139H193.143V131.036Z" fill="#E641A2"/>
<path d="M193.143 75.8619H200.04V68.9656L193.143 68.9648L193.143 75.8619Z" fill="#C72F8C"/>
<path d="M193.143 110.346H200.04V103.449H193.143V110.346Z" fill="#C72F8C"/>
<path d="M193.143 82.7598L200.04 82.7603V75.8633H193.143V82.7598Z" fill="#C72F8C"/>
<path d="M193.143 103.448H200.04V96.5508H193.143V103.448Z" fill="#C72F8C"/>
<path d="M193.143 89.6568H200.04V82.7603L193.143 82.7598V89.6568Z" fill="#C72F8C"/>
<path d="M193.143 96.5516L200.04 96.5508V89.6568H193.143L193.143 96.5516Z" fill="#C72F8C"/>
<path d="M144.869 110.346H151.766V103.449H144.869V110.346Z" fill="#231F20"/>
<path d="M110.385 75.8619H117.28V68.9648H110.385V75.8619Z" fill="#231F20"/>
<path d="M110.385 82.7603H117.28V75.8633H110.385V82.7603Z" fill="#231F20"/>
<path d="M110.385 124.137H117.28V117.242H110.385V124.137Z" fill="#231F20"/>
<path d="M117.283 75.8619H124.18V68.9648H117.283V75.8619Z" fill="#C72F8C"/>
<path d="M124.178 75.8619H131.075V68.9648H124.178V75.8619Z" fill="#C72F8C"/>
<path d="M110.385 89.6568H117.28V82.7603H110.385V89.6568Z" fill="#231F20"/>
<path d="M110.385 96.5516H117.28V89.6568H110.385V96.5516Z" fill="#231F20"/>
<path d="M110.385 103.448H117.28V96.5516H110.385V103.448Z" fill="#231F20"/>
<path d="M131.076 75.8619H137.973V68.9648H131.076V75.8619Z" fill="#C72F8C"/>
<path d="M158.662 96.5516H165.557V89.6562H158.662V96.5516Z" fill="#C72F8C"/>
<path d="M137.975 75.8619H144.87V68.9648H137.975V75.8619Z" fill="#C72F8C"/>
<path d="M158.662 103.448H165.557V96.5516H158.662V103.448Z" fill="#C72F8C"/>
<path d="M158.662 117.243H165.557V110.346H158.662V117.243Z" fill="#231F20"/>
<path d="M158.662 110.346H165.557V103.449H158.662V110.346Z" fill="#C72F8C"/>
<path d="M158.662 89.6562H165.557V82.7598H158.662V89.6562Z" fill="#C72F8C"/>
<path d="M144.87 75.8619H151.766V68.9648H144.87V75.8619Z" fill="#C72F8C"/>
<path d="M151.768 75.8619H158.663V68.9648H151.768V75.8619Z" fill="#C72F8C"/>
<path d="M158.663 75.8619H165.557V68.9648H158.663V75.8619Z" fill="#C72F8C"/>
<path d="M158.662 82.7598H165.557V75.8633H158.662V82.7598Z" fill="#C72F8C"/>
<path d="M165.561 110.346H172.456V103.449H165.561V110.346Z" fill="#C72F8C"/>
<path d="M165.561 96.5516H172.456V89.6562H165.561V96.5516Z" fill="#231F20"/>
<path d="M165.561 89.6562H172.456V82.7598H165.561V89.6562Z" fill="#231F20"/>
<path d="M165.561 103.448H172.456V96.5516H165.561V103.448Z" fill="#E85AAC"/>
<path d="M165.561 82.7598H172.456V75.8633H165.561V82.7598Z" fill="#C72F8C"/>
<path d="M158.662 124.137H165.557V117.243H158.662V124.137Z" fill="#C72F8C"/>
<path d="M117.283 124.137H124.18V117.242H117.283V124.137Z" fill="#620F39"/>
<path d="M179.354 62.0689H186.251V55.1727H179.354V62.0689Z" fill="#C72F8C"/>
<path d="M165.561 75.8619H172.456V68.9648H165.561V75.8619Z" fill="#C72F8C"/>
<path d="M158.662 68.9656L165.557 68.9648V62.0703H158.662V68.9656Z" fill="#C72F8C"/>
<path d="M165.561 68.9648H172.456V62.0703H165.561V68.9648Z" fill="#C72F8C"/>
<path d="M151.768 68.9648H158.663L158.662 62.0703H151.768V68.9648Z" fill="#C72F8C"/>
<path d="M131.076 131.036H137.973V124.139H131.076V131.036Z" fill="#231F20"/>
<path d="M124.178 124.139V131.036H131.075V124.139H124.178Z" fill="#620F39"/>
<path d="M117.283 131.036H124.18V124.139H117.283V131.036Z" fill="#231F20"/>
<path d="M262.111 96.5508H269.008V89.6562H262.111V96.5508Z" fill="#231F20"/>
<path d="M165.561 124.137H172.456V117.242H165.561V124.137Z" fill="#C72F8C"/>
<path d="M158.662 131.036H165.557V124.139H158.662V131.036Z" fill="#C72F8C"/>
<path d="M165.561 131.036H172.456V124.139H165.561V131.036Z" fill="#C72F8C"/>
<path d="M151.768 131.036H158.665V124.139H151.768V131.036Z" fill="#E641A2"/>
<path d="M144.87 131.036H151.766V124.139H144.87V131.036Z" fill="#231F20"/>
<path d="M151.768 124.137H158.665V117.242H151.768V124.137Z" fill="#C72F8C"/>
<path d="M124.178 103.448H131.075V96.5508H124.178V103.448Z" fill="#FBC707"/>
<path d="M124.178 96.5508H131.075V89.6562H124.178V96.5508Z" fill="#C72F8C"/>
<path d="M144.869 68.9656L151.766 68.9648V62.0703H144.869V68.9656Z" fill="#C72F8C"/>
<path d="M124.178 89.6562H131.075V82.7598H124.178V89.6562Z" fill="#C72F8C"/>
<path d="M124.178 110.346H131.075V103.449H124.178V110.346Z" fill="#C72F8C"/>
<path d="M137.975 89.6568H144.87V82.7598H137.975V89.6568Z" fill="#C72F8C"/>
<path d="M144.869 117.243H151.766V110.346H144.869V117.243Z" fill="#C72F8C"/>
<path d="M151.768 117.242H158.665V110.346H151.768V117.242Z" fill="#231F20"/>
<path d="M137.975 117.243H144.869V110.346L137.975 110.346V117.243Z" fill="#C72F8C"/>
<path d="M131.076 117.243H137.973V110.346H131.076V117.243Z" fill="#C72F8C"/>
<path d="M131.076 110.346H137.973V103.449H131.076V110.346Z" fill="#C72F8C"/>
<path d="M137.975 103.448H144.87V96.5508H137.975V103.448Z" fill="#E85AAC"/>
<path d="M131.076 103.448H137.973V96.5508H131.076V103.448Z" fill="#C72F8C"/>
<path d="M131.076 96.5508H137.973V89.6562H131.076V96.5508Z" fill="#C72F8C"/>
<path d="M137.975 96.5508H144.87V89.6568H137.975V96.5508Z" fill="#C72F8C"/>
<path d="M144.87 89.6568H151.766V82.7598H144.87V89.6568Z" fill="#231F20"/>
<path d="M144.87 103.448H151.766V96.5508H144.87V103.448Z" fill="#E85AAC"/>
<path d="M137.975 110.346L144.869 110.346V103.449H137.975V110.346Z" fill="#C72F8C"/>
<path d="M144.869 96.5516L151.766 96.5508V89.6568H144.87L144.869 96.5516Z" fill="#231F20"/>
<path d="M165.561 165.518H172.456L172.455 158.622H165.561V165.518Z" fill="#C72F8C"/>
<path d="M131.076 89.6562H137.973V82.7598H131.076V89.6562Z" fill="#C72F8C"/>
<path d="M117.283 110.346H124.18V103.449H117.283V110.346Z" fill="#231F20"/>
<path d="M124.178 117.243H131.075V110.346H124.178V117.243Z" fill="#951865"/>
<path d="M117.283 117.242H124.18V110.346H117.283V117.242Z" fill="#231F20"/>
<path d="M117.283 103.448H124.18V96.5508H117.283V103.448Z" fill="#C72F8C"/>
<path d="M117.283 96.5508H124.18V89.6562H117.283V96.5508Z" fill="#C72F8C"/>
<path d="M124.178 124.137H131.075V117.243H124.178V124.137Z" fill="#951865"/>
<path d="M137.975 124.137H144.87L144.869 117.243H137.975V124.137Z" fill="#C72F8C"/>
<path d="M144.87 124.137H151.766V117.243H144.869L144.87 124.137Z" fill="#C72F8C"/>
<path d="M117.283 89.6562H124.18V82.7598H117.283V89.6562Z" fill="#C72F8C"/>
<path d="M131.076 124.137H137.973V117.243H131.076V124.137Z" fill="#951865"/>
<path d="M137.975 82.7598H144.87V75.8633H137.975V82.7598Z" fill="#C72F8C"/>
<path d="M151.768 82.7603L158.662 82.7598V75.8633H151.768V82.7603Z" fill="#C72F8C"/>
<path d="M151.768 96.5516H158.665V89.6562H151.768V96.5516Z" fill="#C72F8C"/>
<path d="M151.768 89.6562H158.665V82.7598L151.768 82.7603V89.6562Z" fill="#C72F8C"/>
<path d="M151.768 103.448H158.665V96.5516H151.768V103.448Z" fill="#C72F8C"/>
<path d="M131.076 82.7598H137.973V75.8633H131.076V82.7598Z" fill="#C72F8C"/>
<path d="M124.178 82.7598H131.075V75.8633H124.178V82.7598Z" fill="#C72F8C"/>
<path d="M117.283 82.7598H124.18V75.8633H117.283V82.7598Z" fill="#FBC707"/>
<path d="M144.87 82.7598H151.766V75.8633H144.87V82.7598Z" fill="#C72F8C"/>
<path d="M151.768 110.346H158.665V103.449H151.768V110.346Z" fill="#C72F8C"/>
<path d="M165.561 117.242H172.456V110.346H165.561V117.242Z" fill="#231F20"/>
<path d="M96.5918 124.137H103.489V117.242H96.5918V124.137Z" fill="#C72F8C"/>
<path d="M96.5918 117.242H103.489V110.346H96.5918V117.242Z" fill="#E641A2"/>
<path d="M96.5918 131.036H103.489V124.139H96.5918V131.036Z" fill="#C72F8C"/>
<path d="M96.5918 110.346H103.489V103.449H96.5918V110.346Z" fill="#231F20"/>
<path d="M103.49 144.828H110.387V137.932H103.49V144.828Z" fill="#C72F8C"/>
<path d="M96.5918 137.932H103.489V131.036H96.5918V137.932Z" fill="#C72F8C"/>
<path d="M110.385 144.828H117.28V137.932H110.385V144.828Z" fill="#951865"/>
<path d="M103.49 137.932H110.387V131.035H103.49V137.932Z" fill="#C72F8C"/>
<path d="M110.385 62.0689H117.28V55.1719H110.385V62.0689Z" fill="#231F20"/>
<path d="M117.283 144.828H124.18V137.932H117.283V144.828Z" fill="#231F20"/>
<path d="M117.283 62.0689H124.18V55.1727H117.283V62.0689Z" fill="#E641A2"/>
<path d="M124.178 62.0689H131.075V55.1727H124.178V62.0689Z" fill="#C72F8C"/>
<path d="M96.5918 68.9656H103.489V62.0703H96.5918V68.9656Z" fill="#231F20"/>
<path d="M96.5918 62.0689H103.489V55.1719H96.5918V62.0689Z" fill="#231F20"/>
<path d="M96.5918 75.8619H103.489V68.9656H96.5918V75.8619Z" fill="#231F20"/>
<path d="M96.5918 82.7603H103.489V75.8633H96.5918V82.7603Z" fill="#231F20"/>
<path d="M124.178 137.932V144.829L131.075 144.827V137.932H124.178Z" fill="#E641A2"/>
<path d="M179.354 103.448H186.251V96.5508H179.354V103.448Z" fill="#C72F8C"/>
<path d="M179.354 96.5508H186.251V89.6562H179.354V96.5508Z" fill="#C72F8C"/>
<path d="M179.354 110.346H186.251V103.449H179.354V110.346Z" fill="#C72F8C"/>
<path d="M179.354 117.243H186.251V110.346H179.354V117.243Z" fill="#C72F8C"/>
<path d="M131.076 62.0689H137.973V55.1727H131.076V62.0689Z" fill="#C72F8C"/>
<path d="M179.354 82.7603H186.251V75.8633H179.354V82.7603Z" fill="#C72F8C"/>
<path d="M179.354 89.6562H186.251V82.7603H179.354V89.6562Z" fill="#C72F8C"/>
<path d="M179.354 75.8619H186.251V68.9648H179.354V75.8619Z" fill="#C72F8C"/>
<path d="M179.354 68.9648H186.251V62.0703H179.354V68.9648Z" fill="#C72F8C"/>
<path d="M179.354 131.036H186.251V124.139H179.354V131.036Z" fill="#231F20"/>
<path d="M179.354 124.137H186.251V117.243H179.354V124.137Z" fill="#951865"/>
<path d="M144.869 144.827H151.766V137.932H144.869V144.827Z" fill="#E641A2"/>
<path d="M137.975 144.827H144.869V137.932H137.975V144.827Z" fill="#E641A2"/>
<path d="M151.768 144.827H158.665V137.932H151.768V144.827Z" fill="#C72F8C"/>
<path d="M179.354 137.932H186.251V131.036H179.354V137.932Z" fill="#E641A2"/>
<path d="M131.076 144.827H137.973V137.932H131.076V144.827Z" fill="#E641A2"/>
<path d="M172.455 144.827H179.352V137.932H172.455V144.827Z" fill="#951865"/>
<path d="M179.354 144.827H186.251V137.932H179.354V144.827Z" fill="#C72F8C"/>
<path d="M158.662 144.827H165.557V137.932H158.662V144.827Z" fill="#C72F8C"/>
<path d="M165.561 144.827H172.455V137.932H165.561V144.827Z" fill="#231F20"/>
<path d="M103.49 124.137H110.387V117.242H103.49V124.137Z" fill="#E641A2"/>
<path d="M110.385 131.036H117.28V124.139H110.385V131.036Z" fill="#E641A2"/>
<path d="M137.975 62.0689H144.87V55.1719L137.975 55.1727V62.0689Z" fill="#C72F8C"/>
<path d="M137.975 68.9648H144.87L144.869 62.0703H137.975V68.9648Z" fill="#C72F8C"/>
<path d="M103.49 117.242H110.387V110.346H103.49V117.242Z" fill="#231F20"/>
<path d="M117.283 137.932H124.18V131.036H117.283V137.932Z" fill="#C72F8C"/>
<path d="M124.178 131.036V137.932H131.075V131.036H124.178Z" fill="#231F20"/>
<path d="M131.076 137.932H137.973V131.036H131.076V137.932Z" fill="#EA72BF"/>
<path d="M110.385 137.932H117.28V131.036H110.385V137.932Z" fill="#C72F8C"/>
<path d="M117.283 68.9648H124.18V62.0703H117.283V68.9648Z" fill="#C72F8C"/>
<path d="M124.178 68.9648H131.075V62.0703H124.178V68.9648Z" fill="#FBC707"/>
<path d="M131.076 68.9648H137.973V62.0703H131.076V68.9648Z" fill="#C72F8C"/>
<path d="M110.385 68.9648H117.28V62.0703H110.385V68.9648Z" fill="#231F20"/>
<path d="M137.975 137.932H144.869L144.87 131.036H137.975V137.932Z" fill="#EA72BF"/>
<path d="M103.49 131.035H110.387V124.139H103.49V131.035Z" fill="#C72F8C"/>
<path d="M172.456 75.8619H179.352V68.9648H172.456V75.8619Z" fill="#C72F8C"/>
<path d="M172.455 68.9656L179.352 68.9648V62.0703H172.456L172.455 68.9656Z" fill="#C72F8C"/>
<path d="M172.456 89.6562L179.352 89.6568V82.7598H172.456V89.6562Z" fill="#C72F8C"/>
<path d="M172.456 82.7598H179.352V75.8633H172.456V82.7598Z" fill="#C72F8C"/>
<path d="M172.455 62.0689H179.352V55.1727H172.455V62.0689Z" fill="#C72F8C"/>
<path d="M144.869 137.932H151.766V131.036H144.87L144.869 137.932Z" fill="#E641A2"/>
<path d="M144.87 62.0689H151.766V55.1727H144.869L144.87 62.0689Z" fill="#C72F8C"/>
<path d="M151.768 62.0689H158.663V55.1727H151.768V62.0689Z" fill="#C72F8C"/>
<path d="M165.561 62.0689H172.455L172.456 55.1719L165.561 55.1727V62.0689Z" fill="#C72F8C"/>
<path d="M158.663 62.0689H165.557V55.1727L158.662 55.1719L158.663 62.0689Z" fill="#C72F8C"/>
<path d="M172.456 96.5516H179.352V89.6568L172.456 89.6562V96.5516Z" fill="#C72F8C"/>
<path d="M165.561 137.932H172.455L172.456 131.036H165.561V137.932Z" fill="#C72F8C"/>
<path d="M158.662 137.932H165.557V131.036H158.662V137.932Z" fill="#C72F8C"/>
<path d="M172.455 137.932H179.352V131.035L172.456 131.036L172.455 137.932Z" fill="#C72F8C"/>
<path d="M172.456 103.448H179.352V96.5516L172.455 96.5508L172.456 103.448Z" fill="#E85AAC"/>
<path d="M151.768 137.932H158.665V131.036H151.768V137.932Z" fill="#E641A2"/>
<path d="M172.456 117.242L179.352 117.243V110.346L172.456 110.346V117.242Z" fill="#C72F8C"/>
<path d="M172.456 131.036L179.352 131.035V124.139H172.456V131.036Z" fill="#C72F8C"/>
<path d="M172.456 110.346L179.352 110.346V103.449H172.456V110.346Z" fill="#231F20"/>
<path d="M172.456 124.137H179.352V117.243L172.456 117.242V124.137Z" fill="#C72F8C"/>
<path d="M158.662 186.207H165.557V179.311H158.662V186.207Z" fill="#951865"/>
<path d="M55.2129 144.829H62.1082V137.932H55.2129V144.829Z" fill="#231F20"/>
<path d="M55.2129 131.036H62.1082V124.139H55.2129V131.036Z" fill="#231F20"/>
<path d="M55.2129 137.932H62.1082V131.036H55.2129V137.932Z" fill="#231F20"/>
<path d="M55.2129 68.9656H62.1099V62.0703H55.2129V68.9656Z" fill="#231F20"/>
<path d="M55.2129 62.0689H62.1099V55.1719H55.2129V62.0689Z" fill="#C72F8C"/>
<path d="M55.2129 55.1719H62.1099V48.2773H55.2129V55.1719Z" fill="#E641A2"/>
<path d="M55.2129 48.2773L62.1082 48.2779V41.3809H55.2129V48.2773Z" fill="#231F20"/>
<path d="M55.2129 165.518H62.1082V158.621H55.2129V165.518Z" fill="#951865"/>
<path d="M55.2129 151.723H62.1082V144.829H55.2129V151.723Z" fill="#C72F8C"/>
<path d="M110.385 186.207H117.28V179.311H110.385V186.207Z" fill="#C72F8C"/>
<path d="M96.5918 186.207H103.489V179.311H96.5918V186.207Z" fill="#C72F8C"/>
<path d="M89.6934 186.207H96.5904V179.311H89.6934V186.207Z" fill="#C59BB1"/>
<path d="M103.49 186.207H110.387V179.311H103.49V186.207Z" fill="#C72F8C"/>
<path d="M124.178 186.207H131.075V179.311H124.178V186.207Z" fill="#C72F8C"/>
<path d="M144.87 186.207H151.766V179.311H144.869L144.87 186.207Z" fill="#C72F8C"/>
<path d="M131.076 186.207H137.973V179.311H131.076V186.207Z" fill="#C72F8C"/>
<path d="M151.768 186.207H158.665V179.311H151.768V186.207Z" fill="#C72F8C"/>
<path d="M137.975 186.207H144.87L144.869 179.311H137.975V186.207Z" fill="#C72F8C"/>
<path d="M117.283 186.207H124.18V179.311H117.283V186.207Z" fill="#C72F8C"/>
<path d="M55.2129 172.413H62.1082V165.518H55.2129V172.413Z" fill="#231F20"/>
<path d="M55.2129 158.621H62.1082V151.725H55.2129V158.621Z" fill="#C72F8C"/>
<path d="M75.9043 186.207H82.8013V179.311H75.9043V186.207Z" fill="#E641A2"/>
<path d="M69.0059 186.207H75.9029V179.311H69.0059V186.207Z" fill="#231F20"/>
<path d="M82.7988 186.207H89.6934V179.311H82.7988V186.207Z" fill="#C72F8C"/>
<path d="M62.1074 186.207H69.0044V179.311H62.1074V186.207Z" fill="#231F20"/>
<path d="M213.834 68.9656H220.729V62.0703H213.834V68.9656Z" fill="#C72F8C"/>
<path d="M213.834 75.8619H220.729V68.9656H213.834V75.8619Z" fill="#C72F8C"/>
<path d="M213.834 82.7603H220.729V75.8633H213.834V82.7603Z" fill="#C72F8C"/>
<path d="M213.834 103.448H220.729V96.5508H213.834V103.448Z" fill="#C72F8C"/>
<path d="M213.834 89.6568H220.729V82.7603H213.834V89.6568Z" fill="#C72F8C"/>
<path d="M213.834 96.5508H220.729V89.6568H213.834V96.5508Z" fill="#C72F8C"/>
<path d="M213.834 48.2779H220.729V41.3809H213.834V48.2779Z" fill="#C72F8C"/>
<path d="M213.834 41.3809H220.729V34.4844H213.834V41.3809Z" fill="#FBC707"/>
<path d="M213.834 34.483H220.729V27.5859H213.834V34.483Z" fill="#C72F8C"/>
<path d="M213.834 62.0689H220.729V55.1719H213.834V62.0689Z" fill="#C72F8C"/>
<path d="M213.834 55.1719H220.729V48.2779H213.834V55.1719Z" fill="#C72F8C"/>
<path d="M213.834 158.622H220.729V151.725H213.834V158.622Z" fill="#C72F8C"/>
<path d="M213.834 151.725H220.729V144.828H213.834V151.725Z" fill="#C72F8C"/>
<path d="M213.834 144.827H220.729V137.932H213.834V144.827Z" fill="#E641A2"/>
<path d="M213.834 165.518H220.729V158.622H213.834V165.518Z" fill="#C72F8C"/>
<path d="M172.456 165.518H179.352V158.622H172.455L172.456 165.518Z" fill="#231F20"/>
<path d="M213.834 117.243H220.729V110.346H213.834V117.243Z" fill="#951865"/>
<path d="M213.834 124.137H220.729V117.243H213.834V124.137Z" fill="#231F20"/>
<path d="M213.834 137.932H220.729V131.035H213.834V137.932Z" fill="#231F20"/>
<path d="M213.834 110.346H220.729V103.449H213.834V110.346Z" fill="#951865"/>
<path d="M165.561 20.6919H172.456V13.7949H165.561V20.6919Z" fill="#E641A2"/>
<path d="M151.768 20.6919H158.665V13.7949H151.768V20.6919Z" fill="#E641A2"/>
<path d="M137.975 20.6919H144.87V13.7949H137.975V20.6919Z" fill="#231F20"/>
<path d="M144.87 20.6919H151.766V13.7949H144.87V20.6919Z" fill="#EB8BC2"/>
<path d="M213.834 27.5859H220.729V20.6914H213.834V27.5859Z" fill="#C72F8C"/>
<path d="M158.662 20.6919H165.557V13.7949H158.662V20.6919Z" fill="#E641A2"/>
<path d="M206.939 20.6919H213.836V13.7949H206.939V20.6919Z" fill="#C72F8C"/>
<path d="M213.834 20.6914H220.729V13.7949H213.834V20.6914Z" fill="#E641A2"/>
<path d="M193.143 20.6919H200.04V13.7949H193.143V20.6919Z" fill="#C72F8C"/>
<path d="M200.041 20.6919H206.938V13.7949H200.041V20.6919Z" fill="#FBC707"/>
<path d="M186.248 20.6919H193.143V13.7949H186.248V20.6919Z" fill="#C72F8C"/>
<path d="M172.456 20.6919H179.352V13.7949H172.456V20.6919Z" fill="#C72F8C"/>
<path d="M179.354 20.6919H186.251V13.7949H179.354V20.6919Z" fill="#C72F8C"/>
<path d="M165.561 186.208H172.456V179.311H165.561V186.208Z" fill="#231F20"/>
<path d="M144.869 13.7935H151.766V6.89648H144.869V13.7935Z" fill="#231F20"/>
<path d="M151.768 13.7935H158.665V6.89648H151.768V13.7935Z" fill="#231F20"/>
<path d="M48.3184 179.311H55.2154V172.416H48.3184V179.311Z" fill="#231F20"/>
<path d="M213.834 172.413H220.729V165.518H213.834V172.413Z" fill="#C72F8C"/>
<path d="M48.3184 151.723H55.2154V144.828H48.3184V151.723Z" fill="#231F20"/>
<path d="M158.662 13.7935H165.557V6.89703H158.662V13.7935Z" fill="#EB8BC2"/>
<path d="M48.3184 172.413H55.2154V165.518H48.3184V172.413Z" fill="#C59BB1"/>
<path d="M48.3184 48.2779H55.2154V41.3809H48.3184V48.2779Z" fill="#231F20"/>
<path d="M48.3184 165.518H55.2154V158.621H48.3184V165.518Z" fill="#951865"/>
<path d="M48.3184 158.621H55.2154V151.725H48.3184V158.621Z" fill="#C72F8C"/>
<path d="M48.3184 75.8619H55.2154V68.9648H48.3184V75.8619Z" fill="#231F20"/>
<path d="M48.3184 68.9648H55.2154V62.0703H48.3184V68.9648Z" fill="#951865"/>
<path d="M48.3184 62.0689H55.2154V55.1719H48.3184V62.0689Z" fill="#C72F8C"/>
<path d="M48.3184 55.1719H55.2154V48.2779H48.3184V55.1719Z" fill="#E641A2"/>
<path d="M220.729 144.827H227.626V137.932H220.729V144.827Z" fill="#231F20"/>
<path d="M220.729 137.932H227.626V131.035H220.729V137.932Z" fill="#231F20"/>
<path d="M220.729 151.725L227.626 151.725V144.828H220.729V151.725Z" fill="#231F20"/>
<path d="M220.729 165.518H227.626V158.621L220.729 158.622V165.518Z" fill="#231F20"/>
<path d="M220.729 158.622L227.626 158.621V151.725L220.729 151.725V158.622Z" fill="#231F20"/>
<path d="M220.729 172.413H227.626V165.518H220.729V172.413Z" fill="#E641A2"/>
<path d="M220.729 103.448H227.626V96.5508H220.729V103.448Z" fill="#C72F8C"/>
<path d="M220.729 117.243H227.626V110.346H220.729V117.243Z" fill="#231F20"/>
<path d="M220.729 131.035H227.626V124.139H220.729L220.729 131.035Z" fill="#231F20"/>
<path d="M220.729 110.346H227.626V103.449H220.729V110.346Z" fill="#951865"/>
<path d="M220.729 179.311H227.626V172.416H220.729V179.311Z" fill="#C72F8C"/>
<path d="M165.561 13.7935H172.456L172.455 6.89703H165.561V13.7935Z" fill="#E641A2"/>
<path d="M220.729 186.207H227.626V179.311H220.729L220.729 186.207Z" fill="#C72F8C"/>
<path d="M213.834 186.207H220.729V179.311H213.834V186.207Z" fill="#951865"/>
<path d="M206.939 186.207H213.836V179.311H206.939V186.207Z" fill="#951865"/>
<path d="M200.041 186.208H206.938V179.311H200.041V186.208Z" fill="#231F20"/>
<path d="M220.729 27.5867H227.626V20.6914H220.729L220.729 27.5867Z" fill="#E641A2"/>
<path d="M213.834 13.7935H220.729V6.89703H213.834V13.7935Z" fill="#E641A2"/>
<path d="M220.729 20.6914H227.626V13.7949H220.729V20.6914Z" fill="#E641A2"/>
<path d="M220.729 13.7935H227.626V6.89648L220.729 6.89703V13.7935Z" fill="#231F20"/>
<path d="M200.041 13.7935H206.938V6.89703H200.041V13.7935Z" fill="#E641A2"/>
<path d="M206.939 13.7935H213.836V6.89703H206.939V13.7935Z" fill="#E641A2"/>
<path d="M193.143 13.7935H200.04V6.89703H193.143V13.7935Z" fill="#E641A2"/>
<path d="M179.354 13.7935H186.251V6.89703H179.354V13.7935Z" fill="#E641A2"/>
<path d="M172.456 13.7935H179.352V6.89703H172.455L172.456 13.7935Z" fill="#E641A2"/>
<path d="M186.248 13.7935H193.143V6.89703H186.248V13.7935Z" fill="#E641A2"/>
<path d="M220.729 96.5516L227.626 96.5508V89.6562L220.729 89.6568L220.729 96.5516Z" fill="#C72F8C"/>
<path d="M220.729 34.483H227.626V27.5867H220.729L220.729 34.483Z" fill="#C72F8C"/>
<path d="M220.729 82.7603H227.626V75.8633H220.729V82.7603Z" fill="#FBC707"/>
<path d="M220.729 68.9656H227.626V62.0703H220.729V68.9656Z" fill="#C72F8C"/>
<path d="M220.729 89.6568L227.626 89.6562V82.7603H220.729V89.6568Z" fill="#C72F8C"/>
<path d="M220.729 75.8619H227.626V68.9656L220.729 68.9648L220.729 75.8619Z" fill="#C72F8C"/>
<path d="M220.729 41.3809L227.626 41.3814V34.4844H220.729V41.3809Z" fill="#C72F8C"/>
<path d="M220.729 48.2779H227.626V41.3814L220.729 41.3809V48.2779Z" fill="#C72F8C"/>
<path d="M220.729 55.1727H227.626V48.2779H220.729L220.729 55.1727Z" fill="#FBC707"/>
<path d="M220.729 62.0689H227.626V55.1727H220.729L220.729 62.0689Z" fill="#C72F8C"/>
<path d="M213.834 131.035H220.729L220.729 124.139H213.834V131.035Z" fill="#951865"/>
<path d="M69.0059 144.829H75.9029V137.932H69.0059V144.829Z" fill="#C72F8C"/>
<path d="M69.0059 110.346H75.9029V103.449H69.0059V110.346Z" fill="#231F20"/>
<path d="M69.0059 131.036H75.9029V124.139H69.0059V131.036Z" fill="#C72F8C"/>
<path d="M69.0059 124.137H75.9029V117.242H69.0059V124.137Z" fill="#E641A2"/>
<path d="M69.0059 117.242H75.9029V110.346H69.0059V117.242Z" fill="#231F20"/>
<path d="M69.0059 137.932H75.9029V131.036H69.0059V137.932Z" fill="#C72F8C"/>
<path d="M69.0059 151.723H75.9029V144.829H69.0059V151.723Z" fill="#951865"/>
<path d="M69.0059 158.622H75.9029V151.725H69.0059V158.622Z" fill="#231F20"/>
<path d="M69.0059 62.0689H75.9029V55.1719H69.0059V62.0689Z" fill="#C72F8C"/>
<path d="M69.0059 55.1719H75.9029V48.2773H69.0059V55.1719Z" fill="#E641A2"/>
<path d="M69.0059 68.9656H75.9029V62.0703H69.0059V68.9656Z" fill="#231F20"/>
<path d="M69.0059 48.2773H75.9029V41.3809H69.0059V48.2773Z" fill="#231F20"/>
<path d="M69.0059 96.5516H75.9029V89.6562H69.0059V96.5516Z" fill="#951865"/>
<path d="M69.0059 89.6562H75.9029V82.7598H69.0059V89.6562Z" fill="#231F20"/>
<path d="M69.0059 103.448H75.9029V96.5516H69.0059V103.448Z" fill="#C59BB1"/>
<path d="M69.0059 82.7598H75.9029V75.8633H69.0059V82.7598Z" fill="#231F20"/>
<path d="M82.7988 172.413H89.6941V165.518H82.7988V172.413Z" fill="#231F20"/>
<path d="M172.455 172.413H179.352V165.518H172.456L172.455 172.413Z" fill="#231F20"/>
<path d="M165.561 172.413H172.455L172.456 165.518H165.561V172.413Z" fill="#C72F8C"/>
<path d="M158.662 172.413H165.557V165.518H158.662V172.413Z" fill="#C72F8C"/>
<path d="M206.939 165.518H213.836V158.621H206.939V165.518Z" fill="#C72F8C"/>
<path d="M151.768 172.413H158.665V165.518H151.768V172.413Z" fill="#C72F8C"/>
<path d="M206.939 172.413H213.836V165.518H206.939V172.413Z" fill="#C72F8C"/>
<path d="M200.041 172.413H206.938V165.518H200.041V172.413Z" fill="#C72F8C"/>
<path d="M193.143 172.413H200.04V165.518H193.143V172.413Z" fill="#231F20"/>
<path d="M103.49 172.413H110.387V165.518H103.49V172.413Z" fill="#231F20"/>
<path d="M96.5918 172.413H103.489V165.518H96.5918V172.413Z" fill="#231F20"/>
<path d="M89.6941 172.413H96.5904V165.518H89.6941V172.413Z" fill="#231F20"/>
<path d="M110.385 172.413H117.28V165.518H110.385V172.413Z" fill="#231F20"/>
<path d="M137.975 172.413H144.87V165.518H137.975V172.413Z" fill="#231F20"/>
<path d="M144.87 172.413H151.766V165.518H144.87V172.413Z" fill="#231F20"/>
<path d="M200.041 89.6568H206.938V82.7598H200.041V89.6568Z" fill="#C72F8C"/>
<path d="M206.939 158.621H213.836V151.725H206.939V158.621Z" fill="#C72F8C"/>
<path d="M200.041 103.448H206.938V96.5508H200.041V103.448Z" fill="#C72F8C"/>
<path d="M200.041 110.346H206.938V103.449H200.041V110.346Z" fill="#C72F8C"/>
<path d="M200.041 124.137H206.938V117.242H200.041V124.137Z" fill="#231F20"/>
<path d="M200.041 117.242H206.938V110.346H200.041V117.242Z" fill="#951865"/>
<path d="M200.041 62.0689H206.938V55.1719H200.041V62.0689Z" fill="#C72F8C"/>
<path d="M200.041 82.7598H206.938V75.8633H200.041V82.7598Z" fill="#C72F8C"/>
<path d="M200.041 68.9656H206.938V62.0703H200.041V68.9656Z" fill="#C72F8C"/>
<path d="M200.041 55.1719H206.938V48.2773H200.041V55.1719Z" fill="#C72F8C"/>
<path d="M200.041 75.8619H206.938V68.9656H200.041V75.8619Z" fill="#C72F8C"/>
<path d="M193.143 165.518H200.04V158.622H193.143V165.518Z" fill="#231F20"/>
<path d="M200.041 165.518H206.938V158.621H200.041V165.518Z" fill="#C72F8C"/>
<path d="M179.354 165.518H186.251V158.622H179.354V165.518Z" fill="#231F20"/>
<path d="M213.834 179.311H220.729L220.729 172.416H213.834V179.311Z" fill="#C72F8C"/>
<path d="M200.041 137.932H206.938V131.035H200.041V137.932Z" fill="#E641A2"/>
<path d="M200.041 144.827H206.938V137.932H200.041V144.827Z" fill="#C72F8C"/>
<path d="M200.041 158.621H206.938V151.725H200.041V158.621Z" fill="#C72F8C"/>
<path d="M200.041 131.035H206.938V124.139H200.041V131.035Z" fill="#EA72BF"/>
<path d="M200.041 96.5508H206.938V89.6568H200.041V96.5508Z" fill="#C72F8C"/>
<path d="M124.178 34.483H131.075V27.5859H124.178V34.483Z" fill="#231F20"/>
<path d="M144.869 34.483H151.766V27.5859H144.869V34.483Z" fill="#E641A2"/>
<path d="M137.975 34.483H144.869V27.5859H137.975V34.483Z" fill="#E641A2"/>
<path d="M131.076 34.483H137.973V27.5859H131.076V34.483Z" fill="#EB8BC2"/>
<path d="M158.662 34.483H165.557V27.5859H158.662V34.483Z" fill="#C72F8C"/>
<path d="M200.041 34.483H206.938V27.5859H200.041V34.483Z" fill="#C72F8C"/>
<path d="M186.248 34.483H193.143V27.5859H186.248V34.483Z" fill="#C72F8C"/>
<path d="M151.768 34.483H158.665V27.5859H151.768V34.483Z" fill="#C72F8C"/>
<path d="M200.041 41.3814H206.938V34.4844H200.041V41.3814Z" fill="#C72F8C"/>
<path d="M193.143 34.483H200.04V27.5859H193.143V34.483Z" fill="#C72F8C"/>
<path d="M179.354 34.483H186.251V27.5859H179.354V34.483Z" fill="#C72F8C"/>
<path d="M200.041 48.2773H206.938V41.3814H200.041V48.2773Z" fill="#C72F8C"/>
<path d="M165.561 34.483H172.456V27.5859H165.561V34.483Z" fill="#C72F8C"/>
<path d="M172.456 34.483H179.352V27.5859H172.456V34.483Z" fill="#C72F8C"/>
<path d="M200.041 151.725H206.938V144.828H200.041V151.725Z" fill="#C72F8C"/>
<path d="M62.1082 144.829H69.0044V137.932H62.1082V144.829Z" fill="#C72F8C"/>
<path d="M62.1074 117.243H69.0044V110.346H62.1074V117.243Z" fill="#231F20"/>
<path d="M62.1074 124.137H69.0044V117.243H62.1074V124.137Z" fill="#231F20"/>
<path d="M62.1082 131.036H69.0044V124.139H62.1082V131.036Z" fill="#E641A2"/>
<path d="M62.1082 151.723H69.0044V144.829H62.1082V151.723Z" fill="#C72F8C"/>
<path d="M62.1113 48.2779H69.0084V41.3809H62.1113V48.2779Z" fill="#231F20"/>
<path d="M62.1082 165.518H69.0044V158.621H62.1082V165.518Z" fill="#231F20"/>
<path d="M62.1082 158.621H69.0044V151.725H62.1082V158.621Z" fill="#C72F8C"/>
<path d="M62.1082 137.932H69.0044V131.036H62.1082V137.932Z" fill="#C72F8C"/>
<path d="M62.1074 110.346H69.0044V103.449H62.1074V110.346Z" fill="#231F20"/>
<path d="M62.1074 62.0689H69.0044V55.1719H62.1074V62.0689Z" fill="#C72F8C"/>
<path d="M62.1074 55.1719H69.0044V48.2773L62.1082 48.2779L62.1074 55.1719Z" fill="#E641A2"/>
<path d="M62.1074 68.9656H69.0044V62.0703H62.1074V68.9656Z" fill="#231F20"/>
<path d="M62.1074 96.5516H69.0044V89.6562H62.1074V96.5516Z" fill="#231F20"/>
<path d="M62.1074 103.448H69.0044V96.5516H62.1074V103.448Z" fill="#231F20"/>
<path d="M165.561 179.311H172.456V172.416H165.561V179.311Z" fill="#951865"/>
<path d="M172.455 179.311H179.352V172.416H172.456L172.455 179.311Z" fill="#231F20"/>
<path d="M158.662 179.311H165.557V172.416H158.662V179.311Z" fill="#C72F8C"/>
<path d="M151.768 179.311H158.665V172.416H151.768V179.311Z" fill="#C72F8C"/>
<path d="M200.041 179.311H206.938V172.416H200.041V179.311Z" fill="#951865"/>
<path d="M206.939 179.311H213.836V172.416H206.939V179.311Z" fill="#C72F8C"/>
<path d="M144.869 179.311H151.766V172.416H144.869V179.311Z" fill="#C72F8C"/>
<path d="M193.143 179.311H200.04V172.416H193.143V179.311Z" fill="#231F20"/>
<path d="M110.385 179.311H117.28V172.416H110.385V179.311Z" fill="#E641A2"/>
<path d="M89.6934 179.311H96.5904V172.416H89.6934V179.311Z" fill="#E641A2"/>
<path d="M103.49 179.311H110.387V172.416H103.49V179.311Z" fill="#E641A2"/>
<path d="M96.5918 179.311H103.489V172.416H96.5918V179.311Z" fill="#E641A2"/>
<path d="M82.7988 179.311L89.6941 179.311L89.6934 172.416H82.7988V179.311Z" fill="#E641A2"/>
<path d="M131.076 179.311H137.973V172.416H131.076V179.311Z" fill="#231F20"/>
<path d="M124.178 179.311H131.075V172.416H124.178V179.311Z" fill="#231F20"/>
<path d="M75.9043 179.311H82.8013V172.416H75.9043V179.311Z" fill="#231F20"/>
<path d="M137.975 179.311L144.87 179.311L144.869 172.416H137.975V179.311Z" fill="#231F20"/>
<path d="M117.283 179.311H124.18V172.416H117.283V179.311Z" fill="#231F20"/>
<path d="M206.939 48.2779H213.836V41.3809H206.939V48.2779Z" fill="#C72F8C"/>
<path d="M206.939 55.1727H213.836V48.2779H206.939V55.1727Z" fill="#C72F8C"/>
<path d="M206.939 62.0689H213.836V55.1727H206.939V62.0689Z" fill="#C72F8C"/>
<path d="M206.939 75.8619H213.836V68.9648H206.939V75.8619Z" fill="#C72F8C"/>
<path d="M193.143 27.5867L200.04 27.5859V20.6919H193.143V27.5867Z" fill="#C72F8C"/>
<path d="M206.939 34.483H213.836V27.5859H206.939V34.483Z" fill="#C72F8C"/>
<path d="M206.939 27.5859H213.836V20.6919H206.939V27.5859Z" fill="#C72F8C"/>
<path d="M206.939 41.3809H213.836V34.4844H206.939V41.3809Z" fill="#C72F8C"/>
<path d="M200.041 27.5859H206.938V20.6919H200.041V27.5859Z" fill="#C72F8C"/>
<path d="M206.939 82.7603H213.836V75.8633H206.939V82.7603Z" fill="#C72F8C"/>
<path d="M206.939 68.9648H213.836V62.0703H206.939V68.9648Z" fill="#C72F8C"/>
<path d="M206.939 124.137H213.836V117.242H206.939V124.137Z" fill="#620F39"/>
<path d="M206.939 137.932H213.836V131.035H206.939V137.932Z" fill="#EA72BF"/>
<path d="M206.939 131.035H213.836V124.139H206.939V131.035Z" fill="#231F20"/>
<path d="M206.939 144.827H213.836V137.932H206.939V144.827Z" fill="#E641A2"/>
<path d="M206.939 103.448H213.836V96.5508H206.939V103.448Z" fill="#FBC707"/>
<path d="M206.939 96.5508H213.836V89.6562H206.939V96.5508Z" fill="#C72F8C"/>
<path d="M206.939 89.6562H213.836V82.7603H206.939V89.6562Z" fill="#C72F8C"/>
<path d="M206.939 117.242H213.836V110.346H206.939V117.242Z" fill="#951865"/>
<path d="M206.939 110.346H213.836V103.449H206.939V110.346Z" fill="#C72F8C"/>
<path d="M206.939 151.725H213.836V144.828H206.939V151.725Z" fill="#C72F8C"/>
<path d="M131.076 27.5859H137.973V20.6914H131.076V27.5859Z" fill="#231F20"/>
<path d="M158.662 27.5859H165.557V20.6919H158.662V27.5859Z" fill="#C72F8C"/>
<path d="M165.561 27.5859H172.456V20.6919H165.561V27.5859Z" fill="#C72F8C"/>
<path d="M172.455 27.5867L179.352 27.5859V20.6919H172.456L172.455 27.5867Z" fill="#C72F8C"/>
<path d="M179.354 27.5859H186.251V20.6919H179.354V27.5859Z" fill="#C72F8C"/>
<path d="M186.248 27.5859H193.143L193.143 20.6919H186.248V27.5859Z" fill="#C72F8C"/>
<path d="M137.975 27.5859L144.872 27.5867V20.6914L137.975 20.6919V27.5859Z" fill="#EB8BC2"/>
<path d="M144.869 27.5859H151.766V20.6919H144.87L144.869 27.5859Z" fill="#E641A2"/>
<path d="M151.768 27.5859H158.665V20.6919H151.768V27.5859Z" fill="#E641A2"/>
<path d="M296.592 110.346H303.489V103.449H296.592V110.346Z" fill="#231F20"/>
<path d="M296.592 172.413H303.489V165.518H296.592V172.413Z" fill="#231F20"/>
<path d="M296.592 96.5516H303.489V89.6562H296.592V96.5516Z" fill="#231F20"/>
<path d="M296.592 103.448H303.489V96.5516H296.592V103.448Z" fill="#E641A2"/>
<path d="M303.49 103.448H310.387V96.5508H303.49V103.448Z" fill="#231F20"/>
<path d="M0.0410156 158.622H6.93804V151.725H0.0410156V158.622Z" fill="#231F20"/>
<path d="M275.904 89.6568H282.801V82.7598H275.904V89.6568Z" fill="#231F20"/>
<path d="M275.904 96.5516H282.801V89.6568H275.904V96.5516Z" fill="#E641A2"/>
<path d="M275.904 110.346H282.801V103.449H275.904V110.346Z" fill="#231F20"/>
<path d="M275.904 103.448H282.801V96.5516H275.904V103.448Z" fill="#951865"/>
<path d="M275.904 158.622H282.801V151.725H275.904V158.622Z" fill="#E641A2"/>
<path d="M275.904 172.413H282.801V165.518H275.904V172.413Z" fill="#231F20"/>
<path d="M275.904 151.725H282.801V144.828H275.904V151.725Z" fill="#231F20"/>
<path d="M275.904 165.518H282.801V158.622H275.904V165.518Z" fill="#C72F8C"/>
<path d="M269.01 124.137H275.905V117.242H269.01V124.137Z" fill="#231F20"/>
<path d="M6.93945 165.518H13.8348L13.834 158.622L6.93945 158.621V165.518Z" fill="#231F20"/>
<path d="M6.93945 151.723H13.834V144.829L6.93945 144.828V151.723Z" fill="#231F20"/>
<path d="M6.93945 158.621L13.834 158.622V151.725H6.93945V158.621Z" fill="#E641A2"/>
<path d="M269.01 158.622H275.904V151.725H269.01V158.622Z" fill="#E641A2"/>
<path d="M269.01 165.518L275.904 165.518V158.622H269.01V165.518Z" fill="#C72F8C"/>
<path d="M269.01 151.725H275.904V144.828H269.01V151.725Z" fill="#231F20"/>
<path d="M269.01 172.413H275.904V165.518L269.01 165.518V172.413Z" fill="#231F20"/>
<path d="M269.01 131.036H275.905V124.139H269.01V131.036Z" fill="#231F20"/>
<path d="M269.01 117.242H275.905L275.904 110.346L269.01 110.346V117.242Z" fill="#231F20"/>
<path d="M269.01 110.346L275.904 110.346V103.449H269.01V110.346Z" fill="#951865"/>
<path d="M269.01 96.5516H275.904V89.6568L269.01 89.6562V96.5516Z" fill="#E641A2"/>
<path d="M269.01 89.6562L275.904 89.6568V82.7598H269.01V89.6562Z" fill="#231F20"/>
<path d="M269.01 103.448H275.904L275.905 96.5508L269.01 96.5516V103.448Z" fill="#C72F8C"/>
<path d="M289.697 103.448H296.594V96.5508H289.697V103.448Z" fill="#231F20"/>
<path d="M289.697 96.5508H296.594V89.6562H289.697V96.5508Z" fill="#E641A2"/>
<path d="M289.697 89.6562H296.594V82.7598H289.697V89.6562Z" fill="#231F20"/>
<path d="M289.697 179.311H296.594V172.416H289.697V179.311Z" fill="#231F20"/>
<path d="M289.697 172.413H296.594V165.518H289.697V172.413Z" fill="#E641A2"/>
<path d="M289.697 165.518H296.594V158.621H289.697V165.518Z" fill="#231F20"/>
<path d="M282.799 89.6568H289.694V82.7598H282.799V89.6568Z" fill="#231F20"/>
<path d="M282.799 96.5516H289.694V89.6568H282.799V96.5516Z" fill="#E641A2"/>
<path d="M282.799 158.622H289.694V151.725H282.799V158.622Z" fill="#231F20"/>
<path d="M282.799 103.448H289.694V96.5516H282.799V103.448Z" fill="#231F20"/>
<path d="M282.799 165.518H289.694V158.622H282.799V165.518Z" fill="#E641A2"/>
<path d="M282.799 179.311H289.694V172.416H282.799V179.311Z" fill="#231F20"/>
<path d="M282.799 172.413H289.694V165.518H282.799V172.413Z" fill="#951865"/>
</svg>
