<svg width="279" height="200" viewBox="0 0 279 200" fill="none" xmlns="http://www.w3.org/2000/svg">
<path d="M26.418 129.032H32.8701V122.58H26.418V129.032Z" fill="#231F20"/>
<path d="M26.418 141.935H32.87V135.484H26.418V141.935Z" fill="#A87C74"/>
<path d="M26.418 148.388H32.8701L32.87 141.935H26.418L26.418 148.388Z" fill="#A87C74"/>
<path d="M26.418 135.484H32.87L32.8701 129.033H26.418L26.418 135.484Z" fill="#A87C74"/>
<path d="M39.4689 154.839H45.921V148.387H39.4689V154.839Z" fill="#231F20"/>
<path d="M39.4689 161.292H45.921V154.84H39.4689V161.292Z" fill="#805A55"/>
<path d="M39.4688 167.742H45.9209L45.921 161.292H39.4689L39.4688 167.742Z" fill="#231F20"/>
<path d="M26.418 122.58H32.8701V116.129H26.418V122.58Z" fill="#906761"/>
<path d="M103.84 12.9052H110.292V6.45312H103.84V12.9052Z" fill="#BF9288"/>
<path d="M97.3868 12.9052H103.839V6.45312H97.3868V12.9052Z" fill="#231F20"/>
<path d="M110.293 12.9052H116.745V6.45312H110.293V12.9052Z" fill="#231F20"/>
<path d="M58.6797 12.9052H65.1318V6.45312H58.6797V12.9052Z" fill="#231F20"/>
<path d="M26.418 109.679H32.8701V103.227H26.418V109.679Z" fill="#A87C74"/>
<path d="M26.418 90.3215H32.8701V83.8711H26.418V90.3215Z" fill="#231F20"/>
<path d="M26.418 103.225H32.8701V96.7734H26.418V103.225Z" fill="#A87C74"/>
<path d="M26.418 96.7734H32.8701V90.3215H26.418V96.7734Z" fill="#231F20"/>
<path d="M103.84 6.45203H110.292V0H103.84V6.45203Z" fill="#231F20"/>
<path d="M19.9688 129.032H26.4192V122.58H19.9688V129.032Z" fill="#906761"/>
<path d="M19.9688 135.485H26.4192V129.033H19.9688V135.485Z" fill="#A87C74"/>
<path d="M219.969 116.128H226.421V109.678H219.969V116.128Z" fill="#A87C74"/>
<path d="M219.969 77.4188H226.421V70.9668H219.969V77.4188Z" fill="#B6968D"/>
<path d="M219.969 109.678H226.421V103.227H219.969V109.678Z" fill="#A87C74"/>
<path d="M219.969 129.032H226.421V122.58H219.969V129.032Z" fill="#A87C74"/>
<path d="M219.969 135.485H226.421V129.033H219.969V135.485Z" fill="#A87C74"/>
<path d="M219.969 122.58H226.421V116.128H219.969V122.58Z" fill="#906761"/>
<path d="M219.969 90.3215H226.421V83.8711H219.969V90.3215Z" fill="#231F20"/>
<path d="M219.969 83.8711H226.421V77.4199H219.969V83.8711Z" fill="#B6968D"/>
<path d="M219.969 103.225H226.421V96.7734H219.969V103.225Z" fill="#A87C74"/>
<path d="M219.969 96.7734H226.421V90.3215H219.969V96.7734Z" fill="#906761"/>
<path d="M219.969 141.934H226.421V135.482H219.969V141.934Z" fill="#906761"/>
<path d="M219.969 187.095H226.421V180.645H219.969V187.095Z" fill="#805A55"/>
<path d="M219.969 193.548H226.421V187.095H219.969V193.548Z" fill="#805A55"/>
<path d="M219.969 199.999H226.421V193.548H219.969V199.999Z" fill="#231F20"/>
<path d="M219.969 180.645H226.421L226.421 174.193H219.969L219.969 180.645Z" fill="#805A55"/>
<path d="M219.969 174.193H226.421L226.421 167.742H219.969L219.969 174.193Z" fill="#5F3F3C"/>
<path d="M219.969 161.29H226.421V154.84H219.969V161.29Z" fill="#5F3F3C"/>
<path d="M219.969 154.839H226.421V148.387H219.969V154.839Z" fill="#76534E"/>
<path d="M219.969 148.387H226.421V141.936H219.969V148.387Z" fill="#76534E"/>
<path d="M219.969 167.742H226.421V161.29H219.969V167.742Z" fill="#231F20"/>
<path d="M219.969 45.163H226.421V38.7109H219.969V45.163Z" fill="#CAAAA0"/>
<path d="M219.969 58.0653H226.421V51.6133H219.969V58.0653Z" fill="#CAAAA0"/>
<path d="M219.969 51.6133H226.421V45.163H219.969V51.6133Z" fill="#CAAAA0"/>
<path d="M219.969 64.5149H226.421V58.0653H219.969V64.5149Z" fill="#B6968D"/>
<path d="M219.969 70.9668H226.421V64.5149H219.969V70.9668Z" fill="#B6968D"/>
<path d="M219.969 25.8059H226.421V19.3555H219.969V25.8059Z" fill="#231F20"/>
<path d="M219.969 32.2587H226.421L226.421 25.8059H219.969L219.969 32.2587Z" fill="#E3C5BB"/>
<path d="M219.969 38.7098H226.421L226.421 32.2587H219.969L219.969 38.7098Z" fill="#CAAAA0"/>
<path d="M149 193.548H155.452V187.096H149V193.548Z" fill="#906761"/>
<path d="M207.066 64.5149H213.518V58.0645H207.066V64.5149Z" fill="#A87C74"/>
<path d="M207.066 58.0645H213.518V51.6133H207.066V58.0645Z" fill="#906761"/>
<path d="M207.066 70.9677H213.518L213.518 64.5149H207.066L207.066 70.9677Z" fill="#A87C74"/>
<path d="M207.066 83.8719H213.518V77.4199H207.066V83.8719Z" fill="#A87C74"/>
<path d="M207.066 77.4188H213.518L213.518 70.9677H207.066L207.066 77.4188Z" fill="#A87C74"/>
<path d="M207.066 45.163H213.518V38.7109H207.066V45.163Z" fill="#B6968D"/>
<path d="M207.066 38.7098H213.518V32.2578H207.066V38.7098Z" fill="#CAAAA0"/>
<path d="M207.066 32.2578H213.518L213.518 25.8066H207.066L207.066 32.2578Z" fill="#E3C5BB"/>
<path d="M207.066 25.8066H213.518L213.518 19.3555H207.066L207.066 25.8066Z" fill="#231F20"/>
<path d="M52.2267 19.3563H58.6788V12.9043H52.2267V19.3563Z" fill="#231F20"/>
<path d="M58.6788 19.3563H65.1318V12.9052H58.6797L58.6788 19.3563Z" fill="#BF9288"/>
<path d="M65.129 19.3563H71.5794V12.9043H65.129V19.3563Z" fill="#231F20"/>
<path d="M110.293 19.3563H116.745V12.9052H110.293V19.3563Z" fill="#231F20"/>
<path d="M207.066 90.3215H213.518V83.8719H207.066V90.3215Z" fill="#A87C74"/>
<path d="M90.9376 19.3563H97.388V12.9043H90.9376V19.3563Z" fill="#231F20"/>
<path d="M103.84 19.3563H110.292V12.9052H103.84V19.3563Z" fill="#A87C74"/>
<path d="M97.3868 19.3563H103.839V12.9052H97.3868V19.3563Z" fill="#BF9288"/>
<path d="M207.066 51.6133H213.518V45.163H207.066V51.6133Z" fill="#231F20"/>
<path d="M116.742 193.548H123.193V187.096H116.742V193.548Z" fill="#231F20"/>
<path d="M123.195 193.548H129.647V187.096H123.195V193.548Z" fill="#231F20"/>
<path d="M129.645 193.548H136.097V187.096H129.645V193.548Z" fill="white"/>
<path d="M155.453 193.548H161.905V187.096H155.453V193.548Z" fill="#231F20"/>
<path d="M136.097 193.548H142.548V187.096H136.097V193.548Z" fill="#906761"/>
<path d="M142.551 193.548H149.001V187.096H142.551V193.548Z" fill="white"/>
<path d="M19.9688 141.935H26.4192L26.4192 135.485H19.9688L19.9688 141.935Z" fill="#A87C74"/>
<path d="M207.066 187.095H213.518V180.645H207.066V187.095Z" fill="#805A55"/>
<path d="M207.066 135.485H213.518V129.033H207.066V135.485Z" fill="#A87C74"/>
<path d="M207.066 141.934H213.518V135.482H207.066V141.934Z" fill="#A87C74"/>
<path d="M207.066 154.839H213.518V148.387H207.066V154.839Z" fill="#76534E"/>
<path d="M207.066 161.29H213.518V154.84H207.066V161.29Z" fill="#5F3F3C"/>
<path d="M207.066 148.387H213.518V141.936H207.066V148.387Z" fill="#906761"/>
<path d="M207.066 103.225H213.518V96.7734H207.066V103.225Z" fill="#A87C74"/>
<path d="M207.066 109.679H213.518V103.227H207.066V109.679Z" fill="#A87C74"/>
<path d="M207.066 122.581H213.518V116.129H207.066V122.581Z" fill="#A87C74"/>
<path d="M207.066 116.129H213.518V109.679H207.066V116.129Z" fill="#A87C74"/>
<path d="M207.066 129.032H213.518V122.581H207.066V129.032Z" fill="#A87C74"/>
<path d="M194.16 193.548H200.612V187.096H194.16V193.548Z" fill="#231F20"/>
<path d="M200.613 193.548H207.065V187.096H200.613V193.548Z" fill="white"/>
<path d="M207.066 167.741H213.518L213.518 161.29H207.066L207.066 167.741Z" fill="#231F20"/>
<path d="M207.066 180.645H213.518L213.518 174.193H207.066L207.066 180.645Z" fill="#805A55"/>
<path d="M207.066 174.193H213.518V167.741H207.066V174.193Z" fill="#5F3F3C"/>
<path d="M207.066 96.7734H213.518V90.3215H207.066V96.7734Z" fill="#A87C74"/>
<path d="M207.066 193.548H213.518V187.095H207.066V193.548Z" fill="#805A55"/>
<path d="M213.516 174.194H219.966V167.742H213.516V174.194Z" fill="#5F3F3C"/>
<path d="M213.516 167.742H219.966L219.966 161.291H213.516L213.516 167.742Z" fill="#231F20"/>
<path d="M213.516 187.095H219.966V180.645H213.516V187.095Z" fill="#805A55"/>
<path d="M213.516 180.645H219.966V174.194H213.516V180.645Z" fill="#805A55"/>
<path d="M213.516 193.548H219.966V187.095H213.516V193.548Z" fill="#805A55"/>
<path d="M213.516 161.291H219.966L219.966 154.84H213.516L213.516 161.291Z" fill="#5F3F3C"/>
<path d="M213.516 141.934H219.966V135.482H213.516V141.934Z" fill="#A87C74"/>
<path d="M213.516 135.485H219.966V129.033H213.516V135.485Z" fill="#A87C74"/>
<path d="M155.453 199.999H161.905V193.548H155.453V199.999Z" fill="#231F20"/>
<path d="M213.516 199.999H219.966V193.548H213.516V199.999Z" fill="#231F20"/>
<path d="M194.16 199.999H200.612V193.548H194.16V199.999Z" fill="#231F20"/>
<path d="M200.613 200.001H207.065V193.549H200.613V200.001Z" fill="#231F20"/>
<path d="M207.066 199.999H213.518V193.548H207.066V199.999Z" fill="#231F20"/>
<path d="M213.516 129.032H219.966V122.58H213.516V129.032Z" fill="#A87C74"/>
<path d="M213.516 154.839H219.966V148.387H213.516V154.839Z" fill="#76534E"/>
<path d="M213.516 25.8059H219.966V19.3555H213.516V25.8059Z" fill="#231F20"/>
<path d="M213.516 38.7098H219.966V32.2578H213.516V38.7098Z" fill="#CAAAA0"/>
<path d="M213.516 32.2578H219.966V25.8059H213.516V32.2578Z" fill="#E3C5BB"/>
<path d="M213.516 45.163H219.966V38.7109H213.516V45.163Z" fill="#CAAAA0"/>
<path d="M213.516 51.6125H219.966V45.163H213.516V51.6125Z" fill="#B6968D"/>
<path d="M213.516 58.0653H219.966V51.6125H213.516V58.0653Z" fill="#231F20"/>
<path d="M213.516 83.8719H219.966V77.4199H213.516V83.8719Z" fill="#231F20"/>
<path d="M213.516 96.7743H219.966V90.3223H213.516V96.7743Z" fill="#A87C74"/>
<path d="M213.516 109.679H219.966V103.227H213.516V109.679Z" fill="#A87C74"/>
<path d="M213.516 64.5149H219.966V58.0653H213.516V64.5149Z" fill="#231F20"/>
<path d="M213.516 116.128H219.966V109.679H213.516V116.128Z" fill="#A87C74"/>
<path d="M213.516 103.225H219.966V96.7743H213.516V103.225Z" fill="#A87C74"/>
<path d="M213.516 70.9677H219.966L219.966 64.5149H213.516L213.516 70.9677Z" fill="#231F20"/>
<path d="M213.516 77.4188H219.966L219.966 70.9677H213.516L213.516 77.4188Z" fill="#231F20"/>
<path d="M213.516 122.58H219.966V116.128H213.516V122.58Z" fill="#A87C74"/>
<path d="M213.516 90.3223H219.966V83.8719H213.516V90.3223Z" fill="#906761"/>
<path d="M213.516 148.387H219.966V141.936H213.516V148.387Z" fill="#906761"/>
<path d="M32.8711 141.935H39.3231V135.484H32.8711V141.935Z" fill="#231F20"/>
<path d="M32.8711 135.484H39.3231L39.3232 129.033H32.8712L32.8711 135.484Z" fill="#A87C74"/>
<path d="M32.8712 122.581H39.3232V116.129H32.8712V122.581Z" fill="#231F20"/>
<path d="M32.8712 148.388H39.3232L39.3231 141.935H32.8711L32.8712 148.388Z" fill="#A87C74"/>
<path d="M32.8712 129.032H39.3232V122.581H32.8712V129.032Z" fill="#A87C74"/>
<path d="M45.921 154.839H52.374V148.387H45.921V154.839Z" fill="#231F20"/>
<path d="M32.8712 116.129H39.3232V109.678H32.8712V116.129Z" fill="#A87C74"/>
<path d="M45.9219 167.741H52.3739V161.291H45.9219V167.741Z" fill="#231F20"/>
<path d="M45.9219 161.291H52.3739L52.374 154.84H45.921L45.9219 161.291Z" fill="#805A55"/>
<path d="M32.8712 77.4188H39.3232V70.9668H32.8712V77.4188Z" fill="#231F20"/>
<path d="M32.8712 83.8719H39.3232V77.4199H32.8712V83.8719Z" fill="#231F20"/>
<path d="M32.8712 96.7743H39.3232V90.3223H32.8712V96.7743Z" fill="#A87C74"/>
<path d="M32.8712 103.225H39.3232V96.7743H32.8712V103.225Z" fill="#A87C74"/>
<path d="M32.8712 109.678H39.3232V103.227H32.8712V109.678Z" fill="#231F20"/>
<path d="M32.8712 90.3223H39.3232V83.8719H32.8712V90.3223Z" fill="#BF9288"/>
<path d="M149 200.001H155.452V193.549H149V200.001Z" fill="#231F20"/>
<path d="M136.097 200.001H142.548V193.549H136.097V200.001Z" fill="#231F20"/>
<path d="M142.551 199.999H149.001V193.548H142.551V199.999Z" fill="#231F20"/>
<path d="M123.195 199.999H129.647V193.548H123.195V199.999Z" fill="#231F20"/>
<path d="M129.645 199.999H136.097V193.548H129.645V199.999Z" fill="#231F20"/>
<path d="M232.871 180.645H239.323V174.193H232.871V180.645Z" fill="#231F20"/>
<path d="M232.871 174.193H239.323L239.323 167.742H232.871L232.871 174.193Z" fill="#231F20"/>
<path d="M232.871 135.485H239.323V129.033H232.871V135.485Z" fill="#906761"/>
<path d="M232.871 167.742H239.323L239.323 161.291H232.871L232.871 167.742Z" fill="#906761"/>
<path d="M232.871 154.839H239.323V148.387H232.871V154.839Z" fill="#906761"/>
<path d="M232.871 141.934H239.323V135.482H232.871V141.934Z" fill="#76534E"/>
<path d="M232.871 148.387H239.323V141.936H232.871V148.387Z" fill="#231F20"/>
<path d="M232.871 161.291H239.323L239.323 154.84H232.871L232.871 161.291Z" fill="#906761"/>
<path d="M232.871 45.163H239.323V38.7109H232.871V45.163Z" fill="#CAAAA0"/>
<path d="M232.871 38.7098H239.323V32.2578H232.871V38.7098Z" fill="#CAAAA0"/>
<path d="M232.871 58.0653H239.323V51.6133H232.871V58.0653Z" fill="#CAAAA0"/>
<path d="M232.871 32.2578H239.323L239.323 25.8066H232.871L232.871 32.2578Z" fill="#E3C5BB"/>
<path d="M232.871 51.6133H239.323V45.163H232.871V51.6133Z" fill="#CAAAA0"/>
<path d="M232.871 129.032H239.323V122.58H232.871V129.032Z" fill="#A87C74"/>
<path d="M232.871 64.5149H239.323V58.0653H232.871V64.5149Z" fill="#CAAAA0"/>
<path d="M232.871 25.8066H239.323L239.323 19.3555H232.871L232.871 25.8066Z" fill="#231F20"/>
<path d="M232.871 116.128H239.323V109.678H232.871V116.128Z" fill="#A87C74"/>
<path d="M232.871 109.678H239.323V103.227H232.871V109.678Z" fill="#906761"/>
<path d="M232.871 122.58H239.323V116.128H232.871V122.58Z" fill="#A87C74"/>
<path d="M232.871 103.225H239.323V96.7734H232.871V103.225Z" fill="#231F20"/>
<path d="M232.871 90.3215H239.323V83.8711H232.871V90.3215Z" fill="#CAAAA0"/>
<path d="M232.871 77.4188H239.323V70.9668H232.871V77.4188Z" fill="#CAAAA0"/>
<path d="M232.871 83.8711H239.323V77.4199H232.871V83.8711Z" fill="#CAAAA0"/>
<path d="M232.871 70.9668H239.323V64.5149H232.871V70.9668Z" fill="#CAAAA0"/>
<path d="M232.871 96.7734H239.323V90.3215H232.871V96.7734Z" fill="#B6968D"/>
<path d="M239.324 141.934H245.775V135.482H239.324V141.934Z" fill="#76534E"/>
<path d="M239.324 148.388H245.775V141.936H239.324V148.388Z" fill="#231F20"/>
<path d="M239.324 135.485H245.775V129.033H239.324V135.485Z" fill="#76534E"/>
<path d="M239.324 161.29H245.775V154.84H239.324V161.29Z" fill="#A87C74"/>
<path d="M239.324 167.742H245.775L245.775 161.29H239.324L239.324 167.742Z" fill="#A87C74"/>
<path d="M239.324 154.839H245.775V148.388H239.324V154.839Z" fill="#906761"/>
<path d="M239.324 109.679H245.775V103.227H239.324V109.679Z" fill="#231F20"/>
<path d="M239.324 129.032H245.775V122.58H239.324V129.032Z" fill="#906761"/>
<path d="M239.324 116.128H245.775V109.679H239.324V116.128Z" fill="#906761"/>
<path d="M239.324 122.58H245.775V116.128H239.324V122.58Z" fill="#A87C74"/>
<path d="M239.324 200.001H245.775V193.549H239.324V200.001Z" fill="#231F20"/>
<path d="M239.324 180.646H245.775V174.194H239.324V180.646Z" fill="#A87C74"/>
<path d="M239.324 187.095H245.775V180.645H239.324V187.095Z" fill="#231F20"/>
<path d="M239.324 174.194H245.775V167.742H239.324V174.194Z" fill="#A87C74"/>
<path d="M239.324 193.548H245.775V187.095H239.324V193.548Z" fill="#231F20"/>
<path d="M7.06647 135.485H13.5185V129.033H7.06647V135.485Z" fill="#A87C74"/>
<path d="M7.06641 141.935H13.5184L13.5185 135.485H7.06647L7.06641 141.935Z" fill="#A87C74"/>
<path d="M20.1133 161.292H26.5654V154.84H20.1133V161.292Z" fill="#805A55"/>
<path d="M7.06647 148.388H13.5185L13.5184 141.935H7.06641L7.06647 148.388Z" fill="#A87C74"/>
<path d="M20.1133 167.741H26.5653L26.5654 161.292H20.1133L20.1133 167.741Z" fill="#231F20"/>
<path d="M20.1133 154.839H26.5654V148.387H20.1133V154.839Z" fill="#976D66"/>
<path d="M226.418 116.128H232.87V109.678H226.418V116.128Z" fill="#A87C74"/>
<path d="M226.418 122.581H232.87V116.128H226.418V122.581Z" fill="#A87C74"/>
<path d="M226.418 109.678H232.87V103.227H226.418V109.678Z" fill="#A87C74"/>
<path d="M226.418 129.032H232.87V122.581H226.418V129.032Z" fill="#A87C74"/>
<path d="M226.418 135.485H232.87V129.033H226.418V135.485Z" fill="#906761"/>
<path d="M226.418 90.3215H232.87V83.8711H226.418V90.3215Z" fill="#B6968D"/>
<path d="M226.418 77.4188H232.87V70.9668H226.418V77.4188Z" fill="#CAAAA0"/>
<path d="M226.418 141.934H232.87V135.482H226.418V141.934Z" fill="#76534E"/>
<path d="M226.418 96.7743H232.87V90.3215H226.418V96.7743Z" fill="#231F20"/>
<path d="M226.418 103.225H232.87V96.7743H226.418V103.225Z" fill="#906761"/>
<path d="M226.418 83.8711H232.87V77.4199H226.418V83.8711Z" fill="#CAAAA0"/>
<path d="M226.418 187.095H232.87V180.645H226.418V187.095Z" fill="#231F20"/>
<path d="M226.418 193.548H232.87V187.095H226.418V193.548Z" fill="#231F20"/>
<path d="M226.418 148.388H232.87V141.936H226.418V148.388Z" fill="#76534E"/>
<path d="M226.418 199.999H232.87V193.548H226.418V199.999Z" fill="#231F20"/>
<path d="M226.418 174.194H232.87V167.742H226.418V174.194Z" fill="#5F3F3C"/>
<path d="M226.418 154.839H232.87V148.388H226.418V154.839Z" fill="#231F20"/>
<path d="M226.418 161.29H232.87V154.84H226.418V161.29Z" fill="#231F20"/>
<path d="M226.418 167.742H232.87V161.29H226.418V167.742Z" fill="#231F20"/>
<path d="M226.418 180.645H232.87V174.194H226.418V180.645Z" fill="#5F3F3C"/>
<path d="M226.418 25.8059H232.87V19.3555H226.418V25.8059Z" fill="#231F20"/>
<path d="M226.418 45.163H232.87V38.7109H226.418V45.163Z" fill="#B6968D"/>
<path d="M226.418 58.0653H232.87V51.6133H226.418V58.0653Z" fill="#CAAAA0"/>
<path d="M226.418 51.6133H232.87V45.163H226.418V51.6133Z" fill="#CAAAA0"/>
<path d="M226.418 64.5149H232.87V58.0653H226.418V64.5149Z" fill="#CAAAA0"/>
<path d="M226.418 38.7098H232.87V32.2578H226.418V38.7098Z" fill="#CAAAA0"/>
<path d="M226.418 70.9668H232.87V64.5149H226.418V70.9668Z" fill="#CAAAA0"/>
<path d="M226.418 32.2578H232.87V25.8059H226.418V32.2578Z" fill="#E3C5BB"/>
<path d="M33.0196 161.292H39.47V154.84H33.0196V161.292Z" fill="#805A55"/>
<path d="M33.0195 167.741H39.47L39.47 161.292H33.0196L33.0195 167.741Z" fill="#231F20"/>
<path d="M33.0196 154.839H39.47V148.387H33.0196V154.839Z" fill="#231F20"/>
<path d="M26.5664 167.742H33.0184V161.291H26.5664V167.742Z" fill="#231F20"/>
<path d="M13.5157 135.485H19.9677V129.033H13.5157V135.485Z" fill="#A87C74"/>
<path d="M13.5157 148.388H19.9677V141.936H13.5157V148.388Z" fill="#A87C74"/>
<path d="M13.5157 141.936H19.9677V135.485H13.5157V141.936Z" fill="#231F20"/>
<path d="M26.5665 154.839H33.0185V148.387H26.5665V154.839Z" fill="#231F20"/>
<path d="M26.5664 161.291H33.0184L33.0185 154.84H26.5665L26.5664 161.291Z" fill="#805A55"/>
<path d="M19.9688 148.388H26.4192L26.4192 141.935H19.9688L19.9688 148.388Z" fill="#A87C74"/>
<path d="M123.195 135.485H129.647V129.033H123.195V135.485Z" fill="#B6968D"/>
<path d="M168.356 77.4188H174.806V70.9668H168.356V77.4188Z" fill="#CAAAA0"/>
<path d="M168.356 58.0653H174.806V51.6133H168.356V58.0653Z" fill="#CAAAA0"/>
<path d="M155.453 58.0653H161.905V51.6133H155.453V58.0653Z" fill="#CAAAA0"/>
<path d="M168.356 64.5149H174.806V58.0653H168.356V64.5149Z" fill="#CAAAA0"/>
<path d="M168.356 70.9668H174.806V64.5149H168.356V70.9668Z" fill="#CAAAA0"/>
<path d="M161.906 58.0653H168.358V51.6133H161.906V58.0653Z" fill="#B6968D"/>
<path d="M129.645 58.0653H136.097V51.6133H129.645V58.0653Z" fill="#CAAAA0"/>
<path d="M149 58.0653H155.452V51.6133H149V58.0653Z" fill="#CAAAA0"/>
<path d="M136.097 58.0653H142.549V51.6133H136.097V58.0653Z" fill="#CAAAA0"/>
<path d="M161.906 64.5149H168.358V58.0653H161.906V64.5149Z" fill="#CAAAA0"/>
<path d="M168.356 96.7743H174.806V90.3223H168.356V96.7743Z" fill="#CAAAA0"/>
<path d="M168.356 129.032H174.806V122.58H168.356V129.032Z" fill="#CAAAA0"/>
<path d="M168.356 122.58H174.806V116.129H168.356V122.58Z" fill="#CAAAA0"/>
<path d="M168.356 83.8719H174.806V77.4199H168.356V83.8719Z" fill="#CAAAA0"/>
<path d="M168.356 135.485H174.806V129.033H168.356V135.485Z" fill="#B6968D"/>
<path d="M168.356 116.129H174.806V109.678H168.356V116.129Z" fill="#CAAAA0"/>
<path d="M168.356 141.934H174.806V135.482H168.356V141.934Z" fill="#B6968D"/>
<path d="M123.195 58.0653H129.647V51.6133H123.195V58.0653Z" fill="#CAAAA0"/>
<path d="M168.356 109.678H174.806V103.227H168.356V109.678Z" fill="#CAAAA0"/>
<path d="M168.356 90.3223H174.806V83.8719H168.356V90.3223Z" fill="#CAAAA0"/>
<path d="M168.356 103.225H174.806V96.7743H168.356V103.225Z" fill="#CAAAA0"/>
<path d="M71.5821 77.4188H78.0341V70.9668H71.5821V77.4188Z" fill="#A87C74"/>
<path d="M71.5821 96.7743H78.0341V90.3223H71.5821V96.7743Z" fill="#A87C74"/>
<path d="M71.5821 103.225H78.0341V96.7743H71.5821V103.225Z" fill="#A87C74"/>
<path d="M71.5821 109.679H78.0341V103.227H71.5821V109.679Z" fill="#A87C74"/>
<path d="M71.5821 90.3223H78.0341V83.8711H71.5821V90.3223Z" fill="#A87C74"/>
<path d="M71.5821 83.8711H78.0341V77.4199H71.5821V83.8711Z" fill="#A87C74"/>
<path d="M71.5821 116.128H78.0341V109.679H71.5821V116.128Z" fill="#A87C74"/>
<path d="M71.5821 129.032H78.0341V122.58H71.5821V129.032Z" fill="#A87C74"/>
<path d="M71.5821 135.485H78.0341V129.033H71.5821V135.485Z" fill="#A87C74"/>
<path d="M71.5821 122.58H78.0341V116.128H71.5821V122.58Z" fill="#A87C74"/>
<path d="M168.356 148.388H174.806V141.936H168.356V148.388Z" fill="#A0817A"/>
<path d="M103.84 58.0653H110.292V51.6133H103.84V58.0653Z" fill="#231F20"/>
<path d="M116.742 58.0653H123.193V51.6133H116.742V58.0653Z" fill="#CAAAA0"/>
<path d="M97.3868 58.0653H103.839V51.6133H97.3868V58.0653Z" fill="#A87C74"/>
<path d="M71.5821 70.9668H78.0341L78.0341 64.5156H71.582L71.5821 70.9668Z" fill="#A87C74"/>
<path d="M110.293 58.0653H116.745V51.6133H110.293V58.0653Z" fill="#B6968D"/>
<path d="M90.9376 58.0653H97.388V51.6133H90.9376V58.0653Z" fill="#A87C74"/>
<path d="M71.5821 58.0653H78.0341V51.6133H71.5821V58.0653Z" fill="#A87C74"/>
<path d="M71.582 64.5156H78.0341L78.0341 58.0653H71.5821L71.582 64.5156Z" fill="#A87C74"/>
<path d="M84.4844 58.0653H90.9365V51.6133H84.4844V58.0653Z" fill="#A87C74"/>
<path d="M78.0313 58.0653H84.4833V51.6133H78.0313V58.0653Z" fill="#A87C74"/>
<path d="M78.0313 148.388H84.4833V141.936H78.0313V148.388Z" fill="#231F20"/>
<path d="M78.0312 70.9677H84.4833V64.5156H78.0312V70.9677Z" fill="#A87C74"/>
<path d="M78.0312 64.5156H84.4833L84.4833 58.0653H78.0313L78.0312 64.5156Z" fill="#A87C74"/>
<path d="M90.9376 64.5149H97.388V58.0653H90.9376V64.5149Z" fill="#A87C74"/>
<path d="M84.4844 64.5149H90.9365V58.0653H84.4844V64.5149Z" fill="#A87C74"/>
<path d="M78.0313 77.4188H84.4833L84.4833 70.9677H78.0312L78.0313 77.4188Z" fill="#A87C74"/>
<path d="M78.0313 103.225H84.4833V96.7734H78.0313V103.225Z" fill="#A87C74"/>
<path d="M97.3868 64.5149H103.839V58.0653H97.3868V64.5149Z" fill="#A87C74"/>
<path d="M78.0313 109.679H84.4833V103.227H78.0313V109.679Z" fill="#A87C74"/>
<path d="M78.0313 90.3215H84.4833V83.8711H78.0313V90.3215Z" fill="#A87C74"/>
<path d="M78.0313 83.8711H84.4833V77.4199H78.0313V83.8711Z" fill="#A87C74"/>
<path d="M78.0313 96.7734H84.4833V90.3215H78.0313V96.7734Z" fill="#A87C74"/>
<path d="M136.097 64.5149H142.549V58.0653L136.097 58.0645V64.5149Z" fill="#CAAAA0"/>
<path d="M168.356 154.839H174.806V148.388H168.356V154.839Z" fill="#5F3F3C"/>
<path d="M103.84 64.5149H110.292V58.0653H103.84V64.5149Z" fill="#76534E"/>
<path d="M155.453 64.5149H161.905V58.0653H155.453V64.5149Z" fill="#CAAAA0"/>
<path d="M142.551 64.5149H149.001V58.0645H142.551V64.5149Z" fill="#CAAAA0"/>
<path d="M129.645 64.5149H136.097L136.097 58.0653H129.645V64.5149Z" fill="#CAAAA0"/>
<path d="M110.293 64.5149H116.745V58.0653H110.293V64.5149Z" fill="#231F20"/>
<path d="M116.742 64.5149H123.193V58.0653H116.742V64.5149Z" fill="#CAAAA0"/>
<path d="M123.195 64.5149H129.647V58.0653H123.195V64.5149Z" fill="#CAAAA0"/>
<path d="M149 64.5149H155.452V58.0653H149V64.5149Z" fill="#CAAAA0"/>
<path d="M129.645 154.839H136.097V148.387H129.645V154.839Z" fill="#906761"/>
<path d="M136.097 154.839H142.548V148.387H136.097V154.839Z" fill="#906761"/>
<path d="M103.84 154.839H110.292V148.387H103.84V154.839Z" fill="#5F3F3C"/>
<path d="M110.293 148.387V154.839H116.745V148.387H110.293Z" fill="#231F20"/>
<path d="M116.742 154.839H123.193V148.387H116.742V154.839Z" fill="#A0817A"/>
<path d="M78.0313 116.128H84.4833V109.679H78.0313V116.128Z" fill="#A87C74"/>
<path d="M161.906 154.839H168.358V148.387H161.906V154.839Z" fill="#A0817A"/>
<path d="M142.551 154.839H149.001V148.387H142.551V154.839Z" fill="#906761"/>
<path d="M155.453 154.839H161.905V148.387H155.453V154.839Z" fill="#A0817A"/>
<path d="M149 154.839H155.452V148.387H149V154.839Z" fill="#231F20"/>
<path d="M123.195 154.839H129.647V148.387H123.195V154.839Z" fill="#231F20"/>
<path d="M78.0313 129.032H84.4833V122.58H78.0313V129.032Z" fill="#A87C74"/>
<path d="M78.0313 135.485H84.4833V129.033H78.0313V135.485Z" fill="#976D66"/>
<path d="M78.0313 122.58H84.4833V116.128H78.0313V122.58Z" fill="#A87C74"/>
<path d="M78.0313 141.936H84.4833V135.485H78.0313V141.936Z" fill="#805A55"/>
<path d="M71.582 141.935H78.0341L78.0341 135.485H71.5821L71.582 141.935Z" fill="#976D66"/>
<path d="M97.3868 154.839H103.839V148.387H97.3868V154.839Z" fill="#231F20"/>
<path d="M84.4844 148.388H90.9365V141.936H84.4844V148.388Z" fill="#231F20"/>
<path d="M142.551 58.0645H149.001V51.6133H142.551V58.0645Z" fill="#CAAAA0"/>
<path d="M65.129 77.4188H71.5794V70.9668H65.129V77.4188Z" fill="#A87C74"/>
<path d="M65.129 51.6125H71.5794V45.1621H65.129V51.6125Z" fill="#A87C74"/>
<path d="M65.129 83.8719H71.5794V77.4199H65.129V83.8719Z" fill="#A87C74"/>
<path d="M65.129 64.5149H71.5794V58.0645H65.129V64.5149Z" fill="#A87C74"/>
<path d="M65.129 58.0645H71.5794V51.6125H65.129V58.0645Z" fill="#A87C74"/>
<path d="M65.129 70.9668H71.5794V64.5149H65.129V70.9668Z" fill="#A87C74"/>
<path d="M65.129 90.3215H71.5794V83.8719H65.129V90.3215Z" fill="#231F20"/>
<path d="M65.129 109.679H71.581V103.227H65.129V109.679Z" fill="#A87C74"/>
<path d="M65.129 103.225H71.5794V96.7734H65.129V103.225Z" fill="#BF9288"/>
<path d="M65.129 96.7734H71.5794V90.3215H65.129V96.7734Z" fill="#231F20"/>
<path d="M123.195 51.6133H129.647V45.1621H123.195V51.6133Z" fill="#B6968D"/>
<path d="M103.84 51.6133H110.292V45.1621H103.84V51.6133Z" fill="#231F20"/>
<path d="M116.742 51.6133H123.193V45.1621H116.742V51.6133Z" fill="#CAAAA0"/>
<path d="M110.293 51.6133H116.745V45.1621H110.293V51.6133Z" fill="#CAAAA0"/>
<path d="M65.129 116.128H71.5794V109.678L65.129 109.679V116.128Z" fill="#A87C74"/>
<path d="M90.9376 51.6133H97.388V45.1621H90.9376V51.6133Z" fill="#A87C74"/>
<path d="M84.4844 51.6133H90.9365V45.1621H84.4844V51.6133Z" fill="#A87C74"/>
<path d="M129.648 51.6125H136.099V45.1621H129.648V51.6125Z" fill="#CAAAA0"/>
<path d="M97.3868 51.6133H103.839V45.1621H97.3868V51.6133Z" fill="#A87C74"/>
<path d="M71.5821 51.6133H78.0341V45.1621H71.5821V51.6133Z" fill="#A87C74"/>
<path d="M78.0313 51.6133H84.4833V45.1621H78.0313V51.6133Z" fill="#A87C74"/>
<path d="M110.293 161.291V167.741H116.745V161.289L110.293 161.291Z" fill="#805A55"/>
<path d="M103.84 167.741H110.292V161.291H103.84V167.741Z" fill="#805A55"/>
<path d="M97.3867 167.741H103.839V161.291H97.3867V167.741Z" fill="#231F20"/>
<path d="M116.742 167.741H123.193V161.291H116.742V167.741Z" fill="#5F3F3C"/>
<path d="M123.195 167.741H129.647V161.291H123.195V167.741Z" fill="#231F20"/>
<path d="M136.097 167.742H142.548V161.291H136.097V167.742Z" fill="#A87C74"/>
<path d="M142.551 167.741H149.001V161.291H142.551V167.741Z" fill="#A87C74"/>
<path d="M129.645 167.741L136.097 167.742V161.291L129.645 161.291V167.741Z" fill="#A87C74"/>
<path d="M65.1289 141.935H71.5793V135.484H65.1289V141.935Z" fill="#A87C74"/>
<path d="M65.1289 135.484H71.5793L71.5794 129.033H65.129L65.1289 135.484Z" fill="#A87C74"/>
<path d="M65.129 148.388H71.5794L71.5793 141.935H65.1289L65.129 148.388Z" fill="#976D66"/>
<path d="M65.129 129.032H71.5794V122.58H65.129V129.032Z" fill="#A87C74"/>
<path d="M65.129 122.58H71.5794V116.128H65.129V122.58Z" fill="#A87C74"/>
<path d="M161.906 161.29H168.358V154.84H161.906V161.29Z" fill="#231F20"/>
<path d="M123.195 161.291H129.647L129.647 154.84H123.195L123.195 161.291Z" fill="#906761"/>
<path d="M142.551 161.291H149.001L149.001 154.84H142.551L142.551 161.291Z" fill="#A87C74"/>
<path d="M155.453 161.29H161.905V154.84H155.453V161.29Z" fill="#231F20"/>
<path d="M129.645 161.291L136.097 161.29V154.84H129.645L129.645 161.291Z" fill="#A87C74"/>
<path d="M136.097 161.291H142.548L142.548 154.84H136.097L136.097 161.291Z" fill="#A87C74"/>
<path d="M149 161.29H155.452V154.84H149V161.29Z" fill="#906761"/>
<path d="M174.809 161.29H181.261V154.84H174.809V161.29Z" fill="#5F3F3C"/>
<path d="M174.809 154.839H181.261V148.387H174.809V154.839Z" fill="#76534E"/>
<path d="M168.356 161.29H174.806V154.84H168.356V161.29Z" fill="#5F3F3C"/>
<path d="M71.5821 148.388H78.0341L78.0341 141.935H71.582L71.5821 148.388Z" fill="#805A55"/>
<path d="M174.809 148.387H181.261V141.936H174.809V148.387Z" fill="#231F20"/>
<path d="M116.742 161.291H123.193L123.193 154.84H116.742L116.742 161.291Z" fill="#231F20"/>
<path d="M110.293 154.84V161.292L116.745 161.29V154.84H110.293Z" fill="#5F3F3C"/>
<path d="M103.84 161.291H110.292L110.292 154.84H103.84L103.84 161.291Z" fill="#805A55"/>
<path d="M97.3867 161.291H103.839L103.839 154.84H97.3868L97.3867 161.291Z" fill="#231F20"/>
<path d="M136.097 51.6125H142.548V45.1621H136.097V51.6125Z" fill="#CAAAA0"/>
<path d="M174.809 58.0653H181.261V51.6133H174.809V58.0653Z" fill="#CAAAA0"/>
<path d="M168.356 51.6133H174.806V45.1621H168.356V51.6133Z" fill="#CAAAA0"/>
<path d="M174.809 51.6133H181.261V45.1621H174.809V51.6133Z" fill="#231F20"/>
<path d="M174.809 70.9677H181.261V64.5156H174.809V70.9677Z" fill="#CAAAA0"/>
<path d="M174.809 141.934H181.261V135.482H174.809V141.934Z" fill="#231F20"/>
<path d="M142.551 51.6133H149.001V45.1621H142.551V51.6133Z" fill="#CAAAA0"/>
<path d="M174.809 77.4188H181.261L181.261 70.9677H174.809L174.809 77.4188Z" fill="#CAAAA0"/>
<path d="M149 51.6133H155.452V45.1621H149V51.6133Z" fill="#CAAAA0"/>
<path d="M155.453 51.6133H161.905V45.1621H155.453V51.6133Z" fill="#CAAAA0"/>
<path d="M161.906 51.6133H168.358V45.1621H161.906V51.6133Z" fill="#CAAAA0"/>
<path d="M174.809 64.5156H181.261L181.261 58.0653H174.809L174.809 64.5156Z" fill="#CAAAA0"/>
<path d="M174.809 129.032H181.261V122.58H174.809V129.032Z" fill="#B6968D"/>
<path d="M174.809 122.58H181.261V116.129H174.809V122.58Z" fill="#CAAAA0"/>
<path d="M174.809 135.485H181.261V129.033H174.809V135.485Z" fill="#A0817A"/>
<path d="M174.809 83.8719H181.261V77.4199H174.809V83.8719Z" fill="#CAAAA0"/>
<path d="M174.809 116.129H181.261V109.678H174.809V116.129Z" fill="#CAAAA0"/>
<path d="M174.809 90.3215H181.261V83.8719H174.809V90.3215Z" fill="#CAAAA0"/>
<path d="M174.809 109.678H181.261V103.227H174.809V109.678Z" fill="#CAAAA0"/>
<path d="M174.809 96.7743H181.261V90.3215H174.809V96.7743Z" fill="#CAAAA0"/>
<path d="M174.809 103.225H181.261V96.7743H174.809V103.225Z" fill="#CAAAA0"/>
<path d="M129.645 116.128H136.097V109.678H129.645V116.128Z" fill="#CAAAA0"/>
<path d="M97.3868 83.8719H103.839V77.4199H97.3868V83.8719Z" fill="#A87C74"/>
<path d="M97.3868 90.3215H103.839V83.8719H97.3868V90.3215Z" fill="#A87C74"/>
<path d="M97.3868 129.032H103.839V122.58H97.3868V129.032Z" fill="#A87C74"/>
<path d="M103.84 83.8719H110.292V77.4199H103.84V83.8719Z" fill="#A87C74"/>
<path d="M110.293 83.8719H116.745V77.4199H110.293V83.8719Z" fill="#A87C74"/>
<path d="M97.3868 96.7743H103.839V90.3215H97.3868V96.7743Z" fill="#A87C74"/>
<path d="M97.3868 103.225H103.839V96.7743H97.3868V103.225Z" fill="#906761"/>
<path d="M97.3868 116.128H103.839V109.678H97.3868V116.128Z" fill="#A87C74"/>
<path d="M97.3868 122.58H103.839V116.128H97.3868V122.58Z" fill="#A87C74"/>
<path d="M97.3868 109.678H103.839V103.227H97.3868V109.678Z" fill="#A87C74"/>
<path d="M116.742 83.8719H123.193V77.4199H116.742V83.8719Z" fill="#231F20"/>
<path d="M142.551 103.225H149.001V96.7734H142.551V103.225Z" fill="#CAAAA0"/>
<path d="M123.195 83.8719H129.647V77.4199H123.195V83.8719Z" fill="#B6968D"/>
<path d="M142.551 109.679H149.001V103.227H142.551V109.679Z" fill="#CAAAA0"/>
<path d="M142.551 122.581H149.001V116.129H142.551V122.581Z" fill="#CAAAA0"/>
<path d="M142.551 116.129H149.001V109.679H142.551V116.129Z" fill="#CAAAA0"/>
<path d="M142.551 96.7734H149.001V90.3223H142.551V96.7734Z" fill="#CAAAA0"/>
<path d="M129.645 83.8719H136.097V77.4199H129.645V83.8719Z" fill="#CAAAA0"/>
<path d="M136.097 83.8719H142.549V77.4199H136.097V83.8719Z" fill="#CAAAA0"/>
<path d="M142.551 83.8719H149.001V77.4199H142.551V83.8719Z" fill="#CAAAA0"/>
<path d="M142.551 90.3223H149.001V83.8719H142.551V90.3223Z" fill="#CAAAA0"/>
<path d="M149 116.128H155.452V109.678H149V116.128Z" fill="#CAAAA0"/>
<path d="M149 103.225H155.452V96.7734H149V103.225Z" fill="#CAAAA0"/>
<path d="M149 96.7734H155.452V90.3223H149V96.7734Z" fill="#CAAAA0"/>
<path d="M149 109.678H155.452V103.227H149V109.678Z" fill="#CAAAA0"/>
<path d="M149 90.3223H155.452V83.8711H149V90.3223Z" fill="#CAAAA0"/>
<path d="M142.551 129.032H149.001V122.581H142.551V129.032Z" fill="#CAAAA0"/>
<path d="M103.84 129.032H110.292V122.58H103.84V129.032Z" fill="#976D66"/>
<path d="M161.906 70.9677H168.358L168.358 64.5149H161.906L161.906 70.9677Z" fill="#CAAAA0"/>
<path d="M149 83.8711H155.452V77.4199H149V83.8711Z" fill="#CAAAA0"/>
<path d="M142.551 77.4188H149.001V70.9668H142.551V77.4188Z" fill="#CAAAA0"/>
<path d="M149 77.4188H155.452V70.9668H149V77.4188Z" fill="#CAAAA0"/>
<path d="M136.097 77.4188H142.549V70.9668H136.097V77.4188Z" fill="#CAAAA0"/>
<path d="M116.742 135.485H123.193V129.033H116.742V135.485Z" fill="#B6968D"/>
<path d="M110.293 129.033V135.485H116.745V129.033H110.293Z" fill="#231F20"/>
<path d="M103.84 135.485H110.292V129.033H103.84V135.485Z" fill="#805A55"/>
<path d="M239.324 103.225H245.775V96.7734H239.324V103.225Z" fill="#B6968D"/>
<path d="M149 129.032H155.452V122.58H149V129.032Z" fill="#CAAAA0"/>
<path d="M142.551 135.485H149.001V129.033H142.551V135.485Z" fill="#B6968D"/>
<path d="M149 135.485H155.452V129.033H149V135.485Z" fill="#B6968D"/>
<path d="M136.097 135.485H142.548V129.033H136.097V135.485Z" fill="#B6968D"/>
<path d="M129.645 135.485H136.097V129.033H129.645V135.485Z" fill="#B6968D"/>
<path d="M136.097 129.032H142.548V122.58H136.097V129.032Z" fill="#CAAAA0"/>
<path d="M110.293 109.679H116.745V103.227H110.293V109.679Z" fill="#A87C74"/>
<path d="M110.293 103.225H116.745V96.7734H110.293V103.225Z" fill="#A87C74"/>
<path d="M129.645 77.4188H136.097V70.9668H129.645V77.4188Z" fill="#CAAAA0"/>
<path d="M110.293 96.7734H116.745V90.3223H110.293V96.7734Z" fill="#A87C74"/>
<path d="M110.293 116.128H116.745V109.679H110.293V116.128Z" fill="#A87C74"/>
<path d="M123.195 96.7743H129.647V90.3223H123.195V96.7743Z" fill="#B6968D"/>
<path d="M129.645 122.581H136.097V116.128H129.645V122.581Z" fill="#CAAAA0"/>
<path d="M136.097 122.58H142.548V116.129H136.097V122.58Z" fill="#CAAAA0"/>
<path d="M123.195 122.581H129.647V116.129H123.195V122.581Z" fill="#B6968D"/>
<path d="M116.742 122.581H123.193V116.129H116.742V122.581Z" fill="#231F20"/>
<path d="M116.742 116.129H123.193V109.678H116.742V116.129Z" fill="#231F20"/>
<path d="M123.195 109.679H129.647V103.227H123.195V109.679Z" fill="#B6968D"/>
<path d="M116.742 109.678H123.193V103.227H116.742V109.678Z" fill="#231F20"/>
<path d="M116.742 103.225H123.193V96.7734H116.742V103.225Z" fill="#231F20"/>
<path d="M123.195 103.225H129.647V96.7743H123.195V103.225Z" fill="#B6968D"/>
<path d="M129.645 96.7743H136.097V90.3223H129.645V96.7743Z" fill="#CAAAA0"/>
<path d="M129.645 109.678H136.097V103.227H129.645V109.678Z" fill="#CAAAA0"/>
<path d="M123.195 116.129H129.647V109.679H123.195V116.129Z" fill="#B6968D"/>
<path d="M129.645 103.225H136.097V96.7743H129.645V103.225Z" fill="#CAAAA0"/>
<path d="M149 167.742H155.452L155.452 161.29H149L149 167.742Z" fill="#A87C74"/>
<path d="M116.742 96.7734H123.193V90.3223H116.742V96.7734Z" fill="#231F20"/>
<path d="M103.84 116.128H110.292V109.678H103.84V116.128Z" fill="#A87C74"/>
<path d="M110.293 122.581H116.745V116.128H110.293V122.581Z" fill="#976D66"/>
<path d="M103.84 122.58H110.292V116.128H103.84V122.58Z" fill="#A87C74"/>
<path d="M103.84 109.678H110.292V103.227H103.84V109.678Z" fill="#A87C74"/>
<path d="M103.84 103.225H110.292V96.7734H103.84V103.225Z" fill="#A87C74"/>
<path d="M110.293 129.032H116.745V122.581H110.293V129.032Z" fill="#805A55"/>
<path d="M123.195 129.032H129.647V122.581H123.195V129.032Z" fill="#B6968D"/>
<path d="M129.645 129.032H136.097L136.097 122.581H129.645V129.032Z" fill="#B6968D"/>
<path d="M103.84 96.7734H110.292V90.3223H103.84V96.7734Z" fill="#A87C74"/>
<path d="M116.742 129.032H123.193V122.581H116.742V129.032Z" fill="#231F20"/>
<path d="M123.195 90.3223H129.647V83.8719H123.195V90.3223Z" fill="#B6968D"/>
<path d="M136.097 90.3215H142.549V83.8719L136.097 83.8711V90.3215Z" fill="#CAAAA0"/>
<path d="M136.097 103.225H142.548V96.7734H136.097L136.097 103.225Z" fill="#CAAAA0"/>
<path d="M136.097 96.7734H142.548V90.3223L136.097 90.3215V96.7734Z" fill="#CAAAA0"/>
<path d="M136.097 109.679H142.548V103.227H136.097L136.097 109.679Z" fill="#CAAAA0"/>
<path d="M116.742 90.3223H123.193V83.8719H116.742V90.3223Z" fill="#231F20"/>
<path d="M110.293 90.3223H116.745V83.8719H110.293V90.3223Z" fill="#A87C74"/>
<path d="M103.84 90.3223H110.292V83.8719H103.84V90.3223Z" fill="#A87C74"/>
<path d="M129.645 90.3223H136.097V83.8719H129.645V90.3223Z" fill="#CAAAA0"/>
<path d="M136.097 116.129H142.548V109.679H136.097V116.129Z" fill="#CAAAA0"/>
<path d="M149 122.58H155.452V116.128H149V122.58Z" fill="#CAAAA0"/>
<path d="M84.4844 129.032H90.9365V122.58H84.4844V129.032Z" fill="#A87C74"/>
<path d="M84.4844 122.58H90.9365V116.129H84.4844V122.58Z" fill="#A87C74"/>
<path d="M84.4844 135.485H90.9365V129.033H84.4844V135.485Z" fill="#976D66"/>
<path d="M84.4844 116.129H90.9365V109.678H84.4844V116.129Z" fill="#A87C74"/>
<path d="M84.4844 109.678H90.9365V103.227H84.4844V109.678Z" fill="#A87C74"/>
<path d="M90.9376 148.388H97.388V141.936H90.9376V148.388Z" fill="#231F20"/>
<path d="M84.4844 141.936H90.9365V135.485H84.4844V141.936Z" fill="#805A55"/>
<path d="M84.4844 103.225H90.9365V96.7734H84.4844V103.225Z" fill="#A87C74"/>
<path d="M90.9376 141.936H97.388L97.3879 135.484H90.9375L90.9376 141.936Z" fill="#805A55"/>
<path d="M97.3867 70.9677H103.839L103.839 64.5149H97.3868L97.3867 70.9677Z" fill="#A87C74"/>
<path d="M103.84 148.387H110.292V141.936H103.84V148.387Z" fill="#231F20"/>
<path d="M103.84 70.9677H110.292L110.292 64.5149H103.84L103.84 70.9677Z" fill="#A87C74"/>
<path d="M110.293 70.9677H116.745L116.745 64.5149H110.293L110.293 70.9677Z" fill="#231F20"/>
<path d="M90.9375 70.9677H97.3879L97.388 64.5149H90.9376L90.9375 70.9677Z" fill="#A87C74"/>
<path d="M84.4844 77.4188H90.9365V70.9668H84.4844V77.4188Z" fill="#A87C74"/>
<path d="M84.4844 70.9668H90.9365V64.5149H84.4844V70.9668Z" fill="#A87C74"/>
<path d="M84.4844 83.8719H90.9365V77.4199H84.4844V83.8719Z" fill="#A87C74"/>
<path d="M84.4844 90.3215H90.9365V83.8719H84.4844V90.3215Z" fill="#906761"/>
<path d="M84.4844 96.7734H90.9365V90.3215H84.4844V96.7734Z" fill="#A87C74"/>
<path d="M110.293 141.936V148.387H116.745V141.936H110.293Z" fill="#A0817A"/>
<path d="M161.906 109.679H168.358V103.227H161.906V109.679Z" fill="#CAAAA0"/>
<path d="M161.906 103.225H168.358V96.7734H161.906V103.225Z" fill="#CAAAA0"/>
<path d="M161.906 116.128H168.358V109.679H161.906V116.128Z" fill="#CAAAA0"/>
<path d="M161.906 122.581H168.358V116.128H161.906V122.581Z" fill="#CAAAA0"/>
<path d="M116.742 70.9677H123.193L123.193 64.5149H116.742L116.742 70.9677Z" fill="#B6968D"/>
<path d="M161.906 90.3215H168.358V83.8711H161.906V90.3215Z" fill="#CAAAA0"/>
<path d="M161.906 96.7734H168.358V90.3215H161.906V96.7734Z" fill="#CAAAA0"/>
<path d="M161.906 83.8711H168.358V77.4199H161.906V83.8711Z" fill="#CAAAA0"/>
<path d="M161.906 77.4188H168.358L168.358 70.9677H161.906L161.906 77.4188Z" fill="#CAAAA0"/>
<path d="M161.906 135.485H168.358V129.033H161.906V135.485Z" fill="#B6968D"/>
<path d="M161.906 129.032H168.358V122.581H161.906V129.032Z" fill="#CAAAA0"/>
<path d="M129.645 148.387H136.097V141.936H129.645V148.387Z" fill="#231F20"/>
<path d="M123.195 148.387H129.647V141.936H123.195V148.387Z" fill="#A0817A"/>
<path d="M136.097 148.388L142.548 148.387V141.936H136.097L136.097 148.388Z" fill="#231F20"/>
<path d="M161.906 141.934H168.358V135.482H161.906V141.934Z" fill="#B6968D"/>
<path d="M116.742 148.387H123.193V141.936H116.742V148.387Z" fill="#B6968D"/>
<path d="M155.453 148.387H161.905V141.936H155.453V148.387Z" fill="#B6968D"/>
<path d="M161.906 148.387H168.358V141.936H161.906V148.387Z" fill="#B6968D"/>
<path d="M142.551 148.387H149.001V141.936H142.551V148.387Z" fill="#231F20"/>
<path d="M149 148.387H155.452V141.936H149V148.387Z" fill="#A0817A"/>
<path d="M90.9376 129.032H97.388V122.58H90.9376V129.032Z" fill="#A87C74"/>
<path d="M97.3868 135.485H103.839V129.033H97.3868V135.485Z" fill="#805A55"/>
<path d="M123.195 70.9677H129.647L129.647 64.5149H123.195L123.195 70.9677Z" fill="#CAAAA0"/>
<path d="M123.195 77.4188H129.647L129.647 70.9677H123.195L123.195 77.4188Z" fill="#B6968D"/>
<path d="M90.9376 122.58H97.388V116.129H90.9376V122.58Z" fill="#A87C74"/>
<path d="M90.9376 116.129H97.388V109.678H90.9376V116.129Z" fill="#A87C74"/>
<path d="M103.84 141.936H110.292V135.485H103.84V141.936Z" fill="#231F20"/>
<path d="M110.293 135.485V141.936H116.745V135.485H110.293Z" fill="#A0817A"/>
<path d="M116.742 141.934H123.193V135.482H116.742V141.934Z" fill="#B6968D"/>
<path d="M97.3867 141.935H103.839L103.839 135.485H97.3868L97.3867 141.935Z" fill="#231F20"/>
<path d="M90.9376 109.678H97.388V103.227H90.9376V109.678Z" fill="#A87C74"/>
<path d="M90.9376 96.7743H97.388V90.3223H90.9376V96.7743Z" fill="#A87C74"/>
<path d="M90.9376 103.225H97.388V96.7743H90.9376V103.225Z" fill="#A87C74"/>
<path d="M103.84 77.4188H110.292L110.292 70.9677H103.84L103.84 77.4188Z" fill="#A87C74"/>
<path d="M110.293 77.4188H116.745L116.745 70.9677H110.293L110.293 77.4188Z" fill="#A87C74"/>
<path d="M116.742 77.4188H123.193L123.193 70.9677H116.742L116.742 77.4188Z" fill="#231F20"/>
<path d="M97.3868 77.4188H103.839L103.839 70.9677H97.3867L97.3868 77.4188Z" fill="#A87C74"/>
<path d="M90.9376 90.3223H97.388V83.8711H90.9376V90.3223Z" fill="#A87C74"/>
<path d="M123.195 141.934H129.647V135.482H123.195V141.934Z" fill="#B6968D"/>
<path d="M90.9376 77.4188H97.388L97.3879 70.9677H90.9375L90.9376 77.4188Z" fill="#A87C74"/>
<path d="M90.9376 83.8711H97.388V77.4199H90.9376V83.8711Z" fill="#A87C74"/>
<path d="M90.9375 135.484H97.3879L97.388 129.033H90.9376L90.9375 135.484Z" fill="#976D66"/>
<path d="M155.453 83.8719H161.905V77.4199H155.453V83.8719Z" fill="#CAAAA0"/>
<path d="M155.453 77.4188H161.905V70.9668H155.453V77.4188Z" fill="#CAAAA0"/>
<path d="M155.453 96.7743H161.905V90.3223H155.453V96.7743Z" fill="#CAAAA0"/>
<path d="M155.453 90.3223H161.905V83.8719H155.453V90.3223Z" fill="#CAAAA0"/>
<path d="M155.453 70.9668H161.905V64.5149H155.453V70.9668Z" fill="#CAAAA0"/>
<path d="M129.645 141.934H136.097V135.482H129.645V141.934Z" fill="#B6968D"/>
<path d="M129.645 70.9668L136.097 70.9677V64.5156L129.645 64.5149V70.9668Z" fill="#CAAAA0"/>
<path d="M136.097 70.9677L142.549 70.9668V64.5149L136.097 64.5156V70.9677Z" fill="#CAAAA0"/>
<path d="M149 70.9668H155.452V64.5149H149V70.9668Z" fill="#CAAAA0"/>
<path d="M142.551 70.9668H149.001V64.5149H142.551V70.9668Z" fill="#CAAAA0"/>
<path d="M155.453 103.225H161.905V96.7743H155.453V103.225Z" fill="#CAAAA0"/>
<path d="M149 141.934H155.452V135.482H149V141.934Z" fill="#B6968D"/>
<path d="M142.551 141.934H149.001V135.482H142.551V141.934Z" fill="#B6968D"/>
<path d="M155.453 141.934H161.905V135.482H155.453V141.934Z" fill="#B6968D"/>
<path d="M155.453 109.679H161.905V103.227H155.453V109.679Z" fill="#CAAAA0"/>
<path d="M136.097 141.934H142.548V135.482H136.097V141.934Z" fill="#B6968D"/>
<path d="M155.453 122.581H161.905V116.129H155.453V122.581Z" fill="#CAAAA0"/>
<path d="M155.453 135.485H161.905V129.033H155.453V135.485Z" fill="#B6968D"/>
<path d="M155.453 116.129H161.905V109.679H155.453V116.129Z" fill="#CAAAA0"/>
<path d="M155.453 129.032H161.905V122.581H155.453V129.032Z" fill="#CAAAA0"/>
<path d="M142.551 187.096H149.001V180.645H142.551V187.096Z" fill="#A87C74"/>
<path d="M45.7774 116.128H52.2278V109.678H45.7774V116.128Z" fill="#A87C74"/>
<path d="M45.7774 148.388H52.2278V141.936H45.7774V148.388Z" fill="#A87C74"/>
<path d="M45.7774 103.225H52.2278V96.7734H45.7774V103.225Z" fill="#BF9288"/>
<path d="M45.7774 96.7734H52.2278V90.3223H45.7774V96.7734Z" fill="#231F20"/>
<path d="M45.7774 90.3223H52.2278V83.8711H45.7774V90.3223Z" fill="#231F20"/>
<path d="M45.7774 135.485H52.2278V129.033H45.7774V135.485Z" fill="#A87C74"/>
<path d="M45.7774 83.8711L52.2294 83.8719V77.4199H45.7774V83.8711Z" fill="#A87C74"/>
<path d="M45.7774 141.936H52.2278V135.485H45.7774V141.936Z" fill="#A87C74"/>
<path d="M45.7774 122.581H52.2278V116.128H45.7774V122.581Z" fill="#A87C74"/>
<path d="M45.7774 129.032H52.2278V122.581H45.7774V129.032Z" fill="#A87C74"/>
<path d="M45.7774 109.678H52.2278V103.227H45.7774V109.678Z" fill="#A87C74"/>
<path d="M52.2344 32.2587H58.6848V25.8066H52.2344V32.2587Z" fill="#231F20"/>
<path d="M58.6797 32.2587H65.1317V25.8066H58.6797V32.2587Z" fill="#A87C74"/>
<path d="M45.7774 77.4188H52.2294V70.9668H45.7774V77.4188Z" fill="#A87C74"/>
<path d="M45.7774 70.9668H52.2294L52.2294 64.5156H45.7773L45.7774 70.9668Z" fill="#A87C74"/>
<path d="M45.7773 64.5156H52.2294L52.2294 58.0645H45.7774L45.7773 64.5156Z" fill="#BF9288"/>
<path d="M45.7774 51.6125H52.2278V45.1621H45.7774V51.6125Z" fill="#231F20"/>
<path d="M45.7774 58.0645L52.2278 58.0653V51.6125H45.7774V58.0645Z" fill="#231F20"/>
<path d="M58.8242 167.741H65.2746V161.291H58.8242V167.741Z" fill="#231F20"/>
<path d="M58.8243 154.839H65.2747V148.387H58.8243V154.839Z" fill="#976D66"/>
<path d="M110.293 187.095H116.745V180.645H110.293V187.095Z" fill="#231F20"/>
<path d="M129.645 187.096H136.097V180.645H129.645V187.096Z" fill="#A87C74"/>
<path d="M116.742 187.096H123.193V180.645H116.742V187.096Z" fill="#5F3F3C"/>
<path d="M136.097 187.095L142.548 187.096V180.645H136.097L136.097 187.095Z" fill="#A87C74"/>
<path d="M123.195 187.096H129.647V180.645H123.195V187.096Z" fill="#231F20"/>
<path d="M65.1289 32.2587H71.5809V25.8066H65.1289V32.2587Z" fill="#231F20"/>
<path d="M58.8242 161.291H65.2746L65.2747 154.84H58.8243L58.8242 161.291Z" fill="#805A55"/>
<path d="M194.16 77.4188H200.612V70.9668H194.16V77.4188Z" fill="#A87C74"/>
<path d="M194.16 83.8719H200.612V77.4199H194.16V83.8719Z" fill="#A87C74"/>
<path d="M194.16 90.3215H200.612V83.8719H194.16V90.3215Z" fill="#A87C74"/>
<path d="M194.16 109.679H200.612V103.227H194.16V109.679Z" fill="#A87C74"/>
<path d="M194.16 96.7743H200.612V90.3215H194.16V96.7743Z" fill="#A87C74"/>
<path d="M194.16 103.225H200.612V96.7743H194.16V103.225Z" fill="#A87C74"/>
<path d="M194.16 58.0653H200.612V51.6133H194.16V58.0653Z" fill="#A87C74"/>
<path d="M194.16 51.6133H200.612V45.1621H194.16V51.6133Z" fill="#A87C74"/>
<path d="M194.16 45.1621H200.612V38.7109H194.16V45.1621Z" fill="#BF9288"/>
<path d="M194.16 70.9668H200.612L200.612 64.5156H194.16L194.16 70.9668Z" fill="#A87C74"/>
<path d="M194.16 64.5156H200.612L200.612 58.0653H194.16L194.16 64.5156Z" fill="#906761"/>
<path d="M194.16 161.29H200.612V154.84H194.16V161.29Z" fill="#5F3F3C"/>
<path d="M194.16 154.839H200.612V148.387H194.16V154.839Z" fill="#76534E"/>
<path d="M194.16 148.387H200.612V141.936H194.16V148.387Z" fill="#906761"/>
<path d="M194.16 167.741H200.612L200.612 161.29H194.16L194.16 167.741Z" fill="#231F20"/>
<path d="M155.453 167.741H161.905L161.905 161.29H155.453L155.453 167.741Z" fill="#231F20"/>
<path d="M194.16 122.581H200.612V116.129H194.16V122.581Z" fill="#A87C74"/>
<path d="M194.16 129.032H200.612V122.581H194.16V129.032Z" fill="#A87C74"/>
<path d="M194.16 141.934H200.612V135.482H194.16V141.934Z" fill="#A87C74"/>
<path d="M194.16 116.129H200.612V109.679H194.16V116.129Z" fill="#A87C74"/>
<path d="M149 32.2585H155.452V25.8065H149V32.2585Z" fill="#E3C5BB"/>
<path d="M103.84 32.2587H110.292V25.8066H103.84V32.2587Z" fill="#231F20"/>
<path d="M136.097 32.2585H142.548V25.8065H136.097V32.2585Z" fill="#E3C5BB"/>
<path d="M123.195 32.2587H129.647V25.8066H123.195V32.2587Z" fill="#E3C5BB"/>
<path d="M129.645 32.2587L136.097 32.2585V25.8065L129.645 25.8066V32.2587Z" fill="#E3C5BB"/>
<path d="M116.742 32.2587H123.194V25.8066H116.742V32.2587Z" fill="#231F20"/>
<path d="M84.4844 32.2587H90.9364V25.8066H84.4844V32.2587Z" fill="#231F20"/>
<path d="M194.16 38.7098H200.612V32.2578H194.16V38.7098Z" fill="#231F20"/>
<path d="M97.3867 32.2587H103.839V25.8066H97.3867V32.2587Z" fill="#906761"/>
<path d="M90.9375 32.2587H97.3879V25.8066H90.9375V32.2587Z" fill="#A87C74"/>
<path d="M142.551 32.2587H149.001V25.8066H142.551V32.2587Z" fill="#E3C5BB"/>
<path d="M155.453 32.2587H161.905V25.8066H155.453V32.2587Z" fill="#E3C5BB"/>
<path d="M161.906 32.2587H168.358V25.8066H161.906V32.2587Z" fill="#231F20"/>
<path d="M39.3242 141.935H45.7763V135.485H39.3242V141.935Z" fill="#A87C74"/>
<path d="M58.6797 25.8066H65.1317L65.1318 19.3563L58.6797 19.3555L58.6797 25.8066Z" fill="#A87C74"/>
<path d="M52.2267 25.8059H58.6788V19.3563H52.2267V25.8059Z" fill="#231F20"/>
<path d="M65.1289 25.8066L71.5794 25.8059V19.3563H65.129L65.1289 25.8066Z" fill="#231F20"/>
<path d="M149 187.096H155.452V180.645H149V187.096Z" fill="#A87C74"/>
<path d="M123.195 25.8066H129.647L129.647 19.3555H123.195L123.195 25.8066Z" fill="#231F20"/>
<path d="M129.645 25.8066L136.097 25.8059V19.3555H129.645L129.645 25.8066Z" fill="#231F20"/>
<path d="M136.097 25.8065H142.548L142.548 19.3555H136.097L136.097 25.8065Z" fill="#231F20"/>
<path d="M110.293 25.8059H116.745V19.3563H110.293V25.8059Z" fill="#231F20"/>
<path d="M90.9375 25.8066L97.3896 25.8059V19.3555L90.9376 19.3563L90.9375 25.8066Z" fill="#231F20"/>
<path d="M97.3907 25.8059H103.843V19.3555H97.3907V25.8059Z" fill="#A87C74"/>
<path d="M103.84 25.8066H110.292L110.292 19.3563H103.84L103.84 25.8066Z" fill="#906761"/>
<path d="M39.3243 148.388H45.7763L45.7763 141.935H39.3242L39.3243 148.388Z" fill="#A87C74"/>
<path d="M52.3712 154.839H58.8232V148.387H52.3712V154.839Z" fill="#231F20"/>
<path d="M39.3243 122.581H45.7763V116.129H39.3243V122.581Z" fill="#A87C74"/>
<path d="M39.3242 135.485H45.7763L45.7763 129.033H39.3243L39.3242 135.485Z" fill="#A87C74"/>
<path d="M39.3243 129.032H45.7763V122.581H39.3243V129.032Z" fill="#A87C74"/>
<path d="M142.551 25.8066H149.001L149.001 19.3555H142.551L142.551 25.8066Z" fill="#231F20"/>
<path d="M52.3711 167.741H58.8231V161.291H52.3711V167.741Z" fill="#231F20"/>
<path d="M52.3711 161.291H58.8231L58.8232 154.84H52.3712L52.3711 161.291Z" fill="#805A55"/>
<path d="M39.3243 83.8719H45.7763V77.4199H39.3243V83.8719Z" fill="#A87C74"/>
<path d="M39.3243 77.4188H45.7763V70.9668H39.3243V77.4188Z" fill="#BF9288"/>
<path d="M39.3243 70.9668H45.7763L45.7763 64.5154H39.3242L39.3243 70.9668Z" fill="#231F20"/>
<path d="M39.3242 64.5154H45.7763L45.7763 58.0645H39.3243L39.3242 64.5154Z" fill="#231F20"/>
<path d="M39.3243 90.3215H45.7763V83.8719H39.3243V90.3215Z" fill="#A87C74"/>
<path d="M39.3243 103.225H45.7763V96.7734H39.3243V103.225Z" fill="#BF9288"/>
<path d="M39.3243 116.129H45.7763V109.678H39.3243V116.129Z" fill="#A87C74"/>
<path d="M39.3243 109.678H45.7763V103.227H39.3243V109.678Z" fill="#A87C74"/>
<path d="M39.3243 96.7734H45.7763V90.3215H39.3243V96.7734Z" fill="#A87C74"/>
<path d="M200.613 148.388H207.065V141.936H200.613V148.388Z" fill="#906761"/>
<path d="M200.613 141.934H207.065V135.482H200.613V141.934Z" fill="#A87C74"/>
<path d="M200.613 154.839H207.065V148.388H200.613V154.839Z" fill="#76534E"/>
<path d="M200.613 167.742H207.065V161.291H200.613V167.742Z" fill="#231F20"/>
<path d="M200.613 161.291H207.065L207.065 154.84H200.613L200.613 161.291Z" fill="#5F3F3C"/>
<path d="M200.613 174.194H207.065L207.065 167.742H200.613L200.613 174.194Z" fill="#231F20"/>
<path d="M200.613 109.679H207.065V103.227H200.613V109.679Z" fill="#A87C74"/>
<path d="M200.613 122.581H207.065V116.129H200.613V122.581Z" fill="#A87C74"/>
<path d="M200.613 135.485H207.065V129.033H200.613V135.485Z" fill="#906761"/>
<path d="M200.613 129.032H207.065V122.581H200.613V129.032Z" fill="#A87C74"/>
<path d="M200.613 116.129H207.065V109.679H200.613V116.129Z" fill="#A87C74"/>
<path d="M200.613 180.646H207.065L207.065 174.194H200.613L200.613 180.646Z" fill="#231F20"/>
<path d="M155.453 187.096H161.905V180.645H155.453V187.096Z" fill="#231F20"/>
<path d="M149 25.8065H155.452L155.452 19.3555H149L149 25.8065Z" fill="#231F20"/>
<path d="M200.613 187.096H207.065V180.645H200.613V187.096Z" fill="#805A55"/>
<path d="M194.16 187.096H200.612V180.645H194.16V187.096Z" fill="#231F20"/>
<path d="M200.613 38.7098H207.065V32.2578H200.613V38.7098Z" fill="#E3C5BB"/>
<path d="M200.613 32.2578H207.065L207.065 25.8065H200.613L200.613 32.2578Z" fill="#231F20"/>
<path d="M155.453 25.8066H161.905L161.905 19.3555H155.453L155.453 25.8066Z" fill="#231F20"/>
<path d="M200.613 103.225H207.065V96.7734H200.613V103.225Z" fill="#A87C74"/>
<path d="M200.613 45.163H207.065V38.7109H200.613V45.163Z" fill="#231F20"/>
<path d="M200.613 90.3215H207.065V83.8711H200.613V90.3215Z" fill="#A87C74"/>
<path d="M200.613 77.4188H207.065V70.9668H200.613V77.4188Z" fill="#A87C74"/>
<path d="M200.613 96.7734H207.065V90.3215H200.613V96.7734Z" fill="#A87C74"/>
<path d="M200.613 83.8711H207.065V77.4199H200.613V83.8711Z" fill="#A87C74"/>
<path d="M200.613 51.6125H207.065V45.163H200.613V51.6125Z" fill="#906761"/>
<path d="M200.613 58.0653H207.065V51.6125H200.613V58.0653Z" fill="#A87C74"/>
<path d="M200.613 64.5149H207.065V58.0653H200.613V64.5149Z" fill="#A87C74"/>
<path d="M200.613 70.9668H207.065V64.5149H200.613V70.9668Z" fill="#A87C74"/>
<path d="M194.16 135.485H200.612V129.033H194.16V135.485Z" fill="#A87C74"/>
<path d="M58.6797 148.388H65.1318V141.936H58.6797V148.388Z" fill="#231F20"/>
<path d="M58.6797 116.128H65.1318V109.678H58.6797V116.128Z" fill="#A87C74"/>
<path d="M58.6797 135.485H65.1318V129.033H58.6797V135.485Z" fill="#A87C74"/>
<path d="M58.6797 129.032H65.1318V122.58H58.6797V129.032Z" fill="#A87C74"/>
<path d="M58.6797 122.58H65.1318V116.128H58.6797V122.58Z" fill="#A87C74"/>
<path d="M58.6797 141.936H65.1318V135.485H58.6797V141.936Z" fill="#A87C74"/>
<path d="M71.7266 154.839H78.1786V148.387H71.7266V154.839Z" fill="#231F20"/>
<path d="M58.6797 70.9677H65.1317V64.5156H58.6797V70.9677Z" fill="#A87C74"/>
<path d="M58.6797 64.5156H65.1317L65.1318 58.0645H58.6797L58.6797 64.5156Z" fill="#A87C74"/>
<path d="M58.6797 77.4188H65.1318L65.1317 70.9677H58.6797L58.6797 77.4188Z" fill="#A87C74"/>
<path d="M58.6797 51.6125H65.1318V45.1621H58.6797V51.6125Z" fill="#A87C74"/>
<path d="M58.6797 58.0645H65.1318V51.6125H58.6797V58.0645Z" fill="#A87C74"/>
<path d="M58.6797 103.225H65.1318V96.7734H58.6797V103.225Z" fill="#BF9288"/>
<path d="M58.6797 96.7734H65.1318V90.3223H58.6797V96.7734Z" fill="#A87C74"/>
<path d="M58.6797 83.8719H65.1318V77.4199H58.6797V83.8719Z" fill="#A87C74"/>
<path d="M58.6797 109.678H65.1318V103.227H58.6797V109.678Z" fill="#A87C74"/>
<path d="M58.6797 90.3223H65.1318V83.8719H58.6797V90.3223Z" fill="#A87C74"/>
<path d="M155.453 174.194H161.905L161.905 167.741H155.453L155.453 174.194Z" fill="#231F20"/>
<path d="M149 174.194H155.452L155.452 167.742H149L149 174.194Z" fill="#A87C74"/>
<path d="M142.551 174.194H149.001L149.001 167.741H142.551L142.551 174.194Z" fill="#906761"/>
<path d="M58.6797 45.1621L65.1302 45.163V38.7109H58.6797V45.1621Z" fill="#BF9288"/>
<path d="M187.711 167.742H194.161V161.291H187.711V167.742Z" fill="#231F20"/>
<path d="M136.097 174.194H142.548L142.548 167.742H136.097L136.097 174.194Z" fill="#906761"/>
<path d="M97.3868 174.194H103.839L103.839 167.741H97.3867L97.3868 174.194Z" fill="#231F20"/>
<path d="M110.293 174.194H116.745V167.742H110.293V174.194Z" fill="#805A55"/>
<path d="M116.742 174.194H123.193L123.193 167.741H116.742L116.742 174.194Z" fill="#805A55"/>
<path d="M123.195 174.194H129.647L129.647 167.741H123.195L123.195 174.194Z" fill="#231F20"/>
<path d="M103.84 174.194H110.292L110.292 167.741H103.84L103.84 174.194Z" fill="#805A55"/>
<path d="M129.645 174.194H136.097L136.097 167.742L129.645 167.741L129.645 174.194Z" fill="#A87C74"/>
<path d="M181.258 96.7743H187.71V90.3223H181.258V96.7743Z" fill="#231F20"/>
<path d="M187.711 161.291H194.161L194.161 154.84H187.711L187.711 161.291Z" fill="#5F3F3C"/>
<path d="M181.258 109.679H187.71V103.227H181.258V109.679Z" fill="#231F20"/>
<path d="M65.129 45.1621H71.5794V38.7109H65.129V45.1621Z" fill="#BF9288"/>
<path d="M181.258 116.128H187.71V109.679H181.258V116.128Z" fill="#231F20"/>
<path d="M181.258 129.032H187.71V122.58H181.258V129.032Z" fill="#231F20"/>
<path d="M181.258 122.58H187.71V116.128H181.258V122.58Z" fill="#231F20"/>
<path d="M181.258 70.9677H187.71V64.5156H181.258V70.9677Z" fill="#231F20"/>
<path d="M181.258 90.3223H187.71V83.8711H181.258V90.3223Z" fill="#231F20"/>
<path d="M181.258 77.4188H187.71L187.71 70.9677H181.258L181.258 77.4188Z" fill="#231F20"/>
<path d="M181.258 64.5156H187.71L187.71 58.0645H181.258L181.258 64.5156Z" fill="#231F20"/>
<path d="M181.258 83.8711H187.71V77.4199H181.258V83.8711Z" fill="#231F20"/>
<path d="M174.809 167.741H181.261L181.261 161.29H174.809L174.809 167.741Z" fill="#231F20"/>
<path d="M168.355 167.741H174.806L174.806 161.29H168.356L168.355 167.741Z" fill="#231F20"/>
<path d="M181.258 167.741L187.711 167.742V161.291L181.258 161.291V167.741Z" fill="#231F20"/>
<path d="M161.906 167.741H168.358L168.358 161.29H161.906L161.906 167.741Z" fill="#231F20"/>
<path d="M181.258 141.934H187.71V135.482H181.258V141.934Z" fill="#906761"/>
<path d="M181.258 148.388H187.71V141.936H181.258V148.388Z" fill="#906761"/>
<path d="M181.258 161.291L187.71 161.29L187.711 154.84H181.258L181.258 161.291Z" fill="#5F3F3C"/>
<path d="M181.258 135.485H187.71V129.033H181.258V135.485Z" fill="#231F20"/>
<path d="M181.258 103.225H187.71V96.7743H181.258V103.225Z" fill="#231F20"/>
<path d="M97.3868 45.1621H103.839V38.7109H97.3868V45.1621Z" fill="#231F20"/>
<path d="M110.293 45.1621H116.745V38.7109H110.293V45.1621Z" fill="#CAAAA0"/>
<path d="M103.84 45.1672H110.292V38.7168H103.84V45.1672Z" fill="#231F20"/>
<path d="M129.648 45.1621H136.099V38.7109H129.648V45.1621Z" fill="#CAAAA0"/>
<path d="M123.195 45.1621H129.647V38.7109H123.195V45.1621Z" fill="#CAAAA0"/>
<path d="M116.742 45.1621H123.193V38.7109H116.742V45.1621Z" fill="#CAAAA0"/>
<path d="M78.0313 45.1621H84.4833V38.7109H78.0313V45.1621Z" fill="#BF9288"/>
<path d="M90.9376 45.1621H97.388V38.7109H90.9376V45.1621Z" fill="#BF9288"/>
<path d="M71.5821 45.1621H78.0341V38.7109H71.5821V45.1621Z" fill="#BF9288"/>
<path d="M84.4844 45.1621H90.9365V38.7109H84.4844V45.1621Z" fill="#BF9288"/>
<path d="M142.551 45.1621H149.001V38.7109H142.551V45.1621Z" fill="#CAAAA0"/>
<path d="M181.258 45.163H187.71V38.7109H181.258V45.163Z" fill="#BF9288"/>
<path d="M168.356 45.1621H174.806V38.7109H168.356V45.1621Z" fill="#E3C5BB"/>
<path d="M136.097 45.1621H142.548V38.7109H136.097V45.1621Z" fill="#CAAAA0"/>
<path d="M181.258 51.6125H187.71V45.163H181.258V51.6125Z" fill="#A87C74"/>
<path d="M174.809 45.1621H181.261V38.7109H174.809V45.1621Z" fill="#231F20"/>
<path d="M161.906 45.1621H168.358V38.7109H161.906V45.1621Z" fill="#CAAAA0"/>
<path d="M181.258 58.0645H187.71V51.6125H181.258V58.0645Z" fill="#231F20"/>
<path d="M149 45.1621H155.452V38.7109H149V45.1621Z" fill="#B6968D"/>
<path d="M155.453 45.1621H161.905V38.7109H155.453V45.1621Z" fill="#CAAAA0"/>
<path d="M181.258 154.839H187.71V148.388H181.258V154.839Z" fill="#76534E"/>
<path d="M52.2267 148.388H58.6797V141.936H52.2267V148.388Z" fill="#A87C74"/>
<path d="M52.2267 122.581H58.6788V116.129H52.2267V122.581Z" fill="#A87C74"/>
<path d="M52.2267 129.032H58.6797L58.6788 122.581H52.2267V129.032Z" fill="#A87C74"/>
<path d="M52.2267 135.485H58.6797V129.033H52.2267V135.485Z" fill="#A87C74"/>
<path d="M65.2735 154.839H71.7255V148.387H65.2735V154.839Z" fill="#805A55"/>
<path d="M52.2266 58.0653H58.677V51.6133H52.2266V58.0653Z" fill="#A87C74"/>
<path d="M65.2735 161.292H71.7255V154.84H65.2735V161.292Z" fill="#231F20"/>
<path d="M52.2267 141.936L58.6787 141.935V135.485L52.2267 135.485V141.936Z" fill="#A87C74"/>
<path d="M52.2267 116.129H58.6788L58.6797 109.678H52.2267V116.129Z" fill="#A87C74"/>
<path d="M52.2267 83.8719H58.6797V77.4199H52.2267V83.8719Z" fill="#A87C74"/>
<path d="M52.2267 70.9675L58.6797 70.9677V64.5156L52.2267 64.5154V70.9675Z" fill="#A87C74"/>
<path d="M52.2267 64.5154L58.6788 64.5149L58.6797 58.0645L52.2266 58.0653L52.2267 64.5154Z" fill="#A87C74"/>
<path d="M52.2267 77.4188H58.6797L58.6788 70.9668L52.2267 70.9675L52.2267 77.4188Z" fill="#A87C74"/>
<path d="M52.2267 103.225H58.6797V96.7734H52.2267V103.225Z" fill="#A87C74"/>
<path d="M52.2267 90.3215H58.6788V83.8711L52.2267 83.8719V90.3215Z" fill="#A87C74"/>
<path d="M52.2267 109.678L58.6788 109.679L58.6797 103.227H52.2267V109.678Z" fill="#A87C74"/>
<path d="M52.2267 96.7734L58.6788 96.7743V90.3215H52.2267V96.7734Z" fill="#A87C74"/>
<path d="M149 180.646H155.452L155.452 174.194H149L149 180.646Z" fill="#A87C74"/>
<path d="M155.453 180.645H161.905V174.194H155.453V180.645Z" fill="#231F20"/>
<path d="M142.551 180.645H149.001V174.194H142.551V180.645Z" fill="#A87C74"/>
<path d="M136.097 180.646H142.548L142.548 174.194H136.097L136.097 180.646Z" fill="#A87C74"/>
<path d="M129.645 180.645H136.097L136.097 174.193L129.645 174.194V180.645Z" fill="#A87C74"/>
<path d="M116.742 180.645H123.193V174.194H116.742V180.645Z" fill="#805A55"/>
<path d="M110.293 180.645H116.745V174.194H110.293V180.645Z" fill="#805A55"/>
<path d="M123.195 180.645H129.647V174.194H123.195V180.645Z" fill="#231F20"/>
<path d="M103.84 180.645H110.292L110.292 174.194H103.84L103.84 180.645Z" fill="#231F20"/>
<path d="M58.6797 38.7098H65.1302V32.2578L58.6797 32.2587L58.6797 38.7098Z" fill="#231F20"/>
<path d="M187.711 58.0653H194.161V51.6133H187.711V58.0653Z" fill="#A87C74"/>
<path d="M187.711 64.5149H194.161V58.0653H187.711V64.5149Z" fill="#A87C74"/>
<path d="M187.711 70.9675H194.161L194.161 64.5149H187.711L187.711 70.9675Z" fill="#A87C74"/>
<path d="M187.711 83.8719H194.161V77.4199H187.71L187.711 83.8719Z" fill="#A87C74"/>
<path d="M174.809 38.7098H181.261V32.2578H174.809V38.7098Z" fill="#231F20"/>
<path d="M187.71 45.163H194.161V38.7109H187.71V45.163Z" fill="#BF9288"/>
<path d="M187.711 38.7098H194.161V32.2578H187.711V38.7098Z" fill="#231F20"/>
<path d="M187.711 51.6133H194.161V45.163L187.711 45.1621V51.6133Z" fill="#A87C74"/>
<path d="M181.258 38.7098H187.711V32.2578H181.258V38.7098Z" fill="#231F20"/>
<path d="M187.711 90.3215H194.161V83.8719H187.711V90.3215Z" fill="#A87C74"/>
<path d="M187.71 77.4188H194.161L194.161 70.9675H187.711L187.71 77.4188Z" fill="#A87C74"/>
<path d="M187.71 129.032H194.161V122.58H187.71V129.032Z" fill="#A87C74"/>
<path d="M187.71 141.934H194.161V135.482H187.71V141.934Z" fill="#A87C74"/>
<path d="M187.71 135.485H194.161V129.033H187.71V135.485Z" fill="#A87C74"/>
<path d="M187.71 148.388H194.161V141.936H187.71V148.388Z" fill="#906761"/>
<path d="M187.71 109.679H194.161V103.227H187.71V109.679Z" fill="#A87C74"/>
<path d="M187.71 103.225H194.161V96.7734H187.711L187.71 103.225Z" fill="#A87C74"/>
<path d="M187.711 96.7734H194.161V90.3215H187.711V96.7734Z" fill="#A87C74"/>
<path d="M187.711 122.581L194.161 122.58V116.129H187.711V122.581Z" fill="#A87C74"/>
<path d="M187.711 116.129H194.161V109.679L187.711 109.678V116.129Z" fill="#A87C74"/>
<path d="M110.293 38.7098H116.745V32.2578H110.293V38.7098Z" fill="#231F20"/>
<path d="M78.0313 38.7098H84.4833V32.2578H78.0313V38.7098Z" fill="#231F20"/>
<path d="M84.4844 38.7098H90.9365L90.9364 32.2587H84.4844L84.4844 38.7098Z" fill="#231F20"/>
<path d="M71.5821 38.7098H78.0341V32.2578H71.5821V38.7098Z" fill="#231F20"/>
<path d="M90.9376 38.7098H97.388L97.3879 32.2587H90.9375L90.9376 38.7098Z" fill="#231F20"/>
<path d="M97.3868 38.7098H103.839L103.839 32.2587H97.3867L97.3868 38.7098Z" fill="#231F20"/>
<path d="M52.2267 45.163H58.6788L58.6797 38.7109H52.2267V45.163Z" fill="#231F20"/>
<path d="M65.129 38.7098H71.5794V32.2578L65.1289 32.2587L65.129 38.7098Z" fill="#231F20"/>
<path d="M52.2267 38.7098H58.6797L58.6788 32.2578H52.2267V38.7098Z" fill="#231F20"/>
<path d="M187.71 154.839H194.161V148.388L187.711 148.387L187.71 154.839Z" fill="#76534E"/>
<path d="M116.742 38.7098H123.193V32.2578L116.742 32.2587L116.742 38.7098Z" fill="#E3C5BB"/>
<path d="M142.551 38.7098H149.001L149.001 32.2587H142.551L142.551 38.7098Z" fill="#CAAAA0"/>
<path d="M149 38.7098H155.452L155.452 32.2585H149L149 38.7098Z" fill="#CAAAA0"/>
<path d="M155.453 38.7098H161.905L161.905 32.2587H155.453L155.453 38.7098Z" fill="#CAAAA0"/>
<path d="M161.906 38.7098H168.358L168.358 32.2587H161.906L161.906 38.7098Z" fill="#E3C5BB"/>
<path d="M168.356 38.7098H174.806V32.2578H168.356V38.7098Z" fill="#231F20"/>
<path d="M123.195 38.7098H129.647L129.647 32.2587H123.195L123.195 38.7098Z" fill="#CAAAA0"/>
<path d="M52.2266 51.6133H58.677V45.1621L52.2267 45.163L52.2266 51.6133Z" fill="#BF9288"/>
<path d="M129.645 38.7098H136.097V32.2578L129.645 32.2587L129.645 38.7098Z" fill="#CAAAA0"/>
<path d="M136.097 38.7098H142.548L142.548 32.2585H136.097L136.097 38.7098Z" fill="#CAAAA0"/>
<path d="M271.582 25.8059H278.034V19.3555H271.582V25.8059Z" fill="#231F20"/>
<path d="M271.582 199.999H278.034V193.547H271.582V199.999Z" fill="#231F20"/>
<path d="M271.582 174.194H278.034V167.742H271.582V174.194Z" fill="#231F20"/>
<path d="M271.582 193.547H278.034V187.096H271.582V193.547Z" fill="#231F20"/>
<path d="M271.582 180.645H278.034L278.034 174.194H271.582L271.582 180.645Z" fill="#231F20"/>
<path d="M271.582 187.096H278.034L278.034 180.645H271.582L271.582 187.096Z" fill="#231F20"/>
<path d="M271.582 70.9677H278.034V64.5156H271.582V70.9677Z" fill="#231F20"/>
<path d="M271.582 77.4188H278.034L278.034 70.9677H271.582L271.582 77.4188Z" fill="#231F20"/>
<path d="M271.582 83.8719H278.034V77.4199H271.582V83.8719Z" fill="#231F20"/>
<path d="M271.582 64.5156H278.034L278.034 58.0645H271.582L271.582 64.5156Z" fill="#231F20"/>
<path d="M271.582 90.3215H278.034V83.8719H271.582V90.3215Z" fill="#231F20"/>
<path d="M271.582 96.7743H278.034V90.3215H271.582V96.7743Z" fill="#231F20"/>
<path d="M271.582 58.0645H278.034V51.6133H271.582V58.0645Z" fill="#231F20"/>
<path d="M271.582 103.225H278.034V96.7743H271.582V103.225Z" fill="#231F20"/>
<path d="M271.582 32.2587H278.034L278.034 25.8059H271.582L271.582 32.2587Z" fill="#231F20"/>
<path d="M239.324 96.7734H245.775V90.3223H239.324V96.7734Z" fill="#CAAAA0"/>
<path d="M7.211 154.839H13.6614V148.387H7.211V154.839Z" fill="#231F20"/>
<path d="M252.227 38.7098H258.677V32.2578H252.227V38.7098Z" fill="#231F20"/>
<path d="M252.227 96.7743H258.677V90.3223H252.227V96.7743Z" fill="#CAAAA0"/>
<path d="M252.227 103.225H258.677V96.7743H252.227V103.225Z" fill="#B6968D"/>
<path d="M252.227 90.3223H258.677V83.8711H252.227V90.3223Z" fill="#CAAAA0"/>
<path d="M252.227 116.128H258.677V109.678H252.227V116.128Z" fill="#906761"/>
<path d="M252.227 58.0653H258.677V51.6133H252.227V58.0653Z" fill="#CAAAA0"/>
<path d="M252.227 83.8711H258.677V77.4199H252.227V83.8711Z" fill="#CAAAA0"/>
<path d="M252.227 64.5149H258.677V58.0653H252.227V64.5149Z" fill="#CAAAA0"/>
<path d="M252.227 70.9675H258.677L258.677 64.5149H252.227L252.227 70.9675Z" fill="#CAAAA0"/>
<path d="M252.227 77.4188H258.677L258.677 70.9675H252.227L252.227 77.4188Z" fill="#CAAAA0"/>
<path d="M252.227 122.581H258.677V116.128H252.227V122.581Z" fill="#A87C74"/>
<path d="M252.227 109.678H258.677V103.227H252.227V109.678Z" fill="#231F20"/>
<path d="M252.227 161.29H258.677V154.84H252.227V161.29Z" fill="#A87C74"/>
<path d="M252.227 174.194H258.677V167.742H252.227V174.194Z" fill="#A87C74"/>
<path d="M252.227 180.646H258.677L258.677 174.194H252.227L252.227 180.646Z" fill="#906761"/>
<path d="M252.227 148.388H258.677V141.936H252.227V148.388Z" fill="#231F20"/>
<path d="M252.227 154.839H258.677V148.388H252.227V154.839Z" fill="#906761"/>
<path d="M252.227 141.934H258.677V135.482H252.227V141.934Z" fill="#76534E"/>
<path d="M252.227 135.485H258.677V129.033H252.227V135.485Z" fill="#76534E"/>
<path d="M252.227 129.032H258.677V122.581H252.227V129.032Z" fill="#906761"/>
<path d="M252.227 51.6133H258.677V45.1621H252.227V51.6133Z" fill="#CAAAA0"/>
<path d="M252.227 187.095H258.677V180.645H252.227V187.095Z" fill="#A87C74"/>
<path d="M252.227 45.1621H258.677V38.7109H252.227V45.1621Z" fill="#E3C5BB"/>
<path d="M252.227 167.742H258.677V161.29H252.227V167.742Z" fill="#A87C74"/>
<path d="M252.227 193.548H258.677V187.095H252.227V193.548Z" fill="#906761"/>
<path d="M252.227 200.001H258.677V193.549H252.227V200.001Z" fill="#231F20"/>
<path d="M245.773 129.032H252.226V122.58H245.773V129.032Z" fill="#906761"/>
<path d="M0.613281 141.935H7.06531V135.485H0.613281V141.935Z" fill="#231F20"/>
<path d="M0.613342 148.388H7.06537L7.06531 141.935H0.613281L0.613342 148.388Z" fill="#231F20"/>
<path d="M13.6602 154.839H20.1122V148.387H13.6602V154.839Z" fill="#805A55"/>
<path d="M13.6602 161.292H20.1122V154.84H13.6602V161.292Z" fill="#231F20"/>
<path d="M239.324 25.8059H245.775V19.3555H239.324V25.8059Z" fill="#231F20"/>
<path d="M239.324 32.2585H245.775L245.775 25.8059H239.324L239.324 32.2585Z" fill="#E3C5BB"/>
<path d="M239.324 83.8719H245.775V77.4199H239.324V83.8719Z" fill="#CAAAA0"/>
<path d="M239.324 77.4188H245.775V70.9668H239.324V77.4188Z" fill="#CAAAA0"/>
<path d="M239.324 70.9668H245.775L245.775 64.5154H239.324L239.324 70.9668Z" fill="#CAAAA0"/>
<path d="M239.324 90.3223H245.775V83.8719H239.324V90.3223Z" fill="#CAAAA0"/>
<path d="M239.324 51.6125H245.775V45.1621H239.324V51.6125Z" fill="#B6968D"/>
<path d="M239.324 64.5154H245.775L245.775 58.0645H239.324L239.324 64.5154Z" fill="#CAAAA0"/>
<path d="M239.324 45.1621H245.775V38.7109H239.324V45.1621Z" fill="#CAAAA0"/>
<path d="M239.324 38.7098H245.775L245.775 32.2585H239.324L239.324 38.7098Z" fill="#CAAAA0"/>
<path d="M239.324 58.0645H245.775V51.6125H239.324V58.0645Z" fill="#CAAAA0"/>
<path d="M0.613281 135.485H7.06531L7.06537 129.033H0.613342L0.613281 135.485Z" fill="#231F20"/>
<path d="M0.613342 129.032H7.06537V122.58H0.613342V129.032Z" fill="#231F20"/>
<path d="M245.773 161.29H252.226V154.84H245.773V161.29Z" fill="#A87C74"/>
<path d="M245.773 167.741H252.225L252.226 161.29H245.773L245.773 167.741Z" fill="#A87C74"/>
<path d="M245.773 154.839H252.226V148.387H245.773V154.839Z" fill="#906761"/>
<path d="M245.773 180.645H252.225V174.193H245.773V180.645Z" fill="#906761"/>
<path d="M245.773 174.193H252.225V167.741H245.773V174.193Z" fill="#A87C74"/>
<path d="M245.773 148.387H252.226V141.936H245.773V148.387Z" fill="#231F20"/>
<path d="M245.773 187.095H252.226L252.225 180.645H245.773L245.773 187.095Z" fill="#A87C74"/>
<path d="M245.773 135.485H252.226V129.033H245.773V135.485Z" fill="#76534E"/>
<path d="M245.773 141.934H252.226V135.482H245.773V141.934Z" fill="#76534E"/>
<path d="M245.773 122.58H252.226V116.129H245.773V122.58Z" fill="#A87C74"/>
<path d="M245.773 193.548H252.226V187.095H245.773V193.548Z" fill="white"/>
<path d="M245.773 199.999H252.226V193.548H245.773V199.999Z" fill="#231F20"/>
<path d="M245.773 51.6125H252.226V45.1621H245.773V51.6125Z" fill="#CAAAA0"/>
<path d="M245.773 32.2587H252.225V25.8066H245.773V32.2587Z" fill="#231F20"/>
<path d="M245.773 38.7098H252.226L252.225 32.2587H245.773L245.773 38.7098Z" fill="#E3C5BB"/>
<path d="M245.773 45.1621H252.226V38.7109H245.773V45.1621Z" fill="#CAAAA0"/>
<path d="M245.773 116.129H252.226V109.678H245.773V116.129Z" fill="#906761"/>
<path d="M245.773 103.225H252.226V96.7734H245.773V103.225Z" fill="#B6968D"/>
<path d="M245.773 96.7734H252.226V90.3223H245.773V96.7734Z" fill="#CAAAA0"/>
<path d="M245.773 109.678H252.226V103.227H245.773V109.678Z" fill="#231F20"/>
<path d="M245.773 90.3223H252.226V83.8711H245.773V90.3223Z" fill="#CAAAA0"/>
<path d="M245.773 83.8711H252.226V77.4199H245.773V83.8711Z" fill="#CAAAA0"/>
<path d="M245.773 70.9677H252.225V64.5156H245.773V70.9677Z" fill="#CAAAA0"/>
<path d="M245.773 58.0653H252.226V51.6125H245.773V58.0653Z" fill="#CAAAA0"/>
<path d="M245.773 64.5156H252.225L252.226 58.0653H245.773L245.773 64.5156Z" fill="#CAAAA0"/>
<path d="M245.773 77.4188H252.226L252.225 70.9677H245.773L245.773 77.4188Z" fill="#CAAAA0"/>
<path d="M265.129 141.934H271.581V135.482H265.129V141.934Z" fill="#231F20"/>
<path d="M265.129 116.128H271.581V109.678H265.129V116.128Z" fill="#231F20"/>
<path d="M265.129 109.678H271.581V103.227H265.129V109.678Z" fill="#231F20"/>
<path d="M265.129 129.032H271.581V122.58H265.129V129.032Z" fill="#231F20"/>
<path d="M265.129 135.485H271.581V129.033H265.129V135.485Z" fill="#231F20"/>
<path d="M265.129 122.58H271.581V116.128H265.129V122.58Z" fill="#231F20"/>
<path d="M265.129 90.3215H271.581V83.8711H265.129V90.3215Z" fill="#CAAAA0"/>
<path d="M265.129 103.225H271.581V96.7734H265.129V103.225Z" fill="#B6968D"/>
<path d="M265.129 83.8711H271.581V77.4199H265.129V83.8711Z" fill="#CAAAA0"/>
<path d="M265.129 77.4188H271.581V70.9668H265.129V77.4188Z" fill="#CAAAA0"/>
<path d="M265.129 96.7734H271.581V90.3215H265.129V96.7734Z" fill="#CAAAA0"/>
<path d="M265.129 187.095H271.581V180.645H265.129V187.095Z" fill="#A87C74"/>
<path d="M265.129 180.645H271.581L271.581 174.193H265.129L265.129 180.645Z" fill="#A87C74"/>
<path d="M265.129 193.548H271.581V187.095H265.129V193.548Z" fill="#906761"/>
<path d="M265.129 161.29H271.581V154.84H265.129V161.29Z" fill="#231F20"/>
<path d="M265.129 174.193H271.581L271.581 167.742H265.129L265.129 174.193Z" fill="#A87C74"/>
<path d="M265.129 167.742H271.581V161.29H265.129V167.742Z" fill="#231F20"/>
<path d="M265.129 70.9668H271.581L271.581 64.5156H265.129L265.129 70.9668Z" fill="#CAAAA0"/>
<path d="M265.129 58.0653H271.581V51.6133H265.129V58.0653Z" fill="#E3C5BB"/>
<path d="M265.129 51.6133H271.581V45.1621H265.129V51.6133Z" fill="#231F20"/>
<path d="M265.129 64.5156H271.581L271.581 58.0653H265.129L265.129 64.5156Z" fill="#CAAAA0"/>
<path d="M265.129 19.3563H271.581V12.9043H265.129V19.3563Z" fill="#231F20"/>
<path d="M265.129 38.7098H271.581V32.2578H265.129V38.7098Z" fill="#231F20"/>
<path d="M265.129 25.8059H271.581V19.3563H265.129V25.8059Z" fill="#231F20"/>
<path d="M265.129 199.999H271.581V193.548H265.129V199.999Z" fill="#231F20"/>
<path d="M258.676 70.9677H265.128V64.5156H258.676V70.9677Z" fill="#CAAAA0"/>
<path d="M258.676 77.4188H265.128L265.128 70.9677H258.676L258.676 77.4188Z" fill="#CAAAA0"/>
<path d="M258.676 83.8719H265.128V77.4199H258.676V83.8719Z" fill="#CAAAA0"/>
<path d="M258.676 90.3215H265.128V83.8719H258.676V90.3215Z" fill="#CAAAA0"/>
<path d="M258.676 96.7743H265.128V90.3215H258.676V96.7743Z" fill="#CAAAA0"/>
<path d="M258.676 64.5156H265.128L265.128 58.0645H258.676L258.676 64.5156Z" fill="#CAAAA0"/>
<path d="M258.676 38.7098H265.128V32.2578H258.676V38.7098Z" fill="#231F20"/>
<path d="M258.676 45.163H265.128V38.7109H258.676V45.163Z" fill="#231F20"/>
<path d="M258.676 103.225H265.128V96.7743H258.676V103.225Z" fill="#B6968D"/>
<path d="M258.676 58.0645H265.128V51.6133H258.676V58.0645Z" fill="#CAAAA0"/>
<path d="M258.676 51.6133H265.128V45.163H258.676V51.6133Z" fill="#E3C5BB"/>
<path d="M258.676 148.388H265.128V141.936H258.676V148.388Z" fill="#231F20"/>
<path d="M258.676 154.839H265.128V148.388H258.676V154.839Z" fill="#231F20"/>
<path d="M258.676 141.934H265.128V135.482H258.676V141.934Z" fill="#76534E"/>
<path d="M258.676 161.29H265.128V154.84H258.676V161.29Z" fill="#A87C74"/>
<path d="M258.676 109.679H265.128V103.227H258.676V109.679Z" fill="#231F20"/>
<path d="M258.676 122.581H265.128V116.129H258.676V122.581Z" fill="#906761"/>
<path d="M258.676 116.129H265.128V109.679H258.676V116.129Z" fill="#906761"/>
<path d="M258.676 135.485H265.128V129.033H258.676V135.485Z" fill="#76534E"/>
<path d="M258.676 129.032H265.128V122.581H258.676V129.032Z" fill="#76534E"/>
<path d="M258.676 167.741H265.128L265.128 161.29H258.676L258.676 167.741Z" fill="#A87C74"/>
<path d="M258.676 180.645H265.128V174.193H258.676V180.645Z" fill="#A87C74"/>
<path d="M258.676 174.193H265.128V167.741H258.676V174.193Z" fill="#A87C74"/>
<path d="M258.676 187.095H265.128L265.128 180.645H258.676L258.676 187.095Z" fill="#A87C74"/>
<path d="M258.676 199.999H265.128V193.547H258.676V199.999Z" fill="#231F20"/>
<path d="M258.676 193.547H265.128V187.095H258.676V193.547Z" fill="white"/>
<path d="M32.8868 116.128H39.3388V109.678H32.8868V116.128Z" fill="#231F20"/>
<path d="M26.4337 103.225H32.8841V96.7734H26.4337V103.225Z" fill="#231F20"/>
<path d="M26.4337 116.128H32.8841V109.678H26.4337V116.128Z" fill="#666260"/>
<path d="M26.4337 122.581H32.8841V116.128H26.4337V122.581Z" fill="#666260"/>
<path d="M26.4337 109.678H32.8841V103.227H26.4337V109.678Z" fill="#94908F"/>
<path d="M13.5313 129.032H19.9833V122.58H13.5313V129.032Z" fill="#231F20"/>
<path d="M13.5313 109.679H19.9833V103.227H13.5313V109.679Z" fill="#7C7776"/>
<path d="M13.5313 122.58H19.9833V116.129H13.5313V122.58Z" fill="#666260"/>
<path d="M13.5313 116.129H19.9833V109.679H13.5313V116.129Z" fill="#7C7776"/>
<path d="M13.5313 103.225H19.9833V96.7734H13.5313V103.225Z" fill="#7C7776"/>
<path d="M13.5313 90.3215H19.9833V83.8711H13.5313V90.3215Z" fill="#231F20"/>
<path d="M13.5313 96.7734H19.9833V90.3215H13.5313V96.7734Z" fill="#94908F"/>
<path d="M13.5313 83.8711H19.9833V77.4199H13.5313V83.8711Z" fill="#231F20"/>
<path d="M19.9844 129.032H26.4365V122.58H19.9844V129.032Z" fill="#231F20"/>
<path d="M19.9844 122.58H26.4365V116.129H19.9844V122.58Z" fill="#666260"/>
<path d="M19.9844 116.129H26.4365V109.678H19.9844V116.129Z" fill="#7C7776"/>
<path d="M19.9844 109.678H26.4365V103.227H19.9844V109.678Z" fill="#7C7776"/>
<path d="M19.9844 103.225H26.4365V96.7734H19.9844V103.225Z" fill="#94908F"/>
<path d="M19.9844 96.7734H26.4365V90.3223H19.9844V96.7734Z" fill="#231F20"/>
<path d="M0.628906 70.9677H7.07933V64.5156H0.628906V70.9677Z" fill="#231F20"/>
<path d="M0.628967 90.3215H7.07939V83.8711H0.628967V90.3215Z" fill="#231F20"/>
<path d="M0.628967 83.8711H7.07939V77.4199H0.628967V83.8711Z" fill="#231F20"/>
<path d="M0.628967 77.4188H7.07939L7.07933 70.9677H0.628906L0.628967 77.4188Z" fill="#231F20"/>
<path d="M0.628967 96.7743H7.07939V90.3215H0.628967V96.7743Z" fill="#231F20"/>
<path d="M0.628967 116.128H7.07939V109.678H0.628967V116.128Z" fill="#231F20"/>
<path d="M0.628967 109.678H7.07939V103.227H0.628967V109.678Z" fill="#231F20"/>
<path d="M0.628967 103.225H7.07939V96.7743H0.628967V103.225Z" fill="#231F20"/>
<path d="M7.07819 129.032H13.5302V122.58H7.07819V129.032Z" fill="#A87C74"/>
<path d="M7.07819 122.58H13.5302V116.129H7.07819V122.58Z" fill="#231F20"/>
<path d="M7.07819 116.129H13.5302V109.678H7.07819V116.129Z" fill="#666260"/>
<path d="M7.07819 77.4188H13.5302V70.9668H7.07819V77.4188Z" fill="#231F20"/>
<path d="M7.07819 96.7743H13.5302V90.3223H7.07819V96.7743Z" fill="#7C7776"/>
<path d="M7.07819 103.225H13.5302V96.7743H7.07819V103.225Z" fill="#7C7776"/>
<path d="M7.07819 109.678H13.5302V103.227H7.07819V109.678Z" fill="#7C7776"/>
<path d="M7.07819 90.3223H13.5302V83.8711H7.07819V90.3223Z" fill="#7C7776"/>
<path d="M7.07819 83.8711H13.5302V77.4199H7.07819V83.8711Z" fill="#94908F"/>
</svg>
