<svg width="99" height="200" viewBox="0 0 99 200" fill="none" xmlns="http://www.w3.org/2000/svg">
<path d="M76.4199 151.35H81.8257V145.945H76.4199V151.35Z" fill="#BF5F22"/>
<path d="M71.0137 151.35H76.4181V145.945H71.0137V151.35Z" fill="#BF5F22"/>
<path d="M81.8257 151.35H87.2319V145.945H81.8257V151.35Z" fill="#231F20"/>
<path d="M54.7988 151.35H60.2033V145.945H54.7988V151.35Z" fill="#715E57"/>
<path d="M65.6074 151.35H71.0137V145.945H65.6074V151.35Z" fill="#231F20"/>
<path d="M87.2319 151.35H92.6382V145.945H87.2319V151.35Z" fill="#231F20"/>
<path d="M60.2052 151.352H65.6096V145.947H60.2052V151.352Z" fill="#715E57"/>
<path d="M16.9629 151.351H22.3673V145.945H16.9629V151.351Z" fill="#231F20"/>
<path d="M49.3926 151.35H54.7988V145.945H49.3926V151.35Z" fill="#231F20"/>
<path d="M22.3652 145.945V151.351L27.771 151.35V145.945H22.3652Z" fill="#BF5F22"/>
<path d="M27.7716 151.352H33.1774V145.947H27.7716V151.352Z" fill="#BF5F22"/>
<path d="M38.584 151.35H43.9884V145.945H38.584V151.35Z" fill="#231F20"/>
<path d="M43.9863 151.35H49.3926V145.945H43.9863V151.35Z" fill="#715E57"/>
<path d="M33.1774 151.352H38.5835V145.947H33.1774V151.352Z" fill="#BF5F22"/>
<path d="M54.7988 140.541H60.2033V135.137H54.7988V140.541Z" fill="#231F20"/>
<path d="M33.1777 140.541H38.5835V135.137H33.1777V140.541Z" fill="#231F20"/>
<path d="M38.5835 140.541H43.9884V135.137H38.5835V140.541Z" fill="#231F20"/>
<path d="M71.0137 140.541H76.4181V135.137H71.0137V140.541Z" fill="#730B0E"/>
<path d="M60.2052 140.541H65.6096V135.137H60.2052V140.541Z" fill="#231F20"/>
<path d="M65.6074 140.541H71.0137V135.137H65.6074V140.541Z" fill="#730B0E"/>
<path d="M43.9863 140.541H49.3921V135.137H43.9863V140.541Z" fill="#231F20"/>
<path d="M49.3921 140.541H54.7988V135.137H49.3921V140.541Z" fill="#730B0E"/>
<path d="M76.4316 140.541H81.8374V135.137H76.4316V140.541Z" fill="#730B0E"/>
<path d="M92.6387 140.541H98.0444V135.137H92.6387V140.541Z" fill="#231F20"/>
<path d="M87.2324 140.541H92.6387V135.137H87.2324V140.541Z" fill="#0D6AAA"/>
<path d="M81.7793 140.541H87.1851V135.137H81.7793V140.541Z" fill="#231F20"/>
<path d="M60.2052 145.947H65.6096V140.541H60.2052V145.947Z" fill="#907A72"/>
<path d="M71.0137 145.947H76.4181V140.541H71.0137V145.947Z" fill="#231F20"/>
<path d="M81.8262 145.947H87.2319L87.2324 140.541L81.8262 140.541V145.947Z" fill="#730B0E"/>
<path d="M76.4199 145.947H81.8262V140.541H76.4199V145.947Z" fill="#231F20"/>
<path d="M65.6074 145.947H71.0137V140.541H65.6074V145.947Z" fill="#231F20"/>
<path d="M92.6387 145.947H98.0444V140.541H92.6387V145.947Z" fill="#231F20"/>
<path d="M87.2319 145.947H92.6387V140.541H87.2324L87.2319 145.947Z" fill="#231F20"/>
<path d="M27.7716 145.947H33.1774L33.1777 140.541L27.7716 140.541V145.947Z" fill="#231F20"/>
<path d="M54.7988 145.947H60.2033V140.541H54.7988V145.947Z" fill="#907A72"/>
<path d="M22.3652 145.947L27.7716 145.947V140.541H22.3652V145.947Z" fill="#231F20"/>
<path d="M43.9863 145.947H49.3921V140.541H43.9863V145.947Z" fill="#907A72"/>
<path d="M49.3921 145.947H54.7988V140.541H49.3921V145.947Z" fill="#231F20"/>
<path d="M33.1774 145.947H38.5835V140.541H33.1777L33.1774 145.947Z" fill="#231F20"/>
<path d="M38.5835 145.947L43.9884 145.947V140.541H38.5835V145.947Z" fill="#231F20"/>
<path d="M54.7988 167.568H60.2033V162.162H54.7988V167.568Z" fill="#231F20"/>
<path d="M92.6387 162.162H98.0444V156.756H92.6387V162.162Z" fill="#231F20"/>
<path d="M87.2324 167.568H92.6382L92.6387 162.162L87.2324 162.162V167.568Z" fill="#C5181D"/>
<path d="M81.8262 167.568H87.2324V162.162H81.8262V167.568Z" fill="#0994DC"/>
<path d="M76.4199 167.568H81.8262V162.162H76.4199V167.568Z" fill="#9C1116"/>
<path d="M71.0137 167.568H76.4181V162.162H71.0137V167.568Z" fill="#231F20"/>
<path d="M92.6382 167.568H98.0444V162.162H92.6387L92.6382 167.568Z" fill="#231F20"/>
<path d="M49.3926 167.568H54.7988V162.162H49.3926V167.568Z" fill="#BF5F22"/>
<path d="M43.9863 167.568H49.3926V162.162H43.9863V167.568Z" fill="#231F20"/>
<path d="M87.2324 162.162L92.6387 162.162V156.756H87.2324V162.162Z" fill="#9C1116"/>
<path d="M81.8262 162.162H87.2324V156.756H81.8262V162.162Z" fill="#0994DC"/>
<path d="M81.8262 156.757H87.2319V151.352H81.8262V156.757Z" fill="#0D6AAA"/>
<path d="M87.2319 156.757H92.6382V151.352H87.2319V156.757Z" fill="#730B0E"/>
<path d="M60.2052 156.757H65.6096V151.352H60.2052V156.757Z" fill="#231F20"/>
<path d="M65.6074 156.757H71.0132V151.352H65.6074V156.757Z" fill="#231F20"/>
<path d="M71.0132 156.757H76.4181V151.352H71.0132V156.757Z" fill="#231F20"/>
<path d="M92.6382 156.757H98.0444V151.352H92.6382V156.757Z" fill="#231F20"/>
<path d="M76.4199 156.757H81.8262V151.352H76.4199V156.757Z" fill="#231F20"/>
<path d="M27.7716 156.757H33.1774V151.352H27.7716V156.757Z" fill="#231F20"/>
<path d="M22.3652 151.353V156.757H27.7716V151.352L22.3652 151.353Z" fill="#231F20"/>
<path d="M49.3926 156.757H54.7983V151.352H49.3926V156.757Z" fill="#8D4518"/>
<path d="M33.1774 156.757H38.5835V151.352H33.1774V156.757Z" fill="#231F20"/>
<path d="M43.9863 156.757H49.3926V151.352H43.9863V156.757Z" fill="#231F20"/>
<path d="M54.7983 156.757H60.2033V151.352H54.7983V156.757Z" fill="#231F20"/>
<path d="M38.5835 156.757H43.9884V151.352L38.5835 151.352V156.757Z" fill="#231F20"/>
<path d="M43.9863 162.162H49.3926L49.3921 156.756H43.9863V162.162Z" fill="#231F20"/>
<path d="M54.7988 162.162H60.2033V156.756H54.7988V162.162Z" fill="#231F20"/>
<path d="M49.3926 162.162H54.7988V156.756H49.3921L49.3926 162.162Z" fill="#BF5F22"/>
<path d="M76.4199 162.162H81.8262V156.756H76.4199V162.162Z" fill="#730B0E"/>
<path d="M71.0137 162.162H76.4181V156.756H71.0137V162.162Z" fill="#231F20"/>
<path d="M33.1777 91.8921H38.5835V86.4863H33.1777V91.8921Z" fill="#C5181D"/>
<path d="M71.0137 43.2437H76.4181V37.8379H71.0137V43.2437Z" fill="#C5181D"/>
<path d="M71.0137 27.0269H76.4181V21.6211H71.0137V27.0269Z" fill="#C5181D"/>
<path d="M60.2052 27.0269H65.6096V21.6211H60.2052V27.0269Z" fill="white"/>
<path d="M71.0137 32.4331H76.4181V27.0269H71.0137V32.4331Z" fill="#C5181D"/>
<path d="M71.0137 37.8379H76.4181V32.4316H71.0137V37.8379Z" fill="#C5181D"/>
<path d="M65.6074 27.0269H71.0137V21.6211H65.6074V27.0269Z" fill="#C5181D"/>
<path d="M38.584 27.0269H43.9884V21.6211H38.584V27.0269Z" fill="#231F20"/>
<path d="M54.7988 27.0269H60.2033V21.6211H54.7988V27.0269Z" fill="white"/>
<path d="M43.9902 27.0269H49.396V21.6211H43.9902V27.0269Z" fill="white"/>
<path d="M65.6074 32.4331H71.0137V27.0269H65.6074V32.4331Z" fill="#C5181D"/>
<path d="M71.0137 59.4591H76.4181V54.0547H71.0137V59.4591Z" fill="#C5181D"/>
<path d="M71.0137 86.4878H76.4181V81.082H71.0137V86.4878Z" fill="#C5181D"/>
<path d="M71.0137 81.082H76.4181V75.6758H71.0137V81.082Z" fill="#C5181D"/>
<path d="M71.0137 48.6499H76.4181V43.2437H71.0137V48.6499Z" fill="#C5181D"/>
<path d="M71.0137 91.8921H76.4181V86.4863H71.0137V91.8921Z" fill="#C5181D"/>
<path d="M71.0137 75.6758H76.4181V70.2715H71.0137V75.6758Z" fill="#F1511B"/>
<path d="M71.0137 97.297H76.4181V91.8921H71.0137V97.297Z" fill="#C5181D"/>
<path d="M33.1777 27.0269H38.584V21.6211H33.1777V27.0269Z" fill="#FDDD04"/>
<path d="M71.0137 70.2715H76.4181V64.8652H71.0137V70.2715Z" fill="#C5181D"/>
<path d="M71.0137 54.0547H76.4181V48.6484H71.0137V54.0547Z" fill="#C5181D"/>
<path d="M71.0137 64.8652H76.4181V59.4591H71.0137V64.8652Z" fill="#C5181D"/>
<path d="M71.0137 102.703H76.4181V97.297H71.0137V102.703Z" fill="#FABC09"/>
<path d="M16.9629 27.0269H22.3673V21.6211H16.9629V27.0269Z" fill="#FDDD04"/>
<path d="M27.7716 27.0269H33.1777V21.6211H27.7716V27.0269Z" fill="#FDDD04"/>
<path d="M11.5566 27.0269H16.9629V21.6211H11.5566V27.0269Z" fill="#FDDD04"/>
<path d="M11.5566 21.6211H16.9629L16.9624 16.2168H11.5566V21.6211Z" fill="#231F20"/>
<path d="M22.3652 27.0269H27.7716V21.6211H22.3652V27.0269Z" fill="#FDDD04"/>
<path d="M6.15025 32.4333H11.556L11.5566 27.0269L6.15025 27.0275V32.4333Z" fill="#FDDD04"/>
<path d="M6.15025 27.0275L11.5566 27.0269V21.6211H6.15027L6.15025 27.0275Z" fill="#231F20"/>
<path d="M11.556 32.4333L16.9624 32.4331L16.9629 27.0269H11.5566L11.556 32.4333Z" fill="#FABC09"/>
<path d="M43.9902 32.4331H49.396V27.0269H43.9902V32.4331Z" fill="#231F20"/>
<path d="M71.0137 108.109H76.4181V102.703H71.0137V108.109Z" fill="#FABC09"/>
<path d="M16.9624 32.4331H22.3673V27.0269H16.9629L16.9624 32.4331Z" fill="#FABC09"/>
<path d="M60.2052 32.4333H65.6097L65.6096 27.0269H60.2052L60.2052 32.4333Z" fill="white"/>
<path d="M49.3926 32.4331H54.7983L54.7988 27.0269L49.3926 27.0273V32.4331Z" fill="white"/>
<path d="M38.584 32.4331H43.9884V27.0269H38.584V32.4331Z" fill="#FDDD04"/>
<path d="M22.3652 32.4331H27.771L27.7716 27.0269H22.3652V32.4331Z" fill="#FABC09"/>
<path d="M27.771 32.4331L33.1774 32.4333L33.1777 27.0269H27.7716L27.771 32.4331Z" fill="#FABC09"/>
<path d="M33.1774 32.4333L38.584 32.4331V27.0269H33.1777L33.1774 32.4333Z" fill="#FABC09"/>
<path d="M54.7983 32.4331H60.2033V27.0269H54.7988L54.7983 32.4331Z" fill="white"/>
<path d="M38.584 108.109H43.9884V102.703H38.584V108.109Z" fill="#C5181D"/>
<path d="M43.9863 108.109H49.3921V102.703H43.9863V108.109Z" fill="#C5181D"/>
<path d="M16.9629 108.109H22.3673V102.703H16.9629V108.109Z" fill="#231F20"/>
<path d="M22.3652 102.703V108.109H27.771V102.703H22.3652Z" fill="#9C1116"/>
<path d="M27.771 108.109L33.1774 108.109V102.703L27.771 102.703V108.109Z" fill="#C5181D"/>
<path d="M65.6074 108.109H71.0137V102.703L65.6074 102.703V108.109Z" fill="#FABC09"/>
<path d="M49.3921 108.109H54.7983V102.703H49.3921V108.109Z" fill="#C5181D"/>
<path d="M60.2052 108.109H65.6097V102.703H60.2052V108.109Z" fill="#231F20"/>
<path d="M54.7983 108.109H60.2033V102.703H54.7983V108.109Z" fill="#C5181D"/>
<path d="M33.1774 108.109L38.584 108.109V102.703L33.1774 102.703V108.109Z" fill="#C5181D"/>
<path d="M49.3926 27.0273L54.7988 27.0269V21.6211H49.3926V27.0273Z" fill="white"/>
<path d="M33.1777 21.6211H38.584L38.5835 16.2168H33.1777V21.6211Z" fill="#231F20"/>
<path d="M16.9629 21.6211H22.3673V16.2168H16.9624L16.9629 21.6211Z" fill="#231F20"/>
<path d="M27.7716 21.6211H33.1777V16.2168H27.7716V21.6211Z" fill="#231F20"/>
<path d="M22.3652 21.6211H27.7716V16.2168H22.3652V21.6211Z" fill="#231F20"/>
<path d="M38.584 21.6211H43.9902L43.9898 16.2168H38.5835L38.584 21.6211Z" fill="#231F20"/>
<path d="M22.3652 113.516V118.92H27.771V113.516H22.3652Z" fill="#231F20"/>
<path d="M27.7716 118.918H33.1774V113.514H27.7716V118.918Z" fill="#9C1116"/>
<path d="M33.1774 118.918H38.5835V113.514H33.1774V118.918Z" fill="#C5181D"/>
<path d="M43.9863 118.92H49.3921V113.516H43.9863V118.92Z" fill="#C5181D"/>
<path d="M49.3921 118.92H54.7983V113.516H49.3921V118.92Z" fill="#C5181D"/>
<path d="M38.584 118.92H43.9884V113.516H38.584V118.92Z" fill="#C5181D"/>
<path d="M65.6074 113.515H71.0132L71.0137 108.109H65.6074V113.515Z" fill="#0994DC"/>
<path d="M33.1777 113.515L38.584 113.516V108.109L33.1774 108.109L33.1777 113.515Z" fill="#C5181D"/>
<path d="M49.3921 113.516H54.7983V108.109H49.3921V113.516Z" fill="#C5181D"/>
<path d="M60.2052 113.515H65.6096L65.6097 108.109H60.2052L60.2052 113.515Z" fill="#231F20"/>
<path d="M38.584 113.516H43.9884V108.109H38.584V113.516Z" fill="#C5181D"/>
<path d="M43.9863 113.516H49.3921V108.109H43.9863V113.516Z" fill="#C5181D"/>
<path d="M54.7983 113.516L60.2033 113.515V108.109H54.7983V113.516Z" fill="#C5181D"/>
<path d="M76.4199 113.515H81.8257V108.109H76.4199V113.515Z" fill="#0994DC"/>
<path d="M76.4199 108.109H81.8257V102.703H76.4199V108.109Z" fill="#FABC09"/>
<path d="M71.0132 113.515H76.4181V108.109H71.0137L71.0132 113.515Z" fill="#FABC09"/>
<path d="M76.4199 102.703H81.8257V97.2969H76.4199V102.703Z" fill="#FABC09"/>
<path d="M27.771 113.516L33.1777 113.515L33.1774 108.109L27.771 108.109V113.516Z" fill="#9C1116"/>
<path d="M22.3652 108.109V113.516H27.771V108.109H22.3652Z" fill="#730B0E"/>
<path d="M16.9629 113.515H22.3673V108.109H16.9629V113.515Z" fill="#231F20"/>
<path d="M43.9863 21.6212L49.3926 21.6211L49.3921 16.2168H43.9863V21.6212Z" fill="white"/>
<path d="M76.4199 27.0269H81.8257V21.6211H76.4199V27.0269Z" fill="#231F20"/>
<path d="M71.0137 21.6211H76.4181V16.2168H71.0137V21.6211Z" fill="#C5181D"/>
<path d="M76.4199 21.6211H81.8257V16.2168H76.4199V21.6211Z" fill="#231F20"/>
<path d="M76.4199 37.8374H81.8257V32.4316H76.4199V37.8374Z" fill="#231F20"/>
<path d="M76.4199 97.2969H81.8257V91.8926H76.4199V97.2969Z" fill="#FABC09"/>
<path d="M49.3926 21.6211H54.7988L54.7983 16.2168H49.3921L49.3926 21.6211Z" fill="#231F20"/>
<path d="M76.4199 43.2437H81.8257V37.8374H76.4199V43.2437Z" fill="#231F20"/>
<path d="M54.7988 21.6211H60.2033V16.2168H54.7983L54.7988 21.6211Z" fill="white"/>
<path d="M60.2052 21.6211H65.6096V16.2168H60.2052V21.6211Z" fill="white"/>
<path d="M65.6074 21.6211H71.0137V16.2168H65.6074V21.6211Z" fill="#C5181D"/>
<path d="M76.4199 32.4331H81.8257V27.0269H76.4199V32.4331Z" fill="#231F20"/>
<path d="M76.4199 86.4878H81.8257V81.082H76.4199V86.4878Z" fill="#C5181D"/>
<path d="M76.4199 81.082H81.8257V75.6758H76.4199V81.082Z" fill="#C5181D"/>
<path d="M76.4199 91.8926H81.8257V86.4863H76.4199V91.8926Z" fill="#C5181D"/>
<path d="M76.4199 48.6499H81.8257V43.2437H76.4199V48.6499Z" fill="#F1511B"/>
<path d="M76.4199 75.6758H81.8257V70.2715H76.4199V75.6758Z" fill="#C5181D"/>
<path d="M76.4199 54.0542H81.8257V48.6484H76.4199V54.0542Z" fill="#C5181D"/>
<path d="M76.4199 70.2715H81.8257V64.8652H76.4199V70.2715Z" fill="#C5181D"/>
<path d="M76.4199 59.4591H81.8257V54.0542H76.4199V59.4591Z" fill="#C5181D"/>
<path d="M76.4199 64.8652H81.8257V59.4591H76.4199V64.8652Z" fill="#C5181D"/>
<path d="M38.584 75.6759H43.9884V70.2715H38.584V75.6759Z" fill="#F36717"/>
<path d="M11.5566 48.6499H16.9624V43.2441H11.5566V48.6499Z" fill="#FABC09"/>
<path d="M11.5566 54.0542H16.9624V48.6484H11.5566V54.0542Z" fill="#231F20"/>
<path d="M16.9624 48.6499H22.3673V43.2441H16.9624V48.6499Z" fill="#231F20"/>
<path d="M22.3652 48.6499H27.771V43.2441H22.3652V48.6499Z" fill="#231F20"/>
<path d="M27.771 48.6499H33.1774V43.2441H27.771V48.6499Z" fill="#231F20"/>
<path d="M49.3926 64.8648H54.7983V59.459H49.3926V64.8648Z" fill="#C5181D"/>
<path d="M33.1774 48.6499H38.5835V43.2441H33.1774V48.6499Z" fill="#231F20"/>
<path d="M49.3926 70.271H54.7983V64.8648H49.3926V70.271Z" fill="#C5181D"/>
<path d="M49.3926 81.0816H54.7983V75.6758H49.3926V81.0816Z" fill="#C5181D"/>
<path d="M49.3926 75.6758H54.7983V70.271H49.3926V75.6758Z" fill="#F36717"/>
<path d="M49.3926 59.459H54.7983V54.0547H49.3926V59.459Z" fill="#C5181D"/>
<path d="M38.5835 48.6499H43.9884V43.2441H38.5835V48.6499Z" fill="#231F20"/>
<path d="M43.9902 48.6499H49.396V43.2441H43.9902V48.6499Z" fill="#231F20"/>
<path d="M49.3926 48.6499H54.7983V43.2441H49.3926V48.6499Z" fill="#9C1116"/>
<path d="M49.3926 54.0547H54.7983V48.6484H49.3926V54.0547Z" fill="#C5181D"/>
<path d="M54.7983 75.6758L60.2033 75.6759V70.2715L54.7983 70.271V75.6758Z" fill="#C5181D"/>
<path d="M54.7983 64.8648H60.2033V59.459H54.7983V64.8648Z" fill="#C5181D"/>
<path d="M54.7983 59.459H60.2033V54.0547H54.7983V59.459Z" fill="#C5181D"/>
<path d="M54.7983 70.271L60.2033 70.2715V64.8648H54.7983V70.271Z" fill="#C5181D"/>
<path d="M54.7983 54.0547H60.2033V48.6484H54.7983V54.0547Z" fill="#C5181D"/>
<path d="M49.3926 86.4878H54.7983V81.0816H49.3926V86.4878Z" fill="#C5181D"/>
<path d="M16.9629 86.4878H22.3673V81.082H16.9629V86.4878Z" fill="#231F20"/>
<path d="M65.6074 37.8374L71.0137 37.8379V32.4316H65.6074V37.8374Z" fill="#C5181D"/>
<path d="M54.7983 48.6499H60.2033V43.2441H54.7983V48.6499Z" fill="#C5181D"/>
<path d="M49.3926 43.2441H54.7983V37.8379H49.3926V43.2441Z" fill="#231F20"/>
<path d="M54.7983 43.2441H60.2033V37.8379H54.7983V43.2441Z" fill="white"/>
<path d="M43.9902 43.2441H49.396V37.8379H43.9902V43.2441Z" fill="#231F20"/>
<path d="M27.7716 91.8921H33.1777V86.4863H27.7716V91.8921Z" fill="#C5181D"/>
<path d="M22.3652 86.4863V91.8921H27.7716V86.4863H22.3652Z" fill="#C5181D"/>
<path d="M16.9629 91.8921H22.3673V86.4863H16.9629V91.8921Z" fill="#231F20"/>
<path d="M54.7983 86.4878H60.2033V81.082L54.7983 81.0816V86.4878Z" fill="#C5181D"/>
<path d="M49.3926 91.8921H54.7983V86.4863H49.3926V91.8921Z" fill="#C5181D"/>
<path d="M54.7983 91.8921H60.2033V86.4863H54.7983V91.8921Z" fill="#C5181D"/>
<path d="M43.9863 91.8921H49.3926V86.4863H43.9863V91.8921Z" fill="#C5181D"/>
<path d="M38.5835 91.8921H43.9884V86.4863H38.5835V91.8921Z" fill="#C5181D"/>
<path d="M43.9863 86.4878H49.3926V81.0816L43.9863 81.082V86.4878Z" fill="#F36717"/>
<path d="M38.5835 43.2441H43.9884V37.8379H38.584L38.5835 43.2441Z" fill="#231F20"/>
<path d="M22.3652 59.4591H27.771V54.0547H22.3652V59.4591Z" fill="#231F20"/>
<path d="M22.3652 75.6759H27.771V70.2715H22.3652V75.6759Z" fill="#231F20"/>
<path d="M33.1777 59.4591H38.5835V54.0547H33.1777V59.4591Z" fill="#9C1116"/>
<path d="M38.584 81.0816H43.9884V75.6759H38.584V81.0816Z" fill="#C5181D"/>
<path d="M43.9863 81.082L49.3926 81.0816V75.6758H43.9863V81.082Z" fill="#F36717"/>
<path d="M33.1777 81.0816H38.584V75.6759L33.1777 75.6758V81.0816Z" fill="#F36717"/>
<path d="M27.7716 81.0816H33.1777V75.6758L27.771 75.6759L27.7716 81.0816Z" fill="#F36717"/>
<path d="M27.771 75.6759L33.1777 75.6758L33.1774 70.2715H27.771V75.6759Z" fill="#F36717"/>
<path d="M33.1774 70.2715H38.584L38.5835 64.8652H33.1777L33.1774 70.2715Z" fill="#C5181D"/>
<path d="M27.771 70.2715H33.1774L33.1777 64.8652H27.7716L27.771 70.2715Z" fill="#231F20"/>
<path d="M27.7716 64.8652H33.1777L33.1777 59.4591H27.771L27.7716 64.8652Z" fill="#231F20"/>
<path d="M33.1777 64.8652H38.5835L38.5835 59.4591H33.1777L33.1777 64.8652Z" fill="#C5181D"/>
<path d="M38.5835 59.4591H43.9884V54.0547H38.5835V59.4591Z" fill="#9C1116"/>
<path d="M38.584 70.2715H43.9884V64.8652L38.5835 64.8652L38.584 70.2715Z" fill="#C5181D"/>
<path d="M33.1777 75.6758L38.584 75.6759V70.2715H33.1774L33.1777 75.6758Z" fill="#C5181D"/>
<path d="M38.5835 64.8652L43.9884 64.8652V59.4591H38.5835L38.5835 64.8652Z" fill="#C5181D"/>
<path d="M54.7983 118.92H60.2033V113.515L54.7983 113.516V118.92Z" fill="#C5181D"/>
<path d="M27.771 59.4591H33.1777V54.0547H27.771V59.4591Z" fill="#9C1116"/>
<path d="M22.3652 81.0816H27.7716L27.771 75.6759H22.3652V81.0816Z" fill="#F36717"/>
<path d="M16.9629 81.082H22.3673V75.6758H16.9629V81.082Z" fill="#231F20"/>
<path d="M22.3652 86.4878H27.771L27.7716 81.0816H22.3652V86.4878Z" fill="#F36717"/>
<path d="M33.1777 86.4878H38.5835L38.584 81.0816H33.1777V86.4878Z" fill="#F36717"/>
<path d="M38.5835 86.4878H43.9884V81.0816H38.584L38.5835 86.4878Z" fill="#C5181D"/>
<path d="M27.771 86.4878H33.1777V81.0816H27.7716L27.771 86.4878Z" fill="#C5181D"/>
<path d="M33.1777 54.0547H38.5835V48.6484H33.1777V54.0547Z" fill="#231F20"/>
<path d="M43.9902 54.0542H49.396V48.6484H43.9902V54.0542Z" fill="#9C1116"/>
<path d="M43.9863 64.8648H49.3926V59.459H43.9863V64.8648Z" fill="#C5181D"/>
<path d="M43.9863 59.459H49.3926V54.0547H43.9863V59.459Z" fill="#C5181D"/>
<path d="M43.9863 70.271H49.3926V64.8648H43.9863V70.271Z" fill="#C5181D"/>
<path d="M27.771 54.0547H33.1777V48.6484H27.7716L27.771 54.0547Z" fill="#231F20"/>
<path d="M22.3652 54.0547H27.771L27.7716 48.6484H22.3652V54.0547Z" fill="#231F20"/>
<path d="M16.9624 54.0542H22.3673V48.6484H16.9624V54.0542Z" fill="#231F20"/>
<path d="M38.5835 54.0547H43.9884V48.6484H38.5835V54.0547Z" fill="#231F20"/>
<path d="M43.9863 75.6758H49.3926V70.271H43.9863V75.6758Z" fill="#C5181D"/>
<path d="M54.7983 81.0816L60.2033 81.082V75.6759L54.7983 75.6758V81.0816Z" fill="#F36717"/>
<path d="M11.5566 37.8374H16.9624V32.4316H11.5566V37.8374Z" fill="#FABC09"/>
<path d="M16.9629 102.703H22.3673V97.2969H16.9629V102.703Z" fill="#231F20"/>
<path d="M16.9624 37.8374H22.3673V32.4316H16.9624V37.8374Z" fill="#FABC09"/>
<path d="M22.3652 37.8374H27.771V32.4316H22.3652V37.8374Z" fill="#FABC09"/>
<path d="M6.15027 37.8374H11.5566V32.4316H6.15027V37.8374Z" fill="#FABC09"/>
<path d="M0.744141 43.2435H6.14991L6.15027 37.8374L0.744141 37.8377V43.2435Z" fill="#231F20"/>
<path d="M0.744141 37.8377L6.15027 37.8374V32.4316H0.744141L0.744141 37.8377Z" fill="#231F20"/>
<path d="M0.744141 32.4333H6.15025V27.0275H0.744141V32.4333Z" fill="#231F20"/>
<path d="M0.744141 48.6499H6.14991V43.2435H0.744141L0.744141 48.6499Z" fill="#231F20"/>
<path d="M0.744141 54.0542H6.14991V48.6484H0.744141V54.0542Z" fill="#231F20"/>
<path d="M22.3652 97.2969V102.703H27.771V97.2969H22.3652Z" fill="#C5181D"/>
<path d="M65.6074 70.271L71.0137 70.2715V64.8652H65.6074V70.271Z" fill="#F1511B"/>
<path d="M65.6074 64.8652H71.0137V59.4591L65.6074 59.459V64.8652Z" fill="#C5181D"/>
<path d="M65.6074 75.6759L71.0137 75.6758V70.2715L65.6074 70.271V75.6759Z" fill="#231F20"/>
<path d="M65.6074 81.0816L71.0137 81.082V75.6758L65.6074 75.6759V81.0816Z" fill="#F1511B"/>
<path d="M27.771 37.8374H33.1774V32.4316H27.771V37.8374Z" fill="#FABC09"/>
<path d="M65.6074 54.0542L71.0137 54.0547V48.6484H65.6074V54.0542Z" fill="#C5181D"/>
<path d="M65.6074 59.459L71.0137 59.4591V54.0547L65.6074 54.0542V59.459Z" fill="#C5181D"/>
<path d="M65.6074 48.6499H71.0137V43.2437L65.6074 43.2441V48.6499Z" fill="#C5181D"/>
<path d="M65.6074 43.2441L71.0137 43.2437V37.8379L65.6074 37.8374V43.2441Z" fill="#C5181D"/>
<path d="M65.6074 91.8921H71.0137V86.4863H65.6074V91.8921Z" fill="#C5181D"/>
<path d="M65.6074 86.4878H71.0137V81.082L65.6074 81.0816V86.4878Z" fill="#C5181D"/>
<path d="M38.584 102.703H43.9884V97.2969H38.584V102.703Z" fill="#C5181D"/>
<path d="M33.1774 102.703L38.584 102.703V97.2969H33.1777L33.1774 102.703Z" fill="#C5181D"/>
<path d="M43.9863 102.703H49.3921V97.2969H43.9863V102.703Z" fill="#C5181D"/>
<path d="M65.6074 97.297H71.0137V91.8921H65.6074V97.297Z" fill="#FABC09"/>
<path d="M27.771 102.703L33.1774 102.703L33.1777 97.2969H27.771V102.703Z" fill="#C5181D"/>
<path d="M60.2052 102.703H65.6097L65.6096 97.2969H60.2052L60.2052 102.703Z" fill="#231F20"/>
<path d="M65.6074 102.703L71.0137 102.703V97.297H65.6074V102.703Z" fill="#FABC09"/>
<path d="M49.3921 102.703H54.7983V97.2969H49.3921V102.703Z" fill="#C5181D"/>
<path d="M54.7983 102.703H60.2033V97.2969H54.7983V102.703Z" fill="#C5181D"/>
<path d="M33.1774 37.8374L38.584 37.8379L38.5835 32.4316H33.1774V37.8374Z" fill="#FABC09"/>
<path d="M33.1774 43.2441H38.5835L38.584 37.8379L33.1774 37.8374V43.2441Z" fill="#FABC09"/>
<path d="M16.9629 97.2969H22.3673V91.8921H16.9629V97.2969Z" fill="#231F20"/>
<path d="M22.3652 91.8921V97.2969H27.771L27.7716 91.8921H22.3652Z" fill="#C5181D"/>
<path d="M27.771 97.2969H33.1777V91.8921H27.7716L27.771 97.2969Z" fill="#C5181D"/>
<path d="M6.15027 59.4591H11.556L11.5566 54.0542H6.14991L6.15027 59.4591Z" fill="#231F20"/>
<path d="M16.9624 43.2441H22.3673V37.8374H16.9624V43.2441Z" fill="#FABC09"/>
<path d="M22.3652 43.2441H27.771V37.8374H22.3652V43.2441Z" fill="#FABC09"/>
<path d="M27.771 43.2441H33.1774V37.8374H27.771V43.2441Z" fill="#FABC09"/>
<path d="M11.5566 43.2441H16.9624V37.8374H11.5566V43.2441Z" fill="#FABC09"/>
<path d="M6.14991 54.0542H11.5566V48.6484H6.14991V54.0542Z" fill="#FABC09"/>
<path d="M33.1777 97.2969H38.584L38.5835 91.8921H33.1777V97.2969Z" fill="#C5181D"/>
<path d="M6.14991 43.2435L11.5566 43.2441V37.8374H6.15027L6.14991 43.2435Z" fill="#FABC09"/>
<path d="M6.14991 48.6499H11.5566V43.2441L6.14991 43.2435V48.6499Z" fill="#FABC09"/>
<path d="M60.2052 48.6499H65.6096V43.2441H60.2052V48.6499Z" fill="#C5181D"/>
<path d="M60.2052 43.2441H65.6096L65.6097 37.8377H60.2052L60.2052 43.2441Z" fill="#C5181D"/>
<path d="M60.2052 59.4591H65.6096V54.0547H60.2052V59.4591Z" fill="#C5181D"/>
<path d="M60.2052 54.0547H65.6096V48.6484H60.2052V54.0547Z" fill="#C5181D"/>
<path d="M60.2052 37.8377H65.6097L65.6096 32.4316H60.2052L60.2052 37.8377Z" fill="white"/>
<path d="M38.584 97.2969H43.9884V91.8921H38.5835L38.584 97.2969Z" fill="#C5181D"/>
<path d="M38.584 37.8379H43.9884V32.4316H38.5835L38.584 37.8379Z" fill="#FABC09"/>
<path d="M43.9902 37.8379H49.396V32.4316H43.9902V37.8379Z" fill="#231F20"/>
<path d="M54.7983 37.8379H60.2033V32.4316H54.7988L54.7983 37.8379Z" fill="white"/>
<path d="M49.3926 37.8379H54.7983L54.7988 32.4316H49.3926V37.8379Z" fill="#231F20"/>
<path d="M60.2052 64.8648H65.6096V59.4591H60.2052V64.8648Z" fill="#C5181D"/>
<path d="M54.7983 97.2969H60.2033V91.8921H54.7983V97.2969Z" fill="#C5181D"/>
<path d="M49.3921 97.2969H54.7983V91.8921H49.3926L49.3921 97.2969Z" fill="#C5181D"/>
<path d="M60.2052 97.2969H65.6096L65.6097 91.8927H60.2052L60.2052 97.2969Z" fill="#231F20"/>
<path d="M60.2052 70.271H65.6097L65.6096 64.8648H60.2052L60.2052 70.271Z" fill="#C5181D"/>
<path d="M43.9863 97.2969H49.3921L49.3926 91.8921H43.9863V97.2969Z" fill="#C5181D"/>
<path d="M60.2052 81.0816H65.6096V75.6758H60.2052V81.0816Z" fill="#231F20"/>
<path d="M60.2052 91.8927H65.6097L65.6096 86.4863H60.2052L60.2052 91.8927Z" fill="#231F20"/>
<path d="M60.2052 75.6758H65.6096L65.6097 70.271H60.2052L60.2052 75.6758Z" fill="#C5181D"/>
<path d="M60.2052 86.4878H65.6096V81.0816H60.2052V86.4878Z" fill="#231F20"/>
<path d="M49.3921 135.137H54.7988L54.7983 129.73H49.3926L49.3921 135.137Z" fill="#730B0E"/>
<path d="M38.5835 135.137H43.9884V129.73H38.584L38.5835 135.137Z" fill="#730B0E"/>
<path d="M27.7716 135.136L33.1777 135.137L33.1774 129.73H27.7716V135.136Z" fill="#231F20"/>
<path d="M43.9863 135.137H49.3921L49.3926 129.73H43.9863V135.137Z" fill="#730B0E"/>
<path d="M33.1777 135.137H38.5835L38.584 129.73L33.1774 129.73L33.1777 135.137Z" fill="#730B0E"/>
<path d="M92.6387 113.515H98.0444V108.109H92.6387V113.515Z" fill="#231F20"/>
<path d="M92.6387 108.109H98.0444V102.703H92.6387V108.109Z" fill="#231F20"/>
<path d="M92.6387 102.703H98.0444V97.2969H92.6387V102.703Z" fill="#231F20"/>
<path d="M92.6387 118.92H98.0444V113.515H92.6387V118.92Z" fill="#231F20"/>
<path d="M60.2052 118.918H65.6096V113.514H60.2052V118.918Z" fill="#9C1116"/>
<path d="M92.6387 81.0816H98.0444V75.6758H92.6387V81.0816Z" fill="#231F20"/>
<path d="M92.6387 86.4878H98.0444V81.0816H92.6387V86.4878Z" fill="#231F20"/>
<path d="M92.6387 97.2969H98.0444V91.8926H92.6387V97.2969Z" fill="#231F20"/>
<path d="M54.7988 5.40577H60.2033V0H54.7988V5.40577Z" fill="#231F20"/>
<path d="M43.9863 5.40577H49.3921V0H43.9863V5.40577Z" fill="#231F20"/>
<path d="M33.1777 5.40577H38.5835V0H33.1777V5.40577Z" fill="#231F20"/>
<path d="M38.5835 5.40577H43.9884V0H38.5835V5.40577Z" fill="#231F20"/>
<path d="M49.3921 5.40577H54.7988V0H49.3921V5.40577Z" fill="#231F20"/>
<path d="M60.2052 5.40577H65.6097V0H60.2052V5.40577Z" fill="#231F20"/>
<path d="M65.6074 5.40577H71.0132V0H65.6074V5.40577Z" fill="#231F20"/>
<path d="M54.7988 135.137H60.2033V129.73H54.7983L54.7988 135.137Z" fill="#730B0E"/>
<path d="M92.6387 124.324H98.0444V118.918H92.6387V124.324Z" fill="#231F20"/>
<path d="M76.4199 135.136H81.8257V129.73H76.4199V135.136Z" fill="#231F20"/>
<path d="M65.6074 135.137H71.0137L71.0132 129.73H65.6074V135.137Z" fill="#730B0E"/>
<path d="M71.0137 135.137H76.4181V129.73H71.0132L71.0137 135.137Z" fill="#730B0E"/>
<path d="M60.2052 135.137H65.6096L65.6097 129.73H60.2052L60.2052 135.137Z" fill="#730B0E"/>
<path d="M92.6387 135.137H98.0444V129.73H92.6387V135.137Z" fill="#231F20"/>
<path d="M87.2324 135.137H92.6387V129.73H87.2324V135.137Z" fill="#0994DC"/>
<path d="M81.8257 135.136L87.2324 135.137V129.73H81.8257V135.136Z" fill="#0D6AAA"/>
<path d="M92.6387 91.8926H98.0444V86.4863H92.6387V91.8926Z" fill="#231F20"/>
<path d="M65.6074 124.324H71.0132V118.918H65.6074V124.324Z" fill="#231F20"/>
<path d="M60.2052 124.324H65.6096V118.918H60.2052V124.324Z" fill="#9C1116"/>
<path d="M54.7988 124.324H60.2033V118.918H54.7988V124.324Z" fill="#9C1116"/>
<path d="M71.0132 124.324H76.4181V118.918H71.0132V124.324Z" fill="#0D6AAA"/>
<path d="M49.3926 124.324H54.7988V118.918H49.3926V124.324Z" fill="#C5181D"/>
<path d="M87.2324 118.92H92.6387V113.515L87.2324 113.516V118.92Z" fill="#0994DC"/>
<path d="M43.9863 124.324H49.3926V118.918H43.9863V124.324Z" fill="#C5181D"/>
<path d="M87.2324 124.324H92.6387V118.918H87.2324V124.324Z" fill="#0994DC"/>
<path d="M81.8262 124.324H87.2324V118.918H81.8262V124.324Z" fill="#0994DC"/>
<path d="M76.4199 124.324H81.8262V118.918H76.4199V124.324Z" fill="#0994DC"/>
<path d="M22.3652 124.324H27.771L27.7716 118.918L22.3652 118.918V124.324Z" fill="#231F20"/>
<path d="M27.771 124.324H33.1774V118.918H27.7716L27.771 124.324Z" fill="#730B0E"/>
<path d="M33.1774 124.324H38.5835V118.918H33.1774V124.324Z" fill="#9C1116"/>
<path d="M38.5835 124.324H43.9884V118.918L38.5835 118.918V124.324Z" fill="#C5181D"/>
<path d="M81.8257 59.4591H87.2319V54.0547L81.8257 54.0542V59.4591Z" fill="#F1511B"/>
<path d="M87.2324 113.516L92.6387 113.515V108.109H87.2324V113.516Z" fill="#0994DC"/>
<path d="M81.8257 70.2715L87.2319 70.271V64.8652H81.8257V70.2715Z" fill="#C5181D"/>
<path d="M81.8257 75.6758L87.2319 75.6759V70.271L81.8257 70.2715V75.6758Z" fill="#C5181D"/>
<path d="M81.8257 86.4878H87.2319V81.082H81.8257V86.4878Z" fill="#C5181D"/>
<path d="M81.8257 81.082H87.2319V75.6759L81.8257 75.6758V81.082Z" fill="#C5181D"/>
<path d="M81.8257 54.0542L87.2319 54.0547V48.6484H81.8257V54.0542Z" fill="#231F20"/>
<path d="M81.8257 48.6499H87.2319V43.2441L81.8257 43.2437V48.6499Z" fill="#231F20"/>
<path d="M76.4199 118.92H81.8257V113.515H76.4199V118.92Z" fill="#0994DC"/>
<path d="M71.0137 118.92H76.4181V113.515H71.0132L71.0137 118.92Z" fill="#0994DC"/>
<path d="M81.8257 118.92H87.2324V113.516L81.8257 113.515V118.92Z" fill="#0994DC"/>
<path d="M65.6074 118.92H71.0137L71.0132 113.515H65.6074V118.92Z" fill="#231F20"/>
<path d="M92.6387 129.73H98.0444V124.324H92.6387V129.73Z" fill="#231F20"/>
<path d="M81.8257 97.2969L87.2319 97.297V91.8926H81.8257V97.2969Z" fill="#C5181D"/>
<path d="M81.8257 102.703L87.2319 102.703V97.297L81.8257 97.2969V102.703Z" fill="#FABC09"/>
<path d="M81.8257 113.515L87.2324 113.516V108.109H81.8257V113.515Z" fill="#FABC09"/>
<path d="M81.8257 91.8926H87.2319V86.4863H81.8257V91.8926Z" fill="#C5181D"/>
<path d="M81.8257 64.8652H87.2319V59.4591H81.8257V64.8652Z" fill="#231F20"/>
<path d="M22.3652 16.2168H27.7716L27.771 10.8125H22.3652V16.2168Z" fill="#231F20"/>
<path d="M38.5835 16.2168H43.9898V10.8125H38.584L38.5835 16.2168Z" fill="white"/>
<path d="M33.1777 16.215H38.5835V10.8105H33.1777V16.215Z" fill="#231F20"/>
<path d="M27.7716 16.215H33.1777V10.8105H27.7716V16.215Z" fill="#F1511B"/>
<path d="M49.3921 16.2168H54.7983V10.8125H49.3926L49.3921 16.2168Z" fill="#231F20"/>
<path d="M71.0137 16.2168H76.4181V10.8125H71.0137V16.2168Z" fill="#F1511B"/>
<path d="M43.9863 16.2168H49.3921L49.3926 10.8125H43.9863V16.2168Z" fill="white"/>
<path d="M76.4199 16.2168H81.8257V10.8125H76.4199V16.2168Z" fill="#231F20"/>
<path d="M65.6074 16.2168H71.0137V10.8125H65.6074V16.2168Z" fill="#C5181D"/>
<path d="M54.7983 16.2168H60.2033V10.8125H54.7983V16.2168Z" fill="white"/>
<path d="M60.2052 16.215H65.6096V10.8105H60.2052V16.215Z" fill="#C5181D"/>
<path d="M81.8257 108.109H87.2324L87.2319 102.703L81.8257 102.703V108.109Z" fill="#FABC09"/>
<path d="M65.6074 129.73H71.0132V124.324H65.6074V129.73Z" fill="#730B0E"/>
<path d="M54.7983 129.73H60.2033V124.324H54.7988L54.7983 129.73Z" fill="#9C1116"/>
<path d="M60.2052 129.73H65.6097L65.6096 124.324H60.2052L60.2052 129.73Z" fill="#9C1116"/>
<path d="M49.3926 129.73H54.7983L54.7988 124.324H49.3926V129.73Z" fill="#9C1116"/>
<path d="M43.9863 129.73H49.3926V124.324H43.9863V129.73Z" fill="#9C1116"/>
<path d="M81.8257 129.73H87.2324V124.324H81.8262L81.8257 129.73Z" fill="#0994DC"/>
<path d="M87.2324 129.73H92.6387V124.324H87.2324V129.73Z" fill="#0994DC"/>
<path d="M38.584 129.73H43.9884V124.324H38.5835L38.584 129.73Z" fill="#9C1116"/>
<path d="M76.4199 129.73H81.8257L81.8262 124.324H76.4199V129.73Z" fill="#0D6AAA"/>
<path d="M71.0132 129.73H76.4181V124.324H71.0132V129.73Z" fill="#231F20"/>
<path d="M27.7716 129.73H33.1774L33.1774 124.324H27.771L27.7716 129.73Z" fill="#231F20"/>
<path d="M33.1774 129.73L38.584 129.73L38.5835 124.324H33.1774L33.1774 129.73Z" fill="#9C1116"/>
<path d="M87.2319 86.4878H92.6387V81.0816L87.2319 81.082V86.4878Z" fill="#C5181D"/>
<path d="M87.2319 97.297L92.6387 97.2969V91.8926H87.2319V97.297Z" fill="#FABC09"/>
<path d="M87.2319 91.8926H92.6387V86.4863H87.2319V91.8926Z" fill="#C5181D"/>
<path d="M87.2319 102.703L92.6387 102.703V97.2969L87.2319 97.297V102.703Z" fill="#FABC09"/>
<path d="M87.2319 70.271H92.6382V64.8652H87.2319V70.271Z" fill="#F1511B"/>
<path d="M87.2319 64.8652H92.6382V59.459L87.2319 59.4591V64.8652Z" fill="#231F20"/>
<path d="M87.2319 59.4591L92.6382 59.459V54.0547H87.2319V59.4591Z" fill="#231F20"/>
<path d="M87.2319 81.082L92.6387 81.0816V75.6758L87.2319 75.6759V81.082Z" fill="#C5181D"/>
<path d="M87.2319 75.6759L92.6387 75.6758L92.6382 70.271H87.2319V75.6759Z" fill="#C5181D"/>
<path d="M92.6382 70.271H98.0444V64.8652H92.6382V70.271Z" fill="#231F20"/>
<path d="M92.6387 75.6758H98.0444V70.271H92.6382L92.6387 75.6758Z" fill="#231F20"/>
<path d="M87.2324 108.109H92.6387V102.703L87.2319 102.703L87.2324 108.109Z" fill="#FABC09"/>
<path d="M27.771 10.8125L33.1774 10.812L33.1777 5.40577L27.7716 5.40625L27.771 10.8125Z" fill="#231F20"/>
<path d="M49.3926 10.8125H54.7983L54.7988 5.40577H49.3921L49.3926 10.8125Z" fill="#F1511B"/>
<path d="M54.7983 10.8125H60.2033V5.40577H54.7988L54.7983 10.8125Z" fill="#F1511B"/>
<path d="M60.2052 10.812H65.6096L65.6097 5.40577H60.2052L60.2052 10.812Z" fill="#F1511B"/>
<path d="M65.6074 10.8125H71.0137L71.0132 5.40577H65.6074V10.8125Z" fill="#F1511B"/>
<path d="M71.0137 10.8125H76.4181V5.40625L71.0132 5.40577L71.0137 10.8125Z" fill="#231F20"/>
<path d="M33.1774 10.812L38.584 10.8125L38.5835 5.40577H33.1777L33.1774 10.812Z" fill="#F1511B"/>
<path d="M38.584 10.8125L43.9884 10.812V5.40577H38.5835L38.584 10.8125Z" fill="#F1511B"/>
<path d="M43.9863 10.8125H49.3926L49.3921 5.40577H43.9863V10.8125Z" fill="#F1511B"/>
<path d="M87.2324 200H92.6382V194.596H87.2324V200Z" fill="#231F20"/>
<path d="M76.4199 200H81.8257V194.596H76.4199V200Z" fill="#231F20"/>
<path d="M81.8257 200H87.2324V194.596H81.8257V200Z" fill="#231F20"/>
<path d="M43.9863 200H49.3921V194.596H43.9863V200Z" fill="#231F20"/>
<path d="M49.3921 200H54.7983V194.596H49.3921V200Z" fill="#BF5F22"/>
<path d="M54.7983 200H60.2033V194.596H54.7983V200Z" fill="#231F20"/>
<path d="M81.8257 194.596H87.2324L87.2319 189.189H81.8262L81.8257 194.596Z" fill="#C5181D"/>
<path d="M87.2324 194.596H92.6382V189.189H87.2319L87.2324 194.596Z" fill="#C5181D"/>
<path d="M76.4199 194.596H81.8257L81.8262 189.189H76.4199V194.596Z" fill="#C5181D"/>
<path d="M92.6382 194.596L98.0444 194.595V189.189H92.6382V194.596Z" fill="#231F20"/>
<path d="M71.0137 194.595H76.4181V189.189H71.0137V194.595Z" fill="#231F20"/>
<path d="M49.3921 194.596H54.7983V189.189H49.3926L49.3921 194.596Z" fill="#BF5F22"/>
<path d="M54.7983 194.596H60.2033V189.189H54.7983V194.596Z" fill="#231F20"/>
<path d="M43.9863 194.596H49.3921L49.3926 189.189H43.9863V194.596Z" fill="#231F20"/>
<path d="M43.9863 172.973V178.38L49.3921 178.378V172.973H43.9863Z" fill="#231F20"/>
<path d="M54.7988 178.378H60.2033V172.973H54.7988V178.378Z" fill="#231F20"/>
<path d="M49.3921 178.378L54.7988 178.378V172.973H49.3921V178.378Z" fill="#BF5F22"/>
<path d="M71.0137 178.378H76.4181V172.973H71.0137V178.378Z" fill="#231F20"/>
<path d="M81.8262 178.378H87.2319V172.973H81.8262V178.378Z" fill="#0994DC"/>
<path d="M87.2319 178.378H92.6382V172.973H87.2319V178.378Z" fill="#C5181D"/>
<path d="M76.4199 178.378H81.8262V172.973H76.4199V178.378Z" fill="#C5181D"/>
<path d="M92.6382 178.378H98.0444V172.973H92.6382V178.378Z" fill="#231F20"/>
<path d="M81.8262 172.973H87.2319L87.2324 167.568H81.8262V172.973Z" fill="#0994DC"/>
<path d="M76.4199 172.973H81.8262V167.568H76.4199V172.973Z" fill="#C5181D"/>
<path d="M71.0137 172.973H76.4181V167.568H71.0137V172.973Z" fill="#231F20"/>
<path d="M87.2319 172.973H92.6382V167.568H87.2324L87.2319 172.973Z" fill="#C5181D"/>
<path d="M92.6382 172.973H98.0444V167.568H92.6382V172.973Z" fill="#231F20"/>
<path d="M54.7988 172.973H60.2033V167.568H54.7988V172.973Z" fill="#231F20"/>
<path d="M49.3921 172.973H54.7988V167.568H49.3926L49.3921 172.973Z" fill="#BF5F22"/>
<path d="M43.9863 172.973H49.3921L49.3926 167.568H43.9863V172.973Z" fill="#231F20"/>
<path d="M71.0137 189.191H76.4181V183.785H71.0137V189.191Z" fill="#231F20"/>
<path d="M43.9863 189.191H49.3921V183.785H43.9863V189.191Z" fill="#231F20"/>
<path d="M49.3921 189.191H54.7983V183.785H49.3921V189.191Z" fill="#BF5F22"/>
<path d="M54.7983 189.191H60.2033V183.785H54.7983V189.191Z" fill="#231F20"/>
<path d="M92.6387 189.191H98.0444V183.785H92.6387V189.191Z" fill="#231F20"/>
<path d="M76.4199 189.191H81.8257V183.785H76.4199V189.191Z" fill="#C5181D"/>
<path d="M81.8257 189.191H87.2319V183.785H81.8257V189.191Z" fill="#0994DC"/>
<path d="M87.2319 189.191H92.6387V183.785H87.2319V189.191Z" fill="#C5181D"/>
<path d="M54.7983 183.785H60.2033V178.378H54.7988L54.7983 183.785Z" fill="#231F20"/>
<path d="M43.9863 178.38V183.785H49.3921V178.378L43.9863 178.38Z" fill="#231F20"/>
<path d="M49.3921 183.785H54.7983L54.7988 178.378L49.3921 178.378V183.785Z" fill="#BF5F22"/>
<path d="M81.8257 183.785H87.2319V178.378H81.8262L81.8257 183.785Z" fill="#0994DC"/>
<path d="M71.0137 183.785H76.4181V178.378H71.0137V183.785Z" fill="#231F20"/>
<path d="M87.2319 183.785H92.6387L92.6382 178.378H87.2319V183.785Z" fill="#C5181D"/>
<path d="M92.6387 183.785H98.0444V178.378H92.6382L92.6387 183.785Z" fill="#231F20"/>
<path d="M76.4199 183.785H81.8257L81.8262 178.378H76.4199V183.785Z" fill="#C5181D"/>
</svg>
