<svg width="153" height="200" viewBox="0 0 153 200" fill="none" xmlns="http://www.w3.org/2000/svg">
<path d="M43.4777 178.261H47.8258V173.912H43.4777V178.261Z" fill="#231F20"/>
<path d="M108.695 178.261H113.043V173.912H108.695V178.261Z" fill="#231F20"/>
<path d="M113.043 178.261H117.391V173.912H113.043V178.261Z" fill="#B1A69A"/>
<path d="M47.8258 178.261H52.1742V173.912H47.8258V178.261Z" fill="#B1A69A"/>
<path d="M126.086 178.261H130.434V173.912H126.086V178.261Z" fill="#231F20"/>
<path d="M117.391 178.261H121.739V173.912H117.391V178.261Z" fill="#B1A69A"/>
<path d="M121.739 178.261H126.086V173.912H121.739V178.261Z" fill="#231F20"/>
<path d="M130.434 178.261H134.783V173.912H130.434V178.261Z" fill="#B1A69A"/>
<path d="M60.8692 178.261H65.2173V173.912H60.8692V178.261Z" fill="#231F20"/>
<path d="M56.522 178.261H60.8692V173.912H56.522V178.261Z" fill="#B1A69A"/>
<path d="M65.2173 173.912V178.261H69.5653V173.912H65.2173Z" fill="#F1EEE5"/>
<path d="M52.1742 178.261H56.522V173.912H52.1742V178.261Z" fill="#F1EEE5"/>
<path d="M69.5653 178.261H73.9136V173.912H69.5653V178.261Z" fill="#F1EEE5"/>
<path d="M78.2607 178.261H82.6088V173.912H78.2607V178.261Z" fill="#231F20"/>
<path d="M73.9136 178.261H78.2607V173.912H73.9136V178.261Z" fill="#F1EEE5"/>
<path d="M34.7826 47.826H39.1307V43.4779H34.7826V47.826Z" fill="#F1EEE5"/>
<path d="M60.8692 47.826H65.2173V43.4779H60.8692V47.826Z" fill="#F1EEE5"/>
<path d="M56.522 47.826H60.8692V43.4779H56.522V47.826Z" fill="#F1EEE5"/>
<path d="M65.2173 47.826H69.5653V43.4779H65.2173V47.826Z" fill="#231F20"/>
<path d="M47.8261 47.826H52.1742V43.4779H47.8261V47.826Z" fill="#F1EEE5"/>
<path d="M134.783 178.261H139.131V173.912H134.783V178.261Z" fill="#F1EEE5"/>
<path d="M39.1307 47.826H43.478V43.4779H39.1307V47.826Z" fill="#F1EEE5"/>
<path d="M43.478 47.826H47.8261V43.4779H43.478V47.826Z" fill="#F1EEE5"/>
<path d="M30.4346 47.826H34.7826V43.4779H30.4346V47.826Z" fill="#F1EEE5"/>
<path d="M52.1742 47.826H56.522V43.4779H52.1742V47.826Z" fill="#231F20"/>
<path d="M8.69635 65.2172H13.0434V60.8702H8.69635V65.2172Z" fill="#231F20"/>
<path d="M8.69635 47.826H13.0434V43.4779H8.69635V47.826Z" fill="#F1EEE5"/>
<path d="M17.3915 47.826H21.7396V43.4779H17.3915V47.826Z" fill="#231F20"/>
<path d="M21.7396 47.826H26.0865V43.4779H21.7396V47.826Z" fill="#F1EEE5"/>
<path d="M13.0434 47.826H17.3915V43.4779H13.0434V47.826Z" fill="#F1EEE5"/>
<path d="M8.69635 52.174H13.0434V47.826H8.69635V52.174Z" fill="#F1EEE5"/>
<path d="M26.0865 47.826H30.4346V43.4779H26.0865V47.826Z" fill="#F1EEE5"/>
<path d="M8.69635 60.8702H13.0434V56.5222H8.69635V60.8702Z" fill="#B1A69A"/>
<path d="M8.69635 56.5222H13.0434V52.174H8.69635V56.5222Z" fill="#F1EEE5"/>
<path d="M21.7396 43.4779H26.0865V39.1307H21.7395L21.7396 43.4779Z" fill="#B1A69A"/>
<path d="M30.4346 43.4779H34.7826L34.7827 39.1307H30.4346V43.4779Z" fill="#F1EEE5"/>
<path d="M26.0865 43.4779H30.4346V39.1307H26.0865V43.4779Z" fill="#F1EEE5"/>
<path d="M34.7826 43.4779H39.1307V39.1307H34.7827L34.7826 43.4779Z" fill="#B1A69A"/>
<path d="M39.1307 43.4779H43.478V39.1307H39.1307V43.4779Z" fill="#F1EEE5"/>
<path d="M43.478 43.4779H47.8261L47.8258 39.1307H43.478V43.4779Z" fill="#F1EEE5"/>
<path d="M47.8261 43.4779H52.1742V39.1307H47.8258L47.8261 43.4779Z" fill="#B1A69A"/>
<path d="M13.0434 43.4779H17.3915L17.3912 39.1307H13.0431L13.0434 43.4779Z" fill="#F1EEE5"/>
<path d="M8.69635 43.4779H13.0434L13.0431 39.1307H8.69635V43.4779Z" fill="#F1EEE5"/>
<path d="M17.3915 43.4779H21.7396L21.7395 39.1307H17.3912L17.3915 43.4779Z" fill="#231F20"/>
<path d="M4.34797 43.4778L8.69635 43.4779V39.1307H4.34797V43.4778Z" fill="#231F20"/>
<path d="M56.522 43.4779H60.8692L60.869 39.1307H56.522V43.4779Z" fill="#F1EEE5"/>
<path d="M60.8692 43.4779H65.2173V39.1307H60.869L60.8692 43.4779Z" fill="#F1EEE5"/>
<path d="M52.1742 43.4779H56.522V39.1307H52.1742V43.4779Z" fill="#231F20"/>
<path d="M65.2173 43.4779H69.5653V39.1307H65.2173V43.4779Z" fill="#231F20"/>
<path d="M4.34797 47.826H8.69635V43.4779L4.34797 43.4778V47.826Z" fill="#231F20"/>
<path d="M139.131 178.261H143.478V173.912H139.131V178.261Z" fill="#F1EEE5"/>
<path d="M4.34797 60.8703L8.69635 60.8702V56.5222H4.34797V60.8703Z" fill="#231F20"/>
<path d="M4.34797 52.174H8.69635V47.826H4.34797V52.174Z" fill="#231F20"/>
<path d="M4.34797 56.5222H8.69635V52.174H4.34797V56.5222Z" fill="#231F20"/>
<path d="M139.131 117.391H143.478V113.043H139.131V117.391Z" fill="#F1EEE5"/>
<path d="M139.131 113.043H143.478V108.695H139.131V113.043Z" fill="#F1EEE5"/>
<path d="M139.131 126.086H143.478V121.739H139.131V126.086Z" fill="#B1A69A"/>
<path d="M139.131 130.435H143.478V126.086H139.131V130.435Z" fill="#231F20"/>
<path d="M139.131 121.739H143.478V117.391H139.131V121.739Z" fill="#F1EEE5"/>
<path d="M139.131 100H143.478V95.6519H139.131V100Z" fill="#231F20"/>
<path d="M139.131 108.695H143.478V104.348H139.131V108.695Z" fill="#F1EEE5"/>
<path d="M139.131 104.348H143.478V100H139.131V104.348Z" fill="white"/>
<path d="M139.131 165.217H143.478V160.869H139.131V165.217Z" fill="#F1EEE5"/>
<path d="M139.131 169.565H143.478V165.217H139.131V169.565Z" fill="#F1EEE5"/>
<path d="M139.131 173.912H143.478V169.565H139.131L139.131 173.912Z" fill="#F1EEE5"/>
<path d="M139.131 160.869H143.478V156.522H139.131V160.869Z" fill="#231F20"/>
<path d="M139.131 156.521H143.478V152.174H139.131V156.521Z" fill="#231F20"/>
<path d="M130.435 95.6519H134.783V91.3038H130.435V95.6519Z" fill="#231F20"/>
<path d="M13.0431 69.5655H17.3912V65.2174L13.0434 65.2172L13.0431 69.5655Z" fill="#231F20"/>
<path d="M47.8261 52.174H52.1742V47.826H47.8261V52.174Z" fill="#F1EEE5"/>
<path d="M26.0866 52.174H30.4347L30.4346 47.826H26.0865L26.0866 52.174Z" fill="#231F20"/>
<path d="M30.4347 52.174H34.7827L34.7826 47.826H30.4346L30.4347 52.174Z" fill="#231F20"/>
<path d="M17.3915 52.174H21.7396V47.826H17.3915V52.174Z" fill="white"/>
<path d="M34.7827 52.174H39.1307V47.826H34.7826L34.7827 52.174Z" fill="#231F20"/>
<path d="M13.0434 52.174H17.3915V47.826H13.0434V52.174Z" fill="white"/>
<path d="M39.1307 52.174H43.478V47.826H39.1307V52.174Z" fill="#231F20"/>
<path d="M13.0434 60.8702L17.3912 60.8703V56.5222H13.0434V60.8702Z" fill="#F1EEE5"/>
<path d="M13.0434 56.5222H17.3912L17.3915 52.174H13.0434V56.5222Z" fill="#F1EEE5"/>
<path d="M21.7396 52.174H26.0866L26.0865 47.826H21.7396V52.174Z" fill="#F1EEE5"/>
<path d="M65.2172 52.174H69.5653V47.826H65.2173L65.2172 52.174Z" fill="#231F20"/>
<path d="M130.435 100H134.783V95.6519H130.435V100Z" fill="white"/>
<path d="M52.1742 52.174H56.5222L56.522 47.826H52.1742V52.174Z" fill="white"/>
<path d="M43.478 52.174H47.8261V47.826H43.478V52.174Z" fill="#F1EEE5"/>
<path d="M60.8692 52.174H65.2172L65.2173 47.826H60.8692V52.174Z" fill="#F1EEE5"/>
<path d="M56.5222 52.174H60.8692V47.826H56.522L56.5222 52.174Z" fill="white"/>
<path d="M69.5655 169.565H73.9136V165.217H69.5655V169.565Z" fill="#D7CEC0"/>
<path d="M73.9136 169.565H78.2605V165.217H73.9136V169.565Z" fill="#F1EEE5"/>
<path d="M78.2605 169.565H82.6088V165.217H78.2605V169.565Z" fill="#231F20"/>
<path d="M104.348 169.565H108.695V165.217H104.348V169.565Z" fill="#231F20"/>
<path d="M56.522 169.565H60.869V165.217H56.522V169.565Z" fill="#231F20"/>
<path d="M60.869 169.565H65.2173V165.217H60.869V169.565Z" fill="#F1EEE5"/>
<path d="M65.2173 169.565H69.5655V165.217H65.2173V169.565Z" fill="#F1EEE5"/>
<path d="M52.174 169.565H56.522V165.217H52.174V169.565Z" fill="#F1EEE5"/>
<path d="M47.8261 169.565H52.174V165.217H47.8261V169.565Z" fill="#F1EEE5"/>
<path d="M43.4777 169.565H47.8261V165.217H43.4777V169.565Z" fill="#231F20"/>
<path d="M130.435 165.217H134.783V160.869H130.435V165.217Z" fill="#F1EEE5"/>
<path d="M130.435 130.435H134.783V126.087H130.435V130.435Z" fill="#F1EEE5"/>
<path d="M130.435 134.783H134.783V130.435H130.435V134.783Z" fill="#F1EEE5"/>
<path d="M130.435 143.478H134.783V139.13H130.435V143.478Z" fill="#F1EEE5"/>
<path d="M130.435 147.826H134.783V143.478H130.435V147.826Z" fill="#F1EEE5"/>
<path d="M108.706 169.565H113.054V165.217H108.706V169.565Z" fill="#B1A69A"/>
<path d="M130.435 139.13H134.783V134.783H130.435V139.13Z" fill="#F1EEE5"/>
<path d="M130.435 108.695H134.783V104.348H130.435V108.695Z" fill="#231F20"/>
<path d="M130.435 113.043H134.783V108.695H130.435V113.043Z" fill="white"/>
<path d="M130.435 121.74H134.783V117.391H130.435V121.74Z" fill="#F1EEE5"/>
<path d="M130.435 117.391H134.783V113.043H130.435V117.391Z" fill="#F1EEE5"/>
<path d="M130.435 126.087H134.783V121.74H130.435V126.087Z" fill="#F1EEE5"/>
<path d="M121.74 169.565H126.087V165.217H121.74V169.565Z" fill="#F1EEE5"/>
<path d="M117.391 169.565H121.74V165.217H117.391V169.565Z" fill="#B1A69A"/>
<path d="M113.005 169.565H117.354V165.217H113.005V169.565Z" fill="#231F20"/>
<path d="M126.087 169.565H130.434L130.435 165.217L126.087 165.217V169.565Z" fill="#F1EEE5"/>
<path d="M130.435 152.174H134.783V147.826H130.435V152.174Z" fill="#F1EEE5"/>
<path d="M130.435 160.869H134.783V156.522H130.435V160.869Z" fill="#F1EEE5"/>
<path d="M130.435 156.521H134.783V152.174H130.435V156.521Z" fill="#F1EEE5"/>
<path d="M130.435 104.348H134.783V100H130.435V104.348Z" fill="#231F20"/>
<path d="M130.434 169.565H134.783V165.217H130.435L130.434 169.565Z" fill="#D7CEC0"/>
<path d="M13.0434 65.2172L17.3912 65.2174V60.8703L13.0434 60.8702V65.2172Z" fill="#B1A69A"/>
<path d="M134.783 156.521H139.131V152.174L134.783 152.174V156.521Z" fill="#F1EEE5"/>
<path d="M134.783 152.174L139.131 152.174L139.131 147.826L134.783 147.826V152.174Z" fill="#231F20"/>
<path d="M134.783 165.217H139.131V160.869H134.783V165.217Z" fill="#F1EEE5"/>
<path d="M134.783 160.869H139.131V156.522H134.783V160.869Z" fill="#F1EEE5"/>
<path d="M134.783 169.565H139.131V165.217H134.783V169.565Z" fill="#F1EEE5"/>
<path d="M134.783 147.826L139.131 147.826V143.478L134.783 143.478V147.826Z" fill="#231F20"/>
<path d="M134.783 134.783H139.131L139.131 130.435H134.783V134.783Z" fill="#231F20"/>
<path d="M134.783 130.435H139.131V126.086L134.783 126.087V130.435Z" fill="#231F20"/>
<path d="M134.783 173.912H139.131L139.131 169.565H134.783V173.912Z" fill="#D7CEC0"/>
<path d="M113.043 173.912H117.391L117.391 169.565L113.043 169.565L113.043 173.912Z" fill="#B1A69A"/>
<path d="M108.695 173.912H113.043L113.043 169.565L108.695 169.565L108.695 173.912Z" fill="#231F20"/>
<path d="M121.739 173.912H126.086L126.087 169.565H121.74L121.739 173.912Z" fill="#B1A69A"/>
<path d="M126.086 173.912H130.434V169.565H126.087L126.086 173.912Z" fill="#B1A69A"/>
<path d="M130.434 173.912H134.783V169.565H130.434V173.912Z" fill="#F1EEE5"/>
<path d="M134.783 126.087L139.131 126.086V121.739L134.783 121.74V126.087Z" fill="#231F20"/>
<path d="M117.391 173.912H121.739L121.74 169.565H117.391L117.391 173.912Z" fill="#231F20"/>
<path d="M134.783 143.478L139.131 143.478V139.13H134.783V143.478Z" fill="#231F20"/>
<path d="M134.783 95.6519L139.131 95.6519L139.131 91.3038H134.783V95.6519Z" fill="#231F20"/>
<path d="M134.783 104.348H139.131V100H134.783V104.348Z" fill="#F1EEE5"/>
<path d="M134.783 113.043L139.131 113.043V108.695L134.783 108.695V113.043Z" fill="#231F20"/>
<path d="M134.783 117.391L139.131 117.391V113.043L134.783 113.043V117.391Z" fill="#231F20"/>
<path d="M134.783 108.695L139.131 108.695V104.348H134.783V108.695Z" fill="#F1EEE5"/>
<path d="M134.783 121.74L139.131 121.739V117.391L134.783 117.391V121.74Z" fill="#231F20"/>
<path d="M134.783 100H139.131V95.6519L134.783 95.6519V100Z" fill="white"/>
<path d="M134.783 139.13H139.131V134.783H134.783V139.13Z" fill="#231F20"/>
<path d="M69.5653 173.912H73.9136V169.565H69.5655L69.5653 173.912Z" fill="#F1EEE5"/>
<path d="M47.8258 173.912H52.1742L52.174 169.565H47.8261L47.8258 173.912Z" fill="#F1EEE5"/>
<path d="M65.2173 173.912H69.5653L69.5655 169.565H65.2173V173.912Z" fill="#F1EEE5"/>
<path d="M56.522 173.912H60.8692L60.869 169.565H56.522V173.912Z" fill="#231F20"/>
<path d="M52.1742 173.912H56.522V169.565H52.174L52.1742 173.912Z" fill="#F1EEE5"/>
<path d="M60.8692 173.912H65.2173V169.565H60.869L60.8692 173.912Z" fill="#F1EEE5"/>
<path d="M73.9136 173.912H78.2607L78.2605 169.565H73.9136V173.912Z" fill="#F1EEE5"/>
<path d="M78.2607 173.912H82.6088V169.565H78.2605L78.2607 173.912Z" fill="#231F20"/>
<path d="M43.4777 173.912H47.8258L47.8261 169.565H43.4777V173.912Z" fill="#231F20"/>
<path d="M60.8692 34.7827H65.2173V30.4346H60.8692V34.7827Z" fill="#231F20"/>
<path d="M56.522 34.7827H60.8692V30.4346H56.522V34.7827Z" fill="white"/>
<path d="M8.69635 34.7827H13.0434V30.4346H8.69635V34.7827Z" fill="#231F20"/>
<path d="M13.0434 34.7827H17.3912V30.4346H13.0434V34.7827Z" fill="white"/>
<path d="M52.174 34.7827H56.522V30.4346H52.174V34.7827Z" fill="#F1EEE5"/>
<path d="M39.1309 34.7827H43.478V30.4346H39.1309V34.7827Z" fill="#F1EEE5"/>
<path d="M47.8261 34.7827H52.174V30.4346H47.8261V34.7827Z" fill="white"/>
<path d="M34.7826 34.7827H39.1309V30.4346H34.7826V34.7827Z" fill="white"/>
<path d="M43.478 34.7827H47.8261V30.4346H43.478V34.7827Z" fill="#231F20"/>
<path d="M21.7395 34.7827H26.0865V30.4346H21.7395V34.7827Z" fill="white"/>
<path d="M17.3912 34.7827H21.7395V30.4346H17.3912V34.7827Z" fill="#231F20"/>
<path d="M26.0865 34.7827H30.4347V30.4346H26.0865V34.7827Z" fill="#F1EEE5"/>
<path d="M30.4347 34.7827H34.7826V30.4346H30.4347V34.7827Z" fill="#231F20"/>
<path d="M134.783 186.956H139.131V182.609H134.783V186.956Z" fill="#F89B5C"/>
<path d="M121.74 186.956H126.087V182.609H121.74V186.956Z" fill="#231F20"/>
<path d="M139.131 186.956H143.478V182.609H139.131V186.956Z" fill="#231F20"/>
<path d="M130.435 186.956H134.783V182.609H130.435V186.956Z" fill="#231F20"/>
<path d="M147.826 117.391H152.174V113.043H147.826V117.391Z" fill="#231F20"/>
<path d="M147.826 113.043H152.174V108.695H147.826V113.043Z" fill="#231F20"/>
<path d="M147.826 121.74H152.174V117.391H147.826V121.74Z" fill="#231F20"/>
<path d="M147.826 108.695H152.174V104.348H147.826V108.695Z" fill="#231F20"/>
<path d="M117.391 191.304H121.739V186.957H117.391V191.304Z" fill="#F89B5C"/>
<path d="M113.043 191.304H117.391V186.957H113.043V191.304Z" fill="#231F20"/>
<path d="M121.739 191.304H126.087V186.957H121.739V191.304Z" fill="#231F20"/>
<path d="M130.435 191.304H134.783V186.957H130.435V191.304Z" fill="#231F20"/>
<path d="M139.131 191.304H143.478V186.957H139.131V191.304Z" fill="#231F20"/>
<path d="M134.783 191.304H139.131V186.957H134.783V191.304Z" fill="#F89B5C"/>
<path d="M69.5655 191.304H73.9136V186.957H69.5655V191.304Z" fill="#F89B5C"/>
<path d="M65.2172 186.957V191.304L69.5655 191.304L69.5653 186.956L65.2172 186.957Z" fill="#231F20"/>
<path d="M73.9136 191.304H78.2605V186.957H73.9136V191.304Z" fill="#231F20"/>
<path d="M56.522 191.304H60.869V186.957H56.522V191.304Z" fill="#231F20"/>
<path d="M47.8261 191.304H52.1742V186.957H47.8261V191.304Z" fill="#231F20"/>
<path d="M117.391 186.956H121.74V182.609H117.391V186.956Z" fill="#F89B5C"/>
<path d="M52.1742 191.304H56.522V186.957H52.1742V191.304Z" fill="#F89B5C"/>
<path d="M143.478 117.391H147.826V113.043H143.478V117.391Z" fill="#F1EEE5"/>
<path d="M143.478 121.739L147.826 121.74V117.391H143.478V121.739Z" fill="#B1A69A"/>
<path d="M143.478 113.043H147.826V108.695H143.478V113.043Z" fill="#F1EEE5"/>
<path d="M143.478 126.086H147.826L147.826 121.74L143.478 121.739V126.086Z" fill="#231F20"/>
<path d="M143.478 104.348H147.826L147.826 99.9999L143.478 100V104.348Z" fill="#231F20"/>
<path d="M143.478 108.695H147.826V104.348H143.478V108.695Z" fill="white"/>
<path d="M143.478 165.217H147.826V160.869H143.478V165.217Z" fill="#231F20"/>
<path d="M143.478 169.565H147.826V165.217H143.478V169.565Z" fill="#231F20"/>
<path d="M143.478 173.912L147.826 173.912V169.565H143.478V173.912Z" fill="#231F20"/>
<path d="M143.478 178.261H147.826V173.912L143.478 173.912V178.261Z" fill="#231F20"/>
<path d="M113.043 186.956H117.391V182.609H113.043V186.956Z" fill="#231F20"/>
<path d="M113.043 182.609H117.391L117.391 178.261H113.043L113.043 182.609Z" fill="#231F20"/>
<path d="M47.8261 182.609H52.1742V178.261H47.8258L47.8261 182.609Z" fill="#231F20"/>
<path d="M117.391 182.609H121.74L121.739 178.261H117.391L117.391 182.609Z" fill="#F89B5C"/>
<path d="M139.131 182.609H143.478V178.261H139.131V182.609Z" fill="#231F20"/>
<path d="M52.1742 182.609H56.5222L56.522 178.261H52.1742V182.609Z" fill="#F1EEE5"/>
<path d="M134.783 182.609H139.131V178.261H134.783L134.783 182.609Z" fill="#F89B5C"/>
<path d="M130.435 182.609H134.783L134.783 178.261H130.434L130.435 182.609Z" fill="#231F20"/>
<path d="M126.087 182.609H130.435L130.434 178.261H126.086L126.087 182.609Z" fill="#231F20"/>
<path d="M121.74 182.609H126.087L126.086 178.261H121.739L121.74 182.609Z" fill="#8A8177"/>
<path d="M69.5655 182.609H73.9136V178.261H69.5653L69.5655 182.609Z" fill="#F1EEE5"/>
<path d="M60.8692 182.609H65.2173V178.261H60.8692V182.609Z" fill="#231F20"/>
<path d="M65.2173 178.261V182.609H69.5655L69.5653 178.261H65.2173Z" fill="#B1A69A"/>
<path d="M56.5222 182.609H60.8692V178.261H56.522L56.5222 182.609Z" fill="#F1EEE5"/>
<path d="M73.9136 182.609H78.2605L78.2607 178.261H73.9136V182.609Z" fill="#B1A69A"/>
<path d="M78.2605 182.609H82.6088V178.261H78.2607L78.2605 182.609Z" fill="#231F20"/>
<path d="M69.5653 186.956L73.9136 186.956V182.609H69.5655L69.5653 186.956Z" fill="#F89B5C"/>
<path d="M65.2173 182.609L65.2172 186.957L69.5653 186.956L69.5655 182.609H65.2173Z" fill="#231F20"/>
<path d="M47.8261 186.957H52.1742V182.609H47.8261V186.957Z" fill="#231F20"/>
<path d="M56.522 186.957H60.869L60.8692 182.609H56.5222L56.522 186.957Z" fill="#231F20"/>
<path d="M52.1742 186.957H56.522L56.5222 182.609H52.1742V186.957Z" fill="#F89B5C"/>
<path d="M73.9136 186.956H78.2605V182.609H73.9136V186.956Z" fill="#231F20"/>
<path d="M39.1307 39.1307H43.478V34.7827H39.1309L39.1307 39.1307Z" fill="#F1EEE5"/>
<path d="M43.478 39.1307H47.8258L47.8261 34.7827H43.478V39.1307Z" fill="#B1A69A"/>
<path d="M47.8258 39.1307H52.1742L52.174 34.7827H47.8261L47.8258 39.1307Z" fill="#231F20"/>
<path d="M56.522 39.1307H60.869L60.8692 34.7827H56.522V39.1307Z" fill="#F1EEE5"/>
<path d="M34.7827 39.1307H39.1307L39.1309 34.7827H34.7826L34.7827 39.1307Z" fill="#231F20"/>
<path d="M52.1742 39.1307H56.522V34.7827H52.174L52.1742 39.1307Z" fill="#F1EEE5"/>
<path d="M21.7395 39.1307H26.0865V34.7827H21.7395V39.1307Z" fill="#231F20"/>
<path d="M17.3912 39.1307H21.7395V34.7827H17.3912V39.1307Z" fill="#B1A69A"/>
<path d="M13.0431 39.1307H17.3912V34.7827H13.0434L13.0431 39.1307Z" fill="#F1EEE5"/>
<path d="M30.4346 39.1307H34.7827L34.7826 34.7827H30.4347L30.4346 39.1307Z" fill="#B1A69A"/>
<path d="M26.0865 39.1307H30.4346L30.4347 34.7827H26.0865V39.1307Z" fill="#F1EEE5"/>
<path d="M60.869 39.1307H65.2173V34.7827H60.8692L60.869 39.1307Z" fill="#231F20"/>
<path d="M8.69635 39.1307H13.0431L13.0434 34.7827H8.69635V39.1307Z" fill="#231F20"/>
<path d="M73.9135 130.435H78.2605V126.087H73.9135V130.435Z" fill="#F1EEE5"/>
<path d="M104.348 104.348H108.695V99.9999H104.348V104.348Z" fill="#F1EEE5"/>
<path d="M104.348 126.086H108.695V121.739H104.348V126.086Z" fill="#F1EEE5"/>
<path d="M104.348 121.739H108.695V117.391H104.348V121.739Z" fill="#F1EEE5"/>
<path d="M104.348 95.6519H108.695V91.3038H104.348V95.6519Z" fill="#231F20"/>
<path d="M104.348 130.435H108.695V126.086H104.348V130.435Z" fill="#F1EEE5"/>
<path d="M104.348 117.391H108.695V113.043H104.348V117.391Z" fill="#F1EEE5"/>
<path d="M104.348 134.783H108.695V130.435H104.348V134.783Z" fill="#F1EEE5"/>
<path d="M104.348 113.043H108.695V108.695H104.348V113.043Z" fill="#F1EEE5"/>
<path d="M104.348 99.9999H108.695V95.6519H104.348V99.9999Z" fill="white"/>
<path d="M104.348 108.695H108.695V104.348H104.348V108.695Z" fill="#F1EEE5"/>
<path d="M39.1309 91.3038H43.478V86.9568H39.1309V91.3038Z" fill="#F1EEE5"/>
<path d="M39.1309 104.348H43.478V99.9999H39.1309V104.348Z" fill="#F1EEE5"/>
<path d="M39.1309 108.695H43.478V104.348H39.1309V108.695Z" fill="#F1EEE5"/>
<path d="M39.1309 113.043H43.478V108.695H39.1309V113.043Z" fill="#F1EEE5"/>
<path d="M39.1309 99.9999H43.478V95.6519H39.1309V99.9999Z" fill="#F1EEE5"/>
<path d="M39.1309 95.6519H43.478V91.3038H39.1309V95.6519Z" fill="#F1EEE5"/>
<path d="M39.1309 117.391H43.478V113.043H39.1309V117.391Z" fill="#B1A69A"/>
<path d="M39.1309 126.086H43.478V121.739H39.1309V126.086Z" fill="#231F20"/>
<path d="M39.1309 121.739H43.478V117.391H39.1309V121.739Z" fill="#231F20"/>
<path d="M104.348 139.13H108.695V134.783H104.348V139.13Z" fill="#F1EEE5"/>
<path d="M39.1309 86.9568H43.478V82.6086H39.1309V86.9568Z" fill="#F1EEE5"/>
<path d="M52.174 78.2616H56.5222V73.9135H52.174V78.2616Z" fill="#231F20"/>
<path d="M39.1309 78.2616H43.478V73.9135H39.1309V78.2616Z" fill="#F1EEE5"/>
<path d="M39.1309 82.6086H43.478V78.2616H39.1309V82.6086Z" fill="#D7CEC0"/>
<path d="M47.8261 78.2616H52.174V73.9135H47.8261V78.2616Z" fill="#F1EEE5"/>
<path d="M43.478 78.2616H47.8261V73.9135H43.478V78.2616Z" fill="#F1EEE5"/>
<path d="M43.4777 139.131H47.8258V134.783H43.4777V139.131Z" fill="#231F20"/>
<path d="M43.478 86.9568L47.8258 86.9567V82.6086H43.478V86.9568Z" fill="#D7CEC0"/>
<path d="M43.478 82.6086H47.8258L47.8261 78.2616H43.478V82.6086Z" fill="#F1EEE5"/>
<path d="M52.174 82.6087H56.5222V78.2616H52.174V82.6087Z" fill="#231F20"/>
<path d="M47.8258 82.6086L52.174 82.6087V78.2616H47.8261L47.8258 82.6086Z" fill="#F1EEE5"/>
<path d="M43.478 91.3038H47.8258V86.9567L43.478 86.9568V91.3038Z" fill="#F1EEE5"/>
<path d="M43.478 108.695H47.8258V104.348L43.478 104.348V108.695Z" fill="#F1EEE5"/>
<path d="M43.478 113.043H47.8258V108.695H43.478V113.043Z" fill="#F1EEE5"/>
<path d="M43.478 99.9999L47.8258 100V95.6519H43.478V99.9999Z" fill="#D7CEC0"/>
<path d="M43.478 95.6519H47.8258V91.3038H43.478V95.6519Z" fill="#F1EEE5"/>
<path d="M43.478 104.348L47.8258 104.348V100L43.478 99.9999V104.348Z" fill="#F1EEE5"/>
<path d="M104.348 143.478H108.695V139.13H104.348V143.478Z" fill="#B1A69A"/>
<path d="M78.2607 143.478H82.6088V139.13H78.2607V143.478Z" fill="#F1EEE5"/>
<path d="M82.6088 143.478H86.9567V139.13H82.6088V143.478Z" fill="#F1EEE5"/>
<path d="M60.8692 143.478H65.2173V139.131H60.8692V143.478Z" fill="#F1EEE5"/>
<path d="M65.2173 139.131V143.478L69.5653 143.478V139.13L65.2173 139.131Z" fill="#F1EEE5"/>
<path d="M69.5653 143.478H73.9136V139.13H69.5653V143.478Z" fill="#F1EEE5"/>
<path d="M43.478 117.391H47.8258V113.043H43.478V117.391Z" fill="#F1EEE5"/>
<path d="M100 143.478H104.348V139.13L100 139.13V143.478Z" fill="#B1A69A"/>
<path d="M86.9567 143.478H91.3036V139.13H86.9567V143.478Z" fill="#B1A69A"/>
<path d="M95.6517 143.478H100V139.13H95.6517V143.478Z" fill="#B1A69A"/>
<path d="M91.305 143.478H95.6517V139.13H91.305V143.478Z" fill="#B1A69A"/>
<path d="M73.9136 143.478H78.2607V139.13H73.9136V143.478Z" fill="#F1EEE5"/>
<path d="M43.478 126.086H47.8258V121.739H43.478V126.086Z" fill="#B1A69A"/>
<path d="M43.4777 130.435H47.8258V126.086H43.478L43.4777 130.435Z" fill="#231F20"/>
<path d="M43.478 121.739H47.8258V117.391H43.478V121.739Z" fill="#F1EEE5"/>
<path d="M43.4777 134.783H47.8258V130.435H43.4777V134.783Z" fill="#231F20"/>
<path d="M47.8261 143.478H52.1742V139.131L47.8258 139.131L47.8261 143.478Z" fill="#B1A69A"/>
<path d="M52.1742 143.478H56.5222V139.131H52.1742V143.478Z" fill="#231F20"/>
<path d="M56.5222 143.478H60.8692V139.131H56.5222V143.478Z" fill="#F1EEE5"/>
<path d="M47.8258 139.131L52.1742 139.131V134.783H47.8258V139.131Z" fill="#231F20"/>
<path d="M34.7826 91.3038H39.1309V86.9568H34.7826V91.3038Z" fill="#F1EEE5"/>
<path d="M34.7826 73.9134L39.1309 73.9135L39.1307 69.5653H34.7826V73.9134Z" fill="#F1EEE5"/>
<path d="M34.7826 95.6519L39.1309 95.6519V91.3038H34.7826V95.6519Z" fill="#F1EEE5"/>
<path d="M34.7826 82.6087L39.1309 82.6086V78.2616L34.7826 78.2617V82.6087Z" fill="#F1EEE5"/>
<path d="M34.7826 78.2617L39.1309 78.2616V73.9135L34.7826 73.9134V78.2617Z" fill="#F1EEE5"/>
<path d="M34.7826 86.9568H39.1309V82.6086L34.7826 82.6087V86.9568Z" fill="#F1EEE5"/>
<path d="M34.7826 100L39.1309 99.9999V95.6519L34.7826 95.6519V100Z" fill="#F1EEE5"/>
<path d="M34.7838 113.043H39.1309V108.695L34.7838 108.695V113.043Z" fill="#231F20"/>
<path d="M34.7826 108.695H39.1309V104.348L34.7826 104.348V108.695Z" fill="#B1A69A"/>
<path d="M34.7826 104.348L39.1309 104.348V99.9999L34.7826 100V104.348Z" fill="#F1EEE5"/>
<path d="M34.7826 117.391H39.1309V113.043L34.7826 113.043V117.391Z" fill="#231F20"/>
<path d="M52.174 73.9135H56.5222V69.5653H52.174V73.9135Z" fill="#231F20"/>
<path d="M47.8261 73.9135H52.174V69.5653H47.8261V73.9135Z" fill="#F1EEE5"/>
<path d="M39.1309 73.9135H43.478V69.5653H39.1307L39.1309 73.9135Z" fill="#F1EEE5"/>
<path d="M43.478 73.9135H47.8261V69.5653H43.478V73.9135Z" fill="#F1EEE5"/>
<path d="M65.2172 147.826V152.174H69.5653V147.826H65.2172Z" fill="#F1EEE5"/>
<path d="M60.8692 152.174H65.2172V147.826H60.8692V152.174Z" fill="#F1EEE5"/>
<path d="M56.522 152.174H60.8692V147.826H56.522V152.174Z" fill="#231F20"/>
<path d="M69.5653 152.174H73.9136V147.826H69.5653V152.174Z" fill="#F1EEE5"/>
<path d="M47.8261 152.174H52.1742V147.826H47.8261V152.174Z" fill="#F1EEE5"/>
<path d="M52.1742 152.174H56.522V147.826H52.1742V152.174Z" fill="#B1A69A"/>
<path d="M73.9136 152.174H78.2605V147.826H73.9136V152.174Z" fill="#F1EEE5"/>
<path d="M82.6086 152.174H86.9567V147.826H82.6086V152.174Z" fill="#231F20"/>
<path d="M78.2605 152.174H82.6086V147.826H78.2605V152.174Z" fill="#B1A69A"/>
<path d="M43.4777 152.174H47.8261V147.826H43.4777V152.174Z" fill="#231F20"/>
<path d="M100 147.826H104.348L104.348 143.478H100V147.826Z" fill="#231F20"/>
<path d="M73.9136 147.826H78.2605L78.2607 143.478H73.9136V147.826Z" fill="#F1EEE5"/>
<path d="M86.9567 147.826L91.3036 147.826V143.478H86.9567V147.826Z" fill="#231F20"/>
<path d="M95.6517 147.826H100V143.478H95.6517V147.826Z" fill="#231F20"/>
<path d="M78.2605 147.826H82.6086L82.6088 143.478H78.2607L78.2605 147.826Z" fill="#F1EEE5"/>
<path d="M82.6086 147.826H86.9567V143.478H82.6088L82.6086 147.826Z" fill="#B1A69A"/>
<path d="M91.305 147.826H95.6517V143.478H91.305V147.826Z" fill="#231F20"/>
<path d="M108.695 147.826H113.043V143.478L108.695 143.478L108.695 147.826Z" fill="#B1A69A"/>
<path d="M108.695 143.478L113.043 143.478V139.13L108.695 139.13V143.478Z" fill="#F1EEE5"/>
<path d="M104.348 147.826H108.695L108.695 143.478H104.348L104.348 147.826Z" fill="#231F20"/>
<path d="M108.695 139.13L113.043 139.13V134.783L108.695 134.783V139.13Z" fill="#F1EEE5"/>
<path d="M47.8261 147.826H52.1742V143.478H47.8261V147.826Z" fill="#F1EEE5"/>
<path d="M43.4777 143.478H47.8261L47.8258 139.131H43.4777V143.478Z" fill="#231F20"/>
<path d="M43.4777 147.826H47.8261V143.478H43.4777V147.826Z" fill="#231F20"/>
<path d="M69.5653 147.826H73.9136V143.478H69.5653V147.826Z" fill="#F1EEE5"/>
<path d="M52.1742 147.826H56.522L56.5222 143.478H52.1742V147.826Z" fill="#231F20"/>
<path d="M65.2173 143.478L65.2172 147.826H69.5653V143.478L65.2173 143.478Z" fill="#F1EEE5"/>
<path d="M60.8692 147.826H65.2172L65.2173 143.478H60.8692V147.826Z" fill="#F1EEE5"/>
<path d="M56.522 147.826H60.8692V143.478H56.5222L56.522 147.826Z" fill="#B1A69A"/>
<path d="M108.695 134.783L113.043 134.783V130.435L108.695 130.435V134.783Z" fill="#F1EEE5"/>
<path d="M108.695 126.086H113.043V121.739H108.695V126.086Z" fill="#F1EEE5"/>
<path d="M108.695 121.739H113.043V117.391H108.695V121.739Z" fill="#F1EEE5"/>
<path d="M108.695 130.435L113.043 130.435V126.086H108.695V130.435Z" fill="#D7CEC0"/>
<path d="M108.695 95.6519H113.043V91.3038H108.695V95.6519Z" fill="#231F20"/>
<path d="M108.695 117.391H113.043V113.043H108.695V117.391Z" fill="#F1EEE5"/>
<path d="M108.695 99.9999L113.043 100V95.6519H108.695V99.9999Z" fill="white"/>
<path d="M108.695 113.043H113.043V108.695H108.695V113.043Z" fill="#F1EEE5"/>
<path d="M108.695 104.348H113.043V100L108.695 99.9999V104.348Z" fill="#F1EEE5"/>
<path d="M108.695 108.695H113.043V104.348H108.695V108.695Z" fill="#F1EEE5"/>
<path d="M78.2607 117.391H82.6088V113.043H78.2607V117.391Z" fill="#F1EEE5"/>
<path d="M56.522 95.6519H60.869V91.3038H56.522V95.6519Z" fill="white"/>
<path d="M56.522 100H60.869V95.6519H56.522V100Z" fill="#F1EEE5"/>
<path d="M56.522 126.086H60.869V121.739H56.522V126.086Z" fill="#F1EEE5"/>
<path d="M60.869 95.6519H65.2173V91.3038H60.869V95.6519Z" fill="#231F20"/>
<path d="M65.2173 95.6519H69.5653V91.3038H65.2173V95.6519Z" fill="#231F20"/>
<path d="M56.522 104.348H60.869V100H56.522V104.348Z" fill="#F1EEE5"/>
<path d="M56.522 108.695H60.869V104.348H56.522V108.695Z" fill="#F1EEE5"/>
<path d="M56.522 117.391H60.869V113.043H56.522V117.391Z" fill="#F1EEE5"/>
<path d="M56.522 121.739H60.869V117.391H56.522V121.739Z" fill="#F1EEE5"/>
<path d="M56.522 113.043H60.869V108.695H56.522V113.043Z" fill="#F1EEE5"/>
<path d="M69.5653 95.6519H73.9136V91.3038H69.5653V95.6519Z" fill="#231F20"/>
<path d="M86.9566 108.695H91.3036V104.348H86.9566V108.695Z" fill="#F1EEE5"/>
<path d="M73.9136 95.6519H78.2605V91.3038H73.9136V95.6519Z" fill="#231F20"/>
<path d="M86.9566 113.043H91.3036V108.695H86.9566V113.043Z" fill="#D7CEC0"/>
<path d="M86.9566 121.74H91.3036V117.391H86.9566V121.74Z" fill="#F1EEE5"/>
<path d="M86.9566 117.391H91.3036V113.043H86.9566V117.391Z" fill="#F1EEE5"/>
<path d="M86.9566 104.348H91.3036V99.9999H86.9566V104.348Z" fill="#F1EEE5"/>
<path d="M78.2605 95.6519H82.6088V91.3038H78.2605V95.6519Z" fill="#231F20"/>
<path d="M82.6099 95.6519H86.9569V91.3038H82.6099V95.6519Z" fill="#231F20"/>
<path d="M86.9569 95.6519H91.3036V91.3038H86.9569V95.6519Z" fill="#231F20"/>
<path d="M86.9566 99.9999H91.3036V95.6519H86.9569L86.9566 99.9999Z" fill="white"/>
<path d="M91.305 117.391H95.652V113.043H91.305V117.391Z" fill="#D7CEC0"/>
<path d="M91.305 108.695H95.652V104.348H91.305V108.695Z" fill="#F1EEE5"/>
<path d="M91.305 104.348H95.652V99.9999H91.305V104.348Z" fill="#F1EEE5"/>
<path d="M91.305 113.043H95.652V108.695H91.305V113.043Z" fill="#F1EEE5"/>
<path d="M91.305 99.9999H95.652V95.6519H91.305V99.9999Z" fill="white"/>
<path d="M86.9566 126.086H91.3036V121.74H86.9566V126.086Z" fill="#F1EEE5"/>
<path d="M60.869 126.086H65.2173V121.739H60.869V126.086Z" fill="#F1EEE5"/>
<path d="M91.305 95.6519H95.652V91.3038H91.305V95.6519Z" fill="#231F20"/>
<path d="M69.5655 130.435H73.9135V126.087H69.5655V130.435Z" fill="#F1EEE5"/>
<path d="M65.2173 126.086L65.2172 130.435H69.5655V126.087L65.2173 126.086Z" fill="#F1EEE5"/>
<path d="M60.8692 130.435H65.2172L65.2173 126.086H60.869L60.8692 130.435Z" fill="#F1EEE5"/>
<path d="M91.305 126.086H95.652V121.739H91.305V126.086Z" fill="#F1EEE5"/>
<path d="M86.9566 130.435H91.3036V126.086H86.9566V130.435Z" fill="#F1EEE5"/>
<path d="M91.305 130.435H95.652V126.086H91.305V130.435Z" fill="#F1EEE5"/>
<path d="M82.6086 130.435H86.9566V126.086L82.6086 126.087V130.435Z" fill="#D7CEC0"/>
<path d="M78.2605 130.435H82.6086V126.087H78.2605V130.435Z" fill="#F1EEE5"/>
<path d="M82.6086 126.087L86.9566 126.086V121.74L82.6086 121.739V126.087Z" fill="#F1EEE5"/>
<path d="M65.2172 113.043H69.5653V108.695H65.2172V113.043Z" fill="#F1EEE5"/>
<path d="M65.2172 108.695H69.5653V104.348H65.2172V108.695Z" fill="#F1EEE5"/>
<path d="M65.2172 104.348H69.5653V99.9999H65.2172V104.348Z" fill="#F1EEE5"/>
<path d="M65.2172 117.391H69.5653V113.043H65.2172V117.391Z" fill="#D7CEC0"/>
<path d="M73.9135 104.348H78.2605V99.9999H73.9135V104.348Z" fill="#F1EEE5"/>
<path d="M78.2607 121.74L82.6086 121.739L82.6088 117.391H78.2607V121.74Z" fill="#F1EEE5"/>
<path d="M82.6086 121.739L86.9566 121.74V117.391L82.6088 117.391L82.6086 121.739Z" fill="#F1EEE5"/>
<path d="M73.9135 121.74H78.2607V117.391L73.9135 117.391V121.74Z" fill="#F1EEE5"/>
<path d="M69.5655 121.74H73.9135V117.391L69.5653 117.391L69.5655 121.74Z" fill="#D7CEC0"/>
<path d="M69.5653 117.391L73.9135 117.391L73.9136 113.043L69.5653 113.043V117.391Z" fill="#F1EEE5"/>
<path d="M73.9136 113.043H78.2607L78.2605 108.695H73.9135L73.9136 113.043Z" fill="#F1EEE5"/>
<path d="M69.5653 113.043L73.9136 113.043L73.9135 108.695H69.5653V113.043Z" fill="#F1EEE5"/>
<path d="M69.5653 108.695H73.9135V104.348L69.5653 104.348V108.695Z" fill="#F1EEE5"/>
<path d="M73.9135 108.695H78.2605V104.348H73.9135V108.695Z" fill="#F1EEE5"/>
<path d="M78.2605 104.348H82.6088V99.9999H78.2605V104.348Z" fill="#F1EEE5"/>
<path d="M78.2607 113.043H82.6088V108.695H78.2605L78.2607 113.043Z" fill="#F1EEE5"/>
<path d="M73.9135 117.391L78.2607 117.391V113.043H73.9136L73.9135 117.391Z" fill="#F1EEE5"/>
<path d="M78.2605 108.695H82.6088V104.348H78.2605V108.695Z" fill="#F1EEE5"/>
<path d="M69.5653 104.348L73.9135 104.348V99.9999H69.5653V104.348Z" fill="#F1EEE5"/>
<path d="M60.869 117.391H65.2172V113.043L60.869 113.043V117.391Z" fill="#F1EEE5"/>
<path d="M65.2173 121.739L69.5655 121.74L69.5653 117.391H65.2172L65.2173 121.739Z" fill="#F1EEE5"/>
<path d="M60.869 121.739H65.2173L65.2172 117.391H60.869V121.739Z" fill="#F1EEE5"/>
<path d="M60.869 113.043L65.2172 113.043V108.695L60.869 108.695V113.043Z" fill="#D7CEC0"/>
<path d="M60.869 108.695L65.2172 108.695V104.348L60.869 104.348V108.695Z" fill="#F1EEE5"/>
<path d="M65.2173 126.086L69.5655 126.087V121.74L65.2173 121.739V126.086Z" fill="#F1EEE5"/>
<path d="M73.9135 126.087H78.2605L78.2607 121.74H73.9135V126.087Z" fill="#F1EEE5"/>
<path d="M78.2605 126.087H82.6086V121.739L78.2607 121.74L78.2605 126.087Z" fill="#F1EEE5"/>
<path d="M60.869 104.348L65.2172 104.348V99.9999L60.869 100V104.348Z" fill="#F1EEE5"/>
<path d="M69.5655 126.087H73.9135V121.74H69.5655V126.087Z" fill="#F1EEE5"/>
<path d="M73.9135 99.9999H78.2605V95.6519H73.9136L73.9135 99.9999Z" fill="white"/>
<path d="M82.6099 100L86.9566 99.9999L86.9569 95.6519H82.6099V100Z" fill="white"/>
<path d="M82.6088 108.695L86.9566 108.695V104.348L82.6088 104.348V108.695Z" fill="#D7CEC0"/>
<path d="M82.6088 104.348L86.9566 104.348V99.9999H82.6088V104.348Z" fill="#F1EEE5"/>
<path d="M82.6088 113.043L86.9566 113.043V108.695L82.6088 108.695V113.043Z" fill="#F1EEE5"/>
<path d="M69.5653 99.9999H73.9135L73.9136 95.6519H69.5653V99.9999Z" fill="white"/>
<path d="M65.2172 99.9999H69.5653V95.6519H65.2173L65.2172 99.9999Z" fill="white"/>
<path d="M60.869 100L65.2172 99.9999L65.2173 95.6519H60.869V100Z" fill="white"/>
<path d="M78.2605 99.9999H82.6088V95.6519H78.2605V99.9999Z" fill="white"/>
<path d="M82.6088 117.391L86.9566 117.391V113.043L82.6088 113.043V117.391Z" fill="#F1EEE5"/>
<path d="M91.305 121.739H95.652V117.391H91.305V121.739Z" fill="#F1EEE5"/>
<path d="M47.8258 126.086H52.1742V121.739H47.8258V126.086Z" fill="#F1EEE5"/>
<path d="M47.8258 121.739H52.1742V117.391L47.8258 117.391V121.739Z" fill="#F1EEE5"/>
<path d="M47.8258 130.435H52.1742V126.086H47.8258V130.435Z" fill="#F1EEE5"/>
<path d="M47.8258 117.391L52.1742 117.391V113.043L47.8258 113.043V117.391Z" fill="#F1EEE5"/>
<path d="M47.8258 113.043L52.1742 113.043V108.695L47.8258 108.695V113.043Z" fill="#F1EEE5"/>
<path d="M52.1742 139.131H56.5222V134.783H52.1742V139.131Z" fill="#B1A69A"/>
<path d="M47.8258 134.783H52.1742V130.435H47.8258V134.783Z" fill="#B1A69A"/>
<path d="M47.8258 108.695L52.1742 108.695V104.348H47.8258V108.695Z" fill="#F1EEE5"/>
<path d="M56.5222 139.131H60.8692L60.869 134.783H56.5222V139.131Z" fill="#F1EEE5"/>
<path d="M52.1742 134.783H56.5222V130.435L52.1742 130.435V134.783Z" fill="#F1EEE5"/>
<path d="M56.522 86.9567H60.869V82.6086L56.5222 82.6087L56.522 86.9567Z" fill="#231F20"/>
<path d="M60.8692 139.131H65.2173V134.783H60.869L60.8692 139.131Z" fill="#F1EEE5"/>
<path d="M52.174 86.9567H56.522L56.5222 82.6087H52.174V86.9567Z" fill="white"/>
<path d="M47.8258 91.3038H52.1742L52.174 86.9567H47.8258V91.3038Z" fill="#F1EEE5"/>
<path d="M47.8258 86.9567H52.174V82.6087L47.8258 82.6086V86.9567Z" fill="#F1EEE5"/>
<path d="M47.8258 95.6519L52.1742 95.6519V91.3038H47.8258V95.6519Z" fill="#F1EEE5"/>
<path d="M47.8258 100H52.1742V95.6519L47.8258 95.6519V100Z" fill="#F1EEE5"/>
<path d="M47.8258 104.348H52.1742V100H47.8258V104.348Z" fill="#D7CEC0"/>
<path d="M65.2173 134.783V139.131L69.5653 139.13V134.783H65.2173Z" fill="#F1EEE5"/>
<path d="M100 113.043L104.348 113.043V108.695H100V113.043Z" fill="#F1EEE5"/>
<path d="M100 108.695H104.348V104.348L100 104.348V108.695Z" fill="#F1EEE5"/>
<path d="M100 117.391L104.348 117.391V113.043L100 113.043V117.391Z" fill="#F1EEE5"/>
<path d="M100 121.74L104.348 121.739V117.391L100 117.391V121.74Z" fill="#F1EEE5"/>
<path d="M100 100L104.348 99.9999V95.6519L100 95.6519V100Z" fill="white"/>
<path d="M100 104.348L104.348 104.348V99.9999L100 100V104.348Z" fill="#F1EEE5"/>
<path d="M100 95.6519L104.348 95.6519V91.3038H100V95.6519Z" fill="#231F20"/>
<path d="M100 130.435H104.348V126.086L100 126.087V130.435Z" fill="#F1EEE5"/>
<path d="M100 126.087L104.348 126.086V121.739L100 121.74V126.087Z" fill="#F1EEE5"/>
<path d="M78.2607 139.13H82.6088V134.783H78.2607V139.13Z" fill="#F1EEE5"/>
<path d="M73.9136 139.13H78.2607V134.783H73.9135L73.9136 139.13Z" fill="#F1EEE5"/>
<path d="M82.6088 139.13H86.9567V134.783H82.6088V139.13Z" fill="#F1EEE5"/>
<path d="M100 134.783H104.348V130.435H100V134.783Z" fill="#F1EEE5"/>
<path d="M69.5653 139.13H73.9136L73.9135 134.783H69.5653V139.13Z" fill="#F1EEE5"/>
<path d="M95.6517 139.13H100V134.783L95.6517 134.783V139.13Z" fill="#F1EEE5"/>
<path d="M100 139.13L104.348 139.13V134.783H100V139.13Z" fill="#F1EEE5"/>
<path d="M86.9567 139.13H91.3036V134.783H86.9567V139.13Z" fill="#F1EEE5"/>
<path d="M91.305 139.13H95.6517V134.783H91.305V139.13Z" fill="#F1EEE5"/>
<path d="M52.1742 126.086H56.522V121.739H52.1742V126.086Z" fill="#F1EEE5"/>
<path d="M56.5222 130.435L60.8692 130.435L60.869 126.086H56.522L56.5222 130.435Z" fill="#D7CEC0"/>
<path d="M52.1742 121.739H56.522V117.391L52.1742 117.391V121.739Z" fill="#F1EEE5"/>
<path d="M52.1742 117.391L56.522 117.391V113.043H52.1742V117.391Z" fill="#F1EEE5"/>
<path d="M60.869 134.783H65.2173L65.2172 130.435H60.8692L60.869 134.783Z" fill="#D7CEC0"/>
<path d="M65.2172 130.435L65.2173 134.783H69.5653L69.5655 130.435H65.2172Z" fill="#F1EEE5"/>
<path d="M69.5653 134.783H73.9135V130.435H69.5655L69.5653 134.783Z" fill="#F1EEE5"/>
<path d="M56.5222 134.783H60.869L60.8692 130.435L56.5222 130.435V134.783Z" fill="#F1EEE5"/>
<path d="M52.1742 113.043H56.522V108.695L52.1742 108.695V113.043Z" fill="#F1EEE5"/>
<path d="M52.1742 104.348L56.522 104.348V100H52.1742V104.348Z" fill="#F1EEE5"/>
<path d="M52.1742 108.695L56.522 108.695V104.348L52.1742 104.348V108.695Z" fill="#F1EEE5"/>
<path d="M56.522 91.3038H60.869V86.9567H56.522V91.3038Z" fill="#231F20"/>
<path d="M52.1742 100H56.522V95.6519H52.1742V100Z" fill="#F1EEE5"/>
<path d="M73.9135 134.783H78.2607L78.2605 130.435H73.9135V134.783Z" fill="#F1EEE5"/>
<path d="M52.1742 91.3038L56.522 91.3038V86.9567H52.174L52.1742 91.3038Z" fill="#F1EEE5"/>
<path d="M52.1742 95.6519H56.522V91.3038L52.1742 91.3038V95.6519Z" fill="#F1EEE5"/>
<path d="M52.1742 130.435L56.5222 130.435L56.522 126.086H52.1742V130.435Z" fill="#F1EEE5"/>
<path d="M95.652 95.6519H100V91.3038H95.652V95.6519Z" fill="#231F20"/>
<path d="M95.652 104.348H100V100L95.652 99.9999V104.348Z" fill="#F1EEE5"/>
<path d="M95.652 99.9999L100 100V95.6519H95.652V99.9999Z" fill="white"/>
<path d="M78.2607 134.783H82.6088L82.6086 130.435H78.2605L78.2607 134.783Z" fill="#F1EEE5"/>
<path d="M95.652 108.695L100 108.695V104.348H95.652V108.695Z" fill="#F1EEE5"/>
<path d="M91.305 134.783H95.6517L95.652 130.435H91.305V134.783Z" fill="#F1EEE5"/>
<path d="M86.9567 134.783H91.3036V130.435H86.9566L86.9567 134.783Z" fill="#D7CEC0"/>
<path d="M95.6517 134.783L100 134.783V130.435H95.652L95.6517 134.783Z" fill="#F1EEE5"/>
<path d="M95.652 113.043L100 113.043V108.695L95.652 108.695V113.043Z" fill="#F1EEE5"/>
<path d="M82.6088 134.783H86.9567L86.9566 130.435H82.6086L82.6088 134.783Z" fill="#F1EEE5"/>
<path d="M95.652 121.739L100 121.74V117.391H95.652V121.739Z" fill="#D7CEC0"/>
<path d="M95.652 130.435H100V126.087L95.652 126.086V130.435Z" fill="#F1EEE5"/>
<path d="M95.652 117.391H100V113.043L95.652 113.043V117.391Z" fill="#F1EEE5"/>
<path d="M95.652 126.086L100 126.087V121.74L95.652 121.739V126.086Z" fill="#F1EEE5"/>
<path d="M21.7395 60.8703H26.0865V56.5222H21.7395V60.8703Z" fill="#F1EEE5"/>
<path d="M21.7395 65.2172H26.0865V60.8703H21.7395V65.2172Z" fill="#F1EEE5"/>
<path d="M26.0865 60.8703H30.4347V56.5222H26.0865V60.8703Z" fill="#F1EEE5"/>
<path d="M30.4347 60.8703H34.7827V56.5222H30.4347V60.8703Z" fill="#B1A69A"/>
<path d="M21.7395 82.6087H26.0876V78.2617H21.7395V82.6087Z" fill="#231F20"/>
<path d="M21.7395 73.9134H26.0865V69.5653H21.7395V73.9134Z" fill="#B1A69A"/>
<path d="M21.7395 78.2617L26.0865 78.2616V73.9134H21.7395V78.2617Z" fill="#231F20"/>
<path d="M56.522 165.217H60.869V160.869H56.522V165.217Z" fill="#231F20"/>
<path d="M47.8261 165.217H52.174L52.1742 160.869H47.8261V165.217Z" fill="#F1EEE5"/>
<path d="M43.4777 165.217H47.8261V160.869H43.4777V165.217Z" fill="#231F20"/>
<path d="M52.174 165.217H56.522V160.869H52.1742L52.174 165.217Z" fill="#D7CEC0"/>
<path d="M65.2173 165.217H69.5655L69.5653 160.869H65.2172L65.2173 165.217Z" fill="#D7CEC0"/>
<path d="M78.2605 165.217H82.6088V160.869H78.2607L78.2605 165.217Z" fill="#231F20"/>
<path d="M69.5655 165.217H73.9136V160.869H69.5653L69.5655 165.217Z" fill="#F1EEE5"/>
<path d="M73.9136 165.217H78.2605L78.2607 160.869H73.9136V165.217Z" fill="#F1EEE5"/>
<path d="M60.869 165.217H65.2173L65.2172 160.869H60.869V165.217Z" fill="#F1EEE5"/>
<path d="M34.7838 60.8703H39.1308V56.5222H34.7838V60.8703Z" fill="#B1A69A"/>
<path d="M21.7395 69.5653H26.0865V65.2172H21.7395V69.5653Z" fill="#F1EEE5"/>
<path d="M121.74 95.6519H126.087V91.3038H121.74V95.6519Z" fill="#231F20"/>
<path d="M121.74 100H126.087V95.6519H121.74V100Z" fill="white"/>
<path d="M121.74 113.043H126.087V108.695H121.74V113.043Z" fill="#F1EEE5"/>
<path d="M121.74 104.348H126.087V100H121.74V104.348Z" fill="#F1EEE5"/>
<path d="M121.74 108.695H126.087V104.348H121.74V108.695Z" fill="#F1EEE5"/>
<path d="M121.74 147.826H126.087V143.478H121.74V147.826Z" fill="#F1EEE5"/>
<path d="M121.74 143.478H126.087V139.13H121.74V143.478Z" fill="#F1EEE5"/>
<path d="M121.74 139.13H126.087V134.783H121.74V139.13Z" fill="#F1EEE5"/>
<path d="M121.74 152.174H126.087V147.826H121.74V152.174Z" fill="#F1EEE5"/>
<path d="M121.74 121.74H126.087V117.391H121.74V121.74Z" fill="#D7CEC0"/>
<path d="M121.74 126.086H126.087V121.74H121.74V126.086Z" fill="#F1EEE5"/>
<path d="M121.74 134.783H126.087V130.435H121.74V134.783Z" fill="#F1EEE5"/>
<path d="M121.74 117.391H126.087V113.043H121.74V117.391Z" fill="#F1EEE5"/>
<path d="M60.8692 60.8703H65.2173V56.5222H60.8692V60.8703Z" fill="#B1A69A"/>
<path d="M65.2173 60.8703H69.5653V56.5222H65.2173V60.8703Z" fill="#231F20"/>
<path d="M47.8261 60.8703H52.1742V56.5222H47.8261V60.8703Z" fill="#F1EEE5"/>
<path d="M56.522 60.8703H60.8692V56.5222H56.522V60.8703Z" fill="#F1EEE5"/>
<path d="M52.1742 60.8703H56.522V56.5222H52.1742V60.8703Z" fill="#F1EEE5"/>
<path d="M43.4777 60.8703H47.8261V56.5222H43.4777V60.8703Z" fill="#F1EEE5"/>
<path d="M39.1308 60.8703H43.479V56.5222H39.1308V60.8703Z" fill="#F1EEE5"/>
<path d="M30.4347 56.5222H34.7827V52.174H30.4347V56.5222Z" fill="#231F20"/>
<path d="M26.0865 56.5222H30.4347V52.174H26.0866L26.0865 56.5222Z" fill="#B1A69A"/>
<path d="M39.1308 56.5222H43.4777L43.478 52.174H39.1307L39.1308 56.5222Z" fill="#B1A69A"/>
<path d="M21.7395 56.5222H26.0865L26.0866 52.174H21.7396L21.7395 56.5222Z" fill="#F1EEE5"/>
<path d="M34.7827 56.5222H39.1308L39.1307 52.174H34.7827V56.5222Z" fill="#231F20"/>
<path d="M17.3912 69.5655L21.7395 69.5653V65.2172L17.3912 65.2174V69.5655Z" fill="#B1A69A"/>
<path d="M17.3912 65.2174L21.7395 65.2172V60.8703H17.3912V65.2174Z" fill="#F1EEE5"/>
<path d="M17.3912 56.5222H21.7395L21.7396 52.174H17.3915L17.3912 56.5222Z" fill="#F1EEE5"/>
<path d="M17.3912 60.8703H21.7395V56.5222H17.3912V60.8703Z" fill="#F1EEE5"/>
<path d="M17.3915 73.9134H21.7395V69.5653L17.3912 69.5655L17.3915 73.9134Z" fill="#231F20"/>
<path d="M65.2184 56.5222L69.5653 56.5222V52.174L65.2184 52.174V56.5222Z" fill="#231F20"/>
<path d="M47.8261 56.5222H52.1742V52.174H47.8261V56.5222Z" fill="#F1EEE5"/>
<path d="M52.1742 56.5222H56.522L56.5222 52.174H52.1742V56.5222Z" fill="#F1EEE5"/>
<path d="M56.522 56.5222H60.8692V52.174H56.5222L56.522 56.5222Z" fill="#F1EEE5"/>
<path d="M60.8704 56.5222H65.2184V52.174H60.8704V56.5222Z" fill="#F1EEE5"/>
<path d="M121.74 156.521H126.087V152.174H121.74V156.521Z" fill="#D7CEC0"/>
<path d="M43.479 56.5222H47.8261V52.174H43.478L43.479 56.5222Z" fill="#F1EEE5"/>
<path d="M126.087 139.13H130.435V134.783L126.087 134.783V139.13Z" fill="#F1EEE5"/>
<path d="M126.087 134.783L130.435 134.783V130.435L126.087 130.435V134.783Z" fill="#F1EEE5"/>
<path d="M126.087 143.478L130.435 143.478V139.13H126.087V143.478Z" fill="#F1EEE5"/>
<path d="M126.087 152.174H130.435V147.826H126.087V152.174Z" fill="#F1EEE5"/>
<path d="M126.087 147.826H130.435V143.478L126.087 143.478V147.826Z" fill="#F1EEE5"/>
<path d="M126.087 156.521H130.435V152.174H126.087V156.521Z" fill="#F1EEE5"/>
<path d="M126.087 113.043H130.435V108.695L126.087 108.695V113.043Z" fill="#F1EEE5"/>
<path d="M126.087 121.74H130.435V117.391H126.087V121.74Z" fill="#F1EEE5"/>
<path d="M126.087 130.435L130.435 130.435V126.087L126.087 126.086V130.435Z" fill="#F1EEE5"/>
<path d="M126.087 126.086L130.435 126.087V121.74H126.087V126.086Z" fill="#F1EEE5"/>
<path d="M126.087 117.391H130.435V113.043H126.087V117.391Z" fill="#F1EEE5"/>
<path d="M108.695 165.217L113.043 165.217V160.869H108.695L108.695 165.217Z" fill="#B1A69A"/>
<path d="M104.348 165.217H108.695L108.695 160.869H104.348V165.217Z" fill="#231F20"/>
<path d="M126.086 160.869L130.435 160.869V156.522H126.086V160.869Z" fill="#D7CEC0"/>
<path d="M126.087 165.217L130.435 165.217V160.869L126.086 160.869L126.087 165.217Z" fill="#F1EEE5"/>
<path d="M121.74 165.217H126.087L126.086 160.869L121.74 160.869V165.217Z" fill="#F1EEE5"/>
<path d="M117.391 165.217H121.74V160.869H117.391V165.217Z" fill="#F1EEE5"/>
<path d="M113.043 165.217L117.391 165.217V160.869H113.043V165.217Z" fill="#231F20"/>
<path d="M126.087 108.695L130.435 108.695V104.348L126.087 104.348V108.695Z" fill="#F1EEE5"/>
<path d="M126.087 100H130.435V95.6519H126.087V100Z" fill="#231F20"/>
<path d="M126.087 104.348L130.435 104.348V100H126.087V104.348Z" fill="white"/>
<path d="M121.74 130.435H126.087V126.086H121.74V130.435Z" fill="#F1EEE5"/>
<path d="M30.4346 86.9567L34.7826 86.9568V82.6087L30.4346 82.6086V86.9567Z" fill="#F1EEE5"/>
<path d="M30.4346 82.6086L34.7826 82.6087V78.2617H30.4346V82.6086Z" fill="#F1EEE5"/>
<path d="M30.4346 91.3038H34.7826V86.9568L30.4346 86.9567V91.3038Z" fill="#F1EEE5"/>
<path d="M30.4346 73.9134H34.7826V69.5653H30.4346V73.9134Z" fill="#F1EEE5"/>
<path d="M30.4346 78.2617H34.7826V73.9134H30.4346V78.2617Z" fill="#F1EEE5"/>
<path d="M30.4346 108.695H34.7826V104.348H30.4346V108.695Z" fill="#231F20"/>
<path d="M30.4346 104.348H34.7826V100L30.4346 99.9999V104.348Z" fill="#231F20"/>
<path d="M30.4346 95.6519H34.7826V91.3038H30.4346V95.6519Z" fill="#B1A69A"/>
<path d="M30.4346 99.9999L34.7826 100V95.6519H30.4346V99.9999Z" fill="#231F20"/>
<path d="M100 156.521H104.348V152.174H100V156.521Z" fill="#231F20"/>
<path d="M104.348 156.521H108.695V152.174H104.348V156.521Z" fill="#B1A69A"/>
<path d="M30.4358 69.5655H34.7839V65.2174H30.4358V69.5655Z" fill="#231F20"/>
<path d="M117.391 152.174H121.74V147.826L117.391 147.826V152.174Z" fill="#F1EEE5"/>
<path d="M117.391 156.521H121.74V152.174H117.391V156.521Z" fill="#F1EEE5"/>
<path d="M113.043 156.521H117.391V152.174L113.043 152.174V156.521Z" fill="#B1A69A"/>
<path d="M108.695 156.521H113.043V152.174H108.695V156.521Z" fill="#231F20"/>
<path d="M52.174 156.521H56.5222L56.522 152.174H52.1742L52.174 156.521Z" fill="#F1EEE5"/>
<path d="M47.8261 156.521H52.174L52.1742 152.174H47.8261V156.521Z" fill="#F1EEE5"/>
<path d="M43.4777 156.521H47.8261V152.174H43.4777V156.521Z" fill="#231F20"/>
<path d="M56.5222 156.521H60.869L60.8692 152.174H56.522L56.5222 156.521Z" fill="#231F20"/>
<path d="M65.2172 156.521H69.5653V152.174H65.2172V156.521Z" fill="#F1EEE5"/>
<path d="M69.5653 156.521H73.9136V152.174H69.5653V156.521Z" fill="#F1EEE5"/>
<path d="M73.9136 156.521H78.2605V152.174H73.9136V156.521Z" fill="#F1EEE5"/>
<path d="M60.869 156.521H65.2172V152.174H60.8692L60.869 156.521Z" fill="#F1EEE5"/>
<path d="M78.2605 156.521H82.6088L82.6086 152.174H78.2605V156.521Z" fill="#231F20"/>
<path d="M113.043 104.348H117.391V99.9999L113.043 100V104.348Z" fill="#F1EEE5"/>
<path d="M117.391 147.826L121.74 147.826V143.478H117.391V147.826Z" fill="#F1EEE5"/>
<path d="M113.043 113.043L117.391 113.043V108.695H113.043V113.043Z" fill="#D7CEC0"/>
<path d="M34.7826 69.5653H39.1307V65.2174H34.7826V69.5653Z" fill="#B1A69A"/>
<path d="M113.043 117.391L117.391 117.391V113.043L113.043 113.043V117.391Z" fill="#F1EEE5"/>
<path d="M113.043 126.086H117.391V121.739H113.043V126.086Z" fill="#F1EEE5"/>
<path d="M113.043 121.739H117.391V117.391L113.043 117.391V121.739Z" fill="#F1EEE5"/>
<path d="M113.043 100L117.391 99.9999V95.6519L113.043 95.6519V100Z" fill="white"/>
<path d="M113.043 95.6519L117.391 95.6519V91.3038H113.043V95.6519Z" fill="#231F20"/>
<path d="M108.695 152.174H113.043L113.043 147.826H108.695L108.695 152.174Z" fill="#231F20"/>
<path d="M104.348 152.174H108.695L108.695 147.826H104.348V152.174Z" fill="#8A8177"/>
<path d="M113.043 152.174L117.391 152.174V147.826L113.043 147.826L113.043 152.174Z" fill="#F1EEE5"/>
<path d="M100 152.174H104.348V147.826H100V152.174Z" fill="#231F20"/>
<path d="M121.74 160.869L126.086 160.869V156.522H121.74V160.869Z" fill="#F1EEE5"/>
<path d="M113.043 134.783L117.391 134.783V130.435H113.043V134.783Z" fill="#D7CEC0"/>
<path d="M113.043 139.13L117.391 139.13V134.783L113.043 134.783V139.13Z" fill="#F1EEE5"/>
<path d="M113.043 147.826L117.391 147.826V143.478H113.043V147.826Z" fill="#F1EEE5"/>
<path d="M113.043 130.435H117.391V126.086H113.043V130.435Z" fill="#F1EEE5"/>
<path d="M113.043 108.695H117.391V104.348H113.043V108.695Z" fill="#F1EEE5"/>
<path d="M56.5222 69.5653L60.869 69.5655V65.2174H56.522L56.5222 69.5653Z" fill="#231F20"/>
<path d="M43.478 69.5653H47.8261L47.8258 65.2174H43.4777L43.478 69.5653Z" fill="#B1A69A"/>
<path d="M52.174 69.5653H56.5222L56.522 65.2174H52.174V69.5653Z" fill="#B1A69A"/>
<path d="M39.1307 69.5653H43.478L43.4777 65.2174H39.1307V69.5653Z" fill="#231F20"/>
<path d="M47.8261 69.5653H52.174V65.2174H47.8258L47.8261 69.5653Z" fill="#F1EEE5"/>
<path d="M113.043 143.478H117.391L117.391 139.13L113.043 139.13V143.478Z" fill="#F1EEE5"/>
<path d="M26.0876 78.2617H30.4346V73.9134H26.0865L26.0876 78.2617Z" fill="#F1EEE5"/>
<path d="M26.0866 95.6519H30.4346V91.3038L26.0866 91.3038V95.6519Z" fill="#231F20"/>
<path d="M26.0866 86.9567H30.4346V82.6086L26.0876 82.6087L26.0866 86.9567Z" fill="#231F20"/>
<path d="M26.0876 82.6087L30.4346 82.6086V78.2617L26.0865 78.2616L26.0876 82.6087Z" fill="#B1A69A"/>
<path d="M26.0866 91.3038L30.4346 91.3038V86.9567H26.0866V91.3038Z" fill="#231F20"/>
<path d="M113.043 160.869H117.391L117.391 156.522H113.043L113.043 160.869Z" fill="#231F20"/>
<path d="M117.391 160.869H121.74V156.522H117.391L117.391 160.869Z" fill="#F1EEE5"/>
<path d="M78.2607 160.869H82.6088V156.522H78.2607V160.869Z" fill="#231F20"/>
<path d="M108.695 160.869H113.043L113.043 156.522H108.695V160.869Z" fill="#8A8177"/>
<path d="M104.348 160.869H108.695V156.522H104.348V160.869Z" fill="#231F20"/>
<path d="M56.522 160.869H60.869V156.522H56.522V160.869Z" fill="#231F20"/>
<path d="M43.4777 160.869H47.8261L47.8258 156.522H43.4777V160.869Z" fill="#231F20"/>
<path d="M52.1742 160.869H56.522V156.522H52.174L52.1742 160.869Z" fill="#F1EEE5"/>
<path d="M47.8261 160.869H52.1742L52.174 156.522H47.8258L47.8261 160.869Z" fill="#D7CEC0"/>
<path d="M69.5653 160.869H73.9136V156.522H69.5655L69.5653 160.869Z" fill="#F1EEE5"/>
<path d="M65.2172 160.869H69.5653L69.5655 156.522H65.2172V160.869Z" fill="#F1EEE5"/>
<path d="M73.9136 160.869H78.2607V156.522H73.9136V160.869Z" fill="#F1EEE5"/>
<path d="M60.869 160.869H65.2172V156.522H60.869V160.869Z" fill="#F1EEE5"/>
<path d="M30.4358 65.2174H34.7839L34.7838 60.8703L30.4358 60.8702V65.2174Z" fill="#F1EEE5"/>
<path d="M117.391 95.6519L121.74 95.6519V91.3038H117.391V95.6519Z" fill="#231F20"/>
<path d="M117.391 99.9999L121.74 100V95.6519L117.391 95.6519V99.9999Z" fill="white"/>
<path d="M117.391 126.086H121.74V121.74L117.391 121.739V126.086Z" fill="#F1EEE5"/>
<path d="M117.391 134.783L121.74 134.783V130.435H117.391V134.783Z" fill="#F1EEE5"/>
<path d="M117.391 130.435H121.74V126.086H117.391V130.435Z" fill="#F1EEE5"/>
<path d="M117.391 139.13L121.74 139.13V134.783L117.391 134.783V139.13Z" fill="#F1EEE5"/>
<path d="M117.391 113.043H121.74V108.695H117.391V113.043Z" fill="#F1EEE5"/>
<path d="M117.391 108.695H121.74V104.348H117.391V108.695Z" fill="#F1EEE5"/>
<path d="M117.391 104.348H121.74V100L117.391 99.9999V104.348Z" fill="#F1EEE5"/>
<path d="M117.391 121.739L121.74 121.74V117.391L117.391 117.391V121.739Z" fill="#F1EEE5"/>
<path d="M117.391 117.391L121.74 117.391V113.043H117.391V117.391Z" fill="#D7CEC0"/>
<path d="M43.4777 65.2174H47.8258L47.8261 60.8703H43.4777V65.2174Z" fill="#231F20"/>
<path d="M47.8258 65.2174H52.174L52.1742 60.8703H47.8261L47.8258 65.2174Z" fill="#F1EEE5"/>
<path d="M39.1307 65.2174H43.4777V60.8703H39.1308L39.1307 65.2174Z" fill="#F1EEE5"/>
<path d="M52.174 65.2174H56.522V60.8703H52.1742L52.174 65.2174Z" fill="#F1EEE5"/>
<path d="M56.522 65.2174H60.869L60.8692 60.8703H56.522V65.2174Z" fill="#B1A69A"/>
<path d="M60.869 65.2174L65.2173 65.2172V60.8703H60.8692L60.869 65.2174Z" fill="#231F20"/>
<path d="M26.0865 69.5653H30.4346L30.4347 65.2174L26.0865 65.2172V69.5653Z" fill="#B1A69A"/>
<path d="M34.7826 65.2174H39.1307L39.1308 60.8703H34.7827L34.7826 65.2174Z" fill="#231F20"/>
<path d="M26.0865 65.2172L30.4347 65.2174V60.8703H26.0865V65.2172Z" fill="#231F20"/>
<path d="M117.391 143.478H121.74V139.13L117.391 139.13L117.391 143.478Z" fill="#F1EEE5"/>
<path d="M26.0865 73.9134H30.4346V69.5653H26.0865V73.9134Z" fill="#F1EEE5"/>
<path d="M4.34797 8.69628H8.69608V4.34818H4.34797V8.69628Z" fill="white"/>
<path d="M0 8.69628H4.34797V4.34818H0V8.69628Z" fill="#231F20"/>
<path d="M8.69608 8.69628H13.0434V4.34818H8.69608V8.69628Z" fill="#231F20"/>
<path d="M69.5655 8.69628H73.9136V4.34818H69.5655V8.69628Z" fill="#231F20"/>
<path d="M65.2172 8.69628H69.5655V4.34818H65.2172V8.69628Z" fill="white"/>
<path d="M60.8692 8.69628H65.2172V4.34818H60.8692V8.69628Z" fill="#231F20"/>
<path d="M65.2172 13.0443H69.5653L69.5655 8.69628H65.2172V13.0443Z" fill="#F1EEE5"/>
<path d="M69.5653 13.0443H73.9136V8.69628H69.5655L69.5653 13.0443Z" fill="#231F20"/>
<path d="M4.34797 13.0443H8.69608V8.69628H4.34797V13.0443Z" fill="#F1EEE5"/>
<path d="M0 13.0443H4.34797V8.69628H0V13.0443Z" fill="#231F20"/>
<path d="M8.69608 13.0443H13.0434V8.69628H8.69608V13.0443Z" fill="white"/>
<path d="M13.0434 13.0443H17.3912V8.69615L13.0434 8.69628V13.0443Z" fill="#231F20"/>
<path d="M56.522 13.0443H60.869L60.8692 8.69628L56.522 8.69615V13.0443Z" fill="#231F20"/>
<path d="M60.869 13.0443H65.2172V8.69628H60.8692L60.869 13.0443Z" fill="white"/>
<path d="M65.2172 4.34818H69.5655L69.5653 0H65.2172V4.34818Z" fill="#231F20"/>
<path d="M4.34797 4.34818H8.69608V0H4.34797V4.34818Z" fill="#231F20"/>
<path d="M8.69635 26.0876H13.0434V21.7395H8.69635V26.0876Z" fill="#B1A69A"/>
<path d="M65.2172 26.0876H69.5653V21.7395H65.2172V26.0876Z" fill="#231F20"/>
<path d="M13.0434 26.0876H17.3912V21.7395H13.0434V26.0876Z" fill="#F1EEE5"/>
<path d="M17.3912 26.0876H21.7396V21.7395H17.3912V26.0876Z" fill="#231F20"/>
<path d="M21.7396 26.0876H26.0865V21.7395H21.7396V26.0876Z" fill="white"/>
<path d="M4.34797 26.0876H8.69635V21.7395H4.34797V26.0876Z" fill="#231F20"/>
<path d="M56.522 26.0876H60.869V21.7395H56.522V26.0876Z" fill="#F1EEE5"/>
<path d="M47.8261 26.0876H52.1742V21.7395H47.8261V26.0876Z" fill="white"/>
<path d="M52.1742 26.0876H56.522V21.7395H52.1742V26.0876Z" fill="#231F20"/>
<path d="M60.869 26.0876H65.2172V21.7395H60.869V26.0876Z" fill="#B1A69A"/>
<path d="M39.1309 26.0876H43.478V21.7395H39.1309V26.0876Z" fill="white"/>
<path d="M34.7826 26.0876H39.1309V21.7395H34.7826V26.0876Z" fill="white"/>
<path d="M43.478 26.0876H47.8261V21.7395H43.478V26.0876Z" fill="white"/>
<path d="M30.4346 26.0876H34.7826V21.7395H30.4346V26.0876Z" fill="white"/>
<path d="M26.0865 26.0876H30.4346V21.7395H26.0865V26.0876Z" fill="white"/>
<path d="M73.9135 200H78.2605V195.652H73.9135V200Z" fill="#231F20"/>
<path d="M69.5655 200H73.9135V195.652H69.5655V200Z" fill="#918F8F"/>
<path d="M56.522 200H60.869V195.652H56.522V200Z" fill="#231F20"/>
<path d="M52.174 200H56.522V195.652H52.174V200Z" fill="#918F8F"/>
<path d="M47.8261 200H52.174V195.652H47.8261V200Z" fill="#231F20"/>
<path d="M65.2172 195.652V200H69.5655V195.652H65.2172Z" fill="#231F20"/>
<path d="M113.043 200H117.391V195.652H113.043V200Z" fill="#231F20"/>
<path d="M117.391 200H121.739V195.652H117.391V200Z" fill="#918F8F"/>
<path d="M121.739 200H126.087V195.652H121.739V200Z" fill="#231F20"/>
<path d="M139.131 200H143.478V195.652H139.131V200Z" fill="#231F20"/>
<path d="M134.783 200H139.131V195.652H134.783V200Z" fill="#918F8F"/>
<path d="M130.435 200H134.783V195.652H130.435V200Z" fill="#231F20"/>
<path d="M26.0865 30.4346H30.4347L30.4346 26.0876H26.0865V30.4346Z" fill="#F1EEE5"/>
<path d="M30.4347 30.4346H34.7826V26.0876H30.4346L30.4347 30.4346Z" fill="white"/>
<path d="M21.7395 30.4346H26.0865V26.0876H21.7396L21.7395 30.4346Z" fill="#F1EEE5"/>
<path d="M39.1309 30.4346H43.478V26.0876H39.1309V30.4346Z" fill="#F1EEE5"/>
<path d="M34.7826 30.4346H39.1309V26.0876H34.7826V30.4346Z" fill="#F1EEE5"/>
<path d="M8.69635 30.4346H13.0434V26.0876H8.69635V30.4346Z" fill="#231F20"/>
<path d="M17.3912 30.4346H21.7395L21.7396 26.0876H17.3912V30.4346Z" fill="white"/>
<path d="M13.0434 30.4346H17.3912V26.0876H13.0434V30.4346Z" fill="#231F20"/>
<path d="M43.478 30.4346H47.8261V26.0876H43.478V30.4346Z" fill="white"/>
<path d="M47.8261 30.4346H52.174L52.1742 26.0876H47.8261V30.4346Z" fill="#F1EEE5"/>
<path d="M52.174 30.4346H56.522V26.0876H52.1742L52.174 30.4346Z" fill="white"/>
<path d="M56.522 30.4346H60.8692L60.869 26.0876H56.522V30.4346Z" fill="#231F20"/>
<path d="M60.8692 30.4346H65.2173L65.2172 26.0876H60.869L60.8692 30.4346Z" fill="#231F20"/>
<path d="M139.131 195.652H143.478V191.304H139.131V195.652Z" fill="#231F20"/>
<path d="M47.8261 195.652H52.174L52.1742 191.304H47.8261V195.652Z" fill="#231F20"/>
<path d="M113.043 195.652H117.391L117.391 191.304H113.043V195.652Z" fill="#231F20"/>
<path d="M117.391 195.652H121.739V191.304H117.391L117.391 195.652Z" fill="#231F20"/>
<path d="M134.783 195.652H139.131V191.304H134.783L134.783 195.652Z" fill="#231F20"/>
<path d="M130.435 195.652H134.783L134.783 191.304H130.435V195.652Z" fill="#231F20"/>
<path d="M121.739 195.652H126.087V191.304H121.739V195.652Z" fill="#231F20"/>
<path d="M69.5655 195.652H73.9135L73.9136 191.304H69.5655V195.652Z" fill="#231F20"/>
<path d="M52.174 195.652H56.522V191.304H52.1742L52.174 195.652Z" fill="#231F20"/>
<path d="M56.522 195.652H60.869V191.304H56.522V195.652Z" fill="#231F20"/>
<path d="M65.2172 191.304V195.652H69.5655V191.304L65.2172 191.304Z" fill="#231F20"/>
<path d="M73.9135 195.652H78.2605V191.304H73.9136L73.9135 195.652Z" fill="#231F20"/>
<path d="M60.8692 17.3914H65.2173L65.2172 13.0443H60.869L60.8692 17.3914Z" fill="#F1EEE5"/>
<path d="M56.522 17.3914H60.8692L60.869 13.0443H56.522V17.3914Z" fill="white"/>
<path d="M52.174 17.3914H56.522V13.0443L52.174 13.0433V17.3914Z" fill="#231F20"/>
<path d="M65.2173 17.3914H69.5653V13.0443H65.2172L65.2173 17.3914Z" fill="#F1EEE5"/>
<path d="M69.5653 17.3914H73.9136V13.0443H69.5653V17.3914Z" fill="#231F20"/>
<path d="M8.69635 17.3914H13.0434V13.0443H8.69608L8.69635 17.3914Z" fill="#F1EEE5"/>
<path d="M17.3915 17.3914H21.7396V13.0433L17.3912 13.0443L17.3915 17.3914Z" fill="#231F20"/>
<path d="M13.0434 17.3914H17.3915L17.3912 13.0443H13.0434V17.3914Z" fill="white"/>
<path d="M4.34797 17.3914H8.69635L8.69608 13.0443H4.34797V17.3914Z" fill="#F1EEE5"/>
<path d="M0 17.3914H4.34797V13.0443H0V17.3914Z" fill="#231F20"/>
<path d="M65.2172 21.7395H69.5653V17.3914H65.2173L65.2172 21.7395Z" fill="#B1A69A"/>
<path d="M69.5653 21.7395L73.9136 21.7394V17.3914H69.5653V21.7395Z" fill="#231F20"/>
<path d="M56.522 21.7395H60.869L60.8692 17.3914H56.522V21.7395Z" fill="#F1EEE5"/>
<path d="M60.869 21.7395H65.2172L65.2173 17.3914H60.8692L60.869 21.7395Z" fill="#F1EEE5"/>
<path d="M52.1742 21.7395H56.522V17.3914H52.174L52.1742 21.7395Z" fill="white"/>
<path d="M43.478 21.7395H47.8261L47.8258 17.3913H43.4777L43.478 21.7395Z" fill="#231F20"/>
<path d="M39.1309 21.7395H43.478L43.4777 17.3913H39.1309V21.7395Z" fill="#231F20"/>
<path d="M47.8261 21.7395H52.1742L52.174 17.3914L47.8258 17.3913L47.8261 21.7395Z" fill="#231F20"/>
<path d="M34.7826 21.7395H39.1309V17.3913H34.7826V21.7395Z" fill="#231F20"/>
<path d="M0 21.7394L4.34797 21.7395V17.3914H0V21.7394Z" fill="#231F20"/>
<path d="M17.3912 21.7395H21.7396V17.3914H17.3915L17.3912 21.7395Z" fill="white"/>
<path d="M21.7396 21.7395H26.0865V17.3913L21.7396 17.3914V21.7395Z" fill="#231F20"/>
<path d="M26.0865 21.7395H30.4346L30.4347 17.3913H26.0865V21.7395Z" fill="#231F20"/>
<path d="M13.0434 21.7395H17.3912L17.3915 17.3914H13.0434V21.7395Z" fill="#F1EEE5"/>
<path d="M30.4346 21.7395H34.7826V17.3913H30.4347L30.4346 21.7395Z" fill="#231F20"/>
<path d="M8.69635 21.7395H13.0434V17.3914H8.69635V21.7395Z" fill="#F1EEE5"/>
<path d="M4.34797 21.7395H8.69635V17.3914H4.34797V21.7395Z" fill="#B1A69A"/>
<path d="M73.0093 128.363H77.3574V124.016H73.0093V128.363Z" fill="#F1EEE5"/>
</svg>
