<svg width="249" height="200" viewBox="0 0 249 200" fill="none" xmlns="http://www.w3.org/2000/svg">
<path d="M48.9414 36.3618H55.0009V30.3008H48.9414V36.3618Z" fill="#C8C4C3"/>
<path d="M85.3047 36.3618H91.3657V30.3008H85.3047V36.3618Z" fill="#C8C4C3"/>
<path d="M103.488 36.3618H109.549V30.3008H103.488V36.3618Z" fill="#F36717"/>
<path d="M79.2422 36.3618H85.3032V30.3008H79.2422V36.3618Z" fill="#F36717"/>
<path d="M97.4258 36.3618H103.485V30.3008H97.4258V36.3618Z" fill="#C8C4C3"/>
<path d="M91.3672 36.3618H97.4282V30.3008H91.3672V36.3618Z" fill="#C8C4C3"/>
<path d="M55.0009 36.3618H61.061V30.3008H55.0009V36.3618Z" fill="#F36717"/>
<path d="M61.0625 36.3618H67.1235V30.3008H61.0625V36.3618Z" fill="#231F20"/>
<path d="M109.547 36.3618H115.608V30.3008H109.547V36.3618Z" fill="#231F20"/>
<path d="M42.8828 36.3618H48.9438V30.3008H42.8828V36.3618Z" fill="#C8C4C3"/>
<path d="M73.1836 36.3618H79.2422V30.3008H73.1836V36.3618Z" fill="#231F20"/>
<path d="M12.5781 96.9692H18.6391V90.9082H12.5781V96.9692Z" fill="#7C3D1B"/>
<path d="M12.5781 90.9072H18.6391V84.8477H12.5781V90.9072Z" fill="#231F20"/>
<path d="M12.5781 103.03H18.6391V96.9692H12.5781V103.03Z" fill="#231F20"/>
<path d="M12.5781 109.09H18.6391V103.03H12.5781V109.09Z" fill="white"/>
<path d="M12.5781 121.211H18.6391V115.15H12.5781V121.211Z" fill="#231F20"/>
<path d="M12.5781 115.149H18.6391V109.09H12.5781V115.149Z" fill="#D2CFCD"/>
<path d="M30.7617 36.3618H36.8212V30.3008H30.7617V36.3618Z" fill="#231F20"/>
<path d="M36.8212 36.3618H42.8813V30.3008H36.8212V36.3618Z" fill="#F36717"/>
<path d="M30.7617 30.3032H36.8212V24.2422H30.7617V30.3032Z" fill="#231F20"/>
<path d="M42.8828 30.3032H48.9438V24.2422H42.8828V30.3032Z" fill="#C8C4C3"/>
<path d="M36.8212 30.3032H42.8813V24.2422H36.8212V30.3032Z" fill="#F36717"/>
<path d="M48.9414 30.3032H55.0009V24.2422H48.9414V30.3032Z" fill="#C8C4C3"/>
<path d="M55.0009 30.3032H61.061V24.2422H55.0009V30.3032Z" fill="#F36717"/>
<path d="M61.0625 30.3032H67.1235V24.2422H61.0625V30.3032Z" fill="#231F20"/>
<path d="M103.488 30.3032H109.549V24.2422H103.488V30.3032Z" fill="#F36717"/>
<path d="M109.547 30.3032H115.608V24.2422H109.547V30.3032Z" fill="#231F20"/>
<path d="M79.2422 30.3032H85.3032V24.2422H79.2422V30.3032Z" fill="#F36717"/>
<path d="M85.3047 30.3032H91.3657V24.2422H85.3047V30.3032Z" fill="#C8C4C3"/>
<path d="M97.4258 30.3032H103.485V24.2422H97.4258V30.3032Z" fill="#C8C4C3"/>
<path d="M73.1836 30.3032H79.2422V24.2422H73.1836V30.3032Z" fill="#231F20"/>
<path d="M91.3672 30.3032H97.4282V24.2422H91.3672V30.3032Z" fill="#C8C4C3"/>
<path d="M6.51953 115.149H12.5781L12.579 109.09H6.51953V115.149Z" fill="#231F20"/>
<path d="M6.51953 103.03H12.5781L12.579 96.9688H6.51953V103.03Z" fill="white"/>
<path d="M6.51953 96.9688H12.579L12.5781 90.9082H6.51953V96.9688Z" fill="#231F20"/>
<path d="M6.51953 109.09H12.579V103.029L6.51953 103.03V109.09Z" fill="#D2CFCD"/>
<path d="M6.51953 90.9072H12.5781V84.8477H6.51953V90.9072Z" fill="#231F20"/>
<path d="M194.395 133.334H200.456V127.273H194.395V133.334Z" fill="#231F20"/>
<path d="M194.395 96.9692H200.456V90.9082H194.395V96.9692Z" fill="#C84316"/>
<path d="M194.395 127.272H200.456V121.211H194.395V127.272Z" fill="#231F20"/>
<path d="M194.395 145.454H200.456V139.393H194.395V145.454Z" fill="#231F20"/>
<path d="M194.395 151.514H200.456V145.454H194.395V151.514Z" fill="#231F20"/>
<path d="M194.395 139.392H200.456V133.332H194.395V139.392Z" fill="#231F20"/>
<path d="M194.395 109.09H200.456V103.029H194.395V109.09Z" fill="#231F20"/>
<path d="M194.395 103.029H200.456V96.9692H194.395V103.029Z" fill="#231F20"/>
<path d="M194.395 121.211H200.456V115.15H194.395V121.211Z" fill="#231F20"/>
<path d="M194.395 115.149H200.456V109.09H194.395V115.149Z" fill="#231F20"/>
<path d="M194.395 157.575H200.456V151.516H194.395V157.575Z" fill="#231F20"/>
<path d="M194.395 200H200.456V193.939H194.395V200Z" fill="#231F20"/>
<path d="M194.395 193.939H200.456V187.879H194.395V193.939Z" fill="#D2CFCD"/>
<path d="M194.395 187.877H200.456V181.816H194.395V187.877Z" fill="white"/>
<path d="M194.395 175.756H200.456V169.695H194.395V175.756Z" fill="#F36717"/>
<path d="M194.395 169.698H200.456V163.637H194.395V169.698Z" fill="#F36717"/>
<path d="M194.395 163.635H200.456V157.575H194.395V163.635Z" fill="#F89C0E"/>
<path d="M194.395 181.816H200.456V175.758H194.395V181.816Z" fill="white"/>
<path d="M194.395 66.6665H200.456V60.6055H194.395V66.6665Z" fill="#F36717"/>
<path d="M194.395 78.7876H200.456V72.7266H194.395V78.7876Z" fill="#231F20"/>
<path d="M194.395 72.7266H200.456V66.668H194.395V72.7266Z" fill="#231F20"/>
<path d="M194.395 84.8481H200.456V78.7876H194.395V84.8481Z" fill="#231F20"/>
<path d="M194.395 90.9072H200.456V84.8481H194.395V90.9072Z" fill="#F89C0E"/>
<path d="M194.395 48.4833H200.456V42.4238H194.395V48.4833Z" fill="#F89C0E"/>
<path d="M194.395 42.4238H200.456V36.3633H194.395V42.4238Z" fill="#231F20"/>
<path d="M194.395 54.5454H200.456V48.4844H194.395V54.5454Z" fill="#F36717"/>
<path d="M194.395 60.6055H200.456V54.5454H194.395V60.6055Z" fill="#F36717"/>
<path d="M182.273 84.8481H188.334V78.7871H182.273V84.8481Z" fill="#231F20"/>
<path d="M182.273 90.9072H188.334V84.8481H182.273V90.9072Z" fill="#F89C0E"/>
<path d="M182.273 103.03H188.334V96.9688H182.273V103.03Z" fill="#F36717"/>
<path d="M182.273 96.9688H188.334V90.9082H182.273V96.9688Z" fill="#F36717"/>
<path d="M67.125 42.4243H73.186V36.3633H67.125V42.4243Z" fill="#231F20"/>
<path d="M36.8203 42.4243H42.8813V36.3633H36.8203V42.4243Z" fill="#F36717"/>
<path d="M42.8828 42.4243H48.9438V36.3633H42.8828V42.4243Z" fill="#C8C4C3"/>
<path d="M48.9414 42.4243H55.0009V36.3633H48.9414V42.4243Z" fill="#C8C4C3"/>
<path d="M55.0009 42.4243H61.061V36.3633H55.0009V42.4243Z" fill="#F36717"/>
<path d="M30.7617 42.4243H36.8203V36.3633H30.7617V42.4243Z" fill="#231F20"/>
<path d="M97.4258 42.4243H103.485V36.3633H97.4258V42.4243Z" fill="#C8C4C3"/>
<path d="M91.3672 42.4243H97.4282V36.3633H91.3672V42.4243Z" fill="#C8C4C3"/>
<path d="M103.488 42.4243H109.549V36.3633H103.488V42.4243Z" fill="#F36717"/>
<path d="M109.547 42.4243H115.608V36.3633H109.547V42.4243Z" fill="#231F20"/>
<path d="M182.273 109.09H188.334V103.03H182.273V109.09Z" fill="#F36717"/>
<path d="M73.1836 42.4243H79.2431V36.3633H73.1836V42.4243Z" fill="#231F20"/>
<path d="M61.0625 42.4243H67.1235V36.3633H61.0625V42.4243Z" fill="#231F20"/>
<path d="M85.3047 42.4243H91.3657V36.3633H85.3047V42.4243Z" fill="#C8C4C3"/>
<path d="M79.2431 42.4243H85.3032V36.3633H79.2431V42.4243Z" fill="#F36717"/>
<path d="M182.273 151.514H188.334V145.453H182.273V151.514Z" fill="#F36717"/>
<path d="M182.273 157.575H188.334V151.516H182.273V157.575Z" fill="#F36717"/>
<path d="M182.273 169.698H188.334V163.637H182.273V169.698Z" fill="#231F20"/>
<path d="M182.273 163.635H188.334V157.575H182.273V163.635Z" fill="#C84316"/>
<path d="M182.273 121.211H188.334V115.15H182.273V121.211Z" fill="#F36717"/>
<path d="M182.273 127.272H188.334V121.211H182.273V127.272Z" fill="#F36717"/>
<path d="M182.273 139.392H188.334V133.332H182.273V139.392Z" fill="#F36717"/>
<path d="M182.273 133.334H188.334V127.273H182.273V133.334Z" fill="#F36717"/>
<path d="M182.273 145.453H188.334V139.393H182.273V145.453Z" fill="#F36717"/>
<path d="M182.273 115.149H188.334V109.09H182.273V115.149Z" fill="#F36717"/>
<path d="M188.336 187.877H194.395V181.816H188.336V187.877Z" fill="#231F20"/>
<path d="M188.336 181.816L194.395 181.817L194.395 175.758H188.336V181.816Z" fill="#231F20"/>
<path d="M188.336 200H194.395V193.939H188.336V200Z" fill="#231F20"/>
<path d="M188.336 193.939L194.395 193.94L194.395 187.879H188.336V193.939Z" fill="#231F20"/>
<path d="M188.336 175.756H194.395V169.695H188.336V175.756Z" fill="#231F20"/>
<path d="M188.336 157.575H194.395V151.516H188.336V157.575Z" fill="#F36717"/>
<path d="M188.336 151.514H194.395L194.395 145.453H188.336V151.514Z" fill="#F36717"/>
<path d="M188.336 145.453H194.395L194.395 139.393H188.336V145.453Z" fill="#F36717"/>
<path d="M188.336 169.698H194.395V163.637H188.336V169.698Z" fill="#C84316"/>
<path d="M188.336 48.4833H194.395V42.4238H188.336V48.4833Z" fill="#231F20"/>
<path d="M188.336 60.6059H194.395V54.5449H188.336V60.6059Z" fill="#231F20"/>
<path d="M188.336 54.5449H194.395L194.395 48.4844H188.336V54.5449Z" fill="#231F20"/>
<path d="M188.336 66.6665H194.395L194.395 60.6059H188.336V66.6665Z" fill="#231F20"/>
<path d="M188.336 103.03H194.395V96.9688H188.336V103.03Z" fill="#F36717"/>
<path d="M188.336 115.149H194.395L194.395 109.09H188.336V115.149Z" fill="#F36717"/>
<path d="M188.336 127.272H194.395V121.211H188.336V127.272Z" fill="#F36717"/>
<path d="M188.336 133.334H194.395V127.273H188.336V133.334Z" fill="#F36717"/>
<path d="M188.336 121.211L194.395 121.211L194.395 115.15H188.336V121.211Z" fill="#F36717"/>
<path d="M188.336 90.9072H194.395L194.395 84.8477H188.336V90.9072Z" fill="#231F20"/>
<path d="M188.336 96.9688H194.395L194.395 90.9082H188.336V96.9688Z" fill="#F36717"/>
<path d="M188.336 139.392H194.395V133.332H188.336V139.392Z" fill="#F36717"/>
<path d="M188.336 109.09H194.395V103.03H188.336V109.09Z" fill="#F36717"/>
<path d="M188.336 163.635H194.395L194.395 157.574L188.336 157.575V163.635Z" fill="#F36717"/>
<path d="M18.6406 84.8481H24.7016V78.7871H18.6406V84.8481Z" fill="#231F20"/>
<path d="M18.6406 90.9072H24.7016V84.8481H18.6406V90.9072Z" fill="#231F20"/>
<path d="M18.6406 96.9692H24.7016V90.9082H18.6406V96.9692Z" fill="#7C3D1B"/>
<path d="M18.6406 103.03H24.7016V96.9692H18.6406V103.03Z" fill="#231F20"/>
<path d="M18.6406 115.149H24.7016V109.09H18.6406V115.149Z" fill="#D2CFCD"/>
<path d="M18.6406 121.211H24.7016V115.15H18.6406V121.211Z" fill="#231F20"/>
<path d="M18.6406 109.09H24.7016V103.03H18.6406V109.09Z" fill="white"/>
<path d="M103.488 18.1821H109.549V12.1211H103.488V18.1821Z" fill="#231F20"/>
<path d="M91.3672 18.1821H97.4282V12.1211H91.3672V18.1821Z" fill="#F36717"/>
<path d="M85.3047 18.1821H91.3657V12.1211H85.3047V18.1821Z" fill="#F36717"/>
<path d="M97.4258 18.1821H103.485V12.1211H97.4258V18.1821Z" fill="#F36717"/>
<path d="M79.2422 18.1821H85.3032V12.1211H79.2422V18.1821Z" fill="#231F20"/>
<path d="M55 18.1821H61.061V12.1211H55V18.1821Z" fill="#F89C0E"/>
<path d="M48.9414 18.1821H55V12.1211H48.9414V18.1821Z" fill="#F36717"/>
<path d="M61.0625 18.1821H67.1235V12.1211H61.0625V18.1821Z" fill="#231F20"/>
<path d="M36.8203 18.1821H42.8813V12.1211H36.8203V18.1821Z" fill="#231F20"/>
<path d="M42.8828 18.1821H48.9438V12.1211H42.8828V18.1821Z" fill="#F36717"/>
<path d="M206.52 66.6665H212.581V60.6055H206.52V66.6665Z" fill="#F36717"/>
<path d="M206.52 60.6055H212.581V54.5449H206.52V60.6055Z" fill="#F36717"/>
<path d="M206.52 78.7876H212.581V72.7266H206.52V78.7876Z" fill="#F36717"/>
<path d="M206.52 54.5449H212.581V48.4844H206.52V54.5449Z" fill="#F36717"/>
<path d="M206.52 72.7266H212.581V66.668H206.52V72.7266Z" fill="#F36717"/>
<path d="M206.52 84.8481H212.581V78.7876H206.52V84.8481Z" fill="#F36717"/>
<path d="M206.52 30.3032H212.581V24.2422H206.52V30.3032Z" fill="#231F20"/>
<path d="M206.52 48.4833H212.581V42.4238H206.52V48.4833Z" fill="#F36717"/>
<path d="M206.52 42.4238H212.581V36.3633H206.52V42.4238Z" fill="#F36717"/>
<path d="M206.52 36.3618H212.581V30.3008H206.52V36.3618Z" fill="#231F20"/>
<path d="M206.52 96.9692H212.581V90.9082H206.52V96.9692Z" fill="#231F20"/>
<path d="M206.52 90.9072H212.581V84.8481H206.52V90.9072Z" fill="#C84316"/>
<path d="M200.457 96.9692H206.518V90.9082H200.457V96.9692Z" fill="#231F20"/>
<path d="M200.457 200H206.518V193.939H200.457V200Z" fill="#231F20"/>
<path d="M200.457 163.635H206.518V157.574H200.457V163.635Z" fill="#231F20"/>
<path d="M200.457 187.877H206.518V181.816H200.457V187.877Z" fill="#231F20"/>
<path d="M200.457 169.698H206.518V163.637H200.457V169.698Z" fill="#231F20"/>
<path d="M200.457 175.758H206.518V169.698H200.457V175.758Z" fill="#231F20"/>
<path d="M200.457 181.816H206.518V175.758H200.457V181.816Z" fill="#231F20"/>
<path d="M200.457 193.939H206.518V187.879H200.457V193.939Z" fill="#231F20"/>
<path d="M200.457 48.4833H206.518V42.4238H200.457V48.4833Z" fill="#F36717"/>
<path d="M200.457 66.6667H206.518V60.6056H200.457V66.6667Z" fill="#F36717"/>
<path d="M200.457 78.7876H206.518V72.7266H200.457V78.7876Z" fill="#F36717"/>
<path d="M200.457 72.7266H206.518V66.668H200.457V72.7266Z" fill="#F36717"/>
<path d="M200.457 84.8482H206.518V78.7876H200.457V84.8482Z" fill="#F36717"/>
<path d="M200.457 60.6056H206.518V54.5449H200.457V60.6056Z" fill="#F36717"/>
<path d="M200.457 42.4238H206.518V36.3631H200.457V42.4238Z" fill="#F89C0E"/>
<path d="M200.457 90.9072H206.518V84.8482H200.457V90.9072Z" fill="#F36717"/>
<path d="M200.457 54.5449H206.518V48.4844H200.457V54.5449Z" fill="#F36717"/>
<path d="M200.457 36.3618H206.518V30.3008H200.457V36.3618Z" fill="#231F20"/>
<path d="M55 24.2411H61.061V18.1821H55V24.2411Z" fill="#F36717"/>
<path d="M61.0625 24.2411H67.1235V18.1821H61.0625V24.2411Z" fill="#231F20"/>
<path d="M79.2422 24.2411H85.3032V18.1821H79.2422V24.2411Z" fill="#F89C0E"/>
<path d="M48.9414 24.2411H55L55.0009 18.1816L48.9414 18.1821V24.2411Z" fill="#C8C4C3"/>
<path d="M73.1836 24.2411H79.2422L79.2431 18.1816H73.1836V24.2411Z" fill="#231F20"/>
<path d="M30.7617 24.2411H36.8212V18.1816H30.7617V24.2411Z" fill="#231F20"/>
<path d="M42.8828 24.2411H48.9438V18.1821H42.8828V24.2411Z" fill="#F36717"/>
<path d="M36.8212 24.2411H42.8813V18.1821H36.8203L36.8212 24.2411Z" fill="#F89C0E"/>
<path d="M85.3047 24.2411H91.3657V18.1821H85.3047V24.2411Z" fill="#F36717"/>
<path d="M91.3672 24.2411H97.4282V18.1821H91.3672V24.2411Z" fill="#C8C4C3"/>
<path d="M109.547 24.2411H115.608V18.1816H109.547V24.2411Z" fill="#231F20"/>
<path d="M97.4258 24.2411H103.485V18.1821H97.4258V24.2411Z" fill="#F36717"/>
<path d="M103.488 24.2411H109.549V18.1821H103.488V24.2411Z" fill="#F89C0E"/>
<path d="M0.457031 103.03H6.51805V96.9687H0.457031V103.03Z" fill="#231F20"/>
<path d="M0.457031 109.09H6.51805V103.03H0.457031V109.09Z" fill="#231F20"/>
<path d="M0.457031 96.9687H6.51805V90.9082H0.457031V96.9687Z" fill="#231F20"/>
<path d="M103.488 151.514H109.549V145.453H103.488V151.514Z" fill="#231F20"/>
<path d="M145.914 96.9692H151.974V90.9082H145.914V96.9692Z" fill="#F36717"/>
<path d="M145.914 90.9072H151.974V84.8477H145.914V90.9072Z" fill="#231F20"/>
<path d="M109.547 78.7876H115.608V72.7266H109.547V78.7876Z" fill="#231F20"/>
<path d="M145.914 115.149H151.974V109.09H145.914V115.149Z" fill="#F36717"/>
<path d="M145.914 145.454H151.974V139.393H145.914V145.454Z" fill="#C84316"/>
<path d="M145.914 139.392H151.974V133.332H145.914V139.392Z" fill="#F36717"/>
<path d="M145.914 103.03H151.974V96.9692H145.914V103.03Z" fill="#F36717"/>
<path d="M145.914 151.514H151.974V145.454H145.914V151.514Z" fill="#231F20"/>
<path d="M145.914 133.334H151.974V127.273H145.914V133.334Z" fill="#F36717"/>
<path d="M103.488 78.7876H109.549V72.7266H103.488V78.7876Z" fill="#F89C0E"/>
<path d="M145.914 127.272H151.974V121.211H145.914V127.272Z" fill="#F36717"/>
<path d="M145.914 109.09H151.974V103.03H145.914V109.09Z" fill="#F36717"/>
<path d="M145.914 121.211H151.974V115.15H145.914V121.211Z" fill="#F36717"/>
<path d="M55 96.9692H61.061V90.9082H55V96.9692Z" fill="#231F20"/>
<path d="M55 115.149H61.061V109.09H55V115.149Z" fill="white"/>
<path d="M55 121.211H61.061V115.15H55V121.211Z" fill="#D2CFCD"/>
<path d="M55 127.272H61.061V121.211H55V127.272Z" fill="#231F20"/>
<path d="M55 109.09H61.061V103.029H55V109.09Z" fill="white"/>
<path d="M55 103.029H61.061V96.9692H55V103.029Z" fill="white"/>
<path d="M85.3047 78.7876H91.3657V72.7266H85.3047V78.7876Z" fill="#F36717"/>
<path d="M97.4258 78.7876H103.485V72.7266H97.4258V78.7876Z" fill="#F36717"/>
<path d="M79.2422 78.7876H85.3032V72.7266H79.2422V78.7876Z" fill="#F36717"/>
<path d="M55 90.9072H61.061V84.8477H55V90.9072Z" fill="#F36717"/>
<path d="M91.3672 78.7876H97.4282V72.7266H91.3672V78.7876Z" fill="#F36717"/>
<path d="M73.1836 78.7876H79.2422V72.7266H73.1836V78.7876Z" fill="#F36717"/>
<path d="M55 78.7876H61.061V72.7266H55V78.7876Z" fill="#F36717"/>
<path d="M55 84.8477H61.061V78.7876H55V84.8477Z" fill="#F36717"/>
<path d="M67.125 78.7876H73.186V72.7266H67.125V78.7876Z" fill="#F36717"/>
<path d="M61.0625 78.7876H67.1235V72.7266H61.0625V78.7876Z" fill="#231F20"/>
<path d="M61.0625 90.9072H67.1235V84.8477H61.0625V90.9072Z" fill="#F36717"/>
<path d="M61.0625 84.8477H67.1235V78.7876H61.0625V84.8477Z" fill="#F89C0E"/>
<path d="M73.1836 84.8481H79.2431V78.7871L73.1836 78.7876V84.8481Z" fill="#F36717"/>
<path d="M67.125 84.8481H73.186V78.7876H67.125V84.8481Z" fill="#F89C0E"/>
<path d="M61.0625 96.9692H67.1235V90.9082H61.0625V96.9692Z" fill="#F36717"/>
<path d="M61.0625 121.211H67.1235V115.15H61.0625V121.211Z" fill="#231F20"/>
<path d="M79.2431 84.8481H85.3032V78.7876H79.2422L79.2431 84.8481Z" fill="#F36717"/>
<path d="M61.0625 127.272H67.1235V121.211H61.0625V127.272Z" fill="#231F20"/>
<path d="M61.0625 109.09H67.1235V103.029H61.0625V109.09Z" fill="white"/>
<path d="M61.0625 103.029H67.1235V96.9692H61.0625V103.029Z" fill="#231F20"/>
<path d="M61.0625 115.149H67.1235V109.09H61.0625V115.149Z" fill="#D2CFCD"/>
<path d="M115.609 84.8481H121.67V78.7871H115.609V84.8481Z" fill="#231F20"/>
<path d="M85.3047 84.8481H91.3657V78.7876H85.3047V84.8481Z" fill="#F36717"/>
<path d="M121.672 84.8481H127.731V78.7871H121.672V84.8481Z" fill="#231F20"/>
<path d="M109.547 84.8481H115.608V78.7876H109.547V84.8481Z" fill="#F89C0E"/>
<path d="M91.3672 84.8481H97.4282V78.7876H91.3672V84.8481Z" fill="#F36717"/>
<path d="M97.4258 84.8481H103.485V78.7876H97.4258V84.8481Z" fill="#F36717"/>
<path d="M103.488 84.8481H109.549V78.7876H103.488V84.8481Z" fill="#F36717"/>
<path d="M127.731 84.8481H133.791V78.7871H127.731V84.8481Z" fill="#231F20"/>
<path d="M109.547 169.698H115.608V163.637H109.547V169.698Z" fill="#231F20"/>
<path d="M115.609 169.698H121.669V163.637H115.609V169.698Z" fill="#F36717"/>
<path d="M85.3047 169.698H91.3657V163.637H85.3047V169.698Z" fill="white"/>
<path d="M91.3672 169.698H97.4282V163.637H91.3672V169.698Z" fill="white"/>
<path d="M97.4258 169.698H103.485V163.637H97.4258V169.698Z" fill="#231F20"/>
<path d="M121.672 169.698H127.731V163.637H121.672V169.698Z" fill="#231F20"/>
<path d="M79.2422 169.698H85.3032V163.637H79.2422V169.698Z" fill="#231F20"/>
<path d="M48.9414 96.9692H55V90.9082H48.9414V96.9692Z" fill="white"/>
<path d="M48.9414 72.7275H55.0009V66.668H48.9414V72.7275Z" fill="#F36717"/>
<path d="M48.9414 103.03H55.0009V96.9688L48.9414 96.9692V103.03Z" fill="white"/>
<path d="M48.9414 84.8481H55.0009V78.7871H48.9414V84.8481Z" fill="#F36717"/>
<path d="M48.9414 78.7871H55.0009V72.7275H48.9414V78.7871Z" fill="#F36717"/>
<path d="M48.9414 90.9072H55L55.0009 84.8481H48.9414V90.9072Z" fill="#231F20"/>
<path d="M48.9414 109.09H55.0009V103.03H48.9414V109.09Z" fill="#231F20"/>
<path d="M48.9414 127.272H55.0024V121.211H48.9414V127.272Z" fill="#231F20"/>
<path d="M48.9414 121.211L55 121.211V115.15H48.9414V121.211Z" fill="#D2CFCD"/>
<path d="M48.9414 115.149H55L55.0009 109.09H48.9414V115.149Z" fill="white"/>
<path d="M103.488 72.7266H109.549V66.668H103.488V72.7266Z" fill="#231F20"/>
<path d="M85.3047 72.7266H91.3657V66.668H85.3047V72.7266Z" fill="#F36717"/>
<path d="M97.4258 72.7266H103.485V66.668H97.4258V72.7266Z" fill="#F36717"/>
<path d="M91.3672 72.7266H97.4282V66.668H91.3672V72.7266Z" fill="#F36717"/>
<path d="M73.1836 72.7266L79.2431 72.7275V66.668H73.1836V72.7266Z" fill="#F36717"/>
<path d="M67.125 72.7266H73.186V66.668H67.125V72.7266Z" fill="#F36717"/>
<path d="M79.2422 72.7266H85.3032V66.668H79.2431L79.2422 72.7266Z" fill="#F36717"/>
<path d="M55 72.7266H61.061V66.668H55.0009L55 72.7266Z" fill="#F36717"/>
<path d="M61.0625 72.7266H67.1235V66.668H61.0625V72.7266Z" fill="#231F20"/>
<path d="M91.3672 181.817H97.4282V175.758H91.3672V181.817Z" fill="#231F20"/>
<path d="M97.4258 181.817H103.485V175.758H97.4258V181.817Z" fill="#D2CFCD"/>
<path d="M103.488 181.817H109.549V175.758H103.488V181.817Z" fill="#D2CFCD"/>
<path d="M115.609 181.817H121.669V175.758H115.609V181.817Z" fill="white"/>
<path d="M121.672 181.817H127.731V175.758H121.672V181.817Z" fill="#231F20"/>
<path d="M109.547 181.817H115.608V175.758H109.547V181.817Z" fill="#231F20"/>
<path d="M103.488 175.756H109.549V169.695H103.488V175.756Z" fill="#231F20"/>
<path d="M121.672 175.756H127.731V169.695H121.672V175.756Z" fill="#231F20"/>
<path d="M109.547 175.756H115.608V169.695H109.547V175.756Z" fill="#231F20"/>
<path d="M115.609 175.756H121.669V169.695H115.609V175.756Z" fill="#F36717"/>
<path d="M151.973 163.635H158.034V157.574H151.973V163.635Z" fill="#231F20"/>
<path d="M97.4258 175.756H103.485V169.695H97.4258V175.756Z" fill="white"/>
<path d="M91.3672 175.756H97.4282V169.695H91.3672V175.756Z" fill="white"/>
<path d="M85.3047 175.756H91.3657V169.695H85.3047V175.756Z" fill="#231F20"/>
<path d="M151.974 90.9072H158.034V84.8477H151.974V90.9072Z" fill="#231F20"/>
<path d="M151.973 157.574H158.034V151.516H151.973V157.574Z" fill="#231F20"/>
<path d="M151.974 96.9692H158.034V90.9082H151.974V96.9692Z" fill="#F36717"/>
<path d="M151.974 145.454H158.034V139.393H151.974V145.454Z" fill="#231F20"/>
<path d="M151.974 139.392H158.034V133.332H151.974V139.392Z" fill="#C84316"/>
<path d="M151.974 151.514H158.034V145.454L151.973 145.453L151.974 151.514Z" fill="#231F20"/>
<path d="M151.974 103.03H158.034V96.9692L151.973 96.9688L151.974 103.03Z" fill="#F36717"/>
<path d="M151.974 133.334H158.034V127.273H151.974V133.334Z" fill="#F36717"/>
<path d="M151.973 109.09H158.034V103.03L151.973 103.029V109.09Z" fill="#F36717"/>
<path d="M151.974 127.272H158.034V121.211H151.974V127.272Z" fill="#F36717"/>
<path d="M151.974 115.149H158.034V109.09H151.973L151.974 115.149Z" fill="#F36717"/>
<path d="M151.973 121.211L158.034 121.211V115.15H151.974L151.973 121.211Z" fill="#F36717"/>
<path d="M109.547 133.334H115.608V127.273H109.547V133.334Z" fill="#F36717"/>
<path d="M79.2422 103.03H85.3032V96.9688H79.2422V103.03Z" fill="#F36717"/>
<path d="M79.2422 109.09H85.3032V103.03H79.2422V109.09Z" fill="#F36717"/>
<path d="M85.3047 103.03H91.3657V96.9688H85.3047V103.03Z" fill="#F36717"/>
<path d="M91.3672 103.03H97.4282V96.9688H91.3672V103.03Z" fill="#F36717"/>
<path d="M79.2422 115.149H85.3032V109.09H79.2422V115.149Z" fill="#F36717"/>
<path d="M79.2422 121.211H85.3032V115.15H79.2422V121.211Z" fill="#C84316"/>
<path d="M79.2422 127.272H85.3032V121.211H79.2422V127.272Z" fill="#231F20"/>
<path d="M97.4258 103.03H103.485V96.9688H97.4258V103.03Z" fill="#F36717"/>
<path d="M121.672 121.211H127.731V115.15H121.672V121.211Z" fill="#F36717"/>
<path d="M103.488 103.03H109.549V96.9688H103.488V103.03Z" fill="#F36717"/>
<path d="M121.672 127.272H127.731V121.211H121.672V127.272Z" fill="#F36717"/>
<path d="M121.672 139.392H127.731V133.332H121.672V139.392Z" fill="#F36717"/>
<path d="M121.672 133.334H127.731V127.273H121.672V133.334Z" fill="#F36717"/>
<path d="M121.672 115.149H127.731V109.09H121.672V115.149Z" fill="#F36717"/>
<path d="M109.547 103.03H115.608V96.9688H109.547V103.03Z" fill="#F36717"/>
<path d="M115.609 103.03H121.67V96.9688H115.609V103.03Z" fill="#F36717"/>
<path d="M121.672 103.03H127.731V96.9688H121.672V103.03Z" fill="#F36717"/>
<path d="M121.672 109.09H127.731V103.03H121.672V109.09Z" fill="#F36717"/>
<path d="M127.731 133.334H133.791V127.273H127.731V133.334Z" fill="#F36717"/>
<path d="M127.731 121.211H133.791V115.15H127.731V121.211Z" fill="#F36717"/>
<path d="M127.731 115.149H133.791V109.09H127.731V115.149Z" fill="#F36717"/>
<path d="M127.731 127.272H133.791V121.211L127.73 121.211L127.731 127.272Z" fill="#F36717"/>
<path d="M127.73 109.09L133.791 109.09V103.029H127.73V109.09Z" fill="#F36717"/>
<path d="M121.672 145.454H127.731V139.393H121.672V145.454Z" fill="#F36717"/>
<path d="M85.3047 145.454H91.3657V139.393H85.3047V145.454Z" fill="#231F20"/>
<path d="M139.852 90.9072H145.913V84.8477H139.852V90.9072Z" fill="#231F20"/>
<path d="M127.73 103.029H133.791V96.9688H127.731L127.73 103.029Z" fill="#F36717"/>
<path d="M121.672 96.9688H127.731V90.9082H121.672V96.9688Z" fill="#F36717"/>
<path d="M127.73 96.9692L133.791 96.9688V90.9082H127.731L127.73 96.9692Z" fill="#F36717"/>
<path d="M115.609 96.9688H121.67V90.9082H115.609V96.9688Z" fill="#F36717"/>
<path d="M97.4258 151.514H103.485V145.453H97.4258V151.514Z" fill="#C84316"/>
<path d="M91.3672 151.514H97.4282V145.453H91.3672V151.514Z" fill="#F36717"/>
<path d="M85.3047 151.514H91.3657V145.454H85.3047V151.514Z" fill="#231F20"/>
<path d="M127.731 145.454H133.791V139.393H127.731V145.454Z" fill="#C84316"/>
<path d="M121.672 151.514H127.731V145.454H121.672V151.514Z" fill="#C84316"/>
<path d="M127.731 151.514H133.791V145.454L127.73 145.453L127.731 151.514Z" fill="#231F20"/>
<path d="M115.609 151.514H121.669V145.453H115.609V151.514Z" fill="#F36717"/>
<path d="M109.547 151.514H115.608V145.453H109.547V151.514Z" fill="#C84316"/>
<path d="M115.609 145.453H121.669V139.393H115.609V145.453Z" fill="#F36717"/>
<path d="M91.3672 127.272H97.4282V121.211H91.3672V127.272Z" fill="#C84316"/>
<path d="M91.3672 121.211H97.4282V115.15H91.3672V121.211Z" fill="#C84316"/>
<path d="M109.547 96.9688H115.608V90.9082H109.547V96.9688Z" fill="#F36717"/>
<path d="M91.3672 115.149H97.4282V109.09H91.3672V115.149Z" fill="#F36717"/>
<path d="M91.3672 133.334H97.4282V127.273H91.3672V133.334Z" fill="#C84316"/>
<path d="M103.488 115.149H109.549V109.09H103.488V115.149Z" fill="#F36717"/>
<path d="M109.547 139.392H115.608V133.332H109.547V139.392Z" fill="#F36717"/>
<path d="M115.609 139.392H121.669V133.332H115.609V139.392Z" fill="#F36717"/>
<path d="M103.488 139.392H109.549V133.332H103.488V139.392Z" fill="#F36717"/>
<path d="M97.4258 139.392H103.485V133.332H97.4258V139.392Z" fill="#C84316"/>
<path d="M97.4258 133.334H103.485V127.273H97.4258V133.334Z" fill="#C84316"/>
<path d="M103.488 127.272H109.549V121.211H103.488V127.272Z" fill="#F36717"/>
<path d="M97.4258 127.272H103.485V121.211H97.4258V127.272Z" fill="#F36717"/>
<path d="M97.4258 121.211H103.485V115.15H97.4258V121.211Z" fill="#C84316"/>
<path d="M103.488 121.211H109.549V115.15H103.488V121.211Z" fill="#F36717"/>
<path d="M109.547 115.149H115.608V109.09H109.547V115.149Z" fill="#F36717"/>
<path d="M109.547 127.272H115.608V121.211H109.547V127.272Z" fill="#F36717"/>
<path d="M103.488 133.334H109.549V127.273H103.488V133.334Z" fill="#F36717"/>
<path d="M109.547 121.211H115.608V115.15H109.547V121.211Z" fill="#F36717"/>
<path d="M97.4258 115.149H103.485V109.09H97.4258V115.149Z" fill="#C84316"/>
<path d="M85.3047 133.334H91.3657V127.273H85.3047V133.334Z" fill="#231F20"/>
<path d="M91.3672 139.392H97.4282V133.332H91.3672V139.392Z" fill="#231F20"/>
<path d="M85.3047 127.272H91.3657V121.211H85.3047V127.272Z" fill="#A83712"/>
<path d="M85.3047 121.211H91.3657V115.15H85.3047V121.211Z" fill="#C84316"/>
<path d="M91.3672 145.453H97.4282V139.393H91.3672V145.453Z" fill="#F89C0E"/>
<path d="M103.488 145.453H109.549V139.393H103.488V145.453Z" fill="#C84316"/>
<path d="M109.547 145.453H115.608V139.393H109.547V145.453Z" fill="#F36717"/>
<path d="M85.3047 115.149H91.3657V109.09H85.3047V115.149Z" fill="#F36717"/>
<path d="M97.4258 145.453H103.485V139.393H97.4258V145.453Z" fill="#231F20"/>
<path d="M103.488 109.09H109.549V103.03H103.488V109.09Z" fill="#C84316"/>
<path d="M115.609 109.09H121.67V103.03H115.609V109.09Z" fill="#F36717"/>
<path d="M115.609 121.211H121.669V115.15H115.609V121.211Z" fill="#F36717"/>
<path d="M115.609 115.149H121.669V109.09L115.609 109.09V115.149Z" fill="#F36717"/>
<path d="M115.609 127.272H121.669V121.211H115.609V127.272Z" fill="#F36717"/>
<path d="M97.4258 109.09H103.485V103.03H97.4258V109.09Z" fill="#F36717"/>
<path d="M91.3672 109.09H97.4282V103.03H91.3672V109.09Z" fill="#F36717"/>
<path d="M85.3047 109.09H91.3657V103.03H85.3047V109.09Z" fill="#F36717"/>
<path d="M109.547 109.09H115.608V103.03H109.547V109.09Z" fill="#F36717"/>
<path d="M115.609 133.334H121.669V127.273H115.609V133.334Z" fill="#F36717"/>
<path d="M127.731 139.392H133.791V133.332H127.731V139.392Z" fill="#F36717"/>
<path d="M67.125 127.272H73.186V121.211H67.125V127.272Z" fill="#231F20"/>
<path d="M73.1836 163.635H79.2431V157.574H73.1836V163.635Z" fill="#231F20"/>
<path d="M67.125 121.211H73.186V115.15H67.125V121.211Z" fill="#A83712"/>
<path d="M79.2431 163.635H85.3032V157.574H79.2431V163.635Z" fill="#F89C0E"/>
<path d="M79.2422 90.9072H85.3032V84.8481L79.2422 84.8477V90.9072Z" fill="#F36717"/>
<path d="M85.3047 163.635H91.3657V157.574H85.3047V163.635Z" fill="#C84316"/>
<path d="M85.3047 90.9072H91.3657V84.8481H85.3047V90.9072Z" fill="#F36717"/>
<path d="M91.3672 90.9072H97.4282V84.8481H91.3672V90.9072Z" fill="#F36717"/>
<path d="M73.1836 90.9072H79.2422L79.2431 84.8481H73.1836V90.9072Z" fill="#F36717"/>
<path d="M67.125 96.9692H73.186V90.9082H67.125V96.9692Z" fill="#F36717"/>
<path d="M67.125 90.9072H73.186V84.8481H67.125V90.9072Z" fill="#F36717"/>
<path d="M67.125 103.03H73.186V96.9692H67.125V103.03Z" fill="#F36717"/>
<path d="M67.125 109.09H73.186V103.03H67.125V109.09Z" fill="#231F20"/>
<path d="M67.125 115.149H73.186V109.09H67.125V115.149Z" fill="#231F20"/>
<path d="M91.3672 163.635H97.4282V157.574H91.3672V163.635Z" fill="#231F20"/>
<path d="M139.852 127.272H145.913V121.211H139.852V127.272Z" fill="#F36717"/>
<path d="M139.852 121.211H145.913V115.15H139.852V121.211Z" fill="#F36717"/>
<path d="M139.852 133.334H145.913V127.273H139.852V133.334Z" fill="#F36717"/>
<path d="M139.852 139.392H145.913V133.332H139.852V139.392Z" fill="#F36717"/>
<path d="M97.4258 90.9072H103.485V84.8481H97.4258V90.9072Z" fill="#F36717"/>
<path d="M139.852 109.09H145.913V103.029H139.852V109.09Z" fill="#F36717"/>
<path d="M139.852 115.149H145.913V109.09H139.852V115.149Z" fill="#F36717"/>
<path d="M139.852 103.029H145.913V96.9688H139.852V103.029Z" fill="#F36717"/>
<path d="M139.852 96.9688H145.913V90.9082H139.852V96.9688Z" fill="#F36717"/>
<path d="M139.852 151.514H145.913V145.453H139.852V151.514Z" fill="#231F20"/>
<path d="M139.852 145.453H145.913V139.393H139.852V145.453Z" fill="#C84316"/>
<path d="M109.547 163.635H115.608V157.574H109.547V163.635Z" fill="#231F20"/>
<path d="M115.609 163.635H121.669V157.574H115.609V163.635Z" fill="#F36717"/>
<path d="M121.672 163.635H127.731V157.574H121.672V163.635Z" fill="#231F20"/>
<path d="M103.488 90.9072H109.549V84.8481H103.488V90.9072Z" fill="#F36717"/>
<path d="M103.488 96.9688H109.549V90.9082H103.488V96.9688Z" fill="#F36717"/>
<path d="M85.3047 157.574H91.3657V151.516H85.3047V157.574Z" fill="#F89C0E"/>
<path d="M91.3672 157.574H97.4282V151.516H91.3672V157.574Z" fill="#C84316"/>
<path d="M97.4258 157.575H103.485V151.516H97.4258V157.575Z" fill="#231F20"/>
<path d="M79.2422 157.575L85.3032 157.574V151.516H79.2422V157.575Z" fill="#231F20"/>
<path d="M73.1836 127.272H79.2422L79.2431 121.211H73.1836V127.272Z" fill="#231F20"/>
<path d="M73.1836 115.149H79.2422L79.2431 109.09H73.1836V115.149Z" fill="#C84316"/>
<path d="M73.1836 121.211H79.2431L79.2422 115.15H73.1836V121.211Z" fill="#C84316"/>
<path d="M85.3047 96.9688H91.3657V90.9082H85.3047V96.9688Z" fill="#F36717"/>
<path d="M91.3672 96.9688H97.4282V90.9082H91.3672V96.9688Z" fill="#F36717"/>
<path d="M97.4258 96.9688H103.485V90.9082H97.4258V96.9688Z" fill="#F36717"/>
<path d="M79.2422 96.9688H85.3032V90.9082H79.2422V96.9688Z" fill="#F36717"/>
<path d="M73.1836 109.09H79.2431V103.029H73.1836V109.09Z" fill="#F36717"/>
<path d="M73.1836 96.9692H79.2431L79.2422 90.9082H73.1836V96.9692Z" fill="#F36717"/>
<path d="M73.1836 103.029H79.2431V96.9692H73.1836V103.029Z" fill="#F36717"/>
<path d="M133.789 103.03H139.85V96.9688H133.789V103.03Z" fill="#F36717"/>
<path d="M133.789 96.9688H139.85V90.9082H133.789V96.9688Z" fill="#F36717"/>
<path d="M133.789 115.149H139.85V109.09H133.789V115.149Z" fill="#F36717"/>
<path d="M133.789 109.09H139.85V103.03H133.789V109.09Z" fill="#F36717"/>
<path d="M133.789 90.9072H139.85V84.8477H133.789V90.9072Z" fill="#231F20"/>
<path d="M109.547 157.574H115.608V151.516H109.547V157.574Z" fill="#231F20"/>
<path d="M109.547 90.9072H115.608V84.8481H109.547V90.9072Z" fill="#F36717"/>
<path d="M115.609 90.9072H121.67V84.8481H115.609V90.9072Z" fill="#F89C0E"/>
<path d="M127.73 90.9072H133.791V84.8481L127.73 84.8477V90.9072Z" fill="#F89C0E"/>
<path d="M121.672 90.9072H127.73L127.731 84.8481H121.672V90.9072Z" fill="#F89C0E"/>
<path d="M133.789 121.211H139.85V115.15H133.789V121.211Z" fill="#F36717"/>
<path d="M121.672 157.574H127.731V151.516H121.672V157.574Z" fill="#231F20"/>
<path d="M133.789 127.272H139.85V121.211H133.789V127.272Z" fill="#F36717"/>
<path d="M115.609 157.574H121.669V151.516H115.609V157.574Z" fill="#F36717"/>
<path d="M133.789 139.392H139.85V133.332H133.789V139.392Z" fill="#F36717"/>
<path d="M133.789 151.514H139.85V145.453H133.789V151.514Z" fill="#231F20"/>
<path d="M133.789 133.334H139.85V127.273H133.789V133.334Z" fill="#F36717"/>
<path d="M133.789 145.453H139.85V139.393H133.789V145.453Z" fill="#C84316"/>
<path d="M121.672 200H127.731V193.939H121.672V200Z" fill="#231F20"/>
<path d="M30.7617 121.211H36.8212V115.15H30.7617V121.211Z" fill="#D2CFCD"/>
<path d="M30.7617 115.149H36.8212V109.09H30.7617V115.149Z" fill="#231F20"/>
<path d="M30.7617 109.09H36.8212V103.029H30.7617V109.09Z" fill="white"/>
<path d="M30.7617 103.029L36.8227 103.03V96.9688H30.7617V103.029Z" fill="white"/>
<path d="M30.7617 127.272H36.8212V121.211H30.7617V127.272Z" fill="#231F20"/>
<path d="M30.7617 54.5454H36.8212V48.4844H30.7617V54.5454Z" fill="#231F20"/>
<path d="M30.7617 60.6059H36.8212V54.5454H30.7617V60.6059Z" fill="#231F20"/>
<path d="M36.8212 54.5454H42.8813V48.4844H36.8212V54.5454Z" fill="#F36717"/>
<path d="M42.8828 54.5454H48.9438V48.4844H42.8828V54.5454Z" fill="#231F20"/>
<path d="M30.7617 96.9688H36.8227V90.9082H30.7617V96.9688Z" fill="white"/>
<path d="M30.7617 90.9072H36.8227V84.8477H30.7617V90.9072Z" fill="#231F20"/>
<path d="M30.7617 84.8477H36.8227V78.7871H30.7617V84.8477Z" fill="#F36717"/>
<path d="M30.7617 72.7275H36.8212V66.668H30.7617V72.7275Z" fill="#231F20"/>
<path d="M30.7617 78.7871L36.8212 78.7876V72.7275H30.7617V78.7871Z" fill="#F89C0E"/>
<path d="M109.547 200H115.608V193.939H109.547V200Z" fill="#231F20"/>
<path d="M115.609 200H121.669V193.939H115.609V200Z" fill="#231F20"/>
<path d="M48.9414 54.5454H55.0024V48.4844H48.9414V54.5454Z" fill="#F89C0E"/>
<path d="M30.7617 66.6665H36.8212V60.6059H30.7617V66.6665Z" fill="#231F20"/>
<path d="M170.152 96.9692H176.213V90.9082H170.152V96.9692Z" fill="#F36717"/>
<path d="M170.152 103.03H176.213V96.9692H170.152V103.03Z" fill="#F36717"/>
<path d="M170.152 109.09H176.213V103.03H170.152V109.09Z" fill="#F36717"/>
<path d="M170.152 127.272H176.213V121.211H170.152V127.272Z" fill="#F36717"/>
<path d="M170.152 115.149H176.213V109.09H170.152V115.149Z" fill="#F36717"/>
<path d="M170.152 121.211H176.213V115.15H170.152V121.211Z" fill="#F36717"/>
<path d="M170.152 90.9072H176.213V84.8477H170.152V90.9072Z" fill="#F89C0E"/>
<path d="M170.152 84.8477H176.213V78.7871H170.152V84.8477Z" fill="#231F20"/>
<path d="M170.152 175.756H176.213V169.695H170.152V175.756Z" fill="#C84316"/>
<path d="M170.152 169.698H176.213V163.637H170.152V169.698Z" fill="#9E3410"/>
<path d="M170.152 163.635H176.213V157.574H170.152V163.635Z" fill="#231F20"/>
<path d="M170.152 181.817H176.213V175.758H170.152V181.817Z" fill="white"/>
<path d="M170.152 139.392H176.213V133.332H170.152V139.392Z" fill="#F36717"/>
<path d="M170.152 145.454H176.213V139.393H170.152V145.454Z" fill="#C84316"/>
<path d="M170.152 157.574H176.213V151.516H170.152V157.574Z" fill="#231F20"/>
<path d="M170.152 133.334H176.213V127.273H170.152V133.334Z" fill="#F36717"/>
<path d="M85.3047 54.5454H91.3657V48.4844H85.3047V54.5454Z" fill="#F36717"/>
<path d="M91.3672 54.5454H97.4282V48.4844H91.3672V54.5454Z" fill="#F36717"/>
<path d="M103.488 54.5454H109.549V48.4844H103.488V54.5454Z" fill="#231F20"/>
<path d="M97.4258 54.5454H103.487V48.4844H97.4258V54.5454Z" fill="#F36717"/>
<path d="M67.125 54.5454H73.186V48.4844H67.125V54.5454Z" fill="#F36717"/>
<path d="M79.2422 54.5454H85.3032V48.4844H79.2422V54.5454Z" fill="#F36717"/>
<path d="M73.1836 54.5454H79.2422V48.4844H73.1836V54.5454Z" fill="#F36717"/>
<path d="M61.0625 54.5454H67.1235V48.4844H61.0625V54.5454Z" fill="#F36717"/>
<path d="M55.0039 54.5454H61.0649V48.4844H55.0039V54.5454Z" fill="#F89C0E"/>
<path d="M42.8828 48.4833H48.9438V42.4243H42.8828V48.4833Z" fill="#F36717"/>
<path d="M36.8203 48.4833H42.8813V42.4243H36.8203V48.4833Z" fill="#F36717"/>
<path d="M55 48.4833H61.061V42.4243L55 42.4238V48.4833Z" fill="#231F20"/>
<path d="M30.7617 48.4833H36.8203L36.8212 42.4238L30.7617 42.4243V48.4833Z" fill="#231F20"/>
<path d="M48.9414 48.4833H55L55.0009 42.4243H48.9414V48.4833Z" fill="#231F20"/>
<path d="M97.4258 48.4833H103.485V42.4243H97.4258V48.4833Z" fill="#F36717"/>
<path d="M103.488 48.4833H109.549V42.4243H103.488V48.4833Z" fill="#F36717"/>
<path d="M109.547 48.4833H115.608V42.4243H109.547V48.4833Z" fill="#231F20"/>
<path d="M91.3672 48.4833H97.4282V42.4243H91.3672V48.4833Z" fill="#F36717"/>
<path d="M67.125 48.4833H73.186V42.4243H67.125V48.4833Z" fill="#F89C0E"/>
<path d="M73.1836 48.4833H79.2446V42.4238L73.1836 42.4243V48.4833Z" fill="#F36717"/>
<path d="M79.2461 48.4833H85.3071V42.4238H79.2461V48.4833Z" fill="#F36717"/>
<path d="M85.3047 48.4833H91.3657V42.4243H85.3047V48.4833Z" fill="#F36717"/>
<path d="M170.152 187.877H176.213V181.817H170.152V187.877Z" fill="white"/>
<path d="M24.6992 78.7876H30.7602V72.7266H24.6992V78.7876Z" fill="#231F20"/>
<path d="M24.6992 103.03H30.7602V96.9687H24.6992V103.03Z" fill="white"/>
<path d="M24.6992 96.9687H30.7602L30.7602 90.9082H24.6992L24.6992 96.9687Z" fill="#231F20"/>
<path d="M24.6992 90.9072H30.7602V84.8477H24.6992V90.9072Z" fill="#231F20"/>
<path d="M24.6992 84.8477H30.7602V78.7876H24.6992V84.8477Z" fill="#F89C0E"/>
<path d="M24.6992 109.09H30.7602L30.7602 103.03H24.6992L24.6992 109.09Z" fill="white"/>
<path d="M24.6992 121.211H30.7602V115.15H24.6992V121.211Z" fill="#D2CFCD"/>
<path d="M24.6992 127.272H30.7602L30.7602 121.211H24.6992L24.6992 127.272Z" fill="#231F20"/>
<path d="M24.6992 115.15H30.7602L30.7602 109.09H24.6992L24.6992 115.15Z" fill="#231F20"/>
<path d="M61.0625 48.4833H67.122V42.4238L61.0625 42.4243V48.4833Z" fill="#F89C0E"/>
<path d="M176.215 163.635H182.276V157.574H176.215V163.635Z" fill="#231F20"/>
<path d="M176.215 157.574H182.276V151.516H176.215V157.574Z" fill="#C84316"/>
<path d="M176.215 169.698H182.276V163.637H176.215V169.698Z" fill="#231F20"/>
<path d="M176.215 181.817H182.276V175.758H176.215V181.817Z" fill="#231F20"/>
<path d="M176.215 175.758H182.276V169.698H176.215V175.758Z" fill="#231F20"/>
<path d="M176.215 187.877H182.276V181.817H176.215V187.877Z" fill="#231F20"/>
<path d="M176.215 127.272H182.276V121.211H176.215V127.272Z" fill="#F36717"/>
<path d="M176.215 139.392H182.276V133.332H176.215V139.392Z" fill="#F36717"/>
<path d="M176.215 151.514H182.276V145.453H176.215V151.514Z" fill="#F36717"/>
<path d="M176.215 145.453H182.276V139.393H176.215V145.453Z" fill="#F36717"/>
<path d="M176.215 133.332H182.276V127.272H176.215V133.332Z" fill="#F36717"/>
<path d="M176.215 193.94H182.276V187.879H176.215V193.94Z" fill="#231F20"/>
<path d="M176.215 200H182.276V193.94H176.215V200Z" fill="#231F20"/>
<path d="M170.152 200H176.213V193.939H170.152V200Z" fill="#231F20"/>
<path d="M164.094 200H170.152V193.939H164.094V200Z" fill="#231F20"/>
<path d="M176.215 121.211H182.276V115.15H176.215V121.211Z" fill="#F36717"/>
<path d="M176.215 109.09H182.276V103.029H176.215V109.09Z" fill="#F36717"/>
<path d="M176.215 96.9692H182.276V90.9082H176.215V96.9692Z" fill="#F36717"/>
<path d="M176.215 115.15H182.276V109.09H176.215V115.15Z" fill="#F36717"/>
<path d="M176.215 103.029H182.276V96.9692H176.215V103.029Z" fill="#F36717"/>
<path d="M176.215 84.8482H182.276V78.7872H176.215V84.8482Z" fill="#231F20"/>
<path d="M176.215 90.9072H182.276V84.8482H176.215V90.9072Z" fill="#F89C0E"/>
<path d="M170.152 151.514H176.213V145.454H170.152V151.514Z" fill="#C84316"/>
<path d="M42.8828 90.9072H48.9438V84.8477H42.8828V90.9072Z" fill="#231F20"/>
<path d="M42.8828 84.8477H48.9438V78.7871H42.8828V84.8477Z" fill="#F89C0E"/>
<path d="M42.8828 96.9692H48.9438V90.9082H42.8828V96.9692Z" fill="white"/>
<path d="M42.8828 72.7275H48.9438V66.668H42.8828V72.7275Z" fill="#231F20"/>
<path d="M42.8828 78.7871H48.9438V72.7275H42.8828V78.7871Z" fill="#231F20"/>
<path d="M42.8828 121.211H48.9438V115.15H42.8828V121.211Z" fill="#D2CFCD"/>
<path d="M42.8828 115.149H48.9438V109.09H42.8828V115.149Z" fill="#231F20"/>
<path d="M42.8828 103.03H48.9438V96.9692H42.8828V103.03Z" fill="white"/>
<path d="M42.8828 127.272H48.9438V121.211H42.8828V127.272Z" fill="#231F20"/>
<path d="M42.8828 109.09H48.9438V103.03H42.8828V109.09Z" fill="white"/>
<path d="M121.672 187.877H127.731V181.817H121.672V187.877Z" fill="#231F20"/>
<path d="M42.8828 66.6665H48.9423V60.6055H42.8828V66.6665Z" fill="#F36717"/>
<path d="M164.094 181.817H170.152V175.758H164.094V181.817Z" fill="#231F20"/>
<path d="M115.609 187.877H121.669V181.817H115.609V187.877Z" fill="white"/>
<path d="M164.094 187.877H170.152L170.153 181.816L164.094 181.817V187.877Z" fill="#231F20"/>
<path d="M97.4258 187.877H103.485V181.817H97.4258V187.877Z" fill="#231F20"/>
<path d="M103.488 187.877H109.549V181.817H103.488V187.877Z" fill="#231F20"/>
<path d="M109.547 187.877H115.608V181.817H109.547V187.877Z" fill="#231F20"/>
<path d="M158.031 115.149H164.092V109.09H158.031V115.149Z" fill="#F36717"/>
<path d="M164.094 175.756H170.152V169.695H164.094V175.756Z" fill="#231F20"/>
<path d="M158.031 127.272H164.092V121.211H158.031V127.272Z" fill="#F36717"/>
<path d="M48.9423 66.6665H55.0009V60.6055H48.9423V66.6665Z" fill="#F36717"/>
<path d="M158.031 133.334H164.092V127.273H158.031V133.334Z" fill="#F36717"/>
<path d="M158.031 145.454H164.092V139.393H158.031V145.454Z" fill="#231F20"/>
<path d="M158.031 139.392H164.092V133.332H158.031V139.392Z" fill="#C84316"/>
<path d="M158.031 90.9072H164.092V84.8477H158.031V90.9072Z" fill="#F89C0E"/>
<path d="M158.031 109.09H164.092V103.029H158.031V109.09Z" fill="#F36717"/>
<path d="M158.031 96.9692H164.092V90.9082H158.031V96.9692Z" fill="#F36717"/>
<path d="M158.031 84.8477H164.092V78.7871H158.031V84.8477Z" fill="#231F20"/>
<path d="M158.031 103.029H164.092V96.9692H158.031V103.029Z" fill="#F36717"/>
<path d="M170.152 193.939H176.213V187.879H170.152V193.939Z" fill="#D2CFCD"/>
<path d="M158.031 157.575H164.092V151.516H158.031V157.575Z" fill="#C84316"/>
<path d="M158.031 163.635H164.092V157.575H158.031V163.635Z" fill="#C84316"/>
<path d="M158.031 151.514H164.092V145.454H158.031V151.514Z" fill="#9E3410"/>
<path d="M158.031 121.211H164.092V115.15H158.031V121.211Z" fill="#F36717"/>
<path d="M85.3047 66.6665H91.3657V60.6055H85.3047V66.6665Z" fill="#F36717"/>
<path d="M79.2422 66.6665H85.3032V60.6055H79.2422V66.6665Z" fill="#F36717"/>
<path d="M91.3672 66.6665H97.4282V60.6055H91.3672V66.6665Z" fill="#F36717"/>
<path d="M103.488 66.6665H109.549V60.6055H103.488V66.6665Z" fill="#231F20"/>
<path d="M97.4258 66.6665H103.485V60.6055H97.4258V66.6665Z" fill="#F36717"/>
<path d="M61.0625 66.6665H67.1235V60.6055H61.0625V66.6665Z" fill="#F36717"/>
<path d="M73.1836 66.6665H79.2422V60.6055H73.1836V66.6665Z" fill="#F36717"/>
<path d="M55.0009 66.6665H61.061V60.6055H55.0009V66.6665Z" fill="#F36717"/>
<path d="M67.125 66.6665H73.186V60.6055H67.125V66.6665Z" fill="#F36717"/>
<path d="M158.031 169.698H164.092V163.637H158.031V169.698Z" fill="#231F20"/>
<path d="M36.8212 78.7876H42.8798V72.7266H36.8203L36.8212 78.7876Z" fill="#F36717"/>
<path d="M36.8203 103.03H42.8813V96.9688H36.8203V103.03Z" fill="white"/>
<path d="M36.8203 90.9072H42.8813V84.8477H36.8203V90.9072Z" fill="#231F20"/>
<path d="M36.8203 84.8477H42.8813V78.7871H36.8203V84.8477Z" fill="#F89C0E"/>
<path d="M36.8203 96.9688H42.8813V90.9082H36.8203V96.9688Z" fill="white"/>
<path d="M36.8212 121.211H42.8813V115.15H36.8212V121.211Z" fill="#D2CFCD"/>
<path d="M36.8203 109.09H42.8813V103.03H36.8203V109.09Z" fill="white"/>
<path d="M36.8212 127.272H42.8813V121.211L36.8203 121.211L36.8212 127.272Z" fill="#231F20"/>
<path d="M36.8212 115.149H42.8813V109.09H36.8203L36.8212 115.149Z" fill="#231F20"/>
<path d="M121.672 193.939H127.731V187.879H121.672V193.939Z" fill="#231F20"/>
<path d="M115.609 193.939H121.669V187.879H115.609V193.939Z" fill="#E7E3E2"/>
<path d="M164.094 193.939L170.153 193.94L170.152 187.879H164.094V193.939Z" fill="#231F20"/>
<path d="M109.547 193.939H115.608V187.879H109.547V193.939Z" fill="#231F20"/>
<path d="M42.8828 60.6055H48.9423V54.5449L42.8828 54.5454V60.6055Z" fill="#F89C0E"/>
<path d="M164.094 84.8481H170.153L170.152 78.7871H164.094V84.8481Z" fill="#231F20"/>
<path d="M164.094 90.9072H170.152L170.153 84.8481H164.094V90.9072Z" fill="#F89C0E"/>
<path d="M164.094 103.03H170.152L170.153 96.9688H164.094V103.03Z" fill="#F36717"/>
<path d="M164.094 109.09H170.152L170.153 103.029L164.094 103.03V109.09Z" fill="#F36717"/>
<path d="M164.094 96.9688H170.153L170.152 90.9082H164.094V96.9688Z" fill="#F36717"/>
<path d="M164.094 145.454H170.152V139.393H164.094V145.454Z" fill="#231F20"/>
<path d="M164.094 157.575H170.153L170.152 151.516H164.094V157.575Z" fill="#9E3410"/>
<path d="M164.094 151.514H170.152L170.153 145.453L164.094 145.454V151.514Z" fill="#231F20"/>
<path d="M164.094 163.635H170.152L170.153 157.575H164.094V163.635Z" fill="#C84316"/>
<path d="M164.094 127.272H170.152V121.211H164.094V127.272Z" fill="#F36717"/>
<path d="M164.094 121.211L170.153 121.211L170.152 115.15H164.094V121.211Z" fill="#F36717"/>
<path d="M164.094 115.149H170.152L170.153 109.09L164.094 109.09V115.149Z" fill="#F36717"/>
<path d="M164.094 139.392H170.152V133.332H164.094V139.392Z" fill="#C84316"/>
<path d="M164.094 133.334H170.152V127.273H164.094V133.334Z" fill="#F36717"/>
<path d="M91.3672 60.6055H97.4282V54.5454H91.3672V60.6055Z" fill="#F36717"/>
<path d="M61.0625 60.6055H67.1235V54.5454H61.0625V60.6055Z" fill="#F36717"/>
<path d="M67.125 60.6055H73.186V54.5454H67.125V60.6055Z" fill="#F36717"/>
<path d="M55 60.6059L61.061 60.6055V54.5449H55V60.6059Z" fill="#F36717"/>
<path d="M73.1836 60.6055L79.2431 60.6059V54.5449L73.1836 54.5454V60.6055Z" fill="#F36717"/>
<path d="M79.2422 60.6055H85.3032V54.5454H79.2422V60.6055Z" fill="#F36717"/>
<path d="M85.3047 60.6055H91.3657V54.5454H85.3047V60.6055Z" fill="#F36717"/>
<path d="M36.8212 66.6665H42.8813V60.6055H36.8203L36.8212 66.6665Z" fill="#F36717"/>
<path d="M48.9414 60.6059L55.0009 60.6055L55 54.5449L48.9414 54.5454V60.6059Z" fill="#F36717"/>
<path d="M36.8203 60.6055H42.8813V54.5454L36.8203 54.5449V60.6055Z" fill="#F36717"/>
<path d="M164.094 169.698H170.152V163.637H164.094V169.698Z" fill="#C84316"/>
<path d="M97.4258 60.6055H103.485V54.5449L97.4258 54.5454V60.6055Z" fill="#F36717"/>
<path d="M103.488 60.6055H109.549V54.5454H103.488V60.6055Z" fill="#231F20"/>
<path d="M36.8203 72.7266H42.8798V66.668H36.8212L36.8203 72.7266Z" fill="#F36717"/>
<path d="M242.883 36.3618H248.944V30.3008H242.883V36.3618Z" fill="#231F20"/>
<path d="M97.4258 6.05951H103.485V0H97.4258V6.05951Z" fill="#231F20"/>
<path d="M91.3672 6.05951H97.4282V0H91.3672V6.05951Z" fill="#231F20"/>
<path d="M85.3047 6.05951H91.3657V0H85.3047V6.05951Z" fill="#231F20"/>
<path d="M48.9414 6.05951H55.0009V0H48.9414V6.05951Z" fill="#231F20"/>
<path d="M42.8828 6.05951H48.9438V0H42.8828V6.05951Z" fill="#231F20"/>
<path d="M224.699 60.6059H230.759V54.5449H224.699V60.6059Z" fill="#231F20"/>
<path d="M224.699 78.7876H230.759V72.7266H224.699V78.7876Z" fill="#231F20"/>
<path d="M224.699 72.7266H230.759V66.668H224.699V72.7266Z" fill="#231F20"/>
<path d="M224.699 54.5449H230.759V48.4844H224.699V54.5449Z" fill="#231F20"/>
<path d="M224.699 48.4833H230.759V42.4238H224.699V48.4833Z" fill="#231F20"/>
<path d="M224.699 66.6667H230.759L230.759 60.6059H224.699L224.699 66.6667Z" fill="#231F20"/>
<path d="M224.699 42.4238H230.759L230.759 36.3631H224.699L224.699 42.4238Z" fill="#D2CFCD"/>
<path d="M224.699 24.241H230.759V18.1815H224.699V24.241Z" fill="#231F20"/>
<path d="M224.699 30.3013H230.759L230.759 24.241H224.699L224.699 30.3013Z" fill="white"/>
<path d="M224.699 36.3618H230.759V30.3013H224.699V36.3618Z" fill="white"/>
<path d="M36.8203 12.1196H42.8813V6.05859H36.8203V12.1196Z" fill="#231F20"/>
<path d="M42.8828 12.1196H48.9438V6.05951H42.8828V12.1196Z" fill="#F89C0E"/>
<path d="M55 12.1196H61.061V6.05859H55V12.1196Z" fill="#231F20"/>
<path d="M48.9414 12.1196H55L55.0009 6.05951H48.9414V12.1196Z" fill="#F89C0E"/>
<path d="M212.578 24.2411H218.638V18.1816H212.578V24.2411Z" fill="#231F20"/>
<path d="M212.578 36.3618H218.638V30.3008H212.578V36.3618Z" fill="white"/>
<path d="M212.578 42.4243H218.638V36.3633H212.578V42.4243Z" fill="#231F20"/>
<path d="M212.578 48.4833H218.638V42.4243H212.578V48.4833Z" fill="#F36717"/>
<path d="M212.578 54.5454H218.638V48.4844H212.578V54.5454Z" fill="#F36717"/>
<path d="M212.578 30.3032H218.638V24.2422H212.578V30.3032Z" fill="white"/>
<path d="M212.578 90.9072H218.638V84.8477H212.578V90.9072Z" fill="#231F20"/>
<path d="M212.578 72.7275H218.638V66.668H212.578V72.7275Z" fill="#F36717"/>
<path d="M212.578 84.8477H218.638V78.7871H212.578V84.8477Z" fill="#C84316"/>
<path d="M212.578 66.6665H218.638V60.6055H212.578V66.6665Z" fill="#F36717"/>
<path d="M212.578 60.6055H218.638V54.5454H212.578V60.6055Z" fill="#F36717"/>
<path d="M212.578 78.7871H218.638V72.7275H212.578V78.7871Z" fill="#F36717"/>
<path d="M103.488 12.1196H109.549V6.05859H103.488V12.1196Z" fill="#231F20"/>
<path d="M97.4258 12.1196H103.485V6.05951H97.4258V12.1196Z" fill="#F89C0E"/>
<path d="M91.3672 12.1196H97.4282V6.05951H91.3672V12.1196Z" fill="#F89C0E"/>
<path d="M79.2422 12.1196H85.3032V6.05859H79.2422V12.1196Z" fill="#231F20"/>
<path d="M85.3047 12.1196H91.3657V6.05951H85.3047V12.1196Z" fill="#F89C0E"/>
<path d="M218.641 72.7275H224.702V66.668H218.641V72.7275Z" fill="#F36717"/>
<path d="M218.641 54.5454H224.702V48.4844H218.641V54.5454Z" fill="#F36717"/>
<path d="M218.641 48.4833H224.702V42.4238H218.641V48.4833Z" fill="#231F20"/>
<path d="M218.641 42.4238H224.702V36.3633H218.641V42.4238Z" fill="white"/>
<path d="M218.641 60.6059H224.702V54.5454H218.641V60.6059Z" fill="#F36717"/>
<path d="M218.641 66.6665H224.702V60.6059H218.641V66.6665Z" fill="#F36717"/>
<path d="M218.641 36.3618H224.702V30.3008H218.641V36.3618Z" fill="white"/>
<path d="M218.641 30.3032H224.702V24.2422H218.641V30.3032Z" fill="white"/>
<path d="M218.641 24.2411H224.702V18.1816H218.641V24.2411Z" fill="#231F20"/>
<path d="M218.641 78.7876H224.702V72.7275H218.641V78.7876Z" fill="#C84316"/>
<path d="M218.641 84.8481H224.702V78.7876H218.641V84.8481Z" fill="#231F20"/>
<path d="M236.82 30.3032H242.881V24.2422H236.82V30.3032Z" fill="#231F20"/>
<path d="M236.82 42.4243H242.881V36.3633H236.82V42.4243Z" fill="#231F20"/>
<path d="M236.82 36.3618H242.881V30.3008H236.82V36.3618Z" fill="#D2CFCD"/>
<path d="M230.759 36.3618H236.819V30.3008H230.758L230.759 36.3618Z" fill="#D2CFCD"/>
<path d="M230.758 42.4243H236.819V36.3633L230.759 36.3631L230.758 42.4243Z" fill="#231F20"/>
<path d="M230.758 30.3032H236.819V24.2422H230.758V30.3032Z" fill="white"/>
<path d="M230.759 24.241L236.819 24.2411V18.1816L230.759 18.1815V24.241Z" fill="#231F20"/>
</svg>
