<svg width="614" height="200" viewBox="0 0 614 200" fill="none" xmlns="http://www.w3.org/2000/svg">
<path d="M113.443 112.501H125.941V99.9999H113.443V112.501Z" fill="#8CD024"/>
<path d="M113.443 137.5H125.941V125.002H113.443V137.5Z" fill="#231F20"/>
<path d="M113.443 150.001H125.941V137.5H113.443V150.001Z" fill="white"/>
<path d="M113.443 125.001H125.941L125.941 112.501H113.443L113.443 125.001Z" fill="#8CD024"/>
<path d="M113.443 162.501H125.941L125.941 150.001H113.443L113.443 162.501Z" fill="#231F20"/>
<path d="M113.443 99.9999H125.941L125.941 87.5H113.443L113.443 99.9999Z" fill="#8CD024"/>
<path d="M113.443 87.5H125.941V75.002H113.443V87.5Z" fill="#8CD024"/>
<path d="M113.443 75.0008H125.941V62.5H113.443V75.0008Z" fill="#8CD024"/>
<path d="M113.443 37.4996H125.941V25.002H113.443V37.4996Z" fill="#231F20"/>
<path d="M113.443 62.5H125.941L125.941 50.0001H113.443L113.443 62.5Z" fill="#8CD024"/>
<path d="M113.443 50.0001H125.941L125.941 37.4996H113.443L113.443 50.0001Z" fill="#8CD024"/>
<path d="M100.943 112.501H113.441V100H100.943V112.501Z" fill="#8CD024"/>
<path d="M100.943 62.5008H113.441V50H100.943V62.5008Z" fill="#8CD024"/>
<path d="M100.943 50H113.441V37.5H100.943V50Z" fill="#BFE137"/>
<path d="M100.943 87.4996H113.441V75.002H100.943V87.4996Z" fill="#8CD024"/>
<path d="M100.943 125.001H113.441V112.501H100.943V125.001Z" fill="#8CD024"/>
<path d="M100.943 100H113.441V87.4996H100.943V100Z" fill="#8CD024"/>
<path d="M100.943 37.5H113.441V25.002H100.943V37.5Z" fill="#231F20"/>
<path d="M100.943 75.0008H113.441V62.5008H100.943V75.0008Z" fill="#8CD024"/>
<path d="M488.439 87.4996H500.937V75.002H488.439V87.4996Z" fill="#8CD024"/>
<path d="M488.439 75.0008H500.937V62.5H488.439V75.0008Z" fill="#8CD024"/>
<path d="M488.439 112.501H500.937V100H488.439V112.501Z" fill="#8CD024"/>
<path d="M488.439 124.998H500.937V112.501H488.439V124.998Z" fill="#8CD024"/>
<path d="M488.439 100H500.937V87.4996H488.439V100Z" fill="#8CD024"/>
<path d="M488.439 62.5H500.937V50H488.439V62.5Z" fill="#BFE137"/>
<path d="M488.439 50H500.937V37.5H488.439V50Z" fill="#231F20"/>
<path d="M488.439 137.499H500.937V124.998H488.439V137.499Z" fill="#8CD024"/>
<path d="M488.439 200.001H500.937V187.5H488.439V200.001Z" fill="#231F20"/>
<path d="M488.439 174.998H500.937V162.5H488.439V174.998Z" fill="#8CD024"/>
<path d="M488.439 162.5H500.937V150H488.439V162.5Z" fill="#BFE137"/>
<path d="M488.439 150H500.937V137.5H488.439V150Z" fill="#231F20"/>
<path d="M488.439 187.5H500.937V175.002H488.439V187.5Z" fill="#D99A09"/>
<path d="M463.439 37.4996H475.94V25.002H463.439V37.4996Z" fill="#231F20"/>
<path d="M100.943 137.5H113.441V125.002H100.943V137.5Z" fill="#231F20"/>
<path d="M463.439 124.998H475.94V112.5H463.439V124.998Z" fill="#8CD024"/>
<path d="M463.439 137.499H475.94V124.998H463.439V137.499Z" fill="#8CD024"/>
<path d="M463.439 162.501H475.94V150H463.439V162.501Z" fill="#231F20"/>
<path d="M463.439 174.998H475.94V162.501H463.439V174.998Z" fill="#8CD024"/>
<path d="M463.439 150H475.94V137.5H463.439V150Z" fill="#8CD024"/>
<path d="M463.439 62.5008H475.94V50H463.439V62.5008Z" fill="#231F20"/>
<path d="M463.439 75.0008H475.94V62.5008H463.439V75.0008Z" fill="#8CD024"/>
<path d="M463.439 100.001H475.94V87.5H463.439V100.001Z" fill="#231F20"/>
<path d="M463.439 87.5H475.94V75.002H463.439V87.5Z" fill="#8CD024"/>
<path d="M463.439 112.5H475.94V100.001H463.439V112.5Z" fill="#8CD024"/>
<path d="M463.439 187.5H475.94V175.002H463.439V187.5Z" fill="#FCD205"/>
<path d="M463.439 200.001H475.94V187.5H463.439V200.001Z" fill="#231F20"/>
<path d="M463.439 50H475.94V37.4996H463.439V50Z" fill="#8CD024"/>
<path d="M475.943 200.001H488.444V187.5H475.943V200.001Z" fill="#231F20"/>
<path d="M475.943 187.5H488.444V175.002H475.943V187.5Z" fill="#FCD205"/>
<path d="M475.943 174.998H488.444V162.5H475.943V174.998Z" fill="#8CD024"/>
<path d="M475.943 137.499H488.444V124.998H475.943V137.499Z" fill="#8CD024"/>
<path d="M475.943 124.998H488.444V112.5H475.943V124.998Z" fill="#8CD024"/>
<path d="M475.943 112.5H488.444V100H475.943V112.5Z" fill="#231F20"/>
<path d="M475.943 162.5H488.444V150H475.943V162.5Z" fill="#BFE137"/>
<path d="M475.943 50.0008H488.444V37.5H475.943V50.0008Z" fill="#BFE137"/>
<path d="M475.943 75.0008H488.444V62.5H475.943V75.0008Z" fill="#8CD024"/>
<path d="M475.943 87.4996H488.444V75.002H475.943V87.4996Z" fill="#8CD024"/>
<path d="M475.943 62.5H488.444V50.0008H475.943V62.5Z" fill="#8CD024"/>
<path d="M475.943 100H488.444V87.4996H475.943V100Z" fill="#8CD024"/>
<path d="M475.943 37.5H488.444V25.002H475.943V37.5Z" fill="#231F20"/>
<path d="M475.943 150H488.444V137.5H475.943V150Z" fill="#231F20"/>
<path d="M125.939 137.5H138.44V125.002H125.939V137.5Z" fill="#231F20"/>
<path d="M125.939 125.001H138.44V112.5H125.939V125.001Z" fill="#8CD024"/>
<path d="M125.939 100.001H138.44V87.5H125.939V100.001Z" fill="#8CD024"/>
<path d="M125.939 150.001H138.44V137.5H125.939V150.001Z" fill="#4A811A"/>
<path d="M125.939 112.5H138.44V100.001H125.939V112.5Z" fill="#8CD024"/>
<path d="M125.939 162.501H138.44V150.001H125.939V162.501Z" fill="#231F20"/>
<path d="M125.939 87.5H138.44V75.002H125.939V87.5Z" fill="#8CD024"/>
<path d="M125.939 25.0008H138.44V12.5H125.939V25.0008Z" fill="#231F20"/>
<path d="M125.939 50.0008H138.44V37.5H125.939V50.0008Z" fill="#8CD024"/>
<path d="M125.939 62.5008H138.44V50.0008H125.939V62.5008Z" fill="#8CD024"/>
<path d="M125.939 75.0008H138.44V62.5008H125.939V75.0008Z" fill="#BFE137"/>
<path d="M125.939 37.5H138.44V25.002H125.939V37.5Z" fill="#BFE137"/>
<path d="M513.44 200.001H525.94V187.5H513.44V200.001Z" fill="#231F20"/>
<path d="M513.44 124.998H525.94V112.5H513.44V124.998Z" fill="#8CD024"/>
<path d="M513.44 187.5H525.94L525.94 175.002H513.439L513.44 187.5Z" fill="#FCD205"/>
<path d="M513.44 162.501H525.94V150H513.44V162.501Z" fill="#231F20"/>
<path d="M513.439 137.499H525.94L525.94 124.998H513.44L513.439 137.499Z" fill="#8CD024"/>
<path d="M513.44 150H525.94L525.94 137.5H513.439L513.44 150Z" fill="#231F20"/>
<path d="M513.439 174.998H525.94L525.94 162.501H513.44L513.439 174.998Z" fill="#8CD024"/>
<path d="M513.44 112.5H525.94V99.9999H513.44V112.5Z" fill="#8CD024"/>
<path d="M513.439 87.4996H525.94V75.002H513.439V87.4996Z" fill="#8CD024"/>
<path d="M513.44 75.0008H525.94V62.5H513.44V75.0008Z" fill="#231F20"/>
<path d="M513.44 99.9999H525.94L525.94 87.4996H513.439L513.44 99.9999Z" fill="#231F20"/>
<path d="M525.94 137.499H538.44V124.998L525.94 124.998L525.94 137.499Z" fill="#8CD024"/>
<path d="M525.939 150.001H538.44V137.5H525.94L525.939 150.001Z" fill="#231F20"/>
<path d="M525.94 124.998L538.44 124.998V112.5H525.94V124.998Z" fill="#8CD024"/>
<path d="M525.94 174.998H538.44V162.5H525.939L525.94 174.998Z" fill="#8CD024"/>
<path d="M525.94 187.5L538.44 187.5V175.002H525.94L525.94 187.5Z" fill="#D99A09"/>
<path d="M525.939 162.5H538.44V150.001H525.939V162.5Z" fill="#BFE137"/>
<path d="M525.94 75.0008H538.44V62.5H525.94V75.0008Z" fill="#231F20"/>
<path d="M525.939 112.501L538.44 112.5V100L525.94 99.9999L525.939 112.501Z" fill="#8CD024"/>
<path d="M525.94 87.4996H538.44V75.002H525.94V87.4996Z" fill="#BFE137"/>
<path d="M525.939 100.001L538.44 100V87.4996H525.94L525.939 100.001Z" fill="#8CD024"/>
<path d="M525.94 200.001H538.44V187.5L525.94 187.5V200.001Z" fill="#231F20"/>
<path d="M75.9395 112.501H88.4402V100H75.9395V112.501Z" fill="#8CD024"/>
<path d="M75.9395 125.001H88.4402V112.501H75.9395V125.001Z" fill="white"/>
<path d="M75.9395 75.0008H88.4402V62.5H75.9395V75.0008Z" fill="#8CD024"/>
<path d="M75.9395 137.5H88.4402V125.002H75.9395V137.5Z" fill="#231F20"/>
<path d="M75.9395 100H88.4402V87.5H75.9395V100Z" fill="#8CD024"/>
<path d="M75.9395 150.001H88.4402V137.5H75.9395V150.001Z" fill="#5EA523"/>
<path d="M75.9395 162.501H88.4402V150.001H75.9395V162.501Z" fill="#231F20"/>
<path d="M75.9395 87.5H88.4402V75.002H75.9395V87.5Z" fill="#8CD024"/>
<path d="M75.9395 62.5H88.4402V50H75.9395V62.5Z" fill="#8CD024"/>
<path d="M75.9395 50H88.4402V37.5H75.9395V50Z" fill="#231F20"/>
<path d="M500.939 87.4996H513.439V75.002H500.939V87.4996Z" fill="#8CD024"/>
<path d="M500.939 100.001H513.44L513.439 87.4996H500.939V100.001Z" fill="#8CD024"/>
<path d="M500.939 75.0008H513.44V62.5H500.939V75.0008Z" fill="#BFE137"/>
<path d="M500.939 112.501H513.44V100.001H500.939V112.501Z" fill="#8CD024"/>
<path d="M500.939 124.998H513.44L513.44 112.501H500.939V124.998Z" fill="#8CD024"/>
<path d="M500.939 137.499H513.439L513.44 124.998H500.939V137.499Z" fill="#8CD024"/>
<path d="M500.939 62.5L513.44 62.5008V50H500.939V62.5Z" fill="#231F20"/>
<path d="M500.939 150.001H513.44L513.439 137.5H500.939V150.001Z" fill="#231F20"/>
<path d="M500.939 200.001H513.44V187.5H500.939V200.001Z" fill="#231F20"/>
<path d="M500.939 162.501L513.44 162.501L513.44 150.001H500.939V162.501Z" fill="#BFE137"/>
<path d="M500.939 174.998H513.439L513.44 162.5L500.939 162.501V174.998Z" fill="#8CD024"/>
<path d="M500.939 187.5H513.44L513.439 175.002H500.939V187.5Z" fill="#FCD205"/>
<path d="M100.943 162.501H113.441V150H100.943V162.501Z" fill="#231F20"/>
<path d="M88.4434 125.001H100.943L100.944 112.5H88.4434V125.001Z" fill="#8CD024"/>
<path d="M88.4434 150.001H100.944L100.943 137.5L88.4434 137.5V150.001Z" fill="#5EA523"/>
<path d="M88.4434 137.5L100.943 137.5V125.002H88.4434V137.5Z" fill="#231F20"/>
<path d="M88.4434 112.5H100.944L100.943 100H88.4434V112.5Z" fill="#8CD024"/>
<path d="M88.4434 162.501H100.943L100.944 150.001H88.4434V162.501Z" fill="#231F20"/>
<path d="M100.943 150H113.441V137.5H100.943V150Z" fill="#5EA523"/>
<path d="M88.4434 100L100.944 100.001L100.943 87.4996L88.4434 87.5V100Z" fill="#8CD024"/>
<path d="M88.4434 87.5L100.943 87.4996V75.002H88.4434V87.5Z" fill="#8CD024"/>
<path d="M88.4434 75.0008H100.943L100.944 62.5H88.4434V75.0008Z" fill="#8CD024"/>
<path d="M88.4434 62.5H100.944L100.943 50H88.4434V62.5Z" fill="#63B32E"/>
<path d="M88.4434 50L100.944 50.0008L100.943 37.5H88.4434V50Z" fill="#231F20"/>
<path d="M300.943 124.998H313.441V112.5H300.943V124.998Z" fill="#8CD024"/>
<path d="M388.443 50.0008H400.941V37.5H388.443V50.0008Z" fill="#8CD024"/>
<path d="M388.443 112.501H400.941V100H388.443V112.501Z" fill="#8CD024"/>
<path d="M388.443 100H400.941V87.5H388.443V100Z" fill="#8CD024"/>
<path d="M388.443 25.0008H400.941V12.5H388.443V25.0008Z" fill="#231F20"/>
<path d="M388.443 124.998H400.941V112.501H388.443V124.998Z" fill="#231F20"/>
<path d="M388.443 87.5H400.941V75.002H388.443V87.5Z" fill="#8CD024"/>
<path d="M388.443 137.499H400.941V124.998H388.443V137.499Z" fill="#231F20"/>
<path d="M388.443 75.0008H400.941V62.5H388.443V75.0008Z" fill="#8CD024"/>
<path d="M388.443 37.5H400.941V25.002H388.443V37.5Z" fill="#BFE137"/>
<path d="M388.443 62.5H400.941V50.0008H388.443V62.5Z" fill="#231F20"/>
<path d="M200.943 12.5008H213.441V0H200.943V12.5008Z" fill="#231F20"/>
<path d="M200.943 50.0008H213.441V37.5H200.943V50.0008Z" fill="#8CD024"/>
<path d="M200.943 62.5008H213.441V50.0008H200.943V62.5008Z" fill="#8CD024"/>
<path d="M200.943 75.0008H213.441V62.5008H200.943V75.0008Z" fill="#8CD024"/>
<path d="M200.943 37.5H213.441V25.002H200.943V37.5Z" fill="#8CD024"/>
<path d="M200.943 25.0008H213.441V12.5008H200.943V25.0008Z" fill="#BFE137"/>
<path d="M200.943 87.4996H213.441V75.002H200.943V87.4996Z" fill="#8CD024"/>
<path d="M200.943 112.501H213.441V100H200.943V112.501Z" fill="#8CD024"/>
<path d="M200.943 125.001H213.441V112.501H200.943V125.001Z" fill="#8CD024"/>
<path d="M200.943 100H213.441V87.4996H200.943V100Z" fill="#8CD024"/>
<path d="M388.443 150.001H400.941V137.5H388.443V150.001Z" fill="#231F20"/>
<path d="M213.439 150.001H225.94V137.5H213.439V150.001Z" fill="#5EA523"/>
<path d="M213.439 12.5008H225.94V0H213.439V12.5008Z" fill="#231F20"/>
<path d="M213.439 62.5009H225.94V50.0001H213.439V62.5009Z" fill="#8CD024"/>
<path d="M213.44 75.0008H225.94L225.94 62.5009H213.439L213.44 75.0008Z" fill="#8CD024"/>
<path d="M213.439 37.4996H225.94V25.002H213.439V37.4996Z" fill="#8CD024"/>
<path d="M213.439 25.0008H225.94L225.94 12.5008H213.439L213.439 25.0008Z" fill="#BFE137"/>
<path d="M213.439 50.0001H225.94L225.94 37.4996H213.439L213.439 50.0001Z" fill="#63B32E"/>
<path d="M388.443 162.501H400.941V150.001H388.443V162.501Z" fill="#FCD205"/>
<path d="M313.439 162.501H325.94V150H313.439V162.501Z" fill="#8CD024"/>
<path d="M325.943 162.501H338.444V150H325.943V162.501Z" fill="#231F20"/>
<path d="M263.439 162.501H275.94V150H263.439V162.501Z" fill="#231F20"/>
<path d="M275.94 150V162.501H288.44V150H275.94Z" fill="#BFE137"/>
<path d="M288.443 162.501H300.944V150H288.443V162.501Z" fill="#8CD024"/>
<path d="M213.439 87.4996H225.94V75.002H213.439V87.4996Z" fill="#8CD024"/>
<path d="M375.939 162.501H388.44V150H375.939V162.501Z" fill="#FCD205"/>
<path d="M338.439 162.501H350.937V150H338.439V162.501Z" fill="#FCD205"/>
<path d="M363.44 162.501L375.939 162.501V150L363.44 150V162.501Z" fill="#FCD205"/>
<path d="M350.943 162.501H363.441V150H350.943V162.501Z" fill="#FCD205"/>
<path d="M300.944 162.501L313.441 162.501V150L300.944 150V162.501Z" fill="#8CD024"/>
<path d="M213.439 112.501H225.94V99.9999H213.439V112.501Z" fill="#8CD024"/>
<path d="M213.44 125.001H225.94L225.94 112.501H213.439L213.44 125.001Z" fill="#63B32E"/>
<path d="M213.439 99.9999H225.94L225.94 87.4996H213.439L213.439 99.9999Z" fill="#8CD024"/>
<path d="M213.439 137.5H225.94V125.002H213.439V137.5Z" fill="#8CD024"/>
<path d="M225.939 162.501H238.44V150H225.939V162.501Z" fill="#E5B506"/>
<path d="M238.443 162.501H250.944V150H238.443V162.501Z" fill="#231F20"/>
<path d="M200.943 137.5H213.441V125.002H200.943V137.5Z" fill="#8CD024"/>
<path d="M250.944 162.501H263.441V150H250.944V162.501Z" fill="#231F20"/>
<path d="M225.939 150H238.44V137.5H225.94L225.939 150Z" fill="#5EA523"/>
<path d="M188.439 12.5008H200.94V0H188.439V12.5008Z" fill="#231F20"/>
<path d="M188.439 25.0008H200.94V12.5008H188.439V25.0008Z" fill="#BFE137"/>
<path d="M188.439 37.4996H200.94V25.002H188.439V37.4996Z" fill="#8CD024"/>
<path d="M188.447 75.0008H200.945V62.5H188.447V75.0008Z" fill="#BFE137"/>
<path d="M188.439 62.5008H200.94V50H188.439V62.5008Z" fill="#8CD024"/>
<path d="M188.439 50H200.94V37.4996H188.439V50Z" fill="#8CD024"/>
<path d="M188.439 87.4996H200.94V75.002H188.439V87.4996Z" fill="#8CD024"/>
<path d="M275.939 175.001V187.499H288.44V174.998L275.939 175.001Z" fill="#5EA523"/>
<path d="M263.439 187.5H275.94V175.002H263.439V187.5Z" fill="#231F20"/>
<path d="M250.943 187.5H263.441V175.002H250.943V187.5Z" fill="#5EA523"/>
<path d="M288.443 187.5H300.944V175.002H288.443V187.5Z" fill="#5EA523"/>
<path d="M225.939 187.5H238.44V175.002H225.939V187.5Z" fill="#5EA523"/>
<path d="M238.443 187.5H250.943V175.002H238.443V187.5Z" fill="#231F20"/>
<path d="M300.944 187.5H313.441V175.002H300.944V187.5Z" fill="#5EA523"/>
<path d="M325.943 187.5H338.444V175.002H325.943V187.5Z" fill="#C39207"/>
<path d="M338.439 187.5H350.937V175.002H338.439V187.5Z" fill="#C39207"/>
<path d="M313.439 187.5H325.94V175.002H313.439V187.5Z" fill="#231F20"/>
<path d="M200.943 187.5H213.441V175.002H200.943V187.5Z" fill="#231F20"/>
<path d="M188.439 137.5H200.94V125.002H188.439V137.5Z" fill="#8CD024"/>
<path d="M188.439 125.001H200.94V112.5H188.439V125.001Z" fill="#8CD024"/>
<path d="M188.439 150.001H200.94V137.5H188.439V150.001Z" fill="#8CD024"/>
<path d="M188.439 112.5H200.94V100H188.439V112.5Z" fill="#8CD024"/>
<path d="M213.439 187.5H225.939V175.002H213.439V187.5Z" fill="#231F20"/>
<path d="M188.439 162.501H200.94V150.001H188.439V162.501Z" fill="#5EA523"/>
<path d="M188.439 100H200.94V87.4996H188.439V100Z" fill="#8CD024"/>
<path d="M200.943 175.001H213.441V162.5H200.943V175.001Z" fill="#C39207"/>
<path d="M188.439 175.001H200.94V162.501H188.439V175.001Z" fill="#231F20"/>
<path d="M375.939 174.998H388.44V162.501H375.939V174.998Z" fill="#E5B506"/>
<path d="M300.943 174.998H313.441L313.441 162.501L300.943 162.5V174.998Z" fill="#8CD024"/>
<path d="M338.439 174.998H350.937V162.501H338.439V174.998Z" fill="#E5B506"/>
<path d="M363.439 174.998H375.939L375.94 162.5L363.44 162.501L363.439 174.998Z" fill="#E5B506"/>
<path d="M313.439 174.998H325.94V162.501H313.439V174.998Z" fill="#5EA523"/>
<path d="M325.943 174.998H338.444V162.501H325.943V174.998Z" fill="#231F20"/>
<path d="M350.943 174.998H363.441V162.501H350.943V174.998Z" fill="#E5B506"/>
<path d="M400.939 174.998H413.44V162.5H400.939V174.998Z" fill="#8CD024"/>
<path d="M400.939 162.5H413.44L413.44 150H400.94L400.939 162.5Z" fill="#231F20"/>
<path d="M388.443 174.998H400.941V162.501H388.443V174.998Z" fill="#231F20"/>
<path d="M200.943 150.001H213.441V137.5H200.943V150.001Z" fill="#8CD024"/>
<path d="M400.94 150H413.44L413.44 137.5H400.939L400.94 150Z" fill="#8CD024"/>
<path d="M225.939 175.001H238.44V162.501H225.939V175.001Z" fill="#231F20"/>
<path d="M213.439 162.501L225.939 162.501L225.94 150.001H213.439L213.439 162.501Z" fill="#E5B506"/>
<path d="M213.439 175.001H225.939L225.94 162.5L213.439 162.501L213.439 175.001Z" fill="#C39207"/>
<path d="M200.943 162.5H213.441V150.001H200.943V162.5Z" fill="#5EA523"/>
<path d="M288.443 174.998H300.943L300.944 162.501H288.443V174.998Z" fill="#8CD024"/>
<path d="M238.443 175.001H250.944V162.501H238.443V175.001Z" fill="#BFE137"/>
<path d="M275.939 162.5V175.001L288.44 174.998V162.501L275.939 162.5Z" fill="#8CD024"/>
<path d="M263.439 175.001L275.939 175.001L275.94 162.501H263.439V175.001Z" fill="#8CD024"/>
<path d="M250.944 175.001H263.441V162.501L250.943 162.5L250.944 175.001Z" fill="#8CD024"/>
<path d="M400.939 137.499H413.44V124.998H400.939V137.499Z" fill="#8CD024"/>
<path d="M400.94 112.501H413.44V99.9999H400.94V112.501Z" fill="#231F20"/>
<path d="M400.94 99.9999H413.44V87.5H400.94V99.9999Z" fill="#8CD024"/>
<path d="M400.939 124.998H413.44L413.44 112.501H400.94L400.939 124.998Z" fill="#BFE137"/>
<path d="M400.939 25.0008H413.44V12.5H400.939V25.0008Z" fill="#231F20"/>
<path d="M400.94 87.5H413.44L413.44 75.002H400.939L400.94 87.5Z" fill="#8CD024"/>
<path d="M400.939 37.4996H413.44V25.002H400.939V37.4996Z" fill="#BFE137"/>
<path d="M400.94 75.0008H413.44V62.5H400.94V75.0008Z" fill="#8CD024"/>
<path d="M400.94 50.0008H413.44L413.44 37.4996H400.939L400.94 50.0008Z" fill="#63B32E"/>
<path d="M400.94 62.5H413.44V50.0008H400.94V62.5Z" fill="#8CD024"/>
<path d="M313.439 87.4996H325.94V75.002H313.439V87.4996Z" fill="#8CD024"/>
<path d="M250.943 25.0008H263.441V12.5H250.943V25.0008Z" fill="#231F20"/>
<path d="M250.943 37.4996H263.441V25.002H250.943V37.4996Z" fill="#BFE137"/>
<path d="M250.943 112.501H263.441V100H250.943V112.501Z" fill="#8CD024"/>
<path d="M263.439 25.0008H275.94V12.5H263.439V25.0008Z" fill="#231F20"/>
<path d="M275.94 25.0008H288.44V12.5H275.94V25.0008Z" fill="#231F20"/>
<path d="M250.943 50.0008H263.441V37.4996H250.943V50.0008Z" fill="#058D46"/>
<path d="M250.943 62.5008H263.441V50.0008H250.943V62.5008Z" fill="#8CD024"/>
<path d="M250.943 87.4996H263.441V75.002H250.943V87.4996Z" fill="#8CD024"/>
<path d="M250.943 100H263.441V87.4996H250.943V100Z" fill="#8CD024"/>
<path d="M250.943 75.0008H263.441V62.5008H250.943V75.0008Z" fill="#8CD024"/>
<path d="M288.443 25.0008H300.944V12.5H288.443V25.0008Z" fill="#231F20"/>
<path d="M338.439 62.5008H350.937V50H338.439V62.5008Z" fill="#8CD024"/>
<path d="M300.944 25.0008H313.441V12.5H300.944V25.0008Z" fill="#231F20"/>
<path d="M338.439 75.0008H350.937V62.5008H338.439V75.0008Z" fill="#058D46"/>
<path d="M338.439 100.001H350.937V87.5H338.439V100.001Z" fill="#8CD024"/>
<path d="M338.439 87.5H350.937V75.002H338.439V87.5Z" fill="#8CD024"/>
<path d="M338.439 50H350.937V37.5H338.439V50Z" fill="#8CD024"/>
<path d="M313.439 25.0008H325.94V12.5H313.439V25.0008Z" fill="#231F20"/>
<path d="M325.943 25.0008H338.441V12.5H325.943V25.0008Z" fill="#231F20"/>
<path d="M338.439 25.0008H350.937V12.5H338.439V25.0008Z" fill="#231F20"/>
<path d="M338.439 37.5H350.937V25.002H338.439V37.5Z" fill="#231F20"/>
<path d="M350.943 87.4996H363.441V75.002H350.943V87.4996Z" fill="#8CD024"/>
<path d="M350.943 62.5008H363.441V50H350.943V62.5008Z" fill="#231F20"/>
<path d="M350.943 50H363.441V37.5H350.943V50Z" fill="#8CD024"/>
<path d="M350.943 75.0008H363.441V62.5008H350.943V75.0008Z" fill="#8CD024"/>
<path d="M350.943 37.5H363.441V25.002H350.943V37.5Z" fill="#BFE137"/>
<path d="M338.439 112.501H350.937V100.001H338.439V112.501Z" fill="#8CD024"/>
<path d="M263.439 112.501H275.94V100H263.439V112.501Z" fill="#8CD024"/>
<path d="M350.943 25.0008H363.441V12.5H350.943V25.0008Z" fill="#231F20"/>
<path d="M288.443 124.998H300.943V112.5H288.443V124.998Z" fill="#8CD024"/>
<path d="M275.939 112.5V125.001L288.44 124.998V112.5H275.939Z" fill="#8CD024"/>
<path d="M263.439 125.001H275.939L275.94 112.501H263.439V125.001Z" fill="#8CD024"/>
<path d="M350.943 112.501H363.441V100H350.943V112.501Z" fill="#8CD024"/>
<path d="M338.439 124.998H350.937V112.501H338.439V124.998Z" fill="#8CD024"/>
<path d="M350.943 124.998H363.441V112.501H350.943V124.998Z" fill="#63B32E"/>
<path d="M325.943 124.998H338.444V112.5H325.943V124.998Z" fill="#8CD024"/>
<path d="M313.439 124.998H325.94V112.5H313.439V124.998Z" fill="#8CD024"/>
<path d="M325.943 112.5H338.444V100H325.943V112.5Z" fill="#8CD024"/>
<path d="M275.939 75.0008H288.44V62.5H275.939V75.0008Z" fill="#8CD024"/>
<path d="M275.939 62.5H288.44V50H275.939V62.5Z" fill="#231F20"/>
<path d="M275.939 50H288.44V37.5H275.939V50Z" fill="#8CD024"/>
<path d="M275.939 87.4996H288.44V75.002H275.939V87.4996Z" fill="#8CD024"/>
<path d="M300.943 50.0008H313.441V37.5H300.943V50.0008Z" fill="#8CD024"/>
<path d="M313.439 100.001H325.94V87.4996H313.439V100.001Z" fill="#8CD024"/>
<path d="M325.943 100H338.444V87.5H325.943V100Z" fill="#8CD024"/>
<path d="M300.943 100.001H313.441V87.5H300.943V100.001Z" fill="#8CD024"/>
<path d="M288.443 100.001H300.943V87.5H288.443V100.001Z" fill="#8CD024"/>
<path d="M288.443 87.5H300.943L300.944 75.002H288.443V87.5Z" fill="#8CD024"/>
<path d="M300.943 75.0008H313.441V62.5H300.943V75.0008Z" fill="#058D46"/>
<path d="M288.443 75.0008H300.943V62.5H288.443V75.0008Z" fill="#8CD024"/>
<path d="M288.443 62.5L300.944 62.5008V50H288.443V62.5Z" fill="#8CD024"/>
<path d="M300.943 62.5H313.441V50.0008H300.943V62.5Z" fill="#8CD024"/>
<path d="M313.439 50.0008H325.94V37.5H313.439V50.0008Z" fill="#8CD024"/>
<path d="M313.439 75.0008H325.94V62.5H313.439V75.0008Z" fill="#8CD024"/>
<path d="M300.943 87.5H313.441V75.002H300.944L300.943 87.5Z" fill="#8CD024"/>
<path d="M313.439 62.5H325.94V50.0008H313.439V62.5Z" fill="#231F20"/>
<path d="M350.943 187.5H363.441V175.002H350.943V187.5Z" fill="#C39207"/>
<path d="M288.443 50H300.944L300.943 37.5H288.443V50Z" fill="#63B32E"/>
<path d="M263.439 87.4996H275.939V75.002H263.439V87.4996Z" fill="#8CD024"/>
<path d="M275.939 100.001H288.44V87.4996H275.939V100.001Z" fill="#8CD024"/>
<path d="M263.439 100H275.94L275.939 87.4996H263.439V100Z" fill="#8CD024"/>
<path d="M263.439 75.0008H275.939V62.5H263.439V75.0008Z" fill="#058D46"/>
<path d="M263.439 62.5L275.94 62.5008L275.939 50H263.439V62.5Z" fill="#8CD024"/>
<path d="M275.939 112.5H288.44V100.001H275.939V112.5Z" fill="#8CD024"/>
<path d="M300.943 112.5H313.441V100.001H300.943V112.5Z" fill="#8CD024"/>
<path d="M313.439 112.5H325.94V100.001H313.439V112.5Z" fill="#8CD024"/>
<path d="M263.439 50L275.94 50.0008L275.939 37.5H263.439V50Z" fill="#8CD024"/>
<path d="M288.443 112.5L300.944 112.501V100L288.443 100.001V112.5Z" fill="#63B32E"/>
<path d="M300.943 37.5H313.441V25.002H300.943V37.5Z" fill="#231F20"/>
<path d="M325.943 37.4996H338.441V25.002H325.943V37.4996Z" fill="#BFE137"/>
<path d="M325.943 62.5008H338.444V50H325.943V62.5008Z" fill="#8CD024"/>
<path d="M325.943 50H338.444V37.5L325.943 37.4996V50Z" fill="#63B32E"/>
<path d="M325.943 75.0008H338.444V62.5008H325.943V75.0008Z" fill="#8CD024"/>
<path d="M288.443 37.5H300.943V25.002H288.443V37.5Z" fill="#BFE137"/>
<path d="M275.939 37.5H288.44V25.002H275.939V37.5Z" fill="#BFE137"/>
<path d="M263.439 37.5H275.939V25.002H263.439V37.5Z" fill="#231F20"/>
<path d="M313.439 37.5H325.94V25.002H313.439V37.5Z" fill="#BFE137"/>
<path d="M325.943 87.5H338.444V75.002H325.943V87.5Z" fill="#8CD024"/>
<path d="M350.943 100H363.441V87.4996H350.943V100Z" fill="#8CD024"/>
<path d="M225.94 112.501L238.44 112.501V100L225.94 99.9999V112.501Z" fill="#8CD024"/>
<path d="M225.939 100.001L238.44 100V87.5L225.94 87.4996L225.939 100.001Z" fill="#8CD024"/>
<path d="M225.94 125.001H238.44V112.501L225.939 112.5L225.94 125.001Z" fill="#8CD024"/>
<path d="M225.94 87.4996L238.44 87.5V75.002H225.94V87.4996Z" fill="#8CD024"/>
<path d="M225.94 75.0008H238.44V62.5H225.939L225.94 75.0008Z" fill="#63B32E"/>
<path d="M238.443 150H250.944V137.5H238.443V150Z" fill="#5EA523"/>
<path d="M225.94 137.5H238.44V125.002H225.94V137.5Z" fill="#8CD024"/>
<path d="M225.939 62.5H238.44V50L225.94 50.0001L225.939 62.5Z" fill="#8CD024"/>
<path d="M250.943 150.001L263.441 150V137.5H250.944L250.943 150.001Z" fill="#5EA523"/>
<path d="M238.443 137.5H250.944V125.002H238.443V137.5Z" fill="#5EA523"/>
<path d="M263.439 150H275.94V137.5H263.439V150Z" fill="#5EA523"/>
<path d="M225.94 25.0008H238.44V12.5H225.939L225.94 25.0008Z" fill="#231F20"/>
<path d="M225.94 37.4996H238.44V25.002H225.94V37.4996Z" fill="#8CD024"/>
<path d="M225.939 50.0008L238.44 50V37.4996H225.94L225.939 50.0008Z" fill="#8CD024"/>
<path d="M275.94 137.5L275.939 150.001L288.44 150V137.5H275.94Z" fill="#231F20"/>
<path d="M375.939 75.0008H388.44V62.5H375.939V75.0008Z" fill="#058D46"/>
<path d="M375.939 62.5H388.44V50H375.939V62.5Z" fill="#8CD024"/>
<path d="M375.939 87.4996H388.44V75.002H375.939V87.4996Z" fill="#8CD024"/>
<path d="M375.939 100.001H388.44V87.4996H375.939V100.001Z" fill="#8CD024"/>
<path d="M375.939 37.4996H388.44V25.002H375.939V37.4996Z" fill="#231F20"/>
<path d="M375.939 50H388.44V37.4996H375.939V50Z" fill="#8CD024"/>
<path d="M375.939 25.0008H388.44V12.5H375.939V25.0008Z" fill="#231F20"/>
<path d="M375.939 124.998H388.44V112.5H375.939V124.998Z" fill="#8CD024"/>
<path d="M375.939 112.5H388.44V100.001H375.939V112.5Z" fill="#8CD024"/>
<path d="M313.439 150H325.94V137.5H313.439V150Z" fill="#8CD024"/>
<path d="M300.943 150.001L313.441 150L313.441 137.5H300.943V150.001Z" fill="#8CD024"/>
<path d="M325.943 150H338.444V137.5H325.943V150Z" fill="#231F20"/>
<path d="M375.939 137.499H388.44V124.998H375.939V137.499Z" fill="#8CD024"/>
<path d="M288.443 150H300.944L300.943 137.5H288.443V150Z" fill="#8CD024"/>
<path d="M363.44 150L375.94 150.001V137.5H363.439L363.44 150Z" fill="#8CD024"/>
<path d="M375.939 150H388.44V137.5H375.94L375.939 150Z" fill="#8CD024"/>
<path d="M338.439 150H350.937V137.5H338.439V150Z" fill="#8CD024"/>
<path d="M350.943 150H363.441V137.5H350.943V150Z" fill="#8CD024"/>
<path d="M238.443 112.501H250.943V100H238.443V112.501Z" fill="#8CD024"/>
<path d="M250.943 125.001H263.441V112.501H250.943V125.001Z" fill="#5EA523"/>
<path d="M238.443 100L250.944 100.001L250.943 87.4996L238.443 87.5V100Z" fill="#8CD024"/>
<path d="M238.443 87.5L250.943 87.4996V75.002H238.443V87.5Z" fill="#8CD024"/>
<path d="M263.439 137.5H275.94V125.002H263.439V137.5Z" fill="#8CD024"/>
<path d="M275.939 125.001V137.499H288.44V124.998L275.939 125.001Z" fill="#8CD024"/>
<path d="M288.443 137.499H300.944L300.943 124.998H288.443V137.499Z" fill="#8CD024"/>
<path d="M250.944 137.5H263.441V125.002H250.944V137.5Z" fill="#5EA523"/>
<path d="M238.443 75.0008H250.943L250.944 62.5H238.443V75.0008Z" fill="#8CD024"/>
<path d="M238.443 50.0008H250.943V37.4996L238.443 37.5V50.0008Z" fill="#8CD024"/>
<path d="M238.443 62.5H250.944V50L238.443 50.0008V62.5Z" fill="#8CD024"/>
<path d="M238.443 37.5L250.943 37.4996V25.002H238.443V37.5Z" fill="#231F20"/>
<path d="M300.944 137.499H313.441V124.998H300.943L300.944 137.499Z" fill="#8CD024"/>
<path d="M238.443 125.001H250.943L250.944 112.5L238.443 112.501V125.001Z" fill="#8CD024"/>
<path d="M363.439 25.0008H375.939V12.5H363.439V25.0008Z" fill="#231F20"/>
<path d="M363.44 50.0008H375.94L375.939 37.4996L363.44 37.5V50.0008Z" fill="#63B32E"/>
<path d="M363.44 37.5L375.939 37.4996V25.002H363.439L363.44 37.5Z" fill="#BFE137"/>
<path d="M313.439 137.499H325.94V124.998H313.439V137.499Z" fill="#231F20"/>
<path d="M363.44 62.5009H375.94V50.0008H363.44V62.5009Z" fill="#8CD024"/>
<path d="M350.943 137.499H363.441V124.998H350.943V137.499Z" fill="#8CD024"/>
<path d="M338.439 137.499H350.937V124.998H338.439V137.499Z" fill="#8CD024"/>
<path d="M363.439 137.499H375.939V124.998L363.439 124.998V137.499Z" fill="#8CD024"/>
<path d="M363.44 75.0008H375.939L375.94 62.5009H363.44V75.0008Z" fill="#8CD024"/>
<path d="M325.943 137.499H338.444V124.998H325.943V137.499Z" fill="#8CD024"/>
<path d="M363.44 100.001H375.939V87.4996L363.44 87.5V100.001Z" fill="#8CD024"/>
<path d="M363.439 124.998L375.939 124.998V112.5H363.44L363.439 124.998Z" fill="#8CD024"/>
<path d="M363.44 87.5L375.939 87.4996V75.002H363.439L363.44 87.5Z" fill="#8CD024"/>
<path d="M363.44 112.5L375.94 112.501V99.9999L363.44 100.001V112.5Z" fill="#8CD024"/>
<path d="M150.943 87.4996H163.441V75.002H150.943V87.4996Z" fill="#8CD024"/>
<path d="M150.943 150.001H163.441V137.5H150.943V150.001Z" fill="#5EA523"/>
<path d="M150.943 62.5009H163.441V50.0001H150.943V62.5009Z" fill="#8CD024"/>
<path d="M150.943 50.0001H163.441L163.441 37.5H150.943L150.943 50.0001Z" fill="#8CD024"/>
<path d="M150.943 37.5H163.441V25.002H150.943V37.5Z" fill="#8CD024"/>
<path d="M150.943 125.001H163.441V112.5H150.943V125.001Z" fill="#8CD024"/>
<path d="M150.943 25.0008H163.444V12.5H150.943V25.0008Z" fill="#BFE137"/>
<path d="M150.943 137.5H163.441V125.002H150.943V137.5Z" fill="#231F20"/>
<path d="M150.943 100.001H163.441V87.4996H150.943V100.001Z" fill="#8CD024"/>
<path d="M150.943 112.5H163.441V100.001H150.943V112.5Z" fill="#8CD024"/>
<path d="M150.943 75.0008H163.441L163.441 62.5009H150.943L150.943 75.0008Z" fill="#8CD024"/>
<path d="M150.943 12.5H163.444L163.444 0H150.943L150.943 12.5Z" fill="#231F20"/>
<path d="M150.943 162.501H163.441L163.441 150.001H150.943L150.943 162.501Z" fill="#231F20"/>
<path d="M438.443 25.0008H450.941V12.5H438.443V25.0008Z" fill="#231F20"/>
<path d="M438.443 37.4996H450.941V25.002H438.443V37.4996Z" fill="#BFE137"/>
<path d="M438.443 75.0008H450.941V62.5H438.443V75.0008Z" fill="#8CD024"/>
<path d="M438.443 50.0008H450.941V37.4996H438.443V50.0008Z" fill="#63B32E"/>
<path d="M438.443 62.5H450.941V50.0008H438.443V62.5Z" fill="#8CD024"/>
<path d="M438.443 174.998H450.941V162.5H438.443V174.998Z" fill="#231F20"/>
<path d="M438.443 162.5H450.941V150H438.443V162.5Z" fill="#8CD024"/>
<path d="M438.443 150H450.941V137.5H438.443V150Z" fill="#8CD024"/>
<path d="M438.443 187.5H450.941V175.002H438.443V187.5Z" fill="#FCD205"/>
<path d="M363.439 187.5H375.94V175.002H363.439V187.5Z" fill="#C39207"/>
<path d="M438.443 100.001H450.941V87.5H438.443V100.001Z" fill="#231F20"/>
<path d="M438.443 112.501H450.941V100.001H438.443V112.501Z" fill="#8CD024"/>
<path d="M438.443 137.499H450.941V124.998H438.443V137.499Z" fill="#8CD024"/>
<path d="M438.443 87.5H450.941V75.002H438.443V87.5Z" fill="#8CD024"/>
<path d="M138.443 137.5L150.943 137.5V125.002H138.443V137.5Z" fill="#231F20"/>
<path d="M138.443 150.001H150.943V137.5L138.443 137.5V150.001Z" fill="#5EA523"/>
<path d="M438.443 200.001H450.941V187.5H438.443V200.001Z" fill="#231F20"/>
<path d="M138.443 162.501L150.943 162.501L150.944 150L138.443 150.001V162.501Z" fill="#231F20"/>
<path d="M138.443 100.001H150.943V87.4996L138.443 87.5V100.001Z" fill="#8CD024"/>
<path d="M138.443 125.001H150.943V112.5H138.443V125.001Z" fill="white"/>
<path d="M138.443 112.5L150.944 112.501V100L138.443 100.001V112.5Z" fill="#8CD024"/>
<path d="M138.443 25.0008H150.943V12.5H138.443V25.0008Z" fill="#BFE137"/>
<path d="M138.443 12.5L150.944 12.5008L150.943 0H138.443V12.5Z" fill="#231F20"/>
<path d="M138.443 37.4996L150.943 37.5V25.002H138.443V37.4996Z" fill="#8CD024"/>
<path d="M138.443 62.5008L150.943 62.5009V50.0001L138.443 50V62.5008Z" fill="#231F20"/>
<path d="M138.443 87.5L150.943 87.4996V75.002H138.443V87.5Z" fill="#8CD024"/>
<path d="M138.443 75.0008H150.943L150.944 62.5L138.443 62.5008V75.0008Z" fill="#BFE137"/>
<path d="M138.443 50L150.944 50.0008L150.943 37.5L138.443 37.4996V50Z" fill="#231F20"/>
<path d="M450.939 150.001H463.44L463.439 137.5H450.939V150.001Z" fill="#8CD024"/>
<path d="M450.939 137.499H463.439V124.998L450.939 124.998V137.499Z" fill="#8CD024"/>
<path d="M450.939 162.501H463.439L463.44 150.001H450.939V162.501Z" fill="#231F20"/>
<path d="M450.939 187.5H463.439V175.002H450.939V187.5Z" fill="#D99A09"/>
<path d="M450.939 174.998H463.439L463.44 162.5L450.939 162.501V174.998Z" fill="#BFE137"/>
<path d="M450.939 200.001H463.439V187.5H450.939V200.001Z" fill="#231F20"/>
<path d="M450.939 75.0008H463.439L463.44 62.5H450.939V75.0008Z" fill="#058D46"/>
<path d="M450.939 100.001H463.439V87.5H450.939V100.001Z" fill="#231F20"/>
<path d="M450.939 124.998L463.439 124.998V112.5H450.939V124.998Z" fill="#8CD024"/>
<path d="M450.939 112.5L463.44 112.501V100L450.939 100.001V112.5Z" fill="#8CD024"/>
<path d="M450.939 87.5H463.439V75.002H450.939V87.5Z" fill="#8CD024"/>
<path d="M450.939 62.5H463.44L463.439 50H450.939V62.5Z" fill="#8CD024"/>
<path d="M450.939 37.4996H463.439V25.002H450.939V37.4996Z" fill="#BFE137"/>
<path d="M450.939 50L463.44 50.0008L463.439 37.4996H450.939V50Z" fill="#8CD024"/>
<path d="M450.939 25.0008H463.44V12.5H450.939V25.0008Z" fill="#231F20"/>
<path d="M438.443 124.998H450.941V112.501H438.443V124.998Z" fill="#63B32E"/>
<path d="M175.943 150.001H188.444V137.5H175.943V150.001Z" fill="#5EA523"/>
<path d="M175.943 87.4996H188.444V75.002H175.943V87.4996Z" fill="#8CD024"/>
<path d="M175.943 125.001H188.444V112.5H175.943V125.001Z" fill="#BFE137"/>
<path d="M175.943 112.5H188.444V100H175.943V112.5Z" fill="#8CD024"/>
<path d="M175.943 100H188.444V87.4996H175.943V100Z" fill="#8CD024"/>
<path d="M175.943 137.5H188.444V125.002H175.943V137.5Z" fill="#8CD024"/>
<path d="M188.439 187.5H200.94V175.002H188.439V187.5Z" fill="#397C1F"/>
<path d="M175.943 162.501H188.444V150.001H175.943V162.501Z" fill="#397C1F"/>
<path d="M175.943 175.001H188.444V162.501H175.943V175.001Z" fill="#231F20"/>
<path d="M175.943 12.5008H188.444V0H175.943V12.5008Z" fill="#231F20"/>
<path d="M175.943 62.5008H188.444V50H175.943V62.5008Z" fill="#231F20"/>
<path d="M175.943 50H188.444V37.5H175.943V50Z" fill="#231F20"/>
<path d="M175.943 25.0008H188.444V12.5008H175.943V25.0008Z" fill="#BFE137"/>
<path d="M175.943 75.0008H188.444V62.5008H175.943V75.0008Z" fill="#BFE137"/>
<path d="M175.943 37.5H188.444V25.002H175.943V37.5Z" fill="#8CD024"/>
<path d="M375.939 200.001H388.44V187.5L375.94 187.5L375.939 200.001Z" fill="#231F20"/>
<path d="M363.44 200.001H375.939L375.94 187.5H363.439L363.44 200.001Z" fill="#231F20"/>
<path d="M350.943 200.001H363.441V187.5H350.943V200.001Z" fill="#231F20"/>
<path d="M388.443 200.001H400.941V187.5H388.443V200.001Z" fill="#231F20"/>
<path d="M338.439 200.001H350.937V187.5H338.439V200.001Z" fill="#231F20"/>
<path d="M425.939 187.5H438.44V175.002H425.939V187.5Z" fill="#231F20"/>
<path d="M325.943 200.001H338.444V187.5H325.943V200.001Z" fill="#231F20"/>
<path d="M425.939 200.001H438.44V187.5H425.939V200.001Z" fill="#231F20"/>
<path d="M413.439 200.001H425.939V187.5L413.439 187.5V200.001Z" fill="#231F20"/>
<path d="M400.94 200.001H413.439V187.5H400.94V200.001Z" fill="#231F20"/>
<path d="M238.443 200.001H250.944L250.943 187.5H238.443V200.001Z" fill="#231F20"/>
<path d="M225.939 200.001H238.44V187.5H225.939V200.001Z" fill="#231F20"/>
<path d="M250.944 200.001H263.441V187.5H250.943L250.944 200.001Z" fill="#231F20"/>
<path d="M275.939 200.001H288.44V187.5L275.94 187.5L275.939 200.001Z" fill="#231F20"/>
<path d="M288.443 200.001H300.944V187.5H288.443V200.001Z" fill="#231F20"/>
<path d="M300.944 200.001H313.441V187.5H300.944V200.001Z" fill="#231F20"/>
<path d="M263.439 200.001H275.939L275.94 187.5H263.439V200.001Z" fill="#231F20"/>
<path d="M313.439 200.001H325.94V187.5H313.439V200.001Z" fill="#231F20"/>
<path d="M413.44 50.0008H425.94V37.5L413.44 37.4996L413.44 50.0008Z" fill="#8CD024"/>
<path d="M425.939 174.998H438.44V162.5H425.939V174.998Z" fill="#8CD024"/>
<path d="M413.44 75.0008H425.94V62.5H413.44V75.0008Z" fill="#058D46"/>
<path d="M413.44 87.5L425.94 87.4996V75.002H413.44L413.44 87.5Z" fill="#8CD024"/>
<path d="M413.44 112.501L425.94 112.501V100L413.44 99.9999V112.501Z" fill="#BFE137"/>
<path d="M413.439 100.001L425.94 100V87.4996L413.44 87.5L413.439 100.001Z" fill="#231F20"/>
<path d="M413.44 37.4996L425.94 37.5V25.002H413.44V37.4996Z" fill="#231F20"/>
<path d="M413.44 25.0008H425.94V12.5H413.44V25.0008Z" fill="#231F20"/>
<path d="M400.94 187.5H413.439L413.44 175.002H400.939L400.94 187.5Z" fill="#231F20"/>
<path d="M388.443 187.5H400.941V175.002H388.443V187.5Z" fill="#5EA523"/>
<path d="M413.439 187.5L425.939 187.5V175.002H413.44L413.439 187.5Z" fill="#5EA523"/>
<path d="M375.94 187.5L388.44 187.5V175.002H375.94V187.5Z" fill="#231F20"/>
<path d="M413.44 137.499H425.94V124.998H413.44V137.499Z" fill="#8CD024"/>
<path d="M413.439 150.001H425.94V137.5H413.44L413.439 150.001Z" fill="#8CD024"/>
<path d="M413.44 174.998H425.939V162.5H413.44V174.998Z" fill="#8CD024"/>
<path d="M413.44 124.998H425.94V112.501L413.439 112.5L413.44 124.998Z" fill="#8CD024"/>
<path d="M413.439 62.5008L425.94 62.5V50.0008L413.439 50V62.5008Z" fill="#8CD024"/>
<path d="M413.439 162.501H425.94V150.001H413.439V162.501Z" fill="#8CD024"/>
<path d="M163.439 150.001H175.94V137.5H163.439V150.001Z" fill="#5EA523"/>
<path d="M163.439 100.001H175.94V87.5H163.439V100.001Z" fill="#8CD024"/>
<path d="M163.439 112.501H175.94V100.001H163.439V112.501Z" fill="#BFE137"/>
<path d="M163.439 125.001H175.94V112.501H163.439V125.001Z" fill="#231F20"/>
<path d="M163.439 162.501H175.94V150.001H163.439V162.501Z" fill="#397C1F"/>
<path d="M163.439 175.001H175.94V162.501H163.439V175.001Z" fill="#231F20"/>
<path d="M163.439 137.5H175.94V125.002H163.439V137.5Z" fill="#5EA523"/>
<path d="M163.439 87.5H175.94V75.002H163.439V87.5Z" fill="#8CD024"/>
<path d="M163.439 25.0008H175.94V12.5H163.439V25.0008Z" fill="#BFE137"/>
<path d="M163.439 12.5H175.94V0H163.439V12.5Z" fill="#231F20"/>
<path d="M163.439 62.5008H175.94V50H163.439V62.5008Z" fill="#8CD024"/>
<path d="M163.439 37.4996H175.94V25.002H163.439V37.4996Z" fill="#8CD024"/>
<path d="M163.439 75.0008H175.94V62.5008H163.439V75.0008Z" fill="#8CD024"/>
<path d="M163.439 50H175.94V37.4996H163.439V50Z" fill="#8CD024"/>
<path d="M425.94 25.0008H438.44V12.5H425.94V25.0008Z" fill="#231F20"/>
<path d="M425.94 37.5L438.44 37.4996V25.002H425.94V37.5Z" fill="#BFE137"/>
<path d="M425.94 112.501H438.44V100H425.94V112.501Z" fill="#8CD024"/>
<path d="M425.94 137.499H438.44V124.998H425.94V137.499Z" fill="#8CD024"/>
<path d="M425.94 124.998H438.44V112.501L425.939 112.5L425.94 124.998Z" fill="#8CD024"/>
<path d="M425.94 150.001H438.44V137.5H425.94V150.001Z" fill="#63B32E"/>
<path d="M425.94 75.0008H438.44V62.5H425.94V75.0008Z" fill="#8CD024"/>
<path d="M425.939 62.5008L438.44 62.5V50H425.939V62.5008Z" fill="#231F20"/>
<path d="M425.939 50H438.44V37.4996L425.94 37.5L425.939 50Z" fill="#8CD024"/>
<path d="M425.939 100.001L438.44 100V87.5L425.94 87.4996L425.939 100.001Z" fill="#231F20"/>
<path d="M425.94 87.4996L438.44 87.5V75.002H425.94V87.4996Z" fill="#8CD024"/>
<path d="M425.939 162.5H438.44V150.001L425.939 150V162.5Z" fill="#8CD024"/>
<path d="M0.943359 100.001H13.4441V87.5H0.943359V100.001Z" fill="#231F20"/>
<path d="M0.943359 75.0008H13.4441V62.5H0.943359V75.0008Z" fill="#231F20"/>
<path d="M0.943359 87.5H13.4441V75.002H0.943359V87.5Z" fill="#231F20"/>
<path d="M0.943359 112.501H13.4441V100.001H0.943359L0.943359 112.501Z" fill="#231F20"/>
<path d="M0.943359 125.001H13.4441V112.501H0.943359L0.943359 125.001Z" fill="#231F20"/>
<path d="M13.4441 125.001H25.941V112.5H13.4434L13.4441 125.001Z" fill="#8CD024"/>
<path d="M13.4434 62.5008H25.941V50H13.4434V62.5008Z" fill="#231F20"/>
<path d="M13.4441 75.0008H25.941V62.5008H13.4434L13.4441 75.0008Z" fill="#BFE137"/>
<path d="M13.4441 100.001H25.941V87.5H13.4441V100.001Z" fill="#8CD024"/>
<path d="M13.4441 87.5H25.941V75.002H13.4441V87.5Z" fill="#8CD024"/>
<path d="M13.4434 112.5H25.941V100.001L13.4434 100V112.5Z" fill="#8CD024"/>
<path d="M13.4434 137.5H25.941V125.002H13.4434V137.5Z" fill="#231F20"/>
<path d="M588.439 187.5H600.94V175.002H588.439V187.5Z" fill="#231F20"/>
<path d="M588.439 174.998H600.94V162.5H588.439V174.998Z" fill="#FCD205"/>
<path d="M588.44 124.998H600.94V112.5H588.44V124.998Z" fill="#231F20"/>
<path d="M588.439 150.001H600.94V137.5H588.439V150.001Z" fill="#8CD024"/>
<path d="M588.439 162.5H600.94V150.001H588.439V162.5Z" fill="#8CD024"/>
<path d="M588.439 137.499H600.94L600.94 124.998H588.44L588.439 137.499Z" fill="#BFE137"/>
<path d="M600.94 174.998H613.44V162.5H600.94V174.998Z" fill="#231F20"/>
<path d="M600.94 150.001H613.44V137.5H600.94V150.001Z" fill="#231F20"/>
<path d="M600.94 137.499H613.44V124.998L600.94 124.998L600.94 137.499Z" fill="#231F20"/>
<path d="M600.939 162.501L613.44 162.5V150.001L600.939 150V162.501Z" fill="#231F20"/>
<path d="M50.9434 125.001H63.4441V112.5H50.9434V125.001Z" fill="#8CD024"/>
<path d="M50.9434 50.0008H63.4441V37.5H50.9434V50.0008Z" fill="#231F20"/>
<path d="M50.9434 112.5H63.4441V100H50.9434V112.5Z" fill="#8CD024"/>
<path d="M50.9434 100H63.4441V87.5H50.9434V100Z" fill="#8CD024"/>
<path d="M50.9434 87.5H63.4441V75.002H50.9434V87.5Z" fill="#8CD024"/>
<path d="M50.9434 75.0008H63.4441V62.5H50.9434V75.0008Z" fill="#8CD024"/>
<path d="M50.9434 62.5H63.4441V50.0008H50.9434V62.5Z" fill="#63B32E"/>
<path d="M50.9434 162.501H63.4441V150H50.9434V162.501Z" fill="#231F20"/>
<path d="M50.9434 150H63.4441V137.5H50.9434V150Z" fill="white"/>
<path d="M50.9434 137.5H63.4441V125.002H50.9434V137.5Z" fill="#231F20"/>
<path d="M550.939 87.4996H563.44V75.002H550.939V87.4996Z" fill="#231F20"/>
<path d="M550.94 100.001H563.44L563.44 87.4996H550.939L550.94 100.001Z" fill="#BFE137"/>
<path d="M550.939 174.998H563.44V162.5H550.939V174.998Z" fill="#8CD024"/>
<path d="M550.94 200.001H563.44V187.5H550.94V200.001Z" fill="#231F20"/>
<path d="M550.939 150.001H563.44V137.5H550.939V150.001Z" fill="#8CD024"/>
<path d="M550.939 162.5H563.44V150.001H550.939V162.5Z" fill="#231F20"/>
<path d="M550.939 137.499H563.44V124.998H550.939V137.499Z" fill="#8CD024"/>
<path d="M550.939 124.998H563.44L563.44 112.5H550.94L550.939 124.998Z" fill="#8CD024"/>
<path d="M550.94 112.5H563.44V100.001H550.94V112.5Z" fill="#8CD024"/>
<path d="M550.94 187.5H563.44L563.44 175.002H550.939L550.94 187.5Z" fill="#FCD205"/>
<path d="M538.443 112.501H550.941V100H538.443V112.501Z" fill="#231F20"/>
<path d="M63.4441 137.5L75.941 137.5V125.002H63.4441V137.5Z" fill="#231F20"/>
<path d="M63.4434 150.001H75.941V137.5L63.4441 137.5L63.4434 150.001Z" fill="#4A811A"/>
<path d="M63.4434 112.501H75.941V100H63.4441L63.4434 112.501Z" fill="#8CD024"/>
<path d="M63.4434 100.001L75.941 100V87.5H63.4441L63.4434 100.001Z" fill="#8CD024"/>
<path d="M63.4441 87.5H75.941V75.002H63.4441V87.5Z" fill="#231F20"/>
<path d="M63.4441 162.501H75.941V150.001H63.4434L63.4441 162.501Z" fill="#231F20"/>
<path d="M63.4441 50.0008H75.941V37.5H63.4441V50.0008Z" fill="#231F20"/>
<path d="M63.4434 62.5008H75.941V50.0008L63.4434 50V62.5008Z" fill="#8CD024"/>
<path d="M63.4441 75.0008H75.941V62.5008H63.4434L63.4441 75.0008Z" fill="#8CD024"/>
<path d="M63.4441 125.001H75.941V112.501H63.4434L63.4441 125.001Z" fill="#8CD024"/>
<path d="M538.443 174.998H550.941V162.5H538.443V174.998Z" fill="#8CD024"/>
<path d="M538.443 187.5H550.941V175.002H538.443V187.5Z" fill="#FCD205"/>
<path d="M538.443 162.5H550.941V150H538.443V162.5Z" fill="#8CD024"/>
<path d="M538.443 200.001H550.941V187.5H538.443V200.001Z" fill="#231F20"/>
<path d="M538.443 150H550.941V137.5H538.443V150Z" fill="#BFE137"/>
<path d="M538.443 124.998H550.941V112.501H538.443V124.998Z" fill="#8CD024"/>
<path d="M538.443 137.499H550.941V124.998H538.443V137.499Z" fill="#8CD024"/>
<path d="M538.443 100H550.941V87.5H538.443V100Z" fill="#8CD024"/>
<path d="M538.443 87.5H550.941V75.002H538.443V87.5Z" fill="#231F20"/>
<path d="M25.9434 100.001H38.441V87.5H25.9434V100.001Z" fill="#8CD024"/>
<path d="M25.9434 112.501H38.441V100.001H25.9434V112.501Z" fill="#8CD024"/>
<path d="M25.9434 87.5H38.441V75.002H25.9434V87.5Z" fill="#231F20"/>
<path d="M25.9434 62.5008H38.441V50H25.9434V62.5008Z" fill="#BFE137"/>
<path d="M25.9434 75.0008H38.441V62.5008H25.9434V75.0008Z" fill="#8CD024"/>
<path d="M25.9434 125.001H38.441V112.501H25.9434V125.001Z" fill="#8CD024"/>
<path d="M25.9434 150.001H38.441V137.5H25.9434V150.001Z" fill="#231F20"/>
<path d="M25.9434 137.5H38.441V125.002H25.9434V137.5Z" fill="#231F20"/>
<path d="M25.9434 50H38.441V37.5H25.9434V50Z" fill="#231F20"/>
<path d="M575.939 137.499H588.439L588.44 124.998L575.939 124.998V137.499Z" fill="#8CD024"/>
<path d="M575.939 112.501H588.44V100H575.939V112.501Z" fill="#231F20"/>
<path d="M575.939 124.998L588.44 124.998L588.44 112.501H575.939V124.998Z" fill="#BFE137"/>
<path d="M575.939 150.001H588.439V137.5H575.939V150.001Z" fill="#8CD024"/>
<path d="M575.939 174.998H588.439V162.5H575.939V174.998Z" fill="#8CD024"/>
<path d="M575.939 200.001H588.44L588.439 187.5L575.939 187.5V200.001Z" fill="#231F20"/>
<path d="M575.939 162.5L588.44 162.501V150L575.939 150.001V162.5Z" fill="#8CD024"/>
<path d="M575.939 187.5L588.439 187.5V175.002H575.939V187.5Z" fill="#FCD205"/>
<path d="M38.4395 87.4996H50.9402V75.002H38.4395V87.4996Z" fill="#8CD024"/>
<path d="M38.4395 125.001H50.9402V112.5H38.4395V125.001Z" fill="#8CD024"/>
<path d="M38.4395 150.001H50.9402V137.5H38.4395V150.001Z" fill="#5EA523"/>
<path d="M38.4395 137.5H50.9402V125.002H38.4395V137.5Z" fill="#231F20"/>
<path d="M38.4395 112.5H50.9402V100H38.4395V112.5Z" fill="#8CD024"/>
<path d="M38.4395 100H50.9402V87.4996H38.4395V100Z" fill="#8CD024"/>
<path d="M38.4395 162.501H50.9402V150.001H38.4395V162.501Z" fill="#231F20"/>
<path d="M38.4395 62.5008H50.9402V50H38.4395V62.5008Z" fill="#8CD024"/>
<path d="M38.4395 50H50.9402V37.5H38.4395V50Z" fill="#231F20"/>
<path d="M38.4395 75.0008H50.9402V62.5008H38.4395V75.0008Z" fill="#8CD024"/>
<path d="M563.44 150.001H575.937V137.5H563.44V150.001Z" fill="#8CD024"/>
<path d="M563.439 162.501H575.937V150.001L563.439 150V162.501Z" fill="#8CD024"/>
<path d="M563.44 137.499H575.937V124.998H563.44V137.499Z" fill="#231F20"/>
<path d="M563.44 174.998H575.937V162.501H563.439L563.44 174.998Z" fill="#8CD024"/>
<path d="M563.44 100.001H575.937V87.5L563.44 87.4996L563.44 100.001Z" fill="#231F20"/>
<path d="M563.44 124.998H575.937V112.5H563.44L563.44 124.998Z" fill="#8CD024"/>
<path d="M563.439 112.501L575.937 112.5V100.001L563.439 100V112.501Z" fill="#BFE137"/>
<path d="M563.44 187.5L575.937 187.5V175.002H563.44L563.44 187.5Z" fill="#D99A09"/>
<path d="M563.44 200.001H575.937V187.5L563.44 187.5V200.001Z" fill="#231F20"/>
<path d="M175.943 175.001V187.499H188.441V174.998L175.943 175.001Z" fill="#5EA523"/>
<path d="M163.439 187.5H175.94V175.002H163.439V187.5Z" fill="#5EA523"/>
<path d="M150.939 187.5H163.439V175.002H150.939V187.5Z" fill="#231F20"/>
<path d="M125.943 187.505H138.444V175.008H125.943V187.505Z" fill="#231F20"/>
<path d="M138.439 187.5H150.939V175.002H138.439V187.5Z" fill="#5EA523"/>
<path d="M138.439 175.001H150.94V162.5H138.439V175.001Z" fill="#231F20"/>
<path d="M150.94 175.001H163.439L163.44 162.5H150.94V175.001Z" fill="#8CD024"/>
<path d="M138.439 200.001H150.94L150.939 187.5H138.439V200.001Z" fill="#231F20"/>
<path d="M125.939 200.001H138.439V187.5L125.939 187.5V200.001Z" fill="#231F20"/>
<path d="M150.94 200.001H163.44L163.439 187.5H150.939L150.94 200.001Z" fill="#231F20"/>
<path d="M175.943 200.001H188.441V187.5H175.943V200.001Z" fill="#231F20"/>
<path d="M188.439 200.001H200.94V187.5H188.439V200.001Z" fill="#231F20"/>
<path d="M200.94 200.001H213.44L213.439 187.5H200.94V200.001Z" fill="#231F20"/>
<path d="M163.44 200.001H175.94V187.5H163.439L163.44 200.001Z" fill="#231F20"/>
</svg>
