<svg width="216" height="200" viewBox="0 0 216 200" fill="none" xmlns="http://www.w3.org/2000/svg">
<path d="M138.461 189.744H143.589V184.615H138.461V189.744Z" fill="#231F20"/>
<path d="M133.332 189.744H138.461V184.615H133.332V189.744Z" fill="#C18623"/>
<path d="M128.203 189.744H133.332V184.615H128.203V189.744Z" fill="#C18623"/>
<path d="M158.973 189.744H164.101V184.615H158.973V189.744Z" fill="#C18623"/>
<path d="M148.719 189.744H153.847V184.615H148.719V189.744Z" fill="#231F20"/>
<path d="M153.844 189.744H158.971V184.615H153.844V189.744Z" fill="#C18623"/>
<path d="M123.074 189.744H128.203V184.615H123.074V189.744Z" fill="#231F20"/>
<path d="M164.101 189.744H169.23V184.615H164.101V189.744Z" fill="#231F20"/>
<path d="M82.0508 189.744H87.178V184.615H82.0508V189.744Z" fill="#231F20"/>
<path d="M87.1797 184.615V189.744H92.3082V184.615H87.1797Z" fill="#EFBB42"/>
<path d="M92.3082 189.744H97.4371V184.615H92.3082V189.744Z" fill="#EFBB42"/>
<path d="M97.4371 189.744H102.566V184.615H97.4371V189.744Z" fill="#231F20"/>
<path d="M51.2812 35.8981H56.4098V30.7695H51.2812V35.8981Z" fill="#EFBB42"/>
<path d="M66.6641 35.8981H71.7926V30.7695H66.6641V35.8981Z" fill="#EFBB42"/>
<path d="M56.4098 35.8981H61.5387V30.7695H56.4098V35.8981Z" fill="#EFBB42"/>
<path d="M61.5387 35.8981H66.6663V30.7695H61.5387V35.8981Z" fill="#EFBB42"/>
<path d="M46.1523 35.8981H51.2796V30.7695H46.1523V35.8981Z" fill="#EFBB42"/>
<path d="M71.7926 35.8981H76.9215V30.7695H71.7926V35.8981Z" fill="#231F20"/>
<path d="M20.5117 87.178H25.639V82.0508H20.5117V87.178Z" fill="#231F20"/>
<path d="M20.5117 82.0508H25.639V76.9219H20.5117V82.0508Z" fill="#231F20"/>
<path d="M20.5117 92.3082H25.639V87.1797H20.5117V92.3082Z" fill="#D2972C"/>
<path d="M20.5117 66.6676H25.639V61.5391H20.5117V66.6676Z" fill="#EFBB42"/>
<path d="M20.5117 76.9219H25.639V71.7949H20.5117V76.9219Z" fill="#EFBB42"/>
<path d="M20.5117 71.7965H25.639V66.6676H20.5117V71.7965Z" fill="#EFBB42"/>
<path d="M20.5117 97.4352H25.639V92.3066H20.5117V97.4352Z" fill="#231F20"/>
<path d="M20.5117 56.4105H25.639V51.2832H20.5117V56.4105Z" fill="#EFBB42"/>
<path d="M20.5117 61.5391H25.639V56.4105H20.5117V61.5391Z" fill="#EFBB42"/>
<path d="M30.7695 35.8981H35.8981V30.7695H30.7695V35.8981Z" fill="#EFBB42"/>
<path d="M35.8981 35.8981H41.027V30.7695H35.8981V35.8981Z" fill="#EFBB42"/>
<path d="M25.6404 35.8981H30.7695V30.7695H25.6404V35.8981Z" fill="#231F20"/>
<path d="M20.5117 41.025H25.639V35.8965H20.5117V41.025Z" fill="#231F20"/>
<path d="M41.027 35.8981H46.1559V30.7695H41.027V35.8981Z" fill="#EFBB42"/>
<path d="M20.5117 51.2832H25.639V46.1543H20.5117V51.2832Z" fill="#F0D159"/>
<path d="M20.5117 46.1543H25.639V41.025H20.5117V46.1543Z" fill="#231F20"/>
<path d="M35.8984 30.7679H41.027V25.6406H35.8984V30.7679Z" fill="#EFBB42"/>
<path d="M46.1523 30.7679H51.2796V25.6406H46.1523V30.7679Z" fill="#EFBB42"/>
<path d="M41.027 30.7679H46.1559V25.6406H41.027V30.7679Z" fill="#EFBB42"/>
<path d="M51.2812 30.7679H56.4098V25.6406H51.2812V30.7679Z" fill="#EFBB42"/>
<path d="M56.4098 30.7679H61.5387V25.6406H56.4098V30.7679Z" fill="#EFBB42"/>
<path d="M61.5387 30.7679H66.6663V25.6406H61.5387V30.7679Z" fill="#EFBB42"/>
<path d="M66.6641 30.7679H71.7926V25.6406H66.6641V30.7679Z" fill="#EFBB42"/>
<path d="M25.6404 30.7679H30.7689V25.6406H25.6404V30.7679Z" fill="#231F20"/>
<path d="M30.7689 30.7679H35.8984V25.6406H30.7689V30.7679Z" fill="#F0D159"/>
<path d="M71.7926 30.7679H76.9215V25.6406H71.7926V30.7679Z" fill="#231F20"/>
<path d="M15.3828 92.3082H20.5117V87.1797H15.3828V92.3082Z" fill="#D2972C"/>
<path d="M15.3828 87.178H20.5117V82.0508H15.3828V87.178Z" fill="#231F20"/>
<path d="M15.3828 97.4352H20.5117V92.3066H15.3828V97.4352Z" fill="#231F20"/>
<path d="M15.3828 51.2828L20.5117 51.2832V46.1543H15.3828V51.2828Z" fill="#231F20"/>
<path d="M15.3828 56.4105H20.5117V51.2832L15.3828 51.2828V56.4105Z" fill="#F0D159"/>
<path d="M15.3828 82.0508H20.5117V76.9219H15.3828V82.0508Z" fill="#EFBB42"/>
<path d="M15.3828 61.5387L20.5117 61.5391V56.4105H15.3828V61.5387Z" fill="#EFBB42"/>
<path d="M15.3828 76.9219H20.5117V71.7949H15.3828V76.9219Z" fill="#231F20"/>
<path d="M15.3828 71.7965H20.5117V66.6676L15.3828 66.668V71.7965Z" fill="#231F20"/>
<path d="M15.3828 66.668L20.5117 66.6676V61.5391L15.3828 61.5387V66.668Z" fill="#EFBB42"/>
<path d="M174.359 117.949H179.487V112.82H174.359V117.949Z" fill="#EFBB42"/>
<path d="M174.359 87.178H179.487V82.0508H174.359V87.178Z" fill="#EFBB42"/>
<path d="M174.359 112.82H179.487V107.691H174.359V112.82Z" fill="#EFBB42"/>
<path d="M174.359 128.205H179.487V123.078H174.359V128.205Z" fill="#EFBB42"/>
<path d="M174.359 133.334H179.487V128.205H174.359V133.334Z" fill="#D2972C"/>
<path d="M174.359 123.078H179.487V117.949H174.359V123.078Z" fill="#EFBB42"/>
<path d="M174.359 97.4352H179.487V92.3066H174.359V97.4352Z" fill="#EFBB42"/>
<path d="M174.359 92.3082H179.487V87.1797H174.359V92.3082Z" fill="#EFBB42"/>
<path d="M174.359 107.691H179.487V102.564H174.359V107.691Z" fill="#EFBB42"/>
<path d="M174.359 102.564H179.487V97.4352H174.359V102.564Z" fill="#EFBB42"/>
<path d="M174.359 138.461H179.487V133.332H174.359V138.461Z" fill="#EFBB42"/>
<path d="M174.359 164.102H179.487V158.975H174.359V164.102Z" fill="#231F20"/>
<path d="M174.359 153.845H179.487V148.717H174.359V153.845Z" fill="#EFBB42"/>
<path d="M174.359 148.717H179.487V143.588H174.359V148.717Z" fill="#EFBB42"/>
<path d="M174.359 143.588H179.487V138.461H174.359V143.588Z" fill="#EFBB42"/>
<path d="M174.359 158.975H179.487V153.845H174.359V158.975Z" fill="#D2972C"/>
<path d="M174.359 61.5387H179.487V56.4102H174.359V61.5387Z" fill="#231F20"/>
<path d="M174.359 71.7965H179.487V66.668H174.359V71.7965Z" fill="#EFBB42"/>
<path d="M174.359 66.668H179.487V61.5387H174.359V66.668Z" fill="#D2972C"/>
<path d="M174.359 76.9222H179.487V71.7949H174.359V76.9222Z" fill="#EFBB42"/>
<path d="M174.359 82.0508H179.487V76.9222H174.359V82.0508Z" fill="#E39E2B"/>
<path d="M117.949 179.488H123.076V174.359H117.949V179.488Z" fill="#231F20"/>
<path d="M164.102 76.9222H169.23V71.7949H164.102V76.9222Z" fill="#EFBB42"/>
<path d="M164.102 71.7965H169.23V66.668H164.102V71.7965Z" fill="#EFBB42"/>
<path d="M164.102 82.0504H169.23V76.9222H164.102V82.0504Z" fill="#EFBB42"/>
<path d="M164.102 92.3082H169.23V87.1797H164.102V92.3082Z" fill="#EFBB42"/>
<path d="M164.102 87.178H169.23V82.0504H164.102V87.178Z" fill="#EFBB42"/>
<path d="M164.102 61.5387H169.23V56.4102H164.102V61.5387Z" fill="#F0D159"/>
<path d="M25.6404 61.5385H30.769V56.41H25.6404V61.5385Z" fill="#EFBB42"/>
<path d="M164.102 56.4102H169.23V51.2832H164.102V56.4102Z" fill="#231F20"/>
<path d="M66.6641 41.025H71.7926V35.8965H66.6641V41.025Z" fill="#EFBB42"/>
<path d="M41.0273 41.025H46.1559V35.8965H41.0273V41.025Z" fill="#EFBB42"/>
<path d="M46.1523 41.025H51.2796V35.8965H46.1523V41.025Z" fill="#EFBB42"/>
<path d="M30.7695 41.025H35.8981V35.8965H30.7695V41.025Z" fill="#EFBB42"/>
<path d="M51.2812 41.025H56.4098V35.8965H51.2812V41.025Z" fill="#231F20"/>
<path d="M25.6404 41.025H30.7695V35.8965H25.6404V41.025Z" fill="#F0D159"/>
<path d="M56.4098 41.025H61.5387V35.8965H56.4098V41.025Z" fill="#EFBB42"/>
<path d="M25.6404 51.2827H30.769V46.1542H25.6404V51.2827Z" fill="#EFBB42"/>
<path d="M25.6404 46.1542H30.769L30.7695 41.025H25.6404L25.6404 46.1542Z" fill="#EFBB42"/>
<path d="M35.8981 41.025H41.0273V35.8965H35.8981V41.025Z" fill="#231F20"/>
<path d="M164.102 97.4352H169.23V92.3066H164.102V97.4352Z" fill="#EFBB42"/>
<path d="M71.7926 41.025H76.9215V35.8965H71.7926V41.025Z" fill="#231F20"/>
<path d="M61.5387 41.025H66.6663V35.8965H61.5387V41.025Z" fill="#EFBB42"/>
<path d="M164.102 66.668H169.23V61.5387H164.102V66.668Z" fill="#EFBB42"/>
<path d="M92.3086 179.488H97.4371V174.359H92.3086V179.488Z" fill="#EFBB42"/>
<path d="M97.4371 179.488H102.566V174.359H97.4371V179.488Z" fill="#D2972C"/>
<path d="M102.566 179.488H107.694V174.359H102.566V179.488Z" fill="#231F20"/>
<path d="M133.332 179.488H138.461V174.359H133.332V179.488Z" fill="#231F20"/>
<path d="M82.0508 179.488H87.178V174.359H82.0508V179.488Z" fill="#231F20"/>
<path d="M123.074 179.488H128.204V174.359H123.074V179.488Z" fill="#C18623"/>
<path d="M128.204 179.488H133.332V174.359H128.204V179.488Z" fill="#C18623"/>
<path d="M87.1797 179.488H92.3086V174.359H87.1797V179.488Z" fill="#F0D159"/>
<path d="M164.102 174.359H169.23V169.23H164.102V174.359Z" fill="#C18623"/>
<path d="M164.102 133.334H169.23V128.205H164.102V133.334Z" fill="#D2972C"/>
<path d="M164.102 138.461H169.23V133.332H164.102V138.461Z" fill="#D2972C"/>
<path d="M164.102 148.716H169.23V143.588H164.102V148.716Z" fill="#D2972C"/>
<path d="M164.102 153.845H169.23V148.716H164.102V153.845Z" fill="#231F20"/>
<path d="M164.102 143.588H169.23V138.461H164.102V143.588Z" fill="#D2972C"/>
<path d="M164.102 107.692H169.23V102.564H164.102V107.692Z" fill="#EFBB42"/>
<path d="M164.102 112.82H169.23V107.692H164.102V112.82Z" fill="#EFBB42"/>
<path d="M164.102 123.078H169.23V117.949H164.102V123.078Z" fill="#EFBB42"/>
<path d="M164.102 117.949H169.23V112.82H164.102V117.949Z" fill="#EFBB42"/>
<path d="M164.102 128.205H169.23V123.078H164.102V128.205Z" fill="#EFBB42"/>
<path d="M153.844 179.488H158.971V174.359H153.844V179.488Z" fill="#C18623"/>
<path d="M148.719 179.488H153.847V174.359H148.719V179.488Z" fill="#231F20"/>
<path d="M158.973 179.488H164.101L164.102 174.359L158.973 174.359V179.488Z" fill="#C18623"/>
<path d="M164.102 158.974H169.23V153.845H164.102V158.974Z" fill="#8D5B1A"/>
<path d="M164.102 169.23H169.23V164.104H164.102V169.23Z" fill="#C18623"/>
<path d="M164.102 164.102H169.23V158.974H164.102V164.102Z" fill="#C18623"/>
<path d="M164.102 102.564H169.23V97.4352H164.102V102.564Z" fill="#EFBB42"/>
<path d="M164.101 179.488H169.23V174.359H164.102L164.101 179.488Z" fill="#A7721D"/>
<path d="M25.6404 56.41H30.769V51.2827H25.6404V56.41Z" fill="#EFBB42"/>
<path d="M169.23 164.102H174.359V158.975L169.23 158.974V164.102Z" fill="#8D5B1A"/>
<path d="M169.23 158.974L174.359 158.975V153.845H169.23V158.974Z" fill="#231F20"/>
<path d="M169.23 174.359H174.359V169.23H169.23V174.359Z" fill="#231F20"/>
<path d="M169.23 169.23H174.359V164.104H169.23V169.23Z" fill="#231F20"/>
<path d="M169.23 179.488H174.359V174.359H169.23V179.488Z" fill="#231F20"/>
<path d="M169.23 153.845H174.359V148.717L169.23 148.716V153.845Z" fill="#D2972C"/>
<path d="M169.23 138.461H174.359V133.332H169.23V138.461Z" fill="#D2972C"/>
<path d="M169.23 133.334H174.359V128.205L169.23 128.205V133.334Z" fill="#D2972C"/>
<path d="M123.074 184.614H128.204V179.486H123.074V184.614Z" fill="#A7721D"/>
<path d="M25.6404 66.6676H30.7689L30.769 61.5385H25.6404L25.6404 66.6676Z" fill="#EFBB42"/>
<path d="M133.332 184.614H138.461V179.486H133.332V184.614Z" fill="#231F20"/>
<path d="M128.204 184.614H133.332V179.486H128.204V184.614Z" fill="#C18623"/>
<path d="M153.844 184.614H158.971V179.486H153.844V184.614Z" fill="#C18623"/>
<path d="M158.973 184.614H164.101V179.486H158.973V184.614Z" fill="#C18623"/>
<path d="M164.101 184.614H169.23V179.486H164.101V184.614Z" fill="#231F20"/>
<path d="M169.23 128.205L174.359 128.205V123.078L169.23 123.078V128.205Z" fill="#EFBB42"/>
<path d="M148.719 184.614H153.847V179.486H148.719V184.614Z" fill="#231F20"/>
<path d="M169.23 148.716L174.359 148.717V143.588H169.23V148.716Z" fill="#EFBB42"/>
<path d="M169.23 56.4102H174.359L174.359 51.2832H169.23V56.4102Z" fill="#231F20"/>
<path d="M169.23 61.5387H174.359V56.4102H169.23V61.5387Z" fill="#F0D159"/>
<path d="M169.23 66.668H174.359V61.5387H169.23V66.668Z" fill="#EFBB42"/>
<path d="M169.23 71.7965H174.359V66.668H169.23V71.7965Z" fill="#EFBB42"/>
<path d="M169.23 92.3082H174.359V87.1797H169.23V92.3082Z" fill="#EFBB42"/>
<path d="M169.23 102.564H174.359V97.4352H169.23V102.564Z" fill="#EFBB42"/>
<path d="M169.23 112.82L174.359 112.82V107.691L169.23 107.692V112.82Z" fill="#EFBB42"/>
<path d="M169.23 76.9222H174.359V71.7949H169.23V76.9222Z" fill="#E39E2B"/>
<path d="M169.23 117.949L174.359 117.949V112.82L169.23 112.82V117.949Z" fill="#EFBB42"/>
<path d="M169.23 107.692L174.359 107.691V102.564H169.23V107.692Z" fill="#EFBB42"/>
<path d="M169.23 82.0504L174.359 82.0508V76.9222H169.23V82.0504Z" fill="#EFBB42"/>
<path d="M169.23 87.178H174.359V82.0508L169.23 82.0504V87.178Z" fill="#EFBB42"/>
<path d="M169.23 123.078L174.359 123.078V117.949L169.23 117.949V123.078Z" fill="#EFBB42"/>
<path d="M169.23 97.4352H174.359V92.3066H169.23V97.4352Z" fill="#EFBB42"/>
<path d="M169.23 143.588H174.359V138.461H169.23V143.588Z" fill="#EFBB42"/>
<path d="M25.6404 76.9222H30.7689V71.7949H25.6404V76.9222Z" fill="#231F20"/>
<path d="M25.6404 82.0524H30.7689V76.9238H25.6404V82.0524Z" fill="#EFBB42"/>
<path d="M25.6404 87.178H30.7689V82.0508H25.6404V87.178Z" fill="#231F20"/>
<path d="M25.6404 71.7965H30.7689V66.6676H25.6404V71.7965Z" fill="#231F20"/>
<path d="M25.6404 92.3063H30.7689V87.178H25.6404V92.3063Z" fill="#D2972C"/>
<path d="M25.6404 97.4352H30.7689V92.3063H25.6404V97.4352Z" fill="#231F20"/>
<path d="M92.3086 184.614H97.4371V179.486H92.3086V184.614Z" fill="#EFBB42"/>
<path d="M117.949 184.614H123.076V179.486H117.949V184.614Z" fill="#231F20"/>
<path d="M87.1797 184.614H92.3086V179.486H87.1797V184.614Z" fill="#EFBB42"/>
<path d="M82.0508 184.614H87.178V179.486H82.0508V184.614Z" fill="#231F20"/>
<path d="M97.4371 184.614H102.566V179.486H97.4371V184.614Z" fill="#231F20"/>
<path d="M76.9219 20.5133H82.0504V15.3848H76.9219V20.5133Z" fill="#231F20"/>
<path d="M71.793 20.5133H76.9219V15.3848H71.793V20.5133Z" fill="#EFBB42"/>
<path d="M56.4102 20.5133H61.5387V15.3848H56.4102V20.5133Z" fill="#231F20"/>
<path d="M66.6641 20.5133H71.793V15.3848H66.6641V20.5133Z" fill="#EFBB42"/>
<path d="M51.2812 20.5133H56.4102V15.3848H51.2812V20.5133Z" fill="#231F20"/>
<path d="M61.5387 20.5133H66.6663V15.3848H61.5387V20.5133Z" fill="#231F20"/>
<path d="M35.8984 20.5133H41.027V15.3848H35.8984V20.5133Z" fill="#231F20"/>
<path d="M41.027 20.5133H46.1559V15.3848H41.027V20.5133Z" fill="#EFBB42"/>
<path d="M46.1523 20.5133H51.2796V15.3848H46.1523V20.5133Z" fill="#231F20"/>
<path d="M184.613 169.231H189.742V164.104H184.613V169.231Z" fill="#231F20"/>
<path d="M184.613 164.102H189.742V158.975H184.613V164.102Z" fill="#D2972C"/>
<path d="M184.613 133.334H189.742V128.205H184.613V133.334Z" fill="#EFBB42"/>
<path d="M184.613 158.975H189.742V153.846H184.613V158.975Z" fill="#EFBB42"/>
<path d="M184.613 148.716H189.742V143.588H184.613V148.716Z" fill="#EFBB42"/>
<path d="M184.613 138.461H189.742V133.332H184.613V138.461Z" fill="#EFBB42"/>
<path d="M184.613 143.588H189.742V138.461H184.613V143.588Z" fill="#EFBB42"/>
<path d="M184.613 153.846H189.742V148.716H184.613V153.846Z" fill="#EFBB42"/>
<path d="M158.973 199.998H164.101V194.871H158.973V199.998Z" fill="#231F20"/>
<path d="M153.844 199.998H158.971V194.871H153.844V199.998Z" fill="#231F20"/>
<path d="M184.613 71.7965H189.742V66.668H184.613V71.7965Z" fill="#231F20"/>
<path d="M184.613 128.205H189.742V123.078H184.613V128.205Z" fill="#EFBB42"/>
<path d="M184.613 76.9222H189.742V71.7949H184.613V76.9222Z" fill="#231F20"/>
<path d="M184.613 117.949H189.742V112.82H184.613V117.949Z" fill="#EFBB42"/>
<path d="M184.613 112.82H189.742V107.691H184.613V112.82Z" fill="#EFBB42"/>
<path d="M184.613 123.078H189.742V117.949H184.613V123.078Z" fill="#EFBB42"/>
<path d="M184.613 107.691H189.742V102.564H184.613V107.691Z" fill="#EFBB42"/>
<path d="M184.613 97.4352H189.742V92.3066H184.613V97.4352Z" fill="#EFBB42"/>
<path d="M184.613 87.178H189.742V82.0508H184.613V87.178Z" fill="#EFBB42"/>
<path d="M184.613 92.3082H189.742V87.1797H184.613V92.3082Z" fill="#EFBB42"/>
<path d="M184.613 82.0508H189.742V76.9222H184.613V82.0508Z" fill="#D2972C"/>
<path d="M184.613 102.564H189.742V97.4352H184.613V102.564Z" fill="#EFBB42"/>
<path d="M189.742 138.461H194.871V133.332H189.742V138.461Z" fill="#EFBB42"/>
<path d="M189.742 143.588L194.871 143.588V138.461H189.742V143.588Z" fill="#EFBB42"/>
<path d="M189.742 133.334H194.871V128.205H189.742V133.334Z" fill="#EFBB42"/>
<path d="M189.742 153.846L194.871 153.845V148.717L189.742 148.716V153.846Z" fill="#EFBB42"/>
<path d="M189.742 158.975L194.871 158.974V153.845L189.742 153.846V158.975Z" fill="#EFBB42"/>
<path d="M189.742 148.716L194.871 148.717V143.588L189.742 143.588V148.716Z" fill="#EFBB42"/>
<path d="M189.742 112.82L194.871 112.82V107.691H189.742V112.82Z" fill="#EFBB42"/>
<path d="M189.742 128.205H194.871V123.078H189.742V128.205Z" fill="#EFBB42"/>
<path d="M189.742 117.949H194.871V112.82L189.742 112.82V117.949Z" fill="#EFBB42"/>
<path d="M189.742 123.078H194.871V117.949H189.742V123.078Z" fill="#EFBB42"/>
<path d="M189.742 194.871H194.871V189.742H189.742V194.871Z" fill="#231F20"/>
<path d="M189.742 199.998H194.871V194.871H189.742V199.998Z" fill="#231F20"/>
<path d="M189.742 169.231H194.871V164.104H189.742V169.231Z" fill="#D2972C"/>
<path d="M189.742 174.359H194.871V169.231H189.742L189.742 174.359Z" fill="#231F20"/>
<path d="M189.742 164.102H194.871V158.974L189.742 158.975V164.102Z" fill="#EFBB42"/>
<path d="M189.742 179.488H194.871V174.359H189.742V179.488Z" fill="#231F20"/>
<path d="M5.12891 76.9222H10.2562V71.7949H5.12891V76.9222Z" fill="#EFBB42"/>
<path d="M5.12891 82.0524H10.2562V76.9238H5.12891V82.0524Z" fill="#EFBB42"/>
<path d="M5.12891 66.6676H10.2562V61.5391H5.12891V66.6676Z" fill="#F0D159"/>
<path d="M5.12891 71.7965H10.2562V66.6676H5.12891V71.7965Z" fill="#EFBB42"/>
<path d="M5.12891 87.178H10.2562V82.0508H5.12891V87.178Z" fill="#D2972C"/>
<path d="M5.12891 92.3063H10.2562V87.178H5.12891V92.3063Z" fill="#231F20"/>
<path d="M5.12891 61.5391H10.2562L10.2561 56.41H5.12885L5.12891 61.5391Z" fill="#231F20"/>
<path d="M148.719 199.998H153.847V194.871H148.719V199.998Z" fill="#231F20"/>
<path d="M123.074 199.998H128.204V194.871H123.074V199.998Z" fill="#231F20"/>
<path d="M179.484 117.949H184.613V112.82H179.484V117.949Z" fill="#EFBB42"/>
<path d="M179.484 123.078L184.613 123.078V117.949H179.484V123.078Z" fill="#EFBB42"/>
<path d="M179.484 112.82H184.613V107.691H179.484V112.82Z" fill="#EFBB42"/>
<path d="M179.484 128.205L184.613 128.205V123.078L179.484 123.078V128.205Z" fill="#EFBB42"/>
<path d="M179.484 133.334H184.613V128.205L179.484 128.205V133.334Z" fill="#EFBB42"/>
<path d="M179.484 97.4352H184.613V92.3066H179.484V97.4352Z" fill="#EFBB42"/>
<path d="M179.484 87.178H184.613V82.0508H179.484V87.178Z" fill="#EFBB42"/>
<path d="M179.484 138.461H184.613V133.332H179.484V138.461Z" fill="#EFBB42"/>
<path d="M179.484 102.564L184.613 102.564V97.4352H179.484V102.564Z" fill="#EFBB42"/>
<path d="M179.484 107.691H184.613V102.564L179.484 102.564V107.691Z" fill="#EFBB42"/>
<path d="M179.484 92.3082H184.613V87.1797H179.484V92.3082Z" fill="#EFBB42"/>
<path d="M179.484 143.588L184.613 143.588V138.461H179.484V143.588Z" fill="#EFBB42"/>
<path d="M179.484 164.102H184.613V158.975H179.484V164.102Z" fill="#231F20"/>
<path d="M179.484 148.716H184.613V143.588L179.484 143.588V148.716Z" fill="#EFBB42"/>
<path d="M179.484 153.845L184.613 153.846V148.716H179.484V153.845Z" fill="#EFBB42"/>
<path d="M179.484 158.975H184.613V153.846L179.484 153.845V158.975Z" fill="#EFBB42"/>
<path d="M143.59 199.998H148.719V194.871H143.59V199.998Z" fill="#231F20"/>
<path d="M179.484 71.7965H184.613V66.668H179.484V71.7965Z" fill="#D2972C"/>
<path d="M179.484 66.668H184.613L184.613 61.5391H179.484V66.668Z" fill="#231F20"/>
<path d="M179.484 76.9222H184.613V71.7949H179.484V76.9222Z" fill="#EFBB42"/>
<path d="M179.484 82.0508H184.613V76.9222H179.484V82.0508Z" fill="#EFBB42"/>
<path d="M143.59 194.871H148.719L148.718 189.742H143.59V194.871Z" fill="#231F20"/>
<path d="M148.719 194.871H153.847V189.742H148.718L148.719 194.871Z" fill="#A7721D"/>
<path d="M123.074 194.871H128.204V189.742H123.074V194.871Z" fill="#A7721D"/>
<path d="M128.204 194.871L133.332 194.871V189.742H128.204V194.871Z" fill="#A7721D"/>
<path d="M133.332 194.871H138.461V189.742H133.332V194.871Z" fill="#A7721D"/>
<path d="M164.101 194.871L169.23 194.871V189.742H164.102L164.101 194.871Z" fill="#231F20"/>
<path d="M158.973 194.871H164.101L164.102 189.742H158.973V194.871Z" fill="#A7721D"/>
<path d="M153.844 194.871H158.971V189.742H153.844V194.871Z" fill="#A7721D"/>
<path d="M138.461 194.871L143.59 194.871V189.742H138.461V194.871Z" fill="#231F20"/>
<path d="M92.3086 194.871H97.4371V189.742H92.3086V194.871Z" fill="#D2972C"/>
<path d="M82.0508 194.871H87.178V189.742H82.0508V194.871Z" fill="#D2972C"/>
<path d="M87.1797 189.742V194.871H92.3086V189.742H87.1797Z" fill="#D2972C"/>
<path d="M76.9219 194.871H82.0508V189.742H76.9219V194.871Z" fill="#231F20"/>
<path d="M97.4371 194.871H102.566V189.742H97.4371V194.871Z" fill="#231F20"/>
<path d="M117.949 194.871H123.076V189.742H117.949V194.871Z" fill="#231F20"/>
<path d="M128.204 199.998H133.332V194.871L128.204 194.871V199.998Z" fill="#231F20"/>
<path d="M92.3086 199.998H97.4371V194.871H92.3086V199.998Z" fill="#231F20"/>
<path d="M117.949 199.998H123.076V194.871H117.949V199.998Z" fill="#231F20"/>
<path d="M133.332 199.998H138.461V194.871H133.332V199.998Z" fill="#231F20"/>
<path d="M87.1797 194.871V200L92.3086 199.998V194.871H87.1797Z" fill="#231F20"/>
<path d="M82.0508 200H87.178V194.871H82.0508V200Z" fill="#231F20"/>
<path d="M76.9219 200H82.0508V194.871H76.9219V200Z" fill="#231F20"/>
<path d="M97.4371 199.998H102.566V194.871H97.4371V199.998Z" fill="#231F20"/>
<path d="M56.4102 25.6422H61.5387V20.5133H56.4102V25.6422Z" fill="#EFBB42"/>
<path d="M61.5387 25.6422H66.6663V20.5133H61.5387V25.6422Z" fill="#EFBB42"/>
<path d="M66.6641 25.6422H71.7926L71.793 20.5133H66.6641V25.6422Z" fill="#EFBB42"/>
<path d="M51.2812 25.6422H56.4102V20.5133H51.2812V25.6422Z" fill="#EFBB42"/>
<path d="M71.7926 25.6422H76.9215L76.9219 20.5133H71.793L71.7926 25.6422Z" fill="#231F20"/>
<path d="M35.8984 25.6422H41.027V20.5133H35.8984V25.6422Z" fill="#F0D159"/>
<path d="M30.7695 25.6422H35.8984V20.5133L30.7695 20.5137V25.6422Z" fill="#231F20"/>
<path d="M46.1523 25.6422H51.2796V20.5133H46.1523V25.6422Z" fill="#EFBB42"/>
<path d="M41.027 25.6422H46.1559V20.5133H41.027V25.6422Z" fill="#F0D159"/>
<path d="M10.2539 71.7965H15.3828V66.668H10.2539V71.7965Z" fill="#231F20"/>
<path d="M10.2539 82.0504L15.3828 82.0508V76.9219H10.2539V82.0504Z" fill="#EFBB42"/>
<path d="M10.2539 66.668H15.3828V61.5387L10.2539 61.5391V66.668Z" fill="#EFBB42"/>
<path d="M10.2539 76.9219H15.3828V71.7949H10.2539V76.9219Z" fill="#D2972C"/>
<path d="M10.2539 92.3082H15.3828V87.1797H10.2539V92.3082Z" fill="#D2972C"/>
<path d="M10.2539 97.4352H15.3828V92.3066H10.2539V97.4352Z" fill="#231F20"/>
<path d="M10.2539 87.178H15.3828V82.0508L10.2539 82.0504V87.178Z" fill="#EFBB42"/>
<path d="M10.2539 56.4105H15.3828V51.2828L10.2539 51.2832V56.4105Z" fill="#231F20"/>
<path d="M10.2539 61.5391L15.3828 61.5387V56.4105H10.2539V61.5391Z" fill="#F0D159"/>
<path d="M97.4375 133.334H102.566V128.205H97.4375V133.334Z" fill="#EFBB42"/>
<path d="M133.332 87.178H138.461V82.0508H133.332V87.178Z" fill="#EFBB42"/>
<path d="M133.332 71.7965H138.461V66.668H133.332V71.7965Z" fill="#D2972C"/>
<path d="M123.074 71.7965H128.204V66.668H123.074V71.7965Z" fill="#EFBB42"/>
<path d="M133.332 76.9222H138.461V71.7949H133.332V76.9222Z" fill="#EFBB42"/>
<path d="M133.332 82.0508H138.461V76.9222H133.332V82.0508Z" fill="#EFBB42"/>
<path d="M128.204 71.7965H133.332V66.668H128.204V71.7965Z" fill="#EFBB42"/>
<path d="M102.566 71.7965H107.694V66.668H102.566V71.7965Z" fill="#231F20"/>
<path d="M117.949 71.7965H123.076V66.668H117.949V71.7965Z" fill="#EFBB42"/>
<path d="M107.691 71.7965H112.82V66.668H107.691V71.7965Z" fill="#F0D159"/>
<path d="M128.203 76.9222H133.332V71.7949H128.203V76.9222Z" fill="#EFBB42"/>
<path d="M133.332 102.564H138.461V97.4355H133.332V102.564Z" fill="#EFBB42"/>
<path d="M133.332 128.205H138.461V123.078H133.332V128.205Z" fill="#EFBB42"/>
<path d="M133.332 123.078H138.461V117.949H133.332V123.078Z" fill="#EFBB42"/>
<path d="M133.332 92.3082H138.461V87.1797H133.332V92.3082Z" fill="#EFBB42"/>
<path d="M133.332 133.334H138.461V128.205H133.332V133.334Z" fill="#EFBB42"/>
<path d="M133.332 117.949H138.461V112.82H133.332V117.949Z" fill="#EFBB42"/>
<path d="M133.332 138.461H138.461V133.332H133.332V138.461Z" fill="#EFBB42"/>
<path d="M133.332 112.82H138.461V107.691H133.332V112.82Z" fill="#EFBB42"/>
<path d="M133.332 97.4355H138.461V92.3066H133.332V97.4355Z" fill="#EFBB42"/>
<path d="M133.332 107.691H138.461V102.564H133.332V107.691Z" fill="#EFBB42"/>
<path d="M56.4102 87.178H61.5387V82.0508H56.4102V87.178Z" fill="#231F20"/>
<path d="M56.4102 92.3082H61.5387V87.1797H56.4102V92.3082Z" fill="#231F20"/>
<path d="M133.332 143.588H138.461V138.461H133.332V143.588Z" fill="#D2972C"/>
<path d="M76.9219 71.7965H82.0504V66.668H76.9219V71.7965Z" fill="#231F20"/>
<path d="M56.4102 82.0508H61.5387V76.9219H56.4102V82.0508Z" fill="#231F20"/>
<path d="M71.793 71.7965H76.9219V66.668H71.793V71.7965Z" fill="#EFBB42"/>
<path d="M56.4102 71.7965H61.5387V66.668H56.4102V71.7965Z" fill="#EFBB42"/>
<path d="M56.4102 76.9219H61.5387V71.7949H56.4102V76.9219Z" fill="#D2972C"/>
<path d="M66.6641 71.7965H71.793V66.668H66.6641V71.7965Z" fill="#D2972C"/>
<path d="M61.5387 71.7965H66.6663V66.668H61.5387V71.7965Z" fill="#EFBB42"/>
<path d="M61.5387 82.0508L66.6663 82.0504V76.9219H61.5387V82.0508Z" fill="#D2972C"/>
<path d="M61.5387 76.9219H66.6663V71.7949H61.5387V76.9219Z" fill="#D2972C"/>
<path d="M71.793 76.9222H76.9215V71.7949H71.793V76.9222Z" fill="#EFBB42"/>
<path d="M66.6641 76.9222H71.793V71.7949H66.6641V76.9222Z" fill="#EFBB42"/>
<path d="M61.5387 87.178H66.6663V82.0504L61.5387 82.0508V87.178Z" fill="#D2972C"/>
<path d="M61.5391 107.692H66.6663V102.564H61.5391V107.692Z" fill="#231F20"/>
<path d="M76.9215 76.9222H82.0504V71.7949H76.9215V76.9222Z" fill="#231F20"/>
<path d="M61.5391 97.4352H66.6663V92.3066H61.5391V97.4352Z" fill="#231F20"/>
<path d="M61.5387 92.3082H66.6663V87.1797H61.5387V92.3082Z" fill="#D2972C"/>
<path d="M61.5391 102.564H66.6663V97.4352H61.5391V102.564Z" fill="#231F20"/>
<path d="M107.691 76.9222H112.82V71.7949H107.691V76.9222Z" fill="#EFBB42"/>
<path d="M133.332 148.716H138.461V143.588H133.332V148.716Z" fill="#231F20"/>
<path d="M123.074 76.9222H128.203V71.7949H123.074V76.9222Z" fill="#E39E2B"/>
<path d="M112.82 76.9222H117.949V71.7949H112.82V76.9222Z" fill="#EFBB42"/>
<path d="M102.566 76.9222H107.694V71.7949H102.566V76.9222Z" fill="#F0D159"/>
<path d="M97.4375 76.9222H102.566V71.7949H97.4375V76.9222Z" fill="#231F20"/>
<path d="M117.949 76.9222H123.076V71.7949H117.949V76.9222Z" fill="#EFBB42"/>
<path d="M102.566 148.716H107.694V143.588H102.566V148.716Z" fill="#EFBB42"/>
<path d="M107.692 148.716H112.82V143.588H107.692V148.716Z" fill="#D2972C"/>
<path d="M92.3086 148.716H97.4371V143.588H92.3086V148.716Z" fill="#231F20"/>
<path d="M128.203 148.716H133.332V143.588L128.203 143.588V148.716Z" fill="#231F20"/>
<path d="M112.82 148.716H117.949V143.588H112.82V148.716Z" fill="#231F20"/>
<path d="M123.074 148.716H128.203V143.588H123.074V148.716Z" fill="#231F20"/>
<path d="M117.949 148.716H123.076V143.588H117.949V148.716Z" fill="#231F20"/>
<path d="M97.4371 148.716H102.566V143.588H97.4371V148.716Z" fill="#EFBB42"/>
<path d="M112.82 71.7965H117.949V66.668H112.82V71.7965Z" fill="#EFBB42"/>
<path d="M51.2812 87.178H56.4102V82.0508H51.2812V87.178Z" fill="#231F20"/>
<path d="M51.2812 66.6676L56.4102 66.668L56.4098 61.5391H51.2812V66.6676Z" fill="#EFBB42"/>
<path d="M51.2812 76.9222L56.4102 76.9219V71.7949H51.2812V76.9222Z" fill="#EFBB42"/>
<path d="M51.2812 71.7965H56.4102V66.668L51.2812 66.6676V71.7965Z" fill="#EFBB42"/>
<path d="M51.2812 82.0508H56.4102V76.9219L51.2812 76.9222V82.0508Z" fill="#D2972C"/>
<path d="M71.793 66.668H76.9219L76.9215 61.5391H71.793V66.668Z" fill="#EFBB42"/>
<path d="M66.6641 66.668H71.793V61.5391H66.6641V66.668Z" fill="#EFBB42"/>
<path d="M102.566 66.668L107.695 66.6676V61.5391H102.566V66.668Z" fill="#231F20"/>
<path d="M76.9219 66.668H82.0504V61.5391H76.9215L76.9219 66.668Z" fill="#231F20"/>
<path d="M56.4102 66.668H61.5387V61.5391H56.4098L56.4102 66.668Z" fill="#EFBB42"/>
<path d="M61.5387 66.668H66.6663V61.5391H61.5387V66.668Z" fill="#EFBB42"/>
<path d="M87.1797 153.846V158.974H92.3082V153.846H87.1797Z" fill="#231F20"/>
<path d="M92.3082 158.974H97.4371V153.846H92.3082V158.974Z" fill="#F0D159"/>
<path d="M97.4371 158.974H102.566V153.846H97.4371V158.974Z" fill="#EFBB42"/>
<path d="M107.692 158.974H112.82V153.846H107.692V158.974Z" fill="#231F20"/>
<path d="M112.82 158.974H117.949V153.846H112.82V158.974Z" fill="#8D5B1A"/>
<path d="M102.566 158.974H107.694V153.846H102.566V158.974Z" fill="#D2972C"/>
<path d="M97.4371 153.846H102.566L102.566 148.716H97.4371V153.846Z" fill="#EFBB42"/>
<path d="M112.82 153.846H117.949L117.949 148.716H112.82L112.82 153.846Z" fill="#8D5B1A"/>
<path d="M123.074 153.845H128.204L128.203 148.716H123.074V153.845Z" fill="#231F20"/>
<path d="M102.566 153.846H107.694V148.716H102.566L102.566 153.846Z" fill="#EFBB42"/>
<path d="M107.692 153.846H112.82L112.82 148.716H107.692L107.692 153.846Z" fill="#231F20"/>
<path d="M117.949 153.846L123.076 153.845V148.716H117.949L117.949 153.846Z" fill="#8D5B1A"/>
<path d="M138.461 148.716H143.589V143.588L138.461 143.588V148.716Z" fill="#231F20"/>
<path d="M138.461 143.588L143.589 143.588V138.461L138.461 138.461V143.588Z" fill="#D2972C"/>
<path d="M92.3082 153.846H97.4371V148.716H92.3086L92.3082 153.846Z" fill="#231F20"/>
<path d="M107.691 66.668H112.82L112.82 61.5391H107.692L107.691 66.668Z" fill="#F0D159"/>
<path d="M138.461 71.7965H143.589V66.668H138.461V71.7965Z" fill="#231F20"/>
<path d="M133.332 66.668H138.461V61.5391H133.332V66.668Z" fill="#231F20"/>
<path d="M138.461 82.0508L143.589 82.0504V76.9219L138.461 76.9222V82.0508Z" fill="#EFBB42"/>
<path d="M138.461 138.461L143.589 138.461V133.332H138.461V138.461Z" fill="#EFBB42"/>
<path d="M112.82 66.668H117.949L117.949 61.5391H112.82L112.82 66.668Z" fill="#F0D159"/>
<path d="M138.461 87.178H143.589V82.0504L138.461 82.0508V87.178Z" fill="#EFBB42"/>
<path d="M117.949 66.668H123.076V61.5391H117.949L117.949 66.668Z" fill="#EFBB42"/>
<path d="M123.074 66.668H128.204V61.5391H123.074V66.668Z" fill="#EFBB42"/>
<path d="M128.204 66.668H133.332V61.5391H128.204V66.668Z" fill="#F0D159"/>
<path d="M138.461 76.9222L143.589 76.9219V71.7949H138.461V76.9222Z" fill="#D2972C"/>
<path d="M138.461 128.205H143.589V123.078H138.461V128.205Z" fill="#EFBB42"/>
<path d="M138.461 123.078H143.589V117.949H138.461V123.078Z" fill="#EFBB42"/>
<path d="M138.461 133.334H143.589V128.205H138.461V133.334Z" fill="#EFBB42"/>
<path d="M138.461 92.3082H143.589V87.1797H138.461V92.3082Z" fill="#EFBB42"/>
<path d="M138.461 117.949H143.589V112.82H138.461V117.949Z" fill="#EFBB42"/>
<path d="M138.461 97.4355L143.589 97.4352V92.3066H138.461V97.4355Z" fill="#EFBB42"/>
<path d="M138.461 112.82H143.589V107.691H138.461V112.82Z" fill="#EFBB42"/>
<path d="M138.461 102.564H143.589V97.4352L138.461 97.4355V102.564Z" fill="#EFBB42"/>
<path d="M138.461 107.691H143.589V102.564H138.461V107.691Z" fill="#EFBB42"/>
<path d="M102.566 117.949H107.694V112.82H102.566V117.949Z" fill="#EFBB42"/>
<path d="M76.9219 92.3082H82.0504V87.1797H76.9219V92.3082Z" fill="#EFBB42"/>
<path d="M76.9219 97.4352H82.0504V92.3066H76.9219V97.4352Z" fill="#EFBB42"/>
<path d="M76.9219 128.205H82.0504V123.078H76.9219V128.205Z" fill="#231F20"/>
<path d="M82.0504 92.3082H87.178V87.1797H82.0504V92.3082Z" fill="#EFBB42"/>
<path d="M87.1797 92.3082H92.3082V87.1797H87.1797V92.3082Z" fill="#231F20"/>
<path d="M76.9219 102.564H82.0504V97.4352H76.9219V102.564Z" fill="#EFBB42"/>
<path d="M76.9219 107.692H82.0504V102.564H76.9219V107.692Z" fill="#EFBB42"/>
<path d="M76.9219 117.949H82.0504V112.82H76.9219V117.949Z" fill="#EFBB42"/>
<path d="M76.9219 123.078H82.0504V117.949H76.9219V123.078Z" fill="#D2972C"/>
<path d="M76.9219 112.82H82.0504V107.692H76.9219V112.82Z" fill="#EFBB42"/>
<path d="M92.3082 92.3082H97.4371V87.1797H92.3082V92.3082Z" fill="#EFBB42"/>
<path d="M112.82 107.692H117.949V102.564H112.82V107.692Z" fill="#EFBB42"/>
<path d="M97.4371 92.3082H102.566V87.1797H97.4371V92.3082Z" fill="#EFBB42"/>
<path d="M112.82 112.82H117.949V107.692H112.82V112.82Z" fill="#EFBB42"/>
<path d="M112.82 123.078H117.949V117.949H112.82V123.078Z" fill="#EFBB42"/>
<path d="M112.82 117.949H117.949L117.949 112.82H112.82L112.82 117.949Z" fill="#EFBB42"/>
<path d="M112.82 102.564H117.949V97.4357H112.82V102.564Z" fill="#EFBB42"/>
<path d="M102.566 92.3082H107.694V87.1797H102.566V92.3082Z" fill="#E39E2B"/>
<path d="M107.691 92.3082H112.82V87.1797H107.691V92.3082Z" fill="#EFBB42"/>
<path d="M112.82 92.3063H117.949V87.1777H112.82V92.3063Z" fill="#EFBB42"/>
<path d="M112.82 97.4357H117.949L117.949 92.3063H112.82L112.82 97.4357Z" fill="#EFBB42"/>
<path d="M117.949 117.949L123.076 117.949V112.82L117.949 112.82L117.949 117.949Z" fill="#EFBB42"/>
<path d="M117.949 107.692L123.076 107.692V102.564L117.949 102.564V107.692Z" fill="#EFBB42"/>
<path d="M117.949 102.564L123.076 102.564V97.4355L117.949 97.4357V102.564Z" fill="#EFBB42"/>
<path d="M117.949 112.82L123.076 112.82V107.692L117.949 107.692V112.82Z" fill="#EFBB42"/>
<path d="M117.949 97.4357L123.076 97.4355V92.3066L117.949 92.3063L117.949 97.4357Z" fill="#EFBB42"/>
<path d="M112.82 128.203H117.949V123.076H112.82V128.203Z" fill="#EFBB42"/>
<path d="M82.0504 128.205H87.178V123.078H82.0504V128.205Z" fill="#D2972C"/>
<path d="M128.203 82.0504L133.332 82.0508V76.9222H128.203V82.0504Z" fill="#E39E2B"/>
<path d="M117.949 92.3082H123.076V87.1797H117.949V92.3082Z" fill="#EFBB42"/>
<path d="M112.82 87.1777H117.949V82.0508H112.82V87.1777Z" fill="#EFBB42"/>
<path d="M117.949 87.1777L123.076 87.178V82.0508H117.949V87.1777Z" fill="#EFBB42"/>
<path d="M107.691 87.178L112.82 87.1777V82.0508H107.691V87.178Z" fill="#E39E2B"/>
<path d="M92.3086 133.334H97.4375V128.205H92.3086V133.334Z" fill="#EFBB42"/>
<path d="M87.1797 128.205V133.334H92.3086V128.205H87.1797Z" fill="#D2972C"/>
<path d="M82.0508 133.334H87.178V128.205H82.0504L82.0508 133.334Z" fill="#231F20"/>
<path d="M189.742 107.691H194.871V102.564H189.742V107.691Z" fill="#EFBB42"/>
<path d="M117.949 128.205H123.076V123.078L117.949 123.078L117.949 128.205Z" fill="#EFBB42"/>
<path d="M112.82 133.334H117.949L117.949 128.205L112.82 128.205V133.334Z" fill="#EFBB42"/>
<path d="M117.949 133.334H123.076V128.205H117.949L117.949 133.334Z" fill="#D2972C"/>
<path d="M107.692 133.334H112.82V128.205H107.692V133.334Z" fill="#EFBB42"/>
<path d="M102.566 133.334H107.694V128.205H102.566V133.334Z" fill="#EFBB42"/>
<path d="M107.692 128.203H112.82V123.076H107.692V128.203Z" fill="#EFBB42"/>
<path d="M87.1797 112.82H92.3082V107.691H87.1797V112.82Z" fill="#EFBB42"/>
<path d="M87.1797 107.691H92.3082V102.564H87.1797V107.691Z" fill="#EFBB42"/>
<path d="M102.566 87.178H107.694V82.0508H102.566V87.178Z" fill="#EFBB42"/>
<path d="M87.1797 102.564H92.3082V97.4355H87.1797V102.564Z" fill="#EFBB42"/>
<path d="M87.1797 117.949H92.3082V112.82H87.1797V117.949Z" fill="#EFBB42"/>
<path d="M97.4375 102.564H102.566V97.4355H97.4375V102.564Z" fill="#EFBB42"/>
<path d="M102.566 123.078H107.694V117.949H102.566V123.078Z" fill="#EFBB42"/>
<path d="M107.692 123.078H112.82V117.949H107.692V123.078Z" fill="#EFBB42"/>
<path d="M97.4375 123.078H102.566V117.949L97.4375 117.949V123.078Z" fill="#EFBB42"/>
<path d="M92.3086 123.078H97.4375V117.949L92.3082 117.949L92.3086 123.078Z" fill="#E39E2B"/>
<path d="M92.3082 117.949L97.4375 117.949L97.4371 112.82L92.3082 112.82V117.949Z" fill="#EFBB42"/>
<path d="M97.4371 112.82H102.566L102.566 107.691H97.4375L97.4371 112.82Z" fill="#EFBB42"/>
<path d="M92.3082 112.82L97.4371 112.82L97.4375 107.691H92.3082V112.82Z" fill="#EFBB42"/>
<path d="M92.3082 107.691H97.4375V102.564L92.3082 102.564V107.691Z" fill="#EFBB42"/>
<path d="M97.4375 107.691H102.566V102.564H97.4375V107.691Z" fill="#EFBB42"/>
<path d="M102.566 102.564H107.694V97.4355H102.566V102.564Z" fill="#EFBB42"/>
<path d="M102.566 112.82H107.694V107.691H102.566L102.566 112.82Z" fill="#EFBB42"/>
<path d="M97.4375 117.949L102.566 117.949V112.82H97.4371L97.4375 117.949Z" fill="#EFBB42"/>
<path d="M102.566 107.691H107.694V102.564H102.566V107.691Z" fill="#EFBB42"/>
<path d="M117.949 158.974L123.076 158.974V153.845L117.949 153.846V158.974Z" fill="#C18623"/>
<path d="M92.3082 102.564L97.4375 102.564V97.4355H92.3082V102.564Z" fill="#EFBB42"/>
<path d="M82.0504 117.949H87.178V112.82H82.0504V117.949Z" fill="#EFBB42"/>
<path d="M87.1797 123.078H92.3086L92.3082 117.949H87.1797V123.078Z" fill="#EFBB42"/>
<path d="M82.0504 123.078H87.178V117.949H82.0504V123.078Z" fill="#EFBB42"/>
<path d="M82.0504 112.82H87.178V107.691L82.0504 107.692V112.82Z" fill="#EFBB42"/>
<path d="M82.0504 107.692L87.178 107.691V102.564L82.0504 102.564V107.692Z" fill="#EFBB42"/>
<path d="M87.1797 128.205H92.3086V123.078H87.1797V128.205Z" fill="#EFBB42"/>
<path d="M97.4375 128.205H102.566L102.566 123.078H97.4375V128.205Z" fill="#E39E2B"/>
<path d="M102.566 128.205H107.694V123.078H102.566L102.566 128.205Z" fill="#EFBB42"/>
<path d="M82.0504 102.564L87.178 102.564V97.4355L82.0504 97.4352V102.564Z" fill="#EFBB42"/>
<path d="M92.3086 128.205H97.4375V123.078H92.3086V128.205Z" fill="#EFBB42"/>
<path d="M97.4375 97.4355H102.566V92.3066H97.4375V97.4355Z" fill="#EFBB42"/>
<path d="M107.691 97.4352L112.82 97.4357L112.82 92.3063L107.691 92.3066V97.4352Z" fill="#EFBB42"/>
<path d="M107.692 107.692H112.82V102.564H107.692V107.692Z" fill="#EFBB42"/>
<path d="M107.692 102.564H112.82V97.4357L107.691 97.4352L107.692 102.564Z" fill="#EFBB42"/>
<path d="M107.692 112.82H112.82V107.692H107.692V112.82Z" fill="#EFBB42"/>
<path d="M92.3082 97.4355H97.4375V92.3066H92.3086L92.3082 97.4355Z" fill="#EFBB42"/>
<path d="M87.1797 97.4355H92.3082L92.3086 92.3066H87.1797V97.4355Z" fill="#EFBB42"/>
<path d="M82.0504 97.4352L87.178 97.4355V92.3066H82.0504V97.4352Z" fill="#EFBB42"/>
<path d="M102.566 97.4355H107.694V92.3066H102.566V97.4355Z" fill="#EFBB42"/>
<path d="M107.692 117.949H112.82L112.82 112.82H107.692L107.692 117.949Z" fill="#EFBB42"/>
<path d="M117.949 123.078L123.076 123.078V117.949L117.949 117.949V123.078Z" fill="#EFBB42"/>
<path d="M66.6641 117.949H71.7926V112.82H66.6641V117.949Z" fill="#231F20"/>
<path d="M66.6641 112.82H71.7926V107.691H66.6641V112.82Z" fill="#231F20"/>
<path d="M66.6641 107.691H71.7926V102.564H66.6641V107.691Z" fill="#D2972C"/>
<path d="M76.9219 82.0504H82.0504V76.9222H76.9215L76.9219 82.0504Z" fill="#231F20"/>
<path d="M71.793 82.0504H76.9219L76.9215 76.9222H71.793V82.0504Z" fill="#EFBB42"/>
<path d="M66.6641 87.178H71.7926L71.793 82.0504L66.6641 82.0508V87.178Z" fill="#EFBB42"/>
<path d="M66.6641 82.0508L71.793 82.0504V76.9222H66.6641V82.0508Z" fill="#EFBB42"/>
<path d="M66.6641 92.3082H71.7926V87.1797H66.6641V92.3082Z" fill="#EFBB42"/>
<path d="M66.6641 97.4352H71.7926V92.3066H66.6641V97.4352Z" fill="#EFBB42"/>
<path d="M66.6641 102.564H71.7926V97.4352H66.6641V102.564Z" fill="#D2972C"/>
<path d="M128.203 112.82L133.332 112.82V107.691H128.203V112.82Z" fill="#EFBB42"/>
<path d="M128.203 107.691H133.332V102.564L128.203 102.564V107.691Z" fill="#EFBB42"/>
<path d="M128.203 117.949L133.332 117.949V112.82L128.203 112.82V117.949Z" fill="#EFBB42"/>
<path d="M128.203 123.078L133.332 123.078V117.949L128.203 117.949V123.078Z" fill="#EFBB42"/>
<path d="M92.3086 82.0504H97.4371L97.4375 76.9222L92.3086 76.9219V82.0504Z" fill="#231F20"/>
<path d="M128.203 97.4352L133.332 97.4355V92.3066H128.203V97.4352Z" fill="#EFBB42"/>
<path d="M128.203 102.564L133.332 102.564V97.4355L128.203 97.4352V102.564Z" fill="#EFBB42"/>
<path d="M128.203 92.3082H133.332V87.1797H128.203V92.3082Z" fill="#EFBB42"/>
<path d="M128.203 87.178H133.332V82.0508L128.203 82.0504V87.178Z" fill="#EFBB42"/>
<path d="M128.203 133.334H133.332V128.205L128.203 128.205V133.334Z" fill="#EFBB42"/>
<path d="M128.203 128.205L133.332 128.205V123.078L128.203 123.078V128.205Z" fill="#EFBB42"/>
<path d="M102.566 143.588H107.694V138.461H102.566V143.588Z" fill="#EFBB42"/>
<path d="M97.4371 143.588H102.566V138.461H97.4375L97.4371 143.588Z" fill="#EFBB42"/>
<path d="M107.692 143.588H112.82V138.461H107.692V143.588Z" fill="#EFBB42"/>
<path d="M128.203 138.461H133.332V133.332H128.203V138.461Z" fill="#EFBB42"/>
<path d="M92.3086 143.588H97.4371L97.4375 138.461H92.3086V143.588Z" fill="#231F20"/>
<path d="M123.074 143.588H128.203V138.461L123.074 138.461V143.588Z" fill="#D2972C"/>
<path d="M128.203 143.588L133.332 143.588V138.461H128.203V143.588Z" fill="#D2972C"/>
<path d="M112.82 143.588H117.949V138.461H112.82V143.588Z" fill="#231F20"/>
<path d="M117.949 143.588H123.076V138.461H117.949V143.588Z" fill="#D2972C"/>
<path d="M97.4371 82.0504L102.566 82.0508V76.9222H97.4375L97.4371 82.0504Z" fill="#F0D159"/>
<path d="M97.4375 87.178H102.566V82.0508L97.4371 82.0504L97.4375 87.178Z" fill="#EFBB42"/>
<path d="M71.793 123.078L76.9219 123.078V117.949H71.7926L71.793 123.078Z" fill="#231F20"/>
<path d="M71.7926 117.949H76.9219V112.82H71.7926V117.949Z" fill="#D2972C"/>
<path d="M87.1797 133.332V138.461L92.3086 138.461L92.3082 133.332H87.1797Z" fill="#231F20"/>
<path d="M92.3086 138.461H97.4375L97.4371 133.332H92.3082L92.3086 138.461Z" fill="#D2972C"/>
<path d="M71.7926 112.82H76.9219V107.692L71.7926 107.691V112.82Z" fill="#EFBB42"/>
<path d="M71.7926 102.564L76.9219 102.564V97.4352H71.7926V102.564Z" fill="#EFBB42"/>
<path d="M71.7926 107.691L76.9219 107.692V102.564L71.7926 102.564V107.691Z" fill="#EFBB42"/>
<path d="M82.0508 87.178H87.178V82.0508L82.0504 82.0504L82.0508 87.178Z" fill="#231F20"/>
<path d="M92.3086 87.178H97.4375L97.4371 82.0504H92.3086V87.178Z" fill="#231F20"/>
<path d="M76.9219 87.178H82.0508L82.0504 82.0504H76.9219V87.178Z" fill="#EFBB42"/>
<path d="M71.7926 97.4352H76.9219V92.3066H71.7926V97.4352Z" fill="#EFBB42"/>
<path d="M97.4375 138.461H102.566L102.566 133.332H97.4371L97.4375 138.461Z" fill="#EFBB42"/>
<path d="M71.7926 87.178H76.9219V82.0504H71.793L71.7926 87.178Z" fill="#EFBB42"/>
<path d="M71.7926 92.3082H76.9219V87.1797H71.7926V92.3082Z" fill="#EFBB42"/>
<path d="M123.074 92.3082H128.203V87.1797H123.074V92.3082Z" fill="#EFBB42"/>
<path d="M123.074 87.178H128.203V82.0504L123.074 82.0508V87.178Z" fill="#EFBB42"/>
<path d="M123.074 102.564L128.203 102.564V97.4352L123.074 97.4355V102.564Z" fill="#EFBB42"/>
<path d="M123.074 97.4355L128.203 97.4352V92.3066H123.074V97.4355Z" fill="#EFBB42"/>
<path d="M123.074 82.0508L128.203 82.0504V76.9222H123.074V82.0508Z" fill="#EFBB42"/>
<path d="M102.566 138.461H107.694V133.332H102.566L102.566 138.461Z" fill="#EFBB42"/>
<path d="M102.566 82.0508H107.694V76.9222H102.566V82.0508Z" fill="#EFBB42"/>
<path d="M107.691 82.0508H112.82L112.82 76.9222H107.691V82.0508Z" fill="#EFBB42"/>
<path d="M117.949 82.0508H123.076V76.9222H117.949V82.0508Z" fill="#EFBB42"/>
<path d="M112.82 82.0524H117.949V76.9238H112.82V82.0524Z" fill="#EFBB42"/>
<path d="M123.074 107.692L128.203 107.691V102.564L123.074 102.564V107.692Z" fill="#EFBB42"/>
<path d="M117.949 138.461H123.076V133.332H117.949L117.949 138.461Z" fill="#231F20"/>
<path d="M112.82 138.461H117.949L117.949 133.332H112.82L112.82 138.461Z" fill="#D2972C"/>
<path d="M123.074 138.461L128.203 138.461V133.332H123.074V138.461Z" fill="#D2972C"/>
<path d="M123.074 112.82H128.203V107.691L123.074 107.692V112.82Z" fill="#EFBB42"/>
<path d="M107.692 138.461H112.82L112.82 133.332H107.692V138.461Z" fill="#EFBB42"/>
<path d="M123.074 123.078H128.203V117.949L123.074 117.949V123.078Z" fill="#EFBB42"/>
<path d="M123.074 133.334H128.203V128.205H123.074V133.334Z" fill="#EFBB42"/>
<path d="M123.074 117.949L128.203 117.949V112.82H123.074V117.949Z" fill="#EFBB42"/>
<path d="M123.074 128.205H128.203V123.078H123.074V128.205Z" fill="#EFBB42"/>
<path d="M112.82 174.359L117.949 174.359L117.949 169.23H112.82V174.359Z" fill="#231F20"/>
<path d="M35.8984 97.4352H41.027V92.3066H35.8984V97.4352Z" fill="#231F20"/>
<path d="M35.8984 92.3082H41.0257V87.1797H35.8984V92.3082Z" fill="#D2972C"/>
<path d="M35.8984 51.2828H41.027V46.1543H35.8984V51.2828Z" fill="#F0D159"/>
<path d="M35.8984 56.4105H41.027V51.2828H35.8984V56.4105Z" fill="#EFBB42"/>
<path d="M41.027 51.2828H46.1559V46.1543H41.027V51.2828Z" fill="#EFBB42"/>
<path d="M46.1523 51.2828H51.2796V46.1543H46.1523V51.2828Z" fill="#EFBB42"/>
<path d="M35.8984 87.178H41.0257V82.0508H35.8984V87.178Z" fill="#EFBB42"/>
<path d="M35.8984 82.0508H41.0257V76.9219H35.8984V82.0508Z" fill="#EFBB42"/>
<path d="M35.8984 76.9219H41.0257V71.7949H35.8984V76.9219Z" fill="#EFBB42"/>
<path d="M35.8984 66.6676H41.027V61.5391H35.8984V66.6676Z" fill="#EFBB42"/>
<path d="M35.8984 71.7965H41.027V66.6676H35.8984V71.7965Z" fill="#EFBB42"/>
<path d="M87.1797 174.359H92.3086L92.3082 169.23H87.1797V174.359Z" fill="#231F20"/>
<path d="M102.566 174.359H107.694V169.23H102.566L102.566 174.359Z" fill="#231F20"/>
<path d="M92.3086 174.359H97.4371V169.23H92.3082L92.3086 174.359Z" fill="#EFBB42"/>
<path d="M97.4371 174.359H102.566L102.566 169.23H97.4371V174.359Z" fill="#EFBB42"/>
<path d="M51.2812 51.2828H56.4098V46.1543H51.2812V51.2828Z" fill="#F0D159"/>
<path d="M35.8984 61.5391H41.027V56.4105H35.8984V61.5391Z" fill="#EFBB42"/>
<path d="M153.844 87.178H158.971V82.0508H153.844V87.178Z" fill="#E39E2B"/>
<path d="M153.844 92.3082H158.971V87.1797H153.844V92.3082Z" fill="#EFBB42"/>
<path d="M153.844 97.4352H158.971V92.3066H153.844V97.4352Z" fill="#EFBB42"/>
<path d="M153.844 112.82H158.971V107.691H153.844V112.82Z" fill="#EFBB42"/>
<path d="M153.844 102.564H158.971V97.4352H153.844V102.564Z" fill="#EFBB42"/>
<path d="M153.844 107.691H158.971V102.564H153.844V107.691Z" fill="#EFBB42"/>
<path d="M153.844 71.7965H158.971V66.668H153.844V71.7965Z" fill="#F0D159"/>
<path d="M153.844 66.668H158.971V61.5391H153.844V66.668Z" fill="#F0D159"/>
<path d="M153.844 61.5391H158.971V56.4102H153.844V61.5391Z" fill="#231F20"/>
<path d="M153.844 82.0508H158.971V76.9219H153.844V82.0508Z" fill="#EFBB42"/>
<path d="M153.844 76.9219H158.971V71.7949H153.844V76.9219Z" fill="#EFBB42"/>
<path d="M153.844 153.845H158.971V148.717H153.844V153.845Z" fill="#231F20"/>
<path d="M153.844 148.717H158.971V143.588H153.844V148.717Z" fill="#231F20"/>
<path d="M153.844 143.588H158.971V138.461H153.844V143.588Z" fill="#D2972C"/>
<path d="M153.844 158.974H158.971V153.845H153.844V158.974Z" fill="#231F20"/>
<path d="M123.074 158.974H128.204V153.845H123.074V158.974Z" fill="#231F20"/>
<path d="M153.844 123.078H158.971V117.949H153.844V123.078Z" fill="#EFBB42"/>
<path d="M153.844 128.205H158.971V123.078H153.844V128.205Z" fill="#EFBB42"/>
<path d="M153.844 138.461H158.971V133.332H153.844V138.461Z" fill="#D2972C"/>
<path d="M153.844 117.949H158.971V112.82H153.844V117.949Z" fill="#EFBB42"/>
<path d="M66.6641 51.2828H71.7926V46.1543H66.6641V51.2828Z" fill="#EFBB42"/>
<path d="M76.9219 51.2828H82.0504V46.1543H76.9219V51.2828Z" fill="#231F20"/>
<path d="M71.7926 51.2828H76.9219V46.1543H71.7926V51.2828Z" fill="#EFBB42"/>
<path d="M61.5391 51.2828H66.6663V46.1543H61.5391V51.2828Z" fill="#EFBB42"/>
<path d="M56.4098 51.2828H61.5374V46.1543H56.4098V51.2828Z" fill="#F0D159"/>
<path d="M46.1523 46.1543H51.2796V41.025H46.1523V46.1543Z" fill="#EFBB42"/>
<path d="M41.027 46.1543H46.1559V41.025H41.0273L41.027 46.1543Z" fill="#EFBB42"/>
<path d="M56.4098 46.1543H61.5391L61.5387 41.025H56.4098V46.1543Z" fill="#EFBB42"/>
<path d="M35.8984 46.1543H41.027L41.0273 41.025H35.8981L35.8984 46.1543Z" fill="#231F20"/>
<path d="M51.2812 46.1543H56.4098V41.025H51.2812V46.1543Z" fill="#231F20"/>
<path d="M30.769 61.5385L35.8984 61.5391V56.4105L30.769 56.41V61.5385Z" fill="#EFBB42"/>
<path d="M30.769 56.41L35.8984 56.4105V51.2828L30.769 51.2827V56.41Z" fill="#EFBB42"/>
<path d="M117.949 174.359H123.076V169.23H117.949L117.949 174.359Z" fill="#A7721D"/>
<path d="M30.769 46.1542L35.8984 46.1543L35.8981 41.025H30.7695L30.769 46.1542Z" fill="#EFBB42"/>
<path d="M30.769 51.2827L35.8984 51.2828V46.1543L30.769 46.1542V51.2827Z" fill="#F0D159"/>
<path d="M30.7689 66.6676H35.8984V61.5391L30.769 61.5385L30.7689 66.6676Z" fill="#EFBB42"/>
<path d="M66.668 46.1539H71.7965V41.0254H66.668V46.1539Z" fill="#EFBB42"/>
<path d="M71.7965 46.1539H76.9241V41.0254H71.7965V46.1539Z" fill="#231F20"/>
<path d="M153.844 164.102H158.971V158.974H153.844V164.102Z" fill="#231F20"/>
<path d="M30.7689 71.7965H35.8984V66.6676H30.7689V71.7965Z" fill="#231F20"/>
<path d="M30.7695 92.3082H35.8984V87.1797H30.7695V92.3082Z" fill="#D2972C"/>
<path d="M30.7689 87.178H35.8984V82.0508H30.7689V87.178Z" fill="#231F20"/>
<path d="M30.7689 82.0508H35.8984V76.9219L30.7689 76.9222V82.0508Z" fill="#EFBB42"/>
<path d="M30.7689 76.9222L35.8984 76.9219V71.7949H30.7689V76.9222Z" fill="#D2972C"/>
<path d="M30.7689 97.4352H35.8984V92.3066L30.7689 92.3063V97.4352Z" fill="#231F20"/>
<path d="M61.5391 46.1543L66.668 46.1539V41.0254L61.5387 41.025L61.5391 46.1543Z" fill="#EFBB42"/>
<path d="M158.973 143.588L164.102 143.588V138.461L158.973 138.461V143.588Z" fill="#231F20"/>
<path d="M158.973 138.461L164.102 138.461V133.332H158.973V138.461Z" fill="#D2972C"/>
<path d="M158.973 148.716H164.102V143.588L158.973 143.588V148.716Z" fill="#231F20"/>
<path d="M158.973 158.974H164.102V153.845L158.973 153.846V158.974Z" fill="#A7721D"/>
<path d="M158.973 153.846L164.102 153.845V148.716H158.973V153.846Z" fill="#8D5B1A"/>
<path d="M158.973 164.102H164.102V158.974H158.973V164.102Z" fill="#C18623"/>
<path d="M158.973 112.82H164.102V107.692L158.973 107.691V112.82Z" fill="#EFBB42"/>
<path d="M158.973 123.078H164.102V117.949H158.973V123.078Z" fill="#EFBB42"/>
<path d="M158.973 133.334H164.102V128.205H158.973V133.334Z" fill="#EFBB42"/>
<path d="M158.973 128.205H164.102V123.078H158.973V128.205Z" fill="#EFBB42"/>
<path d="M158.973 117.949H164.102V112.82H158.973V117.949Z" fill="#EFBB42"/>
<path d="M128.204 174.359H133.332L133.332 169.23H128.203L128.204 174.359Z" fill="#231F20"/>
<path d="M158.973 169.231L164.102 169.23V164.104H158.973V169.231Z" fill="#C18623"/>
<path d="M123.074 174.359H128.204L128.203 169.23H123.074V174.359Z" fill="#C18623"/>
<path d="M158.973 174.359L164.102 174.359V169.23L158.973 169.231V174.359Z" fill="#C18623"/>
<path d="M153.844 174.359H158.971V169.23H153.844V174.359Z" fill="#231F20"/>
<path d="M158.973 56.4105L164.102 56.4102V51.2832H158.973V56.4105Z" fill="#231F20"/>
<path d="M158.973 107.691L164.102 107.692V102.564H158.973V107.691Z" fill="#EFBB42"/>
<path d="M158.973 61.5387H164.102V56.4102L158.973 56.4105V61.5387Z" fill="#F0D159"/>
<path d="M158.973 97.4352H164.102V92.3066H158.973V97.4352Z" fill="#EFBB42"/>
<path d="M158.973 87.178H164.102V82.0504L158.973 82.0508V87.178Z" fill="#EFBB42"/>
<path d="M158.973 102.564H164.102V97.4352H158.973V102.564Z" fill="#EFBB42"/>
<path d="M158.973 92.3082H164.102V87.1797H158.973V92.3082Z" fill="#EFBB42"/>
<path d="M158.973 66.6676L164.102 66.668V61.5387H158.973V66.6676Z" fill="#F0D159"/>
<path d="M158.973 71.7965H164.102V66.668L158.973 66.6676V71.7965Z" fill="#EFBB42"/>
<path d="M158.973 76.9222H164.102V71.7949H158.973V76.9222Z" fill="#EFBB42"/>
<path d="M158.973 82.0508L164.102 82.0504V76.9222H158.973V82.0508Z" fill="#EFBB42"/>
<path d="M153.844 133.334H158.971V128.205H153.844V133.334Z" fill="#EFBB42"/>
<path d="M46.1523 82.0504H51.2796V76.9219H46.1523V82.0504Z" fill="#EFBB42"/>
<path d="M46.1523 76.9219H51.2796V71.7949H46.1523V76.9219Z" fill="#EFBB42"/>
<path d="M46.1523 87.178H51.2796V82.0504H46.1523V87.178Z" fill="#D2972C"/>
<path d="M46.1523 66.6676H51.2796V61.5391H46.1523V66.6676Z" fill="#EFBB42"/>
<path d="M46.1523 71.7965H51.2796V66.6676H46.1523V71.7965Z" fill="#EFBB42"/>
<path d="M46.1523 92.3082H51.2796V87.1797H46.1523V92.3082Z" fill="#231F20"/>
<path d="M128.203 164.102H133.332V158.975L128.204 158.974L128.203 164.102Z" fill="#231F20"/>
<path d="M123.074 164.102H128.203L128.204 158.974H123.074V164.102Z" fill="#C18623"/>
<path d="M117.949 164.102H123.076V158.974L117.949 158.974L117.949 164.102Z" fill="#C18623"/>
<path d="M112.82 164.102H117.949L117.949 158.974H112.82L112.82 164.102Z" fill="#8D5B1A"/>
<path d="M46.1523 61.5391H51.2812L51.2809 56.4102H46.1523V61.5391Z" fill="#EFBB42"/>
<path d="M107.692 164.102H112.82L112.82 158.974H107.692L107.692 164.102Z" fill="#231F20"/>
<path d="M87.1797 164.102H92.3082V158.974H87.1797V164.102Z" fill="#231F20"/>
<path d="M92.3082 164.102H97.4371V158.974H92.3082V164.102Z" fill="#EFBB42"/>
<path d="M97.4371 164.102H102.566V158.974H97.4371V164.102Z" fill="#EFBB42"/>
<path d="M102.566 164.102H107.694V158.974H102.566V164.102Z" fill="#231F20"/>
<path d="M143.589 102.564H148.718V97.4355L143.589 97.4352V102.564Z" fill="#EFBB42"/>
<path d="M143.589 112.82L148.718 112.82V107.691H143.589V112.82Z" fill="#EFBB42"/>
<path d="M51.2812 61.5391H56.4098V56.4102H51.2809L51.2812 61.5391Z" fill="#EFBB42"/>
<path d="M143.589 117.949L148.718 117.949V112.82L143.589 112.82V117.949Z" fill="#EFBB42"/>
<path d="M143.589 128.205H148.718V123.078H143.589V128.205Z" fill="#EFBB42"/>
<path d="M143.589 123.078H148.718V117.949L143.589 117.949V123.078Z" fill="#EFBB42"/>
<path d="M143.589 82.0504H148.718V76.9219H143.589V82.0504Z" fill="#EFBB42"/>
<path d="M143.589 97.4352L148.718 97.4355V92.3066H143.589V97.4352Z" fill="#EFBB42"/>
<path d="M143.589 87.178H148.718V82.0504H143.589V87.178Z" fill="#EFBB42"/>
<path d="M143.589 76.9219H148.718V71.7949H143.589V76.9219Z" fill="#D2972C"/>
<path d="M143.589 92.3082H148.718V87.1797H143.589V92.3082Z" fill="#EFBB42"/>
<path d="M153.844 169.23H158.971V164.104H153.844V169.23Z" fill="#231F20"/>
<path d="M143.589 138.461L148.718 138.461V133.332H143.589V138.461Z" fill="#EFBB42"/>
<path d="M143.589 143.588L148.718 143.588V138.461L143.589 138.461V143.588Z" fill="#D2972C"/>
<path d="M143.589 133.334H148.718V128.205H143.589V133.334Z" fill="#EFBB42"/>
<path d="M143.589 107.691H148.718V102.564H143.589V107.691Z" fill="#EFBB42"/>
<path d="M76.9215 61.5391H82.0504V56.4102H76.9219L76.9215 61.5391Z" fill="#231F20"/>
<path d="M61.5387 61.5391H66.6663V56.4102H61.5391L61.5387 61.5391Z" fill="#EFBB42"/>
<path d="M71.793 61.5391H76.9215L76.9219 56.4102H71.793V61.5391Z" fill="#EFBB42"/>
<path d="M56.4098 61.5391H61.5387L61.5391 56.4102H56.4098V61.5391Z" fill="#EFBB42"/>
<path d="M66.6641 61.5391H71.793V56.4102H66.6641V61.5391Z" fill="#EFBB42"/>
<path d="M112.82 61.5391H117.949L117.949 56.41H112.82L112.82 61.5391Z" fill="#F0D159"/>
<path d="M107.692 61.5391H112.82L112.82 56.41H107.692L107.692 61.5391Z" fill="#231F20"/>
<path d="M128.204 61.5391H133.332L133.332 56.4102H128.203L128.204 61.5391Z" fill="#231F20"/>
<path d="M143.589 71.7965H148.718V66.668H143.589V71.7965Z" fill="#231F20"/>
<path d="M117.949 61.5391H123.076V56.4102L117.949 56.41L117.949 61.5391Z" fill="#F0D159"/>
<path d="M123.074 61.5391H128.204L128.203 56.4102H123.074V61.5391Z" fill="#F0D159"/>
<path d="M143.589 148.716H148.718V143.588L143.589 143.588V148.716Z" fill="#231F20"/>
<path d="M41.027 71.7965H46.1559V66.668L41.027 66.6676V71.7965Z" fill="#EFBB42"/>
<path d="M41.0273 92.3082H46.1559V87.1797H41.0273V92.3082Z" fill="#231F20"/>
<path d="M41.0273 82.0504H46.1559V76.9219H41.0273V82.0504Z" fill="#EFBB42"/>
<path d="M41.0273 76.9219H46.1559V71.7949H41.0273V76.9219Z" fill="#EFBB42"/>
<path d="M41.0273 87.178H46.1559V82.0504H41.0273V87.178Z" fill="#D2972C"/>
<path d="M128.203 169.23H133.332V164.104H128.203V169.23Z" fill="#231F20"/>
<path d="M117.949 169.23H123.076V164.104H117.949L117.949 169.23Z" fill="#C18623"/>
<path d="M123.074 169.23H128.203V164.104H123.074V169.23Z" fill="#C18623"/>
<path d="M112.82 169.23H117.949L117.949 164.104H112.82V169.23Z" fill="#231F20"/>
<path d="M102.566 169.23H107.694V164.104H102.566V169.23Z" fill="#231F20"/>
<path d="M92.3082 169.23H97.4371V164.104H92.3086L92.3082 169.23Z" fill="#EFBB42"/>
<path d="M87.1797 169.23H92.3082L92.3086 164.104H87.1797V169.23Z" fill="#231F20"/>
<path d="M97.4371 169.23H102.566V164.104H97.4371V169.23Z" fill="#EFBB42"/>
<path d="M46.1523 56.4102H51.2809L51.2812 51.2828H46.1523V56.4102Z" fill="#EFBB42"/>
<path d="M148.718 71.7965H153.847V66.668H148.718V71.7965Z" fill="#F0D159"/>
<path d="M148.718 76.9219L153.847 76.9222V71.7949H148.718V76.9219Z" fill="#F0D159"/>
<path d="M148.718 82.0504H153.847V76.9222L148.718 76.9219V82.0504Z" fill="#EFBB42"/>
<path d="M148.718 92.3082H153.847V87.1797H148.718V92.3082Z" fill="#E39E2B"/>
<path d="M148.718 66.668H153.847V61.5391H148.719L148.718 66.668Z" fill="#231F20"/>
<path d="M148.718 97.4355L153.847 97.4352V92.3066H148.718V97.4355Z" fill="#EFBB42"/>
<path d="M148.718 87.178H153.847V82.0504H148.718V87.178Z" fill="#EFBB42"/>
<path d="M148.718 128.205H153.847V123.078H148.718V128.205Z" fill="#EFBB42"/>
<path d="M148.718 138.461H153.847V133.332H148.718V138.461Z" fill="#EFBB42"/>
<path d="M148.718 133.334H153.847V128.205H148.718V133.334Z" fill="#EFBB42"/>
<path d="M148.718 143.588H153.847V138.461H148.718V143.588Z" fill="#D2972C"/>
<path d="M148.718 112.82H153.847V107.691H148.718V112.82Z" fill="#EFBB42"/>
<path d="M148.718 107.691H153.847V102.564L148.718 102.564V107.691Z" fill="#EFBB42"/>
<path d="M148.718 102.564L153.847 102.564V97.4352L148.718 97.4355V102.564Z" fill="#EFBB42"/>
<path d="M148.718 123.078H153.847V117.949L148.718 117.949V123.078Z" fill="#EFBB42"/>
<path d="M148.718 117.949L153.847 117.949V112.82H148.718V117.949Z" fill="#EFBB42"/>
<path d="M61.5391 56.4102H66.6663V51.2828H61.5391V56.4102Z" fill="#EFBB42"/>
<path d="M66.6641 56.4102H71.793L71.7926 51.2828H66.6641V56.4102Z" fill="#EFBB42"/>
<path d="M56.4098 56.4102H61.5391V51.2828H56.4098V56.4102Z" fill="#EFBB42"/>
<path d="M71.793 56.4102H76.9219V51.2828H71.7926L71.793 56.4102Z" fill="#EFBB42"/>
<path d="M76.9219 56.4102H82.0504V51.2828H76.9219V56.4102Z" fill="#231F20"/>
<path d="M41.027 61.5391L46.1559 61.5387V56.4102L41.027 56.4105V61.5391Z" fill="#EFBB42"/>
<path d="M51.2809 56.4102H56.4098V51.2828H51.2812L51.2809 56.4102Z" fill="#EFBB42"/>
<path d="M41.027 56.4105L46.1559 56.4102V51.2828H41.027V56.4105Z" fill="#EFBB42"/>
<path d="M148.718 148.716H153.847V143.588H148.718V148.716Z" fill="#231F20"/>
<path d="M112.82 56.41H117.949L117.949 51.2832H112.82L112.82 56.41Z" fill="#231F20"/>
<path d="M117.949 56.41L123.076 56.4102V51.2832H117.949L117.949 56.41Z" fill="#231F20"/>
<path d="M123.074 56.4102H128.203L128.204 51.2832H123.074V56.4102Z" fill="#231F20"/>
<path d="M41.027 66.6676L46.1559 66.668V61.5387L41.027 61.5391V66.6676Z" fill="#EFBB42"/>
<path d="M189.742 102.564H194.871V97.4355L189.742 97.4352V102.564Z" fill="#EFBB42"/>
<path d="M30.7695 10.2574H35.8981V5.12891H30.7695V10.2574Z" fill="#231F20"/>
<path d="M35.8981 10.2574H41.027V5.12891H35.8981V10.2574Z" fill="#F0D159"/>
<path d="M76.9219 10.2574H82.0504V5.12891H76.9219V10.2574Z" fill="#F0D159"/>
<path d="M66.6641 10.2574H71.7926V5.12891H66.6641V10.2574Z" fill="#231F20"/>
<path d="M71.7926 10.2574H76.9219V5.12891H71.7926V10.2574Z" fill="#231F20"/>
<path d="M82.0504 10.2574H87.178V5.12891H82.0504V10.2574Z" fill="#231F20"/>
<path d="M41.027 10.2574H46.1559V5.12891H41.027V10.2574Z" fill="#231F20"/>
<path d="M200 97.4352H205.129V92.3066H200V97.4352Z" fill="#231F20"/>
<path d="M200 164.102H205.129V158.975H200V164.102Z" fill="#EFBB42"/>
<path d="M200 169.231H205.129V164.104H200V169.231Z" fill="#EFBB42"/>
<path d="M200 174.359H205.129V169.231H200V174.359Z" fill="#EFBB42"/>
<path d="M200 158.975H205.129V153.846H200V158.975Z" fill="#231F20"/>
<path d="M200 179.488H205.129V174.359H200V179.488Z" fill="#EFBB42"/>
<path d="M200 189.744H205.129V184.615H200V189.744Z" fill="#EFBB42"/>
<path d="M200 184.614H205.129V179.486H200V184.614Z" fill="#EFBB42"/>
<path d="M200 199.998H205.129V194.871H200V199.998Z" fill="#231F20"/>
<path d="M200 194.871H205.129V189.742H200V194.871Z" fill="#D2972C"/>
<path d="M194.871 128.205L199.998 128.205V123.078H194.871V128.205Z" fill="#231F20"/>
<path d="M41.027 15.3848H46.1559V10.2574H41.027V15.3848Z" fill="#EFBB42"/>
<path d="M46.1523 15.3848H51.2796V10.2578H46.1523V15.3848Z" fill="#231F20"/>
<path d="M35.8984 15.3848H41.027V10.2574H35.8981L35.8984 15.3848Z" fill="#EFBB42"/>
<path d="M30.7695 15.3851L35.8984 15.3848L35.8981 10.2574H30.7695V15.3851Z" fill="#231F20"/>
<path d="M61.5387 15.3848H66.6663V10.2578H61.5391L61.5387 15.3848Z" fill="#231F20"/>
<path d="M0 76.9222H5.12891V71.7949H0V76.9222Z" fill="#231F20"/>
<path d="M0 66.6676H5.12891V61.5391H0V66.6676Z" fill="#231F20"/>
<path d="M0 82.0524H5.12891V76.9238H0V82.0524Z" fill="#231F20"/>
<path d="M0 87.178H5.12891V82.0508H0V87.178Z" fill="#231F20"/>
<path d="M0 71.7965H5.12891V66.6676H0V71.7965Z" fill="#231F20"/>
<path d="M189.742 92.3082H194.871V87.1797H189.742V92.3082Z" fill="#231F20"/>
<path d="M189.742 87.178H194.871V82.0508H189.742V87.178Z" fill="#231F20"/>
<path d="M189.742 82.0508H194.871V76.9219L189.742 76.9222V82.0508Z" fill="#231F20"/>
<path d="M189.742 97.4352L194.871 97.4355V92.3066H189.742V97.4352Z" fill="#D2972C"/>
<path d="M66.6641 15.3848H71.793L71.7926 10.2574H66.6641V15.3848Z" fill="#F0D159"/>
<path d="M71.793 15.3848H76.9219V10.2574H71.7926L71.793 15.3848Z" fill="#EFBB42"/>
<path d="M76.9219 15.3848H82.0504V10.2574H76.9219V15.3848Z" fill="#EFBB42"/>
<path d="M82.0504 15.3848L87.178 15.3851V10.2574H82.0504V15.3848Z" fill="#231F20"/>
<path d="M194.871 153.845H199.998V148.717H194.871V153.845Z" fill="#231F20"/>
<path d="M194.871 158.974H199.998V153.845H194.871V158.974Z" fill="#EFBB42"/>
<path d="M194.871 148.717H199.998V143.588L194.871 143.588V148.717Z" fill="#231F20"/>
<path d="M194.871 169.231H199.998V164.104H194.871V169.231Z" fill="#EFBB42"/>
<path d="M194.871 164.102H199.998V158.974H194.871V164.102Z" fill="#EFBB42"/>
<path d="M194.871 143.588L199.998 143.588V138.461L194.871 138.461V143.588Z" fill="#231F20"/>
<path d="M194.871 174.359H199.998V169.231H194.871V174.359Z" fill="#EFBB42"/>
<path d="M194.871 133.334H199.998V128.205L194.871 128.205V133.334Z" fill="#231F20"/>
<path d="M194.871 138.461L199.998 138.461V133.332H194.871V138.461Z" fill="#231F20"/>
<path d="M194.871 123.078H199.998V117.949L194.871 117.949V123.078Z" fill="#231F20"/>
<path d="M194.871 189.744H199.998V184.615H194.871V189.744Z" fill="#231F20"/>
<path d="M194.871 179.488H199.998V174.359H194.871V179.488Z" fill="#D2972C"/>
<path d="M194.871 184.614H199.998V179.486H194.871V184.614Z" fill="#231F20"/>
<path d="M194.871 199.998H199.998V194.871L194.871 194.871V199.998Z" fill="#231F20"/>
<path d="M194.871 194.871L199.998 194.871V189.742H194.871V194.871Z" fill="#D2972C"/>
<path d="M194.871 117.949L199.998 117.949V112.82L194.871 112.82V117.949Z" fill="#231F20"/>
<path d="M194.871 107.691L199.998 107.692V102.564H194.871V107.691Z" fill="#231F20"/>
<path d="M194.871 102.564H199.998V97.4355H194.871V102.564Z" fill="#231F20"/>
<path d="M194.871 112.82L199.998 112.82V107.692L194.871 107.691V112.82Z" fill="#231F20"/>
<path d="M194.871 97.4355H199.998V92.3066H194.871V97.4355Z" fill="#231F20"/>
<path d="M210.258 117.949H215.385V112.82H210.258V117.949Z" fill="#231F20"/>
<path d="M210.258 112.82H215.385V107.691H210.258V112.82Z" fill="#231F20"/>
<path d="M210.258 189.744H215.385V184.615H210.258V189.744Z" fill="#231F20"/>
<path d="M210.258 184.614H215.385V179.486H210.258V184.614Z" fill="#231F20"/>
<path d="M210.258 194.871H215.385V189.742H210.258V194.871Z" fill="#231F20"/>
<path d="M76.9219 5.12891H82.0504V0H76.9219V5.12891Z" fill="#231F20"/>
<path d="M35.8981 5.12891H41.027V0H35.8984L35.8981 5.12891Z" fill="#231F20"/>
<path d="M205.129 102.564H210.257V97.4355L205.129 97.4352L205.129 102.564Z" fill="#231F20"/>
<path d="M205.129 107.692L210.258 107.691L210.257 102.564H205.129V107.692Z" fill="#231F20"/>
<path d="M205.129 123.078H210.257L210.258 117.949L205.129 117.949V123.078Z" fill="#231F20"/>
<path d="M205.129 128.205H210.257V123.078H205.129V128.205Z" fill="#231F20"/>
<path d="M205.129 169.231H210.257V164.104H205.129V169.231Z" fill="#231F20"/>
<path d="M205.129 164.102H210.257V158.975H205.129V164.102Z" fill="#231F20"/>
<path d="M205.129 194.871L210.258 194.871V189.742H205.129V194.871Z" fill="#D2972C"/>
<path d="M205.129 199.998H210.257L210.258 194.871L205.129 194.871V199.998Z" fill="#231F20"/>
<path d="M205.129 189.744H210.258V184.615H205.129V189.744Z" fill="#EFBB42"/>
<path d="M205.129 174.359H210.257V169.231H205.129V174.359Z" fill="#231F20"/>
<path d="M205.129 184.614H210.258V179.486H205.129V184.614Z" fill="#EFBB42"/>
<path d="M205.129 179.488H210.257V174.359H205.129V179.488Z" fill="#231F20"/>
</svg>
