<svg width="132" height="200" viewBox="0 0 132 200" fill="none" xmlns="http://www.w3.org/2000/svg">
<path d="M73.6838 173.684H78.9473V168.422H73.6838V173.684Z" fill="#231F20"/>
<path d="M84.2109 173.684H89.4744V168.422H84.2109V173.684Z" fill="#231F20"/>
<path d="M78.9492 173.684H84.2109V168.422H78.9492V173.684Z" fill="#FAB589"/>
<path d="M57.8945 173.684H63.1567V168.422H57.8945V173.684Z" fill="#E28D65"/>
<path d="M63.1567 173.684H68.4198V168.422H63.1567V173.684Z" fill="#231F20"/>
<path d="M52.6328 173.684H57.8963V168.422H52.6328V173.684Z" fill="#231F20"/>
<path d="M5.26196 15.7895H10.5255V10.5273H5.26196V15.7895Z" fill="#231F20"/>
<path d="M36.8438 15.7895H42.1073V10.5273H36.8438V15.7895Z" fill="#231F20"/>
<path d="M52.6328 15.7895H57.8963V10.5273H52.6328V15.7895Z" fill="#FCD7BF"/>
<path d="M31.5781 15.7895H36.8416V10.5273H31.5781V15.7895Z" fill="#FAB589"/>
<path d="M47.3672 15.7895H52.6307V10.5273H47.3672V15.7895Z" fill="#FAB589"/>
<path d="M42.1055 15.7895H47.369V10.5273H42.1055V15.7895Z" fill="#FAB589"/>
<path d="M21.0508 15.7895H26.313V10.5273H21.0508V15.7895Z" fill="#231F20"/>
<path d="M10.5273 15.7895H15.7908V10.5273H10.5273V15.7895Z" fill="#FAB589"/>
<path d="M15.7891 15.7895H21.0526V10.5273H15.7891V15.7895Z" fill="#FAB589"/>
<path d="M57.8945 15.7895H63.1567V10.5273H57.8945V15.7895Z" fill="#231F20"/>
<path d="M26.3164 15.7895H31.5799V10.5273H26.3164V15.7895Z" fill="#FAB589"/>
<path d="M5.26196 10.5273H10.5255L10.5254 5.26346H5.26186L5.26196 10.5273Z" fill="#231F20"/>
<path d="M10.5273 10.5273H15.7908V5.26367H10.5273V10.5273Z" fill="#FCD7BF"/>
<path d="M15.7891 10.5273H21.0526V5.26367H15.7891V10.5273Z" fill="#FCD7BF"/>
<path d="M21.0508 10.5273H26.313V5.26367H21.0508V10.5273Z" fill="#FCD7BF"/>
<path d="M52.6328 10.5273H57.8963V5.26367H52.6328V10.5273Z" fill="#231F20"/>
<path d="M31.5781 10.5273H36.8416L36.8416 5.26346H31.5781L31.5781 10.5273Z" fill="#FCD7BF"/>
<path d="M36.8438 10.5273H42.1073V5.26367H36.8438V10.5273Z" fill="#FCD7BF"/>
<path d="M47.3672 10.5273H52.6307V5.26367H47.3672V10.5273Z" fill="#FCD7BF"/>
<path d="M26.3164 10.5273H31.5799V5.26367H26.3164V10.5273Z" fill="#FCD7BF"/>
<path d="M42.1055 10.5273H47.369V5.26367H42.1055V10.5273Z" fill="#FCD7BF"/>
<path d="M73.6838 163.158H78.9473V157.895H73.6838V163.158Z" fill="#231F20"/>
<path d="M21.0508 21.0526H26.313V15.7895H21.0508V21.0526Z" fill="#231F20"/>
<path d="M0 21.0527H5.26219L5.26196 15.7895L0 15.7892V21.0527Z" fill="#231F20"/>
<path d="M5.26219 21.0527H10.5254L10.5255 15.7895H5.26196L5.26219 21.0527Z" fill="#FCD7BF"/>
<path d="M10.5273 21.0526H15.7908V15.7895H10.5273V21.0526Z" fill="#FAB589"/>
<path d="M47.3672 21.0526H52.6307V15.7895H47.3672V21.0526Z" fill="#FAB589"/>
<path d="M42.1055 21.0526H47.369V15.7895H42.1055V21.0526Z" fill="#FAB589"/>
<path d="M52.6328 21.0526H57.8963V15.7895H52.6328V21.0526Z" fill="#FAB589"/>
<path d="M57.8945 21.0526H63.1567V15.7895H57.8945V21.0526Z" fill="#231F20"/>
<path d="M26.3164 21.0526H31.5799V15.7895H26.3164V21.0526Z" fill="#FAB589"/>
<path d="M15.7891 21.0526H21.0526V15.7895H15.7891V21.0526Z" fill="#FAB589"/>
<path d="M36.8438 21.0526H42.1073V15.7895H36.8438V21.0526Z" fill="#231F20"/>
<path d="M31.5781 21.0527H36.8416L36.8416 15.7895H31.5781L31.5781 21.0527Z" fill="#FAB589"/>
<path d="M52.6328 163.158H57.8963V157.895H52.6328V163.158Z" fill="#231F20"/>
<path d="M57.8945 163.158H63.1567V157.895H57.8945V163.158Z" fill="#FAB589"/>
<path d="M78.9492 163.158H84.2114V157.895H78.9492V163.158Z" fill="#E28D65"/>
<path d="M84.2114 163.158H89.4744V157.895H84.2114V163.158Z" fill="#231F20"/>
<path d="M63.1567 163.158H68.4198V157.895H63.1567V163.158Z" fill="#231F20"/>
<path d="M121.051 115.79H126.314V110.527H121.051V115.79Z" fill="#231F20"/>
<path d="M121.051 121.053H126.314V115.79H121.051V121.053Z" fill="#231F20"/>
<path d="M121.051 131.58H126.314V126.316H121.051V131.58Z" fill="white"/>
<path d="M121.051 136.842H126.314V131.58H121.051V136.842Z" fill="#231F20"/>
<path d="M121.051 126.316H126.314V121.053H121.051V126.316Z" fill="#906F78"/>
<path d="M121.051 110.527H126.314V105.264H121.051V110.527Z" fill="#231F20"/>
<path d="M121.051 142.105H126.314V136.842H121.051V142.105Z" fill="#231F20"/>
<path d="M126.316 136.842H131.58V131.58H126.316V136.842Z" fill="#231F20"/>
<path d="M78.9492 168.422H84.2109L84.2114 163.158H78.9492V168.422Z" fill="#FAB589"/>
<path d="M84.2109 168.422H89.4744V163.158H84.2114L84.2109 168.422Z" fill="#231F20"/>
<path d="M126.316 131.58H131.58V126.316H126.316V131.58Z" fill="#231F20"/>
<path d="M126.316 126.316H131.58V121.053H126.316V126.316Z" fill="#231F20"/>
<path d="M73.6838 168.422H78.9473L78.9473 163.158H73.6838L73.6838 168.422Z" fill="#231F20"/>
<path d="M63.1567 168.422H68.4198V163.158H63.1567V168.422Z" fill="#231F20"/>
<path d="M52.6328 168.422H57.8963V163.158H52.6328V168.422Z" fill="#231F20"/>
<path d="M57.8945 168.422H63.1567V163.158H57.8945V168.422Z" fill="#FAB589"/>
<path d="M73.6838 189.474H78.9473V184.211H73.6838V189.474Z" fill="#231F20"/>
<path d="M94.7344 189.474H99.9979V184.211H94.7344V189.474Z" fill="#231F20"/>
<path d="M89.4727 189.474H94.7362V184.211H89.4727V189.474Z" fill="#231F20"/>
<path d="M84.2109 189.474H89.4744V184.211H84.2109V189.474Z" fill="#231F20"/>
<path d="M47.3672 189.474H52.6307V184.211H47.3672V189.474Z" fill="#231F20"/>
<path d="M42.1055 184.211V189.474H47.369V184.211H42.1055Z" fill="#231F20"/>
<path d="M78.9492 189.474H84.2109V184.211H78.9492V189.474Z" fill="#FAB589"/>
<path d="M52.6328 189.474H57.8963V184.211H52.6328V189.474Z" fill="#231F20"/>
<path d="M63.1562 189.474H68.4198V184.211H63.1562V189.474Z" fill="#231F20"/>
<path d="M57.8945 189.474H63.1562V184.211H57.8945V189.474Z" fill="#FAB589"/>
<path d="M78.9492 184.211H84.2109L84.2114 178.947H78.9492V184.211Z" fill="#FAB589"/>
<path d="M78.9492 178.947H84.2114L84.2109 173.684H78.9492V178.947Z" fill="#FAB589"/>
<path d="M84.2114 178.947L89.4744 178.947V173.684H84.2109L84.2114 178.947Z" fill="#231F20"/>
<path d="M52.6328 178.947H57.8963V173.684H52.6328V178.947Z" fill="#231F20"/>
<path d="M63.1562 178.947H68.4198V173.684H63.1567L63.1562 178.947Z" fill="#231F20"/>
<path d="M73.6838 178.947H78.9473L78.9473 173.684H73.6838L73.6838 178.947Z" fill="#231F20"/>
<path d="M57.8945 178.947H63.1562L63.1567 173.684H57.8945V178.947Z" fill="#FAB589"/>
<path d="M84.2109 184.211H89.4744V178.947L84.2114 178.947L84.2109 184.211Z" fill="#231F20"/>
<path d="M63.1562 184.211H68.4198V178.947H63.1562V184.211Z" fill="#231F20"/>
<path d="M57.8945 184.211H63.1562V178.947H57.8945V184.211Z" fill="#FAB589"/>
<path d="M73.6838 184.211H78.9473V178.947H73.6838V184.211Z" fill="#231F20"/>
<path d="M52.6328 184.211H57.8963V178.947H52.6328V184.211Z" fill="#231F20"/>
<path d="M10.5273 5.26367H15.7908V0H10.5273V5.26367Z" fill="#231F20"/>
<path d="M15.7891 5.26367H21.0526V0H15.7891V5.26367Z" fill="#231F20"/>
<path d="M21.0508 5.26367H26.313V0H21.0508V5.26367Z" fill="#231F20"/>
<path d="M31.5781 5.26346H36.8416V0H31.5781V5.26346Z" fill="#231F20"/>
<path d="M26.3164 5.26367H31.5799V0H26.3164V5.26367Z" fill="#231F20"/>
<path d="M36.8438 5.26367H42.1073V0H36.8438V5.26367Z" fill="#231F20"/>
<path d="M42.1055 5.26367H47.369V0H42.1055V5.26367Z" fill="#231F20"/>
<path d="M47.3672 5.26367H52.6307V0H47.3672V5.26367Z" fill="#231F20"/>
<path d="M52.6328 115.79H57.8963V110.527H52.6328V115.79Z" fill="#DDD9D8"/>
<path d="M89.4727 84.2108H94.7362V78.9473H89.4727V84.2108Z" fill="#71545D"/>
<path d="M89.4727 110.527H94.7362V105.264H89.4727V110.527Z" fill="#71545D"/>
<path d="M89.4727 105.264H94.7362V100H89.4727V105.264Z" fill="#71545D"/>
<path d="M89.4727 115.79H94.7362V110.527H89.4727V115.79Z" fill="#71545D"/>
<path d="M89.4727 100H94.7362V94.7363H89.4727V100Z" fill="#71545D"/>
<path d="M89.4727 121.053H94.7362V115.79H89.4727V121.053Z" fill="#231F20"/>
<path d="M89.4727 94.7363H94.7362V89.4746H89.4727V94.7363Z" fill="#71545D"/>
<path d="M89.4727 78.9473H94.7362V73.6855H89.4727V78.9473Z" fill="#231F20"/>
<path d="M89.4727 89.4746H94.7362V84.2108H89.4727V89.4746Z" fill="#71545D"/>
<path d="M89.4727 126.316H94.7362V121.053H89.4727V126.316Z" fill="#4C373D"/>
<path d="M36.8438 52.6326H42.1073V47.3691H36.8438V52.6326Z" fill="#FAB589"/>
<path d="M47.3672 52.6326H52.6307V47.3691H47.3672V52.6326Z" fill="#231F20"/>
<path d="M31.5781 52.6324H36.8416V47.3689H31.5781V52.6324Z" fill="#231F20"/>
<path d="M42.1055 52.6326H47.369V47.3691H42.1055V52.6326Z" fill="#FAB589"/>
<path d="M31.5781 57.895H36.8416L36.8416 52.6324H31.5781L31.5781 57.895Z" fill="#231F20"/>
<path d="M89.4727 131.58H94.7362V126.316H89.4727V131.58Z" fill="#71545D"/>
<path d="M36.8438 57.895H42.1073V52.6326H36.8438V57.895Z" fill="#FAB589"/>
<path d="M42.1055 57.895H47.369V52.6326H42.1055V57.895Z" fill="#E28D65"/>
<path d="M47.3672 57.895H52.6307V52.6326H47.3672V57.895Z" fill="#231F20"/>
<path d="M57.8945 131.58H63.1567V126.316H57.8945V131.58Z" fill="#4C373D"/>
<path d="M63.1567 131.58H68.4198V126.316H63.1567V131.58Z" fill="#4C373D"/>
<path d="M36.8438 131.58H42.1073V126.316H36.8438V131.58Z" fill="#38262C"/>
<path d="M42.1055 126.316V131.58H47.369V126.316H42.1055Z" fill="#4C373D"/>
<path d="M47.3672 131.58H52.6307V126.316H47.3672V131.58Z" fill="#4C373D"/>
<path d="M15.7891 99.9998H21.0526V94.7363H15.7891V99.9998Z" fill="#231F20"/>
<path d="M84.2109 131.58H89.4744V126.316H84.2109V131.58Z" fill="#71545D"/>
<path d="M68.4219 131.58H73.6854V126.316H68.4219V131.58Z" fill="#4C373D"/>
<path d="M78.9492 131.58H84.2109V126.316H78.9492V131.58Z" fill="#71545D"/>
<path d="M73.6838 131.58H78.9473V126.316H73.6838V131.58Z" fill="#71545D"/>
<path d="M52.6328 131.58H57.8963V126.316H52.6328V131.58Z" fill="#4C373D"/>
<path d="M15.7891 110.527H21.0526V105.264H15.7891V110.527Z" fill="#231F20"/>
<path d="M15.7891 115.79H21.0526V110.527H15.7891V115.79Z" fill="#231F20"/>
<path d="M15.7891 105.264H21.0526V99.9998H15.7891V105.264Z" fill="#231F20"/>
<path d="M26.3164 131.58H31.5799V126.316H26.3164V131.58Z" fill="#231F20"/>
<path d="M31.5781 131.58H36.8416V126.316H31.5781V131.58Z" fill="#231F20"/>
<path d="M21.0508 126.316H26.313V121.053H21.0508V126.316Z" fill="#231F20"/>
<path d="M36.8438 47.3691H42.1073V42.1055H36.8438V47.3691Z" fill="#E28D65"/>
<path d="M47.3672 47.3691H52.6307V42.1055H47.3672V47.3691Z" fill="#231F20"/>
<path d="M42.1055 47.3691H47.369V42.1055H42.1055V47.3691Z" fill="#FAB589"/>
<path d="M31.5781 47.3689H36.8416V42.1054H31.5781V47.3689Z" fill="#231F20"/>
<path d="M42.1055 136.842V142.105H47.369V136.842H42.1055Z" fill="#231F20"/>
<path d="M47.3672 142.105H52.6307V136.842H47.3672V142.105Z" fill="#231F20"/>
<path d="M52.6328 142.105H57.8963V136.842H52.6328V142.105Z" fill="#231F20"/>
<path d="M63.1562 142.105H68.4198V136.842H63.1562V142.105Z" fill="#231F20"/>
<path d="M68.4219 142.105H73.6854V136.842H68.4219V142.105Z" fill="#231F20"/>
<path d="M57.8945 142.105H63.1562V136.842H57.8945V142.105Z" fill="#231F20"/>
<path d="M84.2109 136.842H89.4744V131.58H84.2109V136.842Z" fill="#4C373D"/>
<path d="M52.6328 136.842H57.8963V131.58H52.6328V136.842Z" fill="#38262C"/>
<path d="M68.4219 136.842H73.6854V131.58H68.4219V136.842Z" fill="#4C373D"/>
<path d="M78.9492 136.842H84.2109V131.58H78.9492V136.842Z" fill="#4C373D"/>
<path d="M57.8945 136.842H63.1562L63.1567 131.58H57.8945V136.842Z" fill="#4C373D"/>
<path d="M63.1562 136.842H68.4198V131.58H63.1567L63.1562 136.842Z" fill="#4C373D"/>
<path d="M73.6838 136.842H78.9473L78.9473 131.58H73.6838L73.6838 136.842Z" fill="#4C373D"/>
<path d="M94.7344 136.842H99.9979V131.58H94.7344V136.842Z" fill="#4C373D"/>
<path d="M94.7344 131.58H99.9979V126.316H94.7344V131.58Z" fill="#71545D"/>
<path d="M89.4727 136.842H94.7362V131.58H89.4727V136.842Z" fill="#4C373D"/>
<path d="M94.7344 126.316H99.9979V121.053H94.7344V126.316Z" fill="#4C373D"/>
<path d="M47.3672 136.842H52.6307V131.58H47.3672V136.842Z" fill="#38262C"/>
<path d="M42.1055 131.58V136.842H47.369V131.58H42.1055Z" fill="#38262C"/>
<path d="M36.8438 136.842H42.1073V131.58H36.8438V136.842Z" fill="#231F20"/>
<path d="M94.7344 121.053H99.9979V115.789H94.7344V121.053Z" fill="#231F20"/>
<path d="M94.7344 110.527H99.9979V105.264H94.7344V110.527Z" fill="#71545D"/>
<path d="M94.7344 105.264H99.9979V100H94.7344V105.264Z" fill="#71545D"/>
<path d="M94.7344 115.789H99.9979V110.527H94.7344V115.789Z" fill="#71545D"/>
<path d="M94.7344 100H99.9979V94.7363H94.7344V100Z" fill="#71545D"/>
<path d="M94.7344 78.9477H99.9979V73.6855H94.7344V78.9477Z" fill="#231F20"/>
<path d="M94.7344 94.7363H99.9979V89.4746H94.7344V94.7363Z" fill="#71545D"/>
<path d="M94.7344 84.2108H99.9979V78.9477H94.7344V84.2108Z" fill="#906F78"/>
<path d="M94.7344 89.4746H99.9979V84.2108H94.7344V89.4746Z" fill="#71545D"/>
<path d="M57.8945 99.9998H63.1567V94.7363H57.8945V99.9998Z" fill="white"/>
<path d="M31.5781 73.6854H36.8416V68.4219H31.5781V73.6854Z" fill="#231F20"/>
<path d="M31.5781 78.9477H36.8416V73.6854H31.5781V78.9477Z" fill="#231F20"/>
<path d="M31.5781 110.527H36.8416V105.263H31.5781V110.527Z" fill="#DDD9D8"/>
<path d="M36.8438 73.6854H42.1073V68.4219H36.8438V73.6854Z" fill="#E28D65"/>
<path d="M42.1055 73.6854H47.369V68.4219H42.1055V73.6854Z" fill="#FAB589"/>
<path d="M31.5781 84.2108H36.8416L36.8416 78.9477H31.5781L31.5781 84.2108Z" fill="#231F20"/>
<path d="M31.5781 89.4743H36.8416V84.2108H31.5781V89.4743Z" fill="#231F20"/>
<path d="M31.5781 100H36.8416V94.7365H31.5781V100Z" fill="white"/>
<path d="M31.5781 105.263H36.8416V100H31.5781V105.263Z" fill="white"/>
<path d="M31.5781 94.7365H36.8416V89.4743H31.5781V94.7365Z" fill="#231F20"/>
<path d="M47.3672 73.6854H52.6307V68.4219H47.3672V73.6854Z" fill="#231F20"/>
<path d="M68.4219 89.4744H73.6854V84.2109H68.4219V89.4744Z" fill="white"/>
<path d="M52.6328 73.6854H57.8963V68.4219H52.6328V73.6854Z" fill="#231F20"/>
<path d="M68.4219 94.7368H73.6854V89.4744H68.4219V94.7368Z" fill="white"/>
<path d="M68.4219 105.264H73.6854V100H68.4219V105.264Z" fill="#DDD9D8"/>
<path d="M68.4219 100H73.6854V94.7368H68.4219V100Z" fill="white"/>
<path d="M68.4219 84.2109H73.6854V78.9473H68.4219V84.2109Z" fill="#231F20"/>
<path d="M57.8945 73.6854H63.1567V68.4219H57.8945V73.6854Z" fill="#231F20"/>
<path d="M63.1567 73.6854H68.4198V68.4219H63.1567V73.6854Z" fill="#231F20"/>
<path d="M68.4219 73.6854H73.6854V68.4219H68.4219V73.6854Z" fill="#231F20"/>
<path d="M68.4219 78.9473H73.6854V73.6854H68.4219V78.9473Z" fill="#906F78"/>
<path d="M73.6838 100H78.9473V94.7365H73.6838V100Z" fill="#DDD9D8"/>
<path d="M73.6838 89.4743H78.9473V84.2108H73.6838V89.4743Z" fill="#231F20"/>
<path d="M73.6838 84.2108H78.9473V78.9473H73.6838V84.2108Z" fill="#71545D"/>
<path d="M73.6838 94.7365H78.9473V89.4743H73.6838V94.7365Z" fill="white"/>
<path d="M73.6838 78.9473H78.9473L78.9473 73.6855H73.6838L73.6838 78.9473Z" fill="#906F78"/>
<path d="M68.4219 110.527H73.6854V105.264H68.4219V110.527Z" fill="#231F20"/>
<path d="M36.8438 110.527H42.1073V105.264H36.8438V110.527Z" fill="white"/>
<path d="M73.6838 73.6855H78.9473V68.4219H73.6838V73.6855Z" fill="#231F20"/>
<path d="M47.3672 115.79H52.6307V110.527H47.3672V115.79Z" fill="#DDD9D8"/>
<path d="M42.1055 110.527V115.79H47.369V110.527H42.1055Z" fill="#DDD9D8"/>
<path d="M36.8438 115.79H42.1073V110.527H36.8438V115.79Z" fill="#DDD9D8"/>
<path d="M73.6838 110.527H78.9473V105.263H73.6838V110.527Z" fill="#4C373D"/>
<path d="M68.4219 115.79H73.6854V110.527H68.4219V115.79Z" fill="#4C373D"/>
<path d="M73.6838 115.79H78.9473L78.9473 110.527H73.6838L73.6838 115.79Z" fill="#71545D"/>
<path d="M63.1562 115.79H68.4198V110.527H63.1562V115.79Z" fill="#231F20"/>
<path d="M57.8945 115.79H63.1562V110.527H57.8945V115.79Z" fill="#DDD9D8"/>
<path d="M63.1562 110.527H68.4198V105.264H63.1562V110.527Z" fill="#DDD9D8"/>
<path d="M42.1055 94.7368H47.369V89.4746H42.1055V94.7368Z" fill="#FAB589"/>
<path d="M42.1055 89.4746H47.369V84.2109H42.1055V89.4746Z" fill="#FAB589"/>
<path d="M42.1055 84.2109H47.369V78.9473H42.1055V84.2109Z" fill="#FAB589"/>
<path d="M42.1055 99.9998H47.369V94.7368H42.1055V99.9998Z" fill="#E28D65"/>
<path d="M52.6328 84.2108H57.8963V78.9473H52.6328V84.2108Z" fill="white"/>
<path d="M57.8945 105.264L63.1562 105.264L63.1567 99.9998H57.8945V105.264Z" fill="white"/>
<path d="M63.1562 105.264H68.4198V100L63.1567 99.9998L63.1562 105.264Z" fill="white"/>
<path d="M52.6328 105.264H57.8963V100H52.6328V105.264Z" fill="white"/>
<path d="M47.3672 105.264H52.6307V100H47.3672V105.264Z" fill="#231F20"/>
<path d="M47.3672 100H52.6307V94.7363H47.3672V100Z" fill="#E28D65"/>
<path d="M52.6328 94.7368H57.8963V89.4746H52.6328V94.7368Z" fill="#231F20"/>
<path d="M47.3672 94.7363H52.6307V89.4746H47.3672V94.7363Z" fill="#FAB589"/>
<path d="M47.3672 89.4746H52.6307V84.2109H47.3672V89.4746Z" fill="#231F20"/>
<path d="M52.6328 89.4746H57.8963V84.2108H52.6328V89.4746Z" fill="white"/>
<path d="M57.8945 84.2108H63.1567V78.9473H57.8945V84.2108Z" fill="white"/>
<path d="M57.8945 94.7363H63.1567V89.4746H57.8945V94.7363Z" fill="white"/>
<path d="M52.6328 100H57.8963V94.7368H52.6328V100Z" fill="#231F20"/>
<path d="M57.8945 89.4746H63.1567V84.2108H57.8945V89.4746Z" fill="white"/>
<path d="M73.6838 142.105H78.9473L78.9473 136.842H73.6838L73.6838 142.105Z" fill="#231F20"/>
<path d="M47.3672 84.2109H52.6307V78.9473H47.3672V84.2109Z" fill="#231F20"/>
<path d="M36.8438 99.9998H42.1073V94.7363H36.8438V99.9998Z" fill="#231F20"/>
<path d="M42.1055 105.264H47.369V99.9998H42.1055V105.264Z" fill="#231F20"/>
<path d="M36.8438 105.264H42.1073V99.9998H36.8438V105.264Z" fill="white"/>
<path d="M36.8438 94.7363H42.1073V89.4746H36.8438V94.7363Z" fill="#E28D65"/>
<path d="M36.8438 89.4746H42.1073V84.2109H36.8438V89.4746Z" fill="#FAB589"/>
<path d="M42.1055 110.527H47.369V105.264H42.1055V110.527Z" fill="white"/>
<path d="M52.6328 110.527H57.8963V105.264H52.6328V110.527Z" fill="white"/>
<path d="M57.8945 110.527H63.1562V105.264L57.8945 105.264V110.527Z" fill="white"/>
<path d="M36.8438 84.2109H42.1073V78.9473H36.8438V84.2109Z" fill="#FAB589"/>
<path d="M47.3672 110.527H52.6307V105.264H47.3672V110.527Z" fill="white"/>
<path d="M52.6328 78.9473H57.8963V73.6854H52.6328V78.9473Z" fill="#231F20"/>
<path d="M63.1567 78.9473L68.4198 78.9477V73.6854H63.1567V78.9473Z" fill="#231F20"/>
<path d="M63.1567 89.4746L68.4198 89.4744V84.2109L63.1567 84.2108V89.4746Z" fill="white"/>
<path d="M63.1567 84.2108L68.4198 84.2109V78.9477L63.1567 78.9473V84.2108Z" fill="white"/>
<path d="M63.1567 94.7363L68.4198 94.7368V89.4744L63.1567 89.4746V94.7363Z" fill="white"/>
<path d="M47.3672 78.9473H52.6307V73.6854H47.3672V78.9473Z" fill="#231F20"/>
<path d="M42.1055 78.9473H47.369V73.6854H42.1055V78.9473Z" fill="#FAB589"/>
<path d="M36.8438 78.9473H42.1073V73.6854H36.8438V78.9473Z" fill="#FAB589"/>
<path d="M57.8945 78.9473H63.1567V73.6854H57.8945V78.9473Z" fill="#231F20"/>
<path d="M63.1567 99.9998L68.4198 100V94.7368L63.1567 94.7363V99.9998Z" fill="white"/>
<path d="M73.6838 105.263H78.9473V100H73.6838V105.263Z" fill="#231F20"/>
<path d="M21.0508 110.527H26.313V105.264H21.0508V110.527Z" fill="#38262C"/>
<path d="M21.0508 105.264H26.313V100H21.0508V105.264Z" fill="#231F20"/>
<path d="M21.0508 115.79H26.313V110.527H21.0508V115.79Z" fill="#38262C"/>
<path d="M21.0508 100H26.313V94.7363H21.0508V100Z" fill="#231F20"/>
<path d="M21.0508 94.7363H26.313V89.4746H21.0508V94.7363Z" fill="#231F20"/>
<path d="M26.3164 126.316H31.5799V121.053H26.3164V126.316Z" fill="#38262C"/>
<path d="M21.0508 121.053H26.313V115.79H21.0508V121.053Z" fill="#231F20"/>
<path d="M21.0508 89.4746H26.313V84.2109H21.0508V89.4746Z" fill="#231F20"/>
<path d="M31.5781 126.316H36.8416V121.053H31.5781V126.316Z" fill="#38262C"/>
<path d="M26.3164 121.053H31.5799V115.789H26.3164V121.053Z" fill="#38262C"/>
<path d="M31.5781 63.1581H36.8416L36.8416 57.895H31.5781L31.5781 63.1581Z" fill="#231F20"/>
<path d="M36.8438 126.316H42.1073V121.053H36.8438V126.316Z" fill="#4C373D"/>
<path d="M36.8438 63.158H42.1073V57.895H36.8438V63.158Z" fill="#FAB589"/>
<path d="M42.1055 63.158H47.369V57.895H42.1055V63.158Z" fill="#FAB589"/>
<path d="M42.1055 121.053V126.316H47.369V121.053H42.1055Z" fill="#4C373D"/>
<path d="M84.2109 94.7368H89.4744V89.4746H84.2109V94.7368Z" fill="#71545D"/>
<path d="M84.2109 89.4746H89.4744V84.2109H84.2109V89.4746Z" fill="#71545D"/>
<path d="M84.2109 99.9998H89.4744V94.7368H84.2109V99.9998Z" fill="#71545D"/>
<path d="M84.2109 105.264H89.4744V99.9998H84.2109V105.264Z" fill="#71545D"/>
<path d="M47.3672 63.158H52.6307V57.895H47.3672V63.158Z" fill="#231F20"/>
<path d="M84.2109 78.9477H89.4744V73.6855H84.2109V78.9477Z" fill="#231F20"/>
<path d="M84.2109 84.2109H89.4744V78.9477H84.2109V84.2109Z" fill="#71545D"/>
<path d="M84.2109 115.79H89.4744V110.527H84.2109V115.79Z" fill="#231F20"/>
<path d="M84.2109 110.527H89.4744V105.264H84.2109V110.527Z" fill="#71545D"/>
<path d="M57.8945 126.316H63.1567V121.053H57.8945V126.316Z" fill="#4C373D"/>
<path d="M52.6328 126.316H57.8963V121.053H52.6328V126.316Z" fill="#4C373D"/>
<path d="M63.1567 126.316H68.4198V121.053H63.1567V126.316Z" fill="#71545D"/>
<path d="M84.2109 121.053H89.4744V115.79H84.2109V121.053Z" fill="#4C373D"/>
<path d="M47.3672 126.316H52.6307V121.053H47.3672V126.316Z" fill="#4C373D"/>
<path d="M78.9492 126.316H84.2109V121.053L78.9492 121.053V126.316Z" fill="#71545D"/>
<path d="M84.2109 126.316H89.4744V121.053H84.2109V126.316Z" fill="#71545D"/>
<path d="M68.4219 126.316H73.6854V121.053H68.4219V126.316Z" fill="#71545D"/>
<path d="M73.6838 126.316H78.9473V121.053H73.6838V126.316Z" fill="#71545D"/>
<path d="M26.3164 110.527H31.5799V105.264H26.3164V110.527Z" fill="#231F20"/>
<path d="M31.5781 115.79H36.8416L36.8416 110.527H31.5781L31.5781 115.79Z" fill="#231F20"/>
<path d="M26.3164 105.264H31.5799V100H26.3164V105.264Z" fill="#DDD9D8"/>
<path d="M26.3164 100H31.5799V94.7363H26.3164V100Z" fill="white"/>
<path d="M36.8438 121.053H42.1073V115.79H36.8438V121.053Z" fill="#231F20"/>
<path d="M42.1055 115.79V121.053H47.369V115.79H42.1055Z" fill="#231F20"/>
<path d="M47.3672 121.053H52.6307V115.79H47.3672V121.053Z" fill="#231F20"/>
<path d="M31.5781 121.053H36.8416L36.8416 115.79H31.5781L31.5781 121.053Z" fill="#38262C"/>
<path d="M26.3164 94.7363H31.5799V89.4746H26.3164V94.7363Z" fill="white"/>
<path d="M26.3164 84.2108H31.5799V78.9473H26.3164V84.2108Z" fill="#231F20"/>
<path d="M26.3164 89.4746H31.5799V84.2108H26.3164V89.4746Z" fill="white"/>
<path d="M36.8438 68.4219H42.1073V63.158H36.8438V68.4219Z" fill="#FAB589"/>
<path d="M42.1055 68.4219H47.369V63.158H42.1055V68.4219Z" fill="#FAB589"/>
<path d="M47.3672 68.4219H52.6307V63.158H47.3672V68.4219Z" fill="#231F20"/>
<path d="M31.5781 68.4219H36.8416L36.8416 63.1581H31.5781L31.5781 68.4219Z" fill="#231F20"/>
<path d="M52.6328 121.053H57.8963V115.79H52.6328V121.053Z" fill="#231F20"/>
<path d="M26.3164 115.789H31.5799V110.527H26.3164V115.789Z" fill="#38262C"/>
<path d="M78.9492 73.6854L84.2109 73.6855L84.2114 68.4219H78.9492V73.6854Z" fill="#231F20"/>
<path d="M78.9492 84.2108L84.2109 84.2109V78.9477L78.9492 78.9473V84.2108Z" fill="#71545D"/>
<path d="M78.9492 78.9473L84.2109 78.9477V73.6855L78.9492 73.6854V78.9473Z" fill="#906F78"/>
<path d="M57.8945 121.053H63.1567L63.1562 115.79H57.8945V121.053Z" fill="#231F20"/>
<path d="M78.9492 89.4744L84.2109 89.4746V84.2109L78.9492 84.2108V89.4744Z" fill="#71545D"/>
<path d="M73.6838 121.053H78.9473L78.9473 115.79H73.6838L73.6838 121.053Z" fill="#71545D"/>
<path d="M68.4219 121.053H73.6854V115.79H68.4219V121.053Z" fill="#71545D"/>
<path d="M78.9492 121.053L84.2109 121.053V115.79L78.9492 115.789V121.053Z" fill="#71545D"/>
<path d="M78.9492 94.7368H84.2109V89.4746L78.9492 89.4744V94.7368Z" fill="#231F20"/>
<path d="M63.1567 121.053H68.4198V115.79H63.1562L63.1567 121.053Z" fill="#4C373D"/>
<path d="M78.9492 105.264H84.2109V99.9998L78.9492 100V105.264Z" fill="#4C373D"/>
<path d="M78.9492 115.789L84.2109 115.79V110.527H78.9492V115.789Z" fill="#4C373D"/>
<path d="M78.9492 100L84.2109 99.9998V94.7368H78.9492V100Z" fill="#231F20"/>
<path d="M78.9492 110.527H84.2109V105.264H78.9492V110.527Z" fill="#4C373D"/>
<path d="M0 31.5797H5.26219V26.3162H0V31.5797Z" fill="#231F20"/>
<path d="M57.8945 157.895H63.1567V152.633H57.8945V157.895Z" fill="#FAB589"/>
<path d="M63.1567 157.895H68.4198V152.633H63.1567V157.895Z" fill="#231F20"/>
<path d="M52.6328 157.895H57.8963V152.633H52.6328V157.895Z" fill="#231F20"/>
<path d="M5.26562 31.5799H10.5291V26.3164H5.26562V31.5799Z" fill="#231F20"/>
<path d="M110.527 94.7368H115.791V89.4746H110.527V94.7368Z" fill="#231F20"/>
<path d="M110.527 136.842H115.791V131.58H110.527V136.842Z" fill="#71545D"/>
<path d="M110.527 131.58H115.791V126.316H110.527V131.58Z" fill="#71545D"/>
<path d="M110.527 126.316H115.791V121.053H110.527V126.316Z" fill="#71545D"/>
<path d="M110.527 142.105H115.791V136.842H110.527V142.105Z" fill="#DDD9D8"/>
<path d="M78.9492 142.105H84.2114L84.2109 136.842H78.9492V142.105Z" fill="#231F20"/>
<path d="M110.527 105.264H115.791V100H110.527V105.264Z" fill="white"/>
<path d="M110.527 110.527H115.791V105.264H110.527V110.527Z" fill="white"/>
<path d="M110.527 121.053H115.791V115.789H110.527V121.053Z" fill="#4C373D"/>
<path d="M110.527 100H115.791V94.7368H110.527V100Z" fill="#906F78"/>
<path d="M36.8438 31.5799H42.1073V26.3164H36.8438V31.5799Z" fill="#FAB20B"/>
<path d="M42.1055 31.5799H47.369V26.3164H42.1055V31.5799Z" fill="#231F20"/>
<path d="M52.6328 31.5799H57.8963V26.3164H52.6328V31.5799Z" fill="#E28D65"/>
<path d="M57.8945 31.5799H63.1567V26.3164H57.8945V31.5799Z" fill="#231F20"/>
<path d="M47.3672 31.5799H52.6307V26.3164H47.3672V31.5799Z" fill="#FAB589"/>
<path d="M21.0508 31.5799H26.313V26.3164H21.0508V31.5799Z" fill="#FAB20B"/>
<path d="M31.5781 31.5797H36.8416V26.3162H31.5781V31.5797Z" fill="#FAB20B"/>
<path d="M26.3164 31.5799H31.5799V26.3164H26.3164V31.5799Z" fill="#FAB20B"/>
<path d="M15.7891 31.5799H21.0526V26.3164H15.7891V31.5799Z" fill="#FAB20B"/>
<path d="M10.5273 31.5799H15.7891V26.3164H10.5273V31.5799Z" fill="#FAB20B"/>
<path d="M0 26.3162H5.26219V21.0527H0V26.3162Z" fill="#231F20"/>
<path d="M10.5273 26.3164L15.7908 26.3162V21.0526H10.5273V26.3164Z" fill="#231F20"/>
<path d="M5.26219 26.3162L10.5254 26.3162V21.0527H5.26219V26.3162Z" fill="#FAB589"/>
<path d="M73.6838 157.895H78.9473L78.9473 152.633H73.6838L73.6838 157.895Z" fill="#231F20"/>
<path d="M47.3672 26.3164H52.6307V21.0526H47.3672V26.3164Z" fill="#FAB589"/>
<path d="M52.6328 26.3164H57.8963V21.0526H52.6328V26.3164Z" fill="#FAB589"/>
<path d="M57.8945 26.3164H63.1567V21.0526H57.8945V26.3164Z" fill="#231F20"/>
<path d="M42.1055 26.3164H47.369V21.0526H42.1055V26.3164Z" fill="#FAB589"/>
<path d="M21.0508 26.3164L26.3143 26.3162V21.0527L21.0508 21.0526V26.3164Z" fill="#231F20"/>
<path d="M26.3164 26.3164H31.5799V21.0526H26.3164V26.3164Z" fill="#231F20"/>
<path d="M31.5781 26.3162H36.8416V21.0527H31.5781V26.3162Z" fill="#231F20"/>
<path d="M36.8438 26.3164H42.1055V21.0526H36.8438V26.3164Z" fill="#231F20"/>
<path d="M110.527 147.369H115.791V142.105H110.527V147.369Z" fill="#231F20"/>
<path d="M15.7891 26.3164H21.0526V21.0526H15.7891V26.3164Z" fill="#231F20"/>
<path d="M115.789 126.316L121.051 126.316V121.053L115.789 121.053V126.316Z" fill="#71545D"/>
<path d="M115.789 121.053L121.051 121.053V115.79L115.789 115.789V121.053Z" fill="#71545D"/>
<path d="M115.789 131.58H121.051V126.316L115.789 126.316V131.58Z" fill="#231F20"/>
<path d="M115.789 142.105H121.051V136.842L115.789 136.842V142.105Z" fill="#DDD9D8"/>
<path d="M115.789 136.842L121.051 136.842V131.58H115.789V136.842Z" fill="white"/>
<path d="M115.789 147.369H121.051L121.051 142.105H115.789V147.369Z" fill="#231F20"/>
<path d="M115.789 105.264L121.051 105.264L121.051 100H115.789V105.264Z" fill="#231F20"/>
<path d="M115.789 115.789L121.051 115.79V110.527H115.789V115.789Z" fill="#4C373D"/>
<path d="M115.789 110.527H121.051V105.264L115.789 105.264V110.527Z" fill="#231F20"/>
<path d="M115.789 100H121.051V94.7363H115.789V100Z" fill="#231F20"/>
<path d="M84.2114 157.895H89.4744V152.633H84.2109L84.2114 157.895Z" fill="#231F20"/>
<path d="M78.9492 157.895H84.2114L84.2109 152.633H78.9492V157.895Z" fill="#FAB589"/>
<path d="M110.527 115.789H115.791V110.527H110.527V115.789Z" fill="#231F20"/>
<path d="M84.2109 147.369H89.4744V142.105L84.2114 142.105L84.2109 147.369Z" fill="#231F20"/>
<path d="M78.9492 147.369H84.2109L84.2114 142.105H78.9492V147.369Z" fill="#E28D65"/>
<path d="M73.6838 147.369H78.9473V142.105H73.6838V147.369Z" fill="#231F20"/>
<path d="M105.262 142.105H110.525V136.842H105.262V142.105Z" fill="#231F20"/>
<path d="M63.1562 147.369H68.4198V142.105H63.1562V147.369Z" fill="#231F20"/>
<path d="M52.6328 147.369H57.8963V142.105H52.6328V147.369Z" fill="#231F20"/>
<path d="M57.8945 147.369H63.1562V142.105H57.8945V147.369Z" fill="#E28D65"/>
<path d="M100 84.2108H105.262V78.9473H100V84.2108Z" fill="#231F20"/>
<path d="M105.262 136.842H110.525L110.525 131.58H105.262L105.262 136.842Z" fill="#4C373D"/>
<path d="M100 94.7368H105.262V89.4746H100V94.7368Z" fill="#71545D"/>
<path d="M100 100H105.262L105.262 94.7368H100L100 100Z" fill="#71545D"/>
<path d="M100 110.527H105.262V105.263H100V110.527Z" fill="#71545D"/>
<path d="M100 105.263H105.262V100H100V105.263Z" fill="#71545D"/>
<path d="M94.7344 142.105H99.9979V136.842H94.7344V142.105Z" fill="#231F20"/>
<path d="M89.4727 142.105H94.7362V136.842H89.4727V142.105Z" fill="#231F20"/>
<path d="M84.2114 142.105L89.4744 142.105V136.842H84.2109L84.2114 142.105Z" fill="#231F20"/>
<path d="M100 121.053H105.262V115.789H100V121.053Z" fill="#231F20"/>
<path d="M100 126.316H105.262V121.053H100V126.316Z" fill="#4C373D"/>
<path d="M100 136.842L105.262 136.842L105.262 131.58H100V136.842Z" fill="#231F20"/>
<path d="M100 115.789H105.262V110.527H100V115.789Z" fill="#71545D"/>
<path d="M100 89.4746H105.262L105.262 84.2108H100L100 89.4746Z" fill="#906F78"/>
<path d="M36.8438 42.1055H42.1073V36.8418H36.8438V42.1055Z" fill="#E28D65"/>
<path d="M31.5781 42.1054H36.8416V36.8419H31.5781V42.1054Z" fill="#231F20"/>
<path d="M42.1055 42.1055H47.369V36.8418H42.1055V42.1055Z" fill="#E28D65"/>
<path d="M52.6328 42.1053H57.8963V36.8418H52.6328V42.1053Z" fill="#231F20"/>
<path d="M47.3672 42.1055H52.6307V36.8418H47.3672V42.1055Z" fill="#E28D65"/>
<path d="M15.7891 42.1053H21.0526V36.8418H15.7891V42.1053Z" fill="#231F20"/>
<path d="M26.3164 42.1053H31.5799V36.8418H26.3164V42.1053Z" fill="#231F20"/>
<path d="M21.0508 42.1053H26.313V36.8418H21.0508V42.1053Z" fill="#231F20"/>
<path d="M100 131.58H105.262L105.262 126.316H100L100 131.58Z" fill="#4C373D"/>
<path d="M84.2109 152.633H89.4744V147.369H84.2109V152.633Z" fill="#231F20"/>
<path d="M73.6838 152.633H78.9473L78.9473 147.369H73.6838L73.6838 152.633Z" fill="#231F20"/>
<path d="M78.9492 152.633H84.2109V147.369H78.9492V152.633Z" fill="#FAB589"/>
<path d="M63.1567 152.633H68.4198V147.369H63.1562L63.1567 152.633Z" fill="#231F20"/>
<path d="M57.8945 152.633H63.1567L63.1562 147.369H57.8945V152.633Z" fill="#FAB589"/>
<path d="M52.6328 152.633H57.8963V147.369H52.6328V152.633Z" fill="#231F20"/>
<path d="M105.262 110.527H110.525V105.263H105.262V110.527Z" fill="#71545D"/>
<path d="M105.262 121.053H110.525V115.789H105.262V121.053Z" fill="#231F20"/>
<path d="M105.262 115.789H110.525V110.527H105.262V115.789Z" fill="white"/>
<path d="M105.262 126.316H110.525V121.053H105.262V126.316Z" fill="#4C373D"/>
<path d="M105.262 94.7368H110.525V89.4746H105.262V94.7368Z" fill="#906F78"/>
<path d="M105.262 89.4746H110.525L110.525 84.2108L105.262 84.2108L105.262 89.4746Z" fill="#231F20"/>
<path d="M105.262 105.263H110.525V100L105.262 100V105.263Z" fill="#71545D"/>
<path d="M105.262 100L110.525 100L110.525 94.7368H105.262L105.262 100Z" fill="#71545D"/>
<path d="M42.1055 36.8418H47.369V31.5799H42.1055V36.8418Z" fill="#E28D65"/>
<path d="M15.7891 36.8418H21.0526V31.5799H15.7891V36.8418Z" fill="#E2880E"/>
<path d="M21.0508 36.8418H26.313V31.5799H21.0508V36.8418Z" fill="#E2880E"/>
<path d="M10.5273 36.8423H15.7908V31.5801L10.5273 31.5799V36.8423Z" fill="#231F20"/>
<path d="M26.3164 36.8418H31.5799V31.5799H26.3164V36.8418Z" fill="#E2880E"/>
<path d="M31.5781 36.8419H36.8416V31.5797H31.5781V36.8419Z" fill="#E2880E"/>
<path d="M36.8438 36.8418H42.1073V31.5799H36.8438V36.8418Z" fill="#231F20"/>
<path d="M5.26196 36.8423H10.5255V31.5801L5.26219 31.5797L5.26196 36.8423Z" fill="#231F20"/>
<path d="M105.262 131.58H110.525L110.525 126.316H105.262L105.262 131.58Z" fill="#231F20"/>
<path d="M47.3672 36.8418H52.6307V31.5799H47.3672V36.8418Z" fill="#E28D65"/>
<path d="M52.6328 36.8418H57.8963V31.5799H52.6328V36.8418Z" fill="#E28D65"/>
<path d="M57.8945 36.8423H63.1567V31.5799H57.8945V36.8423Z" fill="#231F20"/>
<path d="M84.2109 200H89.4744V194.736H84.2109V200Z" fill="#231F20"/>
<path d="M52.6328 200H57.8963V194.736H52.6328V200Z" fill="#231F20"/>
<path d="M57.8945 200H63.1567V194.736H57.8945V200Z" fill="#231F20"/>
<path d="M36.8438 200H42.1073V194.736H36.8438V200Z" fill="#231F20"/>
<path d="M47.3672 200H52.6307V194.736H47.3672V200Z" fill="#231F20"/>
<path d="M63.1567 194.736V200H68.4198V194.736H63.1567Z" fill="#231F20"/>
<path d="M78.9492 200H84.2109V194.736H78.9492V200Z" fill="#231F20"/>
<path d="M73.6838 200H78.9473V194.737H73.6838V200Z" fill="#231F20"/>
<path d="M68.4219 200H73.6854V194.736H68.4219V200Z" fill="#231F20"/>
<path d="M42.1055 194.736V200H47.369V194.736H42.1055Z" fill="#231F20"/>
<path d="M89.4727 200H94.7362V194.736H89.4727V200Z" fill="#231F20"/>
<path d="M100 200H105.262V194.737H100V200Z" fill="#231F20"/>
<path d="M94.7344 200H99.9979V194.736H94.7344V200Z" fill="#231F20"/>
<path d="M100 194.737H105.262L105.262 189.475H100L100 194.737Z" fill="#231F20"/>
<path d="M94.7344 194.736H99.9979V189.474H94.7344V194.736Z" fill="#E28D65"/>
<path d="M89.4727 194.736H94.7362V189.474H89.4727V194.736Z" fill="#231F20"/>
<path d="M84.2109 194.736H89.4744V189.474H84.2109V194.736Z" fill="#E28D65"/>
<path d="M78.9492 194.736H84.2109V189.474H78.9492V194.736Z" fill="#E28D65"/>
<path d="M36.8438 194.736H42.1073V189.475H36.8438V194.736Z" fill="#231F20"/>
<path d="M47.3672 194.736H52.6307V189.474H47.3672V194.736Z" fill="#231F20"/>
<path d="M73.6838 194.737H78.9473V189.474H73.6838V194.737Z" fill="#E28D65"/>
<path d="M42.1055 189.474V194.736H47.369V189.474H42.1055Z" fill="#E28D65"/>
<path d="M68.4219 194.736H73.6854V189.475H68.4219V194.736Z" fill="#231F20"/>
<path d="M63.1567 194.736H68.4198V189.474H63.1562L63.1567 194.736Z" fill="#E28D65"/>
<path d="M52.6328 194.736H57.8963V189.474H52.6328V194.736Z" fill="#E28D65"/>
<path d="M57.8945 194.736H63.1567L63.1562 189.474H57.8945V194.736Z" fill="#E28D65"/>
</svg>
