<svg width="125" height="159" viewBox="0 0 125 159" fill="none" xmlns="http://www.w3.org/2000/svg">
<path d="M81.7329 149.363H76.9249V144.545H81.7329V149.363Z" fill="#231F20"/>
<path d="M72.1146 149.363H67.3066V144.545H72.1146V149.363Z" fill="#231F20"/>
<path d="M43.2689 149.363H38.4609V144.545H43.2689V149.363Z" fill="#FABC09"/>
<path d="M52.8841 149.363H48.0761V144.545H52.8841V149.363Z" fill="#231F20"/>
<path d="M48.0749 149.363L43.2689 149.363V144.545L48.0749 144.545V149.363Z" fill="#231F20"/>
<path d="M76.9237 149.363H72.1157V144.545H76.9237V149.363Z" fill="#FABC09"/>
<path d="M38.4628 149.363H33.6548V144.545H38.4628V149.363Z" fill="#231F20"/>
<path d="M86.5359 149.363H81.7291V144.545H86.5359V149.363Z" fill="#231F20"/>
<path d="M91.345 149.363H86.5371V144.545H91.345V149.363Z" fill="#231F20"/>
<path d="M100.96 4.81849H96.1523V0H100.96V4.81849Z" fill="#231F20"/>
<path d="M33.6536 149.363H28.8468V144.545H33.6536V149.363Z" fill="#231F20"/>
<path d="M86.5359 4.81849H81.7291V0H86.5359V4.81849Z" fill="#231F20"/>
<path d="M96.1542 4.81849H91.3462V0H96.1542V4.81849Z" fill="#231F20"/>
<path d="M91.345 4.81849H86.5371V0H91.345V4.81849Z" fill="#231F20"/>
<path d="M28.8468 149.363H24.0395V144.545H28.8468V149.363Z" fill="#231F20"/>
<path d="M28.8476 81.91H24.0396V77.0915H28.8476V81.91Z" fill="#231F20"/>
<path d="M28.8475 52.9997H24.0395V48.1812H28.8475V52.9997Z" fill="#E0833A"/>
<path d="M28.8476 77.0915H24.0396V72.2734H28.8476V77.0915Z" fill="#9D4E1F"/>
<path d="M28.8476 91.5447H24.0396V86.7262H28.8476V91.5447Z" fill="#9D4E1F"/>
<path d="M28.8476 96.3644H24.0396V91.5459H28.8476V96.3644Z" fill="#9D4E1F"/>
<path d="M28.8476 86.7262H24.0396V81.91H28.8476V86.7262Z" fill="#CA6F1F"/>
<path d="M28.8476 62.636H24.0396V57.8175H28.8476V62.636Z" fill="#231F20"/>
<path d="M28.8476 57.8175H24.0396L24.0395 52.9997H28.8475L28.8476 57.8175Z" fill="#E0833A"/>
<path d="M28.8476 72.2722H24.0396V67.4537H28.8476V72.2722Z" fill="#CA6F1F"/>
<path d="M28.8476 67.4537H24.0396V62.636H28.8476V67.4537Z" fill="#231F20"/>
<path d="M28.8476 101.181H24.0396V96.3644H28.8476V101.181Z" fill="#9D4E1F"/>
<path d="M28.8475 134.909H24.0395V130.091H28.8475V134.909Z" fill="#231F20"/>
<path d="M28.8475 130.091H24.0395L24.0396 125.273H28.8476L28.8475 130.091Z" fill="#B86429"/>
<path d="M28.8476 125.273H24.0396V120.455H28.8476V125.273Z" fill="#CB7331"/>
<path d="M28.8476 115.637H24.0396V110.818H28.8476V115.637Z" fill="#B86429"/>
<path d="M28.8476 110.817H24.0396V105.999H28.8476V110.817Z" fill="#231F20"/>
<path d="M28.8476 105.999H24.0396V101.181H28.8476V105.999Z" fill="#77341D"/>
<path d="M28.8476 120.454H24.0396V115.637H28.8476V120.454Z" fill="#E0833A"/>
<path d="M28.8476 28.9095H24.0396V24.0922H28.8476V28.9095Z" fill="#231F20"/>
<path d="M28.8475 38.5454H24.0395V33.7269H28.8475V38.5454Z" fill="#FAB24A"/>
<path d="M28.8475 33.7269H24.0395L24.0396 28.9103H28.8476L28.8475 33.7269Z" fill="#FAB24A"/>
<path d="M28.8476 43.3635H24.0396L24.0395 38.5454H28.8475L28.8476 43.3635Z" fill="#E0833A"/>
<path d="M28.8475 48.1812H24.0395L24.0396 43.3647H28.8476L28.8475 48.1812Z" fill="#E0833A"/>
<path d="M81.733 139.726H76.925V134.909H81.733V139.726Z" fill="#231F20"/>
<path d="M86.5359 9.63542H81.7292L81.7291 4.81849H86.5359L86.5359 9.63542Z" fill="#D91920"/>
<path d="M81.733 9.63542H76.925V4.81812H81.733V9.63542Z" fill="#231F20"/>
<path d="M38.4628 43.3635H33.6549V38.545H38.4628V43.3635Z" fill="#FAB24A"/>
<path d="M38.4628 38.545H33.6549L33.6548 33.7269H38.4628L38.4628 38.545Z" fill="#231F20"/>
<path d="M38.4628 48.182H33.6549V43.3647H38.4628V48.182Z" fill="#E0833A"/>
<path d="M38.4628 57.8179H33.6549V52.9994H38.4628V57.8179Z" fill="#E0833A"/>
<path d="M38.4628 52.9994H33.6549V48.182H38.4628V52.9994Z" fill="#231F20"/>
<path d="M91.3451 9.63542H86.5371L86.5371 4.81849H91.345L91.3451 9.63542Z" fill="#D91920"/>
<path d="M105.77 9.63542H100.962V4.81812H105.77V9.63542Z" fill="#231F20"/>
<path d="M100.96 9.63542H96.1524L96.1523 4.81849H100.96L100.96 9.63542Z" fill="#F25937"/>
<path d="M96.1543 9.63542H91.3463L91.3462 4.81849H96.1542L96.1543 9.63542Z" fill="#D91920"/>
<path d="M38.4628 62.636H33.6549V57.8179H38.4628V62.636Z" fill="#E0833A"/>
<path d="M67.3086 139.726H62.5018V134.909H67.3086V139.726Z" fill="#231F20"/>
<path d="M76.9238 139.726H72.1158V134.909H76.9238V139.726Z" fill="#231F20"/>
<path d="M72.1146 139.726H67.3066V134.909H72.1146V139.726Z" fill="#231F20"/>
<path d="M86.5359 139.726H81.7292V134.909H86.5359V139.726Z" fill="#231F20"/>
<path d="M38.4628 134.909H33.6548V130.091H38.4628V134.909Z" fill="#954A1D"/>
<path d="M38.4628 96.3644H33.6549V91.5459H38.4628V96.3644Z" fill="#9D4E1F"/>
<path d="M38.4628 101.181H33.6549V96.3644H38.4628V101.181Z" fill="#9D4E1F"/>
<path d="M38.4628 110.817H33.6549V105.999H38.4628V110.817Z" fill="#77341D"/>
<path d="M38.4628 115.637H33.6549V110.818H38.4628V115.637Z" fill="#231F20"/>
<path d="M62.487 139.726H57.679V134.909H62.487V139.726Z" fill="#231F20"/>
<path d="M38.4628 105.999H33.6549V101.181H38.4628V105.999Z" fill="#9D4E1F"/>
<path d="M38.4628 72.2722H33.6549V67.4537H38.4628V72.2722Z" fill="#9D4E1F"/>
<path d="M38.4628 77.0919H33.6549V72.2734H38.4628V77.0919Z" fill="#231F20"/>
<path d="M38.4628 86.727H33.6548V81.9097H38.4628V86.727Z" fill="#9D4E1F"/>
<path d="M38.4628 81.9097H33.6548L33.6549 77.0919H38.4628L38.4628 81.9097Z" fill="#231F20"/>
<path d="M38.4628 91.5447H33.6549L33.6548 86.727H38.4628L38.4628 91.5447Z" fill="#9D4E1F"/>
<path d="M48.075 139.726H43.2682V134.909H48.075V139.726Z" fill="#231F20"/>
<path d="M52.8842 139.726H48.0762V134.909H52.8842V139.726Z" fill="#231F20"/>
<path d="M57.7336 139.726H52.9256V134.909H57.7336V139.726Z" fill="#231F20"/>
<path d="M43.2682 139.726H38.461V134.909H43.2682V139.726Z" fill="#231F20"/>
<path d="M38.4628 120.454H33.6549V115.637H38.4628V120.454Z" fill="#B86429"/>
<path d="M38.4628 130.091H33.6548L33.6549 125.273H38.4628L38.4628 130.091Z" fill="#CB7331"/>
<path d="M38.4628 125.273H33.6549V120.455H38.4628V125.273Z" fill="#E0833A"/>
<path d="M38.4628 67.4537H33.6549V62.636H38.4628V67.4537Z" fill="#231F20"/>
<path d="M38.4628 139.726H33.6549L33.6548 134.909H38.4628L38.4628 139.726Z" fill="#231F20"/>
<path d="M33.6537 125.273H28.8469L28.8476 120.455H33.6537V125.273Z" fill="#E0833A"/>
<path d="M33.6537 120.454H28.8476L28.8469 115.637H33.6537V120.454Z" fill="#E0833A"/>
<path d="M33.6536 134.909H28.8475V130.091H33.6536V134.909Z" fill="#954A1D"/>
<path d="M33.6536 130.091H28.8475L28.8469 125.273H33.6537L33.6536 130.091Z" fill="#CB7331"/>
<path d="M33.6537 139.726H28.8469L28.8475 134.909H33.6536L33.6537 139.726Z" fill="#231F20"/>
<path d="M33.6537 115.637H28.8469L28.8476 110.818H33.6537V115.637Z" fill="#B86429"/>
<path d="M33.6537 101.181H28.8476L28.8469 96.364H33.6537V101.181Z" fill="#9D4E1F"/>
<path d="M33.6537 96.364H28.8469L28.8476 91.5459H33.6537V96.364Z" fill="#9D4E1F"/>
<path d="M76.9237 144.545H72.1157L72.1158 139.727H76.9238L76.9237 144.545Z" fill="#E28E0D"/>
<path d="M72.1146 144.545H67.3066L67.3066 139.727H72.1146L72.1146 144.545Z" fill="#231F20"/>
<path d="M48.0749 144.545L43.2689 144.545L43.2682 139.727H48.075L48.0749 144.545Z" fill="#231F20"/>
<path d="M43.2689 144.545H38.4609L38.461 139.727H43.2682L43.2689 144.545Z" fill="#E28E0D"/>
<path d="M38.4628 144.545H33.6548L33.6549 139.727H38.4628L38.4628 144.545Z" fill="#231F20"/>
<path d="M33.6537 91.5447H28.8476V86.7262H33.6537V91.5447Z" fill="#9D4E1F"/>
<path d="M33.6537 110.817H28.8476V105.999H33.6537V110.817Z" fill="#231F20"/>
<path d="M33.6537 33.7276H28.8469L28.8476 28.9103H33.6537V33.7276Z" fill="#231F20"/>
<path d="M33.6536 38.5454H28.8475L28.8469 33.7276H33.6537L33.6536 38.5454Z" fill="#231F20"/>
<path d="M33.6537 57.8179H28.8469L28.8475 52.9997L33.6537 52.9994V57.8179Z" fill="#E0833A"/>
<path d="M33.6536 67.4541H28.8468V62.6356H33.6536V67.4541Z" fill="#CA6F1F"/>
<path d="M33.6537 77.0919H28.8469L28.8476 72.2734H33.6537V77.0919Z" fill="#9D4E1F"/>
<path d="M33.6537 43.3635H28.8476L28.8475 38.5454H33.6536L33.6537 43.3635Z" fill="#231F20"/>
<path d="M33.6537 81.91H28.8476L28.8469 77.0919H33.6537V81.91Z" fill="#9D4E1F"/>
<path d="M33.6537 72.2722H28.8476V67.4537L33.6536 67.4541L33.6537 72.2722Z" fill="#9D4E1F"/>
<path d="M33.6537 48.182H28.8469L28.8476 43.3647H33.6537V48.182Z" fill="#E0833A"/>
<path d="M33.6537 52.9994L28.8475 52.9997L28.8469 48.182H33.6537V52.9994Z" fill="#E0833A"/>
<path d="M33.6537 86.7262L28.8468 86.727V81.9097L33.6537 81.91V86.7262Z" fill="#9D4E1F"/>
<path d="M33.6536 62.6356L28.8476 62.636L28.8469 57.8179H33.6537L33.6536 62.6356Z" fill="#231F20"/>
<path d="M33.6537 105.999L28.8469 105.999V101.181L33.6537 101.181V105.999Z" fill="#77341D"/>
<path d="M81.7329 144.545H76.9249L76.925 139.727H81.733L81.7329 144.545Z" fill="#231F20"/>
<path d="M19.2293 130.091H14.4213V125.273H19.2293V130.091Z" fill="#231F20"/>
<path d="M19.2293 125.273H14.4213V120.455H19.2293V125.273Z" fill="#954A1D"/>
<path d="M19.2293 96.3644H14.4213V91.5459H19.2293V96.3644Z" fill="#231F20"/>
<path d="M19.2293 120.454H14.4213V115.637H19.2293V120.454Z" fill="#CB7331"/>
<path d="M19.2293 110.817H14.4213V105.999H19.2293V110.817Z" fill="#E0833A"/>
<path d="M19.2293 101.181H14.4213V96.3644H19.2293V101.181Z" fill="#231F20"/>
<path d="M19.2293 105.999H14.4213V101.181H19.2293V105.999Z" fill="#B86429"/>
<path d="M19.2293 115.637H14.4213V110.818H19.2293V115.637Z" fill="#E0833A"/>
<path d="M43.269 159H38.461V154.182H43.269V159Z" fill="#231F20"/>
<path d="M33.6537 159H28.8469V154.182H33.6537V159Z" fill="#231F20"/>
<path d="M48.075 159H43.269V154.182H48.075V159Z" fill="#231F20"/>
<path d="M28.8469 159H24.0396V154.182H28.8469V159Z" fill="#231F20"/>
<path d="M24.0384 159H19.2305V154.182H24.0384V159Z" fill="#231F20"/>
<path d="M38.4628 159H33.6549V154.182H38.4628V159Z" fill="#231F20"/>
<path d="M19.2292 38.5454H14.4212V33.7269H19.2292V38.5454Z" fill="#231F20"/>
<path d="M19.2293 91.5447H14.4213V86.7262H19.2293V91.5447Z" fill="#231F20"/>
<path d="M19.2293 43.3635H14.4213L14.4212 38.5454H19.2292L19.2293 43.3635Z" fill="#FAB24A"/>
<path d="M19.2293 81.91H14.4213V77.0915H19.2293V81.91Z" fill="#9D4E1F"/>
<path d="M19.2293 77.0915H14.4213V72.2734H19.2293V77.0915Z" fill="#9D4E1F"/>
<path d="M19.2293 86.7262H14.4213V81.91H19.2293V86.7262Z" fill="#9D4E1F"/>
<path d="M19.2293 72.2722H14.4213V67.4537H19.2293V72.2722Z" fill="#9D4E1F"/>
<path d="M19.2293 62.636H14.4213V57.8175H19.2293V62.636Z" fill="#231F20"/>
<path d="M19.2292 52.9997H14.4212V48.1812H19.2292V52.9997Z" fill="#E0833A"/>
<path d="M19.2293 57.8175H14.4213L14.4212 52.9997H19.2292L19.2293 57.8175Z" fill="#231F20"/>
<path d="M19.2292 48.1812H14.4212L14.4213 43.3647H19.2293L19.2292 48.1812Z" fill="#E0833A"/>
<path d="M19.2293 67.4537H14.4213V62.636H19.2293V67.4537Z" fill="#CA6F1F"/>
<path d="M14.4232 101.181H9.6164V96.364H14.4232V101.181Z" fill="#E0833A"/>
<path d="M14.4232 105.999H9.6164V101.181H14.4232V105.999Z" fill="#E0833A"/>
<path d="M14.4232 96.364H9.6164V91.5459H14.4232V96.364Z" fill="#B86429"/>
<path d="M14.4232 115.637H9.6164V110.818H14.4232V115.637Z" fill="#954A1D"/>
<path d="M14.4232 120.454H9.6164V115.637H14.4232V120.454Z" fill="#231F20"/>
<path d="M14.4232 110.817H9.6164V105.999H14.4232V110.817Z" fill="#CB7331"/>
<path d="M14.4232 77.0919H9.6164V72.2734H14.4232V77.0919Z" fill="#231F20"/>
<path d="M14.4232 91.5447H9.6164V86.7262H14.4232V91.5447Z" fill="#B86429"/>
<path d="M14.4232 81.91H9.6164V77.0919H14.4232V81.91Z" fill="#231F20"/>
<path d="M14.4232 86.7262H9.6164V81.91H14.4232V86.7262Z" fill="#231F20"/>
<path d="M14.4232 125.273H9.6164V120.455H14.4232V125.273Z" fill="#231F20"/>
<path d="M52.8842 159H48.0762V154.182H52.8842V159Z" fill="#231F20"/>
<path d="M76.9238 159H72.1158V154.182H76.9238V159Z" fill="#231F20"/>
<path d="M24.0384 81.91H19.2305V77.0915H24.0384V81.91Z" fill="#231F20"/>
<path d="M24.0384 86.727H19.2304L19.2305 81.91H24.0384L24.0384 86.727Z" fill="#231F20"/>
<path d="M24.0384 77.0915H19.2305V72.2734H24.0384V77.0915Z" fill="#9D4E1F"/>
<path d="M24.0384 91.5447H19.2305L19.2304 86.727H24.0384L24.0384 91.5447Z" fill="#9D4E1F"/>
<path d="M24.0384 96.3644H19.2305V91.5459H24.0384V96.3644Z" fill="#9D4E1F"/>
<path d="M24.0384 62.636H19.2305V57.8175H24.0384V62.636Z" fill="#CA6F1F"/>
<path d="M24.0384 52.9997H19.2304V48.1812H24.0384V52.9997Z" fill="#E0833A"/>
<path d="M24.0384 101.181H19.2305V96.3644H24.0384V101.181Z" fill="#77341D"/>
<path d="M24.0384 67.4541H19.2304L19.2305 62.636H24.0384L24.0384 67.4541Z" fill="#9D4E1F"/>
<path d="M24.0384 72.2722H19.2305L19.2304 67.4541H24.0384L24.0384 72.2722Z" fill="#231F20"/>
<path d="M24.0384 57.8175H19.2305L19.2304 52.9997H24.0384L24.0384 57.8175Z" fill="#231F20"/>
<path d="M24.0384 134.909H19.2304V130.091H24.0384V134.909Z" fill="#231F20"/>
<path d="M24.0384 105.999H19.2305V101.181H24.0384V105.999Z" fill="#231F20"/>
<path d="M24.0384 154.18H19.2305V149.362H24.0384V154.18Z" fill="#231F20"/>
<path d="M24.0384 125.273H19.2305V120.455H24.0384V125.273Z" fill="#CB7331"/>
<path d="M24.0384 110.817H19.2305V105.999H24.0384V110.817Z" fill="#B86429"/>
<path d="M24.0384 115.637H19.2305V110.818H24.0384V115.637Z" fill="#E0833A"/>
<path d="M24.0384 120.454H19.2305V115.637H24.0384V120.454Z" fill="#E0833A"/>
<path d="M24.0384 130.091H19.2304L19.2305 125.273H24.0384L24.0384 130.091Z" fill="#954A1D"/>
<path d="M24.0384 38.5454H19.2304V33.7269H24.0384V38.5454Z" fill="#231F20"/>
<path d="M24.0384 33.7269H19.2304L19.2305 28.9103H24.0384L24.0384 33.7269Z" fill="#231F20"/>
<path d="M24.0384 43.3635H19.2305L19.2304 38.5454H24.0384L24.0384 43.3635Z" fill="#231F20"/>
<path d="M24.0384 48.1812H19.2304L19.2305 43.3647H24.0384L24.0384 48.1812Z" fill="#E0833A"/>
<path d="M52.8842 154.18H48.0762L48.0761 149.363H52.8841L52.8842 154.18Z" fill="#231F20"/>
<path d="M76.9238 154.18H72.1158L72.1157 149.363H76.9237L76.9238 154.18Z" fill="#FABC09"/>
<path d="M72.1146 154.18H67.3066L67.3066 149.363H72.1146L72.1146 154.18Z" fill="#FABC09"/>
<path d="M67.3086 154.18H62.5018V149.362H67.3086V154.18Z" fill="#231F20"/>
<path d="M28.8476 154.18H24.0396L24.0395 149.363L28.8476 149.362V154.18Z" fill="#E28E0D"/>
<path d="M33.6537 154.18H28.8476V149.362L33.6536 149.363L33.6537 154.18Z" fill="#231F20"/>
<path d="M38.4628 154.18H33.6549L33.6548 149.363H38.4628L38.4628 154.18Z" fill="#FABC09"/>
<path d="M43.269 154.18H38.461V149.362H43.269V154.18Z" fill="#FABC09"/>
<path d="M48.075 154.18H43.269V149.362L48.0749 149.363L48.075 154.18Z" fill="#FABC09"/>
<path d="M86.5359 154.18H81.7292L81.7291 149.363H86.5359L86.5359 154.18Z" fill="#231F20"/>
<path d="M91.3451 154.18H86.5371L86.5371 149.363H91.345L91.3451 154.18Z" fill="#E28E0D"/>
<path d="M81.733 154.18H76.925L76.9249 149.363H81.7329L81.733 154.18Z" fill="#FABC09"/>
<path d="M96.1543 154.18H91.3463V149.362H96.1543V154.18Z" fill="#231F20"/>
<path d="M72.1146 159H67.3066V154.182H72.1146V159Z" fill="#231F20"/>
<path d="M91.3451 159H86.5371V154.182H91.3451V159Z" fill="#231F20"/>
<path d="M96.1543 159H91.3463V154.182H96.1543V159Z" fill="#231F20"/>
<path d="M81.733 159H76.925V154.182H81.733V159Z" fill="#231F20"/>
<path d="M86.5359 159H81.7292V154.182H86.5359V159Z" fill="#231F20"/>
<path d="M67.3086 159H62.5018V154.182H67.3086V159Z" fill="#231F20"/>
<path d="M100.96 96.3644H96.1524V91.5459H100.96V96.3644Z" fill="#E0833A"/>
<path d="M67.3085 52.9997H62.5017V48.1812H67.3085V52.9997Z" fill="#E0833A"/>
<path d="M67.3085 38.5454H62.5017V33.7269H67.3085V38.5454Z" fill="#231F20"/>
<path d="M76.9237 38.5454H72.1157V33.7269H76.9237V38.5454Z" fill="#E0833A"/>
<path d="M67.3086 43.3635H62.5018L62.5017 38.5454H67.3085L67.3086 43.3635Z" fill="#231F20"/>
<path d="M67.3085 48.1812H62.5017L62.5018 43.3647H67.3086L67.3085 48.1812Z" fill="#FAB24A"/>
<path d="M72.1146 38.5454H67.3066V33.7269H72.1146V38.5454Z" fill="#E0833A"/>
<path d="M96.1542 38.5454H91.3462V33.7269H96.1542V38.5454Z" fill="#231F20"/>
<path d="M81.7329 38.5454H76.9249V33.7269H81.7329V38.5454Z" fill="#E0833A"/>
<path d="M91.345 38.5454H86.5359V33.7269H91.345V38.5454Z" fill="#E0833A"/>
<path d="M72.1146 43.3635H67.3066L67.3066 38.5454H72.1146L72.1146 43.3635Z" fill="#E0833A"/>
<path d="M67.3085 67.4541H62.5017V62.6356H67.3085V67.4541Z" fill="#E0833A"/>
<path d="M67.3086 91.5447H62.5018V86.7262H67.3086V91.5447Z" fill="#9D4E1F"/>
<path d="M67.3086 86.7262H62.5018L62.5017 81.9097H67.3085L67.3086 86.7262Z" fill="#9D4E1F"/>
<path d="M67.3086 57.8179H62.5018L62.5017 52.9997H67.3085L67.3086 57.8179Z" fill="#E0833A"/>
<path d="M67.3086 96.3644H62.5018V91.5459H67.3086V96.3644Z" fill="#77341D"/>
<path d="M67.3085 81.9097H62.5017L62.5018 77.0915H67.3086L67.3085 81.9097Z" fill="#CA6F1F"/>
<path d="M67.3086 101.181H62.5018V96.3644H67.3086V101.181Z" fill="#231F20"/>
<path d="M100.96 38.5454H96.1523V33.7269H100.96V38.5454Z" fill="#231F20"/>
<path d="M67.3086 77.0915H62.5018V72.2734H67.3086V77.0915Z" fill="#231F20"/>
<path d="M67.3085 62.6356H62.5017L62.5018 57.8179H67.3086L67.3085 62.6356Z" fill="#CA6F1F"/>
<path d="M67.3086 72.2722H62.5018L62.5017 67.4541H67.3085L67.3086 72.2722Z" fill="#E0833A"/>
<path d="M67.3086 105.999H62.5018V101.181H67.3086V105.999Z" fill="#B86429"/>
<path d="M115.385 38.5454H110.577V33.7269H115.385V38.5454Z" fill="#E0833A"/>
<path d="M105.769 38.5454H100.961V33.7269H105.769V38.5454Z" fill="#231F20"/>
<path d="M120.191 38.5455L115.385 38.5454V33.7269L120.191 33.7271V38.5455Z" fill="#231F20"/>
<path d="M110.576 38.5454H105.768V33.7269H110.576V38.5454Z" fill="#E0833A"/>
<path d="M120.191 43.3635H115.384L115.385 38.5454L120.191 38.5455L120.191 43.3635Z" fill="#231F20"/>
<path d="M91.3451 43.3635H86.5359L86.5359 38.5454H91.345L91.3451 43.3635Z" fill="#231F20"/>
<path d="M67.3086 110.817H62.5018V105.999H67.3086V110.817Z" fill="#E0833A"/>
<path d="M115.384 43.3635H110.577L110.577 38.5454H115.385L115.384 43.3635Z" fill="#E0833A"/>
<path d="M76.9238 43.3635H72.1158L72.1157 38.5454H76.9237L76.9238 43.3635Z" fill="#E0833A"/>
<path d="M86.5359 43.3635H81.7292V38.545L86.5359 38.5454L86.5359 43.3635Z" fill="#E0833A"/>
<path d="M96.1543 43.3635H91.3463L91.3462 38.5454H96.1542L96.1543 43.3635Z" fill="#FAB20B"/>
<path d="M110.576 43.3635H105.768L105.768 38.5454H110.576L110.576 43.3635Z" fill="#231F20"/>
<path d="M105.77 43.3635H100.962L100.961 38.5454H105.769L105.77 43.3635Z" fill="#FFF200"/>
<path d="M100.96 43.3635H96.1524L96.1523 38.5454H100.96L100.96 43.3635Z" fill="#FBC707"/>
<path d="M81.733 43.3635H76.925L76.9249 38.5454H81.7329L81.733 43.3635Z" fill="#E0833A"/>
<path d="M96.1543 110.817H91.3463V105.999H96.1543V110.817Z" fill="#E0833A"/>
<path d="M91.3451 110.817H86.5371V105.999H91.3451V110.817Z" fill="#E0833A"/>
<path d="M115.385 110.817H110.577V105.999H115.385V110.817Z" fill="#CB7331"/>
<path d="M110.576 105.999V110.817H105.768V105.999H110.576Z" fill="#E0833A"/>
<path d="M105.77 110.817H100.962V105.999H105.77V110.817Z" fill="#E0833A"/>
<path d="M72.1146 110.817H67.3066V105.999H72.1146V110.817Z" fill="#E0833A"/>
<path d="M86.5359 110.817H81.7292V105.999H86.5359V110.817Z" fill="#E0833A"/>
<path d="M76.9238 110.817H72.1158V105.999H76.9238V110.817Z" fill="#E0833A"/>
<path d="M81.733 110.817H76.925V105.999H81.733V110.817Z" fill="#E0833A"/>
<path d="M100.96 110.817H96.1524V105.999H100.96V110.817Z" fill="#CA6F1F"/>
<path d="M125 110.819H120.192V106H125V110.819Z" fill="#231F20"/>
<path d="M120.191 110.819H115.384V106H120.191V110.819Z" fill="#954A1D"/>
<path d="M86.5359 38.5454L81.7292 38.545L81.7291 33.7269H86.5359V38.5454Z" fill="#E0833A"/>
<path d="M100.96 33.7269H96.1523L96.1524 28.9103H100.96L100.96 33.7269Z" fill="#E0833A"/>
<path d="M115.385 33.7269H110.577L110.577 28.9103H115.385L115.385 33.7269Z" fill="#E0833A"/>
<path d="M105.769 33.7269H100.961L100.962 28.9103H105.77L105.769 33.7269Z" fill="#231F20"/>
<path d="M110.576 33.7269H105.768L105.768 28.9103H110.576L110.576 33.7269Z" fill="#E0833A"/>
<path d="M96.1512 33.7276H91.3432V28.9103H96.1512V33.7276Z" fill="#E0833A"/>
<path d="M120.191 33.7271L115.384 33.7276L115.385 28.9103H120.191L120.191 33.7271Z" fill="#231F20"/>
<path d="M110.576 115.637V120.454H105.768V115.637H110.576Z" fill="#954A1D"/>
<path d="M115.385 120.454H110.577V115.637H115.385V120.454Z" fill="#231F20"/>
<path d="M105.77 120.454H100.962V115.637H105.77V120.454Z" fill="#CB7331"/>
<path d="M100.96 120.454H96.1524V115.637H100.96V120.454Z" fill="#E0833A"/>
<path d="M91.3451 120.454H86.5371V115.637H91.3451V120.454Z" fill="#E0833A"/>
<path d="M86.5359 120.454H81.7292V115.637H86.5359V120.454Z" fill="#E0833A"/>
<path d="M96.1543 120.454H91.3463V115.637H96.1543V120.454Z" fill="#E0833A"/>
<path d="M72.1146 115.637H67.3066V110.818H72.1146V115.637Z" fill="#E0833A"/>
<path d="M100.96 115.637H96.1524V110.818H100.96V115.637Z" fill="#E0833A"/>
<path d="M86.5359 115.637H81.7292V110.818H86.5359V115.637Z" fill="#E0833A"/>
<path d="M76.9238 115.637H72.1158V110.818H76.9238V115.637Z" fill="#E0833A"/>
<path d="M96.1543 115.637H91.3463V110.818H96.1543V115.637Z" fill="#CA6F1F"/>
<path d="M91.3451 115.637H86.5371V110.818H91.3451V115.637Z" fill="#E0833A"/>
<path d="M81.733 115.637H76.925V110.818H81.733V115.637Z" fill="#CA6F1F"/>
<path d="M62.4994 115.637H57.6914V110.818H62.4994V115.637Z" fill="#B86429"/>
<path d="M62.4994 110.817H57.6914V105.999H62.4994V110.817Z" fill="#231F20"/>
<path d="M67.3086 115.637H62.5018V110.818H67.3086V115.637Z" fill="#E0833A"/>
<path d="M62.4994 105.999H57.6914V101.181H62.4994V105.999Z" fill="#231F20"/>
<path d="M105.77 115.637H100.962V110.818H105.77V115.637Z" fill="#E0833A"/>
<path d="M110.576 110.818V115.637H105.768V110.818H110.576Z" fill="#CB7331"/>
<path d="M115.385 115.637H110.577V110.818H115.385V115.637Z" fill="#954A1D"/>
<path d="M120.191 115.637H115.384V110.819H120.191V115.637Z" fill="#231F20"/>
<path d="M91.345 33.7269L86.5371 33.7276V28.9103H91.3451L91.345 33.7269Z" fill="#231F20"/>
<path d="M67.3085 33.7269H62.5017L62.5018 28.9103H67.3086L67.3085 33.7269Z" fill="#231F20"/>
<path d="M62.4994 48.182H57.6914V43.3647H62.4994V48.182Z" fill="#231F20"/>
<path d="M62.4994 101.181H57.6914V96.364H62.4994V101.181Z" fill="#77341D"/>
<path d="M86.5359 33.7269H81.7291L81.7292 28.9103H86.5359L86.5359 33.7269Z" fill="#E0833A"/>
<path d="M62.4993 52.9997H57.6913L57.6914 48.182H62.4994L62.4993 52.9997Z" fill="#FAB24A"/>
<path d="M81.7329 33.7269H76.9249L76.925 28.9103H81.733L81.7329 33.7269Z" fill="#E0833A"/>
<path d="M76.9237 33.7269H72.1157L72.1158 28.9103H76.9238L76.9237 33.7269Z" fill="#E0833A"/>
<path d="M72.1146 33.7269H67.3066L67.3066 28.9103H72.1146L72.1146 33.7269Z" fill="#FAB24A"/>
<path d="M62.4994 91.5447H57.6914V86.7262H62.4994V91.5447Z" fill="#9D4E1F"/>
<path d="M62.4994 86.7262H57.6914L57.6913 81.9097H62.4993L62.4994 86.7262Z" fill="#9D4E1F"/>
<path d="M62.4994 96.364H57.6914V91.5459H62.4994V96.364Z" fill="#9D4E1F"/>
<path d="M62.4994 57.8179H57.6914L57.6913 52.9997H62.4993L62.4994 57.8179Z" fill="#E0833A"/>
<path d="M62.4993 81.9097H57.6913L57.6914 77.0915H62.4994L62.4993 81.9097Z" fill="#9D4E1F"/>
<path d="M62.4994 62.636H57.6914V57.8179H62.4994V62.636Z" fill="#E0833A"/>
<path d="M62.4994 77.0915H57.6914V72.2734H62.4994V77.0915Z" fill="#CA6F1F"/>
<path d="M62.4993 67.4541H57.6913L57.6914 62.636H62.4994L62.4993 67.4541Z" fill="#E0833A"/>
<path d="M62.4994 72.2722H57.6914L57.6913 67.4541H62.4993L62.4994 72.2722Z" fill="#231F20"/>
<path d="M96.1543 81.91H91.3463V77.0915H96.1543V81.91Z" fill="#CA6F1F"/>
<path d="M120.191 57.8179H115.384V52.9994H120.191V57.8179Z" fill="#231F20"/>
<path d="M120.191 91.5447H115.384V86.7262H120.191V91.5447Z" fill="#E0833A"/>
<path d="M115.384 57.8179H110.577V52.9994H115.384V57.8179Z" fill="#E0833A"/>
<path d="M110.576 57.8179H105.768V52.9994H110.576V57.8179Z" fill="#E0833A"/>
<path d="M120.191 81.91H115.384V77.0915H120.191V81.91Z" fill="#E0833A"/>
<path d="M120.191 86.7262H115.384V81.91H120.191V86.7262Z" fill="#E0833A"/>
<path d="M120.191 77.0903H115.384V72.2719H120.191V77.0903Z" fill="#231F20"/>
<path d="M105.77 57.8179H100.962V52.9994H105.77V57.8179Z" fill="#231F20"/>
<path d="M86.5359 72.2722H81.7292V67.4537H86.5359V72.2722Z" fill="#E0833A"/>
<path d="M100.96 57.8179H96.1524V52.9994H100.96V57.8179Z" fill="#D91920"/>
<path d="M86.5359 77.0919H81.7292V72.2734H86.5359V77.0919Z" fill="#E0833A"/>
<path d="M86.5359 86.727H81.7291V81.9097H86.5359V86.727Z" fill="#E0833A"/>
<path d="M86.5359 81.9097H81.7291L81.7292 77.0919H86.5359L86.5359 81.9097Z" fill="#CA6F1F"/>
<path d="M86.5359 67.4537H81.7292L81.7291 62.6356H86.5359L86.5359 67.4537Z" fill="#E0833A"/>
<path d="M96.1543 57.8179H91.3463V52.9994H96.1543V57.8179Z" fill="#D91920"/>
<path d="M91.3451 57.8179H86.5359V52.9994H91.3451V57.8179Z" fill="#D91920"/>
<path d="M86.5359 57.8179H81.7292V52.9994H86.5359V57.8179Z" fill="#231F20"/>
<path d="M86.5359 62.6356H81.7291L81.7292 57.8179H86.5359L86.5359 62.6356Z" fill="#231F20"/>
<path d="M81.733 81.91H76.925V77.0915H81.733V81.91Z" fill="#E0833A"/>
<path d="M81.733 72.2722H76.925V67.4537H81.733V72.2722Z" fill="#E0833A"/>
<path d="M81.733 67.4537H76.925L76.9249 62.6356H81.7329L81.733 67.4537Z" fill="#E0833A"/>
<path d="M81.733 77.0915H76.925V72.2734H81.733V77.0915Z" fill="#E0833A"/>
<path d="M81.7329 62.6356H76.9249L76.925 57.8175H81.733L81.7329 62.6356Z" fill="#E0833A"/>
<path d="M86.5359 91.5447H81.7292L81.7291 86.727H86.5359L86.5359 91.5447Z" fill="#E0833A"/>
<path d="M115.384 91.5447H110.577V86.7262H115.384V91.5447Z" fill="#E0833A"/>
<path d="M72.1146 48.182H67.3066V43.3647H72.1146V48.182Z" fill="#E0833A"/>
<path d="M81.733 57.8175H76.925V52.9994H81.733V57.8175Z" fill="#E0833A"/>
<path d="M86.5359 52.9994H81.7292L81.7291 48.1812H86.5359L86.5359 52.9994Z" fill="#E0833A"/>
<path d="M81.733 52.9994H76.925L76.9249 48.1812H81.7329L81.733 52.9994Z" fill="#E0833A"/>
<path d="M91.3451 52.9994H86.5359L86.5359 48.1812H91.345L91.3451 52.9994Z" fill="#231F20"/>
<path d="M105.77 96.3644H100.962V91.5459H105.77V96.3644Z" fill="#E0833A"/>
<path d="M110.576 96.3644H105.768V91.5459H110.576V96.3644Z" fill="#E0833A"/>
<path d="M115.385 96.3644H110.577V91.5459H115.385V96.3644Z" fill="#E0833A"/>
<path d="M14.4232 72.2722H9.6164V67.4537H14.4232V72.2722Z" fill="#231F20"/>
<path d="M81.733 91.5447H76.925V86.7262H81.733V91.5447Z" fill="#E0833A"/>
<path d="M86.5359 96.3644H81.7292V91.5459H86.5359V96.3644Z" fill="#E0833A"/>
<path d="M81.733 96.3644H76.925V91.5459H81.733V96.3644Z" fill="#E0833A"/>
<path d="M91.3451 96.3644H86.5371V91.5459H91.3451V96.3644Z" fill="#E0833A"/>
<path d="M96.1543 96.3644H91.3463V91.5459H96.1543V96.3644Z" fill="#E0833A"/>
<path d="M91.3451 91.5447H86.5371V86.7262H91.3451V91.5447Z" fill="#E0833A"/>
<path d="M110.576 77.0919H105.768V72.2734H110.576V77.0919Z" fill="#E0833A"/>
<path d="M110.576 72.2722H105.768V67.4537H110.576V72.2722Z" fill="#E0833A"/>
<path d="M96.1543 52.9994H91.3463L91.3462 48.1812H96.1542L96.1543 52.9994Z" fill="#B01419"/>
<path d="M110.576 67.4537H105.768L105.768 62.6356H110.576L110.576 67.4537Z" fill="#E0833A"/>
<path d="M110.576 81.91H105.768V77.0919H110.576V81.91Z" fill="#CA6F1F"/>
<path d="M100.96 67.4541H96.1523V62.6356H100.96V67.4541Z" fill="#231F20"/>
<path d="M96.1542 86.727H91.3462L91.3463 81.91H96.1543L96.1542 86.727Z" fill="#E0833A"/>
<path d="M91.3451 86.7262H86.5371L86.5371 81.9097H91.345L91.3451 86.7262Z" fill="#E0833A"/>
<path d="M100.96 86.727H96.1523V81.9097H100.96V86.727Z" fill="#CA6F1F"/>
<path d="M105.769 86.727H100.961V81.9097H105.769V86.727Z" fill="#E0833A"/>
<path d="M105.769 81.9097H100.961L100.962 77.0915H105.77L105.769 81.9097Z" fill="#E0833A"/>
<path d="M100.96 77.0919H96.1524V72.2734H100.96V77.0919Z" fill="#E0833A"/>
<path d="M105.77 77.0915H100.962V72.2734H105.77V77.0915Z" fill="#CA6F1F"/>
<path d="M105.77 72.2722H100.962V67.4537H105.77V72.2722Z" fill="#E0833A"/>
<path d="M100.96 72.2722H96.1524L96.1523 67.4541H100.96L100.96 72.2722Z" fill="#E0833A"/>
<path d="M96.1542 67.4541H91.3462V62.6356H96.1542V67.4541Z" fill="#231F20"/>
<path d="M96.1543 77.0915H91.3463V72.2734H96.1543V77.0915Z" fill="#E0833A"/>
<path d="M100.96 81.9097H96.1523L96.1524 77.0919H100.96L100.96 81.9097Z" fill="#E0833A"/>
<path d="M96.1543 72.2722H91.3463L91.3462 67.4541H96.1542L96.1543 72.2722Z" fill="#E0833A"/>
<path d="M81.733 120.454H76.925V115.637H81.733V120.454Z" fill="#E0833A"/>
<path d="M105.77 67.4537H100.962L100.961 62.6356H105.769L105.77 67.4537Z" fill="#E0833A"/>
<path d="M115.384 81.91H110.577V77.0915H115.384V81.91Z" fill="#E0833A"/>
<path d="M110.576 86.727H105.768L105.768 81.91H110.576L110.576 86.727Z" fill="#E0833A"/>
<path d="M115.385 86.727L110.577 86.7262V81.91H115.384L115.385 86.727Z" fill="#E0833A"/>
<path d="M115.385 77.0919L110.577 77.0915V72.2734H115.385V77.0919Z" fill="#E0833A"/>
<path d="M115.385 72.2722H110.577V67.4537H115.385V72.2722Z" fill="#231F20"/>
<path d="M110.576 91.5447H105.768L105.768 86.727H110.576L110.576 91.5447Z" fill="#E0833A"/>
<path d="M100.96 91.5447H96.1524L96.1523 86.727H100.96L100.96 91.5447Z" fill="#E0833A"/>
<path d="M96.1543 91.5447H91.3463L91.3462 86.727H96.1542L96.1543 91.5447Z" fill="#E0833A"/>
<path d="M115.385 67.4537H110.577L110.577 62.6356H115.385L115.385 67.4537Z" fill="#231F20"/>
<path d="M105.77 91.5447H100.962L100.961 86.727H105.769L105.77 91.5447Z" fill="#E0833A"/>
<path d="M100.96 62.6356H96.1523L96.1524 57.8179H100.96L100.96 62.6356Z" fill="#D91920"/>
<path d="M91.3451 62.636L86.5359 62.6356L86.5359 57.8179H91.3451V62.636Z" fill="#D91920"/>
<path d="M91.3451 72.2722H86.5371V67.4537H91.3451V72.2722Z" fill="#E0833A"/>
<path d="M91.3451 67.4537H86.5371L86.5371 62.6356L91.3451 62.636V67.4537Z" fill="#231F20"/>
<path d="M91.3451 77.0919H86.5371V72.2734H91.3451V77.0919Z" fill="#E0833A"/>
<path d="M105.769 62.6356H100.961L100.962 57.8179H105.77L105.769 62.6356Z" fill="#231F20"/>
<path d="M110.576 62.6356H105.768L105.768 57.8179H110.576L110.576 62.6356Z" fill="#E0833A"/>
<path d="M115.385 62.6356H110.577L110.577 57.8179L115.385 57.8175L115.385 62.6356Z" fill="#231F20"/>
<path d="M96.1542 62.6356H91.3462L91.3463 57.8179H96.1543L96.1542 62.6356Z" fill="#D91920"/>
<path d="M91.345 81.9097H86.5371L86.5371 77.0919H91.3451L91.345 81.9097Z" fill="#E0833A"/>
<path d="M81.733 86.7262H76.925V81.91H81.733V86.7262Z" fill="#CA6F1F"/>
<path d="M125 105.999H120.192V101.181H125V105.999Z" fill="#231F20"/>
<path d="M120.191 105.999H115.384V101.181H120.191V105.999Z" fill="#CB7331"/>
<path d="M125 101.181H120.192V96.364H125V101.181Z" fill="#231F20"/>
<path d="M120.191 48.182H115.384V43.3647H120.191V48.182Z" fill="#231F20"/>
<path d="M115.385 105.999H110.577V101.181H115.384L115.385 105.999Z" fill="#E0833A"/>
<path d="M115.384 48.182H110.577V43.3647H115.384V48.182Z" fill="#E0833A"/>
<path d="M110.576 48.182H105.768V43.3647H110.576V48.182Z" fill="#231F20"/>
<path d="M110.576 101.181V105.999H105.768V101.181H110.576Z" fill="#E0833A"/>
<path d="M72.1146 77.0919H67.3066V72.2734H72.1146V77.0919Z" fill="#E0833A"/>
<path d="M72.1146 72.2722H67.3066V67.4537H72.1146V72.2722Z" fill="#CA6F1F"/>
<path d="M72.1146 81.91H67.3066V77.0919H72.1146V81.91Z" fill="#231F20"/>
<path d="M72.1146 86.727H67.3066L67.3066 81.91H72.1146L72.1146 86.727Z" fill="#231F20"/>
<path d="M105.77 48.182H100.962V43.3647H105.77V48.182Z" fill="#FBC707"/>
<path d="M72.1146 62.636H67.3066V57.8175H72.1146V62.636Z" fill="#E0833A"/>
<path d="M72.1146 67.4537H67.3066V62.636H72.1146V67.4537Z" fill="#E0833A"/>
<path d="M72.1146 57.8175H67.3066V52.9994H72.1146V57.8175Z" fill="#CA6F1F"/>
<path d="M72.1146 52.9994H67.3066V48.182H72.1146V52.9994Z" fill="#E0833A"/>
<path d="M72.1146 96.3644H67.3066V91.5459H72.1146V96.3644Z" fill="#231F20"/>
<path d="M72.1146 91.5447H67.3066L67.3066 86.727H72.1146L72.1146 91.5447Z" fill="#231F20"/>
<path d="M96.1543 105.999H91.3463V101.181H96.1543V105.999Z" fill="#E0833A"/>
<path d="M100.96 105.999H96.1524V101.181H100.96V105.999Z" fill="#E0833A"/>
<path d="M91.3451 105.999H86.5371V101.181H91.3451V105.999Z" fill="#E0833A"/>
<path d="M72.1146 101.181H67.3066V96.3644H72.1146V101.181Z" fill="#E0833A"/>
<path d="M105.77 105.999H100.962V101.181H105.77V105.999Z" fill="#E0833A"/>
<path d="M76.9238 105.999H72.1158V101.181H76.9238V105.999Z" fill="#E0833A"/>
<path d="M72.1146 105.999H67.3066V101.181H72.1146V105.999Z" fill="#E0833A"/>
<path d="M86.5359 105.999H81.7292V101.181H86.5359V105.999Z" fill="#E0833A"/>
<path d="M81.733 105.999H76.925V101.181H81.733V105.999Z" fill="#E0833A"/>
<path d="M125 91.5447H120.192V86.7262H125V91.5447Z" fill="#231F20"/>
<path d="M120.191 96.3644H115.385V91.5459H120.191V96.3644Z" fill="#E0833A"/>
<path d="M100.96 48.182H96.1524V43.3647H100.96V48.182Z" fill="#FAB20B"/>
<path d="M100.96 52.9994H96.1524V48.182H100.96V52.9994Z" fill="#231F20"/>
<path d="M125 86.7262H120.192L120.192 81.9096H125L125 86.7262Z" fill="#231F20"/>
<path d="M125 81.9096H120.192L120.192 77.0915H125L125 81.9096Z" fill="#231F20"/>
<path d="M115.385 101.181L110.577 101.181V96.3644H115.385V101.181Z" fill="#E0833A"/>
<path d="M110.576 101.181H105.768V96.3644H110.576V101.181Z" fill="#E0833A"/>
<path d="M105.77 101.181H100.962V96.3644H105.77V101.181Z" fill="#E0833A"/>
<path d="M120.191 101.181H115.384V96.364L120.191 96.3644V101.181Z" fill="#E0833A"/>
<path d="M115.384 52.9994H110.577V48.182L115.385 48.1812L115.384 52.9994Z" fill="#E0833A"/>
<path d="M110.576 52.9994H105.768V48.182H110.576V52.9994Z" fill="#E0833A"/>
<path d="M105.77 52.9994H100.962V48.182H105.77V52.9994Z" fill="#231F20"/>
<path d="M120.191 52.9994H115.384V48.182H120.191V52.9994Z" fill="#231F20"/>
<path d="M100.96 101.181H96.1524V96.3644H100.96V101.181Z" fill="#E0833A"/>
<path d="M125 96.364H120.192V91.5459H125V96.364Z" fill="#231F20"/>
<path d="M76.9238 57.8179H72.1158V52.9994H76.9238V57.8179Z" fill="#E0833A"/>
<path d="M76.9238 52.9994H72.1158L72.1157 48.1812H76.9237L76.9238 52.9994Z" fill="#E0833A"/>
<path d="M76.9237 67.4541H72.1157V62.6356H76.9237V67.4541Z" fill="#CA6F1F"/>
<path d="M76.9237 62.6356H72.1157L72.1158 57.8179H76.9238L76.9237 62.6356Z" fill="#E0833A"/>
<path d="M76.9237 48.1812H72.1157L72.1158 43.3647H76.9238L76.9237 48.1812Z" fill="#E0833A"/>
<path d="M96.1543 101.181H91.3463V96.3644H96.1543V101.181Z" fill="#E0833A"/>
<path d="M96.1542 48.1812H91.3462L91.3463 43.3647H96.1543L96.1542 48.1812Z" fill="#231F20"/>
<path d="M91.345 48.1812H86.5359L86.5359 43.3647H91.3451L91.345 48.1812Z" fill="#E0833A"/>
<path d="M81.7329 48.1812H76.9249L76.925 43.3647H81.733L81.7329 48.1812Z" fill="#E0833A"/>
<path d="M86.5359 48.1812H81.7291L81.7292 43.3647H86.5359L86.5359 48.1812Z" fill="#E0833A"/>
<path d="M76.9238 72.2722H72.1158L72.1157 67.4541H76.9237L76.9238 72.2722Z" fill="#E0833A"/>
<path d="M81.733 101.181H76.925V96.3644H81.733V101.181Z" fill="#E0833A"/>
<path d="M86.5359 101.181H81.7292V96.3644H86.5359V101.181Z" fill="#E0833A"/>
<path d="M76.9238 101.181H72.1158V96.364H76.9238V101.181Z" fill="#E0833A"/>
<path d="M76.9238 77.0919H72.1158V72.2734H76.9238V77.0919Z" fill="#E0833A"/>
<path d="M91.3451 101.181H86.5371V96.3644H91.3451V101.181Z" fill="#E0833A"/>
<path d="M76.9237 86.727H72.1157V81.9097H76.9237V86.727Z" fill="#E0833A"/>
<path d="M76.9238 96.364H72.1158V91.5459H76.9238V96.364Z" fill="#E0833A"/>
<path d="M76.9237 81.9097H72.1157L72.1158 77.0919H76.9238L76.9237 81.9097Z" fill="#E0833A"/>
<path d="M76.9238 91.5447H72.1158L72.1157 86.727H76.9237L76.9238 91.5447Z" fill="#E0833A"/>
<path d="M86.5359 134.909H81.7292L81.7291 130.091H86.5359L86.5359 134.909Z" fill="#954A1D"/>
<path d="M96.1542 134.909H91.3462V130.091H96.1542V134.909Z" fill="#231F20"/>
<path d="M91.345 134.909H86.5371V130.091H91.345V134.909Z" fill="#231F20"/>
<path d="M100.96 134.909H96.1523V130.091H100.96V134.909Z" fill="#231F20"/>
<path d="M48.0749 52.9997H43.2681V48.1812H48.0749V52.9997Z" fill="#231F20"/>
<path d="M48.075 57.8179H43.2682L43.2681 52.9997H48.0749L48.075 57.8179Z" fill="#E0833A"/>
<path d="M48.075 62.636H43.2682V57.8179H48.075V62.636Z" fill="#E0833A"/>
<path d="M48.075 77.0919H43.2682V72.2734H48.075V77.0919Z" fill="#9D4E1F"/>
<path d="M48.0749 67.4541H43.2681L43.2682 62.636H48.075L48.0749 67.4541Z" fill="#231F20"/>
<path d="M48.075 72.2722H43.2682L43.2681 67.4541H48.0749L48.075 72.2722Z" fill="#CA6F1F"/>
<path d="M48.0749 48.1812H43.2681L43.2682 43.3647H48.075L48.0749 48.1812Z" fill="#231F20"/>
<path d="M48.075 115.637H43.2682V110.818H48.075V115.637Z" fill="#231F20"/>
<path d="M48.075 110.817H43.2682V105.999H48.075V110.817Z" fill="#77341D"/>
<path d="M48.075 105.999H43.2682V101.181H48.075V105.999Z" fill="#9D4E1F"/>
<path d="M48.075 120.454H43.2682V115.637H48.075V120.454Z" fill="#B86429"/>
<path d="M76.9238 120.454H72.1158V115.637H76.9238V120.454Z" fill="#CA6F1F"/>
<path d="M48.0749 86.727H43.2681V81.9097H48.0749V86.727Z" fill="#9D4E1F"/>
<path d="M48.075 91.5447H43.2682L43.2681 86.727H48.0749L48.075 91.5447Z" fill="#9D4E1F"/>
<path d="M48.075 101.181H43.2682V96.364H48.075V101.181Z" fill="#9D4E1F"/>
<path d="M48.0749 81.9097H43.2681L43.2682 77.0919H48.075L48.0749 81.9097Z" fill="#9D4E1F"/>
<path d="M81.7329 19.2729H76.9249V14.4544H81.7329V19.2729Z" fill="#231F20"/>
<path d="M91.345 19.2729H86.5371V14.4544H91.345V19.2729Z" fill="#231F20"/>
<path d="M110.576 19.2729H105.768V14.4544H110.576V19.2729Z" fill="#231F20"/>
<path d="M100.96 19.2729H96.1523V14.4544H100.96V19.2729Z" fill="#231F20"/>
<path d="M96.1542 19.2729H91.3462V14.4544H96.1542V19.2729Z" fill="#231F20"/>
<path d="M105.769 19.2729H100.961V14.4544H105.769V19.2729Z" fill="#231F20"/>
<path d="M86.5359 19.2729H81.7291V14.4544H86.5359V19.2729Z" fill="#231F20"/>
<path d="M81.733 134.909H76.925L76.9249 130.091H81.7329L81.733 134.909Z" fill="#954A1D"/>
<path d="M105.77 14.4535H100.962V9.63625H105.77V14.4535Z" fill="#231F20"/>
<path d="M100.96 14.4535H96.1524V9.63625H100.96V14.4535Z" fill="#B01419"/>
<path d="M96.1543 14.4535H91.3463V9.63625H96.1543V14.4535Z" fill="#B01419"/>
<path d="M91.3451 14.4535H86.5371V9.63625H91.3451V14.4535Z" fill="#B01419"/>
<path d="M48.075 125.273H43.2682V120.455H48.075V125.273Z" fill="#E0833A"/>
<path d="M86.5359 14.4535H81.7292V9.63625H86.5359V14.4535Z" fill="#B01419"/>
<path d="M43.269 105.999H38.461V101.181H43.2682L43.269 105.999Z" fill="#9D4E1F"/>
<path d="M43.269 101.181L38.461 101.181V96.364H43.2682L43.269 101.181Z" fill="#9D4E1F"/>
<path d="M43.269 110.819H38.461V106H43.269V110.819Z" fill="#77341D"/>
<path d="M43.2682 120.454H38.461V115.637H43.269L43.2682 120.454Z" fill="#B86429"/>
<path d="M43.269 115.637H38.461V110.819H43.269V115.637Z" fill="#231F20"/>
<path d="M43.2682 125.273H38.461V120.455H43.2682V125.273Z" fill="#E0833A"/>
<path d="M43.269 77.0903H38.461V72.2719H43.269V77.0903Z" fill="#231F20"/>
<path d="M43.2681 86.727L38.4609 86.7269V81.9096L43.2681 81.9097V86.727Z" fill="#9D4E1F"/>
<path d="M43.269 96.3644L38.461 96.364V91.5459H43.269V96.3644Z" fill="#9D4E1F"/>
<path d="M43.2682 91.5447H38.461L38.4609 86.7269L43.269 86.7262L43.2682 91.5447Z" fill="#9D4E1F"/>
<path d="M43.269 81.91L38.4609 81.9096L38.461 77.0915H43.269V81.91Z" fill="#CA6F1F"/>
<path d="M62.4993 134.909H57.6913V130.091H62.4993V134.909Z" fill="#954A1D"/>
<path d="M72.1146 134.909H67.3066L67.3066 130.091H72.1146L72.1146 134.909Z" fill="#954A1D"/>
<path d="M67.3086 134.909H62.5018L62.5017 130.091H67.3085L67.3086 134.909Z" fill="#954A1D"/>
<path d="M43.269 130.091H38.461V125.273L43.269 125.273V130.091Z" fill="#CB7331"/>
<path d="M76.9238 134.909H72.1158L72.1157 130.091H76.9237L76.9238 134.909Z" fill="#954A1D"/>
<path d="M81.733 14.4535H76.925V9.63625H81.733V14.4535Z" fill="#231F20"/>
<path d="M43.2689 134.909L38.461 134.909V130.091H43.269L43.2689 134.909Z" fill="#954A1D"/>
<path d="M48.075 134.909H43.2682L43.2681 130.091H48.0749L48.075 134.909Z" fill="#954A1D"/>
<path d="M52.8842 134.909H48.0762L48.0761 130.091H52.8841L52.8842 134.909Z" fill="#954A1D"/>
<path d="M57.6933 134.909H52.8853V130.091H57.6933V134.909Z" fill="#954A1D"/>
<path d="M43.269 72.2719H38.461V67.4537H43.269V72.2719Z" fill="#CA6F1F"/>
<path d="M43.269 62.6375H38.461V57.819H43.269V62.6375Z" fill="#E0833A"/>
<path d="M43.2681 52.9997L38.4609 52.9998V48.1813L43.2681 48.1812V52.9997Z" fill="#231F20"/>
<path d="M43.269 67.4537H38.461L38.4609 62.6357L43.2682 62.636L43.269 67.4537Z" fill="#231F20"/>
<path d="M43.2682 57.8179H38.461L38.4609 52.9998L43.269 52.9994L43.2682 57.8179Z" fill="#E0833A"/>
<path d="M43.269 43.3635H38.461V38.545H43.269V43.3635Z" fill="#231F20"/>
<path d="M43.269 48.182L38.4609 48.1813L38.461 43.3647H43.2682L43.269 48.182Z" fill="#FAB24A"/>
<path d="M48.075 96.364H43.2682L43.269 91.5459H48.075V96.364Z" fill="#9D4E1F"/>
<path d="M72.1146 125.273H67.3066V120.455H72.1146V125.273Z" fill="#E0833A"/>
<path d="M76.9238 125.273H72.1158V120.455H76.9238V125.273Z" fill="#E0833A"/>
<path d="M81.733 125.273H76.925V120.455H81.733V125.273Z" fill="#E0833A"/>
<path d="M67.3086 125.273H62.5018V120.455H67.3086V125.273Z" fill="#E0833A"/>
<path d="M86.5359 125.273H81.7292V120.455H86.5359V125.273Z" fill="#E0833A"/>
<path d="M52.8842 120.454H48.0762V115.637H52.8842V120.454Z" fill="#B86429"/>
<path d="M91.3451 125.273H86.5371V120.455H91.3451V125.273Z" fill="#CB7331"/>
<path d="M52.8842 125.273H48.0762V120.455H52.8842V125.273Z" fill="#E0833A"/>
<path d="M57.6933 125.273H52.8853V120.455H57.6933V125.273Z" fill="#E0833A"/>
<path d="M62.4994 125.273H57.6914V120.455H62.4994V125.273Z" fill="#E0833A"/>
<path d="M110.576 125.273H105.768V120.455H110.576V125.273Z" fill="#231F20"/>
<path d="M105.77 125.273H100.962V120.455H105.77V125.273Z" fill="#954A1D"/>
<path d="M100.96 125.273H96.1524V120.455H100.96V125.273Z" fill="#CB7331"/>
<path d="M96.1543 125.273H91.3463V120.455H96.1543V125.273Z" fill="#CB7331"/>
<path d="M57.6933 67.4541H52.8853V62.6356H57.6933V67.4541Z" fill="#231F20"/>
<path d="M52.8842 115.637H48.0762V110.818H52.8842V115.637Z" fill="#231F20"/>
<path d="M57.6933 77.0919H52.8853V72.2734H57.6933V77.0919Z" fill="#9D4E1F"/>
<path d="M57.6933 81.91H52.8853V77.0919H57.6933V81.91Z" fill="#9D4E1F"/>
<path d="M57.6933 91.5447H52.8853V86.7262H57.6933V91.5447Z" fill="#9D4E1F"/>
<path d="M57.6933 86.7262H52.8853V81.91H57.6933V86.7262Z" fill="#9D4E1F"/>
<path d="M57.6933 62.6356H52.8853L52.8853 57.8175H57.6933L57.6933 62.6356Z" fill="#E0833A"/>
<path d="M57.6933 52.9997H52.8853V48.1812H57.6933V52.9997Z" fill="#231F20"/>
<path d="M57.6933 57.8175H52.8853L52.8853 52.9997H57.6933L57.6933 57.8175Z" fill="#FAB24A"/>
<path d="M62.4994 120.454H57.6914V115.637H62.4994V120.454Z" fill="#E0833A"/>
<path d="M67.3086 120.454H62.5018V115.637H67.3086V120.454Z" fill="#E0833A"/>
<path d="M57.6933 120.454H52.8853V115.637H57.6933V120.454Z" fill="#B86429"/>
<path d="M72.1146 120.454H67.3066V115.637H72.1146V120.454Z" fill="#E0833A"/>
<path d="M48.0749 130.091L43.269 130.091L43.2682 125.273H48.075L48.0749 130.091Z" fill="#CB7331"/>
<path d="M57.6933 101.181H52.8853V96.364H57.6933V101.181Z" fill="#9D4E1F"/>
<path d="M57.6933 105.999H52.8853V101.181H57.6933V105.999Z" fill="#9D4E1F"/>
<path d="M57.6933 115.637H52.8853V110.818H57.6933V115.637Z" fill="#231F20"/>
<path d="M57.6933 96.364H52.8853V91.5459H57.6933V96.364Z" fill="#9D4E1F"/>
<path d="M57.6933 72.2722H52.8853L52.8853 67.4541H57.6933L57.6933 72.2722Z" fill="#CA6F1F"/>
<path d="M115.385 28.9095H110.577V24.0922H115.385V28.9095Z" fill="#FAB24A"/>
<path d="M120.191 28.9079H115.384V24.0906H120.191V28.9079Z" fill="#231F20"/>
<path d="M110.576 28.9095H105.768V24.0922H110.576V28.9095Z" fill="#E0833A"/>
<path d="M96.1512 28.9095H91.3432V24.0922H96.1512V28.9095Z" fill="#E0833A"/>
<path d="M100.96 28.9095H96.1524V24.0922H100.96V28.9095Z" fill="#E0833A"/>
<path d="M105.77 28.9095H100.962V24.0922H105.77V28.9095Z" fill="#231F20"/>
<path d="M86.5359 28.9095H81.7292V24.0922H86.5359V28.9095Z" fill="#E0833A"/>
<path d="M91.3451 28.9095H86.5371V24.0922H91.3451V28.9095Z" fill="#231F20"/>
<path d="M72.1146 28.9095H67.3066V24.0922H72.1146V28.9095Z" fill="#231F20"/>
<path d="M81.733 28.9095H76.925V24.0922H81.733V28.9095Z" fill="#E0833A"/>
<path d="M76.9238 28.9095H72.1158V24.0922H76.9238V28.9095Z" fill="#FAB24A"/>
<path d="M57.6933 110.817H52.8853V105.999H57.6933V110.817Z" fill="#77341D"/>
<path d="M72.1146 130.091H67.3066L67.3066 125.273H72.1146L72.1146 130.091Z" fill="#CB7331"/>
<path d="M81.7329 130.091H76.9249L76.925 125.273H81.733L81.7329 130.091Z" fill="#CB7331"/>
<path d="M76.9237 130.091H72.1157L72.1158 125.273H76.9238L76.9237 130.091Z" fill="#CB7331"/>
<path d="M86.5359 130.091H81.7291L81.7292 125.273H86.5359L86.5359 130.091Z" fill="#CB7331"/>
<path d="M91.345 130.091H86.5371L86.5371 125.273H91.3451L91.345 130.091Z" fill="#954A1D"/>
<path d="M57.6933 130.091H52.8853L52.8853 125.273H57.6933L57.6933 130.091Z" fill="#CB7331"/>
<path d="M52.8841 130.091H48.0761L48.0762 125.273H52.8842L52.8841 130.091Z" fill="#CB7331"/>
<path d="M96.1542 130.091H91.3462L91.3463 125.273H96.1543L96.1542 130.091Z" fill="#954A1D"/>
<path d="M62.4993 130.091H57.6913L57.6914 125.273H62.4994L62.4993 130.091Z" fill="#CB7331"/>
<path d="M67.3085 130.091H62.5017L62.5018 125.273H67.3086L67.3085 130.091Z" fill="#CB7331"/>
<path d="M105.77 130.091H100.962V125.273H105.77V130.091Z" fill="#231F20"/>
<path d="M100.96 130.091H96.1523L96.1524 125.273H100.96L100.96 130.091Z" fill="#954A1D"/>
<path d="M52.8842 57.8179H48.0762V52.9994H52.8842V57.8179Z" fill="#FAB24A"/>
<path d="M52.8842 62.636H48.0762V57.8179H52.8842V62.636Z" fill="#E0833A"/>
<path d="M52.8842 52.9994H48.0762L48.0761 48.1812H52.8841L52.8842 52.9994Z" fill="#231F20"/>
<path d="M52.8842 91.5447H48.0762V86.7262H52.8842V91.5447Z" fill="#9D4E1F"/>
<path d="M52.8842 101.181H48.0762V96.364H52.8842V101.181Z" fill="#9D4E1F"/>
<path d="M52.8842 96.364H48.0762V91.5459H52.8842V96.364Z" fill="#9D4E1F"/>
<path d="M52.8842 105.999H48.0762V101.181H52.8842V105.999Z" fill="#9D4E1F"/>
<path d="M52.8842 77.0919H48.0762V72.2734H52.8842V77.0919Z" fill="#9D4E1F"/>
<path d="M52.8842 72.2722H48.0762V67.4537H52.8842V72.2722Z" fill="#CA6F1F"/>
<path d="M52.8842 67.4537H48.0762V62.636H52.8842V67.4537Z" fill="#231F20"/>
<path d="M52.8842 86.7262H48.0762L48.0761 81.9097H52.8841L52.8842 86.7262Z" fill="#9D4E1F"/>
<path d="M52.8841 81.9097H48.0761L48.0762 77.0919H52.8842L52.8841 81.9097Z" fill="#9D4E1F"/>
<path d="M110.576 24.091H105.768L105.768 19.2729H110.576L110.576 24.091Z" fill="#FAB24A"/>
<path d="M115.385 24.091H110.577V19.2725H115.385V24.091Z" fill="#231F20"/>
<path d="M52.8842 110.817H48.0762V105.999H52.8842V110.817Z" fill="#77341D"/>
<path d="M105.77 24.091H100.962L100.961 19.2729H105.769L105.77 24.091Z" fill="#FAB24A"/>
<path d="M86.5359 24.091H81.7292L81.7291 19.2729H86.5359L86.5359 24.091Z" fill="#FAB24A"/>
<path d="M81.733 24.091H76.925L76.9249 19.2729H81.7329L81.733 24.091Z" fill="#FAB24A"/>
<path d="M76.9238 24.091H72.1158V19.2725H76.9238V24.091Z" fill="#231F20"/>
<path d="M100.96 24.091H96.1524L96.1523 19.2729H100.96L100.96 24.091Z" fill="#FAB24A"/>
<path d="M96.1543 24.091H91.3463L91.3462 19.2729H96.1542L96.1543 24.091Z" fill="#FAB24A"/>
<path d="M91.3451 24.091H86.5371L86.5371 19.2729H91.345L91.3451 24.091Z" fill="#FAB24A"/>
<path d="M14.4232 67.4537H9.6164L9.61633 62.6356H14.4231L14.4232 67.4537Z" fill="#231F20"/>
<path d="M4.808 67.4541H0V62.6357H4.808V67.4541Z" fill="#231F20"/>
<path d="M4.80807 72.2722H7.62939e-05L0 67.4541H4.808L4.80807 72.2722Z" fill="#231F20"/>
<path d="M4.80807 81.91H7.62939e-05V77.0915H4.80807V81.91Z" fill="#231F20"/>
<path d="M4.808 86.7269H0L7.62939e-05 81.91H4.80807L4.808 86.7269Z" fill="#231F20"/>
<path d="M4.80807 77.0903H7.62939e-05V72.2722H4.80807V77.0903Z" fill="#231F20"/>
<path d="M4.80807 96.3644H7.62939e-05V91.5459H4.80807V96.3644Z" fill="#231F20"/>
<path d="M4.80807 91.5447H7.62939e-05L0 86.7269H4.808L4.80807 91.5447Z" fill="#231F20"/>
<path d="M9.61403 91.5447H4.80605V86.7262H9.61403V91.5447Z" fill="#E0833A"/>
<path d="M14.4232 57.8179H9.6164V52.9994H14.4232V57.8179Z" fill="#E0833A"/>
<path d="M14.4232 52.9994H9.6164L9.61633 48.1812H14.4231L14.4232 52.9994Z" fill="#FAB24A"/>
<path d="M14.4231 48.1812H9.61633L9.6164 43.3647H14.4232L14.4231 48.1812Z" fill="#231F20"/>
<path d="M14.4231 62.6356H9.61633L9.6164 57.8179H14.4232L14.4231 62.6356Z" fill="#E0833A"/>
<path d="M14.4232 43.3635H9.6164V38.545H14.4232V43.3635Z" fill="#231F20"/>
<path d="M9.61403 115.637H4.80605V110.818H9.61403V115.637Z" fill="#231F20"/>
<path d="M9.61403 110.817H4.80605V105.999H9.61403V110.817Z" fill="#231F20"/>
<path d="M9.61403 105.999H4.80605V101.181H9.61403V105.999Z" fill="#231F20"/>
<path d="M9.61403 96.3644H4.80605V91.5459H9.61403V96.3644Z" fill="#B86429"/>
<path d="M9.61403 101.181H4.80605V96.3644H9.61403V101.181Z" fill="#231F20"/>
<path d="M9.61403 86.7262H4.80605L4.80598 81.9097H9.61396L9.61403 86.7262Z" fill="#E0833A"/>
<path d="M9.61396 81.9097H4.80598L4.80605 77.0915H9.61403L9.61396 81.9097Z" fill="#E0833A"/>
<path d="M9.61403 72.2722H4.80605V67.4537H9.61403V72.2722Z" fill="#E0833A"/>
<path d="M9.61403 67.4537H4.80605L4.80598 62.6356H9.61396L9.61403 67.4537Z" fill="#FAB24A"/>
<path d="M9.61403 77.0915H4.80605V72.2734H9.61403V77.0915Z" fill="#E0833A"/>
<path d="M9.61396 62.6356H4.80598L4.80605 57.8175H9.61403L9.61396 62.6356Z" fill="#231F20"/>
<path d="M9.61403 57.8175H4.80605V52.9994H9.61403V57.8175Z" fill="#231F20"/>
<path d="M9.61403 52.9994H4.80605L4.80598 48.1812H9.61396L9.61403 52.9994Z" fill="#231F20"/>
</svg>
