<svg width="155" height="200" viewBox="0 0 155 200" fill="none" xmlns="http://www.w3.org/2000/svg">
<path d="M47.3477 13.3334H54.0148V6.66797H47.3477V13.3334Z" fill="#C95B21"/>
<path d="M67.3474 13.3334H74.0129V6.66797H67.3474V13.3334Z" fill="#C95B21"/>
<path d="M40.6797 13.3334H47.3451V6.66797H40.6797V13.3334Z" fill="#EA7A27"/>
<path d="M60.6797 13.3334H67.3451V6.66797H60.6797V13.3334Z" fill="#C95B21"/>
<path d="M54.0117 13.3334H60.6797V6.66797H54.0117V13.3334Z" fill="#EA7A27"/>
<path d="M87.3475 13.3334H94.013V6.66797H87.3475V13.3334Z" fill="#EA7A27"/>
<path d="M74.0117 13.3334H80.6788V6.66797H74.0117V13.3334Z" fill="#EA7A27"/>
<path d="M80.6788 13.3334H87.3475V6.66797H80.6788V13.3334Z" fill="#C95B21"/>
<path d="M94.0156 13.3334H100.681V6.66797H94.0156V13.3334Z" fill="#231F20"/>
<path d="M34.0117 13.3334H40.6797V6.66797H34.0117V13.3334Z" fill="#231F20"/>
<path d="M67.3474 6.66797H74.0129L74.0129 0H67.3475L67.3474 6.66797Z" fill="#231F20"/>
<path d="M74.0117 6.66797H80.6788V0H74.0117V6.66797Z" fill="#231F20"/>
<path d="M80.6797 6.66711H87.3468V0H80.6788L80.6797 6.66711Z" fill="#231F20"/>
<path d="M87.3475 6.66797H94.013L94.013 0H87.3468L87.3475 6.66797Z" fill="#231F20"/>
<path d="M40.6797 6.66797H47.3451V0H40.6797V6.66797Z" fill="#231F20"/>
<path d="M47.3477 6.66797H54.0148V0H47.3477V6.66797Z" fill="#231F20"/>
<path d="M60.6797 6.66797H67.3451V0H60.6797V6.66797Z" fill="#231F20"/>
<path d="M54.0117 6.66797L60.6788 6.66711L60.6797 0H54.0117V6.66797Z" fill="#231F20"/>
<path d="M94.0156 199.999H100.681V193.332H94.0156V199.999Z" fill="#231F20"/>
<path d="M87.3475 19.9994H94.013V13.3334H87.3475V19.9994Z" fill="#C95B21"/>
<path d="M100.68 19.9994H107.347V13.334H100.68V19.9994Z" fill="#231F20"/>
<path d="M94.0156 19.9994H100.681V13.3334H94.0156V19.9994Z" fill="#EA7A27"/>
<path d="M27.3477 19.9994H34.0148V13.334H27.3477V19.9994Z" fill="#231F20"/>
<path d="M80.6797 19.9994H87.3475V13.3334L80.6797 13.334V19.9994Z" fill="#C95B21"/>
<path d="M60.6797 19.9994H67.3451V13.3334H60.6797V19.9994Z" fill="#C95B21"/>
<path d="M54.0117 19.9994H60.6797L60.6788 13.334L54.0117 13.3334V19.9994Z" fill="#C95B21"/>
<path d="M67.3474 19.9994H74.0129V13.3334H67.3474V19.9994Z" fill="#EA7A27"/>
<path d="M74.0117 19.9994H80.6797L80.6788 13.3334H74.0117V19.9994Z" fill="#C95B21"/>
<path d="M34.0117 19.9994H40.6788V13.334L34.0117 13.3334V19.9994Z" fill="#EA7A27"/>
<path d="M47.3477 19.9994H54.0148V13.3334H47.3477V19.9994Z" fill="#EA7A27"/>
<path d="M40.6788 19.9994H47.3451V13.3334H40.6797L40.6788 19.9994Z" fill="#C95B21"/>
<path d="M60.6797 199.999H67.3451V193.332H60.6797V199.999Z" fill="#231F20"/>
<path d="M67.3474 199.999H74.0129V193.332H67.3474V199.999Z" fill="#231F20"/>
<path d="M74.0117 199.999H80.6788V193.332H74.0117V199.999Z" fill="#231F20"/>
<path d="M114.016 199.999H120.681V193.332H114.016V199.999Z" fill="#231F20"/>
<path d="M40.6797 199.999H47.3451V193.332H40.6797V199.999Z" fill="#231F20"/>
<path d="M47.3477 199.999H54.0148V193.332H47.3477V199.999Z" fill="#231F20"/>
<path d="M100.68 199.999H107.347V193.332H100.68V199.999Z" fill="#231F20"/>
<path d="M107.347 199.999H114.016V193.332H107.347V199.999Z" fill="#231F20"/>
<path d="M80.6788 199.999H87.3468V193.332H80.6788V199.999Z" fill="#231F20"/>
<path d="M87.3468 199.999H94.013V193.332H87.3468V199.999Z" fill="#231F20"/>
<path d="M54.0117 199.999H60.6797V193.332H54.0117V199.999Z" fill="#231F20"/>
<path d="M34.0117 199.999H40.6797V193.332H34.0117V199.999Z" fill="#231F20"/>
<path d="M27.3477 199.999H34.0148V193.332H27.3477V199.999Z" fill="#231F20"/>
<path d="M20.6798 199.999H27.3477V193.332H20.6798V199.999Z" fill="#231F20"/>
<path d="M14.0117 199.999H20.6772V193.332H14.0117V199.999Z" fill="#231F20"/>
<path d="M7.34766 199.999H14.0148V193.332H7.34766V199.999Z" fill="#231F20"/>
<path d="M120.695 199.999H127.362V193.332H120.695V199.999Z" fill="#231F20"/>
<path d="M134.016 199.999H140.683V193.332H134.016V199.999Z" fill="#231F20"/>
<path d="M127.289 199.999H133.956V193.332H127.289V199.999Z" fill="#231F20"/>
<path d="M67.3475 139.999H74.0129V133.334H67.3475V139.999Z" fill="#231F20"/>
<path d="M114.016 80.0011H120.681V73.334H114.016V80.0011Z" fill="#231F20"/>
<path d="M114.016 60.0011H120.681V53.334H114.016V60.0011Z" fill="#231F20"/>
<path d="M100.68 60.0011H107.347V53.334H100.68V60.0011Z" fill="#A89179"/>
<path d="M114.016 66.6655H120.681V60H114.016V66.6655Z" fill="#231F20"/>
<path d="M114.016 73.334H120.681V66.6655H114.016V73.334Z" fill="#231F20"/>
<path d="M107.347 60.0011H114.016V53.334H107.347V60.0011Z" fill="#C95B21"/>
<path d="M74.0117 60.0011H80.6788V53.334H74.0117V60.0011Z" fill="#614F41"/>
<path d="M94.0156 60.0011H100.681V53.334H94.0156V60.0011Z" fill="#A89179"/>
<path d="M80.6788 60.0011H87.3451V53.334H80.6788V60.0011Z" fill="#614F41"/>
<path d="M107.348 66.6655H114.016V60H107.348V66.6655Z" fill="#C95B21"/>
<path d="M114.016 99.9991H120.681V93.332H114.016V99.9991Z" fill="#C95B21"/>
<path d="M114.016 133.335H120.681V126.668H114.016V133.335Z" fill="#C95B21"/>
<path d="M114.016 126.668H120.681V120H114.016V126.668Z" fill="#C95B21"/>
<path d="M114.016 86.6671H120.681V80H114.016V86.6671Z" fill="#231F20"/>
<path d="M114.016 139.999H120.681V133.334H114.016V139.999Z" fill="#C95B21"/>
<path d="M114.016 120H120.681V113.332H114.016V120Z" fill="#C95B21"/>
<path d="M114.016 146.667H120.681V139.999H114.016V146.667Z" fill="#9E3E21"/>
<path d="M67.3474 60.0011H74.0129V53.334H67.3474V60.0011Z" fill="#614F41"/>
<path d="M114.016 113.335H120.681V106.668H114.016V113.335Z" fill="#C95B21"/>
<path d="M114.016 93.3334H120.681V86.6671H114.016V93.3334Z" fill="#231F20"/>
<path d="M114.016 106.668H120.681V99.9991H114.016V106.668Z" fill="#C95B21"/>
<path d="M14.0117 80.0011H20.6772V73.334H14.0117V80.0011Z" fill="#231F20"/>
<path d="M14.0117 106.667H20.6772V100H14.0117V106.667Z" fill="#231F20"/>
<path d="M14.0117 113.335H20.6772V106.667H14.0117V113.335Z" fill="#EA7A27"/>
<path d="M14.0117 93.3334H20.6772V86.668H14.0117V93.3334Z" fill="#231F20"/>
<path d="M14.0117 86.668H20.6772V80H14.0117V86.668Z" fill="#231F20"/>
<path d="M14.0117 119.999H20.6772V113.332H14.0117V119.999Z" fill="#C95B21"/>
<path d="M14.0117 133.335H20.6772V126.668H14.0117V133.335Z" fill="#C95B21"/>
<path d="M14.0117 139.999H20.6772V133.334H14.0117V139.999Z" fill="#9E3E21"/>
<path d="M14.0117 126.668H20.6772V119.999H14.0117V126.668Z" fill="#C95B21"/>
<path d="M114.016 153.333H120.681V146.666H114.016V153.333Z" fill="#231F20"/>
<path d="M47.3477 60.0011H54.0148V53.334H47.3477V60.0011Z" fill="#614F41"/>
<path d="M60.6797 60.0011H67.3451V53.334H60.6797V60.0011Z" fill="#614F41"/>
<path d="M40.6797 60.0011H47.3451V53.334H40.6797V60.0011Z" fill="#614F41"/>
<path d="M14.0117 73.334H20.6772V66.666H14.0117V73.334Z" fill="#231F20"/>
<path d="M54.0117 60.0011H60.6797V53.334H54.0117V60.0011Z" fill="#614F41"/>
<path d="M34.0117 60.0011H40.6797V53.334H34.0117V60.0011Z" fill="#836E5B"/>
<path d="M14.0117 60.0011H20.6772V53.334H14.0117V60.0011Z" fill="#231F20"/>
<path d="M14.0117 66.666H20.6772V60H14.0117V66.666Z" fill="#231F20"/>
<path d="M27.3477 60.0011H34.0148V53.334H27.3477V60.0011Z" fill="#A89179"/>
<path d="M20.6798 60.0011H27.3477V53.334H20.6798V60.0011Z" fill="#C95B21"/>
<path d="M20.6798 153.333H27.3469V146.666H20.6798V153.333Z" fill="#231F20"/>
<path d="M20.6798 73.3332H27.3469V66.6661H20.6798V73.3332Z" fill="#C95B21"/>
<path d="M20.6798 66.6661H27.3469L27.3469 60H20.6798L20.6798 66.6661Z" fill="#C95B21"/>
<path d="M34.0117 66.6655H40.6788V60H34.0117V66.6655Z" fill="#A89179"/>
<path d="M27.3469 66.6661L34.0148 66.6655V60H27.3469L27.3469 66.6661Z" fill="#A89179"/>
<path d="M20.6798 80.0011H27.3469L27.3469 73.3332H20.6798L20.6798 80.0011Z" fill="#C95B21"/>
<path d="M20.6798 106.667H27.3469V99.9999H20.6798V106.667Z" fill="#EA7A27"/>
<path d="M40.6788 66.6655H47.3451V60H40.6788V66.6655Z" fill="#A89179"/>
<path d="M20.6798 113.335H27.3469L27.3469 106.667H20.6798L20.6798 113.335Z" fill="#C95B21"/>
<path d="M20.6798 93.3334H27.3469V86.668H20.6798V93.3334Z" fill="#9E3E21"/>
<path d="M20.6798 86.668H27.3469V80H20.6798V86.668Z" fill="#C95B21"/>
<path d="M20.6798 99.9999H27.3469L27.3469 93.332H20.6798L20.6798 99.9999Z" fill="#231F20"/>
<path d="M80.6797 66.6655H87.3451V60H80.6797V66.6655Z" fill="#A89179"/>
<path d="M114.016 160.001H120.681V153.333H114.016V160.001Z" fill="#231F20"/>
<path d="M47.3477 66.6655H54.0148V60H47.3477V66.6655Z" fill="#A89179"/>
<path d="M100.68 66.6655H107.348V60H100.68V66.6655Z" fill="#A89179"/>
<path d="M87.3475 66.6655H94.013V60H87.3475V66.6655Z" fill="#A89179"/>
<path d="M74.0117 66.6655H80.6797V60H74.0117V66.6655Z" fill="#A89179"/>
<path d="M54.0117 66.6655H60.6788V60H54.0117V66.6655Z" fill="#231F20"/>
<path d="M60.6788 66.6655H67.3451V60H60.6788V66.6655Z" fill="#8C7662"/>
<path d="M67.3474 66.6655H74.0129V60H67.3474V66.6655Z" fill="#231F20"/>
<path d="M94.0156 66.6655H100.681V60H94.0156V66.6655Z" fill="#A89179"/>
<path d="M74.0117 160.001H80.6788V153.334H74.0117V160.001Z" fill="#231F20"/>
<path d="M80.6788 160.001H87.3468V153.334H80.6788V160.001Z" fill="#231F20"/>
<path d="M47.3477 160.001H54.0148V153.334H47.3477V160.001Z" fill="#231F20"/>
<path d="M54.0117 153.334V160.001H60.6788V153.334H54.0117Z" fill="#7F2A20"/>
<path d="M60.6788 160.001H67.3451V153.334H60.6788V160.001Z" fill="#7F2A20"/>
<path d="M20.6798 119.999H27.3469V113.332H20.6798V119.999Z" fill="#C95B21"/>
<path d="M107.348 160.001H114.016L114.015 153.334H107.348V160.001Z" fill="#7F2A20"/>
<path d="M87.3468 160.001H94.013V153.334H87.3468V160.001Z" fill="#231F20"/>
<path d="M100.68 160.001H107.348V153.334H100.68V160.001Z" fill="#7F2A20"/>
<path d="M94.0156 160.001H100.681V153.334H94.0156V160.001Z" fill="#7F2A20"/>
<path d="M67.3474 160.001H74.0129V153.334H67.3474V160.001Z" fill="#7F2A20"/>
<path d="M20.6798 133.333H27.3469V126.666H20.6798V133.333Z" fill="#9E3E21"/>
<path d="M20.6798 139.999H27.3469L27.3469 133.333H20.6798L20.6798 139.999Z" fill="#C95B21"/>
<path d="M20.6798 126.667H27.3469V119.999H20.6798V126.667Z" fill="#231F20"/>
<path d="M20.6798 146.667H27.3469V140.002H20.6798V146.667Z" fill="#C95B21"/>
<path d="M27.3477 160.001H34.0148V153.334H27.3477V160.001Z" fill="#231F20"/>
<path d="M34.0117 160.001H40.6788V153.334H34.0117V160.001Z" fill="#231F20"/>
<path d="M14.0117 146.665H20.6772V139.999H14.0117V146.665Z" fill="#C95B21"/>
<path d="M40.6788 160.001H47.3451V153.334H40.6788V160.001Z" fill="#231F20"/>
<path d="M27.3477 153.334H34.0148V146.666H27.3469L27.3477 153.334Z" fill="#9E3E21"/>
<path d="M87.3475 60.0011H94.013V53.334H87.3475V60.0011Z" fill="#836E5B"/>
<path d="M7.34766 80.0011H14.0148V73.334H7.34766V80.0011Z" fill="#231F20"/>
<path d="M7.34766 66.6655H14.0148V60H7.34766V66.6655Z" fill="#231F20"/>
<path d="M7.34766 73.334H14.0148V66.6655H7.34766V73.334Z" fill="#231F20"/>
<path d="M7.34766 113.335H14.0131V106.668H7.34766V113.335Z" fill="#231F20"/>
<path d="M67.3474 53.334H74.0129V46.666H67.3474V53.334Z" fill="#231F20"/>
<path d="M47.3477 53.334H54.0148V46.666H47.3477V53.334Z" fill="#614F41"/>
<path d="M60.6797 53.334H67.3451V46.666H60.6797V53.334Z" fill="#A89179"/>
<path d="M54.0117 53.334L60.6788 53.3331L60.6797 46.666H54.0117V53.334Z" fill="#231F20"/>
<path d="M7.34766 119.999H14.0148V113.332H7.34766V119.999Z" fill="#EA7A27"/>
<path d="M34.0117 53.334L40.6788 53.3331V46.666H34.0117V53.334Z" fill="#8C7662"/>
<path d="M27.3477 53.334H34.0148V46.666H27.3477V53.334Z" fill="#A89179"/>
<path d="M74.0156 53.3331H80.6827V46.666H74.0156V53.3331Z" fill="#614F41"/>
<path d="M40.6797 53.334H47.3451V46.666H40.6788L40.6797 53.334Z" fill="#614F41"/>
<path d="M14.0117 53.334H20.6772V46.666H14.0117V53.334Z" fill="#231F20"/>
<path d="M20.6798 53.334L27.3469 53.3331L27.3477 46.666H20.6798V53.334Z" fill="#C95B21"/>
<path d="M54.0117 166.666V173.333H60.6788V166.666H54.0117Z" fill="#231F20"/>
<path d="M47.3477 173.333H54.0148V166.666H47.3477V173.333Z" fill="#231F20"/>
<path d="M40.6797 173.333H47.3451V166.666H40.6797V173.333Z" fill="#A89179"/>
<path d="M60.6788 173.333H67.3451V166.666H60.6788V173.333Z" fill="#9E3E21"/>
<path d="M27.3477 173.333H34.0148V166.666H27.3477V173.333Z" fill="#231F20"/>
<path d="M34.0117 173.333H40.6797V166.666H34.0117V173.333Z" fill="#A89179"/>
<path d="M67.3475 173.333H74.0129V166.666H67.3475V173.333Z" fill="#231F20"/>
<path d="M80.6797 173.333H87.3468V166.666H80.6797V173.333Z" fill="#231F20"/>
<path d="M87.3468 173.333L94.013 173.333V166.666L87.3468 166.666V173.333Z" fill="#A89179"/>
<path d="M74.0117 173.333H80.6797V166.666H74.0117V173.333Z" fill="#231F20"/>
<path d="M14.0117 173.333H20.6772V166.666H14.0117V173.333Z" fill="#C95B21"/>
<path d="M7.34766 146.665H14.0148V140H7.34766V146.665Z" fill="#9E3E21"/>
<path d="M7.34766 140H14.0148V133.334H7.34766V140Z" fill="#C95B21"/>
<path d="M7.34766 153.333H14.0148V146.665H7.34766V153.333Z" fill="#231F20"/>
<path d="M7.34766 133.335H14.0148V126.668H7.34766V133.335Z" fill="#C95B21"/>
<path d="M20.6798 173.333L27.3477 173.333V166.666L20.6798 166.666V173.333Z" fill="#C95B21"/>
<path d="M7.34766 126.668H14.0148V119.999H7.34766V126.668Z" fill="#C95B21"/>
<path d="M14.0117 166.666H20.6772V160H14.0117V166.666Z" fill="#EA7A27"/>
<path d="M7.34766 166.665H14.0148V160H7.34766V166.665Z" fill="#231F20"/>
<path d="M107.348 166.665H114.015V160H107.348V166.665Z" fill="#231F20"/>
<path d="M67.3475 166.666H74.0129L74.0129 160H67.3474L67.3475 166.666Z" fill="#231F20"/>
<path d="M87.3468 166.666L94.013 166.666L94.013 160H87.3475L87.3468 166.666Z" fill="#A89179"/>
<path d="M100.68 166.665H107.348V160H100.68V166.665Z" fill="#231F20"/>
<path d="M74.0117 166.666L80.6788 166.665V160H74.0117V166.666Z" fill="#A89179"/>
<path d="M80.6797 166.666H87.3468L87.3475 160H80.6788L80.6797 166.666Z" fill="#A89179"/>
<path d="M94.0156 166.665H100.681V160H94.0156V166.665Z" fill="#231F20"/>
<path d="M120.68 166.665H127.347V160H120.68V166.665Z" fill="#EA7A27"/>
<path d="M120.68 160.001H127.347V153.334H120.68V160.001Z" fill="#231F20"/>
<path d="M114.015 166.665H120.681V160H114.015V166.665Z" fill="#EA7A27"/>
<path d="M14.0117 153.333H20.6772V146.665H14.0117V153.333Z" fill="#9E3E21"/>
<path d="M120.68 153.334H127.347V146.666H120.68V153.334Z" fill="#7F2A20"/>
<path d="M27.3477 166.666H34.0148V160H27.3477V166.666Z" fill="#C95B21"/>
<path d="M20.6798 160.001H27.3477L27.3469 153.333H20.6798V160.001Z" fill="#231F20"/>
<path d="M20.6798 166.666L27.3477 166.666V160H20.6798L20.6798 166.666Z" fill="#C95B21"/>
<path d="M14.0117 160.001H20.6772V153.333H14.0117V160.001Z" fill="#231F20"/>
<path d="M60.6797 166.665L67.3451 166.666V160H60.6797V166.665Z" fill="#9E3E21"/>
<path d="M34.0117 166.666L40.6788 166.665V160H34.0117V166.666Z" fill="#231F20"/>
<path d="M54.0117 160V166.666H60.6788L60.6797 160H54.0117Z" fill="#231F20"/>
<path d="M47.3477 166.666H54.0148V160H47.3477V166.666Z" fill="#A89179"/>
<path d="M40.6797 166.666H47.3451V160H40.6788L40.6797 166.666Z" fill="#A89179"/>
<path d="M80.6797 53.3331H87.3468V46.666H80.6797V53.3331Z" fill="#614F41"/>
<path d="M114.016 53.334H120.681V46.666H114.016V53.334Z" fill="#231F20"/>
<path d="M120.68 73.3331H127.347V66.666H120.68V73.3331Z" fill="#231F20"/>
<path d="M120.68 146.667H127.347V140H120.68V146.667Z" fill="#231F20"/>
<path d="M87.3475 53.334H94.013V46.666H87.3468L87.3475 53.334Z" fill="#836E5B"/>
<path d="M120.68 80.0011H127.347V73.3331H120.68V80.0011Z" fill="#231F20"/>
<path d="M94.0156 53.334H100.681V46.666H94.0156V53.334Z" fill="#A89179"/>
<path d="M100.68 53.334H107.347V46.666H100.68V53.334Z" fill="#A89179"/>
<path d="M107.348 53.3331H114.015L114.016 46.666H107.347L107.348 53.3331Z" fill="#C95B21"/>
<path d="M120.68 66.666H127.347V60H120.68V66.666Z" fill="#231F20"/>
<path d="M120.68 133.335H127.347V126.668H120.68V133.335Z" fill="#C95B21"/>
<path d="M120.68 126.668H127.347V120H120.68V126.668Z" fill="#C95B21"/>
<path d="M120.68 140H127.347V133.334H120.68V140Z" fill="#231F20"/>
<path d="M120.68 86.6671H127.347V80H120.68V86.6671Z" fill="#C95B21"/>
<path d="M120.68 120H127.347V113.332H120.68V120Z" fill="#9E3E21"/>
<path d="M120.68 93.3334H127.347V86.6671H120.68V93.3334Z" fill="#C95B21"/>
<path d="M120.68 113.335H127.347V106.668H120.68V113.335Z" fill="#C95B21"/>
<path d="M120.68 99.9991H127.347V93.332H120.68V99.9991Z" fill="#9E3E21"/>
<path d="M120.68 106.668H127.347V99.9991H120.68V106.668Z" fill="#C95B21"/>
<path d="M74.0117 119.999H80.6788V113.332H74.0117V119.999Z" fill="#9E3E21"/>
<path d="M40.6797 86.6671H47.3451V80H40.6797V86.6671Z" fill="#231F20"/>
<path d="M40.6797 93.3334H47.3451V86.6671H40.6797V93.3334Z" fill="#8C7662"/>
<path d="M40.6797 133.335H47.3451V126.668H40.6797V133.335Z" fill="#A89179"/>
<path d="M47.3477 86.6671H54.0148V80H47.3477V86.6671Z" fill="#BCAC95"/>
<path d="M54.0117 86.6671H60.6788V80H54.0117V86.6671Z" fill="#BCAC95"/>
<path d="M40.6797 99.9991H47.3451V93.332H40.6797V99.9991Z" fill="#A89179"/>
<path d="M40.6797 106.667H47.3451V99.9991H40.6797V106.667Z" fill="#9E3E21"/>
<path d="M40.6797 119.999H47.3451V113.332H40.6797V119.999Z" fill="#9E3E21"/>
<path d="M40.6797 126.668H47.3451V119.999H40.6797V126.668Z" fill="#231F20"/>
<path d="M40.6797 113.335H47.3451V106.667H40.6797V113.335Z" fill="#231F20"/>
<path d="M60.6788 86.6671H67.3451V80H60.6788V86.6671Z" fill="#231F20"/>
<path d="M87.3475 106.667H94.013V99.9999H87.3475V106.667Z" fill="#9E3E21"/>
<path d="M67.3474 86.6671H74.0129V80H67.3474V86.6671Z" fill="#BCAC95"/>
<path d="M87.3475 113.335H94.013L94.013 106.667H87.3475L87.3475 113.335Z" fill="#231F20"/>
<path d="M87.3475 126.667H94.013V120H87.3475V126.667Z" fill="#231F20"/>
<path d="M87.3475 120H94.013V113.332H87.3475V120Z" fill="#9E3E21"/>
<path d="M87.3475 99.9999H94.013L94.013 93.332H87.3475L87.3475 99.9999Z" fill="#A89179"/>
<path d="M74.0117 86.6671H80.6788V80H74.0117V86.6671Z" fill="#BCAC95"/>
<path d="M80.6788 86.6671H87.3451V80H80.6788V86.6671Z" fill="#231F20"/>
<path d="M87.3475 86.6671H94.013V80H87.3475V86.6671Z" fill="#A89179"/>
<path d="M87.3475 93.3334H94.013V86.6671H87.3475V93.3334Z" fill="#A89179"/>
<path d="M94.0156 119.999H100.681V113.332H94.0156V119.999Z" fill="#7F2A20"/>
<path d="M94.0156 106.667H100.681V100H94.0156V106.667Z" fill="#9E3E21"/>
<path d="M94.0156 100H100.681V93.332H94.0156V100Z" fill="#A89179"/>
<path d="M94.0156 113.335H100.681V106.667H94.0156V113.335Z" fill="#231F20"/>
<path d="M94.0156 93.3334H100.681V86.668H94.0156V93.3334Z" fill="#A89179"/>
<path d="M87.3475 133.333H94.013V126.666H87.3475V133.333Z" fill="#231F20"/>
<path d="M47.3477 133.335H54.0148V126.668H47.3477V133.335Z" fill="#A89179"/>
<path d="M107.348 73.3331H114.015V66.666L107.348 66.6655V73.3331Z" fill="#C95B21"/>
<path d="M94.0156 86.668H100.681V80H94.0156V86.668Z" fill="#A89179"/>
<path d="M87.3475 80.0011H94.013V73.334H87.3475V80.0011Z" fill="#A89179"/>
<path d="M94.0156 80.0011H100.681V73.334H94.0156V80.0011Z" fill="#A89179"/>
<path d="M80.6797 80.0011H87.3451V73.334H80.6797V80.0011Z" fill="#6A5647"/>
<path d="M60.6797 139.999H67.3451V133.334H60.6797V139.999Z" fill="#9E3E21"/>
<path d="M54.0117 133.334V139.999H60.6797V133.334H54.0117Z" fill="#231F20"/>
<path d="M47.3477 139.999H54.0148V133.334H47.3477V139.999Z" fill="#A89179"/>
<path d="M94.0156 133.335H100.681V126.668H94.0156V133.335Z" fill="#EA7A27"/>
<path d="M87.3475 139.999H94.013L94.013 133.333H87.3475L87.3475 139.999Z" fill="#231F20"/>
<path d="M94.0156 139.999H100.681V133.334H94.0156V139.999Z" fill="#C95B21"/>
<path d="M80.6797 139.999L87.3475 139.999L87.3468 133.334H80.6797V139.999Z" fill="#A89179"/>
<path d="M74.0117 139.999H80.6797V133.334H74.0117V139.999Z" fill="#A89179"/>
<path d="M80.6797 133.335H87.3468V126.668H80.6797V133.335Z" fill="#A89179"/>
<path d="M54.0117 113.335H60.6788V106.668H54.0117V113.335Z" fill="#231F20"/>
<path d="M54.0117 106.668H60.6788V100H54.0117V106.668Z" fill="#9E3E21"/>
<path d="M74.0117 80.0011H80.6797V73.334H74.0117V80.0011Z" fill="#BCAC95"/>
<path d="M54.0117 100H60.6788V93.332H54.0117V100Z" fill="#BCAC95"/>
<path d="M54.0117 119.999H60.6788V113.332H54.0117V119.999Z" fill="#9E3E21"/>
<path d="M67.3474 99.9991H74.0129V93.332H67.3474V99.9991Z" fill="#BCAC95"/>
<path d="M74.0117 126.667H80.6788V119.999H74.0117V126.667Z" fill="#231F20"/>
<path d="M80.6797 126.668H87.3468L87.3475 120H80.6797V126.668Z" fill="#231F20"/>
<path d="M67.3474 126.667H74.0129V120H67.3474V126.667Z" fill="#9E3E21"/>
<path d="M60.6797 126.667H67.3451V120H60.6797V126.667Z" fill="#9E3E21"/>
<path d="M60.6797 120H67.3451V113.332H60.6788L60.6797 120Z" fill="#9E3E21"/>
<path d="M67.3474 113.335H74.0129V106.668H67.3474V113.335Z" fill="#231F20"/>
<path d="M60.6788 113.335H67.3451V106.668H60.6788V113.335Z" fill="#7F2A20"/>
<path d="M60.6797 106.667L67.3451 106.668V100H60.6788L60.6797 106.667Z" fill="#9E3E21"/>
<path d="M67.3474 106.668H74.0129V99.9991H67.3474V106.668Z" fill="#9E3E21"/>
<path d="M74.0117 99.9991H80.6788V93.332H74.0117V99.9991Z" fill="#8C7662"/>
<path d="M74.0117 113.335H80.6788V106.668H74.0117V113.335Z" fill="#7F2A20"/>
<path d="M67.3474 120H74.0129V113.332H67.3474V120Z" fill="#9E3E21"/>
<path d="M74.0117 106.668H80.6788V99.9991H74.0117V106.668Z" fill="#9E3E21"/>
<path d="M94.0156 173.333H100.681V166.665H94.0156V173.333Z" fill="#A89179"/>
<path d="M60.6797 99.9991L67.3451 100V93.332H60.6788L60.6797 99.9991Z" fill="#BCAC95"/>
<path d="M47.3477 119.999H54.0148V113.332H47.3477V119.999Z" fill="#9E3E21"/>
<path d="M54.0117 126.667H60.6797L60.6788 119.999H54.0117V126.667Z" fill="#9E3E21"/>
<path d="M47.3477 126.668H54.0148V119.999H47.3477V126.668Z" fill="#231F20"/>
<path d="M47.3477 113.335H54.0148V106.668H47.3477V113.335Z" fill="#7F2A20"/>
<path d="M47.3477 106.668H54.0148V100H47.3477V106.668Z" fill="#9E3E21"/>
<path d="M54.0117 133.335H60.6788V126.668L54.0117 126.667V133.335Z" fill="#231F20"/>
<path d="M67.3475 133.334H74.0129L74.0129 126.666H67.3474L67.3475 133.334Z" fill="#231F20"/>
<path d="M74.0117 133.335H80.6797L80.6788 126.667H74.0117V133.335Z" fill="#A89179"/>
<path d="M47.3477 100H54.0148V93.332H47.3477V100Z" fill="#8C7662"/>
<path d="M60.6788 133.335H67.3451V126.667H60.6797L60.6788 133.335Z" fill="#9E3E21"/>
<path d="M67.3474 93.3334H74.0129V86.6671H67.3474V93.3334Z" fill="#231F20"/>
<path d="M80.6797 93.3334H87.3451V86.6671L80.6797 86.668V93.3334Z" fill="#8C7662"/>
<path d="M80.6797 106.667L87.3475 106.667V99.9999L80.6797 100V106.667Z" fill="#9E3E21"/>
<path d="M80.6797 100L87.3468 99.9991L87.3475 93.332H80.6788L80.6797 100Z" fill="#A89179"/>
<path d="M80.6788 113.335H87.3475L87.3468 106.668L80.6797 106.667L80.6788 113.335Z" fill="#231F20"/>
<path d="M60.6797 93.3334H67.3451V86.6671L60.6797 86.668V93.3334Z" fill="#231F20"/>
<path d="M54.0117 93.3334H60.6797L60.6788 86.6671H54.0117V93.3334Z" fill="#231F20"/>
<path d="M47.3477 93.3334H54.0148V86.6671H47.3477V93.3334Z" fill="#231F20"/>
<path d="M74.0117 93.3334H80.6797L80.6788 86.6671H74.0117V93.3334Z" fill="#231F20"/>
<path d="M80.6797 120L87.3468 119.999L87.3475 113.332H80.6788L80.6797 120Z" fill="#9E3E21"/>
<path d="M94.0156 126.668H100.681V119.999H94.0156V126.668Z" fill="#231F20"/>
<path d="M27.3477 133.335H34.0148V126.668H27.3477V133.335Z" fill="#EA7A27"/>
<path d="M27.3477 126.668H34.0148V120H27.3477V126.668Z" fill="#231F20"/>
<path d="M27.3469 139.999L34.0148 139.999V133.334H27.3477L27.3469 139.999Z" fill="#C95B21"/>
<path d="M27.3477 120H34.0148V113.332H27.3469L27.3477 120Z" fill="#C95B21"/>
<path d="M27.3469 113.335H34.0148V106.668H27.3477L27.3469 113.335Z" fill="#C95B21"/>
<path d="M34.0117 153.334H40.6788V146.666H34.0117V153.334Z" fill="#9E3E21"/>
<path d="M27.3469 146.666H34.0148V139.999L27.3477 140L27.3469 146.666Z" fill="#C95B21"/>
<path d="M27.3477 106.668H34.0148V100L27.3469 99.9999L27.3477 106.668Z" fill="#231F20"/>
<path d="M40.6797 153.333L47.3451 153.334V146.666H40.6788L40.6797 153.333Z" fill="#231F20"/>
<path d="M34.0117 146.666H40.6788V140H34.0117V146.666Z" fill="#231F20"/>
<path d="M40.6797 73.3331H47.3451V66.6655L40.6797 66.666V73.3331Z" fill="#A89179"/>
<path d="M47.3477 153.334H54.0148V146.666H47.3477V153.334Z" fill="#8C7662"/>
<path d="M47.3477 73.3331H54.0148V66.6655H47.3477V73.3331Z" fill="#6A5647"/>
<path d="M54.0117 73.3331H60.6788V66.6655H54.0117V73.3331Z" fill="#BCAC95"/>
<path d="M34.0117 73.3331H40.6797L40.6788 66.6655H34.0117V73.3331Z" fill="#A89179"/>
<path d="M27.3469 80.0011H34.0148V73.334H27.3477L27.3469 80.0011Z" fill="#A89179"/>
<path d="M27.3477 73.334H34.0148V66.6655L27.3469 66.6661L27.3477 73.334Z" fill="#A89179"/>
<path d="M27.3477 86.6671H34.0148V80H27.3469L27.3477 86.6671Z" fill="#A89179"/>
<path d="M27.3469 93.3334H34.0148V86.6671H27.3477L27.3469 93.3334Z" fill="#A89179"/>
<path d="M27.3477 99.9991L34.0148 100V93.332H27.3469L27.3477 99.9991Z" fill="#9E3E21"/>
<path d="M54.0117 146.666V153.334H60.6788V146.666H54.0117Z" fill="#231F20"/>
<path d="M107.348 113.335H114.016V106.668H107.348V113.335Z" fill="#C95B21"/>
<path d="M107.348 106.668L114.015 106.667V100H107.348V106.668Z" fill="#231F20"/>
<path d="M107.348 119.999H114.015L114.016 113.332H107.348V119.999Z" fill="#231F20"/>
<path d="M107.348 126.667H114.015V119.999H107.348V126.667Z" fill="#EA7A27"/>
<path d="M60.6788 73.3331H67.3451V66.6655L60.6797 66.666L60.6788 73.3331Z" fill="#231F20"/>
<path d="M107.348 93.3334H114.016L114.015 86.668H107.348V93.3334Z" fill="#9E3E21"/>
<path d="M107.348 100H114.015L114.016 93.332H107.348V100Z" fill="#231F20"/>
<path d="M107.348 86.668H114.015L114.016 80H107.348V86.668Z" fill="#C95B21"/>
<path d="M107.348 80.0011H114.016L114.015 73.3331H107.348V80.0011Z" fill="#C95B21"/>
<path d="M107.348 139.999H114.016V133.334H107.348V139.999Z" fill="#C95B21"/>
<path d="M107.348 133.335H114.016L114.015 126.667H107.348V133.335Z" fill="#C95B21"/>
<path d="M74.0117 153.334H80.6788V146.666H74.0117V153.334Z" fill="#8C7662"/>
<path d="M67.3474 153.334H74.0129V146.666H67.3474V153.334Z" fill="#231F20"/>
<path d="M80.6797 153.333L87.3468 153.334V146.666H80.6788L80.6797 153.333Z" fill="#231F20"/>
<path d="M107.348 146.667H114.016L114.015 140L107.348 139.999V146.667Z" fill="#231F20"/>
<path d="M60.6797 153.333L67.3451 153.334V146.666H60.6788L60.6797 153.333Z" fill="#9E3E21"/>
<path d="M100.68 153.334L107.347 153.333V146.666H100.68V153.334Z" fill="#231F20"/>
<path d="M107.348 153.334H114.015L114.016 146.666H107.347L107.348 153.334Z" fill="#231F20"/>
<path d="M87.3475 153.333L94.013 153.334V146.666H87.3468L87.3475 153.333Z" fill="#7F2A20"/>
<path d="M94.0156 153.334H100.681V146.666H94.0156V153.334Z" fill="#231F20"/>
<path d="M34.0117 133.335H40.6797V126.668H34.0117V133.335Z" fill="#231F20"/>
<path d="M40.6797 139.999H47.3451V133.334H40.6797V139.999Z" fill="#A89179"/>
<path d="M67.3475 73.3332H74.0129L74.0129 66.6655H67.3474L67.3475 73.3332Z" fill="#BCAC95"/>
<path d="M67.3474 80.0011H74.0129L74.0129 73.3332H67.3475L67.3474 80.0011Z" fill="#BCAC95"/>
<path d="M34.0117 126.668L40.6788 126.667V120H34.0117V126.668Z" fill="#231F20"/>
<path d="M34.0117 120H40.6788L40.6797 113.332H34.0117V120Z" fill="#C95B21"/>
<path d="M47.3477 146.666H54.0148V139.999H47.3477V146.666Z" fill="#A89179"/>
<path d="M54.0117 139.999V146.667H60.6788V140L54.0117 139.999Z" fill="#231F20"/>
<path d="M60.6788 146.667H67.3451V139.999H60.6797L60.6788 146.667Z" fill="#9E3E21"/>
<path d="M40.6797 146.665L47.3451 146.666V139.999H40.6797V146.665Z" fill="#8C7662"/>
<path d="M34.0117 113.335H40.6797L40.6788 106.668H34.0117V113.335Z" fill="#231F20"/>
<path d="M34.0117 99.9991H40.6797V93.332H34.0117V99.9991Z" fill="#A89179"/>
<path d="M34.0117 106.668H40.6788V100L34.0117 99.9991V106.668Z" fill="#9E3E21"/>
<path d="M47.3477 80.0011H54.0148V73.3331H47.3477V80.0011Z" fill="#BCAC95"/>
<path d="M54.0117 80.0011H60.6788V73.3331H54.0117V80.0011Z" fill="#BCAC95"/>
<path d="M60.6788 80.0011H67.3451V73.3331L60.6797 73.334L60.6788 80.0011Z" fill="#231F20"/>
<path d="M40.6797 80.0011H47.3451V73.3331H40.6797V80.0011Z" fill="#6A5647"/>
<path d="M34.0117 93.3334H40.6797L40.6788 86.668H34.0117V93.3334Z" fill="#A89179"/>
<path d="M67.3474 146.667H74.0129L74.0129 139.999H67.3475L67.3474 146.667Z" fill="#231F20"/>
<path d="M34.0117 80.0011H40.6797L40.6788 73.334L34.0117 73.3331V80.0011Z" fill="#A89179"/>
<path d="M34.0117 86.668H40.6788L40.6797 80H34.0117V86.668Z" fill="#A89179"/>
<path d="M34.0117 140H40.6788L40.6797 133.334H34.0117V140Z" fill="#231F20"/>
<path d="M100.68 86.6671H107.347L107.348 80H100.68V86.6671Z" fill="#A89179"/>
<path d="M100.68 80.0011H107.348L107.347 73.334H100.68V80.0011Z" fill="#A89179"/>
<path d="M100.68 99.9991H107.347L107.348 93.332H100.68V99.9991Z" fill="#9E3E21"/>
<path d="M100.68 93.3334H107.348L107.347 86.6671H100.68V93.3334Z" fill="#A89179"/>
<path d="M100.68 73.334H107.347V66.666L100.68 66.6655V73.334Z" fill="#A89179"/>
<path d="M74.0117 146.667H80.6788V140L74.0117 139.999V146.667Z" fill="#A89179"/>
<path d="M74.0117 73.334L80.6788 73.3331V66.666L74.0117 66.6655V73.334Z" fill="#6A5647"/>
<path d="M80.6797 73.334H87.3451V66.6655H80.6797V73.334Z" fill="#A89179"/>
<path d="M94.0156 73.334H100.681V66.6655H94.0156V73.334Z" fill="#A89179"/>
<path d="M87.3475 73.334H94.013V66.6655H87.3475V73.334Z" fill="#A89179"/>
<path d="M100.68 106.667H107.347V99.9991H100.68V106.667Z" fill="#231F20"/>
<path d="M94.0156 146.667H100.681V139.999H94.0156V146.667Z" fill="#9E3E21"/>
<path d="M87.3475 146.667H94.013L94.013 139.999H87.3475L87.3475 146.667Z" fill="#231F20"/>
<path d="M100.68 146.667H107.348L107.347 140H100.68V146.667Z" fill="#9E3E21"/>
<path d="M100.68 113.335H107.348L107.347 106.667H100.68V113.335Z" fill="#7F2A20"/>
<path d="M80.6788 146.667H87.3475L87.3468 140L80.6797 139.999L80.6788 146.667Z" fill="#8C7662"/>
<path d="M100.68 126.667H107.348L107.347 120H100.68V126.667Z" fill="#231F20"/>
<path d="M100.68 140H107.347L107.348 133.334H100.68V140Z" fill="#C95B21"/>
<path d="M100.68 120H107.347L107.348 113.332H100.68V120Z" fill="#7F2A20"/>
<path d="M100.68 133.335H107.348L107.347 126.668L100.68 126.667V133.335Z" fill="#EA7A27"/>
<path d="M87.3475 193.333H94.013V186.668H87.3475V193.333Z" fill="#8C7662"/>
<path d="M40.6797 193.333H47.3451V186.668H40.6797V193.333Z" fill="#8C7662"/>
<path d="M27.3477 193.333H34.0148V186.668H27.3477V193.333Z" fill="#231F20"/>
<path d="M20.6798 193.333H27.3477V186.668H20.6798V193.333Z" fill="#7F2A20"/>
<path d="M34.0117 193.333H40.6797V186.668H34.0117V193.333Z" fill="#8C7662"/>
<path d="M54.0117 193.333H60.6788V186.668H54.0117V193.333Z" fill="#231F20"/>
<path d="M74.0117 193.333H80.6788V186.668H74.0117V193.333Z" fill="#8C7662"/>
<path d="M60.6788 193.333H67.3451V186.668H60.6788V193.333Z" fill="#7F2A20"/>
<path d="M80.6788 193.333H87.3475V186.668H80.6788V193.333Z" fill="#8C7662"/>
<path d="M67.3474 193.333H74.0129V186.668H67.3474V193.333Z" fill="#231F20"/>
<path d="M47.3477 193.333H54.0148V186.668H47.3477V193.333Z" fill="#8C7662"/>
<path d="M7.34766 193.333H14.0148V186.668H7.34766V193.333Z" fill="#7F2A20"/>
<path d="M0.679688 193.333H7.34766V186.668H0.679688V193.333Z" fill="#231F20"/>
<path d="M14.0117 193.333H20.6772V186.668H14.0117V193.333Z" fill="#231F20"/>
<path d="M140.68 113.335H147.345V106.668H140.68V113.335Z" fill="#C95B21"/>
<path d="M140.68 99.9991H147.345V93.332H140.68V99.9991Z" fill="#231F20"/>
<path d="M140.68 106.668H147.345V99.9991H140.68V106.668Z" fill="#231F20"/>
<path d="M140.68 166.665H147.345V160H140.68V166.665Z" fill="#231F20"/>
<path d="M140.68 160.001H147.345V153.334H140.68V160.001Z" fill="#C95B21"/>
<path d="M140.68 153.334H147.345V146.666H140.68V153.334Z" fill="#C95B21"/>
<path d="M140.68 173.333H147.345V166.665H140.68V173.333Z" fill="#C95B21"/>
<path d="M100.68 173.333H107.347V166.666L100.68 166.665V173.333Z" fill="#231F20"/>
<path d="M140.68 126.667H147.345V120H140.68V126.667Z" fill="#C95B21"/>
<path d="M140.68 133.335H147.345V126.667H140.68V133.335Z" fill="#C95B21"/>
<path d="M140.68 146.667H147.345V140H140.68V146.667Z" fill="#C95B21"/>
<path d="M140.68 120H147.345V113.332H140.68V120Z" fill="#C95B21"/>
<path d="M94.0156 33.3351H100.681V26.668H94.0156V33.3351Z" fill="#C95B21"/>
<path d="M47.3477 33.3351H54.0148V26.668H47.3477V33.3351Z" fill="#A89179"/>
<path d="M80.6797 33.3351H87.3468V26.668H80.6797V33.3351Z" fill="#A89179"/>
<path d="M54.0117 33.3351H60.6788V26.668H54.0117V33.3351Z" fill="#A89179"/>
<path d="M67.3474 33.3331H74.0129V26.666H67.3474V33.3331Z" fill="#A89179"/>
<path d="M74.0117 33.3351H80.6797V26.668H74.0117V33.3351Z" fill="#A89179"/>
<path d="M60.6788 33.3351H67.3468V26.668H60.6788V33.3351Z" fill="#A89179"/>
<path d="M27.3477 33.3351H34.0148V26.668H27.3477V33.3351Z" fill="#C95B21"/>
<path d="M40.6797 33.3351H47.3451V26.668H40.6797V33.3351Z" fill="#A89179"/>
<path d="M34.0117 33.3351H40.6797V26.668H34.0117V33.3351Z" fill="#C95B21"/>
<path d="M20.6798 33.3331H27.3469V26.666H20.6798V33.3331Z" fill="#231F20"/>
<path d="M87.3475 33.3331H94.013V26.666H87.3475V33.3331Z" fill="#8C7662"/>
<path d="M100.68 33.3351H107.347V26.668H100.68V33.3351Z" fill="#C95B21"/>
<path d="M107.347 33.3351H114.015V26.668H107.347V33.3351Z" fill="#231F20"/>
<path d="M94.0156 193.333H100.681V186.668H94.0156V193.333Z" fill="#8C7662"/>
<path d="M60.6797 26.6671H67.3451V19.9994H60.6797V26.6671Z" fill="#C95B21"/>
<path d="M67.3474 26.6671H74.0129V19.9994H67.3474V26.6671Z" fill="#8C7662"/>
<path d="M74.0117 26.668L80.6788 26.6671V20L74.0117 19.9994V26.668Z" fill="#C95B21"/>
<path d="M80.6797 26.668H87.3468L87.3475 19.9994H80.6797V26.668Z" fill="#8C7662"/>
<path d="M54.0156 26.6671H60.6811V20H54.0156V26.6671Z" fill="#8C7662"/>
<path d="M27.3477 26.668L34.0131 26.6671V20L27.3477 19.9994V26.668Z" fill="#EA7A27"/>
<path d="M34.0117 26.668L40.6788 26.6671V19.9994H34.0117V26.668Z" fill="#C95B21"/>
<path d="M40.6797 26.668L47.3468 26.6671V20H40.6797V26.668Z" fill="#8C7662"/>
<path d="M47.3477 26.668H54.0148V19.9994H47.3477V26.668Z" fill="#C95B21"/>
<path d="M140.68 179.999H147.345V173.332H140.68V179.999Z" fill="#C95B21"/>
<path d="M87.3475 26.6671H94.013V19.9994H87.3475V26.6671Z" fill="#C95B21"/>
<path d="M20.6797 26.6671H27.3468V20H20.6797V26.6671Z" fill="#231F20"/>
<path d="M147.348 153.333H154.015V146.666H147.348V153.333Z" fill="#231F20"/>
<path d="M147.348 146.667H154.015V140H147.348V146.667Z" fill="#231F20"/>
<path d="M147.348 160.001H154.015V153.333H147.348V160.001Z" fill="#231F20"/>
<path d="M147.348 173.333H154.015V166.666H147.348V173.333Z" fill="#231F20"/>
<path d="M147.348 166.666H154.015V160H147.348V166.666Z" fill="#231F20"/>
<path d="M147.348 179.999H154.015V173.332H147.348V179.999Z" fill="#231F20"/>
<path d="M147.348 113.335H154.015V106.668H147.348V113.335Z" fill="#231F20"/>
<path d="M147.348 126.667H154.015V120H147.348V126.667Z" fill="#231F20"/>
<path d="M147.348 140H154.015V133.334H147.348V140Z" fill="#231F20"/>
<path d="M147.348 133.335H154.015V126.667H147.348V133.335Z" fill="#231F20"/>
<path d="M147.348 120H154.015V113.332H147.348V120Z" fill="#231F20"/>
<path d="M120.68 193.333H127.347V186.668H120.68V193.333Z" fill="#7F2A20"/>
<path d="M107.348 193.333H114.015V186.668H107.348V193.333Z" fill="#7F2A20"/>
<path d="M114.015 193.333H120.681V186.668H114.015V193.333Z" fill="#231F20"/>
<path d="M147.348 186.667H154.015V179.999H147.348V186.667Z" fill="#231F20"/>
<path d="M100.68 193.333H107.348V186.668H100.68V193.333Z" fill="#231F20"/>
<path d="M94.0156 26.668H100.681V19.9994H94.0156V26.668Z" fill="#C95B21"/>
<path d="M140.68 193.333H147.345V186.668H140.68V193.333Z" fill="#231F20"/>
<path d="M134.016 193.333H140.683V186.668H134.016V193.333Z" fill="#7F2A20"/>
<path d="M127.347 193.333H134.016V186.668H127.347V193.333Z" fill="#231F20"/>
<path d="M107.348 26.6671L114.015 26.668V20H107.348V26.6671Z" fill="#231F20"/>
<path d="M100.68 26.668H107.347V19.9994H100.68V26.668Z" fill="#EA7A27"/>
<path d="M140.68 140H147.345V133.334H140.68V140Z" fill="#C95B21"/>
<path d="M0.679688 119.999H7.34766V113.332H0.679688V119.999Z" fill="#231F20"/>
<path d="M0.679688 139.999H7.3468L7.34766 133.334L0.679688 133.334V139.999Z" fill="#231F20"/>
<path d="M0.679688 133.334L7.3468 133.333V126.666H0.679688V133.334Z" fill="#231F20"/>
<path d="M0.679688 126.667H7.3468V120L0.679688 119.999V126.667Z" fill="#231F20"/>
<path d="M0.679688 146.667H7.3468V140.002H0.679688V146.667Z" fill="#231F20"/>
<path d="M7.34766 179.999H14.0148V173.332H7.34766V179.999Z" fill="#C95B21"/>
<path d="M7.34766 173.333H14.0148V166.665H7.34766V173.333Z" fill="#EA7A27"/>
<path d="M0.679688 173.333L7.34766 173.333L7.3468 166.666H0.679688V173.333Z" fill="#231F20"/>
<path d="M14.0117 179.999H20.6772V173.332H14.0117V179.999Z" fill="#C95B21"/>
<path d="M107.348 179.999H114.015V173.332H107.348V179.999Z" fill="#C95B21"/>
<path d="M100.68 179.999H107.348V173.332H100.68V179.999Z" fill="#231F20"/>
<path d="M94.0156 179.999H100.681V173.332H94.0156V179.999Z" fill="#A89179"/>
<path d="M114.015 179.999H120.681V173.332H114.015V179.999Z" fill="#C95B21"/>
<path d="M87.3475 180.001H94.013L94.013 173.333L87.3475 173.334V180.001Z" fill="#A89179"/>
<path d="M134.016 173.333H140.683V166.666H134.016V173.333Z" fill="#C95B21"/>
<path d="M80.6797 179.999H87.3468V173.332H80.6797V179.999Z" fill="#A89179"/>
<path d="M134.016 179.999H140.683V173.332H134.016V179.999Z" fill="#C95B21"/>
<path d="M127.348 179.999H134.016V173.332H127.348V179.999Z" fill="#C95B21"/>
<path d="M120.68 179.999H127.348V173.332H120.68V179.999Z" fill="#C95B21"/>
<path d="M34.0117 179.999H40.6788V173.332H34.0117V179.999Z" fill="#A89179"/>
<path d="M27.3477 179.999H34.0148V173.332H27.3477V179.999Z" fill="#231F20"/>
<path d="M20.6798 180.001H27.3469V173.334L20.6798 173.333L20.6798 180.001Z" fill="#C95B21"/>
<path d="M40.6788 179.999H47.3451V173.332H40.6788V179.999Z" fill="#A89179"/>
<path d="M54.0117 179.999H60.6788V173.332H54.0117V179.999Z" fill="#231F20"/>
<path d="M60.6788 179.999H67.3451V173.332H60.6788V179.999Z" fill="#9E3E21"/>
<path d="M67.3474 180.001H74.0129L74.0129 173.333H67.3475L67.3474 180.001Z" fill="#231F20"/>
<path d="M47.3477 179.999H54.0148V173.332H47.3477V179.999Z" fill="#A89179"/>
<path d="M74.0117 179.999H80.6797V173.332H74.0117V179.999Z" fill="#A89179"/>
<path d="M127.347 99.9991H134.015V93.332H127.347V99.9991Z" fill="#C95B21"/>
<path d="M134.016 166.666H140.683V160H134.016V166.666Z" fill="#EA7A27"/>
<path d="M127.347 113.335H134.015V106.668H127.347V113.335Z" fill="#C95B21"/>
<path d="M127.348 119.999H134.015V113.332H127.347L127.348 119.999Z" fill="#C95B21"/>
<path d="M127.347 133.335H134.015V126.668H127.347V133.335Z" fill="#C95B21"/>
<path d="M127.348 126.667L134.015 126.668V119.999H127.348V126.667Z" fill="#9E3E21"/>
<path d="M127.347 93.3334H134.015V86.668H127.348L127.347 93.3334Z" fill="#C95B21"/>
<path d="M127.348 86.668H134.015V80H127.347L127.348 86.668Z" fill="#231F20"/>
<path d="M120.68 173.333H127.347V166.665H120.68V173.333Z" fill="#C95B21"/>
<path d="M114.016 173.333H120.681V166.665L114.016 166.666V173.333Z" fill="#C95B21"/>
<path d="M127.347 173.333H134.016V166.666H127.348L127.347 173.333Z" fill="#C95B21"/>
<path d="M107.347 173.333H114.016L114.015 166.665H107.348L107.347 173.333Z" fill="#C95B21"/>
<path d="M140.68 186.668H147.345V179.999H140.68V186.668Z" fill="#9E3E21"/>
<path d="M127.347 146.667H134.015V140H127.347V146.667Z" fill="#231F20"/>
<path d="M127.348 153.333H134.015V146.666H127.347L127.348 153.333Z" fill="#7F2A20"/>
<path d="M127.348 166.666L134.015 166.665L134.016 160H127.347L127.348 166.666Z" fill="#EA7A27"/>
<path d="M127.348 139.999L134.015 140V133.334H127.347L127.348 139.999Z" fill="#9E3E21"/>
<path d="M127.348 106.667L134.015 106.668V99.9991L127.348 100V106.667Z" fill="#9E3E21"/>
<path d="M47.3477 46.666H54.0148V40H47.3477V46.666Z" fill="#614F41"/>
<path d="M40.6797 46.6655L47.3451 46.666V40H40.6797V46.6655Z" fill="#836E5B"/>
<path d="M54.0117 46.666L60.6788 46.6655V40H54.0117V46.666Z" fill="#231F20"/>
<path d="M74.0156 46.666H80.6827V40H74.0156V46.666Z" fill="#614F41"/>
<path d="M67.3474 46.666H74.0129V40H67.3474V46.666Z" fill="#231F20"/>
<path d="M60.6797 46.666H67.3451V40H60.6788L60.6797 46.666Z" fill="#836E5B"/>
<path d="M20.6798 46.666H27.3477L27.3469 40H20.6798V46.666Z" fill="#EA7A27"/>
<path d="M34.0117 46.666H40.6788L40.6797 40H34.0117V46.666Z" fill="#BCAC95"/>
<path d="M14.0117 46.666H20.6772V40H14.0117V46.666Z" fill="#231F20"/>
<path d="M27.3477 46.666H34.0148V40H27.3469L27.3477 46.666Z" fill="#8C7662"/>
<path d="M87.3468 46.666H94.013V40H87.3475L87.3468 46.666Z" fill="#BCAC95"/>
<path d="M114.016 46.666H120.681V40H114.016V46.666Z" fill="#231F20"/>
<path d="M80.6797 46.666H87.3468L87.3475 40H80.6797V46.666Z" fill="#836E5B"/>
<path d="M107.348 46.6655H114.015L114.016 40H107.348V46.6655Z" fill="#C95B21"/>
<path d="M94.0156 46.666H100.681V40H94.0156V46.666Z" fill="#A89179"/>
<path d="M100.68 46.666H107.347L107.348 40H100.68V46.666Z" fill="#8C7662"/>
<path d="M127.347 160.001H134.015V153.333H127.348L127.347 160.001Z" fill="#231F20"/>
<path d="M0.679688 180.001H7.3468V173.334L0.679688 173.333V180.001Z" fill="#231F20"/>
<path d="M0.679688 186.668L7.3468 186.667V180H0.679688V186.668Z" fill="#231F20"/>
<path d="M107.348 186.668H114.015V179.999H107.348V186.668Z" fill="#9E3E21"/>
<path d="M94.0156 186.668H100.681V179.999H94.0156V186.668Z" fill="#A89179"/>
<path d="M100.68 186.668L107.347 186.667V180L100.68 179.999V186.668Z" fill="#231F20"/>
<path d="M87.3475 186.668H94.013V180H87.3475V186.668Z" fill="#A89179"/>
<path d="M80.6797 186.667H87.3468V179.999H80.6797V186.667Z" fill="#231F20"/>
<path d="M127.348 186.667H134.015V180L127.348 179.999V186.667Z" fill="#9E3E21"/>
<path d="M134.016 186.668H140.683V179.999H134.016V186.668Z" fill="#9E3E21"/>
<path d="M74.0117 186.668H80.6788V180L74.0117 179.999V186.668Z" fill="#231F20"/>
<path d="M120.68 186.668H127.347V180L120.68 179.999V186.668Z" fill="#9E3E21"/>
<path d="M114.016 186.667L120.681 186.668V179.999L114.016 180V186.667Z" fill="#9E3E21"/>
<path d="M40.6797 186.668H47.3451V179.999L40.6797 180V186.668Z" fill="#A89179"/>
<path d="M20.6798 186.668L27.3469 186.667V180H20.6798V186.668Z" fill="#9E3E21"/>
<path d="M34.0117 186.668L40.6788 186.667V179.999H34.0117V186.668Z" fill="#A89179"/>
<path d="M27.3477 186.668H34.0148V179.999H27.3477V186.668Z" fill="#231F20"/>
<path d="M14.0117 186.668H20.6772V179.999H14.0117V186.668Z" fill="#9E3E21"/>
<path d="M60.6797 186.667L67.3451 186.668V179.999L60.6797 180V186.667Z" fill="#7F2A20"/>
<path d="M54.0117 186.668H60.6788V179.999H54.0117V186.668Z" fill="#231F20"/>
<path d="M7.34766 186.668H14.0148V179.999H7.34766V186.668Z" fill="#9E3E21"/>
<path d="M67.3474 186.668H74.0129V180H67.3474V186.668Z" fill="#231F20"/>
<path d="M47.3477 186.668H54.0148V179.999H47.3477V186.668Z" fill="#231F20"/>
<path d="M134.015 93.3334H140.683V86.668H134.015V93.3334Z" fill="#231F20"/>
<path d="M134.015 133.335H140.683V126.668H134.015V133.335Z" fill="#231F20"/>
<path d="M134.015 146.667H140.683V140H134.015V146.667Z" fill="#9E3E21"/>
<path d="M134.016 139.999L140.683 140V133.334H134.015L134.016 139.999Z" fill="#231F20"/>
<path d="M134.015 153.333H140.683V146.666H134.015V153.333Z" fill="#9E3E21"/>
<path d="M134.015 113.335H140.683V106.668H134.015V113.335Z" fill="#231F20"/>
<path d="M134.016 106.667L140.683 106.668V100H134.016V106.667Z" fill="#C95B21"/>
<path d="M134.016 100H140.683V93.332H134.015L134.016 100Z" fill="#C95B21"/>
<path d="M134.016 126.667L140.683 126.668V120H134.016V126.667Z" fill="#231F20"/>
<path d="M134.016 120H140.683V113.332H134.015L134.016 120Z" fill="#231F20"/>
<path d="M54.0117 40H60.6788V33.334H54.0117V40Z" fill="#BCAC95"/>
<path d="M20.6798 40H27.3469V33.3331H20.6798V40Z" fill="#EA7A27"/>
<path d="M27.3469 40H34.0148V33.334H27.3477L27.3469 40Z" fill="#C95B21"/>
<path d="M14.0117 40H20.6772V33.334H14.0117V40Z" fill="#231F20"/>
<path d="M34.0117 40L40.6788 39.9994V33.334H34.0117V40Z" fill="#8C7662"/>
<path d="M40.6797 40H47.3451V33.334H40.6788L40.6797 40Z" fill="#BCAC95"/>
<path d="M47.3477 40H54.0148V33.334H47.3477V40Z" fill="#BCAC95"/>
<path d="M134.015 160.001H140.683V153.333L134.016 153.334L134.015 160.001Z" fill="#231F20"/>
<path d="M60.6797 39.9994L67.3451 40V33.334H60.6788L60.6797 39.9994Z" fill="#A89179"/>
<path d="M87.3475 40H94.013V33.3331H87.3475V40Z" fill="#A89179"/>
<path d="M94.0156 40H100.681V33.334H94.0156V40Z" fill="#8C7662"/>
<path d="M100.68 40L107.347 39.9994V33.334H100.68V40Z" fill="#C95B21"/>
<path d="M107.348 40L114.015 39.9994V33.334H107.347L107.348 40Z" fill="#EA7A27"/>
<path d="M114.016 40H120.681V33.334H114.015L114.016 40Z" fill="#231F20"/>
<path d="M67.3474 40L74.0146 39.9993V33.3339L67.3474 33.3331V40Z" fill="#BCAC95"/>
<path d="M74.0117 39.9994H80.6788V33.334H74.0117V39.9994Z" fill="#BCAC95"/>
<path d="M80.6797 40H87.3475L87.3468 33.334H80.6788L80.6797 40Z" fill="#BCAC95"/>
</svg>
