<svg width="318" height="200" viewBox="0 0 318 200" fill="none" xmlns="http://www.w3.org/2000/svg">
<path d="M41.8321 131.036H48.7291V124.139H41.8321V131.036Z" fill="#231F20"/>
<path d="M41.832 144.827H48.7291V137.932H41.832V144.827Z" fill="#B35BA5"/>
<path d="M41.8321 151.725H48.7291V144.828H41.8321V151.725Z" fill="#231F20"/>
<path d="M41.8321 193.104H48.7291V186.207H41.8321V193.104Z" fill="#231F20"/>
<path d="M41.832 137.932H48.7291L48.7291 131.036H41.8321L41.832 137.932Z" fill="#914282"/>
<path d="M41.8321 158.622H48.7291V151.725H41.8321V158.622Z" fill="#690A0D"/>
<path d="M41.8321 165.518H48.7291V158.622H41.8321V165.518Z" fill="#690A0D"/>
<path d="M41.8321 186.207H48.7291L48.7291 179.311H41.832L41.8321 186.207Z" fill="#914282"/>
<path d="M41.832 179.311H48.7291L48.7291 172.414H41.8321L41.832 179.311Z" fill="#231F20"/>
<path d="M41.8321 172.414H48.7291V165.52H41.8321V172.414Z" fill="#E7E3E2"/>
<path d="M41.8321 124.137H48.7291V117.242H41.8321V124.137Z" fill="#231F20"/>
<path d="M124.59 6.89703H131.485V0H124.59V6.89703Z" fill="#231F20"/>
<path d="M145.277 6.89703H152.174V0H145.277V6.89703Z" fill="#231F20"/>
<path d="M117.691 6.89703H124.588V0H117.691V6.89703Z" fill="#231F20"/>
<path d="M138.383 6.89703H145.28V0H138.383V6.89703Z" fill="#231F20"/>
<path d="M131.484 6.89703H138.381V0H131.484V6.89703Z" fill="#231F20"/>
<path d="M41.8321 117.242H48.7291L48.7291 110.346H41.832L41.8321 117.242Z" fill="#C971BF"/>
<path d="M165.969 6.89703H172.866V0H165.969V6.89703Z" fill="#231F20"/>
<path d="M193.555 6.89703H200.45V0H193.555V6.89703Z" fill="#231F20"/>
<path d="M200.45 6.89703H207.345V0H200.45V6.89703Z" fill="#231F20"/>
<path d="M186.656 6.89703H193.553V0H186.656V6.89703Z" fill="#231F20"/>
<path d="M152.176 6.89703H159.071V0H152.176V6.89703Z" fill="#231F20"/>
<path d="M207.348 6.89703H214.245V0H207.348V6.89703Z" fill="#231F20"/>
<path d="M159.071 6.89703H165.967V0H159.071V6.89703Z" fill="#231F20"/>
<path d="M179.762 6.89703H186.656V0H179.762V6.89703Z" fill="#231F20"/>
<path d="M172.863 6.89703H179.76V0H172.863V6.89703Z" fill="#231F20"/>
<path d="M110.793 6.89703H117.69V0H110.793V6.89703Z" fill="#231F20"/>
<path d="M41.832 75.8619H48.7291V68.9648H41.832V75.8619Z" fill="#B35BA5"/>
<path d="M41.832 68.9648H48.7291L48.7291 62.0703H41.8321L41.832 68.9648Z" fill="#B35BA5"/>
<path d="M41.8321 82.7584H48.7291L48.7291 75.8619H41.832L41.8321 82.7584Z" fill="#B35BA5"/>
<path d="M41.8321 48.2762H48.7291V41.3809H41.8321V48.2762Z" fill="#231F20"/>
<path d="M41.8321 62.0689H48.7291V55.1719H41.8321V62.0689Z" fill="#C971BF"/>
<path d="M41.8321 55.1719H48.7291V48.2762H41.8321V55.1719Z" fill="#231F20"/>
<path d="M41.832 110.346H48.7291L48.7291 103.449H41.8321L41.832 110.346Z" fill="#231F20"/>
<path d="M41.8321 89.6568H48.7291V82.7598H41.8321V89.6568Z" fill="#B35BA5"/>
<path d="M41.8321 103.448H48.7291V96.5508H41.8321V103.448Z" fill="#B35BA5"/>
<path d="M41.8321 96.5508H48.7291L48.7291 89.6543H41.832L41.8321 96.5508Z" fill="#B35BA5"/>
<path d="M41.8321 34.483H48.7291V27.5859H41.8321V34.483Z" fill="#B35BA5"/>
<path d="M41.8321 41.3797H48.7291V34.4844H41.8321V41.3797Z" fill="#914282"/>
<path d="M41.8321 27.5859H48.7291L48.7291 20.6895H41.832L41.8321 27.5859Z" fill="#C971BF"/>
<path d="M41.8321 20.6883H48.7291V13.793H41.8321V20.6883Z" fill="#231F20"/>
<path d="M214.242 6.89703H221.139V0H214.242V6.89703Z" fill="#231F20"/>
<path d="M34.9337 131.036H41.8307V124.139H34.9337V131.036Z" fill="#231F20"/>
<path d="M34.9337 103.448H41.8307V96.5508H34.9337V103.448Z" fill="#B35BA5"/>
<path d="M34.9337 96.5508H41.8307L41.8306 89.6543H34.9336L34.9337 96.5508Z" fill="#B35BA5"/>
<path d="M34.9337 82.7584H41.8307V75.8613H34.9337V82.7584Z" fill="#B35BA5"/>
<path d="M34.9337 75.8613H41.8307L41.8306 68.9648H34.9336L34.9337 75.8613Z" fill="#B35BA5"/>
<path d="M34.9336 117.243H41.8306V110.346H34.9336V117.243Z" fill="#C971BF"/>
<path d="M34.9336 137.932H41.8306L41.8307 131.036H34.9337L34.9336 137.932Z" fill="#914282"/>
<path d="M34.9337 124.137H41.8307L41.8306 117.243H34.9336L34.9337 124.137Z" fill="#231F20"/>
<path d="M34.9337 89.6568H41.8307V82.7598H34.9337V89.6568Z" fill="#B35BA5"/>
<path d="M34.9336 27.5865H41.8306V20.6895H34.9336V27.5865Z" fill="#231F20"/>
<path d="M34.9337 34.483H41.8307L41.8306 27.5865H34.9336L34.9337 34.483Z" fill="#231F20"/>
<path d="M34.9336 68.9648H41.8306L41.8307 62.0703H34.9337L34.9336 68.9648Z" fill="#C971BF"/>
<path d="M34.9337 41.3797H41.8307V34.4844H34.9337V41.3797Z" fill="#231F20"/>
<path d="M34.9337 62.0689H41.8307V55.1719H34.9337V62.0689Z" fill="#231F20"/>
<path d="M34.9336 110.346H41.8306L41.8307 103.449H34.9337L34.9336 110.346Z" fill="#231F20"/>
<path d="M248.727 117.243H255.624V110.346H248.727V117.243Z" fill="#B35BA5"/>
<path d="M248.727 75.8621H255.624V68.9651H248.727V75.8621Z" fill="#B35BA5"/>
<path d="M248.727 110.346H255.624L255.624 103.449H248.727L248.727 110.346Z" fill="#B35BA5"/>
<path d="M248.727 131.036H255.624V124.139H248.727V131.036Z" fill="#B35BA5"/>
<path d="M248.727 137.932H255.624L255.624 131.036H248.727L248.727 137.932Z" fill="#B35BA5"/>
<path d="M248.727 124.137H255.624L255.624 117.243H248.727L248.727 124.137Z" fill="#B35BA5"/>
<path d="M248.727 89.6568H255.624V82.7598H248.727V89.6568Z" fill="#B35BA5"/>
<path d="M248.727 82.7584H255.624L255.624 75.8621H248.727L248.727 82.7584Z" fill="#B35BA5"/>
<path d="M248.727 103.448H255.624V96.5508H248.727V103.448Z" fill="#B35BA5"/>
<path d="M248.727 96.5508H255.624L255.624 89.6545H248.727L248.727 96.5508Z" fill="#B35BA5"/>
<path d="M248.727 144.827H255.624V137.932H248.727V144.827Z" fill="#B35BA5"/>
<path d="M248.727 193.104H255.624V186.207H248.727V193.104Z" fill="#231F20"/>
<path d="M248.727 200.001H255.624V193.105H248.727V200.001Z" fill="#231F20"/>
<path d="M248.727 186.207H255.624L255.624 179.311H248.727L248.727 186.207Z" fill="#231F20"/>
<path d="M248.727 179.311H255.624L255.624 172.414H248.727L248.727 179.311Z" fill="#6D2B5F"/>
<path d="M248.727 165.518H255.624V158.621H248.727V165.518Z" fill="#B35BA5"/>
<path d="M248.727 158.621H255.624V151.725H248.727V158.621Z" fill="#B35BA5"/>
<path d="M248.727 151.725H255.624V144.828H248.727V151.725Z" fill="#B35BA5"/>
<path d="M248.727 172.413H255.624V165.518H248.727V172.413Z" fill="#231F20"/>
<path d="M248.727 41.3797H255.624V34.4844H248.727V41.3797Z" fill="#B35BA5"/>
<path d="M248.727 55.1724H255.624V48.2754H248.727V55.1724Z" fill="#B35BA5"/>
<path d="M248.727 48.2754H255.624V41.3809H248.727V48.2754Z" fill="#B35BA5"/>
<path d="M248.727 62.0689H255.624V55.1724H248.727V62.0689Z" fill="#B35BA5"/>
<path d="M248.727 68.9651H255.624L255.624 62.0703H248.727L248.727 68.9651Z" fill="#B35BA5"/>
<path d="M248.727 20.6902H255.624V13.7949H248.727V20.6902Z" fill="#C971BF"/>
<path d="M248.727 13.7918H255.624V6.89648H248.727V13.7918Z" fill="#231F20"/>
<path d="M248.727 27.5863H255.624L255.624 20.6902H248.727L248.727 27.5863Z" fill="#B35BA5"/>
<path d="M248.727 34.483H255.624L255.624 27.5863H248.727L248.727 34.483Z" fill="#984589"/>
<path d="M172.863 200.001H179.76V193.105H172.863V200.001Z" fill="#231F20"/>
<path d="M207.348 13.7918H214.245L214.245 6.89703H207.348L207.348 13.7918Z" fill="#C971BF"/>
<path d="M214.242 13.7918H221.139L221.139 6.89703H214.242L214.242 13.7918Z" fill="#C971BF"/>
<path d="M165.969 13.7918H172.866L172.866 6.89703H165.969L165.969 13.7918Z" fill="#C971BF"/>
<path d="M221.141 13.7918H228.038V6.89648H221.141V13.7918Z" fill="#C971BF"/>
<path d="M200.449 13.7918H207.345L207.345 6.89703H200.45L200.449 13.7918Z" fill="#C971BF"/>
<path d="M179.762 13.7918H186.657V6.89648L179.762 6.89703L179.762 13.7918Z" fill="#C971BF"/>
<path d="M234.934 13.7918H241.831V6.89648H234.934V13.7918Z" fill="#C971BF"/>
<path d="M193.555 13.7918H200.449L200.45 6.89703H193.555L193.555 13.7918Z" fill="#C971BF"/>
<path d="M172.863 13.7918H179.76L179.76 6.89703H172.863L172.863 13.7918Z" fill="#C971BF"/>
<path d="M186.657 13.7918H193.553L193.553 6.89703L186.657 6.89648V13.7918Z" fill="#C971BF"/>
<path d="M228.035 13.7918H234.931V6.89648H228.035V13.7918Z" fill="#C971BF"/>
<path d="M234.934 62.0689H241.831V55.1719H234.934V62.0689Z" fill="#B35BA5"/>
<path d="M234.934 55.1719H241.831V48.2754H234.934V55.1719Z" fill="#B35BA5"/>
<path d="M234.934 68.9656H241.831V62.0703H234.934V68.9656Z" fill="#B35BA5"/>
<path d="M234.934 82.7584H241.831V75.8613H234.934V82.7584Z" fill="#B35BA5"/>
<path d="M234.934 75.8613H241.831V68.9656H234.934V75.8613Z" fill="#B35BA5"/>
<path d="M234.934 41.3797H241.831V34.4844H234.934V41.3797Z" fill="#B35BA5"/>
<path d="M48.7267 41.3797H55.622V34.4844H48.7267V41.3797Z" fill="#B35BA5"/>
<path d="M234.934 34.483H241.831V27.5859H234.934V34.483Z" fill="#B35BA5"/>
<path d="M234.934 27.5859H241.831L241.831 20.6895H234.934L234.934 27.5859Z" fill="#B35BA5"/>
<path d="M234.934 20.6883H241.831V13.793H234.934V20.6883Z" fill="#B35BA5"/>
<path d="M103.899 13.7918H110.794V6.89648H103.899V13.7918Z" fill="#231F20"/>
<path d="M159.07 13.7918H165.967L165.967 6.89703L159.07 6.89648V13.7918Z" fill="#C971BF"/>
<path d="M221.141 6.89648H228.038L228.038 0H221.141L221.141 6.89648Z" fill="#231F20"/>
<path d="M48.7266 27.5865H55.6219V20.6895H48.7266V27.5865Z" fill="#231F20"/>
<path d="M138.383 13.7918H145.28L145.28 6.89703H138.383L138.383 13.7918Z" fill="#C971BF"/>
<path d="M131.484 13.7918H138.381L138.381 6.89703H131.484L131.484 13.7918Z" fill="#C971BF"/>
<path d="M145.277 13.7918H152.174L152.174 6.89703H145.277L145.277 13.7918Z" fill="#C971BF"/>
<path d="M152.176 13.7918H159.07L159.071 6.89703H152.176L152.176 13.7918Z" fill="#C971BF"/>
<path d="M234.934 89.6568H241.831V82.7598H234.934V89.6568Z" fill="#B35BA5"/>
<path d="M110.794 13.7918H117.69L117.69 6.89703L110.794 6.89648V13.7918Z" fill="#C971BF"/>
<path d="M97.004 13.7918H103.901V6.89648H97.004V13.7918Z" fill="#231F20"/>
<path d="M124.59 13.7918H131.485L131.485 6.89703H124.59L124.59 13.7918Z" fill="#C971BF"/>
<path d="M117.691 13.7918H124.589L124.588 6.89703H117.691L117.691 13.7918Z" fill="#C971BF"/>
<path d="M234.934 48.2754H241.831V41.3809H234.934V48.2754Z" fill="#B35BA5"/>
<path d="M145.277 200.001H152.174V193.105H145.277V200.001Z" fill="#231F20"/>
<path d="M152.176 200.001H159.071V193.105H152.176V200.001Z" fill="#231F20"/>
<path d="M117.691 200.001H124.589V193.105H117.691V200.001Z" fill="#231F20"/>
<path d="M124.59 200.001H131.485V193.105H124.59V200.001Z" fill="#231F20"/>
<path d="M179.762 200.001H186.657V193.105H179.762V200.001Z" fill="#231F20"/>
<path d="M159.071 200.001H165.967V193.105H159.071V200.001Z" fill="#231F20"/>
<path d="M165.969 200.001H172.866V193.105H165.969V200.001Z" fill="#231F20"/>
<path d="M131.484 200.001H138.381V193.105H131.484V200.001Z" fill="#231F20"/>
<path d="M110.793 200.001H117.69V193.105H110.793V200.001Z" fill="#231F20"/>
<path d="M34.9336 144.827H41.8306V137.932H34.9336V144.827Z" fill="#B35BA5"/>
<path d="M103.899 200.001H110.793V193.105H103.899V200.001Z" fill="#231F20"/>
<path d="M234.934 193.104H241.831V186.207H234.934V193.104Z" fill="#914282"/>
<path d="M234.934 137.932H241.831V131.035H234.934V137.932Z" fill="#B35BA5"/>
<path d="M234.934 144.827H241.831V137.932H234.934V144.827Z" fill="#B35BA5"/>
<path d="M234.934 158.622H241.831V151.725H234.934V158.622Z" fill="#914282"/>
<path d="M234.934 165.518H241.831V158.622H234.934V165.518Z" fill="#6D2B5F"/>
<path d="M234.934 151.725H241.831V144.828H234.934V151.725Z" fill="#B35BA5"/>
<path d="M234.934 103.448H241.831V96.5508H234.934V103.448Z" fill="#B35BA5"/>
<path d="M234.934 110.346H241.831V103.449H234.934V110.346Z" fill="#B35BA5"/>
<path d="M234.934 124.137H241.831V117.242H234.934V124.137Z" fill="#B35BA5"/>
<path d="M234.934 117.242H241.831V110.346H234.934V117.242Z" fill="#B35BA5"/>
<path d="M234.934 131.035H241.831L241.831 124.139H234.934L234.934 131.035Z" fill="#B35BA5"/>
<path d="M221.141 200.001H228.038V193.105H221.141V200.001Z" fill="#231F20"/>
<path d="M228.035 200.001H234.931V193.105H228.035V200.001Z" fill="#231F20"/>
<path d="M234.934 172.415H241.831V165.52H234.934V172.415Z" fill="#231F20"/>
<path d="M234.934 186.207H241.831L241.831 179.311H234.934L234.934 186.207Z" fill="#914282"/>
<path d="M234.934 179.311H241.831L241.831 172.415H234.934L234.934 179.311Z" fill="#6D2B5F"/>
<path d="M234.934 96.5508H241.831L241.831 89.6543H234.934L234.934 96.5508Z" fill="#B35BA5"/>
<path d="M234.934 200.001H241.831V193.105H234.934V200.001Z" fill="#231F20"/>
<path d="M48.7267 34.483H55.622L55.6219 27.5865H48.7266L48.7267 34.483Z" fill="#C971BF"/>
<path d="M241.828 179.311H248.725V172.414H241.828V179.311Z" fill="#6D2B5F"/>
<path d="M241.828 172.414H248.725V165.52H241.828V172.414Z" fill="#552146"/>
<path d="M241.828 193.104H248.725V186.207H241.828V193.104Z" fill="#914282"/>
<path d="M241.828 186.207H248.725V179.311H241.828V186.207Z" fill="#914282"/>
<path d="M241.828 200.001H248.725V193.105H241.828V200.001Z" fill="#231F20"/>
<path d="M241.828 165.518H248.725V158.621H241.828V165.518Z" fill="#231F20"/>
<path d="M241.828 144.827H248.725V137.932H241.828V144.827Z" fill="#B35BA5"/>
<path d="M241.828 137.932H248.725V131.035H241.828V137.932Z" fill="#B35BA5"/>
<path d="M48.7267 48.2762H55.622V41.3809H48.7267V48.2762Z" fill="#B35BA5"/>
<path d="M241.828 131.035H248.725L248.725 124.139H241.828L241.828 131.035Z" fill="#B35BA5"/>
<path d="M241.828 158.621H248.725V151.725H241.828V158.621Z" fill="#B35BA5"/>
<path d="M241.828 20.6883H248.725V13.793H241.828V20.6883Z" fill="#B35BA5"/>
<path d="M241.828 34.483H248.725V27.5859H241.828V34.483Z" fill="#B35BA5"/>
<path d="M241.828 27.5859H248.725L248.725 20.6895H241.828L241.828 27.5859Z" fill="#B35BA5"/>
<path d="M241.828 41.3797H248.725V34.4844H241.828V41.3797Z" fill="#B35BA5"/>
<path d="M241.828 48.2762H248.725V41.3809H241.828V48.2762Z" fill="#B35BA5"/>
<path d="M228.035 6.89648H234.931L234.93 0H228.035L228.035 6.89648Z" fill="#231F20"/>
<path d="M241.828 55.1724H248.725V48.2762H241.828V55.1724Z" fill="#B35BA5"/>
<path d="M234.934 6.89648H241.831L241.831 0H234.934L234.934 6.89648Z" fill="#231F20"/>
<path d="M241.828 13.7918H248.725V6.89648H241.828V13.7918Z" fill="#231F20"/>
<path d="M241.828 82.7584H248.725V75.8613H241.828V82.7584Z" fill="#B35BA5"/>
<path d="M241.828 96.5513H248.725V89.6543H241.828V96.5513Z" fill="#B35BA5"/>
<path d="M241.828 110.346H248.725V103.449H241.828V110.346Z" fill="#B35BA5"/>
<path d="M241.828 62.0689H248.725V55.1724H241.828V62.0689Z" fill="#B35BA5"/>
<path d="M241.828 117.243H248.725L248.725 110.346H241.828L241.828 117.243Z" fill="#B35BA5"/>
<path d="M241.828 103.448H248.725L248.725 96.5513H241.828L241.828 103.448Z" fill="#B35BA5"/>
<path d="M241.828 68.9656H248.725V62.0703H241.828V68.9656Z" fill="#B35BA5"/>
<path d="M241.828 75.8613H248.725V68.9656H241.828V75.8613Z" fill="#B35BA5"/>
<path d="M241.828 124.137H248.725L248.725 117.243H241.828L241.828 124.137Z" fill="#B35BA5"/>
<path d="M241.828 89.6568H248.725V82.7598H241.828V89.6568Z" fill="#B35BA5"/>
<path d="M241.828 151.725H248.725V144.828H241.828V151.725Z" fill="#B35BA5"/>
<path d="M48.7266 144.827H55.6219V137.932H48.7266V144.827Z" fill="#B35BA5"/>
<path d="M48.7266 137.932H55.6219V131.035H48.7266V137.932Z" fill="#B35BA5"/>
<path d="M48.7267 124.137H55.622V117.242H48.7267V124.137Z" fill="#B35BA5"/>
<path d="M48.7267 151.725H55.622V144.828H48.7267V151.725Z" fill="#231F20"/>
<path d="M48.7266 131.035H55.6219L55.622 124.139H48.7267L48.7266 131.035Z" fill="#B35BA5"/>
<path d="M48.7267 158.622H55.622V151.725H48.7267V158.622Z" fill="#690A0D"/>
<path d="M48.7267 117.242H55.622L55.6219 110.346H48.7266L48.7267 117.242Z" fill="#C971BF"/>
<path d="M48.7267 172.415H55.622V165.52H48.7267V172.415Z" fill="#E7E3E2"/>
<path d="M48.7267 179.311H55.622V172.415H48.7267V179.311Z" fill="#231F20"/>
<path d="M48.7267 165.518H55.622V158.622H48.7267V165.518Z" fill="#690A0D"/>
<path d="M48.7267 62.0689H55.622V55.1719H48.7267V62.0689Z" fill="#B35BA5"/>
<path d="M48.7266 186.208H55.6219L55.622 179.311H48.7267L48.7266 186.208Z" fill="#914282"/>
<path d="M48.7267 68.9656H55.622V62.0703H48.7267V68.9656Z" fill="#B35BA5"/>
<path d="M48.7266 75.8619H55.6219L55.622 68.9656H48.7267L48.7266 75.8619Z" fill="#B35BA5"/>
<path d="M48.7267 55.1719H55.622V48.2762H48.7267V55.1719Z" fill="#C971BF"/>
<path d="M48.7267 82.7584H55.622L55.6219 75.8619H48.7266L48.7267 82.7584Z" fill="#B35BA5"/>
<path d="M48.7266 96.5513H55.6219V89.6543H48.7266V96.5513Z" fill="#C971BF"/>
<path d="M48.7267 103.448H55.622L55.6219 96.5513H48.7266L48.7267 103.448Z" fill="#B35BA5"/>
<path d="M48.7266 110.346H55.6219L55.622 103.449H48.7267L48.7266 110.346Z" fill="#231F20"/>
<path d="M48.7267 89.6568H55.622V82.7598H48.7267V89.6568Z" fill="#B35BA5"/>
<path d="M48.7267 193.104H55.622L55.6219 186.208H48.7266L48.7267 193.104Z" fill="#231F20"/>
<path d="M262.52 186.208H269.417V179.311H262.52V186.208Z" fill="#231F20"/>
<path d="M262.52 179.311H269.417L269.417 172.414H262.52L262.52 179.311Z" fill="#B35BA5"/>
<path d="M262.52 200.001H269.417V193.105H262.52V200.001Z" fill="#231F20"/>
<path d="M262.52 137.932H269.417V131.035H262.52V137.932Z" fill="#B35BA5"/>
<path d="M262.52 172.414H269.417V165.52H262.52V172.414Z" fill="#B35BA5"/>
<path d="M262.52 158.622H269.417V151.725H262.52V158.622Z" fill="#B35BA5"/>
<path d="M262.52 144.827H269.417V137.932H262.52V144.827Z" fill="#B35BA5"/>
<path d="M262.52 151.725H269.417V144.828H262.52V151.725Z" fill="#B35BA5"/>
<path d="M262.52 165.518H269.417V158.622H262.52V165.518Z" fill="#B35BA5"/>
<path d="M262.52 193.104H269.417L269.417 186.208H262.52L262.52 193.104Z" fill="#231F20"/>
<path d="M262.52 41.3797H269.417V34.4844H262.52V41.3797Z" fill="#B35BA5"/>
<path d="M262.52 34.483H269.417V27.5859H262.52V34.483Z" fill="#B35BA5"/>
<path d="M262.52 55.1724H269.417V48.2754H262.52V55.1724Z" fill="#B35BA5"/>
<path d="M262.52 27.5859H269.417L269.417 20.6895H262.52L262.52 27.5859Z" fill="#C971BF"/>
<path d="M262.52 48.2754H269.417V41.3809H262.52V48.2754Z" fill="#B35BA5"/>
<path d="M262.52 131.035H269.417L269.417 124.139H262.52L262.52 131.035Z" fill="#B35BA5"/>
<path d="M262.52 62.0689H269.417V55.1724H262.52V62.0689Z" fill="#B35BA5"/>
<path d="M262.52 20.6883H269.417V13.793H262.52V20.6883Z" fill="#231F20"/>
<path d="M262.52 117.243H269.417V110.346H262.52V117.243Z" fill="#B35BA5"/>
<path d="M262.52 110.346H269.417L269.417 103.449H262.52L262.52 110.346Z" fill="#B35BA5"/>
<path d="M262.52 124.137H269.417L269.417 117.243H262.52L262.52 124.137Z" fill="#B35BA5"/>
<path d="M262.52 103.448H269.417V96.5508H262.52V103.448Z" fill="#B35BA5"/>
<path d="M262.52 89.6568H269.417V82.7598H262.52V89.6568Z" fill="#B35BA5"/>
<path d="M262.52 75.8619H269.417V68.9648H262.52V75.8619Z" fill="#B35BA5"/>
<path d="M262.52 82.7584H269.417L269.417 75.8619H262.52L262.52 82.7584Z" fill="#B35BA5"/>
<path d="M262.52 68.9648H269.417L269.417 62.0703H262.52L262.52 68.9648Z" fill="#B35BA5"/>
<path d="M262.52 96.5508H269.417L269.417 89.6543H262.52L262.52 96.5508Z" fill="#B35BA5"/>
<path d="M21.1406 186.208H28.0377V179.311H21.1406V186.208Z" fill="#231F20"/>
<path d="M62.5196 193.104H69.4166V186.207H62.5196V193.104Z" fill="#231F20"/>
<path d="M269.418 144.827H276.315V137.932H269.418V144.827Z" fill="#B35BA5"/>
<path d="M269.418 151.725H276.315V144.828H269.418V151.725Z" fill="#B35BA5"/>
<path d="M269.418 137.932H276.315V131.035H269.418V137.932Z" fill="#984589"/>
<path d="M269.418 165.518H276.315V158.621H269.418V165.518Z" fill="#B35BA5"/>
<path d="M269.418 172.415H276.315V165.52H269.418V172.415Z" fill="#B35BA5"/>
<path d="M269.418 158.621H276.315V151.725H269.418V158.621Z" fill="#B35BA5"/>
<path d="M269.418 110.346H276.315V103.449H269.418V110.346Z" fill="#B35BA5"/>
<path d="M269.418 131.035H276.315L276.315 124.139H269.418L269.418 131.035Z" fill="#B35BA5"/>
<path d="M269.418 117.243H276.315L276.315 110.346H269.418L269.418 117.243Z" fill="#B35BA5"/>
<path d="M269.418 124.137H276.315L276.315 117.243H269.418L269.418 124.137Z" fill="#B35BA5"/>
<path d="M269.418 186.208H276.315V179.311H269.418V186.208Z" fill="#B35BA5"/>
<path d="M269.418 193.104H276.315L276.315 186.208H269.418L269.418 193.104Z" fill="white"/>
<path d="M269.418 179.311H276.315L276.315 172.415H269.418L269.418 179.311Z" fill="#6D2B5F"/>
<path d="M269.418 200.001H276.315V193.105H269.418V200.001Z" fill="#231F20"/>
<path d="M21.1407 131.036H28.0377V124.139H21.1407V131.036Z" fill="#B35BA5"/>
<path d="M21.1406 137.932H28.0377L28.0377 131.036H21.1407L21.1406 137.932Z" fill="#B35BA5"/>
<path d="M21.1407 110.346H28.0377V103.449H21.1407V110.346Z" fill="#B35BA5"/>
<path d="M21.1406 179.311H28.0377L28.0377 172.414H21.1407L21.1406 179.311Z" fill="#914282"/>
<path d="M21.1406 144.827H28.0377V137.932H21.1406V144.827Z" fill="#B35BA5"/>
<path d="M21.1407 124.137H28.0377V117.242H21.1407V124.137Z" fill="#231F20"/>
<path d="M21.1407 165.518H28.0377V158.621H21.1407V165.518Z" fill="#914282"/>
<path d="M21.1407 151.725H28.0377V144.828H21.1407V151.725Z" fill="#231F20"/>
<path d="M21.1407 172.414H28.0377V165.52H21.1407V172.414Z" fill="#B35BA5"/>
<path d="M21.1407 158.621H28.0377V151.725H21.1407V158.621Z" fill="#231F20"/>
<path d="M21.1407 117.242H28.0377V110.346H21.1407V117.242Z" fill="#231F20"/>
<path d="M21.1407 103.448H28.0377V96.5508H21.1407V103.448Z" fill="#B35BA5"/>
<path d="M21.1407 89.6568H28.0377V82.7598H21.1407V89.6568Z" fill="#231F20"/>
<path d="M21.1407 96.5508H28.0377L28.0377 89.6543H21.1406L21.1407 96.5508Z" fill="#C971BF"/>
<path d="M21.1407 82.7584H28.0377V75.8613H21.1407V82.7584Z" fill="#231F20"/>
<path d="M255.625 117.243H262.52V110.346H255.625V117.243Z" fill="#B35BA5"/>
<path d="M255.625 124.137H262.52L262.52 117.242L255.625 117.243L255.625 124.137Z" fill="#B35BA5"/>
<path d="M255.625 110.346L262.52 110.346L262.52 103.449H255.625L255.625 110.346Z" fill="#B35BA5"/>
<path d="M255.625 131.036H262.52L262.52 124.139H255.625V131.036Z" fill="#B35BA5"/>
<path d="M255.625 137.932H262.52V131.035L255.625 131.036L255.625 137.932Z" fill="#B35BA5"/>
<path d="M255.625 89.6568H262.52V82.7598H255.625V89.6568Z" fill="#B35BA5"/>
<path d="M255.625 75.8619H262.52V68.9648H255.625V75.8619Z" fill="#B35BA5"/>
<path d="M255.625 144.827H262.52V137.932H255.625V144.827Z" fill="#B35BA5"/>
<path d="M255.625 96.5513L262.52 96.5508L262.52 89.6543H255.625V96.5513Z" fill="#B35BA5"/>
<path d="M255.625 103.448H262.52V96.5508L255.625 96.5513L255.625 103.448Z" fill="#B35BA5"/>
<path d="M255.625 82.7584H262.52L262.52 75.8613L255.625 75.8619L255.625 82.7584Z" fill="#B35BA5"/>
<path d="M255.625 151.725L262.52 151.725V144.828H255.625V151.725Z" fill="#B35BA5"/>
<path d="M255.625 179.311H262.52L262.52 172.414H255.625V179.311Z" fill="#231F20"/>
<path d="M255.625 158.622H262.52V151.725L255.625 151.725V158.622Z" fill="#B35BA5"/>
<path d="M255.625 165.518H262.52V158.622H255.625V165.518Z" fill="#B35BA5"/>
<path d="M255.625 172.414L262.52 172.415L262.52 165.52H255.625V172.414Z" fill="#B35BA5"/>
<path d="M255.625 20.6883H262.52V13.793H255.625V20.6883Z" fill="#231F20"/>
<path d="M255.625 41.3797H262.52V34.4844H255.625V41.3797Z" fill="#B35BA5"/>
<path d="M255.625 55.1724H262.52V48.2754H255.625V55.1724Z" fill="#B35BA5"/>
<path d="M255.625 48.2754L262.52 48.2762L262.52 41.3809H255.625V48.2754Z" fill="#B35BA5"/>
<path d="M255.625 62.0689H262.52V55.1724H255.625V62.0689Z" fill="#B35BA5"/>
<path d="M255.625 34.483H262.52V27.5859H255.625V34.483Z" fill="#B35BA5"/>
<path d="M255.625 68.9648L262.52 68.9656L262.52 62.0703H255.625L255.625 68.9648Z" fill="#B35BA5"/>
<path d="M255.625 27.5859H262.52L262.52 20.6895H255.625L255.625 27.5859Z" fill="#B35BA5"/>
<path d="M34.9337 165.518H41.8307V158.621H34.9337V165.518Z" fill="#690A0D"/>
<path d="M34.9337 172.415H41.8307V165.52H34.9337V172.415Z" fill="#690A0D"/>
<path d="M34.9337 179.311H41.8307V172.415H34.9337V179.311Z" fill="#231F20"/>
<path d="M34.9337 158.621H41.8307V151.725H34.9337V158.621Z" fill="white"/>
<path d="M34.9336 186.208H41.8306L41.8307 179.311H34.9337L34.9336 186.208Z" fill="#914282"/>
<path d="M34.9337 193.104H41.8307L41.8306 186.208H34.9336L34.9337 193.104Z" fill="#231F20"/>
<path d="M28.0392 193.104H34.9337L34.9345 186.207H28.0392V193.104Z" fill="#231F20"/>
<path d="M28.0392 172.415H34.9337V165.52H28.0392V172.415Z" fill="#231F20"/>
<path d="M28.0391 137.932H34.9336L34.9337 131.036L28.0391 131.035V137.932Z" fill="#B35BA5"/>
<path d="M28.0392 151.725L34.9337 151.725L34.9345 144.828H28.0392V151.725Z" fill="#231F20"/>
<path d="M28.0391 144.827H34.9336V137.932H28.0391V144.827Z" fill="#B35BA5"/>
<path d="M28.0391 131.035L34.9337 131.036V124.139H28.0392L28.0391 131.035Z" fill="#B35BA5"/>
<path d="M28.0392 179.311H34.9337L34.9345 172.414L28.0392 172.415V179.311Z" fill="#914282"/>
<path d="M28.0392 158.622L34.9337 158.621V151.725L28.0392 151.725V158.622Z" fill="white"/>
<path d="M28.0392 186.207L34.9336 186.208L34.9337 179.311H28.0392V186.207Z" fill="#914282"/>
<path d="M28.0392 165.518H34.9337V158.621L28.0392 158.622V165.518Z" fill="#690A0D"/>
<path d="M34.9337 151.725H41.8307V144.828H34.9345L34.9337 151.725Z" fill="#231F20"/>
<path d="M28.0392 124.137H34.9337L34.9345 117.242H28.0392V124.137Z" fill="#B35BA5"/>
<path d="M28.0392 68.9656H34.9345L34.9337 62.0703H28.0392V68.9656Z" fill="#231F20"/>
<path d="M28.0392 82.7584H34.9337V75.8613H28.0392V82.7584Z" fill="#C971BF"/>
<path d="M28.0392 117.242L34.9336 117.243V110.346H28.0391L28.0392 117.242Z" fill="#C971BF"/>
<path d="M28.0392 89.6568H34.9337V82.7598H28.0392V89.6568Z" fill="#B35BA5"/>
<path d="M28.0391 110.346L34.9345 110.346L34.9337 103.449H28.0392L28.0391 110.346Z" fill="#231F20"/>
<path d="M28.0392 103.448H34.9337V96.5508H28.0392V103.448Z" fill="#B35BA5"/>
<path d="M28.0392 96.5508H34.9337L34.9336 89.6543H28.0391L28.0392 96.5508Z" fill="#B35BA5"/>
<path d="M28.0392 75.8613H34.9337L34.9345 68.9656H28.0392V75.8613Z" fill="#231F20"/>
<path d="M145.277 137.932H152.174V131.035H145.277V137.932Z" fill="#B35BA5"/>
<path d="M193.555 75.8619H200.45V68.9648H193.555V75.8619Z" fill="#B35BA5"/>
<path d="M193.555 55.1724H200.45V48.2754H193.555V55.1724Z" fill="#B35BA5"/>
<path d="M179.762 55.1724H186.657V48.2754H179.762V55.1724Z" fill="#B35BA5"/>
<path d="M193.555 62.0689H200.45V55.1724H193.555V62.0689Z" fill="#B35BA5"/>
<path d="M193.555 68.9648H200.45L200.45 62.0703H193.555L193.555 68.9648Z" fill="#B35BA5"/>
<path d="M186.657 55.1724H193.553V48.2754H186.657V55.1724Z" fill="#B35BA5"/>
<path d="M152.176 55.1724H159.071V48.2754H152.176V55.1724Z" fill="#B35BA5"/>
<path d="M172.863 55.1724H179.76V48.2754H172.863V55.1724Z" fill="#B35BA5"/>
<path d="M159.074 55.1724H165.971V48.2754H159.074V55.1724Z" fill="#B35BA5"/>
<path d="M186.656 62.0689H193.553V55.1724H186.657L186.656 62.0689Z" fill="#B35BA5"/>
<path d="M193.555 96.5513H200.45V89.6543H193.555V96.5513Z" fill="#B35BA5"/>
<path d="M193.555 131.036H200.45V124.139H193.555V131.036Z" fill="#B35BA5"/>
<path d="M193.555 124.137H200.45V117.242H193.555V124.137Z" fill="#B35BA5"/>
<path d="M193.555 82.7584H200.45L200.45 75.8619H193.555L193.555 82.7584Z" fill="#B35BA5"/>
<path d="M193.555 137.932H200.45L200.45 131.036H193.555L193.555 137.932Z" fill="#B35BA5"/>
<path d="M193.555 117.242H200.45L200.45 110.346H193.555L193.555 117.242Z" fill="#B35BA5"/>
<path d="M193.555 144.827H200.45V137.932H193.555V144.827Z" fill="#B35BA5"/>
<path d="M145.277 55.1724H152.174V48.2754H145.277V55.1724Z" fill="#B35BA5"/>
<path d="M193.555 110.346H200.45L200.45 103.449H193.555L193.555 110.346Z" fill="#B35BA5"/>
<path d="M193.555 89.6568H200.45V82.7598H193.555V89.6568Z" fill="#B35BA5"/>
<path d="M193.555 103.448H200.45L200.45 96.5513H193.555L193.555 103.448Z" fill="#B35BA5"/>
<path d="M90.1055 75.8619H97.0025V68.9648H90.1055V75.8619Z" fill="#B35BA5"/>
<path d="M90.1055 96.5513H97.0025V89.6543H90.1055V96.5513Z" fill="#C971BF"/>
<path d="M90.1056 103.448H97.0026L97.0025 96.5513H90.1055L90.1056 103.448Z" fill="#B35BA5"/>
<path d="M90.1056 110.346H97.0026V103.449H90.1056V110.346Z" fill="#231F20"/>
<path d="M90.1056 89.6568H97.0026V82.7598H90.1056V89.6568Z" fill="#B35BA5"/>
<path d="M90.1056 82.7584H97.0026L97.0025 75.8619H90.1055L90.1056 82.7584Z" fill="#B35BA5"/>
<path d="M90.1055 117.243H97.0025L97.0026 110.346H90.1056L90.1055 117.243Z" fill="#C971BF"/>
<path d="M90.1056 131.036H97.0026V124.139H90.1056V131.036Z" fill="#231F20"/>
<path d="M90.1055 137.932H97.0025L97.0026 131.036H90.1056L90.1055 137.932Z" fill="#914282"/>
<path d="M90.1056 124.137H97.0026L97.0025 117.243H90.1055L90.1056 124.137Z" fill="#231F20"/>
<path d="M193.555 151.725H200.45V144.828H193.555V151.725Z" fill="#B35BA5"/>
<path d="M124.59 55.1724H131.485V48.2754H124.59V55.1724Z" fill="#B35BA5"/>
<path d="M138.383 55.1724H145.28V48.2754H138.383V55.1724Z" fill="#B35BA5"/>
<path d="M117.691 55.1724H124.589V48.2754H117.691V55.1724Z" fill="#231F20"/>
<path d="M90.1055 68.9648H97.0025L97.0026 62.0703H90.1056L90.1055 68.9648Z" fill="#B35BA5"/>
<path d="M131.484 55.1724H138.381V48.2754H131.484V55.1724Z" fill="#B35BA5"/>
<path d="M110.793 55.1724H117.69V48.2754H110.793V55.1724Z" fill="#B35BA5"/>
<path d="M90.1056 55.1724H97.0026V48.2754H90.1056V55.1724Z" fill="#B35BA5"/>
<path d="M90.1056 62.0689H97.0026V55.1724H90.1056V62.0689Z" fill="#B35BA5"/>
<path d="M103.899 55.1724H110.793V48.2754H103.899V55.1724Z" fill="#B35BA5"/>
<path d="M97.004 55.1724H103.901V48.2754H97.004V55.1724Z" fill="#B35BA5"/>
<path d="M97.004 151.725H103.901V144.828H97.004V151.725Z" fill="#231F20"/>
<path d="M97.004 68.9656H103.901V62.0703H97.004V68.9656Z" fill="#B35BA5"/>
<path d="M97.004 62.0689H103.901V55.1724H97.004V62.0689Z" fill="#B35BA5"/>
<path d="M110.793 62.0689H117.69V55.1724H110.793V62.0689Z" fill="#B35BA5"/>
<path d="M103.899 62.0689H110.793V55.1724H103.899V62.0689Z" fill="#B35BA5"/>
<path d="M97.0039 75.8619H103.901L103.901 68.9656H97.004L97.0039 75.8619Z" fill="#B35BA5"/>
<path d="M97.004 103.448H103.901V96.5508H97.004V103.448Z" fill="#B35BA5"/>
<path d="M117.691 62.0689H124.589V55.1724H117.691V62.0689Z" fill="#914282"/>
<path d="M97.004 110.346H103.901V103.449H97.004V110.346Z" fill="#231F20"/>
<path d="M97.004 89.6568H103.901V82.7598H97.004V89.6568Z" fill="#B35BA5"/>
<path d="M97.004 82.7584H103.901L103.901 75.8619H97.0039L97.004 82.7584Z" fill="#B35BA5"/>
<path d="M97.004 96.5508H103.901L103.901 89.6543H97.0039L97.004 96.5508Z" fill="#B35BA5"/>
<path d="M159.074 62.0689H165.971V55.1724H159.074V62.0689Z" fill="#B35BA5"/>
<path d="M193.555 158.622H200.45V151.725H193.555V158.622Z" fill="#914282"/>
<path d="M124.59 62.0689H131.485V55.1724H124.59V62.0689Z" fill="#231F20"/>
<path d="M179.762 62.0689H186.656L186.657 55.1724H179.762V62.0689Z" fill="#B35BA5"/>
<path d="M165.969 62.0689H172.866V55.1719H165.969V62.0689Z" fill="#B35BA5"/>
<path d="M152.176 62.0689H159.071V55.1724H152.176V62.0689Z" fill="#B35BA5"/>
<path d="M131.484 62.0689H138.381V55.1724H131.484V62.0689Z" fill="#B35BA5"/>
<path d="M138.383 62.0689H145.28V55.1724H138.383V62.0689Z" fill="#B35BA5"/>
<path d="M145.277 62.0689H152.174V55.1724H145.277V62.0689Z" fill="#B35BA5"/>
<path d="M172.863 62.0689H179.76V55.1724H172.863V62.0689Z" fill="#B35BA5"/>
<path d="M152.176 158.622H159.071V151.725H152.176V158.622Z" fill="#B35BA5"/>
<path d="M159.071 158.622H165.967V151.725H159.071V158.622Z" fill="#B35BA5"/>
<path d="M124.59 158.622H131.485V151.725H124.59V158.622Z" fill="#914282"/>
<path d="M131.484 151.725V158.622H138.381V151.725H131.484Z" fill="#231F20"/>
<path d="M138.383 158.622H145.28V151.725H138.383V158.622Z" fill="#914282"/>
<path d="M97.0039 117.243H103.901L103.901 110.346H97.004L97.0039 117.243Z" fill="#C971BF"/>
<path d="M186.656 158.622H193.553V151.725H186.656V158.622Z" fill="#914282"/>
<path d="M165.969 158.622H172.866V151.725H165.969V158.622Z" fill="#B35BA5"/>
<path d="M179.762 158.622H186.656V151.725H179.762V158.622Z" fill="#B35BA5"/>
<path d="M172.863 158.622H179.76V151.725H172.863V158.622Z" fill="#B35BA5"/>
<path d="M145.277 158.622H152.174V151.725H145.277V158.622Z" fill="#B35BA5"/>
<path d="M97.004 131.036H103.901V124.139H97.004V131.036Z" fill="#B35BA5"/>
<path d="M97.0039 137.932H103.901L103.901 131.036H97.004L97.0039 137.932Z" fill="#B35BA5"/>
<path d="M97.004 124.137H103.901L103.901 117.243H97.0039L97.004 124.137Z" fill="#B35BA5"/>
<path d="M97.0039 144.827H103.901V137.932H97.0039V144.827Z" fill="#B35BA5"/>
<path d="M103.899 158.622H110.794V151.725H103.899V158.622Z" fill="#231F20"/>
<path d="M110.794 158.622H117.69V151.725H110.794V158.622Z" fill="#B35BA5"/>
<path d="M90.1055 144.827H97.0025V137.932H90.1055V144.827Z" fill="#B35BA5"/>
<path d="M117.691 158.622H124.589V151.725H117.691V158.622Z" fill="#B35BA5"/>
<path d="M103.899 151.725H110.794V144.828H103.899V151.725Z" fill="#231F20"/>
<path d="M165.969 55.1719H172.866V48.2754H165.969V55.1719Z" fill="#B35BA5"/>
<path d="M83.207 75.8619H90.1041V68.9648H83.207V75.8619Z" fill="#B35BA5"/>
<path d="M83.2071 48.2762H90.1041V41.3809H83.2071V48.2762Z" fill="#C971BF"/>
<path d="M83.2071 82.7584H90.1041L90.1041 75.8619H83.207L83.2071 82.7584Z" fill="#231F20"/>
<path d="M83.2071 62.0689H90.1041V55.1719H83.2071V62.0689Z" fill="#B35BA5"/>
<path d="M83.2071 55.1719H90.1041V48.2762H83.2071V55.1719Z" fill="#B35BA5"/>
<path d="M83.207 68.9648H90.1041L90.1041 62.0703H83.2071L83.207 68.9648Z" fill="#B35BA5"/>
<path d="M83.2071 89.6568H90.1041V82.7598H83.2071V89.6568Z" fill="#231F20"/>
<path d="M83.211 110.346H90.1081V103.449H83.211V110.346Z" fill="#231F20"/>
<path d="M83.2071 103.448H90.1041V96.5508H83.2071V103.448Z" fill="#B35BA5"/>
<path d="M83.2071 96.5508H90.1041L90.1041 89.6543H83.207L83.2071 96.5508Z" fill="#C971BF"/>
<path d="M145.277 48.2754H152.174V41.3809H145.277V48.2754Z" fill="#B35BA5"/>
<path d="M124.59 48.2754H131.485V41.3809H124.59V48.2754Z" fill="#B35BA5"/>
<path d="M138.383 48.2754H145.28V41.3809H138.383V48.2754Z" fill="#B35BA5"/>
<path d="M131.484 48.2754H138.381V41.3809H131.484V48.2754Z" fill="#B35BA5"/>
<path d="M83.207 117.243H90.1041V110.346H83.207V117.243Z" fill="#C971BF"/>
<path d="M110.793 48.2754H117.69V41.3809H110.793V48.2754Z" fill="#B35BA5"/>
<path d="M103.899 48.2754L110.794 48.2762L110.793 41.3809H103.899V48.2754Z" fill="#B35BA5"/>
<path d="M152.176 48.2754L159.073 48.2762V41.3809H152.176V48.2754Z" fill="#B35BA5"/>
<path d="M117.691 48.2754H124.589V41.3809H117.691V48.2754Z" fill="#231F20"/>
<path d="M90.1056 48.2754H97.0026V41.3809H90.1056V48.2754Z" fill="#C971BF"/>
<path d="M97.004 48.2754H103.901V41.3809H97.004V48.2754Z" fill="#C971BF"/>
<path d="M131.484 165.518V172.413H138.381V165.518H131.484Z" fill="#231F20"/>
<path d="M124.59 172.415H131.485V165.52H124.59V172.415Z" fill="#552146"/>
<path d="M117.691 172.415H124.589V165.52H117.691V172.415Z" fill="#231F20"/>
<path d="M103.899 172.415H110.794V165.52H103.899V172.415Z" fill="#B35BA5"/>
<path d="M110.794 172.415H117.69V165.52H110.794V172.415Z" fill="#914282"/>
<path d="M145.277 172.415H152.174V165.52H145.277V172.415Z" fill="#231F20"/>
<path d="M159.07 172.413H165.967V165.518H159.07V172.413Z" fill="#B35BA5"/>
<path d="M165.969 172.415H172.866V165.52H165.969V172.415Z" fill="#B35BA5"/>
<path d="M152.176 172.415H159.071V165.52H152.176V172.415Z" fill="#B35BA5"/>
<path d="M90.1056 172.415H97.0026V165.52H90.1056V172.415Z" fill="#E7E3E2"/>
<path d="M83.207 144.827H90.1041V137.932H83.207V144.827Z" fill="#B35BA5"/>
<path d="M83.207 137.932H90.1041V131.035H83.207V137.932Z" fill="#914282"/>
<path d="M83.2071 151.725H90.1041V144.828H83.2071V151.725Z" fill="#231F20"/>
<path d="M83.207 131.035H90.1041L90.1041 124.139H83.2071L83.207 131.035Z" fill="#231F20"/>
<path d="M97.004 172.415H103.901V165.52H97.004V172.415Z" fill="#231F20"/>
<path d="M83.2071 158.622H90.1041V151.725H83.2071V158.622Z" fill="white"/>
<path d="M83.2071 124.137H90.1041L90.1041 117.243H83.207L83.2071 124.137Z" fill="#231F20"/>
<path d="M90.1056 165.518H97.0026V158.621H90.1056V165.518Z" fill="#AA1318"/>
<path d="M83.2071 165.518H90.1041V158.622H83.2071V165.518Z" fill="#AA1318"/>
<path d="M186.656 165.518H193.553V158.622H186.656V165.518Z" fill="#231F20"/>
<path d="M145.277 165.518H152.174V158.622H145.277V165.518Z" fill="#914282"/>
<path d="M165.969 165.518H172.866V158.622H165.969V165.518Z" fill="#B35BA5"/>
<path d="M179.762 165.518H186.656V158.622H179.762V165.518Z" fill="#914282"/>
<path d="M152.176 165.518H159.071V158.622H152.176V165.518Z" fill="#B35BA5"/>
<path d="M159.07 165.518H165.967V158.622L159.07 158.621V165.518Z" fill="#B35BA5"/>
<path d="M172.863 165.518H179.76V158.622H172.863V165.518Z" fill="#B35BA5"/>
<path d="M200.449 165.518H207.345V158.621L200.45 158.622L200.449 165.518Z" fill="#914282"/>
<path d="M200.45 158.622L207.345 158.621V151.725L200.45 151.725V158.622Z" fill="#914282"/>
<path d="M193.555 165.518H200.449L200.45 158.622H193.555V165.518Z" fill="#6D2B5F"/>
<path d="M90.1056 151.725H97.0026V144.828H90.1056V151.725Z" fill="#231F20"/>
<path d="M200.45 151.725L207.345 151.725V144.828H200.45V151.725Z" fill="#B35BA5"/>
<path d="M103.899 165.518H110.794V158.622H103.899V165.518Z" fill="#231F20"/>
<path d="M97.004 158.622H103.901V151.725H97.004V158.622Z" fill="#690A0D"/>
<path d="M97.004 165.518H103.901V158.622H97.004V165.518Z" fill="#690A0D"/>
<path d="M90.1056 158.621H97.0026V151.725H90.1056V158.621Z" fill="#690A0D"/>
<path d="M138.383 165.518H145.28V158.622H138.383V165.518Z" fill="#231F20"/>
<path d="M110.794 165.518H117.69V158.622H110.794V165.518Z" fill="#B35BA5"/>
<path d="M131.484 158.622V165.518H138.381V158.622H131.484Z" fill="#914282"/>
<path d="M124.59 165.518H131.485V158.622H124.59V165.518Z" fill="#231F20"/>
<path d="M117.691 165.518H124.589V158.622H117.691V165.518Z" fill="#914282"/>
<path d="M159.07 48.2762H165.967V41.3809H159.07V48.2762Z" fill="#B35BA5"/>
<path d="M200.45 55.1724H207.345V48.2754H200.45V55.1724Z" fill="#B35BA5"/>
<path d="M193.555 48.2754H200.45V41.3809H193.555V48.2754Z" fill="#B35BA5"/>
<path d="M200.449 48.2762L207.345 48.2754V41.3809H200.45L200.449 48.2762Z" fill="#B35BA5"/>
<path d="M200.449 68.9656H207.345V62.0703H200.45L200.449 68.9656Z" fill="#B35BA5"/>
<path d="M200.45 144.827H207.345V137.932L200.45 137.932V144.827Z" fill="#B35BA5"/>
<path d="M165.969 48.2754H172.866V41.3809H165.969V48.2754Z" fill="#B35BA5"/>
<path d="M200.45 75.8619H207.345L207.345 68.9656H200.449L200.45 75.8619Z" fill="#B35BA5"/>
<path d="M172.863 48.2754H179.76V41.3809H172.863V48.2754Z" fill="#B35BA5"/>
<path d="M179.762 48.2754H186.657V41.3809H179.762V48.2754Z" fill="#B35BA5"/>
<path d="M186.656 48.2762L193.553 48.2754V41.3809H186.657L186.656 48.2762Z" fill="#B35BA5"/>
<path d="M200.45 62.0689H207.345V55.1724H200.45V62.0689Z" fill="#B35BA5"/>
<path d="M200.45 131.036H207.345V124.139H200.45V131.036Z" fill="#B35BA5"/>
<path d="M200.45 124.137H207.345V117.242H200.45V124.137Z" fill="#B35BA5"/>
<path d="M200.45 137.932L207.345 137.932L207.345 131.036L200.449 131.035L200.45 137.932Z" fill="#B35BA5"/>
<path d="M200.45 82.7584H207.345L207.345 75.8619H200.45L200.45 82.7584Z" fill="#B35BA5"/>
<path d="M200.449 117.243L207.345 117.242L207.345 110.346H200.45L200.449 117.243Z" fill="#B35BA5"/>
<path d="M200.45 89.6568H207.345V82.7598H200.45V89.6568Z" fill="#B35BA5"/>
<path d="M200.45 110.346H207.345L207.345 103.449H200.45L200.45 110.346Z" fill="#B35BA5"/>
<path d="M200.45 96.5513H207.345V89.6543H200.45V96.5513Z" fill="#B35BA5"/>
<path d="M200.45 103.448H207.345L207.345 96.5513H200.45L200.45 103.448Z" fill="#B35BA5"/>
<path d="M152.176 117.243H159.071V110.346H152.176V117.243Z" fill="#B35BA5"/>
<path d="M117.691 82.7584H124.589V75.8613H117.691V82.7584Z" fill="#B35BA5"/>
<path d="M117.691 89.6568H124.589V82.7598H117.691V89.6568Z" fill="#B35BA5"/>
<path d="M117.691 131.036H124.589V124.139H117.691V131.036Z" fill="#B35BA5"/>
<path d="M124.59 82.7584H131.485V75.8613H124.59V82.7584Z" fill="#B35BA5"/>
<path d="M131.484 82.7584H138.381V75.8613H131.484V82.7584Z" fill="#231F20"/>
<path d="M117.691 96.5513H124.588V89.6543H117.691V96.5513Z" fill="#B35BA5"/>
<path d="M117.691 103.448H124.589L124.588 96.5513H117.691L117.691 103.448Z" fill="#B35BA5"/>
<path d="M117.691 117.243H124.588V110.346H117.691V117.243Z" fill="#B35BA5"/>
<path d="M117.691 124.137H124.589L124.588 117.243H117.691L117.691 124.137Z" fill="#B35BA5"/>
<path d="M117.691 110.346H124.588L124.589 103.449H117.691L117.691 110.346Z" fill="#B35BA5"/>
<path d="M138.383 82.7584H145.28V75.8613H138.383V82.7584Z" fill="#B35BA5"/>
<path d="M165.969 103.448H172.866V96.5508H165.969V103.448Z" fill="#B35BA5"/>
<path d="M145.277 82.7584H152.174V75.8613H145.277V82.7584Z" fill="#B35BA5"/>
<path d="M165.969 110.346H172.866V103.449H165.969V110.346Z" fill="#B35BA5"/>
<path d="M165.969 124.137H172.866V117.242H165.969V124.137Z" fill="#B35BA5"/>
<path d="M165.969 117.242H172.866V110.346H165.969V117.242Z" fill="#B35BA5"/>
<path d="M165.969 96.5508H172.866L172.866 89.6543H165.969L165.969 96.5508Z" fill="#B35BA5"/>
<path d="M152.176 82.7584H159.071V75.8613H152.176V82.7584Z" fill="#B35BA5"/>
<path d="M159.074 82.7584H165.971V75.8613H159.074V82.7584Z" fill="#B35BA5"/>
<path d="M165.969 82.7584H172.866V75.8613H165.969V82.7584Z" fill="#B35BA5"/>
<path d="M165.969 89.6568H172.866V82.7598H165.969V89.6568Z" fill="#984589"/>
<path d="M172.863 117.243H179.76V110.346H172.863V117.243Z" fill="#B35BA5"/>
<path d="M172.863 103.448H179.76V96.5508H172.863V103.448Z" fill="#B35BA5"/>
<path d="M172.863 96.5508H179.76L179.76 89.6543H172.863L172.863 96.5508Z" fill="#B35BA5"/>
<path d="M172.863 110.346H179.76L179.76 103.449H172.863L172.863 110.346Z" fill="#B35BA5"/>
<path d="M172.863 89.6568H179.76V82.7598H172.863V89.6568Z" fill="#B35BA5"/>
<path d="M165.969 131.036H172.866V124.139H165.969V131.036Z" fill="#B35BA5"/>
<path d="M124.59 131.036H131.485V124.139H124.59V131.036Z" fill="#B35BA5"/>
<path d="M186.656 68.9656H193.553V62.0703H186.656V68.9656Z" fill="#B35BA5"/>
<path d="M172.863 82.7584H179.76V75.8613H172.863V82.7584Z" fill="#B35BA5"/>
<path d="M165.969 75.8613H172.866L172.866 68.9648H165.969L165.969 75.8613Z" fill="#B35BA5"/>
<path d="M172.863 75.8613H179.76L179.76 68.9648H172.863L172.863 75.8613Z" fill="#B35BA5"/>
<path d="M159.074 75.8613H165.971L165.971 68.9648H159.074L159.074 75.8613Z" fill="#984589"/>
<path d="M138.383 137.932H145.28V131.035H138.383V137.932Z" fill="#231F20"/>
<path d="M131.484 137.932H138.381V131.035H131.484V137.932Z" fill="#914282"/>
<path d="M124.59 137.932H131.484V131.035L124.59 131.036L124.59 137.932Z" fill="#B35BA5"/>
<path d="M269.418 103.448H276.315V96.5508H269.418V103.448Z" fill="#B35BA5"/>
<path d="M172.863 131.036H179.76V124.139H172.863V131.036Z" fill="#B35BA5"/>
<path d="M165.969 137.932H172.866L172.866 131.036H165.969L165.969 137.932Z" fill="#B35BA5"/>
<path d="M172.863 137.932H179.76L179.76 131.036H172.863L172.863 137.932Z" fill="#B35BA5"/>
<path d="M159.07 137.932H165.967V131.035H159.07V137.932Z" fill="#B35BA5"/>
<path d="M152.176 137.932H159.07V131.035H152.176V137.932Z" fill="#B35BA5"/>
<path d="M159.07 131.035H165.967L165.967 124.139H159.07L159.07 131.035Z" fill="#B35BA5"/>
<path d="M131.484 110.346H138.381V103.449H131.484V110.346Z" fill="#914282"/>
<path d="M131.484 103.448H138.381V96.5508H131.484V103.448Z" fill="#914282"/>
<path d="M152.176 75.8613H159.071L159.071 68.9648H152.176L152.176 75.8613Z" fill="#B35BA5"/>
<path d="M131.484 96.5508H138.381L138.381 89.6545H131.484L131.484 96.5508Z" fill="#231F20"/>
<path d="M131.484 117.243H138.381L138.381 110.346H131.484L131.484 117.243Z" fill="#914282"/>
<path d="M145.277 96.5513H152.174V89.6543H145.277V96.5513Z" fill="#B35BA5"/>
<path d="M152.176 124.137H159.071L159.071 117.243H152.176L152.176 124.137Z" fill="#B35BA5"/>
<path d="M159.071 124.137H165.967V117.242H159.07L159.071 124.137Z" fill="#B35BA5"/>
<path d="M145.277 124.137H152.174V117.242H145.277V124.137Z" fill="#B35BA5"/>
<path d="M138.383 124.137H145.28V117.242H138.383V124.137Z" fill="#231F20"/>
<path d="M138.383 117.242H145.28L145.28 110.346H138.383L138.383 117.242Z" fill="#231F20"/>
<path d="M145.277 110.346H152.174V103.449H145.277V110.346Z" fill="#B35BA5"/>
<path d="M138.383 110.346H145.28L145.28 103.449H138.383L138.383 110.346Z" fill="#231F20"/>
<path d="M138.383 103.448H145.28V96.5508H138.383V103.448Z" fill="#231F20"/>
<path d="M145.277 103.448H152.174L152.174 96.5513H145.277L145.277 103.448Z" fill="#B35BA5"/>
<path d="M152.176 96.5513H159.071V89.6543H152.176V96.5513Z" fill="#B35BA5"/>
<path d="M152.176 110.346H159.071L159.071 103.449H152.176L152.176 110.346Z" fill="#B35BA5"/>
<path d="M145.277 117.242H152.174V110.346H145.277V117.242Z" fill="#B35BA5"/>
<path d="M152.176 103.448H159.071L159.071 96.5513H152.176L152.176 103.448Z" fill="#B35BA5"/>
<path d="M172.863 172.415H179.76V165.52H172.863V172.415Z" fill="#914282"/>
<path d="M138.383 96.5508H145.28L145.28 89.6543H138.383L138.383 96.5508Z" fill="#B35BA5"/>
<path d="M124.59 117.243H131.485V110.346H124.59V117.243Z" fill="#B35BA5"/>
<path d="M131.484 124.137H138.381L138.381 117.243H131.484L131.484 124.137Z" fill="#914282"/>
<path d="M124.59 124.137H131.485L131.485 117.243H124.59L124.59 124.137Z" fill="#B35BA5"/>
<path d="M124.59 110.346H131.485L131.485 103.449H124.59L124.59 110.346Z" fill="#B35BA5"/>
<path d="M124.59 103.448H131.485V96.5508H124.59V103.448Z" fill="#B35BA5"/>
<path d="M131.484 131.035H138.381L138.381 124.139H131.484L131.484 131.035Z" fill="#914282"/>
<path d="M145.277 131.035H152.174L152.174 124.139H145.277L145.277 131.035Z" fill="#B35BA5"/>
<path d="M152.176 131.035L159.071 131.036L159.07 124.139H152.176L152.176 131.035Z" fill="#B35BA5"/>
<path d="M124.59 96.5508H131.485L131.485 89.6543H124.59L124.59 96.5508Z" fill="#B35BA5"/>
<path d="M138.383 131.035H145.28L145.28 124.139H138.383L138.383 131.035Z" fill="#231F20"/>
<path d="M145.277 89.6568H152.174V82.7598H145.277V89.6568Z" fill="#B35BA5"/>
<path d="M159.074 89.6568H165.971V82.7598H159.074V89.6568Z" fill="#B35BA5"/>
<path d="M159.071 103.448H165.967V96.5508H159.07L159.071 103.448Z" fill="#B35BA5"/>
<path d="M159.07 96.5508H165.967L165.967 89.6545H159.07L159.07 96.5508Z" fill="#B35BA5"/>
<path d="M159.07 110.346H165.967V103.449H159.071L159.07 110.346Z" fill="#B35BA5"/>
<path d="M138.383 89.6568H145.28V82.7598H138.383V89.6568Z" fill="#B35BA5"/>
<path d="M131.484 89.6568H138.381V82.7598H131.484V89.6568Z" fill="#231F20"/>
<path d="M124.59 89.6568H131.485V82.7598H124.59V89.6568Z" fill="#B35BA5"/>
<path d="M152.176 89.6568H159.071V82.7598H152.176V89.6568Z" fill="#B35BA5"/>
<path d="M159.07 117.242H165.967V110.346H159.07V117.242Z" fill="#B35BA5"/>
<path d="M172.863 124.137H179.76L179.76 117.243H172.863L172.863 124.137Z" fill="#B35BA5"/>
<path d="M103.899 131.036H110.794V124.139H103.899V131.036Z" fill="#B35BA5"/>
<path d="M103.899 124.137H110.794V117.242H103.899V124.137Z" fill="#231F20"/>
<path d="M103.898 137.932H110.794L110.794 131.036H103.899L103.898 137.932Z" fill="#B35BA5"/>
<path d="M103.899 117.242H110.794L110.794 110.346H103.898L103.899 117.242Z" fill="#231F20"/>
<path d="M103.898 110.346H110.794L110.794 103.449H103.899L103.898 110.346Z" fill="#B35BA5"/>
<path d="M110.794 151.725H117.69V144.828H110.794V151.725Z" fill="#914282"/>
<path d="M103.898 144.827H110.794V137.932H103.898V144.827Z" fill="#B35BA5"/>
<path d="M103.899 103.448H110.794V96.5508H103.899V103.448Z" fill="#B35BA5"/>
<path d="M117.691 151.725H124.589V144.828H117.691V151.725Z" fill="#B35BA5"/>
<path d="M110.794 144.827H117.69V137.932L110.794 137.932V144.827Z" fill="#231F20"/>
<path d="M117.691 68.9656H124.589V62.0703H117.691V68.9656Z" fill="#B35BA5"/>
<path d="M124.59 151.725H131.485V144.828H124.59V151.725Z" fill="#B35BA5"/>
<path d="M124.59 68.9656H131.485V62.0703H124.59V68.9656Z" fill="#231F20"/>
<path d="M131.484 68.9656H138.381V62.0703H131.484V68.9656Z" fill="#B35BA5"/>
<path d="M110.793 68.9656H117.69V62.0703H110.793V68.9656Z" fill="#B35BA5"/>
<path d="M103.898 75.8619H110.794V68.9648H103.898V75.8619Z" fill="#B35BA5"/>
<path d="M103.898 68.9648H110.794L110.793 62.0703H103.899L103.898 68.9648Z" fill="#984589"/>
<path d="M103.899 82.7584H110.794L110.794 75.8619H103.898L103.899 82.7584Z" fill="#B35BA5"/>
<path d="M103.899 89.6568H110.794V82.7598H103.899V89.6568Z" fill="#B35BA5"/>
<path d="M103.899 96.5508H110.794L110.794 89.6543H103.898L103.899 96.5508Z" fill="#B35BA5"/>
<path d="M131.484 144.828V151.725H138.381V144.828H131.484Z" fill="#914282"/>
<path d="M186.656 110.346H193.553V103.449H186.656V110.346Z" fill="#B35BA5"/>
<path d="M186.656 103.448H193.553V96.5508H186.656V103.448Z" fill="#B35BA5"/>
<path d="M186.656 117.243H193.553L193.553 110.346H186.656L186.656 117.243Z" fill="#B35BA5"/>
<path d="M186.656 124.137H193.553L193.553 117.243H186.656L186.656 124.137Z" fill="#B35BA5"/>
<path d="M138.383 68.9656H145.28V62.0703H138.383V68.9656Z" fill="#B35BA5"/>
<path d="M186.656 89.6568H193.553V82.7598H186.656V89.6568Z" fill="#B35BA5"/>
<path d="M186.656 96.5508H193.553L193.553 89.6543H186.656L186.656 96.5508Z" fill="#B35BA5"/>
<path d="M186.656 82.7584H193.553V75.8613H186.656V82.7584Z" fill="#B35BA5"/>
<path d="M186.656 75.8613H193.553V68.9656H186.656V75.8613Z" fill="#B35BA5"/>
<path d="M186.656 137.932H193.553V131.035H186.656V137.932Z" fill="#B35BA5"/>
<path d="M186.656 131.035H193.553L193.553 124.139H186.656L186.656 131.035Z" fill="#B35BA5"/>
<path d="M152.176 151.725H159.071V144.828H152.176V151.725Z" fill="#B35BA5"/>
<path d="M145.277 151.725H152.174V144.828H145.277V151.725Z" fill="#B35BA5"/>
<path d="M159.07 151.725L165.967 151.725V144.828H159.071L159.07 151.725Z" fill="#B35BA5"/>
<path d="M186.656 144.827H193.553V137.932H186.656V144.827Z" fill="#B35BA5"/>
<path d="M138.383 151.725H145.28V144.828H138.383V151.725Z" fill="#231F20"/>
<path d="M179.762 151.725H186.656L186.657 144.828H179.762V151.725Z" fill="#B35BA5"/>
<path d="M186.656 151.725H193.553V144.828H186.657L186.656 151.725Z" fill="#B35BA5"/>
<path d="M165.969 151.725H172.866V144.828H165.969V151.725Z" fill="#B35BA5"/>
<path d="M172.863 151.725H179.76V144.828H172.863V151.725Z" fill="#B35BA5"/>
<path d="M110.794 131.036H117.69V124.139H110.794V131.036Z" fill="#B35BA5"/>
<path d="M117.691 137.932H124.588L124.589 131.036H117.691L117.691 137.932Z" fill="#B35BA5"/>
<path d="M145.277 68.9656H152.174V62.0703H145.277V68.9656Z" fill="#B35BA5"/>
<path d="M145.277 75.8613H152.174V68.9656H145.277V75.8613Z" fill="#B35BA5"/>
<path d="M110.794 124.137H117.69V117.242H110.794V124.137Z" fill="#B35BA5"/>
<path d="M110.793 117.243L117.69 117.242L117.69 110.346H110.794L110.793 117.243Z" fill="#B35BA5"/>
<path d="M124.59 144.827H131.485L131.484 137.932H124.59V144.827Z" fill="#B35BA5"/>
<path d="M131.485 144.827H138.381V137.932H131.484L131.485 144.827Z" fill="#914282"/>
<path d="M138.383 144.827H145.28V137.932H138.383V144.827Z" fill="#231F20"/>
<path d="M117.691 144.827H124.588V137.932H117.691V144.827Z" fill="#B35BA5"/>
<path d="M110.794 110.346H117.69L117.69 103.449H110.794L110.794 110.346Z" fill="#B35BA5"/>
<path d="M110.793 96.5513H117.69V89.6543H110.794L110.793 96.5513Z" fill="#B35BA5"/>
<path d="M110.794 103.448H117.69L117.69 96.5513H110.793L110.794 103.448Z" fill="#B35BA5"/>
<path d="M124.59 75.8613H131.485V68.9656H124.59V75.8613Z" fill="#914282"/>
<path d="M131.484 75.8613H138.381V68.9656H131.484V75.8613Z" fill="#231F20"/>
<path d="M138.383 75.8613H145.28V68.9656H138.383V75.8613Z" fill="#B35BA5"/>
<path d="M117.691 75.8613H124.589V68.9656H117.691V75.8613Z" fill="#B35BA5"/>
<path d="M110.794 89.6568H117.69V82.7598H110.794V89.6568Z" fill="#B35BA5"/>
<path d="M145.277 144.827H152.174V137.932H145.277V144.827Z" fill="#B35BA5"/>
<path d="M110.794 75.8619H117.69L117.69 68.9656H110.793L110.794 75.8619Z" fill="#B35BA5"/>
<path d="M110.794 82.7584H117.69L117.69 75.8619H110.794L110.794 82.7584Z" fill="#984589"/>
<path d="M110.794 137.932L117.69 137.932L117.69 131.036L110.793 131.035L110.794 137.932Z" fill="#B35BA5"/>
<path d="M179.762 82.7584H186.656V75.8613H179.762V82.7584Z" fill="#B35BA5"/>
<path d="M179.762 75.8613H186.656L186.657 68.9648H179.762L179.762 75.8613Z" fill="#B35BA5"/>
<path d="M179.762 96.5513L186.656 96.5508L186.656 89.6543H179.762V96.5513Z" fill="#B35BA5"/>
<path d="M179.762 89.6568H186.656V82.7598H179.762V89.6568Z" fill="#B35BA5"/>
<path d="M179.762 68.9648H186.657L186.656 62.0703H179.762L179.762 68.9648Z" fill="#B35BA5"/>
<path d="M152.176 144.827H159.071L159.07 137.932H152.176V144.827Z" fill="#B35BA5"/>
<path d="M152.176 68.9648H159.071L159.071 62.0703H152.176L152.176 68.9648Z" fill="#B35BA5"/>
<path d="M159.074 68.9648H165.971L165.971 62.0703H159.074L159.074 68.9648Z" fill="#B35BA5"/>
<path d="M172.863 68.9648H179.76L179.76 62.0703H172.863L172.863 68.9648Z" fill="#B35BA5"/>
<path d="M165.969 68.9648H172.866L172.866 62.0703H165.969L165.969 68.9648Z" fill="#B35BA5"/>
<path d="M179.762 103.448H186.656V96.5508L179.762 96.5513L179.762 103.448Z" fill="#B35BA5"/>
<path d="M172.863 144.827H179.76V137.932H172.863V144.827Z" fill="#B35BA5"/>
<path d="M165.969 144.827H172.866V137.932H165.969V144.827Z" fill="#B35BA5"/>
<path d="M179.762 144.827H186.656V137.932L179.762 137.932V144.827Z" fill="#B35BA5"/>
<path d="M179.762 110.346H186.656V103.449H179.762V110.346Z" fill="#B35BA5"/>
<path d="M159.071 144.827H165.967V137.932H159.07L159.071 144.827Z" fill="#B35BA5"/>
<path d="M179.762 124.137H186.656L186.657 117.242H179.762V124.137Z" fill="#B35BA5"/>
<path d="M179.762 137.932L186.656 137.932V131.035H179.762V137.932Z" fill="#B35BA5"/>
<path d="M179.762 117.242L186.656 117.243L186.656 110.346H179.762V117.242Z" fill="#B35BA5"/>
<path d="M179.762 131.035L186.657 131.036L186.656 124.139H179.762L179.762 131.035Z" fill="#B35BA5"/>
<path d="M165.969 193.104H172.866V186.207H165.969V193.104Z" fill="white"/>
<path d="M62.5195 117.243H69.4166V110.346H62.5195V117.243Z" fill="#914282"/>
<path d="M62.5196 151.725H69.4166V144.828H62.5196V151.725Z" fill="#231F20"/>
<path d="M62.5196 103.448H69.4166V96.5508H62.5196V103.448Z" fill="#B35BA5"/>
<path d="M62.5196 96.5508H69.4166L69.4166 89.6543H62.5195L62.5196 96.5508Z" fill="#B35BA5"/>
<path d="M62.5196 89.6568H69.4166V82.7598H62.5196V89.6568Z" fill="#B35BA5"/>
<path d="M62.5195 137.932H69.4166V131.035H62.5195V137.932Z" fill="#B35BA5"/>
<path d="M62.5196 82.7584H69.4149V75.8613H62.5196V82.7584Z" fill="#B35BA5"/>
<path d="M62.5195 144.827H69.4166V137.932H62.5195V144.827Z" fill="#B35BA5"/>
<path d="M62.5196 124.137H69.4166L69.4166 117.243H62.5195L62.5196 124.137Z" fill="#914282"/>
<path d="M62.5195 131.035H69.4166L69.4166 124.139H62.5196L62.5195 131.035Z" fill="#914282"/>
<path d="M62.5195 110.346H69.4166L69.4166 103.449H62.5196L62.5195 110.346Z" fill="#B35BA5"/>
<path d="M55.622 193.104H62.5182V186.207L55.6219 186.208L55.622 193.104Z" fill="#231F20"/>
<path d="M62.5196 75.8613H69.4149L69.4148 68.9648H62.5195L62.5196 75.8613Z" fill="#B35BA5"/>
<path d="M62.5195 68.9648H69.4148L69.4149 62.0703H62.5196L62.5195 68.9648Z" fill="#B35BA5"/>
<path d="M62.5196 62.0689H69.4149V55.1719H62.5196V62.0689Z" fill="#B35BA5"/>
<path d="M62.5196 48.2762H69.4166V41.3809H62.5196V48.2762Z" fill="#C971BF"/>
<path d="M62.5196 55.1719L69.4166 55.1724V48.2762H62.5196V55.1719Z" fill="#B35BA5"/>
<path d="M62.5196 172.415H69.4166V165.52H62.5196V172.415Z" fill="#AA1318"/>
<path d="M62.5196 158.622H69.4166V151.725H62.5196V158.622Z" fill="#690A0D"/>
<path d="M117.691 193.104H124.589V186.207H117.691V193.104Z" fill="#914282"/>
<path d="M103.899 193.104H110.794V186.207H103.899V193.104Z" fill="#231F20"/>
<path d="M97.004 193.104H103.901V186.207H97.004V193.104Z" fill="#231F20"/>
<path d="M110.794 193.104H117.69V186.207H110.794V193.104Z" fill="white"/>
<path d="M131.484 193.104H138.381V186.207H131.484V193.104Z" fill="#231F20"/>
<path d="M152.176 193.104H159.071V186.207H152.176V193.104Z" fill="white"/>
<path d="M159.071 193.104H165.967V186.207H159.071V193.104Z" fill="#914282"/>
<path d="M145.277 193.104H152.174V186.207H145.277V193.104Z" fill="#231F20"/>
<path d="M124.59 193.104H131.485V186.207H124.59V193.104Z" fill="#914282"/>
<path d="M62.5196 186.207H69.4166L69.4166 179.311H62.5195L62.5196 186.207Z" fill="#914282"/>
<path d="M83.2109 27.5865H90.108V20.6895H83.2109V27.5865Z" fill="#231F20"/>
<path d="M62.5195 179.311H69.4166L69.4166 172.415H62.5196L62.5195 179.311Z" fill="#231F20"/>
<path d="M62.5196 165.518H69.4166V158.622H62.5196V165.518Z" fill="#AA1318"/>
<path d="M83.2071 193.104H90.1041V186.207H83.2071V193.104Z" fill="#231F20"/>
<path d="M76.3126 193.104H83.2071V186.207H76.3126V193.104Z" fill="#231F20"/>
<path d="M90.1056 193.104H97.0026V186.207H90.1056V193.104Z" fill="#231F20"/>
<path d="M69.4181 193.104H76.3151V186.207H69.4181V193.104Z" fill="#231F20"/>
<path d="M69.4181 186.207H76.3151L76.315 179.311H69.418L69.4181 186.207Z" fill="#914282"/>
<path d="M62.5196 41.3797H69.4166V34.4844H62.5196V41.3797Z" fill="#231F20"/>
<path d="M221.141 75.8621H228.038V68.9651H221.141V75.8621Z" fill="#B35BA5"/>
<path d="M221.141 82.7584H228.038L228.038 75.8621H221.141L221.141 82.7584Z" fill="#B35BA5"/>
<path d="M221.141 89.6568H228.038V82.7598H221.141V89.6568Z" fill="#B35BA5"/>
<path d="M221.141 110.346H228.038V103.449H221.141V110.346Z" fill="#B35BA5"/>
<path d="M221.141 96.5516H228.038V89.6545H221.141V96.5516Z" fill="#B35BA5"/>
<path d="M221.141 103.448H228.038L228.038 96.5516H221.141L221.141 103.448Z" fill="#984589"/>
<path d="M221.141 55.1724H228.038V48.2754H221.141V55.1724Z" fill="#B35BA5"/>
<path d="M221.141 48.2754H228.038V41.3809H221.141V48.2754Z" fill="#B35BA5"/>
<path d="M221.141 41.3797H228.038V34.4844H221.141V41.3797Z" fill="#B35BA5"/>
<path d="M221.141 68.9651H228.038L228.038 62.0703H221.141L221.141 68.9651Z" fill="#B35BA5"/>
<path d="M221.141 62.0689H228.038V55.1724H221.141V62.0689Z" fill="#B35BA5"/>
<path d="M221.141 165.518H228.038V158.621H221.141V165.518Z" fill="#914282"/>
<path d="M221.141 158.621H228.038V151.725H221.141V158.621Z" fill="#914282"/>
<path d="M221.141 151.725H228.038V144.828H221.141V151.725Z" fill="#B35BA5"/>
<path d="M221.141 172.413H228.038V165.518H221.141V172.413Z" fill="#231F20"/>
<path d="M179.762 172.415H186.657V165.52H179.762V172.415Z" fill="#231F20"/>
<path d="M221.141 124.137H228.038V117.242H221.141V124.137Z" fill="#B35BA5"/>
<path d="M221.141 131.036H228.038V124.139H221.141V131.036Z" fill="#B35BA5"/>
<path d="M221.141 144.827H228.038V137.932H221.141V144.827Z" fill="#B35BA5"/>
<path d="M221.141 117.242H228.038V110.346H221.141V117.242Z" fill="#B35BA5"/>
<path d="M172.863 27.5865H179.76V20.6895H172.863V27.5865Z" fill="#B35BA5"/>
<path d="M124.59 27.5865H131.485V20.6895H124.59V27.5865Z" fill="#231F20"/>
<path d="M159.07 27.5863H165.967V20.6893H159.07V27.5863Z" fill="#B35BA5"/>
<path d="M131.484 27.5863H138.381V20.6893H131.484V27.5863Z" fill="#B35BA5"/>
<path d="M145.277 27.5865H152.174V20.6895H145.277V27.5865Z" fill="#B35BA5"/>
<path d="M152.176 27.5865H159.071V20.6895H152.176V27.5865Z" fill="#B35BA5"/>
<path d="M138.383 27.5863H145.28V20.6893H138.383V27.5863Z" fill="#B35BA5"/>
<path d="M103.898 27.5865H110.794V20.6895H103.898V27.5865Z" fill="#C971BF"/>
<path d="M221.141 34.483H228.038V27.5859H221.141V34.483Z" fill="#B35BA5"/>
<path d="M117.691 27.5865H124.588V20.6895H117.691V27.5865Z" fill="#C971BF"/>
<path d="M110.794 27.5865H117.69V20.6895H110.794V27.5865Z" fill="#231F20"/>
<path d="M97.0039 27.5865H103.901V20.6895H97.0039V27.5865Z" fill="#C971BF"/>
<path d="M165.969 27.5865H172.866V20.6895H165.969V27.5865Z" fill="#B35BA5"/>
<path d="M214.242 27.5865H221.139V20.6895H214.242V27.5865Z" fill="#B35BA5"/>
<path d="M221.141 27.5859H228.038L228.038 20.6893H221.141L221.141 27.5859Z" fill="#B35BA5"/>
<path d="M200.449 27.5865H207.345V20.6895H200.449V27.5865Z" fill="#B35BA5"/>
<path d="M207.348 27.5865H214.245V20.6895H207.348V27.5865Z" fill="#B35BA5"/>
<path d="M193.555 27.5865H200.449V20.6895H193.555V27.5865Z" fill="#B35BA5"/>
<path d="M90.1055 27.5865H97.0008V20.6895H90.1055V27.5865Z" fill="#C971BF"/>
<path d="M179.762 27.5865H186.657V20.6895H179.762V27.5865Z" fill="#B35BA5"/>
<path d="M186.657 27.5865H193.553V20.6895H186.657V27.5865Z" fill="#B35BA5"/>
<path d="M55.6219 144.827H62.5181V137.932H55.6219V144.827Z" fill="#B35BA5"/>
<path d="M90.1056 20.6883H97.0026V13.793H90.1056V20.6883Z" fill="#231F20"/>
<path d="M55.622 41.3797H62.5182V34.4844H55.622V41.3797Z" fill="#B35BA5"/>
<path d="M55.622 34.483H62.5182V27.5859L55.6219 27.5865L55.622 34.483Z" fill="#231F20"/>
<path d="M172.863 193.104H179.76V186.207H172.863V193.104Z" fill="#914282"/>
<path d="M55.622 48.2762H62.5182V41.3809H55.622V48.2762Z" fill="#231F20"/>
<path d="M138.383 20.6883H145.28V13.793H138.383V20.6883Z" fill="#B35BA5"/>
<path d="M145.277 20.6883H152.174V13.793H145.277V20.6883Z" fill="#B35BA5"/>
<path d="M152.176 20.6883H159.071V13.793H152.176V20.6883Z" fill="#B35BA5"/>
<path d="M159.07 20.6893H165.967L165.967 13.7949H159.07L159.07 20.6893Z" fill="#B35BA5"/>
<path d="M131.484 20.6883H138.382V13.793H131.484V20.6883Z" fill="#B35BA5"/>
<path d="M103.899 20.6883H110.796V13.793H103.899V20.6883Z" fill="#C971BF"/>
<path d="M110.797 20.6902H117.694V13.7949H110.797V20.6902Z" fill="#C971BF"/>
<path d="M117.691 20.6883H124.589V13.793H117.691V20.6883Z" fill="#231F20"/>
<path d="M124.59 20.6883H131.487V13.793H124.59V20.6883Z" fill="#B35BA5"/>
<path d="M55.6219 186.208L62.5182 186.207L62.5181 179.311H55.6211L55.6219 186.208Z" fill="#914282"/>
<path d="M55.622 151.725H62.5182V144.828H55.622V151.725Z" fill="#231F20"/>
<path d="M221.141 179.311H228.038V172.414H221.141V179.311Z" fill="#231F20"/>
<path d="M55.622 158.622H62.5182V151.725H55.622V158.622Z" fill="#690A0D"/>
<path d="M55.622 124.137H62.5182V117.242H55.622V124.137Z" fill="#231F20"/>
<path d="M55.6219 137.932H62.5181V131.035H55.6219V137.932Z" fill="#B35BA5"/>
<path d="M55.6219 131.035H62.5181L62.5182 124.139H55.622L55.6219 131.035Z" fill="#B35BA5"/>
<path d="M165.969 20.6883H172.866V13.793H165.969V20.6883Z" fill="#B35BA5"/>
<path d="M55.6211 179.311H62.5181L62.5182 172.414H55.6212L55.6211 179.311Z" fill="#231F20"/>
<path d="M55.622 55.1719L62.5182 55.1724V48.2762L55.6212 48.2754L55.622 55.1719Z" fill="#B35BA5"/>
<path d="M55.6212 172.414H62.5182V165.52H55.622L55.6212 172.414Z" fill="#AA1318"/>
<path d="M55.622 165.518H62.5182V158.622H55.622V165.518Z" fill="#AA1318"/>
<path d="M55.622 82.7584H62.5182V75.8613L55.6219 75.8619L55.622 82.7584Z" fill="#231F20"/>
<path d="M55.6219 75.8619L62.5182 75.8613L62.5181 68.9648H55.6211L55.6219 75.8619Z" fill="#B35BA5"/>
<path d="M55.6211 68.9648H62.5181L62.5182 62.0703H55.622L55.6211 68.9648Z" fill="#B35BA5"/>
<path d="M55.622 62.0689H62.5182V55.1724L55.622 55.1719V62.0689Z" fill="#B35BA5"/>
<path d="M55.622 89.6568H62.5182V82.7598H55.622V89.6568Z" fill="#231F20"/>
<path d="M55.622 103.448H62.5182V96.5508L55.6219 96.5513L55.622 103.448Z" fill="#B35BA5"/>
<path d="M55.6211 117.243L62.5182 117.242L62.5181 110.346H55.6219L55.6211 117.243Z" fill="#231F20"/>
<path d="M55.6219 110.346H62.5181L62.5182 103.449H55.622L55.6219 110.346Z" fill="#914282"/>
<path d="M55.6219 96.5513L62.5182 96.5508L62.5181 89.6543H55.6219V96.5513Z" fill="#C971BF"/>
<path d="M97.004 20.6883H103.901V13.793H97.004V20.6883Z" fill="#C971BF"/>
<path d="M228.035 151.725H234.931V144.828H228.035V151.725Z" fill="#B35BA5"/>
<path d="M228.035 144.827H234.93V137.932H228.035V144.827Z" fill="#B35BA5"/>
<path d="M228.035 158.622H234.931V151.725H228.035V158.622Z" fill="#914282"/>
<path d="M228.035 172.415H234.931V165.52H228.035V172.415Z" fill="#231F20"/>
<path d="M228.035 165.518H234.931V158.622H228.035V165.518Z" fill="#914282"/>
<path d="M228.035 179.311H234.931V172.415H228.035V179.311Z" fill="#6D2B5F"/>
<path d="M228.035 110.346H234.931V103.449H228.035V110.346Z" fill="#B35BA5"/>
<path d="M228.035 124.137H234.931V117.242H228.035V124.137Z" fill="#B35BA5"/>
<path d="M228.035 137.932H234.93V131.035H228.035V137.932Z" fill="#B35BA5"/>
<path d="M228.035 131.035H234.93L234.931 124.139H228.035L228.035 131.035Z" fill="#B35BA5"/>
<path d="M228.035 117.242H234.931V110.346H228.035V117.242Z" fill="#B35BA5"/>
<path d="M228.035 186.208H234.93L234.931 179.311H228.035L228.035 186.208Z" fill="#914282"/>
<path d="M179.762 193.104H186.657V186.207H179.762V193.104Z" fill="#231F20"/>
<path d="M172.863 20.6883H179.76V13.793H172.863V20.6883Z" fill="#B35BA5"/>
<path d="M228.035 193.104H234.931L234.93 186.208H228.035L228.035 193.104Z" fill="white"/>
<path d="M221.141 193.104H228.038V186.207H221.141V193.104Z" fill="#231F20"/>
<path d="M228.035 34.483H234.931V27.5859H228.035V34.483Z" fill="#B35BA5"/>
<path d="M221.141 20.6893H228.038L228.038 13.7949H221.141L221.141 20.6893Z" fill="#984589"/>
<path d="M228.035 27.5859H234.931L234.93 20.6895H228.035L228.035 27.5859Z" fill="#B35BA5"/>
<path d="M228.035 20.6883H234.931V13.793H228.035V20.6883Z" fill="#B35BA5"/>
<path d="M207.348 20.6883H214.245V13.793H207.348V20.6883Z" fill="#B35BA5"/>
<path d="M214.242 20.6883H221.139V13.793H214.242V20.6883Z" fill="#B35BA5"/>
<path d="M200.449 20.6883H207.345V13.793H200.449V20.6883Z" fill="#B35BA5"/>
<path d="M186.656 20.6883H193.553V13.793H186.656V20.6883Z" fill="#B35BA5"/>
<path d="M179.762 20.6883H186.656V13.793H179.762V20.6883Z" fill="#B35BA5"/>
<path d="M193.555 20.6883H200.449V13.793H193.555V20.6883Z" fill="#B35BA5"/>
<path d="M228.035 103.448H234.931V96.5508H228.035V103.448Z" fill="#B35BA5"/>
<path d="M228.035 41.3797H234.931V34.4844H228.035V41.3797Z" fill="#B35BA5"/>
<path d="M228.035 89.6568H234.931V82.7598H228.035V89.6568Z" fill="#B35BA5"/>
<path d="M228.035 75.8619H234.93V68.9648H228.035V75.8619Z" fill="#B35BA5"/>
<path d="M228.035 96.5508H234.931L234.93 89.6543H228.035L228.035 96.5508Z" fill="#B35BA5"/>
<path d="M228.035 82.7584H234.931L234.93 75.8619H228.035L228.035 82.7584Z" fill="#B35BA5"/>
<path d="M228.035 48.2762H234.931V41.3809H228.035V48.2762Z" fill="#B35BA5"/>
<path d="M228.035 55.1724H234.931V48.2762H228.035V55.1724Z" fill="#B35BA5"/>
<path d="M228.035 62.0689H234.931V55.1724H228.035V62.0689Z" fill="#B35BA5"/>
<path d="M228.035 68.9648H234.93L234.931 62.0703H228.035L228.035 68.9648Z" fill="#B35BA5"/>
<path d="M221.141 137.932H228.038L228.038 131.036H221.141L221.141 137.932Z" fill="#B35BA5"/>
<path d="M76.3126 151.725H83.2071V144.828H76.3126V151.725Z" fill="#231F20"/>
<path d="M76.3125 117.243H83.207V110.346H76.3125V117.243Z" fill="#C971BF"/>
<path d="M76.3125 137.932L83.207 137.932V131.035H76.3125V137.932Z" fill="#B35BA5"/>
<path d="M76.3125 131.035L83.2079 131.036L83.2071 124.139H76.3126L76.3125 131.035Z" fill="#B35BA5"/>
<path d="M76.3126 124.137H83.2071L83.2079 117.242L76.3125 117.243L76.3126 124.137Z" fill="#B35BA5"/>
<path d="M76.3125 144.827H83.207V137.932L76.3125 137.932V144.827Z" fill="#B35BA5"/>
<path d="M83.2071 179.311H90.1041V172.414H83.2071V179.311Z" fill="#231F20"/>
<path d="M83.2071 172.414H90.1041V165.52H83.2071V172.414Z" fill="#E7E3E2"/>
<path d="M76.3126 158.622H83.2071V151.725H76.3126V158.622Z" fill="white"/>
<path d="M76.3126 165.518H83.2071V158.622H76.3126V165.518Z" fill="#AA1318"/>
<path d="M76.3126 172.415H83.2079L83.2071 165.52H76.3126V172.415Z" fill="#AA1318"/>
<path d="M76.3126 68.9656H83.2079L83.2071 62.0703H76.3126V68.9656Z" fill="#B35BA5"/>
<path d="M76.3126 62.0689H83.2071V55.1719H76.3126V62.0689Z" fill="#B35BA5"/>
<path d="M76.3125 75.8619H83.207L83.2079 68.9656H76.3126L76.3125 75.8619Z" fill="#B35BA5"/>
<path d="M76.3126 48.2762H83.2071V41.3809H76.3126V48.2762Z" fill="#C971BF"/>
<path d="M76.3126 55.1719H83.2071L83.2079 48.2754L76.3126 48.2762V55.1719Z" fill="#B35BA5"/>
<path d="M76.3126 103.448H83.2071V96.5508H76.3126V103.448Z" fill="#B35BA5"/>
<path d="M76.3126 96.5508H83.2071L83.207 89.6543H76.3125L76.3126 96.5508Z" fill="#B35BA5"/>
<path d="M76.3126 82.7584H83.2071L83.2079 75.8613L76.3125 75.8619L76.3126 82.7584Z" fill="#B35BA5"/>
<path d="M76.3125 110.346L83.2079 110.346V103.449H76.3126L76.3125 110.346Z" fill="#231F20"/>
<path d="M76.3126 89.6568H83.2071V82.7598H76.3126V89.6568Z" fill="#B35BA5"/>
<path d="M90.1056 179.311H97.0026V172.415H90.1056V179.311Z" fill="#231F20"/>
<path d="M179.762 179.311H186.657V172.415H179.762V179.311Z" fill="#231F20"/>
<path d="M172.863 179.311H179.76V172.415H172.863V179.311Z" fill="#914282"/>
<path d="M165.969 179.311H172.866V172.415H165.969V179.311Z" fill="#6D2B5F"/>
<path d="M76.3126 41.3797H83.2096V34.4844H76.3126V41.3797Z" fill="#231F20"/>
<path d="M214.242 172.415H221.139V165.52H214.242V172.415Z" fill="#231F20"/>
<path d="M159.07 179.311H165.967V172.414H159.07V179.311Z" fill="#6D2B5F"/>
<path d="M110.793 179.311H117.69V172.415L110.793 172.414V179.311Z" fill="#231F20"/>
<path d="M103.899 179.311H110.793L110.794 172.415H103.899V179.311Z" fill="#914282"/>
<path d="M97.004 179.311H103.901V172.415H97.004V179.311Z" fill="#B35BA5"/>
<path d="M117.691 179.311H124.589V172.415H117.691V179.311Z" fill="#6D2B5F"/>
<path d="M131.484 179.311H138.381V172.414H131.484V179.311Z" fill="#231F20"/>
<path d="M145.277 179.311H152.174V172.415H145.277V179.311Z" fill="#231F20"/>
<path d="M124.59 179.311H131.485V172.415H124.59V179.311Z" fill="#914282"/>
<path d="M152.176 179.311H159.07L159.071 172.415H152.176V179.311Z" fill="#B35BA5"/>
<path d="M207.348 96.5513H214.245V89.6543H207.348V96.5513Z" fill="#B35BA5"/>
<path d="M214.242 165.518H221.139V158.621H214.242V165.518Z" fill="#914282"/>
<path d="M207.348 110.346H214.245V103.449H207.348V110.346Z" fill="#B35BA5"/>
<path d="M83.2071 41.3797H90.1041V34.4844H83.2071V41.3797Z" fill="#231F20"/>
<path d="M207.348 117.243H214.245L214.245 110.346H207.348L207.348 117.243Z" fill="#B35BA5"/>
<path d="M207.348 131.036H214.245V124.139H207.348V131.036Z" fill="#B35BA5"/>
<path d="M207.348 124.137H214.245L214.245 117.243H207.348L207.348 124.137Z" fill="#B35BA5"/>
<path d="M207.348 68.9656H214.245V62.0703H207.348V68.9656Z" fill="#B35BA5"/>
<path d="M207.348 89.6568H214.245V82.7598H207.348V89.6568Z" fill="#B35BA5"/>
<path d="M207.348 75.8619H214.245L214.245 68.9656H207.348L207.348 75.8619Z" fill="#B35BA5"/>
<path d="M207.348 62.0689H214.245V55.1719H207.348V62.0689Z" fill="#B35BA5"/>
<path d="M207.348 82.7584H214.245L214.245 75.8619H207.348L207.348 82.7584Z" fill="#B35BA5"/>
<path d="M200.449 172.415H207.345V165.52H200.449V172.415Z" fill="#231F20"/>
<path d="M193.555 172.415H200.449V165.52H193.555V172.415Z" fill="#231F20"/>
<path d="M207.348 172.415H214.245V165.52H207.348V172.415Z" fill="#231F20"/>
<path d="M186.657 172.415H193.553V165.52H186.657V172.415Z" fill="#231F20"/>
<path d="M221.141 186.207H228.038V179.311H221.141V186.207Z" fill="#231F20"/>
<path d="M207.348 144.827H214.245V137.932H207.348V144.827Z" fill="#B35BA5"/>
<path d="M207.348 151.725H214.245V144.828H207.348V151.725Z" fill="#B35BA5"/>
<path d="M207.348 165.518H214.245V158.621H207.348V165.518Z" fill="#914282"/>
<path d="M207.348 137.932H214.245L214.245 131.036H207.348L207.348 137.932Z" fill="#B35BA5"/>
<path d="M207.348 103.448H214.245L214.245 96.5513H207.348L207.348 103.448Z" fill="#B35BA5"/>
<path d="M124.59 41.3797H131.485V34.4844H124.59V41.3797Z" fill="#231F20"/>
<path d="M117.691 41.3797H124.589V34.4844H117.691V41.3797Z" fill="#914282"/>
<path d="M131.484 41.3797H138.381V34.4844H131.484V41.3797Z" fill="#B35BA5"/>
<path d="M152.176 41.3797H159.073V34.4844H152.176V41.3797Z" fill="#B35BA5"/>
<path d="M145.277 41.3797H152.174V34.4844H145.277V41.3797Z" fill="#B35BA5"/>
<path d="M138.383 41.3797H145.28V34.4844H138.383V41.3797Z" fill="#B35BA5"/>
<path d="M97.004 41.3797H103.901V34.4844H97.004V41.3797Z" fill="#231F20"/>
<path d="M110.793 41.3797H117.69V34.4844H110.793V41.3797Z" fill="#B35BA5"/>
<path d="M90.1056 41.3797H97.0026V34.4844H90.1056V41.3797Z" fill="#231F20"/>
<path d="M103.899 41.3797H110.793V34.4844H103.899V41.3797Z" fill="#B35BA5"/>
<path d="M165.969 41.3797H172.866V34.4844H165.969V41.3797Z" fill="#B35BA5"/>
<path d="M207.348 41.3797H214.245V34.4844H207.348V41.3797Z" fill="#B35BA5"/>
<path d="M193.555 41.3797H200.45V34.4844H193.555V41.3797Z" fill="#B35BA5"/>
<path d="M159.07 41.3797H165.967V34.4844H159.07V41.3797Z" fill="#B35BA5"/>
<path d="M207.348 48.2762H214.245V41.3809H207.348V48.2762Z" fill="#B35BA5"/>
<path d="M200.45 41.3797H207.345V34.4844H200.45V41.3797Z" fill="#B35BA5"/>
<path d="M186.656 41.3797H193.553V34.4844H186.656V41.3797Z" fill="#B35BA5"/>
<path d="M207.348 55.1719H214.245V48.2762H207.348V55.1719Z" fill="#B35BA5"/>
<path d="M172.863 41.3797H179.76V34.4844H172.863V41.3797Z" fill="#B35BA5"/>
<path d="M179.762 41.3797H186.656V34.4844H179.762V41.3797Z" fill="#B35BA5"/>
<path d="M207.348 158.621H214.245V151.725H207.348V158.621Z" fill="#914282"/>
<path d="M69.4181 151.725H76.3151V144.828H69.4181V151.725Z" fill="#231F20"/>
<path d="M69.4181 124.137H76.3151V117.242H69.4181V124.137Z" fill="#231F20"/>
<path d="M69.4181 131.036H76.3151V124.139H69.4181V131.036Z" fill="#B35BA5"/>
<path d="M69.418 137.932H76.315L76.3151 131.036H69.4181L69.418 137.932Z" fill="#B35BA5"/>
<path d="M69.4181 158.622H76.3151V151.725H69.4181V158.622Z" fill="#690A0D"/>
<path d="M69.4181 55.1724L76.3126 55.1719L76.3134 48.2754H69.4181V55.1724Z" fill="#B35BA5"/>
<path d="M69.418 179.311H76.315L76.3151 172.414H69.4181L69.418 179.311Z" fill="#231F20"/>
<path d="M76.3126 179.311H83.2071L83.2079 172.415H76.3126V179.311Z" fill="#231F20"/>
<path d="M69.4181 172.414H76.3151V165.52H69.4181V172.414Z" fill="#AA1318"/>
<path d="M69.4181 165.518H76.3151V158.622H69.4181V165.518Z" fill="#AA1318"/>
<path d="M69.418 144.827H76.315V137.932H69.418V144.827Z" fill="#B35BA5"/>
<path d="M69.4181 117.242H76.3151L76.315 110.346H69.418L69.4181 117.242Z" fill="#231F20"/>
<path d="M69.4181 82.7584H76.3151V75.8613H69.4181V82.7584Z" fill="#B35BA5"/>
<path d="M69.4181 68.9656H76.3151V62.0703H69.4181V68.9656Z" fill="#B35BA5"/>
<path d="M69.4181 62.0689H76.3151V55.1719L69.4181 55.1724V62.0689Z" fill="#B35BA5"/>
<path d="M69.4181 75.8613H76.3151V68.9656H69.4181V75.8613Z" fill="#B35BA5"/>
<path d="M69.4181 103.448H76.3151V96.5508H69.4181V103.448Z" fill="#B35BA5"/>
<path d="M69.4181 89.6568H76.3151V82.7598H69.4181V89.6568Z" fill="#B35BA5"/>
<path d="M69.418 110.346H76.315L76.3151 103.449H69.4181L69.418 110.346Z" fill="#914282"/>
<path d="M69.4181 96.5508H76.3151L76.315 89.6543H69.418L69.4181 96.5508Z" fill="#B35BA5"/>
<path d="M76.3126 186.207H83.2071V179.311H76.3126V186.207Z" fill="#914282"/>
<path d="M172.863 186.207H179.76V179.311H172.863V186.207Z" fill="#914282"/>
<path d="M179.762 186.207H186.657V179.311H179.762V186.207Z" fill="#231F20"/>
<path d="M165.969 186.207H172.866V179.311H165.969V186.207Z" fill="#B35BA5"/>
<path d="M159.07 186.208L165.967 186.207V179.311H159.07L159.07 186.208Z" fill="#B35BA5"/>
<path d="M152.176 186.207L159.07 186.208L159.071 179.311L152.176 179.311V186.207Z" fill="#B35BA5"/>
<path d="M117.691 186.207H124.589V179.311H117.691V186.207Z" fill="#914282"/>
<path d="M97.004 186.207H103.901V179.311H97.004V186.207Z" fill="#914282"/>
<path d="M110.793 186.208L117.69 186.207V179.311H110.793L110.793 186.208Z" fill="#6D2B5F"/>
<path d="M103.899 186.207L110.793 186.208L110.793 179.311H103.899V186.207Z" fill="#231F20"/>
<path d="M90.1056 186.207H97.0026V179.311H90.1056V186.207Z" fill="#914282"/>
<path d="M131.484 186.207H138.381V179.311H131.484V186.207Z" fill="#231F20"/>
<path d="M83.2071 186.207H90.1041V179.311H83.2071V186.207Z" fill="#914282"/>
<path d="M145.277 186.207H152.174V179.311H145.277V186.207Z" fill="#231F20"/>
<path d="M124.59 186.207H131.485V179.311H124.59V186.207Z" fill="#914282"/>
<path d="M76.3126 34.483H83.2096V27.5859H76.3126V34.483Z" fill="#231F20"/>
<path d="M214.242 55.1724H221.139V48.2754H214.242V55.1724Z" fill="#B35BA5"/>
<path d="M214.242 62.0689H221.139V55.1724H214.242V62.0689Z" fill="#B35BA5"/>
<path d="M214.242 68.9656H221.139V62.0703H214.242V68.9656Z" fill="#B35BA5"/>
<path d="M214.242 82.7584H221.139V75.8613H214.242V82.7584Z" fill="#B35BA5"/>
<path d="M200.449 34.483H207.345L207.345 27.5865H200.449L200.449 34.483Z" fill="#B35BA5"/>
<path d="M214.242 41.3797H221.139V34.4844H214.242V41.3797Z" fill="#B35BA5"/>
<path d="M214.242 34.483H221.139L221.139 27.5865H214.242L214.242 34.483Z" fill="#B35BA5"/>
<path d="M214.242 48.2754H221.139V41.3809H214.242V48.2754Z" fill="#B35BA5"/>
<path d="M207.348 34.483H214.245L214.245 27.5865H207.348L207.348 34.483Z" fill="#B35BA5"/>
<path d="M214.242 89.6568H221.139V82.7598H214.242V89.6568Z" fill="#B35BA5"/>
<path d="M214.242 75.8613H221.139V68.9656H214.242V75.8613Z" fill="#B35BA5"/>
<path d="M214.242 131.036H221.139V124.139H214.242V131.036Z" fill="#B35BA5"/>
<path d="M214.242 144.827H221.139V137.932H214.242V144.827Z" fill="#B35BA5"/>
<path d="M214.242 137.932H221.139L221.139 131.036H214.242L214.242 137.932Z" fill="#B35BA5"/>
<path d="M214.242 151.725H221.139V144.828H214.242V151.725Z" fill="#B35BA5"/>
<path d="M214.242 110.346H221.139V103.449H214.242V110.346Z" fill="#B35BA5"/>
<path d="M214.242 103.448H221.139V96.5508H214.242V103.448Z" fill="#B35BA5"/>
<path d="M214.242 96.5508H221.139L221.139 89.6543H214.242L214.242 96.5508Z" fill="#B35BA5"/>
<path d="M214.242 124.137H221.139V117.242H214.242V124.137Z" fill="#B35BA5"/>
<path d="M214.242 117.242H221.139V110.346H214.242V117.242Z" fill="#B35BA5"/>
<path d="M131.484 34.483H138.381L138.381 27.5863H131.484L131.484 34.483Z" fill="#B35BA5"/>
<path d="M97.004 34.483H103.901L103.901 27.5865H97.0039L97.004 34.483Z" fill="#C971BF"/>
<path d="M103.899 34.483H110.794L110.794 27.5865H103.898L103.899 34.483Z" fill="#231F20"/>
<path d="M90.1056 34.483H97.0026V27.5859L90.1055 27.5865L90.1056 34.483Z" fill="#C971BF"/>
<path d="M110.794 34.483H117.69L117.69 27.5865H110.794L110.794 34.483Z" fill="#C971BF"/>
<path d="M117.691 34.483H124.589L124.588 27.5865H117.691L117.691 34.483Z" fill="#B35BA5"/>
<path d="M124.59 34.483H131.485L131.485 27.5865H124.59L124.59 34.483Z" fill="#231F20"/>
<path d="M69.4181 41.3797H76.3151V34.4844H69.4181V41.3797Z" fill="#231F20"/>
<path d="M83.2071 34.483H90.1041V27.5859H83.2071V34.483Z" fill="#C971BF"/>
<path d="M214.242 158.621H221.139V151.725H214.242V158.621Z" fill="#914282"/>
<path d="M138.383 34.483H145.28L145.28 27.5863H138.383L138.383 34.483Z" fill="#B35BA5"/>
<path d="M165.969 34.483H172.866L172.866 27.5865H165.969L165.969 34.483Z" fill="#B35BA5"/>
<path d="M172.863 34.483H179.76L179.76 27.5865H172.863L172.863 34.483Z" fill="#B35BA5"/>
<path d="M179.762 34.483H186.657L186.657 27.5865H179.762L179.762 34.483Z" fill="#B35BA5"/>
<path d="M186.657 34.483H193.553L193.553 27.5865H186.657L186.657 34.483Z" fill="#B35BA5"/>
<path d="M193.555 34.483H200.449L200.45 27.5859L193.555 27.5865L193.555 34.483Z" fill="#B35BA5"/>
<path d="M145.281 34.483H152.177V27.5859H145.281V34.483Z" fill="#B35BA5"/>
<path d="M69.4181 48.2754H76.3134L76.3126 41.3809H69.4181V48.2754Z" fill="#C971BF"/>
<path d="M152.177 34.483H159.071L159.071 27.5865H152.176L152.177 34.483Z" fill="#B35BA5"/>
<path d="M159.071 34.483H165.967L165.967 27.5863H159.07L159.071 34.483Z" fill="#B35BA5"/>
<path d="M303.899 68.9656H310.794V62.0703H303.899V68.9656Z" fill="#231F20"/>
<path d="M303.899 82.7584H310.794V75.8613H303.899V82.7584Z" fill="#231F20"/>
<path d="M303.899 89.6568H310.794V82.7598H303.899V89.6568Z" fill="#231F20"/>
<path d="M269.418 96.5508H276.315L276.315 89.6543H269.418L269.418 96.5508Z" fill="#B35BA5"/>
<path d="M310.793 75.8619H317.69V68.9648H310.793V75.8619Z" fill="#231F20"/>
<path d="M7.34766 137.932H14.2447V131.035H7.34766V137.932Z" fill="#B35BA5"/>
<path d="M7.34766 131.035H14.2447L14.2448 124.139H7.34775L7.34766 131.035Z" fill="#B35BA5"/>
<path d="M7.34775 124.137H14.2448V117.242H7.34775V124.137Z" fill="#C971BF"/>
<path d="M7.34775 117.242H14.2448L14.2447 110.346H7.34766L7.34775 117.242Z" fill="#231F20"/>
<path d="M7.34766 110.346H14.2447L14.2448 103.449H7.34775L7.34766 110.346Z" fill="#231F20"/>
<path d="M7.34775 158.622H14.2448V151.725H7.34775V158.622Z" fill="#B35BA5"/>
<path d="M7.34775 165.518H14.2448V158.622H7.34775V165.518Z" fill="#914282"/>
<path d="M7.34775 151.725H14.2448V144.828H7.34775V151.725Z" fill="#B35BA5"/>
<path d="M7.34775 172.415H14.2448V165.52H7.34775V172.415Z" fill="#231F20"/>
<path d="M7.34766 144.827H14.2447V137.932H7.34766V144.827Z" fill="#B35BA5"/>
<path d="M283.207 96.5513H290.104V89.6543H283.207V96.5513Z" fill="#B35BA5"/>
<path d="M283.207 103.448H290.104L290.104 96.5513H283.207L283.207 103.448Z" fill="#B35BA5"/>
<path d="M283.207 89.6568H290.104V82.7598H283.207V89.6568Z" fill="#B35BA5"/>
<path d="M283.207 117.243H290.104V110.346H283.207V117.243Z" fill="#B35BA5"/>
<path d="M283.207 55.1724H290.104V48.2754H283.207V55.1724Z" fill="#C971BF"/>
<path d="M283.207 82.7584H290.104V75.8613H283.207V82.7584Z" fill="#B35BA5"/>
<path d="M283.207 62.0689H290.104V55.1724H283.207V62.0689Z" fill="#B35BA5"/>
<path d="M283.207 68.9656H290.104V62.0703H283.207V68.9656Z" fill="#B35BA5"/>
<path d="M283.207 75.8613H290.104V68.9656H283.207V75.8613Z" fill="#B35BA5"/>
<path d="M283.207 124.137H290.104L290.104 117.243H283.207L283.207 124.137Z" fill="#B35BA5"/>
<path d="M283.207 110.346H290.104L290.104 103.449H283.207L283.207 110.346Z" fill="#B35BA5"/>
<path d="M283.207 165.518H290.104V158.621H283.207V165.518Z" fill="#B35BA5"/>
<path d="M283.207 179.311H290.104V172.414H283.207V179.311Z" fill="#B35BA5"/>
<path d="M283.207 186.208H290.104L290.104 179.311H283.207L283.207 186.208Z" fill="#B35BA5"/>
<path d="M283.207 151.725H290.104V144.828H283.207V151.725Z" fill="#B35BA5"/>
<path d="M283.207 158.621H290.104V151.725H283.207V158.621Z" fill="#B35BA5"/>
<path d="M283.207 144.827H290.104V137.932H283.207V144.827Z" fill="#B35BA5"/>
<path d="M283.207 137.932H290.104V131.035H283.207V137.932Z" fill="#B35BA5"/>
<path d="M283.207 131.035H290.104L290.104 124.139H283.207L283.207 131.035Z" fill="#B35BA5"/>
<path d="M283.207 48.2754H290.104V41.3809H283.207V48.2754Z" fill="#231F20"/>
<path d="M283.207 193.104H290.104L290.104 186.208H283.207L283.207 193.104Z" fill="white"/>
<path d="M283.207 41.3797H290.104V34.4844H283.207V41.3797Z" fill="#231F20"/>
<path d="M283.207 172.414H290.104V165.52H283.207V172.414Z" fill="#B35BA5"/>
<path d="M283.207 200.001H290.104V193.105H283.207V200.001Z" fill="#231F20"/>
<path d="M276.313 131.036H283.208L283.207 124.139H276.313V131.036Z" fill="#B35BA5"/>
<path d="M14.2422 144.827H21.1392V137.932H14.2422V144.827Z" fill="#231F20"/>
<path d="M14.2423 151.725H21.1393V144.828H14.2423V151.725Z" fill="#914282"/>
<path d="M14.2423 131.036H21.1393V124.139H14.2423V131.036Z" fill="#B35BA5"/>
<path d="M14.2423 124.137H21.1393V117.242H14.2423V124.137Z" fill="#B35BA5"/>
<path d="M14.2423 117.242H21.1393L21.1392 110.346H14.2422L14.2423 117.242Z" fill="#B35BA5"/>
<path d="M14.2423 179.311H21.1393V172.414H14.2423V179.311Z" fill="#231F20"/>
<path d="M14.2423 172.414H21.1393V165.52H14.2423V172.414Z" fill="#914282"/>
<path d="M14.2423 158.622H21.1393V151.725H14.2423V158.622Z" fill="#B35BA5"/>
<path d="M14.2423 165.518H21.1393V158.622H14.2423V165.518Z" fill="#B35BA5"/>
<path d="M14.2422 96.5513H21.1392V89.6543H14.2422V96.5513Z" fill="#231F20"/>
<path d="M14.2423 103.448H21.1393L21.1392 96.5513H14.2422L14.2423 103.448Z" fill="#231F20"/>
<path d="M14.2422 110.346H21.1392L21.1393 103.449H14.2423L14.2422 110.346Z" fill="#C971BF"/>
<path d="M269.418 27.5865H276.315V20.6895H269.418V27.5865Z" fill="#231F20"/>
<path d="M269.418 82.7584H276.315V75.8613H269.418V82.7584Z" fill="#B35BA5"/>
<path d="M269.418 75.8613H276.315L276.315 68.9648H269.418L269.418 75.8613Z" fill="#B35BA5"/>
<path d="M269.418 68.9648H276.315L276.315 62.0703H269.418L269.418 68.9648Z" fill="#B35BA5"/>
<path d="M269.418 89.6568H276.315V82.7598H269.418V89.6568Z" fill="#B35BA5"/>
<path d="M269.418 48.2762H276.315V41.3809H269.418V48.2762Z" fill="#B35BA5"/>
<path d="M269.418 62.0689H276.315V55.1719H269.418V62.0689Z" fill="#B35BA5"/>
<path d="M269.418 41.3797H276.315V34.4844H269.418V41.3797Z" fill="#B35BA5"/>
<path d="M269.418 34.483H276.315L276.315 27.5865H269.418L269.418 34.483Z" fill="#C971BF"/>
<path d="M269.418 55.1719H276.315V48.2762H269.418V55.1719Z" fill="#B35BA5"/>
<path d="M14.2422 137.932H21.1392L21.1393 131.036H14.2423L14.2422 137.932Z" fill="#B35BA5"/>
<path d="M276.313 165.518H283.207V158.621H276.313V165.518Z" fill="#B35BA5"/>
<path d="M276.313 172.413H283.208V165.518L276.313 165.518V172.413Z" fill="#B35BA5"/>
<path d="M276.313 158.621L283.208 158.622V151.725H276.313V158.621Z" fill="#B35BA5"/>
<path d="M276.313 186.208L283.207 186.208L283.207 179.311L276.313 179.311V186.208Z" fill="#B35BA5"/>
<path d="M276.313 179.311L283.207 179.311V172.414H276.313L276.313 179.311Z" fill="#6D2B5F"/>
<path d="M276.313 151.725H283.208L283.207 144.828H276.313V151.725Z" fill="#984589"/>
<path d="M276.313 193.104H283.207L283.208 186.207L276.313 186.208L276.313 193.104Z" fill="#914282"/>
<path d="M276.312 137.932L283.207 137.932L283.208 131.036H276.313L276.312 137.932Z" fill="#B35BA5"/>
<path d="M276.312 144.827H283.207V137.932L276.312 137.932V144.827Z" fill="#B35BA5"/>
<path d="M276.313 124.137H283.207L283.208 117.242H276.313V124.137Z" fill="#B35BA5"/>
<path d="M276.313 200.001H283.207V193.105H276.313V200.001Z" fill="#231F20"/>
<path d="M276.313 48.2762H283.208L283.207 41.3809H276.313V48.2762Z" fill="#B35BA5"/>
<path d="M276.313 34.483H283.208V27.5859H276.313V34.483Z" fill="#231F20"/>
<path d="M276.313 41.3797H283.207V34.4844H276.313V41.3797Z" fill="#C971BF"/>
<path d="M276.313 117.242L283.207 117.243V110.346L276.313 110.346L276.313 117.242Z" fill="#B35BA5"/>
<path d="M276.313 103.448H283.207L283.208 96.5508H276.313V103.448Z" fill="#B35BA5"/>
<path d="M276.313 96.5508L283.207 96.5513V89.6543L276.313 89.6545L276.313 96.5508Z" fill="#B35BA5"/>
<path d="M276.313 110.346L283.208 110.346L283.207 103.449H276.313L276.313 110.346Z" fill="#B35BA5"/>
<path d="M276.313 89.6568H283.207V82.7598H276.313V89.6568Z" fill="#B35BA5"/>
<path d="M276.313 82.7584H283.207V75.8613H276.313V82.7584Z" fill="#B35BA5"/>
<path d="M276.313 68.9656H283.207V62.0703H276.313V68.9656Z" fill="#B35BA5"/>
<path d="M276.313 55.1724H283.207L283.208 48.2762H276.313V55.1724Z" fill="#B35BA5"/>
<path d="M276.313 62.0689H283.207L283.208 55.1719L276.313 55.1724V62.0689Z" fill="#B35BA5"/>
<path d="M276.313 75.8613L283.208 75.8621V68.9651L276.313 68.9656V75.8613Z" fill="#B35BA5"/>
<path d="M297.004 193.104H303.901V186.207H297.004V193.104Z" fill="#231F20"/>
<path d="M297.004 186.207H303.901L303.901 179.311H297.004L297.004 186.207Z" fill="#231F20"/>
<path d="M297.004 179.311H303.901L303.901 172.414H297.004L297.004 179.311Z" fill="#231F20"/>
<path d="M297.004 172.414H303.901V165.52H297.004V172.414Z" fill="#231F20"/>
<path d="M297.004 62.0689H303.901V55.1719H297.004V62.0689Z" fill="#231F20"/>
<path d="M0.449219 137.932H7.34625V131.035H0.449219V137.932Z" fill="#231F20"/>
<path d="M0.44931 151.725H7.34634V144.828H0.44931V151.725Z" fill="#231F20"/>
<path d="M0.449219 144.827H7.34625V137.932H0.449219V144.827Z" fill="#231F20"/>
<path d="M0.449219 131.035H7.34625L7.34634 124.139H0.44931L0.449219 131.035Z" fill="#231F20"/>
<path d="M0.44931 124.137H7.34634V117.242H0.44931V124.137Z" fill="#231F20"/>
<path d="M0.44931 165.518H7.34634V158.621H0.44931V165.518Z" fill="#231F20"/>
<path d="M0.44931 158.621H7.34634V151.725H0.44931V158.621Z" fill="#231F20"/>
<path d="M290.106 68.9656H297.003V62.0703H290.106V68.9656Z" fill="#231F20"/>
<path d="M290.105 75.8619H297.003L297.003 68.9656H290.106L290.105 75.8619Z" fill="#231F20"/>
<path d="M290.106 82.7584H297.003L297.003 75.8619H290.105L290.106 82.7584Z" fill="#231F20"/>
<path d="M290.106 89.6568H297.003V82.7598H290.106V89.6568Z" fill="#231F20"/>
<path d="M290.105 96.5513H297.003V89.6543H290.105V96.5513Z" fill="#231F20"/>
<path d="M290.106 62.0689H297.003V55.1719H290.106V62.0689Z" fill="#231F20"/>
<path d="M290.106 103.448H297.003L297.003 96.5513H290.105L290.106 103.448Z" fill="#231F20"/>
<path d="M290.106 55.1719H297.003V48.2754H290.106V55.1719Z" fill="#231F20"/>
<path d="M290.106 151.725H297.003V144.828H290.106V151.725Z" fill="#231F20"/>
<path d="M290.106 158.622H297.003V151.725H290.106V158.622Z" fill="#231F20"/>
<path d="M290.105 144.827H297.003V137.932H290.105V144.827Z" fill="#231F20"/>
<path d="M290.106 165.518H297.003V158.622H290.106V165.518Z" fill="#231F20"/>
<path d="M290.106 110.346H297.003V103.449H290.106V110.346Z" fill="#231F20"/>
<path d="M290.106 124.137H297.003V117.242H290.106V124.137Z" fill="#231F20"/>
<path d="M290.106 117.242H297.003V110.346H290.106V117.242Z" fill="#231F20"/>
<path d="M290.105 137.932H297.003V131.035H290.105V137.932Z" fill="#231F20"/>
<path d="M290.105 131.035H297.003L297.003 124.139H290.106L290.105 131.035Z" fill="#231F20"/>
<path d="M290.106 172.415H297.003V165.52H290.106V172.415Z" fill="#914282"/>
<path d="M290.105 186.208H297.003V179.311H290.105V186.208Z" fill="#914282"/>
<path d="M290.105 179.311H297.003L297.003 172.415H290.106L290.105 179.311Z" fill="#914282"/>
<path d="M290.106 193.104H297.003L297.003 186.208H290.105L290.106 193.104Z" fill="#914282"/>
<path d="M290.106 200.001H297.003V193.105H290.106V200.001Z" fill="#231F20"/>
</svg>
