<svg width="173" height="200" viewBox="0 0 173 200" fill="none" xmlns="http://www.w3.org/2000/svg">
<path d="M97.33 194.593H102.736V189.188H97.33V194.593Z" fill="#231F20"/>
<path d="M91.9277 194.593H97.3322V189.188H91.9277V194.593Z" fill="#F9A667"/>
<path d="M102.736 194.593H108.142V189.188H102.736V194.593Z" fill="#F9A667"/>
<path d="M75.709 194.593H81.1134V189.188H75.709V194.593Z" fill="#CC7643"/>
<path d="M86.5215 194.593H91.9277V189.188H86.5215V194.593Z" fill="#F9A667"/>
<path d="M118.951 194.593H124.357V189.188H118.951V194.593Z" fill="#F9A667"/>
<path d="M108.142 194.593H113.547V189.188H108.142V194.593Z" fill="#231F20"/>
<path d="M113.545 194.593H118.951V189.188H113.545V194.593Z" fill="#F9A667"/>
<path d="M81.1152 194.593H86.5215V189.188H81.1152V194.593Z" fill="#231F20"/>
<path d="M124.357 194.593H129.763V189.188H124.357V194.593Z" fill="#F9A667"/>
<path d="M70.3027 194.593H75.709V189.188H70.3027V194.593Z" fill="#231F20"/>
<path d="M43.2754 189.188V194.593H48.6812V189.188H43.2754Z" fill="#231F20"/>
<path d="M48.6812 194.593H54.0874V189.188H48.6812V194.593Z" fill="#F9A667"/>
<path d="M59.4941 194.593H64.8999V189.188H59.4941V194.593Z" fill="#F9A667"/>
<path d="M64.8965 194.593H70.3027V189.188H64.8965V194.593Z" fill="#F9A667"/>
<path d="M54.0874 194.593H59.4923V189.188H54.0874V194.593Z" fill="#231F20"/>
<path d="M37.8692 32.4318H43.275V27.0273H37.8692V32.4318Z" fill="#8B4E23"/>
<path d="M32.4669 32.4319H37.8713V27.0275H32.4669V32.4319Z" fill="#231F20"/>
<path d="M43.275 32.4318H48.6812V27.0273H43.275V32.4318Z" fill="#231F20"/>
<path d="M21.6544 32.4318H27.0601V27.0273H21.6544V32.4318Z" fill="#231F20"/>
<path d="M129.763 194.593H135.168V189.188H129.763V194.593Z" fill="#F9A667"/>
<path d="M10.8458 32.4318H16.2502V27.0273H10.8458V32.4318Z" fill="#231F20"/>
<path d="M16.2481 32.4318H21.6544V27.0273H16.2481V32.4318Z" fill="#231F20"/>
<path d="M70.3028 32.4318H75.7086V27.0273H70.3028V32.4318Z" fill="#AD6730"/>
<path d="M91.9278 32.4318H97.3322V27.0273H91.9278V32.4318Z" fill="#AD6730"/>
<path d="M97.33 32.4319H102.736V27.0275H97.33V32.4319Z" fill="#AD6730"/>
<path d="M86.5215 32.4318H91.9278V27.0273H86.5215V32.4318Z" fill="#AD6730"/>
<path d="M102.736 32.4319L108.142 32.4318V27.0273L102.736 27.0275V32.4319Z" fill="#AD6730"/>
<path d="M64.8965 32.4318H70.3028V27.0273H64.8965V32.4318Z" fill="#231F20"/>
<path d="M81.1153 32.4318H86.5215V27.0273H81.1153V32.4318Z" fill="#AD6730"/>
<path d="M75.7086 32.4318H81.1135V27.0273H75.7086V32.4318Z" fill="#AD6730"/>
<path d="M5.43933 27.0269L10.8458 27.0273L10.8451 21.6211H5.43933V27.0269Z" fill="#231F20"/>
<path d="M10.8458 27.0273H16.2502L16.2501 21.6211H10.8451L10.8458 27.0273Z" fill="#8B4E23"/>
<path d="M16.2481 27.0273H21.6544L21.6538 21.6211H16.248L16.2481 27.0273Z" fill="#8B4E23"/>
<path d="M108.142 32.4318H113.547V27.0273H108.142V32.4318Z" fill="#AD6730"/>
<path d="M21.6544 27.0273H27.0601L27.0601 21.6211H21.6538L21.6544 27.0273Z" fill="#8B4E23"/>
<path d="M64.8965 27.0273H70.3028L70.3023 21.6211H64.8965L64.8965 27.0273Z" fill="#231F20"/>
<path d="M70.3028 27.0273H75.7086L75.7085 21.6211H70.3023L70.3028 27.0273Z" fill="#D57834"/>
<path d="M32.4669 27.0275H37.8713L37.8712 21.6211H32.4668L32.4669 27.0275Z" fill="#8B4E23"/>
<path d="M37.8692 27.0273H43.275L43.2749 21.6211H37.8691L37.8692 27.0273Z" fill="#AD6730"/>
<path d="M27.0601 27.0273L32.4669 27.0275L32.4668 21.6211H27.0601L27.0601 27.0273Z" fill="#231F20"/>
<path d="M43.275 27.0273H48.6812L48.6812 21.6211H43.2749L43.275 27.0273Z" fill="#231F20"/>
<path d="M135.166 194.593H140.572V189.188H135.166V194.593Z" fill="#231F20"/>
<path d="M75.7086 27.0273H81.1135L81.1134 21.6211H75.7085L75.7086 27.0273Z" fill="#AD6730"/>
<path d="M135.166 178.378H140.572V172.973H135.166V178.378Z" fill="#FBCA8E"/>
<path d="M135.166 183.785H140.572L140.572 178.378H135.166L135.166 183.785Z" fill="#FBCA8E"/>
<path d="M135.166 189.19H140.572V183.785H135.166V189.19Z" fill="#FBCA8E"/>
<path d="M135.166 172.973H140.572L140.572 167.566H135.166L135.166 172.973Z" fill="#FBCA8E"/>
<path d="M135.166 167.566H140.572L140.572 162.162H135.166L135.166 167.566Z" fill="#FBCA8E"/>
<path d="M135.166 156.757H140.572V151.352H135.166V156.757Z" fill="#FBCA8E"/>
<path d="M135.166 151.352H140.572V145.945H135.166V151.352Z" fill="#FDE8B9"/>
<path d="M135.166 145.945H140.572V140.541H135.166V145.945Z" fill="#231F20"/>
<path d="M135.166 162.162H140.572L140.572 156.756H135.166L135.166 162.162Z" fill="#FBCA8E"/>
<path d="M86.5215 27.0273H91.9278L91.9273 21.6211H86.5215L86.5215 27.0273Z" fill="#AD6730"/>
<path d="M108.142 27.0273H113.547L113.547 21.6211H108.143L108.142 27.0273Z" fill="#D57834"/>
<path d="M118.951 27.0269H124.357V21.6211H118.951V27.0269Z" fill="#231F20"/>
<path d="M113.545 27.0269H118.951V21.6211H113.545V27.0269Z" fill="#D57834"/>
<path d="M102.736 27.0275L108.142 27.0273L108.143 21.6211H102.736L102.736 27.0275Z" fill="#AD6730"/>
<path d="M91.9278 27.0273H97.3322L97.3322 21.6211H91.9273L91.9278 27.0273Z" fill="#AD6730"/>
<path d="M81.1153 27.0273H86.5215L86.5215 21.6211H81.1152L81.1153 27.0273Z" fill="#AD6730"/>
<path d="M97.33 27.0275H102.736L102.736 21.6211H97.33L97.33 27.0275Z" fill="#AD6730"/>
<path d="M75.709 183.785H81.1134V178.379H75.709V183.785Z" fill="#F9A667"/>
<path d="M102.736 37.8374H108.142L108.142 32.4318L102.736 32.4319L102.736 37.8374Z" fill="#AD6730"/>
<path d="M108.142 37.8374H113.547L113.547 32.4318H108.142L108.142 37.8374Z" fill="#AD6730"/>
<path d="M70.3027 37.8374H75.7085L75.7086 32.4318H70.3028L70.3027 37.8374Z" fill="#8B4E23"/>
<path d="M113.545 37.8374H118.951V32.4316H113.545V37.8374Z" fill="#AD6730"/>
<path d="M97.33 37.8374H102.736L102.736 32.4319H97.33L97.33 37.8374Z" fill="#8B4E23"/>
<path d="M81.1152 37.8374H86.521L86.5215 32.4318H81.1153L81.1152 37.8374Z" fill="#231F20"/>
<path d="M124.357 37.8374H129.763V32.4316H124.357V37.8374Z" fill="#231F20"/>
<path d="M91.9277 37.8374H97.3322L97.3322 32.4318H91.9278L91.9277 37.8374Z" fill="#231F20"/>
<path d="M75.7085 37.8374H81.1134L81.1135 32.4318H75.7086L75.7085 37.8374Z" fill="#8B4E23"/>
<path d="M86.521 37.8374H91.9277L91.9278 32.4318H86.5215L86.521 37.8374Z" fill="#231F20"/>
<path d="M118.951 37.8374H124.357V32.4316H118.951V37.8374Z" fill="#D57834"/>
<path d="M124.357 54.0529H129.763V48.6484H124.357V54.0529Z" fill="#231F20"/>
<path d="M124.357 48.6499H129.763V43.2441H124.357V48.6499Z" fill="#8B4E23"/>
<path d="M124.357 43.2441H129.763V37.8374H124.357V43.2441Z" fill="#D57834"/>
<path d="M64.8965 37.8374H70.3027L70.3028 32.4318H64.8965L64.8965 37.8374Z" fill="#231F20"/>
<path d="M113.545 32.4316H118.951L118.951 27.0269H113.545V32.4316Z" fill="#AD6730"/>
<path d="M48.6816 37.8374H54.0874V32.4316L48.6812 32.4318L48.6816 37.8374Z" fill="#231F20"/>
<path d="M43.2754 37.8374H48.6816L48.6812 32.4318H43.275L43.2754 37.8374Z" fill="#231F20"/>
<path d="M54.0874 37.8374H59.4923V32.4316H54.0874V37.8374Z" fill="#231F20"/>
<path d="M59.4941 37.8374H64.8999V32.4316H59.4941V37.8374Z" fill="#231F20"/>
<path d="M37.8691 37.8374H43.2754L43.275 32.4318H37.8692L37.8691 37.8374Z" fill="#231F20"/>
<path d="M32.4668 37.8374H37.8712L37.8713 32.4319H32.4669L32.4668 37.8374Z" fill="#231F20"/>
<path d="M48.6816 183.785H54.0874V178.379H48.6816V183.785Z" fill="#231F20"/>
<path d="M54.0874 183.785H59.4923V178.379H54.0874V183.785Z" fill="#FDE8B9"/>
<path d="M59.4941 183.785H64.8999V178.379H59.4941V183.785Z" fill="#FBCA8E"/>
<path d="M91.9277 183.785H97.3322V178.379H91.9277V183.785Z" fill="#FBCA8E"/>
<path d="M81.1152 183.785H86.521V178.379H81.1152V183.785Z" fill="#231F20"/>
<path d="M86.521 183.785H91.9277V178.379H86.521V183.785Z" fill="#FBCA8E"/>
<path d="M64.8965 183.785H70.3023V178.379H64.8965V183.785Z" fill="#FBCA8E"/>
<path d="M70.3023 183.785H75.709V178.379H70.3023V183.785Z" fill="#231F20"/>
<path d="M124.358 178.378H129.763V172.973H124.358V178.378Z" fill="#FBCA8E"/>
<path d="M124.357 151.351H129.763V145.945H124.357V151.351Z" fill="#FDE8B9"/>
<path d="M124.357 156.757H129.763V151.351H124.357V156.757Z" fill="#FBCA8E"/>
<path d="M97.33 183.785H102.736V178.379H97.33V183.785Z" fill="#FDE8B9"/>
<path d="M124.357 145.945H129.763V140.541H124.357V145.945Z" fill="#231F20"/>
<path d="M113.545 183.785H118.951V178.379H113.545V183.785Z" fill="#231F20"/>
<path d="M108.143 183.785H113.547V178.379H108.143V183.785Z" fill="#CC7643"/>
<path d="M102.736 183.785H108.143V178.379H102.736V183.785Z" fill="#231F20"/>
<path d="M118.951 183.785H124.357L124.358 178.378L118.951 178.379V183.785Z" fill="#FBCA8E"/>
<path d="M124.357 162.162H129.763V156.756H124.357V162.162Z" fill="#FBCA8E"/>
<path d="M124.358 172.973H129.763L129.763 167.566H124.357L124.358 172.973Z" fill="#FBCA8E"/>
<path d="M124.357 167.566H129.763V162.162H124.357V167.566Z" fill="#FBCA8E"/>
<path d="M124.357 183.785H129.763L129.763 178.378H124.358L124.357 183.785Z" fill="#FBCA8E"/>
<path d="M129.763 167.566L135.168 167.567V162.162L129.763 162.162V167.566Z" fill="#FBCA8E"/>
<path d="M129.763 162.162L135.168 162.162L135.168 156.756H129.763V162.162Z" fill="#FBCA8E"/>
<path d="M129.763 178.378H135.168V172.973H129.763V178.378Z" fill="#FBCA8E"/>
<path d="M129.763 172.973H135.168V167.567L129.763 167.566L129.763 172.973Z" fill="#FBCA8E"/>
<path d="M129.763 183.785H135.168L135.168 178.378H129.763L129.763 183.785Z" fill="#FBCA8E"/>
<path d="M129.763 156.757H135.168V151.352L129.763 151.351V156.757Z" fill="#FBCA8E"/>
<path d="M81.1152 189.19H86.521V183.785H81.1152V189.19Z" fill="#231F20"/>
<path d="M129.763 189.188H135.168V183.783H129.764L129.763 189.188Z" fill="#FBCA8E"/>
<path d="M91.9277 189.19H97.3322V183.785H91.9277V189.19Z" fill="#FBCA8E"/>
<path d="M102.736 189.19H108.142L108.143 183.785H102.736L102.736 189.19Z" fill="#FDE8B9"/>
<path d="M97.33 189.188H102.736V183.783H97.33V189.188Z" fill="#FBCA8E"/>
<path d="M86.521 189.19H91.9277V183.785H86.521V189.19Z" fill="#FBCA8E"/>
<path d="M113.545 189.19H118.951V183.785H113.545V189.19Z" fill="#F9A667"/>
<path d="M118.951 189.19H124.357V183.785H118.951V189.19Z" fill="#FBCA8E"/>
<path d="M124.357 189.188H129.763L129.764 183.783H124.357L124.357 189.188Z" fill="#FBCA8E"/>
<path d="M108.142 189.19H113.547V183.785H108.143L108.142 189.19Z" fill="#231F20"/>
<path d="M129.763 151.351L135.168 151.352V145.945H129.763V151.351Z" fill="#FDE8B9"/>
<path d="M129.763 43.2441L135.168 43.2435V37.8377L129.763 37.8374V43.2441Z" fill="#231F20"/>
<path d="M129.763 48.6499H135.168L135.168 43.2435L129.763 43.2441V48.6499Z" fill="#231F20"/>
<path d="M118.951 32.4316H124.357L124.357 27.0269H118.951L118.951 32.4316Z" fill="#D57834"/>
<path d="M124.357 32.4316H129.763L129.763 27.0275L124.357 27.0269L124.357 32.4316Z" fill="#231F20"/>
<path d="M129.763 145.945H135.168V140.541H129.763V145.945Z" fill="#231F20"/>
<path d="M48.6816 189.19H54.0874V183.785H48.6816V189.19Z" fill="#FDE8B9"/>
<path d="M75.709 189.19H81.1134V183.785H75.709V189.19Z" fill="#CC7643"/>
<path d="M43.2754 189.19H48.6816V183.785L43.2754 183.785V189.19Z" fill="#231F20"/>
<path d="M64.8965 189.19H70.3023V183.785H64.8965V189.19Z" fill="#FBCA8E"/>
<path d="M70.3023 189.19H75.709V183.785H70.3023V189.19Z" fill="#231F20"/>
<path d="M54.0874 189.19H59.4923V183.785H54.0874V189.19Z" fill="#FBCA8E"/>
<path d="M59.4941 189.19H64.8999V183.785H59.4941V189.19Z" fill="#FBCA8E"/>
<path d="M81.1152 16.2163H86.521V10.8105H81.1152V16.2163Z" fill="#231F20"/>
<path d="M75.709 16.2163H81.1134V10.8105H75.709V16.2163Z" fill="#231F20"/>
<path d="M43.2754 16.2163H48.6812V10.8105H43.2754V16.2163Z" fill="#231F20"/>
<path d="M86.521 16.2163H91.9273V10.8105H86.521V16.2163Z" fill="#231F20"/>
<path d="M37.8691 16.2163H43.2754V10.8105H37.8691V16.2163Z" fill="#D57834"/>
<path d="M32.4668 16.2163H37.8712V10.8105H32.4668V16.2163Z" fill="#AD6730"/>
<path d="M102.736 16.2163H108.142V10.8105H102.736V16.2163Z" fill="#231F20"/>
<path d="M97.33 16.2163H102.736V10.8105H97.33V16.2163Z" fill="#231F20"/>
<path d="M91.9273 16.2163H97.3322V10.8105H91.9273V16.2163Z" fill="#231F20"/>
<path d="M27.0607 16.2163H32.4668V10.8105H27.0607V16.2163Z" fill="#AD6730"/>
<path d="M10.8457 16.2163H16.2501V10.8105H10.8457V16.2163Z" fill="#231F20"/>
<path d="M21.6543 16.2163H27.0607V10.8105H21.6543V16.2163Z" fill="#AD6730"/>
<path d="M16.248 16.2163H21.6543V10.8105H16.248V16.2163Z" fill="#D57834"/>
<path d="M145.979 172.972H151.384V167.566H145.979V172.972Z" fill="#231F20"/>
<path d="M145.979 167.566H151.384L151.384 162.162H145.979L145.979 167.566Z" fill="#FBCA8E"/>
<path d="M145.979 183.785H151.384V178.379H145.979V183.785Z" fill="#231F20"/>
<path d="M145.979 162.162H151.384L151.384 156.756H145.979L145.979 162.162Z" fill="#FBCA8E"/>
<path d="M145.979 151.351H151.384V145.945H145.979V151.351Z" fill="#231F20"/>
<path d="M145.979 189.19H151.384V183.785H145.979V189.19Z" fill="#FBCA8E"/>
<path d="M145.979 156.757H151.384V151.351H145.979V156.757Z" fill="#FDE8B9"/>
<path d="M145.979 178.379H151.384V172.972H145.979V178.379Z" fill="#231F20"/>
<path d="M145.979 200H151.384V194.594H145.979V200Z" fill="#231F20"/>
<path d="M145.979 194.594H151.384V189.188H145.979V194.594Z" fill="#231F20"/>
<path d="M151.384 156.757H156.791V151.352L151.384 151.351V156.757Z" fill="#231F20"/>
<path d="M151.384 162.162L156.791 162.162V156.756H151.384L151.384 162.162Z" fill="#231F20"/>
<path d="M151.384 189.188L156.791 189.188V183.783H151.385L151.384 189.188Z" fill="#231F20"/>
<path d="M151.384 194.594L156.791 194.593V189.188L151.384 189.188V194.594Z" fill="#F9A667"/>
<path d="M151.384 200H156.791V194.593L151.384 194.594V200Z" fill="#231F20"/>
<path d="M151.384 178.379L156.791 178.378V172.973L151.384 172.972V178.379Z" fill="#231F20"/>
<path d="M151.384 167.566L156.791 167.567L156.791 162.162L151.384 162.162L151.384 167.566Z" fill="#231F20"/>
<path d="M140.572 178.378L145.979 178.379V172.972L140.572 172.973V178.378Z" fill="#FBCA8E"/>
<path d="M140.572 183.785H145.979V178.379L140.572 178.378L140.572 183.785Z" fill="#231F20"/>
<path d="M140.572 145.945H145.979L145.978 140.541H140.572V145.945Z" fill="#231F20"/>
<path d="M140.572 189.19H145.979V183.785H140.572V189.19Z" fill="#FBCA8E"/>
<path d="M140.572 200H145.979V194.594L140.572 194.593L140.572 200Z" fill="#231F20"/>
<path d="M140.572 194.593L145.979 194.594V189.188H140.572V194.593Z" fill="#F9A667"/>
<path d="M140.572 167.566H145.979L145.979 162.162H140.572L140.572 167.566Z" fill="#FBCA8E"/>
<path d="M140.572 151.352L145.979 151.351V145.945H140.572V151.352Z" fill="#FDE8B9"/>
<path d="M140.572 156.757H145.979V151.351L140.572 151.352V156.757Z" fill="#FBCA8E"/>
<path d="M140.572 162.162H145.979L145.979 156.756H140.572L140.572 162.162Z" fill="#FBCA8E"/>
<path d="M140.572 172.973L145.979 172.972V167.566H140.572L140.572 172.973Z" fill="#FBCA8E"/>
<path d="M113.545 21.6211H118.951L118.951 16.2148H113.545V21.6211Z" fill="#231F20"/>
<path d="M97.33 21.6226H102.736L102.736 16.2163H97.33V21.6226Z" fill="#D57834"/>
<path d="M108.143 21.6211H113.547V16.2148H108.143V21.6211Z" fill="#231F20"/>
<path d="M102.736 200H108.142V194.593H102.736L102.736 200Z" fill="#231F20"/>
<path d="M108.142 200H113.547V194.593H108.142V200Z" fill="#231F20"/>
<path d="M91.9273 21.6211H97.3322V16.2148H91.9277L91.9273 21.6211Z" fill="#D57834"/>
<path d="M81.1152 200H86.521L86.5215 194.593H81.1152V200Z" fill="#231F20"/>
<path d="M86.521 200H91.9273L91.9277 194.593H86.5215L86.521 200Z" fill="#231F20"/>
<path d="M91.9273 200H97.3322V194.593H91.9277L91.9273 200Z" fill="#231F20"/>
<path d="M135.166 200H140.572L140.572 194.593H135.166V200Z" fill="#231F20"/>
<path d="M129.764 200H135.168V194.593H129.763L129.764 200Z" fill="#231F20"/>
<path d="M124.357 200H129.764L129.763 194.593H124.357L124.357 200Z" fill="#231F20"/>
<path d="M118.951 200H124.357L124.357 194.593H118.951V200Z" fill="#231F20"/>
<path d="M113.545 200H118.951V194.593H113.545V200Z" fill="#231F20"/>
<path d="M97.33 200H102.736L102.736 194.593H97.33V200Z" fill="#231F20"/>
<path d="M48.6816 200H54.0874V194.593H48.6812L48.6816 200Z" fill="#231F20"/>
<path d="M43.2754 194.593V200H48.6816L48.6812 194.593H43.2754Z" fill="#231F20"/>
<path d="M70.3027 200H75.7085L75.709 194.593H70.3027V200Z" fill="#231F20"/>
<path d="M54.0874 200H59.4923V194.593H54.0874V200Z" fill="#231F20"/>
<path d="M64.8965 200H70.3027V194.593H64.8965V200Z" fill="#231F20"/>
<path d="M75.7085 200H81.1134V194.593H75.709L75.7085 200Z" fill="#231F20"/>
<path d="M59.4941 200H64.8999V194.593H59.4941V200Z" fill="#231F20"/>
<path d="M102.736 21.6211H108.143V16.2148H102.736V21.6211Z" fill="#D57834"/>
<path d="M86.5215 21.6211H91.9273L91.9277 16.2148H86.5215V21.6211Z" fill="#D57834"/>
<path d="M10.8451 21.6211H16.2501V16.2148H10.8457L10.8451 21.6211Z" fill="#D57834"/>
<path d="M16.248 21.6211H21.6538V16.2148H16.248V21.6211Z" fill="#AD6730"/>
<path d="M21.6538 21.6211H27.0601V16.2148H21.6538V21.6211Z" fill="#AD6730"/>
<path d="M32.4668 21.6226H37.8712V16.2163H32.4668V21.6226Z" fill="#231F20"/>
<path d="M5.43933 21.6226H10.8451L10.8457 16.2163L5.43933 16.2168V21.6226Z" fill="#231F20"/>
<path d="M27.0607 21.6226H32.4668V16.2163H27.0607V21.6226Z" fill="#AD6730"/>
<path d="M70.3023 21.6211H75.7085V16.2148H70.3027L70.3023 21.6211Z" fill="#231F20"/>
<path d="M75.7085 21.6211H81.1134V16.2148H75.7085V21.6211Z" fill="#D57834"/>
<path d="M37.8691 21.6211H43.2749V16.2148H37.8691V21.6211Z" fill="#AD6730"/>
<path d="M81.1152 21.6211H86.5215V16.2148H81.1152V21.6211Z" fill="#D57834"/>
<path d="M43.2749 21.6211H48.6812V16.2148H43.2749V21.6211Z" fill="#231F20"/>
<path d="M54.0879 135.134H59.4923V129.729H54.0879V135.134Z" fill="#231F20"/>
<path d="M81.1153 70.271H86.5211V64.8652H81.1153V70.271Z" fill="#F9A667"/>
<path d="M86.5211 70.271H91.9273V64.8652H86.5211V70.271Z" fill="#231F20"/>
<path d="M59.4942 70.271H64.9V64.8652H59.4942V70.271Z" fill="#A9743C"/>
<path d="M75.709 70.271H81.1135V64.8652H75.709V70.271Z" fill="#FBCA8E"/>
<path d="M64.9 70.271H70.3062V64.8652H64.9V70.271Z" fill="#A9743C"/>
<path d="M86.5215 75.6753H91.9273V70.2695H86.5215V75.6753Z" fill="#231F20"/>
<path d="M91.9277 129.729H97.3322V124.324H91.9277V129.729Z" fill="#FDE8B9"/>
<path d="M91.9277 124.324H97.3322V118.918H91.9277V124.324Z" fill="#231F20"/>
<path d="M91.9277 135.134H97.3322V129.729H91.9277V135.134Z" fill="#FBCA8E"/>
<path d="M91.9278 140.541H97.3322L97.3322 135.134H91.9277L91.9278 140.541Z" fill="#FBCA8E"/>
<path d="M54.088 70.271H59.4924V64.8652H54.088V70.271Z" fill="#231F20"/>
<path d="M10.8457 86.4865H16.2501V81.082H10.8457V86.4865Z" fill="#FBCA8E"/>
<path d="M10.8457 102.703H16.2501V97.2969H10.8457V102.703Z" fill="#FBCA8E"/>
<path d="M10.8457 108.109H16.2501V102.703H10.8457V108.109Z" fill="#FBCA8E"/>
<path d="M10.8457 113.514H16.2501V108.109H10.8457V113.514Z" fill="#FBCA8E"/>
<path d="M10.8457 97.2969H16.2501V91.8906H10.8457V97.2969Z" fill="#FBCA8E"/>
<path d="M10.8457 91.8906H16.2501V86.4844H10.8457V91.8906Z" fill="#FBCA8E"/>
<path d="M10.8457 118.919H16.2501V113.514H10.8457V118.919Z" fill="#231F20"/>
<path d="M91.9277 145.945H97.3322L97.3322 140.541H91.9278L91.9277 145.945Z" fill="#FBCA8E"/>
<path d="M37.8692 70.271H43.275V64.8652H37.8692V70.271Z" fill="#FBCA8E"/>
<path d="M48.6817 70.271H54.088V64.8652H48.6817V70.271Z" fill="#A9743C"/>
<path d="M32.4669 70.271H37.8713V64.8652H32.4669V70.271Z" fill="#231F20"/>
<path d="M10.8457 81.082H16.2501V75.6758H10.8457V81.082Z" fill="#FBCA8E"/>
<path d="M43.275 70.271H48.6817V64.8652H43.275V70.271Z" fill="#FBCA8E"/>
<path d="M27.0608 70.271H32.4669V64.8652H27.0608V70.271Z" fill="#FBCA8E"/>
<path d="M10.8458 70.271H16.2502V64.8652H10.8458V70.271Z" fill="#FDE8B9"/>
<path d="M10.8457 75.6758H16.2501L16.2502 70.2695H10.8458L10.8457 75.6758Z" fill="#FBCA8E"/>
<path d="M21.6544 70.271L27.0608 70.271V64.8652L21.6544 64.8652V70.271Z" fill="#FBCA8E"/>
<path d="M16.2481 70.271H21.6544V64.8652H16.2481V70.271Z" fill="#FBCA8E"/>
<path d="M16.248 81.0816H21.6538V75.6758H16.248V81.0816Z" fill="#FBCA8E"/>
<path d="M16.248 75.6758H21.6538L21.6539 70.2695H16.2481L16.248 75.6758Z" fill="#FBCA8E"/>
<path d="M27.0608 75.6754H32.4665V70.2696H27.0608V75.6754Z" fill="#FBCA8E"/>
<path d="M21.6538 75.6758L27.0608 75.6754V70.2696L21.6539 70.2695L21.6538 75.6758Z" fill="#FBCA8E"/>
<path d="M16.248 86.4865H21.6538V81.0816H16.248V86.4865Z" fill="#231F20"/>
<path d="M16.248 108.109H21.6538V102.703H16.248V108.109Z" fill="#231F20"/>
<path d="M32.4665 75.6754H37.8713V70.2696H32.4665V75.6754Z" fill="#FBCA8E"/>
<path d="M16.248 113.514H21.6538V108.109H16.248V113.514Z" fill="#FBCA8E"/>
<path d="M16.248 97.2964H21.6538V91.8906H16.248V97.2964Z" fill="#FBCA8E"/>
<path d="M16.248 91.8906H21.6538V86.4844H16.248V91.8906Z" fill="#FBCA8E"/>
<path d="M16.248 102.703H21.6538V97.2964H16.248V102.703Z" fill="#FBCA8E"/>
<path d="M64.9005 75.6753H70.3062V70.2695H64.9005V75.6753Z" fill="#A9743C"/>
<path d="M91.9277 151.351H97.3322V145.945H91.9277V151.351Z" fill="#FBCA8E"/>
<path d="M37.8692 75.6753H43.275V70.2695H37.8692V75.6753Z" fill="#FBCA8E"/>
<path d="M81.1153 75.6753H86.5215V70.2695H81.1153V75.6753Z" fill="#F9A667"/>
<path d="M70.3028 75.6753H75.7086V70.2695H70.3028V75.6753Z" fill="#FBCA8E"/>
<path d="M59.4942 75.6753H64.9005V70.2695H59.4942V75.6753Z" fill="#A9743C"/>
<path d="M43.275 75.6753H48.6812V70.2695H43.275V75.6753Z" fill="#FBCA8E"/>
<path d="M48.6812 75.6753H54.0875V70.2695H48.6812V75.6753Z" fill="#A9743C"/>
<path d="M54.0875 75.6753H59.4924V70.2695H54.0875V75.6753Z" fill="#A9743C"/>
<path d="M75.7086 75.6753H81.1135V70.2695H75.7086V75.6753Z" fill="#FBCA8E"/>
<path d="M59.4941 151.351H64.8999V145.945H59.4941V151.351Z" fill="#FBCA8E"/>
<path d="M64.8965 151.351H70.3023V145.945H64.8965V151.351Z" fill="#FBCA8E"/>
<path d="M16.248 118.919H21.6538V113.514H16.248V118.919Z" fill="#F9A667"/>
<path d="M86.5215 151.351H91.9277V145.945L86.5215 145.945V151.351Z" fill="#FBCA8E"/>
<path d="M70.3023 151.351H75.7085V145.945H70.3023V151.351Z" fill="#FBCA8E"/>
<path d="M81.1152 151.351H86.5215V145.945H81.1152V151.351Z" fill="#FBCA8E"/>
<path d="M75.7085 151.351H81.1134V145.945H75.7085V151.351Z" fill="#FBCA8E"/>
<path d="M54.0879 151.351H59.4923V145.945H54.0879V151.351Z" fill="#231F20"/>
<path d="M16.248 124.324H21.6538V118.918H16.248V124.324Z" fill="#231F20"/>
<path d="M70.3028 70.271H75.709V64.8652H70.3028V70.271Z" fill="#FBCA8E"/>
<path d="M5.43933 86.4865H10.8457V81.082H5.43933V86.4865Z" fill="#FBCA8E"/>
<path d="M5.43933 91.8921H10.8451L10.8457 86.4865H5.43933V91.8921Z" fill="#FBCA8E"/>
<path d="M5.43937 75.6754L10.8457 75.6758L10.8458 70.2695L5.43937 70.2696V75.6754Z" fill="#FDE8B9"/>
<path d="M5.43937 70.271L10.8458 70.271V64.8652L5.43937 64.8652V70.271Z" fill="#231F20"/>
<path d="M5.43933 81.082H10.8457V75.6758L5.43937 75.6754L5.43933 81.082Z" fill="#FBCA8E"/>
<path d="M5.43933 97.2964L10.8457 97.2969V91.8906H5.43933V97.2964Z" fill="#FBCA8E"/>
<path d="M5.43945 113.514H10.8439V108.109H5.43945V113.514Z" fill="#231F20"/>
<path d="M5.43945 108.109L10.8457 108.109V102.703L5.43933 102.703L5.43945 108.109Z" fill="#FBCA8E"/>
<path d="M5.43933 102.703L10.8457 102.703V97.2969L5.43933 97.2964V102.703Z" fill="#FBCA8E"/>
<path d="M54.088 64.8652H59.4924L59.4923 59.459H54.0879L54.088 64.8652Z" fill="#231F20"/>
<path d="M37.8692 64.8652H43.275L43.2749 59.459H37.8691L37.8692 64.8652Z" fill="#FBCA8E"/>
<path d="M48.6817 64.8652H54.088L54.0879 59.459H48.6816L48.6817 64.8652Z" fill="#A9743C"/>
<path d="M43.275 64.8652H48.6817L48.6816 59.459H43.2749L43.275 64.8652Z" fill="#FBCA8E"/>
<path d="M27.0608 64.8652H32.4669L32.4664 59.459H27.0607L27.0608 64.8652Z" fill="#FBCA8E"/>
<path d="M21.6544 64.8652L27.0608 64.8652L27.0607 59.459H21.6543L21.6544 64.8652Z" fill="#FBCA8E"/>
<path d="M59.4942 64.8652H64.9L64.9001 59.459H59.4943L59.4942 64.8652Z" fill="#A9743C"/>
<path d="M32.4669 64.8652H37.8713L37.8712 59.459H32.4664L32.4669 64.8652Z" fill="#231F20"/>
<path d="M10.8458 64.8652H16.2502L16.2501 59.459H10.8457L10.8458 64.8652Z" fill="#231F20"/>
<path d="M16.2481 64.8652H21.6544L21.6543 59.459H16.248L16.2481 64.8652Z" fill="#FDE8B9"/>
<path d="M43.2754 156.756V162.162H48.6812V156.756H43.2754Z" fill="#231F20"/>
<path d="M48.6812 162.162H54.0874V156.756H48.6812V162.162Z" fill="#FDE8B9"/>
<path d="M54.0874 162.162H59.4923V156.756H54.0874V162.162Z" fill="#231F20"/>
<path d="M64.8965 162.162H70.3023V156.756H64.8965V162.162Z" fill="#FBCA8E"/>
<path d="M70.3023 162.162H75.7085V156.756H70.3023V162.162Z" fill="#231F20"/>
<path d="M59.4941 162.162H64.8999V156.756H59.4941V162.162Z" fill="#FBCA8E"/>
<path d="M86.5215 156.757H91.9273L91.9277 151.351H86.5215V156.757Z" fill="#FBCA8E"/>
<path d="M54.0879 156.757H59.4923V151.351H54.0879V156.757Z" fill="#231F20"/>
<path d="M70.3027 156.757H75.7085V151.351H70.3023L70.3027 156.757Z" fill="#FBCA8E"/>
<path d="M81.1152 156.757H86.5215V151.351H81.1152V156.757Z" fill="#FBCA8E"/>
<path d="M59.4941 156.757H64.8999V151.351H59.4941V156.757Z" fill="#FBCA8E"/>
<path d="M64.8965 156.757H70.3027L70.3023 151.351H64.8965V156.757Z" fill="#FBCA8E"/>
<path d="M75.7085 156.757H81.1134V151.351H75.7085V156.757Z" fill="#FBCA8E"/>
<path d="M97.33 156.757H102.736V151.352H97.33V156.757Z" fill="#FBCA8E"/>
<path d="M97.33 151.352H102.736V145.945H97.33V151.352Z" fill="#FBCA8E"/>
<path d="M91.9273 156.757H97.3322V151.351H91.9277L91.9273 156.757Z" fill="#FBCA8E"/>
<path d="M97.33 145.945H102.736V140.541H97.33V145.945Z" fill="#FBCA8E"/>
<path d="M48.6816 156.757H54.0879V151.351L48.6816 151.352V156.757Z" fill="#231F20"/>
<path d="M64.8965 64.8648L70.3028 64.8652L70.3023 59.459H64.8965V64.8648Z" fill="#A9743C"/>
<path d="M97.33 140.541H102.736L102.736 135.135H97.33L97.33 140.541Z" fill="#A9743C"/>
<path d="M70.3028 64.8652H75.709L75.7085 59.459H70.3023L70.3028 64.8652Z" fill="#FBCA8E"/>
<path d="M75.709 64.8652H81.1135L81.1134 59.459H75.7085L75.709 64.8652Z" fill="#FBCA8E"/>
<path d="M81.1153 64.8652H86.5211L86.521 59.459H81.1152L81.1153 64.8652Z" fill="#F9A667"/>
<path d="M86.5211 64.8652H91.9273L91.9273 59.459H86.521L86.5211 64.8652Z" fill="#231F20"/>
<path d="M97.33 129.729H102.736V124.324H97.33V129.729Z" fill="#231F20"/>
<path d="M97.33 135.135H102.736L102.736 129.729H97.33L97.33 135.135Z" fill="#A9743C"/>
<path d="M59.4941 118.919H64.8999V113.514H59.4941V118.919Z" fill="#231F20"/>
<path d="M32.4668 91.8921H37.8712V86.4863H32.4668V91.8921Z" fill="#934A25"/>
<path d="M32.4668 97.2964H37.8712V91.8906H32.4668V97.2964Z" fill="#934A25"/>
<path d="M37.8691 91.8901H43.2749V86.4844H37.8691V91.8901Z" fill="#934A25"/>
<path d="M43.2749 91.8901H48.6812V86.4844H43.2749V91.8901Z" fill="#231F20"/>
<path d="M32.4668 102.703H37.8712V97.2964H32.4668V102.703Z" fill="#231F20"/>
<path d="M32.4668 108.109H37.8712V102.703H32.4668V108.109Z" fill="#231F20"/>
<path d="M32.4668 118.919H37.8712V113.514H32.4668V118.919Z" fill="#F9A667"/>
<path d="M32.4668 124.324H37.8712V118.918H32.4668V124.324Z" fill="#231F20"/>
<path d="M32.4668 113.514H37.8712V108.109H32.4668V113.514Z" fill="#231F20"/>
<path d="M48.6812 91.8901H54.0874V86.4844H48.6812V91.8901Z" fill="#FBCA8E"/>
<path d="M70.3027 108.109H75.7085V102.703H70.3027V108.109Z" fill="#231F20"/>
<path d="M54.0874 91.8901H59.4923V86.4844H54.0874V91.8901Z" fill="#FBCA8E"/>
<path d="M70.3027 113.514H75.7085V108.109H70.3027V113.514Z" fill="#231F20"/>
<path d="M70.3027 124.324H75.7085V118.918H70.3027V124.324Z" fill="#ED163A"/>
<path d="M70.3027 118.919H75.7085V113.514H70.3027V118.919Z" fill="#ED163A"/>
<path d="M70.3027 102.703H75.7085V97.2969H70.3027V102.703Z" fill="#F9A667"/>
<path d="M59.4941 91.8901H64.8999V86.4844H59.4941V91.8901Z" fill="#FBCA8E"/>
<path d="M64.8999 91.8901H70.3062V86.4844H64.8999V91.8901Z" fill="#FBCA8E"/>
<path d="M70.3027 91.8901H75.7085V86.4844H70.3027V91.8901Z" fill="#FBCA8E"/>
<path d="M70.3027 97.2969H75.7085V91.8901H70.3027V97.2969Z" fill="#FBCA8E"/>
<path d="M75.7085 118.919H81.1134V113.514L75.7085 113.514V118.919Z" fill="#ED163A"/>
<path d="M75.7085 102.703L81.1134 102.703V97.2969H75.7085V102.703Z" fill="#231F20"/>
<path d="M75.7085 113.514L81.1134 113.514V108.109L75.7085 108.109V113.514Z" fill="#231F20"/>
<path d="M75.7085 97.2969H81.1134V91.8906L75.7085 91.8901V97.2969Z" fill="#F9A667"/>
<path d="M70.3027 129.729H75.7085V124.324H70.3027V129.729Z" fill="#231F20"/>
<path d="M86.5215 81.0816H91.9273L91.9273 75.6753H86.5215L86.5215 81.0816Z" fill="#231F20"/>
<path d="M75.7085 91.8901L81.1134 91.8906V86.4844H75.7085V91.8901Z" fill="#FBCA8E"/>
<path d="M70.3027 86.4865H75.7085V81.082H70.3027V86.4865Z" fill="#FBCA8E"/>
<path d="M75.7085 86.4865H81.1134V81.082H75.7085V86.4865Z" fill="#FBCA8E"/>
<path d="M64.9004 86.4865H70.3062V81.082H64.9004V86.4865Z" fill="#FBCA8E"/>
<path d="M48.6816 135.134H54.0879V129.729H48.6816V135.134Z" fill="#231F20"/>
<path d="M75.7085 129.729H81.1134V124.324L75.7085 124.324V129.729Z" fill="#F9A667"/>
<path d="M70.3027 135.134H75.7085V129.729H70.3027V135.134Z" fill="#F9A667"/>
<path d="M75.7085 135.134H81.1134V129.729H75.7085V135.134Z" fill="#FBCA8E"/>
<path d="M64.8965 135.134H70.3027V129.729L64.8965 129.729V135.134Z" fill="#F9A667"/>
<path d="M59.4941 135.134H64.8999V129.729H59.4941V135.134Z" fill="#231F20"/>
<path d="M64.8965 129.729L70.3027 129.729V124.324L64.8965 124.324V129.729Z" fill="#231F20"/>
<path d="M43.2754 113.514H48.6812V108.109H43.2754V113.514Z" fill="#231F20"/>
<path d="M43.2754 108.109H48.6812V102.703H43.2754V108.109Z" fill="#FBCA8E"/>
<path d="M59.4941 86.4865H64.9004V81.082H59.4941V86.4865Z" fill="#FBCA8E"/>
<path d="M43.2754 102.703H48.6812V97.2969H43.2754V102.703Z" fill="#FBCA8E"/>
<path d="M43.2754 118.919H48.6812V113.514H43.2754V118.919Z" fill="#F9A667"/>
<path d="M54.0879 102.703H59.4923V97.2969H54.0879V102.703Z" fill="#FBCA8E"/>
<path d="M59.4941 124.324H64.8999V118.918H59.4941V124.324Z" fill="#ED163A"/>
<path d="M64.8965 124.324L70.3027 124.324V118.918H64.8965V124.324Z" fill="#ED163A"/>
<path d="M54.0879 124.324H59.4923V118.918H54.0879V124.324Z" fill="#231F20"/>
<path d="M48.6816 124.324H54.0879V118.918H48.6816V124.324Z" fill="#231F20"/>
<path d="M48.6812 118.919H54.0874V113.514L48.6812 113.514V118.919Z" fill="#F9A667"/>
<path d="M54.0874 113.514L59.4923 113.514V108.109H54.0879L54.0874 113.514Z" fill="#F9A667"/>
<path d="M48.6812 113.514L54.0874 113.514L54.0879 108.109H48.6812V113.514Z" fill="#231F20"/>
<path d="M48.6812 108.109H54.0879V102.703L48.6812 102.703V108.109Z" fill="#FBCA8E"/>
<path d="M54.0879 108.109H59.4923V102.703H54.0879V108.109Z" fill="#231F20"/>
<path d="M59.4941 102.703H64.8999V97.2969H59.4941V102.703Z" fill="#FBCA8E"/>
<path d="M59.4941 113.514H64.8999V108.109H59.4941V113.514Z" fill="#F9A667"/>
<path d="M54.0874 118.919H59.4923V113.514L54.0874 113.514V118.919Z" fill="#F9A667"/>
<path d="M59.4941 108.109H64.8999V102.703H59.4941V108.109Z" fill="#FBCA8E"/>
<path d="M75.7085 162.162H81.1134V156.756H75.7085V162.162Z" fill="#FBCA8E"/>
<path d="M48.6812 102.703L54.0879 102.703V97.2969H48.6812V102.703Z" fill="#FBCA8E"/>
<path d="M37.8691 118.919H43.2754V113.514L37.8691 113.514V118.919Z" fill="#F9A667"/>
<path d="M43.2754 124.324H48.6816V118.918H43.2754V124.324Z" fill="#231F20"/>
<path d="M37.8691 124.324H43.2754V118.918H37.8691V124.324Z" fill="#231F20"/>
<path d="M37.8691 113.514L43.2754 113.514V108.109H37.8691V113.514Z" fill="#231F20"/>
<path d="M37.8691 108.109H43.2754V102.703H37.8691V108.109Z" fill="#FBCA8E"/>
<path d="M54.0879 129.729H59.4923V124.324H54.0879V129.729Z" fill="#ED163A"/>
<path d="M59.4941 129.729H64.8999V124.324H59.4941V129.729Z" fill="#ED163A"/>
<path d="M37.8691 102.703H43.2754V97.2969H37.8691V102.703Z" fill="#FBCA8E"/>
<path d="M48.6816 129.729H54.0879V124.324H48.6816V129.729Z" fill="#231F20"/>
<path d="M54.0879 97.2969H59.4923V91.8901H54.0874L54.0879 97.2969Z" fill="#FBCA8E"/>
<path d="M64.8999 97.2969L70.3062 97.2964V91.8901H64.8999V97.2969Z" fill="#FBCA8E"/>
<path d="M64.8965 108.109H70.3027V102.703H64.8965V108.109Z" fill="#F9A667"/>
<path d="M64.8965 102.703H70.3027V97.2969H64.8965V102.703Z" fill="#FBCA8E"/>
<path d="M64.8965 113.514H70.3027V108.109H64.8965V113.514Z" fill="#F9A667"/>
<path d="M48.6812 97.2969H54.0879L54.0874 91.8901H48.6812V97.2969Z" fill="#FBCA8E"/>
<path d="M43.2754 97.2969H48.6812V91.8901H43.2749L43.2754 97.2969Z" fill="#FBCA8E"/>
<path d="M37.8691 97.2969H43.2754L43.2749 91.8901H37.8691V97.2969Z" fill="#231F20"/>
<path d="M59.4941 97.2969H64.8999V91.8901H59.4941V97.2969Z" fill="#FBCA8E"/>
<path d="M64.8965 118.919H70.3027V113.514H64.8965V118.919Z" fill="#231F20"/>
<path d="M75.7085 124.324L81.1134 124.324V118.918H75.7085V124.324Z" fill="#231F20"/>
<path d="M21.6538 124.324H27.0601V118.918H21.6538V124.324Z" fill="#231F20"/>
<path d="M21.6538 118.919H27.0601V113.514L21.6538 113.514V118.919Z" fill="#F9A667"/>
<path d="M21.6538 113.514L27.0601 113.514V108.109L21.6538 108.109V113.514Z" fill="#231F20"/>
<path d="M21.6538 108.109L27.0601 108.109V102.703H21.6538V108.109Z" fill="#FBCA8E"/>
<path d="M32.4668 81.0816H37.8712L37.8713 75.6754H32.4665L32.4668 81.0816Z" fill="#231F20"/>
<path d="M37.8691 81.0816H43.2749L43.275 75.6753H37.8692L37.8691 81.0816Z" fill="#231F20"/>
<path d="M43.2749 81.0816H48.6812L48.6812 75.6753H43.275L43.2749 81.0816Z" fill="#231F20"/>
<path d="M27.0607 81.0816H32.4668L32.4665 75.6754H27.0608L27.0607 81.0816Z" fill="#231F20"/>
<path d="M21.6538 86.4865H27.0601L27.0607 81.0816H21.6538V86.4865Z" fill="#B55B25"/>
<path d="M21.6538 81.0816H27.0607L27.0608 75.6754L21.6538 75.6758V81.0816Z" fill="#231F20"/>
<path d="M21.6538 91.8906L27.0601 91.8901V86.4844H21.6538V91.8906Z" fill="#231F20"/>
<path d="M21.6538 97.2964H27.0601V91.8901L21.6538 91.8906V97.2964Z" fill="#FBCA8E"/>
<path d="M21.6538 102.703H27.0601V97.2964H21.6538V102.703Z" fill="#FBCA8E"/>
<path d="M86.5215 118.919H91.9273V113.514H86.5215V118.919Z" fill="#231F20"/>
<path d="M86.5215 124.324L91.9277 124.324V118.918H86.5215V124.324Z" fill="#FDE8B9"/>
<path d="M48.6812 81.0816H54.0874L54.0875 75.6753H48.6812L48.6812 81.0816Z" fill="#FBCA8E"/>
<path d="M86.5215 91.8901H91.9273V86.4844H86.5215V91.8901Z" fill="#231F20"/>
<path d="M86.5215 86.4865H91.9273V81.0816H86.5215V86.4865Z" fill="#231F20"/>
<path d="M86.5215 135.134H91.9277V129.729L86.5215 129.729V135.134Z" fill="#FBCA8E"/>
<path d="M86.5215 129.729L91.9277 129.729V124.324L86.5215 124.324V129.729Z" fill="#FBCA8E"/>
<path d="M59.4941 145.945H64.8999V140.541H59.4941V145.945Z" fill="#FBCA8E"/>
<path d="M54.0879 145.945H59.4923V140.541H54.0879V145.945Z" fill="#231F20"/>
<path d="M64.8965 145.945H70.3023V140.541H64.8965V145.945Z" fill="#FBCA8E"/>
<path d="M86.5215 140.541H91.9278L91.9277 135.134H86.5215L86.5215 140.541Z" fill="#FBCA8E"/>
<path d="M81.1152 145.945H86.5215L86.5215 140.541L81.1152 140.541V145.945Z" fill="#FBCA8E"/>
<path d="M86.5215 145.945L91.9277 145.945L91.9278 140.541H86.5215L86.5215 145.945Z" fill="#FBCA8E"/>
<path d="M70.3023 145.945H75.7085V140.541H70.3023V145.945Z" fill="#FBCA8E"/>
<path d="M75.7085 145.945H81.1134V140.541H75.7085V145.945Z" fill="#FBCA8E"/>
<path d="M54.0874 81.0816H59.4923L59.4924 75.6753H54.0875L54.0874 81.0816Z" fill="#A9743C"/>
<path d="M54.0879 86.4865H59.4923V81.0816H54.0874L54.0879 86.4865Z" fill="#FBCA8E"/>
<path d="M27.0601 124.324H32.4668V118.918H27.0601V124.324Z" fill="#231F20"/>
<path d="M27.0601 118.919H32.4668V113.514H27.0601V118.919Z" fill="#F9A667"/>
<path d="M27.0601 113.514H32.4668V108.109L27.0601 108.109V113.514Z" fill="#231F20"/>
<path d="M27.0601 102.703L32.4668 102.703V97.2964H27.0601V102.703Z" fill="#FBCA8E"/>
<path d="M27.0601 108.109L32.4668 108.109V102.703L27.0601 102.703V108.109Z" fill="#FBCA8E"/>
<path d="M37.8691 86.4865H43.2749V81.0816H37.8691V86.4865Z" fill="#B55B25"/>
<path d="M43.2749 86.4865H48.6812V81.0816H43.2749V86.4865Z" fill="#B55B25"/>
<path d="M48.6812 86.4865H54.0879L54.0874 81.0816H48.6812V86.4865Z" fill="#231F20"/>
<path d="M32.4668 86.4863H37.8712V81.0816H32.4668V86.4863Z" fill="#B55B25"/>
<path d="M27.0601 97.2964H32.4668V91.8906L27.0601 91.8901V97.2964Z" fill="#231F20"/>
<path d="M54.0879 140.541H59.4923V135.134H54.0879V140.541Z" fill="#231F20"/>
<path d="M27.0601 86.4865L32.4668 86.4863V81.0816H27.0607L27.0601 86.4865Z" fill="#B55B25"/>
<path d="M27.0607 91.8921H32.4668V86.4863L27.0601 86.4865L27.0607 91.8921Z" fill="#934A25"/>
<path d="M81.1152 91.8901H86.5215V86.4844H81.1152V91.8901Z" fill="#F9A667"/>
<path d="M81.1152 86.4865H86.5215V81.0816L81.1152 81.082V86.4865Z" fill="#F9A667"/>
<path d="M81.1152 97.2964H86.521L86.5215 91.8901H81.1152V97.2964Z" fill="#231F20"/>
<path d="M81.1152 81.082L86.5215 81.0816L86.5215 75.6753H81.1153L81.1152 81.082Z" fill="#F9A667"/>
<path d="M59.4941 140.541H64.8999V135.134H59.4941V140.541Z" fill="#FBCA8E"/>
<path d="M59.4941 81.082H64.9004L64.9005 75.6753H59.4942L59.4941 81.082Z" fill="#A9743C"/>
<path d="M64.9004 81.082H70.3062L70.3062 75.6753H64.9005L64.9004 81.082Z" fill="#A9743C"/>
<path d="M75.7085 81.082H81.1134L81.1135 75.6753H75.7086L75.7085 81.082Z" fill="#FBCA8E"/>
<path d="M70.3027 81.082H75.7085L75.7086 75.6753H70.3028L70.3027 81.082Z" fill="#FBCA8E"/>
<path d="M75.7085 140.541H81.1134V135.134H75.7085V140.541Z" fill="#FBCA8E"/>
<path d="M70.3023 140.541H75.7085V135.134H70.3027L70.3023 140.541Z" fill="#FBCA8E"/>
<path d="M81.1152 140.541L86.5215 140.541L86.5215 135.134L81.1153 135.135L81.1152 140.541Z" fill="#FBCA8E"/>
<path d="M81.1152 113.514L86.5215 113.514L86.521 108.109H81.1152V113.514Z" fill="#231F20"/>
<path d="M64.8965 140.541H70.3023L70.3027 135.134H64.8965V140.541Z" fill="#FBCA8E"/>
<path d="M81.1152 124.324H86.5215V118.918H81.1152V124.324Z" fill="#F9A667"/>
<path d="M81.1153 135.135L86.5215 135.134V129.729H81.1152L81.1153 135.135Z" fill="#FBCA8E"/>
<path d="M81.1152 118.919H86.5215V113.514L81.1152 113.514V118.919Z" fill="#231F20"/>
<path d="M81.1152 129.729H86.5215V124.324H81.1152V129.729Z" fill="#FBCA8E"/>
<path d="M70.3023 178.379H75.709L75.7086 172.973H70.3028L70.3023 178.379Z" fill="#231F20"/>
<path d="M43.2755 178.378L48.6816 178.379L48.6812 172.973H43.2755V178.378Z" fill="#231F20"/>
<path d="M59.4941 178.379H64.8999L64.9 172.973H59.4942L59.4941 178.379Z" fill="#FBCA8E"/>
<path d="M48.6816 178.379H54.0874L54.0875 172.973H48.6812L48.6816 178.379Z" fill="#FBCA8E"/>
<path d="M64.8965 178.379H70.3023L70.3028 172.973H64.8965L64.8965 178.379Z" fill="#FBCA8E"/>
<path d="M54.0874 178.379H59.4923L59.4924 172.973H54.0875L54.0874 178.379Z" fill="#231F20"/>
<path d="M113.545 156.757H118.951V151.352H113.545V156.757Z" fill="#FBCA8E"/>
<path d="M113.545 151.352H118.951V145.945H113.545V151.352Z" fill="#FDE8B9"/>
<path d="M113.545 145.945H118.951V140.541H113.545V145.945Z" fill="#231F20"/>
<path d="M113.545 162.162H118.951V156.756H113.545V162.162Z" fill="#231F20"/>
<path d="M81.1152 162.162H86.521V156.756H81.1152V162.162Z" fill="#231F20"/>
<path d="M75.709 48.6499H81.1134V43.2441H75.709V48.6499Z" fill="#FBCA8E"/>
<path d="M37.8691 48.6499H43.2749V43.2441H37.8691V48.6499Z" fill="#A9743C"/>
<path d="M64.8965 48.6499H70.3023V43.2441H64.8965V48.6499Z" fill="#FBCA8E"/>
<path d="M43.2749 48.6499H48.6812V43.2441H43.2749V48.6499Z" fill="#A9743C"/>
<path d="M54.0879 48.6499H59.4923V43.2441H54.0879V48.6499Z" fill="#FBCA8E"/>
<path d="M59.4941 48.6499H64.8999V43.2441H59.4941V48.6499Z" fill="#FBCA8E"/>
<path d="M48.6812 48.6499H54.0879V43.2441H48.6812V48.6499Z" fill="#FBCA8E"/>
<path d="M21.6543 48.6499H27.0601V43.2441H21.6543V48.6499Z" fill="#231F20"/>
<path d="M113.545 54.0529H118.951V48.6484H113.545V54.0529Z" fill="#231F20"/>
<path d="M32.4668 48.6499H37.8712V43.2441H32.4668V48.6499Z" fill="#A9743C"/>
<path d="M27.0601 48.6499H32.4668V43.2441H27.0601V48.6499Z" fill="#A9743C"/>
<path d="M70.3023 48.6499H75.709V43.2441H70.3023V48.6499Z" fill="#FBCA8E"/>
<path d="M108.143 48.6499H113.547V43.2441H108.143V48.6499Z" fill="#231F20"/>
<path d="M113.545 48.6499H118.951V43.2441H113.545V48.6499Z" fill="#8B4E23"/>
<path d="M102.736 48.6499H108.143V43.2441H102.736V48.6499Z" fill="#231F20"/>
<path d="M81.1152 48.6499H86.521V43.2441H81.1152V48.6499Z" fill="#231F20"/>
<path d="M75.709 178.379H81.1134L81.1135 172.973H75.7086L75.709 178.379Z" fill="#F9A667"/>
<path d="M48.6812 43.2441H54.0879L54.0874 37.8374H48.6816L48.6812 43.2441Z" fill="#A9743C"/>
<path d="M54.0879 43.2441H59.4923V37.8374H54.0874L54.0879 43.2441Z" fill="#FBCA8E"/>
<path d="M59.4941 43.2441H64.8999V37.8374H59.4941V43.2441Z" fill="#FBCA8E"/>
<path d="M64.8965 43.2441H70.3023L70.3027 37.8374H64.8965V43.2441Z" fill="#FBCA8E"/>
<path d="M43.2794 43.2437H48.6838V37.8379H43.2794V43.2437Z" fill="#A9743C"/>
<path d="M27.0601 43.2441L32.465 43.2437V37.8379H27.0606L27.0601 43.2441Z" fill="#231F20"/>
<path d="M32.4668 43.2441L37.8726 43.2435V37.8377L32.4668 37.8374V43.2441Z" fill="#231F20"/>
<path d="M37.8726 43.2435L43.2794 43.2437V37.8379L37.8726 37.8377V43.2435Z" fill="#A9743C"/>
<path d="M113.545 167.567H118.951L118.951 162.162H113.545L113.545 167.567Z" fill="#FBCA8E"/>
<path d="M70.3023 43.2441H75.709L75.7085 37.8374H70.3027L70.3023 43.2441Z" fill="#231F20"/>
<path d="M118.951 151.352L124.357 151.351V145.945H118.951V151.352Z" fill="#231F20"/>
<path d="M118.951 162.162H124.357V156.756H118.951V162.162Z" fill="#FBCA8E"/>
<path d="M118.951 156.757H124.357V151.351L118.951 151.352V156.757Z" fill="#231F20"/>
<path d="M118.951 167.567L124.357 167.566V162.162H118.951L118.951 167.567Z" fill="#FBCA8E"/>
<path d="M97.33 178.379H102.736L102.736 172.973H97.33L97.33 178.379Z" fill="#231F20"/>
<path d="M86.521 178.379H91.9277L91.9273 172.973H86.5215L86.521 178.379Z" fill="#FBCA8E"/>
<path d="M91.9277 178.379H97.3322L97.3322 172.973H91.9273L91.9277 178.379Z" fill="#FBCA8E"/>
<path d="M118.951 172.972L124.358 172.973L124.357 167.566L118.951 167.567L118.951 172.972Z" fill="#231F20"/>
<path d="M81.1152 178.379H86.521L86.5215 172.973H81.1153L81.1152 178.379Z" fill="#231F20"/>
<path d="M75.709 43.2441H81.1134V37.8374H75.7085L75.709 43.2441Z" fill="#231F20"/>
<path d="M118.951 178.379L124.358 178.378V172.973L118.951 172.972L118.951 178.379Z" fill="#231F20"/>
<path d="M113.545 178.379H118.951L118.951 172.972L113.545 172.973L113.545 178.379Z" fill="#F9A667"/>
<path d="M108.143 178.379H113.547L113.547 172.973H108.143L108.143 178.379Z" fill="#F9A667"/>
<path d="M102.736 178.379H108.143L108.143 172.973L102.736 172.973L102.736 178.379Z" fill="#F9A667"/>
<path d="M118.951 54.0529H124.357V48.6484H118.951V54.0529Z" fill="#231F20"/>
<path d="M113.545 43.2441H118.951V37.8374H113.545V43.2441Z" fill="#AD6730"/>
<path d="M118.951 48.6499H124.357V43.2441H118.951V48.6499Z" fill="#8B4E23"/>
<path d="M118.951 43.2441H124.357V37.8374H118.951V43.2441Z" fill="#AD6730"/>
<path d="M102.736 43.2441H108.143L108.142 37.8374H102.736V43.2441Z" fill="#8B4E23"/>
<path d="M108.143 43.2441H113.547V37.8374H108.142L108.143 43.2441Z" fill="#AD6730"/>
<path d="M97.33 43.2435L102.736 43.2441V37.8374H97.33L97.33 43.2435Z" fill="#231F20"/>
<path d="M0.0332031 81.0816L5.43933 81.082L5.43937 75.6754L0.0332031 75.6758V81.0816Z" fill="#231F20"/>
<path d="M0.0332031 75.6758L5.43937 75.6754V70.2696H0.0332642L0.0332031 75.6758Z" fill="#231F20"/>
<path d="M0.0332031 86.4865H5.43933V81.082L0.0332031 81.0816V86.4865Z" fill="#231F20"/>
<path d="M0.0332031 108.109L5.43945 108.109L5.43933 102.703H0.0332031V108.109Z" fill="#231F20"/>
<path d="M0.0332031 102.703H5.43933V97.2964L0.0332031 97.2969V102.703Z" fill="#231F20"/>
<path d="M0.0332031 91.8921H5.43933V86.4865H0.0332031V91.8921Z" fill="#231F20"/>
<path d="M0.0332031 97.2969L5.43933 97.2964V91.8906H0.0332031V97.2969Z" fill="#231F20"/>
<path d="M86.5215 167.567H91.9273V162.162L86.521 162.162L86.5215 167.567Z" fill="#FBCA8E"/>
<path d="M81.1153 167.567H86.5215L86.521 162.162H81.1152L81.1153 167.567Z" fill="#231F20"/>
<path d="M75.709 167.567H81.1135L81.1134 162.162H75.7085L75.709 167.567Z" fill="#FBCA8E"/>
<path d="M91.9273 167.567H97.3322V162.162H91.9273V167.567Z" fill="#FBCA8E"/>
<path d="M70.3028 167.567H75.709L75.7085 162.162H70.3023L70.3028 167.567Z" fill="#231F20"/>
<path d="M108.143 162.162H113.547V156.756H108.143V162.162Z" fill="#FBCA8E"/>
<path d="M64.8965 167.567H70.3028L70.3023 162.162H64.8965L64.8965 167.567Z" fill="#FBCA8E"/>
<path d="M108.143 167.567H113.547L113.547 162.162H108.143L108.143 167.567Z" fill="#FBCA8E"/>
<path d="M102.736 167.567H108.143L108.143 162.162L102.736 162.162V167.567Z" fill="#FBCA8E"/>
<path d="M97.33 167.567L102.736 167.567V162.162L97.33 162.162V167.567Z" fill="#231F20"/>
<path d="M43.2755 167.567H48.6812L48.6812 162.162H43.2754L43.2755 167.567Z" fill="#231F20"/>
<path d="M48.6812 167.567H54.0875L54.0874 162.162H48.6812L48.6812 167.567Z" fill="#FBCA8E"/>
<path d="M54.0875 167.567H59.4924L59.4923 162.162H54.0874L54.0875 167.567Z" fill="#231F20"/>
<path d="M59.4942 167.567H64.9L64.8999 162.162H59.4941L59.4942 167.567Z" fill="#FBCA8E"/>
<path d="M108.143 156.757H113.547V151.352H108.143V156.757Z" fill="#FBCA8E"/>
<path d="M97.33 162.162L102.736 162.162L102.736 156.756H97.33L97.33 162.162Z" fill="#231F20"/>
<path d="M91.9273 162.162H97.3322L97.3322 156.756H91.9277L91.9273 162.162Z" fill="#FBCA8E"/>
<path d="M102.736 162.162L108.143 162.162V156.756H102.736L102.736 162.162Z" fill="#FBCA8E"/>
<path d="M86.521 162.162L91.9273 162.162L91.9277 156.756H86.521V162.162Z" fill="#FBCA8E"/>
<path d="M113.545 172.973L118.951 172.972L118.951 167.567H113.545V172.973Z" fill="#FBCA8E"/>
<path d="M102.736 140.541L108.142 140.541V135.135L102.736 135.135L102.736 140.541Z" fill="#A9743C"/>
<path d="M102.736 145.945L108.142 145.945L108.142 140.541L102.736 140.541V145.945Z" fill="#A9743C"/>
<path d="M102.736 156.757H108.143V151.352H102.736V156.757Z" fill="#FBCA8E"/>
<path d="M102.736 135.135L108.142 135.135L108.142 129.729L102.736 129.729L102.736 135.135Z" fill="#231F20"/>
<path d="M37.8691 59.4605H43.2749V54.0547H37.8691V59.4605Z" fill="#FBCA8E"/>
<path d="M32.4664 59.459H37.8712V54.0527H32.4668L32.4664 59.459Z" fill="#FBCA8E"/>
<path d="M43.2749 59.4605H48.6812V54.0547H43.2749V59.4605Z" fill="#FBCA8E"/>
<path d="M59.4943 59.459H64.9001V54.0527H59.4943V59.459Z" fill="#A9743C"/>
<path d="M54.0879 59.4605H59.4923V54.0547H54.0879V59.4605Z" fill="#A9743C"/>
<path d="M48.6812 59.4605H54.0879V54.0547H48.6812V59.4605Z" fill="#A9743C"/>
<path d="M16.248 59.4605H21.6538V54.0547H16.248V59.4605Z" fill="#231F20"/>
<path d="M27.0607 59.459H32.4664L32.4668 54.0527H27.0607V59.459Z" fill="#FBCA8E"/>
<path d="M21.6538 59.4605H27.0601V54.0547H21.6538V59.4605Z" fill="#FDE8B9"/>
<path d="M70.3027 59.4605H75.7085V54.0547H70.3027V59.4605Z" fill="#FBCA8E"/>
<path d="M64.8965 59.4605H70.3027V54.0547H64.8965V59.4605Z" fill="#FBCA8E"/>
<path d="M86.5215 59.4605H91.9273V54.0547H86.5215V59.4605Z" fill="#231F20"/>
<path d="M75.7085 59.4605H81.1134V54.0547H75.7085V59.4605Z" fill="#FBCA8E"/>
<path d="M81.1152 59.4605H86.5215V54.0547H81.1152V59.4605Z" fill="#F9A667"/>
<path d="M102.736 151.352H108.143L108.142 145.945L102.736 145.945V151.352Z" fill="#FBCA8E"/>
<path d="M86.5215 172.973H91.9273V167.567H86.5215V172.973Z" fill="#FBCA8E"/>
<path d="M75.7086 172.973H81.1135V167.567H75.709L75.7086 172.973Z" fill="#F9A667"/>
<path d="M81.1153 172.973H86.5215V167.567H81.1153V172.973Z" fill="#231F20"/>
<path d="M70.3028 172.973H75.7086L75.709 167.567H70.3028V172.973Z" fill="#231F20"/>
<path d="M64.8965 172.973H70.3028V167.567H64.8965V172.973Z" fill="#FBCA8E"/>
<path d="M102.736 172.973L108.143 172.973V167.567H102.736L102.736 172.973Z" fill="#F9A667"/>
<path d="M108.143 172.973H113.547V167.567H108.143V172.973Z" fill="#FBCA8E"/>
<path d="M59.4942 172.973H64.9V167.567H59.4942V172.973Z" fill="#FBCA8E"/>
<path d="M97.33 172.973H102.736L102.736 167.567L97.33 167.567V172.973Z" fill="#231F20"/>
<path d="M91.9273 172.973H97.3322V167.567H91.9273V172.973Z" fill="#FBCA8E"/>
<path d="M48.6812 172.973H54.0875V167.567H48.6812V172.973Z" fill="#FBCA8E"/>
<path d="M43.2755 172.973H48.6812V167.567H43.2755V172.973Z" fill="#231F20"/>
<path d="M54.0875 172.973H59.4924V167.567H54.0875V172.973Z" fill="#231F20"/>
<path d="M108.142 140.541H113.547V135.135H108.142V140.541Z" fill="#231F20"/>
<path d="M108.142 145.945H113.547L113.547 140.541H108.142L108.142 145.945Z" fill="#A9743C"/>
<path d="M43.2754 54.0529H48.6812V48.6484H43.2754V54.0529Z" fill="#FBCA8E"/>
<path d="M16.248 54.0529H21.6538V48.6484H16.248V54.0529Z" fill="#231F20"/>
<path d="M21.6538 54.0529L27.0607 54.0527L27.0601 48.6484H21.6538V54.0529Z" fill="#FDE8B9"/>
<path d="M27.0607 54.0527H32.4668L32.4664 48.6484H27.0601L27.0607 54.0527Z" fill="#FBCA8E"/>
<path d="M32.4668 54.0527H37.8712V48.6484H32.4664L32.4668 54.0527Z" fill="#FBCA8E"/>
<path d="M37.8691 54.0529H43.2754V48.6484H37.8691V54.0529Z" fill="#FBCA8E"/>
<path d="M108.143 151.352H113.547V145.945H108.142L108.143 151.352Z" fill="#FBCA8E"/>
<path d="M48.6812 54.0529H54.0874V48.6484H48.6812V54.0529Z" fill="#FBCA8E"/>
<path d="M70.3027 54.0529H75.7085V48.6484H70.3027V54.0529Z" fill="#FBCA8E"/>
<path d="M75.7085 54.0529H81.1134V48.6484H75.7085V54.0529Z" fill="#FBCA8E"/>
<path d="M81.1152 54.0529H86.521V48.6484H81.1152V54.0529Z" fill="#F9A667"/>
<path d="M86.521 54.0529H91.9273V48.6484H86.521V54.0529Z" fill="#231F20"/>
<path d="M54.0874 54.0529L59.4943 54.0527L59.4937 48.6484H54.0874V54.0529Z" fill="#FBCA8E"/>
<path d="M59.4943 54.0527H64.9001L64.8999 48.6484H59.4937L59.4943 54.0527Z" fill="#FBCA8E"/>
<path d="M64.8965 54.0529H70.3027V48.6484H64.8965V54.0529Z" fill="#FBCA8E"/>
<path d="M32.4669 5.40577H37.8713V0H32.4669V5.40577Z" fill="#231F20"/>
<path d="M21.6544 5.40577H27.0601V0H21.6544V5.40577Z" fill="#231F20"/>
<path d="M27.0601 5.40577H32.4669V0H27.0601V5.40577Z" fill="#231F20"/>
<path d="M162.193 172.972H167.599V167.566H162.193V172.972Z" fill="#231F20"/>
<path d="M16.248 10.8105H21.6543L21.6544 5.40577L16.248 5.40625V10.8105Z" fill="#231F20"/>
<path d="M21.6543 10.8105H27.0607L27.0601 5.40577H21.6544L21.6543 10.8105Z" fill="#D57834"/>
<path d="M27.0607 10.8105H32.4668L32.4669 5.40577H27.0601L27.0607 10.8105Z" fill="#D57834"/>
<path d="M32.4668 10.8105H37.8712L37.8713 5.40577H32.4669L32.4668 10.8105Z" fill="#D57834"/>
<path d="M37.8691 10.8105H43.2754L43.2749 5.40625H37.8691V10.8105Z" fill="#231F20"/>
<path d="M156.791 178.378H162.196V172.973H156.791V178.378Z" fill="#231F20"/>
<path d="M156.791 194.593H162.195V189.188L156.791 189.188V194.593Z" fill="#231F20"/>
<path d="M156.791 200H162.195V194.593H156.791V200Z" fill="#231F20"/>
<path d="M167.599 167.566L173.004 167.567V162.162H167.6L167.599 167.566Z" fill="#231F20"/>
</svg>
