<svg width="172" height="200" viewBox="0 0 172 200" fill="none" xmlns="http://www.w3.org/2000/svg">
<path d="M86.0664 185.714H90.8274V180.953H86.0664V185.714Z" fill="#231F20"/>
<path d="M81.3047 185.714H86.0664V180.953H81.3047V185.714Z" fill="#A0593D"/>
<path d="M76.543 185.714H81.3047V180.953H76.543V185.714Z" fill="#231F20"/>
<path d="M52.7305 185.714H57.4915V180.953H52.7305V185.714Z" fill="#231F20"/>
<path d="M57.4915 185.714H62.2544V180.953H57.4915V185.714Z" fill="#231F20"/>
<path d="M47.9688 185.714H52.7305V180.953H47.9688V185.714Z" fill="#231F20"/>
<path d="M5.11328 42.8579H9.8755V38.0957H5.11328V42.8579Z" fill="#231F20"/>
<path d="M33.6836 42.8579H38.4446V38.0957H33.6836V42.8579Z" fill="#A0593D"/>
<path d="M47.9688 42.8579H52.731V38.0957H47.9688V42.8579Z" fill="#BF7550"/>
<path d="M28.9219 42.8579H33.6836V38.0957H28.9219V42.8579Z" fill="#A0593D"/>
<path d="M43.207 42.8579H47.9688V38.0957H43.207V42.8579Z" fill="#A0593D"/>
<path d="M38.4446 42.8579H43.207V38.0957H38.4446V42.8579Z" fill="#A0593D"/>
<path d="M19.3984 42.8579H24.1607V38.0957H19.3984V42.8579Z" fill="#A0593D"/>
<path d="M119.398 185.714H124.161V180.953H119.398V185.714Z" fill="#231F20"/>
<path d="M9.8755 42.8579H14.6372V38.0957H9.8755V42.8579Z" fill="#A0593D"/>
<path d="M14.6372 42.8579H19.3984V38.0957H14.6372V42.8579Z" fill="#A0593D"/>
<path d="M62.2539 42.8579H67.0161V38.0957H62.2539V42.8579Z" fill="#A89984"/>
<path d="M52.731 42.8579H57.4915V38.0957H52.731V42.8579Z" fill="#231F20"/>
<path d="M57.4915 42.8579H62.2539V38.0957H57.4915V42.8579Z" fill="#887968"/>
<path d="M67.0195 42.8579H71.7817V38.0957H67.0195V42.8579Z" fill="#231F20"/>
<path d="M24.1607 42.8579H28.9219V38.0957H24.1607V42.8579Z" fill="#A0593D"/>
<path d="M5.11328 38.0942H9.8755V33.332H5.11328V38.0942Z" fill="#231F20"/>
<path d="M9.8755 38.0957H14.6372L14.637 33.334H9.87482L9.8755 38.0957Z" fill="#BF7550"/>
<path d="M14.6367 38.0942H19.3977V33.332H14.6367V38.0942Z" fill="#A0593D"/>
<path d="M19.3977 38.0942H24.1607V33.332H19.3977V38.0942Z" fill="#A0593D"/>
<path d="M47.9688 38.0942H52.731V33.332H47.9688V38.0942Z" fill="#231F20"/>
<path d="M52.731 38.0942H57.4915V33.332H52.731V38.0942Z" fill="#65594D"/>
<path d="M57.4915 38.0942H62.2544V33.332H57.4915V38.0942Z" fill="#887968"/>
<path d="M62.2544 38.0942H67.0161V33.332H62.2544V38.0942Z" fill="#231F20"/>
<path d="M28.9219 38.0942H33.6841V33.332H28.9219V38.0942Z" fill="#894932"/>
<path d="M33.6841 38.0942H38.4446V33.332H33.6841V38.0942Z" fill="#A0593D"/>
<path d="M43.207 38.0942H47.9688V33.332H43.207V38.0942Z" fill="#A0593D"/>
<path d="M24.1607 38.0942H28.9219V33.332H24.1607V38.0942Z" fill="#231F20"/>
<path d="M38.4446 38.0957H43.207L43.2076 33.334H38.4454L38.4446 38.0957Z" fill="#A0593D"/>
<path d="M124.161 185.714H128.922V180.953H124.161V185.714Z" fill="#894932"/>
<path d="M124.16 119.047H128.922V114.285H124.16V119.047Z" fill="#A0593D"/>
<path d="M124.16 90.4771H128.922V85.7148H124.16V90.4771Z" fill="#A0593D"/>
<path d="M124.16 114.285H128.922L128.922 109.523H124.16L124.16 114.285Z" fill="#A0593D"/>
<path d="M124.16 128.571H128.922V123.809H124.16V128.571Z" fill="#A0593D"/>
<path d="M124.16 133.333H128.922V128.572H124.16V133.333Z" fill="#A0593D"/>
<path d="M124.16 123.809H128.922L128.922 119.047H124.16L124.16 123.809Z" fill="#A0593D"/>
<path d="M124.16 100.001H128.922V95.2383H124.16V100.001Z" fill="#A0593D"/>
<path d="M124.16 95.2383H128.922V90.4771H124.16V95.2383Z" fill="#A0593D"/>
<path d="M124.16 109.523H128.922L128.922 104.762H124.16L124.16 109.523Z" fill="#A0593D"/>
<path d="M124.16 104.762H128.922V100.001H124.16V104.762Z" fill="#A0593D"/>
<path d="M124.16 138.095H128.922V133.332H124.16V138.095Z" fill="#A0593D"/>
<path d="M124.16 171.428H128.922V166.666H124.16V171.428Z" fill="#894932"/>
<path d="M124.16 176.191H128.922V171.43H124.16V176.191Z" fill="#894932"/>
<path d="M124.16 180.952L128.922 180.953L128.922 176.191H124.16L124.16 180.952Z" fill="#894932"/>
<path d="M124.16 166.666H128.922L128.922 161.904H124.16L124.16 166.666Z" fill="#894932"/>
<path d="M124.16 161.906H128.922V157.145H124.16V161.906Z" fill="#683624"/>
<path d="M124.16 152.381H128.922V147.619H124.16V152.381Z" fill="#231F20"/>
<path d="M124.16 147.619H128.922L128.922 142.857H124.16L124.16 147.619Z" fill="#683624"/>
<path d="M124.16 142.857H128.922V138.095H124.16V142.857Z" fill="#A0593D"/>
<path d="M124.16 157.145H128.922L128.922 152.383H124.16L124.16 157.145Z" fill="#231F20"/>
<path d="M124.16 76.1919H128.922V71.4297H124.16V76.1919Z" fill="#231F20"/>
<path d="M124.16 80.9536H128.922V76.1919H124.16V80.9536Z" fill="#BF7550"/>
<path d="M124.16 85.7148H128.922L128.922 80.9536H124.16L124.16 85.7148Z" fill="#A0593D"/>
<path d="M62.2539 47.6196H67.0161V42.8579H62.2539V47.6196Z" fill="#887968"/>
<path d="M67.0195 47.6196H71.7817V42.8579H67.0195V47.6196Z" fill="#231F20"/>
<path d="M114.637 80.9536H119.399V76.1914H114.637V80.9536Z" fill="#BF7550"/>
<path d="M114.637 76.1914H119.399V71.4297H114.637V76.1914Z" fill="#231F20"/>
<path d="M114.637 85.7142H119.399V80.9536H114.637V85.7142Z" fill="#A0593D"/>
<path d="M114.637 95.2388H119.399V90.4766H114.637V95.2388Z" fill="#A0593D"/>
<path d="M114.637 90.4766H119.399V85.7142H114.637V90.4766Z" fill="#A0593D"/>
<path d="M19.3984 47.6196H24.1607V42.8579H19.3984V47.6196Z" fill="#A0593D"/>
<path d="M57.4922 47.6196H62.2539V42.8579H57.4915L57.4922 47.6196Z" fill="#65594D"/>
<path d="M5.11328 47.6196H9.8755V42.8579H5.11328V47.6196Z" fill="#231F20"/>
<path d="M9.8755 47.6196L14.637 47.6198L14.6372 42.8579H9.8755V47.6196Z" fill="#A0593D"/>
<path d="M43.207 47.6196H47.9692L47.9688 42.8579H43.207V47.6196Z" fill="#A0593D"/>
<path d="M38.4454 47.6198L43.207 47.6196V42.8579H38.4446L38.4454 47.6198Z" fill="#A0593D"/>
<path d="M47.9692 47.6196H52.731V42.8579H47.9688L47.9692 47.6196Z" fill="#A0593D"/>
<path d="M52.731 47.6196H57.4922L57.4915 42.8579H52.731V47.6196Z" fill="#231F20"/>
<path d="M114.637 100H119.399V95.2388H114.637V100Z" fill="#A0593D"/>
<path d="M24.1607 47.6196H28.9224L28.9219 42.8579H24.1607V47.6196Z" fill="#A0593D"/>
<path d="M14.637 47.6198L19.3984 47.6196V42.8579H14.6372L14.637 47.6198Z" fill="#A0593D"/>
<path d="M33.6836 47.6196L38.4454 47.6198L38.4446 42.8579H33.6836V47.6196Z" fill="#A0593D"/>
<path d="M28.9224 47.6196H33.6836V42.8579H28.9219L28.9224 47.6196Z" fill="#A0593D"/>
<path d="M43.207 176.191H47.9692V171.43H43.207V176.191Z" fill="#231F20"/>
<path d="M47.9692 176.191H52.731V171.43H47.9692V176.191Z" fill="#683624"/>
<path d="M52.731 176.191H57.4915V171.43H52.731V176.191Z" fill="#231F20"/>
<path d="M81.3047 176.191H86.0669V171.43H81.3047V176.191Z" fill="#A0593D"/>
<path d="M76.543 176.191H81.3047V171.43H76.543V176.191Z" fill="#231F20"/>
<path d="M57.4915 176.191H62.2544V171.43H57.4915V176.191Z" fill="#231F20"/>
<path d="M114.637 133.331H119.399V128.57H114.637V133.331Z" fill="#A0593D"/>
<path d="M114.637 138.095H119.399V133.331H114.637V138.095Z" fill="#231F20"/>
<path d="M114.637 147.62H119.399V142.857H114.637V147.62Z" fill="#683624"/>
<path d="M114.637 152.381H119.399V147.62H114.637V152.381Z" fill="#683624"/>
<path d="M86.0742 176.191H90.8364V171.43H86.0742V176.191Z" fill="#231F20"/>
<path d="M114.637 142.857H119.399V138.095H114.637V142.857Z" fill="#231F20"/>
<path d="M114.637 109.524H119.399V104.762H114.637V109.524Z" fill="#A0593D"/>
<path d="M114.637 114.286H119.399V109.524H114.637V114.286Z" fill="#A0593D"/>
<path d="M114.637 123.808H119.399V119.047H114.637V123.808Z" fill="#A0593D"/>
<path d="M114.637 119.047H119.399V114.286H114.637V119.047Z" fill="#A0593D"/>
<path d="M114.637 128.57H119.399V123.808H114.637V128.57Z" fill="#A0593D"/>
<path d="M114.637 157.144H119.399V152.383H114.637V157.144Z" fill="#894932"/>
<path d="M114.637 166.667H119.399V161.904H114.637V166.667Z" fill="#231F20"/>
<path d="M114.637 161.906H119.399V157.144H114.637V161.906Z" fill="#231F20"/>
<path d="M114.637 104.762H119.399V100H114.637V104.762Z" fill="#A0593D"/>
<path d="M119.399 161.906H124.16V157.145L119.399 157.144V161.906Z" fill="#894932"/>
<path d="M119.399 157.144L124.16 157.145L124.16 152.383H119.399V157.144Z" fill="#683624"/>
<path d="M119.398 171.43L124.16 171.43L124.161 166.668H119.398V171.43Z" fill="#231F20"/>
<path d="M119.399 166.667L124.16 166.666L124.16 161.904H119.399V166.667Z" fill="#894932"/>
<path d="M119.398 176.191H124.16V171.43L119.398 171.43V176.191Z" fill="#231F20"/>
<path d="M119.399 152.381L124.16 152.381V147.619L119.399 147.62V152.381Z" fill="#683624"/>
<path d="M119.399 138.095H124.16V133.332L119.399 133.331V138.095Z" fill="#A0593D"/>
<path d="M119.399 133.331L124.16 133.332V128.571L119.399 128.57V133.331Z" fill="#A0593D"/>
<path d="M119.398 180.953H124.161L124.16 176.191H119.398V180.953Z" fill="#231F20"/>
<path d="M81.3047 180.953H86.0664L86.0669 176.191H81.3047V180.953Z" fill="#A0593D"/>
<path d="M86.0664 180.953H90.8274V176.191L86.0669 176.191L86.0664 180.953Z" fill="#231F20"/>
<path d="M76.543 180.953H81.3047V176.191H76.543V180.953Z" fill="#231F20"/>
<path d="M119.399 128.57L124.16 128.571V123.809L119.399 123.808V128.57Z" fill="#A0593D"/>
<path d="M119.399 147.62L124.16 147.619L124.16 142.857H119.399V147.62Z" fill="#231F20"/>
<path d="M119.399 76.1914L124.16 76.1919V71.4297H119.399V76.1914Z" fill="#231F20"/>
<path d="M119.399 95.2388L124.16 95.2383V90.4771L119.399 90.4766V95.2388Z" fill="#A0593D"/>
<path d="M119.399 104.762L124.16 104.762V100.001L119.399 100V104.762Z" fill="#A0593D"/>
<path d="M119.399 114.286L124.16 114.285L124.16 109.523L119.399 109.524V114.286Z" fill="#A0593D"/>
<path d="M119.399 80.9536H124.16V76.1919L119.399 76.1914V80.9536Z" fill="#BF7550"/>
<path d="M119.399 119.047L124.16 119.047V114.285L119.399 114.286V119.047Z" fill="#A0593D"/>
<path d="M119.399 109.524L124.16 109.523L124.16 104.762L119.399 104.762V109.524Z" fill="#A0593D"/>
<path d="M119.399 85.7142L124.16 85.7148L124.16 80.9536H119.399V85.7142Z" fill="#A0593D"/>
<path d="M119.399 90.4766L124.16 90.4771V85.7148L119.399 85.7142V90.4766Z" fill="#A0593D"/>
<path d="M119.399 123.808L124.16 123.809L124.16 119.047L119.399 119.047V123.808Z" fill="#A0593D"/>
<path d="M119.399 100L124.16 100.001V95.2383L119.399 95.2388V100Z" fill="#A0593D"/>
<path d="M119.399 142.857H124.16V138.095H119.399V142.857Z" fill="#683624"/>
<path d="M43.207 180.952L47.9688 180.953L47.9692 176.191H43.207V180.952Z" fill="#231F20"/>
<path d="M57.4915 180.953H62.2544V176.191H57.4915V180.953Z" fill="#231F20"/>
<path d="M47.9688 180.953H52.7305L52.731 176.191H47.9692L47.9688 180.953Z" fill="#231F20"/>
<path d="M52.7305 180.953H57.4915V176.191H52.731L52.7305 180.953Z" fill="#231F20"/>
<path d="M57.4922 28.5708H62.2544V23.8086H57.4922V28.5708Z" fill="#231F20"/>
<path d="M52.7305 28.5708H57.4922V23.8086H52.7305V28.5708Z" fill="#A89984"/>
<path d="M47.9688 28.5708H52.7305V23.8086H47.9688V28.5708Z" fill="#65594D"/>
<path d="M38.4453 28.5708H43.2075V23.8086H38.4453V28.5708Z" fill="#894932"/>
<path d="M33.6836 28.5708H38.4453V23.8086H33.6836V28.5708Z" fill="#231F20"/>
<path d="M43.2075 28.5708H47.9688V23.8086H43.2075V28.5708Z" fill="#231F20"/>
<path d="M28.9219 28.5708H33.6836V23.8086H28.9219V28.5708Z" fill="#65594D"/>
<path d="M24.1602 28.5708H28.9219V23.8086H24.1602V28.5708Z" fill="#887968"/>
<path d="M9.875 28.5708H14.6372V23.8086H9.875V28.5708Z" fill="#231F20"/>
<path d="M19.3984 28.5708H24.1602V23.8086H19.3984V28.5708Z" fill="#887968"/>
<path d="M14.6372 28.5708H19.3984V23.8086H14.6372V28.5708Z" fill="#231F20"/>
<path d="M133.684 166.667H138.446V161.904H133.684V166.667Z" fill="#231F20"/>
<path d="M133.684 161.906H138.446V157.145H133.684V161.906Z" fill="#683624"/>
<path d="M133.684 133.331H138.446V128.57H133.684V133.331Z" fill="#A0593D"/>
<path d="M133.684 157.145H138.446V152.383H133.684V157.145Z" fill="#A0593D"/>
<path d="M133.684 147.62H138.446V142.857H133.684V147.62Z" fill="#A0593D"/>
<path d="M133.684 138.095H138.446V133.331H133.684V138.095Z" fill="#A0593D"/>
<path d="M133.684 142.857H138.446V138.095H133.684V142.857Z" fill="#A0593D"/>
<path d="M133.684 152.381H138.446V147.62H133.684V152.381Z" fill="#A0593D"/>
<path d="M119.398 195.238H124.161V190.477H119.398V195.238Z" fill="#231F20"/>
<path d="M124.161 195.238L128.922 195.238V190.477L124.161 190.477V195.238Z" fill="#231F20"/>
<path d="M128.922 195.238L133.683 195.238V190.477L128.922 190.477V195.238Z" fill="#231F20"/>
<path d="M133.684 66.6685H138.446V61.9062H133.684V66.6685Z" fill="#231F20"/>
<path d="M133.684 76.1919H138.446V71.4297H133.684V76.1919Z" fill="#887968"/>
<path d="M133.684 71.4297H138.446V66.6685H133.684V71.4297Z" fill="#A89984"/>
<path d="M133.684 128.57H138.446V123.809H133.684V128.57Z" fill="#A0593D"/>
<path d="M133.684 80.9536H138.446V76.1919H133.684V80.9536Z" fill="#65594D"/>
<path d="M133.684 119.047H138.446V114.285H133.684V119.047Z" fill="#A0593D"/>
<path d="M133.684 114.285H138.446V109.523H133.684V114.285Z" fill="#A0593D"/>
<path d="M133.684 123.809H138.446V119.047H133.684V123.809Z" fill="#A0593D"/>
<path d="M133.684 109.523H138.446V104.762H133.684V109.523Z" fill="#A0593D"/>
<path d="M133.684 100H138.446V95.2383H133.684V100Z" fill="#A0593D"/>
<path d="M133.684 90.4771H138.446V85.7148H133.684V90.4771Z" fill="#BF7550"/>
<path d="M133.684 95.2383H138.446V90.4771H133.684V95.2383Z" fill="#A0593D"/>
<path d="M133.684 85.7148H138.446V80.9536H133.684V85.7148Z" fill="#231F20"/>
<path d="M133.684 104.762H138.446V100H133.684V104.762Z" fill="#A0593D"/>
<path d="M86.0664 200.001H90.8274V195.238H86.0664V200.001Z" fill="#231F20"/>
<path d="M81.3047 200.001H86.0664V195.238H81.3047V200.001Z" fill="#231F20"/>
<path d="M124.16 200.001H128.922L128.922 195.238L124.161 195.238L124.16 200.001Z" fill="#231F20"/>
<path d="M119.398 200.001H124.16L124.161 195.238H119.398V200.001Z" fill="#231F20"/>
<path d="M76.543 200.001H81.3047V195.238H76.543V200.001Z" fill="#231F20"/>
<path d="M128.922 200.001H133.683V195.238L128.922 195.238L128.922 200.001Z" fill="#231F20"/>
<path d="M138.446 138.095H143.208V133.332L138.446 133.331V138.095Z" fill="#A0593D"/>
<path d="M138.446 142.857L143.208 142.857V138.095H138.446V142.857Z" fill="#A0593D"/>
<path d="M138.446 133.331L143.208 133.332V128.57H138.446V133.331Z" fill="#A0593D"/>
<path d="M138.446 152.381H143.208V147.619L138.446 147.62V152.381Z" fill="#A0593D"/>
<path d="M138.446 157.145L143.208 157.144V152.383H138.446V157.145Z" fill="#A0593D"/>
<path d="M138.446 147.62L143.208 147.619V142.857L138.446 142.857V147.62Z" fill="#A0593D"/>
<path d="M138.446 114.285L143.208 114.286V109.523H138.446V114.285Z" fill="#A0593D"/>
<path d="M138.446 128.57H143.208V123.809H138.446V128.57Z" fill="#A0593D"/>
<path d="M138.446 119.047H143.208V114.286L138.446 114.285V119.047Z" fill="#A0593D"/>
<path d="M138.446 123.809H143.208V119.047H138.446V123.809Z" fill="#A0593D"/>
<path d="M138.446 166.667H143.208V161.904H138.446V166.667Z" fill="#683624"/>
<path d="M138.445 171.43H143.208V166.668H138.445V171.43Z" fill="#231F20"/>
<path d="M138.446 161.906H143.208V157.144L138.446 157.145V161.906Z" fill="#A0593D"/>
<path d="M128.922 119.047H133.684V114.285H128.922V119.047Z" fill="#A0593D"/>
<path d="M128.922 123.809H133.684V119.047H128.922L128.922 123.809Z" fill="#A0593D"/>
<path d="M128.922 114.285H133.684V109.523H128.922L128.922 114.285Z" fill="#A0593D"/>
<path d="M128.922 128.571L133.684 128.57V123.809H128.922V128.571Z" fill="#A0593D"/>
<path d="M128.922 133.332L133.684 133.331V128.57L128.922 128.571V133.332Z" fill="#A0593D"/>
<path d="M128.922 100.001L133.684 100V95.2383L128.922 95.2383V100.001Z" fill="#A0593D"/>
<path d="M128.922 90.4771H133.684V85.7148H128.922V90.4771Z" fill="#A0593D"/>
<path d="M128.922 138.095H133.684V133.331L128.922 133.332V138.095Z" fill="#A0593D"/>
<path d="M128.922 104.762L133.684 104.762V100L128.922 100.001V104.762Z" fill="#A0593D"/>
<path d="M128.922 109.523H133.684V104.762L128.922 104.762L128.922 109.523Z" fill="#A0593D"/>
<path d="M128.922 95.2383L133.684 95.2383V90.4771H128.922V95.2383Z" fill="#A0593D"/>
<path d="M128.922 171.43L133.683 171.43V166.668H128.922L128.922 171.43Z" fill="#231F20"/>
<path d="M128.922 176.191H133.683V171.43L128.922 171.43V176.191Z" fill="#231F20"/>
<path d="M128.922 142.857H133.684V138.095H128.922V142.857Z" fill="#A0593D"/>
<path d="M128.922 180.953L133.683 180.952V176.191H128.922L128.922 180.953Z" fill="#231F20"/>
<path d="M128.922 190.477L133.683 190.477V185.713H128.922L128.922 190.477Z" fill="#231F20"/>
<path d="M128.922 185.714H133.683V180.952L128.922 180.953V185.714Z" fill="#231F20"/>
<path d="M128.922 161.906H133.684V157.145H128.922V161.906Z" fill="#231F20"/>
<path d="M128.922 147.619L133.684 147.62V142.857H128.922L128.922 147.619Z" fill="#A0593D"/>
<path d="M128.922 152.381L133.684 152.381V147.62L128.922 147.619V152.381Z" fill="#A0593D"/>
<path d="M128.922 157.145H133.684V152.383H128.922L128.922 157.145Z" fill="#683624"/>
<path d="M128.922 166.666L133.684 166.667V161.904H128.922L128.922 166.666Z" fill="#231F20"/>
<path d="M128.922 76.1919H133.684V71.4297H128.922V76.1919Z" fill="#231F20"/>
<path d="M128.922 71.4297H133.684V66.6685L128.922 66.668L128.922 71.4297Z" fill="#231F20"/>
<path d="M128.922 80.9536H133.684V76.1919H128.922V80.9536Z" fill="#231F20"/>
<path d="M128.922 85.7148H133.684V80.9536H128.922L128.922 85.7148Z" fill="#BF7550"/>
<path d="M76.543 190.476H81.3052V185.713H76.543V190.476Z" fill="#231F20"/>
<path d="M81.3052 190.476H86.0669V185.713H81.3052V190.476Z" fill="#A0593D"/>
<path d="M124.161 190.477L128.922 190.477L128.922 185.713H124.16L124.161 190.477Z" fill="#894932"/>
<path d="M119.398 190.477H124.161L124.16 185.713H119.398V190.477Z" fill="#231F20"/>
<path d="M86.0669 190.476H90.8274V185.713H86.0669V190.476Z" fill="#231F20"/>
<path d="M76.543 195.238H81.3047L81.3052 190.476H76.543V195.238Z" fill="#231F20"/>
<path d="M86.0664 195.238H90.8274V190.476H86.0669L86.0664 195.238Z" fill="#231F20"/>
<path d="M81.3047 195.238H86.0664L86.0669 190.476H81.3052L81.3047 195.238Z" fill="#231F20"/>
<path d="M9.87482 33.334H14.637L14.637 28.5721H9.87481L9.87482 33.334Z" fill="#231F20"/>
<path d="M14.637 33.334L19.3977 33.3333V28.5723L14.637 28.5721L14.637 33.334Z" fill="#BF7550"/>
<path d="M19.3977 33.3333H24.1607V28.5723H19.3977V33.3333Z" fill="#231F20"/>
<path d="M28.9219 33.3333H33.6841V28.5723H28.9219V33.3333Z" fill="#231F20"/>
<path d="M24.1607 33.3333H28.9219V28.5723H24.1607V33.3333Z" fill="#65594D"/>
<path d="M62.2539 33.3333H67.0161V28.5723H62.2539V33.3333Z" fill="#231F20"/>
<path d="M33.6841 33.3333H38.4446V28.5723H33.6841V33.3333Z" fill="#894932"/>
<path d="M57.4922 33.3333H62.2539V28.5723H57.4922V33.3333Z" fill="#A89984"/>
<path d="M38.4446 33.3333L43.2076 33.334L43.2076 28.5721L38.4446 28.5723V33.3333Z" fill="#A0593D"/>
<path d="M52.7305 33.3333H57.4922V28.5723H52.7305V33.3333Z" fill="#887968"/>
<path d="M43.2076 33.334L47.9692 33.3333V28.5723L43.2076 28.5721L43.2076 33.334Z" fill="#BF7550"/>
<path d="M47.9692 33.3333H52.7305V28.5723H47.9692V33.3333Z" fill="#231F20"/>
<path d="M47.9688 133.331H52.731V128.57H47.9688V133.331Z" fill="#BF7550"/>
<path d="M81.3047 90.4771H86.0669V85.7148H81.3047V90.4771Z" fill="#A0593D"/>
<path d="M81.3047 76.1919H86.0669V71.4297H81.3047V76.1919Z" fill="#231F20"/>
<path d="M71.7812 76.1919H76.5423V71.4297H71.7812V76.1919Z" fill="#BF7550"/>
<path d="M81.3047 80.9536H86.0669V76.1919H81.3047V80.9536Z" fill="#231F20"/>
<path d="M81.3047 85.7148H86.0669V80.9536H81.3047V85.7148Z" fill="#A0593D"/>
<path d="M76.5423 76.1919H81.3047V71.4297H76.5423V76.1919Z" fill="#231F20"/>
<path d="M52.7305 76.1919H57.4915V71.4297H52.7305V76.1919Z" fill="#894932"/>
<path d="M67.0195 76.1919H71.7812V71.4297H67.0195V76.1919Z" fill="#A0593D"/>
<path d="M57.4961 76.1919H62.2583V71.4297H57.4961V76.1919Z" fill="#A0593D"/>
<path d="M76.543 80.9536H81.3047V76.1919H76.5423L76.543 80.9536Z" fill="#BF7550"/>
<path d="M81.3047 104.761H86.0669V100H81.3047V104.761Z" fill="#A0593D"/>
<path d="M81.3047 128.571H86.0669V123.809H81.3047V128.571Z" fill="#A0593D"/>
<path d="M81.3047 123.809H86.0669V119.047H81.3047V123.809Z" fill="#A0593D"/>
<path d="M81.3047 95.2388H86.0669V90.4771H81.3047V95.2388Z" fill="#A0593D"/>
<path d="M81.3047 133.331H86.0669V128.571H81.3047V133.331Z" fill="#A0593D"/>
<path d="M81.3047 119.047H86.0669V114.285H81.3047V119.047Z" fill="#A0593D"/>
<path d="M81.3047 138.095H86.0669V133.331H81.3047V138.095Z" fill="#A0593D"/>
<path d="M47.9688 76.1919H52.7305V71.4297H47.9688V76.1919Z" fill="#231F20"/>
<path d="M81.3047 114.285H86.0669V109.523H81.3047V114.285Z" fill="#A0593D"/>
<path d="M81.3047 100H86.0669V95.2388H81.3047V100Z" fill="#A0593D"/>
<path d="M81.3047 109.523H86.0669V104.761H81.3047V109.523Z" fill="#A0593D"/>
<path d="M9.87482 90.4771H14.637V85.7148H9.87482V90.4771Z" fill="#E7E3E2"/>
<path d="M9.875 104.761H14.6372V100H9.875V104.761Z" fill="#B3AFAE"/>
<path d="M9.87481 109.524H14.637L14.6372 104.761H9.875L9.87481 109.524Z" fill="#231F20"/>
<path d="M9.875 100H14.6372L14.637 95.2383H9.87481L9.875 100Z" fill="#C8C4C3"/>
<path d="M9.87481 95.2383H14.637L14.637 90.4771H9.87482L9.87481 95.2383Z" fill="#231F20"/>
<path d="M81.3047 142.857H86.0669V138.095H81.3047V142.857Z" fill="#A0593D"/>
<path d="M33.6836 76.1919H38.4446V71.4297H33.6836V76.1919Z" fill="#A0593D"/>
<path d="M43.207 76.1919H47.9688V71.4297H43.207V76.1919Z" fill="#894932"/>
<path d="M28.9219 76.1919H33.6836V71.4297H28.9219V76.1919Z" fill="#A0593D"/>
<path d="M9.87482 85.7148H14.637L14.637 80.9529H9.87481L9.87482 85.7148Z" fill="#231F20"/>
<path d="M38.4446 76.1919H43.207V71.4297H38.4446V76.1919Z" fill="#A0593D"/>
<path d="M24.1602 76.1919H28.9219V71.4297H24.1602V76.1919Z" fill="#A0593D"/>
<path d="M9.875 76.1919H14.6372V71.4297H9.875V76.1919Z" fill="#A0593D"/>
<path d="M9.87481 80.9529H14.637L14.6372 76.1919H9.875L9.87481 80.9529Z" fill="#A0593D"/>
<path d="M19.3984 76.1919H24.1602V71.4297H19.3984V76.1919Z" fill="#A0593D"/>
<path d="M14.6372 76.1919H19.3984V71.4297H14.6372V76.1919Z" fill="#A0593D"/>
<path d="M14.637 85.7148L19.3977 85.7142V80.9531L14.637 80.9529L14.637 85.7148Z" fill="#231F20"/>
<path d="M14.637 80.9529L19.3977 80.9531L19.3984 76.1919H14.6372L14.637 80.9529Z" fill="#A0593D"/>
<path d="M24.1602 80.9536H28.9224L28.9219 76.1919H24.1602V80.9536Z" fill="#A0593D"/>
<path d="M19.3977 80.9531L24.1602 80.9536V76.1919H19.3984L19.3977 80.9531Z" fill="#A0593D"/>
<path d="M14.637 90.4771H19.3977V85.7142L14.637 85.7148V90.4771Z" fill="#E7E3E2"/>
<path d="M14.637 109.524L19.3977 109.524V104.762L14.6372 104.761L14.637 109.524Z" fill="#231F20"/>
<path d="M28.9224 80.9536H33.6841L33.6836 76.1919H28.9219L28.9224 80.9536Z" fill="#A0593D"/>
<path d="M14.6372 100L19.3977 100V95.2383L14.637 95.2383L14.6372 100Z" fill="#C8C4C3"/>
<path d="M14.637 95.2383L19.3977 95.2383V90.4771H14.637L14.637 95.2383Z" fill="#C8C4C3"/>
<path d="M14.6372 104.761L19.3977 104.762V100L14.6372 100V104.761Z" fill="#B3AFAE"/>
<path d="M57.4961 80.9536H62.2583V76.1919H57.4961V80.9536Z" fill="#A0593D"/>
<path d="M81.3047 147.62H86.0669V142.857H81.3047V147.62Z" fill="#A0593D"/>
<path d="M33.6841 80.9536H38.4446V76.1919H33.6836L33.6841 80.9536Z" fill="#A0593D"/>
<path d="M71.7812 80.9536H76.543L76.5423 76.1919H71.7812V80.9536Z" fill="#A0593D"/>
<path d="M62.2539 80.9536H67.0161V76.1914H62.2539V80.9536Z" fill="#A0593D"/>
<path d="M52.7305 80.9536H57.4915V76.1919H52.7305V80.9536Z" fill="#894932"/>
<path d="M38.4446 80.9536H43.2075L43.207 76.1919H38.4446V80.9536Z" fill="#894932"/>
<path d="M43.2075 80.9536H47.9692L47.9688 76.1919H43.207L43.2075 80.9536Z" fill="#683624"/>
<path d="M47.9692 80.9536H52.7305V76.1919H47.9688L47.9692 80.9536Z" fill="#231F20"/>
<path d="M67.0195 80.9536H71.7812V76.1919H67.0195V80.9536Z" fill="#A0593D"/>
<path d="M52.7305 147.62H57.4915V142.857H52.7305V147.62Z" fill="#231F20"/>
<path d="M33.6836 147.62H38.4446V142.857H33.6836V147.62Z" fill="#231F20"/>
<path d="M38.4446 142.857V147.62H43.2075V142.857H38.4446Z" fill="#BF7550"/>
<path d="M43.2075 147.62H47.9692V142.857H43.2075V147.62Z" fill="#A0593D"/>
<path d="M76.543 147.62H81.3047V142.857L76.543 142.857V147.62Z" fill="#A0593D"/>
<path d="M71.7812 147.62H76.543V142.857H71.7812V147.62Z" fill="#894932"/>
<path d="M67.0195 147.62H71.7812V142.857H67.0195V147.62Z" fill="#231F20"/>
<path d="M47.9692 147.62H52.7305V142.857H47.9692V147.62Z" fill="#683624"/>
<path d="M62.2539 76.1914H67.0161V71.4297H62.2539V76.1914Z" fill="#A0593D"/>
<path d="M5.11328 90.4771H9.87482V85.7148H5.11328V90.4771Z" fill="#231F20"/>
<path d="M5.11328 71.429L9.875 71.4297L9.8755 66.668H5.11328V71.429Z" fill="#A0593D"/>
<path d="M5.11328 95.2388L9.87481 95.2383L9.87482 90.4771H5.11328V95.2388Z" fill="#E7E3E2"/>
<path d="M5.11328 80.9536L9.87481 80.9529L9.875 76.1919L5.11328 76.1914V80.9536Z" fill="#A0593D"/>
<path d="M5.11328 76.1914L9.875 76.1919V71.4297L5.11328 71.429V76.1914Z" fill="#A0593D"/>
<path d="M5.11328 85.7148H9.87482L9.87481 80.9529L5.11328 80.9536V85.7148Z" fill="#A0593D"/>
<path d="M5.11328 100L9.875 100L9.87481 95.2383L5.11328 95.2388V100Z" fill="#C8C4C3"/>
<path d="M5.11328 104.761H9.875V100L5.11328 100V104.761Z" fill="#231F20"/>
<path d="M47.9688 71.4297H52.7305L52.731 66.668H47.9688V71.4297Z" fill="#894932"/>
<path d="M33.6836 71.4297H38.4446V66.668H33.6836V71.4297Z" fill="#A0593D"/>
<path d="M43.207 71.4297H47.9688V66.668H43.207V71.4297Z" fill="#A0593D"/>
<path d="M38.4446 71.4297H43.207V66.668H38.4446V71.4297Z" fill="#A0593D"/>
<path d="M24.1602 71.4297H28.9219L28.9224 66.668H24.1602V71.4297Z" fill="#A0593D"/>
<path d="M19.3984 71.4297H24.1602V66.668H19.3984V71.4297Z" fill="#A0593D"/>
<path d="M52.7305 71.4297L57.4927 71.429V66.668H52.731L52.7305 71.4297Z" fill="#A0593D"/>
<path d="M28.9219 71.4297H33.6836V66.668H28.9224L28.9219 71.4297Z" fill="#A0593D"/>
<path d="M9.875 71.4297H14.6372V66.668H9.8755L9.875 71.4297Z" fill="#A0593D"/>
<path d="M14.6372 71.4297H19.3984V66.668H14.6372V71.4297Z" fill="#A0593D"/>
<path d="M38.4453 152.383V157.144H43.2075V152.383H38.4453Z" fill="#A0593D"/>
<path d="M33.6836 157.144H38.4453V152.383H33.6836V157.144Z" fill="#A0593D"/>
<path d="M28.9219 157.144H33.6836V152.383H28.9219V157.144Z" fill="#231F20"/>
<path d="M43.2075 157.144H47.9692V152.383H43.2075V157.144Z" fill="#231F20"/>
<path d="M76.543 152.381H81.3052L81.3047 147.62H76.543V152.381Z" fill="#A0593D"/>
<path d="M47.9688 152.381H52.731L52.7305 147.62H47.9692L47.9688 152.381Z" fill="#231F20"/>
<path d="M71.7812 152.381H76.543V147.62H71.7812V152.381Z" fill="#231F20"/>
<path d="M86.0664 152.381H90.8274V147.619L86.0669 147.62L86.0664 152.381Z" fill="#231F20"/>
<path d="M86.0669 147.62L90.8274 147.619V142.857L86.0669 142.857V147.62Z" fill="#231F20"/>
<path d="M81.3052 152.381H86.0664L86.0669 147.62H81.3047L81.3052 152.381Z" fill="#A0593D"/>
<path d="M86.0669 142.857L90.8274 142.857V138.096L86.0669 138.095V142.857Z" fill="#231F20"/>
<path d="M43.207 152.381H47.9688L47.9692 147.62H43.2075L43.207 152.381Z" fill="#683624"/>
<path d="M38.4446 147.62L38.4454 152.381L43.207 152.381L43.2075 147.62H38.4446Z" fill="#A0593D"/>
<path d="M33.6836 152.381L38.4454 152.381L38.4446 147.62H33.6836V152.381Z" fill="#BF7550"/>
<path d="M28.9219 152.381H33.6836V147.62L28.9219 147.619V152.381Z" fill="#231F20"/>
<path d="M57.4915 71.4297H62.2539L62.2544 66.668H57.4927L57.4915 71.4297Z" fill="#A0593D"/>
<path d="M81.3047 71.4297H86.0669V66.668H81.3047V71.4297Z" fill="#231F20"/>
<path d="M86.0669 85.7148L90.8274 85.7142V80.9531L86.0669 80.9536V85.7148Z" fill="#A0593D"/>
<path d="M86.0669 138.095L90.8274 138.096V133.332L86.0669 133.331V138.095Z" fill="#231F20"/>
<path d="M62.2539 71.4297H67.0161V66.668H62.2544L62.2539 71.4297Z" fill="#A0593D"/>
<path d="M86.0669 90.4771H90.8274V85.7142L86.0669 85.7148V90.4771Z" fill="#A0593D"/>
<path d="M67.0195 71.4297H71.7812L71.7817 66.668H67.0195V71.4297Z" fill="#BF7550"/>
<path d="M71.7812 71.4297H76.5423V66.668H71.7817L71.7812 71.4297Z" fill="#231F20"/>
<path d="M76.5423 71.4297H81.3047V66.668H76.5423V71.4297Z" fill="#65594D"/>
<path d="M86.0669 80.9536L90.8274 80.9531V76.1914L86.0669 76.1919V80.9536Z" fill="#231F20"/>
<path d="M86.0669 128.571H90.8274V123.809H86.0669V128.571Z" fill="#A0593D"/>
<path d="M86.0669 123.809H90.8274V119.047H86.0669V123.809Z" fill="#A0593D"/>
<path d="M86.0669 133.331L90.8274 133.332V128.571H86.0669V133.331Z" fill="#894932"/>
<path d="M86.0669 95.2388H90.8274V90.4771H86.0669V95.2388Z" fill="#A0593D"/>
<path d="M86.0669 119.047H90.8274V114.285H86.0669V119.047Z" fill="#A0593D"/>
<path d="M86.0669 100L90.8274 100V95.2388H86.0669V100Z" fill="#A0593D"/>
<path d="M86.0669 114.285H90.8274V109.523H86.0669V114.285Z" fill="#A0593D"/>
<path d="M86.0669 104.761H90.8274V100L86.0669 100V104.761Z" fill="#A0593D"/>
<path d="M86.0669 109.523H90.8274V104.761H86.0669V109.523Z" fill="#A0593D"/>
<path d="M52.7305 119.047H57.4915V114.285H52.7305V119.047Z" fill="#BF7550"/>
<path d="M28.9219 95.2388H33.6841V90.4766H28.9219V95.2388Z" fill="#C8C4C3"/>
<path d="M28.9219 100H33.6841V95.2388H28.9219V100Z" fill="#C8C4C3"/>
<path d="M33.6841 95.2388H38.4446V90.4766H33.6841V95.2388Z" fill="#231F20"/>
<path d="M38.4446 95.2388H43.2075V90.4766H38.4446V95.2388Z" fill="white"/>
<path d="M28.9219 104.761H33.6841V100H28.9219V104.761Z" fill="#B3AFAE"/>
<path d="M28.9219 109.524H33.6841V104.761H28.9219V109.524Z" fill="#231F20"/>
<path d="M43.2075 95.2388H47.9692V90.4766H43.2075V95.2388Z" fill="#231F20"/>
<path d="M62.2539 109.524H67.0161V104.762H62.2539V109.524Z" fill="#A0593D"/>
<path d="M47.9692 95.2388H52.731V90.4766H47.9692V95.2388Z" fill="#894932"/>
<path d="M62.2539 114.286H67.0161V109.524H62.2539V114.286Z" fill="#A0593D"/>
<path d="M62.2539 123.808H67.0161V119.047H62.2539V123.808Z" fill="#A0593D"/>
<path d="M62.2539 119.047H67.0161V114.286H62.2539V119.047Z" fill="#A0593D"/>
<path d="M62.2539 104.762H67.0161V100H62.2539V104.762Z" fill="#A0593D"/>
<path d="M52.731 95.2388H57.4915V90.4766H52.731V95.2388Z" fill="#A0593D"/>
<path d="M57.4961 95.2388H62.2583V90.4766H57.4961V95.2388Z" fill="#A0593D"/>
<path d="M62.2539 95.2388H67.0161V90.4766H62.2539V95.2388Z" fill="#A0593D"/>
<path d="M62.2539 100H67.0161V95.2388H62.2539V100Z" fill="#A0593D"/>
<path d="M67.0195 119.047H71.7817V114.285H67.0195V119.047Z" fill="#A0593D"/>
<path d="M67.0195 109.524H71.7817V104.762H67.0195V109.524Z" fill="#A0593D"/>
<path d="M67.0195 104.762H71.7817V100H67.0195V104.762Z" fill="#A0593D"/>
<path d="M67.0195 114.285H71.7817V109.524H67.0195V114.285Z" fill="#A0593D"/>
<path d="M67.0195 100H71.7817V95.2383H67.0195V100Z" fill="#A0593D"/>
<path d="M62.2539 128.571H67.0161V123.808H62.2539V128.571Z" fill="#BF7550"/>
<path d="M76.543 85.7142L81.3047 85.7148V80.9536H76.543V85.7142Z" fill="#A0593D"/>
<path d="M67.0195 95.2383H71.7817V90.4766H67.0195V95.2383Z" fill="#A0593D"/>
<path d="M62.2539 90.4766H67.0161V85.7148H62.2539V90.4766Z" fill="#A0593D"/>
<path d="M67.0195 90.4766H71.7817V85.7148H67.0195V90.4766Z" fill="#A0593D"/>
<path d="M57.4961 90.4766H62.2583V85.7148H57.4961V90.4766Z" fill="#A0593D"/>
<path d="M43.207 133.331H47.9688V128.57H43.207V133.331Z" fill="#231F20"/>
<path d="M138.446 109.523H143.208V104.762H138.446V109.523Z" fill="#A0593D"/>
<path d="M67.0195 128.571H71.7817V123.809H67.0195V128.571Z" fill="#A0593D"/>
<path d="M62.2539 133.331H67.0161V128.571H62.2539V133.331Z" fill="#BF7550"/>
<path d="M67.0195 133.331H71.7817V128.571H67.0195V133.331Z" fill="#A0593D"/>
<path d="M57.4922 133.331H62.2539V128.571L57.4922 128.57V133.331Z" fill="#231F20"/>
<path d="M52.731 133.331H57.4922V128.57H52.731V133.331Z" fill="#A0593D"/>
<path d="M57.4922 128.57L62.2539 128.571V123.808L57.4922 123.809V128.57Z" fill="#A0593D"/>
<path d="M52.731 90.4766H57.4915V85.7148H52.7305L52.731 90.4766Z" fill="#A0593D"/>
<path d="M47.9688 104.761H52.731V100H47.9688V104.761Z" fill="#894932"/>
<path d="M52.7305 123.808L57.4922 123.809L57.4915 119.047H52.7305V123.808Z" fill="#A0593D"/>
<path d="M57.4922 123.809L62.2539 123.808V119.047L57.4915 119.047L57.4922 123.809Z" fill="#BF7550"/>
<path d="M47.9688 123.808H52.7305V119.047L47.9688 119.047V123.808Z" fill="#231F20"/>
<path d="M47.9688 114.286L52.7305 114.285L52.731 109.523H47.9688V114.286Z" fill="#231F20"/>
<path d="M47.9688 109.523H52.731V104.761H47.9688V109.523Z" fill="#231F20"/>
<path d="M52.731 104.761H57.4915V100H52.731V104.761Z" fill="#A0593D"/>
<path d="M52.7305 114.285H57.4915V109.523H52.731L52.7305 114.285Z" fill="#A0593D"/>
<path d="M47.9688 119.047L52.7305 119.047V114.285L47.9688 114.286V119.047Z" fill="#231F20"/>
<path d="M52.731 109.523H57.4915V104.761H52.731V109.523Z" fill="#A0593D"/>
<path d="M43.207 104.761H47.9688V100H43.207V104.761Z" fill="#231F20"/>
<path d="M47.9688 128.57H52.731L52.7305 123.808H47.9688V128.57Z" fill="#231F20"/>
<path d="M52.731 128.57H57.4922V123.809L52.7305 123.808L52.731 128.57Z" fill="#A0593D"/>
<path d="M33.6841 104.761H38.4446V100L33.6841 100V104.761Z" fill="#231F20"/>
<path d="M47.9688 100H52.731V95.2388H47.9692L47.9688 100Z" fill="#894932"/>
<path d="M57.4961 100H62.2583V95.2388H57.4961V100Z" fill="#A0593D"/>
<path d="M57.4915 109.523L62.2539 109.524V104.762L57.4915 104.761V109.523Z" fill="#A0593D"/>
<path d="M57.4915 104.761L62.2539 104.762V100H57.4915V104.761Z" fill="#A0593D"/>
<path d="M57.4915 114.285L62.2539 114.286V109.524L57.4915 109.523V114.285Z" fill="#A0593D"/>
<path d="M43.207 100H47.9688L47.9692 95.2388H43.2075L43.207 100Z" fill="#231F20"/>
<path d="M33.6841 100L38.4446 100V95.2388H33.6841V100Z" fill="#231F20"/>
<path d="M52.731 100H57.4915V95.2388H52.731V100Z" fill="#A0593D"/>
<path d="M57.4915 119.047L62.2539 119.047V114.286L57.4915 114.285V119.047Z" fill="#A0593D"/>
<path d="M67.0195 123.809H71.7817V119.047H67.0195V123.809Z" fill="#BF7550"/>
<path d="M19.3977 109.524H24.1607V104.762H19.3977V109.524Z" fill="#231F20"/>
<path d="M28.9219 85.7142H33.6841V80.9536H28.9224L28.9219 85.7142Z" fill="#A0593D"/>
<path d="M33.6841 85.7142H38.4446V80.9536H33.6841V85.7142Z" fill="#894932"/>
<path d="M38.4446 85.7142L43.2076 85.7139L43.2075 80.9536L38.4454 80.9529L38.4446 85.7142Z" fill="#683624"/>
<path d="M24.1602 85.7142H28.9219L28.9224 80.9536H24.1602V85.7142Z" fill="#231F20"/>
<path d="M19.3977 90.4771H24.1607L24.1602 85.7142H19.3977V90.4771Z" fill="#E7E3E2"/>
<path d="M19.3977 85.7142H24.1602V80.9536L19.3977 80.9531V85.7142Z" fill="#231F20"/>
<path d="M19.3977 95.2383L24.1607 95.2388V90.4771H19.3977V95.2383Z" fill="#231F20"/>
<path d="M19.3977 100H24.1607V95.2388L19.3977 95.2383V100Z" fill="#C8C4C3"/>
<path d="M19.3977 104.762H24.1607V100H19.3977V104.762Z" fill="#B3AFAE"/>
<path d="M38.4454 138.096L38.4446 142.857H43.2075L43.2076 138.096H38.4454Z" fill="#231F20"/>
<path d="M76.543 114.286L81.3047 114.285V109.523H76.543V114.286Z" fill="#A0593D"/>
<path d="M76.543 109.523H81.3047V104.761L76.543 104.762V109.523Z" fill="#A0593D"/>
<path d="M76.543 119.047L81.3047 119.047V114.285L76.543 114.286V119.047Z" fill="#A0593D"/>
<path d="M76.543 123.808L81.3047 123.809V119.047L76.543 119.047V123.808Z" fill="#A0593D"/>
<path d="M43.2076 85.7139L47.9692 85.7142V80.9536H43.2075L43.2076 85.7139Z" fill="#231F20"/>
<path d="M76.543 100L81.3047 100V95.2388L76.543 95.2383V100Z" fill="#A0593D"/>
<path d="M76.543 104.762L81.3047 104.761V100L76.543 100V104.762Z" fill="#A0593D"/>
<path d="M76.543 95.2383L81.3047 95.2388V90.4771L76.543 90.4766V95.2383Z" fill="#A0593D"/>
<path d="M76.543 90.4766L81.3047 90.4771V85.7148L76.543 85.7142V90.4766Z" fill="#A0593D"/>
<path d="M76.543 133.331H81.3047V128.571L76.543 128.57V133.331Z" fill="#A0593D"/>
<path d="M76.543 128.57L81.3047 128.571V123.809L76.543 123.808V128.57Z" fill="#A0593D"/>
<path d="M52.7305 142.857H57.4915V138.096H52.7305V142.857Z" fill="#683624"/>
<path d="M47.9692 142.857H52.7305V138.096H47.9688L47.9692 142.857Z" fill="#A0593D"/>
<path d="M57.4915 142.857L62.2544 142.857V138.096H57.4915V142.857Z" fill="#231F20"/>
<path d="M76.543 138.095H81.3047V133.331H76.543V138.095Z" fill="#A0593D"/>
<path d="M43.2075 142.857H47.9692L47.9688 138.096L43.2076 138.096L43.2075 142.857Z" fill="#BF7550"/>
<path d="M71.7812 142.857H76.543V138.095L71.7812 138.096V142.857Z" fill="#BF7550"/>
<path d="M76.543 142.857L81.3047 142.857V138.095H76.543V142.857Z" fill="#A0593D"/>
<path d="M62.2544 142.857H67.0161V138.096H62.2544V142.857Z" fill="#231F20"/>
<path d="M67.0195 142.857H71.7812V138.096H67.0195V142.857Z" fill="#231F20"/>
<path d="M47.9692 85.7142L52.7305 85.7148V80.9536H47.9692V85.7142Z" fill="#894932"/>
<path d="M47.9692 90.4766H52.731L52.7305 85.7148L47.9692 85.7142V90.4766Z" fill="#A0593D"/>
<path d="M43.2076 138.096L47.9688 138.096V133.331H43.207L43.2076 138.096Z" fill="#231F20"/>
<path d="M24.1607 104.762L28.9219 104.761V100H24.1607V104.762Z" fill="#B3AFAE"/>
<path d="M24.1607 109.524H28.9219V104.761L24.1607 104.762V109.524Z" fill="#231F20"/>
<path d="M33.6841 90.4766H38.4446V85.7142H33.6841V90.4766Z" fill="#683624"/>
<path d="M38.4446 90.4766H43.2075L43.2076 85.7139L38.4454 85.7148L38.4446 90.4766Z" fill="#231F20"/>
<path d="M43.2075 90.4766H47.9692V85.7142L43.207 85.7148L43.2075 90.4766Z" fill="#683624"/>
<path d="M28.9219 90.4766H33.6841V85.7142H28.9219V90.4766Z" fill="#231F20"/>
<path d="M24.1607 100H28.9219V95.2388H24.1607V100Z" fill="#C8C4C3"/>
<path d="M47.9688 138.096H52.7305L52.731 133.331H47.9688V138.096Z" fill="#A0593D"/>
<path d="M24.1607 90.4771L28.9219 90.4766V85.7142H24.1602L24.1607 90.4771Z" fill="#E7E3E2"/>
<path d="M24.1607 95.2388H28.9219V90.4766L24.1607 90.4771V95.2388Z" fill="#C8C4C3"/>
<path d="M71.7817 95.2383H76.543V90.4766H71.7817V95.2383Z" fill="#A0593D"/>
<path d="M71.7817 90.4766H76.543V85.7142L71.7817 85.7148V90.4766Z" fill="#A0593D"/>
<path d="M71.7817 104.762H76.543V100L71.7817 100V104.762Z" fill="#A0593D"/>
<path d="M71.7817 100L76.543 100V95.2383H71.7817V100Z" fill="#A0593D"/>
<path d="M71.7817 85.7148L76.543 85.7142V80.9536H71.7812L71.7817 85.7148Z" fill="#A0593D"/>
<path d="M52.7305 138.096H57.4915L57.4922 133.331H52.731L52.7305 138.096Z" fill="#A0593D"/>
<path d="M52.7305 85.7148H57.4915V80.9536H52.7305V85.7148Z" fill="#A0593D"/>
<path d="M57.4961 85.7148H62.2583V80.9536H57.4961V85.7148Z" fill="#A0593D"/>
<path d="M67.0195 85.7148H71.7817L71.7812 80.9536H67.0195V85.7148Z" fill="#A0593D"/>
<path d="M62.2539 85.7148H67.0161V80.9536H62.2539V85.7148Z" fill="#A0593D"/>
<path d="M71.7817 109.524L76.543 109.523V104.762H71.7817V109.524Z" fill="#A0593D"/>
<path d="M67.0195 138.096H71.7812L71.7817 133.331H67.0195V138.096Z" fill="#BF7550"/>
<path d="M62.2544 138.096H67.0161V133.331H62.2539L62.2544 138.096Z" fill="#231F20"/>
<path d="M71.7812 138.096L76.543 138.095V133.331H71.7817L71.7812 138.096Z" fill="#A0593D"/>
<path d="M71.7817 114.285L76.543 114.286V109.523L71.7817 109.524V114.285Z" fill="#A0593D"/>
<path d="M57.4915 138.096H62.2544L62.2539 133.331H57.4922L57.4915 138.096Z" fill="#683624"/>
<path d="M71.7817 123.809L76.543 123.808V119.047H71.7817V123.809Z" fill="#A0593D"/>
<path d="M71.7817 133.331H76.543V128.57L71.7817 128.571V133.331Z" fill="#A0593D"/>
<path d="M71.7817 119.047H76.543V114.286L71.7817 114.285V119.047Z" fill="#A0593D"/>
<path d="M71.7817 128.571L76.543 128.57V123.808L71.7817 123.809V128.571Z" fill="#A0593D"/>
<path d="M38.4454 171.428H43.2076V166.666H38.4454V171.428Z" fill="#231F20"/>
<path d="M52.731 171.43H57.4915V166.668H52.7305L52.731 171.43Z" fill="#231F20"/>
<path d="M43.207 171.43H47.9692V166.668H43.207V171.43Z" fill="#894932"/>
<path d="M47.9692 171.43H52.731L52.7305 166.668H47.9692V171.43Z" fill="#683624"/>
<path d="M5.11328 57.1431H9.8755V52.3809H5.11328V57.1431Z" fill="#231F20"/>
<path d="M100.352 90.4771H105.114V85.7148H100.352V90.4771Z" fill="#A0593D"/>
<path d="M100.352 95.2388H105.114V90.4771H100.352V95.2388Z" fill="#A0593D"/>
<path d="M100.352 100H105.114V95.2388H100.352V100Z" fill="#A0593D"/>
<path d="M100.352 114.286H105.114V109.523H100.352V114.286Z" fill="#A0593D"/>
<path d="M100.352 104.761H105.114V100H100.352V104.761Z" fill="#A0593D"/>
<path d="M100.352 109.523H105.114V104.761H100.352V109.523Z" fill="#A0593D"/>
<path d="M100.352 85.7148H105.114V80.9531H100.352V85.7148Z" fill="#A0593D"/>
<path d="M100.352 80.9531H105.114V76.1914H100.352V80.9531Z" fill="#231F20"/>
<path d="M100.352 142.857H105.114V138.096H100.352V142.857Z" fill="#231F20"/>
<path d="M71.7812 157.144H76.5423V152.383H71.7812V157.144Z" fill="#231F20"/>
<path d="M100.352 123.808H105.114V119.047H100.352V123.808Z" fill="#A0593D"/>
<path d="M100.352 128.571H105.114V123.808H100.352V128.571Z" fill="#A0593D"/>
<path d="M100.352 138.096H105.114V133.332H100.352V138.096Z" fill="#683624"/>
<path d="M100.352 119.047H105.114V114.286H100.352V119.047Z" fill="#A0593D"/>
<path d="M67.0195 57.1431H71.7817V52.3809H67.0195V57.1431Z" fill="#887968"/>
<path d="M33.6836 57.1431H38.4446V52.3809H33.6836V57.1431Z" fill="#A0593D"/>
<path d="M57.4922 57.1431H62.2544V52.3809H57.4922V57.1431Z" fill="#231F20"/>
<path d="M38.4446 57.1431L43.2076 57.1431V52.3808L38.4446 52.3809V57.1431Z" fill="#A0593D"/>
<path d="M47.9688 57.1431H52.731V52.3809H47.9688V57.1431Z" fill="#A0593D"/>
<path d="M52.731 57.1431H57.4922V52.3809H52.731V57.1431Z" fill="#A0593D"/>
<path d="M43.2076 57.1431L47.9688 57.1431V52.3809L43.2076 52.3808V57.1431Z" fill="#A0593D"/>
<path d="M19.3984 57.1431H24.1607V52.3809H19.3984V57.1431Z" fill="#A0593D"/>
<path d="M28.9219 57.1431H33.6836V52.3809H28.9219V57.1431Z" fill="#231F20"/>
<path d="M24.1607 57.1431H28.9219V52.3809H24.1607V57.1431Z" fill="#A0593D"/>
<path d="M14.6367 57.1431H19.3984V52.3809H14.6367V57.1431Z" fill="#231F20"/>
<path d="M62.2544 57.1431H67.0161V52.3809H62.2544V57.1431Z" fill="#65594D"/>
<path d="M9.8755 57.1431H14.6367V52.3809H9.8755V57.1431Z" fill="#A0593D"/>
<path d="M71.7817 57.1431H76.5423V52.3809H71.7817V57.1431Z" fill="#231F20"/>
<path d="M9.875 52.3794H14.6372V47.6172H9.875V52.3794Z" fill="#A0593D"/>
<path d="M5.11328 52.3794H9.875V47.6172H5.11328V52.3794Z" fill="#231F20"/>
<path d="M43.207 52.3794H47.9692V47.6172H43.207V52.3794Z" fill="#A0593D"/>
<path d="M47.9692 52.3794H52.731V47.6172H47.9692V52.3794Z" fill="#A0593D"/>
<path d="M52.731 52.3794H57.4915V47.6172H52.731V52.3794Z" fill="#BF7550"/>
<path d="M57.4915 52.3794H62.2544V47.6172H57.4915V52.3794Z" fill="#231F20"/>
<path d="M38.4453 52.3794H43.207V47.6172H38.4453V52.3794Z" fill="#A0593D"/>
<path d="M19.3984 52.3794H24.1607V47.6172H19.3984V52.3794Z" fill="#A0593D"/>
<path d="M24.1607 52.3794H28.9224V47.6172H24.1607V52.3794Z" fill="#A0593D"/>
<path d="M28.9258 52.3794H33.6868V47.6172H28.9258V52.3794Z" fill="#231F20"/>
<path d="M33.6836 52.3794H38.4453V47.6172H33.6836V52.3794Z" fill="#A0593D"/>
<path d="M62.2544 52.3794H67.0161V47.6172H62.2544V52.3794Z" fill="#887968"/>
<path d="M14.6372 52.3794H19.3984V47.6172H14.6372V52.3794Z" fill="#231F20"/>
<path d="M109.875 142.857L114.637 142.857V138.095L109.875 138.096V142.857Z" fill="#231F20"/>
<path d="M109.875 138.096L114.637 138.095V133.331L109.875 133.332V138.096Z" fill="#683624"/>
<path d="M109.875 147.62H114.637V142.857L109.875 142.857V147.62Z" fill="#231F20"/>
<path d="M109.875 157.144H114.637V152.383H109.875V157.144Z" fill="#231F20"/>
<path d="M109.875 152.381H114.637V147.62H109.875V152.381Z" fill="#231F20"/>
<path d="M109.875 114.286H114.637V109.524L109.875 109.523V114.286Z" fill="#A0593D"/>
<path d="M109.875 123.808H114.637V119.047H109.875V123.808Z" fill="#A0593D"/>
<path d="M109.875 133.332L114.637 133.331V128.57H109.875V133.332Z" fill="#894932"/>
<path d="M109.875 128.57H114.637V123.808H109.875V128.57Z" fill="#A0593D"/>
<path d="M109.875 119.047H114.637V114.286H109.875V119.047Z" fill="#A0593D"/>
<path d="M86.0669 171.43L90.8274 171.43V166.668H86.0664L86.0669 171.43Z" fill="#231F20"/>
<path d="M76.543 171.43H81.3047L81.3052 166.668H76.543V171.43Z" fill="#231F20"/>
<path d="M81.3047 171.43H86.0669L86.0664 166.668H81.3052L81.3047 171.43Z" fill="#A0593D"/>
<path d="M67.0195 52.3794H71.7817V47.6172H67.0195V52.3794Z" fill="#A89984"/>
<path d="M71.7817 52.3794H76.5423V47.6172H71.7817V52.3794Z" fill="#231F20"/>
<path d="M109.875 109.523L114.637 109.524V104.762H109.875V109.523Z" fill="#A0593D"/>
<path d="M109.875 100H114.637V95.2388L109.875 95.2383V100Z" fill="#A0593D"/>
<path d="M109.875 90.4771L114.637 90.4766V85.7142L109.875 85.7148V90.4771Z" fill="#A0593D"/>
<path d="M109.875 104.762H114.637V100H109.875V104.762Z" fill="#A0593D"/>
<path d="M109.875 95.2383L114.637 95.2388V90.4766L109.875 90.4771V95.2383Z" fill="#A0593D"/>
<path d="M109.875 76.1919L114.637 76.1914V71.4297H109.875V76.1919Z" fill="#231F20"/>
<path d="M109.875 80.9536H114.637V76.1914L109.875 76.1919V80.9536Z" fill="#BF7550"/>
<path d="M109.875 85.7148L114.637 85.7142V80.9536H109.875V85.7148Z" fill="#A0593D"/>
<path d="M100.352 133.332H105.114V128.571H100.352V133.332Z" fill="#894932"/>
<path d="M105.098 90.4771H109.86V85.7148H105.098V90.4771Z" fill="#A0593D"/>
<path d="M105.098 95.2388H109.86V90.4771H105.098V95.2388Z" fill="#A0593D"/>
<path d="M105.098 100H109.86V95.2388H105.098V100Z" fill="#A0593D"/>
<path d="M105.098 114.286H109.86V109.523H105.098V114.286Z" fill="#A0593D"/>
<path d="M105.098 104.761H109.86V100H105.098V104.761Z" fill="#A0593D"/>
<path d="M105.098 109.523H109.86V104.761H105.098V109.523Z" fill="#A0593D"/>
<path d="M105.098 85.7148H109.86V80.9531H105.098V85.7148Z" fill="#A0593D"/>
<path d="M105.098 80.9531H109.86V76.1914H105.098V80.9531Z" fill="#231F20"/>
<path d="M105.098 142.857H109.86V138.096H105.098V142.857Z" fill="#231F20"/>
<path d="M105.098 123.808H109.86V119.047H105.098V123.808Z" fill="#A0593D"/>
<path d="M105.098 128.571H109.86V123.808H105.098V128.571Z" fill="#A0593D"/>
<path d="M105.098 138.096H109.86V133.332H105.098V138.096Z" fill="#683624"/>
<path d="M105.098 119.047H109.86V114.286H105.098V119.047Z" fill="#A0593D"/>
<path d="M105.098 133.332H109.86V128.571H105.098V133.332Z" fill="#894932"/>
<path d="M0.351562 85.7139H5.11259L5.11328 80.9536L0.351562 80.9529V85.7139Z" fill="#231F20"/>
<path d="M0.351562 80.9529L5.11328 80.9536V76.1914H0.351562V80.9529Z" fill="#231F20"/>
<path d="M0.351562 90.4771H5.11328L5.11259 85.7139H0.351562V90.4771Z" fill="#231F20"/>
<path d="M0.351562 71.429H5.11328V66.668H0.351562V71.429Z" fill="#231F20"/>
<path d="M0.351562 76.1914H5.11328V71.429H0.351562V76.1914Z" fill="#231F20"/>
<path d="M0.351562 95.2388H5.11328V90.4771H0.351562V95.2388Z" fill="#231F20"/>
<path d="M0.351562 100.001L5.11328 100V95.2388H0.351562V100.001Z" fill="#231F20"/>
<path d="M76.543 161.906H81.3052V157.145L76.5423 157.144L76.543 161.906Z" fill="#231F20"/>
<path d="M81.3052 161.906H86.0669V157.145H81.3052V161.906Z" fill="#A0593D"/>
<path d="M86.0669 161.906H90.8274V157.145H86.0669V161.906Z" fill="#231F20"/>
<path d="M28.9219 161.906H33.6841L33.6836 157.144H28.9219V161.906Z" fill="#231F20"/>
<path d="M38.4454 161.906H43.2076L43.2075 157.144H38.4453L38.4454 161.906Z" fill="#894932"/>
<path d="M43.2076 161.906H47.9692V157.144H43.2075L43.2076 161.906Z" fill="#231F20"/>
<path d="M33.6841 161.906H38.4454L38.4453 157.144H33.6836L33.6841 161.906Z" fill="#894932"/>
<path d="M90.8274 104.761H95.5903V100L90.8274 100V104.761Z" fill="#A0593D"/>
<path d="M90.8274 114.285L95.5903 114.286V109.523H90.8274V114.285Z" fill="#A0593D"/>
<path d="M5.11328 66.668H9.8755V61.9062H5.11328V66.668Z" fill="#231F20"/>
<path d="M90.8274 119.047L95.5903 119.047V114.286L90.8274 114.285V119.047Z" fill="#A0593D"/>
<path d="M90.8274 128.571H95.5903V123.809H90.8274V128.571Z" fill="#A0593D"/>
<path d="M90.8274 123.809H95.5903V119.047L90.8274 119.047V123.809Z" fill="#A0593D"/>
<path d="M90.8274 85.7142H95.5903V80.9531H90.8274V85.7142Z" fill="#A0593D"/>
<path d="M90.8274 100L95.5903 100V95.2383L90.8274 95.2388V100Z" fill="#A0593D"/>
<path d="M90.8274 90.4771H95.5903V85.7142H90.8274V90.4771Z" fill="#A0593D"/>
<path d="M90.8274 80.9531H95.5903V76.1914H90.8274V80.9531Z" fill="#231F20"/>
<path d="M90.8274 95.2388L95.5903 95.2383V90.4771H90.8274V95.2388Z" fill="#A0593D"/>
<path d="M86.0669 157.145H90.8274V152.383H86.0664L86.0669 157.145Z" fill="#231F20"/>
<path d="M81.3052 157.145H86.0669L86.0664 152.383H81.3047L81.3052 157.145Z" fill="#A0593D"/>
<path d="M76.5423 157.144L81.3052 157.145L81.3047 152.383H76.5423V157.144Z" fill="#894932"/>
<path d="M90.8274 138.096L95.5903 138.095V133.332H90.8274V138.096Z" fill="#894932"/>
<path d="M90.8274 142.857L95.5903 142.857V138.095L90.8274 138.096V142.857Z" fill="#683624"/>
<path d="M90.8274 133.332H95.5903V128.571H90.8274V133.332Z" fill="#894932"/>
<path d="M90.8274 109.523H95.5903V104.761H90.8274V109.523Z" fill="#A0593D"/>
<path d="M33.6836 66.668H38.4446V61.9062H33.6836V66.668Z" fill="#A0593D"/>
<path d="M28.9224 66.668H33.6836V61.9062H28.9219L28.9224 66.668Z" fill="#A0593D"/>
<path d="M38.4454 66.6665H43.2076V61.9043H38.4454V66.6665Z" fill="#A0593D"/>
<path d="M52.731 66.668H57.4927V61.9062H52.7305L52.731 66.668Z" fill="#A0593D"/>
<path d="M47.9688 66.668H52.731L52.7305 61.9062H47.9688V66.668Z" fill="#A0593D"/>
<path d="M43.207 66.668H47.9688V61.9062H43.207V66.668Z" fill="#A0593D"/>
<path d="M14.6372 66.668H19.3984L19.3977 61.9062H14.6367L14.6372 66.668Z" fill="#A0593D"/>
<path d="M24.1602 66.668H28.9224L28.9219 61.9062H24.1602V66.668Z" fill="#A0593D"/>
<path d="M9.87482 66.6665H14.637V61.9043H9.87482V66.6665Z" fill="#A0593D"/>
<path d="M19.3984 66.668H24.1602V61.9062H19.3977L19.3984 66.668Z" fill="#A0593D"/>
<path d="M62.2544 66.668H67.0161V61.9062H62.2539L62.2544 66.668Z" fill="#BF7550"/>
<path d="M57.4927 66.668H62.2544L62.2539 61.9062H57.4927V66.668Z" fill="#A0593D"/>
<path d="M76.5423 66.668H81.3047L81.3052 61.9062H76.543L76.5423 66.668Z" fill="#231F20"/>
<path d="M67.0195 66.668H71.7817V61.9062H67.0195V66.668Z" fill="#231F20"/>
<path d="M71.7817 66.668H76.5423L76.543 61.9062H71.7817V66.668Z" fill="#887968"/>
<path d="M90.8274 147.619L95.5903 147.62V142.857L90.8274 142.857V147.619Z" fill="#231F20"/>
<path d="M76.543 166.667H81.3052V161.904H76.543V166.667Z" fill="#231F20"/>
<path d="M86.0664 166.667H90.8274V161.904H86.0664V166.667Z" fill="#231F20"/>
<path d="M81.3052 166.667H86.0664V161.904H81.3052V166.667Z" fill="#A0593D"/>
<path d="M43.2076 166.666L47.9692 166.667V161.904H43.207L43.2076 166.666Z" fill="#683624"/>
<path d="M38.4454 166.666H43.2076L43.207 161.904H38.4453L38.4454 166.666Z" fill="#894932"/>
<path d="M47.9692 166.667H52.731V161.904H47.9692V166.667Z" fill="#231F20"/>
<path d="M33.6836 166.667L38.4454 166.666L38.4453 161.904H33.6836V166.667Z" fill="#231F20"/>
<path d="M95.5903 80.9531H100.352V76.1914H95.5903V80.9531Z" fill="#231F20"/>
<path d="M95.5903 85.7142L100.352 85.7148V80.9531H95.5903V85.7142Z" fill="#A0593D"/>
<path d="M95.5903 95.2383L100.352 95.2388V90.4771H95.5903V95.2383Z" fill="#A0593D"/>
<path d="M95.5903 100L100.352 100V95.2388L95.5903 95.2383V100Z" fill="#A0593D"/>
<path d="M95.5903 90.4771H100.352V85.7148L95.5903 85.7142V90.4771Z" fill="#A0593D"/>
<path d="M95.5903 128.571H100.352V123.808L95.5903 123.809V128.571Z" fill="#A0593D"/>
<path d="M95.5903 138.095L100.352 138.096V133.332H95.5903V138.095Z" fill="#894932"/>
<path d="M95.5903 133.332H100.352V128.571H95.5903V133.332Z" fill="#894932"/>
<path d="M95.5903 142.857H100.352V138.096L95.5903 138.095V142.857Z" fill="#683624"/>
<path d="M95.5903 114.286H100.352V109.523H95.5903V114.286Z" fill="#A0593D"/>
<path d="M95.5903 109.523H100.352V104.761H95.5903V109.523Z" fill="#A0593D"/>
<path d="M95.5903 104.761H100.352V100L95.5903 100V104.761Z" fill="#A0593D"/>
<path d="M95.5903 123.809L100.352 123.808V119.047L95.5903 119.047V123.809Z" fill="#A0593D"/>
<path d="M95.5903 119.047L100.352 119.047V114.286H95.5903V119.047Z" fill="#A0593D"/>
<path d="M38.4454 61.9043H43.2076L43.2076 57.1431L38.4446 57.1431L38.4454 61.9043Z" fill="#A0593D"/>
<path d="M14.637 61.9043L19.3977 61.9048L19.3984 57.1431H14.6367L14.637 61.9043Z" fill="#BF7550"/>
<path d="M19.3977 61.9048H24.1607V57.1431H19.3984L19.3977 61.9048Z" fill="#A0593D"/>
<path d="M9.87482 61.9043H14.637L14.6367 57.1431H9.8755L9.87482 61.9043Z" fill="#BF7550"/>
<path d="M24.1607 61.9048H28.9224L28.9219 57.1431H24.1607V61.9048Z" fill="#A0593D"/>
<path d="M28.9224 61.9048H33.6841L33.6836 57.1431H28.9219L28.9224 61.9048Z" fill="#BF7550"/>
<path d="M33.6841 61.9048L38.4454 61.9043L38.4446 57.1431H33.6836L33.6841 61.9048Z" fill="#BF7550"/>
<path d="M5.11328 61.9048L9.87482 61.9043L9.8755 57.1431H5.11328V61.9048Z" fill="#231F20"/>
<path d="M95.5903 147.62H100.352L100.352 142.857H95.5903V147.62Z" fill="#231F20"/>
<path d="M43.2076 61.9043L47.9692 61.9048L47.9688 57.1431L43.2076 57.1431L43.2076 61.9043Z" fill="#A0593D"/>
<path d="M62.2539 61.9048H67.0161V57.1431H62.2544L62.2539 61.9048Z" fill="#231F20"/>
<path d="M67.0195 61.9048H71.7817V57.1431H67.0195V61.9048Z" fill="#65594D"/>
<path d="M71.7817 61.9048H76.5423V57.1431H71.7817V61.9048Z" fill="#A89984"/>
<path d="M76.5423 61.9048H81.3052V57.1426L76.5423 57.1431V61.9048Z" fill="#231F20"/>
<path d="M47.9727 61.9048H52.7337V57.1426H47.9727V61.9048Z" fill="#A0593D"/>
<path d="M52.7305 61.9048H57.4915L57.4922 57.1431H52.731L52.7305 61.9048Z" fill="#A0593D"/>
<path d="M57.4915 61.9048H62.2539L62.2544 57.1431H57.4922L57.4915 61.9048Z" fill="#BF7550"/>
<path d="M47.9688 4.76222H52.731V0H47.9688V4.76222Z" fill="#231F20"/>
<path d="M5.11328 4.76222H9.8755V0H5.11328V4.76222Z" fill="#231F20"/>
<path d="M162.254 85.7139H167.016V80.9529H162.254V85.7139Z" fill="#A89984"/>
<path d="M162.254 90.4771H167.016V85.7139H162.254V90.4771Z" fill="#887968"/>
<path d="M162.254 95.2388H167.016L167.016 90.4771H162.254L162.254 95.2388Z" fill="#231F20"/>
<path d="M162.254 80.9529H167.016L167.016 76.1914H162.254L162.254 80.9529Z" fill="#231F20"/>
<path d="M138.446 104.762H143.208V100L138.446 100V104.762Z" fill="#A0593D"/>
<path d="M167.016 90.4771H171.777V85.7148H167.016L167.016 90.4771Z" fill="#231F20"/>
<path d="M167.016 85.7148H171.777V80.9531L167.016 80.9529L167.016 85.7148Z" fill="#231F20"/>
<path d="M52.7305 19.0481H57.4915V14.2871H52.7305V19.0481Z" fill="#231F20"/>
<path d="M47.9688 19.0481H52.7305V14.2871H47.9688V19.0481Z" fill="#A0593D"/>
<path d="M43.207 19.0481H47.9688V14.2871H43.207V19.0481Z" fill="#A0593D"/>
<path d="M38.4453 19.0481H43.207V14.2871H38.4453V19.0481Z" fill="#231F20"/>
<path d="M28.9219 19.0481H33.6841V14.2871H28.9219V19.0481Z" fill="#887968"/>
<path d="M19.3984 19.0481H24.1607V14.2871H19.3984V19.0481Z" fill="#A89984"/>
<path d="M24.1607 19.0481H28.9219V14.2871H24.1607V19.0481Z" fill="#887968"/>
<path d="M33.6841 19.0481H38.4453V14.2871H33.6841V19.0481Z" fill="#887968"/>
<path d="M9.875 19.0481H14.6372V14.2871H9.875V19.0481Z" fill="#BF7550"/>
<path d="M5.11328 19.0481H9.875V14.2871H5.11328V19.0481Z" fill="#A0593D"/>
<path d="M14.6372 19.0481H19.3984V14.2871H14.6372V19.0481Z" fill="#231F20"/>
<path d="M0.351562 19.0481H5.11328V14.2871H0.351562V19.0481Z" fill="#231F20"/>
<path d="M147.969 61.9048H152.73V57.1426H147.969V61.9048Z" fill="#231F20"/>
<path d="M147.969 76.1919H152.73V71.4297H147.969V76.1919Z" fill="#65594D"/>
<path d="M147.969 80.9536H152.73V76.1919H147.969V80.9536Z" fill="#231F20"/>
<path d="M147.969 85.7142H152.73V80.9536H147.969V85.7142Z" fill="#231F20"/>
<path d="M147.969 161.906H152.73V157.145H147.969V161.906Z" fill="#231F20"/>
<path d="M147.969 166.667H152.73V161.904H147.969V166.667Z" fill="#A0593D"/>
<path d="M147.969 71.4297H152.73V66.668H147.969V71.4297Z" fill="#887968"/>
<path d="M147.969 171.43H152.73V166.668H147.969V171.43Z" fill="#A0593D"/>
<path d="M147.969 66.668H152.73V61.9062H147.969V66.668Z" fill="#A89984"/>
<path d="M147.969 176.191H152.73V171.43H147.969V176.191Z" fill="#A0593D"/>
<path d="M147.969 200.001H152.73V195.238H147.969V200.001Z" fill="#231F20"/>
<path d="M147.969 185.714H152.73V180.953H147.969V185.714Z" fill="#A0593D"/>
<path d="M147.969 180.953H152.73V176.191H147.969V180.953Z" fill="#A0593D"/>
<path d="M147.969 195.238H152.73V190.477H147.969V195.238Z" fill="#231F20"/>
<path d="M147.969 190.477H152.73V185.713H147.969V190.477Z" fill="#A0593D"/>
<path d="M143.208 128.57L147.969 128.571V123.809H143.208V128.57Z" fill="#231F20"/>
<path d="M9.875 23.8086H14.6372L14.637 19.0469H9.87482L9.875 23.8086Z" fill="#A0593D"/>
<path d="M5.11328 23.8091L9.875 23.8086L9.87482 19.0469H5.11328V23.8091Z" fill="#231F20"/>
<path d="M14.6372 23.8086H19.3984L19.3977 19.0469H14.637L14.6372 23.8086Z" fill="#231F20"/>
<path d="M138.446 95.2383L143.208 95.2388V90.4766L138.446 90.4771V95.2383Z" fill="#A0593D"/>
<path d="M138.446 90.4771L143.208 90.4766V85.7148H138.446V90.4771Z" fill="#231F20"/>
<path d="M138.446 100L143.208 100V95.2388L138.446 95.2383V100Z" fill="#A0593D"/>
<path d="M138.446 71.4297L143.208 71.429V66.668L138.446 66.6685V71.4297Z" fill="#887968"/>
<path d="M138.446 80.9536H143.208V76.1914L138.446 76.1919V80.9536Z" fill="#231F20"/>
<path d="M138.446 66.6685L143.208 66.668V61.9062H138.446V66.6685Z" fill="#A89984"/>
<path d="M138.445 61.9048H143.208V57.1426H138.445V61.9048Z" fill="#231F20"/>
<path d="M138.446 76.1919L143.208 76.1914V71.429L138.446 71.4297V76.1919Z" fill="#231F20"/>
<path d="M47.9688 23.8086H52.7305L52.731 19.0469H47.9688V23.8086Z" fill="#231F20"/>
<path d="M19.3984 23.8086H24.1602L24.1607 19.0469H19.3977L19.3984 23.8086Z" fill="#887968"/>
<path d="M52.7305 23.8086H57.4922L57.4915 19.0469H52.731L52.7305 23.8086Z" fill="#231F20"/>
<path d="M43.2075 23.8086H47.9688V19.0469H43.207L43.2075 23.8086Z" fill="#A0593D"/>
<path d="M38.4453 23.8086H43.2075L43.207 19.0469H38.4454L38.4453 23.8086Z" fill="#231F20"/>
<path d="M24.1602 23.8086H28.9219L28.9224 19.0469H24.1607L24.1602 23.8086Z" fill="#887968"/>
<path d="M28.9219 23.8086H33.6836L33.6841 19.0469H28.9224L28.9219 23.8086Z" fill="#887968"/>
<path d="M33.6836 23.8086H38.4453L38.4454 19.0469H33.6841L33.6836 23.8086Z" fill="#65594D"/>
<path d="M143.208 152.381H147.969V147.619H143.208V152.381Z" fill="#231F20"/>
<path d="M143.208 157.144L147.969 157.145L147.969 152.383H143.208V157.144Z" fill="#231F20"/>
<path d="M143.208 147.619H147.969V142.857L143.208 142.857V147.619Z" fill="#231F20"/>
<path d="M143.208 166.667H147.969V161.904H143.208V166.667Z" fill="#A0593D"/>
<path d="M143.208 161.906H147.969V157.145L143.208 157.144V161.906Z" fill="#A0593D"/>
<path d="M143.208 142.857L147.969 142.857V138.096L143.208 138.095V142.857Z" fill="#231F20"/>
<path d="M143.208 171.43H147.969V166.668H143.208V171.43Z" fill="#683624"/>
<path d="M143.208 133.332L147.969 133.331V128.571L143.208 128.57V133.332Z" fill="#231F20"/>
<path d="M143.208 138.095L147.969 138.096V133.331L143.208 133.332V138.095Z" fill="#231F20"/>
<path d="M143.208 123.809H147.969V119.047L143.208 119.047V123.809Z" fill="#231F20"/>
<path d="M143.207 200.001H147.969V195.238H143.207V200.001Z" fill="#231F20"/>
<path d="M143.207 185.714H147.969V180.953H143.207V185.714Z" fill="#231F20"/>
<path d="M143.207 176.191H147.969V171.43H143.208L143.207 176.191Z" fill="#231F20"/>
<path d="M143.207 180.953H147.969V176.191H143.207V180.953Z" fill="#231F20"/>
<path d="M143.207 195.238H147.969V190.477H143.207V195.238Z" fill="#231F20"/>
<path d="M143.207 190.477H147.969V185.713H143.207V190.477Z" fill="#231F20"/>
<path d="M143.208 71.429L147.969 71.4297V66.668H143.208V71.429Z" fill="#887968"/>
<path d="M143.208 61.9048H147.969V57.1426H143.208V61.9048Z" fill="#231F20"/>
<path d="M143.208 66.668H147.969V61.9062H143.208V66.668Z" fill="#A89984"/>
<path d="M143.208 119.047L147.969 119.047V114.285L143.208 114.286V119.047Z" fill="#231F20"/>
<path d="M143.208 109.523L147.969 109.524V104.762H143.208V109.523Z" fill="#231F20"/>
<path d="M143.208 104.762H147.969V100H143.208V104.762Z" fill="#231F20"/>
<path d="M143.208 114.286L147.969 114.285V109.524L143.208 109.523V114.286Z" fill="#231F20"/>
<path d="M143.208 100H147.969V95.2383L143.208 95.2388V100Z" fill="#231F20"/>
<path d="M143.208 95.2388L147.969 95.2383V90.4766H143.208V95.2388Z" fill="#231F20"/>
<path d="M143.208 76.1914L147.969 76.1919V71.4297L143.208 71.429V76.1914Z" fill="#231F20"/>
<path d="M33.6836 9.52393H38.4446V4.76172H33.6836V9.52393Z" fill="#231F20"/>
<path d="M28.9219 9.52393H33.6836V4.76172H28.9219V9.52393Z" fill="#231F20"/>
<path d="M47.9688 9.52393H52.731V4.76222H47.9688V9.52393Z" fill="#BF7550"/>
<path d="M24.1602 9.52393H28.9219V4.76172H24.1602V9.52393Z" fill="#231F20"/>
<path d="M43.207 9.52393H47.9688V4.76222L43.207 4.76172V9.52393Z" fill="#231F20"/>
<path d="M0.351562 9.52393H5.11259L5.11328 4.76222L0.351562 4.76172V9.52393Z" fill="#231F20"/>
<path d="M9.875 9.52393H14.6372V4.76172L9.8755 4.76222L9.875 9.52393Z" fill="#231F20"/>
<path d="M5.11259 9.52393H9.875L9.8755 4.76222H5.11328L5.11259 9.52393Z" fill="#BF7550"/>
<path d="M52.731 9.52393H57.4915V4.76172L52.731 4.76222V9.52393Z" fill="#231F20"/>
<path d="M157.492 95.2388H162.254L162.254 90.4771L157.492 90.4766V95.2388Z" fill="#231F20"/>
<path d="M157.492 90.4766L162.254 90.4771L162.253 85.7148H157.492V90.4766Z" fill="#65594D"/>
<path d="M157.492 85.7148H162.253L162.254 80.9529L157.492 80.9531V85.7148Z" fill="#887968"/>
<path d="M157.492 76.1919L162.254 76.1914L162.253 71.4297H157.492V76.1919Z" fill="#231F20"/>
<path d="M157.492 71.4297H162.253V66.668H157.492V71.4297Z" fill="#231F20"/>
<path d="M157.492 80.9531L162.254 80.9529L162.254 76.1914L157.492 76.1919V80.9531Z" fill="#A89984"/>
<path d="M52.7305 14.2857H57.4915V9.52393H52.731L52.7305 14.2857Z" fill="#231F20"/>
<path d="M38.4453 14.2871H43.207L43.2076 9.52539H38.4454L38.4453 14.2871Z" fill="#231F20"/>
<path d="M47.9688 14.2857H52.7305L52.731 9.52393H47.9688V14.2857Z" fill="#A0593D"/>
<path d="M43.207 14.2857H47.9688V9.52393H43.207V14.2857Z" fill="#BF7550"/>
<path d="M28.9219 14.2857H33.6841L33.6836 9.52393H28.9219V14.2857Z" fill="#A89984"/>
<path d="M33.6841 14.2857H38.4446V9.52393H33.6836L33.6841 14.2857Z" fill="#A89984"/>
<path d="M24.1602 14.2857H28.9219V9.52393H24.1602V14.2857Z" fill="#A89984"/>
<path d="M9.875 14.2871H14.6372L14.637 9.52539H9.87482L9.875 14.2871Z" fill="#231F20"/>
<path d="M19.3984 14.2857H24.1602V9.52393L19.3984 9.52344V14.2857Z" fill="#231F20"/>
<path d="M5.11328 14.2857H9.8755L9.875 9.52393H5.11259L5.11328 14.2857Z" fill="#A0593D"/>
<path d="M0.351562 14.2871H5.11328L5.11259 9.52539H0.351562V14.2871Z" fill="#231F20"/>
<path d="M152.73 85.7142L157.493 85.7139L157.492 80.9531L152.731 80.9529L152.73 85.7142Z" fill="#65594D"/>
<path d="M152.731 90.4771L157.492 90.4766L157.493 85.7139L152.731 85.7148V90.4771Z" fill="#231F20"/>
<path d="M152.731 80.9529L157.492 80.9531V76.1919H152.73L152.731 80.9529Z" fill="#887968"/>
<path d="M152.731 66.6665H157.493V61.9043L152.73 61.9048L152.731 66.6665Z" fill="#231F20"/>
<path d="M152.73 76.1919H157.492V71.4297H152.73V76.1919Z" fill="#887968"/>
<path d="M152.73 71.4297H157.492V66.668H152.73V71.4297Z" fill="#A89984"/>
<path d="M152.73 166.667H157.493V161.904H152.73V166.667Z" fill="#231F20"/>
<path d="M152.73 190.477L157.493 190.476V185.713H152.73V190.477Z" fill="#231F20"/>
<path d="M152.73 195.238L157.493 195.238L157.493 190.476L152.73 190.477V195.238Z" fill="#231F20"/>
<path d="M152.73 200.001H157.493L157.493 195.238L152.73 195.238V200.001Z" fill="#231F20"/>
<path d="M152.73 185.714H157.493V180.953H152.73V185.714Z" fill="#231F20"/>
<path d="M152.731 171.428H157.493L157.493 166.667H152.73L152.731 171.428Z" fill="#231F20"/>
<path d="M152.731 180.952L157.493 180.953V176.191L152.73 176.191L152.731 180.952Z" fill="#231F20"/>
<path d="M152.73 176.191L157.493 176.191L157.493 171.43L152.73 171.43V176.191Z" fill="#231F20"/>
</svg>
