<svg width="213" height="200" viewBox="0 0 213 200" fill="none" xmlns="http://www.w3.org/2000/svg">
<path d="M97.5898 193.94H103.651V187.879H97.5898V193.94Z" fill="#231F20"/>
<path d="M109.711 193.94H115.77V187.879H109.711V193.94Z" fill="#231F20"/>
<path d="M146.074 193.94H152.135V187.879H146.074V193.94Z" fill="#231F20"/>
<path d="M140.016 193.94H146.077V187.879H140.016V193.94Z" fill="#231F20"/>
<path d="M103.652 193.94H109.713V187.879H103.652V193.94Z" fill="#231F20"/>
<path d="M152.137 193.94H158.198V187.879H152.137V193.94Z" fill="#231F20"/>
<path d="M55.1641 193.94H61.2251V187.879H55.1641V193.94Z" fill="#231F20"/>
<path d="M91.5273 193.94H97.5884V187.879H91.5273V193.94Z" fill="#231F20"/>
<path d="M49.1055 193.94H55.1665V187.879H49.1055V193.94Z" fill="#231F20"/>
<path d="M61.2266 187.879V193.94H67.2861V187.879H61.2266Z" fill="#231F20"/>
<path d="M67.2861 193.94H73.3462V187.879H67.2861V193.94Z" fill="#231F20"/>
<path d="M85.4688 193.94H91.5273V187.879H85.4688V193.94Z" fill="#231F20"/>
<path d="M73.3477 193.94H79.4087V187.879H73.3477V193.94Z" fill="#231F20"/>
<path d="M18.8047 12.1201H24.8642V6.06055H18.8047V12.1201Z" fill="#F78E93"/>
<path d="M73.3477 12.1201H79.4087V6.06055H73.3477V12.1201Z" fill="#F78E93"/>
<path d="M67.2852 12.1201H73.3462V6.06055H67.2852V12.1201Z" fill="#231F20"/>
<path d="M36.9844 12.1201H43.0454V6.06055H36.9844V12.1201Z" fill="#231F20"/>
<path d="M158.195 193.94H164.256V187.879H158.195V193.94Z" fill="#231F20"/>
<path d="M24.8642 12.1201H30.9243V6.06055H24.8642V12.1201Z" fill="#F78E93"/>
<path d="M30.9219 12.1201H36.9829V6.06055H30.9219V12.1201Z" fill="#F78E93"/>
<path d="M91.5273 12.1201H97.5884V6.06055H91.5273V12.1201Z" fill="#231F20"/>
<path d="M79.4062 12.1201H85.4673V6.06055H79.4062V12.1201Z" fill="#F78E93"/>
<path d="M85.4688 12.1201H91.5273V6.06055H85.4688V12.1201Z" fill="#F78E93"/>
<path d="M12.7422 12.1201H18.8032V6.06055H12.7422V12.1201Z" fill="#231F20"/>
<path d="M18.8048 6.05951H24.8643V0H18.8048V6.05951Z" fill="#231F20"/>
<path d="M24.8643 6.05951H30.9244V0H24.8643V6.05951Z" fill="#231F20"/>
<path d="M30.922 6.05951H36.983V0H30.922V6.05951Z" fill="#231F20"/>
<path d="M36.9845 6.05951H43.0455V0H36.9845V6.05951Z" fill="#231F20"/>
<path d="M73.348 6.05951H79.409V0H73.348V6.05951Z" fill="#231F20"/>
<path d="M79.4064 6.05951H85.4674V0H79.4064V6.05951Z" fill="#231F20"/>
<path d="M85.4689 6.05951H91.5284V0H85.4689V6.05951Z" fill="#231F20"/>
<path d="M67.2853 6.05951H73.3463V0H67.2853V6.05951Z" fill="#231F20"/>
<path d="M164.258 193.94H170.319V187.879H164.258V193.94Z" fill="#231F20"/>
<path d="M164.258 109.09H170.319V103.029H164.258V109.09Z" fill="#F78E93"/>
<path d="M164.258 103.029H170.319L170.319 96.9688H164.258L164.258 103.029Z" fill="#F78E93"/>
<path d="M164.258 121.212H170.319V115.152H164.258V121.212Z" fill="#F78E93"/>
<path d="M164.258 127.272H170.319V121.212H164.258V127.272Z" fill="#F78E93"/>
<path d="M164.258 115.151H170.319V109.09H164.258V115.151Z" fill="#F78E93"/>
<path d="M164.258 84.8481H170.319V78.7871H164.258V84.8481Z" fill="#F9B2B3"/>
<path d="M164.258 78.7871H170.319L170.319 72.7266H164.258L164.258 78.7871Z" fill="#231F20"/>
<path d="M164.258 96.9688H170.319L170.319 90.9102H164.258L164.258 96.9688Z" fill="#F78E93"/>
<path d="M164.258 90.9087H170.319L170.319 84.8481H164.258L164.258 90.9087Z" fill="#F78E93"/>
<path d="M164.258 133.334H170.319V127.273H164.258V133.334Z" fill="#F78E93"/>
<path d="M164.258 175.756H170.319V169.695H164.258V175.756Z" fill="#E0777A"/>
<path d="M164.258 181.819H170.319V175.758H164.258V181.819Z" fill="#BE4246"/>
<path d="M164.258 187.878H170.319L170.319 181.819H164.258L164.258 187.878Z" fill="#231F20"/>
<path d="M164.258 169.695H170.319L170.319 163.637H164.258L164.258 169.695Z" fill="#F78E93"/>
<path d="M164.258 163.636H170.319V157.576H164.258V163.636Z" fill="#F78E93"/>
<path d="M164.258 151.514H170.319V145.453H164.258V151.514Z" fill="#F78E93"/>
<path d="M164.258 145.453H170.319L170.319 139.393H164.258L164.258 145.453Z" fill="#F78E93"/>
<path d="M164.258 139.393H170.319L170.319 133.334H164.258L164.258 139.393Z" fill="#F78E93"/>
<path d="M164.258 157.576H170.319V151.516H164.258V157.576Z" fill="#F78E93"/>
<path d="M97.5898 181.819H103.651V175.758H97.5898V181.819Z" fill="#F78E93"/>
<path d="M91.5273 18.1821H97.5884V12.1211H91.5273V18.1821Z" fill="#231F20"/>
<path d="M152.137 78.7876H158.198V72.7266H152.137V78.7876Z" fill="#F9B2B3"/>
<path d="M152.137 72.7255H158.198V66.666H152.137V72.7255Z" fill="#231F20"/>
<path d="M36.9844 18.1821H43.0454V12.1211H36.9844V18.1821Z" fill="#231F20"/>
<path d="M85.4688 18.1821H91.5273V12.1211H85.4688V18.1821Z" fill="#231F20"/>
<path d="M12.7422 18.1821H18.8032V12.1211H12.7422V18.1821Z" fill="#231F20"/>
<path d="M18.8047 18.1821H24.8642V12.1211H18.8047V18.1821Z" fill="#231F20"/>
<path d="M24.8642 18.1821H30.9243V12.1211H24.8642V18.1821Z" fill="#231F20"/>
<path d="M67.2852 18.1821H73.3462V12.1211H67.2852V18.1821Z" fill="#231F20"/>
<path d="M73.3477 18.1821H79.4087V12.1211H73.3477V18.1821Z" fill="#BE4246"/>
<path d="M79.4062 18.1821H85.4673V12.1211H79.4062V18.1821Z" fill="#231F20"/>
<path d="M152.137 84.8481H158.198L158.198 78.7876H152.137L152.137 84.8481Z" fill="#F78E93"/>
<path d="M30.9219 18.1821H36.9829V12.1211H30.9219V18.1821Z" fill="#BE4246"/>
<path d="M67.2852 181.819H73.3462V175.758H67.2852V181.819Z" fill="#231F20"/>
<path d="M73.3477 181.819H79.4087V175.758H73.3477V181.819Z" fill="#231F20"/>
<path d="M79.4062 181.819H85.4673V175.758H79.4062V181.819Z" fill="#231F20"/>
<path d="M115.773 181.819H121.834V175.758H115.773V181.819Z" fill="#231F20"/>
<path d="M49.1055 181.819H55.1665V175.758H49.1055V181.819Z" fill="#231F20"/>
<path d="M55.1641 181.819H61.2251V175.758H55.1641V181.819Z" fill="#BE4246"/>
<path d="M103.652 181.819H109.713V175.758H103.652V181.819Z" fill="#F78E93"/>
<path d="M109.711 181.819H115.77V175.758H109.711V181.819Z" fill="#231F20"/>
<path d="M85.4688 181.819H91.5283V175.758H85.4688V181.819Z" fill="#231F20"/>
<path d="M91.5283 181.819H97.5884V175.758H91.5283V181.819Z" fill="#F78E93"/>
<path d="M61.2266 181.819H67.2876V175.758H61.2266V181.819Z" fill="#943335"/>
<path d="M152.137 175.756H158.198V169.695H152.137V175.756Z" fill="#231F20"/>
<path d="M152.137 127.272H158.198V121.211H152.137V127.272Z" fill="#F78E93"/>
<path d="M152.137 133.334H158.198V127.273H152.137V133.334Z" fill="#F78E93"/>
<path d="M152.137 145.454H158.198V139.393H152.137V145.454Z" fill="#F78E93"/>
<path d="M152.137 151.514H158.198L158.198 145.454H152.137L152.137 151.514Z" fill="#F78E93"/>
<path d="M121.848 181.819H127.908V175.758H121.848V181.819Z" fill="#231F20"/>
<path d="M152.137 139.393H158.198L158.198 133.334H152.137L152.137 139.393Z" fill="#F78E93"/>
<path d="M152.137 96.9697H158.198V90.9102H152.137V96.9697Z" fill="#F78E93"/>
<path d="M152.137 103.03H158.198L158.198 96.9697H152.137L152.137 103.03Z" fill="#F78E93"/>
<path d="M152.137 115.151H158.198V109.09H152.137V115.151Z" fill="#F78E93"/>
<path d="M152.137 109.09H158.198L158.198 103.03H152.137L152.137 109.09Z" fill="#F78E93"/>
<path d="M152.137 121.211H158.198V115.152H152.137V121.211Z" fill="#F78E93"/>
<path d="M140.016 181.819H146.077V175.758H140.016V181.819Z" fill="#231F20"/>
<path d="M133.953 181.819H140.013V175.758H133.953V181.819Z" fill="#231F20"/>
<path d="M127.84 181.819H133.899V175.758H127.84V181.819Z" fill="#231F20"/>
<path d="M146.074 181.819H152.135V175.758H146.074V181.819Z" fill="#231F20"/>
<path d="M152.137 157.577H158.198V151.516H152.137V157.577Z" fill="#F78E93"/>
<path d="M152.137 169.695H158.198L158.198 163.637H152.137L152.137 169.695Z" fill="#E0777A"/>
<path d="M152.137 163.636H158.198V157.577H152.137V163.636Z" fill="#F78E93"/>
<path d="M152.137 90.9087H158.198L158.198 84.8481H152.137L152.137 90.9087Z" fill="#F78E93"/>
<path d="M152.137 181.819H158.198V175.758H152.137V181.819Z" fill="#231F20"/>
<path d="M158.195 163.636H164.256V157.576H158.195V163.636Z" fill="#F78E93"/>
<path d="M158.195 157.576H164.256V151.516H158.195V157.576Z" fill="#F78E93"/>
<path d="M158.195 175.756H164.256V169.695H158.195V175.756Z" fill="#BE4246"/>
<path d="M158.195 169.695H164.256L164.256 163.637H158.195L158.195 169.695Z" fill="#E0777A"/>
<path d="M158.195 181.819H164.256V175.758H158.195V181.819Z" fill="#231F20"/>
<path d="M158.195 151.514H164.256V145.453H158.195V151.514Z" fill="#F78E93"/>
<path d="M158.195 133.334H164.256V127.273H158.195V133.334Z" fill="#F78E93"/>
<path d="M158.195 127.272H164.256V121.211H158.195V127.272Z" fill="#F78E93"/>
<path d="M103.652 187.878H109.713L109.713 181.819H103.652L103.652 187.878Z" fill="#F78E93"/>
<path d="M158.195 187.878H164.256L164.256 181.819H158.195L158.195 187.878Z" fill="#943335"/>
<path d="M109.711 187.878H115.771L115.77 181.819H109.711L109.711 187.878Z" fill="#231F20"/>
<path d="M140.016 187.878H146.077L146.077 181.819H140.016L140.016 187.878Z" fill="#BE4246"/>
<path d="M146.074 187.878H152.135L152.135 181.819H146.074L146.074 187.878Z" fill="#BE4246"/>
<path d="M152.137 187.878H158.198L158.198 181.819H152.137L152.137 187.878Z" fill="#BE4246"/>
<path d="M158.195 121.211H164.256V115.152H158.195V121.211Z" fill="#F78E93"/>
<path d="M133.953 187.878H140.013L140.013 181.819H133.953L133.953 187.878Z" fill="#231F20"/>
<path d="M158.195 145.453H164.256L164.256 139.393H158.195L158.195 145.453Z" fill="#F78E93"/>
<path d="M158.195 78.7876H164.256V72.7266H158.195V78.7876Z" fill="#231F20"/>
<path d="M158.195 90.9087H164.256V84.8477H158.195V90.9087Z" fill="#F78E93"/>
<path d="M158.195 103.03H164.256V96.9688H158.195V103.03Z" fill="#F78E93"/>
<path d="M158.195 109.09H164.256L164.256 103.03H158.195L158.195 109.09Z" fill="#F78E93"/>
<path d="M158.195 96.9688H164.256L164.256 90.9102H158.195L158.195 96.9688Z" fill="#F78E93"/>
<path d="M158.195 115.151H164.256V109.09H158.195V115.151Z" fill="#F78E93"/>
<path d="M158.195 84.8477H164.256V78.7876H158.195V84.8477Z" fill="#F78E93"/>
<path d="M158.195 139.393H164.256L164.256 133.334H158.195L158.195 139.393Z" fill="#F78E93"/>
<path d="M67.2853 187.878H73.3463L73.3462 181.819H67.2852L67.2853 187.878Z" fill="#943335"/>
<path d="M97.5898 187.879H103.651V181.819H97.5898V187.879Z" fill="#F78E93"/>
<path d="M61.2267 187.878H67.2877L67.2876 181.819H61.2266L61.2267 187.878Z" fill="#BE4246"/>
<path d="M49.1056 187.878H55.1666L55.1665 181.819H49.1055L49.1056 187.878Z" fill="#231F20"/>
<path d="M55.1642 187.878H61.2252L61.2251 181.819H55.1641L55.1642 187.878Z" fill="#BE4246"/>
<path d="M85.4689 187.878H91.5284L91.5283 181.819H85.4688L85.4689 187.878Z" fill="#231F20"/>
<path d="M91.5284 187.878H97.5885L97.5884 181.819H91.5283L91.5284 187.878Z" fill="#F78E93"/>
<path d="M73.3477 187.879H79.4087V181.819H73.3477V187.879Z" fill="#231F20"/>
<path d="M176.379 169.696H182.439V163.637H176.379V169.696Z" fill="#F78E93"/>
<path d="M176.379 163.636H182.438V157.576H176.379V163.636Z" fill="#F78E93"/>
<path d="M176.379 181.819H182.438V175.758H176.379V181.819Z" fill="#F78E93"/>
<path d="M176.379 127.272H182.438V121.211H176.379V127.272Z" fill="#F78E93"/>
<path d="M176.379 157.576H182.438V151.516H176.379V157.576Z" fill="#F78E93"/>
<path d="M176.379 145.454H182.439V139.393H176.379V145.454Z" fill="#F78E93"/>
<path d="M176.379 133.333H182.438V127.272H176.379V133.333Z" fill="#F78E93"/>
<path d="M176.379 139.393H182.439L182.438 133.334H176.379L176.379 139.393Z" fill="#F78E93"/>
<path d="M176.379 187.878H182.439L182.438 181.819H176.379L176.379 187.878Z" fill="#E0777A"/>
<path d="M176.379 151.514H182.438L182.439 145.454H176.379L176.379 151.514Z" fill="#F78E93"/>
<path d="M176.379 175.758H182.438L182.439 169.696H176.379L176.379 175.758Z" fill="#F78E93"/>
<path d="M176.379 200H182.438V193.939H176.379V200Z" fill="#231F20"/>
<path d="M176.379 193.939H182.438L182.439 187.878H176.379L176.379 193.939Z" fill="#231F20"/>
<path d="M176.379 121.211H182.438V115.152H176.379V121.211Z" fill="#F78E93"/>
<path d="M176.379 109.09H182.438V103.029H176.379V109.09Z" fill="#F78E93"/>
<path d="M176.379 103.029H182.438L182.439 96.9687H176.379L176.379 103.029Z" fill="#F78E93"/>
<path d="M176.379 115.151H182.438V109.09H176.379V115.151Z" fill="#F78E93"/>
<path d="M176.379 96.9677H182.438V90.9082H176.379V96.9677Z" fill="#F78E93"/>
<path d="M176.379 84.8483H182.439V78.7872H176.379V84.8483Z" fill="#231F20"/>
<path d="M176.379 90.9082H182.438L182.439 84.8483H176.379L176.379 90.9082Z" fill="#F9B2B3"/>
<path d="M182.438 133.334H188.499V127.273H182.438V133.334Z" fill="#F78E93"/>
<path d="M182.438 139.393H188.499V133.334H182.438V139.393Z" fill="#F78E93"/>
<path d="M182.438 127.272H188.499V121.211H182.438V127.272Z" fill="#F78E93"/>
<path d="M182.438 151.514H188.499V145.453H182.438L182.438 151.514Z" fill="#F78E93"/>
<path d="M182.438 157.577H188.499V151.516H182.438L182.438 157.577Z" fill="#F78E93"/>
<path d="M182.438 145.453H188.499V139.393H182.438V145.453Z" fill="#F78E93"/>
<path d="M182.438 103.029L188.499 103.03V96.9688H182.438L182.438 103.029Z" fill="#F78E93"/>
<path d="M182.438 121.212L188.499 121.211V115.152H182.438L182.438 121.212Z" fill="#F78E93"/>
<path d="M182.438 109.09H188.499L188.499 103.03L182.438 103.029V109.09Z" fill="#F78E93"/>
<path d="M182.438 115.151H188.499V109.09L182.438 109.09L182.438 115.151Z" fill="#F78E93"/>
<path d="M182.438 187.878H188.499V181.818L182.438 181.819L182.438 187.878Z" fill="#F78E93"/>
<path d="M182.438 193.94H188.499V187.879H182.438V193.94Z" fill="#231F20"/>
<path d="M182.438 200H188.499V193.94H182.438L182.438 200Z" fill="#6A6666"/>
<path d="M182.438 169.696H188.499V163.637H182.438V169.696Z" fill="#F78E93"/>
<path d="M182.438 175.756H188.499L188.499 169.696H182.438L182.438 175.756Z" fill="#F78E93"/>
<path d="M182.438 163.636H188.499V157.577H182.438L182.438 163.636Z" fill="#F78E93"/>
<path d="M182.438 181.819L188.499 181.818L188.499 175.758H182.438V181.819Z" fill="#F78E93"/>
<path d="M170.316 109.09H176.377V103.029H170.316V109.09Z" fill="#F78E93"/>
<path d="M170.316 115.151H176.377V109.09H170.316V115.151Z" fill="#F78E93"/>
<path d="M170.316 103.029H176.377L176.378 96.9688H170.317L170.316 103.029Z" fill="#F78E93"/>
<path d="M170.316 121.212H176.377V115.152H170.316V121.212Z" fill="#F78E93"/>
<path d="M170.316 127.272H176.377V121.212H170.316V127.272Z" fill="#F78E93"/>
<path d="M170.317 84.8481H176.378V78.7871H170.317V84.8481Z" fill="#231F20"/>
<path d="M170.316 133.334H176.377V127.273H170.316V133.334Z" fill="#F78E93"/>
<path d="M170.316 90.9087H176.377L176.378 84.8481H170.317L170.316 90.9087Z" fill="#F78E93"/>
<path d="M170.317 96.9688H176.378L176.377 90.9102H170.316L170.317 96.9688Z" fill="#F78E93"/>
<path d="M170.316 175.756H176.377V169.695H170.316V175.756Z" fill="#F78E93"/>
<path d="M170.316 181.819H176.377V175.758H170.316V181.819Z" fill="#E0777A"/>
<path d="M170.316 139.393H176.377V133.334H170.316V139.393Z" fill="#F78E93"/>
<path d="M170.317 187.878H176.378L176.377 181.819H170.316L170.317 187.878Z" fill="#BE4246"/>
<path d="M170.316 193.94H176.377V187.879H170.316V193.94Z" fill="#231F20"/>
<path d="M170.316 163.636H176.377V157.576H170.316V163.636Z" fill="#F78E93"/>
<path d="M170.317 145.454H176.378L176.377 139.393H170.316L170.317 145.454Z" fill="#F78E93"/>
<path d="M170.316 151.514H176.377L176.378 145.454H170.317L170.316 151.514Z" fill="#F78E93"/>
<path d="M170.316 157.576H176.377V151.516H170.316V157.576Z" fill="#F78E93"/>
<path d="M170.316 169.695H176.377L176.378 163.637H170.317L170.316 169.695Z" fill="#F78E93"/>
<path d="M103.652 200H109.713V193.94H103.652V200Z" fill="#231F20"/>
<path d="M109.711 200H115.77V193.94H109.711V200Z" fill="#231F20"/>
<path d="M164.258 200H170.319V193.94H164.258V200Z" fill="#231F20"/>
<path d="M158.195 200H164.256V193.94H158.195V200Z" fill="#231F20"/>
<path d="M152.137 200H158.198V193.94H152.137V200Z" fill="#6A6666"/>
<path d="M146.074 200H152.135V193.94H146.074V200Z" fill="#231F20"/>
<path d="M67.2852 200H73.3462V193.94L67.2852 193.939V200Z" fill="#231F20"/>
<path d="M55.1641 200H61.2251V193.94H55.1641V200Z" fill="#231F20"/>
<path d="M61.2266 193.94V200H67.2852L67.2861 193.94H61.2266Z" fill="#6A6666"/>
<path d="M49.1055 200H55.1665V193.94H49.1055V200Z" fill="#231F20"/>
<path d="M91.5273 200H97.5884V193.94H91.5273V200Z" fill="#6A6666"/>
<path d="M73.3477 200H79.4087V193.94H73.3477V200Z" fill="#231F20"/>
<path d="M85.4688 200H91.5273L91.5283 193.939L85.4688 193.94V200Z" fill="#231F20"/>
<path d="M97.5898 200H103.651V193.94H97.5898V200Z" fill="#231F20"/>
<path d="M73.3477 127.272H79.4087V121.211H73.3477V127.272Z" fill="#F78E93"/>
<path d="M115.773 72.7255H121.834V66.666H115.773V72.7255Z" fill="#F78E93"/>
<path d="M103.652 54.5454H109.713V48.4844H103.652V54.5454Z" fill="#F9B2B3"/>
<path d="M115.773 60.6064H121.834V54.5469H115.773V60.6064Z" fill="#231F20"/>
<path d="M115.773 66.666H121.834V60.6064H115.773V66.666Z" fill="#F9B2B3"/>
<path d="M109.711 54.5454H115.77V48.4844H109.711V54.5454Z" fill="#231F20"/>
<path d="M79.4062 54.5454H85.4673V48.4844H79.4062V54.5454Z" fill="#F78E93"/>
<path d="M97.5898 54.5454H103.651V48.4844H97.5898V54.5454Z" fill="#F78E93"/>
<path d="M85.4688 54.5454H91.5298V48.4844H85.4688V54.5454Z" fill="#F78E93"/>
<path d="M109.711 60.6064H115.77V54.5469H109.711V60.6064Z" fill="#F9B2B3"/>
<path d="M115.773 90.9087H121.834V84.8477H115.773V90.9087Z" fill="#F78E93"/>
<path d="M115.773 121.212H121.834V115.152H115.773V121.212Z" fill="#F78E93"/>
<path d="M115.773 115.151H121.834V109.09H115.773V115.151Z" fill="#F78E93"/>
<path d="M115.773 78.7876H121.834V72.7266H115.773V78.7876Z" fill="#F78E93"/>
<path d="M115.773 127.272H121.834V121.212H115.773V127.272Z" fill="#F78E93"/>
<path d="M115.773 109.09H121.834V103.029H115.773V109.09Z" fill="#F78E93"/>
<path d="M115.773 133.334H121.834V127.273H115.773V133.334Z" fill="#F78E93"/>
<path d="M73.3477 54.5454H79.4087V48.4844H73.3477V54.5454Z" fill="#F78E93"/>
<path d="M115.773 103.029H121.834L121.835 96.9688H115.774L115.773 103.029Z" fill="#F78E93"/>
<path d="M115.773 84.8477H121.834V78.7876H115.773V84.8477Z" fill="#F78E93"/>
<path d="M115.774 96.9688H121.835L121.834 90.9102H115.773L115.774 96.9688Z" fill="#F78E93"/>
<path d="M24.8633 72.7255H30.9243V66.666H24.8633V72.7255Z" fill="#231F20"/>
<path d="M24.8633 90.9087H30.9243V84.8477H24.8633V90.9087Z" fill="#E48E93"/>
<path d="M24.8633 96.9697H30.9243V90.9102H24.8633V96.9697Z" fill="#231F20"/>
<path d="M24.8634 103.03H30.9244L30.9243 96.9697H24.8633L24.8634 103.03Z" fill="#F78E93"/>
<path d="M24.8633 84.8477H30.9243L30.9244 78.7871H24.8634L24.8633 84.8477Z" fill="#F9B2BD"/>
<path d="M24.8634 78.7871H30.9244L30.9243 72.7266H24.8633L24.8634 78.7871Z" fill="#FBCCD2"/>
<path d="M24.8633 109.09H30.9243L30.9244 103.03H24.8634L24.8633 109.09Z" fill="#F78E93"/>
<path d="M24.8633 121.212H30.9243V115.152H24.8633V121.212Z" fill="#BE4246"/>
<path d="M24.8633 127.272H30.9243V121.212H24.8633V127.272Z" fill="#231F20"/>
<path d="M24.8633 115.151H30.9243V109.09H24.8633V115.151Z" fill="#E0777A"/>
<path d="M115.773 139.393H121.834V133.334H115.773V139.393Z" fill="#F78E93"/>
<path d="M55.1641 54.5454H61.2251V48.4844H55.1641V54.5454Z" fill="#F9B2B3"/>
<path d="M67.2852 54.5454H73.3462V48.4844H67.2852V54.5454Z" fill="#F78E93"/>
<path d="M49.1055 54.5454H55.1665V48.4844H49.1055V54.5454Z" fill="#F9B2B3"/>
<path d="M24.8633 66.666H30.9243L30.9244 60.6055H24.8634L24.8633 66.666Z" fill="#F78E93"/>
<path d="M61.2266 54.5454H67.2876V48.4844H61.2266V54.5454Z" fill="#231F20"/>
<path d="M43.0469 54.5454H49.1055V48.4844H43.0469V54.5454Z" fill="#231F20"/>
<path d="M24.8633 54.5454H30.9243V48.4844H24.8633V54.5454Z" fill="#F78E93"/>
<path d="M24.8634 60.6055H30.9244L30.9243 54.5469H24.8633L24.8634 60.6055Z" fill="#F78E93"/>
<path d="M36.9844 54.5454H43.0454V48.4844H36.9844V54.5454Z" fill="#F9B2B3"/>
<path d="M30.9219 54.5454H36.9829V48.4844H30.9219V54.5454Z" fill="#F78E93"/>
<path d="M30.9219 139.395H36.9829V133.334H30.9219V139.395Z" fill="#231F20"/>
<path d="M30.922 66.6665H36.983V60.6055H30.922V66.6665Z" fill="#231F20"/>
<path d="M30.922 60.6055H36.983L36.9829 54.5469H30.9219L30.922 60.6055Z" fill="#F78E93"/>
<path d="M43.0469 60.6064H49.1064V54.5469H43.0469V60.6064Z" fill="#231F20"/>
<path d="M36.9844 60.6064H43.0454V54.5469H36.9844V60.6064Z" fill="#231F20"/>
<path d="M30.9219 72.7255H36.9829L36.983 66.6665H30.922L30.9219 72.7255Z" fill="#FBCCD2"/>
<path d="M30.9219 96.9697H36.9829V90.9102H30.9219V96.9697Z" fill="#231F20"/>
<path d="M49.1064 60.6064H55.1665V54.5469H49.1064V60.6064Z" fill="#231F20"/>
<path d="M30.922 103.03H36.983L36.9829 96.9697H30.9219L30.922 103.03Z" fill="#F78E93"/>
<path d="M30.922 84.8481H36.983V78.7871H30.922V84.8481Z" fill="#F9B2BD"/>
<path d="M30.922 78.7871H36.983L36.9829 72.7266H30.9219L30.922 78.7871Z" fill="#F9B2BD"/>
<path d="M30.9219 90.9087H36.9829L36.983 84.8481H30.922L30.9219 90.9087Z" fill="#E48E93"/>
<path d="M85.4688 60.6064H91.5298V54.5469H85.4688V60.6064Z" fill="#F78E93"/>
<path d="M115.774 145.454H121.835L121.834 139.393H115.773L115.774 145.454Z" fill="#F78E93"/>
<path d="M55.1641 60.6064H61.2251V54.5469H55.1641V60.6064Z" fill="#F78E93"/>
<path d="M103.652 60.6064H109.713V54.5469H103.652V60.6064Z" fill="#F78E93"/>
<path d="M91.5273 60.6064H97.5884V54.5469H91.5273V60.6064Z" fill="#F78E93"/>
<path d="M79.4062 60.6064H85.4673V54.5469H79.4062V60.6064Z" fill="#F78E93"/>
<path d="M61.2266 60.6064H67.2876V54.5469H61.2266V60.6064Z" fill="#F78E93"/>
<path d="M67.2852 60.6064H73.3462V54.5469H67.2852V60.6064Z" fill="#F78E93"/>
<path d="M73.3477 60.6064H79.4087V54.5469H73.3477V60.6064Z" fill="#F78E93"/>
<path d="M97.5898 60.6064H103.651V54.5469H97.5898V60.6064Z" fill="#F78E93"/>
<path d="M79.4064 145.454H85.4674V139.393H79.4064V145.454Z" fill="#F78E93"/>
<path d="M85.4689 145.454H91.5284V139.393H85.4689V145.454Z" fill="#F78E93"/>
<path d="M55.1642 145.454H61.2252V139.395H55.1642V145.454Z" fill="#F78E93"/>
<path d="M61.2267 139.394V145.454H67.2862V139.393L61.2267 139.394Z" fill="#F78E93"/>
<path d="M67.2862 145.454H73.3463V139.393H67.2862V145.454Z" fill="#F78E93"/>
<path d="M30.9219 109.09H36.9829L36.983 103.03H30.922L30.9219 109.09Z" fill="#F78E93"/>
<path d="M109.711 145.454H115.771V139.393H109.711V145.454Z" fill="#F78E93"/>
<path d="M91.5284 145.454H97.5885V139.393H91.5284V145.454Z" fill="#F78E93"/>
<path d="M103.652 145.454H109.713V139.393H103.652V145.454Z" fill="#F78E93"/>
<path d="M97.59 145.454H103.651V139.393H97.59V145.454Z" fill="#F78E93"/>
<path d="M73.3478 145.454H79.4088V139.393H73.3478V145.454Z" fill="#F78E93"/>
<path d="M30.9219 121.212H36.9829V115.152H30.9219V121.212Z" fill="#E0777A"/>
<path d="M30.9219 127.272H36.9829V121.212H30.9219V127.272Z" fill="#BE4246"/>
<path d="M30.9219 115.151H36.9829V109.09H30.9219V115.151Z" fill="#F78E93"/>
<path d="M30.9219 133.334H36.9829V127.273H30.9219V133.334Z" fill="#231F20"/>
<path d="M36.9845 145.454H43.0455V139.395H36.9845V145.454Z" fill="#BE4246"/>
<path d="M43.047 145.454H49.1065V139.395H43.047V145.454Z" fill="#E0777A"/>
<path d="M49.1065 145.454H55.1666V139.395H49.1065V145.454Z" fill="#F78E93"/>
<path d="M36.9845 139.395H43.0455L43.0454 133.334H36.9844L36.9845 139.395Z" fill="#E0777A"/>
<path d="M91.5273 54.5454H97.5884V48.4844H91.5273V54.5454Z" fill="#F78E93"/>
<path d="M18.8047 72.7255H24.8633V66.666H18.8047V72.7255Z" fill="#F78E93"/>
<path d="M18.8047 48.4848H24.8642V42.4238H18.8047V48.4848Z" fill="#F78E93"/>
<path d="M18.8047 78.7876L24.8634 78.7871L24.8633 72.7266H18.8047V78.7876Z" fill="#231F20"/>
<path d="M18.8047 60.6064H24.8642L24.8633 54.5469H18.8047V60.6064Z" fill="#F78E93"/>
<path d="M18.8047 54.5454H24.8633L24.8642 48.4848H18.8047V54.5454Z" fill="#F78E93"/>
<path d="M18.8047 66.666L24.8643 66.6665L24.8642 60.6064H18.8047V66.666Z" fill="#F78E93"/>
<path d="M18.8048 84.8481H24.8643L24.8634 78.7871L18.8047 78.7876L18.8048 84.8481Z" fill="#231F20"/>
<path d="M18.8048 103.03H24.8658V96.9688H18.8048V103.03Z" fill="#F78E93"/>
<path d="M18.8048 96.9688L24.8633 96.9697V90.9102H18.8047L18.8048 96.9688Z" fill="#F78E93"/>
<path d="M18.8047 90.9087H24.8633V84.8477L18.8048 84.8481L18.8047 90.9087Z" fill="#231F20"/>
<path d="M73.3477 48.4844H79.4087V42.4238H73.3477V48.4844Z" fill="#F78E93"/>
<path d="M55.1641 48.4844H61.2251V42.4238H55.1641V48.4844Z" fill="#F78E93"/>
<path d="M67.2852 48.4844H73.3462V42.4238H67.2852V48.4844Z" fill="#F78E93"/>
<path d="M61.2266 48.4844H67.2876V42.4238H61.2266V48.4844Z" fill="#231F20"/>
<path d="M18.8047 109.09H24.8633L24.8634 103.03H18.8048L18.8047 109.09Z" fill="#E0777A"/>
<path d="M43.0469 48.4844L49.1064 48.4848V42.4238H43.0469V48.4844Z" fill="#231F20"/>
<path d="M36.9844 48.4844H43.0454V42.4238H36.9844V48.4844Z" fill="#F78E93"/>
<path d="M79.4102 48.4848H85.4697V42.4238H79.4102V48.4848Z" fill="#F78E93"/>
<path d="M49.1055 48.4844H55.1665V42.4238H49.1064L49.1055 48.4844Z" fill="#F78E93"/>
<path d="M24.8633 48.4844H30.9243V42.4238H24.8642L24.8633 48.4844Z" fill="#F78E93"/>
<path d="M30.9219 48.4844H36.9829V42.4238H30.9219V48.4844Z" fill="#F78E93"/>
<path d="M61.2266 151.516V157.577H67.2861V151.516H61.2266Z" fill="#F78E93"/>
<path d="M55.1641 157.577H61.2251V151.516H55.1641V157.577Z" fill="#F78E93"/>
<path d="M49.1055 157.577H55.1665V151.516H49.1055V157.577Z" fill="#E0777A"/>
<path d="M67.2861 157.577H73.3462V151.516H67.2861V157.577Z" fill="#F78E93"/>
<path d="M36.9844 157.577H43.0454V151.516H36.9844V157.577Z" fill="#231F20"/>
<path d="M43.0469 157.577H49.1055V151.516H43.0469V157.577Z" fill="#BE4246"/>
<path d="M73.3477 157.577H79.4087V151.516H73.3477V157.577Z" fill="#F78E93"/>
<path d="M85.4688 157.577H91.5283V151.516H85.4688V157.577Z" fill="#F78E93"/>
<path d="M91.5283 157.577H97.5884V151.516H91.5283V157.577Z" fill="#F78E93"/>
<path d="M79.4062 157.577H85.4673V151.516H79.4062V157.577Z" fill="#F78E93"/>
<path d="M18.8047 121.212H24.8633V115.152H18.8047V121.212Z" fill="#231F20"/>
<path d="M18.8047 115.151H24.8633L24.8642 109.09L18.8047 109.09V115.151Z" fill="#BE4246"/>
<path d="M109.711 151.514H115.77L115.771 145.454H109.711L109.711 151.514Z" fill="#F78E93"/>
<path d="M73.3477 151.514H79.4087L79.4088 145.454H73.3478L73.3477 151.514Z" fill="#F78E93"/>
<path d="M91.5273 151.514H97.5884L97.5885 145.454L91.5273 145.453V151.514Z" fill="#F78E93"/>
<path d="M103.652 151.514H109.713L109.713 145.454H103.652L103.652 151.514Z" fill="#F78E93"/>
<path d="M79.4062 151.514H85.4673L85.4674 145.454H79.4064L79.4062 151.514Z" fill="#F78E93"/>
<path d="M85.4688 151.514H91.5273V145.453L85.4689 145.454L85.4688 151.514Z" fill="#F78E93"/>
<path d="M97.5898 151.514H103.651L103.651 145.454H97.59L97.5898 151.514Z" fill="#F78E93"/>
<path d="M121.832 151.514H127.893V145.453H121.832V151.514Z" fill="#F78E93"/>
<path d="M121.832 145.453H127.893L127.893 139.393H121.832L121.832 145.453Z" fill="#F78E93"/>
<path d="M115.773 151.514H121.834L121.835 145.454H115.774L115.773 151.514Z" fill="#F78E93"/>
<path d="M121.832 139.393H127.893L127.893 133.334H121.832L121.832 139.393Z" fill="#F78E93"/>
<path d="M36.9844 151.514H43.0454L43.0455 145.454H36.9845L36.9844 151.514Z" fill="#231F20"/>
<path d="M30.922 145.454H36.983L36.9829 139.395H30.9219L30.922 145.454Z" fill="#231F20"/>
<path d="M67.2852 151.514H73.3462L73.3463 145.454L67.2852 145.453V151.514Z" fill="#F78E93"/>
<path d="M43.0469 151.514H49.1064L49.1065 145.454H43.047L43.0469 151.514Z" fill="#E0777A"/>
<path d="M61.2267 145.454L61.2266 151.514H67.2852V145.453L61.2267 145.454Z" fill="#F78E93"/>
<path d="M55.1641 151.514H61.2251L61.2252 145.454H55.1642L55.1641 151.514Z" fill="#F78E93"/>
<path d="M49.1064 151.514H55.1665L55.1666 145.454L49.1055 145.453L49.1064 151.514Z" fill="#F78E93"/>
<path d="M85.4688 48.4844L91.5283 48.4848V42.4238H85.4697L85.4688 48.4844Z" fill="#F78E93"/>
<path d="M121.832 66.6666H127.893V60.6056H121.832V66.6666Z" fill="#231F20"/>
<path d="M121.832 133.333H127.893V127.271H121.832V133.333Z" fill="#F78E93"/>
<path d="M91.5273 48.4844H97.5884V42.4238H91.5283L91.5273 48.4844Z" fill="#F78E93"/>
<path d="M121.832 72.7255H127.893L127.893 66.6666H121.832L121.832 72.7255Z" fill="#F9B2B3"/>
<path d="M97.5898 48.4844H103.651V42.4238H97.5898V48.4844Z" fill="#F9B2B3"/>
<path d="M103.652 48.4844H109.713V42.4238H103.652V48.4844Z" fill="#231F20"/>
<path d="M121.832 121.212H127.893V115.152H121.832V121.212Z" fill="#F78E93"/>
<path d="M121.832 115.151H127.893V109.09H121.832V115.151Z" fill="#F78E93"/>
<path d="M121.832 127.271H127.893V121.212H121.832V127.271Z" fill="#F78E93"/>
<path d="M121.832 78.7876H127.893V72.7266H121.832V78.7876Z" fill="#F78E93"/>
<path d="M121.832 109.09H127.893V103.029H121.832V109.09Z" fill="#F78E93"/>
<path d="M121.832 84.8483H127.893L127.893 78.7876H121.832L121.832 84.8483Z" fill="#F78E93"/>
<path d="M121.832 103.029H127.893L127.893 96.9687H121.832L121.832 103.029Z" fill="#F78E93"/>
<path d="M121.832 90.9087H127.893L127.893 84.8483H121.832L121.832 90.9087Z" fill="#F78E93"/>
<path d="M121.832 96.9677H127.893V90.9087H121.832V96.9677Z" fill="#F78E93"/>
<path d="M79.4062 109.09H85.4673V103.029H79.4062V109.09Z" fill="#F78E93"/>
<path d="M49.1055 78.7876H55.1665V72.7266H49.1055V78.7876Z" fill="#231F20"/>
<path d="M49.1056 84.8481H55.1666L55.1665 78.7876H49.1055L49.1056 84.8481Z" fill="#231F20"/>
<path d="M49.1055 121.212H55.1665V115.152H49.1055V121.212Z" fill="#E0777A"/>
<path d="M55.1641 78.7876H61.2251V72.7266H55.1641V78.7876Z" fill="#F9B2BD"/>
<path d="M61.2266 78.7876H67.2876V72.7266H61.2266V78.7876Z" fill="#F9B2BD"/>
<path d="M49.1055 90.9087H55.1665L55.1666 84.8481H49.1056L49.1055 90.9087Z" fill="#E48E93"/>
<path d="M49.1055 96.9697H55.1665V90.9102H49.1055V96.9697Z" fill="#231F20"/>
<path d="M49.1055 109.09H55.1665V103.029H49.1055V109.09Z" fill="#231F20"/>
<path d="M49.1055 115.151H55.1665V109.09H49.1055V115.151Z" fill="#F78E93"/>
<path d="M49.1055 103.029H55.1665V96.9697H49.1055V103.029Z" fill="#C4161E"/>
<path d="M67.2852 78.7876H73.3462V72.7266H67.2852V78.7876Z" fill="#231F20"/>
<path d="M91.5273 96.9697H97.5884V90.9102H91.5273V96.9697Z" fill="#F78E93"/>
<path d="M73.3477 78.7876H79.4087V72.7266H73.3477V78.7876Z" fill="#F78E93"/>
<path d="M91.5275 103.03H97.5885L97.5884 96.9697H91.5273L91.5275 103.03Z" fill="#F78E93"/>
<path d="M91.5273 115.151H97.5884V109.09H91.5273V115.151Z" fill="#F78E93"/>
<path d="M91.5273 109.09H97.5884L97.5885 103.03H91.5275L91.5273 109.09Z" fill="#F78E93"/>
<path d="M91.5273 90.9087H97.5884V84.8477H91.5273V90.9087Z" fill="#F78E93"/>
<path d="M79.4062 78.7876H85.4673V72.7266H79.4062V78.7876Z" fill="#F78E93"/>
<path d="M85.4688 78.7876H91.5298V72.7266H85.4688V78.7876Z" fill="#F78E93"/>
<path d="M91.5273 78.7876H97.5884V72.7266H91.5273V78.7876Z" fill="#F78E93"/>
<path d="M91.5273 84.8477H97.5884V78.7876H91.5273V84.8477Z" fill="#F78E93"/>
<path d="M97.5898 109.09H103.651V103.029H97.5898V109.09Z" fill="#F78E93"/>
<path d="M97.5898 96.9677H103.651V90.9082H97.5898V96.9677Z" fill="#F78E93"/>
<path d="M97.5898 90.9082H103.651V84.8477H97.5898V90.9082Z" fill="#F78E93"/>
<path d="M97.5898 103.029H103.651L103.651 96.9687H97.5902L97.5898 103.029Z" fill="#F78E93"/>
<path d="M97.5898 84.8477H103.651L103.651 78.7872H97.5902L97.5898 84.8477Z" fill="#F78E93"/>
<path d="M91.5273 121.212H97.5884V115.152H91.5273V121.212Z" fill="#F78E93"/>
<path d="M55.1641 121.212H61.2251V115.152H55.1641V121.212Z" fill="#E0777A"/>
<path d="M109.711 66.6665H115.771L115.77 60.6064H109.711L109.711 66.6665Z" fill="#F78E93"/>
<path d="M97.5902 78.7872H103.651L103.651 72.7266H97.5898L97.5902 78.7872Z" fill="#F78E93"/>
<path d="M91.5273 72.7255H97.5884V66.666H91.5273V72.7255Z" fill="#F78E93"/>
<path d="M97.5898 72.7255H103.651V66.666H97.5898V72.7255Z" fill="#F78E93"/>
<path d="M85.4688 72.7255H91.5298V66.666H85.4688V72.7255Z" fill="#F78E93"/>
<path d="M67.2852 127.272H73.3462V121.211H67.2852V127.272Z" fill="#F78E93"/>
<path d="M61.2266 121.211V127.272H67.2852V121.211H61.2266Z" fill="#F78E93"/>
<path d="M55.1641 127.272H61.2251V121.212H55.1641V127.272Z" fill="#F78E93"/>
<path d="M182.438 96.9688H188.499L188.499 90.9102H182.438L182.438 96.9688Z" fill="#F9B2B3"/>
<path d="M97.5898 121.212H103.651V115.152H97.5898V121.212Z" fill="#F78E93"/>
<path d="M91.5273 127.272H97.5884V121.212H91.5273V127.272Z" fill="#F78E93"/>
<path d="M97.5898 127.272H103.651V121.212H97.5898V127.272Z" fill="#F78E93"/>
<path d="M85.4688 127.272H91.5273L91.5283 121.211H85.4688V127.272Z" fill="#F78E93"/>
<path d="M79.4062 127.272H85.4673V121.211H79.4062V127.272Z" fill="#F78E93"/>
<path d="M85.4688 121.211H91.5283L91.5273 115.152H85.4688V121.211Z" fill="#F78E93"/>
<path d="M61.2267 103.03H67.2877V96.9688H61.2267V103.03Z" fill="#231F20"/>
<path d="M61.2267 96.9688H67.2877L67.2876 90.9102H61.2266L61.2267 96.9688Z" fill="#231F20"/>
<path d="M79.4062 72.7255H85.4673V66.666H79.4062V72.7255Z" fill="#F78E93"/>
<path d="M61.2266 90.9087H67.2876V84.8477H61.2266V90.9087Z" fill="#E48E93"/>
<path d="M61.2266 109.09H67.2876L67.2877 103.03H61.2267L61.2266 109.09Z" fill="#F78E93"/>
<path d="M73.3477 90.9087H79.4087V84.8477H73.3477V90.9087Z" fill="#F78E93"/>
<path d="M79.4062 115.151H85.4673V109.09H79.4062V115.151Z" fill="#F78E93"/>
<path d="M85.4688 115.151H91.5273V109.09H85.4688V115.151Z" fill="#F78E93"/>
<path d="M73.3477 115.151H79.4087V109.09H73.3477V115.151Z" fill="#F78E93"/>
<path d="M67.2852 115.151H73.3462V109.09H67.2852V115.151Z" fill="#F78E93"/>
<path d="M67.2852 109.09H73.3462V103.029H67.2852V109.09Z" fill="#F78E93"/>
<path d="M73.348 103.03H79.409V96.9687H73.348V103.03Z" fill="#F78E93"/>
<path d="M67.2852 103.029H73.3462L73.3463 96.9688H67.2853L67.2852 103.029Z" fill="#F78E93"/>
<path d="M67.2853 96.9688H73.3463L73.3462 90.9102H67.2852L67.2853 96.9688Z" fill="#F78E93"/>
<path d="M73.3477 96.9677H79.4087V90.9087H73.3477V96.9677Z" fill="#F78E93"/>
<path d="M79.4062 90.9087H85.4673V84.8477H79.4062V90.9087Z" fill="#F78E93"/>
<path d="M79.4062 103.029H85.4673L85.4674 96.9688H79.4064L79.4062 103.029Z" fill="#F78E93"/>
<path d="M73.3477 109.09H79.4087L79.409 103.03H73.348L73.3477 109.09Z" fill="#F78E93"/>
<path d="M79.4064 96.9688H85.4674L85.4673 90.9102H79.4062L79.4064 96.9688Z" fill="#F78E93"/>
<path d="M97.5898 157.577H103.651V151.516H97.5898V157.577Z" fill="#F78E93"/>
<path d="M67.2852 90.9087H73.3462V84.8477H67.2852V90.9087Z" fill="#231F20"/>
<path d="M55.1641 109.09H61.2251V103.029H55.1641V109.09Z" fill="#231F20"/>
<path d="M61.2266 115.151H67.2876V109.09H61.2266V115.151Z" fill="#F78E93"/>
<path d="M55.1641 115.151H61.2251V109.09H55.1641V115.151Z" fill="#F78E93"/>
<path d="M55.1641 103.029H61.2251L61.2252 96.9688H55.1642L55.1641 103.029Z" fill="#C4161E"/>
<path d="M55.1642 96.9688H61.2252L61.2251 90.9102H55.1641L55.1642 96.9688Z" fill="#231F20"/>
<path d="M61.2266 121.211L67.2876 121.212V115.152H61.2266V121.211Z" fill="#E0777A"/>
<path d="M73.3477 121.211H79.4087V115.152H73.3477V121.211Z" fill="#F78E93"/>
<path d="M79.4062 121.211H85.4673V115.152H79.4062V121.211Z" fill="#F78E93"/>
<path d="M55.1641 90.9087H61.2251V84.8477H55.1641V90.9087Z" fill="#E48E93"/>
<path d="M67.2852 121.211H73.3462V115.152H67.2852V121.211Z" fill="#F78E93"/>
<path d="M73.3477 84.8477H79.4087V78.7876H73.3477V84.8477Z" fill="#F78E93"/>
<path d="M85.4689 84.8481H91.5299L91.5298 78.7876H85.4688L85.4689 84.8481Z" fill="#F78E93"/>
<path d="M85.4688 96.9697H91.5273V90.9102H85.4688V96.9697Z" fill="#F78E93"/>
<path d="M85.4688 90.9087H91.5273V84.8477L85.4689 84.8481L85.4688 90.9087Z" fill="#F78E93"/>
<path d="M85.4689 103.03H91.5275L91.5284 96.9688L85.4688 96.9697L85.4689 103.03Z" fill="#F78E93"/>
<path d="M67.2852 84.8477H73.3462V78.7876H67.2852V84.8477Z" fill="#231F20"/>
<path d="M61.2266 84.8477H67.2876V78.7876H61.2266V84.8477Z" fill="#F9B2BD"/>
<path d="M55.1641 84.8477H61.2251V78.7876H55.1641V84.8477Z" fill="#F9B2BD"/>
<path d="M79.4062 84.8477H85.4673V78.7876H79.4062V84.8477Z" fill="#F78E93"/>
<path d="M85.4688 109.09L91.5283 109.09L91.5275 103.03H85.4689L85.4688 109.09Z" fill="#F78E93"/>
<path d="M97.5898 115.151H103.651V109.09H97.5898V115.151Z" fill="#F78E93"/>
<path d="M36.9844 121.212H43.0454V115.152H36.9844V121.212Z" fill="#F78E93"/>
<path d="M36.9844 115.151H43.0454V109.09H36.9844V115.151Z" fill="#F78E93"/>
<path d="M36.9844 127.272H43.0454V121.212H36.9844V127.272Z" fill="#E0777A"/>
<path d="M36.9844 109.09H43.0454V103.029H36.9844V109.09Z" fill="#F78E93"/>
<path d="M36.9844 103.029H43.0454L43.0455 96.9688H36.9845L36.9844 103.029Z" fill="#231F20"/>
<path d="M43.047 139.395H49.1065L49.1064 133.334H43.0469L43.047 139.395Z" fill="#F78E93"/>
<path d="M36.9844 133.334H43.0454V127.273H36.9844V133.334Z" fill="#E0777A"/>
<path d="M36.9845 96.9688H43.0455L43.0454 90.9102H36.9844L36.9845 96.9688Z" fill="#231F20"/>
<path d="M49.1055 139.395L55.1666 139.395L55.1665 133.334H49.1064L49.1055 139.395Z" fill="#F78E93"/>
<path d="M43.0469 133.334H49.1064V127.273H43.0469V133.334Z" fill="#F78E93"/>
<path d="M49.1056 66.6665H55.1666L55.1665 60.6064L49.1056 60.6055V66.6665Z" fill="#FBCCD2"/>
<path d="M55.1642 139.395H61.2252L61.2251 133.334H55.1641L55.1642 139.395Z" fill="#F78E93"/>
<path d="M55.1642 66.6665H61.2252L61.2251 60.6064H55.1641L55.1642 66.6665Z" fill="#231F20"/>
<path d="M61.2267 66.6665H67.2877L67.2876 60.6064H61.2266L61.2267 66.6665Z" fill="#F78E93"/>
<path d="M43.047 66.6665H49.1056L49.1064 60.6064H43.0469L43.047 66.6665Z" fill="#FBCCD2"/>
<path d="M36.9844 72.7255H43.0454V66.666H36.9844V72.7255Z" fill="#F9B2BD"/>
<path d="M36.9844 66.666H43.0454V60.6064H36.9844V66.666Z" fill="#FBCCD2"/>
<path d="M36.9844 78.7876H43.0454V72.7266H36.9844V78.7876Z" fill="#231F20"/>
<path d="M36.9845 84.8481H43.0455L43.0454 78.7876H36.9844L36.9845 84.8481Z" fill="#231F20"/>
<path d="M36.9844 90.9087H43.0454L43.0455 84.8481H36.9845L36.9844 90.9087Z" fill="#E48E93"/>
<path d="M61.2266 133.334L61.2267 139.394L67.2862 139.393L67.2861 133.334H61.2266Z" fill="#F78E93"/>
<path d="M109.711 103.03H115.771V96.9688H109.711V103.03Z" fill="#F78E93"/>
<path d="M109.711 96.9688H115.771L115.77 90.9102H109.711L109.711 96.9688Z" fill="#F78E93"/>
<path d="M109.711 109.09H115.77L115.771 103.03H109.711L109.711 109.09Z" fill="#F78E93"/>
<path d="M109.711 115.151H115.77V109.09H109.711V115.151Z" fill="#F78E93"/>
<path d="M67.2853 66.6665H73.3463L73.3462 60.6064H67.2852L67.2853 66.6665Z" fill="#F78E93"/>
<path d="M109.711 84.8481H115.771V78.7871H109.711V84.8481Z" fill="#F78E93"/>
<path d="M109.711 90.9087H115.77L115.771 84.8481H109.711L109.711 90.9087Z" fill="#F78E93"/>
<path d="M109.711 78.7871H115.771L115.77 72.7266H109.711L109.711 78.7871Z" fill="#F78E93"/>
<path d="M109.711 72.7255H115.77L115.771 66.6665H109.711L109.711 72.7255Z" fill="#F78E93"/>
<path d="M109.711 127.272H115.77V121.211H109.711V127.272Z" fill="#F78E93"/>
<path d="M109.711 121.211H115.77V115.152H109.711V121.211Z" fill="#F78E93"/>
<path d="M79.4064 139.393H85.4674L85.4673 133.334H79.4062L79.4064 139.393Z" fill="#F78E93"/>
<path d="M73.3478 139.393H79.4088L79.4087 133.334H73.3477L73.3478 139.393Z" fill="#F78E93"/>
<path d="M85.4689 139.393H91.5284L91.5283 133.334H85.4688L85.4689 139.393Z" fill="#F78E93"/>
<path d="M109.711 133.334H115.77V127.273H109.711V133.334Z" fill="#F78E93"/>
<path d="M67.2852 139.393L73.3463 139.393L73.3462 133.334H67.2861L67.2852 139.393Z" fill="#F78E93"/>
<path d="M103.652 139.393H109.713L109.713 133.334H103.652L103.652 139.393Z" fill="#F78E93"/>
<path d="M109.711 139.393H115.771L115.77 133.334H109.711L109.711 139.393Z" fill="#F78E93"/>
<path d="M91.5273 139.393L97.5885 139.393L97.5884 133.334H91.5283L91.5273 139.393Z" fill="#F78E93"/>
<path d="M97.59 139.393H103.651L103.651 133.334H97.5898L97.59 139.393Z" fill="#F78E93"/>
<path d="M43.0469 121.212H49.1055V115.152H43.0469V121.212Z" fill="#F78E93"/>
<path d="M49.1055 127.272H55.1665V121.212H49.1055V127.272Z" fill="#F78E93"/>
<path d="M73.348 66.6666H79.409L79.4087 60.6064H73.3477L73.348 66.6666Z" fill="#F78E93"/>
<path d="M73.3477 72.7255H79.4087L79.409 66.6666H73.348L73.3477 72.7255Z" fill="#F78E93"/>
<path d="M43.0469 115.151H49.1055L49.1064 109.09H43.0469V115.151Z" fill="#F78E93"/>
<path d="M43.0469 109.09H49.1064L49.1055 103.029H43.0469V109.09Z" fill="#231F20"/>
<path d="M55.1641 133.334H61.2251V127.273H55.1641V133.334Z" fill="#F78E93"/>
<path d="M61.2266 127.273V133.334H67.2861V127.273H61.2266Z" fill="#F78E93"/>
<path d="M67.2852 133.334L73.3462 133.334V127.273H67.2861L67.2852 133.334Z" fill="#F78E93"/>
<path d="M49.1055 133.334L55.1665 133.334V127.273H49.1064L49.1055 133.334Z" fill="#F78E93"/>
<path d="M43.0469 103.029L49.1065 103.03V96.9688H43.047L43.0469 103.029Z" fill="#920F14"/>
<path d="M43.0469 90.9087H49.1055L49.1056 84.8481L43.0469 84.8477V90.9087Z" fill="#E48E93"/>
<path d="M43.047 96.9688L49.1055 96.9697V90.9102H43.0469L43.047 96.9688Z" fill="#231F20"/>
<path d="M55.1641 72.7255H61.2251L61.2252 66.6665H55.1642L55.1641 72.7255Z" fill="#F9B2BD"/>
<path d="M61.2266 72.7255H67.2876L67.2877 66.6665H61.2267L61.2266 72.7255Z" fill="#231F20"/>
<path d="M67.2852 72.7255H73.3462L73.3463 66.6665H67.2853L67.2852 72.7255Z" fill="#F78E93"/>
<path d="M49.1055 72.7255H55.1665L55.1666 66.6665H49.1056L49.1055 72.7255Z" fill="#F9B2BD"/>
<path d="M43.0469 84.8477L49.1056 84.8481L49.1065 78.7871H43.047L43.0469 84.8477Z" fill="#F9B2BD"/>
<path d="M73.3477 133.333H79.4087V127.272H73.3477V133.333Z" fill="#F78E93"/>
<path d="M43.0469 72.7255H49.1055L49.1056 66.6665H43.047L43.0469 72.7255Z" fill="#F9B2BD"/>
<path d="M43.047 78.7871L49.1055 78.7876V72.7266H43.0469L43.047 78.7871Z" fill="#F9B2BD"/>
<path d="M43.0469 127.272H49.1055L49.1064 121.211L43.0469 121.212V127.272Z" fill="#F78E93"/>
<path d="M103.652 78.7876H109.713V72.7266H103.652V78.7876Z" fill="#F78E93"/>
<path d="M103.652 72.7255H109.713V66.666H103.652V72.7255Z" fill="#F78E93"/>
<path d="M103.652 90.9087H109.713V84.8477H103.652V90.9087Z" fill="#F78E93"/>
<path d="M103.652 84.8477H109.713V78.7876H103.652V84.8477Z" fill="#F78E93"/>
<path d="M103.652 66.666H109.713V60.6064H103.652V66.666Z" fill="#F78E93"/>
<path d="M79.4062 133.334H85.4673V127.273H79.4062V133.334Z" fill="#F78E93"/>
<path d="M79.4062 66.666H85.4673V60.6064H79.4062V66.666Z" fill="#F78E93"/>
<path d="M85.4688 66.666H91.5298V60.6064H85.4688V66.666Z" fill="#F78E93"/>
<path d="M97.5898 66.666H103.651V60.6064H97.5898V66.666Z" fill="#F78E93"/>
<path d="M91.5273 66.666H97.5884V60.6064H91.5273V66.666Z" fill="#F78E93"/>
<path d="M103.652 96.9697H109.713V90.9102H103.652V96.9697Z" fill="#F78E93"/>
<path d="M97.5898 133.333H103.651V127.272H97.5898V133.333Z" fill="#F78E93"/>
<path d="M91.5273 133.334L97.5884 133.334V127.273H91.5273V133.334Z" fill="#F78E93"/>
<path d="M103.652 133.334H109.713V127.273H103.652V133.334Z" fill="#F78E93"/>
<path d="M103.652 103.03H109.713L109.713 96.9697H103.652L103.652 103.03Z" fill="#F78E93"/>
<path d="M85.4688 133.334H91.5283L91.5273 127.273H85.4688V133.334Z" fill="#F78E93"/>
<path d="M103.652 115.151H109.713V109.09H103.652V115.151Z" fill="#F78E93"/>
<path d="M103.652 127.272H109.713V121.211H103.652V127.272Z" fill="#F78E93"/>
<path d="M103.652 109.09H109.713L109.713 103.03H103.652L103.652 109.09Z" fill="#F78E93"/>
<path d="M103.652 121.211H109.713V115.152H103.652V121.211Z" fill="#F78E93"/>
<path d="M91.5273 175.756H97.5884V169.695H91.5273V175.756Z" fill="#F78E93"/>
<path d="M0.621094 96.9677H6.6806V90.9082H0.621094V96.9677Z" fill="#231F20"/>
<path d="M0.621094 90.9082H6.6806V84.8477H0.621094V90.9082Z" fill="#231F20"/>
<path d="M0.621094 84.8477H6.6806L6.68072 78.7871H0.621216L0.621094 84.8477Z" fill="#231F20"/>
<path d="M0.621216 78.7871L6.68211 78.7876V72.7266H0.621094L0.621216 78.7871Z" fill="#231F20"/>
<path d="M0.621216 103.03H6.68072V96.9688H0.621216V103.03Z" fill="#231F20"/>
<path d="M0.621094 72.7255H6.68211V66.666H0.621094V72.7255Z" fill="#231F20"/>
<path d="M0.621094 66.666H6.68211L6.68223 60.6055H0.621216L0.621094 66.666Z" fill="#231F20"/>
<path d="M0.621216 60.6055H6.68223L6.68211 54.5469H0.621094L0.621216 60.6055Z" fill="#231F20"/>
<path d="M49.1055 175.756H55.1665V169.695H49.1055V175.756Z" fill="#231F20"/>
<path d="M61.2266 175.756H67.2876V169.695H61.2266V175.756Z" fill="#231F20"/>
<path d="M79.4062 175.756H85.4673V169.695H79.4062V175.756Z" fill="#BE4246"/>
<path d="M67.2852 175.756H73.3462V169.695H67.2852V175.756Z" fill="#BE4246"/>
<path d="M85.4688 175.756H91.5273V169.695H85.4688V175.756Z" fill="#231F20"/>
<path d="M73.3477 175.758H79.4087V169.697H73.3477V175.758Z" fill="#BE4246"/>
<path d="M55.1641 175.756H61.2251V169.695H55.1641V175.756Z" fill="#231F20"/>
<path d="M140.016 72.7255H146.077V66.666H140.016V72.7255Z" fill="#231F20"/>
<path d="M140.016 78.7876H146.077V72.7266H140.016V78.7876Z" fill="#F9B2B3"/>
<path d="M140.016 84.8481H146.077L146.077 78.7876H140.016L140.016 84.8481Z" fill="#F78E93"/>
<path d="M140.016 103.03H146.077V96.9688H140.016V103.03Z" fill="#F78E93"/>
<path d="M140.016 90.9087H146.077L146.077 84.8481H140.016L140.016 90.9087Z" fill="#F78E93"/>
<path d="M140.016 96.9688H146.077L146.077 90.9102H140.016L140.016 96.9688Z" fill="#F78E93"/>
<path d="M140.016 151.514H146.077V145.453H140.016V151.514Z" fill="#F78E93"/>
<path d="M140.016 145.453H146.077L146.077 139.393H140.016L140.016 145.453Z" fill="#F78E93"/>
<path d="M140.016 139.393H146.077L146.077 133.334H140.016L140.016 139.393Z" fill="#F78E93"/>
<path d="M140.016 157.577H146.077V151.516H140.016V157.577Z" fill="#F78E93"/>
<path d="M103.652 157.577H109.713V151.516H103.652V157.577Z" fill="#F78E93"/>
<path d="M140.016 115.151H146.077V109.09H140.016V115.151Z" fill="#F78E93"/>
<path d="M140.016 121.212H146.077V115.152H140.016V121.212Z" fill="#F78E93"/>
<path d="M140.016 133.334H146.077V127.273H140.016V133.334Z" fill="#F78E93"/>
<path d="M140.016 109.09H146.077L146.077 103.03H140.016L140.016 109.09Z" fill="#F78E93"/>
<path d="M55.1641 30.3032H61.2251V24.2422H55.1641V30.3032Z" fill="#F9B2B3"/>
<path d="M85.4688 30.3032H91.5283V24.2422H85.4688V30.3032Z" fill="#231F20"/>
<path d="M61.2266 30.3032H67.2876V24.2422H61.2266V30.3032Z" fill="#F9B2B3"/>
<path d="M73.3477 30.3032H79.4087V24.2422H73.3477V30.3032Z" fill="#F9B2B3"/>
<path d="M79.4062 30.3032H85.4673V24.2422H79.4062V30.3032Z" fill="#F9B2B3"/>
<path d="M67.2891 30.3032H73.3501V24.2422H67.2891V30.3032Z" fill="#F9B2B3"/>
<path d="M36.9844 30.3032H43.0454V24.2422H36.9844V30.3032Z" fill="#F9B2B3"/>
<path d="M49.1055 30.3032H55.1665V24.2422H49.1055V30.3032Z" fill="#F9B2B3"/>
<path d="M43.0469 30.3032H49.1055V24.2422H43.0469V30.3032Z" fill="#F9B2B3"/>
<path d="M30.9219 30.3032H36.9829V24.2422H30.9219V30.3032Z" fill="#F9B2B3"/>
<path d="M24.8633 30.3032H30.9243V24.2422H24.8633V30.3032Z" fill="#231F20"/>
<path d="M24.8633 24.2422H30.9243V18.1821H24.8642L24.8633 24.2422Z" fill="#231F20"/>
<path d="M97.5898 175.758H103.651V169.697H97.5898V175.758Z" fill="#F78E93"/>
<path d="M67.2853 24.2427H73.3463L73.3462 18.1821H67.2852L67.2853 24.2427Z" fill="#231F20"/>
<path d="M73.3477 24.2422H79.4087V18.1821H73.3477V24.2422Z" fill="#231F20"/>
<path d="M79.4062 24.2422H85.4673V18.1821H79.4062V24.2422Z" fill="#231F20"/>
<path d="M61.2266 24.2422H67.2876L67.2877 18.1816H61.2267L61.2266 24.2422Z" fill="#231F20"/>
<path d="M36.9844 24.2422H43.0454V18.1821H36.9844V24.2422Z" fill="#231F20"/>
<path d="M43.0469 24.2422L49.108 24.2427V18.1816H43.047L43.0469 24.2422Z" fill="#231F20"/>
<path d="M49.1055 24.2422H55.1665L55.1666 18.1816H49.1056L49.1055 24.2422Z" fill="#231F20"/>
<path d="M55.1681 24.2427H61.2276L61.2267 18.1816H55.1681V24.2427Z" fill="#231F20"/>
<path d="M140.016 163.636H146.077V157.577H140.016V163.636Z" fill="#F78E93"/>
<path d="M30.9259 24.2427H36.9854V18.1816H30.9259V24.2427Z" fill="#231F20"/>
<path d="M146.074 139.393H152.135V133.334H146.074V139.393Z" fill="#F78E93"/>
<path d="M146.074 133.334H152.135V127.273H146.074V133.334Z" fill="#F78E93"/>
<path d="M146.074 145.454H152.135L152.135 139.393H146.074L146.074 145.454Z" fill="#F78E93"/>
<path d="M146.074 157.577H152.135V151.516H146.074V157.577Z" fill="#F78E93"/>
<path d="M146.074 151.514H152.135L152.135 145.454H146.074L146.074 151.514Z" fill="#F78E93"/>
<path d="M146.074 163.636H152.135V157.577H146.074V163.636Z" fill="#F78E93"/>
<path d="M146.074 103.03H152.135V96.9688H146.074V103.03Z" fill="#F78E93"/>
<path d="M146.074 115.151H152.135V109.09H146.074V115.151Z" fill="#F78E93"/>
<path d="M146.074 127.272H152.135V121.211H146.074V127.272Z" fill="#F78E93"/>
<path d="M146.074 121.211H152.135V115.152H146.074V121.211Z" fill="#F78E93"/>
<path d="M146.074 109.09H152.135L152.135 103.03H146.074L146.074 109.09Z" fill="#F78E93"/>
<path d="M121.832 175.758H127.893V169.697H121.832V175.758Z" fill="#BE4246"/>
<path d="M109.711 175.756H115.77V169.695H109.711V175.756Z" fill="#231F20"/>
<path d="M115.773 175.756H121.834V169.695H115.773V175.756Z" fill="#BE4246"/>
<path d="M146.074 169.696H152.135V163.637H146.074V169.696Z" fill="#231F20"/>
<path d="M103.652 175.756H109.713V169.695H103.652V175.756Z" fill="#F78E93"/>
<path d="M146.074 175.756H152.135L152.135 169.696H146.074L146.074 175.756Z" fill="#BE4246"/>
<path d="M140.016 175.756H146.077V169.695H140.016V175.756Z" fill="#BE4246"/>
<path d="M133.953 175.756H140.013V169.695H133.953V175.756Z" fill="#BE4246"/>
<path d="M127.895 175.756H133.953V169.695H127.895V175.756Z" fill="#BE4246"/>
<path d="M146.074 96.9688H152.135L152.135 90.9102H146.074L146.074 96.9688Z" fill="#F78E93"/>
<path d="M146.074 84.8481H152.135V78.7871H146.074V84.8481Z" fill="#F78E93"/>
<path d="M146.074 72.7255H152.135V66.666H146.074V72.7255Z" fill="#231F20"/>
<path d="M146.074 90.9087H152.135L152.135 84.8481H146.074L146.074 90.9087Z" fill="#F78E93"/>
<path d="M146.074 78.7871H152.135L152.135 72.7266H146.074L146.074 78.7871Z" fill="#F9B2B3"/>
<path d="M140.016 127.272H146.077V121.212H140.016V127.272Z" fill="#F78E93"/>
<path d="M12.7422 109.09H18.8032V103.029H12.7422V109.09Z" fill="#BE4246"/>
<path d="M12.7422 115.151H18.8032V109.09H12.7422V115.151Z" fill="#231F20"/>
<path d="M12.7423 66.6665H18.8033V60.6055H12.7423V66.6665Z" fill="#F78E93"/>
<path d="M12.7423 60.6055H18.8033L18.8032 54.5469H12.7422L12.7423 60.6055Z" fill="#F78E93"/>
<path d="M12.7422 72.7255H18.8032L18.8033 66.6665H12.7423L12.7422 72.7255Z" fill="#F78E93"/>
<path d="M12.7422 48.4848H18.8032V42.4238H12.7422V48.4848Z" fill="#231F20"/>
<path d="M12.7422 54.5454H18.8032V48.4848H12.7422V54.5454Z" fill="#F9B2B3"/>
<path d="M12.7422 96.9697H18.8032V90.9102H12.7422V96.9697Z" fill="#F78E93"/>
<path d="M12.7422 90.9087H18.8032V84.8477H12.7422V90.9087Z" fill="#F78E93"/>
<path d="M12.7422 78.7876H18.8032V72.7266H12.7422V78.7876Z" fill="#F78E93"/>
<path d="M12.7422 103.029H18.8032V96.9697H12.7422V103.029Z" fill="#E0777A"/>
<path d="M12.7422 84.8477H18.8032V78.7876H12.7422V84.8477Z" fill="#F78E93"/>
<path d="M109.711 163.636H115.77V157.576H109.711V163.636Z" fill="#F78E93"/>
<path d="M103.652 163.636H109.713V157.577H103.652V163.636Z" fill="#F78E93"/>
<path d="M97.5898 163.636H103.651V157.577H97.5898V163.636Z" fill="#F78E93"/>
<path d="M115.773 163.636H121.834V157.576H115.773V163.636Z" fill="#F78E93"/>
<path d="M91.5273 163.636H97.5884V157.577L91.5273 157.576V163.636Z" fill="#F78E93"/>
<path d="M12.7422 42.4238L18.8018 42.4243V36.3633H12.7423L12.7422 42.4238Z" fill="#231F20"/>
<path d="M133.953 157.577H140.013V151.516H133.953V157.577Z" fill="#F78E93"/>
<path d="M85.4688 163.636H91.5273L91.5283 157.577H85.4688V163.636Z" fill="#F78E93"/>
<path d="M133.953 163.636H140.013V157.577H133.953V163.636Z" fill="#F78E93"/>
<path d="M127.895 163.636H133.953L133.954 157.576H127.895V163.636Z" fill="#F78E93"/>
<path d="M121.832 163.636H127.893V157.576H121.832V163.636Z" fill="#F78E93"/>
<path d="M43.0469 163.636H49.1064V157.576L43.0469 157.577V163.636Z" fill="#231F20"/>
<path d="M49.1064 163.636H55.1665V157.577H49.1055L49.1064 163.636Z" fill="#BE4246"/>
<path d="M61.2266 163.636H67.2876V157.576L61.2266 157.577V163.636Z" fill="#E0777A"/>
<path d="M67.2852 163.636H73.3462V157.577L67.2852 157.576V163.636Z" fill="#E0777A"/>
<path d="M73.3477 163.636H79.4087V157.577H73.3477V163.636Z" fill="#E0777A"/>
<path d="M55.1641 163.636H61.2251V157.577H55.1641V163.636Z" fill="#E0777A"/>
<path d="M79.4062 163.636H85.4673V157.577H79.4062V163.636Z" fill="#E0777A"/>
<path d="M127.895 90.9087H133.954V84.8477H127.895V90.9087Z" fill="#F78E93"/>
<path d="M133.953 151.514H140.013V145.453H133.953V151.514Z" fill="#F78E93"/>
<path d="M127.895 103.03H133.954V96.9688H127.895V103.03Z" fill="#F78E93"/>
<path d="M18.8047 42.4238H24.8642L24.8643 36.3633H18.8048L18.8047 42.4238Z" fill="#F78E93"/>
<path d="M127.895 109.09H133.954L133.954 103.03H127.895L127.895 109.09Z" fill="#F78E93"/>
<path d="M127.895 121.212H133.954V115.152H127.895V121.212Z" fill="#F78E93"/>
<path d="M127.895 115.151H133.954V109.09H127.895V115.151Z" fill="#F78E93"/>
<path d="M127.895 84.8477H133.954L133.954 78.7871H127.895L127.895 84.8477Z" fill="#F78E93"/>
<path d="M127.895 72.7255H133.954V66.666H127.895V72.7255Z" fill="#231F20"/>
<path d="M127.895 78.7871H133.954L133.954 72.7266H127.895L127.895 78.7871Z" fill="#F9B2B3"/>
<path d="M121.832 157.576H127.893V151.516H121.832V157.576Z" fill="#F78E93"/>
<path d="M115.773 157.576H121.834V151.516H115.773V157.576Z" fill="#F78E93"/>
<path d="M127.895 157.576H133.954L133.953 151.516H127.895V157.576Z" fill="#F78E93"/>
<path d="M109.711 157.576H115.77V151.516H109.711V157.576Z" fill="#F78E93"/>
<path d="M140.016 169.695H146.077L146.077 163.637H140.016L140.016 169.695Z" fill="#E0777A"/>
<path d="M127.895 133.334H133.954V127.273H127.895V133.334Z" fill="#F78E93"/>
<path d="M127.895 139.393H133.954V133.334H127.895V139.393Z" fill="#F78E93"/>
<path d="M127.895 151.514H133.953V145.453H127.895V151.514Z" fill="#F78E93"/>
<path d="M127.895 127.272H133.954V121.212H127.895V127.272Z" fill="#F78E93"/>
<path d="M127.895 96.9688H133.954L133.954 90.9102H127.895L127.895 96.9688Z" fill="#F78E93"/>
<path d="M55.1641 42.4238H61.2251L61.2252 36.3633H55.1642L55.1641 42.4238Z" fill="#F78E93"/>
<path d="M49.1064 42.4238H55.1665L55.1666 36.3633H49.1056L49.1064 42.4238Z" fill="#F78E93"/>
<path d="M61.2266 42.4238H67.2876L67.2877 36.3633H61.2267L61.2266 42.4238Z" fill="#F78E93"/>
<path d="M79.4102 42.4238H85.4697L85.4698 36.3633H79.4103L79.4102 42.4238Z" fill="#F78E93"/>
<path d="M73.3477 42.4238H79.4087L79.409 36.3631H73.348L73.3477 42.4238Z" fill="#F78E93"/>
<path d="M67.2852 42.4238H73.3462L73.3463 36.3633H67.2853L67.2852 42.4238Z" fill="#F78E93"/>
<path d="M30.9219 42.4238H36.9829L36.983 36.3633H30.922L30.9219 42.4238Z" fill="#F78E93"/>
<path d="M43.0469 42.4238H49.1064L49.1056 36.3633H43.047L43.0469 42.4238Z" fill="#F78E93"/>
<path d="M24.8642 42.4238H30.9243L30.9244 36.3633H24.8643L24.8642 42.4238Z" fill="#F78E93"/>
<path d="M36.9844 42.4238H43.0454L43.0455 36.3633H36.9845L36.9844 42.4238Z" fill="#F78E93"/>
<path d="M91.5283 42.4238H97.5884L97.5885 36.3633H91.5275L91.5283 42.4238Z" fill="#F9B2B3"/>
<path d="M85.4697 42.4238H91.5283L91.5275 36.3633H85.4698L85.4697 42.4238Z" fill="#F78E93"/>
<path d="M97.5898 42.4238H103.651L103.651 36.3631H97.5902L97.5898 42.4238Z" fill="#231F20"/>
<path d="M127.895 145.453L133.954 145.454L133.954 139.393H127.895V145.453Z" fill="#F78E93"/>
<path d="M6.68359 54.5454H12.7446V48.4844H6.68359V54.5454Z" fill="#231F20"/>
<path d="M6.67969 109.09H12.7407V103.029H6.67969V109.09Z" fill="#231F20"/>
<path d="M6.67969 78.7876H12.7407V72.7266H6.67969V78.7876Z" fill="#F78E93"/>
<path d="M6.67981 66.6665H12.7408V60.6055H6.67981V66.6665Z" fill="#F78E93"/>
<path d="M6.67981 60.6055H12.7408L12.7407 54.5469H6.67969L6.67981 60.6055Z" fill="#F9B2B3"/>
<path d="M6.67969 72.7255H12.7407L12.7408 66.6665H6.67981L6.67969 72.7255Z" fill="#F78E93"/>
<path d="M6.67969 96.9697H12.7407V90.9102H6.67969V96.9697Z" fill="#E0777A"/>
<path d="M6.6806 84.8477L12.7408 84.8481L12.7407 78.7876H6.67969L6.6806 84.8477Z" fill="#F78E93"/>
<path d="M6.67969 103.029H12.7407V96.9697H6.67969V103.029Z" fill="#BE4246"/>
<path d="M6.67969 90.9087H12.7407L12.7408 84.8481L6.6806 84.8477L6.67969 90.9087Z" fill="#F78E93"/>
<path d="M109.711 169.695H115.77L115.771 163.637H109.711L109.711 169.695Z" fill="#F78E93"/>
<path d="M97.5898 169.697H103.651L103.651 163.637H97.5902L97.5898 169.697Z" fill="#F78E93"/>
<path d="M103.652 169.695H109.713L109.713 163.637H103.652L103.652 169.695Z" fill="#F78E93"/>
<path d="M91.5273 169.695H97.5884L97.5885 163.637H91.5275L91.5273 169.695Z" fill="#F78E93"/>
<path d="M85.4688 169.695L91.5284 169.696L91.5275 163.637H85.4689L85.4688 169.695Z" fill="#E0777A"/>
<path d="M127.895 169.695L133.954 169.696V163.637H127.895L127.895 169.695Z" fill="#E0777A"/>
<path d="M133.953 169.695H140.013L140.013 163.637H133.954L133.953 169.695Z" fill="#E0777A"/>
<path d="M79.4062 169.695H85.4673L85.4674 163.637H79.4064L79.4062 169.695Z" fill="#231F20"/>
<path d="M121.832 169.697H127.893L127.893 163.637H121.832L121.832 169.697Z" fill="#E0777A"/>
<path d="M115.773 169.695H121.834L121.835 163.637H115.774L115.773 169.695Z" fill="#231F20"/>
<path d="M49.1055 169.695H55.1665L55.1666 163.637H49.1056L49.1055 169.695Z" fill="#231F20"/>
<path d="M67.2852 169.695H73.3462L73.3463 163.637H67.2853L67.2852 169.695Z" fill="#BE4246"/>
<path d="M61.2266 169.695H67.2876L67.2877 163.637H61.2267L61.2266 169.695Z" fill="#BE4246"/>
<path d="M73.3477 169.697H79.4087L79.409 163.637H73.348L73.3477 169.697Z" fill="#BE4246"/>
<path d="M55.1641 169.695H61.2251L61.2252 163.637H55.1642L55.1641 169.695Z" fill="#BE4246"/>
<path d="M133.953 78.7876H140.013V72.7266H133.954L133.953 78.7876Z" fill="#F9B2B3"/>
<path d="M133.954 84.8477L140.013 84.8481L140.013 78.7876H133.953L133.954 84.8477Z" fill="#F78E93"/>
<path d="M133.954 72.7255H140.013V66.666H133.954V72.7255Z" fill="#231F20"/>
<path d="M133.954 121.212H140.013V115.152H133.954V121.212Z" fill="#F78E93"/>
<path d="M133.954 133.334H140.013V127.273H133.954V133.334Z" fill="#F78E93"/>
<path d="M133.954 127.272H140.013V121.212L133.953 121.211L133.954 127.272Z" fill="#F78E93"/>
<path d="M133.954 139.393H140.013V133.334L133.953 133.334L133.954 139.393Z" fill="#F78E93"/>
<path d="M133.954 103.03H140.013V96.9688H133.954V103.03Z" fill="#F78E93"/>
<path d="M133.953 96.9697L140.013 96.9688L140.013 90.9102H133.954L133.953 96.9697Z" fill="#F78E93"/>
<path d="M133.954 90.9087H140.013L140.013 84.8481L133.954 84.8477V90.9087Z" fill="#F78E93"/>
<path d="M133.954 115.151H140.013V109.09H133.953L133.954 115.151Z" fill="#F78E93"/>
<path d="M133.953 109.09H140.013L140.013 103.03L133.953 103.029V109.09Z" fill="#F78E93"/>
<path d="M61.2267 36.3633H67.2877L67.2876 30.3047H61.2266L61.2267 36.3633Z" fill="#F78E93"/>
<path d="M30.922 36.3633H36.983L36.9829 30.3047H30.9219L30.922 36.3633Z" fill="#F78E93"/>
<path d="M36.9845 36.3633H43.0455L43.0454 30.3047H36.9844L36.9845 36.3633Z" fill="#F78E93"/>
<path d="M24.8633 36.3642L30.9244 36.3633L30.9243 30.3047H24.8633V36.3642Z" fill="#F78E93"/>
<path d="M43.047 36.3633L49.1064 36.3642V30.3047H43.0469L43.047 36.3633Z" fill="#F78E93"/>
<path d="M49.1056 36.3633H55.1666L55.1665 30.3047H49.1064L49.1056 36.3633Z" fill="#F78E93"/>
<path d="M55.1642 36.3633H61.2252L61.2251 30.3047H55.1641L55.1642 36.3633Z" fill="#F78E93"/>
<path d="M18.8048 36.3633L24.8633 36.3642V30.3047H18.8047L18.8048 36.3633Z" fill="#231F20"/>
<path d="M133.953 145.453H140.013V139.393L133.953 139.393L133.953 145.453Z" fill="#F78E93"/>
<path d="M67.2853 36.3633H73.3463L73.3462 30.3047H67.2852L67.2853 36.3633Z" fill="#F78E93"/>
<path d="M91.5275 36.3633H97.5885L97.5884 30.3047H91.5273L91.5275 36.3633Z" fill="#231F20"/>
<path d="M73.3477 36.3642H79.4087V30.3047H73.3477V36.3642Z" fill="#F78E93"/>
<path d="M79.4062 36.3642H85.4673V30.3047H79.4062V36.3642Z" fill="#F78E93"/>
<path d="M85.4688 36.3642H91.5283L91.5273 30.3047H85.4688V36.3642Z" fill="#F9B2B3"/>
<path d="M182.438 90.9087H188.499V84.8477H182.438V90.9087Z" fill="#231F20"/>
<path d="M194.559 96.9697H200.62V90.9102H194.559V96.9697Z" fill="#231F20"/>
<path d="M194.559 109.09H200.62V103.029H194.559V109.09Z" fill="#231F20"/>
<path d="M194.559 115.151H200.62V109.09H194.559V115.151Z" fill="#231F20"/>
<path d="M194.559 151.514H200.62V145.453H194.559V151.514Z" fill="#231F20"/>
<path d="M194.559 163.636H200.62V157.576H194.559V163.636Z" fill="#231F20"/>
<path d="M194.559 169.696H200.62V163.637H194.559V169.696Z" fill="#231F20"/>
<path d="M194.559 139.393H200.62V133.334H194.559V139.393Z" fill="#231F20"/>
<path d="M194.559 145.453H200.62V139.393H194.559V145.453Z" fill="#231F20"/>
<path d="M194.559 133.334H200.62V127.273H194.559V133.334Z" fill="#231F20"/>
<path d="M194.559 127.272H200.62V121.211H194.559V127.272Z" fill="#231F20"/>
<path d="M194.559 121.211H200.62V115.152H194.559V121.211Z" fill="#231F20"/>
<path d="M194.559 175.756H200.62L200.62 169.696H194.559L194.559 175.756Z" fill="#231F20"/>
<path d="M194.559 157.576H200.62V151.516H194.559V157.576Z" fill="#231F20"/>
<path d="M194.559 181.819H200.62V175.758H194.559V181.819Z" fill="#231F20"/>
<path d="M194.559 193.94H200.62V187.879H194.559V193.94Z" fill="#231F20"/>
<path d="M194.559 187.878H200.62L200.62 181.819H194.559L194.559 187.878Z" fill="#231F20"/>
<path d="M194.559 200H200.62V193.94H194.559V200Z" fill="#231F20"/>
<path d="M188.5 121.212H194.561V115.152H188.5V121.212Z" fill="#F78E93"/>
<path d="M188.5 151.514H194.561V145.453H188.5V151.514Z" fill="#F78E93"/>
<path d="M188.5 157.577H194.561V151.516H188.5V157.577Z" fill="#F78E93"/>
<path d="M188.5 145.453H194.561L194.561 139.393H188.5L188.5 145.453Z" fill="#F78E93"/>
<path d="M188.5 169.696H194.561V163.637H188.5V169.696Z" fill="#F78E93"/>
<path d="M188.5 163.636H194.561V157.577H188.5V163.636Z" fill="#F78E93"/>
<path d="M188.5 139.393H194.561L194.561 133.334H188.5L188.5 139.393Z" fill="#F78E93"/>
<path d="M188.5 175.756H194.561L194.561 169.696H188.5L188.5 175.756Z" fill="#F78E93"/>
<path d="M188.5 127.272H194.561V121.212H188.5V127.272Z" fill="#F78E93"/>
<path d="M188.5 133.334H194.561V127.273H188.5V133.334Z" fill="#F78E93"/>
<path d="M188.5 115.151H194.561V109.09H188.5V115.151Z" fill="#F78E93"/>
<path d="M188.5 193.94H194.561V187.879H188.5V193.94Z" fill="#231F20"/>
<path d="M188.5 181.819H194.561V175.758H188.5V181.819Z" fill="#F78E93"/>
<path d="M188.5 187.878H194.561L194.561 181.819H188.5L188.5 187.878Z" fill="#F78E93"/>
<path d="M188.5 200H194.561V193.94H188.5V200Z" fill="#231F20"/>
<path d="M188.5 109.09H194.561V103.029H188.5V109.09Z" fill="#F78E93"/>
<path d="M188.5 96.9697H194.561V90.9102H188.5V96.9697Z" fill="#231F20"/>
<path d="M188.5 103.029H194.561V96.9697H188.5V103.029Z" fill="#231F20"/>
<path d="M206.68 84.8481H212.741V78.7871H206.68V84.8481Z" fill="#231F20"/>
<path d="M200.621 78.7876L206.68 78.7871L206.681 72.7266H200.621V78.7876Z" fill="#231F20"/>
<path d="M200.621 90.9087H206.681L206.68 84.8481L200.621 84.8477V90.9087Z" fill="#231F20"/>
</svg>
