<svg width="282" height="200" viewBox="0 0 282 200" fill="none" xmlns="http://www.w3.org/2000/svg">
<path d="M7.66992 111.111H15.076V103.703H7.66992V111.111Z" fill="#231F20"/>
<path d="M7.66992 103.703H15.076V96.2949H7.66992V103.703Z" fill="#7D726F"/>
<path d="M7.66992 81.4821H15.076V74.0742H7.66992V81.4821Z" fill="#231F20"/>
<path d="M7.66992 96.2949H15.076V88.8887H7.66992V96.2949Z" fill="#A89E9B"/>
<path d="M7.66992 88.8887H15.076V81.4805H7.66992V88.8887Z" fill="#C7C0BE"/>
<path d="M0.263672 96.2947H7.67156V88.8887H0.263672V96.2947Z" fill="#231F20"/>
<path d="M0.263672 88.8887H7.67156V81.4805H0.263672V88.8887Z" fill="#231F20"/>
<path d="M0.263672 103.703H7.67156V96.2947H0.263672L0.263672 103.703Z" fill="#231F20"/>
<path d="M229.889 66.6658H237.297V59.2598H229.889V66.6658Z" fill="#655C59"/>
<path d="M229.889 103.703H237.297V96.2949H229.889V103.703Z" fill="#231F20"/>
<path d="M229.889 81.4821H237.297V74.0742H229.889V81.4821Z" fill="#655C59"/>
<path d="M229.889 74.0742H237.297V66.6658H229.889V74.0742Z" fill="#A89E9B"/>
<path d="M229.889 96.2949H237.297V88.8887H229.889V96.2949Z" fill="#7D726F"/>
<path d="M229.889 88.8887H237.297V81.4805H229.889V88.8887Z" fill="#655C59"/>
<path d="M229.889 192.591H237.297V185.184H229.889V192.591Z" fill="#231F20"/>
<path d="M229.889 185.184H237.297V177.777H229.889V185.184Z" fill="#231F20"/>
<path d="M229.889 177.777H237.297V170.371H229.889V177.777Z" fill="#231F20"/>
<path d="M229.889 170.371H237.297V162.963H229.889V170.371Z" fill="#231F20"/>
<path d="M229.889 29.6305H237.297V22.2227H229.889V29.6305Z" fill="#655C59"/>
<path d="M229.889 44.445H237.297V37.0371H229.889V44.445Z" fill="#A89E9B"/>
<path d="M229.889 37.0371H237.297V29.6289H229.889V37.0371Z" fill="#655C59"/>
<path d="M229.889 51.8514H237.297V44.445H229.889V51.8514Z" fill="#A89E9B"/>
<path d="M229.889 59.2598H237.297V51.8514H229.889V59.2598Z" fill="#655C59"/>
<path d="M229.889 7.40789H237.297V0H229.889V7.40789Z" fill="#231F20"/>
<path d="M229.889 14.8161H237.297V7.40789H229.889V14.8161Z" fill="#C7C0BE"/>
<path d="M229.889 22.2227H237.297V14.8161H229.889V22.2227Z" fill="#655C59"/>
<path d="M215.076 51.8514H222.484V44.4453H215.076V51.8514Z" fill="#231F20"/>
<path d="M215.076 44.4453H222.484V37.0371H215.076V44.4453Z" fill="#231F20"/>
<path d="M215.076 29.6305H222.484V22.2227H215.076V29.6305Z" fill="#231F20"/>
<path d="M215.076 22.2227H222.484V14.8164H215.076V22.2227Z" fill="#231F20"/>
<path d="M215.076 37.0371H222.484V29.6289H215.076V37.0371Z" fill="#231F20"/>
<path d="M111.373 200H118.781V192.592H111.373V200Z" fill="#231F20"/>
<path d="M118.783 200H126.189V192.592H118.783V200Z" fill="#231F20"/>
<path d="M126.189 200H133.597V192.592H126.189V200Z" fill="#231F20"/>
<path d="M215.076 192.591H222.484V185.184H215.076V192.591Z" fill="#443B38"/>
<path d="M215.076 133.334H222.484V125.926H215.076V133.334Z" fill="#A89E9B"/>
<path d="M215.076 140.74H222.484V133.332H215.076V140.74Z" fill="#A89E9B"/>
<path d="M215.076 155.554H222.484V148.146H215.076V155.554Z" fill="#A89E9B"/>
<path d="M215.076 162.963H222.484V155.554H215.076V162.963Z" fill="#A89E9B"/>
<path d="M178.057 200H185.465V192.592H178.057V200Z" fill="#231F20"/>
<path d="M215.076 148.146H222.484V140.74H215.076V148.146Z" fill="#A89E9B"/>
<path d="M215.076 96.2947H222.484V88.8887H215.076V96.2947Z" fill="#A89E9B"/>
<path d="M215.076 103.703H222.484V96.2947H215.076V103.703Z" fill="#231F20"/>
<path d="M215.076 118.519H222.484V111.111H215.076V118.519Z" fill="#A89E9B"/>
<path d="M215.076 111.111H222.484V103.703H215.076V111.111Z" fill="#C7C0BE"/>
<path d="M215.076 125.926H222.484V118.519H215.076V125.926Z" fill="#A89E9B"/>
<path d="M192.857 200H200.263V192.592H192.857V200Z" fill="#231F20"/>
<path d="M185.381 200H192.789V192.592H185.381V200Z" fill="#231F20"/>
<path d="M207.67 200H215.078V192.592H207.67V200Z" fill="#231F20"/>
<path d="M215.076 170.371H222.484V162.963H215.076V170.371Z" fill="#A89E9B"/>
<path d="M215.076 185.184H222.484V177.777H215.076V185.184Z" fill="#231F20"/>
<path d="M215.076 177.777H222.484V170.371H215.076V177.777Z" fill="#A89E9B"/>
<path d="M215.076 88.8887H222.484V81.4805H215.076V88.8887Z" fill="#231F20"/>
<path d="M215.076 200H222.484V192.591H215.076V200Z" fill="#231F20"/>
<path d="M222.486 177.777H229.892V170.371H222.486V177.777Z" fill="#A89E9B"/>
<path d="M222.486 170.371H229.892V162.963H222.486V170.371Z" fill="#A89E9B"/>
<path d="M222.486 192.591H229.892V185.184H222.486V192.591Z" fill="#443B38"/>
<path d="M222.486 185.184H229.892V177.777H222.486V185.184Z" fill="#655C59"/>
<path d="M222.486 200H229.892V192.591H222.486V200Z" fill="#231F20"/>
<path d="M222.486 162.963H229.892V155.555H222.486V162.963Z" fill="#231F20"/>
<path d="M222.486 140.74H229.892V133.332H222.486V140.74Z" fill="#231F20"/>
<path d="M222.486 133.334H229.892V125.926H222.486V133.334Z" fill="#231F20"/>
<path d="M222.486 125.926H229.892V118.52H222.486V125.926Z" fill="#231F20"/>
<path d="M222.486 155.555H229.892V148.146H222.486V155.555Z" fill="#231F20"/>
<path d="M222.486 22.2224H229.892V14.8164H222.486V22.2224Z" fill="#857C79"/>
<path d="M222.486 14.8164H229.892V7.4082H222.486V14.8164Z" fill="#231F20"/>
<path d="M222.486 29.6305H229.892V22.2224H222.486V29.6305Z" fill="#655C59"/>
<path d="M222.486 37.0368H229.892V29.6289H222.486V37.0368Z" fill="#655C59"/>
<path d="M222.486 44.445H229.892V37.0368H222.486V44.445Z" fill="#A89E9B"/>
<path d="M222.486 74.0739H229.892V66.666H222.486V74.0739Z" fill="#231F20"/>
<path d="M222.486 88.8884H229.892V81.4805H222.486V88.8884Z" fill="#655C59"/>
<path d="M222.486 103.703H229.892V96.2949H222.486V103.703Z" fill="#231F20"/>
<path d="M222.486 51.8514H229.892V44.445H222.486V51.8514Z" fill="#A89E9B"/>
<path d="M222.486 111.111H229.892V103.703H222.486V111.111Z" fill="#231F20"/>
<path d="M222.486 96.2949H229.892V88.8884H222.486V96.2949Z" fill="#A89E9B"/>
<path d="M222.486 59.2594H229.892V51.8514H222.486V59.2594Z" fill="#231F20"/>
<path d="M222.486 66.666H229.892V59.2594H222.486V66.666Z" fill="#231F20"/>
<path d="M222.486 118.52H229.892V111.111H222.486V118.52Z" fill="#231F20"/>
<path d="M222.486 81.4821H229.892V74.0739H222.486V81.4821Z" fill="#231F20"/>
<path d="M222.486 148.146H229.892V140.74H222.486V148.146Z" fill="#231F20"/>
<path d="M15.0762 118.519H22.4841V111.111L15.076 111.111L15.0762 118.519Z" fill="#231F20"/>
<path d="M15.076 111.111L22.4841 111.111V103.703H15.076V111.111Z" fill="#7D726F"/>
<path d="M15.076 74.0742L22.4841 74.0739V66.666H15.0762L15.076 74.0742Z" fill="#231F20"/>
<path d="M15.076 88.8887L22.4841 88.8884V81.4805H15.076V88.8887Z" fill="#A89E9B"/>
<path d="M15.076 96.2949L22.4841 96.2947V88.8884L15.076 88.8887V96.2949Z" fill="#A89E9B"/>
<path d="M15.076 103.703H22.4841V96.2947L15.076 96.2949V103.703Z" fill="#A89E9B"/>
<path d="M15.076 81.4821H22.4841V74.0739L15.076 74.0742V81.4821Z" fill="#C7C0BE"/>
<path d="M244.709 29.6305H252.117V22.2227H244.709V29.6305Z" fill="#655C59"/>
<path d="M244.709 22.2227H252.117V14.8164H244.709V22.2227Z" fill="#655C59"/>
<path d="M244.709 44.445H252.117V37.0371H244.709V44.445Z" fill="#A89E9B"/>
<path d="M244.709 14.8164H252.117V7.4082H244.709V14.8164Z" fill="#A89E9B"/>
<path d="M244.709 37.0371H252.117V29.6289H244.709V37.0371Z" fill="#655C59"/>
<path d="M244.709 51.8514H252.117V44.445H244.709V51.8514Z" fill="#A89E9B"/>
<path d="M244.709 7.4082H252.117V0H244.709V7.4082Z" fill="#231F20"/>
<path d="M244.709 81.4821H252.117V74.0742H244.709V81.4821Z" fill="#7D726F"/>
<path d="M244.709 66.6658H252.117V59.2598H244.709V66.6658Z" fill="#655C59"/>
<path d="M244.709 74.0742H252.117V66.6658H244.709V74.0742Z" fill="#A89E9B"/>
<path d="M244.709 59.2598H252.117V51.8514H244.709V59.2598Z" fill="#655C59"/>
<path d="M244.709 88.8884H252.117V81.4805H244.709V88.8884Z" fill="#231F20"/>
<path d="M237.299 81.4821H244.707V74.0742H237.299V81.4821Z" fill="#A89E9B"/>
<path d="M237.299 66.6658H244.707V59.2598H237.299V66.6658Z" fill="#655C59"/>
<path d="M237.299 88.8884H244.707V81.4805H237.299V88.8884Z" fill="#443B38"/>
<path d="M237.299 96.2947H244.707V88.8884H237.299V96.2947Z" fill="#231F20"/>
<path d="M237.299 74.0742H244.707V66.6658H237.299V74.0742Z" fill="#A89E9B"/>
<path d="M237.299 7.40789H244.707V0H237.299V7.40789Z" fill="#231F20"/>
<path d="M237.299 29.6305H244.707V22.2227H237.299V29.6305Z" fill="#655C59"/>
<path d="M237.299 44.445H244.707V37.0371H237.299V44.445Z" fill="#A89E9B"/>
<path d="M237.299 37.0371H244.707V29.6289H237.299V37.0371Z" fill="#655C59"/>
<path d="M237.299 51.8515H244.707L244.707 44.445H237.299L237.299 51.8515Z" fill="#A89E9B"/>
<path d="M237.299 22.2227H244.707V14.8164H237.299V22.2227Z" fill="#655C59"/>
<path d="M237.299 59.2598H244.707L244.707 51.8515H237.299L237.299 59.2598Z" fill="#655C59"/>
<path d="M237.299 14.8164H244.707L244.707 7.40789H237.299L237.299 14.8164Z" fill="#A89E9B"/>
<path d="M118.783 133.334H126.189V125.926H118.783V133.334Z" fill="#A89E9B"/>
<path d="M170.635 125.926H178.041V118.52H170.635V125.926Z" fill="#A89E9B"/>
<path d="M170.635 118.52H178.041V111.111H170.635V118.52Z" fill="#A89E9B"/>
<path d="M170.635 133.334H178.041V125.926H170.635V133.334Z" fill="#A89E9B"/>
<path d="M170.635 111.111H178.041V103.703H170.635V111.111Z" fill="#A89E9B"/>
<path d="M170.635 140.74H178.041V133.332H170.635V140.74Z" fill="#A89E9B"/>
<path d="M118.783 44.445H126.189V37.0371H118.783V44.445Z" fill="#231F20"/>
<path d="M170.635 103.703H178.041V96.2949H170.635V103.703Z" fill="#C7C0BE"/>
<path d="M170.635 96.2949H178.041V88.8887H170.635V96.2949Z" fill="#231F20"/>
<path d="M59.5215 66.6658H66.9275V59.2598H59.5215V66.6658Z" fill="#A89E9B"/>
<path d="M59.5215 88.8884H66.9275V81.4805H59.5215V88.8884Z" fill="#A89E9B"/>
<path d="M59.5215 96.2947H66.9275V88.8884H59.5215V96.2947Z" fill="#7D726F"/>
<path d="M59.5215 103.703H66.9275V96.2947H59.5215V103.703Z" fill="#ECEAE9"/>
<path d="M59.5215 81.4821H66.9275V74.0742H59.5215V81.4821Z" fill="#A89E9B"/>
<path d="M59.5215 74.0742H66.9275V66.6658H59.5215V74.0742Z" fill="#A89E9B"/>
<path d="M59.5215 111.111H66.9275V103.703H59.5215V111.111Z" fill="#ECEAE9"/>
<path d="M59.5215 125.926H66.9275V118.52H59.5215V125.926Z" fill="#231F20"/>
<path d="M59.5215 133.334H66.9275V125.926H59.5215V133.334Z" fill="#C9C3C1"/>
<path d="M59.5215 118.52H66.9275V111.111H59.5215V118.52Z" fill="#ECEAE9"/>
<path d="M170.635 148.146H178.041V140.74H170.635V148.146Z" fill="#A89E9B"/>
<path d="M96.5566 44.445H103.965V37.0371H96.5566V44.445Z" fill="#A89E9B"/>
<path d="M111.373 44.445H118.781V37.0371H111.373V44.445Z" fill="#A89E9B"/>
<path d="M89.1543 44.445H96.5603V37.0371H89.1543V44.445Z" fill="#A89E9B"/>
<path d="M59.5215 59.2598H66.9275V51.8516H59.5215V59.2598Z" fill="#A89E9B"/>
<path d="M103.967 44.445H111.375V37.0371H103.967V44.445Z" fill="#F2546B"/>
<path d="M81.7441 44.445H89.152V37.0371H81.7441V44.445Z" fill="#8D837F"/>
<path d="M59.5215 44.445H66.9275V37.0371H59.5215V44.445Z" fill="#8D837F"/>
<path d="M59.5215 51.8516H66.9275V44.445H59.5215V51.8516Z" fill="#A89E9B"/>
<path d="M74.3379 44.445H81.7458V37.0371H74.3379V44.445Z" fill="#A89E9B"/>
<path d="M66.9275 44.445H74.3356V37.0371H66.9275V44.445Z" fill="#A89E9B"/>
<path d="M66.9275 59.2598L74.3356 59.2594V51.8516H66.9275V59.2598Z" fill="#A89E9B"/>
<path d="M66.9275 51.8516H74.3356V44.445H66.9275V51.8516Z" fill="#A89E9B"/>
<path d="M81.7441 51.8514H89.152V44.445H81.7441V51.8514Z" fill="#A89E9B"/>
<path d="M74.3379 51.8514H81.7458V44.445H74.3379V51.8514Z" fill="#8D837F"/>
<path d="M66.9275 66.6658H74.3356V59.2594L66.9275 59.2598V66.6658Z" fill="#E7E3E2"/>
<path d="M66.9275 96.2947H74.3356V88.8887L66.9275 88.8884V96.2947Z" fill="#655C59"/>
<path d="M89.1543 51.8514H96.5603V44.445H89.1543V51.8514Z" fill="#A89E9B"/>
<path d="M66.9275 103.703H74.3356V96.2947H66.9275V103.703Z" fill="#ECEAE9"/>
<path d="M66.9275 81.4821H74.3356V74.0742H66.9275V81.4821Z" fill="#655C59"/>
<path d="M66.9275 74.0742H74.3356V66.6658H66.9275V74.0742Z" fill="#655C59"/>
<path d="M66.9275 88.8884L74.3356 88.8887V81.4805H66.9275V88.8884Z" fill="#655C59"/>
<path d="M170.635 155.554H178.041V148.146H170.635V155.554Z" fill="#ECEAE9"/>
<path d="M96.5566 51.8514H103.965V44.445H96.5566V51.8514Z" fill="#A89E9B"/>
<path d="M103.967 51.8515H111.375L111.375 44.445H103.967L103.967 51.8515Z" fill="#A89E9B"/>
<path d="M111.373 51.8514H118.781V44.445H111.373V51.8514Z" fill="#A89E9B"/>
<path d="M118.783 51.8514H126.189V44.445H118.783V51.8514Z" fill="#231F20"/>
<path d="M126.189 155.554H133.597V148.146H126.189V155.554Z" fill="#A89E9B"/>
<path d="M133.596 155.555H141.004V148.147H133.596V155.555Z" fill="#A89E9B"/>
<path d="M96.5566 155.554H103.965V148.148H96.5566V155.554Z" fill="#847976"/>
<path d="M103.967 148.148V155.555H111.375V148.147L103.967 148.148Z" fill="#847976"/>
<path d="M111.373 155.554H118.781V148.146H111.373V155.554Z" fill="#231F20"/>
<path d="M66.9275 111.111H74.3356V103.703H66.9275V111.111Z" fill="#ECEAE9"/>
<path d="M163.225 155.554H170.632V148.146H163.225V155.554Z" fill="#ECEAE9"/>
<path d="M141.006 155.554H148.414V148.146H141.006V155.554Z" fill="#231F20"/>
<path d="M155.818 155.555H163.226V148.147H155.818V155.555Z" fill="#ECEAE9"/>
<path d="M148.412 155.554L155.818 155.555V148.147L148.412 148.146V155.554Z" fill="#ECEAE9"/>
<path d="M118.783 155.554H126.189V148.146H118.783V155.554Z" fill="#7D726F"/>
<path d="M66.9275 125.926H74.3356V118.52H66.9275V125.926Z" fill="#231F20"/>
<path d="M66.9275 133.334H74.3356V125.926H66.9275V133.334Z" fill="#C9C3C1"/>
<path d="M66.9275 118.52H74.3356V111.111H66.9275V118.52Z" fill="#ECEAE9"/>
<path d="M66.9277 140.74H74.3356V133.332H66.9277V140.74Z" fill="#231F20"/>
<path d="M74.3379 155.554H81.7458V148.148H74.3379V155.554Z" fill="#231F20"/>
<path d="M81.7441 155.554H89.152V148.148H81.7441V155.554Z" fill="#655C59"/>
<path d="M59.5215 140.74H66.9277V133.332H59.5215V140.74Z" fill="#231F20"/>
<path d="M89.1543 155.554H96.5603V148.148H89.1543V155.554Z" fill="#443B38"/>
<path d="M52.1152 66.6658H59.5231V59.2598H52.1152V66.6658Z" fill="#E7E3E2"/>
<path d="M52.1152 37.0368H59.5231V29.6289H52.1152V37.0368Z" fill="#A89E9B"/>
<path d="M52.1152 74.0739H59.5231V66.6658H52.1152V74.0739Z" fill="#655C59"/>
<path d="M52.1152 51.8515H59.5231V44.4455H52.1152V51.8515Z" fill="#8D837F"/>
<path d="M52.1152 44.4455H59.5231L59.5231 37.0368H52.1152L52.1152 44.4455Z" fill="#231F20"/>
<path d="M52.1152 59.2598H59.5231L59.5231 51.8515H52.1152L52.1152 59.2598Z" fill="#A89E9B"/>
<path d="M52.1152 81.4821H59.5231V74.0739H52.1152V81.4821Z" fill="#655C59"/>
<path d="M52.1152 103.703H59.5215V96.2947L52.1152 96.2949V103.703Z" fill="#934226"/>
<path d="M52.1152 96.2949L59.5231 96.2947V88.8887H52.1152V96.2949Z" fill="#655C59"/>
<path d="M52.1152 88.8887H59.5231V81.4805H52.1152V88.8887Z" fill="#655C59"/>
<path d="M118.783 37.0371H126.189V29.6289H118.783V37.0371Z" fill="#231F20"/>
<path d="M96.5566 37.0371H103.965V29.6289H96.5566V37.0371Z" fill="#F2546B"/>
<path d="M111.373 37.0371H118.781V29.6289H111.373V37.0371Z" fill="#A89E9B"/>
<path d="M103.967 37.0371H111.375V29.6289H103.967V37.0371Z" fill="#F2546B"/>
<path d="M52.1152 111.111H59.5231V103.703L52.1152 103.703L52.1152 111.111Z" fill="#ECEAE9"/>
<path d="M81.7441 37.0371H89.152V29.6289H81.7441V37.0371Z" fill="#231F20"/>
<path d="M74.3379 37.0371H81.7458V29.6289H74.3379V37.0371Z" fill="#231F20"/>
<path d="M89.1543 37.0371H96.5603V29.6289H89.1543V37.0371Z" fill="#A89E9B"/>
<path d="M59.5215 37.0371H66.9275V29.6289H59.5215V37.0371Z" fill="#231F20"/>
<path d="M66.9275 37.0371H74.3356V29.6289H66.9275V37.0371Z" fill="#231F20"/>
<path d="M74.3379 170.371H81.7458V162.963H74.3379V170.371Z" fill="#443B38"/>
<path d="M81.7441 170.371H89.152V162.963H81.7441V170.371Z" fill="#231F20"/>
<path d="M118.783 170.371H126.189V162.963H118.783V170.371Z" fill="#231F20"/>
<path d="M133.596 170.371H141.004V162.963H133.596V170.371Z" fill="#231F20"/>
<path d="M126.189 170.371H133.597V162.963H126.189V170.371Z" fill="#A89E9B"/>
<path d="M52.1152 140.74H59.5231V133.332H52.1152V140.74Z" fill="#231F20"/>
<path d="M52.1152 133.334H59.5231V125.926H52.1152V133.334Z" fill="#C9C3C1"/>
<path d="M52.1152 125.926H59.5231V118.52H52.1152V125.926Z" fill="#231F20"/>
<path d="M66.9277 170.371H74.3356V162.963H66.9277V170.371Z" fill="#231F20"/>
<path d="M52.1152 118.52H59.5231L59.5231 111.111H52.1152L52.1152 118.52Z" fill="#ECEAE9"/>
<path d="M163.225 162.963H170.632V155.554H163.225V162.963Z" fill="#231F20"/>
<path d="M118.783 162.963H126.189L126.189 155.554H118.783V162.963Z" fill="#231F20"/>
<path d="M141.006 162.963H148.414V155.554H141.006V162.963Z" fill="#231F20"/>
<path d="M155.818 162.962H163.226V155.555H155.818V162.962Z" fill="#231F20"/>
<path d="M126.189 162.963H133.597V155.554H126.189L126.189 162.963Z" fill="#A89E9B"/>
<path d="M133.596 162.963H141.004L141.004 155.555H133.596L133.596 162.963Z" fill="#7D726F"/>
<path d="M148.412 162.963L155.818 162.962V155.555L148.412 155.554V162.963Z" fill="#231F20"/>
<path d="M178.041 162.963H185.449V155.555L178.041 155.554L178.041 162.963Z" fill="#231F20"/>
<path d="M178.041 155.554L185.449 155.555V148.146L178.041 148.146V155.554Z" fill="#ECEAE9"/>
<path d="M170.635 162.963H178.041L178.041 155.554H170.635V162.963Z" fill="#231F20"/>
<path d="M178.041 148.146L185.449 148.146V140.74L178.041 140.74V148.146Z" fill="#A89E9B"/>
<path d="M74.3379 162.963H81.7458V155.554H74.3379V162.963Z" fill="#655C59"/>
<path d="M66.9277 162.963H74.3356V155.555H66.9277V162.963Z" fill="#231F20"/>
<path d="M111.373 162.963H118.781V155.554H111.373V162.963Z" fill="#231F20"/>
<path d="M81.7441 162.963H89.152V155.554H81.7441V162.963Z" fill="#443B38"/>
<path d="M103.967 155.555V162.962H111.375V155.555H103.967Z" fill="#231F20"/>
<path d="M96.5566 162.963H103.965V155.554H96.5566V162.963Z" fill="#231F20"/>
<path d="M89.1543 162.963H96.5603V155.554H89.1543V162.963Z" fill="#231F20"/>
<path d="M178.041 140.74L185.449 140.74V133.332H178.041V140.74Z" fill="#A89E9B"/>
<path d="M178.041 125.926H185.449V118.52H178.041V125.926Z" fill="#8D837F"/>
<path d="M178.041 118.52H185.449V111.111H178.041V118.52Z" fill="#A89E9B"/>
<path d="M178.041 133.334H185.449V125.926H178.041V133.334Z" fill="#A89E9B"/>
<path d="M178.041 111.111H185.449V103.703H178.041V111.111Z" fill="#A89E9B"/>
<path d="M178.041 103.703H185.449V96.2949H178.041V103.703Z" fill="#A89E9B"/>
<path d="M178.041 88.8887L185.449 88.8884V81.4805H178.041L178.041 88.8887Z" fill="#231F20"/>
<path d="M178.041 96.2949H185.449V88.8884L178.041 88.8887V96.2949Z" fill="#C7C0BE"/>
<path d="M126.189 111.111H133.597V103.703H126.189V111.111Z" fill="#231F20"/>
<path d="M89.1543 74.0739H96.5603V66.666H89.1543V74.0739Z" fill="#E7E3E2"/>
<path d="M89.1543 81.4821H96.5603V74.0739H89.1543V81.4821Z" fill="#655C59"/>
<path d="M89.1543 125.926H96.5603V118.52H89.1543V125.926Z" fill="#ECEAE9"/>
<path d="M96.5566 74.0739H103.965V66.666H96.5566V74.0739Z" fill="#A89E9B"/>
<path d="M103.967 74.0739H111.375V66.666H103.967V74.0739Z" fill="#A89E9B"/>
<path d="M89.1543 88.8884H96.5603V81.4805H89.1543V88.8884Z" fill="#655C59"/>
<path d="M89.1543 96.2947H96.5603V88.8884H89.1543V96.2947Z" fill="#655C59"/>
<path d="M89.1543 111.111H96.5603V103.703H89.1543V111.111Z" fill="#A89E9B"/>
<path d="M89.1543 118.52H96.5603V111.111H89.1543V118.52Z" fill="#ECEAE9"/>
<path d="M89.1543 103.703H96.5603V96.2947H89.1543V103.703Z" fill="#655C59"/>
<path d="M111.373 74.0739H118.781V66.666H111.373V74.0739Z" fill="#A89E9B"/>
<path d="M141.006 96.2947H148.414V88.8887H141.006V96.2947Z" fill="#231F20"/>
<path d="M118.783 74.0739H126.189V66.666H118.783V74.0739Z" fill="#A89E9B"/>
<path d="M141.006 103.703H148.414V96.2947H141.006V103.703Z" fill="#C7C0BE"/>
<path d="M141.006 118.519H148.414V111.111H141.006V118.519Z" fill="#A89E9B"/>
<path d="M141.006 111.111H148.414V103.703H141.006V111.111Z" fill="#A89E9B"/>
<path d="M126.189 74.0739H133.597V66.666H126.189V74.0739Z" fill="#C7C0BE"/>
<path d="M133.596 74.0739H141.004V66.666H133.596V74.0739Z" fill="#231F20"/>
<path d="M148.412 111.111H155.818V103.703H148.412V111.111Z" fill="#A89E9B"/>
<path d="M148.412 96.2947H155.818V88.8887H148.412V96.2947Z" fill="#231F20"/>
<path d="M148.412 103.703H155.818V96.2947H148.412V103.703Z" fill="#C7C0BE"/>
<path d="M141.006 125.926H148.414V118.519H141.006V125.926Z" fill="#A89E9B"/>
<path d="M96.5566 125.926H103.965V118.52H96.5566V125.926Z" fill="#A89E9B"/>
<path d="M111.373 133.334H118.781V125.926H111.373V133.334Z" fill="#7D726F"/>
<path d="M103.967 125.926V133.334H111.375V125.926H103.967Z" fill="#231F20"/>
<path d="M96.5566 133.334H103.965V125.926H96.5566V133.334Z" fill="#7D726F"/>
<path d="M148.412 125.926H155.818V118.52H148.412V125.926Z" fill="#A89E9B"/>
<path d="M141.006 133.334H148.414V125.926H141.006V133.334Z" fill="#A89E9B"/>
<path d="M148.412 133.334H155.818V125.926H148.412V133.334Z" fill="#A89E9B"/>
<path d="M133.596 133.334H141.004V125.926H133.596V133.334Z" fill="#8D837F"/>
<path d="M126.189 133.334H133.597V125.926H126.189V133.334Z" fill="#A89E9B"/>
<path d="M133.596 125.926H141.004V118.52H133.596V125.926Z" fill="#A89E9B"/>
<path d="M103.967 103.703H111.375V96.2951H103.967V103.703Z" fill="#E7E3E2"/>
<path d="M103.967 96.2951H111.375L111.375 88.8887H103.967L103.967 96.2951Z" fill="#E7E3E2"/>
<path d="M126.189 66.666H133.597V59.2598H126.189L126.189 66.666Z" fill="#231F20"/>
<path d="M103.967 88.8887H111.375V81.4805H103.967V88.8887Z" fill="#E7E3E2"/>
<path d="M103.967 111.111H111.375V103.703H103.967V111.111Z" fill="#A89E9B"/>
<path d="M118.783 88.8884H126.189V81.4805H118.783V88.8884Z" fill="#A89E9B"/>
<path d="M126.189 118.519H133.597V111.111H126.189V118.519Z" fill="#7D726F"/>
<path d="M133.596 118.52H141.004V111.111H133.596V118.52Z" fill="#A89E9B"/>
<path d="M118.783 118.519H126.189V111.111L118.783 111.111V118.519Z" fill="#231F20"/>
<path d="M111.373 118.519H118.781V111.111H111.373V118.519Z" fill="#7D726F"/>
<path d="M111.373 111.111H118.781V103.703H111.373V111.111Z" fill="#A89E9B"/>
<path d="M118.783 103.703L126.189 103.703L126.189 96.2949H118.783V103.703Z" fill="#A89E9B"/>
<path d="M111.373 103.703H118.781V96.2949H111.373V103.703Z" fill="#A89E9B"/>
<path d="M111.373 96.2949H118.781V88.8887H111.373V96.2949Z" fill="#A89E9B"/>
<path d="M118.783 96.2949H126.189V88.8884H118.783V96.2949Z" fill="#A89E9B"/>
<path d="M126.189 88.8884H133.597V81.4805H126.189V88.8884Z" fill="#A89E9B"/>
<path d="M126.189 103.703H133.597V96.2949H126.189L126.189 103.703Z" fill="#7D726F"/>
<path d="M118.783 111.111L126.189 111.111V103.703L118.783 103.703V111.111Z" fill="#7D726F"/>
<path d="M126.189 96.2949H133.597V88.8884H126.189V96.2949Z" fill="#A89E9B"/>
<path d="M111.373 88.8887H118.781V81.4805H111.373V88.8887Z" fill="#A89E9B"/>
<path d="M96.5566 111.111H103.965V103.703H96.5566V111.111Z" fill="#A89E9B"/>
<path d="M103.967 118.519H111.375L111.375 111.111H103.967L103.967 118.519Z" fill="#A89E9B"/>
<path d="M96.5566 118.52H103.965V111.111H96.5566V118.52Z" fill="#A89E9B"/>
<path d="M96.5566 103.703H103.965V96.2949H96.5566V103.703Z" fill="#655C59"/>
<path d="M96.5566 96.2949H103.965V88.8887H96.5566V96.2949Z" fill="#655C59"/>
<path d="M103.967 125.926H111.375V118.519H103.967V125.926Z" fill="#7D726F"/>
<path d="M118.783 125.926H126.189L126.189 118.519H118.783V125.926Z" fill="#7D726F"/>
<path d="M126.189 125.926H133.597V118.519H126.189L126.189 125.926Z" fill="#A89E9B"/>
<path d="M96.5566 88.8887H103.965V81.4805H96.5566V88.8887Z" fill="#655C59"/>
<path d="M111.373 125.926H118.781V118.519H111.373V125.926Z" fill="#231F20"/>
<path d="M118.783 81.4821H126.189V74.0739H118.783V81.4821Z" fill="#A89E9B"/>
<path d="M133.596 81.4821H141.004V74.0739H133.596V81.4821Z" fill="#231F20"/>
<path d="M133.596 96.2947H141.004V88.8887H133.596V96.2947Z" fill="#231F20"/>
<path d="M133.596 88.8887H141.004V81.4805H133.596V88.8887Z" fill="#231F20"/>
<path d="M133.596 103.703H141.004L141.004 96.2947H133.596L133.596 103.703Z" fill="#231F20"/>
<path d="M111.373 81.4821H118.781V74.0739H111.373V81.4821Z" fill="#A89E9B"/>
<path d="M103.967 81.4821H111.375V74.0739H103.967V81.4821Z" fill="#A89E9B"/>
<path d="M96.5566 81.4821H103.965V74.0739H96.5566V81.4821Z" fill="#E7E3E2"/>
<path d="M126.189 81.4821H133.597V74.0739H126.189V81.4821Z" fill="#A89E9B"/>
<path d="M133.596 111.111H141.004L141.004 103.703H133.596L133.596 111.111Z" fill="#7D726F"/>
<path d="M148.412 118.52H155.818V111.111H148.412V118.52Z" fill="#8D837F"/>
<path d="M74.3379 125.926H81.7458V118.52H74.3379V125.926Z" fill="#ECEAE9"/>
<path d="M74.3379 118.52H81.7458V111.111H74.3379V118.52Z" fill="#231F20"/>
<path d="M74.3379 133.334H81.7458V125.926H74.3379V133.334Z" fill="#C9C3C1"/>
<path d="M74.3379 111.111H81.7458V103.703H74.3379V111.111Z" fill="#ECEAE9"/>
<path d="M74.3379 103.703H81.7458V96.2949H74.3379V103.703Z" fill="#ECEAE9"/>
<path d="M81.7441 148.148H89.152V140.74H81.7441V148.148Z" fill="#231F20"/>
<path d="M74.3379 140.74H81.7458V133.332H74.3379V140.74Z" fill="#231F20"/>
<path d="M74.3379 96.2949H81.7458V88.8887H74.3379V96.2949Z" fill="#655C59"/>
<path d="M89.1543 148.148H96.5603V140.74H89.1543V148.148Z" fill="#231F20"/>
<path d="M81.7441 140.74H89.152V133.332H81.7441V140.74Z" fill="#231F20"/>
<path d="M89.1543 59.2594H96.5603V51.8514H89.1543V59.2594Z" fill="#A89E9B"/>
<path d="M96.5566 148.148H103.965V140.74H96.5566V148.148Z" fill="#7D726F"/>
<path d="M96.5566 59.2594H103.965V51.8514H96.5566V59.2594Z" fill="#A89E9B"/>
<path d="M103.967 59.2594H111.375V51.8515H103.967V59.2594Z" fill="#A89E9B"/>
<path d="M81.7441 59.2594H89.152V51.8514H81.7441V59.2594Z" fill="#A89E9B"/>
<path d="M74.3379 66.6658H81.7458V59.2598H74.3379V66.6658Z" fill="#E7E3E2"/>
<path d="M74.3379 59.2598H81.7458V51.8514H74.3379V59.2598Z" fill="#A89E9B"/>
<path d="M74.3379 74.0739H81.7458V66.6658H74.3379V74.0739Z" fill="#655C59"/>
<path d="M74.3379 81.4821H81.7458V74.0739H74.3379V81.4821Z" fill="#231F20"/>
<path d="M74.3379 88.8887H81.7458V81.4805H74.3379V88.8887Z" fill="#231F20"/>
<path d="M103.967 140.74L103.967 148.148L111.375 148.147L111.375 140.74H103.967Z" fill="#7D726F"/>
<path d="M163.225 103.703H170.632V96.2949H163.225V103.703Z" fill="#C7C0BE"/>
<path d="M163.225 96.2949H170.632V88.8887H163.225V96.2949Z" fill="#231F20"/>
<path d="M163.225 111.111H170.632V103.703H163.225V111.111Z" fill="#A89E9B"/>
<path d="M163.225 118.519H170.632V111.111H163.225V118.519Z" fill="#A89E9B"/>
<path d="M111.373 59.2594H118.781V51.8514H111.373V59.2594Z" fill="#A89E9B"/>
<path d="M163.225 133.334H170.632V125.926H163.225V133.334Z" fill="#A89E9B"/>
<path d="M163.225 125.926H170.632V118.519H163.225V125.926Z" fill="#A89E9B"/>
<path d="M126.189 148.146H133.597V140.74H126.189V148.146Z" fill="#A89E9B"/>
<path d="M118.783 148.146H126.189V140.74H118.783V148.146Z" fill="#A89E9B"/>
<path d="M133.596 148.147H141.004L141.004 140.74H133.596L133.596 148.147Z" fill="#A89E9B"/>
<path d="M163.225 140.74H170.632V133.332H163.225V140.74Z" fill="#A89E9B"/>
<path d="M111.373 148.146H118.781V140.74H111.373V148.146Z" fill="#231F20"/>
<path d="M155.818 148.147H163.226L163.226 140.74H155.818L155.818 148.147Z" fill="#A89E9B"/>
<path d="M163.225 148.146H170.632V140.74H163.225V148.146Z" fill="#A89E9B"/>
<path d="M141.006 148.146H148.414V140.74H141.006V148.146Z" fill="#A89E9B"/>
<path d="M148.412 148.146L155.818 148.147L155.818 140.74H148.412V148.146Z" fill="#A89E9B"/>
<path d="M81.7441 125.926H89.152V118.52H81.7441V125.926Z" fill="#ECEAE9"/>
<path d="M89.1543 133.334H96.5603V125.926H89.1543V133.334Z" fill="#C9C3C1"/>
<path d="M118.783 59.2594L126.189 59.2598L126.189 51.8514H118.783V59.2594Z" fill="#231F20"/>
<path d="M118.783 66.666H126.189L126.189 59.2598L118.783 59.2594V66.666Z" fill="#C7C0BE"/>
<path d="M81.7441 118.52H89.152V111.111H81.7441V118.52Z" fill="#ECEAE9"/>
<path d="M81.7441 111.111H89.152V103.703H81.7441V111.111Z" fill="#ECEAE9"/>
<path d="M96.5566 140.74H103.965V133.332H96.5566V140.74Z" fill="#231F20"/>
<path d="M103.967 133.332V140.74H111.375V133.332H103.967Z" fill="#231F20"/>
<path d="M111.373 140.74H118.781V133.332H111.373V140.74Z" fill="#7D726F"/>
<path d="M89.1543 140.74H96.5603V133.332H89.1543V140.74Z" fill="#231F20"/>
<path d="M81.7441 103.703H89.152V96.2949H81.7441V103.703Z" fill="#655C59"/>
<path d="M81.7441 88.8884H89.152V81.4805H81.7441V88.8884Z" fill="#655C59"/>
<path d="M81.7441 96.2949H89.152V88.8884H81.7441V96.2949Z" fill="#655C59"/>
<path d="M96.5566 66.666H103.965V59.2594H96.5566V66.666Z" fill="#A89E9B"/>
<path d="M103.967 66.666H111.375L111.375 59.2594H103.967L103.967 66.666Z" fill="#A89E9B"/>
<path d="M111.373 66.666H118.781V59.2594H111.373V66.666Z" fill="#A89E9B"/>
<path d="M89.1543 66.666H96.5603V59.2594H89.1543V66.666Z" fill="#A89E9B"/>
<path d="M81.7441 81.4821H89.152V74.0742H81.7441V81.4821Z" fill="#655C59"/>
<path d="M118.783 140.74H126.189L126.189 133.332H118.783V140.74Z" fill="#A89E9B"/>
<path d="M81.7441 66.6658H89.152V59.2594H81.7441V66.6658Z" fill="#E7E3E2"/>
<path d="M81.7441 74.0742H89.152V66.6658H81.7441V74.0742Z" fill="#655C59"/>
<path d="M81.7441 133.334H89.152V125.926H81.7441V133.334Z" fill="#C9C3C1"/>
<path d="M126.189 140.74H133.597V133.332H126.189L126.189 140.74Z" fill="#A89E9B"/>
<path d="M155.818 96.2947H163.226V88.8887H155.818V96.2947Z" fill="#231F20"/>
<path d="M148.412 140.74H155.818L155.818 133.332H148.412V140.74Z" fill="#A89E9B"/>
<path d="M141.006 140.74H148.414V133.332H141.006V140.74Z" fill="#8D837F"/>
<path d="M155.818 140.74H163.226V133.332H155.818L155.818 140.74Z" fill="#A89E9B"/>
<path d="M155.818 103.703L163.226 103.703L163.226 96.2947H155.818V103.703Z" fill="#C7C0BE"/>
<path d="M133.596 140.74H141.004V133.332H133.596V140.74Z" fill="#A89E9B"/>
<path d="M155.818 118.52L163.226 118.519V111.111L155.818 111.111V118.52Z" fill="#A89E9B"/>
<path d="M155.818 133.334H163.226V125.926L155.818 125.926V133.334Z" fill="#A89E9B"/>
<path d="M155.818 111.111L163.226 111.111L163.226 103.703L155.818 103.703V111.111Z" fill="#A89E9B"/>
<path d="M155.818 125.926L163.226 125.926V118.519L155.818 118.52V125.926Z" fill="#8D837F"/>
<path d="M29.8926 111.111H37.2986V103.703H29.8926V111.111Z" fill="#ECEAE9"/>
<path d="M29.8926 96.2947H37.2986V88.8887H29.8926V96.2947Z" fill="#655C59"/>
<path d="M29.8926 88.8887H37.2986V81.4805H29.8926V88.8887Z" fill="#655C59"/>
<path d="M29.8926 81.4821H37.2986V74.0742H29.8926V81.4821Z" fill="#655C59"/>
<path d="M29.8926 133.334H37.2986V125.926H29.8926V133.334Z" fill="#231F20"/>
<path d="M29.8926 74.0742L37.3005 74.0739V66.666H29.8926V74.0742Z" fill="#E7E3E2"/>
<path d="M29.8926 118.519H37.2986V111.111H29.8926V118.519Z" fill="#ECEAE9"/>
<path d="M29.8926 125.926H37.2986V118.519H29.8926V125.926Z" fill="#C9C3C1"/>
<path d="M29.8926 103.703H37.2986V96.2947H29.8926V103.703Z" fill="#655C59"/>
<path d="M29.8926 22.2224H37.2986V14.8164H29.8926V22.2224Z" fill="#231F20"/>
<path d="M37.2986 14.8164L44.7067 14.8161V7.4082H37.2988L37.2986 14.8164Z" fill="#231F20"/>
<path d="M44.7051 14.8161H52.113V7.4082H44.7051V14.8161Z" fill="#231F20"/>
<path d="M29.8926 66.666H37.3005V59.2598H29.8926V66.666Z" fill="#A89E9B"/>
<path d="M29.8926 59.2598H37.3005V51.8516H29.8926V59.2598Z" fill="#A89E9B"/>
<path d="M29.8926 51.8516H37.3005V44.4453H29.8926V51.8516Z" fill="#A89E9B"/>
<path d="M29.8926 37.0368H37.2986V29.6289H29.8926V37.0368Z" fill="#A89E9B"/>
<path d="M29.8926 44.4453L37.2986 44.445V37.0368H29.8926V44.4453Z" fill="#A89E9B"/>
<path d="M126.189 192.592H133.597V185.184H126.189L126.189 192.592Z" fill="#443B38"/>
<path d="M111.373 192.592H118.781V185.184H111.373V192.592Z" fill="#231F20"/>
<path d="M133.596 192.591H141.004V185.184H133.596V192.591Z" fill="#231F20"/>
<path d="M118.783 192.592H126.189L126.189 185.184H118.783V192.592Z" fill="#443B38"/>
<path d="M29.8926 29.6305H37.2986V22.2224H29.8926V29.6305Z" fill="#C7C0BE"/>
<path d="M200.26 103.703H207.668V96.2949H200.26V103.703Z" fill="#A89E9B"/>
<path d="M200.26 88.8884H207.668V81.4805H200.26V88.8884Z" fill="#231F20"/>
<path d="M200.26 96.2949H207.668V88.8884H200.26V96.2949Z" fill="#C7C0BE"/>
<path d="M200.26 162.963H207.668V155.555H200.26V162.963Z" fill="#7D726F"/>
<path d="M200.26 155.555H207.668V148.146H200.26V155.555Z" fill="#A89E9B"/>
<path d="M200.26 148.146H207.668V140.74H200.26V148.146Z" fill="#A89E9B"/>
<path d="M200.26 170.371H207.668V162.963H200.26V170.371Z" fill="#231F20"/>
<path d="M200.26 118.519H207.668V111.111H200.26V118.519Z" fill="#8D837F"/>
<path d="M200.26 125.926H207.668V118.519H200.26V125.926Z" fill="#A89E9B"/>
<path d="M200.26 140.74H207.668V133.332H200.26V140.74Z" fill="#A89E9B"/>
<path d="M200.26 111.111H207.668V103.703H200.26V111.111Z" fill="#A89E9B"/>
<path d="M96.5566 14.8161H103.965V7.4082H96.5566V14.8161Z" fill="#231F20"/>
<path d="M103.967 14.8161H111.375V7.4082H103.967V14.8161Z" fill="#231F20"/>
<path d="M22.4863 29.6305H29.8942V22.2227H22.4863V29.6305Z" fill="#231F20"/>
<path d="M22.4863 37.0368H29.8942V29.6289H22.4863V37.0368Z" fill="#231F20"/>
<path d="M200.26 177.777H207.668V170.371H200.26V177.777Z" fill="#231F20"/>
<path d="M22.4863 118.519H29.8942V111.111H22.4863V118.519Z" fill="#7D726F"/>
<path d="M22.4863 125.926H29.8942V118.519H22.4863V125.926Z" fill="#231F20"/>
<path d="M22.4863 44.445H29.8942V37.0368H22.4863V44.445Z" fill="#231F20"/>
<path d="M22.4863 74.0739H29.8942V66.666H22.4863V74.0739Z" fill="#C7C0BE"/>
<path d="M22.4863 66.666H29.8942V59.2598H22.4863V66.666Z" fill="#231F20"/>
<path d="M22.4863 59.2598H29.8942V51.8516H22.4863V59.2598Z" fill="#231F20"/>
<path d="M22.4863 51.8516H29.8942V44.445H22.4863V51.8516Z" fill="#231F20"/>
<path d="M22.4863 81.4821H29.8942V74.0739H22.4863V81.4821Z" fill="#E7E3E2"/>
<path d="M22.4863 96.2947H29.8942V88.8887H22.4863V96.2947Z" fill="#E7E3E2"/>
<path d="M22.4863 111.111H29.8942V103.703H22.4863V111.111Z" fill="#A89E9B"/>
<path d="M22.4863 103.703H29.8942V96.2947H22.4863V103.703Z" fill="#E7E3E2"/>
<path d="M22.4863 88.8887H29.8942V81.4805H22.4863V88.8887Z" fill="#E7E3E2"/>
<path d="M207.67 148.146H215.078V140.74H207.67V148.146Z" fill="#A89E9B"/>
<path d="M207.67 140.74H215.078V133.332H207.67V140.74Z" fill="#A89E9B"/>
<path d="M207.67 155.555H215.078L215.078 148.146H207.67L207.67 155.555Z" fill="#A89E9B"/>
<path d="M207.67 170.371H215.078V162.963H207.67V170.371Z" fill="#7D726F"/>
<path d="M207.67 162.963H215.078L215.078 155.555H207.67L207.67 162.963Z" fill="#A89E9B"/>
<path d="M207.67 177.777H215.078V170.371H207.67V177.777Z" fill="#231F20"/>
<path d="M207.67 103.703H215.078V96.2951H207.67V103.703Z" fill="#C7C0BE"/>
<path d="M207.67 118.519H215.078V111.111H207.67V118.519Z" fill="#A89E9B"/>
<path d="M207.67 133.334H215.078V125.926H207.67V133.334Z" fill="#A89E9B"/>
<path d="M207.67 125.926H215.078V118.519H207.67V125.926Z" fill="#A89E9B"/>
<path d="M207.67 111.111H215.078L215.078 103.703H207.67L207.67 111.111Z" fill="#A89E9B"/>
<path d="M178.041 192.591H185.449V185.184H178.041V192.591Z" fill="#231F20"/>
<path d="M207.67 192.592H215.078V185.184H207.67V192.592Z" fill="#231F20"/>
<path d="M200.26 192.591H207.668V185.184H200.26V192.591Z" fill="#231F20"/>
<path d="M192.857 192.592H200.263V185.184H192.857V192.592Z" fill="#443B38"/>
<path d="M185.448 192.591H192.855V185.184H185.448V192.591Z" fill="#443B38"/>
<path d="M207.67 96.2951H215.078L215.078 88.8887H207.67L207.67 96.2951Z" fill="#231F20"/>
<path d="M200.26 133.334H207.668V125.926H200.26V133.334Z" fill="#A89E9B"/>
<path d="M44.7051 111.111H52.113V103.703H44.7051V111.111Z" fill="#ECEAE9"/>
<path d="M44.7051 133.334H52.113V125.926H44.7051V133.334Z" fill="#C9C3C1"/>
<path d="M44.7051 125.926H52.113V118.52H44.7051V125.926Z" fill="#ECEAE9"/>
<path d="M44.7051 118.52H52.113V111.111H44.7051V118.52Z" fill="#ECEAE9"/>
<path d="M44.7051 140.74H52.113V133.332H44.7051V140.74Z" fill="#231F20"/>
<path d="M44.7051 59.2594H52.113V51.8516H44.7051V59.2594Z" fill="#A89E9B"/>
<path d="M44.7051 51.8516H52.113V44.4453H44.7051V51.8516Z" fill="#A89E9B"/>
<path d="M44.7051 66.6658H52.113V59.2594H44.7051V66.6658Z" fill="#E7E3E2"/>
<path d="M44.7051 37.0368H52.113V29.6289H44.7051V37.0368Z" fill="#F2546B"/>
<path d="M44.7051 44.4453H52.113V37.0368H44.7051V44.4453Z" fill="#A89E9B"/>
<path d="M44.7051 96.2947H52.113V88.8887H44.7051V96.2947Z" fill="#655C59"/>
<path d="M44.7051 88.8887H52.113V81.4805H44.7051V88.8887Z" fill="#231F20"/>
<path d="M44.7051 74.0739H52.113V66.6658H44.7051V74.0739Z" fill="#655C59"/>
<path d="M44.7051 103.703H52.113V96.2947H44.7051V103.703Z" fill="#934226"/>
<path d="M44.7051 81.4821H52.113V74.0739H44.7051V81.4821Z" fill="#231F20"/>
<path d="M44.709 29.6305H52.1169V22.2227H44.709V29.6305Z" fill="#F2546B"/>
<path d="M192.857 170.371H200.263V162.963H192.857V170.371Z" fill="#6D6360"/>
<path d="M133.596 177.777H141.004V170.371H133.596V177.777Z" fill="#231F20"/>
<path d="M192.857 177.777H200.263V170.371H192.857V177.777Z" fill="#7D726F"/>
<path d="M185.448 177.777H192.855V170.371H185.448V177.777Z" fill="#7D726F"/>
<path d="M178.041 177.777H185.449V170.371H178.041V177.777Z" fill="#231F20"/>
<path d="M81.7441 177.777H89.152V170.371H81.7441V177.777Z" fill="#231F20"/>
<path d="M74.3379 177.777H81.7458V170.371H74.3379V177.777Z" fill="#231F20"/>
<path d="M118.783 177.777H126.189V170.371H118.783V177.777Z" fill="#231F20"/>
<path d="M126.189 177.777H133.597V170.371H126.189V177.777Z" fill="#655C59"/>
<path d="M185.448 88.8884H192.855V81.4805H185.448V88.8884Z" fill="#231F20"/>
<path d="M192.857 162.963H200.263V155.555H192.857V162.963Z" fill="#231F20"/>
<path d="M185.447 103.703H192.855V96.2951H185.447V103.703Z" fill="#A89E9B"/>
<path d="M52.1152 29.6305H59.5231V22.2227H52.1152V29.6305Z" fill="#A89E9B"/>
<path d="M185.447 111.111H192.855V103.703H185.447V111.111Z" fill="#A89E9B"/>
<path d="M185.448 125.926H192.855V118.52H185.448V125.926Z" fill="#A89E9B"/>
<path d="M185.448 118.52H192.855L192.855 111.111H185.447L185.448 118.52Z" fill="#A89E9B"/>
<path d="M178.041 170.371H185.449V162.963H178.041V170.371Z" fill="#6D6360"/>
<path d="M170.635 170.371L178.041 170.371V162.963H170.635V170.371Z" fill="#231F20"/>
<path d="M185.448 170.371H192.855V162.963H185.448V170.371Z" fill="#6D6360"/>
<path d="M200.26 185.184H207.668V177.777H200.26V185.184Z" fill="#231F20"/>
<path d="M185.448 140.74H192.855V133.332H185.448V140.74Z" fill="#A89E9B"/>
<path d="M185.448 148.146H192.855V140.74H185.448V148.146Z" fill="#A89E9B"/>
<path d="M185.448 162.963H192.855L192.855 155.555H185.447L185.448 162.963Z" fill="#231F20"/>
<path d="M185.448 133.334H192.855V125.926H185.448V133.334Z" fill="#8D837F"/>
<path d="M185.447 96.2951H192.855L192.855 88.8884H185.448L185.447 96.2951Z" fill="#C7C0BE"/>
<path d="M96.5566 29.6305H103.965V22.2227H96.5566V29.6305Z" fill="#F2546B"/>
<path d="M89.1543 29.6305H96.5603V22.2227H89.1543V29.6305Z" fill="#C7C0BE"/>
<path d="M103.967 29.6305H111.375V22.2227H103.967V29.6305Z" fill="#F2546B"/>
<path d="M118.783 29.6305H126.189V22.2227H118.783V29.6305Z" fill="#231F20"/>
<path d="M111.373 29.6305H118.781V22.2227H111.373V29.6305Z" fill="#A89E9B"/>
<path d="M81.7441 29.6305H89.152V22.2227H81.7441V29.6305Z" fill="#231F20"/>
<path d="M59.5215 29.6305H66.9275V22.2227H59.5215V29.6305Z" fill="#231F20"/>
<path d="M185.447 155.555H192.855L192.855 148.146H185.448L185.447 155.555Z" fill="#ECEAE9"/>
<path d="M37.2986 118.519H44.7067V111.111L37.2986 111.111V118.519Z" fill="#ECEAE9"/>
<path d="M37.2986 125.926L44.7067 125.926V118.519H37.2986V125.926Z" fill="#C9C3C1"/>
<path d="M37.2986 133.334H44.7067V125.926L37.2986 125.926V133.334Z" fill="#231F20"/>
<path d="M37.3027 44.445H44.7106V37.0371H37.3027V44.445Z" fill="#F2546B"/>
<path d="M37.2986 111.111L44.7067 111.111V103.703H37.2986V111.111Z" fill="#ECEAE9"/>
<path d="M37.2986 74.0742L44.7067 74.0739V66.666H37.2988L37.2986 74.0742Z" fill="#655C59"/>
<path d="M37.2988 59.2594H44.7067V51.8516H37.2988V59.2594Z" fill="#A89E9B"/>
<path d="M37.2988 51.8516H44.7067V44.4453L37.2986 44.445L37.2988 51.8516Z" fill="#A89E9B"/>
<path d="M37.2988 66.666H44.7067V59.2594H37.2988V66.666Z" fill="#E7E3E2"/>
<path d="M37.2986 96.2947H44.7067V88.8887H37.2986V96.2947Z" fill="#655C59"/>
<path d="M37.2986 81.4821H44.7067V74.0739L37.2986 74.0742V81.4821Z" fill="#655C59"/>
<path d="M37.2986 103.703H44.7067V96.2947H37.2986V103.703Z" fill="#ECEAE9"/>
<path d="M37.2986 88.8887H44.7067V81.4805H37.2986V88.8887Z" fill="#655C59"/>
<path d="M133.596 185.184H141.004V177.777H133.596V185.184Z" fill="#231F20"/>
<path d="M185.448 185.184H192.855V177.777H185.448V185.184Z" fill="#231F20"/>
<path d="M192.857 185.184H200.263V177.777H192.857V185.184Z" fill="#655C59"/>
<path d="M126.189 185.184H133.597V177.777H126.189L126.189 185.184Z" fill="#655C59"/>
<path d="M118.783 185.184H126.189L126.189 177.777H118.783V185.184Z" fill="#231F20"/>
<path d="M44.709 22.2227H52.1169V14.8164H44.709V22.2227Z" fill="#A89E9B"/>
<path d="M192.857 125.926H200.263V118.52H192.857V125.926Z" fill="#A89E9B"/>
<path d="M192.857 140.74H200.263V133.332H192.857V140.74Z" fill="#A89E9B"/>
<path d="M192.857 133.334H200.263V125.926H192.857V133.334Z" fill="#A89E9B"/>
<path d="M192.857 148.146H200.263V140.74H192.857V148.146Z" fill="#A89E9B"/>
<path d="M192.857 103.703H200.263V96.2949H192.857V103.703Z" fill="#A89E9B"/>
<path d="M192.857 96.2949H200.263V88.8887H192.857V96.2949Z" fill="#C7C0BE"/>
<path d="M192.857 88.8887H200.263V81.4805H192.857V88.8887Z" fill="#231F20"/>
<path d="M192.857 118.52H200.263V111.111H192.857V118.52Z" fill="#A89E9B"/>
<path d="M192.857 111.111H200.263V103.703H192.857V111.111Z" fill="#8D837F"/>
<path d="M103.967 22.2227H111.375V14.8161H103.967V22.2227Z" fill="#A89E9B"/>
<path d="M89.1543 22.2227H96.5603V14.8164H89.1543V22.2227Z" fill="#231F20"/>
<path d="M96.5566 22.2227H103.965V14.8161H96.5566V22.2227Z" fill="#C7C0BE"/>
<path d="M37.2986 29.6305H44.7067V22.2227L37.2986 22.2224V29.6305Z" fill="#F2546B"/>
<path d="M52.1152 22.2227H59.5231V14.8164H52.1152V22.2227Z" fill="#231F20"/>
<path d="M37.2986 22.2224L44.7067 22.2227V14.8161L37.2986 14.8164V22.2224Z" fill="#C7C0BE"/>
<path d="M192.857 155.555H200.263V148.146H192.857V155.555Z" fill="#7D726F"/>
<path d="M111.373 22.2227H118.781V14.8164H111.373V22.2227Z" fill="#231F20"/>
<path d="M37.3027 37.0371H44.7106V29.6289H37.3027V37.0371Z" fill="#F2546B"/>
<path d="M266.928 22.2224H274.336V14.8164H266.928V22.2224Z" fill="#A89E9B"/>
<path d="M266.928 44.445H274.336V37.0371H266.928V44.445Z" fill="#231F20"/>
<path d="M266.928 37.0371H274.336V29.6289H266.928V37.0371Z" fill="#443B38"/>
<path d="M266.928 14.8164H274.336V7.4082H266.928V14.8164Z" fill="#231F20"/>
<path d="M266.928 29.6305H274.336V22.2224H266.928V29.6305Z" fill="#443B38"/>
<path d="M252.115 7.40789H259.521V0H252.115V7.40789Z" fill="#231F20"/>
<path d="M252.115 14.8161H259.521V7.40789H252.115V14.8161Z" fill="#A89E9B"/>
<path d="M252.115 74.0739H259.521V66.666H252.115V74.0739Z" fill="#443B38"/>
<path d="M252.115 66.666H259.521V59.2598H252.115V66.666Z" fill="#655C59"/>
<path d="M252.115 59.2598H259.521V51.8516H252.115V59.2598Z" fill="#A89E9B"/>
<path d="M252.115 81.4821H259.521V74.0739H252.115V81.4821Z" fill="#231F20"/>
<path d="M252.115 37.0368H259.521V29.6289H252.115V37.0368Z" fill="#655C59"/>
<path d="M252.115 51.8516H259.521V44.4453H252.115V51.8516Z" fill="#A89E9B"/>
<path d="M252.115 29.6305H259.521V22.2227H252.115V29.6305Z" fill="#655C59"/>
<path d="M252.115 22.2227H259.521V14.8161H252.115V22.2227Z" fill="#655C59"/>
<path d="M252.115 44.4453H259.521V37.0368H252.115V44.4453Z" fill="#A89E9B"/>
<path d="M259.521 37.0368H266.929V29.6289H259.521V37.0368Z" fill="#655C59"/>
<path d="M259.521 14.8161H266.929V7.4082L259.521 7.40789V14.8161Z" fill="#A89E9B"/>
<path d="M259.521 7.40789L266.929 7.4082V0H259.521V7.40789Z" fill="#231F20"/>
<path d="M259.521 22.2227L266.929 22.2224V14.8161H259.521V22.2227Z" fill="#655C59"/>
<path d="M259.521 29.6305H266.929V22.2224L259.521 22.2227V29.6305Z" fill="#655C59"/>
<path d="M259.521 74.0739H266.929V66.666H259.521V74.0739Z" fill="#231F20"/>
<path d="M259.521 59.2598L266.929 59.2594V51.8516H259.521V59.2598Z" fill="#231F20"/>
<path d="M259.521 44.4453L266.929 44.445V37.0368H259.521V44.4453Z" fill="#443B38"/>
<path d="M259.521 51.8516H266.929V44.445L259.521 44.4453V51.8516Z" fill="#231F20"/>
<path d="M259.521 66.666H266.929V59.2594L259.521 59.2598V66.666Z" fill="#231F20"/>
<path d="M274.338 22.2224H281.744V14.8164H274.338V22.2224Z" fill="#231F20"/>
<path d="M274.338 29.6305H281.744V22.2224H274.338V29.6305Z" fill="#231F20"/>
<path d="M274.338 37.0368H281.744V29.6289H274.338V37.0368Z" fill="#231F20"/>
</svg>
