<svg width="156" height="200" viewBox="0 0 156 200" fill="none" xmlns="http://www.w3.org/2000/svg">
<path d="M33.2461 12.9035H39.6965V6.45312H33.2461V12.9035Z" fill="#D6AB50"/>
<path d="M52.6017 12.9016H59.0537V6.45117H52.6017V12.9016Z" fill="#CA953E"/>
<path d="M26.793 12.9035H33.245V6.45312H26.793V12.9035Z" fill="#231F20"/>
<path d="M46.1484 12.9035H52.6005V6.45312H46.1484V12.9035Z" fill="#CA953E"/>
<path d="M39.6953 12.9035H46.1473V6.45312H39.6953V12.9035Z" fill="#D6AB50"/>
<path d="M71.957 12.9035H78.4091V6.45312H71.957V12.9035Z" fill="#CA953E"/>
<path d="M91.3086 12.9035H97.7606V6.45312H91.3086V12.9035Z" fill="#231F20"/>
<path d="M59.0547 12.9035H65.5051V6.45312H59.0547V12.9035Z" fill="#CA953E"/>
<path d="M65.5041 12.9016H71.9562V6.45117H65.5041V12.9016Z" fill="#CA953E"/>
<path d="M84.8594 12.9035H91.3098V6.45312H84.8594V12.9035Z" fill="#CA953E"/>
<path d="M78.4062 12.9035H84.8583V6.45312H78.4062V12.9035Z" fill="#CA953E"/>
<path d="M52.6017 6.45117H59.0537L59.0537 0H52.6017L52.6017 6.45117Z" fill="#231F20"/>
<path d="M59.0547 6.45203H65.5051V0H59.0537L59.0547 6.45203Z" fill="#231F20"/>
<path d="M65.5041 6.45117H71.9562L71.9562 0H65.5051L65.5041 6.45117Z" fill="#231F20"/>
<path d="M71.957 6.45203H78.4091V0H71.9562L71.957 6.45203Z" fill="#231F20"/>
<path d="M33.2461 6.45203H39.6965V0H33.2461V6.45203Z" fill="#231F20"/>
<path d="M46.1485 6.45203H52.6005V0H46.1485V6.45203Z" fill="#231F20"/>
<path d="M39.6953 6.45203H46.1474V0H39.6953V6.45203Z" fill="#231F20"/>
<path d="M78.4063 6.45203H84.8583V0H78.4063V6.45203Z" fill="#231F20"/>
<path d="M149.375 193.548H155.827V187.096H149.375V193.548Z" fill="#231F20"/>
<path d="M84.8594 6.45203H91.3098V0H84.8594V6.45203Z" fill="#231F20"/>
<path d="M78.4062 193.548H84.8583V187.096H78.4062V193.548Z" fill="#231F20"/>
<path d="M71.957 19.3547H78.4091V12.9035H71.957V19.3547Z" fill="#CA953E"/>
<path d="M84.8594 19.3547H91.3098V12.9035H84.8594V19.3547Z" fill="#231F20"/>
<path d="M97.7617 19.3547H104.214V12.9043H97.7617V19.3547Z" fill="#231F20"/>
<path d="M78.4062 19.3547H84.8583V12.9035H78.4062V19.3547Z" fill="#CA953E"/>
<path d="M91.3086 19.3547H97.7606V12.9035H91.3086V19.3547Z" fill="#75563B"/>
<path d="M65.5042 19.3545L71.957 19.3547L71.9562 12.9041H65.5042V19.3545Z" fill="#E3C485"/>
<path d="M46.1484 19.3547H52.6005V12.9035H46.1484V19.3547Z" fill="#E3C485"/>
<path d="M39.6953 19.3547H46.1473V12.9035H39.6953V19.3547Z" fill="#75563B"/>
<path d="M52.6017 19.3545H59.0537V12.9041H52.6017V19.3545Z" fill="#75563B"/>
<path d="M59.0537 19.3545H65.5042L65.5051 12.9035H59.0547L59.0537 19.3545Z" fill="#75563B"/>
<path d="M20.3438 19.3547H26.7958V12.9043H20.3438V19.3547Z" fill="#231F20"/>
<path d="M33.2461 19.3547H39.6965V12.9035H33.2461V19.3547Z" fill="#75563B"/>
<path d="M26.793 19.3547H33.245V12.9035H26.793V19.3547Z" fill="#E3C485"/>
<path d="M46.1484 193.548H52.6005V187.096H46.1484V193.548Z" fill="#9C6E2A"/>
<path d="M52.6017 193.548H59.0537V187.096H52.6017V193.548Z" fill="#231F20"/>
<path d="M59.0537 193.548L65.5051 193.548V187.096L59.0537 187.096V193.548Z" fill="#C2A26A"/>
<path d="M97.7617 193.548H104.214V187.096H97.7617V193.548Z" fill="#9C6E2A"/>
<path d="M26.793 193.548H33.245V187.096H26.793V193.548Z" fill="#9C6E2A"/>
<path d="M33.2461 193.548H39.6965V187.096H33.2461V193.548Z" fill="#231F20"/>
<path d="M84.8594 193.548H91.3098V187.096H84.8594V193.548Z" fill="#9C6E2A"/>
<path d="M91.3086 193.548H97.7606V187.096H91.3086V193.548Z" fill="#231F20"/>
<path d="M65.5051 193.548L71.9562 193.548V187.096L65.5051 187.096V193.548Z" fill="#231F20"/>
<path d="M71.9562 193.548L78.4091 193.548V187.096L71.9562 187.096V193.548Z" fill="#9C6E2A"/>
<path d="M39.6953 193.548H46.1473V187.096H39.6953V193.548Z" fill="#9C6E2A"/>
<path d="M20.3438 193.548H26.7958V187.096H20.3438V193.548Z" fill="#231F20"/>
<path d="M136.473 187.097H142.925V180.645H136.473V187.097Z" fill="#231F20"/>
<path d="M104.227 193.548H110.679V187.096H104.227V193.548Z" fill="#9C6E2A"/>
<path d="M123.57 193.548H130.022V187.096H123.57V193.548Z" fill="#231F20"/>
<path d="M117.117 193.548H123.569V187.096H117.117V193.548Z" fill="#CA953E"/>
<path d="M110.609 193.548H117.061V187.096H110.609V193.548Z" fill="#231F20"/>
<path d="M130.02 193.548H136.47V187.096H130.02V193.548Z" fill="#CA953E"/>
<path d="M136.473 193.548H142.925V187.097H136.473V193.548Z" fill="#75563B"/>
<path d="M142.922 187.097H149.374V180.645H142.922V187.097Z" fill="#231F20"/>
<path d="M142.922 193.548L149.375 193.548L149.374 187.097H142.922V193.548Z" fill="#75563B"/>
<path d="M84.8594 200.001H91.3098V193.549H84.8594V200.001Z" fill="#231F20"/>
<path d="M142.922 200.001H149.374V193.549H142.922V200.001Z" fill="#231F20"/>
<path d="M97.7617 200.001H104.214V193.549H97.7617V200.001Z" fill="#231F20"/>
<path d="M110.664 200.001H117.116V193.549H110.664V200.001Z" fill="#231F20"/>
<path d="M104.215 200.001H110.665V193.549H104.215V200.001Z" fill="#231F20"/>
<path d="M91.3086 200.001H97.7606V193.549H91.3086V200.001Z" fill="#231F20"/>
<path d="M123.57 200.001H130.022V193.549H123.57V200.001Z" fill="#231F20"/>
<path d="M130.02 200.001H136.47V193.549H130.02V200.001Z" fill="#231F20"/>
<path d="M136.473 200.001H142.925V193.549H136.473V200.001Z" fill="#231F20"/>
<path d="M117.117 200.001H123.569V193.549H117.117V200.001Z" fill="#231F20"/>
<path d="M46.1484 200.001H52.6005V193.549H46.1484V200.001Z" fill="#231F20"/>
<path d="M78.4062 200.001H84.8583V193.549H78.4062V200.001Z" fill="#231F20"/>
<path d="M39.6953 200.001H46.1473V193.549H39.6953V200.001Z" fill="#231F20"/>
<path d="M26.793 200.001H33.245V193.549H26.793V200.001Z" fill="#231F20"/>
<path d="M20.3438 200.001H26.7958V193.549H20.3438V200.001Z" fill="#231F20"/>
<path d="M33.2461 200.001H39.6965V193.549H33.2461V200.001Z" fill="#231F20"/>
<path d="M65.5041 200.001H71.9562L71.9562 193.548L65.5041 193.549V200.001Z" fill="#231F20"/>
<path d="M71.9562 200.001H78.4091V193.549H71.957L71.9562 200.001Z" fill="#231F20"/>
<path d="M52.6017 200.001H59.0537L59.0537 193.548H52.6017L52.6017 200.001Z" fill="#231F20"/>
<path d="M59.0537 200.001H65.5041V193.549H59.0547L59.0537 200.001Z" fill="#231F20"/>
<path d="M52.6017 135.483H59.0537V129.031H52.6017V135.483Z" fill="#231F20"/>
<path d="M97.7617 77.4188H104.214V70.9668H97.7617V77.4188Z" fill="#231F20"/>
<path d="M97.7617 58.0653H104.214V51.6133H97.7617V58.0653Z" fill="#231F20"/>
<path d="M84.8594 58.0653H91.3098V51.6133H84.8594V58.0653Z" fill="#CA953E"/>
<path d="M97.7617 64.5149H104.214V58.0653H97.7617V64.5149Z" fill="#CA953E"/>
<path d="M97.7617 70.9668H104.214V64.5149H97.7617V70.9668Z" fill="#CA953E"/>
<path d="M91.3086 58.0653H97.7606V51.6133H91.3086V58.0653Z" fill="#231F20"/>
<path d="M59.0547 58.0653H65.5051V51.6133H59.0547V58.0653Z" fill="#E3C485"/>
<path d="M78.4062 58.0653H84.8583V51.6133H78.4062V58.0653Z" fill="#E3C485"/>
<path d="M65.5039 58.0653H71.9559V51.6133H65.5039V58.0653Z" fill="#CA953E"/>
<path d="M91.3086 64.5149H97.7606V58.0653H91.3086V64.5149Z" fill="#CA953E"/>
<path d="M97.7617 96.7743H104.214V90.3223H97.7617V96.7743Z" fill="#231F20"/>
<path d="M97.7617 129.031H104.214V122.58H97.7617V129.031Z" fill="#231F20"/>
<path d="M97.7617 122.58H104.214V116.129H97.7617V122.58Z" fill="#CA953E"/>
<path d="M97.7617 83.87H104.214L104.214 77.4188H97.7617L97.7617 83.87Z" fill="#CA953E"/>
<path d="M97.7617 135.483H104.214V129.031H97.7617V135.483Z" fill="#CA953E"/>
<path d="M97.7617 116.128H104.214V109.676H97.7617V116.128Z" fill="#231F20"/>
<path d="M97.7617 141.934H104.214V135.483H97.7617V141.934Z" fill="#231F20"/>
<path d="M52.6017 58.0653H59.0547V51.6133H52.6017V58.0653Z" fill="#231F20"/>
<path d="M97.7617 109.677H104.214V103.227H97.7617V109.677Z" fill="#231F20"/>
<path d="M97.7617 90.3212H104.214L104.214 83.87H97.7617L97.7617 90.3212Z" fill="#231F20"/>
<path d="M97.7617 103.225H104.214V96.7743H97.7617V103.225Z" fill="#231F20"/>
<path d="M97.7617 148.388H104.214V141.936H97.7617V148.388Z" fill="#CA953E"/>
<path d="M33.2461 58.0653H39.6965V51.6133H33.2461V58.0653Z" fill="#231F20"/>
<path d="M46.1484 58.0653H52.6005V51.6133H46.1484V58.0653Z" fill="#231F20"/>
<path d="M26.793 58.0653H33.245V51.6133H26.793V58.0653Z" fill="#E3C485"/>
<path d="M39.6953 58.0653H46.1473V51.6133H39.6953V58.0653Z" fill="#231F20"/>
<path d="M20.3438 58.0653H26.7958V51.6133H20.3438V58.0653Z" fill="#E3C485"/>
<path d="M13.8906 58.0653H20.341V51.6133H13.8906V58.0653Z" fill="#C2A26A"/>
<path d="M7.44141 58.0653H13.8918V51.6133H7.44141V58.0653Z" fill="#231F20"/>
<path d="M20.3438 64.5149H26.7958V58.0653H20.3438V64.5149Z" fill="#231F20"/>
<path d="M13.8906 64.5149H20.341V58.0653H13.8906V64.5149Z" fill="#231F20"/>
<path d="M26.793 64.5149H33.245V58.0653H26.793V64.5149Z" fill="#231F20"/>
<path d="M65.5039 64.5149H71.9559V58.0653H65.5039V64.5149Z" fill="#C2A26A"/>
<path d="M97.7617 154.837H104.214V148.388H97.7617V154.837Z" fill="#231F20"/>
<path d="M33.2461 64.5149H39.6965V58.0653H33.2461V64.5149Z" fill="#C2A26A"/>
<path d="M84.8594 64.5149H91.3098V58.0653H84.8594V64.5149Z" fill="#CA953E"/>
<path d="M71.957 64.5149H78.4091V58.0645H71.957V64.5149Z" fill="#C2A26A"/>
<path d="M59.0547 64.5149H65.5051V58.0653H59.0547V64.5149Z" fill="#C2A26A"/>
<path d="M39.6953 64.5149H46.1473V58.0653H39.6953V64.5149Z" fill="#C2A26A"/>
<path d="M46.1484 64.5149H52.6005V58.0653H46.1484V64.5149Z" fill="#C2A26A"/>
<path d="M52.6017 64.5149H59.0547L59.0537 58.0645L52.6017 58.0653V64.5149Z" fill="#C2A26A"/>
<path d="M78.4062 64.5149H84.8583V58.0653H78.4062V64.5149Z" fill="#231F20"/>
<path d="M59.0547 154.837H65.5051V148.387H59.0547V154.837Z" fill="#E3C485"/>
<path d="M65.5051 154.837H71.9562V148.387H65.5051V154.837Z" fill="#E3C485"/>
<path d="M33.2461 154.837H39.6965V148.387H33.2461V154.837Z" fill="#CA953E"/>
<path d="M39.6953 148.387V154.837H46.1473V148.387H39.6953Z" fill="#E3C485"/>
<path d="M46.1484 154.837H52.6005V148.387H46.1484V154.837Z" fill="#E3C485"/>
<path d="M91.3086 154.837H97.7606V148.387H91.3086V154.837Z" fill="#D6AB50"/>
<path d="M71.9562 154.837H78.4091V148.387H71.9562V154.837Z" fill="#231F20"/>
<path d="M84.8594 154.837H91.3098V148.387H84.8594V154.837Z" fill="#D6AB50"/>
<path d="M78.4062 154.837H84.8583V148.387H78.4062V154.837Z" fill="#D6AB50"/>
<path d="M52.6017 154.837H59.0547V148.387H52.6017V154.837Z" fill="#E3C485"/>
<path d="M20.3438 154.837H26.7958V148.387H20.3438V154.837Z" fill="#231F20"/>
<path d="M26.793 154.837H33.245V148.387H26.793V154.837Z" fill="#231F20"/>
<path d="M71.957 58.0645H78.4091V51.6133H71.957V58.0645Z" fill="#CA953E"/>
<path d="M52.6017 51.6122H59.0537V45.1602H52.6017V51.6122Z" fill="#E3C485"/>
<path d="M33.2461 51.6122H39.6965V45.1602H33.2461V51.6122Z" fill="#E3C485"/>
<path d="M46.1484 51.6122H52.6005V45.1602H46.1484V51.6122Z" fill="#E3C485"/>
<path d="M39.6953 51.6122H46.1473V45.1602H39.6953V51.6122Z" fill="#E3C485"/>
<path d="M20.3438 51.6122H26.7958V45.1602H20.3438V51.6122Z" fill="#E3C485"/>
<path d="M13.8906 51.6122H20.341V45.1602H13.8906V51.6122Z" fill="#3C2516"/>
<path d="M59.0537 51.6122H65.5067V45.1602H59.0537V51.6122Z" fill="#231F20"/>
<path d="M26.793 51.6122H33.245V45.1602H26.793V51.6122Z" fill="#E3C485"/>
<path d="M0.988281 51.6122H7.44031V45.1602H0.988281V51.6122Z" fill="#231F20"/>
<path d="M7.44141 51.6122H13.8918V45.1602H7.44141V51.6122Z" fill="#C2A26A"/>
<path d="M39.6953 161.289V167.741H46.1473V161.289H39.6953Z" fill="#C2A26A"/>
<path d="M33.2461 167.741H39.6965V161.289H33.2461V167.741Z" fill="#231F20"/>
<path d="M26.793 167.741H33.245V161.289H26.793V167.741Z" fill="#231F20"/>
<path d="M46.1484 167.741H52.6005V161.289H46.1484V167.741Z" fill="#E3C485"/>
<path d="M20.3438 167.741H26.7958V161.289H20.3438V167.741Z" fill="#231F20"/>
<path d="M52.6017 167.741H59.0537V161.289H52.6017V167.741Z" fill="#E3C485"/>
<path d="M65.5041 167.741H71.9562V161.289H65.5041V167.741Z" fill="#231F20"/>
<path d="M71.9562 167.741H78.4091V161.289H71.9562V167.741Z" fill="#CA953E"/>
<path d="M59.0537 167.741H65.5041V161.289H59.0537V167.741Z" fill="#E3C485"/>
<path d="M91.3086 161.29H97.7606V154.837H91.3086V161.29Z" fill="#CA953E"/>
<path d="M52.6017 161.289H59.0537V154.838L52.6017 154.837V161.289Z" fill="#E3C485"/>
<path d="M71.957 161.29L78.4091 161.289V154.837L71.957 154.838V161.29Z" fill="#231F20"/>
<path d="M84.8594 161.29H91.3098V154.837H84.8594V161.29Z" fill="#231F20"/>
<path d="M59.0547 161.29H65.5051V154.837H59.0547V161.29Z" fill="#E3C485"/>
<path d="M65.5041 161.289H71.9562V154.837L65.5041 154.838V161.289Z" fill="#231F20"/>
<path d="M78.4062 161.29H84.8583V154.837H78.4062V161.29Z" fill="#231F20"/>
<path d="M104.215 161.29H110.665V154.838H104.215V161.29Z" fill="#CA953E"/>
<path d="M104.215 154.838H110.665V148.387H104.215V154.838Z" fill="#CA953E"/>
<path d="M97.7617 161.29H104.214V154.837H97.7617V161.29Z" fill="#CA953E"/>
<path d="M104.215 148.387H110.665V141.936H104.215V148.387Z" fill="#CA953E"/>
<path d="M46.1484 161.289H52.6005V154.837H46.1484V161.289Z" fill="#E3C485"/>
<path d="M20.3438 161.289H26.7958V154.837H20.3438V161.289Z" fill="#231F20"/>
<path d="M39.6953 154.837V161.289H46.1473V154.837H39.6953Z" fill="#E3C485"/>
<path d="M33.2461 161.289H39.6965V154.837H33.2461V161.289Z" fill="#231F20"/>
<path d="M26.793 161.289H33.245V154.837H26.793V161.289Z" fill="#D6AB50"/>
<path d="M65.5041 51.6122H71.9562V45.1602H65.5041V51.6122Z" fill="#E3C485"/>
<path d="M97.7617 51.6122H104.214V45.1602H97.7617V51.6122Z" fill="#231F20"/>
<path d="M104.215 70.9677H110.665V64.5156H104.215V70.9677Z" fill="#231F20"/>
<path d="M104.215 141.934H110.665V135.482H104.215V141.934Z" fill="#231F20"/>
<path d="M71.9562 51.6122H78.4091V45.1602H71.9562V51.6122Z" fill="#CA953E"/>
<path d="M104.215 77.4188H110.665V70.9677H104.215V77.4188Z" fill="#231F20"/>
<path d="M78.4062 51.6122H84.8583V45.1602H78.4062V51.6122Z" fill="#CA953E"/>
<path d="M84.8594 51.6122H91.3098V45.1602H84.8594V51.6122Z" fill="#CA953E"/>
<path d="M91.3086 51.6122H97.7606V45.1602H91.3086V51.6122Z" fill="#CA953E"/>
<path d="M104.215 64.5156H110.665V58.0645H104.215V64.5156Z" fill="#231F20"/>
<path d="M104.215 129.031H110.665V122.58H104.215V129.031Z" fill="#231F20"/>
<path d="M104.215 122.58H110.665V116.129H104.215V122.58Z" fill="#CA953E"/>
<path d="M104.215 135.482H110.665V129.031H104.215V135.482Z" fill="#CA953E"/>
<path d="M104.215 83.87H110.665L110.665 77.4188H104.215L104.215 83.87Z" fill="#D6AB50"/>
<path d="M104.215 116.128H110.665V109.676H104.215V116.128Z" fill="#231F20"/>
<path d="M104.215 90.3212H110.665L110.665 83.87H104.215L104.215 90.3212Z" fill="#231F20"/>
<path d="M104.215 109.677H110.665V103.227H104.215V109.677Z" fill="#CA953E"/>
<path d="M104.215 96.7743H110.665V90.3223H104.215V96.7743Z" fill="#CA953E"/>
<path d="M104.215 103.225H110.665V96.7743H104.215V103.225Z" fill="#231F20"/>
<path d="M59.0547 116.128H65.5051V109.676H59.0547V116.128Z" fill="#C2A26A"/>
<path d="M26.793 129.031H33.245V122.58H26.793V129.031Z" fill="#231F20"/>
<path d="M26.793 116.128H33.245V109.676H26.793V116.128Z" fill="#231F20"/>
<path d="M26.793 122.58H33.245V116.129H26.793V122.58Z" fill="#231F20"/>
<path d="M26.793 109.677H33.245V103.227H26.793V109.677Z" fill="#231F20"/>
<path d="M46.1485 83.87H52.6005V77.418H46.1485V83.87Z" fill="#231F20"/>
<path d="M71.957 103.225H78.4091V96.7734H71.957V103.225Z" fill="#E3C485"/>
<path d="M52.6017 83.8699H59.0537V77.4179H52.6017V83.8699Z" fill="#CA953E"/>
<path d="M71.957 109.677H78.4091V103.227H71.957V109.677Z" fill="#C2A26A"/>
<path d="M71.957 122.581H78.4091V116.129H71.957V122.581Z" fill="#E3C485"/>
<path d="M71.957 116.128H78.4091V109.676H71.957V116.128Z" fill="#231F20"/>
<path d="M71.957 96.7734H78.4091V90.3223H71.957V96.7734Z" fill="#E3C485"/>
<path d="M59.0537 83.8699L65.5051 83.87V77.418L59.0537 77.4179V83.8699Z" fill="#E3C485"/>
<path d="M65.5039 83.87H71.9559V77.418H65.5039V83.87Z" fill="#E3C485"/>
<path d="M71.957 83.87H78.4091V77.418H71.957V83.87Z" fill="#E3C485"/>
<path d="M71.957 90.3212H78.4091L78.4091 83.87H71.957L71.957 90.3212Z" fill="#E3C485"/>
<path d="M78.4062 116.128H84.8583V109.676H78.4062V116.128Z" fill="#E3C485"/>
<path d="M78.4062 103.225H84.8583V96.7734H78.4062V103.225Z" fill="#231F20"/>
<path d="M78.4062 96.7734H84.8583V90.3223H78.4062V96.7734Z" fill="#231F20"/>
<path d="M78.4062 109.677H84.8583V103.227H78.4062V109.677Z" fill="#231F20"/>
<path d="M78.4062 90.3212H84.8583V83.8691H78.4062V90.3212Z" fill="#231F20"/>
<path d="M71.957 129.031H78.4091V122.581H71.957V129.031Z" fill="#CA953E"/>
<path d="M33.2461 129.031H39.6965V122.58H33.2461V129.031Z" fill="#9C6E2A"/>
<path d="M91.3086 70.9677H97.7606V64.5149H91.3086V70.9677Z" fill="#CA953E"/>
<path d="M78.4062 83.8691H84.8583L84.8583 77.418H78.4063L78.4062 83.8691Z" fill="#E3C485"/>
<path d="M71.957 77.418H78.4091L78.4091 70.9668H71.957L71.957 77.418Z" fill="#C2A26A"/>
<path d="M78.4063 77.418H84.8583L84.8583 70.9668H78.4062L78.4063 77.418Z" fill="#E3C485"/>
<path d="M65.5039 77.418H71.9559L71.9559 70.9668H65.5039L65.5039 77.418Z" fill="#C2A26A"/>
<path d="M46.1484 135.483H52.6005V129.031H46.1484V135.483Z" fill="#CA953E"/>
<path d="M39.6953 129.031V135.483H46.1473V129.031H39.6953Z" fill="#9C6E2A"/>
<path d="M33.2461 135.484H39.6965V129.033H33.2461V135.484Z" fill="#231F20"/>
<path d="M78.4062 129.031H84.8583V122.58H78.4062V129.031Z" fill="#9C6E2A"/>
<path d="M71.957 135.483H78.4091V129.031H71.957V135.483Z" fill="#9C6E2A"/>
<path d="M78.4062 135.483H84.8583V129.031H78.4062V135.483Z" fill="#231F20"/>
<path d="M65.5041 135.483H71.957L71.9562 129.031H65.5041V135.483Z" fill="#CA953E"/>
<path d="M59.0537 135.483H65.5041V129.031H59.0537V135.483Z" fill="#231F20"/>
<path d="M65.5041 129.031H71.9562V122.58H65.5041V129.031Z" fill="#E3C485"/>
<path d="M39.6953 109.677H46.1473V103.227H39.6953V109.677Z" fill="#E3C485"/>
<path d="M39.6953 103.225H46.1473V96.7734H39.6953V103.225Z" fill="#CA953E"/>
<path d="M59.0547 77.4188L65.5051 77.418L65.5051 70.9668H59.0547V77.4188Z" fill="#9C6E2A"/>
<path d="M39.6953 96.7734H46.1473V90.3223H39.6953V96.7734Z" fill="#D6AB50"/>
<path d="M39.6953 116.128H46.1473V109.676H39.6953V116.128Z" fill="#E3C485"/>
<path d="M52.6017 96.7743H59.0537V90.3223H52.6017V96.7743Z" fill="#E3C485"/>
<path d="M59.0547 122.581H65.5051V116.129H59.0547V122.581Z" fill="#C2A26A"/>
<path d="M65.5041 122.58H71.9562L71.957 116.129H65.5051L65.5041 122.58Z" fill="#231F20"/>
<path d="M52.6017 122.581H59.0547V116.129H52.6017V122.581Z" fill="#C2A26A"/>
<path d="M46.1484 122.581H52.6005V116.129H46.1484V122.581Z" fill="#231F20"/>
<path d="M46.1484 116.128H52.6005V109.676H46.1484V116.128Z" fill="#231F20"/>
<path d="M52.6017 109.677H59.0537V103.227H52.6017V109.677Z" fill="#C2A26A"/>
<path d="M46.1484 109.677H52.6005V103.227H46.1484V109.677Z" fill="#231F20"/>
<path d="M46.1484 103.225H52.6005V96.7734H46.1484V103.225Z" fill="#E3C485"/>
<path d="M52.6017 103.225H59.0537V96.7743H52.6017V103.225Z" fill="#E3C485"/>
<path d="M59.0537 96.7743H65.5051V90.3223H59.0537V96.7743Z" fill="#E3C485"/>
<path d="M59.0537 109.677H65.5051V103.227H59.0537V109.677Z" fill="#E3C485"/>
<path d="M52.6017 116.128H59.0547V109.676H52.6017V116.128Z" fill="#C2A26A"/>
<path d="M59.0537 103.225H65.5051V96.7743L59.0547 96.7734L59.0537 103.225Z" fill="#E3C485"/>
<path d="M78.4062 167.741H84.8583V161.29H78.4062V167.741Z" fill="#CA953E"/>
<path d="M46.1484 96.7734H52.6005V90.3223H46.1484V96.7734Z" fill="#CA953E"/>
<path d="M33.2461 116.128H39.6965V109.676H33.2461V116.128Z" fill="#CA953E"/>
<path d="M39.6953 122.581H46.1473V116.129H39.6953V122.581Z" fill="#E3C485"/>
<path d="M33.2461 122.58H39.6965V116.129H33.2461V122.58Z" fill="#CA953E"/>
<path d="M33.2461 109.677H39.6965V103.227H33.2461V109.677Z" fill="#D6AB50"/>
<path d="M33.2461 103.225H39.6965V96.7734H33.2461V103.225Z" fill="#231F20"/>
<path d="M39.6953 129.031H46.1473V122.581H39.6953V129.031Z" fill="#CA953E"/>
<path d="M52.6017 129.031H59.0537V122.58L52.6017 122.581V129.031Z" fill="#231F20"/>
<path d="M59.0547 129.031H65.5051V122.581H59.0547V129.031Z" fill="#231F20"/>
<path d="M33.2461 96.7734H39.6965V90.3223H33.2461V96.7734Z" fill="#231F20"/>
<path d="M46.1484 129.031H52.6005V122.581H46.1484V129.031Z" fill="#E3C485"/>
<path d="M52.6017 90.3212H59.0537L59.0537 83.8699H52.6017L52.6017 90.3212Z" fill="#CA953E"/>
<path d="M65.5039 90.3212H71.9559L71.9559 83.87H65.5039L65.5039 90.3212Z" fill="#E3C485"/>
<path d="M65.5051 103.225H71.957V96.7734H65.5041L65.5051 103.225Z" fill="#E3C485"/>
<path d="M65.5041 96.7734L71.9562 96.7743L71.957 90.3223H65.5051L65.5041 96.7734Z" fill="#E3C485"/>
<path d="M65.5051 109.677H71.957V103.227H65.5051V109.677Z" fill="#E3C485"/>
<path d="M46.1484 90.3212H52.6005L52.6005 83.87H46.1485L46.1484 90.3212Z" fill="#D6AB50"/>
<path d="M39.6953 90.3212H46.1473V83.8691H39.6953V90.3212Z" fill="#231F20"/>
<path d="M59.0537 90.3212H65.5051L65.5051 83.87L59.0547 83.8691L59.0537 90.3212Z" fill="#E3C485"/>
<path d="M65.5051 116.128H71.957V109.676H65.5051V116.128Z" fill="#C2A26A"/>
<path d="M78.4062 122.58H84.8583V116.129H78.4062V122.58Z" fill="#CA953E"/>
<path d="M26.793 148.387H33.245V141.936H26.793V148.387Z" fill="#231F20"/>
<path d="M33.2461 148.387H39.6965V141.936H33.2461V148.387Z" fill="#CA953E"/>
<path d="M33.2461 70.9677H39.6965V64.5149H33.2461V70.9677Z" fill="#231F20"/>
<path d="M39.6953 70.9677H46.1473V64.5149H39.6953V70.9677Z" fill="#231F20"/>
<path d="M39.6953 141.936V148.387H46.1473V141.936H39.6953Z" fill="#C2A26A"/>
<path d="M91.3086 109.677H97.7606V103.227H91.3086V109.677Z" fill="#CA953E"/>
<path d="M91.3086 103.225H97.7606V96.7734H91.3086V103.225Z" fill="#CA953E"/>
<path d="M91.3086 116.128H97.7606V109.676H91.3086V116.128Z" fill="#9C6E2A"/>
<path d="M91.3086 122.581H97.7606V116.129H91.3086V122.581Z" fill="#231F20"/>
<path d="M46.1484 70.9677H52.6005V64.5149H46.1484V70.9677Z" fill="#231F20"/>
<path d="M91.3086 90.3212H97.7606V83.8691H91.3086V90.3212Z" fill="#CA953E"/>
<path d="M91.3086 96.7734H97.7606V90.3223H91.3086V96.7734Z" fill="#CA953E"/>
<path d="M91.3086 83.8691H97.7606L97.7606 77.418H91.3086L91.3086 83.8691Z" fill="#CA953E"/>
<path d="M91.3086 77.418H97.7606L97.7606 70.9677H91.3086L91.3086 77.418Z" fill="#CA953E"/>
<path d="M91.3086 135.483H97.7606V129.031H91.3086V135.483Z" fill="#CA953E"/>
<path d="M91.3086 129.031H97.7606V122.581H91.3086V129.031Z" fill="#9C6E2A"/>
<path d="M59.0547 148.387H65.5051V141.936H59.0547V148.387Z" fill="#E3C485"/>
<path d="M52.6017 148.387L59.0537 148.388L59.0547 141.936H52.6017V148.387Z" fill="#E3C485"/>
<path d="M65.5041 148.388L71.9562 148.387V141.936H65.5051L65.5041 148.388Z" fill="#C2A26A"/>
<path d="M91.3086 141.934H97.7606V135.483H91.3086V141.934Z" fill="#CA953E"/>
<path d="M46.1484 148.387H52.6005V141.936H46.1484V148.387Z" fill="#C2A26A"/>
<path d="M84.8594 148.387H91.3098V141.936H84.8594V148.387Z" fill="#231F20"/>
<path d="M91.3086 148.387H97.7606V141.936H91.3086V148.387Z" fill="#231F20"/>
<path d="M71.957 148.388L78.4091 148.387V141.936H71.9562L71.957 148.388Z" fill="#C2A26A"/>
<path d="M78.4062 148.387H84.8583V141.936H78.4062V148.387Z" fill="#231F20"/>
<path d="M52.6017 70.9674H59.0537V64.5154L52.6017 64.5149L52.6017 70.9674Z" fill="#231F20"/>
<path d="M52.6017 77.4179H59.0537V70.9674H52.6017V77.4179Z" fill="#231F20"/>
<path d="M33.2461 141.934H39.6965V135.482H33.2461V141.934Z" fill="#9C6E2A"/>
<path d="M39.6953 135.483V141.934H46.1473V135.483H39.6953Z" fill="#231F20"/>
<path d="M46.1484 141.934H52.6005V135.483H46.1484V141.934Z" fill="#231F20"/>
<path d="M26.793 141.934H33.245V135.482H26.793V141.934Z" fill="#231F20"/>
<path d="M52.6017 141.934H59.0537V135.483H52.6017V141.934Z" fill="#C2A26A"/>
<path d="M84.8594 83.87H91.3098V77.418H84.8594V83.87Z" fill="#CA953E"/>
<path d="M84.8594 77.418H91.3098L91.3098 70.9668H84.8594L84.8594 77.418Z" fill="#CA953E"/>
<path d="M84.8594 96.7743H91.3098V90.3223H84.8594V96.7743Z" fill="#E3C485"/>
<path d="M84.8594 90.3212H91.3098L91.3098 83.87H84.8594L84.8594 90.3212Z" fill="#CA953E"/>
<path d="M84.8594 70.9668H91.3098V64.5149H84.8594V70.9668Z" fill="#CA953E"/>
<path d="M59.0537 141.934H65.5051V135.482H59.0547L59.0537 141.934Z" fill="#C2A26A"/>
<path d="M59.0547 70.9668H65.5051V64.5149H59.0547V70.9668Z" fill="#231F20"/>
<path d="M65.5039 70.9668H71.9559V64.5149H65.5039V70.9668Z" fill="#231F20"/>
<path d="M78.4062 70.9668H84.8583V64.5149H78.4062V70.9668Z" fill="#C2A26A"/>
<path d="M71.957 70.9668H78.4091V64.5149H71.957V70.9668Z" fill="#231F20"/>
<path d="M84.8594 103.225H91.3098V96.7743H84.8594V103.225Z" fill="#E3C485"/>
<path d="M78.4062 141.934H84.8583V135.483H78.4062V141.934Z" fill="#9C6E2A"/>
<path d="M71.957 141.934H78.4091V135.483H71.957V141.934Z" fill="#231F20"/>
<path d="M84.8594 141.934H91.3098V135.482H84.8594V141.934Z" fill="#CA953E"/>
<path d="M84.8594 109.677H91.3098V103.227H84.8594V109.677Z" fill="#E3C485"/>
<path d="M65.5051 141.934H71.957L71.9562 135.482L65.5041 135.483L65.5051 141.934Z" fill="#231F20"/>
<path d="M84.8594 122.581H91.3098V116.129H84.8594V122.581Z" fill="#9C6E2A"/>
<path d="M84.8594 135.482H91.3098V129.031H84.8594V135.482Z" fill="#9C6E2A"/>
<path d="M84.8594 116.128H91.3098V109.676H84.8594V116.128Z" fill="#CA953E"/>
<path d="M84.8594 129.031H91.3098V122.581H84.8594V129.031Z" fill="#231F20"/>
<path d="M71.957 187.097L78.4091 187.096V180.645H71.957V187.097Z" fill="#231F20"/>
<path d="M26.793 187.096H33.245V180.645H26.793V187.096Z" fill="#231F20"/>
<path d="M39.6953 187.096H46.1473V180.645H39.6953V187.096Z" fill="#9C6E2A"/>
<path d="M59.0547 187.097L65.5051 187.096V180.645H59.0547V187.097Z" fill="#C2A26A"/>
<path d="M46.1484 187.096H52.6005V180.645H46.1484V187.096Z" fill="#231F20"/>
<path d="M65.5041 187.097L71.9562 187.096L71.957 180.645H65.5051L65.5041 187.097Z" fill="#C2A26A"/>
<path d="M52.6017 187.096H59.0537L59.0547 180.645H52.6017L52.6017 187.096Z" fill="#C2A26A"/>
<path d="M33.2461 187.096H39.6965V180.645H33.2461V187.096Z" fill="#CA953E"/>
<path d="M84.8594 167.741H91.3098V161.29H84.8594V167.741Z" fill="#CA953E"/>
<path d="M78.4063 32.2587H84.8583V25.8066H78.4063V32.2587Z" fill="#CA953E"/>
<path d="M33.2461 32.2587H39.6965V25.8066H33.2461V32.2587Z" fill="#231F20"/>
<path d="M65.5042 32.2586H71.9562V25.8066H65.5042V32.2586Z" fill="#75563B"/>
<path d="M39.6953 32.2587H46.1474V25.8066H39.6953V32.2587Z" fill="#75563B"/>
<path d="M52.6017 32.2586H59.0537V25.8066H52.6017V32.2586Z" fill="#75563B"/>
<path d="M59.0537 32.2586H65.5042V25.8066H59.0537V32.2586Z" fill="#231F20"/>
<path d="M46.1524 32.2587H52.6028V25.8066H46.1524V32.2587Z" fill="#E3C485"/>
<path d="M13.8906 32.2587H20.3411V25.8066H13.8906V32.2587Z" fill="#D6AB50"/>
<path d="M26.793 32.2587H33.245V25.8066H26.793V32.2587Z" fill="#75563B"/>
<path d="M20.3438 32.2587H26.7958V25.8066H20.3438V32.2587Z" fill="#75563B"/>
<path d="M7.44142 32.2587H13.8918V25.8066H7.44142V32.2587Z" fill="#231F20"/>
<path d="M71.9562 32.2586L78.4091 32.2587V25.8066L71.9562 25.8066V32.2586Z" fill="#75563B"/>
<path d="M97.7617 32.2587H104.214V25.8066H97.7617V32.2587Z" fill="#231F20"/>
<path d="M84.8594 32.2587H91.3098V25.8066H84.8594V32.2587Z" fill="#CA953E"/>
<path d="M91.3086 32.2587H97.7606V25.8066H91.3086V32.2587Z" fill="#231F20"/>
<path d="M78.4062 187.096H84.8583V180.645H78.4062V187.096Z" fill="#9C6E2A"/>
<path d="M46.1484 25.8075H52.6005V19.3547H46.1484V25.8075Z" fill="#E3C485"/>
<path d="M52.6017 25.8066H59.0537V19.3545H52.6017V25.8066Z" fill="#75563B"/>
<path d="M59.0547 25.8075H65.5051V19.3555H59.0547V25.8075Z" fill="#231F20"/>
<path d="M65.5042 25.8066H71.9562L71.9562 19.3555L65.5042 19.3545V25.8066Z" fill="#75563B"/>
<path d="M39.6992 25.8075H46.1513V19.3555H39.6992V25.8075Z" fill="#75563B"/>
<path d="M13.8906 25.8066L20.3427 25.8075V19.3555H13.8906L13.8906 25.8066Z" fill="#231F20"/>
<path d="M20.3438 25.8066H26.7958L26.7958 19.3547H20.3438L20.3438 25.8066Z" fill="#E3C485"/>
<path d="M26.7968 25.8075H33.2472V19.3555H26.7968V25.8075Z" fill="#75563B"/>
<path d="M33.2461 25.8066L39.6981 25.8075V19.3555L33.2461 19.3547L33.2461 25.8066Z" fill="#231F20"/>
<path d="M71.957 25.8075L78.4091 25.8066L78.4091 19.3547H71.957V25.8075Z" fill="#E3C485"/>
<path d="M104.215 187.097H110.665V180.645H104.215V187.097Z" fill="#CA953E"/>
<path d="M91.3086 187.096H97.7606V180.645H91.3086V187.096Z" fill="#CA953E"/>
<path d="M97.7617 187.096H104.214V180.645H97.7617V187.096Z" fill="#CA953E"/>
<path d="M84.8594 187.096H91.3098V180.645H84.8594V187.096Z" fill="#CA953E"/>
<path d="M78.4063 25.8066H84.8583L84.8583 19.3547H78.4062L78.4063 25.8066Z" fill="#CA953E"/>
<path d="M130.02 187.096H136.47V180.645H130.02V187.096Z" fill="#231F20"/>
<path d="M123.57 187.096H130.022V180.645H123.57V187.096Z" fill="#231F20"/>
<path d="M117.117 187.096H123.569V180.645H117.117V187.096Z" fill="#231F20"/>
<path d="M110.664 187.097H117.116V180.645H110.664V187.097Z" fill="#9C6E2A"/>
<path d="M91.3086 25.8066H97.7606L97.7606 19.3547H91.3086L91.3086 25.8066Z" fill="#75563B"/>
<path d="M84.8594 25.8066H91.3098L91.3098 19.3547H84.8594L84.8594 25.8066Z" fill="#231F20"/>
<path d="M97.7617 25.8066H104.214L104.214 19.3547H97.7617L97.7617 25.8066Z" fill="#231F20"/>
<path d="M91.3086 174.194H97.7606V167.742H91.3086V174.194Z" fill="#231F20"/>
<path d="M84.8594 174.194H91.3098V167.742H84.8594V174.194Z" fill="#231F20"/>
<path d="M78.4062 174.194H84.8583V167.742H78.4062V174.194Z" fill="#231F20"/>
<path d="M97.7617 174.194H104.214V167.742H97.7617V174.194Z" fill="#CA953E"/>
<path d="M71.957 174.194H78.4091V167.742H71.957V174.194Z" fill="#231F20"/>
<path d="M117.117 167.741H123.569V161.289H117.117V167.741Z" fill="#231F20"/>
<path d="M65.5041 174.194H71.957V167.742H65.5041V174.194Z" fill="#231F20"/>
<path d="M117.117 174.194H123.569V167.742H117.117V174.194Z" fill="#231F20"/>
<path d="M110.664 174.194H117.116V167.742H110.664V174.194Z" fill="#CA953E"/>
<path d="M104.215 174.194H110.665V167.742H104.215V174.194Z" fill="#CA953E"/>
<path d="M20.3438 174.194H26.7958V167.742H20.3438V174.194Z" fill="#231F20"/>
<path d="M26.793 174.194H33.245V167.742H26.793V174.194Z" fill="#CA953E"/>
<path d="M39.6953 174.194H46.1473V167.742H39.6953V174.194Z" fill="#C2A26A"/>
<path d="M46.1484 174.194H52.6005V167.742H46.1484V174.194Z" fill="#C2A26A"/>
<path d="M52.6017 174.194H59.0537V167.742H52.6017V174.194Z" fill="#E3C485"/>
<path d="M33.2461 174.194H39.6965V167.742H33.2461V174.194Z" fill="#231F20"/>
<path d="M59.0537 174.194H65.5041V167.742H59.0537V174.194Z" fill="#E3C485"/>
<path d="M110.664 96.7743H117.116V90.3223H110.664V96.7743Z" fill="#231F20"/>
<path d="M117.117 161.289H123.569V154.838H117.117V161.289Z" fill="#231F20"/>
<path d="M110.664 109.677H117.116V103.227H110.664V109.677Z" fill="#231F20"/>
<path d="M110.664 116.128H117.116V109.676H110.664V116.128Z" fill="#231F20"/>
<path d="M110.664 129.031H117.116V122.58H110.664V129.031Z" fill="#231F20"/>
<path d="M110.664 122.58H117.116V116.129H110.664V122.58Z" fill="#231F20"/>
<path d="M110.664 90.3212H117.116V83.8691H110.664V90.3212Z" fill="#231F20"/>
<path d="M110.664 83.8691H117.116L117.116 77.418H110.664L110.664 83.8691Z" fill="#231F20"/>
<path d="M104.215 167.741H110.665V161.29H104.215V167.741Z" fill="#CA953E"/>
<path d="M97.7617 167.741H104.214V161.29H97.7617V167.741Z" fill="#CA953E"/>
<path d="M110.664 167.741H117.116V161.289H110.664V167.741Z" fill="#231F20"/>
<path d="M91.3086 167.741H97.7606V161.29H91.3086V167.741Z" fill="#CA953E"/>
<path d="M110.664 141.934H117.116V135.482H110.664V141.934Z" fill="#231F20"/>
<path d="M110.664 148.388H117.116V141.936H110.664V148.388Z" fill="#CA953E"/>
<path d="M110.664 161.289H117.116V154.838H110.664V161.289Z" fill="#CA953E"/>
<path d="M110.664 135.482H117.116V129.031H110.664V135.482Z" fill="#CA953E"/>
<path d="M110.664 103.225H117.116V96.7743H110.664V103.225Z" fill="#231F20"/>
<path d="M33.2461 45.1602H39.6965L39.6965 38.709H33.2461L33.2461 45.1602Z" fill="#E3C485"/>
<path d="M26.793 45.1602H33.245L33.245 38.709H26.793L26.793 45.1602Z" fill="#E3C485"/>
<path d="M39.6953 45.1602H46.1473L46.1474 38.709H39.6953L39.6953 45.1602Z" fill="#E3C485"/>
<path d="M59.0547 45.161L65.5067 45.1602L65.5067 38.709H59.0547V45.161Z" fill="#E3C485"/>
<path d="M52.6017 45.1602H59.0537L59.0547 38.709L52.6017 38.709L52.6017 45.1602Z" fill="#E3C485"/>
<path d="M46.1484 45.1602H52.6005L52.6005 38.709H46.1485L46.1484 45.1602Z" fill="#E3C485"/>
<path d="M7.44141 45.1602H13.8918L13.8918 38.709H7.44142L7.44141 45.1602Z" fill="#3C2516"/>
<path d="M20.3438 45.1602H26.7958L26.7958 38.709H20.3438L20.3438 45.1602Z" fill="#3C2516"/>
<path d="M0.988281 45.1602H7.44031L7.44032 38.709H0.988297L0.988281 45.1602Z" fill="#231F20"/>
<path d="M13.8906 45.1602H20.341L20.3411 38.709H13.8906L13.8906 45.1602Z" fill="#3C2516"/>
<path d="M71.957 45.161L78.4091 45.1602L78.4091 38.709H71.957V45.161Z" fill="#CA953E"/>
<path d="M97.7617 45.1602H104.214L104.214 38.709H97.7617L97.7617 45.1602Z" fill="#231F20"/>
<path d="M65.5041 45.1602H71.9562L71.957 38.709L65.5042 38.709L65.5041 45.1602Z" fill="#E3C485"/>
<path d="M91.3086 45.1602H97.7606L97.7606 38.709H91.3086L91.3086 45.1602Z" fill="#231F20"/>
<path d="M78.4062 45.1602H84.8583L84.8583 38.709H78.4063L78.4062 45.1602Z" fill="#CA953E"/>
<path d="M84.8594 45.1602H91.3098L91.3098 38.709H84.8594L84.8594 45.1602Z" fill="#CA953E"/>
<path d="M110.664 154.838H117.116V148.388H110.664V154.838Z" fill="#231F20"/>
<path d="M91.3086 180.645H97.7606V174.194H91.3086V180.645Z" fill="#CA953E"/>
<path d="M78.4062 180.645H84.8583V174.194H78.4062V180.645Z" fill="#CA953E"/>
<path d="M84.8594 180.645H91.3098V174.194H84.8594V180.645Z" fill="#CA953E"/>
<path d="M71.957 180.645H78.4091V174.194H71.957V180.645Z" fill="#9C6E2A"/>
<path d="M65.5042 180.644H71.9562V174.193L65.5041 174.194L65.5042 180.644Z" fill="#231F20"/>
<path d="M110.664 180.645H117.116V174.194H110.664V180.645Z" fill="#231F20"/>
<path d="M117.117 180.645H123.569V174.194H117.117V180.645Z" fill="#231F20"/>
<path d="M59.0547 180.645H65.5051L65.5051 174.193H59.0547L59.0547 180.645Z" fill="#C2A26A"/>
<path d="M104.215 180.645H110.665V174.194H104.215V180.645Z" fill="#CA953E"/>
<path d="M97.7617 180.645H104.214V174.194H97.7617V180.645Z" fill="#CA953E"/>
<path d="M26.793 180.645H33.245V174.194H26.793V180.645Z" fill="#CA953E"/>
<path d="M20.3438 180.644H26.7958L26.7958 174.194H20.3438L20.3438 180.644Z" fill="#231F20"/>
<path d="M46.1484 180.645H52.6005V174.194H46.1484V180.645Z" fill="#C2A26A"/>
<path d="M39.6953 180.645H46.1473V174.194H39.6953V180.645Z" fill="#231F20"/>
<path d="M52.6017 180.645L59.0537 180.644L59.0537 174.194H52.6017V180.645Z" fill="#C2A26A"/>
<path d="M33.2461 180.645H39.6965V174.194H33.2461V180.645Z" fill="#9C6E2A"/>
<path d="M117.117 141.934H123.569V135.482H117.117V141.934Z" fill="#231F20"/>
<path d="M117.117 135.482H123.569V129.031H117.117V135.482Z" fill="#231F20"/>
<path d="M117.117 148.388H123.569V141.936H117.117V148.388Z" fill="#231F20"/>
<path d="M39.6953 38.709H46.1474V32.2587H39.6953V38.709Z" fill="#75563B"/>
<path d="M7.44142 38.709H13.8918V32.2587H7.44142V38.709Z" fill="#D6AB50"/>
<path d="M13.8906 38.709H20.3411V32.2587H13.8906V38.709Z" fill="#CA953E"/>
<path d="M0.988297 38.709H7.44032L7.44031 32.2578H0.988281L0.988297 38.709Z" fill="#231F20"/>
<path d="M20.3438 38.709H26.7958V32.2587H20.3438V38.709Z" fill="#E3C485"/>
<path d="M26.793 38.709H33.245V32.2587H26.793V38.709Z" fill="#75563B"/>
<path d="M33.2461 38.709H39.6965V32.2587H33.2461V38.709Z" fill="#75563B"/>
<path d="M117.117 154.838H123.569V148.388H117.117V154.838Z" fill="#231F20"/>
<path d="M46.1485 38.709H52.6005L52.6005 32.2578H46.1484L46.1485 38.709Z" fill="#E3C485"/>
<path d="M71.957 38.709H78.4091V32.2587L71.957 32.2578L71.957 38.709Z" fill="#E3C485"/>
<path d="M78.4063 38.709H84.8583V32.2587H78.4063V38.709Z" fill="#CA953E"/>
<path d="M84.8594 38.709H91.3098V32.2587H84.8594V38.709Z" fill="#CA953E"/>
<path d="M91.3086 38.709H97.7606V32.2587H91.3086V38.709Z" fill="#CA953E"/>
<path d="M97.7617 38.709H104.214V32.2587H97.7617V38.709Z" fill="#231F20"/>
<path d="M52.6017 38.709L59.0537 38.7082L59.0537 32.2586H52.6017V38.709Z" fill="#75563B"/>
<path d="M59.0537 38.7082H65.5051V32.2578H59.0547L59.0537 38.7082Z" fill="#75563B"/>
<path d="M65.5042 38.709L71.9562 38.7082L71.9562 32.2586H65.5042V38.709Z" fill="#75563B"/>
</svg>
