<svg width="440" height="200" viewBox="0 0 440 200" fill="none" xmlns="http://www.w3.org/2000/svg">
<path d="M343.82 76.1895V85.7109H334.299V76.1895H343.82Z" fill="white"/>
<path d="M372.379 95.2305V104.769H362.857V95.2305H372.379Z" fill="white"/>
<path d="M181.916 47.6152V57.1535H172.395V47.6152H181.916Z" fill="white"/>
<path d="M172.391 57.1543V66.6673H162.869V57.1543H172.391Z" fill="white"/>
<path d="M220.006 9.53906V19.0521H210.484V9.53906H220.006Z" fill="white"/>
<path d="M439.05 171.42V180.941H429.512V171.42H439.05Z" fill="#CEE0E0"/>
<path d="M439.05 161.898V171.42H429.512V161.898H439.05Z" fill="#CEE0E0"/>
<path d="M429.514 171.42V180.941H419.992V171.42H429.514Z" fill="#CEE0E0"/>
<path d="M429.514 161.898V171.42H419.992V161.898H429.514Z" fill="#CEE0E0"/>
<path d="M429.514 152.385V161.898H419.992V152.385H429.514Z" fill="#F2F2F2"/>
<path d="M419.994 171.42V180.941H410.473V171.42H419.994Z" fill="#CEE0E0"/>
<path d="M419.994 161.898V171.42H410.473V161.898H419.994Z" fill="#CEE0E0"/>
<path d="M419.994 152.385V161.898H410.473V152.385H419.994Z" fill="#F2F2F2"/>
<path d="M410.473 171.42V180.941L400.959 180.941V171.42L410.473 171.42Z" fill="#CEE0E0"/>
<path d="M410.473 161.898V171.42L400.959 171.42L400.959 161.898H410.473Z" fill="#CEE0E0"/>
<path d="M410.473 152.385L410.472 161.898L400.959 161.898L400.959 152.385L410.473 152.385Z" fill="#F2F2F2"/>
<path d="M410.472 142.846V152.384L400.959 152.385L400.959 142.846H410.472Z" fill="#F2F2F2"/>
<path d="M400.955 171.42V180.941H391.434V171.42H400.955Z" fill="#CEE0E0"/>
<path d="M400.955 161.898L400.955 171.42H391.434L391.434 161.898H400.955Z" fill="#CEE0E0"/>
<path d="M400.955 152.385L400.955 161.898H391.434L391.434 152.385H400.955Z" fill="#F2F2F2"/>
<path d="M400.955 142.846L400.955 152.385H391.434L391.434 142.846H400.955Z" fill="#F2F2F2"/>
<path d="M400.955 133.324V142.846H391.434V133.324H400.955Z" fill="#F2F2F2"/>
<path d="M391.434 171.42V180.941L381.895 180.941V171.42L391.434 171.42Z" fill="#CEE0E0"/>
<path d="M391.434 161.898L391.434 171.42L381.895 171.42V161.898H391.434Z" fill="#CEE0E0"/>
<path d="M391.434 152.385L391.433 161.898L381.895 161.898V152.385L391.434 152.385Z" fill="#CEE0E0"/>
<path d="M391.434 142.846L391.434 152.385L381.895 152.385V142.846H391.434Z" fill="#F2F2F2"/>
<path d="M391.434 133.324V142.846H381.895V133.324H391.434Z" fill="#F2F2F2"/>
<path d="M391.433 123.805V133.326H381.895V123.805H391.433Z" fill="#F2F2F2"/>
<path d="M381.898 180.939V190.461H372.377V180.939H381.898Z" fill="#CEE0E0"/>
<path d="M381.898 171.42V180.941H372.377V171.42H381.898Z" fill="#CEE0E0"/>
<path d="M381.898 161.898V171.42H372.377V161.898H381.898Z" fill="#CEE0E0"/>
<path d="M381.898 152.385V161.898H372.377V152.385H381.898Z" fill="#CEE0E0"/>
<path d="M381.898 142.846V152.385H372.377V142.846H381.898Z" fill="#F2F2F2"/>
<path d="M381.898 133.324V142.846H372.377V133.324H381.898Z" fill="#F2F2F2"/>
<path d="M381.898 123.805V133.326H372.377V123.805H381.898Z" fill="#CEE0E0"/>
<path d="M372.379 190.461V199.999H362.857V190.461H372.379Z" fill="#CEE0E0"/>
<path d="M372.379 180.939V190.461H362.857V180.939H372.379Z" fill="#CEE0E0"/>
<path d="M372.379 171.42V180.941H362.857V171.42H372.379Z" fill="#CEE0E0"/>
<path d="M372.379 161.898V171.42H362.857V161.898H372.379Z" fill="#CEE0E0"/>
<path d="M372.379 152.385V161.898H362.857V152.385H372.379Z" fill="#CEE0E0"/>
<path d="M372.379 142.846V152.385H362.857V142.846H372.379Z" fill="#CEE0E0"/>
<path d="M372.379 133.324V142.846H362.857V133.324H372.379Z" fill="#CEE0E0"/>
<path d="M372.379 123.805V133.326H362.857V123.805H372.379Z" fill="#CEE0E0"/>
<path d="M372.379 114.291V123.805H362.857V114.291H372.379Z" fill="#F2F2F2"/>
<path d="M372.379 104.769V114.291H362.857V104.769H372.379Z" fill="white"/>
<path d="M362.853 190.461V199.999H353.332V190.461H362.853Z" fill="#CEE0E0"/>
<path d="M362.853 180.939V190.461H353.332V180.939H362.853Z" fill="#CEE0E0"/>
<path d="M362.853 171.42V180.941H353.332V171.42H362.853Z" fill="#CEE0E0"/>
<path d="M362.853 161.898V171.42H353.332V161.898H362.853Z" fill="#CEE0E0"/>
<path d="M362.853 152.385V161.898H353.332V152.385H362.853Z" fill="#CEE0E0"/>
<path d="M362.853 142.846V152.385H353.332V142.846H362.853Z" fill="#CEE0E0"/>
<path d="M362.853 133.324V142.846H353.332V133.324H362.853Z" fill="#CEE0E0"/>
<path d="M362.853 123.805V133.326H353.332V123.805H362.853Z" fill="#CEE0E0"/>
<path d="M362.853 114.291V123.805H353.332V114.291H362.853Z" fill="#CEE0E0"/>
<path d="M362.853 104.77V114.291H353.332V104.77H362.853Z" fill="#F2F2F2"/>
<path d="M362.853 95.2305V104.77H353.332V95.2305H362.853Z" fill="white"/>
<path d="M362.853 85.709V95.2305H353.332V85.709H362.853Z" fill="white"/>
<path d="M353.332 190.461V199.999H343.818V190.461H353.332Z" fill="#CEE0E0"/>
<path d="M353.332 180.939V190.461H343.818V180.939H353.332Z" fill="#CEE0E0"/>
<path d="M353.332 171.42V180.941H343.818V171.42H353.332Z" fill="#CEE0E0"/>
<path d="M353.332 161.898V171.42H343.818V161.898H353.332Z" fill="#CEE0E0"/>
<path d="M353.332 152.385V161.898H343.818V152.385H353.332Z" fill="#CEE0E0"/>
<path d="M353.332 142.846L353.331 152.384L343.818 152.385V142.846H353.332Z" fill="#F2F2F2"/>
<path d="M353.332 133.324V142.846H343.818V133.324H353.332Z" fill="#F2F2F2"/>
<path d="M353.332 123.805V133.326H343.818V123.805H353.332Z" fill="#F2F2F2"/>
<path d="M353.332 114.291V123.805H343.818V114.291H353.332Z" fill="#F2F2F2"/>
<path d="M353.332 104.77V114.291H343.818V104.77H353.332Z" fill="#F2F2F2"/>
<path d="M353.332 95.2305L353.331 104.769L343.818 104.77V95.2305H353.332Z" fill="#F2F2F2"/>
<path d="M353.332 85.709V95.2305H343.818V85.709H353.332Z" fill="white"/>
<path d="M343.82 190.461V199.999H334.299V190.461H343.82Z" fill="#CEE0E0"/>
<path d="M343.82 180.939L343.82 190.461H334.299L334.299 180.939H343.82Z" fill="#CEE0E0"/>
<path d="M343.82 171.42V180.941H334.299V171.42H343.82Z" fill="#CEE0E0"/>
<path d="M343.82 161.898L343.82 171.42H334.299L334.299 161.898H343.82Z" fill="#CEE0E0"/>
<path d="M343.82 152.385L343.82 161.898H334.299L334.299 152.385H343.82Z" fill="#CEE0E0"/>
<path d="M343.82 142.846L343.82 152.385H334.299L334.299 142.846H343.82Z" fill="#F2F2F2"/>
<path d="M343.82 133.324V142.846H334.299V133.324H343.82Z" fill="#F2F2F2"/>
<path d="M343.82 123.805V133.326H334.299V123.805H343.82Z" fill="#F2F2F2"/>
<path d="M343.82 114.291L343.82 123.805H334.299L334.299 114.291H343.82Z" fill="#F2F2F2"/>
<path d="M343.82 104.77V114.291H334.299V104.77H343.82Z" fill="#F2F2F2"/>
<path d="M343.82 95.2305V104.77H334.299V95.2305H343.82Z" fill="#F2F2F2"/>
<path d="M343.82 85.709V95.2305H334.299V85.709H343.82Z" fill="white"/>
<path d="M334.299 180.939L334.299 190.461L324.76 190.461V180.939L334.299 180.939Z" fill="#CEE0E0"/>
<path d="M334.299 171.42V180.941L324.76 180.941V171.42L334.299 171.42Z" fill="#CEE0E0"/>
<path d="M334.299 161.898L334.299 171.42L324.76 171.42V161.898H334.299Z" fill="#CEE0E0"/>
<path d="M334.299 152.385L334.298 161.898L324.76 161.898V152.385L334.299 152.385Z" fill="#F2F2F2"/>
<path d="M334.299 142.846L334.298 152.384L324.76 152.385V142.846H334.299Z" fill="#F2F2F2"/>
<path d="M334.299 133.324V142.846H324.76V133.324H334.299Z" fill="#F2F2F2"/>
<path d="M334.299 123.805V133.326L324.76 133.326V123.805L334.299 123.805Z" fill="#F2F2F2"/>
<path d="M334.299 114.291L334.299 123.805L324.76 123.805V114.291H334.299Z" fill="#F2F2F2"/>
<path d="M334.299 104.77V114.291H324.76V104.77H334.299Z" fill="#F2F2F2"/>
<path d="M334.299 95.2305L334.298 104.769L324.76 104.77V95.2305H334.299Z" fill="#CEE0E0"/>
<path d="M334.299 85.709V95.2305H324.76V85.709H334.299Z" fill="#CEE0E0"/>
<path d="M334.299 76.1895V85.7109H324.76V76.1895H334.299Z" fill="white"/>
<path d="M334.298 66.666V76.1874H324.76V66.666H334.298Z" fill="white"/>
<path d="M334.298 57.1543V66.6673H324.76V57.1543H334.298Z" fill="white"/>
<path d="M334.298 47.6152V57.1543H324.76V47.6152H334.298Z" fill="white"/>
<path d="M334.298 38.0938V47.6152H324.76V38.0938H334.298Z" fill="white"/>
<path d="M334.298 28.5742V38.0956H324.76V28.5742H334.298Z" fill="white"/>
<path d="M324.764 171.42V180.941H315.242V171.42H324.764Z" fill="#CEE0E0"/>
<path d="M324.764 161.898V171.42H315.242V161.898H324.764Z" fill="#CEE0E0"/>
<path d="M324.764 152.385V161.898H315.242V152.385H324.764Z" fill="#F2F2F2"/>
<path d="M324.764 142.846V152.385H315.242V142.846H324.764Z" fill="#F2F2F2"/>
<path d="M324.764 133.324V142.846H315.242V133.324H324.764Z" fill="#F2F2F2"/>
<path d="M324.764 123.805V133.326H315.242V123.805H324.764Z" fill="#F2F2F2"/>
<path d="M324.764 114.291V123.805H315.242V114.291H324.764Z" fill="#F2F2F2"/>
<path d="M324.764 104.77V114.291H315.242V104.77H324.764Z" fill="#F2F2F2"/>
<path d="M324.764 95.2305V104.77H315.242V95.2305H324.764Z" fill="#CEE0E0"/>
<path d="M324.764 85.709V95.2305H315.242V85.709H324.764Z" fill="#F2F2F2"/>
<path d="M324.764 76.1895V85.7109H315.242V76.1895H324.764Z" fill="#F2F2F2"/>
<path d="M324.764 66.666V76.1874H315.242V66.666H324.764Z" fill="#F2F2F2"/>
<path d="M324.764 57.1543V66.6673H315.242V57.1543H324.764Z" fill="#F2F2F2"/>
<path d="M324.764 47.6152V57.1543H315.242V47.6152H324.764Z" fill="#F2F2F2"/>
<path d="M324.764 38.0938V47.6152H315.242V38.0938H324.764Z" fill="#F2F2F2"/>
<path d="M324.764 28.5742V38.0956H315.242V28.5742H324.764Z" fill="white"/>
<path d="M324.764 19.0508V28.5722H315.242V19.0508H324.764Z" fill="white"/>
<path d="M315.242 171.42V180.941H305.729V171.42H315.242Z" fill="#CEE0E0"/>
<path d="M315.242 161.898V171.42H305.729V161.898H315.242Z" fill="#CEE0E0"/>
<path d="M315.242 152.385V161.898H305.729V152.385H315.242Z" fill="#CEE0E0"/>
<path d="M315.242 142.846L315.242 152.384L305.729 152.385V142.846H315.242Z" fill="#F2F2F2"/>
<path d="M315.242 133.324V142.846H305.729V133.324H315.242Z" fill="#F2F2F2"/>
<path d="M315.242 123.805V133.326H305.729V123.805H315.242Z" fill="#F2F2F2"/>
<path d="M315.242 114.291V123.805H305.729V114.291H315.242Z" fill="#F2F2F2"/>
<path d="M315.242 104.77V114.291H305.729V104.77H315.242Z" fill="#CEE0E0"/>
<path d="M315.242 95.2305L315.242 104.769L305.729 104.77V95.2305H315.242Z" fill="#CEE0E0"/>
<path d="M315.242 85.709V95.2305H305.729V85.709H315.242Z" fill="#F2F2F2"/>
<path d="M315.242 76.1895V85.7109H305.729V76.1895H315.242Z" fill="#F2F2F2"/>
<path d="M315.242 66.666V76.1874H305.729V66.666H315.242Z" fill="#F2F2F2"/>
<path d="M315.242 57.1543V66.6673H305.729V57.1543H315.242Z" fill="#F2F2F2"/>
<path d="M315.242 47.6152L315.242 57.1535L305.729 57.1543V47.6152H315.242Z" fill="#F2F2F2"/>
<path d="M315.242 38.0938V47.6152H305.729V38.0938H315.242Z" fill="#F2F2F2"/>
<path d="M315.242 28.5742V38.0956H305.729V28.5742H315.242Z" fill="#F2F2F2"/>
<path d="M315.242 19.0508V28.5722H305.729V19.0508H315.242Z" fill="white"/>
<path d="M315.242 9.53906V19.0521H305.729V9.53906H315.242Z" fill="white"/>
<path d="M305.725 171.42V180.941H296.203V171.42H305.725Z" fill="#CEE0E0"/>
<path d="M305.725 161.898V171.42H296.203V161.898H305.725Z" fill="#CEE0E0"/>
<path d="M305.725 152.385V161.898H296.203V152.385H305.725Z" fill="#CEE0E0"/>
<path d="M305.725 142.846V152.385H296.203V142.846H305.725Z" fill="#CEE0E0"/>
<path d="M305.725 133.324V142.846H296.203V133.324H305.725Z" fill="#CEE0E0"/>
<path d="M305.725 123.805V133.326H296.203V123.805H305.725Z" fill="#F2F2F2"/>
<path d="M305.725 114.291V123.805H296.203V114.291H305.725Z" fill="#CEE0E0"/>
<path d="M305.725 104.77V114.291H296.203V104.77H305.725Z" fill="#CEE0E0"/>
<path d="M305.725 95.2305V104.77H296.203V95.2305H305.725Z" fill="#CEE0E0"/>
<path d="M305.725 85.709V95.2305H296.203V85.709H305.725Z" fill="#F2F2F2"/>
<path d="M305.725 76.1895V85.7109H296.203V76.1895H305.725Z" fill="#F2F2F2"/>
<path d="M305.725 66.666V76.1874H296.203V66.666H305.725Z" fill="#F2F2F2"/>
<path d="M305.725 57.1543V66.6673H296.203V57.1543H305.725Z" fill="white"/>
<path d="M305.725 47.6152V57.1543H296.203V47.6152H305.725Z" fill="white"/>
<path d="M305.725 38.0938V47.6152H296.203V38.0938H305.725Z" fill="white"/>
<path d="M305.725 28.5742V38.0956H296.203V28.5742H305.725Z" fill="#F2F2F2"/>
<path d="M305.725 19.0508V28.5722H296.203V19.0508H305.725Z" fill="#F2F2F2"/>
<path d="M305.725 9.53906V19.0521H296.203V9.53906H305.725Z" fill="white"/>
<path d="M305.725 0V9.53906H296.203V0H305.725Z" fill="white"/>
<path d="M296.205 171.42V180.941H286.684V171.42H296.205Z" fill="#CEE0E0"/>
<path d="M296.205 161.898V171.42H286.684V161.898H296.205Z" fill="#CEE0E0"/>
<path d="M296.205 152.385V161.898H286.684V152.385H296.205Z" fill="#CEE0E0"/>
<path d="M296.205 142.846V152.385H286.684V142.846H296.205Z" fill="#CEE0E0"/>
<path d="M296.205 133.324V142.846H286.684V133.324H296.205Z" fill="#CEE0E0"/>
<path d="M296.205 123.805V133.326H286.684V123.805H296.205Z" fill="#CEE0E0"/>
<path d="M296.205 114.291V123.805H286.684V114.291H296.205Z" fill="#CEE0E0"/>
<path d="M296.205 104.77V114.291H286.684V104.77H296.205Z" fill="#CEE0E0"/>
<path d="M296.205 95.2305V104.77H286.684V95.2305H296.205Z" fill="#CEE0E0"/>
<path d="M296.205 85.709V95.2305H286.684V85.709H296.205Z" fill="#F2F2F2"/>
<path d="M296.205 76.1895V85.7109H286.684V76.1895H296.205Z" fill="#F2F2F2"/>
<path d="M296.205 66.666V76.1874H286.684V66.666H296.205Z" fill="#F2F2F2"/>
<path d="M296.205 57.1543V66.6673H286.684V57.1543H296.205Z" fill="white"/>
<path d="M296.205 47.6152V57.1543H286.684V47.6152H296.205Z" fill="white"/>
<path d="M296.205 38.0938V47.6152H286.684V38.0938H296.205Z" fill="white"/>
<path d="M296.205 28.5742V38.0956H286.684V28.5742H296.205Z" fill="white"/>
<path d="M296.205 19.0508V28.5722H286.684V19.0508H296.205Z" fill="#F2F2F2"/>
<path d="M296.205 9.53906V19.0521H286.684V9.53906H296.205Z" fill="#F2F2F2"/>
<path d="M296.205 0V9.53906H286.684V0H296.205Z" fill="white"/>
<path d="M286.684 171.42V180.941H277.145V171.42H286.684Z" fill="#CEE0E0"/>
<path d="M286.684 161.898V171.42H277.145V161.898H286.684Z" fill="#CEE0E0"/>
<path d="M286.684 152.385L286.683 161.898L277.145 161.898V152.385H286.684Z" fill="#CEE0E0"/>
<path d="M286.684 142.846L286.683 152.384L277.145 152.385V142.846H286.684Z" fill="#CEE0E0"/>
<path d="M286.684 133.324V142.846H277.145V133.324H286.684Z" fill="#CEE0E0"/>
<path d="M286.684 123.805V133.326H277.145V123.805H286.684Z" fill="#CEE0E0"/>
<path d="M286.684 114.291L286.683 123.804L277.145 123.805V114.291H286.684Z" fill="#CEE0E0"/>
<path d="M286.684 104.77V114.291H277.145V104.77H286.684Z" fill="#CEE0E0"/>
<path d="M286.684 95.2305L286.683 104.769L277.145 104.77V95.2305H286.684Z" fill="#CEE0E0"/>
<path d="M286.684 85.709V95.2305H277.145V85.709H286.684Z" fill="#F2F2F2"/>
<path d="M286.684 76.1895V85.7109H277.145V76.1895H286.684Z" fill="#F2F2F2"/>
<path d="M286.684 66.666V76.1874H277.145V66.666H286.684Z" fill="#F2F2F2"/>
<path d="M286.684 57.1543V66.6673H277.145V57.1543H286.684Z" fill="white"/>
<path d="M286.684 47.6152L286.683 57.1535L277.145 57.1543V47.6152H286.684Z" fill="white"/>
<path d="M286.684 38.0938V47.6152H277.145V38.0938H286.684Z" fill="white"/>
<path d="M286.684 28.5742V38.0956H277.145V28.5742H286.684Z" fill="white"/>
<path d="M286.684 19.0508V28.5722H277.145V19.0508H286.684Z" fill="#F2F2F2"/>
<path d="M286.684 9.53906V19.0521H277.145V9.53906H286.684Z" fill="#F2F2F2"/>
<path d="M286.684 0L286.683 9.53823L277.145 9.53906V0H286.684Z" fill="white"/>
<path d="M277.146 171.42V180.941H267.625V171.42H277.146Z" fill="#CEE0E0"/>
<path d="M277.146 161.898V171.42H267.625V161.898H277.146Z" fill="#CEE0E0"/>
<path d="M277.146 152.385V161.898H267.625V152.385H277.146Z" fill="#CEE0E0"/>
<path d="M277.146 142.846V152.385H267.625V142.846H277.146Z" fill="#CEE0E0"/>
<path d="M277.146 133.324V142.846H267.625V133.324H277.146Z" fill="#F2F2F2"/>
<path d="M277.146 123.805V133.326H267.625V123.805H277.146Z" fill="#F2F2F2"/>
<path d="M277.146 114.291V123.805H267.625V114.291H277.146Z" fill="#F2F2F2"/>
<path d="M277.146 104.77V114.291H267.625V104.77H277.146Z" fill="#F2F2F2"/>
<path d="M277.146 95.2305V104.77H267.625V95.2305H277.146Z" fill="#CEE0E0"/>
<path d="M277.146 85.709V95.2305H267.625V85.709H277.146Z" fill="#CEE0E0"/>
<path d="M277.146 76.1895V85.7109H267.625V76.1895H277.146Z" fill="#F2F2F2"/>
<path d="M277.146 66.666V76.1874H267.625V66.666H277.146Z" fill="#F2F2F2"/>
<path d="M277.146 57.1543V66.6673H267.625V57.1543H277.146Z" fill="#F2F2F2"/>
<path d="M277.146 47.6152V57.1543H267.625V47.6152H277.146Z" fill="white"/>
<path d="M277.146 38.0938V47.6152H267.625V38.0938H277.146Z" fill="white"/>
<path d="M277.146 28.5742V38.0956H267.625V28.5742H277.146Z" fill="white"/>
<path d="M277.146 19.0508V28.5722H267.625V19.0508H277.146Z" fill="#F2F2F2"/>
<path d="M277.146 9.53906V19.0521H267.625V9.53906H277.146Z" fill="#F2F2F2"/>
<path d="M277.146 0V9.53906H267.625V0H277.146Z" fill="white"/>
<path d="M267.621 171.42V180.941H258.1V171.42H267.621Z" fill="#CEE0E0"/>
<path d="M267.621 161.898V171.42H258.1V161.898H267.621Z" fill="#CEE0E0"/>
<path d="M267.621 152.385V161.898H258.1V152.385H267.621Z" fill="#CEE0E0"/>
<path d="M267.621 142.846V152.385H258.1V142.846H267.621Z" fill="#CEE0E0"/>
<path d="M267.621 133.324V142.846H258.1V133.324H267.621Z" fill="#F2F2F2"/>
<path d="M267.621 123.805V133.326H258.1V123.805H267.621Z" fill="#F2F2F2"/>
<path d="M267.621 114.291V123.805H258.1V114.291H267.621Z" fill="#F2F2F2"/>
<path d="M267.621 104.77V114.291H258.1V104.77H267.621Z" fill="#F2F2F2"/>
<path d="M267.621 95.2305V104.77H258.1V95.2305H267.621Z" fill="#F2F2F2"/>
<path d="M267.621 85.709V95.2305H258.1V85.709H267.621Z" fill="#CEE0E0"/>
<path d="M267.621 76.1895V85.7109H258.1V76.1895H267.621Z" fill="#CEE0E0"/>
<path d="M267.621 66.666V76.1874H258.1V66.666H267.621Z" fill="#F2F2F2"/>
<path d="M267.621 57.1543V66.6673H258.1V57.1543H267.621Z" fill="#F2F2F2"/>
<path d="M267.621 47.6152V57.1543H258.1V47.6152H267.621Z" fill="#F2F2F2"/>
<path d="M267.621 38.0938V47.6152H258.1V38.0938H267.621Z" fill="#F2F2F2"/>
<path d="M267.621 28.5742V38.0956H258.1V28.5742H267.621Z" fill="#F2F2F2"/>
<path d="M267.621 19.0508V28.5722H258.1V19.0508H267.621Z" fill="#F2F2F2"/>
<path d="M267.621 9.53906V19.0521H258.1V9.53906H267.621Z" fill="#F2F2F2"/>
<path d="M267.621 0V9.53906H258.1V0H267.621Z" fill="white"/>
<path d="M258.101 171.42V180.941H248.588V171.42H258.101Z" fill="#CEE0E0"/>
<path d="M258.101 161.898V171.42H248.588V161.898H258.101Z" fill="#CEE0E0"/>
<path d="M258.101 152.385V161.898H248.588V152.385H258.101Z" fill="#CEE0E0"/>
<path d="M258.101 142.846V152.385H248.588V142.846H258.101Z" fill="#F2F2F2"/>
<path d="M258.101 133.324V142.846H248.588V133.324H258.101Z" fill="#F2F2F2"/>
<path d="M258.101 123.805V133.326H248.588V123.805H258.101Z" fill="#F2F2F2"/>
<path d="M258.101 114.291V123.805H248.588V114.291H258.101Z" fill="#F2F2F2"/>
<path d="M258.101 104.77V114.291H248.588V104.77H258.101Z" fill="#F2F2F2"/>
<path d="M258.101 95.2305V104.77H248.588V95.2305H258.101Z" fill="#F2F2F2"/>
<path d="M258.101 85.709V95.2305H248.588V85.709H258.101Z" fill="#F2F2F2"/>
<path d="M258.101 76.1895V85.7109H248.588V76.1895H258.101Z" fill="#CEE0E0"/>
<path d="M258.101 66.666V76.1874H248.588V66.666H258.101Z" fill="#F2F2F2"/>
<path d="M258.101 57.1543V66.6673H248.588V57.1543H258.101Z" fill="#F2F2F2"/>
<path d="M258.101 47.6152V57.1543H248.588V47.6152H258.101Z" fill="#F2F2F2"/>
<path d="M258.101 38.0938V47.6152H248.588V38.0938H258.101Z" fill="#F2F2F2"/>
<path d="M258.101 28.5742V38.0956H248.588V28.5742H258.101Z" fill="#F2F2F2"/>
<path d="M258.101 19.0508V28.5722H248.588V19.0508H258.101Z" fill="#F2F2F2"/>
<path d="M258.101 9.53906V19.0521H248.588V9.53906H258.101Z" fill="#F2F2F2"/>
<path d="M258.101 0V9.53906H248.588V0H258.101Z" fill="white"/>
<path d="M248.59 171.42V180.941H239.068V171.42H248.59Z" fill="#CEE0E0"/>
<path d="M248.59 161.898V171.42H239.068V161.898H248.59Z" fill="#CEE0E0"/>
<path d="M248.59 152.385V161.898H239.068V152.385H248.59Z" fill="#CEE0E0"/>
<path d="M248.59 142.846V152.385H239.068V142.846H248.59Z" fill="#F2F2F2"/>
<path d="M248.59 133.324V142.846H239.068V133.324H248.59Z" fill="#F2F2F2"/>
<path d="M248.59 123.805V133.326H239.068V123.805H248.59Z" fill="#F2F2F2"/>
<path d="M248.59 114.291V123.805H239.068V114.291H248.59Z" fill="#CEE0E0"/>
<path d="M248.59 104.77V114.291H239.068V104.77H248.59Z" fill="#CEE0E0"/>
<path d="M248.59 95.2305V104.77H239.068V95.2305H248.59Z" fill="#F2F2F2"/>
<path d="M248.59 85.709V95.2305H239.068V85.709H248.59Z" fill="#F2F2F2"/>
<path d="M248.59 76.1895V85.7109H239.068V76.1895H248.59Z" fill="#F2F2F2"/>
<path d="M248.59 66.666V76.1874H239.068V66.666H248.59Z" fill="#F2F2F2"/>
<path d="M248.59 57.1543V66.6673H239.068V57.1543H248.59Z" fill="#F2F2F2"/>
<path d="M248.59 47.6152V57.1543H239.068V47.6152H248.59Z" fill="#F2F2F2"/>
<path d="M248.59 38.0938V47.6152H239.068V38.0938H248.59Z" fill="#F2F2F2"/>
<path d="M248.59 28.5742V38.0956H239.068V28.5742H248.59Z" fill="#F2F2F2"/>
<path d="M248.59 19.0508V28.5722H239.068V19.0508H248.59Z" fill="#F2F2F2"/>
<path d="M248.59 9.53906V19.0521H239.068V9.53906H248.59Z" fill="white"/>
<path d="M248.59 0V9.53906H239.068V0H248.59Z" fill="white"/>
<path d="M239.068 171.42V180.941H229.529V171.42H239.068Z" fill="#CEE0E0"/>
<path d="M239.068 161.898V171.42H229.529V161.898H239.068Z" fill="#CEE0E0"/>
<path d="M239.068 152.385L239.068 161.898L229.529 161.898V152.385H239.068Z" fill="#CEE0E0"/>
<path d="M239.068 142.846L239.068 152.384L229.529 152.385V142.846H239.068Z" fill="#F2F2F2"/>
<path d="M239.068 133.324V142.846H229.529V133.324H239.068Z" fill="#F2F2F2"/>
<path d="M239.068 123.805V133.326H229.529V123.805H239.068Z" fill="#CEE0E0"/>
<path d="M239.068 114.291L239.068 123.804L229.529 123.805V114.291H239.068Z" fill="#CEE0E0"/>
<path d="M239.068 104.77V114.291H229.529V104.77H239.068Z" fill="#F2F2F2"/>
<path d="M239.068 95.2305L239.068 104.769L229.529 104.77V95.2305H239.068Z" fill="#F2F2F2"/>
<path d="M239.068 85.709V95.2305H229.529V85.709H239.068Z" fill="#F2F2F2"/>
<path d="M239.068 76.1895V85.7109H229.529V76.1895H239.068Z" fill="#F2F2F2"/>
<path d="M239.068 66.666V76.1874H229.529V66.666H239.068Z" fill="#F2F2F2"/>
<path d="M239.068 57.1543V66.6673H229.529V57.1543H239.068Z" fill="#F2F2F2"/>
<path d="M239.068 47.6152L239.068 57.1535L229.529 57.1543V47.6152H239.068Z" fill="#F2F2F2"/>
<path d="M239.068 38.0938V47.6152H229.529V38.0938H239.068Z" fill="#F2F2F2"/>
<path d="M239.068 28.5742V38.0956H229.529V28.5742H239.068Z" fill="#F2F2F2"/>
<path d="M239.068 19.0508V28.5722H229.529V19.0508H239.068Z" fill="#F2F2F2"/>
<path d="M239.068 9.53906V19.0521H229.529V9.53906H239.068Z" fill="white"/>
<path d="M229.531 171.42V180.941H220.01V171.42H229.531Z" fill="#CEE0E0"/>
<path d="M229.531 161.898V171.42H220.01V161.898H229.531Z" fill="#CEE0E0"/>
<path d="M229.531 152.385V161.898H220.01V152.385H229.531Z" fill="#CEE0E0"/>
<path d="M229.531 142.846V152.385H220.01V142.846H229.531Z" fill="#F2F2F2"/>
<path d="M229.531 133.324V142.846H220.01V133.324H229.531Z" fill="#F2F2F2"/>
<path d="M229.531 123.805V133.326H220.01V123.805H229.531Z" fill="#CEE0E0"/>
<path d="M229.531 114.291V123.805H220.01V114.291H229.531Z" fill="#F2F2F2"/>
<path d="M229.531 104.77V114.291H220.01V104.77H229.531Z" fill="#F2F2F2"/>
<path d="M229.531 95.2305V104.77H220.01V95.2305H229.531Z" fill="#F2F2F2"/>
<path d="M229.531 85.709V95.2305H220.01V85.709H229.531Z" fill="#F2F2F2"/>
<path d="M229.531 76.1895V85.7109H220.01V76.1895H229.531Z" fill="white"/>
<path d="M229.531 66.666V76.1874H220.01V66.666H229.531Z" fill="white"/>
<path d="M229.531 57.1543V66.6673H220.01V57.1543H229.531Z" fill="white"/>
<path d="M229.531 47.6152V57.1543H220.01V47.6152H229.531Z" fill="#F2F2F2"/>
<path d="M229.531 38.0938V47.6152H220.01V38.0938H229.531Z" fill="#F2F2F2"/>
<path d="M229.531 28.5742V38.0956H220.01V28.5742H229.531Z" fill="#F2F2F2"/>
<path d="M229.531 19.0508V28.5722H220.01V19.0508H229.531Z" fill="#F2F2F2"/>
<path d="M229.531 9.53906V19.0521H220.01V9.53906H229.531Z" fill="white"/>
<path d="M220.006 180.939V190.461H210.484V180.939H220.006Z" fill="#CEE0E0"/>
<path d="M220.006 171.42V180.941H210.484V171.42H220.006Z" fill="#CEE0E0"/>
<path d="M220.006 161.898V171.42H210.484V161.898H220.006Z" fill="#CEE0E0"/>
<path d="M220.006 152.385V161.898H210.484V152.385H220.006Z" fill="#CEE0E0"/>
<path d="M220.006 142.846V152.385H210.484V142.846H220.006Z" fill="#CEE0E0"/>
<path d="M220.006 133.324V142.846H210.484V133.324H220.006Z" fill="#F2F2F2"/>
<path d="M220.006 123.805V133.326H210.484V123.805H220.006Z" fill="#CEE0E0"/>
<path d="M220.006 114.291V123.805H210.484V114.291H220.006Z" fill="#F2F2F2"/>
<path d="M220.006 104.77V114.291H210.484V104.77H220.006Z" fill="#F2F2F2"/>
<path d="M220.006 95.2305V104.77H210.484V95.2305H220.006Z" fill="#F2F2F2"/>
<path d="M220.006 85.709V95.2305H210.484V85.709H220.006Z" fill="white"/>
<path d="M220.006 76.1895V85.7109H210.484V76.1895H220.006Z" fill="white"/>
<path d="M220.006 66.666V76.1874H210.484V66.666H220.006Z" fill="white"/>
<path d="M220.006 57.1543V66.6673H210.484V57.1543H220.006Z" fill="white"/>
<path d="M220.006 47.6152V57.1543H210.484V47.6152H220.006Z" fill="#F2F2F2"/>
<path d="M220.006 38.0938V47.6152H210.484V38.0938H220.006Z" fill="#F2F2F2"/>
<path d="M220.006 28.5742V38.0956H210.484V28.5742H220.006Z" fill="#F2F2F2"/>
<path d="M220.006 19.0508V28.5722H210.484V19.0508H220.006Z" fill="white"/>
<path d="M210.486 180.939V190.461H200.973V180.939H210.486Z" fill="#CEE0E0"/>
<path d="M210.486 171.42V180.941H200.973V171.42H210.486Z" fill="#CEE0E0"/>
<path d="M210.486 161.898V171.42H200.973V161.898H210.486Z" fill="#CEE0E0"/>
<path d="M210.486 152.385V161.898H200.973V152.385H210.486Z" fill="#CEE0E0"/>
<path d="M210.486 142.846V152.385H200.973V142.846H210.486Z" fill="#CEE0E0"/>
<path d="M210.486 133.324V142.846H200.973V133.324H210.486Z" fill="#CEE0E0"/>
<path d="M210.486 123.805V133.326H200.973V123.805H210.486Z" fill="#CEE0E0"/>
<path d="M210.486 114.291V123.805H200.973V114.291H210.486Z" fill="#CEE0E0"/>
<path d="M210.486 104.77V114.291H200.973V104.77H210.486Z" fill="#F2F2F2"/>
<path d="M210.486 95.2305V104.77H200.973V95.2305H210.486Z" fill="#F2F2F2"/>
<path d="M210.486 85.709V95.2305H200.973V85.709H210.486Z" fill="white"/>
<path d="M210.486 76.1895V85.7109H200.973V76.1895H210.486Z" fill="white"/>
<path d="M210.486 66.666V76.1874H200.973V66.666H210.486Z" fill="white"/>
<path d="M210.486 57.1543V66.6673H200.973V57.1543H210.486Z" fill="white"/>
<path d="M210.486 47.6152V57.1543H200.973V47.6152H210.486Z" fill="#F2F2F2"/>
<path d="M210.486 38.0938V47.6152H200.973V38.0938H210.486Z" fill="#F2F2F2"/>
<path d="M210.486 28.5742V38.0956H200.973V28.5742H210.486Z" fill="white"/>
<path d="M210.486 19.0508V28.5722H200.973V19.0508H210.486Z" fill="white"/>
<path d="M200.975 180.939V190.461H191.453V180.939H200.975Z" fill="#CEE0E0"/>
<path d="M200.975 171.42V180.941H191.453V171.42H200.975Z" fill="#CEE0E0"/>
<path d="M200.975 161.898V171.42H191.453V161.898H200.975Z" fill="#CEE0E0"/>
<path d="M200.975 152.385V161.898H191.453V152.385H200.975Z" fill="#CEE0E0"/>
<path d="M200.975 142.846V152.385H191.453V142.846H200.975Z" fill="#CEE0E0"/>
<path d="M200.975 133.324V142.846H191.453V133.324H200.975Z" fill="#CEE0E0"/>
<path d="M200.975 123.805V133.326H191.453V123.805H200.975Z" fill="#F2F2F2"/>
<path d="M200.975 114.291V123.805H191.453V114.291H200.975Z" fill="#CEE0E0"/>
<path d="M200.975 104.77V114.291H191.453V104.77H200.975Z" fill="#CEE0E0"/>
<path d="M200.975 95.2305V104.77H191.453V95.2305H200.975Z" fill="#F2F2F2"/>
<path d="M200.975 85.709V95.2305H191.453V85.709H200.975Z" fill="#F2F2F2"/>
<path d="M200.975 76.1895V85.7109H191.453V76.1895H200.975Z" fill="white"/>
<path d="M200.975 66.666V76.1874H191.453V66.666H200.975Z" fill="white"/>
<path d="M200.975 57.1543V66.6673H191.453V57.1543H200.975Z" fill="#F2F2F2"/>
<path d="M200.975 47.6152V57.1543H191.453V47.6152H200.975Z" fill="#F2F2F2"/>
<path d="M200.975 38.0938V47.6152H191.453V38.0938H200.975Z" fill="white"/>
<path d="M200.975 28.5742V38.0956H191.453V28.5742H200.975Z" fill="white"/>
<path d="M191.453 171.42V180.941L181.914 180.941V171.42L191.453 171.42Z" fill="#CEE0E0"/>
<path d="M191.453 161.898V171.42L181.914 171.42L181.914 161.898H191.453Z" fill="#CEE0E0"/>
<path d="M191.453 152.385L191.452 161.898L181.914 161.898L181.914 152.385L191.453 152.385Z" fill="#CEE0E0"/>
<path d="M191.453 142.846L191.452 152.384L181.914 152.385L181.914 142.846H191.453Z" fill="#F2F2F2"/>
<path d="M191.453 133.324V142.846H181.914V133.324H191.453Z" fill="#F2F2F2"/>
<path d="M191.453 123.805V133.326L181.914 133.326V123.805L191.453 123.805Z" fill="#F2F2F2"/>
<path d="M191.453 114.291L191.452 123.804L181.914 123.805L181.914 114.291H191.453Z" fill="#F2F2F2"/>
<path d="M191.453 104.77V114.291H181.914V104.77H191.453Z" fill="#F2F2F2"/>
<path d="M191.453 95.2305L191.452 104.769L181.914 104.77V95.2305H191.453Z" fill="#F2F2F2"/>
<path d="M191.453 85.709V95.2305H181.914V85.709H191.453Z" fill="#F2F2F2"/>
<path d="M191.453 76.1895V85.7109H181.914V76.1895H191.453Z" fill="white"/>
<path d="M191.453 66.666V76.1874H181.914V66.666H191.453Z" fill="white"/>
<path d="M191.453 57.1543V66.6673H181.914V57.1543H191.453Z" fill="#F2F2F2"/>
<path d="M191.453 47.6152V57.1543H181.914L181.914 47.6154L191.453 47.6152Z" fill="white"/>
<path d="M191.453 38.0938V47.6152L181.914 47.6154L181.914 38.0938H191.453Z" fill="white"/>
<path d="M181.916 171.42V180.941H172.395V171.42H181.916Z" fill="#CEE0E0"/>
<path d="M181.916 161.898V171.42H172.395V161.898H181.916Z" fill="#CEE0E0"/>
<path d="M181.916 152.385V161.898H172.395V152.385H181.916Z" fill="#CEE0E0"/>
<path d="M181.916 142.846V152.385H172.395V142.846H181.916Z" fill="#F2F2F2"/>
<path d="M181.916 133.324V142.846H172.395V133.324H181.916Z" fill="#F2F2F2"/>
<path d="M181.916 123.805V133.326H172.395V123.805H181.916Z" fill="#CEE0E0"/>
<path d="M181.916 114.291V123.805H172.395V114.291H181.916Z" fill="#CEE0E0"/>
<path d="M181.916 104.77V114.291H172.395V104.77H181.916Z" fill="#F2F2F2"/>
<path d="M181.916 95.2305V104.77H172.395V95.2305H181.916Z" fill="#F2F2F2"/>
<path d="M181.916 85.709V95.2305H172.395V85.709H181.916Z" fill="#F2F2F2"/>
<path d="M181.916 76.1895V85.7109H172.395V76.1895H181.916Z" fill="#F2F2F2"/>
<path d="M181.916 66.666V76.1874H172.395V66.666H181.916Z" fill="#F2F2F2"/>
<path d="M181.916 57.1535V66.6673H172.395V57.1535H181.916Z" fill="white"/>
<path d="M172.391 171.42V180.941H162.869V171.42H172.391Z" fill="#CEE0E0"/>
<path d="M172.391 161.898L172.391 171.42H162.869L162.869 161.898H172.391Z" fill="#CEE0E0"/>
<path d="M172.391 152.385L172.391 161.898H162.869L162.869 152.385H172.391Z" fill="#CEE0E0"/>
<path d="M172.391 142.846L172.391 152.385H162.869L162.869 142.846H172.391Z" fill="#F2F2F2"/>
<path d="M172.391 133.324V142.846H162.869V133.324H172.391Z" fill="#F2F2F2"/>
<path d="M172.391 123.805V133.326H162.869V123.805H172.391Z" fill="#CEE0E0"/>
<path d="M172.391 114.291L172.391 123.805H162.869L162.869 114.291H172.391Z" fill="#F2F2F2"/>
<path d="M172.391 104.77V114.291H162.869V104.77H172.391Z" fill="#F2F2F2"/>
<path d="M172.391 95.2305V104.77H162.869V95.2305H172.391Z" fill="#F2F2F2"/>
<path d="M172.391 85.709V95.2305H162.869V85.709H172.391Z" fill="#F2F2F2"/>
<path d="M172.391 76.1895V85.7109H162.869V76.1895H172.391Z" fill="#F2F2F2"/>
<path d="M172.391 66.666V76.1874H162.869V66.666H172.391Z" fill="white"/>
<path d="M162.871 180.939V190.461H153.35V180.939H162.871Z" fill="#CEE0E0"/>
<path d="M162.871 171.42V180.941H153.35V171.42H162.871Z" fill="#CEE0E0"/>
<path d="M162.871 161.898V171.42H153.35V161.898H162.871Z" fill="#CEE0E0"/>
<path d="M162.871 152.385V161.898H153.35V152.385H162.871Z" fill="#CEE0E0"/>
<path d="M162.871 142.846V152.385H153.35V142.846H162.871Z" fill="#CEE0E0"/>
<path d="M162.871 133.324V142.846H153.35V133.324H162.871Z" fill="#CEE0E0"/>
<path d="M162.871 123.805V133.326H153.35V123.805H162.871Z" fill="#CEE0E0"/>
<path d="M162.871 114.291V123.805H153.35V114.291H162.871Z" fill="#CEE0E0"/>
<path d="M162.871 104.77V114.291H153.35V104.77H162.871Z" fill="#F2F2F2"/>
<path d="M162.871 95.2305V104.77H153.35V95.2305H162.871Z" fill="#F2F2F2"/>
<path d="M162.871 85.709V95.2305H153.35V85.709H162.871Z" fill="#F2F2F2"/>
<path d="M162.871 76.1895V85.7109H153.35V76.1895H162.871Z" fill="#F2F2F2"/>
<path d="M162.871 66.666V76.1874H153.35V66.666H162.871Z" fill="white"/>
<path d="M153.351 180.939V190.461H143.838V180.939H153.351Z" fill="#CEE0E0"/>
<path d="M153.351 171.42V180.941H143.838V171.42H153.351Z" fill="#CEE0E0"/>
<path d="M153.351 161.898V171.42H143.838V161.898H153.351Z" fill="#CEE0E0"/>
<path d="M153.351 152.385V161.898H143.838V152.385H153.351Z" fill="#CEE0E0"/>
<path d="M153.351 142.846V152.385H143.838V142.846H153.351Z" fill="#CEE0E0"/>
<path d="M153.351 133.324V142.846H143.838V133.324H153.351Z" fill="#CEE0E0"/>
<path d="M153.351 123.805V133.326H143.838V123.805H153.351Z" fill="#CEE0E0"/>
<path d="M153.351 114.291V123.805H143.838V114.291H153.351Z" fill="#CEE0E0"/>
<path d="M153.351 104.77V114.291H143.838V104.77H153.351Z" fill="#F2F2F2"/>
<path d="M153.351 95.2305V104.77H143.838V95.2305H153.351Z" fill="#F2F2F2"/>
<path d="M153.351 85.709V95.2305H143.838V85.709H153.351Z" fill="#F2F2F2"/>
<path d="M153.351 76.1895V85.7109H143.838V76.1895H153.351Z" fill="white"/>
<path d="M153.351 66.666V76.1874H143.838V66.666H153.351Z" fill="white"/>
<path d="M143.838 180.939V190.461L134.299 190.461V180.939L143.838 180.939Z" fill="#CEE0E0"/>
<path d="M143.838 171.42V180.941L134.299 180.941V171.42L143.838 171.42Z" fill="#CEE0E0"/>
<path d="M143.838 161.898V171.42L134.299 171.42L134.299 161.898H143.838Z" fill="#CEE0E0"/>
<path d="M143.838 152.385L143.837 161.898L134.299 161.898L134.299 152.385L143.838 152.385Z" fill="#CEE0E0"/>
<path d="M143.838 142.846L143.837 152.384L134.299 152.385L134.299 142.846H143.838Z" fill="#CEE0E0"/>
<path d="M143.838 133.324V142.846H134.299V133.324H143.838Z" fill="#F2F2F2"/>
<path d="M143.838 123.805V133.326L134.299 133.326V123.805L143.838 123.805Z" fill="#F2F2F2"/>
<path d="M143.838 114.291L143.837 123.804L134.299 123.805L134.299 114.291H143.838Z" fill="#F2F2F2"/>
<path d="M143.838 104.77V114.291H134.299V104.77H143.838Z" fill="#F2F2F2"/>
<path d="M143.838 95.2305L143.837 104.769L134.299 104.77V95.2305H143.838Z" fill="#F2F2F2"/>
<path d="M143.838 85.709V95.2305H134.299V85.709H143.838Z" fill="white"/>
<path d="M143.838 76.1895V85.7109H134.299V76.1895H143.838Z" fill="white"/>
<path d="M134.301 171.42V180.941H124.779V171.42H134.301Z" fill="#CEE0E0"/>
<path d="M134.301 161.898L134.301 171.42H124.779L124.779 161.898H134.301Z" fill="#CEE0E0"/>
<path d="M134.301 152.385L134.301 161.898H124.779L124.779 152.385H134.301Z" fill="#CEE0E0"/>
<path d="M134.301 142.846L134.301 152.385H124.779L124.779 142.846H134.301Z" fill="#CEE0E0"/>
<path d="M134.301 133.324V142.846H124.779V133.324H134.301Z" fill="#F2F2F2"/>
<path d="M134.301 123.805V133.326H124.779V123.805H134.301Z" fill="#F2F2F2"/>
<path d="M134.301 114.291L134.301 123.805H124.779L124.779 114.291H134.301Z" fill="#F2F2F2"/>
<path d="M124.775 161.898V171.42H115.254V161.898H124.775Z" fill="#CEE0E0"/>
<path d="M124.775 152.385L124.775 161.898H115.254L115.254 152.385H124.775Z" fill="#CEE0E0"/>
<path d="M124.775 142.846L124.775 152.385H115.254L115.254 142.846H124.775Z" fill="#CEE0E0"/>
<path d="M124.775 133.324V142.846H115.254V133.324H124.775Z" fill="#F2F2F2"/>
<path d="M124.775 123.805V133.326H115.254V123.805H124.775Z" fill="#F2F2F2"/>
<path d="M124.775 114.291L124.775 123.805H115.254L115.254 114.291H124.775Z" fill="#F2F2F2"/>
<path d="M124.775 104.77V114.291H115.254V104.77H124.775Z" fill="#F2F2F2"/>
<path d="M115.256 161.898V171.42H105.734V161.898H115.256Z" fill="#CEE0E0"/>
<path d="M115.256 152.385L115.256 161.898H105.734L105.735 152.385H115.256Z" fill="#CEE0E0"/>
<path d="M115.256 142.846L115.256 152.385H105.735L105.734 142.846H115.256Z" fill="#CEE0E0"/>
<path d="M115.256 133.324V142.846H105.734V133.324H115.256Z" fill="#F2F2F2"/>
<path d="M115.256 123.805V133.326H105.735V123.805H115.256Z" fill="#F2F2F2"/>
<path d="M115.256 114.291L115.256 123.805H105.735L105.734 114.291H115.256Z" fill="#F2F2F2"/>
<path d="M115.256 104.77V114.291H105.734V104.77H115.256Z" fill="#F2F2F2"/>
<path d="M105.736 161.898V171.42H96.2148V161.898H105.736Z" fill="#CEE0E0"/>
<path d="M105.736 152.385V161.898H96.2148V152.385H105.736Z" fill="#CEE0E0"/>
<path d="M105.736 142.846V152.385H96.2148V142.846H105.736Z" fill="#CEE0E0"/>
<path d="M105.736 133.324V142.846H96.2148V133.324H105.736Z" fill="#F2F2F2"/>
<path d="M105.736 123.805V133.326H96.2148V123.805H105.736Z" fill="#F2F2F2"/>
<path d="M105.736 114.291V123.805H96.2148V114.291H105.736Z" fill="#F2F2F2"/>
<path d="M96.216 161.898V171.42H86.6777V161.898H96.216Z" fill="#CEE0E0"/>
<path d="M96.216 152.385V161.898H86.6777V152.385H96.216Z" fill="#CEE0E0"/>
<path d="M96.216 142.846V152.385H86.6777V142.846H96.216Z" fill="#CEE0E0"/>
<path d="M96.216 133.324V142.846H86.6777V133.324H96.216Z" fill="#F2F2F2"/>
<path d="M96.216 123.805V133.326H86.6777V123.805H96.216Z" fill="#F2F2F2"/>
<path d="M86.6777 161.898V171.42H77.1641V161.898H86.6777Z" fill="#CEE0E0"/>
<path d="M86.6777 152.385L86.677 161.898L77.1641 161.898L77.164 152.385L86.6777 152.385Z" fill="#CEE0E0"/>
<path d="M86.6777 142.846L86.6771 152.384L77.164 152.385L77.1641 142.846H86.6777Z" fill="#CEE0E0"/>
<path d="M77.1601 161.898V171.42H67.6387V161.898H77.1601Z" fill="#CEE0E0"/>
<path d="M77.1601 152.385V161.898H67.6387V152.385H77.1601Z" fill="#CEE0E0"/>
<path d="M77.1601 142.846V152.385H67.6387V142.846H77.1601Z" fill="#F2F2F2"/>
<path d="M67.6405 161.898V171.42H58.1191V161.898H67.6405Z" fill="#CEE0E0"/>
<path d="M67.6405 152.385L67.6405 161.898H58.1191L58.1191 152.385H67.6405Z" fill="#CEE0E0"/>
<path d="M67.6405 142.846L67.6405 152.385H58.1191L58.1191 142.846H67.6405Z" fill="#F2F2F2"/>
<path d="M58.1191 161.898V171.42H48.6055V161.898H58.1191Z" fill="#CEE0E0"/>
<path d="M58.1191 152.385L58.1191 161.898H48.6055V152.385L58.1191 152.385Z" fill="#CEE0E0"/>
<path d="M58.1191 142.846L58.1191 152.385L48.6055 152.385V142.846H58.1191Z" fill="#F2F2F2"/>
<path d="M48.6091 161.898V171.42H39.0625V161.898H48.6091Z" fill="#CEE0E0"/>
<path d="M48.6091 152.385V161.898H39.0625V152.385H48.6091Z" fill="#CEE0E0"/>
<path d="M48.6091 142.846V152.385H39.0625V142.846H48.6091Z" fill="#F2F2F2"/>
<path d="M39.0625 161.898V171.42H29.5488V161.898H39.0625Z" fill="#CEE0E0"/>
<path d="M39.0625 152.385L39.0616 161.898L29.5488 161.898L29.5486 152.385L39.0625 152.385Z" fill="#CEE0E0"/>
<path d="M29.5448 161.898V171.42H20.0234V161.898H29.5448Z" fill="#CEE0E0"/>
<path d="M29.5448 152.385V161.898H20.0234V152.385H29.5448Z" fill="#F2F2F2"/>
<path d="M20.0253 161.898V171.42H10.5039V161.898H20.0253Z" fill="#CEE0E0"/>
<path d="M20.0251 152.385L20.0253 161.898H10.5039L10.5037 152.385H20.0251Z" fill="#F2F2F2"/>
<path d="M10.5058 161.898V171.42H0.984375V161.898H10.5058Z" fill="#F2F2F2"/>
</svg>
