<svg width="182" height="126" viewBox="0 0 182 126" fill="none" xmlns="http://www.w3.org/2000/svg">
<path d="M70 0H84V14H70V0Z" fill="#00874B"/>
<path d="M140 0H154V14H140V0Z" fill="#00874B"/>
<path d="M28 14H42V28H28V14Z" fill="#00874B"/>
<path d="M70 14H84V28H70V14Z" fill="#00874B"/>
<path d="M126 14H140V28H126V14Z" fill="#00874B"/>
<path d="M28 28H42V42H28V28Z" fill="#00874B"/>
<path d="M70 28H84V42H70V28Z" fill="#00874B"/>
<path d="M126 28H140V42H126V28Z" fill="#00874B"/>
<path d="M42 42H56V56H42V42Z" fill="#00874B"/>
<path d="M70 42H84V56H70V42Z" fill="#00874B"/>
<path d="M84 42H98V56H84V42Z" fill="#00874B"/>
<path d="M126 42H140V56H126V42Z" fill="#00874B"/>
<path d="M0 56H14V70H0V56Z" fill="#00874B"/>
<path d="M42 56H56V70H42V56Z" fill="#00874B"/>
<path d="M84 56H98V70H84V56Z" fill="#00874B"/>
<path d="M112 56H126V70H112V56Z" fill="#00874B"/>
<path d="M154 56H168V70H154V56Z" fill="#00874B"/>
<path d="M168 56H182V70H168V56Z" fill="#00874B"/>
<path d="M0 70H14V84H0V70Z" fill="#00874B"/>
<path d="M14 70H28V84H14V70Z" fill="#00874B"/>
<path d="M42 70H56V84H42V70Z" fill="#00874B"/>
<path d="M84 70H98V84H84V70Z" fill="#00874B"/>
<path d="M98 70H112V84H98V70Z" fill="#00695C"/>
<path d="M140 70H154V84H140V70Z" fill="#00874B"/>
<path d="M154 70H168V84H154V70Z" fill="#00874B"/>
<path d="M14 84H28V98H14V84Z" fill="#00695C"/>
<path d="M56 84H70V98H56V84Z" fill="#00695C"/>
<path d="M84 84H98V98H84V84Z" fill="#00695C"/>
<path d="M98 84H112V98H98V84Z" fill="#00695C"/>
<path d="M112 84H126V98H112V84Z" fill="#00695C"/>
<path d="M140 84H154V98H140V84Z" fill="#00695C"/>
<path d="M14 98H28V112H14V98Z" fill="#00695C"/>
<path d="M28 98H42V112H28V98Z" fill="#00695C"/>
<path d="M56 98H70V112H56V98Z" fill="#00695C"/>
<path d="M70 98H84V112H70V98Z" fill="#00695C"/>
<path d="M84 98H98V112H84V98Z" fill="#00695C"/>
<path d="M112 98H126V112H112V98Z" fill="#00695C"/>
<path d="M126 98H140V112H126V98Z" fill="#00695C"/>
<path d="M140 98H154V112H140V98Z" fill="#00695C"/>
<path d="M0 112H14V126H0V112Z" fill="#263238"/>
<path d="M14 112H28V126H14V112Z" fill="#263238"/>
<path d="M28 112H42V126H28V112Z" fill="#263238"/>
<path d="M42 112H56V126H42V112Z" fill="#263238"/>
<path d="M56 112H70V126H56V112Z" fill="#263238"/>
<path d="M70 112H84V126H70V112Z" fill="#263238"/>
<path d="M84 112H98V126H84V112Z" fill="#263238"/>
<path d="M98 112H112V126H98V112Z" fill="#263238"/>
<path d="M112 112H126V126H112V112Z" fill="#263238"/>
<path d="M126 112H140V126H126V112Z" fill="#263238"/>
<path d="M140 112H154V126H140V112Z" fill="#263238"/>
<path d="M154 112H168V126H154V112Z" fill="#263238"/>
</svg>
