<svg width="574" height="200" viewBox="0 0 574 200" fill="none" xmlns="http://www.w3.org/2000/svg">
<path d="M573.883 120.008V133.338H560.553V120.008H573.883Z" fill="#CEE0E0"/>
<path d="M573.883 106.676V120.006H560.553V106.676H573.883Z" fill="#CEE0E0"/>
<path d="M560.553 133.338L560.553 146.656H547.199V133.338L560.553 133.338Z" fill="#CEE0E0"/>
<path d="M560.553 120.008V133.338L547.199 133.338V120.008H560.553Z" fill="#CEE0E0"/>
<path d="M560.553 106.676V120.006H547.199V106.676H560.553Z" fill="#F2F2F2"/>
<path d="M560.553 93.3477V106.678H547.199V93.3477H560.553Z" fill="#F2F2F2"/>
<path d="M547.199 133.338V146.656H533.881V133.338H547.199Z" fill="#CEE0E0"/>
<path d="M547.199 120.008V133.338H533.881V120.008H547.199Z" fill="#CEE0E0"/>
<path d="M547.199 106.676V120.006H533.881V106.676H547.199Z" fill="#F2F2F2"/>
<path d="M547.199 93.3477V106.678H533.881V93.3477H547.199Z" fill="#F2F2F2"/>
<path d="M547.199 79.9941L547.199 93.3477H533.881V79.9941H547.199Z" fill="white"/>
<path d="M533.885 133.338V146.656H520.555V133.338H533.885Z" fill="#CEE0E0"/>
<path d="M533.885 120.008V133.338H520.555V120.008H533.885Z" fill="#CEE0E0"/>
<path d="M533.885 106.676V120.006H520.555V106.676H533.885Z" fill="#F2F2F2"/>
<path d="M533.885 93.3477V106.678H520.555V93.3477H533.885Z" fill="#F2F2F2"/>
<path d="M533.885 79.9941V93.3477H520.555V79.9941H533.885Z" fill="white"/>
<path d="M520.547 133.338V146.656H507.217V133.338H520.547Z" fill="#CEE0E0"/>
<path d="M520.547 120.008V133.338H507.217V120.008H520.547Z" fill="#CEE0E0"/>
<path d="M520.547 106.676V120.006H507.217V106.676H520.547Z" fill="#F2F2F2"/>
<path d="M520.547 93.3477V106.678H507.217V93.3477H520.547Z" fill="#F2F2F2"/>
<path d="M520.547 79.9941V93.3477H507.217V79.9941H520.547Z" fill="white"/>
<path d="M507.217 133.338V146.656H493.898V133.338H507.217Z" fill="#CEE0E0"/>
<path d="M507.217 120.008V133.338H493.898V120.008H507.217Z" fill="#CEE0E0"/>
<path d="M507.217 106.676V120.006H493.898V106.676H507.217Z" fill="#F2F2F2"/>
<path d="M507.217 93.3477V106.678H493.898V93.3477H507.217Z" fill="#F2F2F2"/>
<path d="M507.217 79.9941V93.3477H493.898V79.9941H507.217Z" fill="white"/>
<path d="M493.903 133.338V146.656H480.537V133.338H493.903Z" fill="#CEE0E0"/>
<path d="M493.903 120.008V133.338H480.537V120.008H493.903Z" fill="#CEE0E0"/>
<path d="M493.903 106.676V120.006H480.537V106.676H493.903Z" fill="#F2F2F2"/>
<path d="M493.903 93.3477V106.678H480.537V93.3477H493.903Z" fill="#F2F2F2"/>
<path d="M493.903 79.9941V93.3477H480.537V79.9941H493.903Z" fill="white"/>
<path d="M480.537 146.656L480.537 160.01H467.219V146.656L480.537 146.656Z" fill="#CEE0E0"/>
<path d="M480.537 133.338V146.656L467.219 146.656V133.338H480.537Z" fill="#CEE0E0"/>
<path d="M480.537 120.008V133.338H467.219V120.008H480.537Z" fill="#CEE0E0"/>
<path d="M480.537 106.676V120.006H467.219V106.676H480.537Z" fill="#F2F2F2"/>
<path d="M480.537 93.3477V106.678H467.219V93.3477H480.537Z" fill="#F2F2F2"/>
<path d="M480.537 79.9941V93.3477H467.219V79.9941H480.537Z" fill="white"/>
<path d="M467.221 146.656V160.01H453.891V146.656H467.221Z" fill="#CEE0E0"/>
<path d="M467.221 133.338V146.656H453.891V133.338H467.221Z" fill="#CEE0E0"/>
<path d="M467.221 120.008V133.338H453.891V120.008H467.221Z" fill="#F2F2F2"/>
<path d="M467.221 106.676V120.006H453.891V106.676H467.221Z" fill="#F2F2F2"/>
<path d="M467.221 93.3477V106.678H453.891V93.3477H467.221Z" fill="white"/>
<path d="M467.221 79.9941V93.3477H453.891V79.9941H467.221Z" fill="white"/>
<path d="M453.885 146.656V160.01H440.555V146.656H453.885Z" fill="#CEE0E0"/>
<path d="M453.885 133.338V146.656H440.555V133.338H453.885Z" fill="#CEE0E0"/>
<path d="M453.885 120.008V133.338H440.555V120.008H453.885Z" fill="#F2F2F2"/>
<path d="M453.885 106.676V120.006H440.555V106.676H453.885Z" fill="#F2F2F2"/>
<path d="M453.885 93.3477V106.678H440.555V93.3477H453.885Z" fill="white"/>
<path d="M453.885 79.9941V93.3477H440.555V79.9941H453.885Z" fill="white"/>
<path d="M440.559 146.656V160.01H427.229V146.656H440.559Z" fill="#CEE0E0"/>
<path d="M440.559 133.338V146.656H427.229V133.338H440.559Z" fill="#CEE0E0"/>
<path d="M440.559 120.008V133.338H427.229V120.008H440.559Z" fill="#F2F2F2"/>
<path d="M440.559 106.676V120.006H427.229V106.676H440.559Z" fill="#F2F2F2"/>
<path d="M440.559 93.3477V106.678H427.229V93.3477H440.559Z" fill="#F2F2F2"/>
<path d="M440.559 79.9941V93.3477H427.229V79.9941H440.559Z" fill="white"/>
<path d="M427.229 146.656V160.01H413.875V146.656H427.229Z" fill="#CEE0E0"/>
<path d="M427.229 133.338V146.656H413.875V133.338H427.229Z" fill="#CEE0E0"/>
<path d="M427.229 120.008V133.338H413.875V120.008H427.229Z" fill="#CEE0E0"/>
<path d="M427.229 106.676V120.006H413.875V106.676H427.229Z" fill="#F2F2F2"/>
<path d="M427.229 93.3477V106.678H413.875V93.3477H427.229Z" fill="#F2F2F2"/>
<path d="M427.229 79.9941V93.3477H413.875V79.9941H427.229Z" fill="white"/>
<path d="M413.873 133.338V146.656H400.555V133.338H413.873Z" fill="#CEE0E0"/>
<path d="M413.873 120.008V133.338H400.555V120.008H413.873Z" fill="#CEE0E0"/>
<path d="M413.873 106.676V120.006H400.555V106.676H413.873Z" fill="#F2F2F2"/>
<path d="M413.873 93.3477V106.678H400.555V93.3477H413.873Z" fill="#F2F2F2"/>
<path d="M413.873 79.9941V93.3477H400.555V79.9941H413.873Z" fill="white"/>
<path d="M400.559 146.656V160.01H387.229V146.656H400.559Z" fill="#CEE0E0"/>
<path d="M400.559 133.338V146.656H387.229V133.338H400.559Z" fill="#CEE0E0"/>
<path d="M400.559 120.008V133.338H387.229V120.008H400.559Z" fill="#F2F2F2"/>
<path d="M400.559 106.676V120.006H387.229V106.676H400.559Z" fill="#F2F2F2"/>
<path d="M400.559 93.3477V106.678H387.229V93.3477H400.559Z" fill="#F2F2F2"/>
<path d="M400.559 79.9941V93.3477H387.229V79.9941H400.559Z" fill="white"/>
<path d="M400.559 66.676L400.559 79.9941H387.229L387.228 66.676H400.559Z" fill="white"/>
<path d="M387.223 146.656V160.01H373.893V146.656H387.223Z" fill="#CEE0E0"/>
<path d="M387.223 133.338V146.656H373.893V133.338H387.223Z" fill="#CEE0E0"/>
<path d="M387.223 120.008V133.338H373.893V120.008H387.223Z" fill="#F2F2F2"/>
<path d="M387.223 106.676V120.006H373.893V106.676H387.223Z" fill="#F2F2F2"/>
<path d="M387.223 93.3477V106.678H373.893V93.3477H387.223Z" fill="#F2F2F2"/>
<path d="M387.223 79.9941V93.3477H373.893V79.9941H387.223Z" fill="white"/>
<path d="M387.223 66.6758V79.9941H373.893V66.6758H387.223Z" fill="white"/>
<path d="M387.223 53.3438V66.6739H373.893V53.3438H387.223Z" fill="white"/>
<path d="M373.895 146.656V160.01H360.564V146.656H373.895Z" fill="#CEE0E0"/>
<path d="M373.895 133.338V146.656H360.564V133.338H373.895Z" fill="#CEE0E0"/>
<path d="M373.895 120.008V133.338H360.564V120.008H373.895Z" fill="#F2F2F2"/>
<path d="M373.895 106.676V120.006H360.564V106.676H373.895Z" fill="#F2F2F2"/>
<path d="M373.895 93.3477V106.678H360.564V93.3477H373.895Z" fill="#F2F2F2"/>
<path d="M373.895 79.9941V93.3477H360.564V79.9941H373.895Z" fill="#F2F2F2"/>
<path d="M373.895 66.6758V79.9941H360.564V66.6758H373.895Z" fill="#F2F2F2"/>
<path d="M373.895 53.3438V66.6739H360.564V53.3438H373.895Z" fill="white"/>
<path d="M373.895 40.0117V53.3419H360.564V40.0117H373.895Z" fill="white"/>
<path d="M360.564 146.656V160.01H347.211V146.656H360.564Z" fill="#CEE0E0"/>
<path d="M360.564 133.338V146.656H347.211V133.338H360.564Z" fill="#CEE0E0"/>
<path d="M360.564 120.008V133.338H347.211V120.008H360.564Z" fill="#F2F2F2"/>
<path d="M360.564 106.676V120.006H347.211V106.676H360.564Z" fill="#F2F2F2"/>
<path d="M360.564 93.3477V106.678H347.211V93.3477H360.564Z" fill="#F2F2F2"/>
<path d="M360.564 79.9941V93.3477H347.211V79.9941H360.564Z" fill="#F2F2F2"/>
<path d="M360.564 66.6758V79.9941H347.211V66.6758H360.564Z" fill="#F2F2F2"/>
<path d="M360.564 53.3438V66.6739H347.211V53.3438H360.564Z" fill="#F2F2F2"/>
<path d="M360.564 40.0117V53.3419H347.211V40.0117H360.564Z" fill="white"/>
<path d="M360.565 26.6855V40.0157H347.211V26.6855H360.565Z" fill="white"/>
<path d="M347.211 146.656V160.01H333.893V146.656H347.211Z" fill="#CEE0E0"/>
<path d="M347.211 133.338V146.656H333.893V133.338H347.211Z" fill="#CEE0E0"/>
<path d="M347.211 120.008V133.338H333.893V120.008H347.211Z" fill="#CEE0E0"/>
<path d="M347.211 106.676V120.006H333.893V106.676H347.211Z" fill="#F2F2F2"/>
<path d="M347.211 93.3477V106.678H333.893V93.3477H347.211Z" fill="#F2F2F2"/>
<path d="M347.211 79.9941V93.3477H333.893V79.9941H347.211Z" fill="#F2F2F2"/>
<path d="M347.211 66.6758V79.9941H333.893V66.6758H347.211Z" fill="#F2F2F2"/>
<path d="M347.211 53.3438V66.6739H333.893V53.3438H347.211Z" fill="#F2F2F2"/>
<path d="M347.211 40.0117V53.3419H333.893V40.0117H347.211Z" fill="#F2F2F2"/>
<path d="M347.211 26.6855V40.0157H333.893V26.6855H347.211Z" fill="white"/>
<path d="M333.897 173.338V186.668H320.566V173.338H333.897Z" fill="#CEE0E0"/>
<path d="M333.897 160.012V173.342H320.566V160.012H333.897Z" fill="#CEE0E0"/>
<path d="M333.897 146.656V160.01H320.566V146.656H333.897Z" fill="#CEE0E0"/>
<path d="M333.897 133.338V146.656H320.566V133.338H333.897Z" fill="#CEE0E0"/>
<path d="M333.897 120.008V133.338H320.566V120.008H333.897Z" fill="#CEE0E0"/>
<path d="M333.897 106.676V120.006H320.566V106.676H333.897Z" fill="#F2F2F2"/>
<path d="M333.897 93.3477V106.678H320.566V93.3477H333.897Z" fill="#F2F2F2"/>
<path d="M333.897 79.9941V93.3477H320.566V79.9941H333.897Z" fill="#F2F2F2"/>
<path d="M333.897 66.6758V79.9941H320.566V66.6758H333.897Z" fill="#F2F2F2"/>
<path d="M333.897 53.3438V66.6739H320.566V53.3438H333.897Z" fill="#F2F2F2"/>
<path d="M333.897 40.0117V53.3419H320.566V40.0117H333.897Z" fill="#F2F2F2"/>
<path d="M333.897 26.6855V40.0157H320.566V26.6855H333.897Z" fill="white"/>
<path d="M320.561 173.338V186.668H307.23V173.338H320.561Z" fill="#CEE0E0"/>
<path d="M320.561 160.012V173.342H307.23V160.012H320.561Z" fill="#CEE0E0"/>
<path d="M320.561 146.656V160.01H307.23V146.656H320.561Z" fill="#F2F2F2"/>
<path d="M320.561 133.338V146.656H307.23V133.338H320.561Z" fill="#F2F2F2"/>
<path d="M320.561 120.008V133.338H307.23V120.008H320.561Z" fill="#F2F2F2"/>
<path d="M320.561 106.676V120.006H307.23V106.676H320.561Z" fill="#F2F2F2"/>
<path d="M320.561 93.3477V106.678H307.23V93.3477H320.561Z" fill="#F2F2F2"/>
<path d="M320.561 79.9941V93.3477H307.23V79.9941H320.561Z" fill="#F2F2F2"/>
<path d="M320.561 66.6758V79.9941H307.23V66.6758H320.561Z" fill="#F2F2F2"/>
<path d="M320.561 53.3438V66.6739H307.23V53.3438H320.561Z" fill="#F2F2F2"/>
<path d="M320.561 40.0117V53.3419H307.23V40.0117H320.561Z" fill="white"/>
<path d="M320.561 26.6855V40.0157H307.23V26.6855H320.561Z" fill="white"/>
<path d="M307.232 186.67V200H293.902V186.67H307.232Z" fill="#CEE0E0"/>
<path d="M307.233 173.338V186.668H293.902V173.338H307.233Z" fill="#CEE0E0"/>
<path d="M307.233 160.012V173.342H293.902V160.012H307.233Z" fill="#F2F2F2"/>
<path d="M307.233 146.656V160.01H293.902V146.656H307.233Z" fill="#F2F2F2"/>
<path d="M307.233 133.338V146.656H293.902V133.338H307.233Z" fill="#F2F2F2"/>
<path d="M307.233 120.008V133.338H293.902V120.008H307.233Z" fill="#F2F2F2"/>
<path d="M307.233 106.676V120.006H293.902V106.676H307.233Z" fill="#F2F2F2"/>
<path d="M307.233 93.3477V106.678H293.902V93.3477H307.233Z" fill="#F2F2F2"/>
<path d="M307.233 79.9941V93.3477H293.902V79.9941H307.233Z" fill="#F2F2F2"/>
<path d="M307.232 66.676L307.233 79.9941H293.902L293.902 66.676H307.232Z" fill="#F2F2F2"/>
<path d="M307.233 53.3438V66.6739H293.902V53.3438H307.233Z" fill="#F2F2F2"/>
<path d="M307.233 40.0117V53.3419H293.902V40.0117H307.233Z" fill="#F2F2F2"/>
<path d="M293.902 186.67V200L280.549 200V186.67L293.902 186.67Z" fill="#CEE0E0"/>
<path d="M293.902 173.338V186.668H280.549V173.338H293.902Z" fill="#CEE0E0"/>
<path d="M293.902 160.012V173.342H280.549V160.012H293.902Z" fill="#F2F2F2"/>
<path d="M293.902 146.656V160.01H280.549V146.656H293.902Z" fill="#F2F2F2"/>
<path d="M293.902 133.338V146.656H280.549V133.338H293.902Z" fill="#F2F2F2"/>
<path d="M293.902 120.008V133.338H280.549V120.008H293.902Z" fill="#F2F2F2"/>
<path d="M293.902 106.676V120.006H280.549V106.676H293.902Z" fill="#F2F2F2"/>
<path d="M293.902 93.3477V106.678H280.549V93.3477H293.902Z" fill="#F2F2F2"/>
<path d="M293.902 79.9941V93.3477H280.549V79.9941H293.902Z" fill="#F2F2F2"/>
<path d="M293.902 66.676L293.902 79.9941H280.549V66.6758L293.902 66.676Z" fill="#CEE0E0"/>
<path d="M293.902 53.3438V66.6739H280.549V53.3438H293.902Z" fill="#F2F2F2"/>
<path d="M280.551 186.67V200H267.221V186.67H280.551Z" fill="#CEE0E0"/>
<path d="M280.551 173.338V186.668H267.221V173.338H280.551Z" fill="#CEE0E0"/>
<path d="M280.551 160.012V173.342H267.221V160.012H280.551Z" fill="#F2F2F2"/>
<path d="M280.551 146.656V160.01H267.221V146.656H280.551Z" fill="#F2F2F2"/>
<path d="M280.551 133.338V146.656H267.221V133.338H280.551Z" fill="#F2F2F2"/>
<path d="M280.551 120.008V133.338H267.221V120.008H280.551Z" fill="#F2F2F2"/>
<path d="M280.551 106.676V120.006H267.221V106.676H280.551Z" fill="#F2F2F2"/>
<path d="M280.551 93.3477V106.678H267.221V93.3477H280.551Z" fill="#F2F2F2"/>
<path d="M280.551 79.9941V93.3477H267.221V79.9941H280.551Z" fill="#CEE0E0"/>
<path d="M280.551 66.6758V79.9941H267.221V66.6758H280.551Z" fill="#F2F2F2"/>
<path d="M280.551 53.3438V66.6739H267.221V53.3438H280.551Z" fill="#F2F2F2"/>
<path d="M280.551 40.0117V53.3419H267.221V40.0117H280.551Z" fill="white"/>
<path d="M280.551 26.6855V40.0157H267.221V26.6855H280.551Z" fill="white"/>
<path d="M267.221 186.67V200H253.902V186.67H267.221Z" fill="#CEE0E0"/>
<path d="M267.221 173.338V186.668H253.902V173.338H267.221Z" fill="#F2F2F2"/>
<path d="M267.221 160.012V173.342H253.902V160.012H267.221Z" fill="#F2F2F2"/>
<path d="M267.221 146.656V160.01H253.902V146.656H267.221Z" fill="#F2F2F2"/>
<path d="M267.221 133.338V146.656H253.902V133.338H267.221Z" fill="#F2F2F2"/>
<path d="M267.221 120.008V133.338H253.902V120.008H267.221Z" fill="#F2F2F2"/>
<path d="M267.221 106.676V120.006H253.902V106.676H267.221Z" fill="#F2F2F2"/>
<path d="M267.221 93.3477V106.678H253.902V93.3477H267.221Z" fill="#CEE0E0"/>
<path d="M267.221 79.9941V93.3477H253.902V79.9941H267.221Z" fill="#CEE0E0"/>
<path d="M267.221 66.6758V79.9941H253.902V66.6758H267.221Z" fill="#F2F2F2"/>
<path d="M267.221 53.3438V66.6739H253.902V53.3438H267.221Z" fill="#F2F2F2"/>
<path d="M267.221 40.0117V53.3419H253.902V40.0117H267.221Z" fill="#F2F2F2"/>
<path d="M267.221 26.6855V40.0157H253.902V26.6855H267.221Z" fill="white"/>
<path d="M267.221 13.332L267.221 26.6855H253.902V13.332H267.221Z" fill="white"/>
<path d="M253.897 186.67V200H240.566V186.67H253.897Z" fill="#CEE0E0"/>
<path d="M253.897 173.338V186.668H240.566V173.338H253.897Z" fill="#CEE0E0"/>
<path d="M253.897 160.012V173.342H240.566V160.012H253.897Z" fill="#F2F2F2"/>
<path d="M253.897 146.656V160.01H240.566V146.656H253.897Z" fill="#F2F2F2"/>
<path d="M253.897 133.338V146.656H240.566V133.338H253.897Z" fill="#F2F2F2"/>
<path d="M253.897 120.008V133.338H240.566V120.008H253.897Z" fill="#F2F2F2"/>
<path d="M253.897 106.676V120.006H240.566V106.676H253.897Z" fill="#F2F2F2"/>
<path d="M253.897 93.3477V106.678H240.566V93.3477H253.897Z" fill="#CEE0E0"/>
<path d="M253.897 79.9941V93.3477H240.566V79.9941H253.897Z" fill="#CEE0E0"/>
<path d="M253.897 66.6758V79.9941H240.566V66.6758H253.897Z" fill="#F2F2F2"/>
<path d="M253.897 53.3438V66.6739H240.566V53.3438H253.897Z" fill="#F2F2F2"/>
<path d="M253.897 40.0117V53.3419H240.566V40.0117H253.897Z" fill="#F2F2F2"/>
<path d="M253.897 26.6855V40.0157H240.566V26.6855H253.897Z" fill="#F2F2F2"/>
<path d="M253.897 13.332V26.6855H240.566V13.332H253.897Z" fill="white"/>
<path d="M240.57 186.67V200H227.24V186.67H240.57Z" fill="#CEE0E0"/>
<path d="M240.57 173.338V186.668H227.24V173.338H240.57Z" fill="#CEE0E0"/>
<path d="M240.57 160.012V173.342H227.24V160.012H240.57Z" fill="#CEE0E0"/>
<path d="M240.57 146.656V160.01H227.24V146.656H240.57Z" fill="#F2F2F2"/>
<path d="M240.57 133.338V146.656H227.24V133.338H240.57Z" fill="#CEE0E0"/>
<path d="M240.57 120.008V133.338H227.24V120.008H240.57Z" fill="#CEE0E0"/>
<path d="M240.57 106.676V120.006H227.24V106.676H240.57Z" fill="#CEE0E0"/>
<path d="M240.57 93.3477V106.678H227.24V93.3477H240.57Z" fill="#CEE0E0"/>
<path d="M240.57 79.9941V93.3477H227.24V79.9941H240.57Z" fill="#CEE0E0"/>
<path d="M240.57 66.6758V79.9941H227.24V66.6758H240.57Z" fill="#F2F2F2"/>
<path d="M240.57 53.3438V66.6739H227.24V53.3438H240.57Z" fill="#F2F2F2"/>
<path d="M240.57 40.0117V53.3419H227.24V40.0117H240.57Z" fill="#F2F2F2"/>
<path d="M240.57 26.6855V40.0157H227.24V26.6855H240.57Z" fill="#F2F2F2"/>
<path d="M240.57 13.332V26.6855H227.24V13.332H240.57Z" fill="white"/>
<path d="M240.57 0V13.3302H227.24V0H240.57Z" fill="white"/>
<path d="M227.24 173.338V186.668H213.887V173.338H227.24Z" fill="#CEE0E0"/>
<path d="M227.24 160.012V173.342H213.887V160.012H227.24Z" fill="#CEE0E0"/>
<path d="M227.24 146.656V160.01H213.887V146.656H227.24Z" fill="#CEE0E0"/>
<path d="M227.24 133.338V146.656H213.887V133.338H227.24Z" fill="#CEE0E0"/>
<path d="M227.24 120.008V133.338H213.887V120.008H227.24Z" fill="#CEE0E0"/>
<path d="M227.24 106.676V120.006H213.887V106.676H227.24Z" fill="#F2F2F2"/>
<path d="M227.24 93.3477V106.678H213.887V93.3477H227.24Z" fill="#F2F2F2"/>
<path d="M227.24 79.9941V93.3477H213.887V79.9941H227.24Z" fill="#CEE0E0"/>
<path d="M227.24 66.6758V79.9941H213.887V66.6758H227.24Z" fill="#CEE0E0"/>
<path d="M227.24 53.3438V66.6739H213.887V53.3438H227.24Z" fill="#F2F2F2"/>
<path d="M227.24 40.0117V53.3419H213.887V40.0117H227.24Z" fill="#F2F2F2"/>
<path d="M227.24 26.6855V40.0157H213.887V26.6855H227.24Z" fill="#F2F2F2"/>
<path d="M227.24 13.332V26.6855H213.887V13.332H227.24Z" fill="#F2F2F2"/>
<path d="M227.24 0V13.3302H213.887V0H227.24Z" fill="white"/>
<path d="M213.889 160.012V173.342H200.559V160.012H213.889Z" fill="#CEE0E0"/>
<path d="M213.889 146.656V160.01H200.559V146.656H213.889Z" fill="#CEE0E0"/>
<path d="M213.889 133.338V146.656H200.559V133.338H213.889Z" fill="#F2F2F2"/>
<path d="M213.889 120.008V133.338H200.559V120.008H213.889Z" fill="#F2F2F2"/>
<path d="M213.889 106.676V120.006H200.559V106.676H213.889Z" fill="#F2F2F2"/>
<path d="M213.889 93.3477V106.678H200.559V93.3477H213.889Z" fill="#F2F2F2"/>
<path d="M213.889 79.9941V93.3477H200.559V79.9941H213.889Z" fill="#F2F2F2"/>
<path d="M213.889 66.676L213.889 79.9941H200.559L200.559 66.676H213.889Z" fill="#F2F2F2"/>
<path d="M213.889 53.3438V66.6739H200.559V53.3438H213.889Z" fill="#F2F2F2"/>
<path d="M213.889 40.0117V53.3419H200.559V40.0117H213.889Z" fill="#F2F2F2"/>
<path d="M213.889 26.6854V40.0156H200.559V26.6854H213.889Z" fill="#F2F2F2"/>
<path d="M213.889 13.332L213.889 26.6854H200.559L200.559 13.332H213.889Z" fill="white"/>
<path d="M213.889 0V13.3302H200.559V0H213.889Z" fill="white"/>
<path d="M200.553 160.012V173.342H187.223V160.012H200.553Z" fill="#CEE0E0"/>
<path d="M200.553 146.656V160.01H187.223V146.656H200.553Z" fill="#F2F2F2"/>
<path d="M200.553 133.338V146.656H187.223V133.338H200.553Z" fill="#F2F2F2"/>
<path d="M200.553 120.008V133.338H187.223V120.008H200.553Z" fill="#F2F2F2"/>
<path d="M200.553 106.676V120.006H187.223V106.676H200.553Z" fill="#F2F2F2"/>
<path d="M200.553 93.3477V106.678H187.223V93.3477H200.553Z" fill="#F2F2F2"/>
<path d="M200.553 79.9941V93.3477H187.223V79.9941H200.553Z" fill="#F2F2F2"/>
<path d="M200.553 66.676L200.553 79.9941H187.223L187.222 66.676H200.553Z" fill="#F2F2F2"/>
<path d="M200.553 53.3438V66.6739H187.223V53.3438H200.553Z" fill="#F2F2F2"/>
<path d="M200.553 40.0117V53.3419H187.223V40.0117H200.553Z" fill="#F2F2F2"/>
<path d="M200.553 26.6854V40.0156H187.222V26.6854H200.553Z" fill="#F2F2F2"/>
<path d="M200.553 13.332L200.553 26.6854H187.222L187.223 13.332H200.553Z" fill="white"/>
<path d="M187.223 173.338V186.668H173.904V173.338H187.223Z" fill="#CEE0E0"/>
<path d="M187.223 160.012V173.342H173.904V160.012H187.223Z" fill="#F2F2F2"/>
<path d="M187.223 146.656V160.01H173.904V146.656H187.223Z" fill="#F2F2F2"/>
<path d="M187.223 133.338V146.656H173.904V133.338H187.223Z" fill="#F2F2F2"/>
<path d="M187.223 120.008V133.338H173.904V120.008H187.223Z" fill="#F2F2F2"/>
<path d="M187.223 106.676V120.006H173.904V106.676H187.223Z" fill="#F2F2F2"/>
<path d="M187.223 93.3477V106.678H173.904V93.3477H187.223Z" fill="#F2F2F2"/>
<path d="M187.223 79.9941V93.3477H173.904V79.9941H187.223Z" fill="#F2F2F2"/>
<path d="M187.222 66.676L187.223 79.9941H173.904V66.6758L187.222 66.676Z" fill="#F2F2F2"/>
<path d="M187.223 53.3438V66.6739H173.904V53.3438H187.223Z" fill="#F2F2F2"/>
<path d="M187.223 40.0117V53.3419H173.904V40.0117H187.223Z" fill="#F2F2F2"/>
<path d="M187.222 26.6854V40.0156L173.904 40.0157V26.6855L187.222 26.6854Z" fill="#F2F2F2"/>
<path d="M187.223 13.332L187.222 26.6854L173.904 26.6855V13.332H187.223Z" fill="white"/>
<path d="M173.906 173.338V186.668H160.576V173.338H173.906Z" fill="#CEE0E0"/>
<path d="M173.906 160.012V173.342H160.576V160.012H173.906Z" fill="#F2F2F2"/>
<path d="M173.906 146.656V160.01H160.576V146.656H173.906Z" fill="#F2F2F2"/>
<path d="M173.906 133.338V146.656H160.576V133.338H173.906Z" fill="#F2F2F2"/>
<path d="M173.906 120.008V133.338H160.576V120.008H173.906Z" fill="#F2F2F2"/>
<path d="M173.906 106.676V120.006H160.576V106.676H173.906Z" fill="#F2F2F2"/>
<path d="M173.906 93.3477V106.678H160.576V93.3477H173.906Z" fill="#F2F2F2"/>
<path d="M173.906 79.9941V93.3477H160.576V79.9941H173.906Z" fill="#F2F2F2"/>
<path d="M173.906 66.6758V79.9941H160.576V66.6758H173.906Z" fill="#F2F2F2"/>
<path d="M173.906 53.3438V66.6739H160.576V53.3438H173.906Z" fill="#F2F2F2"/>
<path d="M173.906 40.0117V53.3419H160.576V40.0117H173.906Z" fill="white"/>
<path d="M173.906 26.6855V40.0157H160.576V26.6855H173.906Z" fill="white"/>
<path d="M173.906 13.332V26.6855H160.576V13.332H173.906Z" fill="white"/>
<path d="M160.576 173.338V186.668H147.223V173.338H160.576Z" fill="#CEE0E0"/>
<path d="M160.576 160.012V173.342H147.223V160.012H160.576Z" fill="#F2F2F2"/>
<path d="M160.576 146.656V160.01H147.223V146.656H160.576Z" fill="#F2F2F2"/>
<path d="M160.576 133.338V146.656H147.223V133.338H160.576Z" fill="#F2F2F2"/>
<path d="M160.576 120.008V133.338H147.223V120.008H160.576Z" fill="#F2F2F2"/>
<path d="M160.576 106.676V120.006H147.223V106.676H160.576Z" fill="#F2F2F2"/>
<path d="M160.576 93.3477V106.678H147.223V93.3477H160.576Z" fill="#F2F2F2"/>
<path d="M160.576 79.9941V93.3477H147.223V79.9941H160.576Z" fill="#F2F2F2"/>
<path d="M160.576 66.6758V79.9941H147.223V66.6758H160.576Z" fill="#F2F2F2"/>
<path d="M160.576 53.3438V66.6739H147.223V53.3438H160.576Z" fill="#F2F2F2"/>
<path d="M160.576 40.0117V53.3419H147.223V40.0117H160.576Z" fill="#F2F2F2"/>
<path d="M147.227 173.338V186.668H133.896V173.338H147.227Z" fill="#CEE0E0"/>
<path d="M147.227 160.012V173.342H133.896V160.012H147.227Z" fill="#CEE0E0"/>
<path d="M147.227 146.656V160.01H133.896V146.656H147.227Z" fill="#F2F2F2"/>
<path d="M147.227 133.338V146.656H133.896V133.338H147.227Z" fill="#F2F2F2"/>
<path d="M147.227 120.008V133.338H133.896V120.008H147.227Z" fill="#F2F2F2"/>
<path d="M147.227 106.676V120.006H133.896V106.676H147.227Z" fill="#F2F2F2"/>
<path d="M147.227 93.3477V106.678H133.896V93.3477H147.227Z" fill="#CEE0E0"/>
<path d="M147.227 79.9941V93.3477H133.896V79.9941H147.227Z" fill="#F2F2F2"/>
<path d="M147.227 66.6758V79.9941H133.896V66.6758H147.227Z" fill="#F2F2F2"/>
<path d="M133.896 160.012V173.342H120.578V160.012H133.896Z" fill="#CEE0E0"/>
<path d="M133.896 146.656V160.01H120.578V146.656H133.896Z" fill="#CEE0E0"/>
<path d="M133.896 133.338V146.656H120.578V133.338H133.896Z" fill="#F2F2F2"/>
<path d="M133.896 120.008V133.338H120.578V120.008H133.896Z" fill="#F2F2F2"/>
<path d="M133.896 106.676V120.006H120.578V106.676H133.896Z" fill="#CEE0E0"/>
<path d="M133.896 93.3477V106.678H120.578V93.3477H133.896Z" fill="#CEE0E0"/>
<path d="M133.896 79.9941V93.3477H120.578V79.9941H133.896Z" fill="#F2F2F2"/>
<path d="M133.896 66.6758V79.9941H120.578V66.6758H133.896Z" fill="#F2F2F2"/>
<path d="M133.897 53.3438V66.6739H120.578V53.3438H133.897Z" fill="#F2F2F2"/>
<path d="M133.897 40.0117V53.3419H120.578V40.0117H133.897Z" fill="white"/>
<path d="M120.572 146.656V160.01H107.242V146.656H120.572Z" fill="#CEE0E0"/>
<path d="M120.572 133.338V146.656H107.242V133.338H120.572Z" fill="#CEE0E0"/>
<path d="M120.572 120.008V133.338H107.242V120.008H120.572Z" fill="#F2F2F2"/>
<path d="M120.572 106.676V120.006H107.242V106.676H120.572Z" fill="#CEE0E0"/>
<path d="M120.572 93.3477V106.678H107.242V93.3477H120.572Z" fill="#F2F2F2"/>
<path d="M120.572 79.9941V93.3477H107.242V79.9941H120.572Z" fill="#F2F2F2"/>
<path d="M120.572 66.6758V79.9941H107.242V66.6758H120.572Z" fill="#F2F2F2"/>
<path d="M120.572 53.3438V66.6739H107.242V53.3438H120.572Z" fill="#F2F2F2"/>
<path d="M120.572 40.0117V53.3419H107.242V40.0117H120.572Z" fill="white"/>
<path d="M107.244 133.338V146.656H93.9141V133.338H107.244Z" fill="#CEE0E0"/>
<path d="M107.244 120.008V133.338H93.9141V120.008H107.244Z" fill="#CEE0E0"/>
<path d="M107.244 106.676V120.006H93.9141V106.676H107.244Z" fill="#CEE0E0"/>
<path d="M107.244 93.3477V106.678H93.9141V93.3477H107.244Z" fill="#F2F2F2"/>
<path d="M107.244 79.9941V93.3477H93.9141V79.9941H107.244Z" fill="#F2F2F2"/>
<path d="M107.244 66.676L107.244 79.9941H93.9141L93.914 66.676H107.244Z" fill="#F2F2F2"/>
<path d="M107.244 53.3438V66.6739H93.9141V53.3438H107.244Z" fill="#F2F2F2"/>
<path d="M107.244 40.0117V53.3419H93.9141V40.0117H107.244Z" fill="white"/>
<path d="M93.9141 133.338V146.656H80.5605V133.338H93.9141Z" fill="#CEE0E0"/>
<path d="M93.9141 120.008V133.338H80.5605V120.008H93.9141Z" fill="#CEE0E0"/>
<path d="M93.9141 106.676V120.006H80.5605V106.676H93.9141Z" fill="#CEE0E0"/>
<path d="M93.9141 93.3477V106.678H80.5605V93.3477H93.9141Z" fill="#CEE0E0"/>
<path d="M93.9141 79.9941V93.3477H80.5605V79.9941H93.9141Z" fill="#F2F2F2"/>
<path d="M93.914 66.676L93.9141 79.9941H80.5605V66.6758L93.914 66.676Z" fill="#F2F2F2"/>
<path d="M93.9141 53.3438V66.6739H80.5605V53.3438H93.9141Z" fill="white"/>
<path d="M93.9141 40.0117V53.3419H80.5605V40.0117H93.9141Z" fill="white"/>
<path d="M80.5626 133.338V146.656H67.2324V133.338H80.5626Z" fill="#CEE0E0"/>
<path d="M80.5626 120.008V133.338H67.2324V120.008H80.5626Z" fill="#CEE0E0"/>
<path d="M80.5626 106.676V120.006H67.2324V106.676H80.5626Z" fill="#F2F2F2"/>
<path d="M80.5626 93.3477V106.678H67.2324V93.3477H80.5626Z" fill="#CEE0E0"/>
<path d="M80.5626 79.9941V93.3477H67.2324V79.9941H80.5626Z" fill="#F2F2F2"/>
<path d="M80.5626 66.6758V79.9941H67.2324V66.6758H80.5626Z" fill="white"/>
<path d="M80.5626 53.3438V66.6739H67.2324V53.3438H80.5626Z" fill="white"/>
<path d="M67.2267 133.338V146.656H53.8965V133.338H67.2267Z" fill="#CEE0E0"/>
<path d="M67.2267 120.008V133.338H53.8965V120.008H67.2267Z" fill="#CEE0E0"/>
<path d="M67.2267 106.676V120.006H53.8965V106.676H67.2267Z" fill="#F2F2F2"/>
<path d="M67.2267 93.3477V106.678H53.8965V93.3477H67.2267Z" fill="#F2F2F2"/>
<path d="M67.2267 79.9941V93.3477H53.8965V79.9941H67.2267Z" fill="white"/>
<path d="M67.2267 66.6758V79.9941H53.8965V66.6758H67.2267Z" fill="white"/>
<path d="M53.8965 133.338V146.656H40.5781V133.338H53.8965Z" fill="#CEE0E0"/>
<path d="M53.8965 120.008V133.338H40.5781V120.008H53.8965Z" fill="#CEE0E0"/>
<path d="M53.8965 106.676V120.006H40.5781V106.676H53.8965Z" fill="#F2F2F2"/>
<path d="M53.8965 93.3477V106.678H40.5781V93.3477H53.8965Z" fill="#F2F2F2"/>
<path d="M53.8965 79.9941V93.3477H40.5781V79.9941H53.8965Z" fill="white"/>
<path d="M40.5821 133.338V146.656H27.252V133.338H40.5821Z" fill="#CEE0E0"/>
<path d="M40.5821 120.008V133.338H27.252V120.008H40.5821Z" fill="#CEE0E0"/>
<path d="M40.5821 106.676V120.006H27.252V106.676H40.5821Z" fill="#F2F2F2"/>
<path d="M40.5821 93.3477V106.678H27.252V93.3477H40.5821Z" fill="#F2F2F2"/>
<path d="M40.5821 79.9941V93.3477H27.252V79.9941H40.5821Z" fill="white"/>
<path d="M27.254 133.338V146.656H13.9238V133.338H27.254Z" fill="#CEE0E0"/>
<path d="M27.254 120.008V133.338H13.9238V120.008H27.254Z" fill="#CEE0E0"/>
<path d="M27.254 106.676V120.006H13.9238V106.676H27.254Z" fill="#F2F2F2"/>
<path d="M27.254 93.3477V106.678H13.9238V93.3477H27.254Z" fill="#F2F2F2"/>
<path d="M27.254 79.9941V93.3477H13.9238V79.9941H27.254Z" fill="#F2F2F2"/>
<path d="M13.9238 120.008V133.338L0.570312 133.338V120.008H13.9238Z" fill="#CEE0E0"/>
<path d="M13.9238 106.676V120.006H0.570312V106.676H13.9238Z" fill="#CEE0E0"/>
<path d="M13.9238 93.3477V106.678H0.570312V93.3477H13.9238Z" fill="#F2F2F2"/>
</svg>
