<svg width="201" height="134" viewBox="0 0 201 134" fill="none" xmlns="http://www.w3.org/2000/svg">
<path d="M200.16 107.348V120.667H186.841V107.348H200.16Z" fill="#CEE0E0"/>
<path d="M200.16 93.9941V107.349H186.841V93.9941H200.16Z" fill="#F2F2F2"/>
<path d="M200.16 80.666V93.997H186.841V80.666H200.16Z" fill="#CEE0E0"/>
<path d="M200.16 67.334V80.665H186.841V67.334H200.16Z" fill="#F2F2F2"/>
<path d="M200.16 54V67.331H186.841V54H200.16Z" fill="#F2F2F2"/>
<path d="M186.835 107.348V120.667H173.469V107.348H186.835Z" fill="#CEE0E0"/>
<path d="M186.835 93.9941V107.349H173.469V93.9941H186.835Z" fill="#CEE0E0"/>
<path d="M186.835 80.666V93.997H173.469V80.666H186.835Z" fill="#CEE0E0"/>
<path d="M186.835 67.334V80.665H173.469V67.334H186.835Z" fill="#F2F2F2"/>
<path d="M186.835 54V67.331H173.469V54H186.835Z" fill="#F2F2F2"/>
<path d="M186.835 40.6719V54.0028H173.469V40.6719H186.835Z" fill="#F2F2F2"/>
<path d="M173.469 107.348V120.667H160.15V107.348H173.469Z" fill="#CEE0E0"/>
<path d="M173.469 93.9941V107.349H160.15V93.9941H173.469Z" fill="#CEE0E0"/>
<path d="M173.469 80.666V93.997H160.15V80.666H173.469Z" fill="#CEE0E0"/>
<path d="M173.469 67.334V80.665H160.15V67.334H173.469Z" fill="#CEE0E0"/>
<path d="M173.469 54V67.331H160.15V54H173.469Z" fill="#F2F2F2"/>
<path d="M173.469 40.6719V54.0028H160.15V40.6719H173.469Z" fill="#F2F2F2"/>
<path d="M160.153 120.668V133.999H146.822V120.668H160.153Z" fill="#CEE0E0"/>
<path d="M160.153 107.348V120.667H146.822V107.348H160.153Z" fill="#CEE0E0"/>
<path d="M160.153 93.9941V107.349H146.822V93.9941H160.153Z" fill="#CEE0E0"/>
<path d="M160.153 80.666V93.997H146.822V80.666H160.153Z" fill="#F2F2F2"/>
<path d="M160.153 67.334V80.665H146.822V67.334H160.153Z" fill="white"/>
<path d="M160.153 54V67.331H146.822V54H160.153Z" fill="white"/>
<path d="M160.153 40.6719V54.0028H146.822V40.6719H160.153Z" fill="#F2F2F2"/>
<path d="M146.825 120.668V133.999H133.494V120.668H146.825Z" fill="#CEE0E0"/>
<path d="M146.825 107.348V120.667H133.494V107.348H146.825Z" fill="#CEE0E0"/>
<path d="M146.825 93.9941V107.349H133.494V93.9941H146.825Z" fill="#CEE0E0"/>
<path d="M146.825 80.666V93.997H133.494V80.666H146.825Z" fill="#F2F2F2"/>
<path d="M146.825 67.334V80.665H133.494V67.334H146.825Z" fill="white"/>
<path d="M146.825 54V67.331H133.494V54H146.825Z" fill="white"/>
<path d="M146.825 40.6719V54.0028H133.494V40.6719H146.825Z" fill="#F2F2F2"/>
<path d="M146.825 27.3184V40.6729H133.494V27.3184H146.825Z" fill="white"/>
<path d="M146.825 14V27.3184H133.494V14H146.825Z" fill="white"/>
<path d="M133.487 120.668V133.999H120.156V120.668H133.487Z" fill="#CEE0E0"/>
<path d="M133.487 107.348V120.667H120.156V107.348H133.487Z" fill="#CEE0E0"/>
<path d="M133.487 93.9941V107.349H120.156V93.9941H133.487Z" fill="#F2F2F2"/>
<path d="M133.487 80.666V93.997H120.156V80.666H133.487Z" fill="#F2F2F2"/>
<path d="M133.487 67.334V80.665H120.156V67.334H133.487Z" fill="#F2F2F2"/>
<path d="M133.487 54V67.331H120.156V54H133.487Z" fill="#F2F2F2"/>
<path d="M133.487 40.6719V54.0028H120.156V40.6719H133.487Z" fill="#F2F2F2"/>
<path d="M133.487 27.3184V40.6729H120.156V27.3184H133.487Z" fill="#F2F2F2"/>
<path d="M133.487 14V27.3184H120.156V14H133.487Z" fill="white"/>
<path d="M133.487 0.666016V13.997H120.156V0.666016H133.487Z" fill="white"/>
<path d="M120.157 120.668V133.999H106.803V120.668H120.157Z" fill="#CEE0E0"/>
<path d="M120.157 107.348V120.667H106.803V107.348H120.157Z" fill="#CEE0E0"/>
<path d="M120.157 93.9941V107.349H106.803V93.9941H120.157Z" fill="#CEE0E0"/>
<path d="M120.157 80.666V93.997H106.803V80.666H120.157Z" fill="#F2F2F2"/>
<path d="M120.157 67.334V80.665H106.803V67.334H120.157Z" fill="#F2F2F2"/>
<path d="M120.157 54V67.331H106.803V54H120.157Z" fill="#CEE0E0"/>
<path d="M120.157 40.6719V54.0028H106.803V40.6719H120.157Z" fill="#F2F2F2"/>
<path d="M120.157 27.3184V40.6729H106.803V27.3184H120.157Z" fill="#F2F2F2"/>
<path d="M120.157 14V27.3184H106.803V14H120.157Z" fill="#F2F2F2"/>
<path d="M120.157 0.666016V13.997H106.803V0.666016H120.157Z" fill="white"/>
<path d="M106.806 107.348V120.667H93.4746V107.348H106.806Z" fill="#CEE0E0"/>
<path d="M106.806 93.9941V107.349H93.4746V93.9941H106.806Z" fill="#CEE0E0"/>
<path d="M106.806 80.666V93.997H93.4746V80.666H106.806Z" fill="#CEE0E0"/>
<path d="M106.806 67.334V80.665H93.4746V67.334H106.806Z" fill="#CEE0E0"/>
<path d="M106.806 54V67.331H93.4746V54H106.806Z" fill="#CEE0E0"/>
<path d="M106.806 40.6719V54.0028H93.4746V40.6719H106.806Z" fill="#F2F2F2"/>
<path d="M106.806 27.3184V40.6729H93.4746V27.3184H106.806Z" fill="#F2F2F2"/>
<path d="M106.806 14V27.3184H93.4746V14H106.806Z" fill="#F2F2F2"/>
<path d="M106.806 0.666016V13.997H93.4746V0.666016H106.806Z" fill="white"/>
<path d="M93.4735 107.348V120.667H80.1543V107.348H93.4735Z" fill="#CEE0E0"/>
<path d="M93.4735 93.9941V107.349H80.1543V93.9941H93.4735Z" fill="#CEE0E0"/>
<path d="M93.4735 80.666V93.997H80.1543V80.666H93.4735Z" fill="#CEE0E0"/>
<path d="M93.4735 67.334V80.665H80.1543V67.334H93.4735Z" fill="#CEE0E0"/>
<path d="M93.4735 54V67.331H80.1543V54H93.4735Z" fill="#F2F2F2"/>
<path d="M93.4735 40.6719V54.0028H80.1543V40.6719H93.4735Z" fill="#F2F2F2"/>
<path d="M93.4735 27.3184V40.6729H80.1543V27.3184H93.4735Z" fill="#F2F2F2"/>
<path d="M93.4735 14V27.3184H80.1543V14H93.4735Z" fill="#F2F2F2"/>
<path d="M93.4735 0.666016V13.997H80.1543V0.666016H93.4735Z" fill="white"/>
<path d="M80.1572 107.348V120.667H66.8262V107.348H80.1572Z" fill="#CEE0E0"/>
<path d="M80.1572 93.9941V107.349H66.8262V93.9941H80.1572Z" fill="#CEE0E0"/>
<path d="M80.1572 80.666V93.997H66.8262V80.666H80.1572Z" fill="#CEE0E0"/>
<path d="M80.1572 67.334V80.665H66.8262V67.334H80.1572Z" fill="#CEE0E0"/>
<path d="M80.1572 54V67.331H66.8262V54H80.1572Z" fill="#CEE0E0"/>
<path d="M80.1572 40.6719V54.0028H66.8262V40.6719H80.1572Z" fill="#F2F2F2"/>
<path d="M80.1572 27.3184V40.6729H66.8262V27.3184H80.1572Z" fill="#F2F2F2"/>
<path d="M80.1572 14V27.3184H66.8262V14H80.1572Z" fill="white"/>
<path d="M80.1572 0.666016V13.997H66.8262V0.666016H80.1572Z" fill="white"/>
<path d="M66.8212 107.348V120.667H53.4902V107.348H66.8212Z" fill="#CEE0E0"/>
<path d="M66.8212 93.9941V107.349H53.4902V93.9941H66.8212Z" fill="#CEE0E0"/>
<path d="M66.8212 80.666V93.997H53.4902V80.666H66.8212Z" fill="#F2F2F2"/>
<path d="M66.8212 67.334V80.665H53.4902V67.334H66.8212Z" fill="#F2F2F2"/>
<path d="M66.8212 54V67.331H53.4902V54H66.8212Z" fill="#CEE0E0"/>
<path d="M66.8212 40.6719V54.0028H53.4902V40.6719H66.8212Z" fill="#F2F2F2"/>
<path d="M66.8212 27.3184V40.6729H53.4902V27.3184H66.8212Z" fill="white"/>
<path d="M66.8212 14V27.3184H53.4902V14H66.8212Z" fill="white"/>
<path d="M53.4931 107.348V120.667H40.1621V107.348H53.4931Z" fill="#CEE0E0"/>
<path d="M53.4931 93.9941V107.349H40.1621V93.9941H53.4931Z" fill="#CEE0E0"/>
<path d="M53.4931 80.666V93.997H40.1621V80.666H53.4931Z" fill="#F2F2F2"/>
<path d="M53.4931 67.334V80.665H40.1621V67.334H53.4931Z" fill="#F2F2F2"/>
<path d="M53.4931 54V67.331H40.1621V54H53.4931Z" fill="#F2F2F2"/>
<path d="M40.1621 107.348V120.667H26.8066V107.348H40.1621Z" fill="#CEE0E0"/>
<path d="M40.1621 93.9941V107.349H26.8066V93.9941H40.1621Z" fill="#CEE0E0"/>
<path d="M40.1621 80.666V93.997H26.8066V80.666H40.1621Z" fill="#F2F2F2"/>
<path d="M40.1621 67.334V80.665H26.8066V67.334H40.1621Z" fill="#F2F2F2"/>
<path d="M40.1621 54V67.331H26.8066V54H40.1621Z" fill="#F2F2F2"/>
<path d="M26.8066 93.9941V107.349H13.4883V93.9941H26.8066Z" fill="#CEE0E0"/>
<path d="M26.8066 80.666V93.997H13.4883V80.666H26.8066Z" fill="#F2F2F2"/>
<path d="M26.8066 67.334V80.665H13.4883V67.334H26.8066Z" fill="#F2F2F2"/>
<path d="M26.8066 54V67.331H13.4883V54H26.8066Z" fill="#F2F2F2"/>
<path d="M13.4911 93.9941V107.349H0.160156V93.9941H13.4911Z" fill="#CEE0E0"/>
<path d="M13.4911 80.666V93.997H0.160156V80.666H13.4911Z" fill="#F2F2F2"/>
<path d="M13.4911 67.334V80.665H0.160156V67.334H13.4911Z" fill="#F2F2F2"/>
</svg>
