<svg width="116" height="200" viewBox="0 0 116 200" fill="none" xmlns="http://www.w3.org/2000/svg">
<path d="M53.7402 0H58.1847V4.44444H53.7402V0Z" fill="#263238"/>
<path d="M58.1836 0H62.628V4.44444H58.1836V0Z" fill="#263238"/>
<path d="M62.628 0H67.0733V4.44444H62.628V0Z" fill="#263238"/>
<path d="M67.0723 0H71.5167V4.44444H67.0723V0Z" fill="#263238"/>
<path d="M71.5167 0L75.9618 0V4.44444H71.5167V0Z" fill="#263238"/>
<path d="M49.2951 4.44444H53.7402L53.7396 8.88889H49.2951V4.44444Z" fill="#263238"/>
<path d="M53.7402 4.44444H58.1847V8.88878L53.7396 8.88889L53.7402 4.44444Z" fill="#13B26B"/>
<path d="M58.1836 4.44444H62.628V8.88878H58.1836V4.44444Z" fill="#13B26B"/>
<path d="M62.628 4.44444H67.0733V8.88878H62.628V4.44444Z" fill="#13B26B"/>
<path d="M67.0723 4.44444H71.5167V8.88878H67.0723V4.44444Z" fill="#13B26B"/>
<path d="M71.5167 4.44444H75.9618V8.88889L71.5167 8.88878V4.44444Z" fill="#13B26B"/>
<path d="M75.9618 4.44444L80.4054 4.44434V8.88878L75.9618 8.88889V4.44444Z" fill="#263238"/>
<path d="M44.8516 8.88867L49.2951 8.88889L49.296 13.3331H44.8516V8.88867Z" fill="#263238"/>
<path d="M49.2951 8.88889H53.7396V13.3333L49.296 13.3331L49.2951 8.88889Z" fill="#13B26B"/>
<path d="M53.7396 8.88889L58.1847 8.88878V13.3331L53.7396 13.3333V8.88889Z" fill="#13B26B"/>
<path d="M58.1836 8.88878H62.628V13.3331H58.1836V8.88878Z" fill="#00874B"/>
<path d="M62.628 8.88878H67.0733V13.3331H62.628V8.88878Z" fill="#00874B"/>
<path d="M67.0723 8.88878H71.5167V13.3331H67.0723V8.88878Z" fill="#00874B"/>
<path d="M71.5167 8.88878L75.9618 8.88889V13.3333L71.5167 13.3331V8.88878Z" fill="#13B26B"/>
<path d="M75.9618 8.88889L80.4054 8.88878V13.3331L75.9618 13.3333V8.88889Z" fill="#263238"/>
<path d="M40.4062 13.333L44.8516 13.3331L44.8507 17.7775H40.4062V13.333Z" fill="#263238"/>
<path d="M44.8516 13.3331H49.296V17.7775H44.8507L44.8516 13.3331Z" fill="#13B26B"/>
<path d="M49.2949 13.333L53.7396 13.3333L53.7394 17.7775H49.2949V13.333Z" fill="#13B26B"/>
<path d="M53.7396 13.3333L58.1847 13.3331V17.7775H53.7394L53.7396 13.3333Z" fill="#00874B"/>
<path d="M58.1836 13.3331H62.628V17.7775H58.1836V13.3331Z" fill="#00874B"/>
<path d="M62.628 13.3331H67.0733V17.7775H62.628V13.3331Z" fill="#13B26B"/>
<path d="M67.0723 13.3331H71.5167V17.7775H67.0723V13.3331Z" fill="#00874B"/>
<path d="M71.5167 13.3331L75.9618 13.3333L75.962 17.7775H71.5167V13.3331Z" fill="#13B26B"/>
<path d="M75.9618 13.3333L80.4054 13.3331V17.7775H75.9609L75.9618 13.3333Z" fill="#13B26B"/>
<path d="M80.4054 13.3331L84.8507 13.333V17.7775H80.4054V13.3331Z" fill="#263238"/>
<path d="M40.4062 17.7775H44.8507V22.2218H40.4062V17.7775Z" fill="#263238"/>
<path d="M44.8507 17.7775H49.296V22.2218H44.8507V17.7775Z" fill="#13B26B"/>
<path d="M49.2949 17.7775H53.7394V22.2218H49.2949V17.7775Z" fill="#00874B"/>
<path d="M53.7394 17.7775H58.1847V22.2218H53.7394V17.7775Z" fill="#13B26B"/>
<path d="M58.1836 17.7775H62.628V22.2218H58.1836V17.7775Z" fill="#13B26B"/>
<path d="M62.628 17.7775H67.0733V22.2218H62.628V17.7775Z" fill="#00874B"/>
<path d="M67.0723 17.7775H71.5167V22.2218H67.0723V17.7775Z" fill="#00874B"/>
<path d="M71.5167 17.7775H75.962V22.2218H71.5167V17.7775Z" fill="#00874B"/>
<path d="M75.9609 17.7775H80.4054V22.2218H75.9609V17.7775Z" fill="#00874B"/>
<path d="M80.4054 17.7775H84.8507V22.2218H80.4054V17.7775Z" fill="#263238"/>
<path d="M35.9609 22.2227H40.4054V26.6671H35.9609V22.2227Z" fill="#263238"/>
<path d="M40.4062 22.2218H44.8507V26.6671H40.4054L40.4062 22.2218Z" fill="#13B26B"/>
<path d="M44.8516 22.2227L49.296 22.2218V26.6671H44.8507L44.8516 22.2227Z" fill="#13B26B"/>
<path d="M49.2949 22.2218H53.7394V26.6671H49.2949V22.2218Z" fill="#00874B"/>
<path d="M53.7402 22.2227L58.1847 22.2218V26.6671H53.7394L53.7402 22.2227Z" fill="#00874B"/>
<path d="M58.1836 22.2218H62.628V26.6671H58.1836V22.2218Z" fill="#00874B"/>
<path d="M62.6289 22.2227L67.0733 22.2218V26.6671H62.628L62.6289 22.2227Z" fill="#00874B"/>
<path d="M67.0723 22.2218H71.5167V26.6671H67.0723V22.2218Z" fill="#00874B"/>
<path d="M71.5176 22.2227L75.962 22.2218V26.6671H71.5167L71.5176 22.2227Z" fill="#00874B"/>
<path d="M75.9609 22.2218H80.4054V26.6671H75.9609V22.2218Z" fill="#00874B"/>
<path d="M80.4062 22.2227L84.8507 22.2218V26.6671H80.4054L80.4062 22.2227Z" fill="#13B26B"/>
<path d="M84.8516 22.2227H89.296V26.6671H84.8507L84.8516 22.2227Z" fill="#263238"/>
<path d="M89.2949 22.2227H93.7394V26.6671H89.2949V22.2227Z" fill="#263238"/>
<path d="M35.9609 26.6671H40.4054V31.1114H35.9609V26.6671Z" fill="#263238"/>
<path d="M40.4054 26.6671H44.8507V31.1114H40.4054V26.6671Z" fill="#13B26B"/>
<path d="M44.8507 26.6671H49.296V31.1114H44.8507V26.6671Z" fill="#00874B"/>
<path d="M49.2949 26.6671H53.7394V31.1114H49.2949V26.6671Z" fill="#00874B"/>
<path d="M53.7394 26.6671H58.1847V31.1114H53.7394V26.6671Z" fill="#00874B"/>
<path d="M58.1836 26.6671H62.628V31.1114H58.1836V26.6671Z" fill="#00874B"/>
<path d="M62.628 26.6671H67.0733V31.1114H62.628V26.6671Z" fill="#00874B"/>
<path d="M67.0723 26.6671H71.5167V31.1114H67.0723V26.6671Z" fill="#00874B"/>
<path d="M71.5167 26.6671H75.962V31.1114H71.5167V26.6671Z" fill="#00874B"/>
<path d="M75.9609 26.6671H80.4054V31.1114H75.9609V26.6671Z" fill="#00874B"/>
<path d="M80.4054 26.6671H84.8507V31.1114H80.4054V26.6671Z" fill="#00874B"/>
<path d="M84.8507 26.6671H89.296V31.1114H84.8507V26.6671Z" fill="#00874B"/>
<path d="M89.2949 26.6671H93.7394V31.1114H89.2949V26.6671Z" fill="#13B26B"/>
<path d="M93.7394 26.6671L98.1847 26.667V31.1114H93.7394V26.6671Z" fill="#263238"/>
<path d="M27.0723 31.1113H31.5167V35.5558H27.0723V31.1113Z" fill="#263238"/>
<path d="M31.5167 31.1113L35.9609 31.1114L35.9618 35.5556L31.5167 35.5558V31.1113Z" fill="#263238"/>
<path d="M35.9609 31.1114H40.4054V35.5558L35.9618 35.5556L35.9609 31.1114Z" fill="#263238"/>
<path d="M40.4054 31.1114H44.8507V35.5556L40.4054 35.5558V31.1114Z" fill="#00874B"/>
<path d="M44.8507 31.1114H49.296V35.5558L44.8507 35.5556V31.1114Z" fill="#00874B"/>
<path d="M49.2949 31.1114H53.7394L53.7396 35.5556L49.296 35.5558L49.2949 31.1114Z" fill="#00874B"/>
<path d="M53.7394 31.1114H58.1847V35.5558L53.7396 35.5556L53.7394 31.1114Z" fill="#00874B"/>
<path d="M58.1836 31.1114H62.628V35.5558H58.1836V31.1114Z" fill="#00874B"/>
<path d="M62.628 31.1114H67.0733V35.5558H62.628V31.1114Z" fill="#00874B"/>
<path d="M67.0723 31.1114H71.5167V35.5558H67.0723V31.1114Z" fill="#00874B"/>
<path d="M71.5167 31.1114H75.9609L75.9618 35.5556L71.5167 35.5558V31.1114Z" fill="#00874B"/>
<path d="M75.9609 31.1114H80.4054V35.5558L75.9618 35.5556L75.9609 31.1114Z" fill="#00874B"/>
<path d="M80.4054 31.1114H84.8507V35.5556L80.4054 35.5558V31.1114Z" fill="#13B26B"/>
<path d="M84.8507 31.1114H89.296V35.5558L84.8507 35.5556V31.1114Z" fill="#13B26B"/>
<path d="M89.2949 31.1114H93.7394L93.7396 35.5556L89.296 35.5558L89.2949 31.1114Z" fill="#13B26B"/>
<path d="M93.7394 31.1114H98.1847V35.5558L93.7396 35.5556L93.7394 31.1114Z" fill="#13B26B"/>
<path d="M98.1836 31.1113H102.628V35.5558H98.1836V31.1113Z" fill="#263238"/>
<path d="M18.1836 35.5557H22.628V40.0001H18.1836V35.5557Z" fill="#263238"/>
<path d="M22.628 35.5557H27.0734V40.0001H22.628V35.5557Z" fill="#263238"/>
<path d="M27.0723 35.5558H31.5167V40.0001H27.0723V35.5558Z" fill="#13B26B"/>
<path d="M31.5167 35.5558L35.9618 35.5556V40L31.5167 40.0001V35.5558Z" fill="#13B26B"/>
<path d="M35.9618 35.5556L40.4054 35.5558V40.0001L35.9618 40V35.5556Z" fill="#13B26B"/>
<path d="M40.4054 35.5558L44.8507 35.5556V40L40.4054 40.0001V35.5558Z" fill="#13B26B"/>
<path d="M44.8507 35.5556L49.296 35.5558V40.0001L44.8507 40V35.5556Z" fill="#13B26B"/>
<path d="M49.296 35.5558L53.7396 35.5556V40L49.296 40.0001V35.5558Z" fill="#13B26B"/>
<path d="M53.7396 35.5556L58.1847 35.5558V40.0001L53.7396 40V35.5556Z" fill="#00874B"/>
<path d="M58.1836 35.5558H62.628V40.0001H58.1836V35.5558Z" fill="#00874B"/>
<path d="M62.628 35.5558H67.0733V40.0001H62.628V35.5558Z" fill="#00874B"/>
<path d="M67.0723 35.5558H71.5167V40.0001H67.0723V35.5558Z" fill="#00874B"/>
<path d="M71.5167 35.5558L75.9618 35.5556V40L71.5167 40.0001V35.5558Z" fill="#13B26B"/>
<path d="M75.9618 35.5556L80.4054 35.5558V40.0001L75.9618 40V35.5556Z" fill="#13B26B"/>
<path d="M80.4054 35.5558L84.8507 35.5556V40L80.4054 40.0001V35.5558Z" fill="#00874B"/>
<path d="M84.8507 35.5556L89.296 35.5558V40.0001L84.8507 40V35.5556Z" fill="#00874B"/>
<path d="M89.296 35.5558L93.7396 35.5556V40L89.296 40.0001V35.5558Z" fill="#13B26B"/>
<path d="M93.7396 35.5556L98.1847 35.5558V40.0001L93.7396 40V35.5556Z" fill="#13B26B"/>
<path d="M98.1836 35.5558H102.628V40.0001H98.1836V35.5558Z" fill="#263238"/>
<path d="M13.7402 40H18.1847V44.4444H13.7402V40Z" fill="#263238"/>
<path d="M18.1836 40.0001H22.628V44.4444H18.1836V40.0001Z" fill="#13B26B"/>
<path d="M22.628 40.0001H27.0734V44.4444H22.628V40.0001Z" fill="#13B26B"/>
<path d="M27.0723 40.0001H31.5167V44.4444H27.0723V40.0001Z" fill="#13B26B"/>
<path d="M31.5167 40.0001L35.9618 40V44.4444H31.5167V40.0001Z" fill="#13B26B"/>
<path d="M35.9618 40L40.4054 40.0001V44.4444H35.9618V40Z" fill="#00874B"/>
<path d="M40.4054 40.0001L44.8507 40V44.4444H40.4054V40.0001Z" fill="#00874B"/>
<path d="M44.8507 40L49.296 40.0001V44.4444H44.8507V40Z" fill="#00874B"/>
<path d="M49.296 40.0001L53.7396 40V44.4444H49.296V40.0001Z" fill="#13B26B"/>
<path d="M53.7396 40L58.1847 40.0001V44.4444H53.7396V40Z" fill="#13B26B"/>
<path d="M58.1836 40.0001H62.628V44.4444H58.1836V40.0001Z" fill="#00874B"/>
<path d="M62.628 40.0001H67.0733V44.4444H62.628V40.0001Z" fill="#00874B"/>
<path d="M67.0723 40.0001H71.5167V44.4444H67.0723V40.0001Z" fill="#13B26B"/>
<path d="M71.5167 40.0001L75.9618 40V44.4444H71.5167V40.0001Z" fill="#13B26B"/>
<path d="M75.9618 40L80.4054 40.0001V44.4444H75.9618V40Z" fill="#00874B"/>
<path d="M80.4054 40.0001L84.8507 40V44.4444H80.4054V40.0001Z" fill="#00874B"/>
<path d="M84.8507 40L89.296 40.0001V44.4444H84.8507V40Z" fill="#00874B"/>
<path d="M89.296 40.0001L93.7396 40V44.4444H89.296V40.0001Z" fill="#00874B"/>
<path d="M93.7396 40L98.1847 40.0001V44.4444H93.7396V40Z" fill="#13B26B"/>
<path d="M98.1836 40.0001H102.628V44.4444H98.1836V40.0001Z" fill="#13B26B"/>
<path d="M102.628 40.0001L107.073 40V44.4444H102.628V40.0001Z" fill="#263238"/>
<path d="M9.29514 44.4444L13.7402 44.4444L13.7396 48.8889H9.29514V44.4444Z" fill="#263238"/>
<path d="M13.7402 44.4444H18.1847V48.8888L13.7396 48.8889L13.7402 44.4444Z" fill="#13B26B"/>
<path d="M18.1836 44.4444H22.628V48.8888H18.1836V44.4444Z" fill="#13B26B"/>
<path d="M22.628 44.4444H27.0734V48.8888H22.628V44.4444Z" fill="#13B26B"/>
<path d="M27.0723 44.4444H31.5167V48.8888H27.0723V44.4444Z" fill="#13B26B"/>
<path d="M31.5167 44.4444H35.9618V48.8889L31.5167 48.8888V44.4444Z" fill="#00874B"/>
<path d="M35.9618 44.4444H40.4054V48.8888L35.9618 48.8889V44.4444Z" fill="#00874B"/>
<path d="M40.4054 44.4444H44.8507V48.8889L40.4054 48.8888V44.4444Z" fill="#00874B"/>
<path d="M44.8507 44.4444H49.296V48.8888L44.8507 48.8889V44.4444Z" fill="#00874B"/>
<path d="M49.296 44.4444H53.7396V48.8889L49.296 48.8888V44.4444Z" fill="#00874B"/>
<path d="M53.7396 44.4444H58.1847V48.8888L53.7396 48.8889V44.4444Z" fill="#13B26B"/>
<path d="M58.1836 44.4444H62.628V48.8888H58.1836V44.4444Z" fill="#00874B"/>
<path d="M62.628 44.4444H67.0733V48.8888H62.628V44.4444Z" fill="#00874B"/>
<path d="M67.0723 44.4444H71.5167V48.8888H67.0723V44.4444Z" fill="#13B26B"/>
<path d="M71.5167 44.4444H75.9618V48.8889L71.5167 48.8888V44.4444Z" fill="#00874B"/>
<path d="M75.9618 44.4444H80.4054V48.8888L75.9618 48.8889V44.4444Z" fill="#00874B"/>
<path d="M80.4054 44.4444H84.8507V48.8889L80.4054 48.8888V44.4444Z" fill="#00874B"/>
<path d="M84.8507 44.4444H89.296V48.8888L84.8507 48.8889V44.4444Z" fill="#00874B"/>
<path d="M89.296 44.4444H93.7396V48.8889L89.296 48.8888V44.4444Z" fill="#13B26B"/>
<path d="M93.7396 44.4444H98.1847V48.8888L93.7396 48.8889V44.4444Z" fill="#00874B"/>
<path d="M98.1836 44.4444H102.628V48.8888H98.1836V44.4444Z" fill="#13B26B"/>
<path d="M102.628 44.4444H107.073V48.8888H102.628V44.4444Z" fill="#263238"/>
<path d="M9.29514 48.8889H13.7396V53.3333H9.29514V48.8889Z" fill="#263238"/>
<path d="M13.7396 48.8889L18.1847 48.8888V53.3331L13.7396 53.3333V48.8889Z" fill="#00874B"/>
<path d="M18.1836 48.8888H22.628V53.3331H18.1836V48.8888Z" fill="#00874B"/>
<path d="M22.628 48.8888H27.0734V53.3331H22.628V48.8888Z" fill="#13B26B"/>
<path d="M27.0723 48.8888H31.5167V53.3331H27.0723V48.8888Z" fill="#13B26B"/>
<path d="M31.5167 48.8888L35.9618 48.8889V53.3333L31.5167 53.3331V48.8888Z" fill="#00874B"/>
<path d="M35.9618 48.8889L40.4054 48.8888V53.3331L35.9618 53.3333V48.8889Z" fill="#00874B"/>
<path d="M40.4054 48.8888L44.8507 48.8889V53.3333L40.4054 53.3331V48.8888Z" fill="#00874B"/>
<path d="M44.8507 48.8889L49.296 48.8888V53.3331L44.8507 53.3333V48.8889Z" fill="#00874B"/>
<path d="M49.296 48.8888L53.7396 48.8889V53.3333L49.296 53.3331V48.8888Z" fill="#00874B"/>
<path d="M53.7396 48.8889L58.1847 48.8888V53.3331L53.7396 53.3333V48.8889Z" fill="#00874B"/>
<path d="M58.1836 48.8888H62.628V53.3331H58.1836V48.8888Z" fill="#00874B"/>
<path d="M62.628 48.8888H67.0733V53.3331H62.628V48.8888Z" fill="#13B26B"/>
<path d="M67.0723 48.8888H71.5167V53.3331H67.0723V48.8888Z" fill="#13B26B"/>
<path d="M71.5167 48.8888L75.9618 48.8889V53.3333L71.5167 53.3331V48.8888Z" fill="#00874B"/>
<path d="M75.9618 48.8889L80.4054 48.8888V53.3331L75.9618 53.3333V48.8889Z" fill="#00874B"/>
<path d="M80.4054 48.8888L84.8507 48.8889V53.3333L80.4054 53.3331V48.8888Z" fill="#00874B"/>
<path d="M84.8507 48.8889L89.296 48.8888V53.3331L84.8507 53.3333V48.8889Z" fill="#00874B"/>
<path d="M89.296 48.8888L93.7396 48.8889V53.3333L89.296 53.3331V48.8888Z" fill="#00874B"/>
<path d="M93.7396 48.8889L98.1847 48.8888V53.3331L93.7396 53.3333V48.8889Z" fill="#00874B"/>
<path d="M98.1836 48.8888H102.628V53.3331H98.1836V48.8888Z" fill="#13B26B"/>
<path d="M102.628 48.8888H107.073V53.3331H102.628V48.8888Z" fill="#263238"/>
<path d="M9.29514 53.3333H13.7396L13.7394 57.7775H9.29492L9.29514 53.3333Z" fill="#263238"/>
<path d="M13.7396 53.3333L18.1847 53.3331V57.7775H13.7394L13.7396 53.3333Z" fill="#13B26B"/>
<path d="M18.1836 53.3331H22.628V57.7775H18.1836V53.3331Z" fill="#00874B"/>
<path d="M22.628 53.3331H27.0734V57.7775H22.628V53.3331Z" fill="#00874B"/>
<path d="M27.0723 53.3331H31.5167V57.7775H27.0723V53.3331Z" fill="#00874B"/>
<path d="M31.5167 53.3331L35.9618 53.3333L35.962 57.7775H31.5167V53.3331Z" fill="#13B26B"/>
<path d="M35.9618 53.3333L40.4054 53.3331V57.7775H35.9609L35.9618 53.3333Z" fill="#00874B"/>
<path d="M40.4054 53.3331L44.8507 53.3333V57.7775H40.4054V53.3331Z" fill="#00874B"/>
<path d="M44.8507 53.3333L49.296 53.3331V57.7775H44.8507V53.3333Z" fill="#00874B"/>
<path d="M49.2949 53.333L53.7396 53.3333L53.7394 57.7775H49.2949V53.333Z" fill="#00695C"/>
<path d="M53.7396 53.3333L58.1847 53.3331V57.7775H53.7394L53.7396 53.3333Z" fill="#00695C"/>
<path d="M58.1836 53.3331H62.628V57.7775H58.1836V53.3331Z" fill="#00874B"/>
<path d="M62.628 53.3331H67.0733V57.7775H62.628V53.3331Z" fill="#00874B"/>
<path d="M67.0723 53.3331H71.5167V57.7775H67.0723V53.3331Z" fill="#00695C"/>
<path d="M71.5167 53.3331L75.9618 53.3333L75.962 57.7775H71.5167V53.3331Z" fill="#00874B"/>
<path d="M75.9618 53.3333L80.4054 53.3331V57.7775H75.9609L75.9618 53.3333Z" fill="#00874B"/>
<path d="M80.4054 53.3331L84.8507 53.3333V57.7775H80.4054V53.3331Z" fill="#00874B"/>
<path d="M84.8507 53.3333L89.296 53.3331V57.7775H84.8507V53.3333Z" fill="#00874B"/>
<path d="M89.2949 53.333L93.7396 53.3333L93.7394 57.7775H89.2949V53.333Z" fill="#00874B"/>
<path d="M93.7396 53.3333L98.1847 53.3331V57.7775H93.7394L93.7396 53.3333Z" fill="#00874B"/>
<path d="M98.1836 53.3331H102.628V57.7775H98.1836V53.3331Z" fill="#00874B"/>
<path d="M102.628 53.3331H107.073V57.7775H102.628V53.3331Z" fill="#263238"/>
<path d="M9.29492 57.7775H13.7394V62.2218H9.29492V57.7775Z" fill="#263238"/>
<path d="M13.7394 57.7775H18.1847V62.2218H13.7394V57.7775Z" fill="#00874B"/>
<path d="M18.1836 57.7775H22.628V62.2218H18.1836V57.7775Z" fill="#00874B"/>
<path d="M22.628 57.7775H27.0734V62.2218H22.628V57.7775Z" fill="#00874B"/>
<path d="M27.0723 57.7775H31.5167V62.2218H27.0723V57.7775Z" fill="#00874B"/>
<path d="M31.5167 57.7775H35.962V62.2218H31.5167V57.7775Z" fill="#00874B"/>
<path d="M35.9609 57.7775H40.4054V62.2218H35.9609V57.7775Z" fill="#13B26B"/>
<path d="M40.4054 57.7775H44.8507V62.2218H40.4054V57.7775Z" fill="#13B26B"/>
<path d="M44.8507 57.7775H49.296V62.2218H44.8507V57.7775Z" fill="#13B26B"/>
<path d="M49.2949 57.7775H53.7394V62.2218H49.2949V57.7775Z" fill="#13B26B"/>
<path d="M53.7394 57.7775H58.1847V62.2218H53.7394V57.7775Z" fill="#13B26B"/>
<path d="M58.1836 57.7775H62.628V62.2218H58.1836V57.7775Z" fill="#00695C"/>
<path d="M62.628 57.7775H67.0733V62.2218H62.628V57.7775Z" fill="#00695C"/>
<path d="M67.0723 57.7775H71.5167V62.2218H67.0723V57.7775Z" fill="#13B26B"/>
<path d="M71.5167 57.7775H75.962V62.2218H71.5167V57.7775Z" fill="#13B26B"/>
<path d="M75.9609 57.7775H80.4054V62.2218H75.9609V57.7775Z" fill="#13B26B"/>
<path d="M80.4054 57.7775H84.8507V62.2218H80.4054V57.7775Z" fill="#00874B"/>
<path d="M84.8507 57.7775H89.296V62.2218H84.8507V57.7775Z" fill="#00874B"/>
<path d="M89.2949 57.7775H93.7394V62.2218H89.2949V57.7775Z" fill="#00874B"/>
<path d="M93.7394 57.7775H98.1847V62.2218H93.7394V57.7775Z" fill="#00874B"/>
<path d="M98.1836 57.7775H102.628V62.2218H98.1836V57.7775Z" fill="#00695C"/>
<path d="M102.628 57.7775H107.073V62.2218H102.628V57.7775Z" fill="#263238"/>
<path d="M9.29492 62.2218H13.7394V66.6671H9.29492V62.2218Z" fill="#263238"/>
<path d="M13.7402 62.2227L18.1847 62.2218V66.6671H13.7394L13.7402 62.2227Z" fill="#00874B"/>
<path d="M18.1836 62.2218H22.628V66.6671H18.1836V62.2218Z" fill="#00874B"/>
<path d="M22.6289 62.2227L27.0734 62.2218V66.6671H22.628L22.6289 62.2227Z" fill="#00874B"/>
<path d="M27.0723 62.2218H31.5167V66.6671H27.0723V62.2218Z" fill="#00874B"/>
<path d="M31.5176 62.2227L35.962 62.2218V66.6671H31.5167L31.5176 62.2227Z" fill="#13B26B"/>
<path d="M35.9609 62.2218H40.4054V66.6671H35.9609V62.2218Z" fill="#13B26B"/>
<path d="M40.4062 62.2227L44.8507 62.2218V66.6671H40.4054L40.4062 62.2227Z" fill="#00874B"/>
<path d="M44.8516 62.2227L49.296 62.2218V66.6671H44.8507L44.8516 62.2227Z" fill="#00874B"/>
<path d="M49.2949 62.2218H53.7394V66.6671H49.2949V62.2218Z" fill="#00874B"/>
<path d="M53.7402 62.2227L58.1847 62.2218V66.6671H53.7394L53.7402 62.2227Z" fill="#13B26B"/>
<path d="M58.1836 62.2218H62.628V66.6671H58.1836V62.2218Z" fill="#00695C"/>
<path d="M62.6289 62.2227L67.0733 62.2218V66.6671H62.628L62.6289 62.2227Z" fill="#13B26B"/>
<path d="M67.0723 62.2218H71.5167V66.6671H67.0723V62.2218Z" fill="#13B26B"/>
<path d="M71.5176 62.2227L75.962 62.2218V66.6671H71.5167L71.5176 62.2227Z" fill="#00874B"/>
<path d="M75.9609 62.2218H80.4054V66.6671H75.9609V62.2218Z" fill="#00874B"/>
<path d="M80.4062 62.2227L84.8507 62.2218V66.6671H80.4054L80.4062 62.2227Z" fill="#13B26B"/>
<path d="M84.8516 62.2227L89.296 62.2218V66.6671H84.8507L84.8516 62.2227Z" fill="#13B26B"/>
<path d="M89.2949 62.2218H93.7394V66.6671H89.2949V62.2218Z" fill="#00695C"/>
<path d="M93.7402 62.2227L98.1847 62.2218V66.6671H93.7394L93.7402 62.2227Z" fill="#00695C"/>
<path d="M98.1836 62.2218H102.628V66.6671H98.1836V62.2218Z" fill="#00874B"/>
<path d="M102.629 62.2227L107.073 62.2218V66.6671H102.628L102.629 62.2227Z" fill="#263238"/>
<path d="M9.29492 66.6671H13.7394V71.1114H9.29492V66.6671Z" fill="#263238"/>
<path d="M13.7394 66.6671H18.1847V71.1114H13.7394V66.6671Z" fill="#00874B"/>
<path d="M18.1836 66.6671H22.628V71.1114H18.1836V66.6671Z" fill="#00874B"/>
<path d="M22.628 66.6671H27.0734V71.1114H22.628V66.6671Z" fill="#00874B"/>
<path d="M27.0723 66.6671H31.5167V71.1114H27.0723V66.6671Z" fill="#00874B"/>
<path d="M31.5167 66.6671H35.962V71.1114H31.5167V66.6671Z" fill="#13B26B"/>
<path d="M35.9609 66.6671H40.4054V71.1114H35.9609V66.6671Z" fill="#13B26B"/>
<path d="M40.4054 66.6671H44.8507V71.1114H40.4054V66.6671Z" fill="#13B26B"/>
<path d="M44.8507 66.6671H49.296V71.1114H44.8507V66.6671Z" fill="#00874B"/>
<path d="M49.2949 66.6671H53.7394V71.1114H49.2949V66.6671Z" fill="#00874B"/>
<path d="M53.7394 66.6671H58.1847V71.1114H53.7394V66.6671Z" fill="#13B26B"/>
<path d="M58.1836 66.6671H62.628V71.1114H58.1836V66.6671Z" fill="#13B26B"/>
<path d="M62.628 66.6671H67.0733V71.1114H62.628V66.6671Z" fill="#13B26B"/>
<path d="M67.0723 66.6671H71.5167V71.1114H67.0723V66.6671Z" fill="#00874B"/>
<path d="M71.5167 66.6671H75.962V71.1114H71.5167V66.6671Z" fill="#00874B"/>
<path d="M75.9609 66.6671H80.4054V71.1114H75.9609V66.6671Z" fill="#00874B"/>
<path d="M80.4054 66.6671H84.8507V71.1114H80.4054V66.6671Z" fill="#13B26B"/>
<path d="M84.8507 66.6671H89.296V71.1114H84.8507V66.6671Z" fill="#13B26B"/>
<path d="M89.2949 66.6671H93.7394V71.1114H89.2949V66.6671Z" fill="#13B26B"/>
<path d="M93.7394 66.6671H98.1847V71.1114H93.7394V66.6671Z" fill="#13B26B"/>
<path d="M98.1836 66.6671H102.628V71.1114H98.1836V66.6671Z" fill="#13B26B"/>
<path d="M102.628 66.6671H107.073V71.1114H102.628V66.6671Z" fill="#00874B"/>
<path d="M107.072 66.667H111.517V71.1114H107.072V66.667Z" fill="#263238"/>
<path d="M9.29492 71.1114H13.7394L13.7396 75.5556H9.29514L9.29492 71.1114Z" fill="#263238"/>
<path d="M13.7394 71.1114H18.1847V75.5558L13.7396 75.5556L13.7394 71.1114Z" fill="#00695C"/>
<path d="M18.1836 71.1114H22.628V75.5558H18.1836V71.1114Z" fill="#00874B"/>
<path d="M22.628 71.1114H27.0734V75.5558H22.628V71.1114Z" fill="#00874B"/>
<path d="M27.0723 71.1114H31.5167V75.5558H27.0723V71.1114Z" fill="#00874B"/>
<path d="M31.5167 71.1114H35.9609L35.9618 75.5556L31.5167 75.5558V71.1114Z" fill="#13B26B"/>
<path d="M35.9609 71.1114H40.4054V75.5558L35.9618 75.5556L35.9609 71.1114Z" fill="#13B26B"/>
<path d="M40.4054 71.1114H44.8507V75.5556L40.4054 75.5558V71.1114Z" fill="#00874B"/>
<path d="M44.8507 71.1114H49.296V75.5558L44.8507 75.5556V71.1114Z" fill="#00874B"/>
<path d="M49.2949 71.1114H53.7394L53.7396 75.5556L49.296 75.5558L49.2949 71.1114Z" fill="#00874B"/>
<path d="M53.7394 71.1114H58.1847V75.5558L53.7396 75.5556L53.7394 71.1114Z" fill="#00874B"/>
<path d="M58.1836 71.1114H62.628V75.5558H58.1836V71.1114Z" fill="#13B26B"/>
<path d="M62.628 71.1114H67.0733V75.5558H62.628V71.1114Z" fill="#00874B"/>
<path d="M67.0723 71.1114H71.5167V75.5558H67.0723V71.1114Z" fill="#00874B"/>
<path d="M71.5167 71.1114H75.9609L75.9618 75.5556L71.5167 75.5558V71.1114Z" fill="#00874B"/>
<path d="M75.9609 71.1114H80.4054V75.5558L75.9618 75.5556L75.9609 71.1114Z" fill="#00874B"/>
<path d="M80.4054 71.1114H84.8507V75.5556L80.4054 75.5558V71.1114Z" fill="#00874B"/>
<path d="M84.8507 71.1114H89.296V75.5558L84.8507 75.5556V71.1114Z" fill="#13B26B"/>
<path d="M89.2949 71.1114H93.7394L93.7396 75.5556L89.296 75.5558L89.2949 71.1114Z" fill="#13B26B"/>
<path d="M93.7394 71.1114H98.1847V75.5558L93.7396 75.5556L93.7394 71.1114Z" fill="#00874B"/>
<path d="M98.1836 71.1114H102.628V75.5558H98.1836V71.1114Z" fill="#13B26B"/>
<path d="M102.628 71.1114H107.073V75.5558H102.628V71.1114Z" fill="#13B26B"/>
<path d="M107.072 71.1114H111.517V75.5558H107.072V71.1114Z" fill="#13B26B"/>
<path d="M111.517 71.1114L115.962 71.1111V75.5556L111.517 75.5558V71.1114Z" fill="#263238"/>
<path d="M4.85156 75.5557L9.29514 75.5556L9.29601 80.0001H4.85156V75.5557Z" fill="#263238"/>
<path d="M9.29514 75.5556H13.7396V80L9.29601 80.0001L9.29514 75.5556Z" fill="#00695C"/>
<path d="M13.7396 75.5556L18.1847 75.5558V80.0001L13.7396 80V75.5556Z" fill="#00695C"/>
<path d="M18.1836 75.5558H22.628V80.0001H18.1836V75.5558Z" fill="#00695C"/>
<path d="M22.628 75.5558H27.0734V80.0001H22.628V75.5558Z" fill="#00874B"/>
<path d="M27.0723 75.5558H31.5167V80.0001H27.0723V75.5558Z" fill="#13B26B"/>
<path d="M31.5167 75.5558L35.9618 75.5556V80L31.5167 80.0001V75.5558Z" fill="#13B26B"/>
<path d="M35.9618 75.5556L40.4054 75.5558V80.0001L35.9618 80V75.5556Z" fill="#00874B"/>
<path d="M40.4054 75.5558L44.8507 75.5556V80L40.4054 80.0001V75.5558Z" fill="#00874B"/>
<path d="M44.8507 75.5556L49.296 75.5558V80.0001L44.8507 80V75.5556Z" fill="#00874B"/>
<path d="M49.296 75.5558L53.7396 75.5556V80L49.296 80.0001V75.5558Z" fill="#00874B"/>
<path d="M53.7396 75.5556L58.1847 75.5558V80.0001L53.7396 80V75.5556Z" fill="#00874B"/>
<path d="M58.1836 75.5558H62.628V80.0001H58.1836V75.5558Z" fill="#00874B"/>
<path d="M62.628 75.5558H67.0733V80.0001H62.628V75.5558Z" fill="#00874B"/>
<path d="M67.0723 75.5558H71.5167V80.0001H67.0723V75.5558Z" fill="#00874B"/>
<path d="M71.5167 75.5558L75.9618 75.5556V80L71.5167 80.0001V75.5558Z" fill="#00874B"/>
<path d="M75.9618 75.5556L80.4054 75.5558V80.0001L75.9618 80V75.5556Z" fill="#00874B"/>
<path d="M80.4054 75.5558L84.8507 75.5556V80L80.4054 80.0001V75.5558Z" fill="#13B26B"/>
<path d="M84.8507 75.5556L89.296 75.5558V80.0001L84.8507 80V75.5556Z" fill="#13B26B"/>
<path d="M89.296 75.5558L93.7396 75.5556V80L89.296 80.0001V75.5558Z" fill="#00874B"/>
<path d="M93.7396 75.5556L98.1847 75.5558V80.0001L93.7396 80V75.5556Z" fill="#00874B"/>
<path d="M98.1836 75.5558H102.628V80.0001H98.1836V75.5558Z" fill="#00874B"/>
<path d="M102.628 75.5558H107.073V80.0001H102.628V75.5558Z" fill="#00874B"/>
<path d="M107.072 75.5558H111.517V80.0001H107.072V75.5558Z" fill="#13B26B"/>
<path d="M111.517 75.5558L115.962 75.5556V80L111.517 80.0001V75.5558Z" fill="#263238"/>
<path d="M0.40625 80L4.85156 80.0001L4.85069 84.4444H0.40625V80Z" fill="#263238"/>
<path d="M4.85156 80.0001H9.29601V84.4444H4.85069L4.85156 80.0001Z" fill="#00695C"/>
<path d="M9.29601 80.0001L13.7396 80V84.4444H9.29601V80.0001Z" fill="#00695C"/>
<path d="M13.7396 80L18.1847 80.0001V84.4444H13.7396V80Z" fill="#00695C"/>
<path d="M18.1836 80.0001H22.628V84.4444H18.1836V80.0001Z" fill="#00695C"/>
<path d="M22.628 80.0001H27.0734V84.4444H22.628V80.0001Z" fill="#00695C"/>
<path d="M27.0723 80.0001H31.5167V84.4444H27.0723V80.0001Z" fill="#13B26B"/>
<path d="M31.5167 80.0001L35.9618 80V84.4444H31.5167V80.0001Z" fill="#00874B"/>
<path d="M35.9618 80L40.4054 80.0001V84.4444H35.9618V80Z" fill="#00874B"/>
<path d="M40.4054 80.0001L44.8507 80V84.4444H40.4054V80.0001Z" fill="#00874B"/>
<path d="M44.8507 80L49.296 80.0001V84.4444H44.8507V80Z" fill="#00874B"/>
<path d="M49.296 80.0001L53.7396 80V84.4444H49.296V80.0001Z" fill="#00874B"/>
<path d="M53.7396 80L58.1847 80.0001V84.4444H53.7396V80Z" fill="#00874B"/>
<path d="M58.1836 80.0001H62.628V84.4444H58.1836V80.0001Z" fill="#13B26B"/>
<path d="M62.628 80.0001H67.0733V84.4444H62.628V80.0001Z" fill="#00874B"/>
<path d="M67.0723 80.0001H71.5167V84.4444H67.0723V80.0001Z" fill="#00874B"/>
<path d="M71.5167 80.0001L75.9618 80V84.4444H71.5167V80.0001Z" fill="#00874B"/>
<path d="M75.9618 80L80.4054 80.0001V84.4444H75.9618V80Z" fill="#00874B"/>
<path d="M80.4054 80.0001L84.8507 80V84.4444H80.4054V80.0001Z" fill="#13B26B"/>
<path d="M84.8507 80L89.296 80.0001V84.4444H84.8507V80Z" fill="#00874B"/>
<path d="M89.296 80.0001L93.7396 80V84.4444H89.296V80.0001Z" fill="#00874B"/>
<path d="M93.7396 80L98.1847 80.0001V84.4444H93.7396V80Z" fill="#00874B"/>
<path d="M98.1836 80.0001H102.628V84.4444H98.1836V80.0001Z" fill="#00874B"/>
<path d="M102.628 80.0001H107.073V84.4444H102.628V80.0001Z" fill="#13B26B"/>
<path d="M107.072 80.0001H111.517V84.4444H107.072V80.0001Z" fill="#13B26B"/>
<path d="M111.517 80.0001L115.962 80V84.4444H111.517V80.0001Z" fill="#263238"/>
<path d="M0.40625 84.4444H4.85069V88.8889H0.40625V84.4444Z" fill="#263238"/>
<path d="M4.85069 84.4444H9.29601V88.8888L4.85069 88.8889V84.4444Z" fill="#00695C"/>
<path d="M9.29601 84.4444H13.7396V88.8889L9.29601 88.8888V84.4444Z" fill="#13B26B"/>
<path d="M13.7396 84.4444H18.1847V88.8888L13.7396 88.8889V84.4444Z" fill="#13B26B"/>
<path d="M18.1836 84.4444H22.628V88.8888H18.1836V84.4444Z" fill="#13B26B"/>
<path d="M22.628 84.4444H27.0734V88.8888H22.628V84.4444Z" fill="#13B26B"/>
<path d="M27.0723 84.4444H31.5167V88.8888H27.0723V84.4444Z" fill="#13B26B"/>
<path d="M31.5167 84.4444H35.9618V88.8889L31.5167 88.8888V84.4444Z" fill="#00874B"/>
<path d="M35.9618 84.4444H40.4054V88.8888L35.9618 88.8889V84.4444Z" fill="#00874B"/>
<path d="M40.4054 84.4444H44.8507V88.8889L40.4054 88.8888V84.4444Z" fill="#00874B"/>
<path d="M44.8507 84.4444H49.296V88.8888L44.8507 88.8889V84.4444Z" fill="#00874B"/>
<path d="M49.296 84.4444H53.7396V88.8889L49.296 88.8888V84.4444Z" fill="#00874B"/>
<path d="M53.7396 84.4444H58.1847V88.8888L53.7396 88.8889V84.4444Z" fill="#00874B"/>
<path d="M58.1836 84.4444H62.628V88.8888H58.1836V84.4444Z" fill="#00874B"/>
<path d="M62.628 84.4444H67.0733V88.8888H62.628V84.4444Z" fill="#00874B"/>
<path d="M67.0723 84.4444H71.5167V88.8888H67.0723V84.4444Z" fill="#00874B"/>
<path d="M71.5167 84.4444H75.9618V88.8889L71.5167 88.8888V84.4444Z" fill="#00874B"/>
<path d="M75.9618 84.4444H80.4054V88.8888L75.9618 88.8889V84.4444Z" fill="#00874B"/>
<path d="M80.4054 84.4444H84.8507V88.8889L80.4054 88.8888V84.4444Z" fill="#00874B"/>
<path d="M84.8507 84.4444H89.296V88.8888L84.8507 88.8889V84.4444Z" fill="#00874B"/>
<path d="M89.296 84.4444H93.7396V88.8889L89.296 88.8888V84.4444Z" fill="#00874B"/>
<path d="M93.7396 84.4444H98.1847V88.8888L93.7396 88.8889V84.4444Z" fill="#00874B"/>
<path d="M98.1836 84.4444H102.628V88.8888H98.1836V84.4444Z" fill="#00874B"/>
<path d="M102.628 84.4444H107.073V88.8888H102.628V84.4444Z" fill="#00874B"/>
<path d="M107.072 84.4444H111.517V88.8888H107.072V84.4444Z" fill="#00874B"/>
<path d="M111.517 84.4444H115.962V88.8889L111.517 88.8888V84.4444Z" fill="#263238"/>
<path d="M0.40625 88.8889H4.85069V93.3333H0.40625V88.8889Z" fill="#263238"/>
<path d="M4.85069 88.8889L9.29601 88.8888V93.3331L4.85069 93.3333V88.8889Z" fill="#13B26B"/>
<path d="M9.29601 88.8888L13.7396 88.8889V93.3333L9.29601 93.3331V88.8888Z" fill="#13B26B"/>
<path d="M13.7396 88.8889L18.1847 88.8888V93.3331L13.7396 93.3333V88.8889Z" fill="#00874B"/>
<path d="M18.1836 88.8888H22.628V93.3331H18.1836V88.8888Z" fill="#00874B"/>
<path d="M22.628 88.8888H27.0734V93.3331H22.628V88.8888Z" fill="#13B26B"/>
<path d="M27.0723 88.8888H31.5167V93.3331H27.0723V88.8888Z" fill="#13B26B"/>
<path d="M31.5167 88.8888L35.9618 88.8889V93.3333L31.5167 93.3331V88.8888Z" fill="#00695C"/>
<path d="M35.9618 88.8889L40.4054 88.8888V93.3331L35.9618 93.3333V88.8889Z" fill="#00874B"/>
<path d="M40.4054 88.8888L44.8507 88.8889V93.3333L40.4054 93.3331V88.8888Z" fill="#00874B"/>
<path d="M44.8507 88.8889L49.296 88.8888V93.3331L44.8507 93.3333V88.8889Z" fill="#00874B"/>
<path d="M49.296 88.8888L53.7396 88.8889V93.3333L49.296 93.3331V88.8888Z" fill="#00874B"/>
<path d="M53.7396 88.8889L58.1847 88.8888V93.3331L53.7396 93.3333V88.8889Z" fill="#00874B"/>
<path d="M58.1836 88.8888H62.628V93.3331H58.1836V88.8888Z" fill="#00695C"/>
<path d="M62.628 88.8888H67.0733V93.3331H62.628V88.8888Z" fill="#00874B"/>
<path d="M67.0723 88.8888H71.5167V93.3331H67.0723V88.8888Z" fill="#00874B"/>
<path d="M71.5167 88.8888L75.9618 88.8889V93.3333L71.5167 93.3331V88.8888Z" fill="#00874B"/>
<path d="M75.9618 88.8889L80.4054 88.8888V93.3331L75.9618 93.3333V88.8889Z" fill="#00874B"/>
<path d="M80.4054 88.8888L84.8507 88.8889V93.3333L80.4054 93.3331V88.8888Z" fill="#00695C"/>
<path d="M84.8507 88.8889L89.296 88.8888V93.3331L84.8507 93.3333V88.8889Z" fill="#00874B"/>
<path d="M89.296 88.8888L93.7396 88.8889V93.3333L89.296 93.3331V88.8888Z" fill="#00874B"/>
<path d="M93.7396 88.8889L98.1847 88.8888V93.3331L93.7396 93.3333V88.8889Z" fill="#00874B"/>
<path d="M98.1836 88.8888H102.628V93.3331H98.1836V88.8888Z" fill="#00874B"/>
<path d="M102.628 88.8888H107.073V93.3331H102.628V88.8888Z" fill="#00874B"/>
<path d="M107.072 88.8888H111.517V93.3331H107.072V88.8888Z" fill="#00874B"/>
<path d="M111.517 88.8888L115.962 88.8889V93.3333L111.517 93.3331V88.8888Z" fill="#263238"/>
<path d="M0.40625 93.3333H4.85069V97.7775H0.40625V93.3333Z" fill="#263238"/>
<path d="M4.85069 93.3333L9.29601 93.3331V97.7775H4.85069V93.3333Z" fill="#13B26B"/>
<path d="M9.29492 93.333L13.7396 93.3333L13.7394 97.7775H9.29492V93.333Z" fill="#00874B"/>
<path d="M13.7396 93.3333L18.1847 93.3331V97.7775H13.7394L13.7396 93.3333Z" fill="#00874B"/>
<path d="M18.1836 93.3331H22.628V97.7775H18.1836V93.3331Z" fill="#00874B"/>
<path d="M22.628 93.3331H27.0734V97.7775H22.628V93.3331Z" fill="#00874B"/>
<path d="M27.0723 93.3331H31.5167V97.7775H27.0723V93.3331Z" fill="#00874B"/>
<path d="M31.5167 93.3331L35.9618 93.3333L35.962 97.7775H31.5167V93.3331Z" fill="#13B26B"/>
<path d="M35.9618 93.3333L40.4054 93.3331V97.7775H35.9609L35.9618 93.3333Z" fill="#00695C"/>
<path d="M40.4054 93.3331L44.8507 93.3333V97.7775H40.4054V93.3331Z" fill="#00695C"/>
<path d="M44.8507 93.3333L49.296 93.3331V97.7775H44.8507V93.3333Z" fill="#00695C"/>
<path d="M49.2949 93.333L53.7396 93.3333L53.7394 97.7775H49.2949V93.333Z" fill="#00695C"/>
<path d="M53.7396 93.3333L58.1847 93.3331V97.7775H53.7394L53.7396 93.3333Z" fill="#00695C"/>
<path d="M58.1836 93.3331H62.628V97.7775H58.1836V93.3331Z" fill="#00695C"/>
<path d="M62.628 93.3331H67.0733V97.7775H62.628V93.3331Z" fill="#00874B"/>
<path d="M67.0723 93.3331H71.5167V97.7775H67.0723V93.3331Z" fill="#00874B"/>
<path d="M71.5167 93.3331L75.9618 93.3333L75.962 97.7775H71.5167V93.3331Z" fill="#00874B"/>
<path d="M75.9618 93.3333L80.4054 93.3331V97.7775H75.9609L75.9618 93.3333Z" fill="#00874B"/>
<path d="M80.4054 93.3331L84.8507 93.3333V97.7775H80.4054V93.3331Z" fill="#00695C"/>
<path d="M84.8507 93.3333L89.296 93.3331V97.7775H84.8507V93.3333Z" fill="#00695C"/>
<path d="M89.2949 93.333L93.7396 93.3333L93.7394 97.7775H89.2949V93.333Z" fill="#00695C"/>
<path d="M93.7396 93.3333L98.1847 93.3331V97.7775H93.7394L93.7396 93.3333Z" fill="#00874B"/>
<path d="M98.1836 93.3331H102.628V97.7775H98.1836V93.3331Z" fill="#00874B"/>
<path d="M102.628 93.3331H107.073V97.7775H102.628V93.3331Z" fill="#00874B"/>
<path d="M107.072 93.3331H111.517V97.7775H107.072V93.3331Z" fill="#00695C"/>
<path d="M111.517 93.3331L115.962 93.3333L115.962 97.7775H111.517V93.3331Z" fill="#263238"/>
<path d="M0.40625 97.7775H4.85069V102.222H0.40625V97.7775Z" fill="#263238"/>
<path d="M4.85069 97.7775H9.29601V102.222H4.85069V97.7775Z" fill="#13B26B"/>
<path d="M9.29492 97.7775H13.7394V102.222H9.29492V97.7775Z" fill="#00874B"/>
<path d="M13.7394 97.7775H18.1847V102.222H13.7394V97.7775Z" fill="#00874B"/>
<path d="M18.1836 97.7775H22.628V102.222H18.1836V97.7775Z" fill="#00874B"/>
<path d="M22.628 97.7775H27.0734V102.222H22.628V97.7775Z" fill="#00874B"/>
<path d="M27.0723 97.7775H31.5167V102.222H27.0723V97.7775Z" fill="#00874B"/>
<path d="M31.5167 97.7775H35.962V102.222H31.5167V97.7775Z" fill="#13B26B"/>
<path d="M35.9609 97.7775H40.4054V102.222H35.9609V97.7775Z" fill="#00695C"/>
<path d="M40.4054 97.7775H44.8507V102.222H40.4054V97.7775Z" fill="#13B26B"/>
<path d="M44.8507 97.7775H49.296V102.222H44.8507V97.7775Z" fill="#13B26B"/>
<path d="M49.2949 97.7775H53.7394V102.222H49.2949V97.7775Z" fill="#13B26B"/>
<path d="M53.7394 97.7775H58.1847V102.222H53.7394V97.7775Z" fill="#00695C"/>
<path d="M58.1836 97.7775H62.628V102.222H58.1836V97.7775Z" fill="#00695C"/>
<path d="M62.628 97.7775H67.0733V102.222H62.628V97.7775Z" fill="#00695C"/>
<path d="M67.0723 97.7775H71.5167V102.222H67.0723V97.7775Z" fill="#00874B"/>
<path d="M71.5167 97.7775H75.962V102.222H71.5167V97.7775Z" fill="#00874B"/>
<path d="M75.9609 97.7775H80.4054V102.222H75.9609V97.7775Z" fill="#00695C"/>
<path d="M80.4054 97.7775H84.8507V102.222H80.4054V97.7775Z" fill="#13B26B"/>
<path d="M84.8507 97.7775H89.296V102.222H84.8507V97.7775Z" fill="#13B26B"/>
<path d="M89.2949 97.7775H93.7394V102.222H89.2949V97.7775Z" fill="#13B26B"/>
<path d="M93.7394 97.7775H98.1847V102.222H93.7394V97.7775Z" fill="#13B26B"/>
<path d="M98.1836 97.7775H102.628V102.222H98.1836V97.7775Z" fill="#13B26B"/>
<path d="M102.628 97.7775H107.073V102.222H102.628V97.7775Z" fill="#00695C"/>
<path d="M107.072 97.7775H111.517V102.222H107.072V97.7775Z" fill="#00695C"/>
<path d="M111.517 97.7775H115.962V102.222H111.517V97.7775Z" fill="#263238"/>
<path d="M0.40625 102.222H4.85069V106.667H0.40625V102.222Z" fill="#263238"/>
<path d="M4.85156 102.223L9.29601 102.222V106.667H4.85069L4.85156 102.223Z" fill="#00695C"/>
<path d="M9.29492 102.222H13.7394V106.667H9.29492V102.222Z" fill="#00874B"/>
<path d="M13.7402 102.223L18.1847 102.222V106.667H13.7394L13.7402 102.223Z" fill="#00874B"/>
<path d="M18.1836 102.222H22.628V106.667H18.1836V102.222Z" fill="#00874B"/>
<path d="M22.6289 102.223L27.0734 102.222V106.667H22.628L22.6289 102.223Z" fill="#00874B"/>
<path d="M27.0723 102.222H31.5167V106.667H27.0723V102.222Z" fill="#00874B"/>
<path d="M31.5176 102.223L35.962 102.222V106.667H31.5167L31.5176 102.223Z" fill="#13B26B"/>
<path d="M35.9609 102.222H40.4054V106.667H35.9609V102.222Z" fill="#13B26B"/>
<path d="M40.4062 102.223L44.8507 102.222V106.667H40.4054L40.4062 102.223Z" fill="#13B26B"/>
<path d="M44.8516 102.223L49.296 102.222V106.667H44.8507L44.8516 102.223Z" fill="#00874B"/>
<path d="M49.2949 102.222H53.7394V106.667H49.2949V102.222Z" fill="#13B26B"/>
<path d="M53.7402 102.223L58.1847 102.222V106.667H53.7394L53.7402 102.223Z" fill="#13B26B"/>
<path d="M58.1836 102.222H62.628V106.667H58.1836V102.222Z" fill="#13B26B"/>
<path d="M62.6289 102.223L67.0733 102.222V106.667H62.628L62.6289 102.223Z" fill="#00695C"/>
<path d="M67.0723 102.222H71.5167V106.667H67.0723V102.222Z" fill="#00695C"/>
<path d="M71.5176 102.223L75.962 102.222V106.667H71.5167L71.5176 102.223Z" fill="#00695C"/>
<path d="M75.9609 102.222H80.4054V106.667H75.9609V102.222Z" fill="#00695C"/>
<path d="M80.4062 102.223L84.8507 102.222V106.667H80.4054L80.4062 102.223Z" fill="#13B26B"/>
<path d="M84.8516 102.223L89.296 102.222V106.667H84.8507L84.8516 102.223Z" fill="#13B26B"/>
<path d="M89.2949 102.222H93.7394V106.667H89.2949V102.222Z" fill="#13B26B"/>
<path d="M93.7402 102.223L98.1847 102.222V106.667H93.7394L93.7402 102.223Z" fill="#13B26B"/>
<path d="M98.1836 102.222H102.628V106.667H98.1836V102.222Z" fill="#13B26B"/>
<path d="M102.629 102.223L107.073 102.222V106.667H102.628L102.629 102.223Z" fill="#13B26B"/>
<path d="M107.072 102.222H111.517V106.667H107.072V102.222Z" fill="#00695C"/>
<path d="M111.518 102.223L115.962 102.222V106.667H111.517L111.518 102.223Z" fill="#263238"/>
<path d="M0.40625 106.667H4.85069V111.111H0.40625V106.667Z" fill="#263238"/>
<path d="M4.85069 106.667H9.29601V111.111H4.85069V106.667Z" fill="#00695C"/>
<path d="M9.29492 106.667H13.7394V111.111H9.29492V106.667Z" fill="#00695C"/>
<path d="M13.7394 106.667H18.1847V111.111H13.7394V106.667Z" fill="#00874B"/>
<path d="M18.1836 106.667H22.628V111.111H18.1836V106.667Z" fill="#00874B"/>
<path d="M22.628 106.667H27.0734V111.111H22.628V106.667Z" fill="#00874B"/>
<path d="M27.0723 106.667H31.5167V111.111H27.0723V106.667Z" fill="#13B26B"/>
<path d="M31.5167 106.667H35.962V111.111H31.5167V106.667Z" fill="#13B26B"/>
<path d="M35.9609 106.667H40.4054V111.111H35.9609V106.667Z" fill="#00874B"/>
<path d="M40.4054 106.667H44.8507V111.111H40.4054V106.667Z" fill="#00874B"/>
<path d="M44.8507 106.667H49.296V111.111H44.8507V106.667Z" fill="#00874B"/>
<path d="M49.2949 106.667H53.7394V111.111H49.2949V106.667Z" fill="#00874B"/>
<path d="M53.7394 106.667H58.1847V111.111H53.7394V106.667Z" fill="#00874B"/>
<path d="M58.1836 106.667H62.628V111.111H58.1836V106.667Z" fill="#13B26B"/>
<path d="M62.628 106.667H67.0733V111.111H62.628V106.667Z" fill="#13B26B"/>
<path d="M67.0723 106.667H71.5167V111.111H67.0723V106.667Z" fill="#00695C"/>
<path d="M71.5167 106.667H75.962V111.111H71.5167V106.667Z" fill="#00695C"/>
<path d="M75.9609 106.667H80.4054V111.111H75.9609V106.667Z" fill="#13B26B"/>
<path d="M80.4054 106.667H84.8507V111.111H80.4054V106.667Z" fill="#13B26B"/>
<path d="M84.8507 106.667H89.296V111.111H84.8507V106.667Z" fill="#13B26B"/>
<path d="M89.2949 106.667H93.7394V111.111H89.2949V106.667Z" fill="#00874B"/>
<path d="M93.7394 106.667H98.1847V111.111H93.7394V106.667Z" fill="#00874B"/>
<path d="M98.1836 106.667H102.628V111.111H98.1836V106.667Z" fill="#13B26B"/>
<path d="M102.628 106.667H107.073V111.111H102.628V106.667Z" fill="#13B26B"/>
<path d="M107.072 106.667H111.517V111.111H107.072V106.667Z" fill="#13B26B"/>
<path d="M111.517 106.667H115.962V111.111H111.517V106.667Z" fill="#263238"/>
<path d="M0.40625 111.111H4.85069V115.556H0.40625V111.111Z" fill="#263238"/>
<path d="M4.85069 111.111H9.29601V115.556L4.85069 115.556V111.111Z" fill="#00695C"/>
<path d="M9.29492 111.111H13.7394L13.7396 115.556L9.29601 115.556L9.29492 111.111Z" fill="#00695C"/>
<path d="M13.7394 111.111H18.1847V115.556L13.7396 115.556L13.7394 111.111Z" fill="#00695C"/>
<path d="M18.1836 111.111H22.628V115.556H18.1836V111.111Z" fill="#00874B"/>
<path d="M22.628 111.111H27.0734V115.556H22.628V111.111Z" fill="#13B26B"/>
<path d="M27.0723 111.111H31.5167V115.556H27.0723V111.111Z" fill="#13B26B"/>
<path d="M31.5167 111.111H35.9609L35.9618 115.556L31.5167 115.556V111.111Z" fill="#00874B"/>
<path d="M35.9609 111.111H40.4054V115.556L35.9618 115.556L35.9609 111.111Z" fill="#13B26B"/>
<path d="M40.4054 111.111H44.8507V115.556L40.4054 115.556V111.111Z" fill="#13B26B"/>
<path d="M44.8507 111.111H49.296V115.556L44.8507 115.556V111.111Z" fill="#00874B"/>
<path d="M49.2949 111.111H53.7394L53.7396 115.556L49.296 115.556L49.2949 111.111Z" fill="#13B26B"/>
<path d="M53.7394 111.111H58.1847V115.556L53.7396 115.556L53.7394 111.111Z" fill="#00874B"/>
<path d="M58.1836 111.111H62.628V115.556H58.1836V111.111Z" fill="#00874B"/>
<path d="M62.628 111.111H67.0733V115.556H62.628V111.111Z" fill="#13B26B"/>
<path d="M67.0723 111.111H71.5167V115.556H67.0723V111.111Z" fill="#00695C"/>
<path d="M71.5167 111.111H75.9609L75.9618 115.556L71.5167 115.556V111.111Z" fill="#13B26B"/>
<path d="M75.9609 111.111H80.4054V115.556L75.9618 115.556L75.9609 111.111Z" fill="#13B26B"/>
<path d="M80.4054 111.111H84.8507V115.556L80.4054 115.556V111.111Z" fill="#00874B"/>
<path d="M84.8507 111.111H89.296V115.556L84.8507 115.556V111.111Z" fill="#00874B"/>
<path d="M89.2949 111.111H93.7394L93.7396 115.556L89.296 115.556L89.2949 111.111Z" fill="#00874B"/>
<path d="M93.7394 111.111H98.1847V115.556L93.7396 115.556L93.7394 111.111Z" fill="#00874B"/>
<path d="M98.1836 111.111H102.628V115.556H98.1836V111.111Z" fill="#00874B"/>
<path d="M102.628 111.111H107.073V115.556H102.628V111.111Z" fill="#13B26B"/>
<path d="M107.072 111.111H111.517V115.556H107.072V111.111Z" fill="#00874B"/>
<path d="M111.517 111.111H115.962L115.962 115.556L111.517 115.556V111.111Z" fill="#263238"/>
<path d="M0.40625 115.556H4.85069V120H0.40625V115.556Z" fill="#263238"/>
<path d="M4.85069 115.556L9.29601 115.556V120L4.85069 120V115.556Z" fill="#00695C"/>
<path d="M9.29601 115.556L13.7396 115.556V120L9.29601 120V115.556Z" fill="#00695C"/>
<path d="M13.7396 115.556L18.1847 115.556V120L13.7396 120V115.556Z" fill="#00695C"/>
<path d="M18.1836 115.556H22.628V120H18.1836V115.556Z" fill="#00695C"/>
<path d="M22.628 115.556H27.0734V120H22.628V115.556Z" fill="#13B26B"/>
<path d="M27.0723 115.556H31.5167V120H27.0723V115.556Z" fill="#00874B"/>
<path d="M31.5167 115.556L35.9618 115.556V120L31.5167 120V115.556Z" fill="#00874B"/>
<path d="M35.9618 115.556L40.4054 115.556V120L35.9618 120V115.556Z" fill="#00874B"/>
<path d="M40.4054 115.556L44.8507 115.556V120L40.4054 120V115.556Z" fill="#00874B"/>
<path d="M44.8507 115.556L49.296 115.556V120L44.8507 120V115.556Z" fill="#00874B"/>
<path d="M49.296 115.556L53.7396 115.556V120L49.296 120V115.556Z" fill="#00874B"/>
<path d="M53.7396 115.556L58.1847 115.556V120L53.7396 120V115.556Z" fill="#00874B"/>
<path d="M58.1836 115.556H62.628V120H58.1836V115.556Z" fill="#00874B"/>
<path d="M62.628 115.556H67.0733V120H62.628V115.556Z" fill="#00874B"/>
<path d="M67.0723 115.556H71.5167V120H67.0723V115.556Z" fill="#13B26B"/>
<path d="M71.5167 115.556L75.9618 115.556V120L71.5167 120V115.556Z" fill="#00874B"/>
<path d="M75.9618 115.556L80.4054 115.556V120L75.9618 120V115.556Z" fill="#00874B"/>
<path d="M80.4054 115.556L84.8507 115.556V120L80.4054 120V115.556Z" fill="#00874B"/>
<path d="M84.8507 115.556L89.296 115.556V120L84.8507 120V115.556Z" fill="#00874B"/>
<path d="M89.296 115.556L93.7396 115.556V120L89.296 120V115.556Z" fill="#00874B"/>
<path d="M93.7396 115.556L98.1847 115.556V120L93.7396 120V115.556Z" fill="#00874B"/>
<path d="M98.1836 115.556H102.628V120H98.1836V115.556Z" fill="#00874B"/>
<path d="M102.628 115.556H107.073V120H102.628V115.556Z" fill="#00874B"/>
<path d="M107.072 115.556H111.517V120H107.072V115.556Z" fill="#13B26B"/>
<path d="M111.517 115.556L115.962 115.556V120L111.517 120V115.556Z" fill="#263238"/>
<path d="M0.40625 120H4.85069V124.444H0.40625V120Z" fill="#263238"/>
<path d="M4.85069 120L9.29601 120V124.444H4.85069V120Z" fill="#00695C"/>
<path d="M9.29601 120L13.7396 120V124.444H9.29601V120Z" fill="#00695C"/>
<path d="M13.7396 120L18.1847 120V124.444H13.7396V120Z" fill="#00695C"/>
<path d="M18.1836 120H22.628V124.444H18.1836V120Z" fill="#00695C"/>
<path d="M22.628 120H27.0734V124.444H22.628V120Z" fill="#13B26B"/>
<path d="M27.0723 120H31.5167V124.444H27.0723V120Z" fill="#00874B"/>
<path d="M31.5167 120L35.9618 120V124.444H31.5167V120Z" fill="#00874B"/>
<path d="M35.9618 120L40.4054 120V124.444H35.9618V120Z" fill="#00874B"/>
<path d="M40.4054 120L44.8507 120V124.444H40.4054V120Z" fill="#00874B"/>
<path d="M44.8507 120L49.296 120V124.444H44.8507V120Z" fill="#00874B"/>
<path d="M49.296 120L53.7396 120V124.444H49.296V120Z" fill="#00874B"/>
<path d="M53.7396 120L58.1847 120V124.444H53.7396V120Z" fill="#00874B"/>
<path d="M58.1836 120H62.628V124.444H58.1836V120Z" fill="#00874B"/>
<path d="M62.628 120H67.0733V124.444H62.628V120Z" fill="#00874B"/>
<path d="M67.0723 120H71.5167V124.444H67.0723V120Z" fill="#00695C"/>
<path d="M71.5167 120L75.9618 120V124.444H71.5167V120Z" fill="#00874B"/>
<path d="M75.9618 120L80.4054 120V124.444H75.9618V120Z" fill="#00874B"/>
<path d="M80.4054 120L84.8507 120V124.444H80.4054V120Z" fill="#00874B"/>
<path d="M84.8507 120L89.296 120V124.444H84.8507V120Z" fill="#00874B"/>
<path d="M89.296 120L93.7396 120V124.444H89.296V120Z" fill="#00874B"/>
<path d="M93.7396 120L98.1847 120V124.444H93.7396V120Z" fill="#00874B"/>
<path d="M98.1836 120H102.628V124.444H98.1836V120Z" fill="#00874B"/>
<path d="M102.628 120H107.073V124.444H102.628V120Z" fill="#00874B"/>
<path d="M107.072 120H111.517V124.444H107.072V120Z" fill="#13B26B"/>
<path d="M111.517 120L115.962 120V124.444H111.517V120Z" fill="#263238"/>
<path d="M0.40625 124.444H4.85069V128.889H0.40625V124.444Z" fill="#263238"/>
<path d="M4.85069 124.444H9.29601V128.889L4.85069 128.889V124.444Z" fill="#00695C"/>
<path d="M9.29601 124.444H13.7396V128.889L9.29601 128.889V124.444Z" fill="#00695C"/>
<path d="M13.7396 124.444H18.1847V128.889L13.7396 128.889V124.444Z" fill="#00874B"/>
<path d="M18.1836 124.444H22.628V128.889H18.1836V124.444Z" fill="#00874B"/>
<path d="M22.628 124.444H27.0734V128.889H22.628V124.444Z" fill="#00874B"/>
<path d="M27.0723 124.444H31.5167V128.889H27.0723V124.444Z" fill="#00695C"/>
<path d="M31.5167 124.444H35.9618V128.889L31.5167 128.889V124.444Z" fill="#00874B"/>
<path d="M35.9618 124.444H40.4054V128.889L35.9618 128.889V124.444Z" fill="#00874B"/>
<path d="M40.4054 124.444H44.8507V128.889L40.4054 128.889V124.444Z" fill="#00874B"/>
<path d="M44.8507 124.444H49.296V128.889L44.8507 128.889V124.444Z" fill="#00874B"/>
<path d="M49.296 124.444H53.7396V128.889L49.296 128.889V124.444Z" fill="#00874B"/>
<path d="M53.7396 124.444H58.1847V128.889L53.7396 128.889V124.444Z" fill="#00874B"/>
<path d="M58.1836 124.444H62.628V128.889H58.1836V124.444Z" fill="#00874B"/>
<path d="M62.628 124.444H67.0733V128.889H62.628V124.444Z" fill="#00695C"/>
<path d="M67.0723 124.444H71.5167V128.889H67.0723V124.444Z" fill="#00695C"/>
<path d="M71.5167 124.444H75.9618V128.889L71.5167 128.889V124.444Z" fill="#00695C"/>
<path d="M75.9618 124.444H80.4054V128.889L75.9618 128.889V124.444Z" fill="#00874B"/>
<path d="M80.4054 124.444H84.8507V128.889L80.4054 128.889V124.444Z" fill="#00874B"/>
<path d="M84.8507 124.444H89.296V128.889L84.8507 128.889V124.444Z" fill="#00874B"/>
<path d="M89.296 124.444H93.7396V128.889L89.296 128.889V124.444Z" fill="#00874B"/>
<path d="M93.7396 124.444H98.1847V128.889L93.7396 128.889V124.444Z" fill="#00874B"/>
<path d="M98.1836 124.444H102.628V128.889H98.1836V124.444Z" fill="#00874B"/>
<path d="M102.628 124.444H107.073V128.889H102.628V124.444Z" fill="#00874B"/>
<path d="M107.072 124.444H111.517V128.889H107.072V124.444Z" fill="#263238"/>
<path d="M4.85069 128.889L9.29601 128.889V133.333H4.85156L4.85069 128.889Z" fill="#263238"/>
<path d="M9.29601 128.889L13.7396 128.889V133.333L9.29601 133.333V128.889Z" fill="#00695C"/>
<path d="M13.7396 128.889L18.1847 128.889V133.333L13.7396 133.333V128.889Z" fill="#00695C"/>
<path d="M18.1836 128.889H22.628V133.333H18.1836V128.889Z" fill="#00695C"/>
<path d="M22.628 128.889H27.0734V133.333H22.628V128.889Z" fill="#00874B"/>
<path d="M27.0723 128.889H31.5167V133.333H27.0723V128.889Z" fill="#00695C"/>
<path d="M31.5167 128.889L35.9618 128.889V133.333L31.5167 133.333V128.889Z" fill="#00695C"/>
<path d="M35.9618 128.889L40.4054 128.889V133.333L35.9618 133.333V128.889Z" fill="#00874B"/>
<path d="M40.4054 128.889L44.8507 128.889V133.333L40.4054 133.333V128.889Z" fill="#00874B"/>
<path d="M44.8507 128.889L49.296 128.889V133.333L44.8507 133.333V128.889Z" fill="#00874B"/>
<path d="M49.296 128.889L53.7396 128.889V133.333L49.296 133.333V128.889Z" fill="#00874B"/>
<path d="M53.7396 128.889L58.1847 128.889V133.333L53.7396 133.333V128.889Z" fill="#00874B"/>
<path d="M58.1836 128.889H62.628V133.333H58.1836V128.889Z" fill="#00695C"/>
<path d="M62.628 128.889H67.0733V133.333H62.628V128.889Z" fill="#00695C"/>
<path d="M67.0723 128.889H71.5167V133.333H67.0723V128.889Z" fill="#00874B"/>
<path d="M71.5167 128.889L75.9618 128.889V133.333L71.5167 133.333V128.889Z" fill="#00695C"/>
<path d="M75.9618 128.889L80.4054 128.889V133.333L75.9618 133.333V128.889Z" fill="#00695C"/>
<path d="M80.4054 128.889L84.8507 128.889V133.333L80.4054 133.333V128.889Z" fill="#00874B"/>
<path d="M84.8507 128.889L89.296 128.889V133.333L84.8507 133.333V128.889Z" fill="#00874B"/>
<path d="M89.296 128.889L93.7396 128.889V133.333L89.296 133.333V128.889Z" fill="#00874B"/>
<path d="M93.7396 128.889L98.1847 128.889V133.333L93.7396 133.333V128.889Z" fill="#00874B"/>
<path d="M98.1836 128.889H102.628V133.333H98.1836V128.889Z" fill="#00695C"/>
<path d="M102.628 128.889H107.073V133.333H102.628V128.889Z" fill="#263238"/>
<path d="M4.85156 133.333H9.29601V137.777H4.85156V133.333Z" fill="#263238"/>
<path d="M9.29492 133.333L13.7396 133.333L13.7394 137.777H9.29492V133.333Z" fill="#00695C"/>
<path d="M13.7396 133.333L18.1847 133.333V137.777H13.7394L13.7396 133.333Z" fill="#00695C"/>
<path d="M18.1836 133.333H22.628V137.777H18.1836V133.333Z" fill="#00695C"/>
<path d="M22.628 133.333H27.0734V137.777H22.628V133.333Z" fill="#00695C"/>
<path d="M27.0723 133.333H31.5167V137.777H27.0723V133.333Z" fill="#00874B"/>
<path d="M31.5167 133.333L35.9618 133.333L35.962 137.777H31.5167V133.333Z" fill="#00695C"/>
<path d="M35.9618 133.333L40.4054 133.333V137.777H35.9609L35.9618 133.333Z" fill="#00695C"/>
<path d="M40.4054 133.333L44.8507 133.333V137.777H40.4054V133.333Z" fill="#00874B"/>
<path d="M44.8507 133.333L49.296 133.333V137.777H44.8507V133.333Z" fill="#00874B"/>
<path d="M49.2949 133.333L53.7396 133.333L53.7394 137.777H49.2949V133.333Z" fill="#00874B"/>
<path d="M53.7396 133.333L58.1847 133.333V137.777H53.7394L53.7396 133.333Z" fill="#00695C"/>
<path d="M58.1836 133.333H62.628V137.777H58.1836V133.333Z" fill="#00695C"/>
<path d="M62.628 133.333H67.0733V137.777H62.628V133.333Z" fill="#00695C"/>
<path d="M67.0723 133.333H71.5167V137.777H67.0723V133.333Z" fill="#00695C"/>
<path d="M71.5167 133.333L75.9618 133.333L75.962 137.777H71.5167V133.333Z" fill="#00695C"/>
<path d="M75.9618 133.333L80.4054 133.333V137.777H75.9609L75.9618 133.333Z" fill="#00695C"/>
<path d="M80.4054 133.333L84.8507 133.333V137.777H80.4054V133.333Z" fill="#00695C"/>
<path d="M84.8507 133.333L89.296 133.333V137.777H84.8507V133.333Z" fill="#00874B"/>
<path d="M89.2949 133.333L93.7396 133.333L93.7394 137.777H89.2949V133.333Z" fill="#00695C"/>
<path d="M93.7396 133.333L98.1847 133.333V137.777H93.7394L93.7396 133.333Z" fill="#00695C"/>
<path d="M98.1836 133.333H102.628V137.777H98.1836V133.333Z" fill="#00695C"/>
<path d="M102.628 133.333H107.073V137.777H102.628V133.333Z" fill="#263238"/>
<path d="M9.29492 137.777H13.7394V142.222H9.29492V137.777Z" fill="#263238"/>
<path d="M13.7394 137.777H18.1847V142.222H13.7394V137.777Z" fill="#00695C"/>
<path d="M18.1836 137.777H22.628V142.222H18.1836V137.777Z" fill="#00695C"/>
<path d="M22.628 137.777H27.0734V142.222H22.628V137.777Z" fill="#00695C"/>
<path d="M27.0723 137.777H31.5167V142.222H27.0723V137.777Z" fill="#00695C"/>
<path d="M31.5167 137.777H35.962V142.222H31.5167V137.777Z" fill="#00874B"/>
<path d="M35.9609 137.777H40.4054V142.222H35.9609V137.777Z" fill="#00695C"/>
<path d="M40.4054 137.777H44.8507V142.222H40.4054V137.777Z" fill="#00695C"/>
<path d="M44.8507 137.777H49.296V142.222H44.8507V137.777Z" fill="#00695C"/>
<path d="M49.2949 137.777H53.7394V142.222H49.2949V137.777Z" fill="#00695C"/>
<path d="M53.7394 137.777H58.1847V142.222H53.7394V137.777Z" fill="#00695C"/>
<path d="M58.1836 137.777H62.628V142.222H58.1836V137.777Z" fill="#00695C"/>
<path d="M62.628 137.777H67.0733V142.222H62.628V137.777Z" fill="#00695C"/>
<path d="M67.0723 137.777H71.5167V142.222H67.0723V137.777Z" fill="#00695C"/>
<path d="M71.5167 137.777H75.962V142.222H71.5167V137.777Z" fill="#00695C"/>
<path d="M75.9609 137.777H80.4054V142.222H75.9609V137.777Z" fill="#00695C"/>
<path d="M80.4054 137.777H84.8507V142.222H80.4054V137.777Z" fill="#00695C"/>
<path d="M84.8507 137.777H89.296V142.222H84.8507V137.777Z" fill="#00695C"/>
<path d="M89.2949 137.777H93.7394V142.222H89.2949V137.777Z" fill="#00695C"/>
<path d="M93.7394 137.777H98.1847V142.222H93.7394V137.777Z" fill="#00695C"/>
<path d="M98.1836 137.777H102.628V142.222H98.1836V137.777Z" fill="#00695C"/>
<path d="M102.628 137.777H107.073V142.222H102.628V137.777Z" fill="#263238"/>
<path d="M13.7402 142.223L18.1847 142.222V146.667H13.7402V142.223Z" fill="#263238"/>
<path d="M18.1836 142.222H22.628V146.667H18.1836V142.222Z" fill="#263238"/>
<path d="M22.6289 142.223L27.0734 142.222V146.667H22.628L22.6289 142.223Z" fill="#263238"/>
<path d="M27.0723 142.222H31.5167V146.667H27.0723V142.222Z" fill="#00695C"/>
<path d="M31.5176 142.223L35.962 142.222V146.667H31.5167L31.5176 142.223Z" fill="#00874B"/>
<path d="M35.9609 142.222H40.4054V146.667H35.9609V142.222Z" fill="#00874B"/>
<path d="M40.4062 142.223L44.8507 142.222V146.667H40.4054L40.4062 142.223Z" fill="#00874B"/>
<path d="M44.8516 142.223L49.296 142.222V146.667H44.8507L44.8516 142.223Z" fill="#00874B"/>
<path d="M49.2949 142.222H53.7394V146.667H49.2949V142.222Z" fill="#00874B"/>
<path d="M53.7402 142.223L58.1847 142.222V146.667H53.7394L53.7402 142.223Z" fill="#00695C"/>
<path d="M58.1836 142.222H62.628V146.667H58.1836V142.222Z" fill="#00695C"/>
<path d="M62.6289 142.223L67.0733 142.222V146.667H62.628L62.6289 142.223Z" fill="#00695C"/>
<path d="M67.0723 142.222H71.5167V146.667H67.0723V142.222Z" fill="#00695C"/>
<path d="M71.5176 142.223L75.962 142.222V146.667H71.5167L71.5176 142.223Z" fill="#00695C"/>
<path d="M75.9609 142.222H80.4054V146.667H75.9609V142.222Z" fill="#00695C"/>
<path d="M80.4062 142.223L84.8507 142.222V146.667H80.4054L80.4062 142.223Z" fill="#00695C"/>
<path d="M84.8516 142.223L89.296 142.222V146.667H84.8507L84.8516 142.223Z" fill="#00695C"/>
<path d="M89.2949 142.222H93.7394V146.667H89.2949V142.222Z" fill="#00695C"/>
<path d="M93.7402 142.223L98.1847 142.222V146.667H93.7394L93.7402 142.223Z" fill="#00695C"/>
<path d="M98.1836 142.222H102.628V146.667H98.1836V142.222Z" fill="#263238"/>
<path d="M22.628 146.667H27.0734V151.111H22.6289L22.628 146.667Z" fill="#263238"/>
<path d="M27.0723 146.667H31.5167V151.111H27.0723V146.667Z" fill="#00695C"/>
<path d="M31.5167 146.667H35.962V151.111H31.5167V146.667Z" fill="#00695C"/>
<path d="M35.9609 146.667H40.4054V151.111H35.9609V146.667Z" fill="#00695C"/>
<path d="M40.4054 146.667H44.8507V151.111H40.4054V146.667Z" fill="#00874B"/>
<path d="M44.8507 146.667H49.296V151.111H44.8507V146.667Z" fill="#00695C"/>
<path d="M49.2949 146.667H53.7394V151.111H49.2949V146.667Z" fill="#00695C"/>
<path d="M53.7394 146.667H58.1847V151.111H53.7394V146.667Z" fill="#00695C"/>
<path d="M58.1836 146.667H62.628V151.111H58.1836V146.667Z" fill="#00695C"/>
<path d="M62.628 146.667H67.0733V151.111H62.628V146.667Z" fill="#00874B"/>
<path d="M67.0723 146.667H71.5167V151.111H67.0723V146.667Z" fill="#00874B"/>
<path d="M71.5167 146.667H75.962V151.111H71.5167V146.667Z" fill="#00874B"/>
<path d="M75.9609 146.667H80.4054V151.111H75.9609V146.667Z" fill="#00874B"/>
<path d="M80.4054 146.667H84.8507V151.111H80.4054V146.667Z" fill="#00695C"/>
<path d="M84.8507 146.667H89.296V151.111H84.8507V146.667Z" fill="#00695C"/>
<path d="M89.2949 146.667H93.7394V151.111H89.2949V146.667Z" fill="#263238"/>
<path d="M93.7394 146.667H98.1847V151.111H93.7394V146.667Z" fill="#263238"/>
<path d="M27.0723 151.111H31.5167V155.556H27.0723V151.111Z" fill="#263238"/>
<path d="M31.5167 151.111H35.9609L35.9618 155.556L31.5167 155.556V151.111Z" fill="#00695C"/>
<path d="M35.9609 151.111H40.4054V155.556L35.9618 155.556L35.9609 151.111Z" fill="#00695C"/>
<path d="M40.4054 151.111H44.8507V155.556L40.4054 155.556V151.111Z" fill="#00695C"/>
<path d="M44.8507 151.111H49.296V155.556L44.8507 155.556V151.111Z" fill="#00695C"/>
<path d="M49.2949 151.111H53.7394L53.7396 155.556L49.296 155.556L49.2949 151.111Z" fill="#00695C"/>
<path d="M53.7394 151.111H58.1847V155.556L53.7396 155.556L53.7394 151.111Z" fill="#00695C"/>
<path d="M58.1836 151.111H62.628V155.556H58.1836V151.111Z" fill="#00695C"/>
<path d="M62.628 151.111H67.0733V155.556H62.628V151.111Z" fill="#00695C"/>
<path d="M67.0723 151.111H71.5167V155.556H67.0723V151.111Z" fill="#00874B"/>
<path d="M71.5167 151.111H75.9609L75.9618 155.556L71.5167 155.556V151.111Z" fill="#00695C"/>
<path d="M75.9609 151.111H80.4054V155.556L75.9618 155.556L75.9609 151.111Z" fill="#00695C"/>
<path d="M80.4054 151.111H84.8507V155.556L80.4054 155.556V151.111Z" fill="#00695C"/>
<path d="M84.8507 151.111H89.296V155.556L84.8507 155.556V151.111Z" fill="#00695C"/>
<path d="M89.2949 151.111H93.7394L93.7396 155.556L89.296 155.556L89.2949 151.111Z" fill="#263238"/>
<path d="M31.5167 155.556L35.9618 155.556V160H31.5174L31.5167 155.556Z" fill="#263238"/>
<path d="M35.9618 155.556L40.4054 155.556V160L35.9618 160V155.556Z" fill="#263238"/>
<path d="M40.4054 155.556L44.8507 155.556V160L40.4054 160V155.556Z" fill="#263238"/>
<path d="M44.8507 155.556L49.296 155.556V160L44.8507 160V155.556Z" fill="#263238"/>
<path d="M49.296 155.556L53.7396 155.556V160L49.296 160V155.556Z" fill="#263238"/>
<path d="M53.7396 155.556L58.1847 155.556V160L53.7396 160V155.556Z" fill="#4E342E"/>
<path d="M58.1836 155.556H62.628V160H58.1836V155.556Z" fill="#00695C"/>
<path d="M62.628 155.556H67.0733V160H62.628V155.556Z" fill="#00695C"/>
<path d="M67.0723 155.556H71.5167V160H67.0723V155.556Z" fill="#00695C"/>
<path d="M71.5167 155.556L75.9618 155.556V160L71.5167 160V155.556Z" fill="#00695C"/>
<path d="M75.9618 155.556L80.4054 155.556V160L75.9618 160V155.556Z" fill="#00695C"/>
<path d="M80.4054 155.556L84.8507 155.556V160L80.4054 160V155.556Z" fill="#263238"/>
<path d="M84.8507 155.556L89.296 155.556V160L84.8507 160V155.556Z" fill="#263238"/>
<path d="M44.8507 160L49.296 160V164.444H44.8516L44.8507 160Z" fill="#263238"/>
<path d="M49.296 160L53.7396 160V164.444H49.296V160Z" fill="#263238"/>
<path d="M53.7396 160L58.1847 160V164.444H53.7396V160Z" fill="#4E342E"/>
<path d="M58.1836 160H62.628V164.444H58.1836V160Z" fill="#4E342E"/>
<path d="M62.628 160H67.0733V164.444H62.628V160Z" fill="#4E342E"/>
<path d="M67.0723 160H71.5167V164.444H67.0723V160Z" fill="#263238"/>
<path d="M71.5167 160L75.9618 160V164.444H71.5167V160Z" fill="#263238"/>
<path d="M75.9618 160L80.4054 160V164.444H75.9618V160Z" fill="#263238"/>
<path d="M40.4062 164.444H44.8516L44.8507 168.889H40.4062V164.444Z" fill="#263238"/>
<path d="M44.8516 164.444H49.296V168.889L44.8507 168.889L44.8516 164.444Z" fill="#6D4C41"/>
<path d="M49.296 164.444H53.7396V168.889L49.296 168.889V164.444Z" fill="#263238"/>
<path d="M53.7396 164.444H58.1847V168.889L53.7396 168.889V164.444Z" fill="#6D4C41"/>
<path d="M58.1836 164.444H62.628V168.889H58.1836V164.444Z" fill="#6D4C41"/>
<path d="M62.628 164.444H67.0733V168.889H62.628V164.444Z" fill="#8D6E63"/>
<path d="M67.0723 164.444H71.5167V168.889H67.0723V164.444Z" fill="#263238"/>
<path d="M40.4062 168.889H44.8507V173.333H40.4062V168.889Z" fill="#263238"/>
<path d="M44.8507 168.889L49.296 168.889V173.333L44.8507 173.333V168.889Z" fill="#6D4C41"/>
<path d="M49.296 168.889L53.7396 168.889V173.333L49.296 173.333V168.889Z" fill="#6D4C41"/>
<path d="M53.7396 168.889L58.1847 168.889V173.333L53.7396 173.333V168.889Z" fill="#6D4C41"/>
<path d="M58.1836 168.889H62.628V173.333H58.1836V168.889Z" fill="#6D4C41"/>
<path d="M62.628 168.889H67.0733V173.333H62.628V168.889Z" fill="#795548"/>
<path d="M67.0723 168.889H71.5167V173.333H67.0723V168.889Z" fill="#263238"/>
<path d="M31.5176 173.333H35.962V177.777H31.5176V173.333Z" fill="#263238"/>
<path d="M44.8507 173.333L49.296 173.333V177.777H44.8516L44.8507 173.333Z" fill="#263238"/>
<path d="M49.2949 173.333L53.7396 173.333L53.7394 177.777H49.2949V173.333Z" fill="#6D4C41"/>
<path d="M53.7396 173.333L58.1847 173.333V177.777H53.7394L53.7396 173.333Z" fill="#6D4C41"/>
<path d="M58.1836 173.333H62.628V177.777H58.1836V173.333Z" fill="#6D4C41"/>
<path d="M62.628 173.333H67.0733V177.777H62.628V173.333Z" fill="#795548"/>
<path d="M67.0723 173.333H71.5167V177.777H67.0723V173.333Z" fill="#263238"/>
<path d="M27.0723 177.777L31.5176 177.777L31.5167 182.222H27.0723V177.777Z" fill="#263238"/>
<path d="M31.5176 177.777H35.962V182.222H31.5167L31.5176 177.777Z" fill="#13B26B"/>
<path d="M35.9609 177.777H40.4054V182.222H35.9609V177.777Z" fill="#263238"/>
<path d="M49.2949 177.777H53.7394V182.222H49.2949V177.777Z" fill="#263238"/>
<path d="M53.7394 177.777H58.1847V182.222H53.7394V177.777Z" fill="#8D6E63"/>
<path d="M58.1836 177.777H62.628V182.222H58.1836V177.777Z" fill="#6D4C41"/>
<path d="M62.628 177.777H67.0733V182.222H62.628V177.777Z" fill="#6D4C41"/>
<path d="M67.0723 177.777H71.5167V182.222H67.0723V177.777Z" fill="#6D4C41"/>
<path d="M71.5167 177.777L75.962 177.777V182.222H71.5167V177.777Z" fill="#263238"/>
<path d="M80.4062 177.777H84.8507V182.222H80.4062V177.777Z" fill="#263238"/>
<path d="M31.5176 182.223L35.962 182.222V186.667H31.5176V182.223Z" fill="#263238"/>
<path d="M35.9609 182.222H40.4054V186.667H35.9609V182.222Z" fill="#00874B"/>
<path d="M40.4062 182.223H44.8507V186.667H40.4054L40.4062 182.223Z" fill="#263238"/>
<path d="M49.2949 182.222H53.7394V186.667H49.2949V182.222Z" fill="#263238"/>
<path d="M53.7402 182.223L58.1847 182.222V186.667H53.7394L53.7402 182.223Z" fill="#795548"/>
<path d="M58.1836 182.222H62.628V186.667H58.1836V182.222Z" fill="#6D4C41"/>
<path d="M62.6289 182.223L67.0733 182.222V186.667H62.628L62.6289 182.223Z" fill="#6D4C41"/>
<path d="M67.0723 182.222H71.5167V186.667H67.0723V182.222Z" fill="#263238"/>
<path d="M75.9609 182.223H80.4054V186.667H75.9609V182.223Z" fill="#263238"/>
<path d="M80.4062 182.222H84.8507V186.667H80.4054L80.4062 182.222Z" fill="#13B26B"/>
<path d="M84.8516 182.223H89.296V186.667H84.8507L84.8516 182.223Z" fill="#263238"/>
<path d="M22.6289 186.667H27.0734V191.111H22.6289V186.667Z" fill="#263238"/>
<path d="M31.5176 186.667H35.962V191.111H31.5176V186.667Z" fill="#263238"/>
<path d="M35.9609 186.667H40.4054V191.111H35.9609V186.667Z" fill="#00874B"/>
<path d="M40.4054 186.667H44.8507V191.111H40.4054V186.667Z" fill="#263238"/>
<path d="M44.8507 186.667L49.296 186.667V191.111H44.8507V186.667Z" fill="#263238"/>
<path d="M49.2949 186.667H53.7394V191.111H49.2949V186.667Z" fill="#00874B"/>
<path d="M53.7394 186.667H58.1847V191.111H53.7394V186.667Z" fill="#795548"/>
<path d="M58.1836 186.667H62.628V191.111H58.1836V186.667Z" fill="#6D4C41"/>
<path d="M62.628 186.667H67.0733V191.111H62.628V186.667Z" fill="#6D4C41"/>
<path d="M67.0723 186.667H71.5167V191.111H67.0723V186.667Z" fill="#263238"/>
<path d="M71.5167 186.667L75.962 186.667V191.111H71.5167V186.667Z" fill="#263238"/>
<path d="M75.9609 186.667H80.4054V191.111H75.9609V186.667Z" fill="#00874B"/>
<path d="M80.4054 186.667H84.8507V191.111H80.4054V186.667Z" fill="#263238"/>
<path d="M84.8507 186.667H89.296V191.111H84.8507V186.667Z" fill="#263238"/>
<path d="M89.2949 186.667H93.7394V191.111H89.2949V186.667Z" fill="#263238"/>
<path d="M18.1836 191.111L22.6289 191.111L22.628 195.556H18.1836V191.111Z" fill="#263238"/>
<path d="M22.6289 191.111H27.0734V195.556H22.628L22.6289 191.111Z" fill="#00874B"/>
<path d="M27.0723 191.111L31.5176 191.111L31.5167 195.556H27.0723V191.111Z" fill="#263238"/>
<path d="M31.5176 191.111H35.9609L35.9618 195.556L31.5167 195.556L31.5176 191.111Z" fill="#00874B"/>
<path d="M35.9609 191.111H40.4054V195.556L35.9618 195.556L35.9609 191.111Z" fill="#00874B"/>
<path d="M40.4054 191.111H44.8507V195.556L40.4054 195.556V191.111Z" fill="#00874B"/>
<path d="M44.8507 191.111H49.296V195.556L44.8507 195.556V191.111Z" fill="#00695C"/>
<path d="M49.2949 191.111H53.7394L53.7396 195.556L49.296 195.556L49.2949 191.111Z" fill="#00695C"/>
<path d="M53.7394 191.111H58.1847V195.556L53.7396 195.556L53.7394 191.111Z" fill="#00695C"/>
<path d="M58.1836 191.111H62.628V195.556H58.1836V191.111Z" fill="#00695C"/>
<path d="M62.628 191.111H67.0733V195.556H62.628V191.111Z" fill="#00695C"/>
<path d="M67.0723 191.111H71.5167V195.556H67.0723V191.111Z" fill="#00695C"/>
<path d="M71.5167 191.111H75.9609L75.9618 195.556L71.5167 195.556V191.111Z" fill="#00695C"/>
<path d="M75.9609 191.111H80.4054V195.556L75.9618 195.556L75.9609 191.111Z" fill="#00874B"/>
<path d="M80.4054 191.111H84.8507V195.556L80.4054 195.556V191.111Z" fill="#00874B"/>
<path d="M84.8507 191.111H89.296V195.556L84.8507 195.556V191.111Z" fill="#00874B"/>
<path d="M89.2949 191.111H93.7394L93.7396 195.556L89.296 195.556L89.2949 191.111Z" fill="#00874B"/>
<path d="M93.7394 191.111L98.1847 191.111V195.556L93.7396 195.556L93.7394 191.111Z" fill="#263238"/>
<path d="M22.628 195.556H27.0734V200H22.6289L22.628 195.556Z" fill="#263238"/>
<path d="M31.5167 195.556L35.9618 195.556V200H31.5174L31.5167 195.556Z" fill="#263238"/>
<path d="M35.9618 195.556L40.4054 195.556V200L35.9618 200V195.556Z" fill="#263238"/>
<path d="M40.4054 195.556L44.8507 195.556V200L40.4054 200V195.556Z" fill="#263238"/>
<path d="M44.8507 195.556L49.296 195.556V200L44.8507 200V195.556Z" fill="#263238"/>
<path d="M49.296 195.556L53.7396 195.556V200L49.296 200V195.556Z" fill="#263238"/>
<path d="M53.7396 195.556L58.1847 195.556V200L53.7396 200V195.556Z" fill="#263238"/>
<path d="M58.1836 195.556H62.628V200H58.1836V195.556Z" fill="#263238"/>
<path d="M62.628 195.556H67.0733V200H62.628V195.556Z" fill="#263238"/>
<path d="M67.0723 195.556H71.5167V200H67.0723V195.556Z" fill="#263238"/>
<path d="M71.5167 195.556L75.9618 195.556V200L71.5167 200V195.556Z" fill="#263238"/>
<path d="M75.9618 195.556L80.4054 195.556V200L75.9618 200V195.556Z" fill="#263238"/>
<path d="M80.4054 195.556L84.8507 195.556V200L80.4054 200V195.556Z" fill="#263238"/>
<path d="M84.8507 195.556L89.296 195.556V200L84.8507 200V195.556Z" fill="#263238"/>
<path d="M89.296 195.556L93.7396 195.556V200L89.296 200V195.556Z" fill="#263238"/>
</svg>
