<svg width="165" height="200" viewBox="0 0 165 200" fill="none" xmlns="http://www.w3.org/2000/svg">
<path d="M28.244 0H37.337V9.08796H28.244V0Z" fill="#263238"/>
<path d="M37.3359 0H46.4289V9.08796H37.3359V0Z" fill="#263238"/>
<path d="M46.4289 0H55.5151V9.08796H46.4289V0Z" fill="#263238"/>
<path d="M55.5151 0H64.6083V9.08796H55.5151V0Z" fill="#263238"/>
<path d="M64.6083 0H73.7004V9.08796H64.6083V0Z" fill="#263238"/>
<path d="M19.1504 9.08789L28.244 9.08796L28.2433 18.1808H19.1504V9.08789Z" fill="#263238"/>
<path d="M28.244 9.08796H37.337L37.3371 18.1808H28.2433L28.244 9.08796Z" fill="#13B26B"/>
<path d="M37.3359 9.08796H46.4289V18.1808H37.3359V9.08796Z" fill="#13B26B"/>
<path d="M46.4289 9.08796H55.5151L55.5152 18.1808H46.4289V9.08796Z" fill="#13B26B"/>
<path d="M55.5151 9.08796H64.6083L64.6086 18.1808H55.5152L55.5151 9.08796Z" fill="#13B26B"/>
<path d="M64.6083 9.08796H73.7004V18.1808H64.6074L64.6083 9.08796Z" fill="#13B26B"/>
<path d="M73.7004 9.08796L82.7941 9.08789V18.1808H73.7004V9.08796Z" fill="#263238"/>
<path d="M10.0645 18.1816L19.1504 18.1808L19.1499 27.2721H10.0645V18.1816Z" fill="#263238"/>
<path d="M19.1504 18.1808H28.2433V27.2721H19.1499L19.1504 18.1808Z" fill="#13B26B"/>
<path d="M28.2441 18.1816L37.3371 18.1808V27.2721H28.2433L28.2441 18.1816Z" fill="#13B26B"/>
<path d="M37.3359 18.1808H46.4289V27.2721H37.3359V18.1808Z" fill="#00874B"/>
<path d="M46.4297 18.1816L55.5152 18.1808V27.2721H46.4289L46.4297 18.1816Z" fill="#00874B"/>
<path d="M55.5152 18.1808H64.6086V27.2721H55.5152V18.1808Z" fill="#00874B"/>
<path d="M64.6074 18.1808H73.7004V27.2721H64.6074V18.1808Z" fill="#00874B"/>
<path d="M73.7012 18.1816L82.7941 18.1808V27.2721H73.7004L73.7012 18.1816Z" fill="#13B26B"/>
<path d="M82.7949 18.1816H91.8804V27.2721H82.7941L82.7949 18.1816Z" fill="#263238"/>
<path d="M0.972656 27.2714H10.0656V36.3643H0.972656V27.2714Z" fill="#263238"/>
<path d="M10.0645 27.2721H19.1499V36.3644H10.0645V27.2721Z" fill="#13B26B"/>
<path d="M19.1499 27.2721H28.2433V36.3644H19.1499V27.2721Z" fill="#13B26B"/>
<path d="M28.2433 27.2721H37.3371L37.337 36.3643L28.2433 36.3644V27.2721Z" fill="#00874B"/>
<path d="M37.3359 27.2721H46.4289V36.3644H37.3359V27.2721Z" fill="#00874B"/>
<path d="M46.4296 27.2714L55.5152 27.2721L55.5151 36.3643L46.4289 36.3644L46.4296 27.2714Z" fill="#00874B"/>
<path d="M55.5152 27.2721H64.6086L64.6083 36.3643H55.5151L55.5152 27.2721Z" fill="#00874B"/>
<path d="M64.6074 27.2721H73.7004V36.3644L64.6083 36.3643L64.6074 27.2721Z" fill="#00874B"/>
<path d="M73.7004 27.2721H82.7941L82.7939 36.3643L73.7004 36.3644V27.2721Z" fill="#13B26B"/>
<path d="M82.7949 27.2715L91.8804 27.2721V36.3644H82.7949V27.2715Z" fill="#13B26B"/>
<path d="M91.8791 27.2714H100.972V36.3643H91.8791V27.2714Z" fill="#263238"/>
<path d="M0.972656 36.3643H10.0656V45.4532H0.972656V36.3643Z" fill="#263238"/>
<path d="M10.0645 36.3644H19.1499V45.4532H10.0645V36.3644Z" fill="#13B26B"/>
<path d="M19.1499 36.3644H28.2433V45.4532H19.1499V36.3644Z" fill="#13B26B"/>
<path d="M28.2441 36.3652L37.337 36.3643L37.3371 45.4532H28.2433L28.2441 36.3652Z" fill="#13B26B"/>
<path d="M37.3359 36.3644H46.4289V45.4532H37.3359V36.3644Z" fill="#00695C"/>
<path d="M46.4297 36.3652L55.5151 36.3643L55.5152 45.4532H46.4289L46.4297 36.3652Z" fill="#00695C"/>
<path d="M55.5156 36.3652L64.6083 36.3643L64.6086 45.4532H55.5152L55.5156 36.3652Z" fill="#00695C"/>
<path d="M64.6074 36.3652L73.7004 36.3644V45.4532H64.6074V36.3652Z" fill="#13B26B"/>
<path d="M73.7012 36.3652L82.7939 36.3643L82.7941 45.4532H73.7004L73.7012 36.3652Z" fill="#13B26B"/>
<path d="M82.7949 36.3644H91.8804V45.4532H82.7941L82.7949 36.3644Z" fill="#13B26B"/>
<path d="M91.8791 36.3643H100.972L100.972 45.4532H91.8789L91.8791 36.3643Z" fill="#13B26B"/>
<path d="M100.973 36.3652H110.066V45.4532H100.972L100.973 36.3652Z" fill="#263238"/>
<path d="M0.972656 45.4532H10.0656V54.5461H0.972656V45.4532Z" fill="#263238"/>
<path d="M10.0645 45.4532H19.1499V54.5461H10.0645V45.4532Z" fill="#13B26B"/>
<path d="M19.1499 45.4532H28.2433V54.5461H19.1499V45.4532Z" fill="#00874B"/>
<path d="M28.2433 45.4532H37.3371V54.5461H28.2433V45.4532Z" fill="#13B26B"/>
<path d="M37.3359 45.4532H46.4289V54.5461H37.3359V45.4532Z" fill="#13B26B"/>
<path d="M46.4289 45.4532H55.5152V54.5461H46.4289V45.4532Z" fill="#00695C"/>
<path d="M55.5152 45.4532H64.6086V54.5461H55.5152V45.4532Z" fill="#13B26B"/>
<path d="M64.6074 45.4532H73.7004V54.5461H64.6074V45.4532Z" fill="#13B26B"/>
<path d="M73.7004 45.4532H82.7941V54.5461H73.7004V45.4532Z" fill="#00874B"/>
<path d="M82.7941 45.4532H91.8804V54.5461H82.7941V45.4532Z" fill="#00874B"/>
<path d="M91.8789 45.4532H100.972V54.5461H91.8789V45.4532Z" fill="#13B26B"/>
<path d="M100.972 45.4532H110.066V54.5461H100.972V45.4532Z" fill="#263238"/>
<path d="M0.972656 54.5449H10.0656V63.6354H0.972656V54.5449Z" fill="#263238"/>
<path d="M10.0645 54.5449H19.1499V63.6354H10.0645V54.5449Z" fill="#00874B"/>
<path d="M19.1499 54.5449H28.2433V63.6354H19.1499V54.5449Z" fill="#00874B"/>
<path d="M28.2433 54.5449H37.3371V63.6354H28.2433V54.5449Z" fill="#00874B"/>
<path d="M37.3359 54.5449H46.4289V63.6354H37.3359V54.5449Z" fill="#00874B"/>
<path d="M46.4289 54.5449H55.5152V63.6354H46.4289V54.5449Z" fill="#00874B"/>
<path d="M55.5152 54.5449H64.6086V63.6354H55.5152V54.5449Z" fill="#13B26B"/>
<path d="M64.6074 54.5449H73.7004V63.6354H64.6074V54.5449Z" fill="#00874B"/>
<path d="M73.7004 54.5449H82.7941V63.6354H73.7004V54.5449Z" fill="#00874B"/>
<path d="M82.7941 54.5449H91.8804V63.6354H82.7941V54.5449Z" fill="#00874B"/>
<path d="M91.8789 54.5449H100.972V63.6354H91.8789V54.5449Z" fill="#00874B"/>
<path d="M100.972 54.5449H110.066V63.6354H100.972V54.5449Z" fill="#13B26B"/>
<path d="M110.066 54.5449H119.159V63.6354H110.066V54.5449Z" fill="#263238"/>
<path d="M0.972656 63.6367H10.0656V72.7297H0.972656V63.6367Z" fill="#263238"/>
<path d="M10.0645 63.6367H19.1499V72.7297H10.0645V63.6367Z" fill="#00874B"/>
<path d="M19.1499 63.6367H28.2433V72.7297H19.1499V63.6367Z" fill="#00874B"/>
<path d="M28.2433 63.6367H37.3371V72.7297H28.2433V63.6367Z" fill="#00874B"/>
<path d="M37.3359 63.6367H46.4289V72.7297H37.3359V63.6367Z" fill="#00874B"/>
<path d="M46.4289 63.6367H55.5152V72.7297H46.4289V63.6367Z" fill="#00874B"/>
<path d="M55.5152 63.6367H64.6086V72.7297H55.5152V63.6367Z" fill="#00874B"/>
<path d="M64.6074 63.6367H73.7004V72.7297H64.6074V63.6367Z" fill="#00874B"/>
<path d="M73.7004 63.6367H82.7941V72.7297H73.7004V63.6367Z" fill="#00874B"/>
<path d="M82.7941 63.6367H91.8804V72.7297H82.7941V63.6367Z" fill="#00874B"/>
<path d="M91.8789 63.6367H100.972V72.7297H91.8789V63.6367Z" fill="#00874B"/>
<path d="M100.972 63.6367H110.066V72.7297H100.972V63.6367Z" fill="#00874B"/>
<path d="M110.066 63.6367H119.159V72.7297H110.066V63.6367Z" fill="#263238"/>
<path d="M119.158 63.6367H128.251V72.7297H119.158V63.6367Z" fill="#263238"/>
<path d="M128.251 63.6367H137.337V72.7297H128.251V63.6367Z" fill="#263238"/>
<path d="M137.337 63.6367H146.431V72.7297H137.337V63.6367Z" fill="#263238"/>
<path d="M0.972656 72.7285H10.0656V81.8165H0.972656V72.7285Z" fill="#263238"/>
<path d="M10.0645 72.7285H19.1499V81.8165H10.0645V72.7285Z" fill="#00695C"/>
<path d="M19.1499 72.7285H28.2433V81.8165H19.1499V72.7285Z" fill="#00695C"/>
<path d="M28.2433 72.7285H37.3371V81.8165H28.2433V72.7285Z" fill="#00695C"/>
<path d="M37.3359 72.7285H46.4289V81.8165H37.3359V72.7285Z" fill="#00874B"/>
<path d="M46.4289 72.7285H55.5152V81.8165H46.4289V72.7285Z" fill="#00874B"/>
<path d="M55.5152 72.7285H64.6086V81.8165H55.5152V72.7285Z" fill="#00874B"/>
<path d="M64.6074 72.7285H73.7004V81.8165H64.6074V72.7285Z" fill="#00874B"/>
<path d="M73.7004 72.7285H82.7941V81.8165H73.7004V72.7285Z" fill="#00874B"/>
<path d="M82.7941 72.7285H91.8804V81.8165H82.7941V72.7285Z" fill="#00874B"/>
<path d="M91.8789 72.7285H100.972V81.8165H91.8789V72.7285Z" fill="#00695C"/>
<path d="M100.972 72.7285H110.066V81.8165H100.972V72.7285Z" fill="#13B26B"/>
<path d="M110.066 72.7285H119.159V81.8165H110.066V72.7285Z" fill="#13B26B"/>
<path d="M119.158 72.7285H128.251V81.8165H119.158V72.7285Z" fill="#13B26B"/>
<path d="M128.251 72.7285H137.337V81.8165H128.251V72.7285Z" fill="#13B26B"/>
<path d="M137.337 72.7285H146.431V81.8165H137.337V72.7285Z" fill="#13B26B"/>
<path d="M146.43 72.7285H155.523V81.8165H146.43V72.7285Z" fill="#263238"/>
<path d="M0.972656 81.8165H10.0656V90.9069H0.972656V81.8165Z" fill="#263238"/>
<path d="M10.0645 81.8165H19.1499V90.9069H10.0645V81.8165Z" fill="#00695C"/>
<path d="M19.1499 81.8165H28.2433V90.9069H19.1499V81.8165Z" fill="#13B26B"/>
<path d="M28.2433 81.8165H37.3371V90.9069H28.2433V81.8165Z" fill="#13B26B"/>
<path d="M37.3359 81.8165H46.4289V90.9069H37.3359V81.8165Z" fill="#13B26B"/>
<path d="M46.4289 81.8165H55.5152V90.9069H46.4289V81.8165Z" fill="#13B26B"/>
<path d="M55.5152 81.8165H64.6086V90.9069H55.5152V81.8165Z" fill="#00695C"/>
<path d="M64.6074 81.8165H73.7004V90.9069H64.6074V81.8165Z" fill="#00695C"/>
<path d="M73.7004 81.8165H82.7941V90.9069H73.7004V81.8165Z" fill="#00874B"/>
<path d="M82.7941 81.8165H91.8804V90.9069H82.7941V81.8165Z" fill="#00695C"/>
<path d="M91.8789 81.8165H100.972V90.9069H91.8789V81.8165Z" fill="#13B26B"/>
<path d="M100.972 81.8165H110.066V90.9069H100.972V81.8165Z" fill="#13B26B"/>
<path d="M110.066 81.8165H119.159V90.9069H110.066V81.8165Z" fill="#00874B"/>
<path d="M119.158 81.8165H128.251V90.9069H119.158V81.8165Z" fill="#00874B"/>
<path d="M128.251 81.8165H137.337V90.9069H128.251V81.8165Z" fill="#00874B"/>
<path d="M137.337 81.8165H146.431V90.9069H137.337V81.8165Z" fill="#13B26B"/>
<path d="M146.43 81.8165H155.523V90.9069H146.43V81.8165Z" fill="#13B26B"/>
<path d="M155.523 81.8165L164.616 81.8164V90.9069H155.523V81.8165Z" fill="#263238"/>
<path d="M0.972656 90.9082H10.0656V100.001H0.972656V90.9082Z" fill="#263238"/>
<path d="M10.0645 90.9082H19.1499V100.001H10.0645V90.9082Z" fill="#13B26B"/>
<path d="M19.1499 90.9082H28.2433V100.001H19.1499V90.9082Z" fill="#13B26B"/>
<path d="M28.2433 90.9082H37.3371V100.001H28.2433V90.9082Z" fill="#00874B"/>
<path d="M37.3359 90.9082H46.4289V100.001H37.3359V90.9082Z" fill="#00874B"/>
<path d="M46.4289 90.9082H55.5152V100.001H46.4289V90.9082Z" fill="#00874B"/>
<path d="M55.5152 90.9082H64.6086V100.001H55.5152V90.9082Z" fill="#13B26B"/>
<path d="M64.6074 90.9082H73.7004V100.001H64.6074V90.9082Z" fill="#00695C"/>
<path d="M73.7004 90.9082H82.7941V100.001H73.7004V90.9082Z" fill="#00695C"/>
<path d="M82.7941 90.9082H91.8804V100.001H82.7941V90.9082Z" fill="#00695C"/>
<path d="M91.8789 90.9082H100.972V100.001H91.8789V90.9082Z" fill="#13B26B"/>
<path d="M100.972 90.9082H110.066V100.001H100.972V90.9082Z" fill="#00874B"/>
<path d="M110.066 90.9082H119.159V100.001H110.066V90.9082Z" fill="#00874B"/>
<path d="M119.158 90.9082H128.251V100.001H119.158V90.9082Z" fill="#00874B"/>
<path d="M128.251 90.9082H137.337V100.001H128.251V90.9082Z" fill="#00874B"/>
<path d="M137.337 90.9082H146.431V100.001H137.337V90.9082Z" fill="#00874B"/>
<path d="M146.43 90.9082H155.523V100.001H146.43V90.9082Z" fill="#13B26B"/>
<path d="M155.523 90.9082H164.616V100.001H155.523V90.9082Z" fill="#263238"/>
<path d="M0.972656 100H10.0656V109.093H0.972656V100Z" fill="#263238"/>
<path d="M10.0645 100H19.1499V109.093H10.0645V100Z" fill="#13B26B"/>
<path d="M19.1499 100H28.2433V109.093H19.1499V100Z" fill="#00874B"/>
<path d="M28.2433 100H37.3371V109.093H28.2433V100Z" fill="#00874B"/>
<path d="M37.3359 100H46.4289V109.093H37.3359V100Z" fill="#00874B"/>
<path d="M46.4289 100H55.5152V109.093H46.4289V100Z" fill="#00874B"/>
<path d="M55.5152 100H64.6086V109.093H55.5152V100Z" fill="#13B26B"/>
<path d="M64.6074 100H73.7004V109.093H64.6074V100Z" fill="#00695C"/>
<path d="M73.7004 100H82.7941V109.093H73.7004V100Z" fill="#00695C"/>
<path d="M82.7941 100H91.8804V109.093H82.7941V100Z" fill="#13B26B"/>
<path d="M91.8789 100H100.972V109.093H91.8789V100Z" fill="#00874B"/>
<path d="M100.972 100H110.066V109.093H100.972V100Z" fill="#00874B"/>
<path d="M110.066 100H119.159V109.093H110.066V100Z" fill="#00874B"/>
<path d="M119.158 100H128.251V109.093H119.158V100Z" fill="#00874B"/>
<path d="M128.251 100H137.337V109.093H128.251V100Z" fill="#00874B"/>
<path d="M137.337 100H146.431V109.093H137.337V100Z" fill="#00874B"/>
<path d="M146.43 100H155.523V109.093H146.43V100Z" fill="#13B26B"/>
<path d="M155.523 100H164.616V109.093H155.523V100Z" fill="#263238"/>
<path d="M0.972656 109.093H10.0656V118.187H0.972656V109.093Z" fill="#263238"/>
<path d="M10.0645 109.093H19.1499V118.187H10.0645V109.093Z" fill="#13B26B"/>
<path d="M19.1499 109.093H28.2433V118.187H19.1499V109.093Z" fill="#00874B"/>
<path d="M28.2441 109.094L37.3371 109.093V118.187H28.2433L28.2441 109.094Z" fill="#00874B"/>
<path d="M37.3359 109.093H46.4289V118.187H37.3359V109.093Z" fill="#00874B"/>
<path d="M46.4297 109.094L55.5152 109.093V118.187H46.4289L46.4297 109.094Z" fill="#00874B"/>
<path d="M55.5152 109.093H64.6086V118.187H55.5152V109.093Z" fill="#00874B"/>
<path d="M64.6074 109.093H73.7004V118.187H64.6074V109.093Z" fill="#00874B"/>
<path d="M73.7012 109.094L82.7941 109.093V118.187H73.7004L73.7012 109.094Z" fill="#00874B"/>
<path d="M82.7949 109.094L91.8804 109.093V118.187H82.7941L82.7949 109.094Z" fill="#00874B"/>
<path d="M91.8789 109.093H100.972V118.187H91.8789V109.093Z" fill="#00874B"/>
<path d="M100.973 109.094L110.066 109.093V118.187H100.972L100.973 109.094Z" fill="#00874B"/>
<path d="M110.066 109.094L119.159 109.093V118.187H110.066L110.066 109.094Z" fill="#00874B"/>
<path d="M119.158 109.093H128.251V118.187H119.158V109.093Z" fill="#00874B"/>
<path d="M128.252 109.094L137.337 109.093V118.187H128.251L128.252 109.094Z" fill="#00874B"/>
<path d="M137.337 109.093H146.431V118.187H137.337V109.093Z" fill="#00874B"/>
<path d="M146.43 109.093H155.523V118.187H146.43V109.093Z" fill="#00874B"/>
<path d="M155.523 109.094L164.616 109.093V118.187H155.523L155.523 109.094Z" fill="#263238"/>
<path d="M0.972656 118.186H10.0656V127.271H0.972656V118.186Z" fill="#263238"/>
<path d="M10.0645 118.186H19.1499V127.271H10.0645V118.186Z" fill="#13B26B"/>
<path d="M19.1499 118.186H28.2433V127.271H19.1499V118.186Z" fill="#00874B"/>
<path d="M28.2433 118.186H37.3371V127.271H28.2433V118.186Z" fill="#00874B"/>
<path d="M37.3359 118.186H46.4289V127.271H37.3359V118.186Z" fill="#00695C"/>
<path d="M46.4289 118.186H55.5152V127.271H46.4289V118.186Z" fill="#13B26B"/>
<path d="M55.5152 118.186H64.6086V127.271H55.5152V118.186Z" fill="#13B26B"/>
<path d="M64.6074 118.186H73.7004V127.271H64.6074V118.186Z" fill="#13B26B"/>
<path d="M73.7004 118.186H82.7941V127.271H73.7004V118.186Z" fill="#00874B"/>
<path d="M82.7941 118.186H91.8804V127.271H82.7941V118.186Z" fill="#00874B"/>
<path d="M91.8789 118.186H100.972V127.271H91.8789V118.186Z" fill="#00695C"/>
<path d="M100.972 118.186H110.066V127.271H100.972V118.186Z" fill="#00695C"/>
<path d="M110.066 118.186H119.159V127.271H110.066V118.186Z" fill="#00874B"/>
<path d="M119.158 118.186H128.251V127.271H119.158V118.186Z" fill="#00874B"/>
<path d="M128.251 118.186H137.337V127.271H128.251V118.186Z" fill="#00874B"/>
<path d="M137.337 118.186H146.431V127.271H137.337V118.186Z" fill="#00874B"/>
<path d="M146.43 118.186H155.523V127.271H146.43V118.186Z" fill="#00874B"/>
<path d="M155.523 118.186H164.616V127.271H155.523V118.186Z" fill="#263238"/>
<path d="M10.0645 127.271H19.1499V136.364H10.0645V127.271Z" fill="#263238"/>
<path d="M19.1499 127.271H28.2433V136.364H19.1499V127.271Z" fill="#00695C"/>
<path d="M28.2433 127.271H37.3371V136.364H28.2433V127.271Z" fill="#00695C"/>
<path d="M37.3359 127.271H46.4289V136.364H37.3359V127.271Z" fill="#13B26B"/>
<path d="M46.4289 127.271H55.5152V136.364H46.4289V127.271Z" fill="#13B26B"/>
<path d="M55.5152 127.271H64.6086V136.364H55.5152V127.271Z" fill="#13B26B"/>
<path d="M64.6074 127.271H73.7004V136.364H64.6074V127.271Z" fill="#13B26B"/>
<path d="M73.7004 127.271H82.7941V136.364H73.7004V127.271Z" fill="#13B26B"/>
<path d="M82.7941 127.271H91.8804V136.364H82.7941V127.271Z" fill="#13B26B"/>
<path d="M91.8789 127.271H100.972V136.364H91.8789V127.271Z" fill="#13B26B"/>
<path d="M100.972 127.271H110.066V136.364H100.972V127.271Z" fill="#00695C"/>
<path d="M110.066 127.271H119.159V136.364H110.066V127.271Z" fill="#00695C"/>
<path d="M119.158 127.271H128.251V136.364H119.158V127.271Z" fill="#00874B"/>
<path d="M128.251 127.271H137.337V136.364H128.251V127.271Z" fill="#00874B"/>
<path d="M137.337 127.271H146.431V136.364H137.337V127.271Z" fill="#00874B"/>
<path d="M146.43 127.271H155.523V136.364H146.43V127.271Z" fill="#00874B"/>
<path d="M155.523 127.271H164.616V136.364H155.523V127.271Z" fill="#263238"/>
<path d="M19.1499 136.364H28.2433V145.458H19.1504L19.1499 136.364Z" fill="#263238"/>
<path d="M28.2441 136.365L37.3371 136.364V145.458H28.2433L28.2441 136.365Z" fill="#00695C"/>
<path d="M37.3359 136.364H46.4289V145.458H37.3359V136.364Z" fill="#13B26B"/>
<path d="M46.4297 136.365L55.5152 136.364V145.458H46.4289L46.4297 136.365Z" fill="#13B26B"/>
<path d="M55.5152 136.364H64.6086V145.458H55.5152V136.364Z" fill="#00874B"/>
<path d="M64.6074 136.364H73.7004V145.458H64.6074V136.364Z" fill="#00874B"/>
<path d="M73.7012 136.365L82.7941 136.364V145.458H73.7004L73.7012 136.365Z" fill="#00874B"/>
<path d="M82.7949 136.365L91.8804 136.364V145.458H82.7941L82.7949 136.365Z" fill="#00874B"/>
<path d="M91.8789 136.364H100.972V145.458H91.8789V136.364Z" fill="#13B26B"/>
<path d="M100.973 136.365L110.066 136.364V145.458H100.972L100.973 136.365Z" fill="#13B26B"/>
<path d="M110.066 136.365L119.159 136.364V145.458H110.066L110.066 136.365Z" fill="#00695C"/>
<path d="M119.158 136.364H128.251V145.458H119.158V136.364Z" fill="#00695C"/>
<path d="M128.252 136.365L137.337 136.364V145.458H128.251L128.252 136.365Z" fill="#00695C"/>
<path d="M137.337 136.364H146.431V145.458H137.337V136.364Z" fill="#00695C"/>
<path d="M146.43 136.364H155.523V145.458H146.43V136.364Z" fill="#00695C"/>
<path d="M155.523 136.365L164.616 136.364V145.458H155.523L155.523 136.365Z" fill="#263238"/>
<path d="M19.1504 145.457H28.2433V154.55H19.1504V145.457Z" fill="#263238"/>
<path d="M28.2433 145.457H37.3371V154.55H28.2433V145.457Z" fill="#13B26B"/>
<path d="M37.3359 145.457H46.4289V154.55H37.3359V145.457Z" fill="#13B26B"/>
<path d="M46.4289 145.457H55.5152V154.55H46.4289V145.457Z" fill="#00874B"/>
<path d="M55.5152 145.457H64.6086V154.55H55.5152V145.457Z" fill="#00874B"/>
<path d="M64.6074 145.457H73.7004V154.55H64.6074V145.457Z" fill="#00874B"/>
<path d="M73.7004 145.457H82.7941V154.55H73.7004V145.457Z" fill="#00874B"/>
<path d="M82.7941 145.457H91.8804V154.55H82.7941V145.457Z" fill="#00874B"/>
<path d="M91.8789 145.457H100.972V154.55H91.8789V145.457Z" fill="#00874B"/>
<path d="M100.972 145.457H110.066V154.55H100.972V145.457Z" fill="#13B26B"/>
<path d="M110.066 145.457H119.159V154.55H110.066V145.457Z" fill="#00695C"/>
<path d="M119.158 145.457H128.251V154.55H119.158V145.457Z" fill="#00695C"/>
<path d="M128.251 145.457H137.337V154.55H128.251V145.457Z" fill="#00695C"/>
<path d="M137.337 145.457H146.431V154.55H137.337V145.457Z" fill="#00695C"/>
<path d="M146.43 145.457H155.523V154.55H146.43V145.457Z" fill="#263238"/>
<path d="M28.244 154.551L37.3371 154.55L37.337 163.636H28.244V154.551Z" fill="#263238"/>
<path d="M37.3359 154.55H46.4289V163.636H37.3359V154.55Z" fill="#00695C"/>
<path d="M46.4296 154.551L55.5152 154.55L55.5151 163.636L46.4289 163.636L46.4296 154.551Z" fill="#00874B"/>
<path d="M55.5152 154.55H64.6086L64.6083 163.636H55.5151L55.5152 154.55Z" fill="#00874B"/>
<path d="M64.6074 154.55H73.7004V163.636L64.6083 163.636L64.6074 154.55Z" fill="#00874B"/>
<path d="M73.701 154.551L82.7941 154.55L82.7939 163.636L73.7004 163.636L73.701 154.551Z" fill="#00874B"/>
<path d="M82.7949 154.551L91.8804 154.55V163.636L82.7939 163.636L82.7949 154.551Z" fill="#00874B"/>
<path d="M91.8789 154.55H100.972L100.972 163.636H91.8791L91.8789 154.55Z" fill="#00874B"/>
<path d="M100.973 154.551L110.066 154.55V163.636L100.972 163.636L100.973 154.551Z" fill="#00874B"/>
<path d="M110.066 154.551L119.159 154.55V163.636H110.066L110.066 154.551Z" fill="#00874B"/>
<path d="M119.158 154.55H128.251V163.636H119.158V154.55Z" fill="#00695C"/>
<path d="M128.252 154.551L137.337 154.55V163.636H128.251L128.252 154.551Z" fill="#00695C"/>
<path d="M137.337 154.55H146.431V163.636H137.337V154.55Z" fill="#00695C"/>
<path d="M146.43 154.55H155.523V163.636H146.43V154.55Z" fill="#263238"/>
<path d="M28.2441 163.635H37.3371V172.728H28.2441V163.635Z" fill="#263238"/>
<path d="M37.3359 163.635H46.4289V172.728H37.3359V163.635Z" fill="#00695C"/>
<path d="M46.4289 163.635H55.5152V172.728H46.4289V163.635Z" fill="#00695C"/>
<path d="M55.5152 163.635H64.6086V172.728H55.5152V163.635Z" fill="#00874B"/>
<path d="M64.6074 163.635H73.7004V172.728H64.6074V163.635Z" fill="#00874B"/>
<path d="M73.7004 163.635H82.7941V172.728H73.7004V163.635Z" fill="#00874B"/>
<path d="M82.7941 163.635H91.8804V172.728H82.7941V163.635Z" fill="#00874B"/>
<path d="M91.8789 163.635H100.972V172.728H91.8789V163.635Z" fill="#00874B"/>
<path d="M100.972 163.635H110.066V172.728H100.972V163.635Z" fill="#00874B"/>
<path d="M110.066 163.635H119.159V172.728H110.066V163.635Z" fill="#00695C"/>
<path d="M119.158 163.635H128.251V172.728H119.158V163.635Z" fill="#00695C"/>
<path d="M128.251 163.635H137.337V172.728H128.251V163.635Z" fill="#00695C"/>
<path d="M137.337 163.635H146.431V172.728H137.337V163.635Z" fill="#263238"/>
<path d="M37.3359 172.728H46.4289V181.821H37.3359V172.728Z" fill="#263238"/>
<path d="M46.4297 172.729L55.5152 172.728V181.821H46.4289L46.4297 172.729Z" fill="#00695C"/>
<path d="M55.5152 172.728H64.6086V181.821H55.5152V172.728Z" fill="#00695C"/>
<path d="M64.6074 172.728H73.7004V181.821H64.6074V172.728Z" fill="#00874B"/>
<path d="M73.7012 172.729L82.7941 172.728V181.821H73.7004L73.7012 172.729Z" fill="#00874B"/>
<path d="M82.7949 172.729L91.8804 172.728V181.821H82.7941L82.7949 172.729Z" fill="#00874B"/>
<path d="M91.8789 172.728H100.972V181.821H91.8789V172.728Z" fill="#00695C"/>
<path d="M100.973 172.729L110.066 172.728V181.821H100.972L100.973 172.729Z" fill="#00695C"/>
<path d="M110.066 172.729L119.159 172.728V181.821H110.066L110.066 172.729Z" fill="#00695C"/>
<path d="M119.158 172.728H128.251V181.821H119.158V172.728Z" fill="#00695C"/>
<path d="M128.252 172.729L137.337 172.728V181.821H128.251L128.252 172.729Z" fill="#00695C"/>
<path d="M137.337 172.728H146.431V181.821H137.337V172.728Z" fill="#263238"/>
<path d="M37.3359 181.821H46.4289V190.915H37.3359V181.821Z" fill="#263238"/>
<path d="M46.4296 181.822L55.5152 181.821L55.5151 190.915L46.4289 190.915L46.4296 181.822Z" fill="#00695C"/>
<path d="M55.5152 181.821H64.6086L64.6083 190.915H55.5151L55.5152 181.821Z" fill="#00695C"/>
<path d="M64.6074 181.821H73.7004V190.915L64.6083 190.915L64.6074 181.821Z" fill="#00695C"/>
<path d="M73.7004 181.821H82.7941L82.7939 190.915L73.7004 190.915V181.821Z" fill="#00695C"/>
<path d="M82.7949 181.822L91.8804 181.821V190.915L82.7939 190.915L82.7949 181.822Z" fill="#00695C"/>
<path d="M91.8789 181.821H100.972L100.972 190.915H91.8791L91.8789 181.821Z" fill="#00695C"/>
<path d="M100.973 181.822L110.066 181.821V190.915L100.972 190.915L100.973 181.822Z" fill="#00695C"/>
<path d="M110.066 181.822L119.159 181.821V190.915H110.066L110.066 181.822Z" fill="#00695C"/>
<path d="M119.158 181.821H128.251V190.915H119.158V181.821Z" fill="#00695C"/>
<path d="M128.252 181.822L137.337 181.821V190.915H128.251L128.252 181.822Z" fill="#263238"/>
<path d="M46.4297 190.914H55.5152V200H46.4297V190.914Z" fill="#263238"/>
<path d="M55.5152 190.914H64.6086V200H55.5152V190.914Z" fill="#263238"/>
<path d="M64.6074 190.914H73.7004V200H64.6074V190.914Z" fill="#263238"/>
<path d="M73.7004 190.914H82.7941V200H73.7004V190.914Z" fill="#263238"/>
<path d="M82.7941 190.914H91.8804V200H82.7941V190.914Z" fill="#263238"/>
<path d="M91.8789 190.914H100.972V200H91.8789V190.914Z" fill="#263238"/>
<path d="M100.972 190.914H110.066V200H100.972V190.914Z" fill="#263238"/>
<path d="M110.066 190.914H119.159V200H110.066V190.914Z" fill="#263238"/>
<path d="M119.158 190.914H128.251V200H119.158V190.914Z" fill="#263238"/>
</svg>
