<svg width="133" height="133" viewBox="0 0 133 133" fill="none" xmlns="http://www.w3.org/2000/svg">
<path d="M14.7781 0H29.5559V14.7778H14.7781V0Z" fill="#00874B"/>
<path d="M14.7781 14.7778H29.5559V29.5559H14.7781V14.7778Z" fill="#00874B"/>
<path d="M29.5559 14.7778L44.334 14.7781V29.5559H29.5559V14.7778Z" fill="#00874B"/>
<path d="M29.5559 29.5559H44.334V44.334H29.5562L29.5559 29.5559Z" fill="#00874B"/>
<path d="M44.333 29.5562H59.1108V44.334H44.333V29.5562Z" fill="#00874B"/>
<path d="M44.333 44.333H59.1108V59.1108H44.333V44.333Z" fill="#00874B"/>
<path d="M103.444 44.333H118.222V59.1108H103.444V44.333Z" fill="#00874B"/>
<path d="M0 59.1112H14.7778V73.889H0V59.1112Z" fill="#00874B"/>
<path d="M44.333 59.1108H59.1108V73.8889H44.333V59.1108Z" fill="#00874B"/>
<path d="M88.6673 59.1111H103.445V73.8889H88.6673V59.1111Z" fill="#00874B"/>
<path d="M14.7778 73.889L29.5559 73.8892V88.667H14.7781L14.7778 73.889Z" fill="#00874B"/>
<path d="M44.333 73.8889H59.1108V88.667H44.333V73.8889Z" fill="#00874B"/>
<path d="M73.889 73.889L88.6673 73.8889L88.6669 88.6669H73.889V73.889Z" fill="#00874B"/>
<path d="M118.222 73.8892H133V88.667H118.222V73.8892Z" fill="#00874B"/>
<path d="M14.7781 88.667H29.5559V103.445H14.7781V88.667Z" fill="#00695C"/>
<path d="M44.333 88.667H59.1108V103.445H44.333V88.667Z" fill="#00695C"/>
<path d="M73.889 88.6669H88.6669L88.667 103.445H73.8892L73.889 88.6669Z" fill="#00695C"/>
<path d="M103.444 88.6673L118.222 88.667L118.222 103.445H103.444V88.6673Z" fill="#00874B"/>
<path d="M118.222 88.667H133V103.445H118.222L118.222 88.667Z" fill="#00874B"/>
<path d="M29.5562 103.444H44.334V118.222H29.5562V103.444Z" fill="#00695C"/>
<path d="M44.333 103.444H59.1108V118.222H44.333V103.444Z" fill="#00695C"/>
<path d="M59.1108 103.444H73.8889V118.222H59.1108V103.444Z" fill="#00695C"/>
<path d="M73.8889 103.444H88.667V118.222H73.8889V103.444Z" fill="#00695C"/>
<path d="M88.667 103.444H103.445V118.222H88.667V103.444Z" fill="#00695C"/>
<path d="M103.444 103.444H118.222V118.222H103.444V103.444Z" fill="#00695C"/>
<path d="M0 118.222H14.7778V133H0V118.222Z" fill="#263238"/>
<path d="M14.7778 118.222L29.5562 118.222L29.5559 133H14.7778V118.222Z" fill="#263238"/>
<path d="M29.5562 118.222H44.334V133H29.5559L29.5562 118.222Z" fill="#263238"/>
<path d="M44.333 118.222H59.1108V133H44.333V118.222Z" fill="#263238"/>
<path d="M59.1108 118.222H73.8889V133H59.1108V118.222Z" fill="#263238"/>
<path d="M73.8889 118.222H88.667V133H73.8889V118.222Z" fill="#263238"/>
<path d="M88.667 118.222H103.445V133H88.667V118.222Z" fill="#263238"/>
<path d="M103.444 118.222H118.222V133H103.444V118.222Z" fill="#263238"/>
<path d="M118.222 118.222L133 118.222V133H118.222V118.222Z" fill="#263238"/>
</svg>
