<svg width="176" height="200" viewBox="0 0 176 200" fill="none" xmlns="http://www.w3.org/2000/svg">
<path d="M75.8125 0H80.8125V5H75.8125V0Z" fill="#263238"/>
<path d="M80.8125 0H85.8125V5H80.8125V0Z" fill="#263238"/>
<path d="M85.8125 0H90.8125V5H85.8125V0Z" fill="#263238"/>
<path d="M90.8125 0H95.8125V5H90.8125V0Z" fill="#263238"/>
<path d="M95.8125 0H100.812V5H95.8125V0Z" fill="#263238"/>
<path d="M100.812 0H105.812V5H100.812V0Z" fill="#263238"/>
<path d="M70.8125 5H75.8125V10H70.8125V5Z" fill="#263238"/>
<path d="M75.8125 5H80.8125V10H75.8125V5Z" fill="#13B26B"/>
<path d="M80.8125 5H85.8125V10H80.8125V5Z" fill="#13B26B"/>
<path d="M85.8125 5H90.8125V10H85.8125V5Z" fill="#13B26B"/>
<path d="M90.8125 5H95.8125V10H90.8125V5Z" fill="#13B26B"/>
<path d="M95.8125 5H100.812V10H95.8125V5Z" fill="#13B26B"/>
<path d="M100.812 5H105.812V10H100.812V5Z" fill="#13B26B"/>
<path d="M105.812 5H110.812V10H105.812V5Z" fill="#263238"/>
<path d="M65.8125 10H70.8125V15H65.8125V10Z" fill="#263238"/>
<path d="M70.8125 10H75.8125V15H70.8125V10Z" fill="#13B26B"/>
<path d="M75.8125 10H80.8125V15H75.8125V10Z" fill="#13B26B"/>
<path d="M80.8125 10H85.8125V15H80.8125V10Z" fill="#00874B"/>
<path d="M85.8125 10H90.8125V15H85.8125V10Z" fill="#00874B"/>
<path d="M90.8125 10H95.8125V15H90.8125V10Z" fill="#13B26B"/>
<path d="M95.8125 10H100.812V15H95.8125V10Z" fill="#13B26B"/>
<path d="M100.812 10H105.812V15H100.812V10Z" fill="#13B26B"/>
<path d="M105.812 10H110.812V15H105.812V10Z" fill="#13B26B"/>
<path d="M110.812 10H115.812V15H110.812V10Z" fill="#263238"/>
<path d="M65.8125 15H70.8125V20H65.8125V15Z" fill="#263238"/>
<path d="M70.8125 15H75.8125V20H70.8125V15Z" fill="#13B26B"/>
<path d="M75.8125 15H80.8125V20H75.8125V15Z" fill="#13B26B"/>
<path d="M80.8125 15H85.8125V20H80.8125V15Z" fill="#00874B"/>
<path d="M85.8125 15H90.8125V20H85.8125V15Z" fill="#13B26B"/>
<path d="M90.8125 15H95.8125V20H90.8125V15Z" fill="#00874B"/>
<path d="M95.8125 15H100.812V20H95.8125V15Z" fill="#00874B"/>
<path d="M100.812 15H105.812V20H100.812V15Z" fill="#13B26B"/>
<path d="M105.812 15H110.812V20H105.812V15Z" fill="#13B26B"/>
<path d="M110.812 15H115.812V20H110.812V15Z" fill="#263238"/>
<path d="M50.8125 20H55.8125V25H50.8125V20Z" fill="#263238"/>
<path d="M55.8125 20H60.8125V25H55.8125V20Z" fill="#263238"/>
<path d="M60.8125 20H65.8125V25H60.8125V20Z" fill="#263238"/>
<path d="M65.8125 20H70.8125V25H65.8125V20Z" fill="#263238"/>
<path d="M70.8125 20H75.8125V25H70.8125V20Z" fill="#00695C"/>
<path d="M75.8125 20H80.8125V25H75.8125V20Z" fill="#00874B"/>
<path d="M80.8125 20H85.8125V25H80.8125V20Z" fill="#00874B"/>
<path d="M85.8125 20H90.8125V25H85.8125V20Z" fill="#00874B"/>
<path d="M90.8125 20H95.8125V25H90.8125V20Z" fill="#00874B"/>
<path d="M95.8125 20H100.812V25H95.8125V20Z" fill="#00874B"/>
<path d="M100.812 20H105.812V25H100.812V20Z" fill="#00874B"/>
<path d="M105.812 20H110.812V25H105.812V20Z" fill="#00874B"/>
<path d="M110.812 20H115.812V25H110.812V20Z" fill="#13B26B"/>
<path d="M115.812 20H120.812V25H115.812V20Z" fill="#263238"/>
<path d="M45.8125 25H50.8125V30H45.8125V25Z" fill="#263238"/>
<path d="M50.8125 25H55.8125V30H50.8125V25Z" fill="#13B26B"/>
<path d="M55.8125 25H60.8125V30H55.8125V25Z" fill="#13B26B"/>
<path d="M60.8125 25H65.8125V30H60.8125V25Z" fill="#13B26B"/>
<path d="M65.8125 25H70.8125V30H65.8125V25Z" fill="#13B26B"/>
<path d="M70.8125 25H75.8125V30H70.8125V25Z" fill="#00695C"/>
<path d="M75.8125 25H80.8125V30H75.8125V25Z" fill="#00874B"/>
<path d="M80.8125 25H85.8125V30H80.8125V25Z" fill="#00874B"/>
<path d="M85.8125 25H90.8125V30H85.8125V25Z" fill="#00874B"/>
<path d="M90.8125 25H95.8125V30H90.8125V25Z" fill="#00874B"/>
<path d="M95.8125 25H100.812V30H95.8125V25Z" fill="#00874B"/>
<path d="M100.812 25H105.812V30H100.812V25Z" fill="#00874B"/>
<path d="M105.812 25H110.812V30H105.812V25Z" fill="#00874B"/>
<path d="M110.812 25H115.812V30H110.812V25Z" fill="#00874B"/>
<path d="M115.812 25H120.812V30H115.812V25Z" fill="#00695C"/>
<path d="M120.812 25H125.812V30H120.812V25Z" fill="#263238"/>
<path d="M40.8125 30H45.8125V35H40.8125V30Z" fill="#263238"/>
<path d="M45.8125 30H50.8125V35H45.8125V30Z" fill="#13B26B"/>
<path d="M50.8125 30H55.8125V35H50.8125V30Z" fill="#13B26B"/>
<path d="M55.8125 30H60.8125V35H55.8125V30Z" fill="#13B26B"/>
<path d="M60.8125 30H65.8125V35H60.8125V30Z" fill="#00874B"/>
<path d="M65.8125 30H70.8125V35H65.8125V30Z" fill="#13B26B"/>
<path d="M70.8125 30H75.8125V35H70.8125V30Z" fill="#00695C"/>
<path d="M75.8125 30H80.8125V35H75.8125V30Z" fill="#00695C"/>
<path d="M80.8125 30H85.8125V35H80.8125V30Z" fill="#00874B"/>
<path d="M85.8125 30H90.8125V35H85.8125V30Z" fill="#00695C"/>
<path d="M90.8125 30H95.8125V35H90.8125V30Z" fill="#00874B"/>
<path d="M95.8125 30H100.812V35H95.8125V30Z" fill="#00695C"/>
<path d="M100.812 30H105.812V35H100.812V30Z" fill="#00874B"/>
<path d="M105.812 30H110.812V35H105.812V30Z" fill="#00874B"/>
<path d="M110.812 30H115.812V35H110.812V30Z" fill="#00874B"/>
<path d="M115.812 30H120.812V35H115.812V30Z" fill="#00695C"/>
<path d="M120.812 30H125.812V35H120.812V30Z" fill="#263238"/>
<path d="M35.8125 35H40.8125V40H35.8125V35Z" fill="#263238"/>
<path d="M40.8125 35H45.8125V40H40.8125V35Z" fill="#13B26B"/>
<path d="M45.8125 35H50.8125V40H45.8125V35Z" fill="#00874B"/>
<path d="M50.8125 35H55.8125V40H50.8125V35Z" fill="#13B26B"/>
<path d="M55.8125 35H60.8125V40H55.8125V35Z" fill="#00874B"/>
<path d="M60.8125 35H65.8125V40H60.8125V35Z" fill="#00874B"/>
<path d="M65.8125 35H70.8125V40H65.8125V35Z" fill="#00874B"/>
<path d="M70.8125 35H75.8125V40H70.8125V35Z" fill="#13B26B"/>
<path d="M75.8125 35H80.8125V40H75.8125V35Z" fill="#00695C"/>
<path d="M80.8125 35H85.8125V40H80.8125V35Z" fill="#00695C"/>
<path d="M85.8125 35H90.8125V40H85.8125V35Z" fill="#00695C"/>
<path d="M90.8125 35H95.8125V40H90.8125V35Z" fill="#00695C"/>
<path d="M95.8125 35H100.812V40H95.8125V35Z" fill="#00695C"/>
<path d="M100.812 35H105.812V40H100.812V35Z" fill="#00695C"/>
<path d="M105.812 35H110.812V40H105.812V35Z" fill="#00695C"/>
<path d="M110.812 35H115.812V40H110.812V35Z" fill="#00695C"/>
<path d="M115.812 35H120.812V40H115.812V35Z" fill="#00695C"/>
<path d="M120.812 35H125.812V40H120.812V35Z" fill="#263238"/>
<path d="M125.812 35H130.812V40H125.812V35Z" fill="#263238"/>
<path d="M130.812 35H135.812V40H130.812V35Z" fill="#263238"/>
<path d="M35.8125 40H40.8125V45H35.8125V40Z" fill="#263238"/>
<path d="M40.8125 40H45.8125V45H40.8125V40Z" fill="#13B26B"/>
<path d="M45.8125 40H50.8125V45H45.8125V40Z" fill="#00695C"/>
<path d="M50.8125 40H55.8125V45H50.8125V40Z" fill="#00874B"/>
<path d="M55.8125 40H60.8125V45H55.8125V40Z" fill="#00874B"/>
<path d="M60.8125 40H65.8125V45H60.8125V40Z" fill="#00874B"/>
<path d="M65.8125 40H70.8125V45H65.8125V40Z" fill="#00874B"/>
<path d="M70.8125 40H75.8125V45H70.8125V40Z" fill="#00874B"/>
<path d="M75.8125 40H80.8125V45H75.8125V40Z" fill="#263238"/>
<path d="M80.8125 40H85.8125V45H80.8125V40Z" fill="#00695C"/>
<path d="M85.8125 40H90.8125V45H85.8125V40Z" fill="#00695C"/>
<path d="M90.8125 40H95.8125V45H90.8125V40Z" fill="#00695C"/>
<path d="M95.8125 40H100.812V45H95.8125V40Z" fill="#00695C"/>
<path d="M100.812 40H105.812V45H100.812V40Z" fill="#00695C"/>
<path d="M105.812 40H110.812V45H105.812V40Z" fill="#00695C"/>
<path d="M110.812 40H115.812V45H110.812V40Z" fill="#00695C"/>
<path d="M115.812 40H120.812V45H115.812V40Z" fill="#13B26B"/>
<path d="M120.812 40H125.812V45H120.812V40Z" fill="#13B26B"/>
<path d="M125.812 40H130.812V45H125.812V40Z" fill="#13B26B"/>
<path d="M130.812 40H135.812V45H130.812V40Z" fill="#13B26B"/>
<path d="M135.812 40H140.812V45H135.812V40Z" fill="#263238"/>
<path d="M140.812 40H145.812V45H140.812V40Z" fill="#263238"/>
<path d="M145.812 40H150.812V45H145.812V40Z" fill="#263238"/>
<path d="M35.8125 45H40.8125V50H35.8125V45Z" fill="#263238"/>
<path d="M40.8125 45H45.8125V50H40.8125V45Z" fill="#00695C"/>
<path d="M45.8125 45H50.8125V50H45.8125V45Z" fill="#00874B"/>
<path d="M50.8125 45H55.8125V50H50.8125V45Z" fill="#00874B"/>
<path d="M55.8125 45H60.8125V50H55.8125V45Z" fill="#00874B"/>
<path d="M60.8125 45H65.8125V50H60.8125V45Z" fill="#00874B"/>
<path d="M65.8125 45H70.8125V50H65.8125V45Z" fill="#00874B"/>
<path d="M70.8125 45H75.8125V50H70.8125V45Z" fill="#00874B"/>
<path d="M75.8125 45H80.8125V50H75.8125V45Z" fill="#00874B"/>
<path d="M80.8125 45H85.8125V50H80.8125V45Z" fill="#263238"/>
<path d="M85.8125 45H90.8125V50H85.8125V45Z" fill="#00695C"/>
<path d="M90.8125 45H95.8125V50H90.8125V45Z" fill="#00695C"/>
<path d="M95.8125 45H100.812V50H95.8125V45Z" fill="#00695C"/>
<path d="M100.812 45H105.812V50H100.812V45Z" fill="#00695C"/>
<path d="M105.812 45H110.812V50H105.812V45Z" fill="#263238"/>
<path d="M110.812 45H115.812V50H110.812V45Z" fill="#13B26B"/>
<path d="M115.812 45H120.812V50H115.812V45Z" fill="#13B26B"/>
<path d="M120.812 45H125.812V50H120.812V45Z" fill="#00874B"/>
<path d="M125.812 45H130.812V50H125.812V45Z" fill="#00874B"/>
<path d="M130.812 45H135.812V50H130.812V45Z" fill="#00874B"/>
<path d="M135.812 45H140.812V50H135.812V45Z" fill="#13B26B"/>
<path d="M140.812 45H145.812V50H140.812V45Z" fill="#13B26B"/>
<path d="M145.812 45H150.812V50H145.812V45Z" fill="#13B26B"/>
<path d="M150.812 45H155.812V50H150.812V45Z" fill="#263238"/>
<path d="M25.8125 50H30.8125V55H25.8125V50Z" fill="#263238"/>
<path d="M30.8125 50H35.8125V55H30.8125V50Z" fill="#263238"/>
<path d="M35.8125 50H40.8125V55H35.8125V50Z" fill="#263238"/>
<path d="M40.8125 50H45.8125V55H40.8125V50Z" fill="#00695C"/>
<path d="M45.8125 50H50.8125V55H45.8125V50Z" fill="#00695C"/>
<path d="M50.8125 50H55.8125V55H50.8125V50Z" fill="#00874B"/>
<path d="M55.8125 50H60.8125V55H55.8125V50Z" fill="#00874B"/>
<path d="M60.8125 50H65.8125V55H60.8125V50Z" fill="#00874B"/>
<path d="M65.8125 50H70.8125V55H65.8125V50Z" fill="#00874B"/>
<path d="M70.8125 50H75.8125V55H70.8125V50Z" fill="#00874B"/>
<path d="M75.8125 50H80.8125V55H75.8125V50Z" fill="#00695C"/>
<path d="M80.8125 50H85.8125V55H80.8125V50Z" fill="#263238"/>
<path d="M85.8125 50H90.8125V55H85.8125V50Z" fill="#263238"/>
<path d="M90.8125 50H95.8125V55H90.8125V50Z" fill="#263238"/>
<path d="M95.8125 50H100.812V55H95.8125V50Z" fill="#4E342E"/>
<path d="M100.812 50H105.812V55H100.812V50Z" fill="#263238"/>
<path d="M105.812 50H110.812V55H105.812V50Z" fill="#263238"/>
<path d="M110.812 50H115.812V55H110.812V50Z" fill="#13B26B"/>
<path d="M115.812 50H120.812V55H115.812V50Z" fill="#00874B"/>
<path d="M120.812 50H125.812V55H120.812V50Z" fill="#13B26B"/>
<path d="M125.812 50H130.812V55H125.812V50Z" fill="#00874B"/>
<path d="M130.812 50H135.812V55H130.812V50Z" fill="#00874B"/>
<path d="M135.812 50H140.812V55H135.812V50Z" fill="#00874B"/>
<path d="M140.812 50H145.812V55H140.812V50Z" fill="#13B26B"/>
<path d="M145.812 50H150.812V55H145.812V50Z" fill="#13B26B"/>
<path d="M150.812 50H155.812V55H150.812V50Z" fill="#13B26B"/>
<path d="M155.812 50H160.812V55H155.812V50Z" fill="#263238"/>
<path d="M20.8125 55H25.8125V60H20.8125V55Z" fill="#263238"/>
<path d="M25.8125 55H30.8125V60H25.8125V55Z" fill="#13B26B"/>
<path d="M30.8125 55H35.8125V60H30.8125V55Z" fill="#13B26B"/>
<path d="M35.8125 55H40.8125V60H35.8125V55Z" fill="#13B26B"/>
<path d="M40.8125 55H45.8125V60H40.8125V55Z" fill="#00695C"/>
<path d="M45.8125 55H50.8125V60H45.8125V55Z" fill="#00695C"/>
<path d="M50.8125 55H55.8125V60H50.8125V55Z" fill="#00695C"/>
<path d="M55.8125 55H60.8125V60H55.8125V55Z" fill="#00874B"/>
<path d="M60.8125 55H65.8125V60H60.8125V55Z" fill="#00695C"/>
<path d="M65.8125 55H70.8125V60H65.8125V55Z" fill="#00695C"/>
<path d="M70.8125 55H75.8125V60H70.8125V55Z" fill="#00695C"/>
<path d="M75.8125 55H80.8125V60H75.8125V55Z" fill="#00695C"/>
<path d="M80.8125 55H85.8125V60H80.8125V55Z" fill="#263238"/>
<path d="M85.8125 55H90.8125V60H85.8125V55Z" fill="#263238"/>
<path d="M90.8125 55H95.8125V60H90.8125V55Z" fill="#263238"/>
<path d="M95.8125 55H100.812V60H95.8125V55Z" fill="#4E342E"/>
<path d="M100.812 55H105.812V60H100.812V55Z" fill="#4E342E"/>
<path d="M105.812 55H110.812V60H105.812V55Z" fill="#263238"/>
<path d="M110.812 55H115.812V60H110.812V55Z" fill="#00695C"/>
<path d="M115.812 55H120.812V60H115.812V55Z" fill="#00874B"/>
<path d="M120.812 55H125.812V60H120.812V55Z" fill="#00874B"/>
<path d="M125.812 55H130.812V60H125.812V55Z" fill="#00874B"/>
<path d="M130.812 55H135.812V60H130.812V55Z" fill="#00874B"/>
<path d="M135.812 55H140.812V60H135.812V55Z" fill="#00874B"/>
<path d="M140.812 55H145.812V60H140.812V55Z" fill="#00874B"/>
<path d="M145.812 55H150.812V60H145.812V55Z" fill="#00874B"/>
<path d="M150.812 55H155.812V60H150.812V55Z" fill="#00695C"/>
<path d="M155.812 55H160.812V60H155.812V55Z" fill="#263238"/>
<path d="M15.8125 60H20.8125V65H15.8125V60Z" fill="#263238"/>
<path d="M20.8125 60H25.8125V65H20.8125V60Z" fill="#13B26B"/>
<path d="M25.8125 60H30.8125V65H25.8125V60Z" fill="#13B26B"/>
<path d="M30.8125 60H35.8125V65H30.8125V60Z" fill="#13B26B"/>
<path d="M35.8125 60H40.8125V65H35.8125V60Z" fill="#13B26B"/>
<path d="M40.8125 60H45.8125V65H40.8125V60Z" fill="#13B26B"/>
<path d="M45.8125 60H50.8125V65H45.8125V60Z" fill="#00695C"/>
<path d="M50.8125 60H55.8125V65H50.8125V60Z" fill="#00695C"/>
<path d="M55.8125 60H60.8125V65H55.8125V60Z" fill="#00695C"/>
<path d="M60.8125 60H65.8125V65H60.8125V60Z" fill="#00695C"/>
<path d="M65.8125 60H70.8125V65H65.8125V60Z" fill="#00695C"/>
<path d="M70.8125 60H75.8125V65H70.8125V60Z" fill="#00695C"/>
<path d="M75.8125 60H80.8125V65H75.8125V60Z" fill="#4E342E"/>
<path d="M80.8125 60H85.8125V65H80.8125V60Z" fill="#4E342E"/>
<path d="M85.8125 60H90.8125V65H85.8125V60Z" fill="#4E342E"/>
<path d="M90.8125 60H95.8125V65H90.8125V60Z" fill="#263238"/>
<path d="M95.8125 60H100.812V65H95.8125V60Z" fill="#263238"/>
<path d="M100.812 60H105.812V65H100.812V60Z" fill="#6D4C41"/>
<path d="M105.812 60H110.812V65H105.812V60Z" fill="#263238"/>
<path d="M110.812 60H115.812V65H110.812V60Z" fill="#00695C"/>
<path d="M115.812 60H120.812V65H115.812V60Z" fill="#00695C"/>
<path d="M120.812 60H125.812V65H120.812V60Z" fill="#00874B"/>
<path d="M125.812 60H130.812V65H125.812V60Z" fill="#00874B"/>
<path d="M130.812 60H135.812V65H130.812V60Z" fill="#00874B"/>
<path d="M135.812 60H140.812V65H135.812V60Z" fill="#00874B"/>
<path d="M140.812 60H145.812V65H140.812V60Z" fill="#00874B"/>
<path d="M145.812 60H150.812V65H145.812V60Z" fill="#00695C"/>
<path d="M150.812 60H155.812V65H150.812V60Z" fill="#00695C"/>
<path d="M155.812 60H160.812V65H155.812V60Z" fill="#263238"/>
<path d="M10.8125 65H15.8125V70H10.8125V65Z" fill="#263238"/>
<path d="M15.8125 65H20.8125V70H15.8125V65Z" fill="#13B26B"/>
<path d="M20.8125 65H25.8125V70H20.8125V65Z" fill="#13B26B"/>
<path d="M25.8125 65H30.8125V70H25.8125V65Z" fill="#00874B"/>
<path d="M30.8125 65H35.8125V70H30.8125V65Z" fill="#00874B"/>
<path d="M35.8125 65H40.8125V70H35.8125V65Z" fill="#00874B"/>
<path d="M40.8125 65H45.8125V70H40.8125V65Z" fill="#13B26B"/>
<path d="M45.8125 65H50.8125V70H45.8125V65Z" fill="#263238"/>
<path d="M50.8125 65H55.8125V70H50.8125V65Z" fill="#263238"/>
<path d="M55.8125 65H60.8125V70H55.8125V65Z" fill="#263238"/>
<path d="M60.8125 65H65.8125V70H60.8125V65Z" fill="#263238"/>
<path d="M65.8125 65H70.8125V70H65.8125V65Z" fill="#263238"/>
<path d="M70.8125 65H75.8125V70H70.8125V65Z" fill="#263238"/>
<path d="M75.8125 65H80.8125V70H75.8125V65Z" fill="#263238"/>
<path d="M80.8125 65H85.8125V70H80.8125V65Z" fill="#263238"/>
<path d="M85.8125 65H90.8125V70H85.8125V65Z" fill="#6D4C41"/>
<path d="M90.8125 65H95.8125V70H90.8125V65Z" fill="#6D4C41"/>
<path d="M95.8125 65H100.812V70H95.8125V65Z" fill="#6D4C41"/>
<path d="M100.812 65H105.812V70H100.812V65Z" fill="#6D4C41"/>
<path d="M105.812 65H110.812V70H105.812V65Z" fill="#263238"/>
<path d="M110.812 65H115.812V70H110.812V65Z" fill="#00695C"/>
<path d="M115.812 65H120.812V70H115.812V65Z" fill="#00695C"/>
<path d="M120.812 65H125.812V70H120.812V65Z" fill="#00874B"/>
<path d="M125.812 65H130.812V70H125.812V65Z" fill="#00695C"/>
<path d="M130.812 65H135.812V70H130.812V65Z" fill="#00695C"/>
<path d="M135.812 65H140.812V70H135.812V65Z" fill="#00695C"/>
<path d="M140.812 65H145.812V70H140.812V65Z" fill="#00695C"/>
<path d="M145.812 65H150.812V70H145.812V65Z" fill="#00695C"/>
<path d="M150.812 65H155.812V70H150.812V65Z" fill="#00695C"/>
<path d="M155.812 65H160.812V70H155.812V65Z" fill="#00695C"/>
<path d="M160.812 65H165.812V70H160.812V65Z" fill="#263238"/>
<path d="M5.8125 70H10.8125V75H5.8125V70Z" fill="#263238"/>
<path d="M10.8125 70H15.8125V75H10.8125V70Z" fill="#13B26B"/>
<path d="M15.8125 70H20.8125V75H15.8125V70Z" fill="#13B26B"/>
<path d="M20.8125 70H25.8125V75H20.8125V70Z" fill="#00874B"/>
<path d="M25.8125 70H30.8125V75H25.8125V70Z" fill="#00874B"/>
<path d="M30.8125 70H35.8125V75H30.8125V70Z" fill="#00874B"/>
<path d="M35.8125 70H40.8125V75H35.8125V70Z" fill="#00874B"/>
<path d="M40.8125 70H45.8125V75H40.8125V70Z" fill="#00874B"/>
<path d="M45.8125 70H50.8125V75H45.8125V70Z" fill="#263238"/>
<path d="M50.8125 70H55.8125V75H50.8125V70Z" fill="#263238"/>
<path d="M55.8125 70H60.8125V75H55.8125V70Z" fill="#13B26B"/>
<path d="M60.8125 70H65.8125V75H60.8125V70Z" fill="#13B26B"/>
<path d="M65.8125 70H70.8125V75H65.8125V70Z" fill="#13B26B"/>
<path d="M70.8125 70H75.8125V75H70.8125V70Z" fill="#263238"/>
<path d="M85.8125 70H90.8125V75H85.8125V70Z" fill="#263238"/>
<path d="M90.8125 70H95.8125V75H90.8125V70Z" fill="#263238"/>
<path d="M95.8125 70H100.812V75H95.8125V70Z" fill="#6D4C41"/>
<path d="M100.812 70H105.812V75H100.812V70Z" fill="#6D4C41"/>
<path d="M105.812 70H110.812V75H105.812V70Z" fill="#263238"/>
<path d="M110.812 70H115.812V75H110.812V70Z" fill="#263238"/>
<path d="M115.812 70H120.812V75H115.812V70Z" fill="#00695C"/>
<path d="M120.812 70H125.812V75H120.812V70Z" fill="#00695C"/>
<path d="M125.812 70H130.812V75H125.812V70Z" fill="#00695C"/>
<path d="M130.812 70H135.812V75H130.812V70Z" fill="#00695C"/>
<path d="M135.812 70H140.812V75H135.812V70Z" fill="#00695C"/>
<path d="M140.812 70H145.812V75H140.812V70Z" fill="#00695C"/>
<path d="M145.812 70H150.812V75H145.812V70Z" fill="#00695C"/>
<path d="M150.812 70H155.812V75H150.812V70Z" fill="#00695C"/>
<path d="M155.812 70H160.812V75H155.812V70Z" fill="#00695C"/>
<path d="M160.812 70H165.812V75H160.812V70Z" fill="#263238"/>
<path d="M0.8125 75H5.8125V80H0.8125V75Z" fill="#263238"/>
<path d="M5.8125 75H10.8125V80H5.8125V75Z" fill="#00874B"/>
<path d="M10.8125 75H15.8125V80H10.8125V75Z" fill="#00695C"/>
<path d="M15.8125 75H20.8125V80H15.8125V75Z" fill="#00874B"/>
<path d="M20.8125 75H25.8125V80H20.8125V75Z" fill="#00874B"/>
<path d="M25.8125 75H30.8125V80H25.8125V75Z" fill="#00874B"/>
<path d="M30.8125 75H35.8125V80H30.8125V75Z" fill="#00874B"/>
<path d="M35.8125 75H40.8125V80H35.8125V75Z" fill="#00874B"/>
<path d="M40.8125 75H45.8125V80H40.8125V75Z" fill="#263238"/>
<path d="M45.8125 75H50.8125V80H45.8125V75Z" fill="#263238"/>
<path d="M50.8125 75H55.8125V80H50.8125V75Z" fill="#00695C"/>
<path d="M55.8125 75H60.8125V80H55.8125V75Z" fill="#00874B"/>
<path d="M60.8125 75H65.8125V80H60.8125V75Z" fill="#00874B"/>
<path d="M65.8125 75H70.8125V80H65.8125V75Z" fill="#13B26B"/>
<path d="M70.8125 75H75.8125V80H70.8125V75Z" fill="#13B26B"/>
<path d="M75.8125 75H80.8125V80H75.8125V75Z" fill="#263238"/>
<path d="M95.8125 75H100.812V80H95.8125V75Z" fill="#263238"/>
<path d="M100.812 75H105.812V80H100.812V75Z" fill="#6D4C41"/>
<path d="M105.812 75H110.812V80H105.812V75Z" fill="#263238"/>
<path d="M110.812 75H115.812V80H110.812V75Z" fill="#4E342E"/>
<path d="M115.812 75H120.812V80H115.812V75Z" fill="#4E342E"/>
<path d="M120.812 75H125.812V80H120.812V75Z" fill="#00695C"/>
<path d="M125.812 75H130.812V80H125.812V75Z" fill="#00695C"/>
<path d="M130.812 75H135.812V80H130.812V75Z" fill="#00695C"/>
<path d="M135.812 75H140.812V80H135.812V75Z" fill="#00695C"/>
<path d="M140.812 75H145.812V80H140.812V75Z" fill="#00695C"/>
<path d="M145.812 75H150.812V80H145.812V75Z" fill="#00695C"/>
<path d="M150.812 75H155.812V80H150.812V75Z" fill="#00695C"/>
<path d="M155.812 75H160.812V80H155.812V75Z" fill="#263238"/>
<path d="M0.8125 80H5.8125V85H0.8125V80Z" fill="#263238"/>
<path d="M5.8125 80H10.8125V85H5.8125V80Z" fill="#00695C"/>
<path d="M10.8125 80H15.8125V85H10.8125V80Z" fill="#00874B"/>
<path d="M15.8125 80H20.8125V85H15.8125V80Z" fill="#00874B"/>
<path d="M20.8125 80H25.8125V85H20.8125V80Z" fill="#00874B"/>
<path d="M25.8125 80H30.8125V85H25.8125V80Z" fill="#00874B"/>
<path d="M30.8125 80H35.8125V85H30.8125V80Z" fill="#00874B"/>
<path d="M35.8125 80H40.8125V85H35.8125V80Z" fill="#00874B"/>
<path d="M40.8125 80H45.8125V85H40.8125V80Z" fill="#263238"/>
<path d="M45.8125 80H50.8125V85H45.8125V80Z" fill="#263238"/>
<path d="M50.8125 80H55.8125V85H50.8125V80Z" fill="#00695C"/>
<path d="M55.8125 80H60.8125V85H55.8125V80Z" fill="#00695C"/>
<path d="M60.8125 80H65.8125V85H60.8125V80Z" fill="#00874B"/>
<path d="M65.8125 80H70.8125V85H65.8125V80Z" fill="#00874B"/>
<path d="M70.8125 80H75.8125V85H70.8125V80Z" fill="#00874B"/>
<path d="M75.8125 80H80.8125V85H75.8125V80Z" fill="#13B26B"/>
<path d="M80.8125 80H85.8125V85H80.8125V80Z" fill="#263238"/>
<path d="M95.8125 80H100.812V85H95.8125V80Z" fill="#263238"/>
<path d="M100.812 80H105.812V85H100.812V80Z" fill="#6D4C41"/>
<path d="M105.812 80H110.812V85H105.812V80Z" fill="#6D4C41"/>
<path d="M110.812 80H115.812V85H110.812V80Z" fill="#6D4C41"/>
<path d="M115.812 80H120.812V85H115.812V80Z" fill="#263238"/>
<path d="M120.812 80H125.812V85H120.812V80Z" fill="#263238"/>
<path d="M125.812 80H130.812V85H125.812V80Z" fill="#13B26B"/>
<path d="M130.812 80H135.812V85H130.812V80Z" fill="#13B26B"/>
<path d="M135.812 80H140.812V85H135.812V80Z" fill="#13B26B"/>
<path d="M140.812 80H145.812V85H140.812V80Z" fill="#13B26B"/>
<path d="M145.812 80H150.812V85H145.812V80Z" fill="#13B26B"/>
<path d="M150.812 80H155.812V85H150.812V80Z" fill="#263238"/>
<path d="M155.812 80H160.812V85H155.812V80Z" fill="#263238"/>
<path d="M0.8125 85H5.8125V90H0.8125V85Z" fill="#263238"/>
<path d="M5.8125 85H10.8125V90H5.8125V85Z" fill="#00695C"/>
<path d="M10.8125 85H15.8125V90H10.8125V85Z" fill="#00695C"/>
<path d="M15.8125 85H20.8125V90H15.8125V85Z" fill="#00695C"/>
<path d="M20.8125 85H25.8125V90H20.8125V85Z" fill="#00874B"/>
<path d="M25.8125 85H30.8125V90H25.8125V85Z" fill="#00874B"/>
<path d="M30.8125 85H35.8125V90H30.8125V85Z" fill="#00874B"/>
<path d="M35.8125 85H40.8125V90H35.8125V85Z" fill="#00874B"/>
<path d="M40.8125 85H45.8125V90H40.8125V85Z" fill="#00695C"/>
<path d="M45.8125 85H50.8125V90H45.8125V85Z" fill="#263238"/>
<path d="M50.8125 85H55.8125V90H50.8125V85Z" fill="#00695C"/>
<path d="M55.8125 85H60.8125V90H55.8125V85Z" fill="#00695C"/>
<path d="M60.8125 85H65.8125V90H60.8125V85Z" fill="#00695C"/>
<path d="M65.8125 85H70.8125V90H65.8125V85Z" fill="#00695C"/>
<path d="M70.8125 85H75.8125V90H70.8125V85Z" fill="#00695C"/>
<path d="M75.8125 85H80.8125V90H75.8125V85Z" fill="#00695C"/>
<path d="M80.8125 85H85.8125V90H80.8125V85Z" fill="#263238"/>
<path d="M90.8125 85H95.8125V90H90.8125V85Z" fill="#263238"/>
<path d="M95.8125 85H100.812V90H95.8125V85Z" fill="#8D6E63"/>
<path d="M100.812 85H105.812V90H100.812V85Z" fill="#6D4C41"/>
<path d="M105.812 85H110.812V90H105.812V85Z" fill="#6D4C41"/>
<path d="M110.812 85H115.812V90H110.812V85Z" fill="#263238"/>
<path d="M115.812 85H120.812V90H115.812V85Z" fill="#263238"/>
<path d="M120.812 85H125.812V90H120.812V85Z" fill="#13B26B"/>
<path d="M125.812 85H130.812V90H125.812V85Z" fill="#13B26B"/>
<path d="M130.812 85H135.812V90H130.812V85Z" fill="#13B26B"/>
<path d="M135.812 85H140.812V90H135.812V85Z" fill="#13B26B"/>
<path d="M140.812 85H145.812V90H140.812V85Z" fill="#00874B"/>
<path d="M145.812 85H150.812V90H145.812V85Z" fill="#13B26B"/>
<path d="M150.812 85H155.812V90H150.812V85Z" fill="#13B26B"/>
<path d="M155.812 85H160.812V90H155.812V85Z" fill="#13B26B"/>
<path d="M160.812 85H165.812V90H160.812V85Z" fill="#263238"/>
<path d="M0.8125 90H5.8125V95H0.8125V90Z" fill="#263238"/>
<path d="M5.8125 90H10.8125V95H5.8125V90Z" fill="#00695C"/>
<path d="M10.8125 90H15.8125V95H10.8125V90Z" fill="#00695C"/>
<path d="M15.8125 90H20.8125V95H15.8125V90Z" fill="#00695C"/>
<path d="M20.8125 90H25.8125V95H20.8125V90Z" fill="#00695C"/>
<path d="M25.8125 90H30.8125V95H25.8125V90Z" fill="#00874B"/>
<path d="M30.8125 90H35.8125V95H30.8125V90Z" fill="#00874B"/>
<path d="M35.8125 90H40.8125V95H35.8125V90Z" fill="#00874B"/>
<path d="M40.8125 90H45.8125V95H40.8125V90Z" fill="#00695C"/>
<path d="M45.8125 90H50.8125V95H45.8125V90Z" fill="#263238"/>
<path d="M50.8125 90H55.8125V95H50.8125V90Z" fill="#00695C"/>
<path d="M55.8125 90H60.8125V95H55.8125V90Z" fill="#00695C"/>
<path d="M60.8125 90H65.8125V95H60.8125V90Z" fill="#00695C"/>
<path d="M65.8125 90H70.8125V95H65.8125V90Z" fill="#00695C"/>
<path d="M70.8125 90H75.8125V95H70.8125V90Z" fill="#00695C"/>
<path d="M75.8125 90H80.8125V95H75.8125V90Z" fill="#263238"/>
<path d="M90.8125 90H95.8125V95H90.8125V90Z" fill="#263238"/>
<path d="M95.8125 90H100.812V95H95.8125V90Z" fill="#6D4C41"/>
<path d="M100.812 90H105.812V95H100.812V90Z" fill="#6D4C41"/>
<path d="M105.812 90H110.812V95H105.812V90Z" fill="#263238"/>
<path d="M110.812 90H115.812V95H110.812V90Z" fill="#263238"/>
<path d="M115.812 90H120.812V95H115.812V90Z" fill="#13B26B"/>
<path d="M120.812 90H125.812V95H120.812V90Z" fill="#13B26B"/>
<path d="M125.812 90H130.812V95H125.812V90Z" fill="#00874B"/>
<path d="M130.812 90H135.812V95H130.812V90Z" fill="#00874B"/>
<path d="M135.812 90H140.812V95H135.812V90Z" fill="#13B26B"/>
<path d="M140.812 90H145.812V95H140.812V90Z" fill="#00874B"/>
<path d="M145.812 90H150.812V95H145.812V90Z" fill="#00874B"/>
<path d="M150.812 90H155.812V95H150.812V90Z" fill="#00874B"/>
<path d="M155.812 90H160.812V95H155.812V90Z" fill="#13B26B"/>
<path d="M160.812 90H165.812V95H160.812V90Z" fill="#13B26B"/>
<path d="M165.812 90H170.812V95H165.812V90Z" fill="#263238"/>
<path d="M5.8125 95H10.8125V100H5.8125V95Z" fill="#263238"/>
<path d="M10.8125 95H15.8125V100H10.8125V95Z" fill="#00695C"/>
<path d="M15.8125 95H20.8125V100H15.8125V95Z" fill="#00695C"/>
<path d="M20.8125 95H25.8125V100H20.8125V95Z" fill="#00695C"/>
<path d="M25.8125 95H30.8125V100H25.8125V95Z" fill="#00695C"/>
<path d="M30.8125 95H35.8125V100H30.8125V95Z" fill="#00695C"/>
<path d="M35.8125 95H40.8125V100H35.8125V95Z" fill="#00695C"/>
<path d="M40.8125 95H45.8125V100H40.8125V95Z" fill="#00695C"/>
<path d="M45.8125 95H50.8125V100H45.8125V95Z" fill="#263238"/>
<path d="M50.8125 95H55.8125V100H50.8125V95Z" fill="#263238"/>
<path d="M55.8125 95H60.8125V100H55.8125V95Z" fill="#263238"/>
<path d="M60.8125 95H65.8125V100H60.8125V95Z" fill="#263238"/>
<path d="M65.8125 95H70.8125V100H65.8125V95Z" fill="#4E342E"/>
<path d="M70.8125 95H75.8125V100H70.8125V95Z" fill="#263238"/>
<path d="M90.8125 95H95.8125V100H90.8125V95Z" fill="#263238"/>
<path d="M95.8125 95H100.812V100H95.8125V95Z" fill="#6D4C41"/>
<path d="M100.812 95H105.812V100H100.812V95Z" fill="#263238"/>
<path d="M110.812 95H115.812V100H110.812V95Z" fill="#263238"/>
<path d="M115.812 95H120.812V100H115.812V95Z" fill="#13B26B"/>
<path d="M120.812 95H125.812V100H120.812V95Z" fill="#00874B"/>
<path d="M125.812 95H130.812V100H125.812V95Z" fill="#00874B"/>
<path d="M130.812 95H135.812V100H130.812V95Z" fill="#00874B"/>
<path d="M135.812 95H140.812V100H135.812V95Z" fill="#00874B"/>
<path d="M140.812 95H145.812V100H140.812V95Z" fill="#00874B"/>
<path d="M145.812 95H150.812V100H145.812V95Z" fill="#00874B"/>
<path d="M150.812 95H155.812V100H150.812V95Z" fill="#00874B"/>
<path d="M155.812 95H160.812V100H155.812V95Z" fill="#00874B"/>
<path d="M160.812 95H165.812V100H160.812V95Z" fill="#00695C"/>
<path d="M165.812 95H170.812V100H165.812V95Z" fill="#13B26B"/>
<path d="M170.812 95H175.812V100H170.812V95Z" fill="#263238"/>
<path d="M5.8125 100H10.8125V105H5.8125V100Z" fill="#263238"/>
<path d="M10.8125 100H15.8125V105H10.8125V100Z" fill="#00695C"/>
<path d="M15.8125 100H20.8125V105H15.8125V100Z" fill="#00695C"/>
<path d="M20.8125 100H25.8125V105H20.8125V100Z" fill="#00695C"/>
<path d="M25.8125 100H30.8125V105H25.8125V100Z" fill="#00695C"/>
<path d="M30.8125 100H35.8125V105H30.8125V100Z" fill="#00695C"/>
<path d="M35.8125 100H40.8125V105H35.8125V100Z" fill="#00695C"/>
<path d="M40.8125 100H45.8125V105H40.8125V100Z" fill="#00695C"/>
<path d="M45.8125 100H50.8125V105H45.8125V100Z" fill="#4E342E"/>
<path d="M50.8125 100H55.8125V105H50.8125V100Z" fill="#4E342E"/>
<path d="M55.8125 100H60.8125V105H55.8125V100Z" fill="#263238"/>
<path d="M60.8125 100H65.8125V105H60.8125V100Z" fill="#263238"/>
<path d="M65.8125 100H70.8125V105H65.8125V100Z" fill="#6D4C41"/>
<path d="M70.8125 100H75.8125V105H70.8125V100Z" fill="#263238"/>
<path d="M85.8125 100H90.8125V105H85.8125V100Z" fill="#263238"/>
<path d="M90.8125 100H95.8125V105H90.8125V100Z" fill="#6D4C41"/>
<path d="M95.8125 100H100.812V105H95.8125V100Z" fill="#6D4C41"/>
<path d="M100.812 100H105.812V105H100.812V100Z" fill="#263238"/>
<path d="M110.812 100H115.812V105H110.812V100Z" fill="#263238"/>
<path d="M115.812 100H120.812V105H115.812V100Z" fill="#00695C"/>
<path d="M120.812 100H125.812V105H120.812V100Z" fill="#00695C"/>
<path d="M125.812 100H130.812V105H125.812V100Z" fill="#00874B"/>
<path d="M130.812 100H135.812V105H130.812V100Z" fill="#00874B"/>
<path d="M135.812 100H140.812V105H135.812V100Z" fill="#00874B"/>
<path d="M140.812 100H145.812V105H140.812V100Z" fill="#00874B"/>
<path d="M145.812 100H150.812V105H145.812V100Z" fill="#00874B"/>
<path d="M150.812 100H155.812V105H150.812V100Z" fill="#00874B"/>
<path d="M155.812 100H160.812V105H155.812V100Z" fill="#00695C"/>
<path d="M160.812 100H165.812V105H160.812V100Z" fill="#00695C"/>
<path d="M165.812 100H170.812V105H165.812V100Z" fill="#00695C"/>
<path d="M170.812 100H175.812V105H170.812V100Z" fill="#263238"/>
<path d="M10.8125 105H15.8125V110H10.8125V105Z" fill="#263238"/>
<path d="M15.8125 105H20.8125V110H15.8125V105Z" fill="#00695C"/>
<path d="M20.8125 105H25.8125V110H20.8125V105Z" fill="#00695C"/>
<path d="M25.8125 105H30.8125V110H25.8125V105Z" fill="#00695C"/>
<path d="M30.8125 105H35.8125V110H30.8125V105Z" fill="#00695C"/>
<path d="M35.8125 105H40.8125V110H35.8125V105Z" fill="#00695C"/>
<path d="M40.8125 105H45.8125V110H40.8125V105Z" fill="#263238"/>
<path d="M45.8125 105H50.8125V110H45.8125V105Z" fill="#263238"/>
<path d="M50.8125 105H55.8125V110H50.8125V105Z" fill="#6D4C41"/>
<path d="M55.8125 105H60.8125V110H55.8125V105Z" fill="#6D4C41"/>
<path d="M60.8125 105H65.8125V110H60.8125V105Z" fill="#6D4C41"/>
<path d="M65.8125 105H70.8125V110H65.8125V105Z" fill="#8D6E63"/>
<path d="M70.8125 105H75.8125V110H70.8125V105Z" fill="#8D6E63"/>
<path d="M75.8125 105H80.8125V110H75.8125V105Z" fill="#263238"/>
<path d="M85.8125 105H90.8125V110H85.8125V105Z" fill="#263238"/>
<path d="M90.8125 105H95.8125V110H90.8125V105Z" fill="#6D4C41"/>
<path d="M95.8125 105H100.812V110H95.8125V105Z" fill="#263238"/>
<path d="M105.812 105H110.812V110H105.812V105Z" fill="#263238"/>
<path d="M110.812 105H115.812V110H110.812V105Z" fill="#00695C"/>
<path d="M115.812 105H120.812V110H115.812V105Z" fill="#00695C"/>
<path d="M120.812 105H125.812V110H120.812V105Z" fill="#00695C"/>
<path d="M125.812 105H130.812V110H125.812V105Z" fill="#00695C"/>
<path d="M130.812 105H135.812V110H130.812V105Z" fill="#00874B"/>
<path d="M135.812 105H140.812V110H135.812V105Z" fill="#00874B"/>
<path d="M140.812 105H145.812V110H140.812V105Z" fill="#00874B"/>
<path d="M145.812 105H150.812V110H145.812V105Z" fill="#00695C"/>
<path d="M150.812 105H155.812V110H150.812V105Z" fill="#00695C"/>
<path d="M155.812 105H160.812V110H155.812V105Z" fill="#00695C"/>
<path d="M160.812 105H165.812V110H160.812V105Z" fill="#00695C"/>
<path d="M165.812 105H170.812V110H165.812V105Z" fill="#00695C"/>
<path d="M170.812 105H175.812V110H170.812V105Z" fill="#263238"/>
<path d="M15.8125 110H20.8125V115H15.8125V110Z" fill="#263238"/>
<path d="M20.8125 110H25.8125V115H20.8125V110Z" fill="#263238"/>
<path d="M25.8125 110H30.8125V115H25.8125V110Z" fill="#263238"/>
<path d="M30.8125 110H35.8125V115H30.8125V110Z" fill="#263238"/>
<path d="M35.8125 110H40.8125V115H35.8125V110Z" fill="#263238"/>
<path d="M50.8125 110H55.8125V115H50.8125V110Z" fill="#263238"/>
<path d="M55.8125 110H60.8125V115H55.8125V110Z" fill="#263238"/>
<path d="M60.8125 110H65.8125V115H60.8125V110Z" fill="#6D4C41"/>
<path d="M65.8125 110H70.8125V115H65.8125V110Z" fill="#6D4C41"/>
<path d="M70.8125 110H75.8125V115H70.8125V110Z" fill="#6D4C41"/>
<path d="M75.8125 110H80.8125V115H75.8125V110Z" fill="#263238"/>
<path d="M85.8125 110H90.8125V115H85.8125V110Z" fill="#263238"/>
<path d="M90.8125 110H95.8125V115H90.8125V110Z" fill="#6D4C41"/>
<path d="M95.8125 110H100.812V115H95.8125V110Z" fill="#263238"/>
<path d="M105.812 110H110.812V115H105.812V110Z" fill="#263238"/>
<path d="M110.812 110H115.812V115H110.812V110Z" fill="#00695C"/>
<path d="M115.812 110H120.812V115H115.812V110Z" fill="#00695C"/>
<path d="M120.812 110H125.812V115H120.812V110Z" fill="#00695C"/>
<path d="M125.812 110H130.812V115H125.812V110Z" fill="#00695C"/>
<path d="M130.812 110H135.812V115H130.812V110Z" fill="#00695C"/>
<path d="M135.812 110H140.812V115H135.812V110Z" fill="#00695C"/>
<path d="M140.812 110H145.812V115H140.812V110Z" fill="#00695C"/>
<path d="M145.812 110H150.812V115H145.812V110Z" fill="#00695C"/>
<path d="M150.812 110H155.812V115H150.812V110Z" fill="#00695C"/>
<path d="M155.812 110H160.812V115H155.812V110Z" fill="#00695C"/>
<path d="M160.812 110H165.812V115H160.812V110Z" fill="#00695C"/>
<path d="M165.812 110H170.812V115H165.812V110Z" fill="#263238"/>
<path d="M60.8125 115H65.8125V120H60.8125V115Z" fill="#263238"/>
<path d="M65.8125 115H70.8125V120H65.8125V115Z" fill="#263238"/>
<path d="M70.8125 115H75.8125V120H70.8125V115Z" fill="#6D4C41"/>
<path d="M75.8125 115H80.8125V120H75.8125V115Z" fill="#6D4C41"/>
<path d="M80.8125 115H85.8125V120H80.8125V115Z" fill="#263238"/>
<path d="M85.8125 115H90.8125V120H85.8125V115Z" fill="#6D4C41"/>
<path d="M90.8125 115H95.8125V120H90.8125V115Z" fill="#6D4C41"/>
<path d="M95.8125 115H100.812V120H95.8125V115Z" fill="#263238"/>
<path d="M110.812 115H115.812V120H110.812V115Z" fill="#263238"/>
<path d="M115.812 115H120.812V120H115.812V115Z" fill="#00695C"/>
<path d="M120.812 115H125.812V120H120.812V115Z" fill="#00695C"/>
<path d="M125.812 115H130.812V120H125.812V115Z" fill="#00695C"/>
<path d="M130.812 115H135.812V120H130.812V115Z" fill="#00695C"/>
<path d="M135.812 115H140.812V120H135.812V115Z" fill="#00695C"/>
<path d="M140.812 115H145.812V120H140.812V115Z" fill="#00695C"/>
<path d="M145.812 115H150.812V120H145.812V115Z" fill="#00695C"/>
<path d="M150.812 115H155.812V120H150.812V115Z" fill="#263238"/>
<path d="M155.812 115H160.812V120H155.812V115Z" fill="#263238"/>
<path d="M160.812 115H165.812V120H160.812V115Z" fill="#263238"/>
<path d="M70.8125 120H75.8125V125H70.8125V120Z" fill="#263238"/>
<path d="M75.8125 120H80.8125V125H75.8125V120Z" fill="#263238"/>
<path d="M80.8125 120H85.8125V125H80.8125V120Z" fill="#6D4C41"/>
<path d="M85.8125 120H90.8125V125H85.8125V120Z" fill="#6D4C41"/>
<path d="M90.8125 120H95.8125V125H90.8125V120Z" fill="#263238"/>
<path d="M115.812 120H120.812V125H115.812V120Z" fill="#263238"/>
<path d="M120.812 120H125.812V125H120.812V120Z" fill="#00695C"/>
<path d="M125.812 120H130.812V125H125.812V120Z" fill="#00695C"/>
<path d="M130.812 120H135.812V125H130.812V120Z" fill="#00695C"/>
<path d="M135.812 120H140.812V125H135.812V120Z" fill="#00695C"/>
<path d="M140.812 120H145.812V125H140.812V120Z" fill="#00695C"/>
<path d="M145.812 120H150.812V125H145.812V120Z" fill="#263238"/>
<path d="M75.8125 125H80.8125V130H75.8125V125Z" fill="#263238"/>
<path d="M80.8125 125H85.8125V130H80.8125V125Z" fill="#8D6E63"/>
<path d="M85.8125 125H90.8125V130H85.8125V125Z" fill="#6D4C41"/>
<path d="M90.8125 125H95.8125V130H90.8125V125Z" fill="#263238"/>
<path d="M115.812 125H120.812V130H115.812V125Z" fill="#263238"/>
<path d="M120.812 125H125.812V130H120.812V125Z" fill="#4E342E"/>
<path d="M125.812 125H130.812V130H125.812V125Z" fill="#4E342E"/>
<path d="M130.812 125H135.812V130H130.812V125Z" fill="#263238"/>
<path d="M135.812 125H140.812V130H135.812V125Z" fill="#263238"/>
<path d="M140.812 125H145.812V130H140.812V125Z" fill="#263238"/>
<path d="M75.8125 130H80.8125V135H75.8125V130Z" fill="#263238"/>
<path d="M80.8125 130H85.8125V135H80.8125V130Z" fill="#795548"/>
<path d="M85.8125 130H90.8125V135H85.8125V130Z" fill="#6D4C41"/>
<path d="M90.8125 130H95.8125V135H90.8125V130Z" fill="#263238"/>
<path d="M105.812 130H110.812V135H105.812V130Z" fill="#263238"/>
<path d="M110.812 130H115.812V135H110.812V130Z" fill="#263238"/>
<path d="M115.812 130H120.812V135H115.812V130Z" fill="#6D4C41"/>
<path d="M120.812 130H125.812V135H120.812V130Z" fill="#4E342E"/>
<path d="M125.812 130H130.812V135H125.812V130Z" fill="#263238"/>
<path d="M75.8125 135H80.8125V140H75.8125V135Z" fill="#263238"/>
<path d="M80.8125 135H85.8125V140H80.8125V135Z" fill="#6D4C41"/>
<path d="M85.8125 135H90.8125V140H85.8125V135Z" fill="#6D4C41"/>
<path d="M90.8125 135H95.8125V140H90.8125V135Z" fill="#263238"/>
<path d="M100.812 135H105.812V140H100.812V135Z" fill="#263238"/>
<path d="M105.812 135H110.812V140H105.812V135Z" fill="#6D4C41"/>
<path d="M110.812 135H115.812V140H110.812V135Z" fill="#6D4C41"/>
<path d="M115.812 135H120.812V140H115.812V135Z" fill="#6D4C41"/>
<path d="M120.812 135H125.812V140H120.812V135Z" fill="#263238"/>
<path d="M80.8125 140H85.8125V145H80.8125V140Z" fill="#263238"/>
<path d="M85.8125 140H90.8125V145H85.8125V140Z" fill="#8D6E63"/>
<path d="M90.8125 140H95.8125V145H90.8125V140Z" fill="#6D4C41"/>
<path d="M95.8125 140H100.812V145H95.8125V140Z" fill="#263238"/>
<path d="M100.812 140H105.812V145H100.812V140Z" fill="#6D4C41"/>
<path d="M105.812 140H110.812V145H105.812V140Z" fill="#6D4C41"/>
<path d="M110.812 140H115.812V145H110.812V140Z" fill="#263238"/>
<path d="M115.812 140H120.812V145H115.812V140Z" fill="#263238"/>
<path d="M80.8125 145H85.8125V150H80.8125V145Z" fill="#263238"/>
<path d="M85.8125 145H90.8125V150H85.8125V145Z" fill="#795548"/>
<path d="M90.8125 145H95.8125V150H90.8125V145Z" fill="#6D4C41"/>
<path d="M95.8125 145H100.812V150H95.8125V145Z" fill="#263238"/>
<path d="M100.812 145H105.812V150H100.812V145Z" fill="#6D4C41"/>
<path d="M105.812 145H110.812V150H105.812V145Z" fill="#263238"/>
<path d="M85.8125 150H90.8125V155H85.8125V150Z" fill="#263238"/>
<path d="M90.8125 150H95.8125V155H90.8125V150Z" fill="#6D4C41"/>
<path d="M95.8125 150H100.812V155H95.8125V150Z" fill="#6D4C41"/>
<path d="M100.812 150H105.812V155H100.812V150Z" fill="#6D4C41"/>
<path d="M105.812 150H110.812V155H105.812V150Z" fill="#263238"/>
<path d="M85.8125 155H90.8125V160H85.8125V155Z" fill="#263238"/>
<path d="M90.8125 155H95.8125V160H90.8125V155Z" fill="#6D4C41"/>
<path d="M95.8125 155H100.812V160H95.8125V155Z" fill="#6D4C41"/>
<path d="M100.812 155H105.812V160H100.812V155Z" fill="#6D4C41"/>
<path d="M105.812 155H110.812V160H105.812V155Z" fill="#263238"/>
<path d="M65.8125 160H70.8125V165H65.8125V160Z" fill="#263238"/>
<path d="M90.8125 160H95.8125V165H90.8125V160Z" fill="#263238"/>
<path d="M95.8125 160H100.812V165H95.8125V160Z" fill="#8D6E63"/>
<path d="M100.812 160H105.812V165H100.812V160Z" fill="#6D4C41"/>
<path d="M105.812 160H110.812V165H105.812V160Z" fill="#263238"/>
<path d="M60.8125 165H65.8125V170H60.8125V165Z" fill="#263238"/>
<path d="M65.8125 165H70.8125V170H65.8125V165Z" fill="#13B26B"/>
<path d="M70.8125 165H75.8125V170H70.8125V165Z" fill="#263238"/>
<path d="M90.8125 165H95.8125V170H90.8125V165Z" fill="#263238"/>
<path d="M95.8125 165H100.812V170H95.8125V165Z" fill="#795548"/>
<path d="M100.812 165H105.812V170H100.812V165Z" fill="#6D4C41"/>
<path d="M105.812 165H110.812V170H105.812V165Z" fill="#263238"/>
<path d="M65.8125 170H70.8125V175H65.8125V170Z" fill="#263238"/>
<path d="M70.8125 170H75.8125V175H70.8125V170Z" fill="#00874B"/>
<path d="M75.8125 170H80.8125V175H75.8125V170Z" fill="#263238"/>
<path d="M85.8125 170H90.8125V175H85.8125V170Z" fill="#263238"/>
<path d="M90.8125 170H95.8125V175H90.8125V170Z" fill="#263238"/>
<path d="M95.8125 170H100.812V175H95.8125V170Z" fill="#6D4C41"/>
<path d="M100.812 170H105.812V175H100.812V170Z" fill="#6D4C41"/>
<path d="M105.812 170H110.812V175H105.812V170Z" fill="#263238"/>
<path d="M135.812 170H140.812V175H135.812V170Z" fill="#263238"/>
<path d="M65.8125 175H70.8125V180H65.8125V175Z" fill="#263238"/>
<path d="M70.8125 175H75.8125V180H70.8125V175Z" fill="#00874B"/>
<path d="M75.8125 175H80.8125V180H75.8125V175Z" fill="#263238"/>
<path d="M80.8125 175H85.8125V180H80.8125V175Z" fill="#263238"/>
<path d="M85.8125 175H90.8125V180H85.8125V175Z" fill="#13B26B"/>
<path d="M90.8125 175H95.8125V180H90.8125V175Z" fill="#263238"/>
<path d="M95.8125 175H100.812V180H95.8125V175Z" fill="#6D4C41"/>
<path d="M100.812 175H105.812V180H100.812V175Z" fill="#6D4C41"/>
<path d="M105.812 175H110.812V180H105.812V175Z" fill="#6D4C41"/>
<path d="M110.812 175H115.812V180H110.812V175Z" fill="#263238"/>
<path d="M130.812 175H135.812V180H130.812V175Z" fill="#263238"/>
<path d="M135.812 175H140.812V180H135.812V175Z" fill="#13B26B"/>
<path d="M140.812 175H145.812V180H140.812V175Z" fill="#263238"/>
<path d="M70.8125 180H75.8125V185H70.8125V180Z" fill="#263238"/>
<path d="M75.8125 180H80.8125V185H75.8125V180Z" fill="#00874B"/>
<path d="M80.8125 180H85.8125V185H80.8125V180Z" fill="#263238"/>
<path d="M85.8125 180H90.8125V185H85.8125V180Z" fill="#00874B"/>
<path d="M90.8125 180H95.8125V185H90.8125V180Z" fill="#263238"/>
<path d="M95.8125 180H100.812V185H95.8125V180Z" fill="#6D4C41"/>
<path d="M100.812 180H105.812V185H100.812V180Z" fill="#6D4C41"/>
<path d="M105.812 180H110.812V185H105.812V180Z" fill="#6D4C41"/>
<path d="M110.812 180H115.812V185H110.812V180Z" fill="#263238"/>
<path d="M125.812 180H130.812V185H125.812V180Z" fill="#263238"/>
<path d="M130.812 180H135.812V185H130.812V180Z" fill="#00874B"/>
<path d="M135.812 180H140.812V185H135.812V180Z" fill="#263238"/>
<path d="M60.8125 185H65.8125V190H60.8125V185Z" fill="#263238"/>
<path d="M65.8125 185H70.8125V190H65.8125V185Z" fill="#263238"/>
<path d="M70.8125 185H75.8125V190H70.8125V185Z" fill="#263238"/>
<path d="M75.8125 185H80.8125V190H75.8125V185Z" fill="#00874B"/>
<path d="M80.8125 185H85.8125V190H80.8125V185Z" fill="#00874B"/>
<path d="M85.8125 185H90.8125V190H85.8125V185Z" fill="#263238"/>
<path d="M90.8125 185H95.8125V190H90.8125V185Z" fill="#263238"/>
<path d="M95.8125 185H100.812V190H95.8125V185Z" fill="#6D4C41"/>
<path d="M100.812 185H105.812V190H100.812V185Z" fill="#6D4C41"/>
<path d="M105.812 185H110.812V190H105.812V185Z" fill="#6D4C41"/>
<path d="M110.812 185H115.812V190H110.812V185Z" fill="#263238"/>
<path d="M115.812 185H120.812V190H115.812V185Z" fill="#263238"/>
<path d="M120.812 185H125.812V190H120.812V185Z" fill="#263238"/>
<path d="M125.812 185H130.812V190H125.812V185Z" fill="#263238"/>
<path d="M130.812 185H135.812V190H130.812V185Z" fill="#00874B"/>
<path d="M135.812 185H140.812V190H135.812V185Z" fill="#263238"/>
<path d="M140.812 185H145.812V190H140.812V185Z" fill="#263238"/>
<path d="M145.812 185H150.812V190H145.812V185Z" fill="#263238"/>
<path d="M55.8125 190H60.8125V195H55.8125V190Z" fill="#263238"/>
<path d="M60.8125 190H65.8125V195H60.8125V190Z" fill="#00874B"/>
<path d="M65.8125 190H70.8125V195H65.8125V190Z" fill="#00874B"/>
<path d="M70.8125 190H75.8125V195H70.8125V190Z" fill="#00874B"/>
<path d="M75.8125 190H80.8125V195H75.8125V190Z" fill="#00874B"/>
<path d="M80.8125 190H85.8125V195H80.8125V190Z" fill="#00695C"/>
<path d="M85.8125 190H90.8125V195H85.8125V190Z" fill="#00695C"/>
<path d="M90.8125 190H95.8125V195H90.8125V190Z" fill="#00695C"/>
<path d="M95.8125 190H100.812V195H95.8125V190Z" fill="#00695C"/>
<path d="M100.812 190H105.812V195H100.812V190Z" fill="#00695C"/>
<path d="M105.812 190H110.812V195H105.812V190Z" fill="#00695C"/>
<path d="M110.812 190H115.812V195H110.812V190Z" fill="#00695C"/>
<path d="M115.812 190H120.812V195H115.812V190Z" fill="#00695C"/>
<path d="M120.812 190H125.812V195H120.812V190Z" fill="#00695C"/>
<path d="M125.812 190H130.812V195H125.812V190Z" fill="#00695C"/>
<path d="M130.812 190H135.812V195H130.812V190Z" fill="#00874B"/>
<path d="M135.812 190H140.812V195H135.812V190Z" fill="#00874B"/>
<path d="M140.812 190H145.812V195H140.812V190Z" fill="#00874B"/>
<path d="M145.812 190H150.812V195H145.812V190Z" fill="#00874B"/>
<path d="M150.812 190H155.812V195H150.812V190Z" fill="#263238"/>
<path d="M60.8125 195H65.8125V200H60.8125V195Z" fill="#263238"/>
<path d="M65.8125 195H70.8125V200H65.8125V195Z" fill="#263238"/>
<path d="M70.8125 195H75.8125V200H70.8125V195Z" fill="#263238"/>
<path d="M75.8125 195H80.8125V200H75.8125V195Z" fill="#263238"/>
<path d="M80.8125 195H85.8125V200H80.8125V195Z" fill="#263238"/>
<path d="M85.8125 195H90.8125V200H85.8125V195Z" fill="#263238"/>
<path d="M90.8125 195H95.8125V200H90.8125V195Z" fill="#263238"/>
<path d="M95.8125 195H100.812V200H95.8125V195Z" fill="#263238"/>
<path d="M100.812 195H105.812V200H100.812V195Z" fill="#263238"/>
<path d="M105.812 195H110.812V200H105.812V195Z" fill="#263238"/>
<path d="M110.812 195H115.812V200H110.812V195Z" fill="#263238"/>
<path d="M115.812 195H120.812V200H115.812V195Z" fill="#263238"/>
<path d="M120.812 195H125.812V200H120.812V195Z" fill="#263238"/>
<path d="M125.812 195H130.812V200H125.812V195Z" fill="#263238"/>
<path d="M130.812 195H135.812V200H130.812V195Z" fill="#263238"/>
<path d="M135.812 195H140.812V200H135.812V195Z" fill="#263238"/>
<path d="M140.812 195H145.812V200H140.812V195Z" fill="#263238"/>
<path d="M145.812 195H150.812V200H145.812V195Z" fill="#263238"/>
</svg>
