<svg width="84" height="140" viewBox="0 0 84 140" fill="none" xmlns="http://www.w3.org/2000/svg">
<path d="M70 0H84V14H70V0Z" fill="#00874B"/>
<path d="M56 14H70V28H56V14Z" fill="#00874B"/>
<path d="M56 28H70V42H56V28Z" fill="#00874B"/>
<path d="M56 42H70V56H56V42Z" fill="#00874B"/>
<path d="M42 56H56V70H42V56Z" fill="#00874B"/>
<path d="M0 70H14V84H0V70Z" fill="#00874B"/>
<path d="M42 70H56V84H42V70Z" fill="#00874B"/>
<path d="M0 84H14V98H0V84Z" fill="#00874B"/>
<path d="M14 84H28V98H14V84Z" fill="#00874B"/>
<path d="M42 84H56V98H42V84Z" fill="#00695C"/>
<path d="M14 98H28V112H14V98Z" fill="#00874B"/>
<path d="M42 98H56V112H42V98Z" fill="#00695C"/>
<path d="M14 112H28V126H14V112Z" fill="#00695C"/>
<path d="M28 112H42V126H28V112Z" fill="#00695C"/>
<path d="M42 112H56V126H42V112Z" fill="#00695C"/>
<path d="M0 126H14V140H0V126Z" fill="#263238"/>
<path d="M14 126H28V140H14V126Z" fill="#263238"/>
<path d="M28 126H42V140H28V126Z" fill="#263238"/>
<path d="M42 126H56V140H42V126Z" fill="#263238"/>
<path d="M56 126H70V140H56V126Z" fill="#263238"/>
</svg>
