<svg width="400" height="200" viewBox="0 0 400 200" fill="none" xmlns="http://www.w3.org/2000/svg">
<path d="M399.985 145.445V154.55H390.904V145.445H399.985Z" fill="#CEE0E0"/>
<path d="M399.985 136.355V145.444H390.904V136.355H399.985Z" fill="#CEE0E0"/>
<path d="M390.904 172.717V181.806H381.799V172.717H390.904Z" fill="#CEE0E0"/>
<path d="M390.904 163.637L390.904 172.717H381.799L381.799 163.637H390.904Z" fill="#CEE0E0"/>
<path d="M390.904 154.549V163.637H381.799V154.549H390.904Z" fill="#CEE0E0"/>
<path d="M390.904 145.445V154.55H381.799V145.445H390.904Z" fill="#CEE0E0"/>
<path d="M390.904 136.355V145.444H381.799V136.355H390.904Z" fill="#F2F2F2"/>
<path d="M390.904 127.266V136.354H381.799V127.266H390.904Z" fill="white"/>
<path d="M390.904 118.184V127.264H381.799V118.184H390.904Z" fill="white"/>
<path d="M381.802 172.717V181.806H372.713V172.717H381.802Z" fill="#CEE0E0"/>
<path d="M381.802 163.637V172.717H372.713V163.637H381.802Z" fill="#CEE0E0"/>
<path d="M381.802 154.549V163.637H372.713V154.549H381.802Z" fill="#CEE0E0"/>
<path d="M381.802 145.445V154.55H372.713V145.445H381.802Z" fill="#F2F2F2"/>
<path d="M381.802 136.355V145.444H372.713V136.355H381.802Z" fill="#F2F2F2"/>
<path d="M381.802 127.266V136.354H372.713V127.266H381.802Z" fill="#F2F2F2"/>
<path d="M381.802 118.184V127.264H372.713V118.184H381.802Z" fill="white"/>
<path d="M372.708 181.807V190.895H363.619V181.807H372.708Z" fill="#CEE0E0"/>
<path d="M372.708 172.717V181.807H363.619V172.717H372.708Z" fill="#CEE0E0"/>
<path d="M372.708 163.637L372.708 172.717H363.619L363.619 163.637H372.708Z" fill="#CEE0E0"/>
<path d="M372.708 154.549V163.637H363.619V154.549H372.708Z" fill="#F2F2F2"/>
<path d="M372.708 145.445V154.55H363.619V145.445H372.708Z" fill="#F2F2F2"/>
<path d="M372.708 136.355V145.444H363.619V136.355H372.708Z" fill="#F2F2F2"/>
<path d="M372.708 127.266V136.354H363.619V127.266H372.708Z" fill="#F2F2F2"/>
<path d="M372.708 118.184V127.264H363.619V118.184H372.708Z" fill="white"/>
<path d="M363.622 181.807V190.895H354.533V181.807H363.622Z" fill="#CEE0E0"/>
<path d="M363.622 172.717V181.806H354.533V172.717H363.622Z" fill="#CEE0E0"/>
<path d="M363.622 163.637V172.717H354.533V163.637H363.622Z" fill="#F2F2F2"/>
<path d="M363.622 154.549V163.637H354.533V154.549H363.622Z" fill="#F2F2F2"/>
<path d="M363.622 145.445V154.55H354.533V145.445H363.622Z" fill="#F2F2F2"/>
<path d="M363.622 136.355V145.444H354.533V136.355H363.622Z" fill="#F2F2F2"/>
<path d="M363.622 127.266V136.354H354.533V127.266H363.622Z" fill="#F2F2F2"/>
<path d="M363.622 118.184V127.264H354.533V118.184H363.622Z" fill="white"/>
<path d="M363.622 109.098V118.186H354.533V109.098H363.622Z" fill="white"/>
<path d="M354.532 181.807V190.895H345.451V181.807H354.532Z" fill="#CEE0E0"/>
<path d="M354.532 172.717V181.806H345.451V172.717H354.532Z" fill="#CEE0E0"/>
<path d="M354.532 163.637V172.717H345.451V163.637H354.532Z" fill="#F2F2F2"/>
<path d="M354.532 154.549V163.637H345.451V154.549H354.532Z" fill="#F2F2F2"/>
<path d="M354.532 145.445V154.55H345.451V145.445H354.532Z" fill="#F2F2F2"/>
<path d="M354.532 136.355V145.444H345.451V136.355H354.532Z" fill="#F2F2F2"/>
<path d="M354.532 127.266V136.354H345.451V127.266H354.532Z" fill="#F2F2F2"/>
<path d="M354.532 118.184V127.264H345.451V118.184H354.532Z" fill="#F2F2F2"/>
<path d="M354.532 109.098V118.186H345.451V109.098H354.532Z" fill="white"/>
<path d="M354.532 99.9922V109.098H345.451V99.9922H354.532Z" fill="white"/>
<path d="M354.532 90.9023V99.9911H345.451V90.9023H354.532Z" fill="white"/>
<path d="M345.452 181.807V190.895H336.348V181.807H345.452Z" fill="#CEE0E0"/>
<path d="M345.452 172.717V181.806H336.348V172.717H345.452Z" fill="#CEE0E0"/>
<path d="M345.452 163.637V172.717H336.348V163.637H345.452Z" fill="#CEE0E0"/>
<path d="M345.452 154.549V163.637H336.348V154.549H345.452Z" fill="#F2F2F2"/>
<path d="M345.452 145.445V154.55H336.348V145.445H345.452Z" fill="#F2F2F2"/>
<path d="M345.452 136.355V145.444H336.348V136.355H345.452Z" fill="#F2F2F2"/>
<path d="M345.452 127.266V136.354H336.348V127.266H345.452Z" fill="#F2F2F2"/>
<path d="M345.452 118.184V127.264H336.348V118.184H345.452Z" fill="#F2F2F2"/>
<path d="M345.452 109.098V118.186H336.348V109.098H345.452Z" fill="#F2F2F2"/>
<path d="M345.452 99.9922V109.098H336.348V99.9922H345.452Z" fill="#F2F2F2"/>
<path d="M345.452 90.9023V99.9911H336.348V90.9023H345.452Z" fill="white"/>
<path d="M345.452 81.8145V90.9023H336.348V81.8145H345.452Z" fill="white"/>
<path d="M336.348 181.807V190.895H327.26V181.807H336.348Z" fill="#CEE0E0"/>
<path d="M336.348 172.717V181.806H327.26V172.717H336.348Z" fill="#CEE0E0"/>
<path d="M336.348 163.637L336.348 172.717L327.26 172.717V163.637H336.348Z" fill="#CEE0E0"/>
<path d="M336.348 154.549L336.348 163.638L327.26 163.637V154.549H336.348Z" fill="#F2F2F2"/>
<path d="M336.348 145.445V154.55H327.26V145.445H336.348Z" fill="#F2F2F2"/>
<path d="M336.348 136.355V145.444H327.26V136.355H336.348Z" fill="#F2F2F2"/>
<path d="M336.348 127.266V136.354H327.26V127.266H336.348Z" fill="#F2F2F2"/>
<path d="M336.348 118.184V127.264H327.26V118.184H336.348Z" fill="#F2F2F2"/>
<path d="M336.348 109.098V118.186H327.26V109.098H336.348Z" fill="#CEE0E0"/>
<path d="M336.348 99.9922L336.348 109.097L327.26 109.098V99.9922H336.348Z" fill="#CEE0E0"/>
<path d="M336.348 90.9023V99.9911H327.26V90.9023H336.348Z" fill="#F2F2F2"/>
<path d="M336.348 81.8145L336.348 90.9032L327.26 90.9023V81.8145H336.348Z" fill="white"/>
<path d="M336.348 72.7324V81.8131H327.26V72.7324H336.348Z" fill="white"/>
<path d="M327.257 181.807V190.895H318.168V181.807H327.257Z" fill="#CEE0E0"/>
<path d="M327.257 172.717V181.806H318.168V172.717H327.257Z" fill="#CEE0E0"/>
<path d="M327.257 163.637V172.717H318.168V163.637H327.257Z" fill="#CEE0E0"/>
<path d="M327.257 154.549V163.637H318.168V154.549H327.257Z" fill="#CEE0E0"/>
<path d="M327.257 145.445V154.55H318.168V145.445H327.257Z" fill="#F2F2F2"/>
<path d="M327.257 136.355V145.444H318.168V136.355H327.257Z" fill="#F2F2F2"/>
<path d="M327.257 127.266V136.354H318.168V127.266H327.257Z" fill="#F2F2F2"/>
<path d="M327.257 118.184V127.264H318.168V118.184H327.257Z" fill="#F2F2F2"/>
<path d="M327.257 109.098V118.186H318.168V109.098H327.257Z" fill="#CEE0E0"/>
<path d="M327.257 99.9922V109.098H318.168V99.9922H327.257Z" fill="#F2F2F2"/>
<path d="M327.257 90.9023V99.9911H318.168V90.9023H327.257Z" fill="#F2F2F2"/>
<path d="M327.257 81.8145V90.9023H318.168V81.8145H327.257Z" fill="#F2F2F2"/>
<path d="M327.257 72.7324V81.8131H318.168V72.7324H327.257Z" fill="white"/>
<path d="M318.169 190.896V200.001H309.08V190.896H318.169Z" fill="#CEE0E0"/>
<path d="M318.168 181.807V190.895H309.08V181.807H318.168Z" fill="#CEE0E0"/>
<path d="M318.168 172.717V181.806H309.08V172.717H318.168Z" fill="#CEE0E0"/>
<path d="M318.168 163.637L318.169 172.717L309.08 172.717V163.637H318.168Z" fill="#CEE0E0"/>
<path d="M318.168 154.549L318.169 163.638L309.08 163.637V154.549H318.168Z" fill="#CEE0E0"/>
<path d="M318.168 145.445V154.55H309.08V145.445H318.168Z" fill="#CEE0E0"/>
<path d="M318.168 136.355V145.444H309.08V136.355H318.168Z" fill="#CEE0E0"/>
<path d="M318.168 127.266V136.354H309.08V127.266H318.168Z" fill="#CEE0E0"/>
<path d="M318.168 118.184V127.264H309.08V118.184H318.168Z" fill="#F2F2F2"/>
<path d="M318.168 109.098V118.186H309.08V109.098H318.168Z" fill="#CEE0E0"/>
<path d="M318.168 99.9922L318.169 109.097L309.08 109.098V99.9922H318.168Z" fill="#F2F2F2"/>
<path d="M318.168 90.9023V99.9911H309.08V90.9023H318.168Z" fill="#F2F2F2"/>
<path d="M318.168 81.8145L318.169 90.9032L309.08 90.9023V81.8145H318.168Z" fill="#F2F2F2"/>
<path d="M318.168 72.7324V81.8131H309.08V72.7324H318.168Z" fill="white"/>
<path d="M318.169 63.6465V72.7352H309.08V63.6465H318.169Z" fill="white"/>
<path d="M309.08 190.896V200.001L300 200.001V190.896L309.08 190.896Z" fill="#CEE0E0"/>
<path d="M309.08 181.807V190.895L300 190.895V181.807L309.08 181.807Z" fill="#CEE0E0"/>
<path d="M309.08 172.717V181.806L300 181.807V172.717L309.08 172.717Z" fill="#CEE0E0"/>
<path d="M309.08 163.637V172.717L300 172.717L300 163.637H309.08Z" fill="#CEE0E0"/>
<path d="M309.08 154.549L309.081 163.638L300 163.637V154.549H309.08Z" fill="#CEE0E0"/>
<path d="M309.08 145.445V154.55H300V145.445H309.08Z" fill="#CEE0E0"/>
<path d="M309.08 136.355V145.444H300V136.355H309.08Z" fill="#CEE0E0"/>
<path d="M309.08 127.266V136.354H300V127.266H309.08Z" fill="#CEE0E0"/>
<path d="M309.08 118.184V127.264H300V118.184H309.08Z" fill="#CEE0E0"/>
<path d="M309.08 109.098V118.186L300 118.187V109.098L309.08 109.098Z" fill="#CEE0E0"/>
<path d="M309.08 99.9922V109.098L300 109.098L300 99.9922H309.08Z" fill="#F2F2F2"/>
<path d="M309.08 90.9023V99.9911H300V90.9023H309.08Z" fill="#F2F2F2"/>
<path d="M309.08 81.8145L309.081 90.9032L300 90.9023V81.8145H309.08Z" fill="#F2F2F2"/>
<path d="M309.08 72.7324V81.8131H300V72.7324H309.08Z" fill="#F2F2F2"/>
<path d="M309.08 63.6465V72.7352H300V63.6465H309.08Z" fill="white"/>
<path d="M309.081 54.541L309.08 63.6465H300V54.541H309.081Z" fill="white"/>
<path d="M309.081 45.4512V54.5399H300V45.4512H309.081Z" fill="white"/>
<path d="M309.081 36.3613V45.4501H300V36.3613H309.081Z" fill="white"/>
<path d="M309.081 27.2812L309.081 36.3613H300L300 27.2812H309.081Z" fill="white"/>
<path d="M309.081 18.1953V27.284H300V18.1953H309.081Z" fill="white"/>
<path d="M300.001 190.896V200.001H290.889V190.896H300.001Z" fill="#CEE0E0"/>
<path d="M300.001 181.807V190.895H290.889V181.807H300.001Z" fill="#CEE0E0"/>
<path d="M300.001 172.717V181.806H290.889V172.717H300.001Z" fill="#CEE0E0"/>
<path d="M300.001 163.637V172.717H290.889V163.637H300.001Z" fill="#CEE0E0"/>
<path d="M300.001 154.549V163.637H290.889V154.549H300.001Z" fill="#CEE0E0"/>
<path d="M300.001 145.445V154.55H290.889V145.445H300.001Z" fill="#CEE0E0"/>
<path d="M300.001 136.355V145.444H290.889V136.355H300.001Z" fill="#CEE0E0"/>
<path d="M300.001 127.266V136.354H290.889V127.266H300.001Z" fill="#F2F2F2"/>
<path d="M300.001 118.184V127.264H290.889V118.184H300.001Z" fill="#F2F2F2"/>
<path d="M300.001 109.098V118.186H290.889V109.098H300.001Z" fill="#F2F2F2"/>
<path d="M300.001 99.9922V109.098H290.889V99.9922H300.001Z" fill="#CEE0E0"/>
<path d="M300.001 90.9023V99.9911H290.889V90.9023H300.001Z" fill="#CEE0E0"/>
<path d="M300.001 81.8145V90.9023H290.889V81.8145H300.001Z" fill="#F2F2F2"/>
<path d="M300.001 72.7324V81.8131H290.889V72.7324H300.001Z" fill="#F2F2F2"/>
<path d="M300.001 63.6465V72.7352H290.889V63.6465H300.001Z" fill="#F2F2F2"/>
<path d="M300.001 54.541V63.6465H290.889V54.541H300.001Z" fill="#F2F2F2"/>
<path d="M300.001 45.4512V54.5399H290.889V45.4512H300.001Z" fill="#F2F2F2"/>
<path d="M300.001 36.3613V45.4501H290.889V36.3613H300.001Z" fill="#F2F2F2"/>
<path d="M300.001 27.2812V36.3613H290.889V27.2812H300.001Z" fill="#F2F2F2"/>
<path d="M300.001 18.1953V27.284H290.889V18.1953H300.001Z" fill="white"/>
<path d="M300.001 9.08984V18.1953H290.889V9.08984H300.001Z" fill="white"/>
<path d="M290.889 181.807V190.895L281.809 190.895V181.807L290.889 181.807Z" fill="#CEE0E0"/>
<path d="M290.889 172.717V181.806L281.809 181.807V172.717L290.889 172.717Z" fill="#CEE0E0"/>
<path d="M290.889 163.637V172.717L281.809 172.717L281.809 163.637H290.889Z" fill="#CEE0E0"/>
<path d="M290.889 154.549L290.889 163.638L281.809 163.637V154.549H290.889Z" fill="#CEE0E0"/>
<path d="M290.889 145.445V154.55H281.809V145.445H290.889Z" fill="#CEE0E0"/>
<path d="M290.889 136.355V145.444H281.809V136.355H290.889Z" fill="#F2F2F2"/>
<path d="M290.889 127.266V136.354H281.809V127.266H290.889Z" fill="#F2F2F2"/>
<path d="M290.889 118.184V127.264H281.809V118.184H290.889Z" fill="#F2F2F2"/>
<path d="M290.889 109.098V118.186L281.809 118.187V109.098L290.889 109.098Z" fill="#F2F2F2"/>
<path d="M290.889 99.9922V109.098L281.809 109.098L281.809 99.9922H290.889Z" fill="#F2F2F2"/>
<path d="M290.889 90.9023V99.9911H281.809V90.9023H290.889Z" fill="#F2F2F2"/>
<path d="M290.889 81.8145L290.889 90.9032L281.809 90.9023V81.8145H290.889Z" fill="#F2F2F2"/>
<path d="M290.889 72.7324V81.8131H281.809V72.7324H290.889Z" fill="#F2F2F2"/>
<path d="M290.889 63.6465V72.7352H281.809V63.6465H290.889Z" fill="#F2F2F2"/>
<path d="M290.889 54.541V63.6465H281.809V54.541H290.889Z" fill="white"/>
<path d="M290.889 45.4512V54.5399H281.809V45.4512H290.889Z" fill="#F2F2F2"/>
<path d="M290.889 36.3613V45.4501H281.809V36.3613H290.889Z" fill="#F2F2F2"/>
<path d="M290.889 27.2812V36.3613H281.809L281.809 27.2812L290.889 27.2812Z" fill="#F2F2F2"/>
<path d="M290.889 18.1953V27.284H281.809V18.1953H290.889Z" fill="#F2F2F2"/>
<path d="M290.889 9.08984L290.889 18.1945L281.809 18.1953L281.809 9.08973L290.889 9.08984Z" fill="white"/>
<path d="M290.889 0V9.08872H281.809V0H290.889Z" fill="white"/>
<path d="M281.806 181.807V190.895H272.717V181.807H281.806Z" fill="#CEE0E0"/>
<path d="M281.806 172.717V181.806H272.717V172.717H281.806Z" fill="#CEE0E0"/>
<path d="M281.806 163.637V172.717H272.717V163.637H281.806Z" fill="#CEE0E0"/>
<path d="M281.806 154.549V163.637H272.717V154.549H281.806Z" fill="#CEE0E0"/>
<path d="M281.806 145.445V154.55H272.717V145.445H281.806Z" fill="#F2F2F2"/>
<path d="M281.806 136.355V145.444H272.717V136.355H281.806Z" fill="#F2F2F2"/>
<path d="M281.806 127.266V136.354H272.717V127.266H281.806Z" fill="#F2F2F2"/>
<path d="M281.806 118.184V127.264H272.717V118.184H281.806Z" fill="#F2F2F2"/>
<path d="M281.806 109.098V118.186H272.717V109.098H281.806Z" fill="#F2F2F2"/>
<path d="M281.806 99.9922V109.098H272.717V99.9922H281.806Z" fill="#F2F2F2"/>
<path d="M281.806 90.9023V99.9911H272.717V90.9023H281.806Z" fill="#F2F2F2"/>
<path d="M281.806 81.8145V90.9023H272.717V81.8145H281.806Z" fill="#F2F2F2"/>
<path d="M281.806 72.7324V81.8131H272.717V72.7324H281.806Z" fill="#F2F2F2"/>
<path d="M281.806 63.6465V72.7352H272.717V63.6465H281.806Z" fill="#F2F2F2"/>
<path d="M281.806 54.541V63.6465H272.717V54.541H281.806Z" fill="white"/>
<path d="M281.806 45.4512V54.5399H272.717V45.4512H281.806Z" fill="white"/>
<path d="M281.806 36.3613V45.4501H272.717V36.3613H281.806Z" fill="#F2F2F2"/>
<path d="M281.806 27.2812V36.3613H272.717V27.2812H281.806Z" fill="#F2F2F2"/>
<path d="M281.806 18.1953V27.284H272.717V18.1953H281.806Z" fill="#F2F2F2"/>
<path d="M281.806 9.08984V18.1953H272.717V9.08984H281.806Z" fill="#F2F2F2"/>
<path d="M281.806 0V9.08872H272.717V0H281.806Z" fill="white"/>
<path d="M272.717 181.807V190.895H263.629V181.807H272.717Z" fill="#CEE0E0"/>
<path d="M272.717 172.717V181.806H263.629V172.717H272.717Z" fill="#CEE0E0"/>
<path d="M272.717 163.637L272.718 172.717L263.629 172.717V163.637H272.717Z" fill="#CEE0E0"/>
<path d="M272.717 154.549L272.718 163.638L263.629 163.637V154.549H272.717Z" fill="#CEE0E0"/>
<path d="M272.717 145.445V154.55H263.629V145.445H272.717Z" fill="#F2F2F2"/>
<path d="M272.717 136.355V145.444H263.629V136.355H272.717Z" fill="#F2F2F2"/>
<path d="M272.717 127.266V136.354H263.629V127.266H272.717Z" fill="#F2F2F2"/>
<path d="M272.717 118.184V127.264H263.629V118.184H272.717Z" fill="#F2F2F2"/>
<path d="M272.717 109.098V118.186H263.629V109.098H272.717Z" fill="#F2F2F2"/>
<path d="M272.717 99.9922L272.718 109.097L263.629 109.098V99.9922H272.717Z" fill="#F2F2F2"/>
<path d="M272.717 90.9023V99.9911H263.629V90.9023H272.717Z" fill="#F2F2F2"/>
<path d="M272.717 81.8145L272.718 90.9032L263.629 90.9023V81.8145H272.717Z" fill="#F2F2F2"/>
<path d="M272.717 72.7324V81.8131H263.629V72.7324H272.717Z" fill="#F2F2F2"/>
<path d="M272.717 63.6465V72.7352H263.629V63.6465H272.717Z" fill="#F2F2F2"/>
<path d="M272.717 54.541L272.718 63.6458L263.629 63.6465V54.541H272.717Z" fill="#F2F2F2"/>
<path d="M272.717 45.4512V54.5399H263.629V45.4512H272.717Z" fill="white"/>
<path d="M272.717 36.3613V45.4501H263.629V36.3613H272.717Z" fill="white"/>
<path d="M272.717 27.2812L272.718 36.3619L263.629 36.3613V27.2812H272.717Z" fill="#F2F2F2"/>
<path d="M272.717 18.1953V27.284H263.629V18.1953H272.717Z" fill="#F2F2F2"/>
<path d="M272.717 9.08984L272.718 18.1946L263.629 18.1953V9.08984H272.717Z" fill="#F2F2F2"/>
<path d="M272.717 0V9.08872H263.629V0H272.717Z" fill="white"/>
<path d="M263.629 172.717V181.806H254.549V172.717H263.629Z" fill="#CEE0E0"/>
<path d="M263.629 163.637V172.717H254.549V163.637H263.629Z" fill="#CEE0E0"/>
<path d="M263.629 154.549L263.63 163.638L254.549 163.637V154.549H263.629Z" fill="#CEE0E0"/>
<path d="M263.629 145.445V154.55H254.549V145.445H263.629Z" fill="#F2F2F2"/>
<path d="M263.629 136.355V145.444H254.549V136.355H263.629Z" fill="#F2F2F2"/>
<path d="M263.629 127.266V136.354H254.549V127.266H263.629Z" fill="#F2F2F2"/>
<path d="M263.629 118.184V127.264H254.549V118.184H263.629Z" fill="#F2F2F2"/>
<path d="M263.629 109.098V118.186H254.549V109.098H263.629Z" fill="#F2F2F2"/>
<path d="M263.629 99.9922V109.098H254.549V99.9922H263.629Z" fill="#F2F2F2"/>
<path d="M263.629 90.9023V99.9911H254.549V90.9023H263.629Z" fill="#F2F2F2"/>
<path d="M263.629 81.8145L263.63 90.9032L254.549 90.9023V81.8145H263.629Z" fill="#F2F2F2"/>
<path d="M263.629 72.7324V81.8131H254.549V72.7324H263.629Z" fill="#F2F2F2"/>
<path d="M263.629 63.6465V72.7352H254.549V63.6465H263.629Z" fill="#F2F2F2"/>
<path d="M263.629 54.541V63.6465H254.549V54.541H263.629Z" fill="#F2F2F2"/>
<path d="M263.629 45.4512V54.5399H254.549V45.4512H263.629Z" fill="#F2F2F2"/>
<path d="M263.629 36.3613V45.4501H254.549V36.3613H263.629Z" fill="white"/>
<path d="M263.629 27.2812V36.3613H254.549V27.2812H263.629Z" fill="#F2F2F2"/>
<path d="M263.629 18.1953V27.284H254.549V18.1953H263.629Z" fill="#F2F2F2"/>
<path d="M263.629 9.08984V18.1953H254.549V9.08984H263.629Z" fill="#F2F2F2"/>
<path d="M263.629 0V9.08872H254.549V0H263.629Z" fill="white"/>
<path d="M254.549 172.717V181.806H245.443V172.717H254.549Z" fill="#CEE0E0"/>
<path d="M254.549 163.637V172.717H245.443V163.637H254.549Z" fill="#CEE0E0"/>
<path d="M254.549 154.549L254.548 163.638L245.443 163.637V154.549H254.549Z" fill="#CEE0E0"/>
<path d="M254.549 145.445V154.55H245.443V145.445H254.549Z" fill="#CEE0E0"/>
<path d="M254.549 136.355V145.444H245.443V136.355H254.549Z" fill="#F2F2F2"/>
<path d="M254.549 127.266V136.354H245.443V127.266H254.549Z" fill="#F2F2F2"/>
<path d="M254.549 118.184V127.264H245.443V118.184H254.549Z" fill="#F2F2F2"/>
<path d="M254.549 109.098V118.186H245.443V109.098H254.549Z" fill="#F2F2F2"/>
<path d="M254.549 99.9922V109.098H245.443V99.9922H254.549Z" fill="#CEE0E0"/>
<path d="M254.549 90.9023V99.9911H245.443V90.9023H254.549Z" fill="#CEE0E0"/>
<path d="M254.549 81.8145L254.548 90.9032L245.443 90.9023V81.8145H254.549Z" fill="#F2F2F2"/>
<path d="M254.549 72.7324V81.8131H245.443V72.7324H254.549Z" fill="#F2F2F2"/>
<path d="M254.549 63.6465V72.7352H245.443V63.6465H254.549Z" fill="#F2F2F2"/>
<path d="M254.549 54.541V63.6465H245.443V54.541H254.549Z" fill="#F2F2F2"/>
<path d="M254.549 45.4512V54.5399H245.443V45.4512H254.549Z" fill="#F2F2F2"/>
<path d="M254.549 36.3613V45.4501H245.443V36.3613H254.549Z" fill="white"/>
<path d="M254.549 27.2812V36.3613H245.443V27.2812H254.549Z" fill="#F2F2F2"/>
<path d="M254.549 18.1953V27.284H245.443V18.1953H254.549Z" fill="#F2F2F2"/>
<path d="M254.549 9.08984V18.1953H245.443V9.08984H254.549Z" fill="#F2F2F2"/>
<path d="M254.549 0V9.08872H245.443V0H254.549Z" fill="white"/>
<path d="M245.446 172.717V181.806H236.357V172.717H245.446Z" fill="#CEE0E0"/>
<path d="M245.446 163.637V172.717H236.357V163.637H245.446Z" fill="#CEE0E0"/>
<path d="M245.446 154.549V163.637H236.357V154.549H245.446Z" fill="#CEE0E0"/>
<path d="M245.446 145.445V154.55H236.357V145.445H245.446Z" fill="#CEE0E0"/>
<path d="M245.446 136.355V145.444H236.357V136.355H245.446Z" fill="#CEE0E0"/>
<path d="M245.446 127.266V136.354H236.357V127.266H245.446Z" fill="#F2F2F2"/>
<path d="M245.446 118.184V127.264H236.357V118.184H245.446Z" fill="#F2F2F2"/>
<path d="M245.446 109.098V118.186H236.357V109.098H245.446Z" fill="#F2F2F2"/>
<path d="M245.446 99.9922V109.098H236.357V99.9922H245.446Z" fill="#CEE0E0"/>
<path d="M245.446 90.9023V99.9911H236.357V90.9023H245.446Z" fill="#F2F2F2"/>
<path d="M245.446 81.8145V90.9023H236.357V81.8145H245.446Z" fill="#F2F2F2"/>
<path d="M245.446 72.7324V81.8131H236.357V72.7324H245.446Z" fill="#F2F2F2"/>
<path d="M245.446 63.6465V72.7352H236.357V63.6465H245.446Z" fill="#F2F2F2"/>
<path d="M245.446 54.541V63.6465H236.357V54.541H245.446Z" fill="#F2F2F2"/>
<path d="M245.446 45.4512V54.5399H236.357V45.4512H245.446Z" fill="white"/>
<path d="M245.446 36.3613V45.4501H236.357V36.3613H245.446Z" fill="white"/>
<path d="M245.446 27.2812V36.3613H236.357V27.2812H245.446Z" fill="#F2F2F2"/>
<path d="M245.446 18.1953V27.284H236.357V18.1953H245.446Z" fill="#F2F2F2"/>
<path d="M245.446 9.08984V18.1953H236.357V9.08984H245.446Z" fill="#F2F2F2"/>
<path d="M245.446 0V9.08872H236.357V0H245.446Z" fill="white"/>
<path d="M236.352 181.807V190.895H227.264V181.807H236.352Z" fill="#CEE0E0"/>
<path d="M236.352 172.717V181.806H227.264V172.717H236.352Z" fill="#CEE0E0"/>
<path d="M236.352 163.637V172.717H227.264V163.637H236.352Z" fill="#CEE0E0"/>
<path d="M236.352 154.549V163.637H227.264V154.549H236.352Z" fill="#CEE0E0"/>
<path d="M236.352 145.445V154.55H227.264V145.445H236.352Z" fill="#CEE0E0"/>
<path d="M236.352 136.355V145.444H227.264V136.355H236.352Z" fill="#CEE0E0"/>
<path d="M236.352 127.266V136.354H227.264V127.266H236.352Z" fill="#CEE0E0"/>
<path d="M236.352 118.184V127.264H227.264V118.184H236.352Z" fill="#CEE0E0"/>
<path d="M236.352 109.098V118.186H227.264V109.098H236.352Z" fill="#F2F2F2"/>
<path d="M236.352 99.9922V109.098H227.264V99.9922H236.352Z" fill="#CEE0E0"/>
<path d="M236.352 90.9023V99.9911H227.264V90.9023H236.352Z" fill="#F2F2F2"/>
<path d="M236.352 81.8145V90.9023H227.264V81.8145H236.352Z" fill="#F2F2F2"/>
<path d="M236.352 72.7324V81.8131H227.264V72.7324H236.352Z" fill="#F2F2F2"/>
<path d="M236.352 63.6465V72.7352H227.264V63.6465H236.352Z" fill="#F2F2F2"/>
<path d="M236.352 54.541V63.6465H227.264V54.541H236.352Z" fill="#F2F2F2"/>
<path d="M236.352 45.4512V54.5399H227.264V45.4512H236.352Z" fill="white"/>
<path d="M236.352 36.3613V45.4501H227.264V36.3613H236.352Z" fill="#F2F2F2"/>
<path d="M236.352 27.2812V36.3613H227.264V27.2812H236.352Z" fill="#F2F2F2"/>
<path d="M236.352 18.1953V27.284H227.264V18.1953H236.352Z" fill="#F2F2F2"/>
<path d="M236.352 9.08984V18.1953H227.264V9.08984H236.352Z" fill="#F2F2F2"/>
<path d="M236.352 0V9.08872H227.264V0H236.352Z" fill="white"/>
<path d="M227.266 181.807V190.895H218.178V181.807H227.266Z" fill="#CEE0E0"/>
<path d="M227.266 172.717V181.807H218.178V172.717H227.266Z" fill="#CEE0E0"/>
<path d="M227.266 163.637L227.266 172.717H218.178L218.178 163.637H227.266Z" fill="#CEE0E0"/>
<path d="M227.266 154.549V163.637H218.178V154.549H227.266Z" fill="#CEE0E0"/>
<path d="M227.266 145.445V154.55H218.178V145.445H227.266Z" fill="#CEE0E0"/>
<path d="M227.266 136.355V145.444H218.178V136.355H227.266Z" fill="#CEE0E0"/>
<path d="M227.266 127.266V136.354H218.178V127.266H227.266Z" fill="#CEE0E0"/>
<path d="M227.266 118.184V127.264H218.178V118.184H227.266Z" fill="#CEE0E0"/>
<path d="M227.266 109.098V118.187H218.178V109.098H227.266Z" fill="#CEE0E0"/>
<path d="M227.266 99.9922L227.266 109.098H218.178L218.178 99.9922H227.266Z" fill="#CEE0E0"/>
<path d="M227.266 90.9023V99.9911H218.178V90.9023H227.266Z" fill="#F2F2F2"/>
<path d="M227.266 81.8145V90.9023H218.178V81.8145H227.266Z" fill="#F2F2F2"/>
<path d="M227.266 72.7324V81.8131H218.178V72.7324H227.266Z" fill="#F2F2F2"/>
<path d="M227.266 63.6465V72.7352H218.178V63.6465H227.266Z" fill="#F2F2F2"/>
<path d="M227.266 54.541V63.6465H218.178V54.541H227.266Z" fill="white"/>
<path d="M227.266 45.4512V54.5399H218.178V45.4512H227.266Z" fill="white"/>
<path d="M227.266 36.3613V45.4501H218.178V36.3613H227.266Z" fill="#F2F2F2"/>
<path d="M227.266 27.2812L227.266 36.3613H218.178L218.178 27.2812H227.266Z" fill="#F2F2F2"/>
<path d="M227.266 18.1953V27.284H218.178V18.1953H227.266Z" fill="#F2F2F2"/>
<path d="M227.266 9.08973L227.266 18.1953H218.178L218.178 9.08973H227.266Z" fill="#F2F2F2"/>
<path d="M227.266 0V9.08872H218.178V0H227.266Z" fill="white"/>
<path d="M218.181 181.807V190.895H209.092V181.807H218.181Z" fill="#CEE0E0"/>
<path d="M218.181 172.717V181.806H209.092V172.717H218.181Z" fill="#CEE0E0"/>
<path d="M218.181 163.637V172.717H209.092V163.637H218.181Z" fill="#CEE0E0"/>
<path d="M218.181 154.549V163.637H209.092V154.549H218.181Z" fill="#CEE0E0"/>
<path d="M218.181 145.445V154.55H209.092V145.445H218.181Z" fill="#CEE0E0"/>
<path d="M218.181 136.355V145.444H209.092V136.355H218.181Z" fill="#CEE0E0"/>
<path d="M218.181 127.266V136.354H209.092V127.266H218.181Z" fill="#CEE0E0"/>
<path d="M218.181 118.184V127.264H209.092V118.184H218.181Z" fill="#F2F2F2"/>
<path d="M218.181 109.098V118.186H209.092V109.098H218.181Z" fill="#F2F2F2"/>
<path d="M218.181 99.9922V109.098H209.092V99.9922H218.181Z" fill="#CEE0E0"/>
<path d="M218.181 90.9023V99.9911H209.092V90.9023H218.181Z" fill="#F2F2F2"/>
<path d="M218.181 81.8145V90.9023H209.092V81.8145H218.181Z" fill="#F2F2F2"/>
<path d="M218.181 72.7324V81.8131H209.092V72.7324H218.181Z" fill="#F2F2F2"/>
<path d="M218.181 63.6465V72.7352H209.092V63.6465H218.181Z" fill="#F2F2F2"/>
<path d="M218.181 54.541V63.6465H209.092V54.541H218.181Z" fill="white"/>
<path d="M218.181 45.4512V54.5399H209.092V45.4512H218.181Z" fill="#F2F2F2"/>
<path d="M218.181 36.3613V45.4501H209.092V36.3613H218.181Z" fill="#F2F2F2"/>
<path d="M218.181 27.2812V36.3613H209.092V27.2812H218.181Z" fill="#F2F2F2"/>
<path d="M218.181 18.1953V27.284H209.092V18.1953H218.181Z" fill="#F2F2F2"/>
<path d="M218.181 9.08984V18.1953H209.092V9.08984H218.181Z" fill="white"/>
<path d="M218.181 0V9.08872H209.092V0H218.181Z" fill="white"/>
<path d="M209.092 181.807V190.895H199.986V181.807H209.092Z" fill="#CEE0E0"/>
<path d="M209.092 172.717V181.806H199.986V172.717H209.092Z" fill="#CEE0E0"/>
<path d="M209.092 163.637V172.717H199.986V163.637H209.092Z" fill="#CEE0E0"/>
<path d="M209.092 154.549L209.091 163.638L199.986 163.637V154.549H209.092Z" fill="#CEE0E0"/>
<path d="M209.092 145.445V154.55H199.986V145.445H209.092Z" fill="#F2F2F2"/>
<path d="M209.092 136.355V145.444H199.986V136.355H209.092Z" fill="#F2F2F2"/>
<path d="M209.092 127.266V136.354H199.986V127.266H209.092Z" fill="#F2F2F2"/>
<path d="M209.092 118.184V127.264H199.986V118.184H209.092Z" fill="#F2F2F2"/>
<path d="M209.092 109.098V118.186H199.986V109.098H209.092Z" fill="#F2F2F2"/>
<path d="M209.092 99.9922V109.098H199.986V99.9922H209.092Z" fill="#CEE0E0"/>
<path d="M209.092 90.9023V99.9911H199.986V90.9023H209.092Z" fill="#CEE0E0"/>
<path d="M209.092 81.8145L209.091 90.9032L199.986 90.9023V81.8145H209.092Z" fill="#F2F2F2"/>
<path d="M209.092 72.7324V81.8131H199.986V72.7324H209.092Z" fill="#F2F2F2"/>
<path d="M209.092 63.6465V72.7352H199.986V63.6465H209.092Z" fill="white"/>
<path d="M209.092 54.541V63.6465H199.986V54.541H209.092Z" fill="#F2F2F2"/>
<path d="M209.092 45.4512V54.5399H199.986V45.4512H209.092Z" fill="#F2F2F2"/>
<path d="M209.092 36.3613V45.4501H199.986V36.3613H209.092Z" fill="#F2F2F2"/>
<path d="M209.092 27.2812V36.3613H199.986V27.2812H209.092Z" fill="#F2F2F2"/>
<path d="M209.092 18.1953V27.284H199.986V18.1953H209.092Z" fill="white"/>
<path d="M209.092 9.08984V18.1953H199.986V9.08984H209.092Z" fill="white"/>
<path d="M199.986 181.807V190.895H190.906V181.807H199.986Z" fill="#CEE0E0"/>
<path d="M199.986 172.717V181.806H190.906V172.717H199.986Z" fill="#CEE0E0"/>
<path d="M199.986 163.637V172.717H190.906V163.637H199.986Z" fill="#CEE0E0"/>
<path d="M199.986 154.549L199.987 163.638L190.906 163.637V154.549H199.986Z" fill="#F2F2F2"/>
<path d="M199.986 145.445V154.55H190.906V145.445H199.986Z" fill="#F2F2F2"/>
<path d="M199.986 136.355V145.444H190.906V136.355H199.986Z" fill="#F2F2F2"/>
<path d="M199.986 127.266V136.354H190.906V127.266H199.986Z" fill="#F2F2F2"/>
<path d="M199.986 118.184V127.264H190.906V118.184H199.986Z" fill="#F2F2F2"/>
<path d="M199.986 109.098V118.186H190.906V109.098H199.986Z" fill="#F2F2F2"/>
<path d="M199.986 99.9922V109.098H190.906V99.9922H199.986Z" fill="#F2F2F2"/>
<path d="M199.986 90.9023V99.9911H190.906V90.9023H199.986Z" fill="#F2F2F2"/>
<path d="M199.986 81.8145L199.987 90.9032L190.906 90.9023V81.8145H199.986Z" fill="#F2F2F2"/>
<path d="M199.986 72.7324V81.8131H190.906V72.7324H199.986Z" fill="#F2F2F2"/>
<path d="M199.986 63.6465V72.7352H190.906V63.6465H199.986Z" fill="#F2F2F2"/>
<path d="M199.986 54.541V63.6465H190.906V54.541H199.986Z" fill="#F2F2F2"/>
<path d="M199.986 45.4512V54.5399H190.906V45.4512H199.986Z" fill="#F2F2F2"/>
<path d="M199.986 36.3613V45.4501H190.906V36.3613H199.986Z" fill="#F2F2F2"/>
<path d="M199.986 27.2812V36.3613H190.906V27.2812H199.986Z" fill="white"/>
<path d="M199.986 18.1953V27.284H190.906V18.1953H199.986Z" fill="white"/>
<path d="M190.901 181.807V190.895H181.813V181.807H190.901Z" fill="#CEE0E0"/>
<path d="M190.901 172.717V181.807H181.813V172.717H190.901Z" fill="#CEE0E0"/>
<path d="M190.901 163.637L190.901 172.717H181.813L181.812 163.637H190.901Z" fill="#CEE0E0"/>
<path d="M190.901 154.549V163.637H181.812V154.549H190.901Z" fill="#F2F2F2"/>
<path d="M190.901 145.445V154.55H181.812V145.445H190.901Z" fill="#F2F2F2"/>
<path d="M190.901 136.355V145.444H181.812V136.355H190.901Z" fill="#F2F2F2"/>
<path d="M190.901 127.266V136.354H181.812V127.266H190.901Z" fill="#F2F2F2"/>
<path d="M190.901 118.184V127.264H181.812V118.184H190.901Z" fill="#F2F2F2"/>
<path d="M190.901 109.098V118.187H181.813V109.098H190.901Z" fill="#F2F2F2"/>
<path d="M190.901 99.9922L190.901 109.098H181.813L181.812 99.9922H190.901Z" fill="#F2F2F2"/>
<path d="M190.901 90.9023V99.9911H181.812V90.9023H190.901Z" fill="#F2F2F2"/>
<path d="M190.901 81.8145V90.9023H181.812V81.8145H190.901Z" fill="#F2F2F2"/>
<path d="M190.901 72.7324V81.8131H181.812V72.7324H190.901Z" fill="#F2F2F2"/>
<path d="M190.901 63.6465V72.7352H181.812V63.6465H190.901Z" fill="#F2F2F2"/>
<path d="M190.901 54.541V63.6465H181.812V54.541H190.901Z" fill="white"/>
<path d="M190.901 45.4512V54.5399H181.812V45.4512H190.901Z" fill="white"/>
<path d="M190.901 36.3613V45.4501H181.812V36.3613H190.901Z" fill="white"/>
<path d="M190.901 27.2812L190.901 36.3613H181.812L181.813 27.2812H190.901Z" fill="white"/>
<path d="M181.815 190.896V200.001H172.727V190.896H181.815Z" fill="#CEE0E0"/>
<path d="M181.815 181.807V190.895H172.727V181.807H181.815Z" fill="#CEE0E0"/>
<path d="M181.815 172.717V181.806H172.727V172.717H181.815Z" fill="#CEE0E0"/>
<path d="M181.815 163.637V172.717H172.727V163.637H181.815Z" fill="#CEE0E0"/>
<path d="M181.815 154.549V163.637H172.727V154.549H181.815Z" fill="#F2F2F2"/>
<path d="M181.815 145.445V154.55H172.727V145.445H181.815Z" fill="#F2F2F2"/>
<path d="M181.815 136.355V145.444H172.727V136.355H181.815Z" fill="#F2F2F2"/>
<path d="M181.815 127.266V136.354H172.727V127.266H181.815Z" fill="#F2F2F2"/>
<path d="M181.815 118.184V127.264H172.727V118.184H181.815Z" fill="#F2F2F2"/>
<path d="M181.815 109.098V118.186H172.727V109.098H181.815Z" fill="#F2F2F2"/>
<path d="M181.815 99.9922V109.098H172.727V99.9922H181.815Z" fill="#F2F2F2"/>
<path d="M181.815 90.9023V99.9911H172.727V90.9023H181.815Z" fill="#F2F2F2"/>
<path d="M181.815 81.8145V90.9023H172.727V81.8145H181.815Z" fill="#F2F2F2"/>
<path d="M181.815 72.7324V81.8131H172.727V72.7324H181.815Z" fill="#F2F2F2"/>
<path d="M181.815 63.6465V72.7352H172.727V63.6465H181.815Z" fill="white"/>
<path d="M181.815 54.541V63.6465H172.727V54.541H181.815Z" fill="white"/>
<path d="M172.727 190.896V200.001H163.639V190.896H172.727Z" fill="#CEE0E0"/>
<path d="M172.727 181.807V190.895H163.639V181.807H172.727Z" fill="#CEE0E0"/>
<path d="M172.727 172.717V181.806H163.639V172.717H172.727Z" fill="#CEE0E0"/>
<path d="M172.727 163.637L172.727 172.717L163.639 172.717V163.637H172.727Z" fill="#CEE0E0"/>
<path d="M172.727 154.549L172.727 163.638L163.639 163.637V154.549H172.727Z" fill="#F2F2F2"/>
<path d="M172.727 145.445V154.55H163.639V145.445H172.727Z" fill="#F2F2F2"/>
<path d="M172.727 136.355V145.444H163.639V136.355H172.727Z" fill="#F2F2F2"/>
<path d="M172.727 127.266V136.354H163.639V127.266H172.727Z" fill="#CEE0E0"/>
<path d="M172.727 118.184V127.264H163.639V118.184H172.727Z" fill="#CEE0E0"/>
<path d="M172.727 109.098V118.186H163.639V109.098H172.727Z" fill="#F2F2F2"/>
<path d="M172.727 99.9922L172.727 109.097L163.639 109.098V99.9922H172.727Z" fill="#F2F2F2"/>
<path d="M172.727 90.9023V99.9911H163.639V90.9023H172.727Z" fill="#F2F2F2"/>
<path d="M172.727 81.8145L172.727 90.9032L163.639 90.9023V81.8145H172.727Z" fill="#F2F2F2"/>
<path d="M172.727 72.7324V81.8131H163.639V72.7324H172.727Z" fill="white"/>
<path d="M172.727 63.6465V72.7352H163.639V63.6465H172.727Z" fill="white"/>
<path d="M172.727 54.541L172.727 63.6458L163.639 63.6465V54.541H172.727Z" fill="white"/>
<path d="M163.64 190.896V200.001H154.535V190.896H163.64Z" fill="#CEE0E0"/>
<path d="M163.64 181.807V190.895H154.535V181.807H163.64Z" fill="#CEE0E0"/>
<path d="M163.64 172.717V181.806H154.535V172.717H163.64Z" fill="#CEE0E0"/>
<path d="M163.64 163.637V172.717H154.535V163.637H163.64Z" fill="#CEE0E0"/>
<path d="M163.64 154.549V163.637H154.535V154.549H163.64Z" fill="#CEE0E0"/>
<path d="M163.64 145.445V154.55H154.535V145.445H163.64Z" fill="#F2F2F2"/>
<path d="M163.64 136.355V145.444H154.535V136.355H163.64Z" fill="#F2F2F2"/>
<path d="M163.64 127.266V136.354H154.535V127.266H163.64Z" fill="#CEE0E0"/>
<path d="M163.64 118.184V127.264H154.535V118.184H163.64Z" fill="#F2F2F2"/>
<path d="M163.64 109.098V118.186H154.535V109.098H163.64Z" fill="#F2F2F2"/>
<path d="M163.64 99.9922V109.098H154.535V99.9922H163.64Z" fill="#F2F2F2"/>
<path d="M163.64 90.9023V99.9911H154.535V90.9023H163.64Z" fill="#F2F2F2"/>
<path d="M163.64 81.8145V90.9023H154.535V81.8145H163.64Z" fill="#F2F2F2"/>
<path d="M163.64 72.7324V81.8131H154.535V72.7324H163.64Z" fill="white"/>
<path d="M163.64 63.6465V72.7352H154.535V63.6465H163.64Z" fill="white"/>
<path d="M154.53 190.896V200.001H145.441V190.896H154.53Z" fill="#CEE0E0"/>
<path d="M154.53 181.807V190.895H145.441V181.807H154.53Z" fill="#CEE0E0"/>
<path d="M154.53 172.717V181.806H145.441V172.717H154.53Z" fill="#CEE0E0"/>
<path d="M154.53 163.637V172.717H145.441V163.637H154.53Z" fill="#CEE0E0"/>
<path d="M154.53 154.549V163.637H145.441V154.549H154.53Z" fill="#CEE0E0"/>
<path d="M154.53 145.445V154.55H145.441V145.445H154.53Z" fill="#CEE0E0"/>
<path d="M154.53 136.355V145.444H145.441V136.355H154.53Z" fill="#CEE0E0"/>
<path d="M154.53 127.266V136.354H145.441V127.266H154.53Z" fill="#CEE0E0"/>
<path d="M154.53 118.184V127.264H145.441V118.184H154.53Z" fill="#F2F2F2"/>
<path d="M154.53 109.098V118.186H145.441V109.098H154.53Z" fill="#F2F2F2"/>
<path d="M154.53 99.9922V109.098H145.441V99.9922H154.53Z" fill="#F2F2F2"/>
<path d="M154.53 90.9023V99.9911H145.441V90.9023H154.53Z" fill="#F2F2F2"/>
<path d="M154.53 81.8145V90.9023H145.441V81.8145H154.53Z" fill="#F2F2F2"/>
<path d="M154.53 72.7324V81.8131H145.441V72.7324H154.53Z" fill="white"/>
<path d="M145.441 190.896V200.001H136.361V190.896H145.441Z" fill="#CEE0E0"/>
<path d="M145.441 181.807V190.895H136.361V181.807H145.441Z" fill="#CEE0E0"/>
<path d="M145.441 172.717V181.806H136.361V172.717H145.441Z" fill="#CEE0E0"/>
<path d="M145.441 163.637V172.717H136.361V163.637H145.441Z" fill="#CEE0E0"/>
<path d="M145.441 154.549L145.442 163.638L136.361 163.637V154.549H145.441Z" fill="#CEE0E0"/>
<path d="M145.441 145.445V154.55H136.361V145.445H145.441Z" fill="#CEE0E0"/>
<path d="M145.441 136.355V145.444H136.361V136.355H145.441Z" fill="#CEE0E0"/>
<path d="M145.441 127.266V136.354H136.361V127.266H145.441Z" fill="#CEE0E0"/>
<path d="M145.441 118.184V127.264H136.361V118.184H145.441Z" fill="#F2F2F2"/>
<path d="M145.441 109.098V118.186H136.361V109.098H145.441Z" fill="#F2F2F2"/>
<path d="M145.441 99.9922V109.098H136.361V99.9922H145.441Z" fill="#F2F2F2"/>
<path d="M145.441 90.9023V99.9911H136.361V90.9023H145.441Z" fill="white"/>
<path d="M145.441 81.8145L145.442 90.9032L136.361 90.9023V81.8145H145.441Z" fill="white"/>
<path d="M145.441 72.7324V81.8131H136.361V72.7324H145.441Z" fill="white"/>
<path d="M136.361 181.807V190.895H127.273V181.807H136.361Z" fill="#CEE0E0"/>
<path d="M136.361 172.717V181.806H127.273V172.717H136.361Z" fill="#CEE0E0"/>
<path d="M136.361 163.637L136.362 172.717L127.273 172.717V163.637H136.361Z" fill="#CEE0E0"/>
<path d="M136.361 154.549L136.362 163.638L127.273 163.637V154.549H136.361Z" fill="#CEE0E0"/>
<path d="M136.361 145.445V154.55H127.273V145.445H136.361Z" fill="#F2F2F2"/>
<path d="M136.361 136.355V145.444H127.273V136.355H136.361Z" fill="#F2F2F2"/>
<path d="M136.361 127.266V136.354H127.273V127.266H136.361Z" fill="#CEE0E0"/>
<path d="M136.361 118.184V127.264H127.273V118.184H136.361Z" fill="#CEE0E0"/>
<path d="M136.361 109.098V118.186H127.273V109.098H136.361Z" fill="white"/>
<path d="M136.361 99.9922L136.362 109.097L127.273 109.098V99.9922H136.361Z" fill="white"/>
<path d="M136.361 90.9023V99.9911H127.273V90.9023H136.361Z" fill="white"/>
<path d="M127.276 181.807V190.895H118.188V181.807H127.276Z" fill="#CEE0E0"/>
<path d="M127.276 172.717V181.807H118.188V172.717H127.276Z" fill="#CEE0E0"/>
<path d="M127.276 163.637L127.276 172.717H118.188L118.188 163.637H127.276Z" fill="#CEE0E0"/>
<path d="M127.276 154.549V163.637H118.188V154.549H127.276Z" fill="#F2F2F2"/>
<path d="M127.276 145.445V154.55H118.188V145.445H127.276Z" fill="#F2F2F2"/>
<path d="M127.276 136.355V145.444H118.188V136.355H127.276Z" fill="#F2F2F2"/>
<path d="M127.276 127.266V136.354H118.188V127.266H127.276Z" fill="#F2F2F2"/>
<path d="M127.276 118.184V127.264H118.188V118.184H127.276Z" fill="#F2F2F2"/>
<path d="M127.276 109.098V118.187H118.188V109.098H127.276Z" fill="white"/>
<path d="M127.276 99.9922L127.276 109.098H118.188L118.188 99.9922H127.276Z" fill="white"/>
<path d="M118.188 181.807V190.895L109.082 190.895V181.807L118.188 181.807Z" fill="#CEE0E0"/>
<path d="M118.188 172.717L118.187 181.806H109.082V172.717L118.188 172.717Z" fill="#CEE0E0"/>
<path d="M118.188 163.637L118.188 172.717L109.082 172.717V163.637H118.188Z" fill="#F2F2F2"/>
<path d="M118.188 154.549L118.187 163.638L109.082 163.637V154.549H118.188Z" fill="#F2F2F2"/>
<path d="M118.188 145.445V154.55H109.082V145.445H118.188Z" fill="#F2F2F2"/>
<path d="M118.188 136.355V145.444H109.082V136.355H118.188Z" fill="#F2F2F2"/>
<path d="M118.188 127.266V136.354H109.082V127.266H118.188Z" fill="#F2F2F2"/>
<path d="M118.188 118.184V127.264H109.082V118.184H118.188Z" fill="#F2F2F2"/>
<path d="M118.188 109.098V118.187L109.082 118.186V109.098L118.188 109.098Z" fill="white"/>
<path d="M109.079 181.807V190.895H99.99V181.807H109.079Z" fill="#CEE0E0"/>
<path d="M109.079 172.717V181.807H99.99V172.717H109.079Z" fill="#CEE0E0"/>
<path d="M109.079 163.637L109.079 172.717H99.99L99.9902 163.637H109.079Z" fill="#F2F2F2"/>
<path d="M109.079 154.549V163.637H99.9902V154.549H109.079Z" fill="#F2F2F2"/>
<path d="M109.079 145.445V154.55H99.9902V145.445H109.079Z" fill="#F2F2F2"/>
<path d="M109.079 136.355V145.444H99.9902V136.355H109.079Z" fill="#F2F2F2"/>
<path d="M109.079 127.266V136.354H99.9902V127.266H109.079Z" fill="#F2F2F2"/>
<path d="M109.079 118.184V127.264H99.9902V118.184H109.079Z" fill="white"/>
<path d="M99.99 181.807V190.895L90.9102 190.895V181.807L99.99 181.807Z" fill="#CEE0E0"/>
<path d="M99.99 172.717L99.9909 181.806H90.9102V172.717L99.99 172.717Z" fill="#CEE0E0"/>
<path d="M99.9902 163.637L99.99 172.717L90.9102 172.717V163.637H99.9902Z" fill="#CEE0E0"/>
<path d="M99.9902 154.549L99.9909 163.638L90.9102 163.637V154.549H99.9902Z" fill="#F2F2F2"/>
<path d="M99.9902 145.445V154.55H90.9102V145.445H99.9902Z" fill="#F2F2F2"/>
<path d="M99.9902 136.355V145.444H90.9102V136.355H99.9902Z" fill="#F2F2F2"/>
<path d="M99.9902 127.266V136.354H90.9102V127.266H99.9902Z" fill="white"/>
<path d="M99.9902 118.184V127.264H90.9102V118.184H99.9902Z" fill="white"/>
<path d="M90.9102 181.807V190.895H81.8223V181.807H90.9102Z" fill="#CEE0E0"/>
<path d="M90.9102 172.717V181.806H81.8223V172.717H90.9102Z" fill="#CEE0E0"/>
<path d="M90.9102 163.637L90.911 172.717L81.8223 172.717V163.637H90.9102Z" fill="#CEE0E0"/>
<path d="M90.9102 154.549L90.911 163.638L81.8223 163.637V154.549H90.9102Z" fill="#F2F2F2"/>
<path d="M90.9102 145.445V154.55H81.8223V145.445H90.9102Z" fill="#F2F2F2"/>
<path d="M90.9102 136.355V145.444H81.8223V136.355H90.9102Z" fill="#F2F2F2"/>
<path d="M90.9102 127.266V136.354H81.8223V127.266H90.9102Z" fill="white"/>
<path d="M90.9102 118.184V127.264H81.8223V118.184H90.9102Z" fill="white"/>
<path d="M81.8251 172.717V181.806H72.7363V172.717H81.8251Z" fill="#CEE0E0"/>
<path d="M81.8251 163.637V172.717H72.7363V163.637H81.8251Z" fill="#CEE0E0"/>
<path d="M81.8251 154.549V163.637H72.7363V154.549H81.8251Z" fill="#CEE0E0"/>
<path d="M81.8251 145.445V154.55H72.7363V145.445H81.8251Z" fill="#F2F2F2"/>
<path d="M81.8251 136.355V145.444H72.7363V136.355H81.8251Z" fill="#F2F2F2"/>
<path d="M81.8251 127.266V136.354H72.7363V127.266H81.8251Z" fill="white"/>
<path d="M72.7363 172.717V181.806H63.6309V172.717H72.7363Z" fill="#CEE0E0"/>
<path d="M72.7363 163.637V172.717H63.6309V163.637H72.7363Z" fill="#CEE0E0"/>
<path d="M72.7363 154.549L72.7356 163.638L63.6309 163.637V154.549H72.7363Z" fill="#CEE0E0"/>
<path d="M72.7363 145.445V154.55H63.6309V145.445H72.7363Z" fill="#CEE0E0"/>
<path d="M72.7363 136.355V145.444H63.6309V136.355H72.7363Z" fill="#F2F2F2"/>
<path d="M45.4518 163.637V172.717H36.3711V163.637H45.4518Z" fill="#F2F2F2"/>
<path d="M45.4518 154.549V163.637H36.3711V154.549H45.4518Z" fill="#F2F2F2"/>
<path d="M45.4518 145.445V154.55H36.3711V145.445H45.4518Z" fill="#F2F2F2"/>
<path d="M45.4518 136.355V145.444H36.3711V136.355H45.4518Z" fill="white"/>
<path d="M36.3739 172.717V181.806H27.2852V172.717H36.3739Z" fill="#F2F2F2"/>
<path d="M36.3739 163.637V172.717H27.2852V163.637H36.3739Z" fill="#F2F2F2"/>
<path d="M36.3739 154.549V163.637H27.2852V154.549H36.3739Z" fill="#F2F2F2"/>
<path d="M36.3739 145.445V154.55H27.2852V145.445H36.3739Z" fill="white"/>
<path d="M36.3739 136.355V145.444H27.2852V136.355H36.3739Z" fill="white"/>
<path d="M27.2802 181.807V190.895H18.1915V181.807H27.2802Z" fill="#F2F2F2"/>
<path d="M27.2802 172.717V181.807H18.1915V172.717H27.2802Z" fill="#F2F2F2"/>
<path d="M27.2801 163.637L27.2802 172.717H18.1915L18.1914 163.637H27.2801Z" fill="#F2F2F2"/>
<path d="M27.2801 154.549V163.637H18.1914V154.549H27.2801Z" fill="white"/>
<path d="M27.2801 145.445V154.55H18.1914V145.445H27.2801Z" fill="white"/>
<path d="M27.2801 136.355V145.444H18.1914V136.355H27.2801Z" fill="white"/>
<path d="M18.1915 181.807V190.895L9.08594 190.895V181.807L18.1915 181.807Z" fill="#F2F2F2"/>
<path d="M18.1915 172.717L18.1907 181.806H9.08594V172.717L18.1915 172.717Z" fill="#F2F2F2"/>
<path d="M18.1914 163.637L18.1915 172.717L9.08594 172.717V163.637H18.1914Z" fill="#F2F2F2"/>
<path d="M18.1914 154.549L18.1907 163.638L9.08594 163.637V154.549H18.1914Z" fill="#F2F2F2"/>
<path d="M18.1914 145.445V154.55H9.08594V145.445H18.1914Z" fill="white"/>
<path d="M18.1914 136.355V145.444H9.08594V136.355H18.1914Z" fill="white"/>
<path d="M9.08872 172.717V181.806H0V172.717H9.08872Z" fill="#F2F2F2"/>
<path d="M9.08872 163.637V172.717H0V163.637H9.08872Z" fill="#F2F2F2"/>
<path d="M9.08872 154.549V163.637H0V154.549H9.08872Z" fill="#F2F2F2"/>
<path d="M9.08872 145.445V154.55H0V145.445H9.08872Z" fill="white"/>
</svg>
