<svg width="290" height="200" viewBox="0 0 290 200" fill="none" xmlns="http://www.w3.org/2000/svg">
<path d="M100.678 0H111.788V11.1076H100.678V0Z" fill="#263238"/>
<path d="M111.788 0H122.9V11.1076H111.788V0Z" fill="#263238"/>
<path d="M122.9 0H134.014V11.1076H122.9V0Z" fill="#263238"/>
<path d="M134.014 0H145.125V11.1076H134.014V0Z" fill="#263238"/>
<path d="M145.125 0H156.236V11.1076H145.125V0Z" fill="#263238"/>
<path d="M156.234 0H167.345V11.1076H156.234V0Z" fill="#263238"/>
<path d="M167.345 0H178.459V11.1076H167.345V0Z" fill="#263238"/>
<path d="M178.459 0H189.573V11.1076H178.459V0Z" fill="#263238"/>
<path d="M189.573 0H200.686V11.1076H189.573V0Z" fill="#263238"/>
<path d="M89.5684 11.1074H100.679V22.2211H89.5684V11.1074Z" fill="#263238"/>
<path d="M100.678 11.1076H111.788V22.2211H100.678V11.1076Z" fill="#13B26B"/>
<path d="M111.788 11.1076H122.9V22.2209L111.788 22.2211V11.1076Z" fill="#13B26B"/>
<path d="M122.9 11.1076H134.014V22.2211L122.9 22.2209V11.1076Z" fill="#13B26B"/>
<path d="M134.014 11.1076H145.125V22.2209L134.014 22.2211V11.1076Z" fill="#13B26B"/>
<path d="M145.125 11.1076H156.236V22.2211L145.125 22.2209V11.1076Z" fill="#13B26B"/>
<path d="M156.234 11.1076H167.345V22.2211H156.234V11.1076Z" fill="#13B26B"/>
<path d="M167.345 11.1076H178.459V22.2209L167.345 22.2211V11.1076Z" fill="#13B26B"/>
<path d="M178.459 11.1076H189.573V22.2211L178.459 22.2209V11.1076Z" fill="#13B26B"/>
<path d="M189.573 11.1076H200.686V22.2211H189.573V11.1076Z" fill="#13B26B"/>
<path d="M200.688 11.1074H211.792V22.2211H200.688V11.1074Z" fill="#263238"/>
<path d="M78.4551 22.2207L89.5684 22.2211L89.5688 33.3313H78.4551V22.2207Z" fill="#263238"/>
<path d="M89.5684 22.2211H100.679V33.3313H89.5688L89.5684 22.2211Z" fill="#13B26B"/>
<path d="M100.678 22.2211H111.788V33.3313H100.678V22.2211Z" fill="#13B26B"/>
<path d="M111.788 22.2211L122.9 22.2209L122.9 33.3313H111.788V22.2211Z" fill="#00874B"/>
<path d="M122.9 22.2209L134.014 22.2211V33.3313H122.9L122.9 22.2209Z" fill="#00874B"/>
<path d="M134.014 22.2211L145.125 22.2209L145.124 33.3313H134.014V22.2211Z" fill="#00874B"/>
<path d="M145.125 22.2209L156.236 22.2211V33.3313H145.124L145.125 22.2209Z" fill="#13B26B"/>
<path d="M156.234 22.2211H167.345V33.3313H156.234V22.2211Z" fill="#00874B"/>
<path d="M167.345 22.2211L178.459 22.2209L178.459 33.3313H167.345V22.2211Z" fill="#13B26B"/>
<path d="M178.459 22.2209L189.573 22.2211V33.3313H178.459L178.459 22.2209Z" fill="#00874B"/>
<path d="M189.573 22.2211H200.686V33.3313H189.573V22.2211Z" fill="#00874B"/>
<path d="M200.688 22.2211H211.792V33.3313H200.688V22.2211Z" fill="#13B26B"/>
<path d="M211.791 22.2207H222.905V33.3313H211.791V22.2207Z" fill="#263238"/>
<path d="M78.4551 33.3313H89.5688L89.5687 44.4455H78.4551L78.4551 33.3313Z" fill="#263238"/>
<path d="M89.5688 33.3313H100.679V44.4457L89.5687 44.4455L89.5688 33.3313Z" fill="#13B26B"/>
<path d="M100.678 33.3313H111.788V44.4457H100.678V33.3313Z" fill="#00874B"/>
<path d="M111.789 33.3319L122.9 33.3313L122.9 44.4455L111.788 44.4457L111.789 33.3319Z" fill="#00874B"/>
<path d="M122.9 33.3313H134.014V44.4457L122.9 44.4455L122.9 33.3313Z" fill="#00874B"/>
<path d="M134.014 33.3313H145.124L145.125 44.4455L134.014 44.4457V33.3313Z" fill="#00874B"/>
<path d="M145.124 33.3313H156.236V44.4457L145.125 44.4455L145.124 33.3313Z" fill="#00695C"/>
<path d="M156.234 33.3313H167.345V44.4457H156.234V33.3313Z" fill="#13B26B"/>
<path d="M167.345 33.3313H178.459L178.459 44.4455L167.345 44.4457V33.3313Z" fill="#00874B"/>
<path d="M178.459 33.3313H189.573V44.4457L178.459 44.4455L178.459 33.3313Z" fill="#00874B"/>
<path d="M189.573 33.3313H200.686V44.4457H189.573V33.3313Z" fill="#00874B"/>
<path d="M200.688 33.3313H211.792V44.4457H200.688V33.3313Z" fill="#00874B"/>
<path d="M211.791 33.3313H222.905V44.4457H211.791V33.3313Z" fill="#13B26B"/>
<path d="M222.905 33.3313L234.018 33.332V44.4457H222.905V33.3313Z" fill="#263238"/>
<path d="M67.3438 44.4453L78.4551 44.4455L78.4544 55.5529H67.3438V44.4453Z" fill="#263238"/>
<path d="M78.4551 44.4455H89.5687L89.5688 55.5529H78.4544L78.4551 44.4455Z" fill="#00874B"/>
<path d="M89.5687 44.4455L100.679 44.4457V55.5529H89.5688L89.5687 44.4455Z" fill="#00874B"/>
<path d="M100.678 44.4457H111.788V55.5529H100.678V44.4457Z" fill="#00874B"/>
<path d="M111.788 44.4457L122.9 44.4455L122.9 55.5529H111.788V44.4457Z" fill="#00874B"/>
<path d="M122.9 44.4455L134.014 44.4457V55.5529H122.9L122.9 44.4455Z" fill="#00874B"/>
<path d="M134.014 44.4457L145.125 44.4455L145.124 55.5529H134.014V44.4457Z" fill="#00874B"/>
<path d="M145.125 44.4455L156.236 44.4457V55.5529H145.124L145.125 44.4455Z" fill="#00874B"/>
<path d="M156.234 44.4457H167.345V55.5529H156.234V44.4457Z" fill="#00874B"/>
<path d="M167.345 44.4457L178.459 44.4455L178.459 55.5529H167.345V44.4457Z" fill="#00874B"/>
<path d="M178.459 44.4455L189.573 44.4457V55.5529H178.459L178.459 44.4455Z" fill="#00874B"/>
<path d="M189.573 44.4457H200.686V55.5529H189.573V44.4457Z" fill="#00874B"/>
<path d="M200.688 44.4457H211.792V55.5529H200.688V44.4457Z" fill="#00874B"/>
<path d="M211.791 44.4457H222.905V55.5529H211.791V44.4457Z" fill="#00695C"/>
<path d="M222.905 44.4457H234.018V55.5529H222.905V44.4457Z" fill="#263238"/>
<path d="M56.2344 55.5527H67.345V66.6634H56.2344V55.5527Z" fill="#263238"/>
<path d="M67.3438 55.5529H78.4544V66.6634H67.3438V55.5529Z" fill="#00695C"/>
<path d="M78.4544 55.5529H89.5688V66.6634H78.4544V55.5529Z" fill="#00695C"/>
<path d="M89.5688 55.5529H100.679V66.6634H89.5688V55.5529Z" fill="#00874B"/>
<path d="M100.678 55.5529H111.788V66.6634H100.678V55.5529Z" fill="#00874B"/>
<path d="M111.788 55.5529H122.9V66.6634H111.788V55.5529Z" fill="#00874B"/>
<path d="M122.9 55.5529H134.014V66.6634H122.9V55.5529Z" fill="#00874B"/>
<path d="M134.014 55.5529H145.124V66.6634H134.014V55.5529Z" fill="#00874B"/>
<path d="M145.124 55.5529H156.236V66.6634H145.124V55.5529Z" fill="#00695C"/>
<path d="M156.234 55.5529H167.345V66.6634H156.234V55.5529Z" fill="#00874B"/>
<path d="M167.345 55.5529H178.459V66.6634H167.345V55.5529Z" fill="#00874B"/>
<path d="M178.459 55.5529H189.573V66.6634H178.459V55.5529Z" fill="#00874B"/>
<path d="M189.573 55.5529H200.686V66.6634H189.573V55.5529Z" fill="#00874B"/>
<path d="M200.688 55.5529H211.792V66.6634H200.688V55.5529Z" fill="#00695C"/>
<path d="M211.791 55.5529H222.905V66.6634H211.791V55.5529Z" fill="#00695C"/>
<path d="M222.905 55.5529H234.018V66.6634H222.905V55.5529Z" fill="#263238"/>
<path d="M234.02 55.5527H245.13V66.6634H234.02V55.5527Z" fill="#263238"/>
<path d="M245.129 55.5527H256.236V66.6634H245.129V55.5527Z" fill="#263238"/>
<path d="M34.0098 66.6641H45.1204V77.7777H34.0098V66.6641Z" fill="#263238"/>
<path d="M45.1191 66.6641H56.2328V77.7777H45.1191V66.6641Z" fill="#263238"/>
<path d="M56.2344 66.6634H67.345V77.7777H56.2344V66.6634Z" fill="#13B26B"/>
<path d="M67.3438 66.6634H78.4544V77.7777H67.3438V66.6634Z" fill="#13B26B"/>
<path d="M78.4544 66.6634H89.5688V77.7777H78.4544V66.6634Z" fill="#00695C"/>
<path d="M89.5688 66.6634H100.679V77.7777H89.5688V66.6634Z" fill="#00695C"/>
<path d="M100.678 66.6634H111.788V77.7777H100.678V66.6634Z" fill="#00874B"/>
<path d="M111.788 66.6634H122.9V77.7777H111.788V66.6634Z" fill="#00874B"/>
<path d="M122.9 66.6634H134.014V77.7777H122.9V66.6634Z" fill="#00695C"/>
<path d="M134.014 66.6634H145.124V77.7777H134.014V66.6634Z" fill="#00695C"/>
<path d="M145.124 66.6634H156.236V77.7777H145.124V66.6634Z" fill="#00874B"/>
<path d="M156.234 66.6634H167.345V77.7777H156.234V66.6634Z" fill="#00874B"/>
<path d="M167.345 66.6634H178.459V77.7777H167.345V66.6634Z" fill="#00874B"/>
<path d="M178.459 66.6634H189.573V77.7777H178.459V66.6634Z" fill="#00874B"/>
<path d="M189.573 66.6634H200.686V77.7777H189.573V66.6634Z" fill="#00874B"/>
<path d="M200.688 66.6634H211.792V77.7777H200.688V66.6634Z" fill="#00695C"/>
<path d="M211.791 66.6634H222.905V77.7777H211.791V66.6634Z" fill="#00695C"/>
<path d="M222.905 66.6634H234.018V77.7777H222.905V66.6634Z" fill="#13B26B"/>
<path d="M234.02 66.6634H245.13V77.7777H234.02V66.6634Z" fill="#13B26B"/>
<path d="M245.129 66.6634H256.236V77.7777H245.129V66.6634Z" fill="#13B26B"/>
<path d="M256.236 66.6634L267.35 66.6641V77.7777H256.236V66.6634Z" fill="#263238"/>
<path d="M22.8984 77.7773L34.0098 77.7777L34.0091 88.891H22.8984V77.7773Z" fill="#263238"/>
<path d="M34.0098 77.7777H45.1204V88.891H34.0091L34.0098 77.7777Z" fill="#13B26B"/>
<path d="M45.1191 77.7777H56.2328V88.891H45.1191V77.7777Z" fill="#13B26B"/>
<path d="M56.2344 77.7777H67.345V88.891H56.2344V77.7777Z" fill="#13B26B"/>
<path d="M67.3438 77.7777H78.4544V88.891H67.3438V77.7777Z" fill="#13B26B"/>
<path d="M78.4544 77.7777H89.5688V88.891H78.4544V77.7777Z" fill="#13B26B"/>
<path d="M89.5688 77.7777H100.679V88.891H89.5688V77.7777Z" fill="#00695C"/>
<path d="M100.678 77.7777H111.788V88.891H100.678V77.7777Z" fill="#00695C"/>
<path d="M111.788 77.7777H122.9V88.891H111.788V77.7777Z" fill="#00695C"/>
<path d="M122.9 77.7777H134.014V88.891H122.9V77.7777Z" fill="#00695C"/>
<path d="M134.014 77.7777H145.124V88.891H134.014V77.7777Z" fill="#00874B"/>
<path d="M145.124 77.7777H156.236V88.891H145.124V77.7777Z" fill="#00874B"/>
<path d="M156.234 77.7777H167.345V88.891H156.234V77.7777Z" fill="#00874B"/>
<path d="M167.345 77.7777H178.459V88.891H167.345V77.7777Z" fill="#13B26B"/>
<path d="M178.459 77.7777H189.573V88.891H178.459V77.7777Z" fill="#13B26B"/>
<path d="M189.573 77.7777H200.686V88.891H189.573V77.7777Z" fill="#00695C"/>
<path d="M200.688 77.7777H211.792V88.891H200.688V77.7777Z" fill="#00695C"/>
<path d="M211.791 77.7777H222.905V88.891H211.791V77.7777Z" fill="#13B26B"/>
<path d="M222.905 77.7777H234.018V88.891H222.905V77.7777Z" fill="#13B26B"/>
<path d="M234.02 77.7777H245.13V88.891H234.02V77.7777Z" fill="#13B26B"/>
<path d="M245.129 77.7777H256.236V88.891H245.129V77.7777Z" fill="#00874B"/>
<path d="M256.236 77.7777H267.35V88.891H256.236V77.7777Z" fill="#13B26B"/>
<path d="M267.35 77.7777L278.463 77.7773V88.891H267.35V77.7777Z" fill="#263238"/>
<path d="M11.7871 88.8906L22.8984 88.891L22.8977 100.004H11.7871V88.8906Z" fill="#263238"/>
<path d="M22.8984 88.891H34.0091L34.0091 100.004L22.8977 100.004L22.8984 88.891Z" fill="#13B26B"/>
<path d="M34.0091 88.891H45.1204V100.004L34.0091 100.004L34.0091 88.891Z" fill="#13B26B"/>
<path d="M45.1191 88.891H56.2328V100.004H45.1191V88.891Z" fill="#00874B"/>
<path d="M56.2344 88.891H67.345V100.004H56.2344V88.891Z" fill="#13B26B"/>
<path d="M67.3438 88.891H78.4544V100.004H67.3438V88.891Z" fill="#00874B"/>
<path d="M78.4544 88.891H89.5688L89.5687 100.004L78.4544 100.004V88.891Z" fill="#13B26B"/>
<path d="M89.5688 88.891H100.679V100.004L89.5687 100.004L89.5688 88.891Z" fill="#13B26B"/>
<path d="M100.678 88.891H111.788V100.004H100.678V88.891Z" fill="#13B26B"/>
<path d="M111.788 88.891H122.9L122.9 100.004L111.788 100.004V88.891Z" fill="#13B26B"/>
<path d="M122.9 88.891H134.014V100.004L122.9 100.004L122.9 88.891Z" fill="#13B26B"/>
<path d="M134.014 88.891H145.124L145.125 100.004L134.014 100.004V88.891Z" fill="#00874B"/>
<path d="M145.124 88.891H156.236V100.004L145.125 100.004L145.124 88.891Z" fill="#00874B"/>
<path d="M156.234 88.891H167.345V100.004H156.234V88.891Z" fill="#13B26B"/>
<path d="M167.345 88.891H178.459L178.459 100.004L167.345 100.004V88.891Z" fill="#13B26B"/>
<path d="M178.459 88.891H189.573V100.004L178.459 100.004L178.459 88.891Z" fill="#13B26B"/>
<path d="M189.573 88.891H200.686V100.004H189.573V88.891Z" fill="#13B26B"/>
<path d="M200.688 88.891H211.792V100.004H200.688V88.891Z" fill="#13B26B"/>
<path d="M211.791 88.891H222.905V100.004H211.791V88.891Z" fill="#13B26B"/>
<path d="M222.905 88.891H234.018V100.004H222.905V88.891Z" fill="#13B26B"/>
<path d="M234.02 88.891H245.13V100.004H234.02V88.891Z" fill="#13B26B"/>
<path d="M245.129 88.891H256.236V100.004H245.129V88.891Z" fill="#13B26B"/>
<path d="M256.236 88.891H267.35L267.35 100.004L256.236 100.004V88.891Z" fill="#00874B"/>
<path d="M267.35 88.891H278.463V100.004L267.35 100.004L267.35 88.891Z" fill="#13B26B"/>
<path d="M278.465 88.8906H289.575V100.004H278.465V88.8906Z" fill="#263238"/>
<path d="M0.673828 100.004L11.7871 100.004L11.7875 111.108H0.673828V100.004Z" fill="#263238"/>
<path d="M11.7871 100.004H22.8977V111.108H11.7875L11.7871 100.004Z" fill="#13B26B"/>
<path d="M22.8977 100.004L34.0091 100.004L34.0091 111.108H22.8977V100.004Z" fill="#00874B"/>
<path d="M34.0091 100.004L45.1204 100.004V111.108H34.0091L34.0091 100.004Z" fill="#13B26B"/>
<path d="M45.1191 100.004H56.2328V111.108H45.1191V100.004Z" fill="#00874B"/>
<path d="M56.2344 100.004H67.345V111.108H56.2344V100.004Z" fill="#00874B"/>
<path d="M67.3438 100.004H78.4544V111.108H67.3438V100.004Z" fill="#13B26B"/>
<path d="M78.4544 100.004L89.5687 100.004L89.5688 111.108H78.4544V100.004Z" fill="#13B26B"/>
<path d="M89.5687 100.004L100.679 100.004V111.108H89.5688L89.5687 100.004Z" fill="#13B26B"/>
<path d="M100.678 100.004H111.788V111.108H100.678V100.004Z" fill="#00874B"/>
<path d="M111.788 100.004L122.9 100.004L122.9 111.108H111.788V100.004Z" fill="#00874B"/>
<path d="M122.9 100.004L134.014 100.004V111.108H122.9L122.9 100.004Z" fill="#00874B"/>
<path d="M134.014 100.004L145.125 100.004L145.124 111.108H134.014V100.004Z" fill="#13B26B"/>
<path d="M145.125 100.004L156.236 100.004V111.108H145.124L145.125 100.004Z" fill="#00874B"/>
<path d="M156.234 100.004H167.345V111.108H156.234V100.004Z" fill="#13B26B"/>
<path d="M167.345 100.004L178.459 100.004L178.459 111.108H167.345V100.004Z" fill="#00874B"/>
<path d="M178.459 100.004L189.573 100.004V111.108H178.459L178.459 100.004Z" fill="#00874B"/>
<path d="M189.573 100.004H200.686V111.108H189.573V100.004Z" fill="#13B26B"/>
<path d="M200.688 100.004H211.792V111.108H200.688V100.004Z" fill="#13B26B"/>
<path d="M211.791 100.004H222.905V111.108H211.791V100.004Z" fill="#00874B"/>
<path d="M222.905 100.004H234.018V111.108H222.905V100.004Z" fill="#00874B"/>
<path d="M234.02 100.004H245.13V111.108H234.02V100.004Z" fill="#00874B"/>
<path d="M245.129 100.004H256.236V111.108H245.129V100.004Z" fill="#00874B"/>
<path d="M256.236 100.004L267.35 100.004L267.35 111.108H256.236V100.004Z" fill="#13B26B"/>
<path d="M267.35 100.004L278.463 100.004V111.108H267.35L267.35 100.004Z" fill="#13B26B"/>
<path d="M278.465 100.004H289.575V111.108H278.465V100.004Z" fill="#263238"/>
<path d="M0.673828 111.108H11.7875V122.223H0.673828V111.108Z" fill="#263238"/>
<path d="M11.7871 111.109L22.8977 111.108V122.223H11.7875L11.7871 111.109Z" fill="#13B26B"/>
<path d="M22.8984 111.109L34.0091 111.108V122.223H22.8977L22.8984 111.109Z" fill="#13B26B"/>
<path d="M34.0098 111.109L45.1204 111.108V122.223H34.0091L34.0098 111.109Z" fill="#00874B"/>
<path d="M45.1191 111.108H56.2328V122.223H45.1191V111.108Z" fill="#00874B"/>
<path d="M56.2344 111.108H67.345V122.223H56.2344V111.108Z" fill="#13B26B"/>
<path d="M67.3438 111.108H78.4544V122.223H67.3438V111.108Z" fill="#13B26B"/>
<path d="M78.4551 111.109L89.5688 111.108V122.223H78.4544L78.4551 111.109Z" fill="#00874B"/>
<path d="M89.5684 111.109L100.679 111.108V122.223H89.5688L89.5684 111.109Z" fill="#00874B"/>
<path d="M100.678 111.108H111.788V122.223H100.678V111.108Z" fill="#00874B"/>
<path d="M111.789 111.109L122.9 111.108V122.223H111.788L111.789 111.109Z" fill="#00874B"/>
<path d="M122.9 111.109L134.014 111.108V122.223H122.9L122.9 111.109Z" fill="#00874B"/>
<path d="M134.014 111.109L145.124 111.108V122.223H134.014L134.014 111.109Z" fill="#13B26B"/>
<path d="M145.125 111.109L156.236 111.108V122.223H145.124L145.125 111.109Z" fill="#13B26B"/>
<path d="M156.234 111.108H167.345V122.223H156.234V111.108Z" fill="#13B26B"/>
<path d="M167.346 111.109L178.459 111.108V122.223H167.345L167.346 111.109Z" fill="#00874B"/>
<path d="M178.459 111.109L189.573 111.108V122.223H178.459L178.459 111.109Z" fill="#00874B"/>
<path d="M189.572 111.109L200.686 111.108V122.223H189.573L189.572 111.109Z" fill="#13B26B"/>
<path d="M200.688 111.108H211.792V122.223H200.688V111.108Z" fill="#00874B"/>
<path d="M211.791 111.108H222.905V122.223H211.791V111.108Z" fill="#00874B"/>
<path d="M222.904 111.109L234.018 111.108V122.223H222.905L222.904 111.109Z" fill="#00874B"/>
<path d="M234.02 111.108H245.13V122.223H234.02V111.108Z" fill="#00874B"/>
<path d="M245.129 111.108H256.236V122.223H245.129V111.108Z" fill="#00874B"/>
<path d="M256.236 111.108H267.35V122.223H256.236V111.108Z" fill="#00874B"/>
<path d="M267.35 111.109L278.463 111.108V122.223H267.35L267.35 111.109Z" fill="#13B26B"/>
<path d="M278.465 111.108H289.575V122.223H278.465V111.108Z" fill="#263238"/>
<path d="M0.673828 122.223H11.7875V133.336H0.673828L0.673828 122.223Z" fill="#263238"/>
<path d="M11.7875 122.223H22.8977V133.336L11.7875 133.336V122.223Z" fill="#13B26B"/>
<path d="M22.8977 122.223H34.0091L34.0091 133.336L22.8977 133.336V122.223Z" fill="#00874B"/>
<path d="M34.0091 122.223H45.1204V133.336L34.0091 133.336L34.0091 122.223Z" fill="#00874B"/>
<path d="M45.1191 122.223H56.2328V133.336H45.1191V122.223Z" fill="#00874B"/>
<path d="M56.2344 122.223H67.345V133.336H56.2344V122.223Z" fill="#13B26B"/>
<path d="M67.3438 122.223H78.4544V133.336H67.3438V122.223Z" fill="#00874B"/>
<path d="M78.4544 122.223H89.5688L89.5687 133.336L78.4544 133.336V122.223Z" fill="#00874B"/>
<path d="M89.5688 122.223H100.679V133.336L89.5687 133.336L89.5688 122.223Z" fill="#00874B"/>
<path d="M100.678 122.223H111.788V133.336H100.678V122.223Z" fill="#00874B"/>
<path d="M111.788 122.223H122.9L122.9 133.336L111.788 133.336V122.223Z" fill="#00874B"/>
<path d="M122.9 122.223H134.014V133.336L122.9 133.336L122.9 122.223Z" fill="#00874B"/>
<path d="M134.014 122.223H145.124L145.125 133.336L134.014 133.336V122.223Z" fill="#00874B"/>
<path d="M145.124 122.223H156.236V133.336L145.125 133.336L145.124 122.223Z" fill="#13B26B"/>
<path d="M156.234 122.223H167.345V133.336H156.234V122.223Z" fill="#00874B"/>
<path d="M167.345 122.223H178.459L178.459 133.336L167.345 133.336V122.223Z" fill="#00874B"/>
<path d="M178.459 122.223H189.573V133.336L178.459 133.336L178.459 122.223Z" fill="#00874B"/>
<path d="M189.573 122.223H200.686V133.336H189.573V122.223Z" fill="#00874B"/>
<path d="M200.688 122.223H211.792V133.336H200.688V122.223Z" fill="#00874B"/>
<path d="M211.791 122.223H222.905V133.336H211.791V122.223Z" fill="#00874B"/>
<path d="M222.905 122.223H234.018V133.336H222.905V122.223Z" fill="#00874B"/>
<path d="M234.02 122.223H245.13V133.336H234.02V122.223Z" fill="#00874B"/>
<path d="M245.129 122.223H256.236V133.336H245.129V122.223Z" fill="#00874B"/>
<path d="M256.236 122.223H267.35L267.35 133.336L256.236 133.336V122.223Z" fill="#00874B"/>
<path d="M267.35 122.223H278.463V133.336L267.35 133.336L267.35 122.223Z" fill="#00874B"/>
<path d="M278.465 122.223H289.575V133.336H278.465V122.223Z" fill="#263238"/>
<path d="M0.673828 133.336H11.7875V144.45H0.673828L0.673828 133.336Z" fill="#263238"/>
<path d="M11.7875 133.336L22.8977 133.336V144.45H11.7875V133.336Z" fill="#00695C"/>
<path d="M22.8977 133.336L34.0091 133.336L34.0091 144.45H22.8977V133.336Z" fill="#00874B"/>
<path d="M34.0091 133.336L45.1204 133.336V144.45H34.0091L34.0091 133.336Z" fill="#00874B"/>
<path d="M45.1191 133.336H56.2328V144.45H45.1191V133.336Z" fill="#00874B"/>
<path d="M56.2344 133.336H67.345V144.45H56.2344V133.336Z" fill="#00874B"/>
<path d="M67.3438 133.336H78.4544V144.45H67.3438V133.336Z" fill="#00874B"/>
<path d="M78.4544 133.336L89.5687 133.336L89.5688 144.45H78.4544V133.336Z" fill="#00874B"/>
<path d="M89.5687 133.336L100.679 133.336V144.45H89.5688L89.5687 133.336Z" fill="#00874B"/>
<path d="M100.678 133.336H111.788V144.45H100.678V133.336Z" fill="#00695C"/>
<path d="M111.788 133.336L122.9 133.336L122.9 144.45H111.788V133.336Z" fill="#00874B"/>
<path d="M122.9 133.336L134.014 133.336V144.45H122.9L122.9 133.336Z" fill="#00874B"/>
<path d="M134.014 133.336L145.125 133.336L145.124 144.45H134.014V133.336Z" fill="#00874B"/>
<path d="M145.125 133.336L156.236 133.336V144.45H145.124L145.125 133.336Z" fill="#13B26B"/>
<path d="M156.234 133.336H167.345V144.45H156.234V133.336Z" fill="#00874B"/>
<path d="M167.345 133.336L178.459 133.336L178.459 144.45H167.345V133.336Z" fill="#00874B"/>
<path d="M178.459 133.336L189.573 133.336V144.45H178.459L178.459 133.336Z" fill="#00874B"/>
<path d="M189.573 133.336H200.686V144.45H189.573V133.336Z" fill="#00874B"/>
<path d="M200.688 133.336H211.792V144.45H200.688V133.336Z" fill="#00874B"/>
<path d="M211.791 133.336H222.905V144.45H211.791V133.336Z" fill="#00874B"/>
<path d="M222.905 133.336H234.018V144.45H222.905V133.336Z" fill="#00874B"/>
<path d="M234.02 133.336H245.13V144.45H234.02V133.336Z" fill="#00874B"/>
<path d="M245.129 133.336H256.236V144.45H245.129V133.336Z" fill="#00874B"/>
<path d="M256.236 133.336L267.35 133.336L267.35 144.45H256.236V133.336Z" fill="#00874B"/>
<path d="M267.35 133.336L278.463 133.336V144.45H267.35L267.35 133.336Z" fill="#00695C"/>
<path d="M278.465 133.336H289.575V144.45H278.465V133.336Z" fill="#263238"/>
<path d="M0.673828 144.451H11.7875V155.556H0.673828V144.451Z" fill="#263238"/>
<path d="M11.7875 144.451H22.8977V155.556H11.7875V144.451Z" fill="#00695C"/>
<path d="M22.8977 144.451H34.0091V155.556H22.8977V144.451Z" fill="#00695C"/>
<path d="M34.0091 144.451H45.1204V155.556H34.0091V144.451Z" fill="#00874B"/>
<path d="M45.1191 144.451H56.2328V155.556H45.1191V144.451Z" fill="#00874B"/>
<path d="M56.2344 144.451H67.345V155.556H56.2344V144.451Z" fill="#00874B"/>
<path d="M67.3438 144.451H78.4544V155.556H67.3438V144.451Z" fill="#00874B"/>
<path d="M78.4544 144.451H89.5688V155.556H78.4544V144.451Z" fill="#00874B"/>
<path d="M89.5688 144.451H100.679V155.556H89.5688V144.451Z" fill="#00874B"/>
<path d="M100.678 144.451H111.788V155.556H100.678V144.451Z" fill="#00695C"/>
<path d="M111.788 144.451H122.9V155.556H111.788V144.451Z" fill="#00695C"/>
<path d="M122.9 144.451H134.014V155.556H122.9V144.451Z" fill="#00874B"/>
<path d="M134.014 144.451H145.124V155.556H134.014V144.451Z" fill="#00874B"/>
<path d="M145.124 144.451H156.236V155.556H145.124V144.451Z" fill="#00874B"/>
<path d="M156.234 144.451H167.345V155.556H156.234V144.451Z" fill="#00874B"/>
<path d="M167.345 144.451H178.459V155.556H167.345V144.451Z" fill="#00874B"/>
<path d="M178.459 144.451H189.573V155.556H178.459V144.451Z" fill="#00874B"/>
<path d="M189.573 144.451H200.686V155.556H189.573V144.451Z" fill="#00874B"/>
<path d="M200.688 144.451H211.792V155.556H200.688V144.451Z" fill="#00874B"/>
<path d="M211.791 144.451H222.905V155.556H211.791V144.451Z" fill="#00874B"/>
<path d="M222.905 144.451H234.018V155.556H222.905V144.451Z" fill="#00874B"/>
<path d="M234.02 144.451H245.13V155.556H234.02V144.451Z" fill="#00874B"/>
<path d="M245.129 144.451H256.236V155.556H245.129V144.451Z" fill="#00874B"/>
<path d="M256.236 144.451H267.35V155.556H256.236V144.451Z" fill="#00874B"/>
<path d="M267.35 144.451H278.463V155.556H267.35V144.451Z" fill="#263238"/>
<path d="M0.673828 155.555H11.7875V166.668H0.673828V155.555Z" fill="#263238"/>
<path d="M11.7875 155.555H22.8977V166.668H11.7875V155.555Z" fill="#00695C"/>
<path d="M22.8977 155.555H34.0091V166.668H22.8977V155.555Z" fill="#00695C"/>
<path d="M34.0091 155.555H45.1204V166.668H34.0091V155.555Z" fill="#00695C"/>
<path d="M45.1191 155.555H56.2328V166.668H45.1191V155.555Z" fill="#00874B"/>
<path d="M56.2344 155.555H67.345V166.668H56.2344V155.555Z" fill="#00874B"/>
<path d="M67.3438 155.555H78.4544V166.668H67.3438V155.555Z" fill="#00874B"/>
<path d="M78.4544 155.555H89.5688V166.668H78.4544V155.555Z" fill="#00874B"/>
<path d="M89.5688 155.555H100.679V166.668H89.5688V155.555Z" fill="#00695C"/>
<path d="M100.678 155.555H111.788V166.668H100.678V155.555Z" fill="#00695C"/>
<path d="M111.788 155.555H122.9V166.668H111.788V155.555Z" fill="#00695C"/>
<path d="M122.9 155.555H134.014V166.668H122.9V155.555Z" fill="#00695C"/>
<path d="M134.014 155.555H145.124V166.668H134.014V155.555Z" fill="#00874B"/>
<path d="M145.124 155.555H156.236V166.668H145.124V155.555Z" fill="#00874B"/>
<path d="M156.234 155.555H167.345V166.668H156.234V155.555Z" fill="#00874B"/>
<path d="M167.345 155.555H178.459V166.668H167.345V155.555Z" fill="#00695C"/>
<path d="M178.459 155.555H189.573V166.668H178.459V155.555Z" fill="#00695C"/>
<path d="M189.573 155.555H200.686V166.668H189.573V155.555Z" fill="#00874B"/>
<path d="M200.688 155.555H211.792V166.668H200.688V155.555Z" fill="#00874B"/>
<path d="M211.791 155.555H222.905V166.668H211.791V155.555Z" fill="#00874B"/>
<path d="M222.905 155.555H234.018V166.668H222.905V155.555Z" fill="#00874B"/>
<path d="M234.02 155.555H245.13V166.668H234.02V155.555Z" fill="#00874B"/>
<path d="M245.129 155.555H256.236V166.668H245.129V155.555Z" fill="#00874B"/>
<path d="M256.236 155.555H267.35V166.668H256.236V155.555Z" fill="#00695C"/>
<path d="M267.35 155.555H278.463V166.668H267.35V155.555Z" fill="#263238"/>
<path d="M11.7875 166.668H22.8977V177.782H11.7871L11.7875 166.668Z" fill="#263238"/>
<path d="M22.8977 166.668H34.0091V177.782H22.8977V166.668Z" fill="#00695C"/>
<path d="M34.0091 166.668H45.1204V177.782H34.0091V166.668Z" fill="#00695C"/>
<path d="M45.1191 166.668H56.2328V177.782H45.1191V166.668Z" fill="#00695C"/>
<path d="M56.2344 166.668H67.345V177.782H56.2344V166.668Z" fill="#00695C"/>
<path d="M67.3438 166.668H78.4544V177.782H67.3438V166.668Z" fill="#00695C"/>
<path d="M78.4544 166.668H89.5688V177.782H78.4544V166.668Z" fill="#00695C"/>
<path d="M89.5688 166.668H100.679V177.782H89.5688V166.668Z" fill="#00695C"/>
<path d="M100.678 166.668H111.788V177.782H100.678V166.668Z" fill="#00695C"/>
<path d="M111.788 166.668H122.9V177.782H111.788V166.668Z" fill="#00695C"/>
<path d="M122.9 166.668H134.014V177.782H122.9V166.668Z" fill="#00695C"/>
<path d="M134.014 166.668H145.124V177.782H134.014V166.668Z" fill="#00695C"/>
<path d="M145.124 166.668H156.236V177.782H145.124V166.668Z" fill="#00695C"/>
<path d="M156.234 166.668H167.345V177.782H156.234V166.668Z" fill="#00695C"/>
<path d="M167.345 166.668H178.459V177.782H167.345V166.668Z" fill="#00695C"/>
<path d="M178.459 166.668H189.573V177.782H178.459V166.668Z" fill="#00695C"/>
<path d="M189.573 166.668H200.686V177.782H189.573V166.668Z" fill="#00695C"/>
<path d="M200.688 166.668H211.792V177.782H200.688V166.668Z" fill="#00695C"/>
<path d="M211.791 166.668H222.905V177.782H211.791V166.668Z" fill="#00874B"/>
<path d="M222.905 166.668H234.018V177.782H222.905V166.668Z" fill="#00874B"/>
<path d="M234.02 166.668H245.13V177.782H234.02V166.668Z" fill="#00695C"/>
<path d="M245.129 166.668H256.236V177.782H245.129V166.668Z" fill="#00695C"/>
<path d="M256.236 166.668H267.35V177.782H256.236V166.668Z" fill="#00695C"/>
<path d="M267.35 166.668H278.463V177.782H267.35V166.668Z" fill="#263238"/>
<path d="M22.8984 177.783H34.0091V188.897H22.8984V177.783Z" fill="#263238"/>
<path d="M34.0091 177.783H45.1204V188.897H34.0091V177.783Z" fill="#00695C"/>
<path d="M45.1191 177.783H56.2328V188.897H45.1191V177.783Z" fill="#00695C"/>
<path d="M56.2344 177.783H67.345V188.897H56.2344V177.783Z" fill="#00695C"/>
<path d="M67.3438 177.783H78.4544V188.897H67.3438V177.783Z" fill="#00695C"/>
<path d="M78.4544 177.783H89.5688V188.897H78.4544V177.783Z" fill="#00695C"/>
<path d="M89.5688 177.783H100.679V188.897H89.5688V177.783Z" fill="#00695C"/>
<path d="M100.678 177.783H111.788V188.897H100.678V177.783Z" fill="#00695C"/>
<path d="M111.788 177.783H122.9V188.897H111.788V177.783Z" fill="#00695C"/>
<path d="M122.9 177.783H134.014V188.897H122.9V177.783Z" fill="#00695C"/>
<path d="M134.014 177.783H145.124V188.897H134.014V177.783Z" fill="#00695C"/>
<path d="M145.124 177.783H156.236V188.897H145.124V177.783Z" fill="#00695C"/>
<path d="M156.234 177.783H167.345V188.897H156.234V177.783Z" fill="#00695C"/>
<path d="M167.345 177.783H178.459V188.897H167.345V177.783Z" fill="#00695C"/>
<path d="M178.459 177.783H189.573V188.897H178.459V177.783Z" fill="#00695C"/>
<path d="M189.573 177.783H200.686V188.897H189.573V177.783Z" fill="#00695C"/>
<path d="M200.688 177.783H211.792V188.897H200.688V177.783Z" fill="#00695C"/>
<path d="M211.791 177.783H222.905V188.897H211.791V177.783Z" fill="#00695C"/>
<path d="M222.905 177.783H234.018V188.897H222.905V177.783Z" fill="#00695C"/>
<path d="M234.02 177.783H245.13V188.897H234.02V177.783Z" fill="#00695C"/>
<path d="M245.129 177.783H256.236V188.897H245.129V177.783Z" fill="#00695C"/>
<path d="M256.236 177.783H267.35V188.897H256.236V177.783Z" fill="#263238"/>
<path d="M34.0098 188.895H45.1204V199.999H34.0098V188.895Z" fill="#263238"/>
<path d="M45.1191 188.895H56.2328V199.999H45.1191V188.895Z" fill="#263238"/>
<path d="M56.2344 188.895H67.345V199.999H56.2344V188.895Z" fill="#263238"/>
<path d="M67.3438 188.895H78.4544V199.999H67.3438V188.895Z" fill="#263238"/>
<path d="M78.4544 188.895H89.5688V199.999H78.4544V188.895Z" fill="#263238"/>
<path d="M89.5688 188.895H100.679V199.999H89.5688V188.895Z" fill="#263238"/>
<path d="M100.678 188.895H111.788V199.999H100.678V188.895Z" fill="#263238"/>
<path d="M111.788 188.895H122.9V199.999H111.788V188.895Z" fill="#263238"/>
<path d="M122.9 188.895H134.014V199.999H122.9V188.895Z" fill="#263238"/>
<path d="M134.014 188.895H145.124V199.999H134.014V188.895Z" fill="#263238"/>
<path d="M145.124 188.895H156.236V199.999H145.124V188.895Z" fill="#263238"/>
<path d="M156.234 188.895H167.345V199.999H156.234V188.895Z" fill="#263238"/>
<path d="M167.345 188.895H178.459V199.999H167.345V188.895Z" fill="#263238"/>
<path d="M178.459 188.895H189.573V199.999H178.459V188.895Z" fill="#263238"/>
<path d="M189.573 188.895H200.686V199.999H189.573V188.895Z" fill="#263238"/>
<path d="M200.688 188.895H211.792V199.999H200.688V188.895Z" fill="#263238"/>
<path d="M211.791 188.895H222.905V199.999H211.791V188.895Z" fill="#263238"/>
<path d="M222.905 188.895H234.018V199.999H222.905V188.895Z" fill="#263238"/>
<path d="M234.02 188.895H245.13V199.999H234.02V188.895Z" fill="#263238"/>
<path d="M245.129 188.895H256.236V199.999H245.129V188.895Z" fill="#263238"/>
</svg>
