<svg width="138" height="198" viewBox="0 0 138 198" fill="none" xmlns="http://www.w3.org/2000/svg">
<path d="M121.927 30.4271H106.714V15.2135H91.5V0H30.6458V15.2135H15.4323V30.4271H0.203125V152.135H15.4323V167.349H30.6458V182.573H45.8594V197.786H106.714V182.573H121.927V167.349H137.141V91.2812H121.927V76.0677H137.141V45.6406H121.927V30.4271Z" fill="#040606"/>
<path d="M76.2878 136.921H45.8607V106.494H76.2878V136.921ZM91.5013 15.2129H30.6471V30.4264H15.4336V152.135H30.6471V167.348H91.5013V152.135H106.715V76.0671H45.8607V45.64H76.2878V60.8535H106.715V30.4264H91.5013V15.2129Z" fill="#EDD922"/>
<path d="M15.4336 121.708H30.6471V106.494H15.4336V121.708Z" fill="#F47427"/>
<path d="M30.6484 136.921H45.862V121.707H30.6484V136.921Z" fill="#F47427"/>
<path d="M76.2878 167.349H61.0742V152.135H45.8607V167.349L30.6471 167.348V152.135H15.4336V136.922H30.6471V152.135L45.8607 152.135V136.921L61.0742 136.922V152.135H76.2878V136.921L91.5013 136.922V152.135L76.2878 152.135V167.349Z" fill="#F47427"/>
<path d="M76.2891 121.708H91.5026V106.494H76.2891V121.708Z" fill="#F47427"/>
<path d="M91.5 136.921H106.714V121.707H91.5V136.921Z" fill="#F47427"/>
<path d="M76.2891 167.348H91.5026V152.135H76.2891V167.348Z" fill="#F1452F"/>
<path d="M45.8594 167.348H61.0729V152.135H45.8594V167.348Z" fill="#F1452F"/>
<path d="M30.6471 76.0664H15.4336V60.8529H30.6471V76.0664ZM30.6471 45.6393H15.4336V30.4264H30.6471V45.6393Z" fill="#F6F4A6"/>
<path d="M91.5026 30.4264H30.6484V15.2129H91.5026V30.4264Z" fill="#F6F4A6"/>
</svg>
