<svg width="137" height="198" viewBox="0 0 137 198" fill="none" xmlns="http://www.w3.org/2000/svg">
<path d="M121.714 45.651V30.4375H106.5V15.224H91.2865V0H30.4271V15.224H15.2135V30.4375H0V167.359H15.2135V182.573H30.4271V197.786H60.8594V182.573H91.2865V197.786H121.714V182.573H136.927V45.651H121.714Z" fill="#040606"/>
<path d="M76.0742 91.2913H45.6471V60.8643H76.0742V91.2913ZM91.2878 30.4372V15.2236H30.4284V30.4372H15.2148V167.359H45.6471V121.718H76.0742V167.359H106.501V30.4372H91.2878Z" fill="#EDD922"/>
<path d="M15.2148 121.718H30.4284V106.505H15.2148V121.718Z" fill="#F68925"/>
<path d="M45.6484 121.718H60.8568V106.505H45.6484V121.718Z" fill="#F68925"/>
<path d="M76.0742 121.718L91.2878 121.718V106.505H76.0742V121.718Z" fill="#F68925"/>
<path d="M30.4297 136.932H45.6484V121.718L30.4297 121.719V136.932Z" fill="#F68925"/>
<path d="M91.2891 136.932H106.503V121.719H91.2891V136.932Z" fill="#F68925"/>
<path d="M45.6471 167.359L30.4284 167.359V152.145H15.2148V167.359V136.932H30.4284V152.145H45.6471V167.359Z" fill="#F68925"/>
<path d="M106.501 167.359L91.2878 167.359V152.145H76.0742V167.359V136.932H91.2878V152.145H106.501V167.359Z" fill="#F68925"/>
<path d="M15.2148 167.359L30.4284 167.359V152.145H15.2148V167.359Z" fill="#F1502D"/>
<path d="M76.0742 167.359L91.2878 167.359V152.145H76.0742V167.359Z" fill="#F1502D"/>
<path d="M30.4284 76.0781H15.2148V60.8646H30.4284V76.0781ZM30.4284 45.651H15.2148V30.4372H30.4284V45.651Z" fill="#F6F4A6"/>
<path d="M91.2891 30.4372H30.4297V15.2236H91.2891V30.4372Z" fill="#F6F4A6"/>
</svg>
