<svg width="138" height="198" viewBox="0 0 138 198" fill="none" xmlns="http://www.w3.org/2000/svg">
<path d="M122.573 15.2135H107.359V0H76.9323V15.2135H46.5V0H16.0729V15.2135H0.859375V152.146H16.0729V167.359H31.2865V182.573H46.5V197.786H107.359V182.573H122.573V167.359H137.786V30.4271H122.573V15.2135Z" fill="#040606"/>
<path d="M76.9297 15.2129V136.932H46.4974V15.2129H16.0703V152.145H31.2839V167.359H92.1432V152.145H107.357V15.2129H76.9297Z" fill="#EDD922"/>
<path d="M16.0703 121.718H31.2839V106.494H16.0703V121.718Z" fill="#F47427"/>
<path d="M31.2852 136.933H46.4987V121.725H31.2852V136.933Z" fill="#F47427"/>
<path d="M76.9297 167.359H61.7109V152.145H46.4974V167.359L31.2839 167.359V152.145H16.0703V136.932H31.2839V152.145H46.4974V136.932H61.7109V152.145H76.9297V136.932H92.1432V152.145H76.9297V167.359Z" fill="#F47427"/>
<path d="M76.9297 121.718H92.1432V106.494H76.9297V121.718Z" fill="#F47427"/>
<path d="M92.1445 136.933H107.358V121.725H92.1445V136.933Z" fill="#F47427"/>
<path d="M76.9297 167.36H92.1432V152.146H76.9297V167.36Z" fill="#F1452F"/>
<path d="M46.5 167.36H61.7188V152.146H46.5V167.36Z" fill="#F1452F"/>
<path d="M16.0703 76.0671H31.2839V60.8535H16.0703V76.0671Z" fill="#F6F4A6"/>
<path d="M31.2839 45.64H16.0703V15.2129H46.4974V30.4264H31.2839V45.64Z" fill="#F6F4A6"/>
<path d="M76.9297 30.4264H107.357V15.2129H76.9297V30.4264Z" fill="#F6F4A6"/>
</svg>
