<svg width="138" height="198" viewBox="0 0 138 198" fill="none" xmlns="http://www.w3.org/2000/svg">
<path d="M122.214 30.4271H107V15.2135H91.7865V0H30.9271V15.2135H15.7135V30.4271H0.5V60.8542H15.7135V76.0677H30.9271V106.495H15.7135V121.708H0.5V167.349H15.7135V182.573H30.9271V197.786H122.214V182.573H137.427V152.135H122.214V136.922H107V121.708H122.214V106.495H137.427V45.6406H122.214V30.4271Z" fill="#040606"/>
<path d="M91.7878 15.2129H30.9284V30.4264H15.7148V60.8535H46.1419V45.64H76.5742V76.0671H61.3555V91.2806H46.1419V106.494H30.9284V121.708H15.7148V167.348H107.001V136.921H61.3555V121.708H76.5742V106.494H91.7878V91.2806H107.001V30.4264H91.7878V15.2129Z" fill="#EDD922"/>
<path d="M15.7148 45.6393H30.9284V30.4264H15.7148V45.6393Z" fill="#F6F4A6"/>
<path d="M91.7891 30.4264H30.9297V15.2129H91.7891V30.4264Z" fill="#F6F4A6"/>
<path d="M107.001 167.348L91.7878 167.348V152.134H76.5742V167.348H61.3555V152.134H46.1419V167.348H30.9284V152.134H15.7148V167.348V136.921H30.9284V152.134H46.1419V136.921L61.3555 136.921V152.134H76.5742V136.921H91.7878V152.134H107.001V167.348ZM46.1419 136.921H30.9284V121.708L46.1419 121.707V136.921Z" fill="#F47427"/>
<path d="M46.1406 121.708H61.3542V106.494H46.1406V121.708Z" fill="#F47427"/>
<path d="M76.5742 167.348H91.7878V152.134H76.5742V167.348Z" fill="#F1452F"/>
<path d="M46.1406 167.348H61.3542V152.135H46.1406V167.348Z" fill="#F1452F"/>
<path d="M15.7148 167.348L30.9284 167.348V152.134H15.7148V167.348Z" fill="#F1452F"/>
</svg>
