<svg width="138" height="198" viewBox="0 0 138 198" fill="none" xmlns="http://www.w3.org/2000/svg">
<path d="M122.427 30.4375V15.224H107.214V0H31.1302V15.224H15.9167V30.4375H0.703125V152.146H15.9167V167.359H31.1302V182.573H46.3438V197.786H122.427V182.573H137.641V152.146H122.427V136.932H107.214V121.719H122.427V91.2917H107.214V76.0781H122.427V60.8646H137.641V30.4375H122.427Z" fill="#040606"/>
<path d="M31.1276 15.2236V30.4372H15.9141V152.146H31.1276V167.359H107.211V136.932H46.3411V106.505H91.9974V76.0778H46.3411V45.6507H107.211V15.2236H31.1276Z" fill="#EDD922"/>
<path d="M107.211 167.359H91.9974V152.146H76.7682V167.359H61.5547V152.146H46.3411V167.359H31.1276V152.146H15.9141V136.932H31.1276V152.146H46.3411V136.932L31.1276 136.932V121.718H46.3411V136.932L61.5547 136.932V152.146H76.7682V136.932H91.9974V152.146H107.211V167.359ZM31.1276 121.718H15.9141V106.505H31.1276V121.718Z" fill="#F47427"/>
<path d="M76.7695 167.359H91.9987V152.146H76.7695V167.359Z" fill="#F1452F"/>
<path d="M46.3438 167.359H61.5573V152.146H46.3438V167.359Z" fill="#F1452F"/>
<path d="M31.1276 76.0781H15.9141V60.8646H31.1276V76.0781ZM31.1276 45.651H15.9141V30.4372H31.1276V45.651Z" fill="#F6F4A6"/>
<path d="M107.212 30.4372H31.1289V15.2236H107.212V30.4372Z" fill="#F6F4A6"/>
</svg>
