<svg width="137" height="198" viewBox="0 0 137 198" fill="none" xmlns="http://www.w3.org/2000/svg">
<path d="M121.786 30.4271H106.573V15.2135H91.3594V0H30.5052V15.2135H15.2917V30.4271H0.078125V76.0677H15.2917V91.2812H0.078125V152.135H15.2917V167.349H30.5052V182.573H45.7188V197.786H106.573V182.573H121.786V167.349H137V106.495H121.786V91.2812H137V45.6406H121.786V30.4271Z" fill="#040606"/>
<path d="M45.7161 76.0671V45.64H76.1432V76.0671H45.7161ZM76.1432 136.921H45.7161V106.494H76.1432V136.921ZM91.3568 15.2129H30.5026V30.4264H15.2891V76.0671H30.5026V91.2806H15.2891V152.135H30.5026V167.348H91.3568V152.135H106.57V91.2806H91.3568V76.0671H106.57V30.4264H91.3568V15.2129Z" fill="#EDD922"/>
<path d="M15.2891 121.708H30.5026V106.494H15.2891V121.708Z" fill="#F47427"/>
<path d="M30.5039 136.921H45.7174V121.707H30.5039V136.921Z" fill="#F47427"/>
<path d="M91.3568 167.348H30.5026V152.135H15.2891V136.922H30.5026V152.135L45.7161 152.135V136.921L60.9297 136.922V152.135H76.1432V136.921L91.3568 136.922V167.348Z" fill="#F47427"/>
<path d="M76.1445 121.708H91.3581V106.494H76.1445V121.708Z" fill="#F47427"/>
<path d="M91.3594 136.921H106.573V121.707H91.3594V136.921Z" fill="#F47427"/>
<path d="M30.5026 76.0671H15.2891V60.8529H30.5026V76.0671ZM30.5026 45.6393H15.2891V30.4264H30.5026V45.6393Z" fill="#F6F4A6"/>
<path d="M91.3581 30.4264H30.5039V15.2129H91.3581V30.4264Z" fill="#F6F4A6"/>
</svg>
