<svg width="199" height="198" viewBox="0 0 199 198" fill="none" xmlns="http://www.w3.org/2000/svg">
<path d="M183.273 15.2135H168.06V0H137.633V15.2135H107.206V0H76.7786V15.2135H46.3516V0H15.9245V15.2135H0.710938V106.495H15.9245V136.932H31.138V167.359H46.3516V182.573H61.5651V197.786H91.9922V182.573H122.419V197.786H152.846V182.573H168.06V152.146H183.273V121.719H198.487V30.4271H183.273V15.2135Z" fill="#040606"/>
<path d="M137.634 15.2129V91.2806H107.207V15.2129H76.78V91.2806H46.3529V15.2129H15.9258V106.494H31.1393V136.932H46.3529V167.359H76.78V136.932H107.207V167.359H137.634V136.932H152.848V106.494H168.061V15.2129H137.634Z" fill="#EDD922"/>
<path d="M31.1367 136.933H46.3503V121.725H31.1367V136.933Z" fill="#F47427"/>
<path d="M76.7786 167.359H61.5651V152.145H46.3516V167.359V136.932H61.5651V152.145H76.7786V167.359Z" fill="#F47427"/>
<path d="M46.3516 121.718H61.5651V106.494H46.3516V121.718Z" fill="#F47427"/>
<path d="M61.5664 136.933H76.7799V121.725H61.5664V136.933Z" fill="#F47427"/>
<path d="M137.634 167.359L122.421 167.359V152.145H107.207V167.359V136.932H122.421V152.145H137.634L137.634 167.359Z" fill="#F47427"/>
<path d="M107.207 121.718H122.421V106.494H107.207V121.718Z" fill="#F47427"/>
<path d="M137.633 121.718H152.846V106.494H137.633V121.718Z" fill="#F47427"/>
<path d="M122.418 136.933H137.632V121.725H122.418V136.933Z" fill="#F47427"/>
<path d="M76.7773 121.718H91.9909V106.494H76.7773V121.718Z" fill="#F47427"/>
<path d="M91.9922 136.933H107.206V121.725H91.9922V136.933Z" fill="#F47427"/>
<path d="M46.3516 167.359L61.5651 167.36V152.146H46.3516V167.359Z" fill="#F1452F"/>
<path d="M107.207 167.36H122.421V152.146H107.207V167.36Z" fill="#F1452F"/>
<path d="M15.9258 76.0671H31.1393V60.8535H15.9258V76.0671Z" fill="#F6F4A6"/>
<path d="M31.1393 45.64H15.9258V15.2129H46.3529V30.4264H31.1393V45.64Z" fill="#F6F4A6"/>
<path d="M137.633 30.4264H168.06L168.06 15.2135H137.633V30.4264Z" fill="#F6F4A6"/>
<path d="M76.7773 30.4264H107.204V15.2129H76.7773V30.4264Z" fill="#F6F4A6"/>
</svg>
