<svg width="138" height="198" viewBox="0 0 138 198" fill="none" xmlns="http://www.w3.org/2000/svg">
<path d="M122.118 15.2135H106.905V0H76.4779V15.2135H46.0508V0H15.6237V15.2135H0.410156V91.2812H15.6237V106.495H30.8372V167.359H46.0508V182.573H61.2643V197.786H91.6914V182.573H106.905V121.719H122.118V106.495H137.332V30.4271H122.118V15.2135Z" fill="#040606"/>
<path d="M76.4792 15.2129V76.0671H46.0521V15.2129H15.625V91.2806H30.8385V106.494H46.0521V167.359H76.4792V106.494H91.6927V91.2806H106.906V15.2129H76.4792Z" fill="#EDD922"/>
<path d="M76.4779 167.359H61.2643V152.145H46.0508V167.359V136.932H61.2643V152.145H76.4779V167.359Z" fill="#F47427"/>
<path d="M46.0508 121.718H61.2643V106.494H46.0508V121.718Z" fill="#F47427"/>
<path d="M61.2656 136.933H76.4792V121.725H61.2656V136.933Z" fill="#F47427"/>
<path d="M46.0508 167.359L61.2643 167.36V152.146H46.0508V167.359Z" fill="#F1452F"/>
<path d="M15.625 76.0671H30.8385V60.8535H15.625V76.0671Z" fill="#F6F4A6"/>
<path d="M30.8385 45.64H15.625V15.2129H46.0521V30.4264H30.8385V45.64Z" fill="#F6F4A6"/>
<path d="M76.4766 30.4264H106.904V15.2129H76.4766V30.4264Z" fill="#F6F4A6"/>
</svg>
