<svg width="138" height="198" viewBox="0 0 138 198" fill="none" xmlns="http://www.w3.org/2000/svg">
<path d="M122.065 15.2135H106.852V0H76.4245V15.2135H45.9974V0H15.5651V15.2135H0.351562V106.495H15.5651V121.708H30.7839V136.922H45.9974V152.135H61.2109V167.349H76.4245V182.573H91.638V197.786H122.065V182.573H137.279V30.4271H122.065V15.2135Z" fill="#040606"/>
<path d="M76.4258 15.2129V91.2806H45.9987V15.2129H15.5664V106.494H30.7852V121.708H76.4258V167.348H106.853V15.2129H76.4258Z" fill="#EDD922"/>
<path d="M45.9961 121.708H61.2096V106.494H45.9961V121.708Z" fill="#F47427"/>
<path d="M106.853 167.348L91.6393 167.349V152.135H76.4258V167.348V136.922H91.6393V152.135H106.853V167.348Z" fill="#F47427"/>
<path d="M76.4258 121.708L91.6393 121.708V106.494H76.4258V121.708Z" fill="#F47427"/>
<path d="M91.6367 136.921H106.85V121.707H91.6367V136.921Z" fill="#F47427"/>
<path d="M76.4258 167.348L91.6393 167.349V152.135H76.4258V167.348Z" fill="#F1452F"/>
<path d="M106.853 30.4264H76.4258V15.2129H106.853V30.4264Z" fill="#F6F4A6"/>
<path d="M15.5664 76.0671H30.7852V60.8535H15.5664V76.0671Z" fill="#F6F4A6"/>
<path d="M30.7852 45.64H15.5664V15.2129H45.9987V30.4264H30.7852V45.64Z" fill="#F6F4A6"/>
</svg>
