<svg width="154" height="213" viewBox="0 0 154 213" fill="none" xmlns="http://www.w3.org/2000/svg">
<path d="M137.832 45.6406H122.618V30.4271H107.405V15.2135H92.1914V0H31.3372V15.2135H16.1237V30.4271H0.910156V152.135H16.1237V167.349H31.3372V182.562H46.5508V197.786H107.405V213H137.832V197.786H153.046V167.349H137.832V45.6406Z" fill="#040606"/>
<path d="M46.5482 45.64H76.9753V121.708H61.7617V136.921H46.5482V45.64ZM107.402 30.4264H92.1888V15.2129H31.3346V30.4264H16.1211V152.135H31.3346V167.348H92.1888V182.562H122.616V152.135H107.402V30.4264Z" fill="#EDD922"/>
<path d="M16.1211 76.0671H31.3346V60.8535H16.1211V76.0671Z" fill="#F6F4A6"/>
<path d="M16.1211 45.6393H31.3346V30.4264H16.1211V45.6393Z" fill="#F6F4A6"/>
<path d="M92.1901 30.4264H31.3359V15.2285H92.1901V30.4264Z" fill="#F6F4A6"/>
<path d="M16.1211 121.708H31.3346V106.494H16.1211V121.708Z" fill="#F47427"/>
<path d="M31.3359 136.921H46.5495V121.707H31.3359V136.921Z" fill="#F47427"/>
<path d="M61.7617 136.921L76.9753 136.921L76.9753 121.708H61.7617V136.921Z" fill="#F47427"/>
<path d="M76.9766 121.708H92.1901V106.494H76.9766V121.708Z" fill="#F47427"/>
<path d="M92.1914 136.921H107.405V121.707H92.1914V136.921Z" fill="#F47427"/>
<path d="M122.616 182.562L107.402 182.562V167.349L92.1888 167.348V152.135H76.9753V167.349H61.7617V152.135H46.5482V167.349L31.3346 167.348V152.135H16.1211V136.922H31.3346V152.135L46.5482 152.135V136.921H61.7617V152.135H76.9753V136.922H92.1888V152.135L122.616 152.135H107.402V167.349H122.616V182.562Z" fill="#F47427"/>
<path d="M107.404 182.562H92.1901V167.348H76.9766V152.135H92.1901V167.348H107.404V182.562Z" fill="#F1452F"/>
<path d="M107.402 167.349H122.616V152.135H107.402V167.349Z" fill="#F1452F"/>
<path d="M46.5508 167.348H61.7643V152.135H46.5508V167.348Z" fill="#F1452F"/>
</svg>
