<svg width="138" height="198" viewBox="0 0 138 198" fill="none" xmlns="http://www.w3.org/2000/svg">
<path d="M122.697 30.4271H107.483V15.2135H92.2695V0H31.3997V15.2135H16.1862V30.4271H0.972656V167.349H16.1862V182.562H31.3997V197.786H61.8268V182.562H77.056V152.135H107.483V136.922H122.697V121.708H137.91V45.6406H122.697V30.4271Z" fill="#040606"/>
<path d="M77.0573 91.2806H46.6146V45.64H77.0573V91.2806ZM92.2708 15.2129H31.401V30.4264H16.1875V167.348H46.6146V121.708H92.2708V106.494H107.484V30.4264H92.2708V15.2129Z" fill="#EDD922"/>
<path d="M16.1875 76.0671H31.401V60.8535H16.1875V76.0671Z" fill="#F6F4A6"/>
<path d="M16.1875 45.6393H31.401V30.4264H16.1875V45.6393Z" fill="#F6F4A6"/>
<path d="M92.2721 30.4264H31.4023V15.2285H92.2721V30.4264Z" fill="#F6F4A6"/>
<path d="M46.6146 167.348L31.401 167.349V152.135H16.1875V167.348V136.922H31.401V152.135H46.6146V167.348Z" fill="#F47427"/>
<path d="M16.1875 121.708H31.401V106.494H16.1875V121.708Z" fill="#F47427"/>
<path d="M31.4023 136.921H46.6159V121.707H31.4023V136.921Z" fill="#F47427"/>
<path d="M46.6133 121.708H61.8268V106.494H46.6133V121.708Z" fill="#F47427"/>
<path d="M77.0586 121.708H92.2721V106.494H77.0586V121.708Z" fill="#F47427"/>
<path d="M16.1875 167.348L31.401 167.349V152.135H16.1875V167.348Z" fill="#F1452F"/>
</svg>
