<svg width="137" height="198" viewBox="0 0 137 198" fill="none" xmlns="http://www.w3.org/2000/svg">
<path d="M121.719 30.4271H106.505V15.2135H91.2917V0H30.4375V15.2135H15.2135V30.4271H0V91.2812H15.2135V121.708H0V152.135H15.2135V167.349H30.4375V182.573H45.651V197.786H106.505V182.573H121.719V167.349H136.932V45.6406H121.719V30.4271Z" fill="#040606"/>
<path d="M76.0755 76.0671H45.6484V45.64H76.0755V76.0671ZM91.2891 15.2129H30.4349V30.4264H15.2109V91.2806H30.4349V106.494H76.0755V136.921H45.6484V121.708H15.2109V152.135H30.4349V167.348H91.2891V152.135H106.503V30.4264H91.2891V15.2129Z" fill="#EDD922"/>
<path d="M30.4375 136.921H45.651V121.707H30.4375V136.921Z" fill="#F47427"/>
<path d="M76.0755 167.349H60.862V152.135H45.6484V167.349L30.4349 167.348V152.135H15.2109V136.922H30.4349V152.135L45.6484 152.135V136.921L60.862 136.922V152.135H76.0755V136.921L91.2891 136.922V152.135L76.0755 152.135V167.349Z" fill="#F47427"/>
<path d="M76.0781 121.708H91.2917V106.494H76.0781V121.708Z" fill="#F47427"/>
<path d="M91.2891 136.921H106.503V121.707H91.2891V136.921Z" fill="#F47427"/>
<path d="M76.0781 167.348H91.2917V152.135H76.0781V167.348Z" fill="#F1452F"/>
<path d="M45.6484 167.349H60.862V152.135H45.6484V167.349Z" fill="#F1452F"/>
<path d="M30.4349 76.0664H15.2109V60.8529H30.4349V76.0664ZM30.4349 45.6393H15.2109V30.4264H30.4349V45.6393Z" fill="#F6F4A6"/>
<path d="M91.2917 30.4264H30.4375V15.2135H91.2917V30.4264Z" fill="#F6F4A6"/>
</svg>
