<svg width="138" height="198" viewBox="0 0 138 198" fill="none" xmlns="http://www.w3.org/2000/svg">
<path d="M121.865 15.2135H106.635V0H15.3542V15.2135H0.140625V45.6406H15.3542V60.8542H30.5677V106.495H15.3542V136.922H0.140625V167.349H15.3542V182.573H30.5677V197.786H60.9948V182.573H76.2083V167.349H91.4219V136.922H106.635V106.495H121.865V76.0677H137.078V30.4271H121.865V15.2135Z" fill="#040606"/>
<path d="M15.3555 15.2129V45.64H60.9961V76.0671H45.7826V106.494H30.569V136.921H15.3555V167.348H45.7826V152.135H60.9961V121.708H76.2096V91.2806H91.4232V60.8535H106.637V15.2129H15.3555Z" fill="#EDD922"/>
<path d="M30.569 45.64H15.3555V15.2129H106.637V30.4264H30.569V45.64Z" fill="#F6F4A6"/>
<path d="M30.5664 136.921H45.7799V121.707H30.5664V136.921Z" fill="#F47427"/>
<path d="M45.7826 167.348L30.569 167.349V152.135H15.3555V167.348V136.921H30.569V152.135L45.7826 152.135V167.348Z" fill="#F47427"/>
<path d="M45.7812 152.135H60.9948V136.922H45.7812V152.135Z" fill="#F47427"/>
<path d="M45.7812 121.708H60.9948V106.494H45.7812V121.708Z" fill="#F47427"/>
<path d="M15.3555 167.348L30.569 167.349V152.135H15.3555V167.348Z" fill="#F1452F"/>
</svg>
