<svg width="169" height="198" viewBox="0 0 169 198" fill="none" xmlns="http://www.w3.org/2000/svg">
<path d="M152.895 15.2135H137.681V0H107.254V15.2135H92.0352V45.6406H76.8268V30.4271H61.6133V15.2135H46.3945V0H15.9674V15.2135H0.753906V167.349H15.9674V182.562H31.181V197.786H61.6133V182.562H76.8268V144.536H92.0352V167.349H107.254V182.562H122.467V197.786H152.895V182.562H168.108V30.4271H152.895V15.2135Z" fill="#040606"/>
<path d="M107.255 15.2129V45.64H92.0365V60.8535H61.6146V45.64H46.3958V15.2129H15.9688V167.348H46.3958V91.2806H61.6146V106.494H92.0365V91.2806H107.255V167.348H137.682V15.2129H107.255Z" fill="#EDD922"/>
<path d="M31.1823 76.0671H15.9688V60.8535H31.1823V76.0671ZM31.1823 45.64H15.9688V15.2129H46.3958V30.4264H31.1823V45.64ZM137.682 30.4264H107.255V15.2129H137.682V30.4264Z" fill="#F6F4A6"/>
<path d="M46.3958 167.348L31.1823 167.349V152.135H15.9688V167.348V136.922H31.1823V152.135H46.3958V167.348Z" fill="#F47427"/>
<path d="M15.9688 121.708H31.1823V106.494H15.9688V121.708Z" fill="#F47427"/>
<path d="M31.1797 136.921H46.3932V121.707H31.1797V136.921Z" fill="#F47427"/>
<path d="M137.681 167.349H122.467V152.135H107.254V167.349V136.922H122.467V152.135H137.681V167.349Z" fill="#F47427"/>
<path d="M107.254 121.708H122.467V106.494H107.254V121.708Z" fill="#F47427"/>
<path d="M122.469 136.921H137.682V121.707H122.469V136.921Z" fill="#F47427"/>
<path d="M122.467 167.349L107.254 167.349V152.135H122.467V167.349Z" fill="#F1452F"/>
<path d="M15.9688 167.348L31.1823 167.349V152.135H15.9688V167.348Z" fill="#F1452F"/>
</svg>
