<svg width="138" height="198" viewBox="0 0 138 198" fill="none" xmlns="http://www.w3.org/2000/svg">
<path d="M122.565 45.651V30.4375H107.352V15.224H92.138V0H31.2786V15.224H16.0651V30.4375H0.851562V152.146H16.0651V167.359H31.2786V182.573H46.4922V197.786H107.352V182.573H122.565V167.359H137.779V136.932H122.565V121.719H107.352V106.505H76.9193V76.0781H92.138V91.2917H122.565V76.0781H137.779V45.651H122.565Z" fill="#040606"/>
<path d="M92.1354 30.4372V15.2236H31.276V30.4372H16.0625V152.146H31.276V167.359H92.1354V152.146H107.349V121.718H76.9167V136.932H46.4896V45.6507H76.9167V60.8643H107.349V30.4372H92.1354Z" fill="#EDD922"/>
<path d="M76.9167 167.359H61.7083V152.146H46.4896V167.359H31.276V152.146H16.0625V136.932H31.276V152.146H46.4896V136.932L31.276 136.932V121.718H46.4896V136.932L61.7083 136.932V152.146H76.9167V136.932L92.1354 136.932V152.146H76.9167V167.359ZM107.349 136.932H92.1354V121.718L107.349 121.718V136.932ZM31.276 121.718H16.0625V106.505H31.276V121.718Z" fill="#F47427"/>
<path d="M46.4922 167.359H61.7057V152.146H46.4922V167.359Z" fill="#F1452F"/>
<path d="M76.918 167.359H92.1367V152.146H76.918V167.359Z" fill="#F1452F"/>
<path d="M31.276 76.0781H16.0625V60.8646H31.276V76.0781ZM31.276 45.651H16.0625V30.4372H31.276V45.651Z" fill="#F6F4A6"/>
<path d="M92.1367 30.4372H31.2773V15.2236H92.1367V30.4372Z" fill="#F6F4A6"/>
</svg>
