<svg width="138" height="198" viewBox="0 0 138 198" fill="none" xmlns="http://www.w3.org/2000/svg">
<path d="M122.542 136.922H107.328V121.708H76.8958V30.4271H61.6875V15.2135H46.4688V0H16.0417V15.2135H0.828125V152.135H16.0417V167.349H31.2552V182.562H46.4688V197.786H122.542V182.562H137.755V152.135H122.542V136.922Z" fill="#040606"/>
<path d="M76.8971 136.921H46.4701V15.2129H16.043V152.135H31.2565V167.348H107.329V136.921H76.8971Z" fill="#EDD922"/>
<path d="M31.2565 76.0671H16.043V60.8535H31.2565V76.0671ZM31.2565 45.64H16.043V15.2129H46.4701V30.4264H31.2565V45.64Z" fill="#F6F4A6"/>
<path d="M16.043 121.708H31.2565V106.494H16.043V121.708Z" fill="#F47427"/>
<path d="M31.2539 136.921H46.4674V121.707H31.2539V136.921Z" fill="#F47427"/>
<path d="M107.329 167.348L92.1159 167.349V152.135H76.8971V167.349H61.6888V152.135H46.4701V167.349L31.2565 167.348V152.135H16.043V136.922H31.2565V152.135L46.4701 152.135V136.921L61.6888 136.922V152.135H76.8971V136.921L92.1159 136.922V152.135H107.329V167.348Z" fill="#F47427"/>
<path d="M76.8945 167.348H92.1133V152.135H76.8945V167.348Z" fill="#F1452F"/>
<path d="M46.4688 167.348H61.6823V152.135H46.4688V167.348Z" fill="#F1452F"/>
</svg>
