<svg width="208" height="200" viewBox="0 0 208 200" fill="none" xmlns="http://www.w3.org/2000/svg">
<path d="M24.2231 15.9997H16.2234V8H24.2231V15.9997Z" fill="#F62431"/>
<path d="M32.1808 15.9997H24.1805V8H32.1808V15.9997Z" fill="#F62431"/>
<path d="M40.1377 15.9997H32.1379V8H40.1377V15.9997Z" fill="#F62431"/>
<path d="M32.1808 8H24.1805L24.1804 0H32.1806L32.1808 8Z" fill="#F62431"/>
<path d="M40.1377 8H32.1379L32.1378 0H40.1376L40.1377 8Z" fill="#F62431"/>
<path d="M48.0953 15.9997H40.0956V8H48.0953V15.9997Z" fill="#F62431"/>
<path d="M16.266 23.9992H8.26575V16H16.266V23.9992Z" fill="#F62431"/>
<path d="M24.2231 23.9992H16.2234V15.9997H24.2231V23.9992Z" fill="#F62431"/>
<path d="M32.1808 23.9992H24.1805V15.9997H32.1808V23.9992Z" fill="#F62431"/>
<path d="M40.1377 23.9992H32.1379V15.9997H40.1377V23.9992Z" fill="#F62431"/>
<path d="M48.0953 23.9992H40.0956V15.9997H48.0953V23.9992Z" fill="#F62431"/>
<path d="M56.053 23.9992H48.0527V16H56.053V23.9992Z" fill="#F62431"/>
<path d="M56.053 16H48.0527V8H56.053V16Z" fill="#F62431"/>
<path d="M8.30832 32.0006H0.308594V23.9998H8.30832V32.0006Z" fill="#F62431"/>
<path d="M16.2659 32.0006H8.26566L8.26575 23.9992H16.266L16.2659 32.0006Z" fill="#F62431"/>
<path d="M24.223 32.0006H16.2233L16.2234 23.9992H24.2231L24.223 32.0006Z" fill="#F62431"/>
<path d="M32.1806 32.0006H24.1804L24.1805 23.9992H32.1808L32.1806 32.0006Z" fill="#F62431"/>
<path d="M40.1376 32.0006H32.1378L32.1379 23.9992H40.1377L40.1376 32.0006Z" fill="white"/>
<path d="M48.0952 32.0006H40.0955L40.0956 23.9992H48.0953L48.0952 32.0006Z" fill="white"/>
<path d="M56.0528 32.0006H48.0526L48.0527 23.9992H56.053L56.0528 32.0006Z" fill="#F62431"/>
<path d="M64.01 32.0006H56.0102V23.9998H64.01V32.0006Z" fill="#F62431"/>
<path d="M8.30844 39.9997H0.308716L0.308594 32.0006H8.30832L8.30844 39.9997Z" fill="#F62431"/>
<path d="M16.266 39.9997H8.26575L8.26566 32.0006H16.2659L16.266 39.9997Z" fill="#F62431"/>
<path d="M24.2231 39.9997H16.2234L16.2233 32.0006H24.223L24.2231 39.9997Z" fill="white"/>
<path d="M32.1808 39.9997H24.1805L24.1804 32.0006H32.1806L32.1808 39.9997Z" fill="white"/>
<path d="M40.1377 39.9997H32.1379L32.1378 32.0006H40.1376L40.1377 39.9997Z" fill="white"/>
<path d="M48.0953 39.9997H40.0956L40.0955 32.0006H48.0952L48.0953 39.9997Z" fill="#D4D4D4"/>
<path d="M56.053 39.9997H48.0527L48.0526 32.0006H56.0528L56.053 39.9997Z" fill="white"/>
<path d="M64.0101 39.9997H56.0104L56.0102 32.0006H64.01L64.0101 39.9997Z" fill="#F62431"/>
<path d="M71.9677 39.9997H63.9674V32H71.9677V39.9997Z" fill="#F62431"/>
<path d="M143.584 39.9997H135.585V32H143.584V39.9997Z" fill="#F62431"/>
<path d="M8.30844 47.9997H0.308716V39.9997H8.30844V47.9997Z" fill="#F62431"/>
<path d="M16.266 47.9997H8.26575V39.9997H16.266V47.9997Z" fill="#F62431"/>
<path d="M24.2231 47.9997H16.2234V39.9997H24.2231V47.9997Z" fill="white"/>
<path d="M32.1808 47.9997H24.1805V39.9997H32.1808V47.9997Z" fill="white"/>
<path d="M40.1377 47.9997H32.1379V39.9997H40.1377V47.9997Z" fill="white"/>
<path d="M48.0953 47.9997H40.0956V39.9997H48.0953V47.9997Z" fill="black"/>
<path d="M56.053 47.9997H48.0527V39.9997H56.053V47.9997Z" fill="white"/>
<path d="M64.0101 47.9997H56.0104V39.9997H64.0101V47.9997Z" fill="white"/>
<path d="M71.9677 47.9997H63.9674V39.9997H71.9677V47.9997Z" fill="white"/>
<path d="M135.627 47.9997H127.627V40H135.627V47.9997Z" fill="#F62431"/>
<path d="M143.584 47.9997H135.585V39.9997H143.584V47.9997Z" fill="#F62431"/>
<path d="M151.541 47.9997H143.542V40H151.541V47.9997Z" fill="#F62431"/>
<path d="M159.499 47.9997H151.499V40H159.499V47.9997Z" fill="#F62431"/>
<path d="M16.2659 56.0007H8.26566L8.26575 47.9997H16.266L16.2659 56.0007Z" fill="#FEA621"/>
<path d="M24.223 56.0007H16.2233L16.2234 47.9997H24.2231L24.223 56.0007Z" fill="#FEA621"/>
<path d="M32.1806 56.0007H24.1804L24.1805 47.9997H32.1808L32.1806 56.0007Z" fill="#FEA621"/>
<path d="M40.1376 56.0007H32.1378L32.1379 47.9997H40.1377L40.1376 56.0007Z" fill="white"/>
<path d="M48.0952 56.0007H40.0955L40.0956 47.9997H48.0953L48.0952 56.0007Z" fill="white"/>
<path d="M56.0528 56.0007H48.0526L48.0527 47.9997H56.053L56.0528 56.0007Z" fill="white"/>
<path d="M64.01 56.0007H56.0102L56.0104 47.9997H64.0101L64.01 56.0007Z" fill="white"/>
<path d="M71.9676 56.0007H63.9673L63.9674 47.9997H71.9677L71.9676 56.0007Z" fill="white"/>
<path d="M79.925 56.0007H71.9248V47.9999H79.925V56.0007Z" fill="white"/>
<path d="M135.627 56.0007H127.626L127.627 47.9997H135.627L135.627 56.0007Z" fill="#F62431"/>
<path d="M143.584 56.0007H135.585L135.585 47.9997H143.584L143.584 56.0007Z" fill="#F62431"/>
<path d="M151.541 56.0007H143.542L143.542 47.9997H151.541L151.541 56.0007Z" fill="#F62431"/>
<path d="M159.499 56.0007H151.499L151.499 47.9997H159.499L159.499 56.0007Z" fill="#9D0B1D"/>
<path d="M167.456 56.0007H159.456V47.9999H167.456V56.0007Z" fill="#F62431"/>
<path d="M8.30844 63.9992H0.308716V56H8.30844V63.9992Z" fill="#FEA621"/>
<path d="M16.266 63.9992H8.26575L8.26566 56.0007H16.2659L16.266 63.9992Z" fill="#FEA621"/>
<path d="M24.2231 63.9992H16.2234L16.2233 56.0007H24.223L24.2231 63.9992Z" fill="#FEA621"/>
<path d="M32.1808 63.9992H24.1805L24.1804 56.0007H32.1806L32.1808 63.9992Z" fill="#EF6900"/>
<path d="M40.1377 63.9992H32.1379L32.1378 56.0007H40.1376L40.1377 63.9992Z" fill="#EF6900"/>
<path d="M48.0953 63.9992H40.0956L40.0955 56.0007H48.0952L48.0953 63.9992Z" fill="white"/>
<path d="M56.053 63.9992H48.0527L48.0526 56.0007H56.0528L56.053 63.9992Z" fill="white"/>
<path d="M64.0101 63.9992H56.0104L56.0102 56.0007H64.01L64.0101 63.9992Z" fill="white"/>
<path d="M71.9677 63.9992H63.9674L63.9673 56.0007H71.9676L71.9677 63.9992Z" fill="white"/>
<path d="M79.9252 63.9992H71.9249L71.9248 56.0007H79.925L79.9252 63.9992Z" fill="white"/>
<path d="M127.67 63.9992H119.669V56H127.67V63.9992Z" fill="#F62431"/>
<path d="M135.627 63.9992H127.627L127.626 56.0007H135.627L135.627 63.9992Z" fill="#F62431"/>
<path d="M143.584 63.9992H135.585L135.585 56.0007H143.584L143.584 63.9992Z" fill="#9D0B1D"/>
<path d="M151.541 63.9992H143.542L143.542 56.0007H151.541L151.541 63.9992Z" fill="#9D0B1D"/>
<path d="M167.456 63.9992H159.456L159.456 56.0007H167.456L167.456 63.9992Z" fill="#9D0B1D"/>
<path d="M175.413 63.9992H167.413V56H175.413V63.9992Z" fill="#F62431"/>
<path d="M183.372 63.9992H175.371V56H183.372V63.9992Z" fill="#F62431"/>
<path d="M191.329 63.9992H183.328V56H191.329V63.9992Z" fill="#F62431"/>
<path d="M8.30832 71.9996H0.308594L0.308716 63.9992H8.30844L8.30832 71.9996Z" fill="#FEA621"/>
<path d="M16.2659 71.9996H8.26566L8.26575 63.9992H16.266L16.2659 71.9996Z" fill="#EF6900"/>
<path d="M24.223 71.9996H16.2233L16.2234 63.9992H24.2231L24.223 71.9996Z" fill="#EF6900"/>
<path d="M32.1806 71.9996H24.1804L24.1805 63.9992H32.1808L32.1806 71.9996Z" fill="#EF6900"/>
<path d="M40.1376 71.9996H32.1378L32.1379 63.9992H40.1377L40.1376 71.9996Z" fill="white"/>
<path d="M48.0952 71.9996H40.0955L40.0956 63.9992H48.0953L48.0952 71.9996Z" fill="white"/>
<path d="M56.0528 71.9996H48.0526L48.0527 63.9992H56.053L56.0528 71.9996Z" fill="white"/>
<path d="M64.01 71.9996H56.0102L56.0104 63.9992H64.0101L64.01 71.9996Z" fill="white"/>
<path d="M71.9676 71.9996H63.9673L63.9674 63.9992H71.9677L71.9676 71.9996Z" fill="white"/>
<path d="M79.925 71.9996H71.9248L71.9249 63.9992H79.9252L79.925 71.9996Z" fill="white"/>
<path d="M87.8822 71.9996H79.8824V63.9999H87.8822V71.9996Z" fill="white"/>
<path d="M135.627 71.9996H127.626L127.627 63.9992H135.627L135.627 71.9996Z" fill="#F62431"/>
<path d="M143.584 71.9996H135.585L135.585 63.9992H143.584L143.584 71.9996Z" fill="#9D0B1D"/>
<path d="M159.499 71.9996H151.499V63.9999H159.499V71.9996Z" fill="#F62431"/>
<path d="M167.456 71.9996H159.456L159.456 63.9992H167.456L167.456 71.9996Z" fill="#F62431"/>
<path d="M175.413 71.9996H167.413L167.413 63.9992H175.413L175.413 71.9996Z" fill="#F62431"/>
<path d="M183.372 71.9996H175.371L175.371 63.9992H183.372L183.372 71.9996Z" fill="#F62431"/>
<path d="M191.329 71.9996H183.328L183.328 63.9992H191.329L191.329 71.9996Z" fill="#F62431"/>
<path d="M8.30844 80.0008H0.308716L0.308594 71.9996H8.30832L8.30844 80.0008Z" fill="#EF6900"/>
<path d="M16.266 80.0008H8.26575L8.26566 71.9996H16.2659L16.266 80.0008Z" fill="#EF6900"/>
<path d="M48.0953 80.0008H40.0956L40.0955 71.9996H48.0952L48.0953 80.0008Z" fill="white"/>
<path d="M56.053 80.0008H48.0527L48.0526 71.9996H56.0528L56.053 80.0008Z" fill="white"/>
<path d="M64.0101 80.0008H56.0104L56.0102 71.9996H64.01L64.0101 80.0008Z" fill="white"/>
<path d="M71.9677 80.0008H63.9674L63.9673 71.9996H71.9676L71.9677 80.0008Z" fill="white"/>
<path d="M79.9252 80.0008H71.9249L71.9248 71.9996H79.925L79.9252 80.0008Z" fill="white"/>
<path d="M87.8823 80.0008H79.8826L79.8824 71.9996H87.8822L87.8823 80.0008Z" fill="white"/>
<path d="M95.8399 80.0008H87.8396V72H95.8399V80.0008Z" fill="white"/>
<path d="M103.797 80.0008H95.7972V72H103.797V80.0008Z" fill="white"/>
<path d="M111.754 80.0008H103.755V72H111.754V80.0008Z" fill="white"/>
<path d="M135.627 80.0008H127.627L127.626 71.9996H135.627L135.627 80.0008Z" fill="#F62431"/>
<path d="M143.584 80.0008H135.585L135.585 71.9996H143.584L143.584 80.0008Z" fill="#9D0B1D"/>
<path d="M159.499 80.0008H151.499L151.499 71.9996H159.499L159.499 80.0008Z" fill="#F62431"/>
<path d="M167.456 80.0008H159.456L159.456 71.9996H167.456L167.456 80.0008Z" fill="#F62431"/>
<path d="M175.413 80.0008H167.413L167.413 71.9996H175.413L175.413 80.0008Z" fill="#F62431"/>
<path d="M183.372 80.0008H175.371L175.371 71.9996H183.372L183.372 80.0008Z" fill="#9D0B1D"/>
<path d="M191.329 80.0008H183.328L183.328 71.9996H191.329L191.329 80.0008Z" fill="#9D0B1D"/>
<path d="M199.286 80.0008H191.287V72H199.286V80.0008Z" fill="#F62431"/>
<path d="M48.0953 87.9997H40.0956V80.0008H48.0953V87.9997Z" fill="white"/>
<path d="M56.053 87.9997H48.0527V80.0008H56.053V87.9997Z" fill="white"/>
<path d="M64.0101 87.9997H56.0104V80.0008H64.0101V87.9997Z" fill="white"/>
<path d="M71.9677 87.9997H63.9674V80.0008H71.9677V87.9997Z" fill="white"/>
<path d="M79.9252 87.9997H71.9249V80.0008H79.9252V87.9997Z" fill="white"/>
<path d="M87.8823 87.9997H79.8826V80.0008H87.8823V87.9997Z" fill="white"/>
<path d="M95.8399 87.9997H87.8396V80.0008H95.8399V87.9997Z" fill="white"/>
<path d="M103.797 87.9997H95.7972V80.0008H103.797V87.9997Z" fill="white"/>
<path d="M111.754 87.9997H103.755V80.0008H111.754V87.9997Z" fill="white"/>
<path d="M119.712 87.9997H111.712V80H119.712V87.9997Z" fill="white"/>
<path d="M127.67 87.9997H119.669V80H127.67V87.9997Z" fill="white"/>
<path d="M135.627 87.9997H127.627V80.0008H135.627V87.9997Z" fill="#F62431"/>
<path d="M143.584 87.9997H135.585V80.0008H143.584V87.9997Z" fill="#F62431"/>
<path d="M151.541 87.9997H143.542V80H151.541V87.9997Z" fill="#F62431"/>
<path d="M159.499 87.9997H151.499V80.0008H159.499V87.9997Z" fill="#F62431"/>
<path d="M167.456 87.9997H159.456V80.0008H167.456V87.9997Z" fill="#9D0B1D"/>
<path d="M175.413 87.9997H167.413V80.0008H175.413V87.9997Z" fill="#9D0B1D"/>
<path d="M199.286 87.9997H191.287V80.0008H199.286V87.9997Z" fill="#F62431"/>
<path d="M207.244 87.9997H199.244V80H207.244V87.9997Z" fill="#F62431"/>
<path d="M40.1376 95.9994H32.1378V88.0002H40.1376V95.9994Z" fill="white"/>
<path d="M48.0952 95.9994H40.0955L40.0956 87.9997H48.0953L48.0952 95.9994Z" fill="white"/>
<path d="M56.0528 95.9994H48.0526L48.0527 87.9997H56.053L56.0528 95.9994Z" fill="white"/>
<path d="M64.01 95.9994H56.0102L56.0104 87.9997H64.0101L64.01 95.9994Z" fill="white"/>
<path d="M71.9676 95.9994H63.9673L63.9674 87.9997H71.9677L71.9676 95.9994Z" fill="white"/>
<path d="M79.925 95.9994H71.9248L71.9249 87.9997H79.9252L79.925 95.9994Z" fill="#D4D4D4"/>
<path d="M87.8822 95.9994H79.8824L79.8826 87.9997H87.8823L87.8822 95.9994Z" fill="white"/>
<path d="M95.8398 95.9994H87.8395L87.8396 87.9997H95.8399L95.8398 95.9994Z" fill="white"/>
<path d="M103.797 95.9994H95.7972L95.7972 87.9997H103.797L103.797 95.9994Z" fill="white"/>
<path d="M111.754 95.9994H103.755L103.755 87.9997H111.754L111.754 95.9994Z" fill="white"/>
<path d="M119.711 95.9994H111.712L111.712 87.9997H119.712L119.711 95.9994Z" fill="white"/>
<path d="M127.67 95.9994H119.669L119.669 87.9997H127.67L127.67 95.9994Z" fill="white"/>
<path d="M135.627 95.9994H127.626L127.627 87.9997H135.627L135.627 95.9994Z" fill="white"/>
<path d="M143.584 95.9994H135.585L135.585 87.9997H143.584L143.584 95.9994Z" fill="#F62431"/>
<path d="M151.541 95.9994H143.542L143.542 87.9997H151.541L151.541 95.9994Z" fill="#F62431"/>
<path d="M159.499 95.9994H151.499L151.499 87.9997H159.499L159.499 95.9994Z" fill="#9D0B1D"/>
<path d="M183.372 95.9994H175.371V88.0002H183.372V95.9994Z" fill="#F62431"/>
<path d="M207.244 95.9994H199.244L199.244 87.9997H207.244L207.244 95.9994Z" fill="#F62431"/>
<path d="M40.1377 104.001H32.1379L32.1378 95.9994H40.1376L40.1377 104.001Z" fill="white"/>
<path d="M48.0953 104.001H40.0956L40.0955 95.9994H48.0952L48.0953 104.001Z" fill="white"/>
<path d="M56.053 104.001H48.0527L48.0526 95.9994H56.0528L56.053 104.001Z" fill="white"/>
<path d="M64.0101 104.001H56.0104L56.0102 95.9994H64.01L64.0101 104.001Z" fill="white"/>
<path d="M71.9677 104.001H63.9674L63.9673 95.9994H71.9676L71.9677 104.001Z" fill="#D4D4D4"/>
<path d="M79.9252 104.001H71.9249L71.9248 95.9994H79.925L79.9252 104.001Z" fill="white"/>
<path d="M87.8823 104.001H79.8826L79.8824 95.9994H87.8822L87.8823 104.001Z" fill="white"/>
<path d="M95.8399 104.001H87.8396L87.8395 95.9994H95.8398L95.8399 104.001Z" fill="white"/>
<path d="M103.797 104.001H95.7972L95.7972 95.9994H103.797L103.797 104.001Z" fill="white"/>
<path d="M111.754 104.001H103.755L103.755 95.9994H111.754L111.754 104.001Z" fill="white"/>
<path d="M119.712 104.001H111.712L111.712 95.9994H119.711L119.712 104.001Z" fill="white"/>
<path d="M127.67 104.001H119.669L119.669 95.9994H127.67L127.67 104.001Z" fill="white"/>
<path d="M135.627 104.001H127.627L127.626 95.9994H135.627L135.627 104.001Z" fill="white"/>
<path d="M143.584 104.001H135.585L135.585 95.9994H143.584L143.584 104.001Z" fill="white"/>
<path d="M151.541 104.001H143.542L143.542 95.9994H151.541L151.541 104.001Z" fill="#9D0B1D"/>
<path d="M167.456 104.001H159.456V96H167.456V104.001Z" fill="#F62431"/>
<path d="M175.413 104.001H167.413V96H175.413V104.001Z" fill="#F62431"/>
<path d="M183.372 104.001H175.371L175.371 95.9994H183.372L183.372 104.001Z" fill="#F62431"/>
<path d="M191.329 104.001H183.328V96H191.329V104.001Z" fill="#F62431"/>
<path d="M32.1806 112H24.1804V104H32.1806V112Z" fill="white"/>
<path d="M40.1376 112H32.1378L32.1379 104.001H40.1377L40.1376 112Z" fill="white"/>
<path d="M48.0952 112H40.0955L40.0956 104.001H48.0953L48.0952 112Z" fill="white"/>
<path d="M56.0528 112H48.0526L48.0527 104.001H56.053L56.0528 112Z" fill="white"/>
<path d="M64.01 112H56.0102L56.0104 104.001H64.0101L64.01 112Z" fill="#D4D4D4"/>
<path d="M71.9676 112H63.9673L63.9674 104.001H71.9677L71.9676 112Z" fill="#D4D4D4"/>
<path d="M79.925 112H71.9248L71.9249 104.001H79.9252L79.925 112Z" fill="white"/>
<path d="M87.8822 112H79.8824L79.8826 104.001H87.8823L87.8822 112Z" fill="white"/>
<path d="M95.8398 112H87.8395L87.8396 104.001H95.8399L95.8398 112Z" fill="white"/>
<path d="M103.797 112H95.7972L95.7972 104.001H103.797L103.797 112Z" fill="white"/>
<path d="M111.754 112H103.755L103.755 104.001H111.754L111.754 112Z" fill="white"/>
<path d="M119.711 112H111.712L111.712 104.001H119.712L119.711 112Z" fill="white"/>
<path d="M127.67 112H119.669L119.669 104.001H127.67L127.67 112Z" fill="white"/>
<path d="M135.627 112H127.626L127.627 104.001H135.627L135.627 112Z" fill="white"/>
<path d="M143.584 112H135.585L135.585 104.001H143.584L143.584 112Z" fill="white"/>
<path d="M151.541 112H143.542L143.542 104.001H151.541L151.541 112Z" fill="white"/>
<path d="M159.499 112H151.499V104H159.499V112Z" fill="#F62431"/>
<path d="M167.456 112H159.456L159.456 104.001H167.456L167.456 112Z" fill="#F62431"/>
<path d="M175.413 112H167.413L167.413 104.001H175.413L175.413 112Z" fill="#F62431"/>
<path d="M183.372 112H175.371L175.371 104.001H183.372L183.372 112Z" fill="#9D0B1D"/>
<path d="M191.329 112H183.328L183.328 104.001H191.329L191.329 112Z" fill="#F62431"/>
<path d="M199.286 112H191.287V104H199.286V112Z" fill="#F62431"/>
<path d="M32.1806 120H24.1804V112H32.1806V120Z" fill="white"/>
<path d="M40.1376 120H32.1378V112H40.1376V120Z" fill="white"/>
<path d="M48.0952 120H40.0955V112H48.0952V120Z" fill="white"/>
<path d="M56.0528 120H48.0526V112H56.0528V120Z" fill="white"/>
<path d="M64.01 120H56.0102V112H64.01V120Z" fill="#D4D4D4"/>
<path d="M71.9676 120H63.9673V112H71.9676V120Z" fill="#D4D4D4"/>
<path d="M79.925 120H71.9248V112H79.925V120Z" fill="#D4D4D4"/>
<path d="M87.8822 120H79.8824V112H87.8822V120Z" fill="white"/>
<path d="M95.8398 120H87.8395V112H95.8398V120Z" fill="white"/>
<path d="M103.797 120H95.7972V112H103.797V120Z" fill="white"/>
<path d="M111.754 120H103.755V112H111.754V120Z" fill="white"/>
<path d="M119.711 120H111.712V112H119.711V120Z" fill="white"/>
<path d="M127.67 120H119.669V112H127.67V120Z" fill="white"/>
<path d="M135.627 120H127.626V112H135.627V120Z" fill="#D4D4D4"/>
<path d="M143.584 120H135.585V112H143.584V120Z" fill="white"/>
<path d="M151.541 120H143.542V112H151.541V120Z" fill="#D4D4D4"/>
<path d="M159.499 120H151.499V112H159.499V120Z" fill="#F62431"/>
<path d="M167.456 120H159.456V112H167.456V120Z" fill="#9D0B1D"/>
<path d="M175.413 120H167.413V112H175.413V120Z" fill="#9D0B1D"/>
<path d="M183.372 120H175.371V112H183.372V120Z" fill="#9D0B1D"/>
<path d="M191.329 120H183.328V112H191.329V120Z" fill="#9D0B1D"/>
<path d="M199.286 120H191.287V112H199.286V120Z" fill="#F62431"/>
<path d="M32.1808 128.001H24.1805L24.1804 120H32.1806L32.1808 128.001Z" fill="#D4D4D4"/>
<path d="M40.1377 128.001H32.1379L32.1378 120H40.1376L40.1377 128.001Z" fill="white"/>
<path d="M48.0953 128.001H40.0956L40.0955 120H48.0952L48.0953 128.001Z" fill="white"/>
<path d="M56.053 128.001H48.0527L48.0526 120H56.0528L56.053 128.001Z" fill="white"/>
<path d="M64.0101 128.001H56.0104L56.0102 120H64.01L64.0101 128.001Z" fill="white"/>
<path d="M71.9677 128.001H63.9674L63.9673 120H71.9676L71.9677 128.001Z" fill="#D4D4D4"/>
<path d="M79.9252 128.001H71.9249L71.9248 120H79.925L79.9252 128.001Z" fill="#D4D4D4"/>
<path d="M87.8823 128.001H79.8826L79.8824 120H87.8822L87.8823 128.001Z" fill="#D4D4D4"/>
<path d="M95.8399 128.001H87.8396L87.8395 120H95.8398L95.8399 128.001Z" fill="white"/>
<path d="M103.797 128.001H95.7972L95.7972 120H103.797L103.797 128.001Z" fill="white"/>
<path d="M111.754 128.001H103.755L103.755 120H111.754L111.754 128.001Z" fill="white"/>
<path d="M119.712 128.001H111.712L111.712 120H119.711L119.712 128.001Z" fill="#D4D4D4"/>
<path d="M127.67 128.001H119.669L119.669 120H127.67L127.67 128.001Z" fill="#D4D4D4"/>
<path d="M135.627 128.001H127.627L127.626 120H135.627L135.627 128.001Z" fill="white"/>
<path d="M143.584 128.001H135.585L135.585 120H143.584L143.584 128.001Z" fill="white"/>
<path d="M151.541 128.001H143.542L143.542 120H151.541L151.541 128.001Z" fill="#D4D4D4"/>
<path d="M159.499 128.001H151.499L151.499 120H159.499L159.499 128.001Z" fill="#9D0B1D"/>
<path d="M183.372 128.001H175.371L175.371 120H183.372L183.372 128.001Z" fill="#9D0B1D"/>
<path d="M191.329 128.001H183.328L183.328 120H191.329L191.329 128.001Z" fill="#9D0B1D"/>
<path d="M199.286 128.001H191.287L191.287 120H199.286L199.286 128.001Z" fill="#9D0B1D"/>
<path d="M207.244 128.001H199.244V120H207.244V128.001Z" fill="#F62431"/>
<path d="M40.1377 135.999H32.1379V128.001H40.1377V135.999Z" fill="#D4D4D4"/>
<path d="M48.0953 135.999H40.0956V128.001H48.0953V135.999Z" fill="#D4D4D4"/>
<path d="M56.053 135.999H48.0527V128.001H56.053V135.999Z" fill="white"/>
<path d="M64.0101 135.999H56.0104V128.001H64.0101V135.999Z" fill="white"/>
<path d="M71.9677 135.999H63.9674V128.001H71.9677V135.999Z" fill="white"/>
<path d="M79.9252 135.999H71.9249V128.001H79.9252V135.999Z" fill="#D4D4D4"/>
<path d="M87.8823 135.999H79.8826V128.001H87.8823V135.999Z" fill="#D4D4D4"/>
<path d="M95.8399 135.999H87.8396V128.001H95.8399V135.999Z" fill="#D4D4D4"/>
<path d="M103.797 135.999H95.7972V128.001H103.797V135.999Z" fill="#D4D4D4"/>
<path d="M111.754 135.999H103.755V128.001H111.754V135.999Z" fill="#D4D4D4"/>
<path d="M119.712 135.999H111.712V128.001H119.712V135.999Z" fill="#D4D4D4"/>
<path d="M127.67 135.999H119.669V128.001H127.67V135.999Z" fill="white"/>
<path d="M135.627 135.999H127.627V128.001H135.627V135.999Z" fill="white"/>
<path d="M143.584 135.999H135.585V128.001H143.584V135.999Z" fill="#D4D4D4"/>
<path d="M207.244 135.999H199.244V128.001H207.244V135.999Z" fill="#F62431"/>
<path d="M48.0953 144H40.0956V135.999H48.0953V144Z" fill="#D4D4D4"/>
<path d="M56.053 144H48.0527V135.999H56.053V144Z" fill="#D4D4D4"/>
<path d="M64.0101 144H56.0104V135.999H64.0101V144Z" fill="white"/>
<path d="M71.9677 144H63.9674V135.999H71.9677V144Z" fill="white"/>
<path d="M79.9252 144H71.9249V135.999H79.9252V144Z" fill="white"/>
<path d="M87.8823 144H79.8826V135.999H87.8823V144Z" fill="white"/>
<path d="M95.8399 144H87.8396V135.999H95.8399V144Z" fill="white"/>
<path d="M103.797 144H95.7972V135.999H103.797V144Z" fill="#D4D4D4"/>
<path d="M111.754 144H103.755V135.999H111.754V144Z" fill="white"/>
<path d="M119.712 144H111.712V135.999H119.712V144Z" fill="white"/>
<path d="M127.67 144H119.669V135.999H127.67V144Z" fill="white"/>
<path d="M135.627 144H127.627V135.999H135.627V144Z" fill="#D4D4D4"/>
<path d="M143.584 144H135.585V135.999H143.584V144Z" fill="#D4D4D4"/>
<path d="M56.053 152.001H48.0527V144H56.053V152.001Z" fill="#D4D4D4"/>
<path d="M64.0101 152.001H56.0104V144H64.0101V152.001Z" fill="#D4D4D4"/>
<path d="M71.9677 152.001H63.9674V144H71.9677V152.001Z" fill="white"/>
<path d="M79.9252 152.001H71.9249V144H79.9252V152.001Z" fill="white"/>
<path d="M87.8823 152.001H79.8826V144H87.8823V152.001Z" fill="white"/>
<path d="M95.8399 152.001H87.8396V144H95.8399V152.001Z" fill="white"/>
<path d="M103.797 152.001H95.7972V144H103.797V152.001Z" fill="white"/>
<path d="M111.754 152.001H103.755V144H111.754V152.001Z" fill="white"/>
<path d="M119.712 152.001H111.712V144H119.712V152.001Z" fill="white"/>
<path d="M127.67 152.001H119.669V144H127.67V152.001Z" fill="#D4D4D4"/>
<path d="M135.627 152.001H127.627V144H135.627V152.001Z" fill="#D4D4D4"/>
<path d="M64.01 160H56.0102L56.0104 152.001H64.0101L64.01 160Z" fill="#D4D4D4"/>
<path d="M71.9676 160H63.9673L63.9674 152.001H71.9677L71.9676 160Z" fill="#D4D4D4"/>
<path d="M79.925 160H71.9248L71.9249 152.001H79.9252L79.925 160Z" fill="#D4D4D4"/>
<path d="M87.8822 160H79.8824L79.8826 152.001H87.8823L87.8822 160Z" fill="#D4D4D4"/>
<path d="M95.8398 160H87.8395L87.8396 152.001H95.8399L95.8398 160Z" fill="white"/>
<path d="M103.797 160H95.7972L95.7972 152.001H103.797L103.797 160Z" fill="white"/>
<path d="M111.754 160H103.755L103.755 152.001H111.754L111.754 160Z" fill="white"/>
<path d="M119.711 160H111.712L111.712 152.001H119.712L119.711 160Z" fill="#D4D4D4"/>
<path d="M127.67 160H119.669L119.669 152.001H127.67L127.67 160Z" fill="#D4D4D4"/>
<path d="M79.9252 167.999H71.9249L71.9248 160H79.925L79.9252 167.999Z" fill="#D4D4D4"/>
<path d="M87.8823 167.999H79.8826L79.8824 160H87.8822L87.8823 167.999Z" fill="#D4D4D4"/>
<path d="M95.8399 167.999H87.8396L87.8395 160H95.8398L95.8399 167.999Z" fill="#D4D4D4"/>
<path d="M103.797 167.999H95.7972L95.7972 160H103.797L103.797 167.999Z" fill="#D4D4D4"/>
<path d="M111.754 167.999H103.755L103.755 160H111.754L111.754 167.999Z" fill="#D4D4D4"/>
<path d="M79.9252 175.999H71.9249V167.998H79.9252V175.999Z" fill="#FEA621"/>
<path d="M87.8823 175.999H79.8826V167.998H87.8823V175.999Z" fill="#EF6900"/>
<path d="M95.8399 175.999H87.8396V167.998H95.8399V175.999Z" fill="#D4D4D4"/>
<path d="M103.797 175.999H95.7972V167.998H103.797V175.999Z" fill="#FEA621"/>
<path d="M111.754 175.999H103.755V167.998H111.754V175.999Z" fill="#EF6900"/>
<path d="M79.925 184H71.9248V176H79.925V184Z" fill="#FEA621"/>
<path d="M87.8822 184H79.8824V176H87.8822V184Z" fill="#EF6900"/>
<path d="M103.797 184H95.7972V176H103.797V184Z" fill="#FEA621"/>
<path d="M111.754 184H103.755V176H111.754V184Z" fill="#EF6900"/>
<path d="M79.9252 192H71.9249L71.9248 184H79.925L79.9252 192Z" fill="#FEA621"/>
<path d="M87.8823 192H79.8826L79.8824 184H87.8822L87.8823 192Z" fill="#EF6900"/>
<path d="M103.797 192H95.7972L95.7972 184H103.797L103.797 192Z" fill="#FEA621"/>
<path d="M111.754 192H103.755L103.755 184H111.754L111.754 192Z" fill="#EF6900"/>
<path d="M64.0101 200.001H56.0104V192H64.0101V200.001Z" fill="#FEA621"/>
<path d="M71.9677 200.001H63.9674V192H71.9677V200.001Z" fill="#FEA621"/>
<path d="M79.9252 200.001H71.9249V192H79.9252V200.001Z" fill="#EF6900"/>
<path d="M87.8823 200.001H79.8826V192H87.8823V200.001Z" fill="#EF6900"/>
<path d="M95.8399 200.001H87.8396V192H95.8399V200.001Z" fill="#FEA621"/>
<path d="M103.797 200.001H95.7972V192H103.797V200.001Z" fill="#FEA621"/>
<path d="M111.754 200.001H103.755V192H111.754V200.001Z" fill="#EF6900"/>
<path d="M119.712 200.001H111.712V192H119.712V200.001Z" fill="#EF6900"/>
</svg>
