<svg width="195" height="200" viewBox="0 0 195 200" fill="none" xmlns="http://www.w3.org/2000/svg">
<path d="M31.5781 47.369H36.8403V42.1055H31.5781V47.369Z" fill="#FEED8A"/>
<path d="M63.1562 47.369H68.4198V42.1055H63.1562V47.369Z" fill="#FCD56E"/>
<path d="M57.8945 47.369H63.158V42.1055H57.8945V47.369Z" fill="#FEED8A"/>
<path d="M73.6838 47.3689H78.9473V42.1054H73.6838V47.3689Z" fill="#231F20"/>
<path d="M68.4219 47.3689H73.6838V42.1054H68.4219V47.3689Z" fill="#FCD56E"/>
<path d="M47.3672 47.369H52.6307V42.1055H47.3672V47.369Z" fill="#FEED8A"/>
<path d="M36.8438 47.369H42.1073V42.1055H36.8438V47.369Z" fill="#FEED8A"/>
<path d="M42.1055 47.369H47.369V42.1055H42.1055V47.369Z" fill="#FEED8A"/>
<path d="M26.3162 47.3689H31.5797V42.1054H26.3162V47.3689Z" fill="#231F20"/>
<path d="M52.6328 47.369H57.8945V42.1055H52.6328V47.369Z" fill="#FEED8A"/>
<path d="M15.7891 47.369H21.0526V42.1055H15.7891V47.369Z" fill="#231F20"/>
<path d="M21.0508 47.369H26.3143V42.1055H21.0508V47.369Z" fill="#231F20"/>
<path d="M0 63.1581H5.2635V57.8946H0V63.1581Z" fill="#231F20"/>
<path d="M31.5781 42.1055H36.8403V36.8418H31.5781V42.1055Z" fill="#231F20"/>
<path d="M36.8438 42.1055H42.1073V36.8418H36.8438V42.1055Z" fill="#231F20"/>
<path d="M42.1055 42.1055H47.369V36.8418H42.1055V42.1055Z" fill="#231F20"/>
<path d="M47.3672 42.1055H52.6307V36.8418H47.3672V42.1055Z" fill="#231F20"/>
<path d="M57.8945 42.1055H63.158V36.8418H57.8945V42.1055Z" fill="#231F20"/>
<path d="M63.1562 42.1055H68.4198V36.8418H63.1562V42.1055Z" fill="#231F20"/>
<path d="M52.6328 42.1055H57.8945V36.8418H52.6328V42.1055Z" fill="#231F20"/>
<path d="M68.4219 42.1054H73.6838L73.6841 36.8419H68.4219V42.1054Z" fill="#231F20"/>
<path d="M157.895 131.579H163.158V126.316H157.895V131.579Z" fill="#FCD56E"/>
<path d="M157.895 99.9998H163.158V94.7363H157.895V99.9998Z" fill="#231F20"/>
<path d="M157.895 126.316H163.158V121.053H157.895V126.316Z" fill="#FCD56E"/>
<path d="M157.895 142.104H163.158V136.842H157.895V142.104Z" fill="#FCD56E"/>
<path d="M157.895 147.367H163.158V142.104H157.895V147.367Z" fill="#FCD56E"/>
<path d="M157.895 136.842H163.158V131.579H157.895V136.842Z" fill="#FCD56E"/>
<path d="M157.895 110.526H163.158V105.264H157.895V110.526Z" fill="#FCD56E"/>
<path d="M157.895 105.264H163.158V99.9998H157.895V105.264Z" fill="#FEED8A"/>
<path d="M157.895 121.053H163.158V115.789H157.895V121.053Z" fill="#FCD56E"/>
<path d="M157.895 115.789H163.158V110.526H157.895V115.789Z" fill="#FCD56E"/>
<path d="M157.895 152.631H163.158V147.367H157.895V152.631Z" fill="#FAB24A"/>
<path d="M157.895 189.472H163.158V184.209H157.895V189.472Z" fill="#231F20"/>
<path d="M157.895 194.736H163.158V189.472H157.895V194.736Z" fill="#231F20"/>
<path d="M157.895 200H163.158V194.736H157.895V200Z" fill="#231F20"/>
<path d="M157.895 184.209H163.158V178.947H157.895V184.209Z" fill="#231F20"/>
<path d="M157.895 178.947H163.158V173.684H157.895V178.947Z" fill="#231F20"/>
<path d="M157.895 168.42H163.158V163.156H157.895V168.42Z" fill="#FAB24A"/>
<path d="M157.895 163.156H163.158V157.895H157.895V163.156Z" fill="#D7872E"/>
<path d="M157.895 157.895H163.158V152.631H157.895V157.895Z" fill="#231F20"/>
<path d="M157.895 173.684H163.158V168.42H157.895V173.684Z" fill="#FAB24A"/>
<path d="M100 194.736H105.264V189.473H100V194.736Z" fill="#231F20"/>
<path d="M147.367 105.264H152.632V100H147.367V105.264Z" fill="#FEED8A"/>
<path d="M147.367 100H152.632V94.7363H147.367V100Z" fill="#231F20"/>
<path d="M47.3672 52.6313H52.6307V47.369H47.3672V52.6313Z" fill="#FCD56E"/>
<path d="M21.0508 52.6313H26.3143V47.369H21.0508V52.6313Z" fill="#231F20"/>
<path d="M26.3162 52.6311H31.5797V47.3689H26.3162V52.6311Z" fill="#FEED8A"/>
<path d="M10.5273 52.6313H15.7895L15.7891 47.369L10.5273 47.3691V52.6313Z" fill="#231F20"/>
<path d="M31.5781 52.6313H36.8403V47.369H31.5781V52.6313Z" fill="#FEED8A"/>
<path d="M36.8438 52.6313H42.1073V47.369H36.8438V52.6313Z" fill="#FCD56E"/>
<path d="M5.26562 63.158H10.5291V57.8945H5.26562V63.158Z" fill="#FCD56E"/>
<path d="M5.26562 57.8945H10.5291V52.6309H5.26562V57.8945Z" fill="#231F20"/>
<path d="M15.7895 52.6313H21.0526V47.369H15.7891L15.7895 52.6313Z" fill="#FCD56E"/>
<path d="M73.6838 52.6311H78.9473V47.3689H73.6838V52.6311Z" fill="#231F20"/>
<path d="M68.4219 52.6311H73.6838V47.3689H68.4219V52.6311Z" fill="#FCD56E"/>
<path d="M78.9492 52.6313H84.2127V47.3691H78.9492V52.6313Z" fill="#231F20"/>
<path d="M147.367 110.526H152.632V105.264H147.367V110.526Z" fill="#FCD56E"/>
<path d="M52.6328 52.6313H57.895L57.8945 47.369H52.6328V52.6313Z" fill="#FCD56E"/>
<path d="M42.1055 52.6313H47.369V47.369H42.1055V52.6313Z" fill="#FCD56E"/>
<path d="M63.1562 52.6313H68.4198V47.369H63.1562V52.6313Z" fill="#FCD56E"/>
<path d="M57.895 52.6313H63.158V47.369H57.8945L57.895 52.6313Z" fill="#FCD56E"/>
<path d="M115.789 194.736H121.051V189.473H115.789V194.736Z" fill="#231F20"/>
<path d="M110.527 194.736H115.791V189.473H110.527V194.736Z" fill="#231F20"/>
<path d="M89.4727 194.736H94.7348V189.473H89.4727V194.736Z" fill="#231F20"/>
<path d="M94.7348 194.736H99.9979V189.473H94.7348V194.736Z" fill="#231F20"/>
<path d="M147.367 147.367H152.632V142.104H147.367V147.367Z" fill="#FCD56E"/>
<path d="M147.367 152.631H152.632V147.367H147.367V152.631Z" fill="#FAB24A"/>
<path d="M147.367 163.157H152.632V157.895H147.367V163.157Z" fill="#231F20"/>
<path d="M147.367 168.42H152.632V163.157H147.367V168.42Z" fill="#231F20"/>
<path d="M121.051 194.736H126.313V189.473H121.051V194.736Z" fill="#231F20"/>
<path d="M147.367 157.895H152.632V152.631H147.367V157.895Z" fill="#231F20"/>
<path d="M147.367 121.053H152.632V115.789H147.367V121.053Z" fill="#FCD56E"/>
<path d="M147.367 126.316H152.632V121.053H147.367V126.316Z" fill="#FCD56E"/>
<path d="M147.367 136.842H152.632V131.578H147.367V136.842Z" fill="#FCD56E"/>
<path d="M147.367 131.578H152.632V126.316H147.367V131.578Z" fill="#FCD56E"/>
<path d="M147.367 142.104H152.632V136.842H147.367V142.104Z" fill="#FCD56E"/>
<path d="M147.367 115.789H152.632V110.526H147.367V115.789Z" fill="#FCD56E"/>
<path d="M5.26562 68.4217H10.5291V63.158H5.26562V68.4217Z" fill="#231F20"/>
<path d="M152.633 173.683L157.895 173.684V168.42H152.632L152.633 173.683Z" fill="#231F20"/>
<path d="M152.632 168.42H157.895V163.156L152.632 163.157V168.42Z" fill="#FAB24A"/>
<path d="M152.632 152.631H157.895V147.367H152.632V152.631Z" fill="#FAB24A"/>
<path d="M152.632 147.367H157.895V142.104L152.632 142.104V147.367Z" fill="#FCD56E"/>
<path d="M115.789 200H121.051V194.736H115.789V200Z" fill="#918F8F"/>
<path d="M121.051 200H126.313V194.736H121.051V200Z" fill="#231F20"/>
<path d="M110.527 200H115.791V194.736H110.527V200Z" fill="#231F20"/>
<path d="M152.632 142.104L157.895 142.104V136.842L152.632 136.842V142.104Z" fill="#FCD56E"/>
<path d="M152.632 163.157L157.895 163.156V157.895H152.632V163.157Z" fill="#D7872E"/>
<path d="M152.632 105.264L157.895 105.264V99.9998L152.632 100V105.264Z" fill="#FEED8A"/>
<path d="M152.632 115.789H157.895V110.526H152.632V115.789Z" fill="#FCD56E"/>
<path d="M152.632 126.316L157.895 126.316V121.053L152.632 121.053V126.316Z" fill="#FCD56E"/>
<path d="M152.632 131.578L157.895 131.579V126.316L152.632 126.316V131.578Z" fill="#FCD56E"/>
<path d="M152.632 121.053L157.895 121.053V115.789H152.632V121.053Z" fill="#FCD56E"/>
<path d="M152.632 100L157.895 99.9998V94.7363H152.632V100Z" fill="#231F20"/>
<path d="M152.632 136.842L157.895 136.842V131.579L152.632 131.578V136.842Z" fill="#FCD56E"/>
<path d="M152.632 110.526H157.895V105.264L152.632 105.264V110.526Z" fill="#FCD56E"/>
<path d="M152.632 157.895H157.895V152.631H152.632V157.895Z" fill="#231F20"/>
<path d="M5.26562 94.7362H10.5291V89.4727H5.26562V94.7362Z" fill="#231F20"/>
<path d="M5.26562 99.9998H10.5291V94.7362H5.26562V99.9998Z" fill="#231F20"/>
<path d="M5.26562 105.264H10.5291V99.9998H5.26562V105.264Z" fill="#231F20"/>
<path d="M5.26562 115.789H10.5291V110.525H5.26562V115.789Z" fill="#231F20"/>
<path d="M5.26562 121.053H10.5291V115.789H5.26562V121.053Z" fill="#231F20"/>
<path d="M5.26562 110.525H10.5291V105.264H5.26562V110.525Z" fill="#231F20"/>
<path d="M100 200H105.263L105.264 194.736H100L100 200Z" fill="#231F20"/>
<path d="M89.4727 200H94.7348V194.736H89.4727V200Z" fill="#231F20"/>
<path d="M94.7348 200H99.9979V194.736H94.7348V200Z" fill="#918F8F"/>
<path d="M68.4219 31.5784H73.6841V26.3162H68.4219V31.5784Z" fill="#231F20"/>
<path d="M63.1562 31.5786H68.4198V26.3164H63.1562V31.5786Z" fill="#BA6E62"/>
<path d="M57.8945 31.5786H63.158V26.3164H57.8945V31.5786Z" fill="#231F20"/>
<path d="M36.8438 31.5786H42.1073V26.3164H36.8438V31.5786Z" fill="#BA6E62"/>
<path d="M31.5781 31.5786H36.8403V26.3164H31.5781V31.5786Z" fill="#231F20"/>
<path d="M42.1055 31.5786H47.369V26.3164H42.1055V31.5786Z" fill="#231F20"/>
<path d="M168.422 184.209H173.687V178.947H168.422V184.209Z" fill="#231F20"/>
<path d="M168.422 178.947H173.687V173.684H168.422V178.947Z" fill="#231F20"/>
<path d="M168.422 194.736H173.687V189.473H168.422V194.736Z" fill="#231F20"/>
<path d="M168.422 147.367H173.687V142.104H168.422V147.367Z" fill="#FCD56E"/>
<path d="M168.422 173.684H173.687V168.42H168.422V173.684Z" fill="#231F20"/>
<path d="M168.422 163.157H173.687V157.895H168.422V163.157Z" fill="#D7872E"/>
<path d="M168.422 152.631H173.687V147.367H168.422V152.631Z" fill="#FCD56E"/>
<path d="M168.422 157.895H173.687V152.631H168.422V157.895Z" fill="#FAB24A"/>
<path d="M168.422 200H173.687V194.736H168.422V200Z" fill="#231F20"/>
<path d="M168.422 168.42H173.687V163.157H168.422V168.42Z" fill="#231F20"/>
<path d="M168.422 189.473H173.687V184.209H168.422V189.473Z" fill="#231F20"/>
<path d="M168.422 84.2108H173.687V78.9473H168.422V84.2108Z" fill="#FEED8A"/>
<path d="M168.422 78.9473H173.687V73.6836H168.422V78.9473Z" fill="#231F20"/>
<path d="M168.422 142.104H173.687V136.842H168.422V142.104Z" fill="#FCD56E"/>
<path d="M168.422 89.4731H173.687V84.2108H168.422V89.4731Z" fill="#231F20"/>
<path d="M168.422 131.579H173.687V126.316H168.422V131.579Z" fill="#FCD56E"/>
<path d="M168.422 126.316H173.687V121.053H168.422V126.316Z" fill="#FCD56E"/>
<path d="M168.422 136.842H173.687V131.579H168.422V136.842Z" fill="#FCD56E"/>
<path d="M168.422 121.053H173.687V115.789H168.422V121.053Z" fill="#FCD56E"/>
<path d="M168.422 110.526H173.687V105.264H168.422V110.526Z" fill="#FCD56E"/>
<path d="M168.422 99.9998H173.687V94.7363H168.422V99.9998Z" fill="#FCD56E"/>
<path d="M168.422 105.264H173.687V99.9998H168.422V105.264Z" fill="#FCD56E"/>
<path d="M168.422 94.7363H173.687V89.4731H168.422V94.7363Z" fill="#231F20"/>
<path d="M168.422 115.789H173.687V110.526H168.422V115.789Z" fill="#FCD56E"/>
<path d="M173.684 152.631H178.946V147.367H173.684V152.631Z" fill="#FCD56E"/>
<path d="M173.684 157.894H178.946V152.631H173.684V157.894Z" fill="#FCD56E"/>
<path d="M173.684 147.367H178.946V142.104H173.684V147.367Z" fill="#FCD56E"/>
<path d="M173.684 168.42H178.946V163.156H173.684V168.42Z" fill="#D7872E"/>
<path d="M173.684 173.683H178.946V168.42H173.684V173.683Z" fill="#231F20"/>
<path d="M173.684 163.156H178.946V157.894H173.684V163.156Z" fill="#FAB24A"/>
<path d="M173.684 126.316H178.946V121.053H173.684V126.316Z" fill="#FCD56E"/>
<path d="M173.684 142.104H178.946V136.842H173.684V142.104Z" fill="#FCD56E"/>
<path d="M173.684 131.579H178.946V126.316H173.684V131.579Z" fill="#FCD56E"/>
<path d="M173.684 136.842H178.946V131.579H173.684V136.842Z" fill="#FCD56E"/>
<path d="M163.156 131.579H168.418V126.316H163.156V131.579Z" fill="#FCD56E"/>
<path d="M163.156 136.842H168.418V131.579H163.156V136.842Z" fill="#FCD56E"/>
<path d="M163.156 126.316H168.418V121.053H163.156V126.316Z" fill="#FCD56E"/>
<path d="M163.156 142.104H168.418V136.842H163.156V142.104Z" fill="#FCD56E"/>
<path d="M163.156 147.367H168.418V142.104H163.156V147.367Z" fill="#FCD56E"/>
<path d="M163.156 110.526H168.418V105.264H163.156V110.526Z" fill="#FCD56E"/>
<path d="M163.156 99.9998H168.418V94.7363H163.156V99.9998Z" fill="#231F20"/>
<path d="M163.156 152.631H168.418V147.367H163.156V152.631Z" fill="#FAB24A"/>
<path d="M163.156 115.789H168.418V110.526H163.156V115.789Z" fill="#FCD56E"/>
<path d="M163.156 121.053H168.418V115.789H163.156V121.053Z" fill="#FCD56E"/>
<path d="M163.156 105.264H168.418V99.9998H163.156V105.264Z" fill="#FEED8A"/>
<path d="M163.156 189.472H168.418V184.209H163.156V189.472Z" fill="#FAB24A"/>
<path d="M163.156 194.736H168.418V189.472H163.156V194.736Z" fill="#231F20"/>
<path d="M163.156 157.894H168.418V152.631H163.156V157.894Z" fill="#D7872E"/>
<path d="M163.156 200H168.418V194.736H163.156V200Z" fill="#918F8F"/>
<path d="M163.156 178.947H168.418V173.684H163.156V178.947Z" fill="#FAB24A"/>
<path d="M163.156 163.157H168.418V157.894H163.156V163.157Z" fill="#231F20"/>
<path d="M163.156 168.42H168.418V163.157H163.156V168.42Z" fill="#D7872E"/>
<path d="M163.156 173.684H168.418V168.42H163.156V173.684Z" fill="#FAB24A"/>
<path d="M163.156 184.209H168.418V178.947H163.156V184.209Z" fill="#FAB24A"/>
<path d="M163.156 84.2108H168.418V78.9473H163.156V84.2108Z" fill="#231F20"/>
<path d="M36.8438 36.8418H42.1073V31.5786H36.8438V36.8418Z" fill="#BA6E62"/>
<path d="M42.1055 36.8418H47.369V31.5786H42.1055V36.8418Z" fill="#231F20"/>
<path d="M57.8945 36.8418H63.158V31.5786H57.8945V36.8418Z" fill="#231F20"/>
<path d="M31.5781 36.8418H36.8403V31.5786H31.5781V36.8418Z" fill="#231F20"/>
<path d="M63.1562 36.8418H68.4198V31.5786H63.1562V36.8418Z" fill="#BA6E62"/>
<path d="M68.4219 36.8419H73.6841V31.5784H68.4219V36.8419Z" fill="#231F20"/>
<path d="M115.789 115.789H121.051V110.525H115.789V115.789Z" fill="#FCD56E"/>
<path d="M115.789 142.104H121.051V136.842H115.789V142.104Z" fill="#FCD56E"/>
<path d="M115.789 136.842H121.051V131.578H115.789V136.842Z" fill="#FCD56E"/>
<path d="M115.789 105.264H121.051V100H115.789V105.264Z" fill="#231F20"/>
<path d="M115.789 147.367H121.051V142.104H115.789V147.367Z" fill="#FCD56E"/>
<path d="M115.789 131.578H121.051V126.316H115.789V131.578Z" fill="#FCD56E"/>
<path d="M115.789 152.631H121.051V147.367H115.789V152.631Z" fill="#FCD56E"/>
<path d="M115.789 126.316H121.051V121.053H115.789V126.316Z" fill="#FCD56E"/>
<path d="M115.789 110.525H121.051V105.264H115.789V110.525Z" fill="#FEED8A"/>
<path d="M115.789 121.053H121.051V115.789H115.789V121.053Z" fill="#FCD56E"/>
<path d="M36.8438 99.9998H42.1073V94.7363H36.8438V99.9998Z" fill="#FCD56E"/>
<path d="M36.8438 115.789H42.1073V110.525H36.8438V115.789Z" fill="#FCD56E"/>
<path d="M36.8438 121.053H42.1073V115.789H36.8438V121.053Z" fill="#6D94B5"/>
<path d="M36.8438 126.316H42.1073V121.053H36.8438V126.316Z" fill="white"/>
<path d="M36.8438 110.525H42.1073V105.264H36.8438V110.525Z" fill="#FCD56E"/>
<path d="M36.8438 105.264H42.1073V99.9998H36.8438V105.264Z" fill="#FCD56E"/>
<path d="M36.8438 131.579H42.1073V126.316H36.8438V131.579Z" fill="white"/>
<path d="M36.8438 142.104H42.1073V136.842H36.8438V142.104Z" fill="#231F20"/>
<path d="M36.8438 147.368H42.1073V142.104H36.8438V147.368Z" fill="#FAB24A"/>
<path d="M36.8438 136.842H42.1073V131.579H36.8438V136.842Z" fill="#E7E3E2"/>
<path d="M115.789 157.894H121.051V152.631H115.789V157.894Z" fill="#FCD56E"/>
<path d="M63.1562 84.2108H68.4198V78.9473H63.1562V84.2108Z" fill="#FCD56E"/>
<path d="M73.6838 84.2108H78.9473V78.9473H73.6838V84.2108Z" fill="#231F20"/>
<path d="M57.8945 84.2108H63.158V78.9473H57.8945V84.2108Z" fill="#FCD56E"/>
<path d="M36.8438 94.7363H42.1073V89.4727H36.8438V94.7363Z" fill="#FCD56E"/>
<path d="M68.4219 84.2108H73.6838V78.9473H68.4219V84.2108Z" fill="#FCD56E"/>
<path d="M52.6328 84.2108H57.8945V78.9473H52.6328V84.2108Z" fill="#FCD56E"/>
<path d="M36.8438 84.2108H42.1073V78.9473H36.8438V84.2108Z" fill="#FCD56E"/>
<path d="M36.8438 89.4727H42.1073V84.2108H36.8438V89.4727Z" fill="#FCD56E"/>
<path d="M47.3672 84.2108H52.6307V78.9473H47.3672V84.2108Z" fill="#231F20"/>
<path d="M42.1055 84.2108H47.369V78.9473H42.1055V84.2108Z" fill="#FCD56E"/>
<path d="M42.1055 94.7362H47.369V89.4727H42.1055V94.7362Z" fill="#FCD56E"/>
<path d="M42.1055 89.4727H47.369V84.2108H42.1055V89.4727Z" fill="#FCD56E"/>
<path d="M52.6328 89.4731H57.895L57.8945 84.2108H52.6328V89.4731Z" fill="#FCD56E"/>
<path d="M47.3672 89.4731H52.6307V84.2108H47.3672V89.4731Z" fill="#FCD56E"/>
<path d="M42.1055 99.9998H47.369V94.7362H42.1055V99.9998Z" fill="#FCD56E"/>
<path d="M42.1055 121.053H47.369V115.789H42.1055V121.053Z" fill="white"/>
<path d="M57.895 89.4731H63.158V84.2108H57.8945L57.895 89.4731Z" fill="#FCD56E"/>
<path d="M42.1055 126.316H47.369V121.053H42.1055V126.316Z" fill="white"/>
<path d="M42.1055 110.526H47.369V105.264H42.1055V110.526Z" fill="#FCD56E"/>
<path d="M42.1055 105.264H47.369V99.9998H42.1055V105.264Z" fill="#FCD56E"/>
<path d="M42.1055 115.789H47.369V110.526H42.1055V115.789Z" fill="#FCD56E"/>
<path d="M115.789 163.157H121.051V157.894H115.789V163.157Z" fill="#FCD56E"/>
<path d="M63.1562 89.4731H68.4198V84.2108H63.1562V89.4731Z" fill="#FCD56E"/>
<path d="M68.4219 89.473H73.6841L73.6838 84.2108H68.4219V89.473Z" fill="#FCD56E"/>
<path d="M73.6841 89.473H78.9473V84.2108H73.6838L73.6841 89.473Z" fill="#FCD56E"/>
<path d="M78.9492 89.4731H84.2127V84.2109H78.9492V89.4731Z" fill="#231F20"/>
<path d="M89.4727 163.157H94.7348V157.895H89.4727V163.157Z" fill="#231F20"/>
<path d="M42.1055 131.579H47.369V126.316H42.1055V131.579Z" fill="white"/>
<path d="M110.527 163.157H115.791V157.895H110.527V163.157Z" fill="#231F20"/>
<path d="M94.7348 163.157H99.9979V157.895H94.7348V163.157Z" fill="#FAB24A"/>
<path d="M100 163.157H105.263V157.895H100V163.157Z" fill="#231F20"/>
<path d="M42.1055 142.104H47.369V136.842H42.1055V142.104Z" fill="#231F20"/>
<path d="M42.1055 147.368H47.369V142.104H42.1055V147.368Z" fill="#FAB24A"/>
<path d="M42.1055 136.842H47.369V131.579H42.1055V136.842Z" fill="#E7E3E2"/>
<path d="M42.1055 152.631H47.369V147.368H42.1055V152.631Z" fill="#231F20"/>
<path d="M36.8438 152.631H42.1073V147.368H36.8438V152.631Z" fill="#FAB24A"/>
<path d="M31.5781 99.9998H36.8403V94.7363H31.5781V99.9998Z" fill="#FCD56E"/>
<path d="M31.5781 78.9471H36.8403V73.6836H31.5781V78.9471Z" fill="#231F20"/>
<path d="M31.5781 105.264H36.8403V99.9998H31.5781V105.264Z" fill="#FCD56E"/>
<path d="M31.5781 89.4731H36.8403V84.2109H31.5781V89.4731Z" fill="#FCD56E"/>
<path d="M31.5781 84.2109H36.8403V78.9471H31.5781V84.2109Z" fill="#231F20"/>
<path d="M31.5781 94.7363H36.8403V89.4731H31.5781V94.7363Z" fill="#FCD56E"/>
<path d="M31.5781 110.526H36.8403V105.264H31.5781V110.526Z" fill="#FCD56E"/>
<path d="M31.5781 126.316H36.8416V121.053H31.5781V126.316Z" fill="#6D94B5"/>
<path d="M31.5781 121.053L36.8403 121.053V115.789H31.5781V121.053Z" fill="#6D94B5"/>
<path d="M31.5781 115.789H36.8403V110.526H31.5781V115.789Z" fill="#FCD56E"/>
<path d="M63.1562 78.9473H68.4198V73.6836H63.1562V78.9473Z" fill="#FCD56E"/>
<path d="M73.6838 78.9473H78.9473V73.6838H73.6838V78.9473Z" fill="#231F20"/>
<path d="M68.4219 78.9473H73.6838V73.6838H68.4219V78.9473Z" fill="#FCD56E"/>
<path d="M31.5781 131.579H36.8403V126.316L31.5781 126.316V131.579Z" fill="white"/>
<path d="M52.6328 78.9473H57.8945L57.895 73.6836H52.6328V78.9473Z" fill="#FCD56E"/>
<path d="M47.3672 78.9473H52.6307V73.6836H47.3672V78.9473Z" fill="#231F20"/>
<path d="M57.8945 78.9473H63.158V73.6836H57.895L57.8945 78.9473Z" fill="#FCD56E"/>
<path d="M36.8438 78.9473H42.1073V73.6836H36.8438V78.9473Z" fill="#FCD56E"/>
<path d="M42.1055 78.9473H47.369V73.6836H42.1055V78.9473Z" fill="#FCD56E"/>
<path d="M89.4727 173.683H94.7348V168.42H89.4727V173.683Z" fill="#231F20"/>
<path d="M94.7348 173.683H99.9979V168.42H94.7348V173.683Z" fill="#FAB24A"/>
<path d="M31.5781 152.631H36.8403V147.369H31.5781V152.631Z" fill="#231F20"/>
<path d="M31.5781 147.369H36.8403V142.104H31.5781V147.369Z" fill="#231F20"/>
<path d="M31.5781 142.104H36.8403V136.842H31.5781V142.104Z" fill="#231F20"/>
<path d="M31.5781 136.842H36.8403V131.579H31.5781V136.842Z" fill="#E7E3E2"/>
<path d="M110.527 168.42H115.791V163.157H110.527V168.42Z" fill="#231F20"/>
<path d="M94.7348 168.42H99.9979V163.157H94.7348V168.42Z" fill="#FAB24A"/>
<path d="M89.4727 168.42H94.7348V163.157H89.4727V168.42Z" fill="#231F20"/>
<path d="M100 168.42H105.264L105.263 163.157H100L100 168.42Z" fill="#231F20"/>
<path d="M121.051 168.42H126.313V163.156L121.051 163.157L121.051 168.42Z" fill="#231F20"/>
<path d="M121.051 163.157L126.313 163.156V157.895L121.051 157.894V163.157Z" fill="#231F20"/>
<path d="M115.789 168.42H121.051L121.051 163.157H115.789V168.42Z" fill="#FCD56E"/>
<path d="M36.8438 157.894H42.1073V152.631H36.8438V157.894Z" fill="#231F20"/>
<path d="M121.051 157.894L126.313 157.895V152.631L121.051 152.631V157.894Z" fill="#FAB24A"/>
<path d="M121.051 152.631L126.313 152.631V147.367L121.051 147.367V152.631Z" fill="#FAB24A"/>
<path d="M121.051 142.104H126.313V136.842H121.051V142.104Z" fill="#FCD56E"/>
<path d="M121.051 136.842H126.313V131.578H121.051V136.842Z" fill="#FCD56E"/>
<path d="M121.051 147.367L126.313 147.367V142.104H121.051V147.367Z" fill="#FCD56E"/>
<path d="M121.051 105.264H126.313V100H121.051V105.264Z" fill="#231F20"/>
<path d="M121.051 131.578H126.313V126.316H121.051V131.578Z" fill="#FCD56E"/>
<path d="M121.051 110.525L126.313 110.526V105.264H121.051V110.525Z" fill="#FEED8A"/>
<path d="M121.051 126.316H126.313V121.053H121.051V126.316Z" fill="#FCD56E"/>
<path d="M121.051 115.789H126.313V110.526L121.051 110.525V115.789Z" fill="#FCD56E"/>
<path d="M121.051 121.053H126.313V115.789H121.051V121.053Z" fill="#FCD56E"/>
<path d="M84.2109 131.579H89.4744V126.316H84.2109V131.579Z" fill="#FAB24A"/>
<path d="M57.8945 105.264H63.158V100H57.8945V105.264Z" fill="#FCD56E"/>
<path d="M57.8945 110.526H63.158V105.264H57.8945V110.526Z" fill="#FAB24A"/>
<path d="M63.1562 105.264H68.4198V100H63.1562V105.264Z" fill="#FAB24A"/>
<path d="M68.4219 105.263H73.6841V100H68.4219V105.263Z" fill="#231F20"/>
<path d="M57.8945 115.789H63.158V110.526H57.8945V115.789Z" fill="#D7872E"/>
<path d="M57.8945 121.053H63.158V115.789H57.8945V121.053Z" fill="#231F20"/>
<path d="M57.8945 126.316H63.158V121.053H57.8945V126.316Z" fill="#231F20"/>
<path d="M73.6841 105.263H78.9473V100H73.6841V105.263Z" fill="#FCD56E"/>
<path d="M94.7344 121.053H99.9979V115.789H94.7344V121.053Z" fill="#FCD56E"/>
<path d="M78.9492 105.264H84.2127V100H78.9492V105.264Z" fill="#FCD56E"/>
<path d="M94.7344 126.316H99.9979V121.053H94.7344V126.316Z" fill="#FCD56E"/>
<path d="M94.7344 136.842H99.9979V131.578H94.7344V136.842Z" fill="#FCD56E"/>
<path d="M94.7344 131.578H99.9979V126.316H94.7344V131.578Z" fill="#FCD56E"/>
<path d="M94.7344 115.789H99.9979V110.525H94.7344V115.789Z" fill="#FCD56E"/>
<path d="M84.2109 105.264H89.4744V100H84.2109V105.264Z" fill="#FCD56E"/>
<path d="M89.4727 105.264H94.7362V100H89.4727V105.264Z" fill="#FCD56E"/>
<path d="M94.7344 105.264H99.9979V100H94.7344V105.264Z" fill="#FCD56E"/>
<path d="M94.7344 110.525H99.9979V105.264H94.7344V110.525Z" fill="#FCD56E"/>
<path d="M100 131.578H105.263V126.316H100V131.578Z" fill="#FCD56E"/>
<path d="M100 121.053H105.263V115.789H100V121.053Z" fill="#FCD56E"/>
<path d="M100 115.789H105.263L105.264 110.525H100L100 115.789Z" fill="#FCD56E"/>
<path d="M100 126.316H105.263V121.053H100V126.316Z" fill="#FCD56E"/>
<path d="M100 110.525H105.264L105.263 105.263H100L100 110.525Z" fill="#FCD56E"/>
<path d="M94.7344 142.104H99.9979V136.842H94.7344V142.104Z" fill="#FAB24A"/>
<path d="M100 105.263H105.263V100H100V105.263Z" fill="#FEED8A"/>
<path d="M94.7344 100H99.9979V94.7363H94.7344V100Z" fill="#FEED8A"/>
<path d="M100 100H105.263V94.7365H100V100Z" fill="#231F20"/>
<path d="M89.4727 100H94.7362V94.7363H89.4727V100Z" fill="#FEED8A"/>
<path d="M173.684 121.053H178.946V115.789H173.684V121.053Z" fill="#FCD56E"/>
<path d="M100 142.104H105.263V136.842H100V142.104Z" fill="#FCD56E"/>
<path d="M94.7344 147.367H99.9979V142.104H94.7344V147.367Z" fill="#D7872E"/>
<path d="M100 147.367H105.264L105.263 142.104H100L100 147.367Z" fill="#FAB24A"/>
<path d="M89.4727 147.367H94.7344V142.104L89.4727 142.104V147.367Z" fill="#231F20"/>
<path d="M89.4727 142.104L94.7344 142.104V136.842L89.4727 136.842V142.104Z" fill="#D7872E"/>
<path d="M84.2109 100H89.4744V94.7363H84.2109V100Z" fill="#FEED8A"/>
<path d="M78.9492 115.789H84.2127V110.525H78.9492V115.789Z" fill="#FAB24A"/>
<path d="M84.2109 136.842H89.4744V131.579H84.2109V136.842Z" fill="#D7872E"/>
<path d="M89.4727 136.842L94.7344 136.842V131.578H89.4727V136.842Z" fill="#FAB24A"/>
<path d="M78.9492 136.842H84.2127V131.578H78.9492V136.842Z" fill="#231F20"/>
<path d="M78.9492 126.316H84.2127V121.053H78.9492V126.316Z" fill="#231F20"/>
<path d="M78.9492 121.053H84.2127V115.789H78.9492V121.053Z" fill="#231F20"/>
<path d="M84.2109 115.789H89.4744V110.525H84.2109V115.789Z" fill="#FCD56E"/>
<path d="M84.2109 126.316H89.4744V121.053H84.2109V126.316Z" fill="#FAB24A"/>
<path d="M78.9492 131.578H84.2127V126.316H78.9492V131.578Z" fill="#231F20"/>
<path d="M84.2109 121.053H89.4744V115.789H84.2109V121.053Z" fill="#FCD56E"/>
<path d="M100 173.683H105.264V168.42H100V173.683Z" fill="#231F20"/>
<path d="M73.6838 115.789H78.9473V110.525H73.6838V115.789Z" fill="#231F20"/>
<path d="M84.2109 142.104H89.4744V136.842H84.2109V142.104Z" fill="#231F20"/>
<path d="M63.1562 115.789H68.4198V110.525H63.1562V115.789Z" fill="#231F20"/>
<path d="M78.9492 110.525H84.2127V105.264H78.9492V110.525Z" fill="#FCD56E"/>
<path d="M89.4727 110.526H94.7362V105.264H89.4727V110.526Z" fill="#FCD56E"/>
<path d="M89.4727 121.053H94.7344V115.789H89.4727V121.053Z" fill="#FCD56E"/>
<path d="M89.4727 115.789H94.7344V110.525L89.4727 110.526V115.789Z" fill="#FCD56E"/>
<path d="M89.4727 126.316H94.7344V121.053H89.4727V126.316Z" fill="#FCD56E"/>
<path d="M73.6838 110.525H78.9473L78.9473 105.263H73.6841L73.6838 110.525Z" fill="#FAB24A"/>
<path d="M68.4219 110.526L73.6838 110.525L73.6841 105.263H68.4219V110.526Z" fill="#231F20"/>
<path d="M63.1562 110.525H68.4198V105.264H63.1562V110.525Z" fill="#D7872E"/>
<path d="M84.2109 110.525H89.4744V105.264H84.2109V110.525Z" fill="#FCD56E"/>
<path d="M89.4727 131.578H94.7344V126.316H89.4727V131.578Z" fill="#FCD56E"/>
<path d="M100 136.842H105.263V131.578H100V136.842Z" fill="#FCD56E"/>
<path d="M47.3672 142.104H52.6307V136.842H47.3672V142.104Z" fill="#231F20"/>
<path d="M47.3672 136.842H52.6307V131.578H47.3672V136.842Z" fill="#231F20"/>
<path d="M47.3672 147.368H52.6307V142.104H47.3672V147.368Z" fill="#231F20"/>
<path d="M47.3672 131.578H52.6307V126.316H47.3672V131.578Z" fill="#E7E3E2"/>
<path d="M47.3672 126.316H52.6307V121.053H47.3672V126.316Z" fill="white"/>
<path d="M47.3672 121.053H52.6307V115.789H47.3672V121.053Z" fill="white"/>
<path d="M57.8945 94.7362H63.158V89.4731H57.895L57.8945 94.7362Z" fill="#FEED8A"/>
<path d="M63.1562 94.7362H68.4198V89.4731H63.1562V94.7362Z" fill="#FCD56E"/>
<path d="M68.4219 94.7362H73.6841L73.6841 89.473H68.4219L68.4219 94.7362Z" fill="#FAB24A"/>
<path d="M52.6328 94.7362H57.8945L57.895 89.4731H52.6328V94.7362Z" fill="#FEED8A"/>
<path d="M47.3672 99.9998H52.6307V94.7363H47.3672V99.9998Z" fill="#FCD56E"/>
<path d="M47.3672 94.7363H52.6307V89.4731H47.3672V94.7363Z" fill="#FCD56E"/>
<path d="M47.3672 105.264H52.6307V99.9998H47.3672V105.264Z" fill="#FCD56E"/>
<path d="M47.3672 110.526H52.6307V105.264H47.3672V110.526Z" fill="#FCD56E"/>
<path d="M47.3672 115.789H52.6307V110.526H47.3672V115.789Z" fill="#FCD56E"/>
<path d="M110.527 126.316H115.791V121.053H110.527V126.316Z" fill="#FCD56E"/>
<path d="M110.527 121.053H115.791V115.789H110.527V121.053Z" fill="#FCD56E"/>
<path d="M110.527 131.579H115.791V126.316H110.527V131.579Z" fill="#FCD56E"/>
<path d="M110.527 136.842H115.791V131.579H110.527V136.842Z" fill="#FCD56E"/>
<path d="M73.6841 94.7362H78.9473L78.9473 89.473H73.6841L73.6841 94.7362Z" fill="#FCD56E"/>
<path d="M110.527 110.526H115.791V105.264H110.527V110.526Z" fill="#FCD56E"/>
<path d="M110.527 115.789H115.791V110.526H110.527V115.789Z" fill="#FCD56E"/>
<path d="M110.527 105.264H115.791V100H110.527V105.264Z" fill="#FEED8A"/>
<path d="M110.527 100H115.791V94.7363H110.527V100Z" fill="#231F20"/>
<path d="M110.527 147.367H115.791V142.104H110.527V147.367Z" fill="#FCD56E"/>
<path d="M110.527 142.104H115.791V136.842H110.527V142.104Z" fill="#FCD56E"/>
<path d="M89.4727 157.895H94.7348V152.631H89.4727V157.895Z" fill="#231F20"/>
<path d="M110.527 152.631H115.791V147.367H110.527V152.631Z" fill="#FCD56E"/>
<path d="M105.266 157.894L110.527 157.895V152.631L105.266 152.631V157.894Z" fill="#231F20"/>
<path d="M110.527 157.895H115.791V152.631H110.527V157.895Z" fill="#FAB24A"/>
<path d="M94.7348 157.895H99.9979V152.631H94.7348V157.895Z" fill="#D7872E"/>
<path d="M100 157.895H105.263V152.631H100V157.895Z" fill="#231F20"/>
<path d="M78.9492 94.7362H84.2127V89.4731H78.9492V94.7362Z" fill="#FEED8A"/>
<path d="M78.9492 100H84.2127V94.7362H78.9492V100Z" fill="#FCD56E"/>
<path d="M52.6328 131.579H57.895L57.8945 126.316L52.6328 126.316V131.579Z" fill="#231F20"/>
<path d="M52.6328 126.316L57.8945 126.316V121.053L52.6328 121.053V126.316Z" fill="#E7E3E2"/>
<path d="M52.6328 115.789H57.8945V110.526L52.6328 110.525V115.789Z" fill="#FCD56E"/>
<path d="M52.6328 121.053L57.8945 121.053V115.789H52.6328V121.053Z" fill="white"/>
<path d="M63.1562 100H68.4198V94.7362H63.1562V100Z" fill="#FCD56E"/>
<path d="M68.4219 100H73.6841L73.6841 94.7362H68.4219L68.4219 100Z" fill="#FAB24A"/>
<path d="M73.6841 100H78.9473L78.9473 94.7362H73.6841L73.6841 100Z" fill="#FCD56E"/>
<path d="M57.8945 100H63.158V94.7362H57.8945V100Z" fill="#FCD56E"/>
<path d="M52.6328 110.525L57.8945 110.526V105.264L52.6328 105.264V110.525Z" fill="#FCD56E"/>
<path d="M52.6328 99.9998L57.8945 100V94.7362H52.6328V99.9998Z" fill="#FCD56E"/>
<path d="M52.6328 105.264L57.8945 105.264V100L52.6328 99.9998V105.264Z" fill="#FCD56E"/>
<path d="M105.266 105.264L110.527 105.264V100H105.266V105.264Z" fill="#FEED8A"/>
<path d="M105.266 100H110.527V94.7363H105.266V100Z" fill="#231F20"/>
<path d="M105.266 115.789L110.527 115.789V110.526L105.266 110.525V115.789Z" fill="#FCD56E"/>
<path d="M105.266 110.525L110.527 110.526V105.264L105.266 105.264V110.525Z" fill="#FCD56E"/>
<path d="M84.2109 94.7363H89.4744V89.4727H84.2109V94.7363Z" fill="#231F20"/>
<path d="M89.4727 94.7363H94.7362V89.4727H89.4727V94.7363Z" fill="#231F20"/>
<path d="M94.7344 94.7363H99.9979V89.4727H94.7344V94.7363Z" fill="#231F20"/>
<path d="M105.266 121.053L110.527 121.053V115.789L105.266 115.789V121.053Z" fill="#FCD56E"/>
<path d="M100 152.631H105.263L105.264 147.367H100L100 152.631Z" fill="#D7872E"/>
<path d="M94.7348 152.631H99.9979V147.367H94.7344L94.7348 152.631Z" fill="#231F20"/>
<path d="M105.266 152.631L110.527 152.631V147.367L105.266 147.367V152.631Z" fill="#FAB24A"/>
<path d="M105.266 126.316H110.527V121.053L105.266 121.053V126.316Z" fill="#FCD56E"/>
<path d="M89.4727 152.631H94.7348L94.7344 147.367H89.4727V152.631Z" fill="#231F20"/>
<path d="M105.266 136.842H110.527V131.579L105.266 131.578V136.842Z" fill="#FCD56E"/>
<path d="M105.266 147.367L110.527 147.367V142.104H105.266V147.367Z" fill="#FCD56E"/>
<path d="M105.266 131.578L110.527 131.579V126.316H105.266V131.578Z" fill="#FCD56E"/>
<path d="M105.266 142.104H110.527V136.842H105.266V142.104Z" fill="#FCD56E"/>
<path d="M94.7348 189.473H99.9979V184.209H94.7344L94.7348 189.473Z" fill="#FAB24A"/>
<path d="M15.7891 131.579H21.0526V126.316H15.7891V131.579Z" fill="#231F20"/>
<path d="M15.7891 121.053H21.0526V115.789H15.7891V121.053Z" fill="white"/>
<path d="M15.7891 115.789H21.0526V110.525H15.7891V115.789Z" fill="#FCD56E"/>
<path d="M15.7891 110.525H21.0526V105.264H15.7891V110.525Z" fill="#FCD56E"/>
<path d="M15.7891 105.264H21.0526V100H15.7891V105.264Z" fill="#FCD56E"/>
<path d="M15.7891 126.316H21.0526V121.053H15.7891V126.316Z" fill="white"/>
<path d="M15.7891 63.158H21.0526V57.8945H15.7891V63.158Z" fill="#231F20"/>
<path d="M15.7891 68.4217H21.0526V63.158H15.7891V68.4217Z" fill="#231F20"/>
<path d="M21.0508 63.158H26.3143V57.8945H21.0508V63.158Z" fill="#FEED8A"/>
<path d="M26.3162 63.1581H31.5797V57.8946H26.3162V63.1581Z" fill="#FCD56E"/>
<path d="M15.7891 100H21.0526V94.7363H15.7891V100Z" fill="#FCD56E"/>
<path d="M15.7891 94.7363H21.0526V89.4727H15.7891V94.7363Z" fill="#FEED8A"/>
<path d="M15.7891 89.4727H21.0526V84.2109H15.7891V89.4727Z" fill="#FCD56E"/>
<path d="M15.7891 78.9471H21.0526V73.6836H15.7891V78.9471Z" fill="#FCD56E"/>
<path d="M15.7891 84.2109H21.0526V78.9471H15.7891V84.2109Z" fill="#FCD56E"/>
<path d="M89.4727 189.473H94.7348L94.7344 184.209H89.4727V189.473Z" fill="#231F20"/>
<path d="M31.5781 63.158H36.8416V57.8945H31.5781V63.158Z" fill="#FCD56E"/>
<path d="M15.7891 73.6836H21.0526V68.4199H15.7891V73.6836Z" fill="#FEED8A"/>
<path d="M136.844 105.264H142.107V100H136.844V105.264Z" fill="#231F20"/>
<path d="M136.844 110.526H142.107V105.264H136.844V110.526Z" fill="#FEED8A"/>
<path d="M136.844 126.316H142.107V121.053H136.844V126.316Z" fill="#FCD56E"/>
<path d="M136.844 115.789H142.107V110.526H136.844V115.789Z" fill="#FCD56E"/>
<path d="M136.844 121.053H142.107V115.789H136.844V121.053Z" fill="#FCD56E"/>
<path d="M136.844 157.894H142.107V152.631H136.844V157.894Z" fill="#231F20"/>
<path d="M136.844 136.842H142.107V131.578H136.844V136.842Z" fill="#FCD56E"/>
<path d="M136.844 142.104H142.107V136.842H136.844V142.104Z" fill="#FCD56E"/>
<path d="M136.844 152.631H142.107V147.367H136.844V152.631Z" fill="#FAB24A"/>
<path d="M136.844 131.578H142.107V126.316H136.844V131.578Z" fill="#FCD56E"/>
<path d="M63.1562 63.158H68.4198V57.8945H63.1562V63.158Z" fill="#FCD56E"/>
<path d="M89.4727 63.158H94.7348V57.8945H89.4727V63.158Z" fill="#231F20"/>
<path d="M68.4219 63.1581H73.6841V57.8946H68.4219V63.1581Z" fill="#FCD56E"/>
<path d="M78.9492 63.158H84.2127V57.8945H78.9492V63.158Z" fill="#FAB24A"/>
<path d="M84.2109 63.158H89.4744V57.8945H84.2109V63.158Z" fill="#FCD56E"/>
<path d="M73.6841 63.1581L78.9471 63.158V57.8945L73.6841 57.8946V63.1581Z" fill="#231F20"/>
<path d="M47.3672 63.158H52.6307V57.8945H47.3672V63.158Z" fill="#FCD56E"/>
<path d="M57.8945 63.158H63.158V57.8945H57.8945V63.158Z" fill="#FCD56E"/>
<path d="M52.6328 63.158H57.8945V57.8945H52.6328V63.158Z" fill="#FCD56E"/>
<path d="M42.1055 63.158H47.369V57.8945H42.1055V63.158Z" fill="#FCD56E"/>
<path d="M36.8438 63.158H42.1073V57.8945H36.8438V63.158Z" fill="#FCD56E"/>
<path d="M26.3162 57.8946H31.5797V52.6311H26.3162V57.8946Z" fill="#FEED8A"/>
<path d="M21.0508 57.8945H26.3143V52.6313H21.0508V57.8945Z" fill="#231F20"/>
<path d="M36.8438 57.8945H42.1073V52.6313H36.8438V57.8945Z" fill="#FCD56E"/>
<path d="M15.7891 57.8945H21.0526V52.6313H15.7895L15.7891 57.8945Z" fill="#FAB24A"/>
<path d="M31.5781 57.8945L36.8403 57.8944V52.6313H31.5781V57.8945Z" fill="#FCD56E"/>
<path d="M10.5273 73.6834L15.7891 73.6836V68.4199H10.5273V73.6834Z" fill="#231F20"/>
<path d="M10.5273 68.4217H15.7891V63.158L10.5273 63.1582V68.4217Z" fill="#231F20"/>
<path d="M100 189.473H105.264V184.209H100V189.473Z" fill="#231F20"/>
<path d="M10.5273 57.8944L15.7891 57.8945L15.7895 52.6313H10.5273V57.8944Z" fill="#FCD56E"/>
<path d="M10.5273 63.1582L15.7891 63.158V57.8945L10.5273 57.8944V63.1582Z" fill="#FAB24A"/>
<path d="M10.5273 78.9471H15.7891V73.6836L10.5273 73.6834V78.9471Z" fill="#231F20"/>
<path d="M73.6841 57.8946L78.9471 57.8945L78.9473 52.6311H73.6838L73.6841 57.8946Z" fill="#FCD56E"/>
<path d="M78.9492 57.8945H84.2127V52.6313H78.9492V57.8945Z" fill="#FCD56E"/>
<path d="M84.2109 57.8945H89.4744V52.6309H84.2109V57.8945Z" fill="#231F20"/>
<path d="M68.4219 57.8946L73.6854 57.8946V52.6311L68.4219 52.6311V57.8946Z" fill="#FCD56E"/>
<path d="M47.3672 57.8945H52.6307V52.6313H47.3672V57.8945Z" fill="#FCD56E"/>
<path d="M52.6328 57.8945L57.8963 57.8944V52.6309L52.6328 52.6313V57.8945Z" fill="#FCD56E"/>
<path d="M57.8945 57.8945H63.158V52.6313H57.895L57.8945 57.8945Z" fill="#FCD56E"/>
<path d="M63.1602 57.8944L68.4219 57.8946V52.6311L63.1602 52.6309V57.8944Z" fill="#FCD56E"/>
<path d="M10.5273 84.2108L15.7891 84.2109V78.9471H10.5273V84.2108Z" fill="#231F20"/>
<path d="M10.5273 105.264L15.7891 105.264V100H10.5273V105.264Z" fill="#FCD56E"/>
<path d="M10.5273 100H15.7891V94.7363H10.5273V100Z" fill="#FCD56E"/>
<path d="M10.5273 94.7363H15.7891V89.4727H10.5273V94.7363Z" fill="#FCD56E"/>
<path d="M10.5273 89.4727H15.7891V84.2109L10.5273 84.2108V89.4727Z" fill="#231F20"/>
<path d="M10.5273 110.526L15.7891 110.525V105.264L10.5273 105.264V110.526Z" fill="#FCD56E"/>
<path d="M10.5273 121.053H15.7891V115.789H10.5273V121.053Z" fill="white"/>
<path d="M10.5273 126.316L15.7891 126.316V121.053H10.5273V126.316Z" fill="#231F20"/>
<path d="M10.5273 115.789H15.7891V110.525L10.5273 110.526V115.789Z" fill="#FCD56E"/>
<path d="M42.1055 57.8945H47.369V52.6313H42.1055V57.8945Z" fill="#FCD56E"/>
<path d="M142.105 157.894H147.369V152.631H142.105V157.894Z" fill="#231F20"/>
<path d="M142.105 152.631H147.369V147.367H142.105V152.631Z" fill="#FAB24A"/>
<path d="M142.105 126.316H147.369V121.053H142.105V126.316Z" fill="#FCD56E"/>
<path d="M142.105 136.842H147.369V131.578H142.105V136.842Z" fill="#FCD56E"/>
<path d="M142.105 147.367H147.369V142.104H142.105V147.367Z" fill="#FCD56E"/>
<path d="M142.105 142.104H147.369V136.842H142.105V142.104Z" fill="#FCD56E"/>
<path d="M142.105 131.578H147.369V126.316H142.105V131.578Z" fill="#FCD56E"/>
<path d="M121.051 189.473H126.313V184.209H121.051L121.051 189.473Z" fill="#231F20"/>
<path d="M110.527 189.473H115.791V184.209H110.527V189.473Z" fill="#231F20"/>
<path d="M115.789 189.473H121.051L121.051 184.209H115.789V189.473Z" fill="#FCD56E"/>
<path d="M142.105 121.053H147.369V115.789H142.105V121.053Z" fill="#FCD56E"/>
<path d="M142.105 110.526H147.369V105.264H142.105V110.526Z" fill="#FCD56E"/>
<path d="M142.105 99.9998H147.369V94.7363H142.105V99.9998Z" fill="#231F20"/>
<path d="M142.105 115.789H147.369V110.526H142.105V115.789Z" fill="#FCD56E"/>
<path d="M142.105 105.264H147.369V99.9998H142.105V105.264Z" fill="#FEED8A"/>
<path d="M136.844 147.367H142.107V142.104H136.844V147.367Z" fill="#FCD56E"/>
<path d="M26.3162 131.578H31.5797V126.316H26.3162V131.578Z" fill="white"/>
<path d="M26.3162 142.104H31.5797V136.842H26.3162V142.104Z" fill="#231F20"/>
<path d="M26.3162 136.842H31.5797V131.578H26.3162V136.842Z" fill="#E7E3E2"/>
<path d="M26.3162 94.7362H31.5797V89.4727H26.3162V94.7362Z" fill="#FCD56E"/>
<path d="M26.3162 89.4727H31.5797L31.5797 84.2108H26.3162L26.3162 89.4727Z" fill="#FCD56E"/>
<path d="M26.3162 100H31.5797L31.5797 94.7362H26.3162L26.3162 100Z" fill="#FCD56E"/>
<path d="M26.3162 78.9473H31.5797V73.6838H26.3162V78.9473Z" fill="#FCD56E"/>
<path d="M26.3162 84.2108H31.5797V78.9473H26.3162V84.2108Z" fill="#FCD56E"/>
<path d="M26.3162 121.053H31.5797V115.789H26.3162V121.053Z" fill="#6D94B5"/>
<path d="M26.3162 115.789H31.5797L31.5797 110.525H26.3162L26.3162 115.789Z" fill="#FCD56E"/>
<path d="M26.3162 105.263H31.5797V100H26.3162V105.263Z" fill="#FCD56E"/>
<path d="M26.3162 126.316H31.5797V121.053H26.3162V126.316Z" fill="#6D94B5"/>
<path d="M26.3162 110.525H31.5797L31.5797 105.263H26.3162L26.3162 110.525Z" fill="#FCD56E"/>
<path d="M110.527 178.947H115.791V173.684H110.527V178.947Z" fill="#231F20"/>
<path d="M100 178.947H105.263L105.264 173.683H100L100 178.947Z" fill="#231F20"/>
<path d="M115.789 178.947H121.051V173.684H115.789V178.947Z" fill="#FCD56E"/>
<path d="M94.7344 178.947H99.9979V173.683H94.7348L94.7344 178.947Z" fill="#FAB24A"/>
<path d="M26.3162 73.6838L31.5781 73.6836L31.5786 68.4199H26.3164L26.3162 73.6838Z" fill="#FCD56E"/>
<path d="M89.4727 178.947H94.7344L94.7348 173.683H89.4727V178.947Z" fill="#231F20"/>
<path d="M121.051 178.947H126.313V173.684H121.051V178.947Z" fill="#231F20"/>
<path d="M126.316 115.789H131.581V110.525H126.316V115.789Z" fill="#FCD56E"/>
<path d="M126.316 126.316H131.581V121.053H126.316V126.316Z" fill="#FCD56E"/>
<path d="M31.5781 73.6836H36.8403V68.4199H31.5786L31.5781 73.6836Z" fill="#FCD56E"/>
<path d="M126.316 131.579H131.581V126.316H126.316V131.579Z" fill="#FCD56E"/>
<path d="M126.316 142.104H131.581V136.842H126.316V142.104Z" fill="#FCD56E"/>
<path d="M126.316 136.842H131.581V131.579H126.316V136.842Z" fill="#FCD56E"/>
<path d="M126.316 110.525H131.581V105.264H126.316V110.525Z" fill="#FEED8A"/>
<path d="M126.316 105.264H131.581V100H126.316V105.264Z" fill="#231F20"/>
<path d="M121.051 173.684H126.313V168.42H121.051L121.051 173.684Z" fill="#231F20"/>
<path d="M115.789 173.684H121.051L121.051 168.42H115.789V173.684Z" fill="#FCD56E"/>
<path d="M110.527 173.684H115.791V168.42H110.527V173.684Z" fill="#231F20"/>
<path d="M126.316 152.631H131.581V147.367H126.316V152.631Z" fill="#FAB24A"/>
<path d="M126.316 157.894H131.581V152.631H126.316V157.894Z" fill="#231F20"/>
<path d="M126.316 147.367H131.581V142.104H126.316V147.367Z" fill="#FCD56E"/>
<path d="M126.316 121.053H131.581V115.789H126.316V121.053Z" fill="#FCD56E"/>
<path d="M63.1562 73.6836H68.4198V68.4199H63.1562V73.6836Z" fill="#FCD56E"/>
<path d="M57.895 73.6836H63.158V68.4199H57.8945L57.895 73.6836Z" fill="#FCD56E"/>
<path d="M68.4219 73.6838H73.6838L73.6841 68.4199H68.4219L68.4219 73.6838Z" fill="#FCD56E"/>
<path d="M84.2109 73.6834H89.4731V68.4199H84.2109V73.6834Z" fill="#231F20"/>
<path d="M73.6838 73.6838H78.9473L78.9473 68.4199H73.6841L73.6838 73.6838Z" fill="#231F20"/>
<path d="M42.1055 73.6836H47.369V68.4199H42.1055V73.6836Z" fill="#FCD56E"/>
<path d="M52.6328 73.6836H57.895L57.8945 68.4199H52.6328V73.6836Z" fill="#FCD56E"/>
<path d="M36.8438 73.6836H42.1073V68.4199H36.8438V73.6836Z" fill="#FCD56E"/>
<path d="M47.3672 73.6836H52.6307V68.4199H47.3672V73.6836Z" fill="#FCD56E"/>
<path d="M89.4731 73.6834H94.7348V68.4199H89.4731V73.6834Z" fill="#231F20"/>
<path d="M21.0508 136.842H26.3143V131.578H21.0508V136.842Z" fill="#231F20"/>
<path d="M21.0547 84.2108L26.3162 84.2108V78.9473L21.0547 78.9473V84.2108Z" fill="#FCD56E"/>
<path d="M21.0508 131.578H26.3143V126.316H21.0508V131.578Z" fill="white"/>
<path d="M21.0508 105.264H26.3143V100H21.0508V105.264Z" fill="#FCD56E"/>
<path d="M21.0508 94.7362H26.3143V89.4727H21.0508V94.7362Z" fill="#FEED8A"/>
<path d="M21.0508 89.4727H26.3143V84.2109H21.0508V89.4727Z" fill="#FCD56E"/>
<path d="M21.0508 100H26.3143V94.7362H21.0508V100Z" fill="#FCD56E"/>
<path d="M21.0508 121.053H26.3143V115.789H21.0508V121.053Z" fill="#6D94B5"/>
<path d="M21.0508 110.526H26.3143V105.264H21.0508V110.526Z" fill="#FCD56E"/>
<path d="M21.0508 126.316H26.3143V121.053H21.0508V126.316Z" fill="white"/>
<path d="M21.0508 115.789H26.3143V110.526H21.0508V115.789Z" fill="#FCD56E"/>
<path d="M110.527 184.209H115.791V178.947H110.527V184.209Z" fill="#231F20"/>
<path d="M100 184.209H105.264L105.263 178.947H100L100 184.209Z" fill="#231F20"/>
<path d="M94.7344 184.209H99.9979V178.947H94.7344V184.209Z" fill="#FAB24A"/>
<path d="M89.4727 184.209H94.7344V178.947H89.4727V184.209Z" fill="#231F20"/>
<path d="M121.051 184.209H126.313V178.947H121.051L121.051 184.209Z" fill="#231F20"/>
<path d="M115.789 184.209H121.051L121.051 178.947H115.789V184.209Z" fill="#FCD56E"/>
<path d="M26.3164 68.4217H31.5786L31.5781 63.158L26.3162 63.1581L26.3164 68.4217Z" fill="#FCD56E"/>
<path d="M131.578 105.264H136.84V100H131.578V105.264Z" fill="#231F20"/>
<path d="M131.578 110.526H136.84V105.264H131.578V110.526Z" fill="#FEED8A"/>
<path d="M131.578 142.104H136.84V136.842H131.578V142.104Z" fill="#FCD56E"/>
<path d="M131.578 152.631H136.84V147.367H131.578V152.631Z" fill="#FAB24A"/>
<path d="M131.578 147.367H136.84V142.104H131.578V147.367Z" fill="#FCD56E"/>
<path d="M131.578 157.894H136.84V152.631H131.578V157.894Z" fill="#231F20"/>
<path d="M131.578 126.316H136.84V121.053H131.578V126.316Z" fill="#FCD56E"/>
<path d="M131.578 121.053H136.84V115.789H131.578V121.053Z" fill="#FCD56E"/>
<path d="M131.578 115.789H136.84V110.526H131.578V115.789Z" fill="#FCD56E"/>
<path d="M131.578 136.842H136.84V131.578H131.578V136.842Z" fill="#FCD56E"/>
<path d="M131.578 131.578H136.84V126.316H131.578V131.578Z" fill="#FCD56E"/>
<path d="M68.4219 68.4216H73.6841V63.1581H68.4219V68.4216Z" fill="#FCD56E"/>
<path d="M42.1055 68.4217H47.369V63.158H42.1055V68.4217Z" fill="#FCD56E"/>
<path d="M47.3672 68.4217H52.6307V63.158H47.3672V68.4217Z" fill="#FCD56E"/>
<path d="M36.8438 68.4217H42.1073V63.158H36.8438V68.4217Z" fill="#FCD56E"/>
<path d="M52.6328 68.4217H57.895L57.8945 63.158H52.6328V68.4217Z" fill="#FCD56E"/>
<path d="M57.895 68.4217H63.158V63.158H57.8945L57.895 68.4217Z" fill="#FCD56E"/>
<path d="M63.1562 68.4217H68.4198V63.158H63.1562V68.4217Z" fill="#FCD56E"/>
<path d="M21.0508 73.6834H26.3143V68.4199H21.0508V73.6834Z" fill="#FCD56E"/>
<path d="M31.5786 68.4217H36.8403V63.1582L31.5781 63.158L31.5786 68.4217Z" fill="#FCD56E"/>
<path d="M21.0508 68.4217H26.3143V63.158H21.0508V68.4217Z" fill="#FCD56E"/>
<path d="M73.6841 68.4216H78.9473L78.9471 63.158L73.6841 63.1581V68.4216Z" fill="#231F20"/>
<path d="M94.7344 68.4217H99.9979V63.1582L94.7348 63.158L94.7344 68.4217Z" fill="#231F20"/>
<path d="M78.9492 68.4217H84.2127V63.158H78.9492V68.4217Z" fill="#231F20"/>
<path d="M21.0547 78.9473L26.3162 78.9473V73.6838L21.0547 73.6836V78.9473Z" fill="#FCD56E"/>
<path d="M84.2109 68.4217H89.4744V63.158H84.2109V68.4217Z" fill="#FAB24A"/>
<path d="M89.4727 68.4217H94.7344L94.7348 63.158H89.4727V68.4217Z" fill="#FAB24A"/>
<path d="M73.6838 5.2635H78.9473V0H73.6838V5.2635Z" fill="#231F20"/>
<path d="M78.9492 5.2635H84.2127V0H78.9492V5.2635Z" fill="#231F20"/>
<path d="M52.6328 5.2635H57.895V0H52.6328V5.2635Z" fill="#231F20"/>
<path d="M47.3672 5.2635H52.6307V0H47.3672V5.2635Z" fill="#231F20"/>
<path d="M173.684 115.789H178.946V110.525H173.684V115.789Z" fill="#FEED8A"/>
<path d="M68.4219 21.0527H73.6841V15.7892H68.4219V21.0527Z" fill="#231F20"/>
<path d="M57.8945 21.0526H63.158V15.7891H57.8945V21.0526Z" fill="#231F20"/>
<path d="M63.1562 21.0526H68.4198V15.7891H63.1562V21.0526Z" fill="#BA6E62"/>
<path d="M36.8438 21.0526H42.1073V15.7891H36.8438V21.0526Z" fill="#BA6E62"/>
<path d="M31.5781 21.0526H36.8403V15.7891H31.5781V21.0526Z" fill="#231F20"/>
<path d="M42.1055 21.0526H47.369V15.7891H42.1055V21.0526Z" fill="#231F20"/>
<path d="M184.211 121.053H189.473V115.789H184.211V121.053Z" fill="#231F20"/>
<path d="M184.211 131.579H189.473V126.316H184.211V131.579Z" fill="#231F20"/>
<path d="M184.211 89.4731H189.473V84.2109H184.211V89.4731Z" fill="#231F20"/>
<path d="M184.211 94.7362H189.473V89.4731H184.211V94.7362Z" fill="#231F20"/>
<path d="M184.211 136.842H189.473V131.579H184.211V136.842Z" fill="#231F20"/>
<path d="M184.211 126.316H189.473V121.053H184.211V126.316Z" fill="#231F20"/>
<path d="M184.211 168.42H189.473V163.156H184.211V168.42Z" fill="#FCD56E"/>
<path d="M184.211 178.947H189.473V173.684H184.211V178.947Z" fill="#FCD56E"/>
<path d="M184.211 184.209H189.473V178.947H184.211V184.209Z" fill="#FCD56E"/>
<path d="M184.211 157.894H189.473V152.631H184.211V157.894Z" fill="#231F20"/>
<path d="M184.211 163.156H189.473V157.894H184.211V163.156Z" fill="#231F20"/>
<path d="M184.211 152.631H189.473V147.367H184.211V152.631Z" fill="#231F20"/>
<path d="M184.211 147.367H189.473V142.104H184.211V147.367Z" fill="#231F20"/>
<path d="M184.211 142.104H189.473V136.842H184.211V142.104Z" fill="#231F20"/>
<path d="M184.211 189.472H189.473V184.209H184.211V189.472Z" fill="#FCD56E"/>
<path d="M184.211 173.684H189.473V168.42H184.211V173.684Z" fill="#FCD56E"/>
<path d="M184.211 194.736H189.473V189.472H184.211V194.736Z" fill="#231F20"/>
<path d="M184.211 200H189.473V194.736H184.211V200Z" fill="#918F8F"/>
<path d="M178.949 142.104H184.213V136.842H178.949V142.104Z" fill="#FCD56E"/>
<path d="M36.8438 26.3164H42.1073V21.0526H36.8438V26.3164Z" fill="#BA6E62"/>
<path d="M31.5781 26.3164H36.8403V21.0526H31.5781V26.3164Z" fill="#231F20"/>
<path d="M42.1055 26.3164H47.369V21.0526H42.1055V26.3164Z" fill="#231F20"/>
<path d="M173.684 105.264H178.946V100H173.684V105.264Z" fill="#231F20"/>
<path d="M173.684 100H178.946V94.7363H173.684V100Z" fill="white"/>
<path d="M173.684 94.7363H178.946V89.4727H173.684V94.7363Z" fill="#FCD56E"/>
<path d="M173.684 110.525H178.946V105.264H173.684V110.525Z" fill="#FCD56E"/>
<path d="M173.684 78.9471H178.946V73.6836H173.684V78.9471Z" fill="#231F20"/>
<path d="M173.684 89.4727H178.946V84.2109H173.684V89.4727Z" fill="#FCD56E"/>
<path d="M173.684 84.2109H178.946V78.9471H173.684V84.2109Z" fill="#FCD56E"/>
<path d="M68.4219 26.3162H73.6841V21.0527H68.4219V26.3162Z" fill="#231F20"/>
<path d="M57.8945 26.3164H63.158V21.0526H57.8945V26.3164Z" fill="#231F20"/>
<path d="M63.1562 26.3164H68.4198V21.0526H63.1562V26.3164Z" fill="#BA6E62"/>
<path d="M178.949 168.42H184.213V163.156H178.949V168.42Z" fill="#FAB24A"/>
<path d="M178.949 173.683H184.213V168.42H178.949V173.683Z" fill="#D7872E"/>
<path d="M178.949 163.156H184.213V157.895H178.949V163.156Z" fill="#FCD56E"/>
<path d="M178.949 184.209H184.213V178.947H178.949V184.209Z" fill="#231F20"/>
<path d="M178.949 178.947H184.213V173.683H178.949V178.947Z" fill="#231F20"/>
<path d="M178.949 157.895H184.213V152.631H178.949V157.895Z" fill="#FCD56E"/>
<path d="M178.949 189.472H184.213V184.209H178.949V189.472Z" fill="#231F20"/>
<path d="M178.949 147.367H184.213V142.104H178.949V147.367Z" fill="#FCD56E"/>
<path d="M178.949 152.631H184.213V147.367H178.949V152.631Z" fill="#FCD56E"/>
<path d="M178.949 136.842H184.213V131.578H178.949V136.842Z" fill="#FCD56E"/>
<path d="M178.949 194.736H184.213V189.472H178.949V194.736Z" fill="#231F20"/>
<path d="M178.949 200H184.213V194.736H178.949V200Z" fill="#231F20"/>
<path d="M178.949 131.578H184.213V126.316H178.949V131.578Z" fill="#FCD56E"/>
<path d="M178.949 121.053H184.213V115.789H178.949V121.053Z" fill="#FEED8A"/>
<path d="M178.949 115.789H184.213V110.525H178.949V115.789Z" fill="#231F20"/>
<path d="M178.949 126.316H184.213V121.053H178.949V126.316Z" fill="#FCD56E"/>
<path d="M178.949 110.525H184.213V105.264H178.949V110.525Z" fill="#231F20"/>
<path d="M178.949 94.7362H184.213V89.4727H178.949V94.7362Z" fill="white"/>
<path d="M178.949 84.2108H184.213V78.9473H178.949V84.2108Z" fill="#231F20"/>
<path d="M178.949 89.4727H184.213V84.2108H178.949V89.4727Z" fill="white"/>
<path d="M178.949 99.9998H184.213V94.7362H178.949V99.9998Z" fill="#231F20"/>
<path d="M78.9492 10.5259H84.2127V5.2635H78.9492V10.5259Z" fill="#231F20"/>
<path d="M52.6328 10.5259H57.895V5.2635H52.6328V10.5259Z" fill="#231F20"/>
<path d="M68.4219 10.5257H73.6841L73.6838 5.2635L68.4219 5.26351V10.5257Z" fill="#231F20"/>
<path d="M73.6841 10.5257H78.9473V5.2635H73.6838L73.6841 10.5257Z" fill="#BA6E62"/>
<path d="M47.3672 10.5259H52.6307V5.2635H47.3672V10.5259Z" fill="#BA6E62"/>
<path d="M42.1055 10.5259H47.369V5.26367H42.1055V10.5259Z" fill="#231F20"/>
<path d="M68.4219 15.7892H73.6841L73.6841 10.5273H68.4219L68.4219 15.7892Z" fill="#BA6E62"/>
<path d="M73.6841 15.7892L78.9473 15.7895V10.5273H73.6841L73.6841 15.7892Z" fill="#231F20"/>
<path d="M63.1562 15.7891H68.4198V10.5273H63.1562V15.7891Z" fill="#231F20"/>
<path d="M42.1055 15.7891H47.369V10.5273H42.1055V15.7891Z" fill="#BA6E62"/>
<path d="M36.8438 15.7891H42.1073V10.5273H36.8438V15.7891Z" fill="#231F20"/>
<path d="M47.3672 15.7895H52.6307V10.5273H47.3672V15.7895Z" fill="#231F20"/>
<path d="M189.473 168.42H194.736V163.156H189.473V168.42Z" fill="#231F20"/>
<path d="M189.473 173.684L194.736 173.683V168.42H189.473V173.684Z" fill="#231F20"/>
<path d="M189.473 184.209H194.736V178.947L189.473 178.947V184.209Z" fill="#231F20"/>
<path d="M189.473 178.947L194.736 178.947V173.683L189.473 173.684V178.947Z" fill="#231F20"/>
<path d="M189.473 189.472H194.736V184.209H189.473V189.472Z" fill="#231F20"/>
<path d="M189.473 200H194.736V194.736L189.473 194.736V200Z" fill="#231F20"/>
<path d="M189.473 194.736L194.736 194.736V189.472H189.473V194.736Z" fill="#231F20"/>
</svg>
