<svg width="377" height="200" viewBox="0 0 377 200" fill="none" xmlns="http://www.w3.org/2000/svg">
<path d="M64.2773 200.001H72.2759V192H64.2773V200.001Z" fill="#231F20"/>
<path d="M56.2773 200.001H64.2773V192H56.2773V200.001Z" fill="#231F20"/>
<path d="M56.2776 191.999H64.2781V184H56.2776V191.999Z" fill="#28518C"/>
<path d="M48.2773 191.999H56.2776V184H48.2773V191.999Z" fill="#28518C"/>
<path d="M48.2773 184H56.2776L56.2779 176H48.2773V184Z" fill="#28518C"/>
<path d="M72.2773 200.001H80.2759V192H72.2773V200.001Z" fill="#231F20"/>
<path d="M104.277 200.001H112.278V192H104.277V200.001Z" fill="#231F20"/>
<path d="M48.2773 104.001H56.2779V96H48.2773V104.001Z" fill="#4472B4"/>
<path d="M48.2773 120.001H56.2779V112H48.2773V120.001Z" fill="#231F20"/>
<path d="M48.2773 127.999H56.2779V120.001H48.2773V127.999Z" fill="#231F20"/>
<path d="M48.2773 176H56.2779V168H48.2773V176Z" fill="#28518C"/>
<path d="M48.2773 112H56.2779V104.001H48.2773V112Z" fill="#4472B4"/>
<path d="M48.2773 135.999H56.2779V128H48.2773V135.999Z" fill="white"/>
<path d="M48.2773 144.001H56.2779V136H48.2773V144.001Z" fill="#D8E6EB"/>
<path d="M48.2773 168H56.2779V160H48.2773V168Z" fill="#231F20"/>
<path d="M48.2773 159.999H56.2779V152H48.2773V159.999Z" fill="#98B1B9"/>
<path d="M48.2773 152H56.2779V144.001H48.2773V152Z" fill="#B7CAD1"/>
<path d="M112.278 200.001H120.278V192H112.278V200.001Z" fill="#231F20"/>
<path d="M232.277 200.001H240.278V192H232.277V200.001Z" fill="#231F20"/>
<path d="M224.277 200.001H232.276V192H224.277V200.001Z" fill="#231F20"/>
<path d="M240.278 200.001H248.276V192H240.278V200.001Z" fill="#231F20"/>
<path d="M120.278 200.001H128.278V192H120.278V200.001Z" fill="#231F20"/>
<path d="M200.277 200.001H208.278V192H200.277V200.001Z" fill="#231F20"/>
<path d="M216.277 200.001H224.277V192H216.277V200.001Z" fill="#231F20"/>
<path d="M264.277 200.001H272.278V192H264.277V200.001Z" fill="#231F20"/>
<path d="M48.2773 96H56.2779V88H48.2773V96Z" fill="#4472B4"/>
<path d="M248.277 200.001H256.278V192H248.277V200.001Z" fill="#231F20"/>
<path d="M256.278 200.001H264.277V192H256.278V200.001Z" fill="#231F20"/>
<path d="M208.278 200.001H216.277V192H208.278V200.001Z" fill="#231F20"/>
<path d="M272.278 200.001H280.276V192H272.278V200.001Z" fill="#231F20"/>
<path d="M144.277 200.001H152.278V192H144.277V200.001Z" fill="#231F20"/>
<path d="M192.277 200.001H200.276V192H192.277V200.001Z" fill="#231F20"/>
<path d="M136.277 200.001H144.277V192H136.277V200.001Z" fill="#231F20"/>
<path d="M152.278 192V200.001H160.278V192H152.278Z" fill="#231F20"/>
<path d="M128.278 200.001H136.277V192H128.278V200.001Z" fill="#231F20"/>
<path d="M160.278 200.001H168.276V192H160.278V200.001Z" fill="#231F20"/>
<path d="M176.277 200.001H184.278V192H176.277V200.001Z" fill="#231F20"/>
<path d="M184.278 200.001H192.277V192H184.278V200.001Z" fill="#231F20"/>
<path d="M168.277 200.001H176.277V192H168.277V200.001Z" fill="#231F20"/>
<path d="M48.2773 88H56.2779V80H48.2773V88Z" fill="#4472B4"/>
<path d="M280.277 200.001H288.278V192H280.277V200.001Z" fill="#231F20"/>
<path d="M48.2773 80H56.2779V72H48.2773V80Z" fill="#4472B4"/>
<path d="M48.2773 56.0006H56.2779V48H48.2773V56.0006Z" fill="#231F20"/>
<path d="M48.2773 71.9986H56.2779V63.998H48.2773V71.9986Z" fill="#77A4DC"/>
<path d="M48.2773 64.0006H56.2779V56.0006H48.2773V64.0006Z" fill="#77A4DC"/>
<path d="M40.2773 104.001H48.2759V96H40.2773V104.001Z" fill="#4472B4"/>
<path d="M40.2773 71.9986H48.2759V63.998H40.2773V71.9986Z" fill="#77A4DC"/>
<path d="M40.2773 64.0006H48.2759V56H40.2773V64.0006Z" fill="#231F20"/>
<path d="M288.278 200.001H296.278V192H288.278V200.001Z" fill="#231F20"/>
<path d="M40.2773 88.0006H48.2759V80H40.2773V88.0006Z" fill="#4472B4"/>
<path d="M40.2773 112.001H48.2759V104.001H40.2773V112.001Z" fill="#4472B4"/>
<path d="M40.2773 96H48.2759V88.0006H40.2773V96Z" fill="#4472B4"/>
<path d="M40.2773 80H48.2759V72H40.2773V80Z" fill="#77A4DC"/>
<path d="M288.277 88.0006H296.278V80H288.277V88.0006Z" fill="#4472B4"/>
<path d="M288.277 39.9986H296.278V31.998H288.277V39.9986Z" fill="#4472B4"/>
<path d="M288.277 80H296.278V72H288.277V80Z" fill="#77A4DC"/>
<path d="M288.277 104.001H296.278V96H288.277V104.001Z" fill="#4472B4"/>
<path d="M288.277 112.001H296.278V104.001H288.277V112.001Z" fill="#4472B4"/>
<path d="M288.277 96H296.278V88.0006H288.277V96Z" fill="#4472B4"/>
<path d="M288.277 56.0006H296.278V48H288.277V56.0006Z" fill="#4472B4"/>
<path d="M288.277 48H296.278V40H288.277V48Z" fill="#4472B4"/>
<path d="M288.277 71.9986H296.278V63.998H288.277V71.9986Z" fill="#231F20"/>
<path d="M288.277 64.0006H296.278V56.0006H288.277V64.0006Z" fill="#231F20"/>
<path d="M288.277 120.001H296.278V112.001H288.277V120.001Z" fill="#4472B4"/>
<path d="M288.277 176.001H296.278V168H288.277V176.001Z" fill="#98B1B9"/>
<path d="M288.277 184.001H296.278V176.001H288.277V184.001Z" fill="#231F20"/>
<path d="M288.277 191.999H296.278V184.001H288.277V191.999Z" fill="#28518C"/>
<path d="M288.277 168H296.278V160H288.277V168Z" fill="#B7CAD1"/>
<path d="M288.277 159.999H296.278V152H288.277V159.999Z" fill="#D8E6EB"/>
<path d="M288.277 144.001H296.278V136H288.277V144.001Z" fill="#4472B4"/>
<path d="M288.277 136H296.278V128H288.277V136Z" fill="#4472B4"/>
<path d="M288.277 127.999H296.278V120.001H288.277V127.999Z" fill="#4472B4"/>
<path d="M288.277 152H296.278V144.001H288.277V152Z" fill="#D8E6EB"/>
<path d="M288.277 24.0006H296.278V16H288.277V24.0006Z" fill="#231F20"/>
<path d="M288.277 32.0006H296.278V24.0006H288.277V32.0006Z" fill="#77A4DC"/>
<path d="M200.277 184.001H208.278V176H200.277V184.001Z" fill="#98B1B9"/>
<path d="M272.277 24.0006H280.276V16H272.277V24.0006Z" fill="#4472B4"/>
<path d="M272.277 15.9986H280.276V8H272.277V15.9986Z" fill="#77A4DC"/>
<path d="M272.277 32.0006H280.276V24.0006H272.277V32.0006Z" fill="#4472B4"/>
<path d="M272.277 48.0006H280.276V40H272.277V48.0006Z" fill="#28518C"/>
<path d="M272.277 39.9986H280.276V31.998H272.277V39.9986Z" fill="#4472B4"/>
<path d="M272.277 56.0006H280.276V48.0006H272.277V56.0006Z" fill="#231F20"/>
<path d="M272.277 7.99857H280.276V0H272.277V7.99857Z" fill="#231F20"/>
<path d="M160.277 184.001H168.276V176H160.277V184.001Z" fill="#231F20"/>
<path d="M168.277 184.001H176.278V176H168.277V184.001Z" fill="#B7CAD1"/>
<path d="M176.278 184.001H184.278V176H176.278V184.001Z" fill="#B7CAD1"/>
<path d="M224.277 184.001H232.276V176H224.277V184.001Z" fill="#4472B4"/>
<path d="M136.277 184.001H144.278V176H136.277V184.001Z" fill="#B7CAD1"/>
<path d="M144.278 184.001H152.278V176H144.278V184.001Z" fill="#B7CAD1"/>
<path d="M208.278 184.001H216.278V176H208.278V184.001Z" fill="#231F20"/>
<path d="M216.278 184.001H224.277V176H216.278V184.001Z" fill="#28518C"/>
<path d="M184.278 184.001H192.278V176H184.278V184.001Z" fill="#B7CAD1"/>
<path d="M192.278 184.001H200.276V176H192.278V184.001Z" fill="#B7CAD1"/>
<path d="M152.278 184.001H160.277V176H152.278V184.001Z" fill="#B7CAD1"/>
<path d="M128.277 184.001H136.277V176H128.277V184.001Z" fill="#B7CAD1"/>
<path d="M80.2773 184.001H88.2779V176H80.2773V184.001Z" fill="#98B1B9"/>
<path d="M72.2773 184.001H80.2759V176H72.2773V184.001Z" fill="#231F20"/>
<path d="M40.2773 120.001H48.2759V112.001H40.2773V120.001Z" fill="#231F20"/>
<path d="M88.2779 184.001H96.2779V176H88.2779V184.001Z" fill="#231F20"/>
<path d="M120.277 184.001H128.277V176H120.277V184.001Z" fill="#231F20"/>
<path d="M112.277 184.001H120.277V176H112.277V184.001Z" fill="#B7CAD1"/>
<path d="M104.277 184.001H112.277V176H104.277V184.001Z" fill="#B7CAD1"/>
<path d="M96.2779 184.001H104.276V176H96.2779V184.001Z" fill="#B7CAD1"/>
<path d="M272.277 176.001H280.276V168H272.277V176.001Z" fill="#231F20"/>
<path d="M272.277 112.001H280.276V104H272.277V112.001Z" fill="#4472B4"/>
<path d="M272.277 120.001H280.276V112.001H272.277V120.001Z" fill="#4472B4"/>
<path d="M272.277 136.001H280.276V128H272.277V136.001Z" fill="#4472B4"/>
<path d="M272.277 144.001H280.276V136.001H272.277V144.001Z" fill="#4472B4"/>
<path d="M232.297 184.001H240.297V176H232.297V184.001Z" fill="#4472B4"/>
<path d="M272.277 127.999H280.276V120.001H272.277V127.999Z" fill="#4472B4"/>
<path d="M272.277 80.0006H280.276V72H272.277V80.0006Z" fill="#231F20"/>
<path d="M272.277 96.0006H280.276V88H272.277V96.0006Z" fill="#4472B4"/>
<path d="M272.277 88H280.276V80.0006H272.277V88Z" fill="#77A4DC"/>
<path d="M272.277 104H280.276V96.0006H272.277V104Z" fill="#4472B4"/>
<path d="M256.277 184.001H264.278V176H256.277V184.001Z" fill="#4472B4"/>
<path d="M248.277 184.001H256.277V176H248.277V184.001Z" fill="#4472B4"/>
<path d="M240.207 184.001H248.208V176H240.207V184.001Z" fill="#4472B4"/>
<path d="M264.278 184.001H272.278L272.277 176.001L264.278 176V184.001Z" fill="#4472B4"/>
<path d="M272.277 152.001H280.276V144.001H272.277V152.001Z" fill="#4472B4"/>
<path d="M272.277 168H280.276V160H272.277V168Z" fill="#B7CAD1"/>
<path d="M272.277 159.999H280.276V152.001H272.277V159.999Z" fill="#D8E6EB"/>
<path d="M272.278 184.001H280.276V176.001H272.277L272.278 184.001Z" fill="#4472B4"/>
<path d="M280.277 159.999H288.277V152H280.277V159.999Z" fill="#D8E6EB"/>
<path d="M280.277 152H288.277V144.001L280.277 144V152Z" fill="#D8E6EB"/>
<path d="M280.277 176.001H288.277V168H280.277V176.001Z" fill="#231F20"/>
<path d="M280.277 168H288.277V160H280.277V168Z" fill="#B7CAD1"/>
<path d="M280.277 184.001H288.277V176.001H280.277V184.001Z" fill="#77A4DC"/>
<path d="M280.277 144L288.277 144.001V136H280.277V144Z" fill="#4472B4"/>
<path d="M280.277 120.001H288.277V112.001L280.277 112V120.001Z" fill="#4472B4"/>
<path d="M280.277 112L288.277 112.001V104.001L280.277 104V112Z" fill="#4472B4"/>
<path d="M208.277 191.999H216.278V184.001H208.278L208.277 191.999Z" fill="#98B1B9"/>
<path d="M280.277 191.999H288.277V184.001H280.277V191.999Z" fill="#28518C"/>
<path d="M224.277 191.999H232.276V184.001H224.277V191.999Z" fill="#28518C"/>
<path d="M240.277 191.999H248.276V184H240.277V191.999Z" fill="#28518C"/>
<path d="M232.277 191.999H240.277V184H232.277V191.999Z" fill="#28518C"/>
<path d="M216.278 191.999H224.277V184.001H216.278V191.999Z" fill="#231F20"/>
<path d="M256.277 191.999H264.278V184.001H256.277V191.999Z" fill="#28518C"/>
<path d="M264.278 191.999H272.278V184.001H264.278V191.999Z" fill="#28518C"/>
<path d="M272.278 191.999H280.276V184.001H272.278V191.999Z" fill="#28518C"/>
<path d="M280.277 104L288.277 104.001V96H280.277V104Z" fill="#4472B4"/>
<path d="M248.277 191.999H256.277V184.001H248.277L248.277 191.999Z" fill="#28518C"/>
<path d="M280.277 136H288.277V128H280.277V136Z" fill="#4472B4"/>
<path d="M280.277 15.9986H288.278V8H280.277V15.9986Z" fill="#231F20"/>
<path d="M280.277 48.0006L288.277 48V40H280.277V48.0006Z" fill="#4472B4"/>
<path d="M280.277 80.0006L288.277 80V72H280.277V80.0006Z" fill="#231F20"/>
<path d="M280.277 24.0006H288.277V16H280.277V24.0006Z" fill="#77A4DC"/>
<path d="M280.277 88.0006H288.277V80L280.277 80.0006V88.0006Z" fill="#77A4DC"/>
<path d="M280.277 32.0006H288.277V24.0006H280.277V32.0006Z" fill="#4472B4"/>
<path d="M280.277 39.9986H288.277V31.998H280.277V39.9986Z" fill="#4472B4"/>
<path d="M280.277 96H288.277V88.0006H280.277V96Z" fill="#4472B4"/>
<path d="M280.277 56.0006H288.277V48L280.277 48.0006V56.0006Z" fill="#231F20"/>
<path d="M280.277 127.999H288.277V120.001H280.277V127.999Z" fill="#4472B4"/>
<path d="M56.2779 120.001H64.2778V112H56.2779V120.001Z" fill="#231F20"/>
<path d="M56.2779 112H64.2778L64.2779 104L56.2779 104.001V112Z" fill="#4472B4"/>
<path d="M56.2779 96L64.2778 96.0006V88H56.2779V96Z" fill="#4472B4"/>
<path d="M56.2779 127.999H64.2779L64.2778 120.001H56.2779V127.999Z" fill="#690A0D"/>
<path d="M56.2779 104.001L64.2779 104L64.2778 96.0006L56.2779 96V104.001Z" fill="#4472B4"/>
<path d="M56.2779 135.999H64.2781V128H56.2779V135.999Z" fill="#231F20"/>
<path d="M56.2779 88H64.2778L64.2779 80H56.2779V88Z" fill="#4472B4"/>
<path d="M56.2779 152L64.2778 152.001V144L56.2779 144.001V152Z" fill="#231F20"/>
<path d="M56.2779 159.999H64.2779L64.2778 152.001L56.2779 152V159.999Z" fill="#B7CAD1"/>
<path d="M56.2779 144.001L64.2778 144L64.2779 136H56.2779V144.001Z" fill="#231F20"/>
<path d="M56.2779 168L64.2781 168.001V160H56.2779V168Z" fill="#98B1B9"/>
<path d="M56.2776 47.9986H64.2781V39.998H56.2776V47.9986Z" fill="#231F20"/>
<path d="M56.2779 64.0006H64.2778V56L56.2779 56.0006V64.0006Z" fill="#77A4DC"/>
<path d="M56.2779 71.9986H64.2779V63.998H56.2779V71.9986Z" fill="#4472B4"/>
<path d="M56.2779 80H64.2779L64.2781 72H56.2779V80Z" fill="#4472B4"/>
<path d="M56.2779 56.0006L64.2778 56L64.2779 48H56.2779V56.0006Z" fill="#77A4DC"/>
<path d="M160.277 191.999H168.276V184.001H160.277V191.999Z" fill="#98B1B9"/>
<path d="M120.277 191.999H128.278L128.277 184.001H120.277V191.999Z" fill="#98B1B9"/>
<path d="M200.277 191.999H208.277L208.278 184.001H200.277V191.999Z" fill="#98B1B9"/>
<path d="M152.277 191.999H160.277V184.001H152.278L152.277 191.999Z" fill="#98B1B9"/>
<path d="M136.277 191.999H144.278V184.001H136.277V191.999Z" fill="#98B1B9"/>
<path d="M128.278 191.999H136.277V184.001H128.277L128.278 191.999Z" fill="#231F20"/>
<path d="M144.278 191.999H152.277L152.278 184.001H144.278V191.999Z" fill="#98B1B9"/>
<path d="M184.277 191.999H192.278V184.001H184.278L184.277 191.999Z" fill="#98B1B9"/>
<path d="M192.278 191.999H200.276V184.001H192.278V191.999Z" fill="#98B1B9"/>
<path d="M168.277 191.999H176.278V184.001H168.277V191.999Z" fill="#231F20"/>
<path d="M176.278 191.999H184.277L184.278 184.001H176.278V191.999Z" fill="#98B1B9"/>
<path d="M80.2775 191.999H88.278L88.2779 184.001H80.2773L80.2775 191.999Z" fill="#231F20"/>
<path d="M64.2781 191.999H72.2759V184H64.2781V191.999Z" fill="#28518C"/>
<path d="M64.2781 184H72.2759V176H64.2773L64.2781 184Z" fill="#28518C"/>
<path d="M56.2776 184H64.2781L64.2773 176H56.2779L56.2776 184Z" fill="#28518C"/>
<path d="M72.2773 191.999H80.2759V184.001H72.2773V191.999Z" fill="#28518C"/>
<path d="M104.277 191.999H112.278L112.277 184.001H104.277V191.999Z" fill="#98B1B9"/>
<path d="M96.2773 191.999H104.276V184.001H96.2779L96.2773 191.999Z" fill="#231F20"/>
<path d="M112.278 191.999H120.277V184.001H112.277L112.278 191.999Z" fill="#98B1B9"/>
<path d="M88.278 191.999H96.2773L96.2779 184.001H88.2779L88.278 191.999Z" fill="#231F20"/>
<path d="M56.2779 176H64.2773L64.2781 168.001L56.2779 168V176Z" fill="#231F20"/>
<path d="M304.277 168.001H312.278V160H304.277V168.001Z" fill="#231F20"/>
<path d="M304.277 159.999H312.278V152H304.277V159.999Z" fill="#231F20"/>
<path d="M304.277 112.001H312.278V104H304.277V112.001Z" fill="#4472B4"/>
<path d="M304.277 152H312.278V144H304.277V152Z" fill="#B7CAD1"/>
<path d="M304.277 136.001H312.278V128H304.277V136.001Z" fill="#D8E6EB"/>
<path d="M304.277 120.001H312.278V112.001H304.277V120.001Z" fill="#4472B4"/>
<path d="M304.277 127.999H312.278V120.001H304.277V127.999Z" fill="#4472B4"/>
<path d="M304.277 144H312.278V136.001H304.277V144Z" fill="#D8E6EB"/>
<path d="M304.277 200.001H312.278V192H304.277V200.001Z" fill="#231F20"/>
<path d="M304.277 104H312.278V96H304.277V104Z" fill="#4472B4"/>
<path d="M304.277 24.0006H312.278V16H304.277V24.0006Z" fill="#231F20"/>
<path d="M304.277 88.0006H312.278V80H304.277V88.0006Z" fill="#4472B4"/>
<path d="M304.277 80H312.278V72H304.277V80Z" fill="#4472B4"/>
<path d="M304.277 96H312.278V88.0006H304.277V96Z" fill="#4472B4"/>
<path d="M304.277 71.9986H312.278V63.998H304.277V71.9986Z" fill="#4472B4"/>
<path d="M304.277 56.0006H312.278V48H304.277V56.0006Z" fill="#4472B4"/>
<path d="M304.277 39.9986H312.278V31.998H304.277V39.9986Z" fill="#4472B4"/>
<path d="M304.277 48H312.278V40H304.277V48Z" fill="#4472B4"/>
<path d="M304.277 32.0006H312.278V24.0006H304.277V32.0006Z" fill="#77A4DC"/>
<path d="M304.277 64.0006H312.278V56.0006H304.277V64.0006Z" fill="#4472B4"/>
<path d="M72.2773 176H80.2759V168H72.2773V176Z" fill="#98B1B9"/>
<path d="M312.281 120.001H320.28V112H312.281V120.001Z" fill="#D8E6EB"/>
<path d="M312.281 127.999H320.28V120.001H312.281V127.999Z" fill="#D8E6EB"/>
<path d="M312.281 112H320.28V104H312.281V112Z" fill="#4472B4"/>
<path d="M312.281 144.001H320.28V136H312.281V144.001Z" fill="#231F20"/>
<path d="M312.281 152.001H320.28V144.001H312.281V152.001Z" fill="#231F20"/>
<path d="M312.281 136H320.28V128H312.281V136Z" fill="#B7CAD1"/>
<path d="M312.281 80.0006H320.28V72H312.281V80.0006Z" fill="#4472B4"/>
<path d="M312.281 104H320.28V96H312.281V104Z" fill="#4472B4"/>
<path d="M312.281 88.0006H320.28V80.0006H312.281V88.0006Z" fill="#4472B4"/>
<path d="M312.281 96H320.28V88.0006H312.281V96Z" fill="#4472B4"/>
<path d="M24.2773 104.001H32.2779V96H24.2773V104.001Z" fill="#4472B4"/>
<path d="M24.2773 112.001H32.2779V104.001H24.2773V112.001Z" fill="#4472B4"/>
<path d="M24.2776 80.0006H32.2781V72H24.2776V80.0006Z" fill="#231F20"/>
<path d="M24.2775 120.001H32.278L32.2779 112.001H24.2773L24.2775 120.001Z" fill="#4472B4"/>
<path d="M24.2773 96H32.2779L32.278 88H24.2775L24.2773 96Z" fill="#77A4DC"/>
<path d="M24.2773 144.001H32.2779V136H24.2773V144.001Z" fill="#231F20"/>
<path d="M24.2773 127.999H32.2779L32.278 120.001H24.2775L24.2773 127.999Z" fill="#4472B4"/>
<path d="M24.2776 135.999H32.2781V128H24.2776V135.999Z" fill="#231F20"/>
<path d="M24.2775 88H32.278L32.2781 80.0006H24.2776L24.2775 88Z" fill="#77A4DC"/>
<path d="M24.2776 191.999H32.2781V184H24.2776V191.999Z" fill="#4472B4"/>
<path d="M24.2776 184H32.2781L32.2779 176H24.2773L24.2776 184Z" fill="#77A4DC"/>
<path d="M24.2773 200.001H32.2779V192H24.2773V200.001Z" fill="#231F20"/>
<path d="M24.2773 176H32.2779V168H24.2773V176Z" fill="#231F20"/>
<path d="M296.278 88.0006H304.277V80H296.278V88.0006Z" fill="#4472B4"/>
<path d="M296.278 96L304.278 96.0007V88.0002L296.278 88.0006V96Z" fill="#4472B4"/>
<path d="M296.278 80H304.277V72H296.278V80Z" fill="#4472B4"/>
<path d="M296.278 104.001L304.277 104V96H296.278V104.001Z" fill="#4472B4"/>
<path d="M296.278 112.001H304.277V104L296.278 104.001V112.001Z" fill="#4472B4"/>
<path d="M296.278 56.0006H304.277V48H296.278V56.0006Z" fill="#4472B4"/>
<path d="M296.278 39.9986L304.278 39.9988V31.9982L296.278 31.998V39.9986Z" fill="#4472B4"/>
<path d="M296.278 120.001H304.277L304.278 112L296.278 112.001V120.001Z" fill="#4472B4"/>
<path d="M296.278 64.0006H304.277L304.278 55.9999L296.278 56.0006V64.0006Z" fill="#4472B4"/>
<path d="M296.278 71.9986H304.277V63.998H296.278V71.9986Z" fill="#4472B4"/>
<path d="M296.278 47.9986H304.278L304.277 39.9986H296.278L296.278 47.9986Z" fill="#4472B4"/>
<path d="M296.278 176.001H304.278L304.277 168.001L296.278 168V176.001Z" fill="#231F20"/>
<path d="M296.278 127.999H304.277V120.001H296.278V127.999Z" fill="#4472B4"/>
<path d="M296.278 191.999H304.278V184L296.278 184.001V191.999Z" fill="#231F20"/>
<path d="M296.278 200.001H304.277V192H296.278V200.001Z" fill="#231F20"/>
<path d="M296.278 159.999H304.277V152H296.278V159.999Z" fill="#B7CAD1"/>
<path d="M296.278 135.999H304.278L304.277 127.999H296.278L296.278 135.999Z" fill="#4472B4"/>
<path d="M296.278 144.001L304.277 144V136.001L296.278 136V144.001Z" fill="#D8E6EB"/>
<path d="M296.278 152L304.278 152.001L304.277 144L296.278 144.001V152Z" fill="#D8E6EB"/>
<path d="M296.278 168L304.277 168.001V160H296.278V168Z" fill="#98B1B9"/>
<path d="M296.278 32.0006H304.277V24.0006H296.278V32.0006Z" fill="#231F20"/>
<path d="M48.2773 200.001H56.2773V192H48.2773V200.001Z" fill="#231F20"/>
<path d="M40.2773 144.001H48.2759V136H40.2773V144.001Z" fill="#B7CAD1"/>
<path d="M40.2773 152.001H48.2759V144.001H40.2773V152.001Z" fill="#98B1B9"/>
<path d="M40.2773 159.999H48.2759V152.001H40.2773V159.999Z" fill="#231F20"/>
<path d="M40.2773 135.999H48.2759V128H40.2773V135.999Z" fill="#D8E6EB"/>
<path d="M40.2773 191.999H48.2759V184H40.2773V191.999Z" fill="#28518C"/>
<path d="M40.2773 200.001H48.2759V192H40.2773V200.001Z" fill="#231F20"/>
<path d="M40.2773 184H48.2759V176H40.2773V184Z" fill="#28518C"/>
<path d="M40.2773 168.001H48.2759V160H40.2773V168.001Z" fill="#77A4DC"/>
<path d="M40.2773 176H48.2759V168.001H40.2773V176Z" fill="#4472B4"/>
<path d="M32.2779 200.001H40.2773V192H32.2779V200.001Z" fill="#231F20"/>
<path d="M32.2781 184H40.2773V176H32.2779L32.2781 184Z" fill="#4472B4"/>
<path d="M32.2781 191.999H40.2773V184H32.2781V191.999Z" fill="#28518C"/>
<path d="M32.2779 176H40.2773V168.001L32.2779 168V176Z" fill="#77A4DC"/>
<path d="M32.2773 152.001H40.2773V144.001H32.2779L32.2773 152.001Z" fill="#231F20"/>
<path d="M32.2779 112.001H40.2773V104.001H32.2779V112.001Z" fill="#231F20"/>
<path d="M32.2779 127.999H40.2779L40.2773 120.001H32.278L32.2779 127.999Z" fill="#4472B4"/>
<path d="M32.278 120.001H40.2773V112.001H32.2779L32.278 120.001Z" fill="#4472B4"/>
<path d="M32.2779 104.001H40.2773V96H32.2779V104.001Z" fill="#4472B4"/>
<path d="M32.2781 135.999H40.2773V128H32.2781V135.999Z" fill="#4472B4"/>
<path d="M32.2779 168L40.2773 168.001V160H32.2773L32.2779 168Z" fill="#231F20"/>
<path d="M32.2779 144.001H40.2773V136H32.2779V144.001Z" fill="#B7CAD1"/>
<path d="M40.2779 127.999H48.2759V120.001H40.2773L40.2779 127.999Z" fill="#B7CAD1"/>
<path d="M32.2779 96H40.2773V88.0006L32.278 88L32.2779 96Z" fill="#4472B4"/>
<path d="M32.278 88L40.2773 88.0006V80L32.2781 80.0006L32.278 88Z" fill="#77A4DC"/>
<path d="M32.2781 80.0006L40.2773 80V72H32.2781V80.0006Z" fill="#77A4DC"/>
<path d="M32.2773 71.9986H40.2773V63.998H32.2773V71.9986Z" fill="#231F20"/>
<path d="M168.277 112.001H176.278V104H168.277V112.001Z" fill="#231F20"/>
<path d="M224.277 64.0006H232.276V56H224.277V64.0006Z" fill="#231F20"/>
<path d="M224.277 104.001H232.276V96H224.277V104.001Z" fill="#4472B4"/>
<path d="M224.277 96H232.276V88H224.277V96Z" fill="#4472B4"/>
<path d="M224.277 112.001H232.276V104.001H224.277V112.001Z" fill="#4472B4"/>
<path d="M224.277 88H232.276V80H224.277V88Z" fill="#4472B4"/>
<path d="M224.277 120.001H232.276V112.001H224.277V120.001Z" fill="#4472B4"/>
<path d="M224.277 80H232.276V72H224.277V80Z" fill="#77A4DC"/>
<path d="M224.277 71.9986H232.276V63.998H224.277V71.9986Z" fill="#77A4DC"/>
<path d="M104.277 39.9986H112.278V31.998H104.277V39.9986Z" fill="#4472B4"/>
<path d="M104.277 64.0006H112.278V56H104.277V64.0006Z" fill="#4472B4"/>
<path d="M104.277 71.9986H112.278V63.998H104.277V71.9986Z" fill="#4472B4"/>
<path d="M104.277 80.0006H112.278V72H104.277V80.0006Z" fill="#4472B4"/>
<path d="M104.277 56H112.278V48H104.277V56Z" fill="#4472B4"/>
<path d="M104.277 48H112.278V40H104.277V48Z" fill="#4472B4"/>
<path d="M104.277 88.0006H112.278V80.0006H104.277V88.0006Z" fill="#4472B4"/>
<path d="M104.277 104.001H112.278V96H104.277V104.001Z" fill="#4472B4"/>
<path d="M104.277 112.001H112.278V104.001H104.277V112.001Z" fill="#4472B4"/>
<path d="M104.277 96H112.278V88.0006H104.277V96Z" fill="#4472B4"/>
<path d="M224.277 127.999H232.276V120.001H224.277V127.999Z" fill="#4472B4"/>
<path d="M104.277 32.0006H112.278V24H104.277V32.0006Z" fill="#77A4DC"/>
<path d="M104.277 24H112.278V16H104.277V24Z" fill="#231F20"/>
<path d="M112.277 127.999H120.278V120H112.277V127.999Z" fill="white"/>
<path d="M112.278 32.0006H120.278V24H112.278V32.0006Z" fill="#77A4DC"/>
<path d="M112.278 24H120.278L120.278 16H112.278V24Z" fill="#231F20"/>
<path d="M128.277 24.0006H136.278V16H128.277V24.0006Z" fill="#231F20"/>
<path d="M120.278 24L128.277 24.0006V16H120.278L120.278 24Z" fill="#231F20"/>
<path d="M112.278 39.9986L120.278 39.9988V31.9982L112.278 31.998V39.9986Z" fill="#4472B4"/>
<path d="M112.278 71.9986H120.278V63.998H112.278V71.9986Z" fill="#4472B4"/>
<path d="M136.278 24.0006H144.278V16H136.278V24.0006Z" fill="#231F20"/>
<path d="M112.278 80.0006H120.278V72H112.278V80.0006Z" fill="#4472B4"/>
<path d="M112.278 56L120.278 56.0006V48H112.278V56Z" fill="#4472B4"/>
<path d="M112.277 47.9986H120.278L120.278 39.9988L112.278 39.9986L112.277 47.9986Z" fill="#4472B4"/>
<path d="M112.278 64.0006L120.278 64.0005L120.278 56.0006L112.278 56V64.0006Z" fill="#4472B4"/>
<path d="M224.277 136.001H232.276V128H224.277V136.001Z" fill="#4472B4"/>
<path d="M144.278 24.0006H152.278V16H144.278V24.0006Z" fill="#231F20"/>
<path d="M152.278 24.0006H160.278V16H152.278V24.0006Z" fill="#231F20"/>
<path d="M160.278 24.0006H168.276V16H160.278V24.0006Z" fill="#231F20"/>
<path d="M168.277 24.0006H176.278V16H168.277V24.0006Z" fill="#231F20"/>
<path d="M176.277 136.001H184.278V128H176.277V136.001Z" fill="#D8E6EB"/>
<path d="M184.278 136.001H192.278V128H184.278V136.001Z" fill="#4472B4"/>
<path d="M144.277 135.999H152.278V128H144.277V135.999Z" fill="#9C1116"/>
<path d="M152.278 128L152.277 136.001H160.278V128H152.278Z" fill="#231F20"/>
<path d="M160.278 136.001H168.276V128H160.278V136.001Z" fill="white"/>
<path d="M112.278 88.0006H120.278L120.278 80.0006H112.278V88.0006Z" fill="#4472B4"/>
<path d="M216.277 136.001H224.277V128H216.277V136.001Z" fill="#4472B4"/>
<path d="M192.278 136.001H200.276V128H192.278V136.001Z" fill="#4472B4"/>
<path d="M208.277 136.001H216.277V128H208.277V136.001Z" fill="#4472B4"/>
<path d="M200.277 136.001H208.277V128H200.277V136.001Z" fill="#4472B4"/>
<path d="M168.277 136.001H176.277V128H168.277V136.001Z" fill="#D8E6EB"/>
<path d="M112.278 104.001H120.278V96H112.278V104.001Z" fill="#4472B4"/>
<path d="M112.278 112.001H120.278V104.001H112.278V112.001Z" fill="#4472B4"/>
<path d="M112.278 96H120.278V88.0006H112.278V96Z" fill="#4472B4"/>
<path d="M112.277 120H120.278V112.001H112.278L112.277 120Z" fill="#231F20"/>
<path d="M120.277 135.999H128.278V128H120.277V135.999Z" fill="#9C1116"/>
<path d="M128.278 135.999H136.278V128H128.278V135.999Z" fill="#9C1116"/>
<path d="M104.277 120.001L112.277 120L112.278 112.001H104.277V120.001Z" fill="#231F20"/>
<path d="M136.278 135.999H144.277V128H136.278V135.999Z" fill="#9C1116"/>
<path d="M120.278 127.999H128.278V120H120.278V127.999Z" fill="white"/>
<path d="M96.2773 39.9986H104.276V31.998H96.2773V39.9986Z" fill="#77A4DC"/>
<path d="M96.2773 48.0006H104.276V40H96.2773V48.0006Z" fill="#4472B4"/>
<path d="M96.2773 32.0006H104.276V24H96.2773V32.0006Z" fill="#231F20"/>
<path d="M96.2773 56.0006H104.276V48.0006H96.2773V56.0006Z" fill="#4472B4"/>
<path d="M96.2773 80.0006H104.277V72H96.2773V80.0006Z" fill="#231F20"/>
<path d="M96.2773 71.9986H104.276V63.998H96.2773V71.9986Z" fill="#231F20"/>
<path d="M96.2773 64.0006H104.276V56.0006H96.2773V64.0006Z" fill="#4472B4"/>
<path d="M96.2773 88.0006H104.276V80L96.2773 80.0006V88.0006Z" fill="#77A4DC"/>
<path d="M152.277 144V152.001H160.278V144H152.277Z" fill="#D8E6EB"/>
<path d="M144.277 152.001H152.277V144H144.277V152.001Z" fill="white"/>
<path d="M136.277 152.001H144.277V144H136.277V152.001Z" fill="#231F20"/>
<path d="M160.278 152.001H168.276V144H160.278V152.001Z" fill="#D8E6EB"/>
<path d="M120.277 152.001H128.278V144H120.277V152.001Z" fill="#231F20"/>
<path d="M128.278 152.001H136.277V144H128.278V152.001Z" fill="#231F20"/>
<path d="M168.277 152.001H176.278V144H168.277V152.001Z" fill="#231F20"/>
<path d="M184.277 152.001H192.278V144H184.277V152.001Z" fill="#D8E6EB"/>
<path d="M192.278 152.001H200.276V144H192.278V152.001Z" fill="#4472B4"/>
<path d="M176.278 152.001H184.277V144H176.278V152.001Z" fill="#D8E6EB"/>
<path d="M104.277 152.001H112.278V144H104.277V152.001Z" fill="#231F20"/>
<path d="M96.2773 120.001H104.276V112H96.2773V120.001Z" fill="#231F20"/>
<path d="M96.2773 112H104.276V104H96.2773V112Z" fill="#4472B4"/>
<path d="M96.2773 127.999H104.276V120.001H96.2773V127.999Z" fill="white"/>
<path d="M96.2773 104H104.276V96H96.2773V104Z" fill="#4472B4"/>
<path d="M112.278 152.001H120.277V144H112.278V152.001Z" fill="#231F20"/>
<path d="M96.2773 135.999H104.276V128H96.2773V135.999Z" fill="#9C1116"/>
<path d="M96.2773 96H104.276V88.0006H96.2773V96Z" fill="#4472B4"/>
<path d="M104.277 144H112.278V136H104.277V144Z" fill="#9C1116"/>
<path d="M96.2773 144.001H104.276V136H96.2773V144.001Z" fill="#9C1116"/>
<path d="M216.277 144.001H224.278L224.277 136.001H216.277V144.001Z" fill="#4472B4"/>
<path d="M168.277 144H176.278L176.277 136.001H168.277V144Z" fill="#D8E6EB"/>
<path d="M192.278 144H200.276V136.001H192.278V144Z" fill="#4472B4"/>
<path d="M208.277 144.001H216.277V136.001H208.277V144.001Z" fill="#4472B4"/>
<path d="M176.278 144H184.277L184.278 136.001H176.277L176.278 144Z" fill="#D8E6EB"/>
<path d="M184.277 144H192.278V136.001H184.278L184.277 144Z" fill="#4472B4"/>
<path d="M200.277 144.001H208.277V136.001H200.277V144.001Z" fill="#4472B4"/>
<path d="M232.277 144.001H240.278V136H232.277V144.001Z" fill="#4472B4"/>
<path d="M232.277 136H240.278V128H232.277V136Z" fill="#4472B4"/>
<path d="M224.278 144.001H232.276V136.001H224.277L224.278 144.001Z" fill="#4472B4"/>
<path d="M104.277 127.999H112.277V120L104.277 120.001V127.999Z" fill="white"/>
<path d="M232.277 127.999H240.278V120H232.277V127.999Z" fill="#4472B4"/>
<path d="M120.277 144H128.278V136H120.277V144Z" fill="#9C1116"/>
<path d="M112.277 135.999H120.277V128H112.277V135.999Z" fill="#9C1116"/>
<path d="M112.278 144H120.277V136H112.278V144Z" fill="#9C1116"/>
<path d="M104.277 135.999H112.277V128H104.277V135.999Z" fill="#9C1116"/>
<path d="M160.278 144H168.276V136.001H160.278V144Z" fill="#231F20"/>
<path d="M128.278 144H136.277L136.278 136H128.278V144Z" fill="#9C1116"/>
<path d="M152.277 136.001V144H160.278V136.001H152.277Z" fill="white"/>
<path d="M144.277 144H152.277V136.001L144.277 136V144Z" fill="#231F20"/>
<path d="M136.277 144H144.277V136H136.278L136.277 144Z" fill="#9C1116"/>
<path d="M232.277 120H240.278V112H232.277V120Z" fill="#4472B4"/>
<path d="M232.277 24.0006H240.278V16H232.277V24.0006Z" fill="#231F20"/>
<path d="M232.277 104.001H240.278V96H232.277V104.001Z" fill="#4472B4"/>
<path d="M232.277 96H240.278V88H232.277V96Z" fill="#4472B4"/>
<path d="M232.277 112H240.278V104.001H232.277V112Z" fill="#4472B4"/>
<path d="M232.277 88H240.278V80H232.277V88Z" fill="#4472B4"/>
<path d="M232.277 80H240.278V72H232.277V80Z" fill="#77A4DC"/>
<path d="M232.277 71.9986H240.278V63.998H232.277V71.9986Z" fill="#231F20"/>
<path d="M176.277 88.0006H184.278V80H176.277V88.0006Z" fill="#4472B4"/>
<path d="M136.277 47.9986H144.278V39.998H136.277V47.9986Z" fill="#4472B4"/>
<path d="M136.277 56.0006H144.278V48H136.277V56.0006Z" fill="#4472B4"/>
<path d="M136.277 104.001H144.278V96H136.277V104.001Z" fill="#4472B4"/>
<path d="M144.278 48L152.278 48.0006V40H144.277L144.278 48Z" fill="#4472B4"/>
<path d="M152.278 48.0006H160.278V40H152.278V48.0006Z" fill="#4472B4"/>
<path d="M136.277 64.0006H144.278V56.0006H136.277V64.0006Z" fill="#4472B4"/>
<path d="M136.277 71.9986H144.278V63.998H136.277V71.9986Z" fill="#4472B4"/>
<path d="M136.277 88.0006H144.278V80H136.277V88.0006Z" fill="#4472B4"/>
<path d="M136.277 96H144.278V88.0006H136.277V96Z" fill="#4472B4"/>
<path d="M136.277 80H144.278V72H136.277V80Z" fill="#4472B4"/>
<path d="M160.278 48.0006H168.276V40H160.278V48.0006Z" fill="#4472B4"/>
<path d="M192.277 71.9986H200.276V63.998H192.277V71.9986Z" fill="#4472B4"/>
<path d="M168.277 48.0006H176.278V40H168.277V48.0006Z" fill="#4472B4"/>
<path d="M192.277 80.0006H200.276V72H192.277V80.0006Z" fill="#4472B4"/>
<path d="M192.277 96.0006H200.276V88H192.277V96.0006Z" fill="#4472B4"/>
<path d="M192.277 88H200.276V80.0006H192.277V88Z" fill="#4472B4"/>
<path d="M192.277 64.0006H200.276V56H192.277V64.0006Z" fill="#4472B4"/>
<path d="M176.278 48.0006H184.278V40H176.278V48.0006Z" fill="#4472B4"/>
<path d="M184.278 48.0006H192.278V40H184.278V48.0006Z" fill="#4472B4"/>
<path d="M192.278 48.0006H200.276V40H192.278V48.0006Z" fill="#77A4DC"/>
<path d="M192.277 56H200.276V48.0006H192.278L192.277 56Z" fill="#4472B4"/>
<path d="M200.277 88.0006H208.278V80H200.277V88.0006Z" fill="#4472B4"/>
<path d="M200.277 71.9986H208.278V63.998H200.277V71.9986Z" fill="#4472B4"/>
<path d="M200.277 64.0006H208.278V56H200.277V64.0006Z" fill="#4472B4"/>
<path d="M200.277 80H208.278V72H200.277V80Z" fill="#4472B4"/>
<path d="M200.277 56H208.278V48H200.277V56Z" fill="#77A4DC"/>
<path d="M192.277 104.001H200.276V96.0006H192.277V104.001Z" fill="#4472B4"/>
<path d="M144.278 104.001H152.278V96H144.278V104.001Z" fill="#4472B4"/>
<path d="M200.277 48H208.278V40H200.277V48Z" fill="#77A4DC"/>
<path d="M192.277 39.9986H200.276V31.998H192.277V39.9986Z" fill="#231F20"/>
<path d="M200.277 39.9986H208.278V31.998H200.277V39.9986Z" fill="#231F20"/>
<path d="M184.277 39.9986H192.277V31.998H184.277V39.9986Z" fill="#77A4DC"/>
<path d="M160.277 112.001H168.276V104H160.277V112.001Z" fill="#4472B4"/>
<path d="M152.278 104.001L152.277 112.001H160.277V104L152.278 104.001Z" fill="#4472B4"/>
<path d="M144.277 112.001H152.277L152.278 104.001H144.278L144.277 112.001Z" fill="#4472B4"/>
<path d="M312.281 71.9986H320.28V63.998H312.281V71.9986Z" fill="#231F20"/>
<path d="M200.277 104.001H208.278V96H200.277V104.001Z" fill="#4472B4"/>
<path d="M192.277 112.001H200.276V104.001H192.277V112.001Z" fill="#4472B4"/>
<path d="M200.277 112.001H208.278V104.001H200.277V112.001Z" fill="#4472B4"/>
<path d="M184.277 112.001H192.277V104.001L184.277 104V112.001Z" fill="#4472B4"/>
<path d="M176.278 112.001H184.277V104H176.278V112.001Z" fill="#4472B4"/>
<path d="M184.277 104L192.277 104.001V96.0006L184.277 96V104Z" fill="#4472B4"/>
<path d="M152.277 80.0006H160.278V72H152.277V80.0006Z" fill="#4472B4"/>
<path d="M152.277 71.9986H160.278V63.998H152.277V71.9986Z" fill="#4472B4"/>
<path d="M176.277 39.9986H184.277V31.998H176.277V39.9986Z" fill="#77A4DC"/>
<path d="M152.277 64.0006H160.278V56H152.277V64.0006Z" fill="#4472B4"/>
<path d="M152.277 88.0006H160.278V80.0006H152.277V88.0006Z" fill="#4472B4"/>
<path d="M168.277 64.0006H176.278V56H168.277V64.0006Z" fill="#4472B4"/>
<path d="M176.277 96.0006L184.277 96L184.278 88.0006H176.277V96.0006Z" fill="#4472B4"/>
<path d="M184.277 96L192.277 96.0006V88L184.278 88.0006L184.277 96Z" fill="#4472B4"/>
<path d="M168.277 96.0006H176.277V88.0006L168.277 88V96.0006Z" fill="#4472B4"/>
<path d="M160.277 96.0006H168.276V88L160.278 88.0006L160.277 96.0006Z" fill="#4472B4"/>
<path d="M160.278 88.0006L168.276 88V80L160.278 80.0006V88.0006Z" fill="#4472B4"/>
<path d="M168.277 80.0006L176.277 80L176.278 72H168.277V80.0006Z" fill="#4472B4"/>
<path d="M160.278 80.0006L168.276 80V72H160.278V80.0006Z" fill="#4472B4"/>
<path d="M160.278 71.9986H168.276V63.998H160.278V71.9986Z" fill="#4472B4"/>
<path d="M168.277 71.9986H176.278V63.998H168.277V71.9986Z" fill="#4472B4"/>
<path d="M176.278 64.0006H184.278V56H176.278V64.0006Z" fill="#4472B4"/>
<path d="M176.277 80H184.278V72H176.278L176.277 80Z" fill="#4472B4"/>
<path d="M168.277 88L176.277 88.0006V80L168.277 80.0006V88Z" fill="#4472B4"/>
<path d="M176.278 71.9986H184.278V63.998H176.278V71.9986Z" fill="#4472B4"/>
<path d="M200.277 152.001H208.278L208.277 144.001H200.277V152.001Z" fill="#4472B4"/>
<path d="M160.278 64.0006H168.276V56H160.278V64.0006Z" fill="#4472B4"/>
<path d="M144.278 88.0006H152.277V80.0006L144.278 80V88.0006Z" fill="#4472B4"/>
<path d="M152.278 96L160.277 96.0006L160.278 88.0006H152.277L152.278 96Z" fill="#4472B4"/>
<path d="M144.278 96H152.278L152.277 88.0006H144.278V96Z" fill="#4472B4"/>
<path d="M144.278 80L152.277 80.0006V72H144.278V80Z" fill="#4472B4"/>
<path d="M144.278 71.9986H152.277V63.998H144.278V71.9986Z" fill="#4472B4"/>
<path d="M152.278 104.001L160.277 104V96.0006L152.278 96V104.001Z" fill="#4472B4"/>
<path d="M168.277 104H176.278L176.277 96.0006H168.277V104Z" fill="#4472B4"/>
<path d="M176.278 104H184.277V96L176.277 96.0006L176.278 104Z" fill="#4472B4"/>
<path d="M144.278 64.0006H152.277V56L144.278 56.0006V64.0006Z" fill="#4472B4"/>
<path d="M160.277 104H168.276V96.0006H160.277V104Z" fill="#4472B4"/>
<path d="M168.277 56H176.278V48.0006H168.277V56Z" fill="#4472B4"/>
<path d="M184.278 56H192.277L192.278 48.0006H184.278V56Z" fill="#4472B4"/>
<path d="M184.278 71.9986H192.277V63.998H184.278V71.9986Z" fill="#4472B4"/>
<path d="M184.278 64.0006H192.277V56H184.278V64.0006Z" fill="#4472B4"/>
<path d="M184.278 80L192.277 80.0006V72H184.278V80Z" fill="#4472B4"/>
<path d="M160.278 56H168.276V48.0006H160.278V56Z" fill="#4472B4"/>
<path d="M152.277 56H160.278V48.0006H152.278L152.277 56Z" fill="#4472B4"/>
<path d="M144.278 56.0006L152.277 56L152.278 48.0006L144.278 48V56.0006Z" fill="#4472B4"/>
<path d="M176.278 56H184.278V48.0006H176.278V56Z" fill="#4472B4"/>
<path d="M184.278 88.0006L192.277 88V80.0006L184.278 80V88.0006Z" fill="#4472B4"/>
<path d="M200.277 96H208.278V88.0006H200.277V96Z" fill="#4472B4"/>
<path d="M120.278 104.001H128.278V96H120.278V104.001Z" fill="#4472B4"/>
<path d="M120.278 96H128.278V88L120.278 88.0006V96Z" fill="#4472B4"/>
<path d="M120.278 112.001H128.278V104.001H120.278V112.001Z" fill="#4472B4"/>
<path d="M120.278 88.0006L128.278 88V80L120.278 80.0006L120.278 88.0006Z" fill="#77A4DC"/>
<path d="M120.278 80.0006L128.278 80V72H120.278V80.0006Z" fill="#231F20"/>
<path d="M128.278 127.999H136.278V120H128.278V127.999Z" fill="white"/>
<path d="M120.278 120H128.278V112.001H120.278V120Z" fill="#231F20"/>
<path d="M120.278 71.9986H128.278V63.998H120.278V71.9986Z" fill="#231F20"/>
<path d="M136.278 127.999H144.278V120H136.278V127.999Z" fill="#690A0D"/>
<path d="M128.278 120H136.278V112L128.278 112.001V120Z" fill="#231F20"/>
<path d="M136.277 32.0006H144.278V24.0006H136.278L136.277 32.0006Z" fill="#77A4DC"/>
<path d="M144.278 127.999H152.278V120H144.278V127.999Z" fill="#690A0D"/>
<path d="M144.278 32.0006H152.278V24.0006H144.278V32.0006Z" fill="#77A4DC"/>
<path d="M152.278 32.0006H160.278V24.0006H152.278V32.0006Z" fill="#77A4DC"/>
<path d="M128.277 32.0006H136.277L136.278 24.0006H128.277V32.0006Z" fill="#77A4DC"/>
<path d="M120.278 39.9988L128.278 39.9986V31.998L120.278 31.9982V39.9988Z" fill="#4472B4"/>
<path d="M120.278 32.0006H128.277V24.0006L120.278 24V32.0006Z" fill="#77A4DC"/>
<path d="M120.278 48L128.278 48.0006V40H120.277L120.278 48Z" fill="#4472B4"/>
<path d="M120.278 56.0006H128.278V48.0006L120.278 48V56.0006Z" fill="#4472B4"/>
<path d="M120.278 64.0005L128.278 64.0006V56.0006H120.278L120.278 64.0005Z" fill="#4472B4"/>
<path d="M152.278 120V127.999H160.278V120H152.278Z" fill="#690A0D"/>
<path d="M216.277 80.0006L224.277 80V72H216.277V80.0006Z" fill="#4472B4"/>
<path d="M216.277 71.9986H224.277V63.998H216.277V71.9986Z" fill="#77A4DC"/>
<path d="M216.277 88.0006L224.277 88V80L216.277 80.0006V88.0006Z" fill="#4472B4"/>
<path d="M216.277 96.0006L224.277 96V88L216.277 88.0006V96.0006Z" fill="#4472B4"/>
<path d="M160.278 32.0006H168.276V24.0006H160.278V32.0006Z" fill="#77A4DC"/>
<path d="M216.277 56.0006L224.277 56L224.278 48H216.277V56.0006Z" fill="#231F20"/>
<path d="M216.277 64.0006H224.277V56L216.277 56.0006V64.0006Z" fill="#77A4DC"/>
<path d="M216.277 112.001H224.277V104.001L216.277 104V112.001Z" fill="#4472B4"/>
<path d="M216.277 104L224.277 104.001V96L216.277 96.0006V104Z" fill="#4472B4"/>
<path d="M176.277 127.999H184.278V120H176.277V127.999Z" fill="#4472B4"/>
<path d="M168.277 127.999H176.277V120H168.277V127.999Z" fill="#D8E6EB"/>
<path d="M184.278 127.999H192.278V120H184.278V127.999Z" fill="#4472B4"/>
<path d="M216.277 120.001H224.277V112.001H216.277V120.001Z" fill="#4472B4"/>
<path d="M160.278 127.999H168.276V120H160.278V127.999Z" fill="#231F20"/>
<path d="M208.277 127.999H216.278L216.277 120.001L208.277 120V127.999Z" fill="#4472B4"/>
<path d="M216.278 127.999H224.277V120.001H216.277L216.278 127.999Z" fill="#4472B4"/>
<path d="M192.278 127.999H200.276V120H192.278V127.999Z" fill="#4472B4"/>
<path d="M200.277 127.999H208.277V120H200.277V127.999Z" fill="#4472B4"/>
<path d="M128.278 104.001H136.277V96H128.278V104.001Z" fill="#4472B4"/>
<path d="M136.278 112L144.277 112.001L144.278 104.001H136.277L136.278 112Z" fill="#4472B4"/>
<path d="M168.277 32.0006H176.278V24.0006H168.277V32.0006Z" fill="#77A4DC"/>
<path d="M168.277 39.9986H176.277V31.998H168.277V39.9986Z" fill="#4472B4"/>
<path d="M128.278 96H136.277V88.0006L128.278 88V96Z" fill="#4472B4"/>
<path d="M128.278 88L136.277 88.0006V80H128.278V88Z" fill="#77A4DC"/>
<path d="M144.278 120H152.278L152.277 112.001H144.277L144.278 120Z" fill="#231F20"/>
<path d="M152.277 112.001L152.278 120H160.278L160.277 112.001H152.277Z" fill="#231F20"/>
<path d="M160.278 120H168.276V112.001H160.277L160.278 120Z" fill="#231F20"/>
<path d="M136.278 120H144.278L144.277 112.001L136.278 112V120Z" fill="#231F20"/>
<path d="M128.278 80H136.277V72H128.278V80Z" fill="#4472B4"/>
<path d="M128.278 64.0006H136.277V56.0006H128.278V64.0006Z" fill="#4472B4"/>
<path d="M128.278 71.9986H136.277V63.998H128.278V71.9986Z" fill="#4472B4"/>
<path d="M144.278 39.998L152.278 39.9986V31.998H144.277L144.278 39.998Z" fill="#4472B4"/>
<path d="M152.278 39.9986H160.278V31.998H152.278V39.9986Z" fill="#4472B4"/>
<path d="M160.278 39.9986H168.276V31.998H160.278V39.9986Z" fill="#4472B4"/>
<path d="M136.277 39.998H144.278L144.277 31.998H136.277V39.998Z" fill="#4472B4"/>
<path d="M128.278 56.0006H136.277V48L128.278 48.0006V56.0006Z" fill="#4472B4"/>
<path d="M168.277 120H176.277L176.278 112.001H168.277V120Z" fill="#B7CAD1"/>
<path d="M128.278 39.9986L136.277 39.998V31.998H128.278V39.9986Z" fill="#4472B4"/>
<path d="M128.278 48.0006L136.277 48L136.278 40H128.278V48.0006Z" fill="#4472B4"/>
<path d="M128.278 112.001L136.278 112L136.277 104.001H128.278V112.001Z" fill="#4472B4"/>
<path d="M208.278 48H216.277L216.278 40H208.278V48Z" fill="#231F20"/>
<path d="M208.278 64.0006H216.277V56.0006L208.278 56V64.0006Z" fill="#77A4DC"/>
<path d="M208.278 56L216.277 56.0006V48H208.278V56Z" fill="#77A4DC"/>
<path d="M176.277 120H184.278L184.277 112.001H176.278L176.277 120Z" fill="#4472B4"/>
<path d="M176.278 32.0006H184.278V24L176.278 24.0006V32.0006Z" fill="#231F20"/>
<path d="M184.278 32.0006H192.278V24H184.278V32.0006Z" fill="#231F20"/>
<path d="M208.278 71.9986H216.277V63.998H208.278V71.9986Z" fill="#4472B4"/>
<path d="M200.277 120H208.277L208.278 112.001H200.277V120Z" fill="#4472B4"/>
<path d="M192.278 120H200.276V112.001H192.277L192.278 120Z" fill="#4472B4"/>
<path d="M208.277 120L216.277 120.001V112.001H208.278L208.277 120Z" fill="#4472B4"/>
<path d="M208.278 80L216.277 80.0006V72H208.278V80Z" fill="#4472B4"/>
<path d="M184.278 120H192.278L192.277 112.001H184.277L184.278 120Z" fill="#4472B4"/>
<path d="M208.278 96L216.277 96.0006V88.0006H208.278V96Z" fill="#4472B4"/>
<path d="M208.278 112.001H216.277V104L208.278 104.001V112.001Z" fill="#4472B4"/>
<path d="M208.278 88.0006H216.277V80.0006L208.278 80V88.0006Z" fill="#4472B4"/>
<path d="M208.278 104.001L216.277 104V96.0006L208.278 96V104.001Z" fill="#4472B4"/>
<path d="M192.278 176H200.276V168H192.277L192.278 176Z" fill="#231F20"/>
<path d="M72.2773 88.0006H80.2759V80H72.2773V88.0006Z" fill="#4472B4"/>
<path d="M72.2773 127.999H80.2759V120H72.2773V127.999Z" fill="#690A0D"/>
<path d="M72.2773 71.9986H80.2759V63.998H72.2773V71.9986Z" fill="#4472B4"/>
<path d="M72.2773 64.0006H80.2759V56H72.2773V64.0006Z" fill="#4472B4"/>
<path d="M72.2773 56H80.2759V48H72.2773V56Z" fill="#4472B4"/>
<path d="M72.2773 112.001H80.2759V104H72.2773V112.001Z" fill="#4472B4"/>
<path d="M72.2773 48L80.2779 48.0006V40H72.2773V48Z" fill="#77A4DC"/>
<path d="M72.2773 120H80.2759V112.001H72.2773V120Z" fill="#231F20"/>
<path d="M72.2773 96.0006H80.2759V88.0006H72.2773V96.0006Z" fill="#4472B4"/>
<path d="M72.2773 104H80.2759V96.0006H72.2773V104Z" fill="#4472B4"/>
<path d="M72.2773 80H80.2759V72H72.2773V80Z" fill="#4472B4"/>
<path d="M64.2773 176H72.2759V168L64.2781 168.001L64.2773 176Z" fill="#231F20"/>
<path d="M72.2773 39.9986H80.2779V31.998H72.2773V39.9986Z" fill="#231F20"/>
<path d="M72.2773 152.001H80.2759V144H72.2773V152.001Z" fill="white"/>
<path d="M72.2773 135.999H80.2759V128H72.2773V135.999Z" fill="#690A0D"/>
<path d="M136.277 176H144.278V168H136.277V176Z" fill="#D8E6EB"/>
<path d="M120.277 176H128.277L128.278 168H120.277V176Z" fill="#D8E6EB"/>
<path d="M112.277 176H120.277V168H112.277V176Z" fill="#231F20"/>
<path d="M128.277 176H136.277V168H128.278L128.277 176Z" fill="#D8E6EB"/>
<path d="M152.278 176H160.277L160.278 168H152.277L152.278 176Z" fill="#231F20"/>
<path d="M176.278 176H184.278V168H176.277L176.278 176Z" fill="#D8E6EB"/>
<path d="M160.277 176H168.276V168H160.278L160.277 176Z" fill="#D8E6EB"/>
<path d="M184.278 176H192.278L192.277 168H184.278V176Z" fill="#B7CAD1"/>
<path d="M168.277 176H176.278L176.277 168H168.277V176Z" fill="#D8E6EB"/>
<path d="M144.278 176H152.278L152.277 168H144.278V176Z" fill="#D8E6EB"/>
<path d="M72.2773 168H80.2759V160H72.2773V168Z" fill="#231F20"/>
<path d="M72.2773 159.999H80.2759V152.001H72.2773V159.999Z" fill="#D8E6EB"/>
<path d="M72.2773 144H80.2759V136H72.2773V144Z" fill="#231F20"/>
<path d="M96.2779 176H104.276V168H96.2773L96.2779 176Z" fill="#D8E6EB"/>
<path d="M88.2779 176H96.2779L96.2773 168H88.2773L88.2779 176Z" fill="#B7CAD1"/>
<path d="M104.277 176H112.277V168H104.277V176Z" fill="#D8E6EB"/>
<path d="M80.2773 176H88.2779L88.2773 168H80.2773V176Z" fill="#231F20"/>
<path d="M80.2773 168H88.2773L88.278 160H80.2775L80.2773 168Z" fill="#D8E6EB"/>
<path d="M256.277 39.9986H264.278V31.998H256.277V39.9986Z" fill="#231F20"/>
<path d="M256.277 80.0006H264.278V72H256.277V80.0006Z" fill="#231F20"/>
<path d="M256.277 15.9986H264.278V8H256.277V15.9986Z" fill="#77A4DC"/>
<path d="M256.277 7.99857H264.278V0H256.277V7.99857Z" fill="#231F20"/>
<path d="M256.277 32.0006H264.278V24H256.277V32.0006Z" fill="#4472B4"/>
<path d="M256.277 24H264.278V16H256.277V24Z" fill="#4472B4"/>
<path d="M256.277 144.001H264.278V136H256.277V144.001Z" fill="#4472B4"/>
<path d="M256.277 136H264.278V128H256.277V136Z" fill="#4472B4"/>
<path d="M256.277 127.999H264.278V120H256.277V127.999Z" fill="#4472B4"/>
<path d="M256.277 152.001H264.278V144.001H256.277V152.001Z" fill="#4472B4"/>
<path d="M208.278 152.001H216.278L216.277 144.001H208.277L208.278 152.001Z" fill="#4472B4"/>
<path d="M256.277 96.0006H264.278V88H256.277V96.0006Z" fill="#4472B4"/>
<path d="M256.277 104.001H264.278V96.0006H256.277V104.001Z" fill="#4472B4"/>
<path d="M256.277 120H264.278V112H256.277V120Z" fill="#4472B4"/>
<path d="M256.277 88H264.278V80.0006H256.277V88Z" fill="#77A4DC"/>
<path d="M64.2778 120.001H72.2759V112H64.2778V120.001Z" fill="#231F20"/>
<path d="M200.277 176H208.278V168H200.277V176Z" fill="#231F20"/>
<path d="M64.2781 168.001L72.2759 168V160H64.2781V168.001Z" fill="#B7CAD1"/>
<path d="M64.2779 127.999H72.2759V120.001H64.2778L64.2779 127.999Z" fill="#690A0D"/>
<path d="M256.277 159.999H264.278V152.001H256.277V159.999Z" fill="#B7CAD1"/>
<path d="M64.2781 135.999H72.2759V128H64.2781V135.999Z" fill="#231F20"/>
<path d="M64.2778 96.0006H72.2759V88H64.2778V96.0006Z" fill="#4472B4"/>
<path d="M64.2778 112H72.2759V104H64.2779L64.2778 112Z" fill="#4472B4"/>
<path d="M64.2779 104H72.2759V96.0006H64.2778L64.2779 104Z" fill="#4472B4"/>
<path d="M64.2779 159.999H72.2759V152L64.2778 152.001L64.2779 159.999Z" fill="#231F20"/>
<path d="M64.2778 152.001L72.2759 152V144H64.2778V152.001Z" fill="#D8E6EB"/>
<path d="M64.2778 144H72.2759V136H64.2779L64.2778 144Z" fill="white"/>
<path d="M64.2779 48L72.2759 48.0006V40H64.2773L64.2779 48Z" fill="#231F20"/>
<path d="M64.2778 56L72.2759 56.0006V48.0006L64.2779 48L64.2778 56Z" fill="#77A4DC"/>
<path d="M64.2779 71.9986H72.2759V63.998H64.2779V71.9986Z" fill="#4472B4"/>
<path d="M64.2778 88H72.2759V80H64.2779L64.2778 88Z" fill="#4472B4"/>
<path d="M64.2779 80H72.2759V72H64.2781L64.2779 80Z" fill="#4472B4"/>
<path d="M64.2778 64.0006H72.2759V56.0006L64.2778 56V64.0006Z" fill="#4472B4"/>
<path d="M264.278 127.999H272.277V120.001L264.278 120V127.999Z" fill="#4472B4"/>
<path d="M264.278 120L272.277 120.001V112.001L264.278 112V120Z" fill="#4472B4"/>
<path d="M264.278 136L272.277 136.001V128H264.278V136Z" fill="#4472B4"/>
<path d="M264.278 152.001H272.277V144.001H264.278V152.001Z" fill="#4472B4"/>
<path d="M264.278 144.001H272.277V136.001L264.278 136V144.001Z" fill="#4472B4"/>
<path d="M264.278 159.999H272.277V152.001H264.278V159.999Z" fill="#D8E6EB"/>
<path d="M264.278 80.0006H272.277V72H264.278V80.0006Z" fill="#231F20"/>
<path d="M264.278 96.0006H272.277V88H264.278V96.0006Z" fill="#4472B4"/>
<path d="M264.278 112L272.277 112.001V104L264.278 104.001V112Z" fill="#4472B4"/>
<path d="M264.278 104.001L272.277 104V96.0006H264.278V104.001Z" fill="#4472B4"/>
<path d="M264.278 88H272.277V80.0006H264.278V88Z" fill="#77A4DC"/>
<path d="M232.277 176.001H240.278V168H232.277V176.001Z" fill="#4472B4"/>
<path d="M216.278 176H224.277L224.278 168H216.277L216.278 176Z" fill="#4472B4"/>
<path d="M224.277 176H232.276V168H224.278L224.277 176Z" fill="#4472B4"/>
<path d="M264.277 168.001L272.277 168V160H264.277V168.001Z" fill="#231F20"/>
<path d="M208.278 176H216.278L216.277 168H208.278V176Z" fill="#28518C"/>
<path d="M264.278 176L272.277 176.001V168L264.277 168.001L264.278 176Z" fill="#77A4DC"/>
<path d="M256.277 176H264.278L264.277 168.001L256.277 168V176Z" fill="#4472B4"/>
<path d="M248.277 176H256.277V168H248.277V176Z" fill="#4472B4"/>
<path d="M240.278 176.001H248.276V168H240.278V176.001Z" fill="#4472B4"/>
<path d="M264.278 39.9986H272.277V31.998H264.278V39.9986Z" fill="#28518C"/>
<path d="M264.277 48.0006H272.277V40H264.277V48.0006Z" fill="#231F20"/>
<path d="M264.278 7.99857H272.277V0H264.278V7.99857Z" fill="#231F20"/>
<path d="M264.278 15.9986H272.277V8H264.278V15.9986Z" fill="#77A4DC"/>
<path d="M264.278 24L272.277 24.0006V16H264.278V24Z" fill="#4472B4"/>
<path d="M264.278 32.0006H272.277V24.0006L264.278 24V32.0006Z" fill="#4472B4"/>
<path d="M256.277 112H264.278V104.001H256.277V112Z" fill="#4472B4"/>
<path d="M88.2773 127.999H96.2773V120.001L88.2773 120V127.999Z" fill="white"/>
<path d="M88.2773 88.0006H96.2773V80.0006L88.2773 80V88.0006Z" fill="#77A4DC"/>
<path d="M88.2773 112.001L96.2773 112V104H88.2773V112.001Z" fill="#4472B4"/>
<path d="M88.2773 104H96.2773V96H88.2773V104Z" fill="#4472B4"/>
<path d="M88.2773 96H96.2773V88.0006H88.2773V96Z" fill="#4472B4"/>
<path d="M88.2773 120L96.2773 120.001V112L88.2773 112.001V120Z" fill="#231F20"/>
<path d="M96.2773 159.999H104.276V152H96.2773V159.999Z" fill="white"/>
<path d="M96.2773 152H104.276V144.001H96.2773V152Z" fill="#231F20"/>
<path d="M88.2773 135.999H96.2773V128H88.2773V135.999Z" fill="#690A0D"/>
<path d="M88.2773 144.001H96.2773V136H88.2773V144.001Z" fill="#9C1116"/>
<path d="M88.2773 152.001L96.2773 152V144.001H88.2773V152.001Z" fill="#231F20"/>
<path d="M88.2773 32.0006H96.2773V24H88.2773V32.0006Z" fill="#231F20"/>
<path d="M88.2773 39.9986H96.2773V31.998H88.2773V39.9986Z" fill="#77A4DC"/>
<path d="M88.2773 71.9986H96.2773V63.998H88.2773V71.9986Z" fill="#4472B4"/>
<path d="M88.2773 64.0006H96.2773V56.0006L88.2773 56V64.0006Z" fill="#4472B4"/>
<path d="M88.2773 48.0006H96.2773V40H88.2773V48.0006Z" fill="#4472B4"/>
<path d="M88.2773 80L96.2773 80.0006V72H88.2773V80Z" fill="#4472B4"/>
<path d="M88.2773 56L96.2773 56.0006V48.0006H88.2773V56Z" fill="#4472B4"/>
<path d="M104.277 159.999H112.278V152.001H104.277V159.999Z" fill="#231F20"/>
<path d="M216.277 159.999H224.278V152L216.278 152.001L216.277 159.999Z" fill="#4472B4"/>
<path d="M208.277 159.999H216.277L216.278 152.001H208.278L208.277 159.999Z" fill="#4472B4"/>
<path d="M200.277 159.999H208.277L208.278 152.001H200.277V159.999Z" fill="#28518C"/>
<path d="M224.278 159.999H232.276V152H224.278V159.999Z" fill="#4472B4"/>
<path d="M192.277 159.999H200.276V152.001H192.278L192.277 159.999Z" fill="#28518C"/>
<path d="M248.277 152.001H256.277V144.001L248.277 144V152.001Z" fill="#28518C"/>
<path d="M184.277 159.999H192.277L192.278 152.001H184.277V159.999Z" fill="#D8E6EB"/>
<path d="M248.277 159.999H256.277V152.001H248.277L248.277 159.999Z" fill="#231F20"/>
<path d="M240.277 159.999H248.276V152H240.277V159.999Z" fill="#231F20"/>
<path d="M232.277 159.999H240.277V152H232.277V159.999Z" fill="#77A4DC"/>
<path d="M128.277 159.999H136.278L136.277 152.001H128.278L128.277 159.999Z" fill="white"/>
<path d="M120.277 159.999H128.277L128.278 152.001H120.277V159.999Z" fill="white"/>
<path d="M112.278 159.999H120.277V152.001H112.278V159.999Z" fill="white"/>
<path d="M136.278 159.999H144.278L144.277 152.001H136.277L136.278 159.999Z" fill="#231F20"/>
<path d="M152.277 159.999H160.278V152.001H152.277V159.999Z" fill="#D8E6EB"/>
<path d="M160.278 159.999H168.276V152.001H160.278V159.999Z" fill="#D8E6EB"/>
<path d="M168.277 159.999H176.278V152.001H168.277V159.999Z" fill="#D8E6EB"/>
<path d="M144.278 159.999H152.277V152.001H144.277L144.278 159.999Z" fill="#D8E6EB"/>
<path d="M176.278 159.999H184.277V152.001H176.278V159.999Z" fill="#231F20"/>
<path d="M248.277 144L256.277 144.001V136H248.277L248.277 144Z" fill="#4472B4"/>
<path d="M240.278 80L248.276 80.0006V72H240.278V80Z" fill="#77A4DC"/>
<path d="M240.278 88L248.276 88.0006V80.0006L240.278 80V88Z" fill="#77A4DC"/>
<path d="M240.278 104.001H248.276V96H240.278V104.001Z" fill="#4472B4"/>
<path d="M240.278 96H248.276V88.0006L240.278 88V96Z" fill="#4472B4"/>
<path d="M240.277 32.0006H248.276V24L240.278 24.0006L240.277 32.0006Z" fill="#231F20"/>
<path d="M240.278 24.0006L248.276 24V16H240.278V24.0006Z" fill="#77A4DC"/>
<path d="M232.277 152H240.277L240.278 144.001H232.277V152Z" fill="#231F20"/>
<path d="M224.278 152H232.276V144.001H224.278V152Z" fill="#77A4DC"/>
<path d="M240.277 152H248.276V144L240.278 144.001L240.277 152Z" fill="#28518C"/>
<path d="M216.278 152.001L224.278 152V144.001H216.277L216.278 152.001Z" fill="#4472B4"/>
<path d="M256.277 168L264.277 168.001V160H256.277V168Z" fill="#231F20"/>
<path d="M240.278 120L248.276 120.001V112H240.278V120Z" fill="#4472B4"/>
<path d="M240.278 127.999H248.276V120.001L240.278 120V127.999Z" fill="#4472B4"/>
<path d="M240.278 144.001L248.276 144V136H240.278V144.001Z" fill="#4472B4"/>
<path d="M240.278 112H248.276V104.001H240.278V112Z" fill="#4472B4"/>
<path d="M240.278 71.9986H248.276V63.998H240.278V71.9986Z" fill="#231F20"/>
<path d="M240.277 15.9986H248.276V8H240.277V15.9986Z" fill="#231F20"/>
<path d="M240.278 136H248.276V128H240.278V136Z" fill="#4472B4"/>
<path d="M80.2773 127.999H88.2773V120H80.2773V127.999Z" fill="white"/>
<path d="M80.2777 96.0007H88.2782L88.2773 88.0006L80.2777 88.0002V96.0007Z" fill="#4472B4"/>
<path d="M80.2773 104.001L88.2773 104V96L80.2777 96.0007L80.2773 104.001Z" fill="#4472B4"/>
<path d="M80.2773 112.001H88.2773V104L80.2773 104.001V112.001Z" fill="#4472B4"/>
<path d="M80.2775 135.999H88.2773V128H80.2775V135.999Z" fill="#690A0D"/>
<path d="M80.2773 159.999H88.2779L88.2773 152.001L80.2773 152V159.999Z" fill="#D8E6EB"/>
<path d="M88.2779 159.999H96.2773V152L88.2773 152.001L88.2779 159.999Z" fill="white"/>
<path d="M80.2773 152L88.2773 152.001L88.2782 144H80.2777L80.2773 152Z" fill="white"/>
<path d="M80.2777 144L88.2773 144.001V136H80.2773L80.2777 144Z" fill="#231F20"/>
<path d="M80.2773 120H88.2773L88.2782 112L80.2773 112.001V120Z" fill="#231F20"/>
<path d="M80.2777 88.0002L88.2773 88.0006V80H80.2773L80.2777 88.0002Z" fill="#4472B4"/>
<path d="M80.2775 47.9986H88.278L88.2773 39.9986H80.2779L80.2775 47.9986Z" fill="#77A4DC"/>
<path d="M80.2779 39.9986H88.2773V31.998H80.2779V39.9986Z" fill="#231F20"/>
<path d="M80.2773 71.9986H88.2773V63.998H80.2773V71.9986Z" fill="#4472B4"/>
<path d="M80.2773 56.0006L88.2773 56V48.0006H80.2779L80.2773 56.0006Z" fill="#4472B4"/>
<path d="M80.2773 80H88.2773V72H80.2775L80.2773 80Z" fill="#4472B4"/>
<path d="M80.2777 64.0005L88.2773 64.0006V56L80.2773 56.0006L80.2777 64.0005Z" fill="#4472B4"/>
<path d="M88.2773 168H96.2773L96.2779 160H88.278L88.2773 168Z" fill="#D8E6EB"/>
<path d="M216.277 168H224.278V160H216.277V168Z" fill="#4472B4"/>
<path d="M200.277 168H208.278V160H200.277V168Z" fill="#231F20"/>
<path d="M208.278 168H216.277V160H208.278V168Z" fill="#4472B4"/>
<path d="M192.277 168H200.276V160H192.277V168Z" fill="#B7CAD1"/>
<path d="M184.278 168H192.277V160H184.277L184.278 168Z" fill="#231F20"/>
<path d="M240.278 168H248.276V160H240.277L240.278 168Z" fill="#4472B4"/>
<path d="M248.277 168H256.277V160H248.277L248.277 168Z" fill="#77A4DC"/>
<path d="M176.277 168H184.278L184.277 160H176.277V168Z" fill="#D8E6EB"/>
<path d="M232.277 168H240.278L240.277 160H232.277V168Z" fill="#4472B4"/>
<path d="M224.278 168H232.276V160H224.278V168Z" fill="#4472B4"/>
<path d="M136.277 168H144.278V160H136.277V168Z" fill="#D8E6EB"/>
<path d="M112.277 168H120.277L120.278 160H112.277L112.277 168Z" fill="#D8E6EB"/>
<path d="M128.278 168H136.277V160H128.277L128.278 168Z" fill="#D8E6EB"/>
<path d="M120.277 168H128.278L128.277 160H120.278L120.277 168Z" fill="#D8E6EB"/>
<path d="M104.277 168H112.277L112.277 160H104.277V168Z" fill="#231F20"/>
<path d="M160.278 168H168.276V160H160.277L160.278 168Z" fill="#D8E6EB"/>
<path d="M152.277 168H160.278L160.277 160H152.277V168Z" fill="#D8E6EB"/>
<path d="M96.2773 168H104.276V160H96.2779L96.2773 168Z" fill="#D8E6EB"/>
<path d="M168.277 168H176.277V160H168.277V168Z" fill="#D8E6EB"/>
<path d="M144.278 168H152.277V160H144.278V168Z" fill="#231F20"/>
<path d="M248.277 15.9986H256.277V8H248.277V15.9986Z" fill="#231F20"/>
<path d="M248.277 24.0006L256.277 24V16H248.277V24.0006Z" fill="#4472B4"/>
<path d="M248.277 32.0006H256.277V24L248.277 24.0006L248.277 32.0006Z" fill="#28518C"/>
<path d="M248.277 39.9986H256.277V31.998H248.277V39.9986Z" fill="#231F20"/>
<path d="M248.277 104.001H256.277V96.0006L248.277 96V104.001Z" fill="#4472B4"/>
<path d="M248.277 120.001L256.277 120V112H248.277V120.001Z" fill="#4472B4"/>
<path d="M248.277 112H256.277V104.001H248.277L248.277 112Z" fill="#4472B4"/>
<path d="M248.277 127.999H256.277V120L248.277 120.001L248.277 127.999Z" fill="#4472B4"/>
<path d="M248.277 80.0006H256.277V72H248.277V80.0006Z" fill="#231F20"/>
<path d="M248.277 96L256.277 96.0006V88H248.277L248.277 96Z" fill="#4472B4"/>
<path d="M248.277 88H256.277V80.0006H248.277L248.277 88Z" fill="#77A4DC"/>
<path d="M248.277 135.999H256.278L256.277 127.999H248.277L248.277 135.999Z" fill="#4472B4"/>
<path d="M352.277 32.0006H360.278V24H352.277V32.0006Z" fill="#28518C"/>
<path d="M352.277 39.9986H360.278V31.998H352.277V39.9986Z" fill="#231F20"/>
<path d="M352.277 24H360.278L360.278 16H352.278L352.277 24Z" fill="#4472B4"/>
<path d="M352.277 15.9986H360.278V8H352.277V15.9986Z" fill="#77A4DC"/>
<path d="M352.277 7.99857H360.278V0H352.277V7.99857Z" fill="#231F20"/>
<path d="M368.277 24.0006H376.268V16H368.277V24.0006Z" fill="#231F20"/>
<path d="M312.281 64.0006H320.28V56H312.281V64.0006Z" fill="#231F20"/>
<path d="M360.278 24L368.276 24.0006V16H360.278L360.278 24Z" fill="#77A4DC"/>
<path d="M360.278 32.0006H368.276V24.0006L360.278 24V32.0006Z" fill="#231F20"/>
<path d="M360.278 15.9986H368.276V8H360.278V15.9986Z" fill="#231F20"/>
<path d="M8.27734 112.001H16.2759V104H8.27734V112.001Z" fill="#231F20"/>
<path d="M8.27734 104H16.2759V96H8.27734V104Z" fill="#231F20"/>
<path d="M8.27734 96H16.2759V88H8.27734V96Z" fill="#231F20"/>
<path d="M8.27734 200.001H16.2759V192H8.27734V200.001Z" fill="#231F20"/>
<path d="M8.20703 191.999H16.2076V184H8.20703V191.999Z" fill="#231F20"/>
<path d="M328.277 56.0006H336.276V48H328.277V56.0006Z" fill="#231F20"/>
<path d="M328.277 15.9986H336.276V8H328.277V15.9986Z" fill="#77A4DC"/>
<path d="M328.277 48H336.276V40H328.277V48Z" fill="#28518C"/>
<path d="M328.277 24.0006H336.276V16H328.277V24.0006Z" fill="#4472B4"/>
<path d="M328.277 32.0006H336.276V24.0006H328.277V32.0006Z" fill="#4472B4"/>
<path d="M328.277 39.9986H336.276V31.998H328.277V39.9986Z" fill="#4472B4"/>
<path d="M328.277 7.99857H336.276V0H328.277V7.99857Z" fill="#231F20"/>
<path d="M320.277 104.001H328.278V96H320.277V104.001Z" fill="#231F20"/>
<path d="M16.2773 120.001H24.2775L24.2773 112.001L16.2773 112V120.001Z" fill="#231F20"/>
<path d="M16.2773 127.999H24.2773L24.2775 120.001H16.2773V127.999Z" fill="#231F20"/>
<path d="M16.2773 104.001H24.2773V96H16.2773V104.001Z" fill="#77A4DC"/>
<path d="M16.2773 96H24.2773L24.2775 88H16.2773V96Z" fill="#77A4DC"/>
<path d="M16.2773 88H24.2775L24.2776 80.0006L16.2773 80V88Z" fill="#231F20"/>
<path d="M312.281 48.0006H320.28V40H312.281V48.0006Z" fill="#4472B4"/>
<path d="M312.281 39.9986H320.28V31.998H312.281V39.9986Z" fill="#4472B4"/>
<path d="M312.281 32.0006H320.28V24H312.281V32.0006Z" fill="#4472B4"/>
<path d="M312.281 56H320.28V48.0006H312.281V56Z" fill="#4472B4"/>
<path d="M312.281 24H320.28V16H312.281V24Z" fill="#77A4DC"/>
<path d="M312.281 15.9986H320.28V8H312.281V15.9986Z" fill="#231F20"/>
<path d="M16.2773 112L24.2773 112.001V104.001H16.2773V112Z" fill="#4472B4"/>
<path d="M320.277 136.001H328.278V128H320.277V136.001Z" fill="#231F20"/>
<path d="M320.277 127.999H328.278V120H320.277V127.999Z" fill="#231F20"/>
<path d="M320.277 112.001H328.278V104.001H320.277V112.001Z" fill="#231F20"/>
<path d="M320.277 120H328.278V112.001H320.277V120Z" fill="#231F20"/>
<path d="M320.277 96H328.278V88H320.277V96Z" fill="#231F20"/>
<path d="M320.277 88H328.278V80H320.277V88Z" fill="#231F20"/>
<path d="M320.277 80H328.278V72H320.277V80Z" fill="#231F20"/>
<path d="M320.277 56.0006H328.277V48H320.277V56.0006Z" fill="#28518C"/>
<path d="M320.277 48H328.277V40H320.277V48Z" fill="#4472B4"/>
<path d="M320.277 32.0006H328.277V24.0006L320.277 24V32.0006Z" fill="#4472B4"/>
<path d="M320.277 15.9986H328.277V8H320.277V15.9986Z" fill="#231F20"/>
<path d="M320.277 24L328.277 24.0006V16H320.277V24Z" fill="#4472B4"/>
<path d="M320.277 39.9986H328.277V31.998H320.277V39.9986Z" fill="#4472B4"/>
<path d="M16.2773 200.001H24.2773V192H16.2773V200.001Z" fill="#231F20"/>
<path d="M16.2773 191.999H24.2776V184H16.2773V191.999Z" fill="#77A4DC"/>
<path d="M16.2773 184H24.2776L24.2773 176H16.2773V184Z" fill="#231F20"/>
<path d="M344.277 39.9986H352.277V31.998H344.277V39.9986Z" fill="#231F20"/>
<path d="M344.277 32.0006H352.277V24H344.277V32.0006Z" fill="#4472B4"/>
<path d="M344.277 15.9986H352.277V8H344.277V15.9986Z" fill="#77A4DC"/>
<path d="M344.277 7.99857H352.277V0H344.277V7.99857Z" fill="#231F20"/>
<path d="M344.277 24H352.277L352.278 16H344.277V24Z" fill="#4472B4"/>
<path d="M0.277344 200.001H8.27734V192H0.277344V200.001Z" fill="#231F20"/>
<path d="M336.277 32.0006H344.277V24H336.277V32.0006Z" fill="#4472B4"/>
<path d="M336.277 39.9986H344.277V31.998H336.277V39.9986Z" fill="#28518C"/>
<path d="M336.277 48.0006H344.278V40H336.277V48.0006Z" fill="#231F20"/>
<path d="M336.277 24H344.277V16H336.277V24Z" fill="#4472B4"/>
<path d="M336.277 15.9986H344.277V8H336.277V15.9986Z" fill="#77A4DC"/>
<path d="M336.277 7.99857H344.277V0H336.277V7.99857Z" fill="#231F20"/>
</svg>
