<svg width="317" height="200" viewBox="0 0 317 200" fill="none" xmlns="http://www.w3.org/2000/svg">
<path d="M8.66406 183.332H16.9979V174.998H8.66406V183.332Z" fill="#231F20"/>
<path d="M8.66406 191.664H16.9979V183.332H8.66406V191.664Z" fill="#231F20"/>
<path d="M133.66 8.33385H141.994V0H133.66V8.33385Z" fill="#231F20"/>
<path d="M125.328 8.33385H133.662V0H125.328V8.33385Z" fill="#231F20"/>
<path d="M158.66 8.33385H166.994V0H158.66V8.33385Z" fill="#231F20"/>
<path d="M191.992 8.33385H200.326V0H191.992V8.33385Z" fill="#231F20"/>
<path d="M183.66 8.33385H191.994V0H183.66V8.33385Z" fill="#231F20"/>
<path d="M141.992 8.33385H150.326V0H141.992V8.33385Z" fill="#231F20"/>
<path d="M150.328 8.33385H158.662V0H150.328V8.33385Z" fill="#231F20"/>
<path d="M175.328 8.33385H183.662V0H175.328V8.33385Z" fill="#231F20"/>
<path d="M166.996 8.33385H175.328V0H166.996V8.33385Z" fill="#231F20"/>
<path d="M258.66 141.666H266.992V133.334H258.66V141.666Z" fill="#9C1116"/>
<path d="M258.66 91.6659H266.992V83.332H258.66V91.6659Z" fill="#CF181F"/>
<path d="M258.66 133.334H266.992V125H258.66V133.334Z" fill="#9C1116"/>
<path d="M258.66 158.33H266.992V149.998H258.66V158.33Z" fill="#4A0607"/>
<path d="M258.66 166.664H266.992V158.33H258.66V166.664Z" fill="#231F20"/>
<path d="M258.66 150H266.992V141.666H258.66V150Z" fill="#690A0D"/>
<path d="M258.66 108.332H266.992V100H258.66V108.332Z" fill="#CF181F"/>
<path d="M258.66 100H266.992V91.6659H258.66V100Z" fill="#CF181F"/>
<path d="M258.66 125H266.992V116.666H258.66V125Z" fill="#9C1116"/>
<path d="M258.66 116.666H266.992V108.332H258.66V116.666Z" fill="#CF181F"/>
<path d="M258.66 174.998H266.992V166.664H258.66V174.998Z" fill="#628D9C"/>
<path d="M258.66 191.664H266.992V183.332H258.66V191.664Z" fill="#231F20"/>
<path d="M258.66 183.332H266.992V174.998H258.66V183.332Z" fill="#231F20"/>
<path d="M258.66 49.9999H266.992V41.666H258.66V49.9999Z" fill="#F57861"/>
<path d="M258.66 66.6659H266.992V58.332H258.66V66.6659Z" fill="#CF181F"/>
<path d="M258.66 58.332H266.992V49.998H258.66V58.332Z" fill="#CF181F"/>
<path d="M258.66 74.9978H266.992V66.6659H258.66V74.9978Z" fill="#CF181F"/>
<path d="M258.66 83.332H266.992V74.9978H258.66V83.332Z" fill="#CF181F"/>
<path d="M258.66 41.666H266.992V33.334H258.66V41.666Z" fill="#231F20"/>
<path d="M208.66 16.6659H216.994V8.33203H208.66V16.6659Z" fill="#231F20"/>
<path d="M216.992 16.6659H225.326V8.33203H216.992V16.6659Z" fill="#231F20"/>
<path d="M158.66 16.6659H166.994V8.33203H158.66V16.6659Z" fill="#827C7B"/>
<path d="M200.328 16.6659H208.66V8.33203H200.328V16.6659Z" fill="#231F20"/>
<path d="M175.328 16.6659H183.662V8.33203H175.328V16.6659Z" fill="#827C7B"/>
<path d="M191.992 16.6659H200.326V8.33203H191.992V16.6659Z" fill="#827C7B"/>
<path d="M166.996 16.6659H175.328V8.33203H166.996V16.6659Z" fill="#827C7B"/>
<path d="M183.66 16.6659H191.994V8.33203H183.66V16.6659Z" fill="#827C7B"/>
<path d="M241.992 74.9978H250.326V66.666H241.992V74.9978Z" fill="#231F20"/>
<path d="M241.992 66.666H250.326V58.332H241.992V66.666Z" fill="#CF181F"/>
<path d="M241.992 83.3319H250.326V74.9978H241.992V83.3319Z" fill="#231F20"/>
<path d="M241.992 100H250.326V91.6661H241.992V100Z" fill="#231F20"/>
<path d="M241.992 91.6661H250.326V83.3319H241.992V91.6661Z" fill="#231F20"/>
<path d="M241.992 49.9999H250.326V41.666H241.992V49.9999Z" fill="#CF181F"/>
<path d="M241.992 41.666H250.326V33.334H241.992V41.666Z" fill="#CF181F"/>
<path d="M241.992 33.334H250.326V25H241.992V33.334Z" fill="#231F20"/>
<path d="M150.328 16.6659H158.662V8.33203H150.328V16.6659Z" fill="#827C7B"/>
<path d="M125.328 16.6659H133.662V8.33203H125.328V16.6659Z" fill="#827C7B"/>
<path d="M116.992 16.6659H125.326V8.33203H116.992V16.6659Z" fill="#231F20"/>
<path d="M133.66 16.6659H141.994V8.33203H133.66V16.6659Z" fill="#827C7B"/>
<path d="M141.992 16.6659H150.326V8.33203H141.992V16.6659Z" fill="#827C7B"/>
<path d="M241.992 108.332H250.326V100H241.992V108.332Z" fill="#231F20"/>
<path d="M108.664 16.6659H116.996V8.33203H108.664V16.6659Z" fill="#231F20"/>
<path d="M100.328 16.6659H108.662V8.33203H100.328V16.6659Z" fill="#231F20"/>
<path d="M241.992 58.332H250.326V49.998H241.992V58.332Z" fill="#CF181F"/>
<path d="M241.992 166.664H250.326V158.33H241.992V166.664Z" fill="#231F20"/>
<path d="M241.992 174.998H250.326V166.664H241.992V174.998Z" fill="#628D9C"/>
<path d="M241.992 183.332H250.326V174.998H241.992V183.332Z" fill="#231F20"/>
<path d="M241.992 125H250.326V116.666H241.992V125Z" fill="#CF181F"/>
<path d="M241.992 133.334H250.326V125H241.992V133.334Z" fill="#9C1116"/>
<path d="M241.992 150H250.326V141.666H241.992V150Z" fill="#9C1116"/>
<path d="M241.992 141.666H250.326V133.334H241.992V141.666Z" fill="#9C1116"/>
<path d="M241.992 158.33H250.326V149.998H241.992V158.33Z" fill="#690A0D"/>
<path d="M241.992 116.666H250.326V108.332H241.992V116.666Z" fill="#231F20"/>
<path d="M250.328 174.998H258.662V166.664H250.328V174.998Z" fill="#231F20"/>
<path d="M250.328 166.664H258.662V158.33H250.328V166.664Z" fill="#231F20"/>
<path d="M250.328 158.33H258.662V149.998H250.328V158.33Z" fill="#690A0D"/>
<path d="M250.328 41.6658H258.662V33.334H250.328V41.6658Z" fill="#F57861"/>
<path d="M250.328 33.334H258.662V25H250.328V33.334Z" fill="#231F20"/>
<path d="M250.328 49.9999H258.662V41.6658H250.328V49.9999Z" fill="#CF181F"/>
<path d="M250.328 58.3319H258.662V49.998H250.328V58.3319Z" fill="#CF181F"/>
<path d="M250.328 66.6659H258.662V58.3319H250.328V66.6659Z" fill="#CF181F"/>
<path d="M250.328 100H258.662V91.6661H250.328V100Z" fill="#CF181F"/>
<path d="M250.328 116.666H258.662V108.332H250.328V116.666Z" fill="#CF181F"/>
<path d="M250.328 133.334H258.662V125H250.328V133.334Z" fill="#9C1116"/>
<path d="M250.328 74.9978H258.662V66.6659H250.328V74.9978Z" fill="#CF181F"/>
<path d="M250.328 141.666H258.662V133.334H250.328V141.666Z" fill="#9C1116"/>
<path d="M250.328 125H258.662V116.666H250.328V125Z" fill="#CF181F"/>
<path d="M250.328 83.3319H258.662V74.9978H250.328V83.3319Z" fill="#CF181F"/>
<path d="M250.328 91.6661H258.662V83.3319H250.328V91.6661Z" fill="#CF181F"/>
<path d="M250.328 150H258.662V141.666H250.328V150Z" fill="#690A0D"/>
<path d="M250.328 108.332H258.662V100H250.328V108.332Z" fill="#CF181F"/>
<path d="M250.328 183.332H258.662V174.998H250.328V183.332Z" fill="#231F20"/>
<path d="M16.9961 174.998H25.3279V166.664H16.9961V174.998Z" fill="#231F20"/>
<path d="M16.9961 150H25.3279V141.666H16.9961V150Z" fill="#231F20"/>
<path d="M16.9961 158.33H25.3279V149.998H16.9961V158.33Z" fill="#231F20"/>
<path d="M16.9961 141.666H25.3279V133.334H16.9961V141.666Z" fill="#231F20"/>
<path d="M16.9961 125H25.3279V116.666H16.9961V125Z" fill="#231F20"/>
<path d="M16.9961 133.334H25.3279V125H16.9961V133.334Z" fill="#231F20"/>
<path d="M275.328 166.664H283.662V158.33H275.328V166.664Z" fill="#231F20"/>
<path d="M275.328 174.998H283.662V166.664H275.328V174.998Z" fill="#231F20"/>
<path d="M275.328 183.332H283.662V174.998H275.328V183.332Z" fill="#231F20"/>
<path d="M275.328 66.6659H283.662V58.332H275.328V66.6659Z" fill="#231F20"/>
<path d="M275.328 158.33H283.662V149.998H275.328V158.33Z" fill="#4A0607"/>
<path d="M275.328 74.9978H283.662V66.6659H275.328V74.9978Z" fill="#231F20"/>
<path d="M275.328 141.666H283.662V133.334H275.328V141.666Z" fill="#231F20"/>
<path d="M275.328 133.334H283.662V125H275.328V133.334Z" fill="#231F20"/>
<path d="M275.328 150H283.662V141.666H275.328V150Z" fill="#4A0607"/>
<path d="M275.328 125H283.662V116.666H275.328V125Z" fill="#231F20"/>
<path d="M275.328 108.332H283.662V100H275.328V108.332Z" fill="#231F20"/>
<path d="M275.328 91.6659H283.662V83.332H275.328V91.6659Z" fill="#CF181F"/>
<path d="M275.328 100H283.662V91.6659H275.328V100Z" fill="#231F20"/>
<path d="M275.328 83.332H283.662V74.9978H275.328V83.332Z" fill="#F57861"/>
<path d="M275.328 116.666H283.662V108.332H275.328V116.666Z" fill="#231F20"/>
<path d="M283.66 183.332H291.994V174.998H283.66V183.332Z" fill="#231F20"/>
<path d="M283.66 166.664H291.994V158.33H283.66V166.664Z" fill="#231F20"/>
<path d="M283.66 133.334H291.994V125H283.66V133.334Z" fill="#231F20"/>
<path d="M283.66 158.33H291.994V149.998H283.66V158.33Z" fill="#4A0607"/>
<path d="M283.66 141.666H291.994V133.334H283.66V141.666Z" fill="#231F20"/>
<path d="M283.66 150H291.994V141.666H283.66V150Z" fill="#231F20"/>
<path d="M266.992 141.666H275.326V133.334H266.992V141.666Z" fill="#690A0D"/>
<path d="M266.992 150H275.326V141.666H266.992V150Z" fill="#690A0D"/>
<path d="M266.992 133.334H275.326V125H266.992V133.334Z" fill="#231F20"/>
<path d="M266.992 158.33H275.326V149.998H266.992V158.33Z" fill="#4A0607"/>
<path d="M266.992 166.664H275.326V158.33H266.992V166.664Z" fill="#231F20"/>
<path d="M266.992 108.332H275.326V100H266.992V108.332Z" fill="#231F20"/>
<path d="M266.992 91.6659H275.326V83.332H266.992V91.6659Z" fill="#CF181F"/>
<path d="M266.992 174.998H275.326V166.664H266.992V174.998Z" fill="#628D9C"/>
<path d="M266.992 116.666L275.326 116.666V108.332H266.992V116.666Z" fill="#231F20"/>
<path d="M266.992 125H275.326V116.666L266.992 116.666V125Z" fill="#231F20"/>
<path d="M266.992 100H275.326V91.6659H266.992V100Z" fill="#CF181F"/>
<path d="M266.992 183.332L275.326 183.332V174.998H266.992V183.332Z" fill="#231F20"/>
<path d="M266.992 199.998H275.326V191.664L266.992 191.664L266.992 199.998Z" fill="#231F20"/>
<path d="M266.992 49.9999H275.326V41.666H266.992V49.9999Z" fill="#231F20"/>
<path d="M266.992 66.6659H275.326V58.332H266.992V66.6659Z" fill="#F57861"/>
<path d="M266.992 58.332H275.326V49.998H266.992V58.332Z" fill="#231F20"/>
<path d="M266.992 74.9978H275.326V66.6659H266.992V74.9978Z" fill="#CF181F"/>
<path d="M266.992 83.332H275.326V74.9978H266.992V83.332Z" fill="#CF181F"/>
<path d="M0.328125 200H8.66198V191.664H0.328125V200Z" fill="#231F20"/>
<path d="M133.66 166.664H141.994V158.33H133.66V166.664Z" fill="#231F20"/>
<path d="M191.992 91.6659H200.326V83.332H191.992V91.6659Z" fill="#231F20"/>
<path d="M191.992 66.6659H200.326V58.332H191.992V66.6659Z" fill="#827C7B"/>
<path d="M175.328 66.6659H183.662V58.332H175.328V66.6659Z" fill="#231F20"/>
<path d="M191.992 74.9978H200.326V66.6659H191.992V74.9978Z" fill="#827C7B"/>
<path d="M191.992 83.332H200.326V74.9978H191.992V83.332Z" fill="#231F20"/>
<path d="M183.66 66.6659H191.994V58.332H183.66V66.6659Z" fill="#231F20"/>
<path d="M141.992 66.6659H150.326V58.332H141.992V66.6659Z" fill="#CF181F"/>
<path d="M166.996 66.6659H175.328V58.332H166.996V66.6659Z" fill="#CF181F"/>
<path d="M150.328 66.6659H158.662V58.332H150.328V66.6659Z" fill="#CF181F"/>
<path d="M183.66 74.9978H191.994V66.6659H183.66V74.9978Z" fill="#827C7B"/>
<path d="M191.992 116.666H200.326V108.332H191.992V116.666Z" fill="#231F20"/>
<path d="M191.992 158.33H200.326V149.998H191.992V158.33Z" fill="#690A0D"/>
<path d="M191.992 150H200.326V141.666H191.992V150Z" fill="#690A0D"/>
<path d="M191.992 100H200.326V91.6659H191.992V100Z" fill="#231F20"/>
<path d="M191.992 166.664H200.326V158.33H191.992V166.664Z" fill="#231F20"/>
<path d="M191.992 141.666H200.326V133.334H191.992V141.666Z" fill="#9C1116"/>
<path d="M191.992 174.998H200.326V166.664H191.992V174.998Z" fill="#231F20"/>
<path d="M133.66 66.6659H141.994V58.332H133.66V66.6659Z" fill="#231F20"/>
<path d="M191.992 133.334H200.326V125H191.992V133.334Z" fill="#CF181F"/>
<path d="M191.992 108.332H200.326V100H191.992V108.332Z" fill="#231F20"/>
<path d="M191.992 125H200.326V116.666H191.992V125Z" fill="#CF181F"/>
<path d="M66.9961 91.6659H75.3279V83.332H66.9961V91.6659Z" fill="#CF181F"/>
<path d="M66.9961 116.666H75.3279V108.332H66.9961V116.666Z" fill="#231F20"/>
<path d="M66.9961 125H75.3279V116.666H66.9961V125Z" fill="#231F20"/>
<path d="M66.9961 133.334H75.3279V125H66.9961V133.334Z" fill="#231F20"/>
<path d="M66.9961 108.332H75.3279V100H66.9961V108.332Z" fill="#787271"/>
<path d="M66.9961 100H75.3279V91.6659H66.9961V100Z" fill="#231F20"/>
<path d="M66.9961 141.666H75.3279V133.334H66.9961V141.666Z" fill="#231F20"/>
<path d="M66.9961 158.33H75.3279V149.998H66.9961V158.33Z" fill="#231F20"/>
<path d="M66.9961 166.666H75.3279V158.33H66.9961V166.666Z" fill="#231F20"/>
<path d="M66.9961 150H75.3279V141.666H66.9961V150Z" fill="#231F20"/>
<path d="M191.992 183.332H200.326V174.998H191.992V183.332Z" fill="#231F20"/>
<path d="M108.664 66.6659H116.996V58.332H108.664V66.6659Z" fill="#231F20"/>
<path d="M125.328 66.6659H133.662V58.332H125.328V66.6659Z" fill="#CF181F"/>
<path d="M100.328 66.6659H108.662V58.332H100.328V66.6659Z" fill="#CF181F"/>
<path d="M66.9961 83.332H75.3279V74.998H66.9961V83.332Z" fill="#CF181F"/>
<path d="M116.992 66.6659H125.326V58.332H116.992V66.6659Z" fill="#CF181F"/>
<path d="M91.9922 66.6659H100.326V58.332H91.9922V66.6659Z" fill="#CF181F"/>
<path d="M66.9961 66.6659H75.3279V58.332H66.9961V66.6659Z" fill="#231F20"/>
<path d="M66.9961 74.998H75.3279V66.6659H66.9961V74.998Z" fill="#231F20"/>
<path d="M83.6602 66.6659H91.994V58.332H83.6602V66.6659Z" fill="#CF181F"/>
<path d="M75.3279 66.6659H83.6602V58.332H75.3279V66.6659Z" fill="#CF181F"/>
<path d="M75.3281 183.332H83.6599V174.998H75.3281V183.332Z" fill="#231F20"/>
<path d="M75.3279 83.332L83.6599 83.3319V74.998H75.3279V83.332Z" fill="#CF181F"/>
<path d="M75.3279 74.998H83.6599L83.6602 66.6659H75.3279V74.998Z" fill="#CF181F"/>
<path d="M91.9922 74.9978H100.326V66.6659H91.9922V74.9978Z" fill="#CF181F"/>
<path d="M83.6599 74.998L91.994 74.9978V66.6659H83.6602L83.6599 74.998Z" fill="#CF181F"/>
<path d="M75.3279 91.6659H83.6599V83.3319L75.3279 83.332V91.6659Z" fill="#CF181F"/>
<path d="M75.3279 125H83.6599V116.666L75.3279 116.666V125Z" fill="white"/>
<path d="M100.328 74.9978H108.662V66.6659H100.328V74.9978Z" fill="#CF181F"/>
<path d="M75.3279 133.334H83.6599V125H75.3279V133.334Z" fill="white"/>
<path d="M75.3279 108.332L83.6599 108.332V100H75.3279V108.332Z" fill="#787271"/>
<path d="M75.3279 100H83.6599V91.6659H75.3279V100Z" fill="#231F20"/>
<path d="M75.3279 116.666L83.6599 116.666V108.332L75.3279 108.332V116.666Z" fill="#231F20"/>
<path d="M150.328 74.9978H158.662V66.6659H150.328V74.9978Z" fill="#CF181F"/>
<path d="M108.664 74.9978H116.996V66.6659H108.664V74.9978Z" fill="#231F20"/>
<path d="M175.328 74.9978H183.662V66.6659H175.328V74.9978Z" fill="#231F20"/>
<path d="M158.66 74.9978H166.994V66.666H158.66V74.9978Z" fill="#CF181F"/>
<path d="M141.992 74.9978H150.326V66.6659H141.992V74.9978Z" fill="#CF181F"/>
<path d="M116.992 74.9978H125.326V66.6659H116.992V74.9978Z" fill="#CF181F"/>
<path d="M125.328 74.9978H133.662V66.6659H125.328V74.9978Z" fill="#CF181F"/>
<path d="M133.66 74.9978H141.994V66.6659H133.66V74.9978Z" fill="#231F20"/>
<path d="M166.996 74.9978H175.328V66.6659H166.996V74.9978Z" fill="#CF181F"/>
<path d="M75.3279 141.666H83.6599V133.334H75.3279V141.666Z" fill="#231F20"/>
<path d="M75.3279 158.33H83.6599V149.998H75.3279V158.33Z" fill="#690A0D"/>
<path d="M75.3279 166.666H83.6599V158.33H75.3279V166.666Z" fill="#231F20"/>
<path d="M75.3279 150H83.6599V141.666H75.3279V150Z" fill="#231F20"/>
<path d="M75.3281 174.998H83.6599V166.664H75.3281V174.998Z" fill="#231F20"/>
<path d="M66.9961 174.998L75.3281 174.998V166.664H66.9961V174.998Z" fill="#231F20"/>
<path d="M83.6599 183.332H91.994V174.998H83.6599V183.332Z" fill="#231F20"/>
<path d="M158.66 66.666H166.994V58.332H158.66V66.666Z" fill="#CF181F"/>
<path d="M58.6602 91.6659H66.994V83.332H58.6602V91.6659Z" fill="#231F20"/>
<path d="M58.6602 58.3319H66.994V49.998H58.6602V58.3319Z" fill="#827C7B"/>
<path d="M58.6602 100H66.994V91.6659H58.6602V100Z" fill="#CF181F"/>
<path d="M58.6602 74.9978H66.994V66.666H58.6602V74.9978Z" fill="#231F20"/>
<path d="M58.6602 66.666H66.994V58.3319H58.6602V66.666Z" fill="#231F20"/>
<path d="M58.6602 83.332H66.994V74.9978H58.6602V83.332Z" fill="#231F20"/>
<path d="M58.6602 108.332H66.994V100H58.6602V108.332Z" fill="#231F20"/>
<path d="M58.6641 133.334H66.9961V125L58.6641 125V133.334Z" fill="#231F20"/>
<path d="M58.6602 125H66.994V116.666H58.6602V125Z" fill="#231F20"/>
<path d="M58.6602 116.666H66.994V108.332H58.6602V116.666Z" fill="#787271"/>
<path d="M133.66 58.332H141.994V49.998H133.66V58.332Z" fill="#CF181F"/>
<path d="M108.664 58.332H116.996V49.998H108.664V58.332Z" fill="#CF181F"/>
<path d="M125.328 58.332H133.662V49.998H125.328V58.332Z" fill="#CF181F"/>
<path d="M116.992 58.332H125.326V49.998H116.992V58.332Z" fill="#231F20"/>
<path d="M58.6602 141.666H66.994V133.334H58.6602V141.666Z" fill="#231F20"/>
<path d="M91.9922 58.332H100.326V49.998H91.9922V58.332Z" fill="#CF181F"/>
<path d="M83.6602 58.332H91.994V49.998H83.6602V58.332Z" fill="#CF181F"/>
<path d="M141.996 58.3319H150.33V49.998H141.996V58.3319Z" fill="#231F20"/>
<path d="M100.328 58.332H108.662V49.998H100.328V58.332Z" fill="#CF181F"/>
<path d="M66.9961 58.332H75.3279V49.998H66.9961V58.332Z" fill="#231F20"/>
<path d="M75.3279 58.332H83.6602V49.998H75.3279V58.332Z" fill="#231F20"/>
<path d="M58.6602 174.998H66.994V166.664H58.6602V174.998Z" fill="#231F20"/>
<path d="M58.6602 166.666H66.994V158.33H58.6602V166.666Z" fill="#231F20"/>
<path d="M58.6602 183.332H66.994V174.998H58.6602V183.332Z" fill="#231F20"/>
<path d="M58.6602 158.33H66.994V149.998H58.6602V158.33Z" fill="#231F20"/>
<path d="M58.6602 150H66.994V141.666H58.6602V150Z" fill="#231F20"/>
<path d="M58.6602 200H66.994V191.664H58.6602V200Z" fill="#231F20"/>
<path d="M66.9961 183.332H75.3281V174.998L66.9961 174.998V183.332Z" fill="#231F20"/>
<path d="M200.328 183.332H208.66V174.998H200.328V183.332Z" fill="#231F20"/>
<path d="M66.9961 191.664H75.3279L75.3281 183.332H66.9961V191.664Z" fill="#231F20"/>
<path d="M150.328 58.332H158.662V49.998H150.328V58.332Z" fill="#CF181F"/>
<path d="M200.328 66.6659H208.66V58.332H200.328V66.6659Z" fill="#827C7B"/>
<path d="M191.992 58.332H200.326V49.998H191.992V58.332Z" fill="#231F20"/>
<path d="M200.328 58.332H208.66V49.998H200.328V58.332Z" fill="#231F20"/>
<path d="M200.328 83.3319H208.66V74.998H200.328V83.3319Z" fill="#231F20"/>
<path d="M200.328 174.998H208.66V166.664H200.328V174.998Z" fill="#628D9C"/>
<path d="M158.66 58.332H166.994V49.998H158.66V58.332Z" fill="#CF181F"/>
<path d="M200.328 91.6659H208.66V83.3319H200.328V91.6659Z" fill="#231F20"/>
<path d="M166.996 58.332H175.328L175.328 49.998H166.996V58.332Z" fill="#CF181F"/>
<path d="M175.328 58.332H183.662V49.998H175.328L175.328 58.332Z" fill="#CF181F"/>
<path d="M183.66 58.332H191.994V49.998H183.66V58.332Z" fill="#231F20"/>
<path d="M200.328 74.998H208.66V66.6659H200.328V74.998Z" fill="#231F20"/>
<path d="M200.328 158.33H208.66V149.998H200.328V158.33Z" fill="#690A0D"/>
<path d="M200.328 150H208.66V141.666H200.328V150Z" fill="#690A0D"/>
<path d="M200.328 166.664H208.66V158.33H200.328V166.664Z" fill="#231F20"/>
<path d="M200.328 100H208.66V91.6659H200.328V100Z" fill="#231F20"/>
<path d="M200.328 141.666H208.66V133.334H200.328V141.666Z" fill="#9C1116"/>
<path d="M200.328 108.332H208.66V100H200.328V108.332Z" fill="#231F20"/>
<path d="M200.328 133.334H208.66V125H200.328V133.334Z" fill="#CF181F"/>
<path d="M200.328 116.666H208.66V108.332H200.328V116.666Z" fill="#231F20"/>
<path d="M200.328 125H208.66V116.666H200.328V125Z" fill="#231F20"/>
<path d="M141.992 141.666H150.326V133.334H141.992V141.666Z" fill="#231F20"/>
<path d="M100.328 100H108.662V91.6661H100.328V100Z" fill="#231F20"/>
<path d="M100.328 108.332H108.662V100H100.328V108.332Z" fill="#787271"/>
<path d="M100.328 158.33H108.662V149.998H100.328V158.33Z" fill="#690A0D"/>
<path d="M108.664 100H116.996V91.6661H108.664V100Z" fill="#231F20"/>
<path d="M116.992 100H125.326V91.6661H116.992V100Z" fill="#231F20"/>
<path d="M100.328 116.666H108.662V108.332H100.328V116.666Z" fill="#231F20"/>
<path d="M100.328 125H108.662V116.666H100.328V125Z" fill="#231F20"/>
<path d="M100.328 141.666H108.662V133.334H100.328V141.666Z" fill="#231F20"/>
<path d="M100.328 150H108.662V141.666H100.328V150Z" fill="#231F20"/>
<path d="M100.328 133.334H108.662V125H100.328V133.334Z" fill="#231F20"/>
<path d="M125.328 100H133.662V91.6661H125.328V100Z" fill="#231F20"/>
<path d="M158.66 125H166.994V116.666H158.66V125Z" fill="#231F20"/>
<path d="M133.66 100H141.994V91.6661H133.66V100Z" fill="#231F20"/>
<path d="M158.66 133.334H166.994V125H158.66V133.334Z" fill="#787271"/>
<path d="M158.66 150H166.994V141.666H158.66V150Z" fill="#231F20"/>
<path d="M158.66 141.666H166.994V133.334H158.66V141.666Z" fill="#231F20"/>
<path d="M158.66 116.666H166.994V108.332H158.66V116.666Z" fill="#231F20"/>
<path d="M141.992 100H150.326V91.6661H141.992V100Z" fill="#CF181F"/>
<path d="M150.328 100H158.662V91.6661H150.328V100Z" fill="#CF181F"/>
<path d="M158.66 100H166.994V91.6661H158.66V100Z" fill="#CF181F"/>
<path d="M158.66 108.332H166.994V100H158.66V108.332Z" fill="#CF181F"/>
<path d="M166.996 141.666H175.328V133.334H166.996V141.666Z" fill="#231F20"/>
<path d="M166.996 125H175.328V116.666H166.996V125Z" fill="#9C1116"/>
<path d="M166.996 116.666H175.328V108.332H166.996V116.666Z" fill="#CF181F"/>
<path d="M166.996 133.334H175.328V125H166.996V133.334Z" fill="#231F20"/>
<path d="M166.996 108.332H175.328V100H166.996V108.332Z" fill="#CF181F"/>
<path d="M158.66 158.33H166.994V149.998H158.66V158.33Z" fill="#231F20"/>
<path d="M108.664 158.33H116.996V149.998H108.664V158.33Z" fill="#690A0D"/>
<path d="M183.66 83.3319H191.994V74.9978H183.66V83.3319Z" fill="#827C7B"/>
<path d="M166.996 100H175.328V91.6661H166.996V100Z" fill="#CF181F"/>
<path d="M158.66 91.6661H166.994V83.332H158.66V91.6661Z" fill="#CF181F"/>
<path d="M166.996 91.6661H175.328V83.332H166.996V91.6661Z" fill="#CF181F"/>
<path d="M150.328 91.6661H158.662V83.332H150.328V91.6661Z" fill="#CF181F"/>
<path d="M125.328 166.664H133.662V158.33H125.328V166.664Z" fill="#231F20"/>
<path d="M116.992 158.33V166.666L125.326 166.664V158.33H116.992Z" fill="#231F20"/>
<path d="M108.664 166.666H116.996V158.33H108.664V166.666Z" fill="#CF181F"/>
<path d="M283.66 125H291.994V116.666H283.66V125Z" fill="#231F20"/>
<path d="M166.996 158.33H175.328V149.998H166.996V158.33Z" fill="#231F20"/>
<path d="M158.66 166.664H166.994V158.33H158.66V166.664Z" fill="#231F20"/>
<path d="M166.996 166.664H175.328V158.33H166.996V166.664Z" fill="#231F20"/>
<path d="M150.328 166.664H158.662V158.33H150.328V166.664Z" fill="#231F20"/>
<path d="M141.992 166.664H150.326V158.33H141.992V166.664Z" fill="#231F20"/>
<path d="M150.328 158.33H158.662V149.998H150.328V158.33Z" fill="#231F20"/>
<path d="M116.992 133.334H125.326V125H116.992V133.334Z" fill="#231F20"/>
<path d="M116.992 125H125.326V116.666H116.992V125Z" fill="#231F20"/>
<path d="M141.992 91.6661H150.326V83.332H141.992V91.6661Z" fill="#CF181F"/>
<path d="M116.992 116.666H125.326V108.332H116.992V116.666Z" fill="#231F20"/>
<path d="M116.992 141.666H125.326V133.334H116.992V141.666Z" fill="#231F20"/>
<path d="M133.66 116.666H141.994V108.332H133.66V116.666Z" fill="#231F20"/>
<path d="M141.992 150H150.326V141.666H141.992V150Z" fill="#231F20"/>
<path d="M150.328 150H158.662V141.666H150.328V150Z" fill="#231F20"/>
<path d="M133.66 150H141.994V141.666H133.66V150Z" fill="#231F20"/>
<path d="M125.328 150H133.662V141.666H125.328V150Z" fill="#231F20"/>
<path d="M125.328 141.666H133.662V133.334H125.328V141.666Z" fill="#231F20"/>
<path d="M133.66 133.334H141.994V125H133.66V133.334Z" fill="#231F20"/>
<path d="M125.328 133.334H133.662V125H125.328V133.334Z" fill="#231F20"/>
<path d="M125.328 125H133.662V116.666H125.328V125Z" fill="#231F20"/>
<path d="M133.66 125H141.994V116.666H133.66V125Z" fill="#231F20"/>
<path d="M141.992 116.666H150.326V108.332H141.992V116.666Z" fill="#231F20"/>
<path d="M141.992 133.334H150.326V125H141.992V133.334Z" fill="#231F20"/>
<path d="M133.66 141.666H141.994V133.334H133.66V141.666Z" fill="#231F20"/>
<path d="M141.992 125H150.326V116.666H141.992V125Z" fill="#231F20"/>
<path d="M125.328 116.666H133.662V108.332H125.328V116.666Z" fill="#231F20"/>
<path d="M108.664 141.666H116.996V133.334H108.664V141.666Z" fill="#231F20"/>
<path d="M116.992 150H125.326V141.666H116.992V150Z" fill="#231F20"/>
<path d="M108.664 150H116.996V141.666H108.664V150Z" fill="#231F20"/>
<path d="M108.664 133.334H116.996V125H108.664V133.334Z" fill="white"/>
<path d="M108.664 125H116.996V116.666H108.664V125Z" fill="white"/>
<path d="M116.992 158.33H125.326V149.998H116.992V158.33Z" fill="#690A0D"/>
<path d="M133.66 158.33H141.994V149.998H133.66V158.33Z" fill="#231F20"/>
<path d="M141.992 158.33H150.326V149.998H141.992V158.33Z" fill="#231F20"/>
<path d="M108.664 116.666H116.996V108.332H108.664V116.666Z" fill="#231F20"/>
<path d="M125.328 158.33H133.662V149.998H125.328V158.33Z" fill="#231F20"/>
<path d="M133.66 108.332H141.994V100H133.66V108.332Z" fill="#787271"/>
<path d="M150.328 108.332H158.662V100H150.328V108.332Z" fill="#231F20"/>
<path d="M150.328 125H158.662V116.666H150.328V125Z" fill="#231F20"/>
<path d="M150.328 116.666H158.662V108.332H150.328V116.666Z" fill="#787271"/>
<path d="M150.328 133.334H158.662V125H150.328V133.334Z" fill="#231F20"/>
<path d="M125.328 108.332H133.662V100H125.328V108.332Z" fill="#787271"/>
<path d="M116.992 108.332H125.326V100H116.992V108.332Z" fill="#787271"/>
<path d="M108.664 108.332H116.996V100H108.664V108.332Z" fill="#787271"/>
<path d="M141.992 108.332H150.326V100H141.992V108.332Z" fill="#231F20"/>
<path d="M150.328 141.666H158.662V133.334H150.328V141.666Z" fill="#231F20"/>
<path d="M166.996 150H175.328V141.666H166.996V150Z" fill="#231F20"/>
<path d="M83.6599 158.33H91.994V149.998H83.6599V158.33Z" fill="#690A0D"/>
<path d="M83.6599 150H91.994V141.666L83.6599 141.666V150Z" fill="#231F20"/>
<path d="M83.6599 166.666H91.994V158.33H83.6599V166.666Z" fill="#690A0D"/>
<path d="M83.6599 141.666L91.994 141.666V133.334L83.6599 133.334V141.666Z" fill="#231F20"/>
<path d="M83.6599 133.334L91.994 133.334V125L83.6599 125V133.334Z" fill="#231F20"/>
<path d="M91.9922 183.332H100.326V174.998H91.9922V183.332Z" fill="#231F20"/>
<path d="M83.6599 174.998H91.994V166.664H83.6599V174.998Z" fill="#231F20"/>
<path d="M83.6599 125L91.994 125V116.666H83.6599V125Z" fill="#231F20"/>
<path d="M100.328 183.332H108.662V174.998H100.328V183.332Z" fill="#231F20"/>
<path d="M91.9922 174.998H100.326V166.664H91.9922V174.998Z" fill="#231F20"/>
<path d="M100.328 83.3319H108.662V74.9978H100.328V83.3319Z" fill="#231F20"/>
<path d="M108.664 183.332H116.996V174.998H108.664V183.332Z" fill="#231F20"/>
<path d="M108.664 83.3319H116.996V74.9978H108.664V83.3319Z" fill="#CF181F"/>
<path d="M116.992 83.3319H125.326V74.9978H116.992V83.3319Z" fill="#CF181F"/>
<path d="M91.9922 83.3319H100.326V74.9978H91.9922V83.3319Z" fill="#CF181F"/>
<path d="M83.6599 91.6659H91.994V83.332L83.6599 83.3319V91.6659Z" fill="#CF181F"/>
<path d="M83.6599 83.3319L91.994 83.332V74.9978L83.6599 74.998V83.3319Z" fill="#CF181F"/>
<path d="M83.6599 100L91.994 100V91.6659H83.6599V100Z" fill="#231F20"/>
<path d="M83.6599 108.332H91.994V100L83.6599 100V108.332Z" fill="#787271"/>
<path d="M83.6599 116.666H91.994V108.332H83.6599V116.666Z" fill="#231F20"/>
<path d="M116.992 174.998V183.332H125.326V174.998H116.992Z" fill="#231F20"/>
<path d="M183.66 133.334H191.994V125H183.66V133.334Z" fill="#9C1116"/>
<path d="M183.66 125H191.994V116.666H183.66V125Z" fill="#CF181F"/>
<path d="M183.66 141.666H191.994V133.334H183.66V141.666Z" fill="#9C1116"/>
<path d="M183.66 150H191.994V141.666H183.66V150Z" fill="#690A0D"/>
<path d="M125.328 83.3319H133.662V74.9978H125.328V83.3319Z" fill="#231F20"/>
<path d="M183.66 108.332H191.994V100H183.66V108.332Z" fill="#231F20"/>
<path d="M183.66 116.666H191.994V108.332H183.66V116.666Z" fill="#CF181F"/>
<path d="M183.66 100H191.994V91.6661H183.66V100Z" fill="#231F20"/>
<path d="M183.66 91.6661H191.994V83.3319H183.66V91.6661Z" fill="#231F20"/>
<path d="M183.66 166.664H191.994V158.33H183.66V166.664Z" fill="#231F20"/>
<path d="M183.66 158.33H191.994V149.998H183.66V158.33Z" fill="#4A0607"/>
<path d="M141.992 183.332H150.326V174.998H141.992V183.332Z" fill="#231F20"/>
<path d="M133.66 183.332H141.994V174.998H133.66V183.332Z" fill="#231F20"/>
<path d="M150.328 183.332H158.662V174.998H150.328V183.332Z" fill="#231F20"/>
<path d="M183.66 174.998H191.994V166.664H183.66V174.998Z" fill="#628D9C"/>
<path d="M125.328 183.332H133.662V174.998H125.328V183.332Z" fill="#231F20"/>
<path d="M175.328 183.332H183.662V174.998H175.328V183.332Z" fill="#231F20"/>
<path d="M183.66 183.332H191.994V174.998H183.66V183.332Z" fill="#231F20"/>
<path d="M158.66 183.332H166.994V174.998H158.66V183.332Z" fill="#231F20"/>
<path d="M166.996 183.332H175.328V174.998H166.996V183.332Z" fill="#231F20"/>
<path d="M91.9922 158.33H100.326V149.998H91.9922V158.33Z" fill="#690A0D"/>
<path d="M100.328 166.666H108.662V158.33H100.328V166.666Z" fill="#CF181F"/>
<path d="M133.66 83.3319H141.994V74.9978H133.66V83.3319Z" fill="#CF181F"/>
<path d="M133.66 91.6661H141.994V83.3319H133.66V91.6661Z" fill="#CF181F"/>
<path d="M91.9922 150H100.326V141.666H91.9922V150Z" fill="#231F20"/>
<path d="M91.9922 141.666H100.326V133.334H91.9922V141.666Z" fill="#231F20"/>
<path d="M108.664 174.998H116.996V166.664H108.664V174.998Z" fill="#231F20"/>
<path d="M116.992 166.666V174.998H125.326V166.664L116.992 166.666Z" fill="#231F20"/>
<path d="M125.328 174.998H133.662V166.664H125.328V174.998Z" fill="#231F20"/>
<path d="M100.328 174.998H108.662V166.664H100.328V174.998Z" fill="#231F20"/>
<path d="M91.9922 133.334H100.326V125H91.9922V133.334Z" fill="#231F20"/>
<path d="M91.9922 116.666H100.326V108.332H91.9922V116.666Z" fill="#231F20"/>
<path d="M91.9922 125H100.326V116.666H91.9922V125Z" fill="#231F20"/>
<path d="M108.664 91.6661H116.996V83.3319H108.664V91.6661Z" fill="#CF181F"/>
<path d="M116.992 91.6661H125.326V83.3319H116.992V91.6661Z" fill="#CF181F"/>
<path d="M125.328 91.6661H133.662V83.3319H125.328V91.6661Z" fill="#231F20"/>
<path d="M100.328 91.6661H108.662V83.3319H100.328V91.6661Z" fill="#231F20"/>
<path d="M91.9922 108.332H100.326V100H91.9922V108.332Z" fill="#787271"/>
<path d="M133.66 174.998H141.994V166.664H133.66V174.998Z" fill="#231F20"/>
<path d="M91.9922 91.6659H100.326V83.3319H91.9922V91.6659Z" fill="#CF181F"/>
<path d="M91.9922 100H100.326V91.6659H91.9922V100Z" fill="#231F20"/>
<path d="M91.9922 166.666H100.326V158.33H91.9922V166.666Z" fill="#CF181F"/>
<path d="M175.328 100L183.662 100V91.6661H175.328V100Z" fill="#231F20"/>
<path d="M175.328 91.6661H183.662V83.332H175.328V91.6661Z" fill="#231F20"/>
<path d="M175.328 116.666L183.662 116.666V108.332H175.328V116.666Z" fill="#CF181F"/>
<path d="M175.328 108.332H183.662V100L175.328 100V108.332Z" fill="#CF181F"/>
<path d="M175.328 83.332H183.662V74.9978H175.328L175.328 83.332Z" fill="#231F20"/>
<path d="M141.992 174.998H150.326V166.664H141.992V174.998Z" fill="#231F20"/>
<path d="M141.992 83.332H150.326V74.9978H141.992V83.332Z" fill="#CF181F"/>
<path d="M150.328 83.332H158.662V74.9978H150.328V83.332Z" fill="#CF181F"/>
<path d="M166.996 83.332H175.328L175.328 74.9978H166.996V83.332Z" fill="#CF181F"/>
<path d="M158.66 83.332H166.994V74.9978H158.66V83.332Z" fill="#CF181F"/>
<path d="M175.328 125H183.662V116.666L175.328 116.666V125Z" fill="#CF181F"/>
<path d="M166.996 174.998H175.328L175.328 166.664H166.996V174.998Z" fill="#231F20"/>
<path d="M158.66 174.998H166.994V166.664H158.66V174.998Z" fill="#231F20"/>
<path d="M175.328 174.998H183.662V166.664L175.328 166.664L175.328 174.998Z" fill="#628D9C"/>
<path d="M175.328 133.334L183.662 133.334V125H175.328V133.334Z" fill="#9C1116"/>
<path d="M150.328 174.998H158.662V166.664H150.328V174.998Z" fill="#231F20"/>
<path d="M175.328 150H183.662V141.666L175.328 141.666V150Z" fill="#690A0D"/>
<path d="M175.328 166.664L183.662 166.664V158.33L175.328 158.33V166.664Z" fill="#231F20"/>
<path d="M175.328 141.666L183.662 141.666V133.334L175.328 133.334V141.666Z" fill="#690A0D"/>
<path d="M175.328 158.33L183.662 158.33V149.998H175.328V158.33Z" fill="#4A0607"/>
<path d="M33.6602 141.666H41.994V133.334H33.6602V141.666Z" fill="#231F20"/>
<path d="M33.6602 183.332H41.994V174.998H33.6602V183.332Z" fill="#231F20"/>
<path d="M33.6602 125H41.994V116.666H33.6602V125Z" fill="#9C1116"/>
<path d="M33.6602 116.666H41.994V108.332H33.6602V116.666Z" fill="#9C1116"/>
<path d="M33.6602 108.332H41.994V100H33.6602V108.332Z" fill="#9C1116"/>
<path d="M33.6602 166.666H41.994V158.33H33.6602V166.666Z" fill="#231F20"/>
<path d="M33.6641 100H41.9958V91.6661H33.6641V100Z" fill="#F57861"/>
<path d="M33.6602 174.998H41.994V166.664H33.6602V174.998Z" fill="#628D9C"/>
<path d="M33.6602 150H41.994V141.666H33.6602V150Z" fill="#231F20"/>
<path d="M33.6602 158.33H41.994V149.998H33.6602V158.33Z" fill="#231F20"/>
<path d="M33.6602 133.334H41.994V125H33.6602V133.334Z" fill="#9C1116"/>
<path d="M33.6641 91.6661H41.9958L41.9958 83.332H33.6641L33.6641 91.6661Z" fill="#231F20"/>
<path d="M33.6641 83.332H41.9958V74.998H33.6641V83.332Z" fill="#231F20"/>
<path d="M33.6602 58.3319H41.994V49.998H33.6602V58.3319Z" fill="#231F20"/>
<path d="M33.6602 191.664H41.994V183.332H33.6602V191.664Z" fill="#231F20"/>
<path d="M225.328 91.6659H233.662V83.332H225.328V91.6659Z" fill="#231F20"/>
<path d="M225.328 100H233.662V91.6659H225.328V100Z" fill="#231F20"/>
<path d="M225.328 108.332H233.662V100H225.328V108.332Z" fill="#231F20"/>
<path d="M225.328 133.334H233.662V125H225.328V133.334Z" fill="#CF181F"/>
<path d="M225.328 116.666H233.662V108.332H225.328V116.666Z" fill="#231F20"/>
<path d="M225.328 125H233.662V116.666H225.328V125Z" fill="#231F20"/>
<path d="M225.328 66.6659H233.662V58.332H225.328V66.6659Z" fill="#231F20"/>
<path d="M225.328 58.332H233.662V49.998H225.328V58.332Z" fill="#CF181F"/>
<path d="M225.328 49.9999H233.662V41.666H225.328V49.9999Z" fill="#CF181F"/>
<path d="M225.328 83.332H233.662V74.998H225.328V83.332Z" fill="#231F20"/>
<path d="M225.328 74.998H233.662V66.6659H225.328V74.998Z" fill="#231F20"/>
<path d="M225.328 199.998H233.662V191.664H225.328V199.998Z" fill="#231F20"/>
<path d="M225.328 183.332H233.662V174.998H225.328V183.332Z" fill="#231F20"/>
<path d="M225.328 150H233.662V141.666H225.328V150Z" fill="#9C1116"/>
<path d="M225.328 158.33H233.662V149.998H225.328V158.33Z" fill="#690A0D"/>
<path d="M225.328 174.998H233.662V166.664H225.328V174.998Z" fill="#628D9C"/>
<path d="M225.328 141.666H233.662V133.334H225.328V141.666Z" fill="#9C1116"/>
<path d="M166.996 33.3339H175.328V25H166.996V33.3339Z" fill="#231F20"/>
<path d="M108.664 33.3339H116.996V25H108.664V33.3339Z" fill="#CF181F"/>
<path d="M150.328 33.3339H158.662V25H150.328V33.3339Z" fill="#231F20"/>
<path d="M116.992 33.3339H125.326V25H116.992V33.3339Z" fill="#231F20"/>
<path d="M133.66 33.3339H141.994V25H133.66V33.3339Z" fill="#231F20"/>
<path d="M141.992 33.3339H150.326V25H141.992V33.3339Z" fill="#231F20"/>
<path d="M125.328 33.3339H133.66V25H125.328V33.3339Z" fill="#231F20"/>
<path d="M83.6602 33.3339H91.994V25H83.6602V33.3339Z" fill="#F57861"/>
<path d="M225.328 41.666H233.662V33.334H225.328V41.666Z" fill="#CF181F"/>
<path d="M100.328 33.3339H108.662V25H100.328V33.3339Z" fill="#CF181F"/>
<path d="M91.9922 33.3339H100.326V25H91.9922V33.3339Z" fill="#F57861"/>
<path d="M75.3281 33.3339H83.6602V25H75.3281V33.3339Z" fill="#231F20"/>
<path d="M158.66 33.3339H166.994V25H158.66V33.3339Z" fill="#231F20"/>
<path d="M216.992 33.3339H225.326V25H216.992V33.3339Z" fill="#CF181F"/>
<path d="M225.328 33.334H233.662V25H225.328V33.334Z" fill="#F57861"/>
<path d="M200.328 33.3339H208.66V25H200.328V33.3339Z" fill="#CF181F"/>
<path d="M208.66 33.3339H216.994V25H208.66V33.3339Z" fill="#CF181F"/>
<path d="M191.992 33.3339H200.326V25H191.992V33.3339Z" fill="#CF181F"/>
<path d="M175.328 33.3339H183.662V25H175.328V33.3339Z" fill="#231F20"/>
<path d="M183.66 33.3339H191.994V25H183.66V33.3339Z" fill="#231F20"/>
<path d="M25.3279 174.998H33.662V166.664H25.3279V174.998Z" fill="#231F20"/>
<path d="M25.3281 58.3319H33.662V49.998H25.3281V58.3319Z" fill="#231F20"/>
<path d="M125.328 25L133.662 24.9999V16.6659H125.328V25Z" fill="#231F20"/>
<path d="M133.66 25H141.994V16.6659H133.66V25Z" fill="#231F20"/>
<path d="M141.992 25H150.326V16.6659H141.992V25Z" fill="#231F20"/>
<path d="M150.328 25H158.662V16.6659H150.328V25Z" fill="#231F20"/>
<path d="M116.996 25L125.33 24.9999V16.666L116.996 16.6659V25Z" fill="#827C7B"/>
<path d="M83.6641 24.9999H91.9979V16.666H83.6641V24.9999Z" fill="#231F20"/>
<path d="M91.9961 24.9999L100.328 25V16.6659L91.9961 16.666V24.9999Z" fill="#231F20"/>
<path d="M100.328 25H108.662V16.6659H100.328V25Z" fill="#F57861"/>
<path d="M108.664 25L116.998 24.9999V16.666L108.664 16.6659V25Z" fill="#827C7B"/>
<path d="M25.3279 150H33.662V141.666H25.3279V150Z" fill="#690A0D"/>
<path d="M25.3281 166.666H33.662V158.33L25.3279 158.33L25.3281 166.666Z" fill="#231F20"/>
<path d="M25.3279 158.33L33.662 158.33V149.998H25.3279V158.33Z" fill="#4A0607"/>
<path d="M158.66 25H166.994V16.6659H158.66V25Z" fill="#231F20"/>
<path d="M25.3281 200H33.662V191.664H25.3281V200Z" fill="#231F20"/>
<path d="M25.3281 100H33.662V91.6661H25.3281V100Z" fill="#231F20"/>
<path d="M25.3281 108.332H33.662V100H25.3281V108.332Z" fill="#231F20"/>
<path d="M25.3279 125H33.662V116.666H25.3279V125Z" fill="#9C1116"/>
<path d="M25.3279 141.666H33.662V133.334H25.3279V141.666Z" fill="#690A0D"/>
<path d="M25.3279 133.334H33.662V125H25.3279V133.334Z" fill="#9C1116"/>
<path d="M25.3279 116.666H33.662V108.332H25.3281L25.3279 116.666Z" fill="#231F20"/>
<path d="M233.66 183.332H241.992V174.998L233.66 174.998V183.332Z" fill="#231F20"/>
<path d="M233.66 174.998L241.992 174.998V166.664L233.66 166.664V174.998Z" fill="#231F20"/>
<path d="M233.66 133.334H241.992V125L233.66 125V133.334Z" fill="#CF181F"/>
<path d="M233.66 150H241.992V141.666H233.66V150Z" fill="#9C1116"/>
<path d="M233.66 166.664L241.992 166.664V158.33H233.66V166.664Z" fill="#231F20"/>
<path d="M233.66 158.33H241.992V149.998H233.66V158.33Z" fill="#690A0D"/>
<path d="M233.66 141.666H241.992V133.334H233.66V141.666Z" fill="#9C1116"/>
<path d="M166.996 25H175.328L175.328 16.6659H166.996V25Z" fill="#231F20"/>
<path d="M233.66 41.6658L241.992 41.666V33.334H233.66V41.6658Z" fill="#CF181F"/>
<path d="M225.328 25H233.662V16.666H225.328V25Z" fill="#231F20"/>
<path d="M233.66 33.334H241.992V25H233.66V33.334Z" fill="#F57861"/>
<path d="M233.66 25H241.992L241.992 16.666H233.66V25Z" fill="#231F20"/>
<path d="M208.66 25H216.994V16.6659H208.66L208.66 25Z" fill="#F57861"/>
<path d="M216.992 25H225.326V16.6659H216.992V25Z" fill="#F57861"/>
<path d="M200.328 25H208.66L208.66 16.6659H200.328V25Z" fill="#827C7B"/>
<path d="M183.66 25H191.994V16.6659H183.66V25Z" fill="#231F20"/>
<path d="M175.328 25H183.662V16.6659H175.328L175.328 25Z" fill="#231F20"/>
<path d="M191.992 25H200.326V16.6659H191.992V25Z" fill="#231F20"/>
<path d="M233.66 125L241.992 125V116.666H233.66V125Z" fill="#231F20"/>
<path d="M233.66 49.9999H241.992V41.666L233.66 41.6658V49.9999Z" fill="#CF181F"/>
<path d="M233.66 108.332H241.992V100L233.66 100V108.332Z" fill="#231F20"/>
<path d="M233.66 91.6659L241.992 91.6661V83.3319L233.66 83.332V91.6659Z" fill="#231F20"/>
<path d="M233.66 116.666H241.992V108.332H233.66V116.666Z" fill="#231F20"/>
<path d="M233.66 100L241.992 100V91.6661L233.66 91.6659V100Z" fill="#231F20"/>
<path d="M233.66 58.3319L241.992 58.332V49.998H233.66V58.3319Z" fill="#CF181F"/>
<path d="M233.66 66.6659L241.992 66.666V58.332L233.66 58.3319V66.6659Z" fill="#231F20"/>
<path d="M233.66 74.9978H241.992V66.666L233.66 66.6659V74.9978Z" fill="#231F20"/>
<path d="M233.66 83.332L241.992 83.3319V74.9978H233.66V83.332Z" fill="#231F20"/>
<path d="M225.328 166.664H233.662V158.33H225.328V166.664Z" fill="#231F20"/>
<path d="M50.3281 141.666H58.662V133.334H50.3281V141.666Z" fill="#231F20"/>
<path d="M50.3281 166.666H58.662V158.33H50.3281V166.666Z" fill="#231F20"/>
<path d="M50.3281 158.33H58.662V149.998H50.3281V158.33Z" fill="#231F20"/>
<path d="M50.3281 150H58.662V141.666H50.3281V150Z" fill="#231F20"/>
<path d="M50.3281 174.998H58.662V166.664H50.3281V174.998Z" fill="#231F20"/>
<path d="M50.3281 83.3319H58.662V74.998H50.3281V83.3319Z" fill="#231F20"/>
<path d="M50.3281 74.998H58.662V66.666H50.3281V74.998Z" fill="#231F20"/>
<path d="M50.3281 91.6659H58.662V83.3319H50.3281V91.6659Z" fill="#CF181F"/>
<path d="M50.3281 58.3319H58.662V49.998H50.3281V58.3319Z" fill="#231F20"/>
<path d="M50.3281 66.666H58.662V58.3319H50.3281V66.666Z" fill="#827C7B"/>
<path d="M50.3281 125H58.662V116.666H50.3281V125Z" fill="#787271"/>
<path d="M50.3281 116.666H58.662V108.332H50.3281V116.666Z" fill="#231F20"/>
<path d="M50.3281 100H58.662V91.6659H50.3281V100Z" fill="#CF181F"/>
<path d="M50.3281 133.334H58.662V125H50.3281V133.334Z" fill="#231F20"/>
<path d="M50.3281 108.332H58.662V100H50.3281V108.332Z" fill="#CF181F"/>
<path d="M208.66 116.666L216.994 116.666V108.332L208.66 108.332V116.666Z" fill="#231F20"/>
<path d="M208.66 133.334L216.994 133.334V125H208.66V133.334Z" fill="#CF181F"/>
<path d="M58.6602 49.9999H66.994V41.666H58.6602V49.9999Z" fill="#231F20"/>
<path d="M208.66 141.666L216.994 141.666V133.334L208.66 133.334V141.666Z" fill="#9C1116"/>
<path d="M208.66 158.33H216.994V149.998H208.66V158.33Z" fill="#690A0D"/>
<path d="M208.66 150H216.994V141.666L208.66 141.666V150Z" fill="#9C1116"/>
<path d="M208.66 83.3319H216.994V74.998H208.66V83.3319Z" fill="#231F20"/>
<path d="M208.66 108.332L216.994 108.332V100L208.66 100V108.332Z" fill="#231F20"/>
<path d="M208.66 91.6659H216.994V83.3319H208.66V91.6659Z" fill="#231F20"/>
<path d="M208.66 74.998H216.994V66.666L208.66 66.6659V74.998Z" fill="#231F20"/>
<path d="M208.66 100L216.994 100V91.6659H208.66V100Z" fill="#231F20"/>
<path d="M208.66 174.998L216.994 174.998V166.664H208.66V174.998Z" fill="#231F20"/>
<path d="M208.66 183.332H216.994V174.998L208.66 174.998V183.332Z" fill="#231F20"/>
<path d="M208.66 166.664H216.994V158.33H208.66V166.664Z" fill="#231F20"/>
<path d="M208.66 125H216.994V116.666L208.66 116.666V125Z" fill="#231F20"/>
<path d="M108.664 49.9999H116.996V41.666H108.664V49.9999Z" fill="#CF181F"/>
<path d="M100.328 49.9999H108.662V41.666H100.328V49.9999Z" fill="#CF181F"/>
<path d="M116.992 49.9999H125.326V41.666H116.992V49.9999Z" fill="#231F20"/>
<path d="M141.996 49.9999H150.33V41.666H141.996V49.9999Z" fill="#CF181F"/>
<path d="M133.66 49.9999H141.994V41.666H133.66V49.9999Z" fill="#CF181F"/>
<path d="M125.328 49.9999H133.662V41.666H125.328V49.9999Z" fill="#CF181F"/>
<path d="M75.3281 49.9999H83.6599V41.666H75.3281V49.9999Z" fill="#231F20"/>
<path d="M91.9922 49.9999H100.326V41.666H91.9922V49.9999Z" fill="#CF181F"/>
<path d="M66.9961 49.9999H75.3281V41.666H66.9961V49.9999Z" fill="#827C7B"/>
<path d="M83.6599 49.9999H91.994V41.666H83.6599V49.9999Z" fill="#CF181F"/>
<path d="M158.66 49.9999H166.994V41.666H158.66V49.9999Z" fill="#231F20"/>
<path d="M208.66 49.9999H216.994V41.666H208.66V49.9999Z" fill="#CF181F"/>
<path d="M191.992 49.9999H200.326V41.666H191.992V49.9999Z" fill="#CF181F"/>
<path d="M150.328 49.9999H158.662V41.666H150.328V49.9999Z" fill="#231F20"/>
<path d="M208.66 58.332L216.994 58.3319V49.998H208.66V58.332Z" fill="#231F20"/>
<path d="M200.328 49.9999H208.66V41.666H200.328V49.9999Z" fill="#CF181F"/>
<path d="M183.66 49.9999H191.994V41.666H183.66V49.9999Z" fill="#CF181F"/>
<path d="M208.66 66.6659L216.994 66.666V58.3319L208.66 58.332V66.6659Z" fill="#231F20"/>
<path d="M166.996 49.9999H175.328V41.666H166.996V49.9999Z" fill="#CF181F"/>
<path d="M175.328 49.9999H183.662V41.666H175.328V49.9999Z" fill="#CF181F"/>
<path d="M41.9961 150H50.3281V141.666L41.9961 141.666V150Z" fill="#231F20"/>
<path d="M41.9961 158.33L50.3281 158.33V149.998H41.9961V158.33Z" fill="#231F20"/>
<path d="M41.9961 166.666H50.3281V158.33L41.9961 158.33V166.666Z" fill="#231F20"/>
<path d="M41.9961 66.6659H50.3299V58.332H41.9961V66.6659Z" fill="#231F20"/>
<path d="M41.9961 174.998H50.3281V166.664H41.9961V174.998Z" fill="#231F20"/>
<path d="M41.9961 141.666L50.3281 141.666V133.334H41.9961V141.666Z" fill="#787271"/>
<path d="M41.9958 100L50.3281 100V91.6659L41.9958 91.6661V100Z" fill="#CF181F"/>
<path d="M41.9958 83.332L50.3281 83.3319V74.998H41.9958V83.332Z" fill="#827C7B"/>
<path d="M41.9958 74.998H50.3281V66.666L41.9961 66.6659L41.9958 74.998Z" fill="#231F20"/>
<path d="M41.9958 91.6661L50.3281 91.6659V83.3319L41.9958 83.332L41.9958 91.6661Z" fill="#231F20"/>
<path d="M41.9961 125H50.3281V116.666H41.9961V125Z" fill="#231F20"/>
<path d="M41.9961 108.332L50.3281 108.332V100L41.9958 100L41.9961 108.332Z" fill="#CF181F"/>
<path d="M41.9961 133.334H50.3281V125H41.9961V133.334Z" fill="#231F20"/>
<path d="M41.9961 116.666H50.3281V108.332L41.9961 108.332V116.666Z" fill="#9C1116"/>
<path d="M216.992 66.6659H225.326V58.332H216.992V66.6659Z" fill="#231F20"/>
<path d="M216.992 74.9978H225.326V66.6659H216.992V74.9978Z" fill="#231F20"/>
<path d="M216.992 83.3319H225.326V74.9978H216.992V83.3319Z" fill="#231F20"/>
<path d="M216.992 100H225.326V91.6661H216.992V100Z" fill="#231F20"/>
<path d="M200.328 41.666H208.66L208.66 33.3339H200.328V41.666Z" fill="#CF181F"/>
<path d="M216.992 49.9999H225.326V41.666H216.992V49.9999Z" fill="#CF181F"/>
<path d="M216.992 41.666H225.326V33.3339H216.992V41.666Z" fill="#CF181F"/>
<path d="M216.992 58.332H225.326V49.998H216.992V58.332Z" fill="#231F20"/>
<path d="M208.66 41.666H216.994V33.3339H208.66L208.66 41.666Z" fill="#CF181F"/>
<path d="M216.992 108.332H225.326V100H216.992V108.332Z" fill="#231F20"/>
<path d="M216.992 91.6661H225.326V83.3319H216.992V91.6661Z" fill="#231F20"/>
<path d="M216.992 158.33H225.326V149.998H216.992V158.33Z" fill="#690A0D"/>
<path d="M216.992 174.998H225.326V166.664H216.992V174.998Z" fill="#628D9C"/>
<path d="M216.992 166.664H225.326V158.33H216.992V166.664Z" fill="#231F20"/>
<path d="M216.992 183.332H225.326V174.998H216.992V183.332Z" fill="#231F20"/>
<path d="M216.992 133.334H225.326V125H216.992V133.334Z" fill="#CF181F"/>
<path d="M216.992 125H225.326V116.666H216.992V125Z" fill="#231F20"/>
<path d="M216.992 116.666H225.326V108.332H216.992V116.666Z" fill="#231F20"/>
<path d="M216.992 150H225.326V141.666H216.992V150Z" fill="#9C1116"/>
<path d="M216.992 141.666H225.326V133.334H216.992V141.666Z" fill="#9C1116"/>
<path d="M116.992 41.666H125.326V33.3339H116.992V41.666Z" fill="#CF181F"/>
<path d="M75.3281 41.666H83.6599L83.6602 33.3339H75.3281V41.666Z" fill="#827C7B"/>
<path d="M83.6599 41.666H91.994V33.3339H83.6602L83.6599 41.666Z" fill="#CF181F"/>
<path d="M66.9961 41.666H75.3281V33.3339L66.9961 33.334V41.666Z" fill="#231F20"/>
<path d="M91.9922 41.666H100.326V33.3339H91.9922V41.666Z" fill="#CF181F"/>
<path d="M100.328 41.666H108.662V33.3339H100.328V41.666Z" fill="#CF181F"/>
<path d="M108.664 41.666H116.996V33.3339H108.664V41.666Z" fill="#CF181F"/>
<path d="M216.992 191.664H225.326V183.332H216.992V191.664Z" fill="#231F20"/>
<path d="M125.328 41.666H133.662V33.334L125.328 33.3339V41.666Z" fill="#231F20"/>
<path d="M158.66 41.666H166.994V33.3339H158.66V41.666Z" fill="#CF181F"/>
<path d="M166.996 41.666H175.328V33.3339H166.996V41.666Z" fill="#CF181F"/>
<path d="M175.328 41.666H183.662V33.3339H175.328V41.666Z" fill="#CF181F"/>
<path d="M183.66 41.666H191.994V33.3339H183.66V41.666Z" fill="#CF181F"/>
<path d="M191.992 41.666H200.326V33.3339H191.992V41.666Z" fill="#CF181F"/>
<path d="M133.66 41.666H141.994V33.3339H133.66V41.666Z" fill="#CF181F"/>
<path d="M141.992 41.6658H150.326V33.3339H141.992V41.6658Z" fill="#CF181F"/>
<path d="M150.328 41.666H158.662V33.3339H150.328V41.666Z" fill="#CF181F"/>
<path d="M283.66 116.666H291.994V108.332H283.66V116.666Z" fill="#231F20"/>
<path d="M300.328 191.664H308.662V183.332H300.328V191.664Z" fill="#231F20"/>
<path d="M291.992 158.33H300.324V149.998H291.992V158.33Z" fill="#231F20"/>
<path d="M283.66 100H291.994V91.6661H283.66V100Z" fill="#827C7B"/>
<path d="M283.66 91.6661H291.994V83.332H283.66V91.6661Z" fill="#231F20"/>
<path d="M283.66 83.332H291.994V74.998H283.66V83.332Z" fill="#231F20"/>
<path d="M283.66 108.332H291.994V100H283.66V108.332Z" fill="#231F20"/>
<path d="M291.992 183.332H300.324V174.998H291.992V183.332Z" fill="#231F20"/>
<path d="M291.992 150H300.324V141.666H291.992V150Z" fill="#231F20"/>
<path d="M291.992 141.666H300.324V133.334H291.992V141.666Z" fill="#231F20"/>
<path d="M291.992 125H300.324V116.666H291.992V125Z" fill="#231F20"/>
<path d="M291.992 116.666H300.324V108.332H291.992V116.666Z" fill="#231F20"/>
<path d="M291.992 133.334H300.324V125H291.992V133.334Z" fill="#231F20"/>
<path d="M291.992 108.332H300.324V100H291.992V108.332Z" fill="#231F20"/>
<path d="M291.992 100H300.324V91.6661H291.992V100Z" fill="#231F20"/>
<path d="M308.66 199.998H316.994V191.664H308.66V199.998Z" fill="#231F20"/>
</svg>
