<svg width="158" height="200" viewBox="0 0 158 200" fill="none" xmlns="http://www.w3.org/2000/svg">
<path d="M54.5431 187.878H60.6041V181.818H54.5431V187.878Z" fill="#231F20"/>
<path d="M66.6681 187.878H72.7291V181.818H66.6681V187.878Z" fill="#231F20"/>
<path d="M103.031 187.878H109.092V181.818H103.031V187.878Z" fill="#FABC09"/>
<path d="M90.9102 187.878H96.9713V181.818H90.9102V187.878Z" fill="#231F20"/>
<path d="M96.9727 187.878L103.031 187.878V181.818L96.9727 181.818V187.878Z" fill="#231F20"/>
<path d="M60.6056 187.878H66.6666V181.818H60.6056V187.878Z" fill="#FABC09"/>
<path d="M109.09 187.878H115.151V181.818H109.09V187.878Z" fill="#231F20"/>
<path d="M48.4884 187.878H54.5479V181.818H48.4884V187.878Z" fill="#231F20"/>
<path d="M42.4259 187.878H48.4869V181.818H42.4259V187.878Z" fill="#231F20"/>
<path d="M30.3048 6.06101H36.3658V0H30.3048V6.06101Z" fill="#231F20"/>
<path d="M115.152 187.878H121.212V181.818H115.152V187.878Z" fill="#231F20"/>
<path d="M48.4884 6.06101H54.5479V0H48.4884V6.06101Z" fill="#231F20"/>
<path d="M36.3634 6.06101H42.4244V0H36.3634V6.06101Z" fill="#231F20"/>
<path d="M42.4259 6.06101H48.4869V0H42.4259V6.06101Z" fill="#231F20"/>
<path d="M121.212 187.878H127.272V181.818H121.212V187.878Z" fill="#231F20"/>
<path d="M121.211 103.032H127.272V96.9707H121.211V103.032Z" fill="#231F20"/>
<path d="M121.211 66.6665H127.272V60.6055H121.211V66.6665Z" fill="#E0833A"/>
<path d="M121.211 96.9707H127.272V90.9102H121.211V96.9707Z" fill="#9D4E1F"/>
<path d="M121.211 115.151H127.272V109.09H121.211V115.151Z" fill="#9D4E1F"/>
<path d="M121.211 121.213H127.272V115.152H121.211V121.213Z" fill="#9D4E1F"/>
<path d="M121.211 109.09H127.272V103.032H121.211V109.09Z" fill="#CA6F1F"/>
<path d="M121.211 78.7876H127.272V72.7266H121.211V78.7876Z" fill="#231F20"/>
<path d="M121.211 72.7266H127.272L127.272 66.6665H121.211L121.211 72.7266Z" fill="#E0833A"/>
<path d="M121.211 90.9087H127.272V84.8477H121.211V90.9087Z" fill="#CA6F1F"/>
<path d="M121.211 84.8477H127.272V78.7876H121.211V84.8477Z" fill="#231F20"/>
<path d="M121.211 127.272H127.272V121.213H121.211V127.272Z" fill="#9D4E1F"/>
<path d="M121.211 169.698H127.272V163.637H121.211V169.698Z" fill="#231F20"/>
<path d="M121.211 163.637H127.272L127.272 157.576H121.211L121.211 163.637Z" fill="#B86429"/>
<path d="M121.211 157.576H127.272V151.516H121.211V157.576Z" fill="#CB7331"/>
<path d="M121.211 145.456H127.272V139.395H121.211V145.456Z" fill="#B86429"/>
<path d="M121.211 139.393H127.272V133.332H121.211V139.393Z" fill="#231F20"/>
<path d="M121.211 133.332H127.272V127.272H121.211V133.332Z" fill="#77341D"/>
<path d="M121.211 151.515H127.272V145.456H121.211V151.515Z" fill="#E0833A"/>
<path d="M121.211 36.3642H127.272V30.3047H121.211V36.3642Z" fill="#231F20"/>
<path d="M121.211 48.4848H127.272V42.4238H121.211V48.4848Z" fill="#FAB24A"/>
<path d="M121.211 42.4238H127.272L127.272 36.3652H121.211L121.211 42.4238Z" fill="#FAB24A"/>
<path d="M121.211 54.5454H127.272L127.272 48.4848H121.211L121.211 54.5454Z" fill="#E0833A"/>
<path d="M121.211 60.6055H127.272L127.272 54.5469H121.211L121.211 60.6055Z" fill="#E0833A"/>
<path d="M54.543 175.757H60.604V169.697H54.543V175.757Z" fill="#231F20"/>
<path d="M48.4883 12.12H54.5478L54.5479 6.06101H48.4884L48.4883 12.12Z" fill="#D91920"/>
<path d="M54.543 12.12H60.604V6.06055H54.543V12.12Z" fill="#231F20"/>
<path d="M109.09 54.5454H115.151V48.4844H109.09V54.5454Z" fill="#FAB24A"/>
<path d="M109.09 48.4844H115.151L115.151 42.4238H109.09L109.09 48.4844Z" fill="#231F20"/>
<path d="M109.09 60.6064H115.151V54.5469H109.09V60.6064Z" fill="#E0833A"/>
<path d="M109.09 72.727H115.151V66.666H109.09V72.727Z" fill="#E0833A"/>
<path d="M109.09 66.666H115.151V60.6064H109.09V66.666Z" fill="#231F20"/>
<path d="M42.4258 12.12H48.4868L48.4869 6.06101H42.4259L42.4258 12.12Z" fill="#D91920"/>
<path d="M24.2422 12.12H30.3032V6.06055H24.2422V12.12Z" fill="#231F20"/>
<path d="M30.3047 12.12H36.3657L36.3658 6.06101H30.3048L30.3047 12.12Z" fill="#F25937"/>
<path d="M36.3633 12.12H42.4243L42.4244 6.06101H36.3634L36.3633 12.12Z" fill="#D91920"/>
<path d="M109.09 78.7876H115.151V72.727H109.09V78.7876Z" fill="#E0833A"/>
<path d="M72.7266 175.757H78.7861V169.697H72.7266V175.757Z" fill="#231F20"/>
<path d="M60.6055 175.757H66.6665V169.697H60.6055V175.757Z" fill="#231F20"/>
<path d="M66.668 175.757H72.729V169.697H66.668V175.757Z" fill="#231F20"/>
<path d="M48.4883 175.757H54.5478V169.697H48.4883V175.757Z" fill="#231F20"/>
<path d="M109.09 169.698H115.151V163.637H109.09V169.698Z" fill="#954A1D"/>
<path d="M109.09 121.213H115.151V115.152H109.09V121.213Z" fill="#9D4E1F"/>
<path d="M109.09 127.272H115.151V121.213H109.09V127.272Z" fill="#9D4E1F"/>
<path d="M109.09 139.393H115.151V133.332H109.09V139.393Z" fill="#77341D"/>
<path d="M109.09 145.456H115.151V139.395H109.09V145.456Z" fill="#231F20"/>
<path d="M78.8047 175.757H84.8657V169.697H78.8047V175.757Z" fill="#231F20"/>
<path d="M109.09 133.332H115.151V127.272H109.09V133.332Z" fill="#9D4E1F"/>
<path d="M109.09 90.9087H115.151V84.8477H109.09V90.9087Z" fill="#9D4E1F"/>
<path d="M109.09 96.9712H115.151V90.9102H109.09V96.9712Z" fill="#231F20"/>
<path d="M109.09 109.091H115.151V103.031H109.09V109.091Z" fill="#9D4E1F"/>
<path d="M109.09 103.031H115.151L115.151 96.9712H109.09L109.09 103.031Z" fill="#231F20"/>
<path d="M109.09 115.151H115.151L115.151 109.091H109.09L109.09 115.151Z" fill="#9D4E1F"/>
<path d="M96.9727 175.757H103.032V169.697H96.9727V175.757Z" fill="#231F20"/>
<path d="M90.9102 175.757H96.9712V169.697H90.9102V175.757Z" fill="#231F20"/>
<path d="M84.7969 175.757H90.8579V169.697H84.7969V175.757Z" fill="#231F20"/>
<path d="M103.032 175.757H109.092V169.697H103.032V175.757Z" fill="#231F20"/>
<path d="M109.09 151.515H115.151V145.456H109.09V151.515Z" fill="#B86429"/>
<path d="M109.09 163.637H115.151L115.151 157.576H109.09L109.09 163.637Z" fill="#CB7331"/>
<path d="M109.09 157.576H115.151V151.516H109.09V157.576Z" fill="#E0833A"/>
<path d="M109.09 84.8477H115.151V78.7876H109.09V84.8477Z" fill="#231F20"/>
<path d="M109.09 175.757H115.151L115.151 169.698H109.09L109.09 175.757Z" fill="#231F20"/>
<path d="M115.152 157.577H121.212L121.211 151.516H115.152V157.577Z" fill="#E0833A"/>
<path d="M115.152 151.515H121.211L121.212 145.455H115.152V151.515Z" fill="#E0833A"/>
<path d="M115.152 169.698H121.211V163.637H115.152V169.698Z" fill="#954A1D"/>
<path d="M115.152 163.637H121.211L121.212 157.577H115.152L115.152 163.637Z" fill="#CB7331"/>
<path d="M115.152 175.757H121.212L121.211 169.698H115.152L115.152 175.757Z" fill="#231F20"/>
<path d="M115.152 145.455H121.212L121.211 139.395H115.152V145.455Z" fill="#B86429"/>
<path d="M115.152 127.272H121.211L121.212 121.213H115.152V127.272Z" fill="#9D4E1F"/>
<path d="M115.152 121.213H121.212L121.211 115.152H115.152V121.213Z" fill="#9D4E1F"/>
<path d="M60.6056 181.818H66.6666L66.6665 175.758H60.6055L60.6056 181.818Z" fill="#E28E0D"/>
<path d="M66.6681 181.818H72.7291L72.729 175.758H66.668L66.6681 181.818Z" fill="#231F20"/>
<path d="M96.9727 181.818L103.031 181.818L103.032 175.758H96.9727L96.9727 181.818Z" fill="#231F20"/>
<path d="M103.031 181.818H109.092L109.092 175.758H103.032L103.031 181.818Z" fill="#E28E0D"/>
<path d="M109.09 181.818H115.151L115.151 175.758H109.09L109.09 181.818Z" fill="#231F20"/>
<path d="M115.152 115.151H121.211V109.09H115.152V115.151Z" fill="#9D4E1F"/>
<path d="M115.152 139.393H121.211V133.332H115.152V139.393Z" fill="#231F20"/>
<path d="M115.152 42.4247H121.212L121.211 36.3652H115.152V42.4247Z" fill="#231F20"/>
<path d="M115.152 48.4848H121.211L121.212 42.4247H115.152L115.152 48.4848Z" fill="#231F20"/>
<path d="M115.152 72.727H121.212L121.211 66.6665L115.152 66.666V72.727Z" fill="#E0833A"/>
<path d="M115.152 84.8481H121.212V78.7871H115.152V84.8481Z" fill="#CA6F1F"/>
<path d="M115.152 96.9712H121.212L121.211 90.9102H115.152V96.9712Z" fill="#9D4E1F"/>
<path d="M115.152 54.5454H121.211L121.211 48.4848H115.152L115.152 54.5454Z" fill="#231F20"/>
<path d="M115.152 103.032H121.211L121.212 96.9712H115.152V103.032Z" fill="#9D4E1F"/>
<path d="M115.152 90.9087H121.211V84.8477L115.152 84.8481L115.152 90.9087Z" fill="#9D4E1F"/>
<path d="M115.152 60.6064H121.212L121.211 54.5469H115.152V60.6064Z" fill="#E0833A"/>
<path d="M115.152 66.666L121.211 66.6665L121.212 60.6064H115.152V66.666Z" fill="#E0833A"/>
<path d="M115.152 109.09L121.212 109.091V103.031L115.152 103.032V109.09Z" fill="#9D4E1F"/>
<path d="M115.152 78.7871L121.211 78.7876L121.212 72.727H115.152L115.152 78.7871Z" fill="#231F20"/>
<path d="M115.152 133.332L121.212 133.332V127.271L115.152 127.272V133.332Z" fill="#77341D"/>
<path d="M54.5431 181.818H60.6041L60.604 175.758H54.543L54.5431 181.818Z" fill="#231F20"/>
<path d="M133.336 163.637H139.397V157.576H133.336V163.637Z" fill="#231F20"/>
<path d="M133.336 157.576H139.397V151.516H133.336V157.576Z" fill="#954A1D"/>
<path d="M133.336 121.213H139.397V115.152H133.336V121.213Z" fill="#231F20"/>
<path d="M133.336 151.515H139.397V145.455H133.336V151.515Z" fill="#CB7331"/>
<path d="M133.336 139.393H139.397V133.332H133.336V139.393Z" fill="#E0833A"/>
<path d="M133.336 127.272H139.397V121.213H133.336V127.272Z" fill="#231F20"/>
<path d="M133.336 133.332H139.397V127.272H133.336V133.332Z" fill="#B86429"/>
<path d="M133.336 145.455H139.397V139.395H133.336V145.455Z" fill="#E0833A"/>
<path d="M103.031 200H109.092V193.939H103.031V200Z" fill="#231F20"/>
<path d="M115.152 200H121.212V193.939H115.152V200Z" fill="#231F20"/>
<path d="M96.9727 200H103.031V193.939H96.9727V200Z" fill="#231F20"/>
<path d="M121.212 200H127.272V193.939H121.212V200Z" fill="#231F20"/>
<path d="M127.273 200H133.334V193.939H127.273V200Z" fill="#231F20"/>
<path d="M109.09 200H115.151V193.939H109.09V200Z" fill="#231F20"/>
<path d="M133.336 48.4848H139.397V42.4238H133.336V48.4848Z" fill="#231F20"/>
<path d="M133.336 115.151H139.397V109.09H133.336V115.151Z" fill="#231F20"/>
<path d="M133.336 54.5454H139.397L139.397 48.4848H133.336L133.336 54.5454Z" fill="#FAB24A"/>
<path d="M133.336 103.032H139.397V96.9707H133.336V103.032Z" fill="#9D4E1F"/>
<path d="M133.336 96.9707H139.397V90.9102H133.336V96.9707Z" fill="#9D4E1F"/>
<path d="M133.336 109.09H139.397V103.032H133.336V109.09Z" fill="#9D4E1F"/>
<path d="M133.336 90.9087H139.397V84.8477H133.336V90.9087Z" fill="#9D4E1F"/>
<path d="M133.336 78.7876H139.397V72.7266H133.336V78.7876Z" fill="#231F20"/>
<path d="M133.336 66.6665H139.397V60.6055H133.336V66.6665Z" fill="#E0833A"/>
<path d="M133.336 72.7266H139.397L139.397 66.6665H133.336L133.336 72.7266Z" fill="#231F20"/>
<path d="M133.336 60.6055H139.397L139.397 54.5469H133.336L133.336 60.6055Z" fill="#E0833A"/>
<path d="M133.336 84.8477H139.397V78.7876H133.336V84.8477Z" fill="#CA6F1F"/>
<path d="M139.395 127.272H145.454V121.213H139.395V127.272Z" fill="#E0833A"/>
<path d="M139.395 133.332H145.454V127.272H139.395V133.332Z" fill="#E0833A"/>
<path d="M139.395 121.213H145.454V115.152H139.395V121.213Z" fill="#B86429"/>
<path d="M139.395 145.456H145.454V139.395H139.395V145.456Z" fill="#954A1D"/>
<path d="M139.395 151.515H145.454V145.456H139.395V151.515Z" fill="#231F20"/>
<path d="M139.395 139.393H145.454V133.332H139.395V139.393Z" fill="#CB7331"/>
<path d="M139.395 96.9712H145.454V90.9102H139.395V96.9712Z" fill="#231F20"/>
<path d="M139.395 115.151H145.454V109.09H139.395V115.151Z" fill="#B86429"/>
<path d="M139.395 103.032H145.454V96.9712H139.395V103.032Z" fill="#231F20"/>
<path d="M139.395 109.09H145.454V103.032H139.395V109.09Z" fill="#231F20"/>
<path d="M139.395 157.577H145.454V151.516H139.395V157.577Z" fill="#231F20"/>
<path d="M90.9102 200H96.9712V193.939H90.9102V200Z" fill="#231F20"/>
<path d="M60.6055 200H66.6665V193.939H60.6055V200Z" fill="#231F20"/>
<path d="M127.273 103.032H133.334V96.9707H127.273V103.032Z" fill="#231F20"/>
<path d="M127.274 109.091H133.335L133.334 103.032H127.273L127.274 109.091Z" fill="#231F20"/>
<path d="M127.273 96.9707H133.334V90.9102H127.273V96.9707Z" fill="#9D4E1F"/>
<path d="M127.273 115.151H133.334L133.335 109.091H127.274L127.273 115.151Z" fill="#9D4E1F"/>
<path d="M127.273 121.213H133.334V115.152H127.273V121.213Z" fill="#9D4E1F"/>
<path d="M127.273 78.7876H133.334V72.7266H127.273V78.7876Z" fill="#CA6F1F"/>
<path d="M127.274 66.6665H133.335V60.6055H127.274V66.6665Z" fill="#E0833A"/>
<path d="M127.273 127.272H133.334V121.213H127.273V127.272Z" fill="#77341D"/>
<path d="M127.274 84.8481H133.335L133.334 78.7876H127.273L127.274 84.8481Z" fill="#9D4E1F"/>
<path d="M127.273 90.9087H133.334L133.335 84.8481H127.274L127.273 90.9087Z" fill="#231F20"/>
<path d="M127.273 72.7266H133.334L133.335 66.6665H127.274L127.273 72.7266Z" fill="#231F20"/>
<path d="M127.274 169.698H133.335V163.637H127.274V169.698Z" fill="#231F20"/>
<path d="M127.273 133.332H133.334V127.272H127.273V133.332Z" fill="#231F20"/>
<path d="M127.273 193.938H133.334V187.877H127.273V193.938Z" fill="#231F20"/>
<path d="M127.273 157.577H133.334V151.516H127.273V157.577Z" fill="#CB7331"/>
<path d="M127.273 139.393H133.334V133.332H127.273V139.393Z" fill="#B86429"/>
<path d="M127.273 145.456H133.334V139.395H127.273V145.456Z" fill="#E0833A"/>
<path d="M127.273 151.515H133.334V145.456H127.273V151.515Z" fill="#E0833A"/>
<path d="M127.274 163.637H133.335L133.334 157.577H127.273L127.274 163.637Z" fill="#954A1D"/>
<path d="M127.274 48.4848H133.335V42.4238H127.274V48.4848Z" fill="#231F20"/>
<path d="M127.274 42.4238H133.335L133.334 36.3652H127.273L127.274 42.4238Z" fill="#231F20"/>
<path d="M127.273 54.5454H133.334L133.335 48.4848H127.274L127.273 54.5454Z" fill="#231F20"/>
<path d="M127.274 60.6055H133.335L133.334 54.5469H127.273L127.274 60.6055Z" fill="#E0833A"/>
<path d="M90.9102 193.938H96.9712L96.9713 187.878H90.9102L90.9102 193.938Z" fill="#231F20"/>
<path d="M60.6055 193.938H66.6665L66.6666 187.878H60.6056L60.6055 193.938Z" fill="#FABC09"/>
<path d="M66.668 193.938H72.729L72.7291 187.878H66.6681L66.668 193.938Z" fill="#FABC09"/>
<path d="M72.7266 193.938H78.7861V187.877H72.7266V193.938Z" fill="#231F20"/>
<path d="M121.211 193.938H127.272L127.272 187.878L121.211 187.877V193.938Z" fill="#E28E0D"/>
<path d="M115.152 193.938H121.211V187.877L115.152 187.878L115.152 193.938Z" fill="#231F20"/>
<path d="M109.09 193.938H115.151L115.151 187.878H109.09L109.09 193.938Z" fill="#FABC09"/>
<path d="M103.031 193.938H109.092V187.877H103.031V193.938Z" fill="#FABC09"/>
<path d="M96.9727 193.938H103.031V187.877L96.9727 187.878L96.9727 193.938Z" fill="#FABC09"/>
<path d="M48.4883 193.938H54.5478L54.5479 187.878H48.4884L48.4883 193.938Z" fill="#231F20"/>
<path d="M42.4258 193.938H48.4868L48.4869 187.878H42.4259L42.4258 193.938Z" fill="#E28E0D"/>
<path d="M54.543 193.938H60.604L60.6041 187.878H54.5431L54.543 193.938Z" fill="#FABC09"/>
<path d="M36.3633 193.938H42.4243V187.877H36.3633V193.938Z" fill="#231F20"/>
<path d="M66.668 200H72.729V193.939H66.668V200Z" fill="#231F20"/>
<path d="M42.4258 200H48.4868V193.939H42.4258V200Z" fill="#231F20"/>
<path d="M36.3633 200H42.4243V193.939H36.3633V200Z" fill="#231F20"/>
<path d="M54.543 200H60.604V193.939H54.543V200Z" fill="#231F20"/>
<path d="M48.4883 200H54.5478V193.939H48.4883V200Z" fill="#231F20"/>
<path d="M72.7266 200H78.7861V193.939H72.7266V200Z" fill="#231F20"/>
<path d="M30.3047 121.213H36.3657V115.152H30.3047V121.213Z" fill="#E0833A"/>
<path d="M72.7267 66.6665H78.7862V60.6055H72.7267V66.6665Z" fill="#E0833A"/>
<path d="M72.7267 48.4848H78.7862V42.4238H72.7267V48.4848Z" fill="#231F20"/>
<path d="M60.6056 48.4848H66.6666V42.4238H60.6056V48.4848Z" fill="#E0833A"/>
<path d="M72.7266 54.5454H78.7861L78.7862 48.4848H72.7267L72.7266 54.5454Z" fill="#231F20"/>
<path d="M72.7267 60.6055H78.7862L78.7861 54.5469H72.7266L72.7267 60.6055Z" fill="#FAB24A"/>
<path d="M66.6681 48.4848H72.7291V42.4238H66.6681V48.4848Z" fill="#E0833A"/>
<path d="M36.3634 48.4848H42.4244V42.4238H36.3634V48.4848Z" fill="#231F20"/>
<path d="M54.5431 48.4848H60.6041V42.4238H54.5431V48.4848Z" fill="#E0833A"/>
<path d="M42.4259 48.4848H48.4884V42.4238H42.4259V48.4848Z" fill="#E0833A"/>
<path d="M66.668 54.5454H72.729L72.7291 48.4848H66.6681L66.668 54.5454Z" fill="#E0833A"/>
<path d="M72.7267 84.8481H78.7862V78.7871H72.7267V84.8481Z" fill="#E0833A"/>
<path d="M72.7266 115.151H78.7861V109.09H72.7266V115.151Z" fill="#9D4E1F"/>
<path d="M72.7266 109.09H78.7861L78.7862 103.031H72.7267L72.7266 109.09Z" fill="#9D4E1F"/>
<path d="M72.7266 72.727H78.7861L78.7862 66.6665H72.7267L72.7266 72.727Z" fill="#E0833A"/>
<path d="M72.7266 121.213H78.7861V115.152H72.7266V121.213Z" fill="#77341D"/>
<path d="M72.7267 103.031H78.7862L78.7861 96.9707H72.7266L72.7267 103.031Z" fill="#CA6F1F"/>
<path d="M72.7266 127.272H78.7861V121.213H72.7266V127.272Z" fill="#231F20"/>
<path d="M30.3048 48.4848H36.3658V42.4238H30.3048V48.4848Z" fill="#231F20"/>
<path d="M72.7266 96.9707H78.7861V90.9102H72.7266V96.9707Z" fill="#231F20"/>
<path d="M72.7267 78.7871H78.7862L78.7861 72.727H72.7266L72.7267 78.7871Z" fill="#CA6F1F"/>
<path d="M72.7266 90.9087H78.7861L78.7862 84.8481H72.7267L72.7266 90.9087Z" fill="#E0833A"/>
<path d="M72.7266 133.332H78.7861V127.272H72.7266V133.332Z" fill="#B86429"/>
<path d="M12.1212 48.4848H18.1822V42.4238H12.1212V48.4848Z" fill="#E0833A"/>
<path d="M24.2423 48.4848H30.3033V42.4238H24.2423V48.4848Z" fill="#231F20"/>
<path d="M6.06261 48.4851L12.1212 48.4848V42.4238L6.06261 42.4241V48.4851Z" fill="#231F20"/>
<path d="M18.1837 48.4848H24.2447V42.4238H18.1837V48.4848Z" fill="#E0833A"/>
<path d="M6.06252 54.5454H12.122L12.1212 48.4848L6.06261 48.4851L6.06252 54.5454Z" fill="#231F20"/>
<path d="M42.4258 54.5454H48.4883L48.4884 48.4848H42.4259L42.4258 54.5454Z" fill="#231F20"/>
<path d="M72.7266 139.393H78.7861V133.332H72.7266V139.393Z" fill="#E0833A"/>
<path d="M12.122 54.5454H18.1821L18.1822 48.4848H12.1212L12.122 54.5454Z" fill="#E0833A"/>
<path d="M60.6055 54.5454H66.6665L66.6666 48.4848H60.6056L60.6055 54.5454Z" fill="#E0833A"/>
<path d="M48.4883 54.5454H54.5478V48.4844L48.4884 48.4848L48.4883 54.5454Z" fill="#E0833A"/>
<path d="M36.3633 54.5454H42.4243L42.4244 48.4848H36.3634L36.3633 54.5454Z" fill="#FAB20B"/>
<path d="M18.1836 54.5454H24.2446L24.2447 48.4848H18.1837L18.1836 54.5454Z" fill="#231F20"/>
<path d="M24.2422 54.5454H30.3032L30.3033 48.4848H24.2423L24.2422 54.5454Z" fill="#FFF200"/>
<path d="M30.3047 54.5454H36.3657L36.3658 48.4848H30.3048L30.3047 54.5454Z" fill="#FBC707"/>
<path d="M54.543 54.5454H60.604L60.6041 48.4848H54.5431L54.543 54.5454Z" fill="#E0833A"/>
<path d="M36.3633 139.393H42.4243V133.332H36.3633V139.393Z" fill="#E0833A"/>
<path d="M42.4258 139.393H48.4868V133.332H42.4258V139.393Z" fill="#E0833A"/>
<path d="M12.1211 139.393H18.1821V133.332H12.1211V139.393Z" fill="#CB7331"/>
<path d="M18.1836 133.332V139.393H24.2446V133.332H18.1836Z" fill="#E0833A"/>
<path d="M24.2422 139.393H30.3032V133.332H24.2422V139.393Z" fill="#E0833A"/>
<path d="M66.668 139.393H72.729V133.332H66.668V139.393Z" fill="#E0833A"/>
<path d="M48.4883 139.393H54.5478V133.332H48.4883V139.393Z" fill="#E0833A"/>
<path d="M60.6055 139.393H66.6665V133.332H60.6055V139.393Z" fill="#E0833A"/>
<path d="M54.543 139.393H60.604V133.332H54.543V139.393Z" fill="#E0833A"/>
<path d="M30.3047 139.393H36.3657V133.332H30.3047V139.393Z" fill="#CA6F1F"/>
<path d="M0 139.395H6.06101V133.334H0V139.395Z" fill="#231F20"/>
<path d="M6.06252 139.395H12.122V133.334H6.06252V139.395Z" fill="#954A1D"/>
<path d="M48.4884 48.4848L54.5478 48.4844L54.5479 42.4238H48.4884V48.4848Z" fill="#E0833A"/>
<path d="M30.3048 42.4238H36.3658L36.3657 36.3652H30.3047L30.3048 42.4238Z" fill="#E0833A"/>
<path d="M12.1212 42.4238H18.1822L18.1821 36.3652H12.1211L12.1212 42.4238Z" fill="#E0833A"/>
<path d="M24.2423 42.4238H30.3033L30.3032 36.3652H24.2422L24.2423 42.4238Z" fill="#231F20"/>
<path d="M18.1837 42.4238H24.2447L24.2446 36.3652H18.1836L18.1837 42.4238Z" fill="#E0833A"/>
<path d="M36.3672 42.4247H42.4282V36.3652H36.3672V42.4247Z" fill="#E0833A"/>
<path d="M6.06261 42.4241L12.122 42.4247L12.1211 36.3652H6.06252L6.06261 42.4241Z" fill="#231F20"/>
<path d="M18.1836 145.455V151.515H24.2446V145.455H18.1836Z" fill="#954A1D"/>
<path d="M12.1211 151.515H18.1821V145.455H12.1211V151.515Z" fill="#231F20"/>
<path d="M24.2422 151.515H30.3032V145.455H24.2422V151.515Z" fill="#CB7331"/>
<path d="M30.3047 151.515H36.3657V145.455H30.3047V151.515Z" fill="#E0833A"/>
<path d="M42.4258 151.515H48.4868V145.455H42.4258V151.515Z" fill="#E0833A"/>
<path d="M48.4883 151.515H54.5478V145.455H48.4883V151.515Z" fill="#E0833A"/>
<path d="M36.3633 151.515H42.4243V145.455H36.3633V151.515Z" fill="#E0833A"/>
<path d="M66.668 145.456H72.729V139.395H66.668V145.456Z" fill="#E0833A"/>
<path d="M30.3047 145.455H36.3657V139.395H30.3047V145.455Z" fill="#E0833A"/>
<path d="M48.4883 145.455H54.5478V139.395H48.4883V145.455Z" fill="#E0833A"/>
<path d="M60.6055 145.456H66.6665V139.395H60.6055V145.456Z" fill="#E0833A"/>
<path d="M36.3633 145.455H42.4243V139.395H36.3633V145.455Z" fill="#CA6F1F"/>
<path d="M42.4258 145.455H48.4868V139.395H42.4258V145.455Z" fill="#E0833A"/>
<path d="M54.543 145.456H60.604V139.395H54.543V145.456Z" fill="#CA6F1F"/>
<path d="M78.7891 145.456H84.8501V139.395H78.7891V145.456Z" fill="#B86429"/>
<path d="M78.7891 139.393H84.8501V133.332H78.7891V139.393Z" fill="#231F20"/>
<path d="M72.7266 145.456H78.7861V139.395H72.7266V145.456Z" fill="#E0833A"/>
<path d="M78.7891 133.332H84.8501V127.271H78.7891V133.332Z" fill="#231F20"/>
<path d="M24.2422 145.455H30.3032V139.395H24.2422V145.455Z" fill="#E0833A"/>
<path d="M18.1836 139.395V145.455H24.2446V139.395H18.1836Z" fill="#CB7331"/>
<path d="M12.1211 145.455H18.1821V139.395H12.1211V145.455Z" fill="#954A1D"/>
<path d="M6.06252 145.456H12.122V139.395H6.06252V145.456Z" fill="#231F20"/>
<path d="M42.4259 42.4238L48.4868 42.4247V36.3652H42.4258L42.4259 42.4238Z" fill="#231F20"/>
<path d="M72.7267 42.4238H78.7862L78.7861 36.3652H72.7266L72.7267 42.4238Z" fill="#231F20"/>
<path d="M78.7891 60.6064H84.8501V54.5469H78.7891V60.6064Z" fill="#231F20"/>
<path d="M78.7891 127.271H84.8501V121.213H78.7891V127.271Z" fill="#77341D"/>
<path d="M48.4884 42.4238H54.5479L54.5478 36.3652H48.4883L48.4884 42.4238Z" fill="#E0833A"/>
<path d="M78.7892 66.6665H84.8502L84.8501 60.6064H78.7891L78.7892 66.6665Z" fill="#FAB24A"/>
<path d="M54.5431 42.4238H60.6041L60.604 36.3652H54.543L54.5431 42.4238Z" fill="#E0833A"/>
<path d="M60.6056 42.4238H66.6666L66.6665 36.3652H60.6055L60.6056 42.4238Z" fill="#E0833A"/>
<path d="M66.6681 42.4238H72.7291L72.729 36.3652H66.668L66.6681 42.4238Z" fill="#FAB24A"/>
<path d="M78.7891 115.151H84.8501V109.09H78.7891V115.151Z" fill="#9D4E1F"/>
<path d="M78.7891 109.09H84.8501L84.8502 103.031H78.7892L78.7891 109.09Z" fill="#9D4E1F"/>
<path d="M78.7891 121.213H84.8501V115.152H78.7891V121.213Z" fill="#9D4E1F"/>
<path d="M78.7891 72.727H84.8501L84.8502 66.6665H78.7892L78.7891 72.727Z" fill="#E0833A"/>
<path d="M78.7892 103.031H84.8502L84.8501 96.9707H78.7891L78.7892 103.031Z" fill="#9D4E1F"/>
<path d="M78.7891 78.7876H84.8501V72.727H78.7891V78.7876Z" fill="#E0833A"/>
<path d="M78.7891 96.9707H84.8501V90.9102H78.7891V96.9707Z" fill="#CA6F1F"/>
<path d="M78.7892 84.8481H84.8502L84.8501 78.7876H78.7891L78.7892 84.8481Z" fill="#E0833A"/>
<path d="M78.7891 90.9087H84.8501L84.8502 84.8481H78.7892L78.7891 90.9087Z" fill="#231F20"/>
<path d="M36.3633 103.032H42.4243V96.9707H36.3633V103.032Z" fill="#CA6F1F"/>
<path d="M6.06252 72.727H12.122V66.666H6.06252V72.727Z" fill="#231F20"/>
<path d="M6.06252 115.151H12.122V109.09H6.06252V115.151Z" fill="#E0833A"/>
<path d="M12.122 72.727H18.1821V66.666H12.122V72.727Z" fill="#E0833A"/>
<path d="M18.1836 72.727H24.2446V66.666H18.1836V72.727Z" fill="#E0833A"/>
<path d="M6.06252 103.032H12.122V96.9707H6.06252V103.032Z" fill="#E0833A"/>
<path d="M6.06252 109.09H12.122V103.032H6.06252V109.09Z" fill="#E0833A"/>
<path d="M6.06252 96.9692H12.122V90.9082H6.06252V96.9692Z" fill="#231F20"/>
<path d="M24.2422 72.727H30.3032V66.666H24.2422V72.727Z" fill="#231F20"/>
<path d="M48.4883 90.9087H54.5478V84.8477H48.4883V90.9087Z" fill="#E0833A"/>
<path d="M30.3047 72.727H36.3657V66.666H30.3047V72.727Z" fill="#D91920"/>
<path d="M48.4883 96.9712H54.5478V90.9102H48.4883V96.9712Z" fill="#E0833A"/>
<path d="M48.4884 109.091H54.5479V103.031H48.4884V109.091Z" fill="#E0833A"/>
<path d="M48.4884 103.031H54.5479L54.5478 96.9712H48.4883L48.4884 103.031Z" fill="#CA6F1F"/>
<path d="M48.4883 84.8477H54.5478L54.5479 78.7871H48.4884L48.4883 84.8477Z" fill="#E0833A"/>
<path d="M36.3633 72.727H42.4243V66.666H36.3633V72.727Z" fill="#D91920"/>
<path d="M42.4258 72.727H48.4883V66.666H42.4258V72.727Z" fill="#D91920"/>
<path d="M48.4883 72.727H54.5478V66.666H48.4883V72.727Z" fill="#231F20"/>
<path d="M48.4884 78.7871H54.5479L54.5478 72.727H48.4883L48.4884 78.7871Z" fill="#231F20"/>
<path d="M54.543 103.032H60.604V96.9707H54.543V103.032Z" fill="#E0833A"/>
<path d="M54.543 90.9087H60.604V84.8477H54.543V90.9087Z" fill="#E0833A"/>
<path d="M54.543 84.8477H60.604L60.6041 78.7871H54.5431L54.543 84.8477Z" fill="#E0833A"/>
<path d="M54.543 96.9707H60.604V90.9102H54.543V96.9707Z" fill="#E0833A"/>
<path d="M54.5431 78.7871H60.6041L60.604 72.7266H54.543L54.5431 78.7871Z" fill="#E0833A"/>
<path d="M48.4883 115.151H54.5478L54.5479 109.091H48.4884L48.4883 115.151Z" fill="#E0833A"/>
<path d="M12.122 115.151H18.1821V109.09H12.122V115.151Z" fill="#E0833A"/>
<path d="M66.668 60.6064H72.729V54.5469H66.668V60.6064Z" fill="#E0833A"/>
<path d="M54.543 72.7266H60.604V66.666H54.543V72.7266Z" fill="#E0833A"/>
<path d="M48.4883 66.666H54.5478L54.5479 60.6055H48.4884L48.4883 66.666Z" fill="#E0833A"/>
<path d="M54.543 66.666H60.604L60.6041 60.6055H54.5431L54.543 66.666Z" fill="#E0833A"/>
<path d="M42.4258 66.666H48.4883L48.4884 60.6055H42.4259L42.4258 66.666Z" fill="#231F20"/>
<path d="M24.2422 121.213H30.3032V115.152H24.2422V121.213Z" fill="#E0833A"/>
<path d="M18.1836 121.213H24.2446V115.152H18.1836V121.213Z" fill="#E0833A"/>
<path d="M12.1211 121.213H18.1821V115.152H12.1211V121.213Z" fill="#E0833A"/>
<path d="M139.395 90.9087H145.454V84.8477H139.395V90.9087Z" fill="#231F20"/>
<path d="M54.543 115.151H60.604V109.09H54.543V115.151Z" fill="#E0833A"/>
<path d="M48.4883 121.213H54.5478V115.152H48.4883V121.213Z" fill="#E0833A"/>
<path d="M54.543 121.213H60.604V115.152H54.543V121.213Z" fill="#E0833A"/>
<path d="M42.4258 121.213H48.4868V115.152H42.4258V121.213Z" fill="#E0833A"/>
<path d="M36.3633 121.213H42.4243V115.152H36.3633V121.213Z" fill="#E0833A"/>
<path d="M42.4258 115.151H48.4868V109.09H42.4258V115.151Z" fill="#E0833A"/>
<path d="M18.1836 96.9712H24.2446V90.9102H18.1836V96.9712Z" fill="#E0833A"/>
<path d="M18.1836 90.9087H24.2446V84.8477H18.1836V90.9087Z" fill="#E0833A"/>
<path d="M36.3633 66.666H42.4243L42.4244 60.6055H36.3634L36.3633 66.666Z" fill="#B01419"/>
<path d="M18.1836 84.8477H24.2446L24.2447 78.7871H18.1837L18.1836 84.8477Z" fill="#E0833A"/>
<path d="M18.1836 103.032H24.2446V96.9712H18.1836V103.032Z" fill="#CA6F1F"/>
<path d="M30.3048 84.8481H36.3658V78.7871H30.3048V84.8481Z" fill="#231F20"/>
<path d="M36.3634 109.091H42.4244L42.4243 103.032H36.3633L36.3634 109.091Z" fill="#E0833A"/>
<path d="M42.4258 109.09H48.4868L48.4869 103.031H42.4259L42.4258 109.09Z" fill="#E0833A"/>
<path d="M30.3048 109.091H36.3658V103.031H30.3048V109.091Z" fill="#CA6F1F"/>
<path d="M24.2423 109.091H30.3033V103.031H24.2423V109.091Z" fill="#E0833A"/>
<path d="M24.2423 103.031H30.3033L30.3032 96.9707H24.2422L24.2423 103.031Z" fill="#E0833A"/>
<path d="M30.3047 96.9712H36.3657V90.9102H30.3047V96.9712Z" fill="#E0833A"/>
<path d="M24.2422 96.9707H30.3032V90.9102H24.2422V96.9707Z" fill="#CA6F1F"/>
<path d="M24.2422 90.9087H30.3032V84.8477H24.2422V90.9087Z" fill="#E0833A"/>
<path d="M30.3047 90.9087H36.3657L36.3658 84.8481H30.3048L30.3047 90.9087Z" fill="#E0833A"/>
<path d="M36.3634 84.8481H42.4244V78.7871H36.3634V84.8481Z" fill="#231F20"/>
<path d="M36.3633 96.9707H42.4243V90.9102H36.3633V96.9707Z" fill="#E0833A"/>
<path d="M30.3048 103.031H36.3658L36.3657 96.9712H30.3047L30.3048 103.031Z" fill="#E0833A"/>
<path d="M36.3633 90.9087H42.4243L42.4244 84.8481H36.3634L36.3633 90.9087Z" fill="#E0833A"/>
<path d="M54.543 151.515H60.604V145.456H54.543V151.515Z" fill="#E0833A"/>
<path d="M24.2422 84.8477H30.3032L30.3033 78.7871H24.2423L24.2422 84.8477Z" fill="#E0833A"/>
<path d="M12.122 103.032H18.1821V96.9707H12.122V103.032Z" fill="#E0833A"/>
<path d="M18.1837 109.091H24.2447L24.2446 103.032H18.1836L18.1837 109.091Z" fill="#E0833A"/>
<path d="M12.1212 109.091L18.1821 109.09V103.032H12.122L12.1212 109.091Z" fill="#E0833A"/>
<path d="M12.1211 96.9712L18.1821 96.9707V90.9102H12.1211V96.9712Z" fill="#E0833A"/>
<path d="M12.1211 90.9087H18.1821V84.8477H12.1211V90.9087Z" fill="#231F20"/>
<path d="M18.1836 115.151H24.2446L24.2447 109.091H18.1837L18.1836 115.151Z" fill="#E0833A"/>
<path d="M30.3047 115.151H36.3657L36.3658 109.091H30.3048L30.3047 115.151Z" fill="#E0833A"/>
<path d="M36.3633 115.151H42.4243L42.4244 109.091H36.3634L36.3633 115.151Z" fill="#E0833A"/>
<path d="M12.1211 84.8477H18.1821L18.1822 78.7871H12.1212L12.1211 84.8477Z" fill="#231F20"/>
<path d="M24.2422 115.151H30.3032L30.3033 109.091H24.2423L24.2422 115.151Z" fill="#E0833A"/>
<path d="M30.3048 78.7871H36.3658L36.3657 72.727H30.3047L30.3048 78.7871Z" fill="#D91920"/>
<path d="M42.4258 78.7876L48.4884 78.7871L48.4883 72.727H42.4258V78.7876Z" fill="#D91920"/>
<path d="M42.4258 90.9087H48.4868V84.8477H42.4258V90.9087Z" fill="#E0833A"/>
<path d="M42.4258 84.8477H48.4868L48.4869 78.7871L42.4258 78.7876V84.8477Z" fill="#231F20"/>
<path d="M42.4258 96.9712H48.4868V90.9102H42.4258V96.9712Z" fill="#E0833A"/>
<path d="M24.2423 78.7871H30.3033L30.3032 72.727H24.2422L24.2423 78.7871Z" fill="#231F20"/>
<path d="M18.1837 78.7871H24.2447L24.2446 72.727H18.1836L18.1837 78.7871Z" fill="#E0833A"/>
<path d="M12.1212 78.7871H18.1822L18.1821 72.727L12.1211 72.7266L12.1212 78.7871Z" fill="#231F20"/>
<path d="M36.3634 78.7871H42.4244L42.4243 72.727H36.3633L36.3634 78.7871Z" fill="#D91920"/>
<path d="M42.4259 103.031H48.4869L48.4868 96.9712H42.4258L42.4259 103.031Z" fill="#E0833A"/>
<path d="M54.543 109.09H60.604V103.032H54.543V109.09Z" fill="#CA6F1F"/>
<path d="M0 133.332H6.06101V127.271H0V133.332Z" fill="#231F20"/>
<path d="M6.06252 133.332H12.122V127.271H6.06252V133.332Z" fill="#CB7331"/>
<path d="M0 127.271H6.06101V121.213H0V127.271Z" fill="#231F20"/>
<path d="M6.06252 60.6064H12.122V54.5469H6.06252V60.6064Z" fill="#231F20"/>
<path d="M12.1211 133.332H18.1821V127.271H12.122L12.1211 133.332Z" fill="#E0833A"/>
<path d="M12.122 60.6064H18.1821V54.5469H12.122V60.6064Z" fill="#E0833A"/>
<path d="M18.1836 60.6064H24.2446V54.5469H18.1836V60.6064Z" fill="#231F20"/>
<path d="M18.1836 127.271V133.332H24.2446V127.271H18.1836Z" fill="#E0833A"/>
<path d="M66.668 96.9712H72.729V90.9102H66.668V96.9712Z" fill="#E0833A"/>
<path d="M66.668 90.9087H72.729V84.8477H66.668V90.9087Z" fill="#CA6F1F"/>
<path d="M66.668 103.032H72.729V96.9712H66.668V103.032Z" fill="#231F20"/>
<path d="M66.6681 109.091H72.7291L72.729 103.032H66.668L66.6681 109.091Z" fill="#231F20"/>
<path d="M24.2422 60.6064H30.3032V54.5469H24.2422V60.6064Z" fill="#FBC707"/>
<path d="M66.668 78.7876H72.729V72.7266H66.668V78.7876Z" fill="#E0833A"/>
<path d="M66.668 84.8477H72.729V78.7876H66.668V84.8477Z" fill="#E0833A"/>
<path d="M66.668 72.7266H72.729V66.666H66.668V72.7266Z" fill="#CA6F1F"/>
<path d="M66.668 66.666H72.729V60.6064H66.668V66.666Z" fill="#E0833A"/>
<path d="M66.668 121.213H72.729V115.152H66.668V121.213Z" fill="#231F20"/>
<path d="M66.668 115.151H72.729L72.7291 109.091H66.6681L66.668 115.151Z" fill="#231F20"/>
<path d="M36.3633 133.332H42.4243V127.271H36.3633V133.332Z" fill="#E0833A"/>
<path d="M30.3047 133.332H36.3657V127.271H30.3047V133.332Z" fill="#E0833A"/>
<path d="M42.4258 133.332H48.4868V127.271H42.4258V133.332Z" fill="#E0833A"/>
<path d="M66.668 127.272H72.729V121.213H66.668V127.272Z" fill="#E0833A"/>
<path d="M24.2422 133.332H30.3032V127.271H24.2422V133.332Z" fill="#E0833A"/>
<path d="M60.6055 133.332H66.6665V127.271H60.6055V133.332Z" fill="#E0833A"/>
<path d="M66.668 133.332H72.729V127.272H66.668V133.332Z" fill="#E0833A"/>
<path d="M48.4883 133.332H54.5478V127.271H48.4883V133.332Z" fill="#E0833A"/>
<path d="M54.543 133.332H60.604V127.271H54.543V133.332Z" fill="#E0833A"/>
<path d="M0 115.151H6.06101V109.09H0V115.151Z" fill="#231F20"/>
<path d="M6.06252 121.213H12.1211V115.152H6.06252V121.213Z" fill="#E0833A"/>
<path d="M30.3047 60.6064H36.3657V54.5469H30.3047V60.6064Z" fill="#FAB20B"/>
<path d="M30.3047 66.666H36.3657V60.6064H30.3047V66.666Z" fill="#231F20"/>
<path d="M0 109.09H6.06101L6.0611 103.031H9.15527e-05L0 109.09Z" fill="#231F20"/>
<path d="M9.15527e-05 103.031H6.0611L6.06101 96.9707H0L9.15527e-05 103.031Z" fill="#231F20"/>
<path d="M12.1211 127.272L18.1821 127.271V121.213H12.1211V127.272Z" fill="#E0833A"/>
<path d="M18.1836 127.271H24.2446V121.213H18.1836V127.271Z" fill="#E0833A"/>
<path d="M24.2422 127.271H30.3032V121.213H24.2422V127.271Z" fill="#E0833A"/>
<path d="M6.06252 127.271H12.122V121.213L6.06252 121.213V127.271Z" fill="#E0833A"/>
<path d="M12.122 66.666H18.1821V60.6064L12.1212 60.6055L12.122 66.666Z" fill="#E0833A"/>
<path d="M18.1836 66.666H24.2446V60.6064H18.1836V66.666Z" fill="#E0833A"/>
<path d="M24.2422 66.666H30.3032V60.6064H24.2422V66.666Z" fill="#231F20"/>
<path d="M6.06252 66.666H12.122V60.6064H6.06252V66.666Z" fill="#231F20"/>
<path d="M30.3047 127.271H36.3657V121.213H30.3047V127.271Z" fill="#E0833A"/>
<path d="M0 121.213H6.06101V115.152H0V121.213Z" fill="#231F20"/>
<path d="M60.6055 72.727H66.6665V66.666H60.6055V72.727Z" fill="#E0833A"/>
<path d="M60.6055 66.666H66.6665L66.6666 60.6055H60.6056L60.6055 66.666Z" fill="#E0833A"/>
<path d="M60.6056 84.8481H66.6666V78.7871H60.6056V84.8481Z" fill="#CA6F1F"/>
<path d="M60.6056 78.7871H66.6666L66.6665 72.727H60.6055L60.6056 78.7871Z" fill="#E0833A"/>
<path d="M60.6056 60.6055H66.6666L66.6665 54.5469H60.6055L60.6056 60.6055Z" fill="#E0833A"/>
<path d="M36.3633 127.271H42.4243V121.213H36.3633V127.271Z" fill="#E0833A"/>
<path d="M36.3634 60.6055H42.4244L42.4243 54.5469H36.3633L36.3634 60.6055Z" fill="#231F20"/>
<path d="M42.4259 60.6055H48.4884L48.4883 54.5469H42.4258L42.4259 60.6055Z" fill="#E0833A"/>
<path d="M54.5431 60.6055H60.6041L60.604 54.5469H54.543L54.5431 60.6055Z" fill="#E0833A"/>
<path d="M48.4884 60.6055H54.5479L54.5478 54.5469H48.4883L48.4884 60.6055Z" fill="#E0833A"/>
<path d="M60.6055 90.9087H66.6665L66.6666 84.8481H60.6056L60.6055 90.9087Z" fill="#E0833A"/>
<path d="M54.543 127.271H60.604V121.213H54.543V127.271Z" fill="#E0833A"/>
<path d="M48.4883 127.271H54.5478V121.213H48.4883V127.271Z" fill="#E0833A"/>
<path d="M60.6055 127.271H66.6665V121.213H60.6055V127.271Z" fill="#E0833A"/>
<path d="M60.6055 96.9712H66.6665V90.9102H60.6055V96.9712Z" fill="#E0833A"/>
<path d="M42.4258 127.271H48.4868V121.213H42.4258V127.271Z" fill="#E0833A"/>
<path d="M60.6056 109.091H66.6666V103.031H60.6056V109.091Z" fill="#E0833A"/>
<path d="M60.6055 121.213H66.6665V115.152H60.6055V121.213Z" fill="#E0833A"/>
<path d="M60.6056 103.031H66.6666L66.6665 96.9712H60.6055L60.6056 103.031Z" fill="#E0833A"/>
<path d="M60.6055 115.151H66.6665L66.6666 109.091H60.6056L60.6055 115.151Z" fill="#E0833A"/>
<path d="M48.4883 169.697H54.5478L54.5479 163.637H48.4884L48.4883 169.697Z" fill="#954A1D"/>
<path d="M36.3634 169.698H42.4244V163.637H36.3634V169.698Z" fill="#231F20"/>
<path d="M42.4259 169.698H48.4869V163.637H42.4259V169.698Z" fill="#231F20"/>
<path d="M30.3048 169.698H36.3658V163.637H30.3048V169.698Z" fill="#231F20"/>
<path d="M96.9727 66.6665H103.032V60.6055H96.9727V66.6665Z" fill="#231F20"/>
<path d="M96.9727 72.727H103.032L103.032 66.6665H96.9727L96.9727 72.727Z" fill="#E0833A"/>
<path d="M96.9727 78.7876H103.032V72.727H96.9727V78.7876Z" fill="#E0833A"/>
<path d="M96.9727 96.9712H103.032V90.9102H96.9727V96.9712Z" fill="#9D4E1F"/>
<path d="M96.9727 84.8481H103.032L103.032 78.7876H96.9727L96.9727 84.8481Z" fill="#231F20"/>
<path d="M96.9727 90.9087H103.032L103.032 84.8481H96.9727L96.9727 90.9087Z" fill="#CA6F1F"/>
<path d="M96.9727 60.6055H103.032L103.032 54.5469H96.9727L96.9727 60.6055Z" fill="#231F20"/>
<path d="M96.9727 145.456H103.032V139.395H96.9727V145.456Z" fill="#231F20"/>
<path d="M96.9727 139.393H103.032V133.332H96.9727V139.393Z" fill="#77341D"/>
<path d="M96.9727 133.332H103.032V127.271H96.9727V133.332Z" fill="#9D4E1F"/>
<path d="M96.9727 151.515H103.032V145.456H96.9727V151.515Z" fill="#B86429"/>
<path d="M60.6055 151.515H66.6665V145.456H60.6055V151.515Z" fill="#CA6F1F"/>
<path d="M96.9727 109.091H103.032V103.031H96.9727V109.091Z" fill="#9D4E1F"/>
<path d="M96.9727 115.151H103.032L103.032 109.091H96.9727L96.9727 115.151Z" fill="#9D4E1F"/>
<path d="M96.9727 127.271H103.032V121.213H96.9727V127.271Z" fill="#9D4E1F"/>
<path d="M96.9727 103.031H103.032L103.032 96.9712H96.9727L96.9727 103.031Z" fill="#9D4E1F"/>
<path d="M54.5431 24.2427H60.6041V18.1816H54.5431V24.2427Z" fill="#231F20"/>
<path d="M42.4259 24.2427H48.4869V18.1816H42.4259V24.2427Z" fill="#231F20"/>
<path d="M18.1837 24.2427H24.2447V18.1816H18.1837V24.2427Z" fill="#231F20"/>
<path d="M30.3048 24.2427H36.3658V18.1816H30.3048V24.2427Z" fill="#231F20"/>
<path d="M36.3634 24.2427H42.4244V18.1816H36.3634V24.2427Z" fill="#231F20"/>
<path d="M24.2423 24.2427H30.3033V18.1816H24.2423V24.2427Z" fill="#231F20"/>
<path d="M48.4884 24.2427H54.5479V18.1816H48.4884V24.2427Z" fill="#231F20"/>
<path d="M54.543 169.697H60.604L60.6041 163.637H54.5431L54.543 169.697Z" fill="#954A1D"/>
<path d="M24.2422 18.1806H30.3032V12.1211H24.2422V18.1806Z" fill="#231F20"/>
<path d="M30.3047 18.1806H36.3657V12.1211H30.3047V18.1806Z" fill="#B01419"/>
<path d="M36.3633 18.1806H42.4243V12.1211H36.3633V18.1806Z" fill="#B01419"/>
<path d="M42.4258 18.1806H48.4868V12.1211H42.4258V18.1806Z" fill="#B01419"/>
<path d="M96.9727 157.577H103.032V151.516H96.9727V157.577Z" fill="#E0833A"/>
<path d="M48.4883 18.1806H54.5478V12.1211H48.4883V18.1806Z" fill="#B01419"/>
<path d="M103.031 133.332H109.092V127.271H103.032L103.031 133.332Z" fill="#9D4E1F"/>
<path d="M103.031 127.272L109.092 127.271V121.213H103.032L103.031 127.272Z" fill="#9D4E1F"/>
<path d="M103.031 139.395H109.092V133.334H103.031V139.395Z" fill="#77341D"/>
<path d="M103.032 151.515H109.092V145.455H103.031L103.032 151.515Z" fill="#B86429"/>
<path d="M103.031 145.455H109.092V139.395H103.031V145.455Z" fill="#231F20"/>
<path d="M103.032 157.577H109.092V151.516H103.032V157.577Z" fill="#E0833A"/>
<path d="M103.031 96.9692H109.092V90.9082H103.031V96.9692Z" fill="#231F20"/>
<path d="M103.032 109.091L109.092 109.091V103.031L103.032 103.031V109.091Z" fill="#9D4E1F"/>
<path d="M103.031 121.213L109.092 121.213V115.152H103.031V121.213Z" fill="#9D4E1F"/>
<path d="M103.032 115.151H109.092L109.092 109.091L103.031 109.09L103.032 115.151Z" fill="#9D4E1F"/>
<path d="M103.031 103.032L109.092 103.031L109.092 96.9707H103.031V103.032Z" fill="#CA6F1F"/>
<path d="M78.7892 169.698H84.8502V163.637H78.7892V169.698Z" fill="#954A1D"/>
<path d="M66.668 169.697H72.729L72.7291 163.637H66.6681L66.668 169.697Z" fill="#954A1D"/>
<path d="M72.7266 169.697H78.7861L78.7862 163.637H72.7267L72.7266 169.697Z" fill="#954A1D"/>
<path d="M103.031 163.637H109.092V157.577L103.031 157.576V163.637Z" fill="#CB7331"/>
<path d="M60.6055 169.697H66.6665L66.6666 163.637H60.6056L60.6055 169.697Z" fill="#954A1D"/>
<path d="M54.543 18.1806H60.604V12.1211H54.543V18.1806Z" fill="#231F20"/>
<path d="M103.031 169.698L109.092 169.697V163.637H103.031L103.031 169.698Z" fill="#954A1D"/>
<path d="M96.9727 169.697H103.032L103.032 163.637H96.9727L96.9727 169.697Z" fill="#954A1D"/>
<path d="M90.9102 169.697H96.9712L96.9713 163.637H90.9102L90.9102 169.697Z" fill="#954A1D"/>
<path d="M84.8477 169.698H90.9088V163.637H84.8477V169.698Z" fill="#954A1D"/>
<path d="M103.031 90.9082H109.092V84.8477H103.031V90.9082Z" fill="#CA6F1F"/>
<path d="M103.031 78.7895H109.092V72.7285H103.031V78.7895Z" fill="#E0833A"/>
<path d="M103.032 66.6665L109.092 66.6665V60.6055L103.032 60.6055V66.6665Z" fill="#231F20"/>
<path d="M103.031 84.8477H109.092L109.092 78.7872L103.032 78.7876L103.031 84.8477Z" fill="#231F20"/>
<path d="M103.032 72.727H109.092L109.092 66.6665L103.031 66.666L103.032 72.727Z" fill="#E0833A"/>
<path d="M103.031 54.5454H109.092V48.4844H103.031V54.5454Z" fill="#231F20"/>
<path d="M103.031 60.6064L109.092 60.6055L109.092 54.5469H103.032L103.031 60.6064Z" fill="#FAB24A"/>
<path d="M96.9727 121.213H103.032L103.031 115.152H96.9727V121.213Z" fill="#9D4E1F"/>
<path d="M66.668 157.577H72.729V151.516H66.668V157.577Z" fill="#E0833A"/>
<path d="M60.6055 157.577H66.6665V151.516H60.6055V157.577Z" fill="#E0833A"/>
<path d="M54.543 157.577H60.604V151.516H54.543V157.577Z" fill="#E0833A"/>
<path d="M72.7266 157.577H78.7861V151.516H72.7266V157.577Z" fill="#E0833A"/>
<path d="M48.4883 157.577H54.5478V151.516H48.4883V157.577Z" fill="#E0833A"/>
<path d="M90.9102 151.515H96.9712V145.455H90.9102V151.515Z" fill="#B86429"/>
<path d="M42.4258 157.577H48.4868V151.516H42.4258V157.577Z" fill="#CB7331"/>
<path d="M90.9102 157.577H96.9712V151.516H90.9102V157.577Z" fill="#E0833A"/>
<path d="M84.8477 157.577H90.9087V151.516H84.8477V157.577Z" fill="#E0833A"/>
<path d="M78.7891 157.577H84.8501V151.516H78.7891V157.577Z" fill="#E0833A"/>
<path d="M18.1836 157.577H24.2446V151.516H18.1836V157.577Z" fill="#231F20"/>
<path d="M24.2422 157.577H30.3032V151.516H24.2422V157.577Z" fill="#954A1D"/>
<path d="M30.3047 157.577H36.3657V151.516H30.3047V157.577Z" fill="#CB7331"/>
<path d="M36.3633 157.577H42.4243V151.516H36.3633V157.577Z" fill="#CB7331"/>
<path d="M84.8477 84.8481H90.9088V78.7871H84.8477V84.8481Z" fill="#231F20"/>
<path d="M90.9102 145.455H96.9712V139.395H90.9102V145.455Z" fill="#231F20"/>
<path d="M84.8477 96.9712H90.9087V90.9102H84.8477V96.9712Z" fill="#9D4E1F"/>
<path d="M84.8477 103.032H90.9087V96.9712H84.8477V103.032Z" fill="#9D4E1F"/>
<path d="M84.8477 115.151H90.9087V109.09H84.8477V115.151Z" fill="#9D4E1F"/>
<path d="M84.8477 109.09H90.9087V103.032H84.8477V109.09Z" fill="#9D4E1F"/>
<path d="M84.8477 78.7871H90.9088L90.9087 72.7266H84.8477L84.8477 78.7871Z" fill="#E0833A"/>
<path d="M84.8477 66.6665H90.9088V60.6055H84.8477V66.6665Z" fill="#231F20"/>
<path d="M84.8477 72.7266H90.9087L90.9088 66.6665H84.8477L84.8477 72.7266Z" fill="#FAB24A"/>
<path d="M78.7891 151.515H84.8501V145.456H78.7891V151.515Z" fill="#E0833A"/>
<path d="M72.7266 151.515H78.7861V145.456H72.7266V151.515Z" fill="#E0833A"/>
<path d="M84.8477 151.515H90.9087V145.455H84.8477V151.515Z" fill="#B86429"/>
<path d="M66.668 151.515H72.729V145.456H66.668V151.515Z" fill="#E0833A"/>
<path d="M96.9727 163.637L103.031 163.637L103.032 157.577H96.9727L96.9727 163.637Z" fill="#CB7331"/>
<path d="M84.8477 127.272H90.9087V121.213H84.8477V127.272Z" fill="#9D4E1F"/>
<path d="M84.8477 133.332H90.9087V127.272H84.8477V133.332Z" fill="#9D4E1F"/>
<path d="M84.8477 145.455H90.9087V139.395H84.8477V145.455Z" fill="#231F20"/>
<path d="M84.8477 121.213H90.9087V115.152H84.8477V121.213Z" fill="#9D4E1F"/>
<path d="M84.8477 90.9087H90.9087L90.9088 84.8481H84.8477L84.8477 90.9087Z" fill="#CA6F1F"/>
<path d="M12.1211 36.3642H18.1821V30.3047H12.1211V36.3642Z" fill="#FAB24A"/>
<path d="M6.06252 36.3622H12.122V30.3027H6.06252V36.3622Z" fill="#231F20"/>
<path d="M18.1836 36.3642H24.2446V30.3047H18.1836V36.3642Z" fill="#E0833A"/>
<path d="M36.3672 36.3642H42.4282V30.3047H36.3672V36.3642Z" fill="#E0833A"/>
<path d="M30.3047 36.3642H36.3657V30.3047H30.3047V36.3642Z" fill="#E0833A"/>
<path d="M24.2422 36.3642H30.3032V30.3047H24.2422V36.3642Z" fill="#231F20"/>
<path d="M48.4883 36.3642H54.5478V30.3047H48.4883V36.3642Z" fill="#E0833A"/>
<path d="M42.4258 36.3642H48.4868V30.3047H42.4258V36.3642Z" fill="#231F20"/>
<path d="M66.668 36.3642H72.729V30.3047H66.668V36.3642Z" fill="#231F20"/>
<path d="M54.543 36.3642H60.604V30.3047H54.543V36.3642Z" fill="#E0833A"/>
<path d="M60.6055 36.3642H66.6665V30.3047H60.6055V36.3642Z" fill="#FAB24A"/>
<path d="M84.8477 139.393H90.9087V133.332H84.8477V139.393Z" fill="#77341D"/>
<path d="M66.6681 163.637H72.7291L72.729 157.577H66.668L66.6681 163.637Z" fill="#CB7331"/>
<path d="M54.5431 163.637H60.6041L60.604 157.577H54.543L54.5431 163.637Z" fill="#CB7331"/>
<path d="M60.6056 163.637H66.6666L66.6665 157.577H60.6055L60.6056 163.637Z" fill="#CB7331"/>
<path d="M48.4884 163.637H54.5479L54.5478 157.577H48.4883L48.4884 163.637Z" fill="#CB7331"/>
<path d="M42.4259 163.637H48.4869L48.4868 157.577H42.4258L42.4259 163.637Z" fill="#954A1D"/>
<path d="M84.8477 163.637H90.9088L90.9087 157.577H84.8477L84.8477 163.637Z" fill="#CB7331"/>
<path d="M90.9102 163.637H96.9713L96.9712 157.577H90.9102L90.9102 163.637Z" fill="#CB7331"/>
<path d="M36.3634 163.637H42.4244L42.4243 157.577H36.3633L36.3634 163.637Z" fill="#954A1D"/>
<path d="M78.7892 163.637H84.8502L84.8501 157.577H78.7891L78.7892 163.637Z" fill="#CB7331"/>
<path d="M72.7267 163.637H78.7862L78.7861 157.577H72.7266L72.7267 163.637Z" fill="#CB7331"/>
<path d="M24.2422 163.637H30.3032V157.577H24.2422V163.637Z" fill="#231F20"/>
<path d="M30.3048 163.637H36.3658L36.3657 157.577H30.3047L30.3048 163.637Z" fill="#954A1D"/>
<path d="M90.9102 72.727H96.9712V66.666H90.9102V72.727Z" fill="#FAB24A"/>
<path d="M90.9102 78.7876H96.9712V72.727H90.9102V78.7876Z" fill="#E0833A"/>
<path d="M90.9102 66.666H96.9712L96.9713 60.6055H90.9102L90.9102 66.666Z" fill="#231F20"/>
<path d="M90.9102 115.151H96.9712V109.09H90.9102V115.151Z" fill="#9D4E1F"/>
<path d="M90.9102 127.272H96.9712V121.213H90.9102V127.272Z" fill="#9D4E1F"/>
<path d="M90.9102 121.213H96.9712V115.152H90.9102V121.213Z" fill="#9D4E1F"/>
<path d="M90.9102 133.332H96.9712V127.272H90.9102V133.332Z" fill="#9D4E1F"/>
<path d="M90.9102 96.9712H96.9712V90.9102H90.9102V96.9712Z" fill="#9D4E1F"/>
<path d="M90.9102 90.9087H96.9712V84.8477H90.9102V90.9087Z" fill="#CA6F1F"/>
<path d="M90.9102 84.8477H96.9712V78.7876H90.9102V84.8477Z" fill="#231F20"/>
<path d="M90.9102 109.09H96.9712L96.9713 103.031H90.9102L90.9102 109.09Z" fill="#9D4E1F"/>
<path d="M90.9102 103.031H96.9713L96.9712 96.9712H90.9102L90.9102 103.031Z" fill="#9D4E1F"/>
<path d="M18.1836 30.3032H24.2446L24.2447 24.2427H18.1837L18.1836 30.3032Z" fill="#FAB24A"/>
<path d="M12.1211 30.3032H18.1821V24.2422H12.1211V30.3032Z" fill="#231F20"/>
<path d="M90.9102 139.393H96.9712V133.332H90.9102V139.393Z" fill="#77341D"/>
<path d="M24.2422 30.3032H30.3032L30.3033 24.2427H24.2423L24.2422 30.3032Z" fill="#FAB24A"/>
<path d="M48.4883 30.3032H54.5478L54.5479 24.2427H48.4884L48.4883 30.3032Z" fill="#FAB24A"/>
<path d="M54.543 30.3032H60.604L60.6041 24.2427H54.5431L54.543 30.3032Z" fill="#FAB24A"/>
<path d="M60.6055 30.3032H66.6665V24.2422H60.6055V30.3032Z" fill="#231F20"/>
<path d="M30.3047 30.3032H36.3657L36.3658 24.2427H30.3048L30.3047 30.3032Z" fill="#FAB24A"/>
<path d="M36.3633 30.3032H42.4243L42.4244 24.2427H36.3634L36.3633 30.3032Z" fill="#FAB24A"/>
<path d="M42.4258 30.3032H48.4868L48.4869 24.2427H42.4259L42.4258 30.3032Z" fill="#FAB24A"/>
<path d="M139.395 84.8477H145.454L145.454 78.7871H139.395L139.395 84.8477Z" fill="#231F20"/>
<path d="M151.516 84.8482H157.577V78.7872H151.516V84.8482Z" fill="#231F20"/>
<path d="M151.515 90.9087H157.577L157.577 84.8482H151.516L151.515 90.9087Z" fill="#231F20"/>
<path d="M151.515 103.032H157.577V96.9707H151.515V103.032Z" fill="#231F20"/>
<path d="M151.516 109.091H157.577L157.577 103.032H151.515L151.516 109.091Z" fill="#231F20"/>
<path d="M151.515 96.9692H157.577V90.9087H151.515V96.9692Z" fill="#231F20"/>
<path d="M151.515 121.213H157.577V115.152H151.515V121.213Z" fill="#231F20"/>
<path d="M151.515 115.151H157.577L157.577 109.091H151.516L151.515 115.151Z" fill="#231F20"/>
<path d="M145.457 115.151H151.518V109.09H145.457V115.151Z" fill="#E0833A"/>
<path d="M139.395 72.727H145.454V66.666H139.395V72.727Z" fill="#E0833A"/>
<path d="M139.395 66.666H145.454L145.454 60.6055H139.395L139.395 66.666Z" fill="#FAB24A"/>
<path d="M139.395 60.6055H145.454L145.454 54.5469H139.395L139.395 60.6055Z" fill="#231F20"/>
<path d="M139.395 78.7871H145.454L145.454 72.727H139.395L139.395 78.7871Z" fill="#E0833A"/>
<path d="M139.395 54.5454H145.454V48.4844H139.395V54.5454Z" fill="#231F20"/>
<path d="M145.457 145.456H151.518V139.395H145.457V145.456Z" fill="#231F20"/>
<path d="M145.457 139.393H151.518V133.332H145.457V139.393Z" fill="#231F20"/>
<path d="M145.457 133.332H151.518V127.271H145.457V133.332Z" fill="#231F20"/>
<path d="M145.457 121.213H151.518V115.152H145.457V121.213Z" fill="#B86429"/>
<path d="M145.457 127.271H151.518V121.213H145.457V127.271Z" fill="#231F20"/>
<path d="M145.457 109.09H151.518L151.518 103.031H145.457L145.457 109.09Z" fill="#E0833A"/>
<path d="M145.457 103.031H151.518L151.518 96.9707H145.457L145.457 103.031Z" fill="#E0833A"/>
<path d="M145.457 90.9087H151.518V84.8477H145.457V90.9087Z" fill="#E0833A"/>
<path d="M145.457 84.8477H151.518L151.518 78.7871H145.457L145.457 84.8477Z" fill="#FAB24A"/>
<path d="M145.457 96.9707H151.518V90.9102H145.457V96.9707Z" fill="#E0833A"/>
<path d="M145.457 78.7871H151.518L151.518 72.7266H145.457L145.457 78.7871Z" fill="#231F20"/>
<path d="M145.457 72.7266H151.518V66.666H145.457V72.7266Z" fill="#231F20"/>
<path d="M145.457 66.666H151.518L151.518 60.6055H145.457L145.457 66.666Z" fill="#231F20"/>
</svg>
