<svg width="134" height="200" viewBox="0 0 134 200" fill="none" xmlns="http://www.w3.org/2000/svg">
<path d="M89.4707 194.447H95.0267V188.891H89.4707V194.447Z" fill="#231F20"/>
<path d="M83.916 194.447H89.4707V188.891H83.916V194.447Z" fill="#F9A70D"/>
<path d="M95.0254 194.447H100.581V188.891H95.0254V194.447Z" fill="#E1850F"/>
<path d="M67.248 194.447H72.8026V188.891H67.248V194.447Z" fill="#231F20"/>
<path d="M78.3574 194.447H83.9134V188.891H78.3574V194.447Z" fill="#F9A70D"/>
<path d="M111.689 194.447H117.245V188.891H111.689V194.447Z" fill="#231F20"/>
<path d="M100.58 194.447H106.135V188.891H100.58V194.447Z" fill="#231F20"/>
<path d="M106.135 194.447H111.691V188.891H106.135V194.447Z" fill="#231F20"/>
<path d="M72.8026 194.447H78.3587V188.891H72.8026V194.447Z" fill="#F9A70D"/>
<path d="M117.248 194.447H122.804V188.891H117.248V194.447Z" fill="#231F20"/>
<path d="M28.3577 194.445H33.9136V188.889H28.3577V194.445Z" fill="#231F20"/>
<path d="M61.6895 194.447H67.2454V188.891H61.6895V194.447Z" fill="#231F20"/>
<path d="M33.9121 188.891V194.447H39.4681V188.891H33.9121Z" fill="#E1850F"/>
<path d="M39.4707 194.447H45.0267V188.891H39.4707V194.447Z" fill="#231F20"/>
<path d="M50.5801 194.447H56.1361V188.891H50.5801V194.447Z" fill="#F9A70D"/>
<path d="M56.1348 194.447H61.6907V188.891H56.1348V194.447Z" fill="#F9A70D"/>
<path d="M45.0254 194.445H50.58V188.889H45.0254V194.445Z" fill="#F9A70D"/>
<path d="M28.3577 27.7767H33.9136V22.2207H28.3577V27.7767Z" fill="#FBC707"/>
<path d="M45.0254 27.7767H50.58V22.2207H45.0254V27.7767Z" fill="#231F20"/>
<path d="M22.8027 27.7767H28.3577V22.2207H22.8027V27.7767Z" fill="#FBC707"/>
<path d="M39.4707 27.7767H45.0267V22.2207H39.4707V27.7767Z" fill="#FBC707"/>
<path d="M33.9121 27.7767H39.4681V22.2207H33.9121V27.7767Z" fill="#FBC707"/>
<path d="M11.6895 27.7767H17.2454V22.2207H11.6895V27.7767Z" fill="#FBC707"/>
<path d="M6.13477 27.7767H11.6907V22.2207H6.13477V27.7767Z" fill="#231F20"/>
<path d="M61.6895 27.7767H67.2454V22.2207H61.6895V27.7767Z" fill="white"/>
<path d="M78.3574 27.7767H83.9134V22.2207H78.3574V27.7767Z" fill="#231F20"/>
<path d="M50.58 27.7767H56.1361V22.2207H50.58V27.7767Z" fill="white"/>
<path d="M56.1348 27.7767H61.6907V22.2207H56.1348V27.7767Z" fill="white"/>
<path d="M72.8027 27.7767H78.3587V22.2207H72.8027V27.7767Z" fill="white"/>
<path d="M67.248 27.7767H72.8027V22.2207H67.248V27.7767Z" fill="white"/>
<path d="M17.248 27.7767H22.804V22.2207H17.248V27.7767Z" fill="#FBC707"/>
<path d="M11.6895 22.2207H17.2454V16.6641H11.6895V22.2207Z" fill="#231F20"/>
<path d="M45.0254 22.222H50.58V16.666H45.0254V22.222Z" fill="white"/>
<path d="M50.58 22.2207H56.1361V16.6641H50.5801L50.58 22.2207Z" fill="white"/>
<path d="M56.1348 22.2207H61.6907V16.6641H56.1348V22.2207Z" fill="#231F20"/>
<path d="M61.6895 22.2207H67.2454V16.6641H61.6895V22.2207Z" fill="white"/>
<path d="M22.8027 22.2207H28.3577L28.3573 16.6641H22.8027V22.2207Z" fill="#231F20"/>
<path d="M28.3577 22.222H33.9136V16.666H28.3577V22.222Z" fill="#231F20"/>
<path d="M39.4707 22.2207H45.0267V16.6641H39.4707V22.2207Z" fill="#231F20"/>
<path d="M17.248 22.2207H22.804V16.6641H17.248V22.2207Z" fill="#231F20"/>
<path d="M33.9121 22.2207H39.4681V16.6641H33.9121V22.2207Z" fill="#231F20"/>
<path d="M67.248 22.2207H72.8027L72.8026 16.6641H67.248V22.2207Z" fill="white"/>
<path d="M128.357 183.335H133.913V177.777H128.357V183.335Z" fill="#231F20"/>
<path d="M78.3574 22.2207H83.9134V16.6641H78.3574V22.2207Z" fill="#231F20"/>
<path d="M72.8027 22.2207H78.3587V16.6641H72.8026L72.8027 22.2207Z" fill="white"/>
<path d="M61.6895 33.3333H67.2454V27.7767H61.6895V33.3333Z" fill="white"/>
<path d="M72.8027 33.3333H78.3587V27.7767H72.8027V33.3333Z" fill="white"/>
<path d="M67.248 33.3333H72.8027V27.7767H67.248V33.3333Z" fill="white"/>
<path d="M78.3574 33.3333H83.9134V27.7767H78.3574V33.3333Z" fill="#231F20"/>
<path d="M11.6895 33.3333H17.2454V27.7767H11.6895V33.3333Z" fill="#F9A70D"/>
<path d="M56.1348 33.3333H61.6907V27.7767H56.1348V33.3333Z" fill="white"/>
<path d="M0.580078 33.3331H6.13467L6.13477 27.7767L0.580078 27.7771V33.3331Z" fill="#231F20"/>
<path d="M39.4707 33.3333H45.0267V27.7767H39.4707V33.3333Z" fill="#F9A70D"/>
<path d="M33.9121 33.3333H39.4681V27.7767H33.9121V33.3333Z" fill="#F9A70D"/>
<path d="M45.0255 33.3331H50.5801L50.58 27.7767H45.0254L45.0255 33.3331Z" fill="#FBC707"/>
<path d="M50.5801 33.3331L56.1361 33.3333V27.7767H50.58L50.5801 33.3331Z" fill="#231F20"/>
<path d="M17.248 33.3333H22.804V27.7767H17.248V33.3333Z" fill="#F9A70D"/>
<path d="M6.13467 33.3331L11.6907 33.3333V27.7767H6.13477L6.13467 33.3331Z" fill="#FBC707"/>
<path d="M28.3575 33.3331H33.9135L33.9136 27.7767H28.3577L28.3575 33.3331Z" fill="#F9A70D"/>
<path d="M22.8027 33.3333L28.3575 33.3331L28.3577 27.7767H22.8027V33.3333Z" fill="#F9A70D"/>
<path d="M45.0255 183.335H50.5801V177.777H45.0255V183.335Z" fill="#231F20"/>
<path d="M50.5801 183.335L56.1361 183.335V177.777L50.5801 177.777V183.335Z" fill="#F9A70D"/>
<path d="M83.916 183.335H89.4706V177.777H83.916V183.335Z" fill="#231F20"/>
<path d="M72.8027 183.335H78.3587V177.777H72.8027V183.335Z" fill="#231F20"/>
<path d="M78.3574 183.335H83.9134V177.777H78.3574V183.335Z" fill="#F9A70D"/>
<path d="M56.1348 183.335H61.6907V177.777H56.1348V183.335Z" fill="#231F20"/>
<path d="M117.248 177.777H122.804V172.223H117.248V177.777Z" fill="white"/>
<path d="M106.135 183.335H111.691V177.777H106.135V183.335Z" fill="white"/>
<path d="M100.58 183.335H106.135V177.777H100.58V183.335Z" fill="#DDD9D8"/>
<path d="M94.9746 183.335H100.531V177.777H94.9746V183.335Z" fill="#231F20"/>
<path d="M111.689 183.335H117.245V177.777H111.689V183.335Z" fill="#231F20"/>
<path d="M117.248 172.224H122.804V166.668H117.248V172.224Z" fill="#231F20"/>
<path d="M117.248 183.335H122.804V177.777H117.248V183.335Z" fill="#DDD9D8"/>
<path d="M122.803 177.777L128.357 177.777L128.357 172.223H122.803V177.777Z" fill="#231F20"/>
<path d="M122.803 183.335H128.357V177.777L122.803 177.777V183.335Z" fill="#DDD9D8"/>
<path d="M72.8026 188.891H78.3587V183.336H72.8027L72.8026 188.891Z" fill="#231F20"/>
<path d="M122.803 188.891H128.357V183.336H122.803V188.891Z" fill="#231F20"/>
<path d="M83.916 188.891H89.4707L89.4706 183.336H83.916V188.891Z" fill="#231F20"/>
<path d="M95.0254 188.891H100.581V183.336H95.0254V188.891Z" fill="#231F20"/>
<path d="M89.4707 188.891H95.0267V183.336H89.4706L89.4707 188.891Z" fill="#231F20"/>
<path d="M78.3574 188.891H83.9134V183.336H78.3574V188.891Z" fill="#F9A70D"/>
<path d="M106.135 188.891H111.691V183.336H106.135L106.135 188.891Z" fill="#DDD9D8"/>
<path d="M111.689 188.891H117.245V183.336H111.689V188.891Z" fill="#DDD9D8"/>
<path d="M117.248 188.891H122.804V183.336H117.248V188.891Z" fill="#231F20"/>
<path d="M100.58 188.891H106.135L106.135 183.336H100.58V188.891Z" fill="#231F20"/>
<path d="M39.4707 188.891H45.0267V183.336H39.4707V188.891Z" fill="#231F20"/>
<path d="M33.9121 188.891H39.4681V183.336H33.9121V188.891Z" fill="#231F20"/>
<path d="M56.1348 188.891H61.6907V183.336H56.1348V188.891Z" fill="#231F20"/>
<path d="M45.0254 188.889H50.58L50.5801 183.335H45.0255L45.0254 188.889Z" fill="#231F20"/>
<path d="M50.5801 188.891H56.1361V183.336H50.5801V188.891Z" fill="#F9A70D"/>
<path d="M56.1348 11.1107H61.6907V5.55469H56.1348V11.1107Z" fill="white"/>
<path d="M61.6895 11.1107H67.2454V5.55469H61.6895V11.1107Z" fill="white"/>
<path d="M50.5801 11.1107H56.1361V5.55469H50.5801V11.1107Z" fill="white"/>
<path d="M72.8027 11.1107H78.3587V5.55469H72.8027V11.1107Z" fill="white"/>
<path d="M67.248 11.1107H72.8027V5.55469H67.248V11.1107Z" fill="white"/>
<path d="M45.0255 11.1106L50.5801 11.1107V5.55469L45.0255 5.55457V11.1106Z" fill="white"/>
<path d="M33.9121 11.1107H39.4681V5.55469H33.9121V11.1107Z" fill="white"/>
<path d="M78.3574 11.1107H83.9134V5.55469H78.3574V11.1107Z" fill="#231F20"/>
<path d="M28.3575 11.1106H33.9135V5.55457H28.3575V11.1106Z" fill="#231F20"/>
<path d="M39.4707 11.1107H45.0267V5.55469H39.4707V11.1107Z" fill="white"/>
<path d="M95.0254 200H100.581V194.445H95.0254V200Z" fill="#231F20"/>
<path d="M100.58 200H106.135V194.445H100.58V200Z" fill="#231F20"/>
<path d="M72.8027 200H78.3587V194.445H72.8027V200Z" fill="#231F20"/>
<path d="M78.3574 200H83.9134V194.445H78.3574V200Z" fill="#231F20"/>
<path d="M83.916 200H89.4706V194.445H83.916V200Z" fill="#231F20"/>
<path d="M89.4706 200H95.0267V194.445H89.4706V200Z" fill="#231F20"/>
<path d="M39.4707 200H45.0267V194.445H39.4707V200Z" fill="#231F20"/>
<path d="M28.3575 200H33.9135L33.9136 194.445H28.3577L28.3575 200Z" fill="#231F20"/>
<path d="M33.9121 194.445V200H39.4681V194.445H33.9121Z" fill="#231F20"/>
<path d="M61.6895 200H67.2454V194.445H61.6895V200Z" fill="#231F20"/>
<path d="M45.0255 200H50.5801L50.58 194.445H45.0254L45.0255 200Z" fill="#231F20"/>
<path d="M56.1348 200H61.6907V194.445H56.1348V200Z" fill="#231F20"/>
<path d="M67.248 200H72.8027V194.445H67.248V200Z" fill="#231F20"/>
<path d="M50.5801 200L56.1361 200V194.445L50.58 194.445L50.5801 200Z" fill="#231F20"/>
<path d="M78.3574 16.6641H83.9134V11.1094H78.3574V16.6641Z" fill="#231F20"/>
<path d="M22.8027 16.6641H28.3573V11.1094H22.8027V16.6641Z" fill="#231F20"/>
<path d="M61.6895 16.6641H67.2454V11.1094H61.6895V16.6641Z" fill="white"/>
<path d="M67.248 16.6641H72.8026V11.1094H67.248V16.6641Z" fill="white"/>
<path d="M28.3577 16.666H33.9136L33.9135 11.1106H28.3575L28.3577 16.666Z" fill="white"/>
<path d="M72.8026 16.6641H78.3587V11.1094H72.8026V16.6641Z" fill="white"/>
<path d="M56.1348 16.6641H61.6907V11.1094H56.1348V16.6641Z" fill="#231F20"/>
<path d="M33.9121 16.6641H39.4681V11.1094H33.9121V16.6641Z" fill="white"/>
<path d="M50.5801 16.6641H56.1361V11.1094H50.5801V16.6641Z" fill="white"/>
<path d="M39.4707 16.6641H45.0267V11.1094H39.4707V16.6641Z" fill="#231F20"/>
<path d="M45.0254 16.666H50.58L50.5801 11.1107L45.0255 11.1106L45.0254 16.666Z" fill="white"/>
<path d="M45.0254 133.332H50.58V127.777H45.0254V133.332Z" fill="#914629"/>
<path d="M83.916 83.3333H89.4706V77.7773H83.916V83.3333Z" fill="#743228"/>
<path d="M83.916 66.6654H89.4706V61.1094H83.916V66.6654Z" fill="#DDD9D8"/>
<path d="M72.8027 66.6654H78.3587V61.1094H72.8027V66.6654Z" fill="white"/>
<path d="M83.916 72.222H89.4706V66.6654H83.916V72.222Z" fill="#DDD9D8"/>
<path d="M83.916 77.7773H89.4706V72.222H83.916V77.7773Z" fill="#231F20"/>
<path d="M78.3574 66.6654H83.9134V61.1094H78.3574V66.6654Z" fill="white"/>
<path d="M50.5801 66.6654H56.1361V61.1094H50.5801V66.6654Z" fill="white"/>
<path d="M67.248 66.6654H72.8027V61.1094H67.248V66.6654Z" fill="white"/>
<path d="M56.1387 66.6654H61.6946V61.1094H56.1387V66.6654Z" fill="white"/>
<path d="M78.3574 72.222H83.9134V66.6654H78.3574V72.222Z" fill="white"/>
<path d="M83.916 99.9999H89.4706V94.4453H83.916V99.9999Z" fill="#914629"/>
<path d="M83.916 127.777H89.4706V122.223H83.916V127.777Z" fill="#914629"/>
<path d="M83.916 122.223H89.4706V116.666H83.916V122.223Z" fill="#914629"/>
<path d="M83.916 88.888H89.4706V83.332H83.916V88.888Z" fill="#231F20"/>
<path d="M83.916 133.332H89.4706V127.777H83.916V133.332Z" fill="#743228"/>
<path d="M83.916 116.666H89.4706V111.111H83.916V116.666Z" fill="#914629"/>
<path d="M83.916 138.89H89.4706V133.334H83.916V138.89Z" fill="#231F20"/>
<path d="M45.0254 66.6654H50.5801V61.1094H45.0254V66.6654Z" fill="white"/>
<path d="M83.916 111.111H89.4706V105.555H83.916V111.111Z" fill="#914629"/>
<path d="M83.916 94.4453H89.4706V88.888H83.916V94.4453Z" fill="#AB5B27"/>
<path d="M83.916 105.556H89.4706V99.9999H83.916V105.556Z" fill="#914629"/>
<path d="M0.580078 99.9999H6.13467V94.4453H0.580078V99.9999Z" fill="#231F20"/>
<path d="M0.580078 105.556H6.13467V99.9999H0.580078V105.556Z" fill="#231F20"/>
<path d="M0.580078 111.111H6.13467V105.555H0.580078V111.111Z" fill="#231F20"/>
<path d="M0.580078 94.4453H6.13467V88.8887H0.580078L0.580078 94.4453Z" fill="#231F20"/>
<path d="M0.580078 116.666H6.13467V111.111H0.580078L0.580078 116.666Z" fill="#231F20"/>
<path d="M0.580078 127.777H6.13467V122.223H0.580078V127.777Z" fill="#231F20"/>
<path d="M0.580078 133.333H6.13467V127.777H0.580078V133.333Z" fill="#231F20"/>
<path d="M0.580078 122.223H6.13467V116.666H0.580078L0.580078 122.223Z" fill="#231F20"/>
<path d="M83.916 144.445H89.4706V138.89H83.916V144.445Z" fill="#231F20"/>
<path d="M28.3577 66.6654H33.9136V61.1094H28.3577V66.6654Z" fill="white"/>
<path d="M39.4707 66.6654H45.0267V61.1094H39.4707V66.6654Z" fill="white"/>
<path d="M22.8027 66.6654H28.3577V61.1094H22.8027V66.6654Z" fill="#231F20"/>
<path d="M33.9121 66.6654H39.4681V61.1094H33.9121V66.6654Z" fill="white"/>
<path d="M6.13477 144.445H11.6907V138.891H6.13477V144.445Z" fill="#231F20"/>
<path d="M17.248 72.222H22.804V66.666H17.248V72.222Z" fill="#231F20"/>
<path d="M6.13467 105.556H11.6907V100L6.13467 99.9999V105.556Z" fill="#914629"/>
<path d="M22.8027 72.222H28.3573L28.3577 66.6654H22.8027V72.222Z" fill="white"/>
<path d="M6.13467 111.111H11.6907V105.555H6.13467V111.111Z" fill="#914629"/>
<path d="M6.13467 94.4453L11.6907 94.4446V88.8887L6.13467 88.8887V94.4453Z" fill="#AB5B27"/>
<path d="M6.13467 88.8887L11.6907 88.8887V83.332H6.13477L6.13467 88.8887Z" fill="#231F20"/>
<path d="M6.13467 99.9999L11.6907 100V94.4446L6.13467 94.4453V99.9999Z" fill="#914629"/>
<path d="M56.1387 72.222H61.6946V66.6654H56.1387V72.222Z" fill="white"/>
<path d="M83.916 150.001H89.4706V144.445H83.916V150.001Z" fill="#743228"/>
<path d="M28.3573 72.222L33.9135 72.2222L33.9136 66.6654H28.3577L28.3573 72.222Z" fill="#DDD9D8"/>
<path d="M72.8027 72.222H78.3587V66.6654H72.8027V72.222Z" fill="#DDD9D8"/>
<path d="M61.6895 72.222H67.2454V66.666H61.6895V72.222Z" fill="#DDD9D8"/>
<path d="M50.5801 72.222H56.1361V66.6654H50.5801V72.222Z" fill="#DDD9D8"/>
<path d="M33.9121 72.222H39.4681V66.6654H33.9121V72.222Z" fill="white"/>
<path d="M39.4707 72.222H45.0267V66.6654H39.4707V72.222Z" fill="#DDD9D8"/>
<path d="M45.0255 72.2222L50.5801 72.222V66.6654H45.0254L45.0255 72.2222Z" fill="white"/>
<path d="M67.248 72.222H72.8027V66.6654H67.248V72.222Z" fill="white"/>
<path d="M50.5801 150.001H56.1361V144.445H50.5801V150.001Z" fill="#914629"/>
<path d="M56.1348 150.001H61.6907V144.445H56.1348V150.001Z" fill="#914629"/>
<path d="M28.3577 150H33.9136V144.445H28.3577V150Z" fill="#231F20"/>
<path d="M33.9121 144.445V150.001H39.4681V144.445H33.9121Z" fill="#743228"/>
<path d="M39.4707 150.001H45.0267V144.445H39.4707V150.001Z" fill="#743228"/>
<path d="M6.13467 116.666L11.6907 116.666V111.111H6.13467V116.666Z" fill="#914629"/>
<path d="M78.3574 150.001H83.9134V144.445H78.3574V150.001Z" fill="#743228"/>
<path d="M61.6895 150.001H67.2454V144.445H61.6895V150.001Z" fill="#914629"/>
<path d="M72.8027 150.001H78.3587V144.445H72.8027V150.001Z" fill="#914629"/>
<path d="M67.248 150.001H72.8027V144.445H67.248V150.001Z" fill="#914629"/>
<path d="M45.0254 150.001H50.5801V144.445H45.0254V150.001Z" fill="#914629"/>
<path d="M6.13467 127.777H11.6907V122.223H6.13467V127.777Z" fill="#914629"/>
<path d="M6.13467 133.333H11.6907V127.777H6.13467V133.333Z" fill="#914629"/>
<path d="M6.13467 122.223H11.6907V116.666L6.13467 116.666V122.223Z" fill="#914629"/>
<path d="M6.13477 138.891H11.6907V133.333H6.13467L6.13477 138.891Z" fill="#231F20"/>
<path d="M11.6895 150H17.2454V144.445H11.6895V150Z" fill="#231F20"/>
<path d="M17.248 150H22.804V144.445H17.248V150Z" fill="#DDD9D8"/>
<path d="M22.8027 150H28.3577V144.445H22.8027V150Z" fill="#C8C4C3"/>
<path d="M11.6895 144.445H17.2454V138.891H11.6895V144.445Z" fill="#4C1B1E"/>
<path d="M61.6895 66.666H67.2454V61.1094H61.6895V66.666Z" fill="white"/>
<path d="M45.0254 61.1094H50.5801L50.58 55.5547H45.0254V61.1094Z" fill="white"/>
<path d="M28.3577 61.1094H33.9136V55.5547H28.3577V61.1094Z" fill="#DDD9D8"/>
<path d="M39.4707 61.1094H45.0267V55.5547H39.4707V61.1094Z" fill="#DDD9D8"/>
<path d="M33.9121 61.1094H39.4681V55.5547H33.9121V61.1094Z" fill="#DDD9D8"/>
<path d="M50.5801 61.1094H56.1361V55.5547H50.58L50.5801 61.1094Z" fill="white"/>
<path d="M22.8027 61.1094H28.3577V55.5547H22.8027V61.1094Z" fill="#231F20"/>
<path d="M0.580078 61.1093H6.13467V55.5547H0.580078V61.1093Z" fill="#231F20"/>
<path d="M6.13467 61.1093H11.6907V55.5547H6.13467V61.1093Z" fill="#231F20"/>
<path d="M33.9121 155.556V161.112H39.4681V155.555L33.9121 155.556Z" fill="#231F20"/>
<path d="M28.3577 161.113H33.9136V155.557H28.3577V161.113Z" fill="#231F20"/>
<path d="M22.8027 161.113H28.3577V155.557H22.8027V161.113Z" fill="#231F20"/>
<path d="M39.4707 161.112H45.0267V155.555H39.4707V161.112Z" fill="#743228"/>
<path d="M45.0254 161.112H50.58V155.555H45.0254V161.112Z" fill="#743228"/>
<path d="M56.1348 161.112H61.6907V155.555H56.1348V161.112Z" fill="#743228"/>
<path d="M61.6895 161.112H67.2454V155.555H61.6895V161.112Z" fill="#743228"/>
<path d="M50.58 161.112H56.1361V155.555H50.58V161.112Z" fill="#743228"/>
<path d="M78.3574 155.555H83.9134V150H78.3574V155.555Z" fill="#743228"/>
<path d="M45.0254 155.555H50.58V150H45.0254V155.555Z" fill="#743228"/>
<path d="M61.6895 155.555H67.2454V150H61.6895V155.555Z" fill="#743228"/>
<path d="M72.8027 155.555H78.3587V150H72.8027V155.555Z" fill="#743228"/>
<path d="M50.58 155.555H56.1361V150H50.58V155.555Z" fill="#743228"/>
<path d="M56.1348 155.555H61.6907V150H56.1348V155.555Z" fill="#743228"/>
<path d="M67.248 155.555H72.8027V150H67.248V155.555Z" fill="#743228"/>
<path d="M89.4707 155.555H95.0267V150H89.4707V155.555Z" fill="#743228"/>
<path d="M89.4706 150.001H95.0267V144.445L89.4706 144.445V150.001Z" fill="#231F20"/>
<path d="M83.916 155.555H89.4707V150H83.916V155.555Z" fill="#743228"/>
<path d="M89.4706 144.445L95.0267 144.445V138.891L89.4706 138.89V144.445Z" fill="#743228"/>
<path d="M39.4707 155.555H45.0267V150H39.4707V155.555Z" fill="#743228"/>
<path d="M17.248 155.556H22.804V150H17.248V155.556Z" fill="#231F20"/>
<path d="M33.9121 150V155.556L39.4681 155.555V150H33.9121Z" fill="#4C1B1E"/>
<path d="M28.3577 155.557H33.9136V150H28.3577V155.557Z" fill="#231F20"/>
<path d="M22.8027 155.557H28.3577V150H22.8027V155.557Z" fill="#DDD9D8"/>
<path d="M56.1348 61.1093H61.6907V55.5547H56.1348V61.1093Z" fill="white"/>
<path d="M89.4706 66.6654H95.0267V61.1094H89.4706V66.6654Z" fill="#231F20"/>
<path d="M83.916 61.1094H89.4706V55.5547H83.916V61.1094Z" fill="#231F20"/>
<path d="M89.4706 77.7773L95.0267 77.7773V72.2227L89.4706 72.222V77.7773Z" fill="#743228"/>
<path d="M89.4706 138.89L95.0267 138.891V133.334H89.4706V138.89Z" fill="#743228"/>
<path d="M61.6895 61.1094H67.2454V55.5547H61.6895V61.1094Z" fill="white"/>
<path d="M89.4706 83.3333H95.0267V77.7773L89.4706 77.7773V83.3333Z" fill="#231F20"/>
<path d="M67.248 61.1094H72.8027L72.8026 55.5547H67.248V61.1094Z" fill="white"/>
<path d="M72.8027 61.1094H78.3587V55.5547H72.8026L72.8027 61.1094Z" fill="white"/>
<path d="M78.3574 61.1094H83.9134V55.5547H78.3574V61.1094Z" fill="white"/>
<path d="M89.4706 72.222L95.0267 72.2227V66.6654H89.4706V72.222Z" fill="#231F20"/>
<path d="M89.4706 127.777H95.0267V122.223H89.4706V127.777Z" fill="#914629"/>
<path d="M89.4706 122.223H95.0267V116.666H89.4706V122.223Z" fill="#AB5B27"/>
<path d="M89.4706 133.332H95.0267V127.777H89.4706V133.332Z" fill="#914629"/>
<path d="M89.4706 88.888H95.0267V83.332H89.4706V88.888Z" fill="#AB5B27"/>
<path d="M89.4706 116.666H95.0267V111.111H89.4706V116.666Z" fill="#914629"/>
<path d="M89.4706 94.4453L95.0267 94.4446V88.888H89.4706V94.4453Z" fill="#914629"/>
<path d="M89.4706 111.111H95.0267V105.555H89.4706V111.111Z" fill="#914629"/>
<path d="M89.4706 99.9999H95.0267V94.4446L89.4706 94.4453V99.9999Z" fill="#914629"/>
<path d="M89.4706 105.556H95.0267V99.9999H89.4706V105.556Z" fill="#914629"/>
<path d="M50.5801 116.666H56.1361V111.111H50.5801V116.666Z" fill="#914629"/>
<path d="M22.8027 88.888H28.3573V83.332H22.8027V88.888Z" fill="#914629"/>
<path d="M22.8027 94.4446H28.3573V88.888H22.8027V94.4446Z" fill="#914629"/>
<path d="M22.8027 127.777H28.3573V122.223H22.8027V127.777Z" fill="#914629"/>
<path d="M28.3573 88.888H33.9136V83.332H28.3573V88.888Z" fill="#914629"/>
<path d="M33.9121 88.888H39.4681V83.332H33.9121V88.888Z" fill="#914629"/>
<path d="M22.8027 99.9999H28.3573V94.4446H22.8027V99.9999Z" fill="#AB5B27"/>
<path d="M22.8027 105.556H28.3573V99.9999H22.8027V105.556Z" fill="#914629"/>
<path d="M22.8027 116.666H28.3573V111.111H22.8027V116.666Z" fill="#914629"/>
<path d="M22.8027 122.223H28.3573V116.666H22.8027V122.223Z" fill="#914629"/>
<path d="M22.8027 111.111H28.3573V105.555H22.8027V111.111Z" fill="#914629"/>
<path d="M39.4707 88.888H45.0267V83.332H39.4707V88.888Z" fill="#914629"/>
<path d="M61.6895 105.556H67.2454V100H61.6895V105.556Z" fill="#914629"/>
<path d="M45.0254 88.888H50.58V83.332H45.0254V88.888Z" fill="#914629"/>
<path d="M61.6895 111.111H67.2454V105.555H61.6895V111.111Z" fill="#914629"/>
<path d="M61.6895 122.223H67.2454V116.666H61.6895V122.223Z" fill="#914629"/>
<path d="M61.6895 116.666H67.2454V111.111H61.6895V116.666Z" fill="#914629"/>
<path d="M61.6895 100H67.2454V94.4453H61.6895V100Z" fill="#AB5B27"/>
<path d="M50.58 88.888H56.1361V83.332H50.58V88.888Z" fill="#914629"/>
<path d="M56.1387 88.888H61.6946V83.332H56.1387V88.888Z" fill="#914629"/>
<path d="M61.6895 88.888H67.2454V83.332H61.6895V88.888Z" fill="#914629"/>
<path d="M61.6895 94.4453H67.2454V88.888H61.6895V94.4453Z" fill="#914629"/>
<path d="M67.248 116.666H72.8026V111.111H67.248V116.666Z" fill="#914629"/>
<path d="M67.248 105.556H72.8026V100H67.248V105.556Z" fill="#AB5B27"/>
<path d="M67.248 100H72.8026V94.4453H67.248V100Z" fill="#914629"/>
<path d="M67.248 111.111H72.8026V105.555H67.248V111.111Z" fill="#914629"/>
<path d="M67.248 94.4453H72.8026V88.8887H67.248V94.4453Z" fill="#914629"/>
<path d="M61.6895 127.777H67.2454V122.223H61.6895V127.777Z" fill="#914629"/>
<path d="M28.3573 127.777H33.9136V122.223H28.3573V127.777Z" fill="#914629"/>
<path d="M78.3574 77.7773H83.9134V72.222H78.3574V77.7773Z" fill="#DDD9D8"/>
<path d="M67.248 88.8887H72.8026V83.332H67.248V88.8887Z" fill="#914629"/>
<path d="M61.6895 83.3333H67.2454V77.7773H61.6895V83.3333Z" fill="#743228"/>
<path d="M67.248 83.3333H72.8026V77.7773H67.248V83.3333Z" fill="#231F20"/>
<path d="M56.1387 83.3333H61.6946V77.7773H56.1387V83.3333Z" fill="#231F20"/>
<path d="M39.4707 133.332H45.0267V127.777H39.4707V133.332Z" fill="#AB5B27"/>
<path d="M33.9121 127.777V133.333L39.4681 133.332V127.777H33.9121Z" fill="#914629"/>
<path d="M28.3577 133.333H33.9136V127.777H28.3573L28.3577 133.333Z" fill="#914629"/>
<path d="M67.248 127.777H72.8026V122.223H67.248V127.777Z" fill="#914629"/>
<path d="M61.6895 133.332H67.2454V127.777H61.6895V133.332Z" fill="#AB5B27"/>
<path d="M67.248 133.332H72.8026V127.777H67.248V133.332Z" fill="#914629"/>
<path d="M56.1348 133.332H61.6907V127.777H56.1348V133.332Z" fill="#914629"/>
<path d="M50.58 133.332H56.1361V127.777H50.58V133.332Z" fill="#914629"/>
<path d="M56.1348 127.777H61.6907V122.223H56.1348V127.777Z" fill="#AB5B27"/>
<path d="M33.9121 111.111H39.4681V105.555H33.9121V111.111Z" fill="#AB5B27"/>
<path d="M33.9121 105.556H39.4681V100H33.9121V105.556Z" fill="#914629"/>
<path d="M50.5801 83.3333H56.1361V77.7773H50.5801V83.3333Z" fill="#743228"/>
<path d="M33.9121 100H39.4681V94.4453H33.9121V100Z" fill="#914629"/>
<path d="M33.9121 116.666H39.4681V111.111H33.9121V116.666Z" fill="#914629"/>
<path d="M45.0254 99.9999H50.58V94.4453H45.0254V99.9999Z" fill="#AB5B27"/>
<path d="M50.5801 122.223H56.1361V116.666H50.5801V122.223Z" fill="#AB5B27"/>
<path d="M56.1348 122.223H61.6907V116.666H56.1348V122.223Z" fill="#914629"/>
<path d="M45.0255 122.223L50.5801 122.223V116.666L45.0255 116.666V122.223Z" fill="#914629"/>
<path d="M39.4707 122.223H45.0267V116.666H39.4707V122.223Z" fill="#914629"/>
<path d="M39.4707 116.666H45.0267V111.111H39.4707V116.666Z" fill="#914629"/>
<path d="M45.0254 111.111L50.5801 111.111L50.58 105.555H45.0254V111.111Z" fill="#914629"/>
<path d="M39.4707 111.111H45.0267V105.555H39.4707V111.111Z" fill="#914629"/>
<path d="M39.4707 105.556H45.0267V100H39.4707V105.556Z" fill="#914629"/>
<path d="M45.0254 105.556H50.58V99.9999H45.0254V105.556Z" fill="#914629"/>
<path d="M50.58 99.9999H56.1361V94.4453H50.58V99.9999Z" fill="#914629"/>
<path d="M50.5801 111.111H56.1361V105.555H50.58L50.5801 111.111Z" fill="#914629"/>
<path d="M45.0255 116.666L50.5801 116.666V111.111L45.0254 111.111L45.0255 116.666Z" fill="#914629"/>
<path d="M50.58 105.556H56.1361V99.9999H50.58V105.556Z" fill="#AB5B27"/>
<path d="M67.248 161.112H72.8026L72.8027 155.555H67.248V161.112Z" fill="#743228"/>
<path d="M39.4707 100H45.0267V94.4453H39.4707V100Z" fill="#914629"/>
<path d="M28.3573 116.666L33.9135 116.666V111.111L28.3573 111.111V116.666Z" fill="#914629"/>
<path d="M33.9121 122.223H39.4681V116.666H33.9121V122.223Z" fill="#914629"/>
<path d="M28.3573 122.223H33.9136L33.9135 116.666L28.3573 116.666V122.223Z" fill="#AB5B27"/>
<path d="M28.3573 111.111L33.9135 111.111L33.9136 105.555H28.3573V111.111Z" fill="#914629"/>
<path d="M28.3573 105.556H33.9136V100L28.3573 99.9999V105.556Z" fill="#AB5B27"/>
<path d="M33.9121 127.777H39.4681V122.223H33.9121V127.777Z" fill="#AB5B27"/>
<path d="M45.0254 127.777H50.58L50.5801 122.223L45.0255 122.223L45.0254 127.777Z" fill="#914629"/>
<path d="M50.58 127.777H56.1361V122.223H50.5801L50.58 127.777Z" fill="#914629"/>
<path d="M28.3573 99.9999L33.9136 100V94.4453L28.3573 94.4446V99.9999Z" fill="#914629"/>
<path d="M39.4707 127.777H45.0267V122.223H39.4707V127.777Z" fill="#914629"/>
<path d="M45.0254 94.4453H50.58V88.888H45.0254V94.4453Z" fill="#914629"/>
<path d="M56.1387 94.4446H61.6946V88.888H56.1387V94.4446Z" fill="#914629"/>
<path d="M56.1348 105.556H61.6907V100H56.1348V105.556Z" fill="#914629"/>
<path d="M56.1348 100H61.6907V94.4453H56.1348V100Z" fill="#914629"/>
<path d="M56.1348 111.111H61.6907V105.555H56.1348V111.111Z" fill="#AB5B27"/>
<path d="M39.4707 94.4453H45.0267V88.888H39.4707V94.4453Z" fill="#914629"/>
<path d="M33.9121 94.4453H39.4681V88.888H33.9121V94.4453Z" fill="#914629"/>
<path d="M28.3573 94.4446L33.9136 94.4453V88.888H28.3573V94.4446Z" fill="#914629"/>
<path d="M50.58 94.4453H56.1361V88.888H50.58V94.4453Z" fill="#914629"/>
<path d="M56.1348 116.666H61.6907V111.111H56.1348V116.666Z" fill="#914629"/>
<path d="M67.248 122.223H72.8026V116.666H67.248V122.223Z" fill="#914629"/>
<path d="M11.6895 127.777H17.2454V122.223H11.6895V127.777Z" fill="#231F20"/>
<path d="M11.6895 122.223H17.2454V116.666H11.6895V122.223Z" fill="#231F20"/>
<path d="M11.6895 133.333H17.2454V127.777H11.6895V133.333Z" fill="#231F20"/>
<path d="M11.6895 116.666H17.2454V111.111H11.6895V116.666Z" fill="#231F20"/>
<path d="M11.6895 111.111H17.2454V105.555H11.6895V111.111Z" fill="#231F20"/>
<path d="M17.248 144.445H22.804V138.891H17.248V144.445Z" fill="#231F20"/>
<path d="M11.6895 138.891H17.2454V133.333H11.6895V138.891Z" fill="#743228"/>
<path d="M11.6895 105.556H17.2454V100H11.6895V105.556Z" fill="#231F20"/>
<path d="M22.8027 144.445H28.3577L28.3573 138.891H22.8027V144.445Z" fill="#231F20"/>
<path d="M17.248 138.891H22.804V133.334H17.248V138.891Z" fill="#231F20"/>
<path d="M22.8027 77.7773H28.3573V72.222H22.8027V77.7773Z" fill="#DDD9D8"/>
<path d="M28.3577 144.445H33.9136V138.891H28.3573L28.3577 144.445Z" fill="#4C1B1E"/>
<path d="M28.3573 77.7773H33.9136L33.9135 72.2222L28.3573 72.222V77.7773Z" fill="#231F20"/>
<path d="M33.9121 77.7773H39.4681V72.222H33.9121V77.7773Z" fill="#DDD9D8"/>
<path d="M17.248 77.7773H22.804V72.222H17.248V77.7773Z" fill="#231F20"/>
<path d="M11.6895 88.888H17.2454V83.332H11.6895V88.888Z" fill="#231F20"/>
<path d="M11.6895 94.4446H17.2454V88.888H11.6895V94.4446Z" fill="#231F20"/>
<path d="M11.6895 100H17.2454V94.4446H11.6895V100Z" fill="#231F20"/>
<path d="M33.9121 138.891V144.445H39.4681V138.891H33.9121Z" fill="#743228"/>
<path d="M78.3574 111.111H83.9134V105.555H78.3574V111.111Z" fill="#231F20"/>
<path d="M78.3574 105.556H83.9134V100H78.3574V105.556Z" fill="#231F20"/>
<path d="M78.3574 116.666H83.9134V111.111H78.3574V116.666Z" fill="#231F20"/>
<path d="M78.3574 122.223H83.9134V116.666H78.3574V122.223Z" fill="#231F20"/>
<path d="M39.4707 77.7773H45.0267V72.222H39.4707V77.7773Z" fill="#231F20"/>
<path d="M78.3574 94.4446H83.9134V88.8887H78.3574V94.4446Z" fill="#231F20"/>
<path d="M78.3574 100H83.9134V94.4446H78.3574V100Z" fill="#231F20"/>
<path d="M78.3574 88.8887H83.9134V83.332H78.3574V88.8887Z" fill="#914629"/>
<path d="M78.3574 83.3333H83.9134V77.7773H78.3574V83.3333Z" fill="#231F20"/>
<path d="M78.3574 133.332H83.9134V127.777H78.3574V133.332Z" fill="#231F20"/>
<path d="M78.3574 127.777H83.9134V122.223H78.3574V127.777Z" fill="#231F20"/>
<path d="M50.5801 144.445H56.1361V138.891H50.5801V144.445Z" fill="#914629"/>
<path d="M45.0254 144.445H50.5801V138.891H45.0254V144.445Z" fill="#914629"/>
<path d="M56.1348 144.445H61.6907V138.891H56.1348V144.445Z" fill="#914629"/>
<path d="M78.3574 138.89H83.9134V133.334H78.3574V138.89Z" fill="#743228"/>
<path d="M39.4707 144.445H45.0267V138.891H39.4707V144.445Z" fill="#914629"/>
<path d="M72.8027 144.445H78.3587V138.891H72.8027V144.445Z" fill="#914629"/>
<path d="M78.3574 144.445H83.9134V138.89H78.3574V144.445Z" fill="#914629"/>
<path d="M61.6895 144.445H67.2454V138.891H61.6895V144.445Z" fill="#914629"/>
<path d="M67.248 144.445H72.8027V138.891H67.248V144.445Z" fill="#914629"/>
<path d="M17.248 127.777H22.804V122.223H17.248V127.777Z" fill="#743228"/>
<path d="M22.8027 133.333H28.3577L28.3573 127.777H22.8027V133.333Z" fill="#743228"/>
<path d="M45.0254 77.7773L50.5801 77.7773V72.222L45.0255 72.2222L45.0254 77.7773Z" fill="#DDD9D8"/>
<path d="M45.0254 83.3333H50.5801V77.7773L45.0254 77.7773V83.3333Z" fill="#231F20"/>
<path d="M17.248 122.223H22.804V116.666H17.248V122.223Z" fill="#914629"/>
<path d="M17.248 116.666H22.804V111.111H17.248V116.666Z" fill="#914629"/>
<path d="M28.3573 138.891H33.9136V133.333H28.3577L28.3573 138.891Z" fill="#743228"/>
<path d="M33.9121 133.333V138.889H39.4681V133.332L33.9121 133.333Z" fill="#914629"/>
<path d="M39.4707 138.891H45.0267V133.334H39.4707V138.891Z" fill="#914629"/>
<path d="M22.8027 138.891H28.3573L28.3577 133.333H22.8027V138.891Z" fill="#4C1B1E"/>
<path d="M17.248 111.111H22.804V105.555H17.248V111.111Z" fill="#914629"/>
<path d="M17.248 99.9999H22.804V94.4453H17.248V99.9999Z" fill="#914629"/>
<path d="M17.248 105.556H22.804V99.9999H17.248V105.556Z" fill="#914629"/>
<path d="M28.3577 83.3333H33.9136V77.7773H28.3573L28.3577 83.3333Z" fill="#743228"/>
<path d="M33.9121 83.3333H39.4681V77.7773H33.9121V83.3333Z" fill="#231F20"/>
<path d="M39.4707 83.3333H45.0267V77.7773H39.4707V83.3333Z" fill="#743228"/>
<path d="M22.8027 83.3333H28.3577L28.3573 77.7773H22.8027V83.3333Z" fill="#231F20"/>
<path d="M17.248 94.4453H22.804V88.8887H17.248V94.4453Z" fill="#914629"/>
<path d="M45.0254 138.891H50.5801V133.334H45.0255L45.0254 138.891Z" fill="#914629"/>
<path d="M17.248 83.3333H22.804V77.7773H17.248V83.3333Z" fill="#231F20"/>
<path d="M17.248 88.8887H22.804V83.332H17.248V88.8887Z" fill="#914629"/>
<path d="M17.248 133.334H22.804V127.777H17.248V133.334Z" fill="#4C1B1E"/>
<path d="M72.8026 88.8887L78.3587 88.888V83.332H72.8026V88.8887Z" fill="#914629"/>
<path d="M72.8026 83.3333H78.3587V77.7773H72.8026V83.3333Z" fill="#743228"/>
<path d="M72.8026 100L78.3587 99.9999V94.4453H72.8026V100Z" fill="#914629"/>
<path d="M72.8026 94.4453H78.3587V88.888L72.8026 88.8887V94.4453Z" fill="#914629"/>
<path d="M72.8026 77.7773H78.3587V72.222H72.8027L72.8026 77.7773Z" fill="#231F20"/>
<path d="M50.5801 138.891H56.1361V133.334L50.5801 133.334V138.891Z" fill="#914629"/>
<path d="M50.5801 77.7773H56.1361V72.222H50.5801V77.7773Z" fill="#231F20"/>
<path d="M56.1387 77.7773H61.6946V72.222H56.1387V77.7773Z" fill="#DDD9D8"/>
<path d="M67.248 77.7773H72.8026L72.8027 72.222H67.248V77.7773Z" fill="#DDD9D8"/>
<path d="M61.6895 77.7773H67.2454V72.222H61.6895V77.7773Z" fill="#231F20"/>
<path d="M72.8026 105.556H78.3587V99.9999L72.8026 100V105.556Z" fill="#914629"/>
<path d="M67.248 138.891H72.8027L72.8026 133.334H67.248V138.891Z" fill="#914629"/>
<path d="M61.6895 138.891H67.2454V133.334H61.6895V138.891Z" fill="#914629"/>
<path d="M72.8027 138.891H78.3587V133.334H72.8026L72.8027 138.891Z" fill="#914629"/>
<path d="M72.8026 111.111L78.3587 111.111V105.555H72.8026V111.111Z" fill="#914629"/>
<path d="M56.1348 138.891H61.6907V133.334H56.1348V138.891Z" fill="#914629"/>
<path d="M72.8026 122.223L78.3587 122.223V116.666L72.8026 116.666V122.223Z" fill="#914629"/>
<path d="M72.8026 133.332H78.3587V127.777L72.8026 127.777V133.332Z" fill="#914629"/>
<path d="M72.8026 116.666L78.3587 116.666V111.111L72.8026 111.111V116.666Z" fill="#914629"/>
<path d="M72.8026 127.777L78.3587 127.777V122.223L72.8026 122.223V127.777Z" fill="#914629"/>
<path d="M50.5801 177.777L56.1361 177.777V172.223H50.5801V177.777Z" fill="#E1850F"/>
<path d="M56.1348 177.777H61.6907V172.223H56.1348V177.777Z" fill="#231F20"/>
<path d="M45.0255 177.777H50.5801V172.223L45.0255 172.223V177.777Z" fill="#231F20"/>
<path d="M106.135 94.4446H111.691V88.8887H106.135V94.4446Z" fill="#231F20"/>
<path d="M106.135 111.111H111.691V105.555H106.135V111.111Z" fill="#914629"/>
<path d="M106.135 99.9999H111.691V94.4446H106.135V99.9999Z" fill="#231F20"/>
<path d="M106.135 105.556H111.691V99.9999H106.135V105.556Z" fill="#AB5B27"/>
<path d="M106.135 155.555H111.691V150H106.135V155.555Z" fill="#231F20"/>
<path d="M106.135 150.001H111.691V144.445H106.135V150.001Z" fill="#DDD9D8"/>
<path d="M106.135 144.445H111.691V138.891H106.135V144.445Z" fill="#231F20"/>
<path d="M106.135 161.112H111.691V155.555H106.135V161.112Z" fill="#231F20"/>
<path d="M72.8026 161.112H78.3587V155.555H72.8027L72.8026 161.112Z" fill="#743228"/>
<path d="M106.135 122.223H111.691V116.666H106.135V122.223Z" fill="#914629"/>
<path d="M106.135 127.777H111.691V122.223H106.135V127.777Z" fill="#743228"/>
<path d="M106.135 138.891H111.691V133.334H106.135V138.891Z" fill="white"/>
<path d="M106.135 116.666H111.691V111.111H106.135V116.666Z" fill="#914629"/>
<path d="M67.248 44.4427H72.8026V38.8867H67.248V44.4427Z" fill="white"/>
<path d="M28.3577 44.4446H33.9136V38.8887H28.3577V44.4446Z" fill="#F9A70D"/>
<path d="M56.1348 44.4427H61.6907V38.8867H56.1348V44.4427Z" fill="white"/>
<path d="M33.9121 44.4427H39.4681V38.8867H33.9121V44.4427Z" fill="#F9A70D"/>
<path d="M45.0254 44.4446H50.58V38.8887H45.0254V44.4446Z" fill="#E1850F"/>
<path d="M50.5801 44.4427H56.1361V38.8867H50.5801V44.4427Z" fill="#231F20"/>
<path d="M39.4707 44.4427H45.0267V38.8867H39.4707V44.4427Z" fill="#F9A70D"/>
<path d="M11.6895 44.4427H17.2454V38.8867H11.6895V44.4427Z" fill="#F9A70D"/>
<path d="M22.8027 44.4427H28.3573V38.8867H22.8027V44.4427Z" fill="#F9A70D"/>
<path d="M17.248 44.4427H22.804V38.8867H17.248V44.4427Z" fill="#F9A70D"/>
<path d="M6.13477 44.4427H11.6907V38.8867H6.13477V44.4427Z" fill="#F9A70D"/>
<path d="M61.6895 44.4427H67.2454V38.8867H61.6895V44.4427Z" fill="white"/>
<path d="M0.580078 44.4446H6.13606V38.8887H0.580078V44.4446Z" fill="#231F20"/>
<path d="M72.8026 44.4427H78.3587V38.8867H72.8026V44.4427Z" fill="white"/>
<path d="M78.3574 44.4427H83.9134V38.8867H78.3574V44.4427Z" fill="#231F20"/>
<path d="M0.580078 38.8887L6.13467 38.8886V33.3331H0.580078L0.580078 38.8887Z" fill="#231F20"/>
<path d="M39.4707 38.8867H45.0267V33.332H39.4707V38.8867Z" fill="#F9A70D"/>
<path d="M45.0254 38.8887H50.58L50.5801 33.3331H45.0255L45.0254 38.8887Z" fill="#F9A70D"/>
<path d="M50.5801 38.8867H56.1361V33.332H50.5801V38.8867Z" fill="#231F20"/>
<path d="M56.1348 38.8867H61.6907V33.332H56.1348V38.8867Z" fill="white"/>
<path d="M33.916 38.8866L39.4707 38.8867V33.332H33.916V38.8866Z" fill="#F9A70D"/>
<path d="M11.6934 38.8866H17.2493V33.332H11.6934V38.8866Z" fill="#F9A70D"/>
<path d="M17.248 38.8886H22.8026L22.8027 33.3333H17.248V38.8886Z" fill="#F9A70D"/>
<path d="M22.8027 38.8867L28.3587 38.8866V33.332H22.8027V38.8867Z" fill="#F9A70D"/>
<path d="M28.3573 38.8867L33.9134 38.8866V33.332H28.3574L28.3573 38.8867Z" fill="#F9A70D"/>
<path d="M106.135 166.668H111.691V161.113H106.135V166.668Z" fill="#743228"/>
<path d="M61.6895 38.8867H67.2454V33.332H61.6895V38.8867Z" fill="white"/>
<path d="M6.13477 38.8867H11.6907V33.332H6.13477V38.8867Z" fill="#F9A70D"/>
<path d="M111.689 144.445H117.245V138.891H111.689V144.445Z" fill="#231F20"/>
<path d="M111.689 138.891H117.245V133.334H111.689V138.891Z" fill="#231F20"/>
<path d="M111.689 150.001H117.245V144.445H111.689V150.001Z" fill="#231F20"/>
<path d="M111.689 155.555H117.245V150H111.689V155.555Z" fill="#231F20"/>
<path d="M111.689 166.668H117.245V161.113H111.689V166.668Z" fill="#231F20"/>
<path d="M111.689 111.111H117.245V105.555H111.689V111.111Z" fill="#231F20"/>
<path d="M111.689 122.223H117.245V116.666H111.689V122.223Z" fill="#231F20"/>
<path d="M111.689 133.332H117.245V127.777H111.689V133.332Z" fill="#231F20"/>
<path d="M111.689 127.777H117.245V122.223H111.689V127.777Z" fill="#231F20"/>
<path d="M111.689 116.666H117.245V111.111H111.689V116.666Z" fill="#231F20"/>
<path d="M89.4706 177.777L95.0267 177.777V172.223H89.4707L89.4706 177.777Z" fill="#231F20"/>
<path d="M78.3574 177.777H83.9134V172.223H78.3574V177.777Z" fill="#E1850F"/>
<path d="M83.916 177.777H89.4706L89.4707 172.223H83.916V177.777Z" fill="#231F20"/>
<path d="M111.689 172.224H117.245V166.668H111.689V172.224Z" fill="#914629"/>
<path d="M72.8027 177.777H78.3587V172.223H72.8027V177.777Z" fill="#231F20"/>
<path d="M67.248 38.8867H72.8026V33.332H67.248V38.8867Z" fill="white"/>
<path d="M111.689 177.777H117.245V172.223H111.689V177.777Z" fill="#DDD9D8"/>
<path d="M106.135 177.777H111.691V172.223H106.135V177.777Z" fill="#231F20"/>
<path d="M100.58 177.777H106.135V172.223H100.58V177.777Z" fill="#914629"/>
<path d="M95.0254 177.777H100.581V172.223H95.0254V177.777Z" fill="#743228"/>
<path d="M78.3574 38.8867H83.9134V33.332H78.3574V38.8867Z" fill="#231F20"/>
<path d="M72.8026 38.8867H78.3587V33.332H72.8026V38.8867Z" fill="white"/>
<path d="M111.689 105.556H117.245V100H111.689V105.556Z" fill="#231F20"/>
<path d="M106.135 133.332H111.691V127.777H106.135V133.332Z" fill="#231F20"/>
<path d="M78.3574 166.668H83.9134V161.113H78.3574V166.668Z" fill="#4C1B1E"/>
<path d="M72.8027 166.668H78.3587V161.113H72.8027V166.668Z" fill="#4C1B1E"/>
<path d="M67.248 166.668H72.8027V161.113H67.248V166.668Z" fill="#4C1B1E"/>
<path d="M83.916 166.668H89.4706V161.113H83.916V166.668Z" fill="#4C1B1E"/>
<path d="M61.6895 166.668H67.2454V161.113H61.6895V166.668Z" fill="#231F20"/>
<path d="M100.58 161.112H106.135V155.555L100.58 155.555V161.112Z" fill="#231F20"/>
<path d="M56.1348 166.668H61.6907V161.113H56.1348V166.668Z" fill="#4C1B1E"/>
<path d="M100.58 166.668H106.135V161.113H100.58V166.668Z" fill="#4C1B1E"/>
<path d="M95.0254 166.668H100.581V161.113H95.0254V166.668Z" fill="#231F20"/>
<path d="M89.4706 166.668H95.0267V161.113H89.4706V166.668Z" fill="#4C1B1E"/>
<path d="M33.9121 166.668H39.4681V161.113H33.9121V166.668Z" fill="#231F20"/>
<path d="M39.4707 166.668H45.0267V161.113H39.4707V166.668Z" fill="#4C1B1E"/>
<path d="M45.0254 166.668H50.58V161.113H45.0254V166.668Z" fill="#4C1B1E"/>
<path d="M50.58 166.668H56.1361V161.113H50.58V166.668Z" fill="#4C1B1E"/>
<path d="M95.0254 99.9999H100.581V94.4453H95.0254V99.9999Z" fill="#914629"/>
<path d="M100.58 155.555L106.135 155.555V150H100.58V155.555Z" fill="#DDD9D8"/>
<path d="M95.0254 111.111H100.581V105.555H95.0254V111.111Z" fill="#AB5B27"/>
<path d="M95.0254 116.666H100.581V111.111H95.0254V116.666Z" fill="#914629"/>
<path d="M95.0254 127.777H100.581V122.223H95.0254V127.777Z" fill="#AB5B27"/>
<path d="M95.0254 122.223H100.581V116.666H95.0254V122.223Z" fill="#914629"/>
<path d="M95.0254 77.7773H100.581V72.2227H95.0254V77.7773Z" fill="#231F20"/>
<path d="M95.0254 94.4453H100.581V88.8887H95.0254V94.4453Z" fill="#914629"/>
<path d="M95.0254 83.3333H100.581V77.7773H95.0254V83.3333Z" fill="#231F20"/>
<path d="M95.0254 88.8887H100.581V83.332H95.0254V88.8887Z" fill="#AB5B27"/>
<path d="M89.4707 161.112H95.0267V155.555H89.4707V161.112Z" fill="#743228"/>
<path d="M83.916 161.112H89.4707V155.555H83.916V161.112Z" fill="#743228"/>
<path d="M95.0254 161.112H100.581V155.555H95.0254V161.112Z" fill="#4C1B1E"/>
<path d="M78.3574 161.112H83.9134V155.555H78.3574V161.112Z" fill="#743228"/>
<path d="M106.135 172.224H111.691V166.668H106.135V172.224Z" fill="#914629"/>
<path d="M95.0254 138.89H100.581V133.334H95.0254V138.89Z" fill="#743228"/>
<path d="M95.0254 144.445H100.581V138.89H95.0254V144.445Z" fill="#231F20"/>
<path d="M95.0254 155.555H100.581V150H95.0254V155.555Z" fill="#231F20"/>
<path d="M95.0254 133.332H100.581V127.777H95.0254V133.332Z" fill="#914629"/>
<path d="M95.0254 105.556H100.581V99.9999H95.0254V105.556Z" fill="#914629"/>
<path d="M28.3577 55.556H33.9136V50H28.3577V55.556Z" fill="#231F20"/>
<path d="M22.8027 55.556H28.3577V50H22.8027V55.556Z" fill="#231F20"/>
<path d="M33.9121 55.556H39.4681V50H33.9121V55.556Z" fill="#231F20"/>
<path d="M50.5801 55.556H56.1361V50H50.5801V55.556Z" fill="white"/>
<path d="M45.0254 55.556H50.5801V50H45.0254V55.556Z" fill="#DDD9D8"/>
<path d="M39.4707 55.556H45.0267V50H39.4707V55.556Z" fill="#231F20"/>
<path d="M6.13477 55.556H11.6907V50H6.13477V55.556Z" fill="#E1850F"/>
<path d="M17.248 55.556H22.804V50H17.248V55.556Z" fill="#231F20"/>
<path d="M0.580078 55.556H6.13477V50H0.580078V55.556Z" fill="#231F20"/>
<path d="M11.6895 55.556H17.2454V50H11.6895V55.556Z" fill="#231F20"/>
<path d="M61.6895 55.556H67.2454V50H61.6895V55.556Z" fill="white"/>
<path d="M83.916 55.556H89.4706V50H83.916V55.556Z" fill="#231F20"/>
<path d="M56.1348 55.556H61.6907V50H56.1348V55.556Z" fill="white"/>
<path d="M78.3574 55.556H83.9134V50H78.3574V55.556Z" fill="white"/>
<path d="M67.248 55.556H72.8026V50H67.248V55.556Z" fill="white"/>
<path d="M72.8026 55.556H78.3587V50H72.8026V55.556Z" fill="white"/>
<path d="M95.0254 150.001H100.581V144.445H95.0254V150.001Z" fill="#DDD9D8"/>
<path d="M78.3574 172.224H83.9134V166.668H78.3574V172.224Z" fill="#231F20"/>
<path d="M67.248 172.224H72.8026L72.8027 166.668H67.248V172.224Z" fill="#231F20"/>
<path d="M72.8026 172.224H78.3587V166.668H72.8027L72.8026 172.224Z" fill="#231F20"/>
<path d="M56.1348 172.224H61.6907V166.668H56.1348V172.224Z" fill="#231F20"/>
<path d="M95.0254 172.224H100.581V166.668H95.0254V172.224Z" fill="#4C1B1E"/>
<path d="M100.58 172.224H106.135V166.668H100.58V172.224Z" fill="#231F20"/>
<path d="M50.5801 172.224H56.1361V166.668H50.58L50.5801 172.224Z" fill="#231F20"/>
<path d="M89.4707 172.224H95.0267V166.668H89.4706L89.4707 172.224Z" fill="#231F20"/>
<path d="M83.916 172.224H89.4707L89.4706 166.668H83.916V172.224Z" fill="#231F20"/>
<path d="M39.4707 172.224H45.0267V166.668H39.4707V172.224Z" fill="#231F20"/>
<path d="M45.0255 172.223L50.5801 172.223L50.58 166.666H45.0254L45.0255 172.223Z" fill="#231F20"/>
<path d="M100.58 88.888L106.135 88.8887L106.135 83.332H100.58V88.888Z" fill="#231F20"/>
<path d="M100.58 94.4446H106.135V88.8887L100.58 88.888V94.4446Z" fill="#AB5B27"/>
<path d="M100.58 127.777H106.135V122.223L100.58 122.223V127.777Z" fill="#914629"/>
<path d="M100.58 138.89L106.135 138.891V133.334H100.58V138.89Z" fill="#231F20"/>
<path d="M100.58 133.332H106.135V127.777H100.58V133.332Z" fill="#743228"/>
<path d="M100.58 144.445L106.135 144.445V138.891L100.58 138.89V144.445Z" fill="white"/>
<path d="M100.58 111.111H106.135V105.555H100.58V111.111Z" fill="#914629"/>
<path d="M100.58 105.556H106.135V99.9999L100.58 100V105.556Z" fill="#914629"/>
<path d="M100.58 100L106.135 99.9999V94.4446H100.58V100Z" fill="#914629"/>
<path d="M100.58 122.223L106.135 122.223V116.666H100.58V122.223Z" fill="#914629"/>
<path d="M100.58 116.666H106.135V111.111H100.58V116.666Z" fill="#AB5B27"/>
<path d="M33.9121 50H39.4681V44.4427H33.9121V50Z" fill="#E1850F"/>
<path d="M6.13477 50H11.6907V44.4427H6.13477V50Z" fill="#F9A70D"/>
<path d="M11.6895 50H17.2454V44.4427H11.6895V50Z" fill="#E1850F"/>
<path d="M0.580078 50H6.13477V44.4427L0.580078 44.4434V50Z" fill="#231F20"/>
<path d="M17.248 50H22.804V44.4427H17.248V50Z" fill="#E1850F"/>
<path d="M22.8027 50H28.3577L28.3573 44.4427H22.8027V50Z" fill="#E1850F"/>
<path d="M28.3577 50H33.9136V44.4434L28.3573 44.4427L28.3577 50Z" fill="#E1850F"/>
<path d="M100.58 150.001H106.135V144.445L100.58 144.445V150.001Z" fill="#231F20"/>
<path d="M39.4707 50H45.0267V44.4427H39.4707V50Z" fill="#E1850F"/>
<path d="M61.6895 50H67.2454V44.4427H61.6895V50Z" fill="white"/>
<path d="M67.248 50H72.8026V44.4427H67.248V50Z" fill="white"/>
<path d="M72.8026 50H78.3587V44.4427H72.8026V50Z" fill="white"/>
<path d="M78.3574 50H83.9134V44.4427H78.3574V50Z" fill="#DDD9D8"/>
<path d="M83.916 50H89.4706V44.4434H83.916V50Z" fill="#231F20"/>
<path d="M45.0254 50L50.5814 49.9993V44.4434H45.0254V50Z" fill="#231F20"/>
<path d="M50.5801 50H56.1361V44.4427H50.5801V50Z" fill="#DDD9D8"/>
<path d="M56.1348 50H61.6907V44.4427H56.1348V50Z" fill="white"/>
<path d="M45.0255 5.55457L50.5801 5.55469V0H45.0255V5.55457Z" fill="#231F20"/>
<path d="M50.5801 5.55469H56.1361V0H50.5801V5.55469Z" fill="#231F20"/>
<path d="M39.4707 5.55469H45.0267V0H39.4707V5.55469Z" fill="#231F20"/>
<path d="M61.6895 5.55469H67.2454V0H61.6895V5.55469Z" fill="#231F20"/>
<path d="M56.1348 5.55469H61.6907V0H56.1348V5.55469Z" fill="#231F20"/>
<path d="M33.9121 5.55469H39.4681V0H33.9121V5.55469Z" fill="#231F20"/>
<path d="M67.248 5.55469H72.8027L72.8026 0H67.248V5.55469Z" fill="#231F20"/>
<path d="M72.8027 5.55469H78.3587V0H72.8026L72.8027 5.55469Z" fill="#231F20"/>
</svg>
