<svg width="348" height="200" viewBox="0 0 348 200" fill="none" xmlns="http://www.w3.org/2000/svg">
<path d="M200 21.0527H210.526V31.5792H200V21.0527Z" fill="#E1F235"/>
<path d="M210.528 21.053H221.054V31.5794H210.528V21.053Z" fill="#E1F235"/>
<path d="M231.582 21.0527H242.109V31.5792H231.582V21.0527Z" fill="#E1F235"/>
<path d="M200 31.582H210.526V42.1085H200V31.582Z" fill="#E1F235"/>
<path d="M178.949 42.1055H189.476V52.6319H178.949V42.1055Z" fill="#E1F235"/>
<path d="M168.422 52.6328H178.948V63.1588H168.422V52.6328Z" fill="#E1F235"/>
<path d="M263.16 63.1602H273.687V73.6866H263.16V63.1602Z" fill="#E1F235"/>
<path d="M147.367 84.2109H157.894V94.7374H147.367V84.2109Z" fill="#E1F235"/>
<path d="M284.211 84.2109H294.737V94.7374H284.211V84.2109Z" fill="#E1F235"/>
<path d="M10.5273 105.264H21.0538V115.79H10.5273V105.264Z" fill="#DA7B7F"/>
<path d="M10.5273 115.79H21.0538V126.317H10.5273V115.79Z" fill="#DA7B7F"/>
<path d="M52.6328 115.791H63.1593V126.317H52.6328V115.791Z" fill="#DA7B7F"/>
<path d="M21.0547 115.789H31.5812V126.316H21.0547V115.789Z" fill="#DA7B7F"/>
<path d="M31.582 126.316H42.1085V136.843H31.582V126.316Z" fill="#DA7B7F"/>
<path d="M42.1055 126.316H52.6319V136.843H42.1055V126.316Z" fill="#DA7B7F"/>
<path d="M21.0547 126.316L31.582 126.316V136.843H21.0547V126.316Z" fill="#DA7B7F"/>
<path d="M200 10.5273H210.526V21.0538H200V10.5273Z" fill="#C2DE7B"/>
<path d="M252.633 10.5273H263.159V21.0538H252.633V10.5273Z" fill="#C2DE7B"/>
<path d="M178.949 21.0527H189.476V31.5792H178.949V21.0527Z" fill="#C2DE7B"/>
<path d="M263.16 21.0527H273.687V31.5792H263.16V21.0527Z" fill="#C2DE7B"/>
<path d="M168.422 31.582H178.948V42.1085H168.422V31.582Z" fill="#C2DE7B"/>
<path d="M273.684 31.582H284.21V42.1085H273.684V31.582Z" fill="#C2DE7B"/>
<path d="M136.845 42.1055H147.37V52.6319H136.845V42.1055Z" fill="#C2DE7B"/>
<path d="M157.895 42.1055H168.421V52.6319H157.895V42.1055Z" fill="#C2DE7B"/>
<path d="M273.684 42.1055H284.21V52.6319H273.684V42.1055Z" fill="#C2DE7B"/>
<path d="M136.844 52.6328L147.37 52.6319V63.1588H136.844V52.6328Z" fill="#C2DE7B"/>
<path d="M284.211 63.1602H294.737V73.6866H284.211V63.1602Z" fill="#C2DE7B"/>
<path d="M284.211 73.6866H294.737V84.214H284.211V73.6866Z" fill="#C2DE7B"/>
<path d="M294.737 84.2109H305.265V94.7374H294.737V84.2109Z" fill="#C2DE7B"/>
<path d="M305.266 94.7383H315.792V105.265H305.266V94.7383Z" fill="#C2DE7B"/>
<path d="M315.79 105.264H326.316V115.79H315.79V105.264Z" fill="#C2DE7B"/>
<path d="M326.317 126.316H336.843V136.843H326.317V126.316Z" fill="#C2DE7B"/>
<path d="M0 94.7383H10.5265V105.265H0V94.7383Z" fill="black"/>
<path d="M10.5265 94.7383H21.0538V105.265H10.5265V94.7383Z" fill="black"/>
<path d="M0 105.264H10.5273V115.79H0V105.264Z" fill="black"/>
<path d="M21.0547 105.262H31.5812V115.789H21.0547V105.262Z" fill="black"/>
<path d="M0 115.79L10.5265 115.791L10.5273 126.317H0V115.79Z" fill="black"/>
<path d="M31.582 115.791H42.1085V126.317H31.582V115.791Z" fill="black"/>
<path d="M42.1055 115.791H52.6328V126.317H42.1055V115.791Z" fill="black"/>
<path d="M10.5273 126.316H21.0538L21.0547 136.843H10.5273V126.316Z" fill="black"/>
<path d="M52.6319 126.316H63.1593V136.843H52.6319V126.316Z" fill="black"/>
<path d="M31.582 136.843H42.1085V147.37H31.582V136.843Z" fill="black"/>
<path d="M42.1055 136.843H52.6319V147.37H42.1055V136.843Z" fill="black"/>
<path d="M21.0547 136.843L31.5812 136.844L31.582 147.37H21.0547V136.843Z" fill="black"/>
<path d="M147.367 126.316H157.894V136.843H147.367V126.316Z" fill="#76922F"/>
<path d="M231.582 126.316H242.109V136.843H231.582V126.316Z" fill="#76922F"/>
<path d="M147.367 136.843H157.894V147.37H147.367V136.843Z" fill="#76922F"/>
<path d="M231.582 136.843H242.109V147.37H231.582V136.843Z" fill="#76922F"/>
<path d="M63.1602 94.7383H73.6866V105.265H63.1602V94.7383Z" fill="#9ABF3E"/>
<path d="M294.738 115.789H305.265V126.316H294.738V115.789Z" fill="#9ABF3E"/>
<path d="M63.1602 105.264H73.6866V115.79H63.1602V105.264Z" fill="#9ABF3E"/>
<path d="M73.6875 105.262H84.214V115.788H73.6875V105.262Z" fill="#9ABF3E"/>
<path d="M84.2109 105.264H94.7374V115.79H84.2109V105.264Z" fill="#9ABF3E"/>
<path d="M94.7374 105.264H105.265V115.79H94.7374V105.264Z" fill="#9ABF3E"/>
<path d="M105.265 105.264H115.792V115.79H105.265V105.264Z" fill="#9ABF3E"/>
<path d="M115.789 105.264H126.316V115.79H115.789V105.264Z" fill="#9ABF3E"/>
<path d="M126.318 105.264H136.843V115.79H126.318V105.264Z" fill="#9ABF3E"/>
<path d="M136.843 105.264H147.37V115.79H136.843V105.264Z" fill="#9ABF3E"/>
<path d="M147.367 105.264H157.894V115.79H147.367V105.264Z" fill="#9ABF3E"/>
<path d="M157.894 105.264H168.421V115.79H157.894V105.264Z" fill="#9ABF3E"/>
<path d="M178.949 105.264H189.476V115.79H178.949V105.264Z" fill="#9ABF3E"/>
<path d="M189.473 105.264H199.999V115.79H189.473V105.264Z" fill="#9ABF3E"/>
<path d="M199.999 105.264H210.526V115.79H199.999V105.264Z" fill="#9ABF3E"/>
<path d="M210.526 105.264H221.054V115.79H210.526V105.264Z" fill="#9ABF3E"/>
<path d="M231.582 105.264H242.109V115.79H231.582V105.264Z" fill="#9ABF3E"/>
<path d="M242.105 105.264H252.632V115.79H242.105V105.264Z" fill="#9ABF3E"/>
<path d="M221.055 105.262H231.581V115.788H221.055V105.262Z" fill="#9ABF3E"/>
<path d="M263.16 105.264H273.687V115.79H263.16V105.264Z" fill="#9ABF3E"/>
<path d="M273.684 105.264H284.21V115.79H273.684V105.264Z" fill="#9ABF3E"/>
<path d="M168.422 115.791H178.948V126.317H168.422V115.791Z" fill="#9ABF3E"/>
<path d="M252.633 115.791H263.159V126.317H252.633V115.791Z" fill="#9ABF3E"/>
<path d="M168.422 126.316H178.948V136.843H168.422V126.316Z" fill="#9ABF3E"/>
<path d="M252.634 126.316H263.159V136.843H252.634V126.316Z" fill="#9ABF3E"/>
<path d="M168.422 136.843H178.948V147.37H168.422V136.843Z" fill="#9ABF3E"/>
<path d="M252.633 136.844L263.159 136.843V147.37H252.633V136.844Z" fill="#9ABF3E"/>
<path d="M273.684 157.898H284.21V168.425H273.684V157.898Z" fill="#9ABF3E"/>
<path d="M273.684 168.422H284.21V178.948H273.684V168.422Z" fill="#9ABF3E"/>
<path d="M284.211 178.949H294.737V189.476H284.211V178.949Z" fill="#9ABF3E"/>
<path d="M305.266 178.949H315.792V189.476H305.266V178.949Z" fill="#9ABF3E"/>
<path d="M210.526 10.5273H221.054L221.054 21.053H210.528L210.526 10.5273Z" fill="#ADD24F"/>
<path d="M231.582 10.5273H242.109V21.0538H231.582V10.5273Z" fill="#ADD24F"/>
<path d="M242.105 10.5273H252.633V21.0538H242.105V10.5273Z" fill="#ADD24F"/>
<path d="M221.054 10.5273H231.582V21.0538H221.055L221.054 10.5273Z" fill="#ADD24F"/>
<path d="M189.473 21.0527H200V31.5792H189.473V21.0527Z" fill="#ADD24F"/>
<path d="M242.105 21.0527H252.632V31.5792H242.105V21.0527Z" fill="#ADD24F"/>
<path d="M221.055 21.0508H231.581V31.5768H221.055V21.0508Z" fill="#ADD24F"/>
<path d="M252.632 21.0527H263.16V31.5792H252.632V21.0527Z" fill="#ADD24F"/>
<path d="M178.948 31.582H189.476V42.1085H178.948V31.582Z" fill="#ADD24F"/>
<path d="M189.473 31.582H200V42.1085H189.473V31.582Z" fill="#ADD24F"/>
<path d="M210.528 31.5794H221.054L221.054 42.1065H210.528L210.528 31.5794Z" fill="#ADD24F"/>
<path d="M231.582 31.582H242.109V42.1085H231.582V31.582Z" fill="#ADD24F"/>
<path d="M242.105 31.582H252.632V42.1085H242.105V31.582Z" fill="#ADD24F"/>
<path d="M221.055 31.5781H231.581V42.1046H221.055V31.5781Z" fill="#ADD24F"/>
<path d="M252.632 31.582H263.159V42.1085H252.632V31.582Z" fill="#ADD24F"/>
<path d="M263.159 31.582H273.687V42.1085H263.159V31.582Z" fill="#ADD24F"/>
<path d="M115.789 42.1055H126.316V52.6319H115.789V42.1055Z" fill="#ADD24F"/>
<path d="M126.316 42.1055H136.843V52.6319H126.316V42.1055Z" fill="#ADD24F"/>
<path d="M168.421 42.1055H178.949L178.948 52.6328H168.422L168.421 42.1055Z" fill="#ADD24F"/>
<path d="M189.473 42.1055H199.999V52.6319H189.473V42.1055Z" fill="#ADD24F"/>
<path d="M199.999 42.1055H210.526V52.6319H199.999V42.1055Z" fill="#ADD24F"/>
<path d="M210.526 42.1055H221.054V52.6319H210.526V42.1055Z" fill="#ADD24F"/>
<path d="M231.582 42.1055H242.109V52.6319H231.582V42.1055Z" fill="#ADD24F"/>
<path d="M242.105 42.1055H252.632V52.6319H242.105V42.1055Z" fill="#ADD24F"/>
<path d="M221.055 42.1046H231.581L231.582 52.6319H221.054L221.055 42.1046Z" fill="#ADD24F"/>
<path d="M252.634 42.1055H263.159V52.6319H252.634V42.1055Z" fill="#ADD24F"/>
<path d="M263.159 42.1055H273.687V52.6319H263.159V42.1055Z" fill="#ADD24F"/>
<path d="M105.266 52.6328H115.792V63.1588H105.266V52.6328Z" fill="#ADD24F"/>
<path d="M115.791 52.6328L126.316 52.6319V63.1588H115.791V52.6328Z" fill="#ADD24F"/>
<path d="M126.316 52.6328L136.843 52.6319L136.844 63.1588H126.316L126.316 52.6328Z" fill="#ADD24F"/>
<path d="M157.895 52.6319H168.421L168.422 63.1588H157.895V52.6319Z" fill="#ADD24F"/>
<path d="M178.949 52.6319H189.476V63.1588H178.948L178.949 52.6319Z" fill="#ADD24F"/>
<path d="M189.473 52.6319H199.999V63.1588H189.473V52.6319Z" fill="#ADD24F"/>
<path d="M200 52.6328L210.526 52.6319V63.1588H199.999L200 52.6328Z" fill="#ADD24F"/>
<path d="M210.529 52.6328L221.054 52.6319V63.1588H210.529V52.6328Z" fill="#ADD24F"/>
<path d="M231.582 52.6319H242.109V63.1588H231.582V52.6319Z" fill="#ADD24F"/>
<path d="M242.105 52.6319H252.632V63.1588H242.105V52.6319Z" fill="#ADD24F"/>
<path d="M221.055 52.6328H231.581L231.582 63.1588H221.054L221.055 52.6328Z" fill="#ADD24F"/>
<path d="M252.633 52.6328L263.159 52.6319V63.1588H252.632L252.633 52.6328Z" fill="#ADD24F"/>
<path d="M263.16 52.6328L273.687 52.6319V63.1588H263.159L263.16 52.6328Z" fill="#ADD24F"/>
<path d="M273.684 52.6319H284.21V63.1588H273.684V52.6319Z" fill="#ADD24F"/>
<path d="M94.7383 63.1602H105.265V73.6866H94.7383V63.1602Z" fill="#ADD24F"/>
<path d="M115.789 63.1602H126.316V73.6866H115.789V63.1602Z" fill="#ADD24F"/>
<path d="M136.844 63.1602H147.37V73.6866H136.844V63.1602Z" fill="#ADD24F"/>
<path d="M147.367 63.1602H157.894V73.6866H147.367V63.1602Z" fill="#ADD24F"/>
<path d="M157.894 63.1602H168.421V73.6866H157.894V63.1602Z" fill="#ADD24F"/>
<path d="M168.421 63.1602H178.948V73.6866H168.421V63.1602Z" fill="#ADD24F"/>
<path d="M178.948 63.1602H189.476V73.6866H178.948V63.1602Z" fill="#ADD24F"/>
<path d="M189.473 63.1602H199.999V73.6866H189.473V63.1602Z" fill="#ADD24F"/>
<path d="M199.999 63.1602H210.526V73.6866H199.999V63.1602Z" fill="#ADD24F"/>
<path d="M210.526 63.1602H221.054V73.6866H210.526V63.1602Z" fill="#ADD24F"/>
<path d="M231.582 63.1602H242.109V73.6866H231.582V63.1602Z" fill="#ADD24F"/>
<path d="M242.105 63.1602H252.632V73.6866H242.105V63.1602Z" fill="#ADD24F"/>
<path d="M221.055 63.1562H231.581V73.6827H221.055V63.1562Z" fill="#ADD24F"/>
<path d="M252.632 63.1602H263.16V73.6866H252.632V63.1602Z" fill="#ADD24F"/>
<path d="M273.684 63.1602H284.211V73.6866H273.684V63.1602Z" fill="#ADD24F"/>
<path d="M84.2109 73.6875H94.7374V84.214H84.2109V73.6875Z" fill="#ADD24F"/>
<path d="M94.7383 73.6866H105.265V84.214H94.7374L94.7383 73.6866Z" fill="#ADD24F"/>
<path d="M115.789 73.6866H126.316V84.214H115.789V73.6866Z" fill="#ADD24F"/>
<path d="M136.844 73.6866H147.37V84.214H136.844V73.6866Z" fill="#ADD24F"/>
<path d="M147.367 73.6866H157.894V84.214H147.367V73.6866Z" fill="#ADD24F"/>
<path d="M157.895 73.6875L168.421 73.6866V84.214H157.894L157.895 73.6875Z" fill="#ADD24F"/>
<path d="M168.422 73.6875L178.948 73.6866V84.214H168.421L168.422 73.6875Z" fill="#ADD24F"/>
<path d="M178.949 73.6875L189.476 73.6866V84.214H178.948L178.949 73.6875Z" fill="#ADD24F"/>
<path d="M189.473 73.6866H199.999V84.214H189.473V73.6866Z" fill="#ADD24F"/>
<path d="M200 73.6875L210.526 73.6866V84.214H199.999L200 73.6875Z" fill="#ADD24F"/>
<path d="M210.528 73.6855H221.054V84.212H210.528V73.6855Z" fill="#ADD24F"/>
<path d="M231.582 73.6866H242.109V84.214H231.582V73.6866Z" fill="#ADD24F"/>
<path d="M242.105 73.6866H252.632V84.214H242.105V73.6866Z" fill="#ADD24F"/>
<path d="M221.054 73.6855H231.581V84.212H221.054V73.6855Z" fill="#ADD24F"/>
<path d="M252.633 73.6875H263.159V84.214H252.632L252.633 73.6875Z" fill="#ADD24F"/>
<path d="M263.16 73.6866H273.687V84.214H263.159L263.16 73.6866Z" fill="#ADD24F"/>
<path d="M273.684 73.6866L284.21 73.6875L284.211 84.214H273.684V73.6866Z" fill="#ADD24F"/>
<path d="M73.6875 84.2109H84.214V94.7374H73.6875V84.2109Z" fill="#ADD24F"/>
<path d="M94.7383 84.2109H105.265V94.7374H94.7383V84.2109Z" fill="#ADD24F"/>
<path d="M105.265 84.2109H115.792V94.7374H105.265V84.2109Z" fill="#ADD24F"/>
<path d="M115.789 84.2109H126.316V94.7374H115.789V84.2109Z" fill="#ADD24F"/>
<path d="M126.318 84.2109H136.843V94.7374H126.318V84.2109Z" fill="#ADD24F"/>
<path d="M157.894 84.2109H168.421V94.7374H157.894V84.2109Z" fill="#ADD24F"/>
<path d="M168.421 84.2109H178.948V94.7374H168.421V84.2109Z" fill="#ADD24F"/>
<path d="M178.948 84.2109H189.476V94.7374H178.948V84.2109Z" fill="#ADD24F"/>
<path d="M189.473 84.2109H199.999V94.7374H189.473V84.2109Z" fill="#ADD24F"/>
<path d="M199.999 84.2109H210.526V94.7374H199.999V84.2109Z" fill="#ADD24F"/>
<path d="M210.528 84.2109H221.054V94.7374H210.528V84.2109Z" fill="#ADD24F"/>
<path d="M231.582 84.2109H242.109V94.7374H231.582V84.2109Z" fill="#ADD24F"/>
<path d="M242.105 84.2109H252.632V94.7374H242.105V84.2109Z" fill="#ADD24F"/>
<path d="M221.054 84.2109H231.582V94.7374H221.054V84.2109Z" fill="#ADD24F"/>
<path d="M252.632 84.2109H263.159V94.7374H252.632V84.2109Z" fill="#ADD24F"/>
<path d="M263.159 84.2109H273.687V94.7374H263.159V84.2109Z" fill="#ADD24F"/>
<path d="M273.684 84.2109H284.211V94.7374H273.684V84.2109Z" fill="#ADD24F"/>
<path d="M73.6851 94.7363H84.2101V105.263H73.6851V94.7363Z" fill="#ADD24F"/>
<path d="M84.2109 94.7383H94.7374V105.265H84.2109V94.7383Z" fill="#ADD24F"/>
<path d="M94.7383 94.7374H105.265V105.265H94.7374L94.7383 94.7374Z" fill="#ADD24F"/>
<path d="M105.266 94.7383L115.792 94.7374V105.265H105.265L105.266 94.7383Z" fill="#ADD24F"/>
<path d="M115.789 94.7374H126.316V105.265H115.789V94.7374Z" fill="#ADD24F"/>
<path d="M126.318 94.7374H136.843V105.265H126.318V94.7374Z" fill="#ADD24F"/>
<path d="M136.844 94.7383H147.37V105.265H136.843L136.844 94.7383Z" fill="#ADD24F"/>
<path d="M147.367 94.7374H157.894V105.265H147.367V94.7374Z" fill="#ADD24F"/>
<path d="M157.895 94.7383L168.421 94.7374V105.265H157.894L157.895 94.7383Z" fill="#ADD24F"/>
<path d="M168.422 94.7383L178.948 94.7374V105.265H168.421L168.422 94.7383Z" fill="#ADD24F"/>
<path d="M178.949 94.7383L189.476 94.7374V105.265H178.948L178.949 94.7383Z" fill="#ADD24F"/>
<path d="M189.473 94.7374H199.999V105.265H189.473V94.7374Z" fill="#ADD24F"/>
<path d="M200 94.7383L210.526 94.7374V105.265H199.999L200 94.7383Z" fill="#ADD24F"/>
<path d="M210.528 94.7374H221.054L221.054 105.265H210.528L210.528 94.7374Z" fill="#ADD24F"/>
<path d="M231.582 94.7374H242.109V105.265H231.582V94.7374Z" fill="#ADD24F"/>
<path d="M242.105 94.7374H252.632V105.265H242.105V94.7374Z" fill="#ADD24F"/>
<path d="M221.055 94.7363H231.581V105.263H221.055V94.7363Z" fill="#ADD24F"/>
<path d="M252.633 94.7383L263.159 94.7374V105.265H252.632L252.633 94.7383Z" fill="#ADD24F"/>
<path d="M263.16 94.7383L273.687 94.7374V105.265H263.159L263.16 94.7383Z" fill="#ADD24F"/>
<path d="M273.684 94.7374L284.21 94.7383V105.265H273.684V94.7374Z" fill="#ADD24F"/>
<path d="M284.211 94.7374H294.737V105.265H284.21L284.211 94.7374Z" fill="#ADD24F"/>
<path d="M294.738 94.7383L305.265 94.7374L305.266 105.265H294.737L294.738 94.7383Z" fill="#ADD24F"/>
<path d="M168.421 105.264H178.949L178.948 115.791H168.422L168.421 105.264Z" fill="#ADD24F"/>
<path d="M252.632 105.264H263.16L263.159 115.791H252.633L252.632 105.264Z" fill="#ADD24F"/>
<path d="M284.21 105.264H294.737V115.79H284.21V105.264Z" fill="#ADD24F"/>
<path d="M294.737 105.264H305.265V115.79H294.737V105.264Z" fill="#ADD24F"/>
<path d="M305.265 105.264H315.792V115.79H305.265V105.264Z" fill="#ADD24F"/>
<path d="M305.266 126.316H315.792V136.843H305.266V126.316Z" fill="#ADD24F"/>
<path d="M305.266 115.791L315.792 115.79V126.317H305.266V115.791Z" fill="#ADD24F"/>
<path d="M315.79 115.79H326.316V126.317H315.79V115.79Z" fill="#ADD24F"/>
<path d="M315.79 136.844H326.316V147.37H315.79V136.844Z" fill="#ADD24F"/>
<path d="M326.316 136.844L336.843 136.843V147.37H326.316V136.844Z" fill="#ADD24F"/>
<path d="M284.21 157.898H294.737V168.425H284.21V157.898Z" fill="#ADD24F"/>
<path d="M294.737 157.898H305.265V168.425H294.737V157.898Z" fill="#ADD24F"/>
<path d="M315.79 157.898H326.316V168.425H315.79V157.898Z" fill="#ADD24F"/>
<path d="M326.316 157.895H336.843V168.421H326.316V157.895Z" fill="#ADD24F"/>
<path d="M305.266 168.422H315.792V178.949L305.266 178.948V168.422Z" fill="#ADD24F"/>
<path d="M284.21 168.422H294.737V178.949H284.211L284.21 168.422Z" fill="#ADD24F"/>
<path d="M136.843 84.2109H147.37V94.7383H136.844L136.843 84.2109Z" fill="#ADD24F"/>
<path d="M84.2109 84.2109H94.7383L94.7374 94.7383H84.2109V84.2109Z" fill="#464646"/>
<path d="M326.316 115.789H336.843V126.316L326.316 126.316V115.789Z" fill="black"/>
<path d="M336.844 136.844H347.37V147.37H336.844V136.844Z" fill="black"/>
<path d="M336.844 147.369H347.37V157.896H336.844V147.369Z" fill="black"/>
<path d="M336.844 157.898H347.37V168.425H336.844V157.898Z" fill="black"/>
<path d="M326.317 168.422L336.843 168.421V178.948H326.317V168.422Z" fill="black"/>
<path d="M294.737 168.422H305.265V178.948H294.738L294.737 168.422Z" fill="black"/>
<path d="M273.684 178.948H284.21L284.211 189.476H273.684V178.948Z" fill="black"/>
<path d="M315.79 178.949H326.316V189.476H315.79V178.949Z" fill="black"/>
<path d="M284.211 189.473H294.737V199.999H284.211V189.473Z" fill="black"/>
<path d="M294.737 189.473H305.265V199.999H294.737V189.473Z" fill="black"/>
<path d="M305.265 189.473H315.792V199.999H305.265V189.473Z" fill="black"/>
<path d="M136.845 126.316H147.37V136.843H136.845V126.316Z" fill="black"/>
<path d="M221.055 126.316H231.582V136.843H221.055V126.316Z" fill="black"/>
<path d="M136.844 136.844L147.37 136.843V147.37H136.844V136.844Z" fill="black"/>
<path d="M221.055 136.843L231.581 136.844L231.582 147.37H221.055V136.843Z" fill="black"/>
<path d="M147.367 147.369H157.894V157.896H147.367V147.369Z" fill="black"/>
<path d="M231.582 147.369H242.109V157.896H231.582V147.369Z" fill="black"/>
<path d="M200 0.00195312H210.526V10.5284H200V0.00195312Z" fill="black"/>
<path d="M210.526 0.00195312H221.054V10.5284H210.526V0.00195312Z" fill="black"/>
<path d="M231.582 0.00195312H242.109V10.5284H231.582V0.00195312Z" fill="black"/>
<path d="M242.105 0.00195312H252.632V10.5284H242.105V0.00195312Z" fill="black"/>
<path d="M221.055 0H231.581V10.5265H221.055V0Z" fill="black"/>
<path d="M252.632 0.00195312H263.159V10.5284H252.632V0.00195312Z" fill="black"/>
<path d="M178.949 10.5273H189.476V21.0538H178.949V10.5273Z" fill="black"/>
<path d="M189.473 10.5273H200V21.0538H189.473V10.5273Z" fill="black"/>
<path d="M263.159 10.5273H273.687V21.0538H263.159V10.5273Z" fill="black"/>
<path d="M168.422 21.0527H178.949V31.5792H168.422V21.0527Z" fill="black"/>
<path d="M273.684 21.0527H284.21V31.5792H273.684V21.0527Z" fill="black"/>
<path d="M115.789 31.582H126.316V42.1085H115.789V31.582Z" fill="black"/>
<path d="M126.318 31.582H136.843V42.1085H126.318V31.582Z" fill="black"/>
<path d="M136.843 31.582H147.37V42.1085H136.843V31.582Z" fill="black"/>
<path d="M157.895 31.582H168.422V42.1085H157.895V31.582Z" fill="black"/>
<path d="M284.21 31.582H294.737V42.1085H284.21V31.582Z" fill="black"/>
<path d="M105.266 42.1055H115.792V52.6328H105.266V42.1055Z" fill="black"/>
<path d="M147.367 42.1055H157.895V52.6319H147.367V42.1055Z" fill="black"/>
<path d="M284.21 42.1055H294.737V52.6319H284.21V42.1055Z" fill="black"/>
<path d="M94.7383 52.6328H105.266V63.1588H94.7383V52.6328Z" fill="black"/>
<path d="M147.367 52.6319L157.894 52.6328L157.895 63.1588H147.367V52.6319Z" fill="black"/>
<path d="M284.211 52.6328L294.737 52.6319V63.1588H284.21L284.211 52.6328Z" fill="black"/>
<path d="M84.2109 63.1602H94.7383L94.7374 73.6875H84.2109V63.1602Z" fill="black"/>
<path d="M294.737 63.1602H305.265V73.6866H294.737V63.1602Z" fill="black"/>
<path d="M73.6851 73.6855H84.2101V84.212H73.6851V73.6855Z" fill="black"/>
<path d="M294.738 73.6875L305.265 73.6866V84.214H294.737L294.738 73.6875Z" fill="black"/>
<path d="M63.1602 84.2109H73.6875L73.6866 94.7383H63.1602V84.2109Z" fill="black"/>
<path d="M305.265 84.2109H315.792V94.7383H305.266L305.265 84.2109Z" fill="black"/>
<path d="M52.6328 94.7383H63.1602V105.265H52.6328V94.7383Z" fill="black"/>
<path d="M315.79 94.7383H326.316V105.265H315.79V94.7383Z" fill="black"/>
<path d="M52.6328 105.264H63.1602L63.1593 115.791H52.6328V105.264Z" fill="black"/>
<path d="M326.316 105.262H336.843V115.789H326.316V105.262Z" fill="black"/>
<path d="M63.1602 115.79H73.6866V126.317H63.1593L63.1602 115.79Z" fill="black"/>
<path d="M73.6875 115.788H84.214V126.316H73.6875V115.788Z" fill="black"/>
<path d="M84.2109 115.79H94.7374V126.317H84.2109V115.79Z" fill="black"/>
<path d="M94.7383 115.791L105.265 115.79V126.317H94.7374L94.7383 115.791Z" fill="black"/>
<path d="M105.266 115.791L115.792 115.79V126.317H105.265L105.266 115.791Z" fill="black"/>
<path d="M115.789 115.79H126.316V126.317H115.789V115.79Z" fill="black"/>
<path d="M126.318 115.79H136.843V126.317H126.318V115.79Z" fill="black"/>
<path d="M136.844 115.791L147.37 115.79V126.317H136.843L136.844 115.791Z" fill="black"/>
<path d="M147.367 115.79H157.894V126.317H147.367V115.79Z" fill="black"/>
<path d="M157.895 115.791L168.421 115.79L168.422 126.317H157.894L157.895 115.791Z" fill="black"/>
<path d="M178.949 115.79H189.476V126.317H178.948L178.949 115.79Z" fill="black"/>
<path d="M189.473 115.79H199.999V126.317H189.473V115.79Z" fill="black"/>
<path d="M200 115.791L210.526 115.79V126.317H199.999L200 115.791Z" fill="black"/>
<path d="M210.528 115.791H221.054V126.318H210.528V115.791Z" fill="black"/>
<path d="M231.582 115.79H242.109V126.317H231.582V115.79Z" fill="black"/>
<path d="M242.105 115.79H252.632L252.633 126.317H242.105V115.79Z" fill="black"/>
<path d="M221.055 115.788H231.581V126.316L221.055 126.316V115.788Z" fill="black"/>
<path d="M263.16 115.79H273.687V126.317H263.159L263.16 115.79Z" fill="black"/>
<path d="M273.684 115.79H284.21V126.317H273.684V115.79Z" fill="black"/>
<path d="M284.211 115.791L294.737 115.79V126.317H284.21L284.211 115.791Z" fill="black"/>
<path d="M294.738 126.316H305.265V136.843H294.738V126.316Z" fill="black"/>
<path d="M157.894 126.316H168.422V136.843H157.894V126.316Z" fill="black"/>
<path d="M178.948 126.316H189.476V136.843H178.948V126.316Z" fill="black"/>
<path d="M242.105 126.316H252.632V136.843H242.105V126.316Z" fill="black"/>
<path d="M263.159 126.316H273.687V136.843H263.159V126.316Z" fill="black"/>
<path d="M305.266 136.843H315.792V147.37H305.266V136.843Z" fill="black"/>
<path d="M336.843 126.316L347.37 126.316V136.843L336.843 136.843V126.316Z" fill="black"/>
<path d="M157.895 136.844H168.421L168.422 147.37H157.894L157.895 136.844Z" fill="black"/>
<path d="M178.949 136.844L189.476 136.843V147.37H178.948L178.949 136.844Z" fill="black"/>
<path d="M242.105 136.843H252.632L252.633 147.37H242.105V136.843Z" fill="black"/>
<path d="M263.16 136.844L273.687 136.843V147.37H263.159L263.16 136.844Z" fill="black"/>
<path d="M168.422 147.369H178.948V157.896H168.422V147.369Z" fill="black"/>
<path d="M252.633 147.369H263.159V157.896H252.633V147.369Z" fill="black"/>
<path d="M273.684 147.369H284.21V157.896H273.684V147.369Z" fill="black"/>
<path d="M284.21 147.369H294.737V157.896H284.21V147.369Z" fill="black"/>
<path d="M294.737 147.369H305.265V157.896H294.737V147.369Z" fill="black"/>
<path d="M263.16 157.898H273.687V168.425H263.16V157.898Z" fill="black"/>
<path d="M305.265 157.898H315.792V168.425H305.265V157.898Z" fill="black"/>
<path d="M263.16 168.422H273.687V178.948H263.16V168.422Z" fill="black"/>
<path d="M305.266 147.367H315.792V157.894H305.266V147.367Z" fill="black"/>
<path d="M105.265 63.1602H115.792V73.6866H105.265V63.1602Z" fill="black"/>
<path d="M105.266 73.6875L115.792 73.6866V84.214H105.265L105.266 73.6875Z" fill="black"/>
<path d="M126.316 63.1562H136.843V73.6827H126.316V63.1562Z" fill="black"/>
<path d="M126.316 73.6855H136.843V84.212H126.316V73.6855Z" fill="black"/>
<path d="M315.79 147.367H326.316V157.894H315.79V147.367Z" fill="#9ABF3E"/>
<path d="M315.789 126.316H326.316V136.844L315.789 136.843V126.316Z" fill="#9ABF3E"/>
<path d="M326.316 147.367H336.843V157.895H326.316L326.316 147.367Z" fill="#9ABF3E"/>
<path d="M315.789 168.422H326.316V178.949L315.789 178.948V168.422Z" fill="#9ABF3E"/>
<path d="M294.738 178.947H305.265V189.474H294.738V178.947Z" fill="#9ABF3E"/>
<path d="M200 21.0527H210.526V31.5792H200V21.0527Z" fill="#E1F235"/>
<path d="M210.528 21.053H221.054V31.5794H210.528V21.053Z" fill="#E1F235"/>
<path d="M231.582 21.0527H242.109V31.5792H231.582V21.0527Z" fill="#E1F235"/>
<path d="M200 31.582H210.526V42.1085H200V31.582Z" fill="#E1F235"/>
<path d="M178.949 42.1055H189.476V52.6319H178.949V42.1055Z" fill="#E1F235"/>
<path d="M168.422 52.6328H178.948V63.1588H168.422V52.6328Z" fill="#E1F235"/>
<path d="M263.16 63.1602H273.687V73.6866H263.16V63.1602Z" fill="#E1F235"/>
<path d="M147.367 84.2109H157.894V94.7374H147.367V84.2109Z" fill="#E1F235"/>
<path d="M284.211 84.2109H294.737V94.7374H284.211V84.2109Z" fill="#E1F235"/>
<path d="M10.5273 105.264H21.0538V115.79H10.5273V105.264Z" fill="#DA7B7F"/>
<path d="M10.5273 115.79H21.0538V126.317H10.5273V115.79Z" fill="#DA7B7F"/>
<path d="M52.6328 115.791H63.1593V126.317H52.6328V115.791Z" fill="#DA7B7F"/>
<path d="M21.0547 115.789H31.5812V126.316H21.0547V115.789Z" fill="#DA7B7F"/>
<path d="M31.582 126.316H42.1085V136.843H31.582V126.316Z" fill="#DA7B7F"/>
<path d="M42.1055 126.316H52.6319V136.843H42.1055V126.316Z" fill="#DA7B7F"/>
<path d="M21.0547 126.316H31.5812V136.844L21.0547 136.843V126.316Z" fill="#DA7B7F"/>
<path d="M200 10.5273H210.526V21.0538H200V10.5273Z" fill="#C2DE7B"/>
<path d="M252.633 10.5273H263.159V21.0538H252.633V10.5273Z" fill="#C2DE7B"/>
<path d="M178.949 21.0527H189.476V31.5792H178.949V21.0527Z" fill="#C2DE7B"/>
<path d="M263.16 21.0527H273.687V31.5792H263.16V21.0527Z" fill="#C2DE7B"/>
<path d="M168.422 31.582H178.948V42.1085H168.422V31.582Z" fill="#C2DE7B"/>
<path d="M273.684 31.582H284.21V42.1085H273.684V31.582Z" fill="#C2DE7B"/>
<path d="M136.845 42.1055H147.37V52.6319H136.845V42.1055Z" fill="#C2DE7B"/>
<path d="M157.895 42.1055H168.421V52.6319H157.895V42.1055Z" fill="#C2DE7B"/>
<path d="M273.684 42.1055H284.21V52.6319H273.684V42.1055Z" fill="#C2DE7B"/>
<path d="M136.844 52.6328L147.37 52.6319V63.1588H136.844V52.6328Z" fill="#C2DE7B"/>
<path d="M284.211 63.1602H294.737V73.6866H284.211V63.1602Z" fill="#C2DE7B"/>
<path d="M284.211 73.6866H294.737V84.214H284.211V73.6866Z" fill="#C2DE7B"/>
<path d="M294.737 84.2109H305.265V94.7374L294.738 94.7383L294.737 84.2109Z" fill="#C2DE7B"/>
<path d="M305.266 94.7383H315.792V105.265H305.266V94.7383Z" fill="#C2DE7B"/>
<path d="M315.79 105.264H326.316V115.79H315.79V105.264Z" fill="#C2DE7B"/>
<path d="M326.317 126.316H336.843V136.843H326.317V126.316Z" fill="#C2DE7B"/>
<path d="M0 94.7383H10.5265V105.265H0V94.7383Z" fill="black"/>
<path d="M10.5265 94.7383H21.0538V105.265H10.5265V94.7383Z" fill="black"/>
<path d="M0 105.264H10.5273L10.5265 115.791L0 115.79V105.264Z" fill="black"/>
<path d="M21.0547 105.262H31.5812V115.789H21.0547V105.262Z" fill="black"/>
<path d="M0 115.79L10.5265 115.791L10.5273 126.317H0V115.79Z" fill="black"/>
<path d="M31.582 115.791H42.1085V126.317H31.582V115.791Z" fill="black"/>
<path d="M42.1055 115.791H52.6328V126.317H42.1055V115.791Z" fill="black"/>
<path d="M10.5273 126.316H21.0538L21.0547 136.843H10.5273V126.316Z" fill="black"/>
<path d="M52.6319 126.316H63.1593V136.843H52.6319V126.316Z" fill="black"/>
<path d="M31.582 136.843H42.1085V147.37H31.582V136.843Z" fill="black"/>
<path d="M42.1055 136.843H52.6319V147.37H42.1055V136.843Z" fill="black"/>
<path d="M21.0547 136.843L31.5812 136.844L31.582 147.37H21.0547V136.843Z" fill="black"/>
<path d="M147.367 126.316H157.894V136.843H147.367V126.316Z" fill="#76922F"/>
<path d="M231.582 126.316H242.109V136.843H231.582V126.316Z" fill="#76922F"/>
<path d="M147.367 136.843H157.894V147.37H147.367V136.843Z" fill="#76922F"/>
<path d="M231.582 136.843H242.109V147.37H231.582V136.843Z" fill="#76922F"/>
<path d="M63.1602 94.7383H73.6866V105.265H63.1602V94.7383Z" fill="#9ABF3E"/>
<path d="M294.738 115.789H305.265V126.316H294.738V115.789Z" fill="#9ABF3E"/>
<path d="M63.1602 105.264H73.6866V115.79H63.1602V105.264Z" fill="#9ABF3E"/>
<path d="M73.6875 105.262H84.214V115.788H73.6875V105.262Z" fill="#9ABF3E"/>
<path d="M84.2109 105.264H94.7374V115.79H84.2109V105.264Z" fill="#9ABF3E"/>
<path d="M94.7374 105.264H105.265V115.79L94.7383 115.791L94.7374 105.264Z" fill="#9ABF3E"/>
<path d="M105.265 105.264H115.792V115.79L105.266 115.791L105.265 105.264Z" fill="#9ABF3E"/>
<path d="M115.789 105.264H126.316V115.79H115.789V105.264Z" fill="#9ABF3E"/>
<path d="M126.318 105.264H136.843V115.79H126.318V105.264Z" fill="#9ABF3E"/>
<path d="M136.843 105.264H147.37V115.79L136.844 115.791L136.843 105.264Z" fill="#9ABF3E"/>
<path d="M147.367 105.264H157.894V115.79H147.367V105.264Z" fill="#9ABF3E"/>
<path d="M157.894 105.264H168.421V115.79L157.895 115.791L157.894 105.264Z" fill="#9ABF3E"/>
<path d="M178.949 105.264H189.476V115.79H178.949V105.264Z" fill="#9ABF3E"/>
<path d="M189.473 105.264H199.999V115.79H189.473V105.264Z" fill="#9ABF3E"/>
<path d="M199.999 105.264H210.526V115.79L200 115.791L199.999 105.264Z" fill="#9ABF3E"/>
<path d="M210.526 105.264H221.054V115.79H210.526V105.264Z" fill="#9ABF3E"/>
<path d="M231.582 105.264H242.109V115.79H231.582V105.264Z" fill="#9ABF3E"/>
<path d="M242.105 105.264H252.632V115.79H242.105V105.264Z" fill="#9ABF3E"/>
<path d="M221.055 105.262H231.581V115.788H221.055V105.262Z" fill="#9ABF3E"/>
<path d="M263.16 105.264H273.687V115.79H263.16V105.264Z" fill="#9ABF3E"/>
<path d="M273.684 105.264H284.21V115.79H273.684V105.264Z" fill="#9ABF3E"/>
<path d="M168.422 115.791H178.948V126.317H168.422V115.791Z" fill="#9ABF3E"/>
<path d="M252.633 115.791H263.159V126.317H252.633V115.791Z" fill="#9ABF3E"/>
<path d="M168.422 126.316H178.948V136.843H168.422V126.316Z" fill="#9ABF3E"/>
<path d="M252.634 126.316H263.159V136.843H252.634V126.316Z" fill="#9ABF3E"/>
<path d="M168.422 136.843H178.948V147.37H168.422V136.843Z" fill="#9ABF3E"/>
<path d="M252.633 136.844L263.159 136.843V147.37H252.633V136.844Z" fill="#9ABF3E"/>
<path d="M273.684 157.898H284.21V168.425H273.684V157.898Z" fill="#9ABF3E"/>
<path d="M273.684 168.422H284.21V178.948H273.684V168.422Z" fill="#9ABF3E"/>
<path d="M284.211 178.949H294.737V189.476H284.211V178.949Z" fill="#9ABF3E"/>
<path d="M305.266 178.949H315.792V189.476H305.266V178.949Z" fill="#9ABF3E"/>
<path d="M210.526 10.5273H221.054L221.054 21.053H210.528L210.526 10.5273Z" fill="#ADD24F"/>
<path d="M231.582 10.5273H242.109V21.0538H231.582V10.5273Z" fill="#ADD24F"/>
<path d="M242.105 10.5273H252.633V21.0538H242.105V10.5273Z" fill="#ADD24F"/>
<path d="M221.055 10.5265H231.581L231.582 21.0538H221.055V10.5265Z" fill="#ADD24F"/>
<path d="M189.473 21.0527H200V31.5792H189.473V21.0527Z" fill="#ADD24F"/>
<path d="M242.105 21.0527H252.632V31.5792H242.105V21.0527Z" fill="#ADD24F"/>
<path d="M221.055 21.0508H231.581V31.5768H221.055V21.0508Z" fill="#ADD24F"/>
<path d="M252.632 21.0527H263.16V31.5792H252.632V21.0527Z" fill="#ADD24F"/>
<path d="M178.948 31.582H189.476V42.1085H178.948V31.582Z" fill="#ADD24F"/>
<path d="M189.473 31.582H200V42.1085H189.473V31.582Z" fill="#ADD24F"/>
<path d="M210.528 31.5794H221.054L221.054 42.1065H210.528L210.528 31.5794Z" fill="#ADD24F"/>
<path d="M231.582 31.582H242.109V42.1085H231.582V31.582Z" fill="#ADD24F"/>
<path d="M242.105 31.582H252.632V42.1085H242.105V31.582Z" fill="#ADD24F"/>
<path d="M221.055 31.5781H231.581V42.1046H221.055V31.5781Z" fill="#ADD24F"/>
<path d="M252.632 31.582H263.159V42.1085H252.632V31.582Z" fill="#ADD24F"/>
<path d="M263.159 31.582H273.687V42.1085H263.159V31.582Z" fill="#ADD24F"/>
<path d="M115.789 42.1055H126.316V52.6319H115.789V42.1055Z" fill="#ADD24F"/>
<path d="M126.316 42.1055H136.843V52.6319L126.316 52.6328L126.316 42.1055Z" fill="#ADD24F"/>
<path d="M168.421 42.1055H178.949L178.948 52.6328H168.422L168.421 42.1055Z" fill="#ADD24F"/>
<path d="M189.473 42.1055H199.999V52.6319H189.473V42.1055Z" fill="#ADD24F"/>
<path d="M199.999 42.1055H210.526V52.6319L200 52.6328L199.999 42.1055Z" fill="#ADD24F"/>
<path d="M210.526 42.1055H221.054V52.6319H210.526V42.1055Z" fill="#ADD24F"/>
<path d="M231.582 42.1055H242.109V52.6319H231.582V42.1055Z" fill="#ADD24F"/>
<path d="M242.105 42.1055H252.632V52.6319H242.105V42.1055Z" fill="#ADD24F"/>
<path d="M221.055 42.1046H231.581V52.6328H221.055V42.1046Z" fill="#ADD24F"/>
<path d="M252.634 42.1055H263.159V52.6319H252.634V42.1055Z" fill="#ADD24F"/>
<path d="M263.159 42.1055H273.687V52.6319L263.16 52.6328L263.159 42.1055Z" fill="#ADD24F"/>
<path d="M105.266 52.6328H115.792V63.1588H105.266V52.6328Z" fill="#ADD24F"/>
<path d="M115.791 52.6328L126.316 52.6319V63.1588H115.791V52.6328Z" fill="#ADD24F"/>
<path d="M126.316 52.6328L136.843 52.6319L136.844 63.1588H126.316L126.316 52.6328Z" fill="#ADD24F"/>
<path d="M157.895 52.6319H168.421L168.422 63.1588H157.895V52.6319Z" fill="#ADD24F"/>
<path d="M178.949 52.6319H189.476V63.1588H178.948L178.949 52.6319Z" fill="#ADD24F"/>
<path d="M189.473 52.6319H199.999V63.1588H189.473V52.6319Z" fill="#ADD24F"/>
<path d="M200 52.6328L210.526 52.6319V63.1588H199.999L200 52.6328Z" fill="#ADD24F"/>
<path d="M210.529 52.6328L221.054 52.6319V63.1588H210.529V52.6328Z" fill="#ADD24F"/>
<path d="M231.582 52.6319H242.109V63.1588H231.582V52.6319Z" fill="#ADD24F"/>
<path d="M242.105 52.6319H252.632V63.1588H242.105V52.6319Z" fill="#ADD24F"/>
<path d="M221.055 52.6328H231.581L231.582 63.1588H221.054L221.055 52.6328Z" fill="#ADD24F"/>
<path d="M252.633 52.6328L263.159 52.6319V63.1588H252.632L252.633 52.6328Z" fill="#ADD24F"/>
<path d="M263.16 52.6328L273.687 52.6319V63.1588H263.159L263.16 52.6328Z" fill="#ADD24F"/>
<path d="M273.684 52.6319H284.21V63.1588H273.684V52.6319Z" fill="#ADD24F"/>
<path d="M94.7383 63.1602H105.265V73.6866H94.7383V63.1602Z" fill="#ADD24F"/>
<path d="M115.789 63.1602H126.316V73.6866H115.789V63.1602Z" fill="#ADD24F"/>
<path d="M136.844 63.1602H147.37V73.6866H136.844V63.1602Z" fill="#ADD24F"/>
<path d="M147.367 63.1602H157.894V73.6866H147.367V63.1602Z" fill="#ADD24F"/>
<path d="M157.894 63.1602H168.421V73.6866L157.895 73.6875L157.894 63.1602Z" fill="#ADD24F"/>
<path d="M168.421 63.1602H178.948V73.6866L168.422 73.6875L168.421 63.1602Z" fill="#ADD24F"/>
<path d="M178.948 63.1602H189.476V73.6866L178.949 73.6875L178.948 63.1602Z" fill="#ADD24F"/>
<path d="M189.473 63.1602H199.999V73.6866H189.473V63.1602Z" fill="#ADD24F"/>
<path d="M199.999 63.1602H210.526V73.6866L200 73.6875L199.999 63.1602Z" fill="#ADD24F"/>
<path d="M210.526 63.1602H221.054V73.6866H210.526V63.1602Z" fill="#ADD24F"/>
<path d="M231.582 63.1602H242.109V73.6866H231.582V63.1602Z" fill="#ADD24F"/>
<path d="M242.105 63.1602H252.632V73.6866H242.105V63.1602Z" fill="#ADD24F"/>
<path d="M221.055 63.1562H231.581V73.6827H221.055V63.1562Z" fill="#ADD24F"/>
<path d="M252.632 63.1602H263.16L263.159 73.6875H252.633L252.632 63.1602Z" fill="#ADD24F"/>
<path d="M273.684 63.1602H284.211L284.21 73.6875L273.684 73.6866V63.1602Z" fill="#ADD24F"/>
<path d="M84.2109 73.6875H94.7374V84.214H84.2109V73.6875Z" fill="#ADD24F"/>
<path d="M94.7383 73.6866H105.265V84.214H94.7374L94.7383 73.6866Z" fill="#ADD24F"/>
<path d="M115.789 73.6866H126.316V84.214H115.789V73.6866Z" fill="#ADD24F"/>
<path d="M136.844 73.6866H147.37V84.214H136.844V73.6866Z" fill="#ADD24F"/>
<path d="M147.367 73.6866H157.894V84.214H147.367V73.6866Z" fill="#ADD24F"/>
<path d="M157.895 73.6875L168.421 73.6866V84.214H157.894L157.895 73.6875Z" fill="#ADD24F"/>
<path d="M168.422 73.6875L178.948 73.6866V84.214H168.421L168.422 73.6875Z" fill="#ADD24F"/>
<path d="M178.949 73.6875L189.476 73.6866V84.214H178.948L178.949 73.6875Z" fill="#ADD24F"/>
<path d="M189.473 73.6866H199.999V84.214H189.473V73.6866Z" fill="#ADD24F"/>
<path d="M200 73.6875L210.526 73.6866V84.214H199.999L200 73.6875Z" fill="#ADD24F"/>
<path d="M210.528 73.6855H221.054V84.212H210.528V73.6855Z" fill="#ADD24F"/>
<path d="M231.582 73.6866H242.109V84.214H231.582V73.6866Z" fill="#ADD24F"/>
<path d="M242.105 73.6866H252.632V84.214H242.105V73.6866Z" fill="#ADD24F"/>
<path d="M221.054 73.6855H231.581V84.212H221.054V73.6855Z" fill="#ADD24F"/>
<path d="M252.633 73.6875H263.159V84.214H252.632L252.633 73.6875Z" fill="#ADD24F"/>
<path d="M263.16 73.6866H273.687V84.214H263.159L263.16 73.6866Z" fill="#ADD24F"/>
<path d="M273.684 73.6866L284.21 73.6875L284.211 84.214H273.684V73.6866Z" fill="#ADD24F"/>
<path d="M73.6875 84.2109H84.214V94.7374H73.6875V84.2109Z" fill="#ADD24F"/>
<path d="M94.7383 84.2109H105.265V94.7374H94.7383V84.2109Z" fill="#ADD24F"/>
<path d="M105.265 84.2109H115.792V94.7374L105.266 94.7383L105.265 84.2109Z" fill="#ADD24F"/>
<path d="M115.789 84.2109H126.316V94.7374H115.789V84.2109Z" fill="#ADD24F"/>
<path d="M126.318 84.2109H136.843V94.7374H126.318V84.2109Z" fill="#ADD24F"/>
<path d="M157.894 84.2109H168.421V94.7374L157.895 94.7383L157.894 84.2109Z" fill="#ADD24F"/>
<path d="M168.421 84.2109H178.948V94.7374L168.422 94.7383L168.421 84.2109Z" fill="#ADD24F"/>
<path d="M178.948 84.2109H189.476V94.7374L178.949 94.7383L178.948 84.2109Z" fill="#ADD24F"/>
<path d="M189.473 84.2109H199.999V94.7374H189.473V84.2109Z" fill="#ADD24F"/>
<path d="M199.999 84.2109H210.526V94.7374L200 94.7383L199.999 84.2109Z" fill="#ADD24F"/>
<path d="M210.528 84.2109H221.054V94.7374H210.528V84.2109Z" fill="#ADD24F"/>
<path d="M231.582 84.2109H242.109V94.7374H231.582V84.2109Z" fill="#ADD24F"/>
<path d="M242.105 84.2109H252.632V94.7374H242.105V84.2109Z" fill="#ADD24F"/>
<path d="M221.054 84.2109H231.582V94.7374H221.054V84.2109Z" fill="#ADD24F"/>
<path d="M252.632 84.2109H263.159V94.7374L252.633 94.7383L252.632 84.2109Z" fill="#ADD24F"/>
<path d="M263.159 84.2109H273.687V94.7374L263.16 94.7383L263.159 84.2109Z" fill="#ADD24F"/>
<path d="M273.684 84.2109H284.211L284.21 94.7383L273.684 94.7374V84.2109Z" fill="#ADD24F"/>
<path d="M73.6851 94.7363H84.2101V105.263H73.6851V94.7363Z" fill="#ADD24F"/>
<path d="M84.2109 94.7383H94.7374V105.265H84.2109V94.7383Z" fill="#ADD24F"/>
<path d="M94.7383 94.7374H105.265V105.265H94.7374L94.7383 94.7374Z" fill="#ADD24F"/>
<path d="M105.266 94.7383L115.792 94.7374V105.265H105.265L105.266 94.7383Z" fill="#ADD24F"/>
<path d="M115.789 94.7374H126.316V105.265H115.789V94.7374Z" fill="#ADD24F"/>
<path d="M126.318 94.7374H136.843V105.265H126.318V94.7374Z" fill="#ADD24F"/>
<path d="M136.844 94.7383H147.37V105.265H136.843L136.844 94.7383Z" fill="#ADD24F"/>
<path d="M147.367 94.7374H157.894V105.265H147.367V94.7374Z" fill="#ADD24F"/>
<path d="M157.895 94.7383L168.421 94.7374V105.265H157.894L157.895 94.7383Z" fill="#ADD24F"/>
<path d="M168.422 94.7383L178.948 94.7374V105.265H168.421L168.422 94.7383Z" fill="#ADD24F"/>
<path d="M178.949 94.7383L189.476 94.7374V105.265H178.948L178.949 94.7383Z" fill="#ADD24F"/>
<path d="M189.473 94.7374H199.999V105.265H189.473V94.7374Z" fill="#ADD24F"/>
<path d="M200 94.7383L210.526 94.7374V105.265H199.999L200 94.7383Z" fill="#ADD24F"/>
<path d="M210.528 94.7374H221.054L221.054 105.265H210.528L210.528 94.7374Z" fill="#ADD24F"/>
<path d="M231.582 94.7374H242.109V105.265H231.582V94.7374Z" fill="#ADD24F"/>
<path d="M242.105 94.7374H252.632V105.265H242.105V94.7374Z" fill="#ADD24F"/>
<path d="M221.055 94.7363H231.581V105.263H221.055V94.7363Z" fill="#ADD24F"/>
<path d="M252.633 94.7383L263.159 94.7374V105.265H252.632L252.633 94.7383Z" fill="#ADD24F"/>
<path d="M263.16 94.7383L273.687 94.7374V105.265H263.159L263.16 94.7383Z" fill="#ADD24F"/>
<path d="M273.684 94.7374L284.21 94.7383V105.265H273.684V94.7374Z" fill="#ADD24F"/>
<path d="M284.211 94.7374H294.737V105.265H284.21L284.211 94.7374Z" fill="#ADD24F"/>
<path d="M294.738 94.7383L305.265 94.7374L305.266 105.265H294.737L294.738 94.7383Z" fill="#ADD24F"/>
<path d="M168.421 105.264H178.949L178.948 115.791H168.422L168.421 105.264Z" fill="#ADD24F"/>
<path d="M252.632 105.264H263.16L263.159 115.791H252.633L252.632 105.264Z" fill="#ADD24F"/>
<path d="M284.21 105.264H294.737V115.79L284.211 115.791L284.21 105.264Z" fill="#ADD24F"/>
<path d="M294.737 105.264H305.265V115.79H294.737V105.264Z" fill="#ADD24F"/>
<path d="M305.265 105.264H315.792V115.79L305.266 115.791L305.265 105.264Z" fill="#ADD24F"/>
<path d="M305.266 126.316H315.792V136.843H305.266V126.316Z" fill="#ADD24F"/>
<path d="M305.266 115.791L315.792 115.79V126.317H305.266V115.791Z" fill="#ADD24F"/>
<path d="M315.79 115.79H326.316V126.317H315.79V115.79Z" fill="#ADD24F"/>
<path d="M315.79 136.844H326.316V147.37H315.79V136.844Z" fill="#ADD24F"/>
<path d="M326.316 136.844L336.843 136.843V147.37H326.316V136.844Z" fill="#ADD24F"/>
<path d="M284.21 157.898H294.737V168.425H284.21V157.898Z" fill="#ADD24F"/>
<path d="M294.737 157.898H305.265V168.425H294.737V157.898Z" fill="#ADD24F"/>
<path d="M315.79 157.898H326.316V168.425H315.79V157.898Z" fill="#ADD24F"/>
<path d="M326.316 157.895H336.843V168.421H326.316V157.895Z" fill="#ADD24F"/>
<path d="M305.266 168.422H315.792V178.949L305.266 178.948V168.422Z" fill="#ADD24F"/>
<path d="M284.21 168.422H294.737V178.949H284.211L284.21 168.422Z" fill="#ADD24F"/>
<path d="M136.843 84.2109H147.37V94.7383H136.844L136.843 84.2109Z" fill="#ADD24F"/>
<path d="M84.2109 84.2109H94.7383L94.7374 94.7383H84.2109V84.2109Z" fill="#464646"/>
<path d="M326.316 115.789H336.843V126.316L326.316 126.316V115.789Z" fill="black"/>
<path d="M336.844 136.844H347.37V147.37H336.844V136.844Z" fill="black"/>
<path d="M336.844 147.369H347.37V157.896H336.844V147.369Z" fill="black"/>
<path d="M336.844 157.898H347.37V168.425H336.844V157.898Z" fill="black"/>
<path d="M326.317 168.422L336.843 168.421V178.948H326.317V168.422Z" fill="black"/>
<path d="M294.737 168.422H305.265V178.948H294.738L294.737 168.422Z" fill="black"/>
<path d="M273.684 178.948H284.21L284.211 189.476H273.684V178.948Z" fill="black"/>
<path d="M315.79 178.949H326.316V189.476H315.79V178.949Z" fill="black"/>
<path d="M284.211 189.473H294.737V199.999H284.211V189.473Z" fill="black"/>
<path d="M294.737 189.473H305.265V199.999H294.737V189.473Z" fill="black"/>
<path d="M305.265 189.473H315.792V199.999H305.265V189.473Z" fill="black"/>
<path d="M136.845 126.316H147.37V136.843H136.845V126.316Z" fill="black"/>
<path d="M221.055 126.316L231.581 126.316V136.844L221.055 136.843V126.316Z" fill="black"/>
<path d="M136.844 136.844L147.37 136.843V147.37H136.844V136.844Z" fill="black"/>
<path d="M221.055 136.843L231.581 136.844L231.582 147.37H221.055V136.843Z" fill="black"/>
<path d="M147.367 147.369H157.894V157.896H147.367V147.369Z" fill="black"/>
<path d="M231.582 147.369H242.109V157.896H231.582V147.369Z" fill="black"/>
<path d="M200 0.00195312H210.526V10.5284H200V0.00195312Z" fill="black"/>
<path d="M210.526 0.00195312H221.054V10.5284H210.526V0.00195312Z" fill="black"/>
<path d="M231.582 0.00195312H242.109V10.5284H231.582V0.00195312Z" fill="black"/>
<path d="M242.105 0.00195312H252.632V10.5284H242.105V0.00195312Z" fill="black"/>
<path d="M221.055 0H231.581V10.5265H221.055V0Z" fill="black"/>
<path d="M252.632 0.00195312H263.159V10.5284H252.632V0.00195312Z" fill="black"/>
<path d="M178.949 10.5273H189.476V21.0538H178.949V10.5273Z" fill="black"/>
<path d="M189.473 10.5273H200V21.0538H189.473V10.5273Z" fill="black"/>
<path d="M263.159 10.5273H273.687V21.0538H263.159V10.5273Z" fill="black"/>
<path d="M168.422 21.0527H178.949V31.5792H168.422V21.0527Z" fill="black"/>
<path d="M273.684 21.0527H284.21V31.5792H273.684V21.0527Z" fill="black"/>
<path d="M115.789 31.582H126.316V42.1085H115.789V31.582Z" fill="black"/>
<path d="M126.318 31.582H136.843V42.1085H126.318V31.582Z" fill="black"/>
<path d="M136.843 31.582H147.37V42.1085H136.843V31.582Z" fill="black"/>
<path d="M157.895 31.582H168.422V42.1085H157.895V31.582Z" fill="black"/>
<path d="M284.21 31.582H294.737V42.1085H284.21V31.582Z" fill="black"/>
<path d="M105.266 42.1055H115.792V52.6328H105.266V42.1055Z" fill="black"/>
<path d="M147.367 42.1055H157.895L157.894 52.6328L147.367 52.6319V42.1055Z" fill="black"/>
<path d="M284.21 42.1055H294.737V52.6319L284.211 52.6328L284.21 42.1055Z" fill="black"/>
<path d="M94.7383 52.6328H105.266V63.1588H94.7383V52.6328Z" fill="black"/>
<path d="M147.367 52.6319L157.894 52.6328L157.895 63.1588H147.367V52.6319Z" fill="black"/>
<path d="M284.211 52.6328L294.737 52.6319V63.1588H284.21L284.211 52.6328Z" fill="black"/>
<path d="M84.2109 63.1602H94.7383L94.7374 73.6875H84.2109V63.1602Z" fill="black"/>
<path d="M294.737 63.1602H305.265V73.6866L294.738 73.6875L294.737 63.1602Z" fill="black"/>
<path d="M73.6851 73.6855H84.2101V84.212H73.6851V73.6855Z" fill="black"/>
<path d="M294.738 73.6875L305.265 73.6866V84.214H294.737L294.738 73.6875Z" fill="black"/>
<path d="M63.1602 84.2109H73.6875L73.6866 94.7383H63.1602V84.2109Z" fill="black"/>
<path d="M305.265 84.2109H315.792V94.7383H305.266L305.265 84.2109Z" fill="black"/>
<path d="M52.6328 94.7383H63.1602V105.265H52.6328V94.7383Z" fill="black"/>
<path d="M315.79 94.7383H326.316V105.265H315.79V94.7383Z" fill="black"/>
<path d="M52.6328 105.264H63.1602L63.1593 115.791H52.6328V105.264Z" fill="black"/>
<path d="M326.316 105.262H336.843V115.789H326.316V105.262Z" fill="black"/>
<path d="M63.1602 115.79H73.6866V126.317H63.1593L63.1602 115.79Z" fill="black"/>
<path d="M73.6875 115.788H84.214V126.316H73.6875V115.788Z" fill="black"/>
<path d="M84.2109 115.79H94.7374V126.317H84.2109V115.79Z" fill="black"/>
<path d="M94.7383 115.791L105.265 115.79V126.317H94.7374L94.7383 115.791Z" fill="black"/>
<path d="M105.266 115.791L115.792 115.79V126.317H105.265L105.266 115.791Z" fill="black"/>
<path d="M115.789 115.79H126.316V126.317H115.789V115.79Z" fill="black"/>
<path d="M126.318 115.79H136.843V126.317H126.318V115.79Z" fill="black"/>
<path d="M136.844 115.791L147.37 115.79V126.317H136.843L136.844 115.791Z" fill="black"/>
<path d="M147.367 115.79H157.894V126.317H147.367V115.79Z" fill="black"/>
<path d="M157.895 115.791L168.421 115.79L168.422 126.317H157.894L157.895 115.791Z" fill="black"/>
<path d="M178.949 115.79H189.476V126.317H178.948L178.949 115.79Z" fill="black"/>
<path d="M189.473 115.79H199.999V126.317H189.473V115.79Z" fill="black"/>
<path d="M200 115.791L210.526 115.79V126.317H199.999L200 115.791Z" fill="black"/>
<path d="M210.528 115.791H221.054V126.318H210.528V115.791Z" fill="black"/>
<path d="M231.582 115.79H242.109V126.317H231.582V115.79Z" fill="black"/>
<path d="M242.105 115.79H252.632L252.633 126.317H242.105V115.79Z" fill="black"/>
<path d="M221.055 115.788H231.581V126.316L221.055 126.316V115.788Z" fill="black"/>
<path d="M263.16 115.79H273.687V126.317H263.159L263.16 115.79Z" fill="black"/>
<path d="M273.684 115.79H284.21V126.317H273.684V115.79Z" fill="black"/>
<path d="M284.211 115.791L294.737 115.79V126.317H284.21L284.211 115.791Z" fill="black"/>
<path d="M294.738 126.316H305.265V136.843H294.738V126.316Z" fill="black"/>
<path d="M157.894 126.316H168.422L168.421 136.844H157.895L157.894 126.316Z" fill="black"/>
<path d="M178.948 126.316H189.476V136.843L178.949 136.844L178.948 126.316Z" fill="black"/>
<path d="M242.105 126.316H252.632V136.843H242.105V126.316Z" fill="black"/>
<path d="M263.159 126.316H273.687V136.843L263.16 136.844L263.159 126.316Z" fill="black"/>
<path d="M305.266 136.843H315.792V147.37H305.266V136.843Z" fill="black"/>
<path d="M336.843 126.316L347.37 126.316V136.843L336.843 136.843V126.316Z" fill="black"/>
<path d="M157.895 136.844H168.421L168.422 147.37H157.894L157.895 136.844Z" fill="black"/>
<path d="M178.949 136.844L189.476 136.843V147.37H178.948L178.949 136.844Z" fill="black"/>
<path d="M242.105 136.843H252.632L252.633 147.37H242.105V136.843Z" fill="black"/>
<path d="M263.16 136.844L273.687 136.843V147.37H263.159L263.16 136.844Z" fill="black"/>
<path d="M168.422 147.369H178.948V157.896H168.422V147.369Z" fill="black"/>
<path d="M252.633 147.369H263.159V157.896H252.633V147.369Z" fill="black"/>
<path d="M273.684 147.369H284.21V157.896H273.684V147.369Z" fill="black"/>
<path d="M284.21 147.369H294.737V157.896H284.21V147.369Z" fill="black"/>
<path d="M294.737 147.369H305.265V157.896H294.737V147.369Z" fill="black"/>
<path d="M263.16 157.898H273.687V168.425H263.16V157.898Z" fill="black"/>
<path d="M305.265 157.898H315.792V168.425H305.265V157.898Z" fill="black"/>
<path d="M263.16 168.422H273.687V178.948H263.16V168.422Z" fill="black"/>
<path d="M305.266 147.367H315.792V157.894H305.266V147.367Z" fill="black"/>
<path d="M105.265 63.1602H115.792V73.6866L105.266 73.6875L105.265 63.1602Z" fill="black"/>
<path d="M105.266 73.6875L115.792 73.6866V84.214H105.265L105.266 73.6875Z" fill="black"/>
<path d="M126.316 63.1562H136.843V73.6827H126.316V63.1562Z" fill="black"/>
<path d="M126.316 73.6855H136.843V84.212H126.316V73.6855Z" fill="black"/>
<path d="M315.79 147.367H326.316V157.894H315.79V147.367Z" fill="#9ABF3E"/>
<path d="M315.789 126.316H326.316V136.844L315.789 136.843V126.316Z" fill="#9ABF3E"/>
<path d="M326.316 147.367H336.843V157.895H326.316L326.316 147.367Z" fill="#9ABF3E"/>
<path d="M315.789 168.422H326.316V178.949L315.789 178.948V168.422Z" fill="#9ABF3E"/>
<path d="M294.738 178.947H305.265V189.474H294.738V178.947Z" fill="#9ABF3E"/>
</svg>
