<svg width="245" height="200" viewBox="0 0 245 200" fill="none" xmlns="http://www.w3.org/2000/svg">
<path d="M192.594 103.705H200V96.2969H192.594V103.705Z" fill="#80C428"/>
<path d="M192.594 96.2969H200L200 88.8887H192.594L192.594 96.2969Z" fill="#80C428"/>
<path d="M192.594 118.519H200V111.111H192.594V118.519Z" fill="#BFE137"/>
<path d="M192.594 125.927H200V118.519H192.594V125.927Z" fill="#80C428"/>
<path d="M192.594 111.113H200V103.705H192.594V111.113Z" fill="#80C428"/>
<path d="M192.594 74.0759H200V66.668H192.594V74.0759Z" fill="#231F20"/>
<path d="M192.594 88.8887H200V81.4824H192.594V88.8887Z" fill="#80C428"/>
<path d="M192.594 81.4824H200V74.0742H192.594V81.4824Z" fill="#231F20"/>
<path d="M192.594 133.332H200V125.926H192.594V133.332Z" fill="#5FA52B"/>
<path d="M192.594 185.185H200V177.777H192.594V185.185Z" fill="#5FA52B"/>
<path d="M192.594 192.593H200V185.185H192.594V192.593Z" fill="#3F8229"/>
<path d="M192.594 200H200L200 192.593H192.594L192.594 200Z" fill="#231F20"/>
<path d="M192.594 177.779H200V170.371H192.594V177.779Z" fill="#5FA52B"/>
<path d="M192.594 170.371H200V162.965H192.594V170.371Z" fill="#5FA52B"/>
<path d="M192.594 155.556H200V148.148H192.594V155.556Z" fill="#80C428"/>
<path d="M192.594 148.148H200L200 140.74H192.594L192.594 148.148Z" fill="#80C428"/>
<path d="M192.594 140.74H200V133.332H192.594V140.74Z" fill="#231F20"/>
<path d="M192.594 162.965H200L200 155.556H192.594L192.594 162.965Z" fill="#5FA52B"/>
<path d="M111.113 192.593H118.519V185.186H111.113V192.593Z" fill="#E4A20A"/>
<path d="M177.777 51.8532H185.185V44.4453H177.777V51.8532Z" fill="#231F20"/>
<path d="M177.777 66.6676H185.185V59.2598H177.777V66.6676Z" fill="#80C428"/>
<path d="M177.777 59.2598H185.185L185.185 51.8532H177.777L177.777 59.2598Z" fill="#80C428"/>
<path d="M177.777 74.0759H185.185V66.6676H177.777V74.0759Z" fill="#80C428"/>
<path d="M74.0743 192.593H81.4822V185.186H74.0743V192.593Z" fill="#5FA52B"/>
<path d="M81.4844 192.593H88.8905V185.186H81.4844V192.593Z" fill="#5FA52B"/>
<path d="M88.8905 192.593H96.2986V185.186H88.8905V192.593Z" fill="#5FA52B"/>
<path d="M133.336 192.593H140.742V185.186H133.336V192.593Z" fill="#5FA52B"/>
<path d="M51.8516 192.593H59.2577V185.186H51.8516V192.593Z" fill="#3F8229"/>
<path d="M59.2618 192.593H66.6697V185.186H59.2618V192.593Z" fill="#3F8229"/>
<path d="M118.519 192.593H125.927V185.186H118.519V192.593Z" fill="#231F20"/>
<path d="M125.926 192.593H133.334V185.186H125.926V192.593Z" fill="#5FA52B"/>
<path d="M96.2969 192.593H103.705V185.186H96.2969V192.593Z" fill="#5FA52B"/>
<path d="M103.703 192.593H111.109V185.186H103.703V192.593Z" fill="#231F20"/>
<path d="M66.668 192.593H74.0759V185.186H66.668V192.593Z" fill="#231F20"/>
<path d="M44.4454 192.593H51.8533V185.186H44.4454V192.593Z" fill="#3F8229"/>
<path d="M6.10352e-05 192.593H7.40795V185.186H6.10352e-05V192.593Z" fill="#231F20"/>
<path d="M7.41022 192.593H14.8181V185.186H7.41022V192.593Z" fill="#3F8229"/>
<path d="M37.0391 192.593H44.447V185.186H37.0391V192.593Z" fill="#3F8229"/>
<path d="M29.629 192.593H37.0369V185.186H29.629V192.593Z" fill="#231F20"/>
<path d="M22.2227 192.593H29.629V185.186H22.2227V192.593Z" fill="#3F8229"/>
<path d="M14.8165 192.593H22.2244V185.186H14.8165V192.593Z" fill="#231F20"/>
<path d="M177.777 185.185H185.185V177.777H177.777V185.185Z" fill="#5FA52B"/>
<path d="M177.777 125.927H185.185V118.52H177.777V125.927Z" fill="#80C428"/>
<path d="M177.777 133.332H185.185V125.926H177.777V133.332Z" fill="#80C428"/>
<path d="M177.777 148.148H185.185V140.74H177.777V148.148Z" fill="#80C428"/>
<path d="M177.777 155.556H185.185L185.185 148.148H177.777L177.777 155.556Z" fill="#80C428"/>
<path d="M140.758 192.593H148.166V185.186H140.758V192.593Z" fill="#5FA52B"/>
<path d="M177.777 140.74H185.185V133.332H177.777V140.74Z" fill="#80C428"/>
<path d="M177.777 88.8885H185.185V81.4824H177.777V88.8885Z" fill="#80C428"/>
<path d="M177.777 96.2966H185.185V88.8885H177.777V96.2966Z" fill="#80C428"/>
<path d="M177.777 111.113H185.185V103.705H177.777V111.113Z" fill="#80C428"/>
<path d="M177.777 103.705H185.185L185.185 96.2966H177.777L177.777 103.705Z" fill="#BFE137"/>
<path d="M177.777 118.52H185.185V111.111H177.777V118.52Z" fill="#80C428"/>
<path d="M162.965 192.593H170.371V185.186H162.965V192.593Z" fill="#3F8229"/>
<path d="M155.555 192.593H162.963V185.186H155.555V192.593Z" fill="#231F20"/>
<path d="M148.082 192.593H155.49V185.186H148.082V192.593Z" fill="#5FA52B"/>
<path d="M170.371 192.593H177.779V185.186H170.371V192.593Z" fill="#3F8229"/>
<path d="M177.777 162.965H185.185L185.185 155.556H177.777L177.777 162.965Z" fill="#80C428"/>
<path d="M177.777 177.779H185.185V170.371H177.777V177.779Z" fill="#231F20"/>
<path d="M177.777 170.371H185.185V162.965H177.777V170.371Z" fill="#5FA52B"/>
<path d="M177.777 81.4824H185.185V74.0742H177.777V81.4824Z" fill="#80C428"/>
<path d="M177.777 192.593H185.185V185.185H177.777V192.593Z" fill="#3F8229"/>
<path d="M185.188 170.371H192.595V162.965H185.188V170.371Z" fill="#231F20"/>
<path d="M185.188 162.965H192.595V155.557H185.188V162.965Z" fill="#5FA52B"/>
<path d="M185.188 185.185H192.595V177.777H185.188V185.185Z" fill="#5FA52B"/>
<path d="M185.188 177.779H192.595V170.371H185.188V177.779Z" fill="#5FA52B"/>
<path d="M185.188 192.593H192.595V185.185H185.188V192.593Z" fill="#3F8229"/>
<path d="M185.188 155.557H192.595L192.595 148.148H185.188L185.188 155.557Z" fill="#80C428"/>
<path d="M185.188 133.332H192.595V125.926H185.188V133.332Z" fill="#80C428"/>
<path d="M185.188 125.927H192.595V118.52H185.188V125.927Z" fill="#BFE137"/>
<path d="M118.52 200H125.927L125.927 192.593H118.519L118.52 200Z" fill="#231F20"/>
<path d="M185.188 200H192.595L192.595 192.593H185.188L185.188 200Z" fill="#231F20"/>
<path d="M133.336 200H140.742L140.742 192.593H133.336L133.336 200Z" fill="#231F20"/>
<path d="M148.148 200H155.556V192.594H148.148V200Z" fill="#231F20"/>
<path d="M140.742 200H148.15V192.594L140.742 192.593L140.742 200Z" fill="#231F20"/>
<path d="M125.926 200H133.334L133.334 192.593H125.926L125.926 200Z" fill="#231F20"/>
<path d="M162.965 200H170.371L170.371 192.593H162.965L162.965 200Z" fill="#231F20"/>
<path d="M170.371 200H177.779L177.779 192.593H170.371L170.371 200Z" fill="#231F20"/>
<path d="M177.777 200H185.185L185.185 192.593H177.777L177.777 200Z" fill="#231F20"/>
<path d="M185.188 118.52H192.595V111.111H185.188V118.52Z" fill="#80C428"/>
<path d="M155.555 200H162.963L162.963 192.593H155.555L155.555 200Z" fill="#231F20"/>
<path d="M185.188 148.148H192.595L192.595 140.74H185.188L185.188 148.148Z" fill="#80C428"/>
<path d="M185.188 66.6676H192.595V59.2598H185.188V66.6676Z" fill="#231F20"/>
<path d="M185.188 81.4821H192.595V74.0742H185.188V81.4821Z" fill="#80C428"/>
<path d="M185.188 96.2966H192.595V88.8887H185.188V96.2966Z" fill="#BFE137"/>
<path d="M185.188 103.705H192.595L192.595 96.2966H185.188L185.188 103.705Z" fill="#80C428"/>
<path d="M185.188 88.8887H192.595V81.4821H185.188V88.8887Z" fill="#80C428"/>
<path d="M185.188 59.2598H192.595L192.595 51.8535H185.188L185.188 59.2598Z" fill="#231F20"/>
<path d="M185.188 111.113H192.595V103.705H185.188V111.113Z" fill="#80C428"/>
<path d="M185.188 74.0759H192.595V66.6676H185.188V74.0759Z" fill="#80C428"/>
<path d="M185.188 140.74H192.595V133.332H185.188V140.74Z" fill="#80C428"/>
<path d="M74.0742 200H81.4821L81.4822 192.593H74.0743L74.0742 200Z" fill="#231F20"/>
<path d="M37.0391 200H44.4469L44.447 192.593H37.0391L37.0391 200Z" fill="#231F20"/>
<path d="M111.113 200H118.52L118.519 192.593H111.113L111.113 200Z" fill="#231F20"/>
<path d="M66.668 200H74.0759L74.0759 192.593H66.668L66.668 200Z" fill="#231F20"/>
<path d="M51.8516 200H59.2576L59.2577 192.593H51.8516L51.8516 200Z" fill="#231F20"/>
<path d="M44.4453 200H51.8532L51.8533 192.593H44.4454L44.4453 200Z" fill="#231F20"/>
<path d="M59.2617 200H66.6696L66.6697 192.593H59.2618L59.2617 200Z" fill="#231F20"/>
<path d="M96.2969 200H103.705L103.705 192.593H96.2969L96.2969 200Z" fill="#231F20"/>
<path d="M103.703 200H111.109L111.109 192.593H103.703L103.703 200Z" fill="#231F20"/>
<path d="M81.4844 200H88.8904L88.8905 192.593H81.4844L81.4844 200Z" fill="#231F20"/>
<path d="M88.8904 200H96.2985L96.2986 192.593H88.8905L88.8904 200Z" fill="#231F20"/>
<path d="M0 200H7.40789L7.40795 192.593H6.10352e-05L0 200Z" fill="#231F20"/>
<path d="M22.2227 200H29.6287L29.629 192.593H22.2227L22.2227 200Z" fill="#231F20"/>
<path d="M14.8164 200H22.2243L22.2244 192.593H14.8165L14.8164 200Z" fill="#231F20"/>
<path d="M29.6287 200H37.0368L37.0369 192.593H29.629L29.6287 200Z" fill="#231F20"/>
<path d="M7.41016 200H14.818L14.8181 192.593H7.41022L7.41016 200Z" fill="#231F20"/>
<path d="M207.406 177.779H214.814V170.371H207.406V177.779Z" fill="#80C428"/>
<path d="M207.406 170.371H214.814V162.965H207.406V170.371Z" fill="#80C428"/>
<path d="M207.406 192.593H214.814V185.186H207.406V192.593Z" fill="#231F20"/>
<path d="M207.406 125.927H214.814V118.52H207.406V125.927Z" fill="#231F20"/>
<path d="M207.406 162.965H214.814V155.557H207.406V162.965Z" fill="#80C428"/>
<path d="M207.406 148.148H214.814V140.74H207.406V148.148Z" fill="#80C428"/>
<path d="M207.406 133.332H214.814V125.926H207.406V133.332Z" fill="#BFE137"/>
<path d="M207.406 140.74H214.814V133.332H207.406V140.74Z" fill="#80C428"/>
<path d="M207.406 200H214.814L214.814 192.593H207.406L207.406 200Z" fill="#231F20"/>
<path d="M207.406 155.557H214.814V148.148H207.406V155.557Z" fill="#80C428"/>
<path d="M207.406 185.186H214.814V177.777H207.406V185.186Z" fill="#5FA52B"/>
<path d="M207.406 118.52H214.814V111.111H207.406V118.52Z" fill="#231F20"/>
<path d="M207.406 111.113H214.814V103.705H207.406V111.113Z" fill="#231F20"/>
<path d="M214.816 133.332H222.224V125.926H214.816V133.332Z" fill="#BFE137"/>
<path d="M214.816 140.74H222.224V133.332H214.816V140.74Z" fill="#80C428"/>
<path d="M214.816 125.927H222.224V118.52H214.816V125.927Z" fill="#231F20"/>
<path d="M214.816 155.556H222.224V148.148H214.816V155.556Z" fill="#80C428"/>
<path d="M214.816 162.965H222.224L222.224 155.556H214.816L214.816 162.965Z" fill="#80C428"/>
<path d="M214.816 148.148H222.224L222.224 140.74H214.816L214.816 148.148Z" fill="#80C428"/>
<path d="M214.816 200H222.224V192.594H214.816V200Z" fill="#231F20"/>
<path d="M214.816 177.779H222.224V170.371H214.816V177.779Z" fill="#231F20"/>
<path d="M214.816 185.185H222.224V177.777H214.816V185.185Z" fill="#5FA52B"/>
<path d="M214.816 170.371H222.224V162.965H214.816V170.371Z" fill="#80C428"/>
<path d="M214.816 192.594H222.224L222.224 185.185H214.816L214.816 192.594Z" fill="#3F8229"/>
<path d="M200 103.705H207.408V96.2969H200V103.705Z" fill="#231F20"/>
<path d="M200 111.113H207.408V103.705H200V111.113Z" fill="#80C428"/>
<path d="M200 96.2969H207.408L207.408 88.8887H200L200 96.2969Z" fill="#231F20"/>
<path d="M200 118.519H207.408V111.111H200V118.519Z" fill="#80C428"/>
<path d="M200 125.927H207.408V118.519H200V125.927Z" fill="#5FA52B"/>
<path d="M200 133.332H207.408V125.926H200V133.332Z" fill="#231F20"/>
<path d="M200 88.8887H207.408V81.4824H200V88.8887Z" fill="#231F20"/>
<path d="M200 185.185H207.408V177.777H200V185.185Z" fill="#5FA52B"/>
<path d="M200 192.593H207.408V185.185H200V192.593Z" fill="#3F8229"/>
<path d="M200 140.74L207.408 140.74V133.332H200V140.74Z" fill="#80C428"/>
<path d="M200 200H207.408L207.408 192.593H200L200 200Z" fill="#231F20"/>
<path d="M200 170.371L207.408 170.371V162.965H200V170.371Z" fill="#80C428"/>
<path d="M200 148.148L207.408 148.148V140.74L200 140.74L200 148.148Z" fill="#80C428"/>
<path d="M200 155.556H207.408L207.408 148.148L200 148.148V155.556Z" fill="#80C428"/>
<path d="M200 162.965H207.408L207.408 155.556H200L200 162.965Z" fill="#80C428"/>
<path d="M200 177.779H207.408V170.371L200 170.371V177.779Z" fill="#80C428"/>
<path d="M81.4844 125.927H88.8905V118.52H81.4844V125.927Z" fill="#80C428"/>
<path d="M133.336 59.2596H140.742V51.8535H133.336V59.2596Z" fill="white"/>
<path d="M133.336 37.0368H140.742V29.6289H133.336V37.0368Z" fill="white"/>
<path d="M118.52 37.0368H125.927V29.6289H118.52V37.0368Z" fill="white"/>
<path d="M133.336 44.445H140.742V37.0368H133.336V44.445Z" fill="#231F20"/>
<path d="M133.336 51.8535H140.742L140.742 44.445H133.336L133.336 51.8535Z" fill="white"/>
<path d="M125.926 37.0368H133.334V29.6289H125.926V37.0368Z" fill="white"/>
<path d="M88.8907 37.0368H96.2986V29.6289H88.8907V37.0368Z" fill="white"/>
<path d="M111.113 37.0368H118.52V29.6289H111.113V37.0368Z" fill="white"/>
<path d="M96.2969 37.0368H103.703V29.6289H96.2969V37.0368Z" fill="white"/>
<path d="M125.926 44.445H133.334V37.0368H125.926V44.445Z" fill="#231F20"/>
<path d="M133.336 81.4821H140.742V74.0742H133.336V81.4821Z" fill="#231F20"/>
<path d="M133.336 118.519H140.742V111.111H133.336V118.519Z" fill="#231F20"/>
<path d="M133.336 111.113H140.742V103.705H133.336V111.113Z" fill="#8F1217"/>
<path d="M133.336 66.6676H140.742L140.742 59.2596H133.336L133.336 66.6676Z" fill="#80C428"/>
<path d="M133.336 125.927H140.742V118.519H133.336V125.927Z" fill="#80C428"/>
<path d="M133.336 103.705H140.742V96.2969H133.336V103.705Z" fill="#8F1217"/>
<path d="M133.336 133.332H140.742V125.926H133.336V133.332Z" fill="#80C428"/>
<path d="M81.4844 37.0368H88.8907V29.6289H81.4844V37.0368Z" fill="white"/>
<path d="M133.336 96.2969H140.742L140.742 88.8887H133.336L133.336 96.2969Z" fill="#8F1217"/>
<path d="M133.336 74.0759H140.742V66.6676H133.336V74.0759Z" fill="#5FA52B"/>
<path d="M133.336 88.8887H140.742V81.4821H133.336V88.8887Z" fill="#E7E3E2"/>
<path d="M22.2227 81.4821H29.6288V74.0742H22.2227V81.4821Z" fill="#231F20"/>
<path d="M22.2227 88.8885H29.6288V81.4821H22.2227V88.8885Z" fill="#231F20"/>
<path d="M22.2227 96.2966H29.6288V88.8885H22.2227V96.2966Z" fill="#231F20"/>
<path d="M22.2227 74.0759H29.6288V66.668H22.2227V74.0759Z" fill="#231F20"/>
<path d="M133.336 140.74H140.742V133.332H133.336V140.74Z" fill="#80C428"/>
<path d="M59.2618 37.0368H66.6697V29.6289H59.2618V37.0368Z" fill="#80C428"/>
<path d="M74.0743 37.0368H81.4822V29.6289H74.0743V37.0368Z" fill="white"/>
<path d="M51.8516 37.0368H59.2577V29.6289H51.8516V37.0368Z" fill="#231F20"/>
<path d="M66.668 37.0368H74.0759V29.6289H66.668V37.0368Z" fill="white"/>
<path d="M29.629 140.742H37.0369V133.332H29.629V140.742Z" fill="#BFE137"/>
<path d="M44.4454 44.445H51.8533V37.0371H44.4454V44.445Z" fill="#231F20"/>
<path d="M29.6288 88.8885H37.0369V81.4824L29.6288 81.4821V88.8885Z" fill="#80C428"/>
<path d="M51.8516 44.445H59.2577V37.0368H51.8516V44.445Z" fill="#80C428"/>
<path d="M29.6288 96.2966H37.0369V88.8885H29.6288V96.2966Z" fill="#5FA52B"/>
<path d="M29.6288 74.0759H37.0369V66.668H29.6288V74.0759Z" fill="#80C428"/>
<path d="M29.6288 66.668H37.0369V59.2598H29.629L29.6288 66.668Z" fill="#231F20"/>
<path d="M29.6288 81.4821L37.0369 81.4824V74.0742H29.6288V81.4821Z" fill="#80C428"/>
<path d="M96.2969 44.445H103.703V37.0368H96.2969V44.445Z" fill="white"/>
<path d="M133.336 148.148H140.742V140.74H133.336V148.148Z" fill="#80C428"/>
<path d="M59.2618 44.445H66.6697V37.0368H59.2618V44.445Z" fill="#80C428"/>
<path d="M118.52 44.445H125.927V37.0368H118.52V44.445Z" fill="white"/>
<path d="M103.703 44.445H111.109V37.0371L103.703 37.0368V44.445Z" fill="#80C428"/>
<path d="M88.8907 44.445H96.2986V37.0368H88.8907V44.445Z" fill="#231F20"/>
<path d="M66.668 44.445H74.0759V37.0368H66.668V44.445Z" fill="white"/>
<path d="M74.0743 44.445H81.4822V37.0368H74.0743V44.445Z" fill="#231F20"/>
<path d="M81.4844 44.445H88.8907V37.0368H81.4844V44.445Z" fill="#231F20"/>
<path d="M111.113 44.445H118.52V37.0368H111.113V44.445Z" fill="white"/>
<path d="M88.8907 148.148H96.2986V140.74H88.8907V148.148Z" fill="#80C428"/>
<path d="M96.2969 148.148H103.705V140.74H96.2969V148.148Z" fill="#FFF533"/>
<path d="M59.2618 148.148H66.6697V140.74H59.2618V148.148Z" fill="#231F20"/>
<path d="M66.668 140.742V148.148H74.0759V140.74L66.668 140.742Z" fill="#80C428"/>
<path d="M74.0743 148.148H81.4822V140.74H74.0743V148.148Z" fill="#80C428"/>
<path d="M29.6289 103.705H37.0368L37.0369 96.2966H29.6288L29.6289 103.705Z" fill="#231F20"/>
<path d="M125.926 148.148H133.334V140.74H125.926V148.148Z" fill="#80C428"/>
<path d="M103.703 148.148H111.109V140.74H103.703V148.148Z" fill="#FFF533"/>
<path d="M118.52 148.148H125.927V140.74H118.52V148.148Z" fill="#FFF533"/>
<path d="M111.113 148.148H118.52V140.74H111.113V148.148Z" fill="#FFF533"/>
<path d="M81.4844 148.148H88.8907V140.74H81.4844V148.148Z" fill="#231F20"/>
<path d="M29.629 133.332H37.0369V125.926H29.629V133.332Z" fill="#231F20"/>
<path d="M37.0391 148.148H44.447V140.74H37.0391V148.148Z" fill="#231F20"/>
<path d="M44.4454 148.148H51.8533V140.74H44.4454V148.148Z" fill="#80C428"/>
<path d="M22.2227 133.332L29.629 133.332V125.926H22.2227V133.332Z" fill="#231F20"/>
<path d="M51.8516 148.148H59.2577V140.74H51.8516V148.148Z" fill="#80C428"/>
<path d="M37.0391 140.742H44.447V133.332H37.0391V140.742Z" fill="#231F20"/>
<path d="M103.703 37.0368L111.109 37.0371V29.6289H103.703V37.0368Z" fill="#80C428"/>
<path d="M81.4844 29.6289H88.8907L88.8905 22.2227H81.4844V29.6289Z" fill="white"/>
<path d="M59.2618 29.6289H66.6697V22.2227H59.2618V29.6289Z" fill="#80C428"/>
<path d="M74.0743 29.6289H81.4822V22.2227H74.0743V29.6289Z" fill="white"/>
<path d="M66.668 29.6289H74.0759V22.2227H66.668V29.6289Z" fill="#5FA52B"/>
<path d="M88.8906 29.6306H96.2984V22.2246H88.8906V29.6306Z" fill="white"/>
<path d="M51.8516 29.6289H59.2577V22.2227H51.8516V29.6289Z" fill="#231F20"/>
<path d="M66.668 155.557V162.965H74.0759V155.557H66.668Z" fill="#231F20"/>
<path d="M59.2618 162.965H66.6697V155.557H59.2618V162.965Z" fill="#80C428"/>
<path d="M51.8516 162.965H59.2577V155.557H51.8516V162.965Z" fill="#80C428"/>
<path d="M74.0743 162.965H81.4822V155.557H74.0743V162.965Z" fill="#80C428"/>
<path d="M37.0391 162.965H44.447V155.557H37.0391V162.965Z" fill="#5FA52B"/>
<path d="M44.4454 162.965H51.8533V155.557H44.4454V162.965Z" fill="#5FA52B"/>
<path d="M81.4844 162.965H88.8905V155.557H81.4844V162.965Z" fill="#BFE137"/>
<path d="M96.2969 162.965H103.705V155.557H96.2969V162.965Z" fill="#FFF533"/>
<path d="M103.703 162.965H111.109V155.557H103.703V162.965Z" fill="#FFF533"/>
<path d="M88.8905 162.965H96.2986V155.557H88.8905V162.965Z" fill="#231F20"/>
<path d="M22.2227 162.965H29.6288V155.557H22.2227V162.965Z" fill="#80C428"/>
<path d="M14.8165 133.332H22.2244V125.926H14.8165V133.332Z" fill="#231F20"/>
<path d="M14.8165 140.742H22.2244V133.332H14.8165V140.742Z" fill="#BFE137"/>
<path d="M29.6288 162.965H37.0369V155.557H29.6288V162.965Z" fill="#80C428"/>
<path d="M14.8165 148.148H22.2244V140.74H14.8165V148.148Z" fill="#BFE137"/>
<path d="M22.2227 155.557H29.6288L29.6287 148.148H22.2227L22.2227 155.557Z" fill="#80C428"/>
<path d="M14.8164 155.556H22.2243L22.2244 148.148H14.8165L14.8164 155.556Z" fill="#80C428"/>
<path d="M125.926 155.556H133.334L133.334 148.148H125.926L125.926 155.556Z" fill="#FFF533"/>
<path d="M81.4844 155.557H88.8905L88.8907 148.148H81.4844V155.557Z" fill="#231F20"/>
<path d="M103.703 155.557H111.109V148.148H103.703V155.557Z" fill="#FFF533"/>
<path d="M118.52 155.556H125.927L125.927 148.148H118.52L118.52 155.556Z" fill="#FFF533"/>
<path d="M88.8905 155.557H96.2986V148.148H88.8907L88.8905 155.557Z" fill="#FFF533"/>
<path d="M96.2969 155.557H103.705V148.148H96.2969V155.557Z" fill="#FFF533"/>
<path d="M111.113 155.556H118.52L118.52 148.148H111.113L111.113 155.556Z" fill="#FFF533"/>
<path d="M140.742 155.556H148.15V148.148L140.742 148.148L140.742 155.556Z" fill="#80C428"/>
<path d="M140.742 148.148L148.15 148.148L148.15 140.74L140.742 140.74V148.148Z" fill="#80C428"/>
<path d="M133.336 155.556H140.742L140.742 148.148H133.336L133.336 155.556Z" fill="#231F20"/>
<path d="M22.2227 140.742H29.629V133.332L22.2227 133.332V140.742Z" fill="#BFE137"/>
<path d="M140.742 140.74L148.15 140.74V133.332L140.742 133.332V140.74Z" fill="#80C428"/>
<path d="M37.0391 155.557H44.447V148.148H37.0391V155.557Z" fill="#80C428"/>
<path d="M29.6287 148.148L37.0369 148.148V140.74H29.629L29.6287 148.148Z" fill="#80C428"/>
<path d="M29.6288 155.557H37.0369V148.148L29.6287 148.148L29.6288 155.557Z" fill="#80C428"/>
<path d="M22.2227 148.148H29.6287L29.629 140.74H22.2227L22.2227 148.148Z" fill="#80C428"/>
<path d="M74.0743 155.557H81.4822V148.148H74.0743V155.557Z" fill="#BFE137"/>
<path d="M44.4454 155.557H51.8533V148.148H44.4454V155.557Z" fill="#231F20"/>
<path d="M66.668 148.148V155.557H74.0759V148.148H66.668Z" fill="#80C428"/>
<path d="M59.2618 155.557H66.6697V148.148H59.2618V155.557Z" fill="#231F20"/>
<path d="M51.8516 155.557H59.2577V148.148H51.8516V155.557Z" fill="#80C428"/>
<path d="M96.2969 29.6289L103.705 29.6287V22.2227H96.2969V29.6289Z" fill="#5FA52B"/>
<path d="M140.742 37.0368H148.15V29.6289H140.742V37.0368Z" fill="white"/>
<path d="M133.336 29.6289H140.742V22.2227H133.336V29.6289Z" fill="white"/>
<path d="M140.742 29.6289H148.15V22.2227H140.742V29.6289Z" fill="white"/>
<path d="M140.742 51.8535L148.15 51.8532V44.4453L140.742 44.445L140.742 51.8535Z" fill="white"/>
<path d="M140.742 133.332L148.15 133.332V125.926H140.742V133.332Z" fill="#80C428"/>
<path d="M103.703 29.6289H111.109V22.2227H103.703L103.703 29.6289Z" fill="#80C428"/>
<path d="M140.742 59.2596H148.15V51.8532L140.742 51.8535V59.2596Z" fill="white"/>
<path d="M111.113 29.6289H118.52L118.519 22.2227H111.113V29.6289Z" fill="#5FA52B"/>
<path d="M118.52 29.6289H125.927V22.2227H118.519L118.52 29.6289Z" fill="white"/>
<path d="M125.926 29.6289H133.334V22.2227H125.926V29.6289Z" fill="white"/>
<path d="M140.742 44.445L148.15 44.4453L148.15 37.0368H140.742V44.445Z" fill="#231F20"/>
<path d="M140.742 118.519H148.15V111.111H140.742V118.519Z" fill="#80C428"/>
<path d="M140.742 111.113H148.15V103.705H140.742V111.113Z" fill="#231F20"/>
<path d="M140.742 125.927H148.15V118.519H140.742V125.927Z" fill="#80C428"/>
<path d="M140.742 66.6676H148.15L148.15 59.2596H140.742L140.742 66.6676Z" fill="#80C428"/>
<path d="M140.742 103.705H148.15V96.2969H140.742V103.705Z" fill="#8F1217"/>
<path d="M140.742 74.0759H148.15V66.6676H140.742V74.0759Z" fill="#5FA52B"/>
<path d="M140.742 96.2969H148.15L148.15 88.8887H140.742L140.742 96.2969Z" fill="#6A0C0F"/>
<path d="M140.742 81.4821H148.15V74.0742H140.742V81.4821Z" fill="#231F20"/>
<path d="M140.742 88.8887H148.15V81.4821H140.742V88.8887Z" fill="#6A0C0F"/>
<path d="M88.8906 103.705H96.2985V96.2969H88.8906V103.705Z" fill="#8F1217"/>
<path d="M51.8516 66.6676H59.2577V59.2598H51.8516V66.6676Z" fill="#80C428"/>
<path d="M51.8516 74.0759H59.2577V66.6676H51.8516V74.0759Z" fill="#231F20"/>
<path d="M51.8516 118.519H59.2577V111.111H51.8516V118.519Z" fill="#BFE137"/>
<path d="M59.2618 66.6676H66.6697V59.2598H59.2618V66.6676Z" fill="#80C428"/>
<path d="M66.668 66.6676H74.0759V59.2598H66.668V66.6676Z" fill="#80C428"/>
<path d="M51.8516 81.4821H59.2577V74.0742H51.8516V81.4821Z" fill="#231F20"/>
<path d="M51.8516 88.8885H59.2577V81.4821H51.8516V88.8885Z" fill="#231F20"/>
<path d="M51.8516 103.705H59.2576V96.2969H51.8516V103.705Z" fill="#80C428"/>
<path d="M51.8516 111.113H59.2576V103.705H51.8516V111.113Z" fill="#80C428"/>
<path d="M51.8516 96.2969H59.2576L59.2577 88.8885H51.8516L51.8516 96.2969Z" fill="#80C428"/>
<path d="M74.0743 66.6676H81.4822V59.2598H74.0743V66.6676Z" fill="#80C428"/>
<path d="M103.703 88.8885H111.109V81.4824H103.703V88.8885Z" fill="white"/>
<path d="M81.4844 66.6676H88.8905V59.2598H81.4844V66.6676Z" fill="#80C428"/>
<path d="M103.703 96.2966H111.109V88.8885H103.703V96.2966Z" fill="#8F1217"/>
<path d="M103.703 111.113H111.109V103.705H103.703V111.113Z" fill="#C81830"/>
<path d="M103.703 103.705H111.109L111.109 96.2966H103.703L103.703 103.705Z" fill="#C81830"/>
<path d="M103.703 81.4824H111.109V74.0742H103.703V81.4824Z" fill="#231F20"/>
<path d="M88.8905 66.6676H96.2986V59.2598H88.8905V66.6676Z" fill="#80C428"/>
<path d="M96.2969 66.6676H103.703V59.2598H96.2969V66.6676Z" fill="#231F20"/>
<path d="M103.703 66.6676H111.109V59.2598H103.703V66.6676Z" fill="#80C428"/>
<path d="M103.703 74.0759H111.109V66.6676H103.703L103.703 74.0759Z" fill="#5FA52B"/>
<path d="M111.113 103.705H118.519V96.2969H111.113V103.705Z" fill="#C81830"/>
<path d="M111.113 88.8885H118.519V81.4824H111.113V88.8885Z" fill="white"/>
<path d="M111.113 81.4824H118.519V74.0742H111.113V81.4824Z" fill="#231F20"/>
<path d="M111.113 96.2969H118.519L118.519 88.8885H111.113L111.113 96.2969Z" fill="#8F1217"/>
<path d="M111.113 74.0759H118.519V66.668H111.113V74.0759Z" fill="#5FA52B"/>
<path d="M103.703 118.519H111.109V111.111H103.703V118.519Z" fill="#231F20"/>
<path d="M59.2618 118.519H66.6697V111.111H59.2618V118.519Z" fill="#80C428"/>
<path d="M125.926 51.8532H133.334L133.334 44.445H125.926L125.926 51.8532Z" fill="white"/>
<path d="M111.113 66.668H118.519V59.2598H111.113V66.668Z" fill="#231F20"/>
<path d="M103.703 59.2598H111.109L111.109 51.8535H103.703L103.703 59.2598Z" fill="#80C428"/>
<path d="M111.113 59.2598H118.519L118.519 51.8535H111.113L111.113 59.2598Z" fill="#80C428"/>
<path d="M96.2969 59.2598H103.703L103.703 51.8535H96.2969L96.2969 59.2598Z" fill="#80C428"/>
<path d="M74.0743 125.927H81.4822V118.52H74.0743V125.927Z" fill="#80C428"/>
<path d="M66.668 118.52V125.927H74.0759V118.52H66.668Z" fill="#80C428"/>
<path d="M59.2618 125.927H66.6697V118.519H59.2618V125.927Z" fill="#BFE137"/>
<path d="M111.113 118.519H118.519V111.111H111.113V118.519Z" fill="#231F20"/>
<path d="M103.703 125.927H111.109V118.519H103.703V125.927Z" fill="#80C428"/>
<path d="M111.113 125.927H118.519V118.519H111.113V125.927Z" fill="#80C428"/>
<path d="M96.2969 125.927H103.705V118.52H96.2969V125.927Z" fill="#80C428"/>
<path d="M88.8905 125.927H96.2986V118.52H88.8905V125.927Z" fill="#80C428"/>
<path d="M96.2969 118.52H103.705V111.111H96.2969V118.52Z" fill="#231F20"/>
<path d="M66.668 96.2966H74.0759V88.8887H66.668V96.2966Z" fill="#6A0C0F"/>
<path d="M66.668 88.8887H74.0759V81.4824H66.668V88.8887Z" fill="#6A0C0F"/>
<path d="M88.8905 59.2598H96.2986L96.2985 51.8535H88.8906L88.8905 59.2598Z" fill="white"/>
<path d="M66.668 81.4824H74.0759V74.0742H66.668V81.4824Z" fill="#231F20"/>
<path d="M66.668 103.705H74.0759L74.0759 96.2966H66.668L66.668 103.705Z" fill="#231F20"/>
<path d="M81.4844 81.4821H88.8905V74.0742H81.4844V81.4821Z" fill="#231F20"/>
<path d="M88.8906 111.113H96.2985V103.705H88.8906V111.113Z" fill="#C81830"/>
<path d="M96.2969 111.113H103.705V103.705H96.2969V111.113Z" fill="#C81830"/>
<path d="M81.4844 111.113H88.8906V103.705L81.4844 103.705V111.113Z" fill="#8F1217"/>
<path d="M74.0742 111.113H81.4821V103.705H74.0742V111.113Z" fill="#231F20"/>
<path d="M74.0742 103.705H81.4821V96.2969H74.0742V103.705Z" fill="#8F1217"/>
<path d="M81.4844 96.2966L88.8906 96.2969L88.8905 88.8887H81.4844V96.2966Z" fill="#8F1217"/>
<path d="M74.0742 96.2969H81.4821L81.4822 88.8887H74.0743L74.0742 96.2969Z" fill="#6A0C0F"/>
<path d="M74.0743 88.8887H81.4822V81.4824H74.0743V88.8887Z" fill="#6A0C0F"/>
<path d="M81.4844 88.8887H88.8905V81.4821H81.4844V88.8887Z" fill="#E7E3E2"/>
<path d="M88.8905 81.4821H96.2986V74.0742H88.8905V81.4821Z" fill="#231F20"/>
<path d="M88.8906 96.2969H96.2985L96.2986 88.8887H88.8905L88.8906 96.2969Z" fill="#8F1217"/>
<path d="M81.4844 103.705L88.8906 103.705V96.2969L81.4844 96.2966L81.4844 103.705Z" fill="#8F1217"/>
<path d="M88.8905 88.8887H96.2986V81.4821H88.8905V88.8887Z" fill="white"/>
<path d="M111.113 162.965H118.519L118.52 155.556H111.113L111.113 162.965Z" fill="#FFF533"/>
<path d="M74.0743 81.4824H81.4822V74.0742H74.0743V81.4824Z" fill="#231F20"/>
<path d="M59.2617 103.705H66.6696V96.2969H59.2617V103.705Z" fill="#80C428"/>
<path d="M66.668 111.113H74.0759V103.705H66.668V111.113Z" fill="#80C428"/>
<path d="M59.2617 111.113H66.6696V103.705H59.2617V111.113Z" fill="#80C428"/>
<path d="M59.2617 96.2969H66.6696L66.6697 88.8887H59.2618L59.2617 96.2969Z" fill="#231F20"/>
<path d="M59.2618 88.8887H66.6697V81.4824H59.2618V88.8887Z" fill="#6A0C0F"/>
<path d="M66.668 118.52H74.0759V111.111H66.668V118.52Z" fill="#80C428"/>
<path d="M81.4844 118.52H88.8905V111.111H81.4844V118.52Z" fill="#231F20"/>
<path d="M88.8905 118.52H96.2986V111.111H88.8905V118.52Z" fill="#231F20"/>
<path d="M59.2618 81.4824H66.6697V74.0742H59.2618V81.4824Z" fill="#6A0C0F"/>
<path d="M74.0743 118.52H81.4822V111.111H74.0743V118.52Z" fill="#80C428"/>
<path d="M81.4844 74.0759H88.8905V66.6676H81.4844V74.0759Z" fill="#5FA52B"/>
<path d="M96.2969 74.0759H103.703L103.703 66.6676H96.2969V74.0759Z" fill="#5FA52B"/>
<path d="M96.2969 88.8885H103.705V81.4824H96.2969V88.8885Z" fill="white"/>
<path d="M96.2969 81.4824H103.705V74.0742H96.2969V81.4824Z" fill="#231F20"/>
<path d="M96.2969 96.2966H103.705V88.8885H96.2969V96.2966Z" fill="#8F1217"/>
<path d="M74.0743 74.0759H81.4822V66.6676H74.0743V74.0759Z" fill="#5FA52B"/>
<path d="M66.668 74.0759H74.0759V66.6676H66.668V74.0759Z" fill="#5FA52B"/>
<path d="M59.2618 74.0759H66.6697V66.6676H59.2618V74.0759Z" fill="#231F20"/>
<path d="M88.8905 74.0759H96.2986V66.6676H88.8905V74.0759Z" fill="#5FA52B"/>
<path d="M96.2969 103.705H103.705L103.705 96.2966H96.2969L96.2969 103.705Z" fill="#C81830"/>
<path d="M111.113 111.113H118.519V103.705H111.113V111.113Z" fill="#C81830"/>
<path d="M37.0391 118.519H44.447V111.111H37.0391V118.519Z" fill="#231F20"/>
<path d="M37.0391 111.113H44.4469V103.705H37.0391V111.113Z" fill="#231F20"/>
<path d="M37.0391 125.927H44.447V118.519H37.0391V125.927Z" fill="#231F20"/>
<path d="M37.0391 103.705H44.4469V96.2969H37.0391V103.705Z" fill="#5FA52B"/>
<path d="M37.0391 96.2969H44.4469L44.447 88.8887H37.0391L37.0391 96.2969Z" fill="#80C428"/>
<path d="M44.4454 140.742H51.8533V133.332H44.4454V140.742Z" fill="#80C428"/>
<path d="M37.0391 133.332H44.447V125.926H37.0391V133.332Z" fill="#231F20"/>
<path d="M37.0391 88.8887H44.447V81.4824H37.0391V88.8887Z" fill="#80C428"/>
<path d="M51.8516 140.742H59.2577V133.332H51.8516V140.742Z" fill="#80C428"/>
<path d="M44.4454 133.332H51.8533V125.926H44.4454V133.332Z" fill="#80C428"/>
<path d="M51.8516 51.8532H59.2576L59.2577 44.445H51.8516L51.8516 51.8532Z" fill="#80C428"/>
<path d="M59.2618 140.742H66.6697V133.332H59.2618V140.742Z" fill="#231F20"/>
<path d="M59.2617 51.8532H66.6696L66.6697 44.445H59.2618L59.2617 51.8532Z" fill="#80C428"/>
<path d="M66.668 51.8532H74.0759L74.0759 44.445H66.668L66.668 51.8532Z" fill="white"/>
<path d="M44.4453 51.8532H51.8532L51.8533 44.445H44.4454L44.4453 51.8532Z" fill="#231F20"/>
<path d="M37.0391 59.2596H44.4469V51.8535H37.0391V59.2596Z" fill="#231F20"/>
<path d="M37.0391 66.6676H44.447L44.4469 59.2596H37.0391L37.0391 66.6676Z" fill="#BFE137"/>
<path d="M37.0391 74.0759H44.447V66.6676H37.0391V74.0759Z" fill="#80C428"/>
<path d="M37.0391 81.4824H44.447V74.0742H37.0391V81.4824Z" fill="#80C428"/>
<path d="M66.668 133.332V140.742L74.0759 140.74V133.332H66.668Z" fill="#80C428"/>
<path d="M125.926 96.2966H133.334V88.8887H125.926V96.2966Z" fill="#8F1217"/>
<path d="M125.926 88.8887H133.334V81.4824H125.926V88.8887Z" fill="white"/>
<path d="M125.926 103.705H133.334L133.334 96.2966H125.926L125.926 103.705Z" fill="#8F1217"/>
<path d="M125.926 111.113H133.334V103.705H125.926V111.113Z" fill="#C81830"/>
<path d="M74.0742 51.8532H81.4821L81.4822 44.445H74.0743L74.0742 51.8532Z" fill="white"/>
<path d="M125.926 74.0759H133.334V66.668H125.926V74.0759Z" fill="#5FA52B"/>
<path d="M125.926 81.4824H133.334V74.0742H125.926V81.4824Z" fill="#231F20"/>
<path d="M125.926 66.668H133.334V59.2598H125.926V66.668Z" fill="#80C428"/>
<path d="M125.926 59.2598H133.334L133.334 51.8532H125.926L125.926 59.2598Z" fill="white"/>
<path d="M125.926 125.927H133.334V118.52H125.926V125.927Z" fill="#80C428"/>
<path d="M125.926 118.52H133.334V111.111H125.926V118.52Z" fill="#231F20"/>
<path d="M88.8907 140.74H96.2986V133.332H88.8907V140.74Z" fill="#80C428"/>
<path d="M81.4844 140.74H88.8907V133.332H81.4844V140.74Z" fill="#80C428"/>
<path d="M96.2969 140.74H103.705V133.332H96.2969V140.74Z" fill="#80C428"/>
<path d="M125.926 133.332H133.334V125.926H125.926V133.332Z" fill="#5FA52B"/>
<path d="M74.0743 140.74H81.4822V133.332H74.0743V140.74Z" fill="#80C428"/>
<path d="M118.52 140.74H125.927V133.332H118.52V140.74Z" fill="#80C428"/>
<path d="M125.926 140.74H133.334V133.332H125.926V140.74Z" fill="#80C428"/>
<path d="M103.703 140.74H111.109V133.332H103.703V140.74Z" fill="#80C428"/>
<path d="M111.113 140.74H118.52V133.332H111.113V140.74Z" fill="#80C428"/>
<path d="M44.4454 118.519H51.8533V111.111H44.4454V118.519Z" fill="#80C428"/>
<path d="M51.8516 125.927H59.2577V118.519H51.8516V125.927Z" fill="#80C428"/>
<path d="M81.4844 51.8532L88.8906 51.8535L88.8907 44.445H81.4844L81.4844 51.8532Z" fill="white"/>
<path d="M81.4844 59.2598H88.8905L88.8906 51.8535L81.4844 51.8532L81.4844 59.2598Z" fill="white"/>
<path d="M44.4453 111.113H51.8532V103.705H44.4453V111.113Z" fill="#80C428"/>
<path d="M44.4453 103.705H51.8532V96.2969H44.4453V103.705Z" fill="#80C428"/>
<path d="M59.2618 133.332H66.6697V125.926H59.2618V133.332Z" fill="#80C428"/>
<path d="M66.668 125.926V133.332H74.0759V125.926H66.668Z" fill="#80C428"/>
<path d="M74.0743 133.332H81.4822V125.926H74.0743V133.332Z" fill="#80C428"/>
<path d="M51.8516 133.332H59.2577V125.926H51.8516V133.332Z" fill="#80C428"/>
<path d="M44.4453 96.2969H51.8532L51.8533 88.8887H44.4454L44.4453 96.2969Z" fill="#80C428"/>
<path d="M44.4454 81.4821H51.8533V74.0742H44.4454V81.4821Z" fill="#80C428"/>
<path d="M44.4454 88.8887H51.8533V81.4821H44.4454V88.8887Z" fill="#80C428"/>
<path d="M59.2618 59.2598H66.6697L66.6696 51.8532H59.2617L59.2618 59.2598Z" fill="#80C428"/>
<path d="M66.668 59.2598H74.0759L74.0759 51.8532H66.668L66.668 59.2598Z" fill="#80C428"/>
<path d="M74.0743 59.2598H81.4822L81.4821 51.8532H74.0742L74.0743 59.2598Z" fill="white"/>
<path d="M51.8516 59.2598H59.2577L59.2576 51.8532H51.8516L51.8516 59.2598Z" fill="#80C428"/>
<path d="M44.4454 74.0759H51.8533V66.668H44.4454V74.0759Z" fill="#80C428"/>
<path d="M81.4844 133.332H88.8907L88.8905 125.926H81.4844V133.332Z" fill="#80C428"/>
<path d="M44.4453 59.2596H51.8532V51.8532H44.4453V59.2596Z" fill="#BFE137"/>
<path d="M44.4454 66.668H51.8533L51.8532 59.2596H44.4453L44.4454 66.668Z" fill="#80C428"/>
<path d="M44.4454 125.927H51.8533V118.519H44.4454V125.927Z" fill="#80C428"/>
<path d="M118.519 66.668L125.927 66.6676V59.2598H118.519V66.668Z" fill="#80C428"/>
<path d="M118.519 59.2598H125.927L125.927 51.8535H118.519L118.519 59.2598Z" fill="white"/>
<path d="M118.519 81.4824L125.927 81.4821V74.0742H118.519V81.4824Z" fill="#231F20"/>
<path d="M118.519 74.0759H125.927V66.6676L118.519 66.668V74.0759Z" fill="#5FA52B"/>
<path d="M118.519 51.8535H125.927L125.927 44.445H118.52L118.519 51.8535Z" fill="white"/>
<path d="M88.8907 133.332H96.2986V125.926H88.8905L88.8907 133.332Z" fill="#5FA52B"/>
<path d="M88.8906 51.8535H96.2985L96.2986 44.445H88.8907L88.8906 51.8535Z" fill="white"/>
<path d="M96.2969 51.8535H103.703L103.703 44.445H96.2969L96.2969 51.8535Z" fill="white"/>
<path d="M111.113 51.8535H118.519L118.52 44.445H111.113L111.113 51.8535Z" fill="white"/>
<path d="M103.703 51.8535H111.109L111.109 44.445H103.703L103.703 51.8535Z" fill="#80C428"/>
<path d="M118.519 88.8885H125.927V81.4821L118.519 81.4824V88.8885Z" fill="white"/>
<path d="M111.113 133.332H118.52L118.519 125.926H111.113V133.332Z" fill="#5FA52B"/>
<path d="M103.703 133.332H111.109V125.926H103.703V133.332Z" fill="#5FA52B"/>
<path d="M118.52 133.332H125.927V125.926H118.519L118.52 133.332Z" fill="#5FA52B"/>
<path d="M118.519 96.2969L125.927 96.2966V88.8885H118.519L118.519 96.2969Z" fill="#8F1217"/>
<path d="M96.2969 133.332H103.705V125.926H96.2969V133.332Z" fill="#5FA52B"/>
<path d="M118.519 111.113H125.927V103.705L118.519 103.705V111.113Z" fill="#C81830"/>
<path d="M118.519 125.927H125.927V118.52L118.519 118.519V125.927Z" fill="#80C428"/>
<path d="M118.519 103.705L125.927 103.705L125.927 96.2966L118.519 96.2969V103.705Z" fill="#C81830"/>
<path d="M118.519 118.519L125.927 118.52V111.111H118.519V118.519Z" fill="#231F20"/>
<path d="M103.703 185.186H111.109V177.777H103.703V185.186Z" fill="#E4A20A"/>
<path d="M51.8516 185.186H59.2577V177.777H51.8516V185.186Z" fill="#5FA52B"/>
<path d="M37.0391 185.186H44.447V177.777H37.0391V185.186Z" fill="#5FA52B"/>
<path d="M29.629 185.186H37.0369V177.777H29.629V185.186Z" fill="#5FA52B"/>
<path d="M44.4454 185.186H51.8533V177.777H44.4454V185.186Z" fill="#5FA52B"/>
<path d="M66.668 185.186H74.0759V177.777H66.668V185.186Z" fill="#3F8229"/>
<path d="M88.8905 185.186H96.2986V177.777H88.8907L88.8905 185.186Z" fill="#80C428"/>
<path d="M74.0743 185.186H81.4822V177.777H74.0743V185.186Z" fill="#231F20"/>
<path d="M96.2969 185.186H103.705V177.777H96.2969V185.186Z" fill="#231F20"/>
<path d="M81.4844 185.186H88.8905L88.8907 177.777H81.4844V185.186Z" fill="#80C428"/>
<path d="M59.2618 185.186H66.6697V177.777H59.2618V185.186Z" fill="#231F20"/>
<path d="M14.8165 185.186H22.2244V177.777H14.8165V185.186Z" fill="#231F20"/>
<path d="M7.41022 185.186H14.8181V177.777H7.41022V185.186Z" fill="#231F20"/>
<path d="M22.2227 185.186H29.629V177.777H22.2227V185.186Z" fill="#5FA52B"/>
<path d="M162.965 59.2596H170.371V51.8535H162.965V59.2596Z" fill="#BFE137"/>
<path d="M162.965 66.6676H170.371L170.371 59.2596H162.965L162.965 66.6676Z" fill="#80C428"/>
<path d="M162.965 74.0759H170.371V66.6676H162.965V74.0759Z" fill="#231F20"/>
<path d="M162.965 96.2966H170.371V88.8887H162.965V96.2966Z" fill="#80C428"/>
<path d="M162.965 81.4821H170.371V74.0742H162.965V81.4821Z" fill="#231F20"/>
<path d="M162.965 88.8887H170.371V81.4821H162.965V88.8887Z" fill="#231F20"/>
<path d="M162.965 37.0368H170.371V29.6289H162.965V37.0368Z" fill="#231F20"/>
<path d="M162.965 29.6289H170.371V22.2227H162.965V29.6289Z" fill="#231F20"/>
<path d="M162.965 51.8535H170.371V44.4453H162.965V51.8535Z" fill="#80C428"/>
<path d="M162.965 44.4453H170.371L170.371 37.0368H162.965L162.965 44.4453Z" fill="#80C428"/>
<path d="M162.965 155.556H170.371V148.148H162.965V155.556Z" fill="#231F20"/>
<path d="M162.965 148.148H170.371L170.371 140.74H162.965L162.965 148.148Z" fill="#231F20"/>
<path d="M162.965 140.74H170.371V133.332H162.965V140.74Z" fill="#231F20"/>
<path d="M162.965 162.965H170.371L170.371 155.556H162.965L162.965 162.965Z" fill="#231F20"/>
<path d="M118.519 162.965H125.927L125.927 155.556H118.52L118.519 162.965Z" fill="#FFF533"/>
<path d="M162.965 111.113H170.371V103.705H162.965V111.113Z" fill="#80C428"/>
<path d="M162.965 118.519H170.371V111.111H162.965V118.519Z" fill="#80C428"/>
<path d="M162.965 133.332H170.371V125.926H162.965V133.332Z" fill="#80C428"/>
<path d="M162.965 103.705H170.371L170.371 96.2966H162.965L162.965 103.705Z" fill="#80C428"/>
<path d="M111.113 7.40789H118.519V0H111.113V7.40789Z" fill="#231F20"/>
<path d="M96.2969 7.40789H103.705V0H96.2969V7.40789Z" fill="#231F20"/>
<path d="M66.668 7.40789H74.0759V0H66.668V7.40789Z" fill="#231F20"/>
<path d="M81.4844 7.40789H88.8904V0H81.4844V7.40789Z" fill="#231F20"/>
<path d="M88.8904 7.40789H96.2985V0H88.8904V7.40789Z" fill="#231F20"/>
<path d="M74.0742 7.40789H81.4821V0H74.0742V7.40789Z" fill="#231F20"/>
<path d="M140.742 7.40789H148.15V0H140.742V7.40789Z" fill="#231F20"/>
<path d="M133.336 7.40789H140.742V0H133.336V7.40789Z" fill="#231F20"/>
<path d="M118.519 7.40789H125.927V0H118.519V7.40789Z" fill="#231F20"/>
<path d="M125.926 7.40789H133.334V0H125.926V7.40789Z" fill="#231F20"/>
<path d="M111.113 185.186H118.519V177.777H111.113V185.186Z" fill="#E4A20A"/>
<path d="M162.965 170.371H170.371V162.965H162.965V170.371Z" fill="#5FA52B"/>
<path d="M170.371 140.74L177.779 140.74V133.332H170.371V140.74Z" fill="#80C428"/>
<path d="M170.371 133.332H177.779V125.926H170.371V133.332Z" fill="#80C428"/>
<path d="M170.371 148.148L177.779 148.148V140.74L170.371 140.74L170.371 148.148Z" fill="#80C428"/>
<path d="M170.371 162.965H177.779V155.557L170.371 155.556L170.371 162.965Z" fill="#5FA52B"/>
<path d="M170.371 155.556L177.779 155.557V148.148L170.371 148.148V155.556Z" fill="#80C428"/>
<path d="M170.371 170.371H177.779V162.965H170.371V170.371Z" fill="#5FA52B"/>
<path d="M170.371 96.2966H177.779V88.8887H170.371V96.2966Z" fill="#80C428"/>
<path d="M170.371 111.113H177.779V103.705H170.371V111.113Z" fill="#80C428"/>
<path d="M170.371 125.927H177.779V118.52L170.371 118.519L170.371 125.927Z" fill="#80C428"/>
<path d="M170.371 118.519L177.779 118.52V111.111H170.371V118.519Z" fill="#80C428"/>
<path d="M170.371 103.705H177.779L177.779 96.2966H170.371L170.371 103.705Z" fill="#80C428"/>
<path d="M140.742 185.186L148.15 185.185V177.777H140.742L140.742 185.186Z" fill="#80C428"/>
<path d="M125.926 185.186H133.334V177.777H125.926V185.186Z" fill="#231F20"/>
<path d="M133.336 185.186H140.742L140.742 177.777H133.336V185.186Z" fill="#80C428"/>
<path d="M170.371 177.779H177.779V170.371H170.371L170.371 177.779Z" fill="#5FA52B"/>
<path d="M118.519 185.186H125.927V177.777H118.519V185.186Z" fill="#E4A20A"/>
<path d="M170.371 185.186H177.779V177.777H170.371L170.371 185.186Z" fill="#231F20"/>
<path d="M162.965 185.186H170.371L170.371 177.777H162.965V185.186Z" fill="#231F20"/>
<path d="M155.555 185.186H162.963V177.777H155.555V185.186Z" fill="#3F8229"/>
<path d="M148.148 185.185H155.556V177.777H148.148V185.185Z" fill="#231F20"/>
<path d="M170.371 88.8887H177.779V81.4824L170.371 81.4821V88.8887Z" fill="#80C428"/>
<path d="M170.371 74.0759H177.779V66.668L170.371 66.6676V74.0759Z" fill="#80C428"/>
<path d="M170.371 59.2596H177.779V51.8535H170.371V59.2596Z" fill="#80C428"/>
<path d="M170.371 81.4821L177.779 81.4824V74.0742H170.371V81.4821Z" fill="#80C428"/>
<path d="M170.371 66.6676L177.779 66.668L177.779 59.2596H170.371L170.371 66.6676Z" fill="#BFE137"/>
<path d="M170.371 44.4453L177.779 44.445V37.0371L170.371 37.0368L170.371 44.4453Z" fill="#231F20"/>
<path d="M170.371 51.8535H177.779L177.779 44.445L170.371 44.4453V51.8535Z" fill="#80C428"/>
<path d="M162.965 125.927H170.371L170.371 118.519H162.965V125.927Z" fill="#80C428"/>
<path d="M7.41022 140.742H14.8181V133.332H7.41022V140.742Z" fill="#231F20"/>
<path d="M14.8165 170.371H22.2244V162.965H14.8165V170.371Z" fill="#231F20"/>
<path d="M14.8165 162.965H22.2244L22.2243 155.556H14.8164L14.8165 162.965Z" fill="#80C428"/>
<path d="M7.41022 148.148H14.8181V140.74H7.41022V148.148Z" fill="#231F20"/>
<path d="M7.41016 155.556H14.818L14.8181 148.148H7.41022L7.41016 155.556Z" fill="#231F20"/>
<path d="M7.41022 162.965H14.8181L14.818 155.556H7.41016L7.41022 162.965Z" fill="#231F20"/>
<path d="M22.2227 170.371H29.6288V162.965H22.2227V170.371Z" fill="#80C428"/>
<path d="M125.926 170.371H133.334V162.965H125.926V170.371Z" fill="#FFF533"/>
<path d="M118.52 170.371H125.927V162.965H118.519L118.52 170.371Z" fill="#FFF533"/>
<path d="M111.113 170.371H118.52L118.519 162.965H111.113V170.371Z" fill="#FFF533"/>
<path d="M133.336 170.371H140.742V162.965H133.336V170.371Z" fill="#231F20"/>
<path d="M103.703 170.371H111.109V162.965H103.703V170.371Z" fill="#FFF533"/>
<path d="M155.555 162.965H162.963V155.557H155.555V162.965Z" fill="#80C428"/>
<path d="M96.2969 170.371H103.705V162.965H96.2969V170.371Z" fill="#FFF533"/>
<path d="M155.555 170.371H162.963V162.965H155.555V170.371Z" fill="#231F20"/>
<path d="M148.148 170.371H155.556V162.965H148.148V170.371Z" fill="#80C428"/>
<path d="M140.742 170.371H148.15V162.965H140.742V170.371Z" fill="#BFE137"/>
<path d="M44.4454 170.371H51.8533V162.965H44.4454V170.371Z" fill="#231F20"/>
<path d="M37.0391 170.371H44.447V162.965H37.0391V170.371Z" fill="#5FA52B"/>
<path d="M29.6288 170.371H37.0369V162.965H29.6288V170.371Z" fill="#80C428"/>
<path d="M51.8516 170.371H59.2577V162.965H51.8516V170.371Z" fill="#5FA52B"/>
<path d="M66.668 170.371H74.0759V162.965H66.668V170.371Z" fill="#231F20"/>
<path d="M74.0743 170.371H81.4822V162.965H74.0743V170.371Z" fill="#80C428"/>
<path d="M81.4844 170.371H88.8905V162.965H81.4844V170.371Z" fill="#80C428"/>
<path d="M59.2618 170.371H66.6697V162.965H59.2618V170.371Z" fill="#80C428"/>
<path d="M88.8905 170.371H96.2986V162.965H88.8905V170.371Z" fill="#231F20"/>
<path d="M148.148 81.4821H155.556V74.0742H148.148V81.4821Z" fill="#231F20"/>
<path d="M155.555 155.557H162.963L162.963 148.148H155.555L155.555 155.557Z" fill="#80C428"/>
<path d="M148.148 96.2966H155.556V88.8887H148.148V96.2966Z" fill="#6A0C0F"/>
<path d="M148.148 103.705H155.556L155.556 96.2966H148.148L148.148 103.705Z" fill="#231F20"/>
<path d="M148.148 118.519H155.556V111.111H148.148V118.519Z" fill="#80C428"/>
<path d="M148.148 111.113H155.556V103.705H148.148V111.113Z" fill="#80C428"/>
<path d="M148.148 51.8532H155.556V44.4453H148.148V51.8532Z" fill="white"/>
<path d="M148.148 74.0759H155.556V66.668H148.148V74.0759Z" fill="#5FA52B"/>
<path d="M148.148 59.2596H155.556V51.8532H148.148V59.2596Z" fill="#80C428"/>
<path d="M148.148 44.4453H155.556L155.556 37.0371H148.148L148.148 44.4453Z" fill="white"/>
<path d="M148.148 66.668H155.556L155.556 59.2596H148.148L148.148 66.668Z" fill="#80C428"/>
<path d="M140.742 162.965H148.15L148.15 155.556H140.742L140.742 162.965Z" fill="#BFE137"/>
<path d="M133.336 162.965H140.742L140.742 155.556H133.336L133.336 162.965Z" fill="#231F20"/>
<path d="M148.148 162.965H155.556V155.557H148.148V162.965Z" fill="#80C428"/>
<path d="M125.926 162.965H133.334L133.334 155.556H125.926L125.926 162.965Z" fill="#FFF533"/>
<path d="M162.965 177.779H170.371L170.371 170.371H162.965V177.779Z" fill="#5FA52B"/>
<path d="M148.148 133.332H155.556V125.926H148.148V133.332Z" fill="#80C428"/>
<path d="M148.148 140.74H155.556V133.332H148.148V140.74Z" fill="#80C428"/>
<path d="M148.148 155.557H155.556L155.556 148.148H148.148L148.148 155.557Z" fill="#80C428"/>
<path d="M148.148 125.927H155.556V118.519H148.148V125.927Z" fill="#80C428"/>
<path d="M148.148 88.8887H155.556V81.4821H148.148V88.8887Z" fill="#6A0C0F"/>
<path d="M59.2618 22.2243H66.6697V14.8164H59.2618V22.2243Z" fill="#80C428"/>
<path d="M51.8516 22.2243H59.2577V14.8164H51.8516V22.2243Z" fill="#231F20"/>
<path d="M66.668 22.2243H74.0759V14.8164H66.668V22.2243Z" fill="#80C428"/>
<path d="M88.8906 22.2246H96.2984V14.8164H88.8906V22.2246Z" fill="#5FA52B"/>
<path d="M81.4844 22.2243L88.8906 22.2246V14.8164H81.4844V22.2243Z" fill="#5FA52B"/>
<path d="M74.0743 22.2243H81.4822V14.8164H74.0743V22.2243Z" fill="#5FA52B"/>
<path d="M103.703 22.2243H111.109V14.8164H103.703V22.2243Z" fill="#80C428"/>
<path d="M148.148 22.2243H155.556V14.8164H148.148V22.2243Z" fill="#80C428"/>
<path d="M133.336 22.2243H140.742V14.8164H133.336V22.2243Z" fill="#5FA52B"/>
<path d="M96.2969 22.2243H103.705V14.8164H96.2969V22.2243Z" fill="#80C428"/>
<path d="M148.148 29.6287H155.556V22.2227H148.148V29.6287Z" fill="#5FA52B"/>
<path d="M140.742 22.2243H148.15V14.8164H140.742V22.2243Z" fill="#5FA52B"/>
<path d="M125.926 22.2243H133.334V14.8164H125.926V22.2243Z" fill="#5FA52B"/>
<path d="M148.148 37.0371H155.556V29.6287H148.148V37.0371Z" fill="white"/>
<path d="M111.113 22.2243H118.519V14.8164H111.113V22.2243Z" fill="#80C428"/>
<path d="M118.519 22.2243H125.927V14.8164H118.519V22.2243Z" fill="#5FA52B"/>
<path d="M148.148 148.148H155.556L155.556 140.74H148.148L148.148 148.148Z" fill="#80C428"/>
<path d="M125.926 177.779H133.334V170.371H125.926V177.779Z" fill="#231F20"/>
<path d="M111.113 177.779H118.519L118.52 170.371H111.113V177.779Z" fill="#FBC707"/>
<path d="M118.519 177.779H125.927V170.371H118.52L118.519 177.779Z" fill="#FBC707"/>
<path d="M103.703 177.779H111.109V170.371H103.703V177.779Z" fill="#FBC707"/>
<path d="M96.2969 177.779H103.705V170.371H96.2969V177.779Z" fill="#231F20"/>
<path d="M148.148 177.779H155.556V170.371H148.148V177.779Z" fill="#80C428"/>
<path d="M155.555 177.779H162.963V170.371H155.555V177.779Z" fill="#231F20"/>
<path d="M88.8907 177.779H96.2986V170.371H88.8905L88.8907 177.779Z" fill="#BFE137"/>
<path d="M140.742 177.779H148.15V170.371H140.742L140.742 177.779Z" fill="#80C428"/>
<path d="M133.336 177.779H140.742L140.742 170.371H133.336V177.779Z" fill="#BFE137"/>
<path d="M51.8516 177.779H59.2577V170.371H51.8516V177.779Z" fill="#231F20"/>
<path d="M29.629 177.779H37.0369V170.371H29.6288L29.629 177.779Z" fill="#80C428"/>
<path d="M44.4454 177.779H51.8533V170.371H44.4454V177.779Z" fill="#5FA52B"/>
<path d="M37.0391 177.779H44.447V170.371H37.0391V177.779Z" fill="#80C428"/>
<path d="M22.2227 177.779H29.629L29.6288 170.371H22.2227V177.779Z" fill="#231F20"/>
<path d="M74.0743 177.779H81.4822V170.371H74.0743V177.779Z" fill="#231F20"/>
<path d="M66.668 177.779H74.0759V170.371H66.668V177.779Z" fill="#5FA52B"/>
<path d="M81.4844 177.779H88.8907L88.8905 170.371H81.4844V177.779Z" fill="#80C428"/>
<path d="M59.2618 177.779H66.6697V170.371H59.2618V177.779Z" fill="#5FA52B"/>
<path d="M155.555 37.0368H162.963V29.6289H155.555V37.0368Z" fill="#80C428"/>
<path d="M155.555 44.445H162.963V37.0368H155.555V44.445Z" fill="#80C428"/>
<path d="M155.555 51.8532H162.963L162.963 44.445H155.555L155.555 51.8532Z" fill="#80C428"/>
<path d="M155.555 66.6676H162.963V59.2598H155.555V66.6676Z" fill="#80C428"/>
<path d="M140.742 14.8164H148.15L148.15 7.40789H140.742L140.742 14.8164Z" fill="#BFE137"/>
<path d="M155.555 22.2243H162.963V14.8164H155.555V22.2243Z" fill="#231F20"/>
<path d="M155.555 29.6289H162.963V22.2227H155.555V29.6289Z" fill="#80C428"/>
<path d="M148.148 14.8164H155.556V7.4082H148.148V14.8164Z" fill="#231F20"/>
<path d="M155.555 74.0759H162.963V66.6676H155.555V74.0759Z" fill="#231F20"/>
<path d="M155.555 59.2598H162.963L162.963 51.8532H155.555L155.555 59.2598Z" fill="#80C428"/>
<path d="M155.555 118.519H162.963V111.111H155.555V118.519Z" fill="#80C428"/>
<path d="M155.555 133.332H162.963V125.926H155.555V133.332Z" fill="#80C428"/>
<path d="M155.555 125.927H162.963V118.519H155.555V125.927Z" fill="#80C428"/>
<path d="M155.555 140.74H162.963V133.332H155.555V140.74Z" fill="#80C428"/>
<path d="M155.555 96.2966H162.963V88.8887H155.555V96.2966Z" fill="#231F20"/>
<path d="M155.555 88.8887H162.963V81.4824H155.555V88.8887Z" fill="#6A0C0F"/>
<path d="M155.555 81.4824H162.963V74.0742H155.555V81.4824Z" fill="#6A0C0F"/>
<path d="M155.555 111.113H162.963V103.705H155.555V111.113Z" fill="#80C428"/>
<path d="M155.555 103.705H162.963L162.963 96.2966H155.555L155.555 103.705Z" fill="#80C428"/>
<path d="M66.668 14.8164H74.0759L74.0759 7.40789H66.668L66.668 14.8164Z" fill="#BFE137"/>
<path d="M59.2618 14.8164H66.6697V7.4082H59.2618V14.8164Z" fill="#231F20"/>
<path d="M155.555 148.148H162.963L162.963 140.74H155.555L155.555 148.148Z" fill="#80C428"/>
<path d="M74.0743 14.8164H81.4822L81.4821 7.40789H74.0742L74.0743 14.8164Z" fill="#BFE137"/>
<path d="M103.703 14.8164H111.109V7.4082H103.703V14.8164Z" fill="#231F20"/>
<path d="M111.113 14.8164H118.519L118.519 7.40789H111.113L111.113 14.8164Z" fill="#BFE137"/>
<path d="M118.519 14.8164H125.927L125.927 7.40789H118.519L118.519 14.8164Z" fill="#BFE137"/>
<path d="M125.926 14.8164H133.334L133.334 7.40789H125.926L125.926 14.8164Z" fill="#BFE137"/>
<path d="M133.336 14.8164H140.742L140.742 7.40789H133.336L133.336 14.8164Z" fill="#BFE137"/>
<path d="M81.4844 14.8164L88.8923 14.8161V7.4082L81.4844 7.40789L81.4844 14.8164Z" fill="#BFE137"/>
<path d="M88.8906 14.8164H96.2984L96.2985 7.40789H88.8904L88.8906 14.8164Z" fill="#BFE137"/>
<path d="M96.2969 14.8164H103.705L103.705 7.40789H96.2969L96.2969 14.8164Z" fill="#BFE137"/>
<path d="M229.629 155.556H237.037V148.148H229.629V155.556Z" fill="#80C428"/>
<path d="M229.629 140.74H237.037V133.332H229.629V140.74Z" fill="#BFE137"/>
<path d="M229.629 148.148H237.037L237.037 140.74H229.629L229.629 148.148Z" fill="#80C428"/>
<path d="M229.629 133.332H237.037V125.926H229.629V133.332Z" fill="#BFE137"/>
<path d="M229.629 125.927H237.037V118.52H229.629V125.927Z" fill="#231F20"/>
<path d="M229.629 185.185H237.037V177.777H229.629V185.185Z" fill="#231F20"/>
<path d="M229.629 162.965H237.037L237.037 155.556H229.629L229.629 162.965Z" fill="#231F20"/>
<path d="M229.629 192.593H237.037V185.185H229.629V192.593Z" fill="#3F8229"/>
<path d="M229.629 200H237.037L237.037 192.593H229.629L229.629 200Z" fill="#231F20"/>
<path d="M222.223 155.556H229.629V148.148H222.223V155.556Z" fill="#80C428"/>
<path d="M222.223 162.965H229.629L229.629 155.556H222.223L222.223 162.965Z" fill="#80C428"/>
<path d="M222.223 148.148H229.629L229.629 140.74L222.223 140.74L222.223 148.148Z" fill="#80C428"/>
<path d="M222.223 170.371H229.629L229.629 162.965H222.223V170.371Z" fill="#231F20"/>
<path d="M222.223 140.74L229.629 140.74V133.332H222.223V140.74Z" fill="#80C428"/>
<path d="M222.223 185.185H229.629V177.777H222.223V185.185Z" fill="#231F20"/>
<path d="M222.223 125.927H229.629V118.52H222.223V125.927Z" fill="#231F20"/>
<path d="M222.223 133.332H229.629V125.926H222.223V133.332Z" fill="#BFE137"/>
<path d="M222.223 192.593H229.629V185.185H222.223V192.593Z" fill="#231F20"/>
<path d="M222.223 200H229.629L229.629 192.593H222.223L222.223 200Z" fill="#231F20"/>
<path d="M237.039 140.74H244.445V133.332H237.039V140.74Z" fill="#231F20"/>
<path d="M237.039 148.148H244.445V140.74H237.039V148.148Z" fill="#231F20"/>
<path d="M237.039 133.332H244.445V125.926H237.039V133.332Z" fill="#231F20"/>
<path d="M237.039 155.556H244.445L244.445 148.148H237.039L237.039 155.556Z" fill="#231F20"/>
<path d="M237.039 200H244.445V192.594H237.039V200Z" fill="#231F20"/>
<path d="M237.039 192.594H244.445L244.445 185.186H237.039L237.039 192.594Z" fill="#231F20"/>
</svg>
