<svg width="307" height="200" viewBox="0 0 307 200" fill="none" xmlns="http://www.w3.org/2000/svg">
<path d="M267.395 94.4427H267.403V88.8867H267.395V94.4427Z" fill="#666DA8"/>
<path d="M267.395 100.001H267.403V94.4453H267.395V100.001Z" fill="#666DA8"/>
<path d="M267.395 122.222H267.403V116.666H267.395V122.222Z" fill="#666DA8"/>
<path d="M267.395 116.666H267.403L267.403 111.109H267.395L267.395 116.666Z" fill="#666DA8"/>
<path d="M89.629 194.443H95.1836V188.887H89.629V194.443Z" fill="#454B78"/>
<path d="M50.7383 127.777H56.2928V122.223H50.7383V127.777Z" fill="#231F20"/>
<path d="M72.9611 194.443H78.517V188.887H72.9611V194.443Z" fill="#231F20"/>
<path d="M78.5157 194.443H84.0717V188.887H78.5157V194.443Z" fill="#666DA8"/>
<path d="M84.0704 194.443H89.6264V188.887H84.0704V194.443Z" fill="#454B78"/>
<path d="M50.7384 138.888H56.293V133.332H50.7384V138.888Z" fill="#666DA8"/>
<path d="M50.7383 144.445H56.2928L56.293 138.888H50.7384L50.7383 144.445Z" fill="#454B78"/>
<path d="M50.7383 133.333H56.2928V127.777H50.7383V133.333Z" fill="#666DA8"/>
<path d="M50.7384 150H56.293L56.2928 144.445H50.7383L50.7384 150Z" fill="#454B78"/>
<path d="M50.7384 155.556H56.293V150H50.7384V155.556Z" fill="#231F20"/>
<path d="M95.1836 194.443H100.74V188.887H95.1836V194.443Z" fill="#231F20"/>
<path d="M178.516 194.443H184.072V188.887H178.516V194.443Z" fill="#454B78"/>
<path d="M172.961 194.443H178.516V188.887H172.961V194.443Z" fill="#454B78"/>
<path d="M184.07 194.443H189.626V188.887H184.07V194.443Z" fill="#231F20"/>
<path d="M167.406 194.443H172.962V188.887H167.406V194.443Z" fill="#231F20"/>
<path d="M50.7383 122.223H56.2928V116.666H50.7383V122.223Z" fill="white"/>
<path d="M161.852 194.443H167.408V188.887H161.852V194.443Z" fill="#231F20"/>
<path d="M50.7383 116.666H56.2928L56.293 111.109H50.7384L50.7383 116.666Z" fill="#5F080B"/>
<path d="M150.738 27.7772H156.294V22.2227H150.738V27.7772Z" fill="#858AC5"/>
<path d="M172.961 27.7772H178.515V22.2227H172.961V27.7772Z" fill="#666DA8"/>
<path d="M178.515 27.7772H184.072V22.2227H178.515V27.7772Z" fill="#666DA8"/>
<path d="M167.406 27.7772H172.962V22.2227H167.406V27.7772Z" fill="#666DA8"/>
<path d="M139.625 27.7772H145.181V22.2227H139.625V27.7772Z" fill="#231F20"/>
<path d="M184.07 27.7772H189.626V22.2227H184.07V27.7772Z" fill="#231F20"/>
<path d="M145.184 27.7772H150.74V22.2227H145.184V27.7772Z" fill="#858AC5"/>
<path d="M161.852 27.7772H167.408V22.2227H161.852V27.7772Z" fill="#666DA8"/>
<path d="M156.293 27.7772H161.848V22.2227H156.293V27.7772Z" fill="#666DA8"/>
<path d="M50.7383 83.3319H56.2928V77.7773H50.7383V83.3319Z" fill="#666DA8"/>
<path d="M50.7384 77.7786H56.293V72.2227H50.7384V77.7786Z" fill="#666DA8"/>
<path d="M50.7383 88.888H56.2928V83.3319H50.7383V88.888Z" fill="#666DA8"/>
<path d="M50.7384 61.1106H56.293V55.5547H50.7384V61.1106Z" fill="#666DA8"/>
<path d="M50.7384 72.2227H56.293V66.668H50.7384V72.2227Z" fill="#666DA8"/>
<path d="M50.7384 66.668H56.293V61.1106H50.7384V66.668Z" fill="#666DA8"/>
<path d="M50.7383 111.111H56.2928V105.555H50.7383V111.111Z" fill="#5F080B"/>
<path d="M50.7384 94.4427H56.293V88.8867H50.7384V94.4427Z" fill="#666DA8"/>
<path d="M50.7383 105.555H56.2928V100H50.7383V105.555Z" fill="white"/>
<path d="M50.7384 100.001H56.293V94.4453H50.7384V100.001Z" fill="#231F20"/>
<path d="M50.7384 49.9999H56.293V44.4453H50.7384V49.9999Z" fill="#858AC5"/>
<path d="M50.7384 55.5559H56.293V49.9999H50.7384V55.5559Z" fill="#666DA8"/>
<path d="M50.7384 44.4453H56.293L56.2928 38.8887H50.7383L50.7384 44.4453Z" fill="#231F20"/>
<path d="M145.184 22.2206H150.74V16.666H145.184V22.2206Z" fill="#231F20"/>
<path d="M150.738 22.2206H156.294V16.666H150.738V22.2206Z" fill="#858AC5"/>
<path d="M45.1836 127.777H50.7395V122.223H45.1836V127.777Z" fill="#454B78"/>
<path d="M45.1834 105.555H50.7393V100H45.1834V105.555Z" fill="#5F080B"/>
<path d="M45.1837 100.001H50.7397V94.4453H45.1837V100.001Z" fill="#231F20"/>
<path d="M45.1834 88.8881H50.7393V83.3322H45.1834V88.8881Z" fill="#666DA8"/>
<path d="M45.1834 83.3322H50.7393L50.7395 77.7773H45.1836L45.1834 83.3322Z" fill="#666DA8"/>
<path d="M45.1835 116.667H50.7394V111.111H45.1835V116.667Z" fill="#5F080B"/>
<path d="M156.293 22.2206H161.848V16.666H156.293V22.2206Z" fill="#858AC5"/>
<path d="M45.1836 133.333H50.7395V127.777H45.1836V133.333Z" fill="#666DA8"/>
<path d="M45.1836 122.223H50.7395V116.666H45.1836V122.223Z" fill="#231F20"/>
<path d="M45.1837 94.4427H50.7397V88.8867H45.1837V94.4427Z" fill="#666DA8"/>
<path d="M45.1837 49.9999H50.7397V44.4453H45.1837V49.9999Z" fill="#231F20"/>
<path d="M45.1836 77.7773H50.7395L50.7394 72.2207H45.1835L45.1836 77.7773Z" fill="#666DA8"/>
<path d="M45.1837 55.5559H50.7397V49.9999H45.1837V55.5559Z" fill="#858AC5"/>
<path d="M45.1835 72.2225H50.7394V66.668H45.1835V72.2225Z" fill="#666DA8"/>
<path d="M45.1835 66.668H50.7394L50.7393 61.1112H45.1834L45.1835 66.668Z" fill="#666DA8"/>
<path d="M45.1834 61.1112H50.7393L50.7397 55.5547H45.1837L45.1834 61.1112Z" fill="#666DA8"/>
<path d="M45.1835 111.111H50.7394L50.7393 105.555H45.1834L45.1835 111.111Z" fill="#5F080B"/>
<path d="M217.407 116.667H222.961V111.111H217.407V116.667Z" fill="#666DA8"/>
<path d="M217.406 83.3319H222.961V77.7773H217.406V83.3319Z" fill="#666DA8"/>
<path d="M217.407 111.111H222.961L222.961 105.555H217.406L217.407 111.111Z" fill="#666DA8"/>
<path d="M217.406 127.777H222.961V122.223H217.406V127.777Z" fill="#666DA8"/>
<path d="M217.406 133.333H222.961V127.777H217.406V133.333Z" fill="#666DA8"/>
<path d="M217.406 122.223H222.961V116.666H217.406V122.223Z" fill="#666DA8"/>
<path d="M217.406 94.4427H222.961V88.8867H217.406V94.4427Z" fill="#666DA8"/>
<path d="M217.406 88.8881H222.961L222.961 83.3319H217.406L217.406 88.8881Z" fill="#666DA8"/>
<path d="M217.406 105.555H222.961V100H217.406V105.555Z" fill="#666DA8"/>
<path d="M217.406 100.001H222.961V94.4453H217.406V100.001Z" fill="#666DA8"/>
<path d="M217.407 138.888H222.961V133.332H217.407V138.888Z" fill="#BABDE5"/>
<path d="M217.406 149.999H222.961V144.443H217.406V149.999Z" fill="#231F20"/>
<path d="M217.406 144.443H222.961L222.961 138.888H217.407L217.406 144.443Z" fill="#9BA1C6"/>
<path d="M167.406 22.2206H172.962V16.666H167.406V22.2206Z" fill="#666DA8"/>
<path d="M189.629 22.2206H195.185V16.666H189.629V22.2206Z" fill="#231F20"/>
<path d="M184.07 22.2206H189.626V16.666H184.07V22.2206Z" fill="#666DA8"/>
<path d="M172.961 22.2206H178.515V16.666H172.961V22.2206Z" fill="#666DA8"/>
<path d="M161.852 22.2206H167.408V16.666H161.852V22.2206Z" fill="#666DA8"/>
<path d="M178.515 22.2206H184.072V16.666H178.515V22.2206Z" fill="#666DA8"/>
<path d="M217.406 66.6671H222.961V61.1112H217.406V66.6671Z" fill="#231F20"/>
<path d="M217.407 72.2225H222.961L222.961 66.6671H217.406L217.407 72.2225Z" fill="#858AC5"/>
<path d="M217.406 77.7773H222.961L222.961 72.2207H217.407L217.406 77.7773Z" fill="#666DA8"/>
<path d="M156.293 183.333H161.848V177.777H156.293V183.333Z" fill="#858AC5"/>
<path d="M184.07 33.3333H189.626V27.7772H184.07V33.3333Z" fill="#231F20"/>
<path d="M150.738 33.3333H156.294V27.7772H150.738V33.3333Z" fill="#666DA8"/>
<path d="M178.516 33.3333H184.072V27.7772H178.515L178.516 33.3333Z" fill="#666DA8"/>
<path d="M161.852 33.3333H167.408V27.7772H161.852V33.3333Z" fill="#666DA8"/>
<path d="M172.961 33.3333H178.516L178.515 27.7772H172.961V33.3333Z" fill="#666DA8"/>
<path d="M156.293 33.3333H161.848V27.7772H156.293V33.3333Z" fill="#666DA8"/>
<path d="M167.406 33.3333H172.962V27.7772H167.406V33.3333Z" fill="#666DA8"/>
<path d="M206.293 72.2225H211.849V66.668H206.293V72.2225Z" fill="#666DA8"/>
<path d="M206.293 66.668H211.849L211.849 61.1113H206.293L206.293 66.668Z" fill="#858AC5"/>
<path d="M206.293 77.7786H211.849V72.2225H206.293V77.7786Z" fill="#666DA8"/>
<path d="M206.293 88.888H211.849V83.332H206.293V88.888Z" fill="#666DA8"/>
<path d="M206.293 83.332H211.849V77.7773H206.293V83.332Z" fill="#666DA8"/>
<path d="M56.293 55.5559H61.849V50L56.293 49.9999V55.5559Z" fill="#666DA8"/>
<path d="M145.184 33.3333H150.74V27.7772H145.184V33.3333Z" fill="#858AC5"/>
<path d="M56.293 44.4453L61.8489 44.4446V38.8887H56.2928L56.293 44.4453Z" fill="#231F20"/>
<path d="M134.074 33.3333H139.629V27.7773H134.074V33.3333Z" fill="#231F20"/>
<path d="M139.625 33.3333H145.181V27.7772H139.625V33.3333Z" fill="#858AC5"/>
<path d="M206.293 94.4427H211.849V88.8867H206.293V94.4427Z" fill="#666DA8"/>
<path d="M206.293 61.1113H211.849L211.849 55.5547H206.293L206.293 61.1113Z" fill="#231F20"/>
<path d="M172.961 183.333H178.515V177.777H172.961V183.333Z" fill="#666DA8"/>
<path d="M161.852 183.333H167.408V177.777H161.852V183.333Z" fill="#666DA8"/>
<path d="M167.406 183.333H172.962V177.777H167.406V183.333Z" fill="#666DA8"/>
<path d="M145.184 183.333H150.74V177.777H145.184V183.333Z" fill="#231F20"/>
<path d="M150.738 183.333H156.294V177.777H150.738V183.333Z" fill="#454B78"/>
<path d="M72.9609 183.333H78.5169V177.777H72.9609V183.333Z" fill="#454B78"/>
<path d="M67.4062 183.333H72.9609V177.777H67.4062V183.333Z" fill="#666DA8"/>
<path d="M45.1835 138.888H50.7394V133.332H45.1835V138.888Z" fill="#666DA8"/>
<path d="M78.5156 183.333H84.0716V177.777H78.5156V183.333Z" fill="#454B78"/>
<path d="M89.6289 183.333H95.1835V177.777H89.6289V183.333Z" fill="#231F20"/>
<path d="M84.0703 183.333H89.6263V177.777H84.0703V183.333Z" fill="#454B78"/>
<path d="M206.293 133.333H211.849V127.777H206.293V133.333Z" fill="#666DA8"/>
<path d="M206.293 138.888H211.849V133.332H206.293V138.888Z" fill="#666DA8"/>
<path d="M206.293 149.999H211.849V144.443H206.293V149.999Z" fill="#9BA1C6"/>
<path d="M206.293 155.556H211.849L211.849 149.999H206.293L206.293 155.556Z" fill="#231F20"/>
<path d="M178.531 183.333H184.087V177.777H178.531V183.333Z" fill="#231F20"/>
<path d="M206.293 144.443H211.849L211.849 138.888H206.293L206.293 144.443Z" fill="#BABDE5"/>
<path d="M206.293 105.555H211.849V100H206.293V105.555Z" fill="#666DA8"/>
<path d="M206.293 111.111H211.849V105.555H206.293V111.111Z" fill="#666DA8"/>
<path d="M206.293 122.222H211.849V116.666H206.293V122.222Z" fill="#666DA8"/>
<path d="M206.293 116.666H211.849L211.849 111.109H206.293L206.293 116.666Z" fill="#666DA8"/>
<path d="M206.293 127.777H211.849V122.222H206.293V127.777Z" fill="#666DA8"/>
<path d="M206.293 100.001H211.849V94.4453H206.293V100.001Z" fill="#666DA8"/>
<path d="M56.293 49.9999L61.849 50L61.8489 44.4446L56.293 44.4453V49.9999Z" fill="#858AC5"/>
<path d="M211.852 138.888H217.408V133.332H211.852V138.888Z" fill="#BABDE5"/>
<path d="M211.852 133.333H217.408V127.777H211.852V133.333Z" fill="#666DA8"/>
<path d="M161.852 188.889H167.408V183.333H161.852V188.889Z" fill="#454B78"/>
<path d="M56.293 61.1106H61.849V55.5547H56.293V61.1106Z" fill="#666DA8"/>
<path d="M172.961 188.889H178.515V183.333H172.961V188.889Z" fill="#666DA8"/>
<path d="M178.515 188.889H184.072V183.334L178.515 183.333V188.889Z" fill="#231F20"/>
<path d="M167.406 188.889H172.962V183.333H167.406V188.889Z" fill="#858AC5"/>
<path d="M211.852 127.777H217.408V122.223H211.852V127.777Z" fill="#666DA8"/>
<path d="M211.852 149.999H217.408V144.443H211.852V149.999Z" fill="#231F20"/>
<path d="M211.852 66.6673H217.408V61.1113H211.852V66.6673Z" fill="#231F20"/>
<path d="M211.852 88.888H217.408V83.332H211.852V88.888Z" fill="#666DA8"/>
<path d="M211.852 100.001H217.408V94.4453H211.852V100.001Z" fill="#666DA8"/>
<path d="M211.852 111.111H217.408V105.555H211.852V111.111Z" fill="#666DA8"/>
<path d="M211.852 72.2225H217.408L217.408 66.6673H211.852L211.852 72.2225Z" fill="#858AC5"/>
<path d="M211.852 116.665H217.408V111.109H211.852V116.665Z" fill="#666DA8"/>
<path d="M211.852 105.555H217.408V100H211.852V105.555Z" fill="#666DA8"/>
<path d="M211.852 77.7786H217.408V72.2225H211.852V77.7786Z" fill="#666DA8"/>
<path d="M211.852 83.332H217.408V77.7773H211.852V83.332Z" fill="#666DA8"/>
<path d="M211.852 122.223H217.408L217.408 116.665H211.852L211.852 122.223Z" fill="#666DA8"/>
<path d="M211.852 94.4427H217.408V88.8867H211.852V94.4427Z" fill="#666DA8"/>
<path d="M211.852 144.443H217.408L217.408 138.888H211.852L211.852 144.443Z" fill="#BABDE5"/>
<path d="M56.293 138.888H61.849V133.332H56.293V138.888Z" fill="#666DA8"/>
<path d="M56.2928 133.333H61.8489V127.777L56.2928 127.777V133.333Z" fill="#666DA8"/>
<path d="M56.2928 122.223L61.8489 122.222V116.666H56.2928V122.223Z" fill="#9C1116"/>
<path d="M56.2928 144.445H61.8489L61.849 138.888H56.293L56.2928 144.445Z" fill="#666DA8"/>
<path d="M56.2928 127.777L61.8489 127.777V122.222L56.2928 122.223V127.777Z" fill="#231F20"/>
<path d="M56.293 150H61.849L61.8489 144.445H56.2928L56.293 150Z" fill="#9BA1C6"/>
<path d="M56.2928 116.666H61.8489L61.849 111.109H56.293L56.2928 116.666Z" fill="#5F080B"/>
<path d="M56.2931 161.111H61.849V155.555H56.2931V161.111Z" fill="#231F20"/>
<path d="M56.293 166.666H61.8489L61.849 161.111H56.2931L56.293 166.666Z" fill="#231F20"/>
<path d="M56.293 155.556H61.849V150H56.293V155.556Z" fill="#454B78"/>
<path d="M56.293 72.2227L61.849 72.2225V66.668H56.293V72.2227Z" fill="#858AC5"/>
<path d="M56.293 172.222H61.8489V166.666H56.293V172.222Z" fill="#231F20"/>
<path d="M56.293 77.7786H61.849V72.2225L56.293 72.2227V77.7786Z" fill="#666DA8"/>
<path d="M56.2928 83.3319H61.8489V77.7773H56.2928V83.3319Z" fill="#666DA8"/>
<path d="M56.293 66.668H61.849V61.1106H56.293V66.668Z" fill="#666DA8"/>
<path d="M56.2928 88.888H61.8489V83.3319H56.2928V88.888Z" fill="#666DA8"/>
<path d="M56.293 100.001H61.849V94.4453H56.293V100.001Z" fill="#231F20"/>
<path d="M56.2928 105.555L61.8489 105.555V100H56.2928V105.555Z" fill="#5F080B"/>
<path d="M56.2928 111.111H61.8489V105.555L56.2928 105.555V111.111Z" fill="#5F080B"/>
<path d="M56.293 94.4427H61.849V88.8867H56.293V94.4427Z" fill="#666DA8"/>
<path d="M156.293 188.889H161.848V183.333H156.293V188.889Z" fill="#231F20"/>
<path d="M150.738 188.889H156.294V183.333H150.738V188.889Z" fill="#231F20"/>
<path d="M72.9609 188.889H78.5169V183.333H72.9609V188.889Z" fill="#666DA8"/>
<path d="M61.8477 183.333H67.4036V177.777H61.8477V183.333Z" fill="#231F20"/>
<path d="M67.4062 188.889H72.9609V183.333H67.4062V188.889Z" fill="#231F20"/>
<path d="M89.6289 188.889H95.1835V183.333H89.6289V188.889Z" fill="#231F20"/>
<path d="M84.0703 188.889H89.6263V183.333H84.0703V188.889Z" fill="#454B78"/>
<path d="M78.5156 188.889H84.0716V183.333H78.5156V188.889Z" fill="#454B78"/>
<path d="M161.852 11.1106H167.408V5.55469H161.852V11.1106Z" fill="#231F20"/>
<path d="M167.406 11.1106H172.962V5.55469H167.406V11.1106Z" fill="#231F20"/>
<path d="M200.738 11.1106H206.294V5.55469H200.738V11.1106Z" fill="#231F20"/>
<path d="M189.629 11.1106H195.185V5.55469H189.629V11.1106Z" fill="#858AC5"/>
<path d="M195.184 11.1106H200.738V5.55469H195.184V11.1106Z" fill="#858AC5"/>
<path d="M184.07 11.1106H189.626V5.55469H184.07V11.1106Z" fill="#858AC5"/>
<path d="M178.516 11.1105H184.071V5.55456H178.516V11.1105Z" fill="#858AC5"/>
<path d="M172.961 11.1106L178.516 11.1105V5.55456L172.961 5.55469V11.1106Z" fill="#858AC5"/>
<path d="M34.0704 49.9999H39.6264V44.4453H34.0704V49.9999Z" fill="#231F20"/>
<path d="M228.516 133.333H234.072V127.777H228.516V133.333Z" fill="#BABDE5"/>
<path d="M228.516 138.888H234.072V133.332H228.516V138.888Z" fill="#9BA1C6"/>
<path d="M228.516 144.443H234.072L234.072 138.888H228.516L228.516 144.443Z" fill="#231F20"/>
<path d="M228.516 127.777H234.072V122.223H228.516V127.777Z" fill="#666DA8"/>
<path d="M228.516 72.2225H234.072V66.668H228.516V72.2225Z" fill="#231F20"/>
<path d="M228.516 116.665H234.072V111.109H228.516V116.665Z" fill="#666DA8"/>
<path d="M228.516 111.111H234.072V105.555H228.516V111.111Z" fill="#666DA8"/>
<path d="M228.516 122.223H234.072L234.072 116.665H228.516L228.516 122.223Z" fill="#666DA8"/>
<path d="M228.516 105.555H234.072V100H228.516V105.555Z" fill="#666DA8"/>
<path d="M228.516 94.4427H234.072V88.8867H228.516V94.4427Z" fill="#666DA8"/>
<path d="M228.516 83.3319H234.072V77.7773H228.516V83.3319Z" fill="#666DA8"/>
<path d="M228.516 88.888H234.072V83.3319H228.516V88.888Z" fill="#666DA8"/>
<path d="M228.516 77.7786H234.072V72.2225H228.516V77.7786Z" fill="#858AC5"/>
<path d="M228.516 100.001H234.072V94.4453H228.516V100.001Z" fill="#666DA8"/>
<path d="M67.4064 177.779H72.9609V172.223H67.4064V177.779Z" fill="#666DA8"/>
<path d="M234.07 138.888H239.625V133.332H234.07V138.888Z" fill="#231F20"/>
<path d="M234.07 133.333H239.625V127.777H234.07V133.333Z" fill="#BABDE5"/>
<path d="M234.07 111.111H239.625V105.555H234.07V111.111Z" fill="#666DA8"/>
<path d="M234.07 127.777H239.625V122.223H234.07V127.777Z" fill="#666DA8"/>
<path d="M234.07 116.665H239.625V111.109H234.07V116.665Z" fill="#666DA8"/>
<path d="M234.07 122.223H239.625L239.625 116.665H234.07L234.07 122.223Z" fill="#666DA8"/>
<path d="M34.0703 127.777H39.6263V122.223H34.0703V127.777Z" fill="#666DA8"/>
<path d="M34.0703 133.333H39.6263V127.777H34.0703V133.333Z" fill="#454B78"/>
<path d="M34.0703 111.111H39.6263V105.555H34.0703V111.111Z" fill="#454B78"/>
<path d="M34.0704 138.888H39.6264V133.332H34.0704V138.888Z" fill="#231F20"/>
<path d="M34.0703 122.223H39.6263V116.666H34.0703V122.223Z" fill="#666DA8"/>
<path d="M34.0703 116.666H39.6263L39.6264 111.109H34.0704L34.0703 116.666Z" fill="#666DA8"/>
<path d="M34.0704 72.2225H39.6264V66.668H34.0704V72.2225Z" fill="#666DA8"/>
<path d="M34.0704 77.7786H39.6264V72.2225H34.0704V77.7786Z" fill="#666DA8"/>
<path d="M34.0703 105.555H39.6263V100H34.0703V105.555Z" fill="#231F20"/>
<path d="M34.0704 61.1106H39.6264V55.5547H34.0704V61.1106Z" fill="#666DA8"/>
<path d="M34.0704 66.668H39.6264V61.1106H34.0704V66.668Z" fill="#666DA8"/>
<path d="M34.0704 94.4427H39.6264V88.8867H34.0704V94.4427Z" fill="#666DA8"/>
<path d="M34.0704 100.001H39.6264V94.4453H34.0704V100.001Z" fill="#231F20"/>
<path d="M34.0703 83.3319H39.6263V77.7773H34.0703V83.3319Z" fill="#666DA8"/>
<path d="M34.0703 88.888H39.6263V83.3319H34.0703V88.888Z" fill="#666DA8"/>
<path d="M34.0704 55.5559H39.6264V49.9999H34.0704V55.5559Z" fill="#858AC5"/>
<path d="M222.961 116.666L228.517 116.665V111.109H222.961L222.961 116.666Z" fill="#666DA8"/>
<path d="M222.961 122.223L228.517 122.222L228.517 116.665L222.961 116.666V122.223Z" fill="#666DA8"/>
<path d="M222.961 111.111L228.517 111.111V105.555L222.961 105.555L222.961 111.111Z" fill="#666DA8"/>
<path d="M222.961 127.777H228.517V122.222L222.961 122.223V127.777Z" fill="#666DA8"/>
<path d="M222.961 133.333H228.517V127.777H222.961V133.333Z" fill="#666DA8"/>
<path d="M222.961 94.4427H228.517V88.8867H222.961V94.4427Z" fill="#666DA8"/>
<path d="M222.961 83.3319H228.517V77.7773H222.961V83.3319Z" fill="#666DA8"/>
<path d="M222.961 138.888H228.517V133.332H222.961V138.888Z" fill="#BABDE5"/>
<path d="M222.961 100.001H228.517V94.4453H222.961V100.001Z" fill="#666DA8"/>
<path d="M222.961 105.555L228.517 105.555V100L222.961 100V105.555Z" fill="#666DA8"/>
<path d="M222.961 88.8881L228.517 88.888V83.3319H222.961L222.961 88.8881Z" fill="#666DA8"/>
<path d="M222.961 144.443L228.517 144.443L228.517 138.888H222.961L222.961 144.443Z" fill="#231F20"/>
<path d="M195.184 16.6653H200.738V11.1094H195.184V16.6653Z" fill="#231F20"/>
<path d="M178.516 16.6673H184.072L184.071 11.1105H178.516L178.516 16.6673Z" fill="#666DA8"/>
<path d="M189.629 16.666H195.185L195.185 11.1094H189.629L189.629 16.666Z" fill="#666DA8"/>
<path d="M222.961 72.2225H228.517V66.668L222.961 66.6671L222.961 72.2225Z" fill="#231F20"/>
<path d="M222.961 77.7786H228.517V72.2225H222.961L222.961 77.7786Z" fill="#858AC5"/>
<path d="M184.07 200.001H189.626V194.445H184.07V200.001Z" fill="#231F20"/>
<path d="M95.1837 200.001H100.74V194.445H95.1837V200.001Z" fill="#231F20"/>
<path d="M89.629 200.001H95.1837V194.445H89.629V200.001Z" fill="#231F20"/>
<path d="M84.0704 200.001H89.6264V194.445H84.0704V200.001Z" fill="#231F20"/>
<path d="M78.5157 200.001H84.0717V194.445H78.5157V200.001Z" fill="#231F20"/>
<path d="M45.1837 150H50.7397V144.445H45.1837V150Z" fill="#231F20"/>
<path d="M172.961 16.666H178.515L178.516 11.1094H172.961L172.961 16.666Z" fill="#666DA8"/>
<path d="M172.961 200.001H178.516V194.445H172.961V200.001Z" fill="#231F20"/>
<path d="M178.516 200.001H184.072V194.445H178.516V200.001Z" fill="#231F20"/>
<path d="M184.07 16.666H189.626L189.626 11.1094H184.07L184.07 16.666Z" fill="#666DA8"/>
<path d="M39.6289 133.333H45.1848V127.777H39.6289V133.333Z" fill="#666DA8"/>
<path d="M39.6289 144.445H45.1848V138.889H39.6289V144.445Z" fill="#231F20"/>
<path d="M39.6289 138.889H45.1848L45.185 133.332H39.629L39.6289 138.889Z" fill="#454B78"/>
<path d="M39.6289 127.777H45.1848V122.223H39.6289V127.777Z" fill="#666DA8"/>
<path d="M167.406 16.666H172.962L172.962 11.1094H167.406L167.406 16.666Z" fill="#858AC5"/>
<path d="M45.1837 144.445H50.7397L50.7394 138.888H45.1835L45.1837 144.445Z" fill="#454B78"/>
<path d="M39.6289 122.223H45.1848V116.666H39.6289V122.223Z" fill="#454B78"/>
<path d="M150.738 16.666H156.294L156.294 11.1094H150.738L150.738 16.666Z" fill="#231F20"/>
<path d="M156.293 16.666H161.848L161.848 11.1094H156.293L156.293 16.666Z" fill="#231F20"/>
<path d="M161.852 16.666H167.408L167.408 11.1094H161.852L161.852 16.666Z" fill="#858AC5"/>
<path d="M39.6289 66.6673H45.1848V61.1113H39.6289V66.6673Z" fill="#666DA8"/>
<path d="M39.629 77.7786H45.185V72.2227H39.629V77.7786Z" fill="#666DA8"/>
<path d="M39.6289 61.1113H45.1848L45.185 55.5547H39.629L39.6289 61.1113Z" fill="#666DA8"/>
<path d="M39.629 72.2227H45.185L45.1848 66.6673H39.6289L39.629 72.2227Z" fill="#666DA8"/>
<path d="M39.6289 88.888H45.1848V83.332H39.6289V88.888Z" fill="#666DA8"/>
<path d="M39.6289 116.666H45.1848L45.185 111.109H39.629L39.6289 116.666Z" fill="#231F20"/>
<path d="M39.629 94.4427H45.185V88.8867H39.629V94.4427Z" fill="#666DA8"/>
<path d="M39.6289 111.111H45.1848V105.555H39.6289V111.111Z" fill="#231F20"/>
<path d="M39.6289 105.555H45.1848V100H39.6289V105.555Z" fill="white"/>
<path d="M39.629 100.001H45.185V94.4453H39.629V100.001Z" fill="#231F20"/>
<path d="M39.6289 83.332H45.1848V77.7773H39.6289V83.332Z" fill="#666DA8"/>
<path d="M39.629 49.9999H45.185V44.4453H39.629V49.9999Z" fill="#231F20"/>
<path d="M39.629 55.5559H45.185V49.9999H39.629V55.5559Z" fill="#858AC5"/>
<path d="M134.074 133.333H139.629V127.777H134.074V133.333Z" fill="#666DA8"/>
<path d="M172.961 83.3319H178.515V77.7773H172.961V83.3319Z" fill="#666DA8"/>
<path d="M172.961 66.6673H178.515V61.1113H172.961V66.6673Z" fill="#666DA8"/>
<path d="M161.852 66.6673H167.408V61.1113H161.852V66.6673Z" fill="#666DA8"/>
<path d="M172.961 72.2225H178.516L178.515 66.6673H172.961L172.961 72.2225Z" fill="#666DA8"/>
<path d="M172.961 77.7786H178.516V72.2225H172.961V77.7786Z" fill="#666DA8"/>
<path d="M167.406 66.6673H172.962V61.1113H167.406V66.6673Z" fill="#666DA8"/>
<path d="M139.625 66.6673H145.181V61.1113H139.625V66.6673Z" fill="#666DA8"/>
<path d="M156.293 66.6673H161.848V61.1113H156.293V66.6673Z" fill="#666DA8"/>
<path d="M145.184 66.6673H150.738V61.1113H145.184V66.6673Z" fill="#666DA8"/>
<path d="M167.406 72.2225H172.962L172.962 66.6673H167.406L167.406 72.2225Z" fill="#666DA8"/>
<path d="M172.961 100.001H178.516V94.4453H172.961V100.001Z" fill="#231F20"/>
<path d="M172.961 127.777H178.515V122.223H172.961V127.777Z" fill="#666DA8"/>
<path d="M172.961 122.223H178.515V116.666H172.961V122.223Z" fill="#666DA8"/>
<path d="M172.961 88.888H178.515V83.3319H172.961V88.888Z" fill="#666DA8"/>
<path d="M172.961 133.333H178.515V127.777H172.961V133.333Z" fill="#666DA8"/>
<path d="M172.961 116.666H178.515L178.516 111.109H172.961L172.961 116.666Z" fill="#666DA8"/>
<path d="M172.961 138.888H178.516V133.332H172.961V138.888Z" fill="#666DA8"/>
<path d="M134.074 66.6673H139.629V61.1113H134.074V66.6673Z" fill="#666DA8"/>
<path d="M172.961 111.111H178.515V105.555H172.961V111.111Z" fill="#454B78"/>
<path d="M172.961 94.4427H178.516V88.8867H172.961V94.4427Z" fill="#666DA8"/>
<path d="M172.961 105.555H178.515V100H172.961V105.555Z" fill="#231F20"/>
<path d="M89.6289 83.3319H95.1835V77.7773H89.6289V83.3319Z" fill="#666DA8"/>
<path d="M89.629 100.001H95.1836V94.4453H89.629V100.001Z" fill="#231F20"/>
<path d="M89.6289 105.555H95.1835V100H89.6289V105.555Z" fill="#5F080B"/>
<path d="M89.6289 111.111H95.1835V105.555H89.6289V111.111Z" fill="#9C1116"/>
<path d="M89.629 94.4427H95.1836V88.8867H89.629V94.4427Z" fill="#666DA8"/>
<path d="M89.6289 88.888H95.1835V83.3319H89.6289V88.888Z" fill="#666DA8"/>
<path d="M89.629 116.665H95.1836V111.109H89.629V116.665Z" fill="#9C1116"/>
<path d="M89.6289 127.777H95.1835V122.223H89.6289V127.777Z" fill="#231F20"/>
<path d="M89.6289 133.333H95.1835V127.777H89.6289V133.333Z" fill="#666DA8"/>
<path d="M89.6289 122.223H95.1835L95.1836 116.665H89.629L89.6289 122.223Z" fill="#9C1116"/>
<path d="M172.961 144.443H178.515L178.516 138.888H172.961L172.961 144.443Z" fill="#666DA8"/>
<path d="M117.406 66.6673H122.962V61.1113H117.406V66.6673Z" fill="#666DA8"/>
<path d="M128.516 66.6673H134.07V61.1113H128.516V66.6673Z" fill="#666DA8"/>
<path d="M111.852 66.6673H117.406V61.1113H111.852V66.6673Z" fill="#666DA8"/>
<path d="M89.629 77.7786H95.1836V72.2227H89.629V77.7786Z" fill="#666DA8"/>
<path d="M122.961 66.6671H128.517V61.1112H122.961V66.6671Z" fill="#666DA8"/>
<path d="M106.293 66.6673H111.849V61.1113H106.293V66.6673Z" fill="#666DA8"/>
<path d="M89.6289 66.6673H95.1835V61.1113H89.6289V66.6673Z" fill="#666DA8"/>
<path d="M89.629 72.2227H95.1836L95.1835 66.6673H89.6289L89.629 72.2227Z" fill="#858AC5"/>
<path d="M100.738 66.6673H106.294V61.1113H100.738V66.6673Z" fill="#666DA8"/>
<path d="M95.1835 66.6673H100.74V61.1113H95.1835V66.6673Z" fill="#666DA8"/>
<path d="M95.1836 144.445H100.74V138.889H95.1836V144.445Z" fill="#666DA8"/>
<path d="M95.1836 77.7786H100.74V72.2227H95.1836V77.7786Z" fill="#666DA8"/>
<path d="M95.1836 72.2227H100.74L100.74 66.6673H95.1835L95.1836 72.2227Z" fill="#666DA8"/>
<path d="M106.293 72.2225H111.849L111.849 66.6673H106.293L106.293 72.2225Z" fill="#666DA8"/>
<path d="M100.738 72.2225H106.294L106.294 66.6673H100.738L100.738 72.2225Z" fill="#666DA8"/>
<path d="M95.1835 83.3319H100.74V77.7773H95.1835V83.3319Z" fill="#666DA8"/>
<path d="M95.1835 105.555H100.74V100H95.1835V105.555Z" fill="white"/>
<path d="M111.852 72.2225H117.406L117.406 66.6673H111.852L111.852 72.2225Z" fill="#666DA8"/>
<path d="M95.1835 111.111H100.74V105.555H95.1835V111.111Z" fill="#9C1116"/>
<path d="M95.1836 94.4427H100.74V88.8867H95.1836V94.4427Z" fill="#666DA8"/>
<path d="M95.1835 88.888H100.74V83.3319H95.1835V88.888Z" fill="#666DA8"/>
<path d="M95.1836 100.001H100.74V94.4453H95.1836V100.001Z" fill="#231F20"/>
<path d="M145.184 72.2225H150.738L150.738 66.6673H145.184L145.184 72.2225Z" fill="#666DA8"/>
<path d="M172.961 149.999H178.515V144.443H172.961V149.999Z" fill="#454B78"/>
<path d="M117.406 72.2225H122.962L122.962 66.6673H117.406L117.406 72.2225Z" fill="#666DA8"/>
<path d="M161.852 72.2225H167.408L167.408 66.6673H161.852L161.852 72.2225Z" fill="#666DA8"/>
<path d="M150.738 72.2225H156.294V66.668L150.738 66.6673L150.738 72.2225Z" fill="#666DA8"/>
<path d="M139.625 72.2225H145.181L145.181 66.6673H139.625L139.625 72.2225Z" fill="#666DA8"/>
<path d="M122.961 72.2225H128.517L128.517 66.6671H122.961L122.961 72.2225Z" fill="#666DA8"/>
<path d="M128.516 72.2225H134.07L134.07 66.6673H128.516L128.516 72.2225Z" fill="#666DA8"/>
<path d="M134.074 72.2225H139.629L139.629 66.6673H134.074L134.074 72.2225Z" fill="#666DA8"/>
<path d="M156.293 72.2225H161.848L161.848 66.6673H156.293L156.293 72.2225Z" fill="#666DA8"/>
<path d="M139.625 149.999H145.181V144.443H139.625V149.999Z" fill="#666DA8"/>
<path d="M145.184 149.999H150.74V144.443H145.184V149.999Z" fill="#666DA8"/>
<path d="M117.406 150H122.962V144.445H117.406V150Z" fill="#454B78"/>
<path d="M122.961 144.445V149.999H128.517V144.443L122.961 144.445Z" fill="#231F20"/>
<path d="M128.516 149.999H134.07V144.443H128.516V149.999Z" fill="#454B78"/>
<path d="M95.1836 116.665H100.74V111.109H95.1836V116.665Z" fill="#9C1116"/>
<path d="M167.406 149.999H172.962V144.443H167.406V149.999Z" fill="#231F20"/>
<path d="M150.738 149.999H156.294V144.443H150.738V149.999Z" fill="#666DA8"/>
<path d="M161.852 149.999H167.408V144.443H161.852V149.999Z" fill="#666DA8"/>
<path d="M156.293 149.999H161.848V144.443H156.293V149.999Z" fill="#666DA8"/>
<path d="M134.074 149.999H139.629V144.443H134.074V149.999Z" fill="#666DA8"/>
<path d="M95.1835 127.777H100.74V122.223H95.1835V127.777Z" fill="#454B78"/>
<path d="M95.1835 133.333H100.74V127.777H95.1835V133.333Z" fill="#666DA8"/>
<path d="M95.1835 122.223H100.74L100.74 116.665H95.1836L95.1835 122.223Z" fill="#231F20"/>
<path d="M95.1836 138.889H100.74L100.74 133.332H95.1837L95.1836 138.889Z" fill="#666DA8"/>
<path d="M100.738 150H106.294V144.445H100.738V150Z" fill="#BABDE5"/>
<path d="M106.293 150H111.849V144.445H106.293V150Z" fill="#666DA8"/>
<path d="M89.629 138.888L95.1836 138.889L95.1837 133.332H89.629V138.888Z" fill="#666DA8"/>
<path d="M111.852 150H117.406V144.445H111.852V150Z" fill="#666DA8"/>
<path d="M100.738 144.445H106.294L106.294 138.889H100.738L100.738 144.445Z" fill="#666DA8"/>
<path d="M150.738 66.6673L156.294 66.668L156.294 61.1113H150.738V66.6673Z" fill="#666DA8"/>
<path d="M84.0703 83.3319H89.6263V77.7773H84.0703V83.3319Z" fill="#666DA8"/>
<path d="M84.0704 61.1106H89.6264V55.5547H84.0704V61.1106Z" fill="#231F20"/>
<path d="M84.0703 88.888H89.6263V83.3319H84.0703V88.888Z" fill="#666DA8"/>
<path d="M84.0704 72.2225H89.6264V66.668H84.0704V72.2225Z" fill="#858AC5"/>
<path d="M84.0704 66.668H89.6264V61.1106H84.0704V66.668Z" fill="#231F20"/>
<path d="M84.0704 77.7786H89.6264V72.2225H84.0704V77.7786Z" fill="#666DA8"/>
<path d="M84.0704 94.4427H89.6264V88.8867H84.0704V94.4427Z" fill="#666DA8"/>
<path d="M84.0742 111.111H89.6289V105.555L84.0742 105.555V111.111Z" fill="#9C1116"/>
<path d="M84.0703 105.555H89.6263V100H84.0703V105.555Z" fill="white"/>
<path d="M84.0704 100.001H89.6264V94.4453H84.0704V100.001Z" fill="#231F20"/>
<path d="M134.074 61.1113H139.629L139.629 55.5547H134.074L134.074 61.1113Z" fill="#666DA8"/>
<path d="M117.406 61.1113H122.962L122.962 55.5547H117.406L117.406 61.1113Z" fill="#666DA8"/>
<path d="M128.516 61.1113H134.07L134.07 55.5547H128.516L128.516 61.1113Z" fill="#666DA8"/>
<path d="M122.961 61.1112H128.517L128.517 55.5547H122.961L122.961 61.1112Z" fill="#666DA8"/>
<path d="M84.0704 116.665H89.6264V111.109H84.0704V116.665Z" fill="#9C1116"/>
<path d="M106.293 61.1113H111.849L111.849 55.5547H106.293L106.293 61.1113Z" fill="#666DA8"/>
<path d="M100.738 61.1113H106.294L106.294 55.5547H100.738L100.738 61.1113Z" fill="#666DA8"/>
<path d="M139.629 61.1113L145.185 61.1106V55.5547H139.629L139.629 61.1113Z" fill="#666DA8"/>
<path d="M111.852 61.1113H117.406L117.406 55.5547H111.852L111.852 61.1113Z" fill="#666DA8"/>
<path d="M89.6289 61.1113H95.1835L95.1836 55.5547H89.629L89.6289 61.1113Z" fill="#666DA8"/>
<path d="M95.1835 61.1113H100.74L100.74 55.5547H95.1836L95.1835 61.1113Z" fill="#666DA8"/>
<path d="M122.961 155.555V161.111H128.517V155.555H122.961Z" fill="#231F20"/>
<path d="M117.406 161.111H122.962V155.555H117.406V161.111Z" fill="#9BA1C6"/>
<path d="M111.852 161.111H117.406V155.555H111.852V161.111Z" fill="#9BA1C6"/>
<path d="M128.516 161.111H134.07V155.555H128.516V161.111Z" fill="#454B78"/>
<path d="M100.738 161.111H106.294V155.555H100.738V161.111Z" fill="#9BA1C6"/>
<path d="M106.293 161.111H111.849V155.555H106.293V161.111Z" fill="#9BA1C6"/>
<path d="M134.074 161.111H139.629V155.555H134.074V161.111Z" fill="#858AC5"/>
<path d="M145.184 161.111H150.74V155.555H145.184V161.111Z" fill="#666DA8"/>
<path d="M150.738 161.111H156.294V155.555H150.738V161.111Z" fill="#666DA8"/>
<path d="M139.625 161.111H145.181V155.555H139.625V161.111Z" fill="#666DA8"/>
<path d="M89.629 161.111H95.1836V155.555H89.629V161.111Z" fill="#9BA1C6"/>
<path d="M84.0704 138.888H89.6264V133.332H84.0704V138.888Z" fill="#666DA8"/>
<path d="M84.0703 133.333H89.6263V127.777H84.0703V133.333Z" fill="#666DA8"/>
<path d="M84.0703 144.445H89.6263L89.6264 138.888H84.0704L84.0703 144.445Z" fill="#BABDE5"/>
<path d="M84.0703 127.777H89.6263V122.223H84.0703V127.777Z" fill="#231F20"/>
<path d="M95.1836 161.111H100.74V155.555H95.1836V161.111Z" fill="#9BA1C6"/>
<path d="M84.0704 150H89.6264L89.6263 144.445H84.0703L84.0704 150Z" fill="#BABDE5"/>
<path d="M84.0703 122.223H89.6263L89.6264 116.665H84.0704L84.0703 122.223Z" fill="white"/>
<path d="M89.629 155.556H95.1836V150H89.629V155.556Z" fill="#BABDE5"/>
<path d="M84.0704 155.556H89.6264V150H84.0704V155.556Z" fill="#BABDE5"/>
<path d="M167.406 155.556H172.962L172.962 149.999H167.406L167.406 155.556Z" fill="#231F20"/>
<path d="M134.074 155.556H139.629L139.629 149.999H134.074L134.074 155.556Z" fill="#666DA8"/>
<path d="M150.738 155.556H156.294L156.294 149.999H150.738L150.738 155.556Z" fill="#666DA8"/>
<path d="M161.852 155.556H167.408L167.408 149.999H161.852L161.852 155.556Z" fill="#666DA8"/>
<path d="M139.625 155.556H145.181L145.181 149.999H139.625L139.625 155.556Z" fill="#666DA8"/>
<path d="M145.184 155.556H150.74L150.74 149.999H145.184L145.184 155.556Z" fill="#666DA8"/>
<path d="M156.293 155.556H161.848L161.848 149.999H156.293L156.293 155.556Z" fill="#666DA8"/>
<path d="M178.516 155.556H184.072V150L178.515 149.999L178.516 155.556Z" fill="#BABDE5"/>
<path d="M178.515 149.999L184.072 150L184.071 144.443L178.515 144.443V149.999Z" fill="#666DA8"/>
<path d="M172.961 155.556H178.516L178.515 149.999H172.961L172.961 155.556Z" fill="#9BA1C6"/>
<path d="M89.6289 144.445H95.1836V138.889L89.629 138.888L89.6289 144.445Z" fill="#BABDE5"/>
<path d="M178.515 144.443L184.071 144.443V138.889L178.516 138.888L178.515 144.443Z" fill="#666DA8"/>
<path d="M100.738 155.556H106.294V150H100.738V155.556Z" fill="#BABDE5"/>
<path d="M95.1836 150L100.74 150L100.74 144.445H95.1836L95.1836 150Z" fill="#BABDE5"/>
<path d="M95.1836 155.556H100.74V150L95.1836 150V155.556Z" fill="#BABDE5"/>
<path d="M89.629 150H95.1836L95.1836 144.445H89.6289L89.629 150Z" fill="#BABDE5"/>
<path d="M128.516 155.556H134.07L134.07 149.999H128.516L128.516 155.556Z" fill="#454B78"/>
<path d="M106.293 155.556H111.849V150H106.293V155.556Z" fill="#BABDE5"/>
<path d="M122.961 149.999L122.961 155.556H128.517L128.517 149.999H122.961Z" fill="#231F20"/>
<path d="M117.406 155.556H122.962V150H117.406V155.556Z" fill="#9BA1C6"/>
<path d="M111.852 155.556H117.406V150H111.852V155.556Z" fill="#BABDE5"/>
<path d="M145.184 61.1113L150.74 61.1106V55.5547H145.184L145.184 61.1113Z" fill="#666DA8"/>
<path d="M178.515 66.6673L184.071 66.6671V61.1112L178.515 61.1113V66.6673Z" fill="#666DA8"/>
<path d="M172.961 61.1113H178.515L178.516 55.5547H172.961L172.961 61.1113Z" fill="#666DA8"/>
<path d="M178.515 61.1113L184.071 61.1112L184.072 55.5547H178.516L178.515 61.1113Z" fill="#666DA8"/>
<path d="M178.515 77.7773L184.072 77.7766V72.2207H178.516L178.515 77.7773Z" fill="#666DA8"/>
<path d="M178.516 138.888L184.071 138.889L184.072 133.332H178.516V138.888Z" fill="#666DA8"/>
<path d="M150.738 61.1113H156.294L156.294 55.5547H150.738L150.738 61.1113Z" fill="#666DA8"/>
<path d="M178.515 83.3319H184.072L184.072 77.7766L178.515 77.7773V83.3319Z" fill="#666DA8"/>
<path d="M156.293 61.1113H161.848L161.848 55.5547H156.293L156.293 61.1113Z" fill="#666DA8"/>
<path d="M161.852 61.1113H167.408L167.408 55.5547H161.852L161.852 61.1113Z" fill="#666DA8"/>
<path d="M167.406 61.1113H172.962L172.962 55.5547H167.406L167.406 61.1113Z" fill="#666DA8"/>
<path d="M178.516 72.2225H184.072L184.071 66.6671L178.515 66.6673L178.516 72.2225Z" fill="#666DA8"/>
<path d="M178.515 127.777H184.072V122.223H178.515V127.777Z" fill="#666DA8"/>
<path d="M178.515 122.223H184.072V116.666H178.515V122.223Z" fill="#666DA8"/>
<path d="M178.515 133.333H184.072V127.777H178.515V133.333Z" fill="#666DA8"/>
<path d="M178.515 88.888L184.071 88.8881L184.072 83.3319H178.515V88.888Z" fill="#666DA8"/>
<path d="M178.516 116.667H184.072V111.111L178.515 111.111L178.516 116.667Z" fill="#666DA8"/>
<path d="M178.516 94.4427H184.072V88.8867H178.516V94.4427Z" fill="#666DA8"/>
<path d="M178.515 111.111L184.072 111.111L184.071 105.555L178.515 105.555V111.111Z" fill="#666DA8"/>
<path d="M178.516 100.001H184.072V94.4453H178.516V100.001Z" fill="#666DA8"/>
<path d="M178.515 105.555L184.071 105.555V100L178.515 100V105.555Z" fill="#666DA8"/>
<path d="M139.625 116.665H145.181V111.109H139.625V116.665Z" fill="#666DA8"/>
<path d="M111.852 88.888H117.406V83.332H111.852V88.888Z" fill="#666DA8"/>
<path d="M111.852 94.4427H117.406V88.8867H111.852V94.4427Z" fill="#666DA8"/>
<path d="M111.852 127.777H117.406V122.223H111.852V127.777Z" fill="#666DA8"/>
<path d="M117.406 88.888H122.962V83.332H117.406V88.888Z" fill="#666DA8"/>
<path d="M122.961 88.8881H128.517V83.3322H122.961V88.8881Z" fill="#666DA8"/>
<path d="M111.852 100.001H117.406V94.4453H111.852V100.001Z" fill="#666DA8"/>
<path d="M111.852 105.555H117.406V100H111.852V105.555Z" fill="#666DA8"/>
<path d="M111.852 116.665H117.406V111.109H111.852V116.665Z" fill="#666DA8"/>
<path d="M111.852 122.223H117.406L117.406 116.665H111.852L111.852 122.223Z" fill="#666DA8"/>
<path d="M111.852 111.111H117.406V105.555H111.852V111.111Z" fill="#666DA8"/>
<path d="M128.516 88.888H134.07V83.332H128.516V88.888Z" fill="#666DA8"/>
<path d="M150.738 105.555H156.294V100H150.738V105.555Z" fill="#666DA8"/>
<path d="M134.074 88.888H139.629V83.332H134.074V88.888Z" fill="#666DA8"/>
<path d="M150.738 111.111H156.294V105.555H150.738V111.111Z" fill="#231F20"/>
<path d="M150.738 122.222H156.294V116.666H150.738V122.222Z" fill="#666DA8"/>
<path d="M150.738 116.666H156.294L156.294 111.109H150.738L150.738 116.666Z" fill="#454B78"/>
<path d="M150.738 100.001H156.294V94.4453H150.738V100.001Z" fill="#666DA8"/>
<path d="M139.625 88.888H145.181V83.332H139.625V88.888Z" fill="#666DA8"/>
<path d="M145.184 88.888H150.738V83.332H145.184V88.888Z" fill="#666DA8"/>
<path d="M150.738 88.888H156.294V83.332H150.738V88.888Z" fill="#666DA8"/>
<path d="M150.738 94.4427H156.294V88.8867H150.738V94.4427Z" fill="#231F20"/>
<path d="M156.293 116.665H161.848V111.109H156.293V116.665Z" fill="#666DA8"/>
<path d="M156.293 105.555H161.848V100H156.293V105.555Z" fill="#231F20"/>
<path d="M156.293 100.001H161.848V94.4453H156.293V100.001Z" fill="#231F20"/>
<path d="M156.293 111.111H161.848V105.555H156.293V111.111Z" fill="#454B78"/>
<path d="M156.293 94.4427H161.848V88.8867H156.293V94.4427Z" fill="#666DA8"/>
<path d="M150.738 127.777H156.294V122.222H150.738V127.777Z" fill="#666DA8"/>
<path d="M117.406 127.777H122.962V122.223H117.406V127.777Z" fill="#666DA8"/>
<path d="M167.406 77.7786H172.962V72.2225H167.406V77.7786Z" fill="#666DA8"/>
<path d="M156.293 88.888H161.848V83.332H156.293V88.888Z" fill="#666DA8"/>
<path d="M150.738 83.332H156.294V77.7773H150.738L150.738 83.332Z" fill="#666DA8"/>
<path d="M156.293 83.332H161.848V77.7773H156.293V83.332Z" fill="#666DA8"/>
<path d="M145.184 83.332H150.738L150.738 77.7773H145.184V83.332Z" fill="#666DA8"/>
<path d="M128.516 133.333H134.07V127.777H128.516V133.333Z" fill="#666DA8"/>
<path d="M122.961 127.777V133.333H128.517V127.777H122.961Z" fill="#666DA8"/>
<path d="M117.406 133.333H122.962V127.777H117.406L117.406 133.333Z" fill="#666DA8"/>
<path d="M234.07 105.555H239.625V100H234.07V105.555Z" fill="#666DA8"/>
<path d="M156.293 127.777H161.848V122.223H156.293V127.777Z" fill="#666DA8"/>
<path d="M150.738 133.333H156.294V127.777H150.738V133.333Z" fill="#666DA8"/>
<path d="M156.293 133.333H161.848V127.777H156.293V133.333Z" fill="#666DA8"/>
<path d="M145.184 133.333H150.74V127.777H145.184V133.333Z" fill="#666DA8"/>
<path d="M139.625 133.333H145.181V127.777H139.625V133.333Z" fill="#666DA8"/>
<path d="M145.184 127.777H150.74V122.223H145.184V127.777Z" fill="#666DA8"/>
<path d="M122.961 111.11H128.517V105.555H122.961V111.11Z" fill="#666DA8"/>
<path d="M122.961 105.555H128.517V100H122.961V105.555Z" fill="#666DA8"/>
<path d="M139.625 83.332H145.181V77.7773H139.625V83.332Z" fill="#666DA8"/>
<path d="M122.961 100.001H128.517V94.4453H122.961V100.001Z" fill="#666DA8"/>
<path d="M122.961 116.667H128.517L128.517 111.11H122.961L122.961 116.667Z" fill="#666DA8"/>
<path d="M134.074 100.001H139.629V94.4453H134.074V100.001Z" fill="#666DA8"/>
<path d="M139.625 122.222H145.181L145.181 116.665H139.625L139.625 122.222Z" fill="#666DA8"/>
<path d="M145.184 122.223H150.74V116.666H145.184V122.223Z" fill="#666DA8"/>
<path d="M134.074 122.222H139.629V116.666H134.074V122.222Z" fill="#666DA8"/>
<path d="M128.516 122.222H134.07V116.666H128.516V122.222Z" fill="#666DA8"/>
<path d="M128.516 116.666H134.07L134.07 111.109H128.516L128.516 116.666Z" fill="#666DA8"/>
<path d="M134.074 111.111H139.629V105.555H134.074V111.111Z" fill="#231F20"/>
<path d="M128.516 111.111H134.07V105.555H128.516V111.111Z" fill="#666DA8"/>
<path d="M128.516 105.555H134.07V100H128.516V105.555Z" fill="#666DA8"/>
<path d="M134.074 105.555H139.629V100H134.074V105.555Z" fill="#666DA8"/>
<path d="M139.625 100.001H145.181V94.4453H139.625V100.001Z" fill="#231F20"/>
<path d="M139.625 111.111H145.181V105.555H139.625V111.111Z" fill="#454B78"/>
<path d="M134.074 116.666H139.629L139.629 111.109H134.074L134.074 116.666Z" fill="#454B78"/>
<path d="M139.625 105.555H145.181V100H139.625V105.555Z" fill="#231F20"/>
<path d="M156.293 161.111H161.848V155.555H156.293V161.111Z" fill="#666DA8"/>
<path d="M128.516 100.001H134.07V94.4453H128.516V100.001Z" fill="#666DA8"/>
<path d="M117.406 116.665H122.962V111.109H117.406V116.665Z" fill="#666DA8"/>
<path d="M122.961 122.222H128.517V116.666H122.961V122.222Z" fill="#666DA8"/>
<path d="M117.406 122.223H122.962L122.962 116.665H117.406L117.406 122.223Z" fill="#666DA8"/>
<path d="M117.406 111.111H122.962V105.555L117.406 105.555V111.111Z" fill="#666DA8"/>
<path d="M117.406 105.555L122.962 105.555V100H117.406V105.555Z" fill="#666DA8"/>
<path d="M122.961 127.777H128.517V122.222H122.961V127.777Z" fill="#666DA8"/>
<path d="M134.074 127.777H139.629V122.222H134.074V127.777Z" fill="#666DA8"/>
<path d="M139.625 127.777H145.181V122.222H139.625V127.777Z" fill="#666DA8"/>
<path d="M117.406 100.001H122.962V94.4453H117.406V100.001Z" fill="#666DA8"/>
<path d="M128.516 127.777H134.07V122.222H128.516V127.777Z" fill="#666DA8"/>
<path d="M134.074 94.4427H139.629V88.8867H134.074V94.4427Z" fill="#231F20"/>
<path d="M145.184 94.4427H150.738V88.8867H145.184V94.4427Z" fill="#666DA8"/>
<path d="M145.184 105.555H150.74V100H145.184V105.555Z" fill="#666DA8"/>
<path d="M145.184 100.001H150.74V94.4453H145.184V100.001Z" fill="#666DA8"/>
<path d="M145.184 111.111H150.74V105.555H145.184V111.111Z" fill="#666DA8"/>
<path d="M128.516 94.4427H134.07V88.8867H128.516V94.4427Z" fill="#666DA8"/>
<path d="M122.961 94.4427H128.517V88.8867H122.961V94.4427Z" fill="#666DA8"/>
<path d="M117.406 94.4427H122.962V88.8867H117.406V94.4427Z" fill="#666DA8"/>
<path d="M139.625 94.4427H145.181V88.8867H139.625V94.4427Z" fill="#666DA8"/>
<path d="M145.184 116.666H150.74L150.74 111.109H145.184L145.184 116.666Z" fill="#666DA8"/>
<path d="M156.293 122.223H161.848L161.848 116.665H156.293L156.293 122.223Z" fill="#666DA8"/>
<path d="M100.738 127.777H106.294V122.223H100.738V127.777Z" fill="#666DA8"/>
<path d="M100.738 122.223H106.294V116.666H100.738V122.223Z" fill="#454B78"/>
<path d="M100.738 133.333H106.294V127.777H100.738V133.333Z" fill="#666DA8"/>
<path d="M100.738 116.666H106.294L106.294 111.109H100.738L100.738 116.666Z" fill="#231F20"/>
<path d="M100.738 111.111H106.294V105.555H100.738V111.111Z" fill="#9C1116"/>
<path d="M106.293 144.445H111.849L111.849 138.889H106.293L106.293 144.445Z" fill="#666DA8"/>
<path d="M100.738 138.889H106.294L106.294 133.332H100.738L100.738 138.889Z" fill="#666DA8"/>
<path d="M100.738 105.555H106.294V100H100.738V105.555Z" fill="#5F080B"/>
<path d="M111.852 144.445H117.406L117.406 138.889H111.852L111.852 144.445Z" fill="#666DA8"/>
<path d="M106.293 138.889H111.849L111.849 133.332H106.293L106.293 138.889Z" fill="#666DA8"/>
<path d="M111.852 77.7786H117.406V72.2225H111.852V77.7786Z" fill="#666DA8"/>
<path d="M117.406 144.445H122.962L122.962 138.889H117.406L117.406 144.445Z" fill="#454B78"/>
<path d="M117.406 77.7786H122.962V72.2225H117.406V77.7786Z" fill="#666DA8"/>
<path d="M122.961 77.7766H128.517V72.2207H122.961V77.7766Z" fill="#666DA8"/>
<path d="M106.293 77.7786H111.849V72.2225H106.293V77.7786Z" fill="#666DA8"/>
<path d="M100.738 83.3319H106.294V77.7773H100.738V83.3319Z" fill="#666DA8"/>
<path d="M100.738 77.7786H106.294V72.2225H100.738V77.7786Z" fill="#666DA8"/>
<path d="M100.738 88.888H106.294V83.3319H100.738V88.888Z" fill="#666DA8"/>
<path d="M100.738 94.4427H106.294V88.8867H100.738V94.4427Z" fill="#231F20"/>
<path d="M100.738 100.001H106.294V94.4453H100.738V100.001Z" fill="#5F080B"/>
<path d="M122.961 138.889V144.445L128.517 144.443V138.889H122.961Z" fill="#454B78"/>
<path d="M167.406 111.111H172.962V105.555H167.406V111.111Z" fill="#231F20"/>
<path d="M167.406 105.555H172.962V100H167.406V105.555Z" fill="#666DA8"/>
<path d="M167.406 116.665H172.962V111.109H167.406V116.665Z" fill="#454B78"/>
<path d="M167.406 122.222H172.962L172.962 116.665H167.406L167.406 122.222Z" fill="#666DA8"/>
<path d="M128.516 77.7786H134.07V72.2225H128.516V77.7786Z" fill="#666DA8"/>
<path d="M167.406 94.4427H172.962V88.8867H167.406V94.4427Z" fill="#231F20"/>
<path d="M167.406 100.001H172.962V94.4453H167.406V100.001Z" fill="#666DA8"/>
<path d="M167.406 88.888H172.962V83.332H167.406V88.888Z" fill="#666DA8"/>
<path d="M167.406 83.332H172.962V77.7773H167.406V83.332Z" fill="#666DA8"/>
<path d="M167.406 133.333H172.962V127.777H167.406V133.333Z" fill="#666DA8"/>
<path d="M167.406 127.777H172.962V122.222H167.406V127.777Z" fill="#666DA8"/>
<path d="M139.625 144.443H145.181V138.889H139.625V144.443Z" fill="#666DA8"/>
<path d="M134.074 144.443H139.629V138.889H134.074V144.443Z" fill="#666DA8"/>
<path d="M145.184 144.443H150.74V138.889H145.184V144.443Z" fill="#666DA8"/>
<path d="M167.406 138.888H172.962V133.332H167.406V138.888Z" fill="#666DA8"/>
<path d="M128.516 144.443H134.07V138.889H128.516V144.443Z" fill="#454B78"/>
<path d="M161.852 144.443H167.408V138.889H161.852V144.443Z" fill="#666DA8"/>
<path d="M167.406 144.443H172.962L172.962 138.888H167.406L167.406 144.443Z" fill="#454B78"/>
<path d="M150.738 144.443H156.294V138.889H150.738V144.443Z" fill="#666DA8"/>
<path d="M156.293 144.443H161.848V138.889H156.293V144.443Z" fill="#666DA8"/>
<path d="M106.293 127.777H111.849V122.223H106.293V127.777Z" fill="#666DA8"/>
<path d="M111.852 133.333H117.406L117.406 127.777H111.852V133.333Z" fill="#666DA8"/>
<path d="M134.074 77.7786H139.629V72.2225H134.074V77.7786Z" fill="#666DA8"/>
<path d="M134.074 83.332H139.629V77.7773H134.074V83.332Z" fill="#666DA8"/>
<path d="M106.293 122.223H111.849V116.666H106.293V122.223Z" fill="#666DA8"/>
<path d="M106.293 116.666H111.849L111.849 111.109H106.293L106.293 116.666Z" fill="#454B78"/>
<path d="M117.406 138.889H122.962L122.962 133.332H117.406L117.406 138.889Z" fill="#666DA8"/>
<path d="M122.961 133.332L122.961 138.889H128.517L128.517 133.332H122.961Z" fill="#454B78"/>
<path d="M128.516 138.889H134.07L134.07 133.332H128.516L128.516 138.889Z" fill="#666DA8"/>
<path d="M111.852 138.889H117.406L117.406 133.332H111.852L111.852 138.889Z" fill="#666DA8"/>
<path d="M106.293 111.111H111.849V105.555H106.293V111.111Z" fill="#231F20"/>
<path d="M106.293 100.001H111.849V94.4453H106.293V100.001Z" fill="#231F20"/>
<path d="M106.293 105.555H111.849V100H106.293V105.555Z" fill="#231F20"/>
<path d="M117.406 83.332H122.962V77.7773H117.406L117.406 83.332Z" fill="#666DA8"/>
<path d="M122.961 83.3322H128.517L128.517 77.7766H122.961L122.961 83.3322Z" fill="#666DA8"/>
<path d="M128.516 83.332H134.07V77.7773H128.516V83.332Z" fill="#666DA8"/>
<path d="M111.852 83.332H117.406L117.406 77.7773H111.852V83.332Z" fill="#666DA8"/>
<path d="M106.293 94.4427H111.849V88.8867H106.293V94.4427Z" fill="#666DA8"/>
<path d="M134.074 138.889H139.629L139.629 133.332H134.074L134.074 138.889Z" fill="#666DA8"/>
<path d="M106.293 83.3319H111.849V77.7773H106.293V83.3319Z" fill="#666DA8"/>
<path d="M106.293 88.888H111.849V83.3319H106.293V88.888Z" fill="#666DA8"/>
<path d="M106.293 133.333H111.849V127.777H106.293V133.333Z" fill="#666DA8"/>
<path d="M161.852 88.888H167.408V83.332H161.852V88.888Z" fill="#666DA8"/>
<path d="M161.852 83.332H167.408V77.7773H161.852V83.332Z" fill="#666DA8"/>
<path d="M161.852 100.001H167.408V94.4453H161.852V100.001Z" fill="#666DA8"/>
<path d="M161.852 94.4427H167.408V88.8867H161.852V94.4427Z" fill="#666DA8"/>
<path d="M161.852 77.7786H167.408V72.2225H161.852V77.7786Z" fill="#666DA8"/>
<path d="M139.625 138.889H145.181L145.181 133.332H139.625L139.625 138.889Z" fill="#666DA8"/>
<path d="M139.625 77.7786H145.181V72.2225H139.625V77.7786Z" fill="#666DA8"/>
<path d="M145.184 77.7786H150.738V72.2225H145.184V77.7786Z" fill="#666DA8"/>
<path d="M156.293 77.7786H161.848V72.2225H156.293V77.7786Z" fill="#666DA8"/>
<path d="M150.738 77.7786H156.294V72.2225H150.738V77.7786Z" fill="#666DA8"/>
<path d="M161.852 105.555H167.408V100H161.852V105.555Z" fill="#666DA8"/>
<path d="M156.293 138.889H161.848L161.848 133.332H156.293L156.293 138.889Z" fill="#666DA8"/>
<path d="M150.738 138.889H156.294L156.294 133.332H150.738L150.738 138.889Z" fill="#666DA8"/>
<path d="M161.852 138.889H167.408L167.408 133.332H161.852L161.852 138.889Z" fill="#666DA8"/>
<path d="M161.852 111.111H167.408V105.555H161.852V111.111Z" fill="#666DA8"/>
<path d="M145.184 138.889H150.74L150.74 133.332H145.184L145.184 138.889Z" fill="#666DA8"/>
<path d="M161.852 122.222H167.408V116.666H161.852V122.222Z" fill="#666DA8"/>
<path d="M161.852 133.333H167.408V127.777H161.852V133.333Z" fill="#666DA8"/>
<path d="M161.852 116.666H167.408L167.408 111.109H161.852L161.852 116.666Z" fill="#666DA8"/>
<path d="M161.852 127.777H167.408V122.222H161.852V127.777Z" fill="#666DA8"/>
<path d="M150.738 177.779H156.294V172.223H150.738V177.779Z" fill="#858AC5"/>
<path d="M67.4064 116.665H72.9609V111.109H67.4064V116.665Z" fill="#9C1116"/>
<path d="M67.4062 144.445H72.9608V138.889H67.4062V144.445Z" fill="#BABDE5"/>
<path d="M67.4062 105.555H72.9608V100H67.4062V105.555Z" fill="#5F080B"/>
<path d="M67.4064 100.001H72.9609V94.4453H67.4064V100.001Z" fill="#231F20"/>
<path d="M67.4064 94.4427H72.9609V88.8867H67.4064V94.4427Z" fill="#666DA8"/>
<path d="M67.4062 133.333H72.9608V127.777H67.4062V133.333Z" fill="#666DA8"/>
<path d="M67.4062 88.888H72.9622V83.332H67.4062V88.888Z" fill="#666DA8"/>
<path d="M67.4062 138.889H72.9608L72.9609 133.332H67.4064L67.4062 138.889Z" fill="#666DA8"/>
<path d="M67.4062 122.222H72.9608L72.9609 116.665H67.4064L67.4062 122.222Z" fill="#9C1116"/>
<path d="M67.4062 127.777H72.9608V122.222H67.4062V127.777Z" fill="#231F20"/>
<path d="M67.4062 111.111H72.9608V105.555H67.4062V111.111Z" fill="#5F080B"/>
<path d="M67.4062 44.4446H72.9608V38.8887H67.4062V44.4446Z" fill="#231F20"/>
<path d="M67.4064 49.9999H72.9609L72.9608 44.4446H67.4062L67.4064 49.9999Z" fill="#858AC5"/>
<path d="M72.9608 44.4446H78.5169V38.8887H72.9608V44.4446Z" fill="#231F20"/>
<path d="M61.8478 177.779H67.4037V172.223H61.8478V177.779Z" fill="#231F20"/>
<path d="M78.5156 44.4446H84.0716V38.8887H78.5156V44.4446Z" fill="#231F20"/>
<path d="M67.4062 83.332H72.9622V77.7773H67.4062V83.332Z" fill="#666DA8"/>
<path d="M67.4064 77.7786H72.9623V72.2227H67.4064V77.7786Z" fill="#666DA8"/>
<path d="M67.4064 72.2227H72.9623V66.668H67.4064V72.2227Z" fill="#666DA8"/>
<path d="M67.4064 61.1106H72.9609V55.5547H67.4064V61.1106Z" fill="#666DA8"/>
<path d="M67.4064 66.668L72.9608 66.6673L72.9609 61.1106H67.4064V66.668Z" fill="#666DA8"/>
<path d="M67.4064 161.111H72.9609V155.555H67.4064V161.111Z" fill="#231F20"/>
<path d="M67.4064 150H72.9609L72.9608 144.445H67.4062L67.4064 150Z" fill="#BABDE5"/>
<path d="M139.625 177.779H145.181V172.223H139.625V177.779Z" fill="#231F20"/>
<path d="M145.184 177.779H150.74V172.223H145.184V177.779Z" fill="#454B78"/>
<path d="M67.4064 172.223H72.9609L72.9608 166.666H67.4062L67.4064 172.223Z" fill="#454B78"/>
<path d="M84.0742 44.4446H89.6288V38.8887H84.0742V44.4446Z" fill="#231F20"/>
<path d="M67.4062 166.666H72.9608L72.9609 161.111H67.4064L67.4062 166.666Z" fill="#31395D"/>
<path d="M67.4064 155.556H72.9609V150H67.4064V155.556Z" fill="#9BA1C6"/>
<path d="M84.0704 177.779H89.6264V172.223H84.0704V177.779Z" fill="#454B78"/>
<path d="M78.5157 177.779H84.0717V172.223H78.5157V177.779Z" fill="#454B78"/>
<path d="M89.629 177.779H95.1836V172.223H89.629V177.779Z" fill="#231F20"/>
<path d="M72.9609 177.779H78.517V172.223H72.9609V177.779Z" fill="#454B78"/>
<path d="M72.9609 172.223H78.517L78.5169 166.666H72.9608L72.9609 172.223Z" fill="#31395D"/>
<path d="M67.4064 55.5559H72.9609V49.9999H67.4064V55.5559Z" fill="#666DA8"/>
<path d="M195.184 83.3319H200.738V77.7773H195.184V83.3319Z" fill="#666DA8"/>
<path d="M195.184 88.888H200.738V83.3319H195.184V88.888Z" fill="#666DA8"/>
<path d="M195.184 94.4427H200.738V88.8867H195.184V94.4427Z" fill="#666DA8"/>
<path d="M195.184 111.111H200.738V105.555H195.184V111.111Z" fill="#666DA8"/>
<path d="M195.184 100.001H200.738V94.4453H195.184V100.001Z" fill="#666DA8"/>
<path d="M195.184 105.555H200.738V100H195.184V105.555Z" fill="#666DA8"/>
<path d="M195.184 66.6673H200.738V61.1113H195.184V66.6673Z" fill="#666DA8"/>
<path d="M195.184 61.1113H200.738L200.738 55.5547H195.184L195.184 61.1113Z" fill="#858AC5"/>
<path d="M195.184 55.5559H200.738V50H195.184V55.5559Z" fill="#231F20"/>
<path d="M195.184 77.7786H200.738V72.2227H195.184V77.7786Z" fill="#666DA8"/>
<path d="M195.184 72.2227H200.738L200.738 66.6673H195.184L195.184 72.2227Z" fill="#666DA8"/>
<path d="M195.184 155.556H200.738V150H195.184V155.556Z" fill="#9BA1C6"/>
<path d="M195.184 150H200.738L200.738 144.443H195.184L195.184 150Z" fill="#BABDE5"/>
<path d="M195.184 144.443H200.738V138.889H195.184V144.443Z" fill="#666DA8"/>
<path d="M195.184 161.111H200.738V155.555H195.184V161.111Z" fill="#231F20"/>
<path d="M161.852 161.111H167.408V155.555H161.852V161.111Z" fill="#666DA8"/>
<path d="M195.184 122.222H200.738V116.666H195.184V122.222Z" fill="#666DA8"/>
<path d="M195.184 127.777H200.738V122.222H195.184V127.777Z" fill="#666DA8"/>
<path d="M195.184 138.889H200.738L200.738 133.332H195.184L195.184 138.889Z" fill="#666DA8"/>
<path d="M195.184 116.666H200.738L200.738 111.109H195.184L195.184 116.666Z" fill="#666DA8"/>
<path d="M156.293 44.4446H161.848V38.8887H156.293V44.4446Z" fill="#666DA8"/>
<path d="M117.406 44.4446H122.962V38.8887H117.406V44.4446Z" fill="#231F20"/>
<path d="M145.184 44.4446H150.74V38.8887H145.184V44.4446Z" fill="#666DA8"/>
<path d="M122.961 44.4447H128.517V38.8888H122.961V44.4447Z" fill="#231F20"/>
<path d="M134.074 44.4446H139.629V38.8887H134.074V44.4446Z" fill="#858AC5"/>
<path d="M139.625 44.4446H145.181V38.8887H139.625V44.4446Z" fill="#666DA8"/>
<path d="M128.516 44.4446H134.072V38.8887H128.516V44.4446Z" fill="#858AC5"/>
<path d="M100.738 44.4446H106.294V38.8887H100.738V44.4446Z" fill="#231F20"/>
<path d="M111.852 44.4446H117.406V38.8887H111.852V44.4446Z" fill="#231F20"/>
<path d="M106.293 44.4446H111.849V38.8887H106.293V44.4446Z" fill="#231F20"/>
<path d="M95.1836 44.4446H100.74V38.8887H95.1836V44.4446Z" fill="#231F20"/>
<path d="M150.738 44.4446H156.294V38.8887H150.738V44.4446Z" fill="#666DA8"/>
<path d="M178.516 44.4447H184.071V38.8888H178.516V44.4447Z" fill="#231F20"/>
<path d="M172.961 44.4446L178.516 44.4447V38.8888L172.961 38.8887V44.4446Z" fill="#666DA8"/>
<path d="M89.6288 44.4446H95.1848V38.8887H89.6288V44.4446Z" fill="#231F20"/>
<path d="M161.852 44.4446H167.408V38.8887H161.852V44.4446Z" fill="#666DA8"/>
<path d="M167.406 44.4446H172.962V38.8887H167.406V44.4446Z" fill="#666DA8"/>
<path d="M61.8478 138.888H67.4037V133.332H61.8478V138.888Z" fill="#666DA8"/>
<path d="M61.8478 55.5559H67.4037V50H61.8478V55.5559Z" fill="#666DA8"/>
<path d="M61.8478 50H67.4037V44.4453H61.8478V50Z" fill="#858AC5"/>
<path d="M156.293 177.779H161.848V172.223H156.293V177.779Z" fill="#666DA8"/>
<path d="M61.8478 44.4453H67.4037L67.4036 38.8887H61.8477L61.8478 44.4453Z" fill="#231F20"/>
<path d="M61.8478 61.1106H67.4037V55.5547H61.8478V61.1106Z" fill="#231F20"/>
<path d="M128.516 38.8887L134.07 38.888V33.332H128.516L128.516 38.8887Z" fill="#231F20"/>
<path d="M134.074 38.8887H139.629L139.629 33.332H134.074L134.074 38.8887Z" fill="#858AC5"/>
<path d="M139.625 38.8887H145.181L145.181 33.332H139.625L139.625 38.8887Z" fill="#858AC5"/>
<path d="M145.184 38.8887H150.74L150.74 33.332H145.184L145.184 38.8887Z" fill="#666DA8"/>
<path d="M61.8478 172.223H67.4037L67.4036 166.666H61.8477L61.8478 172.223Z" fill="#666DA8"/>
<path d="M61.8477 144.445H67.4036L67.4037 138.888H61.8478L61.8477 144.445Z" fill="#BABDE5"/>
<path d="M61.8478 150H67.4037L67.4036 144.445H61.8477L61.8478 150Z" fill="#BABDE5"/>
<path d="M61.8477 122.222H67.4036V116.666H61.8477V122.222Z" fill="white"/>
<path d="M61.8477 133.333H67.4036V127.777H61.8477V133.333Z" fill="#666DA8"/>
<path d="M61.8477 127.777H67.4036V122.222H61.8477V127.777Z" fill="#231F20"/>
<path d="M150.738 38.8887H156.294L156.294 33.332H150.738L150.738 38.8887Z" fill="#666DA8"/>
<path d="M61.8477 166.666H67.4036V161.111H61.8477V166.666Z" fill="#666DA8"/>
<path d="M61.8477 66.6673H67.4036L67.4037 61.1106H61.8478L61.8477 66.6673Z" fill="#231F20"/>
<path d="M61.8477 161.111H67.4036L67.4037 155.555H61.8478L61.8477 161.111Z" fill="#231F20"/>
<path d="M61.8478 155.556H67.4037V150H61.8478V155.556Z" fill="#9BA1C6"/>
<path d="M61.8477 88.888H67.4036V83.332H61.8477V88.888Z" fill="#666DA8"/>
<path d="M61.8477 83.332H67.4036V77.7773H61.8477V83.332Z" fill="#666DA8"/>
<path d="M61.8478 77.7786H67.4037V72.2227H61.8478V77.7786Z" fill="#666DA8"/>
<path d="M61.8478 72.2227H67.4037L67.4036 66.6673H61.8477L61.8478 72.2227Z" fill="#858AC5"/>
<path d="M61.8478 94.4427H67.4037V88.8867H61.8478V94.4427Z" fill="#666DA8"/>
<path d="M61.8477 105.555H67.4036V100H61.8477V105.555Z" fill="white"/>
<path d="M61.8477 116.666H67.4036L67.4037 111.109H61.8478L61.8477 116.666Z" fill="#9C1116"/>
<path d="M61.8477 111.111H67.4036V105.555H61.8477V111.111Z" fill="#5F080B"/>
<path d="M61.8478 100.001H67.4037V94.4453H61.8478V100.001Z" fill="#231F20"/>
<path d="M200.738 144.443L206.294 144.443V138.889H200.738V144.443Z" fill="#BABDE5"/>
<path d="M200.738 138.889H206.294L206.294 133.332H200.738L200.738 138.889Z" fill="#666DA8"/>
<path d="M200.738 150L206.294 149.999V144.443L200.738 144.443L200.738 150Z" fill="#BABDE5"/>
<path d="M200.738 155.556H206.294L206.294 149.999L200.738 150V155.556Z" fill="#231F20"/>
<path d="M200.738 111.111H206.294V105.555H200.738V111.111Z" fill="#666DA8"/>
<path d="M200.738 122.222H206.294V116.666H200.738V122.222Z" fill="#666DA8"/>
<path d="M200.738 133.333H206.294V127.777L200.738 127.777L200.738 133.333Z" fill="#666DA8"/>
<path d="M200.738 127.777L206.294 127.777V122.222H200.738V127.777Z" fill="#666DA8"/>
<path d="M200.738 116.666H206.294L206.294 111.109H200.738L200.738 116.666Z" fill="#666DA8"/>
<path d="M167.406 177.779H172.962V172.223H167.406V177.779Z" fill="#666DA8"/>
<path d="M172.961 177.779H178.516V172.223H172.961V177.779Z" fill="#231F20"/>
<path d="M161.852 177.779H167.408V172.223H161.852V177.779Z" fill="#666DA8"/>
<path d="M156.293 38.8887H161.848L161.848 33.332H156.293L156.293 38.8887Z" fill="#666DA8"/>
<path d="M178.516 38.8888H184.071L184.072 33.332H178.516L178.516 38.8888Z" fill="#231F20"/>
<path d="M167.406 38.8887H172.962L172.962 33.332H167.406L167.406 38.8887Z" fill="#666DA8"/>
<path d="M161.852 38.8887H167.408L167.408 33.332H161.852L161.852 38.8887Z" fill="#666DA8"/>
<path d="M172.961 38.8887L178.516 38.8888L178.516 33.332H172.961L172.961 38.8887Z" fill="#666DA8"/>
<path d="M200.738 105.555H206.294V100H200.738V105.555Z" fill="#666DA8"/>
<path d="M200.738 94.4427H206.294V88.8867H200.738V94.4427Z" fill="#666DA8"/>
<path d="M200.738 83.3319H206.294V77.7773H200.738V83.3319Z" fill="#666DA8"/>
<path d="M200.738 100.001H206.294V94.4453H200.738V100.001Z" fill="#666DA8"/>
<path d="M200.738 88.888H206.294V83.3319H200.738V88.888Z" fill="#666DA8"/>
<path d="M200.738 61.1113L206.294 61.1106V55.5547H200.738L200.738 61.1113Z" fill="#231F20"/>
<path d="M200.738 66.6673H206.294L206.294 61.1106L200.738 61.1113V66.6673Z" fill="#858AC5"/>
<path d="M200.738 72.2227L206.294 72.2225L206.294 66.6673H200.738L200.738 72.2227Z" fill="#666DA8"/>
<path d="M200.738 77.7786H206.294V72.2225L200.738 72.2227V77.7786Z" fill="#666DA8"/>
<path d="M195.184 133.333H200.738L200.738 127.777H195.184V133.333Z" fill="#666DA8"/>
<path d="M78.5156 144.445H84.0716V138.889H78.5156V144.445Z" fill="#BABDE5"/>
<path d="M78.5157 116.665H84.0717V111.109H78.5157V116.665Z" fill="#9C1116"/>
<path d="M78.5156 133.333H84.0716V127.777H78.5156V133.333Z" fill="#666DA8"/>
<path d="M78.5156 127.777H84.0716V122.223H78.5156V127.777Z" fill="#231F20"/>
<path d="M78.5156 122.223H84.0716L84.0717 116.665H78.5157L78.5156 122.223Z" fill="#9C1116"/>
<path d="M78.5156 138.889H84.0716L84.0717 133.332H78.5157L78.5156 138.889Z" fill="#666DA8"/>
<path d="M84.0703 166.666H89.6263V161.111H84.0703V166.666Z" fill="#231F20"/>
<path d="M84.0703 161.111H89.6263L89.6264 155.555H84.0704L84.0703 161.111Z" fill="#9BA1C6"/>
<path d="M78.5157 150H84.0717L84.0716 144.445H78.5156L78.5157 150Z" fill="#BABDE5"/>
<path d="M78.5157 155.556H84.0717V150H78.5157V155.556Z" fill="#BABDE5"/>
<path d="M78.5157 161.111H84.0717V155.555H78.5157V161.111Z" fill="#9BA1C6"/>
<path d="M78.5157 77.7786H84.0717V72.2227H78.5157V77.7786Z" fill="#666DA8"/>
<path d="M78.5157 72.2227H84.0717V66.668H78.5157V72.2227Z" fill="#666DA8"/>
<path d="M78.5156 83.3319H84.0716V77.7773H78.5156V83.3319Z" fill="#666DA8"/>
<path d="M78.5157 61.1106H84.0717V55.5547H78.5157V61.1106Z" fill="#666DA8"/>
<path d="M78.5157 66.668H84.0717V61.1106H78.5157V66.668Z" fill="#666DA8"/>
<path d="M78.5156 105.555H84.0716V100H78.5156V105.555Z" fill="#5F080B"/>
<path d="M78.5157 100.001H84.0717V94.4453H78.5157V100.001Z" fill="#231F20"/>
<path d="M78.5156 88.888H84.0716V83.3319H78.5156V88.888Z" fill="#666DA8"/>
<path d="M78.5156 111.111H84.0716V105.555H78.5156V111.111Z" fill="#9C1116"/>
<path d="M78.5157 94.4427H84.0717V88.8867H78.5157V94.4427Z" fill="#666DA8"/>
<path d="M89.6289 166.666H95.1835L95.1836 161.111H89.629L89.6289 166.666Z" fill="#9BA1C6"/>
<path d="M167.406 166.666H172.962V161.111H167.406V166.666Z" fill="#231F20"/>
<path d="M161.852 166.666H167.408L167.408 161.111H161.852L161.852 166.666Z" fill="#666DA8"/>
<path d="M156.293 166.666H161.848L161.848 161.111H156.293L156.293 166.666Z" fill="#666DA8"/>
<path d="M172.961 166.666H178.515V161.111H172.961V166.666Z" fill="#231F20"/>
<path d="M150.738 166.666H156.294L156.294 161.111H150.738L150.738 166.666Z" fill="#666DA8"/>
<path d="M78.5157 55.5559H84.0717V50H78.5157V55.5559Z" fill="#666DA8"/>
<path d="M189.629 161.111H195.185V155.555H189.629V161.111Z" fill="#231F20"/>
<path d="M145.184 166.666H150.74L150.74 161.111H145.184L145.184 166.666Z" fill="#666DA8"/>
<path d="M184.07 166.666H189.626V161.111H184.07V166.666Z" fill="#231F20"/>
<path d="M178.515 166.666L184.071 166.666V161.111L178.515 161.111V166.666Z" fill="#231F20"/>
<path d="M106.293 166.666H111.849L111.849 161.111H106.293L106.293 166.666Z" fill="#9BA1C6"/>
<path d="M100.738 166.666H106.294L106.294 161.111H100.738L100.738 166.666Z" fill="#9BA1C6"/>
<path d="M95.1835 166.666H100.74L100.74 161.111H95.1836L95.1835 166.666Z" fill="#9BA1C6"/>
<path d="M111.852 166.666H117.406L117.406 161.111H111.852L111.852 166.666Z" fill="#9BA1C6"/>
<path d="M122.961 166.666H128.517L128.517 161.111H122.961L122.961 166.666Z" fill="#9BA1C6"/>
<path d="M128.516 166.666H134.07L134.07 161.111H128.516L128.516 166.666Z" fill="#231F20"/>
<path d="M134.074 166.666H139.629L139.629 161.111H134.074L134.074 166.666Z" fill="#454B78"/>
<path d="M117.406 166.666H122.962L122.962 161.111H117.406L117.406 166.666Z" fill="#9BA1C6"/>
<path d="M139.625 166.666H145.181L145.181 161.111H139.625L139.625 166.666Z" fill="#858AC5"/>
<path d="M184.07 100.001H189.626V94.4453H184.07V100.001Z" fill="#666DA8"/>
<path d="M189.629 155.556H195.185V150H189.629V155.556Z" fill="#BABDE5"/>
<path d="M184.07 111.111H189.626V105.555H184.07V111.111Z" fill="#666DA8"/>
<path d="M84.0704 55.5559H89.6264V50H84.0704V55.5559Z" fill="#666DA8"/>
<path d="M184.07 116.665H189.626V111.109H184.07V116.665Z" fill="#666DA8"/>
<path d="M184.07 127.777H189.626V122.223H184.07V127.777Z" fill="#666DA8"/>
<path d="M184.07 122.223H189.626L189.626 116.665H184.07L184.07 122.223Z" fill="#666DA8"/>
<path d="M184.07 77.7786H189.626V72.2227H184.07V77.7786Z" fill="#666DA8"/>
<path d="M184.07 94.4427H189.626V88.8867H184.07V94.4427Z" fill="#666DA8"/>
<path d="M184.07 83.3319H189.626V77.7773H184.07V83.3319Z" fill="#666DA8"/>
<path d="M184.07 72.2227H189.626V66.668H184.07V72.2227Z" fill="#666DA8"/>
<path d="M184.07 88.888H189.626V83.3319H184.07V88.888Z" fill="#666DA8"/>
<path d="M178.515 161.111L184.071 161.111L184.072 155.555H178.516L178.515 161.111Z" fill="#9BA1C6"/>
<path d="M172.961 161.111H178.515L178.516 155.555H172.961L172.961 161.111Z" fill="#9BA1C6"/>
<path d="M184.07 161.111H189.626L189.626 155.555H184.07L184.07 161.111Z" fill="#9BA1C6"/>
<path d="M167.406 161.111H172.962L172.962 155.555H167.406L167.406 161.111Z" fill="#231F20"/>
<path d="M184.07 138.888H189.626V133.332H184.07V138.888Z" fill="#666DA8"/>
<path d="M184.07 144.443H189.626L189.626 138.888H184.07L184.07 144.443Z" fill="#666DA8"/>
<path d="M184.07 155.556H189.626V150H184.07V155.556Z" fill="#BABDE5"/>
<path d="M184.07 133.333H189.626V127.777H184.07V133.333Z" fill="#666DA8"/>
<path d="M184.07 105.555H189.626V100H184.07V105.555Z" fill="#666DA8"/>
<path d="M117.406 55.5559H122.962V50H117.406V55.5559Z" fill="#666DA8"/>
<path d="M111.852 55.5559H117.406V50H111.852V55.5559Z" fill="#666DA8"/>
<path d="M122.961 55.5559H128.517V50H122.961V55.5559Z" fill="#666DA8"/>
<path d="M139.629 55.5559H145.185V50H139.629V55.5559Z" fill="#666DA8"/>
<path d="M134.074 55.5559H139.629V50H134.074V55.5559Z" fill="#666DA8"/>
<path d="M128.516 55.5559H134.07V50H128.516V55.5559Z" fill="#666DA8"/>
<path d="M95.1837 55.5559H100.74V50H95.1837V55.5559Z" fill="#666DA8"/>
<path d="M106.293 55.5559H111.849V50H106.293V55.5559Z" fill="#666DA8"/>
<path d="M89.629 55.5559H95.1837V50H89.629V55.5559Z" fill="#666DA8"/>
<path d="M100.738 55.5559H106.294V50H100.738V55.5559Z" fill="#666DA8"/>
<path d="M150.738 55.5559H156.294V50H150.738V55.5559Z" fill="#666DA8"/>
<path d="M184.07 55.5559H189.626V50H184.07V55.5559Z" fill="#858AC5"/>
<path d="M172.961 55.5559H178.516V50H172.961V55.5559Z" fill="#666DA8"/>
<path d="M145.184 55.5559H150.74V50H145.184V55.5559Z" fill="#666DA8"/>
<path d="M184.07 61.1106H189.626V55.5547H184.07V61.1106Z" fill="#666DA8"/>
<path d="M178.516 55.5559H184.072V50H178.516V55.5559Z" fill="#858AC5"/>
<path d="M167.406 55.5559H172.962V50H167.406V55.5559Z" fill="#666DA8"/>
<path d="M184.07 66.668H189.626V61.1106H184.07V66.668Z" fill="#666DA8"/>
<path d="M156.293 55.5559H161.848V50H156.293V55.5559Z" fill="#666DA8"/>
<path d="M161.852 55.5559H167.408V50H161.852V55.5559Z" fill="#666DA8"/>
<path d="M184.07 150H189.626L189.626 144.443H184.07L184.07 150Z" fill="#666DA8"/>
<path d="M72.9608 144.445H78.5169V138.889H72.9608V144.445Z" fill="#BABDE5"/>
<path d="M72.9608 122.222H78.5169V116.666L72.9609 116.665L72.9608 122.222Z" fill="white"/>
<path d="M72.9608 127.777L78.5169 127.777V122.222H72.9608V127.777Z" fill="#231F20"/>
<path d="M72.9608 133.333H78.5169V127.777L72.9608 127.777V133.333Z" fill="#666DA8"/>
<path d="M72.9609 150H78.517L78.5169 144.445H72.9608L72.9609 150Z" fill="#BABDE5"/>
<path d="M72.9608 66.6673H78.5169V61.1113L72.9609 61.1106L72.9608 66.6673Z" fill="#666DA8"/>
<path d="M72.9608 166.666H78.5169V161.111L72.9609 161.111L72.9608 166.666Z" fill="#231F20"/>
<path d="M78.5156 166.666H84.0716L84.0717 161.111H78.5157L78.5156 166.666Z" fill="#231F20"/>
<path d="M72.9609 161.111L78.5169 161.111L78.517 155.555H72.9609V161.111Z" fill="#9BA1C6"/>
<path d="M72.9609 155.556H78.517V150H72.9609V155.556Z" fill="#9BA1C6"/>
<path d="M72.9608 138.889H78.5169L78.517 133.332H72.9609L72.9608 138.889Z" fill="#666DA8"/>
<path d="M72.9609 116.665L78.5169 116.666L78.517 111.109H72.9609V116.665Z" fill="#9C1116"/>
<path d="M72.9609 88.888H78.5169V83.332H72.9609V88.888Z" fill="#666DA8"/>
<path d="M72.9611 77.7786H78.517V72.2227H72.9611V77.7786Z" fill="#666DA8"/>
<path d="M72.9611 72.2227H78.517L78.5169 66.6673H72.9608L72.9611 72.2227Z" fill="#666DA8"/>
<path d="M72.9609 83.332H78.5169V77.7773H72.9609V83.332Z" fill="#666DA8"/>
<path d="M72.9608 105.555H78.5169V100H72.9608V105.555Z" fill="white"/>
<path d="M72.9609 94.4427H78.517V88.8867H72.9609V94.4427Z" fill="#666DA8"/>
<path d="M72.9608 111.111H78.5169V105.555H72.9608V111.111Z" fill="#9C1116"/>
<path d="M72.9609 100.001H78.517V94.4453H72.9609V100.001Z" fill="#231F20"/>
<path d="M78.5157 172.223H84.0717L84.0716 166.666H78.5156L78.5157 172.223Z" fill="#31395D"/>
<path d="M167.406 172.223H172.962L172.962 166.666H167.406L167.406 172.223Z" fill="#666DA8"/>
<path d="M156.293 172.223H161.848L161.848 166.666H156.293L156.293 172.223Z" fill="#666DA8"/>
<path d="M161.852 172.223H167.408L167.408 166.666H161.852L161.852 172.223Z" fill="#666DA8"/>
<path d="M150.738 172.223H156.294L156.294 166.666H150.738L150.738 172.223Z" fill="#666DA8"/>
<path d="M145.184 172.223H150.74L150.74 166.666H145.184L145.184 172.223Z" fill="#858AC5"/>
<path d="M139.625 172.223H145.181L145.181 166.666H139.625L139.625 172.223Z" fill="#454B78"/>
<path d="M172.961 172.223H178.516L178.515 166.666H172.961L172.961 172.223Z" fill="#231F20"/>
<path d="M111.852 172.222H117.406V166.666H111.852V172.222Z" fill="#231F20"/>
<path d="M95.1836 172.223L100.74 172.222V166.666H95.1835L95.1836 172.223Z" fill="#231F20"/>
<path d="M106.293 172.222H111.849V166.666H106.293V172.222Z" fill="#231F20"/>
<path d="M100.738 172.222H106.294V166.666H100.738V172.222Z" fill="#231F20"/>
<path d="M89.629 172.223H95.1836L95.1835 166.666H89.6289L89.629 172.223Z" fill="#231F20"/>
<path d="M128.516 172.222H134.07V166.666H128.516V172.222Z" fill="#231F20"/>
<path d="M122.961 172.222H128.517L128.517 166.666H122.961L122.961 172.222Z" fill="#231F20"/>
<path d="M84.0704 172.223H89.6264L89.6263 166.666H84.0703L84.0704 172.223Z" fill="#31395D"/>
<path d="M134.074 172.222H139.629V166.666H134.074V172.222Z" fill="#231F20"/>
<path d="M117.406 172.222H122.962V166.666H117.406V172.222Z" fill="#231F20"/>
<path d="M78.5157 50H84.0717L84.0716 44.4446H78.5156L78.5157 50Z" fill="#858AC5"/>
<path d="M189.629 66.6673H195.185V61.1113H189.629V66.6673Z" fill="#666DA8"/>
<path d="M189.629 72.2225H195.185L195.185 66.6673H189.629L189.629 72.2225Z" fill="#666DA8"/>
<path d="M189.629 77.7786H195.185V72.2225H189.629V77.7786Z" fill="#666DA8"/>
<path d="M189.629 88.888H195.185V83.332H189.629V88.888Z" fill="#666DA8"/>
<path d="M178.516 50H184.072L184.071 44.4447H178.516L178.516 50Z" fill="#231F20"/>
<path d="M189.629 55.5559H195.185V50H189.629V55.5559Z" fill="#231F20"/>
<path d="M189.629 61.1113H195.185L195.185 55.5547H189.629L189.629 61.1113Z" fill="#858AC5"/>
<path d="M184.07 50H189.626V44.4453H184.07V50Z" fill="#231F20"/>
<path d="M189.629 94.4427H195.185V88.8867H189.629V94.4427Z" fill="#666DA8"/>
<path d="M189.629 83.332H195.185V77.7773H189.629V83.332Z" fill="#666DA8"/>
<path d="M189.629 127.777H195.185V122.223H189.629V127.777Z" fill="#666DA8"/>
<path d="M189.629 138.888H195.185V133.332H189.629V138.888Z" fill="#666DA8"/>
<path d="M189.629 133.333H195.185V127.777H189.629V133.333Z" fill="#666DA8"/>
<path d="M189.629 144.443H195.185L195.185 138.888H189.629L189.629 144.443Z" fill="#666DA8"/>
<path d="M189.629 111.111H195.185V105.555H189.629V111.111Z" fill="#666DA8"/>
<path d="M189.629 105.555H195.185V100H189.629V105.555Z" fill="#666DA8"/>
<path d="M189.629 100.001H195.185V94.4453H189.629V100.001Z" fill="#666DA8"/>
<path d="M189.629 122.223H195.185V116.666H189.629V122.223Z" fill="#666DA8"/>
<path d="M189.629 116.666H195.185L195.185 111.109H189.629L189.629 116.666Z" fill="#666DA8"/>
<path d="M122.961 50H128.517L128.517 44.4447H122.961L122.961 50Z" fill="#858AC5"/>
<path d="M95.1837 50H100.74L100.74 44.4446H95.1836L95.1837 50Z" fill="#858AC5"/>
<path d="M100.738 50H106.294L106.294 44.4446H100.738L100.738 50Z" fill="#858AC5"/>
<path d="M89.629 50H95.1837L95.1836 44.4446H89.6288L89.629 50Z" fill="#858AC5"/>
<path d="M106.293 50H111.849L111.849 44.4446H106.293L106.293 50Z" fill="#858AC5"/>
<path d="M111.852 50H117.406L117.406 44.4446H111.852L111.852 50Z" fill="#858AC5"/>
<path d="M117.406 50H122.962L122.962 44.4446H117.406L117.406 50Z" fill="#858AC5"/>
<path d="M72.9609 55.5559H78.517V50L72.9609 49.9999V55.5559Z" fill="#666DA8"/>
<path d="M84.0704 50H89.6264V44.4453H84.0704V50Z" fill="#858AC5"/>
<path d="M72.9609 49.9999L78.517 50L78.5169 44.4446H72.9608L72.9609 49.9999Z" fill="#858AC5"/>
<path d="M189.629 150H195.185L195.185 144.443H189.629L189.629 150Z" fill="#BABDE5"/>
<path d="M128.516 50H134.07V44.4453L128.516 44.4446L128.516 50Z" fill="#858AC5"/>
<path d="M150.738 50H156.294L156.294 44.4446H150.738L150.738 50Z" fill="#858AC5"/>
<path d="M156.293 50H161.848L161.848 44.4446H156.293L156.293 50Z" fill="#666DA8"/>
<path d="M161.852 50H167.408L167.408 44.4446H161.852L161.852 50Z" fill="#666DA8"/>
<path d="M167.406 50H172.962L172.962 44.4446H167.406L167.406 50Z" fill="#666DA8"/>
<path d="M172.961 50H178.516L178.516 44.4447L172.961 44.4446L172.961 50Z" fill="#666DA8"/>
<path d="M134.074 50L139.63 49.9999V44.4453L134.074 44.4446L134.074 50Z" fill="#858AC5"/>
<path d="M72.9609 61.1106L78.5169 61.1113L78.517 55.5547H72.9609V61.1106Z" fill="#666DA8"/>
<path d="M139.625 49.9999H145.181L145.181 44.4446H139.625L139.625 49.9999Z" fill="#858AC5"/>
<path d="M145.184 50H150.74L150.74 44.4446H145.184L145.184 50Z" fill="#858AC5"/>
<path d="M0.738281 83.3319H6.29422V77.7773H0.738281V83.3319Z" fill="#231F20"/>
<path d="M0.738281 88.8881H6.29422V83.3319H0.738281V88.8881Z" fill="#231F20"/>
<path d="M0.738403 94.4427H6.29434V88.8867H0.738403V94.4427Z" fill="#231F20"/>
<path d="M0.738403 72.2225H6.29434V66.668H0.738403V72.2225Z" fill="#231F20"/>
<path d="M0.738281 77.7773H6.29422L6.29434 72.2207H0.738403L0.738281 77.7773Z" fill="#231F20"/>
<path d="M6.29309 72.2225H11.8476V66.668H6.29309V72.2225Z" fill="#858AC5"/>
<path d="M6.29309 77.7786H11.8476V72.2225H6.29309V77.7786Z" fill="#666DA8"/>
<path d="M6.29309 94.4427H11.8476V88.8867H6.29309V94.4427Z" fill="#454B78"/>
<path d="M6.29297 83.3319H11.8475V77.7773H6.29297V83.3319Z" fill="#666DA8"/>
<path d="M6.29309 100.001H11.8476V94.4453H6.29309V100.001Z" fill="#231F20"/>
<path d="M6.29297 88.888H11.8475V83.3319H6.29297V88.888Z" fill="#666DA8"/>
<path d="M6.29309 66.668H11.8476L11.8475 61.1113H6.29297L6.29309 66.668Z" fill="#231F20"/>
<path d="M6.29297 105.555H11.8475V100H6.29297V105.555Z" fill="#231F20"/>
<path d="M261.844 83.3319H267.391V77.7773H261.844V83.3319Z" fill="#231F20"/>
<path d="M261.844 88.888H267.391V83.3319H261.844V88.888Z" fill="#858AC5"/>
<path d="M261.844 116.665H267.392V111.109H261.844V116.665Z" fill="#666DA8"/>
<path d="M261.844 127.777H267.391V122.223H261.844V127.777Z" fill="#454B78"/>
<path d="M261.844 133.333H267.391V127.777H261.844V133.333Z" fill="#231F20"/>
<path d="M261.844 105.555H267.391V100H261.844V105.555Z" fill="#666DA8"/>
<path d="M261.844 100.001H267.392V94.4453H261.844V100.001Z" fill="#666DA8"/>
<path d="M261.844 111.111H267.391V105.555H261.844V111.111Z" fill="#666DA8"/>
<path d="M261.844 94.4427H267.392V88.8867H261.844V94.4427Z" fill="#666DA8"/>
<path d="M261.844 122.223H267.391L267.392 116.665H261.844L261.844 122.223Z" fill="#454B78"/>
<path d="M234.07 100.001H239.625V94.4453H234.07V100.001Z" fill="#666DA8"/>
<path d="M22.9611 77.7786H28.517V72.2227H22.9611V77.7786Z" fill="#666DA8"/>
<path d="M22.9611 94.4427H28.517V88.8867H22.9611V94.4427Z" fill="#666DA8"/>
<path d="M22.9609 88.888H28.5169V83.332H22.9609V88.888Z" fill="#666DA8"/>
<path d="M22.9609 83.332H28.5169V77.7773H22.9609V83.332Z" fill="#666DA8"/>
<path d="M22.9611 100.001H28.517V94.4453H22.9611V100.001Z" fill="#666DA8"/>
<path d="M22.9609 127.777H28.5169V122.223H22.9609V127.777Z" fill="#231F20"/>
<path d="M22.9609 122.223H28.5169V116.666H22.9609V122.223Z" fill="#454B78"/>
<path d="M22.9609 116.666H28.5169L28.517 111.109H22.9611L22.9609 116.666Z" fill="#666DA8"/>
<path d="M22.9609 111.111H28.5169V105.555H22.9609V111.111Z" fill="#666DA8"/>
<path d="M22.9609 105.555H28.5169V100H22.9609V105.555Z" fill="#666DA8"/>
<path d="M22.9611 72.2227H28.517V66.668H22.9611V72.2227Z" fill="#666DA8"/>
<path d="M22.9611 66.668H28.517L28.5169 61.1113H22.9609L22.9611 66.668Z" fill="#666DA8"/>
<path d="M22.9609 61.1113H28.5169L28.517 55.5547H22.9611L22.9609 61.1113Z" fill="#858AC5"/>
<path d="M22.9611 55.5559H28.517V50H22.9611V55.5559Z" fill="#231F20"/>
<path d="M245.184 100.001H250.74V94.4453H245.184V100.001Z" fill="#666DA8"/>
<path d="M245.184 105.555H250.74V100H245.184V105.555Z" fill="#666DA8"/>
<path d="M245.184 94.4427H250.74V88.8867H245.184V94.4427Z" fill="#666DA8"/>
<path d="M245.184 116.665H250.74V111.109H245.184V116.665Z" fill="#666DA8"/>
<path d="M245.184 88.888H250.74V83.332H245.184V88.888Z" fill="#858AC5"/>
<path d="M245.184 83.332H250.74V77.7773H245.184V83.332Z" fill="#231F20"/>
<path d="M245.184 122.222H250.74L250.74 116.665H245.184L245.184 122.222Z" fill="#666DA8"/>
<path d="M245.184 111.111H250.74V105.555H245.184V111.111Z" fill="#666DA8"/>
<path d="M245.184 133.333H250.74V127.777H245.184V133.333Z" fill="#231F20"/>
<path d="M245.184 127.777H250.74V122.222H245.184V127.777Z" fill="#BABDE5"/>
<path d="M239.629 127.777L245.184 127.777V122.222L239.629 122.223V127.777Z" fill="#BABDE5"/>
<path d="M28.5157 55.5559H34.0704V49.9999L28.5157 50V55.5559Z" fill="#231F20"/>
<path d="M28.5156 127.777H34.0703V122.223H28.5156V127.777Z" fill="#454B78"/>
<path d="M28.5156 122.223H34.0703V116.666H28.5156V122.223Z" fill="#666DA8"/>
<path d="M28.5156 116.666H34.0703L34.0704 111.109H28.5157L28.5156 116.666Z" fill="#666DA8"/>
<path d="M28.5157 72.2225H34.0704V66.668H28.5157V72.2225Z" fill="#666DA8"/>
<path d="M28.5157 61.1106H34.0704V55.5547H28.5157V61.1106Z" fill="#858AC5"/>
<path d="M28.5157 77.7786H34.0704V72.2225H28.5157V77.7786Z" fill="#666DA8"/>
<path d="M28.5156 83.3319H34.0703V77.7773H28.5156V83.3319Z" fill="#666DA8"/>
<path d="M28.5157 66.668H34.0704V61.1106H28.5157V66.668Z" fill="#666DA8"/>
<path d="M28.5157 100.001H34.0704V94.4453H28.5157V100.001Z" fill="#454B78"/>
<path d="M28.5156 105.555L34.0703 105.555V100H28.5156V105.555Z" fill="#666DA8"/>
<path d="M28.5156 111.111H34.0703V105.555L28.5156 105.555V111.111Z" fill="#666DA8"/>
<path d="M28.5157 94.4427H34.0704V88.8867H28.5157V94.4427Z" fill="#231F20"/>
<path d="M28.5156 88.888H34.0703V83.3319H28.5156V88.888Z" fill="#666DA8"/>
<path d="M234.07 88.888H239.625V83.332H234.07V88.888Z" fill="#666DA8"/>
<path d="M234.07 83.332H239.625V77.7773H234.07V83.332Z" fill="#858AC5"/>
<path d="M234.07 77.7786H239.625V72.2227H234.07V77.7786Z" fill="#231F20"/>
<path d="M234.07 94.4427H239.625V88.8867H234.07V94.4427Z" fill="#666DA8"/>
<path d="M189.629 5.55469H195.185V0H189.629V5.55469Z" fill="#231F20"/>
<path d="M195.184 5.55469H200.738L200.738 0H195.184V5.55469Z" fill="#231F20"/>
<path d="M172.961 5.55469L178.516 5.55456L178.515 0H172.961V5.55469Z" fill="#231F20"/>
<path d="M184.07 5.55469H189.626V0H184.07V5.55469Z" fill="#231F20"/>
<path d="M178.516 5.55456H184.071V0H178.515L178.516 5.55456Z" fill="#231F20"/>
<path d="M28.5156 133.333H34.0703V127.777H28.5156V133.333Z" fill="#231F20"/>
<path d="M239.629 133.333H245.184V127.777L239.629 127.777V133.333Z" fill="#9BA1C6"/>
<path d="M239.629 138.888H245.184V133.332H239.629V138.888Z" fill="#231F20"/>
<path d="M239.629 122.223L245.184 122.222L245.184 116.665L239.629 116.666V122.223Z" fill="#666DA8"/>
<path d="M239.629 116.666L245.184 116.665V111.109H239.629L239.629 116.666Z" fill="#666DA8"/>
<path d="M239.629 105.555H245.184V100H239.629V105.555Z" fill="#666DA8"/>
<path d="M239.629 100.001H245.184V94.4453H239.629V100.001Z" fill="#666DA8"/>
<path d="M239.629 111.111H245.184V105.555H239.629V111.111Z" fill="#666DA8"/>
<path d="M239.629 94.4427H245.184V88.8867H239.629V94.4427Z" fill="#666DA8"/>
<path d="M239.629 88.888H245.184V83.332H239.629V88.888Z" fill="#666DA8"/>
<path d="M239.629 77.7786H245.184V72.2227H239.629V77.7786Z" fill="#231F20"/>
<path d="M239.629 83.332H245.184V77.7773H239.629V83.332Z" fill="#858AC5"/>
<path d="M11.8478 116.665H17.4037V111.109H11.8478V116.665Z" fill="#231F20"/>
<path d="M11.8475 105.555H17.4036V100H11.8475V105.555Z" fill="#454B78"/>
<path d="M11.8477 111.111H17.4036V105.555H11.8475L11.8477 111.111Z" fill="#231F20"/>
<path d="M11.8475 61.1113L17.4037 61.1106V55.5547H11.8478L11.8475 61.1113Z" fill="#231F20"/>
<path d="M11.8476 72.2225H17.4037V66.668H11.8476V72.2225Z" fill="#666DA8"/>
<path d="M11.8475 83.3319H17.4036V77.7773H11.8475V83.3319Z" fill="#666DA8"/>
<path d="M11.8476 94.4427H17.4037V88.8867H11.8476V94.4427Z" fill="#666DA8"/>
<path d="M11.8476 77.7786H17.4037V72.2225H11.8476V77.7786Z" fill="#666DA8"/>
<path d="M11.8475 88.888H17.4036V83.3319H11.8475V88.888Z" fill="#666DA8"/>
<path d="M11.8476 100.001H17.4037V94.4453H11.8476V100.001Z" fill="#666DA8"/>
<path d="M11.8476 66.668H17.4037V61.1106L11.8475 61.1113L11.8476 66.668Z" fill="#858AC5"/>
<path d="M256.293 116.667H261.849V111.111H256.293V116.667Z" fill="#666DA8"/>
<path d="M256.293 111.111H261.849L261.849 105.555H256.293L256.293 111.111Z" fill="#666DA8"/>
<path d="M256.293 127.777H261.849V122.223H256.293V127.777Z" fill="#231F20"/>
<path d="M256.293 122.223H261.849V116.666H256.293V122.223Z" fill="#BABDE5"/>
<path d="M256.293 94.4427H261.849V88.8867H256.293V94.4427Z" fill="#858AC5"/>
<path d="M256.293 105.555H261.849V100H256.293V105.555Z" fill="#666DA8"/>
<path d="M256.293 88.8881H261.849V83.3322H256.293V88.8881Z" fill="#231F20"/>
<path d="M256.293 100.001H261.849V94.4453H256.293V100.001Z" fill="#666DA8"/>
<path d="M17.4064 116.665H22.9623V111.109H17.4064V116.665Z" fill="#454B78"/>
<path d="M17.4062 122.222H22.9622L22.9623 116.665H17.4064L17.4062 122.222Z" fill="#231F20"/>
<path d="M17.4062 66.6673H22.9622V61.1113H17.4062V66.6673Z" fill="#858AC5"/>
<path d="M17.4064 77.7786H22.9623V72.2227H17.4064V77.7786Z" fill="#666DA8"/>
<path d="M17.4064 72.2227H22.9623L22.9622 66.6673H17.4062L17.4064 72.2227Z" fill="#666DA8"/>
<path d="M17.4062 61.1113H22.9622L22.9623 55.5547H17.4064L17.4062 61.1113Z" fill="#231F20"/>
<path d="M17.4062 83.3319H22.9622V77.7773H17.4062V83.3319Z" fill="#666DA8"/>
<path d="M17.4062 88.888H22.9622V83.3319H17.4062V88.888Z" fill="#666DA8"/>
<path d="M17.4062 105.555H22.9622V100H17.4062V105.555Z" fill="#666DA8"/>
<path d="M17.4064 100.001H22.9623V94.4453H17.4064V100.001Z" fill="#666DA8"/>
<path d="M17.4064 94.4427H22.9623V88.8867H17.4064V94.4427Z" fill="#666DA8"/>
<path d="M17.4062 111.111H22.9622V105.555H17.4062V111.111Z" fill="#666DA8"/>
<path d="M250.738 83.3319L256.293 83.3322L256.293 77.7773H250.738V83.3319Z" fill="#231F20"/>
<path d="M250.738 88.888L256.293 88.8881V83.3322L250.738 83.3319V88.888Z" fill="#858AC5"/>
<path d="M250.738 94.4427H256.293V88.8867H250.738V94.4427Z" fill="#666DA8"/>
<path d="M250.738 100.001H256.293V94.4453H250.738V100.001Z" fill="#666DA8"/>
<path d="M250.738 105.555L256.293 105.555V100L250.738 100V105.555Z" fill="#666DA8"/>
<path d="M250.738 111.111L256.293 111.111L256.293 105.555L250.738 105.555V111.111Z" fill="#666DA8"/>
<path d="M250.738 122.222L256.293 122.223V116.666H250.738V122.222Z" fill="#BABDE5"/>
<path d="M250.738 116.666H256.293L256.293 111.109H250.738L250.738 116.666Z" fill="#666DA8"/>
<path d="M250.738 133.333H256.293L256.293 127.777L250.738 127.777V133.333Z" fill="#231F20"/>
<path d="M250.738 127.777L256.293 127.777V122.223L250.738 122.222V127.777Z" fill="#9BA1C6"/>
<path d="M295.172 161.111H300.727V155.555H295.172V161.111Z" fill="#231F20"/>
<path d="M289.617 161.111H295.173V155.555H289.617V161.111Z" fill="#231F20"/>
<path d="M289.617 77.7786H295.173V72.2227H289.617V77.7786Z" fill="#231F20"/>
<path d="M289.617 83.3319H295.173V77.7773H289.617V83.3319Z" fill="#231F20"/>
<path d="M289.617 72.2227H295.173V66.668H289.617V72.2227Z" fill="#231F20"/>
<path d="M289.617 155.556H295.173V150H289.617V155.556Z" fill="#454B78"/>
<path d="M289.617 66.668H295.173L295.173 61.1113H289.617L289.617 66.668Z" fill="#454B78"/>
<path d="M289.617 49.9999H295.173V44.4453H289.617V49.9999Z" fill="#231F20"/>
<path d="M289.617 61.1113H295.173L295.173 55.5547H289.617L289.617 61.1113Z" fill="#666DA8"/>
<path d="M289.617 55.5559H295.173V49.9999H289.617V55.5559Z" fill="#666DA8"/>
<path d="M289.617 133.333H295.173V127.777H289.617V133.333Z" fill="#231F20"/>
<path d="M289.617 144.443H295.173V138.889H289.617V144.443Z" fill="#231F20"/>
<path d="M289.617 150H295.173L295.173 144.443H289.617L289.617 150Z" fill="#666DA8"/>
<path d="M289.617 138.889H295.173L295.173 133.332H289.617L289.617 138.889Z" fill="#231F20"/>
<path d="M300.727 44.4446H306.276V38.8887H300.727V44.4446Z" fill="#231F20"/>
<path d="M300.727 49.9999H306.276L306.276 44.4446H300.727L300.727 49.9999Z" fill="#231F20"/>
<path d="M300.727 55.5559H306.276V49.9999H300.727V55.5559Z" fill="#231F20"/>
<path d="M295.172 155.556H300.727V150H295.172V155.556Z" fill="#231F20"/>
<path d="M295.172 61.1106H300.727V55.5547H295.172V61.1106Z" fill="#231F20"/>
<path d="M295.172 49.9999H300.727L300.727 44.4446L295.172 44.4453V49.9999Z" fill="#858AC5"/>
<path d="M295.172 44.4453L300.727 44.4446V38.8887H295.172L295.172 44.4453Z" fill="#231F20"/>
<path d="M295.172 66.6673H300.726L300.727 61.1106H295.172L295.172 66.6673Z" fill="#231F20"/>
<path d="M295.172 55.5559H300.727V49.9999H295.172V55.5559Z" fill="#666DA8"/>
<path d="M295.172 150H300.727L300.726 144.443H295.172L295.172 150Z" fill="#231F20"/>
<path d="M272.949 100.001H278.504V94.4453H272.949V100.001Z" fill="#666DA8"/>
<path d="M272.949 105.555H278.504V100H272.949V105.555Z" fill="#454B78"/>
<path d="M272.949 94.4427H278.504V88.8867H272.949V94.4427Z" fill="#666DA8"/>
<path d="M272.949 116.665H278.504V111.109H272.949V116.665Z" fill="#666DA8"/>
<path d="M272.949 66.6673H278.504V61.1113H272.949V66.6673Z" fill="#231F20"/>
<path d="M272.949 88.888H278.504V83.332H272.949V88.888Z" fill="#666DA8"/>
<path d="M272.949 72.2225H278.504L278.504 66.6673H272.949L272.949 72.2225Z" fill="#858AC5"/>
<path d="M272.949 77.7786H278.504V72.2225H272.949V77.7786Z" fill="#666DA8"/>
<path d="M272.949 83.332H278.504V77.7773H272.949V83.332Z" fill="#666DA8"/>
<path d="M272.949 122.222H278.504L278.504 116.665H272.949L272.949 122.222Z" fill="#666DA8"/>
<path d="M272.949 111.111H278.504V105.555H272.949V111.111Z" fill="#231F20"/>
<path d="M272.949 144.443H278.504V138.889H272.949V144.443Z" fill="#454B78"/>
<path d="M272.949 149.999H278.504V144.443H272.949V149.999Z" fill="#231F20"/>
<path d="M272.949 138.889H278.504L278.504 133.332H272.949L272.949 138.889Z" fill="#666DA8"/>
<path d="M272.949 133.333H278.504V127.777H272.949V133.333Z" fill="#666DA8"/>
<path d="M272.949 127.777H278.504V122.222H272.949V127.777Z" fill="#666DA8"/>
<path d="M272.949 61.1113H278.504L278.504 55.5547H272.949L272.949 61.1113Z" fill="#231F20"/>
<path d="M267.395 127.777H272.95V122.223L267.395 122.222V127.777Z" fill="#666DA8"/>
<path d="M267.395 144.443H272.95V138.889H267.395V144.443Z" fill="#231F20"/>
<path d="M267.395 133.333H272.95V127.777H267.395V133.333Z" fill="#454B78"/>
<path d="M267.395 138.889H272.95L272.951 133.332H267.395L267.395 138.889Z" fill="#231F20"/>
<path d="M267.395 122.222L272.95 122.223V116.666H267.395V122.222Z" fill="#666DA8"/>
<path d="M267.395 116.666H272.95L272.951 111.109H267.395L267.395 116.666Z" fill="#666DA8"/>
<path d="M267.395 105.555H272.95V100H267.395V105.555Z" fill="#666DA8"/>
<path d="M267.395 100.001H272.951V94.4453H267.395V100.001Z" fill="#666DA8"/>
<path d="M267.395 111.111H272.95V105.555H267.395V111.111Z" fill="#666DA8"/>
<path d="M267.395 94.4427H272.951V88.8867H267.395V94.4427Z" fill="#666DA8"/>
<path d="M267.395 88.888H272.95V83.332H267.395V88.888Z" fill="#666DA8"/>
<path d="M267.395 77.7786H272.951V72.2227H267.395V77.7786Z" fill="#231F20"/>
<path d="M267.395 72.2227H272.951V66.668H267.395V72.2227Z" fill="#231F20"/>
<path d="M267.395 83.332H272.95V77.7773H267.395V83.332Z" fill="#858AC5"/>
<path d="M284.059 138.888H289.615V133.332H284.059V138.888Z" fill="#666DA8"/>
<path d="M284.059 127.777H289.615V122.223H284.059V127.777Z" fill="#231F20"/>
<path d="M284.059 133.333H289.615V127.777H284.059V133.333Z" fill="#666DA8"/>
<path d="M284.059 122.223H289.615V116.666H284.059V122.223Z" fill="#231F20"/>
<path d="M284.059 94.4427H289.615V88.8867H284.059V94.4427Z" fill="#231F20"/>
<path d="M284.059 88.888H289.615V83.332H284.059V88.888Z" fill="#231F20"/>
<path d="M284.059 83.332H289.615V77.7773H284.059V83.332Z" fill="#454B78"/>
<path d="M284.059 144.443H289.615L289.615 138.888H284.059L284.059 144.443Z" fill="#666DA8"/>
<path d="M284.059 155.556H289.615V150H284.059V155.556Z" fill="#231F20"/>
<path d="M284.059 150H289.615L289.615 144.443H284.059L284.059 150Z" fill="#666DA8"/>
<path d="M284.059 77.7786H289.615V72.2227H284.059V77.7786Z" fill="#666DA8"/>
<path d="M284.059 66.6673H289.615V61.1113H284.059V66.6673Z" fill="#666DA8"/>
<path d="M284.059 61.1113H289.615L289.615 55.5547H284.059L284.059 61.1113Z" fill="#666DA8"/>
<path d="M284.059 55.5559H289.615V50H284.059V55.5559Z" fill="#858AC5"/>
<path d="M284.059 72.2227H289.615L289.615 66.6673H284.059L284.059 72.2227Z" fill="#666DA8"/>
<path d="M284.059 50H289.615V44.4453H284.059V50Z" fill="#231F20"/>
<path d="M278.504 77.7773L284.06 77.7766V72.2207H278.504L278.504 77.7773Z" fill="#666DA8"/>
<path d="M278.504 83.332L284.06 83.3319L284.06 77.7766L278.504 77.7773V83.332Z" fill="#666DA8"/>
<path d="M278.504 88.888L284.06 88.8881L284.06 83.3319L278.504 83.332V88.888Z" fill="#666DA8"/>
<path d="M278.504 94.4427H284.06V88.8867H278.504V94.4427Z" fill="#454B78"/>
<path d="M278.504 100.001H284.06V94.4453H278.504V100.001Z" fill="#231F20"/>
<path d="M278.504 72.2225H284.06V66.668L278.504 66.6673L278.504 72.2225Z" fill="#666DA8"/>
<path d="M278.504 55.5559H284.06V50H278.504V55.5559Z" fill="#231F20"/>
<path d="M278.504 105.555L284.06 105.555V100L278.504 100V105.555Z" fill="#231F20"/>
<path d="M278.504 66.6673L284.06 66.668L284.06 61.1112L278.504 61.1113V66.6673Z" fill="#666DA8"/>
<path d="M278.504 61.1113L284.06 61.1112L284.06 55.5547H278.504L278.504 61.1113Z" fill="#858AC5"/>
<path d="M278.504 144.443L284.06 144.443V138.889L278.504 138.889V144.443Z" fill="#666DA8"/>
<path d="M278.504 149.999H284.06V144.443L278.504 144.443V149.999Z" fill="#454B78"/>
<path d="M278.504 138.889L284.06 138.889L284.06 133.332H278.504L278.504 138.889Z" fill="#666DA8"/>
<path d="M278.504 155.556H284.06L284.06 149.999H278.504L278.504 155.556Z" fill="#231F20"/>
<path d="M278.504 122.222H284.06V116.666L278.504 116.665L278.504 122.222Z" fill="#666DA8"/>
<path d="M278.504 116.667H284.06V111.111L278.504 111.111L278.504 116.667Z" fill="#231F20"/>
<path d="M278.504 133.333H284.06V127.777H278.504V133.333Z" fill="#666DA8"/>
<path d="M278.504 127.777H284.06V122.222H278.504V127.777Z" fill="#666DA8"/>
</svg>
