<svg width="233" height="200" viewBox="0 0 233 200" fill="none" xmlns="http://www.w3.org/2000/svg">
<path d="M167.742 199.999H174.194V193.547H167.742V199.999Z" fill="#231F20"/>
<path d="M174.195 200.001H180.647V193.549H174.195V200.001Z" fill="#918F8F"/>
<path d="M180.648 199.999H187.099V193.547H180.648V199.999Z" fill="#231F20"/>
<path d="M193.551 199.999H200.003V193.547H193.551V199.999Z" fill="#231F20"/>
<path d="M90.3242 199.999H96.7763V193.547H90.3242V199.999Z" fill="#231F20"/>
<path d="M83.8711 199.999H90.3216V193.547H83.8711V199.999Z" fill="#918F8F"/>
<path d="M77.4219 199.999H83.874V193.547H77.4219V199.999Z" fill="#231F20"/>
<path d="M103.226 200.001H109.679V193.549H103.226V200.001Z" fill="#231F20"/>
<path d="M116.129 200.001H122.581V193.549H116.129V200.001Z" fill="#231F20"/>
<path d="M109.68 199.999H116.13V193.547H109.68V199.999Z" fill="#918F8F"/>
<path d="M51.6133 6.45047H58.0654V0H51.6133V6.45047Z" fill="#231F20"/>
<path d="M83.8711 6.45047H90.3216V0H83.8711V6.45047Z" fill="#231F20"/>
<path d="M70.9688 6.45047H77.4208V0H70.9688V6.45047Z" fill="#231F20"/>
<path d="M200 199.999H206.452V193.547H200V199.999Z" fill="#918F8F"/>
<path d="M58.0664 6.45047H64.5169V0H58.0664V6.45047Z" fill="#231F20"/>
<path d="M64.5156 6.45047H70.9677V0H64.5156V6.45047Z" fill="#231F20"/>
<path d="M45.1602 6.45047H51.6122V0H45.1602V6.45047Z" fill="#231F20"/>
<path d="M77.4219 6.45047H83.874V0H77.4219V6.45047Z" fill="#231F20"/>
<path d="M12.9023 70.9661H19.3528V64.5156H12.9023V70.9661Z" fill="#231F20"/>
<path d="M12.9023 77.4189H19.3528V70.9661H12.9023V77.4189Z" fill="#231F20"/>
<path d="M12.9023 45.1611H19.3528V38.709H12.9023V45.1611Z" fill="#231F20"/>
<path d="M12.9023 58.0638H19.3528V51.6133H12.9023V58.0638Z" fill="#231F20"/>
<path d="M12.9023 51.6122H19.3528V45.1611H12.9023V51.6122Z" fill="#E07941"/>
<path d="M12.9023 103.226H19.3528V96.7734H12.9023V103.226Z" fill="#231F20"/>
<path d="M12.9023 83.87H19.3528V77.4189H12.9023V83.87Z" fill="#FBCA8E"/>
<path d="M12.9023 96.7734H19.3528V90.3223H12.9023V96.7734Z" fill="#E07941"/>
<path d="M12.9023 90.3223H19.3528V83.8711H12.9023V90.3223Z" fill="#F89B5C"/>
<path d="M12.9023 38.709H19.3528V32.2578H12.9023V38.709Z" fill="#231F20"/>
<path d="M38.707 6.45047H45.1591V0H38.707V6.45047Z" fill="#231F20"/>
<path d="M6.45312 96.7727H12.9052V90.3223H6.45312V96.7727Z" fill="#231F20"/>
<path d="M6.45312 90.3223H12.9052V83.8711H6.45312V90.3223Z" fill="#231F20"/>
<path d="M206.453 199.999H212.904V193.547H206.453V199.999Z" fill="#231F20"/>
<path d="M6.45312 83.87H12.9052V77.418H6.45312V83.87Z" fill="#231F20"/>
<path d="M6.45312 58.0638H12.9052V51.6133H6.45312V58.0638Z" fill="#231F20"/>
<path d="M6.45312 51.6122H12.9052V45.1602H6.45312V51.6122Z" fill="#F89B5C"/>
<path d="M6.45312 45.1602H12.9052V38.709H6.45312V45.1602Z" fill="#231F20"/>
<path d="M206.453 109.679H212.904V103.227H206.453V109.679Z" fill="white"/>
<path d="M206.453 70.9661H212.904V64.5156H206.453V70.9661Z" fill="white"/>
<path d="M206.453 103.226H212.904V96.7734H206.453V103.226Z" fill="#E7E2BF"/>
<path d="M206.453 122.579H212.904V116.129H206.453V122.579Z" fill="#E7E2BF"/>
<path d="M206.453 129.032H212.904V122.579H206.453V129.032Z" fill="#E7E2BF"/>
<path d="M206.453 116.129H212.904V109.679H206.453V116.129Z" fill="white"/>
<path d="M206.453 83.87H212.904V77.418H206.453V83.87Z" fill="white"/>
<path d="M206.453 77.418H212.904V70.9661H206.453V77.418Z" fill="#E7E2BF"/>
<path d="M206.453 96.7734H212.904V90.3223H206.453V96.7734Z" fill="white"/>
<path d="M206.453 90.3223H212.904V83.8711H206.453V90.3223Z" fill="white"/>
<path d="M206.453 135.483H212.904V129.032H206.453V135.483Z" fill="#E7E2BF"/>
<path d="M206.453 180.645H212.904V174.193H206.453V180.645Z" fill="#231F20"/>
<path d="M206.453 187.097H212.904V180.645H206.453V187.097Z" fill="#231F20"/>
<path d="M206.453 193.548H212.904V187.098H206.453V193.548Z" fill="#231F20"/>
<path d="M206.453 174.193H212.904V167.742H206.453V174.193Z" fill="#231F20"/>
<path d="M206.453 167.742H212.904V161.291H206.453V167.742Z" fill="#231F20"/>
<path d="M206.453 154.839H212.904V148.387H206.453V154.839Z" fill="#231F20"/>
<path d="M206.453 148.386H212.904V141.934H206.453V148.386Z" fill="#231F20"/>
<path d="M206.453 141.935H212.904V135.484H206.453V141.935Z" fill="#C6B593"/>
<path d="M206.453 161.291H212.904V154.84H206.453V161.291Z" fill="#231F20"/>
<path d="M206.453 51.6122H212.904V45.1602H206.453V51.6122Z" fill="white"/>
<path d="M206.453 45.1602H212.904V38.709H206.453V45.1602Z" fill="#231F20"/>
<path d="M206.453 58.0638H212.904V51.6133H206.453V58.0638Z" fill="white"/>
<path d="M206.453 64.5146H212.904V58.0625H206.453V64.5146Z" fill="white"/>
<path d="M193.551 58.0638H200.003V51.6133H193.551V58.0638Z" fill="#E7E2BF"/>
<path d="M193.551 51.6122H200.003V45.1602H193.551V51.6122Z" fill="white"/>
<path d="M193.551 64.5146H200.003V58.0625H193.551V64.5146Z" fill="white"/>
<path d="M193.551 77.4189H200.003V70.9668H193.551V77.4189Z" fill="white"/>
<path d="M193.551 70.9668H200.003V64.5156H193.551V70.9668Z" fill="white"/>
<path d="M193.551 38.7099H200.003V32.2578H193.551V38.7099Z" fill="white"/>
<path d="M19.3555 38.7099H25.8075V32.2578H19.3555V38.7099Z" fill="#E7E2BF"/>
<path d="M193.551 32.2578H200.003V25.8066H193.551V32.2578Z" fill="#231F20"/>
<path d="M70.9688 12.9013H77.4208V6.44922H70.9688V12.9013Z" fill="white"/>
<path d="M38.707 12.9013H45.1591V6.44922H38.707V12.9013Z" fill="white"/>
<path d="M45.1602 12.9013H51.6122V6.44922H45.1602V12.9013Z" fill="white"/>
<path d="M51.6133 12.9013H58.0654V6.44922H51.6133V12.9013Z" fill="white"/>
<path d="M58.0664 12.9013H64.5169V6.44922H58.0664V12.9013Z" fill="white"/>
<path d="M19.3555 25.8075H25.8075V19.3555H19.3555V25.8075Z" fill="#231F20"/>
<path d="M32.2578 12.9013H38.7083V6.44922H32.2578V12.9013Z" fill="#231F20"/>
<path d="M193.551 83.87H200.003V77.4189H193.551V83.87Z" fill="white"/>
<path d="M77.4219 12.9013H83.874V6.44922H77.4219V12.9013Z" fill="white"/>
<path d="M64.5156 12.9013H70.9677V6.44922H64.5156V12.9013Z" fill="white"/>
<path d="M90.3242 12.9013H96.7763V6.44922H90.3242V12.9013Z" fill="#231F20"/>
<path d="M83.8711 12.9013H90.3216V6.44922H83.8711V12.9013Z" fill="white"/>
<path d="M193.551 45.1602H200.003V38.7099H193.551V45.1602Z" fill="white"/>
<path d="M103.226 187.097H109.679V180.645H103.226V187.097Z" fill="#231F20"/>
<path d="M109.68 187.097H116.13V180.645H109.68V187.097Z" fill="#F89B5C"/>
<path d="M116.129 187.097H122.581V180.645H116.129V187.097Z" fill="#231F20"/>
<path d="M83.8711 187.097H90.3216V180.645H83.8711V187.097Z" fill="#E07941"/>
<path d="M90.3242 187.097H96.7763V180.645H90.3242V187.097Z" fill="#231F20"/>
<path d="M77.4219 187.097H83.874V180.645H77.4219V187.097Z" fill="#231F20"/>
<path d="M193.551 180.645H200.003V174.193H193.551V180.645Z" fill="#231F20"/>
<path d="M193.551 129.032H200.003V122.58H193.551V129.032Z" fill="white"/>
<path d="M193.551 135.483H200.003V129.032H193.551V135.483Z" fill="#E7E2BF"/>
<path d="M193.551 148.386H200.003V141.934H193.551V148.386Z" fill="#C6B593"/>
<path d="M193.551 154.839H200.003V148.387H193.551V154.839Z" fill="#231F20"/>
<path d="M193.551 141.935H200.003V135.484H193.551V141.935Z" fill="#E7E2BF"/>
<path d="M193.551 96.7727H200.003V90.3223H193.551V96.7727Z" fill="white"/>
<path d="M193.551 103.226H200.003V96.7727H193.551V103.226Z" fill="white"/>
<path d="M193.551 116.13H200.003V109.678H193.551V116.13Z" fill="#E7E2BF"/>
<path d="M193.551 109.678H200.003V103.227H193.551V109.678Z" fill="white"/>
<path d="M193.551 122.58H200.003V116.13H193.551V122.58Z" fill="white"/>
<path d="M180.648 187.097H187.099V180.645H180.648V187.097Z" fill="#231F20"/>
<path d="M174.195 187.097H180.647V180.645H174.195V187.097Z" fill="#E07941"/>
<path d="M167.742 187.097H174.194V180.645H167.742V187.097Z" fill="#231F20"/>
<path d="M193.551 161.292H200.003V154.84H193.551V161.292Z" fill="#231F20"/>
<path d="M193.551 174.193H200.003V167.742H193.551V174.193Z" fill="#231F20"/>
<path d="M193.551 167.742H200.003V161.292H193.551V167.742Z" fill="#231F20"/>
<path d="M193.551 90.3223H200.003V83.8711H193.551V90.3223Z" fill="white"/>
<path d="M193.551 187.097H200.003V180.645H193.551V187.097Z" fill="#231F20"/>
<path d="M19.3555 32.2578H25.8075V25.8075H19.3555V32.2578Z" fill="#231F20"/>
<path d="M200 167.741H206.452V161.291H200V167.741Z" fill="#F89B5C"/>
<path d="M200 161.291H206.452V154.84H200V161.291Z" fill="#F89B5C"/>
<path d="M200 180.645H206.452V174.193H200V180.645Z" fill="#F89B5C"/>
<path d="M200 174.193H206.452V167.741H200V174.193Z" fill="#F89B5C"/>
<path d="M200 187.097H206.452V180.645H200V187.097Z" fill="#F89B5C"/>
<path d="M200 154.839H206.452V148.387H200V154.839Z" fill="#E07941"/>
<path d="M200 135.483H206.452V129.031H200V135.483Z" fill="#E7E2BF"/>
<path d="M200 129.031H206.452V122.58H200V129.031Z" fill="#E7E2BF"/>
<path d="M19.3555 45.1611H25.8075V38.7099H19.3555V45.1611Z" fill="#E7E2BF"/>
<path d="M200 193.548H206.452V187.098H200V193.548Z" fill="#231F20"/>
<path d="M167.742 193.548H174.194V187.098H167.742V193.548Z" fill="#231F20"/>
<path d="M180.648 193.548H187.099V187.098H180.648V193.548Z" fill="#231F20"/>
<path d="M193.551 193.548H200.003V187.098H193.551V193.548Z" fill="#231F20"/>
<path d="M200 122.58H206.452V116.129H200V122.58Z" fill="white"/>
<path d="M174.195 193.549H180.647L180.647 187.098H174.195L174.195 193.549Z" fill="#231F20"/>
<path d="M200 148.386H206.452V141.934H200V148.386Z" fill="#231F20"/>
<path d="M200 38.7099H206.452V32.2578H200V38.7099Z" fill="#231F20"/>
<path d="M200 45.1611H206.452V38.7099H200V45.1611Z" fill="white"/>
<path d="M200 51.6122H206.452V45.1611H200V51.6122Z" fill="white"/>
<path d="M200 77.4189H206.452V70.9668H200V77.4189Z" fill="white"/>
<path d="M200 90.3232H206.452V83.8711H200V90.3232Z" fill="white"/>
<path d="M200 103.226H206.452V96.7734H200V103.226Z" fill="white"/>
<path d="M200 58.0638H206.452V51.6133H200V58.0638Z" fill="white"/>
<path d="M200 109.679H206.452V103.227H200V109.679Z" fill="white"/>
<path d="M200 96.7734H206.452V90.3232H200V96.7734Z" fill="white"/>
<path d="M200 64.5146H206.452V58.0625H200V64.5146Z" fill="white"/>
<path d="M200 70.9668H206.452V64.5156H200V70.9668Z" fill="white"/>
<path d="M200 116.129H206.452V109.679H200V116.129Z" fill="white"/>
<path d="M200 83.87H206.452V77.4189H200V83.87Z" fill="white"/>
<path d="M200 141.935H206.452V135.484H200V141.935Z" fill="#C6B593"/>
<path d="M19.3555 109.679H25.8075V103.227H19.3555V109.679Z" fill="#231F20"/>
<path d="M19.3555 58.0638H25.8075V51.6133H19.3555V58.0638Z" fill="#231F20"/>
<path d="M19.3555 64.5146H25.8075V58.0625H19.3555V64.5146Z" fill="#231F20"/>
<path d="M19.3555 70.9661H25.8075V64.5156H19.3555V70.9661Z" fill="#FBCA8E"/>
<path d="M19.3555 51.6122H25.8075V45.1611H19.3555V51.6122Z" fill="#231F20"/>
<path d="M19.3555 77.4189H25.8075V70.9661H19.3555V77.4189Z" fill="#F89B5C"/>
<path d="M19.3555 90.3232H25.8075V83.8711H19.3555V90.3232Z" fill="#704A32"/>
<path d="M19.3555 96.7727H25.8075V90.3232H19.3555V96.7727Z" fill="#F89B5C"/>
<path d="M19.3555 103.226H25.8075V96.7727H19.3555V103.226Z" fill="#E07941"/>
<path d="M19.3555 83.87H25.8075V77.4189H19.3555V83.87Z" fill="#F89B5C"/>
<path d="M103.226 193.549H109.679L109.679 187.098H103.227L103.226 193.549Z" fill="#231F20"/>
<path d="M83.8711 193.548H90.3216V187.098H83.8711V193.548Z" fill="#231F20"/>
<path d="M77.4219 193.548H83.874V187.098H77.4219V193.548Z" fill="#231F20"/>
<path d="M90.3242 193.548H96.7763V187.098H90.3242V193.548Z" fill="#231F20"/>
<path d="M109.68 193.548H116.13V187.098H109.68V193.548Z" fill="#231F20"/>
<path d="M116.129 193.549H122.581L122.581 187.098H116.129L116.129 193.549Z" fill="#231F20"/>
<path d="M219.355 129.032H225.808V122.58H219.355V129.032Z" fill="#C6B593"/>
<path d="M219.355 135.483H225.808V129.032H219.355V135.483Z" fill="#231F20"/>
<path d="M219.355 141.935H225.808V135.484H219.355V141.935Z" fill="#231F20"/>
<path d="M219.355 122.58H225.808V116.129H219.355V122.58Z" fill="#E7E2BF"/>
<path d="M219.355 58.0638H225.808V51.6133H219.355V58.0638Z" fill="#231F20"/>
<path d="M219.355 109.679H225.808V103.227H219.355V109.679Z" fill="#E7E2BF"/>
<path d="M219.355 103.226H225.808V96.7734H219.355V103.226Z" fill="white"/>
<path d="M219.355 116.129H225.808V109.679H219.355V116.129Z" fill="#E7E2BF"/>
<path d="M219.355 96.7734H225.808V90.3223H219.355V96.7734Z" fill="white"/>
<path d="M219.355 83.87H225.808V77.418H219.355V83.87Z" fill="white"/>
<path d="M219.355 70.9661H225.808V64.5156H219.355V70.9661Z" fill="white"/>
<path d="M219.355 77.418H225.808V70.9661H219.355V77.418Z" fill="white"/>
<path d="M219.355 64.5146H225.808V58.0625H219.355V64.5146Z" fill="white"/>
<path d="M219.355 90.3223H225.808V83.8711H219.355V90.3223Z" fill="white"/>
<path d="M225.809 129.032H232.261V122.58H225.809V129.032Z" fill="#231F20"/>
<path d="M225.809 103.226H232.261V96.7734H225.809V103.226Z" fill="#231F20"/>
<path d="M225.809 122.58H232.261V116.129H225.809V122.58Z" fill="#231F20"/>
<path d="M225.809 109.679H232.261V103.227H225.809V109.679Z" fill="#231F20"/>
<path d="M225.809 116.129H232.261V109.679H225.809V116.129Z" fill="#231F20"/>
<path d="M212.902 109.679H219.354V103.227H212.902V109.679Z" fill="white"/>
<path d="M212.902 116.13H219.354V109.679H212.902V116.13Z" fill="#E7E2BF"/>
<path d="M212.902 103.226H219.354V96.7734H212.902V103.226Z" fill="white"/>
<path d="M212.902 122.579H219.354V116.13H212.902V122.579Z" fill="#E7E2BF"/>
<path d="M212.902 129.032H219.354V122.579H212.902V129.032Z" fill="#E7E2BF"/>
<path d="M212.902 83.87H219.354V77.418H212.902V83.87Z" fill="#E7E2BF"/>
<path d="M212.902 70.9661H219.354V64.5156H212.902V70.9661Z" fill="white"/>
<path d="M212.902 135.483H219.354V129.032H212.902V135.483Z" fill="#C6B593"/>
<path d="M212.902 90.3232H219.354V83.8711H212.902V90.3232Z" fill="#E7E2BF"/>
<path d="M212.902 96.7734H219.354V90.3232H212.902V96.7734Z" fill="#E7E2BF"/>
<path d="M212.902 77.418H219.354V70.9661H212.902V77.418Z" fill="white"/>
<path d="M212.902 141.935H219.354V135.484H212.902V141.935Z" fill="#C6B593"/>
<path d="M212.902 148.386H219.354V141.934H212.902V148.386Z" fill="#231F20"/>
<path d="M212.902 51.6122H219.354V45.1602H212.902V51.6122Z" fill="#231F20"/>
<path d="M212.902 58.0638H219.354V51.6133H212.902V58.0638Z" fill="white"/>
<path d="M212.902 64.5146H219.354V58.0625H212.902V64.5146Z" fill="white"/>
<path d="M0 51.6142H6.45208V45.1621H0V51.6142Z" fill="#231F20"/>
<path d="M109.68 129.032H116.13V122.58H109.68V129.032Z" fill="white"/>
<path d="M154.84 70.9661H161.29V64.5156H154.84V70.9661Z" fill="white"/>
<path d="M154.84 51.6122H161.29V45.1602H154.84V51.6122Z" fill="white"/>
<path d="M141.938 51.6122H148.39V45.1602H141.938V51.6122Z" fill="white"/>
<path d="M154.84 58.0638H161.29V51.6133H154.84V58.0638Z" fill="white"/>
<path d="M154.84 64.5146H161.29V58.0625H154.84V64.5146Z" fill="white"/>
<path d="M148.387 51.6122H154.839V45.1602H148.387V51.6122Z" fill="white"/>
<path d="M116.129 51.6142H122.581V45.1621H116.129V51.6142Z" fill="white"/>
<path d="M135.484 51.6122H141.935V45.1602H135.484V51.6122Z" fill="white"/>
<path d="M122.582 51.6122H129.033V45.1602H122.582V51.6122Z" fill="white"/>
<path d="M148.387 58.0638H154.839V51.6133H148.387V58.0638Z" fill="white"/>
<path d="M154.84 90.3232H161.29V83.8711H154.84V90.3232Z" fill="white"/>
<path d="M154.84 122.579H161.29V116.129H154.84V122.579Z" fill="white"/>
<path d="M154.84 116.129H161.29V109.678H154.84V116.129Z" fill="white"/>
<path d="M154.84 77.4189H161.29V70.9661H154.84V77.4189Z" fill="white"/>
<path d="M154.84 129.032H161.29V122.579H154.84V129.032Z" fill="white"/>
<path d="M154.84 109.678H161.29V103.227H154.84V109.678Z" fill="white"/>
<path d="M154.84 135.483H161.29V129.032H154.84V135.483Z" fill="#E7E2BF"/>
<path d="M109.68 51.6122H116.13V45.1602H109.68V51.6122Z" fill="#231F20"/>
<path d="M154.84 103.226H161.29V96.7734H154.84V103.226Z" fill="white"/>
<path d="M154.84 83.87H161.29V77.4189H154.84V83.87Z" fill="white"/>
<path d="M154.84 96.7734H161.29V90.3232H154.84V96.7734Z" fill="white"/>
<path d="M58.0664 70.9661H64.5169V64.5156H58.0664V70.9661Z" fill="#F89B5C"/>
<path d="M58.0664 90.3232H64.5169V83.8711H58.0664V90.3232Z" fill="#F89B5C"/>
<path d="M58.0664 96.7727H64.5169V90.3232H58.0664V96.7727Z" fill="#E07941"/>
<path d="M58.0664 103.226H64.5169V96.7727H58.0664V103.226Z" fill="#231F20"/>
<path d="M58.0664 83.87H64.5169V77.418H58.0664V83.87Z" fill="#F89B5C"/>
<path d="M58.0664 77.418H64.5169V70.9661H58.0664V77.418Z" fill="#F89B5C"/>
<path d="M58.0664 109.679H64.5169V103.227H58.0664V109.679Z" fill="#C6B593"/>
<path d="M58.0664 122.579H64.5169V116.129H58.0664V122.579Z" fill="#C6B593"/>
<path d="M58.0664 129.032H64.5169V122.579H58.0664V129.032Z" fill="#231F20"/>
<path d="M58.0664 116.129H64.5169V109.679H58.0664V116.129Z" fill="#C6B593"/>
<path d="M154.84 141.935H161.29V135.484H154.84V141.935Z" fill="#E7E2BF"/>
<path d="M90.3242 51.6122H96.7763V45.1602H90.3242V51.6122Z" fill="white"/>
<path d="M103.226 51.6142H109.679V45.1621H103.226V51.6142Z" fill="#F89B5C"/>
<path d="M83.8711 51.6122H90.3216V45.1602H83.8711V51.6122Z" fill="#231F20"/>
<path d="M58.0664 64.5146H64.5169V58.0625H58.0664V64.5146Z" fill="#F89B5C"/>
<path d="M96.7734 51.6122H103.226V45.1602H96.7734V51.6122Z" fill="#231F20"/>
<path d="M77.4219 51.6122H83.874V45.1602H77.4219V51.6122Z" fill="#E07941"/>
<path d="M58.0664 51.6122H64.5169V45.1602H58.0664V51.6122Z" fill="#231F20"/>
<path d="M58.0664 58.0638H64.5169V51.6133H58.0664V58.0638Z" fill="#231F20"/>
<path d="M70.9688 51.6122H77.4208V45.1602H70.9688V51.6122Z" fill="#F89B5C"/>
<path d="M64.5156 51.6122H70.9677V45.1602H64.5156V51.6122Z" fill="#F89B5C"/>
<path d="M64.5156 141.936H70.9677V135.484H64.5156V141.936Z" fill="#C6B593"/>
<path d="M64.5156 64.5146H70.9677V58.0625H64.5156V64.5146Z" fill="#FBCA8E"/>
<path d="M64.5156 58.0638H70.9677V51.6133H64.5156V58.0638Z" fill="#F89B5C"/>
<path d="M77.4219 58.0638H83.874V51.6133H77.4219V58.0638Z" fill="#F89B5C"/>
<path d="M70.9688 58.0638H77.4208V51.6133H70.9688V58.0638Z" fill="#F89B5C"/>
<path d="M64.5156 70.9661H70.9677V64.5156H64.5156V70.9661Z" fill="#F89B5C"/>
<path d="M64.5156 96.7727H70.9677V90.3223H64.5156V96.7727Z" fill="#231F20"/>
<path d="M83.8711 58.0638H90.3216V51.6133H83.8711V58.0638Z" fill="#231F20"/>
<path d="M64.5156 103.226H70.9677V96.7727H64.5156V103.226Z" fill="#E7E2BF"/>
<path d="M64.5156 83.87H70.9677V77.418H64.5156V83.87Z" fill="#F89B5C"/>
<path d="M64.5156 77.418H70.9677V70.9661H64.5156V77.418Z" fill="#F89B5C"/>
<path d="M64.5156 90.3223H70.9677V83.8711H64.5156V90.3223Z" fill="#E07941"/>
<path d="M122.582 58.0638H129.033V51.6133H122.582V58.0638Z" fill="white"/>
<path d="M154.84 148.386H161.29V141.934H154.84V148.386Z" fill="#C6B593"/>
<path d="M90.3242 58.0638H96.7763V51.6133H90.3242V58.0638Z" fill="white"/>
<path d="M141.938 58.0638H148.39V51.6133H141.938V58.0638Z" fill="white"/>
<path d="M129.035 58.0638H135.486V51.6133H129.035V58.0638Z" fill="white"/>
<path d="M116.129 58.0638L122.582 58.0638L122.581 51.6142H116.129L116.129 58.0638Z" fill="#231F20"/>
<path d="M96.7734 58.0638H103.226V51.6133H96.7734V58.0638Z" fill="#231F20"/>
<path d="M103.226 58.0638L109.679 58.0638V51.6142H103.226L103.226 58.0638Z" fill="#E07941"/>
<path d="M109.68 58.0638H116.13V51.6133H109.68V58.0638Z" fill="#E07941"/>
<path d="M135.484 58.0638H141.935V51.6133H135.484V58.0638Z" fill="white"/>
<path d="M116.129 148.386H122.581V141.934H116.129V148.386Z" fill="#C6B593"/>
<path d="M122.581 148.386H129.034V141.934H122.581V148.386Z" fill="#E7E2BF"/>
<path d="M90.3242 148.388H96.7763V141.938H90.3242V148.388Z" fill="#C6B593"/>
<path d="M96.7734 141.935V148.386H103.226V141.934L96.7734 141.935Z" fill="#C6B593"/>
<path d="M103.226 148.386H109.679V141.934H103.226V148.386Z" fill="#C6B593"/>
<path d="M64.5156 109.679H70.9677V103.227H64.5156V109.679Z" fill="#E7E2BF"/>
<path d="M148.387 148.386H154.839V141.934H148.387V148.386Z" fill="#C6B593"/>
<path d="M129.035 148.386H135.486V141.934H129.035V148.386Z" fill="#E7E2BF"/>
<path d="M141.938 148.386H148.39V141.934H141.938V148.386Z" fill="#C6B593"/>
<path d="M135.484 148.386H141.935V141.934H135.484V148.386Z" fill="#C6B593"/>
<path d="M109.68 148.386H116.13V141.934H109.68V148.386Z" fill="#C6B593"/>
<path d="M64.5156 122.579H70.9677V116.129H64.5156V122.579Z" fill="#E7E2BF"/>
<path d="M64.5156 129.032H70.9677V122.579H64.5156V129.032Z" fill="#C6B593"/>
<path d="M64.5156 116.129H70.9677V109.679H64.5156V116.129Z" fill="#E7E2BF"/>
<path d="M64.5156 135.483H70.9677V129.032H64.5156V135.483Z" fill="#C6B593"/>
<path d="M70.9688 148.388H77.4208V141.938H70.9688V148.388Z" fill="#C6B593"/>
<path d="M77.4219 148.388H83.874V141.938H77.4219V148.388Z" fill="#C6B593"/>
<path d="M58.0664 135.483H64.5169V129.032H58.0664V135.483Z" fill="#231F20"/>
<path d="M83.8711 148.388H90.3216V141.938H83.8711V148.388Z" fill="#C6B593"/>
<path d="M70.9688 141.936H77.4208V135.484H70.9688V141.936Z" fill="#C6B593"/>
<path d="M129.035 51.6122H135.486V45.1602H129.035V51.6122Z" fill="white"/>
<path d="M51.6133 70.9661H58.0654V64.5156H51.6133V70.9661Z" fill="#F89B5C"/>
<path d="M51.6133 45.1611H58.0654V38.709H51.6133V45.1611Z" fill="#F89B5C"/>
<path d="M51.6133 77.4189H58.0654V70.9661H51.6133V77.4189Z" fill="#F89B5C"/>
<path d="M51.6133 58.0638H58.0654V51.6133H51.6133V58.0638Z" fill="#F89B5C"/>
<path d="M51.6133 51.6122H58.0654V45.1611H51.6133V51.6122Z" fill="#F89B5C"/>
<path d="M51.6133 64.5146H58.0654V58.0625H51.6133V64.5146Z" fill="#F89B5C"/>
<path d="M51.6133 83.87H58.0654V77.4189H51.6133V83.87Z" fill="#F89B5C"/>
<path d="M51.6133 103.226H58.0638V96.7734H51.6133V103.226Z" fill="#E07941"/>
<path d="M51.6133 96.7734L58.0654 96.7727V90.3223H51.6133V96.7734Z" fill="#F89B5C"/>
<path d="M51.6133 90.3223H58.0654V83.8711H51.6133V90.3223Z" fill="#F89B5C"/>
<path d="M109.68 45.1602H116.13V38.709H109.68V45.1602Z" fill="white"/>
<path d="M90.3242 45.1602H96.7763V38.709H90.3242V45.1602Z" fill="#E7E2BF"/>
<path d="M103.227 45.1611H109.679V38.709H103.227V45.1611Z" fill="#231F20"/>
<path d="M96.7734 45.1602H103.226V38.709H96.7734V45.1602Z" fill="white"/>
<path d="M51.6133 109.679H58.0654V103.227H51.6133V109.679Z" fill="#231F20"/>
<path d="M77.4219 45.1602H83.874V38.709H77.4219V45.1602Z" fill="#E07941"/>
<path d="M70.9688 45.1602H77.4208V38.709H70.9688V45.1602Z" fill="#F89B5C"/>
<path d="M116.133 45.1611H122.585V38.709H116.133V45.1611Z" fill="white"/>
<path d="M83.8711 45.1602H90.3216V38.709H83.8711V45.1602Z" fill="#231F20"/>
<path d="M58.0664 45.1602H64.5169V38.709H58.0664V45.1602Z" fill="#F89B5C"/>
<path d="M64.5156 45.1602H70.9677V38.709H64.5156V45.1602Z" fill="#F89B5C"/>
<path d="M96.7734 154.84V161.292H103.226V154.84H96.7734Z" fill="#231F20"/>
<path d="M90.3242 161.292H96.7763V154.84H90.3242V161.292Z" fill="#231F20"/>
<path d="M83.8711 161.292H90.3216V154.84H83.8711V161.292Z" fill="#BF5629"/>
<path d="M103.227 161.292H109.679V154.84H103.227V161.292Z" fill="#231F20"/>
<path d="M77.4219 161.292H83.874V154.84H77.4219V161.292Z" fill="#231F20"/>
<path d="M109.68 161.292H116.13V154.84H109.68V161.292Z" fill="#E07941"/>
<path d="M122.582 161.292H129.034V154.84H122.582V161.292Z" fill="#231F20"/>
<path d="M129.035 161.292H135.486V154.84H129.035V161.292Z" fill="#231F20"/>
<path d="M116.129 161.292H122.581V154.84H116.129V161.292Z" fill="#231F20"/>
<path d="M51.6133 122.579H58.0654V116.129H51.6133V122.579Z" fill="#231F20"/>
<path d="M51.6133 116.129H58.0654V109.679H51.6133V116.129Z" fill="#231F20"/>
<path d="M148.387 154.839H154.839V148.387H148.387V154.839Z" fill="#231F20"/>
<path d="M109.68 154.839H116.13V148.387H109.68V154.839Z" fill="#231F20"/>
<path d="M129.035 154.839H135.486V148.387H129.035V154.839Z" fill="#C6B593"/>
<path d="M141.938 154.839H148.39V148.387H141.938V154.839Z" fill="#231F20"/>
<path d="M116.129 154.839H122.581L122.581 148.386H116.129L116.129 154.839Z" fill="#C6B593"/>
<path d="M122.581 154.839L129.034 154.839V148.387H122.582L122.581 154.839Z" fill="#C6B593"/>
<path d="M135.484 154.839H141.935V148.387H135.484V154.839Z" fill="#231F20"/>
<path d="M161.289 154.839H167.741V148.387H161.289V154.839Z" fill="#C6B593"/>
<path d="M161.289 148.386H167.741V141.934H161.289V148.386Z" fill="#C6B593"/>
<path d="M154.84 154.839H161.29V148.387H154.84V154.839Z" fill="#231F20"/>
<path d="M58.0664 141.936H64.5169V135.484H58.0664V141.936Z" fill="#231F20"/>
<path d="M161.289 141.935H167.741V135.484H161.289V141.935Z" fill="#E7E2BF"/>
<path d="M70.9688 154.839H77.4208V148.387H70.9688V154.839Z" fill="#231F20"/>
<path d="M64.5156 148.388H70.9677V141.938H64.5156V148.388Z" fill="#231F20"/>
<path d="M103.226 154.839H109.679V148.386L103.226 148.387V154.839Z" fill="#C6B593"/>
<path d="M77.4219 154.839H83.874V148.387H77.4219V154.839Z" fill="#C6B593"/>
<path d="M96.7734 148.387V154.839L103.226 154.839V148.387L96.7734 148.387Z" fill="#C6B593"/>
<path d="M90.3242 154.839H96.7763V148.387H90.3242V154.839Z" fill="#C6B593"/>
<path d="M83.8711 154.839H90.3216V148.387H83.8711V154.839Z" fill="#231F20"/>
<path d="M122.582 45.1602L129.034 45.1611V38.709H122.582V45.1602Z" fill="white"/>
<path d="M161.289 51.6122H167.741V45.1602H161.289V51.6122Z" fill="white"/>
<path d="M154.84 45.1602H161.29V38.709H154.84V45.1602Z" fill="#E7E2BF"/>
<path d="M161.289 45.1602H167.741V38.709H161.289V45.1602Z" fill="white"/>
<path d="M161.289 64.5146H167.741V58.0625H161.289V64.5146Z" fill="white"/>
<path d="M161.289 135.483H167.741V129.031H161.289V135.483Z" fill="#E7E2BF"/>
<path d="M129.035 45.1602H135.486V38.709H129.035V45.1602Z" fill="#E7E2BF"/>
<path d="M161.289 70.9661H167.741V64.5156H161.289V70.9661Z" fill="white"/>
<path d="M135.484 45.1602H141.935V38.709H135.484V45.1602Z" fill="white"/>
<path d="M141.938 45.1602H148.39V38.709H141.938V45.1602Z" fill="white"/>
<path d="M148.387 45.1602H154.839V38.709H148.387V45.1602Z" fill="white"/>
<path d="M161.289 58.0638H167.741V51.6133H161.289V58.0638Z" fill="white"/>
<path d="M161.289 122.579H167.741V116.129H161.289V122.579Z" fill="white"/>
<path d="M161.289 116.129H167.741V109.678H161.289V116.129Z" fill="white"/>
<path d="M161.289 129.031H167.741V122.579H161.289V129.031Z" fill="white"/>
<path d="M161.289 77.4189H167.741V70.9661H161.289V77.4189Z" fill="white"/>
<path d="M161.289 109.678H167.741V103.227H161.289V109.678Z" fill="white"/>
<path d="M161.289 83.87H167.741V77.4189H161.289V83.87Z" fill="white"/>
<path d="M161.289 103.226H167.741V96.7734H161.289V103.226Z" fill="white"/>
<path d="M161.289 90.3232H167.741V83.8711H161.289V90.3232Z" fill="white"/>
<path d="M161.289 96.7734H167.741V90.3232H161.289V96.7734Z" fill="white"/>
<path d="M116.129 109.679H122.581V103.227H116.129V109.679Z" fill="white"/>
<path d="M83.8711 77.4189H90.3216V70.9668H83.8711V77.4189Z" fill="#231F20"/>
<path d="M83.8711 83.87H90.3216V77.4189H83.8711V83.87Z" fill="white"/>
<path d="M83.8711 122.579H90.3216V116.129H83.8711V122.579Z" fill="white"/>
<path d="M90.3242 77.4189H96.7763V70.9668H90.3242V77.4189Z" fill="white"/>
<path d="M96.7734 77.4189H103.226V70.9668H96.7734V77.4189Z" fill="white"/>
<path d="M83.8711 90.3232H90.3216V83.8711H83.8711V90.3232Z" fill="white"/>
<path d="M83.8711 96.7727H90.3216V90.3232H83.8711V96.7727Z" fill="white"/>
<path d="M83.8711 109.679H90.3216V103.227H83.8711V109.679Z" fill="#E7E2BF"/>
<path d="M83.8711 116.129H90.3216V109.679H83.8711V116.129Z" fill="white"/>
<path d="M83.8711 103.226H90.3216V96.7727H83.8711V103.226Z" fill="white"/>
<path d="M103.227 77.4189H109.679V70.9668H103.227V77.4189Z" fill="white"/>
<path d="M129.035 96.7727H135.486V90.3223H129.035V96.7727Z" fill="white"/>
<path d="M109.68 77.4189H116.13V70.9668H109.68V77.4189Z" fill="white"/>
<path d="M129.035 103.226H135.486V96.7727H129.035V103.226Z" fill="white"/>
<path d="M129.035 116.13H135.486V109.678H129.035V116.13Z" fill="white"/>
<path d="M129.035 109.678H135.486V103.227H129.035V109.678Z" fill="white"/>
<path d="M129.035 90.3223H135.486V83.8711H129.035V90.3223Z" fill="white"/>
<path d="M116.129 77.4189H122.581V70.9668H116.129V77.4189Z" fill="white"/>
<path d="M122.582 77.4189H129.033V70.9668H122.582V77.4189Z" fill="white"/>
<path d="M129.035 77.4189H135.486V70.9668H129.035V77.4189Z" fill="white"/>
<path d="M129.035 83.87H135.486V77.4189H129.035V83.87Z" fill="white"/>
<path d="M135.484 109.679H141.935V103.227H135.484V109.679Z" fill="white"/>
<path d="M135.484 96.7727H141.935V90.3223H135.484V96.7727Z" fill="white"/>
<path d="M135.484 90.3223H141.935V83.8711H135.484V90.3223Z" fill="white"/>
<path d="M135.484 103.226H141.935V96.7727H135.484V103.226Z" fill="white"/>
<path d="M135.484 83.87H141.935V77.418H135.484V83.87Z" fill="white"/>
<path d="M129.035 122.579H135.486V116.13H129.035V122.579Z" fill="#E7E2BF"/>
<path d="M90.3242 122.579H96.7763V116.129H90.3242V122.579Z" fill="white"/>
<path d="M148.387 64.5146H154.839V58.0625H148.387V64.5146Z" fill="white"/>
<path d="M135.484 77.418H141.935V70.9668H135.484V77.418Z" fill="white"/>
<path d="M129.035 70.9668H135.486V64.5156H129.035V70.9668Z" fill="white"/>
<path d="M135.484 70.9668H141.935V64.5156H135.484V70.9668Z" fill="white"/>
<path d="M122.582 70.9668H129.033V64.5156H122.582V70.9668Z" fill="white"/>
<path d="M103.227 129.032H109.679V122.58H103.227V129.032Z" fill="white"/>
<path d="M96.7734 122.58V129.032H103.226V122.58H96.7734Z" fill="white"/>
<path d="M90.3242 129.032H96.7763V122.579H90.3242V129.032Z" fill="white"/>
<path d="M225.809 96.7734H232.261V90.3223H225.809V96.7734Z" fill="#231F20"/>
<path d="M135.484 122.579H141.935V116.129H135.484V122.579Z" fill="white"/>
<path d="M129.035 129.032H135.486V122.579H129.035V129.032Z" fill="white"/>
<path d="M135.484 129.032H141.935V122.579H135.484V129.032Z" fill="white"/>
<path d="M122.582 129.032H129.034V122.58H122.582V129.032Z" fill="white"/>
<path d="M116.129 129.032H122.581V122.58H116.129V129.032Z" fill="white"/>
<path d="M122.582 122.58H129.034V116.129H122.582V122.58Z" fill="#E7E2BF"/>
<path d="M96.7734 103.226H103.226V96.7734H96.7734V103.226Z" fill="white"/>
<path d="M96.7734 96.7734H103.226V90.3223H96.7734V96.7734Z" fill="#E7E2BF"/>
<path d="M116.129 70.9668H122.581V64.5156H116.129V70.9668Z" fill="white"/>
<path d="M96.7734 90.3223H103.226V83.8711H96.7734V90.3223Z" fill="white"/>
<path d="M96.7734 109.679H103.226V103.227H96.7734V109.679Z" fill="white"/>
<path d="M109.68 90.3232H116.13V83.8711H109.68V90.3232Z" fill="white"/>
<path d="M116.129 116.13H122.581V109.679H116.129V116.13Z" fill="white"/>
<path d="M122.582 116.129H129.034V109.678H122.582V116.129Z" fill="white"/>
<path d="M109.68 116.13H116.13V109.678H109.68V116.13Z" fill="#E7E2BF"/>
<path d="M103.227 116.13H109.679V109.678H103.227V116.13Z" fill="white"/>
<path d="M103.227 109.678H109.679V103.227H103.227V109.678Z" fill="white"/>
<path d="M109.68 103.226H116.13V96.7734H109.68V103.226Z" fill="white"/>
<path d="M103.226 103.226L109.679 103.225V96.7732L103.226 96.7734V103.226Z" fill="white"/>
<path d="M103.227 96.7727L109.679 96.7732L109.679 90.3223H103.227V96.7727Z" fill="white"/>
<path d="M109.68 96.7734H116.13V90.3232H109.68V96.7734Z" fill="white"/>
<path d="M116.129 90.3232H122.581V83.8711H116.129V90.3232Z" fill="white"/>
<path d="M116.129 103.225H122.581V96.7732H116.129V103.225Z" fill="white"/>
<path d="M109.68 109.678H116.13V103.227H109.68V109.678Z" fill="white"/>
<path d="M116.129 96.7732H122.581L122.581 90.3232H116.129L116.129 96.7732Z" fill="white"/>
<path d="M103.227 90.3223H109.679V83.8711H103.227V90.3223Z" fill="white"/>
<path d="M90.3242 109.679H96.7763V103.227H90.3242V109.679Z" fill="white"/>
<path d="M96.7734 116.13H103.226V109.679H96.7734V116.13Z" fill="white"/>
<path d="M90.3242 116.129H96.7763V109.679H90.3242V116.129Z" fill="white"/>
<path d="M90.3242 103.226H96.7763V96.7734H90.3242V103.226Z" fill="#E7E2BF"/>
<path d="M90.3242 96.7734H96.7763V90.3223H90.3242V96.7734Z" fill="white"/>
<path d="M96.7734 122.58H103.226V116.13H96.7734V122.58Z" fill="white"/>
<path d="M109.68 122.58H116.13V116.13H109.68V122.58Z" fill="white"/>
<path d="M116.129 122.58H122.581V116.13H116.129V122.58Z" fill="#E7E2BF"/>
<path d="M90.3242 90.3223H96.7763V83.8711H90.3242V90.3223Z" fill="white"/>
<path d="M103.227 122.58H109.679V116.13H103.227V122.58Z" fill="white"/>
<path d="M109.68 83.87H116.13V77.4189H109.68V83.87Z" fill="white"/>
<path d="M122.582 83.87H129.033V77.4189H122.582V83.87Z" fill="white"/>
<path d="M122.582 96.7727H129.034V90.3223H122.582V96.7727Z" fill="white"/>
<path d="M122.582 90.3223H129.034V83.8711H122.582V90.3223Z" fill="white"/>
<path d="M122.581 103.225L129.034 103.226V96.7727H122.582L122.581 103.225Z" fill="white"/>
<path d="M103.227 83.87H109.679V77.4189H103.227V83.87Z" fill="white"/>
<path d="M96.7734 83.87H103.226V77.4189H96.7734V83.87Z" fill="white"/>
<path d="M90.3242 83.87H96.7763V77.4189H90.3242V83.87Z" fill="white"/>
<path d="M116.129 83.87H122.581V77.4189H116.129V83.87Z" fill="white"/>
<path d="M122.582 109.678H129.034V103.227H122.582V109.678Z" fill="white"/>
<path d="M135.484 116.129H141.935V109.679H135.484V116.129Z" fill="#E7E2BF"/>
<path d="M70.9688 122.579H77.4208V116.129H70.9688V122.579Z" fill="#E7E2BF"/>
<path d="M70.9688 116.129H77.4208V109.678H70.9688V116.129Z" fill="#E7E2BF"/>
<path d="M70.9688 129.032H77.4208V122.579H70.9688V129.032Z" fill="#E7E2BF"/>
<path d="M70.9688 109.678H77.4208V103.227H70.9688V109.678Z" fill="#E7E2BF"/>
<path d="M70.9688 103.226H77.4208V96.7734H70.9688V103.226Z" fill="#E7E2BF"/>
<path d="M77.4219 141.936H83.874V135.484H77.4219V141.936Z" fill="#E7E2BF"/>
<path d="M70.9688 135.483H77.4208V129.032H70.9688V135.483Z" fill="#E7E2BF"/>
<path d="M70.9688 96.7734H77.4208V90.3223H70.9688V96.7734Z" fill="white"/>
<path d="M83.8711 141.936H90.3216V135.484H83.8711V141.936Z" fill="#E7E2BF"/>
<path d="M77.4219 135.483H83.874V129.031H77.4219V135.483Z" fill="#E7E2BF"/>
<path d="M83.8711 64.5146H90.3216V58.0625H83.8711V64.5146Z" fill="#231F20"/>
<path d="M90.3242 141.936H96.7763V135.484H90.3242V141.936Z" fill="#E7E2BF"/>
<path d="M90.3242 64.5146H96.7763V58.0625H90.3242V64.5146Z" fill="white"/>
<path d="M96.7734 64.5146H103.226V58.0625H96.7734V64.5146Z" fill="#E7E2BF"/>
<path d="M77.4219 64.5146H83.874V58.0625H77.4219V64.5146Z" fill="#F89B5C"/>
<path d="M70.9688 70.9661H77.4208V64.5156H70.9688V70.9661Z" fill="#FBCA8E"/>
<path d="M70.9688 64.5146H77.4208V58.0625H70.9688V64.5146Z" fill="#F89B5C"/>
<path d="M70.9688 77.4189H77.4208V70.9661H70.9688V77.4189Z" fill="#F89B5C"/>
<path d="M70.9688 83.87H77.4208V77.4189H70.9688V83.87Z" fill="#E07941"/>
<path d="M70.9688 90.3223H77.4208V83.8711H70.9688V90.3223Z" fill="#231F20"/>
<path d="M96.7734 135.484V141.936L103.226 141.935V135.484H96.7734Z" fill="#E7E2BF"/>
<path d="M148.387 103.226H154.839V96.7734H148.387V103.226Z" fill="white"/>
<path d="M148.387 96.7734H154.839V90.3223H148.387V96.7734Z" fill="white"/>
<path d="M148.387 109.679H154.839V103.227H148.387V109.679Z" fill="white"/>
<path d="M148.387 116.13H154.839V109.679H148.387V116.13Z" fill="white"/>
<path d="M103.227 64.5146H109.679V58.0625H103.227V64.5146Z" fill="#231F20"/>
<path d="M148.387 83.87H154.839V77.418H148.387V83.87Z" fill="white"/>
<path d="M148.387 90.3223H154.839V83.8711H148.387V90.3223Z" fill="white"/>
<path d="M148.387 77.418H154.839V70.9668H148.387V77.418Z" fill="white"/>
<path d="M148.387 70.9668H154.839V64.5156H148.387V70.9668Z" fill="white"/>
<path d="M148.387 129.032H154.839V122.58H148.387V129.032Z" fill="white"/>
<path d="M148.387 122.58H154.839V116.13H148.387V122.58Z" fill="white"/>
<path d="M116.129 141.935H122.581V135.484H116.129V141.935Z" fill="#E7E2BF"/>
<path d="M109.68 141.935H116.13V135.484H109.68V141.935Z" fill="#E7E2BF"/>
<path d="M122.582 141.935H129.034V135.484H122.582V141.935Z" fill="#E7E2BF"/>
<path d="M148.387 135.483H154.839V129.032H148.387V135.483Z" fill="#E7E2BF"/>
<path d="M103.227 141.935H109.679V135.484H103.227V141.935Z" fill="#E7E2BF"/>
<path d="M141.938 141.935H148.39V135.484H141.938V141.935Z" fill="#E7E2BF"/>
<path d="M148.387 141.935H154.839V135.484H148.387V141.935Z" fill="#E7E2BF"/>
<path d="M129.035 141.935H135.486V135.484H129.035V141.935Z" fill="#E7E2BF"/>
<path d="M135.484 141.935H141.935V135.484H135.484V141.935Z" fill="#E7E2BF"/>
<path d="M77.4219 122.579H83.874V116.129H77.4219V122.579Z" fill="white"/>
<path d="M83.8711 129.032H90.3216V122.579H83.8711V129.032Z" fill="white"/>
<path d="M109.68 64.5146H116.13V58.0625H109.68V64.5146Z" fill="#231F20"/>
<path d="M109.68 70.9668H116.13V64.5156H109.68V70.9668Z" fill="#E7E2BF"/>
<path d="M77.4219 116.129H83.874V109.678H77.4219V116.129Z" fill="white"/>
<path d="M77.4219 109.678H83.874V103.227H77.4219V109.678Z" fill="#E7E2BF"/>
<path d="M90.3242 135.483H96.7763V129.032H90.3242V135.483Z" fill="#E7E2BF"/>
<path d="M96.7734 129.032V135.483H103.226V129.032H96.7734Z" fill="white"/>
<path d="M103.226 135.483H109.679L109.679 129.032H103.227L103.226 135.483Z" fill="white"/>
<path d="M83.8711 135.483H90.3216V129.032H83.8711V135.483Z" fill="#E7E2BF"/>
<path d="M77.4219 103.226H83.874V96.7734H77.4219V103.226Z" fill="white"/>
<path d="M77.4219 90.3232H83.874V83.8711H77.4219V90.3232Z" fill="white"/>
<path d="M77.4219 96.7734H83.874V90.3232H77.4219V96.7734Z" fill="white"/>
<path d="M90.3242 70.9668H96.7763V64.5156H90.3242V70.9668Z" fill="white"/>
<path d="M96.7734 70.9668H103.226V64.5156H96.7734V70.9668Z" fill="#E7E2BF"/>
<path d="M103.227 70.9668H109.679V64.5156H103.227V70.9668Z" fill="#E7E2BF"/>
<path d="M83.8711 70.9668H90.3216V64.5156H83.8711V70.9668Z" fill="#231F20"/>
<path d="M77.4219 83.87H83.874V77.418H77.4219V83.87Z" fill="#231F20"/>
<path d="M109.68 135.483H116.13V129.032H109.68V135.483Z" fill="white"/>
<path d="M77.4219 70.9661H83.874V64.5156H77.4219V70.9661Z" fill="#F89B5C"/>
<path d="M77.4219 77.418H83.874V70.9661H77.4219V77.418Z" fill="#E07941"/>
<path d="M77.4219 129.031H83.874V122.579H77.4219V129.031Z" fill="white"/>
<path d="M141.938 77.4189H148.39V70.9668H141.938V77.4189Z" fill="white"/>
<path d="M141.938 70.9668H148.39V64.5156H141.938V70.9668Z" fill="white"/>
<path d="M141.938 90.3232H148.39V83.8711H141.938V90.3232Z" fill="white"/>
<path d="M141.938 83.87H148.39V77.4189H141.938V83.87Z" fill="white"/>
<path d="M141.938 64.5146H148.39V58.0625H141.938V64.5146Z" fill="white"/>
<path d="M116.129 135.483H122.581L122.581 129.032H116.129L116.129 135.483Z" fill="white"/>
<path d="M116.129 64.5146H122.581V58.0625H116.129V64.5146Z" fill="#E7E2BF"/>
<path d="M122.582 64.5146H129.033V58.0625H122.582V64.5146Z" fill="white"/>
<path d="M135.484 64.5146H141.935V58.0625H135.484V64.5146Z" fill="white"/>
<path d="M129.035 64.5146H135.486V58.0625H129.035V64.5146Z" fill="white"/>
<path d="M141.938 96.7727H148.39V90.3232H141.938V96.7727Z" fill="white"/>
<path d="M135.484 135.483H141.935V129.032H135.484V135.483Z" fill="#E7E2BF"/>
<path d="M129.035 135.483H135.486V129.032H129.035V135.483Z" fill="#E7E2BF"/>
<path d="M141.938 135.483H148.39V129.031H141.938V135.483Z" fill="#E7E2BF"/>
<path d="M141.938 103.226H148.39V96.7727H141.938V103.226Z" fill="white"/>
<path d="M122.581 135.483H129.034V129.032H122.582L122.581 135.483Z" fill="white"/>
<path d="M141.938 116.13H148.39V109.678H141.938V116.13Z" fill="white"/>
<path d="M141.938 129.031H148.39V122.58H141.938V129.031Z" fill="white"/>
<path d="M141.938 109.678H148.39V103.227H141.938V109.678Z" fill="white"/>
<path d="M141.938 122.58H148.39V116.13H141.938V122.58Z" fill="white"/>
<path d="M32.2578 109.679H38.7083V103.227H32.2578V109.679Z" fill="#231F20"/>
<path d="M32.2578 96.7727H38.7083V90.3223H32.2578V96.7727Z" fill="#704A32"/>
<path d="M32.2578 90.3223H38.7083V83.8711H32.2578V90.3223Z" fill="#704A32"/>
<path d="M32.2578 83.87H38.7083V77.418H32.2578V83.87Z" fill="#F89B5C"/>
<path d="M32.2578 77.418L38.7099 77.4189V70.9668H32.2578V77.418Z" fill="#F89B5C"/>
<path d="M32.2578 103.226H38.7083V96.7727H32.2578V103.226Z" fill="#E07941"/>
<path d="M32.2578 25.8075H38.7083V19.3555H32.2578V25.8075Z" fill="white"/>
<path d="M32.2578 32.2571H38.7083V25.8075H32.2578V32.2571Z" fill="#E7E2BF"/>
<path d="M38.707 25.8075H45.1591V19.3555H38.707V25.8075Z" fill="#E7E2BF"/>
<path d="M45.1602 25.8075H51.6122V19.3555H45.1602V25.8075Z" fill="#E7E2BF"/>
<path d="M32.2578 70.9668H38.7099V64.5156H32.2578V70.9668Z" fill="#F89B5C"/>
<path d="M32.2578 64.5146H38.7099V58.0625H32.2578V64.5146Z" fill="#F89B5C"/>
<path d="M32.2578 58.0638H38.7099V51.6133H32.2578V58.0638Z" fill="#F89B5C"/>
<path d="M32.2578 45.1611H38.7083V38.709H32.2578V45.1611Z" fill="#E07941"/>
<path d="M32.2578 51.6122H38.7083V45.1611H32.2578V51.6122Z" fill="#F89B5C"/>
<path d="M83.8711 180.645H90.3216V174.193H83.8711V180.645Z" fill="#E07941"/>
<path d="M77.4219 180.645H83.874V174.193H77.4219V180.645Z" fill="#231F20"/>
<path d="M116.129 180.645H122.581L122.581 174.193H116.129L116.129 180.645Z" fill="#231F20"/>
<path d="M103.226 180.645H109.679V174.193H103.226V180.645Z" fill="#231F20"/>
<path d="M109.68 180.645H116.13V174.193H109.68V180.645Z" fill="#F89B5C"/>
<path d="M90.3242 180.645H96.7763V174.193H90.3242V180.645Z" fill="#231F20"/>
<path d="M51.6133 25.8075H58.0638V19.3555H51.6133V25.8075Z" fill="#E7E2BF"/>
<path d="M32.2578 38.709H38.7083V32.2571H32.2578V38.709Z" fill="#231F20"/>
<path d="M180.648 70.9661H187.099V64.5156H180.648V70.9661Z" fill="white"/>
<path d="M180.648 77.4189H187.099V70.9661H180.648V77.4189Z" fill="white"/>
<path d="M180.648 83.87H187.099V77.4189H180.648V83.87Z" fill="white"/>
<path d="M180.648 103.226H187.099V96.7734H180.648V103.226Z" fill="white"/>
<path d="M180.648 90.3232H187.099V83.8711H180.648V90.3232Z" fill="white"/>
<path d="M180.648 96.7734H187.099V90.3232H180.648V96.7734Z" fill="white"/>
<path d="M180.648 51.6122H187.099V45.1602H180.648V51.6122Z" fill="#E7E2BF"/>
<path d="M180.648 45.1602H187.099V38.709H180.648V45.1602Z" fill="white"/>
<path d="M180.648 38.709H187.099V32.2578H180.648V38.709Z" fill="white"/>
<path d="M180.648 64.5146H187.099V58.0625H180.648V64.5146Z" fill="white"/>
<path d="M180.648 58.0638H187.099V51.6133H180.648V58.0638Z" fill="white"/>
<path d="M180.648 154.839H187.099V148.387H180.648V154.839Z" fill="#231F20"/>
<path d="M180.648 148.386H187.099V141.934H180.648V148.386Z" fill="#E7E2BF"/>
<path d="M180.648 141.935H187.099V135.484H180.648V141.935Z" fill="#E7E2BF"/>
<path d="M180.648 161.292H187.099V154.84H180.648V161.292Z" fill="#231F20"/>
<path d="M180.648 116.13H187.099V109.678H180.648V116.13Z" fill="white"/>
<path d="M180.648 122.579H187.099V116.13H180.648V122.579Z" fill="#E7E2BF"/>
<path d="M180.648 135.483H187.099V129.031H180.648V135.483Z" fill="white"/>
<path d="M180.648 109.678H187.099V103.227H180.648V109.678Z" fill="white"/>
<path d="M135.484 25.8075H141.935V19.3555H135.484V25.8075Z" fill="#231F20"/>
<path d="M90.3242 25.8075H96.7763V19.3555H90.3242V25.8075Z" fill="white"/>
<path d="M122.582 25.8075H129.034V19.3555H122.582V25.8075Z" fill="#231F20"/>
<path d="M96.7734 25.8075H103.226V19.3555H96.7734V25.8075Z" fill="white"/>
<path d="M103.226 25.8075H109.679V19.3555H103.226V25.8075Z" fill="#231F20"/>
<path d="M70.9688 25.8075H77.4208V19.3555H70.9688V25.8075Z" fill="#E7E2BF"/>
<path d="M180.648 32.2578H187.099V25.8066H180.648V32.2578Z" fill="white"/>
<path d="M83.8711 25.8075H90.3216V19.3555H83.8711V25.8075Z" fill="white"/>
<path d="M77.4219 25.8075H83.874V19.3555H77.4219V25.8075Z" fill="white"/>
<path d="M64.5156 25.8075H70.9677V19.3555H64.5156V25.8075Z" fill="#E7E2BF"/>
<path d="M129.035 25.8075H135.486V19.3555H129.035V25.8075Z" fill="#231F20"/>
<path d="M174.195 25.8075H180.647V19.3555H174.195V25.8075Z" fill="#231F20"/>
<path d="M180.648 25.8066H187.099V19.3555H180.648V25.8066Z" fill="#231F20"/>
<path d="M161.289 25.8075H167.741V19.3555H161.289V25.8075Z" fill="#231F20"/>
<path d="M167.742 25.8075H174.194V19.3555H167.742V25.8075Z" fill="#231F20"/>
<path d="M58.0664 25.8075H64.5185V19.3555H58.0664V25.8075Z" fill="#E7E2BF"/>
<path d="M141.938 25.8075H148.39V19.3555H141.938V25.8075Z" fill="#231F20"/>
<path d="M45.1602 19.3544H51.6122V12.9023H45.1602V19.3544Z" fill="white"/>
<path d="M38.707 19.3544H45.1591V12.9023H38.707V19.3544Z" fill="white"/>
<path d="M58.0664 19.3544H64.5169V12.9023H58.0664V19.3544Z" fill="white"/>
<path d="M32.2578 19.3544H38.7083V12.9023H32.2578V19.3544Z" fill="white"/>
<path d="M51.6133 19.3544H58.0654V12.9023H51.6133V19.3544Z" fill="white"/>
<path d="M25.8047 38.7099H32.2568V32.2578H25.8047V38.7099Z" fill="#E7E2BF"/>
<path d="M25.8047 32.2578H32.2568V25.8066H25.8047V32.2578Z" fill="white"/>
<path d="M25.8047 19.3544H32.2568V12.9023H25.8047V19.3544Z" fill="#231F20"/>
<path d="M25.8047 25.8066H32.2568V19.3555H25.8047V25.8066Z" fill="white"/>
<path d="M25.8047 45.1611H32.2568V38.7099H25.8047V45.1611Z" fill="#231F20"/>
<path d="M96.7773 19.3544H103.228V12.9023H96.7773V19.3544Z" fill="#231F20"/>
<path d="M70.9688 19.3544H77.4208V12.9023H70.9688V19.3544Z" fill="white"/>
<path d="M77.4219 19.3544H83.874V12.9023H77.4219V19.3544Z" fill="white"/>
<path d="M83.8711 19.3544H90.3232V12.9023H83.8711V19.3544Z" fill="white"/>
<path d="M90.3242 19.3544H96.7763V12.9023H90.3242V19.3544Z" fill="white"/>
<path d="M180.648 167.741H187.099V161.292H180.648V167.741Z" fill="#231F20"/>
<path d="M25.8047 51.6122H32.2568V45.1611H25.8047V51.6122Z" fill="#E07941"/>
<path d="M25.8047 77.4189H32.2568V70.9668H25.8047V77.4189Z" fill="#F89B5C"/>
<path d="M25.8047 70.9668H32.2568V64.5156H25.8047V70.9668Z" fill="#F89B5C"/>
<path d="M25.8047 64.5146H32.2568V58.0625H25.8047V64.5146Z" fill="#FBCA8E"/>
<path d="M25.8047 58.0638H32.2568V51.6133H25.8047V58.0638Z" fill="#F89B5C"/>
<path d="M25.8047 83.87H32.2568V77.4189H25.8047V83.87Z" fill="#F89B5C"/>
<path d="M25.8047 96.7727H32.2568V90.3223H25.8047V96.7727Z" fill="#704A32"/>
<path d="M25.8047 109.679H32.2568V103.227H25.8047V109.679Z" fill="#231F20"/>
<path d="M25.8047 103.226H32.2568V96.7727H25.8047V103.226Z" fill="#E07941"/>
<path d="M25.8047 90.3223H32.2568V83.8711H25.8047V90.3223Z" fill="#704A32"/>
<path d="M64.5156 19.3544H70.9677V12.9023H64.5156V19.3544Z" fill="white"/>
<path d="M187.098 141.935H193.55V135.484H187.098V141.935Z" fill="#E7E2BF"/>
<path d="M187.098 135.483H193.551L193.55 129.031H187.098V135.483Z" fill="#E7E2BF"/>
<path d="M187.098 148.386H193.551V141.934H187.098V148.386Z" fill="#C6B593"/>
<path d="M187.098 154.839L193.551 154.839V148.387L187.098 148.386V154.839Z" fill="#231F20"/>
<path d="M187.098 103.225L193.551 103.226V96.7727L187.098 96.7732V103.225Z" fill="white"/>
<path d="M187.098 116.13H193.55V109.678H187.098V116.13Z" fill="white"/>
<path d="M187.098 129.031H193.55L193.55 122.58H187.098L187.098 129.031Z" fill="white"/>
<path d="M187.098 122.58H193.55V116.13H187.098V122.58Z" fill="#E7E2BF"/>
<path d="M187.098 109.678H193.55V103.227H187.098V109.678Z" fill="white"/>
<path d="M180.648 180.645H187.099V174.193H180.648V180.645Z" fill="#231F20"/>
<path d="M174.195 180.645H180.647V174.193H174.195V180.645Z" fill="#E07941"/>
<path d="M167.742 180.645H174.194V174.193H167.742V180.645Z" fill="#231F20"/>
<path d="M187.098 32.2572H193.55L193.551 25.8066L187.098 25.8068V32.2572Z" fill="#231F20"/>
<path d="M187.098 96.7732L193.55 96.7727V90.3223H187.098L187.098 96.7732Z" fill="white"/>
<path d="M187.098 38.7099H193.55L193.55 32.2572H187.098L187.098 38.7099Z" fill="white"/>
<path d="M187.098 83.87H193.55V77.418H187.098V83.87Z" fill="white"/>
<path d="M187.098 70.9661H193.55V64.5156H187.098V70.9661Z" fill="white"/>
<path d="M187.098 90.3223H193.55V83.8711H187.098V90.3223Z" fill="white"/>
<path d="M187.098 77.418H193.55V70.9661H187.098V77.418Z" fill="white"/>
<path d="M187.098 45.1611H193.55V38.7099H187.098V45.1611Z" fill="white"/>
<path d="M187.098 51.6142H193.55V45.1621H187.098V51.6142Z" fill="#E7E2BF"/>
<path d="M187.098 58.0638L193.551 58.0638L193.55 51.6142H187.098V58.0638Z" fill="white"/>
<path d="M187.098 64.5146H193.55V58.0625H187.098V64.5146Z" fill="white"/>
<path d="M180.648 129.031H187.099V122.579H180.648V129.031Z" fill="white"/>
<path d="M45.1602 109.679H51.6122V103.227H45.1602V109.679Z" fill="#231F20"/>
<path d="M45.1602 64.5146H51.6122V58.0625H45.1602V64.5146Z" fill="#F89B5C"/>
<path d="M45.1602 58.0638H51.6122V51.6133H45.1602V58.0638Z" fill="#231F20"/>
<path d="M45.1602 70.9661H51.6122V64.5156H45.1602V70.9661Z" fill="#F89B5C"/>
<path d="M45.1602 45.1611H51.6122V38.709H45.1602V45.1611Z" fill="#F89B5C"/>
<path d="M45.1602 51.6122H51.6122V45.1611H45.1602V51.6122Z" fill="#231F20"/>
<path d="M45.1602 96.7727H51.6122V90.3223H45.1602V96.7727Z" fill="#F89B5C"/>
<path d="M45.1602 90.3223H51.6122V83.8711H45.1602V90.3223Z" fill="#F89B5C"/>
<path d="M45.1602 77.4189H51.6122V70.9661H45.1602V77.4189Z" fill="#F89B5C"/>
<path d="M45.1602 103.226H51.6122V96.7727H45.1602V103.226Z" fill="#E07941"/>
<path d="M45.1602 83.87H51.6122V77.4189H45.1602V83.87Z" fill="#F89B5C"/>
<path d="M45.1641 38.7099H51.6161V32.2578H45.1641V38.7099Z" fill="#E07941"/>
<path d="M174.195 161.292H180.647V154.84H174.195V161.292Z" fill="#231F20"/>
<path d="M174.195 167.741H180.647V161.291H174.195V167.741Z" fill="#BF5629"/>
<path d="M167.742 167.741H174.194V161.291H167.742V167.741Z" fill="#231F20"/>
<path d="M77.4219 167.741H83.874V161.292H77.4219V167.741Z" fill="#231F20"/>
<path d="M83.8711 167.741H90.3216V161.292H83.8711V167.741Z" fill="#E07941"/>
<path d="M103.226 167.741H109.679V161.291H103.226V167.741Z" fill="#231F20"/>
<path d="M109.68 167.741H116.13V161.292H109.68V167.741Z" fill="#F89B5C"/>
<path d="M90.3242 167.741H96.7763V161.292H90.3242V167.741Z" fill="#231F20"/>
<path d="M116.129 167.741H122.581V161.291H116.129V167.741Z" fill="#231F20"/>
<path d="M167.742 90.3232H174.194V83.8711H167.742V90.3232Z" fill="white"/>
<path d="M174.195 154.839H180.647V148.387H174.195V154.839Z" fill="#C6B593"/>
<path d="M167.742 103.226H174.194V96.7734H167.742V103.226Z" fill="white"/>
<path d="M51.6133 38.709H58.0654V32.2578H51.6133V38.709Z" fill="#E07941"/>
<path d="M167.742 109.679H174.194V103.227H167.742V109.679Z" fill="white"/>
<path d="M167.742 122.579H174.194V116.129H167.742V122.579Z" fill="white"/>
<path d="M167.742 116.129H174.194V109.679H167.742V116.129Z" fill="#E7E2BF"/>
<path d="M167.742 64.5146H174.194V58.0625H167.742V64.5146Z" fill="white"/>
<path d="M167.742 83.87H174.194V77.418H167.742V83.87Z" fill="white"/>
<path d="M167.742 70.9661H174.194V64.5156H167.742V70.9661Z" fill="white"/>
<path d="M167.742 58.0638H174.194V51.6133H167.742V58.0638Z" fill="white"/>
<path d="M167.742 77.418H174.194V70.9661H167.742V77.418Z" fill="white"/>
<path d="M161.289 161.292H167.741V154.84H161.289V161.292Z" fill="#231F20"/>
<path d="M167.742 161.291H174.194V154.84H167.742V161.291Z" fill="#231F20"/>
<path d="M180.648 174.193H187.099V167.741H180.648V174.193Z" fill="#231F20"/>
<path d="M167.742 135.483H174.194V129.031H167.742V135.483Z" fill="white"/>
<path d="M167.742 141.935H174.194V135.484H167.742V141.935Z" fill="#E7E2BF"/>
<path d="M167.742 154.839H174.194V148.387H167.742V154.839Z" fill="#C6B593"/>
<path d="M167.742 129.031H174.194V122.579H167.742V129.031Z" fill="white"/>
<path d="M167.742 96.7734H174.194V90.3232H167.742V96.7734Z" fill="white"/>
<path d="M90.3242 38.709H96.7763V32.2578H90.3242V38.709Z" fill="white"/>
<path d="M83.8711 38.709H90.3216V32.2578H83.8711V38.709Z" fill="#E7E2BF"/>
<path d="M96.7734 38.709H103.226V32.2578H96.7734V38.709Z" fill="white"/>
<path d="M116.133 38.709H122.585V32.2578H116.133V38.709Z" fill="white"/>
<path d="M109.68 38.709H116.13V32.2578H109.68V38.709Z" fill="white"/>
<path d="M103.227 38.709H109.679V32.2578H103.227V38.709Z" fill="white"/>
<path d="M64.5156 38.709H70.9677V32.2578H64.5156V38.709Z" fill="#E07941"/>
<path d="M77.4219 38.709H83.874V32.2578H77.4219V38.709Z" fill="#231F20"/>
<path d="M58.0664 38.709H64.5169V32.2578H58.0664V38.709Z" fill="#E07941"/>
<path d="M70.9688 38.709H77.4208V32.2578H70.9688V38.709Z" fill="#E07941"/>
<path d="M129.035 38.709H135.486V32.2578H129.035V38.709Z" fill="white"/>
<path d="M167.742 38.7099H174.194V32.2578H167.742V38.7099Z" fill="white"/>
<path d="M154.84 38.709H161.29V32.2578H154.84V38.709Z" fill="white"/>
<path d="M122.582 38.709H129.034V32.2578H122.582V38.709Z" fill="white"/>
<path d="M167.742 45.1611H174.194V38.7099H167.742V45.1611Z" fill="white"/>
<path d="M161.289 38.709H167.741V32.2578H161.289V38.709Z" fill="white"/>
<path d="M148.387 38.709H154.839V32.2578H148.387V38.709Z" fill="#E7E2BF"/>
<path d="M167.742 51.6122H174.194V45.1611H167.742V51.6122Z" fill="white"/>
<path d="M135.484 38.709H141.935V32.2578H135.484V38.709Z" fill="#E7E2BF"/>
<path d="M141.938 38.709H148.39V32.2578H141.938V38.709Z" fill="#E7E2BF"/>
<path d="M167.742 148.386H174.194V141.934H167.742V148.386Z" fill="#E7E2BF"/>
<path d="M38.7109 51.6122H45.163V45.1602H38.7109V51.6122Z" fill="#F89B5C"/>
<path d="M38.707 109.679H45.1591V103.227H38.707V109.679Z" fill="#231F20"/>
<path d="M38.707 77.4189H45.1591V70.9668H38.707V77.4189Z" fill="#F89B5C"/>
<path d="M38.707 64.5146H45.1591V58.0625H38.707V64.5146Z" fill="#F89B5C"/>
<path d="M38.707 58.0638H45.1591V51.6133H38.707V58.0638Z" fill="#F89B5C"/>
<path d="M38.707 70.9668H45.1591V64.5156H38.707V70.9668Z" fill="#F89B5C"/>
<path d="M38.707 96.7727H45.1591V90.3223H38.707V96.7727Z" fill="#F89B5C"/>
<path d="M38.707 83.87H45.1591V77.4189H38.707V83.87Z" fill="#F89B5C"/>
<path d="M38.707 103.226H45.1591V96.7727H38.707V103.226Z" fill="#E07941"/>
<path d="M38.707 90.3223H45.1591V83.8711H38.707V90.3223Z" fill="#704A32"/>
<path d="M167.742 174.193H174.194V167.741H167.742V174.193Z" fill="#231F20"/>
<path d="M174.195 174.193H180.647V167.741H174.195V174.193Z" fill="#E07941"/>
<path d="M116.129 174.193H122.581V167.741H116.129V174.193Z" fill="#231F20"/>
<path d="M83.8711 174.193H90.3216V167.741H83.8711V174.193Z" fill="#E07941"/>
<path d="M77.4219 174.193H83.874V167.741H77.4219V174.193Z" fill="#231F20"/>
<path d="M103.226 174.193H109.679V167.741H103.226V174.193Z" fill="#231F20"/>
<path d="M109.68 174.193H116.13V167.741H109.68V174.193Z" fill="#F89B5C"/>
<path d="M90.3242 174.193H96.7763V167.741H90.3242V174.193Z" fill="#231F20"/>
<path d="M45.1641 32.2578H51.6161V25.8066H45.1641V32.2578Z" fill="#231F20"/>
<path d="M174.195 51.6142H180.647V45.1621H174.195V51.6142Z" fill="white"/>
<path d="M174.195 58.0638H180.647V51.6142H174.195V58.0638Z" fill="#E7E2BF"/>
<path d="M174.195 64.5146H180.647V58.0625H174.195V64.5146Z" fill="white"/>
<path d="M174.195 77.4189H180.647V70.9668H174.195V77.4189Z" fill="white"/>
<path d="M161.289 32.2578H167.741V25.8075H161.289V32.2578Z" fill="white"/>
<path d="M174.195 38.7099H180.647V32.2578H174.195V38.7099Z" fill="white"/>
<path d="M174.195 32.2578H180.647L180.647 25.8075H174.195L174.195 32.2578Z" fill="white"/>
<path d="M174.195 45.1611H180.647V38.7099H174.195V45.1611Z" fill="white"/>
<path d="M167.742 32.2578H174.194V25.8075H167.742V32.2578Z" fill="white"/>
<path d="M174.195 83.87H180.647V77.4189H174.195V83.87Z" fill="white"/>
<path d="M174.195 70.9668H180.647V64.5156H174.195V70.9668Z" fill="white"/>
<path d="M174.195 122.579H180.647V116.129H174.195V122.579Z" fill="#E7E2BF"/>
<path d="M174.195 135.483H180.647V129.031H174.195V135.483Z" fill="white"/>
<path d="M174.195 129.031H180.647L180.647 122.579H174.195L174.195 129.031Z" fill="white"/>
<path d="M174.195 141.935H180.647V135.484H174.195V141.935Z" fill="#E7E2BF"/>
<path d="M174.195 103.225H180.647V96.7732H174.195V103.225Z" fill="white"/>
<path d="M174.195 96.7732H180.647L180.647 90.3223H174.195L174.195 96.7732Z" fill="white"/>
<path d="M174.195 90.3223H180.647V83.8711H174.195V90.3223Z" fill="white"/>
<path d="M174.195 116.129H180.647V109.678H174.195V116.129Z" fill="white"/>
<path d="M174.195 109.678H180.647V103.227H174.195V109.678Z" fill="white"/>
<path d="M96.7734 32.2578H103.226V25.8075H96.7734V32.2578Z" fill="white"/>
<path d="M64.5156 32.2578H70.9677V25.8075H64.5156V32.2578Z" fill="#231F20"/>
<path d="M70.9688 32.2578H77.4208V25.8075H70.9688V32.2578Z" fill="#231F20"/>
<path d="M58.0664 32.2578H64.5169V25.8066L58.0664 25.8075V32.2578Z" fill="#231F20"/>
<path d="M77.4219 32.2578H83.874V25.8075H77.4219V32.2578Z" fill="#E7E2BF"/>
<path d="M83.8711 32.2578H90.3216V25.8075H83.8711V32.2578Z" fill="white"/>
<path d="M90.3242 32.2578H96.7763V25.8075H90.3242V32.2578Z" fill="white"/>
<path d="M38.707 38.7099H45.1591V32.2578H38.707V38.7099Z" fill="#E07941"/>
<path d="M51.6133 32.2578H58.0654V25.8066L51.6133 25.8075V32.2578Z" fill="#231F20"/>
<path d="M38.707 32.2578H45.1591V25.8075H38.707V32.2578Z" fill="#231F20"/>
<path d="M174.195 148.387H180.647V141.934H174.195V148.387Z" fill="#E7E2BF"/>
<path d="M103.227 32.2578H109.679L109.679 25.8075L103.226 25.8068L103.227 32.2578Z" fill="white"/>
<path d="M129.035 32.2578H135.486V25.8075H129.035V32.2578Z" fill="white"/>
<path d="M135.484 32.2578H141.935V25.8075H135.484V32.2578Z" fill="white"/>
<path d="M141.938 32.2578H148.39V25.8075H141.938V32.2578Z" fill="white"/>
<path d="M148.387 32.2578H154.839V25.8066H148.387V32.2578Z" fill="#231F20"/>
<path d="M154.84 32.2578H161.29V25.8066H154.84V32.2578Z" fill="#231F20"/>
<path d="M109.68 32.2578L116.132 32.2571V25.8066H109.68V32.2578Z" fill="#231F20"/>
<path d="M38.7109 45.1602H45.163V38.709H38.7109V45.1602Z" fill="#F89B5C"/>
<path d="M116.129 32.2572H122.581V25.8068H116.129V32.2572Z" fill="#231F20"/>
<path d="M122.582 32.2578H129.034V25.8075H122.582V32.2578Z" fill="white"/>
<path d="M225.809 90.3223H232.261V83.8711H225.809V90.3223Z" fill="#231F20"/>
<path d="M225.809 77.4189H232.261V70.9668H225.809V77.4189Z" fill="#231F20"/>
<path d="M225.809 70.9668H232.261V64.5156H225.809V70.9668Z" fill="#231F20"/>
<path d="M225.809 64.5146H232.261V58.0625H225.809V64.5146Z" fill="#231F20"/>
<path d="M225.809 83.87H232.261V77.4189H225.809V83.87Z" fill="#231F20"/>
</svg>
