<svg width="230" height="200" viewBox="0 0 230 200" fill="none" xmlns="http://www.w3.org/2000/svg">
<path d="M40 125H44.9991V120H40V125Z" fill="#231F20"/>
<path d="M40 120H44.9991V115H40V120Z" fill="#231F20"/>
<path d="M40 140H44.9991V135H40V140Z" fill="#231F20"/>
<path d="M40 149.999H44.9991V145H40V149.999Z" fill="#231F20"/>
<path d="M40 145H44.9991V140H40V145Z" fill="#CC8642"/>
<path d="M145 175H150V170H145V175Z" fill="#231F20"/>
<path d="M175 175H180V170H175V175Z" fill="#99DCC2"/>
<path d="M40 110H44.9991V105H40V110Z" fill="#231F20"/>
<path d="M165 175H170V170H165V175Z" fill="#231F20"/>
<path d="M170 175H175V170H170V175Z" fill="#231F20"/>
<path d="M180 175H185V170H180V175Z" fill="#59C69E"/>
<path d="M120 175H125V170H120V175Z" fill="#59C69E"/>
<path d="M125 175H130V170H125V175Z" fill="#231F20"/>
<path d="M115 175H120V170H115V175Z" fill="#231F20"/>
<path d="M69.9998 24.9993H75.0002V20.0002H69.9998V24.9993Z" fill="#59C69E"/>
<path d="M95 24.9991H99.9991V20H95V24.9991Z" fill="#231F20"/>
<path d="M40 105H44.9991V100H40V105Z" fill="#231F20"/>
<path d="M84.9999 24.9993H90.0002V20.0002H84.9999V24.9993Z" fill="#59C69E"/>
<path d="M185 175H190V170H185V175Z" fill="#288568"/>
<path d="M75.0002 24.9993L79.9991 24.9991V20L75.0002 20.0002V24.9993Z" fill="#E5EF5E"/>
<path d="M79.9991 24.9991L84.9999 24.9993V20.0002L79.9991 20V24.9991Z" fill="#BFE137"/>
<path d="M65 24.9991L69.9998 24.9993V20.0002L65 20V24.9991Z" fill="#59C69E"/>
<path d="M90.0002 24.9993L95 24.9991V20L90.0002 20.0002V24.9993Z" fill="#59C69E"/>
<path d="M40 74.9991H44.9991V70H40V74.9991Z" fill="#59C69E"/>
<path d="M40 70H44.9991V65H40V70Z" fill="#59C69E"/>
<path d="M40 80.0003H44.9991V74.9991H40V80.0003Z" fill="#BFE137"/>
<path d="M40 55.0003H44.9991V50H40V55.0003Z" fill="#231F20"/>
<path d="M40 65H44.9991V60H40V65Z" fill="#FDDD04"/>
<path d="M40 60H44.9991V55.0003H40V60Z" fill="#FABC09"/>
<path d="M40 100H44.9991V95H40V100Z" fill="#ED2023"/>
<path d="M40 85.0003H44.9991V80.0003H40V85.0003Z" fill="#231F20"/>
<path d="M40 95H44.9991V90H40V95Z" fill="#ED2023"/>
<path d="M40 90H44.9991V85.0003H40V90Z" fill="#231F20"/>
<path d="M40 44.9991H44.9991V40H40V44.9991Z" fill="#FDDD04"/>
<path d="M40 50H44.9991V44.9991H40V50Z" fill="#FABC09"/>
<path d="M50 24.9993H55.0003V20.0002H50V24.9993Z" fill="#231F20"/>
<path d="M55.0003 24.9993L59.9991 24.9991V20L55.0003 20.0002V24.9993Z" fill="#E5EF5E"/>
<path d="M59.9991 24.9991H65V20H59.9991V24.9991Z" fill="#BFE137"/>
<path d="M40 40H44.9991V35H40V40Z" fill="#99DCC2"/>
<path d="M40 35H44.9991V30H40V35Z" fill="#231F20"/>
<path d="M55 19.9991L59.9991 20V15H55V19.9991Z" fill="#231F20"/>
<path d="M65 20L70.0003 19.9991V15H65V20Z" fill="#BFE137"/>
<path d="M60 19.9991L65 20V15H59.9991L60 19.9991Z" fill="#E5EF5E"/>
<path d="M70.0003 19.9991H75.0001V15H70.0003V19.9991Z" fill="#59C69E"/>
<path d="M75.0001 19.9991L79.9991 20V15H75.0001V19.9991Z" fill="#59C69E"/>
<path d="M80 19.9991H85.0003V15H79.9991L80 19.9991Z" fill="#E5EF5E"/>
<path d="M85.0003 19.9991H90.0002V15H85.0003V19.9991Z" fill="#BFE137"/>
<path d="M95 20H99.9991V15H95V20Z" fill="#231F20"/>
<path d="M90.0002 19.9991L95 20V15H90.0002V19.9991Z" fill="#59C69E"/>
<path d="M34.9999 114.999H39.999V110H34.9999V114.999Z" fill="#231F20"/>
<path d="M34.9999 94.999H39.999V89.9999H34.9999V94.999Z" fill="#231F20"/>
<path d="M34.9999 89.9999H39.999L39.999 85H34.9999L34.9999 89.9999Z" fill="#E5EA08"/>
<path d="M34.9999 79.9984H39.999V74.998H34.9999V79.9984Z" fill="#E5EA08"/>
<path d="M34.9999 74.998H39.999L39.999 69.9998H34.9999L34.9999 74.998Z" fill="#59C69E"/>
<path d="M190 175H194.999V170H190V175Z" fill="#231F20"/>
<path d="M34.9999 105H39.999V100H34.9999V105Z" fill="#ED2023"/>
<path d="M34.9999 120H39.999L39.999 114.999H34.9999L34.9999 120Z" fill="#ED2023"/>
<path d="M34.9999 110H39.999L39.999 105H34.9999L34.9999 110Z" fill="#231F20"/>
<path d="M34.9999 85H39.999V80H34.9999V85Z" fill="#231F20"/>
<path d="M34.9999 40.0002H39.999V34.9999H34.9999V40.0002Z" fill="#231F20"/>
<path d="M34.9999 44.9993H39.999V40.0002H34.9999V44.9993Z" fill="#FDDD04"/>
<path d="M34.9999 69.9998H39.999L39.999 65H34.9999L34.9999 69.9998Z" fill="#59C69E"/>
<path d="M34.9999 50.0003H39.999L39.999 44.9993H34.9999L34.9999 50.0003Z" fill="#FABC09"/>
<path d="M34.9999 65H39.999V60H34.9999V65Z" fill="#FDDD04"/>
<path d="M34.9999 60H39.999L39.999 55.0001H34.9999L34.9999 60Z" fill="#FABC09"/>
<path d="M34.9999 55.0001H39.999L39.999 50.0003H34.9999L34.9999 55.0001Z" fill="#FABC09"/>
<path d="M34.9999 100H39.999L39.999 94.999H34.9999L34.9999 100Z" fill="#ED2023"/>
<path d="M190 105H194.999V100H190V105Z" fill="#BFE137"/>
<path d="M190 74.9991H194.999V70H190V74.9991Z" fill="#231F20"/>
<path d="M190 100H194.999V95H190V100Z" fill="#59C69E"/>
<path d="M190 114.999H194.999V110H190V114.999Z" fill="#59C69E"/>
<path d="M190 120H194.999V114.999H190V120Z" fill="#59C69E"/>
<path d="M190 110H194.999V105H190V110Z" fill="#BFE137"/>
<path d="M190 85.0003H194.999V80H190V85.0003Z" fill="#99DCC2"/>
<path d="M190 80H194.999V74.9991H190V80Z" fill="#231F20"/>
<path d="M190 95H194.999V90H190V95Z" fill="#59C69E"/>
<path d="M190 90H194.999V85.0003H190V90Z" fill="#59C69E"/>
<path d="M190 125H194.999V120H190V125Z" fill="#59C69E"/>
<path d="M190 160H194.999V155H190V160Z" fill="#59C69E"/>
<path d="M190 165H194.999V160H190V165Z" fill="#288568"/>
<path d="M190 170H194.999V165H190L190 170Z" fill="#231F20"/>
<path d="M190 155H194.999V150H190V155Z" fill="#BFE137"/>
<path d="M190 150H194.999V145H190V150Z" fill="#BFE137"/>
<path d="M190 140H194.999V135H190V140Z" fill="#59C69E"/>
<path d="M190 135H194.999V130H190V135Z" fill="#BFE137"/>
<path d="M190 130H194.999V125H190V130Z" fill="#BFE137"/>
<path d="M190 145H194.999V140H190V145Z" fill="#59C69E"/>
<path d="M190 64.9991H194.999V60H190V64.9991Z" fill="#231F20"/>
<path d="M190 70H194.999V64.9991H190V70Z" fill="#231F20"/>
<path d="M135 165H139.999V160H135V165Z" fill="#231F20"/>
<path d="M160 30.0003H165V25H160V30.0003Z" fill="#231F20"/>
<path d="M130 30.0003H134.999V25H130V30.0003Z" fill="#231F20"/>
<path d="M155 30.0003H160V25H155V30.0003Z" fill="#231F20"/>
<path d="M140 30.0003H145V25H140V30.0003Z" fill="#231F20"/>
<path d="M150 30.0003H155V25H150V30.0003Z" fill="#231F20"/>
<path d="M134.999 30.0003H140V25H134.999V30.0003Z" fill="#231F20"/>
<path d="M145 30.0003H150V25H145V30.0003Z" fill="#231F20"/>
<path d="M180 64.9991H185V60H180V64.9991Z" fill="#BFE137"/>
<path d="M180 60H185L185.001 55.0001H180L180 60Z" fill="#BFE137"/>
<path d="M180 70.0003H185V64.9991H180V70.0003Z" fill="#BFE137"/>
<path d="M180 79.9984H185V74.998H180V79.9984Z" fill="#BFE137"/>
<path d="M180 74.998H185V70.0003H180V74.998Z" fill="#BFE137"/>
<path d="M180 50.0003H185V45H180V50.0003Z" fill="#231F20"/>
<path d="M44.9991 50L50.0003 50.0003V45H45L44.9991 50Z" fill="#FABC09"/>
<path d="M84.9999 30.0003H90.0002L90.0002 24.9993H84.9999L84.9999 30.0003Z" fill="#59C69E"/>
<path d="M125 30.0003H130V25H125V30.0003Z" fill="#231F20"/>
<path d="M60 30.0003H65.0003L65 24.9991L60 25V30.0003Z" fill="#59C69E"/>
<path d="M65.0003 30.0003H70.0003L69.9998 24.9993L65 24.9991L65.0003 30.0003Z" fill="#59C69E"/>
<path d="M50 30.0003H55.0003L55.0003 24.9993H50L50 30.0003Z" fill="#E5EF5E"/>
<path d="M70.0003 30.0003H75.0001L75.0002 24.9993H69.9998L70.0003 30.0003Z" fill="#E5EF5E"/>
<path d="M44.9991 30L50 30.0003L50 24.9993L45 25L44.9991 30Z" fill="#231F20"/>
<path d="M75.0001 30.0003H79.9991V24.9991L75.0002 24.9993L75.0001 30.0003Z" fill="#BFE137"/>
<path d="M44.9991 40L50.0003 40.0003V35H44.9991V40Z" fill="#59C69E"/>
<path d="M44.9991 35H50.0003L50 30.0003L44.9991 30V35Z" fill="#99DCC2"/>
<path d="M55.0003 30.0003H60L59.9991 24.9991L55.0003 24.9993L55.0003 30.0003Z" fill="#BFE137"/>
<path d="M120 30.0003H125V25H120V30.0003Z" fill="#231F20"/>
<path d="M180 85.0003H185V80H180V85.0003Z" fill="#BFE137"/>
<path d="M90.0002 30.0003H95.0003L95 24.9991L90.0002 24.9993L90.0002 30.0003Z" fill="#59C69E"/>
<path d="M79.9991 30.0003H84.9999L84.9999 24.9993L80 25L79.9991 30.0003Z" fill="#59C69E"/>
<path d="M95.0003 30.0003H99.9991V24.9991H95L95.0003 30.0003Z" fill="#231F20"/>
<path d="M180 55.0001H185.001L185 50.0003H180L180 55.0001Z" fill="#E5EF5E"/>
<path d="M115 165H119.999V160H115V165Z" fill="#231F20"/>
<path d="M119.999 165H125V160H119.999V165Z" fill="#59C69E"/>
<path d="M150 165H154.999V160H150V165Z" fill="#231F20"/>
<path d="M139.999 165H145V160H139.999V165Z" fill="#288568"/>
<path d="M145 165L150 165V160L145 160V165Z" fill="#59C69E"/>
<path d="M125 165L130 165V160L125 160V165Z" fill="#288568"/>
<path d="M130 165H135V160H130V165Z" fill="#231F20"/>
<path d="M34.9999 125H39.999V120H34.9999V125Z" fill="#B01719"/>
<path d="M180 160H185V155H180V160Z" fill="#59C69E"/>
<path d="M180 120H185V115H180V120Z" fill="#59C69E"/>
<path d="M180 125H185V120H180V125Z" fill="#59C69E"/>
<path d="M180 134.998H185V129.998H180V134.998Z" fill="#BFE137"/>
<path d="M180 140H185V135H180V140Z" fill="#BFE137"/>
<path d="M180 129.998H185V125H180V129.998Z" fill="#59C69E"/>
<path d="M180 94.999H185.001V89.9999H180V94.999Z" fill="#59C69E"/>
<path d="M180 100H185L185.001 94.999H180L180 100Z" fill="#59C69E"/>
<path d="M180 110H185V105H180V110Z" fill="#BFE137"/>
<path d="M180 105H185V100H180V105Z" fill="#59C69E"/>
<path d="M180 115H185V110H180V115Z" fill="#BFE137"/>
<path d="M175 165H180L180 160L175 160V165Z" fill="#231F20"/>
<path d="M180 145H185V140H180V145Z" fill="#59C69E"/>
<path d="M180 155H185V150H180V155Z" fill="#BFE137"/>
<path d="M180 150H185V145H180V150Z" fill="#59C69E"/>
<path d="M180 89.9999H185.001L185 85.0003H180L180 89.9999Z" fill="#BFE137"/>
<path d="M180 165L185.001 165L185 160H180L180 165Z" fill="#59C69E"/>
<path d="M45 45H50.0003V40.0003L44.9991 40L45 45Z" fill="#FDDD04"/>
<path d="M185 149.999L190 150V145L185 145L185 149.999Z" fill="#59C69E"/>
<path d="M185 145L190 145V140H185V145Z" fill="#59C69E"/>
<path d="M185 160H190V155H185V160Z" fill="#59C69E"/>
<path d="M185 154.999L190 155V150L185 149.999L185 154.999Z" fill="#BFE137"/>
<path d="M185.001 165L190 165V160H185L185.001 165Z" fill="#059D92"/>
<path d="M185 140H190V135H185V140Z" fill="#BFE137"/>
<path d="M185 125H190V120H185V125Z" fill="#059D92"/>
<path d="M185 120H190V114.999L185 115V120Z" fill="#59C69E"/>
<path d="M140 169.999L145 170L145 165H139.999L140 169.999Z" fill="#231F20"/>
<path d="M44.9991 55.0003H50.0003V50.0003L44.9991 50V55.0003Z" fill="#FABC09"/>
<path d="M185 169.999L190 170L190 165L185.001 165L185 169.999Z" fill="#59C69E"/>
<path d="M150 170L154.999 169.999V165H150L150 170Z" fill="#231F20"/>
<path d="M145 170H150L150 165L145 165L145 170Z" fill="#288568"/>
<path d="M175 170H180V165H175V170Z" fill="#231F20"/>
<path d="M180 170H185L185.001 165L180 165V170Z" fill="#59C69E"/>
<path d="M185 114.999L190 114.999V110L185 110L185 114.999Z" fill="#BFE137"/>
<path d="M185 134.998H190V129.998H185V134.998Z" fill="#BFE137"/>
<path d="M185.001 55.0001L190 55.0003V50L185 50.0003L185.001 55.0001Z" fill="#231F20"/>
<path d="M185 60H190L190 55.0003L185.001 55.0001L185 60Z" fill="#231F20"/>
<path d="M185 79.9984H190V74.998H185V79.9984Z" fill="#BFE137"/>
<path d="M185.001 89.9999L190 90V85.0003H185L185.001 89.9999Z" fill="#59C69E"/>
<path d="M185 100L190 100V95H185L185 100Z" fill="#59C69E"/>
<path d="M185 64.9991H190V60H185V64.9991Z" fill="#E5EF5E"/>
<path d="M185 105L190 105V100L185 100V105Z" fill="#BFE137"/>
<path d="M185 95L190 94.999L190 90L185.001 89.9999L185 95Z" fill="#059D92"/>
<path d="M185 70.0003L190 70V64.9991L185 65L185 70.0003Z" fill="#BFE137"/>
<path d="M185 74.9989L190 74.998L190 70L185 70.0003L185 74.9989Z" fill="#BFE137"/>
<path d="M185 110L190 110V105L185 105V110Z" fill="#BFE137"/>
<path d="M185 85.0003H190V80H185V85.0003Z" fill="#59C69E"/>
<path d="M185 129.999L190 129.998L190 125H185L185 129.999Z" fill="#59C69E"/>
<path d="M44.9991 110H50.0003V105H44.9991V110Z" fill="#231F20"/>
<path d="M45 134.999H50.0003V130H45V134.999Z" fill="#231F20"/>
<path d="M44.9991 105H50.0003V100H44.9991V105Z" fill="#955424"/>
<path d="M44.9991 145L50.0003 145V140L44.9991 140V145Z" fill="#955424"/>
<path d="M44.9991 149.999H50.0003V145L44.9991 145V149.999Z" fill="#231F20"/>
<path d="M44.9991 140L50.0003 140V134.999H45L44.9991 140Z" fill="#CC8642"/>
<path d="M45 64.9991H50.0003V60H44.9991L45 64.9991Z" fill="#FDDD04"/>
<path d="M44.9991 70L50.0003 70.0003V64.9991H45L44.9991 70Z" fill="#59C69E"/>
<path d="M44.9991 74.9991H50.0003V70.0003L44.9991 70V74.9991Z" fill="#231F20"/>
<path d="M44.9991 60H50.0003V55.0003H44.9991V60Z" fill="#FABC09"/>
<path d="M44.9991 80.0003H50.0003V74.9991L45 75L44.9991 80.0003Z" fill="#E5EA08"/>
<path d="M44.9991 90L50.0003 90.0003V85L44.9991 85.0003V90Z" fill="#B01719"/>
<path d="M45 94.9991H50.0003V90.0003L44.9991 90L45 94.9991Z" fill="#ED2023"/>
<path d="M44.9991 100H50.0003V94.9991H45L44.9991 100Z" fill="#231F20"/>
<path d="M44.9991 85.0003L50.0003 85V80.0003H44.9991V85.0003Z" fill="#231F20"/>
<path d="M125 170H130V165L125 165L125 170Z" fill="#231F20"/>
<path d="M115 170L119.999 169.999V165H115L115 170Z" fill="#231F20"/>
<path d="M120 170H125L125 165H119.999L120 170Z" fill="#59C69E"/>
<path d="M135 189.999H139.999V185H135V189.999Z" fill="#59C69E"/>
<path d="M95 10.0003H99.9991V5H95V10.0003Z" fill="#231F20"/>
<path d="M90 10.0003H95V5H90V10.0003Z" fill="#E5EF5E"/>
<path d="M75 10.0003H79.9991V5H75V10.0003Z" fill="#E5EF5E"/>
<path d="M84.9999 10.0003H90V5H84.9999V10.0003Z" fill="#99DCC2"/>
<path d="M69.9998 10.0003H75V5H69.9998V10.0003Z" fill="#E5EF5E"/>
<path d="M79.9991 10.0003H84.9999V5H79.9991V10.0003Z" fill="#99DCC2"/>
<path d="M65 10.0003H69.9998V5H65V10.0003Z" fill="#231F20"/>
<path d="M200 154.999H205V150H200V154.999Z" fill="#231F20"/>
<path d="M200 150H205L205 145H200L200 150Z" fill="#955424"/>
<path d="M200 145H205L205 140H200L200 145Z" fill="#CC8642"/>
<path d="M200 140H205V135H200V140Z" fill="#231F20"/>
<path d="M175 184.999H180V180H175V184.999Z" fill="#288568"/>
<path d="M170 184.999H175V180H170V184.999Z" fill="#59C69E"/>
<path d="M180 184.999L185.001 184.999V180L180 180V184.999Z" fill="#231F20"/>
<path d="M25 154.999H30.0003V150H25V154.999Z" fill="#231F20"/>
<path d="M165 189.999H170L170 184.999L165 185V189.999Z" fill="#288568"/>
<path d="M160 189.999H165V185H160V189.999Z" fill="#59C69E"/>
<path d="M155 189.999H160V185H155V189.999Z" fill="#59C69E"/>
<path d="M150 189.999H155V185H150V189.999Z" fill="#59C69E"/>
<path d="M170 189.999H174.999V185L170 184.999L170 189.999Z" fill="#231F20"/>
<path d="M174.999 189.999H180V184.999H175L174.999 189.999Z" fill="#231F20"/>
<path d="M145 189.999H150V185H145V189.999Z" fill="#59C69E"/>
<path d="M139.999 189.999H145V185H139.999V189.999Z" fill="#59C69E"/>
<path d="M130 189.999H135V185H130V189.999Z" fill="#59C69E"/>
<path d="M125 189.999H130V185H125V189.999Z" fill="#288568"/>
<path d="M120 189.999H125V185H120V189.999Z" fill="#231F20"/>
<path d="M205 140L210 140V135H205V140Z" fill="#231F20"/>
<path d="M205 145L210 145V140L205 140L205 145Z" fill="#CC8642"/>
<path d="M205 154.999H210V150H205V154.999Z" fill="#231F20"/>
<path d="M205 150H210V145L205 145L205 150Z" fill="#955424"/>
<path d="M25 114.999H30.0003V110H25V114.999Z" fill="#231F20"/>
<path d="M25 120H30.0003V114.999H25V120Z" fill="#231F20"/>
<path d="M25 100H30.0003V95H25V100Z" fill="#231F20"/>
<path d="M25 150H30.0003V145H25V150Z" fill="#CC8642"/>
<path d="M25 110H30.0003V105H25V110Z" fill="#231F20"/>
<path d="M25 145H30.0003V140H25V145Z" fill="#231F20"/>
<path d="M25 105H30.0003V100H25V105Z" fill="#231F20"/>
<path d="M25 64.9991H30.0003V60H25V64.9991Z" fill="#59C69E"/>
<path d="M25 70.0003H30.0003V64.9991H25V70.0003Z" fill="#59C69E"/>
<path d="M25 95H30.0003V90H25V95Z" fill="#231F20"/>
<path d="M25 55.0003H30.0003V50H25V55.0003Z" fill="#231F20"/>
<path d="M25 60H30.0003V55.0003H25V60Z" fill="#99DCC2"/>
<path d="M25 85.0003H30.0003V80H25V85.0003Z" fill="#4CAA8A"/>
<path d="M25 90H30.0003V85.0003H25V90Z" fill="#288568"/>
<path d="M25 74.9991H30.0003V70.0003H25V74.9991Z" fill="#59C69E"/>
<path d="M25 80H30.0003V74.9991H25V80Z" fill="#E5EA08"/>
<path d="M25 50H30.0003V45H25V50Z" fill="#231F20"/>
<path d="M165 184.999L170 184.999V180L165 180V184.999Z" fill="#59C69E"/>
<path d="M140 184.999L145 185L145 180H140V184.999Z" fill="#231F20"/>
<path d="M194.999 105H200V100H194.999V105Z" fill="#231F20"/>
<path d="M194.999 110L200 110V105H194.999V110Z" fill="#231F20"/>
<path d="M194.999 100H200V95H194.999V100Z" fill="#231F20"/>
<path d="M194.999 114.999H200V110L194.999 110V114.999Z" fill="#231F20"/>
<path d="M194.999 120H200V114.999L195 115L194.999 120Z" fill="#231F20"/>
<path d="M194.999 85.0003H200V80H194.999V85.0003Z" fill="#231F20"/>
<path d="M194.999 125H200V120H194.999V125Z" fill="#231F20"/>
<path d="M194.999 90L200 90.0003V85.0003H194.999V90Z" fill="#231F20"/>
<path d="M195 94.9991L200 95V90.0003L194.999 90L195 94.9991Z" fill="#231F20"/>
<path d="M194.999 160H200L200 154.999L194.999 155V160Z" fill="#231F20"/>
<path d="M194.999 165H200V160H194.999V165Z" fill="#231F20"/>
<path d="M195 129.999H200V125H194.999L195 129.999Z" fill="#231F20"/>
<path d="M195 149.999L200 150L200 145L194.999 145L195 149.999Z" fill="#231F20"/>
<path d="M194.999 135H200L200 129.999H195L194.999 135Z" fill="#231F20"/>
<path d="M194.999 140L200 140V135H194.999V140Z" fill="#231F20"/>
<path d="M194.999 145L200 145L200 140L194.999 140V145Z" fill="#231F20"/>
<path d="M195 154.999H200V150L195 149.999V154.999Z" fill="#231F20"/>
<path d="M160 185L165 184.999V180L160 180V185Z" fill="#99DCC2"/>
<path d="M160 180L165 180L165 175L160 175V180Z" fill="#231F20"/>
<path d="M34.9999 140H39.999V135H34.9999V140Z" fill="#231F20"/>
<path d="M34.9999 145H39.999V140H34.9999V145Z" fill="#CC8642"/>
<path d="M34.9999 149.999L40 149.999L39.999 145H34.9999L34.9999 149.999Z" fill="#231F20"/>
<path d="M165 180L170 180L170 175H165L165 180Z" fill="#99DCC2"/>
<path d="M185.001 180L190 180V175H185L185.001 180Z" fill="#231F20"/>
<path d="M180 180L185.001 180L185 175H180V180Z" fill="#288568"/>
<path d="M175 180H180V175H175V180Z" fill="#59C69E"/>
<path d="M170 180H175V175H170L170 180Z" fill="#59C69E"/>
<path d="M115 180H119.999L120 175H115V180Z" fill="#231F20"/>
<path d="M125 180H130V175H125L125 180Z" fill="#231F20"/>
<path d="M119.999 180H125L125 175H120L119.999 180Z" fill="#59C69E"/>
<path d="M30.0003 145L34.9999 145V140L30.0003 140V145Z" fill="#CC8642"/>
<path d="M30.0003 120H34.9999L34.9999 114.999L30.0003 114.999V120Z" fill="#ED2023"/>
<path d="M30 125H34.9999V120H30.0003L30 125Z" fill="#231F20"/>
<path d="M30.0003 114.999L34.9999 114.999V110L30.0003 110V114.999Z" fill="#ED2023"/>
<path d="M30.0003 150L34.9999 149.999L34.9999 145L30.0003 145V150Z" fill="#955424"/>
<path d="M30.0003 154.999H35.0003V150H30.0003V154.999Z" fill="#231F20"/>
<path d="M30.0003 140L34.9999 140V135H30L30.0003 140Z" fill="#231F20"/>
<path d="M145 185H150L150 180H145L145 185Z" fill="#231F20"/>
<path d="M125 185H130L130 180H125V185Z" fill="#59C69E"/>
<path d="M120 184.999H125L125 180H119.999L120 184.999Z" fill="#288568"/>
<path d="M135 185H139.999L140 180H135V185Z" fill="#231F20"/>
<path d="M130 184.999H134.999L135 180L130 180L130 184.999Z" fill="#231F20"/>
<path d="M155 185H160V180H155V185Z" fill="#231F20"/>
<path d="M150 184.999H154.999L155 180H150L150 184.999Z" fill="#231F20"/>
<path d="M34.9999 130H39.999L39.999 125H34.9999L34.9999 130Z" fill="#231F20"/>
<path d="M30.0003 110L34.9999 110L34.9999 105L30.0003 105V110Z" fill="#ED2023"/>
<path d="M115 184.999H120L119.999 180H115L115 184.999Z" fill="#231F20"/>
<path d="M75.0001 15H79.9991V10.0003H75L75.0001 15Z" fill="#59C69E"/>
<path d="M79.9991 15H85.0003L84.9999 10.0003H79.9991V15Z" fill="#59C69E"/>
<path d="M85.0003 15H90.0002L90 10.0003H84.9999L85.0003 15Z" fill="#E5EF5E"/>
<path d="M95 15H99.9991V10.0003H95V15Z" fill="#231F20"/>
<path d="M70.0003 15H75.0001L75 10.0003H69.9998L70.0003 15Z" fill="#BFE137"/>
<path d="M90.0002 15H95V10.0003H90L90.0002 15Z" fill="#BFE137"/>
<path d="M65 15H70.0003L69.9998 10.0003H65V15Z" fill="#E5EF5E"/>
<path d="M59.9991 15H65V10.0003L60 10L59.9991 15Z" fill="#231F20"/>
<path d="M30.0003 60H34.9999L34.9999 55.0001L30.0003 55.0003V60Z" fill="#FDDD04"/>
<path d="M30.0003 70.0003L34.9999 69.9998L34.9999 65L30.0003 64.9991V70.0003Z" fill="#59C69E"/>
<path d="M30.0003 55.0003L34.9999 55.0001L34.9999 50.0003L30.0003 50V55.0003Z" fill="#FDDD04"/>
<path d="M30.0003 64.9991H35.0003L34.9999 60H30.0003V64.9991Z" fill="#59C69E"/>
<path d="M30.0003 80H34.9999L35.0003 75L30.0003 74.9991V80Z" fill="#231F20"/>
<path d="M30.0003 105L34.9999 105V100L30.0003 100V105Z" fill="#ED2023"/>
<path d="M30.0003 85.0003L34.9999 85V80H30.0003V85.0003Z" fill="#BFE137"/>
<path d="M30.0003 100L34.9999 100L35.0003 95H30.0003V100Z" fill="#231F20"/>
<path d="M30.0003 95H35.0003L34.9999 89.9999L30.0003 90V95Z" fill="#288568"/>
<path d="M30.0003 90L34.9999 89.9999L34.9999 85L30.0003 85.0003V90Z" fill="#4CAA8A"/>
<path d="M30.0003 74.9991L35.0003 75L34.9999 69.9998L30.0003 70.0003V74.9991Z" fill="#BFE137"/>
<path d="M30.0003 45L34.9999 44.9993V40.0002L30 40L30.0003 45Z" fill="#231F20"/>
<path d="M30.0003 50L34.9999 50.0003L34.9999 44.9993L30.0003 45V50Z" fill="#FDDD04"/>
<path d="M115 120H119.999V115H115V120Z" fill="#231F20"/>
<path d="M150 74.9989H154.999V69.9998H150V74.9989Z" fill="#BFE137"/>
<path d="M150 60.0004H154.999V55.0001H150V60.0004Z" fill="#BFE137"/>
<path d="M140 60.0003H145V55H140V60.0003Z" fill="#59C69E"/>
<path d="M150 64.9991H154.999L154.999 60.0004H150L150 64.9991Z" fill="#BFE137"/>
<path d="M150 69.9998H154.999L154.999 64.9991H150L150 69.9998Z" fill="#BFE137"/>
<path d="M145 60.0003L150 60.0004V55.0001L145 55V60.0003Z" fill="#59C69E"/>
<path d="M120 60.0004H125V55.0001H120V60.0004Z" fill="#BFE137"/>
<path d="M135 60.0003H140V55H135V60.0003Z" fill="#59C69E"/>
<path d="M125 60.0004L129.999 60.0003V55L125 55.0001V60.0004Z" fill="#BFE137"/>
<path d="M145 64.9991H150L150 60.0004L145 60.0003L145 64.9991Z" fill="#BFE137"/>
<path d="M150 90.0003H154.999V85H150V90.0003Z" fill="#231F20"/>
<path d="M150 114.999H154.999V110H150V114.999Z" fill="#288568"/>
<path d="M150 110H154.999L154.999 105H150L150 110Z" fill="#4CAA8A"/>
<path d="M150 79.9984H154.999L154.999 74.9989H150L150 79.9984Z" fill="#BFE137"/>
<path d="M150 120H154.999L154.999 114.999H150L150 120Z" fill="#288568"/>
<path d="M150 105H154.999V100H150V105Z" fill="#59C69E"/>
<path d="M150 125H154.999V120H150V125Z" fill="#231F20"/>
<path d="M115 60.0004H120V55.0001H115V60.0004Z" fill="#59C69E"/>
<path d="M150 100H154.999V95H150V100Z" fill="#59C69E"/>
<path d="M150 85H154.999V80H150V85Z" fill="#4CAA8A"/>
<path d="M150 95H154.999V90.0003H150V95Z" fill="#59C69E"/>
<path d="M75 74.9991H79.9991V70H75V74.9991Z" fill="#E5EA08"/>
<path d="M75 90.0003H79.9991V85H75V90.0003Z" fill="#288568"/>
<path d="M75 94.9991H79.9991V90.0003H75V94.9991Z" fill="#288568"/>
<path d="M75 100H79.9991V94.9991H75V100Z" fill="#231F20"/>
<path d="M75 85H79.9991V80H75V85Z" fill="#E5EA08"/>
<path d="M75 80H79.9991V74.9991H75V80Z" fill="#231F20"/>
<path d="M75 105H79.9991V100H75V105Z" fill="#231F20"/>
<path d="M75 114.999H79.9991V110H75V114.999Z" fill="#CC8642"/>
<path d="M75 120H79.9991V114.999H75V120Z" fill="#CC8642"/>
<path d="M75 110H79.9991V105H75V110Z" fill="#955424"/>
<path d="M150 129.999H154.999L154.999 125H150L150 129.999Z" fill="#231F20"/>
<path d="M100 60.0003H105V55H100V60.0003Z" fill="#59C69E"/>
<path d="M110 60.0003L115 60.0004V55.0001L110 55V60.0003Z" fill="#59C69E"/>
<path d="M95 60.0003H100V55H95V60.0003Z" fill="#59C69E"/>
<path d="M75 70H79.9991V65H75V70Z" fill="#59C69E"/>
<path d="M105 60.0003H110V55H105V60.0003Z" fill="#59C69E"/>
<path d="M90 60.0003H95V55H90V60.0003Z" fill="#059D92"/>
<path d="M75 60.0003H79.9991V55H75V60.0003Z" fill="#FABC09"/>
<path d="M75 65H79.9991V60.0003H75V65Z" fill="#FDDD04"/>
<path d="M84.9999 60.0004L90 60.0003V55L84.9999 55.0001V60.0004Z" fill="#59C69E"/>
<path d="M79.9991 60.0003L84.9999 60.0004V55.0001L79.9991 55V60.0003Z" fill="#FDDD04"/>
<path d="M79.9991 70L85.0003 70.0003V65H79.9991V70Z" fill="#59C69E"/>
<path d="M80 64.9991L85.0003 65L84.9999 60.0004L79.9991 60.0003L80 64.9991Z" fill="#59C69E"/>
<path d="M90 64.9991H95.0003L95 60.0003H90V64.9991Z" fill="#59C69E"/>
<path d="M84.9999 64.9991H90V60.0003L84.9999 60.0004L84.9999 64.9991Z" fill="#59C69E"/>
<path d="M79.9991 74.9991H85.0003V70.0003L79.9991 70V74.9991Z" fill="#59C69E"/>
<path d="M79.9991 94.9991H85.0003V90L79.9991 90.0003V94.9991Z" fill="#231F20"/>
<path d="M95.0003 64.9991H99.9991L100 60.0003H95L95.0003 64.9991Z" fill="#59C69E"/>
<path d="M79.9991 85L85.0003 85.0003V80H79.9991V85Z" fill="#288568"/>
<path d="M79.9991 80H85.0003V74.9991L80 75L79.9991 80Z" fill="#BFE137"/>
<path d="M79.9991 90.0003L85.0003 90V85.0003L79.9991 85V90.0003Z" fill="#288568"/>
<path d="M125 64.9991H129.999V60.0003L125 60.0004L125 64.9991Z" fill="#BFE137"/>
<path d="M150 134.998H154.999L154.999 129.999H150L150 134.998Z" fill="#231F20"/>
<path d="M99.9991 64.9991H105V60.0003H100L99.9991 64.9991Z" fill="#4CAA8A"/>
<path d="M140 64.9991H145L145 60.0003H140V64.9991Z" fill="#59C69E"/>
<path d="M130 64.9991H134.999L135 60.0003L130 60V64.9991Z" fill="#59C69E"/>
<path d="M120 64.9991H125L125 60.0004H120L120 64.9991Z" fill="#BFE137"/>
<path d="M105 64.9991H110L110 60.0003H105V64.9991Z" fill="#59C69E"/>
<path d="M110 64.9991H115L115 60.0004L110 60.0003L110 64.9991Z" fill="#059D92"/>
<path d="M115 64.9991H120L120 60.0004H115L115 64.9991Z" fill="#59C69E"/>
<path d="M134.999 64.9991H140V60.0003H135L134.999 64.9991Z" fill="#59C69E"/>
<path d="M120 134.998H125V129.998H120V134.998Z" fill="#288568"/>
<path d="M125 135H130V130H125V135Z" fill="#231F20"/>
<path d="M105 130.001V135H110V130L105 130.001Z" fill="#231F20"/>
<path d="M110 135H115V130H110V135Z" fill="#955424"/>
<path d="M79.9991 105H85.0003V100L79.9991 100V105Z" fill="#231F20"/>
<path d="M145 135H150V130H145V135Z" fill="#231F20"/>
<path d="M130 134.998H134.999V129.998H130V134.998Z" fill="#288568"/>
<path d="M140 135H145V130H140V135Z" fill="#231F20"/>
<path d="M135 135H140V130H135V135Z" fill="#288568"/>
<path d="M115 134.998H120V129.998H115V134.998Z" fill="#231F20"/>
<path d="M79.9991 114.999H85.0003V110H79.9991V114.999Z" fill="#231F20"/>
<path d="M79.9991 120H85.0003V114.999L80 115L79.9991 120Z" fill="#231F20"/>
<path d="M79.9991 110H85.0003V105H79.9991V110Z" fill="#955424"/>
<path d="M80 125H85.0003V120H79.9991L80 125Z" fill="#231F20"/>
<path d="M75 125H80L79.9991 120H75V125Z" fill="#955424"/>
<path d="M130 60L135 60.0003V55L130 55.0001L130 60Z" fill="#BFE137"/>
<path d="M69.9998 74.9989L75 74.9991V70L69.9998 69.9998V74.9989Z" fill="#59C69E"/>
<path d="M69.9998 55.0003L75 55L75.0001 50H69.9998V55.0003Z" fill="#231F20"/>
<path d="M69.9998 79.9984H75.0001V74.998L69.9998 74.9989L69.9998 79.9984Z" fill="#BFE137"/>
<path d="M69.9998 64.9991L75 65V60.0003L69.9998 60V64.9991Z" fill="#FDDD04"/>
<path d="M69.9998 60L75 60.0003V55L69.9998 55.0003V60Z" fill="#FABC09"/>
<path d="M69.9998 69.9998L75 70V65L69.9998 64.9991L69.9998 69.9998Z" fill="#59C69E"/>
<path d="M69.9998 85.0003L75 85V80H69.9998V85.0003Z" fill="#231F20"/>
<path d="M70 100H75L74.9991 95H70V100Z" fill="#231F20"/>
<path d="M69.9998 94.999L75 94.9991V90.0003L69.9998 89.9999V94.999Z" fill="#288568"/>
<path d="M69.9998 89.9999L75 90.0003V85L69.9998 85.0003L69.9998 89.9999Z" fill="#BFE137"/>
<path d="M115 55.0001H120L119.999 50H115L115 55.0001Z" fill="#59C69E"/>
<path d="M100 55H105V50H100V55Z" fill="#59C69E"/>
<path d="M110 55L115 55.0001L115 50H110V55Z" fill="#059D92"/>
<path d="M105 55H110V50H105V55Z" fill="#59C69E"/>
<path d="M69.9998 105H75V100H70L69.9998 105Z" fill="#231F20"/>
<path d="M90 55H95L95.0003 50H90V55Z" fill="#59C69E"/>
<path d="M84.9999 55.0001L90 55V50H84.9999L84.9999 55.0001Z" fill="#59C69E"/>
<path d="M120 55.0001H125L125 50H119.999L120 55.0001Z" fill="#59C69E"/>
<path d="M95 55H100V50H95.0003L95 55Z" fill="#59C69E"/>
<path d="M75 55H79.9991V50H75.0001L75 55Z" fill="#FABC09"/>
<path d="M79.9991 55L84.9999 55.0001L84.9999 50H79.9991V55Z" fill="#FDDD04"/>
<path d="M69.9998 125H75V120L69.9998 120V125Z" fill="#CC8642"/>
<path d="M69.9998 120L75 120V114.999L69.9998 115V120Z" fill="#CC8642"/>
<path d="M69.9998 130H75.0002L75 125H69.9998L69.9998 130Z" fill="#231F20"/>
<path d="M69.9998 115L75 114.999V110L69.9998 110L69.9998 115Z" fill="#CC8642"/>
<path d="M69.9998 110L75 110V105H69.9998L69.9998 110Z" fill="#CC8642"/>
<path d="M145 140H150V135H145V140Z" fill="#955424"/>
<path d="M115 140H119.999V135L115 135L115 140Z" fill="#231F20"/>
<path d="M130 140H134.999L135 135H130L130 140Z" fill="#231F20"/>
<path d="M140 140H145V135H140V140Z" fill="#955424"/>
<path d="M119.999 140H125L125 135L119.999 135V140Z" fill="#231F20"/>
<path d="M125 140H130L130 135H125L125 140Z" fill="#231F20"/>
<path d="M134.999 140H140V135H135L134.999 140Z" fill="#231F20"/>
<path d="M155 140H160V135H155V140Z" fill="#955424"/>
<path d="M155 135H160V130H155V135Z" fill="#231F20"/>
<path d="M150 140H155V135L150 135V140Z" fill="#955424"/>
<path d="M75.0002 130L79.9991 130L80 125H75L75.0002 130Z" fill="#231F20"/>
<path d="M110 140H115L115 135H110L110 140Z" fill="#231F20"/>
<path d="M125 55.0001H130L130 50H125L125 55.0001Z" fill="#BFE137"/>
<path d="M154.999 60.0004L160 60.0003V55L154.999 55.0001V60.0004Z" fill="#BFE137"/>
<path d="M150 55.0001H154.999L154.999 50H150L150 55.0001Z" fill="#BFE137"/>
<path d="M154.999 55.0001L160 55V50H154.999L154.999 55.0001Z" fill="#BFE137"/>
<path d="M155 70.0003H160V65H155V70.0003Z" fill="#59C69E"/>
<path d="M154.999 125H160V120L154.999 120V125Z" fill="#231F20"/>
<path d="M130 55.0001L135 55L134.999 50H130L130 55.0001Z" fill="#BFE137"/>
<path d="M154.999 74.9989L160 74.9991V70.0003H155L154.999 74.9989Z" fill="#59C69E"/>
<path d="M135 55H140L139.999 50H134.999L135 55Z" fill="#59C69E"/>
<path d="M140 55H145V50H139.999L140 55Z" fill="#059D92"/>
<path d="M145 55L150 55.0001L150 50H145V55Z" fill="#59C69E"/>
<path d="M155 65H160V60.0003L155 60V65Z" fill="#BFE137"/>
<path d="M154.999 114.999L160 114.999V110L154.999 110V114.999Z" fill="#59C69E"/>
<path d="M154.999 110L160 110V105H154.999L154.999 110Z" fill="#059D92"/>
<path d="M154.999 120L160 120V114.999L155 115L154.999 120Z" fill="#288568"/>
<path d="M154.999 80L160 80.0003V74.9991L155 75L154.999 80Z" fill="#59C69E"/>
<path d="M154.999 105H160V100H154.999V105Z" fill="#231F20"/>
<path d="M154.999 85L160 85.0003V80.0003L154.999 80V85Z" fill="#059D92"/>
<path d="M154.999 100H160V95H154.999V100Z" fill="#231F20"/>
<path d="M154.999 90.0003H160V85.0003L154.999 85V90.0003Z" fill="#4CAA8A"/>
<path d="M155 94.9991L160 95V90.0003H154.999L155 94.9991Z" fill="#231F20"/>
<path d="M120 105H125V100H120V105Z" fill="#231F20"/>
<path d="M95 80.0003H99.9991V75H95V80.0003Z" fill="#288568"/>
<path d="M95 85.0003H99.9991V80.0003H95V85.0003Z" fill="#231F20"/>
<path d="M95 114.999H99.9991V110H95V114.999Z" fill="#59C69E"/>
<path d="M99.9991 80.0003H105V75H99.9991V80.0003Z" fill="#231F20"/>
<path d="M105 80.0003H110V75H105V80.0003Z" fill="#288568"/>
<path d="M95 90.0003H99.9991V85.0003H95V90.0003Z" fill="#288568"/>
<path d="M95 94.9991H99.9991V90.0003H95V94.9991Z" fill="#4CAA8A"/>
<path d="M95 105H99.9991V100H95V105Z" fill="#231F20"/>
<path d="M95 110H99.9991V105H95V110Z" fill="#99DCC2"/>
<path d="M95 100H99.9991V94.9991H95V100Z" fill="#288568"/>
<path d="M110 80.0003H115V75H110V80.0003Z" fill="#59C69E"/>
<path d="M130 94.999H134.999V89.9999H130V94.999Z" fill="#99DCC2"/>
<path d="M115 79.9984H119.999V74.998H115V79.9984Z" fill="#BFE137"/>
<path d="M130 100H134.999L134.999 94.999H130L130 100Z" fill="#59C69E"/>
<path d="M130 110H134.999V105H130V110Z" fill="#59C69E"/>
<path d="M130 105H134.999V100H130V105Z" fill="#59C69E"/>
<path d="M130 89.9999H134.999L134.999 85H130L130 89.9999Z" fill="#231F20"/>
<path d="M119.999 79.9984H125V74.998H119.999V79.9984Z" fill="#BFE137"/>
<path d="M125 80.0003H129.999V75H125V80.0003Z" fill="#BFE137"/>
<path d="M130 79.9984H134.999V74.998H130V79.9984Z" fill="#59C69E"/>
<path d="M130 85H134.999V80H130V85Z" fill="#59C69E"/>
<path d="M134.999 105L139.999 105V100L134.999 100V105Z" fill="#59C69E"/>
<path d="M134.999 94.999L139.999 94.9991V90L134.999 89.9999V94.999Z" fill="#59C69E"/>
<path d="M134.999 89.9999L139.999 90V85H134.999L134.999 89.9999Z" fill="#99DCC2"/>
<path d="M134.999 100L139.999 100V94.9991L135 95L134.999 100Z" fill="#59C69E"/>
<path d="M134.999 85H139.999V80H134.999V85Z" fill="#231F20"/>
<path d="M130 114.999H134.999L134.999 110H130L130 114.999Z" fill="#59C69E"/>
<path d="M99.9991 114.999H105V110H99.9991V114.999Z" fill="#59C69E"/>
<path d="M145 70.0003L150 69.9998L150 64.9991H145V70.0003Z" fill="#BFE137"/>
<path d="M134.999 80H139.999V75H135L134.999 80Z" fill="#059D92"/>
<path d="M130 74.998H134.999L134.999 69.9998H130L130 74.998Z" fill="#59C69E"/>
<path d="M135 75H139.999V70L134.999 69.9998L135 75Z" fill="#59C69E"/>
<path d="M125 75H129.999V70H125V75Z" fill="#BFE137"/>
<path d="M110 120H115V115H110V120Z" fill="#955424"/>
<path d="M105 114.999L105 120H110V115L105 114.999Z" fill="#231F20"/>
<path d="M100 120H105L105 114.999L100 115V120Z" fill="#288568"/>
<path d="M134.999 114.999L139.999 114.999V110L134.999 110L134.999 114.999Z" fill="#59C69E"/>
<path d="M130 120H134.999L134.999 114.999H130L130 120Z" fill="#59C69E"/>
<path d="M134.999 120H139.999V114.999L135 115L134.999 120Z" fill="#59C69E"/>
<path d="M125 120H130L130 114.999L125 115V120Z" fill="#231F20"/>
<path d="M125 115L130 114.999L130 110L125 110V115Z" fill="#59C69E"/>
<path d="M105 100H110V95H105V100Z" fill="#59C69E"/>
<path d="M105 95H110V90H105V95Z" fill="#59C69E"/>
<path d="M120 74.9989L125 74.998L125 70L120 69.9998V74.9989Z" fill="#BFE137"/>
<path d="M105 90H110V85H105V90Z" fill="#59C69E"/>
<path d="M105 105H110V100H105V105Z" fill="#59C69E"/>
<path d="M115 90.0003H119.999V85H115V90.0003Z" fill="#BFE137"/>
<path d="M120 110L125 110L125 105H120V110Z" fill="#231F20"/>
<path d="M125 110L130 110V105L125 105L125 110Z" fill="#59C69E"/>
<path d="M115 110H120V105L115 105V110Z" fill="#231F20"/>
<path d="M110 110H115V105L110 105L110 110Z" fill="#231F20"/>
<path d="M110 105L115 105L115 100L110 100V105Z" fill="#231F20"/>
<path d="M115 100H120L119.999 95H115L115 100Z" fill="#288568"/>
<path d="M110 100L115 100L115 95H110V100Z" fill="#231F20"/>
<path d="M110 95H115V90.0003L110 90V95Z" fill="#288568"/>
<path d="M115 95H119.999V90.0003H115V95Z" fill="#288568"/>
<path d="M119.999 90.0003H125V85H119.999V90.0003Z" fill="#59C69E"/>
<path d="M120 100H125V95H119.999L120 100Z" fill="#231F20"/>
<path d="M115 105L120 105V100H115L115 105Z" fill="#288568"/>
<path d="M120 94.999L125 95V90.0003H119.999L120 94.999Z" fill="#288568"/>
<path d="M110 90L115 90.0003V85H110V90Z" fill="#59C69E"/>
<path d="M99.9991 105H105V100L99.9991 100V105Z" fill="#99DCC2"/>
<path d="M105 110L110 110L110 105H105L105 110Z" fill="#288568"/>
<path d="M99.9991 110H105L105 105H99.9991V110Z" fill="#59C69E"/>
<path d="M99.9991 100L105 100V95H100L99.9991 100Z" fill="#59C69E"/>
<path d="M100 95H105V90L99.9991 90.0003L100 95Z" fill="#59C69E"/>
<path d="M105 114.999L110 115V110L105 110V114.999Z" fill="#231F20"/>
<path d="M120 114.999L125 115V110L120 110L120 114.999Z" fill="#231F20"/>
<path d="M99.9991 90.0003L105 90V85L99.9991 85.0003V90.0003Z" fill="#59C69E"/>
<path d="M110 115H115V110H110V115Z" fill="#231F20"/>
<path d="M115 85H119.999V80L115 80.0003L115 85Z" fill="#BFE137"/>
<path d="M125 85L129.999 85.0003V80.0003H125L125 85Z" fill="#59C69E"/>
<path d="M125 95L130 94.999V89.9999L125 90.0003V95Z" fill="#231F20"/>
<path d="M125 90.0003L130 89.9999L130 85H125V90.0003Z" fill="#59C69E"/>
<path d="M125 100L130 100L130 95H125V100Z" fill="#99DCC2"/>
<path d="M110 85H115L115 80.0003H110V85Z" fill="#59C69E"/>
<path d="M105 85H110V80.0003H105L105 85Z" fill="#59C69E"/>
<path d="M99.9991 85.0003L105 85L105 80.0003H99.9991V85.0003Z" fill="#288568"/>
<path d="M119.999 85H125L125 80.0003L119.999 80V85Z" fill="#BFE137"/>
<path d="M125 105L130 105V100L125 100V105Z" fill="#59C69E"/>
<path d="M134.999 110L139.999 110V105L134.999 105V110Z" fill="#59C69E"/>
<path d="M85.0003 114.999L90.0002 114.999V110L85.0003 110V114.999Z" fill="#99DCC2"/>
<path d="M85.0003 110L90.0002 110L90.0002 105L85.0003 105V110Z" fill="#231F20"/>
<path d="M85.0003 120H90.0002L90.0002 114.999L84.9999 115L85.0003 120Z" fill="#288568"/>
<path d="M85.0003 125H90.0002V120H85.0003V125Z" fill="#231F20"/>
<path d="M85.0003 94.9991L90.0002 94.999V89.9999L85.0003 90V94.9991Z" fill="#231F20"/>
<path d="M95 130H99.9991V125H95V130Z" fill="#231F20"/>
<path d="M90.0002 125L95 125L95.0003 120L90.0002 120V125Z" fill="#231F20"/>
<path d="M95 70.0003H99.9991V64.9991H95.0003L95 70.0003Z" fill="#4CAA8A"/>
<path d="M99.9991 130L105 130.001L105 125H99.9991V130Z" fill="#231F20"/>
<path d="M99.9991 70.0003H105V64.9991L100 65L99.9991 70.0003Z" fill="#339575"/>
<path d="M105 70.0003H110V64.9991H105V70.0003Z" fill="#4CAA8A"/>
<path d="M90 70.0003H95L95.0003 64.9991H90V70.0003Z" fill="#59C69E"/>
<path d="M85.0003 74.9991L90.0002 74.9989L90 70.0003H85.0003V74.9991Z" fill="#59C69E"/>
<path d="M85.0003 70.0003H90V64.9991H84.9999L85.0003 70.0003Z" fill="#59C69E"/>
<path d="M84.9999 79.9984H90.0002L90.0002 74.9989L84.9999 74.998V79.9984Z" fill="#59C69E"/>
<path d="M85.0003 85.0003H90.0002V80H85.0003V85.0003Z" fill="#4CAA8A"/>
<path d="M85.0003 90L90.0002 89.9999L90.0002 85.0003H85.0003V90Z" fill="#288568"/>
<path d="M105 125L105 130.001L110 130V125H105Z" fill="#955424"/>
<path d="M145 100L150 100V95H145V100Z" fill="#59C69E"/>
<path d="M145 95H150V90.0003L145 90V95Z" fill="#59C69E"/>
<path d="M145 105L150 105V100L145 100V105Z" fill="#4CAA8A"/>
<path d="M145 110L150 110L150 105L145 105V110Z" fill="#288568"/>
<path d="M110 70.0003H115V64.9991H110V70.0003Z" fill="#59C69E"/>
<path d="M145 85.0003L150 85V80H145V85.0003Z" fill="#231F20"/>
<path d="M145 90L150 90.0003V85L145 85.0003V90Z" fill="#59C69E"/>
<path d="M145 80H150L150 75H145V80Z" fill="#BFE137"/>
<path d="M145 75H150L150 69.9998L145 70.0003V75Z" fill="#BFE137"/>
<path d="M145 120H150L150 114.999L145 115V120Z" fill="#231F20"/>
<path d="M145 115L150 114.999V110L145 110V115Z" fill="#231F20"/>
<path d="M120 129.998H125L125 125H120L120 129.998Z" fill="#59C69E"/>
<path d="M115 129.998L119.999 129.999L120 125H115L115 129.998Z" fill="#231F20"/>
<path d="M125 130H130V125L125 125L125 130Z" fill="#59C69E"/>
<path d="M145 125H150V120H145V125Z" fill="#231F20"/>
<path d="M110 130H115L115 125L110 125V130Z" fill="#CC8642"/>
<path d="M140 130H145V125L140 125V130Z" fill="#4CAA8A"/>
<path d="M145 130H150L150 125H145V130Z" fill="#288568"/>
<path d="M130 129.998H134.999L134.999 125L130 125L130 129.998Z" fill="#59C69E"/>
<path d="M135 130L139.999 129.999L140 125L134.999 125L135 130Z" fill="#59C69E"/>
<path d="M90.0002 114.999L95 114.999V110L90.0002 110V114.999Z" fill="#59C69E"/>
<path d="M95.0003 120L100 120L99.9991 114.999H95L95.0003 120Z" fill="#288568"/>
<path d="M115 70.0003L120 69.9998L119.999 65L115 64.9991V70.0003Z" fill="#59C69E"/>
<path d="M115 74.998H119.999L120 69.9998L115 70.0003L115 74.998Z" fill="#59C69E"/>
<path d="M90.0002 110L95 110V105L90.0002 105L90.0002 110Z" fill="#231F20"/>
<path d="M99.9991 125H105L105 120H100L99.9991 125Z" fill="#231F20"/>
<path d="M105 120L105 125H110L110 120H105Z" fill="#CC8642"/>
<path d="M110 125L115 125L115 120H110L110 125Z" fill="#CC8642"/>
<path d="M95 125H99.9991L100 120L95.0003 120L95 125Z" fill="#231F20"/>
<path d="M90 100L95 100V94.9991L90 95V100Z" fill="#231F20"/>
<path d="M90.0002 89.9999L95 90.0003V85.0003H90.0002L90.0002 89.9999Z" fill="#231F20"/>
<path d="M90 95L95 94.9991V90.0003L90.0002 89.9999L90 95Z" fill="#288568"/>
<path d="M100 74.9991L105 75V70.0003H99.9991L100 74.9991Z" fill="#231F20"/>
<path d="M105 75H110V70.0003H105V75Z" fill="#288568"/>
<path d="M110 75H115V70.0003H110V75Z" fill="#59C69E"/>
<path d="M95 75H99.9991V70.0003H95V75Z" fill="#288568"/>
<path d="M90.0002 85.0003H95V80.0003L90.0002 80V85.0003Z" fill="#4CAA8A"/>
<path d="M115 125H120L119.999 120H115L115 125Z" fill="#955424"/>
<path d="M90.0002 74.9989L95 75V70.0003H90L90.0002 74.9989Z" fill="#59C69E"/>
<path d="M90.0002 80L95 80.0003V75H90L90.0002 80Z" fill="#4CAA8A"/>
<path d="M90.0002 120L95.0003 120L95 114.999L90.0002 114.999L90.0002 120Z" fill="#231F20"/>
<path d="M139.999 80H145V75H139.999V80Z" fill="#59C69E"/>
<path d="M140 74.9991L145 75V70.0003L139.999 70L140 74.9991Z" fill="#59C69E"/>
<path d="M139.999 90H145V85.0003L139.999 85V90Z" fill="#59C69E"/>
<path d="M139.999 85L145 85.0003V80H139.999V85Z" fill="#231F20"/>
<path d="M139.999 70L145 70.0003V64.9991H140L139.999 70Z" fill="#59C69E"/>
<path d="M120 125H125L125 120H119.999L120 125Z" fill="#231F20"/>
<path d="M120 69.9998L125 70V64.9991H120L120 69.9998Z" fill="#BFE137"/>
<path d="M125 70H129.999V64.9991H125V70Z" fill="#BFE137"/>
<path d="M134.999 69.9998L139.999 70V65H135L134.999 69.9998Z" fill="#059D92"/>
<path d="M130 69.9998H134.999L134.999 64.9991H130L130 69.9998Z" fill="#59C69E"/>
<path d="M139.999 94.9991L145 95V90H139.999V94.9991Z" fill="#59C69E"/>
<path d="M134.999 125L140 125L139.999 120H134.999L134.999 125Z" fill="#59C69E"/>
<path d="M130 125L134.999 125L134.999 120H130L130 125Z" fill="#59C69E"/>
<path d="M140 125L145 125V120H139.999L140 125Z" fill="#4CAA8A"/>
<path d="M139.999 100L145 100V95H140L139.999 100Z" fill="#59C69E"/>
<path d="M125 125L130 125L130 120H125L125 125Z" fill="#231F20"/>
<path d="M139.999 110L145 110V105H139.999V110Z" fill="#4CAA8A"/>
<path d="M139.999 120H145V115H140L139.999 120Z" fill="#4CAA8A"/>
<path d="M139.999 105H145V100L139.999 100V105Z" fill="#59C69E"/>
<path d="M140 115H145V110L139.999 110L140 115Z" fill="#4CAA8A"/>
<path d="M130 160H135L134.999 155H130L130 160Z" fill="#59C69E"/>
<path d="M55 105H59.9991V100H55V105Z" fill="#955424"/>
<path d="M55 130H59.9991V125H55V130Z" fill="#231F20"/>
<path d="M55 94.9991H59.9991V90H55V94.9991Z" fill="#288568"/>
<path d="M55 90H59.9991V85H55V90Z" fill="#231F20"/>
<path d="M55 85H59.9991V80H55V85Z" fill="#231F20"/>
<path d="M55 80L60.0003 80.0003V75H55V80Z" fill="#E5EA08"/>
<path d="M55 110H59.9991V105H55V110Z" fill="#231F20"/>
<path d="M55 100H59.9991V94.9991H55V100Z" fill="#231F20"/>
<path d="M55 40.0003H59.9991V35H55V40.0003Z" fill="#59C69E"/>
<path d="M55 44.9991H59.9991V40.0003H55V44.9991Z" fill="#59C69E"/>
<path d="M59.9991 40.0003H65.0003V35H59.9991V40.0003Z" fill="#59C69E"/>
<path d="M65.0003 40.0003H70.0003V35H65.0003V40.0003Z" fill="#59C69E"/>
<path d="M55 75H60.0003V70H55V75Z" fill="#59C69E"/>
<path d="M55 70H60.0003V65H55V70Z" fill="#59C69E"/>
<path d="M55 65H60.0003V60H55V65Z" fill="#59C69E"/>
<path d="M55 55.0003H59.9991V50H55V55.0003Z" fill="#59C69E"/>
<path d="M55 60L59.9991 60.0003V55.0003H55V60Z" fill="#59C69E"/>
<path d="M55 134.999H59.9991V130H55V134.999Z" fill="#CC8642"/>
<path d="M119.999 160H125L125 155H120L119.999 160Z" fill="#231F20"/>
<path d="M125 160L130 160L130 155H125L125 160Z" fill="#59C69E"/>
<path d="M70.0003 40.0003H74.9991V35H70.0003V40.0003Z" fill="#59C69E"/>
<path d="M55 140H59.9991V134.999H55V140Z" fill="#231F20"/>
<path d="M55 50H59.9991V44.9991H55V50Z" fill="#59C69E"/>
<path d="M170 74.9991H174.999V70H170V74.9991Z" fill="#59C69E"/>
<path d="M170 80.0003H174.999V74.9991H170V80.0003Z" fill="#59C69E"/>
<path d="M170 85.0003H174.999V80.0003H170V85.0003Z" fill="#59C69E"/>
<path d="M170 100H174.999V95H170V100Z" fill="#59C69E"/>
<path d="M170 90.0003H174.999V85.0003H170V90.0003Z" fill="#BFE137"/>
<path d="M170 95H174.999V90.0003H170V95Z" fill="#BFE137"/>
<path d="M170 60.0003H174.999V55H170V60.0003Z" fill="#59C69E"/>
<path d="M170 55H174.999V50H170V55Z" fill="#059D92"/>
<path d="M170 50H174.999V45H170V50Z" fill="#59C69E"/>
<path d="M170 70H174.999V65H170V70Z" fill="#59C69E"/>
<path d="M170 65H174.999V60.0003H170V65Z" fill="#059D92"/>
<path d="M170 140H174.999V135H170V140Z" fill="#231F20"/>
<path d="M170 135H174.999V130H170V135Z" fill="#288568"/>
<path d="M170 130H174.999V125H170V130Z" fill="#288568"/>
<path d="M170 145H174.999V140H170V145Z" fill="#231F20"/>
<path d="M140 145H145L145 140H140V145Z" fill="#231F20"/>
<path d="M170 110H174.999V105H170V110Z" fill="#59C69E"/>
<path d="M170 114.999H174.999V110H170V114.999Z" fill="#BFE137"/>
<path d="M170 125H174.999V120H170V125Z" fill="#59C69E"/>
<path d="M170 105H174.999V100H170V105Z" fill="#59C69E"/>
<path d="M135 40.0003H139.999V35H135V40.0003Z" fill="#59C69E"/>
<path d="M100 40.0003H105V35H100V40.0003Z" fill="#231F20"/>
<path d="M125 40.0003H130V35H125V40.0003Z" fill="#BFE137"/>
<path d="M105 40.0003H110V35H105V40.0003Z" fill="#99DCC2"/>
<path d="M115 40.0002H119.999V34.9999H115V40.0002Z" fill="#59C69E"/>
<path d="M119.999 40.0002L125 40.0003V35L119.999 34.9999V40.0002Z" fill="#59C69E"/>
<path d="M110 40.0003L115 40.0002V34.9999L110 35V40.0003Z" fill="#99DCC2"/>
<path d="M84.9999 40.0002H90.0002V34.9999H84.9999V40.0002Z" fill="#BFE137"/>
<path d="M170 45H174.999V40H170V45Z" fill="#99DCC2"/>
<path d="M95 40.0003H100V35H95V40.0003Z" fill="#59C69E"/>
<path d="M90.0002 40.0002L95 40.0003V35L90.0002 34.9999V40.0002Z" fill="#BFE137"/>
<path d="M80 40.0003L84.9999 40.0002V34.9999L80 35V40.0003Z" fill="#59C69E"/>
<path d="M130 40.0003H135V35H130V40.0003Z" fill="#BFE137"/>
<path d="M165 40.0002L170 40L170 34.9999H165V40.0002Z" fill="#99DCC2"/>
<path d="M170 40H174.999V35L170 34.9999L170 40Z" fill="#231F20"/>
<path d="M155 40.0003H160V35H155V40.0003Z" fill="#BFE137"/>
<path d="M160 40.0003L165 40.0002V34.9999L160 35V40.0003Z" fill="#59C69E"/>
<path d="M150 40.0002L155 40.0003V35L150 34.9999V40.0002Z" fill="#BFE137"/>
<path d="M74.9991 40.0003H80V35H74.9991V40.0003Z" fill="#59C69E"/>
<path d="M139.999 40.0003H145V35H139.999V40.0003Z" fill="#59C69E"/>
<path d="M145 40.0003L150 40.0002V34.9999L145 35V40.0003Z" fill="#59C69E"/>
<path d="M65.0003 35H70.0003V30.0003H65.0003V35Z" fill="#59C69E"/>
<path d="M59.9991 35H65.0003V30.0003H60L59.9991 35Z" fill="#59C69E"/>
<path d="M74.9991 35H80L79.9991 30.0003H75.0001L74.9991 35Z" fill="#BFE137"/>
<path d="M55 35H59.9991L60 30.0003H55.0003L55 35Z" fill="#BFE137"/>
<path d="M70.0003 35L75.0001 35.0003V30.0003H70.0003V35Z" fill="#BFE137"/>
<path d="M50.0003 50.0003L55 50V44.9991L50.0003 45V50.0003Z" fill="#FDDD04"/>
<path d="M50.0003 45L55 44.9991V40.0003H50.0003V45Z" fill="#59C69E"/>
<path d="M135 160H139.999V155H134.999L135 160Z" fill="#59C69E"/>
<path d="M50.0003 35H55L55.0003 30.0003H50L50.0003 35Z" fill="#BFE137"/>
<path d="M50.0003 40.0003H55V35H50.0003V40.0003Z" fill="#59C69E"/>
<path d="M50.0003 55.0003H55V50L50.0003 50.0003V55.0003Z" fill="#FDDD04"/>
<path d="M110 35L115 34.9999L115 30H110L110 35Z" fill="#231F20"/>
<path d="M115 34.9999H119.999L120 30.0003L115 30L115 34.9999Z" fill="#231F20"/>
<path d="M119.999 34.9999L125 35V30.0003H120L119.999 34.9999Z" fill="#99DCC2"/>
<path d="M125 35H130L130 30.0003H125V35Z" fill="#E5EF5E"/>
<path d="M105 35L109.999 35.0003L110 30H105L105 35Z" fill="#231F20"/>
<path d="M84.9999 34.9999L89.9991 35.0003V30L84.9999 30.0003L84.9999 34.9999Z" fill="#59C69E"/>
<path d="M89.9991 35.0003L95 35L95.0003 30.0003L89.9991 30V35.0003Z" fill="#BFE137"/>
<path d="M95 35H100L100 30L95.0003 30.0003L95 35Z" fill="#BFE137"/>
<path d="M100 35H105L105 30L99.9991 30.0003L100 35Z" fill="#231F20"/>
<path d="M50.0003 130L55 130V125L50 125L50.0003 130Z" fill="#231F20"/>
<path d="M170 149.999H174.999V145H170V149.999Z" fill="#955424"/>
<path d="M50.0003 134.999H55V130L50.0003 130V134.999Z" fill="#CC8642"/>
<path d="M50.0003 110H55V105L50.0003 105V110Z" fill="#231F20"/>
<path d="M130 35H135L134.999 30.0003H130L130 35Z" fill="#E5EF5E"/>
<path d="M50.0003 60H55V55.0003H50.0003V60Z" fill="#FDDD04"/>
<path d="M50.0003 145H55.0003L55 140L50.0003 140V145Z" fill="#231F20"/>
<path d="M50.0003 140L55 140V134.999H50.0003V140Z" fill="#CC8642"/>
<path d="M50 79.9984H55.0003V74.998H50V79.9984Z" fill="#BFE137"/>
<path d="M50 74.998H55.0003L55 70L50.0003 70.0003L50 74.998Z" fill="#59C69E"/>
<path d="M50.0003 70.0003L55 70V65L50.0003 64.9991V70.0003Z" fill="#59C69E"/>
<path d="M50.0003 64.9991L55 65V60H50.0003V64.9991Z" fill="#59C69E"/>
<path d="M50.0003 85H55V80L50.0003 80.0003V85Z" fill="#231F20"/>
<path d="M50.0003 94.9991H55V90L50.0003 90.0003V94.9991Z" fill="#231F20"/>
<path d="M50.0003 105L55 105V100H50.0003V105Z" fill="#955424"/>
<path d="M50.0003 100H55V94.9991H50.0003V100Z" fill="#231F20"/>
<path d="M50.0003 90.0003L55 90V85H50.0003V90.0003Z" fill="#B01719"/>
<path d="M80 35L84.9999 34.9999L84.9999 30.0003L80.0002 30L80 35Z" fill="#59C69E"/>
<path d="M175 129.999H180L180 125L174.999 125L175 129.999Z" fill="#059D92"/>
<path d="M174.999 125L180 125V120L174.999 120V125Z" fill="#59C69E"/>
<path d="M174.999 135H180L180 129.999H175L174.999 135Z" fill="#BFE137"/>
<path d="M174.999 145H180V140H174.999V145Z" fill="#288568"/>
<path d="M174.999 140H180V135H174.999V140Z" fill="#BFE137"/>
<path d="M174.999 149.999L180 150V145H174.999V149.999Z" fill="#231F20"/>
<path d="M174.999 100H180L180 95H174.999V100Z" fill="#059D92"/>
<path d="M174.999 110H180V105H174.999V110Z" fill="#BFE137"/>
<path d="M174.999 120L180 120V115H175L174.999 120Z" fill="#59C69E"/>
<path d="M175 115H180V110H174.999L175 115Z" fill="#BFE137"/>
<path d="M174.999 105H180V100H174.999V105Z" fill="#59C69E"/>
<path d="M145 160L150 160L150 155H145L145 160Z" fill="#231F20"/>
<path d="M175 154.999L180 155V150H175V154.999Z" fill="#231F20"/>
<path d="M139.999 160H145L145 155H139.999V160Z" fill="#59C69E"/>
<path d="M135 35H139.999L140 30.0003H134.999L135 35Z" fill="#99DCC2"/>
<path d="M175 160L180 160V155L175 154.999V160Z" fill="#231F20"/>
<path d="M175 44.9991L180 45L180 40H174.999L175 44.9991Z" fill="#231F20"/>
<path d="M160 35L165 34.9999L165 30.0003H160L160 35Z" fill="#99DCC2"/>
<path d="M165 34.9999H170L170 30L165 30.0003L165 34.9999Z" fill="#231F20"/>
<path d="M155 35H160L160 30.0003H155V35Z" fill="#E5EF5E"/>
<path d="M145 35L150 34.9999L150 30.0003H145V35Z" fill="#99DCC2"/>
<path d="M139.999 35H145V30.0003H140L139.999 35Z" fill="#059D92"/>
<path d="M150 34.9999L155 35V30.0003H150L150 34.9999Z" fill="#E5EF5E"/>
<path d="M175 94.9991L180 95L180 89.9999L174.999 90.0003L175 94.9991Z" fill="#BFE137"/>
<path d="M174.999 50L180 50.0003V45L175 44.9991L174.999 50Z" fill="#99DCC2"/>
<path d="M174.999 85.0003H180V80L174.999 80.0003V85.0003Z" fill="#BFE137"/>
<path d="M174.999 74.9991H180L180 70.0003L174.999 70V74.9991Z" fill="#59C69E"/>
<path d="M174.999 90.0003L180 89.9999L180 85.0003H174.999V90.0003Z" fill="#BFE137"/>
<path d="M174.999 80.0003L180 80L180 74.9991L175 75L174.999 80.0003Z" fill="#BFE137"/>
<path d="M174.999 55L180 55.0001L180 50.0003L174.999 50V55Z" fill="#59C69E"/>
<path d="M174.999 60.0003L180 60L180 55.0001L174.999 55V60.0003Z" fill="#59C69E"/>
<path d="M175 64.9991H180V60L174.999 60.0003L175 64.9991Z" fill="#59C69E"/>
<path d="M174.999 70L180 70.0003V64.9991H175L174.999 70Z" fill="#59C69E"/>
<path d="M170 120H174.999V114.999H170V120Z" fill="#BFE137"/>
<path d="M65 130L69.9998 130L69.9998 125L65 125V130Z" fill="#CC8642"/>
<path d="M65 105H69.9998L70 100L65 100V105Z" fill="#955424"/>
<path d="M65 120L69.9998 120V115H65V120Z" fill="#231F20"/>
<path d="M65 115L70.0003 114.999L69.9998 110L65 110V115Z" fill="#955424"/>
<path d="M65 110L69.9998 110L69.9998 105H65V110Z" fill="#CC8642"/>
<path d="M65 125L69.9998 125V120L65 120V125Z" fill="#CC8642"/>
<path d="M65 134.999H70.0003L69.9998 130L65 130V134.999Z" fill="#231F20"/>
<path d="M65 70.0003L69.9998 69.9998L70.0003 65H65V70.0003Z" fill="#59C69E"/>
<path d="M65 65H70.0003L69.9998 60H65V65Z" fill="#FDDD04"/>
<path d="M65 74.9991L69.9998 74.9989V69.9998L65 70.0003V74.9991Z" fill="#59C69E"/>
<path d="M65 55.0003H69.9998V50H65V55.0003Z" fill="#FABC09"/>
<path d="M65 60H69.9998V55.0003H65V60Z" fill="#FABC09"/>
<path d="M65 94.9991L70 95L69.9998 89.9999L65 90V94.9991Z" fill="#288568"/>
<path d="M65 90L69.9998 89.9999L69.9998 85.0003L65 85V90Z" fill="#E5EA08"/>
<path d="M65 80.0003L69.9998 80L70.0003 75L65 74.9991V80.0003Z" fill="#E5EA08"/>
<path d="M65 100L70 100V95L65 94.9991V100Z" fill="#231F20"/>
<path d="M65 85L69.9998 85.0003V80L65 80.0003V85Z" fill="#231F20"/>
<path d="M65 50H69.9998L70.0003 45H65V50Z" fill="#FABC09"/>
<path d="M165 145H170V140L165 140V145Z" fill="#CC8642"/>
<path d="M165 149.999L170 149.999V145H165L165 149.999Z" fill="#955424"/>
<path d="M160 149.999L165 149.999L165 145L160 145V149.999Z" fill="#231F20"/>
<path d="M155 149.999H160V145H155V149.999Z" fill="#231F20"/>
<path d="M160 90.0003H165V85L160 85.0003V90.0003Z" fill="#59C69E"/>
<path d="M165 140L170 140V135H165V140Z" fill="#231F20"/>
<path d="M160 100L165 100V95H160V100Z" fill="#BFE137"/>
<path d="M69.9998 50H75.0001V45H70.0003L69.9998 50Z" fill="#FABC09"/>
<path d="M160 105L165 105V100L160 100V105Z" fill="#59C69E"/>
<path d="M160 114.999H165V110H160V114.999Z" fill="#59C69E"/>
<path d="M160 110H165V105L160 105V110Z" fill="#59C69E"/>
<path d="M160 70.0003H165V65H160V70.0003Z" fill="#59C69E"/>
<path d="M160 85.0003L165 85V80L160 80.0003V85.0003Z" fill="#59C69E"/>
<path d="M160 74.9991H165V70.0003H160V74.9991Z" fill="#59C69E"/>
<path d="M160 65H165V60L160 60.0003V65Z" fill="#59C69E"/>
<path d="M160 80.0003L165 80V74.9991H160V80.0003Z" fill="#59C69E"/>
<path d="M155 145H160L160 140H155V145Z" fill="#955424"/>
<path d="M150 145L155 145V140H150L150 145Z" fill="#231F20"/>
<path d="M160 145L165 145V140L160 140L160 145Z" fill="#CC8642"/>
<path d="M145 145H150L150 140H145L145 145Z" fill="#231F20"/>
<path d="M170 154.999H175L174.999 149.999H170V154.999Z" fill="#231F20"/>
<path d="M160 125H165V120H160V125Z" fill="#231F20"/>
<path d="M160 140L165 140V135H160V140Z" fill="#955424"/>
<path d="M160 120H165V114.999H160V120Z" fill="#BFE137"/>
<path d="M160 95H165V90.0003H160V95Z" fill="#BFE137"/>
<path d="M100 50H105V45H100V50Z" fill="#231F20"/>
<path d="M95.0003 50H100V45H95L95.0003 50Z" fill="#59C69E"/>
<path d="M105 50H110L110 45H105V50Z" fill="#4CAA8A"/>
<path d="M119.999 50H125V45H120L119.999 50Z" fill="#59C69E"/>
<path d="M115 50H119.999L120 45H115V50Z" fill="#59C69E"/>
<path d="M110 50H115V45H110L110 50Z" fill="#59C69E"/>
<path d="M79.9991 50H84.9999L85.0003 45H80L79.9991 50Z" fill="#FDDD04"/>
<path d="M90 50H95.0003L95 45H90V50Z" fill="#059D92"/>
<path d="M75.0001 50H79.9991L80 45H75.0001V50Z" fill="#FABC09"/>
<path d="M84.9999 50H90V45H85.0003L84.9999 50Z" fill="#59C69E"/>
<path d="M130 50H134.999V45H130L130 50Z" fill="#BFE137"/>
<path d="M160 50L165 50.0003V45H160L160 50Z" fill="#59C69E"/>
<path d="M150 50H154.999V45H150V50Z" fill="#BFE137"/>
<path d="M125 50H130L130 45H125V50Z" fill="#BFE137"/>
<path d="M160 55L165 55.0003V50.0003L160 50V55Z" fill="#59C69E"/>
<path d="M154.999 50H160L160 45H154.999V50Z" fill="#BFE137"/>
<path d="M145 50H150V45H145L145 50Z" fill="#59C69E"/>
<path d="M160 60.0003L165 60V55.0003L160 55V60.0003Z" fill="#59C69E"/>
<path d="M134.999 50H139.999V45H134.999V50Z" fill="#59C69E"/>
<path d="M139.999 50H145L145 45H139.999V50Z" fill="#59C69E"/>
<path d="M160 135H165L165 130H160V135Z" fill="#231F20"/>
<path d="M59.9991 130H65V125H59.9991V130Z" fill="#CC8642"/>
<path d="M59.9991 110L65 110V105H59.9991V110Z" fill="#955424"/>
<path d="M60 114.999L65 115V110L59.9991 110L60 114.999Z" fill="#231F20"/>
<path d="M59.9991 134.999H65V130H59.9991V134.999Z" fill="#955424"/>
<path d="M59.9991 60.0003L65 60V55.0003H59.9991V60.0003Z" fill="#FDDD04"/>
<path d="M59.9991 140H65.0003L65 134.999L60 135L59.9991 140Z" fill="#231F20"/>
<path d="M59.9991 125H65V120L60 120L59.9991 125Z" fill="#231F20"/>
<path d="M59.9991 105H65V100H59.9991V105Z" fill="#955424"/>
<path d="M59.9991 80L65 80.0003V74.9991L60.0003 75L59.9991 80Z" fill="#BFE137"/>
<path d="M60.0003 70L65 70.0003V65H60.0003V70Z" fill="#59C69E"/>
<path d="M60.0003 65H65V60L59.9991 60.0003L60.0003 65Z" fill="#59C69E"/>
<path d="M60.0003 75L65 74.9991V70.0003L60.0003 70V75Z" fill="#231F20"/>
<path d="M59.9991 94.9991H65V90H59.9991V94.9991Z" fill="#288568"/>
<path d="M59.9991 85H65V80.0003L59.9991 80V85Z" fill="#231F20"/>
<path d="M59.9991 100H65V94.9991L60 95L59.9991 100Z" fill="#231F20"/>
<path d="M59.9991 90H65V85H59.9991V90Z" fill="#BFE137"/>
<path d="M135 154.999L139.999 155V150H135V154.999Z" fill="#231F20"/>
<path d="M140 154.999L145 155L145 150H139.999L140 154.999Z" fill="#231F20"/>
<path d="M130 155H134.999L135 150H130V155Z" fill="#231F20"/>
<path d="M125 155H130V150H125L125 155Z" fill="#231F20"/>
<path d="M165 154.999H170L170 150L165 149.999L165 154.999Z" fill="#231F20"/>
<path d="M65 45H70.0003V40.0003H65.0003L65 45Z" fill="#FDDD04"/>
<path d="M165 60L170 60.0003V55L165 55.0003V60Z" fill="#59C69E"/>
<path d="M165 65L170 64.9991L170 60.0003L165 60V65Z" fill="#59C69E"/>
<path d="M165 70.0003L170 70L170 64.9991L165 65V70.0003Z" fill="#59C69E"/>
<path d="M165 79.9984H170V74.998H165V79.9984Z" fill="#59C69E"/>
<path d="M155 44.9991L160 45L160 40.0003H155V44.9991Z" fill="#BFE137"/>
<path d="M165 50.0003L170 50V45H165V50.0003Z" fill="#59C69E"/>
<path d="M165 45H170V40L165 40.0002L165 45Z" fill="#59C69E"/>
<path d="M165 55.0003L170 55V50L165 50.0003V55.0003Z" fill="#59C69E"/>
<path d="M160 45H165L165 40.0002L160 40.0003L160 45Z" fill="#59C69E"/>
<path d="M165 85L170 85.0003V80.0003L165 80V85Z" fill="#59C69E"/>
<path d="M165 74.998L170 74.9991V70L165 70.0003L165 74.998Z" fill="#059D92"/>
<path d="M165 114.999H170V110L165 110V114.999Z" fill="#BFE137"/>
<path d="M165 125L170 125V120H165V125Z" fill="#288568"/>
<path d="M165 120H170L170 115L165 114.999V120Z" fill="#BFE137"/>
<path d="M165 129.999H170L170 125L165 125L165 129.999Z" fill="#231F20"/>
<path d="M165 100H170V95H165V100Z" fill="#59C69E"/>
<path d="M165 94.999H170L170 90.0003H165L165 94.999Z" fill="#BFE137"/>
<path d="M165 90.0003H170V85.0003L165 85V90.0003Z" fill="#BFE137"/>
<path d="M165 110L170 110V105L165 105V110Z" fill="#59C69E"/>
<path d="M165 105L170 105V100H165V105Z" fill="#059D92"/>
<path d="M105 45H110V40.0003H105V45Z" fill="#4CAA8A"/>
<path d="M80 45H85.0003L84.9999 40.0002L80 40.0003V45Z" fill="#59C69E"/>
<path d="M85.0003 45H90L90.0002 40.0002H84.9999L85.0003 45Z" fill="#59C69E"/>
<path d="M75.0001 45L79.9991 44.9991L80 40.0003H74.9991L75.0001 45Z" fill="#FDDD04"/>
<path d="M90 45H95V40.0003L90.0002 40.0002L90 45Z" fill="#59C69E"/>
<path d="M95 45L99.9991 44.9991L100 40.0003H95V45Z" fill="#59C69E"/>
<path d="M100 45H105V40.0003H100V45Z" fill="#231F20"/>
<path d="M59.9991 50H65V45H60L59.9991 50Z" fill="#FDDD04"/>
<path d="M70.0003 45H75.0001L75.0002 40.0002L70.0003 40.0003V45Z" fill="#FDDD04"/>
<path d="M60 45H65L65.0003 40.0003H59.9991L60 45Z" fill="#59C69E"/>
<path d="M165 134.998H170L170 129.999H165L165 134.998Z" fill="#231F20"/>
<path d="M110 45H115L115 40.0002L110 40.0003V45Z" fill="#59C69E"/>
<path d="M130 45H134.999L135 40.0003H130L130 45Z" fill="#BFE137"/>
<path d="M135 44.9991L139.999 45V40.0003H135V44.9991Z" fill="#59C69E"/>
<path d="M140 44.9991L145 45L145 40.0003H139.999L140 44.9991Z" fill="#059D92"/>
<path d="M145 45H150L150 40.0002L145 40.0003L145 45Z" fill="#59C69E"/>
<path d="M150 45H154.999L155 40.0003L150 40.0002L150 45Z" fill="#BFE137"/>
<path d="M115 45H120L120 40.0002L115 40.0002L115 45Z" fill="#059D92"/>
<path d="M59.9991 55.0003H65V50H59.9991V55.0003Z" fill="#FDDD04"/>
<path d="M120 45H125L125 40.0003L119.999 40.0002L120 45Z" fill="#59C69E"/>
<path d="M125 45H130L130 40.0003H125L125 45Z" fill="#BFE137"/>
<path d="M0 94.999H4.9991V89.9999H0V94.999Z" fill="#231F20"/>
<path d="M0 100H4.9991V94.999H0V100Z" fill="#CC8642"/>
<path d="M0 105H4.9991V100H0V105Z" fill="#231F20"/>
<path d="M15.0001 105H20.0005V100H15.0001V105Z" fill="#231F20"/>
<path d="M15.0001 100H20.0005V95H15.0001V100Z" fill="#CC8642"/>
<path d="M15.0001 95H20.0005L20.0004 89.9999H15.0001L15.0001 95Z" fill="#231F20"/>
<path d="M15.0001 145H20.0005V140H15.0001V145Z" fill="#231F20"/>
<path d="M15.0001 149.999H20.0004L20.0005 145H15.0001L15.0001 149.999Z" fill="#CC8642"/>
<path d="M15.0001 154.999H20.0005L20.0004 149.999H15.0001L15.0001 154.999Z" fill="#231F20"/>
<path d="M215 140H220V135H215V140Z" fill="#231F20"/>
<path d="M215 149.999H220V145H215V149.999Z" fill="#955424"/>
<path d="M215 154.999H220L220 149.999H215L215 154.999Z" fill="#231F20"/>
<path d="M215 145H220L220 140H215L215 145Z" fill="#CC8642"/>
<path d="M145 200H150V195H145V200Z" fill="#231F20"/>
<path d="M140 200H145V195H140V200Z" fill="#231F20"/>
<path d="M135 200H140V195H135V200Z" fill="#231F20"/>
<path d="M150 200H154.999V195H150V200Z" fill="#231F20"/>
<path d="M154.999 200H160V195H154.999V200Z" fill="#231F20"/>
<path d="M75 5H79.9991V0H75V5Z" fill="#231F20"/>
<path d="M69.9998 5H75V0H69.9998L69.9998 5Z" fill="#231F20"/>
<path d="M80 4.9991H85.0003V0H79.9991L80 4.9991Z" fill="#231F20"/>
<path d="M19.9998 110H24.9989V105L20.0005 105L19.9998 110Z" fill="#231F20"/>
<path d="M20.0005 105L24.9989 105V100H20.0005V105Z" fill="#955424"/>
<path d="M20.0004 149.999H24.9989V145L20.0005 145L20.0004 149.999Z" fill="#CC8642"/>
<path d="M20.0005 145L24.9989 145L24.9989 140H20.0005V145Z" fill="#231F20"/>
<path d="M19.9998 64.9991H24.9989V60H19.9998V64.9991Z" fill="#231F20"/>
<path d="M19.9998 70.0003H24.9989V64.9991H19.9998V70.0003Z" fill="#231F20"/>
<path d="M19.9998 74.9989H24.9989L24.9989 70.0003H19.9998L19.9998 74.9989Z" fill="#231F20"/>
<path d="M19.9998 60H24.9989L24.9989 55.0001H19.9998L19.9998 60Z" fill="#231F20"/>
<path d="M20.0004 89.9999L24.9989 90.0003V85H19.9998L20.0004 89.9999Z" fill="#231F20"/>
<path d="M19.9998 94.999H24.9989L24.9989 90.0003L20.0004 89.9999L19.9998 94.999Z" fill="#231F20"/>
<path d="M20.0005 100H24.9989L24.9989 94.999H19.9998L20.0005 100Z" fill="#CC8642"/>
<path d="M19.9998 85H24.9989V80H19.9998V85Z" fill="#231F20"/>
<path d="M19.9998 79.9984H24.9989L24.9989 74.9989H19.9998L19.9998 79.9984Z" fill="#231F20"/>
<path d="M20.0005 154.999H24.9989L24.9989 149.999L19.9998 150L20.0005 154.999Z" fill="#231F20"/>
<path d="M84.9999 5H90L90.0002 0H85.0003L84.9999 5Z" fill="#231F20"/>
<path d="M90 5H95L95.0003 0H90.0002L90 5Z" fill="#231F20"/>
<path d="M210 140H214.999V135H210V140Z" fill="#231F20"/>
<path d="M210 145H214.999V140H210V145Z" fill="#CC8642"/>
<path d="M210 154.999H214.999V150H210V154.999Z" fill="#231F20"/>
<path d="M210 150H214.999V145H210V150Z" fill="#955424"/>
<path d="M160 195L165 195L165 189.999H160L160 195Z" fill="#231F20"/>
<path d="M154.999 195H160L160 189.999H155L154.999 195Z" fill="#288568"/>
<path d="M150 195H154.999V190L150 189.999L150 195Z" fill="#288568"/>
<path d="M165 195H170L170 189.999H165L165 195Z" fill="#231F20"/>
<path d="M145 195H150L150 189.999H145V195Z" fill="#288568"/>
<path d="M140 195H145V189.999L140 190V195Z" fill="#288568"/>
<path d="M135 195H140L139.999 189.999H135V195Z" fill="#288568"/>
<path d="M130 195L135 195L134.999 190L130 189.999L130 195Z" fill="#231F20"/>
<path d="M125 195H130L130 189.999H125V195Z" fill="#231F20"/>
<path d="M4.9991 105H9.9991V100L4.9991 100V105Z" fill="#231F20"/>
<path d="M4.9991 94.999L9.9991 94.9991V90L4.9991 89.9999V94.999Z" fill="#231F20"/>
<path d="M4.9991 100L9.9991 100V94.9991L5 95L4.9991 100Z" fill="#CC8642"/>
<path d="M225 154.999H230V150H225V154.999Z" fill="#231F20"/>
<path d="M225 140H230V135H225V140Z" fill="#231F20"/>
<path d="M225 150H230V145H225V150Z" fill="#955424"/>
<path d="M225 145H230V140H225V145Z" fill="#CC8642"/>
<path d="M9.9991 105H15.0001V100H9.9991V105Z" fill="#231F20"/>
<path d="M10 149.999L15.0001 149.999L15.0001 145L10 145V149.999Z" fill="#231F20"/>
<path d="M9.9991 94.9991L15.0001 95L15.0001 89.9999L9.9991 90V94.9991Z" fill="#231F20"/>
<path d="M9.9991 100H15.0001V95H10L9.9991 100Z" fill="#CC8642"/>
<path d="M220 140H224.999V135H220V140Z" fill="#231F20"/>
<path d="M220 145L224.999 145V140H220L220 145Z" fill="#CC8642"/>
<path d="M220 154.999H224.999V150H220L220 154.999Z" fill="#231F20"/>
<path d="M220 150H224.999V145L220 145L220 150Z" fill="#955424"/>
</svg>
