<svg width="177" height="200" viewBox="0 0 177 200" fill="none" xmlns="http://www.w3.org/2000/svg">
<path d="M23.6133 194.117H29.496V188.234H23.6133V194.117Z" fill="#444142"/>
<path d="M17.7344 194.117H23.6171V188.234H17.7344V194.117Z" fill="#231F20"/>
<path d="M29.5 194.117H35.3813V188.234H29.5V194.117Z" fill="#444142"/>
<path d="M117.73 194.117H123.613V188.234H117.73V194.117Z" fill="#444142"/>
<path d="M111.852 194.117H117.733V188.234H111.852V194.117Z" fill="#444142"/>
<path d="M123.613 194.117H129.496V188.234H123.613V194.117Z" fill="#444142"/>
<path d="M35.3791 194.117H41.2618V188.235H35.3791V194.117Z" fill="#444142"/>
<path d="M94.2031 194.117H100.086V188.234H94.2031V194.117Z" fill="#231F20"/>
<path d="M105.969 194.117H111.852V188.234H105.969V194.117Z" fill="#444142"/>
<path d="M141.262 194.117H147.145V188.235H141.262V194.117Z" fill="#444142"/>
<path d="M129.496 194.117H135.379V188.234H129.496V194.117Z" fill="#444142"/>
<path d="M135.379 194.117H141.26V188.234H135.379V194.117Z" fill="#444142"/>
<path d="M100.086 194.117H105.967V188.234H100.086V194.117Z" fill="#444142"/>
<path d="M147.145 194.117L153.027 194.117V188.234L147.145 188.235V194.117Z" fill="#231F20"/>
<path d="M53.0273 194.117H58.9086V188.235H53.0273V194.117Z" fill="#444142"/>
<path d="M88.3203 194.117H94.2031V188.234H88.3203V194.117Z" fill="#A8A5A4"/>
<path d="M47.1445 194.117L53.0273 194.117V188.235L47.1445 188.234V194.117Z" fill="#444142"/>
<path d="M58.9102 188.234V194.117H64.7929V188.234H58.9102Z" fill="#231F20"/>
<path d="M41.2618 194.117L47.1445 194.117V188.234L41.2618 188.235V194.117Z" fill="#444142"/>
<path d="M64.7929 194.117H70.6757V188.234H64.7929V194.117Z" fill="#A8A5A4"/>
<path d="M76.5586 194.117H82.4399V188.234H76.5586V194.117Z" fill="#A8A5A4"/>
<path d="M82.4375 194.117H88.3203V188.234H82.4375V194.117Z" fill="#A8A5A4"/>
<path d="M70.6757 194.117H76.5586V188.234H70.6757V194.117Z" fill="#A8A5A4"/>
<path d="M17.7344 17.6469H23.6171V11.7656H17.7344V17.6469Z" fill="#231F20"/>
<path d="M76.5547 17.6469H82.4374V11.7656H76.5547V17.6469Z" fill="#5A5758"/>
<path d="M47.1445 17.6469H53.0273V11.7656H47.1445V17.6469Z" fill="#231F20"/>
<path d="M70.6719 17.6469H76.5547V11.7656H70.6719V17.6469Z" fill="#231F20"/>
<path d="M35.3791 17.6467H41.2618V11.7655H35.3791V17.6467Z" fill="#CB606E"/>
<path d="M153.027 194.117H158.91V188.234H153.027V194.117Z" fill="#A8A5A4"/>
<path d="M23.6133 17.6469H29.496V11.7656H23.6133V17.6469Z" fill="#5A5758"/>
<path d="M29.5 17.6469H35.3813V11.7656H29.5V17.6469Z" fill="#CB606E"/>
<path d="M94.1991 17.6467H100.082V11.7655H94.1991V17.6467Z" fill="#CB606E"/>
<path d="M82.4336 17.6469H88.3163V11.7656H82.4336V17.6469Z" fill="#CB606E"/>
<path d="M88.3163 17.6469H94.1977V11.7656H88.3163V17.6469Z" fill="#CB606E"/>
<path d="M105.965 17.6469H111.848V11.7656H105.965V17.6469Z" fill="#231F20"/>
<path d="M100.082 17.6467L105.965 17.6469V11.7656L100.082 11.7655V17.6467Z" fill="#5A5758"/>
<path d="M41.2618 17.6467L47.1445 17.6469V11.7656L41.2618 11.7655V17.6467Z" fill="#5A5758"/>
<path d="M17.7343 11.7641H23.6171V5.88281H17.7343V11.7641Z" fill="#231F20"/>
<path d="M23.6133 11.7641H29.496V5.88281H23.6133V11.7641Z" fill="#868484"/>
<path d="M29.5 11.7641H35.3812V5.88281H29.5V11.7641Z" fill="#5A5758"/>
<path d="M35.3791 11.764H41.2618V5.88276H35.3791V11.764Z" fill="#5A5758"/>
<path d="M76.5547 11.7641H82.4374V5.88281H76.5547V11.7641Z" fill="#868484"/>
<path d="M82.4336 11.7641H88.3163V5.88281H82.4336V11.7641Z" fill="#5A5758"/>
<path d="M88.3163 11.7641H94.1977V5.88281H88.3163V11.7641Z" fill="#5A5758"/>
<path d="M94.1991 11.764H100.082V5.88276H94.1991V11.764Z" fill="#5A5758"/>
<path d="M47.1445 11.7641H53.0272V5.88281H47.1445V11.7641Z" fill="#231F20"/>
<path d="M70.6718 11.7641H76.5547V5.88281H70.6718V11.7641Z" fill="#231F20"/>
<path d="M41.2618 11.764L47.1445 11.7641V5.88281L41.2618 5.88276V11.764Z" fill="#5A5758"/>
<path d="M158.91 194.117L164.791 194.117V188.235L158.91 188.234V194.117Z" fill="#231F20"/>
<path d="M100.082 11.764H105.965V5.88276H100.082V11.764Z" fill="#5A5758"/>
<path d="M158.91 111.766H164.791V105.883H158.91V111.766Z" fill="#231F20"/>
<path d="M158.91 123.53H164.791V117.648H158.91V123.53Z" fill="white"/>
<path d="M158.91 129.412H164.791V123.53H158.91V129.412Z" fill="white"/>
<path d="M158.91 117.648H164.791V111.766H158.91V117.648Z" fill="white"/>
<path d="M158.91 135.295H164.791V129.412H158.91V135.295Z" fill="white"/>
<path d="M158.91 176.47H164.791V170.588H158.91V176.47Z" fill="#C8C4C3"/>
<path d="M158.91 182.353H164.791V176.47H158.91V182.353Z" fill="#C8C4C3"/>
<path d="M158.91 188.234L164.791 188.235V182.353H158.91L158.91 188.234Z" fill="#A8A5A4"/>
<path d="M158.91 170.588H164.791L164.791 164.707H158.91L158.91 170.588Z" fill="#E7E3E2"/>
<path d="M158.91 164.705H164.791V158.824H158.91V164.705Z" fill="#E7E3E2"/>
<path d="M158.91 152.941H164.791V147.059H158.91V152.941Z" fill="white"/>
<path d="M158.91 147.059H164.791V141.176H158.91V147.059Z" fill="white"/>
<path d="M158.91 141.176H164.791V135.295H158.91V141.176Z" fill="white"/>
<path d="M158.91 158.824H164.791V152.941H158.91V158.824Z" fill="white"/>
<path d="M105.965 11.764L111.848 11.7641V5.88281L105.965 5.88276V11.764Z" fill="#231F20"/>
<path d="M94.2031 182.353H100.086V176.471H94.2031V182.353Z" fill="#C8C4C3"/>
<path d="M88.3203 23.5292H94.2031V17.6465H88.3203V23.5292Z" fill="#231F20"/>
<path d="M100.086 23.5292H105.967V17.6465H100.086V23.5292Z" fill="#231F20"/>
<path d="M94.2031 23.5292H100.086V17.6465H94.2031V23.5292Z" fill="#231F20"/>
<path d="M35.3791 23.5292H41.2618L41.2618 17.6467H35.3791L35.3791 23.5292Z" fill="#231F20"/>
<path d="M82.4375 23.5292H88.3203V17.6465L82.4374 17.6469L82.4375 23.5292Z" fill="#231F20"/>
<path d="M23.6133 23.5292H29.496V17.6469H23.6133V23.5292Z" fill="#231F20"/>
<path d="M64.793 23.5292H70.6757V17.6465H64.793V23.5292Z" fill="#231F20"/>
<path d="M58.9102 23.5292H64.793V17.6465H58.9102V23.5292Z" fill="#231F20"/>
<path d="M70.6757 23.5292H76.5585V17.6465H70.6757V23.5292Z" fill="#231F20"/>
<path d="M76.5585 23.5292H82.4399V17.6465H76.5585V23.5292Z" fill="#231F20"/>
<path d="M41.2618 23.5292H47.1445L47.1445 17.6469L41.2618 17.6467L41.2618 23.5292Z" fill="#231F20"/>
<path d="M29.5 23.5292H35.3813V17.6469H29.5V23.5292Z" fill="#231F20"/>
<path d="M53.0273 23.5292H58.9086V17.6465L53.0273 17.6469L53.0273 23.5292Z" fill="#231F20"/>
<path d="M47.1445 23.5292H53.0273L53.0273 17.6469H47.1445L47.1445 23.5292Z" fill="#231F20"/>
<path d="M64.793 182.353H70.6757V176.471H64.793V182.353Z" fill="#E7E3E2"/>
<path d="M70.6757 182.353H76.5585V176.471H70.6757V182.353Z" fill="#E7E3E2"/>
<path d="M76.5585 182.353H82.4399V176.471H76.5585V182.353Z" fill="#E7E3E2"/>
<path d="M111.852 182.353H117.733V176.471H111.852V182.353Z" fill="#5A5758"/>
<path d="M47.1445 182.353H53.0273V176.471H47.1445V182.353Z" fill="#444142"/>
<path d="M53.0273 182.353L58.9086 182.353V176.471L53.0273 176.471V182.353Z" fill="#231F20"/>
<path d="M100.086 182.353H105.967V176.471H100.086V182.353Z" fill="#231F20"/>
<path d="M105.969 182.353H111.852V176.471H105.969V182.353Z" fill="#5A5758"/>
<path d="M82.4375 182.353H88.3202V176.471H82.4375V182.353Z" fill="#E7E3E2"/>
<path d="M88.3202 182.353H94.2031V176.471H88.3202V182.353Z" fill="#E7E3E2"/>
<path d="M58.9102 182.353H64.793V176.471H58.9102V182.353Z" fill="#E7E3E2"/>
<path d="M41.2617 182.353H47.1445V176.471H41.2617V182.353Z" fill="#5A5758"/>
<path d="M35.3791 182.353L41.2617 182.353V176.471L35.3791 176.471V182.353Z" fill="#5A5758"/>
<path d="M29.5 182.353H35.3813V176.471H29.5V182.353Z" fill="#5A5758"/>
<path d="M23.6133 182.353H29.496V176.471H23.6133V182.353Z" fill="#5A5758"/>
<path d="M17.7344 182.353H23.6171V176.471H17.7344V182.353Z" fill="#231F20"/>
<path d="M147.145 176.471H153.027V170.588H147.145V176.471Z" fill="#231F20"/>
<path d="M147.145 129.412H153.027V123.529H147.145V129.412Z" fill="white"/>
<path d="M147.145 135.295H153.027V129.412H147.145V135.295Z" fill="white"/>
<path d="M147.145 147.059H153.027V141.176H147.145V147.059Z" fill="white"/>
<path d="M147.145 152.941H153.027V147.059H147.145V152.941Z" fill="white"/>
<path d="M117.746 182.353H123.629V176.471H117.746V182.353Z" fill="#5A5758"/>
<path d="M147.145 141.176H153.027V135.295H147.145V141.176Z" fill="white"/>
<path d="M147.145 99.9985H153.027V94.1172H147.145V99.9985Z" fill="#5A5758"/>
<path d="M147.145 105.883H153.027V100H147.145V105.883Z" fill="#444142"/>
<path d="M147.145 117.648H153.027V111.766H147.145V117.648Z" fill="white"/>
<path d="M147.145 111.766H153.027V105.883H147.145V111.766Z" fill="#231F20"/>
<path d="M147.145 123.529H153.027V117.648H147.145V123.529Z" fill="white"/>
<path d="M135.379 182.353H141.26V176.471H135.379V182.353Z" fill="#5A5758"/>
<path d="M129.496 182.353H135.379V176.471H129.496V182.353Z" fill="#5A5758"/>
<path d="M123.562 182.353H129.445V176.471H123.562V182.353Z" fill="#5A5758"/>
<path d="M141.262 182.353H147.145V176.471L141.262 176.471V182.353Z" fill="#444142"/>
<path d="M147.145 158.824H153.027V152.941H147.145V158.824Z" fill="white"/>
<path d="M147.145 170.588H153.027V164.707H147.145V170.588Z" fill="#231F20"/>
<path d="M147.145 164.705H153.027V158.824H147.145V164.705Z" fill="#231F20"/>
<path d="M147.145 94.1172H153.027V88.2344H147.145V94.1172Z" fill="#231F20"/>
<path d="M147.145 182.353L153.027 182.353V176.471H147.145V182.353Z" fill="#231F20"/>
<path d="M153.027 164.705H158.91V158.824L153.027 158.824V164.705Z" fill="white"/>
<path d="M153.027 158.824L158.91 158.824V152.941H153.027V158.824Z" fill="white"/>
<path d="M153.027 176.471L158.91 176.47V170.588L153.027 170.588V176.471Z" fill="#E7E3E2"/>
<path d="M153.027 170.588L158.91 170.588L158.91 164.707H153.027V170.588Z" fill="white"/>
<path d="M153.027 182.353L158.91 182.353V176.47L153.027 176.471V182.353Z" fill="#C8C4C3"/>
<path d="M153.027 152.941H158.91V147.059L153.027 147.059V152.941Z" fill="white"/>
<path d="M153.027 135.295H158.91V129.412H153.027V135.295Z" fill="white"/>
<path d="M153.027 129.412H158.91V123.53L153.027 123.529V129.412Z" fill="white"/>
<path d="M100.086 188.234H105.967V182.353H100.086V188.234Z" fill="#231F20"/>
<path d="M153.027 188.234H158.91L158.91 182.353L153.027 182.353V188.234Z" fill="#C8C4C3"/>
<path d="M111.852 188.234H117.733V182.353H111.852V188.234Z" fill="#5A5758"/>
<path d="M123.613 188.234H129.496L129.496 182.353L123.613 182.354L123.613 188.234Z" fill="#5A5758"/>
<path d="M117.73 188.234H123.613L123.613 182.354H117.73V188.234Z" fill="#5A5758"/>
<path d="M105.969 188.234H111.852V182.353H105.969V188.234Z" fill="#5A5758"/>
<path d="M135.379 188.234H141.26V182.353H135.379L135.379 188.234Z" fill="#5A5758"/>
<path d="M141.262 188.235H147.145V182.353H141.262V188.235Z" fill="#231F20"/>
<path d="M147.145 188.235L153.027 188.234V182.353L147.145 182.353V188.235Z" fill="#231F20"/>
<path d="M153.027 123.529L158.91 123.53V117.648L153.027 117.648V123.529Z" fill="white"/>
<path d="M129.496 188.234H135.379L135.379 182.353H129.496L129.496 188.234Z" fill="#5A5758"/>
<path d="M153.027 147.059L158.91 147.059V141.176H153.027V147.059Z" fill="white"/>
<path d="M153.027 105.883L158.91 105.883L158.91 100H153.027V105.883Z" fill="#231F20"/>
<path d="M153.027 111.766L158.91 111.766V105.883L153.027 105.883V111.766Z" fill="white"/>
<path d="M153.027 99.9985H158.91V94.1172H153.027V99.9985Z" fill="#231F20"/>
<path d="M153.027 117.648L158.91 117.648V111.766L153.027 111.766V117.648Z" fill="white"/>
<path d="M153.027 141.176H158.91V135.295H153.027V141.176Z" fill="white"/>
<path d="M64.7929 188.234H70.6757V182.353H64.793L64.7929 188.234Z" fill="#C8C4C3"/>
<path d="M35.3791 188.235H41.2618L41.2617 182.353L35.3791 182.353V188.235Z" fill="#5A5758"/>
<path d="M94.2031 188.234H100.086V182.353H94.2031V188.234Z" fill="#C8C4C3"/>
<path d="M58.9102 188.234H64.7929L64.793 182.353H58.9102V188.234Z" fill="#C8C4C3"/>
<path d="M47.1445 188.234L53.0273 188.235L53.0273 182.353H47.1445V188.234Z" fill="#444142"/>
<path d="M41.2618 188.235L47.1445 188.234V182.353H41.2617L41.2618 188.235Z" fill="#5A5758"/>
<path d="M53.0273 188.235H58.9086V182.353L53.0273 182.353L53.0273 188.235Z" fill="#231F20"/>
<path d="M82.4375 188.234H88.3203L88.3202 182.353H82.4375V188.234Z" fill="#C8C4C3"/>
<path d="M88.3203 188.234H94.2031V182.353H88.3202L88.3203 188.234Z" fill="#C8C4C3"/>
<path d="M70.6757 188.234H76.5586L76.5585 182.353H70.6757V188.234Z" fill="#C8C4C3"/>
<path d="M76.5586 188.234H82.4399V182.353H76.5585L76.5586 188.234Z" fill="#C8C4C3"/>
<path d="M23.6133 188.234H29.496V182.353H23.6133V188.234Z" fill="#231F20"/>
<path d="M29.5 188.234H35.3813V182.353H29.5V188.234Z" fill="#5A5758"/>
<path d="M170.676 170.588H176.559V164.707H170.676V170.588Z" fill="#231F20"/>
<path d="M170.676 164.705H176.559V158.824H170.676V164.705Z" fill="#231F20"/>
<path d="M170.676 158.824H176.559V152.941H170.676V158.824Z" fill="#231F20"/>
<path d="M170.676 147.059H176.559V141.176H170.676V147.059Z" fill="#231F20"/>
<path d="M170.676 135.295H176.559V129.412H170.676V135.295Z" fill="#231F20"/>
<path d="M170.676 141.176H176.559V135.295H170.676V141.176Z" fill="#231F20"/>
<path d="M170.676 152.941H176.559V147.059H170.676V152.941Z" fill="#231F20"/>
<path d="M170.676 176.471H176.559V170.588H170.676V176.471Z" fill="#231F20"/>
<path d="M164.789 117.648H170.672V111.766H164.789V117.648Z" fill="#231F20"/>
<path d="M164.789 123.53H170.672V117.648H164.789V123.53Z" fill="#231F20"/>
<path d="M164.789 129.412H170.672V123.53H164.789V129.412Z" fill="#231F20"/>
<path d="M164.789 135.295H170.672V129.412H164.789V135.295Z" fill="white"/>
<path d="M164.789 176.471H170.672V170.588H164.789V176.471Z" fill="#A8A5A4"/>
<path d="M164.789 182.353H170.672V176.471H164.789V182.353Z" fill="#231F20"/>
<path d="M164.789 141.176H170.672V135.295H164.789V141.176Z" fill="white"/>
<path d="M164.789 188.235H170.672V182.353H164.789V188.235Z" fill="#231F20"/>
<path d="M164.789 164.705H170.672V158.824H164.789V164.705Z" fill="#C8C4C3"/>
<path d="M164.789 147.059H170.672V141.176H164.789V147.059Z" fill="white"/>
<path d="M164.789 152.941H170.672V147.059H164.789V152.941Z" fill="white"/>
<path d="M164.789 158.824H170.672V152.941H164.789V158.824Z" fill="#C8C4C3"/>
<path d="M164.789 170.588H170.672V164.707H164.789V170.588Z" fill="#C8C4C3"/>
<path d="M123.613 200H129.496L129.496 194.117H123.613L123.613 200Z" fill="#231F20"/>
<path d="M29.5 200H35.3812L35.3813 194.117H29.5L29.5 200Z" fill="#231F20"/>
<path d="M23.6133 200H29.496L29.496 194.117H23.6133L23.6133 200Z" fill="#231F20"/>
<path d="M35.3791 200H41.2618V194.117H35.3791V200Z" fill="#231F20"/>
<path d="M17.7343 200H23.6171L23.6171 194.117H17.7344L17.7343 200Z" fill="#231F20"/>
<path d="M129.496 200H135.379L135.379 194.117H129.496L129.496 200Z" fill="#231F20"/>
<path d="M100.086 200H105.967L105.967 194.117H100.086L100.086 200Z" fill="#231F20"/>
<path d="M105.969 200H111.851L111.852 194.117H105.969L105.969 200Z" fill="#231F20"/>
<path d="M111.851 200H117.733L117.733 194.117H111.852L111.851 200Z" fill="#231F20"/>
<path d="M41.2618 200L47.1444 200L47.1445 194.117L41.2618 194.117V200Z" fill="#231F20"/>
<path d="M153.027 200H158.91L158.91 194.117H153.027L153.027 200Z" fill="#231F20"/>
<path d="M147.145 200H153.027L153.027 194.117L147.145 194.117L147.145 200Z" fill="#231F20"/>
<path d="M141.262 200L147.145 200L147.145 194.117H141.262V200Z" fill="#231F20"/>
<path d="M135.379 200H141.26L141.26 194.117H135.379L135.379 200Z" fill="#231F20"/>
<path d="M117.73 200H123.613L123.613 194.117H117.73L117.73 200Z" fill="#231F20"/>
<path d="M64.7929 200H70.6757L70.6757 194.117H64.7929L64.7929 200Z" fill="#231F20"/>
<path d="M53.0273 200H58.9086V194.117H53.0273V200Z" fill="#231F20"/>
<path d="M58.906 200H64.7887V194.117H58.906V200Z" fill="#231F20"/>
<path d="M47.1444 200L53.0273 200V194.117L47.1445 194.117L47.1444 200Z" fill="#231F20"/>
<path d="M88.3203 200H94.203L94.2031 194.117H88.3203L88.3203 200Z" fill="#231F20"/>
<path d="M70.6757 200H76.5585L76.5586 194.117H70.6757L70.6757 200Z" fill="#231F20"/>
<path d="M82.4375 200H88.3203L88.3203 194.117H82.4375L82.4375 200Z" fill="#231F20"/>
<path d="M94.203 200H100.086L100.086 194.117H94.2031L94.203 200Z" fill="#231F20"/>
<path d="M76.5585 200H82.4398L82.4399 194.117H76.5586L76.5585 200Z" fill="#231F20"/>
<path d="M23.6133 5.88281H29.496V0H23.6133V5.88281Z" fill="#231F20"/>
<path d="M29.5 5.88281H35.3812V0H29.5V5.88281Z" fill="#231F20"/>
<path d="M35.3791 5.88276H41.2618V0H35.3791V5.88276Z" fill="#231F20"/>
<path d="M41.2618 5.88276L47.1445 5.88281L47.1444 0H41.2618V5.88276Z" fill="#231F20"/>
<path d="M94.1991 5.88276H100.082V0H94.1991V5.88276Z" fill="#231F20"/>
<path d="M100.082 5.88276H105.965V0H100.082V5.88276Z" fill="#231F20"/>
<path d="M88.3163 5.88281H94.1977V0H88.3164L88.3163 5.88281Z" fill="#231F20"/>
<path d="M82.4336 5.88281H88.3163L88.3164 0H82.4336V5.88281Z" fill="#231F20"/>
<path d="M76.5547 5.88281H82.4374V0H76.5547V5.88281Z" fill="#231F20"/>
<path d="M70.6758 129.412H76.5585V123.529H70.6758V129.412Z" fill="#5A5758"/>
<path d="M111.852 76.4692H117.733V70.5879H111.852V76.4692Z" fill="white"/>
<path d="M111.852 58.8241H117.733V52.9414H111.852V58.8241Z" fill="white"/>
<path d="M100.086 58.8241H105.967V52.9414H100.086V58.8241Z" fill="#231F20"/>
<path d="M111.852 64.7055H117.733V58.8241H111.852V64.7055Z" fill="white"/>
<path d="M111.852 70.5879H117.733V64.7055H111.852V70.5879Z" fill="white"/>
<path d="M105.969 58.8241H111.852V52.9414H105.969V58.8241Z" fill="white"/>
<path d="M76.5586 58.8241H82.4399V52.9414H76.5586V58.8241Z" fill="white"/>
<path d="M94.2031 58.8241H100.086V52.9414H94.2031V58.8241Z" fill="#5A5758"/>
<path d="M82.4414 58.8241H88.3242V52.9414H82.4414V58.8241Z" fill="#231F20"/>
<path d="M105.969 64.7055H111.852V58.8241H105.969V64.7055Z" fill="white"/>
<path d="M111.852 94.1171H117.733V88.2344H111.852V94.1171Z" fill="white"/>
<path d="M111.852 123.53H117.733V117.648H111.852V123.53Z" fill="#5A5758"/>
<path d="M111.852 117.648H117.733V111.766H111.852V117.648Z" fill="#5A5758"/>
<path d="M111.852 82.3515H117.733V76.4692H111.852V82.3515Z" fill="white"/>
<path d="M111.852 129.412H117.733V123.53H111.852V129.412Z" fill="#5A5758"/>
<path d="M111.852 111.766H117.733V105.883H111.852V111.766Z" fill="#231F20"/>
<path d="M111.852 135.295H117.733V129.412H111.852V135.295Z" fill="#5A5758"/>
<path d="M70.6758 58.8241H76.5586V52.9414H70.6758V58.8241Z" fill="#5A5758"/>
<path d="M111.852 105.883H117.733V100H111.852V105.883Z" fill="#A8A5A4"/>
<path d="M111.852 88.2344H117.733V82.3515H111.852V88.2344Z" fill="white"/>
<path d="M111.852 99.9985H117.733V94.1171H111.852V99.9985Z" fill="#E7E3E2"/>
<path d="M23.6133 76.4692H29.496V70.5879H23.6133V76.4692Z" fill="#231F20"/>
<path d="M23.6133 94.1171H29.496V88.2344H23.6133V94.1171Z" fill="white"/>
<path d="M23.6133 99.9985H29.496V94.1171H23.6133V99.9985Z" fill="#C8C4C3"/>
<path d="M23.6133 105.883H29.496V100H23.6133V105.883Z" fill="#231F20"/>
<path d="M23.6133 88.2344H29.496V82.3516H23.6133V88.2344Z" fill="white"/>
<path d="M23.6133 82.3516H29.496V76.4692H23.6133V82.3516Z" fill="white"/>
<path d="M23.6133 129.412H29.496V123.529H23.6133V129.412Z" fill="#231F20"/>
<path d="M111.852 141.176H117.733V135.295H111.852V141.176Z" fill="#5A5758"/>
<path d="M53.0273 58.8241H58.9086V52.9414H53.0273V58.8241Z" fill="white"/>
<path d="M64.793 58.8241H70.6758V52.9414H64.793V58.8241Z" fill="#5A5758"/>
<path d="M47.1445 58.8241H53.0273V52.9414H47.1445V58.8241Z" fill="#231F20"/>
<path d="M23.6133 70.5879H29.496V64.7051H23.6133V70.5879Z" fill="#5A5758"/>
<path d="M58.9102 58.8241H64.793V52.9414H58.9102V58.8241Z" fill="#231F20"/>
<path d="M41.2617 58.8241H47.1445V52.9414H41.2617V58.8241Z" fill="#5A5758"/>
<path d="M23.6133 58.8241H29.496V52.9414H23.6133V58.8241Z" fill="#5A5758"/>
<path d="M23.6133 64.7051H29.496V58.8241H23.6133V64.7051Z" fill="#5A5758"/>
<path d="M35.3791 58.8241H41.2617V52.9414H35.3791V58.8241Z" fill="#231F20"/>
<path d="M29.5 58.8241H35.3813V52.9414H29.5V58.8241Z" fill="white"/>
<path d="M29.5 141.178H35.3813V135.295H29.5V141.178Z" fill="#5A5758"/>
<path d="M29.5 70.5878H35.3813V64.7051H29.5V70.5878Z" fill="#5A5758"/>
<path d="M29.5 64.7051H35.3813V58.8241H29.5V64.7051Z" fill="white"/>
<path d="M41.2617 64.7055H47.1445L47.1445 58.8241H41.2617V64.7055Z" fill="#5A5758"/>
<path d="M35.3791 64.7055H41.2617V58.8241H35.3791V64.7055Z" fill="#231F20"/>
<path d="M29.5 76.4692H35.3813V70.5878H29.5V76.4692Z" fill="#231F20"/>
<path d="M29.5 99.9985H35.3813V94.1172H29.5V99.9985Z" fill="#E7E3E2"/>
<path d="M47.1445 64.7055H53.0273L53.0273 58.8241H47.1445L47.1445 64.7055Z" fill="#231F20"/>
<path d="M29.5 105.883H35.3813V100H29.5V105.883Z" fill="#A8A5A4"/>
<path d="M29.5 88.2343H35.3813V82.3516H29.5V88.2343Z" fill="white"/>
<path d="M29.5 82.3516H35.3813V76.4692H29.5V82.3516Z" fill="white"/>
<path d="M29.5 94.1172H35.3813V88.2343H29.5V94.1172Z" fill="white"/>
<path d="M82.4414 64.7055H88.3242V58.8241H82.4414V64.7055Z" fill="#231F20"/>
<path d="M111.852 147.059H117.733V141.176H111.852V147.059Z" fill="#5A5758"/>
<path d="M53.0273 64.7055H58.9086V58.8241H53.0273L53.0273 64.7055Z" fill="white"/>
<path d="M100.086 64.7055H105.967V58.8241H100.086V64.7055Z" fill="#231F20"/>
<path d="M88.3203 64.7055H94.2031L94.2031 58.8241L88.3203 58.8242V64.7055Z" fill="#5A5758"/>
<path d="M76.5586 64.7055H82.4399V58.8241H76.5586V64.7055Z" fill="white"/>
<path d="M58.9102 64.7055H64.7929L64.793 58.8241H58.9102V64.7055Z" fill="#231F20"/>
<path d="M64.7929 64.7055H70.6757L70.6758 58.8241H64.793L64.7929 64.7055Z" fill="#5A5758"/>
<path d="M70.6757 64.7055H76.5586V58.8241H70.6758L70.6757 64.7055Z" fill="#5A5758"/>
<path d="M94.2031 64.7055H100.086V58.8241H94.2031L94.2031 64.7055Z" fill="#5A5758"/>
<path d="M76.5586 147.059H82.4399V141.176H76.5586V147.059Z" fill="#231F20"/>
<path d="M82.4375 147.059H88.3202V141.176H82.4375V147.059Z" fill="#231F20"/>
<path d="M53.0273 147.059H58.9086V141.178H53.0273V147.059Z" fill="#E7E3E2"/>
<path d="M58.9102 141.177V147.059H64.7929V141.176L58.9102 141.177Z" fill="white"/>
<path d="M64.7929 147.059H70.6757V141.176H64.7929V147.059Z" fill="white"/>
<path d="M29.5 111.766H35.3813V105.883H29.5V111.766Z" fill="#231F20"/>
<path d="M105.969 147.059H111.852V141.176L105.969 141.176V147.059Z" fill="#5A5758"/>
<path d="M88.3202 147.059H94.2031V141.176H88.3202V147.059Z" fill="#868484"/>
<path d="M100.086 147.059H105.967V141.176H100.086V147.059Z" fill="#5A5758"/>
<path d="M94.2031 147.059H100.086V141.176H94.2031V147.059Z" fill="#5A5758"/>
<path d="M70.6757 147.059H76.5586V141.176H70.6757V147.059Z" fill="white"/>
<path d="M29.5 123.53H35.3813V117.648H29.5V123.53Z" fill="#231F20"/>
<path d="M29.5 129.412H35.3813V123.53H29.5V129.412Z" fill="#868484"/>
<path d="M29.5 135.295H35.3813V129.412H29.5V135.295Z" fill="#5A5758"/>
<path d="M35.3791 147.059H41.2618V141.178H35.3791V147.059Z" fill="#868484"/>
<path d="M41.2618 147.059H47.1445V141.178H41.2618V147.059Z" fill="#868484"/>
<path d="M23.6133 135.295H29.496V129.412H23.6133V135.295Z" fill="#868484"/>
<path d="M47.1445 147.059H53.0273V141.178H47.1445V147.059Z" fill="#231F20"/>
<path d="M35.3791 141.178H41.2618V135.295H35.3791V141.178Z" fill="#231F20"/>
<path d="M88.3203 58.8242L94.2031 58.8241V52.9414H88.3203V58.8242Z" fill="#5A5758"/>
<path d="M17.7344 76.4692H23.6171V70.5879H17.7344V76.4692Z" fill="white"/>
<path d="M17.7344 52.9413H23.6171V47.0586H17.7344V52.9413Z" fill="#231F20"/>
<path d="M17.7344 82.3515H23.6171V76.4692H17.7344V82.3515Z" fill="white"/>
<path d="M17.7344 64.7055H23.6171V58.8242H17.7344V64.7055Z" fill="#231F20"/>
<path d="M17.7344 58.8242H23.6171V52.9413H17.7344V58.8242Z" fill="#231F20"/>
<path d="M17.7344 70.5879H23.6171V64.7055H17.7344V70.5879Z" fill="#231F20"/>
<path d="M17.7344 88.2343H23.6171V82.3515H17.7344V88.2343Z" fill="white"/>
<path d="M17.7341 105.883H23.6154V100H17.7341V105.883Z" fill="#231F20"/>
<path d="M17.7344 99.9985H23.6171V94.1172H17.7344V99.9985Z" fill="#A8A5A4"/>
<path d="M17.7344 94.1172H23.6171V88.2343H17.7344V94.1172Z" fill="#E7E3E2"/>
<path d="M70.6758 52.9414H76.5586L76.5585 47.0586H70.6758V52.9414Z" fill="#5A5758"/>
<path d="M53.0273 52.9414H58.9086V47.0586H53.0273V52.9414Z" fill="white"/>
<path d="M64.793 52.9414H70.6758V47.0586H64.793V52.9414Z" fill="#5A5758"/>
<path d="M58.9102 52.9414H64.793V47.0586H58.9102V52.9414Z" fill="#231F20"/>
<path d="M41.2617 52.9414H47.1445L47.1445 47.0586H41.2617V52.9414Z" fill="#5A5758"/>
<path d="M35.3791 52.9414H41.2617V47.0586H35.3791V52.9414Z" fill="#5A5758"/>
<path d="M76.5586 52.9414H82.4414L82.4413 47.0586H76.5585L76.5586 52.9414Z" fill="#5A5758"/>
<path d="M47.1445 52.9414H53.0273V47.0586H47.1445L47.1445 52.9414Z" fill="#231F20"/>
<path d="M23.6133 52.9414H29.496V47.0586H23.6133V52.9414Z" fill="#5A5758"/>
<path d="M29.5 52.9414H35.3813V47.0586H29.5V52.9414Z" fill="#5A5758"/>
<path d="M58.9102 152.941V158.824H64.7929V152.941H58.9102Z" fill="white"/>
<path d="M53.0273 158.824H58.9086V152.941H53.0273V158.824Z" fill="#231F20"/>
<path d="M47.1445 158.824H53.0273V152.941H47.1445V158.824Z" fill="#5A5758"/>
<path d="M64.7929 158.824H70.6757V152.941H64.7929V158.824Z" fill="white"/>
<path d="M35.3791 158.824H41.2618V152.941H35.3791V158.824Z" fill="#5A5758"/>
<path d="M41.2618 158.824H47.1445V152.941H41.2618V158.824Z" fill="#5A5758"/>
<path d="M70.6757 158.824H76.5585V152.941H70.6757V158.824Z" fill="#231F20"/>
<path d="M82.4375 158.824H88.3202V152.941H82.4375V158.824Z" fill="#5A5758"/>
<path d="M88.3202 158.824H94.2031V152.941H88.3202V158.824Z" fill="#5A5758"/>
<path d="M76.5585 158.824H82.4399V152.941H76.5585V158.824Z" fill="#5A5758"/>
<path d="M23.6133 158.824H29.496V152.941H23.6133V158.824Z" fill="#231F20"/>
<path d="M17.7344 135.295H23.6171V129.412H17.7344V135.295Z" fill="#231F20"/>
<path d="M17.7344 141.178H23.6171V135.295H17.7344V141.178Z" fill="#231F20"/>
<path d="M29.5 158.824H35.3813V152.941H29.5V158.824Z" fill="#444142"/>
<path d="M17.7344 147.059H23.6171V141.178H17.7344V147.059Z" fill="#231F20"/>
<path d="M23.6133 152.941H29.496V147.059H23.6133V152.941Z" fill="#444142"/>
<path d="M17.7344 152.941H23.6171V147.059H17.7344V152.941Z" fill="#231F20"/>
<path d="M105.969 152.941H111.851L111.852 147.059H105.969V152.941Z" fill="#5A5758"/>
<path d="M70.6757 152.941H76.5585L76.5586 147.059H70.6757V152.941Z" fill="#231F20"/>
<path d="M88.3202 152.941H94.2031V147.059H88.3202V152.941Z" fill="#5A5758"/>
<path d="M100.086 152.941H105.967V147.059H100.086V152.941Z" fill="#5A5758"/>
<path d="M76.5585 152.941H82.4399V147.059H76.5586L76.5585 152.941Z" fill="#868484"/>
<path d="M82.4375 152.941H88.3202V147.059H82.4375V152.941Z" fill="#5A5758"/>
<path d="M94.2031 152.941L100.086 152.941V147.059H94.2031V152.941Z" fill="#5A5758"/>
<path d="M117.73 152.941H123.613V147.059H117.73V152.941Z" fill="#231F20"/>
<path d="M117.73 147.059H123.613V141.176H117.73V147.059Z" fill="#444142"/>
<path d="M111.851 152.941H117.733V147.059H111.852L111.851 152.941Z" fill="#444142"/>
<path d="M23.6133 141.178H29.496V135.295H23.6133V141.178Z" fill="#5A5758"/>
<path d="M117.73 141.176H123.613V135.295H117.73V141.176Z" fill="#5A5758"/>
<path d="M35.3791 152.941H41.2618V147.059H35.3791V152.941Z" fill="#5A5758"/>
<path d="M29.5 147.059H35.3813V141.178H29.5V147.059Z" fill="#5A5758"/>
<path d="M29.5 152.941H35.3813V147.059H29.5V152.941Z" fill="#5A5758"/>
<path d="M23.6133 147.059H29.496V141.178H23.6133V147.059Z" fill="#5A5758"/>
<path d="M64.7929 152.941H70.6757V147.059H64.7929V152.941Z" fill="white"/>
<path d="M41.2618 152.941H47.1445L47.1445 147.059H41.2618V152.941Z" fill="#5A5758"/>
<path d="M58.9102 147.059V152.941H64.7929V147.059H58.9102Z" fill="white"/>
<path d="M53.0273 152.941H58.9086V147.059H53.0273V152.941Z" fill="#231F20"/>
<path d="M47.1445 152.941H53.0273V147.059H47.1445L47.1445 152.941Z" fill="#868484"/>
<path d="M82.4375 52.9413L88.3203 52.9414L88.3202 47.0586H82.4375V52.9413Z" fill="#5A5758"/>
<path d="M117.73 58.8241H123.613V52.9414H117.73V58.8241Z" fill="white"/>
<path d="M111.852 52.9414H117.733V47.0586H111.852V52.9414Z" fill="white"/>
<path d="M117.73 52.9414H123.613V47.0586H117.73V52.9414Z" fill="white"/>
<path d="M117.73 70.5878H123.613V64.7051H117.73V70.5878Z" fill="white"/>
<path d="M117.73 135.295H123.613V129.412H117.73V135.295Z" fill="#5A5758"/>
<path d="M88.3203 52.9414H94.2031L94.2031 47.0586H88.3202L88.3203 52.9414Z" fill="#5A5758"/>
<path d="M117.73 76.4692H123.613V70.5878H117.73V76.4692Z" fill="white"/>
<path d="M94.2031 52.9414H100.086L100.086 47.0586H94.2031L94.2031 52.9414Z" fill="#231F20"/>
<path d="M100.086 52.9414H105.967V47.0586H100.086L100.086 52.9414Z" fill="white"/>
<path d="M105.969 52.9414H111.852V47.0586H105.969V52.9414Z" fill="white"/>
<path d="M117.73 64.7051H123.613V58.8241H117.73V64.7051Z" fill="white"/>
<path d="M117.73 123.53H123.613V117.648H117.73V123.53Z" fill="#5A5758"/>
<path d="M117.73 117.648H123.613V111.766H117.73V117.648Z" fill="#5A5758"/>
<path d="M117.73 129.412H123.613V123.53H117.73V129.412Z" fill="#5A5758"/>
<path d="M117.73 82.3515H123.613V76.4692H117.73V82.3515Z" fill="white"/>
<path d="M117.73 111.766H123.613V105.883H117.73V111.766Z" fill="#444142"/>
<path d="M117.73 88.2343H123.613V82.3515H117.73V88.2343Z" fill="white"/>
<path d="M117.73 105.883H123.613V100H117.73V105.883Z" fill="#231F20"/>
<path d="M117.73 94.1171H123.613V88.2343H117.73V94.1171Z" fill="#E7E3E2"/>
<path d="M117.73 99.9985H123.613V94.1171H117.73V99.9985Z" fill="#C8C4C3"/>
<path d="M76.5586 111.766H82.4399V105.883H76.5586V111.766Z" fill="#C8C4C3"/>
<path d="M47.1445 82.3515H53.0273V76.4688H47.1445V82.3515Z" fill="#231F20"/>
<path d="M47.1445 88.2343H53.0273V82.3515H47.1445V88.2343Z" fill="#231F20"/>
<path d="M47.1445 123.53H53.0273V117.648H47.1445V123.53Z" fill="#444142"/>
<path d="M53.0273 82.3534H58.9086V76.4707H53.0273V82.3534Z" fill="#231F20"/>
<path d="M58.9102 82.3515H64.7929V76.4688H58.9102V82.3515Z" fill="white"/>
<path d="M47.1445 94.1171H53.0273V88.2343H47.1445V94.1171Z" fill="white"/>
<path d="M47.1445 99.9985H53.0273V94.1171H47.1445V99.9985Z" fill="#231F20"/>
<path d="M47.1445 111.766H53.0273V105.883H47.1445V111.766Z" fill="#C8C4C3"/>
<path d="M47.1445 117.648H53.0273V111.766H47.1445V117.648Z" fill="#231F20"/>
<path d="M47.1445 105.883H53.0273V100H47.1445V105.883Z" fill="#E7E3E2"/>
<path d="M64.7929 82.3515H70.6757V76.4688H64.7929V82.3515Z" fill="white"/>
<path d="M88.3203 99.9985H94.2031V94.1172H88.3203V99.9985Z" fill="white"/>
<path d="M70.6757 82.3515H76.5585V76.4688H70.6757V82.3515Z" fill="#231F20"/>
<path d="M88.3203 105.883H94.2031V100H88.3203V105.883Z" fill="#E7E3E2"/>
<path d="M88.3203 117.648H94.2031V111.766H88.3203V117.648Z" fill="#231F20"/>
<path d="M88.3203 111.766H94.2031V105.883H88.3203V111.766Z" fill="#C8C4C3"/>
<path d="M88.3203 94.1172H94.2031V88.2344H88.3203V94.1172Z" fill="white"/>
<path d="M76.5585 82.3515H82.4399V76.4688H76.5585V82.3515Z" fill="#231F20"/>
<path d="M82.4414 82.3515H88.3242V76.4688H82.4414V82.3515Z" fill="#231F20"/>
<path d="M88.3203 82.3515H94.2031V76.4688H88.3203V82.3515Z" fill="#231F20"/>
<path d="M88.3203 88.2344H94.2031V82.3515H88.3203V88.2344Z" fill="white"/>
<path d="M94.2031 111.766L100.086 111.766V105.883L94.2031 105.883V111.766Z" fill="#C8C4C3"/>
<path d="M94.2031 99.9985H100.086V94.1172H94.2031V99.9985Z" fill="white"/>
<path d="M94.2031 94.1172H100.086V88.2344H94.2031V94.1172Z" fill="white"/>
<path d="M94.2031 105.883L100.086 105.883V100H94.2031V105.883Z" fill="#E7E3E2"/>
<path d="M94.2031 88.2344H100.086V82.3516L94.2031 82.3515V88.2344Z" fill="white"/>
<path d="M88.3203 123.53H94.2031V117.648H88.3203V123.53Z" fill="#444142"/>
<path d="M53.0273 123.53H58.9086V117.648H53.0273V123.53Z" fill="#444142"/>
<path d="M105.969 70.5878L111.852 70.5879V64.7055H105.969V70.5878Z" fill="white"/>
<path d="M94.2031 82.3515L100.086 82.3516V76.4688H94.2031V82.3515Z" fill="#231F20"/>
<path d="M88.3203 76.4688H94.2031V70.5879H88.3203V76.4688Z" fill="#5A5758"/>
<path d="M94.2031 76.4688H100.086V70.5879H94.2031V76.4688Z" fill="#5A5758"/>
<path d="M82.4414 76.4688H88.3242V70.5879H82.4414V76.4688Z" fill="#5A5758"/>
<path d="M64.793 129.412H70.6758V123.529H64.793V129.412Z" fill="#5A5758"/>
<path d="M58.9102 123.529V129.412H64.793V123.529H58.9102Z" fill="#5A5758"/>
<path d="M53.0273 129.412H58.9086V123.53H53.0273L53.0273 129.412Z" fill="#5A5758"/>
<path d="M94.2031 123.53H100.086V117.648L94.2031 117.648V123.53Z" fill="#444142"/>
<path d="M88.3203 129.412H94.2031V123.53H88.3203V129.412Z" fill="#5A5758"/>
<path d="M94.2031 129.412H100.086V123.53H94.2031V129.412Z" fill="#5A5758"/>
<path d="M82.4375 129.412H88.3203V123.53L82.4375 123.529V129.412Z" fill="#5A5758"/>
<path d="M76.5585 129.412H82.4399V123.529H76.5585V129.412Z" fill="#5A5758"/>
<path d="M82.4375 123.529L88.3203 123.53V117.648L82.4375 117.648V123.529Z" fill="#444142"/>
<path d="M58.9102 105.883H64.7929V100H58.9102V105.883Z" fill="#E7E3E2"/>
<path d="M58.9102 99.9985H64.7929V94.1172H58.9102V99.9985Z" fill="#231F20"/>
<path d="M76.5585 76.4688H82.4399V70.5879H76.5586L76.5585 76.4688Z" fill="#5A5758"/>
<path d="M58.9102 94.1172H64.7929V88.2344H58.9102V94.1172Z" fill="white"/>
<path d="M58.9102 111.766H64.7929V105.883H58.9102V111.766Z" fill="#C8C4C3"/>
<path d="M70.6758 94.1171H76.5585V88.2344H70.6758V94.1171Z" fill="white"/>
<path d="M76.5586 117.648H82.4399V111.766H76.5586V117.648Z" fill="#231F20"/>
<path d="M82.4375 117.648L88.3203 117.648V111.766H82.4375V117.648Z" fill="#231F20"/>
<path d="M70.6758 117.648H76.5586V111.766L70.6758 111.766V117.648Z" fill="#231F20"/>
<path d="M64.793 117.648H70.6758V111.766L64.7929 111.766L64.793 117.648Z" fill="#231F20"/>
<path d="M64.7929 111.766L70.6758 111.766L70.6757 105.883L64.7929 105.883V111.766Z" fill="#C8C4C3"/>
<path d="M70.6757 105.883H76.5586L76.5585 100H70.6758L70.6757 105.883Z" fill="#E7E3E2"/>
<path d="M64.7929 105.883L70.6757 105.883L70.6758 100H64.7929V105.883Z" fill="#E7E3E2"/>
<path d="M64.7929 99.9985H70.6757L70.6758 94.1171L64.7929 94.1172V99.9985Z" fill="#231F20"/>
<path d="M70.6757 99.9985H76.5585V94.1171H70.6758L70.6757 99.9985Z" fill="#231F20"/>
<path d="M76.5585 94.1171H82.4399V88.2344H76.5585V94.1171Z" fill="#231F20"/>
<path d="M76.5586 105.883H82.4399V100H76.5585L76.5586 105.883Z" fill="#E7E3E2"/>
<path d="M70.6758 111.766L76.5586 111.766V105.883H70.6757L70.6758 111.766Z" fill="#C8C4C3"/>
<path d="M76.5585 99.9985H82.4399V94.1171H76.5585V99.9985Z" fill="white"/>
<path d="M94.2031 158.824H100.086L100.086 152.941L94.2031 152.941V158.824Z" fill="#5A5758"/>
<path d="M64.7929 94.1172L70.6758 94.1171V88.2344H64.7929V94.1172Z" fill="white"/>
<path d="M53.0273 111.766H58.9086V105.883H53.0273V111.766Z" fill="#C8C4C3"/>
<path d="M58.9102 117.648H64.793L64.7929 111.766H58.9102V117.648Z" fill="#231F20"/>
<path d="M53.0273 117.648H58.9086V111.766H53.0273V117.648Z" fill="#231F20"/>
<path d="M53.0273 105.883H58.9086V100H53.0273V105.883Z" fill="#E7E3E2"/>
<path d="M53.0273 99.9985H58.9086V94.1172L53.0273 94.1171V99.9985Z" fill="#231F20"/>
<path d="M58.9102 123.529H64.793V117.648H58.9102V123.529Z" fill="#444142"/>
<path d="M70.6758 123.529H76.5585L76.5586 117.648H70.6758V123.529Z" fill="#444142"/>
<path d="M76.5585 123.529H82.4399V117.648H76.5586L76.5585 123.529Z" fill="#444142"/>
<path d="M53.0273 94.1171L58.9086 94.1172V88.2344L53.0273 88.2343V94.1171Z" fill="white"/>
<path d="M64.793 123.529H70.6758V117.648H64.793V123.529Z" fill="#444142"/>
<path d="M70.6758 88.2344H76.5585V82.3515H70.6757L70.6758 88.2344Z" fill="white"/>
<path d="M82.4414 88.2343H88.3242V82.3515H82.4414V88.2343Z" fill="white"/>
<path d="M82.4375 99.9985H88.3203V94.1172H82.4375V99.9985Z" fill="white"/>
<path d="M82.4375 94.1172H88.3203V88.2344H82.4375V94.1172Z" fill="white"/>
<path d="M82.4375 105.883H88.3203V100H82.4375V105.883Z" fill="#E7E3E2"/>
<path d="M64.7929 88.2344H70.6758L70.6757 82.3515H64.7929V88.2344Z" fill="white"/>
<path d="M58.9102 88.2344H64.7929V82.3515H58.9102V88.2344Z" fill="white"/>
<path d="M53.0273 88.2343L58.9086 88.2344V82.3516L53.0273 82.3515V88.2343Z" fill="#E7E3E2"/>
<path d="M76.5585 88.2344H82.4399V82.3515H76.5585V88.2344Z" fill="white"/>
<path d="M82.4375 111.766H88.3203V105.883H82.4375V111.766Z" fill="#C8C4C3"/>
<path d="M94.2031 117.648L100.086 117.648V111.766L94.2031 111.766V117.648Z" fill="#231F20"/>
<path d="M35.3791 123.53H41.2618V117.648H35.3791V123.53Z" fill="#868484"/>
<path d="M35.3791 117.648H41.2618V111.766H35.3791V117.648Z" fill="#231F20"/>
<path d="M35.3791 129.412H41.2618V123.53H35.3791V129.412Z" fill="#5A5758"/>
<path d="M35.3791 111.766H41.2618V105.883H35.3791V111.766Z" fill="#231F20"/>
<path d="M35.3791 105.883H41.2618V100H35.3791V105.883Z" fill="#C8C4C3"/>
<path d="M41.2618 141.178H47.1445V135.295H41.2618V141.178Z" fill="#231F20"/>
<path d="M35.3791 135.295H41.2618V129.412H35.3791V135.295Z" fill="#5A5758"/>
<path d="M35.3791 99.9985H41.2618V94.1172H35.3791V99.9985Z" fill="white"/>
<path d="M47.1445 141.178H53.0273L53.0273 135.295H47.1445V141.178Z" fill="#A8A5A4"/>
<path d="M41.2618 135.295H47.1445V129.412L41.2618 129.412V135.295Z" fill="#231F20"/>
<path d="M47.1445 70.5878H53.0273V64.7055H47.1445L47.1445 70.5878Z" fill="white"/>
<path d="M53.0273 141.178H58.9086V135.295H53.0273L53.0273 141.178Z" fill="#E7E3E2"/>
<path d="M53.0273 70.5878H58.9086V64.7055H53.0273V70.5878Z" fill="white"/>
<path d="M58.9102 70.5878H64.7929V64.7055H58.9102V70.5878Z" fill="#231F20"/>
<path d="M41.2617 70.5878H47.1445L47.1445 64.7055H41.2617V70.5878Z" fill="#231F20"/>
<path d="M35.3791 76.4692H41.2618L41.2617 70.5878L35.3791 70.5879V76.4692Z" fill="#231F20"/>
<path d="M35.3791 70.5879L41.2617 70.5878V64.7055H35.3791V70.5879Z" fill="#5A5758"/>
<path d="M35.3791 82.3534H41.2618V76.4707H35.3791V82.3534Z" fill="#231F20"/>
<path d="M35.3791 88.2343H41.2618V82.3516H35.3791V88.2343Z" fill="#E7E3E2"/>
<path d="M35.3791 94.1172H41.2618V88.2343H35.3791V94.1172Z" fill="white"/>
<path d="M58.9102 135.295V141.177L64.7929 141.176V135.295H58.9102Z" fill="#E7E3E2"/>
<path d="M105.969 105.883L111.852 105.883V100H105.969V105.883Z" fill="#C8C4C3"/>
<path d="M105.969 99.9985H111.852V94.1171L105.969 94.1172V99.9985Z" fill="#E7E3E2"/>
<path d="M105.969 111.766L111.852 111.766V105.883L105.969 105.883V111.766Z" fill="#231F20"/>
<path d="M105.969 117.648L111.852 117.648V111.766L105.969 111.766V117.648Z" fill="#444142"/>
<path d="M64.7929 70.5878H70.6757V64.7055H64.7929V70.5878Z" fill="#5A5758"/>
<path d="M105.969 88.2343L111.852 88.2344V82.3515L105.969 82.3516V88.2343Z" fill="white"/>
<path d="M105.969 94.1172L111.852 94.1171V88.2344L105.969 88.2343V94.1172Z" fill="white"/>
<path d="M105.969 82.3516L111.852 82.3515V76.4692L105.969 76.4688V82.3516Z" fill="white"/>
<path d="M105.969 76.4688L111.852 76.4692V70.5879L105.969 70.5878V76.4688Z" fill="white"/>
<path d="M105.969 129.412H111.852V123.53L105.969 123.529V129.412Z" fill="#868484"/>
<path d="M105.969 123.529L111.852 123.53V117.648L105.969 117.648V123.529Z" fill="#5A5758"/>
<path d="M76.5586 141.176H82.4399V135.295H76.5586V141.176Z" fill="#E7E3E2"/>
<path d="M70.6757 141.176H76.5586V135.295H70.6758L70.6757 141.176Z" fill="#E7E3E2"/>
<path d="M82.4375 141.176H88.3202V135.295H82.4375V141.176Z" fill="#E7E3E2"/>
<path d="M105.969 135.295H111.852V129.412H105.969V135.295Z" fill="#5A5758"/>
<path d="M64.7929 141.176H70.6757L70.6758 135.295H64.7929V141.176Z" fill="#E7E3E2"/>
<path d="M100.086 141.176H105.967V135.295H100.086V141.176Z" fill="#5A5758"/>
<path d="M105.969 141.176L111.852 141.176V135.295H105.969V141.176Z" fill="#5A5758"/>
<path d="M88.3202 141.176H94.2031V135.295H88.3202V141.176Z" fill="#231F20"/>
<path d="M94.2031 141.176H100.086V135.295H94.2031V141.176Z" fill="#868484"/>
<path d="M41.2618 123.53H47.1445V117.648H41.2618V123.53Z" fill="#5A5758"/>
<path d="M47.1445 129.412L53.0273 129.412L53.0273 123.53H47.1445L47.1445 129.412Z" fill="#231F20"/>
<path d="M70.6757 70.5878L76.5586 70.5879V64.7055H70.6757V70.5878Z" fill="#5A5758"/>
<path d="M70.6757 76.4688H76.5585L76.5586 70.5879L70.6757 70.5878V76.4688Z" fill="#5A5758"/>
<path d="M41.2618 117.648H47.1445V111.766L41.2618 111.766V117.648Z" fill="#231F20"/>
<path d="M41.2618 111.766L47.1445 111.766V105.883H41.2618V111.766Z" fill="#C8C4C3"/>
<path d="M53.0273 135.295H58.9086V129.412H53.0273L53.0273 135.295Z" fill="#231F20"/>
<path d="M58.9102 129.412V135.295H64.7929L64.793 129.412H58.9102Z" fill="#231F20"/>
<path d="M64.7929 135.295H70.6758V129.412H64.793L64.7929 135.295Z" fill="#231F20"/>
<path d="M47.1445 135.295H53.0273L53.0273 129.412L47.1445 129.412V135.295Z" fill="#A8A5A4"/>
<path d="M41.2618 105.883H47.1445V100H41.2618V105.883Z" fill="#E7E3E2"/>
<path d="M41.2618 94.1172L47.1445 94.1171V88.2343H41.2618V94.1172Z" fill="white"/>
<path d="M41.2618 99.9985H47.1445V94.1171L41.2618 94.1172V99.9985Z" fill="#231F20"/>
<path d="M53.0273 76.4688L58.9086 76.4692V70.5878H53.0273V76.4688Z" fill="white"/>
<path d="M58.9102 76.4688H64.7929V70.5878H58.9102V76.4688Z" fill="white"/>
<path d="M64.7929 76.4688H70.6757V70.5878H64.7929V76.4688Z" fill="#231F20"/>
<path d="M47.1445 76.4688H53.0273V70.5878H47.1445V76.4688Z" fill="white"/>
<path d="M41.2618 88.2343H47.1445V82.3515L41.2618 82.3516V88.2343Z" fill="#231F20"/>
<path d="M70.6758 135.295H76.5586L76.5585 129.412H70.6758V135.295Z" fill="#231F20"/>
<path d="M41.2618 76.4692L47.1445 76.4688V70.5878H41.2617L41.2618 76.4692Z" fill="white"/>
<path d="M41.2618 82.3516L47.1445 82.3515V76.4688L41.2618 76.4692V82.3516Z" fill="#231F20"/>
<path d="M41.2618 129.412L47.1445 129.412L47.1445 123.53H41.2618V129.412Z" fill="#231F20"/>
<path d="M100.086 82.3516L105.967 82.3515V76.4688H100.086V82.3516Z" fill="white"/>
<path d="M100.086 76.4688H105.967V70.5879H100.086V76.4688Z" fill="#231F20"/>
<path d="M100.086 94.1172L105.967 94.1171V88.2344H100.086V94.1172Z" fill="white"/>
<path d="M100.086 88.2344H105.967V82.3515L100.086 82.3516V88.2344Z" fill="white"/>
<path d="M100.086 70.5879H105.967V64.7055H100.086L100.086 70.5879Z" fill="#231F20"/>
<path d="M76.5586 135.295H82.4399V129.412H76.5585L76.5586 135.295Z" fill="#231F20"/>
<path d="M76.5586 70.5879H82.4399V64.7055H76.5586V70.5879Z" fill="#5A5758"/>
<path d="M82.4414 70.5879H88.3242V64.7055H82.4414V70.5879Z" fill="#5A5758"/>
<path d="M94.2031 70.5879H100.086L100.086 64.7055H94.2031V70.5879Z" fill="#5A5758"/>
<path d="M88.3203 70.5879H94.2031V64.7055H88.3203V70.5879Z" fill="#5A5758"/>
<path d="M100.086 99.9985H105.967V94.1171L100.086 94.1172V99.9985Z" fill="white"/>
<path d="M94.2031 135.295H100.086L100.086 129.412H94.2031V135.295Z" fill="#231F20"/>
<path d="M88.3202 135.295H94.2031V129.412H88.3203L88.3202 135.295Z" fill="#5A5758"/>
<path d="M100.086 135.295H105.967V129.412L100.086 129.412L100.086 135.295Z" fill="#868484"/>
<path d="M100.086 105.883L105.967 105.883V100H100.086V105.883Z" fill="#C8C4C3"/>
<path d="M82.4375 135.295H88.3202L88.3203 129.412H82.4375V135.295Z" fill="#231F20"/>
<path d="M100.086 117.648L105.967 117.648V111.766L100.086 111.766V117.648Z" fill="#444142"/>
<path d="M100.086 129.412L105.967 129.412V123.529L100.086 123.53V129.412Z" fill="#5A5758"/>
<path d="M100.086 111.766L105.967 111.766V105.883L100.086 105.883V111.766Z" fill="#231F20"/>
<path d="M100.086 123.53L105.967 123.529V117.648L100.086 117.648V123.53Z" fill="#5A5758"/>
<path d="M88.3202 176.471H94.2031L94.2031 170.588H88.3203L88.3202 176.471Z" fill="#E7E3E2"/>
<path d="M0.0859375 88.2343H5.96868V82.3516H0.0859375V88.2343Z" fill="#231F20"/>
<path d="M0.0859375 82.3516L5.96721 82.3515V76.4688H0.0859375V82.3516Z" fill="#231F20"/>
<path d="M11.8516 35.2948H17.7343V29.4121H11.8516V35.2948Z" fill="#231F20"/>
<path d="M0.0859375 76.4688H5.96721V70.5879H0.0859375V76.4688Z" fill="#231F20"/>
<path d="M0.0859375 70.5879H5.96721V64.7051H0.0859375V70.5879Z" fill="#231F20"/>
<path d="M0.0859375 64.7051H5.96721V58.8242H0.0859375V64.7051Z" fill="#231F20"/>
<path d="M0.0859375 58.8242L5.96868 58.8241V52.9414H0.0859375V58.8242Z" fill="#231F20"/>
<path d="M47.1445 176.471H53.0273V170.588H47.1445V176.471Z" fill="#444142"/>
<path d="M35.3791 176.471L41.2617 176.471L41.2618 170.588H35.3791V176.471Z" fill="#444142"/>
<path d="M29.5 176.471H35.3813V170.588H29.5V176.471Z" fill="#5A5758"/>
<path d="M41.2617 176.471H47.1445V170.588L41.2618 170.588L41.2617 176.471Z" fill="#444142"/>
<path d="M58.9102 176.471H64.793L64.7929 170.588H58.9102V176.471Z" fill="#E7E3E2"/>
<path d="M76.5585 176.471H82.4399V170.588H76.5586L76.5585 176.471Z" fill="#E7E3E2"/>
<path d="M64.793 176.471H70.6757V170.588H64.7929L64.793 176.471Z" fill="white"/>
<path d="M82.4375 176.471H88.3202L88.3203 170.588H82.4375V176.471Z" fill="#E7E3E2"/>
<path d="M70.6757 176.471H76.5585L76.5586 170.588H70.6757V176.471Z" fill="white"/>
<path d="M53.0273 176.471L58.9086 176.471V170.588L53.0273 170.588V176.471Z" fill="#231F20"/>
<path d="M17.7343 35.2948L23.6154 35.295V29.4122L17.7343 29.4121V35.2948Z" fill="white"/>
<path d="M17.7344 176.471H23.6171V170.588H17.7344V176.471Z" fill="#231F20"/>
<path d="M23.6133 176.471H29.496V170.588H23.6133V176.471Z" fill="#5A5758"/>
<path d="M135.379 76.4692H141.26V70.5879H135.379V76.4692Z" fill="#231F20"/>
<path d="M135.379 82.3515H141.26V76.4692H135.379V82.3515Z" fill="#231F20"/>
<path d="M135.379 88.2343H141.26V82.3515H135.379V88.2343Z" fill="#231F20"/>
<path d="M135.379 105.883H141.26V100H135.379V105.883Z" fill="#5A5758"/>
<path d="M135.379 94.1171H141.26V88.2343H135.379V94.1171Z" fill="#444142"/>
<path d="M135.379 99.9985H141.26V94.1171H135.379V99.9985Z" fill="#5A5758"/>
<path d="M135.379 58.8241H141.26V52.9414H135.379V58.8241Z" fill="#231F20"/>
<path d="M135.379 70.5879H141.26V64.7051H135.379V70.5879Z" fill="#231F20"/>
<path d="M135.379 64.7051H141.26V58.8241H135.379V64.7051Z" fill="#231F20"/>
<path d="M135.379 152.941H141.26V147.059H135.379V152.941Z" fill="#231F20"/>
<path d="M135.379 147.059H141.26V141.176H135.379V147.059Z" fill="white"/>
<path d="M135.379 141.176H141.26V135.295H135.379V141.176Z" fill="white"/>
<path d="M135.379 158.824H141.26V152.941H135.379V158.824Z" fill="#5A5758"/>
<path d="M100.086 158.824H105.967V152.941H100.086L100.086 158.824Z" fill="#5A5758"/>
<path d="M135.379 117.648H141.26V111.766H135.379V117.648Z" fill="#444142"/>
<path d="M135.379 123.53H141.26V117.648H135.379V123.53Z" fill="#231F20"/>
<path d="M135.379 135.295H141.26V129.412H135.379V135.295Z" fill="white"/>
<path d="M135.379 111.766H141.26V105.883H135.379V111.766Z" fill="#5A5758"/>
<path d="M94.2031 35.2948H100.086V29.4121H94.2031V35.2948Z" fill="white"/>
<path d="M53.0273 35.295H58.9086V29.4122H53.0273V35.295Z" fill="white"/>
<path d="M82.4375 35.2948H88.3202V29.4121H82.4375V35.2948Z" fill="white"/>
<path d="M58.9102 35.2948H64.7929V29.4121H58.9102V35.2948Z" fill="white"/>
<path d="M70.6758 35.2948H76.5585V29.4121H70.6758V35.2948Z" fill="white"/>
<path d="M76.5585 35.2948H82.4399V29.4121H76.5585V35.2948Z" fill="white"/>
<path d="M64.7929 35.2948H70.6742V29.4121H64.7929V35.2948Z" fill="white"/>
<path d="M35.3791 35.295H41.2618V29.4122H35.3791V35.295Z" fill="white"/>
<path d="M47.1445 35.2948L53.0273 35.295V29.4122L47.1445 29.4121V35.2948Z" fill="white"/>
<path d="M41.2618 35.295L47.1445 35.2948V29.4121L41.2618 29.4122V35.295Z" fill="white"/>
<path d="M29.5 35.2948H35.3813V29.4121H29.5V35.2948Z" fill="white"/>
<path d="M88.3202 35.2948H94.2031V29.4121H88.3202V35.2948Z" fill="white"/>
<path d="M117.73 35.2948H123.613V29.4121H117.73V35.2948Z" fill="#231F20"/>
<path d="M111.852 35.2948H117.733V29.4121H111.852V35.2948Z" fill="white"/>
<path d="M111.852 29.3984H117.733V23.5156H111.852V29.3984Z" fill="#231F20"/>
<path d="M23.6133 35.2948H29.496V29.4121H23.6133V35.2948Z" fill="white"/>
<path d="M100.086 35.2948H105.967V29.4121H100.086V35.2948Z" fill="white"/>
<path d="M105.969 35.2948H111.852V29.4121H105.969V35.2948Z" fill="white"/>
<path d="M23.6133 29.4121H29.496V23.5292H23.6133V29.4121Z" fill="white"/>
<path d="M17.7343 29.4121L23.6171 29.412V23.5293H17.7344L17.7343 29.4121Z" fill="#231F20"/>
<path d="M94.2031 176.471H100.086V170.588H94.2031L94.2031 176.471Z" fill="#C8C4C3"/>
<path d="M64.7929 29.4121H70.6758L70.6757 23.5292H64.793L64.7929 29.4121Z" fill="white"/>
<path d="M70.6758 29.4121H76.5585V23.5292H70.6757L70.6758 29.4121Z" fill="white"/>
<path d="M76.5585 29.4121H82.4399V23.5292H76.5585V29.4121Z" fill="white"/>
<path d="M82.4375 29.4121H88.3202L88.3203 23.5292H82.4375V29.4121Z" fill="white"/>
<path d="M58.9102 29.4121H64.7929L64.793 23.5292H58.9102V29.4121Z" fill="white"/>
<path d="M35.3828 29.412H41.2656V23.5293H35.3828V29.412Z" fill="white"/>
<path d="M41.2618 29.4122L47.143 29.412V23.5293L41.2618 23.5292L41.2618 29.4122Z" fill="white"/>
<path d="M47.1445 29.4121L53.0258 29.412V23.5293L47.1445 23.5292L47.1445 29.4121Z" fill="white"/>
<path d="M53.0273 29.4122L58.9102 29.4121V23.5292H53.0273L53.0273 29.4122Z" fill="white"/>
<path d="M135.379 164.705H141.26V158.824H135.379V164.705Z" fill="#5A5758"/>
<path d="M88.3202 29.4121H94.2031L94.2031 23.5292H88.3203L88.3202 29.4121Z" fill="white"/>
<path d="M29.5 29.4121L35.3828 29.412V23.5293L29.5 23.5292V29.4121Z" fill="white"/>
<path d="M141.262 141.176L147.145 141.176V135.295L141.262 135.295V141.176Z" fill="white"/>
<path d="M141.262 135.295L147.145 135.295V129.412L141.262 129.412V135.295Z" fill="white"/>
<path d="M141.262 147.059H147.145V141.176L141.262 141.176V147.059Z" fill="white"/>
<path d="M141.262 158.824H147.145V152.941L141.262 152.941V158.824Z" fill="#231F20"/>
<path d="M141.262 152.941L147.145 152.941V147.059H141.262V152.941Z" fill="white"/>
<path d="M141.262 164.705H147.145V158.824H141.262V164.705Z" fill="#5A5758"/>
<path d="M141.262 105.883H147.145V100H141.262V105.883Z" fill="#5A5758"/>
<path d="M141.262 117.648H147.145V111.766H141.262V117.648Z" fill="#231F20"/>
<path d="M141.262 129.412L147.145 129.412V123.529H141.262V129.412Z" fill="white"/>
<path d="M141.262 123.529H147.145V117.648H141.262V123.529Z" fill="white"/>
<path d="M141.262 111.766H147.145V105.883H141.262V111.766Z" fill="#444142"/>
<path d="M117.73 176.471H123.613V170.588H117.73V176.471Z" fill="#5A5758"/>
<path d="M105.969 176.471H111.852L111.851 170.588H105.969V176.471Z" fill="#5A5758"/>
<path d="M111.852 176.471H117.733V170.588H111.851L111.852 176.471Z" fill="#5A5758"/>
<path d="M141.262 170.588L147.145 170.588V164.707H141.262V170.588Z" fill="#5A5758"/>
<path d="M100.086 176.471H105.967V170.588H100.086V176.471Z" fill="#231F20"/>
<path d="M94.2031 29.4121H100.086L100.086 23.5292H94.2031L94.2031 29.4121Z" fill="white"/>
<path d="M141.262 176.471L147.145 176.471V170.588L141.262 170.588L141.262 176.471Z" fill="#444142"/>
<path d="M135.379 176.471H141.26V170.588H135.379V176.471Z" fill="#5A5758"/>
<path d="M129.496 176.471H135.379V170.588H129.496V176.471Z" fill="#5A5758"/>
<path d="M123.613 176.471L129.496 176.471V170.588H123.613V176.471Z" fill="#5A5758"/>
<path d="M105.969 29.4121H111.852L111.851 23.5293H105.969V29.4121Z" fill="white"/>
<path d="M105.969 23.5312H111.851V17.6484H105.969V23.5312Z" fill="#231F20"/>
<path d="M100.086 29.4121H105.967V23.5292H100.086L100.086 29.4121Z" fill="white"/>
<path d="M141.262 99.9985H147.145V94.1172H141.262V99.9985Z" fill="#5A5758"/>
<path d="M141.262 88.2343L147.145 88.2344L147.145 82.3516H141.262V88.2343Z" fill="#231F20"/>
<path d="M141.262 94.1172H147.145V88.2344L141.262 88.2343V94.1172Z" fill="#5A5758"/>
<path d="M135.379 129.412H141.26V123.53H135.379V129.412Z" fill="#E7E3E2"/>
<path d="M17.7344 164.705H23.6171V158.824H17.7344V164.705Z" fill="#231F20"/>
<path d="M11.8516 70.5878L17.7344 70.5879V64.7055L11.8516 64.7051V70.5878Z" fill="white"/>
<path d="M11.8516 64.7051L17.7344 64.7055V58.8242H11.8516V64.7051Z" fill="white"/>
<path d="M11.8516 76.4692H17.7344V70.5879L11.8516 70.5878V76.4692Z" fill="white"/>
<path d="M11.8516 52.9413H17.7344V47.0586H11.8516V52.9413Z" fill="white"/>
<path d="M11.8516 58.8242H17.7344V52.9413H11.8516V58.8242Z" fill="white"/>
<path d="M11.8516 99.9985H17.7344V94.1172H11.8516V99.9985Z" fill="#231F20"/>
<path d="M11.8516 94.1172H17.7344V88.2343L11.8516 88.2344V94.1172Z" fill="#C8C4C3"/>
<path d="M11.8516 82.3515H17.7344V76.4692H11.8516V82.3515Z" fill="white"/>
<path d="M11.8516 88.2344L17.7344 88.2343V82.3515H11.8516V88.2344Z" fill="#E7E3E2"/>
<path d="M23.6133 164.705H29.496V158.824H23.6133V164.705Z" fill="#444142"/>
<path d="M105.969 164.705H111.851V158.824H105.969V164.705Z" fill="#231F20"/>
<path d="M100.086 164.705H105.967V158.824H100.086L100.086 164.705Z" fill="#444142"/>
<path d="M94.2031 164.705H100.086L100.086 158.824H94.2031L94.2031 164.705Z" fill="#444142"/>
<path d="M111.851 164.705H117.733V158.824H111.851V164.705Z" fill="#444142"/>
<path d="M88.3203 164.705H94.2031L94.2031 158.824H88.3202L88.3203 164.705Z" fill="#444142"/>
<path d="M11.8516 47.0586H17.7344L17.7343 41.1758H11.8516V47.0586Z" fill="white"/>
<path d="M129.496 158.824H135.379V152.941L129.496 152.941V158.824Z" fill="#868484"/>
<path d="M82.4375 164.705H88.3203L88.3202 158.824H82.4375V164.705Z" fill="#444142"/>
<path d="M129.496 164.705H135.379V158.824H129.496V164.705Z" fill="#5A5758"/>
<path d="M123.613 164.705H129.496V158.824L123.613 158.824V164.705Z" fill="#5A5758"/>
<path d="M117.73 164.705H123.613V158.824H117.73V164.705Z" fill="#868484"/>
<path d="M41.2617 164.705H47.1445L47.1445 158.824H41.2618L41.2617 164.705Z" fill="#444142"/>
<path d="M35.3791 164.705H41.2617L41.2618 158.824H35.3791V164.705Z" fill="#444142"/>
<path d="M29.5 164.705H35.3813V158.824H29.5V164.705Z" fill="#231F20"/>
<path d="M47.1445 164.705H53.0273L53.0273 158.824H47.1445L47.1445 164.705Z" fill="#444142"/>
<path d="M58.9102 164.705H64.7929V158.824H58.9102V164.705Z" fill="white"/>
<path d="M64.7929 164.705H70.6757V158.824H64.7929V164.705Z" fill="white"/>
<path d="M70.6757 164.705H76.5585V158.824H70.6757V164.705Z" fill="#231F20"/>
<path d="M53.0273 164.705H58.9086V158.824H53.0273L53.0273 164.705Z" fill="#231F20"/>
<path d="M76.5585 164.705H82.4399V158.824H76.5585V164.705Z" fill="#444142"/>
<path d="M123.613 94.1171H129.496V88.2344L123.613 88.2343V94.1171Z" fill="#C8C4C3"/>
<path d="M129.496 152.941L135.379 152.941V147.059H129.496V152.941Z" fill="#5A5758"/>
<path d="M123.613 105.883L129.496 105.883V100H123.613V105.883Z" fill="#444142"/>
<path d="M17.7344 47.0586H23.6171V41.1758H17.7343L17.7344 47.0586Z" fill="white"/>
<path d="M123.613 111.766L129.496 111.766V105.883L123.613 105.883V111.766Z" fill="#5A5758"/>
<path d="M123.613 123.53H129.496V117.648H123.613V123.53Z" fill="#5A5758"/>
<path d="M123.613 117.648H129.496V111.766L123.613 111.766V117.648Z" fill="#5A5758"/>
<path d="M123.613 70.5878H129.496V64.7051H123.613V70.5878Z" fill="white"/>
<path d="M123.613 88.2343L129.496 88.2344V82.3516L123.613 82.3515V88.2343Z" fill="#E7E3E2"/>
<path d="M123.613 76.4692H129.496V70.5878H123.613V76.4692Z" fill="white"/>
<path d="M123.613 64.7051H129.496V58.8242L123.613 58.8241V64.7051Z" fill="white"/>
<path d="M123.613 82.3515L129.496 82.3516V76.4692H123.613V82.3515Z" fill="white"/>
<path d="M117.73 158.824H123.613L123.613 152.941H117.73V158.824Z" fill="#444142"/>
<path d="M111.851 158.824H117.733V152.941H111.851V158.824Z" fill="#231F20"/>
<path d="M123.613 158.824L129.496 158.824V152.941L123.613 152.941L123.613 158.824Z" fill="#868484"/>
<path d="M105.969 158.824H111.851V152.941H105.969V158.824Z" fill="#444142"/>
<path d="M135.379 170.588H141.26V164.707H135.379V170.588Z" fill="#5A5758"/>
<path d="M123.613 135.295L129.496 135.295V129.412H123.613V135.295Z" fill="#444142"/>
<path d="M123.613 141.176L129.496 141.176V135.295L123.613 135.295V141.176Z" fill="#231F20"/>
<path d="M123.613 152.941L129.496 152.941V147.059H123.613V152.941Z" fill="#444142"/>
<path d="M123.613 129.412H129.496V123.53H123.613V129.412Z" fill="#444142"/>
<path d="M123.613 99.9985H129.496V94.1171H123.613V99.9985Z" fill="#231F20"/>
<path d="M53.0273 47.0586H58.9086V41.1758H53.0273V47.0586Z" fill="white"/>
<path d="M47.1445 47.0586H53.0273V41.1758H47.1445L47.1445 47.0586Z" fill="#231F20"/>
<path d="M58.9102 47.0586H64.793L64.7929 41.1758H58.9102V47.0586Z" fill="#231F20"/>
<path d="M76.5585 47.0586H82.4413V41.1758H76.5586L76.5585 47.0586Z" fill="#5A5758"/>
<path d="M70.6758 47.0586H76.5585L76.5586 41.1758H70.6758V47.0586Z" fill="#5A5758"/>
<path d="M64.793 47.0586H70.6758V41.1758H64.7929L64.793 47.0586Z" fill="#5A5758"/>
<path d="M29.5 47.0586H35.3813V41.1758H29.5V47.0586Z" fill="#5A5758"/>
<path d="M41.2617 47.0586H47.1445L47.1445 41.1758H41.2617V47.0586Z" fill="#5A5758"/>
<path d="M23.6133 47.0586H29.496V41.1758H23.6133V47.0586Z" fill="#231F20"/>
<path d="M35.3791 47.0586H41.2617V41.1758H35.3791V47.0586Z" fill="#5A5758"/>
<path d="M88.3202 47.0586H94.2031V41.1758H88.3203L88.3202 47.0586Z" fill="#231F20"/>
<path d="M123.613 47.0586L129.496 47.0585V41.1758H123.613L123.613 47.0586Z" fill="white"/>
<path d="M111.852 47.0586H117.733V41.1758H111.852V47.0586Z" fill="white"/>
<path d="M82.4375 47.0586H88.3202L88.3203 41.1758H82.4375V47.0586Z" fill="#5A5758"/>
<path d="M123.613 52.9414L129.496 52.9413V47.0585L123.613 47.0586V52.9414Z" fill="white"/>
<path d="M117.73 47.0586H123.613L123.613 41.1758H117.73V47.0586Z" fill="white"/>
<path d="M105.969 47.0586H111.852V41.1758H105.969V47.0586Z" fill="white"/>
<path d="M123.613 58.8241L129.496 58.8242V52.9413L123.613 52.9414V58.8241Z" fill="white"/>
<path d="M94.2031 47.0586H100.086V41.1758H94.2031V47.0586Z" fill="white"/>
<path d="M100.086 47.0586H105.967V41.1758H100.086V47.0586Z" fill="white"/>
<path d="M123.613 147.059H129.496L129.496 141.176L123.613 141.176V147.059Z" fill="#231F20"/>
<path d="M5.96868 58.8241L11.8516 58.8242V52.9413L5.96868 52.9414V58.8241Z" fill="white"/>
<path d="M5.96868 82.3516L11.85 82.3515V76.4688H5.96875L5.96868 82.3516Z" fill="#E7E3E2"/>
<path d="M5.96875 70.5878H11.85V64.7051H5.96875V70.5878Z" fill="white"/>
<path d="M5.96875 64.7051H11.85V58.8242L5.96868 58.8241L5.96875 64.7051Z" fill="white"/>
<path d="M5.96875 76.4688H11.85V70.5878H5.96875V76.4688Z" fill="white"/>
<path d="M5.96868 88.2343H11.85V82.3515L5.96868 82.3516V88.2343Z" fill="#C8C4C3"/>
<path d="M5.96875 94.1171H11.85V88.2343H5.96868L5.96875 94.1171Z" fill="#231F20"/>
<path d="M105.969 170.588H111.851V164.707H105.969V170.588Z" fill="#444142"/>
<path d="M94.2031 170.588H100.086V164.707H94.2031L94.2031 170.588Z" fill="#231F20"/>
<path d="M100.086 170.588H105.967V164.707H100.086V170.588Z" fill="#231F20"/>
<path d="M88.3203 170.588H94.2031L94.2031 164.707H88.3203V170.588Z" fill="#231F20"/>
<path d="M82.4375 170.588H88.3203V164.707H82.4375V170.588Z" fill="#231F20"/>
<path d="M123.613 170.588H129.496L129.496 164.707H123.613L123.613 170.588Z" fill="#5A5758"/>
<path d="M129.496 170.588H135.379V164.707H129.496L129.496 170.588Z" fill="#5A5758"/>
<path d="M76.5586 170.588H82.4399V164.707H76.5586V170.588Z" fill="#231F20"/>
<path d="M117.73 170.588H123.613L123.613 164.707H117.73V170.588Z" fill="#5A5758"/>
<path d="M111.851 170.588H117.733V164.707H111.851V170.588Z" fill="#868484"/>
<path d="M47.1445 170.588H53.0273V164.707H47.1445V170.588Z" fill="#231F20"/>
<path d="M29.5 170.588H35.3813V164.707H29.5V170.588Z" fill="#444142"/>
<path d="M41.2618 170.588L47.1445 170.588V164.707H41.2617L41.2618 170.588Z" fill="#231F20"/>
<path d="M35.3791 170.588H41.2618L41.2617 164.707H35.3791L35.3791 170.588Z" fill="#231F20"/>
<path d="M23.6133 170.588H29.496V164.707H23.6133V170.588Z" fill="#868484"/>
<path d="M64.7929 170.588H70.6757V164.707H64.793L64.7929 170.588Z" fill="white"/>
<path d="M58.9102 170.588H64.7929L64.793 164.707H58.9102V170.588Z" fill="white"/>
<path d="M17.7344 170.588H23.6171V164.707H17.7344V170.588Z" fill="#231F20"/>
<path d="M70.6757 170.588H76.5586V164.707H70.6757V170.588Z" fill="#E7E3E2"/>
<path d="M53.0273 170.588L58.9086 170.588L58.9086 164.707H53.0273V170.588Z" fill="#231F20"/>
<path d="M11.8516 41.1758H17.7343V35.2948H11.8516V41.1758Z" fill="white"/>
<path d="M129.496 58.8242L135.379 58.8241V52.9414L129.496 52.9413V58.8242Z" fill="white"/>
<path d="M129.496 64.7051H135.379V58.8241L129.496 58.8242V64.7051Z" fill="white"/>
<path d="M129.496 70.5878L135.379 70.5879V64.7051H129.496V70.5878Z" fill="#E7E3E2"/>
<path d="M129.496 82.3516L135.379 82.3515V76.4692H129.496V82.3516Z" fill="#E7E3E2"/>
<path d="M117.73 41.1758H123.613L123.613 35.2948H117.73V41.1758Z" fill="white"/>
<path d="M129.496 47.0585H135.379V41.1758H129.496V47.0585Z" fill="#231F20"/>
<path d="M129.496 52.9413L135.379 52.9414L135.379 47.0585H129.496V52.9413Z" fill="#231F20"/>
<path d="M123.613 41.1758H129.496L129.496 35.2949L123.613 35.2948L123.613 41.1758Z" fill="#231F20"/>
<path d="M129.496 88.2344L135.379 88.2343V82.3515L129.496 82.3516V88.2344Z" fill="#C8C4C3"/>
<path d="M129.496 76.4692H135.379V70.5879L129.496 70.5878V76.4692Z" fill="#E7E3E2"/>
<path d="M129.496 123.53H135.379V117.648L129.496 117.648V123.53Z" fill="#444142"/>
<path d="M129.496 135.295L135.379 135.295V129.412H129.496V135.295Z" fill="#231F20"/>
<path d="M129.496 129.412H135.379V123.53H129.496V129.412Z" fill="#231F20"/>
<path d="M129.496 141.176L135.379 141.176V135.295L129.496 135.295V141.176Z" fill="#E7E3E2"/>
<path d="M129.496 105.883H135.379V100H129.496V105.883Z" fill="#5A5758"/>
<path d="M129.496 99.9985H135.379V94.1171H129.496V99.9985Z" fill="#444142"/>
<path d="M129.496 94.1171H135.379V88.2343L129.496 88.2344V94.1171Z" fill="#231F20"/>
<path d="M129.496 117.648L135.379 117.648V111.766L129.496 111.766V117.648Z" fill="#5A5758"/>
<path d="M129.496 111.766L135.379 111.766V105.883H129.496V111.766Z" fill="#5A5758"/>
<path d="M58.9102 41.1758H64.7929V35.2948H58.9102V41.1758Z" fill="white"/>
<path d="M29.5 41.1758H35.3813V35.2948H29.5V41.1758Z" fill="#231F20"/>
<path d="M35.3791 41.1758H41.2617L41.2618 35.295H35.3791L35.3791 41.1758Z" fill="#231F20"/>
<path d="M23.6133 41.1758H29.496V35.2948H23.6133V41.1758Z" fill="white"/>
<path d="M41.2617 41.1758H47.1445V35.2948L41.2618 35.295L41.2617 41.1758Z" fill="#231F20"/>
<path d="M47.1445 41.1758H53.0273L53.0273 35.295L47.1445 35.2948V41.1758Z" fill="white"/>
<path d="M53.0273 41.1758H58.9086L58.9086 35.295H53.0273L53.0273 41.1758Z" fill="white"/>
<path d="M5.96875 47.0585H11.85V41.1758H5.96875V47.0585Z" fill="#231F20"/>
<path d="M17.7343 41.1758H23.6171L23.6171 35.2949L17.7343 35.2948V41.1758Z" fill="white"/>
<path d="M5.96875 41.1758H11.85L11.85 35.2949H5.96872L5.96875 41.1758Z" fill="#231F20"/>
<path d="M129.496 147.059H135.379V141.176L129.496 141.176L129.496 147.059Z" fill="#231F20"/>
<path d="M64.7929 41.1758H70.6758V35.2948H64.7929V41.1758Z" fill="#231F20"/>
<path d="M88.3203 41.1758H94.2031L94.2031 35.2948H88.3202L88.3203 41.1758Z" fill="white"/>
<path d="M94.2031 41.1758H100.086V35.2948H94.2031L94.2031 41.1758Z" fill="white"/>
<path d="M100.086 41.1758H105.967V35.2948H100.086V41.1758Z" fill="white"/>
<path d="M105.969 41.1758H111.852V35.2948H105.969V41.1758Z" fill="white"/>
<path d="M111.852 41.1758H117.733V35.2948H111.852V41.1758Z" fill="white"/>
<path d="M70.6758 41.1758H76.5586L76.5585 35.2948H70.6758V41.1758Z" fill="#231F20"/>
<path d="M5.96868 52.9414L11.8516 52.9413V47.0586L5.96875 47.0585L5.96868 52.9414Z" fill="#231F20"/>
<path d="M76.5586 41.1758L82.4398 41.1762L82.4399 35.2948H76.5585L76.5586 41.1758Z" fill="#231F20"/>
<path d="M82.4375 41.1758H88.3203L88.3202 35.2948H82.4375V41.1758Z" fill="#231F20"/>
</svg>
