<svg width="267" height="200" viewBox="0 0 267 200" fill="none" xmlns="http://www.w3.org/2000/svg">
<path d="M6.70898 199.999H13.3761V193.334H6.70898V199.999Z" fill="#231F20"/>
<path d="M0.0449219 199.999H6.71043V193.334H0.0449219V199.999Z" fill="#231F20"/>
<path d="M0.0449219 193.335H6.71043V186.668H0.0449219V193.335Z" fill="#231F20"/>
<path d="M40.0449 6.6655H46.7121V0H40.0449V6.6655Z" fill="#231F20"/>
<path d="M80.0449 6.6655H86.7121V0H80.0449V6.6655Z" fill="#231F20"/>
<path d="M73.377 6.6655H80.0425V0H73.377V6.6655Z" fill="#231F20"/>
<path d="M86.7121 6.6655H93.3801V0H86.7121V6.6655Z" fill="#231F20"/>
<path d="M60.0449 6.6655H66.7121V0H60.0449V6.6655Z" fill="#231F20"/>
<path d="M46.7121 6.6655H53.3801V0H46.7121V6.6655Z" fill="#231F20"/>
<path d="M53.3768 6.6655H60.0449V0H53.3768V6.6655Z" fill="#231F20"/>
<path d="M33.377 6.6655H40.0449V0H33.377V6.6655Z" fill="#231F20"/>
<path d="M66.7121 6.6655H73.3801V0H66.7121V6.6655Z" fill="#231F20"/>
<path d="M0.0449219 73.3315H6.71043V66.666H0.0449219V73.3315Z" fill="#231F20"/>
<path d="M0.0449219 66.6672H6.71043V60H0.0449219V66.6672Z" fill="#231F20"/>
<path d="M0.0449219 79.9993H6.71043V73.3315H0.0449219V79.9993Z" fill="#231F20"/>
<path d="M0.0449219 60H6.71043V53.3339H0.0449219V60Z" fill="#231F20"/>
<path d="M0.0449219 53.3339H6.71043V46.666H0.0449219V53.3339Z" fill="#231F20"/>
<path d="M0.0449219 86.6672H6.71043V79.9993H0.0449219V86.6672Z" fill="#231F20"/>
<path d="M0.0449219 93.3332H6.71043V86.666H0.0449219V93.3332Z" fill="#231F20"/>
<path d="M200.045 113.333H206.71V106.666H200.045V113.333Z" fill="#6E87BD"/>
<path d="M200.045 106.667H206.71V100H200.045V106.667Z" fill="#6E87BD"/>
<path d="M200.045 126.666H206.71V120H200.045V126.666Z" fill="#6E87BD"/>
<path d="M200.045 133.333H206.71V126.666H200.045V133.333Z" fill="#6E87BD"/>
<path d="M200.045 120.001H206.71V113.333H200.045V120.001Z" fill="#6E87BD"/>
<path d="M200.045 86.6672H206.71V80H200.045V86.6672Z" fill="#6E87BD"/>
<path d="M200.045 80H206.71V73.332H200.045V80Z" fill="#231F20"/>
<path d="M200.045 100H206.71V93.334H200.045V100Z" fill="#6E87BD"/>
<path d="M200.045 93.334H206.71V86.666H200.045V93.334Z" fill="#6E87BD"/>
<path d="M200.045 140.001H206.71V133.333H200.045V140.001Z" fill="#6E87BD"/>
<path d="M200.045 186.667H206.71V180H200.045V186.667Z" fill="#231F20"/>
<path d="M200.045 180H206.71V173.334H200.045V180Z" fill="#37507B"/>
<path d="M200.045 173.334H206.71V166.668H200.045V173.334Z" fill="#4D679B"/>
<path d="M200.045 159.999H206.71V153.332H200.045V159.999Z" fill="#6E87BD"/>
<path d="M200.045 153.333H206.71V146.666H200.045V153.333Z" fill="#6E87BD"/>
<path d="M200.045 146.666H206.71V140H200.045V146.666Z" fill="#6E87BD"/>
<path d="M200.045 166.668H206.71V159.999H200.045V166.668Z" fill="#5A74AD"/>
<path d="M126.713 193.335H133.378V186.668H126.713V193.335Z" fill="#4D679B"/>
<path d="M186.713 66.6672H193.38V60H186.713V66.6672Z" fill="#231F20"/>
<path d="M186.713 79.9992H193.38V73.332H186.713V79.9992Z" fill="#6E87BD"/>
<path d="M186.713 73.332H193.38V66.666H186.713V73.332Z" fill="#9AB6E3"/>
<path d="M60.0449 13.3332H66.7121V6.6655H60.0449V13.3332Z" fill="#9AB6E3"/>
<path d="M26.7129 13.3332H33.3784V6.66602H26.7129V13.3332Z" fill="#231F20"/>
<path d="M33.377 13.3332H40.0441L40.0449 6.6655H33.377V13.3332Z" fill="#9AB6E3"/>
<path d="M40.0441 13.3332H46.7121V6.6655H40.0449L40.0441 13.3332Z" fill="#9AB6E3"/>
<path d="M46.7121 13.3332H53.3801V6.6655H46.7121V13.3332Z" fill="#9AB6E3"/>
<path d="M93.377 13.3332H100.044V6.66602H93.377V13.3332Z" fill="#231F20"/>
<path d="M86.7129 13.3332H93.3801V6.6655H86.7121L86.7129 13.3332Z" fill="#9AB6E3"/>
<path d="M186.713 86.6672H193.38V79.9992H186.713V86.6672Z" fill="#6E87BD"/>
<path d="M66.7121 13.3332H73.3801V6.6655H66.7121V13.3332Z" fill="#9AB6E3"/>
<path d="M53.3768 13.3332H60.0449L60.044 6.66602L53.3768 6.6655L53.3768 13.3332Z" fill="#9AB6E3"/>
<path d="M80.0449 13.3332H86.7129L86.7121 6.6655H80.0449V13.3332Z" fill="#9AB6E3"/>
<path d="M73.377 13.3332H80.0425V6.6655H73.377V13.3332Z" fill="#9AB6E3"/>
<path d="M93.377 193.335H100.044V186.668H93.377V193.335Z" fill="#37507B"/>
<path d="M100.044 193.335H106.71V186.668H100.044V193.335Z" fill="#37507B"/>
<path d="M106.713 193.335H113.38V186.668H106.713V193.335Z" fill="#231F20"/>
<path d="M146.713 193.335H153.38V186.668H146.713V193.335Z" fill="#231F20"/>
<path d="M73.377 193.335H80.0425V186.668H73.377V193.335Z" fill="#37507B"/>
<path d="M80.0449 193.335H86.7121V186.668H80.0449V193.335Z" fill="#37507B"/>
<path d="M133.377 193.335H140.044V186.668H133.377V193.335Z" fill="#231F20"/>
<path d="M140.044 193.335H146.713V186.668H140.044V193.335Z" fill="#4D679B"/>
<path d="M113.377 193.335H120.044V186.668H113.377V193.335Z" fill="#4D679B"/>
<path d="M120.044 193.335H126.71V186.668H120.044V193.335Z" fill="#4D679B"/>
<path d="M86.7121 193.335H93.3801V186.668H86.7121V193.335Z" fill="#37507B"/>
<path d="M66.7129 193.335H73.3801V186.668H66.7129V193.335Z" fill="#37507B"/>
<path d="M26.7129 193.335H33.3784V186.668H26.7129V193.335Z" fill="#37507B"/>
<path d="M20.0449 193.335H26.7129V186.668H20.0449V193.335Z" fill="#4D679B"/>
<path d="M33.377 193.335H40.0441V186.668H33.377V193.335Z" fill="#37507B"/>
<path d="M60.0449 193.335H66.7129V186.668H60.0449V193.335Z" fill="#37507B"/>
<path d="M53.3768 193.335H60.0449V186.668H53.3768V193.335Z" fill="#37507B"/>
<path d="M46.7129 193.335H53.3801V186.668H46.7129V193.335Z" fill="#231F20"/>
<path d="M40.0441 193.335H46.7129V186.668H40.0441V193.335Z" fill="#231F20"/>
<path d="M186.713 186.667H193.38V180H186.713V186.667Z" fill="#4D679B"/>
<path d="M186.713 133.333H193.38V126.666H186.713V133.333Z" fill="#6E87BD"/>
<path d="M186.713 140.001H193.38V133.333H186.713V140.001Z" fill="#6E87BD"/>
<path d="M186.713 153.333H193.38V146.666H186.713V153.333Z" fill="#6E87BD"/>
<path d="M186.713 159.999H193.38V153.332H186.713V159.999Z" fill="#6E87BD"/>
<path d="M153.393 193.335H160.06V186.668H153.393V193.335Z" fill="#4D679B"/>
<path d="M186.713 146.666H193.38V140H186.713V146.666Z" fill="#6E87BD"/>
<path d="M186.713 99.9995H193.38V93.334H186.713V99.9995Z" fill="#231F20"/>
<path d="M186.713 120.001H193.38V113.334H186.713V120.001Z" fill="#231F20"/>
<path d="M186.713 126.666H193.38V120H186.713V126.666Z" fill="#6E87BD"/>
<path d="M173.381 193.335H180.046V186.668H173.381V193.335Z" fill="#37507B"/>
<path d="M166.713 193.335H173.381V186.668H166.713V193.335Z" fill="#231F20"/>
<path d="M159.986 193.335H166.653V186.668H159.986V193.335Z" fill="#4D679B"/>
<path d="M180.045 193.335H186.712V186.668H180.045V193.335Z" fill="#37507B"/>
<path d="M186.713 166.667H193.38V159.999H186.713V166.667Z" fill="#6E87BD"/>
<path d="M186.713 180H193.38V173.334H186.713V180Z" fill="#5A74AD"/>
<path d="M186.713 173.334H193.38V166.667H186.713V173.334Z" fill="#6E87BD"/>
<path d="M186.713 93.334H193.38V86.666H186.713V93.334Z" fill="#4D679B"/>
<path d="M186.712 193.335H193.38V186.667H186.713L186.712 193.335Z" fill="#231F20"/>
<path d="M193.38 173.334L200.048 173.333V166.668H193.381L193.38 173.334Z" fill="#5A74AD"/>
<path d="M193.381 166.668H200.048V160H193.381V166.668Z" fill="#6E87BD"/>
<path d="M193.38 186.667H200.048V180H193.38V186.667Z" fill="#37507B"/>
<path d="M193.38 180H200.048V173.333L193.38 173.334V180Z" fill="#4D679B"/>
<path d="M193.38 193.335H200.048V186.667L193.381 186.668L193.38 193.335Z" fill="#231F20"/>
<path d="M193.381 160H200.048V153.332H193.38L193.381 160Z" fill="#6E87BD"/>
<path d="M193.38 140.001H200.048V133.334H193.381L193.38 140.001Z" fill="#6E87BD"/>
<path d="M193.381 133.334H200.048V126.666H193.38L193.381 133.334Z" fill="#6E87BD"/>
<path d="M133.377 199.999H140.044V193.334H133.377V199.999Z" fill="#231F20"/>
<path d="M6.70898 46.6672H13.3761V40H6.70898V46.6672Z" fill="#231F20"/>
<path d="M146.713 199.999H153.38V193.334H146.713V199.999Z" fill="#231F20"/>
<path d="M160.045 199.999H166.712V193.334H160.045V199.999Z" fill="#231F20"/>
<path d="M153.377 199.999H160.045V193.334H153.377V199.999Z" fill="#231F20"/>
<path d="M140.044 199.999H146.713V193.334H140.044V199.999Z" fill="#231F20"/>
<path d="M173.381 199.999H180.046V193.334H173.381V199.999Z" fill="#231F20"/>
<path d="M180.045 199.999H186.712V193.334H180.045V199.999Z" fill="#231F20"/>
<path d="M193.38 126.666H200.048V120H193.38V126.666Z" fill="#6E87BD"/>
<path d="M166.712 199.999H173.381V193.334H166.712V199.999Z" fill="#231F20"/>
<path d="M193.38 153.333H200.048V146.666H193.38V153.333Z" fill="#6E87BD"/>
<path d="M193.38 79.9992H200.048V73.332H193.38V79.9992Z" fill="#9AB6E3"/>
<path d="M193.381 93.3332H200.048V86.666H193.38L193.381 93.3332Z" fill="#6E87BD"/>
<path d="M193.381 106.667H200.048V100L193.38 99.9995L193.381 106.667Z" fill="#231F20"/>
<path d="M193.381 113.333H200.048V106.666H193.381V113.333Z" fill="#231F20"/>
<path d="M193.38 99.9995L200.048 100V93.3332H193.381L193.38 99.9995Z" fill="#4D679B"/>
<path d="M193.38 73.332H200.048V66.666H193.38V73.332Z" fill="#231F20"/>
<path d="M193.38 120.001H200.048V113.333H193.381L193.38 120.001Z" fill="#6E87BD"/>
<path d="M193.38 86.6672H200.048V79.9992L193.381 80L193.38 86.6672Z" fill="#6E87BD"/>
<path d="M193.38 146.666H200.048V140H193.38V146.666Z" fill="#6E87BD"/>
<path d="M6.70898 59.9995H13.3761V53.334H6.70898V59.9995Z" fill="#6E87BD"/>
<path d="M6.70898 179.999H13.3761V173.334H6.70898V179.999Z" fill="#231F20"/>
<path d="M6.70898 66.6672H13.3761V59.9995H6.70898V66.6672Z" fill="#6E87BD"/>
<path d="M6.70898 73.3315H13.3761V66.666H6.70898V73.3315Z" fill="#6E87BD"/>
<path d="M6.70898 53.3351H13.3761V46.6672H6.70898V53.3351Z" fill="#9AB6E3"/>
<path d="M6.70898 79.9992H13.3761V73.3315H6.70898V79.9992Z" fill="#6E87BD"/>
<path d="M6.70898 93.3332H13.3761V86.666H6.70898V93.3332Z" fill="#4D679B"/>
<path d="M6.70898 99.9995H13.3761V93.3332H6.70898V99.9995Z" fill="#231F20"/>
<path d="M6.70898 86.6672H13.3761V79.9992H6.70898V86.6672Z" fill="#6E87BD"/>
<path d="M93.377 199.999H100.044V193.334H93.377V199.999Z" fill="#231F20"/>
<path d="M60.0449 199.999H66.7121V193.334H60.0449V199.999Z" fill="#231F20"/>
<path d="M126.713 199.999H133.378V193.334H126.713V199.999Z" fill="#231F20"/>
<path d="M86.7129 199.999H93.3801V193.334H86.7129V199.999Z" fill="#231F20"/>
<path d="M73.377 199.999H80.0425V193.334H73.377V199.999Z" fill="#231F20"/>
<path d="M66.7121 199.999H73.3801V193.334H66.7121V199.999Z" fill="#231F20"/>
<path d="M80.0449 199.999H86.7129V193.334H80.0449V199.999Z" fill="#231F20"/>
<path d="M113.377 199.999H120.044V193.334H113.377V199.999Z" fill="#231F20"/>
<path d="M120.044 199.999H126.71V193.334H120.044V199.999Z" fill="#231F20"/>
<path d="M100.044 199.999H106.71V193.334H100.044V199.999Z" fill="#231F20"/>
<path d="M106.713 199.999H113.38V193.334H106.713V199.999Z" fill="#231F20"/>
<path d="M26.7129 199.999H33.3784V193.334H26.7129V199.999Z" fill="#231F20"/>
<path d="M13.3761 199.999H20.0441V193.334H13.3761V199.999Z" fill="#231F20"/>
<path d="M13.377 193.335H20.0449V186.668H13.377V193.335Z" fill="#231F20"/>
<path d="M6.70898 193.335H13.377V186.668H6.70898V193.335Z" fill="#4D679B"/>
<path d="M20.0441 199.999H26.7129V193.334H20.0441V199.999Z" fill="#231F20"/>
<path d="M53.3768 199.999H60.0449V193.334H53.3768V199.999Z" fill="#231F20"/>
<path d="M33.377 199.999H40.0441V193.334H33.377V199.999Z" fill="#231F20"/>
<path d="M6.70898 186.668L13.3761 186.667V179.999H6.70898V186.668Z" fill="#231F20"/>
<path d="M213.377 173.333H220.044V166.668H213.377V173.333Z" fill="#231F20"/>
<path d="M213.377 133.333H220.044V126.666H213.377V133.333Z" fill="#6E87BD"/>
<path d="M213.377 166.668H220.044V160H213.377V166.668Z" fill="#37507B"/>
<path d="M213.377 153.333H220.044V146.666H213.377V153.333Z" fill="#5A74AD"/>
<path d="M213.377 140.001H220.044V133.333H213.377V140.001Z" fill="#6E87BD"/>
<path d="M213.377 146.666H220.044V140H213.377V146.666Z" fill="#6E87BD"/>
<path d="M213.377 160H220.044V153.332H213.377V160Z" fill="#4D679B"/>
<path d="M213.377 126.666H220.044V120H213.377V126.666Z" fill="#6E87BD"/>
<path d="M213.377 113.333H220.044V106.666H213.377V113.333Z" fill="#6E87BD"/>
<path d="M213.377 106.667H220.044V100H213.377V106.667Z" fill="#6E87BD"/>
<path d="M213.377 120.001H220.044V113.333H213.377V120.001Z" fill="#6E87BD"/>
<path d="M213.377 100H220.044V93.334H213.377V100Z" fill="#6E87BD"/>
<path d="M213.377 86.6672H220.044V80H213.377V86.6672Z" fill="#6E87BD"/>
<path d="M213.377 73.3315H220.044V66.666H213.377V73.3315Z" fill="#231F20"/>
<path d="M213.377 80H220.044V73.3315H213.377V80Z" fill="#9AB6E3"/>
<path d="M213.377 93.334H220.044V86.666H213.377V93.334Z" fill="#6E87BD"/>
<path d="M20.0449 186.668L26.7121 186.667V180H20.0449V186.668Z" fill="#6E87BD"/>
<path d="M220.044 140.001H226.712V133.334H220.045L220.044 140.001Z" fill="#6E87BD"/>
<path d="M220.044 146.666L226.712 146.666V140H220.044V146.666Z" fill="#5A74AD"/>
<path d="M220.045 133.334H226.712V126.666H220.044L220.045 133.334Z" fill="#6E87BD"/>
<path d="M220.045 159.999H226.712V153.332H220.044L220.045 159.999Z" fill="#231F20"/>
<path d="M220.045 166.667H226.712V159.999H220.045V166.667Z" fill="#231F20"/>
<path d="M220.044 153.333H226.712V146.666L220.044 146.666V153.333Z" fill="#4D679B"/>
<path d="M220.044 106.667H226.712V100H220.044V106.667Z" fill="#231F20"/>
<path d="M220.044 126.666H226.712V120H220.044V126.666Z" fill="#6E87BD"/>
<path d="M220.044 113.333H226.712V106.666H220.044V113.333Z" fill="#231F20"/>
<path d="M220.044 120.001H226.712V113.333L220.045 113.334L220.044 120.001Z" fill="#6E87BD"/>
<path d="M206.713 113.333H213.38V106.666H206.713V113.333Z" fill="#6E87BD"/>
<path d="M206.713 120.001H213.38V113.333H206.713V120.001Z" fill="#6E87BD"/>
<path d="M206.713 106.667H213.38V100H206.713V106.667Z" fill="#6E87BD"/>
<path d="M206.713 126.666H213.38V120H206.713V126.666Z" fill="#6E87BD"/>
<path d="M206.713 133.333H213.38V126.666H206.713V133.333Z" fill="#6E87BD"/>
<path d="M206.713 86.6672H213.38V80H206.713V86.6672Z" fill="#6E87BD"/>
<path d="M206.713 140.001H213.38V133.333H206.713V140.001Z" fill="#6E87BD"/>
<path d="M206.713 93.3332H213.38V86.666H206.713V93.3332Z" fill="#6E87BD"/>
<path d="M206.713 100H213.38V93.3332H206.713V100Z" fill="#6E87BD"/>
<path d="M206.713 80H213.38V73.332H206.713V80Z" fill="#231F20"/>
<path d="M206.713 146.666H213.38V140H206.713V146.666Z" fill="#6E87BD"/>
<path d="M206.713 173.333H213.38V166.668H206.713V173.333Z" fill="#37507B"/>
<path d="M206.713 153.333H213.38V146.666H206.713V153.333Z" fill="#6E87BD"/>
<path d="M206.713 159.999H213.38V153.332H206.713V159.999Z" fill="#5A74AD"/>
<path d="M206.713 166.668H213.38V159.999H206.713V166.668Z" fill="#4D679B"/>
<path d="M206.713 179.999H213.38V173.333H206.713V179.999Z" fill="#231F20"/>
<path d="M100.045 133.333H106.71V126.666H100.045V133.333Z" fill="#6E87BD"/>
<path d="M106.713 53.3351H113.38V46.668H106.713V53.3351Z" fill="#6E87BD"/>
<path d="M113.38 53.3351H120.048V46.668H113.38V53.3351Z" fill="#231F20"/>
<path d="M146.713 93.3332H153.38V86.666H146.713V93.3332Z" fill="#231F20"/>
<path d="M146.713 126.666H153.38V120H146.713V126.666Z" fill="#6E87BD"/>
<path d="M146.713 120.001H153.38V113.334H146.713V120.001Z" fill="#5A74AD"/>
<path d="M146.713 133.333H153.38L153.38 126.666H146.713L146.713 133.333Z" fill="#6E87BD"/>
<path d="M146.713 113.334H153.38V106.666H146.713V113.334Z" fill="#6E87BD"/>
<path d="M146.713 140.001H153.38L153.38 133.333H146.713L146.713 140.001Z" fill="#5A74AD"/>
<path d="M100.045 53.3351H106.71V46.668H100.045V53.3351Z" fill="#6E87BD"/>
<path d="M146.713 106.667H153.38V100H146.713V106.667Z" fill="#6E87BD"/>
<path d="M146.713 100H153.38V93.3332H146.713V100Z" fill="#6E87BD"/>
<path d="M46.7129 73.3315H53.3801V66.666H46.7129V73.3315Z" fill="#EDB35B"/>
<path d="M46.7129 93.3332H53.3801V86.666H46.7129V93.3332Z" fill="#231F20"/>
<path d="M46.7129 99.9995H53.3801V93.3332H46.7129V99.9995Z" fill="#4D679B"/>
<path d="M46.7129 106.667H53.3801V99.9995H46.7129V106.667Z" fill="#6E87BD"/>
<path d="M46.7129 86.6672H53.3801V80H46.7129V86.6672Z" fill="#B01419"/>
<path d="M46.7129 80H53.3801V73.3315H46.7129V80Z" fill="#231F20"/>
<path d="M46.7129 113.333H53.3801V106.666H46.7129V113.333Z" fill="#6E87BD"/>
<path d="M46.7129 126.666H53.3801V120H46.7129V126.666Z" fill="#5A74AD"/>
<path d="M46.7129 133.333H53.3801V126.666H46.7129V133.333Z" fill="#6E87BD"/>
<path d="M46.7129 120.001H53.3801V113.333H46.7129V120.001Z" fill="#6E87BD"/>
<path d="M146.713 146.666H153.38V140H146.713V146.666Z" fill="#6E87BD"/>
<path d="M80.0449 53.3351H86.7121V46.668H80.0449V53.3351Z" fill="#6E87BD"/>
<path d="M93.377 53.3351H100.045V46.668H93.377V53.3351Z" fill="#6E87BD"/>
<path d="M73.377 53.3351H80.0425V46.668H73.377V53.3351Z" fill="#6E87BD"/>
<path d="M46.7129 66.6672H53.3801V60H46.7129V66.6672Z" fill="#FCD379"/>
<path d="M86.7121 53.3351H93.3801V46.668H86.7121V53.3351Z" fill="#6E87BD"/>
<path d="M66.7129 53.3351H73.3801V46.668H66.7129V53.3351Z" fill="#FCD379"/>
<path d="M46.7129 53.3351H53.3801V46.668H46.7129V53.3351Z" fill="#654634"/>
<path d="M46.7129 60H53.3801V53.334H46.7129V60Z" fill="#231F20"/>
<path d="M60.0449 53.3351H66.7129V46.668H60.0449V53.3351Z" fill="#FCD379"/>
<path d="M53.3768 53.3332H60.044V46.666H53.3768V53.3332Z" fill="#231F20"/>
<path d="M53.3768 146.667H60.044V140H53.3768V146.667Z" fill="#6E87BD"/>
<path d="M53.3768 66.6672H60.044V60H53.3768V66.6672Z" fill="#FCD379"/>
<path d="M53.3768 60H60.044V53.3332H53.3768V60Z" fill="#EDB35B"/>
<path d="M66.7129 59.9995H73.3801V53.334H66.7129V59.9995Z" fill="#FCD379"/>
<path d="M60.0449 59.9995H66.7129V53.334H60.0449V59.9995Z" fill="#FCD379"/>
<path d="M53.3768 73.3315H60.044V66.666H53.3768V73.3315Z" fill="#EDB35B"/>
<path d="M53.3768 99.9995H60.044V93.334H53.3768V99.9995Z" fill="#231F20"/>
<path d="M73.377 59.9995H80.0425V53.334H73.377V59.9995Z" fill="#FCD379"/>
<path d="M53.3768 106.667H60.044V99.9995H53.3768V106.667Z" fill="#6E87BD"/>
<path d="M53.3768 86.6672H60.044V80H53.3768V86.6672Z" fill="#231F20"/>
<path d="M53.3768 80H60.044V73.3315H53.3768V80Z" fill="#231F20"/>
<path d="M53.3768 93.334H60.044V86.666H53.3768V93.334Z" fill="#231F20"/>
<path d="M113.381 59.9995H120.048V53.334H113.381V59.9995Z" fill="#9AB6E3"/>
<path d="M146.713 153.333H153.38L153.38 146.666H146.713L146.713 153.333Z" fill="#6E87BD"/>
<path d="M80.0449 59.9995H86.7121V53.334H80.0449V59.9995Z" fill="#6E87BD"/>
<path d="M120.045 59.9995H126.71V53.334H120.045V59.9995Z" fill="#231F20"/>
<path d="M106.713 59.9995H113.381V53.334H106.713V59.9995Z" fill="#6E87BD"/>
<path d="M86.7121 59.9995H93.3801V53.334H86.7121V59.9995Z" fill="#6E87BD"/>
<path d="M93.377 59.9995H100.044V53.334H93.377V59.9995Z" fill="#5A74AD"/>
<path d="M100.044 59.9995H106.71V53.334H100.044V59.9995Z" fill="#6E87BD"/>
<path d="M106.713 153.333H113.38V146.666H106.713V153.333Z" fill="#6E87BD"/>
<path d="M113.377 153.333H120.044V146.666H113.377V153.333Z" fill="#6E87BD"/>
<path d="M80.0449 153.333H86.7121V146.668H80.0449V153.333Z" fill="#6E87BD"/>
<path d="M86.7121 146.668V153.333L93.3801 153.333V146.666L86.7121 146.668Z" fill="#6E87BD"/>
<path d="M93.377 153.333H100.044V146.666H93.377V153.333Z" fill="#6E87BD"/>
<path d="M53.3768 113.333H60.044V106.666H53.3768V113.333Z" fill="#6E87BD"/>
<path d="M140.045 153.333L146.713 153.333L146.712 146.666H140.045V153.333Z" fill="#6E87BD"/>
<path d="M120.044 153.333H126.71V146.666H120.044V153.333Z" fill="#6E87BD"/>
<path d="M133.377 153.333H140.045V146.666H133.377V153.333Z" fill="#6E87BD"/>
<path d="M126.713 153.333H133.378V146.666H126.713V153.333Z" fill="#6E87BD"/>
<path d="M100.044 153.333H106.71V146.666H100.044V153.333Z" fill="#6E87BD"/>
<path d="M53.3768 126.666H60.044V120H53.3768V126.666Z" fill="#5A74AD"/>
<path d="M53.3768 133.333H60.044L60.044 126.666H53.3768L53.3768 133.333Z" fill="#6E87BD"/>
<path d="M53.3768 120.001H60.044V113.333H53.3768V120.001Z" fill="#6E87BD"/>
<path d="M53.3768 140.001H60.044L60.044 133.333H53.3768L53.3768 140.001Z" fill="#6E87BD"/>
<path d="M60.0449 153.333H66.7121V146.668H60.0449V153.333Z" fill="#6E87BD"/>
<path d="M66.7121 153.333H73.3801V146.668H66.7121V153.333Z" fill="#6E87BD"/>
<path d="M46.7129 140.001H53.3801V133.333H46.7129V140.001Z" fill="#6E87BD"/>
<path d="M73.377 153.333H80.0425V146.668H73.377V153.333Z" fill="#6E87BD"/>
<path d="M60.0449 146.668H66.7121V140H60.044L60.0449 146.668Z" fill="#6E87BD"/>
<path d="M40.0449 73.3315H46.7129V66.666H40.0449V73.3315Z" fill="#231F20"/>
<path d="M40.0449 46.6672H46.7121V40H40.0449V46.6672Z" fill="#231F20"/>
<path d="M40.0449 79.9992H46.7121L46.7129 73.3315H40.0449V79.9992Z" fill="#231F20"/>
<path d="M40.0449 59.9995L46.7129 60V53.334H40.0449V59.9995Z" fill="#231F20"/>
<path d="M40.0449 53.3351H46.7129L46.7121 46.6672H40.0449V53.3351Z" fill="#654634"/>
<path d="M40.0449 66.6672H46.7129V60L40.0449 59.9995V66.6672Z" fill="#231F20"/>
<path d="M40.0449 86.6672H46.7129L46.7121 79.9992H40.0449V86.6672Z" fill="#B01419"/>
<path d="M40.0449 106.667H46.7104V100H40.0449V106.667Z" fill="#6E87BD"/>
<path d="M40.0449 100L46.7129 99.9995L46.7121 93.334H40.0449V100Z" fill="#4D679B"/>
<path d="M40.0449 93.334H46.7121L46.7129 86.666H40.0449V93.334Z" fill="#231F20"/>
<path d="M100.045 46.668H106.71V40H100.045V46.668Z" fill="#6E87BD"/>
<path d="M80.0449 46.668H86.7121V40H80.0449V46.668Z" fill="#6E87BD"/>
<path d="M93.377 46.668L100.044 46.6672L100.045 40H93.377V46.668Z" fill="#6E87BD"/>
<path d="M86.7129 46.6672L93.3801 46.668V40H86.7121L86.7129 46.6672Z" fill="#6E87BD"/>
<path d="M40.0449 113.333H46.7129V106.666H40.0449V113.333Z" fill="#6E87BD"/>
<path d="M66.7129 46.668H73.3801V40H66.7129V46.668Z" fill="#6E87BD"/>
<path d="M60.0449 46.668L66.7121 46.6672L66.7129 40H60.0449V46.668Z" fill="#6E87BD"/>
<path d="M106.713 46.668L113.378 46.6672V40H106.713V46.668Z" fill="#9AB6E3"/>
<path d="M73.377 46.668H80.0425V40H73.377V46.668Z" fill="#6E87BD"/>
<path d="M46.7129 46.668H53.3801V40H46.7121L46.7129 46.668Z" fill="#231F20"/>
<path d="M53.3768 46.6672H60.044L60.0449 40H53.3768V46.6672Z" fill="#6E87BD"/>
<path d="M86.7129 160V166.667H93.3801V160H86.7129Z" fill="#4D679B"/>
<path d="M80.0449 166.667H86.7129V160H80.0449V166.667Z" fill="#6E87BD"/>
<path d="M73.377 166.667H80.0425V160H73.377V166.667Z" fill="#6E87BD"/>
<path d="M93.377 166.667H100.044V160H93.377V166.667Z" fill="#231F20"/>
<path d="M60.0449 166.667H66.7121V160H60.0449V166.667Z" fill="#6E87BD"/>
<path d="M66.7121 166.667H73.3801V160H66.7121V166.667Z" fill="#6E87BD"/>
<path d="M100.044 166.667H106.71V160H100.044V166.667Z" fill="#4D679B"/>
<path d="M113.377 166.667H120.044V160H113.377V166.667Z" fill="#6E87BD"/>
<path d="M120.044 166.667H126.71V160H120.044V166.667Z" fill="#6E87BD"/>
<path d="M106.713 166.667H113.38V160H106.713V166.667Z" fill="#6E87BD"/>
<path d="M46.7129 166.667H53.3801V160H46.7129V166.667Z" fill="#6E87BD"/>
<path d="M40.0449 140.001H46.7129L46.7121 133.334H40.0449V140.001Z" fill="#6E87BD"/>
<path d="M40.0449 133.334H46.7121L46.7129 126.666L40.0449 126.666V133.334Z" fill="#5A74AD"/>
<path d="M40.0449 146.667H46.7121V140H40.0449V146.667Z" fill="#6E87BD"/>
<path d="M40.0449 126.666L46.7129 126.666V120H40.0449V126.666Z" fill="#5A74AD"/>
<path d="M53.3768 166.667H60.0449V160H53.3768V166.667Z" fill="#6E87BD"/>
<path d="M40.0449 153.333H46.7121V146.667H40.0449V153.333Z" fill="#6E87BD"/>
<path d="M40.0449 120.001H46.7129L46.7121 113.334L40.0449 113.333V120.001Z" fill="#5A74AD"/>
<path d="M46.7129 160H53.3801V153.332H46.7129V160Z" fill="#6E87BD"/>
<path d="M40.0449 159.999H46.7121L46.7129 153.332H40.0449V159.999Z" fill="#6E87BD"/>
<path d="M140.045 159.999H146.712V153.332H140.045V159.999Z" fill="#6E87BD"/>
<path d="M100.045 159.999L106.71 160V153.332H100.045V159.999Z" fill="#6E87BD"/>
<path d="M120.045 159.999L126.71 160V153.332H120.045V159.999Z" fill="#231F20"/>
<path d="M133.377 159.999H140.045V153.332H133.377V159.999Z" fill="#231F20"/>
<path d="M106.713 160H113.38V153.332H106.713V160Z" fill="#6E87BD"/>
<path d="M113.377 160H120.044L120.045 153.332H113.377V160Z" fill="#6E87BD"/>
<path d="M126.713 160.001H133.378L133.378 153.333H126.713L126.713 160.001Z" fill="#231F20"/>
<path d="M153.377 159.999H160.044V153.332H153.377V159.999Z" fill="#6E87BD"/>
<path d="M153.377 153.333H160.044V146.666H153.377V153.333Z" fill="#6E87BD"/>
<path d="M146.713 160.001H153.38L153.38 153.333H146.713L146.713 160.001Z" fill="#6E87BD"/>
<path d="M46.7121 146.667H53.3801V140H46.7121V146.667Z" fill="#6E87BD"/>
<path d="M153.377 146.666H160.044V140H153.377V146.666Z" fill="#5A74AD"/>
<path d="M60.0449 160H66.7121V153.332H60.0449V160Z" fill="#6E87BD"/>
<path d="M53.3768 153.333H60.0449L60.044 146.667H53.3768V153.333Z" fill="#6E87BD"/>
<path d="M53.3768 160.001H60.044V153.334L53.3768 153.333V160.001Z" fill="#6E87BD"/>
<path d="M46.7121 153.333H53.3801V146.667L46.7129 146.668L46.7121 153.333Z" fill="#6E87BD"/>
<path d="M93.377 160H100.044L100.045 153.332H93.377V160Z" fill="#4D679B"/>
<path d="M66.7129 159.999L73.3801 160V153.332H66.7121L66.7129 159.999Z" fill="#6E87BD"/>
<path d="M86.7129 153.332V160H93.3801V153.332H86.7129Z" fill="#5A74AD"/>
<path d="M80.0449 160L86.7121 159.999L86.7129 153.332H80.0449V160Z" fill="#6E87BD"/>
<path d="M73.377 160H80.0425V153.332H73.377V160Z" fill="#6E87BD"/>
<path d="M113.377 46.6672H120.044V40H113.377V46.6672Z" fill="#231F20"/>
<path d="M153.377 66.6672H160.044V60H153.377V66.6672Z" fill="#231F20"/>
<path d="M153.377 140.001H160.044V133.334H153.377V140.001Z" fill="#6E87BD"/>
<path d="M153.377 126.666H160.044V120H153.377V126.666Z" fill="#5A74AD"/>
<path d="M153.377 120.001H160.044V113.334H153.377V120.001Z" fill="#6E87BD"/>
<path d="M153.377 133.334H160.044V126.666H153.377V133.334Z" fill="#6E87BD"/>
<path d="M153.377 113.334H160.044V106.666H153.377V113.334Z" fill="#6E87BD"/>
<path d="M153.377 106.667H160.044V100H153.377V106.667Z" fill="#6E87BD"/>
<path d="M153.377 100H160.044V93.334H153.377V100Z" fill="#231F20"/>
<path d="M106.713 113.333H113.38V106.666H106.713V113.333Z" fill="#6E87BD"/>
<path d="M73.377 79.9992H80.0425V73.332H73.377V79.9992Z" fill="#B01419"/>
<path d="M73.377 86.6672H80.0425V79.9992H73.377V86.6672Z" fill="#231F20"/>
<path d="M73.377 126.666H80.0425V120H73.377V126.666Z" fill="#6E87BD"/>
<path d="M80.0449 79.9992H86.7121V73.332H80.0449V79.9992Z" fill="#231F20"/>
<path d="M86.7121 79.9992H93.3801V73.332H86.7121V79.9992Z" fill="#6E87BD"/>
<path d="M73.377 93.3332H80.0425V86.666H73.377V93.3332Z" fill="#4D679B"/>
<path d="M73.377 99.9995H80.0425V93.3332H73.377V99.9995Z" fill="#6E87BD"/>
<path d="M73.377 113.333H80.0425V106.666H73.377V113.333Z" fill="#6E87BD"/>
<path d="M73.377 120.001H80.0425V113.333H73.377V120.001Z" fill="#6E87BD"/>
<path d="M73.377 106.667H80.0425V99.9995H73.377V106.667Z" fill="#6E87BD"/>
<path d="M93.377 79.9992H100.044V73.332H93.377V79.9992Z" fill="#6E87BD"/>
<path d="M120.045 99.9995H126.71V93.334H120.045V99.9995Z" fill="#5A74AD"/>
<path d="M100.044 79.9992H106.71V73.332H100.044V79.9992Z" fill="#6E87BD"/>
<path d="M120.045 106.667H126.71V99.9995H120.045V106.667Z" fill="#6E87BD"/>
<path d="M120.045 120.001H126.71V113.334H120.045V120.001Z" fill="#5A74AD"/>
<path d="M120.045 113.334H126.71V106.666H120.045V113.334Z" fill="#6E87BD"/>
<path d="M120.045 93.334H126.71V86.666H120.045V93.334Z" fill="#6E87BD"/>
<path d="M106.713 79.9992H113.38V73.332H106.713V79.9992Z" fill="#6E87BD"/>
<path d="M113.38 79.9992H120.048V73.332H113.38V79.9992Z" fill="#6E87BD"/>
<path d="M120.045 79.9992H126.71V73.332H120.045V79.9992Z" fill="#6E87BD"/>
<path d="M120.045 86.6672H126.71V79.9992H120.045V86.6672Z" fill="#6E87BD"/>
<path d="M126.713 113.333H133.378V106.666H126.713V113.333Z" fill="#6E87BD"/>
<path d="M126.713 99.9995H133.378V93.334H126.713V99.9995Z" fill="#6E87BD"/>
<path d="M126.713 93.334H133.378V86.666H126.713V93.334Z" fill="#6E87BD"/>
<path d="M126.713 106.667H133.378V99.9995H126.713V106.667Z" fill="#6E87BD"/>
<path d="M126.713 86.6672H133.378V80H126.713V86.6672Z" fill="#6E87BD"/>
<path d="M120.045 126.666H126.71V120H120.045V126.666Z" fill="#6E87BD"/>
<path d="M80.0449 126.666H86.7121V120H80.0449V126.666Z" fill="#6E87BD"/>
<path d="M126.713 80H133.378L133.378 73.3322H126.713L126.713 80Z" fill="#231F20"/>
<path d="M120.045 73.332H126.71V66.666H120.045V73.332Z" fill="#231F20"/>
<path d="M113.38 73.332H120.048V66.666H113.381L113.38 73.332Z" fill="#6E87BD"/>
<path d="M93.377 133.333H100.045V126.666H93.377V133.333Z" fill="#6E87BD"/>
<path d="M86.7121 126.666L86.7129 133.333H93.3801V126.666L86.7121 126.666Z" fill="#6E87BD"/>
<path d="M80.0449 133.333H86.7129L86.7121 126.666H80.0449V133.333Z" fill="#6E87BD"/>
<path d="M220.044 100H226.712V93.334H220.044V100Z" fill="#4D679B"/>
<path d="M126.713 126.666H133.378V120H126.713V126.666Z" fill="#5A74AD"/>
<path d="M120.045 133.333H126.71V126.666H120.045V133.333Z" fill="#6E87BD"/>
<path d="M126.713 133.333H133.378L133.378 126.666H126.713L126.713 133.333Z" fill="#6E87BD"/>
<path d="M113.377 133.333H120.045V126.666L113.377 126.666V133.333Z" fill="#6E87BD"/>
<path d="M106.713 133.333H113.38V126.666H106.713V133.333Z" fill="#6E87BD"/>
<path d="M113.377 126.666L120.045 126.666V120H113.377V126.666Z" fill="#6E87BD"/>
<path d="M86.7129 106.667H93.3801V100H86.7129V106.667Z" fill="#6E87BD"/>
<path d="M86.7129 100H93.3801V93.334H86.7129V100Z" fill="#6E87BD"/>
<path d="M106.713 73.332H113.38L113.381 66.666H106.713V73.332Z" fill="#6E87BD"/>
<path d="M86.7129 93.334H93.3801V86.666H86.7129V93.334Z" fill="#6E87BD"/>
<path d="M86.7129 113.333H93.3801V106.666H86.7129V113.333Z" fill="#6E87BD"/>
<path d="M100.045 93.3332H106.71V86.666H100.045V93.3332Z" fill="#6E87BD"/>
<path d="M106.713 120.001H113.38V113.333H106.713V120.001Z" fill="#6E87BD"/>
<path d="M113.377 120.001H120.045V113.334H113.377V120.001Z" fill="#6E87BD"/>
<path d="M100.045 120.001H106.71V113.334H100.045V120.001Z" fill="#6E87BD"/>
<path d="M93.377 120.001H100.045V113.334H93.377V120.001Z" fill="#6E87BD"/>
<path d="M93.377 113.334L100.044 113.333V106.666H93.377V113.334Z" fill="#6E87BD"/>
<path d="M100.045 106.667H106.71V100H100.045V106.667Z" fill="#6E87BD"/>
<path d="M93.377 106.667H100.045V100H93.377V106.667Z" fill="#6E87BD"/>
<path d="M93.377 100H100.045L100.044 93.334H93.377V100Z" fill="#6E87BD"/>
<path d="M100.045 100H106.71V93.3332H100.045V100Z" fill="#6E87BD"/>
<path d="M106.713 93.3332H113.38V86.666H106.713V93.3332Z" fill="#6E87BD"/>
<path d="M106.713 106.667H113.38V100H106.713V106.667Z" fill="#6E87BD"/>
<path d="M100.045 113.334H106.71V106.666H100.044L100.045 113.334Z" fill="#6E87BD"/>
<path d="M106.713 100H113.38V93.3332H106.713V100Z" fill="#6E87BD"/>
<path d="M126.713 166.667H133.378V160H126.713V166.667Z" fill="#6E87BD"/>
<path d="M93.377 93.334H100.044L100.045 86.666H93.377V93.334Z" fill="#6E87BD"/>
<path d="M80.0449 113.333H86.7129V106.666H80.0449V113.333Z" fill="#6E87BD"/>
<path d="M86.7129 120.001H93.3801V113.333H86.7129V120.001Z" fill="#6E87BD"/>
<path d="M80.0449 120.001H86.7129L86.7121 113.334L80.0449 113.333V120.001Z" fill="#6E87BD"/>
<path d="M80.0449 106.667H86.7129V100H80.0449V106.667Z" fill="#6E87BD"/>
<path d="M80.0449 100H86.7129V93.334H80.0449V100Z" fill="#6E87BD"/>
<path d="M86.7121 126.666L93.3801 126.666V120H86.7121V126.666Z" fill="#6E87BD"/>
<path d="M100.045 126.666H106.71V120H100.045V126.666Z" fill="#6E87BD"/>
<path d="M106.713 126.666H113.38V120H106.713V126.666Z" fill="#6E87BD"/>
<path d="M80.0449 93.334L86.7121 93.3332L86.7129 86.666H80.0449V93.334Z" fill="#6E87BD"/>
<path d="M93.377 126.666H100.045V120H93.377V126.666Z" fill="#6E87BD"/>
<path d="M100.045 86.6672H106.71V79.9992L100.045 80V86.6672Z" fill="#6E87BD"/>
<path d="M113.381 86.6672H120.048V79.9992L113.381 80V86.6672Z" fill="#6E87BD"/>
<path d="M113.377 99.9995H120.045V93.334H113.377V99.9995Z" fill="#6E87BD"/>
<path d="M113.377 93.334L120.044 93.3332L120.045 86.666H113.377V93.334Z" fill="#5A74AD"/>
<path d="M113.377 106.667H120.045V99.9995H113.377V106.667Z" fill="#6E87BD"/>
<path d="M93.377 86.6672H100.045L100.044 79.9992H93.377V86.6672Z" fill="#6E87BD"/>
<path d="M86.7129 86.6672H93.3801V79.9992L86.7129 80V86.6672Z" fill="#6E87BD"/>
<path d="M80.0449 86.6672H86.7129L86.7121 79.9992H80.0449V86.6672Z" fill="#4D679B"/>
<path d="M106.713 86.6672H113.381L113.38 79.9992H106.713V86.6672Z" fill="#6E87BD"/>
<path d="M113.377 113.334L120.044 113.333L120.045 106.666H113.377V113.334Z" fill="#6E87BD"/>
<path d="M126.713 120.001H133.378V113.333H126.713V120.001Z" fill="#6E87BD"/>
<path d="M60.044 126.666H66.7121V120H60.044V126.666Z" fill="#6E87BD"/>
<path d="M60.044 120.001H66.7121V113.334H60.0449L60.044 120.001Z" fill="#6E87BD"/>
<path d="M60.044 133.333L66.7121 133.333V126.666L60.0449 126.666L60.044 133.333Z" fill="#6E87BD"/>
<path d="M60.0449 113.334H66.7121V106.666H60.044L60.0449 113.334Z" fill="#6E87BD"/>
<path d="M60.044 106.667H66.7121V100H60.0449L60.044 106.667Z" fill="#231F20"/>
<path d="M66.7129 146.667L73.3801 146.668V140H66.7121L66.7129 146.667Z" fill="#6E87BD"/>
<path d="M60.044 140.001H66.7121V133.333L60.0449 133.334L60.044 140.001Z" fill="#6E87BD"/>
<path d="M60.0449 100H66.7121V93.334H60.044L60.0449 100Z" fill="white"/>
<path d="M73.377 146.668H80.0425V140H73.377V146.668Z" fill="#6E87BD"/>
<path d="M66.7121 140.001H73.3801V133.334H66.7129L66.7121 140.001Z" fill="#6E87BD"/>
<path d="M73.377 66.6672H80.0425V59.9995H73.377V66.6672Z" fill="#EDB35B"/>
<path d="M80.0449 146.668H86.7121V140H80.0449V146.668Z" fill="#6E87BD"/>
<path d="M80.0449 66.6672H86.7121V59.9995H80.0449V66.6672Z" fill="#6E87BD"/>
<path d="M86.7121 66.6672H93.3801V59.9995H86.7121V66.6672Z" fill="#6E87BD"/>
<path d="M66.7129 66.6672H73.3801V59.9995H66.7129V66.6672Z" fill="#FCD379"/>
<path d="M60.044 73.3315H66.7121V66.666H60.044V73.3315Z" fill="#EDB35B"/>
<path d="M60.044 66.6672H66.7129V59.9995H60.0449L60.044 66.6672Z" fill="#FCD379"/>
<path d="M60.0449 79.9992H66.7121V73.3315L60.0449 73.332V79.9992Z" fill="#231F20"/>
<path d="M60.044 86.6672H66.7121V79.9992H60.0449L60.044 86.6672Z" fill="#D2CFCD"/>
<path d="M60.0449 93.3332L66.7121 93.334V86.666H60.044L60.0449 93.3332Z" fill="white"/>
<path d="M86.7121 140L86.7129 146.667L93.3801 146.666V140H86.7121Z" fill="#6E87BD"/>
<path d="M140.045 106.667H146.713V100H140.045V106.667Z" fill="#6E87BD"/>
<path d="M140.045 100L146.712 99.9995V93.334H140.045V100Z" fill="#6E87BD"/>
<path d="M140.045 113.333H146.712L146.713 106.666H140.045V113.333Z" fill="#6E87BD"/>
<path d="M140.045 120.001H146.713L146.712 113.333H140.045V120.001Z" fill="#6E87BD"/>
<path d="M93.377 66.6672H100.044V59.9995H93.377V66.6672Z" fill="#6E87BD"/>
<path d="M140.045 86.6672H146.712V80H140.045V86.6672Z" fill="#231F20"/>
<path d="M140.045 93.334H146.712L146.713 86.666H140.045V93.334Z" fill="#6E87BD"/>
<path d="M140.045 133.333L146.713 133.333L146.712 126.666H140.045V133.333Z" fill="#6E87BD"/>
<path d="M140.045 126.666H146.712L146.713 120H140.045V126.666Z" fill="#6E87BD"/>
<path d="M106.713 146.666H113.38V140H106.713V146.666Z" fill="#6E87BD"/>
<path d="M100.044 146.666H106.71V140H100.045L100.044 146.666Z" fill="#6E87BD"/>
<path d="M113.377 146.666H120.044V140H113.377V146.666Z" fill="#6E87BD"/>
<path d="M140.045 140.001H146.713L146.712 133.334L140.045 133.333V140.001Z" fill="#6E87BD"/>
<path d="M93.377 146.666H100.044L100.045 140H93.377V146.666Z" fill="#6E87BD"/>
<path d="M133.377 146.666H140.045L140.044 140H133.377V146.666Z" fill="#6E87BD"/>
<path d="M140.045 146.666H146.712L146.713 140H140.044L140.045 146.666Z" fill="#6E87BD"/>
<path d="M120.044 146.666H126.71V140H120.044V146.666Z" fill="#6E87BD"/>
<path d="M126.713 146.666H133.378L133.378 140H126.713L126.713 146.666Z" fill="#6E87BD"/>
<path d="M66.7121 126.666H73.3801V120H66.7121V126.666Z" fill="#6E87BD"/>
<path d="M73.377 133.333H80.0425V126.666H73.377V133.333Z" fill="#6E87BD"/>
<path d="M100.044 66.6672H106.71V59.9995H100.044V66.6672Z" fill="#5A74AD"/>
<path d="M100.044 73.332H106.71V66.666H100.045L100.044 73.332Z" fill="#6E87BD"/>
<path d="M66.7121 120.001H73.3801V113.334H66.7121V120.001Z" fill="#6E87BD"/>
<path d="M66.7129 113.333L73.3801 113.334V106.666H66.7121L66.7129 113.333Z" fill="#6E87BD"/>
<path d="M80.0449 140.001H86.7121V133.334L80.0449 133.333V140.001Z" fill="#6E87BD"/>
<path d="M86.7129 133.333L86.7121 140.001H93.3801V133.333H86.7129Z" fill="#6E87BD"/>
<path d="M93.377 140.001H100.044V133.334L93.377 133.333V140.001Z" fill="#6E87BD"/>
<path d="M73.377 140.001H80.0425V133.333H73.377V140.001Z" fill="#6E87BD"/>
<path d="M66.7121 106.667H73.3801V100H66.7121V106.667Z" fill="#6E87BD"/>
<path d="M66.7129 93.3332H73.3801V86.666H66.7121L66.7129 93.3332Z" fill="#231F20"/>
<path d="M66.7121 100H73.3801V93.3332H66.7129L66.7121 100Z" fill="#231F20"/>
<path d="M80.0449 73.332H86.7121V66.666H80.0449V73.332Z" fill="#6E87BD"/>
<path d="M86.7121 73.332H93.3801V66.666H86.7121V73.332Z" fill="#6E87BD"/>
<path d="M93.377 73.332H100.044L100.045 66.666H93.377V73.332Z" fill="#6E87BD"/>
<path d="M73.377 73.332H80.0425V66.666H73.377V73.332Z" fill="#231F20"/>
<path d="M66.7121 86.6672H73.3801V80H66.7129L66.7121 86.6672Z" fill="#231F20"/>
<path d="M100.044 140.001H106.71V133.333H100.045L100.044 140.001Z" fill="#6E87BD"/>
<path d="M66.7121 73.3315H73.3801V66.666H66.7121V73.3315Z" fill="#EDB35B"/>
<path d="M66.7129 80H73.3801V73.3315H66.7121L66.7129 80Z" fill="#231F20"/>
<path d="M66.7129 133.334H73.3801V126.666H66.7121L66.7129 133.334Z" fill="#6E87BD"/>
<path d="M133.377 93.3332H140.044L140.045 86.666H133.377V93.3332Z" fill="#6E87BD"/>
<path d="M133.377 86.6672H140.045V80H133.377V86.6672Z" fill="#231F20"/>
<path d="M106.713 140.001H113.38V133.333H106.713V140.001Z" fill="#6E87BD"/>
<path d="M106.713 66.6672H113.38L113.381 59.9995H106.713V66.6672Z" fill="#6E87BD"/>
<path d="M113.38 66.6672H120.048V59.9995H113.381L113.38 66.6672Z" fill="#6E87BD"/>
<path d="M120.045 66.6672H126.71V59.9995H120.045V66.6672Z" fill="#231F20"/>
<path d="M133.377 99.9995L140.045 100L140.044 93.3332H133.377V99.9995Z" fill="#6E87BD"/>
<path d="M126.713 140.001H133.378L133.378 133.333H126.713L126.713 140.001Z" fill="#6E87BD"/>
<path d="M120.045 140.001H126.71V133.333H120.045V140.001Z" fill="#6E87BD"/>
<path d="M133.377 140.001H140.045L140.044 133.334H133.377V140.001Z" fill="#6E87BD"/>
<path d="M133.377 106.667H140.045V100L133.377 99.9995V106.667Z" fill="#6E87BD"/>
<path d="M113.377 140.001H120.045L120.044 133.334L113.377 133.333V140.001Z" fill="#6E87BD"/>
<path d="M133.377 120.001H140.045L140.044 113.334H133.377V120.001Z" fill="#6E87BD"/>
<path d="M133.377 133.334H140.044L140.045 126.666H133.377V133.334Z" fill="#6E87BD"/>
<path d="M133.377 113.334H140.044L140.045 106.666H133.377V113.334Z" fill="#6E87BD"/>
<path d="M133.377 126.666H140.045V120H133.377V126.666Z" fill="#6E87BD"/>
<path d="M120.045 186.667L126.71 186.668V180H120.045V186.667Z" fill="#6E87BD"/>
<path d="M20.0449 113.333H26.7121V106.666H20.0449V113.333Z" fill="#231F20"/>
<path d="M20.0449 146.667H26.7121V140H20.0449V146.667Z" fill="#5A74AD"/>
<path d="M20.0449 99.9995H26.7121V93.334H20.0449V99.9995Z" fill="#231F20"/>
<path d="M20.0449 93.334H26.7121V86.666H20.0449V93.334Z" fill="#231F20"/>
<path d="M20.0449 86.6672H26.7121V80H20.0449V86.6672Z" fill="#231F20"/>
<path d="M20.0449 133.333H26.7121V126.666H20.0449V133.333Z" fill="#37507B"/>
<path d="M20.0449 80H26.7121V73.332H20.0449V80Z" fill="#231F20"/>
<path d="M20.0449 140.001H26.7121V133.333H20.0449V140.001Z" fill="#5A74AD"/>
<path d="M20.0449 120.001H26.7121V113.333H20.0449V120.001Z" fill="#231F20"/>
<path d="M20.0449 126.666H26.7121V120H20.0449V126.666Z" fill="#37507B"/>
<path d="M20.0449 106.667H26.7121V99.9995H20.0449V106.667Z" fill="#4D679B"/>
<path d="M20.0449 26.6672H26.7121V20H20.0449V26.6672Z" fill="#231F20"/>
<path d="M20.0449 33.3335H26.7121V26.6672H20.0449V33.3335Z" fill="#231F20"/>
<path d="M26.7121 26.6672H33.3784V20H26.7121V26.6672Z" fill="#6E87BD"/>
<path d="M13.377 186.668L20.0441 186.667L20.0449 180L13.3761 179.999L13.377 186.668Z" fill="#6E87BD"/>
<path d="M33.377 26.6672H40.0441V20H33.377V26.6672Z" fill="#6E87BD"/>
<path d="M20.0449 73.332H26.7121V66.666H20.0449V73.332Z" fill="#EDB35B"/>
<path d="M20.0449 66.6672H26.7121V60H20.0449V66.6672Z" fill="#FCD379"/>
<path d="M20.0449 60H26.7121V53.334H20.0449V60Z" fill="#FCD379"/>
<path d="M20.0449 46.6672H26.7121V40H20.0449V46.6672Z" fill="#6E87BD"/>
<path d="M20.0449 53.3351H26.7121V46.6672H20.0449V53.3351Z" fill="#FCD379"/>
<path d="M20.0449 166.667H26.7121V160H20.0449V166.667Z" fill="#231F20"/>
<path d="M20.0449 153.333H26.7121V146.667H20.0449V153.333Z" fill="#5A74AD"/>
<path d="M73.377 186.668H80.0425V180H73.377V186.668Z" fill="#5A74AD"/>
<path d="M60.0449 186.668L66.7121 186.667V180H60.0449V186.668Z" fill="#5A74AD"/>
<path d="M53.3768 186.668L60.044 186.667L60.0449 180L53.3768 180L53.3768 186.668Z" fill="#5A74AD"/>
<path d="M66.7129 186.668H73.3801V180H66.7121L66.7129 186.668Z" fill="#5A74AD"/>
<path d="M86.7129 186.667L93.3801 186.668V180H86.7129V186.667Z" fill="#4D679B"/>
<path d="M106.713 186.668H113.38V180H106.713V186.668Z" fill="#4D679B"/>
<path d="M93.377 186.668H100.044V180H93.377V186.668Z" fill="#37507B"/>
<path d="M113.377 186.668H120.044L120.045 180H113.377V186.668Z" fill="#5A74AD"/>
<path d="M100.045 186.667L106.71 186.668V180H100.044L100.045 186.667Z" fill="#231F20"/>
<path d="M80.0449 186.668H86.7121L86.7129 180H80.0449V186.668Z" fill="#4D679B"/>
<path d="M20.0449 180H26.7121V173.334H20.0449V180Z" fill="#6E87BD"/>
<path d="M40.0441 26.6672H46.7104V20H40.0441V26.6672Z" fill="#6E87BD"/>
<path d="M20.0449 173.334H26.7121V166.667H20.0449V173.334Z" fill="#9AB6E3"/>
<path d="M20.0449 160H26.7121V153.332H20.0449V160Z" fill="#37507B"/>
<path d="M40.0449 186.667H46.7121V180H40.0449V186.667Z" fill="#231F20"/>
<path d="M33.377 186.668H40.0441L40.0449 180H33.377V186.668Z" fill="#37507B"/>
<path d="M46.7129 186.668H53.3801V180H46.7121L46.7129 186.668Z" fill="#37507B"/>
<path d="M26.7129 186.668H33.3784V180H26.7121L26.7129 186.668Z" fill="#4D679B"/>
<path d="M26.7121 180H33.3784V173.334H26.7121V180Z" fill="#6E87BD"/>
<path d="M20.0449 40H26.7121V33.332H20.0449V40Z" fill="#9AB6E3"/>
<path d="M173.381 73.3315H180.046V66.666H173.381V73.3315Z" fill="#231F20"/>
<path d="M173.381 79.9992H180.046V73.3315H173.381V79.9992Z" fill="#6E87BD"/>
<path d="M173.381 86.6672H180.046V79.9992H173.381V86.6672Z" fill="#4D679B"/>
<path d="M173.381 93.3332H180.046V86.666H173.381V93.3332Z" fill="#231F20"/>
<path d="M173.381 66.6672H180.046V60H173.381V66.6672Z" fill="#231F20"/>
<path d="M173.381 60H180.046V53.334H173.381V60Z" fill="#231F20"/>
<path d="M173.381 159.999H180.046V153.332H173.381V159.999Z" fill="#6E87BD"/>
<path d="M173.381 153.333H180.046V146.666H173.381V153.333Z" fill="#6E87BD"/>
<path d="M173.381 146.666H180.046V140H173.381V146.666Z" fill="#6E87BD"/>
<path d="M173.381 166.667H180.046V159.999H173.381V166.667Z" fill="#6E87BD"/>
<path d="M133.377 166.667H140.044V160L133.377 159.999V166.667Z" fill="#9AB6E3"/>
<path d="M173.381 120.001H180.046V113.334H173.381V120.001Z" fill="#6E87BD"/>
<path d="M173.381 126.666H180.046V120H173.381V126.666Z" fill="#6E87BD"/>
<path d="M173.381 140.001H180.046V133.334H173.381V140.001Z" fill="#6E87BD"/>
<path d="M173.381 113.334H180.046V106.666H173.381V113.334Z" fill="#231F20"/>
<path d="M80.0449 26.6672H86.7121V20H80.0449V26.6672Z" fill="#6E87BD"/>
<path d="M86.7121 26.6672H93.3801V20H86.7121V26.6672Z" fill="#6E87BD"/>
<path d="M100.045 26.6672H106.71V20H100.045V26.6672Z" fill="#9AB6E3"/>
<path d="M106.713 26.6672H113.38V20H106.713V26.6672Z" fill="#231F20"/>
<path d="M93.377 26.6672H100.045V20H93.377V26.6672Z" fill="#6E87BD"/>
<path d="M60.0449 26.6672H66.7121V20H60.0449V26.6672Z" fill="#6E87BD"/>
<path d="M73.377 26.6672H80.0425V20H73.377V26.6672Z" fill="#6E87BD"/>
<path d="M66.7121 26.6672H73.3801V20H66.7121V26.6672Z" fill="#6E87BD"/>
<path d="M53.3768 26.6669L60.0449 26.6672V20L53.3768 19.9998V26.6669Z" fill="#6E87BD"/>
<path d="M46.7129 26.6672H53.3801V20H46.7129V26.6672Z" fill="#6E87BD"/>
<path d="M13.377 140.001H20.0449L20.0441 133.334H13.377V140.001Z" fill="#231F20"/>
<path d="M33.377 20H40.0441V13.332H33.377V20Z" fill="#6E87BD"/>
<path d="M26.7129 19.9992L33.3784 20V13.332H26.7129V19.9992Z" fill="#9AB6E3"/>
<path d="M46.7129 20H53.3801V13.332H46.7129V20Z" fill="#6E87BD"/>
<path d="M20.0449 20H26.7121L26.7129 13.332H20.0449V20Z" fill="#231F20"/>
<path d="M40.0449 19.9992H46.7121L46.7129 13.332H40.0441L40.0449 19.9992Z" fill="#6E87BD"/>
<path d="M13.377 39.9992H20.0441L20.0449 33.332H13.377V39.9992Z" fill="#231F20"/>
<path d="M126.713 186.668H133.378L133.378 180H126.713L126.713 186.668Z" fill="#6E87BD"/>
<path d="M13.3761 46.6672H20.0449L20.0441 39.9992H13.377L13.3761 46.6672Z" fill="#9AB6E3"/>
<path d="M93.377 20L100.044 19.9992V13.332H93.377V20Z" fill="#9AB6E3"/>
<path d="M100.045 20H106.71V13.332H100.044L100.045 20Z" fill="#231F20"/>
<path d="M86.7129 19.9992H93.3784V13.332H86.7129V19.9992Z" fill="#6E87BD"/>
<path d="M60.0449 20H66.7121V13.332H60.0449V20Z" fill="#6E87BD"/>
<path d="M66.7129 19.9992H73.3784V13.332H66.7121L66.7129 19.9992Z" fill="#6E87BD"/>
<path d="M73.377 20L80.0441 19.9992V13.332H73.377V20Z" fill="#6E87BD"/>
<path d="M80.0449 20H86.7121L86.7129 13.332H80.0441L80.0449 20Z" fill="#6E87BD"/>
<path d="M13.3761 179.999L20.0449 180V173.334H13.3761V179.999Z" fill="#9AB6E3"/>
<path d="M13.377 146.667H20.0449V140H13.377V146.667Z" fill="#231F20"/>
<path d="M173.381 173.333H180.046V166.667H173.381V173.333Z" fill="#6E87BD"/>
<path d="M13.377 153.333H20.0449L20.0441 146.668L13.377 146.667V153.333Z" fill="#231F20"/>
<path d="M13.377 133.334H20.0441L20.0449 126.666H13.377V133.334Z" fill="#231F20"/>
<path d="M13.377 126.666H20.0449V120H13.377V126.666Z" fill="#231F20"/>
<path d="M13.3761 173.334H20.0449L20.0441 166.668H13.377L13.3761 173.334Z" fill="#231F20"/>
<path d="M13.3761 53.3351H20.0449L20.0441 46.668H13.377L13.3761 53.3351Z" fill="#6E87BD"/>
<path d="M13.377 159.999H20.0441L20.0449 153.332H13.377V159.999Z" fill="#231F20"/>
<path d="M13.3761 79.9992H20.0441L20.0449 73.332L13.3761 73.3315V79.9992Z" fill="#4D679B"/>
<path d="M13.3761 73.3315L20.0449 73.332V66.666H13.3761V73.3315Z" fill="#231F20"/>
<path d="M13.3761 66.6672H20.0449V60L13.3761 59.9995V66.6672Z" fill="#EDB35B"/>
<path d="M13.3761 59.9995L20.0449 60V53.334H13.3761V59.9995Z" fill="#FCD379"/>
<path d="M13.3761 86.6672H20.0449L20.0441 79.9992L13.377 80L13.3761 86.6672Z" fill="#6E87BD"/>
<path d="M13.3761 99.9995H20.0449V93.334H13.377L13.3761 99.9995Z" fill="#4D679B"/>
<path d="M13.377 106.667H20.0449V99.9995H13.3761L13.377 106.667Z" fill="#231F20"/>
<path d="M13.377 93.334L20.0441 93.3332L20.0449 86.666H13.3761L13.377 93.334Z" fill="#6E87BD"/>
<path d="M53.3809 19.9992H60.048V13.332H53.3801L53.3809 19.9992Z" fill="#6E87BD"/>
<path d="M180.045 146.666L186.713 146.666V140H180.045V146.666Z" fill="#6E87BD"/>
<path d="M180.045 140.001H186.713L186.712 133.334H180.045V140.001Z" fill="#5A74AD"/>
<path d="M180.045 153.333H186.713V146.666L180.045 146.666V153.333Z" fill="#6E87BD"/>
<path d="M180.045 166.667H186.713L186.712 160H180.045V166.667Z" fill="#6E87BD"/>
<path d="M180.045 160H186.712L186.713 153.332H180.045V160Z" fill="#6E87BD"/>
<path d="M180.045 173.333L186.713 173.334L186.712 166.668L180.045 166.667V173.333Z" fill="#6E87BD"/>
<path d="M180.045 120.001H186.713V113.334H180.045V120.001Z" fill="#231F20"/>
<path d="M180.045 133.334H186.712L186.713 126.666H180.045V133.334Z" fill="#6E87BD"/>
<path d="M180.045 126.666H186.713V120H180.045V126.666Z" fill="#6E87BD"/>
<path d="M153.377 186.667H160.044V180H153.377V186.667Z" fill="#9AB6E3"/>
<path d="M140.045 186.667H146.712V180H140.045V186.667Z" fill="#6E87BD"/>
<path d="M146.712 186.667L153.38 186.668L153.38 180L146.712 180V186.667Z" fill="#6E87BD"/>
<path d="M180.045 179.999L186.713 180V173.334L180.045 173.333V179.999Z" fill="#5A74AD"/>
<path d="M133.377 186.668H140.044L140.045 180H133.377V186.668Z" fill="#6E87BD"/>
<path d="M180.045 186.668H186.712L186.713 180L180.045 179.999V186.668Z" fill="#4D679B"/>
<path d="M173.381 186.668H180.046V180H173.381V186.668Z" fill="#4D679B"/>
<path d="M166.713 186.668L173.38 186.667L173.381 180H166.713V186.668Z" fill="#4D679B"/>
<path d="M160.044 186.667H166.712L166.713 180H160.044V186.667Z" fill="#231F20"/>
<path d="M180.045 99.9995H186.713V93.334H180.045V99.9995Z" fill="#231F20"/>
<path d="M180.045 86.6672H186.713L186.712 80H180.045V86.6672Z" fill="#6E87BD"/>
<path d="M180.045 73.3315L186.713 73.332V66.666H180.045V73.3315Z" fill="#6E87BD"/>
<path d="M180.045 93.334L186.712 93.3332L186.713 86.666H180.045V93.334Z" fill="#4D679B"/>
<path d="M180.045 80H186.712L186.713 73.332L180.045 73.3315V80Z" fill="#231F20"/>
<path d="M180.045 59.9995L186.713 60L186.712 53.334H180.045V59.9995Z" fill="#231F20"/>
<path d="M180.045 66.6672H186.713V60L180.045 59.9995V66.6672Z" fill="#9AB6E3"/>
<path d="M173.381 133.334H180.046V126.666H173.381V133.334Z" fill="#5A74AD"/>
<path d="M33.377 146.667H40.0449V140H33.377V146.667Z" fill="#6E87BD"/>
<path d="M33.377 113.333H40.0449V106.666H33.377V113.333Z" fill="#5A74AD"/>
<path d="M33.377 133.333H40.0441L40.0449 126.666H33.377V133.333Z" fill="#5A74AD"/>
<path d="M33.377 126.666H40.0449V120H33.377V126.666Z" fill="#37507B"/>
<path d="M33.377 120.001H40.0449L40.0441 113.334L33.377 113.333V120.001Z" fill="#5A74AD"/>
<path d="M33.377 140.001H40.0449L40.0441 133.333H33.377V140.001Z" fill="#6E87BD"/>
<path d="M40.0449 173.333H46.7121V166.668H40.0449V173.333Z" fill="#5A74AD"/>
<path d="M40.0449 166.668H46.7121V159.999H40.0449V166.668Z" fill="#6E87BD"/>
<path d="M33.377 153.333H40.0449L40.0441 146.668L33.377 146.667V153.333Z" fill="#6E87BD"/>
<path d="M33.377 159.999H40.0449V153.332H33.377V159.999Z" fill="#6E87BD"/>
<path d="M33.377 166.667H40.0441V160L33.377 159.999V166.667Z" fill="#5A74AD"/>
<path d="M33.377 66.6672H40.0449V59.9995L33.377 60V66.6672Z" fill="#FCD379"/>
<path d="M33.377 60L40.0449 59.9995V53.334H33.377V60Z" fill="#231F20"/>
<path d="M33.377 73.3315H40.0449V66.666H33.377V73.3315Z" fill="#EDB35B"/>
<path d="M33.377 46.6672H40.0449V40H33.377V46.6672Z" fill="#231F20"/>
<path d="M33.377 53.3351H40.0449L40.0441 46.668L33.377 46.6672V53.3351Z" fill="#654634"/>
<path d="M33.377 99.9995L40.0449 100V93.334H33.377V99.9995Z" fill="#231F20"/>
<path d="M33.377 93.334L40.0441 93.3332L40.0449 86.666H33.377V93.334Z" fill="#231F20"/>
<path d="M33.377 79.9992H40.0449V73.3315H33.377V79.9992Z" fill="#231F20"/>
<path d="M33.377 106.667H40.0449V100L33.377 99.9995V106.667Z" fill="#5A74AD"/>
<path d="M33.377 86.6672H40.0449L40.0441 80L33.377 79.9992V86.6672Z" fill="#231F20"/>
<path d="M46.7121 173.333H53.3801V166.667H46.7129L46.7121 173.333Z" fill="#6E87BD"/>
<path d="M140.045 173.333H146.712V166.668H140.045V173.333Z" fill="#9AB6E3"/>
<path d="M133.377 173.333H140.045L140.044 166.667H133.377V173.333Z" fill="#6E87BD"/>
<path d="M126.713 173.333H133.378V166.667H126.713V173.333Z" fill="#6E87BD"/>
<path d="M146.712 173.333H153.38V166.668H146.712V173.333Z" fill="#231F20"/>
<path d="M120.045 173.333H126.71V166.667L120.045 166.668V173.333Z" fill="#6E87BD"/>
<path d="M33.3809 39.9992H40.048V33.332H33.3809V39.9992Z" fill="#6E87BD"/>
<path d="M166.713 166.667H173.381L173.38 160H166.713V166.667Z" fill="#6E87BD"/>
<path d="M113.377 173.333H120.045L120.044 166.667H113.377V173.333Z" fill="#6E87BD"/>
<path d="M166.713 173.333H173.381L173.38 166.668L166.713 166.667V173.333Z" fill="#6E87BD"/>
<path d="M160.045 173.333H166.713L166.712 166.668H160.045V173.333Z" fill="#6E87BD"/>
<path d="M153.377 173.333H160.045V166.668H153.377V173.333Z" fill="#6E87BD"/>
<path d="M66.7129 173.333H73.3801V166.667L66.7129 166.668V173.333Z" fill="#6E87BD"/>
<path d="M60.0449 173.333H66.7129L66.7121 166.667H60.0449V173.333Z" fill="#6E87BD"/>
<path d="M53.3768 173.333H60.0449L60.044 166.668L53.3768 166.667V173.333Z" fill="#6E87BD"/>
<path d="M73.377 173.333H80.0425V166.667H73.377V173.333Z" fill="#6E87BD"/>
<path d="M86.7129 173.333H93.3801V166.667H86.7129V173.333Z" fill="#4D679B"/>
<path d="M93.377 173.333H100.044V166.667H93.377V173.333Z" fill="#231F20"/>
<path d="M100.044 173.333H106.71V166.667L100.045 166.668L100.044 173.333Z" fill="#4D679B"/>
<path d="M80.0449 173.333H86.7129L86.7121 166.668L80.0449 166.667V173.333Z" fill="#5A74AD"/>
<path d="M106.713 173.333H113.38V166.667H106.713V173.333Z" fill="#6E87BD"/>
<path d="M166.713 160H173.38L173.381 153.332H166.713V160Z" fill="#6E87BD"/>
<path d="M160.044 106.667H166.712V100H160.044V106.667Z" fill="#231F20"/>
<path d="M40.0449 40H46.7121V33.332H40.0449V40Z" fill="#6E87BD"/>
<path d="M160.045 113.333H166.712V106.666H160.044L160.045 113.333Z" fill="#6E87BD"/>
<path d="M160.044 126.666H166.712V120H160.044V126.666Z" fill="#6E87BD"/>
<path d="M160.044 120.001H166.712V113.333H160.045L160.044 120.001Z" fill="#6E87BD"/>
<path d="M160.044 66.6672H166.712V60H160.044V66.6672Z" fill="#9AB6E3"/>
<path d="M160.045 73.3315H166.712V66.666H160.045V73.3315Z" fill="#231F20"/>
<path d="M160.044 60H166.712V53.334H160.045L160.044 60Z" fill="#231F20"/>
<path d="M160.045 79.9992H166.712V73.3315H160.045V79.9992Z" fill="#231F20"/>
<path d="M153.377 166.668L160.044 166.667V159.999H153.377V166.668Z" fill="#6E87BD"/>
<path d="M146.713 166.667L153.38 166.668V160H146.713V166.667Z" fill="#6E87BD"/>
<path d="M160.045 166.668H166.712L166.713 160H160.045V166.668Z" fill="#6E87BD"/>
<path d="M140.045 166.668H146.712V159.999H140.045V166.668Z" fill="#231F20"/>
<path d="M173.381 180H180.046V173.333H173.381V180Z" fill="#5A74AD"/>
<path d="M160.044 140.001H166.712V133.334H160.044V140.001Z" fill="#6E87BD"/>
<path d="M160.044 146.666L166.712 146.666V140H160.044V146.666Z" fill="#6E87BD"/>
<path d="M160.045 160L166.712 159.999L166.713 153.332H160.044L160.045 160Z" fill="#6E87BD"/>
<path d="M160.045 133.333L166.712 133.334V126.666H160.044L160.045 133.333Z" fill="#6E87BD"/>
<path d="M80.0449 40H86.7121V33.332H80.0449V40Z" fill="#6E87BD"/>
<path d="M73.377 40H80.0425V33.332H73.377V40Z" fill="#6E87BD"/>
<path d="M86.7129 39.9992L93.3801 40V33.332H86.7121L86.7129 39.9992Z" fill="#6E87BD"/>
<path d="M106.713 40H113.378V33.332H106.713V40Z" fill="#231F20"/>
<path d="M100.045 40H106.71V33.332H100.045V40Z" fill="#6E87BD"/>
<path d="M93.377 40L100.044 39.9992L100.045 33.332H93.377V40Z" fill="#5A74AD"/>
<path d="M53.3768 40L60.044 39.9992V33.332H53.3768V40Z" fill="#6E87BD"/>
<path d="M66.7129 40H73.3801V33.332H66.7129V40Z" fill="#231F20"/>
<path d="M46.7129 39.9992L53.3801 40V33.332H46.7121L46.7129 39.9992Z" fill="#231F20"/>
<path d="M60.0449 40L66.7121 39.9992L66.7129 33.332H60.044L60.0449 40Z" fill="#6E87BD"/>
<path d="M160.044 153.333H166.712V146.666L160.044 146.666V153.333Z" fill="#6E87BD"/>
<path d="M26.7121 146.667H33.3784V140H26.7121V146.667Z" fill="#6E87BD"/>
<path d="M26.7121 120.001H33.3784V113.334H26.7129L26.7121 120.001Z" fill="#37507B"/>
<path d="M26.7121 126.666L33.3784 126.666V120H26.7121V126.666Z" fill="#37507B"/>
<path d="M26.7121 133.333H33.3784V126.666L26.7121 126.666V133.333Z" fill="#5A74AD"/>
<path d="M26.7121 153.333H33.3784V146.667L26.7129 146.668L26.7121 153.333Z" fill="#6E87BD"/>
<path d="M26.7121 53.3351H33.3801V46.668H26.7129L26.7121 53.3351Z" fill="#231F20"/>
<path d="M26.7121 173.334H33.3784V166.668H26.7129L26.7121 173.334Z" fill="#231F20"/>
<path d="M33.377 173.333H40.0449L40.0441 166.667H33.377V173.333Z" fill="#37507B"/>
<path d="M26.7129 166.668H33.3784V160H26.7121L26.7129 166.668Z" fill="#37507B"/>
<path d="M26.7129 159.999L33.3784 160V153.332H26.7121L26.7129 159.999Z" fill="#5A74AD"/>
<path d="M26.7121 140.001H33.3784V133.333L26.7129 133.334L26.7121 140.001Z" fill="#5A74AD"/>
<path d="M26.7129 113.334H33.3784V106.666H26.7121L26.7129 113.334Z" fill="#5A74AD"/>
<path d="M26.7129 79.9992H33.3784V73.332H26.7121L26.7129 79.9992Z" fill="#231F20"/>
<path d="M26.7121 66.6672H33.3784V60H26.7121V66.6672Z" fill="#FCD379"/>
<path d="M26.7121 60H33.3784V53.334H26.7121V60Z" fill="#EDB35B"/>
<path d="M26.7121 73.332H33.3784V66.666H26.7121V73.332Z" fill="#EDB35B"/>
<path d="M26.7121 99.9995H33.3784V93.334H26.7121V99.9995Z" fill="white"/>
<path d="M26.7121 86.6672H33.3784V79.9992H26.7129L26.7121 86.6672Z" fill="#D2CFCD"/>
<path d="M26.7121 106.667H33.3784V99.9995H26.7121V106.667Z" fill="#231F20"/>
<path d="M26.7129 93.3332L33.3784 93.334V86.666H26.7121L26.7129 93.3332Z" fill="white"/>
<path d="M33.377 180H40.0449V173.333H33.377V180Z" fill="#231F20"/>
<path d="M140.045 180H146.712V173.333H140.045V180Z" fill="#6E87BD"/>
<path d="M126.713 180H133.378L133.378 173.333H126.713L126.713 180Z" fill="#6E87BD"/>
<path d="M133.377 180H140.045V173.333H133.377V180Z" fill="#6E87BD"/>
<path d="M120.045 180H126.71V173.333H120.045V180Z" fill="#6E87BD"/>
<path d="M113.377 180H120.045V173.333H113.377V180Z" fill="#6E87BD"/>
<path d="M160.044 180H166.713V173.333H160.045L160.044 180Z" fill="#5A74AD"/>
<path d="M166.713 180H173.381V173.333H166.713V180Z" fill="#5A74AD"/>
<path d="M106.713 180H113.38V173.333H106.713V180Z" fill="#5A74AD"/>
<path d="M153.377 180H160.044L160.045 173.333H153.377V180Z" fill="#231F20"/>
<path d="M146.713 179.999L153.38 180L153.38 173.333L146.713 173.334V179.999Z" fill="#9AB6E3"/>
<path d="M73.377 180H80.0425V173.333H73.377V180Z" fill="#5A74AD"/>
<path d="M53.3768 180L60.044 179.999V173.334L53.3768 173.333L53.3768 180Z" fill="#5A74AD"/>
<path d="M66.7121 180H73.3801V173.333H66.7129L66.7121 180Z" fill="#5A74AD"/>
<path d="M60.0449 180H66.7121L66.7129 173.333H60.0449V180Z" fill="#5A74AD"/>
<path d="M46.7121 180H53.3801V173.333H46.7121V180Z" fill="#5A74AD"/>
<path d="M93.377 180H100.044V173.333H93.377V180Z" fill="#231F20"/>
<path d="M86.7129 180H93.3801V173.333H86.7129V180Z" fill="#4D679B"/>
<path d="M40.0449 180H46.7121V173.333H40.0449V180Z" fill="#37507B"/>
<path d="M100.044 180H106.71V173.333H100.044V180Z" fill="#4D679B"/>
<path d="M80.0449 180H86.7129V173.333H80.0449V180Z" fill="#5A74AD"/>
<path d="M33.3809 33.3335H40.048V26.668H33.3809V33.3335Z" fill="#6E87BD"/>
<path d="M166.712 60H173.381V53.334H166.712V60Z" fill="#231F20"/>
<path d="M166.712 66.6672H173.381V60H166.712V66.6672Z" fill="#9AB6E3"/>
<path d="M166.712 79.9992H173.381V73.3315H166.712V79.9992Z" fill="#4D679B"/>
<path d="M166.713 86.6672H173.381L173.38 80H166.713V86.6672Z" fill="#231F20"/>
<path d="M166.712 73.3315H173.381V66.666H166.712V73.3315Z" fill="#6E87BD"/>
<path d="M166.712 126.666H173.381V120H166.712V126.666Z" fill="#6E87BD"/>
<path d="M166.712 140.001H173.381V133.334H166.712V140.001Z" fill="#6E87BD"/>
<path d="M166.713 133.333H173.38L173.381 126.666H166.712L166.713 133.333Z" fill="#6E87BD"/>
<path d="M166.712 146.666L173.381 146.666V140H166.712V146.666Z" fill="#6E87BD"/>
<path d="M166.712 120.001H173.381V113.334H166.713L166.712 120.001Z" fill="#6E87BD"/>
<path d="M166.713 113.334L173.38 113.333L173.381 106.666H166.712L166.713 113.334Z" fill="#231F20"/>
<path d="M86.7129 33.3335H93.3801V26.6672L86.7129 26.668V33.3335Z" fill="#5A74AD"/>
<path d="M53.3768 33.3335H60.044V26.668H53.3768V33.3335Z" fill="#6E87BD"/>
<path d="M60.044 33.3335H66.7121V26.6672H60.0449L60.044 33.3335Z" fill="#6E87BD"/>
<path d="M46.7129 33.3335H53.3801V26.6672H46.7129V33.3335Z" fill="#231F20"/>
<path d="M66.7121 33.3335H73.3801V26.6672L66.7129 26.668L66.7121 33.3335Z" fill="#231F20"/>
<path d="M73.377 33.3335H80.0425V26.6672H73.377V33.3335Z" fill="#6E87BD"/>
<path d="M80.0449 33.3335H86.7129L86.7121 26.6672H80.0449V33.3335Z" fill="#6E87BD"/>
<path d="M26.7129 39.9992H33.3784V33.332H26.7121L26.7129 39.9992Z" fill="#6E87BD"/>
<path d="M40.0449 33.3335H46.7129L46.7121 26.668H40.0449V33.3335Z" fill="#6E87BD"/>
<path d="M26.7121 33.3335H33.3784V26.6672L26.7129 26.668L26.7121 33.3335Z" fill="#6E87BD"/>
<path d="M166.712 153.333H173.381V146.666L166.712 146.666V153.333Z" fill="#6E87BD"/>
<path d="M93.377 33.3335H100.044V26.668L93.377 26.6672V33.3335Z" fill="#6E87BD"/>
<path d="M100.044 33.3335H106.712V26.668L100.045 26.6672L100.044 33.3335Z" fill="#6E87BD"/>
<path d="M26.7129 46.668H33.3801V40L26.7129 39.9992V46.668Z" fill="#6E87BD"/>
<path d="M106.712 33.3335H113.38V26.6672H106.713L106.712 33.3335Z" fill="#231F20"/>
<path d="M253.381 66.6672H260.046V60H253.381V66.6672Z" fill="#9AB6E3"/>
<path d="M253.381 73.3315H260.046V66.666H253.381V73.3315Z" fill="#231F20"/>
<path d="M253.381 79.9992H260.046V73.3315H253.381V79.9992Z" fill="#231F20"/>
<path d="M253.381 60H260.046V53.334H253.381V60Z" fill="#231F20"/>
<path d="M220.045 93.3332L226.712 93.334V86.666H220.044L220.045 93.3332Z" fill="#6E87BD"/>
<path d="M260.045 66.6672H266.712V60H260.045V66.6672Z" fill="#231F20"/>
<path d="M233.381 93.3332H240.048V86.666H233.381V93.3332Z" fill="#4D679B"/>
<path d="M233.381 99.9995H240.048V93.3332H233.381V99.9995Z" fill="#231F20"/>
<path d="M233.381 86.6672H240.048V80H233.381V86.6672Z" fill="#6E87BD"/>
<path d="M233.381 80H240.048V73.332H233.381V80Z" fill="#231F20"/>
<path d="M233.381 59.9995H240.048V53.334H233.381V59.9995Z" fill="#231F20"/>
<path d="M233.381 66.6672H240.048V59.9995H233.381V66.6672Z" fill="#9AB6E3"/>
<path d="M233.381 73.332H240.048V66.666H233.381V73.332Z" fill="#6E87BD"/>
<path d="M226.712 126.666L233.378 126.666V120H226.712V126.666Z" fill="#231F20"/>
<path d="M220.045 79.9992H226.712V73.332L220.044 73.3315L220.045 79.9992Z" fill="#6E87BD"/>
<path d="M220.044 73.3315L226.712 73.332V66.666H220.044V73.3315Z" fill="#9AB6E3"/>
<path d="M220.045 66.6672H226.712V60H220.045V66.6672Z" fill="#231F20"/>
<path d="M220.044 86.6672H226.712V79.9992H220.045L220.044 86.6672Z" fill="#6E87BD"/>
<path d="M226.712 153.333H233.378V146.666L226.712 146.666V153.333Z" fill="#231F20"/>
<path d="M226.712 146.666L233.378 146.666V140H226.712V146.666Z" fill="#231F20"/>
<path d="M226.713 133.333H233.378V126.666L226.712 126.666L226.713 133.333Z" fill="#231F20"/>
<path d="M226.712 140.001H233.378V133.333H226.713L226.712 140.001Z" fill="#231F20"/>
<path d="M226.712 120.001H233.378V113.334H226.713L226.712 120.001Z" fill="#231F20"/>
<path d="M226.712 100L233.378 99.9995V93.334H226.712V100Z" fill="#231F20"/>
<path d="M226.713 93.3332L233.378 93.334V86.666H226.712L226.713 93.3332Z" fill="#6E87BD"/>
<path d="M226.712 86.6672H233.378V80H226.713L226.712 86.6672Z" fill="#6E87BD"/>
<path d="M226.713 80H233.378V73.332H226.712L226.713 80Z" fill="#6E87BD"/>
<path d="M226.712 66.6672H233.378V60H226.712V66.6672Z" fill="#231F20"/>
<path d="M226.712 73.332H233.378V66.666H226.712V73.332Z" fill="#6E87BD"/>
<path d="M246.713 86.6672H253.38V80H246.713V86.6672Z" fill="#231F20"/>
<path d="M246.713 80H253.38L253.381 73.3315L246.713 73.332V80Z" fill="#4D679B"/>
<path d="M246.713 73.332L253.381 73.3315V66.666H246.713V73.332Z" fill="#6E87BD"/>
<path d="M246.713 66.6672H253.381V60H246.713V66.6672Z" fill="#9AB6E3"/>
<path d="M246.713 60H253.381V53.334H246.713V60Z" fill="#231F20"/>
<path d="M240.045 66.6672H246.71V60H240.045V66.6672Z" fill="#231F20"/>
<path d="M240.045 73.3315H246.71V66.666H240.045V73.3315Z" fill="#231F20"/>
<path d="M240.045 79.9992H246.71V73.3315H240.045V79.9992Z" fill="#6E87BD"/>
<path d="M240.045 86.6672H246.71V79.9992H240.045V86.6672Z" fill="#4D679B"/>
<path d="M240.045 93.3332H246.71V86.666H240.045V93.3332Z" fill="#231F20"/>
<path d="M240.045 60H246.71V53.334H240.045V60Z" fill="#231F20"/>
</svg>
