<svg width="138" height="200" viewBox="0 0 138 200" fill="none" xmlns="http://www.w3.org/2000/svg">
<path d="M105.57 194.735H110.834V189.473H105.57V194.735Z" fill="#231F20"/>
<path d="M100.309 194.735H105.572V189.473H100.309V194.735Z" fill="#FAB60A"/>
<path d="M31.8867 194.736H37.1502V189.473H31.8867V194.736Z" fill="#231F20"/>
<path d="M84.5195 194.735H89.7843V189.473H84.5195V194.735Z" fill="#FAB60A"/>
<path d="M95.043 194.735H100.306V189.473H95.043V194.735Z" fill="#231F20"/>
<path d="M89.7812 194.735H95.043V189.473H89.7812V194.735Z" fill="#FAB60A"/>
<path d="M47.6758 194.736H52.9393V189.473H47.6758V194.736Z" fill="#FAB60A"/>
<path d="M79.2578 194.735H84.5213V189.473H79.2578V194.735Z" fill="#FAB60A"/>
<path d="M42.4141 194.736H47.6758V189.473H42.4141V194.736Z" fill="#231F20"/>
<path d="M52.9414 189.473V194.736L58.2049 194.735V189.473H52.9414Z" fill="#FAB60A"/>
<path d="M37.1523 194.736H42.4158V189.473H37.1523V194.736Z" fill="#FAB60A"/>
<path d="M58.2031 194.735H63.4653V189.473H58.2031V194.735Z" fill="#FAB60A"/>
<path d="M73.9924 194.735H79.2559V189.473H73.9924V194.735Z" fill="#231F20"/>
<path d="M63.4653 194.735H68.727V189.473H63.4653V194.735Z" fill="#231F20"/>
<path d="M16.0977 36.8416H21.3612V31.5781H16.0977V36.8416Z" fill="#EBA469"/>
<path d="M47.6758 36.8416H52.9393V31.5781H47.6758V36.8416Z" fill="#D46C5B"/>
<path d="M63.4648 36.8416H68.727V31.5781H63.4648V36.8416Z" fill="#231F20"/>
<path d="M42.4141 36.8416H47.6758V31.5781H42.4141V36.8416Z" fill="#D46C5B"/>
<path d="M58.2031 36.8416H63.4648V31.5781H58.2031V36.8416Z" fill="#231F20"/>
<path d="M52.9414 36.8416H58.2049V31.5781H52.9414V36.8416Z" fill="#231F20"/>
<path d="M31.8867 36.8416H37.1502V31.5781H31.8867V36.8416Z" fill="#C9804E"/>
<path d="M21.3594 36.8416H26.6216V31.5781H21.3594V36.8416Z" fill="#EBA469"/>
<path d="M26.625 36.8416H31.8885V31.5781H26.625V36.8416Z" fill="#EBA469"/>
<path d="M79.2578 36.8416H84.5213V31.5781H79.2578V36.8416Z" fill="#D46C5B"/>
<path d="M100.309 36.8416H105.572V31.5781H100.309V36.8416Z" fill="#EBA469"/>
<path d="M105.57 36.8416H110.834V31.5781H105.57V36.8416Z" fill="#EBA469"/>
<path d="M95.043 36.8416H100.306V31.5781H95.043V36.8416Z" fill="#C9804E"/>
<path d="M68.7305 36.8416H73.994V31.5781H68.7305V36.8416Z" fill="#231F20"/>
<path d="M110.836 36.8416H116.099V31.5781H110.836V36.8416Z" fill="#EBA469"/>
<path d="M73.9924 36.8416H79.2559V31.5781H73.9924V36.8416Z" fill="#D46C5B"/>
<path d="M89.7812 36.8416H95.043V31.5781H89.7812V36.8416Z" fill="#AA4E4C"/>
<path d="M10.8359 36.8416H16.0994V31.5781H10.8359V36.8416Z" fill="#AA4E4C"/>
<path d="M84.5195 36.8416H89.7843V31.5781H84.5195V36.8416Z" fill="#AA4E4C"/>
<path d="M37.1523 36.8416H42.4158V31.5781H37.1523V36.8416Z" fill="#AA4E4C"/>
<path d="M5.57422 36.8416H10.8359V31.5781H5.57422V36.8416Z" fill="#231F20"/>
<path d="M10.8359 31.5781H16.0994V26.3145H10.8359V31.5781Z" fill="#AA4E4C"/>
<path d="M5.57422 31.5781H10.8359V26.3145H5.57422V31.5781Z" fill="#231F20"/>
<path d="M16.0977 31.5781H21.3612V26.3145H16.0977V31.5781Z" fill="#EBA469"/>
<path d="M21.3594 31.5781H26.6216V26.3145H21.3594V31.5781Z" fill="#EBA469"/>
<path d="M26.625 31.5781H31.8885V26.3145H26.625V31.5781Z" fill="#C9804E"/>
<path d="M116.098 36.8416H121.361V31.5781H116.098V36.8416Z" fill="#EBA469"/>
<path d="M31.8867 31.5781H37.1502V26.3145H31.8867V31.5781Z" fill="#AA4E4C"/>
<path d="M73.9924 31.5781H79.2559V26.3145H73.9924V31.5781Z" fill="#231F20"/>
<path d="M79.2578 31.5781H84.5213V26.3145H79.2578V31.5781Z" fill="#231F20"/>
<path d="M42.4141 31.5781H47.6758L47.6763 26.3145H42.4141V31.5781Z" fill="#231F20"/>
<path d="M47.6758 31.5781H52.9393V26.3145H47.6763L47.6758 31.5781Z" fill="#231F20"/>
<path d="M37.1523 31.5781H42.4158V26.3145H37.1523V31.5781Z" fill="#D46C5B"/>
<path d="M84.5195 31.5781H89.7843V26.3145H84.5195V31.5781Z" fill="#D46C5B"/>
<path d="M95.043 31.5781H100.306V26.3145H95.043V31.5781Z" fill="#AA4E4C"/>
<path d="M116.098 31.5781H121.361V26.3145H116.098V31.5781Z" fill="#EBA469"/>
<path d="M126.625 31.578H131.889V26.3145H126.625V31.578Z" fill="#231F20"/>
<path d="M121.359 31.578H126.622V26.3145H121.359V31.578Z" fill="#AA4E4C"/>
<path d="M110.836 31.5781H116.099V26.3145H110.836V31.5781Z" fill="#EBA469"/>
<path d="M100.309 31.5781H105.572V26.3145H100.309V31.5781Z" fill="#C9804E"/>
<path d="M89.7812 31.5781H95.043V26.3145H89.7812V31.5781Z" fill="#D46C5B"/>
<path d="M105.57 31.5781H110.834V26.3145H105.57V31.5781Z" fill="#EBA469"/>
<path d="M84.5195 184.209H89.7843V178.947H84.5195V184.209Z" fill="#E28E0D"/>
<path d="M110.836 42.1053H116.099V36.8416H110.836V42.1053Z" fill="#EBA469"/>
<path d="M116.098 42.1053H121.361V36.8416H116.098V42.1053Z" fill="#AA4E4C"/>
<path d="M79.2578 42.1053H84.5213V36.8416H79.2578V42.1053Z" fill="#AA4E4C"/>
<path d="M121.359 42.1053H126.622V36.8418H121.359V42.1053Z" fill="#231F20"/>
<path d="M105.57 42.1054H110.834V36.8416H105.57V42.1054Z" fill="#EBA469"/>
<path d="M89.7812 42.1053H95.0434L95.043 36.8416H89.7812V42.1053Z" fill="#AA4E4C"/>
<path d="M100.309 42.1054H105.572L105.572 36.8416H100.309L100.309 42.1054Z" fill="#EBA469"/>
<path d="M84.5195 42.1053H89.7843V36.8416H84.5195V42.1053Z" fill="#AA4E4C"/>
<path d="M95.0434 42.1053H100.306V36.8416H95.043L95.0434 42.1053Z" fill="#C9804E"/>
<path d="M31.8867 42.1054H37.1502V36.8416H31.8867L31.8867 42.1054Z" fill="#C9804E"/>
<path d="M73.9924 42.1054H79.2559V36.8416H73.9924V42.1054Z" fill="#D46C5B"/>
<path d="M5.57422 42.1053H10.8364L10.8359 36.8416H5.57422V42.1053Z" fill="#231F20"/>
<path d="M10.8364 42.1053H16.0994V36.8416H10.8359L10.8364 42.1053Z" fill="#AA4E4C"/>
<path d="M16.0977 42.1053H21.3612V36.8416H16.0977V42.1053Z" fill="#EBA469"/>
<path d="M21.3594 42.1053H26.6216V36.8416H21.3594V42.1053Z" fill="#EBA469"/>
<path d="M121.359 36.8418H126.622V31.578H121.359V36.8418Z" fill="#AA4E4C"/>
<path d="M58.2031 42.1053H63.4653L63.4648 36.8416H58.2031V42.1053Z" fill="#D46C5B"/>
<path d="M52.9414 42.1053H58.2049V36.8416H52.9414V42.1053Z" fill="#D46C5B"/>
<path d="M63.4653 42.1053H68.727V36.8416H63.4648L63.4653 42.1053Z" fill="#D46C5B"/>
<path d="M68.7305 42.1053H73.994V36.8416H68.7305V42.1053Z" fill="#D46C5B"/>
<path d="M37.1523 42.1053H42.4158V36.8416H37.1523V42.1053Z" fill="#AA4E4C"/>
<path d="M26.625 42.1053H31.8885V36.8416H26.625V42.1053Z" fill="#EBA469"/>
<path d="M47.6758 42.1053H52.9393V36.8416H47.6758V42.1053Z" fill="#AA4E4C"/>
<path d="M42.4141 42.1053H47.6758V36.8416H42.4141V42.1053Z" fill="#AA4E4C"/>
<path d="M58.2031 184.209H63.4653V178.947H58.2031V184.209Z" fill="#231F20"/>
<path d="M100.309 184.21H105.572V178.947H100.309V184.21Z" fill="#231F20"/>
<path d="M47.6758 184.209H52.9393V178.947H47.6758V184.209Z" fill="#231F20"/>
<path d="M89.7812 184.209H95.0434V178.947H89.7812V184.209Z" fill="#231F20"/>
<path d="M79.2578 184.209H84.5213V178.947H79.2578V184.209Z" fill="#231F20"/>
<path d="M52.9414 184.209H58.2049V178.947H52.9414V184.209Z" fill="#E28E0D"/>
<path d="M131.887 178.947H137.15V173.684H131.887V178.947Z" fill="#231F20"/>
<path d="M131.887 136.842H137.15V131.578H131.887V136.842Z" fill="#231F20"/>
<path d="M105.586 184.209H110.849V178.947H105.586V184.209Z" fill="#E7E3E2"/>
<path d="M131.887 110.526H137.15V105.264H131.887V110.526Z" fill="#231F20"/>
<path d="M131.887 115.789H137.15V110.526H131.887V115.789Z" fill="#231F20"/>
<path d="M131.887 126.316H137.15V121.051H131.887V126.316Z" fill="#231F20"/>
<path d="M131.887 121.051H137.15V115.789H131.887V121.051Z" fill="#231F20"/>
<path d="M131.887 131.578H137.15V126.316H131.887V131.578Z" fill="#231F20"/>
<path d="M121.359 184.209H126.622V178.947H121.359V184.209Z" fill="#231F20"/>
<path d="M116.098 184.209H121.361V178.947H116.098V184.209Z" fill="#231F20"/>
<path d="M110.789 184.209H116.053V178.947H110.789V184.209Z" fill="#E7E3E2"/>
<path d="M126.625 184.209H131.889V178.947H126.625V184.209Z" fill="#231F20"/>
<path d="M131.887 173.684H137.15V168.42H131.887V173.684Z" fill="#231F20"/>
<path d="M89.7812 189.473H95.043L95.0434 184.209H89.7812V189.473Z" fill="#231F20"/>
<path d="M100.309 189.473H105.572L105.572 184.21H100.309L100.309 189.473Z" fill="#231F20"/>
<path d="M110.836 189.472H116.099V184.209H110.836V189.472Z" fill="#231F20"/>
<path d="M105.57 189.473H110.834V184.209H105.57V189.473Z" fill="#231F20"/>
<path d="M95.043 189.473H100.306V184.209L95.0434 184.209L95.043 189.473Z" fill="#231F20"/>
<path d="M126.625 36.8416H131.889V31.578H126.625V36.8416Z" fill="#231F20"/>
<path d="M58.2031 189.473H63.4653V184.209H58.2031V189.473Z" fill="#231F20"/>
<path d="M84.5195 189.473H89.7843V184.209H84.5195V189.473Z" fill="#FAB60A"/>
<path d="M52.9414 189.473H58.2049V184.209H52.9414V189.473Z" fill="#FAB60A"/>
<path d="M42.4141 189.473H47.6758V184.209L42.4141 184.209V189.473Z" fill="#231F20"/>
<path d="M37.1523 189.473H42.4158V184.209H37.1523V189.473Z" fill="#231F20"/>
<path d="M47.6758 189.473H52.9393V184.209H47.6758V189.473Z" fill="#231F20"/>
<path d="M79.2578 189.473H84.5213V184.209H79.2578V189.473Z" fill="#231F20"/>
<path d="M95.043 21.0526H100.306V15.7891H95.043V21.0526Z" fill="#231F20"/>
<path d="M126.625 21.0526H131.889V15.7891H126.625V21.0526Z" fill="#231F20"/>
<path d="M116.098 21.0526H121.361V15.7891H116.098V21.0526Z" fill="#EBA469"/>
<path d="M121.359 21.0526H126.622V15.7891H121.359V21.0526Z" fill="#AA4E4C"/>
<path d="M110.836 21.0526H116.099V15.7891H110.836V21.0526Z" fill="#C9804E"/>
<path d="M105.57 21.0527H110.834V15.7892H105.57V21.0527Z" fill="#AA4E4C"/>
<path d="M100.309 21.0527H105.572V15.7892H100.309V21.0527Z" fill="#D46C5B"/>
<path d="M21.3594 21.0526H26.6216V15.7891H21.3594V21.0526Z" fill="#AA4E4C"/>
<path d="M31.8867 21.0527H37.1502V15.7892H31.8867V21.0527Z" fill="#231F20"/>
<path d="M16.0977 21.0526H21.3612V15.7891H16.0977V21.0526Z" fill="#AA4E4C"/>
<path d="M26.625 21.0526H31.8885V15.7891H26.625V21.0526Z" fill="#D46C5B"/>
<path d="M5.57422 21.0526H10.8364V15.7891H5.57422V21.0526Z" fill="#231F20"/>
<path d="M10.8364 21.0526H16.0994V15.7891H10.8364V21.0526Z" fill="#AA4E4C"/>
<path d="M126.625 26.3145H131.889V21.0526H126.625V26.3145Z" fill="#231F20"/>
<path d="M121.359 26.3145H126.622V21.0526H121.359V26.3145Z" fill="#AA4E4C"/>
<path d="M105.57 26.3145H110.834V21.0527H105.57V26.3145Z" fill="#C9804E"/>
<path d="M116.098 26.3145H121.361V21.0526H116.098V26.3145Z" fill="#EBA469"/>
<path d="M31.8867 200H37.1502V194.736H31.8867L31.8867 200Z" fill="#231F20"/>
<path d="M100.309 26.3145H105.572L105.572 21.0527H100.309L100.309 26.3145Z" fill="#AA4E4C"/>
<path d="M89.7812 199.999H95.0434L95.043 194.735H89.7812V199.999Z" fill="#231F20"/>
<path d="M95.0434 199.999H100.306V194.735H95.043L95.0434 199.999Z" fill="#231F20"/>
<path d="M100.309 199.999H105.572V194.735H100.309V199.999Z" fill="#231F20"/>
<path d="M37.1523 200H42.4158V194.736H37.1523V200Z" fill="#231F20"/>
<path d="M105.57 199.999H110.834V194.735H105.57V199.999Z" fill="#231F20"/>
<path d="M58.2031 199.999H63.4653V194.735H58.2031V199.999Z" fill="#231F20"/>
<path d="M47.6758 200H52.9393V194.736H47.6758V200Z" fill="#231F20"/>
<path d="M52.9414 194.736V199.999H58.2049V194.735L52.9414 194.736Z" fill="#231F20"/>
<path d="M42.4141 200H47.6758V194.736H42.4141V200Z" fill="#231F20"/>
<path d="M79.2578 199.999H84.5213V194.735H79.2578V199.999Z" fill="#231F20"/>
<path d="M63.4653 199.999H68.727V194.735H63.4653V199.999Z" fill="#231F20"/>
<path d="M73.9924 199.999H79.2559V194.735H73.9924V199.999Z" fill="#231F20"/>
<path d="M84.5195 199.999H89.7843V194.735H84.5195V199.999Z" fill="#231F20"/>
<path d="M110.836 26.3145H116.099V21.0526H110.836V26.3145Z" fill="#EBA469"/>
<path d="M95.043 26.3145H100.306V21.0526H95.043V26.3145Z" fill="#D46C5B"/>
<path d="M21.3594 26.3145H26.6216V21.0526H21.3594V26.3145Z" fill="#C9804E"/>
<path d="M26.625 26.3145H31.8885V21.0526H26.625V26.3145Z" fill="#AA4E4C"/>
<path d="M31.8867 26.3145H37.1502V21.0527H31.8867L31.8867 26.3145Z" fill="#D46C5B"/>
<path d="M16.0977 26.3145H21.3612V21.0526H16.0977V26.3145Z" fill="#EBA469"/>
<path d="M37.1523 26.3145H42.4158V21.0527H37.1523V26.3145Z" fill="#231F20"/>
<path d="M10.8359 26.3145H16.0994V21.0526H10.8364L10.8359 26.3145Z" fill="#AA4E4C"/>
<path d="M5.57422 26.3145H10.8359L10.8364 21.0526H5.57422V26.3145Z" fill="#231F20"/>
<path d="M84.5195 26.3145H89.7843V21.0527H84.5195V26.3145Z" fill="#231F20"/>
<path d="M89.7812 26.3145H95.043V21.0526L89.7812 21.0527V26.3145Z" fill="#231F20"/>
<path d="M63.4648 136.842H68.727V131.578H63.4648V136.842Z" fill="#AA4E4C"/>
<path d="M100.309 89.4725H105.572V84.209H100.309V89.4725Z" fill="#AA4E4C"/>
<path d="M100.309 73.6834H105.572V68.4199H100.309V73.6834Z" fill="#ECB276"/>
<path d="M89.7812 73.6834H95.0434V68.4199H89.7812V73.6834Z" fill="white"/>
<path d="M100.309 78.9473H105.572L105.572 73.6834H100.309L100.309 78.9473Z" fill="#ECB276"/>
<path d="M100.309 84.209H105.572V78.9453H100.309V84.209Z" fill="#AA4E4C"/>
<path d="M95.0434 73.6834H100.306V68.4199H95.0434V73.6834Z" fill="white"/>
<path d="M68.7305 73.6834H73.994V68.4199H68.7305V73.6834Z" fill="white"/>
<path d="M84.5195 73.6834H89.7843V68.4199H84.5195V73.6834Z" fill="#231F20"/>
<path d="M73.9922 73.6834H79.2544V68.4199H73.9922V73.6834Z" fill="white"/>
<path d="M95.043 78.9471H100.306V73.6834H95.0434L95.043 78.9471Z" fill="white"/>
<path d="M100.309 105.263H105.572V100H100.309V105.263Z" fill="#AA4E4C"/>
<path d="M100.309 131.578H105.572V126.316H100.309V131.578Z" fill="#AA4E4C"/>
<path d="M100.309 126.316H105.572L105.572 121.051H100.309L100.309 126.316Z" fill="#AA4E4C"/>
<path d="M100.309 94.7362H105.572V89.4725H100.309V94.7362Z" fill="#AA4E4C"/>
<path d="M100.309 136.842H105.572L105.572 131.578H100.309L100.309 136.842Z" fill="#AA4E4C"/>
<path d="M100.309 121.051H105.572L105.572 115.789H100.309L100.309 121.051Z" fill="#7D3336"/>
<path d="M100.309 142.104H105.572L105.572 136.842H100.309L100.309 142.104Z" fill="#AA4E4C"/>
<path d="M63.4648 73.6834H68.727V68.4199H63.4648V73.6834Z" fill="#ECB276"/>
<path d="M100.309 115.789H105.572L105.572 110.525H100.309L100.309 115.789Z" fill="#231F20"/>
<path d="M100.309 99.9987H105.572L105.572 94.7362H100.309L100.309 99.9987Z" fill="#AA4E4C"/>
<path d="M100.309 110.525H105.572L105.572 105.263H100.309L100.309 110.525Z" fill="#E7E3E2"/>
<path d="M21.3594 89.4725H26.6216V84.209H21.3594V89.4725Z" fill="#AA4E4C"/>
<path d="M21.3594 105.264H26.6216V100H21.3594V105.264Z" fill="#AA4E4C"/>
<path d="M21.3594 110.526H26.6216V105.264H21.3594V110.526Z" fill="#E7E3E2"/>
<path d="M21.3594 115.789H26.6216V110.526H21.3594V115.789Z" fill="#231F20"/>
<path d="M21.3594 99.9985H26.6216V94.7363H21.3594V99.9985Z" fill="#AA4E4C"/>
<path d="M21.3594 94.7363H26.6216V89.4725H21.3594V94.7363Z" fill="#AA4E4C"/>
<path d="M21.3594 121.051H26.6216V115.789H21.3594V121.051Z" fill="#7D3336"/>
<path d="M21.3594 131.579H26.6216V126.316H21.3594V131.579Z" fill="#AA4E4C"/>
<path d="M21.3594 136.842H26.6216V131.579H21.3594V136.842Z" fill="#231F20"/>
<path d="M21.3594 126.316H26.6216V121.051H21.3594V126.316Z" fill="#AA4E4C"/>
<path d="M100.309 147.367H105.572L105.572 142.104H100.309L100.309 147.367Z" fill="#843539"/>
<path d="M47.6758 73.6834H52.9393V68.4199H47.6758V73.6834Z" fill="#231F20"/>
<path d="M58.2031 73.6834H63.4648V68.4199H58.2031V73.6834Z" fill="#ECB276"/>
<path d="M42.4141 73.6834H47.6758V68.4199H42.4141V73.6834Z" fill="#231F20"/>
<path d="M21.3594 84.209H26.6216V78.9453H21.3594V84.209Z" fill="#AA4E4C"/>
<path d="M52.9414 73.6834H58.2049V68.4199H52.9414V73.6834Z" fill="white"/>
<path d="M37.1523 73.6834H42.4158V68.4199H37.1523V73.6834Z" fill="white"/>
<path d="M21.3594 73.6834H26.6216V68.4199H21.3594V73.6834Z" fill="#AA4E4C"/>
<path d="M21.3594 78.9471H26.6216V73.6834H21.3594V78.9471Z" fill="#AA4E4C"/>
<path d="M31.8867 73.6834H37.1502V68.4199H31.8867V73.6834Z" fill="white"/>
<path d="M26.625 73.6834H31.8885V68.4199H26.625V73.6834Z" fill="#ECB276"/>
<path d="M26.625 147.368H31.8885V142.104H26.625V147.368Z" fill="#AA4E4C"/>
<path d="M26.625 84.2088H31.8885V78.9453H26.625V84.2088Z" fill="#AA4E4C"/>
<path d="M26.625 78.9471H31.8885V73.6834H26.625V78.9471Z" fill="#ECB276"/>
<path d="M37.1523 78.9471H42.4158V73.6834H37.1523V78.9471Z" fill="white"/>
<path d="M31.8867 78.9473H37.1502V73.6834H31.8867L31.8867 78.9473Z" fill="white"/>
<path d="M26.625 89.4725H31.8885V84.2088H26.625V89.4725Z" fill="#AA4E4C"/>
<path d="M26.625 110.526H31.8885V105.264H26.625V110.526Z" fill="#AA4E4C"/>
<path d="M42.4141 78.9471H47.6763L47.6758 73.6834H42.4141V78.9471Z" fill="white"/>
<path d="M26.625 115.789H31.8885V110.526H26.625V115.789Z" fill="#E7E3E2"/>
<path d="M26.625 99.9985H31.8885V94.7363H26.625V99.9985Z" fill="#AA4E4C"/>
<path d="M26.625 94.7363H31.8885V89.4725H26.625V94.7363Z" fill="#AA4E4C"/>
<path d="M26.625 105.264H31.8885V100H26.625V105.264Z" fill="#AA4E4C"/>
<path d="M73.9922 78.9471H79.2544V73.6834H73.9922V78.9471Z" fill="white"/>
<path d="M100.309 152.631H105.572V147.367H100.309V152.631Z" fill="#231F20"/>
<path d="M47.6763 78.9471H52.9393V73.6834H47.6758L47.6763 78.9471Z" fill="white"/>
<path d="M89.7812 78.9471H95.043L95.0434 73.6834H89.7812V78.9471Z" fill="white"/>
<path d="M79.2578 78.9471H84.5213V73.6836H79.2578V78.9471Z" fill="white"/>
<path d="M68.7305 78.9471H73.994V73.6834H68.7305V78.9471Z" fill="white"/>
<path d="M52.9414 78.9471H58.2049V73.6834H52.9414V78.9471Z" fill="white"/>
<path d="M58.2031 78.9471H63.4653L63.4648 73.6834H58.2031V78.9471Z" fill="#ECB276"/>
<path d="M63.4653 78.9471H68.727V73.6834H63.4648L63.4653 78.9471Z" fill="#ECB276"/>
<path d="M84.5195 78.9471H89.7843V73.6834H84.5195V78.9471Z" fill="white"/>
<path d="M68.7305 152.631H73.994V147.367H68.7305V152.631Z" fill="#AA4E4C"/>
<path d="M73.9924 152.631H79.2559V147.367H73.9924V152.631Z" fill="#AA4E4C"/>
<path d="M47.6758 152.631H52.9393V147.369H47.6758V152.631Z" fill="#7D3336"/>
<path d="M52.9414 147.368V152.631H58.2049V147.367L52.9414 147.368Z" fill="#AA4E4C"/>
<path d="M58.2031 152.631H63.4653V147.367H58.2031V152.631Z" fill="#AA4E4C"/>
<path d="M26.625 121.051H31.8885V115.789H26.625V121.051Z" fill="#231F20"/>
<path d="M95.043 152.631H100.306V147.367H95.043V152.631Z" fill="#AA4E4C"/>
<path d="M79.2578 152.631H84.5213V147.367H79.2578V152.631Z" fill="#AA4E4C"/>
<path d="M89.7812 152.631H95.043V147.367H89.7812V152.631Z" fill="#AA4E4C"/>
<path d="M84.5195 152.631H89.7843V147.367H84.5195V152.631Z" fill="#AA4E4C"/>
<path d="M63.4653 152.631H68.727V147.367H63.4653V152.631Z" fill="#AA4E4C"/>
<path d="M26.625 131.579H31.8885V126.316H26.625V131.579Z" fill="#AA4E4C"/>
<path d="M26.625 136.842H31.8885V131.579H26.625V136.842Z" fill="#AA4E4C"/>
<path d="M26.625 126.316H31.8885V121.051H26.625V126.316Z" fill="#7D3336"/>
<path d="M26.625 142.104H31.8885V136.842H26.625V142.104Z" fill="#AA4E4C"/>
<path d="M31.8867 152.631H37.1502V147.369H31.8867V152.631Z" fill="#843539"/>
<path d="M37.1523 152.631H42.4158V147.369H37.1523V152.631Z" fill="#AA4E4C"/>
<path d="M21.3594 142.104H26.6216V136.842H21.3594V142.104Z" fill="#231F20"/>
<path d="M42.4141 152.631H47.6758V147.369H42.4141V152.631Z" fill="#AA4E4C"/>
<path d="M31.8867 147.369H37.1502L37.1502 142.104H31.8867L31.8867 147.369Z" fill="#AA4E4C"/>
<path d="M79.2578 73.6836H84.5213V68.4199H79.2578V73.6836Z" fill="#231F20"/>
<path d="M16.0977 89.4725H21.3612V84.209H16.0977V89.4725Z" fill="#AA4E4C"/>
<path d="M16.0977 68.4204H21.3612V63.1582H16.0977V68.4204Z" fill="#AA4E4C"/>
<path d="M16.0977 94.7362H21.3612V89.4725H16.0977V94.7362Z" fill="#AA4E4C"/>
<path d="M16.0977 78.9471H21.3612V73.6836H16.0977V78.9471Z" fill="#AA4E4C"/>
<path d="M16.0977 73.6836H21.3612V68.4204H16.0977V73.6836Z" fill="#AA4E4C"/>
<path d="M16.0977 84.209H21.3612V78.9453H16.0977V84.209Z" fill="#AA4E4C"/>
<path d="M16.0977 99.9985H21.3612V94.7362H16.0977V99.9985Z" fill="#AA4E4C"/>
<path d="M16.0977 115.789H21.3594V110.526L16.0977 110.525V115.789Z" fill="#231F20"/>
<path d="M16.0977 110.525L21.3612 110.526V105.264H16.0977V110.525Z" fill="#231F20"/>
<path d="M16.0977 105.264H21.3612V100H16.0977V105.264Z" fill="#E7E3E2"/>
<path d="M63.4648 68.4199H68.727V63.1582H63.4648V68.4199Z" fill="#ECB276"/>
<path d="M47.6758 68.4199H52.9393V63.1582H47.6758V68.4199Z" fill="#231F20"/>
<path d="M58.2031 68.4199H63.4648V63.1582H58.2031V68.4199Z" fill="#ECB276"/>
<path d="M52.9414 68.4199H58.2049V63.1582H52.9414V68.4199Z" fill="white"/>
<path d="M16.0977 121.051H21.3612V115.789L16.0977 115.789V121.051Z" fill="#231F20"/>
<path d="M37.1523 68.4199H42.4158V63.1582H37.1523V68.4199Z" fill="white"/>
<path d="M31.8867 68.4199H37.1502V63.1581H31.8867L31.8867 68.4199Z" fill="white"/>
<path d="M68.7305 68.4199H73.994L73.994 63.1581H68.7305L68.7305 68.4199Z" fill="white"/>
<path d="M42.4141 68.4199H47.6758V63.1582H42.4141V68.4199Z" fill="#231F20"/>
<path d="M21.3594 68.4199H26.6216V63.1582H21.3594V68.4199Z" fill="#AA4E4C"/>
<path d="M26.625 68.4199H31.8885V63.1582H26.625V68.4199Z" fill="#ECB276"/>
<path d="M52.9414 157.895V163.157H58.2049V157.895H52.9414Z" fill="#AA4E4C"/>
<path d="M47.6758 163.157H52.9393V157.895H47.6758V163.157Z" fill="#AA4E4C"/>
<path d="M42.4141 163.157H47.6758V157.895H42.4141V163.157Z" fill="#843539"/>
<path d="M58.2031 163.157H63.4653V157.895H58.2031V163.157Z" fill="#AA4E4C"/>
<path d="M31.8867 163.157H37.1502V157.895H31.8867V163.157Z" fill="#B3AFAE"/>
<path d="M37.1523 163.157H42.4158V157.895H37.1523V163.157Z" fill="#231F20"/>
<path d="M63.4653 163.157H68.727V157.895H63.4653V163.157Z" fill="#AA4E4C"/>
<path d="M73.9924 163.157H79.2559V157.895H73.9924V163.157Z" fill="#AA4E4C"/>
<path d="M79.2578 163.157H84.5213V157.895H79.2578V163.157Z" fill="#AA4E4C"/>
<path d="M68.7305 163.157H73.994V157.895H68.7305V163.157Z" fill="#7D3336"/>
<path d="M16.0977 142.104H21.3612V136.842H16.0977V142.104Z" fill="#231F20"/>
<path d="M16.0977 136.842H21.3612V131.578H16.0977V136.842Z" fill="#AA4E4C"/>
<path d="M16.0977 147.368H21.3612V142.104H16.0977V147.368Z" fill="#E7E3E2"/>
<path d="M16.0977 131.578H21.3612V126.316H16.0977V131.578Z" fill="#231F20"/>
<path d="M26.625 163.157H31.8885V157.895H26.625V163.157Z" fill="#231F20"/>
<path d="M16.0977 152.631H21.3612V147.368H16.0977V152.631Z" fill="#231F20"/>
<path d="M16.0977 126.316H21.3612V121.051H16.0977V126.316Z" fill="#231F20"/>
<path d="M21.3594 157.894H26.6216V152.631H21.3594V157.894Z" fill="#231F20"/>
<path d="M95.043 157.894H100.306V152.631H95.043V157.894Z" fill="#843539"/>
<path d="M63.4653 157.895H68.727V152.631H63.4653V157.895Z" fill="#AA4E4C"/>
<path d="M79.2578 157.895H84.5213V152.631H79.2578V157.895Z" fill="#AA4E4C"/>
<path d="M89.7812 157.894H95.043V152.631H89.7812V157.894Z" fill="#AA4E4C"/>
<path d="M68.7305 157.895H73.994V152.631H68.7305V157.895Z" fill="#AA4E4C"/>
<path d="M73.9924 157.895H79.2559V152.631H73.9924V157.895Z" fill="#7D3336"/>
<path d="M84.5195 157.894H89.7843V152.631H84.5195V157.894Z" fill="#AA4E4C"/>
<path d="M105.57 157.894H110.834V152.631H105.57V157.894Z" fill="#B3AFAE"/>
<path d="M105.57 152.631H110.834L110.834 147.367H105.57L105.57 152.631Z" fill="#B3AFAE"/>
<path d="M100.309 157.894H105.572V152.631H100.309V157.894Z" fill="#231F20"/>
<path d="M21.3594 147.368H26.6216V142.104H21.3594V147.368Z" fill="#231F20"/>
<path d="M105.57 147.367H110.834V142.104H105.57V147.367Z" fill="#231F20"/>
<path d="M31.8867 157.895H37.1502L37.1502 152.631H31.8867L31.8867 157.895Z" fill="#231F20"/>
<path d="M26.625 152.631H31.8885V147.368H26.625V152.631Z" fill="#231F20"/>
<path d="M26.625 157.895H31.8885V152.631H26.625V157.895Z" fill="#B3AFAE"/>
<path d="M21.3594 152.631H26.6216V147.368H21.3594V152.631Z" fill="#E7E3E2"/>
<path d="M58.2031 157.895H63.4653V152.631H58.2031V157.895Z" fill="#AA4E4C"/>
<path d="M37.1523 157.895H42.4158V152.631H37.1523V157.895Z" fill="#843539"/>
<path d="M52.9414 152.631V157.895H58.2049V152.631H52.9414Z" fill="#7D3336"/>
<path d="M47.6758 157.895H52.9393V152.631H47.6758V157.895Z" fill="#AA4E4C"/>
<path d="M42.4141 157.895H47.6758V152.631H42.4141V157.895Z" fill="#AA4E4C"/>
<path d="M73.9922 68.4199L79.2559 68.4203V63.1581H73.9924L73.9922 68.4199Z" fill="white"/>
<path d="M105.57 73.6834H110.834V68.4199H105.57V73.6834Z" fill="#AA4E4C"/>
<path d="M100.309 68.4199H105.572L105.572 63.1581H100.309L100.309 68.4199Z" fill="#ECB276"/>
<path d="M105.57 68.4199H110.834V63.1581H105.57V68.4199Z" fill="#AA4E4C"/>
<path d="M105.57 84.2088H110.834V78.9453H105.57V84.2088Z" fill="#AA4E4C"/>
<path d="M105.57 142.104H110.834V136.842H105.57V142.104Z" fill="#231F20"/>
<path d="M79.2578 68.4199H84.5213V63.1582H79.2578V68.4199Z" fill="#231F20"/>
<path d="M105.57 89.4725H110.834V84.2088H105.57V89.4725Z" fill="#AA4E4C"/>
<path d="M84.5195 68.4199H89.7843V63.1582H84.5195V68.4199Z" fill="#231F20"/>
<path d="M89.7812 68.4199H95.0434V63.1582H89.7812V68.4199Z" fill="white"/>
<path d="M95.0434 68.4199H100.306V63.1582H95.0434V68.4199Z" fill="white"/>
<path d="M105.57 78.9473H110.834V73.6834H105.57V78.9473Z" fill="#AA4E4C"/>
<path d="M105.57 131.578H110.834V126.316H105.57V131.578Z" fill="#AA4E4C"/>
<path d="M105.57 126.316H110.834V121.051H105.57V126.316Z" fill="#AA4E4C"/>
<path d="M105.57 136.842H110.834V131.578H105.57V136.842Z" fill="#AA4E4C"/>
<path d="M105.57 94.7362H110.834V89.4725H105.57V94.7362Z" fill="#AA4E4C"/>
<path d="M105.57 121.051H110.834V115.789H105.57V121.051Z" fill="#AA4E4C"/>
<path d="M105.57 99.9987H110.834V94.7362H105.57V99.9987Z" fill="#AA4E4C"/>
<path d="M105.57 115.789H110.834V110.525H105.57V115.789Z" fill="#7D3336"/>
<path d="M105.57 105.263H110.834V100H105.57V105.263Z" fill="#E7E3E2"/>
<path d="M105.57 110.525H110.834V105.263H105.57V110.525Z" fill="#231F20"/>
<path d="M68.7305 121.051H73.994V115.789H68.7305V121.051Z" fill="#AA4E4C"/>
<path d="M42.4141 94.7362H47.6763V89.4727H42.4141V94.7362Z" fill="#AA4E4C"/>
<path d="M42.4141 99.9985H47.6763V94.7362H42.4141V99.9985Z" fill="#AA4E4C"/>
<path d="M42.4141 131.579H47.6763V126.316H42.4141V131.579Z" fill="#AA4E4C"/>
<path d="M47.6763 94.7362H52.9393V89.4727H47.6763V94.7362Z" fill="#231F20"/>
<path d="M52.9414 94.7362H58.2049V89.4727H52.9414V94.7362Z" fill="#FFF200"/>
<path d="M42.4141 105.264H47.6763V100H42.4141V105.264Z" fill="#AA4E4C"/>
<path d="M42.4141 110.526H47.6763V105.264H42.4141V110.526Z" fill="#E7E3E2"/>
<path d="M42.4141 121.051H47.6763V115.789H42.4141V121.051Z" fill="#7D3336"/>
<path d="M42.4141 126.316H47.6763V121.051H42.4141V126.316Z" fill="#AA4E4C"/>
<path d="M42.4141 115.789H47.6763V110.526H42.4141V115.789Z" fill="#231F20"/>
<path d="M58.2031 94.7362H63.4653V89.4727H58.2031V94.7362Z" fill="#FBC707"/>
<path d="M79.2578 110.526H84.5213V105.264H79.2578V110.526Z" fill="#AA4E4C"/>
<path d="M63.4653 94.7362H68.727V89.4727H63.4653V94.7362Z" fill="#FBC707"/>
<path d="M79.2578 115.789H84.5213V110.526H79.2578V115.789Z" fill="#E7E3E2"/>
<path d="M79.2578 126.316H84.5213V121.051H79.2578V126.316Z" fill="#7D3336"/>
<path d="M79.2578 121.051H84.5213V115.789H79.2578V121.051Z" fill="#231F20"/>
<path d="M79.2578 105.264H84.5213V100H79.2578V105.264Z" fill="#AA4E4C"/>
<path d="M68.7305 94.7362H73.994V89.4727H68.7305V94.7362Z" fill="#231F20"/>
<path d="M73.9922 94.7362H79.2544V89.4727H73.9922V94.7362Z" fill="#AA4E4C"/>
<path d="M79.2578 94.7362H84.5213V89.4727H79.2578V94.7362Z" fill="#AA4E4C"/>
<path d="M79.2578 99.9985H84.5213V94.7362H79.2578V99.9985Z" fill="#AA4E4C"/>
<path d="M84.5195 121.051H89.7843V115.789H84.5195V121.051Z" fill="#231F20"/>
<path d="M84.5195 110.526H89.7843V105.264H84.5195V110.526Z" fill="#AA4E4C"/>
<path d="M84.5195 105.264H89.7843V100H84.5195V105.264Z" fill="#AA4E4C"/>
<path d="M84.5195 115.789H89.7843V110.526H84.5195V115.789Z" fill="#E7E3E2"/>
<path d="M84.5195 99.9985H89.7843V94.7363H84.5195V99.9985Z" fill="#AA4E4C"/>
<path d="M79.2578 131.579H84.5213V126.316H79.2578V131.579Z" fill="#AA4E4C"/>
<path d="M47.6763 131.579H52.9393V126.316H47.6763V131.579Z" fill="#AA4E4C"/>
<path d="M95.043 84.2088H100.306V78.9453H95.043V84.2088Z" fill="#ECB276"/>
<path d="M84.5195 94.7363H89.7843V89.4727H84.5195V94.7363Z" fill="#AA4E4C"/>
<path d="M79.2578 89.4727H84.5213V84.209H79.2578V89.4727Z" fill="#ECB276"/>
<path d="M84.5195 89.4727H89.7843V84.209H84.5195V89.4727Z" fill="#ECB276"/>
<path d="M73.9922 89.4727H79.2544V84.209H73.9922V89.4727Z" fill="#ECB276"/>
<path d="M58.2031 136.842H63.4648V131.578H58.2031V136.842Z" fill="#7D3336"/>
<path d="M52.9414 131.578V136.842H58.2049V131.578H52.9414Z" fill="#AA4E4C"/>
<path d="M47.6758 136.842H52.9393V131.579H47.6763L47.6758 136.842Z" fill="#AA4E4C"/>
<path d="M84.5195 131.579H89.7843V126.316H84.5195V131.579Z" fill="#AA4E4C"/>
<path d="M79.2578 136.842H84.5213V131.579H79.2578V136.842Z" fill="#7D3336"/>
<path d="M84.5195 136.842H89.7843V131.579H84.5195V136.842Z" fill="#AA4E4C"/>
<path d="M73.9924 136.842H79.2559V131.578H73.9924V136.842Z" fill="#AA4E4C"/>
<path d="M68.7305 136.842H73.994V131.578H68.7305V136.842Z" fill="#AA4E4C"/>
<path d="M73.9924 131.578H79.2559V126.316H73.9924V131.578Z" fill="#AA4E4C"/>
<path d="M52.9414 115.789H58.2049V110.525H52.9414V115.789Z" fill="#7D3336"/>
<path d="M52.9414 110.525H58.2049V105.264H52.9414V110.525Z" fill="#231F20"/>
<path d="M68.7305 89.4727H73.994V84.209H68.7305V89.4727Z" fill="#231F20"/>
<path d="M52.9414 105.264H58.2049V100H52.9414V105.264Z" fill="#FBC707"/>
<path d="M52.9414 121.051H58.2049V115.789H52.9414V121.051Z" fill="#AA4E4C"/>
<path d="M63.4648 105.264H68.727V100H63.4648V105.264Z" fill="#231F20"/>
<path d="M68.7305 126.316H73.994V121.051H68.7305V126.316Z" fill="#AA4E4C"/>
<path d="M73.9924 126.316H79.2559V121.051H73.9924V126.316Z" fill="#AA4E4C"/>
<path d="M63.4648 126.316H68.727V121.051H63.4648V126.316Z" fill="#AA4E4C"/>
<path d="M58.2031 126.316H63.4648V121.051H58.2031V126.316Z" fill="#AA4E4C"/>
<path d="M58.2031 121.051H63.4648L63.4653 115.789H58.2031V121.051Z" fill="#AA4E4C"/>
<path d="M63.4653 115.789L68.727 115.789V110.525H63.4648L63.4653 115.789Z" fill="#7D3336"/>
<path d="M58.2031 115.789H63.4653L63.4648 110.525H58.2031V115.789Z" fill="#7D3336"/>
<path d="M58.2031 110.525H63.4648V105.264L58.2031 105.264V110.525Z" fill="#231F20"/>
<path d="M63.4648 110.525H68.727V105.264H63.4648V110.525Z" fill="#5C2425"/>
<path d="M68.7305 105.264H73.994V100H68.7305V105.264Z" fill="#E7E3E2"/>
<path d="M68.7305 115.789H73.994V110.525H68.7305V115.789Z" fill="#7D3336"/>
<path d="M63.4648 121.051H68.727V115.789L63.4653 115.789L63.4648 121.051Z" fill="#AA4E4C"/>
<path d="M68.7305 110.525H73.994V105.264H68.7305V110.525Z" fill="#231F20"/>
<path d="M84.5195 163.157H89.7843V157.894H84.5195V163.157Z" fill="#AA4E4C"/>
<path d="M58.2031 105.264L63.4648 105.264V100H58.2031V105.264Z" fill="#EEA00C"/>
<path d="M47.6763 121.051H52.9393V115.789H47.6763V121.051Z" fill="#AA4E4C"/>
<path d="M52.9414 126.316H58.2049V121.051H52.9414V126.316Z" fill="#AA4E4C"/>
<path d="M47.6763 126.316H52.9393V121.051H47.6763V126.316Z" fill="#AA4E4C"/>
<path d="M47.6763 115.789H52.9393V110.525L47.6763 110.526V115.789Z" fill="#7D3336"/>
<path d="M47.6763 110.526L52.9393 110.525V105.264L47.6763 105.264V110.526Z" fill="#231F20"/>
<path d="M52.9414 131.578H58.2049V126.316H52.9414V131.578Z" fill="#7D3336"/>
<path d="M63.4648 131.578H68.727V126.316H63.4648V131.578Z" fill="#AA4E4C"/>
<path d="M68.7305 131.578H73.994V126.316H68.7305V131.578Z" fill="#AA4E4C"/>
<path d="M47.6763 105.264L52.9393 105.264V100H47.6763V105.264Z" fill="#231F20"/>
<path d="M58.2031 131.578H63.4648V126.316H58.2031V131.578Z" fill="#AA4E4C"/>
<path d="M63.4648 99.9985H68.727V94.7362H63.4653L63.4648 99.9985Z" fill="#EEA00C"/>
<path d="M73.9922 99.9985H79.2544V94.7362H73.9922V99.9985Z" fill="#AA4E4C"/>
<path d="M73.9924 110.526H79.2559V105.264H73.9924V110.526Z" fill="#E7E3E2"/>
<path d="M73.9924 105.264H79.2559V100H73.9924V105.264Z" fill="#AA4E4C"/>
<path d="M73.9924 115.789H79.2559V110.526H73.9924V115.789Z" fill="#231F20"/>
<path d="M58.2031 99.9985H63.4648L63.4653 94.7362H58.2031V99.9985Z" fill="#FBC707"/>
<path d="M52.9414 99.9985H58.2049V94.7362H52.9414V99.9985Z" fill="#FBC707"/>
<path d="M47.6763 99.9985H52.9393V94.7362H47.6763V99.9985Z" fill="#231F20"/>
<path d="M68.7305 99.9985H73.994V94.7362H68.7305V99.9985Z" fill="#231F20"/>
<path d="M73.9924 121.051H79.2559V115.789H73.9924V121.051Z" fill="#7D3336"/>
<path d="M84.5195 126.316H89.7843V121.051H84.5195V126.316Z" fill="#7D3336"/>
<path d="M31.8867 131.578H37.1502V126.316H31.8867V131.578Z" fill="#AA4E4C"/>
<path d="M31.8867 126.316H37.1502V121.051H31.8867L31.8867 126.316Z" fill="#7D3336"/>
<path d="M31.8867 136.842H37.1502V131.578H31.8867L31.8867 136.842Z" fill="#AA4E4C"/>
<path d="M31.8867 121.051H37.1502V115.789H31.8867L31.8867 121.051Z" fill="#231F20"/>
<path d="M31.8867 115.789H37.1502V110.525H31.8867L31.8867 115.789Z" fill="#E7E3E2"/>
<path d="M37.1523 147.369H42.4158V142.104H37.1523V147.369Z" fill="#AA4E4C"/>
<path d="M31.8867 142.104H37.1502V136.842H31.8867V142.104Z" fill="#AA4E4C"/>
<path d="M31.8867 110.525H37.1502V105.264H31.8867L31.8867 110.525Z" fill="#AA4E4C"/>
<path d="M42.4141 147.369H47.6758L47.6763 142.104H42.4141V147.369Z" fill="#AA4E4C"/>
<path d="M37.1523 142.104H42.4158V136.842H37.1523V142.104Z" fill="#AA4E4C"/>
<path d="M42.4141 84.2088H47.6763V78.9453H42.4141V84.2088Z" fill="white"/>
<path d="M47.6758 147.369H52.9393V142.104H47.6763L47.6758 147.369Z" fill="#AA4E4C"/>
<path d="M47.6763 84.2088H52.9393V78.9453H47.6763V84.2088Z" fill="white"/>
<path d="M52.9414 84.2088H58.2049V78.9453H52.9414V84.2088Z" fill="#ECB276"/>
<path d="M37.1523 84.2088H42.4158V78.9453H37.1523V84.2088Z" fill="white"/>
<path d="M31.8867 89.4725H37.1502V84.209H31.8867V89.4725Z" fill="#AA4E4C"/>
<path d="M31.8867 84.209H37.1502V78.9453H31.8867V84.209Z" fill="#ECB276"/>
<path d="M31.8867 94.7362H37.1502V89.4725H31.8867V94.7362Z" fill="#AA4E4C"/>
<path d="M31.8867 99.9987H37.1502V94.7362H31.8867L31.8867 99.9987Z" fill="#AA4E4C"/>
<path d="M31.8867 105.264H37.1502V100H31.8867V105.264Z" fill="#AA4E4C"/>
<path d="M52.9414 142.104V147.368L58.2049 147.367V142.104H52.9414Z" fill="#AA4E4C"/>
<path d="M95.043 115.789H100.306V110.525H95.043V115.789Z" fill="#E7E3E2"/>
<path d="M95.043 110.525H100.306V105.264H95.043V110.525Z" fill="#AA4E4C"/>
<path d="M95.043 121.051H100.306V115.789H95.043V121.051Z" fill="#231F20"/>
<path d="M95.043 126.316H100.306V121.051H95.043V126.316Z" fill="#7D3336"/>
<path d="M58.2031 84.2088H63.4653V78.9453H58.2031V84.2088Z" fill="#231F20"/>
<path d="M95.043 99.9985H100.306V94.7363H95.043V99.9985Z" fill="#AA4E4C"/>
<path d="M95.043 105.264H100.306V100H95.043V105.264Z" fill="#AA4E4C"/>
<path d="M95.043 94.7363H100.306V89.4727H95.043V94.7363Z" fill="#AA4E4C"/>
<path d="M95.043 89.4727H100.306V84.2088H95.043V89.4727Z" fill="#AA4E4C"/>
<path d="M95.043 136.842H100.306V131.578H95.043V136.842Z" fill="#AA4E4C"/>
<path d="M95.043 131.578H100.306V126.316H95.043V131.578Z" fill="#AA4E4C"/>
<path d="M68.7305 147.367H73.994V142.104H68.7305V147.367Z" fill="#7D3336"/>
<path d="M63.4653 147.367H68.727V142.104H63.4648L63.4653 147.367Z" fill="#AA4E4C"/>
<path d="M73.9924 147.367H79.2559V142.104H73.9924V147.367Z" fill="#AA4E4C"/>
<path d="M95.043 142.104H100.306V136.842H95.043V142.104Z" fill="#7D3336"/>
<path d="M58.2031 147.367H63.4653L63.4648 142.104H58.2031V147.367Z" fill="#AA4E4C"/>
<path d="M89.7812 147.367H95.043V142.104L89.7812 142.104V147.367Z" fill="#7D3336"/>
<path d="M95.043 147.367H100.306V142.104H95.043V147.367Z" fill="#AA4E4C"/>
<path d="M79.2578 147.367H84.5213V142.104H79.2578V147.367Z" fill="#AA4E4C"/>
<path d="M84.5195 147.367H89.7843V142.104H84.5195V147.367Z" fill="#AA4E4C"/>
<path d="M37.1523 131.579H42.4158V126.316H37.1523V131.579Z" fill="#AA4E4C"/>
<path d="M42.4141 136.842H47.6758L47.6763 131.579H42.4141V136.842Z" fill="#7D3336"/>
<path d="M63.4653 84.2088H68.727V78.9453H63.4653V84.2088Z" fill="#231F20"/>
<path d="M63.4653 89.4727H68.727V84.2088H63.4653V89.4727Z" fill="#FBC707"/>
<path d="M37.1523 126.316H42.4158V121.051H37.1523V126.316Z" fill="#7D3336"/>
<path d="M37.1523 121.051H42.4158V115.789H37.1523V121.051Z" fill="#231F20"/>
<path d="M47.6763 142.104H52.9393V136.842H47.6758L47.6763 142.104Z" fill="#7D3336"/>
<path d="M52.9414 136.842V142.104H58.2049V136.842H52.9414Z" fill="#AA4E4C"/>
<path d="M58.2031 142.104H63.4648V136.842H58.2031V142.104Z" fill="#AA4E4C"/>
<path d="M42.4141 142.104H47.6763L47.6758 136.842H42.4141V142.104Z" fill="#AA4E4C"/>
<path d="M37.1523 115.789H42.4158V110.525H37.1523V115.789Z" fill="#E7E3E2"/>
<path d="M37.1523 105.264H42.4158V100H37.1523V105.264Z" fill="#AA4E4C"/>
<path d="M37.1523 110.525H42.4158V105.264H37.1523V110.525Z" fill="#AA4E4C"/>
<path d="M47.6763 89.4727H52.9393V84.2088H47.6763V89.4727Z" fill="#ECB276"/>
<path d="M52.9414 89.4727H58.2049V84.2088H52.9414V89.4727Z" fill="#231F20"/>
<path d="M58.2031 89.4727H63.4653V84.2088H58.2031V89.4727Z" fill="#FFF200"/>
<path d="M42.4141 89.4727H47.6763V84.2088H42.4141V89.4727Z" fill="#ECB276"/>
<path d="M37.1523 99.9985H42.4158V94.7363H37.1523V99.9985Z" fill="#AA4E4C"/>
<path d="M63.4648 142.104H68.727V136.842H63.4648V142.104Z" fill="#AA4E4C"/>
<path d="M37.1523 89.4725H42.4158V84.2088H37.1523V89.4725Z" fill="#ECB276"/>
<path d="M37.1523 94.7363H42.4158V89.4725H37.1523V94.7363Z" fill="#AA4E4C"/>
<path d="M37.1523 136.842H42.4158V131.579H37.1523V136.842Z" fill="#AA4E4C"/>
<path d="M89.7812 94.7362L95.043 94.7363V89.4727H89.7812V94.7362Z" fill="#AA4E4C"/>
<path d="M89.7812 89.4727H95.043V84.2088L89.7812 84.209V89.4727Z" fill="#ECB276"/>
<path d="M89.7812 105.264L95.043 105.264V100H89.7812V105.264Z" fill="#AA4E4C"/>
<path d="M89.7812 99.9985H95.043V94.7363L89.7812 94.7362V99.9985Z" fill="#AA4E4C"/>
<path d="M89.7812 84.209L95.043 84.2088V78.9453H89.7812V84.209Z" fill="white"/>
<path d="M68.7305 142.104H73.994V136.842H68.7305V142.104Z" fill="#AA4E4C"/>
<path d="M68.7305 84.209H73.994V78.9453H68.7305V84.209Z" fill="#ECB276"/>
<path d="M73.9922 84.209H79.2544V78.9453H73.9922V84.209Z" fill="white"/>
<path d="M84.5195 84.209H89.7843V78.9453H84.5195V84.209Z" fill="white"/>
<path d="M79.2578 84.209H84.5213V78.9453H79.2578V84.209Z" fill="white"/>
<path d="M89.7812 110.526L95.043 110.525V105.264L89.7812 105.264V110.526Z" fill="#AA4E4C"/>
<path d="M84.5195 142.104H89.7843V136.842H84.5195V142.104Z" fill="#AA4E4C"/>
<path d="M79.2578 142.104H84.5213V136.842H79.2578V142.104Z" fill="#AA4E4C"/>
<path d="M89.7812 142.104L95.043 142.104V136.842L89.7812 136.842V142.104Z" fill="#AA4E4C"/>
<path d="M89.7812 115.789H95.043V110.525L89.7812 110.526V115.789Z" fill="#E7E3E2"/>
<path d="M73.9924 142.104H79.2559V136.842H73.9924V142.104Z" fill="#7D3336"/>
<path d="M89.7812 126.316H95.043V121.051L89.7812 121.051V126.316Z" fill="#7D3336"/>
<path d="M89.7812 136.842L95.043 136.842V131.578H89.7812V136.842Z" fill="#AA4E4C"/>
<path d="M89.7812 121.051L95.043 121.051V115.789H89.7812V121.051Z" fill="#231F20"/>
<path d="M89.7812 131.578H95.043V126.316H89.7812V131.578Z" fill="#AA4E4C"/>
<path d="M79.2578 178.947H84.5213V173.684H79.2578V178.947Z" fill="#231F20"/>
<path d="M0.308594 121.051H5.5721V115.789H0.308594V121.051Z" fill="#231F20"/>
<path d="M0.308594 126.316H5.5721V121.051H0.308594L0.308594 126.316Z" fill="#231F20"/>
<path d="M0.308594 131.578H5.5721V126.316H0.308594L0.308594 131.578Z" fill="#231F20"/>
<path d="M0.308594 115.789H5.5721V110.525H0.308594L0.308594 115.789Z" fill="#231F20"/>
<path d="M52.9414 178.947H58.2049V173.684H52.9414V178.947Z" fill="#231F20"/>
<path d="M68.7305 178.947H73.994V173.684H68.7305V178.947Z" fill="#231F20"/>
<path d="M58.2031 178.947H63.4653V173.684H58.2031V178.947Z" fill="#231F20"/>
<path d="M73.9924 178.947H79.2559V173.684H73.9924V178.947Z" fill="#231F20"/>
<path d="M63.4653 178.947L68.727 178.947V173.684H63.4653V178.947Z" fill="#231F20"/>
<path d="M47.6758 178.947H52.9393V173.684H47.6758V178.947Z" fill="#231F20"/>
<path d="M16.0977 52.6307H21.3598V47.3672H16.0977V52.6307Z" fill="#231F20"/>
<path d="M121.359 115.789H126.622V110.525H121.359V115.789Z" fill="#AA4E4C"/>
<path d="M121.359 105.264H126.622V100H121.359V105.264Z" fill="#231F20"/>
<path d="M121.359 110.525H126.622V105.264H121.359V110.525Z" fill="#D46C5B"/>
<path d="M121.359 147.367H126.622V142.104H121.359V147.367Z" fill="#231F20"/>
<path d="M89.7812 163.157H95.0434L95.043 157.894H89.7812V163.157Z" fill="#AA4E4C"/>
<path d="M121.359 126.316H126.622V121.051H121.359V126.316Z" fill="#AA4E4C"/>
<path d="M121.359 131.579H126.622V126.316H121.359V131.579Z" fill="#AA4E4C"/>
<path d="M121.359 142.104H126.622V136.842H121.359V142.104Z" fill="#AA4E4C"/>
<path d="M121.359 121.051H126.622V115.789H121.359V121.051Z" fill="#AA4E4C"/>
<path d="M84.5195 52.6307H89.7843V47.3672H84.5195V52.6307Z" fill="#ECB276"/>
<path d="M47.6758 52.6307H52.9393V47.3672H47.6758V52.6307Z" fill="#ECB276"/>
<path d="M73.9924 52.6307H79.2559V47.3672H73.9924V52.6307Z" fill="#ECB276"/>
<path d="M52.9414 52.6307H58.2049V47.3672H52.9414V52.6307Z" fill="#7D3336"/>
<path d="M63.4648 52.6307H68.727V47.3672H63.4648V52.6307Z" fill="#AA4E4C"/>
<path d="M68.7305 52.6307H73.994V47.3672H68.7305V52.6307Z" fill="#7D3336"/>
<path d="M58.2031 52.6307H63.4666V47.3672H58.2031V52.6307Z" fill="#AA4E4C"/>
<path d="M31.8867 52.6307H37.1502V47.3672H31.8867V52.6307Z" fill="#AA4E4C"/>
<path d="M42.4141 52.6307H47.6758V47.3672H42.4141V52.6307Z" fill="#ECB276"/>
<path d="M37.1523 52.6307H42.4158V47.3672H37.1523V52.6307Z" fill="#ECB276"/>
<path d="M26.625 52.6307H31.8885V47.3672H26.625V52.6307Z" fill="#AA4E4C"/>
<path d="M79.2578 52.6307H84.5213V47.3672H79.2578V52.6307Z" fill="#ECB276"/>
<path d="M116.098 52.6307H121.361V47.3672H116.098V52.6307Z" fill="#231F20"/>
<path d="M105.57 52.6307H110.834V47.3672H105.57V52.6307Z" fill="#AA4E4C"/>
<path d="M110.836 52.6307H116.099V47.3672H110.836V52.6307Z" fill="#AA4E4C"/>
<path d="M100.309 52.6307H105.572V47.3672H100.309V52.6307Z" fill="#AA4E4C"/>
<path d="M21.3598 52.6307H26.6229V47.3672H21.3598V52.6307Z" fill="#AA4E4C"/>
<path d="M89.7812 52.6307H95.0434V47.3672H89.7812V52.6307Z" fill="#ECB276"/>
<path d="M95.0434 52.6307H100.306V47.3672H95.0434V52.6307Z" fill="#AA4E4C"/>
<path d="M10.8359 47.3677H16.0994V42.1053H10.8364L10.8359 47.3677Z" fill="#231F20"/>
<path d="M21.3598 47.3672L26.6216 47.3677V42.1053H21.3594L21.3598 47.3672Z" fill="#EBA469"/>
<path d="M16.0977 47.3672L21.3612 47.3677V42.1053H16.0977V47.3672Z" fill="#AA4E4C"/>
<path d="M84.5195 178.947H89.7843V173.684H84.5195V178.947Z" fill="#231F20"/>
<path d="M58.2031 47.3672H63.4648L63.4653 42.1053H58.2031V47.3672Z" fill="#D46C5B"/>
<path d="M63.4648 47.3672H68.727V42.1053H63.4653L63.4648 47.3672Z" fill="#D46C5B"/>
<path d="M68.7305 47.3672H73.994V42.1053H68.7305V47.3672Z" fill="#AA4E4C"/>
<path d="M73.9924 47.3672H79.2559V42.1054H73.9924V47.3672Z" fill="#AA4E4C"/>
<path d="M52.9414 47.3672H58.2031V42.1053H52.9414V47.3672Z" fill="#AA4E4C"/>
<path d="M31.8867 47.3672H37.1502V42.1054H31.8867L31.8867 47.3672Z" fill="#AA4E4C"/>
<path d="M37.1523 47.3672H42.4141V42.1053H37.1523V47.3672Z" fill="#AA4E4C"/>
<path d="M42.4141 47.3672L47.6776 47.3677V42.1055L42.4141 42.1053V47.3672Z" fill="#AA4E4C"/>
<path d="M47.6758 47.3672H52.9393V42.1053H47.6758V47.3672Z" fill="#AA4E4C"/>
<path d="M121.359 168.42H126.622V163.156H121.359V168.42Z" fill="#231F20"/>
<path d="M79.2578 47.3672H84.5213V42.1053H79.2578V47.3672Z" fill="#AA4E4C"/>
<path d="M26.625 47.3672H31.8885V42.1053H26.625V47.3672Z" fill="#EBA469"/>
<path d="M126.625 142.104H131.889V136.842H126.625V142.104Z" fill="#231F20"/>
<path d="M126.625 168.42H131.889V163.156H126.625V168.42Z" fill="#231F20"/>
<path d="M126.625 115.789H131.889V110.525H126.625V115.789Z" fill="#AA4E4C"/>
<path d="M126.625 126.316H131.889V121.051H126.625V126.316Z" fill="#AA4E4C"/>
<path d="M126.625 136.842H131.889V131.578H126.625V136.842Z" fill="#AA4E4C"/>
<path d="M126.625 131.578H131.889V126.316H126.625V131.578Z" fill="#AA4E4C"/>
<path d="M126.625 121.051H131.889V115.789H126.625V121.051Z" fill="#AA4E4C"/>
<path d="M105.57 178.947H110.834V173.684H105.57V178.947Z" fill="#AA4E4C"/>
<path d="M95.0434 178.947L100.306 178.947V173.684H95.043L95.0434 178.947Z" fill="#231F20"/>
<path d="M100.309 178.947H105.572V173.684H100.309V178.947Z" fill="#AA4E4C"/>
<path d="M126.625 173.683H131.889V168.42H126.625V173.683Z" fill="#E7E3E2"/>
<path d="M89.7812 178.947H95.0434L95.043 173.684H89.7812V178.947Z" fill="#231F20"/>
<path d="M84.5195 47.3672H89.7843V42.1053H84.5195V47.3672Z" fill="#AA4E4C"/>
<path d="M126.625 178.947H131.889V173.683H126.625V178.947Z" fill="#E7E3E2"/>
<path d="M121.359 178.947H126.622V173.684H121.359V178.947Z" fill="#E7E3E2"/>
<path d="M116.098 178.947H121.361V173.684H116.098V178.947Z" fill="#AA4E4C"/>
<path d="M110.836 178.947H116.099V173.684H110.836V178.947Z" fill="#231F20"/>
<path d="M121.359 47.3677H126.622V42.1053H121.359V47.3677Z" fill="#231F20"/>
<path d="M110.836 47.3672H116.099V42.1053H110.836V47.3672Z" fill="#EBA469"/>
<path d="M116.098 47.3672H121.361V42.1053H116.098V47.3672Z" fill="#AA4E4C"/>
<path d="M105.57 47.3672H110.834V42.1054H105.57V47.3672Z" fill="#EBA469"/>
<path d="M95.0434 47.3672H100.306V42.1053H95.0434V47.3672Z" fill="#AA4E4C"/>
<path d="M89.7812 47.3672H95.0434V42.1053H89.7812V47.3672Z" fill="#AA4E4C"/>
<path d="M100.309 47.3672H105.572L105.572 42.1054H100.309L100.309 47.3672Z" fill="#AA4E4C"/>
<path d="M126.625 110.525H131.889V105.264H126.625V110.525Z" fill="#D46C5B"/>
<path d="M126.625 105.264H131.889V100H126.625V105.264Z" fill="#231F20"/>
<path d="M121.359 136.842H126.622V131.579H121.359V136.842Z" fill="#AA4E4C"/>
<path d="M10.8359 147.368H16.0994V142.104H10.8359V147.368Z" fill="#231F20"/>
<path d="M10.8359 121.051H16.0994V115.789H10.8359V121.051Z" fill="#AA4E4C"/>
<path d="M10.8359 136.842H16.0994V131.578H10.8359V136.842Z" fill="#AA4E4C"/>
<path d="M10.8359 131.578H16.0994V126.316H10.8359V131.578Z" fill="#AA4E4C"/>
<path d="M10.8359 126.316H16.0994V121.051H10.8359V126.316Z" fill="#AA4E4C"/>
<path d="M10.8359 142.104H16.0994V136.842H10.8359V142.104Z" fill="#AA4E4C"/>
<path d="M10.8359 84.2088H16.0994V78.9453H10.8359V84.2088Z" fill="#231F20"/>
<path d="M10.8359 78.9471H16.0994V73.6836H10.8359V78.9471Z" fill="#231F20"/>
<path d="M10.8359 89.4725H16.0994V84.2088H10.8359V89.4725Z" fill="#231F20"/>
<path d="M10.8359 68.4204H16.0994V63.1582H10.8359V68.4204Z" fill="#231F20"/>
<path d="M10.8359 73.6836H16.0994V68.4204H10.8359V73.6836Z" fill="#231F20"/>
<path d="M10.8359 110.526H16.0994V105.264H10.8359V110.526Z" fill="#231F20"/>
<path d="M10.8359 105.264H16.0994V100H10.8359V105.264Z" fill="#231F20"/>
<path d="M10.8359 94.7362H16.0994V89.4725H10.8359V94.7362Z" fill="#231F20"/>
<path d="M10.8359 115.789H16.0994V110.526H10.8359V115.789Z" fill="#D46C5B"/>
<path d="M10.8359 99.9985H16.0994V94.7362H10.8359V99.9985Z" fill="#231F20"/>
<path d="M95.043 168.42H100.306V163.156L95.0434 163.157L95.043 168.42Z" fill="#843539"/>
<path d="M89.7812 168.42H95.043L95.0434 163.157H89.7812V168.42Z" fill="#843539"/>
<path d="M84.5195 168.42H89.7843V163.157H84.5195V168.42Z" fill="#AA4E4C"/>
<path d="M100.309 168.42H105.572V163.156H100.309V168.42Z" fill="#231F20"/>
<path d="M79.2578 168.42H84.5213V163.157H79.2578V168.42Z" fill="#AA4E4C"/>
<path d="M73.9924 168.42H79.2559V163.157H73.9924V168.42Z" fill="#AA4E4C"/>
<path d="M116.098 168.42H121.361V163.156H116.098V168.42Z" fill="#231F20"/>
<path d="M110.836 168.42H116.099V163.156H110.836V168.42Z" fill="#AA4E4C"/>
<path d="M105.57 168.42H110.834V163.156H105.57V168.42Z" fill="#AA4E4C"/>
<path d="M37.1523 168.42H42.4158V163.157H37.1523V168.42Z" fill="#231F20"/>
<path d="M31.8867 168.42H37.1502V163.157H31.8867L31.8867 168.42Z" fill="#231F20"/>
<path d="M42.4141 168.42H47.6763L47.6758 163.157H42.4141V168.42Z" fill="#231F20"/>
<path d="M52.9414 168.42H58.2049V163.157H52.9414V168.42Z" fill="#843539"/>
<path d="M58.2031 168.42H63.4653V163.157H58.2031V168.42Z" fill="#AA4E4C"/>
<path d="M63.4653 168.42H68.727V163.157H63.4653V168.42Z" fill="#AA4E4C"/>
<path d="M47.6763 168.42H52.9393V163.157H47.6758L47.6763 168.42Z" fill="#843539"/>
<path d="M68.7305 168.42H73.994V163.157H68.7305V168.42Z" fill="#AA4E4C"/>
<path d="M110.836 105.264H116.099V100H110.836V105.264Z" fill="#231F20"/>
<path d="M110.836 115.789H116.099V110.525H110.836V115.789Z" fill="#231F20"/>
<path d="M16.0977 63.1582H21.3612V57.8945H16.0977V63.1582Z" fill="#231F20"/>
<path d="M110.836 121.051H116.099V115.789H110.836V121.051Z" fill="#231F20"/>
<path d="M110.836 131.579H116.099V126.316H110.836V131.579Z" fill="#231F20"/>
<path d="M110.836 126.316H116.099V121.051H110.836V126.316Z" fill="#231F20"/>
<path d="M110.836 84.2088H116.099V78.9453H110.836V84.2088Z" fill="#AA4E4C"/>
<path d="M110.836 99.9985H116.099V94.7363H110.836V99.9985Z" fill="#E7E3E2"/>
<path d="M110.836 89.4725H116.099V84.2088H110.836V89.4725Z" fill="#AA4E4C"/>
<path d="M110.836 78.9471H116.099V73.6836H110.836V78.9471Z" fill="#AA4E4C"/>
<path d="M110.836 94.7363H116.099V89.4725H110.836V94.7363Z" fill="#AA4E4C"/>
<path d="M105.57 163.156H110.834L110.834 157.894H105.57L105.57 163.156Z" fill="#231F20"/>
<path d="M100.309 163.156H105.572V157.894H100.309V163.156Z" fill="#231F20"/>
<path d="M110.836 163.156H116.099V157.895H110.836V163.156Z" fill="#231F20"/>
<path d="M95.0434 163.157L100.306 163.156V157.894H95.043L95.0434 163.157Z" fill="#843539"/>
<path d="M121.359 173.684H126.622V168.42H121.359V173.684Z" fill="#AA4E4C"/>
<path d="M110.836 142.104H116.099V136.842H110.836V142.104Z" fill="#E7E3E2"/>
<path d="M110.836 147.367H116.099V142.104H110.836V147.367Z" fill="#E7E3E2"/>
<path d="M110.836 157.895H116.099V152.631H110.836V157.895Z" fill="#231F20"/>
<path d="M110.836 136.842H116.099V131.579H110.836V136.842Z" fill="#231F20"/>
<path d="M110.836 110.525H116.099V105.264H110.836V110.525Z" fill="#7D3336"/>
<path d="M47.6758 63.1582H52.9393V57.8945H47.6758V63.1582Z" fill="white"/>
<path d="M42.4141 63.1582H47.6758V57.8945H42.4141V63.1582Z" fill="white"/>
<path d="M52.9414 63.1582H58.2049V57.8945H52.9414V63.1582Z" fill="white"/>
<path d="M68.7305 63.1581H73.994V57.8946H68.7305V63.1581Z" fill="white"/>
<path d="M63.4648 63.1582H68.727V57.8945H63.4648V63.1582Z" fill="#ECB276"/>
<path d="M58.2031 63.1582H63.4648V57.8945H58.2031V63.1582Z" fill="#ECB276"/>
<path d="M26.625 63.1582H31.8885V57.8945H26.625V63.1582Z" fill="#ECB276"/>
<path d="M37.1523 63.1582H42.4158V57.8945H37.1523V63.1582Z" fill="white"/>
<path d="M21.3594 63.1582H26.6216V57.8945H21.3594V63.1582Z" fill="#AA4E4C"/>
<path d="M31.8867 63.1581H37.1502V57.8946H31.8867V63.1581Z" fill="white"/>
<path d="M79.2578 63.1582H84.5213V57.8945H79.2578V63.1582Z" fill="white"/>
<path d="M110.836 63.158H116.099V57.8945H110.836V63.158Z" fill="#AA4E4C"/>
<path d="M100.309 63.1581H105.572V57.8946H100.309V63.1581Z" fill="#ECB276"/>
<path d="M73.9924 63.1581H79.2559V57.8946H73.9924V63.1581Z" fill="white"/>
<path d="M110.836 68.4204H116.099V63.158H110.836V68.4204Z" fill="#AA4E4C"/>
<path d="M105.57 63.1581H110.834V57.8946H105.57V63.1581Z" fill="#AA4E4C"/>
<path d="M95.0434 63.1582H100.306V57.8945H95.043L95.0434 63.1582Z" fill="white"/>
<path d="M110.836 73.6836H116.099V68.4204H110.836V73.6836Z" fill="#AA4E4C"/>
<path d="M84.5195 63.1582H89.7843V57.8945H84.5195V63.1582Z" fill="white"/>
<path d="M89.7812 63.1582H95.0434L95.043 57.8945H89.7812V63.1582Z" fill="white"/>
<path d="M110.836 152.631H116.099V147.367H110.836V152.631Z" fill="#B3AFAE"/>
<path d="M5.57422 126.316L10.8359 126.316V121.051L5.57422 121.051V126.316Z" fill="#AA4E4C"/>
<path d="M5.57422 131.579L10.8359 131.578V126.316L5.57422 126.316V131.579Z" fill="#AA4E4C"/>
<path d="M5.57422 136.842H10.8359V131.578L5.57422 131.579V136.842Z" fill="#231F20"/>
<path d="M5.57422 142.104L10.8359 142.104V136.842H5.57422V142.104Z" fill="#231F20"/>
<path d="M5.57422 121.051L10.8359 121.051V115.789H5.57422V121.051Z" fill="#AA4E4C"/>
<path d="M5.57422 110.526H10.8359V105.264H5.57422V110.526Z" fill="#231F20"/>
<path d="M5.57422 115.789H10.8359V110.526H5.57422V115.789Z" fill="#D46C5B"/>
<path d="M95.043 173.684H100.306V168.42H95.043V173.684Z" fill="#231F20"/>
<path d="M84.5195 173.684H89.7843V168.42H84.5195V173.684Z" fill="#843539"/>
<path d="M89.7812 173.684H95.043V168.42H89.7812V173.684Z" fill="#843539"/>
<path d="M79.2578 173.684H84.5213V168.42H79.2578V173.684Z" fill="#843539"/>
<path d="M73.9924 173.684H79.2559V168.42H73.9924V173.684Z" fill="#843539"/>
<path d="M110.836 173.684H116.099V168.42H110.836V173.684Z" fill="#AA4E4C"/>
<path d="M116.098 173.684H121.361V168.42H116.098V173.684Z" fill="#AA4E4C"/>
<path d="M68.7305 173.684H73.994V168.42H68.7305V173.684Z" fill="#843539"/>
<path d="M105.57 173.684H110.834V168.42H105.57V173.684Z" fill="#231F20"/>
<path d="M100.309 173.684H105.572L105.572 168.42H100.309L100.309 173.684Z" fill="#843539"/>
<path d="M58.2031 173.684H63.4653V168.42H58.2031V173.684Z" fill="#843539"/>
<path d="M52.9414 173.684H58.2049V168.42H52.9414V173.684Z" fill="#843539"/>
<path d="M63.4653 173.684H68.727V168.42H63.4653V173.684Z" fill="#843539"/>
<path d="M47.6758 173.684H52.9393V168.42H47.6763L47.6758 173.684Z" fill="#231F20"/>
<path d="M116.098 73.6834H121.361V68.4199H116.098V73.6834Z" fill="#231F20"/>
<path d="M116.098 78.9471H121.361V73.6834H116.098V78.9471Z" fill="#231F20"/>
<path d="M116.098 84.2088H121.361V78.9453H116.098V84.2088Z" fill="#231F20"/>
<path d="M116.098 94.7362H121.361V89.4727H116.098V94.7362Z" fill="#231F20"/>
<path d="M105.57 57.8946H110.834V52.6307H105.57V57.8946Z" fill="#AA4E4C"/>
<path d="M116.098 63.158H121.361V57.8945H116.098V63.158Z" fill="#231F20"/>
<path d="M116.098 68.4199H121.361V63.158H116.098V68.4199Z" fill="#231F20"/>
<path d="M110.836 57.8945H116.099V52.6307H110.836V57.8945Z" fill="#231F20"/>
<path d="M116.098 99.9985H121.361V94.7362H116.098V99.9985Z" fill="#231F20"/>
<path d="M116.098 89.4727H121.361V84.2088H116.098V89.4727Z" fill="#231F20"/>
<path d="M116.098 131.579H121.361V126.316H116.098V131.579Z" fill="#AA4E4C"/>
<path d="M116.098 142.104H121.361V136.842H116.098V142.104Z" fill="#231F20"/>
<path d="M116.098 136.842H121.361V131.579H116.098V136.842Z" fill="#AA4E4C"/>
<path d="M116.098 147.367H121.361V142.104H116.098V147.367Z" fill="#E7E3E2"/>
<path d="M116.098 115.789H121.361V110.525H116.098V115.789Z" fill="#AA4E4C"/>
<path d="M116.098 110.525H121.361V105.264H116.098V110.525Z" fill="#231F20"/>
<path d="M116.098 105.264H121.361V100H116.098V105.264Z" fill="#231F20"/>
<path d="M116.098 126.316H121.361V121.051H116.098V126.316Z" fill="#AA4E4C"/>
<path d="M116.098 121.051H121.361V115.789H116.098V121.051Z" fill="#AA4E4C"/>
<path d="M52.9414 57.8945H58.2049V52.6307H52.9414V57.8945Z" fill="#ECB276"/>
<path d="M26.625 57.8945H31.8885V52.6307H26.625V57.8945Z" fill="#AA4E4C"/>
<path d="M31.8867 57.8946H37.1502V52.6307H31.8867L31.8867 57.8946Z" fill="#ECB276"/>
<path d="M21.3594 57.8945H26.6216V52.6309L21.3598 52.6307L21.3594 57.8945Z" fill="#AA4E4C"/>
<path d="M37.1523 57.8945H42.4158V52.6307H37.1523V57.8945Z" fill="white"/>
<path d="M42.4141 57.8945H47.6758V52.6307H42.4141V57.8945Z" fill="white"/>
<path d="M47.6758 57.8945H52.9393V52.6307H47.6758V57.8945Z" fill="white"/>
<path d="M16.0977 57.8945H21.3612V52.6309L16.0977 52.6307V57.8945Z" fill="#231F20"/>
<path d="M116.098 152.631H121.361V147.367H116.098V152.631Z" fill="#231F20"/>
<path d="M58.2031 57.8945H63.4648V52.6307H58.2031V57.8945Z" fill="#7D3336"/>
<path d="M79.2578 57.8945H84.5213V52.6307H79.2578V57.8945Z" fill="white"/>
<path d="M84.5195 57.8945H89.7843V52.6307H84.5195V57.8945Z" fill="white"/>
<path d="M89.7812 57.8945H95.043L95.0434 52.6307H89.7812V57.8945Z" fill="white"/>
<path d="M95.043 57.8945H100.306V52.6307H95.0434L95.043 57.8945Z" fill="#ECB276"/>
<path d="M100.309 57.8946H105.572L105.572 52.6307H100.309L100.309 57.8946Z" fill="#AA4E4C"/>
<path d="M63.4648 57.8945L68.7283 57.8944V52.6309L63.4648 52.6307V57.8945Z" fill="#7D3336"/>
<path d="M68.7305 57.8946H73.994L73.994 52.6307H68.7305L68.7305 57.8946Z" fill="#ECB276"/>
<path d="M73.9924 57.8946H79.2559V52.6307H73.9924V57.8946Z" fill="white"/>
<path d="M110.836 10.5259H116.099V5.26367H110.836V10.5259Z" fill="#D46C5B"/>
<path d="M105.57 10.5257H110.834V5.26352H105.57V10.5257Z" fill="#231F20"/>
<path d="M116.098 10.5259H121.361V5.26367H116.098V10.5259Z" fill="#231F20"/>
<path d="M21.3594 10.5259H26.6216V5.26367H21.3594V10.5259Z" fill="#231F20"/>
<path d="M16.0977 10.5259H21.3612V5.26367H16.0977V10.5259Z" fill="#231F20"/>
<path d="M10.8364 15.7891H16.0994V10.5254H10.8359L10.8364 15.7891Z" fill="#231F20"/>
<path d="M21.3594 15.7891H26.6216V10.5259H21.3594V15.7891Z" fill="#D46C5B"/>
<path d="M16.0977 15.7891H21.3612V10.5259H16.0977V15.7891Z" fill="#D46C5B"/>
<path d="M26.625 15.7891H31.8885V10.5254H26.625V15.7891Z" fill="#231F20"/>
<path d="M116.098 15.7891H121.361V10.5259H116.098V15.7891Z" fill="#AA4E4C"/>
<path d="M121.359 15.7891H126.622V10.5254H121.359V15.7891Z" fill="#231F20"/>
<path d="M100.309 15.7892H105.572L105.572 10.5254H100.309L100.309 15.7892Z" fill="#231F20"/>
<path d="M110.836 15.7891H116.099V10.5259H110.836V15.7891Z" fill="#AA4E4C"/>
<path d="M105.57 15.7892H110.834V10.5257H105.57V15.7892Z" fill="#D46C5B"/>
<path d="M110.836 5.26367H116.099V0H110.836V5.26367Z" fill="#231F20"/>
</svg>
