<svg width="265" height="200" viewBox="0 0 265 200" fill="none" xmlns="http://www.w3.org/2000/svg">
<path d="M28.5703 199.999H35.7137V192.855H28.5703V199.999Z" fill="#231F20"/>
<path d="M21.4297 199.999H28.5703V192.855H21.4297V199.999Z" fill="#231F20"/>
<path d="M35.7151 200.001H42.8585V192.857H35.7151V200.001Z" fill="#231F20"/>
<path d="M142.859 199.999H150.003V192.855H142.859V199.999Z" fill="#231F20"/>
<path d="M135.715 200.001H142.858V192.857H135.715V200.001Z" fill="#231F20"/>
<path d="M150 200.001H157.145V192.857H150V200.001Z" fill="#231F20"/>
<path d="M42.8594 199.999H50.0027V192.855H42.8594V199.999Z" fill="#231F20"/>
<path d="M114.285 199.999H121.429V192.855H114.285V199.999Z" fill="#231F20"/>
<path d="M128.574 199.999H135.718V192.855H128.574V199.999Z" fill="#231F20"/>
<path d="M171.43 199.999H178.571V192.855H171.43V199.999Z" fill="#231F20"/>
<path d="M157.145 199.999H164.286V192.855H157.145V199.999Z" fill="#231F20"/>
<path d="M164.286 199.999H171.429V192.855H164.286V199.999Z" fill="#231F20"/>
<path d="M121.43 199.999H128.573V192.855H121.43V199.999Z" fill="#231F20"/>
<path d="M178.571 199.999H185.715V192.855H178.571V199.999Z" fill="#231F20"/>
<path d="M64.2852 199.999H71.4285V192.855H64.2852V199.999Z" fill="#231F20"/>
<path d="M107.145 199.999H114.288V192.855H107.145V199.999Z" fill="#231F20"/>
<path d="M57.1445 199.999H64.2879V192.855H57.1445V199.999Z" fill="#231F20"/>
<path d="M71.4297 192.855V199.999H78.5713V192.855H71.4297Z" fill="#231F20"/>
<path d="M50 199.999H57.1416V192.855H50V199.999Z" fill="#231F20"/>
<path d="M78.5713 199.999H85.7137V192.855H78.5713V199.999Z" fill="#231F20"/>
<path d="M92.8594 199.999H100.003V192.855H92.8594V199.999Z" fill="#231F20"/>
<path d="M100 199.999H107.142V192.855H100V199.999Z" fill="#231F20"/>
<path d="M85.7151 200.001H92.8585V192.857H85.7151V200.001Z" fill="#231F20"/>
<path d="M185.715 199.999H192.856V192.855H185.715V199.999Z" fill="#231F20"/>
<path d="M192.859 199.999H200.003V192.855H192.859V199.999Z" fill="#231F20"/>
<path d="M192.859 121.429H200.003V114.285H192.859V121.429Z" fill="#231F20"/>
<path d="M192.859 128.571H200.003V121.43H192.859V128.571Z" fill="#40BB6A"/>
<path d="M192.859 178.571H200.003V171.43H192.859V178.571Z" fill="#03642F"/>
<path d="M192.859 185.714H200.003V178.571H192.859V185.714Z" fill="#231F20"/>
<path d="M192.859 192.855H200.003V185.714H192.859V192.855Z" fill="#6161B6"/>
<path d="M192.859 171.429H200.003V164.285H192.859V171.429Z" fill="#231F20"/>
<path d="M192.859 164.284H200.003V157.141H192.859V164.284Z" fill="#231F20"/>
<path d="M192.859 149.999H200.003V142.855H192.859V149.999Z" fill="#231F20"/>
<path d="M192.859 142.855H200.003V135.713H192.859V142.855Z" fill="#231F20"/>
<path d="M192.859 135.713H200.003V128.571H192.859V135.713Z" fill="#231F20"/>
<path d="M192.859 157.141H200.003V150H192.859V157.141Z" fill="#231F20"/>
<path d="M114.285 185.714H121.429V178.57H114.285V185.714Z" fill="#058642"/>
<path d="M78.5703 185.714H85.7137V178.57H78.5703V185.714Z" fill="#058642"/>
<path d="M85.7148 185.714H92.8582V178.57H85.7148V185.714Z" fill="#058642"/>
<path d="M92.8594 185.714H100.003V178.57H92.8594V185.714Z" fill="#058642"/>
<path d="M135.715 185.714H142.858V178.57H135.715V185.714Z" fill="#231F20"/>
<path d="M57.1445 185.714H64.2879V178.57H57.1445V185.714Z" fill="#058642"/>
<path d="M64.2852 185.714H71.4285V178.57H64.2852V185.714Z" fill="#058642"/>
<path d="M121.43 185.714H128.573V178.57H121.43V185.714Z" fill="#03642F"/>
<path d="M128.574 185.714H135.718V178.57H128.574V185.714Z" fill="#231F20"/>
<path d="M100 185.714H107.142V178.57H100V185.714Z" fill="#058642"/>
<path d="M107.145 185.714H114.288V178.57H107.145V185.714Z" fill="#058642"/>
<path d="M71.4297 185.714H78.5703V178.57H71.4297V185.714Z" fill="#058642"/>
<path d="M50 185.714H57.1416V178.57H50V185.714Z" fill="#058642"/>
<path d="M42.8594 185.714H50.0027V178.57H42.8594V185.714Z" fill="#03642F"/>
<path d="M35.7148 185.714H42.8582V178.57H35.7148V185.714Z" fill="#231F20"/>
<path d="M28.5703 185.714H35.7137V178.57H28.5703V185.714Z" fill="#231F20"/>
<path d="M178.57 178.571H185.715V171.43H178.57V178.571Z" fill="#80BD20"/>
<path d="M178.57 121.429H185.715V114.285H178.57V121.429Z" fill="#231F20"/>
<path d="M178.57 128.571H185.715V121.43H178.57V128.571Z" fill="#CCE53F"/>
<path d="M178.57 142.856H185.715V135.713H178.57V142.856Z" fill="#B2DB18"/>
<path d="M178.57 149.999H185.715V142.856H178.57V149.999Z" fill="#B2DB18"/>
<path d="M142.875 185.714H150.017V178.57H142.875V185.714Z" fill="#231F20"/>
<path d="M178.57 135.713H185.715V128.571H178.57V135.713Z" fill="#FFF200"/>
<path d="M164.285 185.714H171.429V178.57H164.285V185.714Z" fill="#80BD20"/>
<path d="M157.145 185.714H164.285V178.57H157.145V185.714Z" fill="#80BD20"/>
<path d="M149.938 185.714H157.083V178.57H149.938V185.714Z" fill="#459627"/>
<path d="M171.43 185.714H178.571V178.57H171.43V185.714Z" fill="#80BD20"/>
<path d="M178.57 157.142H185.715V150H178.57V157.142Z" fill="#B2DB18"/>
<path d="M178.57 171.429H185.715V164.285H178.57V171.429Z" fill="#B2DB18"/>
<path d="M178.57 164.284H185.715V157.142H178.57V164.284Z" fill="#B2DB18"/>
<path d="M178.571 185.714H185.715V178.571H178.57L178.571 185.714Z" fill="#459627"/>
<path d="M185.715 164.284H192.856V157.141H185.715L185.715 164.284Z" fill="#B2DB18"/>
<path d="M185.715 157.141H192.856V150H185.715L185.715 157.141Z" fill="#B2DB18"/>
<path d="M185.715 178.571H192.856V171.43H185.715V178.571Z" fill="#231F20"/>
<path d="M185.715 171.429H192.856V164.285H185.715V171.429Z" fill="#80BD20"/>
<path d="M185.715 185.714H192.856V178.571L185.715 178.57L185.715 185.714Z" fill="#231F20"/>
<path d="M185.715 149.999H192.856V142.855L185.715 142.856V149.999Z" fill="#B2DB18"/>
<path d="M185.715 128.571H192.856V121.43H185.715V128.571Z" fill="#231F20"/>
<path d="M185.715 121.429H192.856V114.285H185.715V121.429Z" fill="#231F20"/>
<path d="M121.43 192.855H128.573V185.714H121.43V192.855Z" fill="#231F20"/>
<path d="M185.715 192.855H192.856V185.714H185.715V192.855Z" fill="#6161B6"/>
<path d="M135.715 192.856H142.858V185.714H135.715V192.856Z" fill="#6161B6"/>
<path d="M150 192.856L157.145 192.855V185.714L150 185.713V192.856Z" fill="#231F20"/>
<path d="M142.859 192.855H150.003V185.713H142.859V192.855Z" fill="#6161B6"/>
<path d="M128.574 192.855H135.718V185.714H128.574V192.855Z" fill="#6161B6"/>
<path d="M164.285 192.856L171.429 192.855V185.714H164.285V192.856Z" fill="#459627"/>
<path d="M171.43 192.855H178.571V185.714H171.43V192.855Z" fill="#459627"/>
<path d="M178.57 192.856L185.715 192.855V185.714L178.57 185.713V192.856Z" fill="#231F20"/>
<path d="M157.145 192.855H164.286V185.713L157.145 185.714V192.855Z" fill="#459627"/>
<path d="M185.715 142.856L192.856 142.855V135.713H185.715V142.856Z" fill="#B2DB18"/>
<path d="M185.715 135.713H192.856V128.571L185.715 128.57L185.715 135.713Z" fill="#CCE53F"/>
<path d="M78.5703 192.856L85.7137 192.855V185.714H78.5703V192.856Z" fill="#03642F"/>
<path d="M42.8594 192.855H50.0027V185.714H42.8594V192.855Z" fill="#231F20"/>
<path d="M114.285 192.855H121.429V185.714H114.285V192.855Z" fill="#03642F"/>
<path d="M71.4297 192.855H78.5713V185.713L71.4297 185.714V192.855Z" fill="#03642F"/>
<path d="M57.1445 192.855H64.2879V185.714H57.1445V192.855Z" fill="#03642F"/>
<path d="M50 192.855H57.1416V185.714H50V192.855Z" fill="#03642F"/>
<path d="M64.2852 192.855H71.4285V185.714H64.2852V192.855Z" fill="#03642F"/>
<path d="M100 192.855H107.142V185.714H100V192.855Z" fill="#03642F"/>
<path d="M107.145 192.855H114.288V185.714H107.145V192.855Z" fill="#03642F"/>
<path d="M85.7148 192.856H92.8582V185.714H85.7148V192.856Z" fill="#03642F"/>
<path d="M92.8594 192.855H100.003V185.714H92.8594V192.855Z" fill="#03642F"/>
<path d="M28.5703 192.855H35.7137V185.714H28.5703V192.855Z" fill="#6161B6"/>
<path d="M21.4297 192.855L28.5713 192.856V185.713H21.4297V192.855Z" fill="#231F20"/>
<path d="M35.7148 192.856H42.8582V185.714H35.7148V192.856Z" fill="#6161B6"/>
<path d="M207.145 171.429H214.29V164.285H207.145V171.429Z" fill="#18A755"/>
<path d="M207.145 164.284H214.29V157.141H207.145V164.284Z" fill="#18A755"/>
<path d="M207.145 185.714H214.29V178.57H207.145V185.714Z" fill="#058642"/>
<path d="M207.145 157.141H214.29V150H207.145V157.141Z" fill="#FFF200"/>
<path d="M207.145 142.856H214.29V135.713H207.145V142.856Z" fill="#FFF200"/>
<path d="M207.145 128.571H214.29V121.43H207.145V128.571Z" fill="#231F20"/>
<path d="M207.145 135.713H214.29V128.571H207.145V135.713Z" fill="#40BB6A"/>
<path d="M207.145 192.856H214.29V185.714H207.145V192.856Z" fill="#03642F"/>
<path d="M207.145 149.999H214.29V142.856H207.145V149.999Z" fill="#ED1E24"/>
<path d="M207.145 178.57H214.29V171.43H207.145V178.57Z" fill="#18A755"/>
<path d="M207.145 199.999H214.29V192.856H207.145V199.999Z" fill="#231F20"/>
<path d="M214.29 135.713L221.431 135.714V128.57H214.289L214.29 135.713Z" fill="#231F20"/>
<path d="M214.289 150.001H221.43V142.857H214.289V150.001Z" fill="#FFF200"/>
<path d="M214.289 157.142H221.431L221.43 150.001H214.289L214.289 157.142Z" fill="#ED1E24"/>
<path d="M214.29 142.856H221.431V135.714L214.29 135.713V142.856Z" fill="#40BB6A"/>
<path d="M214.29 192.856H221.431V185.713L214.29 185.714V192.856Z" fill="#03642F"/>
<path d="M214.289 200.001H221.43V192.857H214.289V200.001Z" fill="#231F20"/>
<path d="M214.29 171.429L221.431 171.428V164.285L214.29 164.285V171.429Z" fill="#18A755"/>
<path d="M214.289 178.571H221.431V171.43H214.29L214.289 178.571Z" fill="#18A755"/>
<path d="M214.29 164.284L221.431 164.285V157.142H214.289L214.29 164.284Z" fill="#FFF200"/>
<path d="M214.29 185.714L221.431 185.713V178.571H214.289L214.29 185.714Z" fill="#058642"/>
<path d="M200 128.571H207.142V121.43H200V128.571Z" fill="#231F20"/>
<path d="M200 178.571H207.142V171.43H200V178.571Z" fill="#058642"/>
<path d="M200 185.714H207.142V178.571H200V185.714Z" fill="#03642F"/>
<path d="M200 135.714H207.142V128.571H200V135.714Z" fill="#40BB6A"/>
<path d="M200 192.856H207.142V185.714H200V192.856Z" fill="#231F20"/>
<path d="M200 199.999H207.142V192.856H200V199.999Z" fill="#231F20"/>
<path d="M200 164.284H207.142V157.141H200V164.284Z" fill="#18A755"/>
<path d="M200 142.856H207.142V135.714H200V142.856Z" fill="#18A755"/>
<path d="M200 149.999H207.142V142.856H200V149.999Z" fill="#FFF200"/>
<path d="M200 157.141H207.142V150H200V157.141Z" fill="#18A755"/>
<path d="M200 171.429H207.142V164.285H200V171.429Z" fill="#18A755"/>
<path d="M85.715 121.428H92.8584V114.285H85.715V121.428Z" fill="#B2DB18"/>
<path d="M135.715 114.284H142.858V107.141H135.715V114.284Z" fill="#18A755"/>
<path d="M135.715 107.141H142.858L142.858 100H135.715L135.715 107.141Z" fill="#FFF200"/>
<path d="M135.715 121.428H142.858L142.858 114.284H135.715L135.715 121.428Z" fill="#18A755"/>
<path d="M135.715 100H142.858L142.858 92.8574H135.715L135.715 100Z" fill="#40BB6A"/>
<path d="M135.715 128.571H142.858V121.43H135.715V128.571Z" fill="#18A755"/>
<path d="M135.715 92.8563H142.858V85.7129H135.715V92.8563Z" fill="#231F20"/>
<path d="M28.5703 57.1414H35.7137V49.998H28.5703V57.1414Z" fill="#CCE53F"/>
<path d="M28.5703 78.5691H35.7137V71.4258H28.5703V78.5691Z" fill="#B2DB18"/>
<path d="M28.5703 85.7137H35.7137V78.5703H28.5703V85.7137Z" fill="#B2DB18"/>
<path d="M28.5703 92.8563H35.7137V85.7137H28.5703V92.8563Z" fill="#E5ED39"/>
<path d="M28.5703 71.4285H35.7137V64.2852H28.5703V71.4285Z" fill="#B2DB18"/>
<path d="M28.5703 64.284H35.7137V57.1414H28.5703V64.284Z" fill="#B2DB18"/>
<path d="M28.5703 99.9988H35.7137V92.8563H28.5703V99.9988Z" fill="#B2DB18"/>
<path d="M28.5703 114.284H35.7137V107.141H28.5703V114.284Z" fill="#B2DB18"/>
<path d="M28.5703 121.429H35.7137V114.285H28.5703V121.429Z" fill="#B2DB18"/>
<path d="M28.5703 107.141H35.7137V100H28.5703V107.141Z" fill="#B2DB18"/>
<path d="M135.715 135.714H142.858V128.571H135.715V135.714Z" fill="#18A755"/>
<path d="M28.5703 49.998H35.7137V42.8555H28.5703V49.998Z" fill="#231F20"/>
<path d="M71.4297 35.7137H78.5713V28.5703H71.4297V35.7137Z" fill="#231F20"/>
<path d="M35.7148 35.7137H42.8582V28.5703H35.7148V35.7137Z" fill="#231F20"/>
<path d="M35.7148 135.712H42.8582V128.57H35.7148V135.712Z" fill="#80BD20"/>
<path d="M35.7151 49.999H42.8585V42.8574H35.7151V49.999Z" fill="#CCE53F"/>
<path d="M35.7148 42.8563H42.8582V35.7137H35.7148V42.8563Z" fill="#231F20"/>
<path d="M50 42.8563H57.1416V35.7129H50V42.8563Z" fill="#231F20"/>
<path d="M42.8594 42.8563H50.0027V35.7129H42.8594V42.8563Z" fill="#231F20"/>
<path d="M35.715 57.1416H42.8584L42.8585 49.999H35.7151L35.715 57.1416Z" fill="#B2DB18"/>
<path d="M35.7148 85.7137H42.8582V78.5703H35.7148V85.7137Z" fill="#231F20"/>
<path d="M57.1445 42.8563H64.2879V35.7129H57.1445V42.8563Z" fill="#231F20"/>
<path d="M35.7148 92.8563H42.8582V85.7137H35.7148V92.8563Z" fill="#E5ED39"/>
<path d="M35.715 71.4283H42.8584V64.2849H35.715V71.4283Z" fill="#B2DB18"/>
<path d="M35.715 64.2849H42.8584V57.1416H35.715V64.2849Z" fill="#B2DB18"/>
<path d="M35.7151 78.5691H42.8585V71.4258H35.7151V78.5691Z" fill="#231F20"/>
<path d="M135.715 142.856H142.858V135.714H135.715V142.856Z" fill="#18A755"/>
<path d="M64.2852 42.8563H71.4285V35.7129H64.2852V42.8563Z" fill="#231F20"/>
<path d="M71.4297 42.8563H78.5713V35.7137H71.4297V42.8563Z" fill="#231F20"/>
<path d="M78.5713 42.8563H85.7137V35.7129H78.5703L78.5713 42.8563Z" fill="#231F20"/>
<path d="M85.7148 42.8563H92.8582V35.7129H85.7148V42.8563Z" fill="#231F20"/>
<path d="M92.8594 142.856H100.003V135.713H92.8594V142.856Z" fill="#18A755"/>
<path d="M100 142.856H107.142V135.713H100V142.856Z" fill="#18A755"/>
<path d="M64.2852 142.856H71.4285V135.713H64.2852V142.856Z" fill="#231F20"/>
<path d="M71.4297 135.713V142.856H78.5713V135.713H71.4297Z" fill="#231F20"/>
<path d="M78.5713 142.856H85.7137V135.713H78.5713V142.856Z" fill="#231F20"/>
<path d="M35.7151 100.001H42.8585V92.8574H35.7151V100.001Z" fill="#B2DB18"/>
<path d="M128.574 142.856H135.718V135.713H128.574V142.856Z" fill="#18A755"/>
<path d="M107.145 142.856H114.288V135.713H107.145V142.856Z" fill="#18A755"/>
<path d="M121.43 142.856H128.573V135.713H121.43V142.856Z" fill="#18A755"/>
<path d="M114.285 142.856H121.429V135.713H114.285V142.856Z" fill="#18A755"/>
<path d="M85.7148 142.856H92.8582V135.713H85.7148V142.856Z" fill="#058642"/>
<path d="M35.7151 114.284H42.8585V107.141H35.7151V114.284Z" fill="#B2DB18"/>
<path d="M35.715 121.428H42.8584L42.8585 114.284H35.7151L35.715 121.428Z" fill="#B2DB18"/>
<path d="M35.7151 107.141H42.8585V100.001H35.7151V107.141Z" fill="#B2DB18"/>
<path d="M35.7148 128.57H42.8582V121.43H35.7148V128.57Z" fill="#B2DB18"/>
<path d="M42.8594 142.856H50.0027V135.713H42.8594V142.856Z" fill="#231F20"/>
<path d="M50 142.856H57.1416V135.713H50V142.856Z" fill="#231F20"/>
<path d="M28.5703 128.571H35.7137V121.43H28.5703V128.571Z" fill="#B2DB18"/>
<path d="M57.1445 142.856H64.2879V135.713H57.1445V142.856Z" fill="#231F20"/>
<path d="M42.8594 135.713H50.0027V128.57H42.8594V135.713Z" fill="#80BD20"/>
<path d="M21.4297 57.1414H28.5703V49.998H21.4297V57.1414Z" fill="#231F20"/>
<path d="M21.4297 64.284H28.5703L28.5713 57.1406L21.4297 57.1414V64.284Z" fill="#CCE53F"/>
<path d="M21.4297 71.4285H28.5703V64.2852H21.4297V71.4285Z" fill="#B2DB18"/>
<path d="M21.4297 92.8563H28.5731V85.7129H21.4297V92.8563Z" fill="#B2DB18"/>
<path d="M21.4297 85.7129L28.5703 85.7137V78.5703H21.4297V85.7129Z" fill="#B2DB18"/>
<path d="M21.4297 78.5691H28.5703V71.4258H21.4297V78.5691Z" fill="#B2DB18"/>
<path d="M71.4297 28.5703H78.5713V21.4297H71.4297V28.5703Z" fill="#231F20"/>
<path d="M21.4297 99.9988H28.5703L28.5713 92.8555L21.4297 92.8563V99.9988Z" fill="#B2DB18"/>
<path d="M28.5703 28.5713H35.7137V21.4297H28.5703V28.5713Z" fill="#231F20"/>
<path d="M71.4297 150V157.142H78.5713V150H71.4297Z" fill="#18A755"/>
<path d="M64.2852 157.142H71.4285V150H64.2852V157.142Z" fill="#18A755"/>
<path d="M57.1445 157.142H64.2879V150H57.1445V157.142Z" fill="#18A755"/>
<path d="M78.5713 157.142H85.7137V150H78.5713V157.142Z" fill="#18A755"/>
<path d="M42.8594 157.142H50.0027V150H42.8594V157.142Z" fill="#18A755"/>
<path d="M50 157.142H57.1416V150H50V157.142Z" fill="#18A755"/>
<path d="M85.715 157.142H92.8584V150H85.715V157.142Z" fill="#18A755"/>
<path d="M100 157.142H107.142V150H100V157.142Z" fill="#18A755"/>
<path d="M107.145 157.142H114.288V150H107.145V157.142Z" fill="#18A755"/>
<path d="M92.8584 157.142L100.003 157.142V150L92.8584 150V157.142Z" fill="#18A755"/>
<path d="M28.5703 157.142H35.7137V150H28.5703V157.142Z" fill="#231F20"/>
<path d="M21.4297 128.571H28.5703V121.43H21.4297V128.571Z" fill="#B2DB18"/>
<path d="M21.4297 121.429H28.5703V114.285H21.4297V121.429Z" fill="#B2DB18"/>
<path d="M21.4297 135.712H28.5713V128.57L21.4297 128.571V135.712Z" fill="#80BD20"/>
<path d="M21.4297 114.284H28.5703V107.141H21.4297V114.284Z" fill="#B2DB18"/>
<path d="M35.715 157.142L42.8594 157.142V150L35.715 150V157.142Z" fill="#18A755"/>
<path d="M21.4297 142.856H28.5713V135.712H21.4297V142.856Z" fill="#231F20"/>
<path d="M21.4297 107.141L28.5713 107.142L28.5703 100H21.4297V107.141Z" fill="#B2DB18"/>
<path d="M28.5703 149.999H35.7137V142.855H28.5703V149.999Z" fill="#231F20"/>
<path d="M128.574 149.999H135.718V142.856H128.574V149.999Z" fill="#18A755"/>
<path d="M85.715 150H92.8584L92.8585 142.857H85.7151L85.715 150Z" fill="#18A755"/>
<path d="M107.145 149.999H114.288V142.856H107.145V149.999Z" fill="#18A755"/>
<path d="M121.43 149.999H128.573V142.856H121.43V149.999Z" fill="#18A755"/>
<path d="M92.8594 149.999H100.003V142.856H92.8594V149.999Z" fill="#18A755"/>
<path d="M100 149.999H107.142V142.856H100V149.999Z" fill="#18A755"/>
<path d="M114.285 149.999H121.429V142.856H114.285V149.999Z" fill="#18A755"/>
<path d="M142.859 149.999H150.003V142.855H142.859V149.999Z" fill="#058642"/>
<path d="M142.859 142.855H150.003V135.713H142.859V142.855Z" fill="#18A755"/>
<path d="M135.715 150.001H142.858V142.857H135.715V150.001Z" fill="#18A755"/>
<path d="M28.5713 135.712H35.7137V128.571H28.5703L28.5713 135.712Z" fill="#80BD20"/>
<path d="M142.859 135.713H150.003V128.57H142.859V135.713Z" fill="#18A755"/>
<path d="M42.8594 149.999H50.0027V142.856H42.8594V149.999Z" fill="#058642"/>
<path d="M35.7148 142.856H42.8582V135.712H35.7148V142.856Z" fill="#231F20"/>
<path d="M35.715 150L42.8585 150.001V142.857H35.7151L35.715 150Z" fill="#058642"/>
<path d="M28.5703 142.855H35.7137V135.712L28.5703 135.713V142.855Z" fill="#231F20"/>
<path d="M78.5703 149.999H85.7137V142.856L78.5703 142.855V149.999Z" fill="#058642"/>
<path d="M50 149.999H57.1416V142.856H50V149.999Z" fill="#058642"/>
<path d="M71.4297 142.856V149.999H78.5703L78.5713 142.856H71.4297Z" fill="#058642"/>
<path d="M64.2852 149.999H71.4285V142.856H64.2852V149.999Z" fill="#058642"/>
<path d="M57.1445 149.999H64.2879V142.856H57.1445V149.999Z" fill="#058642"/>
<path d="M142.859 128.57H150.003V121.43H142.859V128.57Z" fill="#18A755"/>
<path d="M142.858 114.284H150.003V107.141H142.858V114.284Z" fill="#18A755"/>
<path d="M142.859 107.142L150.003 107.141V100L142.858 100L142.859 107.142Z" fill="#40BB6A"/>
<path d="M142.859 121.429H150.003V114.285H142.859V121.429Z" fill="#18A755"/>
<path d="M142.859 99.9988H150.003V92.8555H142.859V99.9988Z" fill="#231F20"/>
<path d="M92.8594 99.9988H100.003V92.8555H92.8594V99.9988Z" fill="#B2DB18"/>
<path d="M57.1445 64.284H64.2879V57.1406H57.1445V64.284Z" fill="#B2DB18"/>
<path d="M57.1445 71.4285H64.2879V64.2852H57.1445V71.4285Z" fill="#B2DB18"/>
<path d="M57.1445 114.284H64.2879V107.141H57.1445V114.284Z" fill="#B2DB18"/>
<path d="M64.2852 64.284H71.4285V57.1406H64.2852V64.284Z" fill="#B2DB18"/>
<path d="M71.4297 64.284H78.5713V57.1406H71.4297V64.284Z" fill="#B2DB18"/>
<path d="M57.1445 78.5691H64.2879V71.4258H57.1445V78.5691Z" fill="#231F20"/>
<path d="M57.1445 85.7137H64.2879V78.5703H57.1445V85.7137Z" fill="#231F20"/>
<path d="M57.1445 99.9988H64.2879V92.8555H57.1445V99.9988Z" fill="#B2DB18"/>
<path d="M57.1445 107.141H64.2879V100H57.1445V107.141Z" fill="#B2DB18"/>
<path d="M57.1445 92.8555H64.2879V85.7137H57.1445V92.8555Z" fill="#E5ED39"/>
<path d="M78.5713 64.284H85.7137V57.1406H78.5713V64.284Z" fill="#B2DB18"/>
<path d="M107.145 85.7137H114.288V78.5703H107.145V85.7137Z" fill="#231F20"/>
<path d="M85.7151 64.284H92.8585V57.1406H85.7151V64.284Z" fill="#B2DB18"/>
<path d="M107.145 92.8563H114.288V85.7137H107.145V92.8563Z" fill="#231F20"/>
<path d="M107.145 107.142H114.288V100H107.145V107.142Z" fill="#231F20"/>
<path d="M107.145 99.9988H114.288V92.8563H107.145V99.9988Z" fill="#231F20"/>
<path d="M107.145 78.5691H114.288V71.4258H107.145V78.5691Z" fill="#231F20"/>
<path d="M92.8585 64.284H100.003V57.1406H92.8585V64.284Z" fill="#B2DB18"/>
<path d="M100 64.284H107.143V57.1406H100V64.284Z" fill="#231F20"/>
<path d="M107.145 71.4285H114.288V64.2852H107.145V71.4285Z" fill="#231F20"/>
<path d="M114.285 99.9988H121.429V92.8555H114.285V99.9988Z" fill="#FFF200"/>
<path d="M114.285 85.7137H121.429V78.5703H114.285V85.7137Z" fill="#40BB6A"/>
<path d="M114.285 78.5691H121.429V71.4258H114.285V78.5691Z" fill="#231F20"/>
<path d="M114.285 92.8555H121.429V85.7137H114.285V92.8555Z" fill="#18A755"/>
<path d="M107.145 114.284H114.288V107.142H107.145V114.284Z" fill="#231F20"/>
<path d="M64.2852 114.284H71.4285V107.141H64.2852V114.284Z" fill="#B2DB18"/>
<path d="M100 57.1406H107.143V49.998H100V57.1406Z" fill="#231F20"/>
<path d="M78.5703 121.429H85.7137V114.285H78.5703V121.429Z" fill="#B2DB18"/>
<path d="M71.4297 114.285V121.429H78.5703V114.285H71.4297Z" fill="#B2DB18"/>
<path d="M64.2852 121.429H71.4285V114.285H64.2852V121.429Z" fill="#231F20"/>
<path d="M114.285 114.284H121.429V107.141H114.285V114.284Z" fill="#18A755"/>
<path d="M107.145 121.429H114.288V114.285H107.145V121.429Z" fill="#231F20"/>
<path d="M114.285 121.429H121.429V114.285H114.285V121.429Z" fill="#18A755"/>
<path d="M100 121.429H107.142V114.285H100V121.429Z" fill="#80BD20"/>
<path d="M92.8584 121.428L100.003 121.429V114.285L92.8584 114.285V121.428Z" fill="#80BD20"/>
<path d="M100 114.284H107.142V107.141H100V114.284Z" fill="#80BD20"/>
<path d="M71.4297 92.8563H78.5713V85.7129H71.4297V92.8563Z" fill="#B2DB18"/>
<path d="M71.4297 85.7129H78.5713V78.5703H71.4297V85.7129Z" fill="#B2DB18"/>
<path d="M92.8594 57.1414L100.003 57.1406V49.998H92.8594V57.1414Z" fill="#CCE53F"/>
<path d="M71.4297 78.5691H78.5713V71.4258H71.4297V78.5691Z" fill="#B2DB18"/>
<path d="M71.4297 99.9988H78.5713V92.8563H71.4297V99.9988Z" fill="#B2DB18"/>
<path d="M85.7151 78.5691H92.8585V71.4258H85.7151V78.5691Z" fill="#B2DB18"/>
<path d="M92.8594 107.142H100.003V100H92.8594V107.142Z" fill="#B2DB18"/>
<path d="M100 107.141H107.142V100H100V107.141Z" fill="#B2DB18"/>
<path d="M85.715 107.142L92.8594 107.142V100L85.715 100V107.142Z" fill="#B2DB18"/>
<path d="M78.5703 107.142H85.7137V100H78.5703V107.142Z" fill="#B2DB18"/>
<path d="M78.5713 99.9988H85.7137V92.8555H78.5703L78.5713 99.9988Z" fill="#B2DB18"/>
<path d="M85.7148 92.8563H92.8582V85.7129H85.7148V92.8563Z" fill="#B2DB18"/>
<path d="M78.5703 92.8555H85.7137V85.7129H78.5713L78.5703 92.8555Z" fill="#B2DB18"/>
<path d="M78.5703 85.7137L85.7137 85.7129V78.5703H78.5713L78.5703 85.7137Z" fill="#B2DB18"/>
<path d="M85.7148 85.7129H92.8582V78.5703H85.7148V85.7129Z" fill="#B2DB18"/>
<path d="M92.8585 78.5691H100.003V71.4258H92.8585V78.5691Z" fill="#B2DB18"/>
<path d="M92.8594 92.8555H100.003V85.7129H92.8594V92.8555Z" fill="#B2DB18"/>
<path d="M85.715 100L92.8585 100.001V92.8574H85.7151L85.715 100Z" fill="#B2DB18"/>
<path d="M92.8594 85.7129H100.003V78.5703H92.8594V85.7129Z" fill="#B2DB18"/>
<path d="M114.285 157.142H121.429V150H114.285V157.142Z" fill="#18A755"/>
<path d="M78.5713 78.5691H85.7137V71.4258H78.5713V78.5691Z" fill="#B2DB18"/>
<path d="M64.2852 99.9988H71.4285V92.8555H64.2852V99.9988Z" fill="#B2DB18"/>
<path d="M71.4297 107.142H78.5703V100H71.4297V107.142Z" fill="#B2DB18"/>
<path d="M64.2852 107.141H71.4285V100H64.2852V107.141Z" fill="#B2DB18"/>
<path d="M64.2852 92.8555H71.4285V85.7129H64.2852V92.8555Z" fill="#E5ED39"/>
<path d="M64.2852 85.7129H71.4285V78.5703H64.2852V85.7129Z" fill="#B2DB18"/>
<path d="M71.4297 114.284H78.5713V107.141L71.4297 107.142V114.284Z" fill="#231F20"/>
<path d="M85.715 114.285H92.8584L92.8585 107.141L85.715 107.142V114.285Z" fill="#B2DB18"/>
<path d="M92.8594 114.284H100.003V107.142H92.8594V114.284Z" fill="#B2DB18"/>
<path d="M64.2852 78.5691H71.4285V71.4258H64.2852V78.5691Z" fill="#B2DB18"/>
<path d="M78.5713 114.284H85.7137V107.142H78.5703L78.5713 114.284Z" fill="#B2DB18"/>
<path d="M85.715 71.4283H92.8584L92.8585 64.284H85.7151L85.715 71.4283Z" fill="#B2DB18"/>
<path d="M100 71.4285H107.143V64.2852H100V71.4285Z" fill="#CCE53F"/>
<path d="M100 85.7137H107.142V78.5703H100V85.7137Z" fill="#B2DB18"/>
<path d="M100 78.5691H107.142V71.4258H100V78.5691Z" fill="#B2DB18"/>
<path d="M100 92.8563H107.142V85.7137H100V92.8563Z" fill="#B2DB18"/>
<path d="M78.5703 71.4285H85.7137V64.2852H78.5703V71.4285Z" fill="#B2DB18"/>
<path d="M71.4297 71.4285H78.5703V64.2852H71.4297V71.4285Z" fill="#B2DB18"/>
<path d="M64.2852 71.4285H71.4285V64.2852H64.2852V71.4285Z" fill="#B2DB18"/>
<path d="M92.8584 71.4283L100.003 71.4285V64.2852H92.8594L92.8584 71.4283Z" fill="#B2DB18"/>
<path d="M100 99.9988H107.142V92.8563H100V99.9988Z" fill="#B2DB18"/>
<path d="M114.285 107.141H121.429V100H114.285V107.141Z" fill="#18A755"/>
<path d="M42.8585 114.284H50.0027V107.141H42.8585V114.284Z" fill="#231F20"/>
<path d="M42.8594 107.142L50.0027 107.141V100H42.8594V107.142Z" fill="#B2DB18"/>
<path d="M42.8584 121.428L50.0027 121.429V114.285H42.8594L42.8584 121.428Z" fill="#B2DB18"/>
<path d="M42.8594 99.9988H50.0027V92.8555H42.8594V99.9988Z" fill="#B2DB18"/>
<path d="M42.8594 92.8555H50.0027V85.7129H42.8594V92.8555Z" fill="#B2DB18"/>
<path d="M50 135.713H57.1416V128.57H50V135.713Z" fill="#80BD20"/>
<path d="M42.8594 128.57H50.0027V121.43H42.8594V128.57Z" fill="#B2DB18"/>
<path d="M42.8594 85.7129H50.0027V78.5703H42.8594V85.7129Z" fill="#B2DB18"/>
<path d="M57.1445 135.713H64.2879V128.57H57.1445V135.713Z" fill="#80BD20"/>
<path d="M50 128.57H57.1416V121.43H50V128.57Z" fill="#B2DB18"/>
<path d="M57.1445 49.9971H64.2879V42.8563H57.1445V49.9971Z" fill="#CCE53F"/>
<path d="M64.2852 135.713H71.4285V128.57H64.2852V135.713Z" fill="#80BD20"/>
<path d="M64.2852 49.9971H71.4285V42.8563H64.2852V49.9971Z" fill="#CCE53F"/>
<path d="M71.4297 49.9971H78.5713V42.8563H71.4297V49.9971Z" fill="#CCE53F"/>
<path d="M50 49.9971H57.1416V42.8563H50V49.9971Z" fill="#CCE53F"/>
<path d="M42.8584 57.1416L50.0027 57.1414V49.998H42.8594L42.8584 57.1416Z" fill="#B2DB18"/>
<path d="M42.8594 49.998H50.0027V42.8563H42.8594V49.998Z" fill="#CCE53F"/>
<path d="M42.8594 64.284H50.0027V57.1414L42.8594 57.1406V64.284Z" fill="#B2DB18"/>
<path d="M42.8584 71.4283L50.0027 71.4285V64.2852L42.8584 64.2849V71.4283Z" fill="#B2DB18"/>
<path d="M42.8585 78.5691H50.0027V71.4258H42.8585V78.5691Z" fill="#B2DB18"/>
<path d="M71.4297 128.57V135.713H78.5713V128.57H71.4297Z" fill="#80BD20"/>
<path d="M128.574 92.8563H135.718V85.7129H128.574V92.8563Z" fill="#40BB6A"/>
<path d="M128.574 85.7129H135.718V78.5703H128.574V85.7129Z" fill="#231F20"/>
<path d="M128.574 99.9988H135.718V92.8563H128.574V99.9988Z" fill="#FFF200"/>
<path d="M128.574 107.142H135.718V100H128.574V107.142Z" fill="#ED1E24"/>
<path d="M78.5713 49.9971H85.7137V42.8563L78.5703 42.8555L78.5713 49.9971Z" fill="#CCE53F"/>
<path d="M128.574 121.429H135.718V114.285H128.574V121.429Z" fill="#18A755"/>
<path d="M128.574 114.284H135.718V107.142H128.574V114.284Z" fill="#FFF200"/>
<path d="M92.8594 135.713H100.003V128.57H92.8594V135.713Z" fill="#231F20"/>
<path d="M85.7148 135.713H92.8582V128.57H85.7148V135.713Z" fill="#231F20"/>
<path d="M100 135.713H107.142V128.57H100V135.713Z" fill="#058642"/>
<path d="M128.574 128.571H135.718V121.43H128.574V128.571Z" fill="#18A755"/>
<path d="M78.5703 135.714L85.7137 135.713V128.57H78.5713L78.5703 135.714Z" fill="#80BD20"/>
<path d="M121.43 135.713H128.573V128.57H121.43V135.713Z" fill="#18A755"/>
<path d="M128.574 135.713H135.718V128.571H128.574V135.713Z" fill="#18A755"/>
<path d="M107.145 135.713H114.288V128.57H107.145V135.713Z" fill="#18A755"/>
<path d="M114.285 135.713H121.429V128.57H114.285V135.713Z" fill="#18A755"/>
<path d="M50 114.284H57.1416V107.141H50V114.284Z" fill="#B2DB18"/>
<path d="M57.1445 121.429H64.2879V114.285H57.1445V121.429Z" fill="#231F20"/>
<path d="M85.7151 49.999H92.8585V42.8574H85.7151V49.999Z" fill="#CCE53F"/>
<path d="M85.7151 57.1406H92.8585V49.999H85.7151V57.1406Z" fill="#B2DB18"/>
<path d="M50 107.141H57.1416V100H50V107.141Z" fill="#B2DB18"/>
<path d="M50 99.9988H57.1416V92.8555H50V99.9988Z" fill="#B2DB18"/>
<path d="M64.2852 128.57H71.4285V121.43H64.2852V128.57Z" fill="#B2DB18"/>
<path d="M71.4297 121.43V128.57H78.5713V121.43H71.4297Z" fill="#B2DB18"/>
<path d="M78.5703 128.571L85.7137 128.57V121.43H78.5713L78.5703 128.571Z" fill="#B2DB18"/>
<path d="M57.1445 128.57H64.2879V121.43H57.1445V128.57Z" fill="#B2DB18"/>
<path d="M50 92.8555H57.1416V85.7129H50V92.8555Z" fill="#B2DB18"/>
<path d="M50 78.5691H57.1416V71.4258H50V78.5691Z" fill="#B2DB18"/>
<path d="M50 85.7129H57.1416V78.5703H50V85.7129Z" fill="#B2DB18"/>
<path d="M64.2852 57.1406H71.4285V49.9971H64.2852V57.1406Z" fill="#B2DB18"/>
<path d="M71.4297 57.1406H78.5713V49.9971H71.4297V57.1406Z" fill="#B2DB18"/>
<path d="M78.5703 57.1414L85.7137 57.1406V49.9971L78.5703 49.998V57.1414Z" fill="#B2DB18"/>
<path d="M57.1445 57.1406H64.2879V49.9971H57.1445V57.1406Z" fill="#B2DB18"/>
<path d="M50 71.4285H57.1416V64.2852H50V71.4285Z" fill="#B2DB18"/>
<path d="M85.7148 128.57H92.8582V121.43H85.7148V128.57Z" fill="#80BD20"/>
<path d="M50 57.1414H57.1416V49.9971H50V57.1414Z" fill="#B2DB18"/>
<path d="M50 64.284H57.1416V57.1414H50V64.284Z" fill="#B2DB18"/>
<path d="M50 121.429H57.1416V114.285H50V121.429Z" fill="#231F20"/>
<path d="M121.43 78.5691H128.573V71.4258H121.43V78.5691Z" fill="#231F20"/>
<path d="M92.8594 128.57H100.003V121.43H92.8594V128.57Z" fill="#80BD20"/>
<path d="M92.8594 49.998H100.003V42.8555H92.8594V49.998Z" fill="#231F20"/>
<path d="M121.43 85.7137H128.573V78.5703H121.43V85.7137Z" fill="#40BB6A"/>
<path d="M114.285 128.57H121.429V121.43H114.285V128.57Z" fill="#18A755"/>
<path d="M107.145 128.57H114.288V121.43H107.145V128.57Z" fill="#058642"/>
<path d="M121.43 128.57H128.573V121.43H121.43V128.57Z" fill="#18A755"/>
<path d="M121.43 92.8563H128.573V85.7137H121.43V92.8563Z" fill="#FFF200"/>
<path d="M100 128.57H107.142V121.43H100V128.57Z" fill="#231F20"/>
<path d="M121.43 107.142H128.573V100H121.43V107.142Z" fill="#FFF200"/>
<path d="M121.43 121.429H128.573V114.285H121.43V121.429Z" fill="#18A755"/>
<path d="M121.43 99.9988H128.573V92.8563H121.43V99.9988Z" fill="#ED1E24"/>
<path d="M121.43 114.284H128.573V107.142H121.43V114.284Z" fill="#18A755"/>
<path d="M107.145 178.57H114.288V171.43H107.145V178.57Z" fill="#18A755"/>
<path d="M0 100.001H7.14336V92.8574H0V100.001Z" fill="#231F20"/>
<path d="M0 121.428H7.14336V114.285H0V121.428Z" fill="#231F20"/>
<path d="M0 107.142H7.14336V100.001H0L0 107.142Z" fill="#231F20"/>
<path d="M0 114.285H7.14336V107.142H0V114.285Z" fill="#231F20"/>
<path d="M0 92.8563H7.14336V85.7129H0V92.8563Z" fill="#231F20"/>
<path d="M57.1445 178.57H64.2879V171.43H57.1445V178.57Z" fill="#18A755"/>
<path d="M42.8594 178.57H50.0027V171.43H42.8594V178.57Z" fill="#03642F"/>
<path d="M35.7148 178.57H42.8582V171.43H35.7148V178.57Z" fill="#231F20"/>
<path d="M50 178.57H57.1416V171.43H50V178.57Z" fill="#058642"/>
<path d="M71.4297 178.57L78.5713 178.571V171.43H71.4297V178.57Z" fill="#18A755"/>
<path d="M92.8594 178.57H100.003V171.43H92.8594V178.57Z" fill="#18A755"/>
<path d="M78.5703 178.57H85.7137V171.43H78.5713L78.5703 178.57Z" fill="#18A755"/>
<path d="M100 178.57H107.142V171.43H100V178.57Z" fill="#18A755"/>
<path d="M85.7148 178.57H92.8582V171.43H85.7148V178.57Z" fill="#18A755"/>
<path d="M64.2852 178.57H71.4285V171.43H64.2852V178.57Z" fill="#18A755"/>
<path d="M0 21.4283H7.14336V14.285H0V21.4283Z" fill="#231F20"/>
<path d="M164.285 149.999H171.429V142.855H164.285V149.999Z" fill="#B2DB18"/>
<path d="M164.285 142.855H171.429V135.713H164.285V142.855Z" fill="#B2DB18"/>
<path d="M164.285 135.713H171.429V128.57H164.285V135.713Z" fill="#FFF200"/>
<path d="M164.285 157.142H171.429V150H164.285V157.142Z" fill="#B2DB18"/>
<path d="M121.43 157.142H128.573V150H121.43V157.142Z" fill="#18A755"/>
<path d="M164.285 107.142H171.429V100H164.285V107.142Z" fill="#231F20"/>
<path d="M164.285 114.284H171.429V107.142H164.285V114.284Z" fill="#CCE53F"/>
<path d="M164.285 128.57H171.429V121.43H164.285V128.57Z" fill="#ED1E24"/>
<path d="M64.2852 7.14159H71.4285V0H64.2852V7.14159Z" fill="#231F20"/>
<path d="M57.1445 7.14159H64.2879V0H57.1445V7.14159Z" fill="#231F20"/>
<path d="M114.285 178.57H121.429V171.43H114.285V178.57Z" fill="#058642"/>
<path d="M164.285 164.284H171.429V157.142H164.285V164.284Z" fill="#B2DB18"/>
<path d="M171.43 135.714H178.571V128.57H171.43V135.714Z" fill="#ED1E24"/>
<path d="M171.43 128.57H178.571L178.57 121.43H171.43V128.57Z" fill="#FFF200"/>
<path d="M171.43 142.856H178.57L178.571 135.714H171.43V142.856Z" fill="#FFF200"/>
<path d="M171.43 157.142H178.57V150H171.43V157.142Z" fill="#B2DB18"/>
<path d="M171.43 149.999H178.57L178.571 142.855L171.43 142.856V149.999Z" fill="#B2DB18"/>
<path d="M171.43 164.284H178.57L178.571 157.141L171.43 157.142V164.284Z" fill="#B2DB18"/>
<path d="M171.43 121.429H178.57V114.285H171.43V121.429Z" fill="#CCE53F"/>
<path d="M171.43 114.284H178.571V107.141H171.43V114.284Z" fill="#231F20"/>
<path d="M142.859 178.571H150.003V171.43H142.859V178.571Z" fill="#459627"/>
<path d="M128.574 178.57H135.718V171.43H128.574V178.57Z" fill="#03642F"/>
<path d="M135.715 178.57H142.858V171.43H135.715V178.57Z" fill="#231F20"/>
<path d="M171.43 171.429H178.57V164.285H171.43V171.429Z" fill="#B2DB18"/>
<path d="M121.43 178.57H128.573V171.43H121.43V178.57Z" fill="#058642"/>
<path d="M171.43 178.57H178.571L178.57 171.43H171.43V178.57Z" fill="#B2DB18"/>
<path d="M164.285 178.57H171.429V171.43H164.285V178.57Z" fill="#B2DB18"/>
<path d="M157.145 178.57L164.286 178.571L164.285 171.43H157.145V178.57Z" fill="#80BD20"/>
<path d="M150 178.571H157.145L157.145 171.43H150V178.571Z" fill="#80BD20"/>
<path d="M164.285 121.429H171.429V114.285H164.285V121.429Z" fill="#FFF200"/>
<path d="M14.2852 135.712H21.4285V128.57H14.2852V135.712Z" fill="#231F20"/>
<path d="M14.2852 99.9988H21.4285V92.8555H14.2852V99.9988Z" fill="#B2DB18"/>
<path d="M14.2852 121.429H21.4285V114.285H14.2852V121.429Z" fill="#B2DB18"/>
<path d="M14.2852 114.284H21.4285V107.141H14.2852V114.284Z" fill="#B2DB18"/>
<path d="M14.2852 107.141H21.4285V100H14.2852V107.141Z" fill="#B2DB18"/>
<path d="M14.2852 128.57H21.4285V121.43H14.2852V128.57Z" fill="#80BD20"/>
<path d="M14.2852 28.5713H21.4285V21.4297H14.2852V28.5713Z" fill="#231F20"/>
<path d="M14.2852 85.7137H21.4285V78.5703H14.2852V85.7137Z" fill="#B2DB18"/>
<path d="M14.2852 78.5691H21.4285V71.4258H14.2852V78.5691Z" fill="#CCE53F"/>
<path d="M14.2852 64.284H21.4285V57.1406H14.2852V64.284Z" fill="#231F20"/>
<path d="M14.2852 92.8555H21.4285V85.7137H14.2852V92.8555Z" fill="#B2DB18"/>
<path d="M14.2852 71.4285H21.4285V64.2852H14.2852V71.4285Z" fill="#231F20"/>
<path d="M28.5703 164.284H35.7137V157.142H28.5703V164.284Z" fill="#231F20"/>
<path d="M128.574 164.284H135.718V157.141H128.574V164.284Z" fill="#058642"/>
<path d="M121.43 164.284H128.573V157.142H121.43V164.284Z" fill="#18A755"/>
<path d="M114.285 164.284H121.429V157.142H114.285V164.284Z" fill="#18A755"/>
<path d="M135.715 164.284H142.858V157.141H135.715V164.284Z" fill="#03642F"/>
<path d="M107.145 164.284H114.288V157.142H107.145V164.284Z" fill="#18A755"/>
<path d="M14.2852 21.4285H21.4285V14.2852H14.2852V21.4285Z" fill="#ED1C24"/>
<path d="M157.145 157.142H164.285V150H157.145V157.142Z" fill="#B2DB18"/>
<path d="M100 164.284H107.142V157.142H100V164.284Z" fill="#18A755"/>
<path d="M157.145 164.284H164.285L164.286 157.141L157.145 157.142V164.284Z" fill="#B2DB18"/>
<path d="M150 164.284H157.145L157.145 157.141H150V164.284Z" fill="#B2DB18"/>
<path d="M142.858 164.284H150.003V157.141H142.858V164.284Z" fill="#231F20"/>
<path d="M50 164.284H57.1416V157.142H50V164.284Z" fill="#18A755"/>
<path d="M42.8594 164.284H50.0027V157.142H42.8594V164.284Z" fill="#18A755"/>
<path d="M35.7151 164.284H42.8594L42.8585 157.141L35.715 157.142L35.7151 164.284Z" fill="#058642"/>
<path d="M57.1445 164.284H64.2879V157.142H57.1445V164.284Z" fill="#18A755"/>
<path d="M71.4297 164.284H78.5713V157.142H71.4297V164.284Z" fill="#18A755"/>
<path d="M78.5713 164.284H85.7137V157.142L78.5703 157.141L78.5713 164.284Z" fill="#18A755"/>
<path d="M85.7151 164.284H92.8585L92.8584 157.142H85.715L85.7151 164.284Z" fill="#18A755"/>
<path d="M64.2852 164.284H71.4285V157.142H64.2852V164.284Z" fill="#18A755"/>
<path d="M92.8585 164.284H100.003V157.142L92.8594 157.141L92.8585 164.284Z" fill="#18A755"/>
<path d="M157.145 149.999H164.285V142.855H157.145V149.999Z" fill="#B2DB18"/>
<path d="M21.4297 21.4285H28.5713V14.2852H21.4297V21.4285Z" fill="#231F20"/>
<path d="M150 114.284H157.145V107.141H150V114.284Z" fill="#231F20"/>
<path d="M150 107.141H157.145L157.145 100H150L150 107.141Z" fill="#231F20"/>
<path d="M142.859 157.142L150.003 157.141V150H142.859V157.142Z" fill="#231F20"/>
<path d="M135.715 157.141H142.858V150.001H135.715V157.141Z" fill="#058642"/>
<path d="M150 157.141L157.145 157.142V150L150 150L150 157.141Z" fill="#B2DB18"/>
<path d="M128.574 157.141H135.718V150H128.574V157.141Z" fill="#18A755"/>
<path d="M164.285 171.429H171.429V164.285H164.285V171.429Z" fill="#B2DB18"/>
<path d="M150 128.571H157.145V121.43H150V128.571Z" fill="#231F20"/>
<path d="M150 135.714H157.145V128.571H150V135.714Z" fill="#231F20"/>
<path d="M150 150L157.145 150L157.145 142.857H150L150 150Z" fill="#231F20"/>
<path d="M150 121.428H157.145L157.145 114.284H150L150 121.428Z" fill="#231F20"/>
<path d="M64.2852 21.4285H71.4285V14.2852H64.2852V21.4285Z" fill="#231F20"/>
<path d="M57.1445 21.4285H64.2879V14.2852H57.1445V21.4285Z" fill="#231F20"/>
<path d="M150 142.856L157.145 142.855L157.145 135.714H150V142.856Z" fill="#231F20"/>
<path d="M7.14453 107.142H14.2879V100H7.14453V107.142Z" fill="#B2DB18"/>
<path d="M7.14453 114.284H14.2879V107.142H7.14453V114.284Z" fill="#B2DB18"/>
<path d="M7.14453 121.429H14.2879V114.285H7.14453V121.429Z" fill="#80BD20"/>
<path d="M7.14453 128.571H14.2879V121.43H7.14453V128.571Z" fill="#231F20"/>
<path d="M7.14453 99.9988H14.2879V92.8555H7.14453V99.9988Z" fill="#B2DB18"/>
<path d="M7.14453 85.7137H14.2879V78.5703H7.14453V85.7137Z" fill="#231F20"/>
<path d="M7.14453 92.8555H14.2879V85.7137H7.14453V92.8555Z" fill="#CCE53F"/>
<path d="M7.14453 78.5691H14.2879V71.4258H7.14453V78.5691Z" fill="#231F20"/>
<path d="M128.574 171.429H135.718V164.285H128.574V171.429Z" fill="#058642"/>
<path d="M114.285 171.429H121.429V164.285H114.285V171.429Z" fill="#18A755"/>
<path d="M121.43 171.429H128.573V164.285H121.43V171.429Z" fill="#058642"/>
<path d="M107.145 171.429H114.288V164.285H107.145V171.429Z" fill="#18A755"/>
<path d="M100 171.429H107.142V164.285H100V171.429Z" fill="#18A755"/>
<path d="M150 171.428H157.145V164.285L150 164.284L150 171.428Z" fill="#80BD20"/>
<path d="M157.145 171.428L164.285 171.429V164.285L157.145 164.285V171.428Z" fill="#B2DB18"/>
<path d="M92.8594 171.429H100.003V164.285H92.8594V171.429Z" fill="#18A755"/>
<path d="M142.859 171.429H150.003V164.285H142.859V171.429Z" fill="#80BD20"/>
<path d="M135.715 171.428H142.858L142.858 164.284H135.715L135.715 171.428Z" fill="#231F20"/>
<path d="M57.1445 171.429H64.2879V164.285H57.1445V171.429Z" fill="#18A755"/>
<path d="M35.715 171.428H42.8584V164.285L35.7151 164.284L35.715 171.428Z" fill="#03642F"/>
<path d="M50 171.429H57.1416V164.285H50V171.429Z" fill="#18A755"/>
<path d="M42.8584 171.428L50.0027 171.429V164.285L42.8584 164.285V171.428Z" fill="#058642"/>
<path d="M28.5703 171.429H35.7137V164.285H28.5703V171.429Z" fill="#231F20"/>
<path d="M78.5703 171.429H85.7137V164.285H78.5703V171.429Z" fill="#18A755"/>
<path d="M71.4297 171.429H78.5703V164.285H71.4297V171.429Z" fill="#18A755"/>
<path d="M85.715 171.428H92.8584L92.8585 164.284H85.7151L85.715 171.428Z" fill="#18A755"/>
<path d="M64.2852 171.429H71.4285V164.285H64.2852V171.429Z" fill="#18A755"/>
<path d="M14.2852 14.284H21.4285V7.14062H14.2852V14.284Z" fill="#231F20"/>
<path d="M157.145 114.284H164.285L164.286 107.141H157.145V114.284Z" fill="#CCE53F"/>
<path d="M157.145 128.571H164.286L164.285 121.43H157.145V128.571Z" fill="#FFF200"/>
<path d="M157.145 121.428L164.285 121.429V114.285H157.145L157.145 121.428Z" fill="#B2DB18"/>
<path d="M157.145 135.714H164.286V128.571L157.145 128.57L157.145 135.714Z" fill="#B2DB18"/>
<path d="M157.145 107.142L164.286 107.141L164.285 100L157.145 100L157.145 107.142Z" fill="#231F20"/>
<path d="M71.4297 14.284H78.5713V7.14062H71.4297V14.284Z" fill="#231F20"/>
<path d="M50 14.284H57.1416V7.14062H50V14.284Z" fill="#231F20"/>
<path d="M57.1445 14.284H64.2879V7.14159H57.1445V14.284Z" fill="#ED1C24"/>
<path d="M64.2852 14.284H71.4285V7.14159H64.2852V14.284Z" fill="#ED1C24"/>
<path d="M7.14453 21.4285H14.2879V14.2852H7.14453V21.4285Z" fill="#ED1C24"/>
<path d="M7.14453 14.284H14.2879V7.14062H7.14453V14.284Z" fill="#231F20"/>
<path d="M157.145 142.855L164.286 142.856V135.714H157.145L157.145 142.855Z" fill="#B2DB18"/>
<path d="M7.14453 28.5713H14.2852V21.4297H7.14453V28.5713Z" fill="#231F20"/>
<path d="M257.145 192.856H264.286V185.713H257.145V192.856Z" fill="#231F20"/>
<path d="M257.145 185.713H264.286V178.57H257.145V185.713Z" fill="#231F20"/>
<path d="M257.145 171.429H264.286V164.285H257.145V171.429Z" fill="#231F20"/>
<path d="M257.145 178.57H264.286V171.43H257.145V178.57Z" fill="#231F20"/>
<path d="M250 192.856H257.142V185.713H250V192.856Z" fill="#80BD20"/>
<path d="M250 164.284H257.142V157.141H250V164.284Z" fill="#231F20"/>
<path d="M250 185.713H257.142V178.57H250V185.713Z" fill="#B2DB18"/>
<path d="M250 171.429H257.142V164.285H250V171.429Z" fill="#FFF200"/>
<path d="M250 178.57H257.142V171.43H250V178.57Z" fill="#B2DB18"/>
<path d="M250 199.999H257.142V192.856H250V199.999Z" fill="#231F20"/>
<path d="M228.574 149.999H235.716V142.855H228.574V149.999Z" fill="#231F20"/>
<path d="M228.574 164.284H235.716V157.141H228.574V164.284Z" fill="#231F20"/>
<path d="M228.574 171.429H235.716V164.285H228.574V171.429Z" fill="#231F20"/>
<path d="M228.574 178.571H235.716V171.43H228.574V178.571Z" fill="#231F20"/>
<path d="M228.574 157.141H235.716V150H228.574V157.141Z" fill="#231F20"/>
<path d="M228.574 185.714H235.716V178.571H228.574V185.714Z" fill="#231F20"/>
<path d="M228.574 199.999H235.716V192.855H228.574V199.999Z" fill="#231F20"/>
<path d="M228.574 192.855H235.716V185.714H228.574V192.855Z" fill="#6161B6"/>
<path d="M221.43 149.999H228.573V142.855H221.43V149.999Z" fill="#40BB6A"/>
<path d="M221.431 157.142L228.573 157.142V150H221.43L221.431 157.142Z" fill="#FFF200"/>
<path d="M221.43 142.855H228.573V135.713H221.43V142.855Z" fill="#231F20"/>
<path d="M221.431 171.428L228.573 171.429V164.285L221.431 164.285V171.428Z" fill="#18A755"/>
<path d="M221.43 164.284H228.573V157.142L221.43 157.141V164.284Z" fill="#18A755"/>
<path d="M221.431 178.571H228.573V171.43H221.431V178.571Z" fill="#058642"/>
<path d="M221.43 199.999H228.573V192.855H221.43V199.999Z" fill="#231F20"/>
<path d="M221.43 185.714H228.573V178.571L221.43 178.57V185.714Z" fill="#03642F"/>
<path d="M221.43 192.855H228.573V185.714H221.43V192.855Z" fill="#231F20"/>
<path d="M242.859 178.571H250.003V171.43H242.859V178.571Z" fill="#FFF200"/>
<path d="M242.859 171.429H250.003V164.285H242.859V171.429Z" fill="#ED1E24"/>
<path d="M242.859 185.714H250.003V178.571H242.859V185.714Z" fill="#B2DB18"/>
<path d="M242.859 164.284H250.003V157.141H242.859V164.284Z" fill="#FFF200"/>
<path d="M242.859 157.141H250.003V150H242.859V157.141Z" fill="#231F20"/>
<path d="M242.859 199.999H250.003V192.855H242.859V199.999Z" fill="#231F20"/>
<path d="M242.859 192.855H250.003V185.714H242.859V192.855Z" fill="#231F20"/>
<path d="M235.715 157.142H242.858L242.859 150H235.716L235.715 157.142Z" fill="#231F20"/>
<path d="M235.716 171.429L242.858 171.428V164.285L235.716 164.285V171.429Z" fill="#FFF200"/>
<path d="M235.716 164.284L242.858 164.285V157.142H235.715L235.716 164.284Z" fill="#CCE53F"/>
<path d="M235.715 200.001H242.858V192.857H235.715V200.001Z" fill="#231F20"/>
<path d="M235.716 178.571H242.858V171.43H235.716V178.571Z" fill="#B2DB18"/>
<path d="M235.715 192.856H242.858V185.713H235.715V192.856Z" fill="#6161B6"/>
<path d="M235.715 185.713H242.858V178.571L235.715 178.57V185.713Z" fill="#231F20"/>
</svg>
