<svg width="263" height="200" viewBox="0 0 263 200" fill="none" xmlns="http://www.w3.org/2000/svg">
<path d="M69.1914 187.5H75.4418V181.25H69.1914V187.5Z" fill="#231F20"/>
<path d="M162.941 187.5H169.192V181.25H162.941V187.5Z" fill="#6F7C80"/>
<path d="M156.691 187.5H162.941V181.25H156.691V187.5Z" fill="#231F20"/>
<path d="M169.192 187.5H175.44V181.25H169.192V187.5Z" fill="#505B5E"/>
<path d="M75.4418 187.5H81.6918V181.25H75.4418V187.5Z" fill="#909FA3"/>
<path d="M137.941 187.5H144.19V181.25H137.941V187.5Z" fill="#909FA3"/>
<path d="M150.441 187.5H156.69V181.25H150.441V187.5Z" fill="#6F7C80"/>
<path d="M175.441 187.5H181.693V181.25H175.441V187.5Z" fill="#505B5E"/>
<path d="M181.691 187.5H187.94V181.25H181.691V187.5Z" fill="#231F20"/>
<path d="M144.191 187.5H150.441V181.25H144.191V187.5Z" fill="#909FA3"/>
<path d="M194.191 187.5H200.442V181.25H194.191V187.5Z" fill="#231F20"/>
<path d="M94.1914 187.5H100.442V181.25H94.1914V187.5Z" fill="#231F20"/>
<path d="M131.691 187.5H137.943V181.25H131.691V187.5Z" fill="#909FA3"/>
<path d="M87.9414 187.5H94.1903V181.25H87.9414V187.5Z" fill="#6F7C80"/>
<path d="M100.442 187.5H106.692V181.25H100.442V187.5Z" fill="#231F20"/>
<path d="M81.6918 187.5H87.9414V181.25H81.6918V187.5Z" fill="#909FA3"/>
<path d="M106.692 187.5H112.94V181.25H106.692V187.5Z" fill="#231F20"/>
<path d="M125.441 187.5H131.69V181.25H125.441V187.5Z" fill="#231F20"/>
<path d="M200.442 187.5H206.693V181.25H200.442V187.5Z" fill="#909FA3"/>
<path d="M19.1915 62.5004H25.4403V56.25H19.1915V62.5004Z" fill="#A77A6E"/>
<path d="M19.1915 56.25H25.4403V50H19.1915V56.25Z" fill="#A77A6E"/>
<path d="M19.1914 68.7504H25.4403L25.4403 62.5004H19.1915L19.1914 68.7504Z" fill="#A77A6E"/>
<path d="M19.1915 37.5004H25.4403V31.25H19.1915V37.5004Z" fill="#909FA3"/>
<path d="M19.1914 49.9989H25.4403V43.75H19.1914V49.9989Z" fill="#7B5950"/>
<path d="M19.1914 43.75H25.4403L25.4403 37.5004H19.1915L19.1914 43.75Z" fill="#231F20"/>
<path d="M19.1914 93.7504H25.4403V87.5H19.1914V93.7504Z" fill="#231F20"/>
<path d="M19.1914 74.9989H25.4403V68.7504H19.1914V74.9989Z" fill="#231F20"/>
<path d="M19.1914 87.5H25.4403L25.4403 81.25H19.1915L19.1914 87.5Z" fill="#6F7C80"/>
<path d="M19.1915 81.25H25.4403V75H19.1915V81.25Z" fill="#909FA3"/>
<path d="M19.1914 24.9989H25.4403V18.75H19.1914V24.9989Z" fill="#231F20"/>
<path d="M19.1914 31.2489H25.4403V25H19.1914V31.2489Z" fill="#BFC8CB"/>
<path d="M12.9415 87.5004H19.1903V81.25H12.9415V87.5004Z" fill="#231F20"/>
<path d="M12.9415 81.25H19.1903V75H12.9415V81.25Z" fill="#6F7C80"/>
<path d="M12.9414 68.7504H19.1903V62.5H12.9414V68.7504Z" fill="#231F20"/>
<path d="M12.9414 62.5H19.1903L19.1903 56.25H12.9415L12.9414 62.5Z" fill="#231F20"/>
<path d="M206.691 187.5H212.94V181.25H206.691V187.5Z" fill="#909FA3"/>
<path d="M12.9414 74.9989H19.1903V68.7504H12.9414V74.9989Z" fill="#909FA3"/>
<path d="M12.9415 56.25H19.1903V50H12.9415V56.25Z" fill="#231F20"/>
<path d="M12.9414 31.2489H19.1903V25H12.9414V31.2489Z" fill="#231F20"/>
<path d="M12.9414 49.9989H19.1903V43.75H12.9414V49.9989Z" fill="#231F20"/>
<path d="M12.9414 43.75H19.1903V37.5H12.9414V43.75Z" fill="#909FA3"/>
<path d="M12.9414 37.5H19.1903L19.1903 31.25H12.9415L12.9414 37.5Z" fill="#BFC8CB"/>
<path d="M206.691 99.9989H212.94V93.75H206.691V99.9989Z" fill="#909FA3"/>
<path d="M206.691 62.5004H212.94V56.25H206.691V62.5004Z" fill="#909FA3"/>
<path d="M206.691 93.75H212.94V87.5H206.691V93.75Z" fill="#909FA3"/>
<path d="M206.691 112.499H212.94V106.25H206.691V112.499Z" fill="#909FA3"/>
<path d="M206.691 118.752H212.94V112.5H206.691V118.752Z" fill="#909FA3"/>
<path d="M206.691 106.25H212.94L212.94 100H206.691L206.691 106.25Z" fill="#909FA3"/>
<path d="M206.691 74.9989H212.94V68.75H206.691V74.9989Z" fill="#909FA3"/>
<path d="M206.691 68.75H212.94L212.94 62.5004H206.691L206.691 68.75Z" fill="#909FA3"/>
<path d="M206.691 87.5H212.94L212.94 81.25H206.691L206.691 87.5Z" fill="#909FA3"/>
<path d="M206.691 81.25H212.94V75H206.691V81.25Z" fill="#909FA3"/>
<path d="M206.691 125H212.94V118.75H206.691V125Z" fill="#909FA3"/>
<path d="M206.691 168.75H212.94V162.5H206.691V168.75Z" fill="#909FA3"/>
<path d="M206.691 174.999H212.94L212.94 168.75H206.691L206.691 174.999Z" fill="#6F7C80"/>
<path d="M206.691 181.25H212.94V175H206.691V181.25Z" fill="#909FA3"/>
<path d="M206.691 162.5H212.94V156.25H206.691V162.5Z" fill="#909FA3"/>
<path d="M206.691 156.25H212.94V150H206.691V156.25Z" fill="#909FA3"/>
<path d="M206.691 143.752H212.94V137.5H206.691V143.752Z" fill="#231F20"/>
<path d="M206.691 137.499H212.94V131.25H206.691V137.499Z" fill="#6F7C80"/>
<path d="M206.691 131.25H212.94L212.94 125H206.691L206.691 131.25Z" fill="#909FA3"/>
<path d="M206.691 149.999H212.94V143.75H206.691V149.999Z" fill="#6F7C80"/>
<path d="M206.691 31.2489H212.94V25H206.691V31.2489Z" fill="#909FA3"/>
<path d="M206.691 43.7504H212.94V37.5H206.691V43.7504Z" fill="#909FA3"/>
<path d="M206.691 37.5H212.94L212.94 31.25H206.691L206.691 37.5Z" fill="#909FA3"/>
<path d="M206.691 49.9989H212.94V43.7504H206.691V49.9989Z" fill="#909FA3"/>
<path d="M206.691 56.25H212.94V50H206.691V56.25Z" fill="#909FA3"/>
<path d="M206.691 12.5004H212.94V6.25H206.691V12.5004Z" fill="#231F20"/>
<path d="M206.691 18.7504H212.94V12.5004H206.691V18.7504Z" fill="#BFC8CB"/>
<path d="M206.691 24.9989H212.94L212.94 18.7504H206.691L206.691 24.9989Z" fill="#909FA3"/>
<path d="M137.941 174.999H144.19V168.75H137.941V174.999Z" fill="#909FA3"/>
<path d="M162.941 6.24888H169.192V0H162.941V6.24888Z" fill="#231F20"/>
<path d="M144.191 6.24888H150.442V0H144.191V6.24888Z" fill="#231F20"/>
<path d="M156.691 6.24888H162.941V0H156.691V6.24888Z" fill="#231F20"/>
<path d="M150.442 6.24888H156.69V0H150.442V6.24888Z" fill="#231F20"/>
<path d="M194.191 49.9989H200.442V43.75H194.191V49.9989Z" fill="#231F20"/>
<path d="M194.191 43.75H200.442V37.5H194.191V43.75Z" fill="#231F20"/>
<path d="M194.191 56.2504H200.442V50H194.191V56.2504Z" fill="#BFC8CB"/>
<path d="M194.191 68.7504H200.442V62.5H194.191V68.7504Z" fill="#909FA3"/>
<path d="M194.191 62.5H200.442L200.442 56.2504H194.191L194.191 62.5Z" fill="#909FA3"/>
<path d="M194.191 31.2489H200.442V25H194.191V31.2489Z" fill="#909FA3"/>
<path d="M25.4403 31.2489L31.6916 31.2491V25.0002L25.4403 25V31.2489Z" fill="#909FA3"/>
<path d="M194.191 24.9989H200.442V18.75H194.191V24.9989Z" fill="#909FA3"/>
<path d="M194.191 18.75H200.442L200.442 12.5H194.191L194.191 18.75Z" fill="#BFC8CB"/>
<path d="M194.191 12.5H200.442V6.25H194.191V12.5Z" fill="#231F20"/>
<path d="M44.1914 6.24888H50.4418V0H44.1914V6.24888Z" fill="#231F20"/>
<path d="M50.4418 6.24888H56.6918V0H50.4418V6.24888Z" fill="#231F20"/>
<path d="M25.4415 18.7504H31.6919V12.5H25.4415V18.7504Z" fill="#231F20"/>
<path d="M37.9414 6.24888H44.1903V0H37.9414V6.24888Z" fill="#231F20"/>
<path d="M106.691 6.24888H112.94V0H106.691V6.24888Z" fill="#231F20"/>
<path d="M100.441 6.24888H106.691V0H100.441V6.24888Z" fill="#231F20"/>
<path d="M112.941 6.24888H119.192V0H112.941V6.24888Z" fill="#231F20"/>
<path d="M119.192 6.24888H125.442V0H119.192V6.24888Z" fill="#231F20"/>
<path d="M194.191 74.9989H200.442V68.7504H194.191V74.9989Z" fill="#231F20"/>
<path d="M81.6914 6.24888H87.9418V0H81.6914V6.24888Z" fill="#231F20"/>
<path d="M94.1914 6.24888H100.441V0H94.1914V6.24888Z" fill="#231F20"/>
<path d="M87.9418 6.24888H94.1903V0H87.9418V6.24888Z" fill="#231F20"/>
<path d="M194.191 37.5H200.442L200.442 31.25H194.191L194.191 37.5Z" fill="#909FA3"/>
<path d="M106.691 174.999H112.94V168.75H106.691V174.999Z" fill="#505B5E"/>
<path d="M112.941 174.999H119.192V168.75H112.941V174.999Z" fill="#231F20"/>
<path d="M156.691 174.999H162.942V168.75H156.691V174.999Z" fill="#231F20"/>
<path d="M87.9415 174.999H94.1903V168.75H87.9415V174.999Z" fill="#6F7C80"/>
<path d="M94.1915 174.999H100.442V168.75H94.1915V174.999Z" fill="#6F7C80"/>
<path d="M144.191 174.999H150.442V168.75H144.191V174.999Z" fill="#909FA3"/>
<path d="M150.442 174.999H156.69V168.75H150.442V174.999Z" fill="#6F7C80"/>
<path d="M125.441 174.999H131.69V168.75H125.441V174.999Z" fill="#231F20"/>
<path d="M131.69 174.999H137.943V168.75H131.69V174.999Z" fill="#909FA3"/>
<path d="M100.442 174.999H106.691V168.75H100.442V174.999Z" fill="#6F7C80"/>
<path d="M81.6915 174.999H87.9415V168.75H81.6915V174.999Z" fill="#231F20"/>
<path d="M75.4415 174.999H81.6915V168.75H75.4415V174.999Z" fill="#909FA3"/>
<path d="M69.1915 174.999H75.4415V168.75H69.1915V174.999Z" fill="#231F20"/>
<path d="M194.191 168.75H200.442V162.5H194.191V168.75Z" fill="#909FA3"/>
<path d="M194.191 118.752H200.442V112.5H194.191V118.752Z" fill="#909FA3"/>
<path d="M194.191 125H200.442V118.75H194.191V125Z" fill="#909FA3"/>
<path d="M194.191 137.499H200.442V131.25H194.191V137.499Z" fill="#6F7C80"/>
<path d="M194.191 143.752H200.442V137.5H194.191V143.752Z" fill="#6F7C80"/>
<path d="M162.957 174.999H169.208V168.75H162.957V174.999Z" fill="#6F7C80"/>
<path d="M194.191 131.25H200.442L200.442 125H194.191L194.191 131.25Z" fill="#909FA3"/>
<path d="M194.191 87.5004H200.442V81.25H194.191V87.5004Z" fill="#909FA3"/>
<path d="M194.191 93.7504H200.442L200.442 87.5004H194.191L194.191 93.7504Z" fill="#909FA3"/>
<path d="M194.191 106.25H200.442V100H194.191V106.25Z" fill="#909FA3"/>
<path d="M194.191 99.9989H200.442V93.7504H194.191V99.9989Z" fill="#909FA3"/>
<path d="M194.191 112.499H200.442L200.442 106.25H194.191L194.191 112.499Z" fill="#909FA3"/>
<path d="M181.691 174.999H187.94V168.75H181.691V174.999Z" fill="#231F20"/>
<path d="M175.441 174.999H181.693V168.75H175.441V174.999Z" fill="#343B3C"/>
<path d="M169.137 174.999H175.386V168.75H169.137V174.999Z" fill="#505B5E"/>
<path d="M194.191 149.999H200.442V143.75H194.191V149.999Z" fill="#231F20"/>
<path d="M194.191 162.5H200.442V156.25H194.191V162.5Z" fill="#6F7C80"/>
<path d="M194.191 156.25H200.442V150H194.191V156.25Z" fill="#505B5E"/>
<path d="M194.191 81.25H200.442V75H194.191V81.25Z" fill="#231F20"/>
<path d="M194.191 174.999H200.442L200.442 168.75H194.191L194.191 174.999Z" fill="#231F20"/>
<path d="M25.4403 24.9989L31.6916 24.9986L31.6919 18.7504L25.4403 18.75V24.9989Z" fill="#BFC8CB"/>
<path d="M200.442 156.25L206.693 156.25V150H200.442V156.25Z" fill="#6F7C80"/>
<path d="M200.442 149.999H206.693V143.75H200.442V149.999Z" fill="#231F20"/>
<path d="M200.442 168.75H206.693V162.5H200.442V168.75Z" fill="#909FA3"/>
<path d="M200.442 162.5H206.693V156.25L200.442 156.25V162.5Z" fill="#909FA3"/>
<path d="M200.442 174.999H206.693L206.693 168.75H200.442L200.442 174.999Z" fill="#909FA3"/>
<path d="M200.442 143.752H206.693V137.5H200.442V143.752Z" fill="#505B5E"/>
<path d="M200.442 125H206.693V118.75H200.442V125Z" fill="#909FA3"/>
<path d="M200.442 118.752H206.693V112.5H200.442V118.752Z" fill="#909FA3"/>
<path d="M144.191 181.25H150.441L150.442 175H144.191V181.25Z" fill="#909FA3"/>
<path d="M25.4403 37.5004H31.6917L31.6916 31.2491L25.4403 31.25V37.5004Z" fill="#231F20"/>
<path d="M200.442 181.25H206.693V175H200.441L200.442 181.25Z" fill="#909FA3"/>
<path d="M156.691 181.25H162.941L162.942 175H156.691V181.25Z" fill="#231F20"/>
<path d="M169.192 181.25H175.44V175H169.191L169.192 181.25Z" fill="#505B5E"/>
<path d="M162.941 181.25H169.192L169.191 175H162.942L162.941 181.25Z" fill="#6F7C80"/>
<path d="M150.441 181.25H156.69V175H150.442L150.441 181.25Z" fill="#6F7C80"/>
<path d="M181.691 181.25H187.94V175H181.691V181.25Z" fill="#231F20"/>
<path d="M194.191 181.25H200.442L200.441 175H194.191V181.25Z" fill="#231F20"/>
<path d="M200.442 112.499H206.693V106.25L200.442 106.25L200.442 112.499Z" fill="#909FA3"/>
<path d="M175.44 181.25H181.693L181.693 174.999L175.44 175V181.25Z" fill="#343B3C"/>
<path d="M200.442 137.499H206.693V131.25H200.442V137.499Z" fill="#6F7C80"/>
<path d="M200.442 12.5L206.693 12.5004V6.25H200.442V12.5Z" fill="#231F20"/>
<path d="M200.442 24.9989H206.693V18.75H200.442V24.9989Z" fill="#909FA3"/>
<path d="M200.442 18.75H206.693L206.693 12.5004L200.442 12.5L200.442 18.75Z" fill="#BFC8CB"/>
<path d="M200.442 31.2489H206.693V25H200.442V31.2489Z" fill="#909FA3"/>
<path d="M200.442 37.5L206.693 37.5004V31.25H200.442L200.442 37.5Z" fill="#909FA3"/>
<path d="M200.442 43.75L206.693 43.7504L206.693 37.5004L200.442 37.5V43.75Z" fill="#909FA3"/>
<path d="M200.442 68.7504H206.693V62.5H200.442V68.7504Z" fill="#231F20"/>
<path d="M200.442 81.25L206.693 81.2504V75H200.442V81.25Z" fill="#909FA3"/>
<path d="M200.442 93.7504H206.693V87.5L200.442 87.5004L200.442 93.7504Z" fill="#909FA3"/>
<path d="M200.442 49.9989H206.693V43.7504L200.442 43.75V49.9989Z" fill="#909FA3"/>
<path d="M200.442 99.9989H206.693V93.7504H200.442V99.9989Z" fill="#909FA3"/>
<path d="M200.442 87.5004L206.693 87.5L206.693 81.2504L200.442 81.25V87.5004Z" fill="#909FA3"/>
<path d="M200.442 56.2504H206.693V50H200.442V56.2504Z" fill="#231F20"/>
<path d="M200.442 62.5H206.693L206.693 56.2504H200.442L200.442 62.5Z" fill="#231F20"/>
<path d="M200.442 106.25L206.693 106.25L206.693 100H200.442V106.25Z" fill="#909FA3"/>
<path d="M200.442 74.9989H206.693V68.7504H200.442V74.9989Z" fill="#909FA3"/>
<path d="M200.442 131.25H206.693L206.693 125H200.442L200.442 131.25Z" fill="#909FA3"/>
<path d="M25.4414 99.9989H31.6918V93.75H25.4414V99.9989Z" fill="#231F20"/>
<path d="M25.4403 49.9989L31.6916 49.9988V43.75L25.4403 43.75V49.9989Z" fill="#A77A6E"/>
<path d="M25.4413 56.2485H31.6917L31.6916 49.9988L25.4413 49.998V56.2485Z" fill="#A77A6E"/>
<path d="M25.4415 62.5004H31.6919V56.25H25.4415V62.5004Z" fill="#7B5950"/>
<path d="M25.4414 43.7504L31.6916 43.75L31.6917 37.5004L25.4414 37.5V43.7504Z" fill="#7B5950"/>
<path d="M25.4414 68.7504H31.6918L31.6919 62.5004H25.4415L25.4414 68.7504Z" fill="#A77A6E"/>
<path d="M25.4413 81.2504H31.6917V75H25.4403L25.4413 81.2504Z" fill="#A77A6E"/>
<path d="M25.4415 87.5004H31.6919L31.6917 81.2504H25.4413L25.4415 87.5004Z" fill="#909FA3"/>
<path d="M25.4403 93.7504L31.6918 93.75L31.6919 87.5004L25.4403 87.5V93.7504Z" fill="#6F7C80"/>
<path d="M25.4403 74.9989L31.6917 75L31.6918 68.7504H25.4403V74.9989Z" fill="#A77A6E"/>
<path d="M106.692 181.25H112.94V175H106.691L106.692 181.25Z" fill="#505B5E"/>
<path d="M75.4418 181.25H81.6918V175H75.4414L75.4418 181.25Z" fill="#909FA3"/>
<path d="M137.941 181.25H144.19V175H137.941V181.25Z" fill="#909FA3"/>
<path d="M100.442 181.25H106.692L106.691 175H100.441L100.442 181.25Z" fill="#505B5E"/>
<path d="M87.9414 181.25H94.1903V175H87.9414V181.25Z" fill="#231F20"/>
<path d="M81.6918 181.25H87.9414V175H81.6918V181.25Z" fill="#909FA3"/>
<path d="M94.1914 181.25H100.442L100.441 175H94.1914V181.25Z" fill="#505B5E"/>
<path d="M125.441 181.25H131.69V175H125.441V181.25Z" fill="#231F20"/>
<path d="M131.691 181.25H137.943L137.943 174.999L131.69 175L131.691 181.25Z" fill="#909FA3"/>
<path d="M112.941 181.25H119.192V175H112.941V181.25Z" fill="#231F20"/>
<path d="M69.1914 181.25H75.4418L75.4414 175H69.1914V181.25Z" fill="#231F20"/>
<path d="M219.191 162.5H225.44V156.25H219.191V162.5Z" fill="#6F7C80"/>
<path d="M219.191 156.25H225.44V150H219.191V156.25Z" fill="#6F7C80"/>
<path d="M219.191 174.999H225.44V168.75H219.191V174.999Z" fill="#909FA3"/>
<path d="M219.191 118.752H225.44V112.5H219.191V118.752Z" fill="#909FA3"/>
<path d="M219.191 149.999H225.44V143.75H219.191V149.999Z" fill="#6F7C80"/>
<path d="M219.191 137.499H225.44V131.25H219.191V137.499Z" fill="#6F7C80"/>
<path d="M219.191 125H225.44V118.75H219.191V125Z" fill="#6F7C80"/>
<path d="M219.191 131.25H225.44L225.44 125H219.191L219.191 131.25Z" fill="#6F7C80"/>
<path d="M219.191 181.25H225.44V175H219.191V181.25Z" fill="#909FA3"/>
<path d="M219.191 143.752H225.44V137.5H219.191V143.752Z" fill="#6F7C80"/>
<path d="M219.191 168.75H225.44L225.44 162.5H219.191L219.191 168.75Z" fill="#909FA3"/>
<path d="M200.441 200H206.693V193.75H200.441V200Z" fill="#231F20"/>
<path d="M181.691 200H187.94V193.75H181.691V200Z" fill="#231F20"/>
<path d="M219.191 193.749H225.44V187.5H219.191V193.749Z" fill="white"/>
<path d="M219.191 200H225.44V193.75H219.191V200Z" fill="#231F20"/>
<path d="M206.691 200H212.94V193.75H206.691V200Z" fill="#231F20"/>
<path d="M219.191 187.5H225.44L225.44 181.25H219.191L219.191 187.5Z" fill="#909FA3"/>
<path d="M212.941 200H219.191V193.75H212.941V200Z" fill="#231F20"/>
<path d="M194.191 200H200.441V193.75H194.191V200Z" fill="#231F20"/>
<path d="M219.191 31.2489H225.44V25H219.191V31.2489Z" fill="#909FA3"/>
<path d="M219.191 24.9989H225.44V18.75H219.191V24.9989Z" fill="#BFC8CB"/>
<path d="M219.191 43.7504H225.44V37.5H219.191V43.7504Z" fill="#909FA3"/>
<path d="M219.191 18.75H225.44L225.44 12.5H219.191L219.191 18.75Z" fill="#231F20"/>
<path d="M219.191 37.5H225.44L225.44 31.25H219.191L219.191 37.5Z" fill="#909FA3"/>
<path d="M219.191 112.499H225.44V106.25H219.191V112.499Z" fill="#909FA3"/>
<path d="M219.191 49.9989H225.44V43.7504H219.191V49.9989Z" fill="#909FA3"/>
<path d="M219.191 99.9989H225.44V93.75H219.191V99.9989Z" fill="#909FA3"/>
<path d="M219.191 93.75H225.44V87.5H219.191V93.75Z" fill="#909FA3"/>
<path d="M219.191 106.25H225.44L225.44 100H219.191L219.191 106.25Z" fill="#909FA3"/>
<path d="M219.191 87.5H225.44L225.44 81.25H219.191L219.191 87.5Z" fill="#909FA3"/>
<path d="M219.191 74.9989H225.44V68.75H219.191V74.9989Z" fill="#909FA3"/>
<path d="M219.191 62.5004H225.44V56.25H219.191V62.5004Z" fill="#909FA3"/>
<path d="M219.191 68.75H225.44L225.44 62.5004H219.191L219.191 68.75Z" fill="#909FA3"/>
<path d="M219.191 56.25H225.44V50H219.191V56.25Z" fill="#909FA3"/>
<path d="M219.191 81.25H225.44V75H219.191V81.25Z" fill="#909FA3"/>
<path d="M225.441 125H231.693V118.75H225.441V125Z" fill="#6F7C80"/>
<path d="M225.441 131.25H231.693V125H225.441V131.25Z" fill="#6F7C80"/>
<path d="M225.441 118.752H231.693V112.5H225.441V118.752Z" fill="#6F7C80"/>
<path d="M225.441 143.752H231.693V137.5H225.441V143.752Z" fill="#231F20"/>
<path d="M225.441 149.999H231.693V143.75H225.441V149.999Z" fill="#231F20"/>
<path d="M225.441 137.499H231.693L231.693 131.25H225.441L225.441 137.499Z" fill="#505B5E"/>
<path d="M225.441 93.7504H231.693V87.5H225.441V93.7504Z" fill="#909FA3"/>
<path d="M225.441 112.499H231.693V106.25H225.441V112.499Z" fill="#909FA3"/>
<path d="M225.441 99.9989H231.693V93.7504H225.441V99.9989Z" fill="#909FA3"/>
<path d="M225.441 106.25H231.693L231.693 100H225.441L225.441 106.25Z" fill="#909FA3"/>
<path d="M225.441 181.25H231.693V175H225.441V181.25Z" fill="#6F7C80"/>
<path d="M225.441 187.5H231.693V181.25H225.441V187.5Z" fill="#6F7C80"/>
<path d="M225.441 193.749H231.693L231.693 187.5H225.441L225.441 193.749Z" fill="#6F7C80"/>
<path d="M225.441 200H231.693V193.75H225.441V200Z" fill="#231F20"/>
<path d="M225.441 162.5H231.693V156.25H225.441V162.5Z" fill="#6F7C80"/>
<path d="M225.441 168.75H231.693V162.5H225.441V168.75Z" fill="#6F7C80"/>
<path d="M225.441 156.25H231.693V150H225.441V156.25Z" fill="#231F20"/>
<path d="M225.441 174.999H231.693L231.693 168.75H225.441L225.441 174.999Z" fill="#6F7C80"/>
<path d="M0.441406 49.9988H6.69184V43.75H0.441406V49.9988Z" fill="#231F20"/>
<path d="M0.441467 56.2485H6.69191L6.69184 49.9988H0.441406L0.441467 56.2485Z" fill="#231F20"/>
<path d="M0.441467 62.5004H6.69191V56.25H0.441467V62.5004Z" fill="#231F20"/>
<path d="M0.441406 68.7504H6.69184L6.69191 62.5004H0.441467L0.441406 68.7504Z" fill="#231F20"/>
<path d="M175.441 200H181.693V193.75H175.441V200Z" fill="#231F20"/>
<path d="M144.191 200H150.442V193.75H144.191V200Z" fill="#231F20"/>
<path d="M212.941 99.9989H219.191V93.75H212.941V99.9989Z" fill="#909FA3"/>
<path d="M212.941 106.25L219.191 106.25L219.191 100H212.941V106.25Z" fill="#6F7C80"/>
<path d="M212.941 93.75H219.191V87.5H212.941V93.75Z" fill="#909FA3"/>
<path d="M212.941 112.499H219.191V106.25L212.941 106.25L212.941 112.499Z" fill="#909FA3"/>
<path d="M212.941 118.752H219.191V112.5H212.941V118.752Z" fill="#909FA3"/>
<path d="M212.941 74.9989H219.191V68.75H212.941V74.9989Z" fill="#909FA3"/>
<path d="M212.941 62.5004H219.191V56.25H212.941V62.5004Z" fill="#909FA3"/>
<path d="M212.941 125H219.191V118.75H212.941V125Z" fill="#909FA3"/>
<path d="M212.941 81.2504L219.191 81.25V75H212.941V81.2504Z" fill="#909FA3"/>
<path d="M212.941 87.5H219.191L219.191 81.25L212.941 81.2504L212.941 87.5Z" fill="#909FA3"/>
<path d="M212.941 68.75H219.191L219.191 62.5004H212.941L212.941 68.75Z" fill="#909FA3"/>
<path d="M212.941 168.75L219.191 168.75L219.191 162.5L212.941 162.5V168.75Z" fill="#909FA3"/>
<path d="M212.941 174.999H219.191V168.75L212.941 168.75L212.941 174.999Z" fill="#909FA3"/>
<path d="M212.941 131.25L219.191 131.25L219.191 125H212.941V131.25Z" fill="#6F7C80"/>
<path d="M212.941 181.25H219.191V175H212.941V181.25Z" fill="#909FA3"/>
<path d="M212.941 193.749H219.191V187.5H212.941V193.749Z" fill="#909FA3"/>
<path d="M212.941 187.5H219.191L219.191 181.25H212.941L212.941 187.5Z" fill="#909FA3"/>
<path d="M212.941 156.25L219.191 156.25V150H212.941V156.25Z" fill="#6F7C80"/>
<path d="M212.941 137.499H219.191V131.25L212.941 131.25L212.941 137.499Z" fill="#6F7C80"/>
<path d="M212.941 143.752H219.191V137.5H212.941V143.752Z" fill="#6F7C80"/>
<path d="M212.941 149.999H219.191V143.75H212.941V149.999Z" fill="#6F7C80"/>
<path d="M212.941 162.5L219.191 162.5V156.25L212.941 156.25V162.5Z" fill="#909FA3"/>
<path d="M169.191 200H175.44V193.75H169.191V200Z" fill="#231F20"/>
<path d="M212.941 31.2489H219.191V25H212.941V31.2489Z" fill="#909FA3"/>
<path d="M212.941 43.7504H219.191V37.5H212.941V43.7504Z" fill="#909FA3"/>
<path d="M212.941 37.5H219.191L219.191 31.25H212.941L212.941 37.5Z" fill="#909FA3"/>
<path d="M212.941 49.9989H219.191V43.7504H212.941V49.9989Z" fill="#909FA3"/>
<path d="M212.941 24.9989H219.191V18.75H212.941V24.9989Z" fill="#909FA3"/>
<path d="M212.941 56.25H219.191V50H212.941V56.25Z" fill="#909FA3"/>
<path d="M212.941 18.75H219.191L219.191 12.5H212.941L212.941 18.75Z" fill="#231F20"/>
<path d="M169.191 193.749H175.44L175.44 187.5H169.192L169.191 193.749Z" fill="white"/>
<path d="M69.1915 193.749H75.4419L75.4418 187.5H69.1914L69.1915 193.749Z" fill="#231F20"/>
<path d="M75.4419 193.749H81.6919L81.6918 187.5H75.4418L75.4419 193.749Z" fill="white"/>
<path d="M175.441 193.749H181.693L181.693 187.5H175.441L175.441 193.749Z" fill="#505B5E"/>
<path d="M144.191 193.749H150.442L150.441 187.5H144.191L144.191 193.749Z" fill="white"/>
<path d="M150.442 193.749H156.69L156.69 187.5H150.441L150.442 193.749Z" fill="#6F7C80"/>
<path d="M156.691 193.749H162.942L162.941 187.5H156.691L156.691 193.749Z" fill="#231F20"/>
<path d="M206.691 193.749H212.94L212.94 187.5H206.691L206.691 193.749Z" fill="white"/>
<path d="M81.6919 193.749H87.9419L87.9414 187.5H81.6918L81.6919 193.749Z" fill="#6F7C80"/>
<path d="M200.441 193.749H206.693L206.693 187.5H200.442L200.441 193.749Z" fill="#909FA3"/>
<path d="M194.191 193.749H200.441L200.442 187.5H194.191L194.191 193.749Z" fill="#231F20"/>
<path d="M181.691 193.749H187.94L187.94 187.5H181.691L181.691 193.749Z" fill="#231F20"/>
<path d="M162.942 193.749H169.191L169.192 187.5H162.941L162.942 193.749Z" fill="#6F7C80"/>
<path d="M94.1915 193.749H100.442L100.442 187.5H94.1914L94.1915 193.749Z" fill="#505B5E"/>
<path d="M100.442 193.749H106.692L106.692 187.5H100.442L100.442 193.749Z" fill="#231F20"/>
<path d="M87.9419 193.749H94.1903L94.1903 187.5H87.9414L87.9419 193.749Z" fill="white"/>
<path d="M131.691 193.749H137.943L137.943 187.5H131.691L131.691 193.749Z" fill="white"/>
<path d="M125.441 193.749H131.69L131.69 187.5H125.441L125.441 193.749Z" fill="#231F20"/>
<path d="M137.941 193.749H144.19L144.19 187.5H137.941L137.941 193.749Z" fill="#909FA3"/>
<path d="M150.442 200H156.69V193.75H150.442V200Z" fill="#231F20"/>
<path d="M125.441 200H131.69V193.75H125.441V200Z" fill="#231F20"/>
<path d="M137.941 200H144.19V193.75H137.941V200Z" fill="#231F20"/>
<path d="M131.691 200H137.943V193.75H131.691V200Z" fill="#231F20"/>
<path d="M162.941 200H169.191V193.75H162.941V200Z" fill="#231F20"/>
<path d="M156.691 200H162.941V193.75H156.691V200Z" fill="#231F20"/>
<path d="M100.441 200H106.692V193.75H100.441V200Z" fill="#231F20"/>
<path d="M69.1914 200H75.4418V193.75H69.1914V200Z" fill="#231F20"/>
<path d="M94.1914 200H100.441V193.75H94.1914V200Z" fill="#231F20"/>
<path d="M75.4418 200H81.6918V193.75H75.4418V200Z" fill="#231F20"/>
<path d="M87.9414 200H94.1903V193.75H87.9414V200Z" fill="#231F20"/>
<path d="M81.6918 200H87.9414V193.75H81.6918V200Z" fill="#231F20"/>
<path d="M6.69184 43.75L12.9414 43.75V37.5H6.69141L6.69184 43.75Z" fill="#231F20"/>
<path d="M6.69191 56.25H12.9415V50H6.69147L6.69191 56.25Z" fill="#909FA3"/>
<path d="M6.69141 37.5H12.9414L12.9415 31.25H6.69147L6.69141 37.5Z" fill="#231F20"/>
<path d="M6.69184 49.9988L12.9414 49.9989V43.75L6.69184 43.75V49.9988Z" fill="#BFC8CB"/>
<path d="M6.69184 68.7504H12.9414V62.5L6.69191 62.5004L6.69184 68.7504Z" fill="#6F7C80"/>
<path d="M6.69141 74.9989H12.9414V68.7504H6.69184L6.69141 74.9989Z" fill="#231F20"/>
<path d="M6.69147 81.2504L12.9415 81.25V75H6.69147V81.2504Z" fill="#231F20"/>
<path d="M6.69191 62.5004L12.9414 62.5L12.9415 56.25H6.69191V62.5004Z" fill="#909FA3"/>
<path d="M112.941 118.752H119.192V112.5H112.941V118.752Z" fill="#231F20"/>
<path d="M156.691 62.5004H162.942V56.25H156.691V62.5004Z" fill="#231F20"/>
<path d="M156.691 43.7504H162.942V37.5H156.691V43.7504Z" fill="#A77A6E"/>
<path d="M144.191 43.7504H150.442V37.5H144.191V43.7504Z" fill="#BFC8CB"/>
<path d="M156.691 49.9989H162.942V43.7504H156.691V49.9989Z" fill="#A77A6E"/>
<path d="M156.691 56.25H162.942V50H156.691V56.25Z" fill="#231F20"/>
<path d="M150.442 43.7504H156.69V37.5H150.442V43.7504Z" fill="#231F20"/>
<path d="M119.191 43.7504H125.442V37.5H119.191V43.7504Z" fill="#909FA3"/>
<path d="M137.941 43.7504H144.19V37.5H137.941V43.7504Z" fill="#909FA3"/>
<path d="M125.442 43.7504H131.692V37.5H125.442V43.7504Z" fill="#909FA3"/>
<path d="M150.441 49.9989H156.69V43.7504H150.442L150.441 49.9989Z" fill="#231F20"/>
<path d="M156.691 81.2504H162.942V75H156.691V81.2504Z" fill="#A77A6E"/>
<path d="M156.691 112.499H162.942V106.25H156.691V112.499Z" fill="#231F20"/>
<path d="M156.691 106.25H162.942L162.942 100H156.691L156.691 106.25Z" fill="#6F7C80"/>
<path d="M156.691 68.7504H162.942L162.942 62.5004H156.691L156.691 68.7504Z" fill="#231F20"/>
<path d="M156.691 118.752H162.942V112.5H156.691V118.752Z" fill="#909FA3"/>
<path d="M156.691 99.9989H162.942V93.75H156.691V99.9989Z" fill="#909FA3"/>
<path d="M156.691 125H162.942V118.75H156.691V125Z" fill="#909FA3"/>
<path d="M112.941 43.7504H119.191V37.5H112.941V43.7504Z" fill="#909FA3"/>
<path d="M156.691 93.75H162.942V87.5H156.691V93.75Z" fill="#A77A6E"/>
<path d="M156.691 74.9989H162.942V68.7504H156.691V74.9989Z" fill="#A77A6E"/>
<path d="M156.691 87.5H162.942L162.942 81.2504H156.691L156.691 87.5Z" fill="#A77A6E"/>
<path d="M62.9415 62.5004H69.1903V56.25H62.9415V62.5004Z" fill="#909FA3"/>
<path d="M62.9415 81.2504H69.1903V75H62.9415V81.2504Z" fill="#231F20"/>
<path d="M62.9415 87.5004H69.1903V81.2504H62.9415V87.5004Z" fill="#BFC8CB"/>
<path d="M62.9414 93.7504H69.1903L69.1903 87.5004H62.9415L62.9414 93.7504Z" fill="#909FA3"/>
<path d="M62.9414 74.9989H69.1903V68.75H62.9414V74.9989Z" fill="#231F20"/>
<path d="M62.9414 68.75H69.1903L69.1903 62.5004H62.9415L62.9414 68.75Z" fill="#909FA3"/>
<path d="M62.9414 99.9989H69.1903V93.7504H62.9414V99.9989Z" fill="#909FA3"/>
<path d="M62.9414 112.499H69.1903V106.25H62.9414V112.499Z" fill="#231F20"/>
<path d="M62.9415 118.752H69.1903V112.5H62.9415V118.752Z" fill="#505B5E"/>
<path d="M62.9414 106.25H69.1903L69.1903 100H62.9415L62.9414 106.25Z" fill="#231F20"/>
<path d="M156.691 131.25H162.942V125H156.691V131.25Z" fill="#909FA3"/>
<path d="M94.1914 43.7504H100.442V37.5H94.1914V43.7504Z" fill="#909FA3"/>
<path d="M106.691 43.7504H112.94V37.5H106.691V43.7504Z" fill="#909FA3"/>
<path d="M87.9414 43.7504H94.1903V37.5H87.9414V43.7504Z" fill="#909FA3"/>
<path d="M62.9415 56.25H69.1903V50H62.9415V56.25Z" fill="#909FA3"/>
<path d="M100.442 43.7504H106.691V37.5H100.442V43.7504Z" fill="#909FA3"/>
<path d="M81.6914 43.7504H87.9414V37.5H81.6914V43.7504Z" fill="#909FA3"/>
<path d="M62.9414 43.7504H69.1903V37.5H62.9414V43.7504Z" fill="#909FA3"/>
<path d="M62.9414 49.9989H69.1903V43.7504H62.9414V49.9989Z" fill="#909FA3"/>
<path d="M75.4414 43.7504H81.6914V37.5H75.4414V43.7504Z" fill="#909FA3"/>
<path d="M69.1914 43.7504H75.4414V37.5H69.1914V43.7504Z" fill="#909FA3"/>
<path d="M69.1915 131.25H75.4419V125H69.1915V131.25Z" fill="white"/>
<path d="M69.1915 56.2504H75.4419V50H69.1915V56.2504Z" fill="#909FA3"/>
<path d="M69.1914 49.9989H75.4418L75.4414 43.7504H69.1914V49.9989Z" fill="#909FA3"/>
<path d="M81.6914 49.9989H87.9418L87.9414 43.7504H81.6914V49.9989Z" fill="#909FA3"/>
<path d="M75.4418 49.9989H81.6914V43.7504H75.4414L75.4418 49.9989Z" fill="#909FA3"/>
<path d="M69.1915 62.5004H75.4419V56.2504H69.1915V62.5004Z" fill="#909FA3"/>
<path d="M69.1915 87.5004H75.4419V81.25H69.1915V87.5004Z" fill="#909FA3"/>
<path d="M87.9418 49.9989H94.1903V43.7504H87.9414L87.9418 49.9989Z" fill="#909FA3"/>
<path d="M69.1914 93.7504H75.4418L75.4419 87.5004H69.1915L69.1914 93.7504Z" fill="#909FA3"/>
<path d="M69.1914 74.9989H75.4418V68.75H69.1914V74.9989Z" fill="#909FA3"/>
<path d="M69.1914 68.75H75.4418L75.4419 62.5004H69.1915L69.1914 68.75Z" fill="#909FA3"/>
<path d="M69.1915 81.25H75.4419V75H69.1915V81.25Z" fill="#909FA3"/>
<path d="M125.441 49.9989H131.692V43.7504H125.442L125.441 49.9989Z" fill="#909FA3"/>
<path d="M156.691 137.499H162.942L162.942 131.25H156.691L156.691 137.499Z" fill="#6F7C80"/>
<path d="M94.1914 49.9989H100.442V43.7504H94.1914V49.9989Z" fill="#909FA3"/>
<path d="M144.191 49.9989H150.441L150.442 43.7504H144.191V49.9989Z" fill="#909FA3"/>
<path d="M131.692 49.9989L137.943 49.9988V43.75L131.692 43.7504V49.9989Z" fill="#909FA3"/>
<path d="M119.191 49.9989H125.441L125.442 43.7504H119.191V49.9989Z" fill="#909FA3"/>
<path d="M100.442 49.9989H106.692L106.691 43.7504H100.442V49.9989Z" fill="#909FA3"/>
<path d="M106.692 49.9989H112.94V43.7504H106.691L106.692 49.9989Z" fill="#909FA3"/>
<path d="M112.941 49.9989H119.191V43.7504H112.941V49.9989Z" fill="#909FA3"/>
<path d="M137.941 49.9989H144.19V43.7504H137.941V49.9989Z" fill="#909FA3"/>
<path d="M119.191 137.499H125.442V131.25H119.191V137.499Z" fill="#6F7C80"/>
<path d="M125.442 137.499H131.69V131.25H125.442V137.499Z" fill="#6F7C80"/>
<path d="M94.1914 137.499H100.442V131.25H94.1914V137.499Z" fill="white"/>
<path d="M100.442 137.499H106.692V131.25H100.442V137.499Z" fill="white"/>
<path d="M106.692 137.499H112.94V131.25H106.692V137.499Z" fill="#231F20"/>
<path d="M69.1914 99.9989H75.4418V93.7504H69.1914V99.9989Z" fill="#909FA3"/>
<path d="M150.441 137.499H156.69V131.25H150.441V137.499Z" fill="#909FA3"/>
<path d="M131.69 137.499L137.943 137.499V131.25L131.69 131.25V137.499Z" fill="#909FA3"/>
<path d="M144.191 137.499H150.441V131.25H144.191V137.499Z" fill="#909FA3"/>
<path d="M137.941 137.499H144.19V131.25H137.941V137.499Z" fill="#909FA3"/>
<path d="M112.941 137.499H119.191V131.25H112.941V137.499Z" fill="#505B5E"/>
<path d="M69.1914 112.499H75.4418V106.25H69.1914V112.499Z" fill="#909FA3"/>
<path d="M69.1915 118.752H75.4419V112.5H69.1915V118.752Z" fill="#231F20"/>
<path d="M69.1914 106.25H75.4418L75.4419 100H69.1915L69.1914 106.25Z" fill="#909FA3"/>
<path d="M69.1915 125H75.4419V118.75H69.1915V125Z" fill="white"/>
<path d="M75.4414 137.499H81.6918V131.25L75.4419 131.25L75.4414 137.499Z" fill="#231F20"/>
<path d="M81.6918 137.499H87.9418V131.25H81.6918V137.499Z" fill="#909FA3"/>
<path d="M62.9415 125H69.1903V118.75H62.9415V125Z" fill="#231F20"/>
<path d="M87.9418 137.499H94.1903V131.25H87.9418V137.499Z" fill="#231F20"/>
<path d="M75.4419 131.25L81.6918 131.25L81.6919 125H75.4419V131.25Z" fill="#231F20"/>
<path d="M131.692 43.7504L137.943 43.75L137.943 37.5H131.692V43.7504Z" fill="#909FA3"/>
<path d="M56.6915 62.5004H62.9415V56.25H56.6915V62.5004Z" fill="#909FA3"/>
<path d="M56.6915 37.5004L62.9414 37.5L62.9419 31.25H56.6915V37.5004Z" fill="#BFC8CB"/>
<path d="M56.6914 68.7504L62.9414 68.75L62.9415 62.5004H56.6915L56.6914 68.7504Z" fill="#909FA3"/>
<path d="M56.6914 49.9989H62.9414V43.7504L56.6914 43.75V49.9989Z" fill="#909FA3"/>
<path d="M56.6914 43.75L62.9414 43.7504V37.5L56.6915 37.5004L56.6914 43.75Z" fill="#909FA3"/>
<path d="M56.6915 56.25H62.9415V50H56.6915V56.25Z" fill="#909FA3"/>
<path d="M56.6914 74.9989H62.9414V68.75L56.6914 68.7504V74.9989Z" fill="#909FA3"/>
<path d="M56.6953 93.7504H62.9442V87.5H56.6953V93.7504Z" fill="#231F20"/>
<path d="M56.6915 87.5004H62.9415V81.2504L56.6915 81.25V87.5004Z" fill="#BFC8CB"/>
<path d="M56.6915 81.25L62.9415 81.2504V75H56.6915V81.25Z" fill="#909FA3"/>
<path d="M112.941 37.5H119.191L119.192 31.25H112.941L112.941 37.5Z" fill="#909FA3"/>
<path d="M94.1914 37.5H100.442L100.442 31.25H94.1915L94.1914 37.5Z" fill="#909FA3"/>
<path d="M106.691 37.5H112.94L112.94 31.25H106.691L106.691 37.5Z" fill="#909FA3"/>
<path d="M100.442 37.5H106.691L106.691 31.25H100.442L100.442 37.5Z" fill="#909FA3"/>
<path d="M56.6914 99.9989H62.9414V93.7504L56.6914 93.75V99.9989Z" fill="#231F20"/>
<path d="M81.6914 37.5H87.9414L87.9419 31.25H81.6915L81.6914 37.5Z" fill="#909FA3"/>
<path d="M75.4414 37.5H81.6914L81.6915 31.25H75.4415L75.4414 37.5Z" fill="#909FA3"/>
<path d="M119.191 37.5L125.44 37.5004V31.25H119.192L119.191 37.5Z" fill="#909FA3"/>
<path d="M87.9414 37.5H94.1903L94.1903 31.25H87.9419L87.9414 37.5Z" fill="#909FA3"/>
<path d="M62.9414 37.5H69.1903L69.1903 31.25H62.9419L62.9414 37.5Z" fill="#909FA3"/>
<path d="M69.1914 37.5H75.4414L75.4415 31.25H69.1915L69.1914 37.5Z" fill="#909FA3"/>
<path d="M100.441 149.999H106.692V143.75H100.441V149.999Z" fill="#231F20"/>
<path d="M94.1915 149.999H100.441V143.75H94.1915V149.999Z" fill="#909FA3"/>
<path d="M87.9415 149.999H94.1903V143.75H87.9415V149.999Z" fill="#231F20"/>
<path d="M106.692 149.999H112.94V143.75H106.692V149.999Z" fill="#505B5E"/>
<path d="M75.4415 149.999H81.6919V143.75H75.4415V149.999Z" fill="#909FA3"/>
<path d="M81.6919 149.999H87.9415V143.75H81.6919V149.999Z" fill="#231F20"/>
<path d="M112.941 149.999H119.192V143.75H112.941V149.999Z" fill="#505B5E"/>
<path d="M125.441 149.999H131.69V143.75H125.441V149.999Z" fill="#6F7C80"/>
<path d="M131.691 149.999H137.943V143.75H131.691V149.999Z" fill="#909FA3"/>
<path d="M119.192 149.999H125.441V143.75H119.192V149.999Z" fill="#231F20"/>
<path d="M56.6915 125H62.9415V118.75H56.6915V125Z" fill="#231F20"/>
<path d="M56.6915 118.752H62.9415V112.5H56.6915V118.752Z" fill="#231F20"/>
<path d="M56.6915 131.25H62.9419L62.9415 125H56.6915V131.25Z" fill="#231F20"/>
<path d="M56.6914 112.499H62.9414V106.25H56.6914V112.499Z" fill="#6F7C80"/>
<path d="M69.1915 149.999H75.4415V143.75H69.1915V149.999Z" fill="#231F20"/>
<path d="M56.6914 137.499H62.9418L62.9419 131.25H56.6915L56.6914 137.499Z" fill="white"/>
<path d="M56.6914 106.25H62.9414L62.9415 100H56.6915L56.6914 106.25Z" fill="#6F7C80"/>
<path d="M62.9415 143.752H69.1903V137.5H62.9415V143.752Z" fill="#231F20"/>
<path d="M56.6915 143.752H62.9415V137.5H56.6915V143.752Z" fill="#231F20"/>
<path d="M150.441 143.752H156.69V137.5H150.441V143.752Z" fill="#6F7C80"/>
<path d="M112.941 143.752H119.192V137.5H112.941V143.752Z" fill="#231F20"/>
<path d="M131.691 143.752H137.943V137.5H131.691V143.752Z" fill="#909FA3"/>
<path d="M144.191 143.752H150.441V137.5H144.191V143.752Z" fill="#909FA3"/>
<path d="M119.192 143.752H125.442V137.5H119.192V143.752Z" fill="#6F7C80"/>
<path d="M125.442 143.752H131.69V137.5H125.442V143.752Z" fill="#909FA3"/>
<path d="M137.941 143.752H144.19V137.5H137.941V143.752Z" fill="#909FA3"/>
<path d="M162.941 143.752H169.192V137.5H162.941V143.752Z" fill="#505B5E"/>
<path d="M162.942 137.499H169.192V131.25L162.942 131.25L162.942 137.499Z" fill="#231F20"/>
<path d="M156.691 143.752H162.941V137.5H156.691V143.752Z" fill="#231F20"/>
<path d="M62.9419 131.25H69.1903V125H62.9415L62.9419 131.25Z" fill="white"/>
<path d="M162.942 131.25L169.192 131.25L169.192 125L162.942 125V131.25Z" fill="#6F7C80"/>
<path d="M75.4415 143.752H81.6919V137.5H75.4415V143.752Z" fill="#909FA3"/>
<path d="M69.1914 137.499H75.4414L75.4419 131.25H69.1915L69.1914 137.499Z" fill="#231F20"/>
<path d="M69.1915 143.752H75.4415V137.5H69.1915V143.752Z" fill="#909FA3"/>
<path d="M62.9418 137.499H69.1903L69.1903 131.25H62.9419L62.9418 137.499Z" fill="white"/>
<path d="M106.691 143.752H112.94V137.5H106.691V143.752Z" fill="#505B5E"/>
<path d="M81.6919 143.752H87.9419V137.5H81.6919V143.752Z" fill="#231F20"/>
<path d="M100.441 143.752H106.691V137.5H100.441V143.752Z" fill="#231F20"/>
<path d="M94.1915 143.752H100.441V137.5H94.1915V143.752Z" fill="#231F20"/>
<path d="M87.9419 143.752H94.1903V137.5H87.9419V143.752Z" fill="white"/>
<path d="M125.442 37.5L131.69 37.5004V31.25H125.441L125.442 37.5Z" fill="#909FA3"/>
<path d="M162.942 43.7504H169.192V37.5H162.942V43.7504Z" fill="#A77A6E"/>
<path d="M156.691 37.5H162.942L162.942 31.25H156.691L156.691 37.5Z" fill="#A77A6E"/>
<path d="M162.942 37.5H169.192L169.192 31.25H162.942L162.942 37.5Z" fill="#A77A6E"/>
<path d="M162.942 56.25L169.192 56.2504V50H162.942V56.25Z" fill="#A77A6E"/>
<path d="M162.942 125L169.192 125V118.75H162.942V125Z" fill="#909FA3"/>
<path d="M131.69 37.5004L137.943 37.5L137.943 31.25H131.69V37.5004Z" fill="#909FA3"/>
<path d="M162.942 62.5004H169.192V56.2504L162.942 56.25V62.5004Z" fill="#A77A6E"/>
<path d="M137.941 37.5H144.19L144.19 31.25H137.941L137.941 37.5Z" fill="#BFC8CB"/>
<path d="M144.191 37.5H150.442L150.442 31.25H144.191L144.191 37.5Z" fill="#231F20"/>
<path d="M150.442 37.5H156.69L156.69 31.25H150.442L150.442 37.5Z" fill="#7B5950"/>
<path d="M162.942 49.9989H169.192V43.7504H162.942V49.9989Z" fill="#A77A6E"/>
<path d="M162.942 112.499H169.192V106.25H162.942V112.499Z" fill="#231F20"/>
<path d="M162.942 106.25H169.192L169.192 100H162.942L162.942 106.25Z" fill="#6F7C80"/>
<path d="M162.942 118.752H169.192V112.5H162.942V118.752Z" fill="#909FA3"/>
<path d="M162.942 68.7504H169.192L169.192 62.5004H162.942L162.942 68.7504Z" fill="#A77A6E"/>
<path d="M162.942 99.9989H169.192V93.75H162.942V99.9989Z" fill="#909FA3"/>
<path d="M162.942 74.9989H169.192V68.7504H162.942V74.9989Z" fill="#A77A6E"/>
<path d="M162.942 93.75H169.192V87.5H162.942V93.75Z" fill="#A77A6E"/>
<path d="M162.942 81.2504H169.192V75H162.942V81.2504Z" fill="#A77A6E"/>
<path d="M162.942 87.5H169.192L169.192 81.2504H162.942L162.942 87.5Z" fill="#7B5950"/>
<path d="M119.191 99.9989H125.442V93.75H119.191V99.9989Z" fill="#909FA3"/>
<path d="M87.9414 68.7504H94.1903V62.5H87.9414V68.7504Z" fill="#909FA3"/>
<path d="M87.9414 74.9989H94.1903V68.7504H87.9414V74.9989Z" fill="#909FA3"/>
<path d="M87.9414 112.499H94.1903V106.25H87.9414V112.499Z" fill="#909FA3"/>
<path d="M94.1914 68.7504H100.442V62.5H94.1914V68.7504Z" fill="#909FA3"/>
<path d="M100.442 68.7504H106.692V62.5H100.442V68.7504Z" fill="#909FA3"/>
<path d="M87.9415 81.2504H94.1903V75H87.9415V81.2504Z" fill="#909FA3"/>
<path d="M87.9415 87.5004H94.1903V81.2504H87.9415V87.5004Z" fill="#909FA3"/>
<path d="M87.9414 99.9989H94.1903V93.75H87.9414V99.9989Z" fill="#909FA3"/>
<path d="M87.9414 106.25H94.1903L94.1903 100H87.9415L87.9414 106.25Z" fill="#6F7C80"/>
<path d="M87.9414 93.75H94.1903L94.1903 87.5004H87.9415L87.9414 93.75Z" fill="#6F7C80"/>
<path d="M106.692 68.7504H112.94V62.5H106.692V68.7504Z" fill="#909FA3"/>
<path d="M131.691 87.5004H137.943V81.25H131.691V87.5004Z" fill="#6F7C80"/>
<path d="M112.941 68.7504H119.192V62.5H112.941V68.7504Z" fill="#909FA3"/>
<path d="M131.691 93.7503H137.943L137.943 87.5004H131.691L131.691 93.7503Z" fill="#231F20"/>
<path d="M131.691 106.25H137.943V100H131.691V106.25Z" fill="#505B5E"/>
<path d="M131.691 99.9989H137.943L137.943 93.7503H131.691L131.691 99.9989Z" fill="#231F20"/>
<path d="M131.691 81.25H137.943L137.943 75H131.691L131.691 81.25Z" fill="#909FA3"/>
<path d="M119.192 68.7504H125.442V62.5H119.192V68.7504Z" fill="#909FA3"/>
<path d="M125.442 68.7504H131.692V62.5H125.442V68.7504Z" fill="#909FA3"/>
<path d="M131.692 68.7504H137.943V62.5H131.692V68.7504Z" fill="#909FA3"/>
<path d="M131.691 75H137.943L137.943 68.7504H131.692L131.691 75Z" fill="#909FA3"/>
<path d="M137.941 99.9989H144.19V93.75H137.941V99.9989Z" fill="#231F20"/>
<path d="M137.941 87.5004H144.19V81.25H137.941V87.5004Z" fill="#231F20"/>
<path d="M137.941 81.25H144.19V75H137.941V81.25Z" fill="#6F7C80"/>
<path d="M137.941 93.75H144.19L144.19 87.5004H137.941L137.941 93.75Z" fill="#6F7C80"/>
<path d="M137.941 74.9989H144.19V68.75H137.941V74.9989Z" fill="#909FA3"/>
<path d="M131.691 112.499H137.943L137.943 106.25H131.691L131.691 112.499Z" fill="#505B5E"/>
<path d="M94.1914 112.499H100.442V106.25H94.1914V112.499Z" fill="#909FA3"/>
<path d="M150.441 56.2504H156.69V50H150.441V56.2504Z" fill="#BFC8CB"/>
<path d="M137.941 68.75H144.19V62.5H137.941V68.75Z" fill="#909FA3"/>
<path d="M131.692 62.5H137.943L137.943 56.25H131.691L131.692 62.5Z" fill="#909FA3"/>
<path d="M137.941 62.5H144.19L144.19 56.25H137.941L137.941 62.5Z" fill="#909FA3"/>
<path d="M125.442 62.5H131.692L131.691 56.25H125.441L125.442 62.5Z" fill="#909FA3"/>
<path d="M106.691 118.752H112.94V112.5H106.691V118.752Z" fill="#231F20"/>
<path d="M100.441 118.752H106.691V112.5H100.441V118.752Z" fill="#909FA3"/>
<path d="M94.1915 118.752H100.441V112.5H94.1915V118.752Z" fill="#909FA3"/>
<path d="M225.441 87.5H231.693L231.693 81.25H225.441L225.441 87.5Z" fill="#909FA3"/>
<path d="M137.941 112.499H144.19V106.25H137.941V112.499Z" fill="#6F7C80"/>
<path d="M131.691 118.752H137.943V112.5H131.691V118.752Z" fill="#6F7C80"/>
<path d="M137.941 118.752H144.19V112.5H137.941V118.752Z" fill="#6F7C80"/>
<path d="M125.441 118.752H131.69V112.5H125.441V118.752Z" fill="#505B5E"/>
<path d="M119.192 118.752H125.441V112.5H119.192V118.752Z" fill="#231F20"/>
<path d="M125.441 112.499H131.69V106.25H125.441V112.499Z" fill="#505B5E"/>
<path d="M100.441 93.7504H106.692V87.5H100.441V93.7504Z" fill="#909FA3"/>
<path d="M100.441 87.5H106.692L106.692 81.25H100.441L100.441 87.5Z" fill="#909FA3"/>
<path d="M119.192 62.5H125.442L125.441 56.25H119.191L119.192 62.5Z" fill="#909FA3"/>
<path d="M100.441 81.25H106.692V75H100.441V81.25Z" fill="#909FA3"/>
<path d="M100.441 99.9989H106.692V93.7504H100.441V99.9989Z" fill="#909FA3"/>
<path d="M112.941 81.2504H119.192V75H112.941V81.2504Z" fill="#231F20"/>
<path d="M119.191 106.25L125.441 106.25L125.442 100H119.191V106.25Z" fill="#6F7C80"/>
<path d="M125.441 106.25H131.69L131.691 100H125.442L125.441 106.25Z" fill="#231F20"/>
<path d="M112.941 106.25H119.191V100H112.941V106.25Z" fill="#909FA3"/>
<path d="M106.691 106.25H112.94V100H106.691V106.25Z" fill="#909FA3"/>
<path d="M106.692 99.9989H112.94V93.75L106.692 93.7504V99.9989Z" fill="#909FA3"/>
<path d="M112.941 93.7504L119.191 93.75L119.192 87.5H112.941V93.7504Z" fill="#909FA3"/>
<path d="M106.692 93.7504L112.94 93.75V87.5H106.692V93.7504Z" fill="#909FA3"/>
<path d="M106.692 87.5H112.94L112.94 81.25H106.692L106.692 87.5Z" fill="#909FA3"/>
<path d="M112.941 87.5H119.192L119.192 81.2504H112.941L112.941 87.5Z" fill="#BFC8CB"/>
<path d="M119.192 81.2504H125.442V75H119.192V81.2504Z" fill="#909FA3"/>
<path d="M119.191 93.75H125.442V87.5H119.192L119.191 93.75Z" fill="#909FA3"/>
<path d="M112.941 99.9989H119.191V93.75L112.941 93.7504V99.9989Z" fill="#909FA3"/>
<path d="M119.192 87.5H125.442L125.442 81.2504H119.192L119.192 87.5Z" fill="#BFC8CB"/>
<path d="M137.941 149.999H144.19V143.75H137.941V149.999Z" fill="#909FA3"/>
<path d="M106.692 81.25H112.94V75H106.692V81.25Z" fill="#909FA3"/>
<path d="M94.1914 99.9989H100.441V93.7504L94.1914 93.75V99.9989Z" fill="#909FA3"/>
<path d="M100.442 106.25L106.691 106.25V100H100.441L100.442 106.25Z" fill="#909FA3"/>
<path d="M94.1914 106.25H100.442L100.441 100H94.1915L94.1914 106.25Z" fill="#6F7C80"/>
<path d="M94.1914 93.75L100.441 93.7504V87.5H94.1914V93.75Z" fill="#6F7C80"/>
<path d="M94.1914 87.5H100.441L100.441 81.25H94.1915L94.1914 87.5Z" fill="#909FA3"/>
<path d="M100.442 112.499H106.692L106.691 106.25L100.442 106.25V112.499Z" fill="#909FA3"/>
<path d="M112.941 112.499H119.192L119.191 106.25H112.941L112.941 112.499Z" fill="#6F7C80"/>
<path d="M119.192 112.499H125.441V106.25L119.191 106.25L119.192 112.499Z" fill="#231F20"/>
<path d="M94.1915 81.25H100.441V75H94.1915V81.25Z" fill="#909FA3"/>
<path d="M106.692 112.499H112.94L112.94 106.25H106.691L106.692 112.499Z" fill="#909FA3"/>
<path d="M112.941 74.9989H119.192V68.7504H112.941V74.9989Z" fill="#231F20"/>
<path d="M125.441 74.9989H131.692V68.7504H125.442L125.441 74.9989Z" fill="#909FA3"/>
<path d="M125.442 87.5L131.69 87.5004V81.25L125.442 81.2504L125.442 87.5Z" fill="#909FA3"/>
<path d="M125.442 81.2504L131.69 81.25L131.691 75H125.442V81.2504Z" fill="#909FA3"/>
<path d="M125.442 93.75L131.691 93.7503L131.69 87.5004L125.442 87.5V93.75Z" fill="#909FA3"/>
<path d="M106.691 74.9989H112.94V68.7504H106.692L106.691 74.9989Z" fill="#909FA3"/>
<path d="M100.441 74.9989H106.691L106.692 68.7504H100.442L100.441 74.9989Z" fill="#909FA3"/>
<path d="M94.1914 74.9989H100.441L100.442 68.7504H94.1914V74.9989Z" fill="#909FA3"/>
<path d="M119.192 74.9989H125.441L125.442 68.7504H119.192V74.9989Z" fill="#909FA3"/>
<path d="M125.442 99.9989H131.69V93.75H125.442V99.9989Z" fill="#6F7C80"/>
<path d="M137.941 106.25H144.19L144.19 100H137.941L137.941 106.25Z" fill="#505B5E"/>
<path d="M75.4418 112.499H81.6918V106.25H75.4418V112.499Z" fill="#909FA3"/>
<path d="M75.4418 106.25H81.6918L81.6919 100H75.4419L75.4418 106.25Z" fill="#6F7C80"/>
<path d="M75.4419 118.752H81.6919V112.5H75.4419V118.752Z" fill="#909FA3"/>
<path d="M75.4418 99.9989H81.6918V93.75L75.4418 93.7504V99.9989Z" fill="#909FA3"/>
<path d="M75.4418 93.7504L81.6918 93.75V87.5L75.4419 87.5004L75.4418 93.7504Z" fill="#909FA3"/>
<path d="M81.6918 131.25H87.9418L87.9419 125H81.6919L81.6918 131.25Z" fill="#6F7C80"/>
<path d="M75.4419 125H81.6919V118.75H75.4419V125Z" fill="#231F20"/>
<path d="M75.4419 87.5004L81.6918 87.5L81.6919 81.25H75.4419V87.5004Z" fill="#909FA3"/>
<path d="M87.9418 131.25H94.1903L94.1903 125H87.9419L87.9418 131.25Z" fill="#6F7C80"/>
<path d="M81.6919 125H87.9419V118.75H81.6919V125Z" fill="#909FA3"/>
<path d="M87.9415 56.2504H94.1903V50H87.9415V56.2504Z" fill="#909FA3"/>
<path d="M94.1914 131.25H100.442L100.442 125H94.1915L94.1914 131.25Z" fill="#231F20"/>
<path d="M94.1915 56.2504H100.442V50H94.1915V56.2504Z" fill="#909FA3"/>
<path d="M100.442 56.2504H106.692V50H100.442V56.2504Z" fill="#909FA3"/>
<path d="M81.6915 56.2504H87.9415V50H81.6915V56.2504Z" fill="#909FA3"/>
<path d="M75.4419 62.5004H81.6919L81.6915 56.2504H75.4419V62.5004Z" fill="#909FA3"/>
<path d="M75.4419 56.2504H81.6915V50H75.4419V56.2504Z" fill="#909FA3"/>
<path d="M75.4418 68.75L81.6918 68.7504L81.6919 62.5004H75.4419L75.4418 68.75Z" fill="#909FA3"/>
<path d="M75.4418 74.9989H81.6918V68.7504L75.4418 68.75V74.9989Z" fill="#909FA3"/>
<path d="M75.4419 81.25H81.6919V75H75.4419V81.25Z" fill="#909FA3"/>
<path d="M100.442 131.25H106.692L106.692 125H100.442L100.442 131.25Z" fill="white"/>
<path d="M150.441 93.7504H156.69V87.5H150.441V93.7504Z" fill="#A77A6E"/>
<path d="M150.441 87.5H156.69L156.69 81.25H150.441L150.441 87.5Z" fill="#A77A6E"/>
<path d="M150.441 99.9989H156.69V93.7504H150.441V99.9989Z" fill="#909FA3"/>
<path d="M150.441 106.25H156.69V100H150.441V106.25Z" fill="#6F7C80"/>
<path d="M106.692 56.2504H112.94V50H106.692V56.2504Z" fill="#909FA3"/>
<path d="M150.441 74.9989H156.69V68.75H150.441V74.9989Z" fill="#231F20"/>
<path d="M150.441 81.25H156.69V75H150.441V81.25Z" fill="#A77A6E"/>
<path d="M150.441 68.75H156.69V62.5H150.441V68.75Z" fill="#909FA3"/>
<path d="M150.441 62.5H156.69L156.69 56.2504H150.441L150.441 62.5Z" fill="#909FA3"/>
<path d="M150.441 118.752H156.69V112.5H150.441V118.752Z" fill="#909FA3"/>
<path d="M150.441 112.499H156.69L156.69 106.25H150.441L150.441 112.499Z" fill="#231F20"/>
<path d="M119.191 131.25H125.442L125.442 125H119.191L119.191 131.25Z" fill="#505B5E"/>
<path d="M112.941 131.25H119.191L119.191 125H112.941L112.941 131.25Z" fill="#231F20"/>
<path d="M125.442 131.25H131.69L131.69 125H125.442L125.442 131.25Z" fill="#6F7C80"/>
<path d="M150.441 125H156.69V118.75H150.441V125Z" fill="#909FA3"/>
<path d="M106.692 131.25H112.94L112.94 125H106.692L106.692 131.25Z" fill="white"/>
<path d="M144.191 131.25H150.441L150.441 125L144.191 125L144.191 131.25Z" fill="#909FA3"/>
<path d="M150.441 131.25H156.69L156.69 125H150.441L150.441 131.25Z" fill="#909FA3"/>
<path d="M131.691 131.25L137.943 131.25L137.943 125H131.691V131.25Z" fill="#909FA3"/>
<path d="M137.941 131.25H144.19L144.19 125H137.941L137.941 131.25Z" fill="#909FA3"/>
<path d="M81.6918 112.499H87.9414V106.25H81.6918V112.499Z" fill="#909FA3"/>
<path d="M87.9415 118.752H94.1903V112.5H87.9415V118.752Z" fill="#6F7C80"/>
<path d="M112.941 56.2504L119.191 56.25L119.192 50H112.941V56.2504Z" fill="#909FA3"/>
<path d="M112.941 62.5H119.192L119.191 56.25L112.941 56.2504L112.941 62.5Z" fill="#909FA3"/>
<path d="M81.6918 106.25H87.9414L87.9415 100H81.6919L81.6918 106.25Z" fill="#6F7C80"/>
<path d="M81.6918 99.9989H87.9414V93.75H81.6918V99.9989Z" fill="#909FA3"/>
<path d="M94.1915 125H100.442V118.75H94.1915V125Z" fill="#909FA3"/>
<path d="M100.442 125H106.692V118.75H100.442V125Z" fill="#231F20"/>
<path d="M106.692 125H112.94V118.75H106.692V125Z" fill="white"/>
<path d="M87.9419 125H94.1903V118.75H87.9419V125Z" fill="#909FA3"/>
<path d="M81.6918 93.75H87.9414L87.9415 87.5004L81.6918 87.5V93.75Z" fill="#6F7C80"/>
<path d="M81.6919 81.25L87.9415 81.2504V75H81.6919V81.25Z" fill="#909FA3"/>
<path d="M81.6918 87.5L87.9415 87.5004V81.2504L81.6919 81.25L81.6918 87.5Z" fill="#909FA3"/>
<path d="M94.1914 62.5H100.442L100.442 56.2504H94.1915L94.1914 62.5Z" fill="#909FA3"/>
<path d="M100.442 62.5H106.692L106.692 56.2504H100.442L100.442 62.5Z" fill="#909FA3"/>
<path d="M106.692 62.5H112.94L112.94 56.2504H106.692L106.692 62.5Z" fill="#909FA3"/>
<path d="M87.9414 62.5H94.1903L94.1903 56.2504H87.9415L87.9414 62.5Z" fill="#909FA3"/>
<path d="M81.6918 74.9989H87.9414V68.7504H81.6918V74.9989Z" fill="#909FA3"/>
<path d="M112.941 125H119.191L119.192 118.75H112.941V125Z" fill="white"/>
<path d="M81.6919 62.5004L87.9414 62.5L87.9415 56.2504H81.6915L81.6919 62.5004Z" fill="#909FA3"/>
<path d="M81.6918 68.7504H87.9414V62.5L81.6919 62.5004L81.6918 68.7504Z" fill="#909FA3"/>
<path d="M81.6919 118.752H87.9415V112.5H81.6919V118.752Z" fill="#6F7C80"/>
<path d="M144.191 68.7504L150.441 68.75V62.5H144.191V68.7504Z" fill="#909FA3"/>
<path d="M144.191 62.5H150.441L150.441 56.2504L144.191 56.25L144.191 62.5Z" fill="#909FA3"/>
<path d="M144.191 81.2504L150.441 81.25V75H144.191V81.2504Z" fill="#231F20"/>
<path d="M144.191 74.9989H150.441V68.75L144.191 68.7504V74.9989Z" fill="#6F7C80"/>
<path d="M144.191 56.25L150.441 56.2504V50H144.191V56.25Z" fill="#909FA3"/>
<path d="M119.191 125H125.442V118.75H119.192L119.191 125Z" fill="#231F20"/>
<path d="M119.191 56.25H125.441L125.442 50H119.192L119.191 56.25Z" fill="#909FA3"/>
<path d="M125.441 56.25H131.691L131.692 50H125.442L125.441 56.25Z" fill="#909FA3"/>
<path d="M137.941 56.25H144.19V50H137.941V56.25Z" fill="#909FA3"/>
<path d="M131.691 56.2485H137.943L137.943 49.9988L131.692 49.9989L131.691 56.2485Z" fill="#909FA3"/>
<path d="M144.191 87.5004L150.441 87.5L150.441 81.25L144.191 81.2504V87.5004Z" fill="#A77A6E"/>
<path d="M137.941 125H144.19V118.75H137.941V125Z" fill="#909FA3"/>
<path d="M131.691 124.998H137.943V118.748H131.691V124.998Z" fill="#6F7C80"/>
<path d="M144.191 125L150.441 125V118.75H144.191V125Z" fill="#909FA3"/>
<path d="M144.191 93.7504H150.441V87.5L144.191 87.5004L144.191 93.7504Z" fill="#909FA3"/>
<path d="M125.442 125H131.69V118.75H125.442V125Z" fill="#6F7C80"/>
<path d="M144.191 106.25H150.441V100H144.191V106.25Z" fill="#231F20"/>
<path d="M144.191 118.752H150.441V112.5H144.191V118.752Z" fill="#909FA3"/>
<path d="M144.191 99.9989H150.441V93.7504H144.191V99.9989Z" fill="#6F7C80"/>
<path d="M144.191 112.499H150.441L150.441 106.25H144.191L144.191 112.499Z" fill="#6F7C80"/>
<path d="M131.691 168.75L137.943 168.75L137.943 162.5H131.691V168.75Z" fill="#909FA3"/>
<path d="M37.9414 99.9989H44.1903V93.75H37.9414V99.9989Z" fill="#909FA3"/>
<path d="M37.9415 87.5004H44.1903V81.25H37.9415V87.5004Z" fill="#A77A6E"/>
<path d="M37.9415 81.25H44.1903V75H37.9415V81.25Z" fill="#A77A6E"/>
<path d="M37.9414 74.9989H44.1903V68.75H37.9414V74.9989Z" fill="#231F20"/>
<path d="M37.9414 68.75L44.1918 68.7504V62.5H37.9414V68.75Z" fill="#231F20"/>
<path d="M37.9415 106.25H44.1903V100H37.9415V106.25Z" fill="#6F7C80"/>
<path d="M37.9414 112.499H44.1903L44.1903 106.25H37.9415L37.9414 112.499Z" fill="#231F20"/>
<path d="M37.9414 93.75H44.1903L44.1903 87.5004H37.9415L37.9414 93.75Z" fill="#909FA3"/>
<path d="M37.9415 18.7504H44.1903V12.5H37.9415V18.7504Z" fill="#909FA3"/>
<path d="M37.9414 24.9989H44.1903L44.1903 18.7504H37.9415L37.9414 24.9989Z" fill="#231F20"/>
<path d="M44.1915 18.7504H50.4419V12.5H44.1915V18.7504Z" fill="#909FA3"/>
<path d="M50.4419 18.7504H56.6919V12.5H50.4419V18.7504Z" fill="#909FA3"/>
<path d="M37.9414 62.5H44.1918L44.1919 56.25H37.9415L37.9414 62.5Z" fill="#231F20"/>
<path d="M37.9415 56.25H44.1919V50H37.9415V56.25Z" fill="#231F20"/>
<path d="M37.9414 49.9989H44.1918V43.75H37.9414V49.9989Z" fill="#A77A6E"/>
<path d="M37.9415 37.5004H44.1903V31.25H37.9415V37.5004Z" fill="#A77A6E"/>
<path d="M37.9414 43.75L44.1903 43.7504L44.1903 37.5004H37.9415L37.9414 43.75Z" fill="#A77A6E"/>
<path d="M87.9415 168.75H94.1903L94.1903 162.5H87.9414L87.9415 168.75Z" fill="#909FA3"/>
<path d="M75.4415 168.75H81.6915L81.6918 162.5H75.4414L75.4415 168.75Z" fill="#909FA3"/>
<path d="M69.1915 168.75H75.4415L75.4414 162.5H69.1914L69.1915 168.75Z" fill="#231F20"/>
<path d="M81.6915 168.75H87.9415L87.9414 162.5H81.6918L81.6915 168.75Z" fill="#231F20"/>
<path d="M100.442 168.75H106.691L106.692 162.5H100.441L100.442 168.75Z" fill="#6F7C80"/>
<path d="M106.691 168.75H112.94L112.94 162.5H106.692L106.691 168.75Z" fill="#231F20"/>
<path d="M125.441 168.75H131.69L131.69 162.5H125.441L125.441 168.75Z" fill="#231F20"/>
<path d="M94.1915 168.75H100.442L100.441 162.5H94.1914L94.1915 168.75Z" fill="#909FA3"/>
<path d="M56.6954 18.7504H62.9443V12.5H56.6954V18.7504Z" fill="#BFC8CB"/>
<path d="M37.9414 31.2489H44.1903V25H37.9414V31.2489Z" fill="#7B5950"/>
<path d="M181.691 62.5004H187.94V56.25H181.691V62.5004Z" fill="#A77A6E"/>
<path d="M181.691 68.7504H187.94L187.94 62.5004H181.691L181.691 68.7504Z" fill="#A77A6E"/>
<path d="M181.691 74.9989H187.94V68.7504H181.691V74.9989Z" fill="#231F20"/>
<path d="M181.691 93.7504H187.94V87.5H181.691V93.7504Z" fill="#231F20"/>
<path d="M181.691 81.2504H187.94V75H181.691V81.2504Z" fill="#909FA3"/>
<path d="M181.691 87.5H187.94L187.94 81.2504H181.691L181.691 87.5Z" fill="#6F7C80"/>
<path d="M181.691 43.7504H187.94V37.5H181.691V43.7504Z" fill="#231F20"/>
<path d="M181.691 37.5H187.94L187.94 31.25H181.691L181.691 37.5Z" fill="#909FA3"/>
<path d="M181.691 31.2489H187.94V25H181.691V31.2489Z" fill="#BFC8CB"/>
<path d="M181.691 56.25H187.94V50H181.691V56.25Z" fill="#7B5950"/>
<path d="M181.691 49.9989H187.94V43.7504H181.691V49.9989Z" fill="#231F20"/>
<path d="M181.691 143.752H187.94V137.5H181.691V143.752Z" fill="#6F7C80"/>
<path d="M181.691 137.499H187.94V131.25H181.691V137.499Z" fill="#6F7C80"/>
<path d="M181.691 131.25H187.94L187.94 125H181.691L181.691 131.25Z" fill="#909FA3"/>
<path d="M181.691 149.999H187.94V143.75H181.691V149.999Z" fill="#505B5E"/>
<path d="M144.191 149.999H150.442V143.75H144.191V149.999Z" fill="#909FA3"/>
<path d="M181.691 106.25H187.94V100H181.691V106.25Z" fill="#909FA3"/>
<path d="M181.691 112.499H187.94L187.94 106.25H181.691L181.691 112.499Z" fill="#909FA3"/>
<path d="M181.691 125H187.94V118.75H181.691V125Z" fill="#909FA3"/>
<path d="M181.691 99.9989H187.94V93.7504H181.691V99.9989Z" fill="#909FA3"/>
<path d="M137.941 18.7504H144.19V12.5H137.941V18.7504Z" fill="#BFC8CB"/>
<path d="M94.1915 18.7504H100.442V12.5H94.1915V18.7504Z" fill="#BFC8CB"/>
<path d="M125.441 18.7504H131.69V12.5H125.441V18.7504Z" fill="#BFC8CB"/>
<path d="M100.442 18.7504H106.692V12.5H100.442V18.7504Z" fill="#BFC8CB"/>
<path d="M112.941 18.7504H119.192V12.5H112.941V18.7504Z" fill="#BFC8CB"/>
<path d="M119.192 18.7504H125.441V12.5H119.192V18.7504Z" fill="#BFC8CB"/>
<path d="M106.692 18.7504H112.941V12.5H106.692V18.7504Z" fill="#BFC8CB"/>
<path d="M75.4415 18.7504H81.6919V12.5H75.4415V18.7504Z" fill="#BFC8CB"/>
<path d="M181.691 24.9989H187.94V18.75H181.691V24.9989Z" fill="#231F20"/>
<path d="M87.9415 18.7504H94.1903V12.5H87.9415V18.7504Z" fill="#BFC8CB"/>
<path d="M81.6919 18.7504H87.9415V12.5H81.6919V18.7504Z" fill="#BFC8CB"/>
<path d="M69.1915 18.7504H75.4415V12.5H69.1915V18.7504Z" fill="#BFC8CB"/>
<path d="M131.691 18.7504H137.943V12.5H131.691V18.7504Z" fill="#231F20"/>
<path d="M175.441 18.7504H181.693V12.5H175.441V18.7504Z" fill="#231F20"/>
<path d="M181.691 18.75H187.94L187.94 12.5H181.691L181.691 18.75Z" fill="#BFC8CB"/>
<path d="M162.941 18.7504H169.192V12.5H162.941V18.7504Z" fill="#909FA3"/>
<path d="M169.192 18.7504H175.44V12.5H169.192V18.7504Z" fill="#BFC8CB"/>
<path d="M156.691 18.7504H162.941V12.5H156.691V18.7504Z" fill="#909FA3"/>
<path d="M62.9415 18.7504H69.1915V12.5H62.9415V18.7504Z" fill="#231F20"/>
<path d="M144.191 18.7504H150.442V12.5H144.191V18.7504Z" fill="#909FA3"/>
<path d="M150.442 18.7504H156.69V12.5H150.442V18.7504Z" fill="#909FA3"/>
<path d="M50.4419 12.5H56.6919V6.25H50.4415L50.4419 12.5Z" fill="#BFC8CB"/>
<path d="M44.1914 12.4985H50.4418L50.4418 6.24888H44.1914L44.1914 12.4985Z" fill="#BFC8CB"/>
<path d="M37.9415 12.5H44.1903V6.25H37.9415V12.5Z" fill="#BFC8CB"/>
<path d="M56.6919 12.5H62.9415L62.9419 6.25H56.6919V12.5Z" fill="#231F20"/>
<path d="M31.6916 31.2491L37.9414 31.2489V25L31.6916 25.0002V31.2491Z" fill="#231F20"/>
<path d="M31.6916 24.9986L37.9414 24.9989L37.9415 18.7504H31.6919L31.6916 24.9986Z" fill="#909FA3"/>
<path d="M137.941 168.75H144.19L144.19 162.5H137.941L137.941 168.75Z" fill="#6F7C80"/>
<path d="M31.6919 12.5H37.9415V6.25H31.6915L31.6919 12.5Z" fill="#231F20"/>
<path d="M31.6919 18.7504H37.9415V12.5H31.6919V18.7504Z" fill="#BFC8CB"/>
<path d="M31.6917 37.5004H37.9415V31.25L31.6916 31.2491L31.6917 37.5004Z" fill="#7B5950"/>
<path d="M106.692 12.5L112.94 12.5004V6.25H106.691L106.692 12.5Z" fill="#BFC8CB"/>
<path d="M112.941 12.5H119.192V6.25H112.941V12.5Z" fill="#BFC8CB"/>
<path d="M119.192 12.5H125.441L125.442 6.25H119.192V12.5Z" fill="#BFC8CB"/>
<path d="M125.441 12.5H131.69V6.25H125.442L125.441 12.5Z" fill="#231F20"/>
<path d="M100.445 12.5004H106.694V6.25H100.445V12.5004Z" fill="#BFC8CB"/>
<path d="M75.4415 12.5H81.6919V6.25H75.4415V12.5Z" fill="#231F20"/>
<path d="M81.6919 12.5H87.9415L87.9419 6.25H81.6919V12.5Z" fill="#BFC8CB"/>
<path d="M87.9415 12.5H94.1915L94.1919 6.25H87.9419L87.9415 12.5Z" fill="#BFC8CB"/>
<path d="M94.1915 12.5H100.442V6.25H94.1919L94.1915 12.5Z" fill="#BFC8CB"/>
<path d="M181.691 156.25H187.94V150H181.691V156.25Z" fill="#231F20"/>
<path d="M31.6915 106.25H37.9415V100H31.6915V106.25Z" fill="#231F20"/>
<path d="M31.6916 43.75L37.9414 43.75L37.9415 37.5004H31.6917L31.6916 43.75Z" fill="#A77A6E"/>
<path d="M31.6918 68.7504L37.9414 68.75V62.5L31.6919 62.5004L31.6918 68.7504Z" fill="#A77A6E"/>
<path d="M31.6919 62.5004L37.9414 62.5L37.9415 56.25H31.6919V62.5004Z" fill="#A77A6E"/>
<path d="M31.6919 56.25H37.9415V50H31.6915L31.6919 56.25Z" fill="#A77A6E"/>
<path d="M31.6916 49.9988L37.9414 49.9989V43.75L31.6916 43.75V49.9988Z" fill="#A77A6E"/>
<path d="M31.6914 74.9989H37.9414V68.75L31.6918 68.7504L31.6914 74.9989Z" fill="#A77A6E"/>
<path d="M31.6919 87.5004H37.9415V81.25L31.6917 81.2504L31.6919 87.5004Z" fill="#A77A6E"/>
<path d="M31.6918 99.9989H37.9414V93.75H31.6918V99.9989Z" fill="#6F7C80"/>
<path d="M31.6918 93.75H37.9414L37.9415 87.5004H31.6919L31.6918 93.75Z" fill="#909FA3"/>
<path d="M31.6917 81.2504L37.9415 81.25V75H31.6917V81.2504Z" fill="#A77A6E"/>
<path d="M69.1954 12.5004H75.4458V6.25H69.1954V12.5004Z" fill="#231F20"/>
<path d="M187.941 131.25L194.191 131.25L194.191 125L187.941 125V131.25Z" fill="#909FA3"/>
<path d="M187.941 125L194.191 125V118.75H187.941V125Z" fill="#909FA3"/>
<path d="M187.941 137.499H194.191V131.25L187.941 131.25L187.941 137.499Z" fill="#6F7C80"/>
<path d="M187.941 149.999H194.191V143.75H187.941V149.999Z" fill="#505B5E"/>
<path d="M187.941 143.752H194.191V137.5H187.941V143.752Z" fill="#6F7C80"/>
<path d="M187.941 156.25L194.191 156.25V150H187.941V156.25Z" fill="#231F20"/>
<path d="M187.941 93.7504H194.191L194.191 87.5004L187.941 87.5V93.7504Z" fill="#909FA3"/>
<path d="M187.941 106.25H194.191V100H187.941V106.25Z" fill="#909FA3"/>
<path d="M187.941 118.752H194.191V112.5H187.941V118.752Z" fill="#909FA3"/>
<path d="M187.941 112.499H194.191L194.191 106.25H187.941L187.941 112.499Z" fill="#909FA3"/>
<path d="M187.941 99.9989H194.191V93.7504H187.941V99.9989Z" fill="#909FA3"/>
<path d="M162.942 168.75L169.192 168.75V162.5H162.941L162.942 168.75Z" fill="#505B5E"/>
<path d="M150.442 168.75H156.69L156.69 162.5H150.441L150.442 168.75Z" fill="#6F7C80"/>
<path d="M156.691 168.75H162.942L162.941 162.5H156.691L156.691 168.75Z" fill="#231F20"/>
<path d="M187.941 162.5L194.191 162.5V156.25L187.941 156.25V162.5Z" fill="#231F20"/>
<path d="M144.191 168.75H150.442L150.441 162.5H144.191L144.191 168.75Z" fill="#909FA3"/>
<path d="M137.941 12.5H144.19V6.25H137.941V12.5Z" fill="#231F20"/>
<path d="M187.941 168.75H194.191V162.5L187.941 162.5V168.75Z" fill="#231F20"/>
<path d="M175.441 168.75H181.693L181.693 162.5H175.441L175.441 168.75Z" fill="#231F20"/>
<path d="M169.192 168.75H175.44V162.5H169.192V168.75Z" fill="#505B5E"/>
<path d="M187.941 24.9989H194.191V18.75H187.941V24.9989Z" fill="#909FA3"/>
<path d="M181.691 12.5H187.94V6.25H181.691V12.5Z" fill="#231F20"/>
<path d="M187.941 18.75H194.191L194.191 12.5H187.941L187.941 18.75Z" fill="#BFC8CB"/>
<path d="M187.941 12.5H194.191V6.25H187.941V12.5Z" fill="#231F20"/>
<path d="M169.192 12.5H175.44V6.25H169.191L169.192 12.5Z" fill="#231F20"/>
<path d="M175.441 12.4985H181.693V6.24805H175.441V12.4985Z" fill="#231F20"/>
<path d="M162.941 12.5H169.192L169.191 6.25H162.941V12.5Z" fill="#BFC8CB"/>
<path d="M150.442 12.5H156.69V6.25H150.441L150.442 12.5Z" fill="#BFC8CB"/>
<path d="M144.191 12.5H150.442L150.441 6.25H144.191V12.5Z" fill="#BFC8CB"/>
<path d="M156.691 12.5H162.941V6.25H156.691V12.5Z" fill="#BFC8CB"/>
<path d="M187.941 87.5L194.191 87.5004V81.25H187.941L187.941 87.5Z" fill="#231F20"/>
<path d="M187.941 31.2489H194.191V25H187.941V31.2489Z" fill="#231F20"/>
<path d="M187.941 74.9989H194.191V68.7504L187.941 68.75V74.9989Z" fill="#909FA3"/>
<path d="M187.941 62.5004L194.191 62.5L194.191 56.2504L187.941 56.25V62.5004Z" fill="#231F20"/>
<path d="M187.941 81.25H194.191V75H187.941V81.25Z" fill="#6F7C80"/>
<path d="M187.941 68.75L194.191 68.7504V62.5L187.941 62.5004L187.941 68.75Z" fill="#231F20"/>
<path d="M187.941 37.5004L194.191 37.5L194.191 31.25H187.941V37.5004Z" fill="#231F20"/>
<path d="M187.941 43.7504L194.191 43.75V37.5L187.941 37.5004L187.941 43.7504Z" fill="#BFC8CB"/>
<path d="M187.941 49.9989H194.191V43.75L187.941 43.7504V49.9989Z" fill="#909FA3"/>
<path d="M187.941 56.25L194.191 56.2504V50H187.941V56.25Z" fill="#231F20"/>
<path d="M181.691 118.752H187.94V112.5H181.691V118.752Z" fill="#909FA3"/>
<path d="M50.4414 99.9989H56.6914V93.75H50.4414V99.9989Z" fill="#6F7C80"/>
<path d="M50.4414 112.499H56.6914V106.25H50.4414V112.499Z" fill="#231F20"/>
<path d="M50.4414 106.25H56.6914L56.6915 100H50.4415L50.4414 106.25Z" fill="#231F20"/>
<path d="M50.4414 137.499H56.6914L56.6915 131.25L50.4414 131.25V137.499Z" fill="#231F20"/>
<path d="M50.4415 143.752H56.6915V137.5H50.4415V143.752Z" fill="white"/>
<path d="M50.4415 149.999H56.6919V143.75H50.4415V149.999Z" fill="#231F20"/>
<path d="M50.4415 56.2504L56.6915 56.25V50H50.4415V56.2504Z" fill="#909FA3"/>
<path d="M50.4414 49.9989H56.6914V43.75H50.4414V49.9989Z" fill="#BFC8CB"/>
<path d="M50.4415 62.5004H56.6915V56.25L50.4415 56.2504V62.5004Z" fill="#909FA3"/>
<path d="M50.4415 37.5004H56.6915V31.25H50.4415V37.5004Z" fill="#231F20"/>
<path d="M50.4414 43.75H56.6914L56.6915 37.5004H50.4415L50.4414 43.75Z" fill="#BFC8CB"/>
<path d="M50.4415 87.5004H56.6915V81.25H50.4415V87.5004Z" fill="#231F20"/>
<path d="M50.4415 81.25H56.6915V75H50.4415V81.25Z" fill="#909FA3"/>
<path d="M50.4414 68.7504H56.6914L56.6915 62.5004H50.4415L50.4414 68.7504Z" fill="#909FA3"/>
<path d="M50.4414 93.75H56.6914L56.6915 87.5004H50.4415L50.4414 93.75Z" fill="#A77A6E"/>
<path d="M50.4414 74.9989H56.6914V68.7504H50.4414V74.9989Z" fill="#909FA3"/>
<path d="M150.441 156.25H156.69V150H150.441V156.25Z" fill="#6F7C80"/>
<path d="M144.191 156.25H150.441V150H144.191V156.25Z" fill="#909FA3"/>
<path d="M137.941 156.25H144.19V150H137.941V156.25Z" fill="#909FA3"/>
<path d="M156.691 156.25H162.942V150H156.691V156.25Z" fill="#231F20"/>
<path d="M131.691 156.25H137.943V150H131.691V156.25Z" fill="#909FA3"/>
<path d="M50.4414 31.2489H56.6918V25H50.4414V31.2489Z" fill="#231F20"/>
<path d="M175.441 149.999H181.693V143.75H175.441V149.999Z" fill="#505B5E"/>
<path d="M125.441 156.25H131.69V150H125.441V156.25Z" fill="#231F20"/>
<path d="M175.441 156.25H181.693V150H175.441V156.25Z" fill="#231F20"/>
<path d="M169.191 156.25H175.44V150H169.191V156.25Z" fill="#231F20"/>
<path d="M162.942 156.25H169.191V150H162.942V156.25Z" fill="#231F20"/>
<path d="M81.6914 156.25H87.9418V150H81.6914V156.25Z" fill="#231F20"/>
<path d="M75.4414 156.25H81.6914V150H75.4414V156.25Z" fill="#909FA3"/>
<path d="M69.1914 156.25H75.4414V150H69.1914V156.25Z" fill="#231F20"/>
<path d="M87.9418 156.25H94.1903V150H87.9418V156.25Z" fill="#909FA3"/>
<path d="M100.441 156.25H106.692V150H100.441V156.25Z" fill="#231F20"/>
<path d="M106.692 156.25H112.94V150H106.692V156.25Z" fill="#231F20"/>
<path d="M112.941 156.25H119.192V150H112.941V156.25Z" fill="#231F20"/>
<path d="M94.1914 156.25H100.441V150H94.1914V156.25Z" fill="#909FA3"/>
<path d="M119.192 156.25H125.441V150H119.192V156.25Z" fill="#231F20"/>
<path d="M169.192 81.2504H175.44V75H169.192V81.2504Z" fill="#A77A6E"/>
<path d="M175.441 143.752H181.693V137.5H175.441V143.752Z" fill="#6F7C80"/>
<path d="M169.192 93.75L175.44 93.7504V87.5H169.192V93.75Z" fill="#909FA3"/>
<path d="M56.6918 31.2489H62.9418V25H56.6918V31.2489Z" fill="#BFC8CB"/>
<path d="M169.192 99.9989H175.44V93.7504L169.192 93.75V99.9989Z" fill="#909FA3"/>
<path d="M169.192 112.499H175.44V106.25H169.192V112.499Z" fill="#909FA3"/>
<path d="M169.192 106.25H175.44L175.44 100H169.192L169.192 106.25Z" fill="#231F20"/>
<path d="M169.192 56.2504H175.44V50H169.192V56.2504Z" fill="#A77A6E"/>
<path d="M169.192 74.9989H175.44V68.75L169.192 68.7504V74.9989Z" fill="#A77A6E"/>
<path d="M169.192 62.5004H175.44V56.2504H169.192V62.5004Z" fill="#A77A6E"/>
<path d="M169.192 49.9989H175.44V43.75L169.192 43.7504V49.9989Z" fill="#A77A6E"/>
<path d="M169.192 68.7504L175.44 68.75L175.44 62.5004H169.192L169.192 68.7504Z" fill="#A77A6E"/>
<path d="M162.941 149.999H169.192V143.75H162.941V149.999Z" fill="#505B5E"/>
<path d="M156.691 149.999H162.941V143.75H156.691V149.999Z" fill="#231F20"/>
<path d="M169.192 149.999H175.44V143.75H169.192V149.999Z" fill="#505B5E"/>
<path d="M150.442 149.999H156.69V143.75H150.442V149.999Z" fill="#6F7C80"/>
<path d="M169.192 125L175.44 125V118.75H169.192V125Z" fill="#6F7C80"/>
<path d="M169.192 131.25L175.44 131.25V125L169.192 125L169.192 131.25Z" fill="#6F7C80"/>
<path d="M169.192 143.752H175.44V137.5H169.192V143.752Z" fill="#505B5E"/>
<path d="M169.192 118.752H175.44V112.5H169.192V118.752Z" fill="#909FA3"/>
<path d="M169.192 87.5H175.44L175.44 81.2504H169.192L169.192 87.5Z" fill="#A77A6E"/>
<path d="M94.1914 31.2489H100.442V25H94.1914V31.2489Z" fill="#909FA3"/>
<path d="M87.9414 31.2489H94.1903V25H87.9414V31.2489Z" fill="#909FA3"/>
<path d="M100.442 31.2489H106.692V25H100.442V31.2489Z" fill="#909FA3"/>
<path d="M119.191 31.2489H125.44V25H119.191V31.2489Z" fill="#909FA3"/>
<path d="M112.941 31.2489H119.191V25H112.941V31.2489Z" fill="#909FA3"/>
<path d="M106.692 31.2489H112.94V25H106.692V31.2489Z" fill="#909FA3"/>
<path d="M69.1914 31.2489H75.4418V25H69.1914V31.2489Z" fill="#909FA3"/>
<path d="M81.6914 31.2489H87.9414V25H81.6914V31.2489Z" fill="#909FA3"/>
<path d="M62.9418 31.2489H69.1903V25H62.9418V31.2489Z" fill="#BFC8CB"/>
<path d="M75.4418 31.2489H81.6914V25H75.4418V31.2489Z" fill="#909FA3"/>
<path d="M131.691 31.2491L137.943 31.25L137.943 25.0002H131.691V31.2491Z" fill="#BFC8CB"/>
<path d="M169.191 31.2489H175.44V25H169.191V31.2489Z" fill="#231F20"/>
<path d="M156.691 31.2489H162.942V25H156.691V31.2489Z" fill="#7B5950"/>
<path d="M125.441 31.2489L131.691 31.2491V25.0002L125.441 25V31.2489Z" fill="#909FA3"/>
<path d="M169.192 37.5L175.44 37.5004V31.25H169.192L169.192 37.5Z" fill="#7B5950"/>
<path d="M162.942 31.2489H169.191V25H162.942V31.2489Z" fill="#7B5950"/>
<path d="M150.441 31.2489H156.69V25H150.441V31.2489Z" fill="#7B5950"/>
<path d="M169.192 43.7504L175.44 43.75L175.44 37.5004L169.192 37.5V43.7504Z" fill="#A77A6E"/>
<path d="M137.941 31.2489H144.19V25H137.941V31.2489Z" fill="#BFC8CB"/>
<path d="M144.191 31.2489H150.441V25H144.191V31.2489Z" fill="#231F20"/>
<path d="M169.192 137.499H175.44L175.44 131.25L169.192 131.25V137.499Z" fill="#6F7C80"/>
<path d="M44.1914 106.25L50.4414 106.25L50.4415 100H44.1914V106.25Z" fill="#6F7C80"/>
<path d="M44.1914 112.499H50.4414V106.25L44.1914 106.25V112.499Z" fill="#231F20"/>
<path d="M44.1918 43.75H50.4414L50.4415 37.5004L44.1914 37.5L44.1918 43.75Z" fill="#231F20"/>
<path d="M44.1915 143.752H50.4415V137.5H44.1915V143.752Z" fill="#231F20"/>
<path d="M44.1914 99.9989H50.4414V93.75H44.1914V99.9989Z" fill="#909FA3"/>
<path d="M44.1918 68.7504H50.4414L50.4415 62.5004L44.1918 62.5V68.7504Z" fill="#909FA3"/>
<path d="M44.1914 56.2485H50.4418L50.4414 49.9989H44.1918L44.1914 56.2485Z" fill="#BFC8CB"/>
<path d="M44.1918 49.9989H50.4414V43.75H44.1918V49.9989Z" fill="#231F20"/>
<path d="M44.1918 62.5L50.4415 62.5004V56.2504L44.1919 56.25L44.1918 62.5Z" fill="#BFC8CB"/>
<path d="M44.1915 87.5004H50.4415V81.25H44.1915V87.5004Z" fill="#A77A6E"/>
<path d="M44.1914 74.999L50.4414 74.9989V68.7504H44.1918L44.1914 74.999Z" fill="#909FA3"/>
<path d="M44.1914 93.75H50.4414L50.4415 87.5004H44.1915L44.1914 93.75Z" fill="#A77A6E"/>
<path d="M44.1915 81.25H50.4415V75L44.1914 74.999L44.1915 81.25Z" fill="#231F20"/>
<path d="M150.441 162.5H156.69V156.25H150.441V162.5Z" fill="#6F7C80"/>
<path d="M137.941 162.5H144.19V156.25H137.941V162.5Z" fill="#909FA3"/>
<path d="M144.191 162.5H150.441V156.25H144.191V162.5Z" fill="#909FA3"/>
<path d="M131.691 162.5H137.943V156.25H131.691V162.5Z" fill="#909FA3"/>
<path d="M125.441 162.5H131.69V156.25H125.441V162.5Z" fill="#231F20"/>
<path d="M169.192 162.5H175.44V156.25H169.191L169.192 162.5Z" fill="#343B3C"/>
<path d="M175.441 162.5H181.693V156.25H175.44L175.441 162.5Z" fill="#231F20"/>
<path d="M162.941 162.5H169.192L169.191 156.25H162.942L162.941 162.5Z" fill="#343B3C"/>
<path d="M156.691 162.5H162.941L162.942 156.25H156.691V162.5Z" fill="#231F20"/>
<path d="M87.9414 162.5H94.1903V156.25H87.9418L87.9414 162.5Z" fill="#6F7C80"/>
<path d="M69.1914 162.5H75.4414V156.25H69.1914V162.5Z" fill="#231F20"/>
<path d="M81.6918 162.5H87.9414L87.9418 156.25H81.6914L81.6918 162.5Z" fill="#231F20"/>
<path d="M75.4414 162.5H81.6918L81.6914 156.25H75.4414V162.5Z" fill="#909FA3"/>
<path d="M100.441 162.5H106.692V156.25H100.441V162.5Z" fill="#231F20"/>
<path d="M94.1914 162.5H100.441V156.25H94.1914V162.5Z" fill="#6F7C80"/>
<path d="M50.4414 24.9989H56.6918L56.6919 18.7504H50.4419L50.4414 24.9989Z" fill="#909FA3"/>
<path d="M175.441 43.7504H181.693V37.5H175.441V43.7504Z" fill="#7B5950"/>
<path d="M175.44 49.9989L181.693 49.9988L181.693 43.7504L175.44 43.75V49.9989Z" fill="#A77A6E"/>
<path d="M175.441 56.2485H181.693L181.693 49.9988L175.441 49.998V56.2485Z" fill="#A77A6E"/>
<path d="M175.441 68.7504H181.693V62.5H175.441V68.7504Z" fill="#A77A6E"/>
<path d="M162.941 24.9989H169.192L169.192 18.7504H162.941L162.941 24.9989Z" fill="#231F20"/>
<path d="M175.44 31.2489L181.693 31.2491V25.0002L175.44 25V31.2489Z" fill="#909FA3"/>
<path d="M175.441 24.9986H181.693L181.693 18.7504H175.441L175.441 24.9986Z" fill="#BFC8CB"/>
<path d="M175.44 37.5004L181.693 37.5L181.693 31.2491L175.44 31.25V37.5004Z" fill="#231F20"/>
<path d="M169.192 24.9989L175.441 24.9986L175.44 18.7504H169.192L169.192 24.9989Z" fill="#909FA3"/>
<path d="M175.44 74.9989L181.693 74.999L181.693 68.7504L175.44 68.75V74.9989Z" fill="#A77A6E"/>
<path d="M175.441 62.5H181.693L181.693 56.25H175.441L175.441 62.5Z" fill="#7B5950"/>
<path d="M175.441 112.499H181.693V106.25H175.441V112.499Z" fill="#909FA3"/>
<path d="M175.441 124.998H181.693V118.748H175.441V124.998Z" fill="#909FA3"/>
<path d="M175.441 118.752H181.693V112.5H175.441V118.752Z" fill="#909FA3"/>
<path d="M175.441 131.25H181.693V125H175.441V131.25Z" fill="#909FA3"/>
<path d="M175.44 93.7504L181.693 93.7503V87.4999L175.44 87.5V93.7504Z" fill="#6F7C80"/>
<path d="M175.441 87.5004L181.693 87.4999L181.693 81.25H175.441V87.5004Z" fill="#909FA3"/>
<path d="M175.44 81.2504L181.693 81.25L181.693 74.999L175.44 75V81.2504Z" fill="#A77A6E"/>
<path d="M175.441 106.25H181.693L181.693 100H175.44L175.441 106.25Z" fill="#909FA3"/>
<path d="M175.441 99.9989H181.693L181.693 93.7503L175.441 93.75V99.9989Z" fill="#231F20"/>
<path d="M100.441 24.9989H106.692L106.692 18.7504H100.442L100.441 24.9989Z" fill="#909FA3"/>
<path d="M69.1914 24.9989H75.4418L75.4415 18.7504H69.1915L69.1914 24.9989Z" fill="#BFC8CB"/>
<path d="M75.4418 24.9989H81.6918L81.6919 18.7504H75.4415L75.4418 24.9989Z" fill="#909FA3"/>
<path d="M62.9414 24.9989H69.1903V18.75L62.9415 18.7504L62.9414 24.9989Z" fill="#BFC8CB"/>
<path d="M81.6918 24.9989H87.9418L87.9415 18.7504H81.6919L81.6918 24.9989Z" fill="#909FA3"/>
<path d="M87.9418 24.9989H94.1903L94.1903 18.7504H87.9415L87.9418 24.9989Z" fill="#909FA3"/>
<path d="M94.1914 24.9989H100.441L100.442 18.7504H94.1915L94.1914 24.9989Z" fill="#909FA3"/>
<path d="M44.1914 31.2491L50.4415 31.25L50.4414 25L44.1914 25.0002V31.2491Z" fill="#7B5950"/>
<path d="M56.6918 24.9989H62.9414L62.9415 18.7504H56.6919L56.6918 24.9989Z" fill="#231F20"/>
<path d="M44.1914 24.9986L50.4414 24.9989L50.4419 18.7504H44.1915L44.1914 24.9986Z" fill="#231F20"/>
<path d="M175.44 137.499L181.693 137.499L181.693 131.25H175.441L175.44 137.499Z" fill="#6F7C80"/>
<path d="M106.692 24.9989H112.94V18.75L106.692 18.7504L106.692 24.9989Z" fill="#909FA3"/>
<path d="M131.691 24.9986H137.943L137.943 18.7504H131.691L131.691 24.9986Z" fill="#BFC8CB"/>
<path d="M137.941 24.9989H144.19L144.19 18.7504H137.941L137.941 24.9989Z" fill="#231F20"/>
<path d="M144.191 24.9989H150.442L150.442 18.7504H144.191L144.191 24.9989Z" fill="#909FA3"/>
<path d="M150.442 24.9989H156.69L156.69 18.7504H150.442L150.442 24.9989Z" fill="#231F20"/>
<path d="M156.691 24.9989H162.941L162.941 18.7504H156.691L156.691 24.9989Z" fill="#231F20"/>
<path d="M112.945 24.9989H119.196V18.75H112.945V24.9989Z" fill="#909FA3"/>
<path d="M44.1914 37.5L50.4415 37.5004V31.25L44.1914 31.2491L44.1914 37.5Z" fill="#7B5950"/>
<path d="M119.191 24.9989H125.442L125.441 18.7504H119.192L119.191 24.9989Z" fill="#909FA3"/>
<path d="M125.442 24.9989L131.691 24.9986L131.69 18.7504H125.441L125.442 24.9989Z" fill="#BFC8CB"/>
<path d="M256.691 81.2504H262.942V75H256.691V81.2504Z" fill="#231F20"/>
<path d="M256.691 87.5004H262.942V81.2504H256.691V87.5004Z" fill="#231F20"/>
<path d="M256.691 106.25H262.942V100H256.691V106.25Z" fill="#231F20"/>
<path d="M225.441 81.25H231.693V75H225.441V81.25Z" fill="#6F7C80"/>
<path d="M237.941 81.2504H244.192V75H237.941V81.2504Z" fill="#231F20"/>
<path d="M237.941 87.5004H244.192V81.2504H237.941V87.5004Z" fill="#231F20"/>
<path d="M237.941 74.9989H244.192V68.75H237.941V74.9989Z" fill="#231F20"/>
<path d="M237.941 99.9989H244.192V93.75H237.941V99.9989Z" fill="#231F20"/>
<path d="M237.941 68.75H244.192V62.5H237.941V68.75Z" fill="#231F20"/>
<path d="M237.941 49.9989H244.192V43.75H237.941V49.9989Z" fill="#231F20"/>
<path d="M237.941 56.2504H244.192V50H237.941V56.2504Z" fill="#231F20"/>
<path d="M237.941 62.5H244.192L244.192 56.2504H237.941L237.941 62.5Z" fill="#231F20"/>
<path d="M237.941 106.25H244.192V100H237.941V106.25Z" fill="#231F20"/>
<path d="M237.941 93.75H244.192L244.192 87.5004H237.941L237.941 93.75Z" fill="#231F20"/>
<path d="M237.941 112.499H244.192L244.192 106.25H237.941L237.941 112.499Z" fill="#231F20"/>
<path d="M231.695 112.499H237.944V106.25H231.695V112.499Z" fill="#6F7C80"/>
<path d="M225.441 68.7504H231.693V62.5H225.441V68.7504Z" fill="#909FA3"/>
<path d="M225.441 62.5H231.693L231.693 56.25H225.441L225.441 62.5Z" fill="#909FA3"/>
<path d="M225.441 56.25H231.693V50H225.441V56.25Z" fill="#909FA3"/>
<path d="M225.441 74.9989H231.693V68.7504H225.441V74.9989Z" fill="#909FA3"/>
<path d="M225.441 37.5004H231.693V31.25H225.441V37.5004Z" fill="#BFC8CB"/>
<path d="M225.441 49.9989H231.693V43.75H225.441V49.9989Z" fill="#909FA3"/>
<path d="M225.441 31.2489H231.693V25H225.441V31.2489Z" fill="#231F20"/>
<path d="M225.441 24.9989H231.693V18.75H225.441V24.9989Z" fill="#231F20"/>
<path d="M225.441 43.75H231.693L231.693 37.5004H225.441L225.441 43.75Z" fill="#909FA3"/>
<path d="M231.695 137.499H237.944V131.25H231.695V137.499Z" fill="#231F20"/>
<path d="M231.695 162.5H237.944V156.25H231.695V162.5Z" fill="#231F20"/>
<path d="M231.695 131.25H237.944L237.944 125H231.695L231.695 131.25Z" fill="#231F20"/>
<path d="M231.695 168.75H237.944V162.5H231.695V168.75Z" fill="#231F20"/>
<path d="M231.695 118.752H237.944V112.5H231.695V118.752Z" fill="#231F20"/>
<path d="M231.695 125H237.944V118.75H231.695V125Z" fill="#231F20"/>
<path d="M231.695 106.25H237.944L237.944 100H231.695L231.695 106.25Z" fill="#6F7C80"/>
<path d="M231.695 187.5H237.944V181.25H231.695V187.5Z" fill="#231F20"/>
<path d="M231.695 174.999H237.944L237.944 168.75H231.695L231.695 174.999Z" fill="#231F20"/>
<path d="M231.695 181.25H237.944V175H231.695V181.25Z" fill="#231F20"/>
<path d="M231.695 200H237.944V193.75H231.695V200Z" fill="#231F20"/>
<path d="M231.695 193.749H237.944L237.944 187.5H231.695L231.695 193.749Z" fill="#231F20"/>
<path d="M231.695 37.5004H237.944V31.25H231.695V37.5004Z" fill="#231F20"/>
<path d="M231.695 99.9989H237.944V93.75H231.695V99.9989Z" fill="#909FA3"/>
<path d="M231.695 87.5004H237.944V81.25H231.695V87.5004Z" fill="#909FA3"/>
<path d="M231.695 81.25H237.944V75H231.695V81.25Z" fill="#909FA3"/>
<path d="M231.695 93.75H237.944L237.944 87.5004H231.695L231.695 93.75Z" fill="#909FA3"/>
<path d="M231.695 74.9989H237.944V68.75H231.695V74.9989Z" fill="#909FA3"/>
<path d="M231.695 68.75H237.944V62.5H231.695V68.75Z" fill="#909FA3"/>
<path d="M231.695 56.2504H237.944V50H231.695V56.2504Z" fill="#909FA3"/>
<path d="M231.695 43.7504H237.944L237.944 37.5004H231.695L231.695 43.7504Z" fill="#231F20"/>
<path d="M231.695 49.9989H237.944V43.7504H231.695V49.9989Z" fill="#BFC8CB"/>
<path d="M231.695 62.5H237.944L237.944 56.2504H231.695L231.695 62.5Z" fill="#909FA3"/>
<path d="M250.441 99.9989H256.692V93.75H250.441V99.9989Z" fill="#231F20"/>
<path d="M250.441 93.75H256.692L256.691 87.5004L250.441 87.5V93.75Z" fill="#231F20"/>
<path d="M250.441 74.9989H256.692V68.75H250.441V74.9989Z" fill="#231F20"/>
<path d="M250.441 68.75H256.692V62.5H250.441V68.75Z" fill="#231F20"/>
<path d="M244.192 62.5L250.44 62.5004V56.25L244.192 56.2504L244.192 62.5Z" fill="#231F20"/>
<path d="M244.192 106.25H250.44V100H244.192V106.25Z" fill="#231F20"/>
</svg>
