<svg width="213" height="200" viewBox="0 0 213 200" fill="none" xmlns="http://www.w3.org/2000/svg">
<path d="M30.8633 24.2431H36.9228V18.1836H30.8633V24.2431Z" fill="#231F20"/>
<path d="M67.2266 24.2431H73.2876V18.1836H67.2266V24.2431Z" fill="#B53617"/>
<path d="M85.4062 24.2431H91.4673V18.1836H85.4062V24.2431Z" fill="#B53617"/>
<path d="M61.1641 24.2431H67.2251V18.1836H61.1641V24.2431Z" fill="#B53617"/>
<path d="M79.3438 24.2431H85.4048V18.1836H79.3438V24.2431Z" fill="#B53617"/>
<path d="M73.2852 24.2431H79.3438V18.1836H73.2852V24.2431Z" fill="#B53617"/>
<path d="M49.043 24.2431H55.1025V18.1836H49.043V24.2431Z" fill="#B53617"/>
<path d="M36.9228 24.2431H42.9829V18.1836H36.9228V24.2431Z" fill="#231F20"/>
<path d="M42.9844 24.2431H49.0454V18.1836H42.9844V24.2431Z" fill="#B53617"/>
<path d="M91.4688 24.2431H97.5298V18.1836H91.4688V24.2431Z" fill="#231F20"/>
<path d="M55.1055 24.2431H61.1641V18.1836H55.1055V24.2431Z" fill="#B53617"/>
<path d="M42.9844 18.1806H49.0454V12.1211H42.9844V18.1806Z" fill="#231F20"/>
<path d="M49.043 18.1806H55.1025V12.1211H49.043V18.1806Z" fill="#F25C19"/>
<path d="M85.4062 18.1806H91.4673V12.1211H85.4062V18.1806Z" fill="#231F20"/>
<path d="M61.1641 18.1806H67.2251V12.1211H61.1641V18.1806Z" fill="#B53617"/>
<path d="M67.2266 18.1806H73.2876V12.1211H67.2266V18.1806Z" fill="#B53617"/>
<path d="M79.3438 18.1806H85.4048V12.1211H79.3438V18.1806Z" fill="#231F20"/>
<path d="M55.1055 18.1806H61.1641V12.1211H55.1055V18.1806Z" fill="#B53617"/>
<path d="M73.2852 18.1806H79.3438V12.1211H73.2852V18.1806Z" fill="#B53617"/>
<path d="M176.316 121.213H182.377V115.152H176.316V121.213Z" fill="#B53617"/>
<path d="M176.316 115.151H182.377V109.092H176.316V115.151Z" fill="#B53617"/>
<path d="M176.316 133.333H182.377V127.271H176.316V133.333Z" fill="#B53617"/>
<path d="M176.316 139.395H182.377V133.334H176.316V139.395Z" fill="#231F20"/>
<path d="M176.316 127.271H182.377V121.213H176.316V127.271Z" fill="#B53617"/>
<path d="M176.316 109.092H182.377L182.377 103.031H176.316L176.316 109.092Z" fill="#231F20"/>
<path d="M176.316 187.879H182.377V181.818H176.316V187.879Z" fill="#231F20"/>
<path d="M176.316 193.938H182.377L182.377 187.879H176.316L176.316 193.938Z" fill="#231F20"/>
<path d="M176.316 200H182.377V193.939H176.316V200Z" fill="#231F20"/>
<path d="M176.316 181.818H182.377L182.377 175.758H176.316L176.316 181.818Z" fill="#231F20"/>
<path d="M176.316 175.758H182.377V169.697H176.316V175.758Z" fill="#231F20"/>
<path d="M176.316 66.6669H182.377V60.6074H176.316V66.6669Z" fill="#B53617"/>
<path d="M176.316 60.6074H182.377V54.5469H176.316V60.6074Z" fill="#231F20"/>
<path d="M176.316 72.727H182.377V66.6669H176.316V72.727Z" fill="#231F20"/>
<path d="M164.195 72.727H170.255V66.666H164.195V72.727Z" fill="#F25C19"/>
<path d="M164.195 66.666H170.255V60.6074H164.195V66.666Z" fill="#231F20"/>
<path d="M164.195 78.7895H170.255V72.7285H164.195V78.7895Z" fill="#231F20"/>
<path d="M164.195 90.9087H170.255V84.8477H164.195V90.9087Z" fill="#231F20"/>
<path d="M164.195 84.8477H170.255L170.255 78.7871H164.195L164.195 84.8477Z" fill="#231F20"/>
<path d="M49.043 30.3032H55.1025V24.2431H49.043V30.3032Z" fill="#B53617"/>
<path d="M97.5273 30.3032H103.588V24.2422H97.5273V30.3032Z" fill="#231F20"/>
<path d="M24.8008 30.3032H30.8618V24.2422H24.8008V30.3032Z" fill="#231F20"/>
<path d="M30.8633 30.3032H36.9228V24.2431H30.8633V30.3032Z" fill="#F25C19"/>
<path d="M36.9228 30.3032H42.9829V24.2431L36.9219 24.2422L36.9228 30.3032Z" fill="#B53617"/>
<path d="M79.3438 30.3032H85.4048V24.2431H79.3438V30.3032Z" fill="#F25C19"/>
<path d="M73.2852 30.3032H79.3438L79.3447 24.2422L73.2852 24.2431V30.3032Z" fill="#B53617"/>
<path d="M85.4062 30.3032H91.4673V24.2431H85.4062V30.3032Z" fill="#B53617"/>
<path d="M91.4688 30.3032H97.5298V24.2431H91.4688V30.3032Z" fill="#B53617"/>
<path d="M164.195 96.9712H170.255V90.9102H164.195V96.9712Z" fill="#231F20"/>
<path d="M55.1055 30.3032H61.165V24.2422L55.1055 24.2431V30.3032Z" fill="#B53617"/>
<path d="M42.9844 30.3032H49.0454V24.2431H42.9844V30.3032Z" fill="#F25C19"/>
<path d="M67.2266 30.3032H73.2876V24.2431H67.2266V30.3032Z" fill="#B53617"/>
<path d="M61.165 30.3032H67.2251V24.2431H61.1641L61.165 30.3032Z" fill="#F25C19"/>
<path d="M79.3438 193.938H85.4048V187.879H79.3438V193.938Z" fill="#FABE6B"/>
<path d="M85.4062 193.938H91.4673V187.879H85.4062V193.938Z" fill="#E3984C"/>
<path d="M91.4688 193.938H97.5298V187.879H91.4688V193.938Z" fill="#231F20"/>
<path d="M61.1641 193.938H67.2251V187.879H61.1641V193.938Z" fill="#231F20"/>
<path d="M67.2266 193.938H73.2876V187.879H67.2266V193.938Z" fill="#FABE6B"/>
<path d="M73.2852 193.938H79.3438V187.879H73.2852V193.938Z" fill="#FABE6B"/>
<path d="M55.1055 193.938H61.1641V187.879H55.1055V193.938Z" fill="#FABE6B"/>
<path d="M49.043 193.938H55.1025V187.879H49.043V193.938Z" fill="#231F20"/>
<path d="M42.9844 193.938H49.0454V187.879H42.9844V193.938Z" fill="#FABE6B"/>
<path d="M36.9219 193.938H42.9829V187.879H36.9219V193.938Z" fill="#231F20"/>
<path d="M164.195 187.879H170.255V181.818H164.195V187.879Z" fill="#231F20"/>
<path d="M164.195 139.395H170.255V133.334H164.195V139.395Z" fill="#231F20"/>
<path d="M164.195 145.456H170.255V139.395H164.195V145.456Z" fill="#8C1D13"/>
<path d="M164.195 157.577H170.255V151.516H164.195V157.577Z" fill="#231F20"/>
<path d="M164.195 163.637H170.255V157.577H164.195V163.637Z" fill="#F25C19"/>
<path d="M133.906 193.938H139.966V187.879H133.906V193.938Z" fill="#231F20"/>
<path d="M164.195 151.515H170.255V145.456H164.195V151.515Z" fill="#231F20"/>
<path d="M164.195 109.092H170.255V103.031H164.195V109.092Z" fill="#231F20"/>
<path d="M152.074 193.938H158.135V187.879H152.074V193.938Z" fill="#FABE6B"/>
<path d="M146.012 193.938H152.073V187.879H146.012V193.938Z" fill="#FABE6B"/>
<path d="M139.902 193.938H145.963V187.879H139.902V193.938Z" fill="#E3984C"/>
<path d="M158.133 193.938H164.194V187.879H158.133V193.938Z" fill="#FABE6B"/>
<path d="M164.195 169.696H170.255V163.637H164.195V169.696Z" fill="#B53617"/>
<path d="M164.195 181.818H170.255L170.255 175.758H164.195L164.195 181.818Z" fill="#B53617"/>
<path d="M164.195 175.758H170.255V169.697H164.195V175.758Z" fill="#B53617"/>
<path d="M164.195 103.03H170.255V96.9712H164.195V103.03Z" fill="#B53617"/>
<path d="M164.195 193.938H170.255L170.255 187.879H164.195L164.195 193.938Z" fill="#231F20"/>
<path d="M170.254 175.758H176.315V169.697H170.255L170.254 175.758Z" fill="#F25C19"/>
<path d="M170.255 169.696H176.315V163.637H170.254L170.255 169.696Z" fill="#231F20"/>
<path d="M170.255 187.879H176.315V181.818H170.255V187.879Z" fill="#231F20"/>
<path d="M170.254 181.819L176.315 181.818L176.315 175.758H170.254V181.819Z" fill="#B53617"/>
<path d="M170.255 193.938H176.315L176.315 187.879L170.254 187.879L170.255 193.938Z" fill="#FABE6B"/>
<path d="M170.254 163.637H176.315V157.576H170.254V163.637Z" fill="#231F20"/>
<path d="M170.255 145.456H176.315V139.395H170.254L170.255 145.456Z" fill="#231F20"/>
<path d="M170.254 139.395H176.315V133.334H170.255L170.254 139.395Z" fill="#8C1D13"/>
<path d="M170.254 200H176.315V193.939H170.254V200Z" fill="#231F20"/>
<path d="M139.953 200H146.013V193.939H139.953V200Z" fill="#231F20"/>
<path d="M133.891 200H139.952V193.939H133.891V200Z" fill="#231F20"/>
<path d="M152.074 200H158.135V193.939H152.074V200Z" fill="#231F20"/>
<path d="M158.133 200H164.194V193.939H158.133V200Z" fill="#231F20"/>
<path d="M164.195 200H170.254V193.939H164.195V200Z" fill="#231F20"/>
<path d="M170.254 133.333H176.315V127.271H170.254V133.333Z" fill="#231F20"/>
<path d="M146.013 200H152.073V193.939H146.013V200Z" fill="#231F20"/>
<path d="M170.254 60.6079H176.315V54.5469H170.254V60.6079Z" fill="#231F20"/>
<path d="M170.254 66.6669H176.315V60.6079H170.254V66.6669Z" fill="#F25C19"/>
<path d="M170.255 103.03H176.315V96.9707H170.254L170.255 103.03Z" fill="#231F20"/>
<path d="M170.254 115.151H176.315V109.092H170.254V115.151Z" fill="#231F20"/>
<path d="M170.255 72.727H176.315V66.6669H170.254L170.255 72.727Z" fill="#231F20"/>
<path d="M170.254 121.213H176.315V115.152H170.254V121.213Z" fill="#231F20"/>
<path d="M170.254 109.092H176.315L176.315 103.031H170.255L170.254 109.092Z" fill="#B53617"/>
<path d="M170.254 127.271H176.315V121.213H170.254V127.271Z" fill="#231F20"/>
<path d="M0.558594 72.727H6.61961V66.666H0.558594V72.727Z" fill="#231F20"/>
<path d="M0.558594 78.7895H6.61961V72.7285H0.558594V78.7895Z" fill="#231F20"/>
<path d="M0.558655 84.8481H6.61967V78.7871H0.558655V84.8481Z" fill="#231F20"/>
<path d="M79.3438 200H85.4048V193.939H79.3438V200Z" fill="#231F20"/>
<path d="M49.043 200H55.1025V193.939H49.043V200Z" fill="#231F20"/>
<path d="M73.2852 200H79.3438V193.939H73.2852V200Z" fill="#231F20"/>
<path d="M61.1641 200H67.2251V193.939H61.1641V200Z" fill="#231F20"/>
<path d="M55.1055 200H61.1641V193.939H55.1055V200Z" fill="#231F20"/>
<path d="M67.2266 200H73.2876V193.939H67.2266V200Z" fill="#231F20"/>
<path d="M85.4062 200H91.4673V193.939H85.4062V200Z" fill="#231F20"/>
<path d="M91.4688 200H97.5298V193.939H91.4688V200Z" fill="#231F20"/>
<path d="M36.9219 200H42.9829V193.939H36.9219V200Z" fill="#231F20"/>
<path d="M42.9844 200H49.0454V193.939H42.9844V200Z" fill="#231F20"/>
<path d="M61.1641 6.06102H67.2251V0H61.1641V6.06102Z" fill="#231F20"/>
<path d="M188.438 193.938H194.497V187.879H188.438V193.938Z" fill="#231F20"/>
<path d="M188.438 200H194.497V193.939H188.438V200Z" fill="#231F20"/>
<path d="M188.438 66.6669H194.497V60.6074H188.438V66.6669Z" fill="#B53617"/>
<path d="M188.438 60.6074H194.497V54.5469H188.438V60.6074Z" fill="#231F20"/>
<path d="M188.438 72.727H194.497V66.6669H188.438V72.727Z" fill="#231F20"/>
<path d="M182.375 121.213H188.436V115.152H182.375V121.213Z" fill="#231F20"/>
<path d="M182.375 127.272H188.436L188.436 121.213H182.375L182.375 127.272Z" fill="#231F20"/>
<path d="M182.375 115.151H188.436V109.092H182.375V115.151Z" fill="#231F20"/>
<path d="M182.375 133.333H188.436L188.436 127.272H182.375L182.375 133.333Z" fill="#231F20"/>
<path d="M182.375 187.879H188.436V181.818H182.375V187.879Z" fill="#231F20"/>
<path d="M182.375 193.938H188.436L188.436 187.879H182.375L182.375 193.938Z" fill="#FABE6B"/>
<path d="M182.375 200H188.436V193.939H182.375V200Z" fill="#231F20"/>
<path d="M182.375 66.6669H188.436V60.6074H182.375V66.6669Z" fill="#B53617"/>
<path d="M182.375 60.6074H188.436V54.5469H182.375V60.6074Z" fill="#231F20"/>
<path d="M182.375 72.727H188.436V66.6669H182.375V72.727Z" fill="#231F20"/>
<path d="M49.043 12.1211H55.1025V6.06055H49.043V12.1211Z" fill="#231F20"/>
<path d="M61.1641 12.1211H67.2251L67.2251 6.06102H61.1641L61.1641 12.1211Z" fill="#F25C19"/>
<path d="M55.1055 12.1211L61.165 12.1216L61.1641 6.06102L55.1055 6.06055V12.1211Z" fill="#231F20"/>
<path d="M67.2266 12.1211H73.2876V6.06055H67.2266V12.1211Z" fill="#231F20"/>
<path d="M73.2852 12.1211L79.3447 12.1216V6.06055H73.2852V12.1211Z" fill="#231F20"/>
<path d="M85.4062 139.395H91.4673V133.334H85.4062V139.395Z" fill="#B53617"/>
<path d="M127.832 84.8481H133.893V78.7871H127.832V84.8481Z" fill="#231F20"/>
<path d="M115.711 66.6669H121.772V60.6074H115.711V66.6669Z" fill="#231F20"/>
<path d="M127.832 72.727H133.893V66.666H127.832V72.727Z" fill="#231F20"/>
<path d="M127.832 78.7895H133.893V72.7285H127.832V78.7895Z" fill="#231F20"/>
<path d="M121.773 66.6669H127.833V60.6074H121.773V66.6669Z" fill="#231F20"/>
<path d="M91.4688 66.6669H97.5298V60.6074H91.4688V66.6669Z" fill="#FABE6B"/>
<path d="M109.648 66.6669H115.709V60.6074H109.648V66.6669Z" fill="#231F20"/>
<path d="M97.5273 66.6669H103.588V60.6074H97.5273V66.6669Z" fill="#231F20"/>
<path d="M121.773 72.727H127.832L127.833 66.6669H121.773V72.727Z" fill="#FABE6B"/>
<path d="M127.832 133.333H133.893V127.271H127.832V133.333Z" fill="#B53617"/>
<path d="M127.832 127.271H133.893L133.893 121.213H127.832L127.832 127.271Z" fill="#B53617"/>
<path d="M127.832 139.395H133.893V133.334H127.832V139.395Z" fill="#B53617"/>
<path d="M127.832 121.213H133.893L133.893 115.152H127.832L127.832 121.213Z" fill="#B53617"/>
<path d="M127.832 145.456H133.893V139.395H127.832V145.456Z" fill="#B53617"/>
<path d="M85.4062 66.6669H91.4673V60.6074H85.4062V66.6669Z" fill="#FABE6B"/>
<path d="M127.832 115.151H133.893V109.092H127.832V115.151Z" fill="#F25C19"/>
<path d="M127.832 109.092H133.893L133.893 103.031H127.832L127.832 109.092Z" fill="#231F20"/>
<path d="M36.9219 84.8481H42.983V78.7871H36.9219V84.8481Z" fill="#FCD691"/>
<path d="M36.9219 103.03H42.9829V96.9707H36.9219V103.03Z" fill="#FABE6B"/>
<path d="M36.9219 109.092H42.983V103.031H36.9219V109.092Z" fill="#FABE6B"/>
<path d="M36.9219 115.151H42.9829L42.983 109.092H36.9219L36.9219 115.151Z" fill="#E3984C"/>
<path d="M36.9219 96.9707H42.9829V90.9102H36.9219V96.9707Z" fill="#FABE6B"/>
<path d="M36.9219 90.9087H42.9829L42.983 84.8481H36.9219L36.9219 90.9087Z" fill="#FABE6B"/>
<path d="M36.9219 121.213H42.9829V115.152H36.9219V121.213Z" fill="#231F20"/>
<path d="M36.9219 133.333H42.9829V127.271H36.9219V133.333Z" fill="#231F20"/>
<path d="M36.9219 139.395H42.9829V133.334H36.9219V139.395Z" fill="#231F20"/>
<path d="M36.9219 127.271H42.9829V121.213H36.9219V127.271Z" fill="#231F20"/>
<path d="M127.832 151.515H133.893V145.456H127.832V151.515Z" fill="#8C1D13"/>
<path d="M67.2266 66.6669H73.2876V60.6074H67.2266V66.6669Z" fill="#FABE6B"/>
<path d="M79.3438 66.6669H85.4048V60.6074H79.3438V66.6669Z" fill="#FABE6B"/>
<path d="M61.1641 66.6669H67.2251V60.6074H61.1641V66.6669Z" fill="#FABE6B"/>
<path d="M36.9219 78.7895H42.9829V72.7285H36.9219V78.7895Z" fill="#FABE6B"/>
<path d="M73.2852 66.6669H79.3438V60.6074H73.2852V66.6669Z" fill="#FABE6B"/>
<path d="M55.1055 66.6669H61.1641V60.6074H55.1055V66.6669Z" fill="#FABE6B"/>
<path d="M36.9219 66.6669H42.9829V60.6074H36.9219V66.6669Z" fill="#FABE6B"/>
<path d="M36.9219 72.727H42.9829V66.6669H36.9219V72.727Z" fill="#FABE6B"/>
<path d="M49.043 66.6669H55.1025V60.6074H49.043V66.6669Z" fill="#FABE6B"/>
<path d="M42.9844 66.6669H49.0454V60.6074H42.9844V66.6669Z" fill="#FABE6B"/>
<path d="M42.9844 151.515H49.0454V145.455H42.9844V151.515Z" fill="#B53617"/>
<path d="M42.9844 78.7895H49.0454V72.7285H42.9844V78.7895Z" fill="#231F20"/>
<path d="M42.9844 72.727H49.0454V66.6669H42.9844V72.727Z" fill="#231F20"/>
<path d="M55.1055 72.727H61.165V66.666L55.1055 66.6669V72.727Z" fill="#FABE6B"/>
<path d="M49.043 72.727H55.1025V66.6669H49.043V72.727Z" fill="#FABE6B"/>
<path d="M42.9844 84.8481H49.0455V78.7871H42.9844V84.8481Z" fill="#FCD691"/>
<path d="M42.9844 109.092H49.0455V103.031H42.9844V109.092Z" fill="#FABE6B"/>
<path d="M61.165 72.727H67.2251V66.6669H61.1641L61.165 72.727Z" fill="#FABE6B"/>
<path d="M42.9844 115.151H49.0454L49.0455 109.092H42.9844L42.9844 115.151Z" fill="#E3984C"/>
<path d="M42.9844 96.9712H49.0454V90.9102H42.9844V96.9712Z" fill="#FABE6B"/>
<path d="M42.9844 90.9087H49.0454L49.0455 84.8481H42.9844L42.9844 90.9087Z" fill="#FABE6B"/>
<path d="M42.9844 103.03H49.0454V96.9712H42.9844V103.03Z" fill="#231F20"/>
<path d="M97.5273 72.727H103.588V66.6669H97.5273V72.727Z" fill="#231F20"/>
<path d="M127.832 157.577H133.893V151.516H127.832V157.577Z" fill="#8C1D13"/>
<path d="M67.2266 72.727H73.2876V66.6669H67.2266V72.727Z" fill="#231F20"/>
<path d="M115.711 72.727H121.772V66.6669H115.711V72.727Z" fill="#FABE6B"/>
<path d="M103.59 72.727H109.651V66.666H103.59V72.727Z" fill="#B53617"/>
<path d="M91.4688 72.727H97.5298V66.6669H91.4688V72.727Z" fill="#FABE6B"/>
<path d="M73.2852 72.727H79.3447V66.666L73.2852 66.6669V72.727Z" fill="#FABE6B"/>
<path d="M79.3447 72.727H85.4048V66.6669H79.3438L79.3447 72.727Z" fill="#FABE6B"/>
<path d="M85.4062 72.727H91.4673V66.6669H85.4062V72.727Z" fill="#FABE6B"/>
<path d="M109.648 72.727H115.709V66.6669H109.648V72.727Z" fill="#231F20"/>
<path d="M91.4688 157.577H97.5298V151.516H91.4688V157.577Z" fill="#B53617"/>
<path d="M97.5273 157.577H103.588V151.516H97.5273V157.577Z" fill="#231F20"/>
<path d="M67.2266 157.577H73.2876V151.516H67.2266V157.577Z" fill="#231F20"/>
<path d="M73.2852 157.577H79.3447V151.516H73.2852V157.577Z" fill="#F25C19"/>
<path d="M79.3447 157.577H85.4048V151.516H79.3447V157.577Z" fill="#B53617"/>
<path d="M42.9844 121.213H49.0454V115.152H42.9844V121.213Z" fill="#231F20"/>
<path d="M121.773 157.577H127.832V151.516H121.773V157.577Z" fill="#231F20"/>
<path d="M103.59 157.577H109.651V151.516H103.59V157.577Z" fill="#B53617"/>
<path d="M115.711 157.577H121.772V151.516H115.711V157.577Z" fill="#8C1D13"/>
<path d="M109.648 157.577H115.709V151.516H109.648V157.577Z" fill="#B53617"/>
<path d="M85.4062 157.577H91.4673V151.516H85.4062V157.577Z" fill="#B53617"/>
<path d="M42.9844 133.333H49.0454V127.271H42.9844V133.333Z" fill="#B53617"/>
<path d="M42.9844 139.395H49.0454V133.334H42.9844V139.395Z" fill="#B53617"/>
<path d="M42.9844 127.271H49.0454V121.213H42.9844V127.271Z" fill="#B53617"/>
<path d="M42.9844 145.455H49.0454V139.395H42.9844V145.455Z" fill="#B53617"/>
<path d="M49.043 157.577H55.1025V151.516H49.043V157.577Z" fill="#231F20"/>
<path d="M36.9219 145.456H42.9829V139.395H36.9219V145.456Z" fill="#F25C19"/>
<path d="M49.043 151.515H55.1025V145.455H49.043V151.515Z" fill="#8C1D13"/>
<path d="M103.59 66.666H109.651V60.6074H103.59V66.666Z" fill="#B53617"/>
<path d="M30.8633 84.8481H36.9219V78.7871H30.8633V84.8481Z" fill="#231F20"/>
<path d="M30.8633 60.6079H36.9228V54.5469H30.8633V60.6079Z" fill="#FABE6B"/>
<path d="M30.8633 90.9087H36.9219L36.9219 84.8481H30.8633L30.8633 90.9087Z" fill="#FABE6B"/>
<path d="M30.8633 72.727H36.9219L36.9228 66.666H30.8633V72.727Z" fill="#FABE6B"/>
<path d="M30.8633 66.666H36.9228V60.6079H30.8633V66.666Z" fill="#FABE6B"/>
<path d="M30.8633 78.7895H36.9219V72.7285H30.8633V78.7895Z" fill="#FABE6B"/>
<path d="M30.8633 96.9712H36.9228L36.9219 90.9102H30.8633V96.9712Z" fill="#FABE6B"/>
<path d="M30.8633 115.151H36.9243V109.092H30.8633V115.151Z" fill="#231F20"/>
<path d="M30.8633 109.092L36.9219 109.092V103.031H30.8633L30.8633 109.092Z" fill="#E3984C"/>
<path d="M30.8633 103.03H36.9219L36.9228 96.9712H30.8633V103.03Z" fill="#FABE6B"/>
<path d="M85.4062 60.6074H91.4673V54.5469H85.4062V60.6074Z" fill="#FABE6B"/>
<path d="M67.2266 60.6074H73.2876V54.5469H67.2266V60.6074Z" fill="#FABE6B"/>
<path d="M79.3438 60.6074H85.4048V54.5469H79.3438V60.6074Z" fill="#FABE6B"/>
<path d="M73.2852 60.6074L79.3447 60.6079L79.3438 54.5469H73.2852V60.6074Z" fill="#FABE6B"/>
<path d="M55.1055 60.6074L61.165 60.6079V54.5469H55.1055V60.6074Z" fill="#FABE6B"/>
<path d="M49.043 60.6074H55.1025V54.5469H49.043V60.6074Z" fill="#FABE6B"/>
<path d="M91.4688 60.6074L97.5283 60.6079V54.5469H91.4688V60.6074Z" fill="#FABE6B"/>
<path d="M61.1641 60.6074H67.2251V54.5469H61.165L61.1641 60.6074Z" fill="#FABE6B"/>
<path d="M36.9219 60.6074H42.9829V54.5469H36.9228L36.9219 60.6074Z" fill="#FABE6B"/>
<path d="M42.9844 60.6074H49.0454V54.5469H42.9844V60.6074Z" fill="#FABE6B"/>
<path d="M73.2852 169.696H79.3447V163.637H73.2852V169.696Z" fill="#B53617"/>
<path d="M67.2266 169.696H73.2876V163.637H67.2266V169.696Z" fill="#B53617"/>
<path d="M61.1641 169.696H67.2251V163.637H61.1641V169.696Z" fill="#F25C19"/>
<path d="M79.3447 169.696H85.4048V163.637H79.3447V169.696Z" fill="#B53617"/>
<path d="M49.043 169.696H55.1025V163.637H49.043V169.696Z" fill="#231F20"/>
<path d="M55.1055 169.696H61.1641V163.637H55.1055V169.696Z" fill="#231F20"/>
<path d="M85.4062 169.696H91.4673V163.637H85.4062V169.696Z" fill="#8C1D13"/>
<path d="M97.5273 169.696H103.588V163.637H97.5273V169.696Z" fill="#231F20"/>
<path d="M103.59 169.696H109.651V163.637H103.59V169.696Z" fill="#231F20"/>
<path d="M91.4688 169.696H97.5298V163.637H91.4688V169.696Z" fill="#6F160E"/>
<path d="M36.9219 169.696H42.9829V163.637H36.9219V169.696Z" fill="#231F20"/>
<path d="M30.8633 145.456H36.9219L36.9228 139.395H30.8633V145.456Z" fill="#231F20"/>
<path d="M30.8633 151.515H36.9228V145.455L30.8633 145.456V151.515Z" fill="#231F20"/>
<path d="M42.9844 169.696H49.0454V163.637H42.9844V169.696Z" fill="#231F20"/>
<path d="M30.8633 157.577H36.9228V151.516H30.8633V157.577Z" fill="#231F20"/>
<path d="M36.9219 163.637H42.9829V157.576H36.9219V163.637Z" fill="#B53617"/>
<path d="M30.8633 163.637H36.9228V157.577H30.8633V163.637Z" fill="#231F20"/>
<path d="M121.773 163.637H127.833V157.576L121.773 157.577V163.637Z" fill="#231F20"/>
<path d="M85.4062 163.637H91.4673V157.577H85.4062V163.637Z" fill="#B53617"/>
<path d="M103.59 163.637H109.651V157.577H103.59V163.637Z" fill="#B53617"/>
<path d="M115.711 163.637H121.772V157.577H115.711V163.637Z" fill="#8C1D13"/>
<path d="M91.4688 163.637H97.5298V157.577H91.4688V163.637Z" fill="#8C1D13"/>
<path d="M97.5273 163.637H103.588V157.577H97.5273V163.637Z" fill="#231F20"/>
<path d="M109.648 163.637H115.709V157.577H109.648V163.637Z" fill="#B53617"/>
<path d="M133.891 163.637H139.952V157.576H133.891V163.637Z" fill="#8C1D13"/>
<path d="M133.891 157.576H139.952V151.516H133.891V157.576Z" fill="#B53617"/>
<path d="M127.833 163.637H133.893V157.577H127.832L127.833 163.637Z" fill="#6F160E"/>
<path d="M36.9228 151.515H42.9829V145.456H36.9219L36.9228 151.515Z" fill="#B53617"/>
<path d="M133.891 151.515H139.952V145.455H133.891V151.515Z" fill="#B53617"/>
<path d="M49.043 163.637H55.1025V157.577H49.043V163.637Z" fill="#231F20"/>
<path d="M42.9844 157.577H49.0454V151.516H42.9844V157.577Z" fill="#8C1D13"/>
<path d="M42.9844 163.637H49.0454V157.577H42.9844V163.637Z" fill="#8C1D13"/>
<path d="M36.9219 157.576H42.9829V151.516H36.9228L36.9219 157.576Z" fill="#B53617"/>
<path d="M79.3438 163.637L85.4048 163.637V157.577L79.3438 157.576V163.637Z" fill="#B53617"/>
<path d="M73.2852 163.637H79.3447V157.577H73.2852V163.637Z" fill="#B53617"/>
<path d="M67.2266 163.637H73.2876V157.577H67.2266V163.637Z" fill="#F25C19"/>
<path d="M61.1641 163.637H67.2251V157.576H61.1641V163.637Z" fill="#231F20"/>
<path d="M97.5273 60.6074H103.588V54.5469H97.5283L97.5273 60.6074Z" fill="#231F20"/>
<path d="M133.891 145.455H139.952V139.395H133.891V145.455Z" fill="#B53617"/>
<path d="M103.59 60.6074H109.651V54.5469H103.59V60.6074Z" fill="#B53617"/>
<path d="M109.648 60.6074H115.709V54.5469H109.648V60.6074Z" fill="#B53617"/>
<path d="M115.711 60.6074H121.772V54.5469H115.711V60.6074Z" fill="#231F20"/>
<path d="M133.891 133.333H139.952V127.271H133.891V133.333Z" fill="#B53617"/>
<path d="M133.891 127.271H139.952L139.952 121.213H133.891L133.891 127.271Z" fill="#B53617"/>
<path d="M133.891 139.395H139.952V133.334H133.891V139.395Z" fill="#B53617"/>
<path d="M133.891 121.213H139.952L139.952 115.152H133.891L133.891 121.213Z" fill="#F25C19"/>
<path d="M133.891 115.151H139.952V109.092H133.891V115.151Z" fill="#231F20"/>
<path d="M91.4688 121.213H97.5298V115.152H91.4688V121.213Z" fill="#231F20"/>
<path d="M61.1641 90.9087H67.2251V84.8477H61.1641V90.9087Z" fill="#B4584A"/>
<path d="M61.1641 96.9712H67.2251V90.9102H61.1641V96.9712Z" fill="#FABE6B"/>
<path d="M61.1641 133.333H67.2251V127.271H61.1641V133.333Z" fill="#231F20"/>
<path d="M67.2266 90.9087H73.2876V84.8477H67.2266V90.9087Z" fill="#FABE6B"/>
<path d="M73.2852 90.9087H79.3447V84.8477H73.2852V90.9087Z" fill="#FABE6B"/>
<path d="M61.1641 103.03H67.2251V96.9712H61.1641V103.03Z" fill="#FABE6B"/>
<path d="M61.1641 109.092H67.2251V103.031H61.1641V109.092Z" fill="#231F20"/>
<path d="M61.1641 121.213H67.2251V115.152H61.1641V121.213Z" fill="#231F20"/>
<path d="M61.1641 127.271H67.2251V121.213H61.1641V127.271Z" fill="#8C1D13"/>
<path d="M61.1641 115.151H67.2251L67.2251 109.092H61.1641L61.1641 115.151Z" fill="#E3984C"/>
<path d="M79.3447 90.9087H85.4048V84.8477H79.3447V90.9087Z" fill="#FABE6B"/>
<path d="M103.59 109.092H109.651V103.031H103.59V109.092Z" fill="#B53617"/>
<path d="M85.4062 90.9087H91.4673V84.8477H85.4062V90.9087Z" fill="#FABE6B"/>
<path d="M103.59 115.151H109.651L109.651 109.092H103.59L103.59 115.151Z" fill="#B53617"/>
<path d="M103.59 127.272H109.651V121.213H103.59V127.272Z" fill="#B53617"/>
<path d="M103.59 121.213H109.651L109.651 115.152H103.59L103.59 121.213Z" fill="#B53617"/>
<path d="M103.59 103.03H109.651V96.9707H103.59V103.03Z" fill="#B53617"/>
<path d="M91.4688 90.9087H97.5298V84.8477H91.4688V90.9087Z" fill="#231F20"/>
<path d="M97.5273 90.9087H103.588V84.8477H97.5273V90.9087Z" fill="#B53617"/>
<path d="M103.59 90.9087H109.651V84.8477H103.59V90.9087Z" fill="#B53617"/>
<path d="M103.59 96.9707H109.651V90.9102H103.59V96.9707Z" fill="#B53617"/>
<path d="M109.648 121.213H115.709V115.152H109.648V121.213Z" fill="#B53617"/>
<path d="M109.648 109.092H115.71V103.031H109.648V109.092Z" fill="#B53617"/>
<path d="M109.648 103.03H115.709V96.9707H109.648V103.03Z" fill="#231F20"/>
<path d="M109.648 115.151H115.709L115.71 109.092H109.648L109.648 115.151Z" fill="#B53617"/>
<path d="M109.648 96.9707H115.709V90.9102H109.648V96.9707Z" fill="#8C1D13"/>
<path d="M103.59 133.333H109.651L109.651 127.272H103.59L103.59 133.333Z" fill="#B53617"/>
<path d="M67.2266 133.333H73.2876V127.271H67.2266V133.333Z" fill="#231F20"/>
<path d="M121.773 78.7895H127.832V72.7285H121.773V78.7895Z" fill="#FABE6B"/>
<path d="M109.648 90.9087H115.709V84.8477H109.648V90.9087Z" fill="#231F20"/>
<path d="M103.59 84.8477H109.651L109.651 78.7871H103.59L103.59 84.8477Z" fill="#B53617"/>
<path d="M109.648 84.8477H115.709L115.71 78.7871H109.648L109.648 84.8477Z" fill="#231F20"/>
<path d="M97.5273 84.8477H103.588L103.588 78.7871H97.5274L97.5273 84.8477Z" fill="#B53617"/>
<path d="M79.3438 139.395H85.4048V133.334H79.3438V139.395Z" fill="#B53617"/>
<path d="M73.2852 139.395H79.3438V133.334H73.2852V139.395Z" fill="#231F20"/>
<path d="M109.648 133.333H115.709V127.271H109.648V133.333Z" fill="#B53617"/>
<path d="M103.59 139.395H109.651V133.334H103.59V139.395Z" fill="#B53617"/>
<path d="M109.648 139.395H115.709V133.334H109.648V139.395Z" fill="#B53617"/>
<path d="M97.5273 139.395H103.588V133.334H97.5273V139.395Z" fill="#B53617"/>
<path d="M91.4688 139.395H97.5298V133.334H91.4688V139.395Z" fill="#231F20"/>
<path d="M97.5273 133.333H103.588V127.271H97.5273V133.333Z" fill="#B53617"/>
<path d="M73.2852 115.151H79.3447V109.092H73.2852V115.151Z" fill="#E3984C"/>
<path d="M73.2852 109.092H79.3447L79.3447 103.031H73.2852L73.2852 109.092Z" fill="#FABE6B"/>
<path d="M91.4688 84.8477H97.5298L97.5298 78.7871H91.4688L91.4688 84.8477Z" fill="#B53617"/>
<path d="M73.2852 103.03H79.3447V96.9707H73.2852V103.03Z" fill="#231F20"/>
<path d="M73.2852 121.213H79.3447V115.152H73.2852V121.213Z" fill="#231F20"/>
<path d="M85.4062 103.03H91.4673V96.9707H85.4062V103.03Z" fill="#FABE6B"/>
<path d="M91.4688 127.272H97.5298L97.5298 121.213H91.4688L91.4688 127.272Z" fill="#231F20"/>
<path d="M97.5273 127.271H103.588L103.588 121.213H97.5274L97.5273 127.271Z" fill="#B53617"/>
<path d="M85.4063 127.272H91.4673V121.213H85.4063V127.272Z" fill="#8C1D13"/>
<path d="M79.3438 127.272H85.4048V121.213L79.3447 121.213L79.3438 127.272Z" fill="#8C1D13"/>
<path d="M79.3447 121.213L85.4048 121.213L85.4048 115.152H79.3447V121.213Z" fill="#231F20"/>
<path d="M85.4062 115.151H91.4673V109.092H85.4062V115.151Z" fill="#231F20"/>
<path d="M79.3447 115.151H85.4048V109.092H79.3447V115.151Z" fill="#E3984C"/>
<path d="M79.3447 109.092H85.4048L85.4048 103.031H79.3447L79.3447 109.092Z" fill="#FABE6B"/>
<path d="M85.4062 109.092H91.4673L91.4673 103.031H85.4063L85.4062 109.092Z" fill="#E3984C"/>
<path d="M91.4688 103.03H97.5298V96.9707H91.4688V103.03Z" fill="#E3984C"/>
<path d="M91.4688 115.151H97.5298V109.092H91.4688V115.151Z" fill="#8C1D13"/>
<path d="M85.4063 121.213H91.4673L91.4673 115.152H85.4062L85.4063 121.213Z" fill="#8C1D13"/>
<path d="M91.4688 109.092H97.5298L97.5298 103.031H91.4688L91.4688 109.092Z" fill="#231F20"/>
<path d="M109.648 169.696H115.709V163.637H109.648V169.696Z" fill="#231F20"/>
<path d="M79.3447 103.03H85.4048V96.9707H79.3447V103.03Z" fill="#FABE6B"/>
<path d="M67.2266 121.213H73.2876V115.152H67.2266V121.213Z" fill="#231F20"/>
<path d="M73.2852 127.272H79.3438L79.3447 121.213H73.2852L73.2852 127.272Z" fill="#8C1D13"/>
<path d="M67.2266 127.271H73.2876V121.213H67.2266V127.271Z" fill="#8C1D13"/>
<path d="M67.2266 115.151H73.2876V109.092H67.2266V115.151Z" fill="#E3984C"/>
<path d="M67.2266 109.092H73.2876L73.2876 103.031H67.2266L67.2266 109.092Z" fill="#231F20"/>
<path d="M73.2852 133.333H79.3447V127.271L73.2852 127.272L73.2852 133.333Z" fill="#8C1D13"/>
<path d="M85.4062 133.333H91.4673L91.4673 127.272H85.4063L85.4062 133.333Z" fill="#B53617"/>
<path d="M91.4688 133.333H97.5298L97.5298 127.272H91.4688L91.4688 133.333Z" fill="#231F20"/>
<path d="M67.2266 103.03H73.2876V96.9707H67.2266V103.03Z" fill="#FABE6B"/>
<path d="M79.3447 133.333H85.4048L85.4048 127.272H79.3438L79.3447 133.333Z" fill="#B53617"/>
<path d="M85.4062 96.9707H91.4673V90.9102H85.4062V96.9707Z" fill="#FABE6B"/>
<path d="M97.5273 96.9712H103.588V90.9102H97.5273V96.9712Z" fill="#231F20"/>
<path d="M97.5274 109.092H103.588V103.031H97.5274V109.092Z" fill="#8C1D13"/>
<path d="M97.5273 103.03H103.588V96.9712H97.5273V103.03Z" fill="#231F20"/>
<path d="M97.5273 115.151H103.588L103.588 109.092H97.5274L97.5273 115.151Z" fill="#B53617"/>
<path d="M79.3438 96.9712L85.4048 96.9707V90.9102H79.3438V96.9712Z" fill="#FABE6B"/>
<path d="M73.2852 96.9707H79.3447L79.3438 90.9102H73.2852V96.9707Z" fill="#FABE6B"/>
<path d="M67.2266 96.9707H73.2876V90.9102H67.2266V96.9707Z" fill="#FABE6B"/>
<path d="M91.4688 96.9707H97.5298V90.9102H91.4688V96.9707Z" fill="#FABE6B"/>
<path d="M97.5274 121.213H103.588L103.588 115.152H97.5273L97.5274 121.213Z" fill="#B53617"/>
<path d="M109.648 127.271H115.709V121.213H109.648V127.271Z" fill="#B53617"/>
<path d="M49.043 133.333H55.1025V127.271H49.043V133.333Z" fill="#B53617"/>
<path d="M49.043 127.271H55.1025L55.1025 121.213H49.043L49.043 127.271Z" fill="#B53617"/>
<path d="M49.043 139.395H55.1025V133.334H49.043V139.395Z" fill="#B53617"/>
<path d="M49.043 121.213H55.1025L55.1025 115.152H49.043L49.043 121.213Z" fill="#231F20"/>
<path d="M49.043 115.151H55.1025V109.092H49.043V115.151Z" fill="#E3984C"/>
<path d="M55.1055 151.515H61.165V145.455H55.1055V151.515Z" fill="#231F20"/>
<path d="M49.043 145.455H55.1025V139.395H49.043V145.455Z" fill="#8C1D13"/>
<path d="M49.043 109.092H55.1025L55.1025 103.031H49.043L49.043 109.092Z" fill="#231F20"/>
<path d="M55.1055 145.455H61.165V139.395H55.1055V145.455Z" fill="#231F20"/>
<path d="M61.1641 78.7895H67.2251V72.7285H61.1641V78.7895Z" fill="#FABE6B"/>
<path d="M67.2266 78.7895H73.2876V72.7285H67.2266V78.7895Z" fill="#231F20"/>
<path d="M73.2852 78.7895H79.3447V72.7285H73.2852V78.7895Z" fill="#FABE6B"/>
<path d="M55.1055 78.7895H61.1641V72.7285H55.1055V78.7895Z" fill="#FABE6B"/>
<path d="M49.043 84.8481H55.1025V78.7871H49.043V84.8481Z" fill="#FABE6B"/>
<path d="M49.043 78.7895H55.1025V72.7285H49.043V78.7895Z" fill="#FABE6B"/>
<path d="M49.043 90.9087H55.1025L55.1025 84.8481H49.043L49.043 90.9087Z" fill="#B4584A"/>
<path d="M49.043 96.9712H55.1025V90.9102H49.043V96.9712Z" fill="#FABE6B"/>
<path d="M49.043 103.03H55.1025V96.9712H49.043V103.03Z" fill="#FABE6B"/>
<path d="M73.2852 151.515H79.3447V145.455H73.2852V151.515Z" fill="#231F20"/>
<path d="M121.773 115.151H127.832V109.092H121.773V115.151Z" fill="#B53617"/>
<path d="M121.773 109.092L127.833 109.092L127.832 103.031H121.773L121.773 109.092Z" fill="#F25C19"/>
<path d="M121.773 121.213L127.832 121.213L127.832 115.152H121.773V121.213Z" fill="#B53617"/>
<path d="M121.773 127.272H127.833L127.832 121.213L121.773 121.213L121.773 127.272Z" fill="#8C1D13"/>
<path d="M79.3447 78.7895H85.4048V72.7285H79.3447V78.7895Z" fill="#FABE6B"/>
<path d="M121.773 103.03H127.833V96.9707H121.773V103.03Z" fill="#231F20"/>
<path d="M121.773 90.9087H127.833L127.832 84.8481L121.773 84.8477V90.9087Z" fill="#231F20"/>
<path d="M121.773 84.8477L127.832 84.8481V78.7871H121.773L121.773 84.8477Z" fill="#FABE6B"/>
<path d="M121.773 139.395H127.832V133.334H121.773V139.395Z" fill="#8C1D13"/>
<path d="M121.773 133.333H127.832V127.271L121.773 127.272L121.773 133.333Z" fill="#8C1D13"/>
<path d="M91.4688 151.515H97.5298V145.455H91.4688V151.515Z" fill="#B53617"/>
<path d="M85.4062 151.515H91.4673V145.455H85.4062V151.515Z" fill="#B53617"/>
<path d="M97.5273 151.515H103.588V145.455H97.5273V151.515Z" fill="#231F20"/>
<path d="M121.773 145.456H127.832L127.833 139.395L121.773 139.395V145.456Z" fill="#8C1D13"/>
<path d="M79.3447 151.515H85.4048V145.455H79.3447V151.515Z" fill="#B53617"/>
<path d="M115.711 151.515H121.772V145.455H115.711V151.515Z" fill="#8C1D13"/>
<path d="M121.773 151.515H127.832L127.833 145.455L121.773 145.456V151.515Z" fill="#231F20"/>
<path d="M103.59 151.515H109.651V145.455H103.59V151.515Z" fill="#B53617"/>
<path d="M109.648 151.515H115.709V145.455H109.648V151.515Z" fill="#B53617"/>
<path d="M55.1055 133.333H61.1641V127.271H55.1055V133.333Z" fill="#8C1D13"/>
<path d="M85.4062 78.7895H91.4673V72.7285H85.4062V78.7895Z" fill="#FABE6B"/>
<path d="M85.4062 84.8477H91.4673L91.4673 78.7871H85.4063L85.4062 84.8477Z" fill="#231F20"/>
<path d="M55.1055 127.271L61.165 127.272V121.213H55.1055L55.1055 127.271Z" fill="#8C1D13"/>
<path d="M55.1055 121.213L61.1641 121.213V115.152H55.1055L55.1055 121.213Z" fill="#231F20"/>
<path d="M73.2852 145.455H79.3447V139.395L73.2852 139.395V145.455Z" fill="#231F20"/>
<path d="M79.3438 145.456L85.4048 145.455V139.395H79.3438V145.456Z" fill="#B53617"/>
<path d="M55.1055 115.151H61.1641L61.1641 109.092L55.1055 109.092V115.151Z" fill="#E3984C"/>
<path d="M55.1055 103.03H61.1641L61.165 96.9707H55.1055V103.03Z" fill="#231F20"/>
<path d="M55.1055 109.092L61.1641 109.092V103.031H55.1055L55.1055 109.092Z" fill="#231F20"/>
<path d="M67.2266 84.8477H73.2876L73.2876 78.7871H67.2266L67.2266 84.8477Z" fill="#FCD691"/>
<path d="M73.2852 84.8477H79.3447L79.3447 78.7871H73.2852L73.2852 84.8477Z" fill="#FCD691"/>
<path d="M79.3447 84.8477H85.4048L85.4048 78.7871H79.3447L79.3447 84.8477Z" fill="#FABE6B"/>
<path d="M61.1641 84.8477H67.2251L67.2251 78.7871H61.1641L61.1641 84.8477Z" fill="#FABE6B"/>
<path d="M55.1055 96.9707H61.165L61.1641 90.9102H55.1055V96.9707Z" fill="#231F20"/>
<path d="M85.4062 145.455H91.4673V139.395H85.4062V145.455Z" fill="#B53617"/>
<path d="M55.1055 84.8481H61.165L61.1641 78.7871H55.1055V84.8481Z" fill="#FABE6B"/>
<path d="M55.1055 90.9087H61.1641V84.8477L55.1055 84.8481L55.1055 90.9087Z" fill="#B4584A"/>
<path d="M55.1055 139.395H61.165V133.334H55.1055V139.395Z" fill="#231F20"/>
<path d="M115.711 90.9087H121.772V84.8477H115.711V90.9087Z" fill="#231F20"/>
<path d="M115.711 84.8477H121.772L121.772 78.7871H115.711L115.711 84.8477Z" fill="#FABE6B"/>
<path d="M115.711 103.03H121.772V96.9707H115.711V103.03Z" fill="#8C1D13"/>
<path d="M115.711 96.9707H121.772V90.9102H115.711V96.9707Z" fill="#231F20"/>
<path d="M115.711 78.7895H121.772V72.7285H115.711V78.7895Z" fill="#E3984C"/>
<path d="M91.4688 145.455H97.5298V139.395H91.4688V145.455Z" fill="#231F20"/>
<path d="M91.4688 78.7895H97.5298V72.7285H91.4688V78.7895Z" fill="#231F20"/>
<path d="M97.5273 78.7895H103.588V72.7285H97.5273V78.7895Z" fill="#B53617"/>
<path d="M109.648 78.7895H115.709V72.7285H109.648V78.7895Z" fill="#231F20"/>
<path d="M103.59 78.7895H109.651V72.7285H103.59V78.7895Z" fill="#B53617"/>
<path d="M115.711 109.092H121.772V103.031H115.711V109.092Z" fill="#B53617"/>
<path d="M109.648 145.455H115.709V139.395H109.648V145.455Z" fill="#B53617"/>
<path d="M103.59 145.455H109.651V139.395H103.59V145.455Z" fill="#B53617"/>
<path d="M115.711 145.455H121.772V139.395H115.711V145.455Z" fill="#231F20"/>
<path d="M115.711 115.151H121.772L121.772 109.092H115.711L115.711 115.151Z" fill="#B53617"/>
<path d="M97.5273 145.455H103.588V139.395H97.5273V145.455Z" fill="#B53617"/>
<path d="M115.711 127.272H121.772V121.213H115.711V127.272Z" fill="#231F20"/>
<path d="M115.711 139.395H121.772V133.334H115.711V139.395Z" fill="#231F20"/>
<path d="M115.711 121.213H121.772L121.772 115.152H115.711L115.711 121.213Z" fill="#231F20"/>
<path d="M115.711 133.333H121.772L121.772 127.272H115.711L115.711 133.333Z" fill="#231F20"/>
<path d="M103.59 187.879H109.651V181.818H103.59V187.879Z" fill="#231F20"/>
<path d="M12.6797 96.9712H18.7407V90.9102H12.6797V96.9712Z" fill="#231F20"/>
<path d="M12.6797 90.9087H18.7407V84.8477H12.6797V90.9087Z" fill="#231F20"/>
<path d="M12.6797 48.4848H18.7407V42.4238H12.6797V48.4848Z" fill="#231F20"/>
<path d="M18.7422 42.4247H24.8032V36.3652H18.7422V42.4247Z" fill="#231F20"/>
<path d="M24.8008 42.4247H30.8618V36.3652H24.8008V42.4247Z" fill="#B53617"/>
<path d="M12.6797 84.8477H18.7407L18.7408 78.7871H12.6797L12.6797 84.8477Z" fill="#231F20"/>
<path d="M12.6797 78.7895H18.7407V72.7285H12.6797V78.7895Z" fill="#231F20"/>
<path d="M12.6797 72.727H18.7407V66.666H12.6797V72.727Z" fill="#231F20"/>
<path d="M12.6797 60.6079H18.7407V54.5469H12.6797V60.6079Z" fill="#231F20"/>
<path d="M12.6797 66.666H18.7407V60.6079H12.6797V66.666Z" fill="#231F20"/>
<path d="M61.1641 187.879H67.2251L67.2251 181.818H61.1641L61.1641 187.879Z" fill="#231F20"/>
<path d="M49.043 187.879H55.1025L55.1025 181.818H49.043L49.043 187.879Z" fill="#231F20"/>
<path d="M42.9844 187.879H49.0454L49.0455 181.818H42.9844L42.9844 187.879Z" fill="#231F20"/>
<path d="M55.1055 187.879L61.165 187.879L61.1641 181.818H55.1055L55.1055 187.879Z" fill="#231F20"/>
<path d="M73.2852 187.879L79.3447 187.879V181.818H73.2852L73.2852 187.879Z" fill="#231F20"/>
<path d="M79.3438 187.879H85.4048L85.4048 181.818H79.3447L79.3438 187.879Z" fill="#231F20"/>
<path d="M85.4062 187.879H91.4673L91.4673 181.818H85.4063L85.4062 187.879Z" fill="#231F20"/>
<path d="M67.2266 187.879H73.2876L73.2876 181.818H67.2266L67.2266 187.879Z" fill="#231F20"/>
<path d="M30.8633 42.4247H36.9243V36.3652H30.8633V42.4247Z" fill="#B53617"/>
<path d="M36.9219 187.879H42.9829L42.983 181.818H36.9219L36.9219 187.879Z" fill="#231F20"/>
<path d="M12.6797 54.5454H18.7407V48.4848H12.6797V54.5454Z" fill="#231F20"/>
<path d="M152.074 84.8481H158.135V78.7871H152.074V84.8481Z" fill="#231F20"/>
<path d="M152.074 90.9087H158.135L158.135 84.8481H152.074L152.074 90.9087Z" fill="#231F20"/>
<path d="M152.074 96.9712H158.135V90.9102H152.074V96.9712Z" fill="#231F20"/>
<path d="M152.074 78.7895H158.135V72.7285H152.074V78.7895Z" fill="#231F20"/>
<path d="M152.074 163.637H158.135V157.576H152.074V163.637Z" fill="#B53617"/>
<path d="M152.074 157.576H158.135V151.516H152.074V157.576Z" fill="#B53617"/>
<path d="M152.074 151.515H158.135V145.455H152.074V151.515Z" fill="#F25C19"/>
<path d="M152.074 169.696H158.135V163.637H152.074V169.696Z" fill="#B53617"/>
<path d="M115.711 169.696H121.772V163.637H115.711V169.696Z" fill="#231F20"/>
<path d="M152.074 145.455H158.135V139.395H152.074V145.455Z" fill="#231F20"/>
<path d="M109.648 42.4247H115.709V36.3652H109.648V42.4247Z" fill="#231F20"/>
<path d="M67.2266 42.4247H73.2876V36.3652H67.2266V42.4247Z" fill="#231F20"/>
<path d="M97.5273 42.4247H103.588V36.3652H97.5273V42.4247Z" fill="#B53617"/>
<path d="M73.2852 42.4247H79.3447V36.3652H73.2852V42.4247Z" fill="#231F20"/>
<path d="M85.4062 42.4247H91.4673V36.3652H85.4062V42.4247Z" fill="#B53617"/>
<path d="M91.4688 42.4247H97.5298V36.3652H91.4688V42.4247Z" fill="#B53617"/>
<path d="M79.3477 42.4247H85.4087V36.3652H79.3477V42.4247Z" fill="#231F20"/>
<path d="M49.043 42.4247H55.1025V36.3652H49.043V42.4247Z" fill="#B53617"/>
<path d="M61.1641 42.4247H67.2251V36.3652H61.1641V42.4247Z" fill="#8C1D13"/>
<path d="M55.1055 42.4247H61.1641V36.3652H55.1055V42.4247Z" fill="#B53617"/>
<path d="M42.9844 42.4247H49.0454V36.3652H42.9844V42.4247Z" fill="#231F20"/>
<path d="M103.59 42.4247H109.651V36.3652H103.59V42.4247Z" fill="#B53617"/>
<path d="M36.9219 42.4247H42.9829V36.3652H36.9219V42.4247Z" fill="#231F20"/>
<path d="M24.8008 36.3638H30.8618V30.3032H24.8008V36.3638Z" fill="#F25C19"/>
<path d="M18.7422 36.3638H24.8032V30.3027H18.7422V36.3638Z" fill="#231F20"/>
<path d="M36.9219 36.3638H42.9829V30.3032L36.9219 30.3027V36.3638Z" fill="#B53617"/>
<path d="M30.8633 36.3638H36.9219L36.9228 30.3032H30.8633V36.3638Z" fill="#B53617"/>
<path d="M109.648 187.879H115.71V181.818H109.648V187.879Z" fill="#231F20"/>
<path d="M79.3438 36.3638H85.4048V30.3032H79.3438V36.3638Z" fill="#B53617"/>
<path d="M85.4062 36.3638H91.4673V30.3032H85.4062V36.3638Z" fill="#F25C19"/>
<path d="M91.4688 36.3638H97.5298V30.3032H91.4688V36.3638Z" fill="#B53617"/>
<path d="M97.5273 36.3638H103.588V30.3032H97.5273V36.3638Z" fill="#B53617"/>
<path d="M73.2852 36.3638H79.3462V30.3027L73.2852 30.3032V36.3638Z" fill="#B53617"/>
<path d="M49.043 36.3638H55.104V30.3027L49.043 30.3032V36.3638Z" fill="#F25C19"/>
<path d="M55.1055 36.3638H61.1665V30.3027L55.1055 30.3032V36.3638Z" fill="#B53617"/>
<path d="M61.1641 36.3638H67.2251V30.3032L61.1641 30.3027V36.3638Z" fill="#B53617"/>
<path d="M67.2266 36.3638H73.2852L73.2861 30.3027L67.2266 30.3032V36.3638Z" fill="#F25C19"/>
<path d="M152.074 175.758H158.135V169.697H152.074V175.758Z" fill="#B53617"/>
<path d="M103.59 36.3638H109.651V30.3027H103.59V36.3638Z" fill="#231F20"/>
<path d="M6.62109 66.6669H12.6806V60.6074H6.62109V66.6669Z" fill="#231F20"/>
<path d="M6.62109 90.9087H12.6797V84.8477H6.62109V90.9087Z" fill="#231F20"/>
<path d="M6.62109 84.8477L12.6807 84.8481L12.6797 78.7871H6.62115L6.62109 84.8477Z" fill="#FABE6B"/>
<path d="M6.62109 78.7895H12.6797V72.7285H6.62109V78.7895Z" fill="#FABE6B"/>
<path d="M6.62109 72.727H12.6797L12.6806 66.6669H6.62109V72.727Z" fill="#FABE6B"/>
<path d="M42.9844 36.3638H49.043L49.0439 30.3027L42.9844 30.3032V36.3638Z" fill="#B53617"/>
<path d="M158.133 151.515H164.194V145.455H158.133V151.515Z" fill="#231F20"/>
<path d="M158.133 145.455H164.194V139.395H158.133V145.455Z" fill="#231F20"/>
<path d="M158.133 157.577H164.194V151.516H158.133V157.577Z" fill="#F25C19"/>
<path d="M158.133 169.696H164.194V163.637H158.133V169.696Z" fill="#B53617"/>
<path d="M158.133 163.637H164.194V157.577H158.133V163.637Z" fill="#B53617"/>
<path d="M158.133 175.758H164.194V169.697H158.133V175.758Z" fill="#B53617"/>
<path d="M121.773 187.879H127.833V181.818H121.773V187.879Z" fill="#231F20"/>
<path d="M127.833 187.879H133.893V181.818H127.833V187.879Z" fill="#231F20"/>
<path d="M158.133 181.819H164.194V175.758H158.133V181.819Z" fill="#B53617"/>
<path d="M115.711 187.879H121.772V181.818H115.711V187.879Z" fill="#231F20"/>
<path d="M158.133 187.879H164.194V181.819H158.133V187.879Z" fill="#231F20"/>
<path d="M152.074 187.879H158.135L158.135 181.818H152.074L152.074 187.879Z" fill="#231F20"/>
<path d="M146.012 187.879H152.073L152.073 181.818H146.012L146.012 187.879Z" fill="#231F20"/>
<path d="M139.953 187.879H146.013L146.012 181.818H139.953V187.879Z" fill="#231F20"/>
<path d="M158.133 96.9712H164.194V90.9102H158.133V96.9712Z" fill="#B53617"/>
<path d="M158.133 84.8481H164.194V78.7871H158.133V84.8481Z" fill="#B53617"/>
<path d="M158.133 103.03H164.194V96.9712H158.133V103.03Z" fill="#231F20"/>
<path d="M158.133 90.9087H164.194L164.194 84.8481H158.133L158.133 90.9087Z" fill="#B53617"/>
<path d="M158.133 72.727H164.194V66.666H158.133V72.727Z" fill="#231F20"/>
<path d="M158.133 78.7895H164.194V72.7285H158.133V78.7895Z" fill="#F25C19"/>
<path d="M30.8633 175.758H36.9228V169.697H30.8633V175.758Z" fill="#231F20"/>
<path d="M30.8633 169.696H36.9219L36.9228 163.637H30.8633V169.696Z" fill="#231F20"/>
<path d="M24.8008 78.7895H30.8618V72.7285H24.8008V78.7895Z" fill="#231F20"/>
<path d="M24.8008 72.727H30.8618V66.666H24.8008V72.727Z" fill="#231F20"/>
<path d="M24.8008 84.8481H30.8619V78.7871H24.8008V84.8481Z" fill="#B53617"/>
<path d="M24.8008 60.6079H30.8618V54.5469H24.8008V60.6079Z" fill="#231F20"/>
<path d="M24.8008 66.666H30.8618V60.6079H24.8008V66.666Z" fill="#231F20"/>
<path d="M24.8008 109.092H30.8619V103.031H24.8008V109.092Z" fill="#231F20"/>
<path d="M24.8008 103.03H30.8618V96.9707H24.8008V103.03Z" fill="#231F20"/>
<path d="M24.8008 90.9087H30.8618L30.8619 84.8481H24.8008L24.8008 90.9087Z" fill="#231F20"/>
<path d="M24.8008 96.9707H30.8618V90.9102H24.8008V96.9707Z" fill="#231F20"/>
<path d="M36.9228 175.758H42.9829V169.697H36.9228V175.758Z" fill="#FABE6B"/>
<path d="M121.773 175.758H127.833V169.697H121.773V175.758Z" fill="#231F20"/>
<path d="M115.711 175.758H121.772V169.697H115.711V175.758Z" fill="#FABE6B"/>
<path d="M109.648 175.758H115.709V169.697H109.648V175.758Z" fill="#FABE6B"/>
<path d="M103.59 175.758H109.651V169.697H103.59V175.758Z" fill="#FABE6B"/>
<path d="M24.8047 54.5454H30.8642V48.4844H24.8047V54.5454Z" fill="#231F20"/>
<path d="M146.012 169.696H152.073V163.637H146.012V169.696Z" fill="#B53617"/>
<path d="M97.5273 175.758H103.588V169.697H97.5273V175.758Z" fill="#231F20"/>
<path d="M146.012 175.758H152.073V169.697H146.012V175.758Z" fill="#8C1D13"/>
<path d="M139.953 175.758H146.012V169.697H139.953V175.758Z" fill="#231F20"/>
<path d="M55.1055 175.758H61.165V169.697H55.1055V175.758Z" fill="#231F20"/>
<path d="M49.043 175.758H55.1025V169.697H49.043V175.758Z" fill="#FABE6B"/>
<path d="M42.9844 175.758H49.0454V169.697H42.9844V175.758Z" fill="#FABE6B"/>
<path d="M61.165 175.758H67.2251V169.697H61.165V175.758Z" fill="#B53617"/>
<path d="M73.2852 175.758H79.3447V169.697H73.2852V175.758Z" fill="#B53617"/>
<path d="M79.3447 175.758H85.4048V169.697H79.3447V175.758Z" fill="#8C1D13"/>
<path d="M85.4062 175.758H91.4673V169.697H85.4062V175.758Z" fill="#6F160E"/>
<path d="M67.2266 175.758H73.2876V169.697H67.2266V175.758Z" fill="#B53617"/>
<path d="M91.4688 175.758H97.5298V169.697H91.4688V175.758Z" fill="#231F20"/>
<path d="M146.012 163.637H152.073V157.576H146.012V163.637Z" fill="#B53617"/>
<path d="M30.8642 54.5454H36.9228V48.4844H30.8642V54.5454Z" fill="#FABE6B"/>
<path d="M139.953 121.213H146.013V115.152H139.953V121.213Z" fill="#231F20"/>
<path d="M139.953 133.333H146.013V127.271H139.953V133.333Z" fill="#F25C19"/>
<path d="M139.953 127.271H146.013V121.213H139.953V127.271Z" fill="#231F20"/>
<path d="M133.891 169.696H139.952V163.637H133.891V169.696Z" fill="#231F20"/>
<path d="M127.832 169.696H133.893V163.637L127.832 163.637V169.696Z" fill="#231F20"/>
<path d="M139.953 169.696H146.012V163.637H139.953V169.696Z" fill="#8C1D13"/>
<path d="M121.773 169.696H127.832L127.833 163.637H121.773V169.696Z" fill="#231F20"/>
<path d="M152.074 181.818H158.135L158.135 175.758H152.074L152.074 181.818Z" fill="#B53617"/>
<path d="M139.953 145.456H146.013V139.395H139.953V145.456Z" fill="#B53617"/>
<path d="M139.953 151.515H146.013V145.456H139.953V151.515Z" fill="#B53617"/>
<path d="M139.953 163.637L146.013 163.637L146.012 157.576H139.953V163.637Z" fill="#B53617"/>
<path d="M139.953 139.395H146.013V133.334H139.953V139.395Z" fill="#B53617"/>
<path d="M67.2266 54.5454H73.2876V48.4844H67.2266V54.5454Z" fill="#FABE6B"/>
<path d="M61.1641 54.5454H67.2251V48.4844H61.1641V54.5454Z" fill="#FABE6B"/>
<path d="M73.2852 54.5454H79.3447V48.4844H73.2852V54.5454Z" fill="#FABE6B"/>
<path d="M91.4688 54.5454H97.5283V48.4844H91.4688V54.5454Z" fill="#231F20"/>
<path d="M85.4062 54.5454H91.4673V48.4844H85.4062V54.5454Z" fill="#FABE6B"/>
<path d="M79.3447 54.5454H85.4048V48.4844H79.3447V54.5454Z" fill="#FABE6B"/>
<path d="M42.9844 54.5454H49.0454V48.4844H42.9844V54.5454Z" fill="#FABE6B"/>
<path d="M55.1055 54.5454H61.1641V48.4844H55.1055V54.5454Z" fill="#231F20"/>
<path d="M36.9228 54.5454H42.9829V48.4844H36.9228V54.5454Z" fill="#FABE6B"/>
<path d="M49.043 54.5454H55.1025V48.4844H49.043V54.5454Z" fill="#FABE6B"/>
<path d="M103.59 54.5454H109.651V48.4844H103.59V54.5454Z" fill="#B53617"/>
<path d="M97.5283 54.5454H103.588V48.4844H97.5283V54.5454Z" fill="#B53617"/>
<path d="M109.648 54.5454H115.709V48.4844H109.648V54.5454Z" fill="#B53617"/>
<path d="M115.711 54.5454H121.772V48.4844H115.711V54.5454Z" fill="#231F20"/>
<path d="M139.953 157.576L146.013 157.577V151.516H139.953V157.576Z" fill="#B53617"/>
<path d="M18.7422 66.6669H24.8032V60.6074H18.7422V66.6669Z" fill="#B53617"/>
<path d="M18.7422 90.9087H24.8032V84.8477H18.7422V90.9087Z" fill="#B53617"/>
<path d="M18.7422 78.7895H24.8032V72.7285H18.7422V78.7895Z" fill="#B53617"/>
<path d="M18.7422 72.727H24.8032V66.6669H18.7422V72.727Z" fill="#B53617"/>
<path d="M18.7422 84.8477H24.8032L24.8033 78.7871H18.7422L18.7422 84.8477Z" fill="#B53617"/>
<path d="M18.7422 96.9712H24.8032V90.9102H18.7422V96.9712Z" fill="#8C1D13"/>
<path d="M18.7422 103.03H24.8032V96.9712H18.7422V103.03Z" fill="#231F20"/>
<path d="M121.773 181.818H127.833L127.833 175.758H121.773L121.773 181.818Z" fill="#E3984C"/>
<path d="M109.648 181.818H115.71L115.709 175.758H109.648L109.648 181.818Z" fill="#E3984C"/>
<path d="M115.711 181.818H121.772L121.772 175.758H115.711L115.711 181.818Z" fill="#E3984C"/>
<path d="M103.59 181.818H109.651L109.651 175.758H103.59L103.59 181.818Z" fill="#E3984C"/>
<path d="M97.5273 181.819H103.588V175.758H97.5273V181.819Z" fill="#231F20"/>
<path d="M139.953 181.818H146.012L146.013 175.758L139.953 175.758L139.953 181.818Z" fill="#231F20"/>
<path d="M146.012 181.818H152.073L152.073 175.758H146.012L146.012 181.818Z" fill="#8C1D13"/>
<path d="M127.832 181.819L133.893 181.818L133.893 175.758H127.832V181.819Z" fill="#231F20"/>
<path d="M61.1641 181.818H67.2251L67.2251 175.758L61.1641 175.758L61.1641 181.818Z" fill="#B53617"/>
<path d="M42.9844 181.818H49.0455L49.0454 175.758H42.9844L42.9844 181.818Z" fill="#E3984C"/>
<path d="M55.1055 181.818H61.1641L61.165 175.758H55.1055L55.1055 181.818Z" fill="#231F20"/>
<path d="M49.043 181.818H55.1025L55.1025 175.758H49.043L49.043 181.818Z" fill="#E3984C"/>
<path d="M36.9219 181.818H42.983L42.9829 175.758L36.9219 175.758L36.9219 181.818Z" fill="#E3984C"/>
<path d="M79.3438 181.819L85.4048 181.818L85.4048 175.758L79.3438 175.758V181.819Z" fill="#6F160E"/>
<path d="M73.2852 181.818L79.3438 181.819L79.3447 175.758H73.2852L73.2852 181.818Z" fill="#8C1D13"/>
<path d="M30.8633 181.819L36.9219 181.818L36.9228 175.758H30.8633V181.819Z" fill="#231F20"/>
<path d="M85.4063 181.818H91.4673L91.4673 175.758H85.4062L85.4063 181.818Z" fill="#231F20"/>
<path d="M67.2266 181.818H73.2876L73.2876 175.758H67.2266L67.2266 181.818Z" fill="#B53617"/>
<path d="M24.8047 48.4844H30.8642V42.4238H24.8047V48.4844Z" fill="#B53617"/>
<path d="M146.013 133.333H152.073V127.271H146.013V133.333Z" fill="#231F20"/>
<path d="M146.013 145.456H152.073V139.395H146.013V145.456Z" fill="#F25C19"/>
<path d="M146.012 139.395L152.073 139.395V133.334H146.013L146.012 139.395Z" fill="#231F20"/>
<path d="M146.013 151.515H152.073V145.456L146.012 145.455L146.013 151.515Z" fill="#B53617"/>
<path d="M73.2852 48.4844H79.3447V42.4247H73.2852V48.4844Z" fill="#FABE6B"/>
<path d="M42.9844 48.4844H49.0454V42.4247H42.9844V48.4844Z" fill="#FABE6B"/>
<path d="M49.043 48.4844H55.1025V42.4247H49.043V48.4844Z" fill="#231F20"/>
<path d="M36.9219 48.4848L42.9829 48.4844V42.4247H36.9219V48.4848Z" fill="#FABE6B"/>
<path d="M55.1055 48.4844L61.165 48.4848V42.4238L55.1055 42.4247V48.4844Z" fill="#8C1D13"/>
<path d="M61.1641 48.4844H67.2251V42.4247H61.1641V48.4844Z" fill="#231F20"/>
<path d="M67.2266 48.4844H73.2876V42.4247H67.2266V48.4844Z" fill="#FABE6B"/>
<path d="M18.7422 54.5454H24.8032V48.4844H18.7422V54.5454Z" fill="#B53617"/>
<path d="M30.8633 48.4848L36.9228 48.4844V42.4238L30.8633 42.4247V48.4848Z" fill="#231F20"/>
<path d="M18.7422 48.4844H24.8032V42.4247H18.7422V48.4844Z" fill="#B53617"/>
<path d="M146.012 157.576H152.073V151.516H146.013L146.012 157.576Z" fill="#B53617"/>
<path d="M79.3438 48.4848L85.4048 48.4844V42.4238H79.3438V48.4848Z" fill="#FABE6B"/>
<path d="M103.59 48.4844H109.651V42.4247H103.59V48.4844Z" fill="#B53617"/>
<path d="M109.648 48.4844H115.709V42.4247H109.648V48.4844Z" fill="#231F20"/>
<path d="M85.4062 48.4844H91.4673V42.4247H85.4062V48.4844Z" fill="#231F20"/>
<path d="M18.7422 60.6074H24.8032V54.5469H18.7422V60.6074Z" fill="#B53617"/>
<path d="M91.4688 48.4844L97.5298 48.4848V42.4247H91.4688V48.4844Z" fill="#B53617"/>
<path d="M97.5273 48.4848L103.588 48.4844V42.4247H97.5273V48.4848Z" fill="#B53617"/>
<path d="M206.621 78.7895H212.681V72.7285H206.621V78.7895Z" fill="#231F20"/>
<path d="M206.621 84.8481H212.681V78.7871H206.621V84.8481Z" fill="#231F20"/>
<path d="M194.496 78.7895H200.557V72.7285H194.496V78.7895Z" fill="#231F20"/>
<path d="M194.497 72.727H200.557V66.666H194.496L194.497 72.727Z" fill="#B53617"/>
<path d="M194.496 66.666H200.557V60.6074H194.497L194.496 66.666Z" fill="#231F20"/>
<path d="M200.559 78.7895H206.62V72.7285H200.559V78.7895Z" fill="#8C1D13"/>
<path d="M200.559 72.727H206.62V66.666H200.559V72.727Z" fill="#231F20"/>
<path d="M200.559 84.8481H206.62V78.7871H200.559V84.8481Z" fill="#231F20"/>
</svg>
