<svg width="272" height="200" viewBox="0 0 272 200" fill="none" xmlns="http://www.w3.org/2000/svg">
<path d="M13.7286 200.001H20.1806V193.549H13.7286V200.001Z" fill="#231F20"/>
<path d="M7.2793 199.999H13.7297V193.547H7.2793V199.999Z" fill="#231F20"/>
<path d="M7.2793 193.547H13.7297V187.096H7.2793V193.547Z" fill="#E1850F"/>
<path d="M7.2793 129.032H13.7297V122.58H7.2793V129.032Z" fill="#231F20"/>
<path d="M7.2793 187.096H13.7297V180.645H7.2793V187.096Z" fill="#F9A70D"/>
<path d="M7.2793 180.645H13.7297L13.7297 174.193H7.27933L7.2793 180.645Z" fill="#FBC707"/>
<path d="M7.27933 174.193H13.7297L13.7297 167.742H7.2793L7.27933 174.193Z" fill="#231F20"/>
<path d="M7.2793 167.742H13.7297L13.7297 161.291H7.27933L7.2793 167.742Z" fill="#231F20"/>
<path d="M7.2793 122.58H13.7297V116.129H7.2793V122.58Z" fill="#231F20"/>
<path d="M45.9863 12.9052H52.4384V6.45312H45.9863V12.9052Z" fill="#B46241"/>
<path d="M84.6973 12.9052H91.1493V6.45312H84.6973V12.9052Z" fill="#B46241"/>
<path d="M104.053 12.9052H110.503V6.45312H104.053V12.9052Z" fill="#B46241"/>
<path d="M78.2441 12.9052H84.6946V6.45312H78.2441V12.9052Z" fill="#B46241"/>
<path d="M97.5996 12.9052H104.052V6.45312H97.5996V12.9052Z" fill="#B46241"/>
<path d="M91.1465 12.9052H97.5985V6.45312H91.1465V12.9052Z" fill="#B46241"/>
<path d="M7.2793 116.129H13.7297V109.678H7.2793V116.129Z" fill="#6E2F26"/>
<path d="M65.342 12.9032H71.794V6.45117H65.342V12.9032Z" fill="#B46241"/>
<path d="M52.4396 12.9032H58.8916V6.45117H52.4396V12.9032Z" fill="#B46241"/>
<path d="M58.8887 12.9052H65.3407V6.45312H58.8887V12.9052Z" fill="#B46241"/>
<path d="M110.502 12.9052H116.954V6.45312H110.502V12.9052Z" fill="#231F20"/>
<path d="M39.5332 12.9052H45.9852V6.45312H39.5332V12.9052Z" fill="#B46241"/>
<path d="M71.7949 12.9052H78.2469V6.45312H71.7949V12.9052Z" fill="#B46241"/>
<path d="M7.2793 77.4188H13.7297V70.9668H7.2793V77.4188Z" fill="#914629"/>
<path d="M7.2793 70.9668H13.7297V64.5156H7.2793V70.9668Z" fill="#914629"/>
<path d="M7.2793 83.8719H13.7297V77.4199H7.2793V83.8719Z" fill="#B46241"/>
<path d="M7.2793 51.6125H13.7297V45.1621H7.2793V51.6125Z" fill="#231F20"/>
<path d="M7.2793 64.5156H13.7297V58.0645H7.2793V64.5156Z" fill="#B46241"/>
<path d="M7.2793 58.0645H13.7297V51.6125H7.2793V58.0645Z" fill="#231F20"/>
<path d="M7.2793 109.678H13.7297V103.227H7.2793V109.678Z" fill="#914629"/>
<path d="M7.2793 90.3215H13.7297V83.8719H7.2793V90.3215Z" fill="#914629"/>
<path d="M7.2793 103.225H13.7297V96.7734H7.2793V103.225Z" fill="#914629"/>
<path d="M7.2793 96.7734H13.7297V90.3215H7.2793V96.7734Z" fill="#914629"/>
<path d="M33.084 12.9052H39.5344V6.45312H33.084V12.9052Z" fill="#231F20"/>
<path d="M39.5332 6.45203H45.9853V0H39.5332V6.45203Z" fill="#231F20"/>
<path d="M45.9864 6.45203H52.4384V0H45.9864V6.45203Z" fill="#231F20"/>
<path d="M52.4396 6.45117H58.8916L58.8916 0H52.4396L52.4396 6.45117Z" fill="#231F20"/>
<path d="M58.8887 6.45203H65.3407V0H58.8887V6.45203Z" fill="#231F20"/>
<path d="M65.342 6.45117H71.794L71.7941 0H65.342L65.342 6.45117Z" fill="#231F20"/>
<path d="M104.053 6.45203H110.503V0H104.053V6.45203Z" fill="#231F20"/>
<path d="M78.2442 6.45203H84.6946V0H78.2442V6.45203Z" fill="#231F20"/>
<path d="M84.6973 6.45203H91.1493V0H84.6973V6.45203Z" fill="#231F20"/>
<path d="M97.5996 6.45203H104.052V0H97.5996V6.45203Z" fill="#231F20"/>
<path d="M71.795 6.45203H78.247V0H71.7941L71.795 6.45203Z" fill="#231F20"/>
<path d="M91.1465 6.45203H97.5985V0H91.1465V6.45203Z" fill="#231F20"/>
<path d="M0.826172 103.225H7.2782V96.7734H0.826172V103.225Z" fill="#231F20"/>
<path d="M0.826172 96.7734H7.2782V90.3223H0.826172V96.7734Z" fill="#231F20"/>
<path d="M0.826172 83.8719H7.2782V77.4199H0.826172V83.8719Z" fill="#231F20"/>
<path d="M0.826172 77.4188H7.2782V70.9668H0.826172V77.4188Z" fill="#231F20"/>
<path d="M0.826172 116.128H7.2782V109.678H0.826172V116.128Z" fill="#231F20"/>
<path d="M0.826172 90.3223H7.2782V83.8719H0.826172V90.3223Z" fill="#231F20"/>
<path d="M0.826172 70.9668H7.2782L7.27823 64.5155H0.826202L0.826172 70.9668Z" fill="#231F20"/>
<path d="M0.826202 64.5155H7.27823L7.2782 58.0645H0.826172L0.826202 64.5155Z" fill="#231F20"/>
<path d="M0.826172 109.678H7.2782V103.227H0.826172V109.678Z" fill="#231F20"/>
<path d="M200.826 129.032H207.277V122.58H200.826V129.032Z" fill="#FBC707"/>
<path d="M200.826 135.485H207.277V129.033H200.826V135.485Z" fill="#F9A70D"/>
<path d="M200.826 122.58H207.277V116.129H200.826V122.58Z" fill="#231F20"/>
<path d="M200.826 141.934H207.277V135.482H200.826V141.934Z" fill="#231F20"/>
<path d="M200.826 187.097H207.277V180.646H200.826V187.097Z" fill="#F9A70D"/>
<path d="M200.826 193.548H207.277L207.277 187.097H200.826L200.826 193.548Z" fill="#E1850F"/>
<path d="M200.826 200.001H207.277L207.277 193.548H200.826L200.826 200.001Z" fill="#231F20"/>
<path d="M200.826 180.646H207.277L207.277 174.193H200.826L200.826 180.646Z" fill="#F9A70D"/>
<path d="M200.826 174.193H207.277L207.277 167.742H200.826L200.826 174.193Z" fill="#F9A70D"/>
<path d="M200.826 161.29H207.277V154.84H200.826V161.29Z" fill="#F9A70D"/>
<path d="M200.826 154.839H207.277V148.387H200.826V154.839Z" fill="#F9A70D"/>
<path d="M200.826 148.387H207.277V141.936H200.826V148.387Z" fill="#FBC707"/>
<path d="M200.826 167.742H207.277V161.29H200.826V167.742Z" fill="#F9A70D"/>
<path d="M129.857 193.548H136.308V187.096H129.857V193.548Z" fill="#CA6610"/>
<path d="M13.7286 45.163H20.1806V38.7109H13.7286V45.163Z" fill="#231F20"/>
<path d="M65.342 19.3561H71.7941L71.794 12.9032H65.342L65.342 19.3561Z" fill="#914629"/>
<path d="M116.955 19.3563H123.407V12.9043H116.955V19.3563Z" fill="#231F20"/>
<path d="M33.084 19.3563H39.5344V12.9052H33.084V19.3563Z" fill="#B46241"/>
<path d="M39.5332 19.3563H45.9852V12.9052H39.5332V19.3563Z" fill="#914629"/>
<path d="M45.9863 19.3563H52.4384V12.9052H45.9863V19.3563Z" fill="#231F20"/>
<path d="M52.4396 19.3561H58.8916L58.8916 12.9032H52.4396L52.4396 19.3561Z" fill="#231F20"/>
<path d="M26.6309 19.3563H33.0829V12.9043H26.6309V19.3563Z" fill="#231F20"/>
<path d="M97.5996 19.3563H104.052V12.9052H97.5996V19.3563Z" fill="#231F20"/>
<path d="M91.1465 19.3563H97.5985V12.9052H91.1465V19.3563Z" fill="#231F20"/>
<path d="M104.053 19.3563H110.503V12.9052H104.053V19.3563Z" fill="#914629"/>
<path d="M110.502 19.3563H116.954V12.9052H110.502V19.3563Z" fill="#B46241"/>
<path d="M71.7941 19.3561L78.2469 19.3563V12.9052H71.7949L71.7941 19.3561Z" fill="#914629"/>
<path d="M58.8887 19.3563H65.3407V12.9052H58.8887V19.3563Z" fill="#914629"/>
<path d="M84.6973 19.3563H91.1493V12.9052H84.6973V19.3563Z" fill="#231F20"/>
<path d="M78.2441 19.3563H84.6946V12.9052H78.2441V19.3563Z" fill="#914629"/>
<path d="M97.5996 193.548H104.052V187.096H97.5996V193.548Z" fill="#E1850F"/>
<path d="M104.053 193.548H110.503V187.096H104.053V193.548Z" fill="#E1850F"/>
<path d="M110.502 193.548H116.954V187.096H110.502V193.548Z" fill="#E1850F"/>
<path d="M149.213 193.548H155.663V187.096H149.213V193.548Z" fill="#E1850F"/>
<path d="M78.2441 193.548H84.6946V187.096H78.2441V193.548Z" fill="#E1850F"/>
<path d="M84.6973 193.548H91.1493V187.096H84.6973V193.548Z" fill="#E1850F"/>
<path d="M136.311 193.548H142.763V187.096H136.311V193.548Z" fill="#CA6610"/>
<path d="M142.76 193.548L149.213 193.548V187.096L142.76 187.096V193.548Z" fill="#231F20"/>
<path d="M116.955 193.548H123.407V187.096H116.955V193.548Z" fill="#E1850F"/>
<path d="M123.408 193.548H129.859V187.096H123.408V193.548Z" fill="#231F20"/>
<path d="M91.1465 193.548H97.5985V187.096H91.1465V193.548Z" fill="#E1850F"/>
<path d="M71.7949 193.548H78.2469V187.096H71.7949V193.548Z" fill="#231F20"/>
<path d="M33.084 193.548H39.5344V187.096H33.084V193.548Z" fill="#231F20"/>
<path d="M26.6309 193.548H33.0829V187.096H26.6309V193.548Z" fill="#E1850F"/>
<path d="M39.5332 193.548H45.9852V187.096H39.5332V193.548Z" fill="#E1850F"/>
<path d="M65.342 193.548L71.7949 193.548V187.096L65.342 187.096V193.548Z" fill="#E1850F"/>
<path d="M58.8887 193.548H65.3407V187.096H58.8887V193.548Z" fill="#231F20"/>
<path d="M52.4396 193.548H58.8916V187.096H52.4396V193.548Z" fill="#E1850F"/>
<path d="M45.9863 193.548H52.4384V187.096H45.9863V193.548Z" fill="#231F20"/>
<path d="M187.924 187.095H194.376V180.645H187.924V187.095Z" fill="#F9A70D"/>
<path d="M187.924 135.485H194.376V129.033H187.924V135.485Z" fill="#231F20"/>
<path d="M187.924 141.934H194.376V135.482H187.924V141.934Z" fill="#FBC707"/>
<path d="M187.924 154.839H194.376V148.387H187.924V154.839Z" fill="#F9A70D"/>
<path d="M187.924 161.29H194.376V154.84H187.924V161.29Z" fill="#F9A70D"/>
<path d="M155.678 193.548H162.13V187.096H155.678V193.548Z" fill="#231F20"/>
<path d="M187.924 148.387H194.376V141.936H187.924V148.387Z" fill="#F9A70D"/>
<path d="M187.924 122.581H194.376V116.129H187.924V122.581Z" fill="#231F20"/>
<path d="M187.924 129.032H194.376V122.581H187.924V129.032Z" fill="#F9A70D"/>
<path d="M175.021 193.548H181.472V187.096H175.021V193.548Z" fill="#E1850F"/>
<path d="M168.568 193.548H175.02V187.096H168.568V193.548Z" fill="#231F20"/>
<path d="M162.061 193.548H168.513V187.096H162.061V193.548Z" fill="#E1850F"/>
<path d="M181.471 193.548H187.923V187.096H181.471V193.548Z" fill="#E1850F"/>
<path d="M187.924 167.741H194.376L194.376 161.29H187.924L187.924 167.741Z" fill="#F9A70D"/>
<path d="M187.924 180.645H194.376L194.376 174.193H187.924L187.924 180.645Z" fill="#231F20"/>
<path d="M187.924 174.193H194.376V167.741H187.924V174.193Z" fill="#F9A70D"/>
<path d="M187.924 193.548H194.376V187.095H187.924V193.548Z" fill="#E1850F"/>
<path d="M13.7286 38.7098H20.1806V32.2578H13.7286V38.7098Z" fill="#231F20"/>
<path d="M194.373 174.194H200.825V167.742H194.373V174.194Z" fill="#F9A70D"/>
<path d="M194.373 167.742H200.825L200.825 161.291H194.373L194.373 167.742Z" fill="#F9A70D"/>
<path d="M194.373 187.095H200.825V180.645H194.373V187.095Z" fill="#F9A70D"/>
<path d="M194.373 180.645H200.825V174.194H194.373V180.645Z" fill="#F9A70D"/>
<path d="M194.373 193.548H200.825V187.095H194.373V193.548Z" fill="#E1850F"/>
<path d="M194.373 161.291H200.825L200.825 154.84H194.373L194.373 161.291Z" fill="#F9A70D"/>
<path d="M194.373 141.934H200.825V135.482H194.373V141.934Z" fill="#FBC707"/>
<path d="M194.373 135.485H200.825V129.033H194.373V135.485Z" fill="#231F20"/>
<path d="M136.311 199.999H142.763V193.548H136.311V199.999Z" fill="#231F20"/>
<path d="M13.7286 51.6125H20.1806V45.163H13.7286V51.6125Z" fill="#B46241"/>
<path d="M194.373 199.999H200.825V193.548H194.373V199.999Z" fill="#231F20"/>
<path d="M149.213 200.001H155.663L155.663 193.548H149.213L149.213 200.001Z" fill="#231F20"/>
<path d="M162.115 200.001H168.567V193.549H162.115V200.001Z" fill="#231F20"/>
<path d="M155.662 199.999H162.114V193.547H155.662V199.999Z" fill="#231F20"/>
<path d="M142.76 199.999H149.212V193.547L142.76 193.548V199.999Z" fill="#231F20"/>
<path d="M175.021 199.999H181.472V193.548H175.021V199.999Z" fill="#231F20"/>
<path d="M181.471 199.999H187.923V193.548H181.471V199.999Z" fill="#231F20"/>
<path d="M187.924 199.999H194.376V193.548H187.924V199.999Z" fill="#231F20"/>
<path d="M194.373 129.032H200.825V122.58H194.373V129.032Z" fill="#F9A70D"/>
<path d="M168.568 199.999H175.02V193.548H168.568V199.999Z" fill="#231F20"/>
<path d="M194.373 154.839H200.825V148.387H194.373V154.839Z" fill="#F9A70D"/>
<path d="M194.373 122.58H200.825V116.129H194.373V122.58Z" fill="#231F20"/>
<path d="M194.373 148.387H200.825V141.936H194.373V148.387Z" fill="#F9A70D"/>
<path d="M13.7286 141.935H20.1807V135.485H13.7286V141.935Z" fill="#231F20"/>
<path d="M13.7286 135.485H20.1807L20.1806 129.033H13.7286L13.7286 135.485Z" fill="#231F20"/>
<path d="M13.7286 122.581H20.1806V116.129H13.7286V122.581Z" fill="#914629"/>
<path d="M13.7286 129.032H20.1806V122.581H13.7286V129.032Z" fill="#6E2F26"/>
<path d="M13.7286 154.839H20.1806V148.387H13.7286V154.839Z" fill="#231F20"/>
<path d="M13.7286 116.129H20.1806V109.678H13.7286V116.129Z" fill="#231F20"/>
<path d="M13.7286 167.741H20.1807V161.291H13.7286V167.741Z" fill="#FBC707"/>
<path d="M13.7286 174.194H20.1806L20.1807 167.741H13.7286L13.7286 174.194Z" fill="#F9A70D"/>
<path d="M13.7286 161.291H20.1807L20.1806 154.84H13.7286L13.7286 161.291Z" fill="#231F20"/>
<path d="M13.7286 64.5149H20.1806V58.0645H13.7286V64.5149Z" fill="#914629"/>
<path d="M13.7286 180.645H20.1807L20.1806 174.194H13.7286L13.7286 180.645Z" fill="#F9A70D"/>
<path d="M13.7286 70.9675H20.1807L20.1806 64.5149H13.7286L13.7286 70.9675Z" fill="#914629"/>
<path d="M13.7286 77.4188H20.1806L20.1807 70.9675H13.7286L13.7286 77.4188Z" fill="#B46241"/>
<path d="M13.7286 58.0645H20.1806V51.6125H13.7286V58.0645Z" fill="#914629"/>
<path d="M13.7286 83.8719H20.1806V77.4199H13.7286V83.8719Z" fill="#914629"/>
<path d="M13.7286 96.7743H20.1806V90.3223H13.7286V96.7743Z" fill="#231F20"/>
<path d="M13.7286 103.225H20.1806V96.7743H13.7286V103.225Z" fill="#231F20"/>
<path d="M13.7286 109.678H20.1806V103.227H13.7286V109.678Z" fill="#231F20"/>
<path d="M13.7286 90.3223H20.1806V83.8719H13.7286V90.3223Z" fill="#231F20"/>
<path d="M97.5996 199.999H104.052V193.548H97.5996V199.999Z" fill="#231F20"/>
<path d="M65.342 200.001H71.794V193.549L65.342 193.548L65.342 200.001Z" fill="#231F20"/>
<path d="M129.857 199.999H136.308V193.548H129.857V199.999Z" fill="#231F20"/>
<path d="M91.1465 199.999H97.5985V193.548H91.1465V199.999Z" fill="#231F20"/>
<path d="M78.2441 199.999H84.6946V193.548H78.2441V199.999Z" fill="#231F20"/>
<path d="M71.7949 199.999H78.2469V193.548H71.7949V199.999Z" fill="#231F20"/>
<path d="M84.6973 199.999H91.1493V193.548H84.6973V199.999Z" fill="#231F20"/>
<path d="M116.955 199.999H123.407V193.548H116.955V199.999Z" fill="#231F20"/>
<path d="M123.408 199.999H129.859V193.548H123.408V199.999Z" fill="#231F20"/>
<path d="M104.053 199.999H110.503V193.548H104.053V199.999Z" fill="#231F20"/>
<path d="M110.502 199.999H116.954V193.548H110.502V199.999Z" fill="#231F20"/>
<path d="M33.084 199.999H39.5344V193.548H33.084V199.999Z" fill="#231F20"/>
<path d="M20.1816 199.999H26.6337V193.547H20.1816V199.999Z" fill="#231F20"/>
<path d="M20.1816 193.547H26.6337V187.096H20.1816V193.547Z" fill="#231F20"/>
<path d="M13.7286 193.549H20.1806L20.1816 187.096L13.7286 187.096L13.7286 193.549Z" fill="#E1850F"/>
<path d="M26.6309 199.999H33.0829V193.548H26.6309V199.999Z" fill="#231F20"/>
<path d="M52.4396 200.001H58.8916L58.8916 193.548H52.4396L52.4396 200.001Z" fill="#231F20"/>
<path d="M45.9863 199.999H52.4384V193.548H45.9863V199.999Z" fill="#231F20"/>
<path d="M58.8887 199.999H65.3407V193.548H58.8887V199.999Z" fill="#231F20"/>
<path d="M39.5332 199.999H45.9852V193.548H39.5332V199.999Z" fill="#231F20"/>
<path d="M13.7286 187.096L20.1806 187.097L20.1807 180.645H13.7286V187.096Z" fill="#F9A70D"/>
<path d="M213.729 180.645H220.181V174.193H213.729V180.645Z" fill="#231F20"/>
<path d="M213.729 174.193H220.181L220.181 167.742H213.729L213.729 174.193Z" fill="#E1850F"/>
<path d="M213.729 193.548H220.181V187.096H213.729V193.548Z" fill="#E1850F"/>
<path d="M213.729 135.485H220.181V129.033H213.729V135.485Z" fill="#231F20"/>
<path d="M213.729 167.742H220.181L220.181 161.291H213.729L213.729 167.742Z" fill="#F9A70D"/>
<path d="M213.729 154.839H220.181V148.387H213.729V154.839Z" fill="#F9A70D"/>
<path d="M213.729 141.934H220.181V135.482H213.729V141.934Z" fill="#FBC707"/>
<path d="M213.729 148.387H220.181V141.936H213.729V148.387Z" fill="#F9A70D"/>
<path d="M213.729 200.001H220.181L220.181 193.548H213.729L213.729 200.001Z" fill="#231F20"/>
<path d="M213.729 161.291H220.181L220.181 154.84H213.729L213.729 161.291Z" fill="#F9A70D"/>
<path d="M213.729 187.096H220.181V180.645H213.729V187.096Z" fill="#F9A70D"/>
<path d="M26.6309 187.096H33.0829V180.645H26.6309V187.096Z" fill="#F9A70D"/>
<path d="M220.182 141.934H226.634V135.482H220.182V141.934Z" fill="#231F20"/>
<path d="M220.182 148.388H226.634V141.936H220.182V148.388Z" fill="#231F20"/>
<path d="M220.182 161.29H226.634V154.84H220.182V161.29Z" fill="#231F20"/>
<path d="M220.182 167.741H226.634L226.634 161.29H220.182L220.182 167.741Z" fill="#231F20"/>
<path d="M220.182 154.839H226.634V148.388H220.182V154.839Z" fill="#231F20"/>
<path d="M220.182 109.679H226.634V103.227H220.182V109.679Z" fill="#231F20"/>
<path d="M220.182 116.128H226.634V109.679H220.182V116.128Z" fill="#231F20"/>
<path d="M220.182 122.581H226.634V116.128H220.182V122.581Z" fill="#231F20"/>
<path d="M220.182 180.645H226.634V174.193H220.182V180.645Z" fill="#E1850F"/>
<path d="M220.182 187.095H226.634L226.634 180.645H220.182L220.182 187.095Z" fill="#231F20"/>
<path d="M220.182 174.193H226.634V167.741H220.182V174.193Z" fill="#231F20"/>
<path d="M220.182 193.548H226.634V187.095H220.182V193.548Z" fill="#231F20"/>
<path d="M207.275 129.032H213.727V122.58H207.275V129.032Z" fill="#231F20"/>
<path d="M207.275 135.485H213.727V129.033H207.275V135.485Z" fill="#FBC707"/>
<path d="M207.275 141.934H213.727V135.482H207.275V141.934Z" fill="#F9A70D"/>
<path d="M207.275 187.095H213.727V180.645H207.275V187.095Z" fill="#F9A70D"/>
<path d="M207.275 193.548H213.727V187.095H207.275V193.548Z" fill="#E1850F"/>
<path d="M207.275 148.388H213.727V141.936H207.275V148.388Z" fill="#231F20"/>
<path d="M207.275 199.999H213.727V193.548H207.275V199.999Z" fill="#231F20"/>
<path d="M207.275 174.194H213.727V167.742H207.275V174.194Z" fill="#F9A70D"/>
<path d="M207.275 154.839H213.727V148.388H207.275V154.839Z" fill="#F9A70D"/>
<path d="M207.275 161.29H213.727V154.84H207.275V161.29Z" fill="#F9A70D"/>
<path d="M207.275 167.742H213.727V161.29H207.275V167.742Z" fill="#F9A70D"/>
<path d="M207.275 180.645H213.727V174.194H207.275V180.645Z" fill="#F9A70D"/>
<path d="M0.826202 193.548H7.27823V187.096H0.826202V193.548Z" fill="#231F20"/>
<path d="M0.826202 180.645H7.27823V174.193H0.826202V180.645Z" fill="#231F20"/>
<path d="M0.826202 187.096H7.27823V180.645H0.826202V187.096Z" fill="#231F20"/>
<path d="M104.053 135.485H110.503V129.033H104.053V135.485Z" fill="#6E2F26"/>
<path d="M136.311 58.0653H142.763V51.6133H136.311V58.0653Z" fill="#231F20"/>
<path d="M110.502 58.0653H116.954V51.6133H110.502V58.0653Z" fill="#914629"/>
<path d="M129.857 58.0653H136.308V51.6133H129.857V58.0653Z" fill="#B46241"/>
<path d="M116.955 58.0653H123.407V51.6133H116.955V58.0653Z" fill="#B46241"/>
<path d="M149.213 129.032H155.663V122.58H149.213V129.032Z" fill="#231F20"/>
<path d="M149.213 122.58H155.663V116.129H149.213V122.58Z" fill="#231F20"/>
<path d="M149.213 135.485H155.663V129.033H149.213V135.485Z" fill="#F9A70D"/>
<path d="M149.213 116.129H155.663V109.678H149.213V116.129Z" fill="#231F20"/>
<path d="M149.213 141.934H155.663V135.482H149.213V141.934Z" fill="#F9A70D"/>
<path d="M104.053 58.0653H110.503V51.6133H104.053V58.0653Z" fill="#914629"/>
<path d="M52.4396 77.4188H58.8916V70.9668H52.4396V77.4188Z" fill="#F9A70D"/>
<path d="M52.4396 96.7743H58.8916V90.3223H52.4396V96.7743Z" fill="#5A3522"/>
<path d="M52.4396 103.225H58.8916V96.7743H52.4396V103.225Z" fill="white"/>
<path d="M52.4396 109.679H58.8916V103.227H52.4396V109.679Z" fill="white"/>
<path d="M52.4396 90.3223H58.8916V83.8711H52.4396V90.3223Z" fill="#F9A70D"/>
<path d="M52.4396 83.8711H58.8916V77.4199H52.4396V83.8711Z" fill="#F9A70D"/>
<path d="M52.4396 116.128H58.8916V109.679H52.4396V116.128Z" fill="white"/>
<path d="M52.4396 129.032H58.8916V122.58H52.4396V129.032Z" fill="white"/>
<path d="M52.4396 135.485H58.8916V129.033H52.4396V135.485Z" fill="#DDD9D8"/>
<path d="M52.4396 122.58H58.8916V116.128H52.4396V122.58Z" fill="#231F20"/>
<path d="M149.213 148.388H155.663V141.936H149.213V148.388Z" fill="#F9A70D"/>
<path d="M84.6973 58.0653H91.1493V51.6133H84.6973V58.0653Z" fill="#F9A70D"/>
<path d="M97.5996 58.0653H104.052V51.6133H97.5996V58.0653Z" fill="#231F20"/>
<path d="M78.2441 58.0653H84.6946V51.6133H78.2441V58.0653Z" fill="#F9A70D"/>
<path d="M52.4396 70.9668H58.8916L58.8916 64.5155H52.4396L52.4396 70.9668Z" fill="#F9A70D"/>
<path d="M91.1465 58.0653H97.5985V51.6133H91.1465V58.0653Z" fill="#E1850F"/>
<path d="M71.7949 58.0653H78.2469V51.6133H71.7949V58.0653Z" fill="#F9A70D"/>
<path d="M52.4396 58.0653H58.8916V51.6133H52.4396V58.0653Z" fill="#F9A70D"/>
<path d="M52.4396 64.5155H58.8916L58.8916 58.0653H52.4396L52.4396 64.5155Z" fill="#F9A70D"/>
<path d="M65.342 58.0653H71.7949V51.6133H65.342V58.0653Z" fill="#F9A70D"/>
<path d="M58.8887 58.0653H65.3407V51.6133H58.8887V58.0653Z" fill="#F9A70D"/>
<path d="M58.8887 148.388H65.3407V141.936H58.8887V148.388Z" fill="#6E2F26"/>
<path d="M58.8887 70.9677H65.3407V64.5156H58.8887V70.9677Z" fill="#F9A70D"/>
<path d="M58.8887 64.5156H65.3407V58.0653H58.8887V64.5156Z" fill="#F9A70D"/>
<path d="M71.7949 64.5149H78.2469V58.0653H71.7949V64.5149Z" fill="#F9A70D"/>
<path d="M65.342 64.5149H71.7949L71.794 58.0645L65.342 58.0653V64.5149Z" fill="#F9A70D"/>
<path d="M58.8887 77.4188H65.3407V70.9677H58.8887V77.4188Z" fill="#F9A70D"/>
<path d="M58.8887 103.225H65.3407V96.7734H58.8887V103.225Z" fill="white"/>
<path d="M78.2441 64.5149H84.6946V58.0653H78.2441V64.5149Z" fill="#F9A70D"/>
<path d="M58.8887 109.679H65.3407V103.227H58.8887V109.679Z" fill="white"/>
<path d="M58.8887 90.3215H65.3407V83.8711H58.8887V90.3215Z" fill="#F9A70D"/>
<path d="M58.8887 83.8711H65.3407V77.4199H58.8887V83.8711Z" fill="#F9A70D"/>
<path d="M58.8887 96.7734H65.3407V90.3215H58.8887V96.7734Z" fill="white"/>
<path d="M116.955 64.5149H123.407V58.0653H116.955V64.5149Z" fill="#914629"/>
<path d="M149.213 154.839H155.663V148.388H149.213V154.839Z" fill="#F9A70D"/>
<path d="M84.6973 64.5149H91.1493V58.0653H84.6973V64.5149Z" fill="#F9A70D"/>
<path d="M136.311 64.5149H142.763V58.0653H136.311V64.5149Z" fill="#231F20"/>
<path d="M123.408 64.5149H129.859V58.0645H123.408V64.5149Z" fill="#914629"/>
<path d="M110.502 64.5149H116.954V58.0653H110.502V64.5149Z" fill="#914629"/>
<path d="M91.1465 64.5149H97.5985V58.0653H91.1465V64.5149Z" fill="#F9A70D"/>
<path d="M97.5996 64.5149H104.052V58.0653H97.5996V64.5149Z" fill="#E1850F"/>
<path d="M104.053 64.5149H110.503V58.0653H104.053V64.5149Z" fill="#231F20"/>
<path d="M129.857 64.5149H136.308V58.0653H129.857V64.5149Z" fill="#914629"/>
<path d="M110.502 154.839H116.954V148.387H110.502V154.839Z" fill="#F9A70D"/>
<path d="M116.955 154.839H123.407V148.387H116.955V154.839Z" fill="#F9A70D"/>
<path d="M84.6973 154.839H91.1493V148.387H84.6973V154.839Z" fill="#6E2F26"/>
<path d="M91.1465 148.387V154.839H97.5985V148.387H91.1465Z" fill="#231F20"/>
<path d="M97.5996 154.839H104.052V148.387H97.5996V154.839Z" fill="#E1850F"/>
<path d="M58.8887 116.128H65.3407V109.679H58.8887V116.128Z" fill="white"/>
<path d="M142.76 154.839H149.213L149.212 148.387H142.76V154.839Z" fill="#F9A70D"/>
<path d="M123.408 154.839H129.859V148.387H123.408V154.839Z" fill="#F9A70D"/>
<path d="M136.311 154.839H142.763V148.387H136.311V154.839Z" fill="#F9A70D"/>
<path d="M129.857 154.839H136.308V148.387H129.857V154.839Z" fill="#F9A70D"/>
<path d="M104.053 154.839H110.503V148.387H104.053V154.839Z" fill="#F9A70D"/>
<path d="M58.8887 129.032H65.3407V122.58H58.8887V129.032Z" fill="white"/>
<path d="M58.8887 135.485H65.3407V129.033H58.8887V135.485Z" fill="#DDD9D8"/>
<path d="M58.8887 122.58H65.3407V116.128H58.8887V122.58Z" fill="#231F20"/>
<path d="M58.8887 141.936H65.3407V135.485H58.8887V141.936Z" fill="#231F20"/>
<path d="M65.342 154.839H71.794V148.387H65.342V154.839Z" fill="#914629"/>
<path d="M71.794 154.839H78.2469V148.387H71.794V154.839Z" fill="#914629"/>
<path d="M52.4396 141.935H58.8916L58.8916 135.485H52.4396L52.4396 141.935Z" fill="#231F20"/>
<path d="M78.2441 154.839H84.6946V148.387H78.2441V154.839Z" fill="#914629"/>
<path d="M65.342 148.387H71.794V141.936H65.342V148.387Z" fill="#6E2F26"/>
<path d="M123.408 58.0645H129.859V51.6133H123.408V58.0645Z" fill="#914629"/>
<path d="M45.9863 77.4188H52.4384V70.9668H45.9863V77.4188Z" fill="#231F20"/>
<path d="M45.9863 51.6125H52.4384V45.1621H45.9863V51.6125Z" fill="#FBC707"/>
<path d="M45.9863 83.8719H52.4384V77.4199H45.9863V83.8719Z" fill="#FBC707"/>
<path d="M45.9863 64.5149H52.4384V58.0645H45.9863V64.5149Z" fill="#F9A70D"/>
<path d="M45.9863 58.0645H52.4384V51.6125H45.9863V58.0645Z" fill="#F9A70D"/>
<path d="M45.9863 70.9668H52.4384V64.5149H45.9863V70.9668Z" fill="#231F20"/>
<path d="M45.9863 90.3215H52.4384V83.8719H45.9863V90.3215Z" fill="#F9A70D"/>
<path d="M45.9902 109.679H52.4407V103.227H45.9902V109.679Z" fill="white"/>
<path d="M45.9863 103.225H52.4384V96.7734H45.9863V103.225Z" fill="#5A3522"/>
<path d="M45.9863 96.7734H52.4384V90.3215H45.9863V96.7734Z" fill="#7A4A30"/>
<path d="M104.053 51.6133H110.503V45.1621H104.053V51.6133Z" fill="#914629"/>
<path d="M84.6973 51.6133H91.1493V45.1621H84.6973V51.6133Z" fill="#E1850F"/>
<path d="M97.5996 51.6133H104.052V45.1621H97.5996V51.6133Z" fill="#914629"/>
<path d="M91.1465 51.6133H97.5985V45.1621H91.1465V51.6133Z" fill="#231F20"/>
<path d="M45.9863 116.128H52.4384V109.678H45.9863V116.128Z" fill="white"/>
<path d="M71.7949 51.6133H78.2469V45.1621H71.7949V51.6133Z" fill="#E1850F"/>
<path d="M65.342 51.6133L71.794 51.6125L71.7949 45.1621H65.342V51.6133Z" fill="#231F20"/>
<path d="M110.506 51.6125H116.958V45.1621H110.506V51.6125Z" fill="#B46241"/>
<path d="M78.2441 51.6133H84.6946V45.1621H78.2441V51.6133Z" fill="#231F20"/>
<path d="M52.4396 51.6133H58.8916V45.1621H52.4396V51.6133Z" fill="#231F20"/>
<path d="M58.8887 51.6133H65.3407V45.1621H58.8887V51.6133Z" fill="#E1850F"/>
<path d="M91.1465 161.291V167.741H97.5985V161.289L91.1465 161.291Z" fill="#CA6610"/>
<path d="M84.6973 167.741H91.1493V161.291H84.6973V167.741Z" fill="#CA6610"/>
<path d="M78.2442 167.741H84.6946V161.291H78.2442V167.741Z" fill="#231F20"/>
<path d="M97.5996 167.741H104.052V161.291H97.5996V167.741Z" fill="#231F20"/>
<path d="M65.342 167.741H71.7941V161.291H65.342V167.741Z" fill="#6E2F26"/>
<path d="M71.7941 167.741L78.247 167.741V161.291L71.7941 161.291V167.741Z" fill="#6E2F26"/>
<path d="M104.053 167.741H110.503V161.291H104.053V167.741Z" fill="#F9A70D"/>
<path d="M116.955 167.741H123.407V161.291H116.955V167.741Z" fill="#F9A70D"/>
<path d="M123.408 167.741H129.859V161.291H123.408V167.741Z" fill="#F9A70D"/>
<path d="M110.502 167.741H116.954V161.291H110.502V167.741Z" fill="#F9A70D"/>
<path d="M52.4396 167.741H58.8916V161.291H52.4396V167.741Z" fill="#511D20"/>
<path d="M45.9863 141.935H52.4384V135.484H45.9863V141.935Z" fill="#231F20"/>
<path d="M45.9863 135.484H52.4384V129.033H45.9863V135.484Z" fill="#DDD9D8"/>
<path d="M45.9863 148.388H52.4384V141.935H45.9863V148.388Z" fill="#6E2F26"/>
<path d="M45.9863 129.032H52.4384V122.58H45.9863V129.032Z" fill="white"/>
<path d="M58.8887 167.741H65.3407V161.291H58.8887V167.741Z" fill="#6E2F26"/>
<path d="M45.9863 154.839H52.4384V148.388H45.9863V154.839Z" fill="#6E2F26"/>
<path d="M45.9863 122.58H52.4384V116.128H45.9863V122.58Z" fill="#231F20"/>
<path d="M52.4396 161.291H58.8916L58.8916 154.84H52.4396L52.4396 161.291Z" fill="#6E2F26"/>
<path d="M45.9863 161.292H52.4384V154.84H45.9863V161.292Z" fill="#6E2F26"/>
<path d="M142.76 161.29H149.212V154.84H142.76V161.29Z" fill="#F9A70D"/>
<path d="M104.053 161.291H110.503L110.503 154.84H104.053L104.053 161.291Z" fill="#F9A70D"/>
<path d="M123.408 161.291H129.859L129.859 154.84H123.408L123.408 161.291Z" fill="#F9A70D"/>
<path d="M136.311 161.29H142.763V154.84H136.311V161.29Z" fill="#F9A70D"/>
<path d="M110.502 161.291H116.954L116.954 154.84H110.502L110.502 161.291Z" fill="#F9A70D"/>
<path d="M116.955 161.291H123.407L123.407 154.84H116.955L116.955 161.291Z" fill="#F9A70D"/>
<path d="M129.857 161.29H136.308V154.84H129.857V161.29Z" fill="#F9A70D"/>
<path d="M155.662 161.29H162.114V154.84H155.662V161.29Z" fill="#F9A70D"/>
<path d="M155.662 154.839H162.114V148.387H155.662V154.839Z" fill="#F9A70D"/>
<path d="M149.212 161.29H155.663V154.84H149.212V161.29Z" fill="#F9A70D"/>
<path d="M52.4396 148.388H58.8916L58.8916 141.935H52.4396L52.4396 148.388Z" fill="#6E2F26"/>
<path d="M155.662 148.387H162.114V141.936H155.662V148.387Z" fill="#F9A70D"/>
<path d="M65.342 161.291H71.7941L71.794 154.84H65.342L65.342 161.291Z" fill="#914629"/>
<path d="M58.8887 154.839H65.3407V148.388H58.8887V154.839Z" fill="#914629"/>
<path d="M58.8887 161.291H65.3407L65.3407 154.84H58.8887L58.8887 161.291Z" fill="#914629"/>
<path d="M52.4396 154.839H58.8916V148.388H52.4396V154.839Z" fill="#914629"/>
<path d="M97.5996 161.291H104.052L104.052 154.84H97.5996L97.5996 161.291Z" fill="#F9A70D"/>
<path d="M71.7949 161.292L78.247 161.291L78.2469 154.84H71.794L71.7949 161.292Z" fill="#914629"/>
<path d="M91.1465 154.84V161.292L97.5985 161.29V154.84H91.1465Z" fill="#E1850F"/>
<path d="M84.6973 161.291H91.1493L91.1493 154.84H84.6973L84.6973 161.291Z" fill="#231F20"/>
<path d="M78.2442 161.291H84.6946L84.6946 154.84H78.2441L78.2442 161.291Z" fill="#6E2F26"/>
<path d="M116.955 51.6133H123.407V45.1621H116.955V51.6133Z" fill="#914629"/>
<path d="M155.662 141.934H162.114V135.482H155.662V141.934Z" fill="#F9A70D"/>
<path d="M123.408 51.6133H129.859V45.1621H123.408V51.6133Z" fill="#914629"/>
<path d="M129.857 51.6133H136.308V45.1621H129.857V51.6133Z" fill="#231F20"/>
<path d="M155.662 129.032H162.114V122.58H155.662V129.032Z" fill="#231F20"/>
<path d="M155.662 135.485H162.114V129.033H155.662V135.485Z" fill="#F9A70D"/>
<path d="M110.502 116.128H116.954V109.678H110.502V116.128Z" fill="#914629"/>
<path d="M78.2441 83.8719H84.6946V77.4199H78.2441V83.8719Z" fill="#F9A70D"/>
<path d="M78.2441 90.3215H84.6946V83.8719H78.2441V90.3215Z" fill="#F9A70D"/>
<path d="M78.2441 129.032H84.6946V122.58H78.2441V129.032Z" fill="#231F20"/>
<path d="M84.6973 83.8719H91.1493V77.4199H84.6973V83.8719Z" fill="#F9A70D"/>
<path d="M91.1465 83.8719H97.5985V77.4199H91.1465V83.8719Z" fill="#F9A70D"/>
<path d="M78.2441 96.7743H84.6946V90.3215H78.2441V96.7743Z" fill="#F9A70D"/>
<path d="M78.2441 103.225H84.6946V96.7743H78.2441V103.225Z" fill="#F9A70D"/>
<path d="M78.2441 116.128H84.6946V109.678H78.2441V116.128Z" fill="white"/>
<path d="M78.2441 122.58H84.6946V116.128H78.2441V122.58Z" fill="#DDD9D8"/>
<path d="M78.2441 109.678H84.6946V103.227H78.2441V109.678Z" fill="white"/>
<path d="M97.5996 83.8719H104.052V77.4199H97.5996V83.8719Z" fill="#E1850F"/>
<path d="M123.408 103.225H129.859V96.7734H123.408V103.225Z" fill="#B46241"/>
<path d="M104.053 83.8719H110.503V77.4199H104.053V83.8719Z" fill="#231F20"/>
<path d="M123.408 109.679H129.859V103.227H123.408V109.679Z" fill="#914629"/>
<path d="M123.408 122.581H129.859V116.129H123.408V122.581Z" fill="#231F20"/>
<path d="M123.408 116.129H129.859V109.679H123.408V116.129Z" fill="#6E2F26"/>
<path d="M123.408 96.7734H129.859V90.3223H123.408V96.7734Z" fill="#914629"/>
<path d="M110.502 83.8719H116.954V77.4199H110.502V83.8719Z" fill="#914629"/>
<path d="M116.955 83.8719H123.407V77.4199H116.955V83.8719Z" fill="#914629"/>
<path d="M123.408 83.8719H129.859V77.4199H123.408V83.8719Z" fill="#B46241"/>
<path d="M123.408 90.3223H129.859V83.8719H123.408V90.3223Z" fill="#914629"/>
<path d="M129.857 116.128H136.308V109.678H129.857V116.128Z" fill="#6E2F26"/>
<path d="M129.857 103.225H136.308V96.7734H129.857V103.225Z" fill="#914629"/>
<path d="M129.857 96.7734H136.308V90.3223H129.857V96.7734Z" fill="#914629"/>
<path d="M129.857 109.678H136.308V103.227H129.857V109.678Z" fill="#B46241"/>
<path d="M129.857 90.3223H136.308V83.8711H129.857V90.3223Z" fill="#B46241"/>
<path d="M123.408 129.032H129.859V122.581H123.408V129.032Z" fill="#E1850F"/>
<path d="M84.6973 129.032H91.1493V122.58H84.6973V129.032Z" fill="#6E2F26"/>
<path d="M129.857 83.8711H136.308V77.4199H129.857V83.8711Z" fill="#914629"/>
<path d="M123.408 77.4188H129.859V70.9668H123.408V77.4188Z" fill="#914629"/>
<path d="M129.857 77.4188H136.308V70.9668H129.857V77.4188Z" fill="#914629"/>
<path d="M116.955 77.4188H123.407V70.9668H116.955V77.4188Z" fill="#B46241"/>
<path d="M97.5996 135.485H104.052V129.033H97.5996V135.485Z" fill="#914629"/>
<path d="M91.1465 129.033V135.485H97.5985V129.033H91.1465Z" fill="#914629"/>
<path d="M84.6973 135.485H91.1493V129.033H84.6973V135.485Z" fill="#914629"/>
<path d="M220.182 103.225H226.634V96.7734H220.182V103.225Z" fill="#231F20"/>
<path d="M129.857 129.032H136.308V122.58H129.857V129.032Z" fill="#E1850F"/>
<path d="M123.408 135.485H129.859V129.033H123.408V135.485Z" fill="#F9A70D"/>
<path d="M129.857 135.485H136.308V129.033H129.857V135.485Z" fill="#F9A70D"/>
<path d="M116.955 135.485H123.407V129.033H116.955V135.485Z" fill="#E1850F"/>
<path d="M110.502 135.485H116.954V129.033H110.502V135.485Z" fill="#231F20"/>
<path d="M116.955 129.032H123.407V122.58H116.955V129.032Z" fill="#231F20"/>
<path d="M91.1465 109.679H97.5985V103.227H91.1465V109.679Z" fill="#E1850F"/>
<path d="M91.1465 103.225H97.5985V96.7734H91.1465V103.225Z" fill="#F9A70D"/>
<path d="M110.502 77.4188H116.954V70.9668H110.502V77.4188Z" fill="#914629"/>
<path d="M91.1465 96.7734H97.5985V90.3223H91.1465V96.7734Z" fill="#F9A70D"/>
<path d="M91.1465 116.128H97.5985V109.679H91.1465V116.128Z" fill="#231F20"/>
<path d="M104.053 96.7743H110.503V90.3223H104.053V96.7743Z" fill="#231F20"/>
<path d="M110.502 122.581H116.954V116.128H110.502V122.581Z" fill="#914629"/>
<path d="M116.955 122.58H123.407V116.129H116.955V122.58Z" fill="#6E2F26"/>
<path d="M104.053 122.581H110.503V116.129H104.053V122.581Z" fill="#914629"/>
<path d="M97.5996 122.581H104.052V116.129H97.5996V122.581Z" fill="#914629"/>
<path d="M97.5996 116.129H104.052V109.678H97.5996V116.129Z" fill="#6E2F26"/>
<path d="M104.053 109.679H110.503V103.227H104.053V109.679Z" fill="#6E2F26"/>
<path d="M97.5996 109.678H104.052V103.227H97.5996V109.678Z" fill="#231F20"/>
<path d="M97.5996 103.225H104.052V96.7734H97.5996V103.225Z" fill="#E1850F"/>
<path d="M104.053 103.225H110.503V96.7743H104.053V103.225Z" fill="#231F20"/>
<path d="M110.502 96.7743H116.954V90.3223H110.502V96.7743Z" fill="#914629"/>
<path d="M110.502 109.678H116.954V103.227H110.502V109.678Z" fill="#914629"/>
<path d="M104.053 116.129H110.503V109.679H104.053V116.129Z" fill="#914629"/>
<path d="M110.502 103.225H116.954V96.7743H110.502V103.225Z" fill="#914629"/>
<path d="M129.857 167.741H136.308L136.308 161.29H129.857L129.857 167.741Z" fill="#E1850F"/>
<path d="M97.5996 96.7734H104.052V90.3223H97.5996V96.7734Z" fill="#E1850F"/>
<path d="M84.6973 116.128H91.1493V109.678H84.6973V116.128Z" fill="#DDD9D8"/>
<path d="M91.1465 122.581H97.5985V116.128H91.1465V122.581Z" fill="#6E2F26"/>
<path d="M84.6973 122.58H91.1493V116.128H84.6973V122.58Z" fill="#231F20"/>
<path d="M84.6973 109.678H91.1493V103.227H84.6973V109.678Z" fill="#F9A70D"/>
<path d="M84.6973 103.225H91.1493V96.7734H84.6973V103.225Z" fill="#F9A70D"/>
<path d="M91.1465 129.032H97.5985V122.581H91.1465V129.032Z" fill="#914629"/>
<path d="M104.053 129.032H110.503V122.581H104.053V129.032Z" fill="#914629"/>
<path d="M110.502 129.032H116.954V122.581H110.502V129.032Z" fill="#6E2F26"/>
<path d="M84.6973 96.7734H91.1493V90.3223H84.6973V96.7734Z" fill="#F9A70D"/>
<path d="M97.5996 129.032H104.052V122.581H97.5996V129.032Z" fill="#914629"/>
<path d="M104.053 90.3223H110.503V83.8719H104.053V90.3223Z" fill="#231F20"/>
<path d="M116.955 90.3215H123.407V83.8719H116.955V90.3215Z" fill="#914629"/>
<path d="M116.955 103.225H123.407V96.7734H116.955V103.225Z" fill="#914629"/>
<path d="M116.955 96.7734H123.407V90.3215H116.955V96.7734Z" fill="#B46241"/>
<path d="M116.955 109.679H123.407V103.227H116.955V109.679Z" fill="#914629"/>
<path d="M97.5996 90.3223H104.052V83.8719H97.5996V90.3223Z" fill="#E1850F"/>
<path d="M91.1465 90.3223H97.5985V83.8719H91.1465V90.3223Z" fill="#F9A70D"/>
<path d="M84.6973 90.3223H91.1493V83.8719H84.6973V90.3223Z" fill="#F9A70D"/>
<path d="M110.502 90.3223H116.954V83.8719H110.502V90.3223Z" fill="#914629"/>
<path d="M116.955 116.129H123.407V109.679H116.955V116.129Z" fill="#914629"/>
<path d="M129.857 122.58H136.308V116.128H129.857V122.58Z" fill="#231F20"/>
<path d="M65.342 129.032H71.794V122.58H65.342V129.032Z" fill="white"/>
<path d="M65.342 122.58H71.794V116.129H65.342V122.58Z" fill="white"/>
<path d="M65.342 135.485H71.794V129.033H65.342V135.485Z" fill="#DDD9D8"/>
<path d="M65.342 116.129H71.794V109.678H65.342V116.129Z" fill="white"/>
<path d="M65.342 109.678H71.794V103.227H65.342V109.678Z" fill="white"/>
<path d="M71.7949 148.388L78.2469 148.387V141.936H71.794L71.7949 148.388Z" fill="#914629"/>
<path d="M65.342 141.936H71.794V135.485H65.342V141.936Z" fill="#231F20"/>
<path d="M65.342 103.225H71.794V96.7734H65.342V103.225Z" fill="white"/>
<path d="M78.2441 148.387H84.6946V141.936H78.2441V148.387Z" fill="#914629"/>
<path d="M71.7949 141.935L78.2469 141.936V135.484H71.7949V141.935Z" fill="#6E2F26"/>
<path d="M78.2441 70.9677H84.6946V64.5149H78.2441V70.9677Z" fill="#F9A70D"/>
<path d="M84.6973 148.387H91.1493V141.936H84.6973V148.387Z" fill="#914629"/>
<path d="M84.6973 70.9677H91.1493V64.5149H84.6973V70.9677Z" fill="#F9A70D"/>
<path d="M91.1465 70.9677H97.5985V64.5149H91.1465V70.9677Z" fill="#F9A70D"/>
<path d="M71.7949 70.9677H78.2469V64.5149H71.7949V70.9677Z" fill="#F9A70D"/>
<path d="M65.342 77.4188H71.794V70.9668H65.342V77.4188Z" fill="#231F20"/>
<path d="M65.342 70.9668H71.794L71.7941 64.5155L65.342 64.5149V70.9668Z" fill="#231F20"/>
<path d="M65.342 83.8719H71.794V77.4199H65.342V83.8719Z" fill="#FBC707"/>
<path d="M65.342 90.3215H71.794V83.8719H65.342V90.3215Z" fill="#F9A70D"/>
<path d="M65.342 96.7734H71.794V90.3215H65.342V96.7734Z" fill="white"/>
<path d="M91.1465 141.936V148.387H97.5985V141.936H91.1465Z" fill="#6E2F26"/>
<path d="M142.76 109.679H149.212V103.227H142.76V109.679Z" fill="#231F20"/>
<path d="M142.76 103.225H149.212V96.7734H142.76V103.225Z" fill="#231F20"/>
<path d="M142.76 116.128H149.212V109.679H142.76V116.128Z" fill="#6E2F26"/>
<path d="M142.76 122.581H149.212V116.128H142.76V122.581Z" fill="#6E2F26"/>
<path d="M97.5996 70.9677H104.052V64.5149H97.5996V70.9677Z" fill="#E1850F"/>
<path d="M142.76 96.7734H149.212V90.3223H142.76V96.7734Z" fill="#231F20"/>
<path d="M142.76 135.485H149.213V129.033H142.76V135.485Z" fill="#F9A70D"/>
<path d="M142.76 129.032H149.213L149.212 122.581H142.76V129.032Z" fill="#231F20"/>
<path d="M110.502 148.387H116.954V141.936H110.502V148.387Z" fill="#F9A70D"/>
<path d="M104.053 148.387H110.503V141.936H104.053V148.387Z" fill="#E1850F"/>
<path d="M116.955 148.387H123.407V141.936H116.955V148.387Z" fill="#F9A70D"/>
<path d="M142.76 141.934H149.213V135.482H142.76V141.934Z" fill="#F9A70D"/>
<path d="M97.5996 148.387H104.052V141.936H97.5996V148.387Z" fill="#231F20"/>
<path d="M136.311 148.387H142.763V141.936H136.311V148.387Z" fill="#F9A70D"/>
<path d="M142.76 148.387H149.212L149.213 141.936H142.76V148.387Z" fill="#F9A70D"/>
<path d="M123.408 148.387H129.859V141.936H123.408V148.387Z" fill="#F9A70D"/>
<path d="M129.857 148.387H136.308V141.936H129.857V148.387Z" fill="#F9A70D"/>
<path d="M71.794 129.032H78.2469V122.58H71.794V129.032Z" fill="#DDD9D8"/>
<path d="M78.2441 135.485H84.6946V129.033H78.2441V135.485Z" fill="#6E2F26"/>
<path d="M104.053 70.9677H110.503V64.5149H104.053V70.9677Z" fill="#231F20"/>
<path d="M104.053 77.4188H110.503V70.9677H104.053V77.4188Z" fill="#231F20"/>
<path d="M71.7949 122.581L78.2469 122.58V116.129H71.794L71.7949 122.581Z" fill="white"/>
<path d="M71.7949 116.128L78.2469 116.129V109.678H71.794L71.7949 116.128Z" fill="white"/>
<path d="M84.6973 141.936H91.1493V135.485H84.6973V141.936Z" fill="#914629"/>
<path d="M91.1465 135.485V141.936H97.5985V135.485H91.1465Z" fill="#914629"/>
<path d="M97.5996 141.934H104.052V135.482H97.5996V141.934Z" fill="#6E2F26"/>
<path d="M78.2441 141.936H84.6946V135.485H78.2441V141.936Z" fill="#914629"/>
<path d="M71.7949 109.679L78.2469 109.678V103.227H71.794L71.7949 109.679Z" fill="white"/>
<path d="M71.7949 96.7743H78.2469V90.3223H71.7949V96.7743Z" fill="#F9A70D"/>
<path d="M71.794 103.225H78.2469V96.7743H71.7949L71.794 103.225Z" fill="white"/>
<path d="M84.6973 77.4188H91.1493V70.9677H84.6973V77.4188Z" fill="#F9A70D"/>
<path d="M91.1465 77.4188H97.5985V70.9677H91.1465V77.4188Z" fill="#F9A70D"/>
<path d="M97.5996 77.4188H104.052V70.9677H97.5996V77.4188Z" fill="#E1850F"/>
<path d="M78.2441 77.4188H84.6946V70.9677H78.2441V77.4188Z" fill="#F9A70D"/>
<path d="M71.7949 90.3223H78.2469V83.8711H71.7949V90.3223Z" fill="#F9A70D"/>
<path d="M104.053 141.934H110.503V135.482H104.053V141.934Z" fill="#231F20"/>
<path d="M71.794 77.4188H78.2469V70.9677H71.7949L71.794 77.4188Z" fill="#F9A70D"/>
<path d="M71.7949 83.8711H78.2469V77.4199H71.794L71.7949 83.8711Z" fill="#FBC707"/>
<path d="M71.7949 135.484H78.2469V129.033H71.794L71.7949 135.484Z" fill="#231F20"/>
<path d="M136.311 83.8719H142.763V77.4199H136.311V83.8719Z" fill="#231F20"/>
<path d="M136.311 77.4188H142.763V70.9668H136.311V77.4188Z" fill="#231F20"/>
<path d="M136.311 96.7743H142.763V90.3223H136.311V96.7743Z" fill="#6E2F26"/>
<path d="M136.311 90.3223H142.763V83.8719H136.311V90.3223Z" fill="#231F20"/>
<path d="M136.311 70.9668H142.763V64.5149H136.311V70.9668Z" fill="#231F20"/>
<path d="M110.502 141.934H116.954V135.482H110.502V141.934Z" fill="#E1850F"/>
<path d="M110.502 70.9668H116.954V64.5149H110.502V70.9668Z" fill="#914629"/>
<path d="M116.955 70.9668H123.407V64.5149H116.955V70.9668Z" fill="#914629"/>
<path d="M129.857 70.9668H136.308V64.5149H129.857V70.9668Z" fill="#914629"/>
<path d="M123.408 70.9668H129.859V64.5149H123.408V70.9668Z" fill="#914629"/>
<path d="M136.311 103.225H142.763V96.7743H136.311V103.225Z" fill="#914629"/>
<path d="M129.857 141.934H136.308V135.482H129.857V141.934Z" fill="#F9A70D"/>
<path d="M123.408 141.934H129.859V135.482H123.408V141.934Z" fill="#F9A70D"/>
<path d="M136.311 141.934H142.763V135.482H136.311V141.934Z" fill="#F9A70D"/>
<path d="M136.311 109.679H142.763V103.227H136.311V109.679Z" fill="#914629"/>
<path d="M116.955 141.934H123.407V135.482H116.955V141.934Z" fill="#F9A70D"/>
<path d="M136.311 122.581H142.763V116.129H136.311V122.581Z" fill="#231F20"/>
<path d="M136.311 135.485H142.763V129.033H136.311V135.485Z" fill="#F9A70D"/>
<path d="M136.311 116.129H142.763V109.679H136.311V116.129Z" fill="#6E2F26"/>
<path d="M136.311 129.032H142.763V122.581H136.311V129.032Z" fill="#E1850F"/>
<path d="M123.408 187.096H129.859V180.645H123.408V187.096Z" fill="#E1850F"/>
<path d="M26.6309 116.128H33.0829V109.678H26.6309V116.128Z" fill="white"/>
<path d="M26.6309 148.388H33.0829V141.936H26.6309V148.388Z" fill="#511D20"/>
<path d="M26.6309 103.225H33.0829V96.7734H26.6309V103.225Z" fill="white"/>
<path d="M26.6309 96.7734H33.0829V90.3223H26.6309V96.7734Z" fill="#7A4A30"/>
<path d="M26.6309 90.3223H33.0829V83.8711H26.6309V90.3223Z" fill="#F9A70D"/>
<path d="M26.6309 135.485H33.0829V129.033H26.6309V135.485Z" fill="#231F20"/>
<path d="M26.6347 83.8719H33.0851V77.4199H26.6347V83.8719Z" fill="#FBC707"/>
<path d="M26.6309 141.936H33.0829V135.485H26.6309V141.936Z" fill="#6E2F26"/>
<path d="M26.6309 122.581H33.0829V116.128H26.6309V122.581Z" fill="white"/>
<path d="M26.6309 129.032H33.0829V122.581H26.6309V129.032Z" fill="#DDD9D8"/>
<path d="M26.6309 109.678H33.0829V103.227H26.6309V109.678Z" fill="white"/>
<path d="M26.6309 32.2587H33.0829V25.8066H26.6309V32.2587Z" fill="#914629"/>
<path d="M26.6309 38.7098H33.0829V32.2587H26.6309V38.7098Z" fill="#914629"/>
<path d="M33.084 32.2587H39.5344V25.8066H33.084V32.2587Z" fill="#914629"/>
<path d="M20.1816 187.096H26.6337V180.645H20.1816V187.096Z" fill="#F9A70D"/>
<path d="M39.5332 32.2587H45.9852V25.8066H39.5332V32.2587Z" fill="#914629"/>
<path d="M26.6347 77.4188H33.0851V70.9668H26.6347V77.4188Z" fill="#231F20"/>
<path d="M26.6347 70.9668H33.0851L33.0851 64.5155H26.6347L26.6347 70.9668Z" fill="#914629"/>
<path d="M26.6347 64.5155H33.0851L33.0851 58.0645H26.6347L26.6347 64.5155Z" fill="#914629"/>
<path d="M26.6309 51.6125H33.0829V45.1621H26.6309V51.6125Z" fill="#B46241"/>
<path d="M26.6309 58.0653H33.0829V51.6125H26.6309V58.0653Z" fill="#914629"/>
<path d="M26.6309 167.741H33.0829V161.291H26.6309V167.741Z" fill="#E1850F"/>
<path d="M26.6309 154.839H33.0829V148.388H26.6309V154.839Z" fill="#231F20"/>
<path d="M78.2441 187.096H84.6946V180.645H78.2441V187.096Z" fill="#F9A70D"/>
<path d="M65.342 187.096L71.794 187.097V180.646H65.342L65.342 187.096Z" fill="#F9A70D"/>
<path d="M58.8887 187.096H65.3407V180.645H58.8887V187.096Z" fill="#F9A70D"/>
<path d="M71.7949 187.096H78.2469V180.645H71.7949V187.096Z" fill="#F9A70D"/>
<path d="M91.1465 187.096H97.5985V180.645H91.1465V187.096Z" fill="#F9A70D"/>
<path d="M110.502 187.096H116.954V180.645H110.502V187.096Z" fill="#F9A70D"/>
<path d="M97.5996 187.096H104.052V180.645H97.5996V187.096Z" fill="#F9A70D"/>
<path d="M116.955 187.096H123.407V180.645H116.955V187.096Z" fill="#F9A70D"/>
<path d="M104.053 187.096H110.503V180.645H104.053V187.096Z" fill="#F9A70D"/>
<path d="M84.6973 187.096H91.1493V180.645H84.6973V187.096Z" fill="#F9A70D"/>
<path d="M26.6309 180.645H33.0829L33.0829 174.193H26.6309L26.6309 180.645Z" fill="#FBC707"/>
<path d="M45.9902 32.2587H52.4407V25.8066H45.9902V32.2587Z" fill="#231F20"/>
<path d="M26.6309 174.193H33.0829V167.741H26.6309V174.193Z" fill="#231F20"/>
<path d="M26.6309 161.291H33.0829L33.0829 154.84H26.6309L26.6309 161.291Z" fill="#E1850F"/>
<path d="M45.9863 187.096H52.4384V180.645H45.9863V187.096Z" fill="#231F20"/>
<path d="M39.5332 187.096H45.9852V180.645H39.5332V187.096Z" fill="#F9A70D"/>
<path d="M52.4396 187.096H58.8916L58.8916 180.646H52.4396L52.4396 187.096Z" fill="#F9A70D"/>
<path d="M33.084 187.096H39.5344V180.645H33.084V187.096Z" fill="#F9A70D"/>
<path d="M33.084 180.645H39.5344L39.5344 174.193H33.084L33.084 180.645Z" fill="#FBC707"/>
<path d="M26.6309 45.1621H33.0829V38.7109H26.6309V45.1621Z" fill="#914629"/>
<path d="M175.021 161.29H181.472V154.84H175.021V161.29Z" fill="#F9A70D"/>
<path d="M175.021 154.839H181.472V148.387H175.021V154.839Z" fill="#F9A70D"/>
<path d="M175.021 148.387H181.472V141.936H175.021V148.387Z" fill="#F9A70D"/>
<path d="M175.022 167.741H181.472L181.472 161.29H175.021L175.022 167.741Z" fill="#F9A70D"/>
<path d="M136.311 167.741H142.763L142.763 161.29H136.311L136.311 167.741Z" fill="#E1850F"/>
<path d="M175.021 122.581H181.472V116.129H175.021V122.581Z" fill="#231F20"/>
<path d="M175.021 129.032H181.472V122.581H175.021V129.032Z" fill="#FBC707"/>
<path d="M175.021 141.934H181.472V135.482H175.021V141.934Z" fill="#FBC707"/>
<path d="M84.6973 32.2587H91.1493V25.8066H84.6973V32.2587Z" fill="#231F20"/>
<path d="M116.955 32.2587H123.407V25.8066H116.955V32.2587Z" fill="#914629"/>
<path d="M91.1465 32.2587H97.5985V25.8066H91.1465V32.2587Z" fill="#231F20"/>
<path d="M104.053 32.2587H110.503V25.8066H104.053V32.2587Z" fill="#914629"/>
<path d="M110.502 32.2587H116.954V25.8066H110.502V32.2587Z" fill="#914629"/>
<path d="M97.5996 32.2587H104.052V25.8066H97.5996V32.2587Z" fill="#231F20"/>
<path d="M65.342 32.2585H71.7941V25.8065H65.342V32.2585Z" fill="#914629"/>
<path d="M78.2441 32.2587H84.6946V25.8066H78.2441V32.2587Z" fill="#231F20"/>
<path d="M71.7941 32.2585L78.2469 32.2587V25.8066L71.7941 25.8065V32.2585Z" fill="#B46241"/>
<path d="M58.8887 32.2587H65.3407V25.8066H58.8887V32.2587Z" fill="#231F20"/>
<path d="M123.408 32.2587H129.859V25.8066H123.408V32.2587Z" fill="#231F20"/>
<path d="M52.4396 32.2585H58.8916V25.8065H52.4396V32.2585Z" fill="#231F20"/>
<path d="M20.1807 141.935L26.6337 141.935V135.484L20.1807 135.485V141.935Z" fill="#511D20"/>
<path d="M39.5332 25.8066H45.9852V19.3563H39.5332V25.8066Z" fill="#231F20"/>
<path d="M33.084 25.8066H39.5344V19.3563H33.084V25.8066Z" fill="#914629"/>
<path d="M52.4396 25.8065H58.8916V19.3561H52.4396V25.8065Z" fill="#F9A70D"/>
<path d="M26.6309 25.8066H33.0829V19.3563H26.6309V25.8066Z" fill="#B46241"/>
<path d="M45.9863 25.8059H52.4384V19.3563H45.9863V25.8059Z" fill="#F9A70D"/>
<path d="M20.1816 45.163H26.6337V38.7109H20.1816V45.163Z" fill="#914629"/>
<path d="M20.1816 38.7098H26.6337V32.2578H20.1816V38.7098Z" fill="#B46241"/>
<path d="M129.857 187.096H136.308V180.645H129.857V187.096Z" fill="#231F20"/>
<path d="M20.1816 25.8059H26.6337V19.3555H20.1816V25.8059Z" fill="#231F20"/>
<path d="M20.1816 32.2578H26.6337V25.8059H20.1816V32.2578Z" fill="#231F20"/>
<path d="M20.1816 51.6125H26.6337V45.163H20.1816V51.6125Z" fill="#914629"/>
<path d="M97.5996 25.8066H104.052V19.3563H97.5996V25.8066Z" fill="#F9A70D"/>
<path d="M104.053 25.8066H110.503V19.3563H104.053V25.8066Z" fill="#231F20"/>
<path d="M110.502 25.8066H116.954V19.3563H110.502V25.8066Z" fill="#914629"/>
<path d="M116.955 25.8066H123.407V19.3563H116.955V25.8066Z" fill="#B46241"/>
<path d="M91.1504 25.8059H97.6008V19.3555H91.1504V25.8059Z" fill="#F9A70D"/>
<path d="M65.342 25.8065H71.7941V19.3561H65.342V25.8065Z" fill="#914629"/>
<path d="M71.7949 25.8059H78.2453V19.3555H71.7949V25.8059Z" fill="#914629"/>
<path d="M78.2441 25.8066L84.6962 25.8059V19.3555L78.2441 19.3563V25.8066Z" fill="#231F20"/>
<path d="M84.6973 25.8066H91.1493V19.3563H84.6973V25.8066Z" fill="#F9A70D"/>
<path d="M20.1816 180.645H26.6337L26.6337 174.193H20.1817L20.1816 180.645Z" fill="#FBC707"/>
<path d="M20.1816 148.388H26.6337V141.935L20.1816 141.936V148.388Z" fill="#231F20"/>
<path d="M175.021 174.194H181.472L181.472 167.741H175.022L175.021 174.194Z" fill="#E1850F"/>
<path d="M20.1816 154.839H26.6337V148.388H20.1816V154.839Z" fill="#FBC707"/>
<path d="M20.1816 122.581H26.6337V116.129H20.1816V122.581Z" fill="#231F20"/>
<path d="M20.1816 135.485L26.6337 135.484V129.033H20.1816V135.485Z" fill="#6E2F26"/>
<path d="M20.1816 129.032H26.6337V122.581H20.1816V129.032Z" fill="#231F20"/>
<path d="M123.408 25.8066H129.859V19.3555H123.408V25.8066Z" fill="#231F20"/>
<path d="M20.1817 174.193H26.6337L26.6337 167.742H20.1816L20.1817 174.193Z" fill="#231F20"/>
<path d="M20.1816 58.0653H26.6337V51.6125H20.1816V58.0653Z" fill="#B46241"/>
<path d="M20.1816 167.742H26.6337L26.6337 161.291L20.1807 161.291L20.1816 167.742Z" fill="#F9A70D"/>
<path d="M20.1816 161.292L26.6337 161.291L26.6337 154.84H20.1816V161.292Z" fill="#F9A70D"/>
<path d="M20.1816 83.8719H26.6337V77.4199H20.1816V83.8719Z" fill="#231F20"/>
<path d="M20.1816 77.4188H26.6337V70.9668H20.1816V77.4188Z" fill="#914629"/>
<path d="M20.1816 70.9668H26.6337V64.5156H20.1816V70.9668Z" fill="#914629"/>
<path d="M20.1816 64.5156H26.6337V58.0653H20.1816V64.5156Z" fill="#914629"/>
<path d="M20.1816 90.3215H26.6337V83.8719H20.1816V90.3215Z" fill="#FBC707"/>
<path d="M20.1816 103.225H26.6337V96.7734H20.1816V103.225Z" fill="white"/>
<path d="M20.1816 116.129H26.6337V109.678H20.1816V116.129Z" fill="#DDD9D8"/>
<path d="M20.1816 109.678H26.6337V103.227H20.1816V109.678Z" fill="white"/>
<path d="M20.1816 96.7734H26.6337V90.3215H20.1816V96.7734Z" fill="white"/>
<path d="M58.8926 25.8059H65.3446V19.3555H58.8926V25.8059Z" fill="#231F20"/>
<path d="M181.471 148.388H187.923V141.936H181.471V148.388Z" fill="#F9A70D"/>
<path d="M181.471 141.934H187.923V135.482H181.471V141.934Z" fill="#FBC707"/>
<path d="M181.471 154.839H187.923V148.388H181.471V154.839Z" fill="#F9A70D"/>
<path d="M181.471 167.741H187.923V161.291H181.471V167.741Z" fill="#F9A70D"/>
<path d="M181.471 161.291H187.923L187.923 154.84H181.471L181.471 161.291Z" fill="#F9A70D"/>
<path d="M181.471 174.194H187.923L187.923 167.741H181.471L181.471 174.194Z" fill="#F9A70D"/>
<path d="M181.471 122.581H187.923V116.129H181.471V122.581Z" fill="#231F20"/>
<path d="M181.471 135.485H187.923V129.033H181.471V135.485Z" fill="#231F20"/>
<path d="M181.471 129.032H187.923V122.581H181.471V129.032Z" fill="#FBC707"/>
<path d="M155.662 187.095H162.114V180.645H155.662V187.095Z" fill="#F9A70D"/>
<path d="M142.76 187.096L149.212 187.095V180.645H142.76V187.096Z" fill="#231F20"/>
<path d="M149.213 187.096H155.663L155.663 180.646H149.213L149.213 187.096Z" fill="#F9A70D"/>
<path d="M181.471 180.645H187.923L187.923 174.194H181.471L181.471 180.645Z" fill="#231F20"/>
<path d="M136.311 187.096H142.763V180.645H136.311V187.096Z" fill="#CA6610"/>
<path d="M181.471 187.096H187.923L187.923 180.645H181.471L181.471 187.096Z" fill="#F9A70D"/>
<path d="M175.021 187.096H181.472V180.645H175.021V187.096Z" fill="#F9A70D"/>
<path d="M168.568 187.096H175.02V180.645H168.568V187.096Z" fill="#F9A70D"/>
<path d="M162.115 187.097H168.567V180.646H162.115V187.097Z" fill="#F9A70D"/>
<path d="M175.021 135.485H181.472V129.033H175.021V135.485Z" fill="#231F20"/>
<path d="M39.5332 148.388H45.9852V141.936H39.5332V148.388Z" fill="#6E2F26"/>
<path d="M39.5332 116.128H45.9852V109.678H39.5332V116.128Z" fill="white"/>
<path d="M39.5332 135.485H45.9852V129.033H39.5332V135.485Z" fill="#DDD9D8"/>
<path d="M39.5332 129.032H45.9852V122.58H39.5332V129.032Z" fill="white"/>
<path d="M39.5332 122.58H45.9852V116.128H39.5332V122.58Z" fill="#231F20"/>
<path d="M39.5332 141.936H45.9852V135.485H39.5332V141.936Z" fill="#231F20"/>
<path d="M45.9863 174.194H52.4384V167.742H45.9863V174.194Z" fill="#CA6610"/>
<path d="M45.9863 167.742H52.4384V161.292H45.9863V167.742Z" fill="#231F20"/>
<path d="M39.5332 154.839H45.9852V148.388H39.5332V154.839Z" fill="#6E2F26"/>
<path d="M39.5332 161.292H45.9852V154.84H39.5332V161.292Z" fill="#511D20"/>
<path d="M39.5332 167.741H45.9853L45.9852 161.292H39.5332L39.5332 167.741Z" fill="#231F20"/>
<path d="M39.5332 70.9677H45.9852V64.5156H39.5332V70.9677Z" fill="#F9A70D"/>
<path d="M39.5332 64.5156H45.9852V58.0645H39.5332V64.5156Z" fill="#F9A70D"/>
<path d="M39.5332 77.4188H45.9852V70.9677H39.5332V77.4188Z" fill="#F9A70D"/>
<path d="M39.5332 51.6125H45.9852V45.1621H39.5332V51.6125Z" fill="#231F20"/>
<path d="M39.5332 58.0645H45.9852V51.6125H39.5332V58.0645Z" fill="#FBC707"/>
<path d="M39.5332 103.225H45.9852V96.7734H39.5332V103.225Z" fill="#7A4A30"/>
<path d="M39.5332 96.7734H45.9852V90.3223H39.5332V96.7734Z" fill="#7A4A30"/>
<path d="M39.5332 83.8719H45.9852V77.4199H39.5332V83.8719Z" fill="#FBC707"/>
<path d="M39.5332 109.678H45.9852V103.227H39.5332V109.678Z" fill="#5A3522"/>
<path d="M39.5332 90.3223H45.9852V83.8719H39.5332V90.3223Z" fill="#F9A70D"/>
<path d="M52.4396 174.194H58.8916L58.8916 167.741H52.4396L52.4396 174.194Z" fill="#231F20"/>
<path d="M142.76 174.194H149.212V167.742H142.76V174.194Z" fill="#E1850F"/>
<path d="M136.311 174.194H142.763L142.763 167.741H136.311L136.311 174.194Z" fill="#E1850F"/>
<path d="M129.857 174.194H136.308L136.308 167.741H129.857L129.857 174.194Z" fill="#231F20"/>
<path d="M149.212 174.194H155.663V167.742H149.212V174.194Z" fill="#E1850F"/>
<path d="M123.408 174.194H129.859L129.859 167.741H123.408L123.408 174.194Z" fill="#F9A70D"/>
<path d="M39.5371 45.163H45.9891V38.7109H39.5371V45.163Z" fill="#914629"/>
<path d="M168.568 167.741H175.02V161.291H168.568V167.741Z" fill="#E1850F"/>
<path d="M116.955 174.194H123.407L123.407 167.741H116.955L116.955 174.194Z" fill="#F9A70D"/>
<path d="M168.568 174.194H175.02L175.02 167.741H168.568L168.568 174.194Z" fill="#231F20"/>
<path d="M162.115 174.194H168.567V167.742H162.115V174.194Z" fill="#E1850F"/>
<path d="M155.662 174.194H162.114V167.742H155.662V174.194Z" fill="#E1850F"/>
<path d="M71.7949 174.194H78.2469L78.247 167.741L71.7949 167.742V174.194Z" fill="#231F20"/>
<path d="M65.342 174.194H71.7949L71.7941 167.741H65.342L65.342 174.194Z" fill="#231F20"/>
<path d="M58.8887 174.194H65.3407L65.3407 167.741H58.8887L58.8887 174.194Z" fill="#231F20"/>
<path d="M78.2441 174.194H84.6946L84.6946 167.741H78.2442L78.2441 174.194Z" fill="#231F20"/>
<path d="M91.1465 174.194H97.5985V167.742H91.1465V174.194Z" fill="#231F20"/>
<path d="M97.5996 174.194H104.052L104.052 167.741H97.5996L97.5996 174.194Z" fill="#231F20"/>
<path d="M104.053 174.194H110.503L110.503 167.741H104.053L104.053 174.194Z" fill="#F9A70D"/>
<path d="M84.6973 174.194H91.1493L91.1493 167.741H84.6973L84.6973 174.194Z" fill="#231F20"/>
<path d="M110.502 174.194H116.954L116.954 167.741H110.502L110.502 174.194Z" fill="#F9A70D"/>
<path d="M168.568 161.291H175.02L175.02 154.84H168.568L168.568 161.291Z" fill="#F9A70D"/>
<path d="M45.9863 45.1621H52.4384V38.7109H45.9863V45.1621Z" fill="#231F20"/>
<path d="M162.115 129.032H168.567V122.58H162.115V129.032Z" fill="#231F20"/>
<path d="M155.662 167.742H162.114V161.29H155.662V167.742Z" fill="#F9A70D"/>
<path d="M149.213 167.741L155.663 167.742V161.29L149.213 161.291V167.741Z" fill="#F9A70D"/>
<path d="M162.115 167.742H168.567L168.567 161.291H162.115L162.115 167.742Z" fill="#231F20"/>
<path d="M142.76 167.742H149.212V161.29H142.76V167.742Z" fill="#F9A70D"/>
<path d="M175.021 180.645H181.472V174.194H175.021V180.645Z" fill="#231F20"/>
<path d="M162.115 141.934H168.567V135.482H162.115V141.934Z" fill="#F9A70D"/>
<path d="M162.115 148.388H168.567V141.936H162.115V148.388Z" fill="#231F20"/>
<path d="M162.115 161.291H168.567L168.567 154.84H162.115L162.115 161.291Z" fill="#231F20"/>
<path d="M162.115 135.485H168.567V129.033H162.115V135.485Z" fill="#F9A70D"/>
<path d="M84.6973 45.1621H91.1493V38.7109H84.6973V45.1621Z" fill="#231F20"/>
<path d="M78.2441 45.1621H84.6946V38.7109H78.2441V45.1621Z" fill="#914629"/>
<path d="M91.1465 45.1621H97.5985V38.7109H91.1465V45.1621Z" fill="#914629"/>
<path d="M110.506 45.1621H116.958V38.7109H110.506V45.1621Z" fill="#914629"/>
<path d="M104.053 45.1621H110.503V38.7109H104.053V45.1621Z" fill="#914629"/>
<path d="M97.5996 45.1621H104.052V38.7109H97.5996V45.1621Z" fill="#914629"/>
<path d="M58.8887 45.1621H65.3407V38.7109H58.8887V45.1621Z" fill="#231F20"/>
<path d="M71.7949 45.1621H78.2469V38.7109H71.7949V45.1621Z" fill="#231F20"/>
<path d="M52.4396 45.1621H58.8916V38.7109H52.4396V45.1621Z" fill="#914629"/>
<path d="M65.342 45.1621L71.794 45.163L71.7949 38.7109H65.342V45.1621Z" fill="#914629"/>
<path d="M123.408 45.1621H129.859V38.7109H123.408V45.1621Z" fill="#914629"/>
<path d="M116.955 45.1621H123.407V38.7109H116.955V45.1621Z" fill="#914629"/>
<path d="M129.857 45.1621H136.308V38.7109H129.857V45.1621Z" fill="#231F20"/>
<path d="M162.115 154.839H168.567V148.388H162.115V154.839Z" fill="#231F20"/>
<path d="M33.084 148.388H39.5344V141.936H33.084V148.388Z" fill="#6E2F26"/>
<path d="M33.084 122.581H39.5344V116.129H33.084V122.581Z" fill="#231F20"/>
<path d="M33.084 129.032H39.5344V122.581H33.084V129.032Z" fill="white"/>
<path d="M33.084 135.485H39.5344V129.033H33.084V135.485Z" fill="#DDD9D8"/>
<path d="M33.084 154.839H39.5344V148.388H33.084V154.839Z" fill="#511D20"/>
<path d="M33.084 58.0653H39.536V51.6133H33.084V58.0653Z" fill="#231F20"/>
<path d="M33.084 174.193H39.5344L39.5344 167.742H33.084L33.084 174.193Z" fill="#231F20"/>
<path d="M39.5332 174.194H45.9852L45.9853 167.741H39.5332L39.5332 174.194Z" fill="#231F20"/>
<path d="M33.084 167.742H39.5344L39.5344 161.291H33.084L33.084 167.742Z" fill="#CA6610"/>
<path d="M33.084 161.291H39.5344L39.5344 154.84H33.084L33.084 161.291Z" fill="#231F20"/>
<path d="M33.084 141.936H39.5344V135.485H33.084V141.936Z" fill="#231F20"/>
<path d="M33.084 116.129H39.5344V109.678H33.084V116.129Z" fill="white"/>
<path d="M33.084 83.8719H39.5344V77.4199H33.084V83.8719Z" fill="#F9A70D"/>
<path d="M33.084 70.9677H39.5344V64.5156H33.084V70.9677Z" fill="#231F20"/>
<path d="M33.084 64.5156H39.5344V58.0645L33.084 58.0653V64.5156Z" fill="#231F20"/>
<path d="M33.084 77.4188H39.5344V70.9677H33.084V77.4188Z" fill="#FBC707"/>
<path d="M33.084 103.225H39.5344V96.7734H33.084V103.225Z" fill="#7A4A30"/>
<path d="M33.084 90.3215H39.5344V83.8719H33.084V90.3215Z" fill="#F9A70D"/>
<path d="M33.084 109.678H39.5344V103.227H33.084V109.678Z" fill="white"/>
<path d="M33.084 96.7734H39.5344V90.3215H33.084V96.7734Z" fill="#7A4A30"/>
<path d="M39.5332 180.645H45.9852V174.194H39.5332V180.645Z" fill="#FBC707"/>
<path d="M142.76 180.645H149.212V174.194H142.76V180.645Z" fill="#E1850F"/>
<path d="M129.857 180.645H136.308V174.194H129.857V180.645Z" fill="#231F20"/>
<path d="M136.311 180.645H142.763V174.194H136.311V180.645Z" fill="#E1850F"/>
<path d="M123.408 180.645H129.859V174.194H123.408V180.645Z" fill="#F9A70D"/>
<path d="M116.955 180.645H123.407V174.194H116.955V180.645Z" fill="#F9A70D"/>
<path d="M162.115 180.646H168.567V174.194H162.115V180.646Z" fill="#231F20"/>
<path d="M168.568 180.645H175.02V174.194H168.568V180.645Z" fill="#231F20"/>
<path d="M110.502 180.645H116.954V174.194H110.502V180.645Z" fill="#F9A70D"/>
<path d="M155.662 180.645H162.114V174.194H155.662V180.645Z" fill="#231F20"/>
<path d="M149.213 180.646H155.663V174.194L149.213 174.193L149.213 180.646Z" fill="#231F20"/>
<path d="M78.2441 180.645H84.6946V174.194H78.2441V180.645Z" fill="#FBC707"/>
<path d="M58.8887 180.645H65.3407V174.194H58.8887V180.645Z" fill="#FBC707"/>
<path d="M71.7949 180.645H78.2469V174.194H71.7949V180.645Z" fill="#FBC707"/>
<path d="M65.342 180.646H71.794L71.7941 174.193L65.342 174.194V180.646Z" fill="#FBC707"/>
<path d="M52.4396 180.646H58.8916V174.194H52.4396V180.646Z" fill="#FBC707"/>
<path d="M97.5996 180.645H104.052V174.194H97.5996V180.645Z" fill="#F9A70D"/>
<path d="M91.1465 180.645H97.5985V174.194H91.1465V180.645Z" fill="#F9A70D"/>
<path d="M45.9863 180.645H52.4384V174.194H45.9863V180.645Z" fill="#231F20"/>
<path d="M104.053 180.645H110.503V174.194H104.053V180.645Z" fill="#F9A70D"/>
<path d="M84.6973 180.645H91.1493V174.194H84.6973V180.645Z" fill="#FBC707"/>
<path d="M39.5371 38.7098H45.9891V32.2578H39.5371V38.7098Z" fill="#914629"/>
<path d="M168.568 129.032H175.02V122.58H168.568V129.032Z" fill="#FBC707"/>
<path d="M168.568 141.934H175.02V135.482H168.568V141.934Z" fill="#231F20"/>
<path d="M168.568 135.485H175.02V129.033H168.568V135.485Z" fill="#F9A70D"/>
<path d="M168.568 148.388H175.02V141.936H168.568V148.388Z" fill="#FBC707"/>
<path d="M168.568 122.58H175.02V116.129H168.568V122.58Z" fill="#231F20"/>
<path d="M91.1465 38.7098H97.5985V32.2587H91.1465V38.7098Z" fill="#914629"/>
<path d="M58.8887 38.7098H65.3407V32.2587H58.8887V38.7098Z" fill="#914629"/>
<path d="M65.342 38.7098H71.794L71.7941 32.2585H65.342L65.342 38.7098Z" fill="#914629"/>
<path d="M52.4396 38.7098H58.8916L58.8916 32.2585H52.4396L52.4396 38.7098Z" fill="#914629"/>
<path d="M71.794 38.7098H78.2469V32.2587L71.7949 32.2578L71.794 38.7098Z" fill="#914629"/>
<path d="M78.2441 38.7098H84.6946V32.2587H78.2441V38.7098Z" fill="#B46241"/>
<path d="M84.6973 38.7098H91.1493V32.2587H84.6973V38.7098Z" fill="#914629"/>
<path d="M33.084 45.163H39.5344V38.7109H33.084V45.163Z" fill="#B46241"/>
<path d="M45.9863 38.7098H52.4384V32.2578H45.9863V38.7098Z" fill="#914629"/>
<path d="M33.084 38.7098H39.5344V32.2587H33.084V38.7098Z" fill="#914629"/>
<path d="M168.568 154.839H175.02V148.388H168.568V154.839Z" fill="#F9A70D"/>
<path d="M97.5996 38.7098H104.052V32.2587H97.5996V38.7098Z" fill="#914629"/>
<path d="M123.408 38.7098H129.859V32.2587H123.408V38.7098Z" fill="#B46241"/>
<path d="M129.857 38.7098H136.308V32.2578H129.857V38.7098Z" fill="#231F20"/>
<path d="M104.053 38.7098H110.505V32.2578L104.053 32.2587V38.7098Z" fill="#914629"/>
<path d="M33.084 51.6133H39.536V45.1621L33.084 45.163V51.6133Z" fill="#914629"/>
<path d="M110.502 38.7098H116.954V32.2587H110.502V38.7098Z" fill="#914629"/>
<path d="M116.955 38.7098H123.407V32.2587H116.955V38.7098Z" fill="#914629"/>
<path d="M252.44 167.741H258.89V161.291H252.44V167.741Z" fill="#231F20"/>
<path d="M252.44 174.194H258.89L258.89 167.741H252.44L252.44 174.194Z" fill="#231F20"/>
<path d="M252.44 90.3215H258.89V83.8711H252.44V90.3215Z" fill="#231F20"/>
<path d="M252.44 96.7743H258.89V90.3215H252.44V96.7743Z" fill="#F9A70D"/>
<path d="M252.44 161.291H258.89L258.89 154.84H252.44L252.44 161.291Z" fill="#231F20"/>
<path d="M252.44 135.485H258.89V129.033H252.44V135.485Z" fill="#231F20"/>
<path d="M252.44 148.388H258.89V141.936H252.44V148.388Z" fill="#231F20"/>
<path d="M252.44 103.225H258.89V96.7743H252.44V103.225Z" fill="#231F20"/>
<path d="M252.44 154.839H258.89V148.388H252.44V154.839Z" fill="#231F20"/>
<path d="M252.44 141.934H258.89V135.482H252.44V141.934Z" fill="#231F20"/>
<path d="M265.342 103.225H271.784V96.7734H265.342V103.225Z" fill="#231F20"/>
<path d="M265.342 96.7734H271.784V90.3223H265.342V96.7734Z" fill="#231F20"/>
<path d="M265.342 109.679H271.784V103.227H265.342V109.679Z" fill="#231F20"/>
<path d="M258.889 90.3215H265.341V83.8711H258.889V90.3215Z" fill="#231F20"/>
<path d="M258.889 103.225H265.341V96.7734H258.889V103.225Z" fill="#F9A70D"/>
<path d="M258.889 109.679H265.341V103.227H258.889V109.679Z" fill="#231F20"/>
<path d="M258.889 96.7734H265.341V90.3215H258.889V96.7734Z" fill="#FBC707"/>
<path d="M233.084 96.7743H239.536V90.3223H233.084V96.7743Z" fill="#FBC707"/>
<path d="M233.084 103.225H239.536V96.7743H233.084V103.225Z" fill="#F9A70D"/>
<path d="M233.084 90.3223H239.536V83.8711H233.084V90.3223Z" fill="#231F20"/>
<path d="M233.084 116.128H239.536V109.678H233.084V116.128Z" fill="#231F20"/>
<path d="M233.084 122.581H239.536V116.128H233.084V122.581Z" fill="#F9A70D"/>
<path d="M233.084 109.678H239.536V103.227H233.084V109.678Z" fill="#231F20"/>
<path d="M233.084 174.194H239.536V167.742H233.084V174.194Z" fill="#231F20"/>
<path d="M233.084 180.645H239.536L239.536 174.194H233.084L233.084 180.645Z" fill="#F9A70D"/>
<path d="M233.084 135.485H239.536V129.033H233.084V135.485Z" fill="#231F20"/>
<path d="M233.084 129.032H239.536V122.581H233.084V129.032Z" fill="#E1850F"/>
<path d="M233.084 187.095H239.536L239.536 180.645H233.084L233.084 187.095Z" fill="#231F20"/>
<path d="M226.631 129.032H233.081V122.58H226.631V129.032Z" fill="#231F20"/>
<path d="M226.631 180.645H233.081V174.193H226.631V180.645Z" fill="#F9A70D"/>
<path d="M226.631 174.193H233.081L233.081 167.742H226.631L226.631 174.193Z" fill="#231F20"/>
<path d="M226.631 187.095H233.081L233.081 180.645H226.631L226.631 187.095Z" fill="#231F20"/>
<path d="M226.631 122.58H233.081V116.129H226.631V122.58Z" fill="#E1850F"/>
<path d="M226.631 116.129H233.081V109.678H226.631V116.129Z" fill="#F9A70D"/>
<path d="M226.631 103.225H233.081V96.7734H226.631V103.225Z" fill="#FBC707"/>
<path d="M226.631 96.7734H233.081V90.3223H226.631V96.7734Z" fill="#231F20"/>
<path d="M226.631 109.678H233.081V103.227H226.631V109.678Z" fill="#F9A70D"/>
<path d="M245.986 141.934H252.44V135.482H245.986V141.934Z" fill="#F9A70D"/>
<path d="M245.986 129.032H252.44V122.58H245.986V129.032Z" fill="#231F20"/>
<path d="M245.986 135.485H252.44V129.033H245.986V135.485Z" fill="#F9A70D"/>
<path d="M245.986 90.3215H252.44V83.8711H245.986V90.3215Z" fill="#231F20"/>
<path d="M245.986 103.225H252.44V96.7743L245.986 96.7734V103.225Z" fill="#231F20"/>
<path d="M245.986 96.7734L252.44 96.7743V90.3215H245.986V96.7734Z" fill="#F9A70D"/>
<path d="M245.986 180.645H252.44L252.44 174.194L245.986 174.193V180.645Z" fill="#231F20"/>
<path d="M245.986 148.388H252.44V141.936H245.986V148.388Z" fill="#F9A70D"/>
<path d="M245.986 161.29L252.44 161.291L252.44 154.84H245.986V161.29Z" fill="#F9A70D"/>
<path d="M245.986 174.193L252.44 174.194L252.44 167.741L245.986 167.742L245.986 174.193Z" fill="#E1850F"/>
<path d="M245.986 154.839H252.44V148.388H245.986V154.839Z" fill="#F9A70D"/>
<path d="M245.986 167.742L252.44 167.741V161.291L245.986 161.29V167.742Z" fill="#F9A70D"/>
<path d="M239.533 90.3215H245.984V83.8711H239.533V90.3215Z" fill="#231F20"/>
<path d="M239.533 96.7743H245.984V90.3215H239.533V96.7743Z" fill="#F9A70D"/>
<path d="M239.533 103.225H245.984V96.7743H239.533V103.225Z" fill="#231F20"/>
<path d="M239.533 148.388H245.984V141.936H239.533V148.388Z" fill="#231F20"/>
<path d="M239.533 154.839H245.984V148.388H239.533V154.839Z" fill="#231F20"/>
<path d="M239.533 141.934H245.984V135.482H239.533V141.934Z" fill="#231F20"/>
<path d="M239.533 161.29H245.984V154.84H239.533V161.29Z" fill="#231F20"/>
<path d="M239.533 122.581H245.984V116.129H239.533V122.581Z" fill="#231F20"/>
<path d="M239.533 135.485H245.984V129.033H239.533V135.485Z" fill="#E1850F"/>
<path d="M239.533 129.032H245.984V122.581H239.533V129.032Z" fill="#F9A70D"/>
<path d="M239.533 167.741H245.984L245.984 161.29H239.533L239.533 167.741Z" fill="#231F20"/>
<path d="M239.533 180.645H245.984V174.193H239.533V180.645Z" fill="#E1850F"/>
<path d="M239.533 174.193H245.984V167.741H239.533V174.193Z" fill="#F9A70D"/>
<path d="M239.533 187.095H245.984L245.984 180.645H239.533L239.533 187.095Z" fill="#231F20"/>
</svg>
