<svg width="178" height="200" viewBox="0 0 178 200" fill="none" xmlns="http://www.w3.org/2000/svg">
<path d="M80.7988 45.7147H86.5135V40H80.7988V45.7147Z" fill="#F35C7D"/>
<path d="M57.9434 45.7147H63.6581V40H57.9434V45.7147Z" fill="#231F20"/>
<path d="M75.084 45.7147H80.7973V40H75.084V45.7147Z" fill="#73C9F1"/>
<path d="M69.3691 45.7147H75.0824V40H69.3691V45.7147Z" fill="#231F20"/>
<path d="M46.5139 45.7147H52.2286V40H46.5139V45.7147Z" fill="#F35C7D"/>
<path d="M35.0838 45.7147H40.7985V40H35.0838V45.7147Z" fill="#231F20"/>
<path d="M40.7985 45.7147H46.5139V40H40.7985V45.7147Z" fill="#30A5D9"/>
<path d="M86.5135 45.7147H92.2286V40H86.5135V45.7147Z" fill="#30A5D9"/>
<path d="M92.2286 45.7147L97.9418 45.7147V40L92.2286 40V45.7147Z" fill="#231F20"/>
<path d="M52.2286 45.7147L57.9418 45.7147V40L52.2286 40V45.7147Z" fill="#73C9F1"/>
<path d="M12.2285 39.9998H17.9432V34.2852H12.2285V39.9998Z" fill="#231F20"/>
<path d="M23.6543 39.9998H29.369V34.2852H23.6543V39.9998Z" fill="#231F20"/>
<path d="M17.9432 39.9998H23.6581V34.2852H17.9432V39.9998Z" fill="#231F20"/>
<path d="M29.369 39.9998H35.0824V34.2852H29.369V39.9998Z" fill="#231F20"/>
<path d="M35.0838 40H40.7985V34.2854H35.0838V40Z" fill="#30A5D9"/>
<path d="M40.7985 40H46.5139L46.5135 34.2854H40.7985V40Z" fill="#F35C7D"/>
<path d="M46.5139 40H52.2286V34.2854H46.5135L46.5139 40Z" fill="#73C9F1"/>
<path d="M80.7988 40H86.5135V34.2854H80.7988V40Z" fill="#F35C7D"/>
<path d="M86.5135 40H92.2286V34.2854H86.5135V40Z" fill="#F35C7D"/>
<path d="M92.2286 40L97.9418 40V34.2852L92.2286 34.2854V40Z" fill="#30A5D9"/>
<path d="M97.9434 39.9998H103.657V34.2852H97.9434V39.9998Z" fill="#231F20"/>
<path d="M57.9434 40H63.6581V34.2852H57.9434V40Z" fill="#231F20"/>
<path d="M75.084 40H80.7973V34.2852H75.084V40Z" fill="#73C9F1"/>
<path d="M52.2286 40L57.9418 40V34.2852L52.2286 34.2854V40Z" fill="#BFEAFB"/>
<path d="M69.3691 40H75.0824V34.2852H69.3691V40Z" fill="#231F20"/>
<path d="M166.514 154.287H172.228V148.572H166.514V154.287Z" fill="#231F20"/>
<path d="M166.514 160H172.228L172.228 154.287H166.514L166.514 160Z" fill="#231F20"/>
<path d="M166.514 200H172.228V194.287H166.514V200Z" fill="#231F20"/>
<path d="M166.514 194.287H172.228L172.228 188.572H166.514L166.514 194.287Z" fill="#E0776A"/>
<path d="M166.514 188.572H172.228L172.229 182.857H166.514L166.514 188.572Z" fill="#F89A8D"/>
<path d="M166.514 165.715H172.229L172.228 160H166.514L166.514 165.715Z" fill="#231F20"/>
<path d="M166.514 182.857H172.229L172.228 177.145H166.514L166.514 182.857Z" fill="#231F20"/>
<path d="M46.5139 51.4293H52.2286V45.7147H46.5139V51.4293Z" fill="#30A5D9"/>
<path d="M75.084 51.4295H80.7973V45.7147H75.084V51.4295Z" fill="#73C9F1"/>
<path d="M69.3691 51.4295H75.0824V45.7147H69.3691V51.4295Z" fill="#231F20"/>
<path d="M80.7988 51.4293H86.5135V45.7147H80.7988V51.4293Z" fill="#73C9F1"/>
<path d="M86.5135 51.4293H92.2286V45.7147H86.5135V51.4293Z" fill="#231F20"/>
<path d="M52.2286 51.4293L57.9418 51.4295V45.7147L52.2286 45.7147V51.4293Z" fill="#73C9F1"/>
<path d="M40.7988 51.4293H46.5139V45.7147H40.7985L40.7988 51.4293Z" fill="#231F20"/>
<path d="M57.9434 51.4295H63.6581V45.7147H57.9434V51.4295Z" fill="#231F20"/>
<path d="M155.084 200H160.799V194.287H155.084V200Z" fill="#231F20"/>
<path d="M155.084 154.287H160.799V148.572H155.084V154.287Z" fill="#73C9F1"/>
<path d="M155.084 160H160.799L160.799 154.287H155.084L155.084 160Z" fill="#73C9F1"/>
<path d="M155.084 171.43H160.799V165.715H155.084V171.43Z" fill="#147FAF"/>
<path d="M155.084 177.144H160.799L160.799 171.43H155.084L155.084 177.144Z" fill="#231F20"/>
<path d="M155.084 165.715H160.799L160.799 160H155.084L155.084 165.715Z" fill="#30A5D9"/>
<path d="M155.084 142.859H160.799V137.143H155.084V142.859Z" fill="#231F20"/>
<path d="M155.084 148.572H160.799V142.859H155.084V148.572Z" fill="#BFEAFB"/>
<path d="M155.084 182.858H160.799V177.144H155.084V182.858Z" fill="#231F20"/>
<path d="M155.084 194.287H160.799L160.799 188.572H155.084L155.084 194.287Z" fill="#E0776A"/>
<path d="M155.084 188.572H160.799L160.799 182.858H155.084L155.084 188.572Z" fill="#F89A8D"/>
<path d="M160.799 188.572L166.512 188.572V182.857L160.799 182.858L160.799 188.572Z" fill="#F89A8D"/>
<path d="M160.799 182.858L166.512 182.857L166.512 177.145L160.799 177.144V182.858Z" fill="#231F20"/>
<path d="M160.799 200H166.512V194.287H160.799V200Z" fill="#231F20"/>
<path d="M160.799 194.287H166.512L166.512 188.572L160.799 188.572L160.799 194.287Z" fill="#231F20"/>
<path d="M160.799 160H166.512V154.287L160.799 154.287L160.799 160Z" fill="#73C9F1"/>
<path d="M160.799 154.287L166.512 154.287L166.512 148.572H160.799V154.287Z" fill="#BFEAFB"/>
<path d="M160.799 148.572H166.512L166.512 142.859L160.799 142.859V148.572Z" fill="#231F20"/>
<path d="M160.799 171.43H166.512V165.715H160.799V171.43Z" fill="#231F20"/>
<path d="M160.799 165.715H166.512L166.512 160H160.799L160.799 165.715Z" fill="#30A5D9"/>
<path d="M92.2285 28.5721H97.9418V22.8574H92.2285V28.5721Z" fill="#F35C7D"/>
<path d="M97.9434 28.5721H103.657V22.8574H97.9434V28.5721Z" fill="#F35C7D"/>
<path d="M86.5139 28.5721L92.2285 28.5721V22.8574L86.5139 22.8574V28.5721Z" fill="#73C9F1"/>
<path d="M109.369 28.5721H115.084V22.8574H109.369V28.5721Z" fill="#231F20"/>
<path d="M103.654 28.5721H109.369V22.8574H103.654V28.5721Z" fill="#30A5D9"/>
<path d="M80.7988 28.5721H86.5139V22.8574H80.7988V28.5721Z" fill="#73C9F1"/>
<path d="M115.084 28.5721H120.799V22.8574H115.084V28.5721Z" fill="#231F20"/>
<path d="M75.084 28.5721H80.7973V22.8574H75.084V28.5721Z" fill="#231F20"/>
<path d="M0.798828 28.5721H6.51352V22.8574H0.798828V28.5721Z" fill="#231F20"/>
<path d="M52.2285 28.5721H57.9418V22.8574H52.2285V28.5721Z" fill="#231F20"/>
<path d="M35.0838 28.5721H40.7985V22.8574H35.0838V28.5721Z" fill="#73C9F1"/>
<path d="M46.5139 28.5721L52.2285 28.5721V22.8574L46.5139 22.8574V28.5721Z" fill="#BFEAFB"/>
<path d="M29.3691 28.5721H35.0824V22.8574H29.3691V28.5721Z" fill="#F35C7D"/>
<path d="M40.7985 28.5721H46.5139V22.8574H40.7985V28.5721Z" fill="#73C9F1"/>
<path d="M12.2285 28.5721H17.9432V22.8574H12.2285V28.5721Z" fill="#F35C7D"/>
<path d="M6.51352 28.5721H12.2271V22.8574H6.51352V28.5721Z" fill="#73C9F1"/>
<path d="M17.9432 28.5721H23.6581V22.8574H17.9432V28.5721Z" fill="#F35C7D"/>
<path d="M23.6543 28.5721H29.3691V22.8574H23.6543V28.5721Z" fill="#F35C7D"/>
<path d="M172.228 200H177.943V194.287H172.228V200Z" fill="#231F20"/>
<path d="M172.228 188.572L177.943 188.572V182.857L172.229 182.857L172.228 188.572Z" fill="#231F20"/>
<path d="M172.228 194.287H177.943L177.943 188.572L172.228 188.572L172.228 194.287Z" fill="#231F20"/>
<path d="M35.0838 34.2854H40.7985V28.5721H35.0838V34.2854Z" fill="#F35C7D"/>
<path d="M40.7985 34.2854H46.5135L46.5139 28.5721H40.7985V34.2854Z" fill="#73C9F1"/>
<path d="M46.5135 34.2854H52.2286L52.2285 28.5721L46.5139 28.5721L46.5135 34.2854Z" fill="#73C9F1"/>
<path d="M29.369 34.2852H35.0824V28.5721H29.3691L29.369 34.2852Z" fill="#73C9F1"/>
<path d="M52.2286 34.2854L57.9418 34.2852V28.5721H52.2285L52.2286 34.2854Z" fill="#231F20"/>
<path d="M12.2285 34.2852H17.9432V28.5721H12.2285V34.2852Z" fill="#30A5D9"/>
<path d="M6.51388 34.2853H12.2271V28.5721H6.51352L6.51388 34.2853Z" fill="#231F20"/>
<path d="M23.6543 34.2852H29.369L29.3691 28.5721H23.6543V34.2852Z" fill="#73C9F1"/>
<path d="M17.9432 34.2852H23.6581V28.5721H17.9432V34.2852Z" fill="#73C9F1"/>
<path d="M97.9434 34.2852H103.657V28.5721H97.9434V34.2852Z" fill="#30A5D9"/>
<path d="M103.654 34.2855H109.369L109.369 28.5721H103.654V34.2855Z" fill="#231F20"/>
<path d="M92.2286 34.2854L97.9418 34.2852V28.5721H92.2285L92.2286 34.2854Z" fill="#F35C7D"/>
<path d="M69.3691 34.2852H75.0824V28.5723H69.3691V34.2852Z" fill="#231F20"/>
<path d="M86.5135 34.2854H92.2286L92.2285 28.5721L86.5139 28.5721L86.5135 34.2854Z" fill="#F35C7D"/>
<path d="M75.084 34.2852H80.7973V28.5721H75.084V34.2852Z" fill="#BFEAFB"/>
<path d="M80.7988 34.2854H86.5135L86.5139 28.5721H80.7988V34.2854Z" fill="#73C9F1"/>
<path d="M80.7988 154.287H86.5135V148.572H80.7988V154.287Z" fill="#73C9F1"/>
<path d="M86.5139 85.7147H92.2286V80H86.5139V85.7147Z" fill="#73C9F1"/>
<path d="M92.2286 85.7147L97.9432 85.7147V80L92.2286 80V85.7147Z" fill="#231F20"/>
<path d="M120.799 120.002H126.513V114.287H120.799V120.002Z" fill="#231F20"/>
<path d="M120.799 148.573H126.513V142.859H120.799V148.573Z" fill="#73C9F1"/>
<path d="M120.799 142.859H126.513L126.514 137.143H120.799L120.799 142.859Z" fill="#BFEAFB"/>
<path d="M120.799 154.287H126.514L126.513 148.573H120.799L120.799 154.287Z" fill="#73C9F1"/>
<path d="M120.799 137.143H126.514L126.513 131.43H120.799L120.799 137.143Z" fill="#231F20"/>
<path d="M120.799 160H126.513L126.514 154.287H120.799L120.799 160Z" fill="#231F20"/>
<path d="M80.7988 85.7147H86.5139V80H80.7988V85.7147Z" fill="#73C9F1"/>
<path d="M120.799 131.43H126.513L126.514 125.715H120.799L120.799 131.43Z" fill="#73C9F1"/>
<path d="M120.799 125.715H126.514L126.513 120.002H120.799L120.799 125.715Z" fill="#BFEAFB"/>
<path d="M35.0838 102.857H40.7985V97.1427H35.0838V102.857Z" fill="#BFEAFB"/>
<path d="M35.0837 120.002H40.7984V114.287H35.0837V120.002Z" fill="#F35C7D"/>
<path d="M35.0837 125.715H40.7984V120.002H35.0837V125.715Z" fill="#231F20"/>
<path d="M35.0838 131.429H40.7985L40.7984 125.715H35.0837L35.0838 131.429Z" fill="#73C9F1"/>
<path d="M35.0838 114.285H40.7985V108.572H35.0838V114.285Z" fill="#F35C7D"/>
<path d="M35.0838 108.572H40.7985V102.857H35.0838V108.572Z" fill="#231F20"/>
<path d="M35.0837 137.143H40.7984L40.7985 131.429H35.0838L35.0837 137.143Z" fill="#231F20"/>
<path d="M35.0837 148.573H40.7984V142.859H35.0837V148.573Z" fill="white"/>
<path d="M35.084 154.287H40.7987L40.7984 148.573H35.0837L35.084 154.287Z" fill="#E7E3E2"/>
<path d="M35.0837 142.859H40.7984V137.143H35.0837V142.859Z" fill="white"/>
<path d="M120.799 165.715H126.514L126.513 160H120.799L120.799 165.715Z" fill="#30A5D9"/>
<path d="M63.6543 85.7147H69.369V80H63.6543V85.7147Z" fill="#73C9F1"/>
<path d="M75.084 85.7147H80.7973V80H75.084V85.7147Z" fill="#73C9F1"/>
<path d="M57.9434 85.7147H63.6581V80H57.9434V85.7147Z" fill="#73C9F1"/>
<path d="M35.0838 97.1427H40.7985V91.428H35.0838V97.1427Z" fill="#73C9F1"/>
<path d="M69.369 85.7147H75.0824V80H69.369V85.7147Z" fill="#73C9F1"/>
<path d="M52.2285 85.7147H57.9418V80H52.2285V85.7147Z" fill="#73C9F1"/>
<path d="M35.0838 85.7147H40.7985V80H35.0838V85.7147Z" fill="#BFEAFB"/>
<path d="M35.0838 91.4293H40.7985V85.7147H35.0838V91.4293Z" fill="#73C9F1"/>
<path d="M46.5139 85.7147L52.2285 85.7147V80L46.5139 80V85.7147Z" fill="#73C9F1"/>
<path d="M40.7985 85.7147H46.5139V80H40.7985V85.7147Z" fill="#73C9F1"/>
<path d="M40.7985 97.1427L46.5135 97.1426V91.428H40.7985V97.1427Z" fill="#231F20"/>
<path d="M40.7985 91.4293H46.5135L46.5139 85.7147H40.7985V91.4293Z" fill="#231F20"/>
<path d="M52.2285 91.4295H57.9418V85.7147H52.2285V91.4295Z" fill="#73C9F1"/>
<path d="M46.5135 91.4293L52.2285 91.4295V85.7147L46.5139 85.7147L46.5135 91.4293Z" fill="#73C9F1"/>
<path d="M40.7985 102.857H46.5135V97.1426L40.7985 97.1427V102.857Z" fill="#BFEAFB"/>
<path d="M40.7984 125.715H46.5135V120.002L40.7984 120.002V125.715Z" fill="#231F20"/>
<path d="M57.9434 91.4295H63.6581V85.7147H57.9434V91.4295Z" fill="#231F20"/>
<path d="M40.7985 131.429H46.5135L46.5135 125.715H40.7984L40.7985 131.429Z" fill="#73C9F1"/>
<path d="M40.7985 114.285H46.5135V108.572H40.7985V114.285Z" fill="#F35C7D"/>
<path d="M40.7985 108.572H46.5135V102.857H40.7985V108.572Z" fill="#231F20"/>
<path d="M40.7984 120.002L46.5135 120.002V114.287H40.7984V120.002Z" fill="#F35C7D"/>
<path d="M92.2285 91.4295H97.9432V85.7147L92.2286 85.7147L92.2285 91.4295Z" fill="#BFEAFB"/>
<path d="M120.799 171.429H126.514V165.715H120.799V171.429Z" fill="#73C9F1"/>
<path d="M63.6543 91.4295H69.369V85.7147H63.6543V91.4295Z" fill="#73C9F1"/>
<path d="M97.9432 91.4295H103.657V85.7148L97.9432 85.7147V91.4295Z" fill="#231F20"/>
<path d="M86.5139 91.4293L92.2285 91.4295L92.2286 85.7147H86.5139V91.4293Z" fill="#73C9F1"/>
<path d="M69.369 91.4295H75.0824V85.7147H69.369V91.4295Z" fill="#73C9F1"/>
<path d="M75.084 91.4295H80.7973V85.7147H75.084V91.4295Z" fill="#73C9F1"/>
<path d="M80.7988 91.4293H86.5139V85.7147H80.7988V91.4293Z" fill="#73C9F1"/>
<path d="M86.5139 171.429H92.2286V165.715H86.5139V171.429Z" fill="#30A5D9"/>
<path d="M92.2286 171.429L97.9418 171.43V165.715L92.2286 165.715V171.429Z" fill="#30A5D9"/>
<path d="M63.6542 171.43H69.3689V165.717H63.6542V171.43Z" fill="#73C9F1"/>
<path d="M69.3689 165.717V171.43L75.0838 171.43V165.715L69.3689 165.717Z" fill="#73C9F1"/>
<path d="M75.0838 171.43H80.7973V165.715H75.0838V171.43Z" fill="#73C9F1"/>
<path d="M40.7984 137.143H46.5135L46.5135 131.429H40.7985L40.7984 137.143Z" fill="#231F20"/>
<path d="M115.084 171.43L120.799 171.429V165.715L115.084 165.715V171.43Z" fill="#73C9F1"/>
<path d="M97.9434 171.43H103.657V165.715H97.9434V171.43Z" fill="#73C9F1"/>
<path d="M109.369 171.43H115.084V165.715H109.369V171.43Z" fill="#73C9F1"/>
<path d="M103.654 171.43H109.369V165.715H103.654V171.43Z" fill="#73C9F1"/>
<path d="M80.7988 171.429H86.5139V165.715H80.7988V171.429Z" fill="#73C9F1"/>
<path d="M40.7984 148.573H46.5135V142.859H40.7984V148.573Z" fill="#231F20"/>
<path d="M40.7987 154.287H46.5135L46.5135 148.573H40.7984L40.7987 154.287Z" fill="#231F20"/>
<path d="M40.7984 142.859H46.5135V137.143H40.7984V142.859Z" fill="#231F20"/>
<path d="M40.7988 160H46.5135L46.5135 154.287H40.7987L40.7988 160Z" fill="#231F20"/>
<path d="M35.0837 160H40.7988L40.7987 154.287H35.084L35.0837 160Z" fill="#231F20"/>
<path d="M57.9433 171.43H63.658V165.717H57.9433V171.43Z" fill="#231F20"/>
<path d="M29.3691 102.857H35.0824V97.1426H29.3691V102.857Z" fill="#73C9F1"/>
<path d="M29.3691 108.572H35.0824V102.857H29.3691V108.572Z" fill="#231F20"/>
<path d="M29.3691 91.4295H35.0824V85.7148H29.3691V91.4295Z" fill="#BFEAFB"/>
<path d="M29.3691 85.7148H35.0824V80H29.3691V85.7148Z" fill="#231F20"/>
<path d="M29.3691 97.1426H35.0824V91.4277H29.3691V97.1426Z" fill="#73C9F1"/>
<path d="M29.3691 114.286H35.0824V108.572H29.3691V114.286Z" fill="#F35C7D"/>
<path d="M29.3691 131.43L35.0838 131.429L35.0837 125.715L29.3691 125.715V131.43Z" fill="#73C9F1"/>
<path d="M29.3691 125.715L35.0823 125.715V120.002H29.3691L29.3691 125.715Z" fill="#30A5D9"/>
<path d="M29.3691 120.002H35.0823V114.287H29.3691V120.002Z" fill="#231F20"/>
<path d="M80.7988 80H86.5139L86.5135 74.2871H80.7988L80.7988 80Z" fill="#73C9F1"/>
<path d="M63.6543 80H69.369L69.3689 74.2871H63.6542L63.6543 80Z" fill="#73C9F1"/>
<path d="M75.084 80H80.7973L80.7972 74.2871H75.0839L75.084 80Z" fill="#73C9F1"/>
<path d="M69.369 80H75.0824L75.0824 74.2871H69.3689L69.369 80Z" fill="#73C9F1"/>
<path d="M29.3691 137.143H35.0823V131.43L29.3691 131.43L29.3691 137.143Z" fill="#73C9F1"/>
<path d="M52.2285 80H57.9418L57.9417 74.2871H52.2285L52.2285 80Z" fill="#73C9F1"/>
<path d="M46.5139 80L52.2285 80L52.2285 74.2871H46.5138L46.5139 80Z" fill="#73C9F1"/>
<path d="M86.5139 80L92.2269 80.0004V74.2871H86.5135L86.5139 80Z" fill="#BFEAFB"/>
<path d="M57.9434 80H63.6581L63.658 74.2871H57.9433L57.9434 80Z" fill="#73C9F1"/>
<path d="M35.0838 80H40.7985L40.7984 74.2871H35.0837L35.0838 80Z" fill="#231F20"/>
<path d="M40.7985 80H46.5139L46.5138 74.2871H40.7984L40.7985 80Z" fill="#BFEAFB"/>
<path d="M69.3691 177.145V182.858H75.0838V177.145H69.3691Z" fill="#30A5D9"/>
<path d="M63.6542 182.858H69.3691V177.145H63.6542V182.858Z" fill="#231F20"/>
<path d="M57.9433 182.858H63.658V177.145H57.9433V182.858Z" fill="#231F20"/>
<path d="M75.0838 182.858H80.7972V177.145H75.0838V182.858Z" fill="#231F20"/>
<path d="M46.5138 182.858H52.2285V177.145H46.5138V182.858Z" fill="#231F20"/>
<path d="M52.2285 182.858H57.9417V177.145H52.2285V182.858Z" fill="#231F20"/>
<path d="M80.7988 182.858H86.5135V177.145H80.7988V182.858Z" fill="#30A5D9"/>
<path d="M92.2285 182.858H97.9417V177.145H92.2285V182.858Z" fill="#73C9F1"/>
<path d="M97.9433 182.858H103.657V177.145H97.9433V182.858Z" fill="#73C9F1"/>
<path d="M86.5135 182.858H92.2285V177.145H86.5135V182.858Z" fill="#73C9F1"/>
<path d="M29.3691 154.287H35.0824V148.572H29.3691V154.287Z" fill="#231F20"/>
<path d="M29.3691 148.572H35.0824L35.0823 142.859H29.3691L29.3691 148.572Z" fill="#231F20"/>
<path d="M40.7988 182.858H46.5138V177.145H40.7988V182.858Z" fill="#231F20"/>
<path d="M29.3691 142.859H35.0823V137.143H29.3691V142.859Z" fill="#231F20"/>
<path d="M115.084 177.144H120.799L120.799 171.429L115.084 171.43L115.084 177.144Z" fill="#73C9F1"/>
<path d="M80.7988 177.145H86.5135L86.5139 171.429H80.7988L80.7988 177.145Z" fill="#73C9F1"/>
<path d="M97.9433 177.145H103.657L103.657 171.43H97.9434L97.9433 177.145Z" fill="#73C9F1"/>
<path d="M109.369 177.144H115.084L115.084 171.43H109.369L109.369 177.144Z" fill="#73C9F1"/>
<path d="M86.5135 177.145H92.2285L92.2286 171.429H86.5139L86.5135 177.145Z" fill="#73C9F1"/>
<path d="M92.2285 177.145H97.9417L97.9418 171.43L92.2286 171.429L92.2285 177.145Z" fill="#73C9F1"/>
<path d="M103.654 177.144H109.369L109.369 171.43H103.654L103.654 177.144Z" fill="#73C9F1"/>
<path d="M126.514 177.144H132.228V171.43L126.514 171.429L126.514 177.144Z" fill="#73C9F1"/>
<path d="M126.514 171.429L132.228 171.43L132.229 165.715L126.514 165.715V171.429Z" fill="#73C9F1"/>
<path d="M120.799 177.144H126.514L126.514 171.429H120.799L120.799 177.144Z" fill="#231F20"/>
<path d="M126.514 165.715L132.229 165.715V160L126.513 160L126.514 165.715Z" fill="#73C9F1"/>
<path d="M75.0838 177.145H80.7972L80.7973 171.43H75.0838L75.0838 177.145Z" fill="#231F20"/>
<path d="M69.3689 171.43L69.3691 177.145H75.0838L75.0838 171.43L69.3689 171.43Z" fill="#73C9F1"/>
<path d="M63.6542 177.145H69.3691L69.3689 171.43H63.6542V177.145Z" fill="#30A5D9"/>
<path d="M57.9433 177.145H63.658V171.43H57.9433V177.145Z" fill="#231F20"/>
<path d="M92.2286 80L97.9417 80.0004V74.2871H92.2285L92.2286 80Z" fill="#231F20"/>
<path d="M126.513 160L132.229 160L132.228 154.287L126.514 154.287L126.513 160Z" fill="#30A5D9"/>
<path d="M126.513 148.573H132.228V142.859H126.513V148.573Z" fill="#231F20"/>
<path d="M126.513 142.859H132.228L132.229 137.143H126.514L126.513 142.859Z" fill="#231F20"/>
<path d="M126.514 154.287L132.228 154.287V148.573H126.513L126.514 154.287Z" fill="#231F20"/>
<path d="M126.514 137.143H132.229L132.228 131.43H126.513L126.514 137.143Z" fill="#73C9F1"/>
<path d="M126.513 131.43H132.228L132.229 125.715H126.514L126.513 131.43Z" fill="#BFEAFB"/>
<path d="M126.514 125.715H132.229L132.228 120.002L126.513 120.002L126.514 125.715Z" fill="#231F20"/>
<path d="M86.5138 137.143H92.2285V131.43H86.5138V137.143Z" fill="#30A5D9"/>
<path d="M57.9434 108.572H63.6581V102.857H57.9434V108.572Z" fill="#73C9F1"/>
<path d="M57.9434 114.286H63.6581V108.572H57.9434V114.286Z" fill="#73C9F1"/>
<path d="M57.9433 148.573H63.658V142.859H57.9433V148.573Z" fill="#231F20"/>
<path d="M63.6543 108.572H69.369V102.857H63.6543V108.572Z" fill="#73C9F1"/>
<path d="M69.369 108.572H75.0824V102.857H69.369V108.572Z" fill="#73C9F1"/>
<path d="M57.9433 120.002H63.658V114.287H57.9433V120.002Z" fill="#73C9F1"/>
<path d="M57.9433 125.715H63.658V120.002H57.9433V125.715Z" fill="#73C9F1"/>
<path d="M57.9433 137.143H63.658V131.43H57.9433V137.143Z" fill="#73C9F1"/>
<path d="M57.9433 142.859H63.658V137.143H57.9433V142.859Z" fill="#30A5D9"/>
<path d="M57.9433 131.43H63.658V125.715H57.9433V131.43Z" fill="#73C9F1"/>
<path d="M75.084 108.572H80.7973V102.857H75.084V108.572Z" fill="#73C9F1"/>
<path d="M97.9433 125.715H103.657V120.002H97.9433V125.715Z" fill="#30A5D9"/>
<path d="M80.7988 108.572H86.5135V102.857H80.7988V108.572Z" fill="#73C9F1"/>
<path d="M97.9434 131.43H103.657L103.657 125.715H97.9433L97.9434 131.43Z" fill="#73C9F1"/>
<path d="M97.9434 142.859H103.657V137.143H97.9434V142.859Z" fill="#30A5D9"/>
<path d="M97.9434 137.143H103.657V131.43H97.9434V137.143Z" fill="#73C9F1"/>
<path d="M97.9433 120.002H103.657V114.287H97.9433V120.002Z" fill="#231F20"/>
<path d="M86.5135 108.572H92.2286V102.857H86.5135V108.572Z" fill="#73C9F1"/>
<path d="M92.2286 108.572L97.9432 108.572V102.857L92.2286 102.857V108.572Z" fill="#73C9F1"/>
<path d="M97.9432 108.572H103.657V102.857H97.9432V108.572Z" fill="#231F20"/>
<path d="M97.9434 114.286H103.657V108.572H97.9432L97.9434 114.286Z" fill="#231F20"/>
<path d="M103.654 137.143H109.369V131.43H103.654V137.143Z" fill="#73C9F1"/>
<path d="M103.654 125.715H109.369V120.002H103.654V125.715Z" fill="#73C9F1"/>
<path d="M103.654 120.002H109.369V114.287H103.654V120.002Z" fill="#73C9F1"/>
<path d="M103.654 131.43H109.369V125.715H103.654V131.43Z" fill="#73C9F1"/>
<path d="M103.654 114.286H109.369V108.572H103.654V114.286Z" fill="#BFEAFB"/>
<path d="M97.9433 148.573H103.657L103.657 142.859H97.9434L97.9433 148.573Z" fill="#147FAF"/>
<path d="M63.6542 148.573H69.3689V142.859H63.6542V148.573Z" fill="#231F20"/>
<path d="M103.654 108.572H109.369V102.857H103.654V108.572Z" fill="#231F20"/>
<path d="M97.9432 102.857H103.657V97.1426H97.9434L97.9432 102.857Z" fill="#231F20"/>
<path d="M92.2286 102.857L97.9432 102.857L97.9434 97.1426H92.2285L92.2286 102.857Z" fill="#73C9F1"/>
<path d="M75.084 154.287H80.7973V148.572H75.084V154.287Z" fill="#231F20"/>
<path d="M69.3689 148.573L69.3691 154.287H75.084V148.572L69.3689 148.573Z" fill="#231F20"/>
<path d="M103.654 148.573H109.369V142.859H103.654V148.573Z" fill="#147FAF"/>
<path d="M97.9434 154.287H103.657L103.657 148.573H97.9433L97.9434 154.287Z" fill="#231F20"/>
<path d="M103.654 154.287H109.369L109.369 148.573H103.654L103.654 154.287Z" fill="#30A5D9"/>
<path d="M92.2285 154.287H97.9418V148.572H92.2285V154.287Z" fill="#BFEAFB"/>
<path d="M86.5135 154.287H92.2285V148.572H86.5135V154.287Z" fill="#73C9F1"/>
<path d="M92.2285 148.572H97.9418L97.9417 142.859H92.2285L92.2285 148.572Z" fill="#231F20"/>
<path d="M69.3691 131.43H75.0824V125.715H69.3691V131.43Z" fill="#73C9F1"/>
<path d="M69.3691 125.715H75.0824L75.0824 120.002H69.3691L69.3691 125.715Z" fill="#73C9F1"/>
<path d="M86.5135 102.857H92.2286L92.2285 97.1426L86.5139 97.1427L86.5135 102.857Z" fill="#73C9F1"/>
<path d="M69.3691 120.002H75.0824V114.287H69.3691V120.002Z" fill="#73C9F1"/>
<path d="M69.3691 137.143H75.0824L75.0824 131.43H69.3691L69.3691 137.143Z" fill="#73C9F1"/>
<path d="M80.7988 120.002H86.5135V114.287H80.7988V120.002Z" fill="#73C9F1"/>
<path d="M86.5139 142.859L92.2285 142.859L92.2285 137.143H86.5138L86.5139 142.859Z" fill="#73C9F1"/>
<path d="M92.2285 142.859H97.9417L97.9418 137.143L92.2285 137.143L92.2285 142.859Z" fill="#231F20"/>
<path d="M80.7988 142.859H86.5139L86.5138 137.143L80.7988 137.143V142.859Z" fill="#30A5D9"/>
<path d="M75.084 142.859H80.7973V137.143H75.084V142.859Z" fill="#231F20"/>
<path d="M75.084 137.143H80.7973L80.7972 131.43H75.0839L75.084 137.143Z" fill="#30A5D9"/>
<path d="M80.7988 131.429L86.5138 131.43L86.5135 125.715H80.7988V131.429Z" fill="#30A5D9"/>
<path d="M75.0839 131.43H80.7972L80.7973 125.715H75.084L75.0839 131.43Z" fill="#73C9F1"/>
<path d="M75.084 125.715H80.7973L80.7972 120.002H75.0839L75.084 125.715Z" fill="#73C9F1"/>
<path d="M80.7988 125.715H86.5135L86.5135 120.002H80.7988L80.7988 125.715Z" fill="#73C9F1"/>
<path d="M86.5135 120.002H92.2285V114.287H86.5135V120.002Z" fill="#73C9F1"/>
<path d="M86.5138 131.43H92.2285L92.2286 125.715H86.5135L86.5138 131.43Z" fill="#30A5D9"/>
<path d="M80.7988 137.143L86.5138 137.143V131.43L80.7988 131.429V137.143Z" fill="#231F20"/>
<path d="M86.5135 125.715H92.2286L92.2285 120.002H86.5135L86.5135 125.715Z" fill="#30A5D9"/>
<path d="M103.654 182.858H109.369L109.369 177.144H103.654V182.858Z" fill="#73C9F1"/>
<path d="M75.0839 120.002H80.7972V114.287H75.0839V120.002Z" fill="#73C9F1"/>
<path d="M63.6542 137.143H69.3691L69.3691 131.43L63.6542 131.43V137.143Z" fill="#73C9F1"/>
<path d="M69.3689 142.859L75.0824 142.859L75.0824 137.143H69.3691L69.3689 142.859Z" fill="#30A5D9"/>
<path d="M63.6542 142.859H69.3689L69.3691 137.143H63.6542V142.859Z" fill="#30A5D9"/>
<path d="M63.6542 131.43L69.3691 131.43V125.715H63.6543L63.6542 131.43Z" fill="#73C9F1"/>
<path d="M63.6543 125.715H69.3691L69.3691 120.002H63.6542L63.6543 125.715Z" fill="#73C9F1"/>
<path d="M69.3689 148.573H75.0824L75.0824 142.859L69.3689 142.859V148.573Z" fill="#231F20"/>
<path d="M80.7988 148.572H86.5135L86.5139 142.859H80.7988V148.572Z" fill="#73C9F1"/>
<path d="M86.5135 148.572H92.2285L92.2285 142.859L86.5139 142.859L86.5135 148.572Z" fill="#BFEAFB"/>
<path d="M63.6542 120.002H69.3691V114.287H63.6542V120.002Z" fill="#73C9F1"/>
<path d="M75.084 148.572H80.7973V142.859H75.084V148.572Z" fill="#30A5D9"/>
<path d="M80.7988 114.285H86.5135V108.572H80.7988V114.285Z" fill="#73C9F1"/>
<path d="M92.2285 114.286H97.9434L97.9432 108.572L92.2286 108.572L92.2285 114.286Z" fill="#73C9F1"/>
<path d="M92.2286 125.715L97.9417 125.715V120.002L92.2285 120.002L92.2286 125.715Z" fill="#231F20"/>
<path d="M92.2285 120.002L97.9417 120.002V114.287H92.2285V120.002Z" fill="#30A5D9"/>
<path d="M92.2285 131.43L97.9418 131.43L97.9417 125.715L92.2286 125.715L92.2285 131.43Z" fill="#30A5D9"/>
<path d="M75.084 114.286H80.7973V108.572H75.084V114.286Z" fill="#73C9F1"/>
<path d="M69.3691 114.286H75.0824V108.572H69.369L69.3691 114.286Z" fill="#73C9F1"/>
<path d="M63.6543 114.286H69.3691L69.369 108.572H63.6543V114.286Z" fill="#73C9F1"/>
<path d="M86.5135 114.285L92.2285 114.286L92.2286 108.572H86.5135V114.285Z" fill="#73C9F1"/>
<path d="M92.2285 137.143L97.9418 137.143V131.43L92.2285 131.43V137.143Z" fill="#73C9F1"/>
<path d="M103.654 142.859H109.369V137.143H103.654V142.859Z" fill="#231F20"/>
<path d="M46.5135 148.573H52.2285V142.859H46.5135V148.573Z" fill="white"/>
<path d="M46.5135 142.859H52.2285L52.2286 137.143L46.5135 137.143V142.859Z" fill="white"/>
<path d="M46.5135 154.287H52.2284L52.2285 148.573H46.5135L46.5135 154.287Z" fill="#E7E3E2"/>
<path d="M46.5135 137.143L52.2286 137.143L52.2285 131.43L46.5135 131.429L46.5135 137.143Z" fill="#231F20"/>
<path d="M46.5135 131.429L52.2285 131.43L52.2286 125.715L46.5135 125.715L46.5135 131.429Z" fill="#73C9F1"/>
<path d="M46.5135 160H52.2285L52.2284 154.287H46.5135L46.5135 160Z" fill="#231F20"/>
<path d="M46.5135 125.715L52.2286 125.715L52.2285 120.002H46.5135V125.715Z" fill="#30A5D9"/>
<path d="M57.9433 165.717H63.658L63.6581 160H57.9434L57.9433 165.717Z" fill="#231F20"/>
<path d="M57.9434 97.1424H63.6581V91.4277H57.9434V97.1424Z" fill="#231F20"/>
<path d="M63.6542 165.717H69.3689L69.369 160H63.6543L63.6542 165.717Z" fill="#BFEAFB"/>
<path d="M63.6543 97.1424H69.369V91.4277H63.6543V97.1424Z" fill="#73C9F1"/>
<path d="M69.369 97.1424H75.0824V91.4277H69.369V97.1424Z" fill="#73C9F1"/>
<path d="M52.2285 97.1424H57.9418V91.4277H52.2285V97.1424Z" fill="#73C9F1"/>
<path d="M46.5135 102.857H52.2286L52.2285 97.1424L46.5135 97.1426V102.857Z" fill="#73C9F1"/>
<path d="M46.5135 97.1426L52.2285 97.1424V91.4277L46.5135 91.428V97.1426Z" fill="#73C9F1"/>
<path d="M46.5135 108.572L52.2286 108.572V102.857H46.5135V108.572Z" fill="#231F20"/>
<path d="M46.5135 114.285H52.2286V108.572L46.5135 108.572V114.285Z" fill="#F35C7D"/>
<path d="M46.5135 120.002H52.2285V114.287H46.5135V120.002Z" fill="#231F20"/>
<path d="M69.369 160L69.3689 165.717L75.0838 165.715V160H69.369Z" fill="#73C9F1"/>
<path d="M115.084 131.43L120.799 131.43L120.799 125.715L115.084 125.715V131.43Z" fill="#231F20"/>
<path d="M115.084 125.715L120.799 125.715L120.799 120.002L115.084 120.002L115.084 125.715Z" fill="#73C9F1"/>
<path d="M115.084 137.143L120.799 137.143L120.799 131.43L115.084 131.43L115.084 137.143Z" fill="#BFEAFB"/>
<path d="M115.084 142.859L120.799 142.859L120.799 137.143L115.084 137.143L115.084 142.859Z" fill="#73C9F1"/>
<path d="M75.084 97.1424H80.7973V91.4277H75.084V97.1424Z" fill="#73C9F1"/>
<path d="M115.084 114.286H120.799V108.572H115.084V114.286Z" fill="#231F20"/>
<path d="M115.084 120.002L120.799 120.002V114.287H115.084V120.002Z" fill="#BFEAFB"/>
<path d="M115.084 154.287H120.799L120.799 148.573L115.084 148.572V154.287Z" fill="#73C9F1"/>
<path d="M115.084 148.572L120.799 148.573V142.859L115.084 142.859V148.572Z" fill="#73C9F1"/>
<path d="M86.5139 165.715H92.2286V160H86.5139V165.715Z" fill="#231F20"/>
<path d="M80.7988 165.715H86.5139V160H80.7988V165.715Z" fill="#30A5D9"/>
<path d="M92.2286 165.715L97.9418 165.715V160L92.2286 160V165.715Z" fill="#231F20"/>
<path d="M115.084 160H120.799L120.799 154.287H115.084L115.084 160Z" fill="#231F20"/>
<path d="M75.0838 165.715H80.7973V160H75.0838V165.715Z" fill="#73C9F1"/>
<path d="M109.369 165.715H115.084L115.084 160L109.369 160V165.715Z" fill="#73C9F1"/>
<path d="M115.084 165.715L120.799 165.715L120.799 160H115.084L115.084 165.715Z" fill="#30A5D9"/>
<path d="M97.9434 165.715H103.657V160H97.9434V165.715Z" fill="#30A5D9"/>
<path d="M103.654 165.715H109.369V160H103.654V165.715Z" fill="#73C9F1"/>
<path d="M52.2285 148.573H57.9417V142.859H52.2285V148.573Z" fill="#231F20"/>
<path d="M80.7988 97.1426L86.5139 97.1427L86.5135 91.428H80.7988V97.1426Z" fill="#73C9F1"/>
<path d="M80.7988 102.857H86.5135L86.5139 97.1427L80.7988 97.1426V102.857Z" fill="#73C9F1"/>
<path d="M52.2285 142.859H57.9417L57.9418 137.143L52.2286 137.143L52.2285 142.859Z" fill="#231F20"/>
<path d="M52.2286 137.143L57.9418 137.143L57.9417 131.43H52.2285L52.2286 137.143Z" fill="#73C9F1"/>
<path d="M63.6543 160H69.369L69.3691 154.287L63.6542 154.287L63.6543 160Z" fill="#231F20"/>
<path d="M69.3691 154.287L69.369 160H75.0838L75.084 154.287H69.3691Z" fill="#BFEAFB"/>
<path d="M75.0838 160H80.7973V154.287H75.084L75.0838 160Z" fill="#30A5D9"/>
<path d="M52.2285 131.43H57.9417L57.9418 125.715L52.2286 125.715L52.2285 131.43Z" fill="#73C9F1"/>
<path d="M52.2285 120.002L57.9417 120.002V114.287H52.2285V120.002Z" fill="#30A5D9"/>
<path d="M52.2286 125.715L57.9418 125.715L57.9417 120.002L52.2285 120.002L52.2286 125.715Z" fill="#73C9F1"/>
<path d="M63.6543 102.857H69.369V97.1424H63.6543V102.857Z" fill="#BFEAFB"/>
<path d="M69.369 102.857H75.0824V97.1424H69.369V102.857Z" fill="#73C9F1"/>
<path d="M75.084 102.857H80.7973V97.1424H75.084V102.857Z" fill="#73C9F1"/>
<path d="M57.9434 102.857H63.6581V97.1424H57.9434V102.857Z" fill="#BFEAFB"/>
<path d="M52.2286 114.285L57.9418 114.286V108.572L52.2286 108.572V114.285Z" fill="#231F20"/>
<path d="M80.7988 160H86.5139L86.5135 154.287H80.7988V160Z" fill="#231F20"/>
<path d="M52.2286 102.857L57.9418 102.857V97.1424H52.2285L52.2286 102.857Z" fill="#73C9F1"/>
<path d="M52.2286 108.572L57.9418 108.572V102.857L52.2286 102.857V108.572Z" fill="#73C9F1"/>
<path d="M52.2284 154.287H57.9418L57.9417 148.573H52.2285L52.2284 154.287Z" fill="#231F20"/>
<path d="M109.369 120.002H115.084V114.287H109.369V120.002Z" fill="#73C9F1"/>
<path d="M109.369 114.286H115.084V108.572H109.369V114.286Z" fill="#231F20"/>
<path d="M86.5139 160H92.2286L92.2285 154.287H86.5135L86.5139 160Z" fill="#73C9F1"/>
<path d="M86.5139 97.1427L92.2285 97.1426L92.2286 91.428H86.5135L86.5139 97.1427Z" fill="#73C9F1"/>
<path d="M92.2285 97.1426H97.9434L97.9432 91.4277L92.2286 91.428L92.2285 97.1426Z" fill="#73C9F1"/>
<path d="M97.9434 97.1426H103.657V91.4277H97.9432L97.9434 97.1426Z" fill="#231F20"/>
<path d="M109.369 125.715L115.084 125.715L115.084 120.002H109.369V125.715Z" fill="#73C9F1"/>
<path d="M103.654 160H109.369L109.369 154.287H103.654V160Z" fill="#73C9F1"/>
<path d="M97.9434 160H103.657V154.287H97.9434V160Z" fill="#231F20"/>
<path d="M109.369 160L115.084 160L115.084 154.287H109.369L109.369 160Z" fill="#30A5D9"/>
<path d="M109.369 131.43L115.084 131.43V125.715L109.369 125.715V131.43Z" fill="#231F20"/>
<path d="M92.2286 160L97.9418 160V154.287H92.2285L92.2286 160Z" fill="#73C9F1"/>
<path d="M109.369 142.859L115.084 142.859L115.084 137.143H109.369V142.859Z" fill="#73C9F1"/>
<path d="M109.369 154.287H115.084V148.572L109.369 148.573L109.369 154.287Z" fill="#231F20"/>
<path d="M109.369 137.143H115.084L115.084 131.43L109.369 131.43V137.143Z" fill="#73C9F1"/>
<path d="M109.369 148.573L115.084 148.572V142.859L109.369 142.859V148.573Z" fill="#231F20"/>
<path d="M97.9433 200H103.657V194.287H97.9433V200Z" fill="#231F20"/>
<path d="M12.2285 137.143H17.9431V131.43H12.2285V137.143Z" fill="#231F20"/>
<path d="M12.2285 125.715H17.9431V120.002H12.2285V125.715Z" fill="#73C9F1"/>
<path d="M12.2285 120.002H17.9431V114.287H12.2285V120.002Z" fill="#73C9F1"/>
<path d="M12.2285 114.286H17.9432V108.572H12.2285V114.286Z" fill="#73C9F1"/>
<path d="M12.2285 108.572H17.9432V102.857H12.2285V108.572Z" fill="#BFEAFB"/>
<path d="M12.2285 131.43H17.9431V125.715H12.2285V131.43Z" fill="#30A5D9"/>
<path d="M12.2285 102.857H17.9432V97.1426H12.2285V102.857Z" fill="#231F20"/>
<path d="M57.9433 200H63.658V194.287H57.9433V200Z" fill="#231F20"/>
<path d="M46.5138 200H52.2285V194.287H46.5138V200Z" fill="#231F20"/>
<path d="M40.7988 200H46.5138V194.287H40.7988V200Z" fill="#231F20"/>
<path d="M52.2285 200H57.9417V194.287H52.2285V200Z" fill="#231F20"/>
<path d="M69.3691 200H75.0824V194.287H69.3691V200Z" fill="#231F20"/>
<path d="M86.5138 200H92.2285V194.287H86.5138V200Z" fill="#231F20"/>
<path d="M75.0839 200H80.7972V194.287H75.0839V200Z" fill="#231F20"/>
<path d="M92.2285 200H97.9417V194.287H92.2285V200Z" fill="#231F20"/>
<path d="M80.7988 200H86.5138V194.287H80.7988V200Z" fill="#231F20"/>
<path d="M63.6542 200H69.3691V194.287H63.6542V200Z" fill="#231F20"/>
<path d="M35.0837 200H40.7988V194.287H35.0837V200Z" fill="#231F20"/>
<path d="M143.654 177.144H149.369V171.43H143.654V177.144Z" fill="#30A5D9"/>
<path d="M143.654 171.43H149.369L149.369 165.715H143.654L143.654 171.43Z" fill="#73C9F1"/>
<path d="M143.654 165.715H149.369V160H143.654V165.715Z" fill="#BFEAFB"/>
<path d="M143.654 182.858H149.369V177.144H143.654V182.858Z" fill="#231F20"/>
<path d="M109.369 182.858H115.084L115.084 177.144H109.369L109.369 182.858Z" fill="#73C9F1"/>
<path d="M143.654 148.573H149.369V142.859H143.654V148.573Z" fill="#231F20"/>
<path d="M143.654 160H149.369L149.369 154.287H143.654L143.654 160Z" fill="#231F20"/>
<path d="M69.3691 62.8573H75.0824V57.1426H69.3691V62.8573Z" fill="#231F20"/>
<path d="M80.7988 62.8573H86.5135V57.1426H80.7988V62.8573Z" fill="#73C9F1"/>
<path d="M86.5135 62.8573H92.2286V57.1426H86.5135V62.8573Z" fill="#231F20"/>
<path d="M75.084 62.8573L80.7988 62.8573V57.1426L75.084 57.1426V62.8573Z" fill="#73C9F1"/>
<path d="M46.5139 62.8573H52.2286V57.1426H46.5139V62.8573Z" fill="#231F20"/>
<path d="M57.9434 62.8573H63.6581V57.1426H57.9434V62.8573Z" fill="#231F20"/>
<path d="M52.2286 62.8573L57.9418 62.8573V57.1426L52.2286 57.1426V62.8573Z" fill="#73C9F1"/>
<path d="M103.654 200H109.369V194.287H103.654V200Z" fill="#231F20"/>
<path d="M75.084 57.1426L80.7972 57.143L80.7973 51.4295H75.084V57.1426Z" fill="#73C9F1"/>
<path d="M80.7988 57.1426H86.5135V51.4293H80.7988V57.1426Z" fill="#73C9F1"/>
<path d="M86.5135 57.1426H92.2286V51.4293H86.5135V57.1426Z" fill="#231F20"/>
<path d="M69.3691 57.1426H75.084V51.4295H69.3691V57.1426Z" fill="#231F20"/>
<path d="M46.5139 57.1426H52.2286V51.4293H46.5139V57.1426Z" fill="#231F20"/>
<path d="M52.2286 57.1426L57.9434 57.1426V51.4295L52.2286 51.4293V57.1426Z" fill="#73C9F1"/>
<path d="M57.9434 57.1426H63.6581V51.4295H57.9434V57.1426Z" fill="#231F20"/>
<path d="M143.654 188.572H149.369L149.369 182.858H143.654L143.654 188.572Z" fill="#F89A8D"/>
<path d="M6.51388 108.572H12.2271V102.857H6.51388V108.572Z" fill="#231F20"/>
<path d="M6.51388 114.285H12.2271V108.572H6.51388V114.285Z" fill="#231F20"/>
<path d="M6.51379 125.715H12.2271V120.002H6.51379V125.715Z" fill="#231F20"/>
<path d="M6.51388 131.429H12.2271L12.2271 125.715H6.51379L6.51388 131.429Z" fill="#231F20"/>
<path d="M6.51379 120.002H12.2271V114.287H6.51379V120.002Z" fill="#231F20"/>
<path d="M149.369 165.715H155.084L155.084 160L149.369 160V165.715Z" fill="#231F20"/>
<path d="M149.369 160L155.084 160L155.084 154.287L149.369 154.287L149.369 160Z" fill="#30A5D9"/>
<path d="M149.369 171.43L155.084 171.43V165.715H149.369L149.369 171.43Z" fill="#231F20"/>
<path d="M149.369 182.858H155.084V177.144H149.369V182.858Z" fill="#231F20"/>
<path d="M149.369 177.144H155.084L155.084 171.43L149.369 171.43V177.144Z" fill="#231F20"/>
<path d="M149.369 188.572L155.084 188.572L155.084 182.858H149.369L149.369 188.572Z" fill="#F89A8D"/>
<path d="M149.369 142.859L155.084 142.859V137.143H149.369L149.369 142.859Z" fill="#231F20"/>
<path d="M149.369 154.287L155.084 154.287V148.572L149.369 148.573V154.287Z" fill="#73C9F1"/>
<path d="M149.369 148.573L155.084 148.572V142.859L149.369 142.859V148.573Z" fill="#BFEAFB"/>
<path d="M126.514 200H132.228V194.287H126.514V200Z" fill="#231F20"/>
<path d="M115.084 200H120.799V194.287H115.084V200Z" fill="#231F20"/>
<path d="M120.799 200H126.514V194.287H120.799V200Z" fill="#231F20"/>
<path d="M149.369 194.287L155.084 194.287L155.084 188.572L149.369 188.572L149.369 194.287Z" fill="#231F20"/>
<path d="M109.369 200H115.084V194.287H109.369V200Z" fill="#231F20"/>
<path d="M149.369 200H155.084V194.287L149.369 194.287L149.369 200Z" fill="#231F20"/>
<path d="M143.654 200H149.369L149.369 194.287L143.654 194.287V200Z" fill="#231F20"/>
<path d="M137.943 200H143.657V194.287H137.943V200Z" fill="#231F20"/>
<path d="M132.228 200H137.943V194.287H132.228V200Z" fill="#231F20"/>
<path d="M143.654 154.287H149.369V148.573H143.654V154.287Z" fill="#231F20"/>
<path d="M23.6542 137.143H29.3691L29.3691 131.43L23.6542 131.43V137.143Z" fill="#73C9F1"/>
<path d="M23.6542 148.573L29.3691 148.572L29.3691 142.859H23.6542V148.573Z" fill="#231F20"/>
<path d="M23.6542 142.859H29.3691V137.143H23.6542V142.859Z" fill="#30A5D9"/>
<path d="M23.6543 97.1424L29.3691 97.1426V91.4277H23.6543V97.1424Z" fill="#BFEAFB"/>
<path d="M23.6543 91.4295H29.3691V85.7148H23.6543V91.4295Z" fill="#231F20"/>
<path d="M23.6543 102.857H29.3691V97.1426L23.6543 97.1424V102.857Z" fill="#73C9F1"/>
<path d="M23.6542 125.715L29.3691 125.715L29.3691 120.002H23.6542V125.715Z" fill="#73C9F1"/>
<path d="M23.6542 120.002H29.3691V114.287H23.6542V120.002Z" fill="#30A5D9"/>
<path d="M23.6543 108.572H29.3691V102.857H23.6543V108.572Z" fill="#73C9F1"/>
<path d="M23.6542 131.43L29.3691 131.43V125.715L23.6542 125.715V131.43Z" fill="#73C9F1"/>
<path d="M23.6543 114.286H29.3691V108.572H23.6543V114.286Z" fill="#231F20"/>
<path d="M35.0838 188.572H40.7985L40.7988 182.858L35.0838 182.857V188.572Z" fill="#231F20"/>
<path d="M115.084 188.572H120.799V182.857L115.084 182.858L115.084 188.572Z" fill="#147FAF"/>
<path d="M109.369 188.572H115.084L115.084 182.858H109.369L109.369 188.572Z" fill="#30A5D9"/>
<path d="M103.654 188.572H109.369L109.369 182.858H103.654L103.654 188.572Z" fill="#30A5D9"/>
<path d="M120.799 188.572L126.514 188.572V182.857L120.799 182.857V188.572Z" fill="#231F20"/>
<path d="M97.9434 188.572H103.657L103.657 182.858H97.9433L97.9434 188.572Z" fill="#30A5D9"/>
<path d="M137.943 182.858H143.657V177.145H137.943V182.858Z" fill="#231F20"/>
<path d="M92.2285 188.572H97.9418L97.9417 182.858H92.2285L92.2285 188.572Z" fill="#30A5D9"/>
<path d="M137.943 188.572H143.657L143.657 182.858H137.943L137.943 188.572Z" fill="#F89A8D"/>
<path d="M132.229 188.572H137.943L137.943 182.858L132.229 182.857V188.572Z" fill="#F89A8D"/>
<path d="M126.514 188.572L132.229 188.572V182.857L126.514 182.857V188.572Z" fill="#231F20"/>
<path d="M52.2285 188.572H57.9418L57.9417 182.858H52.2285L52.2285 188.572Z" fill="#F89A8D"/>
<path d="M46.5139 188.572L52.2285 188.572L52.2285 182.858H46.5138L46.5139 188.572Z" fill="#F89A8D"/>
<path d="M40.7985 188.572H46.5139L46.5138 182.858H40.7988L40.7985 188.572Z" fill="#F89A8D"/>
<path d="M57.9434 188.572H63.6581L63.658 182.858H57.9433L57.9434 188.572Z" fill="#F89A8D"/>
<path d="M69.3691 188.572H75.0824V182.857L69.3691 182.858L69.3691 188.572Z" fill="#231F20"/>
<path d="M75.084 188.572H80.7973L80.7972 182.858H75.0838L75.084 188.572Z" fill="#231F20"/>
<path d="M80.7988 188.572H86.5135L86.5135 182.858H80.7988L80.7988 188.572Z" fill="#147FAF"/>
<path d="M63.6543 188.572H69.3691L69.3691 182.858H63.6542L63.6543 188.572Z" fill="#F89A8D"/>
<path d="M86.5135 188.572L92.2285 188.572L92.2285 182.858H86.5135L86.5135 188.572Z" fill="#30A5D9"/>
<path d="M137.943 177.145H143.657V171.43H137.943V177.145Z" fill="#30A5D9"/>
<path d="M132.228 131.43L137.943 131.43V125.715L132.229 125.715L132.228 131.43Z" fill="#231F20"/>
<path d="M132.229 137.143L137.943 137.143L137.943 131.43L132.228 131.43L132.229 137.143Z" fill="#231F20"/>
<path d="M132.228 148.573H137.943V142.859H132.228V148.573Z" fill="#73C9F1"/>
<path d="M132.228 142.859H137.943V137.143L132.229 137.143L132.228 142.859Z" fill="#BFEAFB"/>
<path d="M126.514 182.857L132.229 182.857L132.228 177.144H126.514L126.514 182.857Z" fill="#30A5D9"/>
<path d="M120.799 182.857L126.514 182.857L126.514 177.144H120.799L120.799 182.857Z" fill="#231F20"/>
<path d="M132.229 182.857L137.943 182.858V177.145L132.228 177.144L132.229 182.857Z" fill="#231F20"/>
<path d="M115.084 182.858L120.799 182.857L120.799 177.144H115.084L115.084 182.858Z" fill="#30A5D9"/>
<path d="M143.654 194.287L149.369 194.287L149.369 188.572H143.654L143.654 194.287Z" fill="#E0776A"/>
<path d="M132.229 160L137.943 160V154.287H132.228L132.229 160Z" fill="#73C9F1"/>
<path d="M132.229 165.715L137.943 165.715L137.943 160L132.229 160V165.715Z" fill="#73C9F1"/>
<path d="M132.228 177.144L137.943 177.145V171.43H132.228V177.144Z" fill="#30A5D9"/>
<path d="M132.228 154.287H137.943V148.573H132.228V154.287Z" fill="#73C9F1"/>
<path d="M63.6542 74.2871H69.3689L69.369 68.5723H63.6543L63.6542 74.2871Z" fill="#BFEAFB"/>
<path d="M57.9433 74.2871H63.658L63.6581 68.5723H57.9434L57.9433 74.2871Z" fill="#BFEAFB"/>
<path d="M69.3689 74.2871H75.0824L75.0824 68.5723H69.369L69.3689 74.2871Z" fill="#BFEAFB"/>
<path d="M86.5135 74.2871H92.2269L92.2269 68.5723H86.5137L86.5135 74.2871Z" fill="#231F20"/>
<path d="M80.7988 74.2871H86.5135L86.5137 68.5723L80.7988 68.572L80.7988 74.2871Z" fill="#73C9F1"/>
<path d="M75.0839 74.2871H80.7972L80.7973 68.5723H75.084L75.0839 74.2871Z" fill="#73C9F1"/>
<path d="M40.7984 74.2871H46.5138L46.5135 68.572H40.7988L40.7984 74.2871Z" fill="#231F20"/>
<path d="M52.2285 74.2871H57.9417L57.9418 68.5723H52.2285L52.2285 74.2871Z" fill="#BFEAFB"/>
<path d="M46.5138 74.2871H52.2285L52.2285 68.5723L46.5135 68.572L46.5138 74.2871Z" fill="#BFEAFB"/>
<path d="M132.228 171.43H137.943L137.943 165.715L132.229 165.715L132.228 171.43Z" fill="#73C9F1"/>
<path d="M17.9434 142.859H23.6581V137.143L17.9431 137.143L17.9434 142.859Z" fill="#231F20"/>
<path d="M17.9431 137.143L23.6581 137.143L23.658 131.43H17.9431V137.143Z" fill="#30A5D9"/>
<path d="M17.9432 108.572L23.6581 108.572V102.857H17.9432V108.572Z" fill="#73C9F1"/>
<path d="M17.9432 97.1426L23.6581 97.1424V91.4277H17.9434L17.9432 97.1426Z" fill="#231F20"/>
<path d="M17.9432 102.857H23.6581V97.1424L17.9432 97.1426V102.857Z" fill="#BFEAFB"/>
<path d="M17.9431 125.715H23.658V120.002H17.9431V125.715Z" fill="#73C9F1"/>
<path d="M17.9432 114.286H23.6581V108.572L17.9432 108.572V114.286Z" fill="#73C9F1"/>
<path d="M17.9431 131.43H23.658V125.715H17.9431V131.43Z" fill="#73C9F1"/>
<path d="M17.9431 120.002H23.658V114.287H17.9431V120.002Z" fill="#73C9F1"/>
<path d="M115.084 194.287H120.799L120.799 188.572H115.084L115.084 194.287Z" fill="#231F20"/>
<path d="M103.654 194.287H109.369L109.369 188.572H103.654L103.654 194.287Z" fill="#147FAF"/>
<path d="M109.369 194.287H115.084L115.084 188.572H109.369L109.369 194.287Z" fill="#147FAF"/>
<path d="M97.9433 194.287H103.657L103.657 188.572H97.9434L97.9433 194.287Z" fill="#147FAF"/>
<path d="M92.2285 194.287H97.9417L97.9418 188.572H92.2285L92.2285 194.287Z" fill="#147FAF"/>
<path d="M132.228 194.287H137.943L137.943 188.572H132.229L132.228 194.287Z" fill="#E0776A"/>
<path d="M137.943 194.287H143.657L143.657 188.572H137.943L137.943 194.287Z" fill="#E0776A"/>
<path d="M86.5138 194.287H92.2285L92.2285 188.572L86.5135 188.572L86.5138 194.287Z" fill="#147FAF"/>
<path d="M126.514 194.287H132.228L132.229 188.572L126.514 188.572L126.514 194.287Z" fill="#E0776A"/>
<path d="M120.799 194.287H126.514L126.514 188.572L120.799 188.572L120.799 194.287Z" fill="#E0776A"/>
<path d="M57.9433 194.287H63.658L63.6581 188.572H57.9434L57.9433 194.287Z" fill="#231F20"/>
<path d="M40.7988 194.287H46.5138L46.5139 188.572H40.7985L40.7988 194.287Z" fill="#E0776A"/>
<path d="M52.2285 194.287H57.9417L57.9418 188.572H52.2285L52.2285 194.287Z" fill="#E0776A"/>
<path d="M46.5138 194.287H52.2285L52.2285 188.572L46.5139 188.572L46.5138 194.287Z" fill="#231F20"/>
<path d="M35.0837 194.287H40.7988L40.7985 188.572H35.0838L35.0837 194.287Z" fill="#231F20"/>
<path d="M75.0839 194.287H80.7972L80.7973 188.572H75.084L75.0839 194.287Z" fill="#E0776A"/>
<path d="M69.3691 194.287H75.0824L75.0824 188.572H69.3691L69.3691 194.287Z" fill="#E0776A"/>
<path d="M80.7988 194.287H86.5138L86.5135 188.572H80.7988L80.7988 194.287Z" fill="#231F20"/>
<path d="M63.6542 194.287H69.3691L69.3691 188.572H63.6543L63.6542 194.287Z" fill="#E0776A"/>
<path d="M137.943 148.573H143.657V142.859H137.943V148.573Z" fill="#BFEAFB"/>
<path d="M137.943 160H143.657V154.287H137.943V160Z" fill="#73C9F1"/>
<path d="M137.943 154.287H143.657V148.573H137.943V154.287Z" fill="#73C9F1"/>
<path d="M137.943 165.715H143.657L143.657 160H137.943L137.943 165.715Z" fill="#73C9F1"/>
<path d="M137.943 142.859H143.657L143.657 137.143L137.943 137.143V142.859Z" fill="#231F20"/>
<path d="M69.369 68.5723H75.0824V62.8573H69.3691L69.369 68.5723Z" fill="#231F20"/>
<path d="M46.5135 68.572L52.2285 68.5723L52.2286 62.8573H46.5139L46.5135 68.572Z" fill="#231F20"/>
<path d="M52.2285 68.5723H57.9418V62.8573L52.2286 62.8573L52.2285 68.5723Z" fill="#73C9F1"/>
<path d="M57.9434 68.5723H63.6581V62.8573H57.9434V68.5723Z" fill="#231F20"/>
<path d="M63.6543 68.5723H69.369L69.3691 62.8573L63.6543 62.8574V68.5723Z" fill="#231F20"/>
<path d="M137.943 171.43H143.657L143.657 165.715H137.943L137.943 171.43Z" fill="#73C9F1"/>
<path d="M75.084 68.5723H80.7973V62.8574L75.084 62.8573V68.5723Z" fill="#73C9F1"/>
<path d="M80.7988 68.572L86.5137 68.5723L86.5135 62.8573H80.7988V68.572Z" fill="#73C9F1"/>
<path d="M86.5137 68.5723L92.2286 68.5721V62.8573H86.5135L86.5137 68.5723Z" fill="#231F20"/>
<path d="M103.654 17.143H109.369V11.4297H103.654V17.143Z" fill="#F35C7D"/>
<path d="M115.084 17.143H120.799V11.4297H115.084V17.143Z" fill="#73C9F1"/>
<path d="M109.369 17.143H115.084V11.4297H109.369V17.143Z" fill="#F35C7D"/>
<path d="M120.799 17.143H126.513V11.4297H120.799V17.143Z" fill="#231F20"/>
<path d="M86.5138 17.143H92.2285V11.4297H86.5138V17.143Z" fill="#BFEAFB"/>
<path d="M97.9433 17.143H103.657V11.4297H97.9433V17.143Z" fill="#73C9F1"/>
<path d="M80.7988 17.143H86.5138V11.4297H80.7988V17.143Z" fill="#231F20"/>
<path d="M92.2285 17.143H97.9417V11.4297H92.2285V17.143Z" fill="#73C9F1"/>
<path d="M6.51379 17.143H12.2271V11.4297H6.51379V17.143Z" fill="#231F20"/>
<path d="M12.2285 17.143H17.9431V11.4297H12.2285V17.143Z" fill="#BFEAFB"/>
<path d="M35.0837 17.143H40.7984V11.4297H35.0837V17.143Z" fill="#BFEAFB"/>
<path d="M29.3691 17.143H35.0823V11.4297H29.3691V17.143Z" fill="#BFEAFB"/>
<path d="M40.7984 17.143H46.5135V11.4297H40.7984V17.143Z" fill="#231F20"/>
<path d="M23.6542 17.143H29.3691V11.4297H23.6542V17.143Z" fill="#BFEAFB"/>
<path d="M17.9431 17.143H23.658V11.4297H17.9431V17.143Z" fill="#BFEAFB"/>
<path d="M17.9432 22.8574H23.6581L23.658 17.143H17.9431L17.9432 22.8574Z" fill="#73C9F1"/>
<path d="M23.6543 22.8574H29.3691L29.3691 17.143H23.6542L23.6543 22.8574Z" fill="#73C9F1"/>
<path d="M12.2285 22.8574H17.9432L17.9431 17.143H12.2285L12.2285 22.8574Z" fill="#73C9F1"/>
<path d="M35.0838 22.8574H40.7985L40.7984 17.143H35.0837L35.0838 22.8574Z" fill="#73C9F1"/>
<path d="M29.3691 22.8574H35.0824L35.0823 17.143H29.3691L29.3691 22.8574Z" fill="#73C9F1"/>
<path d="M6.51352 22.8574H12.2271L12.2271 17.143H6.51379L6.51352 22.8574Z" fill="#BFEAFB"/>
<path d="M0.798828 22.8574H6.51352L6.51379 17.143L0.798828 17.1426V22.8574Z" fill="#231F20"/>
<path d="M40.7985 22.8574H46.5139L46.5135 17.143H40.7984L40.7985 22.8574Z" fill="#BFEAFB"/>
<path d="M80.7988 22.8574H86.5139L86.5138 17.143H80.7988L80.7988 22.8574Z" fill="#BFEAFB"/>
<path d="M46.5139 22.8574L52.2285 22.8574L52.2286 17.1426L46.5135 17.143L46.5139 22.8574Z" fill="#231F20"/>
<path d="M86.5139 22.8574L92.2285 22.8574L92.2285 17.143H86.5138L86.5139 22.8574Z" fill="#73C9F1"/>
<path d="M75.084 22.8574H80.7973V17.1426H75.084V22.8574Z" fill="#231F20"/>
<path d="M97.9434 22.8574H103.657L103.657 17.143H97.9433L97.9434 22.8574Z" fill="#F35C7D"/>
<path d="M92.2285 22.8574H97.9418L97.9417 17.143H92.2285L92.2285 22.8574Z" fill="#73C9F1"/>
<path d="M103.654 22.8574H109.369L109.369 17.143H103.654L103.654 22.8574Z" fill="#F35C7D"/>
<path d="M109.369 22.8574H115.084L115.084 17.143H109.369L109.369 22.8574Z" fill="#73C9F1"/>
<path d="M115.084 22.8574H120.799L120.799 17.143H115.084L115.084 22.8574Z" fill="#30A5D9"/>
<path d="M120.799 22.8574L126.514 22.8573L126.513 17.143H120.799L120.799 22.8574Z" fill="#231F20"/>
<path d="M115.084 5.71469H120.799V0H115.084V5.71469Z" fill="#231F20"/>
<path d="M109.369 5.71469H115.084V0H109.369V5.71469Z" fill="#231F20"/>
<path d="M92.2285 5.71469H97.9418V0H92.2285V5.71469Z" fill="#231F20"/>
<path d="M97.9434 5.71469H103.657V0H97.9434V5.71469Z" fill="#231F20"/>
<path d="M103.654 5.71469H109.369V0H103.654V5.71469Z" fill="#231F20"/>
<path d="M86.5138 11.4297H92.2285L92.2285 5.71469L86.5139 5.71465L86.5138 11.4297Z" fill="#231F20"/>
<path d="M35.0837 11.4297H40.7984L40.7985 5.71465H35.0838L35.0837 11.4297Z" fill="#231F20"/>
<path d="M29.3691 11.4297H35.0823L35.0824 5.71484H29.3691L29.3691 11.4297Z" fill="#231F20"/>
<path d="M120.799 11.4297H126.513L126.514 5.71465L120.799 5.71469L120.799 11.4297Z" fill="#231F20"/>
<path d="M103.654 11.4297H109.369L109.369 5.71469H103.654L103.654 11.4297Z" fill="#BFEAFB"/>
<path d="M97.9433 11.4297H103.657L103.657 5.71469H97.9434L97.9433 11.4297Z" fill="#BFEAFB"/>
<path d="M115.084 11.4297H120.799L120.799 5.71469H115.084L115.084 11.4297Z" fill="#BFEAFB"/>
<path d="M92.2285 11.4297H97.9417L97.9418 5.71469H92.2285L92.2285 11.4297Z" fill="#BFEAFB"/>
<path d="M109.369 11.4297H115.084L115.084 5.71469H109.369L109.369 11.4297Z" fill="#BFEAFB"/>
<path d="M12.2285 11.4297H17.9431L17.9432 5.71484H12.2285L12.2285 11.4297Z" fill="#231F20"/>
<path d="M17.9431 11.4297H23.658L23.6581 5.71484H17.9432L17.9431 11.4297Z" fill="#231F20"/>
<path d="M23.6542 11.4297H29.3691L29.3691 5.71484H23.6543L23.6542 11.4297Z" fill="#231F20"/>
</svg>
