<svg width="189" height="200" viewBox="0 0 189 200" fill="none" xmlns="http://www.w3.org/2000/svg">
<path d="M36.8164 200H42.8774V193.939H36.8164V200Z" fill="#231F20"/>
<path d="M42.875 200H48.936V193.939H42.875V200Z" fill="#231F20"/>
<path d="M133.785 200H139.845V193.939H133.785V200Z" fill="#231F20"/>
<path d="M127.723 200H133.784V193.939H127.723V200Z" fill="#231F20"/>
<path d="M139.845 200H145.905V193.939H139.845V200Z" fill="#231F20"/>
<path d="M48.9375 200H54.997V193.939H48.9375V200Z" fill="#231F20"/>
<path d="M109.543 200H115.604V193.939H109.543V200Z" fill="#231F20"/>
<path d="M121.664 200H127.723V193.939H121.664V200Z" fill="#231F20"/>
<path d="M145.906 200H151.967V193.939H145.906V200Z" fill="#231F20"/>
<path d="M151.965 200H158.026V193.939H151.965V200Z" fill="#231F20"/>
<path d="M115.605 200H121.666V193.939H115.605V200Z" fill="#231F20"/>
<path d="M67.1172 200H73.1767V193.939H67.1172V200Z" fill="#231F20"/>
<path d="M103.484 200H109.545V193.939H103.484V200Z" fill="#231F20"/>
<path d="M61.0587 200H67.1197V193.939H61.0587V200Z" fill="#231F20"/>
<path d="M73.1797 193.939V200H79.2407V193.939H73.1797Z" fill="#231F20"/>
<path d="M54.997 200H61.0571V193.939H54.997V200Z" fill="#231F20"/>
<path d="M79.2383 200H85.2993V193.939H79.2383V200Z" fill="#231F20"/>
<path d="M91.3633 200H97.4243V193.939H91.3633V200Z" fill="#231F20"/>
<path d="M97.4219 200H103.481V193.939H97.4219V200Z" fill="#231F20"/>
<path d="M85.3007 200H91.3616V193.939H85.3007V200Z" fill="#231F20"/>
<path d="M30.7539 18.1821H36.8149V12.1211H30.7539V18.1821Z" fill="#231F20"/>
<path d="M85.3007 18.1821H91.3616V12.1211H85.3007V18.1821Z" fill="#231F20"/>
<path d="M48.9375 18.1821H54.997V12.1211H48.9375V18.1821Z" fill="#A7AED5"/>
<path d="M36.8164 18.1821H42.8774V12.1211H36.8164V18.1821Z" fill="#231F20"/>
<path d="M42.875 18.1821H48.936V12.1211H42.875V18.1821Z" fill="#858AAD"/>
<path d="M103.484 18.1821H109.545V12.1211H103.484V18.1821Z" fill="#231F20"/>
<path d="M127.723 18.1821H133.784V12.1211H127.723V18.1821Z" fill="#A7AED5"/>
<path d="M133.785 18.1821H139.845V12.1211H133.785V18.1821Z" fill="#231F20"/>
<path d="M121.664 18.1821H127.723V12.1211H121.664V18.1821Z" fill="#858AAD"/>
<path d="M91.3633 18.1821H97.4243V12.1211H91.3633V18.1821Z" fill="#A7AED5"/>
<path d="M97.4219 18.1821H103.481V12.1211H97.4219V18.1821Z" fill="#858AAD"/>
<path d="M115.605 18.1821H121.666V12.1211H115.605V18.1821Z" fill="#231F20"/>
<path d="M24.6951 18.1821H30.7539V12.1211H24.6951V18.1821Z" fill="#858AAD"/>
<path d="M109.543 18.1821H115.604V12.1211H109.543V18.1821Z" fill="#231F20"/>
<path d="M54.997 18.1821H61.0571V12.1211H54.997V18.1821Z" fill="#231F20"/>
<path d="M12.5742 18.1821H18.6352V12.1211H12.5742V18.1821Z" fill="#231F20"/>
<path d="M18.6367 18.1821H24.6977V12.1211H18.6367V18.1821Z" fill="#A7AED5"/>
<path d="M24.6951 12.1211H30.7539L30.7545 6.06055H24.6951V12.1211Z" fill="#A7AED5"/>
<path d="M18.6367 12.1211H24.6977V6.06055H18.6367V12.1211Z" fill="#231F20"/>
<path d="M30.7539 12.1211H36.8149V6.06055H30.7545L30.7539 12.1211Z" fill="#A7AED5"/>
<path d="M36.8164 12.1211H42.8774V6.06055H36.8164V12.1211Z" fill="#A7AED5"/>
<path d="M42.875 12.1211H48.936V6.06055H42.875V12.1211Z" fill="#A7AED5"/>
<path d="M48.9375 12.1211H54.997V6.06055H48.9375V12.1211Z" fill="#231F20"/>
<path d="M91.3633 12.1211H97.4243V6.06055H91.3633V12.1211Z" fill="#231F20"/>
<path d="M97.4219 12.1211H103.481V6.06055H97.4219V12.1211Z" fill="#A7AED5"/>
<path d="M103.484 12.1211H109.545V6.06055H103.484V12.1211Z" fill="#A7AED5"/>
<path d="M109.543 12.1211H115.604V6.06055H109.543V12.1211Z" fill="#A7AED5"/>
<path d="M176.211 181.819H182.272V175.758H176.211V181.819Z" fill="#626682"/>
<path d="M176.211 187.878H182.272V181.819H176.211V187.878Z" fill="#231F20"/>
<path d="M176.211 175.758H182.272V169.697H176.211V175.758Z" fill="#858AAD"/>
<path d="M176.211 169.696H182.272V163.635H176.211V169.696Z" fill="#A7AED5"/>
<path d="M176.211 163.635H182.272V157.574H176.211V163.635Z" fill="#231F20"/>
<path d="M121.664 12.1211H127.723L127.724 6.06055H121.664V12.1211Z" fill="#A7AED5"/>
<path d="M127.723 12.1211H133.784V6.06055H127.724L127.723 12.1211Z" fill="#231F20"/>
<path d="M115.605 12.1211H121.666V6.06055H115.605V12.1211Z" fill="#A7AED5"/>
<path d="M109.543 187.878H115.604V181.818H109.543V187.878Z" fill="#373E52"/>
<path d="M139.844 24.2446H145.905V18.1836H139.844V24.2446Z" fill="#231F20"/>
<path d="M103.484 24.2446H109.545V18.1836H103.484V24.2446Z" fill="#D45D60"/>
<path d="M133.785 24.2446H139.844V18.1836H133.785V24.2446Z" fill="#A7AED5"/>
<path d="M115.605 24.2446H121.666V18.1836H115.605V24.2446Z" fill="#D45D60"/>
<path d="M127.723 24.2446H133.784V18.1836H127.723V24.2446Z" fill="#858AAD"/>
<path d="M109.543 24.2446H115.604V18.1836H109.543V24.2446Z" fill="#D45D60"/>
<path d="M121.664 24.2446H127.723V18.1836H121.664V24.2446Z" fill="#231F20"/>
<path d="M0.453125 48.4868H6.51259V42.4258H0.453125V48.4868Z" fill="#231F20"/>
<path d="M48.9375 24.2446H54.997V18.1836H48.9375V24.2446Z" fill="#858AAD"/>
<path d="M97.4219 24.2446H103.481V18.1836H97.4219V24.2446Z" fill="#231F20"/>
<path d="M18.6367 24.2446H24.6977V18.1836H18.6367V24.2446Z" fill="#858AAD"/>
<path d="M24.6951 24.2446H30.7545V18.1836H24.6951V24.2446Z" fill="#231F20"/>
<path d="M6.51172 24.2446H12.5727V18.1836H6.51172V24.2446Z" fill="#231F20"/>
<path d="M30.7545 24.2446H36.8149V18.1836H30.7545V24.2446Z" fill="#D45D60"/>
<path d="M36.8164 24.2446H42.8774V18.1836H36.8164V24.2446Z" fill="#D45D60"/>
<path d="M0.453125 36.3637H6.51259V30.3027H0.453125V36.3637Z" fill="#231F20"/>
<path d="M0.453125 30.3051H6.51259L6.51172 24.2446L0.453125 24.2441V30.3051Z" fill="#231F20"/>
<path d="M12.5742 24.2446H18.6352V18.1836H12.5742V24.2446Z" fill="#A7AED5"/>
<path d="M85.3007 24.2446H91.3616V18.1836H85.3007V24.2446Z" fill="#231F20"/>
<path d="M91.3633 24.2446H97.4243V18.1836H91.3633V24.2446Z" fill="#858AAD"/>
<path d="M54.997 24.2446H61.0571V18.1836H54.997V24.2446Z" fill="#231F20"/>
<path d="M42.875 24.2446H48.936V18.1836H42.875V24.2446Z" fill="#231F20"/>
<path d="M79.2383 187.878H85.2993V181.818H79.2383V187.878Z" fill="#373E52"/>
<path d="M85.3007 187.878H91.3617V181.819H85.3007V187.878Z" fill="#373E52"/>
<path d="M91.3633 187.878H97.4243V181.818H91.3633V187.878Z" fill="#373E52"/>
<path d="M127.723 187.878H133.784V181.818H127.723V187.878Z" fill="#858AAD"/>
<path d="M61.0587 187.878H67.1197V181.819H61.0587V187.878Z" fill="#626682"/>
<path d="M67.1172 187.878H73.1767V181.818H67.1172V187.878Z" fill="#231F20"/>
<path d="M115.605 187.878H121.666V181.818H115.605V187.878Z" fill="#231F20"/>
<path d="M121.664 187.878H127.723V181.818H121.664V187.878Z" fill="#858AAD"/>
<path d="M97.4219 187.878H103.481V181.818H97.4219V187.878Z" fill="#373E52"/>
<path d="M103.484 187.878H109.545V181.818H103.484V187.878Z" fill="#373E52"/>
<path d="M73.1797 187.878H79.2407V181.818H73.1797V187.878Z" fill="#373E52"/>
<path d="M54.9961 187.878H61.0571V181.818H54.9961V187.878Z" fill="#858AAD"/>
<path d="M48.9375 187.878H54.9961V181.818H48.9375V187.878Z" fill="#858AAD"/>
<path d="M42.875 187.878H48.936V181.818H42.875V187.878Z" fill="#231F20"/>
<path d="M164.086 181.819H170.147V175.758H164.086V181.819Z" fill="#231F20"/>
<path d="M164.086 139.393H170.147V133.334H164.086V139.393Z" fill="#231F20"/>
<path d="M164.086 151.516H170.147V145.455H164.086V151.516Z" fill="#231F20"/>
<path d="M164.086 157.577H170.147V151.516H164.086V157.577Z" fill="#231F20"/>
<path d="M133.801 187.878H139.86V181.818H133.801V187.878Z" fill="#858AAD"/>
<path d="M164.086 145.454H170.147V139.393H164.086V145.454Z" fill="#231F20"/>
<path d="M151.965 187.878H158.026V181.818H151.965V187.878Z" fill="#626682"/>
<path d="M145.906 187.878H151.967V181.819H145.906V187.878Z" fill="#858AAD"/>
<path d="M139.793 187.878H145.854V181.818H139.793V187.878Z" fill="#858AAD"/>
<path d="M158.027 187.878H164.087L164.086 181.819L158.027 181.818V187.878Z" fill="#373E52"/>
<path d="M164.086 163.635H170.147V157.574H164.086V163.635Z" fill="#231F20"/>
<path d="M164.086 175.758H170.147V169.697H164.086V175.758Z" fill="#231F20"/>
<path d="M164.086 169.696H170.147V163.635H164.086V169.696Z" fill="#231F20"/>
<path d="M164.087 187.878H170.147V181.819H164.086L164.087 187.878Z" fill="#231F20"/>
<path d="M0.453125 42.4258H6.51259V36.3652H0.453125V42.4258Z" fill="#231F20"/>
<path d="M170.148 169.696H176.209V163.635H170.148V169.696Z" fill="#858AAD"/>
<path d="M170.148 163.635H176.209V157.574H170.148V163.635Z" fill="#A7AED5"/>
<path d="M170.148 181.819H176.209V175.758H170.148V181.819Z" fill="#858AAD"/>
<path d="M170.148 175.758H176.209L176.209 169.697H170.148L170.148 175.758Z" fill="#858AAD"/>
<path d="M170.148 187.878H176.209V181.819H170.148V187.878Z" fill="#626682"/>
<path d="M170.148 157.577H176.209V151.516H170.148V157.577Z" fill="#231F20"/>
<path d="M115.605 193.939H121.666V187.879H115.605V193.939Z" fill="#626682"/>
<path d="M0.453125 54.5457H6.51259V48.4868H0.453125V54.5457Z" fill="#231F20"/>
<path d="M170.148 193.94H176.209L176.209 187.878H170.148L170.148 193.94Z" fill="#231F20"/>
<path d="M127.723 193.939H133.784V187.879H127.723V193.939Z" fill="#626682"/>
<path d="M139.845 193.939H145.905V187.879H139.844L139.845 193.939Z" fill="#626682"/>
<path d="M133.785 193.939H139.845L139.844 187.879H133.785V193.939Z" fill="#231F20"/>
<path d="M121.664 193.939H127.723V187.879H121.664V193.939Z" fill="#231F20"/>
<path d="M151.965 193.939H158.026V187.879H151.965V193.939Z" fill="#373E52"/>
<path d="M158.027 193.94H164.087V187.879H158.027V193.94Z" fill="#231F20"/>
<path d="M164.087 193.94H170.147V187.879H164.087V193.94Z" fill="#231F20"/>
<path d="M145.906 193.939H151.967V187.878H145.906V193.939Z" fill="#626682"/>
<path d="M79.2383 193.939H85.2993V187.879H79.2383V193.939Z" fill="#626682"/>
<path d="M48.9375 193.939H54.997V187.879H48.9375V193.939Z" fill="#231F20"/>
<path d="M109.543 193.939H115.604V187.879H109.543V193.939Z" fill="#231F20"/>
<path d="M73.1797 193.939H79.2407V187.879H73.1797V193.939Z" fill="#231F20"/>
<path d="M61.0587 193.939H67.1197L67.1197 187.878H61.0587L61.0587 193.939Z" fill="#626682"/>
<path d="M54.997 193.939H61.0571V187.879H54.997V193.939Z" fill="#626682"/>
<path d="M67.1172 193.939H73.1767V187.879H67.1172V193.939Z" fill="#373E52"/>
<path d="M97.4219 193.939H103.481V187.879H97.4219V193.939Z" fill="#626682"/>
<path d="M103.484 193.939H109.545V187.879H103.484V193.939Z" fill="#373E52"/>
<path d="M85.3007 193.939H91.3616L91.3617 187.878H85.3007L85.3007 193.939Z" fill="#626682"/>
<path d="M91.3633 193.939H97.4243V187.879H91.3633V193.939Z" fill="#626682"/>
<path d="M36.8164 193.939H42.8774V187.879H36.8164V193.939Z" fill="#231F20"/>
<path d="M42.875 193.939H48.936V187.879H42.875V193.939Z" fill="#626682"/>
<path d="M182.27 181.819H188.329V175.758H182.27V181.819Z" fill="#231F20"/>
<path d="M182.27 169.696H188.329V163.635H182.27V169.696Z" fill="#231F20"/>
<path d="M182.27 175.758H188.329V169.697H182.27V175.758Z" fill="#231F20"/>
<path d="M121.664 6.06055H127.724V0H121.664V6.06055Z" fill="#231F20"/>
<path d="M36.8164 6.06055H42.8774V0H36.8164V6.06055Z" fill="#231F20"/>
<path d="M42.875 6.06055H48.936V0H42.875V6.06055Z" fill="#231F20"/>
<path d="M30.7545 6.06055H36.8149V0H30.7539L30.7545 6.06055Z" fill="#231F20"/>
<path d="M24.6951 6.06055H30.7545L30.7539 0H24.6951L24.6951 6.06055Z" fill="#231F20"/>
<path d="M103.484 6.06055H109.545V0H103.484V6.06055Z" fill="#231F20"/>
<path d="M109.543 6.06055H115.604V0H109.543V6.06055Z" fill="#231F20"/>
<path d="M115.605 6.06055H121.666V0H115.605V6.06055Z" fill="#231F20"/>
<path d="M97.4219 6.06055H103.481V0H97.4219V6.06055Z" fill="#231F20"/>
<path d="M85.3007 133.334H91.3616V127.273H85.3007V133.334Z" fill="#231F20"/>
<path d="M127.723 78.7875H133.784V72.7266H127.723V78.7875Z" fill="#231F20"/>
<path d="M127.723 60.6063H133.784V54.5469H127.723V60.6063Z" fill="#626682"/>
<path d="M115.605 60.6063H121.666V54.5469H115.605V60.6063Z" fill="#858AAD"/>
<path d="M127.723 66.6684H133.784V60.6074H127.723V66.6684Z" fill="#231F20"/>
<path d="M127.723 72.7266H133.784V66.6684H127.723V72.7266Z" fill="#231F20"/>
<path d="M121.664 60.6063H127.723V54.5469H121.664V60.6063Z" fill="#231F20"/>
<path d="M91.3633 60.6063H97.4243V54.5469H91.3633V60.6063Z" fill="#858AAD"/>
<path d="M109.543 60.6063H115.604V54.5469H109.543V60.6063Z" fill="#858AAD"/>
<path d="M97.4219 60.6063H103.483V54.5469H97.4219V60.6063Z" fill="#858AAD"/>
<path d="M121.664 66.6684H127.723V60.6074H121.664V66.6684Z" fill="#A7AED5"/>
<path d="M127.723 96.9695H133.784V90.9101H127.723V96.9695Z" fill="#231F20"/>
<path d="M127.723 127.272H133.784V121.211H127.723V127.272Z" fill="#858AAD"/>
<path d="M127.723 121.211H133.784V115.152H127.723V121.211Z" fill="#858AAD"/>
<path d="M127.723 84.85H133.784V78.7891H127.723V84.85Z" fill="#231F20"/>
<path d="M127.723 133.334H133.784V127.273H127.723V133.334Z" fill="#231F20"/>
<path d="M127.723 115.152H133.784V109.092H127.723V115.152Z" fill="#626682"/>
<path d="M127.723 139.393H133.784V133.334H127.723V139.393Z" fill="#231F20"/>
<path d="M85.3007 60.6063H91.3616V54.5469H85.3007V60.6063Z" fill="#858AAD"/>
<path d="M127.723 109.092H133.784V103.031H127.723V109.092Z" fill="#231F20"/>
<path d="M127.723 90.9101H133.784V84.85H127.723V90.9101Z" fill="#231F20"/>
<path d="M127.723 103.03H133.784V96.9695H127.723V103.03Z" fill="#231F20"/>
<path d="M36.8164 78.7875H42.8774V72.7266H36.8164V78.7875Z" fill="#858AAD"/>
<path d="M36.8164 96.9695H42.8774V90.9101H36.8164V96.9695Z" fill="#858AAD"/>
<path d="M36.8164 103.03H42.8774V96.9695H36.8164V103.03Z" fill="#858AAD"/>
<path d="M36.8164 109.092H42.8774V103.031H36.8164V109.092Z" fill="#858AAD"/>
<path d="M36.8164 90.9101H42.8774V84.8496H36.8164V90.9101Z" fill="#858AAD"/>
<path d="M36.8164 84.8496H42.8774V78.7891H36.8164V84.8496Z" fill="#858AAD"/>
<path d="M36.8164 115.153H42.8774V109.092H36.8164V115.153Z" fill="#626682"/>
<path d="M36.8164 121.212H42.8774V115.153H36.8164V121.212Z" fill="#231F20"/>
<path d="M127.723 145.454H133.784V139.393H127.723V145.454Z" fill="#231F20"/>
<path d="M67.1172 60.6063H73.1767V54.5469H67.1172V60.6063Z" fill="#858AAD"/>
<path d="M79.2383 60.6063H85.2993V54.5469H79.2383V60.6063Z" fill="#858AAD"/>
<path d="M61.0587 60.6063H67.1197V54.5469H61.0587V60.6063Z" fill="#858AAD"/>
<path d="M36.8164 72.7266H42.8774V66.668H36.8164V72.7266Z" fill="#858AAD"/>
<path d="M73.1797 60.6063H79.2407V54.5469H73.1797V60.6063Z" fill="#858AAD"/>
<path d="M54.9961 60.6063H61.0571V54.5469H54.9961V60.6063Z" fill="#858AAD"/>
<path d="M36.8164 60.6063H42.8774V54.5469H36.8164V60.6063Z" fill="#858AAD"/>
<path d="M36.8164 66.668H42.8774V60.6074H36.8164V66.668Z" fill="#858AAD"/>
<path d="M48.9375 60.6063H54.9961V54.5469H48.9375V60.6063Z" fill="#858AAD"/>
<path d="M42.875 60.6063H48.936V54.5469H42.875V60.6063Z" fill="#858AAD"/>
<path d="M42.875 72.7274H48.936V66.668H42.875V72.7274Z" fill="#858AAD"/>
<path d="M42.875 66.668H48.936V60.6074H42.875V66.668Z" fill="#858AAD"/>
<path d="M54.9961 66.6684H61.0571V60.6074H54.9961V66.6684Z" fill="#858AAD"/>
<path d="M48.9375 66.6684H54.9961V60.6074H48.9375V66.6684Z" fill="#231F20"/>
<path d="M42.875 78.7875H48.936V72.7274H42.875V78.7875Z" fill="#A7AED5"/>
<path d="M42.875 103.03H48.936V96.9688H42.875V103.03Z" fill="#858AAD"/>
<path d="M61.0587 66.6684H67.1197V60.6074H61.0587V66.6684Z" fill="#858AAD"/>
<path d="M42.875 109.092H48.936V103.031H42.875V109.092Z" fill="#858AAD"/>
<path d="M42.875 90.9106H48.936V84.8496H42.875V90.9106Z" fill="#858AAD"/>
<path d="M42.875 84.8496H48.936V78.7891H42.875V84.8496Z" fill="#858AAD"/>
<path d="M42.875 96.9688H48.936V90.9106H42.875V96.9688Z" fill="#858AAD"/>
<path d="M97.4219 66.6684H103.483V60.6074H97.4219V66.6684Z" fill="#858AAD"/>
<path d="M127.723 151.516H133.784V145.455H127.723V151.516Z" fill="#231F20"/>
<path d="M67.1172 66.6684H73.1767V60.6074H67.1172V66.6684Z" fill="#858AAD"/>
<path d="M115.605 66.6684H121.666V60.6074H115.605V66.6684Z" fill="#858AAD"/>
<path d="M103.484 66.6684H109.545V60.6074H103.484V66.6684Z" fill="#858AAD"/>
<path d="M91.3633 66.6684H97.4243V60.6074H91.3633V66.6684Z" fill="#231F20"/>
<path d="M73.1797 66.6684H79.2407V60.6074H73.1797V66.6684Z" fill="#858AAD"/>
<path d="M79.2383 66.6684H85.2993V60.6074H79.2383V66.6684Z" fill="#858AAD"/>
<path d="M85.3007 66.6684H91.3616V60.6074H85.3007V66.6684Z" fill="#858AAD"/>
<path d="M109.543 66.6684H115.604V60.6074H109.543V66.6684Z" fill="#858AAD"/>
<path d="M91.3633 151.516H97.4243V145.455H91.3633V151.516Z" fill="#626682"/>
<path d="M97.4219 151.516H103.481V145.455H97.4219V151.516Z" fill="#231F20"/>
<path d="M67.1172 151.516H73.1767V145.455H67.1172V151.516Z" fill="#858AAD"/>
<path d="M73.1797 145.455V151.516H79.2407V145.455H73.1797Z" fill="#858AAD"/>
<path d="M79.2383 151.516H85.2993V145.455H79.2383V151.516Z" fill="#858AAD"/>
<path d="M42.875 115.153H48.936V109.092H42.875V115.153Z" fill="#858AAD"/>
<path d="M121.664 151.516H127.723V145.455H121.664V151.516Z" fill="#626682"/>
<path d="M103.484 151.516H109.545V145.455H103.484V151.516Z" fill="#A7AED5"/>
<path d="M115.605 151.516H121.666V145.455H115.605V151.516Z" fill="#858AAD"/>
<path d="M109.543 151.516H115.604V145.455H109.543V151.516Z" fill="#858AAD"/>
<path d="M85.3007 151.516H91.3616V145.455H85.3007V151.516Z" fill="#858AAD"/>
<path d="M42.875 127.272H48.936V121.211H42.875V127.272Z" fill="#231F20"/>
<path d="M42.875 121.211H48.936V115.153H42.875V121.211Z" fill="#626682"/>
<path d="M48.9375 151.516H54.997V145.455H48.9375V151.516Z" fill="#231F20"/>
<path d="M54.997 151.516H61.0571V145.455H54.997V151.516Z" fill="#858AAD"/>
<path d="M61.0587 151.516H67.1197V145.455H61.0587V151.516Z" fill="#858AAD"/>
<path d="M48.9375 145.454H54.997V139.393H48.9375V145.454Z" fill="#231F20"/>
<path d="M103.484 60.6063H109.545V54.5469H103.484V60.6063Z" fill="#858AAD"/>
<path d="M30.7539 78.7875H36.8149V72.7266H30.7539V78.7875Z" fill="#858AAD"/>
<path d="M30.7539 54.5457H36.8149V48.4863H30.7539V54.5457Z" fill="#A7AED5"/>
<path d="M30.7539 84.85H36.8149V78.7891H30.7539V84.85Z" fill="#858AAD"/>
<path d="M30.7539 66.6684H36.8149V60.6074H30.7539V66.6684Z" fill="#858AAD"/>
<path d="M30.7539 60.6063H36.8149V54.5469H30.7539V60.6063Z" fill="#858AAD"/>
<path d="M30.7539 72.7266H36.8149V66.6684H30.7539V72.7266Z" fill="#858AAD"/>
<path d="M30.7539 90.9106H36.8149V84.85H30.7539V90.9106Z" fill="#858AAD"/>
<path d="M30.7578 109.092H36.8188V103.031H30.7578V109.092Z" fill="#858AAD"/>
<path d="M30.7539 103.03H36.8149V96.9688H30.7539V103.03Z" fill="#858AAD"/>
<path d="M30.7539 96.9688H36.8149V90.9106H30.7539V96.9688Z" fill="#858AAD"/>
<path d="M85.3007 54.5457H91.3617V48.4863H85.3007V54.5457Z" fill="#858AAD"/>
<path d="M67.1172 54.5457H73.1767V48.4863H67.1172V54.5457Z" fill="#858AAD"/>
<path d="M79.2383 54.5457H85.2993V48.4863H79.2383V54.5457Z" fill="#A7AED5"/>
<path d="M73.1797 54.5457H79.2407V48.4863H73.1797V54.5457Z" fill="#858AAD"/>
<path d="M30.7539 115.153H36.8149V109.092H30.7539V115.153Z" fill="#626682"/>
<path d="M54.9961 54.5457H61.0571V48.4863H54.9961V54.5457Z" fill="#858AAD"/>
<path d="M48.9375 54.5457H54.9961V48.4863H48.9375V54.5457Z" fill="#858AAD"/>
<path d="M91.3632 54.5457H97.4226V48.4863H91.3632V54.5457Z" fill="#858AAD"/>
<path d="M61.0587 54.5457H67.1197V48.4863H61.0587V54.5457Z" fill="#A7AED5"/>
<path d="M36.8164 54.5457H42.8774V48.4863H36.8164V54.5457Z" fill="#858AAD"/>
<path d="M42.875 54.5457H48.936V48.4863H42.875V54.5457Z" fill="#858AAD"/>
<path d="M73.1797 157.576V163.636H79.2407V157.576H73.1797Z" fill="#231F20"/>
<path d="M67.1172 163.636H73.1767V157.576H67.1172V163.636Z" fill="#858AAD"/>
<path d="M61.0587 163.636H67.1197V157.576H61.0587V163.636Z" fill="#858AAD"/>
<path d="M79.2383 163.635H85.2993V157.574H79.2383V163.635Z" fill="#626682"/>
<path d="M48.9375 163.636H54.997V157.576H48.9375V163.636Z" fill="#231F20"/>
<path d="M54.997 163.636H61.0571V157.576H54.997V163.636Z" fill="#858AAD"/>
<path d="M85.3007 163.635H91.3616V157.574H85.3007V163.635Z" fill="#231F20"/>
<path d="M97.4219 163.635H103.481V157.574H97.4219V163.635Z" fill="#858AAD"/>
<path d="M103.484 163.635H109.545V157.574H103.484V163.635Z" fill="#858AAD"/>
<path d="M91.3633 163.635H97.4243V157.574H91.3633V163.635Z" fill="#A7AED5"/>
<path d="M36.8164 163.636H42.8774V157.576H36.8164V163.636Z" fill="#231F20"/>
<path d="M42.875 163.636H48.936V157.576H42.875V163.636Z" fill="#A7AED5"/>
<path d="M30.7539 121.212H36.8149V115.153H30.7539V121.212Z" fill="#231F20"/>
<path d="M121.664 157.577H127.724L127.723 151.516H121.664V157.577Z" fill="#231F20"/>
<path d="M85.3007 157.577H91.3616V151.516H85.3007V157.577Z" fill="#626682"/>
<path d="M103.484 157.577H109.545V151.516H103.484V157.577Z" fill="#858AAD"/>
<path d="M115.605 157.577H121.666V151.516H115.605V157.577Z" fill="#626682"/>
<path d="M91.3633 157.577H97.4243V151.516H91.3633V157.577Z" fill="#231F20"/>
<path d="M97.4219 157.577H103.481V151.516H97.4219V157.577Z" fill="#A7AED5"/>
<path d="M109.543 157.577H115.604V151.516H109.543V157.577Z" fill="#858AAD"/>
<path d="M133.785 157.577H139.845V151.516H133.785V157.577Z" fill="#A7AED5"/>
<path d="M133.785 151.516H139.845V145.455H133.785V151.516Z" fill="#231F20"/>
<path d="M127.724 157.577H133.784V151.516H127.723L127.724 157.577Z" fill="#A7AED5"/>
<path d="M133.785 145.454H139.845V139.393H133.785V145.454Z" fill="#626682"/>
<path d="M48.9375 157.576H54.997V151.516H48.9375V157.576Z" fill="#231F20"/>
<path d="M42.875 157.576H48.936V151.516H42.875V157.576Z" fill="#231F20"/>
<path d="M79.2383 157.577H85.2993V151.516H79.2383V157.577Z" fill="#626682"/>
<path d="M54.997 157.576H61.0571V151.516H54.997V157.576Z" fill="#858AAD"/>
<path d="M73.1797 151.516V157.576H79.2407V151.516H73.1797Z" fill="#626682"/>
<path d="M67.1172 157.576H73.1767V151.516H67.1172V157.576Z" fill="#231F20"/>
<path d="M61.0587 157.576H67.1197L67.1197 151.516H61.0587L61.0587 157.576Z" fill="#858AAD"/>
<path d="M97.4226 54.5457L103.481 54.5457V48.4863L97.4226 48.4863V54.5457Z" fill="#A7AED5"/>
<path d="M133.785 60.6063H139.845V54.5469H133.785V60.6063Z" fill="#626682"/>
<path d="M127.723 54.5457H133.784V48.4863H127.723V54.5457Z" fill="#231F20"/>
<path d="M133.785 54.5457H139.845V48.4863H133.785V54.5457Z" fill="#858AAD"/>
<path d="M133.785 139.393H139.845V133.334H133.785V139.393Z" fill="#858AAD"/>
<path d="M103.484 54.5457H109.545V48.4863H103.484V54.5457Z" fill="#858AAD"/>
<path d="M109.543 54.5457H115.604V48.4863H109.543V54.5457Z" fill="#858AAD"/>
<path d="M115.605 54.5457H121.666V48.4863H115.605V54.5457Z" fill="#A7AED5"/>
<path d="M121.664 54.5457H127.723V48.4863H121.664V54.5457Z" fill="#231F20"/>
<path d="M133.785 66.6684H139.845V60.6074H133.785V66.6684Z" fill="#231F20"/>
<path d="M133.785 127.272H139.845V121.211H133.785V127.272Z" fill="#858AAD"/>
<path d="M133.785 121.211H139.845V115.152H133.785V121.211Z" fill="#858AAD"/>
<path d="M133.785 133.334H139.845V127.273H133.785V133.334Z" fill="#858AAD"/>
<path d="M133.785 115.152H139.845V109.092H133.785V115.152Z" fill="#858AAD"/>
<path d="M133.785 109.092H139.845V103.031H133.785V109.092Z" fill="#A7AED5"/>
<path d="M133.785 103.03H139.845V96.9688H133.785V103.03Z" fill="#231F20"/>
<path d="M91.3633 115.153H97.4243V109.092H91.3633V115.153Z" fill="#231F20"/>
<path d="M61.0587 84.85H67.1197V78.7891H61.0587V84.85Z" fill="#896956"/>
<path d="M61.0587 90.9106H67.1197V84.85H61.0587V90.9106Z" fill="#755748"/>
<path d="M61.0587 127.272H67.1197V121.211H61.0587V127.272Z" fill="#626682"/>
<path d="M67.1172 84.85H73.1767V78.7891H67.1172V84.85Z" fill="#755748"/>
<path d="M73.1797 84.85H79.2407V78.7891H73.1797V84.85Z" fill="#755748"/>
<path d="M61.0587 96.9695H67.1197L67.1197 90.9106H61.0587L61.0587 96.9695Z" fill="#755748"/>
<path d="M61.0587 103.03H67.1197L67.1197 96.9695H61.0587L61.0587 103.03Z" fill="#5D4339"/>
<path d="M61.0587 115.153H67.1197V109.092H61.0587V115.153Z" fill="#858AAD"/>
<path d="M61.0587 121.211H67.1197V115.153H61.0587V121.211Z" fill="#231F20"/>
<path d="M61.0587 109.092H67.1197V103.031H61.0587V109.092Z" fill="#231F20"/>
<path d="M79.2383 84.85H85.2993V78.7891H79.2383V84.85Z" fill="#896956"/>
<path d="M103.484 103.03H109.545V96.9688H103.484V103.03Z" fill="#858AAD"/>
<path d="M85.3007 84.85H91.3616V78.7891H85.3007V84.85Z" fill="#231F20"/>
<path d="M103.484 109.092H109.545V103.031H103.484V109.092Z" fill="#858AAD"/>
<path d="M103.484 121.212H109.545V115.152H103.484V121.212Z" fill="#858AAD"/>
<path d="M103.484 115.152H109.545V109.092H103.484V115.152Z" fill="#858AAD"/>
<path d="M103.484 96.9688H109.545V90.9101H103.484V96.9688Z" fill="#858AAD"/>
<path d="M91.3633 84.85H97.4243V78.7891H91.3633V84.85Z" fill="#858AAD"/>
<path d="M97.4219 84.85H103.483V78.7891H97.4219V84.85Z" fill="#858AAD"/>
<path d="M103.484 84.85H109.545V78.7891H103.484V84.85Z" fill="#858AAD"/>
<path d="M103.484 90.9101H109.545V84.85H103.484V90.9101Z" fill="#858AAD"/>
<path d="M109.543 115.153H115.604V109.092H109.543V115.153Z" fill="#858AAD"/>
<path d="M109.543 103.03H115.604V96.9688H109.543V103.03Z" fill="#858AAD"/>
<path d="M109.543 96.9688H115.604V90.9101H109.543V96.9688Z" fill="#858AAD"/>
<path d="M109.543 109.092H115.604V103.031H109.543V109.092Z" fill="#858AAD"/>
<path d="M109.543 90.9101H115.604V84.8496H109.543V90.9101Z" fill="#858AAD"/>
<path d="M103.484 127.272H109.545V121.212H103.484V127.272Z" fill="#626682"/>
<path d="M67.1172 127.272H73.1767V121.211H67.1172V127.272Z" fill="#626682"/>
<path d="M121.664 72.7274H127.724L127.723 66.6684H121.664V72.7274Z" fill="#858AAD"/>
<path d="M109.543 84.8496H115.604V78.7891H109.543V84.8496Z" fill="#858AAD"/>
<path d="M103.484 78.7875H109.545V72.7266H103.484V78.7875Z" fill="#858AAD"/>
<path d="M109.543 78.7875H115.604V72.7266H109.543V78.7875Z" fill="#858AAD"/>
<path d="M97.4219 78.7875H103.483V72.7266H97.4219V78.7875Z" fill="#A7AED5"/>
<path d="M79.2383 133.334H85.2993V127.273H79.2383V133.334Z" fill="#231F20"/>
<path d="M73.1797 127.273V133.334H79.2407V127.273H73.1797Z" fill="#231F20"/>
<path d="M67.1172 133.334H73.1767V127.273H67.1172V133.334Z" fill="#231F20"/>
<path d="M109.543 127.272H115.604V121.211H109.543V127.272Z" fill="#626682"/>
<path d="M103.484 133.334H109.545V127.273H103.484V133.334Z" fill="#626682"/>
<path d="M109.543 133.334H115.604V127.273H109.543V133.334Z" fill="#858AAD"/>
<path d="M97.4219 133.334H103.481V127.273H97.4219V133.334Z" fill="#626682"/>
<path d="M91.3633 133.334H97.4243V127.273H91.3633V133.334Z" fill="#626682"/>
<path d="M97.4219 127.272H103.481V121.211H97.4219V127.272Z" fill="#626682"/>
<path d="M73.1797 109.092H79.2407V103.031H73.1797V109.092Z" fill="#231F20"/>
<path d="M73.1797 103.03H79.2407V96.9688H73.1797V103.03Z" fill="#5D4339"/>
<path d="M91.3633 78.7875H97.4243V72.7266H91.3633V78.7875Z" fill="#A7AED5"/>
<path d="M73.1797 96.9688H79.2407V90.9101H73.1797V96.9688Z" fill="#755748"/>
<path d="M73.1797 115.153H79.2407V109.092H73.1797V115.153Z" fill="#858AAD"/>
<path d="M85.3007 96.9695H91.3617V90.9101H85.3007V96.9695Z" fill="#231F20"/>
<path d="M91.3633 121.212H97.4243V115.153H91.3633V121.212Z" fill="#858AAD"/>
<path d="M97.4219 121.211H103.481V115.152H97.4219V121.211Z" fill="#858AAD"/>
<path d="M85.3007 121.212H91.3617V115.152H85.3007V121.212Z" fill="#231F20"/>
<path d="M79.2383 121.212H85.2993V115.152H79.2383V121.212Z" fill="#231F20"/>
<path d="M79.2383 115.152H85.2993V109.092H79.2383V115.152Z" fill="#858AAD"/>
<path d="M85.3007 109.092H91.3616V103.031H85.3007V109.092Z" fill="#626682"/>
<path d="M79.2383 109.092H85.2993V103.031H79.2383V109.092Z" fill="#231F20"/>
<path d="M79.2383 103.03H85.2993V96.9688H79.2383V103.03Z" fill="#5D4339"/>
<path d="M85.3007 103.03H91.3616L91.3617 96.9695H85.3007L85.3007 103.03Z" fill="#231F20"/>
<path d="M91.3633 96.9695H97.4243V90.9101H91.3633V96.9695Z" fill="#858AAD"/>
<path d="M91.3633 109.092H97.4243V103.031H91.3633V109.092Z" fill="#858AAD"/>
<path d="M85.3007 115.152H91.3617L91.3616 109.092H85.3007L85.3007 115.152Z" fill="#858AAD"/>
<path d="M91.3633 103.03H97.4243V96.9695H91.3633V103.03Z" fill="#858AAD"/>
<path d="M109.543 163.635H115.604V157.574H109.543V163.635Z" fill="#626682"/>
<path d="M79.2383 96.9688H85.2993V90.9101H79.2383V96.9688Z" fill="#755748"/>
<path d="M67.1172 115.153H73.1767V109.092H67.1172V115.153Z" fill="#858AAD"/>
<path d="M73.1797 121.212H79.2407V115.153H73.1797V121.212Z" fill="#231F20"/>
<path d="M67.1172 121.211H73.1767V115.153H67.1172V121.211Z" fill="#231F20"/>
<path d="M67.1172 109.092H73.1767V103.031H67.1172V109.092Z" fill="#231F20"/>
<path d="M67.1172 103.03H73.1767V96.9688H67.1172V103.03Z" fill="#5D4339"/>
<path d="M73.1797 127.272H79.2407V121.212H73.1797V127.272Z" fill="#626682"/>
<path d="M85.3007 127.272H91.3616L91.3617 121.212H85.3007L85.3007 127.272Z" fill="#626682"/>
<path d="M91.3633 127.272H97.4243V121.212H91.3633V127.272Z" fill="#626682"/>
<path d="M67.1172 96.9688H73.1767V90.9101H67.1172V96.9688Z" fill="#755748"/>
<path d="M79.2383 127.272H85.2993V121.212H79.2383V127.272Z" fill="#626682"/>
<path d="M85.3007 90.9101H91.3617L91.3616 84.85H85.3007L85.3007 90.9101Z" fill="#231F20"/>
<path d="M97.4219 90.9106H103.483V84.85H97.4219V90.9106Z" fill="#858AAD"/>
<path d="M97.4219 103.03H103.481V96.9688H97.4219V103.03Z" fill="#858AAD"/>
<path d="M97.4219 96.9688H103.481V90.9101L97.4219 90.9106V96.9688Z" fill="#858AAD"/>
<path d="M97.4219 109.092H103.481V103.031H97.4219V109.092Z" fill="#858AAD"/>
<path d="M79.2383 90.9101H85.2993V84.85H79.2383V90.9101Z" fill="#755748"/>
<path d="M73.1797 90.9101H79.2407V84.85H73.1797V90.9101Z" fill="#755748"/>
<path d="M67.1172 90.9101H73.1767V84.85H67.1172V90.9101Z" fill="#755748"/>
<path d="M91.3633 90.9101H97.4243V84.85H91.3633V90.9101Z" fill="#858AAD"/>
<path d="M97.4219 115.152H103.481V109.092H97.4219V115.152Z" fill="#858AAD"/>
<path d="M109.543 121.211H115.604V115.153H109.543V121.211Z" fill="#626682"/>
<path d="M48.9375 127.272H54.997V121.211H48.9375V127.272Z" fill="#231F20"/>
<path d="M48.9375 121.211H54.997V115.152H48.9375V121.211Z" fill="#626682"/>
<path d="M48.9375 115.152H54.997V109.092H48.9375V115.152Z" fill="#231F20"/>
<path d="M48.9375 109.092H54.997V103.031H48.9375V109.092Z" fill="#858AAD"/>
<path d="M54.997 145.454H61.0571V139.393H54.997V145.454Z" fill="#858AAD"/>
<path d="M48.9375 103.03H54.997V96.9688H48.9375V103.03Z" fill="#858AAD"/>
<path d="M61.0587 145.454H67.1197V139.393H61.0587V145.454Z" fill="#858AAD"/>
<path d="M54.9961 139.393L61.0571 139.393V133.334H54.9961V139.393Z" fill="#231F20"/>
<path d="M61.0587 72.7274H67.1197V66.6684H61.0587V72.7274Z" fill="#858AAD"/>
<path d="M67.1172 145.454H73.1767V139.393H67.1172V145.454Z" fill="#858AAD"/>
<path d="M67.1172 72.7274H73.1767V66.6684H67.1172V72.7274Z" fill="#231F20"/>
<path d="M73.1797 72.7274H79.2407V66.6684H73.1797V72.7274Z" fill="#231F20"/>
<path d="M54.9961 72.7274H61.0571V66.6684H54.9961V72.7274Z" fill="#858AAD"/>
<path d="M48.9375 78.7875H54.997V72.7266H48.9375V78.7875Z" fill="#A7AED5"/>
<path d="M48.9375 72.7266H54.997L54.9961 66.6684H48.9375V72.7266Z" fill="#231F20"/>
<path d="M48.9375 84.85H54.997V78.7891H48.9375V84.85Z" fill="#858AAD"/>
<path d="M48.9375 90.9106H54.997V84.85H48.9375V90.9106Z" fill="#858AAD"/>
<path d="M48.9375 96.9688H54.997V90.9106H48.9375V96.9688Z" fill="#858AAD"/>
<path d="M73.1797 139.393V145.454H79.2407V139.393H73.1797Z" fill="#858AAD"/>
<path d="M121.664 109.092L127.723 109.092V103.031H121.664V109.092Z" fill="#626682"/>
<path d="M121.664 103.03H127.723L127.724 96.9688H121.664V103.03Z" fill="#858AAD"/>
<path d="M121.664 115.153L127.723 115.152V109.092L121.664 109.092V115.153Z" fill="#231F20"/>
<path d="M121.664 121.212H127.724L127.723 115.152L121.664 115.153V121.212Z" fill="#626682"/>
<path d="M79.2383 72.7274H85.2993V66.6684H79.2383V72.7274Z" fill="#858AAD"/>
<path d="M121.664 90.9106H127.724L127.723 84.85L121.664 84.8496V90.9106Z" fill="#858AAD"/>
<path d="M121.664 96.9688H127.724V90.9106H121.664V96.9688Z" fill="#858AAD"/>
<path d="M121.664 84.8496L127.723 84.85V78.7891H121.664V84.8496Z" fill="#858AAD"/>
<path d="M121.664 78.7875H127.723L127.724 72.7274H121.664V78.7875Z" fill="#858AAD"/>
<path d="M121.664 133.334H127.723V127.273H121.664V133.334Z" fill="#858AAD"/>
<path d="M121.664 127.272H127.723L127.724 121.212H121.664V127.272Z" fill="#858AAD"/>
<path d="M91.3633 145.454H97.4243V139.393H91.3633V145.454Z" fill="#858AAD"/>
<path d="M85.3007 145.454H91.3616V139.393H85.3007V145.454Z" fill="#858AAD"/>
<path d="M97.4219 145.454H103.481V139.393H97.4219V145.454Z" fill="#231F20"/>
<path d="M121.664 139.393H127.723L127.724 133.334L121.664 133.334V139.393Z" fill="#858AAD"/>
<path d="M79.2383 145.454H85.2993V139.393H79.2383V145.454Z" fill="#858AAD"/>
<path d="M115.605 145.454H121.666V139.393H115.605V145.454Z" fill="#858AAD"/>
<path d="M121.664 145.454H127.723L127.724 139.393L121.664 139.393V145.454Z" fill="#858AAD"/>
<path d="M103.484 145.454H109.545V139.393H103.484V145.454Z" fill="#858AAD"/>
<path d="M109.543 145.454H115.604V139.393H109.543V145.454Z" fill="#858AAD"/>
<path d="M54.997 127.272H61.0571V121.211H54.997V127.272Z" fill="#626682"/>
<path d="M61.0587 133.334H67.1197V127.273H61.0587V133.334Z" fill="#231F20"/>
<path d="M85.3007 72.7274H91.3616V66.6684H85.3007V72.7274Z" fill="#858AAD"/>
<path d="M85.3007 78.7875H91.3616V72.7274H85.3007V78.7875Z" fill="#858AAD"/>
<path d="M54.9961 121.212L61.0571 121.211V115.152H54.997L54.9961 121.212Z" fill="#231F20"/>
<path d="M54.997 115.152H61.0571V109.092H54.997V115.152Z" fill="#858AAD"/>
<path d="M67.1172 139.393H73.1767V133.334H67.1172V139.393Z" fill="#626682"/>
<path d="M73.1797 133.334V139.393H79.2407V133.334H73.1797Z" fill="#626682"/>
<path d="M79.2383 139.393H85.2993V133.334H79.2383V139.393Z" fill="#626682"/>
<path d="M61.0587 139.393H67.1197V133.334H61.0587V139.393Z" fill="#626682"/>
<path d="M54.997 109.092H61.0571V103.031H54.997V109.092Z" fill="#626682"/>
<path d="M54.9961 96.9695H61.0571V90.9101H54.9961V96.9695Z" fill="#231F20"/>
<path d="M54.997 103.03H61.0571V96.9695H54.9961L54.997 103.03Z" fill="#231F20"/>
<path d="M67.1172 78.7875H73.1767V72.7274H67.1172V78.7875Z" fill="#896956"/>
<path d="M73.1797 78.7875H79.2407V72.7274H73.1797V78.7875Z" fill="#896956"/>
<path d="M79.2383 78.7875H85.2993V72.7274H79.2383V78.7875Z" fill="#231F20"/>
<path d="M61.0587 78.7875H67.1197V72.7274H61.0587V78.7875Z" fill="#231F20"/>
<path d="M54.9961 90.9101H61.0571V84.8496L54.997 84.85L54.9961 90.9101Z" fill="#231F20"/>
<path d="M85.3007 139.393H91.3616V133.334H85.3007V139.393Z" fill="#626682"/>
<path d="M54.997 78.7875H61.0571V72.7274H54.9961L54.997 78.7875Z" fill="#858AAD"/>
<path d="M54.997 84.85L61.0571 84.8496V78.7891H54.997V84.85Z" fill="#231F20"/>
<path d="M54.9961 133.334H61.0571V127.273H54.9961V133.334Z" fill="#231F20"/>
<path d="M115.605 84.85H121.666V78.7891H115.605V84.85Z" fill="#858AAD"/>
<path d="M115.605 78.7875H121.666V72.7266H115.605V78.7875Z" fill="#858AAD"/>
<path d="M115.605 96.9695H121.666V90.9101H115.605V96.9695Z" fill="#858AAD"/>
<path d="M115.605 90.9101H121.666V84.85H115.605V90.9101Z" fill="#858AAD"/>
<path d="M115.605 72.7266H121.666V66.6684H115.605V72.7266Z" fill="#858AAD"/>
<path d="M91.3633 139.393H97.4243V133.334H91.3633V139.393Z" fill="#626682"/>
<path d="M91.3633 72.7266H97.4243V66.6684H91.3633V72.7266Z" fill="#231F20"/>
<path d="M97.4219 72.7266H103.483V66.6684H97.4219V72.7266Z" fill="#858AAD"/>
<path d="M109.543 72.7266H115.604V66.6684H109.543V72.7266Z" fill="#858AAD"/>
<path d="M103.484 72.7266H109.545V66.6684H103.484V72.7266Z" fill="#858AAD"/>
<path d="M115.605 103.03H121.666V96.9695H115.605V103.03Z" fill="#858AAD"/>
<path d="M109.543 139.393H115.604V133.334H109.543V139.393Z" fill="#858AAD"/>
<path d="M103.484 139.393H109.545V133.334H103.484V139.393Z" fill="#858AAD"/>
<path d="M115.605 139.393H121.666V133.334H115.605V139.393Z" fill="#858AAD"/>
<path d="M115.605 109.092H121.666V103.031H115.605V109.092Z" fill="#858AAD"/>
<path d="M97.4219 139.393H103.481V133.334H97.4219V139.393Z" fill="#858AAD"/>
<path d="M115.605 121.212H121.666V115.152H115.605V121.212Z" fill="#626682"/>
<path d="M115.605 133.334H121.666V127.273H115.605V133.334Z" fill="#858AAD"/>
<path d="M115.605 115.152H121.666V109.092H115.605V115.152Z" fill="#626682"/>
<path d="M115.605 127.272H121.666V121.212H115.605V127.272Z" fill="#626682"/>
<path d="M103.484 181.818H109.545V175.758H103.484V181.818Z" fill="#231F20"/>
<path d="M12.5742 36.3637H18.6352V30.3027H12.5742V36.3637Z" fill="#231F20"/>
<path d="M12.5742 42.4262H18.6352V36.3652H12.5742V42.4262Z" fill="#231F20"/>
<path d="M18.6367 36.3637H24.6977V30.3027H18.6367V36.3637Z" fill="#D45D60"/>
<path d="M24.6951 36.3637H30.7545V30.3027H24.6951V36.3637Z" fill="#F68288"/>
<path d="M12.5742 66.6684H18.6352V60.6074H12.5742V66.6684Z" fill="#231F20"/>
<path d="M12.5742 54.5457H18.6352V48.4863H12.5742V54.5457Z" fill="#858AAD"/>
<path d="M12.5742 60.6063H18.6352V54.5469H12.5742V60.6063Z" fill="#626682"/>
<path d="M61.0587 181.819H67.1197V175.758H61.0587V181.819Z" fill="#231F20"/>
<path d="M48.9375 181.818H54.9961L54.997 175.758H48.9375V181.818Z" fill="#858AAD"/>
<path d="M42.875 181.818H48.936V175.758H42.875V181.818Z" fill="#858AAD"/>
<path d="M54.9961 181.818H61.0571V175.758H54.997L54.9961 181.818Z" fill="#626682"/>
<path d="M73.1797 181.818H79.2407V175.758H73.1797V181.818Z" fill="#231F20"/>
<path d="M91.3633 181.818H97.4243V175.758H91.3633V181.818Z" fill="#231F20"/>
<path d="M79.2383 181.818H85.2993V175.758H79.2383V181.818Z" fill="#373E52"/>
<path d="M97.4219 181.818H103.481V175.758H97.4219V181.818Z" fill="#231F20"/>
<path d="M85.3007 181.819H91.3617V175.758H85.3007V181.819Z" fill="#231F20"/>
<path d="M67.1172 181.818H73.1767V175.758H67.1172V181.818Z" fill="#231F20"/>
<path d="M30.7578 36.3637H36.8188V30.3027H30.7578V36.3637Z" fill="#F68288"/>
<path d="M36.8164 181.819H42.8774V175.758H36.8164V181.819Z" fill="#231F20"/>
<path d="M12.5742 48.4863H18.6352V42.4262H12.5742V48.4863Z" fill="#231F20"/>
<path d="M151.965 157.577H158.026V151.516H151.965V157.577Z" fill="#231F20"/>
<path d="M151.965 151.516H158.026V145.455H151.965V151.516Z" fill="#626682"/>
<path d="M151.965 145.454H158.026V139.393H151.965V145.454Z" fill="#858AAD"/>
<path d="M151.965 163.635H158.026V157.574H151.965V163.635Z" fill="#231F20"/>
<path d="M115.605 163.635H121.666V157.574H115.605V163.635Z" fill="#231F20"/>
<path d="M151.965 121.212H158.026V115.152H151.965V121.212Z" fill="#231F20"/>
<path d="M151.965 127.272H158.026V121.212H151.965V127.272Z" fill="#231F20"/>
<path d="M151.965 139.393H158.026V133.334H151.965V139.393Z" fill="#858AAD"/>
<path d="M109.543 36.3637H115.604V30.3027H109.543V36.3637Z" fill="#F68288"/>
<path d="M67.1172 36.3637H73.1767V30.3027H67.1172V36.3637Z" fill="#A7AED5"/>
<path d="M97.4219 36.3637H103.481V30.3027H97.4219V36.3637Z" fill="#A7AED5"/>
<path d="M73.1797 36.3637H79.2407V30.3027H73.1797V36.3637Z" fill="#A7AED5"/>
<path d="M85.3007 36.3637H91.3616V30.3027H85.3007V36.3637Z" fill="#A7AED5"/>
<path d="M91.3633 36.3637H97.4243V30.3027H91.3633V36.3637Z" fill="#A7AED5"/>
<path d="M79.2422 36.3637H85.3032V30.3027H79.2422V36.3637Z" fill="#A7AED5"/>
<path d="M48.9375 36.3637H54.997V30.3027H48.9375V36.3637Z" fill="#A7AED5"/>
<path d="M61.0587 36.3637H67.1197V30.3027H61.0587V36.3637Z" fill="#A7AED5"/>
<path d="M54.997 36.3637H61.0571V30.3027H54.997V36.3637Z" fill="#A7AED5"/>
<path d="M42.875 36.3637H48.936V30.3027H42.875V36.3637Z" fill="#231F20"/>
<path d="M103.484 36.3637H109.545V30.3027H103.484V36.3637Z" fill="#231F20"/>
<path d="M145.906 36.3637H151.967V30.3027H145.906V36.3637Z" fill="#231F20"/>
<path d="M133.785 36.3637H139.845V30.3027H133.785V36.3637Z" fill="#231F20"/>
<path d="M139.845 36.3637H145.905V30.3027H139.845V36.3637Z" fill="#858AAD"/>
<path d="M127.723 36.3637H133.784V30.3027H127.723V36.3637Z" fill="#D45D60"/>
<path d="M36.8164 36.3637H42.8774V30.3027H36.8164V36.3637Z" fill="#F68288"/>
<path d="M115.605 36.3637H121.666V30.3027H115.605V36.3637Z" fill="#F68288"/>
<path d="M121.664 36.3637H127.723V30.3027H121.664V36.3637Z" fill="#F68288"/>
<path d="M24.6951 30.3051H30.7545V24.2446H24.6951V30.3051Z" fill="#D45D60"/>
<path d="M18.6367 30.3051H24.6977V24.2446H18.6367V30.3051Z" fill="#231F20"/>
<path d="M36.8164 30.3051H42.8774V24.2446H36.8164V30.3051Z" fill="#F68288"/>
<path d="M12.5742 30.3051H18.6352V24.2446H12.5742V30.3051Z" fill="#858AAD"/>
<path d="M30.7545 30.3051H36.8149V24.2446H30.7545V30.3051Z" fill="#F68288"/>
<path d="M6.51259 48.4868H12.5727V42.4258H6.51259V48.4868Z" fill="#858AAD"/>
<path d="M6.51259 42.4258H12.5727V36.3652H6.51259V42.4258Z" fill="#858AAD"/>
<path d="M109.543 181.818H115.604V175.758H109.543V181.818Z" fill="#231F20"/>
<path d="M6.51259 30.3051H12.5727V24.2446H6.51172L6.51259 30.3051Z" fill="#A7AED5"/>
<path d="M6.51259 36.3637H12.5727V30.3027H6.51259V36.3637Z" fill="#858AAD"/>
<path d="M6.51259 54.5457L12.5727 54.5457V48.4868H6.51259V54.5457Z" fill="#626682"/>
<path d="M79.2383 30.3051H85.2993V24.2441H79.2383V30.3051Z" fill="#231F20"/>
<path d="M85.3007 30.3051H91.3616V24.2446H85.3007V30.3051Z" fill="#231F20"/>
<path d="M91.3633 30.3051H97.4243V24.2446H91.3633V30.3051Z" fill="#231F20"/>
<path d="M97.4219 30.3051H103.481V24.2446H97.4219V30.3051Z" fill="#231F20"/>
<path d="M73.1797 30.3051H79.2407V24.2441H73.1797V30.3051Z" fill="#231F20"/>
<path d="M48.9375 30.3051H54.9985V24.2441L48.9375 24.2446V30.3051Z" fill="#231F20"/>
<path d="M55 30.3051H61.061V24.2441H55V30.3051Z" fill="#231F20"/>
<path d="M61.0586 30.3051H67.1181V24.2441H61.0586V30.3051Z" fill="#231F20"/>
<path d="M67.1212 30.3051H73.1797V24.2441H67.1212V30.3051Z" fill="#231F20"/>
<path d="M151.965 169.696H158.026V163.635H151.965V169.696Z" fill="#858AAD"/>
<path d="M103.484 30.3051H109.545V24.2446H103.484V30.3051Z" fill="#D45D60"/>
<path d="M6.51172 60.6063H12.5727V54.5469H6.51172V60.6063Z" fill="#231F20"/>
<path d="M42.8789 30.3051H48.9375V24.2446L42.8789 24.2441V30.3051Z" fill="#D45D60"/>
<path d="M158.027 145.454H164.086L164.087 139.393H158.027V145.454Z" fill="#858AAD"/>
<path d="M158.027 139.393H164.087L164.086 133.334H158.027V139.393Z" fill="#A7AED5"/>
<path d="M158.027 151.516H164.086V145.455H158.027V151.516Z" fill="#858AAD"/>
<path d="M158.027 163.635H164.086V157.574H158.027V163.635Z" fill="#858AAD"/>
<path d="M158.027 157.577H164.086V151.516H158.027V157.577Z" fill="#858AAD"/>
<path d="M158.027 169.696H164.086V163.635H158.027V169.696Z" fill="#858AAD"/>
<path d="M158.027 133.334L164.087 133.334V127.273H158.027V133.334Z" fill="#231F20"/>
<path d="M133.785 181.819H139.845V175.758H133.785V181.819Z" fill="#858AAD"/>
<path d="M121.664 181.818H127.723L127.724 175.758H121.664V181.818Z" fill="#858AAD"/>
<path d="M127.723 181.818H133.784V175.758H127.724L127.723 181.818Z" fill="#858AAD"/>
<path d="M158.027 175.758H164.087L164.086 169.697H158.027V175.758Z" fill="#858AAD"/>
<path d="M115.605 181.818H121.666V175.758H115.605V181.818Z" fill="#858AAD"/>
<path d="M109.543 30.3051H115.604V24.2446H109.543V30.3051Z" fill="#F68288"/>
<path d="M158.027 181.818L164.086 181.819L164.087 175.758H158.027V181.818Z" fill="#626682"/>
<path d="M151.965 181.818H158.026V175.758H151.965V181.818Z" fill="#858AAD"/>
<path d="M145.906 181.819H151.967V175.758H145.906V181.819Z" fill="#858AAD"/>
<path d="M139.845 181.819H145.905V175.758H139.845V181.819Z" fill="#858AAD"/>
<path d="M139.844 30.3051H145.905V24.2446H139.844V30.3051Z" fill="#A7AED5"/>
<path d="M145.906 30.3051H151.967V24.2441H145.906V30.3051Z" fill="#231F20"/>
<path d="M133.785 30.3051H139.844V24.2446H133.785V30.3051Z" fill="#858AAD"/>
<path d="M121.664 30.3051H127.724L127.723 24.2446H121.664V30.3051Z" fill="#D45D60"/>
<path d="M115.605 30.3051H121.666V24.2446H115.605V30.3051Z" fill="#F68288"/>
<path d="M127.724 30.3051H133.784V24.2446H127.723L127.724 30.3051Z" fill="#231F20"/>
<path d="M151.965 133.334H158.026V127.273H151.965V133.334Z" fill="#A7AED5"/>
<path d="M24.6951 115.153H30.7539V109.092H24.6951V115.153Z" fill="#231F20"/>
<path d="M24.6951 72.7274H30.7545L30.7539 66.6684L24.6951 66.668V72.7274Z" fill="#858AAD"/>
<path d="M24.6951 66.668L30.7539 66.6684V60.6074H24.6951V66.668Z" fill="#A7AED5"/>
<path d="M24.6951 78.7875H30.7539L30.7545 72.7274H24.6951V78.7875Z" fill="#858AAD"/>
<path d="M24.6951 54.5457L30.7539 54.5457V48.4863L24.6951 48.4863V54.5457Z" fill="#231F20"/>
<path d="M24.6951 60.6063H30.7539V54.5469H24.6951V60.6063Z" fill="#231F20"/>
<path d="M24.6951 103.03H30.7539V96.9688H24.6951V103.03Z" fill="#858AAD"/>
<path d="M24.6951 96.9688L30.7546 96.9695L30.7539 90.9106L24.6951 90.9101L24.6951 96.9688Z" fill="#858AAD"/>
<path d="M24.6951 84.85H30.7539V78.7891H24.6951V84.85Z" fill="#858AAD"/>
<path d="M24.6951 109.092H30.7539L30.7545 103.031H24.6951V109.092Z" fill="#626682"/>
<path d="M24.6951 90.9101L30.7539 90.9106V84.85H24.6951L24.6951 90.9101Z" fill="#858AAD"/>
<path d="M36.8164 169.696H42.8774V163.636H36.8164V169.696Z" fill="#231F20"/>
<path d="M121.664 169.696H127.724V163.635H121.664V169.696Z" fill="#858AAD"/>
<path d="M115.605 169.696H121.666V163.635H115.605V169.696Z" fill="#A7AED5"/>
<path d="M109.543 169.696H115.604V163.635H109.543V169.696Z" fill="#231F20"/>
<path d="M127.724 169.696H133.784V163.635H127.724V169.696Z" fill="#858AAD"/>
<path d="M103.484 169.696H109.545V163.635H103.484V169.696Z" fill="#858AAD"/>
<path d="M24.6951 48.4863L30.756 48.4868V42.4258H24.6951L24.6951 48.4863Z" fill="#F68288"/>
<path d="M145.906 163.635H151.967V157.574H145.906V163.635Z" fill="#858AAD"/>
<path d="M97.4219 169.696H103.481V163.635H97.4219V169.696Z" fill="#858AAD"/>
<path d="M145.906 169.696H151.967V163.635H145.906V169.696Z" fill="#858AAD"/>
<path d="M139.844 169.696H145.905V163.635H139.844V169.696Z" fill="#858AAD"/>
<path d="M133.785 169.696H139.844V163.635H133.785V169.696Z" fill="#858AAD"/>
<path d="M54.9961 169.696H61.0571V163.636L54.9961 163.635V169.696Z" fill="#626682"/>
<path d="M48.9375 169.696H54.9961L54.997 163.636H48.9375V169.696Z" fill="#231F20"/>
<path d="M42.875 169.696H48.936V163.636H42.875V169.696Z" fill="#858AAD"/>
<path d="M61.0587 169.696H67.1197L67.1197 163.636H61.0587L61.0587 169.696Z" fill="#858AAD"/>
<path d="M73.1797 169.696H79.2407V163.636H73.1797V169.696Z" fill="#858AAD"/>
<path d="M79.2383 169.696H85.2993V163.635H79.2383V169.696Z" fill="#231F20"/>
<path d="M85.3007 169.696H91.3616V163.635H85.3007V169.696Z" fill="#A7AED5"/>
<path d="M67.1172 169.696H73.1767V163.636H67.1172V169.696Z" fill="#858AAD"/>
<path d="M91.3633 169.696H97.4243V163.635H91.3633V169.696Z" fill="#858AAD"/>
<path d="M145.906 157.577H151.967V151.516H145.906V157.577Z" fill="#A7AED5"/>
<path d="M139.845 109.092L145.905 109.092V103.031H139.845V109.092Z" fill="#231F20"/>
<path d="M30.7539 48.4863H36.8149V42.4258H30.7539V48.4863Z" fill="#231F20"/>
<path d="M139.845 115.152L145.905 115.153V109.092L139.845 109.092V115.152Z" fill="#A7AED5"/>
<path d="M139.845 127.272H145.905V121.211H139.845V127.272Z" fill="#858AAD"/>
<path d="M139.844 121.212L145.905 121.211V115.153L139.845 115.152L139.844 121.212Z" fill="#858AAD"/>
<path d="M133.785 163.635H139.844L139.845 157.574H133.785V163.635Z" fill="#858AAD"/>
<path d="M127.724 163.635H133.784V157.574H127.723L127.724 163.635Z" fill="#858AAD"/>
<path d="M139.844 163.635H145.905V157.574H139.845L139.844 163.635Z" fill="#858AAD"/>
<path d="M121.664 163.635H127.724L127.723 157.574H121.664V163.635Z" fill="#A7AED5"/>
<path d="M151.965 175.758H158.026V169.697H151.965V175.758Z" fill="#858AAD"/>
<path d="M139.844 139.393H145.905V133.334H139.845L139.844 139.393Z" fill="#858AAD"/>
<path d="M139.845 145.454H145.905V139.393H139.844L139.845 145.454Z" fill="#858AAD"/>
<path d="M139.845 157.577H145.905V151.516H139.845V157.577Z" fill="#A7AED5"/>
<path d="M139.844 133.334L145.905 133.334V127.273H139.845L139.844 133.334Z" fill="#858AAD"/>
<path d="M67.1172 48.4863H73.1767V42.4258H67.1172V48.4863Z" fill="#858AAD"/>
<path d="M61.0587 48.4863H67.1197L67.1197 42.4258H61.0587L61.0587 48.4863Z" fill="#858AAD"/>
<path d="M73.1797 48.4863H79.2407V42.4258H73.1797V48.4863Z" fill="#A7AED5"/>
<path d="M91.3632 48.4863H97.4226L97.4226 42.4258H91.3632L91.3632 48.4863Z" fill="#A7AED5"/>
<path d="M85.3007 48.4863H91.3617L91.3616 42.4258H85.3007L85.3007 48.4863Z" fill="#858AAD"/>
<path d="M79.2383 48.4863H85.2993V42.4258H79.2383V48.4863Z" fill="#858AAD"/>
<path d="M42.875 48.4863H48.936V42.4258H42.875V48.4863Z" fill="#858AAD"/>
<path d="M54.9961 48.4863H61.0571V42.4258H54.9961V48.4863Z" fill="#A7AED5"/>
<path d="M36.8164 48.4863H42.8774V42.4258H36.8164V48.4863Z" fill="#A7AED5"/>
<path d="M48.9375 48.4863H54.9961V42.4258H48.9375V48.4863Z" fill="#858AAD"/>
<path d="M103.484 48.4863H109.545V42.4258H103.484V48.4863Z" fill="#858AAD"/>
<path d="M139.845 48.4863L145.905 48.4868V42.4258H139.844L139.845 48.4863Z" fill="#858AAD"/>
<path d="M127.723 48.4863H133.784V42.4258H127.723V48.4863Z" fill="#F68288"/>
<path d="M97.4226 48.4863L103.481 48.4863V42.4258H97.4226L97.4226 48.4863Z" fill="#858AAD"/>
<path d="M139.845 54.5457H145.905V48.4868L139.845 48.4863V54.5457Z" fill="#626682"/>
<path d="M133.785 48.4863H139.845L139.844 42.4258H133.785V48.4863Z" fill="#231F20"/>
<path d="M121.664 48.4863H127.723V42.4258H121.664V48.4863Z" fill="#F68288"/>
<path d="M139.845 60.6063H145.905V54.5469H139.845V60.6063Z" fill="#231F20"/>
<path d="M109.543 48.4863H115.604V42.4258H109.543V48.4863Z" fill="#A7AED5"/>
<path d="M115.605 48.4863H121.666V42.4258H115.605V48.4863Z" fill="#231F20"/>
<path d="M139.845 151.516H145.905V145.455H139.845V151.516Z" fill="#231F20"/>
<path d="M18.6367 60.6063H24.6962V54.5469H18.6367V60.6063Z" fill="#626682"/>
<path d="M18.6367 84.85H24.6977V78.7891H18.6367V84.85Z" fill="#231F20"/>
<path d="M18.6367 72.7274H24.6977V66.668H18.6367V72.7274Z" fill="#231F20"/>
<path d="M18.6367 66.668H24.6977V60.6074H18.6367V66.668Z" fill="#231F20"/>
<path d="M18.6367 78.7875H24.6977V72.7274H18.6367V78.7875Z" fill="#231F20"/>
<path d="M18.6367 103.03H24.6977V96.9688H18.6367V103.03Z" fill="#231F20"/>
<path d="M18.6367 90.9106H24.6977V84.85H18.6367V90.9106Z" fill="#231F20"/>
<path d="M18.6367 109.092H24.6977V103.031H18.6367V109.092Z" fill="#231F20"/>
<path d="M18.6367 96.9688H24.6977V90.9106H18.6367V96.9688Z" fill="#231F20"/>
<path d="M121.664 175.758H127.724V169.697H121.664V175.758Z" fill="#858AAD"/>
<path d="M109.543 175.758H115.604V169.697H109.543V175.758Z" fill="#231F20"/>
<path d="M115.605 175.758H121.666V169.697H115.605V175.758Z" fill="#858AAD"/>
<path d="M103.484 175.758H109.545V169.697H103.484V175.758Z" fill="#626682"/>
<path d="M97.4219 175.758H103.481V169.697H97.4219V175.758Z" fill="#626682"/>
<path d="M139.844 175.758L145.905 175.758V169.697H139.844V175.758Z" fill="#858AAD"/>
<path d="M145.906 175.758H151.967V169.697H145.906V175.758Z" fill="#858AAD"/>
<path d="M91.3633 175.758H97.4243V169.697H91.3633V175.758Z" fill="#626682"/>
<path d="M133.785 175.758H139.845L139.844 169.697H133.785V175.758Z" fill="#858AAD"/>
<path d="M127.723 175.758L133.784 175.758V169.697H127.724L127.723 175.758Z" fill="#858AAD"/>
<path d="M61.0587 175.758H67.1197L67.1197 169.697H61.0587L61.0587 175.758Z" fill="#626682"/>
<path d="M42.875 175.758H48.936V169.697H42.875V175.758Z" fill="#858AAD"/>
<path d="M54.9961 175.758L61.0571 175.758V169.697H54.9961V175.758Z" fill="#231F20"/>
<path d="M48.9375 175.758H54.997L54.9961 169.697H48.9375V175.758Z" fill="#626682"/>
<path d="M36.8164 175.758H42.8774V169.697H36.8164V175.758Z" fill="#231F20"/>
<path d="M79.2383 175.758H85.2993V169.697H79.2383V175.758Z" fill="#231F20"/>
<path d="M73.1797 175.758H79.2407V169.697H73.1797V175.758Z" fill="#626682"/>
<path d="M85.3007 175.758H91.3617L91.3616 169.697H85.3007L85.3007 175.758Z" fill="#626682"/>
<path d="M67.1172 175.758H73.1767V169.697H67.1172V175.758Z" fill="#626682"/>
<path d="M24.6951 42.4258H30.756V36.3652H24.6951V42.4258Z" fill="#F68288"/>
<path d="M133.785 42.4258H139.844L139.845 36.3652H133.785V42.4258Z" fill="#231F20"/>
<path d="M145.906 48.4868H151.967V42.4258H145.906V48.4868Z" fill="#231F20"/>
<path d="M145.906 42.4258H151.967V36.3652H145.906V42.4258Z" fill="#231F20"/>
<path d="M145.906 54.5457H151.967V48.4868H145.906V54.5457Z" fill="#231F20"/>
<path d="M139.844 42.4258H145.905V36.3652H139.845L139.844 42.4258Z" fill="#858AAD"/>
<path d="M145.906 127.272H151.967V121.211H145.906V127.272Z" fill="#858AAD"/>
<path d="M145.906 139.393H151.967V133.334H145.906V139.393Z" fill="#858AAD"/>
<path d="M145.906 133.334H151.967V127.273H145.906V133.334Z" fill="#858AAD"/>
<path d="M145.906 145.454H151.967V139.393H145.906V145.454Z" fill="#858AAD"/>
<path d="M145.906 121.211H151.967V115.152H145.906V121.211Z" fill="#A7AED5"/>
<path d="M145.906 115.152H151.967V109.092H145.906V115.152Z" fill="#231F20"/>
<path d="M73.1797 42.4258H79.2407V36.3652H73.1797V42.4258Z" fill="#858AAD"/>
<path d="M42.875 42.4258H48.936V36.3652H42.875V42.4258Z" fill="#A7AED5"/>
<path d="M48.9375 42.4258H54.9961L54.997 36.3652H48.9375V42.4258Z" fill="#858AAD"/>
<path d="M36.8164 42.4258H42.8774V36.3652H36.8164V42.4258Z" fill="#231F20"/>
<path d="M54.9961 42.4258H61.0571V36.3652H54.997L54.9961 42.4258Z" fill="#858AAD"/>
<path d="M61.0587 42.4258H67.1197V36.3652H61.0587V42.4258Z" fill="#858AAD"/>
<path d="M67.1172 42.4258H73.1767V36.3652H67.1172V42.4258Z" fill="#858AAD"/>
<path d="M18.6367 48.4868H24.6977V42.4258H18.6367V48.4868Z" fill="#F68288"/>
<path d="M30.7539 42.4258H36.8149V36.3652H30.7539V42.4258Z" fill="#F68288"/>
<path d="M18.6367 42.4258H24.6977V36.3652H18.6367V42.4258Z" fill="#F68288"/>
<path d="M145.906 151.516H151.967V145.455H145.906V151.516Z" fill="#231F20"/>
<path d="M79.2383 42.4258H85.2993V36.3652H79.2383V42.4258Z" fill="#858AAD"/>
<path d="M103.484 42.4258H109.545V36.3652H103.484V42.4258Z" fill="#A7AED5"/>
<path d="M109.543 42.4258H115.604V36.3652H109.543V42.4258Z" fill="#231F20"/>
<path d="M115.605 42.4258H121.666V36.3652H115.605V42.4258Z" fill="#F68288"/>
<path d="M121.664 42.4258H127.723L127.724 36.3652H121.664V42.4258Z" fill="#F68288"/>
<path d="M127.723 42.4258H133.784V36.3652H127.724L127.723 42.4258Z" fill="#F68288"/>
<path d="M85.3007 42.4258L91.3602 42.4262V36.3652H85.3008L85.3007 42.4258Z" fill="#858AAD"/>
<path d="M18.6367 54.5457H24.6962V48.4863L18.6367 48.4868V54.5457Z" fill="#231F20"/>
<path d="M91.3632 42.4258L97.4243 42.4262V36.3652H91.3633L91.3632 42.4258Z" fill="#858AAD"/>
<path d="M97.4226 42.4258H103.481V36.3652H97.4219L97.4226 42.4258Z" fill="#858AAD"/>
</svg>
