<svg width="288" height="200" viewBox="0 0 288 200" fill="none" xmlns="http://www.w3.org/2000/svg">
<path d="M281.238 81.2504H281.248V75H281.238V81.2504Z" fill="white"/>
<path d="M281.238 75H281.248V68.75H281.238V75Z" fill="white"/>
<path d="M281.238 87.4988H281.248V81.2504H281.238V87.4988Z" fill="white"/>
<path d="M25 156.25H31.2488V150H25V156.25Z" fill="#231F20"/>
<path d="M25 162.499H31.2488V156.25H25V162.499Z" fill="#231F20"/>
<path d="M25 168.75H31.2488V162.5H25V168.75Z" fill="#231F20"/>
<path d="M62.5 25.0004H68.7504V18.75H62.5V25.0004Z" fill="#F79210"/>
<path d="M81.25 25.0004H87.5004V18.75H81.25V25.0004Z" fill="#231F20"/>
<path d="M68.7504 25.0004H75.0004V18.75H68.7504V25.0004Z" fill="#FABC09"/>
<path d="M75.0004 25.0004H81.2488V18.75H75.0004V25.0004Z" fill="#231F20"/>
<path d="M56.25 25.0004H62.5V18.75H56.25V25.0004Z" fill="#231F20"/>
<path d="M25 87.4988H31.2488V81.25H25V87.4988Z" fill="#E7E3E2"/>
<path d="M25 81.25H31.2488V75H25V81.25Z" fill="#231F20"/>
<path d="M25 93.7504H31.2488V87.5H25V93.7504Z" fill="#231F20"/>
<path d="M25 62.5004H31.2488V56.25H25V62.5004Z" fill="white"/>
<path d="M25 75H31.2488V68.75H25V75Z" fill="white"/>
<path d="M25 68.7488H31.2488V62.5004H25V68.7488Z" fill="white"/>
<path d="M25 50.0004H31.2488V43.75H25V50.0004Z" fill="#FABC09"/>
<path d="M25 25.0004H31.2488V18.75H25V25.0004Z" fill="#FABC09"/>
<path d="M25 56.25H31.2488V50.0004H25V56.25Z" fill="#8A4227"/>
<path d="M37.5 25.0004H43.7504V18.75H37.5V25.0004Z" fill="#FABC09"/>
<path d="M43.7504 25.0004H50.0004V18.75H43.7504V25.0004Z" fill="#231F20"/>
<path d="M31.25 25.0004H37.4988V18.75H31.25V25.0004Z" fill="#231F20"/>
<path d="M25 31.2504H31.2488V25.0004H25V31.2504Z" fill="#F79210"/>
<path d="M50.0004 25.0004H56.2488V18.75H50.0004V25.0004Z" fill="#FABC09"/>
<path d="M25 43.7488H31.2488V37.5H25V43.7488Z" fill="#231F20"/>
<path d="M25 37.5H31.2488V31.2504H25V37.5Z" fill="#231F20"/>
<path d="M43.75 18.7488H50.0004V12.5H43.75V18.7488Z" fill="#231F20"/>
<path d="M56.25 18.7488H62.5004V12.5H56.25V18.7488Z" fill="#231F20"/>
<path d="M50.0004 18.7488H56.2488V12.5H50.0004V18.7488Z" fill="#231F20"/>
<path d="M62.5004 18.7488H68.7504V12.5H62.5004V18.7488Z" fill="#231F20"/>
<path d="M68.7504 18.7488H75.0004V12.5H68.7504V18.7488Z" fill="#231F20"/>
<path d="M75.0004 18.7488H81.2488V12.5H75.0004V18.7488Z" fill="#D46212"/>
<path d="M81.25 18.7488H87.5004V12.5H81.25V18.7488Z" fill="#D46212"/>
<path d="M31.25 18.7488H37.4988V12.5H31.25V18.7488Z" fill="#231F20"/>
<path d="M25 18.7488H31.2488V12.5H25V18.7488Z" fill="#231F20"/>
<path d="M37.5 18.7488H43.75V12.5H37.5V18.7488Z" fill="#231F20"/>
<path d="M18.75 18.7488H25V12.5H18.75V18.7488Z" fill="#F79210"/>
<path d="M87.5004 18.7488H93.7504V12.5H87.5004V18.7488Z" fill="#231F20"/>
<path d="M18.75 93.7504H25V87.5H18.75V93.7504Z" fill="#231F20"/>
<path d="M18.75 87.4988H25V81.25H18.75V87.4988Z" fill="#E7E3E2"/>
<path d="M18.75 25.0004H25V18.75H18.75V25.0004Z" fill="#231F20"/>
<path d="M18.75 43.7488H25V37.5H18.75V43.7488Z" fill="#F79210"/>
<path d="M18.75 50.0004H25V43.75H18.75V50.0004Z" fill="#FABC09"/>
<path d="M18.75 81.25H25V75H18.75V81.25Z" fill="white"/>
<path d="M18.75 31.2504H25V25.0004H18.75V31.2504Z" fill="#F79210"/>
<path d="M18.75 37.5H25V31.2504H18.75V37.5Z" fill="#F79210"/>
<path d="M18.75 56.2504L25 56.25V50.0004H18.75V56.2504Z" fill="white"/>
<path d="M18.75 75H25V68.75H18.75V75Z" fill="#231F20"/>
<path d="M18.75 68.7488H25V62.5004L18.75 62.5V68.7488Z" fill="white"/>
<path d="M18.75 62.5L25 62.5004V56.25L18.75 56.2504V62.5Z" fill="white"/>
<path d="M212.5 125H218.75V118.75H212.5V125Z" fill="#231F20"/>
<path d="M212.5 137.499H218.75V131.25H212.5V137.499Z" fill="#231F20"/>
<path d="M212.5 143.75H218.75V137.5H212.5V143.75Z" fill="#F79210"/>
<path d="M212.5 131.25H218.75V125H212.5V131.25Z" fill="#FABC09"/>
<path d="M212.5 150H218.75V143.75H212.5V150Z" fill="#231F20"/>
<path d="M212.5 193.75H218.75V187.5H212.5V193.75Z" fill="#D46212"/>
<path d="M212.5 200H218.75V193.75H212.5V200Z" fill="#231F20"/>
<path d="M212.5 187.498H218.75V181.248H212.5V187.498Z" fill="#231F20"/>
<path d="M212.5 181.248H218.75V175H212.5V181.248Z" fill="#D46212"/>
<path d="M212.5 168.75H218.75V162.5H212.5V168.75Z" fill="#F79210"/>
<path d="M212.5 162.498H218.75V156.248H212.5V162.498Z" fill="#F79210"/>
<path d="M212.5 156.248H218.75V150H212.5V156.248Z" fill="#231F20"/>
<path d="M212.5 175H218.75V168.75H212.5V175Z" fill="#F79210"/>
<path d="M31.25 56.2504H37.4988V50H31.25V56.2504Z" fill="#8A4227"/>
<path d="M81.25 31.2504H87.5004V25.0004H81.25V31.2504Z" fill="#FABC09"/>
<path d="M50 31.2504H56.2488V25.0004H50.0004L50 31.2504Z" fill="#231F20"/>
<path d="M56.25 31.2504H62.5004L62.5 25.0004H56.25V31.2504Z" fill="#F79210"/>
<path d="M37.5 31.2504H43.7504V25.0004H37.5V31.2504Z" fill="#231F20"/>
<path d="M62.5004 31.2504H68.7504V25.0004H62.5L62.5004 31.2504Z" fill="#F79210"/>
<path d="M31.25 31.2504H37.4988V25.0004H31.25V31.2504Z" fill="#F79210"/>
<path d="M68.7504 31.2504H75.0004V25.0004H68.7504V31.2504Z" fill="#F79210"/>
<path d="M31.25 43.7488H37.4988V37.5H31.25V43.7488Z" fill="#F79210"/>
<path d="M31.25 37.5H37.4988V31.2504H31.25V37.5Z" fill="#F79210"/>
<path d="M43.7504 31.2504H50L50.0004 25.0004H43.7504V31.2504Z" fill="#F79210"/>
<path d="M87.5004 31.2504H93.7504V25L87.5004 25.0004V31.2504Z" fill="#231F20"/>
<path d="M75.0004 31.2504H81.2488V25.0004H75.0004V31.2504Z" fill="#F79210"/>
<path d="M162.5 200H168.75V193.75H162.5V200Z" fill="#231F20"/>
<path d="M93.75 200H99.9988V193.75H93.75V200Z" fill="#231F20"/>
<path d="M100 200H106.249V193.75H100V200Z" fill="#231F20"/>
<path d="M150 200H156.25V193.75H150V200Z" fill="#231F20"/>
<path d="M156.25 200H162.5V193.75H156.25V200Z" fill="#231F20"/>
<path d="M106.25 200H112.5V193.75H106.25V200Z" fill="#231F20"/>
<path d="M87.5 200H93.75V193.75H87.5V200Z" fill="#231F20"/>
<path d="M81.25 200H87.5V193.75H81.25V200Z" fill="#231F20"/>
<path d="M75 200H81.2488V193.75H75V200Z" fill="#231F20"/>
<path d="M68.75 200H75V193.75H68.75V200Z" fill="#231F20"/>
<path d="M199.996 193.75H206.246V187.5H199.996V193.75Z" fill="#D46212"/>
<path d="M199.996 143.75H206.246V137.5H199.996V143.75Z" fill="#FABC09"/>
<path d="M199.996 150H206.246V143.75H199.996V150Z" fill="#F79210"/>
<path d="M199.996 162.498H206.246V156.248H199.996V162.498Z" fill="#D46212"/>
<path d="M199.996 168.75H206.246V162.5H199.996V168.75Z" fill="#231F20"/>
<path d="M168.766 200H175.016V193.75H168.766V200Z" fill="#231F20"/>
<path d="M199.996 156.248H206.246V150H199.996V156.248Z" fill="#F79210"/>
<path d="M199.996 118.75H206.246V112.5H199.996V118.75Z" fill="#231F20"/>
<path d="M199.996 131.25H206.246V125H199.996V131.25Z" fill="#F79210"/>
<path d="M199.996 125H206.246V118.75H199.996V125Z" fill="#F79210"/>
<path d="M199.996 137.499H206.246V131.25H199.996V137.499Z" fill="#231F20"/>
<path d="M187.5 200H193.75V193.75H187.5V200Z" fill="#231F20"/>
<path d="M181.25 200H187.5V193.75H181.25V200Z" fill="#231F20"/>
<path d="M174.945 200H181.196V193.75H174.945V200Z" fill="#231F20"/>
<path d="M193.75 200H199.999V193.75H193.75V200Z" fill="#231F20"/>
<path d="M199.996 175H206.246V168.75H199.996V175Z" fill="#F79210"/>
<path d="M199.996 187.498H206.246V181.248H199.996V187.498Z" fill="#F79210"/>
<path d="M199.996 181.248H206.246V175H199.996V181.248Z" fill="#F79210"/>
<path d="M199.996 200H206.246V193.75H199.996V200Z" fill="#231F20"/>
<path d="M31.25 50H37.4988V43.75H31.25V50Z" fill="#F79210"/>
<path d="M206.25 181.249L212.5 181.248V175L206.25 175V181.249Z" fill="#231F20"/>
<path d="M206.25 175L212.5 175V168.75L206.25 168.75V175Z" fill="#231F20"/>
<path d="M206.25 193.75H212.5V187.5H206.25V193.75Z" fill="#D46212"/>
<path d="M206.25 187.498H212.5V181.248L206.25 181.249V187.498Z" fill="#F79210"/>
<path d="M206.25 200H212.5V193.75H206.25V200Z" fill="#231F20"/>
<path d="M206.25 168.75L212.5 168.75V162.5H206.25V168.75Z" fill="#D46212"/>
<path d="M206.25 150H212.5V143.75L206.25 143.75V150Z" fill="#F79210"/>
<path d="M206.25 143.75L212.5 143.75V137.5H206.25V143.75Z" fill="#231F20"/>
<path d="M31.25 62.5004H37.4988V56.2504H31.25V62.5004Z" fill="#8A4227"/>
<path d="M206.25 137.499H212.5V131.25H206.25V137.499Z" fill="#B8461C"/>
<path d="M206.25 162.498H212.5V156.248H206.25V162.498Z" fill="#F79210"/>
<path d="M206.25 118.75L212.5 118.75L212.5 112.5H206.25V118.75Z" fill="#231F20"/>
<path d="M206.25 125H212.5V118.75L206.25 118.75V125Z" fill="#FABC09"/>
<path d="M206.25 131.25H212.5V125H206.25V131.25Z" fill="#231F20"/>
<path d="M206.25 156.248H212.5V150H206.25V156.248Z" fill="#F79210"/>
<path d="M31.25 150H37.4988V143.75H31.25V150Z" fill="#231F20"/>
<path d="M31.25 156.25H37.4988V150H31.25V156.25Z" fill="#FABC09"/>
<path d="M31.25 162.499H37.4988V156.25H31.25V162.499Z" fill="#F79210"/>
<path d="M31.25 175H37.4988V168.75H31.25V175Z" fill="#231F20"/>
<path d="M31.25 168.75H37.4988V162.5H31.25V168.75Z" fill="#E7E3E2"/>
<path d="M31.25 75.0004H37.4988V68.75H31.25V75.0004Z" fill="white"/>
<path d="M31.25 81.2504H37.4988V75.0004H31.25V81.2504Z" fill="#231F20"/>
<path d="M31.25 87.4988H37.4988V81.2504H31.25V87.4988Z" fill="#E7E3E2"/>
<path d="M31.25 68.7488H37.4988V62.5004H31.25V68.7488Z" fill="white"/>
<path d="M31.25 93.7504H37.4988V87.5H31.25V93.7504Z" fill="#231F20"/>
<path d="M6.25 12.5004H12.4988V6.25H6.25V12.5004Z" fill="#231F20"/>
<path d="M6.25 50.0004H12.4988V43.75H6.25V50.0004Z" fill="#231F20"/>
<path d="M6.25 18.7488H12.4988V12.5004H6.25V18.7488Z" fill="#231F20"/>
<path d="M18.75 6.25039H25.0004V0H18.75V6.25039Z" fill="#231F20"/>
<path d="M6.25 43.7488H12.4988V37.5H6.25V43.7488Z" fill="#F79210"/>
<path d="M6.25 37.5H12.4988V31.25H6.25V37.5Z" fill="#FABC09"/>
<path d="M6.25 31.25H12.4988V25H6.25V31.25Z" fill="#231F20"/>
<path d="M68.75 6.25039H75.0004V0H68.75V6.25039Z" fill="#231F20"/>
<path d="M81.25 6.25039H87.5004V0H81.25V6.25039Z" fill="#231F20"/>
<path d="M62.5 6.25039H68.75V0H62.5V6.25039Z" fill="#231F20"/>
<path d="M75.0004 6.25039H81.2488V0H75.0004V6.25039Z" fill="#231F20"/>
<path d="M12.5 6.25039H18.75V0H12.5V6.25039Z" fill="#231F20"/>
<path d="M225 187.498H231.25V181.248H225V187.498Z" fill="#231F20"/>
<path d="M225 181.248H231.25V175H225V181.248Z" fill="#D46212"/>
<path d="M225 143.75H231.25V137.5H225V143.75Z" fill="#F79210"/>
<path d="M225 175H231.25V168.75H225V175Z" fill="#D46212"/>
<path d="M225 162.498H231.25V156.248H225V162.498Z" fill="#F79210"/>
<path d="M225 150H231.25V143.75H225V150Z" fill="#F79210"/>
<path d="M225 156.248H231.25V150H225V156.248Z" fill="#F79210"/>
<path d="M225 168.75H231.25V162.5H225V168.75Z" fill="#F79210"/>
<path d="M225 137.499H231.25V131.25H225V137.499Z" fill="#231F20"/>
<path d="M231.25 150H237.5V143.75L231.25 143.75V150Z" fill="#231F20"/>
<path d="M231.25 156.248L237.5 156.249V150H231.25V156.248Z" fill="#231F20"/>
<path d="M231.25 143.75L237.5 143.75V137.5H231.25V143.75Z" fill="#231F20"/>
<path d="M231.25 168.75L237.5 168.75V162.5H231.25V168.75Z" fill="#231F20"/>
<path d="M231.25 175L237.5 175V168.75L231.25 168.75V175Z" fill="#231F20"/>
<path d="M231.25 162.498H237.5V156.249L231.25 156.248V162.498Z" fill="#231F20"/>
<path d="M231.25 187.498H237.5V181.248H231.25V187.498Z" fill="#231F20"/>
<path d="M231.25 181.248H237.5V175L231.25 175V181.248Z" fill="#231F20"/>
<path d="M6.25 75.0004H12.4988V68.75H6.25V75.0004Z" fill="#E7E3E2"/>
<path d="M6.25 81.2504H12.4988V75.0004H6.25V81.2504Z" fill="#231F20"/>
<path d="M6.25 62.5004H12.4988V56.25H6.25V62.5004Z" fill="white"/>
<path d="M6.25 68.7488H12.4988V62.5004H6.25V68.7488Z" fill="white"/>
<path d="M6.25 56.25H12.4988V50.0004H6.25V56.25Z" fill="#F79210"/>
<path d="M218.75 131.25L224.999 131.25V125L218.75 125V131.25Z" fill="#231F20"/>
<path d="M218.75 137.499H224.999V131.25L218.75 131.25V137.499Z" fill="#FABC09"/>
<path d="M218.75 143.75H224.999V137.5H218.75V143.75Z" fill="#F79210"/>
<path d="M218.75 150H224.999V143.75H218.75V150Z" fill="#F79210"/>
<path d="M218.75 193.75H224.999V187.5H218.75V193.75Z" fill="#231F20"/>
<path d="M218.75 156.248L224.999 156.249V150H218.75V156.248Z" fill="#F79210"/>
<path d="M218.75 181.248L224.999 181.249V175L218.75 175V181.248Z" fill="#D46212"/>
<path d="M218.75 162.498H224.999V156.249L218.75 156.248V162.498Z" fill="#F79210"/>
<path d="M218.75 168.75H224.999V162.5H218.75V168.75Z" fill="#231F20"/>
<path d="M218.75 175L224.999 175V168.75H218.75V175Z" fill="#F79210"/>
<path d="M218.75 187.498H224.999V181.249L218.75 181.248V187.498Z" fill="#D46212"/>
<path d="M68.7504 12.5H75.0004V6.25039H68.75L68.7504 12.5Z" fill="#F79210"/>
<path d="M75.0004 12.5H81.2488V6.25039H75.0004V12.5Z" fill="#F79210"/>
<path d="M81.25 12.5H87.5004V6.25039H81.25V12.5Z" fill="#F79210"/>
<path d="M62.5004 12.5H68.7504L68.75 6.25039H62.5L62.5004 12.5Z" fill="#FABC09"/>
<path d="M87.5004 12.5H93.7504V6.25L87.5004 6.25039V12.5Z" fill="#231F20"/>
<path d="M56.25 12.5H62.5004L62.5 6.25039L56.25 6.25V12.5Z" fill="#231F20"/>
<path d="M12.5 68.7488H18.75V62.5H12.5V68.7488Z" fill="white"/>
<path d="M12.5 81.2504L18.75 81.25V75L12.5 75V81.2504Z" fill="#E7E3E2"/>
<path d="M12.5 62.5H18.75V56.2504L12.5 56.25V62.5Z" fill="white"/>
<path d="M12.5 75L18.75 75V68.75H12.5V75Z" fill="white"/>
<path d="M25 12.5H31.2488V6.25L25.0004 6.25039L25 12.5Z" fill="#231F20"/>
<path d="M12.5 87.4988H18.75V81.25L12.5 81.2504V87.4988Z" fill="#231F20"/>
<path d="M12.5 18.7488H18.75V12.5H12.5V18.7488Z" fill="#F79210"/>
<path d="M12.5 12.5H18.75V6.25039H12.5V12.5Z" fill="#FABC09"/>
<path d="M18.75 12.5H25L25.0004 6.25039H18.75V12.5Z" fill="#F79210"/>
<path d="M12.5 25.0004H18.75V18.75H12.5V25.0004Z" fill="#231F20"/>
<path d="M12.5 31.2504H18.75V25.0004H12.5V31.2504Z" fill="#FABC09"/>
<path d="M12.5 43.7488H18.75V37.5H12.5V43.7488Z" fill="#F79210"/>
<path d="M12.5 50.0004H18.75V43.75H12.5V50.0004Z" fill="#F79210"/>
<path d="M12.5 37.5H18.75V31.2504H12.5V37.5Z" fill="#F79210"/>
<path d="M12.5 56.25L18.75 56.2504V50.0004H12.5V56.25Z" fill="white"/>
<path d="M118.75 143.75H124.999V137.5H118.75V143.75Z" fill="#C8C4C3"/>
<path d="M124.996 68.7488H131.246V62.5H124.996V68.7488Z" fill="#F79210"/>
<path d="M131.25 68.7488H137.5V62.5H131.25V68.7488Z" fill="#FABC09"/>
<path d="M162.5 106.25H168.75V100H162.5V106.25Z" fill="#231F20"/>
<path d="M162.5 137.499H168.75V131.25H162.5V137.499Z" fill="#B8461C"/>
<path d="M162.5 131.25H168.75V125H162.5V131.25Z" fill="#231F20"/>
<path d="M162.5 93.7504H168.75V87.5H162.5V93.7504Z" fill="#231F20"/>
<path d="M162.5 143.75H168.75V137.5H162.5V143.75Z" fill="#231F20"/>
<path d="M162.5 125H168.75V118.75H162.5V125Z" fill="#FABC09"/>
<path d="M162.5 150H168.75V143.75H162.5V150Z" fill="#F79210"/>
<path d="M118.75 68.7488H124.999V62.5H118.75V68.7488Z" fill="#231F20"/>
<path d="M162.5 118.75H168.75V112.5H162.5V118.75Z" fill="#231F20"/>
<path d="M162.5 100H168.75V93.7504H162.5V100Z" fill="#FABC09"/>
<path d="M162.5 112.499H168.75V106.25H162.5V112.499Z" fill="#B8461C"/>
<path d="M68.75 87.4988H75.0004V81.25H68.75V87.4988Z" fill="#E7E3E2"/>
<path d="M68.75 100H75.0004V93.75H68.75V100Z" fill="#231F20"/>
<path d="M68.75 93.75H75.0004V87.5H68.75V93.75Z" fill="#231F20"/>
<path d="M68.75 125H75.0004V118.75H68.75V125Z" fill="#231F20"/>
<path d="M68.75 137.499H75.0004V131.25H68.75V137.499Z" fill="#F79210"/>
<path d="M68.75 143.75H75.0004V137.5H68.75V143.75Z" fill="#D46212"/>
<path d="M68.75 131.25H75.0004V125H68.75V131.25Z" fill="#F79210"/>
<path d="M162.5 156.249H168.75V150H162.5V156.249Z" fill="#F79210"/>
<path d="M100 68.7488H106.249V62.5H100V68.7488Z" fill="#F79210"/>
<path d="M112.5 68.7488H118.75V62.5H112.5V68.7488Z" fill="#B8461C"/>
<path d="M93.75 68.7488H99.9988V62.5H93.75V68.7488Z" fill="#D46212"/>
<path d="M68.75 81.25H75.0004V75H68.75V81.25Z" fill="white"/>
<path d="M106.25 68.7488H112.5V62.5H106.25V68.7488Z" fill="#231F20"/>
<path d="M87.5 68.7488H93.75V62.5H87.5V68.7488Z" fill="#F79210"/>
<path d="M68.75 68.7488H75.0004V62.5H68.75V68.7488Z" fill="white"/>
<path d="M68.75 75H75.0004V68.75H68.75V75Z" fill="white"/>
<path d="M81.25 68.7488H87.5V62.5H81.25V68.7488Z" fill="#D46212"/>
<path d="M75.0004 68.7488H81.2488V62.5H75.0004V68.7488Z" fill="white"/>
<path d="M75.0004 81.25L81.2488 81.2504V75L75.0004 75V81.25Z" fill="#E7E3E2"/>
<path d="M75.0004 75L81.2488 75V68.75H75.0004V75Z" fill="white"/>
<path d="M87.5 75.0004H93.7504V68.75H87.5V75.0004Z" fill="#D46212"/>
<path d="M81.25 75.0004H87.5V68.75H81.25V75.0004Z" fill="#D46212"/>
<path d="M75.0004 87.4988H81.2488V81.2504L75.0004 81.25V87.4988Z" fill="#231F20"/>
<path d="M75 112.499H81.2488V106.25H75V112.499Z" fill="#231F20"/>
<path d="M93.7504 75.0004H99.9988V68.75H93.7504V75.0004Z" fill="#F79210"/>
<path d="M75.0004 118.75L81.2488 118.75V112.5H75L75.0004 118.75Z" fill="#231F20"/>
<path d="M75.0004 100H81.2488V93.75H75.0004V100Z" fill="#D46212"/>
<path d="M75.0004 93.75H81.2488V87.5H75.0004V93.75Z" fill="#D46212"/>
<path d="M75 106.25H81.2488V100H75.0004L75 106.25Z" fill="#231F20"/>
<path d="M131.25 75.0004H137.5V68.75H131.25V75.0004Z" fill="#F79210"/>
<path d="M162.5 162.498H168.75V156.249H162.5V162.498Z" fill="#F79210"/>
<path d="M100 75.0004H106.249V68.75H100V75.0004Z" fill="#F79210"/>
<path d="M137.5 75.0004H143.75V68.75H137.5V75.0004Z" fill="#FABC09"/>
<path d="M124.996 75.0004H131.246V68.75H124.996V75.0004Z" fill="#F79210"/>
<path d="M106.25 75.0004H112.5V68.75H106.25V75.0004Z" fill="#F79210"/>
<path d="M112.5 75.0004H118.75V68.75H112.5V75.0004Z" fill="#231F20"/>
<path d="M118.75 75.0004H124.999V68.75H118.75V75.0004Z" fill="#F79210"/>
<path d="M143.75 75.0004H149.999V68.75H143.75V75.0004Z" fill="#231F20"/>
<path d="M100 162.499H106.249V156.25H100V162.499Z" fill="#F79210"/>
<path d="M106.25 156.25V162.498H112.5V156.248L106.25 156.25Z" fill="#231F20"/>
<path d="M75.0004 125H81.2488V118.75L75.0004 118.75V125Z" fill="#D46212"/>
<path d="M156.25 162.498H162.5V156.249L156.25 156.248V162.498Z" fill="#F79210"/>
<path d="M150 162.498H156.25V156.248H150V162.498Z" fill="#231F20"/>
<path d="M143.75 162.498H149.999V156.248H143.75V162.498Z" fill="#231F20"/>
<path d="M75.0004 137.499H81.2488V131.25H75.0004V137.499Z" fill="#D46212"/>
<path d="M75.0004 143.75H81.2488V137.5H75.0004V143.75Z" fill="#D46212"/>
<path d="M75.0004 131.25H81.2488V125H75.0004V131.25Z" fill="#D46212"/>
<path d="M75 150H81.2488V143.75H75.0004L75 150Z" fill="#231F20"/>
<path d="M81.25 162.499H87.5004V156.25H81.25V162.499Z" fill="#231F20"/>
<path d="M87.5004 162.499H93.7504V156.25H87.5004V162.499Z" fill="#F79210"/>
<path d="M68.75 150H75L75.0004 143.75H68.75V150Z" fill="#D46212"/>
<path d="M93.7504 162.499H99.9988V156.25H93.7504V162.499Z" fill="#F79210"/>
<path d="M81.25 156.25H87.5004V150H81.25V156.25Z" fill="#231F20"/>
<path d="M137.5 68.7488H143.75V62.5H137.5V68.7488Z" fill="#231F20"/>
<path d="M62.5 87.4988H68.75V81.25H62.5V87.4988Z" fill="#E7E3E2"/>
<path d="M62.5 62.5004L68.75 62.5L68.7504 56.25H62.5V62.5004Z" fill="white"/>
<path d="M62.5 93.7504L68.75 93.75V87.5H62.5V93.7504Z" fill="#231F20"/>
<path d="M62.5 75.0004L68.75 75V68.75H62.5V75.0004Z" fill="white"/>
<path d="M62.5 68.7488H68.75V62.5L62.5 62.5004V68.7488Z" fill="white"/>
<path d="M62.5 81.25H68.75V75L62.5 75.0004V81.25Z" fill="white"/>
<path d="M118.75 62.5H124.999V56.25H118.75V62.5Z" fill="#F79210"/>
<path d="M100 62.5H106.249V56.25H100V62.5Z" fill="#F79210"/>
<path d="M112.5 62.5H118.75V56.25H112.5V62.5Z" fill="#231F20"/>
<path d="M106.25 62.5H112.5V56.25H106.25V62.5Z" fill="#F79210"/>
<path d="M62.5 125H68.75V118.75H62.5V125Z" fill="#231F20"/>
<path d="M87.5 62.5H93.75L93.7504 56.25H87.5V62.5Z" fill="#F79210"/>
<path d="M81.25 62.5H87.5V56.25H81.25V62.5Z" fill="#231F20"/>
<path d="M125 62.5004L131.25 62.5L131.25 56.25H125V62.5004Z" fill="#FABC09"/>
<path d="M93.75 62.5H99.9988V56.25H93.7504L93.75 62.5Z" fill="#F79210"/>
<path d="M68.75 62.5H75.0004V56.25H68.7504L68.75 62.5Z" fill="white"/>
<path d="M75.0004 62.5H81.2488V56.25H75.0004V62.5Z" fill="#F79210"/>
<path d="M106.25 168.75V175H112.5V168.75H106.25Z" fill="#231F20"/>
<path d="M100 175H106.249V168.75H100V175Z" fill="#F79210"/>
<path d="M93.75 175H99.9988V168.75H93.75V175Z" fill="#231F20"/>
<path d="M81.25 175H87.5004V168.75H81.25V175Z" fill="#231F20"/>
<path d="M87.5004 175H93.75V168.75H87.5004V175Z" fill="#F79210"/>
<path d="M62.5 150H68.75V143.75L62.5 143.75V150Z" fill="#D46212"/>
<path d="M62.5 143.75L68.75 143.75V137.5H62.5V143.75Z" fill="#F79210"/>
<path d="M62.5 156.25H68.7504L68.75 150H62.5V156.25Z" fill="#231F20"/>
<path d="M62.5 137.499H68.75V131.25H62.5V137.499Z" fill="#231F20"/>
<path d="M62.5 131.25H68.75V125H62.5V131.25Z" fill="#FABC09"/>
<path d="M156.25 168.75H162.5V162.5H156.25V168.75Z" fill="#231F20"/>
<path d="M168.75 168.75H174.999V162.5H168.75V168.75Z" fill="#F79210"/>
<path d="M168.75 162.498H174.999V156.248L168.75 156.249V162.498Z" fill="#F79210"/>
<path d="M162.5 168.75H168.75V162.5H162.5V168.75Z" fill="#F79210"/>
<path d="M68.7504 156.25H75.0004L75 150H68.75L68.7504 156.25Z" fill="#231F20"/>
<path d="M168.75 156.249L174.999 156.248V150L168.75 150V156.249Z" fill="#231F20"/>
<path d="M81.25 168.75H87.5004V162.5H81.25V168.75Z" fill="#231F20"/>
<path d="M87.5004 168.75H93.75L93.7504 162.5H87.5004V168.75Z" fill="#F79210"/>
<path d="M106.25 162.5V168.75H112.5V162.5H106.25Z" fill="#231F20"/>
<path d="M100 168.75H106.249V162.5H100V168.75Z" fill="#F79210"/>
<path d="M93.75 168.75H99.9988V162.5H93.7504L93.75 168.75Z" fill="#F79210"/>
<path d="M131.25 62.5H137.5V56.25H131.25L131.25 62.5Z" fill="#231F20"/>
<path d="M168.75 150L174.999 150V143.75L168.75 143.75V150Z" fill="#F79210"/>
<path d="M168.75 137.499H174.999V131.25H168.75V137.499Z" fill="#231F20"/>
<path d="M168.75 131.25H174.999V125H168.75V131.25Z" fill="#F79210"/>
<path d="M168.75 143.75L174.999 143.75V137.5H168.75V143.75Z" fill="#F79210"/>
<path d="M168.75 125H174.999V118.75H168.75V125Z" fill="#FABC09"/>
<path d="M168.75 100L174.999 100V93.75L168.75 93.7504V100Z" fill="#231F20"/>
<path d="M168.75 118.75H174.999V112.5H168.75V118.75Z" fill="#231F20"/>
<path d="M168.75 106.25L174.999 106.25V100L168.75 100V106.25Z" fill="#FABC09"/>
<path d="M168.75 112.499H174.999V106.25L168.75 106.25V112.499Z" fill="#231F20"/>
<path d="M124.996 125H131.246V118.75H124.996V125Z" fill="#F79210"/>
<path d="M93.75 93.7504H99.9988V87.5H93.75V93.7504Z" fill="#231F20"/>
<path d="M93.75 100H99.9988V93.7504H93.75V100Z" fill="#F79210"/>
<path d="M93.75 137.499H99.9988V131.25H93.75V137.499Z" fill="#231F20"/>
<path d="M100 93.7504H106.249V87.5H100V93.7504Z" fill="#B8461C"/>
<path d="M106.25 93.7504H112.5V87.5H106.25V93.7504Z" fill="#231F20"/>
<path d="M93.75 106.25H99.9988V100H93.75V106.25Z" fill="#F79210"/>
<path d="M93.75 112.499H99.9988V106.25H93.75V112.499Z" fill="#231F20"/>
<path d="M93.75 125H99.9988V118.75H93.75V125Z" fill="#F79210"/>
<path d="M93.75 131.25H99.9988V125H93.75V131.25Z" fill="#F79210"/>
<path d="M93.75 118.75H99.9988V112.5H93.75V118.75Z" fill="#F79210"/>
<path d="M112.5 93.7504H118.75V87.5H112.5V93.7504Z" fill="#F79210"/>
<path d="M137.5 112.499H143.75V106.25H137.5V112.499Z" fill="#231F20"/>
<path d="M118.75 93.7504H124.999V87.5H118.75V93.7504Z" fill="#F79210"/>
<path d="M137.5 118.75H143.75V112.5H137.5V118.75Z" fill="#F79210"/>
<path d="M137.5 131.25H143.75V125H137.5V131.25Z" fill="#F79210"/>
<path d="M137.5 125H143.75V118.75H137.5V125Z" fill="#F79210"/>
<path d="M137.5 106.25H143.75V100H137.5V106.25Z" fill="#B8461C"/>
<path d="M124.996 93.7504H131.246V87.5H124.996V93.7504Z" fill="#231F20"/>
<path d="M131.25 93.7504H137.5V87.5H131.25V93.7504Z" fill="#F79210"/>
<path d="M137.5 93.7504H143.75V87.5H137.5V93.7504Z" fill="#F79210"/>
<path d="M137.5 100H143.75V93.7504H137.5L137.5 100Z" fill="#231F20"/>
<path d="M143.75 125L149.999 125V118.75L143.75 118.75V125Z" fill="#F79210"/>
<path d="M143.75 112.499H149.999V106.25H143.75V112.499Z" fill="#F79210"/>
<path d="M143.75 106.25H149.999V100L143.75 100V106.25Z" fill="#231F20"/>
<path d="M143.75 118.75L149.999 118.75V112.5H143.75V118.75Z" fill="#F79210"/>
<path d="M143.75 100L149.999 100V93.75L143.75 93.7504V100Z" fill="#F79210"/>
<path d="M137.5 137.499H143.75V131.25H137.5V137.499Z" fill="#D46212"/>
<path d="M100 137.499H106.249V131.25H100V137.499Z" fill="#F79210"/>
<path d="M143.75 93.7504L149.999 93.75V87.5H143.75V93.7504Z" fill="#F79210"/>
<path d="M137.5 87.4988H143.75V81.25H137.5V87.4988Z" fill="#F79210"/>
<path d="M143.75 87.4988H149.999V81.25H143.75V87.4988Z" fill="#231F20"/>
<path d="M131.25 87.4988H137.5V81.25H131.25V87.4988Z" fill="#231F20"/>
<path d="M112.5 143.75H118.75V137.5H112.5V143.75Z" fill="#231F20"/>
<path d="M106.25 137.5V143.75H112.5V137.5H106.25Z" fill="#231F20"/>
<path d="M100 143.75H106.249V137.5H100V143.75Z" fill="#F79210"/>
<path d="M143.75 137.499H149.999V131.25L143.75 131.25V137.499Z" fill="#231F20"/>
<path d="M137.5 143.75H143.75V137.5H137.5V143.75Z" fill="#D46212"/>
<path d="M143.75 143.75H149.999V137.5H143.75V143.75Z" fill="#231F20"/>
<path d="M131.25 143.75H137.5V137.5H131.25V143.75Z" fill="white"/>
<path d="M124.996 143.75H131.246V137.5H124.996V143.75Z" fill="#C8C4C3"/>
<path d="M131.25 137.499H137.5V131.25L131.25 131.25V137.499Z" fill="#D46212"/>
<path d="M106.25 118.75H112.5V112.5H106.25V118.75Z" fill="#F79210"/>
<path d="M106.25 112.499H112.5V106.25H106.25V112.499Z" fill="#F79210"/>
<path d="M124.996 87.4988H131.246V81.25H124.996V87.4988Z" fill="#B8461C"/>
<path d="M106.25 106.25H112.5V100H106.25V106.25Z" fill="#F79210"/>
<path d="M106.25 125H112.5V118.75H106.25V125Z" fill="#D46212"/>
<path d="M118.75 106.25H124.999V100H118.75V106.25Z" fill="#F79210"/>
<path d="M124.996 131.25H131.246V125H124.996V131.25Z" fill="#D46212"/>
<path d="M131.25 131.25L137.5 131.25V125H131.25V131.25Z" fill="#F79210"/>
<path d="M118.75 131.25H124.999V125H118.75V131.25Z" fill="white"/>
<path d="M112.5 131.25H118.75V125L112.5 125L112.5 131.25Z" fill="#231F20"/>
<path d="M112.5 125L118.75 125L118.75 118.75L112.5 118.75V125Z" fill="#231F20"/>
<path d="M118.75 118.75L124.999 118.75V112.5H118.75L118.75 118.75Z" fill="#F79210"/>
<path d="M112.5 118.75L118.75 118.75L118.75 112.5H112.5V118.75Z" fill="#D46212"/>
<path d="M112.5 112.499H118.75L118.75 106.25L112.5 106.25V112.499Z" fill="#F79210"/>
<path d="M118.75 112.499H124.999V106.25H118.75L118.75 112.499Z" fill="#F79210"/>
<path d="M124.996 106.25H131.246V100H124.996V106.25Z" fill="#F79210"/>
<path d="M124.996 118.75H131.246V112.5H124.996V118.75Z" fill="#F79210"/>
<path d="M118.75 125H124.999V118.75L118.75 118.75L118.75 125Z" fill="#D46212"/>
<path d="M124.996 112.499H131.246V106.25H124.996V112.499Z" fill="#F79210"/>
<path d="M112.5 106.25L118.75 106.25V100L112.5 100V106.25Z" fill="#F79210"/>
<path d="M100 125H106.249V118.75H100V125Z" fill="#F79210"/>
<path d="M106.25 131.25H112.5L112.5 125H106.25V131.25Z" fill="#D46212"/>
<path d="M100 131.25H106.249V125H100V131.25Z" fill="#F79210"/>
<path d="M100 118.75H106.249V112.5H100V118.75Z" fill="#F79210"/>
<path d="M100 112.499H106.249V106.25H100V112.499Z" fill="#F79210"/>
<path d="M106.25 137.499H112.5L112.5 131.25H106.25V137.499Z" fill="#231F20"/>
<path d="M118.75 137.499H124.999V131.25H118.75V137.499Z" fill="white"/>
<path d="M124.996 137.499H131.246V131.25H124.996V137.499Z" fill="white"/>
<path d="M100 106.25H106.249V100H100V106.25Z" fill="#F79210"/>
<path d="M112.5 137.499H118.75V131.25H112.5L112.5 137.499Z" fill="#C8C4C3"/>
<path d="M118.75 100H124.999V93.7504H118.75L118.75 100Z" fill="#F79210"/>
<path d="M131.25 100L137.5 100L137.5 93.7504H131.25V100Z" fill="#F79210"/>
<path d="M131.25 112.499H137.5V106.25H131.25V112.499Z" fill="#F79210"/>
<path d="M131.25 106.25H137.5V100L131.25 100V106.25Z" fill="#231F20"/>
<path d="M131.25 118.75H137.5V112.5H131.25V118.75Z" fill="#F79210"/>
<path d="M112.5 100L118.75 100L118.75 93.7504H112.5V100Z" fill="#F79210"/>
<path d="M106.25 100H112.5V93.7504H106.25V100Z" fill="#F79210"/>
<path d="M100 100H106.249V93.7504H100V100Z" fill="#231F20"/>
<path d="M124.996 100H131.246V93.7504H124.996V100Z" fill="#F79210"/>
<path d="M131.25 125H137.5V118.75H131.25V125Z" fill="#F79210"/>
<path d="M143.75 131.25L149.999 131.25V125L143.75 125V131.25Z" fill="#231F20"/>
<path d="M81.25 137.499H87.5004V131.25H81.25V137.499Z" fill="#231F20"/>
<path d="M81.25 131.25H87.5004V125H81.25V131.25Z" fill="#231F20"/>
<path d="M81.25 143.75H87.5004V137.5H81.25V143.75Z" fill="#231F20"/>
<path d="M81.25 125H87.5004V118.75H81.25V125Z" fill="#231F20"/>
<path d="M81.25 118.75H87.5004V112.5H81.25V118.75Z" fill="#231F20"/>
<path d="M87.5004 156.25H93.7504V150H87.5004V156.25Z" fill="#F79210"/>
<path d="M81.25 150H87.5004V143.75H81.25V150Z" fill="#231F20"/>
<path d="M81.25 112.499H87.5004V106.25H81.25V112.499Z" fill="#F79210"/>
<path d="M93.7504 156.25H99.9988V150H93.7504V156.25Z" fill="#231F20"/>
<path d="M87.5004 150H93.7504V143.75L87.5004 143.75V150Z" fill="#231F20"/>
<path d="M93.75 81.2504H99.9988V75.0004H93.7504L93.75 81.2504Z" fill="#F79210"/>
<path d="M100 156.25H106.249V150H100V156.25Z" fill="#F79210"/>
<path d="M100 81.2504H106.249V75.0004H100V81.2504Z" fill="#F79210"/>
<path d="M106.25 81.2504H112.5V75.0004H106.25V81.2504Z" fill="#F79210"/>
<path d="M87.5 81.2504L93.75 81.2504L93.7504 75.0004H87.5V81.2504Z" fill="#D46212"/>
<path d="M81.25 87.4988H87.5004L87.5 81.2504L81.25 81.25V87.4988Z" fill="#D46212"/>
<path d="M81.25 81.25L87.5 81.2504V75.0004H81.25V81.25Z" fill="#231F20"/>
<path d="M81.25 93.7504H87.5004V87.5H81.25V93.7504Z" fill="#F79210"/>
<path d="M81.25 100H87.5004V93.7504H81.25V100Z" fill="#F79210"/>
<path d="M81.25 106.25H87.5004V100H81.25V106.25Z" fill="#F79210"/>
<path d="M106.25 150V156.25L112.5 156.248V150H106.25Z" fill="#231F20"/>
<path d="M156.25 118.75L162.5 118.75V112.5H156.25V118.75Z" fill="#F79210"/>
<path d="M156.25 112.499H162.5V106.25L156.25 106.25V112.499Z" fill="#231F20"/>
<path d="M156.25 125L162.5 125V118.75L156.25 118.75V125Z" fill="#231F20"/>
<path d="M156.25 131.25L162.5 131.25V125L156.25 125V131.25Z" fill="#FABC09"/>
<path d="M112.5 81.2504H118.75V75.0004H112.5V81.2504Z" fill="#F79210"/>
<path d="M156.25 100L162.5 100V93.7504L156.25 93.75V100Z" fill="#F79210"/>
<path d="M156.25 106.25L162.5 106.25V100L156.25 100V106.25Z" fill="#F79210"/>
<path d="M156.25 93.75L162.5 93.7504V87.5H156.25V93.75Z" fill="#FABC09"/>
<path d="M156.25 87.4988H162.5V81.25H156.25V87.4988Z" fill="#231F20"/>
<path d="M156.25 143.75H162.5V137.5H156.25V143.75Z" fill="#F79210"/>
<path d="M156.25 137.499H162.5V131.25L156.25 131.25V137.499Z" fill="#231F20"/>
<path d="M131.25 156.249H137.5V150H131.25V156.249Z" fill="#231F20"/>
<path d="M156.25 150H162.5V143.75H156.25V150Z" fill="#F79210"/>
<path d="M150 156.248H156.25V150L150 150V156.248Z" fill="#D46212"/>
<path d="M156.25 156.248L162.5 156.249V150H156.25V156.248Z" fill="#F79210"/>
<path d="M137.5 156.249L143.75 156.248L143.75 150H137.5V156.249Z" fill="#231F20"/>
<path d="M143.75 156.248H149.999V150H143.75L143.75 156.248Z" fill="#231F20"/>
<path d="M87.5004 137.499H93.75V131.25H87.5004V137.499Z" fill="#F79210"/>
<path d="M93.7504 143.75L99.9988 143.75V137.5H93.75L93.7504 143.75Z" fill="#F79210"/>
<path d="M118.75 81.2504L124.999 81.2504V75.0004H118.75V81.2504Z" fill="#F79210"/>
<path d="M118.75 87.4988H124.999V81.2504L118.75 81.2504L118.75 87.4988Z" fill="#231F20"/>
<path d="M87.5004 131.25H93.75V125L87.5004 125V131.25Z" fill="#231F20"/>
<path d="M87.5004 125L93.75 125V118.75H87.5004V125Z" fill="#F79210"/>
<path d="M100 150H106.249V143.75H100V150Z" fill="#F79210"/>
<path d="M106.25 143.75V150H112.5L112.5 143.75H106.25Z" fill="#231F20"/>
<path d="M93.7504 150H99.9988V143.75L93.7504 143.75V150Z" fill="#F79210"/>
<path d="M87.5004 118.75H93.75V112.5H87.5004V118.75Z" fill="#F79210"/>
<path d="M87.5004 106.25L93.75 106.25V100H87.5004V106.25Z" fill="#231F20"/>
<path d="M87.5004 112.499H93.75V106.25L87.5004 106.25V112.499Z" fill="#F79210"/>
<path d="M100 87.4988H106.249V81.2504H100V87.4988Z" fill="#231F20"/>
<path d="M106.25 87.4988H112.5V81.2504H106.25V87.4988Z" fill="#F79210"/>
<path d="M112.5 87.4988H118.75L118.75 81.2504H112.5V87.4988Z" fill="#F79210"/>
<path d="M93.75 87.4988H99.9988V81.2504H93.75V87.4988Z" fill="#F79210"/>
<path d="M87.5004 100H93.75V93.7504H87.5004V100Z" fill="#F79210"/>
<path d="M118.75 150H124.999V143.75H118.75V150Z" fill="#231F20"/>
<path d="M87.5004 87.4988H93.75V81.2504L87.5 81.2504L87.5004 87.4988Z" fill="#F79210"/>
<path d="M87.5004 93.7504H93.75V87.5H87.5004V93.7504Z" fill="#F79210"/>
<path d="M87.5004 143.75L93.7504 143.75L93.75 137.5H87.5004V143.75Z" fill="#F79210"/>
<path d="M150 93.7504L156.25 93.75V87.5H150V93.7504Z" fill="#231F20"/>
<path d="M150 87.4988H156.25V81.25H150V87.4988Z" fill="#B8461C"/>
<path d="M150 106.25L156.25 106.25V100L150 100V106.25Z" fill="#F79210"/>
<path d="M150 100L156.25 100V93.75L150 93.7504V100Z" fill="#F79210"/>
<path d="M150 81.25H156.25L156.25 75H150V81.25Z" fill="#231F20"/>
<path d="M124.996 150H131.246V143.75H124.996V150Z" fill="#231F20"/>
<path d="M124.996 81.25H131.246V75.0004H124.996V81.25Z" fill="#231F20"/>
<path d="M131.25 81.25H137.5L137.5 75.0004H131.25V81.25Z" fill="#F79210"/>
<path d="M143.75 81.25H149.999V75.0004H143.75V81.25Z" fill="#FABC09"/>
<path d="M137.5 81.25H143.75V75.0004H137.5L137.5 81.25Z" fill="#F79210"/>
<path d="M150 112.499H156.25V106.25L150 106.25V112.499Z" fill="#F79210"/>
<path d="M143.75 150H149.999V143.75H143.75V150Z" fill="#231F20"/>
<path d="M137.5 150H143.75V143.75H137.5L137.5 150Z" fill="white"/>
<path d="M150 150L156.25 150V143.75L150 143.75V150Z" fill="#F79210"/>
<path d="M150 118.75H156.25V112.5H150V118.75Z" fill="#F79210"/>
<path d="M131.25 150H137.5L137.5 143.75H131.25V150Z" fill="#C8C4C3"/>
<path d="M150 131.25H156.25V125L150 125V131.25Z" fill="#FABC09"/>
<path d="M150 143.75L156.25 143.75V137.5H150V143.75Z" fill="#F79210"/>
<path d="M150 125L156.25 125V118.75H150V125Z" fill="#231F20"/>
<path d="M150 137.499H156.25V131.25H150V137.499Z" fill="#FABC09"/>
<path d="M43.75 156.25H50.0004V150H43.75V156.25Z" fill="#F79210"/>
<path d="M43.75 143.75H50.0004V137.5H43.75V143.75Z" fill="#FABC09"/>
<path d="M43.75 93.7504H49.9988V87.5H43.75V93.7504Z" fill="#231F20"/>
<path d="M43.75 150H50.0004V143.75H43.75V150Z" fill="#231F20"/>
<path d="M43.75 137.499H50.0004V131.25H43.75V137.499Z" fill="#231F20"/>
<path d="M43.75 43.7488H50.0004V37.5H43.75V43.7488Z" fill="#F79210"/>
<path d="M43.75 50.0004H50.0004V43.75H43.75V50.0004Z" fill="#F79210"/>
<path d="M50.0004 43.7488H56.2488V37.5H50.0004V43.7488Z" fill="#F79210"/>
<path d="M56.25 43.7488H62.5004V37.5H56.25V43.7488Z" fill="#231F20"/>
<path d="M43.75 87.4988H49.9988V81.25H43.75V87.4988Z" fill="#E7E3E2"/>
<path d="M43.75 81.25H49.9988V75H43.75V81.25Z" fill="#231F20"/>
<path d="M43.75 75H49.9988V68.75H43.75V75Z" fill="white"/>
<path d="M43.75 62.5004H50.0004V56.25H43.75V62.5004Z" fill="#8A4227"/>
<path d="M43.75 68.7488H50.0004V62.5004H43.75V68.7488Z" fill="white"/>
<path d="M43.75 175H50.0004V168.75H43.75V175Z" fill="#231F20"/>
<path d="M43.75 162.499H50.0004V156.25H43.75V162.499Z" fill="#F79210"/>
<path d="M93.75 193.75H99.9988V187.5H93.75V193.75Z" fill="#231F20"/>
<path d="M81.25 193.75H87.5L87.5004 187.5H81.25V193.75Z" fill="#231F20"/>
<path d="M75 193.75H81.2488V187.5H75V193.75Z" fill="#E7E3E2"/>
<path d="M87.5 193.75H93.75V187.5H87.5004L87.5 193.75Z" fill="#E7E3E2"/>
<path d="M106.25 193.75H112.5V187.5H106.25V193.75Z" fill="#231F20"/>
<path d="M100 193.75H106.249V187.5H100V193.75Z" fill="#E7E3E2"/>
<path d="M62.5004 43.7488H68.7488V37.5H62.5004V43.7488Z" fill="#F79210"/>
<path d="M43.75 168.75H50.0004V162.5H43.75V168.75Z" fill="#E7E3E2"/>
<path d="M68.75 193.75H75V187.5H68.75V193.75Z" fill="#231F20"/>
<path d="M43.75 56.25H50.0004V50.0004H43.75V56.25Z" fill="#8A4227"/>
<path d="M187.5 118.75H193.75V112.5H187.5V118.75Z" fill="#F79210"/>
<path d="M187.5 112.499H193.75V106.25H187.5V112.499Z" fill="#231F20"/>
<path d="M187.5 168.75H193.75V162.5H187.5V168.75Z" fill="#F79210"/>
<path d="M187.5 162.498H193.75V156.248H187.5V162.498Z" fill="#F79210"/>
<path d="M187.5 156.248H193.75V150H187.5V156.248Z" fill="#231F20"/>
<path d="M187.5 175H193.75V168.75H187.5V175Z" fill="#F79210"/>
<path d="M187.5 131.25H193.75V125H187.5V131.25Z" fill="#FABC09"/>
<path d="M187.5 137.499H193.75V131.25H187.5V137.499Z" fill="#F79210"/>
<path d="M187.5 150H193.75V143.75H187.5V150Z" fill="#F79210"/>
<path d="M187.5 125H193.75V118.75H187.5V125Z" fill="#231F20"/>
<path d="M81.25 43.7488H87.5004V37.5H81.25V43.7488Z" fill="#F79210"/>
<path d="M93.75 43.7488H99.9988V37.5H93.75V43.7488Z" fill="#231F20"/>
<path d="M87.5004 43.7488H93.75V37.5H87.5004V43.7488Z" fill="#F79210"/>
<path d="M75 43.7488H81.2488V37.5H75V43.7488Z" fill="#F79210"/>
<path d="M68.75 43.7488H75V37.5H68.75V43.7488Z" fill="#F79210"/>
<path d="M37.5 150L43.75 150V143.75L37.5 143.75V150Z" fill="#FABC09"/>
<path d="M56.25 37.5H62.5004V31.2504H56.25V37.5Z" fill="#231F20"/>
<path d="M50.0004 37.5H56.2488V31.2504H50L50.0004 37.5Z" fill="#F79210"/>
<path d="M68.75 37.5H75L75.0004 31.2504H68.7504L68.75 37.5Z" fill="#F79210"/>
<path d="M43.75 37.5H50.0004L50 31.2504H43.7504L43.75 37.5Z" fill="#F79210"/>
<path d="M62.5004 37.5H68.75L68.7504 31.2504H62.5004V37.5Z" fill="#F79210"/>
<path d="M37.5 56.2504L43.75 56.25V50.0004L37.5 50V56.2504Z" fill="#8A4227"/>
<path d="M37.5 50L43.75 50.0004V43.75H37.5V50Z" fill="#F79210"/>
<path d="M37.5 37.5004L43.75 37.5L43.7504 31.2504H37.5V37.5004Z" fill="#F79210"/>
<path d="M37.5 43.7488H43.75V37.5L37.5 37.5004V43.7488Z" fill="#F79210"/>
<path d="M37.5 62.5004H43.75V56.25L37.5 56.2504V62.5004Z" fill="#8A4227"/>
<path d="M81.25 37.5H87.5004V31.2504H81.25V37.5Z" fill="#F79210"/>
<path d="M87.5004 37.5L93.7488 37.5004V31.25L87.5004 31.2504V37.5Z" fill="#231F20"/>
<path d="M37.5 156.25H43.75V150L37.5 150V156.25Z" fill="#F79210"/>
<path d="M187.5 181.249H193.75V175H187.5V181.249Z" fill="#F79210"/>
<path d="M37.5 162.499H43.75V156.25H37.5V162.499Z" fill="#F79210"/>
<path d="M37.5 143.75L43.75 143.75V137.5H37.5V143.75Z" fill="#231F20"/>
<path d="M37.5 68.7488H43.75V62.5004H37.5V68.7488Z" fill="white"/>
<path d="M37.5 175H43.75V168.75H37.5V175Z" fill="#231F20"/>
<path d="M37.5 168.75H43.75V162.5H37.5V168.75Z" fill="#231F20"/>
<path d="M37.5 93.7504H43.75V87.5H37.5V93.7504Z" fill="#231F20"/>
<path d="M37.5 87.4988H43.75V81.25H37.5V87.4988Z" fill="#E7E3E2"/>
<path d="M37.5 81.25H43.75V75H37.5V81.25Z" fill="white"/>
<path d="M37.5 75H43.75V68.75H37.5V75Z" fill="#231F20"/>
<path d="M75 37.5H81.25V31.2504H75.0004L75 37.5Z" fill="#F79210"/>
<path d="M193.75 156.248L199.999 156.249V150H193.75V156.248Z" fill="#D46212"/>
<path d="M193.75 150H199.999V143.75H193.75V150Z" fill="#F79210"/>
<path d="M193.75 162.498H199.999V156.249L193.75 156.248V162.498Z" fill="#231F20"/>
<path d="M193.75 175H199.999V168.75L193.75 168.75V175Z" fill="#F79210"/>
<path d="M193.75 168.75L199.999 168.75V162.5H193.75V168.75Z" fill="#F79210"/>
<path d="M193.75 181.249L199.999 181.249V175H193.75V181.249Z" fill="#F79210"/>
<path d="M193.75 118.75H199.999V112.5H193.75V118.75Z" fill="#FABC09"/>
<path d="M193.75 131.25H199.999V125H193.75V131.25Z" fill="#231F20"/>
<path d="M193.75 143.75H199.999V137.5H193.75L193.75 143.75Z" fill="#F79210"/>
<path d="M193.75 137.499H199.999V131.25H193.75V137.499Z" fill="#FABC09"/>
<path d="M193.75 125H199.999V118.75H193.75V125Z" fill="#F79210"/>
<path d="M168.75 193.75L174.999 193.75V187.5H168.75L168.75 193.75Z" fill="#E7E3E2"/>
<path d="M156.25 193.75H162.5L162.5 187.5H156.25L156.25 193.75Z" fill="#E7E3E2"/>
<path d="M162.5 193.75H168.75L168.75 187.5H162.5L162.5 193.75Z" fill="#231F20"/>
<path d="M193.75 187.498H199.999V181.249L193.75 181.249L193.75 187.498Z" fill="#F79210"/>
<path d="M150 193.75H156.25L156.25 187.5H150V193.75Z" fill="#231F20"/>
<path d="M193.75 193.75H199.999V187.5H193.75L193.75 193.75Z" fill="#D46212"/>
<path d="M187.5 193.75H193.75L193.75 187.5H187.5V193.75Z" fill="#E7E3E2"/>
<path d="M181.25 193.75H187.5V187.5H181.25V193.75Z" fill="#E7E3E2"/>
<path d="M175 193.75L181.25 193.75V187.5H175V193.75Z" fill="#231F20"/>
<path d="M193.75 112.499H199.999V106.25H193.75V112.499Z" fill="#231F20"/>
<path d="M187.5 143.75H193.75L193.75 137.5H187.5V143.75Z" fill="#231F20"/>
<path d="M56.25 156.25H62.5V150L56.25 150V156.25Z" fill="#D46212"/>
<path d="M56.25 143.75L62.5 143.75V137.5H56.25V143.75Z" fill="#231F20"/>
<path d="M56.25 137.499H62.5V131.25H56.25V137.499Z" fill="#FABC09"/>
<path d="M56.25 131.25H62.5V125L56.25 125V131.25Z" fill="#231F20"/>
<path d="M56.25 150L62.5 150V143.75L56.25 143.75V150Z" fill="#F79210"/>
<path d="M56.25 162.499H62.5004L62.5 156.25H56.25V162.499Z" fill="#231F20"/>
<path d="M56.25 81.2504L62.5 81.25V75.0004L56.25 75V81.2504Z" fill="white"/>
<path d="M56.25 75L62.5 75.0004V68.75H56.25V75Z" fill="#231F20"/>
<path d="M56.25 87.4988H62.5V81.25L56.25 81.2504V87.4988Z" fill="#E7E3E2"/>
<path d="M56.25 62.5004H62.5V56.25H56.25V62.5004Z" fill="white"/>
<path d="M56.25 68.7488H62.5V62.5004H56.25V68.7488Z" fill="white"/>
<path d="M56.25 93.7504H62.5V87.5H56.25V93.7504Z" fill="#231F20"/>
<path d="M156.25 181.249H162.5V175H156.25V181.249Z" fill="#231F20"/>
<path d="M162.5 181.249H168.75V175H162.5V181.249Z" fill="#231F20"/>
<path d="M56.25 56.25H62.5L62.5004 50H56.25V56.25Z" fill="white"/>
<path d="M181.25 175H187.5V168.75L181.25 168.75V175Z" fill="#231F20"/>
<path d="M181.25 181.249H187.5V175H181.25V181.249Z" fill="#F79210"/>
<path d="M175 181.249H181.25V175L175 175V181.249Z" fill="#D46212"/>
<path d="M168.75 181.249L174.999 181.249V175L168.75 175V181.249Z" fill="#231F20"/>
<path d="M87.5 181.249H93.7504L93.75 175H87.5004L87.5 181.249Z" fill="#F79210"/>
<path d="M81.25 181.249H87.5L87.5004 175H81.25V181.249Z" fill="#FABC09"/>
<path d="M75 181.249H81.2488V175H75V181.249Z" fill="#231F20"/>
<path d="M93.7504 181.249L99.9988 181.249V175H93.75L93.7504 181.249Z" fill="#F79210"/>
<path d="M106.25 181.249H112.5V175H106.25V181.249Z" fill="#231F20"/>
<path d="M100 181.249H106.249V175H100V181.249Z" fill="#F79210"/>
<path d="M175 106.25H181.25V100H175V106.25Z" fill="#231F20"/>
<path d="M181.25 168.75L187.5 168.75V162.5H181.25V168.75Z" fill="#F79210"/>
<path d="M175 118.75H181.25V112.5H175V118.75Z" fill="#231F20"/>
<path d="M62.5 56.25H68.7504V50H62.5004L62.5 56.25Z" fill="white"/>
<path d="M175 125H181.25V118.75H175V125Z" fill="#FABC09"/>
<path d="M175 137.499H181.25V131.25H175V137.499Z" fill="#F79210"/>
<path d="M175 131.25H181.25V125H175V131.25Z" fill="#F79210"/>
<path d="M168.75 175L174.999 175V168.75H168.75L168.75 175Z" fill="#D46212"/>
<path d="M162.5 175H168.75L168.75 168.75H162.5V175Z" fill="#231F20"/>
<path d="M175 175L181.25 175V168.75H175V175Z" fill="#F79210"/>
<path d="M187.5 187.498H193.75L193.75 181.249H187.5V187.498Z" fill="#F79210"/>
<path d="M175 150H181.25V143.75H175V150Z" fill="#F79210"/>
<path d="M175 156.249H181.25V150H175V156.249Z" fill="#F79210"/>
<path d="M175 168.75H181.25V162.5H175V168.75Z" fill="#231F20"/>
<path d="M175 143.75H181.25V137.5H175V143.75Z" fill="#F79210"/>
<path d="M175 112.499H181.25V106.25H175V112.499Z" fill="#F79210"/>
<path d="M100 56.25H106.249V50H100V56.25Z" fill="#FABC09"/>
<path d="M93.7504 56.25H99.9988V50H93.75L93.7504 56.25Z" fill="#231F20"/>
<path d="M106.25 56.25H112.5L112.5 50H106.25V56.25Z" fill="#FABC09"/>
<path d="M125 56.25H131.25V50H125V56.25Z" fill="#231F20"/>
<path d="M118.75 56.25H124.999V50H118.75V56.25Z" fill="#FABC09"/>
<path d="M112.5 56.25H118.75V50L112.5 50L112.5 56.25Z" fill="#FABC09"/>
<path d="M75.0004 56.25H81.2488V50H75L75.0004 56.25Z" fill="#F79210"/>
<path d="M87.5 56.25H93.7504L93.75 50L87.5 50V56.25Z" fill="#F79210"/>
<path d="M68.7504 56.25H75.0004L75 50H68.7504V56.25Z" fill="#F79210"/>
<path d="M81.25 56.25H87.5V50H81.25V56.25Z" fill="#F79210"/>
<path d="M175 162.498H181.25V156.249H175V162.498Z" fill="#F79210"/>
<path d="M50.0004 156.25H56.2488V150H50.0004V156.25Z" fill="#F79210"/>
<path d="M50.0004 137.499H56.2488V131.25H50.0004V137.499Z" fill="#231F20"/>
<path d="M50.0004 143.75H56.2488V137.5H50.0004V143.75Z" fill="#F79210"/>
<path d="M50.0004 162.499H56.2488V156.25H50.0004V162.499Z" fill="#E7E3E2"/>
<path d="M50.0004 68.7488H56.25V62.5004H50.0004V68.7488Z" fill="white"/>
<path d="M50.0004 168.75L56.2488 168.75V162.5H50.0004V168.75Z" fill="#231F20"/>
<path d="M50.0004 150H56.2488V143.75H50.0004V150Z" fill="#F79210"/>
<path d="M50 93.7504H56.2488V87.5H50V93.7504Z" fill="#231F20"/>
<path d="M50 81.2504H56.2488V75H50V81.2504Z" fill="#231F20"/>
<path d="M50 75H56.2488V68.75H50V75Z" fill="white"/>
<path d="M50 87.4988H56.2488V81.2504H50V87.4988Z" fill="#E7E3E2"/>
<path d="M156.25 187.498H162.5V181.249H156.25V187.498Z" fill="#FABC09"/>
<path d="M150 187.498H156.25V181.249L150 181.248V187.498Z" fill="#231F20"/>
<path d="M175 187.498H181.25L181.25 181.249H175V187.498Z" fill="#F79210"/>
<path d="M181.25 187.498H187.5V181.249H181.25L181.25 187.498Z" fill="#F79210"/>
<path d="M168.75 187.498H174.999V181.249L168.75 181.249L168.75 187.498Z" fill="#F79210"/>
<path d="M162.5 187.498H168.75L168.75 181.249H162.5V187.498Z" fill="#F79210"/>
<path d="M93.75 187.498H99.9988V181.249L93.7504 181.249L93.75 187.498Z" fill="#F79210"/>
<path d="M75 187.498H81.2488V181.249H75V187.498Z" fill="#FABC09"/>
<path d="M87.5 187.498H93.75L93.7504 181.249H87.5V187.498Z" fill="#F79210"/>
<path d="M81.25 187.498H87.5V181.249H81.25V187.498Z" fill="#F79210"/>
<path d="M68.75 187.498H75V181.249L68.75 181.248V187.498Z" fill="#231F20"/>
<path d="M106.25 187.498H112.5V181.249H106.25V187.498Z" fill="#231F20"/>
<path d="M100 187.498H106.249V181.249H100V187.498Z" fill="#F79210"/>
<path d="M56.25 50H62.5004V43.75H56.25V50Z" fill="#FABC09"/>
<path d="M181.25 137.499H187.5V131.25L181.25 131.25V137.499Z" fill="#231F20"/>
<path d="M181.25 150L187.5 150V143.75H181.25V150Z" fill="#231F20"/>
<path d="M181.25 143.75H187.5V137.5H181.25V143.75Z" fill="#F79210"/>
<path d="M181.25 156.249L187.5 156.248V150L181.25 150V156.249Z" fill="#F79210"/>
<path d="M181.25 118.75H187.5V112.5H181.25V118.75Z" fill="#F79210"/>
<path d="M181.25 112.499H187.5V106.25L181.25 106.25V112.499Z" fill="#FABC09"/>
<path d="M181.25 106.25L187.5 106.25L187.5 100H181.25V106.25Z" fill="#231F20"/>
<path d="M181.25 131.25L187.5 131.25V125L181.25 125V131.25Z" fill="#F79210"/>
<path d="M181.25 125L187.5 125V118.75H181.25V125Z" fill="#231F20"/>
<path d="M106.25 50H112.5V43.75H106.25V50Z" fill="#231F20"/>
<path d="M75 50H81.2488V43.75H75V50Z" fill="#231F20"/>
<path d="M81.25 50H87.5L87.5004 43.75H81.25V50Z" fill="#F79210"/>
<path d="M68.7504 50H75V43.75H68.75L68.7504 50Z" fill="#F79210"/>
<path d="M87.5 50L93.75 50L93.7504 43.75H87.5004L87.5 50Z" fill="#F79210"/>
<path d="M93.75 50H99.9988V43.75H93.7504L93.75 50Z" fill="#231F20"/>
<path d="M100 50H106.249V43.75H100V50Z" fill="#231F20"/>
<path d="M50.0004 56.25L56.2488 56.2504V50L50.0004 50.0004V56.25Z" fill="#8A4227"/>
<path d="M62.5004 50H68.7504L68.75 43.75H62.5004V50Z" fill="#FABC09"/>
<path d="M50.0004 50.0004L56.2488 50V43.75H50.0004V50.0004Z" fill="#F79210"/>
<path d="M181.25 162.498H187.5V156.248L181.25 156.249V162.498Z" fill="#F79210"/>
<path d="M112.5 50L118.75 50L118.75 43.75H112.5V50Z" fill="#231F20"/>
<path d="M118.75 50H125L125 43.75H118.75L118.75 50Z" fill="#231F20"/>
<path d="M50.0004 62.5004H56.25V56.25H50.0004V62.5004Z" fill="white"/>
<path d="M262.5 81.2504H268.749V75H262.5V81.2504Z" fill="#231F20"/>
<path d="M262.5 75H268.749V68.75H262.5V75Z" fill="#231F20"/>
<path d="M262.5 168.75H268.749V162.5H262.5V168.75Z" fill="#231F20"/>
<path d="M262.5 68.7488H268.749V62.5H262.5V68.7488Z" fill="#231F20"/>
<path d="M262.5 143.75H268.749V137.5H262.5V143.75Z" fill="#231F20"/>
<path d="M262.5 156.249H268.749V150H262.5V156.249Z" fill="#231F20"/>
<path d="M262.5 162.498H268.749V156.249H262.5V162.498Z" fill="#231F20"/>
<path d="M262.5 150H268.749V143.75H262.5V150Z" fill="#231F20"/>
<path d="M262.5 137.499H268.749V131.25H262.5V137.499Z" fill="#231F20"/>
<path d="M274.996 75.0004H281.237V68.75H274.996V75.0004Z" fill="#231F20"/>
<path d="M274.996 87.4988H281.237V81.25H274.996V87.4988Z" fill="#231F20"/>
<path d="M274.996 81.25H281.237V75.0004H274.996V81.25Z" fill="#F79210"/>
<path d="M281.238 81.2504H287.481V75H281.238V81.2504Z" fill="#231F20"/>
<path d="M268.75 75.0004H275V68.75H268.75V75.0004Z" fill="#F79210"/>
<path d="M268.75 81.2504H275V75.0004H268.75V81.2504Z" fill="#231F20"/>
<path d="M268.75 68.7488H275V62.5H268.75V68.7488Z" fill="#231F20"/>
<path d="M243.746 106.25H249.996V100H243.746V106.25Z" fill="#F79210"/>
<path d="M243.746 112.499H249.996V106.25H243.746V112.499Z" fill="#231F20"/>
<path d="M243.746 100H249.996V93.75H243.746V100Z" fill="#F79210"/>
<path d="M243.746 125H249.996V118.75H243.746V125Z" fill="#F79210"/>
<path d="M243.746 93.75H249.996V87.5H243.746V93.75Z" fill="#231F20"/>
<path d="M243.746 81.2504H249.996V75H243.746V81.2504Z" fill="#231F20"/>
<path d="M243.746 87.4988H249.996V81.2504H243.746V87.4988Z" fill="#FABC09"/>
<path d="M243.746 131.25H249.996V125H243.746V131.25Z" fill="#231F20"/>
<path d="M243.746 118.75H249.996V112.5H243.746V118.75Z" fill="#F79210"/>
<path d="M243.746 181.249H249.996V175H243.746V181.249Z" fill="#D46212"/>
<path d="M243.746 187.498H249.996V181.249H243.746V187.498Z" fill="#231F20"/>
<path d="M243.746 175H249.996V168.75H243.746V175Z" fill="#231F20"/>
<path d="M0 56.2504L6.25 56.25V50.0004L0 50V56.2504Z" fill="#231F20"/>
<path d="M0 43.7488H6.25V37.5H0V43.7488Z" fill="#231F20"/>
<path d="M0 50L6.25 50.0004V43.75H0V50Z" fill="#231F20"/>
<path d="M0 37.5H6.25V31.25H0V37.5Z" fill="#231F20"/>
<path d="M0 75.0004H6.25V68.75H0V75.0004Z" fill="#231F20"/>
<path d="M0 62.5004H6.25V56.25L0 56.2504V62.5004Z" fill="#231F20"/>
<path d="M0 68.7488H6.25V62.5004H0V68.7488Z" fill="#231F20"/>
<path d="M237.5 175H243.749V168.75L237.5 168.75V175Z" fill="#231F20"/>
<path d="M237.5 187.498H243.749V181.248H237.5V187.498Z" fill="#231F20"/>
<path d="M237.5 181.248H243.749V175H237.5V181.248Z" fill="#D46212"/>
<path d="M237.5 125H243.749V118.75H237.5V125Z" fill="#231F20"/>
<path d="M237.5 112.499H243.749V106.25H237.5V112.499Z" fill="#231F20"/>
<path d="M237.5 106.25H243.749V100H237.5V106.25Z" fill="#231F20"/>
<path d="M237.5 118.75H243.749V112.5H237.5V118.75Z" fill="#231F20"/>
<path d="M237.5 100H243.749V93.75H237.5V100Z" fill="#231F20"/>
<path d="M237.5 93.75H243.749V87.5H237.5V93.75Z" fill="#231F20"/>
<path d="M237.5 87.4988H243.749V81.25H237.5V87.4988Z" fill="#231F20"/>
<path d="M256.25 150L262.5 150V143.75L256.25 143.75V150Z" fill="#F79210"/>
<path d="M256.25 137.499H262.5V131.25H256.25V137.499Z" fill="#F79210"/>
<path d="M256.25 143.75L262.5 143.75V137.5H256.25V143.75Z" fill="#231F20"/>
<path d="M256.25 131.25H262.5L262.5 125H256.25V131.25Z" fill="#231F20"/>
<path d="M256.25 156.249H262.5V150L256.25 150V156.249Z" fill="#F79210"/>
<path d="M256.25 168.75H262.5V162.5H256.25V168.75Z" fill="#D46212"/>
<path d="M256.25 162.498H262.5V156.249H256.25V162.498Z" fill="#231F20"/>
<path d="M256.25 175H262.5L262.5 168.75H256.25V175Z" fill="#231F20"/>
<path d="M256.25 81.2504H262.5V75H256.25V81.2504Z" fill="#231F20"/>
<path d="M256.25 68.7488H262.5V62.5H256.25V68.7488Z" fill="#231F20"/>
<path d="M256.25 75H262.5V68.75H256.25V75Z" fill="#FABC09"/>
<path d="M250 81.2504H256.25V75H250V81.2504Z" fill="#FABC09"/>
<path d="M250 87.4988H256.25L256.25 81.2504H250V87.4988Z" fill="#231F20"/>
<path d="M250 93.7504H256.25V87.5H250V93.7504Z" fill="#231F20"/>
<path d="M250 100H256.25V93.7504H250V100Z" fill="#231F20"/>
<path d="M250 106.25H256.25V100H250V106.25Z" fill="#231F20"/>
<path d="M250 75H256.25V68.75H250V75Z" fill="#231F20"/>
<path d="M250 112.499H256.25V106.25H250V112.499Z" fill="#231F20"/>
<path d="M250 156.249H256.25V150L250 150V156.249Z" fill="#231F20"/>
<path d="M250 162.498H256.25V156.249H250V162.498Z" fill="#231F20"/>
<path d="M250 150L256.25 150V143.75H250V150Z" fill="#231F20"/>
<path d="M250 168.75H256.25V162.5H250V168.75Z" fill="#231F20"/>
<path d="M250 118.75H256.25V112.5H250V118.75Z" fill="#231F20"/>
<path d="M250 131.25L256.25 131.25V125H250V131.25Z" fill="#F79210"/>
<path d="M250 125H256.25L256.25 118.75H250V125Z" fill="#231F20"/>
<path d="M250 143.75H256.25V137.5H250V143.75Z" fill="#231F20"/>
<path d="M250 137.499H256.25V131.25L250 131.25V137.499Z" fill="#231F20"/>
<path d="M250 175H256.25V168.75H250V175Z" fill="#D46212"/>
<path d="M250 181.249H256.25L256.25 175H250V181.249Z" fill="#231F20"/>
</svg>
