<svg width="154" height="230" viewBox="0 0 154 230" fill="none" xmlns="http://www.w3.org/2000/svg">
<path d="M51.3313 223.614H44.9142V217.224H51.3313V223.614Z" fill="#231F20"/>
<path d="M57.747 223.614H51.3313V217.224H57.747V223.614Z" fill="#F9A70D"/>
<path d="M44.9157 223.614H38.4985V217.224H44.9157V223.614Z" fill="#E1850F"/>
<path d="M76.9985 223.614H70.5829V217.224H76.9985V223.614Z" fill="#231F20"/>
<path d="M64.1672 223.614H57.75V217.224H64.1672V223.614Z" fill="#F9A70D"/>
<path d="M25.6687 223.614H19.2515V217.224H25.6687V223.614Z" fill="#231F20"/>
<path d="M38.5 223.614H32.0844V217.224H38.5V223.614Z" fill="#231F20"/>
<path d="M32.0844 223.614H25.6672V217.224H32.0844V223.614Z" fill="#231F20"/>
<path d="M70.5829 223.614H64.1657V217.224H70.5829V223.614Z" fill="#F9A70D"/>
<path d="M19.2485 223.614H12.8313V217.224H19.2485V223.614Z" fill="#231F20"/>
<path d="M121.917 223.611H115.5V217.222H121.917V223.611Z" fill="#231F20"/>
<path d="M83.4187 223.614H77.0015V217.224H83.4187V223.614Z" fill="#231F20"/>
<path d="M115.501 217.224V223.614H109.084V217.224H115.501Z" fill="#E1850F"/>
<path d="M109.081 223.614H102.664V217.224H109.081V223.614Z" fill="#231F20"/>
<path d="M96.25 223.614H89.8328V217.224H96.25V223.614Z" fill="#F9A70D"/>
<path d="M89.8343 223.614H83.4172V217.224H89.8343V223.614Z" fill="#F9A70D"/>
<path d="M102.666 223.611H96.2501V217.222H102.666V223.611Z" fill="#F9A70D"/>
<path d="M121.917 31.9432H115.5V25.5538H121.917V31.9432Z" fill="#FBC707"/>
<path d="M102.666 31.9432H96.2501V25.5538H102.666V31.9432Z" fill="#231F20"/>
<path d="M128.333 31.9432H121.917V25.5538H128.333V31.9432Z" fill="#FBC707"/>
<path d="M109.081 31.9432H102.664V25.5538H109.081V31.9432Z" fill="#FBC707"/>
<path d="M115.501 31.9432H109.084V25.5538H115.501V31.9432Z" fill="#FBC707"/>
<path d="M141.169 31.9432H134.752V25.5538H141.169V31.9432Z" fill="#FBC707"/>
<path d="M147.584 31.9432H141.167V25.5538H147.584V31.9432Z" fill="#231F20"/>
<path d="M83.4187 31.9432H77.0015V25.5538H83.4187V31.9432Z" fill="white"/>
<path d="M64.1672 31.9432H57.75V25.5538H64.1672V31.9432Z" fill="#231F20"/>
<path d="M96.2501 31.9432H89.8328V25.5538H96.2501V31.9432Z" fill="white"/>
<path d="M89.8343 31.9432H83.4172V25.5538H89.8343V31.9432Z" fill="white"/>
<path d="M70.5828 31.9432H64.1657V25.5538H70.5828V31.9432Z" fill="white"/>
<path d="M76.9985 31.9432H70.5828V25.5538H76.9985V31.9432Z" fill="white"/>
<path d="M134.748 31.9432H128.331V25.5538H134.748V31.9432Z" fill="#FBC707"/>
<path d="M141.169 25.5538H134.752V19.1637H141.169V25.5538Z" fill="#231F20"/>
<path d="M102.666 25.5553H96.2501V19.1659H102.666V25.5553Z" fill="white"/>
<path d="M96.2501 25.5538H89.8328V19.1637H96.25L96.2501 25.5538Z" fill="white"/>
<path d="M89.8343 25.5538H83.4172V19.1637H89.8343V25.5538Z" fill="#231F20"/>
<path d="M83.4187 25.5538H77.0015V19.1637H83.4187V25.5538Z" fill="white"/>
<path d="M128.333 25.5538H121.917L121.917 19.1637H128.333V25.5538Z" fill="#231F20"/>
<path d="M121.917 25.5553H115.5V19.1659H121.917V25.5553Z" fill="#231F20"/>
<path d="M109.081 25.5538H102.664V19.1637H109.081V25.5538Z" fill="#231F20"/>
<path d="M134.748 25.5538H128.331V19.1637H134.748V25.5538Z" fill="#231F20"/>
<path d="M115.501 25.5538H109.084V19.1637H115.501V25.5538Z" fill="#231F20"/>
<path d="M76.9985 25.5538H70.5828L70.5829 19.1637H76.9985V25.5538Z" fill="white"/>
<path d="M6.41716 210.835H0V204.444H6.41716V210.835Z" fill="#231F20"/>
<path d="M64.1672 25.5538H57.75V19.1637H64.1672V25.5538Z" fill="#231F20"/>
<path d="M70.5828 25.5538H64.1657V19.1637H70.5829L70.5828 25.5538Z" fill="white"/>
<path d="M83.4187 38.3333H77.0015V31.9432H83.4187V38.3333Z" fill="white"/>
<path d="M70.5828 38.3333H64.1657V31.9432H70.5828V38.3333Z" fill="white"/>
<path d="M76.9985 38.3333H70.5828V31.9432H76.9985V38.3333Z" fill="white"/>
<path d="M64.1672 38.3333H57.75V31.9432H64.1672V38.3333Z" fill="#231F20"/>
<path d="M141.169 38.3333H134.752V31.9432H141.169V38.3333Z" fill="#F9A70D"/>
<path d="M89.8343 38.3333H83.4172V31.9432H89.8343V38.3333Z" fill="white"/>
<path d="M154 38.3331H147.584L147.584 31.9432L154 31.9437V38.3331Z" fill="#231F20"/>
<path d="M109.081 38.3333H102.664V31.9432H109.081V38.3333Z" fill="#F9A70D"/>
<path d="M115.501 38.3333H109.084V31.9432H115.501V38.3333Z" fill="#F9A70D"/>
<path d="M102.666 38.3331H96.25L96.2501 31.9432H102.666L102.666 38.3331Z" fill="#FBC707"/>
<path d="M96.25 38.3331L89.8328 38.3333V31.9432H96.2501L96.25 38.3331Z" fill="#231F20"/>
<path d="M134.748 38.3333H128.331V31.9432H134.748V38.3333Z" fill="#F9A70D"/>
<path d="M147.584 38.3331L141.167 38.3333V31.9432H147.584L147.584 38.3331Z" fill="#FBC707"/>
<path d="M121.917 38.3331H115.5L115.5 31.9432H121.917L121.917 38.3331Z" fill="#F9A70D"/>
<path d="M128.333 38.3333L121.917 38.3331L121.917 31.9432H128.333V38.3333Z" fill="#F9A70D"/>
<path d="M102.666 210.835H96.25V204.444H102.666V210.835Z" fill="#231F20"/>
<path d="M96.25 210.835L89.8328 210.835V204.444L96.25 204.444V210.835Z" fill="#F9A70D"/>
<path d="M57.747 210.835H51.3314V204.444H57.747V210.835Z" fill="#231F20"/>
<path d="M70.5828 210.835H64.1657V204.444H70.5828V210.835Z" fill="#231F20"/>
<path d="M64.1672 210.835H57.75V204.444H64.1672V210.835Z" fill="#F9A70D"/>
<path d="M89.8343 210.835H83.4172V204.444H89.8343V210.835Z" fill="#231F20"/>
<path d="M19.2485 204.444H12.8313V198.056H19.2485V204.444Z" fill="white"/>
<path d="M32.0843 210.835H25.6672V204.444H32.0843V210.835Z" fill="white"/>
<path d="M38.5 210.835H32.0843V204.444H38.5V210.835Z" fill="#DDD9D8"/>
<path d="M44.9743 210.835H38.5572V204.444H44.9743V210.835Z" fill="#231F20"/>
<path d="M25.6687 210.835H19.2515V204.444H25.6687V210.835Z" fill="#231F20"/>
<path d="M19.2485 198.058H12.8313V191.668H19.2485V198.058Z" fill="#231F20"/>
<path d="M19.2485 210.835H12.8313V204.444H19.2485V210.835Z" fill="#DDD9D8"/>
<path d="M12.8328 204.444L6.41716 204.444L6.41727 198.056H12.8328V204.444Z" fill="#231F20"/>
<path d="M12.8328 210.835H6.41716V204.444L12.8328 204.444V210.835Z" fill="#DDD9D8"/>
<path d="M70.5829 217.224H64.1657V210.836H70.5828L70.5829 217.224Z" fill="#231F20"/>
<path d="M12.8328 217.224H6.41727V210.836H12.8328V217.224Z" fill="#231F20"/>
<path d="M57.747 217.224H51.3313L51.3314 210.836H57.747V217.224Z" fill="#231F20"/>
<path d="M44.9157 217.224H38.4985V210.836H44.9157V217.224Z" fill="#231F20"/>
<path d="M51.3313 217.224H44.9142V210.836H51.3314L51.3313 217.224Z" fill="#231F20"/>
<path d="M64.1672 217.224H57.75V210.836H64.1672V217.224Z" fill="#F9A70D"/>
<path d="M32.0844 217.224H25.6672V210.836H32.0843L32.0844 217.224Z" fill="#DDD9D8"/>
<path d="M25.6687 217.224H19.2515V210.836H25.6687V217.224Z" fill="#DDD9D8"/>
<path d="M19.2485 217.224H12.8313V210.836H19.2485V217.224Z" fill="#231F20"/>
<path d="M38.5 217.224H32.0844L32.0843 210.836H38.5V217.224Z" fill="#231F20"/>
<path d="M109.081 217.224H102.664V210.836H109.081V217.224Z" fill="#231F20"/>
<path d="M115.501 217.224H109.084V210.836H115.501V217.224Z" fill="#231F20"/>
<path d="M89.8343 217.224H83.4172V210.836H89.8343V217.224Z" fill="#231F20"/>
<path d="M102.666 217.222H96.2501L96.25 210.835H102.666L102.666 217.222Z" fill="#231F20"/>
<path d="M96.25 217.224H89.8328V210.836H96.25V217.224Z" fill="#F9A70D"/>
<path d="M89.8343 12.7773H83.4172V6.38789H89.8343V12.7773Z" fill="white"/>
<path d="M83.4187 12.7773H77.0015V6.38789H83.4187V12.7773Z" fill="white"/>
<path d="M96.25 12.7773H89.8328V6.38789H96.25V12.7773Z" fill="white"/>
<path d="M70.5828 12.7773H64.1657V6.38789H70.5828V12.7773Z" fill="white"/>
<path d="M76.9985 12.7773H70.5828V6.38789H76.9985V12.7773Z" fill="white"/>
<path d="M102.666 12.7771L96.25 12.7773V6.38789L102.666 6.38776V12.7771Z" fill="white"/>
<path d="M115.501 12.7773H109.084V6.38789H115.501V12.7773Z" fill="white"/>
<path d="M64.1672 12.7773H57.75V6.38789H64.1672V12.7773Z" fill="#231F20"/>
<path d="M121.917 12.7771H115.5V6.38776H121.917V12.7771Z" fill="#231F20"/>
<path d="M109.081 12.7773H102.664V6.38789H109.081V12.7773Z" fill="white"/>
<path d="M44.9157 230H38.4985V223.612H44.9157V230Z" fill="#231F20"/>
<path d="M38.5 230H32.0844V223.612H38.5V230Z" fill="#231F20"/>
<path d="M70.5828 230H64.1657V223.612H70.5828V230Z" fill="#231F20"/>
<path d="M64.1672 230H57.75V223.612H64.1672V230Z" fill="#231F20"/>
<path d="M57.747 230H51.3314V223.612H57.747V230Z" fill="#231F20"/>
<path d="M51.3314 230H44.9142V223.612H51.3314V230Z" fill="#231F20"/>
<path d="M109.081 230H102.664V223.612H109.081V230Z" fill="#231F20"/>
<path d="M121.917 230H115.5L115.5 223.611H121.917L121.917 230Z" fill="#231F20"/>
<path d="M115.501 223.612V230H109.084V223.612H115.501Z" fill="#231F20"/>
<path d="M83.4187 230H77.0015V223.612H83.4187V230Z" fill="#231F20"/>
<path d="M102.666 230H96.25L96.2501 223.611H102.666L102.666 230Z" fill="#231F20"/>
<path d="M89.8343 230H83.4172V223.612H89.8343V230Z" fill="#231F20"/>
<path d="M76.9985 230H70.5828V223.612H76.9985V230Z" fill="#231F20"/>
<path d="M96.25 230L89.8328 230V223.612L96.2501 223.611L96.25 230Z" fill="#231F20"/>
<path d="M64.1672 19.1637H57.75V12.7758H64.1672V19.1637Z" fill="#231F20"/>
<path d="M128.333 19.1637H121.917V12.7758H128.333V19.1637Z" fill="#231F20"/>
<path d="M83.4187 19.1637H77.0015V12.7758H83.4187V19.1637Z" fill="white"/>
<path d="M76.9985 19.1637H70.5829V12.7758H76.9985V19.1637Z" fill="white"/>
<path d="M121.917 19.1659H115.5L115.5 12.7771H121.917L121.917 19.1659Z" fill="white"/>
<path d="M70.5829 19.1637H64.1657V12.7758H70.5829V19.1637Z" fill="white"/>
<path d="M89.8343 19.1637H83.4172V12.7758H89.8343V19.1637Z" fill="#231F20"/>
<path d="M115.501 19.1637H109.084V12.7758H115.501V19.1637Z" fill="white"/>
<path d="M96.25 19.1637H89.8328V12.7758H96.25V19.1637Z" fill="white"/>
<path d="M109.081 19.1637H102.664V12.7758H109.081V19.1637Z" fill="#231F20"/>
<path d="M102.666 19.1659H96.2501L96.25 12.7773L102.666 12.7771L102.666 19.1659Z" fill="white"/>
<path d="M102.666 153.332H96.2501V146.944H102.666V153.332Z" fill="#914629"/>
<path d="M57.747 95.8333H51.3314V89.444H57.747V95.8333Z" fill="#743228"/>
<path d="M57.747 76.6652H51.3314V70.2758H57.747V76.6652Z" fill="#DDD9D8"/>
<path d="M70.5828 76.6652H64.1657V70.2758H70.5828V76.6652Z" fill="white"/>
<path d="M57.747 83.0553H51.3314V76.6652H57.747V83.0553Z" fill="#DDD9D8"/>
<path d="M57.747 89.444H51.3314V83.0553H57.747V89.444Z" fill="#231F20"/>
<path d="M64.1672 76.6652H57.75V70.2758H64.1672V76.6652Z" fill="white"/>
<path d="M96.25 76.6652H89.8328V70.2758H96.25V76.6652Z" fill="white"/>
<path d="M76.9985 76.6652H70.5828V70.2758H76.9985V76.6652Z" fill="white"/>
<path d="M89.8298 76.6652H83.4127V70.2758H89.8298V76.6652Z" fill="white"/>
<path d="M64.1672 83.0553H57.75V76.6652H64.1672V83.0553Z" fill="white"/>
<path d="M57.747 115H51.3314V108.612H57.747V115Z" fill="#914629"/>
<path d="M57.747 146.944H51.3314V140.556H57.747V146.944Z" fill="#914629"/>
<path d="M57.747 140.556H51.3314V134.166H57.747V140.556Z" fill="#914629"/>
<path d="M57.747 102.221H51.3314V95.8318H57.747V102.221Z" fill="#231F20"/>
<path d="M57.747 153.332H51.3314V146.944H57.747V153.332Z" fill="#743228"/>
<path d="M57.747 134.166H51.3314V127.778H57.747V134.166Z" fill="#914629"/>
<path d="M57.747 159.723H51.3314V153.334H57.747V159.723Z" fill="#231F20"/>
<path d="M102.666 76.6652H96.25V70.2758H102.666V76.6652Z" fill="white"/>
<path d="M57.747 127.778H51.3314V121.388H57.747V127.778Z" fill="#914629"/>
<path d="M57.747 108.612H51.3314V102.221H57.747V108.612Z" fill="#AB5B27"/>
<path d="M57.747 121.389H51.3314V115H57.747V121.389Z" fill="#914629"/>
<path d="M154 115H147.584V108.612H154V115Z" fill="#231F20"/>
<path d="M154 121.389H147.584V115H154V121.389Z" fill="#231F20"/>
<path d="M154 127.777H147.584V121.388H154V127.777Z" fill="#231F20"/>
<path d="M154 108.612H147.584V102.222H154L154 108.612Z" fill="#231F20"/>
<path d="M154 134.166H147.584V127.777H154L154 134.166Z" fill="#231F20"/>
<path d="M154 146.944H147.584V140.556H154V146.944Z" fill="#231F20"/>
<path d="M154 153.333H147.584V146.944H154V153.333Z" fill="#231F20"/>
<path d="M154 140.556H147.584V134.166H154L154 140.556Z" fill="#231F20"/>
<path d="M57.747 166.112H51.3314V159.723H57.747V166.112Z" fill="#231F20"/>
<path d="M121.917 76.6652H115.5V70.2758H121.917V76.6652Z" fill="white"/>
<path d="M109.081 76.6652H102.664V70.2758H109.081V76.6652Z" fill="white"/>
<path d="M128.333 76.6652H121.917V70.2758H128.333V76.6652Z" fill="#231F20"/>
<path d="M115.501 76.6652H109.084V70.2758H115.501V76.6652Z" fill="white"/>
<path d="M147.584 166.112H141.167V159.724H147.584V166.112Z" fill="#231F20"/>
<path d="M134.748 83.0553H128.331V76.6659H134.748V83.0553Z" fill="#231F20"/>
<path d="M147.584 121.389H141.167V115L147.584 115V121.389Z" fill="#914629"/>
<path d="M128.333 83.0553H121.917L121.917 76.6652H128.333V83.0553Z" fill="white"/>
<path d="M147.584 127.777H141.167V121.388H147.584V127.777Z" fill="#914629"/>
<path d="M147.584 108.612L141.167 108.611V102.222L147.584 102.222V108.612Z" fill="#AB5B27"/>
<path d="M147.584 102.222L141.167 102.222V95.8318H147.584L147.584 102.222Z" fill="#231F20"/>
<path d="M147.584 115L141.167 115V108.611L147.584 108.612V115Z" fill="#914629"/>
<path d="M89.8298 83.0553H83.4127V76.6652H89.8298V83.0553Z" fill="white"/>
<path d="M57.747 172.502H51.3314V166.112H57.747V172.502Z" fill="#743228"/>
<path d="M121.917 83.0553L115.5 83.0555L115.5 76.6652H121.917L121.917 83.0553Z" fill="#DDD9D8"/>
<path d="M70.5828 83.0553H64.1657V76.6652H70.5828V83.0553Z" fill="#DDD9D8"/>
<path d="M83.4187 83.0553H77.0015V76.6659H83.4187V83.0553Z" fill="#DDD9D8"/>
<path d="M96.25 83.0553H89.8328V76.6652H96.25V83.0553Z" fill="#DDD9D8"/>
<path d="M115.501 83.0553H109.084V76.6652H115.501V83.0553Z" fill="white"/>
<path d="M109.081 83.0553H102.664V76.6652H109.081V83.0553Z" fill="#DDD9D8"/>
<path d="M102.666 83.0555L96.25 83.0553V76.6652H102.666L102.666 83.0555Z" fill="white"/>
<path d="M76.9985 83.0553H70.5828V76.6652H76.9985V83.0553Z" fill="white"/>
<path d="M96.25 172.502H89.8328V166.112H96.25V172.502Z" fill="#914629"/>
<path d="M89.8343 172.502H83.4172V166.112H89.8343V172.502Z" fill="#914629"/>
<path d="M121.917 172.5H115.5V166.112H121.917V172.5Z" fill="#231F20"/>
<path d="M115.501 166.112V172.502H109.084V166.112H115.501Z" fill="#743228"/>
<path d="M109.081 172.502H102.664V166.112H109.081V172.502Z" fill="#743228"/>
<path d="M147.584 134.166L141.167 134.166V127.777H147.584V134.166Z" fill="#914629"/>
<path d="M64.1672 172.502H57.75V166.112H64.1672V172.502Z" fill="#743228"/>
<path d="M83.4187 172.502H77.0015V166.112H83.4187V172.502Z" fill="#914629"/>
<path d="M70.5828 172.502H64.1657V166.112H70.5828V172.502Z" fill="#914629"/>
<path d="M76.9985 172.502H70.5828V166.112H76.9985V172.502Z" fill="#914629"/>
<path d="M102.666 172.502H96.25V166.112H102.666V172.502Z" fill="#914629"/>
<path d="M147.584 146.944H141.167V140.556H147.584V146.944Z" fill="#914629"/>
<path d="M147.584 153.333H141.167V146.944H147.584V153.333Z" fill="#914629"/>
<path d="M147.584 140.556H141.167V134.166L147.584 134.166V140.556Z" fill="#914629"/>
<path d="M147.584 159.724H141.167V153.333H147.584L147.584 159.724Z" fill="#231F20"/>
<path d="M141.169 172.5H134.752V166.112H141.169V172.5Z" fill="#231F20"/>
<path d="M134.748 172.5H128.331V166.112H134.748V172.5Z" fill="#DDD9D8"/>
<path d="M128.333 172.5H121.917V166.112H128.333V172.5Z" fill="#C8C4C3"/>
<path d="M141.169 166.112H134.752V159.724H141.169V166.112Z" fill="#4C1B1E"/>
<path d="M83.4187 76.6659H77.0015V70.2758H83.4187V76.6659Z" fill="white"/>
<path d="M102.666 70.2758H96.25L96.2501 63.8879H102.666V70.2758Z" fill="white"/>
<path d="M121.917 70.2758H115.5V63.8879H121.917V70.2758Z" fill="#DDD9D8"/>
<path d="M109.081 70.2758H102.664V63.8879H109.081V70.2758Z" fill="#DDD9D8"/>
<path d="M115.501 70.2758H109.084V63.8879H115.501V70.2758Z" fill="#DDD9D8"/>
<path d="M96.25 70.2758H89.8328V63.8879H96.2501L96.25 70.2758Z" fill="white"/>
<path d="M128.333 70.2758H121.917V63.8879H128.333V70.2758Z" fill="#231F20"/>
<path d="M154 70.2757H147.584V63.8879H154V70.2757Z" fill="#231F20"/>
<path d="M147.584 70.2757H141.167V63.8879H147.584V70.2757Z" fill="#231F20"/>
<path d="M115.501 178.889V185.279H109.084V178.888L115.501 178.889Z" fill="#231F20"/>
<path d="M121.917 185.28H115.5V178.89H121.917V185.28Z" fill="#231F20"/>
<path d="M128.333 185.28H121.917V178.89H128.333V185.28Z" fill="#231F20"/>
<path d="M109.081 185.279H102.664V178.888H109.081V185.279Z" fill="#743228"/>
<path d="M102.666 185.279H96.2501V178.888H102.666V185.279Z" fill="#743228"/>
<path d="M89.8343 185.279H83.4172V178.888H89.8343V185.279Z" fill="#743228"/>
<path d="M83.4187 185.279H77.0015V178.888H83.4187V185.279Z" fill="#743228"/>
<path d="M96.2501 185.279H89.8328V178.888H96.2501V185.279Z" fill="#743228"/>
<path d="M64.1672 178.888H57.75V172.5H64.1672V178.888Z" fill="#743228"/>
<path d="M102.666 178.888H96.2501V172.5H102.666V178.888Z" fill="#743228"/>
<path d="M83.4187 178.888H77.0015V172.5H83.4187V178.888Z" fill="#743228"/>
<path d="M70.5828 178.888H64.1657V172.5H70.5828V178.888Z" fill="#743228"/>
<path d="M96.2501 178.888H89.8328V172.5H96.2501V178.888Z" fill="#743228"/>
<path d="M89.8343 178.888H83.4172V172.5H89.8343V178.888Z" fill="#743228"/>
<path d="M76.9985 178.888H70.5828V172.5H76.9985V178.888Z" fill="#743228"/>
<path d="M51.3313 178.888H44.9142V172.5H51.3313V178.888Z" fill="#743228"/>
<path d="M51.3314 172.502H44.9142V166.112L51.3314 166.112V172.502Z" fill="#231F20"/>
<path d="M57.747 178.888H51.3313V172.5H57.747V178.888Z" fill="#743228"/>
<path d="M51.3314 166.112L44.9142 166.112V159.724L51.3314 159.723V166.112Z" fill="#743228"/>
<path d="M109.081 178.888H102.664V172.5H109.081V178.888Z" fill="#743228"/>
<path d="M134.748 178.889H128.331V172.5H134.748V178.889Z" fill="#231F20"/>
<path d="M115.501 172.5V178.889L109.084 178.888V172.5H115.501Z" fill="#4C1B1E"/>
<path d="M121.917 178.89H115.5V172.5H121.917V178.89Z" fill="#231F20"/>
<path d="M128.333 178.89H121.917V172.5H128.333V178.89Z" fill="#DDD9D8"/>
<path d="M89.8343 70.2757H83.4172V63.8879H89.8343V70.2757Z" fill="white"/>
<path d="M51.3314 76.6652H44.9142V70.2758H51.3314V76.6652Z" fill="#231F20"/>
<path d="M57.747 70.2758H51.3314V63.8879H57.747V70.2758Z" fill="#231F20"/>
<path d="M51.3314 89.444L44.9142 89.4438V83.0561L51.3314 83.0553V89.444Z" fill="#743228"/>
<path d="M51.3314 159.723L44.9142 159.724V153.334H51.3314V159.723Z" fill="#743228"/>
<path d="M83.4187 70.2758H77.0015V63.8879H83.4187V70.2758Z" fill="white"/>
<path d="M51.3314 95.8333H44.9142V89.4438L51.3314 89.444V95.8333Z" fill="#231F20"/>
<path d="M76.9985 70.2758H70.5828L70.5829 63.8879H76.9985V70.2758Z" fill="white"/>
<path d="M70.5828 70.2758H64.1657V63.8879H70.5829L70.5828 70.2758Z" fill="white"/>
<path d="M64.1672 70.2758H57.75V63.8879H64.1672V70.2758Z" fill="white"/>
<path d="M51.3314 83.0553L44.9142 83.0561V76.6652H51.3314V83.0553Z" fill="#231F20"/>
<path d="M51.3314 146.944H44.9142V140.556H51.3314V146.944Z" fill="#914629"/>
<path d="M51.3314 140.556H44.9142V134.166H51.3314V140.556Z" fill="#AB5B27"/>
<path d="M51.3314 153.332H44.9142V146.944H51.3314V153.332Z" fill="#914629"/>
<path d="M51.3314 102.221H44.9142V95.8318H51.3314V102.221Z" fill="#AB5B27"/>
<path d="M51.3314 134.166H44.9142V127.778H51.3314V134.166Z" fill="#914629"/>
<path d="M51.3314 108.612L44.9142 108.611V102.221H51.3314V108.612Z" fill="#914629"/>
<path d="M51.3314 127.778H44.9142V121.388H51.3314V127.778Z" fill="#914629"/>
<path d="M51.3314 115H44.9142V108.611L51.3314 108.612V115Z" fill="#914629"/>
<path d="M51.3314 121.389H44.9142V115H51.3314V121.389Z" fill="#914629"/>
<path d="M96.25 134.166H89.8328V127.778H96.25V134.166Z" fill="#914629"/>
<path d="M128.333 102.221H121.917V95.8318H128.333V102.221Z" fill="#914629"/>
<path d="M128.333 108.611H121.917V102.221H128.333V108.611Z" fill="#914629"/>
<path d="M128.333 146.944H121.917V140.556H128.333V146.944Z" fill="#914629"/>
<path d="M121.917 102.221H115.5V95.8318H121.917V102.221Z" fill="#914629"/>
<path d="M115.501 102.221H109.084V95.8318H115.501V102.221Z" fill="#914629"/>
<path d="M128.333 115H121.917V108.611H128.333V115Z" fill="#AB5B27"/>
<path d="M128.333 121.389H121.917V115H128.333V121.389Z" fill="#914629"/>
<path d="M128.333 134.166H121.917V127.778H128.333V134.166Z" fill="#914629"/>
<path d="M128.333 140.556H121.917V134.166H128.333V140.556Z" fill="#914629"/>
<path d="M128.333 127.778H121.917V121.388H128.333V127.778Z" fill="#914629"/>
<path d="M109.081 102.221H102.664V95.8318H109.081V102.221Z" fill="#914629"/>
<path d="M83.4187 121.389H77.0015V115H83.4187V121.389Z" fill="#914629"/>
<path d="M102.666 102.221H96.2501V95.8318H102.666V102.221Z" fill="#914629"/>
<path d="M83.4187 127.777H77.0015V121.388H83.4187V127.777Z" fill="#914629"/>
<path d="M83.4187 140.557H77.0015V134.166H83.4187V140.557Z" fill="#914629"/>
<path d="M83.4187 134.166H77.0015V127.777H83.4187V134.166Z" fill="#914629"/>
<path d="M83.4187 115H77.0015V108.612H83.4187V115Z" fill="#AB5B27"/>
<path d="M96.2501 102.221H89.8328V95.8318H96.2501V102.221Z" fill="#914629"/>
<path d="M89.8298 102.221H83.4127V95.8318H89.8298V102.221Z" fill="#914629"/>
<path d="M83.4187 102.221H77.0015V95.8318H83.4187V102.221Z" fill="#914629"/>
<path d="M83.4187 108.612H77.0015V102.221H83.4187V108.612Z" fill="#914629"/>
<path d="M76.9985 134.166H70.5829V127.778H76.9985V134.166Z" fill="#914629"/>
<path d="M76.9985 121.389H70.5829V115H76.9985V121.389Z" fill="#AB5B27"/>
<path d="M76.9985 115H70.5829V108.612H76.9985V115Z" fill="#914629"/>
<path d="M76.9985 127.778H70.5829V121.388H76.9985V127.778Z" fill="#914629"/>
<path d="M76.9985 108.612H70.5829V102.222H76.9985V108.612Z" fill="#914629"/>
<path d="M83.4187 146.944H77.0015V140.557H83.4187V146.944Z" fill="#914629"/>
<path d="M121.917 146.944H115.5V140.556H121.917V146.944Z" fill="#914629"/>
<path d="M64.1672 89.4438H57.75V83.0553H64.1672V89.4438Z" fill="#DDD9D8"/>
<path d="M76.9985 102.222H70.5829V95.8318H76.9985V102.222Z" fill="#914629"/>
<path d="M83.4187 95.8333H77.0015V89.444H83.4187V95.8333Z" fill="#743228"/>
<path d="M76.9985 95.8333H70.5829V89.444H76.9985V95.8333Z" fill="#231F20"/>
<path d="M89.8298 95.8333H83.4127V89.444H89.8298V95.8333Z" fill="#231F20"/>
<path d="M109.081 153.332H102.664V146.944H109.081V153.332Z" fill="#AB5B27"/>
<path d="M115.501 146.944V153.333L109.084 153.332V146.944H115.501Z" fill="#914629"/>
<path d="M121.917 153.333H115.5V146.944H121.917L121.917 153.333Z" fill="#914629"/>
<path d="M76.9985 146.944H70.5829V140.556H76.9985V146.944Z" fill="#914629"/>
<path d="M83.4187 153.332H77.0015V146.944H83.4187V153.332Z" fill="#AB5B27"/>
<path d="M76.9985 153.332H70.5829V146.944H76.9985V153.332Z" fill="#914629"/>
<path d="M89.8343 153.332H83.4172V146.944H89.8343V153.332Z" fill="#914629"/>
<path d="M96.2501 153.332H89.8328V146.944H96.2501V153.332Z" fill="#914629"/>
<path d="M89.8343 146.944H83.4172V140.556H89.8343V146.944Z" fill="#AB5B27"/>
<path d="M115.501 127.777H109.084V121.388H115.501V127.777Z" fill="#AB5B27"/>
<path d="M115.501 121.389H109.084V115H115.501V121.389Z" fill="#914629"/>
<path d="M96.25 95.8333H89.8328V89.444H96.25V95.8333Z" fill="#743228"/>
<path d="M115.501 115H109.084V108.612H115.501V115Z" fill="#914629"/>
<path d="M115.501 134.166H109.084V127.777H115.501V134.166Z" fill="#914629"/>
<path d="M102.666 115H96.2501V108.612H102.666V115Z" fill="#AB5B27"/>
<path d="M96.25 140.557H89.8328V134.166H96.25V140.557Z" fill="#AB5B27"/>
<path d="M89.8343 140.556H83.4172V134.166H89.8343V140.556Z" fill="#914629"/>
<path d="M102.666 140.557L96.25 140.557V134.166L102.666 134.166V140.557Z" fill="#914629"/>
<path d="M109.081 140.557H102.664V134.166H109.081V140.557Z" fill="#914629"/>
<path d="M109.081 134.166H102.664V127.778H109.081V134.166Z" fill="#914629"/>
<path d="M102.666 127.777L96.25 127.778L96.2501 121.388H102.666V127.777Z" fill="#914629"/>
<path d="M109.081 127.778H102.664V121.388H109.081V127.778Z" fill="#914629"/>
<path d="M109.081 121.389H102.664V115H109.081V121.389Z" fill="#914629"/>
<path d="M102.666 121.389H96.2501V115H102.666V121.389Z" fill="#914629"/>
<path d="M96.2501 115H89.8328V108.612H96.2501V115Z" fill="#914629"/>
<path d="M96.25 127.778H89.8328V121.388H96.2501L96.25 127.778Z" fill="#914629"/>
<path d="M102.666 134.166L96.25 134.166V127.778L102.666 127.777L102.666 134.166Z" fill="#914629"/>
<path d="M96.2501 121.389H89.8328V115H96.2501V121.389Z" fill="#AB5B27"/>
<path d="M76.9985 185.279H70.5829L70.5828 178.888H76.9985V185.279Z" fill="#743228"/>
<path d="M109.081 115H102.664V108.612H109.081V115Z" fill="#914629"/>
<path d="M121.917 134.166L115.5 134.166V127.778L121.917 127.778V134.166Z" fill="#914629"/>
<path d="M115.501 140.557H109.084V134.166H115.501V140.557Z" fill="#914629"/>
<path d="M121.917 140.556H115.5L115.5 134.166L121.917 134.166V140.556Z" fill="#AB5B27"/>
<path d="M121.917 127.778L115.5 127.778L115.5 121.388H121.917V127.778Z" fill="#914629"/>
<path d="M121.917 121.389H115.5V115L121.917 115V121.389Z" fill="#AB5B27"/>
<path d="M115.501 146.944H109.084V140.557H115.501V146.944Z" fill="#AB5B27"/>
<path d="M102.666 146.944H96.2501L96.25 140.557L102.666 140.557L102.666 146.944Z" fill="#914629"/>
<path d="M96.2501 146.944H89.8328V140.557H96.25L96.2501 146.944Z" fill="#914629"/>
<path d="M121.917 115L115.5 115V108.612L121.917 108.611V115Z" fill="#914629"/>
<path d="M109.081 146.944H102.664V140.557H109.081V146.944Z" fill="#914629"/>
<path d="M102.666 108.612H96.2501V102.221H102.666V108.612Z" fill="#914629"/>
<path d="M89.8298 108.611H83.4127V102.221H89.8298V108.611Z" fill="#914629"/>
<path d="M89.8343 121.389H83.4172V115H89.8343V121.389Z" fill="#914629"/>
<path d="M89.8343 115H83.4172V108.612H89.8343V115Z" fill="#914629"/>
<path d="M89.8343 127.777H83.4172V121.388H89.8343V127.777Z" fill="#AB5B27"/>
<path d="M109.081 108.612H102.664V102.221H109.081V108.612Z" fill="#914629"/>
<path d="M115.501 108.612H109.084V102.221H115.501V108.612Z" fill="#914629"/>
<path d="M121.917 108.611L115.5 108.612V102.221H121.917V108.611Z" fill="#914629"/>
<path d="M96.2501 108.612H89.8328V102.221H96.2501V108.612Z" fill="#914629"/>
<path d="M89.8343 134.166H83.4172V127.777H89.8343V134.166Z" fill="#914629"/>
<path d="M76.9985 140.556H70.5829V134.166H76.9985V140.556Z" fill="#914629"/>
<path d="M141.169 146.944H134.752V140.556H141.169V146.944Z" fill="#231F20"/>
<path d="M141.169 140.556H134.752V134.166H141.169V140.556Z" fill="#231F20"/>
<path d="M141.169 153.333H134.752V146.944H141.169V153.333Z" fill="#231F20"/>
<path d="M141.169 134.166H134.752V127.778H141.169V134.166Z" fill="#231F20"/>
<path d="M141.169 127.778H134.752V121.388H141.169V127.778Z" fill="#231F20"/>
<path d="M134.748 166.112H128.331V159.724H134.748V166.112Z" fill="#231F20"/>
<path d="M141.169 159.724H134.752V153.333H141.169V159.724Z" fill="#743228"/>
<path d="M141.169 121.389H134.752V115H141.169V121.389Z" fill="#231F20"/>
<path d="M128.333 166.112H121.917L121.917 159.724H128.333V166.112Z" fill="#231F20"/>
<path d="M134.748 159.724H128.331V153.334H134.748V159.724Z" fill="#231F20"/>
<path d="M128.333 89.4438H121.917V83.0553H128.333V89.4438Z" fill="#DDD9D8"/>
<path d="M121.917 166.112H115.5V159.724H121.917L121.917 166.112Z" fill="#4C1B1E"/>
<path d="M121.917 89.4438H115.5L115.5 83.0555L121.917 83.0553V89.4438Z" fill="#231F20"/>
<path d="M115.501 89.4438H109.084V83.0553H115.501V89.4438Z" fill="#DDD9D8"/>
<path d="M134.748 89.4438H128.331V83.0553H134.748V89.4438Z" fill="#231F20"/>
<path d="M141.169 102.221H134.752V95.8318H141.169V102.221Z" fill="#231F20"/>
<path d="M141.169 108.611H134.752V102.221H141.169V108.611Z" fill="#231F20"/>
<path d="M141.169 115H134.752V108.611H141.169V115Z" fill="#231F20"/>
<path d="M115.501 159.724V166.112H109.084V159.724H115.501Z" fill="#743228"/>
<path d="M64.1672 127.777H57.75V121.388H64.1672V127.777Z" fill="#231F20"/>
<path d="M64.1672 121.389H57.75V115H64.1672V121.389Z" fill="#231F20"/>
<path d="M64.1672 134.166H57.75V127.777H64.1672V134.166Z" fill="#231F20"/>
<path d="M64.1672 140.557H57.75V134.166H64.1672V140.557Z" fill="#231F20"/>
<path d="M109.081 89.4438H102.664V83.0553H109.081V89.4438Z" fill="#231F20"/>
<path d="M64.1672 108.611H57.75V102.222H64.1672V108.611Z" fill="#231F20"/>
<path d="M64.1672 115H57.75V108.611H64.1672V115Z" fill="#231F20"/>
<path d="M64.1672 102.222H57.75V95.8318H64.1672V102.222Z" fill="#914629"/>
<path d="M64.1672 95.8333H57.75V89.4438H64.1672V95.8333Z" fill="#231F20"/>
<path d="M64.1672 153.332H57.75V146.944H64.1672V153.332Z" fill="#231F20"/>
<path d="M64.1672 146.944H57.75V140.557H64.1672V146.944Z" fill="#231F20"/>
<path d="M96.25 166.112H89.8328V159.724H96.25V166.112Z" fill="#914629"/>
<path d="M102.666 166.112H96.25V159.724H102.666V166.112Z" fill="#914629"/>
<path d="M89.8343 166.112H83.4172V159.724H89.8343V166.112Z" fill="#914629"/>
<path d="M64.1672 159.723H57.75V153.334H64.1672V159.723Z" fill="#743228"/>
<path d="M109.081 166.112H102.664V159.724H109.081V166.112Z" fill="#914629"/>
<path d="M70.5828 166.112H64.1657V159.724H70.5828V166.112Z" fill="#914629"/>
<path d="M64.1672 166.112H57.75V159.723H64.1672V166.112Z" fill="#914629"/>
<path d="M83.4187 166.112H77.0015V159.724H83.4187V166.112Z" fill="#914629"/>
<path d="M76.9985 166.112H70.5828V159.724H76.9985V166.112Z" fill="#914629"/>
<path d="M134.748 146.944H128.331V140.556H134.748V146.944Z" fill="#743228"/>
<path d="M128.333 153.333H121.917L121.917 146.944H128.333V153.333Z" fill="#743228"/>
<path d="M102.666 89.4438L96.25 89.444V83.0553L102.666 83.0555L102.666 89.4438Z" fill="#DDD9D8"/>
<path d="M102.666 95.8333H96.25V89.444L102.666 89.4438V95.8333Z" fill="#231F20"/>
<path d="M134.748 140.556H128.331V134.166H134.748V140.556Z" fill="#914629"/>
<path d="M134.748 134.166H128.331V127.778H134.748V134.166Z" fill="#914629"/>
<path d="M121.917 159.724H115.5V153.333H121.917L121.917 159.724Z" fill="#743228"/>
<path d="M115.501 153.333V159.723H109.084V153.332L115.501 153.333Z" fill="#914629"/>
<path d="M109.081 159.724H102.664V153.334H109.081V159.724Z" fill="#914629"/>
<path d="M128.333 159.724H121.917L121.917 153.333H128.333V159.724Z" fill="#4C1B1E"/>
<path d="M134.748 127.778H128.331V121.388H134.748V127.778Z" fill="#914629"/>
<path d="M134.748 115H128.331V108.612H134.748V115Z" fill="#914629"/>
<path d="M134.748 121.389H128.331V115H134.748V121.389Z" fill="#914629"/>
<path d="M121.917 95.8333H115.5V89.4438H121.917L121.917 95.8333Z" fill="#743228"/>
<path d="M115.501 95.8333H109.084V89.4438H115.501V95.8333Z" fill="#231F20"/>
<path d="M109.081 95.8333H102.664V89.4438H109.081V95.8333Z" fill="#743228"/>
<path d="M128.333 95.8333H121.917L121.917 89.4438H128.333V95.8333Z" fill="#231F20"/>
<path d="M134.748 108.612H128.331V102.222H134.748V108.612Z" fill="#914629"/>
<path d="M102.666 159.724H96.25V153.334H102.666L102.666 159.724Z" fill="#914629"/>
<path d="M134.748 95.8333H128.331V89.4438H134.748V95.8333Z" fill="#231F20"/>
<path d="M134.748 102.222H128.331V95.8318H134.748V102.222Z" fill="#914629"/>
<path d="M134.748 153.334H128.331V146.944H134.748V153.334Z" fill="#4C1B1E"/>
<path d="M70.5829 102.222L64.1657 102.221V95.8318H70.5829V102.222Z" fill="#914629"/>
<path d="M70.5829 95.8333H64.1657V89.444H70.5829V95.8333Z" fill="#743228"/>
<path d="M70.5829 115L64.1657 115V108.612H70.5829V115Z" fill="#914629"/>
<path d="M70.5829 108.612H64.1657V102.221L70.5829 102.222V108.612Z" fill="#914629"/>
<path d="M70.5829 89.444H64.1657V83.0553H70.5828L70.5829 89.444Z" fill="#231F20"/>
<path d="M96.25 159.724H89.8328V153.334L96.25 153.334V159.724Z" fill="#914629"/>
<path d="M96.25 89.444H89.8328V83.0553H96.25V89.444Z" fill="#231F20"/>
<path d="M89.8298 89.444H83.4127V83.0553H89.8298V89.444Z" fill="#DDD9D8"/>
<path d="M76.9985 89.444H70.5829L70.5828 83.0553H76.9985V89.444Z" fill="#DDD9D8"/>
<path d="M83.4187 89.444H77.0015V83.0553H83.4187V89.444Z" fill="#231F20"/>
<path d="M70.5829 121.389H64.1657V115L70.5829 115V121.389Z" fill="#914629"/>
<path d="M76.9985 159.724H70.5828L70.5829 153.334H76.9985V159.724Z" fill="#914629"/>
<path d="M83.4187 159.724H77.0015V153.334H83.4187V159.724Z" fill="#914629"/>
<path d="M70.5828 159.724H64.1657V153.334H70.5829L70.5828 159.724Z" fill="#914629"/>
<path d="M70.5829 127.778L64.1657 127.777V121.388H70.5829V127.778Z" fill="#914629"/>
<path d="M89.8343 159.724H83.4172V153.334H89.8343V159.724Z" fill="#914629"/>
<path d="M70.5829 140.556L64.1657 140.557V134.166L70.5829 134.166V140.556Z" fill="#914629"/>
<path d="M70.5829 153.332H64.1657V146.944L70.5829 146.944V153.332Z" fill="#914629"/>
<path d="M70.5829 134.166L64.1657 134.166V127.777L70.5829 127.778V134.166Z" fill="#914629"/>
<path d="M70.5829 146.944L64.1657 146.944V140.557L70.5829 140.556V146.944Z" fill="#914629"/>
<path d="M96.25 204.444L89.8328 204.444V198.056H96.25V204.444Z" fill="#E1850F"/>
<path d="M89.8343 204.444H83.4172V198.056H89.8343V204.444Z" fill="#231F20"/>
<path d="M102.666 204.444H96.25V198.056L102.666 198.056V204.444Z" fill="#231F20"/>
<path d="M32.0843 108.611H25.6672V102.222H32.0843V108.611Z" fill="#231F20"/>
<path d="M32.0843 127.777H25.6672V121.388H32.0843V127.777Z" fill="#914629"/>
<path d="M32.0843 115H25.6672V108.611H32.0843V115Z" fill="#231F20"/>
<path d="M32.0843 121.389H25.6672V115H32.0843V121.389Z" fill="#AB5B27"/>
<path d="M32.0843 178.888H25.6672V172.5H32.0843V178.888Z" fill="#231F20"/>
<path d="M32.0843 172.502H25.6672V166.112H32.0843V172.502Z" fill="#DDD9D8"/>
<path d="M32.0843 166.112H25.6672V159.724H32.0843V166.112Z" fill="#231F20"/>
<path d="M32.0843 185.279H25.6672V178.888H32.0843V185.279Z" fill="#231F20"/>
<path d="M70.5829 185.279H64.1657V178.888H70.5828L70.5829 185.279Z" fill="#743228"/>
<path d="M32.0843 140.557H25.6672V134.166H32.0843V140.557Z" fill="#914629"/>
<path d="M32.0843 146.944H25.6672V140.557H32.0843V146.944Z" fill="#743228"/>
<path d="M32.0843 159.724H25.6672V153.334H32.0843V159.724Z" fill="white"/>
<path d="M32.0843 134.166H25.6672V127.777H32.0843V134.166Z" fill="#914629"/>
<path d="M76.9985 51.1091H70.5829V44.7197H76.9985V51.1091Z" fill="white"/>
<path d="M121.917 51.1114H115.5V44.722H121.917V51.1114Z" fill="#F9A70D"/>
<path d="M89.8343 51.1091H83.4172V44.7197H89.8343V51.1091Z" fill="white"/>
<path d="M115.501 51.1091H109.084V44.7197H115.501V51.1091Z" fill="#F9A70D"/>
<path d="M102.666 51.1114H96.2501V44.722H102.666V51.1114Z" fill="#E1850F"/>
<path d="M96.25 51.1091H89.8328V44.7197H96.25V51.1091Z" fill="#231F20"/>
<path d="M109.081 51.1091H102.664V44.7197H109.081V51.1091Z" fill="#F9A70D"/>
<path d="M141.169 51.1091H134.752V44.7197H141.169V51.1091Z" fill="#F9A70D"/>
<path d="M128.333 51.1091H121.917V44.7197H128.333V51.1091Z" fill="#F9A70D"/>
<path d="M134.748 51.1091H128.331V44.7197H134.748V51.1091Z" fill="#F9A70D"/>
<path d="M147.584 51.1091H141.167V44.7197H147.584V51.1091Z" fill="#F9A70D"/>
<path d="M83.4187 51.1091H77.0015V44.7197H83.4187V51.1091Z" fill="white"/>
<path d="M154 51.1114H147.583V44.722H154V51.1114Z" fill="#231F20"/>
<path d="M70.5829 51.1091H64.1657V44.7197H70.5829V51.1091Z" fill="white"/>
<path d="M64.1672 51.1091H57.75V44.7197H64.1672V51.1091Z" fill="#231F20"/>
<path d="M154 44.722L147.584 44.7219V38.3331H154L154 44.722Z" fill="#231F20"/>
<path d="M109.081 44.7197H102.664V38.3318H109.081V44.7197Z" fill="#F9A70D"/>
<path d="M102.666 44.722H96.2501L96.25 38.3331H102.666L102.666 44.722Z" fill="#F9A70D"/>
<path d="M96.25 44.7197H89.8328V38.3318H96.25V44.7197Z" fill="#231F20"/>
<path d="M89.8343 44.7197H83.4172V38.3318H89.8343V44.7197Z" fill="white"/>
<path d="M115.497 44.7196L109.081 44.7197V38.3318H115.497V44.7196Z" fill="#F9A70D"/>
<path d="M141.164 44.7196H134.747V38.3318H141.164V44.7196Z" fill="#F9A70D"/>
<path d="M134.748 44.7219H128.333L128.333 38.3333H134.748V44.7219Z" fill="#F9A70D"/>
<path d="M128.333 44.7197L121.916 44.7196V38.3318H128.333V44.7197Z" fill="#F9A70D"/>
<path d="M121.917 44.7197L115.5 44.7196V38.3318H121.917L121.917 44.7197Z" fill="#F9A70D"/>
<path d="M32.0843 191.668H25.6672V185.28H32.0843V191.668Z" fill="#743228"/>
<path d="M83.4187 44.7197H77.0015V38.3318H83.4187V44.7197Z" fill="white"/>
<path d="M147.584 44.7197H141.167V38.3318H147.584V44.7197Z" fill="#F9A70D"/>
<path d="M25.6687 166.112H19.2515V159.724H25.6687V166.112Z" fill="#231F20"/>
<path d="M25.6687 159.724H19.2515V153.334H25.6687V159.724Z" fill="#231F20"/>
<path d="M25.6687 172.502H19.2515V166.112H25.6687V172.502Z" fill="#231F20"/>
<path d="M25.6687 178.888H19.2515V172.5H25.6687V178.888Z" fill="#231F20"/>
<path d="M25.6687 191.668H19.2515V185.28H25.6687V191.668Z" fill="#231F20"/>
<path d="M25.6687 127.777H19.2515V121.388H25.6687V127.777Z" fill="#231F20"/>
<path d="M25.6687 140.557H19.2515V134.166H25.6687V140.557Z" fill="#231F20"/>
<path d="M25.6687 153.332H19.2515V146.944H25.6687V153.332Z" fill="#231F20"/>
<path d="M25.6687 146.944H19.2515V140.557H25.6687V146.944Z" fill="#231F20"/>
<path d="M25.6687 134.166H19.2515V127.777H25.6687V134.166Z" fill="#231F20"/>
<path d="M51.3314 204.444L44.9142 204.444V198.056H51.3313L51.3314 204.444Z" fill="#231F20"/>
<path d="M64.1672 204.444H57.75V198.056H64.1672V204.444Z" fill="#E1850F"/>
<path d="M57.747 204.444H51.3314L51.3313 198.056H57.747V204.444Z" fill="#231F20"/>
<path d="M25.6687 198.058H19.2515V191.668H25.6687V198.058Z" fill="#914629"/>
<path d="M70.5828 204.444H64.1657V198.056H70.5828V204.444Z" fill="#231F20"/>
<path d="M76.9985 44.7197H70.5829V38.3318H76.9985V44.7197Z" fill="white"/>
<path d="M25.6687 204.444H19.2515V198.056H25.6687V204.444Z" fill="#DDD9D8"/>
<path d="M32.0843 204.444H25.6672V198.056H32.0843V204.444Z" fill="#231F20"/>
<path d="M38.5 204.444H32.0843V198.056H38.5V204.444Z" fill="#914629"/>
<path d="M44.9157 204.444H38.4985V198.056H44.9157V204.444Z" fill="#743228"/>
<path d="M64.1672 44.7197H57.75V38.3318H64.1672V44.7197Z" fill="#231F20"/>
<path d="M70.5829 44.7197H64.1657V38.3318H70.5829V44.7197Z" fill="white"/>
<path d="M25.6687 121.389H19.2515V115H25.6687V121.389Z" fill="#231F20"/>
<path d="M32.0843 153.332H25.6672V146.944H32.0843V153.332Z" fill="#231F20"/>
<path d="M64.1672 191.668H57.75V185.28H64.1672V191.668Z" fill="#4C1B1E"/>
<path d="M70.5828 191.668H64.1657V185.28H70.5828V191.668Z" fill="#4C1B1E"/>
<path d="M76.9985 191.668H70.5828V185.28H76.9985V191.668Z" fill="#4C1B1E"/>
<path d="M57.747 191.668H51.3314V185.28H57.747V191.668Z" fill="#4C1B1E"/>
<path d="M83.4187 191.668H77.0015V185.28H83.4187V191.668Z" fill="#231F20"/>
<path d="M38.5 185.279H32.0843V178.888L38.5 178.888V185.279Z" fill="#231F20"/>
<path d="M89.8343 191.668H83.4172V185.28H89.8343V191.668Z" fill="#4C1B1E"/>
<path d="M38.5 191.668H32.0843V185.28H38.5V191.668Z" fill="#4C1B1E"/>
<path d="M44.9157 191.668H38.4985V185.28H44.9157V191.668Z" fill="#231F20"/>
<path d="M51.3314 191.668H44.9142V185.28H51.3314V191.668Z" fill="#4C1B1E"/>
<path d="M115.501 191.668H109.084V185.28H115.501V191.668Z" fill="#231F20"/>
<path d="M109.081 191.668H102.664V185.28H109.081V191.668Z" fill="#4C1B1E"/>
<path d="M102.666 191.668H96.2501V185.28H102.666V191.668Z" fill="#4C1B1E"/>
<path d="M96.2501 191.668H89.8328V185.28H96.2501V191.668Z" fill="#4C1B1E"/>
<path d="M44.9157 115H38.4985V108.612H44.9157V115Z" fill="#914629"/>
<path d="M38.5 178.888L32.0843 178.888V172.5H38.5V178.888Z" fill="#DDD9D8"/>
<path d="M44.9157 127.777H38.4985V121.388H44.9157V127.777Z" fill="#AB5B27"/>
<path d="M44.9157 134.166H38.4985V127.777H44.9157V134.166Z" fill="#914629"/>
<path d="M44.9157 146.944H38.4985V140.556H44.9157V146.944Z" fill="#AB5B27"/>
<path d="M44.9157 140.556H38.4985V134.166H44.9157V140.556Z" fill="#914629"/>
<path d="M44.9157 89.4438H38.4985V83.0561H44.9157V89.4438Z" fill="#231F20"/>
<path d="M44.9157 108.612H38.4985V102.222H44.9157V108.612Z" fill="#914629"/>
<path d="M44.9157 95.8333H38.4985V89.4438H44.9157V95.8333Z" fill="#231F20"/>
<path d="M44.9157 102.222H38.4985V95.8318H44.9157V102.222Z" fill="#AB5B27"/>
<path d="M51.3313 185.279H44.9142V178.888H51.3313V185.279Z" fill="#743228"/>
<path d="M57.747 185.279H51.3313V178.888H57.747V185.279Z" fill="#743228"/>
<path d="M44.9157 185.279H38.4985V178.888H44.9157V185.279Z" fill="#4C1B1E"/>
<path d="M64.1672 185.279H57.75V178.888H64.1672V185.279Z" fill="#743228"/>
<path d="M32.0843 198.058H25.6672V191.668H32.0843V198.058Z" fill="#914629"/>
<path d="M44.9157 159.723H38.4985V153.334H44.9157V159.723Z" fill="#743228"/>
<path d="M44.9157 166.112H38.4985V159.723H44.9157V166.112Z" fill="#231F20"/>
<path d="M44.9157 178.888H38.4985V172.5H44.9157V178.888Z" fill="#231F20"/>
<path d="M44.9157 153.332H38.4985V146.944H44.9157V153.332Z" fill="#914629"/>
<path d="M44.9157 121.389H38.4985V115H44.9157V121.389Z" fill="#914629"/>
<path d="M121.917 63.8894H115.5V57.5H121.917V63.8894Z" fill="#231F20"/>
<path d="M128.333 63.8894H121.917V57.5H128.333V63.8894Z" fill="#231F20"/>
<path d="M115.501 63.8894H109.084V57.5H115.501V63.8894Z" fill="#231F20"/>
<path d="M96.25 63.8894H89.8328V57.5H96.25V63.8894Z" fill="white"/>
<path d="M102.666 63.8894H96.25V57.5H102.666V63.8894Z" fill="#DDD9D8"/>
<path d="M109.081 63.8894H102.664V57.5H109.081V63.8894Z" fill="#231F20"/>
<path d="M147.584 63.8894H141.167V57.5H147.584V63.8894Z" fill="#E1850F"/>
<path d="M134.748 63.8894H128.331V57.5H134.748V63.8894Z" fill="#231F20"/>
<path d="M154 63.8894H147.584V57.5H154V63.8894Z" fill="#231F20"/>
<path d="M141.169 63.8894H134.752V57.5H141.169V63.8894Z" fill="#231F20"/>
<path d="M83.4187 63.8894H77.0015V57.5H83.4187V63.8894Z" fill="white"/>
<path d="M57.747 63.8894H51.3314V57.5H57.747V63.8894Z" fill="#231F20"/>
<path d="M89.8343 63.8894H83.4172V57.5H89.8343V63.8894Z" fill="white"/>
<path d="M64.1672 63.8894H57.75V57.5H64.1672V63.8894Z" fill="white"/>
<path d="M76.9985 63.8894H70.5829V57.5H76.9985V63.8894Z" fill="white"/>
<path d="M70.5829 63.8894H64.1657V57.5H70.5829V63.8894Z" fill="white"/>
<path d="M44.9157 172.502H38.4985V166.112H44.9157V172.502Z" fill="#DDD9D8"/>
<path d="M64.1672 198.058H57.75V191.668H64.1672V198.058Z" fill="#231F20"/>
<path d="M76.9985 198.058H70.5829L70.5828 191.668H76.9985V198.058Z" fill="#231F20"/>
<path d="M70.5829 198.058H64.1657V191.668H70.5828L70.5829 198.058Z" fill="#231F20"/>
<path d="M89.8343 198.058H83.4172V191.668H89.8343V198.058Z" fill="#231F20"/>
<path d="M44.9157 198.058H38.4985V191.668H44.9157V198.058Z" fill="#4C1B1E"/>
<path d="M38.5 198.058H32.0843V191.668H38.5V198.058Z" fill="#231F20"/>
<path d="M96.25 198.058H89.8328V191.668H96.2501L96.25 198.058Z" fill="#231F20"/>
<path d="M51.3313 198.058H44.9142V191.668H51.3314L51.3313 198.058Z" fill="#231F20"/>
<path d="M57.747 198.058H51.3313L51.3314 191.668H57.747V198.058Z" fill="#231F20"/>
<path d="M109.081 198.058H102.664V191.668H109.081V198.058Z" fill="#231F20"/>
<path d="M102.666 198.056L96.25 198.056L96.2501 191.666H102.666L102.666 198.056Z" fill="#231F20"/>
<path d="M38.5 102.221L32.0843 102.222L32.0844 95.8318H38.5V102.221Z" fill="#231F20"/>
<path d="M38.5 108.611H32.0843V102.222L38.5 102.221V108.611Z" fill="#AB5B27"/>
<path d="M38.5 146.944H32.0843V140.557L38.5 140.556V146.944Z" fill="#914629"/>
<path d="M38.5 159.723L32.0843 159.724V153.334H38.5V159.723Z" fill="#231F20"/>
<path d="M38.5 153.332H32.0843V146.944H38.5V153.332Z" fill="#743228"/>
<path d="M38.5 166.112L32.0843 166.112V159.724L38.5 159.723V166.112Z" fill="white"/>
<path d="M38.5 127.777H32.0843V121.388H38.5V127.777Z" fill="#914629"/>
<path d="M38.5 121.389H32.0843V115L38.5 115V121.389Z" fill="#914629"/>
<path d="M38.5 115L32.0843 115V108.611H38.5V115Z" fill="#914629"/>
<path d="M38.5 140.556L32.0843 140.557V134.166H38.5V140.556Z" fill="#914629"/>
<path d="M38.5 134.166H32.0843V127.777H38.5V134.166Z" fill="#AB5B27"/>
<path d="M115.501 57.5H109.084V51.1091H115.501V57.5Z" fill="#E1850F"/>
<path d="M147.584 57.5H141.167V51.1091H147.584V57.5Z" fill="#F9A70D"/>
<path d="M141.169 57.5H134.752V51.1091H141.169V57.5Z" fill="#E1850F"/>
<path d="M154 57.5H147.584V51.1091L154 51.1099V57.5Z" fill="#231F20"/>
<path d="M134.748 57.5H128.331V51.1091H134.748V57.5Z" fill="#E1850F"/>
<path d="M128.333 57.5H121.917L121.917 51.1091H128.333V57.5Z" fill="#E1850F"/>
<path d="M121.917 57.5H115.5V51.1099L121.917 51.1091L121.917 57.5Z" fill="#E1850F"/>
<path d="M38.5 172.502H32.0843V166.112L38.5 166.112V172.502Z" fill="#231F20"/>
<path d="M109.081 57.5H102.664V51.1091H109.081V57.5Z" fill="#E1850F"/>
<path d="M83.4187 57.5H77.0015V51.1091H83.4187V57.5Z" fill="white"/>
<path d="M76.9985 57.5H70.5829V51.1091H76.9985V57.5Z" fill="white"/>
<path d="M70.5829 57.5H64.1657V51.1091H70.5829V57.5Z" fill="white"/>
<path d="M64.1672 57.5H57.75V51.1091H64.1672V57.5Z" fill="#DDD9D8"/>
<path d="M57.747 57.5H51.3314V51.1099H57.747V57.5Z" fill="#231F20"/>
<path d="M102.666 57.5L96.2485 57.4992V51.1099H102.666V57.5Z" fill="#231F20"/>
<path d="M96.25 57.5H89.8328V51.1091H96.25V57.5Z" fill="#DDD9D8"/>
<path d="M89.8343 57.5H83.4172V51.1091H89.8343V57.5Z" fill="white"/>
<path d="M102.666 6.38776L96.25 6.38789V0H102.666V6.38776Z" fill="#231F20"/>
<path d="M96.25 6.38789H89.8328V0H96.25V6.38789Z" fill="#231F20"/>
<path d="M109.081 6.38789H102.664V0H109.081V6.38789Z" fill="#231F20"/>
<path d="M83.4187 6.38789H77.0015V0H83.4187V6.38789Z" fill="#231F20"/>
<path d="M89.8343 6.38789H83.4172V0H89.8343V6.38789Z" fill="#231F20"/>
<path d="M115.501 6.38789H109.084V0H115.501V6.38789Z" fill="#231F20"/>
<path d="M76.9985 6.38789H70.5828L70.5829 0H76.9985V6.38789Z" fill="#231F20"/>
<path d="M70.5828 6.38789H64.1657V0H70.5829L70.5828 6.38789Z" fill="#231F20"/>
</svg>
