<svg width="768" height="56" viewBox="0 0 768 56" fill="none" xmlns="http://www.w3.org/2000/svg">
<path d="M758.78 9.44441V5L9.21891 5V9.44441H5V40.5556H9.21891V45H758.78V40.5556H763V9.44441H758.78Z" fill="white"/>
<path d="M730.824 45H11V50H757V45H730.824Z" fill="#3F3F3F"/>
<path d="M37.1754 5H757V0H11V5H37.1754Z" fill="#3F3F3F"/>
<path d="M5 39V45H11V39H5Z" fill="#3F3F3F"/>
<path d="M11 5H5V11H11V5Z" fill="#3F3F3F"/>
<path d="M5 31.0004V11H0V39H5V31.0004Z" fill="#3F3F3F"/>
<path d="M25 28.0004V8H20V36H25V28.0004Z" fill="#3F3F3F"/>
<path d="M763 11V39H768V11H763Z" fill="#3F3F3F"/>
<path d="M757 45H763V39H757V45Z" fill="#3F3F3F"/>
<path d="M763 11V5H757V11H763Z" fill="#3F3F3F"/>
<path d="M406.97 23.0773H404.818V20.9234H402.667V16.6156H404.818V12.3078H402.667V10.1539H400.516V8H396.213V10.1539H394.061V12.3078H391.91V10.1539H389.759V8H383.303V10.1539H381.151V12.3078H379V18.7695H381.151V20.9234H383.303V23.0773H385.454V27.3844H383.303V31.6922H385.454V33.8461H387.608V36H391.91V33.8461H394.061V31.6922H396.213V33.8461H398.364V36H404.818V33.8461H406.97V31.6922H409.121V25.2312H406.97V23.0773Z" fill="#040606"/>
<path d="M400.515 27.3846H398.364V25.2314H400.515V27.3846ZM387.607 16.6158H385.454V14.4619H387.607V16.6158ZM402.667 20.9236H396.212V23.0775H394.061V20.9236H396.212V18.7697H398.364V14.4619H400.515V10.1541H396.212V12.308H394.061V16.6158H391.91V12.308H389.759V10.1541H383.302V12.308H381.151V18.7697H383.302V20.9236H389.759V18.7697H391.91V20.9236H389.759V23.0775H387.607V27.3846H385.454V31.6924H389.759V29.5385H391.91V25.2314H394.061V29.5385H396.212V31.6924H402.667V29.5385H404.818V23.0775H402.667V20.9236Z" fill="#EDD922"/>
<path d="M383.302 18.7697H381.151V16.6157H383.302V18.7697ZM383.302 14.4618H381.151V12.308H383.302V14.4618Z" fill="#F6F4A6"/>
<path d="M400.516 12.308H396.213V10.1541H400.516V12.308Z" fill="#F6F4A6"/>
<path d="M389.759 12.308H383.303V10.1541H389.759V12.308Z" fill="#F6F4A6"/>
<path d="M387.607 27.3846L389.758 27.3845V25.2313H387.607V27.3846Z" fill="#F47427"/>
<path d="M389.759 31.6924H387.608V29.5385H385.454V31.6924V27.3846H387.608V29.5385H389.759V31.6924ZM391.91 29.5385H389.759V27.3846H391.91V29.5385Z" fill="#F47427"/>
<path d="M389.759 25.2314H391.91V23.0775H389.759V25.2314Z" fill="#F47427"/>
<path d="M394.061 25.2314H396.213V23.0775H394.061V25.2314Z" fill="#F47427"/>
<path d="M396.213 27.3845H398.364V25.2313H396.213V27.3845Z" fill="#F47427"/>
<path d="M398.364 25.2314H400.515V23.0775H398.364V25.2314Z" fill="#F47427"/>
<path d="M400.515 27.3845H402.667V25.2313H400.515V27.3845Z" fill="#F47427"/>
<path d="M402.667 31.6924H400.515V29.5385H398.364V31.6924H396.213V29.5385H394.061V27.3846H396.213V29.5385H398.364V27.3846L400.515 27.3845V29.5385H402.667V31.6924ZM404.818 29.5385H402.667V27.3845L404.818 27.3846V29.5385Z" fill="#F47427"/>
<path d="M402.667 25.2314H404.818V23.0775H402.667V25.2314Z" fill="#F47427"/>
<path d="M398.364 31.6923H400.515V29.5384H398.364V31.6923Z" fill="#F1452F"/>
<path d="M385.454 31.6924H387.608V29.5385H385.454V31.6924Z" fill="#F1452F"/>
<path d="M376.347 14.4612V12.3075H374.179V10.1537H372.009V8H363.336V10.1537H361.168V12.3075H359V29.5373H361.168V31.6911H363.336V33.8463H365.505V36H374.179V33.8463H376.347V31.6911H378.515V14.4612H376.347Z" fill="#040606"/>
<path d="M369.841 27.3835H365.505V14.4611H369.841V27.3835ZM372.009 12.3074V10.1536H363.337V12.3074H361.168V29.5372H363.337V31.691H372.009V29.5372H374.179V12.3074H372.009Z" fill="#EDD922"/>
<path d="M361.168 25.2298H363.337V23.076H361.168V25.2298Z" fill="#F47427"/>
<path d="M363.337 27.3834H365.505V25.2297H363.337V27.3834Z" fill="#F47427"/>
<path d="M369.841 31.6911H367.673V29.5373H365.505V31.6911L363.337 31.691V29.5372H361.168V27.3836H363.337V29.5372L365.505 29.5373V27.3835L367.673 27.3836V29.5373H369.841V27.3835L372.009 27.3836V29.5372L369.841 29.5373V31.6911Z" fill="#F47427"/>
<path d="M369.841 25.2298H372.009V23.076H369.841V25.2298Z" fill="#F47427"/>
<path d="M372.009 27.3834H374.179V25.2297H372.009V27.3834Z" fill="#F47427"/>
<path d="M369.841 31.691H372.009V29.5372H369.841V31.691Z" fill="#F1452F"/>
<path d="M365.505 31.691H367.673V29.5372H365.505V31.691Z" fill="#F1452F"/>
<path d="M363.337 18.7685H361.168V16.6147H363.337V18.7685ZM363.337 14.461H361.168V12.3074H363.337V14.461Z" fill="#F6F4A6"/>
<path d="M372.009 12.3074H363.337V10.1536H372.009V12.3074Z" fill="#F6F4A6"/>
</svg>
