<svg width="768" height="56" viewBox="0 0 768 56" fill="none" xmlns="http://www.w3.org/2000/svg">
<path d="M758.78 9.44441V5H9.21891V9.44441H5V40.5556H9.21891V45H758.78V40.5556H763V9.44441H758.78Z" fill="white"/>
<path d="M25 8H18V36H25V8Z" fill="#3F3F3F"/>
<path d="M273 29H279V33H273V29Z" fill="#6C3224"/>
<path d="M11 45V50H757V45H11Z" fill="#3F3F3F"/>
<path d="M757 5V0H11V5H757Z" fill="#3F3F3F"/>
<path d="M5 39V45H11V39H5Z" fill="#3F3F3F"/>
<path d="M11 5H5V11H11V5Z" fill="#3F3F3F"/>
<path d="M5 11H0V39H5V11Z" fill="#3F3F3F"/>
<path d="M763 11V39H768V11H763Z" fill="#3F3F3F"/>
<path d="M757 45H763V39H757V45Z" fill="#3F3F3F"/>
<path d="M763 11V5H757V11H763Z" fill="#3F3F3F"/>
<path d="M24 8H274V42H24V8Z" fill="#FAAD14"/>
<path d="M274 8H278V42H274V8Z" fill="#FFE58F"/>
<path d="M282 16H286V34H282V16Z" fill="#FFC53D"/>
<path d="M278 12H282V38H278V12Z" fill="#FFD666"/>
<path d="M274 12H278V38H274V12Z" fill="#FAAD14"/>
<path d="M278 16H282V34H278V16Z" fill="#FAAD14"/>
<path d="M116 32H134V42H116V32Z" fill="#873800"/>
<path d="M116 32H132V41H116V32Z" fill="#612500"/>
<path d="M22 32H28V42H22V32Z" fill="#612500"/>
<path d="M28 32H116V45H28V32Z" fill="#612500"/>
<path d="M93 14H97V20H93V14Z" fill="#AD4E00"/>
<path d="M75 10H93V22H75V10Z" fill="#612500"/>
<path d="M72 13H96V19H72V13Z" fill="#612500"/>
<path d="M169 20H172V21H169V20Z" fill="#AD4E00"/>
<path d="M172 18H178V32H172V18Z" fill="#AD4E00"/>
<path d="M173 17H191V32H173V17Z" fill="#612500"/>
<path d="M191 20H195V30H191V20Z" fill="#612500"/>
<path d="M169 21H173V29H169V21Z" fill="#612500"/>
<path d="M225 33H226V34H225V33Z" fill="#AD4E00"/>
<path d="M226 32H228V39H226V32Z" fill="#AD4E00"/>
<path d="M227 32H234V40H227V32Z" fill="#612500"/>
<path d="M234 35H235V40H234V35Z" fill="#612500"/>
<path d="M225 34H227V39H225V34Z" fill="#612500"/>
<path d="M267 13H269V20H267V13Z" fill="#AD4E00"/>
<path d="M268 13H275V21H268V13Z" fill="#612500"/>
<path d="M266 15H268V18H266V15Z" fill="#612500"/>
<path d="M415.97 23.0773H413.818V20.9234H411.667V16.6156H413.818V12.3078H411.667V10.1539H409.516V8H405.213V10.1539H403.061V12.3078H400.91V10.1539H398.759V8H392.303V10.1539H390.151V12.3078H388V18.7695H390.151V20.9234H392.303V23.0773H394.454V27.3844H392.303V31.6922H394.454V33.8461H396.608V36H400.91V33.8461H403.061V31.6922H405.213V33.8461H407.364V36H413.818V33.8461H415.97V31.6922H418.121V25.2312H415.97V23.0773Z" fill="#040606"/>
<path d="M409.515 27.3846H407.364V25.2314H409.515V27.3846ZM396.607 16.6158H394.454V14.4619H396.607V16.6158ZM411.667 20.9234L405.212 20.9236V23.0775H403.061V20.9236H405.212V18.7697H407.364V14.4619H409.515L409.516 10.1539H405.213L405.212 12.308L403.061 12.3078L403.061 16.6158H400.91L400.91 12.3078L398.759 12.308L398.759 10.1539H392.303L392.302 12.308L390.151 12.3078V18.7695L392.302 18.7697L392.303 20.9234L398.759 20.9236V18.7697H400.91V20.9236H398.759V23.0775H396.607V27.3846L394.454 27.3844V31.6922L398.759 31.6924V29.5385H400.91V25.2314H403.061V29.5385H405.212L405.213 31.6922L411.667 31.6924V29.5385H413.818L413.818 23.0773L411.667 23.0775L411.667 20.9234Z" fill="#EDD922"/>
<path d="M392.302 18.7697L390.151 18.7695L390.151 16.6157H392.302V18.7697ZM392.302 14.4618H390.151L390.151 12.3078L392.302 12.308V14.4618Z" fill="#F6F4A6"/>
<path d="M409.516 12.308H405.212L405.213 10.1539H409.516V12.308Z" fill="#F6F4A6"/>
<path d="M398.759 12.308H392.302L392.303 10.1539H398.759L398.759 12.308Z" fill="#F6F4A6"/>
<path d="M396.607 27.3846L398.758 27.3845V25.2313H396.607V27.3846Z" fill="#F47427"/>
<path d="M398.759 31.6924L396.608 31.6924V29.5385H394.454V31.6922V27.3844L396.607 27.3846L396.608 29.5385H398.759V31.6924ZM400.91 29.5385H398.759L398.759 27.3846H400.91L400.91 29.5385Z" fill="#F47427"/>
<path d="M398.758 25.2313L400.91 25.2314L400.91 23.0775H398.759L398.758 25.2313Z" fill="#F47427"/>
<path d="M403.061 25.2314H405.213L405.212 23.0775H403.061V25.2314Z" fill="#F47427"/>
<path d="M405.213 27.3845L407.364 27.3846V25.2314H405.213L405.213 27.3845Z" fill="#F47427"/>
<path d="M407.364 25.2314H409.515V23.0775H407.364V25.2314Z" fill="#F47427"/>
<path d="M409.515 27.3846L411.667 27.3845V25.2313L409.515 25.2314V27.3846Z" fill="#F47427"/>
<path d="M411.667 31.6924L409.515 31.6924V29.5385H407.364V31.6924L405.213 31.6922L405.212 29.5385H403.061L403.061 27.3846L405.213 27.3845L405.212 29.5385H407.364L407.364 27.3846H409.515L409.515 29.5385H411.667V31.6924ZM413.818 29.5385H411.667L411.667 27.3845L413.818 27.3846L413.818 29.5385Z" fill="#F47427"/>
<path d="M411.667 25.2313L413.818 25.2314V23.0773L411.667 23.0775L411.667 25.2313Z" fill="#F47427"/>
<path d="M407.364 31.6924H409.515V29.5385H407.364V31.6924Z" fill="#F1452F"/>
<path d="M394.454 31.6922L396.608 31.6924V29.5385H394.454V31.6922Z" fill="#F1452F"/>
<path d="M385.347 14.4612V12.3075H383.179V10.1537H381.009V8H372.336V10.1537H370.168V12.3075H368V29.5373H370.168V31.6911H372.336V33.8463H374.505V36H383.179V33.8463H385.347V31.6911H387.515V14.4612H385.347Z" fill="#040606"/>
<path d="M378.841 27.3835H374.505V14.4611H378.841V27.3835ZM381.009 12.3074L381.009 10.1537H372.336L372.337 12.3074L370.168 12.3075V29.5373L372.337 29.5372L372.336 31.6911L381.009 31.691V29.5372H383.179L383.179 12.3075L381.009 12.3074Z" fill="#EDD922"/>
<path d="M370.168 25.2298H372.337V23.076H370.168V25.2298Z" fill="#F47427"/>
<path d="M372.337 27.3834L374.505 27.3835L374.505 25.2297L372.337 25.2298L372.337 27.3834Z" fill="#F47427"/>
<path d="M378.841 31.6911H376.673V29.5373H374.505V31.6911L372.336 31.6911L372.337 29.5372L370.168 29.5373L370.168 27.3836L372.337 27.3834L372.337 29.5372L374.505 29.5373V27.3835L376.673 27.3836V29.5373H378.841V27.3835L381.009 27.3836V29.5372L378.841 29.5373V31.6911Z" fill="#F47427"/>
<path d="M378.841 25.2298H381.009V23.076H378.841V25.2298Z" fill="#F47427"/>
<path d="M381.009 27.3836L383.179 27.3834V25.2297L381.009 25.2298L381.009 27.3836Z" fill="#F47427"/>
<path d="M378.841 31.6911L381.009 31.691V29.5372L378.841 29.5373V31.6911Z" fill="#F1452F"/>
<path d="M374.505 31.6911H376.673V29.5373H374.505V31.6911Z" fill="#F1452F"/>
<path d="M372.337 18.7685H370.168V16.6147H372.337V18.7685ZM372.337 14.461H370.168L370.168 12.3075L372.337 12.3074V14.461Z" fill="#F6F4A6"/>
<path d="M381.009 12.3074H372.337L372.336 10.1537H381.009L381.009 12.3074Z" fill="#F6F4A6"/>
<path d="M366.231 12.3075H364.077V10.1537H361.923V8H351.154V10.1537H349V14.4612H351.154V16.6149H353.307V18.7687H351.154V23.0761H353.307V25.2299H351.154V27.3836H349V31.6911H351.154V33.8463H353.307V36H364.077V33.8463H366.231V31.6911H368.384V23.0761H366.231V20.9224H368.384V14.4612H366.231V12.3075Z" fill="#040606"/>
<path d="M361.923 10.1537H351.154V14.4612L359.769 14.4611V18.7686L353.307 18.7687V23.0761L359.769 23.076V27.3835L351.154 27.3836V31.6911L361.923 31.691V29.5372H364.077V20.9223H361.923V18.7686H364.077L364.077 12.3075L361.923 12.3074L361.923 10.1537Z" fill="#EDD922"/>
<path d="M353.307 14.4611L351.154 14.4612V10.1537H361.923L361.923 12.3074H353.307V14.4611Z" fill="#F6F4A6"/>
<path d="M359.769 31.6911H357.615V29.5373H355.462V31.6911H353.307V29.5373H351.153L351.154 31.6911V27.3836H353.307V29.5373H355.462V27.3836H357.615V29.5373H359.769V27.3835L361.923 27.3836V29.5372L359.769 29.5373V31.6911Z" fill="#F47427"/>
<path d="M359.769 25.2298H361.923V23.076H359.769V25.2298Z" fill="#F47427"/>
<path d="M361.923 27.3836L364.077 27.3834V25.2297L361.923 25.2298V27.3836Z" fill="#F47427"/>
<path d="M359.769 31.6911L361.923 31.691V29.5372L359.769 29.5373V31.6911Z" fill="#F1452F"/>
<path d="M355.462 31.6911H357.615V29.5373H355.462V31.6911Z" fill="#F1452F"/>
<path d="M351.154 31.6911L353.307 31.6911V29.5373H351.153L351.154 31.6911Z" fill="#F1452F"/>
</svg>
