<svg width="667" height="50" viewBox="0 0 667 50" fill="none" xmlns="http://www.w3.org/2000/svg">
<path d="M657.348 9.44441V5H8.6512V9.44441H5V40.5556H8.6512V45H657.348V40.5556H661V9.44441H657.348Z" fill="white"/>
<path d="M12 45V50H656V45H12Z" fill="#3F3F3F"/>
<path d="M656 5V0H12V5H656Z" fill="#3F3F3F"/>
<path d="M6 39V45H12V39H6Z" fill="#3F3F3F"/>
<path d="M12 5H6V11H12V5Z" fill="#3F3F3F"/>
<path d="M6 11H0V39H6V11Z" fill="#3F3F3F"/>
<path d="M26 8H20V36H26V8Z" fill="#3F3F3F"/>
<path d="M661 11V39H667V11H661Z" fill="#3F3F3F"/>
<path d="M656 45H662V39H656V45Z" fill="#3F3F3F"/>
<path d="M662 11V5H656V11H662Z" fill="#3F3F3F"/>
<path d="M355.97 23.0773H353.818V20.9234H351.667V16.6156H353.818V12.3078H351.667V10.1539H349.516V8H345.213V10.1539H343.061V12.3078H340.91V10.1539H338.759V8H332.303V10.1539H330.151V12.3078H328V18.7695H330.151V20.9234H332.303V23.0773H334.454V27.3844H332.303V31.6922H334.454V33.8461H336.608V36H340.91V33.8461H343.061V31.6922H345.213V33.8461H347.364V36H353.818V33.8461H355.97V31.6922H358.121V25.2312H355.97V23.0773Z" fill="#040606"/>
<path d="M349.515 27.3846H347.364V25.2314H349.515V27.3846ZM336.607 16.6158H334.454V14.4619H336.607V16.6158ZM351.667 20.9234L345.212 20.9236V23.0775H343.061V20.9236H345.212V18.7697H347.364V14.4619H349.515L349.516 10.1539H345.213L345.212 12.308L343.061 12.3078L343.061 16.6158H340.91L340.91 12.3078L338.759 12.308L338.759 10.1539H332.303L332.302 12.308L330.151 12.3078V18.7695L332.302 18.7697L332.303 20.9234L338.759 20.9236V18.7697H340.91V20.9236H338.759V23.0775H336.607V27.3846L334.454 27.3844V31.6922L338.759 31.6924V29.5385H340.91V25.2314H343.061V29.5385H345.212L345.213 31.6922L351.667 31.6924V29.5385H353.818L353.818 23.0773L351.667 23.0775L351.667 20.9234Z" fill="#EDD922"/>
<path d="M332.302 18.7697L330.151 18.7695L330.151 16.6157H332.302V18.7697ZM332.302 14.4618H330.151L330.151 12.3078L332.302 12.308V14.4618Z" fill="#F6F4A6"/>
<path d="M349.516 12.308H345.212L345.213 10.1539H349.516V12.308Z" fill="#F6F4A6"/>
<path d="M338.759 12.308H332.302L332.303 10.1539H338.759L338.759 12.308Z" fill="#F6F4A6"/>
<path d="M336.607 27.3846L338.758 27.3845V25.2313H336.607V27.3846Z" fill="#F47427"/>
<path d="M338.759 31.6924L336.608 31.6924V29.5385H334.454V31.6922V27.3844L336.607 27.3846L336.608 29.5385H338.759V31.6924ZM340.91 29.5385H338.759L338.759 27.3846H340.91L340.91 29.5385Z" fill="#F47427"/>
<path d="M338.758 25.2313L340.91 25.2314L340.91 23.0775H338.759L338.758 25.2313Z" fill="#F47427"/>
<path d="M343.061 25.2314H345.213L345.212 23.0775H343.061V25.2314Z" fill="#F47427"/>
<path d="M345.213 27.3845L347.364 27.3846V25.2314H345.213L345.213 27.3845Z" fill="#F47427"/>
<path d="M347.364 25.2314H349.515V23.0775H347.364V25.2314Z" fill="#F47427"/>
<path d="M349.515 27.3846L351.667 27.3845V25.2313L349.515 25.2314V27.3846Z" fill="#F47427"/>
<path d="M351.667 31.6924L349.515 31.6924V29.5385H347.364V31.6924L345.213 31.6922L345.212 29.5385H343.061L343.061 27.3846L345.213 27.3845L345.212 29.5385H347.364L347.364 27.3846H349.515L349.515 29.5385H351.667V31.6924ZM353.818 29.5385H351.667L351.667 27.3845L353.818 27.3846L353.818 29.5385Z" fill="#F47427"/>
<path d="M351.667 25.2313L353.818 25.2314V23.0773L351.667 23.0775L351.667 25.2313Z" fill="#F47427"/>
<path d="M347.364 31.6924H349.515V29.5385H347.364V31.6924Z" fill="#F1452F"/>
<path d="M334.454 31.6922L336.608 31.6924V29.5385H334.454V31.6922Z" fill="#F1452F"/>
<path d="M325.347 14.4612V12.3075H323.179V10.1537H321.009V8H312.336V10.1537H310.168V12.3075H308V29.5373H310.168V31.6911H312.336V33.8463H314.505V36H323.179V33.8463H325.347V31.6911H327.515V14.4612H325.347Z" fill="#040606"/>
<path d="M318.841 27.3835H314.505V14.4611H318.841V27.3835ZM321.009 12.3074L321.009 10.1537H312.336L312.337 12.3074L310.168 12.3075V29.5373L312.337 29.5372L312.336 31.6911L321.009 31.691V29.5372H323.179L323.179 12.3075L321.009 12.3074Z" fill="#EDD922"/>
<path d="M310.168 25.2298H312.337V23.076H310.168V25.2298Z" fill="#F47427"/>
<path d="M312.337 27.3834L314.505 27.3835L314.505 25.2297L312.337 25.2298L312.337 27.3834Z" fill="#F47427"/>
<path d="M318.841 31.6911H316.673V29.5373H314.505V31.6911L312.336 31.6911L312.337 29.5372L310.168 29.5373L310.168 27.3836L312.337 27.3834L312.337 29.5372L314.505 29.5373V27.3835L316.673 27.3836V29.5373H318.841V27.3835L321.009 27.3836V29.5372L318.841 29.5373V31.6911Z" fill="#F47427"/>
<path d="M318.841 25.2298H321.009V23.076H318.841V25.2298Z" fill="#F47427"/>
<path d="M321.009 27.3836L323.179 27.3834V25.2297L321.009 25.2298L321.009 27.3836Z" fill="#F47427"/>
<path d="M318.841 31.6911L321.009 31.691V29.5372L318.841 29.5373V31.6911Z" fill="#F1452F"/>
<path d="M314.505 31.6911H316.673V29.5373H314.505V31.6911Z" fill="#F1452F"/>
<path d="M312.337 18.7685H310.168V16.6147H312.337V18.7685ZM312.337 14.461H310.168L310.168 12.3075L312.337 12.3074V14.461Z" fill="#F6F4A6"/>
<path d="M321.009 12.3074H312.337L312.336 10.1537H321.009L321.009 12.3074Z" fill="#F6F4A6"/>
</svg>
