<svg width="667" height="50" viewBox="0 0 667 50" fill="none" xmlns="http://www.w3.org/2000/svg">
<path d="M657.348 9.44441V5H8.6512V9.44441H5V40.5556H8.6512V45H657.348V40.5556H661V9.44441H657.348Z" fill="white"/>
<path d="M12 45V50H656V45H12Z" fill="#3F3F3F"/>
<path d="M656 5V0H12V5H656Z" fill="#3F3F3F"/>
<path d="M6 39V45H12V39H6Z" fill="#3F3F3F"/>
<path d="M12 5H6V11H12V5Z" fill="#3F3F3F"/>
<path d="M6 11H0V39H6V11Z" fill="#3F3F3F"/>
<path d="M26 8H20V36H26V8Z" fill="#3F3F3F"/>
<path d="M661 11V39H667V11H661Z" fill="#3F3F3F"/>
<path d="M656 45H662V39H656V45Z" fill="#3F3F3F"/>
<path d="M662 11V5H656V11H662Z" fill="#3F3F3F"/>
<path d="M24 8H648V42H24V8Z" fill="#FAAD14"/>
<path d="M648 36H653V42H648V36Z" fill="#FFC53D"/>
<path d="M333 12H353V17H333V12Z" fill="#873800"/>
<path d="M355 13H378V19H355V13Z" fill="#873800"/>
<path d="M381 19H445V22H381V19Z" fill="#873800"/>
<path d="M443 8H447V25H443V8Z" fill="#873800"/>
<path d="M445 8H451V22H445V8Z" fill="#6C3224"/>
<path d="M403 8H423V21H403V8Z" fill="#6C3224"/>
<path d="M423 8H445V23H423V8Z" fill="#6C3224"/>
<path d="M378 8H403V19H378V8Z" fill="#6C3224"/>
<path d="M353 8H378V17H353V8Z" fill="#6C3224"/>
<path d="M336 10H353V15H336V10Z" fill="#6C3224"/>
<path d="M334 13H336V15H334V13Z" fill="#6C3224"/>
<path d="M305 30H324V38H305V30Z" fill="#AD4E00"/>
<path d="M313 39H323V44H313V39Z" fill="#612500"/>
<path d="M308 32H325V39H308V32Z" fill="#612500"/>
<path d="M566 5H572V20H566V5Z" fill="#6C3224"/>
<path d="M572 8H577V20H572V8Z" fill="#6C3224"/>
<path d="M577 12H582V20H577V12Z" fill="#6C3224"/>
<path d="M565 5H566V21H565V5Z" fill="#AD4E00"/>
<path d="M566 20H582V21H566V20Z" fill="#AD4E00"/>
<path d="M116 32H134V42H116V32Z" fill="#873800"/>
<path d="M116 32H132V41H116V32Z" fill="#612500"/>
<path d="M22 32H28V42H22V32Z" fill="#612500"/>
<path d="M28 32H116V45H28V32Z" fill="#612500"/>
<path d="M93 14H97V20H93V14Z" fill="#AD4E00"/>
<path d="M75 10H93V22H75V10Z" fill="#612500"/>
<path d="M72 13H96V19H72V13Z" fill="#612500"/>
<path d="M169 20H172V21H169V20Z" fill="#AD4E00"/>
<path d="M172 18H178V32H172V18Z" fill="#AD4E00"/>
<path d="M173 17H191V32H173V17Z" fill="#612500"/>
<path d="M191 20H195V30H191V20Z" fill="#612500"/>
<path d="M169 21H173V29H169V21Z" fill="#612500"/>
<path d="M493 27H496V28H493V27Z" fill="#AD4E00"/>
<path d="M496 25H502V39H496V25Z" fill="#AD4E00"/>
<path d="M497 24H515V39H497V24Z" fill="#612500"/>
<path d="M515 27H519V37H515V27Z" fill="#612500"/>
<path d="M493 28H497V36H493V28Z" fill="#612500"/>
<path d="M611 29H616V30H611V29Z" fill="#873800"/>
<path d="M615 26H626V41H615V26Z" fill="#612500"/>
<path d="M622 24H633V44H622V24Z" fill="#612500"/>
<path d="M633 29H637V39H633V29Z" fill="#612500"/>
<path d="M611 30H615V38H611V30Z" fill="#612500"/>
<path d="M225 33H226V34H225V33Z" fill="#AD4E00"/>
<path d="M226 32H228V39H226V32Z" fill="#AD4E00"/>
<path d="M227 32H234V40H227V32Z" fill="#612500"/>
<path d="M234 35H235V40H234V35Z" fill="#612500"/>
<path d="M225 34H227V39H225V34Z" fill="#612500"/>
<path d="M267 13H269V20H267V13Z" fill="#AD4E00"/>
<path d="M272 10H280V13H272V10Z" fill="#AD4E00"/>
<path d="M268 13H280V21H268V13Z" fill="#612500"/>
<path d="M266 15H268V18H266V15Z" fill="#612500"/>
<path d="M273 11H280V14H273V11Z" fill="#612500"/>
<path d="M653 8H648V36H653V8Z" fill="#3F3F3F"/>
<path d="M373.97 23.0773H371.818V20.9234H369.667V16.6156H371.818V12.3078H369.667V10.1539H367.516V8H363.213V10.1539H361.061V12.3078H358.91V10.1539H356.759V8H350.303V10.1539H348.151V12.3078H346V18.7695H348.151V20.9234H350.303V23.0773H352.454V27.3844H350.303V31.6922H352.454V33.8461H354.608V36H358.91V33.8461H361.061V31.6922H363.213V33.8461H365.364V36H371.818V33.8461H373.97V31.6922H376.121V25.2312H373.97V23.0773Z" fill="#040606"/>
<path d="M367.515 27.3846H365.364V25.2314H367.515V27.3846ZM354.607 16.6158H352.454V14.4619H354.607V16.6158ZM369.667 20.9234L363.212 20.9236V23.0775H361.061V20.9236H363.212V18.7697H365.364V14.4619H367.515L367.516 10.1539H363.213L363.212 12.308L361.061 12.3078L361.061 16.6158H358.91L358.91 12.3078L356.759 12.308L356.759 10.1539H350.303L350.302 12.308L348.151 12.3078V18.7695L350.302 18.7697L350.303 20.9234L356.759 20.9236V18.7697H358.91V20.9236H356.759V23.0775H354.607V27.3846L352.454 27.3844V31.6922L356.759 31.6924V29.5385H358.91V25.2314H361.061V29.5385H363.212L363.213 31.6922L369.667 31.6924V29.5385H371.818L371.818 23.0773L369.667 23.0775L369.667 20.9234Z" fill="#EDD922"/>
<path d="M350.302 18.7697L348.151 18.7695L348.151 16.6157H350.302V18.7697ZM350.302 14.4618H348.151L348.151 12.3078L350.302 12.308V14.4618Z" fill="#F6F4A6"/>
<path d="M367.516 12.308H363.212L363.213 10.1539H367.516V12.308Z" fill="#F6F4A6"/>
<path d="M356.759 12.308H350.302L350.303 10.1539H356.759L356.759 12.308Z" fill="#F6F4A6"/>
<path d="M354.607 27.3846L356.758 27.3845V25.2313H354.607V27.3846Z" fill="#F47427"/>
<path d="M356.759 31.6924L354.608 31.6924V29.5385H352.454V31.6922V27.3844L354.607 27.3846L354.608 29.5385H356.759V31.6924ZM358.91 29.5385H356.759L356.759 27.3846H358.91L358.91 29.5385Z" fill="#F47427"/>
<path d="M356.758 25.2313L358.91 25.2314L358.91 23.0775H356.759L356.758 25.2313Z" fill="#F47427"/>
<path d="M361.061 25.2314H363.213L363.212 23.0775H361.061V25.2314Z" fill="#F47427"/>
<path d="M363.213 27.3845L365.364 27.3846V25.2314H363.213L363.213 27.3845Z" fill="#F47427"/>
<path d="M365.364 25.2314H367.515V23.0775H365.364V25.2314Z" fill="#F47427"/>
<path d="M367.515 27.3846L369.667 27.3845V25.2313L367.515 25.2314V27.3846Z" fill="#F47427"/>
<path d="M369.667 31.6924L367.515 31.6924V29.5385H365.364V31.6924L363.213 31.6922L363.212 29.5385H361.061L361.061 27.3846L363.213 27.3845L363.212 29.5385H365.364L365.364 27.3846H367.515L367.515 29.5385H369.667V31.6924ZM371.818 29.5385H369.667L369.667 27.3845L371.818 27.3846L371.818 29.5385Z" fill="#F47427"/>
<path d="M369.667 25.2313L371.818 25.2314V23.0773L369.667 23.0775L369.667 25.2313Z" fill="#F47427"/>
<path d="M365.364 31.6924H367.515V29.5385H365.364V31.6924Z" fill="#F1452F"/>
<path d="M352.454 31.6922L354.608 31.6924V29.5385H352.454V31.6922Z" fill="#F1452F"/>
<path d="M343.347 14.4612V12.3075H341.179V10.1537H339.009V8H330.336V10.1537H328.168V12.3075H326V29.5373H328.168V31.6911H330.336V33.8463H332.505V36H341.179V33.8463H343.347V31.6911H345.515V14.4612H343.347Z" fill="#040606"/>
<path d="M336.841 27.3835H332.505V14.4611H336.841V27.3835ZM339.009 12.3074L339.009 10.1537H330.336L330.337 12.3074L328.168 12.3075V29.5373L330.337 29.5372L330.336 31.6911L339.009 31.691V29.5372H341.179L341.179 12.3075L339.009 12.3074Z" fill="#EDD922"/>
<path d="M328.168 25.2298H330.337V23.076H328.168V25.2298Z" fill="#F47427"/>
<path d="M330.337 27.3834L332.505 27.3835L332.505 25.2297L330.337 25.2298L330.337 27.3834Z" fill="#F47427"/>
<path d="M336.841 31.6911H334.673V29.5373H332.505V31.6911L330.336 31.6911L330.337 29.5372L328.168 29.5373L328.168 27.3836L330.337 27.3834L330.337 29.5372L332.505 29.5373V27.3835L334.673 27.3836V29.5373H336.841V27.3835L339.009 27.3836V29.5372L336.841 29.5373V31.6911Z" fill="#F47427"/>
<path d="M336.841 25.2298H339.009V23.076H336.841V25.2298Z" fill="#F47427"/>
<path d="M339.009 27.3836L341.179 27.3834V25.2297L339.009 25.2298L339.009 27.3836Z" fill="#F47427"/>
<path d="M336.841 31.6911L339.009 31.691V29.5372L336.841 29.5373V31.6911Z" fill="#F1452F"/>
<path d="M332.505 31.6911H334.673V29.5373H332.505V31.6911Z" fill="#F1452F"/>
<path d="M330.337 18.7685H328.168V16.6147H330.337V18.7685ZM330.337 14.461H328.168L328.168 12.3075L330.337 12.3074V14.461Z" fill="#F6F4A6"/>
<path d="M339.009 12.3074H330.337L330.336 10.1537H339.009L339.009 12.3074Z" fill="#F6F4A6"/>
<path d="M323.347 14.4612V12.3075H321.179V10.1537H319.009V8H310.336V10.1537H308.168V12.3075H306V29.5373H308.168V31.6911H310.336V33.8463H312.505V36H321.179V33.8463H323.347V31.6911H325.515V14.4612H323.347Z" fill="#040606"/>
<path d="M316.841 27.3835H312.505V14.4611H316.841V27.3835ZM319.009 12.3074L319.009 10.1537H310.336L310.337 12.3074L308.168 12.3075V29.5373L310.337 29.5372L310.336 31.6911L319.009 31.691V29.5372H321.179L321.179 12.3075L319.009 12.3074Z" fill="#EDD922"/>
<path d="M308.168 25.2298H310.337V23.076H308.168V25.2298Z" fill="#F47427"/>
<path d="M310.337 27.3834L312.505 27.3835L312.505 25.2297L310.337 25.2298L310.337 27.3834Z" fill="#F47427"/>
<path d="M316.841 31.6911H314.673V29.5373H312.505V31.6911L310.336 31.6911L310.337 29.5372L308.168 29.5373L308.168 27.3836L310.337 27.3834L310.337 29.5372L312.505 29.5373V27.3835L314.673 27.3836V29.5373H316.841V27.3835L319.009 27.3836V29.5372L316.841 29.5373V31.6911Z" fill="#F47427"/>
<path d="M316.841 25.2298H319.009V23.076H316.841V25.2298Z" fill="#F47427"/>
<path d="M319.009 27.3836L321.179 27.3834V25.2297L319.009 25.2298L319.009 27.3836Z" fill="#F47427"/>
<path d="M316.841 31.6911L319.009 31.691V29.5372L316.841 29.5373V31.6911Z" fill="#F1452F"/>
<path d="M312.505 31.6911H314.673V29.5373H312.505V31.6911Z" fill="#F1452F"/>
<path d="M310.337 18.7685H308.168V16.6147H310.337V18.7685ZM310.337 14.461H308.168L308.168 12.3075L310.337 12.3074V14.461Z" fill="#F6F4A6"/>
<path d="M319.009 12.3074H310.337L310.336 10.1537H319.009L319.009 12.3074Z" fill="#F6F4A6"/>
<path d="M303.923 12.3075H301.769V10.1537H299.616V8H297.462V10.1537H295.307V12.3075H293.154V14.4612H291V18.7687H293.154V27.3836H291V31.6911H293.154V33.8463H295.307V36H303.923V33.8463H306.077V29.5373H303.923V12.3075Z" fill="#040606"/>
<path d="M299.616 25.2298L299.616 10.1537H297.462L297.462 12.3074L295.307 12.3075L295.308 14.4611L293.154 14.4612V18.7687L295.308 18.7686V27.3835L293.154 27.3836V31.6911L301.77 31.691V27.3835H299.616V25.2298Z" fill="#EDD922"/>
<path d="M299.616 31.691H297.462V29.5372H295.308V31.691L293.154 31.6911L293.154 29.5372H295.308V27.3835L297.462 27.3835V29.5372H299.616V27.3835H301.77V29.5372H299.616V31.691ZM299.616 27.3835L297.462 27.3835V25.2298H299.616V27.3835ZM297.462 25.2298H295.308V23.076H297.462V25.2298Z" fill="#F47427"/>
<path d="M299.616 31.691H301.77V29.5372H299.616V31.691Z" fill="#F1452F"/>
<path d="M295.308 31.691H297.462V29.5372H295.308V31.691Z" fill="#F1452F"/>
<path d="M295.308 18.7686L293.154 18.7687L293.154 16.6147H295.308V18.7686ZM297.462 14.461L295.308 14.4611L295.307 12.3075L297.462 12.3074V14.461Z" fill="#F6F4A6"/>
<path d="M297.462 12.3074H299.615L299.616 10.1537H297.462L297.462 12.3074Z" fill="#F6F4A6"/>
</svg>
