<svg width="667" height="50" viewBox="0 0 667 50" fill="none" xmlns="http://www.w3.org/2000/svg">
<path d="M657.348 9.44441V5H8.6512V9.44441H5V40.5556H8.6512V45H657.348V40.5556H661V9.44441H657.348Z" fill="white"/>
<path d="M12 45V50H656V45H12Z" fill="#3F3F3F"/>
<path d="M656 5V0H12V5H656Z" fill="#3F3F3F"/>
<path d="M6 39V45H12V39H6Z" fill="#3F3F3F"/>
<path d="M12 5H6V11H12V5Z" fill="#3F3F3F"/>
<path d="M6 11H0V39H6V11Z" fill="#3F3F3F"/>
<path d="M26 8H20V36H26V8Z" fill="#3F3F3F"/>
<path d="M661 11V39H667V11H661Z" fill="#3F3F3F"/>
<path d="M656 45H662V39H656V45Z" fill="#3F3F3F"/>
<path d="M662 11V5H656V11H662Z" fill="#3F3F3F"/>
<path d="M24 8H237V42H24V8Z" fill="#FAAD14"/>
<path d="M237 8H241V42H237V8Z" fill="#FFE58F"/>
<path d="M245 16H249V34H245V16Z" fill="#FFC53D"/>
<path d="M241 12H245V38H241V12Z" fill="#FFD666"/>
<path d="M237 12H241V38H237V12Z" fill="#FAAD14"/>
<path d="M241 16H245V34H241V16Z" fill="#FAAD14"/>
<path d="M116 32H134V42H116V32Z" fill="#873800"/>
<path d="M116 32H132V41H116V32Z" fill="#612500"/>
<path d="M22 32H28V42H22V32Z" fill="#612500"/>
<path d="M28 32H116V45H28V32Z" fill="#612500"/>
<path d="M93 14H97V20H93V14Z" fill="#AD4E00"/>
<path d="M75 10H93V22H75V10Z" fill="#612500"/>
<path d="M72 13H96V19H72V13Z" fill="#612500"/>
<path d="M169 20H172V21H169V20Z" fill="#AD4E00"/>
<path d="M172 18H178V32H172V18Z" fill="#AD4E00"/>
<path d="M173 17H191V32H173V17Z" fill="#612500"/>
<path d="M191 20H195V30H191V20Z" fill="#612500"/>
<path d="M169 21H173V29H169V21Z" fill="#612500"/>
<path d="M225 33H226V34H225V33Z" fill="#AD4E00"/>
<path d="M226 32H228V39H226V32Z" fill="#AD4E00"/>
<path d="M227 32H234V40H227V32Z" fill="#612500"/>
<path d="M234 35H235V40H234V35Z" fill="#612500"/>
<path d="M225 34H227V39H225V34Z" fill="#612500"/>
<path d="M365.97 23.0773H363.818V20.9234H361.667V16.6156H363.818V12.3078H361.667V10.1539H359.516V8H355.213V10.1539H353.061V12.3078H350.91V10.1539H348.759V8H342.303V10.1539H340.151V12.3078H338V18.7695H340.151V20.9234H342.303V23.0773H344.454V27.3844H342.303V31.6922H344.454V33.8461H346.608V36H350.91V33.8461H353.061V31.6922H355.213V33.8461H357.364V36H363.818V33.8461H365.97V31.6922H368.121V25.2312H365.97V23.0773Z" fill="#040606"/>
<path d="M359.515 27.3846H357.364V25.2314H359.515V27.3846ZM346.607 16.6158H344.454V14.4619H346.607V16.6158ZM361.667 20.9234L355.212 20.9236V23.0775H353.061V20.9236H355.212V18.7697H357.364V14.4619H359.515L359.516 10.1539H355.213L355.212 12.308L353.061 12.3078L353.061 16.6158H350.91L350.91 12.3078L348.759 12.308L348.759 10.1539H342.303L342.302 12.308L340.151 12.3078V18.7695L342.302 18.7697L342.303 20.9234L348.759 20.9236V18.7697H350.91V20.9236H348.759V23.0775H346.607V27.3846L344.454 27.3844V31.6922L348.759 31.6924V29.5385H350.91V25.2314H353.061V29.5385H355.212L355.213 31.6922L361.667 31.6924V29.5385H363.818L363.818 23.0773L361.667 23.0775L361.667 20.9234Z" fill="#EDD922"/>
<path d="M342.302 18.7697L340.151 18.7695L340.151 16.6157H342.302V18.7697ZM342.302 14.4618H340.151L340.151 12.3078L342.302 12.308V14.4618Z" fill="#F6F4A6"/>
<path d="M359.516 12.308H355.212L355.213 10.1539H359.516V12.308Z" fill="#F6F4A6"/>
<path d="M348.759 12.308H342.302L342.303 10.1539H348.759L348.759 12.308Z" fill="#F6F4A6"/>
<path d="M346.607 27.3846L348.758 27.3845V25.2313H346.607V27.3846Z" fill="#F47427"/>
<path d="M348.759 31.6924L346.608 31.6924V29.5385H344.454V31.6922V27.3844L346.607 27.3846L346.608 29.5385H348.759V31.6924ZM350.91 29.5385H348.759L348.759 27.3846H350.91L350.91 29.5385Z" fill="#F47427"/>
<path d="M348.758 25.2313L350.91 25.2314L350.91 23.0775H348.759L348.758 25.2313Z" fill="#F47427"/>
<path d="M353.061 25.2314H355.213L355.212 23.0775H353.061V25.2314Z" fill="#F47427"/>
<path d="M355.213 27.3845L357.364 27.3846V25.2314H355.213L355.213 27.3845Z" fill="#F47427"/>
<path d="M357.364 25.2314H359.515V23.0775H357.364V25.2314Z" fill="#F47427"/>
<path d="M359.515 27.3846L361.667 27.3845V25.2313L359.515 25.2314V27.3846Z" fill="#F47427"/>
<path d="M361.667 31.6924L359.515 31.6924V29.5385H357.364V31.6924L355.213 31.6922L355.212 29.5385H353.061L353.061 27.3846L355.213 27.3845L355.212 29.5385H357.364L357.364 27.3846H359.515L359.515 29.5385H361.667V31.6924ZM363.818 29.5385H361.667L361.667 27.3845L363.818 27.3846L363.818 29.5385Z" fill="#F47427"/>
<path d="M361.667 25.2313L363.818 25.2314V23.0773L361.667 23.0775L361.667 25.2313Z" fill="#F47427"/>
<path d="M357.364 31.6924H359.515V29.5385H357.364V31.6924Z" fill="#F1452F"/>
<path d="M344.454 31.6922L346.608 31.6924V29.5385H344.454V31.6922Z" fill="#F1452F"/>
<path d="M335.347 14.4612V12.3075H333.179V10.1537H331.009V8H322.336V10.1537H320.168V12.3075H318V29.5373H320.168V31.6911H322.336V33.8463H324.505V36H333.179V33.8463H335.347V31.6911H337.515V14.4612H335.347Z" fill="#040606"/>
<path d="M328.841 27.3835H324.505V14.4611H328.841V27.3835ZM331.009 12.3074L331.009 10.1537H322.336L322.337 12.3074L320.168 12.3075V29.5373L322.337 29.5372L322.336 31.6911L331.009 31.691V29.5372H333.179L333.179 12.3075L331.009 12.3074Z" fill="#EDD922"/>
<path d="M320.168 25.2298H322.337V23.076H320.168V25.2298Z" fill="#F47427"/>
<path d="M322.337 27.3834L324.505 27.3835L324.505 25.2297L322.337 25.2298L322.337 27.3834Z" fill="#F47427"/>
<path d="M328.841 31.6911H326.673V29.5373H324.505V31.6911L322.336 31.6911L322.337 29.5372L320.168 29.5373L320.168 27.3836L322.337 27.3834L322.337 29.5372L324.505 29.5373V27.3835L326.673 27.3836V29.5373H328.841V27.3835L331.009 27.3836V29.5372L328.841 29.5373V31.6911Z" fill="#F47427"/>
<path d="M328.841 25.2298H331.009V23.076H328.841V25.2298Z" fill="#F47427"/>
<path d="M331.009 27.3836L333.179 27.3834V25.2297L331.009 25.2298L331.009 27.3836Z" fill="#F47427"/>
<path d="M328.841 31.6911L331.009 31.691V29.5372L328.841 29.5373V31.6911Z" fill="#F1452F"/>
<path d="M324.505 31.6911H326.673V29.5373H324.505V31.6911Z" fill="#F1452F"/>
<path d="M322.337 18.7685H320.168V16.6147H322.337V18.7685ZM322.337 14.461H320.168L320.168 12.3075L322.337 12.3074V14.461Z" fill="#F6F4A6"/>
<path d="M331.009 12.3074H322.337L322.336 10.1537H331.009L331.009 12.3074Z" fill="#F6F4A6"/>
<path d="M316.231 12.3075H314.077V10.1537H311.923V8H301.154V10.1537H299V14.4612H301.154V16.6149H303.307V18.7687H301.154V23.0761H303.307V25.2299H301.154V27.3836H299V31.6911H301.154V33.8463H303.307V36H314.077V33.8463H316.231V31.6911H318.384V23.0761H316.231V20.9224H318.384V14.4612H316.231V12.3075Z" fill="#040606"/>
<path d="M311.923 10.1537H301.154V14.4612L309.769 14.4611V18.7686L303.307 18.7687V23.0761L309.769 23.076V27.3835L301.154 27.3836V31.6911L311.923 31.691V29.5372H314.077V20.9223H311.923V18.7686H314.077L314.077 12.3075L311.923 12.3074L311.923 10.1537Z" fill="#EDD922"/>
<path d="M303.307 14.4611L301.154 14.4612V10.1537H311.923L311.923 12.3074H303.307V14.4611Z" fill="#F6F4A6"/>
<path d="M309.769 31.6911H307.615V29.5373H305.462V31.6911H303.307V29.5373H301.153L301.154 31.6911V27.3836H303.307V29.5373H305.462V27.3836H307.615V29.5373H309.769V27.3835L311.923 27.3836V29.5372L309.769 29.5373V31.6911Z" fill="#F47427"/>
<path d="M309.769 25.2298H311.923V23.076H309.769V25.2298Z" fill="#F47427"/>
<path d="M311.923 27.3836L314.077 27.3834V25.2297L311.923 25.2298V27.3836Z" fill="#F47427"/>
<path d="M309.769 31.6911L311.923 31.691V29.5372L309.769 29.5373V31.6911Z" fill="#F1452F"/>
<path d="M305.462 31.6911H307.615V29.5373H305.462V31.6911Z" fill="#F1452F"/>
<path d="M301.154 31.6911L303.307 31.6911V29.5373H301.153L301.154 31.6911Z" fill="#F1452F"/>
</svg>
