<svg width="727" height="1216" viewBox="0 0 727 1216" fill="none" xmlns="http://www.w3.org/2000/svg">
<rect x="46.5" y="17.5" width="676" height="1056" fill="#613400" stroke="#3F3F3F" stroke-width="9"/>
<rect x="13" y="1179" width="9.04762" height="9.03448" fill="#3F3F3F"/>
<rect x="40" y="1179" width="9.04762" height="9.03448" fill="#B25E00"/>
<rect x="22" y="1179" width="9.04762" height="9.03448" fill="#954A00"/>
<rect x="49" y="1179" width="9.04762" height="9.03448" fill="#3F3F3F"/>
<rect x="31" y="1179" width="9.04762" height="9.03448" fill="#B25E00"/>
<rect x="13" y="1170" width="9.04762" height="9.03448" fill="#3F3F3F"/>
<rect x="40" y="1170" width="9.04762" height="9.03448" fill="#B25E00"/>
<rect x="22" y="1170" width="9.04762" height="9.03448" fill="#954A00"/>
<rect x="49" y="1170" width="9.04762" height="9.03448" fill="#3F3F3F"/>
<rect x="31" y="1170" width="9.04762" height="9.03448" fill="#B25E00"/>
<rect x="13" y="1161" width="9.04762" height="9.03448" fill="#3F3F3F"/>
<rect x="40" y="1161" width="9.04762" height="9.03448" fill="#B25E00"/>
<rect x="22" y="1161" width="9.04762" height="9.03448" fill="#954A00"/>
<rect x="49" y="1161" width="9.04762" height="9.03448" fill="#3F3F3F"/>
<rect x="31" y="1161" width="9.04762" height="9.03448" fill="#B25E00"/>
<rect x="13" y="1152" width="9.04762" height="9.03448" fill="#3F3F3F"/>
<rect x="40" y="1152" width="9.04762" height="9.03448" fill="#B25E00"/>
<rect x="22" y="1152" width="9.04762" height="9.03448" fill="#954A00"/>
<rect x="49" y="1152" width="9.04762" height="9.03448" fill="#3F3F3F"/>
<rect x="31" y="1152" width="9.04762" height="9.03448" fill="#B25E00"/>
<rect x="13" y="1143" width="9.04762" height="9.03448" fill="#3F3F3F"/>
<rect x="40" y="1143" width="9.04762" height="9.03448" fill="#B25E00"/>
<rect x="22" y="1143" width="9.04762" height="9.03448" fill="#954A00"/>
<rect x="49" y="1143" width="9.04762" height="9.03448" fill="#3F3F3F"/>
<rect x="31" y="1143" width="9.04762" height="9.03448" fill="#B25E00"/>
<rect x="13" y="1134" width="9.04762" height="9.03448" fill="#3F3F3F"/>
<rect x="40" y="1134" width="9.04762" height="9.03448" fill="#B25E00"/>
<rect x="22" y="1134" width="9.04762" height="9.03448" fill="#954A00"/>
<rect x="49" y="1134" width="9.04762" height="9.03448" fill="#3F3F3F"/>
<rect x="31" y="1134" width="9.04762" height="9.03448" fill="#B25E00"/>
<rect x="13" y="1125" width="9.04762" height="9.03448" fill="#3F3F3F"/>
<rect x="40" y="1125" width="9.04762" height="9.03448" fill="#B25E00"/>
<rect x="22" y="1125" width="9.04762" height="9.03448" fill="#954A00"/>
<rect x="49" y="1125" width="9.04762" height="9.03448" fill="#3F3F3F"/>
<rect x="31" y="1125" width="9.04762" height="9.03448" fill="#B25E00"/>
<rect x="13" y="1116" width="9.04762" height="9.03448" fill="#3F3F3F"/>
<rect x="40" y="1116" width="9.04762" height="9.03448" fill="#B25E00"/>
<rect x="22" y="1116" width="9.04762" height="9.03448" fill="#954A00"/>
<rect x="49" y="1116" width="9.04762" height="9.03448" fill="#3F3F3F"/>
<rect x="31" y="1116" width="9.04762" height="9.03448" fill="#B25E00"/>
<rect x="13" y="1107" width="9.04762" height="9.03448" fill="#3F3F3F"/>
<rect x="40" y="1107" width="9.04762" height="9.03448" fill="#B25E00"/>
<rect x="22" y="1107" width="9.04762" height="9.03448" fill="#954A00"/>
<rect x="49" y="1107" width="9.04762" height="9.03448" fill="#3F3F3F"/>
<rect x="31" y="1107" width="9.04762" height="9.03448" fill="#B25E00"/>
<rect x="13" y="1098" width="9.04762" height="9.03448" fill="#3F3F3F"/>
<rect x="40" y="1098" width="9.04762" height="9.03448" fill="#B25E00"/>
<rect x="22" y="1098" width="9.04762" height="9.03448" fill="#954A00"/>
<rect x="49" y="1098" width="9.04762" height="9.03448" fill="#3F3F3F"/>
<rect x="31" y="1098" width="9.04762" height="9.03448" fill="#B25E00"/>
<rect x="13" y="1089" width="9.04762" height="9.03448" fill="#3F3F3F"/>
<rect x="40" y="1089" width="9.04762" height="9.03448" fill="#B25E00"/>
<rect x="22" y="1089" width="9.04762" height="9.03448" fill="#954A00"/>
<rect x="49" y="1089" width="9.04762" height="9.03448" fill="#3F3F3F"/>
<rect x="31" y="1089" width="9.04762" height="9.03448" fill="#B25E00"/>
<rect x="13" y="1071" width="9.04762" height="9.03448" fill="#3F3F3F"/>
<rect x="40" y="1071" width="9.04762" height="9.03448" fill="#B25E00"/>
<rect x="22" y="1071" width="9.04762" height="9.03448" fill="#954A00"/>
<rect x="49" y="1071" width="9.04762" height="9.03448" fill="#3F3F3F"/>
<rect x="31" y="1071" width="9.04762" height="9.03448" fill="#B25E00"/>
<rect x="13" y="1080" width="9.04762" height="9.03448" fill="#3F3F3F"/>
<rect x="40" y="1080" width="9.04762" height="9.03448" fill="#B25E00"/>
<rect x="22" y="1080" width="9.04762" height="9.03448" fill="#954A00"/>
<rect x="49" y="1080" width="9.04762" height="9.03448" fill="#3F3F3F"/>
<rect x="31" y="1080" width="9.04762" height="9.03448" fill="#B25E00"/>
<rect x="13" y="1062" width="9.04762" height="9.03448" fill="#3F3F3F"/>
<rect x="40" y="1062" width="9.04762" height="9.03448" fill="#B25E00"/>
<rect x="22" y="1062" width="9.04762" height="9.03448" fill="#954A00"/>
<rect x="49" y="1062" width="9.04762" height="9.03448" fill="#3F3F3F"/>
<rect x="31" y="1062" width="9.04762" height="9.03448" fill="#B25E00"/>
<rect x="13" y="1053" width="9.04762" height="9.03448" fill="#3F3F3F"/>
<rect x="40" y="1053" width="9.04762" height="9.03448" fill="#B25E00"/>
<rect x="22" y="1053" width="9.04762" height="9.03448" fill="#954A00"/>
<rect x="49" y="1053" width="9.04762" height="9.03448" fill="#3F3F3F"/>
<rect x="31" y="1053" width="9.04762" height="9.03448" fill="#B25E00"/>
<rect x="13" y="1044" width="9.04762" height="9.03448" fill="#3F3F3F"/>
<rect x="40" y="1044" width="9.04762" height="9.03448" fill="#B25E00"/>
<rect x="22" y="1044" width="9.04762" height="9.03448" fill="#954A00"/>
<rect x="49" y="1044" width="9.04762" height="9.03448" fill="#3F3F3F"/>
<rect x="31" y="1044" width="9.04762" height="9.03448" fill="#B25E00"/>
<rect x="13" y="1035" width="9.04762" height="9.03448" fill="#3F3F3F"/>
<rect x="40" y="1035" width="9.04762" height="9.03448" fill="#B25E00"/>
<rect x="22" y="1035" width="9.04762" height="9.03448" fill="#954A00"/>
<rect x="49" y="1035" width="9.04762" height="9.03448" fill="#3F3F3F"/>
<rect x="31" y="1035" width="9.04762" height="9.03448" fill="#B25E00"/>
<rect x="13" y="1026" width="9.04762" height="9.03448" fill="#3F3F3F"/>
<rect x="40" y="1026" width="9.04762" height="9.03448" fill="#B25E00"/>
<rect x="22" y="1026" width="9.04762" height="9.03448" fill="#954A00"/>
<rect x="49" y="1026" width="9.04762" height="9.03448" fill="#3F3F3F"/>
<rect x="31" y="1026" width="9.04762" height="9.03448" fill="#B25E00"/>
<rect x="13" y="1017" width="9.04762" height="9.03448" fill="#3F3F3F"/>
<rect x="40" y="1017" width="9.04762" height="9.03448" fill="#B25E00"/>
<rect x="22" y="1017" width="9.04762" height="9.03448" fill="#954A00"/>
<rect x="49" y="1017" width="9.04762" height="9.03448" fill="#3F3F3F"/>
<rect x="31" y="1017" width="9.04762" height="9.03448" fill="#B25E00"/>
<rect x="13" y="1008" width="9.04762" height="9.03448" fill="#3F3F3F"/>
<rect x="40" y="1008" width="9.04762" height="9.03448" fill="#B25E00"/>
<rect x="22" y="1008" width="9.04762" height="9.03448" fill="#954A00"/>
<rect x="49" y="1008" width="9.04762" height="9.03448" fill="#3F3F3F"/>
<rect x="31" y="1008" width="9.04762" height="9.03448" fill="#B25E00"/>
<rect x="13" y="999" width="9.04762" height="9.03448" fill="#3F3F3F"/>
<rect x="40" y="999" width="9.04762" height="9.03448" fill="#B25E00"/>
<rect x="22" y="999" width="9.04762" height="9.03448" fill="#954A00"/>
<rect x="49" y="999" width="9.04762" height="9.03448" fill="#3F3F3F"/>
<rect x="31" y="999" width="9.04762" height="9.03448" fill="#B25E00"/>
<rect x="13" y="990" width="9.04762" height="9.03448" fill="#3F3F3F"/>
<rect x="40" y="990" width="9.04762" height="9.03448" fill="#B25E00"/>
<rect x="22" y="990" width="9.04762" height="9.03448" fill="#954A00"/>
<rect x="49" y="990" width="9.04762" height="9.03448" fill="#3F3F3F"/>
<rect x="31" y="990" width="9.04762" height="9.03448" fill="#B25E00"/>
<rect x="13" y="972" width="9.04762" height="9.03448" fill="#3F3F3F"/>
<rect x="40" y="972" width="9.04762" height="9.03448" fill="#B25E00"/>
<rect x="22" y="972" width="9.04762" height="9.03448" fill="#954A00"/>
<rect x="49" y="972" width="9.04762" height="9.03448" fill="#3F3F3F"/>
<rect x="31" y="972" width="9.04762" height="9.03448" fill="#B25E00"/>
<rect x="13" y="954" width="9.04762" height="9.03448" fill="#3F3F3F"/>
<rect x="40" y="954" width="9.04762" height="9.03448" fill="#B25E00"/>
<rect x="22" y="954" width="9.04762" height="9.03448" fill="#954A00"/>
<rect x="49" y="954" width="9.04762" height="9.03448" fill="#3F3F3F"/>
<rect x="31" y="954" width="9.04762" height="9.03448" fill="#B25E00"/>
<rect x="13" y="963" width="9.04762" height="9.03448" fill="#3F3F3F"/>
<rect x="40" y="963" width="9.04762" height="9.03448" fill="#B25E00"/>
<rect x="22" y="963" width="9.04762" height="9.03448" fill="#954A00"/>
<rect x="49" y="963" width="9.04762" height="9.03448" fill="#3F3F3F"/>
<rect x="31" y="963" width="9.04762" height="9.03448" fill="#B25E00"/>
<rect x="13" y="981" width="9.04762" height="9.03448" fill="#3F3F3F"/>
<rect x="40" y="981" width="9.04762" height="9.03448" fill="#B25E00"/>
<rect x="22" y="981" width="9.04762" height="9.03448" fill="#954A00"/>
<rect x="49" y="981" width="9.04762" height="9.03448" fill="#3F3F3F"/>
<rect x="31" y="981" width="9.04762" height="9.03448" fill="#B25E00"/>
<rect x="13" y="945" width="9.04762" height="9.03448" fill="#3F3F3F"/>
<rect x="40" y="945" width="9.04762" height="9.03448" fill="#B25E00"/>
<rect x="22" y="945" width="9.04762" height="9.03448" fill="#954A00"/>
<rect x="49" y="945" width="9.04762" height="9.03448" fill="#3F3F3F"/>
<rect x="31" y="945" width="9.04762" height="9.03448" fill="#B25E00"/>
<rect x="13" y="936" width="9.04762" height="9.03448" fill="#3F3F3F"/>
<rect x="40" y="936" width="9.04762" height="9.03448" fill="#B25E00"/>
<rect x="22" y="936" width="9.04762" height="9.03448" fill="#954A00"/>
<rect x="49" y="936" width="9.04762" height="9.03448" fill="#3F3F3F"/>
<rect x="31" y="936" width="9.04762" height="9.03448" fill="#B25E00"/>
<rect x="13" y="927" width="9.04762" height="9.03448" fill="#3F3F3F"/>
<rect x="40" y="927" width="9.04762" height="9.03448" fill="#B25E00"/>
<rect x="22" y="927" width="9.04762" height="9.03448" fill="#954A00"/>
<rect x="49" y="927" width="9.04762" height="9.03448" fill="#3F3F3F"/>
<rect x="31" y="927" width="9.04762" height="9.03448" fill="#B25E00"/>
<rect x="13" y="918" width="9.04762" height="9.03448" fill="#3F3F3F"/>
<rect x="40" y="918" width="9.04762" height="9.03448" fill="#B25E00"/>
<rect x="22" y="918" width="9.04762" height="9.03448" fill="#954A00"/>
<rect x="49" y="918" width="9.04762" height="9.03448" fill="#3F3F3F"/>
<rect x="31" y="918" width="9.04762" height="9.03448" fill="#B25E00"/>
<rect x="13" y="909" width="9.04762" height="9.03448" fill="#3F3F3F"/>
<rect x="40" y="909" width="9.04762" height="9.03448" fill="#B25E00"/>
<rect x="22" y="909" width="9.04762" height="9.03448" fill="#954A00"/>
<rect x="49" y="909" width="9.04762" height="9.03448" fill="#3F3F3F"/>
<rect x="31" y="909" width="9.04762" height="9.03448" fill="#B25E00"/>
<rect x="13" y="900" width="9.04762" height="9.03448" fill="#3F3F3F"/>
<rect x="40" y="900" width="9.04762" height="9.03448" fill="#B25E00"/>
<rect x="22" y="900" width="9.04762" height="9.03448" fill="#954A00"/>
<rect x="49" y="900" width="9.04762" height="9.03448" fill="#3F3F3F"/>
<rect x="31" y="900" width="9.04762" height="9.03448" fill="#B25E00"/>
<rect x="13" y="891" width="9.04762" height="9.03448" fill="#3F3F3F"/>
<rect x="40" y="891" width="9.04762" height="9.03448" fill="#B25E00"/>
<rect x="22" y="891" width="9.04762" height="9.03448" fill="#954A00"/>
<rect x="49" y="891" width="9.04762" height="9.03448" fill="#3F3F3F"/>
<rect x="31" y="891" width="9.04762" height="9.03448" fill="#B25E00"/>
<rect x="13" y="882" width="9.04762" height="9.03448" fill="#3F3F3F"/>
<rect x="40" y="882" width="9.04762" height="9.03448" fill="#B25E00"/>
<rect x="22" y="882" width="9.04762" height="9.03448" fill="#954A00"/>
<rect x="49" y="882" width="9.04762" height="9.03448" fill="#3F3F3F"/>
<rect x="31" y="882" width="9.04762" height="9.03448" fill="#B25E00"/>
<rect x="13" y="873" width="9.04762" height="9.03448" fill="#3F3F3F"/>
<rect x="40" y="873" width="9.04762" height="9.03448" fill="#B25E00"/>
<rect x="22" y="873" width="9.04762" height="9.03448" fill="#954A00"/>
<rect x="49" y="873" width="9.04762" height="9.03448" fill="#3F3F3F"/>
<rect x="31" y="873" width="9.04762" height="9.03448" fill="#B25E00"/>
<rect x="13" y="864" width="9.04762" height="9.03448" fill="#3F3F3F"/>
<rect x="40" y="864" width="9.04762" height="9.03448" fill="#B25E00"/>
<rect x="22" y="864" width="9.04762" height="9.03448" fill="#954A00"/>
<rect x="49" y="864" width="9.04762" height="9.03448" fill="#3F3F3F"/>
<rect x="31" y="864" width="9.04762" height="9.03448" fill="#B25E00"/>
<rect x="13" y="855" width="9.04762" height="9.03448" fill="#3F3F3F"/>
<rect x="40" y="855" width="9.04762" height="9.03448" fill="#B25E00"/>
<rect x="22" y="855" width="9.04762" height="9.03448" fill="#954A00"/>
<rect x="49" y="855" width="9.04762" height="9.03448" fill="#3F3F3F"/>
<rect x="31" y="855" width="9.04762" height="9.03448" fill="#B25E00"/>
<rect x="13" y="846" width="9.04762" height="9.03448" fill="#3F3F3F"/>
<rect x="40" y="846" width="9.04762" height="9.03448" fill="#B25E00"/>
<rect x="22" y="846" width="9.04762" height="9.03448" fill="#954A00"/>
<rect x="49" y="846" width="9.04762" height="9.03448" fill="#3F3F3F"/>
<rect x="31" y="846" width="9.04762" height="9.03448" fill="#B25E00"/>
<rect x="13" y="837" width="9.04762" height="9.03448" fill="#3F3F3F"/>
<rect x="40" y="837" width="9.04762" height="9.03448" fill="#B25E00"/>
<rect x="22" y="837" width="9.04762" height="9.03448" fill="#954A00"/>
<rect x="49" y="837" width="9.04762" height="9.03448" fill="#3F3F3F"/>
<rect x="31" y="837" width="9.04762" height="9.03448" fill="#B25E00"/>
<rect x="13" y="828" width="9.04762" height="9.03448" fill="#3F3F3F"/>
<rect x="40" y="828" width="9.04762" height="9.03448" fill="#B25E00"/>
<rect x="22" y="828" width="9.04762" height="9.03448" fill="#954A00"/>
<rect x="49" y="828" width="9.04762" height="9.03448" fill="#3F3F3F"/>
<rect x="31" y="828" width="9.04762" height="9.03448" fill="#B25E00"/>
<rect x="13" y="819" width="9.04762" height="9.03448" fill="#3F3F3F"/>
<rect x="40" y="819" width="9.04762" height="9.03448" fill="#B25E00"/>
<rect x="22" y="819" width="9.04762" height="9.03448" fill="#954A00"/>
<rect x="49" y="819" width="9.04762" height="9.03448" fill="#3F3F3F"/>
<rect x="31" y="819" width="9.04762" height="9.03448" fill="#B25E00"/>
<rect x="13" y="810" width="9.04762" height="9.03448" fill="#3F3F3F"/>
<rect x="40" y="810" width="9.04762" height="9.03448" fill="#B25E00"/>
<rect x="22" y="810" width="9.04762" height="9.03448" fill="#954A00"/>
<rect x="49" y="810" width="9.04762" height="9.03448" fill="#3F3F3F"/>
<rect x="31" y="810" width="9.04762" height="9.03448" fill="#B25E00"/>
<rect x="13" y="801" width="9.04762" height="9.03448" fill="#3F3F3F"/>
<rect x="40" y="801" width="9.04762" height="9.03448" fill="#B25E00"/>
<rect x="22" y="801" width="9.04762" height="9.03448" fill="#954A00"/>
<rect x="49" y="801" width="9.04762" height="9.03448" fill="#3F3F3F"/>
<rect x="31" y="801" width="9.04762" height="9.03448" fill="#B25E00"/>
<rect x="13" y="792" width="9.04762" height="9.03448" fill="#3F3F3F"/>
<rect x="40" y="792" width="9.04762" height="9.03448" fill="#B25E00"/>
<rect x="22" y="792" width="9.04762" height="9.03448" fill="#954A00"/>
<rect x="49" y="792" width="9.04762" height="9.03448" fill="#3F3F3F"/>
<rect x="31" y="792" width="9.04762" height="9.03448" fill="#B25E00"/>
<rect x="13" y="783" width="9.04762" height="9.03448" fill="#3F3F3F"/>
<rect x="40" y="783" width="9.04762" height="9.03448" fill="#B25E00"/>
<rect x="22" y="783" width="9.04762" height="9.03448" fill="#954A00"/>
<rect x="49" y="783" width="9.04762" height="9.03448" fill="#3F3F3F"/>
<rect x="31" y="783" width="9.04762" height="9.03448" fill="#B25E00"/>
<rect x="13" y="774" width="9.04762" height="9.03448" fill="#3F3F3F"/>
<rect x="40" y="774" width="9.04762" height="9.03448" fill="#B25E00"/>
<rect x="22" y="774" width="9.04762" height="9.03448" fill="#954A00"/>
<rect x="49" y="774" width="9.04762" height="9.03448" fill="#3F3F3F"/>
<rect x="31" y="774" width="9.04762" height="9.03448" fill="#B25E00"/>
<rect x="13" y="765" width="9.04762" height="9.03448" fill="#3F3F3F"/>
<rect x="40" y="765" width="9.04762" height="9.03448" fill="#B25E00"/>
<rect x="22" y="765" width="9.04762" height="9.03448" fill="#954A00"/>
<rect x="49" y="765" width="9.04762" height="9.03448" fill="#3F3F3F"/>
<rect x="31" y="765" width="9.04762" height="9.03448" fill="#B25E00"/>
<rect x="13" y="756" width="9.04762" height="9.03448" fill="#3F3F3F"/>
<rect x="40" y="756" width="9.04762" height="9.03448" fill="#B25E00"/>
<rect x="22" y="756" width="9.04762" height="9.03448" fill="#954A00"/>
<rect x="49" y="756" width="9.04762" height="9.03448" fill="#3F3F3F"/>
<rect x="31" y="756" width="9.04762" height="9.03448" fill="#B25E00"/>
<rect x="13" y="747" width="9.04762" height="9.03448" fill="#3F3F3F"/>
<rect x="40" y="747" width="9.04762" height="9.03448" fill="#B25E00"/>
<rect x="22" y="747" width="9.04762" height="9.03448" fill="#954A00"/>
<rect x="49" y="747" width="9.04762" height="9.03448" fill="#3F3F3F"/>
<rect x="31" y="747" width="9.04762" height="9.03448" fill="#B25E00"/>
<rect x="13" y="738" width="9.04762" height="9.03448" fill="#3F3F3F"/>
<rect x="40" y="738" width="9.04762" height="9.03448" fill="#B25E00"/>
<rect x="22" y="738" width="9.04762" height="9.03448" fill="#954A00"/>
<rect x="49" y="738" width="9.04762" height="9.03448" fill="#3F3F3F"/>
<rect x="31" y="738" width="9.04762" height="9.03448" fill="#B25E00"/>
<rect x="13" y="729" width="9.04762" height="9.03448" fill="#3F3F3F"/>
<rect x="40" y="729" width="9.04762" height="9.03448" fill="#B25E00"/>
<rect x="22" y="729" width="9.04762" height="9.03448" fill="#954A00"/>
<rect x="49" y="729" width="9.04762" height="9.03448" fill="#3F3F3F"/>
<rect x="31" y="729" width="9.04762" height="9.03448" fill="#B25E00"/>
<rect x="13" y="720" width="9.04762" height="9.03448" fill="#3F3F3F"/>
<rect x="40" y="720" width="9.04762" height="9.03448" fill="#B25E00"/>
<rect x="22" y="720" width="9.04762" height="9.03448" fill="#954A00"/>
<rect x="49" y="720" width="9.04762" height="9.03448" fill="#3F3F3F"/>
<rect x="31" y="720" width="9.04762" height="9.03448" fill="#B25E00"/>
<rect x="13" y="711" width="9.04762" height="9.03448" fill="#3F3F3F"/>
<rect x="40" y="711" width="9.04762" height="9.03448" fill="#B25E00"/>
<rect x="22" y="711" width="9.04762" height="9.03448" fill="#954A00"/>
<rect x="49" y="711" width="9.04762" height="9.03448" fill="#3F3F3F"/>
<rect x="31" y="711" width="9.04762" height="9.03448" fill="#B25E00"/>
<rect x="13" y="702" width="9.04762" height="9.03448" fill="#3F3F3F"/>
<rect x="40" y="702" width="9.04762" height="9.03448" fill="#B25E00"/>
<rect x="22" y="702" width="9.04762" height="9.03448" fill="#954A00"/>
<rect x="49" y="702" width="9.04762" height="9.03448" fill="#3F3F3F"/>
<rect x="31" y="702" width="9.04762" height="9.03448" fill="#B25E00"/>
<rect x="13" y="684" width="9.04762" height="9.03448" fill="#3F3F3F"/>
<rect x="40" y="684" width="9.04762" height="9.03448" fill="#B25E00"/>
<rect x="22" y="684" width="9.04762" height="9.03448" fill="#954A00"/>
<rect x="49" y="684" width="9.04762" height="9.03448" fill="#3F3F3F"/>
<rect x="31" y="684" width="9.04762" height="9.03448" fill="#B25E00"/>
<rect x="13" y="666" width="9.04762" height="9.03448" fill="#3F3F3F"/>
<rect x="40" y="666" width="9.04762" height="9.03448" fill="#B25E00"/>
<rect x="22" y="666" width="9.04762" height="9.03448" fill="#954A00"/>
<rect x="49" y="666" width="9.04762" height="9.03448" fill="#3F3F3F"/>
<rect x="31" y="666" width="9.04762" height="9.03448" fill="#B25E00"/>
<rect x="13" y="675" width="9.04762" height="9.03448" fill="#3F3F3F"/>
<rect x="40" y="675" width="9.04762" height="9.03448" fill="#B25E00"/>
<rect x="22" y="675" width="9.04762" height="9.03448" fill="#954A00"/>
<rect x="49" y="675" width="9.04762" height="9.03448" fill="#3F3F3F"/>
<rect x="31" y="675" width="9.04762" height="9.03448" fill="#B25E00"/>
<rect x="13" y="693" width="9.04762" height="9.03448" fill="#3F3F3F"/>
<rect x="40" y="693" width="9.04762" height="9.03448" fill="#B25E00"/>
<rect x="22" y="693" width="9.04762" height="9.03448" fill="#954A00"/>
<rect x="49" y="693" width="9.04762" height="9.03448" fill="#3F3F3F"/>
<rect x="31" y="693" width="9.04762" height="9.03448" fill="#B25E00"/>
<rect x="13" y="657" width="9.04762" height="9.03448" fill="#3F3F3F"/>
<rect x="40" y="657" width="9.04762" height="9.03448" fill="#B25E00"/>
<rect x="22" y="657" width="9.04762" height="9.03448" fill="#954A00"/>
<rect x="49" y="657" width="9.04762" height="9.03448" fill="#3F3F3F"/>
<rect x="31" y="657" width="9.04762" height="9.03448" fill="#B25E00"/>
<rect x="13" y="648" width="9.04762" height="9.03448" fill="#3F3F3F"/>
<rect x="40" y="648" width="9.04762" height="9.03448" fill="#B25E00"/>
<rect x="22" y="648" width="9.04762" height="9.03448" fill="#954A00"/>
<rect x="49" y="648" width="9.04762" height="9.03448" fill="#3F3F3F"/>
<rect x="31" y="648" width="9.04762" height="9.03448" fill="#B25E00"/>
<rect x="13" y="639" width="9.04762" height="9.03448" fill="#3F3F3F"/>
<rect x="40" y="639" width="9.04762" height="9.03448" fill="#B25E00"/>
<rect x="22" y="639" width="9.04762" height="9.03448" fill="#954A00"/>
<rect x="49" y="639" width="9.04762" height="9.03448" fill="#3F3F3F"/>
<rect x="31" y="639" width="9.04762" height="9.03448" fill="#B25E00"/>
<rect x="13" y="630" width="9.04762" height="9.03448" fill="#3F3F3F"/>
<rect x="40" y="630" width="9.04762" height="9.03448" fill="#B25E00"/>
<rect x="22" y="630" width="9.04762" height="9.03448" fill="#954A00"/>
<rect x="49" y="630" width="9.04762" height="9.03448" fill="#3F3F3F"/>
<rect x="31" y="630" width="9.04762" height="9.03448" fill="#B25E00"/>
<rect x="13" y="621" width="9.04762" height="9.03448" fill="#3F3F3F"/>
<rect x="40" y="621" width="9.04762" height="9.03448" fill="#B25E00"/>
<rect x="22" y="621" width="9.04762" height="9.03448" fill="#954A00"/>
<rect x="49" y="621" width="9.04762" height="9.03448" fill="#3F3F3F"/>
<rect x="31" y="621" width="9.04762" height="9.03448" fill="#B25E00"/>
<rect x="13" y="612" width="9.04762" height="9.03448" fill="#3F3F3F"/>
<rect x="40" y="612" width="9.04762" height="9.03448" fill="#B25E00"/>
<rect x="22" y="612" width="9.04762" height="9.03448" fill="#954A00"/>
<rect x="49" y="612" width="9.04762" height="9.03448" fill="#3F3F3F"/>
<rect x="31" y="612" width="9.04762" height="9.03448" fill="#B25E00"/>
<rect x="13" y="603" width="9.04762" height="9.03448" fill="#3F3F3F"/>
<rect x="40" y="603" width="9.04762" height="9.03448" fill="#B25E00"/>
<rect x="22" y="603" width="9.04762" height="9.03448" fill="#954A00"/>
<rect x="49" y="603" width="9.04762" height="9.03448" fill="#3F3F3F"/>
<rect x="31" y="603" width="9.04762" height="9.03448" fill="#B25E00"/>
<rect x="13" y="594" width="9.04762" height="9.03448" fill="#3F3F3F"/>
<rect x="40" y="594" width="9.04762" height="9.03448" fill="#B25E00"/>
<rect x="22" y="594" width="9.04762" height="9.03448" fill="#954A00"/>
<rect x="49" y="594" width="9.04762" height="9.03448" fill="#3F3F3F"/>
<rect x="31" y="594" width="9.04762" height="9.03448" fill="#B25E00"/>
<rect x="13" y="585" width="9.04762" height="9.03448" fill="#3F3F3F"/>
<rect x="40" y="585" width="9.04762" height="9.03448" fill="#B25E00"/>
<rect x="22" y="585" width="9.04762" height="9.03448" fill="#954A00"/>
<rect x="49" y="585" width="9.04762" height="9.03448" fill="#3F3F3F"/>
<rect x="31" y="585" width="9.04762" height="9.03448" fill="#B25E00"/>
<rect x="13" y="576" width="9.04762" height="9.03448" fill="#3F3F3F"/>
<rect x="40" y="576" width="9.04762" height="9.03448" fill="#B25E00"/>
<rect x="22" y="576" width="9.04762" height="9.03448" fill="#954A00"/>
<rect x="49" y="576" width="9.04762" height="9.03448" fill="#3F3F3F"/>
<rect x="31" y="576" width="9.04762" height="9.03448" fill="#B25E00"/>
<rect x="13" y="567" width="9.04762" height="9.03448" fill="#3F3F3F"/>
<rect x="40" y="567" width="9.04762" height="9.03448" fill="#B25E00"/>
<rect x="22" y="567" width="9.04762" height="9.03448" fill="#954A00"/>
<rect x="49" y="567" width="9.04762" height="9.03448" fill="#3F3F3F"/>
<rect x="31" y="567" width="9.04762" height="9.03448" fill="#B25E00"/>
<rect x="13" y="558" width="9.04762" height="9.03448" fill="#3F3F3F"/>
<rect x="40" y="558" width="9.04762" height="9.03448" fill="#B25E00"/>
<rect x="22" y="558" width="9.04762" height="9.03448" fill="#954A00"/>
<rect x="49" y="558" width="9.04762" height="9.03448" fill="#3F3F3F"/>
<rect x="31" y="558" width="9.04762" height="9.03448" fill="#B25E00"/>
<rect x="13" y="549" width="9.04762" height="9.03448" fill="#3F3F3F"/>
<rect x="40" y="549" width="9.04762" height="9.03448" fill="#B25E00"/>
<rect x="22" y="549" width="9.04762" height="9.03448" fill="#954A00"/>
<rect x="49" y="549" width="9.04762" height="9.03448" fill="#3F3F3F"/>
<rect x="31" y="549" width="9.04762" height="9.03448" fill="#B25E00"/>
<rect x="13" y="540" width="9.04762" height="9.03448" fill="#3F3F3F"/>
<rect x="40" y="540" width="9.04762" height="9.03448" fill="#B25E00"/>
<rect x="22" y="540" width="9.04762" height="9.03448" fill="#954A00"/>
<rect x="49" y="540" width="9.04762" height="9.03448" fill="#3F3F3F"/>
<rect x="31" y="540" width="9.04762" height="9.03448" fill="#B25E00"/>
<rect x="13" y="531" width="9.04762" height="9.03448" fill="#3F3F3F"/>
<rect x="40" y="531" width="9.04762" height="9.03448" fill="#B25E00"/>
<rect x="22" y="531" width="9.04762" height="9.03448" fill="#954A00"/>
<rect x="49" y="531" width="9.04762" height="9.03448" fill="#3F3F3F"/>
<rect x="31" y="531" width="9.04762" height="9.03448" fill="#B25E00"/>
<rect x="13" y="522" width="9.04762" height="9.03448" fill="#3F3F3F"/>
<rect x="40" y="522" width="9.04762" height="9.03448" fill="#B25E00"/>
<rect x="22" y="522" width="9.04762" height="9.03448" fill="#954A00"/>
<rect x="49" y="522" width="9.04762" height="9.03448" fill="#3F3F3F"/>
<rect x="31" y="522" width="9.04762" height="9.03448" fill="#B25E00"/>
<rect x="13" y="513" width="9.04762" height="9.03448" fill="#3F3F3F"/>
<rect x="40" y="513" width="9.04762" height="9.03448" fill="#B25E00"/>
<rect x="22" y="513" width="9.04762" height="9.03448" fill="#954A00"/>
<rect x="49" y="513" width="9.04762" height="9.03448" fill="#3F3F3F"/>
<rect x="31" y="513" width="9.04762" height="9.03448" fill="#B25E00"/>
<rect x="13" y="504" width="9.04762" height="9.03448" fill="#3F3F3F"/>
<rect x="40" y="504" width="9.04762" height="9.03448" fill="#B25E00"/>
<rect x="22" y="504" width="9.04762" height="9.03448" fill="#954A00"/>
<rect x="49" y="504" width="9.04762" height="9.03448" fill="#3F3F3F"/>
<rect x="31" y="504" width="9.04762" height="9.03448" fill="#B25E00"/>
<rect x="13" y="495" width="9.04762" height="9.03448" fill="#3F3F3F"/>
<rect x="40" y="495" width="9.04762" height="9.03448" fill="#B25E00"/>
<rect x="22" y="495" width="9.04762" height="9.03448" fill="#954A00"/>
<rect x="49" y="495" width="9.04762" height="9.03448" fill="#3F3F3F"/>
<rect x="31" y="495" width="9.04762" height="9.03448" fill="#B25E00"/>
<rect x="13" y="486" width="9.04762" height="9.03448" fill="#3F3F3F"/>
<rect x="40" y="486" width="9.04762" height="9.03448" fill="#B25E00"/>
<rect x="22" y="486" width="9.04762" height="9.03448" fill="#954A00"/>
<rect x="49" y="486" width="9.04762" height="9.03448" fill="#3F3F3F"/>
<rect x="31" y="486" width="9.04762" height="9.03448" fill="#B25E00"/>
<rect x="13" y="477" width="9.04762" height="9.03448" fill="#3F3F3F"/>
<rect x="40" y="477" width="9.04762" height="9.03448" fill="#B25E00"/>
<rect x="22" y="477" width="9.04762" height="9.03448" fill="#954A00"/>
<rect x="49" y="477" width="9.04762" height="9.03448" fill="#3F3F3F"/>
<rect x="31" y="477" width="9.04762" height="9.03448" fill="#B25E00"/>
<rect x="13" y="468" width="9.04762" height="9.03448" fill="#3F3F3F"/>
<rect x="40" y="468" width="9.04762" height="9.03448" fill="#B25E00"/>
<rect x="22" y="468" width="9.04762" height="9.03448" fill="#954A00"/>
<rect x="49" y="468" width="9.04762" height="9.03448" fill="#3F3F3F"/>
<rect x="31" y="468" width="9.04762" height="9.03448" fill="#B25E00"/>
<rect x="13" y="459" width="9.04762" height="9.03448" fill="#3F3F3F"/>
<rect x="40" y="459" width="9.04762" height="9.03448" fill="#B25E00"/>
<rect x="22" y="459" width="9.04762" height="9.03448" fill="#954A00"/>
<rect x="49" y="459" width="9.04762" height="9.03448" fill="#3F3F3F"/>
<rect x="31" y="459" width="9.04762" height="9.03448" fill="#B25E00"/>
<rect x="13" y="450" width="9.04762" height="9.03448" fill="#3F3F3F"/>
<rect x="40" y="450" width="9.04762" height="9.03448" fill="#B25E00"/>
<rect x="22" y="450" width="9.04762" height="9.03448" fill="#954A00"/>
<rect x="49" y="450" width="9.04762" height="9.03448" fill="#3F3F3F"/>
<rect x="31" y="450" width="9.04762" height="9.03448" fill="#B25E00"/>
<rect x="13" y="441" width="9.04762" height="9.03448" fill="#3F3F3F"/>
<rect x="40" y="441" width="9.04762" height="9.03448" fill="#B25E00"/>
<rect x="22" y="441" width="9.04762" height="9.03448" fill="#954A00"/>
<rect x="49" y="441" width="9.04762" height="9.03448" fill="#3F3F3F"/>
<rect x="31" y="441" width="9.04762" height="9.03448" fill="#B25E00"/>
<rect x="13" y="432" width="9.04762" height="9.03448" fill="#3F3F3F"/>
<rect x="40" y="432" width="9.04762" height="9.03448" fill="#B25E00"/>
<rect x="22" y="432" width="9.04762" height="9.03448" fill="#954A00"/>
<rect x="49" y="432" width="9.04762" height="9.03448" fill="#3F3F3F"/>
<rect x="31" y="432" width="9.04762" height="9.03448" fill="#B25E00"/>
<rect x="13" y="423" width="9.04762" height="9.03448" fill="#3F3F3F"/>
<rect x="40" y="423" width="9.04762" height="9.03448" fill="#B25E00"/>
<rect x="22" y="423" width="9.04762" height="9.03448" fill="#954A00"/>
<rect x="49" y="423" width="9.04762" height="9.03448" fill="#3F3F3F"/>
<rect x="31" y="423" width="9.04762" height="9.03448" fill="#B25E00"/>
<rect x="13" y="414" width="9.04762" height="9.03448" fill="#3F3F3F"/>
<rect x="40" y="414" width="9.04762" height="9.03448" fill="#B25E00"/>
<rect x="22" y="414" width="9.04762" height="9.03448" fill="#954A00"/>
<rect x="49" y="414" width="9.04762" height="9.03448" fill="#3F3F3F"/>
<rect x="31" y="414" width="9.04762" height="9.03448" fill="#B25E00"/>
<rect x="13" y="396" width="9.04762" height="9.03448" fill="#3F3F3F"/>
<rect x="40" y="396" width="9.04762" height="9.03448" fill="#B25E00"/>
<rect x="22" y="396" width="9.04762" height="9.03448" fill="#954A00"/>
<rect x="49" y="396" width="9.04762" height="9.03448" fill="#3F3F3F"/>
<rect x="31" y="396" width="9.04762" height="9.03448" fill="#B25E00"/>
<rect x="13" y="378" width="9.04762" height="9.03448" fill="#3F3F3F"/>
<rect x="40" y="378" width="9.04762" height="9.03448" fill="#B25E00"/>
<rect x="22" y="378" width="9.04762" height="9.03448" fill="#954A00"/>
<rect x="49" y="378" width="9.04762" height="9.03448" fill="#3F3F3F"/>
<rect x="31" y="378" width="9.04762" height="9.03448" fill="#B25E00"/>
<rect x="13" y="387" width="9.04762" height="9.03448" fill="#3F3F3F"/>
<rect x="40" y="387" width="9.04762" height="9.03448" fill="#B25E00"/>
<rect x="22" y="387" width="9.04762" height="9.03448" fill="#954A00"/>
<rect x="49" y="387" width="9.04762" height="9.03448" fill="#3F3F3F"/>
<rect x="31" y="387" width="9.04762" height="9.03448" fill="#B25E00"/>
<rect x="13" y="405" width="9.04762" height="9.03448" fill="#3F3F3F"/>
<rect x="40" y="405" width="9.04762" height="9.03448" fill="#B25E00"/>
<rect x="22" y="405" width="9.04762" height="9.03448" fill="#954A00"/>
<rect x="49" y="405" width="9.04762" height="9.03448" fill="#3F3F3F"/>
<rect x="31" y="405" width="9.04762" height="9.03448" fill="#B25E00"/>
<rect x="13" y="369" width="9.04762" height="9.03448" fill="#3F3F3F"/>
<rect x="40" y="369" width="9.04762" height="9.03448" fill="#B25E00"/>
<rect x="22" y="369" width="9.04762" height="9.03448" fill="#954A00"/>
<rect x="49" y="369" width="9.04762" height="9.03448" fill="#3F3F3F"/>
<rect x="31" y="369" width="9.04762" height="9.03448" fill="#B25E00"/>
<rect x="13" y="360" width="9.04762" height="9.03448" fill="#3F3F3F"/>
<rect x="40" y="360" width="9.04762" height="9.03448" fill="#B25E00"/>
<rect x="22" y="360" width="9.04762" height="9.03448" fill="#954A00"/>
<rect x="49" y="360" width="9.04762" height="9.03448" fill="#3F3F3F"/>
<rect x="31" y="360" width="9.04762" height="9.03448" fill="#B25E00"/>
<rect x="13" y="351" width="9.04762" height="9.03448" fill="#3F3F3F"/>
<rect x="40" y="351" width="9.04762" height="9.03448" fill="#B25E00"/>
<rect x="22" y="351" width="9.04762" height="9.03448" fill="#954A00"/>
<rect x="49" y="351" width="9.04762" height="9.03448" fill="#3F3F3F"/>
<rect x="31" y="351" width="9.04762" height="9.03448" fill="#B25E00"/>
<rect x="13" y="342" width="9.04762" height="9.03448" fill="#3F3F3F"/>
<rect x="40" y="342" width="9.04762" height="9.03448" fill="#B25E00"/>
<rect x="22" y="342" width="9.04762" height="9.03448" fill="#954A00"/>
<rect x="49" y="342" width="9.04762" height="9.03448" fill="#3F3F3F"/>
<rect x="31" y="342" width="9.04762" height="9.03448" fill="#B25E00"/>
<rect x="13" y="333" width="9.04762" height="9.03448" fill="#3F3F3F"/>
<rect x="40" y="333" width="9.04762" height="9.03448" fill="#B25E00"/>
<rect x="22" y="333" width="9.04762" height="9.03448" fill="#954A00"/>
<rect x="49" y="333" width="9.04762" height="9.03448" fill="#3F3F3F"/>
<rect x="31" y="333" width="9.04762" height="9.03448" fill="#B25E00"/>
<rect x="13" y="324" width="9.04762" height="9.03448" fill="#3F3F3F"/>
<rect x="40" y="324" width="9.04762" height="9.03448" fill="#B25E00"/>
<rect x="22" y="324" width="9.04762" height="9.03448" fill="#954A00"/>
<rect x="49" y="324" width="9.04762" height="9.03448" fill="#3F3F3F"/>
<rect x="31" y="324" width="9.04762" height="9.03448" fill="#B25E00"/>
<rect x="13" y="315" width="9.04762" height="9.03448" fill="#3F3F3F"/>
<rect x="40" y="315" width="9.04762" height="9.03448" fill="#B25E00"/>
<rect x="22" y="315" width="9.04762" height="9.03448" fill="#954A00"/>
<rect x="49" y="315" width="9.04762" height="9.03448" fill="#3F3F3F"/>
<rect x="31" y="315" width="9.04762" height="9.03448" fill="#B25E00"/>
<rect x="13" y="306" width="9.04762" height="9.03448" fill="#3F3F3F"/>
<rect x="40" y="306" width="9.04762" height="9.03448" fill="#B25E00"/>
<rect x="22" y="306" width="9.04762" height="9.03448" fill="#954A00"/>
<rect x="49" y="306" width="9.04762" height="9.03448" fill="#3F3F3F"/>
<rect x="31" y="306" width="9.04762" height="9.03448" fill="#B25E00"/>
<rect x="13" y="297" width="9.04762" height="9.03448" fill="#3F3F3F"/>
<rect x="40" y="297" width="9.04762" height="9.03448" fill="#B25E00"/>
<rect x="22" y="297" width="9.04762" height="9.03448" fill="#954A00"/>
<rect x="49" y="297" width="9.04762" height="9.03448" fill="#3F3F3F"/>
<rect x="31" y="297" width="9.04762" height="9.03448" fill="#B25E00"/>
<rect x="13" y="288" width="9.04762" height="9.03448" fill="#3F3F3F"/>
<rect x="40" y="288" width="9.04762" height="9.03448" fill="#B25E00"/>
<rect x="22" y="288" width="9.04762" height="9.03448" fill="#954A00"/>
<rect x="49" y="288" width="9.04762" height="9.03448" fill="#3F3F3F"/>
<rect x="31" y="288" width="9.04762" height="9.03448" fill="#B25E00"/>
<rect x="13" y="279" width="9.04762" height="9.03448" fill="#3F3F3F"/>
<rect x="40" y="279" width="9.04762" height="9.03448" fill="#B25E00"/>
<rect x="22" y="279" width="9.04762" height="9.03448" fill="#954A00"/>
<rect x="49" y="279" width="9.04762" height="9.03448" fill="#3F3F3F"/>
<rect x="31" y="279" width="9.04762" height="9.03448" fill="#B25E00"/>
<rect x="13" y="270" width="9.04762" height="9.03448" fill="#3F3F3F"/>
<rect x="40" y="270" width="9.04762" height="9.03448" fill="#B25E00"/>
<rect x="22" y="270" width="9.04762" height="9.03448" fill="#954A00"/>
<rect x="49" y="270" width="9.04762" height="9.03448" fill="#3F3F3F"/>
<rect x="31" y="270" width="9.04762" height="9.03448" fill="#B25E00"/>
<rect x="13" y="261" width="9.04762" height="9.03448" fill="#3F3F3F"/>
<rect x="40" y="261" width="9.04762" height="9.03448" fill="#B25E00"/>
<rect x="22" y="261" width="9.04762" height="9.03448" fill="#954A00"/>
<rect x="49" y="261" width="9.04762" height="9.03448" fill="#3F3F3F"/>
<rect x="31" y="261" width="9.04762" height="9.03448" fill="#B25E00"/>
<rect x="13" y="252" width="9.04762" height="9.03448" fill="#3F3F3F"/>
<rect x="40" y="252" width="9.04762" height="9.03448" fill="#B25E00"/>
<rect x="22" y="252" width="9.04762" height="9.03448" fill="#954A00"/>
<rect x="49" y="252" width="9.04762" height="9.03448" fill="#3F3F3F"/>
<rect x="31" y="252" width="9.04762" height="9.03448" fill="#B25E00"/>
<rect x="13" y="243" width="9.04762" height="9.03448" fill="#3F3F3F"/>
<rect x="40" y="243" width="9.04762" height="9.03448" fill="#B25E00"/>
<rect x="22" y="243" width="9.04762" height="9.03448" fill="#954A00"/>
<rect x="49" y="243" width="9.04762" height="9.03448" fill="#3F3F3F"/>
<rect x="31" y="243" width="9.04762" height="9.03448" fill="#B25E00"/>
<rect x="13" y="234" width="9.04762" height="9.03448" fill="#3F3F3F"/>
<rect x="40" y="234" width="9.04762" height="9.03448" fill="#B25E00"/>
<rect x="22" y="234" width="9.04762" height="9.03448" fill="#954A00"/>
<rect x="49" y="234" width="9.04762" height="9.03448" fill="#3F3F3F"/>
<rect x="31" y="234" width="9.04762" height="9.03448" fill="#B25E00"/>
<rect x="13" y="225" width="9.04762" height="9.03448" fill="#3F3F3F"/>
<rect x="40" y="225" width="9.04762" height="9.03448" fill="#B25E00"/>
<rect x="22" y="225" width="9.04762" height="9.03448" fill="#954A00"/>
<rect x="49" y="225" width="9.04762" height="9.03448" fill="#3F3F3F"/>
<rect x="31" y="225" width="9.04762" height="9.03448" fill="#B25E00"/>
<rect x="13" y="216" width="9.04762" height="9.03448" fill="#3F3F3F"/>
<rect x="40" y="216" width="9.04762" height="9.03448" fill="#B25E00"/>
<rect x="22" y="216" width="9.04762" height="9.03448" fill="#954A00"/>
<rect x="49" y="216" width="9.04762" height="9.03448" fill="#3F3F3F"/>
<rect x="31" y="216" width="9.04762" height="9.03448" fill="#B25E00"/>
<rect x="13" y="207" width="9.04762" height="9.03448" fill="#3F3F3F"/>
<rect x="40" y="207" width="9.04762" height="9.03448" fill="#B25E00"/>
<rect x="22" y="207" width="9.04762" height="9.03448" fill="#954A00"/>
<rect x="49" y="207" width="9.04762" height="9.03448" fill="#3F3F3F"/>
<rect x="31" y="207" width="9.04762" height="9.03448" fill="#B25E00"/>
<rect x="13" y="198" width="9.04762" height="9.03448" fill="#3F3F3F"/>
<rect x="40" y="198" width="9.04762" height="9.03448" fill="#B25E00"/>
<rect x="22" y="198" width="9.04762" height="9.03448" fill="#954A00"/>
<rect x="49" y="198" width="9.04762" height="9.03448" fill="#3F3F3F"/>
<rect x="31" y="198" width="9.04762" height="9.03448" fill="#B25E00"/>
<rect x="13" y="189" width="9.04762" height="9.03448" fill="#3F3F3F"/>
<rect x="40" y="189" width="9.04762" height="9.03448" fill="#B25E00"/>
<rect x="22" y="189" width="9.04762" height="9.03448" fill="#954A00"/>
<rect x="49" y="189" width="9.04762" height="9.03448" fill="#3F3F3F"/>
<rect x="31" y="189" width="9.04762" height="9.03448" fill="#B25E00"/>
<rect x="13" y="180" width="9.04762" height="9.03448" fill="#3F3F3F"/>
<rect x="40" y="180" width="9.04762" height="9.03448" fill="#B25E00"/>
<rect x="22" y="180" width="9.04762" height="9.03448" fill="#954A00"/>
<rect x="49" y="180" width="9.04762" height="9.03448" fill="#3F3F3F"/>
<rect x="31" y="180" width="9.04762" height="9.03448" fill="#B25E00"/>
<rect x="13" y="171" width="9.04762" height="9.03448" fill="#3F3F3F"/>
<rect x="40" y="171" width="9.04762" height="9.03448" fill="#B25E00"/>
<rect x="22" y="171" width="9.04762" height="9.03448" fill="#954A00"/>
<rect x="49" y="171" width="9.04762" height="9.03448" fill="#3F3F3F"/>
<rect x="31" y="171" width="9.04762" height="9.03448" fill="#B25E00"/>
<rect x="13" y="162" width="9.04762" height="9.03448" fill="#3F3F3F"/>
<rect x="40" y="162" width="9.04762" height="9.03448" fill="#B25E00"/>
<rect x="22" y="162" width="9.04762" height="9.03448" fill="#954A00"/>
<rect x="49" y="162" width="9.04762" height="9.03448" fill="#3F3F3F"/>
<rect x="31" y="162" width="9.04762" height="9.03448" fill="#B25E00"/>
<rect x="13" y="153" width="9.04762" height="9.03448" fill="#3F3F3F"/>
<rect x="40" y="153" width="9.04762" height="9.03448" fill="#B25E00"/>
<rect x="22" y="153" width="9.04762" height="9.03448" fill="#954A00"/>
<rect x="49" y="153" width="9.04762" height="9.03448" fill="#3F3F3F"/>
<rect x="31" y="153" width="9.04762" height="9.03448" fill="#B25E00"/>
<rect x="13" y="144" width="9.04762" height="9.03448" fill="#3F3F3F"/>
<rect x="40" y="144" width="9.04762" height="9.03448" fill="#B25E00"/>
<rect x="22" y="144" width="9.04762" height="9.03448" fill="#954A00"/>
<rect x="49" y="144" width="9.04762" height="9.03448" fill="#3F3F3F"/>
<rect x="31" y="144" width="9.04762" height="9.03448" fill="#B25E00"/>
<rect x="13" y="135" width="9.04762" height="9.03448" fill="#3F3F3F"/>
<rect x="40" y="135" width="9.04762" height="9.03448" fill="#B25E00"/>
<rect x="22" y="135" width="9.04762" height="9.03448" fill="#954A00"/>
<rect x="49" y="135" width="9.04762" height="9.03448" fill="#3F3F3F"/>
<rect x="31" y="135" width="9.04762" height="9.03448" fill="#B25E00"/>
<rect x="13" y="126" width="9.04762" height="9.03448" fill="#3F3F3F"/>
<rect x="40" y="126" width="9.04762" height="9.03448" fill="#B25E00"/>
<rect x="22" y="126" width="9.04762" height="9.03448" fill="#954A00"/>
<rect x="49" y="126" width="9.04762" height="9.03448" fill="#3F3F3F"/>
<rect x="31" y="126" width="9.04762" height="9.03448" fill="#B25E00"/>
<rect x="13" y="108" width="9.04762" height="9.03448" fill="#3F3F3F"/>
<rect x="40" y="108" width="9.04762" height="9.03448" fill="#B25E00"/>
<rect x="22" y="108" width="9.04762" height="9.03448" fill="#954A00"/>
<rect x="49" y="108" width="9.04762" height="9.03448" fill="#3F3F3F"/>
<rect x="31" y="108" width="9.04762" height="9.03448" fill="#B25E00"/>
<rect x="13" y="90" width="9.04762" height="9.03448" fill="#3F3F3F"/>
<rect x="40" y="90" width="9.04762" height="9.03448" fill="#B25E00"/>
<rect x="22" y="90" width="9.04762" height="9.03448" fill="#954A00"/>
<rect x="49" y="90" width="9.04762" height="9.03448" fill="#3F3F3F"/>
<rect x="31" y="90" width="9.04762" height="9.03448" fill="#B25E00"/>
<rect x="13" y="99" width="9.04762" height="9.03448" fill="#3F3F3F"/>
<rect x="40" y="99" width="9.04762" height="9.03448" fill="#B25E00"/>
<rect x="22" y="99" width="9.04762" height="9.03448" fill="#954A00"/>
<rect x="49" y="99" width="9.04762" height="9.03448" fill="#3F3F3F"/>
<rect x="31" y="99" width="9.04762" height="9.03448" fill="#B25E00"/>
<rect x="13" y="117" width="9.04762" height="9.03448" fill="#3F3F3F"/>
<rect x="40" y="117" width="9.04762" height="9.03448" fill="#B25E00"/>
<rect x="22" y="117" width="9.04762" height="9.03448" fill="#954A00"/>
<rect x="49" y="117" width="9.04762" height="9.03448" fill="#3F3F3F"/>
<rect x="31" y="117" width="9.04762" height="9.03448" fill="#B25E00"/>
<rect x="13" y="81" width="9.04762" height="9.03448" fill="#3F3F3F"/>
<rect x="40" y="81" width="9.04762" height="9.03448" fill="#B25E00"/>
<rect x="22" y="81" width="9.04762" height="9.03448" fill="#954A00"/>
<rect x="49" y="81" width="9.04762" height="9.03448" fill="#3F3F3F"/>
<rect x="31" y="81" width="9.04762" height="9.03448" fill="#B25E00"/>
<rect x="13" y="72" width="9.04762" height="9.03448" fill="#3F3F3F"/>
<rect x="40" y="72" width="9.04762" height="9.03448" fill="#B25E00"/>
<rect x="22" y="72" width="9.04762" height="9.03448" fill="#954A00"/>
<rect x="49" y="72" width="9.04762" height="9.03448" fill="#3F3F3F"/>
<rect x="31" y="72" width="9.04762" height="9.03448" fill="#B25E00"/>
<rect x="13" y="63" width="9.04762" height="9.03448" fill="#3F3F3F"/>
<rect x="40" y="63" width="9.04762" height="9.03448" fill="#B25E00"/>
<rect x="22" y="63" width="9.04762" height="9.03448" fill="#954A00"/>
<rect x="49" y="63" width="9.04762" height="9.03448" fill="#3F3F3F"/>
<rect x="31" y="63" width="9.04762" height="9.03448" fill="#B25E00"/>
<rect x="13" y="54" width="9.04762" height="9.03448" fill="#3F3F3F"/>
<rect x="40" y="54" width="9.04762" height="9.03448" fill="#B25E00"/>
<rect x="22" y="54" width="9.04762" height="9.03448" fill="#954A00"/>
<rect x="49" y="54" width="9.04762" height="9.03448" fill="#3F3F3F"/>
<rect x="31" y="54" width="9.04762" height="9.03448" fill="#B25E00"/>
<rect x="13" y="45" width="9.04762" height="9.03448" fill="#3F3F3F"/>
<rect x="40" y="45" width="9.04762" height="9.03448" fill="#B25E00"/>
<rect x="22" y="45" width="9.04762" height="9.03448" fill="#954A00"/>
<rect x="49" y="45" width="9.04762" height="9.03448" fill="#3F3F3F"/>
<rect x="31" y="45" width="9.04762" height="9.03448" fill="#B25E00"/>
<rect x="13" y="36" width="9.04762" height="9.03448" fill="#3F3F3F"/>
<rect x="40" y="36" width="9.04762" height="9.03448" fill="#B25E00"/>
<rect x="22" y="36" width="9.04762" height="9.03448" fill="#954A00"/>
<rect x="49" y="36" width="9.04762" height="9.03448" fill="#3F3F3F"/>
<rect x="31" y="36" width="9.04762" height="9.03448" fill="#B25E00"/>
<rect x="13" y="27" width="9.04762" height="9.03448" fill="#3F3F3F"/>
<rect x="40" y="27" width="9.04762" height="9.03448" fill="#B25E00"/>
<rect x="22" y="27" width="9.04762" height="9.03448" fill="#954A00"/>
<rect x="49" y="27" width="9.04762" height="9.03448" fill="#3F3F3F"/>
<rect x="31" y="27" width="9.04762" height="9.03448" fill="#B25E00"/>
<rect x="13" y="18" width="9.04762" height="9.03448" fill="#3F3F3F"/>
<rect x="40" y="18" width="9.04762" height="9.03448" fill="#B25E00"/>
<rect x="22" y="18" width="9.04762" height="9.03448" fill="#954A00"/>
<rect x="49" y="18" width="9.04762" height="9.03448" fill="#3F3F3F"/>
<rect x="31" y="18" width="9.04762" height="9.03448" fill="#B25E00"/>
<rect x="13" y="1188" width="9.04762" height="9.03448" fill="#3F3F3F"/>
<rect width="9.04762" height="9.03448" transform="matrix(-1 0 0 1 67.0479 1206)" fill="#3F3F3F"/>
<rect width="9.04762" height="9.03448" transform="matrix(-1 0 0 1 40 1206.07)" fill="#3F3F3F"/>
<rect width="9.04762" height="9.03448" transform="matrix(-1 0 0 1 13.0479 1206)" fill="#3F3F3F"/>
<rect x="40" y="1188" width="9.04762" height="9.03448" fill="#B25E00"/>
<rect x="40" y="1197.04" width="9.04762" height="9.03448" fill="#954A00"/>
<rect x="22" y="1188" width="9.04762" height="9.03448" fill="#954A00"/>
<rect x="22" y="1197.04" width="9.04762" height="9.03448" fill="#954A00"/>
<rect x="49" y="1188" width="9.04762" height="9.03448" fill="#3F3F3F"/>
<rect x="49" y="1197.04" width="9.04762" height="9.03448" fill="#3F3F3F"/>
<rect x="13" y="1197.04" width="9.04762" height="9.03448" fill="#3F3F3F"/>
<rect x="31" y="1188" width="9.04762" height="9.03448" fill="#954A00"/>
<rect x="31" y="1197.04" width="9.04762" height="9.03448" fill="#954A00"/>
<rect width="9.04762" height="9.03448" transform="matrix(-1 0 0 1 85.0479 1206)" fill="#3F3F3F"/>
<rect width="9.04762" height="9.03448" transform="matrix(-1 0 0 1 58 1206.07)" fill="#3F3F3F"/>
<rect width="9.04762" height="9.03448" transform="matrix(-1 0 0 1 31 1206.07)" fill="#3F3F3F"/>
<rect width="9.04762" height="9.03448" transform="matrix(-1 0 0 1 4.04785 1206)" fill="#3F3F3F"/>
<rect width="9.04762" height="9.03448" transform="matrix(-1 0 0 1 76.0479 1206)" fill="#3F3F3F"/>
<rect width="9.04762" height="9.03448" transform="matrix(-1 0 0 1 49 1206.07)" fill="#3F3F3F"/>
<rect width="9.04762" height="9.03448" transform="matrix(-1 0 0 1 22 1206.07)" fill="#3F3F3F"/>
<rect x="22" width="9.04762" height="9.03448" fill="#3F3F3F"/>
<rect x="13" y="9.03516" width="9.04762" height="9.03448" fill="#3F3F3F"/>
<rect x="40" y="9.03516" width="9.04762" height="9.03448" fill="#B25E00"/>
<rect x="22" y="9.03516" width="9.04762" height="9.03448" fill="#954A00"/>
<rect x="49" y="9.03516" width="9.04762" height="9.03448" fill="#3F3F3F"/>
<rect x="31" y="9.03516" width="9.04762" height="9.03448" fill="#954A00"/>
<rect x="31" width="9.04762" height="9.03448" fill="#3F3F3F"/>
<rect x="40" width="9.04762" height="9.03448" fill="#3F3F3F"/>
</svg>
