<svg width="251" height="539" viewBox="0 0 251 539" fill="none" xmlns="http://www.w3.org/2000/svg">
<mask id="path-1-inside-1_2572_12256" fill="white">
<path fill-rule="evenodd" clip-rule="evenodd" d="M36 0H48V8H56V0H72V8H80V0H96V8H104V0H120V8H128V0H144V8H152V0H168V8H176V0H192V8H200V0H215V10H221V16H226V21H231V27H236V33H241V39H246H251V44.9971V45V143.997H0V45V44.9971V39H5H10V33H15V27H20V21H25V16H30V10H36V0Z"/>
</mask>
<path fill-rule="evenodd" clip-rule="evenodd" d="M36 0H48V8H56V0H72V8H80V0H96V8H104V0H120V8H128V0H144V8H152V0H168V8H176V0H192V8H200V0H215V10H221V16H226V21H231V27H236V33H241V39H246H251V44.9971V45V143.997H0V45V44.9971V39H5H10V33H15V27H20V21H25V16H30V10H36V0Z" fill="#FF6100"/>
<path d="M48 0H51V-3H48V0ZM36 0V-3H33V0H36ZM48 8H45V11H48V8ZM56 8V11H59V8H56ZM56 0V-3H53V0H56ZM72 0H75V-3H72V0ZM72 8H69V11H72V8ZM80 8V11H83V8H80ZM80 0V-3H77V0H80ZM96 0H99V-3H96V0ZM96 8H93V11H96V8ZM104 8V11H107V8H104ZM104 0V-3H101V0H104ZM120 0H123V-3H120V0ZM120 8H117V11H120V8ZM128 8V11H131V8H128ZM128 0V-3H125V0H128ZM144 0H147V-3H144V0ZM144 8H141V11H144V8ZM152 8V11H155V8H152ZM152 0V-3H149V0H152ZM168 0H171V-3H168V0ZM168 8H165V11H168V8ZM176 8V11H179V8H176ZM176 0V-3H173V0H176ZM192 0H195V-3H192V0ZM192 8H189V11H192V8ZM200 8V11H203V8H200ZM200 0V-3H197V0H200ZM215 0H218V-3H215V0ZM215 10H212V13H215V10ZM221 10H224V7H221V10ZM221 16H218V19H221V16ZM226 16H229V13H226V16ZM226 21H223V24H226V21ZM231 21H234V18H231V21ZM231 27H228V30H231V27ZM236 27H239V24H236V27ZM236 33H233V36H236V33ZM241 33H244V30H241V33ZM241 39H238V42H241V39ZM251 39H254V36H251V39ZM251 143.997V146.997H254V143.997H251ZM0 143.997H-3V146.997H0V143.997ZM0 39V36H-3V39H0ZM10 39V42H13V39H10ZM10 33V30H7V33H10ZM15 33V36H18V33H15ZM15 27V24H12V27H15ZM20 27V30H23V27H20ZM20 21V18H17V21H20ZM25 21V24H28V21H25ZM25 16V13H22V16H25ZM30 16V19H33V16H30ZM30 10V7H27V10H30ZM36 10V13H39V10H36ZM48 -3H36V3H48V-3ZM51 8V0H45V8H51ZM56 5H48V11H56V5ZM53 0V8H59V0H53ZM72 -3H56V3H72V-3ZM75 8V0H69V8H75ZM80 5H72V11H80V5ZM77 0V8H83V0H77ZM96 -3H80V3H96V-3ZM99 8V0H93V8H99ZM104 5H96V11H104V5ZM101 0V8H107V0H101ZM120 -3H104V3H120V-3ZM123 8V0H117V8H123ZM128 5H120V11H128V5ZM125 0V8H131V0H125ZM144 -3H128V3H144V-3ZM147 8V0H141V8H147ZM152 5H144V11H152V5ZM149 0V8H155V0H149ZM168 -3H152V3H168V-3ZM171 8V0H165V8H171ZM176 5H168V11H176V5ZM173 0V8H179V0H173ZM192 -3H176V3H192V-3ZM195 8V0H189V8H195ZM200 5H192V11H200V5ZM197 0V8H203V0H197ZM215 -3H200V3H215V-3ZM218 10V0H212V10H218ZM221 7H215V13H221V7ZM224 16V10H218V16H224ZM226 13H221V19H226V13ZM229 21V16H223V21H229ZM231 18H226V24H231V18ZM234 27V21H228V27H234ZM236 24H231V30H236V24ZM239 33V27H233V33H239ZM241 30H236V36H241V30ZM244 39V33H238V39H244ZM246 36H241V42H246V36ZM251 36H246V42H251V36ZM254 44.9971V39H248V44.9971H254ZM254 45V44.9971H248V45H254ZM254 143.997V45H248V143.997H254ZM0 146.997H251V140.997H0V146.997ZM-3 45V143.997H3V45H-3ZM-3 44.9971V45H3V44.9971H-3ZM-3 39V44.9971H3V39H-3ZM5 36H0V42H5V36ZM10 36H5V42H10V36ZM7 33V39H13V33H7ZM15 30H10V36H15V30ZM12 27V33H18V27H12ZM20 24H15V30H20V24ZM17 21V27H23V21H17ZM25 18H20V24H25V18ZM22 16V21H28V16H22ZM30 13H25V19H30V13ZM27 10V16H33V10H27ZM36 7H30V13H36V7ZM33 0V10H39V0H33Z" fill="#3F3F3F" mask="url(#path-1-inside-1_2572_12256)"/>
<mask id="path-3-inside-2_2572_12256" fill="white">
<path fill-rule="evenodd" clip-rule="evenodd" d="M20 52.9339L24.2231 52.9339H28.4462V47.8662L32.6693 47.8662L32.6693 42.7984L36.8924 42.7984L36.8924 37.7307H41V34H46V28H51V20L201 20V28.4384L206.068 28.4384L206.068 33.5061H210.291V37.7293H214.514V42.797H218.737V47.8647L222.96 47.8647V52.9324H227.183H231.406V57.0001H231.41V102H231.406V106.068H227.183H222.96V111.136H218.737V116.203H214.514V121.271H210.291V125.494H206.068L206.068 130.562L201 130.562V139L51 139V131H46V125H41V121.27H36.8924L36.8924 116.202H32.6693L32.6693 111.134H28.4462V106.066H24.2231H20L20 102V57.0001L20 52.9339Z"/>
</mask>
<path fill-rule="evenodd" clip-rule="evenodd" d="M20 52.9339L24.2231 52.9339H28.4462V47.8662L32.6693 47.8662L32.6693 42.7984L36.8924 42.7984L36.8924 37.7307H41V34H46V28H51V20L201 20V28.4384L206.068 28.4384L206.068 33.5061H210.291V37.7293H214.514V42.797H218.737V47.8647L222.96 47.8647V52.9324H227.183H231.406V57.0001H231.41V102H231.406V106.068H227.183H222.96V111.136H218.737V116.203H214.514V121.271H210.291V125.494H206.068L206.068 130.562L201 130.562V139L51 139V131H46V125H41V121.27H36.8924L36.8924 116.202H32.6693L32.6693 111.134H28.4462V106.066H24.2231H20L20 102V57.0001L20 52.9339Z" fill="#F5EFEB"/>
<path d="M24.2231 52.9339V49.9339H24.2231L24.2231 52.9339ZM20 52.9339L20 49.9339L17 49.9339L17 52.9339H20ZM28.4462 52.9339V55.9339H31.4462V52.9339H28.4462ZM28.4462 47.8662L28.4462 44.8662L25.4462 44.8662V47.8662H28.4462ZM32.6693 47.8662L32.6693 50.8662L35.6693 50.8662L35.6693 47.8662H32.6693ZM32.6693 42.7984L32.6693 39.7984L29.6693 39.7984L29.6693 42.7984H32.6693ZM36.8924 42.7984L36.8924 45.7984L39.8924 45.7984L39.8924 42.7984L36.8924 42.7984ZM36.8924 37.7307V34.7307H33.8924L33.8924 37.7307L36.8924 37.7307ZM41 37.7307V40.7307H44V37.7307H41ZM41 34V31H38V34H41ZM46 34V37H49V34H46ZM46 28V25H43V28H46ZM51 28V31H54V28H51ZM51 20V17L48 17V20H51ZM201 20H204V17L201 17V20ZM201 28.4384H198V31.4384L201 31.4384V28.4384ZM206.068 28.4384L209.068 28.4384L209.068 25.4384L206.068 25.4384V28.4384ZM206.068 33.5061L203.068 33.5062L203.068 36.5061H206.068V33.5061ZM210.291 33.5061H213.291V30.5061H210.291V33.5061ZM210.291 37.7293H207.291V40.7293H210.291V37.7293ZM214.514 37.7293H217.514V34.7293H214.514V37.7293ZM214.514 42.797H211.514V45.797H214.514V42.797ZM218.737 42.797H221.737V39.797H218.737V42.797ZM218.737 47.8647H215.737V50.8647L218.737 50.8647V47.8647ZM222.96 47.8647H225.96V44.8647L222.96 44.8647V47.8647ZM222.96 52.9324H219.96V55.9324H222.96V52.9324ZM231.406 52.9324H234.406V49.9324H231.406V52.9324ZM231.406 57.0001H228.406V60.0001H231.406V57.0001ZM231.41 57.0001H234.41V54.0001H231.41V57.0001ZM231.41 102V105H234.41V102H231.41ZM231.406 102V99.0001H228.406V102H231.406ZM231.406 106.068V109.068H234.406V106.068H231.406ZM222.96 106.068V103.068H219.96V106.068H222.96ZM222.96 111.136V114.136H225.96V111.136H222.96ZM218.737 111.136V108.136H215.737V111.136H218.737ZM218.737 116.203V119.203H221.737V116.203H218.737ZM214.514 116.203V113.203H211.514V116.203H214.514ZM214.514 121.271V124.271H217.514V121.271H214.514ZM210.291 121.271V118.271H207.291V121.271H210.291ZM210.291 125.494V128.494H213.291V125.494H210.291ZM206.068 125.494V122.494H203.068L203.068 125.494L206.068 125.494ZM206.068 130.562V133.562H209.068L209.068 130.562H206.068ZM201 130.562V127.562H198V130.562H201ZM201 139V142H204V139H201ZM51 139H48V142H51V139ZM51 131H54V128H51V131ZM46 131H43V134H46V131ZM46 125H49V122H46V125ZM41 125H38V128H41V125ZM41 121.27H44V118.27H41V121.27ZM36.8924 121.27H33.8924L33.8924 124.27H36.8924V121.27ZM36.8924 116.202H39.8924L39.8924 113.202H36.8924V116.202ZM32.6693 116.202H29.6693L29.6693 119.202H32.6693V116.202ZM32.6693 111.134H35.6693L35.6693 108.134H32.6693V111.134ZM28.4462 111.134H25.4462V114.134H28.4462V111.134ZM28.4462 106.066H31.4462V103.066H28.4462V106.066ZM20 106.066H17L17 109.066H20V106.066ZM20 102H17H20ZM20 57.0001H17H20ZM24.2231 49.9339L20 49.9339L20 55.9339L24.2231 55.9339L24.2231 49.9339ZM28.4462 49.9339H24.2231V55.9339H28.4462V49.9339ZM25.4462 47.8662V52.9339H31.4462V47.8662H25.4462ZM32.6693 44.8662L28.4462 44.8662L28.4462 50.8662L32.6693 50.8662L32.6693 44.8662ZM29.6693 42.7984L29.6693 47.8662H35.6693L35.6693 42.7984H29.6693ZM36.8924 39.7984L32.6693 39.7984L32.6693 45.7984L36.8924 45.7984L36.8924 39.7984ZM33.8924 37.7307L33.8924 42.7984L39.8924 42.7984L39.8924 37.7307L33.8924 37.7307ZM41 34.7307H36.8924V40.7307H41V34.7307ZM38 34V37.7307H44V34H38ZM46 31H41V37H46V31ZM43 28V34H49V28H43ZM51 25H46V31H51V25ZM48 20V28H54V20H48ZM201 17L51 17V23L201 23V17ZM204 28.4384V20H198V28.4384H204ZM206.068 25.4384L201 25.4384V31.4384L206.068 31.4384V25.4384ZM209.068 33.5061L209.068 28.4384L203.068 28.4384L203.068 33.5062L209.068 33.5061ZM210.291 30.5061H206.068V36.5061H210.291V30.5061ZM213.291 37.7293V33.5061H207.291V37.7293H213.291ZM214.514 34.7293H210.291V40.7293H214.514V34.7293ZM217.514 42.797V37.7293H211.514V42.797H217.514ZM218.737 39.797H214.514V45.797H218.737V39.797ZM221.737 47.8647V42.797H215.737V47.8647H221.737ZM222.96 44.8647L218.737 44.8647V50.8647L222.96 50.8647V44.8647ZM225.96 52.9324V47.8647H219.96V52.9324H225.96ZM227.183 49.9324H222.96V55.9324H227.183V49.9324ZM231.406 49.9324H227.183V55.9324H231.406V49.9324ZM234.406 57.0001V52.9324H228.406V57.0001H234.406ZM231.406 60.0001H231.41V54.0001H231.406V60.0001ZM228.41 57.0001V102H234.41V57.0001H228.41ZM231.41 99.0001H231.406V105H231.41V99.0001ZM228.406 102V106.068H234.406V102H228.406ZM231.406 103.068H227.183V109.068H231.406V103.068ZM227.183 103.068H222.96V109.068H227.183V103.068ZM219.96 106.068V111.136H225.96V106.068H219.96ZM222.96 108.136H218.737V114.136H222.96V108.136ZM215.737 111.136V116.203H221.737V111.136H215.737ZM218.737 113.203H214.514V119.203H218.737V113.203ZM211.514 116.203V121.271H217.514V116.203H211.514ZM214.514 118.271H210.291V124.271H214.514V118.271ZM207.291 121.271V125.494H213.291V121.271H207.291ZM210.291 122.494H206.068V128.494H210.291V122.494ZM203.068 125.494L203.068 130.562L209.068 130.562L209.068 125.494L203.068 125.494ZM206.068 127.562L201 127.562V133.562L206.068 133.562V127.562ZM198 130.562V139H204V130.562H198ZM201 136L51 136V142L201 142V136ZM54 139V131H48V139H54ZM51 128H46V134H51V128ZM49 131V125H43V131H49ZM46 122H41V128H46V122ZM44 125V121.27H38V125H44ZM41 118.27H36.8924V124.27H41V118.27ZM39.8924 121.27L39.8924 116.202H33.8924L33.8924 121.27H39.8924ZM36.8924 113.202H32.6693V119.202H36.8924V113.202ZM35.6693 116.202L35.6693 111.134H29.6693L29.6693 116.202H35.6693ZM32.6693 108.134H28.4462V114.134H32.6693V108.134ZM31.4462 111.134V106.066H25.4462V111.134H31.4462ZM28.4462 103.066H24.2231V109.066H28.4462V103.066ZM24.2231 103.066H20V109.066H24.2231V103.066ZM23 106.066L23 102H17L17 106.066H23ZM23 102V57.0001H17V102H23ZM17 52.9339L17 57.0001H23L23 52.9339H17Z" fill="#3F3F3F" mask="url(#path-3-inside-2_2572_12256)"/>
<mask id="path-5-outside-3_2572_12256" maskUnits="userSpaceOnUse" x="30" y="53.9971" width="193" height="63" fill="black">
<rect fill="white" x="30" y="53.9971" width="193" height="63"/>
<path fill-rule="evenodd" clip-rule="evenodd" d="M209.742 89.7334L214.7 90.9967L214.936 90.681C216.509 88.5734 217.7 86.1215 218.38 83.4049C221.114 72.4774 214.552 61.3822 203.723 58.623C192.894 55.8637 181.898 62.4853 179.163 73.4128C176.429 84.3402 182.991 95.4354 193.82 98.1947C196.244 98.8121 198.677 98.9599 201.024 98.6941C201.328 98.6597 201.631 98.6183 201.932 98.5701L202.316 98.5086L203.584 93.4416L207.357 94.403L206.145 99.2484L212.204 100.793L213.735 94.6782L208.818 93.4252L209.742 89.7334ZM199.054 85.7857L203.954 87.0345L205.197 82.0708L210.11 83.323C210.362 82.7279 210.572 82.1049 210.734 81.4568C212.402 74.7902 208.399 68.0211 201.792 66.3378C195.185 64.6544 188.477 68.6941 186.809 75.3608C185.141 82.0274 189.144 88.7965 195.751 90.4798C196.433 90.6536 197.116 90.7664 197.794 90.8216L199.054 85.7857Z"/>
<path fill-rule="evenodd" clip-rule="evenodd" d="M59.6475 63.5669L58.349 58.621L37.603 64.1671L38.9015 69.1131L34 70.4234L42.0935 101.249L53.0364 98.3239L50.4393 88.432L65.1439 84.501L63.8453 79.555L68.7468 78.2447L64.5491 62.2566L59.6475 63.5669ZM53.9081 66.3322L57.5019 80.0199L48.8387 82.3359L45.2449 68.6482L53.9081 66.3322Z"/>
<path fill-rule="evenodd" clip-rule="evenodd" d="M87.0525 71.0487L76.0436 68.387L73.4059 79.4957L78.337 80.6879L77.1555 85.6637L82.0865 86.8558L81.1798 90.6744L76.2488 89.4823L75.0673 94.458L70.1362 93.2658L67.4985 104.375L78.5074 107.036L80.8703 97.0846L85.8014 98.2768L86.9829 93.301L90.7672 94.216L89.5857 99.1917L94.5168 100.384L92.1538 110.335L103.163 112.997L105.8 101.888L100.869 100.696L102.051 95.7204L97.1198 94.5283L98.0265 90.7097L102.958 91.9018L104.139 86.9261L109.07 88.1183L111.708 77.0096L100.699 74.348L98.336 84.2995L93.4049 83.1073L92.2234 88.0831L88.4391 87.1681L89.6206 82.1924L84.6895 81.0002L87.0525 71.0487Z"/>
<path fill-rule="evenodd" clip-rule="evenodd" d="M114.367 93.6602L115.193 99.4353L146.181 94.923L145.025 86.8378L127.092 89.4491L141.385 65.1958L140.566 59.4648L111.517 63.6947L112.661 71.6902L128.609 69.3679L114.367 93.6602ZM140.772 65.0726L140.066 60.1386L140.772 65.0726Z"/>
<path fill-rule="evenodd" clip-rule="evenodd" d="M163.962 109.442C172.298 109.442 179.056 102.623 179.056 94.2112C179.056 85.7995 172.298 78.9804 163.962 78.9804C155.625 78.9804 148.868 85.7995 148.868 94.2112C148.868 102.623 155.625 109.442 163.962 109.442ZM171.155 94.2112C171.155 98.2199 167.934 101.47 163.962 101.47C159.989 101.47 156.768 98.2199 156.768 94.2112C156.768 90.2025 159.989 86.9528 163.962 86.9528C167.934 86.9528 171.155 90.2025 171.155 94.2112Z"/>
</mask>
<path fill-rule="evenodd" clip-rule="evenodd" d="M209.742 89.7334L214.7 90.9967L214.936 90.681C216.509 88.5734 217.7 86.1215 218.38 83.4049C221.114 72.4774 214.552 61.3822 203.723 58.623C192.894 55.8637 181.898 62.4853 179.163 73.4128C176.429 84.3402 182.991 95.4354 193.82 98.1947C196.244 98.8121 198.677 98.9599 201.024 98.6941C201.328 98.6597 201.631 98.6183 201.932 98.5701L202.316 98.5086L203.584 93.4416L207.357 94.403L206.145 99.2484L212.204 100.793L213.735 94.6782L208.818 93.4252L209.742 89.7334ZM199.054 85.7857L203.954 87.0345L205.197 82.0708L210.11 83.323C210.362 82.7279 210.572 82.1049 210.734 81.4568C212.402 74.7902 208.399 68.0211 201.792 66.3378C195.185 64.6544 188.477 68.6941 186.809 75.3608C185.141 82.0274 189.144 88.7965 195.751 90.4798C196.433 90.6536 197.116 90.7664 197.794 90.8216L199.054 85.7857Z" fill="#FF6100"/>
<path fill-rule="evenodd" clip-rule="evenodd" d="M59.6475 63.5669L58.349 58.621L37.603 64.1671L38.9015 69.1131L34 70.4234L42.0935 101.249L53.0364 98.3239L50.4393 88.432L65.1439 84.501L63.8453 79.555L68.7468 78.2447L64.5491 62.2566L59.6475 63.5669ZM53.9081 66.3322L57.5019 80.0199L48.8387 82.3359L45.2449 68.6482L53.9081 66.3322Z" fill="#FF6100"/>
<path fill-rule="evenodd" clip-rule="evenodd" d="M87.0525 71.0487L76.0436 68.387L73.4059 79.4957L78.337 80.6879L77.1555 85.6637L82.0865 86.8558L81.1798 90.6744L76.2488 89.4823L75.0673 94.458L70.1362 93.2658L67.4985 104.375L78.5074 107.036L80.8703 97.0846L85.8014 98.2768L86.9829 93.301L90.7672 94.216L89.5857 99.1917L94.5168 100.384L92.1538 110.335L103.163 112.997L105.8 101.888L100.869 100.696L102.051 95.7204L97.1198 94.5283L98.0265 90.7097L102.958 91.9018L104.139 86.9261L109.07 88.1183L111.708 77.0096L100.699 74.348L98.336 84.2995L93.4049 83.1073L92.2234 88.0831L88.4391 87.1681L89.6206 82.1924L84.6895 81.0002L87.0525 71.0487Z" fill="#FF6100"/>
<path fill-rule="evenodd" clip-rule="evenodd" d="M114.367 93.6602L115.193 99.4353L146.181 94.923L145.025 86.8378L127.092 89.4491L141.385 65.1958L140.566 59.4648L111.517 63.6947L112.661 71.6902L128.609 69.3679L114.367 93.6602ZM140.772 65.0726L140.066 60.1386L140.772 65.0726Z" fill="#FF6100"/>
<path fill-rule="evenodd" clip-rule="evenodd" d="M163.962 109.442C172.298 109.442 179.056 102.623 179.056 94.2112C179.056 85.7995 172.298 78.9804 163.962 78.9804C155.625 78.9804 148.868 85.7995 148.868 94.2112C148.868 102.623 155.625 109.442 163.962 109.442ZM171.155 94.2112C171.155 98.2199 167.934 101.47 163.962 101.47C159.989 101.47 156.768 98.2199 156.768 94.2112C156.768 90.2025 159.989 86.9528 163.962 86.9528C167.934 86.9528 171.155 90.2025 171.155 94.2112Z" fill="#FF6100"/>
<path d="M87.7283 87.6081L86.2688 87.2616L85.9237 88.715L87.3758 89.0661L87.7283 87.6081ZM88.9098 82.6323L90.3692 82.9789L90.7143 81.5254L89.2623 81.1743L88.9098 82.6323ZM83.9787 81.4401L82.5193 81.0936L82.1741 82.5471L83.6262 82.8981L83.9787 81.4401ZM86.3416 71.4886L87.8011 71.8352L88.1462 70.3817L86.6941 70.0306L86.3416 71.4886ZM60.6793 63.9135L59.3807 58.9676L56.4791 59.7294L57.7777 64.6754L60.6793 63.9135ZM69.4766 77.441L65.5809 62.6032L62.6792 63.365L66.5749 78.2029L69.4766 77.441ZM65.8736 83.6973L64.5751 78.7514L61.6734 79.5132L62.972 84.4592L65.8736 83.6973ZM53.7662 97.5203L51.1691 87.6284L48.2674 88.3902L50.8646 98.2821L53.7662 97.5203ZM81.9682 89.9336L77.0373 88.7415L76.3323 91.6575L81.2632 92.8496L81.9682 89.9336ZM75.8557 93.7172L70.9247 92.525L70.2197 95.441L75.1507 96.6332L75.8557 93.7172ZM79.5307 106.665L81.8937 96.714L78.9749 96.0209L76.6119 105.972L79.5307 106.665ZM86.8247 97.9061L88.0063 92.9304L85.0875 92.2373L83.9059 97.213L86.8247 97.9061ZM99.1245 83.5587L94.1934 82.3665L93.4884 85.2825L98.4195 86.4747L99.1245 83.5587ZM87.3758 89.0661L92.3068 90.2583L93.0118 87.3423L88.0808 86.1501L87.3758 89.0661ZM87.4503 82.2858L86.2688 87.2616L89.1877 87.9546L90.3692 82.9789L87.4503 82.2858ZM83.6262 82.8981L88.5573 84.0903L89.2623 81.1743L84.3312 79.9822L83.6262 82.8981ZM85.4381 81.7867L87.8011 71.8352L84.8822 71.1421L82.5193 81.0936L85.4381 81.7867ZM146.998 94.2068L146.01 87.2993L143.04 87.724L144.028 94.6315L146.998 94.2068ZM49.8705 82.6824L45.9747 67.8446L43.0731 68.6064L46.9688 83.4443L49.8705 82.6824ZM157.21 87.7924C155.641 89.4674 154.679 91.7287 154.679 94.2113H157.679C157.679 92.5167 158.333 90.9819 159.399 89.8433L157.21 87.7924ZM154.679 94.2113C154.679 96.7893 155.716 99.1282 157.393 100.82L159.524 98.7085C158.384 97.5582 157.679 95.9705 157.679 94.2113H154.679ZM76.1271 70.5622L85.9891 72.9466L86.6941 70.0306L76.8321 67.6462L76.1271 70.5622ZM214.7 90.9967L213.96 93.9039L215.904 94.3993L217.104 92.7911L214.7 90.9967ZM209.742 89.7334L210.483 86.8263L207.563 86.0824L206.832 89.0051L209.742 89.7334ZM214.936 90.681L217.34 92.4754L217.34 92.4753L214.936 90.681ZM218.38 83.4049L221.29 84.1331V84.1331L218.38 83.4049ZM203.723 58.623L204.464 55.7158V55.7158L203.723 58.623ZM193.82 98.1947L193.08 101.102L193.82 98.1947ZM201.024 98.6941L200.687 95.7131L200.687 95.7131L201.024 98.6941ZM201.932 98.5701L201.458 95.6078H201.458L201.932 98.5701ZM202.316 98.5086L202.791 101.471L204.746 101.158L205.227 99.2368L202.316 98.5086ZM203.584 93.4416L204.325 90.5345L201.405 89.7906L200.674 92.7134L203.584 93.4416ZM207.357 94.403L210.268 95.1314L210.993 92.2335L208.098 91.4959L207.357 94.403ZM206.145 99.2484L203.234 98.52L202.509 101.418L205.404 102.156L206.145 99.2484ZM212.204 100.793L211.463 103.7L214.383 104.444L215.114 101.521L212.204 100.793ZM213.735 94.6782L216.645 95.4066L217.37 92.5088L214.476 91.7711L213.735 94.6782ZM208.818 93.4252L205.908 92.697L205.183 95.5947L208.077 96.3323L208.818 93.4252ZM203.954 87.0345L203.214 89.9416L206.133 90.6856L206.865 87.7629L203.954 87.0345ZM199.054 85.7857L199.795 82.8786L196.876 82.1345L196.144 85.0573L199.054 85.7857ZM205.197 82.0708L205.938 79.1638L203.018 78.4197L202.287 81.3424L205.197 82.0708ZM210.11 83.323L209.369 86.23L211.866 86.8663L212.872 84.4944L210.11 83.323ZM210.734 81.4568L207.824 80.7285V80.7285L210.734 81.4568ZM201.792 66.3378L202.533 63.4306V63.4306L201.792 66.3378ZM186.809 75.3608L183.899 74.6325V74.6325L186.809 75.3608ZM195.751 90.4798L196.492 87.5727L196.492 87.5727L195.751 90.4798ZM197.794 90.8216L197.55 93.8117L200.086 94.0184L200.704 91.55L197.794 90.8216ZM58.349 58.621L61.2506 57.8591L60.4854 54.9445L57.5742 55.7228L58.349 58.621ZM59.6475 63.5669L56.7459 64.3288L57.5111 67.2434L60.4223 66.4652L59.6475 63.5669ZM37.603 64.1671L36.8282 61.2689L33.9429 62.0402L34.7013 64.9289L37.603 64.1671ZM38.9015 69.1131L39.6763 72.0113L42.5616 71.2399L41.8032 68.3512L38.9015 69.1131ZM34 70.4234L33.2252 67.5252L30.3399 68.2965L31.0983 71.1853L34 70.4234ZM42.0935 101.249L39.1918 102.011L39.9571 104.926L42.8683 104.148L42.0935 101.249ZM53.0364 98.3239L53.8112 101.222L56.6965 100.451L55.9381 97.5621L53.0364 98.3239ZM50.4393 88.432L49.6645 85.5338L46.7792 86.3052L47.5376 89.1939L50.4393 88.432ZM65.1439 84.501L65.9186 87.3992L68.804 86.6279L68.0455 83.7391L65.1439 84.501ZM63.8453 79.555L63.0705 76.6568L60.1852 77.4281L60.9436 80.3169L63.8453 79.555ZM68.7468 78.2447L69.5216 81.1429L72.4069 80.3716L71.6485 77.4828L68.7468 78.2447ZM64.5491 62.2566L67.4507 61.4947L66.6855 58.5801L63.7743 59.3584L64.5491 62.2566ZM76.0436 68.387L76.7486 65.471L73.8207 64.7632L73.1248 67.694L76.0436 68.387ZM87.0525 71.0487L89.9713 71.7417L90.6616 68.8348L87.7575 68.1327L87.0525 71.0487ZM73.4059 79.4957L70.487 78.8026L69.7968 81.7096L72.7009 82.4117L73.4059 79.4957ZM78.337 80.6879L81.2558 81.381L81.946 78.474L79.042 77.7719L78.337 80.6879ZM77.1555 85.6637L74.2366 84.9706L73.5464 87.8775L76.4505 88.5796L77.1555 85.6637ZM82.0865 86.8558L85.0054 87.5489L85.6956 84.642L82.7915 83.9399L82.0865 86.8558ZM81.1798 90.6744L80.4748 93.5904L83.4028 94.2983L84.0987 91.3675L81.1798 90.6744ZM76.2488 89.4823L76.9538 86.5663L74.0258 85.8584L73.3299 88.7892L76.2488 89.4823ZM75.0673 94.458L74.3623 97.374L77.2902 98.0819L77.9861 95.1511L75.0673 94.458ZM70.1362 93.2658L70.8412 90.3498L67.9133 89.642L67.2174 92.5728L70.1362 93.2658ZM67.4985 104.375L64.5796 103.681L63.8894 106.588L66.7935 107.29L67.4985 104.375ZM78.5074 107.036L77.8024 109.952L80.7303 110.66L81.4262 107.729L78.5074 107.036ZM80.8703 97.0846L81.5753 94.1686L78.6474 93.4607L77.9515 96.3915L80.8703 97.0846ZM85.8014 98.2768L85.0964 101.193L88.0243 101.901L88.7203 98.9699L85.8014 98.2768ZM86.9829 93.301L87.6879 90.3851L84.7599 89.6772L84.064 92.608L86.9829 93.301ZM90.7672 94.216L93.686 94.909L94.3763 92.0021L91.4722 91.3L90.7672 94.216ZM89.5857 99.1917L86.6669 98.4987L85.9766 101.406L88.8807 102.108L89.5857 99.1917ZM94.5168 100.384L97.4356 101.077L98.1259 98.1701L95.2218 97.4679L94.5168 100.384ZM92.1538 110.335L89.235 109.642L88.5447 112.549L91.4488 113.251L92.1538 110.335ZM103.163 112.997L102.458 115.913L105.386 116.621L106.082 113.69L103.163 112.997ZM105.8 101.888L108.719 102.581L109.41 99.6745L106.505 98.9724L105.8 101.888ZM100.869 100.696L97.9505 100.003L97.2603 102.91L100.164 103.612L100.869 100.696ZM102.051 95.7204L104.97 96.4135L105.66 93.5066L102.756 92.8045L102.051 95.7204ZM97.1198 94.5283L94.2009 93.8352L93.5107 96.7421L96.4148 97.4443L97.1198 94.5283ZM98.0265 90.7097L98.7315 87.7937L95.8036 87.0858L95.1077 90.0166L98.0265 90.7097ZM102.958 91.9018L102.253 94.8178L105.18 95.5257L105.876 92.5949L102.958 91.9018ZM104.139 86.9261L104.844 84.0101L101.916 83.3022L101.22 86.233L104.139 86.9261ZM109.07 88.1183L108.365 91.0343L111.293 91.7421L111.989 88.8113L109.07 88.1183ZM111.708 77.0096L114.627 77.7027L115.317 74.7957L112.413 74.0936L111.708 77.0096ZM100.699 74.348L101.404 71.432L98.476 70.7241L97.7801 73.6549L100.699 74.348ZM98.336 84.2995L97.631 87.2155L100.559 87.9234L101.255 84.9926L98.336 84.2995ZM93.4049 83.1073L94.1099 80.1913L91.182 79.4834L90.4861 82.4142L93.4049 83.1073ZM92.2234 88.0831L91.5184 90.999L94.4464 91.7069L95.1423 88.7761L92.2234 88.0831ZM88.4391 87.1681L85.5203 86.4751L84.83 89.382L87.7341 90.0841L88.4391 87.1681ZM89.6206 82.1924L92.5395 82.8854L93.2297 79.9785L90.3256 79.2764L89.6206 82.1924ZM84.6895 81.0002L81.7707 80.3071L81.0805 83.214L83.9845 83.9162L84.6895 81.0002ZM115.193 99.4353L112.223 99.86L112.649 102.837L115.626 102.404L115.193 99.4353ZM114.367 93.6602L111.779 92.1429L111.249 93.0472L111.398 94.0849L114.367 93.6602ZM146.181 94.923L146.613 97.8917L149.574 97.4605L149.151 94.4983L146.181 94.923ZM145.025 86.8378L147.995 86.4131L147.569 83.4357L144.592 83.8691L145.025 86.8378ZM127.092 89.4491L124.507 87.9259L121.329 93.3199L127.524 92.4177L127.092 89.4491ZM141.385 65.1958L143.97 66.719L144.504 65.8126L144.355 64.7711L141.385 65.1958ZM140.566 59.4648L143.535 59.0401L143.11 56.0627L140.133 56.4961L140.566 59.4648ZM111.517 63.6947L111.085 60.726L108.124 61.1572L108.548 64.1194L111.517 63.6947ZM112.661 71.6902L109.691 72.1149L110.117 75.0923L113.093 74.6589L112.661 71.6902ZM128.609 69.3679L131.197 70.8851L134.354 65.4996L128.177 66.3992L128.609 69.3679ZM57.5019 80.0199L58.2767 82.9181L61.162 82.1468L60.4035 79.258L57.5019 80.0199ZM53.9081 66.3322L56.8098 65.5704L56.0445 62.6558L53.1333 63.434L53.9081 66.3322ZM48.8387 82.3359L45.937 83.0977L46.7023 86.0123L49.6135 85.2341L48.8387 82.3359ZM45.2449 68.6482L44.4701 65.75L41.5848 66.5213L42.3433 69.41L45.2449 68.6482ZM215.441 88.0896L210.483 86.8263L209.001 92.6405L213.96 93.9039L215.441 88.0896ZM212.532 88.8867L212.296 89.2024L217.104 92.7911L217.34 92.4754L212.532 88.8867ZM215.469 82.6766C214.888 85.0021 213.871 87.0926 212.532 88.8868L217.34 92.4753C219.147 90.0541 220.512 87.2409 221.29 84.1331L215.469 82.6766ZM202.982 61.5301C212.189 63.876 217.808 73.3299 215.469 82.6766L221.29 84.1331C224.42 71.6249 216.915 58.8884 204.464 55.7158L202.982 61.5301ZM182.074 74.141C184.41 64.8038 193.785 59.1867 202.982 61.5301L204.464 55.7158C192.002 52.5407 179.386 60.1669 176.253 72.6845L182.074 74.141ZM194.561 95.2875C185.354 92.9416 179.735 83.4877 182.074 74.141L176.253 72.6845C173.123 85.1927 180.628 97.9292 193.08 101.102L194.561 95.2875ZM200.687 95.7131C198.695 95.9386 196.627 95.814 194.561 95.2875L193.08 101.102C195.86 101.81 198.659 101.981 201.362 101.675L200.687 95.7131ZM201.458 95.6078C201.202 95.6487 200.945 95.6839 200.687 95.7131L201.362 101.675C201.712 101.635 202.06 101.588 202.406 101.532L201.458 95.6078ZM201.842 95.5463L201.458 95.6078L202.406 101.532L202.791 101.471L201.842 95.5463ZM200.674 92.7134L199.406 97.7803L205.227 99.2368L206.494 94.1699L200.674 92.7134ZM208.098 91.4959L204.325 90.5345L202.843 96.3487L206.617 97.3101L208.098 91.4959ZM209.055 99.9768L210.268 95.1314L204.447 93.6746L203.234 98.52L209.055 99.9768ZM212.945 97.8856L206.886 96.3414L205.404 102.156L211.463 103.7L212.945 97.8856ZM210.824 93.9498L209.294 100.064L215.114 101.521L216.645 95.4066L210.824 93.9498ZM208.077 96.3323L212.994 97.5853L214.476 91.7711L209.559 90.5182L208.077 96.3323ZM206.832 89.0051L205.908 92.697L211.728 94.1535L212.652 90.4617L206.832 89.0051ZM204.695 84.1274L199.795 82.8786L198.313 88.6928L203.214 89.9416L204.695 84.1274ZM202.287 81.3424L201.044 86.3061L206.865 87.7629L208.107 82.7993L202.287 81.3424ZM210.851 80.4159L205.938 79.1638L204.456 84.9779L209.369 86.23L210.851 80.4159ZM207.824 80.7285C207.7 81.2249 207.54 81.6997 207.348 82.1515L212.872 84.4944C213.185 83.7561 213.444 82.985 213.644 82.1851L207.824 80.7285ZM201.052 69.2449C206.036 70.5149 209.097 75.6426 207.824 80.7285L213.644 82.1851C215.708 73.9377 210.762 65.5274 202.533 63.4306L201.052 69.2449ZM189.719 76.089C190.99 71.0126 196.077 67.9774 201.052 69.2449L202.533 63.4306C194.294 61.3314 185.965 66.3757 183.899 74.6325L189.719 76.089ZM196.492 87.5727C191.507 86.3027 188.447 81.175 189.719 76.089L183.899 74.6325C181.835 82.8799 186.781 91.2902 195.01 93.387L196.492 87.5727ZM198.038 87.8315C197.527 87.7899 197.01 87.7048 196.492 87.5727L195.01 93.387C195.856 93.6025 196.705 93.7429 197.55 93.8117L198.038 87.8315ZM196.144 85.0573L194.884 90.0932L200.704 91.55L201.965 86.5141L196.144 85.0573ZM55.4473 59.3828L56.7459 64.3288L62.5492 62.8051L61.2506 57.8591L55.4473 59.3828ZM38.3777 67.0653L59.1238 61.5192L57.5742 55.7228L36.8282 61.2689L38.3777 67.0653ZM41.8032 68.3512L40.5046 63.4053L34.7013 64.9289L35.9999 69.8749L41.8032 68.3512ZM34.7748 73.3216L39.6763 72.0113L38.1267 66.2148L33.2252 67.5252L34.7748 73.3216ZM44.9951 100.488L36.9017 69.6616L31.0983 71.1853L39.1918 102.011L44.9951 100.488ZM52.2616 95.4257L41.3187 98.3512L42.8683 104.148L53.8112 101.222L52.2616 95.4257ZM47.5376 89.1939L50.1348 99.0858L55.9381 97.5621L53.3409 87.6702L47.5376 89.1939ZM64.3691 81.6028L49.6645 85.5338L51.2141 91.3303L65.9186 87.3992L64.3691 81.6028ZM60.9436 80.3169L62.2422 85.2628L68.0455 83.7391L66.7469 78.7932L60.9436 80.3169ZM67.972 75.3465L63.0705 76.6568L64.6201 82.4532L69.5216 81.1429L67.972 75.3465ZM61.6474 63.0184L65.8452 79.0065L71.6485 77.4828L67.4507 61.4947L61.6474 63.0184ZM60.4223 66.4652L65.3239 65.1548L63.7743 59.3584L58.8727 60.6687L60.4223 66.4652ZM75.3386 71.303L86.3475 73.9646L87.7575 68.1327L76.7486 65.471L75.3386 71.303ZM76.3247 80.1888L78.9624 69.0801L73.1248 67.694L70.487 78.8026L76.3247 80.1888ZM79.042 77.7719L74.1109 76.5797L72.7009 82.4117L77.632 83.6039L79.042 77.7719ZM80.0743 86.3567L81.2558 81.381L75.4181 79.9948L74.2366 84.9706L80.0743 86.3567ZM82.7915 83.9399L77.8605 82.7477L76.4505 88.5796L81.3815 89.7718L82.7915 83.9399ZM84.0987 91.3675L85.0054 87.5489L79.1677 86.1628L78.261 89.9814L84.0987 91.3675ZM75.5438 92.3982L80.4748 93.5904L81.8848 87.7585L76.9538 86.5663L75.5438 92.3982ZM77.9861 95.1511L79.1676 90.1753L73.3299 88.7892L72.1484 93.7649L77.9861 95.1511ZM69.4312 96.1818L74.3623 97.374L75.7723 91.542L70.8412 90.3498L69.4312 96.1818ZM70.4173 105.068L73.0551 93.9589L67.2174 92.5728L64.5796 103.681L70.4173 105.068ZM79.2124 104.12L68.2035 101.459L66.7935 107.29L77.8024 109.952L79.2124 104.12ZM77.9515 96.3915L75.5885 106.343L81.4262 107.729L83.7892 97.7777L77.9515 96.3915ZM86.5064 95.3608L81.5753 94.1686L80.1653 100.001L85.0964 101.193L86.5064 95.3608ZM84.064 92.608L82.8826 97.5837L88.7203 98.9699L89.9017 93.9941L84.064 92.608ZM91.4722 91.3L87.6879 90.3851L86.2779 96.217L90.0622 97.132L91.4722 91.3ZM92.5046 99.8848L93.686 94.909L87.8484 93.5229L86.6669 98.4987L92.5046 99.8848ZM95.2218 97.4679L90.2907 96.2758L88.8807 102.108L93.8118 103.3L95.2218 97.4679ZM95.0727 111.029L97.4356 101.077L91.5979 99.6909L89.235 109.642L95.0727 111.029ZM103.868 110.081L92.8588 107.419L91.4488 113.251L102.458 115.913L103.868 110.081ZM102.882 101.195L100.244 112.304L106.082 113.69L108.719 102.581L102.882 101.195ZM100.164 103.612L105.095 104.804L106.505 98.9724L101.574 97.7802L100.164 103.612ZM99.132 95.0274L97.9505 100.003L103.788 101.389L104.97 96.4135L99.132 95.0274ZM96.4148 97.4443L101.346 98.6364L102.756 92.8045L97.8248 91.6123L96.4148 97.4443ZM95.1077 90.0166L94.2009 93.8352L100.039 95.2213L100.945 91.4027L95.1077 90.0166ZM103.663 88.9859L98.7315 87.7937L97.3215 93.6256L102.253 94.8178L103.663 88.9859ZM101.22 86.233L100.039 91.2088L105.876 92.5949L107.058 87.6192L101.22 86.233ZM109.775 85.2023L104.844 84.0101L103.434 89.8421L108.365 91.0343L109.775 85.2023ZM108.789 76.3165L106.151 87.4252L111.989 88.8113L114.627 77.7027L108.789 76.3165ZM99.9939 77.264L111.003 79.9256L112.413 74.0936L101.404 71.432L99.9939 77.264ZM101.255 84.9926L103.618 75.041L97.7801 73.6549L95.4171 83.6064L101.255 84.9926ZM92.6999 86.0233L97.631 87.2155L99.041 81.3835L94.1099 80.1913L92.6999 86.0233ZM95.1423 88.7761L96.3238 83.8004L90.4861 82.4142L89.3046 87.39L95.1423 88.7761ZM87.7341 90.0841L91.5184 90.999L92.9284 85.1671L89.1441 84.2521L87.7341 90.0841ZM86.7018 81.4993L85.5203 86.4751L91.358 87.8612L92.5395 82.8854L86.7018 81.4993ZM83.9845 83.9162L88.9156 85.1084L90.3256 79.2764L85.3945 78.0842L83.9845 83.9162ZM84.1337 70.3556L81.7707 80.3071L87.6084 81.6932L89.9713 71.7417L84.1337 70.3556ZM118.163 99.0106L117.337 93.2355L111.398 94.0849L112.223 99.86L118.163 99.0106ZM145.749 91.9543L114.761 96.4666L115.626 102.404L146.613 97.8917L145.749 91.9543ZM142.055 87.2625L143.211 95.3477L149.151 94.4983L147.995 86.4131L142.055 87.2625ZM127.524 92.4177L145.457 89.8065L144.592 83.8691L126.66 86.4804L127.524 92.4177ZM138.801 63.6727L124.507 87.9259L129.677 90.9722L143.97 66.719L138.801 63.6727ZM137.596 59.8895L138.415 65.6205L144.355 64.7711L143.535 59.0401L137.596 59.8895ZM111.95 66.6633L140.998 62.4335L140.133 56.4961L111.085 60.726L111.95 66.6633ZM115.631 71.2655L114.487 63.2699L108.548 64.1194L109.691 72.1149L115.631 71.2655ZM128.177 66.3992L112.229 68.7215L113.093 74.6589L129.041 72.3366L128.177 66.3992ZM116.955 95.1774L131.197 70.8851L126.021 67.8506L111.779 92.1429L116.955 95.1774ZM143.742 64.6479L143.036 59.7139L137.096 60.5634L137.802 65.4973L143.742 64.6479ZM60.4035 79.258L56.8098 65.5704L51.0065 67.0941L54.6002 80.7817L60.4035 79.258ZM49.6135 85.2341L58.2767 82.9181L56.7271 77.1217L48.0639 79.4376L49.6135 85.2341ZM42.3433 69.41L45.937 83.0977L51.7403 81.574L48.1466 67.8864L42.3433 69.41ZM53.1333 63.434L44.4701 65.75L46.0197 71.5464L54.6829 69.2305L53.1333 63.434ZM176.056 94.2112C176.056 100.992 170.615 106.442 163.962 106.442V112.442C173.98 112.442 182.056 104.254 182.056 94.2112H176.056ZM163.962 81.9804C170.615 81.9804 176.056 87.4308 176.056 94.2112H182.056C182.056 84.1682 173.98 75.9804 163.962 75.9804V81.9804ZM151.868 94.2112C151.868 87.4308 157.308 81.9804 163.962 81.9804V75.9804C153.943 75.9804 145.868 84.1682 145.868 94.2112H151.868ZM163.962 106.442C157.308 106.442 151.868 100.992 151.868 94.2112H145.868C145.868 104.254 153.943 112.442 163.962 112.442V106.442ZM163.962 104.47C169.617 104.47 174.155 99.8512 174.155 94.2112H168.155C168.155 96.5887 166.252 98.4697 163.962 98.4697V104.47ZM153.768 94.2112C153.768 99.8512 158.307 104.47 163.962 104.47V98.4697C161.671 98.4697 159.768 96.5887 159.768 94.2112H153.768ZM163.962 83.9528C158.307 83.9528 153.768 88.5712 153.768 94.2112H159.768C159.768 91.8338 161.671 89.9528 163.962 89.9528V83.9528ZM174.155 94.2112C174.155 88.5712 169.617 83.9528 163.962 83.9528V89.9528C166.252 89.9528 168.155 91.8338 168.155 94.2112H174.155Z" fill="#3F3F3F" mask="url(#path-5-outside-3_2572_12256)"/>
<mask id="path-7-inside-4_2572_12256" fill="white">
<path fill-rule="evenodd" clip-rule="evenodd" d="M251 141V494V500H246H241V506H236V512H231V518H226V523H221V529H215V539H200V531H192V539H176V531H168V539H152V531H144V539H128V531H120V539H104V531H96V539H80V531H72V539H56V531H48V539H36V529H30V523H25V518H20V512H15V506H10V500H5H0V494V141H251Z"/>
</mask>
<path fill-rule="evenodd" clip-rule="evenodd" d="M251 141V494V500H246H241V506H236V512H231V518H226V523H221V529H215V539H200V531H192V539H176V531H168V539H152V531H144V539H128V531H120V539H104V531H96V539H80V531H72V539H56V531H48V539H36V529H30V523H25V518H20V512H15V506H10V500H5H0V494V141H251Z" fill="#FF6100"/>
<path d="M251 141H254V138H251V141ZM251 500V503H254V500H251ZM241 500V497H238V500H241ZM241 506V509H244V506H241ZM236 506V503H233V506H236ZM236 512V515H239V512H236ZM231 512V509H228V512H231ZM231 518V521H234V518H231ZM226 518V515H223V518H226ZM226 523V526H229V523H226ZM221 523V520H218V523H221ZM221 529V532H224V529H221ZM215 529V526H212V529H215ZM215 539V542H218V539H215ZM200 539H197V542H200V539ZM200 531H203V528H200V531ZM192 531V528H189V531H192ZM192 539V542H195V539H192ZM176 539H173V542H176V539ZM176 531H179V528H176V531ZM168 531V528H165V531H168ZM168 539V542H171V539H168ZM152 539H149V542H152V539ZM152 531H155V528H152V531ZM144 531V528H141V531H144ZM144 539V542H147V539H144ZM128 539H125V542H128V539ZM128 531H131V528H128V531ZM120 531V528H117V531H120ZM120 539V542H123V539H120ZM104 539H101V542H104V539ZM104 531H107V528H104V531ZM96 531V528H93V531H96ZM96 539V542H99V539H96ZM80 539H77V542H80V539ZM80 531H83V528H80V531ZM72 531V528H69V531H72ZM72 539V542H75V539H72ZM56 539H53V542H56V539ZM56 531H59V528H56V531ZM48 531V528H45V531H48ZM48 539V542H51V539H48ZM36 539H33V542H36V539ZM36 529H39V526H36V529ZM30 529H27V532H30V529ZM30 523H33V520H30V523ZM25 523H22V526H25V523ZM25 518H28V515H25V518ZM20 518H17V521H20V518ZM20 512H23V509H20V512ZM15 512H12V515H15V512ZM15 506H18V503H15V506ZM10 506H7V509H10V506ZM10 500H13V497H10V500ZM0 500H-3V503H0V500ZM0 141V138H-3V141H0ZM254 494V141H248V494H254ZM248 494V500H254V494H248ZM251 497H246V503H251V497ZM246 497H241V503H246V497ZM238 500V506H244V500H238ZM241 503H236V509H241V503ZM233 506V512H239V506H233ZM236 509H231V515H236V509ZM228 512V518H234V512H228ZM231 515H226V521H231V515ZM223 518V523H229V518H223ZM226 520H221V526H226V520ZM218 523V529H224V523H218ZM221 526H215V532H221V526ZM212 529V539H218V529H212ZM215 536H200V542H215V536ZM203 539V531H197V539H203ZM200 528H192V534H200V528ZM189 531V539H195V531H189ZM192 536H176V542H192V536ZM179 539V531H173V539H179ZM176 528H168V534H176V528ZM165 531V539H171V531H165ZM168 536H152V542H168V536ZM155 539V531H149V539H155ZM152 528H144V534H152V528ZM141 531V539H147V531H141ZM144 536H128V542H144V536ZM131 539V531H125V539H131ZM128 528H120V534H128V528ZM117 531V539H123V531H117ZM120 536H104V542H120V536ZM107 539V531H101V539H107ZM104 528H96V534H104V528ZM93 531V539H99V531H93ZM96 536H80V542H96V536ZM83 539V531H77V539H83ZM80 528H72V534H80V528ZM69 531V539H75V531H69ZM72 536H56V542H72V536ZM59 539V531H53V539H59ZM56 528H48V534H56V528ZM45 531V539H51V531H45ZM48 536H36V542H48V536ZM39 539V529H33V539H39ZM36 526H30V532H36V526ZM33 529V523H27V529H33ZM30 520H25V526H30V520ZM28 523V518H22V523H28ZM25 515H20V521H25V515ZM23 518V512H17V518H23ZM20 509H15V515H20V509ZM18 512V506H12V512H18ZM15 503H10V509H15V503ZM13 506V500H7V506H13ZM10 497H5V503H10V497ZM5 497H0V503H5V497ZM3 500V494H-3V500H3ZM-3 141V494H3V141H-3ZM251 138H0V144H251V138Z" fill="#3F3F3F" mask="url(#path-7-inside-4_2572_12256)"/>
<mask id="path-9-inside-5_2572_12256" fill="white">
<path fill-rule="evenodd" clip-rule="evenodd" d="M50.4064 146L201.594 146V154.446H206.661V159.514L210.884 159.514V163.737H215.108V168.805H219.331V173.872L223.554 173.872V178.94H227.777H232V184V184.008V481V486.068H227.777H223.554V491.135H219.331V496.203H215.108V501.271H210.884V505.494H206.661V510.562H201.594V519.008H50.4065L50.4064 510.562H45.3387L45.3387 505.494H41.1155V501.271H36.8924V496.203H32.6693L32.6693 491.135H28.4462V486.068H24.2231H20L20 481L20 184.008L20 178.94H24.2231H28.4462V173.872L32.6693 173.872L32.6693 168.805H36.8924V163.737H41.1155V159.514H45.3386L45.3386 154.446L50.4064 154.446L50.4064 146Z"/>
</mask>
<path fill-rule="evenodd" clip-rule="evenodd" d="M50.4064 146L201.594 146V154.446H206.661V159.514L210.884 159.514V163.737H215.108V168.805H219.331V173.872L223.554 173.872V178.94H227.777H232V184V184.008V481V486.068H227.777H223.554V491.135H219.331V496.203H215.108V501.271H210.884V505.494H206.661V510.562H201.594V519.008H50.4065L50.4064 510.562H45.3387L45.3387 505.494H41.1155V501.271H36.8924V496.203H32.6693L32.6693 491.135H28.4462V486.068H24.2231H20L20 481L20 184.008L20 178.94H24.2231H28.4462V173.872L32.6693 173.872L32.6693 168.805H36.8924V163.737H41.1155V159.514H45.3386L45.3386 154.446L50.4064 154.446L50.4064 146Z" fill="#F5EFEB"/>
<path d="M201.594 146H204.594V143L201.594 143V146ZM50.4064 146V143L47.4064 143L47.4064 146L50.4064 146ZM201.594 154.446H198.594V157.446H201.594V154.446ZM206.661 154.446H209.661V151.446H206.661V154.446ZM206.661 159.514H203.661V162.514H206.661V159.514ZM210.884 159.514H213.884V156.514L210.884 156.514V159.514ZM210.884 163.737H207.884V166.737H210.884V163.737ZM215.108 163.737H218.108V160.737H215.108V163.737ZM215.108 168.805H212.108V171.805H215.108V168.805ZM219.331 168.805H222.331V165.805H219.331V168.805ZM219.331 173.872H216.331V176.872L219.331 176.872V173.872ZM223.554 173.872H226.554V170.872L223.554 170.872V173.872ZM223.554 178.94H220.554V181.94H223.554V178.94ZM232 178.94H235V175.94H232V178.94ZM232 486.068V489.068H235V486.068H232ZM223.554 486.068V483.068H220.554V486.068H223.554ZM223.554 491.135V494.135H226.554V491.135H223.554ZM219.331 491.135V488.135H216.331V491.135H219.331ZM219.331 496.203V499.203H222.331V496.203H219.331ZM215.108 496.203V493.203H212.108V496.203H215.108ZM215.108 501.271V504.271H218.108V501.271H215.108ZM210.884 501.271V498.271H207.884V501.271H210.884ZM210.884 505.494V508.494H213.884V505.494H210.884ZM206.661 505.494V502.494H203.661V505.494H206.661ZM206.661 510.562V513.562H209.661V510.562H206.661ZM201.594 510.562V507.562H198.594V510.562H201.594ZM201.594 519.008V522.008H204.594V519.008H201.594ZM50.4065 519.008L47.4065 519.008L47.4065 522.008H50.4065V519.008ZM50.4064 510.562L53.4064 510.562L53.4063 507.562H50.4064V510.562ZM45.3387 510.562H42.3387L42.3387 513.562H45.3387V510.562ZM45.3387 505.494H48.3387L48.3387 502.494H45.3387V505.494ZM41.1155 505.494H38.1155V508.494H41.1155V505.494ZM41.1155 501.271H44.1155V498.271H41.1155V501.271ZM36.8924 501.271H33.8924V504.271H36.8924V501.271ZM36.8924 496.203H39.8924V493.203H36.8924V496.203ZM32.6693 496.203H29.6693L29.6693 499.203H32.6693V496.203ZM32.6693 491.135H35.6693L35.6693 488.135H32.6693V491.135ZM28.4462 491.135H25.4462V494.135H28.4462V491.135ZM28.4462 486.068H31.4462V483.068H28.4462V486.068ZM20 486.068H17L17 489.068H20V486.068ZM20 481H23H20ZM20 184.008H17H20ZM20 178.94V175.94H17L17 178.94H20ZM28.4462 178.94V181.94H31.4462V178.94H28.4462ZM28.4462 173.872L28.4462 170.872L25.4462 170.872V173.872H28.4462ZM32.6693 173.872L32.6693 176.872L35.6693 176.872L35.6693 173.872H32.6693ZM32.6693 168.805V165.805H29.6693L29.6693 168.805H32.6693ZM36.8924 168.805V171.805H39.8924V168.805H36.8924ZM36.8924 163.737V160.737H33.8924V163.737H36.8924ZM41.1155 163.737V166.737H44.1155V163.737H41.1155ZM41.1155 159.514V156.514H38.1155V159.514H41.1155ZM45.3386 159.514V162.514H48.3386L48.3386 159.514L45.3386 159.514ZM45.3386 154.446V151.446L42.3387 151.446L42.3386 154.446L45.3386 154.446ZM50.4064 154.446V157.446L53.4064 157.446L53.4064 154.446L50.4064 154.446ZM201.594 143L50.4064 143V149L201.594 149V143ZM204.594 154.446V146H198.594V154.446H204.594ZM206.661 151.446H201.594V157.446H206.661V151.446ZM209.661 159.514V154.446H203.661V159.514H209.661ZM210.884 156.514L206.661 156.514V162.514L210.884 162.514V156.514ZM213.884 163.737V159.514H207.884V163.737H213.884ZM215.108 160.737H210.884V166.737H215.108V160.737ZM218.108 168.805V163.737H212.108V168.805H218.108ZM219.331 165.805H215.108V171.805H219.331V165.805ZM222.331 173.872V168.805H216.331V173.872H222.331ZM223.554 170.872L219.331 170.872V176.872L223.554 176.872V170.872ZM226.554 178.94V173.872H220.554V178.94H226.554ZM227.777 175.94H223.554V181.94H227.777V175.94ZM232 175.94H227.777V181.94H232V175.94ZM235 184V178.94H229V184H235ZM235 184.008V184H229V184.008H235ZM235 481V184.008H229V481H235ZM235 486.068V481H229V486.068H235ZM227.777 489.068H232V483.068H227.777V489.068ZM223.554 489.068H227.777V483.068H223.554V489.068ZM226.554 491.135V486.068H220.554V491.135H226.554ZM219.331 494.135H223.554V488.135H219.331V494.135ZM222.331 496.203V491.135H216.331V496.203H222.331ZM215.108 499.203H219.331V493.203H215.108V499.203ZM218.108 501.271V496.203H212.108V501.271H218.108ZM210.884 504.271H215.108V498.271H210.884V504.271ZM213.884 505.494V501.271H207.884V505.494H213.884ZM206.661 508.494H210.884V502.494H206.661V508.494ZM209.661 510.562V505.494H203.661V510.562H209.661ZM201.594 513.562H206.661V507.562H201.594V513.562ZM204.594 519.008V510.562H198.594V519.008H204.594ZM50.4065 522.008H201.594V516.008H50.4065V522.008ZM47.4064 510.562L47.4065 519.008L53.4065 519.008L53.4064 510.562L47.4064 510.562ZM45.3387 513.562H50.4064V507.562H45.3387V513.562ZM42.3387 505.494L42.3387 510.562H48.3387L48.3387 505.494H42.3387ZM41.1155 508.494H45.3387V502.494H41.1155V508.494ZM38.1155 501.271V505.494H44.1155V501.271H38.1155ZM36.8924 504.271H41.1155V498.271H36.8924V504.271ZM33.8924 496.203V501.271H39.8924V496.203H33.8924ZM32.6693 499.203H36.8924V493.203H32.6693V499.203ZM29.6693 491.135L29.6693 496.203H35.6693L35.6693 491.135H29.6693ZM28.4462 494.135H32.6693V488.135H28.4462V494.135ZM25.4462 486.068V491.135H31.4462V486.068H25.4462ZM24.2231 489.068H28.4462V483.068H24.2231V489.068ZM20 489.068H24.2231V483.068H20V489.068ZM17 481L17 486.068H23L23 481H17ZM17 184.008L17 481H23L23 184.008H17ZM17 178.94L17 184.008H23L23 178.94H17ZM24.2231 175.94H20V181.94H24.2231V175.94ZM28.4462 175.94H24.2231V181.94H28.4462V175.94ZM25.4462 173.872V178.94H31.4462V173.872H25.4462ZM32.6693 170.872L28.4462 170.872L28.4462 176.872L32.6693 176.872L32.6693 170.872ZM29.6693 168.805L29.6693 173.872H35.6693L35.6693 168.805H29.6693ZM36.8924 165.805H32.6693V171.805H36.8924V165.805ZM33.8924 163.737V168.805H39.8924V163.737H33.8924ZM41.1155 160.737H36.8924V166.737H41.1155V160.737ZM38.1155 159.514V163.737H44.1155V159.514H38.1155ZM45.3386 156.514H41.1155V162.514H45.3386V156.514ZM42.3386 154.446L42.3386 159.514L48.3386 159.514L48.3386 154.446L42.3386 154.446ZM50.4064 151.446L45.3386 151.446V157.446L50.4064 157.446V151.446ZM47.4064 146L47.4064 154.446L53.4064 154.446L53.4064 146L47.4064 146Z" fill="#3F3F3F" mask="url(#path-9-inside-5_2572_12256)"/>
<path d="M79.272 424.256H106.76V430.592H102.952V427.2H82.888V430.144H79.272V424.256ZM102.664 416.768L105.192 419.328C98.568 420.704 88.968 421.28 80.872 421.408C80.808 420.608 80.456 419.328 80.136 418.624C88.04 418.464 97.352 417.856 102.664 416.768ZM83.208 422.016L86.248 420.768C86.984 421.6 87.784 422.848 88.072 423.712L84.84 425.088C84.616 424.224 83.912 422.944 83.208 422.016ZM90.152 421.664L93.192 420.544C93.896 421.44 94.568 422.688 94.792 423.584L91.56 424.768C91.368 423.904 90.76 422.592 90.152 421.664ZM98.088 429.824L100.648 428C102.504 429.344 104.744 431.392 105.736 432.896L102.984 434.944C102.056 433.472 99.912 431.296 98.088 429.824ZM89.864 427.968L91.72 426.016C93.32 426.656 95.368 427.712 96.392 428.576L94.472 430.72C93.48 429.856 91.528 428.672 89.864 427.968ZM100.2 419.744L103.976 420.96C102.792 422.656 101.576 424.384 100.584 425.504L97.704 424.416C98.568 423.104 99.656 421.152 100.2 419.744ZM99.464 435.744H100.232L100.84 435.648L103.272 437.248C99.048 443.584 90.024 446.048 80.296 447.008C79.976 446.112 79.016 444.544 78.344 443.808C87.816 443.232 96.296 441.216 99.464 436.288V435.744ZM83.72 434.496C87.88 440.032 96.552 442.72 107.88 443.328C107.112 444.224 106.184 445.856 105.736 446.88C94.184 445.952 85.736 442.688 80.712 435.712L83.72 434.496ZM89.704 433.184L93 434.336C90.344 437.664 85.896 440.32 81.832 441.92C81.256 441.248 79.976 439.968 79.24 439.392C83.4 438.112 87.528 435.904 89.704 433.184ZM87.144 428.608H90.664V430.816C90.664 431.552 90.888 431.616 91.976 431.616C92.456 431.616 94.664 431.616 95.336 431.616C96.136 431.616 96.328 431.424 96.456 430.112C97.128 430.56 98.472 430.976 99.368 431.136C99.048 433.632 98.152 434.272 95.752 434.272C94.984 434.272 92.232 434.272 91.496 434.272C87.976 434.272 87.144 433.504 87.144 430.848V428.608ZM83.976 428.288L86.856 429.536C86.184 431.392 85.128 433.376 83.432 434.624L80.744 432.608C82.216 431.616 83.368 429.92 83.976 428.288ZM88.872 435.744H100.232V438.528H86.088L88.872 435.744ZM118.408 425.984H122.408V440.896C122.408 442.432 122.664 442.656 124.232 442.656C124.968 442.656 127.944 442.656 128.808 442.656C130.44 442.656 130.696 441.664 130.92 436.64C131.816 437.312 133.512 437.984 134.536 438.272C134.12 444.352 133.064 446.24 129.096 446.24C128.2 446.24 124.584 446.24 123.752 446.24C119.56 446.24 118.408 444.992 118.408 440.896V425.984ZM112.616 427.872L116.36 428.576C115.912 432.768 115.144 438.336 114.056 441.984L110.12 440.384C111.272 436.992 112.2 432.16 112.616 427.872ZM132.552 428.288L136.136 426.848C137.96 430.656 139.624 435.488 140.296 438.816L136.424 440.416C135.88 437.152 134.248 432.064 132.552 428.288ZM119.496 419.936L122.12 417.312C125.032 419.168 129.096 421.984 131.048 423.968L128.2 426.976C126.44 424.992 122.504 421.952 119.496 419.936ZM161.064 441.312L163.88 439.392C166.312 440.704 169.576 442.72 171.272 444.224L168.232 446.368C166.76 444.928 163.56 442.752 161.064 441.312ZM146.312 431.776H167.688V434.688H146.312V431.776ZM142.504 436.032H171.528V439.072H142.504V436.032ZM142.952 417.888H170.888V420.896H142.952V417.888ZM148.872 439.328L152.392 440.544C150.568 442.816 147.656 445.056 145.16 446.432C144.552 445.728 143.144 444.448 142.312 443.872C144.808 442.784 147.4 441.088 148.872 439.328ZM148.392 425.344V427.712H165.416V425.344H148.392ZM144.84 422.592H169.224V430.496H144.84V422.592ZM151.592 419.04H155.112V429.376H151.592V419.04ZM158.472 419.04H162.056V429.376H158.472V419.04ZM155.048 436.832H158.856V446.912H155.048V436.832Z" fill="#3F3F3F"/>
<path d="M91.31 505V489.6H93.114L103.3 502.25H102.354V489.6H104.554V505H102.75L92.564 492.35H93.51V505H91.31ZM112.222 505V491.514H106.942V489.6H119.68V491.514H114.4V505H112.222ZM125.82 507.64V486.96H127.228V507.64H125.82ZM126.37 505.176C125.197 505.176 124.075 505 123.004 504.648C121.934 504.281 121.09 503.812 120.474 503.24L121.288 501.524C121.875 502.037 122.623 502.463 123.532 502.8C124.442 503.137 125.388 503.306 126.37 503.306C127.265 503.306 127.991 503.203 128.548 502.998C129.106 502.793 129.516 502.514 129.78 502.162C130.044 501.795 130.176 501.385 130.176 500.93C130.176 500.402 130 499.977 129.648 499.654C129.311 499.331 128.864 499.075 128.306 498.884C127.764 498.679 127.162 498.503 126.502 498.356C125.842 498.209 125.175 498.041 124.5 497.85C123.84 497.645 123.232 497.388 122.674 497.08C122.132 496.772 121.692 496.361 121.354 495.848C121.017 495.32 120.848 494.645 120.848 493.824C120.848 493.032 121.054 492.306 121.464 491.646C121.89 490.971 122.535 490.436 123.4 490.04C124.28 489.629 125.395 489.424 126.744 489.424C127.639 489.424 128.526 489.541 129.406 489.776C130.286 490.011 131.049 490.348 131.694 490.788L130.968 492.548C130.308 492.108 129.612 491.793 128.878 491.602C128.145 491.397 127.434 491.294 126.744 491.294C125.879 491.294 125.168 491.404 124.61 491.624C124.053 491.844 123.642 492.137 123.378 492.504C123.129 492.871 123.004 493.281 123.004 493.736C123.004 494.279 123.173 494.711 123.51 495.034C123.862 495.357 124.31 495.613 124.852 495.804C125.41 495.995 126.018 496.171 126.678 496.332C127.338 496.479 127.998 496.647 128.658 496.838C129.333 497.029 129.942 497.278 130.484 497.586C131.042 497.894 131.489 498.305 131.826 498.818C132.164 499.331 132.332 499.991 132.332 500.798C132.332 501.575 132.12 502.301 131.694 502.976C131.269 503.636 130.609 504.171 129.714 504.582C128.834 504.978 127.72 505.176 126.37 505.176ZM139.981 501.216V499.676L147.857 489.6H150.233L142.423 499.676L141.301 499.324H153.599V501.216H139.981ZM148.539 505V501.216L148.605 499.324V495.98H150.673V505H148.539ZM161.209 505.176C160.007 505.176 158.929 504.868 157.975 504.252C157.037 503.636 156.289 502.741 155.731 501.568C155.189 500.395 154.917 498.972 154.917 497.3C154.917 495.628 155.189 494.205 155.731 493.032C156.289 491.859 157.037 490.964 157.975 490.348C158.929 489.732 160.007 489.424 161.209 489.424C162.397 489.424 163.468 489.732 164.421 490.348C165.375 490.964 166.123 491.859 166.665 493.032C167.208 494.205 167.479 495.628 167.479 497.3C167.479 498.972 167.208 500.395 166.665 501.568C166.123 502.741 165.375 503.636 164.421 504.252C163.468 504.868 162.397 505.176 161.209 505.176ZM161.209 503.218C162.016 503.218 162.72 502.998 163.321 502.558C163.937 502.118 164.414 501.458 164.751 500.578C165.103 499.698 165.279 498.605 165.279 497.3C165.279 495.995 165.103 494.902 164.751 494.022C164.414 493.142 163.937 492.482 163.321 492.042C162.72 491.602 162.016 491.382 161.209 491.382C160.403 491.382 159.691 491.602 159.075 492.042C158.459 492.482 157.975 493.142 157.623 494.022C157.286 494.902 157.117 495.995 157.117 497.3C157.117 498.605 157.286 499.698 157.623 500.578C157.975 501.458 158.459 502.118 159.075 502.558C159.691 502.998 160.403 503.218 161.209 503.218Z" fill="#3F3F3F"/>
<path d="M53.524 476.176C52.16 476.176 50.994 475.875 50.026 475.274C49.058 474.673 48.3173 473.807 47.804 472.678C47.3053 471.534 47.056 470.141 47.056 468.498C47.056 466.753 47.364 465.279 47.98 464.076C48.596 462.873 49.454 461.964 50.554 461.348C51.654 460.732 52.9153 460.424 54.338 460.424C55.0713 460.424 55.768 460.497 56.428 460.644C57.1027 460.791 57.682 461.018 58.166 461.326L57.33 463.042C56.934 462.763 56.4793 462.573 55.966 462.47C55.4673 462.367 54.9393 462.316 54.382 462.316C52.8127 462.316 51.566 462.807 50.642 463.79C49.718 464.758 49.256 466.203 49.256 468.124C49.256 468.432 49.2707 468.799 49.3 469.224C49.3293 469.649 49.4027 470.067 49.52 470.478L48.772 469.73C48.992 469.055 49.3367 468.491 49.806 468.036C50.29 467.567 50.862 467.222 51.522 467.002C52.1967 466.767 52.9227 466.65 53.7 466.65C54.7267 466.65 55.636 466.841 56.428 467.222C57.22 467.603 57.8433 468.146 58.298 468.85C58.7527 469.539 58.98 470.361 58.98 471.314C58.98 472.297 58.738 473.155 58.254 473.888C57.77 474.621 57.1173 475.186 56.296 475.582C55.4747 475.978 54.5507 476.176 53.524 476.176ZM53.436 474.394C54.1107 474.394 54.6973 474.269 55.196 474.02C55.7093 473.771 56.1127 473.426 56.406 472.986C56.6993 472.531 56.846 472.003 56.846 471.402C56.846 470.493 56.5307 469.774 55.9 469.246C55.2693 468.703 54.4113 468.432 53.326 468.432C52.622 468.432 52.006 468.564 51.478 468.828C50.95 469.092 50.532 469.451 50.224 469.906C49.9307 470.346 49.784 470.852 49.784 471.424C49.784 471.952 49.9233 472.443 50.202 472.898C50.4807 473.338 50.8913 473.697 51.434 473.976C51.9767 474.255 52.644 474.394 53.436 474.394ZM65.6061 476.176C64.5208 476.176 63.4648 476.007 62.4381 475.67C61.4261 475.333 60.5975 474.878 59.9521 474.306L60.9641 472.568C61.4775 473.052 62.1448 473.448 62.9661 473.756C63.7875 474.064 64.6601 474.218 65.5841 474.218C66.7575 474.218 67.6595 473.969 68.2901 473.47C68.9208 472.971 69.2361 472.304 69.2361 471.468C69.2361 470.896 69.0968 470.397 68.8181 469.972C68.5395 469.547 68.0555 469.224 67.3661 469.004C66.6915 468.769 65.7601 468.652 64.5721 468.652H61.0741L61.8881 460.6H70.5781V462.514H62.7021L63.8461 461.436L63.2081 467.794L62.0641 466.738H65.0341C66.5741 466.738 67.8135 466.936 68.7521 467.332C69.6908 467.728 70.3728 468.278 70.7981 468.982C71.2235 469.671 71.4361 470.471 71.4361 471.38C71.4361 472.26 71.2235 473.067 70.7981 473.8C70.3728 474.519 69.7275 475.098 68.8621 475.538C68.0115 475.963 66.9261 476.176 65.6061 476.176ZM84.8609 463.482H86.7749C86.7896 465.213 86.9143 466.833 87.1489 468.344C87.3983 469.855 87.7136 471.175 88.0949 472.304C88.4909 473.433 88.9309 474.321 89.4149 474.966C89.8989 475.597 90.3976 475.912 90.9109 475.912C91.1603 475.912 91.3436 475.692 91.4609 475.252C91.5783 474.797 91.6589 474.057 91.7029 473.03C91.9083 473.221 92.1576 473.404 92.4509 473.58C92.7443 473.756 93.0083 473.881 93.2429 473.954C93.1549 474.937 93.0156 475.699 92.8249 476.242C92.6343 476.799 92.3703 477.188 92.0329 477.408C91.7103 477.628 91.2923 477.738 90.7789 477.738C90.0749 477.738 89.4223 477.496 88.8209 477.012C88.2196 476.528 87.6843 475.846 87.2149 474.966C86.7603 474.071 86.3643 473.03 86.0269 471.842C85.6896 470.654 85.4183 469.356 85.2129 467.948C85.0223 466.525 84.9049 465.037 84.8609 463.482ZM87.6109 464.384L88.6449 463.416C89.0996 463.607 89.5763 463.849 90.0749 464.142C90.5736 464.421 90.9623 464.685 91.2409 464.934L90.1629 465.99C89.8989 465.741 89.5176 465.462 89.0189 465.154C88.5349 464.846 88.0656 464.589 87.6109 464.384ZM89.6129 468.19L91.5049 468.608C90.7716 470.691 89.7596 472.509 88.4689 474.064C87.1783 475.619 85.6896 476.887 84.0029 477.87C83.9003 477.753 83.7609 477.599 83.5849 477.408C83.4236 477.232 83.2476 477.049 83.0569 476.858C82.8809 476.682 82.7269 476.543 82.5949 476.44C84.2376 475.604 85.6603 474.482 86.8629 473.074C88.0803 471.666 88.9969 470.038 89.6129 468.19ZM78.0409 470.676L79.5369 470.984C79.3609 471.673 79.1043 472.341 78.7669 472.986C78.4443 473.631 78.0849 474.181 77.6889 474.636C77.5423 474.519 77.3369 474.372 77.0729 474.196C76.8089 474.02 76.5889 473.881 76.4129 473.778C76.7943 473.367 77.1243 472.891 77.4029 472.348C77.6816 471.805 77.8943 471.248 78.0409 470.676ZM75.7089 465.638H92.7589V467.376H75.7089V465.638ZM77.4909 468.454H84.3549V469.906H77.4909V468.454ZM73.4649 462.228H92.9789V463.966H73.4649V462.228ZM83.6289 459.17H91.0209V460.732H83.6289V459.17ZM74.6309 465.638H76.5669V469.4C76.5669 470.031 76.5376 470.72 76.4789 471.468C76.4349 472.201 76.3396 472.949 76.1929 473.712C76.0609 474.475 75.8703 475.215 75.6209 475.934C75.3716 476.653 75.0416 477.313 74.6309 477.914C74.5136 477.811 74.3449 477.694 74.1249 477.562C73.9049 477.43 73.6849 477.298 73.4649 477.166C73.2449 477.049 73.0543 476.961 72.8929 476.902C73.4209 476.169 73.8023 475.362 74.0369 474.482C74.2863 473.587 74.4476 472.7 74.5209 471.82C74.5943 470.94 74.6309 470.126 74.6309 469.378V465.638ZM82.4849 457.432H84.5089V463.086H82.4849V457.432ZM76.8969 458.422H78.8329V463.13H76.8969V458.422ZM83.2989 470.852L84.9709 471.094C84.4723 472.663 83.5923 474.035 82.3309 475.208C81.0696 476.367 79.5003 477.225 77.6229 477.782C77.5349 477.606 77.3956 477.393 77.2049 477.144C77.0289 476.895 76.8676 476.704 76.7209 476.572C78.4663 476.088 79.9109 475.347 81.0549 474.35C82.2136 473.338 82.9616 472.172 83.2989 470.852ZM80.1309 469.444H81.8249V474.218H80.1309V469.444ZM102.087 461.04L103.979 460.116C104.463 460.644 104.932 461.223 105.387 461.854C105.842 462.485 106.252 463.108 106.619 463.724C106.986 464.34 107.272 464.897 107.477 465.396L105.453 466.496C105.277 465.983 105.006 465.411 104.639 464.78C104.287 464.135 103.891 463.489 103.451 462.844C103.011 462.184 102.556 461.583 102.087 461.04ZM94.8929 473.228C95.6556 472.949 96.5283 472.612 97.5109 472.216C98.4936 471.82 99.5349 471.395 100.635 470.94C101.75 470.471 102.85 470.001 103.935 469.532L104.419 471.578C103.407 472.018 102.38 472.473 101.339 472.942C100.312 473.397 99.3076 473.837 98.3249 474.262C97.3569 474.673 96.4623 475.054 95.6409 475.406L94.8929 473.228ZM107.961 470.742L109.567 469.312C110.08 469.825 110.623 470.383 111.195 470.984C111.782 471.571 112.354 472.172 112.911 472.788C113.468 473.404 113.989 473.998 114.473 474.57C114.957 475.142 115.353 475.663 115.661 476.132L113.901 477.804C113.593 477.335 113.212 476.807 112.757 476.22C112.302 475.633 111.804 475.025 111.261 474.394C110.718 473.749 110.161 473.118 109.589 472.502C109.032 471.871 108.489 471.285 107.961 470.742ZM110.997 458.62L113.285 458.84C113.006 461.363 112.61 463.621 112.097 465.616C111.598 467.611 110.924 469.385 110.073 470.94C109.222 472.48 108.144 473.822 106.839 474.966C105.548 476.11 103.964 477.085 102.087 477.892C101.999 477.745 101.852 477.555 101.647 477.32C101.442 477.1 101.229 476.873 101.009 476.638C100.804 476.403 100.613 476.213 100.437 476.066C102.27 475.391 103.81 474.541 105.057 473.514C106.304 472.487 107.323 471.263 108.115 469.84C108.922 468.417 109.545 466.782 109.985 464.934C110.44 463.071 110.777 460.967 110.997 458.62ZM97.4889 458.686L99.6669 458.598L100.107 473.052L97.9289 473.118L97.4889 458.686ZM126.573 464.318H135.659V466.408H126.573V464.318ZM117.267 474.702H137.177V476.792H117.267V474.702ZM125.385 457.74H127.607V475.824H125.385V457.74ZM154.315 459.544H156.493V475.054C156.493 475.729 156.398 476.249 156.207 476.616C156.016 476.983 155.686 477.254 155.217 477.43C154.733 477.621 154.095 477.731 153.303 477.76C152.511 477.804 151.565 477.826 150.465 477.826C150.421 477.606 150.348 477.357 150.245 477.078C150.157 476.814 150.054 476.543 149.937 476.264C149.82 476 149.702 475.773 149.585 475.582C150.157 475.611 150.714 475.633 151.257 475.648C151.814 475.648 152.306 475.648 152.731 475.648C153.171 475.648 153.479 475.648 153.655 475.648C153.89 475.633 154.058 475.589 154.161 475.516C154.264 475.428 154.315 475.267 154.315 475.032V459.544ZM141.533 463.944H143.557V474.042H141.533V463.944ZM142.391 463.944H150.707V472.304H142.391V470.324H148.639V465.924H142.391V463.944ZM139.355 458.95H159.133V461.04H139.355V458.95ZM167.383 459.742H181.441V461.656H167.383V459.742ZM169.847 465.264V468.058H178.779V465.264H169.847ZM167.933 463.526H180.781V469.796H167.933V463.526ZM169.627 470.148C170.302 471.263 171.218 472.223 172.377 473.03C173.536 473.822 174.907 474.467 176.491 474.966C178.075 475.45 179.813 475.795 181.705 476C181.573 476.147 181.426 476.33 181.265 476.55C181.104 476.77 180.95 476.99 180.803 477.21C180.671 477.445 180.561 477.665 180.473 477.87C178.522 477.591 176.74 477.144 175.127 476.528C173.528 475.927 172.12 475.142 170.903 474.174C169.7 473.206 168.703 472.047 167.911 470.698L169.627 470.148ZM173.235 457.542H175.303V467.398C175.303 468.278 175.252 469.136 175.149 469.972C175.046 470.808 174.848 471.622 174.555 472.414C174.262 473.191 173.836 473.925 173.279 474.614C172.736 475.289 172.018 475.905 171.123 476.462C170.228 477.019 169.121 477.496 167.801 477.892C167.713 477.731 167.596 477.54 167.449 477.32C167.302 477.115 167.148 476.902 166.987 476.682C166.826 476.477 166.672 476.301 166.525 476.154C167.786 475.861 168.828 475.487 169.649 475.032C170.47 474.563 171.123 474.042 171.607 473.47C172.091 472.898 172.45 472.282 172.685 471.622C172.92 470.962 173.066 470.28 173.125 469.576C173.198 468.857 173.235 468.131 173.235 467.398V457.542ZM166.107 457.366L168.043 458.004C167.544 459.236 166.958 460.468 166.283 461.7C165.623 462.917 164.904 464.069 164.127 465.154C163.35 466.225 162.543 467.171 161.707 467.992C161.648 467.816 161.553 467.596 161.421 467.332C161.289 467.068 161.15 466.804 161.003 466.54C160.856 466.276 160.717 466.056 160.585 465.88C161.318 465.191 162.022 464.399 162.697 463.504C163.386 462.595 164.024 461.619 164.611 460.578C165.198 459.522 165.696 458.451 166.107 457.366ZM163.863 463.284L165.843 461.304L165.865 461.326V477.936H163.863V463.284ZM186.655 458.95H200.581V460.93H186.655V458.95ZM186.655 464.054H200.581V465.99H186.655V464.054ZM186.567 469.268H200.647V471.248H186.567V469.268ZM185.467 458.95H187.535V466.892C187.535 467.743 187.491 468.659 187.403 469.642C187.33 470.625 187.19 471.622 186.985 472.634C186.78 473.631 186.472 474.592 186.061 475.516C185.665 476.425 185.13 477.247 184.455 477.98C184.352 477.833 184.198 477.672 183.993 477.496C183.802 477.32 183.597 477.151 183.377 476.99C183.172 476.829 182.988 476.704 182.827 476.616C183.443 475.927 183.927 475.186 184.279 474.394C184.631 473.587 184.888 472.759 185.049 471.908C185.225 471.043 185.335 470.185 185.379 469.334C185.438 468.469 185.467 467.647 185.467 466.87V458.95ZM199.789 458.95H201.857V475.23C201.857 475.831 201.776 476.293 201.615 476.616C201.454 476.953 201.175 477.21 200.779 477.386C200.383 477.547 199.848 477.643 199.173 477.672C198.498 477.716 197.64 477.731 196.599 477.716C196.57 477.452 196.482 477.122 196.335 476.726C196.203 476.33 196.064 475.993 195.917 475.714C196.386 475.743 196.848 475.765 197.303 475.78C197.758 475.78 198.154 475.78 198.491 475.78C198.843 475.765 199.085 475.758 199.217 475.758C199.437 475.758 199.584 475.721 199.657 475.648C199.745 475.56 199.789 475.413 199.789 475.208V458.95ZM192.331 459.72H194.421V477.628H192.331V459.72Z" fill="#3F3F3F"/>
<rect x="3" y="139" width="245" height="7" fill="#FF6100"/>
<mask id="path-15-inside-6_2572_12256" fill="white">
<path fill-rule="evenodd" clip-rule="evenodd" d="M155.327 244V231H143.997H141.996H132.645H130.643H121.313H119.314H109.997H107.994H96.666V238H85.3301V249.666V251.319V261.014V263.021V272.008H76.001H74.002H64.6473H62.6465H51.3281V278.666H41V289.998V291.997V300.998V303.329V314.353H51.3281V319.36H62.6465V330.997H74.002H76.001H85.3301H87.3329H96.666V336.997H107.994H109.997H119.314H121.313H130.643V349.327H141.996H143.997H153.334H155.327H164.662H166.665H177.993V336.997H187.309H189.309H199H200.675H212.319V325.36V323.678V314.337V312.006V303.005V301.006V291.339V289.674V278.008H200.675V267.014H189.309H187.309H177.993H175.99H166.665V257.319V255.666V244H155.327Z"/>
</mask>
<path fill-rule="evenodd" clip-rule="evenodd" d="M155.327 244V231H143.997H141.996H132.645H130.643H121.313H119.314H109.997H107.994H96.666V238H85.3301V249.666V251.319V261.014V263.021V272.008H76.001H74.002H64.6473H62.6465H51.3281V278.666H41V289.998V291.997V300.998V303.329V314.353H51.3281V319.36H62.6465V330.997H74.002H76.001H85.3301H87.3329H96.666V336.997H107.994H109.997H119.314H121.313H130.643V349.327H141.996H143.997H153.334H155.327H164.662H166.665H177.993V336.997H187.309H189.309H199H200.675H212.319V325.36V323.678V314.337V312.006V303.005V301.006V291.339V289.674V278.008H200.675V267.014H189.309H187.309H177.993H175.99H166.665V257.319V255.666V244H155.327Z" fill="#FF6100"/>
<path d="M155.327 231H158.327V228H155.327V231ZM155.327 244H152.327V247H155.327V244ZM96.666 231V228H93.666V231H96.666ZM96.666 238V241H99.666V238H96.666ZM85.3301 238V235H82.3301V238H85.3301ZM85.3301 272.008V275.008H88.3301V272.008H85.3301ZM51.3281 272.008V269.008H48.3281V272.008H51.3281ZM51.3281 278.666V281.666H54.3281V278.666H51.3281ZM41 278.666V275.666H38V278.666H41ZM41 314.353H38V317.353H41V314.353ZM51.3281 314.353H54.3281V311.353H51.3281V314.353ZM51.3281 319.36H48.3281V322.36H51.3281V319.36ZM62.6465 319.36H65.6465V316.36H62.6465V319.36ZM62.6465 330.997H59.6465V333.997H62.6465V330.997ZM96.666 330.997H99.666V327.997H96.666V330.997ZM96.666 336.997H93.666V339.997H96.666V336.997ZM130.643 336.997H133.643V333.997H130.643V336.997ZM130.643 349.327H127.643V352.327H130.643V349.327ZM177.993 349.327V352.327H180.993V349.327H177.993ZM177.993 336.997V333.997H174.993V336.997H177.993ZM212.319 336.997V339.997H215.319V336.997H212.319ZM212.319 278.008H215.319V275.008H212.319V278.008ZM200.675 278.008H197.675V281.008H200.675V278.008ZM200.675 267.014H203.675V264.014H200.675V267.014ZM166.665 267.014H163.665V270.014H166.665V267.014ZM166.665 244H169.665V241H166.665V244ZM152.327 231V244H158.327V231H152.327ZM143.997 234H155.327V228H143.997V234ZM141.996 234H143.997V228H141.996V234ZM132.645 234H141.996V228H132.645V234ZM130.643 234H132.645V228H130.643V234ZM121.313 234H130.643V228H121.313V234ZM119.314 234H121.313V228H119.314V234ZM109.997 234H119.314V228H109.997V234ZM107.994 234H109.997V228H107.994V234ZM96.666 234H107.994V228H96.666V234ZM99.666 238V231H93.666V238H99.666ZM85.3301 241H96.666V235H85.3301V241ZM88.3301 249.666V238H82.3301V249.666H88.3301ZM88.3301 251.319V249.666H82.3301V251.319H88.3301ZM88.3301 261.014V251.319H82.3301V261.014H88.3301ZM88.3301 263.021V261.014H82.3301V263.021H88.3301ZM88.3301 272.008V263.021H82.3301V272.008H88.3301ZM76.001 275.008H85.3301V269.008H76.001V275.008ZM74.002 275.008H76.001V269.008H74.002V275.008ZM64.6473 275.008H74.002V269.008H64.6473V275.008ZM62.6465 275.008H64.6473V269.008H62.6465V275.008ZM51.3281 275.008H62.6465V269.008H51.3281V275.008ZM54.3281 278.666V272.008H48.3281V278.666H54.3281ZM41 281.666H51.3281V275.666H41V281.666ZM44 289.998V278.666H38V289.998H44ZM44 291.997V289.998H38V291.997H44ZM44 300.998V291.997H38V300.998H44ZM44 303.329V300.998H38V303.329H44ZM44 314.353V303.329H38V314.353H44ZM51.3281 311.353H41V317.353H51.3281V311.353ZM54.3281 319.36V314.353H48.3281V319.36H54.3281ZM62.6465 316.36H51.3281V322.36H62.6465V316.36ZM65.6465 330.997V319.36H59.6465V330.997H65.6465ZM74.002 327.997H62.6465V333.997H74.002V327.997ZM76.001 327.997H74.002V333.997H76.001V327.997ZM85.3301 327.997H76.001V333.997H85.3301V327.997ZM87.3329 327.997H85.3301V333.997H87.3329V327.997ZM96.666 327.997H87.3329V333.997H96.666V327.997ZM99.666 336.997V330.997H93.666V336.997H99.666ZM107.994 333.997H96.666V339.997H107.994V333.997ZM109.997 333.997H107.994V339.997H109.997V333.997ZM119.314 333.997H109.997V339.997H119.314V333.997ZM121.313 333.997H119.314V339.997H121.313V333.997ZM130.643 333.997H121.313V339.997H130.643V333.997ZM133.643 349.327V336.997H127.643V349.327H133.643ZM141.996 346.327H130.643V352.327H141.996V346.327ZM143.997 346.327H141.996V352.327H143.997V346.327ZM153.334 346.327H143.997V352.327H153.334V346.327ZM155.327 346.327H153.334V352.327H155.327V346.327ZM164.662 346.327H155.327V352.327H164.662V346.327ZM166.665 346.327H164.662V352.327H166.665V346.327ZM177.993 346.327H166.665V352.327H177.993V346.327ZM174.993 336.997V349.327H180.993V336.997H174.993ZM187.309 333.997H177.993V339.997H187.309V333.997ZM189.309 333.997H187.309V339.997H189.309V333.997ZM199 333.997H189.309V339.997H199V333.997ZM200.675 333.997H199V339.997H200.675V333.997ZM212.319 333.997H200.675V339.997H212.319V333.997ZM209.319 325.36V336.997H215.319V325.36H209.319ZM209.319 323.678V325.36H215.319V323.678H209.319ZM209.319 314.337V323.678H215.319V314.337H209.319ZM209.319 312.006V314.337H215.319V312.006H209.319ZM209.319 303.005V312.006H215.319V303.005H209.319ZM209.319 301.006V303.005H215.319V301.006H209.319ZM209.319 291.339V301.006H215.319V291.339H209.319ZM209.319 289.674V291.339H215.319V289.674H209.319ZM209.319 278.008V289.674H215.319V278.008H209.319ZM200.675 281.008H212.319V275.008H200.675V281.008ZM197.675 267.014V278.008H203.675V267.014H197.675ZM189.309 270.014H200.675V264.014H189.309V270.014ZM187.309 270.014H189.309V264.014H187.309V270.014ZM177.993 270.014H187.309V264.014H177.993V270.014ZM175.99 270.014H177.993V264.014H175.99V270.014ZM166.665 270.014H175.99V264.014H166.665V270.014ZM163.665 257.319V267.014H169.665V257.319H163.665ZM163.665 255.666V257.319H169.665V255.666H163.665ZM163.665 244V255.666H169.665V244H163.665ZM155.327 247H166.665V241H155.327V247Z" fill="#3F3F3F" mask="url(#path-15-inside-6_2572_12256)"/>
</svg>
