<svg width="251" height="539" viewBox="0 0 251 539" fill="none" xmlns="http://www.w3.org/2000/svg">
<mask id="path-1-inside-1_2572_12254" fill="white">
<path fill-rule="evenodd" clip-rule="evenodd" d="M36 0H48V8H56V0H72V8H80V0H96V8H104V0H120V8H128V0H144V8H152V0H168V8H176V0H192V8H200V0H215V10H221V16H226V21H231V27H236V33H241V39H246H251V44.9971V45V143.997H0V45V44.9971V39H5H10V33H15V27H20V21H25V16H30V10H36V0Z"/>
</mask>
<path fill-rule="evenodd" clip-rule="evenodd" d="M36 0H48V8H56V0H72V8H80V0H96V8H104V0H120V8H128V0H144V8H152V0H168V8H176V0H192V8H200V0H215V10H221V16H226V21H231V27H236V33H241V39H246H251V44.9971V45V143.997H0V45V44.9971V39H5H10V33H15V27H20V21H25V16H30V10H36V0Z" fill="#11A729"/>
<path d="M48 0H51V-3H48V0ZM36 0V-3H33V0H36ZM48 8H45V11H48V8ZM56 8V11H59V8H56ZM56 0V-3H53V0H56ZM72 0H75V-3H72V0ZM72 8H69V11H72V8ZM80 8V11H83V8H80ZM80 0V-3H77V0H80ZM96 0H99V-3H96V0ZM96 8H93V11H96V8ZM104 8V11H107V8H104ZM104 0V-3H101V0H104ZM120 0H123V-3H120V0ZM120 8H117V11H120V8ZM128 8V11H131V8H128ZM128 0V-3H125V0H128ZM144 0H147V-3H144V0ZM144 8H141V11H144V8ZM152 8V11H155V8H152ZM152 0V-3H149V0H152ZM168 0H171V-3H168V0ZM168 8H165V11H168V8ZM176 8V11H179V8H176ZM176 0V-3H173V0H176ZM192 0H195V-3H192V0ZM192 8H189V11H192V8ZM200 8V11H203V8H200ZM200 0V-3H197V0H200ZM215 0H218V-3H215V0ZM215 10H212V13H215V10ZM221 10H224V7H221V10ZM221 16H218V19H221V16ZM226 16H229V13H226V16ZM226 21H223V24H226V21ZM231 21H234V18H231V21ZM231 27H228V30H231V27ZM236 27H239V24H236V27ZM236 33H233V36H236V33ZM241 33H244V30H241V33ZM241 39H238V42H241V39ZM251 39H254V36H251V39ZM251 143.997V146.997H254V143.997H251ZM0 143.997H-3V146.997H0V143.997ZM0 39V36H-3V39H0ZM10 39V42H13V39H10ZM10 33V30H7V33H10ZM15 33V36H18V33H15ZM15 27V24H12V27H15ZM20 27V30H23V27H20ZM20 21V18H17V21H20ZM25 21V24H28V21H25ZM25 16V13H22V16H25ZM30 16V19H33V16H30ZM30 10V7H27V10H30ZM36 10V13H39V10H36ZM48 -3H36V3H48V-3ZM51 8V0H45V8H51ZM56 5H48V11H56V5ZM53 0V8H59V0H53ZM72 -3H56V3H72V-3ZM75 8V0H69V8H75ZM80 5H72V11H80V5ZM77 0V8H83V0H77ZM96 -3H80V3H96V-3ZM99 8V0H93V8H99ZM104 5H96V11H104V5ZM101 0V8H107V0H101ZM120 -3H104V3H120V-3ZM123 8V0H117V8H123ZM128 5H120V11H128V5ZM125 0V8H131V0H125ZM144 -3H128V3H144V-3ZM147 8V0H141V8H147ZM152 5H144V11H152V5ZM149 0V8H155V0H149ZM168 -3H152V3H168V-3ZM171 8V0H165V8H171ZM176 5H168V11H176V5ZM173 0V8H179V0H173ZM192 -3H176V3H192V-3ZM195 8V0H189V8H195ZM200 5H192V11H200V5ZM197 0V8H203V0H197ZM215 -3H200V3H215V-3ZM218 10V0H212V10H218ZM221 7H215V13H221V7ZM224 16V10H218V16H224ZM226 13H221V19H226V13ZM229 21V16H223V21H229ZM231 18H226V24H231V18ZM234 27V21H228V27H234ZM236 24H231V30H236V24ZM239 33V27H233V33H239ZM241 30H236V36H241V30ZM244 39V33H238V39H244ZM246 36H241V42H246V36ZM251 36H246V42H251V36ZM254 44.9971V39H248V44.9971H254ZM254 45V44.9971H248V45H254ZM254 143.997V45H248V143.997H254ZM0 146.997H251V140.997H0V146.997ZM-3 45V143.997H3V45H-3ZM-3 44.9971V45H3V44.9971H-3ZM-3 39V44.9971H3V39H-3ZM5 36H0V42H5V36ZM10 36H5V42H10V36ZM7 33V39H13V33H7ZM15 30H10V36H15V30ZM12 27V33H18V27H12ZM20 24H15V30H20V24ZM17 21V27H23V21H17ZM25 18H20V24H25V18ZM22 16V21H28V16H22ZM30 13H25V19H30V13ZM27 10V16H33V10H27ZM36 7H30V13H36V7ZM33 0V10H39V0H33Z" fill="#3F3F3F" mask="url(#path-1-inside-1_2572_12254)"/>
<mask id="path-3-inside-2_2572_12254" fill="white">
<path fill-rule="evenodd" clip-rule="evenodd" d="M20 52.9339L24.2231 52.9339H28.4462V47.8662L32.6693 47.8662L32.6693 42.7984L36.8924 42.7984L36.8924 37.7307H41V34H46V28H51V20L201 20V28.4384L206.068 28.4384L206.068 33.5061H210.291V37.7293H214.514V42.797H218.737V47.8647L222.96 47.8647V52.9324H227.183H231.406V57.0001H231.41V102H231.406V106.068H227.183H222.96V111.136H218.737V116.203H214.514V121.271H210.291V125.494H206.068L206.068 130.562L201 130.562V139L51 139V131H46V125H41V121.27H36.8924L36.8924 116.202H32.6693L32.6693 111.134H28.4462V106.066H24.2231H20L20 102V57.0001L20 52.9339Z"/>
</mask>
<path fill-rule="evenodd" clip-rule="evenodd" d="M20 52.9339L24.2231 52.9339H28.4462V47.8662L32.6693 47.8662L32.6693 42.7984L36.8924 42.7984L36.8924 37.7307H41V34H46V28H51V20L201 20V28.4384L206.068 28.4384L206.068 33.5061H210.291V37.7293H214.514V42.797H218.737V47.8647L222.96 47.8647V52.9324H227.183H231.406V57.0001H231.41V102H231.406V106.068H227.183H222.96V111.136H218.737V116.203H214.514V121.271H210.291V125.494H206.068L206.068 130.562L201 130.562V139L51 139V131H46V125H41V121.27H36.8924L36.8924 116.202H32.6693L32.6693 111.134H28.4462V106.066H24.2231H20L20 102V57.0001L20 52.9339Z" fill="#F5EFEB"/>
<path d="M24.2231 52.9339V49.9339H24.2231L24.2231 52.9339ZM20 52.9339L20 49.9339L17 49.9339L17 52.9339H20ZM28.4462 52.9339V55.9339H31.4462V52.9339H28.4462ZM28.4462 47.8662L28.4462 44.8662L25.4462 44.8662V47.8662H28.4462ZM32.6693 47.8662L32.6693 50.8662L35.6693 50.8662L35.6693 47.8662H32.6693ZM32.6693 42.7984L32.6693 39.7984L29.6693 39.7984L29.6693 42.7984H32.6693ZM36.8924 42.7984L36.8924 45.7984L39.8924 45.7984L39.8924 42.7984L36.8924 42.7984ZM36.8924 37.7307V34.7307H33.8924L33.8924 37.7307L36.8924 37.7307ZM41 37.7307V40.7307H44V37.7307H41ZM41 34V31H38V34H41ZM46 34V37H49V34H46ZM46 28V25H43V28H46ZM51 28V31H54V28H51ZM51 20V17L48 17V20H51ZM201 20H204V17L201 17V20ZM201 28.4384H198V31.4384L201 31.4384V28.4384ZM206.068 28.4384L209.068 28.4384L209.068 25.4384L206.068 25.4384V28.4384ZM206.068 33.5061L203.068 33.5062L203.068 36.5061H206.068V33.5061ZM210.291 33.5061H213.291V30.5061H210.291V33.5061ZM210.291 37.7293H207.291V40.7293H210.291V37.7293ZM214.514 37.7293H217.514V34.7293H214.514V37.7293ZM214.514 42.797H211.514V45.797H214.514V42.797ZM218.737 42.797H221.737V39.797H218.737V42.797ZM218.737 47.8647H215.737V50.8647L218.737 50.8647V47.8647ZM222.96 47.8647H225.96V44.8647L222.96 44.8647V47.8647ZM222.96 52.9324H219.96V55.9324H222.96V52.9324ZM231.406 52.9324H234.406V49.9324H231.406V52.9324ZM231.406 57.0001H228.406V60.0001H231.406V57.0001ZM231.41 57.0001H234.41V54.0001H231.41V57.0001ZM231.41 102V105H234.41V102H231.41ZM231.406 102V99.0001H228.406V102H231.406ZM231.406 106.068V109.068H234.406V106.068H231.406ZM222.96 106.068V103.068H219.96V106.068H222.96ZM222.96 111.136V114.136H225.96V111.136H222.96ZM218.737 111.136V108.136H215.737V111.136H218.737ZM218.737 116.203V119.203H221.737V116.203H218.737ZM214.514 116.203V113.203H211.514V116.203H214.514ZM214.514 121.271V124.271H217.514V121.271H214.514ZM210.291 121.271V118.271H207.291V121.271H210.291ZM210.291 125.494V128.494H213.291V125.494H210.291ZM206.068 125.494V122.494H203.068L203.068 125.494L206.068 125.494ZM206.068 130.562V133.562H209.068L209.068 130.562H206.068ZM201 130.562V127.562H198V130.562H201ZM201 139V142H204V139H201ZM51 139H48V142H51V139ZM51 131H54V128H51V131ZM46 131H43V134H46V131ZM46 125H49V122H46V125ZM41 125H38V128H41V125ZM41 121.27H44V118.27H41V121.27ZM36.8924 121.27H33.8924L33.8924 124.27H36.8924V121.27ZM36.8924 116.202H39.8924L39.8924 113.202H36.8924V116.202ZM32.6693 116.202H29.6693L29.6693 119.202H32.6693V116.202ZM32.6693 111.134H35.6693L35.6693 108.134H32.6693V111.134ZM28.4462 111.134H25.4462V114.134H28.4462V111.134ZM28.4462 106.066H31.4462V103.066H28.4462V106.066ZM20 106.066H17L17 109.066H20V106.066ZM20 102H17H20ZM20 57.0001H17H20ZM24.2231 49.9339L20 49.9339L20 55.9339L24.2231 55.9339L24.2231 49.9339ZM28.4462 49.9339H24.2231V55.9339H28.4462V49.9339ZM25.4462 47.8662V52.9339H31.4462V47.8662H25.4462ZM32.6693 44.8662L28.4462 44.8662L28.4462 50.8662L32.6693 50.8662L32.6693 44.8662ZM29.6693 42.7984L29.6693 47.8662H35.6693L35.6693 42.7984H29.6693ZM36.8924 39.7984L32.6693 39.7984L32.6693 45.7984L36.8924 45.7984L36.8924 39.7984ZM33.8924 37.7307L33.8924 42.7984L39.8924 42.7984L39.8924 37.7307L33.8924 37.7307ZM41 34.7307H36.8924V40.7307H41V34.7307ZM38 34V37.7307H44V34H38ZM46 31H41V37H46V31ZM43 28V34H49V28H43ZM51 25H46V31H51V25ZM48 20V28H54V20H48ZM201 17L51 17V23L201 23V17ZM204 28.4384V20H198V28.4384H204ZM206.068 25.4384L201 25.4384V31.4384L206.068 31.4384V25.4384ZM209.068 33.5061L209.068 28.4384L203.068 28.4384L203.068 33.5062L209.068 33.5061ZM210.291 30.5061H206.068V36.5061H210.291V30.5061ZM213.291 37.7293V33.5061H207.291V37.7293H213.291ZM214.514 34.7293H210.291V40.7293H214.514V34.7293ZM217.514 42.797V37.7293H211.514V42.797H217.514ZM218.737 39.797H214.514V45.797H218.737V39.797ZM221.737 47.8647V42.797H215.737V47.8647H221.737ZM222.96 44.8647L218.737 44.8647V50.8647L222.96 50.8647V44.8647ZM225.96 52.9324V47.8647H219.96V52.9324H225.96ZM227.183 49.9324H222.96V55.9324H227.183V49.9324ZM231.406 49.9324H227.183V55.9324H231.406V49.9324ZM234.406 57.0001V52.9324H228.406V57.0001H234.406ZM231.406 60.0001H231.41V54.0001H231.406V60.0001ZM228.41 57.0001V102H234.41V57.0001H228.41ZM231.41 99.0001H231.406V105H231.41V99.0001ZM228.406 102V106.068H234.406V102H228.406ZM231.406 103.068H227.183V109.068H231.406V103.068ZM227.183 103.068H222.96V109.068H227.183V103.068ZM219.96 106.068V111.136H225.96V106.068H219.96ZM222.96 108.136H218.737V114.136H222.96V108.136ZM215.737 111.136V116.203H221.737V111.136H215.737ZM218.737 113.203H214.514V119.203H218.737V113.203ZM211.514 116.203V121.271H217.514V116.203H211.514ZM214.514 118.271H210.291V124.271H214.514V118.271ZM207.291 121.271V125.494H213.291V121.271H207.291ZM210.291 122.494H206.068V128.494H210.291V122.494ZM203.068 125.494L203.068 130.562L209.068 130.562L209.068 125.494L203.068 125.494ZM206.068 127.562L201 127.562V133.562L206.068 133.562V127.562ZM198 130.562V139H204V130.562H198ZM201 136L51 136V142L201 142V136ZM54 139V131H48V139H54ZM51 128H46V134H51V128ZM49 131V125H43V131H49ZM46 122H41V128H46V122ZM44 125V121.27H38V125H44ZM41 118.27H36.8924V124.27H41V118.27ZM39.8924 121.27L39.8924 116.202H33.8924L33.8924 121.27H39.8924ZM36.8924 113.202H32.6693V119.202H36.8924V113.202ZM35.6693 116.202L35.6693 111.134H29.6693L29.6693 116.202H35.6693ZM32.6693 108.134H28.4462V114.134H32.6693V108.134ZM31.4462 111.134V106.066H25.4462V111.134H31.4462ZM28.4462 103.066H24.2231V109.066H28.4462V103.066ZM24.2231 103.066H20V109.066H24.2231V103.066ZM23 106.066L23 102H17L17 106.066H23ZM23 102V57.0001H17V102H23ZM17 52.9339L17 57.0001H23L23 52.9339H17Z" fill="#3F3F3F" mask="url(#path-3-inside-2_2572_12254)"/>
<mask id="path-5-outside-3_2572_12254" maskUnits="userSpaceOnUse" x="30" y="53.9971" width="193" height="63" fill="black">
<rect fill="white" x="30" y="53.9971" width="193" height="63"/>
<path fill-rule="evenodd" clip-rule="evenodd" d="M209.742 89.7334L214.7 90.9967L214.936 90.681C216.509 88.5734 217.7 86.1215 218.38 83.4049C221.114 72.4774 214.552 61.3822 203.723 58.623C192.894 55.8637 181.898 62.4853 179.163 73.4128C176.429 84.3402 182.991 95.4354 193.82 98.1947C196.244 98.8121 198.677 98.9599 201.024 98.6941C201.328 98.6597 201.631 98.6183 201.932 98.5701L202.316 98.5086L203.584 93.4416L207.357 94.403L206.145 99.2484L212.204 100.793L213.735 94.6782L208.818 93.4252L209.742 89.7334ZM199.054 85.7857L203.954 87.0345L205.197 82.0708L210.11 83.323C210.362 82.7279 210.572 82.1049 210.734 81.4568C212.402 74.7902 208.399 68.0211 201.792 66.3378C195.185 64.6544 188.477 68.6941 186.809 75.3608C185.141 82.0274 189.144 88.7965 195.751 90.4798C196.433 90.6536 197.116 90.7664 197.794 90.8216L199.054 85.7857Z"/>
<path fill-rule="evenodd" clip-rule="evenodd" d="M59.6475 63.5669L58.349 58.621L37.603 64.1671L38.9015 69.1131L34 70.4234L42.0935 101.249L53.0364 98.3239L50.4393 88.432L65.1439 84.501L63.8453 79.555L68.7468 78.2447L64.5491 62.2566L59.6475 63.5669ZM53.9081 66.3322L57.5019 80.0199L48.8387 82.3359L45.2449 68.6482L53.9081 66.3322Z"/>
<path fill-rule="evenodd" clip-rule="evenodd" d="M87.0525 71.0487L76.0436 68.387L73.4059 79.4957L78.337 80.6879L77.1555 85.6637L82.0865 86.8558L81.1798 90.6744L76.2488 89.4823L75.0673 94.458L70.1362 93.2658L67.4985 104.375L78.5074 107.036L80.8703 97.0846L85.8014 98.2768L86.9829 93.301L90.7672 94.216L89.5857 99.1917L94.5168 100.384L92.1538 110.335L103.163 112.997L105.8 101.888L100.869 100.696L102.051 95.7204L97.1198 94.5283L98.0265 90.7097L102.958 91.9018L104.139 86.9261L109.07 88.1183L111.708 77.0096L100.699 74.348L98.336 84.2995L93.4049 83.1073L92.2234 88.0831L88.4391 87.1681L89.6206 82.1924L84.6895 81.0002L87.0525 71.0487Z"/>
<path fill-rule="evenodd" clip-rule="evenodd" d="M114.367 93.6602L115.193 99.4353L146.181 94.923L145.025 86.8378L127.092 89.4491L141.385 65.1958L140.566 59.4648L111.517 63.6947L112.661 71.6902L128.609 69.3679L114.367 93.6602ZM140.772 65.0726L140.066 60.1386L140.772 65.0726Z"/>
<path fill-rule="evenodd" clip-rule="evenodd" d="M163.962 109.442C172.298 109.442 179.056 102.623 179.056 94.2112C179.056 85.7995 172.298 78.9804 163.962 78.9804C155.625 78.9804 148.868 85.7995 148.868 94.2112C148.868 102.623 155.625 109.442 163.962 109.442ZM171.155 94.2112C171.155 98.2199 167.934 101.47 163.962 101.47C159.989 101.47 156.768 98.2199 156.768 94.2112C156.768 90.2025 159.989 86.9528 163.962 86.9528C167.934 86.9528 171.155 90.2025 171.155 94.2112Z"/>
</mask>
<path fill-rule="evenodd" clip-rule="evenodd" d="M209.742 89.7334L214.7 90.9967L214.936 90.681C216.509 88.5734 217.7 86.1215 218.38 83.4049C221.114 72.4774 214.552 61.3822 203.723 58.623C192.894 55.8637 181.898 62.4853 179.163 73.4128C176.429 84.3402 182.991 95.4354 193.82 98.1947C196.244 98.8121 198.677 98.9599 201.024 98.6941C201.328 98.6597 201.631 98.6183 201.932 98.5701L202.316 98.5086L203.584 93.4416L207.357 94.403L206.145 99.2484L212.204 100.793L213.735 94.6782L208.818 93.4252L209.742 89.7334ZM199.054 85.7857L203.954 87.0345L205.197 82.0708L210.11 83.323C210.362 82.7279 210.572 82.1049 210.734 81.4568C212.402 74.7902 208.399 68.0211 201.792 66.3378C195.185 64.6544 188.477 68.6941 186.809 75.3608C185.141 82.0274 189.144 88.7965 195.751 90.4798C196.433 90.6536 197.116 90.7664 197.794 90.8216L199.054 85.7857Z" fill="#11A729"/>
<path fill-rule="evenodd" clip-rule="evenodd" d="M59.6475 63.5669L58.349 58.621L37.603 64.1671L38.9015 69.1131L34 70.4234L42.0935 101.249L53.0364 98.3239L50.4393 88.432L65.1439 84.501L63.8453 79.555L68.7468 78.2447L64.5491 62.2566L59.6475 63.5669ZM53.9081 66.3322L57.5019 80.0199L48.8387 82.3359L45.2449 68.6482L53.9081 66.3322Z" fill="#11A729"/>
<path fill-rule="evenodd" clip-rule="evenodd" d="M87.0525 71.0487L76.0436 68.387L73.4059 79.4957L78.337 80.6879L77.1555 85.6637L82.0865 86.8558L81.1798 90.6744L76.2488 89.4823L75.0673 94.458L70.1362 93.2658L67.4985 104.375L78.5074 107.036L80.8703 97.0846L85.8014 98.2768L86.9829 93.301L90.7672 94.216L89.5857 99.1917L94.5168 100.384L92.1538 110.335L103.163 112.997L105.8 101.888L100.869 100.696L102.051 95.7204L97.1198 94.5283L98.0265 90.7097L102.958 91.9018L104.139 86.9261L109.07 88.1183L111.708 77.0096L100.699 74.348L98.336 84.2995L93.4049 83.1073L92.2234 88.0831L88.4391 87.1681L89.6206 82.1924L84.6895 81.0002L87.0525 71.0487Z" fill="#11A729"/>
<path fill-rule="evenodd" clip-rule="evenodd" d="M114.367 93.6602L115.193 99.4353L146.181 94.923L145.025 86.8378L127.092 89.4491L141.385 65.1958L140.566 59.4648L111.517 63.6947L112.661 71.6902L128.609 69.3679L114.367 93.6602ZM140.772 65.0726L140.066 60.1386L140.772 65.0726Z" fill="#11A729"/>
<path fill-rule="evenodd" clip-rule="evenodd" d="M163.962 109.442C172.298 109.442 179.056 102.623 179.056 94.2112C179.056 85.7995 172.298 78.9804 163.962 78.9804C155.625 78.9804 148.868 85.7995 148.868 94.2112C148.868 102.623 155.625 109.442 163.962 109.442ZM171.155 94.2112C171.155 98.2199 167.934 101.47 163.962 101.47C159.989 101.47 156.768 98.2199 156.768 94.2112C156.768 90.2025 159.989 86.9528 163.962 86.9528C167.934 86.9528 171.155 90.2025 171.155 94.2112Z" fill="#11A729"/>
<path d="M87.7283 87.6081L86.2688 87.2616L85.9237 88.715L87.3758 89.0661L87.7283 87.6081ZM88.9098 82.6323L90.3692 82.9789L90.7143 81.5254L89.2623 81.1743L88.9098 82.6323ZM83.9787 81.4401L82.5193 81.0936L82.1741 82.5471L83.6262 82.8981L83.9787 81.4401ZM86.3416 71.4886L87.8011 71.8352L88.1462 70.3817L86.6941 70.0306L86.3416 71.4886ZM60.6793 63.9135L59.3807 58.9676L56.4791 59.7294L57.7777 64.6754L60.6793 63.9135ZM69.4766 77.441L65.5809 62.6032L62.6792 63.365L66.5749 78.2029L69.4766 77.441ZM65.8736 83.6973L64.5751 78.7514L61.6734 79.5132L62.972 84.4592L65.8736 83.6973ZM53.7662 97.5203L51.1691 87.6284L48.2674 88.3902L50.8646 98.2821L53.7662 97.5203ZM81.9682 89.9336L77.0373 88.7415L76.3323 91.6575L81.2632 92.8496L81.9682 89.9336ZM75.8557 93.7172L70.9247 92.525L70.2197 95.441L75.1507 96.6332L75.8557 93.7172ZM79.5307 106.665L81.8937 96.714L78.9749 96.0209L76.6119 105.972L79.5307 106.665ZM86.8247 97.9061L88.0063 92.9304L85.0875 92.2373L83.9059 97.213L86.8247 97.9061ZM99.1245 83.5587L94.1934 82.3665L93.4884 85.2825L98.4195 86.4747L99.1245 83.5587ZM87.3758 89.0661L92.3068 90.2583L93.0118 87.3423L88.0808 86.1501L87.3758 89.0661ZM87.4503 82.2858L86.2688 87.2616L89.1877 87.9546L90.3692 82.9789L87.4503 82.2858ZM83.6262 82.8981L88.5573 84.0903L89.2623 81.1743L84.3312 79.9822L83.6262 82.8981ZM85.4381 81.7867L87.8011 71.8352L84.8822 71.1421L82.5193 81.0936L85.4381 81.7867ZM146.998 94.2068L146.01 87.2993L143.04 87.724L144.028 94.6315L146.998 94.2068ZM49.8705 82.6824L45.9747 67.8446L43.0731 68.6064L46.9688 83.4443L49.8705 82.6824ZM157.21 87.7924C155.641 89.4674 154.679 91.7287 154.679 94.2113H157.679C157.679 92.5167 158.333 90.9819 159.399 89.8433L157.21 87.7924ZM154.679 94.2113C154.679 96.7893 155.716 99.1282 157.393 100.82L159.524 98.7085C158.384 97.5582 157.679 95.9705 157.679 94.2113H154.679ZM76.1271 70.5622L85.9891 72.9466L86.6941 70.0306L76.8321 67.6462L76.1271 70.5622ZM214.7 90.9967L213.96 93.9039L215.904 94.3993L217.104 92.7911L214.7 90.9967ZM209.742 89.7334L210.483 86.8263L207.563 86.0824L206.832 89.0051L209.742 89.7334ZM214.936 90.681L217.34 92.4754L217.34 92.4753L214.936 90.681ZM218.38 83.4049L221.29 84.1331V84.1331L218.38 83.4049ZM203.723 58.623L204.464 55.7158V55.7158L203.723 58.623ZM193.82 98.1947L193.08 101.102L193.82 98.1947ZM201.024 98.6941L200.687 95.7131L200.687 95.7131L201.024 98.6941ZM201.932 98.5701L201.458 95.6078H201.458L201.932 98.5701ZM202.316 98.5086L202.791 101.471L204.746 101.158L205.227 99.2368L202.316 98.5086ZM203.584 93.4416L204.325 90.5345L201.405 89.7906L200.674 92.7134L203.584 93.4416ZM207.357 94.403L210.268 95.1314L210.993 92.2335L208.098 91.4959L207.357 94.403ZM206.145 99.2484L203.234 98.52L202.509 101.418L205.404 102.156L206.145 99.2484ZM212.204 100.793L211.463 103.7L214.383 104.444L215.114 101.521L212.204 100.793ZM213.735 94.6782L216.645 95.4066L217.37 92.5088L214.476 91.7711L213.735 94.6782ZM208.818 93.4252L205.908 92.697L205.183 95.5947L208.077 96.3323L208.818 93.4252ZM203.954 87.0345L203.214 89.9416L206.133 90.6856L206.865 87.7629L203.954 87.0345ZM199.054 85.7857L199.795 82.8786L196.876 82.1345L196.144 85.0573L199.054 85.7857ZM205.197 82.0708L205.938 79.1638L203.018 78.4197L202.287 81.3424L205.197 82.0708ZM210.11 83.323L209.369 86.23L211.866 86.8663L212.872 84.4944L210.11 83.323ZM210.734 81.4568L207.824 80.7285V80.7285L210.734 81.4568ZM201.792 66.3378L202.533 63.4306V63.4306L201.792 66.3378ZM186.809 75.3608L183.899 74.6325V74.6325L186.809 75.3608ZM195.751 90.4798L196.492 87.5727L196.492 87.5727L195.751 90.4798ZM197.794 90.8216L197.55 93.8117L200.086 94.0184L200.704 91.55L197.794 90.8216ZM58.349 58.621L61.2506 57.8591L60.4854 54.9445L57.5742 55.7228L58.349 58.621ZM59.6475 63.5669L56.7459 64.3288L57.5111 67.2434L60.4223 66.4652L59.6475 63.5669ZM37.603 64.1671L36.8282 61.2689L33.9429 62.0402L34.7013 64.9289L37.603 64.1671ZM38.9015 69.1131L39.6763 72.0113L42.5616 71.2399L41.8032 68.3512L38.9015 69.1131ZM34 70.4234L33.2252 67.5252L30.3399 68.2965L31.0983 71.1853L34 70.4234ZM42.0935 101.249L39.1918 102.011L39.9571 104.926L42.8683 104.148L42.0935 101.249ZM53.0364 98.3239L53.8112 101.222L56.6965 100.451L55.9381 97.5621L53.0364 98.3239ZM50.4393 88.432L49.6645 85.5338L46.7792 86.3052L47.5376 89.1939L50.4393 88.432ZM65.1439 84.501L65.9186 87.3992L68.804 86.6279L68.0455 83.7391L65.1439 84.501ZM63.8453 79.555L63.0705 76.6568L60.1852 77.4281L60.9436 80.3169L63.8453 79.555ZM68.7468 78.2447L69.5216 81.1429L72.4069 80.3716L71.6485 77.4828L68.7468 78.2447ZM64.5491 62.2566L67.4507 61.4947L66.6855 58.5801L63.7743 59.3584L64.5491 62.2566ZM76.0436 68.387L76.7486 65.471L73.8207 64.7632L73.1248 67.694L76.0436 68.387ZM87.0525 71.0487L89.9713 71.7417L90.6616 68.8348L87.7575 68.1327L87.0525 71.0487ZM73.4059 79.4957L70.487 78.8026L69.7968 81.7096L72.7009 82.4117L73.4059 79.4957ZM78.337 80.6879L81.2558 81.381L81.946 78.474L79.042 77.7719L78.337 80.6879ZM77.1555 85.6637L74.2366 84.9706L73.5464 87.8775L76.4505 88.5796L77.1555 85.6637ZM82.0865 86.8558L85.0054 87.5489L85.6956 84.642L82.7915 83.9399L82.0865 86.8558ZM81.1798 90.6744L80.4748 93.5904L83.4028 94.2983L84.0987 91.3675L81.1798 90.6744ZM76.2488 89.4823L76.9538 86.5663L74.0258 85.8584L73.3299 88.7892L76.2488 89.4823ZM75.0673 94.458L74.3623 97.374L77.2902 98.0819L77.9861 95.1511L75.0673 94.458ZM70.1362 93.2658L70.8412 90.3498L67.9133 89.642L67.2174 92.5728L70.1362 93.2658ZM67.4985 104.375L64.5796 103.681L63.8894 106.588L66.7935 107.29L67.4985 104.375ZM78.5074 107.036L77.8024 109.952L80.7303 110.66L81.4262 107.729L78.5074 107.036ZM80.8703 97.0846L81.5753 94.1686L78.6474 93.4607L77.9515 96.3915L80.8703 97.0846ZM85.8014 98.2768L85.0964 101.193L88.0243 101.901L88.7203 98.9699L85.8014 98.2768ZM86.9829 93.301L87.6879 90.3851L84.7599 89.6772L84.064 92.608L86.9829 93.301ZM90.7672 94.216L93.686 94.909L94.3763 92.0021L91.4722 91.3L90.7672 94.216ZM89.5857 99.1917L86.6669 98.4987L85.9766 101.406L88.8807 102.108L89.5857 99.1917ZM94.5168 100.384L97.4356 101.077L98.1259 98.1701L95.2218 97.4679L94.5168 100.384ZM92.1538 110.335L89.235 109.642L88.5447 112.549L91.4488 113.251L92.1538 110.335ZM103.163 112.997L102.458 115.913L105.386 116.621L106.082 113.69L103.163 112.997ZM105.8 101.888L108.719 102.581L109.41 99.6745L106.505 98.9724L105.8 101.888ZM100.869 100.696L97.9505 100.003L97.2603 102.91L100.164 103.612L100.869 100.696ZM102.051 95.7204L104.97 96.4135L105.66 93.5066L102.756 92.8045L102.051 95.7204ZM97.1198 94.5283L94.2009 93.8352L93.5107 96.7421L96.4148 97.4443L97.1198 94.5283ZM98.0265 90.7097L98.7315 87.7937L95.8036 87.0858L95.1077 90.0166L98.0265 90.7097ZM102.958 91.9018L102.253 94.8178L105.18 95.5257L105.876 92.5949L102.958 91.9018ZM104.139 86.9261L104.844 84.0101L101.916 83.3022L101.22 86.233L104.139 86.9261ZM109.07 88.1183L108.365 91.0343L111.293 91.7421L111.989 88.8113L109.07 88.1183ZM111.708 77.0096L114.627 77.7027L115.317 74.7957L112.413 74.0936L111.708 77.0096ZM100.699 74.348L101.404 71.432L98.476 70.7241L97.7801 73.6549L100.699 74.348ZM98.336 84.2995L97.631 87.2155L100.559 87.9234L101.255 84.9926L98.336 84.2995ZM93.4049 83.1073L94.1099 80.1913L91.182 79.4834L90.4861 82.4142L93.4049 83.1073ZM92.2234 88.0831L91.5184 90.999L94.4464 91.7069L95.1423 88.7761L92.2234 88.0831ZM88.4391 87.1681L85.5203 86.4751L84.83 89.382L87.7341 90.0841L88.4391 87.1681ZM89.6206 82.1924L92.5395 82.8854L93.2297 79.9785L90.3256 79.2764L89.6206 82.1924ZM84.6895 81.0002L81.7707 80.3071L81.0805 83.214L83.9845 83.9162L84.6895 81.0002ZM115.193 99.4353L112.223 99.86L112.649 102.837L115.626 102.404L115.193 99.4353ZM114.367 93.6602L111.779 92.1429L111.249 93.0472L111.398 94.0849L114.367 93.6602ZM146.181 94.923L146.613 97.8917L149.574 97.4605L149.151 94.4983L146.181 94.923ZM145.025 86.8378L147.995 86.4131L147.569 83.4357L144.592 83.8691L145.025 86.8378ZM127.092 89.4491L124.507 87.9259L121.329 93.3199L127.524 92.4177L127.092 89.4491ZM141.385 65.1958L143.97 66.719L144.504 65.8126L144.355 64.7711L141.385 65.1958ZM140.566 59.4648L143.535 59.0401L143.11 56.0627L140.133 56.4961L140.566 59.4648ZM111.517 63.6947L111.085 60.726L108.124 61.1572L108.548 64.1194L111.517 63.6947ZM112.661 71.6902L109.691 72.1149L110.117 75.0923L113.093 74.6589L112.661 71.6902ZM128.609 69.3679L131.197 70.8851L134.354 65.4996L128.177 66.3992L128.609 69.3679ZM57.5019 80.0199L58.2767 82.9181L61.162 82.1468L60.4035 79.258L57.5019 80.0199ZM53.9081 66.3322L56.8098 65.5704L56.0445 62.6558L53.1333 63.434L53.9081 66.3322ZM48.8387 82.3359L45.937 83.0977L46.7023 86.0123L49.6135 85.2341L48.8387 82.3359ZM45.2449 68.6482L44.4701 65.75L41.5848 66.5213L42.3433 69.41L45.2449 68.6482ZM215.441 88.0896L210.483 86.8263L209.001 92.6405L213.96 93.9039L215.441 88.0896ZM212.532 88.8867L212.296 89.2024L217.104 92.7911L217.34 92.4754L212.532 88.8867ZM215.469 82.6766C214.888 85.0021 213.871 87.0926 212.532 88.8868L217.34 92.4753C219.147 90.0541 220.512 87.2409 221.29 84.1331L215.469 82.6766ZM202.982 61.5301C212.189 63.876 217.808 73.3299 215.469 82.6766L221.29 84.1331C224.42 71.6249 216.915 58.8884 204.464 55.7158L202.982 61.5301ZM182.074 74.141C184.41 64.8038 193.785 59.1867 202.982 61.5301L204.464 55.7158C192.002 52.5407 179.386 60.1669 176.253 72.6845L182.074 74.141ZM194.561 95.2875C185.354 92.9416 179.735 83.4877 182.074 74.141L176.253 72.6845C173.123 85.1927 180.628 97.9292 193.08 101.102L194.561 95.2875ZM200.687 95.7131C198.695 95.9386 196.627 95.814 194.561 95.2875L193.08 101.102C195.86 101.81 198.659 101.981 201.362 101.675L200.687 95.7131ZM201.458 95.6078C201.202 95.6487 200.945 95.6839 200.687 95.7131L201.362 101.675C201.712 101.635 202.06 101.588 202.406 101.532L201.458 95.6078ZM201.842 95.5463L201.458 95.6078L202.406 101.532L202.791 101.471L201.842 95.5463ZM200.674 92.7134L199.406 97.7803L205.227 99.2368L206.494 94.1699L200.674 92.7134ZM208.098 91.4959L204.325 90.5345L202.843 96.3487L206.617 97.3101L208.098 91.4959ZM209.055 99.9768L210.268 95.1314L204.447 93.6746L203.234 98.52L209.055 99.9768ZM212.945 97.8856L206.886 96.3414L205.404 102.156L211.463 103.7L212.945 97.8856ZM210.824 93.9498L209.294 100.064L215.114 101.521L216.645 95.4066L210.824 93.9498ZM208.077 96.3323L212.994 97.5853L214.476 91.7711L209.559 90.5182L208.077 96.3323ZM206.832 89.0051L205.908 92.697L211.728 94.1535L212.652 90.4617L206.832 89.0051ZM204.695 84.1274L199.795 82.8786L198.313 88.6928L203.214 89.9416L204.695 84.1274ZM202.287 81.3424L201.044 86.3061L206.865 87.7629L208.107 82.7993L202.287 81.3424ZM210.851 80.4159L205.938 79.1638L204.456 84.9779L209.369 86.23L210.851 80.4159ZM207.824 80.7285C207.7 81.2249 207.54 81.6997 207.348 82.1515L212.872 84.4944C213.185 83.7561 213.444 82.985 213.644 82.1851L207.824 80.7285ZM201.052 69.2449C206.036 70.5149 209.097 75.6426 207.824 80.7285L213.644 82.1851C215.708 73.9377 210.762 65.5274 202.533 63.4306L201.052 69.2449ZM189.719 76.089C190.99 71.0126 196.077 67.9774 201.052 69.2449L202.533 63.4306C194.294 61.3314 185.965 66.3757 183.899 74.6325L189.719 76.089ZM196.492 87.5727C191.507 86.3027 188.447 81.175 189.719 76.089L183.899 74.6325C181.835 82.8799 186.781 91.2902 195.01 93.387L196.492 87.5727ZM198.038 87.8315C197.527 87.7899 197.01 87.7048 196.492 87.5727L195.01 93.387C195.856 93.6025 196.705 93.7429 197.55 93.8117L198.038 87.8315ZM196.144 85.0573L194.884 90.0932L200.704 91.55L201.965 86.5141L196.144 85.0573ZM55.4473 59.3828L56.7459 64.3288L62.5492 62.8051L61.2506 57.8591L55.4473 59.3828ZM38.3777 67.0653L59.1238 61.5192L57.5742 55.7228L36.8282 61.2689L38.3777 67.0653ZM41.8032 68.3512L40.5046 63.4053L34.7013 64.9289L35.9999 69.8749L41.8032 68.3512ZM34.7748 73.3216L39.6763 72.0113L38.1267 66.2148L33.2252 67.5252L34.7748 73.3216ZM44.9951 100.488L36.9017 69.6616L31.0983 71.1853L39.1918 102.011L44.9951 100.488ZM52.2616 95.4257L41.3187 98.3512L42.8683 104.148L53.8112 101.222L52.2616 95.4257ZM47.5376 89.1939L50.1348 99.0858L55.9381 97.5621L53.3409 87.6702L47.5376 89.1939ZM64.3691 81.6028L49.6645 85.5338L51.2141 91.3303L65.9186 87.3992L64.3691 81.6028ZM60.9436 80.3169L62.2422 85.2628L68.0455 83.7391L66.7469 78.7932L60.9436 80.3169ZM67.972 75.3465L63.0705 76.6568L64.6201 82.4532L69.5216 81.1429L67.972 75.3465ZM61.6474 63.0184L65.8452 79.0065L71.6485 77.4828L67.4507 61.4947L61.6474 63.0184ZM60.4223 66.4652L65.3239 65.1548L63.7743 59.3584L58.8727 60.6687L60.4223 66.4652ZM75.3386 71.303L86.3475 73.9646L87.7575 68.1327L76.7486 65.471L75.3386 71.303ZM76.3247 80.1888L78.9624 69.0801L73.1248 67.694L70.487 78.8026L76.3247 80.1888ZM79.042 77.7719L74.1109 76.5797L72.7009 82.4117L77.632 83.6039L79.042 77.7719ZM80.0743 86.3567L81.2558 81.381L75.4181 79.9948L74.2366 84.9706L80.0743 86.3567ZM82.7915 83.9399L77.8605 82.7477L76.4505 88.5796L81.3815 89.7718L82.7915 83.9399ZM84.0987 91.3675L85.0054 87.5489L79.1677 86.1628L78.261 89.9814L84.0987 91.3675ZM75.5438 92.3982L80.4748 93.5904L81.8848 87.7585L76.9538 86.5663L75.5438 92.3982ZM77.9861 95.1511L79.1676 90.1753L73.3299 88.7892L72.1484 93.7649L77.9861 95.1511ZM69.4312 96.1818L74.3623 97.374L75.7723 91.542L70.8412 90.3498L69.4312 96.1818ZM70.4173 105.068L73.0551 93.9589L67.2174 92.5728L64.5796 103.681L70.4173 105.068ZM79.2124 104.12L68.2035 101.459L66.7935 107.29L77.8024 109.952L79.2124 104.12ZM77.9515 96.3915L75.5885 106.343L81.4262 107.729L83.7892 97.7777L77.9515 96.3915ZM86.5064 95.3608L81.5753 94.1686L80.1653 100.001L85.0964 101.193L86.5064 95.3608ZM84.064 92.608L82.8826 97.5837L88.7203 98.9699L89.9017 93.9941L84.064 92.608ZM91.4722 91.3L87.6879 90.3851L86.2779 96.217L90.0622 97.132L91.4722 91.3ZM92.5046 99.8848L93.686 94.909L87.8484 93.5229L86.6669 98.4987L92.5046 99.8848ZM95.2218 97.4679L90.2907 96.2758L88.8807 102.108L93.8118 103.3L95.2218 97.4679ZM95.0727 111.029L97.4356 101.077L91.5979 99.6909L89.235 109.642L95.0727 111.029ZM103.868 110.081L92.8588 107.419L91.4488 113.251L102.458 115.913L103.868 110.081ZM102.882 101.195L100.244 112.304L106.082 113.69L108.719 102.581L102.882 101.195ZM100.164 103.612L105.095 104.804L106.505 98.9724L101.574 97.7802L100.164 103.612ZM99.132 95.0274L97.9505 100.003L103.788 101.389L104.97 96.4135L99.132 95.0274ZM96.4148 97.4443L101.346 98.6364L102.756 92.8045L97.8248 91.6123L96.4148 97.4443ZM95.1077 90.0166L94.2009 93.8352L100.039 95.2213L100.945 91.4027L95.1077 90.0166ZM103.663 88.9859L98.7315 87.7937L97.3215 93.6256L102.253 94.8178L103.663 88.9859ZM101.22 86.233L100.039 91.2088L105.876 92.5949L107.058 87.6192L101.22 86.233ZM109.775 85.2023L104.844 84.0101L103.434 89.8421L108.365 91.0343L109.775 85.2023ZM108.789 76.3165L106.151 87.4252L111.989 88.8113L114.627 77.7027L108.789 76.3165ZM99.9939 77.264L111.003 79.9256L112.413 74.0936L101.404 71.432L99.9939 77.264ZM101.255 84.9926L103.618 75.041L97.7801 73.6549L95.4171 83.6064L101.255 84.9926ZM92.6999 86.0233L97.631 87.2155L99.041 81.3835L94.1099 80.1913L92.6999 86.0233ZM95.1423 88.7761L96.3238 83.8004L90.4861 82.4142L89.3046 87.39L95.1423 88.7761ZM87.7341 90.0841L91.5184 90.999L92.9284 85.1671L89.1441 84.2521L87.7341 90.0841ZM86.7018 81.4993L85.5203 86.4751L91.358 87.8612L92.5395 82.8854L86.7018 81.4993ZM83.9845 83.9162L88.9156 85.1084L90.3256 79.2764L85.3945 78.0842L83.9845 83.9162ZM84.1337 70.3556L81.7707 80.3071L87.6084 81.6932L89.9713 71.7417L84.1337 70.3556ZM118.163 99.0106L117.337 93.2355L111.398 94.0849L112.223 99.86L118.163 99.0106ZM145.749 91.9543L114.761 96.4666L115.626 102.404L146.613 97.8917L145.749 91.9543ZM142.055 87.2625L143.211 95.3477L149.151 94.4983L147.995 86.4131L142.055 87.2625ZM127.524 92.4177L145.457 89.8065L144.592 83.8691L126.66 86.4804L127.524 92.4177ZM138.801 63.6727L124.507 87.9259L129.677 90.9722L143.97 66.719L138.801 63.6727ZM137.596 59.8895L138.415 65.6205L144.355 64.7711L143.535 59.0401L137.596 59.8895ZM111.95 66.6633L140.998 62.4335L140.133 56.4961L111.085 60.726L111.95 66.6633ZM115.631 71.2655L114.487 63.2699L108.548 64.1194L109.691 72.1149L115.631 71.2655ZM128.177 66.3992L112.229 68.7215L113.093 74.6589L129.041 72.3366L128.177 66.3992ZM116.955 95.1774L131.197 70.8851L126.021 67.8506L111.779 92.1429L116.955 95.1774ZM143.742 64.6479L143.036 59.7139L137.096 60.5634L137.802 65.4973L143.742 64.6479ZM60.4035 79.258L56.8098 65.5704L51.0065 67.0941L54.6002 80.7817L60.4035 79.258ZM49.6135 85.2341L58.2767 82.9181L56.7271 77.1217L48.0639 79.4376L49.6135 85.2341ZM42.3433 69.41L45.937 83.0977L51.7403 81.574L48.1466 67.8864L42.3433 69.41ZM53.1333 63.434L44.4701 65.75L46.0197 71.5464L54.6829 69.2305L53.1333 63.434ZM176.056 94.2112C176.056 100.992 170.615 106.442 163.962 106.442V112.442C173.98 112.442 182.056 104.254 182.056 94.2112H176.056ZM163.962 81.9804C170.615 81.9804 176.056 87.4308 176.056 94.2112H182.056C182.056 84.1682 173.98 75.9804 163.962 75.9804V81.9804ZM151.868 94.2112C151.868 87.4308 157.308 81.9804 163.962 81.9804V75.9804C153.943 75.9804 145.868 84.1682 145.868 94.2112H151.868ZM163.962 106.442C157.308 106.442 151.868 100.992 151.868 94.2112H145.868C145.868 104.254 153.943 112.442 163.962 112.442V106.442ZM163.962 104.47C169.617 104.47 174.155 99.8512 174.155 94.2112H168.155C168.155 96.5887 166.252 98.4697 163.962 98.4697V104.47ZM153.768 94.2112C153.768 99.8512 158.307 104.47 163.962 104.47V98.4697C161.671 98.4697 159.768 96.5887 159.768 94.2112H153.768ZM163.962 83.9528C158.307 83.9528 153.768 88.5712 153.768 94.2112H159.768C159.768 91.8338 161.671 89.9528 163.962 89.9528V83.9528ZM174.155 94.2112C174.155 88.5712 169.617 83.9528 163.962 83.9528V89.9528C166.252 89.9528 168.155 91.8338 168.155 94.2112H174.155Z" fill="#3F3F3F" mask="url(#path-5-outside-3_2572_12254)"/>
<mask id="path-7-inside-4_2572_12254" fill="white">
<path fill-rule="evenodd" clip-rule="evenodd" d="M251 141V494V500H246H241V506H236V512H231V518H226V523H221V529H215V539H200V531H192V539H176V531H168V539H152V531H144V539H128V531H120V539H104V531H96V539H80V531H72V539H56V531H48V539H36V529H30V523H25V518H20V512H15V506H10V500H5H0V494V141H251Z"/>
</mask>
<path fill-rule="evenodd" clip-rule="evenodd" d="M251 141V494V500H246H241V506H236V512H231V518H226V523H221V529H215V539H200V531H192V539H176V531H168V539H152V531H144V539H128V531H120V539H104V531H96V539H80V531H72V539H56V531H48V539H36V529H30V523H25V518H20V512H15V506H10V500H5H0V494V141H251Z" fill="#11A729"/>
<path d="M251 141H254V138H251V141ZM251 500V503H254V500H251ZM241 500V497H238V500H241ZM241 506V509H244V506H241ZM236 506V503H233V506H236ZM236 512V515H239V512H236ZM231 512V509H228V512H231ZM231 518V521H234V518H231ZM226 518V515H223V518H226ZM226 523V526H229V523H226ZM221 523V520H218V523H221ZM221 529V532H224V529H221ZM215 529V526H212V529H215ZM215 539V542H218V539H215ZM200 539H197V542H200V539ZM200 531H203V528H200V531ZM192 531V528H189V531H192ZM192 539V542H195V539H192ZM176 539H173V542H176V539ZM176 531H179V528H176V531ZM168 531V528H165V531H168ZM168 539V542H171V539H168ZM152 539H149V542H152V539ZM152 531H155V528H152V531ZM144 531V528H141V531H144ZM144 539V542H147V539H144ZM128 539H125V542H128V539ZM128 531H131V528H128V531ZM120 531V528H117V531H120ZM120 539V542H123V539H120ZM104 539H101V542H104V539ZM104 531H107V528H104V531ZM96 531V528H93V531H96ZM96 539V542H99V539H96ZM80 539H77V542H80V539ZM80 531H83V528H80V531ZM72 531V528H69V531H72ZM72 539V542H75V539H72ZM56 539H53V542H56V539ZM56 531H59V528H56V531ZM48 531V528H45V531H48ZM48 539V542H51V539H48ZM36 539H33V542H36V539ZM36 529H39V526H36V529ZM30 529H27V532H30V529ZM30 523H33V520H30V523ZM25 523H22V526H25V523ZM25 518H28V515H25V518ZM20 518H17V521H20V518ZM20 512H23V509H20V512ZM15 512H12V515H15V512ZM15 506H18V503H15V506ZM10 506H7V509H10V506ZM10 500H13V497H10V500ZM0 500H-3V503H0V500ZM0 141V138H-3V141H0ZM254 494V141H248V494H254ZM248 494V500H254V494H248ZM251 497H246V503H251V497ZM246 497H241V503H246V497ZM238 500V506H244V500H238ZM241 503H236V509H241V503ZM233 506V512H239V506H233ZM236 509H231V515H236V509ZM228 512V518H234V512H228ZM231 515H226V521H231V515ZM223 518V523H229V518H223ZM226 520H221V526H226V520ZM218 523V529H224V523H218ZM221 526H215V532H221V526ZM212 529V539H218V529H212ZM215 536H200V542H215V536ZM203 539V531H197V539H203ZM200 528H192V534H200V528ZM189 531V539H195V531H189ZM192 536H176V542H192V536ZM179 539V531H173V539H179ZM176 528H168V534H176V528ZM165 531V539H171V531H165ZM168 536H152V542H168V536ZM155 539V531H149V539H155ZM152 528H144V534H152V528ZM141 531V539H147V531H141ZM144 536H128V542H144V536ZM131 539V531H125V539H131ZM128 528H120V534H128V528ZM117 531V539H123V531H117ZM120 536H104V542H120V536ZM107 539V531H101V539H107ZM104 528H96V534H104V528ZM93 531V539H99V531H93ZM96 536H80V542H96V536ZM83 539V531H77V539H83ZM80 528H72V534H80V528ZM69 531V539H75V531H69ZM72 536H56V542H72V536ZM59 539V531H53V539H59ZM56 528H48V534H56V528ZM45 531V539H51V531H45ZM48 536H36V542H48V536ZM39 539V529H33V539H39ZM36 526H30V532H36V526ZM33 529V523H27V529H33ZM30 520H25V526H30V520ZM28 523V518H22V523H28ZM25 515H20V521H25V515ZM23 518V512H17V518H23ZM20 509H15V515H20V509ZM18 512V506H12V512H18ZM15 503H10V509H15V503ZM13 506V500H7V506H13ZM10 497H5V503H10V497ZM5 497H0V503H5V497ZM3 500V494H-3V500H3ZM-3 141V494H3V141H-3ZM251 138H0V144H251V138Z" fill="#3F3F3F" mask="url(#path-7-inside-4_2572_12254)"/>
<mask id="path-9-inside-5_2572_12254" fill="white">
<path fill-rule="evenodd" clip-rule="evenodd" d="M50.4064 146L201.594 146V154.446H206.661V159.514L210.884 159.514V163.737H215.108V168.805H219.331V173.872L223.554 173.872V178.94H227.777H232V184V184.008V481V486.068H227.777H223.554V491.135H219.331V496.203H215.108V501.271H210.884V505.494H206.661V510.562H201.594V519.008H50.4065L50.4064 510.562H45.3387L45.3387 505.494H41.1155V501.271H36.8924V496.203H32.6693L32.6693 491.135H28.4462V486.068H24.2231H20L20 481L20 184.008L20 178.94H24.2231H28.4462V173.872L32.6693 173.872L32.6693 168.805H36.8924V163.737H41.1155V159.514H45.3386L45.3386 154.446L50.4064 154.446L50.4064 146Z"/>
</mask>
<path fill-rule="evenodd" clip-rule="evenodd" d="M50.4064 146L201.594 146V154.446H206.661V159.514L210.884 159.514V163.737H215.108V168.805H219.331V173.872L223.554 173.872V178.94H227.777H232V184V184.008V481V486.068H227.777H223.554V491.135H219.331V496.203H215.108V501.271H210.884V505.494H206.661V510.562H201.594V519.008H50.4065L50.4064 510.562H45.3387L45.3387 505.494H41.1155V501.271H36.8924V496.203H32.6693L32.6693 491.135H28.4462V486.068H24.2231H20L20 481L20 184.008L20 178.94H24.2231H28.4462V173.872L32.6693 173.872L32.6693 168.805H36.8924V163.737H41.1155V159.514H45.3386L45.3386 154.446L50.4064 154.446L50.4064 146Z" fill="#F5EFEB"/>
<path d="M201.594 146H204.594V143L201.594 143V146ZM50.4064 146V143L47.4064 143L47.4064 146L50.4064 146ZM201.594 154.446H198.594V157.446H201.594V154.446ZM206.661 154.446H209.661V151.446H206.661V154.446ZM206.661 159.514H203.661V162.514H206.661V159.514ZM210.884 159.514H213.884V156.514L210.884 156.514V159.514ZM210.884 163.737H207.884V166.737H210.884V163.737ZM215.108 163.737H218.108V160.737H215.108V163.737ZM215.108 168.805H212.108V171.805H215.108V168.805ZM219.331 168.805H222.331V165.805H219.331V168.805ZM219.331 173.872H216.331V176.872L219.331 176.872V173.872ZM223.554 173.872H226.554V170.872L223.554 170.872V173.872ZM223.554 178.94H220.554V181.94H223.554V178.94ZM232 178.94H235V175.94H232V178.94ZM232 486.068V489.068H235V486.068H232ZM223.554 486.068V483.068H220.554V486.068H223.554ZM223.554 491.135V494.135H226.554V491.135H223.554ZM219.331 491.135V488.135H216.331V491.135H219.331ZM219.331 496.203V499.203H222.331V496.203H219.331ZM215.108 496.203V493.203H212.108V496.203H215.108ZM215.108 501.271V504.271H218.108V501.271H215.108ZM210.884 501.271V498.271H207.884V501.271H210.884ZM210.884 505.494V508.494H213.884V505.494H210.884ZM206.661 505.494V502.494H203.661V505.494H206.661ZM206.661 510.562V513.562H209.661V510.562H206.661ZM201.594 510.562V507.562H198.594V510.562H201.594ZM201.594 519.008V522.008H204.594V519.008H201.594ZM50.4065 519.008L47.4065 519.008L47.4065 522.008H50.4065V519.008ZM50.4064 510.562L53.4064 510.562L53.4063 507.562H50.4064V510.562ZM45.3387 510.562H42.3387L42.3387 513.562H45.3387V510.562ZM45.3387 505.494H48.3387L48.3387 502.494H45.3387V505.494ZM41.1155 505.494H38.1155V508.494H41.1155V505.494ZM41.1155 501.271H44.1155V498.271H41.1155V501.271ZM36.8924 501.271H33.8924V504.271H36.8924V501.271ZM36.8924 496.203H39.8924V493.203H36.8924V496.203ZM32.6693 496.203H29.6693L29.6693 499.203H32.6693V496.203ZM32.6693 491.135H35.6693L35.6693 488.135H32.6693V491.135ZM28.4462 491.135H25.4462V494.135H28.4462V491.135ZM28.4462 486.068H31.4462V483.068H28.4462V486.068ZM20 486.068H17L17 489.068H20V486.068ZM20 481H23H20ZM20 184.008H17H20ZM20 178.94V175.94H17L17 178.94H20ZM28.4462 178.94V181.94H31.4462V178.94H28.4462ZM28.4462 173.872L28.4462 170.872L25.4462 170.872V173.872H28.4462ZM32.6693 173.872L32.6693 176.872L35.6693 176.872L35.6693 173.872H32.6693ZM32.6693 168.805V165.805H29.6693L29.6693 168.805H32.6693ZM36.8924 168.805V171.805H39.8924V168.805H36.8924ZM36.8924 163.737V160.737H33.8924V163.737H36.8924ZM41.1155 163.737V166.737H44.1155V163.737H41.1155ZM41.1155 159.514V156.514H38.1155V159.514H41.1155ZM45.3386 159.514V162.514H48.3386L48.3386 159.514L45.3386 159.514ZM45.3386 154.446V151.446L42.3387 151.446L42.3386 154.446L45.3386 154.446ZM50.4064 154.446V157.446L53.4064 157.446L53.4064 154.446L50.4064 154.446ZM201.594 143L50.4064 143V149L201.594 149V143ZM204.594 154.446V146H198.594V154.446H204.594ZM206.661 151.446H201.594V157.446H206.661V151.446ZM209.661 159.514V154.446H203.661V159.514H209.661ZM210.884 156.514L206.661 156.514V162.514L210.884 162.514V156.514ZM213.884 163.737V159.514H207.884V163.737H213.884ZM215.108 160.737H210.884V166.737H215.108V160.737ZM218.108 168.805V163.737H212.108V168.805H218.108ZM219.331 165.805H215.108V171.805H219.331V165.805ZM222.331 173.872V168.805H216.331V173.872H222.331ZM223.554 170.872L219.331 170.872V176.872L223.554 176.872V170.872ZM226.554 178.94V173.872H220.554V178.94H226.554ZM227.777 175.94H223.554V181.94H227.777V175.94ZM232 175.94H227.777V181.94H232V175.94ZM235 184V178.94H229V184H235ZM235 184.008V184H229V184.008H235ZM235 481V184.008H229V481H235ZM235 486.068V481H229V486.068H235ZM227.777 489.068H232V483.068H227.777V489.068ZM223.554 489.068H227.777V483.068H223.554V489.068ZM226.554 491.135V486.068H220.554V491.135H226.554ZM219.331 494.135H223.554V488.135H219.331V494.135ZM222.331 496.203V491.135H216.331V496.203H222.331ZM215.108 499.203H219.331V493.203H215.108V499.203ZM218.108 501.271V496.203H212.108V501.271H218.108ZM210.884 504.271H215.108V498.271H210.884V504.271ZM213.884 505.494V501.271H207.884V505.494H213.884ZM206.661 508.494H210.884V502.494H206.661V508.494ZM209.661 510.562V505.494H203.661V510.562H209.661ZM201.594 513.562H206.661V507.562H201.594V513.562ZM204.594 519.008V510.562H198.594V519.008H204.594ZM50.4065 522.008H201.594V516.008H50.4065V522.008ZM47.4064 510.562L47.4065 519.008L53.4065 519.008L53.4064 510.562L47.4064 510.562ZM45.3387 513.562H50.4064V507.562H45.3387V513.562ZM42.3387 505.494L42.3387 510.562H48.3387L48.3387 505.494H42.3387ZM41.1155 508.494H45.3387V502.494H41.1155V508.494ZM38.1155 501.271V505.494H44.1155V501.271H38.1155ZM36.8924 504.271H41.1155V498.271H36.8924V504.271ZM33.8924 496.203V501.271H39.8924V496.203H33.8924ZM32.6693 499.203H36.8924V493.203H32.6693V499.203ZM29.6693 491.135L29.6693 496.203H35.6693L35.6693 491.135H29.6693ZM28.4462 494.135H32.6693V488.135H28.4462V494.135ZM25.4462 486.068V491.135H31.4462V486.068H25.4462ZM24.2231 489.068H28.4462V483.068H24.2231V489.068ZM20 489.068H24.2231V483.068H20V489.068ZM17 481L17 486.068H23L23 481H17ZM17 184.008L17 481H23L23 184.008H17ZM17 178.94L17 184.008H23L23 178.94H17ZM24.2231 175.94H20V181.94H24.2231V175.94ZM28.4462 175.94H24.2231V181.94H28.4462V175.94ZM25.4462 173.872V178.94H31.4462V173.872H25.4462ZM32.6693 170.872L28.4462 170.872L28.4462 176.872L32.6693 176.872L32.6693 170.872ZM29.6693 168.805L29.6693 173.872H35.6693L35.6693 168.805H29.6693ZM36.8924 165.805H32.6693V171.805H36.8924V165.805ZM33.8924 163.737V168.805H39.8924V163.737H33.8924ZM41.1155 160.737H36.8924V166.737H41.1155V160.737ZM38.1155 159.514V163.737H44.1155V159.514H38.1155ZM45.3386 156.514H41.1155V162.514H45.3386V156.514ZM42.3386 154.446L42.3386 159.514L48.3386 159.514L48.3386 154.446L42.3386 154.446ZM50.4064 151.446L45.3386 151.446V157.446L50.4064 157.446V151.446ZM47.4064 146L47.4064 154.446L53.4064 154.446L53.4064 146L47.4064 146Z" fill="#3F3F3F" mask="url(#path-9-inside-5_2572_12254)"/>
<path d="M91.896 416.832L94.808 419.552C91.8 420.672 88.088 421.696 85.016 422.432C84.76 421.728 84.184 420.64 83.672 419.936C86.552 419.104 89.784 417.856 91.896 416.832ZM86.264 424.672H93.624V428H86.264V424.672ZM96.6 424.64H104.216V428H96.6V424.64ZM89.528 433.792H93.784C93.144 440.16 91.512 444.544 82.392 446.88C81.976 445.952 80.92 444.576 80.088 443.872C88.088 442.08 89.08 438.784 89.528 433.792ZM95.992 433.696H99.928V442.432C99.928 443.392 100.088 443.552 101.336 443.552C101.912 443.552 104.216 443.552 104.952 443.552C106.168 443.552 106.392 442.944 106.52 438.688C107.32 439.232 109.016 439.712 110.072 439.904C109.72 445.056 108.664 446.368 105.304 446.368C104.504 446.368 101.56 446.368 100.792 446.368C96.952 446.368 95.992 445.44 95.992 442.432V433.696ZM83.672 430.848H102.68V422.368H96.28V418.88H106.52V434.368H83.672V430.848ZM83.672 419.936H87.896V433.376H83.672V419.936ZM114.552 418.752H139.576V421.76H114.552V418.752ZM114.744 439.232H139.288V441.952H114.744V439.232ZM112.504 424.032H141.432V427.072H112.504V424.032ZM112.344 443.36H141.656V446.304H112.344V443.36ZM125.016 429.632H128.824V444.544H125.016V429.632ZM131.256 421.536L135.384 422.24C134.68 423.552 134.072 424.64 133.592 425.472L129.944 424.8C130.392 423.84 131 422.496 131.256 421.536ZM118.936 422.368L122.584 421.472C123.16 422.336 123.704 423.552 123.928 424.384L120.088 425.44C119.928 424.608 119.448 423.296 118.936 422.368ZM119.352 434.112V435.584H134.552V434.112H119.352ZM119.352 430.496V431.968H134.552V430.496H119.352ZM115.768 428.224H138.328V437.856H115.768V428.224ZM124.536 417.248L128.152 416.416C128.696 417.344 129.272 418.592 129.592 419.392L125.848 420.416C125.624 419.552 125.016 418.208 124.536 417.248ZM163.064 441.312L165.88 439.392C168.312 440.704 171.576 442.72 173.272 444.224L170.232 446.368C168.76 444.928 165.56 442.752 163.064 441.312ZM148.312 431.776H169.688V434.688H148.312V431.776ZM144.504 436.032H173.528V439.072H144.504V436.032ZM144.952 417.888H172.888V420.896H144.952V417.888ZM150.872 439.328L154.392 440.544C152.568 442.816 149.656 445.056 147.16 446.432C146.552 445.728 145.144 444.448 144.312 443.872C146.808 442.784 149.4 441.088 150.872 439.328ZM150.392 425.344V427.712H167.416V425.344H150.392ZM146.84 422.592H171.224V430.496H146.84V422.592ZM153.592 419.04H157.112V429.376H153.592V419.04ZM160.472 419.04H164.056V429.376H160.472V419.04ZM157.048 436.832H160.856V446.912H157.048V436.832Z" fill="#3F3F3F"/>
<path d="M92.31 505V489.6H94.114L104.3 502.25H103.354V489.6H105.554V505H103.75L93.564 492.35H94.51V505H92.31ZM113.222 505V491.514H107.942V489.6H120.68V491.514H115.4V505H113.222ZM126.82 507.64V486.96H128.228V507.64H126.82ZM127.37 505.176C126.197 505.176 125.075 505 124.004 504.648C122.934 504.281 122.09 503.812 121.474 503.24L122.288 501.524C122.875 502.037 123.623 502.463 124.532 502.8C125.442 503.137 126.388 503.306 127.37 503.306C128.265 503.306 128.991 503.203 129.548 502.998C130.106 502.793 130.516 502.514 130.78 502.162C131.044 501.795 131.176 501.385 131.176 500.93C131.176 500.402 131 499.977 130.648 499.654C130.311 499.331 129.864 499.075 129.306 498.884C128.764 498.679 128.162 498.503 127.502 498.356C126.842 498.209 126.175 498.041 125.5 497.85C124.84 497.645 124.232 497.388 123.674 497.08C123.132 496.772 122.692 496.361 122.354 495.848C122.017 495.32 121.848 494.645 121.848 493.824C121.848 493.032 122.054 492.306 122.464 491.646C122.89 490.971 123.535 490.436 124.4 490.04C125.28 489.629 126.395 489.424 127.744 489.424C128.639 489.424 129.526 489.541 130.406 489.776C131.286 490.011 132.049 490.348 132.694 490.788L131.968 492.548C131.308 492.108 130.612 491.793 129.878 491.602C129.145 491.397 128.434 491.294 127.744 491.294C126.879 491.294 126.168 491.404 125.61 491.624C125.053 491.844 124.642 492.137 124.378 492.504C124.129 492.871 124.004 493.281 124.004 493.736C124.004 494.279 124.173 494.711 124.51 495.034C124.862 495.357 125.31 495.613 125.852 495.804C126.41 495.995 127.018 496.171 127.678 496.332C128.338 496.479 128.998 496.647 129.658 496.838C130.333 497.029 130.942 497.278 131.484 497.586C132.042 497.894 132.489 498.305 132.826 498.818C133.164 499.331 133.332 499.991 133.332 500.798C133.332 501.575 133.12 502.301 132.694 502.976C132.269 503.636 131.609 504.171 130.714 504.582C129.834 504.978 128.72 505.176 127.37 505.176ZM140.981 501.216V499.676L148.857 489.6H151.233L143.423 499.676L142.301 499.324H154.599V501.216H140.981ZM149.539 505V501.216L149.605 499.324V495.98H151.673V505H149.539ZM162.209 505.176C161.007 505.176 159.929 504.868 158.975 504.252C158.037 503.636 157.289 502.741 156.731 501.568C156.189 500.395 155.917 498.972 155.917 497.3C155.917 495.628 156.189 494.205 156.731 493.032C157.289 491.859 158.037 490.964 158.975 490.348C159.929 489.732 161.007 489.424 162.209 489.424C163.397 489.424 164.468 489.732 165.421 490.348C166.375 490.964 167.123 491.859 167.665 493.032C168.208 494.205 168.479 495.628 168.479 497.3C168.479 498.972 168.208 500.395 167.665 501.568C167.123 502.741 166.375 503.636 165.421 504.252C164.468 504.868 163.397 505.176 162.209 505.176ZM162.209 503.218C163.016 503.218 163.72 502.998 164.321 502.558C164.937 502.118 165.414 501.458 165.751 500.578C166.103 499.698 166.279 498.605 166.279 497.3C166.279 495.995 166.103 494.902 165.751 494.022C165.414 493.142 164.937 492.482 164.321 492.042C163.72 491.602 163.016 491.382 162.209 491.382C161.403 491.382 160.691 491.602 160.075 492.042C159.459 492.482 158.975 493.142 158.623 494.022C158.286 494.902 158.117 495.995 158.117 497.3C158.117 498.605 158.286 499.698 158.623 500.578C158.975 501.458 159.459 502.118 160.075 502.558C160.691 502.998 161.403 503.218 162.209 503.218Z" fill="#3F3F3F"/>
<path d="M57.836 472.216V470.676L65.712 460.6H68.088L60.278 470.676L59.156 470.324H71.454V472.216H57.836ZM66.394 476V472.216L66.46 470.324V466.98H68.528V476H66.394ZM80.5556 470.17C80.0276 470.17 79.5656 470.06 79.1696 469.84C78.7736 469.62 78.407 469.371 78.0696 469.092C77.747 468.813 77.439 468.571 77.1456 468.366C76.8523 468.146 76.5296 468.036 76.1776 468.036C75.7083 468.036 75.3343 468.212 75.0556 468.564C74.777 468.916 74.623 469.4 74.5936 470.016H73.2076C73.237 468.784 73.523 467.875 74.0656 467.288C74.6083 466.701 75.2903 466.408 76.1116 466.408C76.6396 466.408 77.1016 466.518 77.4976 466.738C77.8936 466.958 78.253 467.207 78.5756 467.486C78.913 467.765 79.2283 468.014 79.5216 468.234C79.815 468.439 80.1376 468.542 80.4896 468.542C80.9736 468.542 81.355 468.366 81.6336 468.014C81.9123 467.647 82.059 467.156 82.0736 466.54H83.4596C83.4303 467.772 83.1443 468.689 82.6016 469.29C82.0736 469.877 81.3916 470.17 80.5556 470.17ZM88.0016 476V461.48L88.9476 462.514H84.5256V460.6H90.1796V476H88.0016ZM96.1442 476V461.48L97.0902 462.514H92.6682V460.6H98.3222V476H96.1442ZM113.285 463.504H115.177C115.265 470.412 117.267 475.934 119.335 475.912C119.819 475.912 120.017 475.098 120.127 473.052C120.523 473.426 121.183 473.8 121.667 473.954C121.381 476.946 120.721 477.76 119.203 477.76C115.639 477.76 113.505 471.226 113.285 463.504ZM116.035 464.406L117.069 463.416C117.971 463.812 119.093 464.45 119.665 464.934L118.587 466.012C118.037 465.506 116.937 464.824 116.035 464.406ZM118.037 468.19L119.907 468.608C118.455 472.788 115.771 475.934 112.405 477.892C112.119 477.518 111.415 476.792 110.997 476.44C114.297 474.79 116.805 471.886 118.037 468.19ZM106.465 470.698L107.961 471.006C107.587 472.37 106.883 473.756 106.113 474.636C105.827 474.416 105.189 473.998 104.815 473.8C105.607 472.986 106.157 471.842 106.465 470.698ZM104.111 465.66H121.161V467.376H104.111V465.66ZM105.893 468.454H112.757V469.928H105.893V468.454ZM101.867 462.228H121.403V463.966H101.867V462.228ZM112.053 459.17H119.445V460.754H112.053V459.17ZM103.055 465.66H104.969V469.422C104.969 471.952 104.683 475.538 103.033 477.914C102.659 477.606 101.779 477.1 101.295 476.924C102.857 474.702 103.055 471.622 103.055 469.4V465.66ZM110.887 457.432H112.911V463.086H110.887V457.432ZM105.321 458.422H107.257V463.152H105.321V458.422ZM111.723 470.852L113.373 471.116C112.383 474.24 109.765 476.682 106.047 477.804C105.849 477.452 105.431 476.858 105.145 476.572C108.599 475.604 111.019 473.514 111.723 470.852ZM108.533 469.466H110.227V474.24H108.533V469.466ZM138.717 459.566H140.895V475.076C140.895 476.44 140.565 477.1 139.619 477.452C138.651 477.804 137.089 477.826 134.867 477.826C134.735 477.21 134.317 476.198 133.987 475.604C135.681 475.692 137.529 475.67 138.057 475.67C138.563 475.648 138.717 475.494 138.717 475.032V459.566ZM125.935 463.966H127.959V474.042H125.935V463.966ZM126.793 463.966H135.109V472.326H126.793V470.324H133.063V465.946H126.793V463.966ZM123.779 458.95H143.535V461.062H123.779V458.95ZM151.785 459.764H165.865V461.656H151.785V459.764ZM154.271 465.264V468.08H163.203V465.264H154.271ZM152.357 463.548H165.205V469.818H152.357V463.548ZM154.029 470.17C156.053 473.492 160.409 475.428 166.129 476C165.689 476.462 165.161 477.298 164.897 477.87C159.001 477.056 154.689 474.79 152.313 470.698L154.029 470.17ZM157.659 457.542H159.705V467.42C159.705 471.776 158.803 475.934 152.203 477.892C151.961 477.43 151.367 476.616 150.927 476.176C157.197 474.658 157.659 471.072 157.659 467.398V457.542ZM150.531 457.388L152.467 458.004C150.971 461.722 148.595 465.528 146.131 467.992C145.933 467.508 145.361 466.386 145.009 465.902C147.165 463.856 149.277 460.644 150.531 457.388ZM148.287 463.306L150.245 461.326L150.267 461.348V477.936H148.287V463.306ZM171.079 458.95H184.983V460.93H171.079V458.95ZM171.079 464.054H184.983V466.012H171.079V464.054ZM170.991 469.29H185.049V471.248H170.991V469.29ZM169.891 458.95H171.937V466.914C171.937 470.324 171.541 475.054 168.879 477.98C168.549 477.584 167.713 476.88 167.251 476.616C169.671 473.91 169.891 469.994 169.891 466.892V458.95ZM184.213 458.95H186.281V475.23C186.281 476.462 185.995 477.056 185.181 477.386C184.367 477.716 183.069 477.76 181.023 477.738C180.935 477.188 180.605 476.286 180.319 475.736C181.749 475.802 183.223 475.78 183.641 475.78C184.059 475.758 184.213 475.626 184.213 475.23V458.95ZM176.733 459.72H178.845V477.628H176.733V459.72Z" fill="#3F3F3F"/>
<mask id="path-14-inside-6_2572_12254" fill="white">
<path fill-rule="evenodd" clip-rule="evenodd" d="M114 182H109V187H104V192H99V197V202H94H89H84V207H79V212H74V217H69V222V227V232H64H59V237H54V242H49V247H44V252H39V257H34V262V267V272V277H39V282V287H44V292H49V297H54H59H64H69H74V292H79H84V297H89H94V302H99H104V307H109V312V317V322H114V327V332H119V337V342H124V347V352H119V357H114V352H109V347H104V342H99V347H94V352H99V357V362H104V367H99H94V372H89V377H94V382H99H104H109H114H119H124H129H134H139H144H149H154H159H164H169H174H179H184V377H189V372H184V367H179H174V362H179V357H174V352H169V357H164V362H159V367H154H149V362V357H144V352V347V342V337V332V327H149H154V322H159V317H164V312H169H174H179V307H184V302H189H194H199V297H204V292H209V287V282V277H204V272H199V267H194V262V257H199V252V247H194V242V237V232H189V227H184V222H179H174H169V217H164H159V212V207H154V202H149V197V192H144V187H139V182H134H129H124H119H114ZM129 322H134V317H139V312H144H149V307V302H144V297H139V292V287H144V282V277H139V282V287H134V292V297V302H129V307V312V317V322ZM114 297H119V292V287V282H124V277V272V267H129V262V257H124H119V252H114H109V257H114V262H119V267V272H114V277H109V282V287H114V292V297Z"/>
</mask>
<path fill-rule="evenodd" clip-rule="evenodd" d="M114 182H109V187H104V192H99V197V202H94H89H84V207H79V212H74V217H69V222V227V232H64H59V237H54V242H49V247H44V252H39V257H34V262V267V272V277H39V282V287H44V292H49V297H54H59H64H69H74V292H79H84V297H89H94V302H99H104V307H109V312V317V322H114V327V332H119V337V342H124V347V352H119V357H114V352H109V347H104V342H99V347H94V352H99V357V362H104V367H99H94V372H89V377H94V382H99H104H109H114H119H124H129H134H139H144H149H154H159H164H169H174H179H184V377H189V372H184V367H179H174V362H179V357H174V352H169V357H164V362H159V367H154H149V362V357H144V352V347V342V337V332V327H149H154V322H159V317H164V312H169H174H179V307H184V302H189H194H199V297H204V292H209V287V282V277H204V272H199V267H194V262V257H199V252V247H194V242V237V232H189V227H184V222H179H174H169V217H164H159V212V207H154V202H149V197V192H144V187H139V182H134H129H124H119H114ZM129 322H134V317H139V312H144H149V307V302H144V297H139V292V287H144V282V277H139V282V287H134V292V297V302H129V307V312V317V322ZM114 297H119V292V287V282H124V277V272V267H129V262V257H124H119V252H114H109V257H114V262H119V267V272H114V277H109V282V287H114V292V297Z" fill="#11A729"/>
<path d="M109 182V179H106V182H109ZM109 187V190H112V187H109ZM104 187V184H101V187H104ZM104 192V195H107V192H104ZM99 192V189H96V192H99ZM99 202V205H102V202H99ZM84 202V199H81V202H84ZM84 207V210H87V207H84ZM79 207V204H76V207H79ZM79 212V215H82V212H79ZM74 212V209H71V212H74ZM74 217V220H77V217H74ZM69 217V214H66V217H69ZM69 232V235H72V232H69ZM59 232V229H56V232H59ZM59 237V240H62V237H59ZM54 237V234H51V237H54ZM54 242V245H57V242H54ZM49 242V239H46V242H49ZM49 247V250H52V247H49ZM44 247V244H41V247H44ZM44 252V255H47V252H44ZM39 252V249H36V252H39ZM39 257V260H42V257H39ZM34 257V254H31V257H34ZM34 277H31V280H34V277ZM39 277H42V274H39V277ZM39 287H36V290H39V287ZM44 287H47V284H44V287ZM44 292H41V295H44V292ZM49 292H52V289H49V292ZM49 297H46V300H49V297ZM74 297V300H77V297H74ZM74 292V289H71V292H74ZM84 292H87V289H84V292ZM84 297H81V300H84V297ZM94 297H97V294H94V297ZM94 302H91V305H94V302ZM104 302H107V299H104V302ZM104 307H101V310H104V307ZM109 307H112V304H109V307ZM109 322H106V325H109V322ZM114 322H117V319H114V322ZM114 332H111V335H114V332ZM119 332H122V329H119V332ZM119 342H116V345H119V342ZM124 342H127V339H124V342ZM124 352V355H127V352H124ZM119 352V349H116V352H119ZM119 357V360H122V357H119ZM114 357H111V360H114V357ZM114 352H117V349H114V352ZM109 352H106V355H109V352ZM109 347H112V344H109V347ZM104 347H101V350H104V347ZM104 342H107V339H104V342ZM99 342V339H96V342H99ZM99 347V350H102V347H99ZM94 347V344H91V347H94ZM94 352H91V355H94V352ZM99 352H102V349H99V352ZM99 362H96V365H99V362ZM104 362H107V359H104V362ZM104 367V370H107V367H104ZM94 367V364H91V367H94ZM94 372V375H97V372H94ZM89 372V369H86V372H89ZM89 377H86V380H89V377ZM94 377H97V374H94V377ZM94 382H91V385H94V382ZM184 382V385H187V382H184ZM184 377V374H181V377H184ZM189 377V380H192V377H189ZM189 372H192V369H189V372ZM184 372H181V375H184V372ZM184 367H187V364H184V367ZM174 367H171V370H174V367ZM174 362V359H171V362H174ZM179 362V365H182V362H179ZM179 357H182V354H179V357ZM174 357H171V360H174V357ZM174 352H177V349H174V352ZM169 352V349H166V352H169ZM169 357V360H172V357H169ZM164 357V354H161V357H164ZM164 362V365H167V362H164ZM159 362V359H156V362H159ZM159 367V370H162V367H159ZM149 367H146V370H149V367ZM149 357H152V354H149V357ZM144 357H141V360H144V357ZM144 327V324H141V327H144ZM154 327V330H157V327H154ZM154 322V319H151V322H154ZM159 322V325H162V322H159ZM159 317V314H156V317H159ZM164 317V320H167V317H164ZM164 312V309H161V312H164ZM179 312V315H182V312H179ZM179 307V304H176V307H179ZM184 307V310H187V307H184ZM184 302V299H181V302H184ZM199 302V305H202V302H199ZM199 297V294H196V297H199ZM204 297V300H207V297H204ZM204 292V289H201V292H204ZM209 292V295H212V292H209ZM209 277H212V274H209V277ZM204 277H201V280H204V277ZM204 272H207V269H204V272ZM199 272H196V275H199V272ZM199 267H202V264H199V267ZM194 267H191V270H194V267ZM194 257V254H191V257H194ZM199 257V260H202V257H199ZM199 247H202V244H199V247ZM194 247H191V250H194V247ZM194 232H197V229H194V232ZM189 232H186V235H189V232ZM189 227H192V224H189V227ZM184 227H181V230H184V227ZM184 222H187V219H184V222ZM169 222H166V225H169V222ZM169 217H172V214H169V217ZM159 217H156V220H159V217ZM159 207H162V204H159V207ZM154 207H151V210H154V207ZM154 202H157V199H154V202ZM149 202H146V205H149V202ZM149 192H152V189H149V192ZM144 192H141V195H144V192ZM144 187H147V184H144V187ZM139 187H136V190H139V187ZM139 182H142V179H139V182ZM134 322V325H137V322H134ZM129 322H126V325H129V322ZM134 317V314H131V317H134ZM139 317V320H142V317H139ZM139 312V309H136V312H139ZM149 312V315H152V312H149ZM149 302H152V299H149V302ZM144 302H141V305H144V302ZM144 297H147V294H144V297ZM139 297H136V300H139V297ZM144 287V290H147V287H144ZM144 277H147V274H144V277ZM139 277V274H136V277H139ZM134 287V284H131V287H134ZM134 302V305H137V302H134ZM129 302V299H126V302H129ZM119 297V300H122V297H119ZM114 297H111V300H114V297ZM119 282V279H116V282H119ZM124 282V285H127V282H124ZM124 267V264H121V267H124ZM129 267V270H132V267H129ZM129 257H132V254H129V257ZM119 257H116V260H119V257ZM119 252H122V249H119V252ZM109 252V249H106V252H109ZM109 257H106V260H109V257ZM114 257H117V254H114V257ZM114 262H111V265H114V262ZM119 262H122V259H119V262ZM119 272V275H122V272H119ZM114 272V269H111V272H114ZM114 277V280H117V277H114ZM109 277V274H106V277H109ZM109 287H106V290H109V287ZM114 287H117V284H114V287ZM109 185H114V179H109V185ZM112 187V182H106V187H112ZM104 190H109V184H104V190ZM107 192V187H101V192H107ZM99 195H104V189H99V195ZM102 197V192H96V197H102ZM102 202V197H96V202H102ZM94 205H99V199H94V205ZM89 205H94V199H89V205ZM84 205H89V199H84V205ZM87 207V202H81V207H87ZM79 210H84V204H79V210ZM82 212V207H76V212H82ZM74 215H79V209H74V215ZM77 217V212H71V217H77ZM69 220H74V214H69V220ZM72 222V217H66V222H72ZM72 227V222H66V227H72ZM72 232V227H66V232H72ZM64 235H69V229H64V235ZM59 235H64V229H59V235ZM62 237V232H56V237H62ZM54 240H59V234H54V240ZM57 242V237H51V242H57ZM49 245H54V239H49V245ZM52 247V242H46V247H52ZM44 250H49V244H44V250ZM47 252V247H41V252H47ZM39 255H44V249H39V255ZM42 257V252H36V257H42ZM34 260H39V254H34V260ZM37 262V257H31V262H37ZM37 267V262H31V267H37ZM37 272V267H31V272H37ZM37 277V272H31V277H37ZM39 274H34V280H39V274ZM42 282V277H36V282H42ZM42 287V282H36V287H42ZM44 284H39V290H44V284ZM47 292V287H41V292H47ZM49 289H44V295H49V289ZM52 297V292H46V297H52ZM54 294H49V300H54V294ZM59 294H54V300H59V294ZM64 294H59V300H64V294ZM69 294H64V300H69V294ZM74 294H69V300H74V294ZM71 292V297H77V292H71ZM79 289H74V295H79V289ZM84 289H79V295H84V289ZM87 297V292H81V297H87ZM89 294H84V300H89V294ZM94 294H89V300H94V294ZM97 302V297H91V302H97ZM99 299H94V305H99V299ZM104 299H99V305H104V299ZM107 307V302H101V307H107ZM109 304H104V310H109V304ZM112 312V307H106V312H112ZM112 317V312H106V317H112ZM112 322V317H106V322H112ZM114 319H109V325H114V319ZM117 327V322H111V327H117ZM117 332V327H111V332H117ZM119 329H114V335H119V329ZM122 337V332H116V337H122ZM122 342V337H116V342H122ZM124 339H119V345H124V339ZM127 347V342H121V347H127ZM127 352V347H121V352H127ZM119 355H124V349H119V355ZM122 357V352H116V357H122ZM114 360H119V354H114V360ZM111 352V357H117V352H111ZM109 355H114V349H109V355ZM106 347V352H112V347H106ZM104 350H109V344H104V350ZM101 342V347H107V342H101ZM99 345H104V339H99V345ZM102 347V342H96V347H102ZM94 350H99V344H94V350ZM97 352V347H91V352H97ZM99 349H94V355H99V349ZM102 357V352H96V357H102ZM102 362V357H96V362H102ZM104 359H99V365H104V359ZM107 367V362H101V367H107ZM99 370H104V364H99V370ZM94 370H99V364H94V370ZM97 372V367H91V372H97ZM89 375H94V369H89V375ZM92 377V372H86V377H92ZM94 374H89V380H94V374ZM97 382V377H91V382H97ZM99 379H94V385H99V379ZM104 379H99V385H104V379ZM109 379H104V385H109V379ZM114 379H109V385H114V379ZM119 379H114V385H119V379ZM124 379H119V385H124V379ZM129 379H124V385H129V379ZM134 379H129V385H134V379ZM139 379H134V385H139V379ZM144 379H139V385H144V379ZM149 379H144V385H149V379ZM154 379H149V385H154V379ZM159 379H154V385H159V379ZM164 379H159V385H164V379ZM169 379H164V385H169V379ZM174 379H169V385H174V379ZM179 379H174V385H179V379ZM184 379H179V385H184V379ZM181 377V382H187V377H181ZM189 374H184V380H189V374ZM186 372V377H192V372H186ZM184 375H189V369H184V375ZM181 367V372H187V367H181ZM179 370H184V364H179V370ZM174 370H179V364H174V370ZM171 362V367H177V362H171ZM179 359H174V365H179V359ZM176 357V362H182V357H176ZM174 360H179V354H174V360ZM171 352V357H177V352H171ZM169 355H174V349H169V355ZM172 357V352H166V357H172ZM164 360H169V354H164V360ZM167 362V357H161V362H167ZM159 365H164V359H159V365ZM162 367V362H156V367H162ZM154 370H159V364H154V370ZM149 370H154V364H149V370ZM146 362V367H152V362H146ZM146 357V362H152V357H146ZM144 360H149V354H144V360ZM141 352V357H147V352H141ZM141 347V352H147V347H141ZM141 342V347H147V342H141ZM141 337V342H147V337H141ZM141 332V337H147V332H141ZM141 327V332H147V327H141ZM149 324H144V330H149V324ZM154 324H149V330H154V324ZM151 322V327H157V322H151ZM159 319H154V325H159V319ZM156 317V322H162V317H156ZM164 314H159V320H164V314ZM161 312V317H167V312H161ZM169 309H164V315H169V309ZM174 309H169V315H174V309ZM179 309H174V315H179V309ZM176 307V312H182V307H176ZM184 304H179V310H184V304ZM181 302V307H187V302H181ZM189 299H184V305H189V299ZM194 299H189V305H194V299ZM199 299H194V305H199V299ZM196 297V302H202V297H196ZM204 294H199V300H204V294ZM201 292V297H207V292H201ZM209 289H204V295H209V289ZM206 287V292H212V287H206ZM206 282V287H212V282H206ZM206 277V282H212V277H206ZM204 280H209V274H204V280ZM201 272V277H207V272H201ZM199 275H204V269H199V275ZM196 267V272H202V267H196ZM194 270H199V264H194V270ZM191 262V267H197V262H191ZM191 257V262H197V257H191ZM199 254H194V260H199V254ZM196 252V257H202V252H196ZM196 247V252H202V247H196ZM194 250H199V244H194V250ZM191 242V247H197V242H191ZM191 237V242H197V237H191ZM191 232V237H197V232H191ZM189 235H194V229H189V235ZM186 227V232H192V227H186ZM184 230H189V224H184V230ZM181 222V227H187V222H181ZM179 225H184V219H179V225ZM174 225H179V219H174V225ZM169 225H174V219H169V225ZM166 217V222H172V217H166ZM164 220H169V214H164V220ZM159 220H164V214H159V220ZM156 212V217H162V212H156ZM156 207V212H162V207H156ZM154 210H159V204H154V210ZM151 202V207H157V202H151ZM149 205H154V199H149V205ZM146 197V202H152V197H146ZM146 192V197H152V192H146ZM144 195H149V189H144V195ZM141 187V192H147V187H141ZM139 190H144V184H139V190ZM136 182V187H142V182H136ZM134 185H139V179H134V185ZM129 185H134V179H129V185ZM124 185H129V179H124V185ZM119 185H124V179H119V185ZM114 185H119V179H114V185ZM134 319H129V325H134V319ZM131 317V322H137V317H131ZM139 314H134V320H139V314ZM136 312V317H142V312H136ZM144 309H139V315H144V309ZM149 309H144V315H149V309ZM146 307V312H152V307H146ZM146 302V307H152V302H146ZM144 305H149V299H144V305ZM141 297V302H147V297H141ZM139 300H144V294H139V300ZM136 292V297H142V292H136ZM136 287V292H142V287H136ZM144 284H139V290H144V284ZM141 282V287H147V282H141ZM141 277V282H147V277H141ZM139 280H144V274H139V280ZM142 282V277H136V282H142ZM142 287V282H136V287H142ZM134 290H139V284H134V290ZM137 292V287H131V292H137ZM137 297V292H131V297H137ZM137 302V297H131V302H137ZM129 305H134V299H129V305ZM132 307V302H126V307H132ZM132 312V307H126V312H132ZM132 317V312H126V317H132ZM132 322V317H126V322H132ZM119 294H114V300H119V294ZM116 292V297H122V292H116ZM116 287V292H122V287H116ZM116 282V287H122V282H116ZM124 279H119V285H124V279ZM121 277V282H127V277H121ZM121 272V277H127V272H121ZM121 267V272H127V267H121ZM129 264H124V270H129V264ZM126 262V267H132V262H126ZM126 257V262H132V257H126ZM124 260H129V254H124V260ZM119 260H124V254H119V260ZM116 252V257H122V252H116ZM114 255H119V249H114V255ZM109 255H114V249H109V255ZM112 257V252H106V257H112ZM114 254H109V260H114V254ZM117 262V257H111V262H117ZM119 259H114V265H119V259ZM122 267V262H116V267H122ZM122 272V267H116V272H122ZM114 275H119V269H114V275ZM117 277V272H111V277H117ZM109 280H114V274H109V280ZM112 282V277H106V282H112ZM112 287V282H106V287H112ZM114 284H109V290H114V284ZM117 292V287H111V292H117ZM117 297V292H111V297H117Z" fill="#3F3F3F" mask="url(#path-14-inside-6_2572_12254)"/>
<rect x="3" y="139" width="245" height="7" fill="#11A729"/>
</svg>
