<svg width="165" height="77" viewBox="0 0 165 77" fill="none" xmlns="http://www.w3.org/2000/svg">
<path d="M165 66.0064V71.5005H159.501V66.0064H165Z" fill="#CEE0E0"/>
<path d="M165 60.498V66.0068H159.501V60.498H165Z" fill="#CEE0E0"/>
<path d="M165 55.0002V60.4992H159.501V55.0002H165Z" fill="#CEE0E0"/>
<path d="M159.502 71.501V77H154.003V71.501H159.502Z" fill="#CEE0E0"/>
<path d="M159.502 66.0064V71.5005H154.003V66.0064H159.502Z" fill="#CEE0E0"/>
<path d="M159.502 60.498V66.0068H154.003V60.498H159.502Z" fill="#CEE0E0"/>
<path d="M159.502 55.0002V60.4992H154.003V55.0002H159.502Z" fill="#F2F2F2"/>
<path d="M159.502 49.5007V54.9998H154.003V49.5007H159.502Z" fill="white"/>
<path d="M154.003 71.501V77H148.509V71.501H154.003Z" fill="#CEE0E0"/>
<path d="M154.003 66.0064V71.5005H148.509V66.0064H154.003Z" fill="#CEE0E0"/>
<path d="M154.003 60.498V66.0068H148.509V60.498H154.003Z" fill="#F2F2F2"/>
<path d="M154.003 55.0002V60.4992H148.509V55.0002H154.003Z" fill="#F2F2F2"/>
<path d="M154.003 49.5007V54.9998H148.509V49.5007H154.003Z" fill="white"/>
<path d="M154.003 44.0005V49.4995H148.509V44.0005H154.003Z" fill="white"/>
<path d="M154.003 38.5026V44.0017H148.509V38.5026H154.003Z" fill="white"/>
<path d="M154.003 32.9943V38.5031H148.509V32.9943H154.003Z" fill="white"/>
<path d="M148.511 71.501V77H143.012V71.501H148.511Z" fill="#CEE0E0"/>
<path d="M148.511 66.0064V71.5005H143.012V66.0064H148.511Z" fill="#CEE0E0"/>
<path d="M148.511 60.498V66.0068H143.012V60.498H148.511Z" fill="#F2F2F2"/>
<path d="M148.511 55.0002V60.4992H143.012V55.0002H148.511Z" fill="#F2F2F2"/>
<path d="M148.511 49.5007V54.9998H143.012V49.5007H148.511Z" fill="#F2F2F2"/>
<path d="M148.511 44.0005V49.4995H143.012V44.0005H148.511Z" fill="#F2F2F2"/>
<path d="M148.511 38.5026V44.0017H143.012V38.5026H148.511Z" fill="#F2F2F2"/>
<path d="M148.511 32.9943V38.5031H143.012V32.9943H148.511Z" fill="white"/>
<path d="M148.511 27.5005V32.9943H143.012V27.5005H148.511Z" fill="white"/>
<path d="M143.012 66.0064V71.5005H137.503V66.0064H143.012Z" fill="#CEE0E0"/>
<path d="M143.012 60.498V66.0068H137.503V60.498H143.012Z" fill="#CEE0E0"/>
<path d="M143.012 55.0002V60.4992H137.503V55.0002H143.012Z" fill="#F2F2F2"/>
<path d="M143.012 49.5007V54.9998H137.503V49.5007H143.012Z" fill="#F2F2F2"/>
<path d="M143.012 44.0005V49.4995H137.503V44.0005H143.012Z" fill="#F2F2F2"/>
<path d="M143.012 38.5026V44.0017H137.503V38.5026H143.012Z" fill="#F2F2F2"/>
<path d="M143.012 32.9943V38.5031H137.503V32.9943H143.012Z" fill="#F2F2F2"/>
<path d="M143.012 27.5005V32.9943H137.503V27.5005H143.012Z" fill="white"/>
<path d="M137.501 71.501V77H132.002V71.501H137.501Z" fill="#CEE0E0"/>
<path d="M137.501 66.0064V71.5005H132.002V66.0064H137.501Z" fill="#CEE0E0"/>
<path d="M137.501 60.498V66.0068H132.002V60.498H137.501Z" fill="#CEE0E0"/>
<path d="M137.501 55.0002V60.4992H132.002V55.0002H137.501Z" fill="#F2F2F2"/>
<path d="M137.501 49.5007V54.9998H132.002V49.5007H137.501Z" fill="#F2F2F2"/>
<path d="M137.501 44.0005V49.4995H132.002V44.0005H137.501Z" fill="#CEE0E0"/>
<path d="M137.501 38.5026V44.0017H132.002V38.5026H137.501Z" fill="#CEE0E0"/>
<path d="M137.501 32.9943V38.5031H132.002V32.9943H137.501Z" fill="#F2F2F2"/>
<path d="M137.501 27.5005V32.9943H132.002V27.5005H137.501Z" fill="white"/>
<path d="M137.501 22.0002V27.4993H132.002V22.0002H137.501Z" fill="white"/>
<path d="M132.003 71.501V77H126.504V71.501H132.003Z" fill="#CEE0E0"/>
<path d="M132.003 66.0064V71.5005H126.504V66.0064H132.003Z" fill="#CEE0E0"/>
<path d="M132.003 60.498V66.0068H126.504V60.498H132.003Z" fill="#CEE0E0"/>
<path d="M132.003 55.0002V60.4992H126.504V55.0002H132.003Z" fill="#F2F2F2"/>
<path d="M132.003 49.5007V54.9998H126.504V49.5007H132.003Z" fill="#F2F2F2"/>
<path d="M132.003 44.0005V49.4995H126.504V44.0005H132.003Z" fill="#CEE0E0"/>
<path d="M132.003 38.5026V44.0017H126.504V38.5026H132.003Z" fill="#F2F2F2"/>
<path d="M132.003 32.9943V38.5031H126.504V32.9943H132.003Z" fill="#F2F2F2"/>
<path d="M132.003 27.5005V32.9943H126.504V27.5005H132.003Z" fill="#F2F2F2"/>
<path d="M132.003 22.0002V27.4993H126.504V22.0002H132.003Z" fill="white"/>
<path d="M126.504 71.501V77H121.01V71.501H126.504Z" fill="#CEE0E0"/>
<path d="M126.504 66.0064V71.5005H121.01V66.0064H126.504Z" fill="#CEE0E0"/>
<path d="M126.504 60.498V66.0068H121.01V60.498H126.504Z" fill="#CEE0E0"/>
<path d="M126.504 55.0002V60.4992H121.01V55.0002H126.504Z" fill="#CEE0E0"/>
<path d="M126.504 49.5007V54.9998H121.01V49.5007H126.504Z" fill="#CEE0E0"/>
<path d="M126.504 44.0005V49.4995H121.01V44.0005H126.504Z" fill="#CEE0E0"/>
<path d="M126.504 38.5026V44.0017H121.01V38.5026H126.504Z" fill="#CEE0E0"/>
<path d="M126.504 32.9943V38.5031H121.01V32.9943H126.504Z" fill="#F2F2F2"/>
<path d="M126.504 27.5005V32.9943H121.01L121.01 27.5005H126.504Z" fill="#F2F2F2"/>
<path d="M126.504 22.0002V27.4993H121.01V22.0002H126.504Z" fill="white"/>
<path d="M121.011 71.501V77H115.512V71.501H121.011Z" fill="#CEE0E0"/>
<path d="M121.011 66.0064V71.5005H115.512V66.0064H121.011Z" fill="#CEE0E0"/>
<path d="M121.011 60.498V66.0068H115.512V60.498H121.011Z" fill="#CEE0E0"/>
<path d="M121.011 55.0002V60.4992H115.512V55.0002H121.011Z" fill="#CEE0E0"/>
<path d="M121.011 49.5007V54.9998H115.512V49.5007H121.011Z" fill="#CEE0E0"/>
<path d="M121.011 44.0005V49.4995H115.512V44.0005H121.011Z" fill="#F2F2F2"/>
<path d="M121.011 38.5026V44.0017H115.512V38.5026H121.011Z" fill="#CEE0E0"/>
<path d="M121.011 32.9943V38.5031H115.512V32.9943H121.011Z" fill="#F2F2F2"/>
<path d="M121.011 27.5005V32.9943H115.512V27.5005H121.011Z" fill="#F2F2F2"/>
<path d="M121.011 22.0002V27.4993H115.512V22.0002H121.011Z" fill="white"/>
<path d="M121.011 16.5008V21.9998H115.512V16.5008H121.011Z" fill="white"/>
<path d="M115.512 71.501V77H110.004V71.501H115.512Z" fill="#CEE0E0"/>
<path d="M115.512 66.0064V71.5005H110.004V66.0064H115.512Z" fill="#CEE0E0"/>
<path d="M115.512 60.498V66.0068H110.004V60.498H115.512Z" fill="#CEE0E0"/>
<path d="M115.512 55.0002V60.4992H110.004V55.0002H115.512Z" fill="#CEE0E0"/>
<path d="M115.512 49.5007V54.9998H110.004V49.5007H115.512Z" fill="#F2F2F2"/>
<path d="M115.512 44.0005V49.4995H110.004V44.0005H115.512Z" fill="#F2F2F2"/>
<path d="M115.512 38.5026V44.0017H110.004V38.5026H115.512Z" fill="#F2F2F2"/>
<path d="M115.512 32.9943V38.5031H110.004V32.9943H115.512Z" fill="#F2F2F2"/>
<path d="M115.512 27.5005V32.9943H110.004V27.5005H115.512Z" fill="#F2F2F2"/>
<path d="M115.512 22.0002V27.4993H110.004V22.0002H115.512Z" fill="#F2F2F2"/>
<path d="M115.512 16.5008V21.9998H110.004V16.5008H115.512Z" fill="white"/>
<path d="M115.512 11.0029V16.502H110.004V11.0029H115.512Z" fill="white"/>
<path d="M115.512 5.49462V11.0034H110.004V5.49462H115.512Z" fill="white"/>
<path d="M110.001 66.0064V71.5005H104.502V66.0064H110.001Z" fill="#CEE0E0"/>
<path d="M110.001 60.498V66.0068H104.502V60.498H110.001Z" fill="#CEE0E0"/>
<path d="M110.001 55.0002V60.4992H104.502V55.0002H110.001Z" fill="#F2F2F2"/>
<path d="M110.001 49.5007V54.9998H104.502V49.5007H110.001Z" fill="#F2F2F2"/>
<path d="M110.001 44.0005V49.4995H104.502V44.0005H110.001Z" fill="#F2F2F2"/>
<path d="M110.001 38.5026V44.0017H104.502V38.5026H110.001Z" fill="#F2F2F2"/>
<path d="M110.001 32.9943V38.5031H104.502V32.9943H110.001Z" fill="#F2F2F2"/>
<path d="M110.001 27.5005V32.9943H104.502V27.5005H110.001Z" fill="#F2F2F2"/>
<path d="M110.001 22.0002V27.4993H104.502V22.0002H110.001Z" fill="#F2F2F2"/>
<path d="M110.001 16.5008V21.9998H104.502V16.5008H110.001Z" fill="#F2F2F2"/>
<path d="M110.001 11.0029V16.502H104.502V11.0029H110.001Z" fill="#F2F2F2"/>
<path d="M110.001 5.49462V11.0034H104.502V5.49462H110.001Z" fill="white"/>
<path d="M110.001 0V5.49416H104.502V0H110.001Z" fill="white"/>
<path d="M104.504 66.0064V71.5005H99.0048V66.0064H104.504Z" fill="#CEE0E0"/>
<path d="M104.504 60.498V66.0068H99.0048V60.498H104.504Z" fill="#CEE0E0"/>
<path d="M104.504 55.0002V60.4992H99.0048V55.0002H104.504Z" fill="#F2F2F2"/>
<path d="M104.504 49.5007V54.9998H99.0048V49.5007H104.504Z" fill="#F2F2F2"/>
<path d="M104.504 44.0005V49.4995H99.0048V44.0005H104.504Z" fill="white"/>
<path d="M104.504 38.5026V44.0017H99.0048V38.5026H104.504Z" fill="white"/>
<path d="M104.504 32.9943V38.5031H99.0048V32.9943H104.504Z" fill="white"/>
<path d="M104.504 27.5005V32.9943H99.0048V27.5005H104.504Z" fill="#F2F2F2"/>
<path d="M104.504 22.0002V27.4993H99.0048V22.0002H104.504Z" fill="#F2F2F2"/>
<path d="M104.504 16.5008V21.9998H99.0048V16.5008H104.504Z" fill="#F2F2F2"/>
<path d="M104.504 11.0029V16.502H99.0048V11.0029H104.504Z" fill="#F2F2F2"/>
<path d="M104.504 5.49462V11.0034H99.0048V5.49462H104.504Z" fill="#F2F2F2"/>
<path d="M104.504 0V5.49416H99.0048V0H104.504Z" fill="white"/>
<path d="M99.0048 66.0064V71.5005H93.5111V66.0064H99.0048Z" fill="#CEE0E0"/>
<path d="M99.0048 60.498V66.0068H93.5111V60.498H99.0048Z" fill="#F2F2F2"/>
<path d="M99.0048 55.0002V60.4992H93.5111V55.0002H99.0048Z" fill="#F2F2F2"/>
<path d="M99.0048 49.5007V54.9998H93.5111V49.5007H99.0048Z" fill="#F2F2F2"/>
<path d="M99.0048 44.0005V49.4995H93.5111V44.0005H99.0048Z" fill="white"/>
<path d="M99.0048 38.5026V44.0017H93.5111V38.5026H99.0048Z" fill="white"/>
<path d="M99.0048 32.9943V38.5031H93.5111V32.9943H99.0048Z" fill="white"/>
<path d="M99.0048 27.5005L99.0051 32.9947L93.5111 32.9943V27.5005H99.0048Z" fill="#F2F2F2"/>
<path d="M99.0048 22.0002V27.4993H93.5111V22.0002H99.0048Z" fill="#F2F2F2"/>
<path d="M99.0048 16.5008V21.9998H93.5111V16.5008H99.0048Z" fill="#F2F2F2"/>
<path d="M99.0048 11.0029V16.502H93.5111V11.0029H99.0048Z" fill="#F2F2F2"/>
<path d="M99.0048 5.49462V11.0034H93.5111V5.49462H99.0048Z" fill="#F2F2F2"/>
<path d="M99.0048 0V5.49416H93.5111V0H99.0048Z" fill="white"/>
<path d="M93.5123 66.0064V71.5005H88.0134V66.0064H93.5123Z" fill="#CEE0E0"/>
<path d="M93.5123 60.498V66.0068H88.0134V60.498H93.5123Z" fill="#F2F2F2"/>
<path d="M93.5123 55.0002V60.4992H88.0134V55.0002H93.5123Z" fill="#F2F2F2"/>
<path d="M93.5123 49.5007V54.9998H88.0134V49.5007H93.5123Z" fill="#F2F2F2"/>
<path d="M93.5123 44.0005V49.4995H88.0134V44.0005H93.5123Z" fill="white"/>
<path d="M93.5123 38.5026V44.0017H88.0134V38.5026H93.5123Z" fill="white"/>
<path d="M93.5123 32.9943V38.5031H88.0134V32.9943H93.5123Z" fill="#F2F2F2"/>
<path d="M93.5123 27.5005V32.9943H88.0134V27.5005H93.5123Z" fill="#F2F2F2"/>
<path d="M93.5123 22.0002V27.4993H88.0134V22.0002H93.5123Z" fill="#F2F2F2"/>
<path d="M93.5123 16.5008V21.9998H88.0134V16.5008H93.5123Z" fill="white"/>
<path d="M93.5123 11.0029V16.502H88.0134V11.0029H93.5123Z" fill="white"/>
<path d="M93.5123 5.49462V11.0034H88.0134V5.49462H93.5123Z" fill="#F2F2F2"/>
<path d="M93.5123 0V5.49416H88.0134V0H93.5123Z" fill="#F2F2F2"/>
<path d="M88.0134 66.0064V71.5005H82.5049V66.0064H88.0134Z" fill="#CEE0E0"/>
<path d="M88.0134 60.498V66.0068H82.5049V60.498H88.0134Z" fill="#CEE0E0"/>
<path d="M88.0134 55.0002V60.4992H82.5049V55.0002H88.0134Z" fill="#F2F2F2"/>
<path d="M88.0134 49.5007V54.9998H82.5049V49.5007H88.0134Z" fill="#F2F2F2"/>
<path d="M88.0134 44.0005V49.4995H82.5049V44.0005H88.0134Z" fill="#F2F2F2"/>
<path d="M88.0134 38.5026V44.0017H82.5049V38.5026H88.0134Z" fill="#F2F2F2"/>
<path d="M88.0134 32.9943V38.5031H82.5049V32.9943H88.0134Z" fill="#F2F2F2"/>
<path d="M88.0134 27.5005V32.9943H82.5049V27.5005H88.0134Z" fill="#CEE0E0"/>
<path d="M88.0134 22.0002V27.4993H82.5049V22.0002H88.0134Z" fill="#F2F2F2"/>
<path d="M88.0134 16.5008V21.9998H82.5049V16.5008H88.0134Z" fill="white"/>
<path d="M88.0134 11.0029V16.502H82.5049V11.0029H88.0134Z" fill="white"/>
<path d="M88.0134 5.49462V11.0034H82.5049V5.49462H88.0134Z" fill="#F2F2F2"/>
<path d="M88.0134 0V5.49416H82.5049V0H88.0134Z" fill="#F2F2F2"/>
<path d="M82.5024 66.0064V71.5005H77.0035V66.0064H82.5024Z" fill="#CEE0E0"/>
<path d="M82.5024 60.498V66.0068H77.0035V60.498H82.5024Z" fill="#CEE0E0"/>
<path d="M82.5024 55.0002V60.4992H77.0035V55.0002H82.5024Z" fill="#F2F2F2"/>
<path d="M82.5024 49.5007V54.9998H77.0035V49.5007H82.5024Z" fill="#F2F2F2"/>
<path d="M82.5024 44.0005V49.4995H77.0035V44.0005H82.5024Z" fill="#F2F2F2"/>
<path d="M82.5024 38.5026V44.0017H77.0035V38.5026H82.5024Z" fill="#F2F2F2"/>
<path d="M82.5024 32.9943V38.5031H77.0035V32.9943H82.5024Z" fill="#CEE0E0"/>
<path d="M82.5024 27.5005V32.9943H77.0035V27.5005H82.5024Z" fill="#CEE0E0"/>
<path d="M82.5024 22.0002V27.4993H77.0035V22.0002H82.5024Z" fill="#F2F2F2"/>
<path d="M82.5024 16.5008V21.9998H77.0035V16.5008H82.5024Z" fill="#F2F2F2"/>
<path d="M82.5024 11.0029V16.502H77.0035V11.0029H82.5024Z" fill="#F2F2F2"/>
<path d="M82.5024 5.49462V11.0034H77.0035V5.49462H82.5024Z" fill="#F2F2F2"/>
<path d="M82.5024 0V5.49416H77.0035V0H82.5024Z" fill="white"/>
<path d="M77.0047 66.0064V71.5005H71.5058V66.0064H77.0047Z" fill="#CEE0E0"/>
<path d="M77.0047 60.498V66.0068H71.5058V60.498H77.0047Z" fill="#CEE0E0"/>
<path d="M77.0047 55.0002V60.4992H71.5058V55.0002H77.0047Z" fill="#F2F2F2"/>
<path d="M77.0047 49.5007V54.9998H71.5058V49.5007H77.0047Z" fill="#F2F2F2"/>
<path d="M77.0047 44.0005V49.4995H71.5058V44.0005H77.0047Z" fill="#F2F2F2"/>
<path d="M77.0047 38.5026V44.0017H71.5058V38.5026H77.0047Z" fill="#CEE0E0"/>
<path d="M77.0046 32.9943V38.5031H71.5057V32.9943H77.0046Z" fill="#CEE0E0"/>
<path d="M77.0047 27.5005L77.0046 32.9943H71.5057L71.5058 27.5005H77.0047Z" fill="#F2F2F2"/>
<path d="M77.0047 22.0002V27.4993H71.5058V22.0002H77.0047Z" fill="#F2F2F2"/>
<path d="M77.0046 16.5008V21.9998H71.5057V16.5008H77.0046Z" fill="#F2F2F2"/>
<path d="M77.0047 11.0029V16.502H71.5058V11.0029H77.0047Z" fill="#F2F2F2"/>
<path d="M77.0047 5.49462V11.0034H71.5058V5.49462H77.0047Z" fill="white"/>
<path d="M77.0047 0V5.49416H71.5058V0H77.0047Z" fill="white"/>
<path d="M71.5058 66.0064V71.5005H66.0118V66.0064H71.5058Z" fill="#CEE0E0"/>
<path d="M71.5058 60.498V66.0068H66.0118V60.498H71.5058Z" fill="#CEE0E0"/>
<path d="M71.5058 55.0002V60.4992H66.0118V55.0002H71.5058Z" fill="#CEE0E0"/>
<path d="M71.5058 49.5007V54.9998H66.0118V49.5007H71.5058Z" fill="#CEE0E0"/>
<path d="M71.5058 44.0005V49.4995H66.0118V44.0005H71.5058Z" fill="#CEE0E0"/>
<path d="M71.5058 38.5026V44.0017H66.0118V38.5026H71.5058Z" fill="#CEE0E0"/>
<path d="M71.5057 32.9943V38.5031H66.0118V32.9943H71.5057Z" fill="#CEE0E0"/>
<path d="M71.5058 27.5005L71.5057 32.9943H66.0118V27.5005H71.5058Z" fill="#F2F2F2"/>
<path d="M71.5058 22.0002V27.4993H66.0118V22.0002H71.5058Z" fill="#F2F2F2"/>
<path d="M71.5057 16.5008V21.9998H66.0118V16.5008H71.5057Z" fill="#F2F2F2"/>
<path d="M71.5058 11.0029V16.502H66.0118V11.0029H71.5058Z" fill="#F2F2F2"/>
<path d="M71.5058 5.49462V11.0034H66.0118V5.49462H71.5058Z" fill="white"/>
<path d="M66.013 66.0064V71.5005H60.5141V66.0064H66.013Z" fill="#CEE0E0"/>
<path d="M66.013 60.498V66.0068H60.5141V60.498H66.013Z" fill="#CEE0E0"/>
<path d="M66.013 55.0002V60.4992H60.5141V55.0002H66.013Z" fill="#CEE0E0"/>
<path d="M66.013 49.5007V54.9998H60.5141V49.5007H66.013Z" fill="#CEE0E0"/>
<path d="M66.013 44.0005V49.4995H60.5141V44.0005H66.013Z" fill="#CEE0E0"/>
<path d="M66.013 38.5026V44.0017H60.5141V38.5026H66.013Z" fill="#CEE0E0"/>
<path d="M66.013 32.9943V38.5031H60.5141V32.9943H66.013Z" fill="#CEE0E0"/>
<path d="M66.013 27.5005V32.9943H60.5141V27.5005H66.013Z" fill="#F2F2F2"/>
<path d="M66.013 22.0002V27.4993H60.5141V22.0002H66.013Z" fill="#F2F2F2"/>
<path d="M66.013 16.5008V21.9998H60.5141V16.5008H66.013Z" fill="#F2F2F2"/>
<path d="M66.013 11.0029V16.502H60.5141V11.0029H66.013Z" fill="white"/>
<path d="M66.013 5.49462V11.0034H60.5141V5.49462H66.013Z" fill="white"/>
<path d="M60.5141 66.0064V71.5005H55.0055V66.0064H60.5141Z" fill="#CEE0E0"/>
<path d="M60.5141 60.498V66.0068H55.0055V60.498H60.5141Z" fill="#CEE0E0"/>
<path d="M60.5141 55.0002V60.4992H55.0055V55.0002H60.5141Z" fill="#CEE0E0"/>
<path d="M60.5141 49.5007V54.9998H55.0055V49.5007H60.5141Z" fill="#CEE0E0"/>
<path d="M60.5141 44.0005V49.4995H55.0055V44.0005H60.5141Z" fill="#F2F2F2"/>
<path d="M60.5141 38.5026V44.0017H55.0055V38.5026H60.5141Z" fill="#F2F2F2"/>
<path d="M60.5141 32.9943V38.5031H55.0055V32.9943H60.5141Z" fill="#CEE0E0"/>
<path d="M60.5141 27.5005V32.9943H55.0055V27.5005H60.5141Z" fill="#CEE0E0"/>
<path d="M60.5141 22.0002V27.4993H55.0055V22.0002H60.5141Z" fill="#F2F2F2"/>
<path d="M60.5141 16.5008V21.9998H55.0055V16.5008H60.5141Z" fill="white"/>
<path d="M55.0031 71.501V77H49.5042V71.501H55.0031Z" fill="#CEE0E0"/>
<path d="M55.0031 66.0064V71.5005H49.5042V66.0064H55.0031Z" fill="#CEE0E0"/>
<path d="M55.0031 60.498V66.0068H49.5042V60.498H55.0031Z" fill="#CEE0E0"/>
<path d="M55.0031 55.0002V60.4992H49.5042V55.0002H55.0031Z" fill="#F2F2F2"/>
<path d="M55.0031 49.5007V54.9998H49.5042V49.5007H55.0031Z" fill="#F2F2F2"/>
<path d="M55.0031 44.0005V49.4995H49.5042V44.0005H55.0031Z" fill="#F2F2F2"/>
<path d="M55.0031 38.5026V44.0017H49.5042V38.5026H55.0031Z" fill="#F2F2F2"/>
<path d="M55.0031 32.9943V38.5031H49.5042V32.9943H55.0031Z" fill="#F2F2F2"/>
<path d="M55.0031 27.5005V32.9943H49.5042V27.5005H55.0031Z" fill="white"/>
<path d="M55.0031 22.0002V27.4993H49.5042V22.0002H55.0031Z" fill="white"/>
<path d="M49.5054 71.501V77H44.0065V71.501H49.5054Z" fill="#CEE0E0"/>
<path d="M49.5054 66.0064V71.5005H44.0065V66.0064H49.5054Z" fill="#CEE0E0"/>
<path d="M49.5054 60.498V66.0068H44.0065V60.498H49.5054Z" fill="#F2F2F2"/>
<path d="M49.5054 55.0002V60.4992H44.0065V55.0002H49.5054Z" fill="#F2F2F2"/>
<path d="M49.5054 49.5007V54.9998H44.0065V49.5007H49.5054Z" fill="#F2F2F2"/>
<path d="M49.5054 44.0005V49.4995H44.0065V44.0005H49.5054Z" fill="#F2F2F2"/>
<path d="M49.5054 38.5026V44.0017H44.0065V38.5026H49.5054Z" fill="#F2F2F2"/>
<path d="M49.5054 32.9943V38.5031H44.0065V32.9943H49.5054Z" fill="white"/>
<path d="M49.5054 27.5005V32.9943H44.0065V27.5005H49.5054Z" fill="white"/>
<path d="M44.0077 71.501V77H38.5088V71.501H44.0077Z" fill="#CEE0E0"/>
<path d="M44.0077 66.0064V71.5005H38.5088V66.0064H44.0077Z" fill="#CEE0E0"/>
<path d="M44.0077 60.498V66.0068H38.5088V60.498H44.0077Z" fill="#F2F2F2"/>
<path d="M44.0077 55.0002V60.4992H38.5088V55.0002H44.0077Z" fill="#F2F2F2"/>
<path d="M44.0077 49.5007V54.9998H38.5088V49.5007H44.0077Z" fill="#F2F2F2"/>
<path d="M44.0077 44.0005V49.4995H38.5088V44.0005H44.0077Z" fill="#F2F2F2"/>
<path d="M44.0077 38.5026V44.0017H38.5088V38.5026H44.0077Z" fill="white"/>
<path d="M44.0078 32.9943V38.5031H38.5089V32.9943H44.0078Z" fill="white"/>
<path d="M38.5088 71.501V77H33.0148V71.501H38.5088Z" fill="#CEE0E0"/>
<path d="M38.5088 66.0064V71.5005H33.0148V66.0064H38.5088Z" fill="#F2F2F2"/>
<path d="M38.5088 60.498V66.0068H33.0148V60.498H38.5088Z" fill="#F2F2F2"/>
<path d="M38.5088 55.0002V60.4992H33.0148V55.0002H38.5088Z" fill="#F2F2F2"/>
<path d="M38.5088 49.5007V54.9998H33.0148V49.5007H38.5088Z" fill="white"/>
<path d="M38.5088 44.0005V49.4995H33.0148V44.0005H38.5088Z" fill="white"/>
<path d="M38.5088 38.5026V44.0017H33.0148V38.5026H38.5088Z" fill="white"/>
<path d="M33.0148 71.501V77H27.5062V71.501H33.0148Z" fill="#CEE0E0"/>
<path d="M33.0148 66.0064V71.5005H27.5062V66.0064H33.0148Z" fill="#F2F2F2"/>
<path d="M33.0148 60.498V66.0068H27.5062V60.498H33.0148Z" fill="#F2F2F2"/>
<path d="M33.0148 55.0002V60.4992H27.5062V55.0002H33.0148Z" fill="#F2F2F2"/>
<path d="M33.0148 49.5007V54.9998H27.5062V49.5007H33.0148Z" fill="white"/>
<path d="M27.5037 71.501V77H22.0049V71.501H27.5037Z" fill="#CEE0E0"/>
<path d="M27.5037 66.0064V71.5005H22.0049V66.0064H27.5037Z" fill="#F2F2F2"/>
<path d="M27.5037 60.498V66.0068H22.0049V60.498H27.5037Z" fill="#F2F2F2"/>
<path d="M27.5037 55.0002V60.4992H22.0049V55.0002H27.5037Z" fill="#F2F2F2"/>
<path d="M27.5037 49.5007V54.9998H22.0049V49.5007H27.5037Z" fill="white"/>
<path d="M27.5037 44.0005V49.4995H22.0049V44.0005H27.5037Z" fill="white"/>
<path d="M22.006 71.501V77H16.5072V71.501H22.006Z" fill="#CEE0E0"/>
<path d="M22.006 66.0064V71.5005H16.5072V66.0064H22.006Z" fill="#F2F2F2"/>
<path d="M22.006 60.498V66.0068H16.5072V60.498H22.006Z" fill="#F2F2F2"/>
<path d="M22.006 55.0002V60.4992H16.5072V55.0002H22.006Z" fill="#F2F2F2"/>
<path d="M22.006 49.5007V54.9998H16.5072V49.5007H22.006Z" fill="#F2F2F2"/>
<path d="M22.006 44.0005V49.4995H16.5072V44.0005H22.006Z" fill="white"/>
<path d="M16.5088 71.501V77H11.0099V71.501H16.5088Z" fill="#CEE0E0"/>
<path d="M16.5088 66.0064V71.5005H11.0099V66.0064H16.5088Z" fill="#CEE0E0"/>
<path d="M16.5088 60.498V66.0068H11.0099V60.498H16.5088Z" fill="#F2F2F2"/>
<path d="M16.5088 55.0002V60.4992H11.0099V55.0002H16.5088Z" fill="#F2F2F2"/>
<path d="M16.5088 49.5007V54.9998H11.0099V49.5007H16.5088Z" fill="#F2F2F2"/>
<path d="M16.5088 44.0005V49.4995H11.0099V44.0005H16.5088Z" fill="white"/>
<path d="M11.0074 71.501V77H5.50857V71.501H11.0074Z" fill="#CEE0E0"/>
<path d="M11.0074 66.0064V71.5005H5.50857V66.0064H11.0074Z" fill="#CEE0E0"/>
<path d="M11.0074 60.498V66.0068H5.50857V60.498H11.0074Z" fill="#CEE0E0"/>
<path d="M11.0074 55.0002V60.4992H5.50857V55.0002H11.0074Z" fill="#F2F2F2"/>
<path d="M11.0074 49.5007V54.9998H5.50857V49.5007H11.0074Z" fill="#F2F2F2"/>
<path d="M11.0074 44.0005V49.4995H5.50857V44.0005H11.0074Z" fill="#F2F2F2"/>
<path d="M5.50857 66.0064V71.5005H0V66.0064H5.50857Z" fill="#F2F2F2"/>
<path d="M5.50857 60.498V66.0068H0V60.498H5.50857Z" fill="#F2F2F2"/>
<path d="M5.50857 55.0002V60.4992H0V55.0002H5.50857Z" fill="#F2F2F2"/>
<path d="M5.50857 49.5007V54.9998H0V49.5007H5.50857Z" fill="#F2F2F2"/>
</svg>
