<svg width="53" height="53" viewBox="0 0 53 53" fill="none" xmlns="http://www.w3.org/2000/svg">
<path fill-rule="evenodd" clip-rule="evenodd" d="M49.9546 18L49.2275 19.0906L31.6366 36.6815L52.2275 36.6815V18.4997H49.9546V18ZM20.2734 48.0447L31.6363 36.6818L49.9546 36.6818V41.2273H47.6821V43.4997L45.4094 43.4997V45.7724H43.1367V48.0447L20.2734 48.0447ZM18 50.3181L20.2727 48.0454H40.8638V50.3181H36.3185V52.5906H18.1366V50.3181H18Z" fill="#3F3F3F"/>
<path fill-rule="evenodd" clip-rule="evenodd" d="M34.0909 0L15.9091 2.98032e-06V2.27246L11.3638 2.27246V4.5452L38.6365 4.54519V2.27246L34.0909 2.27246V0ZM9.09082 4.5459L40.909 4.5459V6.81818L43.1818 6.81818L43.1818 9.09091L45.4545 9.09091V11.3636L4.54545 11.3636L4.54545 9.09091L6.81818 9.09092L6.81818 6.81818L9.09082 6.81818V4.5459ZM9.091 43.1818H6.81818V40.9091L4.54545 40.9091V38.6367H2.27251L2.27251 34.0913L47.7271 34.0913V38.6367H45.4545V40.9091L43.1818 40.9091V43.1818H40.9092V45.4541L9.091 45.4541V43.1818ZM47.7271 11.3641V15.9091H50V34.0909L0 34.0909V15.9091H2.27251L2.27251 11.3641L47.7271 11.3641ZM11.3635 47.7275H15.9091V50H34.0909V47.7275H38.6362V45.4548H11.3635V47.7275Z" fill="#227330"/>
</svg>
