<svg width="53" height="54" viewBox="0 0 53 54" fill="none" xmlns="http://www.w3.org/2000/svg">
<path fill-rule="evenodd" clip-rule="evenodd" d="M49.9546 18.5898L49.2275 19.6804L31.6366 37.2713L52.2275 37.2713V19.0895H49.9546V18.5898ZM20.2734 48.6345L31.6363 37.2717L49.9546 37.2717V41.8171H47.6821V44.0895L45.4094 44.0895V46.3622H43.1367V48.6345L20.2734 48.6345ZM18 50.908L20.2727 48.6352H40.8638V50.908H36.3185V53.1804H18.1366V50.908H18Z" fill="#3F3F3F"/>
<path fill-rule="evenodd" clip-rule="evenodd" d="M34.0909 0.589841L15.9091 0.589844V2.8623L11.3638 2.8623V5.13504L38.6365 5.13503V2.8623L34.0909 2.8623V0.589841ZM9.09082 5.13574L40.909 5.13574V7.40802L43.1818 7.40802L43.1818 9.68075L45.4545 9.68075V11.9535L4.54545 11.9535L4.54545 9.68075L6.81818 9.68076L6.81818 7.40803L9.09082 7.40803V5.13574ZM9.091 43.7717H6.81818V41.4989L4.54545 41.4989V39.2266H2.27251L2.27251 34.6811L47.7271 34.6811V39.2266H45.4545V41.4989L43.1818 41.4989V43.7717H40.9092V46.0439L9.091 46.0439V43.7717ZM47.7271 11.9539V16.4989H50V34.6808L0 34.6808V16.4989H2.27251L2.27251 11.9539L47.7271 11.9539ZM11.3635 48.3174H15.9091V50.5898H34.0909V48.3174H38.6362V46.0447H11.3635V48.3174Z" fill="#11A729"/>
</svg>
