<svg width="696" height="690" viewBox="0 0 696 690" fill="none" xmlns="http://www.w3.org/2000/svg">
<rect x="15" y="14.6367" width="667" height="110.687" fill="#FED001"/>
<rect x="15" y="125" width="667" height="549" fill="white"/>
<path d="M73.7091 16H96.5681H119.436H142.277H165.145H187.986H210.855H233.714H256.564H279.423H302.291H325.132H348H370.85H393.709H416.568H439.418H462.277H485.145H507.995H530.855H553.704H576.564H599.423H622.273H645.132H668V0H645.132H622.273H599.423H576.564H553.704H530.855H507.995H485.145H462.277H439.418H416.568H393.709H370.85H348H325.132H302.291H279.423H256.564H233.714H210.855H187.986H165.145H142.277H119.436H96.5681H73.7091H50.8591H28V16H50.8591H73.7091Z" fill="#3F3F3F"/>
<path d="M73.7091 689.939H96.5681H119.436H142.277H165.145H187.986H210.855H233.714H256.564H279.423H302.291H325.132H348H370.85H393.709H416.568H439.418H462.277H485.145H507.995H530.855H553.704H576.564H599.423H622.273H645.132H668V674.158H645.132H622.273H599.423H576.564H553.704H530.855H507.995H485.145H462.277H439.418H416.568H393.709H370.85H348H325.132H302.291H279.423H256.564H233.714H210.855H187.986H165.145H142.277H119.436H96.5681H73.7091H50.8591H28V689.939H50.8591H73.7091Z" fill="#3F3F3F"/>
<path d="M30.1918 14H14V29.781H30.1918V14Z" fill="#3F3F3F"/>
<path d="M30.1918 660H14V675.781H30.1918V660Z" fill="#3F3F3F"/>
<path d="M684.192 14H668V29.781H684.192V14Z" fill="#3F3F3F"/>
<path d="M684.192 660H668V675.781H684.192V660Z" fill="#3F3F3F"/>
<path d="M15 70.173V28H1V70.173V618.81V661H15V618.81V70.173Z" fill="#3F3F3F"/>
<path d="M694.973 70.1716L694.969 27.9986L680.969 28L680.973 70.173L681.027 618.81L681.031 661L695.031 660.999L695.027 618.809L694.973 70.1716Z" fill="#3F3F3F"/>
</svg>
