<svg width="768" height="56" viewBox="0 0 768 56" fill="none" xmlns="http://www.w3.org/2000/svg">
<path d="M758.78 9.44441V5H9.21891V9.44441H5V40.5556H9.21891V45H758.78V40.5556H763V9.44441H758.78Z" fill="white"/>
<path d="M11 45V50H757V45H11Z" fill="#3F3F3F"/>
<path d="M757 5V0H11V5H757Z" fill="#3F3F3F"/>
<path d="M5 39V45H11V39H5Z" fill="#3F3F3F"/>
<path d="M11 5H5V11H11V5Z" fill="#3F3F3F"/>
<path d="M5 11H0V39H5V11Z" fill="#3F3F3F"/>
<path d="M25 8H20V36H25V8Z" fill="#3F3F3F"/>
<path d="M763 11V39H768V11H763Z" fill="#3F3F3F"/>
<path d="M757 45H763V39H757V45Z" fill="#3F3F3F"/>
<path d="M763 11V5H757V11H763Z" fill="#3F3F3F"/>
<path d="M24 8H524V42H24V8Z" fill="#FAAD14"/>
<path d="M524 8H528V42H524V8Z" fill="#FFE58F"/>
<path d="M532 16H536V34H532V16Z" fill="#FFC53D"/>
<path d="M528 12H532V38H528V12Z" fill="#FFD666"/>
<path d="M524 12H528V38H524V12Z" fill="#FAAD14"/>
<path d="M528 16H532V34H528V16Z" fill="#FAAD14"/>
<path d="M333 12H353V17H333V12Z" fill="#873800"/>
<path d="M355 13H378V19H355V13Z" fill="#873800"/>
<path d="M381 19H445V22H381V19Z" fill="#873800"/>
<path d="M445 8H461V23H445V8Z" fill="#873800"/>
<path d="M445 8H458V21H445V8Z" fill="#6C3224"/>
<path d="M403 8H423V21H403V8Z" fill="#6C3224"/>
<path d="M423 8H445V23H423V8Z" fill="#6C3224"/>
<path d="M378 8H403V19H378V8Z" fill="#6C3224"/>
<path d="M353 8H378V17H353V8Z" fill="#6C3224"/>
<path d="M336 10H353V15H336V10Z" fill="#6C3224"/>
<path d="M334 13H336V15H334V13Z" fill="#6C3224"/>
<path d="M305 30H324V38H305V30Z" fill="#AD4E00"/>
<path d="M313 39H323V44H313V39Z" fill="#612500"/>
<path d="M308 32H325V39H308V32Z" fill="#612500"/>
<path d="M116 32H134V42H116V32Z" fill="#873800"/>
<path d="M116 32H132V41H116V32Z" fill="#612500"/>
<path d="M22 32H28V42H22V32Z" fill="#612500"/>
<path d="M28 32H116V45H28V32Z" fill="#612500"/>
<path d="M93 14H97V20H93V14Z" fill="#AD4E00"/>
<path d="M75 10H93V22H75V10Z" fill="#612500"/>
<path d="M72 13H96V19H72V13Z" fill="#612500"/>
<path d="M169 20H172V21H169V20Z" fill="#AD4E00"/>
<path d="M172 18H178V32H172V18Z" fill="#AD4E00"/>
<path d="M173 17H191V32H173V17Z" fill="#612500"/>
<path d="M191 20H195V30H191V20Z" fill="#612500"/>
<path d="M169 21H173V29H169V21Z" fill="#612500"/>
<path d="M493 27H496V28H493V27Z" fill="#AD4E00"/>
<path d="M496 25H502V39H496V25Z" fill="#AD4E00"/>
<path d="M497 24H515V39H497V24Z" fill="#612500"/>
<path d="M515 27H519V37H515V27Z" fill="#612500"/>
<path d="M493 28H497V36H493V28Z" fill="#612500"/>
<path d="M267 13H269V20H267V13Z" fill="#AD4E00"/>
<path d="M272 10H280V13H272V10Z" fill="#AD4E00"/>
<path d="M268 13H280V21H268V13Z" fill="#612500"/>
<path d="M266 15H268V18H266V15Z" fill="#612500"/>
<path d="M273 11H280V14H273V11Z" fill="#612500"/>
<path d="M225 33H226V34H225V33Z" fill="#AD4E00"/>
<path d="M226 32H228V39H226V32Z" fill="#AD4E00"/>
<path d="M227 32H234V40H227V32Z" fill="#612500"/>
<path d="M234 35H235V40H234V35Z" fill="#612500"/>
<path d="M225 34H227V39H225V34Z" fill="#612500"/>
<path d="M416.97 23.0773H414.818V20.9234H412.667V16.6156H414.818V12.3078H412.667V10.1539H410.516V8H406.213V10.1539H404.061V12.3078H401.91V10.1539H399.759V8H393.303V10.1539H391.151V12.3078H389V18.7695H391.151V20.9234H393.303V23.0773H395.454V27.3844H393.303V31.6922H395.454V33.8461H397.608V36H401.91V33.8461H404.061V31.6922H406.213V33.8461H408.364V36H414.818V33.8461H416.97V31.6922H419.121V25.2312H416.97V23.0773Z" fill="#040606"/>
<path d="M410.515 27.3846H408.364V25.2314H410.515V27.3846ZM397.607 16.6158H395.454V14.4619H397.607V16.6158ZM412.667 20.9234L406.212 20.9236V23.0775H404.061V20.9236H406.212V18.7697H408.364V14.4619H410.515L410.516 10.1539H406.213L406.212 12.308L404.061 12.3078L404.061 16.6158H401.91L401.91 12.3078L399.759 12.308L399.759 10.1539H393.303L393.302 12.308L391.151 12.3078V18.7695L393.302 18.7697L393.303 20.9234L399.759 20.9236V18.7697H401.91V20.9236H399.759V23.0775H397.607V27.3846L395.454 27.3844V31.6922L399.759 31.6924V29.5385H401.91V25.2314H404.061V29.5385H406.212L406.213 31.6922L412.667 31.6924V29.5385H414.818L414.818 23.0773L412.667 23.0775L412.667 20.9234Z" fill="#EDD922"/>
<path d="M393.302 18.7697L391.151 18.7695L391.151 16.6157H393.302V18.7697ZM393.302 14.4618H391.151L391.151 12.3078L393.302 12.308V14.4618Z" fill="#F6F4A6"/>
<path d="M410.516 12.308H406.212L406.213 10.1539H410.516V12.308Z" fill="#F6F4A6"/>
<path d="M399.759 12.308H393.302L393.303 10.1539H399.759L399.759 12.308Z" fill="#F6F4A6"/>
<path d="M397.607 27.3846L399.758 27.3845V25.2313H397.607V27.3846Z" fill="#F47427"/>
<path d="M399.759 31.6924L397.608 31.6924V29.5385H395.454V31.6922V27.3844L397.607 27.3846L397.608 29.5385H399.759V31.6924ZM401.91 29.5385H399.759L399.759 27.3846H401.91L401.91 29.5385Z" fill="#F47427"/>
<path d="M399.758 25.2313L401.91 25.2314L401.91 23.0775H399.759L399.758 25.2313Z" fill="#F47427"/>
<path d="M404.061 25.2314H406.213L406.212 23.0775H404.061V25.2314Z" fill="#F47427"/>
<path d="M406.213 27.3845L408.364 27.3846V25.2314H406.213L406.213 27.3845Z" fill="#F47427"/>
<path d="M408.364 25.2314H410.515V23.0775H408.364V25.2314Z" fill="#F47427"/>
<path d="M410.515 27.3846L412.667 27.3845V25.2313L410.515 25.2314V27.3846Z" fill="#F47427"/>
<path d="M412.667 31.6924L410.515 31.6924V29.5385H408.364V31.6924L406.213 31.6922L406.212 29.5385H404.061L404.061 27.3846L406.213 27.3845L406.212 29.5385H408.364L408.364 27.3846H410.515L410.515 29.5385H412.667V31.6924ZM414.818 29.5385H412.667L412.667 27.3845L414.818 27.3846L414.818 29.5385Z" fill="#F47427"/>
<path d="M412.667 25.2313L414.818 25.2314V23.0773L412.667 23.0775L412.667 25.2313Z" fill="#F47427"/>
<path d="M408.364 31.6924H410.515V29.5385H408.364V31.6924Z" fill="#F1452F"/>
<path d="M395.454 31.6922L397.608 31.6924V29.5385H395.454V31.6922Z" fill="#F1452F"/>
<path d="M386.347 14.4612V12.3075H384.179V10.1537H382.009V8H373.336V10.1537H371.168V12.3075H369V29.5373H371.168V31.6911H373.336V33.8463H375.505V36H384.179V33.8463H386.347V31.6911H388.515V14.4612H386.347Z" fill="#040606"/>
<path d="M379.841 27.3835H375.505V14.4611H379.841V27.3835ZM382.009 12.3074L382.009 10.1537H373.336L373.337 12.3074L371.168 12.3075V29.5373L373.337 29.5372L373.336 31.6911L382.009 31.691V29.5372H384.179L384.179 12.3075L382.009 12.3074Z" fill="#EDD922"/>
<path d="M371.168 25.2298H373.337V23.076H371.168V25.2298Z" fill="#F47427"/>
<path d="M373.337 27.3834L375.505 27.3835L375.505 25.2297L373.337 25.2298L373.337 27.3834Z" fill="#F47427"/>
<path d="M379.841 31.6911H377.673V29.5373H375.505V31.6911L373.336 31.6911L373.337 29.5372L371.168 29.5373L371.168 27.3836L373.337 27.3834L373.337 29.5372L375.505 29.5373V27.3835L377.673 27.3836V29.5373H379.841V27.3835L382.009 27.3836V29.5372L379.841 29.5373V31.6911Z" fill="#F47427"/>
<path d="M379.841 25.2298H382.009V23.076H379.841V25.2298Z" fill="#F47427"/>
<path d="M382.009 27.3836L384.179 27.3834V25.2297L382.009 25.2298L382.009 27.3836Z" fill="#F47427"/>
<path d="M379.841 31.6911L382.009 31.691V29.5372L379.841 29.5373V31.6911Z" fill="#F1452F"/>
<path d="M375.505 31.6911H377.673V29.5373H375.505V31.6911Z" fill="#F1452F"/>
<path d="M373.337 18.7685H371.168V16.6147H373.337V18.7685ZM373.337 14.461H371.168L371.168 12.3075L373.337 12.3074V14.461Z" fill="#F6F4A6"/>
<path d="M382.009 12.3074H373.337L373.336 10.1537H382.009L382.009 12.3074Z" fill="#F6F4A6"/>
<path d="M365.232 12.3075H363.078V10.1537H360.925V8H352.31V10.1537H350.156V12.3075H348V29.5373H350.156V31.6911H352.31V33.8463H354.463V36H363.078V33.8463H365.232V31.6911H367.386V20.9224H365.232V18.7687H367.386V14.4612H365.232V12.3075Z" fill="#040606"/>
<path d="M358.771 27.3835H354.464V23.076H358.771V27.3835ZM360.925 10.1537H352.31L352.31 12.3074L350.156 12.3075V29.5373L352.31 29.5372L352.31 31.6911L360.925 31.691V29.5372H363.079V18.7686H354.464V14.4611H358.771V16.6148H363.079L363.078 12.3075L360.925 12.3074L360.925 10.1537Z" fill="#EDD922"/>
<path d="M350.156 25.2298H352.31V23.076H350.156V25.2298Z" fill="#F47427"/>
<path d="M352.31 27.3834L354.464 27.3835L354.464 25.2297L352.31 25.2298L352.31 27.3834Z" fill="#F47427"/>
<path d="M358.771 31.6911H356.617V29.5373H354.464V31.6911L352.31 31.6911L352.31 29.5372L350.156 29.5373L350.156 27.3836L352.31 27.3834L352.31 29.5372L354.464 29.5373V27.3835L356.617 27.3836V29.5373H358.771V27.3835L360.925 27.3836V29.5372L358.771 29.5373V31.6911Z" fill="#F47427"/>
<path d="M358.771 25.2298H360.925V23.076H358.771L358.771 25.2298Z" fill="#F47427"/>
<path d="M360.925 27.3836L363.078 27.3834V25.2297L360.925 25.2298L360.925 27.3836Z" fill="#F47427"/>
<path d="M358.771 31.6911L360.925 31.691V29.5372L358.771 29.5373V31.6911Z" fill="#F1452F"/>
<path d="M354.464 31.6911H356.617V29.5373H354.464V31.6911Z" fill="#F1452F"/>
<path d="M352.31 18.7685H350.156V16.6147H352.31V18.7685ZM352.31 14.461H350.156L350.156 12.3075L352.31 12.3074V14.461Z" fill="#F6F4A6"/>
<path d="M360.925 12.3074H352.31L352.31 10.1537H360.925L360.925 12.3074Z" fill="#F6F4A6"/>
</svg>
