<svg width="768" height="56" viewBox="0 0 768 56" fill="none" xmlns="http://www.w3.org/2000/svg">
<path d="M758.78 9.44441V5H9.21891V9.44441H5V40.5556H9.21891V45H758.78V40.5556H763V9.44441H758.78Z" fill="white"/>
<path d="M11 45V50H757V45H11Z" fill="#3F3F3F"/>
<path d="M757 5V0H11V5H757Z" fill="#3F3F3F"/>
<path d="M5 39V45H11V39H5Z" fill="#3F3F3F"/>
<path d="M11 5H5V11H11V5Z" fill="#3F3F3F"/>
<path d="M5 11H0V39H5V11Z" fill="#3F3F3F"/>
<path d="M25 8H20V36H25V8Z" fill="#3F3F3F"/>
<path d="M763 11V39H768V11H763Z" fill="#3F3F3F"/>
<path d="M757 45H763V39H757V45Z" fill="#3F3F3F"/>
<path d="M763 11V5H757V11H763Z" fill="#3F3F3F"/>
<path d="M24 8H744V42H24V8Z" fill="#FAAD14"/>
<path d="M744 36H749V42H744V36Z" fill="#FFC53D"/>
<path d="M333 12H353V17H333V12Z" fill="#873800"/>
<path d="M355 13H378V19H355V13Z" fill="#873800"/>
<path d="M381 19H445V22H381V19Z" fill="#873800"/>
<path d="M445 8H461V23H445V8Z" fill="#873800"/>
<path d="M445 8H458V21H445V8Z" fill="#6C3224"/>
<path d="M403 8H423V21H403V8Z" fill="#6C3224"/>
<path d="M423 8H445V23H423V8Z" fill="#6C3224"/>
<path d="M378 8H403V19H378V8Z" fill="#6C3224"/>
<path d="M353 8H378V17H353V8Z" fill="#6C3224"/>
<path d="M336 10H353V15H336V10Z" fill="#6C3224"/>
<path d="M334 13H336V15H334V13Z" fill="#6C3224"/>
<path d="M305 30H324V38H305V30Z" fill="#AD4E00"/>
<path d="M313 39H323V44H313V39Z" fill="#612500"/>
<path d="M308 32H325V39H308V32Z" fill="#612500"/>
<path d="M566 5H572V20H566V5Z" fill="#6C3224"/>
<path d="M572 8H577V20H572V8Z" fill="#6C3224"/>
<path d="M577 12H582V20H577V12Z" fill="#6C3224"/>
<path d="M565 5H566V21H565V5Z" fill="#AD4E00"/>
<path d="M566 20H582V21H566V20Z" fill="#AD4E00"/>
<path d="M116 32H134V42H116V32Z" fill="#873800"/>
<path d="M116 32H132V41H116V32Z" fill="#612500"/>
<path d="M22 32H28V42H22V32Z" fill="#612500"/>
<path d="M28 32H116V45H28V32Z" fill="#612500"/>
<path d="M93 14H97V20H93V14Z" fill="#AD4E00"/>
<path d="M75 10H93V22H75V10Z" fill="#612500"/>
<path d="M72 13H96V19H72V13Z" fill="#612500"/>
<path d="M687 15H694V23H687V15Z" fill="#AD4E00"/>
<path d="M657 10H687V26H657V10Z" fill="#612500"/>
<path d="M651 15H657V23H651V15Z" fill="#612500"/>
<path d="M687 12H693V20H687V12Z" fill="#612500"/>
<path d="M169 20H172V21H169V20Z" fill="#AD4E00"/>
<path d="M172 18H178V32H172V18Z" fill="#AD4E00"/>
<path d="M173 17H191V32H173V17Z" fill="#612500"/>
<path d="M191 20H195V30H191V20Z" fill="#612500"/>
<path d="M169 21H173V29H169V21Z" fill="#612500"/>
<path d="M493 27H496V28H493V27Z" fill="#AD4E00"/>
<path d="M496 25H502V39H496V25Z" fill="#AD4E00"/>
<path d="M497 24H515V39H497V24Z" fill="#612500"/>
<path d="M515 27H519V37H515V27Z" fill="#612500"/>
<path d="M493 28H497V36H493V28Z" fill="#612500"/>
<path d="M611 29H616V30H611V29Z" fill="#873800"/>
<path d="M615 26H626V41H615V26Z" fill="#612500"/>
<path d="M622 24H633V44H622V24Z" fill="#612500"/>
<path d="M633 29H637V39H633V29Z" fill="#612500"/>
<path d="M611 30H615V38H611V30Z" fill="#612500"/>
<path d="M225 33H226V34H225V33Z" fill="#AD4E00"/>
<path d="M226 32H228V39H226V32Z" fill="#AD4E00"/>
<path d="M227 32H234V40H227V32Z" fill="#612500"/>
<path d="M234 35H235V40H234V35Z" fill="#612500"/>
<path d="M225 34H227V39H225V34Z" fill="#612500"/>
<path d="M267 13H269V20H267V13Z" fill="#AD4E00"/>
<path d="M272 10H280V13H272V10Z" fill="#AD4E00"/>
<path d="M268 13H280V21H268V13Z" fill="#612500"/>
<path d="M266 15H268V18H266V15Z" fill="#612500"/>
<path d="M273 11H280V14H273V11Z" fill="#612500"/>
<path d="M713 30H715V37H713V30Z" fill="#AD4E00"/>
<path d="M718 27H726V30H718V27Z" fill="#AD4E00"/>
<path d="M714 30H726V38H714V30Z" fill="#612500"/>
<path d="M712 32H714V35H712V32Z" fill="#612500"/>
<path d="M719 28H726V31H719V28Z" fill="#612500"/>
<path d="M423.97 23.0773H421.818V20.9234H419.667V16.6156H421.818V12.3078H419.667V10.1539H417.516V8H413.213V10.1539H411.061V12.3078H408.91V10.1539H406.759V8H400.303V10.1539H398.151V12.3078H396V18.7695H398.151V20.9234H400.303V23.0773H402.454V27.3844H400.303V31.6922H402.454V33.8461H404.608V36H408.91V33.8461H411.061V31.6922H413.213V33.8461H415.364V36H421.818V33.8461H423.97V31.6922H426.121V25.2312H423.97V23.0773Z" fill="#040606"/>
<path d="M417.515 27.3846H415.364V25.2314H417.515V27.3846ZM404.607 16.6158H402.454V14.4619H404.607V16.6158ZM419.667 20.9234L413.212 20.9236V23.0775H411.061V20.9236H413.212V18.7697H415.364V14.4619H417.515L417.516 10.1539H413.213L413.212 12.308L411.061 12.3078L411.061 16.6158H408.91L408.91 12.3078L406.759 12.308L406.759 10.1539H400.303L400.302 12.308L398.151 12.3078V18.7695L400.302 18.7697L400.303 20.9234L406.759 20.9236V18.7697H408.91V20.9236H406.759V23.0775H404.607V27.3846L402.454 27.3844V31.6922L406.759 31.6924V29.5385H408.91V25.2314H411.061V29.5385H413.212L413.213 31.6922L419.667 31.6924V29.5385H421.818L421.818 23.0773L419.667 23.0775L419.667 20.9234Z" fill="#EDD922"/>
<path d="M400.302 18.7697L398.151 18.7695L398.151 16.6157H400.302V18.7697ZM400.302 14.4618H398.151L398.151 12.3078L400.302 12.308V14.4618Z" fill="#F6F4A6"/>
<path d="M417.516 12.308H413.212L413.213 10.1539H417.516V12.308Z" fill="#F6F4A6"/>
<path d="M406.759 12.308H400.302L400.303 10.1539H406.759L406.759 12.308Z" fill="#F6F4A6"/>
<path d="M404.607 27.3846L406.758 27.3845V25.2313H404.607V27.3846Z" fill="#F47427"/>
<path d="M406.759 31.6924L404.608 31.6924V29.5385H402.454V31.6922V27.3844L404.607 27.3846L404.608 29.5385H406.759V31.6924ZM408.91 29.5385H406.759L406.759 27.3846H408.91L408.91 29.5385Z" fill="#F47427"/>
<path d="M406.758 25.2313L408.91 25.2314L408.91 23.0775H406.759L406.758 25.2313Z" fill="#F47427"/>
<path d="M411.061 25.2314H413.213L413.212 23.0775H411.061V25.2314Z" fill="#F47427"/>
<path d="M413.213 27.3845L415.364 27.3846V25.2314H413.213L413.213 27.3845Z" fill="#F47427"/>
<path d="M415.364 25.2314H417.515V23.0775H415.364V25.2314Z" fill="#F47427"/>
<path d="M417.515 27.3846L419.667 27.3845V25.2313L417.515 25.2314V27.3846Z" fill="#F47427"/>
<path d="M419.667 31.6924L417.515 31.6924V29.5385H415.364V31.6924L413.213 31.6922L413.212 29.5385H411.061L411.061 27.3846L413.213 27.3845L413.212 29.5385H415.364L415.364 27.3846H417.515L417.515 29.5385H419.667V31.6924ZM421.818 29.5385H419.667L419.667 27.3845L421.818 27.3846L421.818 29.5385Z" fill="#F47427"/>
<path d="M419.667 25.2313L421.818 25.2314V23.0773L419.667 23.0775L419.667 25.2313Z" fill="#F47427"/>
<path d="M415.364 31.6924H417.515V29.5385H415.364V31.6924Z" fill="#F1452F"/>
<path d="M402.454 31.6922L404.608 31.6924V29.5385H402.454V31.6922Z" fill="#F1452F"/>
<path d="M393.347 14.4612V12.3075H391.179V10.1537H389.009V8H380.336V10.1537H378.168V12.3075H376V29.5373H378.168V31.6911H380.336V33.8463H382.505V36H391.179V33.8463H393.347V31.6911H395.515V14.4612H393.347Z" fill="#040606"/>
<path d="M386.841 27.3835H382.505V14.4611H386.841V27.3835ZM389.009 12.3074L389.009 10.1537H380.336L380.337 12.3074L378.168 12.3075V29.5373L380.337 29.5372L380.336 31.6911L389.009 31.691V29.5372H391.179L391.179 12.3075L389.009 12.3074Z" fill="#EDD922"/>
<path d="M378.168 25.2298H380.337V23.076H378.168V25.2298Z" fill="#F47427"/>
<path d="M380.337 27.3834L382.505 27.3835L382.505 25.2297L380.337 25.2298L380.337 27.3834Z" fill="#F47427"/>
<path d="M386.841 31.6911H384.673V29.5373H382.505V31.6911L380.336 31.6911L380.337 29.5372L378.168 29.5373L378.168 27.3836L380.337 27.3834L380.337 29.5372L382.505 29.5373V27.3835L384.673 27.3836V29.5373H386.841V27.3835L389.009 27.3836V29.5372L386.841 29.5373V31.6911Z" fill="#F47427"/>
<path d="M386.841 25.2298H389.009V23.076H386.841V25.2298Z" fill="#F47427"/>
<path d="M389.009 27.3836L391.179 27.3834V25.2297L389.009 25.2298L389.009 27.3836Z" fill="#F47427"/>
<path d="M386.841 31.6911L389.009 31.691V29.5372L386.841 29.5373V31.6911Z" fill="#F1452F"/>
<path d="M382.505 31.6911H384.673V29.5373H382.505V31.6911Z" fill="#F1452F"/>
<path d="M380.337 18.7685H378.168V16.6147H380.337V18.7685ZM380.337 14.461H378.168L378.168 12.3075L380.337 12.3074V14.461Z" fill="#F6F4A6"/>
<path d="M389.009 12.3074H380.337L380.336 10.1537H389.009L389.009 12.3074Z" fill="#F6F4A6"/>
<path d="M373.347 14.4612V12.3075H371.179V10.1537H369.009V8H360.336V10.1537H358.168V12.3075H356V29.5373H358.168V31.6911H360.336V33.8463H362.505V36H371.179V33.8463H373.347V31.6911H375.515V14.4612H373.347Z" fill="#040606"/>
<path d="M366.841 27.3835H362.505V14.4611H366.841V27.3835ZM369.009 12.3074L369.009 10.1537H360.336L360.337 12.3074L358.168 12.3075V29.5373L360.337 29.5372L360.336 31.6911L369.009 31.691V29.5372H371.179L371.179 12.3075L369.009 12.3074Z" fill="#EDD922"/>
<path d="M358.168 25.2298H360.337V23.076H358.168V25.2298Z" fill="#F47427"/>
<path d="M360.337 27.3834L362.505 27.3835L362.505 25.2297L360.337 25.2298L360.337 27.3834Z" fill="#F47427"/>
<path d="M366.841 31.6911H364.673V29.5373H362.505V31.6911L360.336 31.6911L360.337 29.5372L358.168 29.5373L358.168 27.3836L360.337 27.3834L360.337 29.5372L362.505 29.5373V27.3835L364.673 27.3836V29.5373H366.841V27.3835L369.009 27.3836V29.5372L366.841 29.5373V31.6911Z" fill="#F47427"/>
<path d="M366.841 25.2298H369.009V23.076H366.841V25.2298Z" fill="#F47427"/>
<path d="M369.009 27.3836L371.179 27.3834V25.2297L369.009 25.2298L369.009 27.3836Z" fill="#F47427"/>
<path d="M366.841 31.6911L369.009 31.691V29.5372L366.841 29.5373V31.6911Z" fill="#F1452F"/>
<path d="M362.505 31.6911H364.673V29.5373H362.505V31.6911Z" fill="#F1452F"/>
<path d="M360.337 18.7685H358.168V16.6147H360.337V18.7685ZM360.337 14.461H358.168L358.168 12.3075L360.337 12.3074V14.461Z" fill="#F6F4A6"/>
<path d="M369.009 12.3074H360.337L360.336 10.1537H369.009L369.009 12.3074Z" fill="#F6F4A6"/>
<path d="M353.923 12.3075H351.769V10.1537H349.616V8H347.462V10.1537H345.307V12.3075H343.154V14.4612H341V18.7687H343.154V27.3836H341V31.6911H343.154V33.8463H345.307V36H353.923V33.8463H356.077V29.5373H353.923V12.3075Z" fill="#040606"/>
<path d="M349.616 25.2298L349.616 10.1537H347.462L347.462 12.3074L345.307 12.3075L345.308 14.4611L343.154 14.4612V18.7687L345.308 18.7686V27.3835L343.154 27.3836V31.6911L351.77 31.691V27.3835H349.616V25.2298Z" fill="#EDD922"/>
<path d="M349.616 31.691H347.462V29.5372H345.308V31.691L343.154 31.6911L343.154 29.5372H345.308V27.3835L347.462 27.3835V29.5372H349.616V27.3835H351.77V29.5372H349.616V31.691ZM349.616 27.3835L347.462 27.3835V25.2298H349.616V27.3835ZM347.462 25.2298H345.308V23.076H347.462V25.2298Z" fill="#F47427"/>
<path d="M349.616 31.691H351.77V29.5372H349.616V31.691Z" fill="#F1452F"/>
<path d="M345.308 31.691H347.462V29.5372H345.308V31.691Z" fill="#F1452F"/>
<path d="M345.308 18.7686L343.154 18.7687L343.154 16.6147H345.308V18.7686ZM347.462 14.461L345.308 14.4611L345.307 12.3075L347.462 12.3074V14.461Z" fill="#F6F4A6"/>
<path d="M347.462 12.3074H349.615L349.616 10.1537H347.462L347.462 12.3074Z" fill="#F6F4A6"/>
<path d="M749 8H744V36H749V8Z" fill="#3F3F3F"/>
</svg>
