<svg width="696" height="691" viewBox="0 0 696 691" fill="none" xmlns="http://www.w3.org/2000/svg">
<rect x="15" y="15.6367" width="667" height="110.687" fill="#FED001"/>
<path d="M75.7599 16.5759H98.4481H121.145H143.815H166.513H189.183H211.88H234.568H257.247H279.936H302.633H325.303H348H370.679H393.367H416.056H438.735H461.423H484.12H506.799H529.488H552.167H574.855H597.543H620.222H642.91H665.608V0.794922H642.91H620.222H597.543H574.855H552.167H529.488H506.799H484.12H461.423H438.735H416.056H393.367H370.679H348H325.303H302.633H279.936H257.247H234.568H211.88H189.183H166.513H143.815H121.145H98.4481H75.7599H53.0808H30.3926V16.5759H53.0808H75.7599Z" fill="#3F3F3F"/>
<path d="M75.7599 690.939H98.4481H121.145H143.815H166.513H189.183H211.88H234.568H257.247H279.936H302.633H325.303H348H370.679H393.367H416.056H438.735H461.423H484.12H506.799H529.488H552.167H574.855H597.543H620.222H642.91H665.608V675.158H642.91H620.222H597.543H574.855H552.167H529.488H506.799H484.12H461.423H438.735H416.056H393.367H370.679H348H325.303H302.633H279.936H257.247H234.568H211.88H189.183H166.513H143.815H121.145H98.4481H75.7599H53.0808H30.3926V690.939H53.0808H75.7599Z" fill="#3F3F3F"/>
<path d="M30.392 15.2891H14.2002V31.07H30.392V15.2891Z" fill="#3F3F3F"/>
<path d="M30.392 660.664H14.2002V676.445H30.392V660.664Z" fill="#3F3F3F"/>
<path d="M681.799 15.2891H665.607V31.07H681.799V15.2891Z" fill="#3F3F3F"/>
<path d="M681.799 660.664H665.607V676.445H681.799V660.664Z" fill="#3F3F3F"/>
<path d="M15 72.2119V30.0625H1V72.2119V620.542V662.708H15V620.542V72.2119Z" fill="#3F3F3F"/>
<path d="M695 83.877V42.6367H681V83.877V620.38V661.637H695V620.38V83.877Z" fill="#3F3F3F"/>
<path d="M194.156 81.9844V76.2701H188.442V81.9844H194.156ZM182.728 70.5558V76.2701H188.442V70.5558H182.728ZM177.013 64.8415V70.5558H182.728V64.8415H177.013ZM177.013 59.1272H171.299V64.8415H177.013V59.1272ZM182.728 53.4129V59.1272H177.013V53.4129H182.728ZM182.728 53.4129H188.442V47.6987H182.728V53.4129ZM194.156 41.9844V47.6987H188.442V41.9844H194.156Z" fill="#3F3F3F"/>
<path d="M245.399 74.4844V70.9144L254.579 62.2444C255.305 61.587 255.837 60.9977 256.177 60.4764C256.517 59.955 256.744 59.479 256.857 59.0484C256.993 58.6177 257.061 58.221 257.061 57.8584C257.061 56.9064 256.733 56.181 256.075 55.6824C255.441 55.161 254.5 54.9004 253.253 54.9004C252.256 54.9004 251.327 55.093 250.465 55.4784C249.627 55.8637 248.913 56.4644 248.323 57.2804L244.311 54.6964C245.218 53.3364 246.487 52.2597 248.119 51.4664C249.751 50.673 251.633 50.2764 253.763 50.2764C255.531 50.2764 257.073 50.571 258.387 51.1604C259.725 51.727 260.756 52.5317 261.481 53.5744C262.229 54.617 262.603 55.8637 262.603 57.3144C262.603 58.085 262.501 58.8557 262.297 59.6264C262.116 60.3744 261.731 61.1677 261.141 62.0064C260.575 62.845 259.736 63.7857 258.625 64.8284L251.009 72.0024L249.955 69.9964H263.385V74.4844H245.399ZM275.858 74.8924C273.909 74.8924 272.163 74.4164 270.622 73.4644C269.081 72.4897 267.868 71.0844 266.984 69.2484C266.1 67.4124 265.658 65.191 265.658 62.5844C265.658 59.9777 266.1 57.7564 266.984 55.9204C267.868 54.0844 269.081 52.6904 270.622 51.7384C272.163 50.7637 273.909 50.2764 275.858 50.2764C277.83 50.2764 279.575 50.7637 281.094 51.7384C282.635 52.6904 283.848 54.0844 284.732 55.9204C285.616 57.7564 286.058 59.9777 286.058 62.5844C286.058 65.191 285.616 67.4124 284.732 69.2484C283.848 71.0844 282.635 72.4897 281.094 73.4644C279.575 74.4164 277.83 74.8924 275.858 74.8924ZM275.858 70.2344C276.787 70.2344 277.592 69.9737 278.272 69.4524C278.975 68.931 279.519 68.1037 279.904 66.9704C280.312 65.837 280.516 64.375 280.516 62.5844C280.516 60.7937 280.312 59.3317 279.904 58.1984C279.519 57.065 278.975 56.2377 278.272 55.7164C277.592 55.195 276.787 54.9344 275.858 54.9344C274.951 54.9344 274.147 55.195 273.444 55.7164C272.764 56.2377 272.22 57.065 271.812 58.1984C271.427 59.3317 271.234 60.7937 271.234 62.5844C271.234 64.375 271.427 65.837 271.812 66.9704C272.22 68.1037 272.764 68.931 273.444 69.4524C274.147 69.9737 274.951 70.2344 275.858 70.2344ZM288.397 74.4844V70.9144L297.577 62.2444C298.303 61.587 298.835 60.9977 299.175 60.4764C299.515 59.955 299.742 59.479 299.855 59.0484C299.991 58.6177 300.059 58.221 300.059 57.8584C300.059 56.9064 299.731 56.181 299.073 55.6824C298.439 55.161 297.498 54.9004 296.251 54.9004C295.254 54.9004 294.325 55.093 293.463 55.4784C292.625 55.8637 291.911 56.4644 291.321 57.2804L287.309 54.6964C288.216 53.3364 289.485 52.2597 291.117 51.4664C292.749 50.673 294.631 50.2764 296.761 50.2764C298.529 50.2764 300.071 50.571 301.385 51.1604C302.723 51.727 303.754 52.5317 304.479 53.5744C305.227 54.617 305.601 55.8637 305.601 57.3144C305.601 58.085 305.499 58.8557 305.295 59.6264C305.114 60.3744 304.729 61.1677 304.139 62.0064C303.573 62.845 302.734 63.7857 301.623 64.8284L294.007 72.0024L292.953 69.9964H306.383V74.4844H288.397ZM308.019 69.4864V65.7804L319.239 50.6844H325.019L314.037 65.7804L311.351 64.9984H330.085V69.4864H308.019ZM320.837 74.4844V69.4864L321.007 64.9984V60.5444H326.209V74.4844H320.837ZM348.467 45.4484L352.649 46.5364C352.037 48.2137 351.312 49.857 350.473 51.4664C349.657 53.0757 348.762 54.5717 347.787 55.9544C346.835 57.3144 345.849 58.5044 344.829 59.5244C344.557 59.2977 344.206 59.0144 343.775 58.6744C343.344 58.3117 342.902 57.9717 342.449 57.6544C342.018 57.337 341.633 57.0764 341.293 56.8724C342.336 55.9884 343.31 54.9457 344.217 53.7444C345.124 52.5204 345.94 51.2057 346.665 49.8004C347.39 48.3724 347.991 46.9217 348.467 45.4484ZM349.215 49.3244H370.839V53.2684H347.243L349.215 49.3244ZM346.801 57.3824H370.023V61.1904H350.881V68.3304H346.801V57.3824ZM341.395 66.3244H372.675V70.2344H341.395V66.3244ZM356.797 51.3644H361.013V77.5444H356.797V51.3644Z" fill="#3F3F3F"/>
<path d="M399.183 74.4844V52.7244L401.563 55.1044H394.423V50.6844H404.691V74.4844H399.183ZM426.308 47.2164H443.274V51.1944H426.308V47.2164ZM426.342 55.3424H443.444V59.2184H426.342V55.3424ZM426.138 63.3664H443.206V67.3444H426.138V63.3664ZM423.486 47.2164H427.702V58.4704C427.702 59.9437 427.611 61.5304 427.43 63.2304C427.271 64.9304 426.965 66.653 426.512 68.3984C426.059 70.1437 425.39 71.7984 424.506 73.3624C423.622 74.9264 422.455 76.3204 421.004 77.5444C420.8 77.2497 420.505 76.9097 420.12 76.5244C419.757 76.139 419.361 75.765 418.93 75.4024C418.522 75.0397 418.159 74.7677 417.842 74.5864C419.134 73.4984 420.154 72.297 420.902 70.9824C421.673 69.645 422.239 68.2624 422.602 66.8344C422.987 65.4064 423.225 63.9784 423.316 62.5504C423.429 61.1224 423.486 59.751 423.486 58.4364V47.2164ZM441.37 47.2164H445.722V72.3424C445.722 73.5664 445.552 74.507 445.212 75.1644C444.895 75.8217 444.339 76.3204 443.546 76.6604C442.73 77.023 441.71 77.2384 440.486 77.3064C439.262 77.397 437.766 77.4424 435.998 77.4424C435.907 77.0344 435.771 76.5697 435.59 76.0484C435.409 75.527 435.205 75.0057 434.978 74.4844C434.751 73.963 434.525 73.521 434.298 73.1584C435.091 73.2037 435.896 73.2377 436.712 73.2604C437.551 73.2604 438.287 73.2604 438.922 73.2604C439.579 73.2604 440.044 73.2604 440.316 73.2604C440.701 73.2604 440.973 73.1924 441.132 73.0564C441.291 72.8977 441.37 72.637 441.37 72.2744V47.2164Z" fill="#3F3F3F"/>
<path d="M501.156 41.9844V47.6987H506.871V41.9844H501.156ZM512.585 53.4129V47.6987H506.871V53.4129H512.585ZM518.299 59.1272V53.4129H512.585V59.1272H518.299ZM518.299 64.8415H524.013V59.1272H518.299V64.8415ZM512.585 70.5558V64.8415H518.299V70.5558H512.585ZM512.585 70.5558H506.871V76.2701H512.585V70.5558ZM501.156 81.9844V76.2701H506.871V81.9844H501.156Z" fill="#3F3F3F"/>
<path d="M78.236 177.811H101.968V207.221H97.582V181.925H82.418V207.289H78.236V177.811ZM81.092 189.235H99.384V193.247H81.092V189.235ZM81.092 200.931H99.418V205.045H81.092V200.931Z" fill="#3F3F3F"/>
<path d="M160.292 189.167H191.776V193.621H160.292V189.167Z" fill="#3F3F3F"/>
<path d="M249.692 180.429H274.376V184.917H249.692V180.429ZM246.836 200.183H277.198V204.841H246.836V200.183Z" fill="#3F3F3F"/>
<path d="M335.046 179.001H360.988V183.183H335.046V179.001ZM337.392 189.949H358.268V194.097H337.392V189.949ZM333.142 201.475H362.79V205.623H333.142V201.475Z" fill="#3F3F3F"/>
<path d="M419.618 178.593H448.348V206.303H444.03V182.537H423.732V206.575H419.618V178.593ZM421.794 200.353H446.308V204.297H421.794V200.353ZM428.22 181.381H432.198C432.175 183.625 432.096 185.653 431.96 187.467C431.847 189.28 431.575 190.901 431.144 192.329C430.736 193.734 430.124 194.981 429.308 196.069C428.492 197.134 427.381 198.041 425.976 198.789C425.84 198.449 425.636 198.075 425.364 197.667C425.115 197.259 424.82 196.873 424.48 196.511C424.163 196.125 423.857 195.808 423.562 195.559C424.673 194.947 425.534 194.221 426.146 193.383C426.781 192.544 427.234 191.569 427.506 190.459C427.801 189.325 427.993 188.011 428.084 186.515C428.175 185.019 428.22 183.307 428.22 181.381ZM435.53 181.891H439.338V191.649C439.338 192.193 439.372 192.601 439.44 192.873C439.531 193.122 439.735 193.247 440.052 193.247C440.188 193.247 440.347 193.247 440.528 193.247C440.732 193.247 440.947 193.247 441.174 193.247C441.401 193.247 441.605 193.247 441.786 193.247C441.99 193.247 442.16 193.247 442.296 193.247C442.591 193.247 442.953 193.224 443.384 193.179C443.815 193.133 444.155 193.077 444.404 193.009C444.449 193.575 444.483 194.153 444.506 194.743C444.551 195.332 444.608 195.876 444.676 196.375C444.427 196.488 444.087 196.567 443.656 196.613C443.225 196.635 442.806 196.647 442.398 196.647C442.239 196.647 442.024 196.647 441.752 196.647C441.48 196.647 441.197 196.647 440.902 196.647C440.607 196.647 440.324 196.647 440.052 196.647C439.803 196.647 439.599 196.647 439.44 196.647C438.352 196.647 437.525 196.465 436.958 196.103C436.414 195.717 436.04 195.151 435.836 194.403C435.632 193.655 435.53 192.691 435.53 191.513V181.891Z" fill="#3F3F3F"/>
<path d="M506.808 178.865H533.09V182.911H506.808V178.865ZM504.836 202.019H535.334V206.065H504.836V202.019ZM516.26 180.293H520.85C520.578 182.31 520.272 184.429 519.932 186.651C519.592 188.849 519.241 191.037 518.878 193.213C518.515 195.366 518.153 197.417 517.79 199.367C517.427 201.316 517.076 203.05 516.736 204.569H512.214C512.577 202.982 512.939 201.203 513.302 199.231C513.687 197.259 514.061 195.196 514.424 193.043C514.809 190.867 515.149 188.691 515.444 186.515C515.761 184.339 516.033 182.265 516.26 180.293ZM508.678 188.725H526.936V192.703H508.678V188.725ZM525.44 188.725H525.882L526.63 188.555L529.86 188.793C529.792 190.017 529.701 191.309 529.588 192.669C529.497 194.029 529.384 195.411 529.248 196.817C529.135 198.222 528.999 199.616 528.84 200.999C528.704 202.381 528.557 203.707 528.398 204.977L524.08 204.637C524.239 203.367 524.386 202.03 524.522 200.625C524.681 199.197 524.817 197.78 524.93 196.375C525.043 194.969 525.145 193.643 525.236 192.397C525.327 191.15 525.395 190.073 525.44 189.167V188.725Z" fill="#3F3F3F"/>
<path d="M590.598 184.305H621.504V188.555H590.598V184.305ZM598.86 191.479L603.45 192.941C602.634 194.663 601.693 196.42 600.628 198.211C599.585 199.979 598.52 201.656 597.432 203.243C596.344 204.829 595.29 206.223 594.27 207.425C593.953 207.153 593.545 206.835 593.046 206.473C592.547 206.133 592.037 205.793 591.516 205.453C590.995 205.113 590.541 204.841 590.156 204.637C591.199 203.571 592.253 202.313 593.318 200.863C594.383 199.412 595.392 197.882 596.344 196.273C597.296 194.663 598.135 193.065 598.86 191.479ZM608.448 193.145L612.392 191.241C613.095 192.306 613.865 193.439 614.704 194.641C615.543 195.842 616.37 197.055 617.186 198.279C618.025 199.503 618.807 200.681 619.532 201.815C620.28 202.925 620.903 203.934 621.402 204.841L617.05 207.221C616.619 206.314 616.064 205.294 615.384 204.161C614.727 203.005 613.99 201.792 613.174 200.523C612.381 199.231 611.576 197.961 610.76 196.715C609.944 195.445 609.173 194.255 608.448 193.145ZM602.09 177.233L606.374 175.805C606.759 176.507 607.156 177.278 607.564 178.117C607.995 178.933 608.403 179.749 608.788 180.565C609.196 181.358 609.525 182.061 609.774 182.673L605.184 184.373C604.98 183.761 604.708 183.047 604.368 182.231C604.028 181.415 603.654 180.576 603.246 179.715C602.861 178.831 602.475 178.003 602.09 177.233Z" fill="#3F3F3F"/>
<path d="M175.299 292.637V274.157L176.503 275.473H170.875V273.037H178.071V292.637H175.299Z" fill="#A3A3A3"/>
<path d="M254.664 292.637V290.733L262.644 283.033C263.353 282.361 263.876 281.773 264.212 281.269C264.567 280.746 264.8 280.27 264.912 279.841C265.043 279.393 265.108 278.963 265.108 278.553C265.108 277.545 264.753 276.751 264.044 276.173C263.335 275.594 262.299 275.305 260.936 275.305C259.891 275.305 258.948 275.482 258.108 275.837C257.268 276.173 256.54 276.705 255.924 277.433L254.02 275.781C254.767 274.829 255.765 274.101 257.016 273.597C258.285 273.074 259.676 272.813 261.188 272.813C262.551 272.813 263.736 273.037 264.744 273.485C265.752 273.914 266.527 274.539 267.068 275.361C267.628 276.182 267.908 277.153 267.908 278.273C267.908 278.907 267.824 279.533 267.656 280.149C267.488 280.765 267.171 281.418 266.704 282.109C266.237 282.799 265.565 283.574 264.688 284.433L257.576 291.293L256.904 290.201H268.748V292.637H254.664Z" fill="#A3A3A3"/>
<path d="M346.824 292.861C345.443 292.861 344.099 292.646 342.792 292.217C341.504 291.787 340.45 291.209 339.628 290.481L340.916 288.269C341.57 288.885 342.419 289.389 343.464 289.781C344.51 290.173 345.63 290.369 346.824 290.369C348.28 290.369 349.41 290.061 350.212 289.445C351.034 288.81 351.444 287.961 351.444 286.897C351.444 285.87 351.052 285.049 350.268 284.433C349.503 283.798 348.28 283.481 346.6 283.481H345.032V281.521L350.856 274.353L351.248 275.473H340.524V273.037H353.46V274.941L347.664 282.081L346.208 281.213H347.132C349.503 281.213 351.276 281.745 352.452 282.809C353.647 283.873 354.244 285.226 354.244 286.869C354.244 287.97 353.974 288.978 353.432 289.893C352.891 290.807 352.07 291.535 350.968 292.077C349.886 292.599 348.504 292.861 346.824 292.861Z" fill="#A3A3A3"/>
<path d="M425.032 287.821V285.861L435.056 273.037H438.08L428.14 285.861L426.712 285.413H442.364V287.821H425.032ZM435.924 292.637V287.821L436.008 285.413V281.157H438.64V292.637H435.924Z" fill="#A3A3A3"/>
<path d="M518.8 292.861C517.419 292.861 516.075 292.646 514.768 292.217C513.48 291.787 512.425 291.209 511.604 290.481L512.892 288.269C513.545 288.885 514.395 289.389 515.44 289.781C516.485 290.173 517.596 290.369 518.772 290.369C520.265 290.369 521.413 290.051 522.216 289.417C523.019 288.782 523.42 287.933 523.42 286.869C523.42 286.141 523.243 285.506 522.888 284.965C522.533 284.423 521.917 284.013 521.04 283.733C520.181 283.434 518.996 283.285 517.484 283.285H513.032L514.068 273.037H525.128V275.473H515.104L516.56 274.101L515.748 282.193L514.292 280.849H518.072C520.032 280.849 521.609 281.101 522.804 281.605C523.999 282.109 524.867 282.809 525.408 283.705C525.949 284.582 526.22 285.599 526.22 286.757C526.22 287.877 525.949 288.903 525.408 289.837C524.867 290.751 524.045 291.489 522.944 292.049C521.861 292.59 520.48 292.861 518.8 292.861Z" fill="#A3A3A3"/>
<path d="M605.935 292.861C604.199 292.861 602.715 292.478 601.483 291.713C600.251 290.947 599.309 289.846 598.655 288.409C598.021 286.953 597.703 285.179 597.703 283.089C597.703 280.867 598.095 278.991 598.879 277.461C599.663 275.93 600.755 274.773 602.155 273.989C603.555 273.205 605.161 272.813 606.971 272.813C607.905 272.813 608.791 272.906 609.631 273.093C610.49 273.279 611.227 273.569 611.843 273.961L610.779 276.145C610.275 275.79 609.697 275.547 609.043 275.417C608.409 275.286 607.737 275.221 607.027 275.221C605.03 275.221 603.443 275.846 602.267 277.097C601.091 278.329 600.503 280.167 600.503 282.613C600.503 283.005 600.522 283.471 600.559 284.013C600.597 284.554 600.69 285.086 600.839 285.609L599.887 284.657C600.167 283.798 600.606 283.079 601.203 282.501C601.819 281.903 602.547 281.465 603.387 281.185C604.246 280.886 605.17 280.737 606.159 280.737C607.466 280.737 608.623 280.979 609.631 281.465C610.639 281.95 611.433 282.641 612.011 283.537C612.59 284.414 612.879 285.459 612.879 286.673C612.879 287.923 612.571 289.015 611.955 289.949C611.339 290.882 610.509 291.601 609.463 292.105C608.418 292.609 607.242 292.861 605.935 292.861ZM605.823 290.593C606.682 290.593 607.429 290.434 608.063 290.117C608.717 289.799 609.23 289.361 609.603 288.801C609.977 288.222 610.163 287.55 610.163 286.785C610.163 285.627 609.762 284.713 608.959 284.041C608.157 283.35 607.065 283.005 605.683 283.005C604.787 283.005 604.003 283.173 603.331 283.509C602.659 283.845 602.127 284.302 601.735 284.881C601.362 285.441 601.175 286.085 601.175 286.813C601.175 287.485 601.353 288.11 601.707 288.689C602.062 289.249 602.585 289.706 603.275 290.061C603.966 290.415 604.815 290.593 605.823 290.593Z" fill="#A3A3A3"/>
<path d="M86.3648 362.637L94.6808 344.213L95.4088 345.473H83.7608L85.1608 344.101V348.973H82.4728V343.037H97.2568V344.941L89.3328 362.637H86.3648Z" fill="#A3A3A3"/>
<path d="M175.811 362.861C174.225 362.861 172.853 362.627 171.695 362.161C170.538 361.694 169.642 361.031 169.007 360.173C168.373 359.295 168.055 358.269 168.055 357.093C168.055 355.935 168.354 354.955 168.951 354.153C169.567 353.331 170.454 352.715 171.611 352.305C172.769 351.875 174.169 351.661 175.811 351.661C177.454 351.661 178.854 351.875 180.011 352.305C181.187 352.715 182.083 353.331 182.699 354.153C183.315 354.974 183.623 355.954 183.623 357.093C183.623 358.269 183.306 359.295 182.671 360.173C182.037 361.031 181.131 361.694 179.955 362.161C178.779 362.627 177.398 362.861 175.811 362.861ZM175.811 360.593C177.379 360.593 178.602 360.275 179.479 359.641C180.375 358.987 180.823 358.11 180.823 357.009C180.823 355.926 180.375 355.077 179.479 354.461C178.602 353.826 177.379 353.509 175.811 353.509C174.262 353.509 173.049 353.826 172.171 354.461C171.294 355.077 170.855 355.926 170.855 357.009C170.855 358.11 171.294 358.987 172.171 359.641C173.049 360.275 174.262 360.593 175.811 360.593ZM175.811 353.173C174.318 353.173 173.049 352.977 172.003 352.585C170.958 352.174 170.155 351.595 169.595 350.849C169.035 350.083 168.755 349.178 168.755 348.133C168.755 347.031 169.045 346.089 169.623 345.305C170.221 344.502 171.051 343.886 172.115 343.457C173.179 343.027 174.411 342.813 175.811 342.813C177.23 342.813 178.471 343.027 179.535 343.457C180.599 343.886 181.43 344.502 182.027 345.305C182.625 346.089 182.923 347.031 182.923 348.133C182.923 349.178 182.643 350.083 182.083 350.849C181.523 351.595 180.711 352.174 179.647 352.585C178.583 352.977 177.305 353.173 175.811 353.173ZM175.811 351.381C177.174 351.381 178.238 351.101 179.003 350.541C179.787 349.981 180.179 349.215 180.179 348.245C180.179 347.255 179.778 346.481 178.975 345.921C178.173 345.361 177.118 345.081 175.811 345.081C174.505 345.081 173.459 345.361 172.675 345.921C171.91 346.481 171.527 347.255 171.527 348.245C171.527 349.215 171.901 349.981 172.647 350.541C173.413 351.101 174.467 351.381 175.811 351.381Z" fill="#A3A3A3"/>
<path d="M260.726 342.813C262.5 342.813 263.993 343.195 265.206 343.961C266.438 344.726 267.372 345.837 268.006 347.293C268.641 348.73 268.958 350.494 268.958 352.585C268.958 354.806 268.566 356.682 267.782 358.213C266.998 359.743 265.916 360.901 264.534 361.685C263.153 362.469 261.538 362.861 259.69 362.861C258.776 362.861 257.889 362.767 257.03 362.581C256.19 362.394 255.453 362.105 254.818 361.713L255.882 359.529C256.405 359.865 256.984 360.107 257.618 360.257C258.272 360.387 258.953 360.453 259.662 360.453C261.641 360.453 263.218 359.837 264.394 358.605C265.57 357.354 266.158 355.506 266.158 353.061C266.158 352.669 266.14 352.202 266.102 351.661C266.065 351.119 265.981 350.587 265.85 350.065L266.774 351.017C266.513 351.875 266.074 352.603 265.458 353.201C264.861 353.779 264.133 354.218 263.274 354.517C262.434 354.797 261.51 354.937 260.502 354.937C259.214 354.937 258.066 354.694 257.058 354.209C256.05 353.723 255.257 353.042 254.678 352.165C254.1 351.269 253.81 350.214 253.81 349.001C253.81 347.731 254.109 346.639 254.706 345.725C255.322 344.791 256.153 344.073 257.198 343.569C258.262 343.065 259.438 342.813 260.726 342.813ZM260.838 345.081C259.998 345.081 259.252 345.239 258.598 345.557C257.945 345.874 257.432 346.313 257.058 346.873C256.704 347.433 256.526 348.105 256.526 348.889C256.526 350.046 256.928 350.97 257.73 351.661C258.533 352.333 259.616 352.669 260.978 352.669C261.874 352.669 262.658 352.501 263.33 352.165C264.021 351.829 264.553 351.371 264.926 350.793C265.318 350.214 265.514 349.57 265.514 348.861C265.514 348.17 265.337 347.545 264.982 346.985C264.628 346.425 264.105 345.967 263.414 345.613C262.724 345.258 261.865 345.081 260.838 345.081Z" fill="#A3A3A3"/>
<path d="M337.628 362.637V344.157L338.832 345.473H333.204V343.037H340.4V362.637H337.628ZM352.696 362.861C351.165 362.861 349.793 362.469 348.58 361.685C347.385 360.901 346.433 359.762 345.724 358.269C345.033 356.775 344.688 354.965 344.688 352.837C344.688 350.709 345.033 348.898 345.724 347.405C346.433 345.911 347.385 344.773 348.58 343.989C349.793 343.205 351.165 342.813 352.696 342.813C354.208 342.813 355.57 343.205 356.784 343.989C357.997 344.773 358.949 345.911 359.64 347.405C360.33 348.898 360.676 350.709 360.676 352.837C360.676 354.965 360.33 356.775 359.64 358.269C358.949 359.762 357.997 360.901 356.784 361.685C355.57 362.469 354.208 362.861 352.696 362.861ZM352.696 360.369C353.722 360.369 354.618 360.089 355.384 359.529C356.168 358.969 356.774 358.129 357.204 357.009C357.652 355.889 357.876 354.498 357.876 352.837C357.876 351.175 357.652 349.785 357.204 348.665C356.774 347.545 356.168 346.705 355.384 346.145C354.618 345.585 353.722 345.305 352.696 345.305C351.669 345.305 350.764 345.585 349.98 346.145C349.196 346.705 348.58 347.545 348.132 348.665C347.702 349.785 347.488 351.175 347.488 352.837C347.488 354.498 347.702 355.889 348.132 357.009C348.58 358.129 349.196 358.969 349.98 359.529C350.764 360.089 351.669 360.369 352.696 360.369Z" fill="#A3A3A3"/>
<path d="M427.618 362.637V344.157L428.822 345.473H423.194V343.037H430.39V362.637H427.618ZM437.981 362.637V344.157L439.185 345.473H433.557V343.037H440.753V362.637H437.981Z" fill="#A3A3A3"/>
<path d="M494.167 327.637H541.337V377.637H494.167V327.637Z" fill="#FF6100"/>
<path d="M541.337 377.637V379.637H543.337V377.637H541.337ZM539.337 327.637V377.637H543.337V327.637H539.337ZM541.337 375.637H494.167V379.637H541.337V375.637Z" fill="#FFA940"/>
<path d="M510.594 361.637V343.157L511.798 344.473H506.17V342.037H513.366V361.637H510.594ZM517.346 361.637V359.733L525.326 352.033C526.035 351.361 526.558 350.773 526.894 350.269C527.248 349.746 527.482 349.27 527.594 348.841C527.724 348.393 527.79 347.963 527.79 347.553C527.79 346.545 527.435 345.751 526.726 345.173C526.016 344.594 524.98 344.305 523.618 344.305C522.572 344.305 521.63 344.482 520.79 344.837C519.95 345.173 519.222 345.705 518.606 346.433L516.702 344.781C517.448 343.829 518.447 343.101 519.698 342.597C520.967 342.074 522.358 341.813 523.87 341.813C525.232 341.813 526.418 342.037 527.426 342.485C528.434 342.914 529.208 343.539 529.75 344.361C530.31 345.182 530.59 346.153 530.59 347.273C530.59 347.907 530.506 348.533 530.338 349.149C530.17 349.765 529.852 350.418 529.386 351.109C528.919 351.799 528.247 352.574 527.37 353.433L520.258 360.293L519.586 359.201H531.43V361.637H517.346Z" fill="white"/>
<path d="M596.455 362.637V344.157L597.659 345.473H592.031V343.037H599.227V362.637H596.455ZM609.506 362.861C608.125 362.861 606.781 362.646 605.474 362.217C604.186 361.787 603.131 361.209 602.31 360.481L603.598 358.269C604.251 358.885 605.101 359.389 606.146 359.781C607.191 360.173 608.311 360.369 609.506 360.369C610.962 360.369 612.091 360.061 612.894 359.445C613.715 358.81 614.126 357.961 614.126 356.897C614.126 355.87 613.734 355.049 612.95 354.433C612.185 353.798 610.962 353.481 609.282 353.481H607.714V351.521L613.538 344.353L613.93 345.473H603.206V343.037H616.142V344.941L610.346 352.081L608.89 351.213H609.814C612.185 351.213 613.958 351.745 615.134 352.809C616.329 353.873 616.926 355.226 616.926 356.869C616.926 357.97 616.655 358.978 616.114 359.893C615.573 360.807 614.751 361.535 613.65 362.077C612.567 362.599 611.186 362.861 609.506 362.861Z" fill="#3F3F3F"/>
<line x1="157.646" y1="369.961" x2="193.002" y2="334.606" stroke="#A3A3A3"/>
<line x1="193.002" y1="370.668" x2="157.647" y2="335.313" stroke="#A3A3A3"/>
<path d="M80.1011 432.637V414.157L81.3051 415.473H75.6771V413.037H82.8731V432.637H80.1011ZM86.8804 427.821V425.861L96.9044 413.037H99.9284L89.9884 425.861L88.5604 425.413H104.212V427.821H86.8804ZM97.7724 432.637V427.821L97.8564 425.413V421.157H100.488V432.637H97.7724Z" fill="#3F3F3F"/>
<path d="M167.26 432.637V414.157L168.464 415.473H162.836V413.037H170.032V432.637H167.26ZM180.648 432.861C179.266 432.861 177.922 432.646 176.616 432.217C175.328 431.787 174.273 431.209 173.452 430.481L174.74 428.269C175.393 428.885 176.242 429.389 177.288 429.781C178.333 430.173 179.444 430.369 180.62 430.369C182.113 430.369 183.261 430.051 184.064 429.417C184.866 428.782 185.268 427.933 185.268 426.869C185.268 426.141 185.09 425.506 184.736 424.965C184.381 424.423 183.765 424.013 182.888 423.733C182.029 423.434 180.844 423.285 179.332 423.285H174.88L175.916 413.037H186.976V415.473H176.952L178.408 414.101L177.596 422.193L176.14 420.849H179.92C181.88 420.849 183.457 421.101 184.652 421.605C185.846 422.109 186.714 422.809 187.256 423.705C187.797 424.582 188.068 425.599 188.068 426.757C188.068 427.877 187.797 428.903 187.256 429.837C186.714 430.751 185.893 431.489 184.792 432.049C183.709 432.59 182.328 432.861 180.648 432.861Z" fill="#A3A3A3"/>
<path d="M252.493 432.637V414.157L253.697 415.473H248.069V413.037H255.265V432.637H252.493ZM267.784 432.861C266.048 432.861 264.564 432.478 263.332 431.713C262.1 430.947 261.157 429.846 260.504 428.409C259.869 426.953 259.552 425.179 259.552 423.089C259.552 420.867 259.944 418.991 260.728 417.461C261.512 415.93 262.604 414.773 264.004 413.989C265.404 413.205 267.009 412.813 268.82 412.813C269.753 412.813 270.64 412.906 271.48 413.093C272.339 413.279 273.076 413.569 273.692 413.961L272.628 416.145C272.124 415.79 271.545 415.547 270.892 415.417C270.257 415.286 269.585 415.221 268.876 415.221C266.879 415.221 265.292 415.846 264.116 417.097C262.94 418.329 262.352 420.167 262.352 422.613C262.352 423.005 262.371 423.471 262.408 424.013C262.445 424.554 262.539 425.086 262.688 425.609L261.736 424.657C262.016 423.798 262.455 423.079 263.052 422.501C263.668 421.903 264.396 421.465 265.236 421.185C266.095 420.886 267.019 420.737 268.008 420.737C269.315 420.737 270.472 420.979 271.48 421.465C272.488 421.95 273.281 422.641 273.86 423.537C274.439 424.414 274.728 425.459 274.728 426.673C274.728 427.923 274.42 429.015 273.804 429.949C273.188 430.882 272.357 431.601 271.312 432.105C270.267 432.609 269.091 432.861 267.784 432.861ZM267.672 430.593C268.531 430.593 269.277 430.434 269.912 430.117C270.565 429.799 271.079 429.361 271.452 428.801C271.825 428.222 272.012 427.55 272.012 426.785C272.012 425.627 271.611 424.713 270.808 424.041C270.005 423.35 268.913 423.005 267.532 423.005C266.636 423.005 265.852 423.173 265.18 423.509C264.508 423.845 263.976 424.302 263.584 424.881C263.211 425.441 263.024 426.085 263.024 426.813C263.024 427.485 263.201 428.11 263.556 428.689C263.911 429.249 264.433 429.706 265.124 430.061C265.815 430.415 266.664 430.593 267.672 430.593Z" fill="#3F3F3F"/>
<path d="M338.599 432.637V414.157L339.803 415.473H334.175V413.037H341.371V432.637H338.599ZM349.046 432.637L357.362 414.213L358.09 415.473H346.442L347.842 414.101V418.973H345.154V413.037H359.938V414.941L352.014 432.637H349.046Z" fill="#3F3F3F"/>
<path d="M423.79 432.637V414.157L424.994 415.473H419.366V413.037H426.562V432.637H423.79ZM438.493 432.861C436.906 432.861 435.534 432.627 434.377 432.161C433.22 431.694 432.324 431.031 431.689 430.173C431.054 429.295 430.737 428.269 430.737 427.093C430.737 425.935 431.036 424.955 431.633 424.153C432.249 423.331 433.136 422.715 434.293 422.305C435.45 421.875 436.85 421.661 438.493 421.661C440.136 421.661 441.536 421.875 442.693 422.305C443.869 422.715 444.765 423.331 445.381 424.153C445.997 424.974 446.305 425.954 446.305 427.093C446.305 428.269 445.988 429.295 445.353 430.173C444.718 431.031 443.813 431.694 442.637 432.161C441.461 432.627 440.08 432.861 438.493 432.861ZM438.493 430.593C440.061 430.593 441.284 430.275 442.161 429.641C443.057 428.987 443.505 428.11 443.505 427.009C443.505 425.926 443.057 425.077 442.161 424.461C441.284 423.826 440.061 423.509 438.493 423.509C436.944 423.509 435.73 423.826 434.853 424.461C433.976 425.077 433.537 425.926 433.537 427.009C433.537 428.11 433.976 428.987 434.853 429.641C435.73 430.275 436.944 430.593 438.493 430.593ZM438.493 423.173C437 423.173 435.73 422.977 434.685 422.585C433.64 422.174 432.837 421.595 432.277 420.849C431.717 420.083 431.437 419.178 431.437 418.133C431.437 417.031 431.726 416.089 432.305 415.305C432.902 414.502 433.733 413.886 434.797 413.457C435.861 413.027 437.093 412.813 438.493 412.813C439.912 412.813 441.153 413.027 442.217 413.457C443.281 413.886 444.112 414.502 444.709 415.305C445.306 416.089 445.605 417.031 445.605 418.133C445.605 419.178 445.325 420.083 444.765 420.849C444.205 421.595 443.393 422.174 442.329 422.585C441.265 422.977 439.986 423.173 438.493 423.173ZM438.493 421.381C439.856 421.381 440.92 421.101 441.685 420.541C442.469 419.981 442.861 419.215 442.861 418.245C442.861 417.255 442.46 416.481 441.657 415.921C440.854 415.361 439.8 415.081 438.493 415.081C437.186 415.081 436.141 415.361 435.357 415.921C434.592 416.481 434.209 417.255 434.209 418.245C434.209 419.215 434.582 419.981 435.329 420.541C436.094 421.101 437.149 421.381 438.493 421.381Z" fill="#3F3F3F"/>
<path d="M509.993 432.637V414.157L511.197 415.473H505.569V413.037H512.765V432.637H509.993ZM523.408 412.813C525.181 412.813 526.675 413.195 527.888 413.961C529.12 414.726 530.053 415.837 530.688 417.293C531.323 418.73 531.64 420.494 531.64 422.585C531.64 424.806 531.248 426.682 530.464 428.213C529.68 429.743 528.597 430.901 527.216 431.685C525.835 432.469 524.22 432.861 522.372 432.861C521.457 432.861 520.571 432.767 519.712 432.581C518.872 432.394 518.135 432.105 517.5 431.713L518.564 429.529C519.087 429.865 519.665 430.107 520.3 430.257C520.953 430.387 521.635 430.453 522.344 430.453C524.323 430.453 525.9 429.837 527.076 428.605C528.252 427.354 528.84 425.506 528.84 423.061C528.84 422.669 528.821 422.202 528.784 421.661C528.747 421.119 528.663 420.587 528.532 420.065L529.456 421.017C529.195 421.875 528.756 422.603 528.14 423.201C527.543 423.779 526.815 424.218 525.956 424.517C525.116 424.797 524.192 424.937 523.184 424.937C521.896 424.937 520.748 424.694 519.74 424.209C518.732 423.723 517.939 423.042 517.36 422.165C516.781 421.269 516.492 420.214 516.492 419.001C516.492 417.731 516.791 416.639 517.388 415.725C518.004 414.791 518.835 414.073 519.88 413.569C520.944 413.065 522.12 412.813 523.408 412.813ZM523.52 415.081C522.68 415.081 521.933 415.239 521.28 415.557C520.627 415.874 520.113 416.313 519.74 416.873C519.385 417.433 519.208 418.105 519.208 418.889C519.208 420.046 519.609 420.97 520.412 421.661C521.215 422.333 522.297 422.669 523.66 422.669C524.556 422.669 525.34 422.501 526.012 422.165C526.703 421.829 527.235 421.371 527.608 420.793C528 420.214 528.196 419.57 528.196 418.861C528.196 418.17 528.019 417.545 527.664 416.985C527.309 416.425 526.787 415.967 526.096 415.613C525.405 415.258 524.547 415.081 523.52 415.081Z" fill="#3F3F3F"/>
<path d="M588.673 432.637V430.733L596.653 423.033C597.362 422.361 597.885 421.773 598.221 421.269C598.575 420.746 598.809 420.27 598.921 419.841C599.051 419.393 599.117 418.963 599.117 418.553C599.117 417.545 598.762 416.751 598.053 416.173C597.343 415.594 596.307 415.305 594.945 415.305C593.899 415.305 592.957 415.482 592.117 415.837C591.277 416.173 590.549 416.705 589.933 417.433L588.029 415.781C588.775 414.829 589.774 414.101 591.025 413.597C592.294 413.074 593.685 412.813 595.197 412.813C596.559 412.813 597.745 413.037 598.753 413.485C599.761 413.914 600.535 414.539 601.077 415.361C601.637 416.182 601.917 417.153 601.917 418.273C601.917 418.907 601.833 419.533 601.665 420.149C601.497 420.765 601.179 421.418 600.713 422.109C600.246 422.799 599.574 423.574 598.697 424.433L591.585 431.293L590.913 430.201H602.757V432.637H588.673ZM613.04 432.861C611.509 432.861 610.137 432.469 608.924 431.685C607.729 430.901 606.777 429.762 606.068 428.269C605.377 426.775 605.032 424.965 605.032 422.837C605.032 420.709 605.377 418.898 606.068 417.405C606.777 415.911 607.729 414.773 608.924 413.989C610.137 413.205 611.509 412.813 613.04 412.813C614.552 412.813 615.914 413.205 617.128 413.989C618.341 414.773 619.293 415.911 619.984 417.405C620.674 418.898 621.02 420.709 621.02 422.837C621.02 424.965 620.674 426.775 619.984 428.269C619.293 429.762 618.341 430.901 617.128 431.685C615.914 432.469 614.552 432.861 613.04 432.861ZM613.04 430.369C614.066 430.369 614.962 430.089 615.728 429.529C616.512 428.969 617.118 428.129 617.548 427.009C617.996 425.889 618.22 424.498 618.22 422.837C618.22 421.175 617.996 419.785 617.548 418.665C617.118 417.545 616.512 416.705 615.728 416.145C614.962 415.585 614.066 415.305 613.04 415.305C612.013 415.305 611.108 415.585 610.324 416.145C609.54 416.705 608.924 417.545 608.476 418.665C608.046 419.785 607.832 421.175 607.832 422.837C607.832 424.498 608.046 425.889 608.476 427.009C608.924 428.129 609.54 428.969 610.324 429.529C611.108 430.089 612.013 430.369 613.04 430.369Z" fill="#3F3F3F"/>
<line x1="157.646" y1="440.002" x2="193.002" y2="404.647" stroke="#A3A3A3"/>
<line x1="193.002" y1="440.709" x2="157.647" y2="405.354" stroke="#A3A3A3"/>
<path d="M77.8153 502.637V500.733L85.7953 493.033C86.5046 492.361 87.0273 491.773 87.3633 491.269C87.718 490.746 87.9513 490.27 88.0633 489.841C88.194 489.393 88.2593 488.963 88.2593 488.553C88.2593 487.545 87.9046 486.751 87.1953 486.173C86.486 485.594 85.45 485.305 84.0873 485.305C83.042 485.305 82.0993 485.482 81.2593 485.837C80.4193 486.173 79.6913 486.705 79.0753 487.433L77.1713 485.781C77.918 484.829 78.9166 484.101 80.1673 483.597C81.4366 483.074 82.8273 482.813 84.3393 482.813C85.702 482.813 86.8873 483.037 87.8953 483.485C88.9033 483.914 89.678 484.539 90.2193 485.361C90.7793 486.182 91.0593 487.153 91.0593 488.273C91.0593 488.907 90.9753 489.533 90.8073 490.149C90.6393 490.765 90.322 491.418 89.8553 492.109C89.3886 492.799 88.7166 493.574 87.8393 494.433L80.7273 501.293L80.0553 500.201H91.8993V502.637H77.8153ZM97.5054 502.637V484.157L98.7094 485.473H93.0814V483.037H100.277V502.637H97.5054Z" fill="#3F3F3F"/>
<path d="M160.791 502.637V500.733L168.771 493.033C169.48 492.361 170.003 491.773 170.339 491.269C170.694 490.746 170.927 490.27 171.039 489.841C171.17 489.393 171.235 488.963 171.235 488.553C171.235 487.545 170.88 486.751 170.171 486.173C169.462 485.594 168.426 485.305 167.063 485.305C166.018 485.305 165.075 485.482 164.235 485.837C163.395 486.173 162.667 486.705 162.051 487.433L160.147 485.781C160.894 484.829 161.892 484.101 163.143 483.597C164.412 483.074 165.803 482.813 167.315 482.813C168.678 482.813 169.863 483.037 170.871 483.485C171.879 483.914 172.654 484.539 173.195 485.361C173.755 486.182 174.035 487.153 174.035 488.273C174.035 488.907 173.951 489.533 173.783 490.149C173.615 490.765 173.298 491.418 172.831 492.109C172.364 492.799 171.692 493.574 170.815 494.433L163.703 501.293L163.031 500.201H174.875V502.637H160.791ZM176.869 502.637V500.733L184.849 493.033C185.558 492.361 186.081 491.773 186.417 491.269C186.772 490.746 187.005 490.27 187.117 489.841C187.248 489.393 187.313 488.963 187.313 488.553C187.313 487.545 186.958 486.751 186.249 486.173C185.54 485.594 184.504 485.305 183.141 485.305C182.096 485.305 181.153 485.482 180.313 485.837C179.473 486.173 178.745 486.705 178.129 487.433L176.225 485.781C176.972 484.829 177.97 484.101 179.221 483.597C180.49 483.074 181.881 482.813 183.393 482.813C184.756 482.813 185.941 483.037 186.949 483.485C187.957 483.914 188.732 484.539 189.273 485.361C189.833 486.182 190.113 487.153 190.113 488.273C190.113 488.907 190.029 489.533 189.861 490.149C189.693 490.765 189.376 491.418 188.909 492.109C188.442 492.799 187.77 493.574 186.893 494.433L179.781 501.293L179.109 500.201H190.953V502.637H176.869Z" fill="#A3A3A3"/>
<path d="M246.652 502.637V500.733L254.632 493.033C255.342 492.361 255.864 491.773 256.2 491.269C256.555 490.746 256.788 490.27 256.9 489.841C257.031 489.393 257.096 488.963 257.096 488.553C257.096 487.545 256.742 486.751 256.032 486.173C255.323 485.594 254.287 485.305 252.924 485.305C251.879 485.305 250.936 485.482 250.096 485.837C249.256 486.173 248.528 486.705 247.912 487.433L246.008 485.781C246.755 484.829 247.754 484.101 249.004 483.597C250.274 483.074 251.664 482.813 253.176 482.813C254.539 482.813 255.724 483.037 256.732 483.485C257.74 483.914 258.515 484.539 259.056 485.361C259.616 486.182 259.896 487.153 259.896 488.273C259.896 488.907 259.812 489.533 259.644 490.149C259.476 490.765 259.159 491.418 258.692 492.109C258.226 492.799 257.554 493.574 256.676 494.433L249.564 501.293L248.892 500.201H260.736V502.637H246.652ZM269.03 502.861C267.649 502.861 266.305 502.646 264.998 502.217C263.71 501.787 262.656 501.209 261.834 500.481L263.122 498.269C263.776 498.885 264.625 499.389 265.67 499.781C266.716 500.173 267.836 500.369 269.03 500.369C270.486 500.369 271.616 500.061 272.418 499.445C273.24 498.81 273.65 497.961 273.65 496.897C273.65 495.87 273.258 495.049 272.474 494.433C271.709 493.798 270.486 493.481 268.806 493.481H267.238V491.521L273.062 484.353L273.454 485.473H262.73V483.037H275.666V484.941L269.87 492.081L268.414 491.213H269.338C271.709 491.213 273.482 491.745 274.658 492.809C275.853 493.873 276.45 495.226 276.45 496.869C276.45 497.97 276.18 498.978 275.638 499.893C275.097 500.807 274.276 501.535 273.174 502.077C272.092 502.599 270.71 502.861 269.03 502.861Z" fill="#3F3F3F"/>
<path d="M331.405 502.637V500.733L339.385 493.033C340.094 492.361 340.617 491.773 340.953 491.269C341.308 490.746 341.541 490.27 341.653 489.841C341.784 489.393 341.849 488.963 341.849 488.553C341.849 487.545 341.494 486.751 340.785 486.173C340.076 485.594 339.04 485.305 337.677 485.305C336.632 485.305 335.689 485.482 334.849 485.837C334.009 486.173 333.281 486.705 332.665 487.433L330.761 485.781C331.508 484.829 332.506 484.101 333.757 483.597C335.026 483.074 336.417 482.813 337.929 482.813C339.292 482.813 340.477 483.037 341.485 483.485C342.493 483.914 343.268 484.539 343.809 485.361C344.369 486.182 344.649 487.153 344.649 488.273C344.649 488.907 344.565 489.533 344.397 490.149C344.229 490.765 343.912 491.418 343.445 492.109C342.978 492.799 342.306 493.574 341.429 494.433L334.317 501.293L333.645 500.201H345.489V502.637H331.405ZM346.964 497.821V495.861L356.988 483.037H360.012L350.072 495.861L348.644 495.413H364.296V497.821H346.964ZM357.856 502.637V497.821L357.94 495.413V491.157H360.572V502.637H357.856Z" fill="#3F3F3F"/>
<path d="M418.291 502.637V500.733L426.271 493.033C426.98 492.361 427.503 491.773 427.839 491.269C428.194 490.746 428.427 490.27 428.539 489.841C428.67 489.393 428.735 488.963 428.735 488.553C428.735 487.545 428.38 486.751 427.671 486.173C426.962 485.594 425.926 485.305 424.563 485.305C423.518 485.305 422.575 485.482 421.735 485.837C420.895 486.173 420.167 486.705 419.551 487.433L417.647 485.781C418.394 484.829 419.392 484.101 420.643 483.597C421.912 483.074 423.303 482.813 424.815 482.813C426.178 482.813 427.363 483.037 428.371 483.485C429.379 483.914 430.154 484.539 430.695 485.361C431.255 486.182 431.535 487.153 431.535 488.273C431.535 488.907 431.451 489.533 431.283 490.149C431.115 490.765 430.798 491.418 430.331 492.109C429.864 492.799 429.192 493.574 428.315 494.433L421.203 501.293L420.531 500.201H432.375V502.637H418.291ZM441.005 502.861C439.624 502.861 438.28 502.646 436.973 502.217C435.685 501.787 434.63 501.209 433.809 500.481L435.097 498.269C435.75 498.885 436.6 499.389 437.645 499.781C438.69 500.173 439.801 500.369 440.977 500.369C442.47 500.369 443.618 500.051 444.421 499.417C445.224 498.782 445.625 497.933 445.625 496.869C445.625 496.141 445.448 495.506 445.093 494.965C444.738 494.423 444.122 494.013 443.245 493.733C442.386 493.434 441.201 493.285 439.689 493.285H435.237L436.273 483.037H447.333V485.473H437.309L438.765 484.101L437.953 492.193L436.497 490.849H440.277C442.237 490.849 443.814 491.101 445.009 491.605C446.204 492.109 447.072 492.809 447.613 493.705C448.154 494.582 448.425 495.599 448.425 496.757C448.425 497.877 448.154 498.903 447.613 499.837C447.072 500.751 446.25 501.489 445.149 502.049C444.066 502.59 442.685 502.861 441.005 502.861Z" fill="#3F3F3F"/>
<path d="M503.537 502.637V500.733L511.517 493.033C512.226 492.361 512.749 491.773 513.085 491.269C513.44 490.746 513.673 490.27 513.785 489.841C513.916 489.393 513.981 488.963 513.981 488.553C513.981 487.545 513.626 486.751 512.917 486.173C512.208 485.594 511.172 485.305 509.809 485.305C508.764 485.305 507.821 485.482 506.981 485.837C506.141 486.173 505.413 486.705 504.797 487.433L502.893 485.781C503.64 484.829 504.638 484.101 505.889 483.597C507.158 483.074 508.549 482.813 510.061 482.813C511.424 482.813 512.609 483.037 513.617 483.485C514.625 483.914 515.4 484.539 515.941 485.361C516.501 486.182 516.781 487.153 516.781 488.273C516.781 488.907 516.697 489.533 516.529 490.149C516.361 490.765 516.044 491.418 515.577 492.109C515.11 492.799 514.438 493.574 513.561 494.433L506.449 501.293L505.777 500.201H517.621V502.637H503.537ZM528.128 502.861C526.392 502.861 524.908 502.478 523.676 501.713C522.444 500.947 521.501 499.846 520.848 498.409C520.213 496.953 519.896 495.179 519.896 493.089C519.896 490.867 520.288 488.991 521.072 487.461C521.856 485.93 522.948 484.773 524.348 483.989C525.748 483.205 527.353 482.813 529.164 482.813C530.097 482.813 530.984 482.906 531.824 483.093C532.682 483.279 533.42 483.569 534.036 483.961L532.972 486.145C532.468 485.79 531.889 485.547 531.236 485.417C530.601 485.286 529.929 485.221 529.22 485.221C527.222 485.221 525.636 485.846 524.46 487.097C523.284 488.329 522.696 490.167 522.696 492.613C522.696 493.005 522.714 493.471 522.752 494.013C522.789 494.554 522.882 495.086 523.032 495.609L522.08 494.657C522.36 493.798 522.798 493.079 523.396 492.501C524.012 491.903 524.74 491.465 525.58 491.185C526.438 490.886 527.362 490.737 528.352 490.737C529.658 490.737 530.816 490.979 531.824 491.465C532.832 491.95 533.625 492.641 534.204 493.537C534.782 494.414 535.072 495.459 535.072 496.673C535.072 497.923 534.764 499.015 534.148 499.949C533.532 500.882 532.701 501.601 531.656 502.105C530.61 502.609 529.434 502.861 528.128 502.861ZM528.016 500.593C528.874 500.593 529.621 500.434 530.256 500.117C530.909 499.799 531.422 499.361 531.796 498.801C532.169 498.222 532.356 497.55 532.356 496.785C532.356 495.627 531.954 494.713 531.152 494.041C530.349 493.35 529.257 493.005 527.876 493.005C526.98 493.005 526.196 493.173 525.524 493.509C524.852 493.845 524.32 494.302 523.928 494.881C523.554 495.441 523.368 496.085 523.368 496.813C523.368 497.485 523.545 498.11 523.9 498.689C524.254 499.249 524.777 499.706 525.468 500.061C526.158 500.415 527.008 500.593 528.016 500.593Z" fill="#3F3F3F"/>
<path d="M589.643 502.637V500.733L597.623 493.033C598.333 492.361 598.855 491.773 599.191 491.269C599.546 490.746 599.779 490.27 599.891 489.841C600.022 489.393 600.087 488.963 600.087 488.553C600.087 487.545 599.733 486.751 599.023 486.173C598.314 485.594 597.278 485.305 595.915 485.305C594.87 485.305 593.927 485.482 593.087 485.837C592.247 486.173 591.519 486.705 590.903 487.433L588.999 485.781C589.746 484.829 590.745 484.101 591.995 483.597C593.265 483.074 594.655 482.813 596.167 482.813C597.53 482.813 598.715 483.037 599.723 483.485C600.731 483.914 601.506 484.539 602.047 485.361C602.607 486.182 602.887 487.153 602.887 488.273C602.887 488.907 602.803 489.533 602.635 490.149C602.467 490.765 602.15 491.418 601.683 492.109C601.217 492.799 600.545 493.574 599.667 494.433L592.555 501.293L591.883 500.201H603.727V502.637H589.643ZM609.39 502.637L617.706 484.213L618.434 485.473H606.786L608.186 484.101V488.973H605.498V483.037H620.282V484.941L612.358 502.637H609.39Z" fill="#3F3F3F"/>
<line x1="157.646" y1="510.002" x2="193.002" y2="474.647" stroke="#A3A3A3"/>
<line x1="193.002" y1="510.709" x2="157.647" y2="475.354" stroke="#A3A3A3"/>
<path d="M73.9872 572.637V570.733L81.9672 563.033C82.6765 562.361 83.1992 561.773 83.5352 561.269C83.8898 560.746 84.1232 560.27 84.2352 559.841C84.3658 559.393 84.4312 558.963 84.4312 558.553C84.4312 557.545 84.0765 556.751 83.3672 556.173C82.6578 555.594 81.6218 555.305 80.2592 555.305C79.2138 555.305 78.2712 555.482 77.4312 555.837C76.5912 556.173 75.8632 556.705 75.2472 557.433L73.3432 555.781C74.0898 554.829 75.0885 554.101 76.3392 553.597C77.6085 553.074 78.9992 552.813 80.5112 552.813C81.8738 552.813 83.0592 553.037 84.0672 553.485C85.0752 553.914 85.8498 554.539 86.3912 555.361C86.9512 556.182 87.2312 557.153 87.2312 558.273C87.2312 558.907 87.1472 559.533 86.9792 560.149C86.8112 560.765 86.4938 561.418 86.0272 562.109C85.5605 562.799 84.8885 563.574 84.0112 564.433L76.8992 571.293L76.2272 570.201H88.0712V572.637H73.9872ZM98.0173 572.861C96.4306 572.861 95.0586 572.627 93.9013 572.161C92.744 571.694 91.848 571.031 91.2133 570.173C90.5786 569.295 90.2613 568.269 90.2613 567.093C90.2613 565.935 90.56 564.955 91.1573 564.153C91.7733 563.331 92.66 562.715 93.8173 562.305C94.9746 561.875 96.3746 561.661 98.0173 561.661C99.66 561.661 101.06 561.875 102.217 562.305C103.393 562.715 104.289 563.331 104.905 564.153C105.521 564.974 105.829 565.954 105.829 567.093C105.829 568.269 105.512 569.295 104.877 570.173C104.243 571.031 103.337 571.694 102.161 572.161C100.985 572.627 99.604 572.861 98.0173 572.861ZM98.0173 570.593C99.5853 570.593 100.808 570.275 101.685 569.641C102.581 568.987 103.029 568.11 103.029 567.009C103.029 565.926 102.581 565.077 101.685 564.461C100.808 563.826 99.5853 563.509 98.0173 563.509C96.468 563.509 95.2546 563.826 94.3773 564.461C93.5 565.077 93.0613 565.926 93.0613 567.009C93.0613 568.11 93.5 568.987 94.3773 569.641C95.2546 570.275 96.468 570.593 98.0173 570.593ZM98.0173 563.173C96.524 563.173 95.2546 562.977 94.2093 562.585C93.164 562.174 92.3613 561.595 91.8013 560.849C91.2413 560.083 90.9613 559.178 90.9613 558.133C90.9613 557.031 91.2506 556.089 91.8293 555.305C92.4266 554.502 93.2573 553.886 94.3213 553.457C95.3853 553.027 96.6173 552.813 98.0173 552.813C99.436 552.813 100.677 553.027 101.741 553.457C102.805 553.886 103.636 554.502 104.233 555.305C104.831 556.089 105.129 557.031 105.129 558.133C105.129 559.178 104.849 560.083 104.289 560.849C103.729 561.595 102.917 562.174 101.853 562.585C100.789 562.977 99.5106 563.173 98.0173 563.173ZM98.0173 561.381C99.38 561.381 100.444 561.101 101.209 560.541C101.993 559.981 102.385 559.215 102.385 558.245C102.385 557.255 101.984 556.481 101.181 555.921C100.379 555.361 99.324 555.081 98.0173 555.081C96.7106 555.081 95.6653 555.361 94.8813 555.921C94.116 556.481 93.7333 557.255 93.7333 558.245C93.7333 559.215 94.1066 559.981 94.8533 560.541C95.6186 561.101 96.6733 561.381 98.0173 561.381Z" fill="#3F3F3F"/>
<path d="M160.356 572.637V570.733L168.336 563.033C169.046 562.361 169.568 561.773 169.904 561.269C170.259 560.746 170.492 560.27 170.604 559.841C170.735 559.393 170.8 558.963 170.8 558.553C170.8 557.545 170.446 556.751 169.736 556.173C169.027 555.594 167.991 555.305 166.628 555.305C165.583 555.305 164.64 555.482 163.8 555.837C162.96 556.173 162.232 556.705 161.616 557.433L159.712 555.781C160.459 554.829 161.458 554.101 162.708 553.597C163.978 553.074 165.368 552.813 166.88 552.813C168.243 552.813 169.428 553.037 170.436 553.485C171.444 553.914 172.219 554.539 172.76 555.361C173.32 556.182 173.6 557.153 173.6 558.273C173.6 558.907 173.516 559.533 173.348 560.149C173.18 560.765 172.863 561.418 172.396 562.109C171.93 562.799 171.258 563.574 170.38 564.433L163.268 571.293L162.596 570.201H174.44V572.637H160.356ZM183.098 552.813C184.872 552.813 186.365 553.195 187.578 553.961C188.81 554.726 189.744 555.837 190.378 557.293C191.013 558.73 191.33 560.494 191.33 562.585C191.33 564.806 190.938 566.682 190.154 568.213C189.37 569.743 188.288 570.901 186.906 571.685C185.525 572.469 183.91 572.861 182.062 572.861C181.148 572.861 180.261 572.767 179.402 572.581C178.562 572.394 177.825 572.105 177.19 571.713L178.254 569.529C178.777 569.865 179.356 570.107 179.99 570.257C180.644 570.387 181.325 570.453 182.034 570.453C184.013 570.453 185.59 569.837 186.766 568.605C187.942 567.354 188.53 565.506 188.53 563.061C188.53 562.669 188.512 562.202 188.474 561.661C188.437 561.119 188.353 560.587 188.222 560.065L189.146 561.017C188.885 561.875 188.446 562.603 187.83 563.201C187.233 563.779 186.505 564.218 185.646 564.517C184.806 564.797 183.882 564.937 182.874 564.937C181.586 564.937 180.438 564.694 179.43 564.209C178.422 563.723 177.629 563.042 177.05 562.165C176.472 561.269 176.182 560.214 176.182 559.001C176.182 557.731 176.481 556.639 177.078 555.725C177.694 554.791 178.525 554.073 179.57 553.569C180.634 553.065 181.81 552.813 183.098 552.813ZM183.21 555.081C182.37 555.081 181.624 555.239 180.97 555.557C180.317 555.874 179.804 556.313 179.43 556.873C179.076 557.433 178.898 558.105 178.898 558.889C178.898 560.046 179.3 560.97 180.102 561.661C180.905 562.333 181.988 562.669 183.35 562.669C184.246 562.669 185.03 562.501 185.702 562.165C186.393 561.829 186.925 561.371 187.298 560.793C187.69 560.214 187.886 559.57 187.886 558.861C187.886 558.17 187.709 557.545 187.354 556.985C187 556.425 186.477 555.967 185.786 555.613C185.096 555.258 184.237 555.081 183.21 555.081Z" fill="#A3A3A3"/>
<path d="M251.986 572.861C250.605 572.861 249.261 572.646 247.954 572.217C246.666 571.787 245.612 571.209 244.79 570.481L246.078 568.269C246.732 568.885 247.581 569.389 248.626 569.781C249.672 570.173 250.792 570.369 251.986 570.369C253.442 570.369 254.572 570.061 255.374 569.445C256.196 568.81 256.606 567.961 256.606 566.897C256.606 565.87 256.214 565.049 255.43 564.433C254.665 563.798 253.442 563.481 251.762 563.481H250.194V561.521L256.018 554.353L256.41 555.473H245.686V553.037H258.622V554.941L252.826 562.081L251.37 561.213H252.294C254.665 561.213 256.438 561.745 257.614 562.809C258.809 563.873 259.406 565.226 259.406 566.869C259.406 567.97 259.136 568.978 258.594 569.893C258.053 570.807 257.232 571.535 256.13 572.077C255.048 572.599 253.666 572.861 251.986 572.861ZM270.026 572.861C268.495 572.861 267.123 572.469 265.91 571.685C264.715 570.901 263.763 569.762 263.054 568.269C262.363 566.775 262.018 564.965 262.018 562.837C262.018 560.709 262.363 558.898 263.054 557.405C263.763 555.911 264.715 554.773 265.91 553.989C267.123 553.205 268.495 552.813 270.026 552.813C271.538 552.813 272.9 553.205 274.114 553.989C275.327 554.773 276.279 555.911 276.97 557.405C277.66 558.898 278.006 560.709 278.006 562.837C278.006 564.965 277.66 566.775 276.97 568.269C276.279 569.762 275.327 570.901 274.114 571.685C272.9 572.469 271.538 572.861 270.026 572.861ZM270.026 570.369C271.052 570.369 271.948 570.089 272.714 569.529C273.498 568.969 274.104 568.129 274.534 567.009C274.982 565.889 275.206 564.498 275.206 562.837C275.206 561.175 274.982 559.785 274.534 558.665C274.104 557.545 273.498 556.705 272.714 556.145C271.948 555.585 271.052 555.305 270.026 555.305C268.999 555.305 268.094 555.585 267.31 556.145C266.526 556.705 265.91 557.545 265.462 558.665C265.032 559.785 264.818 561.175 264.818 562.837C264.818 564.498 265.032 565.889 265.462 567.009C265.91 568.129 266.526 568.969 267.31 569.529C268.094 570.089 268.999 570.369 270.026 570.369Z" fill="#3F3F3F"/>
<path d="M342.143 572.861C340.761 572.861 339.417 572.646 338.111 572.217C336.823 571.787 335.768 571.209 334.947 570.481L336.235 568.269C336.888 568.885 337.737 569.389 338.783 569.781C339.828 570.173 340.948 570.369 342.143 570.369C343.599 570.369 344.728 570.061 345.531 569.445C346.352 568.81 346.763 567.961 346.763 566.897C346.763 565.87 346.371 565.049 345.587 564.433C344.821 563.798 343.599 563.481 341.919 563.481H340.351V561.521L346.175 554.353L346.567 555.473H335.843V553.037H348.779V554.941L342.983 562.081L341.527 561.213H342.451C344.821 561.213 346.595 561.745 347.771 562.809C348.965 563.873 349.563 565.226 349.563 566.869C349.563 567.97 349.292 568.978 348.751 569.893C348.209 570.807 347.388 571.535 346.287 572.077C345.204 572.599 343.823 572.861 342.143 572.861ZM355.478 572.637V554.157L356.682 555.473H351.054V553.037H358.25V572.637H355.478Z" fill="#3F3F3F"/>
<line x1="157.646" y1="580.002" x2="193.002" y2="544.647" stroke="#A3A3A3"/>
<line x1="193.002" y1="580.709" x2="157.647" y2="545.354" stroke="#A3A3A3"/>
</svg>
