<svg width="251" height="539" viewBox="0 0 251 539" fill="none" xmlns="http://www.w3.org/2000/svg">
<mask id="path-1-inside-1_2572_12253" fill="white">
<path fill-rule="evenodd" clip-rule="evenodd" d="M36 0H48V8H56V0H72V8H80V0H96V8H104V0H120V8H128V0H144V8H152V0H168V8H176V0H192V8H200V0H215V10H221V16H226V21H231V27H236V33H241V39H246H251V44.9971V45V143.997H0V45V44.9971V39H5H10V33H15V27H20V21H25V16H30V10H36V0Z"/>
</mask>
<path fill-rule="evenodd" clip-rule="evenodd" d="M36 0H48V8H56V0H72V8H80V0H96V8H104V0H120V8H128V0H144V8H152V0H168V8H176V0H192V8H200V0H215V10H221V16H226V21H231V27H236V33H241V39H246H251V44.9971V45V143.997H0V45V44.9971V39H5H10V33H15V27H20V21H25V16H30V10H36V0Z" fill="#5EA4C0"/>
<path d="M48 0H51V-3H48V0ZM36 0V-3H33V0H36ZM48 8H45V11H48V8ZM56 8V11H59V8H56ZM56 0V-3H53V0H56ZM72 0H75V-3H72V0ZM72 8H69V11H72V8ZM80 8V11H83V8H80ZM80 0V-3H77V0H80ZM96 0H99V-3H96V0ZM96 8H93V11H96V8ZM104 8V11H107V8H104ZM104 0V-3H101V0H104ZM120 0H123V-3H120V0ZM120 8H117V11H120V8ZM128 8V11H131V8H128ZM128 0V-3H125V0H128ZM144 0H147V-3H144V0ZM144 8H141V11H144V8ZM152 8V11H155V8H152ZM152 0V-3H149V0H152ZM168 0H171V-3H168V0ZM168 8H165V11H168V8ZM176 8V11H179V8H176ZM176 0V-3H173V0H176ZM192 0H195V-3H192V0ZM192 8H189V11H192V8ZM200 8V11H203V8H200ZM200 0V-3H197V0H200ZM215 0H218V-3H215V0ZM215 10H212V13H215V10ZM221 10H224V7H221V10ZM221 16H218V19H221V16ZM226 16H229V13H226V16ZM226 21H223V24H226V21ZM231 21H234V18H231V21ZM231 27H228V30H231V27ZM236 27H239V24H236V27ZM236 33H233V36H236V33ZM241 33H244V30H241V33ZM241 39H238V42H241V39ZM251 39H254V36H251V39ZM251 143.997V146.997H254V143.997H251ZM0 143.997H-3V146.997H0V143.997ZM0 39V36H-3V39H0ZM10 39V42H13V39H10ZM10 33V30H7V33H10ZM15 33V36H18V33H15ZM15 27V24H12V27H15ZM20 27V30H23V27H20ZM20 21V18H17V21H20ZM25 21V24H28V21H25ZM25 16V13H22V16H25ZM30 16V19H33V16H30ZM30 10V7H27V10H30ZM36 10V13H39V10H36ZM48 -3H36V3H48V-3ZM51 8V0H45V8H51ZM56 5H48V11H56V5ZM53 0V8H59V0H53ZM72 -3H56V3H72V-3ZM75 8V0H69V8H75ZM80 5H72V11H80V5ZM77 0V8H83V0H77ZM96 -3H80V3H96V-3ZM99 8V0H93V8H99ZM104 5H96V11H104V5ZM101 0V8H107V0H101ZM120 -3H104V3H120V-3ZM123 8V0H117V8H123ZM128 5H120V11H128V5ZM125 0V8H131V0H125ZM144 -3H128V3H144V-3ZM147 8V0H141V8H147ZM152 5H144V11H152V5ZM149 0V8H155V0H149ZM168 -3H152V3H168V-3ZM171 8V0H165V8H171ZM176 5H168V11H176V5ZM173 0V8H179V0H173ZM192 -3H176V3H192V-3ZM195 8V0H189V8H195ZM200 5H192V11H200V5ZM197 0V8H203V0H197ZM215 -3H200V3H215V-3ZM218 10V0H212V10H218ZM221 7H215V13H221V7ZM224 16V10H218V16H224ZM226 13H221V19H226V13ZM229 21V16H223V21H229ZM231 18H226V24H231V18ZM234 27V21H228V27H234ZM236 24H231V30H236V24ZM239 33V27H233V33H239ZM241 30H236V36H241V30ZM244 39V33H238V39H244ZM246 36H241V42H246V36ZM251 36H246V42H251V36ZM254 44.9971V39H248V44.9971H254ZM254 45V44.9971H248V45H254ZM254 143.997V45H248V143.997H254ZM0 146.997H251V140.997H0V146.997ZM-3 45V143.997H3V45H-3ZM-3 44.9971V45H3V44.9971H-3ZM-3 39V44.9971H3V39H-3ZM5 36H0V42H5V36ZM10 36H5V42H10V36ZM7 33V39H13V33H7ZM15 30H10V36H15V30ZM12 27V33H18V27H12ZM20 24H15V30H20V24ZM17 21V27H23V21H17ZM25 18H20V24H25V18ZM22 16V21H28V16H22ZM30 13H25V19H30V13ZM27 10V16H33V10H27ZM36 7H30V13H36V7ZM33 0V10H39V0H33Z" fill="#3F3F3F" mask="url(#path-1-inside-1_2572_12253)"/>
<mask id="path-3-inside-2_2572_12253" fill="white">
<path fill-rule="evenodd" clip-rule="evenodd" d="M20 52.9339L24.2231 52.9339H28.4462V47.8662L32.6693 47.8662L32.6693 42.7984L36.8924 42.7984L36.8924 37.7307H41V34H46V28H51V20L201 20V28.4384L206.068 28.4384L206.068 33.5061H210.291V37.7293H214.514V42.797H218.737V47.8647L222.96 47.8647V52.9324H227.183H231.406V57.0001H231.41V102H231.406V106.068H227.183H222.96V111.136H218.737V116.203H214.514V121.271H210.291V125.494H206.068L206.068 130.562L201 130.562V139L51 139V131H46V125H41V121.27H36.8924L36.8924 116.202H32.6693L32.6693 111.134H28.4462V106.066H24.2231H20L20 102V57.0001L20 52.9339Z"/>
</mask>
<path fill-rule="evenodd" clip-rule="evenodd" d="M20 52.9339L24.2231 52.9339H28.4462V47.8662L32.6693 47.8662L32.6693 42.7984L36.8924 42.7984L36.8924 37.7307H41V34H46V28H51V20L201 20V28.4384L206.068 28.4384L206.068 33.5061H210.291V37.7293H214.514V42.797H218.737V47.8647L222.96 47.8647V52.9324H227.183H231.406V57.0001H231.41V102H231.406V106.068H227.183H222.96V111.136H218.737V116.203H214.514V121.271H210.291V125.494H206.068L206.068 130.562L201 130.562V139L51 139V131H46V125H41V121.27H36.8924L36.8924 116.202H32.6693L32.6693 111.134H28.4462V106.066H24.2231H20L20 102V57.0001L20 52.9339Z" fill="#F5EFEB"/>
<path d="M24.2231 52.9339V49.9339H24.2231L24.2231 52.9339ZM20 52.9339L20 49.9339L17 49.9339L17 52.9339H20ZM28.4462 52.9339V55.9339H31.4462V52.9339H28.4462ZM28.4462 47.8662L28.4462 44.8662L25.4462 44.8662V47.8662H28.4462ZM32.6693 47.8662L32.6693 50.8662L35.6693 50.8662L35.6693 47.8662H32.6693ZM32.6693 42.7984L32.6693 39.7984L29.6693 39.7984L29.6693 42.7984H32.6693ZM36.8924 42.7984L36.8924 45.7984L39.8924 45.7984L39.8924 42.7984L36.8924 42.7984ZM36.8924 37.7307V34.7307H33.8924L33.8924 37.7307L36.8924 37.7307ZM41 37.7307V40.7307H44V37.7307H41ZM41 34V31H38V34H41ZM46 34V37H49V34H46ZM46 28V25H43V28H46ZM51 28V31H54V28H51ZM51 20V17L48 17V20H51ZM201 20H204V17L201 17V20ZM201 28.4384H198V31.4384L201 31.4384V28.4384ZM206.068 28.4384L209.068 28.4384L209.068 25.4384L206.068 25.4384V28.4384ZM206.068 33.5061L203.068 33.5062L203.068 36.5061H206.068V33.5061ZM210.291 33.5061H213.291V30.5061H210.291V33.5061ZM210.291 37.7293H207.291V40.7293H210.291V37.7293ZM214.514 37.7293H217.514V34.7293H214.514V37.7293ZM214.514 42.797H211.514V45.797H214.514V42.797ZM218.737 42.797H221.737V39.797H218.737V42.797ZM218.737 47.8647H215.737V50.8647L218.737 50.8647V47.8647ZM222.96 47.8647H225.96V44.8647L222.96 44.8647V47.8647ZM222.96 52.9324H219.96V55.9324H222.96V52.9324ZM231.406 52.9324H234.406V49.9324H231.406V52.9324ZM231.406 57.0001H228.406V60.0001H231.406V57.0001ZM231.41 57.0001H234.41V54.0001H231.41V57.0001ZM231.41 102V105H234.41V102H231.41ZM231.406 102V99.0001H228.406V102H231.406ZM231.406 106.068V109.068H234.406V106.068H231.406ZM222.96 106.068V103.068H219.96V106.068H222.96ZM222.96 111.136V114.136H225.96V111.136H222.96ZM218.737 111.136V108.136H215.737V111.136H218.737ZM218.737 116.203V119.203H221.737V116.203H218.737ZM214.514 116.203V113.203H211.514V116.203H214.514ZM214.514 121.271V124.271H217.514V121.271H214.514ZM210.291 121.271V118.271H207.291V121.271H210.291ZM210.291 125.494V128.494H213.291V125.494H210.291ZM206.068 125.494V122.494H203.068L203.068 125.494L206.068 125.494ZM206.068 130.562V133.562L209.068 133.562L209.068 130.562L206.068 130.562ZM201 130.562V127.562L198 127.562V130.562H201ZM201 139V142L204 142V139H201ZM51 139H48V142H51V139ZM51 131H54V128H51V131ZM46 131H43V134H46V131ZM46 125H49V122H46V125ZM41 125H38V128H41V125ZM41 121.27H44V118.27H41V121.27ZM36.8924 121.27L33.8924 121.27L33.8924 124.27H36.8924V121.27ZM36.8924 116.202H39.8924L39.8924 113.202H36.8924V116.202ZM32.6693 116.202L29.6693 116.202L29.6693 119.202H32.6693V116.202ZM32.6693 111.134L35.6693 111.134L35.6693 108.134H32.6693V111.134ZM28.4462 111.134H25.4462V114.134H28.4462V111.134ZM28.4462 106.066H31.4462V103.066H28.4462V106.066ZM20 106.066L17 106.066L17 109.066H20V106.066ZM20 102H17H20ZM20 57.0001H17H20ZM24.2231 49.9339L20 49.9339L20 55.9339L24.2231 55.9339L24.2231 49.9339ZM28.4462 49.9339H24.2231V55.9339H28.4462V49.9339ZM25.4462 47.8662V52.9339H31.4462V47.8662H25.4462ZM32.6693 44.8662L28.4462 44.8662L28.4462 50.8662L32.6693 50.8662L32.6693 44.8662ZM29.6693 42.7984L29.6693 47.8662H35.6693L35.6693 42.7984H29.6693ZM36.8924 39.7984L32.6693 39.7984L32.6693 45.7984L36.8924 45.7984L36.8924 39.7984ZM33.8924 37.7307L33.8924 42.7984L39.8924 42.7984L39.8924 37.7307L33.8924 37.7307ZM41 34.7307H36.8924V40.7307H41V34.7307ZM38 34V37.7307H44V34H38ZM46 31H41V37H46V31ZM43 28V34H49V28H43ZM51 25H46V31H51V25ZM48 20V28H54V20H48ZM201 17L51 17V23L201 23V17ZM204 28.4384V20H198V28.4384H204ZM206.068 25.4384L201 25.4384V31.4384L206.068 31.4384V25.4384ZM209.068 33.5061L209.068 28.4384L203.068 28.4384L203.068 33.5062L209.068 33.5061ZM210.291 30.5061H206.068V36.5061H210.291V30.5061ZM213.291 37.7293V33.5061H207.291V37.7293H213.291ZM214.514 34.7293H210.291V40.7293H214.514V34.7293ZM217.514 42.797V37.7293H211.514V42.797H217.514ZM218.737 39.797H214.514V45.797H218.737V39.797ZM221.737 47.8647V42.797H215.737V47.8647H221.737ZM222.96 44.8647L218.737 44.8647V50.8647L222.96 50.8647V44.8647ZM225.96 52.9324V47.8647H219.96V52.9324H225.96ZM227.183 49.9324H222.96V55.9324H227.183V49.9324ZM231.406 49.9324H227.183V55.9324H231.406V49.9324ZM234.406 57.0001V52.9324H228.406V57.0001H234.406ZM231.406 60.0001H231.41V54.0001H231.406V60.0001ZM228.41 57.0001V102H234.41V57.0001H228.41ZM231.41 99.0001H231.406V105H231.41V99.0001ZM228.406 102V106.068H234.406V102H228.406ZM231.406 103.068H227.183V109.068H231.406V103.068ZM227.183 103.068H222.96V109.068H227.183V103.068ZM219.96 106.068V111.136H225.96V106.068H219.96ZM222.96 108.136H218.737V114.136H222.96V108.136ZM215.737 111.136V116.203H221.737V111.136H215.737ZM218.737 113.203H214.514V119.203H218.737V113.203ZM211.514 116.203V121.271H217.514V116.203H211.514ZM214.514 118.271H210.291V124.271H214.514V118.271ZM207.291 121.271V125.494H213.291V121.271H207.291ZM210.291 122.494H206.068V128.494H210.291V122.494ZM203.068 125.494L203.068 130.562L209.068 130.562L209.068 125.494L203.068 125.494ZM206.068 127.562L201 127.562V133.562L206.068 133.562V127.562ZM198 130.562V139H204V130.562H198ZM201 136L51 136V142L201 142V136ZM54 139V131H48V139H54ZM51 128H46V134H51V128ZM49 131V125H43V131H49ZM46 122H41V128H46V122ZM44 125V121.27H38V125H44ZM41 118.27H36.8924V124.27H41V118.27ZM39.8924 121.27L39.8924 116.202L33.8924 116.202L33.8924 121.27L39.8924 121.27ZM36.8924 113.202H32.6693V119.202H36.8924V113.202ZM35.6693 116.202L35.6693 111.134L29.6693 111.134L29.6693 116.202L35.6693 116.202ZM32.6693 108.134H28.4462V114.134H32.6693V108.134ZM31.4462 111.134V106.066H25.4462V111.134H31.4462ZM28.4462 103.066H24.2231V109.066H28.4462V103.066ZM24.2231 103.066H20V109.066H24.2231V103.066ZM23 106.066L23 102L17 102L17 106.066L23 106.066ZM23 102V57.0001H17V102H23ZM17 52.9339L17 57.0001H23L23 52.9339H17Z" fill="#3F3F3F" mask="url(#path-3-inside-2_2572_12253)"/>
<mask id="path-5-outside-3_2572_12253" maskUnits="userSpaceOnUse" x="30" y="53.9971" width="193" height="63" fill="black">
<rect fill="white" x="30" y="53.9971" width="193" height="63"/>
<path fill-rule="evenodd" clip-rule="evenodd" d="M209.742 89.7334L214.7 90.9967L214.936 90.681C216.509 88.5734 217.7 86.1215 218.38 83.4049C221.114 72.4774 214.552 61.3822 203.723 58.623C192.894 55.8637 181.898 62.4853 179.163 73.4128C176.429 84.3402 182.991 95.4354 193.82 98.1947C196.244 98.8121 198.677 98.9599 201.024 98.6941C201.328 98.6597 201.631 98.6183 201.932 98.5701L202.316 98.5086L203.584 93.4416L207.357 94.403L206.145 99.2484L212.204 100.793L213.735 94.6782L208.818 93.4252L209.742 89.7334ZM199.054 85.7857L203.954 87.0345L205.197 82.0708L210.11 83.323C210.362 82.7279 210.572 82.1049 210.734 81.4568C212.402 74.7902 208.399 68.0211 201.792 66.3378C195.185 64.6544 188.477 68.6941 186.809 75.3608C185.141 82.0274 189.144 88.7965 195.751 90.4798C196.433 90.6536 197.116 90.7664 197.794 90.8216L199.054 85.7857Z"/>
<path fill-rule="evenodd" clip-rule="evenodd" d="M59.6475 63.5669L58.349 58.621L37.603 64.1671L38.9015 69.1131L34 70.4234L42.0935 101.249L53.0364 98.3239L50.4393 88.432L65.1439 84.501L63.8453 79.555L68.7468 78.2447L64.5491 62.2566L59.6475 63.5669ZM53.9081 66.3322L57.5019 80.0199L48.8387 82.3359L45.2449 68.6482L53.9081 66.3322Z"/>
<path fill-rule="evenodd" clip-rule="evenodd" d="M87.0525 71.0487L76.0436 68.387L73.4059 79.4957L78.337 80.6879L77.1555 85.6637L82.0865 86.8558L81.1798 90.6744L76.2488 89.4823L75.0673 94.458L70.1362 93.2658L67.4985 104.375L78.5074 107.036L80.8703 97.0846L85.8014 98.2768L86.9829 93.301L90.7672 94.216L89.5857 99.1917L94.5168 100.384L92.1538 110.335L103.163 112.997L105.8 101.888L100.869 100.696L102.051 95.7204L97.1198 94.5283L98.0265 90.7097L102.958 91.9018L104.139 86.9261L109.07 88.1183L111.708 77.0096L100.699 74.348L98.336 84.2995L93.4049 83.1073L92.2234 88.0831L88.4391 87.1681L89.6206 82.1924L84.6895 81.0002L87.0525 71.0487Z"/>
<path fill-rule="evenodd" clip-rule="evenodd" d="M114.367 93.6602L115.193 99.4353L146.181 94.923L145.025 86.8378L127.092 89.4491L141.385 65.1958L140.566 59.4648L111.517 63.6947L112.661 71.6902L128.609 69.3679L114.367 93.6602ZM140.772 65.0726L140.066 60.1386L140.772 65.0726Z"/>
<path fill-rule="evenodd" clip-rule="evenodd" d="M163.962 109.442C172.298 109.442 179.056 102.623 179.056 94.2112C179.056 85.7995 172.298 78.9804 163.962 78.9804C155.625 78.9804 148.868 85.7995 148.868 94.2112C148.868 102.623 155.625 109.442 163.962 109.442ZM171.155 94.2112C171.155 98.2199 167.934 101.47 163.962 101.47C159.989 101.47 156.768 98.2199 156.768 94.2112C156.768 90.2025 159.989 86.9528 163.962 86.9528C167.934 86.9528 171.155 90.2025 171.155 94.2112Z"/>
</mask>
<path fill-rule="evenodd" clip-rule="evenodd" d="M209.742 89.7334L214.7 90.9967L214.936 90.681C216.509 88.5734 217.7 86.1215 218.38 83.4049C221.114 72.4774 214.552 61.3822 203.723 58.623C192.894 55.8637 181.898 62.4853 179.163 73.4128C176.429 84.3402 182.991 95.4354 193.82 98.1947C196.244 98.8121 198.677 98.9599 201.024 98.6941C201.328 98.6597 201.631 98.6183 201.932 98.5701L202.316 98.5086L203.584 93.4416L207.357 94.403L206.145 99.2484L212.204 100.793L213.735 94.6782L208.818 93.4252L209.742 89.7334ZM199.054 85.7857L203.954 87.0345L205.197 82.0708L210.11 83.323C210.362 82.7279 210.572 82.1049 210.734 81.4568C212.402 74.7902 208.399 68.0211 201.792 66.3378C195.185 64.6544 188.477 68.6941 186.809 75.3608C185.141 82.0274 189.144 88.7965 195.751 90.4798C196.433 90.6536 197.116 90.7664 197.794 90.8216L199.054 85.7857Z" fill="#5EA4C0"/>
<path fill-rule="evenodd" clip-rule="evenodd" d="M59.6475 63.5669L58.349 58.621L37.603 64.1671L38.9015 69.1131L34 70.4234L42.0935 101.249L53.0364 98.3239L50.4393 88.432L65.1439 84.501L63.8453 79.555L68.7468 78.2447L64.5491 62.2566L59.6475 63.5669ZM53.9081 66.3322L57.5019 80.0199L48.8387 82.3359L45.2449 68.6482L53.9081 66.3322Z" fill="#5EA4C0"/>
<path fill-rule="evenodd" clip-rule="evenodd" d="M87.0525 71.0487L76.0436 68.387L73.4059 79.4957L78.337 80.6879L77.1555 85.6637L82.0865 86.8558L81.1798 90.6744L76.2488 89.4823L75.0673 94.458L70.1362 93.2658L67.4985 104.375L78.5074 107.036L80.8703 97.0846L85.8014 98.2768L86.9829 93.301L90.7672 94.216L89.5857 99.1917L94.5168 100.384L92.1538 110.335L103.163 112.997L105.8 101.888L100.869 100.696L102.051 95.7204L97.1198 94.5283L98.0265 90.7097L102.958 91.9018L104.139 86.9261L109.07 88.1183L111.708 77.0096L100.699 74.348L98.336 84.2995L93.4049 83.1073L92.2234 88.0831L88.4391 87.1681L89.6206 82.1924L84.6895 81.0002L87.0525 71.0487Z" fill="#5EA4C0"/>
<path fill-rule="evenodd" clip-rule="evenodd" d="M114.367 93.6602L115.193 99.4353L146.181 94.923L145.025 86.8378L127.092 89.4491L141.385 65.1958L140.566 59.4648L111.517 63.6947L112.661 71.6902L128.609 69.3679L114.367 93.6602ZM140.772 65.0726L140.066 60.1386L140.772 65.0726Z" fill="#5EA4C0"/>
<path fill-rule="evenodd" clip-rule="evenodd" d="M163.962 109.442C172.298 109.442 179.056 102.623 179.056 94.2112C179.056 85.7995 172.298 78.9804 163.962 78.9804C155.625 78.9804 148.868 85.7995 148.868 94.2112C148.868 102.623 155.625 109.442 163.962 109.442ZM171.155 94.2112C171.155 98.2199 167.934 101.47 163.962 101.47C159.989 101.47 156.768 98.2199 156.768 94.2112C156.768 90.2025 159.989 86.9528 163.962 86.9528C167.934 86.9528 171.155 90.2025 171.155 94.2112Z" fill="#5EA4C0"/>
<path d="M87.7283 87.6081L86.2688 87.2616L85.9237 88.715L87.3758 89.0661L87.7283 87.6081ZM88.9098 82.6323L90.3692 82.9789L90.7143 81.5254L89.2623 81.1743L88.9098 82.6323ZM83.9787 81.4401L82.5193 81.0936L82.1741 82.5471L83.6262 82.8981L83.9787 81.4401ZM86.3416 71.4886L87.8011 71.8352L88.1462 70.3817L86.6941 70.0306L86.3416 71.4886ZM60.6793 63.9135L59.3807 58.9676L56.4791 59.7294L57.7777 64.6754L60.6793 63.9135ZM69.4766 77.441L65.5809 62.6032L62.6792 63.365L66.5749 78.2029L69.4766 77.441ZM65.8736 83.6973L64.5751 78.7514L61.6734 79.5132L62.972 84.4592L65.8736 83.6973ZM53.7662 97.5203L51.1691 87.6284L48.2674 88.3902L50.8646 98.2821L53.7662 97.5203ZM81.9682 89.9336L77.0373 88.7415L76.3323 91.6575L81.2632 92.8496L81.9682 89.9336ZM75.8557 93.7172L70.9247 92.525L70.2197 95.441L75.1507 96.6332L75.8557 93.7172ZM79.5307 106.665L81.8937 96.714L78.9749 96.0209L76.6119 105.972L79.5307 106.665ZM86.8247 97.9061L88.0063 92.9304L85.0875 92.2373L83.9059 97.213L86.8247 97.9061ZM99.1245 83.5587L94.1934 82.3665L93.4884 85.2825L98.4195 86.4747L99.1245 83.5587ZM87.3758 89.0661L92.3068 90.2583L93.0118 87.3423L88.0808 86.1501L87.3758 89.0661ZM87.4503 82.2858L86.2688 87.2616L89.1877 87.9546L90.3692 82.9789L87.4503 82.2858ZM83.6262 82.8981L88.5573 84.0903L89.2623 81.1743L84.3312 79.9822L83.6262 82.8981ZM85.4381 81.7867L87.8011 71.8352L84.8822 71.1421L82.5193 81.0936L85.4381 81.7867ZM146.998 94.2068L146.01 87.2993L143.04 87.724L144.028 94.6315L146.998 94.2068ZM49.8705 82.6824L45.9747 67.8446L43.0731 68.6064L46.9688 83.4443L49.8705 82.6824ZM157.21 87.7924C155.641 89.4674 154.679 91.7287 154.679 94.2113H157.679C157.679 92.5167 158.333 90.9819 159.399 89.8433L157.21 87.7924ZM154.679 94.2113C154.679 96.7893 155.716 99.1282 157.393 100.82L159.524 98.7085C158.384 97.5582 157.679 95.9705 157.679 94.2113H154.679ZM76.1271 70.5622L85.9891 72.9466L86.6941 70.0306L76.8321 67.6462L76.1271 70.5622ZM214.7 90.9967L213.96 93.9039L215.904 94.3993L217.104 92.7911L214.7 90.9967ZM209.742 89.7334L210.483 86.8263L207.563 86.0824L206.832 89.0051L209.742 89.7334ZM214.936 90.681L217.34 92.4754L217.34 92.4753L214.936 90.681ZM218.38 83.4049L221.29 84.1331V84.1331L218.38 83.4049ZM203.723 58.623L204.464 55.7158V55.7158L203.723 58.623ZM193.82 98.1947L193.08 101.102L193.82 98.1947ZM201.024 98.6941L200.687 95.7131L200.687 95.7131L201.024 98.6941ZM201.932 98.5701L201.458 95.6078H201.458L201.932 98.5701ZM202.316 98.5086L202.791 101.471L204.746 101.158L205.227 99.2368L202.316 98.5086ZM203.584 93.4416L204.325 90.5345L201.405 89.7906L200.674 92.7134L203.584 93.4416ZM207.357 94.403L210.268 95.1314L210.993 92.2335L208.098 91.4959L207.357 94.403ZM206.145 99.2484L203.234 98.52L202.509 101.418L205.404 102.156L206.145 99.2484ZM212.204 100.793L211.463 103.7L214.383 104.444L215.114 101.521L212.204 100.793ZM213.735 94.6782L216.645 95.4066L217.37 92.5088L214.476 91.7711L213.735 94.6782ZM208.818 93.4252L205.908 92.697L205.183 95.5947L208.077 96.3323L208.818 93.4252ZM203.954 87.0345L203.214 89.9416L206.133 90.6856L206.865 87.7629L203.954 87.0345ZM199.054 85.7857L199.795 82.8786L196.876 82.1345L196.144 85.0573L199.054 85.7857ZM205.197 82.0708L205.938 79.1638L203.018 78.4197L202.287 81.3424L205.197 82.0708ZM210.11 83.323L209.369 86.23L211.866 86.8663L212.872 84.4944L210.11 83.323ZM210.734 81.4568L207.824 80.7285V80.7285L210.734 81.4568ZM201.792 66.3378L202.533 63.4306V63.4306L201.792 66.3378ZM186.809 75.3608L183.899 74.6325V74.6325L186.809 75.3608ZM195.751 90.4798L196.492 87.5727L196.492 87.5727L195.751 90.4798ZM197.794 90.8216L197.55 93.8117L200.086 94.0184L200.704 91.55L197.794 90.8216ZM58.349 58.621L61.2506 57.8591L60.4854 54.9445L57.5742 55.7228L58.349 58.621ZM59.6475 63.5669L56.7459 64.3288L57.5111 67.2434L60.4223 66.4652L59.6475 63.5669ZM37.603 64.1671L36.8282 61.2689L33.9429 62.0402L34.7013 64.9289L37.603 64.1671ZM38.9015 69.1131L39.6763 72.0113L42.5616 71.2399L41.8032 68.3512L38.9015 69.1131ZM34 70.4234L33.2252 67.5252L30.3399 68.2965L31.0983 71.1853L34 70.4234ZM42.0935 101.249L39.1918 102.011L39.9571 104.926L42.8683 104.148L42.0935 101.249ZM53.0364 98.3239L53.8112 101.222L56.6965 100.451L55.9381 97.5621L53.0364 98.3239ZM50.4393 88.432L49.6645 85.5338L46.7792 86.3052L47.5376 89.1939L50.4393 88.432ZM65.1439 84.501L65.9186 87.3992L68.804 86.6279L68.0455 83.7391L65.1439 84.501ZM63.8453 79.555L63.0705 76.6568L60.1852 77.4281L60.9436 80.3169L63.8453 79.555ZM68.7468 78.2447L69.5216 81.1429L72.4069 80.3716L71.6485 77.4828L68.7468 78.2447ZM64.5491 62.2566L67.4507 61.4947L66.6855 58.5801L63.7743 59.3584L64.5491 62.2566ZM76.0436 68.387L76.7486 65.471L73.8207 64.7632L73.1248 67.694L76.0436 68.387ZM87.0525 71.0487L89.9713 71.7417L90.6616 68.8348L87.7575 68.1327L87.0525 71.0487ZM73.4059 79.4957L70.487 78.8026L69.7968 81.7096L72.7009 82.4117L73.4059 79.4957ZM78.337 80.6879L81.2558 81.381L81.946 78.474L79.042 77.7719L78.337 80.6879ZM77.1555 85.6637L74.2366 84.9706L73.5464 87.8775L76.4505 88.5796L77.1555 85.6637ZM82.0865 86.8558L85.0054 87.5489L85.6956 84.642L82.7915 83.9399L82.0865 86.8558ZM81.1798 90.6744L80.4748 93.5904L83.4028 94.2983L84.0987 91.3675L81.1798 90.6744ZM76.2488 89.4823L76.9538 86.5663L74.0258 85.8584L73.3299 88.7892L76.2488 89.4823ZM75.0673 94.458L74.3623 97.374L77.2902 98.0819L77.9861 95.1511L75.0673 94.458ZM70.1362 93.2658L70.8412 90.3498L67.9133 89.642L67.2174 92.5728L70.1362 93.2658ZM67.4985 104.375L64.5796 103.681L63.8894 106.588L66.7935 107.29L67.4985 104.375ZM78.5074 107.036L77.8024 109.952L80.7303 110.66L81.4262 107.729L78.5074 107.036ZM80.8703 97.0846L81.5753 94.1686L78.6474 93.4607L77.9515 96.3915L80.8703 97.0846ZM85.8014 98.2768L85.0964 101.193L88.0243 101.901L88.7203 98.9699L85.8014 98.2768ZM86.9829 93.301L87.6879 90.3851L84.7599 89.6772L84.064 92.608L86.9829 93.301ZM90.7672 94.216L93.686 94.909L94.3763 92.0021L91.4722 91.3L90.7672 94.216ZM89.5857 99.1917L86.6669 98.4987L85.9766 101.406L88.8807 102.108L89.5857 99.1917ZM94.5168 100.384L97.4356 101.077L98.1259 98.1701L95.2218 97.4679L94.5168 100.384ZM92.1538 110.335L89.235 109.642L88.5447 112.549L91.4488 113.251L92.1538 110.335ZM103.163 112.997L102.458 115.913L105.386 116.621L106.082 113.69L103.163 112.997ZM105.8 101.888L108.719 102.581L109.41 99.6745L106.505 98.9724L105.8 101.888ZM100.869 100.696L97.9505 100.003L97.2603 102.91L100.164 103.612L100.869 100.696ZM102.051 95.7204L104.97 96.4135L105.66 93.5066L102.756 92.8045L102.051 95.7204ZM97.1198 94.5283L94.2009 93.8352L93.5107 96.7421L96.4148 97.4443L97.1198 94.5283ZM98.0265 90.7097L98.7315 87.7937L95.8036 87.0858L95.1077 90.0166L98.0265 90.7097ZM102.958 91.9018L102.253 94.8178L105.18 95.5257L105.876 92.5949L102.958 91.9018ZM104.139 86.9261L104.844 84.0101L101.916 83.3022L101.22 86.233L104.139 86.9261ZM109.07 88.1183L108.365 91.0343L111.293 91.7421L111.989 88.8113L109.07 88.1183ZM111.708 77.0096L114.627 77.7027L115.317 74.7957L112.413 74.0936L111.708 77.0096ZM100.699 74.348L101.404 71.432L98.476 70.7241L97.7801 73.6549L100.699 74.348ZM98.336 84.2995L97.631 87.2155L100.559 87.9234L101.255 84.9926L98.336 84.2995ZM93.4049 83.1073L94.1099 80.1913L91.182 79.4834L90.4861 82.4142L93.4049 83.1073ZM92.2234 88.0831L91.5184 90.999L94.4464 91.7069L95.1423 88.7761L92.2234 88.0831ZM88.4391 87.1681L85.5203 86.4751L84.83 89.382L87.7341 90.0841L88.4391 87.1681ZM89.6206 82.1924L92.5395 82.8854L93.2297 79.9785L90.3256 79.2764L89.6206 82.1924ZM84.6895 81.0002L81.7707 80.3071L81.0805 83.214L83.9845 83.9162L84.6895 81.0002ZM115.193 99.4353L112.223 99.86L112.649 102.837L115.626 102.404L115.193 99.4353ZM114.367 93.6602L111.779 92.1429L111.249 93.0472L111.398 94.0849L114.367 93.6602ZM146.181 94.923L146.613 97.8917L149.574 97.4605L149.151 94.4983L146.181 94.923ZM145.025 86.8378L147.995 86.4131L147.569 83.4357L144.592 83.8691L145.025 86.8378ZM127.092 89.4491L124.507 87.9259L121.329 93.3199L127.524 92.4177L127.092 89.4491ZM141.385 65.1958L143.97 66.719L144.504 65.8126L144.355 64.7711L141.385 65.1958ZM140.566 59.4648L143.535 59.0401L143.11 56.0627L140.133 56.4961L140.566 59.4648ZM111.517 63.6947L111.085 60.726L108.124 61.1572L108.548 64.1194L111.517 63.6947ZM112.661 71.6902L109.691 72.1149L110.117 75.0923L113.093 74.6589L112.661 71.6902ZM128.609 69.3679L131.197 70.8851L134.354 65.4996L128.177 66.3992L128.609 69.3679ZM57.5019 80.0199L58.2767 82.9181L61.162 82.1468L60.4035 79.258L57.5019 80.0199ZM53.9081 66.3322L56.8098 65.5704L56.0445 62.6558L53.1333 63.434L53.9081 66.3322ZM48.8387 82.3359L45.937 83.0977L46.7023 86.0123L49.6135 85.2341L48.8387 82.3359ZM45.2449 68.6482L44.4701 65.75L41.5848 66.5213L42.3433 69.41L45.2449 68.6482ZM215.441 88.0896L210.483 86.8263L209.001 92.6405L213.96 93.9039L215.441 88.0896ZM212.532 88.8867L212.296 89.2024L217.104 92.7911L217.34 92.4754L212.532 88.8867ZM215.469 82.6766C214.888 85.0021 213.871 87.0926 212.532 88.8868L217.34 92.4753C219.147 90.0541 220.512 87.2409 221.29 84.1331L215.469 82.6766ZM202.982 61.5301C212.189 63.876 217.808 73.3299 215.469 82.6766L221.29 84.1331C224.42 71.6249 216.915 58.8884 204.464 55.7158L202.982 61.5301ZM182.074 74.141C184.41 64.8038 193.785 59.1867 202.982 61.5301L204.464 55.7158C192.002 52.5407 179.386 60.1669 176.253 72.6845L182.074 74.141ZM194.561 95.2875C185.354 92.9416 179.735 83.4877 182.074 74.141L176.253 72.6845C173.123 85.1927 180.628 97.9292 193.08 101.102L194.561 95.2875ZM200.687 95.7131C198.695 95.9386 196.627 95.814 194.561 95.2875L193.08 101.102C195.86 101.81 198.659 101.981 201.362 101.675L200.687 95.7131ZM201.458 95.6078C201.202 95.6487 200.945 95.6839 200.687 95.7131L201.362 101.675C201.712 101.635 202.06 101.588 202.406 101.532L201.458 95.6078ZM201.842 95.5463L201.458 95.6078L202.406 101.532L202.791 101.471L201.842 95.5463ZM200.674 92.7134L199.406 97.7803L205.227 99.2368L206.494 94.1699L200.674 92.7134ZM208.098 91.4959L204.325 90.5345L202.843 96.3487L206.617 97.3101L208.098 91.4959ZM209.055 99.9768L210.268 95.1314L204.447 93.6746L203.234 98.52L209.055 99.9768ZM212.945 97.8856L206.886 96.3414L205.404 102.156L211.463 103.7L212.945 97.8856ZM210.824 93.9498L209.294 100.064L215.114 101.521L216.645 95.4066L210.824 93.9498ZM208.077 96.3323L212.994 97.5853L214.476 91.7711L209.559 90.5182L208.077 96.3323ZM206.832 89.0051L205.908 92.697L211.728 94.1535L212.652 90.4617L206.832 89.0051ZM204.695 84.1274L199.795 82.8786L198.313 88.6928L203.214 89.9416L204.695 84.1274ZM202.287 81.3424L201.044 86.3061L206.865 87.7629L208.107 82.7993L202.287 81.3424ZM210.851 80.4159L205.938 79.1638L204.456 84.9779L209.369 86.23L210.851 80.4159ZM207.824 80.7285C207.7 81.2249 207.54 81.6997 207.348 82.1515L212.872 84.4944C213.185 83.7561 213.444 82.985 213.644 82.1851L207.824 80.7285ZM201.052 69.2449C206.036 70.5149 209.097 75.6426 207.824 80.7285L213.644 82.1851C215.708 73.9377 210.762 65.5274 202.533 63.4306L201.052 69.2449ZM189.719 76.089C190.99 71.0126 196.077 67.9774 201.052 69.2449L202.533 63.4306C194.294 61.3314 185.965 66.3757 183.899 74.6325L189.719 76.089ZM196.492 87.5727C191.507 86.3027 188.447 81.175 189.719 76.089L183.899 74.6325C181.835 82.8799 186.781 91.2902 195.01 93.387L196.492 87.5727ZM198.038 87.8315C197.527 87.7899 197.01 87.7048 196.492 87.5727L195.01 93.387C195.856 93.6025 196.705 93.7429 197.55 93.8117L198.038 87.8315ZM196.144 85.0573L194.884 90.0932L200.704 91.55L201.965 86.5141L196.144 85.0573ZM55.4473 59.3828L56.7459 64.3288L62.5492 62.8051L61.2506 57.8591L55.4473 59.3828ZM38.3777 67.0653L59.1238 61.5192L57.5742 55.7228L36.8282 61.2689L38.3777 67.0653ZM41.8032 68.3512L40.5046 63.4053L34.7013 64.9289L35.9999 69.8749L41.8032 68.3512ZM34.7748 73.3216L39.6763 72.0113L38.1267 66.2148L33.2252 67.5252L34.7748 73.3216ZM44.9951 100.488L36.9017 69.6616L31.0983 71.1853L39.1918 102.011L44.9951 100.488ZM52.2616 95.4257L41.3187 98.3512L42.8683 104.148L53.8112 101.222L52.2616 95.4257ZM47.5376 89.1939L50.1348 99.0858L55.9381 97.5621L53.3409 87.6702L47.5376 89.1939ZM64.3691 81.6028L49.6645 85.5338L51.2141 91.3303L65.9186 87.3992L64.3691 81.6028ZM60.9436 80.3169L62.2422 85.2628L68.0455 83.7391L66.7469 78.7932L60.9436 80.3169ZM67.972 75.3465L63.0705 76.6568L64.6201 82.4532L69.5216 81.1429L67.972 75.3465ZM61.6474 63.0184L65.8452 79.0065L71.6485 77.4828L67.4507 61.4947L61.6474 63.0184ZM60.4223 66.4652L65.3239 65.1548L63.7743 59.3584L58.8727 60.6687L60.4223 66.4652ZM75.3386 71.303L86.3475 73.9646L87.7575 68.1327L76.7486 65.471L75.3386 71.303ZM76.3247 80.1888L78.9624 69.0801L73.1248 67.694L70.487 78.8026L76.3247 80.1888ZM79.042 77.7719L74.1109 76.5797L72.7009 82.4117L77.632 83.6039L79.042 77.7719ZM80.0743 86.3567L81.2558 81.381L75.4181 79.9948L74.2366 84.9706L80.0743 86.3567ZM82.7915 83.9399L77.8605 82.7477L76.4505 88.5796L81.3815 89.7718L82.7915 83.9399ZM84.0987 91.3675L85.0054 87.5489L79.1677 86.1628L78.261 89.9814L84.0987 91.3675ZM75.5438 92.3982L80.4748 93.5904L81.8848 87.7585L76.9538 86.5663L75.5438 92.3982ZM77.9861 95.1511L79.1676 90.1753L73.3299 88.7892L72.1484 93.7649L77.9861 95.1511ZM69.4312 96.1818L74.3623 97.374L75.7723 91.542L70.8412 90.3498L69.4312 96.1818ZM70.4173 105.068L73.0551 93.9589L67.2174 92.5728L64.5796 103.681L70.4173 105.068ZM79.2124 104.12L68.2035 101.459L66.7935 107.29L77.8024 109.952L79.2124 104.12ZM77.9515 96.3915L75.5885 106.343L81.4262 107.729L83.7892 97.7777L77.9515 96.3915ZM86.5064 95.3608L81.5753 94.1686L80.1653 100.001L85.0964 101.193L86.5064 95.3608ZM84.064 92.608L82.8826 97.5837L88.7203 98.9699L89.9017 93.9941L84.064 92.608ZM91.4722 91.3L87.6879 90.3851L86.2779 96.217L90.0622 97.132L91.4722 91.3ZM92.5046 99.8848L93.686 94.909L87.8484 93.5229L86.6669 98.4987L92.5046 99.8848ZM95.2218 97.4679L90.2907 96.2758L88.8807 102.108L93.8118 103.3L95.2218 97.4679ZM95.0727 111.029L97.4356 101.077L91.5979 99.6909L89.235 109.642L95.0727 111.029ZM103.868 110.081L92.8588 107.419L91.4488 113.251L102.458 115.913L103.868 110.081ZM102.882 101.195L100.244 112.304L106.082 113.69L108.719 102.581L102.882 101.195ZM100.164 103.612L105.095 104.804L106.505 98.9724L101.574 97.7802L100.164 103.612ZM99.132 95.0274L97.9505 100.003L103.788 101.389L104.97 96.4135L99.132 95.0274ZM96.4148 97.4443L101.346 98.6364L102.756 92.8045L97.8248 91.6123L96.4148 97.4443ZM95.1077 90.0166L94.2009 93.8352L100.039 95.2213L100.945 91.4027L95.1077 90.0166ZM103.663 88.9859L98.7315 87.7937L97.3215 93.6256L102.253 94.8178L103.663 88.9859ZM101.22 86.233L100.039 91.2088L105.876 92.5949L107.058 87.6192L101.22 86.233ZM109.775 85.2023L104.844 84.0101L103.434 89.8421L108.365 91.0343L109.775 85.2023ZM108.789 76.3165L106.151 87.4252L111.989 88.8113L114.627 77.7027L108.789 76.3165ZM99.9939 77.264L111.003 79.9256L112.413 74.0936L101.404 71.432L99.9939 77.264ZM101.255 84.9926L103.618 75.041L97.7801 73.6549L95.4171 83.6064L101.255 84.9926ZM92.6999 86.0233L97.631 87.2155L99.041 81.3835L94.1099 80.1913L92.6999 86.0233ZM95.1423 88.7761L96.3238 83.8004L90.4861 82.4142L89.3046 87.39L95.1423 88.7761ZM87.7341 90.0841L91.5184 90.999L92.9284 85.1671L89.1441 84.2521L87.7341 90.0841ZM86.7018 81.4993L85.5203 86.4751L91.358 87.8612L92.5395 82.8854L86.7018 81.4993ZM83.9845 83.9162L88.9156 85.1084L90.3256 79.2764L85.3945 78.0842L83.9845 83.9162ZM84.1337 70.3556L81.7707 80.3071L87.6084 81.6932L89.9713 71.7417L84.1337 70.3556ZM118.163 99.0106L117.337 93.2355L111.398 94.0849L112.223 99.86L118.163 99.0106ZM145.749 91.9543L114.761 96.4666L115.626 102.404L146.613 97.8917L145.749 91.9543ZM142.055 87.2625L143.211 95.3477L149.151 94.4983L147.995 86.4131L142.055 87.2625ZM127.524 92.4177L145.457 89.8065L144.592 83.8691L126.66 86.4804L127.524 92.4177ZM138.801 63.6727L124.507 87.9259L129.677 90.9722L143.97 66.719L138.801 63.6727ZM137.596 59.8895L138.415 65.6205L144.355 64.7711L143.535 59.0401L137.596 59.8895ZM111.95 66.6633L140.998 62.4335L140.133 56.4961L111.085 60.726L111.95 66.6633ZM115.631 71.2655L114.487 63.2699L108.548 64.1194L109.691 72.1149L115.631 71.2655ZM128.177 66.3992L112.229 68.7215L113.093 74.6589L129.041 72.3366L128.177 66.3992ZM116.955 95.1774L131.197 70.8851L126.021 67.8506L111.779 92.1429L116.955 95.1774ZM143.742 64.6479L143.036 59.7139L137.096 60.5634L137.802 65.4973L143.742 64.6479ZM60.4035 79.258L56.8098 65.5704L51.0065 67.0941L54.6002 80.7817L60.4035 79.258ZM49.6135 85.2341L58.2767 82.9181L56.7271 77.1217L48.0639 79.4376L49.6135 85.2341ZM42.3433 69.41L45.937 83.0977L51.7403 81.574L48.1466 67.8864L42.3433 69.41ZM53.1333 63.434L44.4701 65.75L46.0197 71.5464L54.6829 69.2305L53.1333 63.434ZM176.056 94.2112C176.056 100.992 170.615 106.442 163.962 106.442V112.442C173.98 112.442 182.056 104.254 182.056 94.2112H176.056ZM163.962 81.9804C170.615 81.9804 176.056 87.4308 176.056 94.2112H182.056C182.056 84.1682 173.98 75.9804 163.962 75.9804V81.9804ZM151.868 94.2112C151.868 87.4308 157.308 81.9804 163.962 81.9804V75.9804C153.943 75.9804 145.868 84.1682 145.868 94.2112H151.868ZM163.962 106.442C157.308 106.442 151.868 100.992 151.868 94.2112H145.868C145.868 104.254 153.943 112.442 163.962 112.442V106.442ZM163.962 104.47C169.617 104.47 174.155 99.8512 174.155 94.2112H168.155C168.155 96.5887 166.252 98.4697 163.962 98.4697V104.47ZM153.768 94.2112C153.768 99.8512 158.307 104.47 163.962 104.47V98.4697C161.671 98.4697 159.768 96.5887 159.768 94.2112H153.768ZM163.962 83.9528C158.307 83.9528 153.768 88.5712 153.768 94.2112H159.768C159.768 91.8338 161.671 89.9528 163.962 89.9528V83.9528ZM174.155 94.2112C174.155 88.5712 169.617 83.9528 163.962 83.9528V89.9528C166.252 89.9528 168.155 91.8338 168.155 94.2112H174.155Z" fill="#3F3F3F" mask="url(#path-5-outside-3_2572_12253)"/>
<mask id="path-7-inside-4_2572_12253" fill="white">
<path fill-rule="evenodd" clip-rule="evenodd" d="M251 141V494V500H246H241V506H236V512H231V518H226V523H221V529H215V539H200V531H192V539H176V531H168V539H152V531H144V539H128V531H120V539H104V531H96V539H80V531H72V539H56V531H48V539H36V529H30V523H25V518H20V512H15V506H10V500H5H0V494V141H251Z"/>
</mask>
<path fill-rule="evenodd" clip-rule="evenodd" d="M251 141V494V500H246H241V506H236V512H231V518H226V523H221V529H215V539H200V531H192V539H176V531H168V539H152V531H144V539H128V531H120V539H104V531H96V539H80V531H72V539H56V531H48V539H36V529H30V523H25V518H20V512H15V506H10V500H5H0V494V141H251Z" fill="#5EA4C0"/>
<path d="M251 141H254V138H251V141ZM251 500V503H254V500H251ZM241 500V497H238V500H241ZM241 506V509H244V506H241ZM236 506V503H233V506H236ZM236 512V515H239V512H236ZM231 512V509H228V512H231ZM231 518V521H234V518H231ZM226 518V515H223V518H226ZM226 523V526H229V523H226ZM221 523V520H218V523H221ZM221 529V532H224V529H221ZM215 529V526H212V529H215ZM215 539V542H218V539H215ZM200 539H197V542H200V539ZM200 531H203V528H200V531ZM192 531V528H189V531H192ZM192 539V542H195V539H192ZM176 539H173V542H176V539ZM176 531H179V528H176V531ZM168 531V528H165V531H168ZM168 539V542H171V539H168ZM152 539H149V542H152V539ZM152 531H155V528H152V531ZM144 531V528H141V531H144ZM144 539V542H147V539H144ZM128 539H125V542H128V539ZM128 531H131V528H128V531ZM120 531V528H117V531H120ZM120 539V542H123V539H120ZM104 539H101V542H104V539ZM104 531H107V528H104V531ZM96 531V528H93V531H96ZM96 539V542H99V539H96ZM80 539H77V542H80V539ZM80 531H83V528H80V531ZM72 531V528H69V531H72ZM72 539V542H75V539H72ZM56 539H53V542H56V539ZM56 531H59V528H56V531ZM48 531V528H45V531H48ZM48 539V542H51V539H48ZM36 539H33V542H36V539ZM36 529H39V526H36V529ZM30 529H27V532H30V529ZM30 523H33V520H30V523ZM25 523H22V526H25V523ZM25 518H28V515H25V518ZM20 518H17V521H20V518ZM20 512H23V509H20V512ZM15 512H12V515H15V512ZM15 506H18V503H15V506ZM10 506H7V509H10V506ZM10 500H13V497H10V500ZM0 500H-3V503H0V500ZM0 141V138H-3V141H0ZM254 494V141H248V494H254ZM248 494V500H254V494H248ZM251 497H246V503H251V497ZM246 497H241V503H246V497ZM238 500V506H244V500H238ZM241 503H236V509H241V503ZM233 506V512H239V506H233ZM236 509H231V515H236V509ZM228 512V518H234V512H228ZM231 515H226V521H231V515ZM223 518V523H229V518H223ZM226 520H221V526H226V520ZM218 523V529H224V523H218ZM221 526H215V532H221V526ZM212 529V539H218V529H212ZM215 536H200V542H215V536ZM203 539V531H197V539H203ZM200 528H192V534H200V528ZM189 531V539H195V531H189ZM192 536H176V542H192V536ZM179 539V531H173V539H179ZM176 528H168V534H176V528ZM165 531V539H171V531H165ZM168 536H152V542H168V536ZM155 539V531H149V539H155ZM152 528H144V534H152V528ZM141 531V539H147V531H141ZM144 536H128V542H144V536ZM131 539V531H125V539H131ZM128 528H120V534H128V528ZM117 531V539H123V531H117ZM120 536H104V542H120V536ZM107 539V531H101V539H107ZM104 528H96V534H104V528ZM93 531V539H99V531H93ZM96 536H80V542H96V536ZM83 539V531H77V539H83ZM80 528H72V534H80V528ZM69 531V539H75V531H69ZM72 536H56V542H72V536ZM59 539V531H53V539H59ZM56 528H48V534H56V528ZM45 531V539H51V531H45ZM48 536H36V542H48V536ZM39 539V529H33V539H39ZM36 526H30V532H36V526ZM33 529V523H27V529H33ZM30 520H25V526H30V520ZM28 523V518H22V523H28ZM25 515H20V521H25V515ZM23 518V512H17V518H23ZM20 509H15V515H20V509ZM18 512V506H12V512H18ZM15 503H10V509H15V503ZM13 506V500H7V506H13ZM10 497H5V503H10V497ZM5 497H0V503H5V497ZM3 500V494H-3V500H3ZM-3 141V494H3V141H-3ZM251 138H0V144H251V138Z" fill="#3F3F3F" mask="url(#path-7-inside-4_2572_12253)"/>
<mask id="path-9-inside-5_2572_12253" fill="white">
<path fill-rule="evenodd" clip-rule="evenodd" d="M50.4064 146L201.594 146V154.446H206.661V159.514L210.884 159.514V163.737H215.108V168.805H219.331V173.872L223.554 173.872V178.94H227.777H232V184V184.008V481V486.068H227.777H223.554V491.135H219.331V496.203H215.108V501.271H210.884V505.494H206.661V510.562H201.594V519.008H50.4065L50.4064 510.562H45.3387L45.3387 505.494H41.1155V501.271H36.8924V496.203H32.6693L32.6693 491.135H28.4462V486.068H24.2231H20L20 481L20 184.008L20 178.94H24.2231H28.4462V173.872L32.6693 173.872L32.6693 168.805H36.8924V163.737H41.1155V159.514H45.3386L45.3386 154.446L50.4064 154.446L50.4064 146Z"/>
</mask>
<path fill-rule="evenodd" clip-rule="evenodd" d="M50.4064 146L201.594 146V154.446H206.661V159.514L210.884 159.514V163.737H215.108V168.805H219.331V173.872L223.554 173.872V178.94H227.777H232V184V184.008V481V486.068H227.777H223.554V491.135H219.331V496.203H215.108V501.271H210.884V505.494H206.661V510.562H201.594V519.008H50.4065L50.4064 510.562H45.3387L45.3387 505.494H41.1155V501.271H36.8924V496.203H32.6693L32.6693 491.135H28.4462V486.068H24.2231H20L20 481L20 184.008L20 178.94H24.2231H28.4462V173.872L32.6693 173.872L32.6693 168.805H36.8924V163.737H41.1155V159.514H45.3386L45.3386 154.446L50.4064 154.446L50.4064 146Z" fill="#F5EFEB"/>
<path d="M201.594 146H204.594V143L201.594 143V146ZM50.4064 146V143L47.4064 143L47.4064 146L50.4064 146ZM201.594 154.446H198.594V157.446H201.594V154.446ZM206.661 154.446H209.661V151.446H206.661V154.446ZM206.661 159.514H203.661V162.514L206.661 162.514V159.514ZM210.884 159.514H213.884V156.514H210.884V159.514ZM210.884 163.737H207.884V166.737H210.884V163.737ZM215.108 163.737H218.108V160.737H215.108V163.737ZM215.108 168.805H212.108V171.805H215.108V168.805ZM219.331 168.805H222.331V165.805H219.331V168.805ZM219.331 173.872H216.331V176.872H219.331V173.872ZM223.554 173.872H226.554V170.872L223.554 170.872V173.872ZM223.554 178.94H220.554V181.94H223.554V178.94ZM232 178.94H235V175.94H232V178.94ZM232 486.068V489.068H235V486.068H232ZM223.554 486.068V483.068H220.554V486.068H223.554ZM223.554 491.135V494.135H226.554V491.135H223.554ZM219.331 491.135V488.135H216.331V491.135H219.331ZM219.331 496.203V499.203H222.331V496.203H219.331ZM215.108 496.203V493.203H212.108V496.203H215.108ZM215.108 501.271V504.271H218.108V501.271H215.108ZM210.884 501.271V498.271H207.884V501.271H210.884ZM210.884 505.494V508.494H213.884V505.494H210.884ZM206.661 505.494V502.494H203.661V505.494H206.661ZM206.661 510.562V513.562H209.661V510.562H206.661ZM201.594 510.562V507.562H198.594V510.562H201.594ZM201.594 519.008V522.008H204.594V519.008H201.594ZM50.4065 519.008L47.4065 519.008L47.4065 522.008H50.4065V519.008ZM50.4064 510.562L53.4064 510.562L53.4063 507.562H50.4064V510.562ZM45.3387 510.562H42.3387V513.562H45.3387V510.562ZM45.3387 505.494L48.3387 505.494L48.3387 502.494H45.3387V505.494ZM41.1155 505.494H38.1155V508.494H41.1155V505.494ZM41.1155 501.271H44.1155V498.271H41.1155V501.271ZM36.8924 501.271H33.8924V504.271H36.8924V501.271ZM36.8924 496.203H39.8924V493.203H36.8924V496.203ZM32.6693 496.203H29.6693L29.6693 499.203H32.6693V496.203ZM32.6693 491.135H35.6693V488.135H32.6693V491.135ZM28.4462 491.135H25.4462V494.135H28.4462V491.135ZM28.4462 486.068H31.4462V483.068H28.4462V486.068ZM20 486.068L17 486.068L17 489.068H20V486.068ZM20 481H23H20ZM20 184.008H17H20ZM20 178.94V175.94H17L17 178.94H20ZM28.4462 178.94V181.94H31.4462V178.94H28.4462ZM28.4462 173.872L28.4462 170.872L25.4462 170.872V173.872H28.4462ZM32.6693 173.872L32.6693 176.872H35.6693V173.872L32.6693 173.872ZM32.6693 168.805V165.805H29.6693L29.6693 168.805H32.6693ZM36.8924 168.805V171.805H39.8924V168.805H36.8924ZM36.8924 163.737V160.737H33.8924V163.737H36.8924ZM41.1155 163.737V166.737H44.1155V163.737H41.1155ZM41.1155 159.514V156.514H38.1155V159.514H41.1155ZM45.3386 159.514V162.514H48.3386L48.3386 159.514L45.3386 159.514ZM45.3386 154.446V151.446L42.3386 151.446V154.446L45.3386 154.446ZM50.4064 154.446L50.4064 157.446H53.4064L53.4064 154.446L50.4064 154.446ZM201.594 143L50.4064 143V149L201.594 149V143ZM204.594 154.446V146H198.594V154.446H204.594ZM206.661 151.446H201.594V157.446H206.661V151.446ZM209.661 159.514V154.446H203.661V159.514H209.661ZM210.884 156.514L206.661 156.514V162.514H210.884V156.514ZM213.884 163.737V159.514H207.884V163.737H213.884ZM215.108 160.737H210.884V166.737H215.108V160.737ZM218.108 168.805V163.737H212.108V168.805H218.108ZM219.331 165.805H215.108V171.805H219.331V165.805ZM222.331 173.872V168.805H216.331V173.872H222.331ZM223.554 170.872L219.331 170.872V176.872L223.554 176.872V170.872ZM226.554 178.94V173.872H220.554V178.94H226.554ZM227.777 175.94H223.554V181.94H227.777V175.94ZM232 175.94H227.777V181.94H232V175.94ZM235 184V178.94H229V184H235ZM235 184.008V184H229V184.008H235ZM235 481V184.008H229V481H235ZM235 486.068V481H229V486.068H235ZM227.777 489.068H232V483.068H227.777V489.068ZM223.554 489.068H227.777V483.068H223.554V489.068ZM226.554 491.135V486.068H220.554V491.135H226.554ZM219.331 494.135H223.554V488.135H219.331V494.135ZM222.331 496.203V491.135H216.331V496.203H222.331ZM215.108 499.203H219.331V493.203H215.108V499.203ZM218.108 501.271V496.203H212.108V501.271H218.108ZM210.884 504.271H215.108V498.271H210.884V504.271ZM213.884 505.494V501.271H207.884V505.494H213.884ZM206.661 508.494H210.884V502.494H206.661V508.494ZM209.661 510.562V505.494H203.661V510.562H209.661ZM201.594 513.562H206.661V507.562H201.594V513.562ZM204.594 519.008V510.562H198.594V519.008H204.594ZM50.4065 522.008H201.594V516.008H50.4065V522.008ZM47.4064 510.562L47.4065 519.008L53.4065 519.008L53.4064 510.562L47.4064 510.562ZM45.3387 513.562H50.4064V507.562H45.3387V513.562ZM42.3387 505.494L42.3387 510.562L48.3387 510.562L48.3387 505.494L42.3387 505.494ZM41.1155 508.494H45.3387V502.494H41.1155V508.494ZM38.1155 501.271V505.494H44.1155V501.271H38.1155ZM36.8924 504.271H41.1155V498.271H36.8924V504.271ZM33.8924 496.203V501.271H39.8924V496.203H33.8924ZM32.6693 499.203H36.8924V493.203H32.6693V499.203ZM29.6693 491.135L29.6693 496.203H35.6693L35.6693 491.135H29.6693ZM28.4462 494.135H32.6693V488.135H28.4462V494.135ZM25.4462 486.068V491.135H31.4462V486.068H25.4462ZM24.2231 489.068H28.4462V483.068H24.2231V489.068ZM20 489.068H24.2231V483.068H20V489.068ZM17 481L17 486.068L23 486.068L23 481L17 481ZM17 184.008L17 481H23L23 184.008H17ZM17 178.94L17 184.008H23L23 178.94H17ZM24.2231 175.94H20V181.94H24.2231V175.94ZM28.4462 175.94H24.2231V181.94H28.4462V175.94ZM25.4462 173.872V178.94H31.4462V173.872H25.4462ZM32.6693 170.872L28.4462 170.872L28.4462 176.872L32.6693 176.872L32.6693 170.872ZM29.6693 168.805L29.6693 173.872L35.6693 173.872L35.6693 168.805L29.6693 168.805ZM36.8924 165.805H32.6693V171.805H36.8924V165.805ZM33.8924 163.737V168.805H39.8924V163.737H33.8924ZM41.1155 160.737H36.8924V166.737H41.1155V160.737ZM38.1155 159.514V163.737H44.1155V159.514H38.1155ZM45.3386 156.514H41.1155V162.514H45.3386V156.514ZM42.3386 154.446L42.3386 159.514L48.3386 159.514L48.3386 154.446L42.3386 154.446ZM50.4064 151.446L45.3386 151.446L45.3386 157.446L50.4064 157.446L50.4064 151.446ZM47.4064 146L47.4064 154.446L53.4064 154.446L53.4064 146L47.4064 146Z" fill="#3F3F3F" mask="url(#path-9-inside-5_2572_12253)"/>
<path d="M83.792 428.864H91.184V432.384H83.792V428.864ZM89.712 428.864H93.456C93.456 428.864 93.424 429.824 93.424 430.272C93.296 437.056 93.136 439.904 92.4 440.896C91.76 441.696 91.12 441.984 90.192 442.144C89.328 442.272 87.952 442.272 86.448 442.24C86.384 441.12 85.968 439.616 85.392 438.656C86.544 438.784 87.632 438.784 88.144 438.784C88.592 438.784 88.88 438.72 89.136 438.4C89.52 437.888 89.648 435.648 89.712 429.44V428.864ZM99.344 418.848L101.648 416.512C103.408 417.44 105.776 418.912 106.928 419.968L104.464 422.56C103.408 421.44 101.136 419.872 99.344 418.848ZM103.12 427.072L106.992 428C104.304 436.352 99.6 442.848 93.264 446.752C92.688 445.952 91.28 444.352 90.48 443.584C96.624 440.288 100.912 434.496 103.12 427.072ZM84.016 421.632H108.688V425.408H84.016V421.632ZM81.456 421.632H85.488V431.04C85.488 435.84 84.944 442.944 82.032 447.264C81.392 446.496 79.664 445.088 78.768 444.64C81.232 440.8 81.456 435.2 81.456 431.008V421.632ZM94.448 416.864H98.48C98.256 429.92 101.2 442.752 104.432 442.752C105.168 442.752 105.552 441.12 105.744 437.088C106.608 437.984 107.984 438.88 109.008 439.264C108.4 445.216 107.12 446.656 104.112 446.656C97.136 446.656 94.544 431.456 94.448 416.864ZM123.472 416.864H127.856C127.664 423.488 127.472 438.944 114.096 446.816C113.392 445.792 112.144 444.576 110.896 443.712C123.92 436.704 123.312 422.336 123.472 416.864ZM127.504 420.768C127.76 423.36 128.784 437.76 141.264 443.328C140.112 444.224 139.024 445.536 138.448 446.624C125.328 440.384 124.272 424.384 123.792 421.184L127.504 420.768ZM162.064 441.312L164.88 439.392C167.312 440.704 170.576 442.72 172.272 444.224L169.232 446.368C167.76 444.928 164.56 442.752 162.064 441.312ZM147.312 431.776H168.688V434.688H147.312V431.776ZM143.504 436.032H172.528V439.072H143.504V436.032ZM143.952 417.888H171.888V420.896H143.952V417.888ZM149.872 439.328L153.392 440.544C151.568 442.816 148.656 445.056 146.16 446.432C145.552 445.728 144.144 444.448 143.312 443.872C145.808 442.784 148.4 441.088 149.872 439.328ZM149.392 425.344V427.712H166.416V425.344H149.392ZM145.84 422.592H170.224V430.496H145.84V422.592ZM152.592 419.04H156.112V429.376H152.592V419.04ZM159.472 419.04H163.056V429.376H159.472V419.04ZM156.048 436.832H159.856V446.912H156.048V436.832Z" fill="#3F3F3F"/>
<path d="M85.31 505V489.6H87.114L97.3 502.25H96.354V489.6H98.554V505H96.75L86.564 492.35H87.51V505H85.31ZM106.222 505V491.514H100.942V489.6H113.68V491.514H108.4V505H106.222ZM119.82 507.64V486.96H121.228V507.64H119.82ZM120.37 505.176C119.197 505.176 118.075 505 117.004 504.648C115.934 504.281 115.09 503.812 114.474 503.24L115.288 501.524C115.875 502.037 116.623 502.463 117.532 502.8C118.442 503.137 119.388 503.306 120.37 503.306C121.265 503.306 121.991 503.203 122.548 502.998C123.106 502.793 123.516 502.514 123.78 502.162C124.044 501.795 124.176 501.385 124.176 500.93C124.176 500.402 124 499.977 123.648 499.654C123.311 499.331 122.864 499.075 122.306 498.884C121.764 498.679 121.162 498.503 120.502 498.356C119.842 498.209 119.175 498.041 118.5 497.85C117.84 497.645 117.232 497.388 116.674 497.08C116.132 496.772 115.692 496.361 115.354 495.848C115.017 495.32 114.848 494.645 114.848 493.824C114.848 493.032 115.054 492.306 115.464 491.646C115.89 490.971 116.535 490.436 117.4 490.04C118.28 489.629 119.395 489.424 120.744 489.424C121.639 489.424 122.526 489.541 123.406 489.776C124.286 490.011 125.049 490.348 125.694 490.788L124.968 492.548C124.308 492.108 123.612 491.793 122.878 491.602C122.145 491.397 121.434 491.294 120.744 491.294C119.879 491.294 119.168 491.404 118.61 491.624C118.053 491.844 117.642 492.137 117.378 492.504C117.129 492.871 117.004 493.281 117.004 493.736C117.004 494.279 117.173 494.711 117.51 495.034C117.862 495.357 118.31 495.613 118.852 495.804C119.41 495.995 120.018 496.171 120.678 496.332C121.338 496.479 121.998 496.647 122.658 496.838C123.333 497.029 123.942 497.278 124.484 497.586C125.042 497.894 125.489 498.305 125.826 498.818C126.164 499.331 126.332 499.991 126.332 500.798C126.332 501.575 126.12 502.301 125.694 502.976C125.269 503.636 124.609 504.171 123.714 504.582C122.834 504.978 121.72 505.176 120.37 505.176ZM136.797 505V490.48L137.743 491.514H133.321V489.6H138.975V505H136.797ZM148.635 505.176C147.432 505.176 146.354 504.868 145.401 504.252C144.462 503.636 143.714 502.741 143.157 501.568C142.614 500.395 142.343 498.972 142.343 497.3C142.343 495.628 142.614 494.205 143.157 493.032C143.714 491.859 144.462 490.964 145.401 490.348C146.354 489.732 147.432 489.424 148.635 489.424C149.823 489.424 150.894 489.732 151.847 490.348C152.8 490.964 153.548 491.859 154.091 493.032C154.634 494.205 154.905 495.628 154.905 497.3C154.905 498.972 154.634 500.395 154.091 501.568C153.548 502.741 152.8 503.636 151.847 504.252C150.894 504.868 149.823 505.176 148.635 505.176ZM148.635 503.218C149.442 503.218 150.146 502.998 150.747 502.558C151.363 502.118 151.84 501.458 152.177 500.578C152.529 499.698 152.705 498.605 152.705 497.3C152.705 495.995 152.529 494.902 152.177 494.022C151.84 493.142 151.363 492.482 150.747 492.042C150.146 491.602 149.442 491.382 148.635 491.382C147.828 491.382 147.117 491.602 146.501 492.042C145.885 492.482 145.401 493.142 145.049 494.022C144.712 494.902 144.543 495.995 144.543 497.3C144.543 498.605 144.712 499.698 145.049 500.578C145.401 501.458 145.885 502.118 146.501 502.558C147.117 502.998 147.828 503.218 148.635 503.218ZM163.309 505.176C162.106 505.176 161.028 504.868 160.075 504.252C159.136 503.636 158.388 502.741 157.831 501.568C157.288 500.395 157.017 498.972 157.017 497.3C157.017 495.628 157.288 494.205 157.831 493.032C158.388 491.859 159.136 490.964 160.075 490.348C161.028 489.732 162.106 489.424 163.309 489.424C164.497 489.424 165.568 489.732 166.521 490.348C167.474 490.964 168.222 491.859 168.765 493.032C169.308 494.205 169.579 495.628 169.579 497.3C169.579 498.972 169.308 500.395 168.765 501.568C168.222 502.741 167.474 503.636 166.521 504.252C165.568 504.868 164.497 505.176 163.309 505.176ZM163.309 503.218C164.116 503.218 164.82 502.998 165.421 502.558C166.037 502.118 166.514 501.458 166.851 500.578C167.203 499.698 167.379 498.605 167.379 497.3C167.379 495.995 167.203 494.902 166.851 494.022C166.514 493.142 166.037 492.482 165.421 492.042C164.82 491.602 164.116 491.382 163.309 491.382C162.502 491.382 161.791 491.602 161.175 492.042C160.559 492.482 160.075 493.142 159.723 494.022C159.386 494.902 159.217 495.995 159.217 497.3C159.217 498.605 159.386 499.698 159.723 500.578C160.075 501.458 160.559 502.118 161.175 502.558C161.791 502.998 162.502 503.218 163.309 503.218Z" fill="#3F3F3F"/>
<path d="M53.652 476V461.48L54.598 462.514H50.176V460.6H55.83V476H53.652ZM65.2046 476.176C63.9579 476.176 62.8799 475.993 61.9706 475.626C61.0612 475.259 60.3572 474.739 59.8586 474.064C59.3599 473.375 59.1106 472.568 59.1106 471.644C59.1106 470.735 59.3452 469.965 59.8146 469.334C60.2986 468.689 60.9952 468.205 61.9046 467.882C62.8139 467.545 63.9139 467.376 65.2046 467.376C66.4952 467.376 67.5952 467.545 68.5046 467.882C69.4286 468.205 70.1326 468.689 70.6166 469.334C71.1006 469.979 71.3426 470.749 71.3426 471.644C71.3426 472.568 71.0932 473.375 70.5946 474.064C70.0959 474.739 69.3846 475.259 68.4606 475.626C67.5366 475.993 66.4512 476.176 65.2046 476.176ZM65.2046 474.394C66.4366 474.394 67.3972 474.145 68.0866 473.646C68.7906 473.133 69.1426 472.443 69.1426 471.578C69.1426 470.727 68.7906 470.06 68.0866 469.576C67.3972 469.077 66.4366 468.828 65.2046 468.828C63.9872 468.828 63.0339 469.077 62.3446 469.576C61.6552 470.06 61.3106 470.727 61.3106 471.578C61.3106 472.443 61.6552 473.133 62.3446 473.646C63.0339 474.145 63.9872 474.394 65.2046 474.394ZM65.2046 468.564C64.0312 468.564 63.0339 468.41 62.2126 468.102C61.3912 467.779 60.7606 467.325 60.3206 466.738C59.8806 466.137 59.6606 465.425 59.6606 464.604C59.6606 463.739 59.8879 462.998 60.3426 462.382C60.8119 461.751 61.4646 461.267 62.3006 460.93C63.1366 460.593 64.1046 460.424 65.2046 460.424C66.3192 460.424 67.2946 460.593 68.1306 460.93C68.9666 461.267 69.6192 461.751 70.0886 462.382C70.5579 462.998 70.7926 463.739 70.7926 464.604C70.7926 465.425 70.5726 466.137 70.1326 466.738C69.6926 467.325 69.0546 467.779 68.2186 468.102C67.3826 468.41 66.3779 468.564 65.2046 468.564ZM65.2046 467.156C66.2752 467.156 67.1112 466.936 67.7126 466.496C68.3286 466.056 68.6366 465.455 68.6366 464.692C68.6366 463.915 68.3212 463.306 67.6906 462.866C67.0599 462.426 66.2312 462.206 65.2046 462.206C64.1779 462.206 63.3566 462.426 62.7406 462.866C62.1392 463.306 61.8386 463.915 61.8386 464.692C61.8386 465.455 62.1319 466.056 62.7186 466.496C63.3199 466.936 64.1486 467.156 65.2046 467.156ZM80.9248 470.17C80.3968 470.17 79.9348 470.06 79.5388 469.84C79.1428 469.62 78.7761 469.371 78.4388 469.092C78.1161 468.813 77.8081 468.571 77.5148 468.366C77.2214 468.146 76.8988 468.036 76.5468 468.036C76.0774 468.036 75.7034 468.212 75.4248 468.564C75.1461 468.916 74.9921 469.4 74.9628 470.016H73.5768C73.6061 468.784 73.8921 467.875 74.4348 467.288C74.9774 466.701 75.6594 466.408 76.4808 466.408C77.0088 466.408 77.4708 466.518 77.8668 466.738C78.2628 466.958 78.6221 467.207 78.9448 467.486C79.2821 467.765 79.5974 468.014 79.8908 468.234C80.1841 468.439 80.5068 468.542 80.8588 468.542C81.3428 468.542 81.7241 468.366 82.0028 468.014C82.2814 467.647 82.4281 467.156 82.4428 466.54H83.8288C83.7994 467.772 83.5134 468.689 82.9708 469.29C82.4428 469.877 81.7608 470.17 80.9248 470.17ZM92.7799 476.176C91.4159 476.176 90.2499 475.875 89.2819 475.274C88.3139 474.673 87.5732 473.807 87.0599 472.678C86.5612 471.534 86.3119 470.141 86.3119 468.498C86.3119 466.753 86.6199 465.279 87.2359 464.076C87.8519 462.873 88.7099 461.964 89.8099 461.348C90.9099 460.732 92.1712 460.424 93.5939 460.424C94.3272 460.424 95.0239 460.497 95.6839 460.644C96.3585 460.791 96.9379 461.018 97.4219 461.326L96.5859 463.042C96.1899 462.763 95.7352 462.573 95.2219 462.47C94.7232 462.367 94.1952 462.316 93.6379 462.316C92.0685 462.316 90.8219 462.807 89.8979 463.79C88.9739 464.758 88.5119 466.203 88.5119 468.124C88.5119 468.432 88.5265 468.799 88.5559 469.224C88.5852 469.649 88.6585 470.067 88.7759 470.478L88.0279 469.73C88.2479 469.055 88.5925 468.491 89.0619 468.036C89.5459 467.567 90.1179 467.222 90.7779 467.002C91.4525 466.767 92.1785 466.65 92.9559 466.65C93.9825 466.65 94.8919 466.841 95.6839 467.222C96.4759 467.603 97.0992 468.146 97.5539 468.85C98.0085 469.539 98.2359 470.361 98.2359 471.314C98.2359 472.297 97.9939 473.155 97.5099 473.888C97.0259 474.621 96.3732 475.186 95.5519 475.582C94.7305 475.978 93.8065 476.176 92.7799 476.176ZM92.6919 474.394C93.3665 474.394 93.9532 474.269 94.4519 474.02C94.9652 473.771 95.3685 473.426 95.6619 472.986C95.9552 472.531 96.1019 472.003 96.1019 471.402C96.1019 470.493 95.7865 469.774 95.1559 469.246C94.5252 468.703 93.6672 468.432 92.5819 468.432C91.8779 468.432 91.2619 468.564 90.7339 468.828C90.2059 469.092 89.7879 469.451 89.4799 469.906C89.1865 470.346 89.0399 470.852 89.0399 471.424C89.0399 471.952 89.1792 472.443 89.4579 472.898C89.7365 473.338 90.1472 473.697 90.6899 473.976C91.2325 474.255 91.8999 474.394 92.6919 474.394ZM99.67 472.216V470.676L107.546 460.6H109.922L102.112 470.676L100.99 470.324H113.288V472.216H99.67ZM108.228 476V472.216L108.294 470.324V466.98H110.362V476H108.228ZM126.201 463.504H128.093C128.181 470.412 130.183 475.934 132.251 475.912C132.735 475.912 132.933 475.098 133.043 473.052C133.439 473.426 134.099 473.8 134.583 473.954C134.297 476.946 133.637 477.76 132.119 477.76C128.555 477.76 126.421 471.226 126.201 463.504ZM128.951 464.406L129.985 463.416C130.887 463.812 132.009 464.45 132.581 464.934L131.503 466.012C130.953 465.506 129.853 464.824 128.951 464.406ZM130.953 468.19L132.823 468.608C131.371 472.788 128.687 475.934 125.321 477.892C125.035 477.518 124.331 476.792 123.913 476.44C127.213 474.79 129.721 471.886 130.953 468.19ZM119.381 470.698L120.877 471.006C120.503 472.37 119.799 473.756 119.029 474.636C118.743 474.416 118.105 473.998 117.731 473.8C118.523 472.986 119.073 471.842 119.381 470.698ZM117.027 465.66H134.077V467.376H117.027V465.66ZM118.809 468.454H125.673V469.928H118.809V468.454ZM114.783 462.228H134.319V463.966H114.783V462.228ZM124.969 459.17H132.361V460.754H124.969V459.17ZM115.971 465.66H117.885V469.422C117.885 471.952 117.599 475.538 115.949 477.914C115.575 477.606 114.695 477.1 114.211 476.924C115.773 474.702 115.971 471.622 115.971 469.4V465.66ZM123.803 457.432H125.827V463.086H123.803V457.432ZM118.237 458.422H120.173V463.152H118.237V458.422ZM124.639 470.852L126.289 471.116C125.299 474.24 122.681 476.682 118.963 477.804C118.765 477.452 118.347 476.858 118.061 476.572C121.515 475.604 123.935 473.514 124.639 470.852ZM121.449 469.466H123.143V474.24H121.449V469.466ZM151.633 459.566H153.811V475.076C153.811 476.44 153.481 477.1 152.535 477.452C151.567 477.804 150.005 477.826 147.783 477.826C147.651 477.21 147.233 476.198 146.903 475.604C148.597 475.692 150.445 475.67 150.973 475.67C151.479 475.648 151.633 475.494 151.633 475.032V459.566ZM138.851 463.966H140.875V474.042H138.851V463.966ZM139.709 463.966H148.025V472.326H139.709V470.324H145.979V465.946H139.709V463.966ZM136.695 458.95H156.451V461.062H136.695V458.95ZM164.701 459.764H178.781V461.656H164.701V459.764ZM167.187 465.264V468.08H176.119V465.264H167.187ZM165.273 463.548H178.121V469.818H165.273V463.548ZM166.945 470.17C168.969 473.492 173.325 475.428 179.045 476C178.605 476.462 178.077 477.298 177.813 477.87C171.917 477.056 167.605 474.79 165.229 470.698L166.945 470.17ZM170.575 457.542H172.621V467.42C172.621 471.776 171.719 475.934 165.119 477.892C164.877 477.43 164.283 476.616 163.843 476.176C170.113 474.658 170.575 471.072 170.575 467.398V457.542ZM163.447 457.388L165.383 458.004C163.887 461.722 161.511 465.528 159.047 467.992C158.849 467.508 158.277 466.386 157.925 465.902C160.081 463.856 162.193 460.644 163.447 457.388ZM161.203 463.306L163.161 461.326L163.183 461.348V477.936H161.203V463.306ZM183.995 458.95H197.899V460.93H183.995V458.95ZM183.995 464.054H197.899V466.012H183.995V464.054ZM183.907 469.29H197.965V471.248H183.907V469.29ZM182.807 458.95H184.853V466.914C184.853 470.324 184.457 475.054 181.795 477.98C181.465 477.584 180.629 476.88 180.167 476.616C182.587 473.91 182.807 469.994 182.807 466.892V458.95ZM197.129 458.95H199.197V475.23C199.197 476.462 198.911 477.056 198.097 477.386C197.283 477.716 195.985 477.76 193.939 477.738C193.851 477.188 193.521 476.286 193.235 475.736C194.665 475.802 196.139 475.78 196.557 475.78C196.975 475.758 197.129 475.626 197.129 475.23V458.95ZM189.649 459.72H191.761V477.628H189.649V459.72Z" fill="#3F3F3F"/>
<mask id="path-14-inside-6_2572_12253" fill="white">
<path fill-rule="evenodd" clip-rule="evenodd" d="M107.917 202.824C107.481 203.257 107.126 206.454 107.126 209.928C107.126 215.452 107.422 216.242 109.497 216.242C110.875 216.242 111.868 217.031 111.868 218.129C111.868 219.166 112.934 220.295 114.238 220.634C115.542 220.975 116.609 221.991 116.609 222.892C116.609 223.792 117.676 224.53 118.98 224.53C120.56 224.53 121.351 225.319 121.351 226.898C121.351 228.476 120.56 229.266 118.98 229.266C117.4 229.266 116.609 228.476 116.609 226.898C116.609 224.919 115.819 224.53 111.808 224.53H107.007L107.363 231.338L107.719 238.146L112.164 238.513C116.367 238.861 116.609 239.102 116.609 242.953C116.609 246.236 117.069 247.025 118.98 247.025C121.234 247.025 121.351 247.815 121.351 263.009C121.351 278.203 121.234 278.993 118.98 278.993C117.4 278.993 116.609 278.203 116.609 276.625C116.609 275.047 115.819 274.257 114.238 274.257C112.707 274.257 111.868 273.467 111.868 272.028C111.868 270.793 110.809 269.521 109.497 269.178C108.193 268.838 107.126 267.71 107.126 266.673C107.126 265.575 106.134 264.785 104.755 264.785C103.438 264.785 102.384 263.996 102.384 263.009C102.384 262.032 101.584 261.233 100.606 261.233C99.1289 261.233 98.8278 258.932 98.8278 247.617V234.002H94.0861H89.3444V240.514C89.3444 246.236 89.0575 247.025 86.9735 247.025C85.6565 247.025 84.6026 246.236 84.6026 245.249C84.6026 244.273 83.8025 243.473 82.8245 243.473C81.3475 243.473 81.0464 241.172 81.0464 229.858C81.0464 217.312 80.8709 216.242 78.8142 216.242C77.5327 216.242 76.2999 217.317 75.9206 218.764C75.4796 220.448 74.6462 221.05 73.4122 220.576C71.928 220.008 71.5629 220.797 71.5629 224.566C71.5629 228.476 71.1646 229.266 69.1921 229.266C67.6119 229.266 66.8212 228.476 66.8212 226.898C66.8212 223.854 63.2436 223.764 62.4517 226.789C62.1269 228.031 60.8431 229.313 59.5996 229.637C56.438 230.463 56.7806 232.665 60.2788 233.993C64.474 235.586 62.9211 238.738 57.9423 238.738C55.0546 238.738 53.8988 239.345 53.4377 241.106C53.0975 242.408 51.9677 243.473 50.9293 243.473C49.8897 243.473 49.0397 244.273 49.0397 245.249C49.0397 246.725 51.3442 247.025 62.6722 247.025C75.233 247.025 76.3046 247.201 76.3046 249.255C76.3046 250.49 77.3632 251.761 78.6755 252.105C79.9795 252.445 81.0464 253.573 81.0464 254.61C81.0464 256.127 79.6511 256.497 73.9338 256.497H66.8212V260.641V264.785H80.4536C93.2954 264.785 94.0861 264.923 94.0861 267.153C94.0861 268.731 94.8768 269.521 96.457 269.521C98.0371 269.521 98.8278 270.311 98.8278 271.889C98.8278 273.192 99.5663 274.257 100.467 274.257C101.369 274.257 102.386 275.323 102.728 276.625C103.068 277.928 104.135 278.993 105.099 278.993C106.061 278.993 107.132 280.074 107.478 281.395C107.824 282.716 108.788 283.649 109.62 283.467C110.453 283.285 111.338 284.07 111.588 285.209C112.002 287.099 110.693 287.281 96.6822 287.281C82.3195 287.281 81.2823 287.127 80.7026 284.913C80.2284 283.099 79.0857 282.545 75.8234 282.545C71.7443 282.545 71.5629 282.369 71.5629 278.401V274.257H64.4503H57.3377V278.401C57.3377 281.295 56.8019 282.545 55.5596 282.545C54.5816 282.545 53.7815 281.746 53.7815 280.769C53.7815 279.783 52.7276 278.993 51.4106 278.993C49.8304 278.993 49.0397 278.203 49.0397 276.625C49.0397 274.544 48.2491 274.257 42.5199 274.257C36.7907 274.257 36 274.544 36 276.625C36 277.928 36.7385 278.993 37.6394 278.993C38.5416 278.993 39.5622 280.074 39.9084 281.395C40.2545 282.716 41.2183 283.649 42.0504 283.467C42.8838 283.285 43.7681 284.069 44.0183 285.209C44.3845 286.881 43.6531 287.281 40.2355 287.281C36.0842 287.281 36 287.376 36 292.017C36 296.64 36.0984 296.753 40.149 296.753C43.5073 296.753 44.298 297.204 44.298 299.121C44.298 300.699 43.5073 301.489 41.9272 301.489C40.347 301.489 39.5563 302.279 39.5563 303.857C39.5563 305.172 38.7656 306.225 37.7781 306.225C36.8002 306.225 36 307.024 36 308.001C36 309.365 37.515 309.777 42.5199 309.777C47.2806 309.777 49.0397 309.335 49.0397 308.139C49.0397 307.238 50.1066 306.222 51.4106 305.881C52.7146 305.542 53.7815 304.413 53.7815 303.376C53.7815 302.338 54.5816 301.489 55.5596 301.489C56.8019 301.489 57.3377 302.739 57.3377 305.633V309.777H64.4503H71.5629V305.633C71.5629 301.587 71.6755 301.489 76.3046 301.489C80.2557 301.489 81.0464 301.095 81.0464 299.121C81.0464 296.875 81.837 296.753 96.457 296.753C111.077 296.753 111.868 296.875 111.868 299.121C111.868 300.699 111.077 301.489 109.497 301.489C107.917 301.489 107.126 302.279 107.126 303.857C107.126 305.435 106.335 306.225 104.755 306.225C103.438 306.225 102.384 307.015 102.384 308.001C102.384 308.978 101.584 309.777 100.606 309.777C99.6185 309.777 98.8278 310.829 98.8278 312.145C98.8278 313.723 98.0371 314.513 96.457 314.513C94.8768 314.513 94.0861 315.302 94.0861 316.881C94.0861 319.111 93.2954 319.249 80.4536 319.249H66.8212V323.333V327.418L73.6256 327.773C78.9932 328.054 80.5141 328.567 80.8259 330.201C81.0985 331.634 80.4631 332.273 78.762 332.273C77.0953 332.273 76.3046 333.034 76.3046 334.641C76.3046 336.871 75.514 337.008 62.6722 337.008C49.8304 337.008 49.0397 337.146 49.0397 339.376C49.0397 340.955 49.8304 341.744 51.4106 341.744C52.9908 341.744 53.7815 342.534 53.7815 344.112C53.7815 346.022 54.5721 346.48 57.8605 346.48C62.9697 346.48 64.3934 348.478 60.3724 350.005C56.6253 351.428 56.4001 354.471 60.005 354.981C61.7855 355.235 62.556 356.049 62.3237 357.432C62.0866 358.844 62.7481 359.504 64.3982 359.504C66.0305 359.504 66.8212 358.732 66.8212 357.136C66.8212 355.558 67.6119 354.768 69.1921 354.768C71.1682 354.768 71.5629 355.558 71.5629 359.504C71.5629 363.45 71.9577 364.24 73.9338 364.24C75.5424 364.24 76.3046 365.03 76.3046 366.695C76.3046 368.395 76.9424 369.028 78.3791 368.752C80.1834 368.408 80.4975 366.625 80.7891 355.05C81.0594 344.296 81.4577 341.744 82.8636 341.744C83.8203 341.744 84.6026 340.679 84.6026 339.376C84.6026 337.798 85.3933 337.008 86.9735 337.008C89.0575 337.008 89.3444 337.798 89.3444 343.52V350.032H94.0861H98.8278V337.008C98.8278 326.221 99.1337 323.985 100.606 323.985C101.593 323.985 102.384 322.932 102.384 321.617C102.384 320.038 103.175 319.249 104.755 319.249C106.134 319.249 107.126 318.459 107.126 317.361C107.126 316.324 108.193 315.196 109.497 314.856C110.809 314.513 111.868 313.241 111.868 312.006C111.868 310.566 112.707 309.777 114.238 309.777C115.555 309.777 116.609 308.987 116.609 308.001C116.609 307.015 117.663 306.225 118.98 306.225C121.229 306.225 121.351 307.015 121.351 321.617C121.351 336.219 121.229 337.008 118.98 337.008C117.004 337.008 116.609 337.798 116.609 341.744V346.48H111.868H107.126V352.992V359.504H111.868C115.819 359.504 116.609 359.898 116.609 361.872C116.609 363.45 115.819 364.24 114.238 364.24C112.934 364.24 111.868 364.978 111.868 365.878C111.868 366.779 110.801 367.795 109.497 368.135C107.483 368.661 107.126 369.75 107.126 375.377C107.126 381.21 107.408 382 109.497 382C111.077 382 111.868 381.21 111.868 379.632C111.868 378.054 112.658 377.264 114.238 377.264C115.555 377.264 116.609 376.474 116.609 375.488C116.609 374.502 117.663 373.712 118.98 373.712C120.899 373.712 121.351 374.502 121.351 377.856C121.351 381.802 121.549 382 125.5 382C129.451 382 129.649 381.802 129.649 377.856C129.649 374.502 130.101 373.712 132.02 373.712C133.337 373.712 134.391 374.502 134.391 375.488C134.391 376.474 135.445 377.264 136.762 377.264C138.342 377.264 139.132 378.054 139.132 379.632C139.132 381.21 139.923 382 141.503 382C143.592 382 143.874 381.21 143.874 375.377C143.874 369.75 143.517 368.661 141.503 368.135C140.199 367.795 139.132 366.779 139.132 365.878C139.132 364.978 138.066 364.24 136.762 364.24C135.181 364.24 134.391 363.45 134.391 361.872C134.391 359.898 135.181 359.504 139.132 359.504H143.874V353.063V346.624L139.429 346.255C135.225 345.909 134.963 345.647 134.616 341.448C134.327 337.97 133.749 337.008 131.949 337.008C129.791 337.008 129.649 336.059 129.649 321.617C129.649 307.015 129.771 306.225 132.02 306.225C133.337 306.225 134.391 307.015 134.391 308.001C134.391 308.987 135.445 309.777 136.762 309.777C138.293 309.777 139.132 310.566 139.132 312.006C139.132 313.241 140.191 314.513 141.503 314.856C142.807 315.196 143.874 316.324 143.874 317.361C143.874 318.459 144.866 319.249 146.245 319.249C147.825 319.249 148.616 320.038 148.616 321.617C148.616 322.932 149.407 323.985 150.394 323.985C151.865 323.985 152.172 326.199 152.172 336.811C152.172 343.866 152.422 349.888 152.728 350.193C153.035 350.499 155.169 350.53 157.47 350.261L161.656 349.773V343.391C161.656 337.798 161.948 337.008 164.026 337.008C165.607 337.008 166.397 337.798 166.397 339.376C166.397 340.679 167.18 341.744 168.136 341.744C169.542 341.744 169.941 344.296 170.211 355.05C170.502 366.625 170.817 368.408 172.621 368.752C174.058 369.028 174.695 368.395 174.695 366.695C174.695 365.03 175.458 364.24 177.066 364.24C179.042 364.24 179.437 363.45 179.437 359.504C179.437 355.558 179.832 354.768 181.808 354.768C183.388 354.768 184.179 355.558 184.179 357.136C184.179 358.513 184.969 359.504 186.068 359.504C187.107 359.504 188.237 358.439 188.577 357.136C188.921 355.826 190.194 354.768 191.43 354.768C194.721 354.768 194.144 351.341 190.628 350.005C186.607 348.478 188.03 346.48 193.139 346.48C196.428 346.48 197.219 346.022 197.219 344.112C197.219 342.534 198.009 341.744 199.589 341.744C201.17 341.744 201.96 340.955 201.96 339.376C201.96 337.146 201.17 337.008 188.328 337.008C175.486 337.008 174.695 336.871 174.695 334.641C174.695 333.034 173.905 332.273 172.238 332.273C170.537 332.273 169.901 331.634 170.174 330.201C170.486 328.567 172.007 328.054 177.374 327.773L184.179 327.418V323.333V319.249H170.546C157.705 319.249 156.914 319.111 156.914 316.881C156.914 315.302 156.123 314.513 154.543 314.513C152.963 314.513 152.172 313.723 152.172 312.145C152.172 310.829 151.382 309.777 150.394 309.777C149.416 309.777 148.616 308.978 148.616 308.001C148.616 307.015 147.562 306.225 146.245 306.225C144.665 306.225 143.874 305.435 143.874 303.857C143.874 302.279 143.083 301.489 141.503 301.489C139.923 301.489 139.132 300.699 139.132 299.121C139.132 296.875 139.923 296.753 154.543 296.753C169.163 296.753 169.954 296.875 169.954 299.121C169.954 301.095 170.744 301.489 174.695 301.489C179.324 301.489 179.437 301.587 179.437 305.633V309.777H186.55H193.662V305.633C193.662 301.053 196.491 299.765 197.562 303.857C197.903 305.159 199.032 306.225 200.071 306.225C201.11 306.225 201.96 307.024 201.96 308.001C201.96 309.365 203.475 309.777 208.48 309.777C213.485 309.777 215 309.365 215 308.001C215 307.024 214.2 306.225 213.222 306.225C212.234 306.225 211.444 305.172 211.444 303.857C211.444 302.279 210.653 301.489 209.073 301.489C207.493 301.489 206.702 300.699 206.702 299.121C206.702 297.204 207.493 296.753 210.851 296.753C214.902 296.753 215 296.64 215 292.017C215 287.393 214.902 287.281 210.851 287.281C207.845 287.281 206.702 286.761 206.702 285.394C206.702 284.357 207.769 283.228 209.073 282.888C210.377 282.547 211.444 281.532 211.444 280.631C211.444 279.731 212.244 278.993 213.222 278.993C214.209 278.993 215 277.941 215 276.625C215 274.544 214.209 274.257 208.48 274.257C202.751 274.257 201.96 274.544 201.96 276.625C201.96 278.203 201.17 278.993 199.589 278.993C198.272 278.993 197.219 279.783 197.219 280.769C197.219 281.746 196.418 282.545 195.44 282.545C194.198 282.545 193.662 281.295 193.662 278.401V274.257H186.55H179.437V278.401C179.437 282.369 179.256 282.545 175.177 282.545C171.914 282.545 170.772 283.099 170.297 284.913C169.718 287.126 168.68 287.281 154.404 287.281C141.619 287.281 139.132 286.992 139.132 285.505C139.132 284.528 139.982 283.729 141.022 283.729C142.06 283.729 143.177 282.713 143.502 281.47C143.827 280.228 145.111 278.946 146.354 278.621C147.599 278.297 148.616 277.182 148.616 276.144C148.616 275.106 149.416 274.257 150.394 274.257C151.382 274.257 152.172 273.205 152.172 271.889C152.172 270.311 152.963 269.521 154.543 269.521C156.123 269.521 156.914 268.731 156.914 267.153C156.914 264.923 157.705 264.785 170.546 264.785H184.179V260.641V256.497H177.066C170.744 256.497 169.954 256.234 169.954 254.129C169.954 252.551 170.744 251.761 172.324 251.761C173.905 251.761 174.695 250.972 174.695 249.393C174.695 247.163 175.486 247.025 188.328 247.025C199.145 247.025 201.96 246.687 201.96 245.388C201.96 244.487 200.893 243.471 199.589 243.13C198.285 242.79 197.219 241.662 197.219 240.625C197.219 239.257 196.076 238.738 193.07 238.738C189.797 238.738 188.921 238.266 188.921 236.508C188.921 235.273 189.979 234.002 191.291 233.658C194.3 232.872 194.368 230.412 191.4 229.637C190.157 229.313 188.873 228.031 188.548 226.789C187.756 223.764 184.179 223.854 184.179 226.898C184.179 228.476 183.388 229.266 181.808 229.266C179.897 229.266 179.437 228.476 179.437 225.201C179.437 222.177 178.83 220.945 177.066 220.386C175.762 219.973 174.695 218.871 174.695 217.938C174.695 217.005 173.628 216.242 172.324 216.242C170.091 216.242 169.954 217.031 169.954 229.858C169.954 241.172 169.653 243.473 168.175 243.473C167.198 243.473 166.397 244.273 166.397 245.249C166.397 246.236 165.343 247.025 164.026 247.025C161.942 247.025 161.656 246.236 161.656 240.514V234.002H156.914H152.172V247.617C152.172 258.932 151.871 261.233 150.394 261.233C149.416 261.233 148.616 262.032 148.616 263.009C148.616 263.996 147.562 264.785 146.245 264.785C144.665 264.785 143.874 265.575 143.874 267.153C143.874 268.731 143.083 269.521 141.503 269.521C139.923 269.521 139.132 270.311 139.132 271.889C139.132 273.467 138.342 274.257 136.762 274.257C135.181 274.257 134.391 275.047 134.391 276.625C134.391 278.203 133.6 278.993 132.02 278.993C129.766 278.993 129.649 278.203 129.649 263.009C129.649 247.815 129.766 247.025 132.02 247.025C133.931 247.025 134.391 246.236 134.391 242.953C134.391 239.102 134.633 238.861 138.836 238.513L143.281 238.146L143.637 231.338L143.993 224.53H139.192C135.181 224.53 134.391 224.919 134.391 226.898C134.391 228.476 133.6 229.266 132.02 229.266C130.44 229.266 129.649 228.476 129.649 226.898C129.649 225.319 130.44 224.53 132.02 224.53C133.337 224.53 134.391 223.74 134.391 222.754C134.391 221.767 135.445 220.978 136.762 220.978C138.293 220.978 139.132 220.188 139.132 218.748C139.132 217.493 140.198 216.239 141.569 215.882C143.703 215.324 143.96 214.466 143.643 208.947C143.363 204.063 142.816 202.56 141.207 202.254C139.771 201.982 139.132 202.616 139.132 204.315C139.132 205.98 138.37 206.77 136.762 206.77C135.181 206.77 134.391 207.56 134.391 209.138C134.391 210.716 133.6 211.506 132.02 211.506C130.044 211.506 129.649 210.716 129.649 206.77C129.649 202.146 129.551 202.034 125.5 202.034C121.449 202.034 121.351 202.146 121.351 206.77C121.351 210.716 120.956 211.506 118.98 211.506C117.4 211.506 116.609 210.716 116.609 209.138C116.609 207.56 115.819 206.77 114.238 206.77C112.658 206.77 111.868 205.98 111.868 204.402C111.868 202.12 109.548 201.193 107.917 202.824ZM61.8424 283.966C63.9323 286.053 63.5814 287.281 60.894 287.281C59.3139 287.281 58.5232 286.491 58.5232 284.913C58.5232 282.229 59.7525 281.878 61.8424 283.966ZM192.267 285.307C192.495 286.476 191.89 287.281 190.785 287.281C189.686 287.281 188.921 286.269 188.921 284.815C188.921 281.929 191.691 282.337 192.267 285.307ZM62.3924 297.461C63.547 298.613 61.9621 301.489 60.1745 301.489C59.2664 301.489 58.5232 300.423 58.5232 299.121C58.5232 296.891 60.8324 295.902 62.3924 297.461ZM192.79 297.461C193.903 298.573 192.389 301.489 190.699 301.489C189.008 301.489 187.494 298.573 188.608 297.461C188.996 297.071 189.938 296.753 190.699 296.753C191.46 296.753 192.401 297.071 192.79 297.461ZM121.351 357.136C121.351 358.715 120.56 359.504 118.98 359.504C117.4 359.504 116.609 358.715 116.609 357.136C116.609 355.558 117.4 354.768 118.98 354.768C120.56 354.768 121.351 355.558 121.351 357.136ZM134.391 357.136C134.391 358.715 133.6 359.504 132.02 359.504C130.44 359.504 129.649 358.715 129.649 357.136C129.649 355.558 130.44 354.768 132.02 354.768C133.6 354.768 134.391 355.558 134.391 357.136Z"/>
</mask>
<path fill-rule="evenodd" clip-rule="evenodd" d="M107.917 202.824C107.481 203.257 107.126 206.454 107.126 209.928C107.126 215.452 107.422 216.242 109.497 216.242C110.875 216.242 111.868 217.031 111.868 218.129C111.868 219.166 112.934 220.295 114.238 220.634C115.542 220.975 116.609 221.991 116.609 222.892C116.609 223.792 117.676 224.53 118.98 224.53C120.56 224.53 121.351 225.319 121.351 226.898C121.351 228.476 120.56 229.266 118.98 229.266C117.4 229.266 116.609 228.476 116.609 226.898C116.609 224.919 115.819 224.53 111.808 224.53H107.007L107.363 231.338L107.719 238.146L112.164 238.513C116.367 238.861 116.609 239.102 116.609 242.953C116.609 246.236 117.069 247.025 118.98 247.025C121.234 247.025 121.351 247.815 121.351 263.009C121.351 278.203 121.234 278.993 118.98 278.993C117.4 278.993 116.609 278.203 116.609 276.625C116.609 275.047 115.819 274.257 114.238 274.257C112.707 274.257 111.868 273.467 111.868 272.028C111.868 270.793 110.809 269.521 109.497 269.178C108.193 268.838 107.126 267.71 107.126 266.673C107.126 265.575 106.134 264.785 104.755 264.785C103.438 264.785 102.384 263.996 102.384 263.009C102.384 262.032 101.584 261.233 100.606 261.233C99.1289 261.233 98.8278 258.932 98.8278 247.617V234.002H94.0861H89.3444V240.514C89.3444 246.236 89.0575 247.025 86.9735 247.025C85.6565 247.025 84.6026 246.236 84.6026 245.249C84.6026 244.273 83.8025 243.473 82.8245 243.473C81.3475 243.473 81.0464 241.172 81.0464 229.858C81.0464 217.312 80.8709 216.242 78.8142 216.242C77.5327 216.242 76.2999 217.317 75.9206 218.764C75.4796 220.448 74.6462 221.05 73.4122 220.576C71.928 220.008 71.5629 220.797 71.5629 224.566C71.5629 228.476 71.1646 229.266 69.1921 229.266C67.6119 229.266 66.8212 228.476 66.8212 226.898C66.8212 223.854 63.2436 223.764 62.4517 226.789C62.1269 228.031 60.8431 229.313 59.5996 229.637C56.438 230.463 56.7806 232.665 60.2788 233.993C64.474 235.586 62.9211 238.738 57.9423 238.738C55.0546 238.738 53.8988 239.345 53.4377 241.106C53.0975 242.408 51.9677 243.473 50.9293 243.473C49.8897 243.473 49.0397 244.273 49.0397 245.249C49.0397 246.725 51.3442 247.025 62.6722 247.025C75.233 247.025 76.3046 247.201 76.3046 249.255C76.3046 250.49 77.3632 251.761 78.6755 252.105C79.9795 252.445 81.0464 253.573 81.0464 254.61C81.0464 256.127 79.6511 256.497 73.9338 256.497H66.8212V260.641V264.785H80.4536C93.2954 264.785 94.0861 264.923 94.0861 267.153C94.0861 268.731 94.8768 269.521 96.457 269.521C98.0371 269.521 98.8278 270.311 98.8278 271.889C98.8278 273.192 99.5663 274.257 100.467 274.257C101.369 274.257 102.386 275.323 102.728 276.625C103.068 277.928 104.135 278.993 105.099 278.993C106.061 278.993 107.132 280.074 107.478 281.395C107.824 282.716 108.788 283.649 109.62 283.467C110.453 283.285 111.338 284.07 111.588 285.209C112.002 287.099 110.693 287.281 96.6822 287.281C82.3195 287.281 81.2823 287.127 80.7026 284.913C80.2284 283.099 79.0857 282.545 75.8234 282.545C71.7443 282.545 71.5629 282.369 71.5629 278.401V274.257H64.4503H57.3377V278.401C57.3377 281.295 56.8019 282.545 55.5596 282.545C54.5816 282.545 53.7815 281.746 53.7815 280.769C53.7815 279.783 52.7276 278.993 51.4106 278.993C49.8304 278.993 49.0397 278.203 49.0397 276.625C49.0397 274.544 48.2491 274.257 42.5199 274.257C36.7907 274.257 36 274.544 36 276.625C36 277.928 36.7385 278.993 37.6394 278.993C38.5416 278.993 39.5622 280.074 39.9084 281.395C40.2545 282.716 41.2183 283.649 42.0504 283.467C42.8838 283.285 43.7681 284.069 44.0183 285.209C44.3845 286.881 43.6531 287.281 40.2355 287.281C36.0842 287.281 36 287.376 36 292.017C36 296.64 36.0984 296.753 40.149 296.753C43.5073 296.753 44.298 297.204 44.298 299.121C44.298 300.699 43.5073 301.489 41.9272 301.489C40.347 301.489 39.5563 302.279 39.5563 303.857C39.5563 305.172 38.7656 306.225 37.7781 306.225C36.8002 306.225 36 307.024 36 308.001C36 309.365 37.515 309.777 42.5199 309.777C47.2806 309.777 49.0397 309.335 49.0397 308.139C49.0397 307.238 50.1066 306.222 51.4106 305.881C52.7146 305.542 53.7815 304.413 53.7815 303.376C53.7815 302.338 54.5816 301.489 55.5596 301.489C56.8019 301.489 57.3377 302.739 57.3377 305.633V309.777H64.4503H71.5629V305.633C71.5629 301.587 71.6755 301.489 76.3046 301.489C80.2557 301.489 81.0464 301.095 81.0464 299.121C81.0464 296.875 81.837 296.753 96.457 296.753C111.077 296.753 111.868 296.875 111.868 299.121C111.868 300.699 111.077 301.489 109.497 301.489C107.917 301.489 107.126 302.279 107.126 303.857C107.126 305.435 106.335 306.225 104.755 306.225C103.438 306.225 102.384 307.015 102.384 308.001C102.384 308.978 101.584 309.777 100.606 309.777C99.6185 309.777 98.8278 310.829 98.8278 312.145C98.8278 313.723 98.0371 314.513 96.457 314.513C94.8768 314.513 94.0861 315.302 94.0861 316.881C94.0861 319.111 93.2954 319.249 80.4536 319.249H66.8212V323.333V327.418L73.6256 327.773C78.9932 328.054 80.5141 328.567 80.8259 330.201C81.0985 331.634 80.4631 332.273 78.762 332.273C77.0953 332.273 76.3046 333.034 76.3046 334.641C76.3046 336.871 75.514 337.008 62.6722 337.008C49.8304 337.008 49.0397 337.146 49.0397 339.376C49.0397 340.955 49.8304 341.744 51.4106 341.744C52.9908 341.744 53.7815 342.534 53.7815 344.112C53.7815 346.022 54.5721 346.48 57.8605 346.48C62.9697 346.48 64.3934 348.478 60.3724 350.005C56.6253 351.428 56.4001 354.471 60.005 354.981C61.7855 355.235 62.556 356.049 62.3237 357.432C62.0866 358.844 62.7481 359.504 64.3982 359.504C66.0305 359.504 66.8212 358.732 66.8212 357.136C66.8212 355.558 67.6119 354.768 69.1921 354.768C71.1682 354.768 71.5629 355.558 71.5629 359.504C71.5629 363.45 71.9577 364.24 73.9338 364.24C75.5424 364.24 76.3046 365.03 76.3046 366.695C76.3046 368.395 76.9424 369.028 78.3791 368.752C80.1834 368.408 80.4975 366.625 80.7891 355.05C81.0594 344.296 81.4577 341.744 82.8636 341.744C83.8203 341.744 84.6026 340.679 84.6026 339.376C84.6026 337.798 85.3933 337.008 86.9735 337.008C89.0575 337.008 89.3444 337.798 89.3444 343.52V350.032H94.0861H98.8278V337.008C98.8278 326.221 99.1337 323.985 100.606 323.985C101.593 323.985 102.384 322.932 102.384 321.617C102.384 320.038 103.175 319.249 104.755 319.249C106.134 319.249 107.126 318.459 107.126 317.361C107.126 316.324 108.193 315.196 109.497 314.856C110.809 314.513 111.868 313.241 111.868 312.006C111.868 310.566 112.707 309.777 114.238 309.777C115.555 309.777 116.609 308.987 116.609 308.001C116.609 307.015 117.663 306.225 118.98 306.225C121.229 306.225 121.351 307.015 121.351 321.617C121.351 336.219 121.229 337.008 118.98 337.008C117.004 337.008 116.609 337.798 116.609 341.744V346.48H111.868H107.126V352.992V359.504H111.868C115.819 359.504 116.609 359.898 116.609 361.872C116.609 363.45 115.819 364.24 114.238 364.24C112.934 364.24 111.868 364.978 111.868 365.878C111.868 366.779 110.801 367.795 109.497 368.135C107.483 368.661 107.126 369.75 107.126 375.377C107.126 381.21 107.408 382 109.497 382C111.077 382 111.868 381.21 111.868 379.632C111.868 378.054 112.658 377.264 114.238 377.264C115.555 377.264 116.609 376.474 116.609 375.488C116.609 374.502 117.663 373.712 118.98 373.712C120.899 373.712 121.351 374.502 121.351 377.856C121.351 381.802 121.549 382 125.5 382C129.451 382 129.649 381.802 129.649 377.856C129.649 374.502 130.101 373.712 132.02 373.712C133.337 373.712 134.391 374.502 134.391 375.488C134.391 376.474 135.445 377.264 136.762 377.264C138.342 377.264 139.132 378.054 139.132 379.632C139.132 381.21 139.923 382 141.503 382C143.592 382 143.874 381.21 143.874 375.377C143.874 369.75 143.517 368.661 141.503 368.135C140.199 367.795 139.132 366.779 139.132 365.878C139.132 364.978 138.066 364.24 136.762 364.24C135.181 364.24 134.391 363.45 134.391 361.872C134.391 359.898 135.181 359.504 139.132 359.504H143.874V353.063V346.624L139.429 346.255C135.225 345.909 134.963 345.647 134.616 341.448C134.327 337.97 133.749 337.008 131.949 337.008C129.791 337.008 129.649 336.059 129.649 321.617C129.649 307.015 129.771 306.225 132.02 306.225C133.337 306.225 134.391 307.015 134.391 308.001C134.391 308.987 135.445 309.777 136.762 309.777C138.293 309.777 139.132 310.566 139.132 312.006C139.132 313.241 140.191 314.513 141.503 314.856C142.807 315.196 143.874 316.324 143.874 317.361C143.874 318.459 144.866 319.249 146.245 319.249C147.825 319.249 148.616 320.038 148.616 321.617C148.616 322.932 149.407 323.985 150.394 323.985C151.865 323.985 152.172 326.199 152.172 336.811C152.172 343.866 152.422 349.888 152.728 350.193C153.035 350.499 155.169 350.53 157.47 350.261L161.656 349.773V343.391C161.656 337.798 161.948 337.008 164.026 337.008C165.607 337.008 166.397 337.798 166.397 339.376C166.397 340.679 167.18 341.744 168.136 341.744C169.542 341.744 169.941 344.296 170.211 355.05C170.502 366.625 170.817 368.408 172.621 368.752C174.058 369.028 174.695 368.395 174.695 366.695C174.695 365.03 175.458 364.24 177.066 364.24C179.042 364.24 179.437 363.45 179.437 359.504C179.437 355.558 179.832 354.768 181.808 354.768C183.388 354.768 184.179 355.558 184.179 357.136C184.179 358.513 184.969 359.504 186.068 359.504C187.107 359.504 188.237 358.439 188.577 357.136C188.921 355.826 190.194 354.768 191.43 354.768C194.721 354.768 194.144 351.341 190.628 350.005C186.607 348.478 188.03 346.48 193.139 346.48C196.428 346.48 197.219 346.022 197.219 344.112C197.219 342.534 198.009 341.744 199.589 341.744C201.17 341.744 201.96 340.955 201.96 339.376C201.96 337.146 201.17 337.008 188.328 337.008C175.486 337.008 174.695 336.871 174.695 334.641C174.695 333.034 173.905 332.273 172.238 332.273C170.537 332.273 169.901 331.634 170.174 330.201C170.486 328.567 172.007 328.054 177.374 327.773L184.179 327.418V323.333V319.249H170.546C157.705 319.249 156.914 319.111 156.914 316.881C156.914 315.302 156.123 314.513 154.543 314.513C152.963 314.513 152.172 313.723 152.172 312.145C152.172 310.829 151.382 309.777 150.394 309.777C149.416 309.777 148.616 308.978 148.616 308.001C148.616 307.015 147.562 306.225 146.245 306.225C144.665 306.225 143.874 305.435 143.874 303.857C143.874 302.279 143.083 301.489 141.503 301.489C139.923 301.489 139.132 300.699 139.132 299.121C139.132 296.875 139.923 296.753 154.543 296.753C169.163 296.753 169.954 296.875 169.954 299.121C169.954 301.095 170.744 301.489 174.695 301.489C179.324 301.489 179.437 301.587 179.437 305.633V309.777H186.55H193.662V305.633C193.662 301.053 196.491 299.765 197.562 303.857C197.903 305.159 199.032 306.225 200.071 306.225C201.11 306.225 201.96 307.024 201.96 308.001C201.96 309.365 203.475 309.777 208.48 309.777C213.485 309.777 215 309.365 215 308.001C215 307.024 214.2 306.225 213.222 306.225C212.234 306.225 211.444 305.172 211.444 303.857C211.444 302.279 210.653 301.489 209.073 301.489C207.493 301.489 206.702 300.699 206.702 299.121C206.702 297.204 207.493 296.753 210.851 296.753C214.902 296.753 215 296.64 215 292.017C215 287.393 214.902 287.281 210.851 287.281C207.845 287.281 206.702 286.761 206.702 285.394C206.702 284.357 207.769 283.228 209.073 282.888C210.377 282.547 211.444 281.532 211.444 280.631C211.444 279.731 212.244 278.993 213.222 278.993C214.209 278.993 215 277.941 215 276.625C215 274.544 214.209 274.257 208.48 274.257C202.751 274.257 201.96 274.544 201.96 276.625C201.96 278.203 201.17 278.993 199.589 278.993C198.272 278.993 197.219 279.783 197.219 280.769C197.219 281.746 196.418 282.545 195.44 282.545C194.198 282.545 193.662 281.295 193.662 278.401V274.257H186.55H179.437V278.401C179.437 282.369 179.256 282.545 175.177 282.545C171.914 282.545 170.772 283.099 170.297 284.913C169.718 287.126 168.68 287.281 154.404 287.281C141.619 287.281 139.132 286.992 139.132 285.505C139.132 284.528 139.982 283.729 141.022 283.729C142.06 283.729 143.177 282.713 143.502 281.47C143.827 280.228 145.111 278.946 146.354 278.621C147.599 278.297 148.616 277.182 148.616 276.144C148.616 275.106 149.416 274.257 150.394 274.257C151.382 274.257 152.172 273.205 152.172 271.889C152.172 270.311 152.963 269.521 154.543 269.521C156.123 269.521 156.914 268.731 156.914 267.153C156.914 264.923 157.705 264.785 170.546 264.785H184.179V260.641V256.497H177.066C170.744 256.497 169.954 256.234 169.954 254.129C169.954 252.551 170.744 251.761 172.324 251.761C173.905 251.761 174.695 250.972 174.695 249.393C174.695 247.163 175.486 247.025 188.328 247.025C199.145 247.025 201.96 246.687 201.96 245.388C201.96 244.487 200.893 243.471 199.589 243.13C198.285 242.79 197.219 241.662 197.219 240.625C197.219 239.257 196.076 238.738 193.07 238.738C189.797 238.738 188.921 238.266 188.921 236.508C188.921 235.273 189.979 234.002 191.291 233.658C194.3 232.872 194.368 230.412 191.4 229.637C190.157 229.313 188.873 228.031 188.548 226.789C187.756 223.764 184.179 223.854 184.179 226.898C184.179 228.476 183.388 229.266 181.808 229.266C179.897 229.266 179.437 228.476 179.437 225.201C179.437 222.177 178.83 220.945 177.066 220.386C175.762 219.973 174.695 218.871 174.695 217.938C174.695 217.005 173.628 216.242 172.324 216.242C170.091 216.242 169.954 217.031 169.954 229.858C169.954 241.172 169.653 243.473 168.175 243.473C167.198 243.473 166.397 244.273 166.397 245.249C166.397 246.236 165.343 247.025 164.026 247.025C161.942 247.025 161.656 246.236 161.656 240.514V234.002H156.914H152.172V247.617C152.172 258.932 151.871 261.233 150.394 261.233C149.416 261.233 148.616 262.032 148.616 263.009C148.616 263.996 147.562 264.785 146.245 264.785C144.665 264.785 143.874 265.575 143.874 267.153C143.874 268.731 143.083 269.521 141.503 269.521C139.923 269.521 139.132 270.311 139.132 271.889C139.132 273.467 138.342 274.257 136.762 274.257C135.181 274.257 134.391 275.047 134.391 276.625C134.391 278.203 133.6 278.993 132.02 278.993C129.766 278.993 129.649 278.203 129.649 263.009C129.649 247.815 129.766 247.025 132.02 247.025C133.931 247.025 134.391 246.236 134.391 242.953C134.391 239.102 134.633 238.861 138.836 238.513L143.281 238.146L143.637 231.338L143.993 224.53H139.192C135.181 224.53 134.391 224.919 134.391 226.898C134.391 228.476 133.6 229.266 132.02 229.266C130.44 229.266 129.649 228.476 129.649 226.898C129.649 225.319 130.44 224.53 132.02 224.53C133.337 224.53 134.391 223.74 134.391 222.754C134.391 221.767 135.445 220.978 136.762 220.978C138.293 220.978 139.132 220.188 139.132 218.748C139.132 217.493 140.198 216.239 141.569 215.882C143.703 215.324 143.96 214.466 143.643 208.947C143.363 204.063 142.816 202.56 141.207 202.254C139.771 201.982 139.132 202.616 139.132 204.315C139.132 205.98 138.37 206.77 136.762 206.77C135.181 206.77 134.391 207.56 134.391 209.138C134.391 210.716 133.6 211.506 132.02 211.506C130.044 211.506 129.649 210.716 129.649 206.77C129.649 202.146 129.551 202.034 125.5 202.034C121.449 202.034 121.351 202.146 121.351 206.77C121.351 210.716 120.956 211.506 118.98 211.506C117.4 211.506 116.609 210.716 116.609 209.138C116.609 207.56 115.819 206.77 114.238 206.77C112.658 206.77 111.868 205.98 111.868 204.402C111.868 202.12 109.548 201.193 107.917 202.824ZM61.8424 283.966C63.9323 286.053 63.5814 287.281 60.894 287.281C59.3139 287.281 58.5232 286.491 58.5232 284.913C58.5232 282.229 59.7525 281.878 61.8424 283.966ZM192.267 285.307C192.495 286.476 191.89 287.281 190.785 287.281C189.686 287.281 188.921 286.269 188.921 284.815C188.921 281.929 191.691 282.337 192.267 285.307ZM62.3924 297.461C63.547 298.613 61.9621 301.489 60.1745 301.489C59.2664 301.489 58.5232 300.423 58.5232 299.121C58.5232 296.891 60.8324 295.902 62.3924 297.461ZM192.79 297.461C193.903 298.573 192.389 301.489 190.699 301.489C189.008 301.489 187.494 298.573 188.608 297.461C188.996 297.071 189.938 296.753 190.699 296.753C191.46 296.753 192.401 297.071 192.79 297.461ZM121.351 357.136C121.351 358.715 120.56 359.504 118.98 359.504C117.4 359.504 116.609 358.715 116.609 357.136C116.609 355.558 117.4 354.768 118.98 354.768C120.56 354.768 121.351 355.558 121.351 357.136ZM134.391 357.136C134.391 358.715 133.6 359.504 132.02 359.504C130.44 359.504 129.649 358.715 129.649 357.136C129.649 355.558 130.44 354.768 132.02 354.768C133.6 354.768 134.391 355.558 134.391 357.136Z" fill="#5EA4C0" stroke="#3F3F3F" stroke-width="6" mask="url(#path-14-inside-6_2572_12253)"/>
<rect x="3" y="139" width="245" height="7" fill="#5EA4C0"/>
</svg>
