<svg width="181" height="204" viewBox="0 0 181 204" fill="none" xmlns="http://www.w3.org/2000/svg">
<path d="M177.667 29.9863H181V33.3852H177.667V29.9863Z" fill="#00874B"/>
<path d="M174.333 33.3852H177.667V36.7841H174.333V33.3852Z" fill="#00874B"/>
<path d="M174.333 36.7841H177.667V40.183H174.333V36.7841Z" fill="#00874B"/>
<path d="M174.333 40.183H177.667V43.5819H174.333V40.183Z" fill="#00874B"/>
<path d="M171 43.5819H174.333V46.9808H171V43.5819Z" fill="#00874B"/>
<path d="M161 46.9808H164.333V50.3797H161V46.9808Z" fill="#00874B"/>
<path d="M171 46.9808H174.333V50.3797H171V46.9808Z" fill="#00874B"/>
<path d="M161 50.3797H164.333V53.7785H161V50.3797Z" fill="#00874B"/>
<path d="M164.333 50.3797H167.667V53.7785H164.333V50.3797Z" fill="#00874B"/>
<path d="M171 50.3797H174.333V53.7785H171V50.3797Z" fill="#00695C"/>
<path d="M164.333 53.7785H167.667V57.1774H164.333V53.7785Z" fill="#00874B"/>
<path d="M171 53.7785H174.333V57.1774H171V53.7785Z" fill="#00695C"/>
<path d="M164.333 57.1774H167.667V60.5763H164.333V57.1774Z" fill="#00695C"/>
<path d="M167.667 57.1774H171V60.5763H167.667V57.1774Z" fill="#00695C"/>
<path d="M171 57.1774H174.333V60.5763H171V57.1774Z" fill="#00695C"/>
<path d="M161 60.5763H164.333V63.9752H161V60.5763Z" fill="#263238"/>
<path d="M164.333 60.5763H167.667V63.9752H164.333V60.5763Z" fill="#263238"/>
<path d="M167.667 60.5763H171V63.9752H167.667V60.5763Z" fill="#263238"/>
<path d="M171 60.5763H174.333V63.9752H171V60.5763Z" fill="#263238"/>
<path d="M174.333 60.5763H177.667V63.9752H174.333V60.5763Z" fill="#263238"/>
<path d="M18.5556 31.9863H22.1112V35.5407H18.5556V31.9863Z" fill="#00874B"/>
<path d="M18.5556 35.5407H22.1112V39.0952H18.5556V35.5407Z" fill="#00874B"/>
<path d="M22.1112 35.5407L25.6668 35.5408V39.0952H22.1112V35.5407Z" fill="#00874B"/>
<path d="M22.1112 39.0952H25.6668V42.6497H22.1113L22.1112 39.0952Z" fill="#00874B"/>
<path d="M25.6666 39.0953H29.2221V42.6497H25.6666V39.0953Z" fill="#00874B"/>
<path d="M25.6666 42.6494H29.2221V46.2038H25.6666V42.6494Z" fill="#00874B"/>
<path d="M39.8888 42.6494H43.4444V46.2038H39.8888V42.6494Z" fill="#00874B"/>
<path d="M15 46.2039H18.5556V49.7583H15V46.2039Z" fill="#00874B"/>
<path d="M25.6666 46.2038H29.2221V49.7583H25.6666V46.2038Z" fill="#00874B"/>
<path d="M36.3335 46.2039H39.889V49.7583H36.3335V46.2039Z" fill="#00874B"/>
<path d="M18.5556 49.7583L22.1112 49.7584V53.3128H18.5556L18.5556 49.7583Z" fill="#00874B"/>
<path d="M25.6666 49.7583H29.2221V53.3128H25.6666V49.7583Z" fill="#00874B"/>
<path d="M32.7778 49.7583L36.3335 49.7583L36.3334 53.3127H32.7778V49.7583Z" fill="#00874B"/>
<path d="M43.4444 49.7584H47V53.3128H43.4444V49.7584Z" fill="#00874B"/>
<path d="M18.5556 53.3128H22.1112V56.8672H18.5556V53.3128Z" fill="#00695C"/>
<path d="M25.6666 53.3128H29.2221V56.8672H25.6666V53.3128Z" fill="#00695C"/>
<path d="M32.7778 53.3127H36.3334L36.3334 56.8672H32.7779L32.7778 53.3127Z" fill="#00695C"/>
<path d="M39.8888 53.3128L43.4444 53.3128L43.4444 56.8672H39.8888V53.3128Z" fill="#00874B"/>
<path d="M43.4444 53.3128H47V56.8672H43.4444L43.4444 53.3128Z" fill="#00874B"/>
<path d="M22.1113 56.867H25.6668V60.4214H22.1113V56.867Z" fill="#00695C"/>
<path d="M25.6666 56.867H29.2221V60.4214H25.6666V56.867Z" fill="#00695C"/>
<path d="M29.2221 56.867H32.7778V60.4214H29.2221V56.867Z" fill="#00695C"/>
<path d="M32.7778 56.867H36.3334V60.4214H32.7778V56.867Z" fill="#00695C"/>
<path d="M36.3334 56.867H39.889V60.4214H36.3334V56.867Z" fill="#00695C"/>
<path d="M39.8888 56.867H43.4444V60.4214H39.8888V56.867Z" fill="#00695C"/>
<path d="M15 60.4215H18.5556V63.9759H15V60.4215Z" fill="#263238"/>
<path d="M18.5556 60.4215L22.1113 60.4214L22.1112 63.9759H18.5556V60.4215Z" fill="#263238"/>
<path d="M22.1113 60.4214H25.6668V63.9759H22.1112L22.1113 60.4214Z" fill="#263238"/>
<path d="M25.6666 60.4214H29.2221V63.9759H25.6666V60.4214Z" fill="#263238"/>
<path d="M29.2221 60.4214H32.7778V63.9759H29.2221V60.4214Z" fill="#263238"/>
<path d="M32.7778 60.4214H36.3334V63.9759H32.7778V60.4214Z" fill="#263238"/>
<path d="M36.3334 60.4214H39.889V63.9759H36.3334V60.4214Z" fill="#263238"/>
<path d="M39.8888 60.4214H43.4444V63.9759H39.8888V60.4214Z" fill="#263238"/>
<path d="M43.4444 60.4214L47 60.4215V63.9759H43.4444V60.4214Z" fill="#263238"/>
<path d="M131.75 38.6094H135.375V42.2332H131.75V38.6094Z" fill="#00874B"/>
<path d="M128.125 42.2332H131.75V45.857H128.125V42.2332Z" fill="#00874B"/>
<path d="M128.125 45.857H131.75V49.4808H128.125V45.857Z" fill="#00874B"/>
<path d="M113.625 49.4808H117.25V53.1046H113.625V49.4808Z" fill="#00874B"/>
<path d="M124.5 49.4808H128.125V53.1046H124.5V49.4808Z" fill="#00874B"/>
<path d="M117.25 53.1046H120.875V56.7285H117.25V53.1046Z" fill="#00874B"/>
<path d="M124.5 53.1046H128.125V56.7285H124.5V53.1046Z" fill="#00695C"/>
<path d="M117.25 56.7285H120.875V60.3523H117.25V56.7285Z" fill="#00695C"/>
<path d="M124.5 56.7285H128.125V60.3523H124.5V56.7285Z" fill="#00695C"/>
<path d="M113.625 60.3523H117.25V63.9761H113.625V60.3523Z" fill="#263238"/>
<path d="M117.25 60.3523H120.875V63.9761H117.25V60.3523Z" fill="#263238"/>
<path d="M120.875 60.3523H124.5V63.9761H120.875V60.3523Z" fill="#263238"/>
<path d="M124.5 60.3523H128.125V63.9761H124.5V60.3523Z" fill="#263238"/>
<path d="M128.125 60.3523H131.75V63.9761H128.125V60.3523Z" fill="#263238"/>
<rect y="78.1602" width="9.04466" height="9.03448" transform="rotate(-90 0 78.1602)" fill="black"/>
<rect x="9.03516" y="87.2051" width="9.04467" height="9.03448" transform="rotate(-90 9.03516 87.2051)" fill="black"/>
<rect x="18.0684" y="87.2051" width="9.04467" height="9.03448" transform="rotate(-90 18.0684 87.2051)" fill="black"/>
<rect x="26" y="86.9668" width="8.99706" height="12" transform="rotate(-90 26 86.9668)" fill="black"/>
<rect x="54" y="87.2051" width="9.04467" height="9.03448" transform="rotate(-90 54 87.2051)" fill="black"/>
<rect x="80.6543" y="87.2051" width="9.04467" height="9.03448" transform="rotate(-90 80.6543 87.2051)" fill="black"/>
<rect x="116.275" y="87.2051" width="9.04467" height="9.03448" transform="rotate(-90 116.275 87.2051)" fill="black"/>
<rect x="36.3789" y="87.2051" width="9.04467" height="9.03448" transform="rotate(-90 36.3789 87.2051)" fill="black"/>
<rect x="152.412" y="87.2051" width="9.04467" height="9.03447" transform="rotate(-90 152.412 87.2051)" fill="black"/>
<rect x="63.0332" y="87.2051" width="9.04467" height="9.03448" transform="rotate(-90 63.0332 87.2051)" fill="black"/>
<rect x="89.6875" y="87.2051" width="9.04467" height="9.03448" transform="rotate(-90 89.6875 87.2051)" fill="black"/>
<rect x="45.4141" y="87.2051" width="9.04467" height="9.03448" transform="rotate(-90 45.4141 87.2051)" fill="black"/>
<rect x="125.309" y="87.2051" width="9.04467" height="9.03448" transform="rotate(-90 125.309 87.2051)" fill="black"/>
<rect x="161.447" y="87.2051" width="9.04467" height="9.03448" transform="rotate(-90 161.447 87.2051)" fill="black"/>
<rect x="72.0684" y="87.2051" width="9.04467" height="9.03448" transform="rotate(-90 72.0684 87.2051)" fill="black"/>
<rect x="98" y="86.9668" width="8.99706" height="12" transform="rotate(-90 98 86.9668)" fill="black"/>
<rect x="134.344" y="87.2051" width="9.04467" height="9.03448" transform="rotate(-90 134.344 87.2051)" fill="black"/>
<rect x="170.482" y="87.2051" width="9.04467" height="9.03448" transform="rotate(-90 170.482 87.2051)" fill="black"/>
<rect x="108" y="87.2051" width="9.04467" height="9.03448" transform="rotate(-90 108 87.2051)" fill="black"/>
<rect x="143.379" y="87.2051" width="9.04467" height="9.03448" transform="rotate(-90 143.379 87.2051)" fill="black"/>
<rect width="9.04466" height="9.03448" transform="matrix(4.37257e-08 1 1 -4.36971e-08 171 87.2051)" fill="black"/>
<rect x="9.03516" y="78.1602" width="9.04466" height="9.03448" transform="rotate(-90 9.03516 78.1602)" fill="#954A00"/>
<rect x="26" y="77.9707" width="8.99706" height="12" transform="rotate(-90 26 77.9707)" fill="#954A00"/>
<rect x="36.3789" y="78.1602" width="9.04466" height="9.03448" transform="rotate(-90 36.3789 78.1602)" fill="#954A00"/>
<rect x="45.4141" y="78.1602" width="9.04466" height="9.03448" transform="rotate(-90 45.4141 78.1602)" fill="#954A00"/>
<rect x="18.0684" y="78.1602" width="9.04466" height="9.03448" transform="rotate(-90 18.0684 78.1602)" fill="#954A00"/>
<rect x="54" y="78.1602" width="9.04466" height="9.03448" transform="rotate(-90 54 78.1602)" fill="#954A00"/>
<rect x="80.6543" y="78.1602" width="9.04466" height="9.03448" transform="rotate(-90 80.6543 78.1602)" fill="#954A00"/>
<rect x="116.275" y="78.1602" width="9.04466" height="9.03448" transform="rotate(-90 116.275 78.1602)" fill="#954A00"/>
<rect x="152.412" y="78.1602" width="9.04466" height="9.03447" transform="rotate(-90 152.412 78.1602)" fill="#954A00"/>
<rect x="63.0332" y="78.1602" width="9.04466" height="9.03448" transform="rotate(-90 63.0332 78.1602)" fill="#954A00"/>
<rect x="89.6875" y="78.1602" width="9.04466" height="9.03448" transform="rotate(-90 89.6875 78.1602)" fill="#954A00"/>
<rect x="26" y="68.9727" width="8.99706" height="12" transform="rotate(-90 26 68.9727)" fill="black"/>
<rect x="125.309" y="78.1602" width="9.04466" height="9.03448" transform="rotate(-90 125.309 78.1602)" fill="#954A00"/>
<rect x="161.447" y="78.1602" width="9.04466" height="9.03448" transform="rotate(-90 161.447 78.1602)" fill="#954A00"/>
<rect x="36.3789" y="69.1152" width="9.04467" height="9.03448" transform="rotate(-90 36.3789 69.1152)" fill="black"/>
<rect x="72.0684" y="78.1602" width="9.04466" height="9.03448" transform="rotate(-90 72.0684 78.1602)" fill="#954A00"/>
<rect x="98" y="77.9707" width="8.99706" height="12" transform="rotate(-90 98 77.9707)" fill="#954A00"/>
<rect x="134.344" y="78.1602" width="9.04466" height="9.03448" transform="rotate(-90 134.344 78.1602)" fill="#954A00"/>
<rect x="45.4141" y="69.1152" width="9.04467" height="9.03448" transform="rotate(-90 45.4141 69.1152)" fill="black"/>
<rect x="170.482" y="78.1602" width="9.04466" height="9.03448" transform="rotate(-90 170.482 78.1602)" fill="black"/>
<rect x="108" y="78.1602" width="9.04466" height="9.03448" transform="rotate(-90 108 78.1602)" fill="#954A00"/>
<rect x="143.379" y="78.1602" width="9.04466" height="9.03448" transform="rotate(-90 143.379 78.1602)" fill="#954A00"/>
<rect x="9.03516" y="69.1152" width="9.04467" height="9.03448" transform="rotate(-90 9.03516 69.1152)" fill="black"/>
<rect x="18.0684" y="69.1152" width="9.04467" height="9.03448" transform="rotate(-90 18.0684 69.1152)" fill="black"/>
<rect x="54" y="69.1152" width="9.04467" height="9.03448" transform="rotate(-90 54 69.1152)" fill="black"/>
<rect x="80.6543" y="69.1152" width="9.04467" height="9.03448" transform="rotate(-90 80.6543 69.1152)" fill="black"/>
<rect x="116.275" y="69.1152" width="9.04467" height="9.03448" transform="rotate(-90 116.275 69.1152)" fill="black"/>
<rect x="152.412" y="69.1152" width="9.04467" height="9.03447" transform="rotate(-90 152.412 69.1152)" fill="black"/>
<rect x="63.0332" y="69.1152" width="9.04467" height="9.03448" transform="rotate(-90 63.0332 69.1152)" fill="black"/>
<rect x="89.6875" y="69.1152" width="9.04467" height="9.03448" transform="rotate(-90 89.6875 69.1152)" fill="black"/>
<rect x="125.309" y="69.1152" width="9.04467" height="9.03448" transform="rotate(-90 125.309 69.1152)" fill="black"/>
<rect x="161.447" y="69.1152" width="9.04467" height="9.03448" transform="rotate(-90 161.447 69.1152)" fill="black"/>
<rect x="72.0684" y="69.1152" width="9.04467" height="9.03448" transform="rotate(-90 72.0684 69.1152)" fill="black"/>
<rect x="98" y="68.9727" width="8.99706" height="12" transform="rotate(-90 98 68.9727)" fill="black"/>
<rect x="134.344" y="69.1152" width="9.04467" height="9.03448" transform="rotate(-90 134.344 69.1152)" fill="black"/>
<rect x="170.482" y="69.1152" width="9.04467" height="9.03448" transform="rotate(-90 170.482 69.1152)" fill="black"/>
<rect x="108" y="69.1152" width="9.04467" height="9.03448" transform="rotate(-90 108 69.1152)" fill="black"/>
<rect x="143.379" y="69.1152" width="9.04467" height="9.03448" transform="rotate(-90 143.379 69.1152)" fill="black"/>
<rect x="64.3809" y="105.064" width="9.04762" height="9.03153" fill="black"/>
<rect x="64.3809" y="114.098" width="9.04762" height="9.03153" fill="#B45A00"/>
<rect x="64.3809" y="123.127" width="9.04762" height="9.03153" fill="#B45A00"/>
<rect x="64.3809" y="132.16" width="9.04762" height="9.03153" fill="#D06300"/>
<rect x="64.3809" y="140.949" width="9.04762" height="9.03153" fill="#B45A00"/>
<rect x="64.3809" y="167.803" width="9.04762" height="9.03153" fill="#B45A00"/>
<rect x="64.3809" y="149.98" width="9.04762" height="9.03153" fill="#B45A00"/>
<rect x="64.3809" y="176.832" width="9.04762" height="9.03153" fill="#B45A00"/>
<rect x="28.1904" y="114.098" width="9.04762" height="9.03153" fill="#B45A00"/>
<rect x="64.3809" y="159.012" width="9.04762" height="9.03153" fill="#D06300"/>
<rect x="28.1904" y="132.16" width="9.04762" height="9.03153" fill="#B45A00"/>
<rect x="19.1426" y="114.098" width="9.04762" height="9.03153" fill="#B45A00"/>
<rect x="28.1904" y="123.127" width="9.04762" height="9.03153" fill="#B45A00"/>
<rect x="19.1426" y="132.16" width="9.04762" height="9.03153" fill="#B45A00"/>
<rect x="64.3809" y="185.936" width="9.04762" height="9.03153" fill="#B45A00"/>
<rect x="28.1904" y="140.949" width="9.04762" height="9.03153" fill="#B45A00"/>
<rect x="28.1904" y="167.803" width="9.04762" height="9.03153" fill="#B45A00"/>
<rect x="19.1426" y="123.127" width="9.04762" height="9.03153" fill="#B45A00"/>
<rect x="28.1904" y="105.064" width="9.04762" height="9.03153" fill="black"/>
<rect x="28.1904" y="159.012" width="9.04762" height="9.03153" fill="#B45A00"/>
<rect x="19.1426" y="140.949" width="9.04762" height="9.03153" fill="#B45A00"/>
<rect x="19.1426" y="167.803" width="9.04762" height="9.03153" fill="#B45A00"/>
<rect x="28.1904" y="149.98" width="9.04762" height="9.03153" fill="#B45A00"/>
<rect x="28.1904" y="176.832" width="9.04762" height="9.03153" fill="#B45A00"/>
<rect x="19.1426" y="159.012" width="9.04762" height="9.03153" fill="#B45A00"/>
<rect x="28.1904" y="185.936" width="9.04762" height="9.03153" fill="#B45A00"/>
<rect x="1.04785" y="114.098" width="9.04762" height="9.03153" fill="black"/>
<rect x="19.1426" y="105.064" width="9.04762" height="9.03153" fill="black"/>
<rect x="91.5239" y="114.098" width="9.04762" height="9.03153" fill="#D06300"/>
<rect x="91.5239" y="132.16" width="9.04762" height="9.03153" fill="#D06300"/>
<rect x="127.714" y="114.098" width="9.04762" height="9.03153" fill="#D06300"/>
<rect x="127.714" y="132.16" width="9.04762" height="9.03153" fill="#D06300"/>
<rect x="145.81" y="132.16" width="9.04762" height="9.03153" fill="#D06300"/>
<rect x="145.81" y="114.098" width="9.04762" height="9.03153" fill="#D06300"/>
<rect x="19.1426" y="149.98" width="9.04762" height="9.03153" fill="#B45A00"/>
<rect x="19.1426" y="176.832" width="9.04762" height="9.03153" fill="#B45A00"/>
<rect x="154.857" y="132.16" width="9.04761" height="9.03153" fill="black"/>
<rect x="91.5239" y="123.127" width="9.04762" height="9.03153" fill="#D06300"/>
<rect x="19.1426" y="185.936" width="9.04762" height="9.03153" fill="#B45A00"/>
<rect x="28.1904" y="194.967" width="9.04762" height="9.03152" fill="black"/>
<rect x="55.333" y="194.967" width="9.04762" height="9.03152" fill="black"/>
<rect x="127.714" y="123.127" width="9.04762" height="9.03153" fill="#D06300"/>
<rect x="82.4761" y="194.967" width="9.04762" height="9.03152" fill="black"/>
<rect x="55.333" y="132.16" width="9.04762" height="9.03153" fill="#B45A00"/>
<rect x="109.619" y="194.967" width="9.04762" height="9.03152" fill="black"/>
<rect x="136.762" y="194.967" width="9.04762" height="9.03152" fill="black"/>
<rect x="145.81" y="123.127" width="9.04762" height="9.03153" fill="#D06300"/>
<rect x="1.04785" y="140.949" width="9.04762" height="9.03153" fill="black"/>
<rect x="1.04785" y="167.803" width="9.04762" height="9.03153" fill="black"/>
<rect x="55.333" y="114.098" width="9.04762" height="9.03153" fill="#B45A00"/>
<rect x="154.857" y="114.098" width="9.04761" height="9.03153" fill="black"/>
<rect x="154.857" y="123.127" width="9.04761" height="9.03153" fill="black"/>
<rect x="1.04785" y="185.936" width="9.04762" height="9.03153" fill="black"/>
<rect x="73.4287" y="114.098" width="9.04762" height="9.03153" fill="#D06300"/>
<rect x="91.5239" y="140.949" width="9.04762" height="9.03153" fill="#D06300"/>
<rect x="91.5239" y="167.803" width="9.04762" height="9.03153" fill="#D06300"/>
<rect x="109.619" y="114.098" width="9.04762" height="9.03153" fill="#D06300"/>
<rect x="73.4287" y="132.16" width="9.04762" height="9.03153" fill="#D06300"/>
<rect x="91.5239" y="159.012" width="9.04762" height="9.03153" fill="#D06300"/>
<rect x="37.2383" y="114.098" width="9.04762" height="9.03153" fill="black"/>
<rect x="55.333" y="123.127" width="9.04762" height="9.03153" fill="#B45A00"/>
<rect x="109.619" y="132.16" width="9.04762" height="9.03153" fill="#D06300"/>
<rect x="127.714" y="140.949" width="9.04762" height="9.03153" fill="#D06300"/>
<rect x="127.714" y="167.803" width="9.04762" height="9.03153" fill="#D06300"/>
<rect x="127.714" y="159.012" width="9.04762" height="9.03153" fill="#D06300"/>
<rect x="37.2383" y="132.16" width="9.04762" height="9.03153" fill="#B45A00"/>
<rect x="10.0952" y="114.098" width="9.04762" height="9.03153" fill="#B45A00"/>
<rect x="10.0952" y="132.16" width="9.04762" height="9.03153" fill="#B45A00"/>
<rect x="145.81" y="159.012" width="9.04762" height="9.03153" fill="#D06300"/>
<rect x="1.04785" y="132.16" width="9.04762" height="9.03153" fill="black"/>
<rect x="145.81" y="140.949" width="9.04762" height="9.03153" fill="#D06300"/>
<rect x="145.81" y="167.803" width="9.04762" height="9.03153" fill="#D06300"/>
<rect x="73.4287" y="123.127" width="9.04762" height="9.03153" fill="#D06300"/>
<rect x="91.5239" y="105.064" width="9.04762" height="9.03153" fill="black"/>
<rect x="154.857" y="159.012" width="9.04761" height="9.03153" fill="black"/>
<rect x="109.619" y="123.127" width="9.04762" height="9.03153" fill="#D06300"/>
<rect x="91.5239" y="149.98" width="9.04762" height="9.03153" fill="#D06300"/>
<rect x="91.5239" y="176.832" width="9.04762" height="9.03153" fill="#D06300"/>
<rect x="91.5239" y="185.936" width="9.04762" height="9.03153" fill="#D06300"/>
<rect x="82.4761" y="132.16" width="9.04762" height="9.03153" fill="#D06300"/>
<rect x="82.4761" y="114.098" width="9.04762" height="9.03153" fill="#D06300"/>
<rect x="100.571" y="132.16" width="9.04762" height="9.03153" fill="#D06300"/>
<rect x="127.714" y="105.064" width="9.04762" height="9.03153" fill="black"/>
<rect x="37.2383" y="123.127" width="9.04762" height="9.03153" fill="#B45A00"/>
<rect x="100.571" y="114.098" width="9.04762" height="9.03153" fill="#D06300"/>
<rect x="127.714" y="149.98" width="9.04762" height="9.03153" fill="#D06300"/>
<rect x="127.714" y="176.832" width="9.04762" height="9.03153" fill="#D06300"/>
<rect x="118.667" y="132.16" width="9.04762" height="9.03153" fill="#D06300"/>
<rect x="127.714" y="185.936" width="9.04762" height="9.03153" fill="#D06300"/>
<rect x="10.0952" y="123.127" width="9.04762" height="9.03153" fill="#B45A00"/>
<rect x="136.762" y="132.16" width="9.04762" height="9.03153" fill="#D06300"/>
<rect x="55.333" y="159.012" width="9.04762" height="9.03153" fill="#B45A00"/>
<rect x="1.04785" y="123.127" width="9.04762" height="9.03153" fill="black"/>
<rect x="145.81" y="105.064" width="9.04762" height="9.03153" fill="black"/>
<rect x="46.2856" y="132.16" width="9.04762" height="9.03153" fill="#B45A00"/>
<rect x="145.81" y="149.98" width="9.04762" height="9.03153" fill="#D06300"/>
<rect x="145.81" y="176.832" width="9.04762" height="9.03153" fill="#D06300"/>
<rect x="145.81" y="185.936" width="9.04762" height="9.03153" fill="#D06300"/>
<rect x="55.333" y="140.949" width="9.04762" height="9.03153" fill="#B45A00"/>
<rect x="55.333" y="167.803" width="9.04762" height="9.03153" fill="#B45A00"/>
<rect x="118.667" y="114.098" width="9.04762" height="9.03153" fill="black"/>
<rect x="154.857" y="140.949" width="9.04761" height="9.03153" fill="black"/>
<rect x="154.857" y="167.803" width="9.04761" height="9.03153" fill="black"/>
<rect x="136.762" y="114.098" width="9.04762" height="9.03153" fill="#D06300"/>
<rect x="154.857" y="149.98" width="9.04761" height="9.03153" fill="black"/>
<rect x="154.857" y="176.832" width="9.04761" height="9.03153" fill="black"/>
<rect x="46.2856" y="114.098" width="9.04762" height="9.03153" fill="#B45A00"/>
<rect x="82.4761" y="123.127" width="9.04762" height="9.03153" fill="#D06300"/>
<rect x="73.4287" y="140.949" width="9.04762" height="9.03153" fill="#D06300"/>
<rect x="73.4287" y="167.803" width="9.04762" height="9.03153" fill="#D06300"/>
<rect x="154.857" y="185.936" width="9.04761" height="9.03153" fill="black"/>
<rect x="109.619" y="140.949" width="9.04762" height="9.03153" fill="#D06300"/>
<rect x="109.619" y="167.803" width="9.04762" height="9.03153" fill="#D06300"/>
<rect x="100.571" y="123.127" width="9.04762" height="9.03153" fill="#D06300"/>
<rect x="73.4287" y="159.012" width="9.04762" height="9.03153" fill="#D06300"/>
<rect x="55.333" y="105.064" width="9.04762" height="9.03153" fill="black"/>
<rect x="37.2383" y="140.949" width="9.04762" height="9.03153" fill="#B45A00"/>
<rect x="37.2383" y="167.803" width="9.04762" height="9.03153" fill="#B45A00"/>
<rect x="55.333" y="149.98" width="9.04762" height="9.03153" fill="#B45A00"/>
<rect x="55.333" y="176.832" width="9.04762" height="9.03153" fill="#B45A00"/>
<rect x="109.619" y="159.012" width="9.04762" height="9.03153" fill="#D06300"/>
<rect x="55.333" y="185.936" width="9.04762" height="9.03153" fill="#B45A00"/>
<rect x="37.2383" y="159.012" width="9.04762" height="9.03153" fill="#B45A00"/>
<rect x="10.0952" y="140.949" width="9.04762" height="9.03153" fill="#B45A00"/>
<rect x="10.0952" y="167.803" width="9.04762" height="9.03153" fill="#B45A00"/>
<rect x="118.667" y="123.127" width="9.04762" height="9.03153" fill="#D06300"/>
<rect x="10.0952" y="159.012" width="9.04762" height="9.03153" fill="#B45A00"/>
<rect x="73.4287" y="105.064" width="9.04762" height="9.03153" fill="black"/>
<rect x="1.04785" y="159.012" width="9.04762" height="9.03153" fill="black"/>
<rect x="136.762" y="123.127" width="9.04762" height="9.03153" fill="#D06300"/>
<rect x="73.4287" y="149.98" width="9.04762" height="9.03153" fill="#D06300"/>
<rect x="73.4287" y="176.832" width="9.04762" height="9.03153" fill="#D06300"/>
<rect x="46.2856" y="123.127" width="9.04762" height="9.03153" fill="#B45A00"/>
<rect x="73.4287" y="185.936" width="9.04762" height="9.03153" fill="#B45A00"/>
<rect x="109.619" y="105.064" width="9.04762" height="9.03153" fill="black"/>
<rect x="109.619" y="149.98" width="9.04762" height="9.03153" fill="#D06300"/>
<rect x="109.619" y="176.832" width="9.04762" height="9.03153" fill="#D06300"/>
<rect x="109.619" y="185.936" width="9.04762" height="9.03153" fill="#D06300"/>
<rect x="37.2383" y="105.064" width="9.04762" height="9.03153" fill="black"/>
<rect x="37.2383" y="95.9648" width="9.04762" height="9.03153" fill="black"/>
<rect x="37.2383" y="86.9668" width="9.04762" height="9.03153" fill="black"/>
<rect x="82.4761" y="159.012" width="9.04762" height="9.03153" fill="#D06300"/>
<rect x="82.4761" y="140.949" width="9.04762" height="9.03153" fill="#D06300"/>
<rect x="82.4761" y="167.803" width="9.04762" height="9.03153" fill="#D06300"/>
<rect x="100.571" y="159.012" width="9.04762" height="9.03153" fill="#D06300"/>
<rect x="37.2383" y="149.98" width="9.04762" height="9.03153" fill="#B45A00"/>
<rect x="37.2383" y="176.832" width="9.04762" height="9.03153" fill="#B45A00"/>
<rect x="37.2383" y="185.936" width="9.04762" height="9.03153" fill="#B45A00"/>
<rect x="100.571" y="140.949" width="9.04762" height="9.03153" fill="#D06300"/>
<rect x="100.571" y="167.803" width="9.04762" height="9.03153" fill="#D06300"/>
<rect x="10.0952" y="105.064" width="9.04762" height="9.03153" fill="black"/>
<rect x="118.667" y="159.012" width="9.04762" height="9.03153" fill="#D06300"/>
<rect x="10.0952" y="149.98" width="9.04762" height="9.03153" fill="#B45A00"/>
<rect x="10.0952" y="176.832" width="9.04762" height="9.03153" fill="#B45A00"/>
<rect x="136.762" y="159.012" width="9.04762" height="9.03153" fill="#D06300"/>
<rect x="1.04785" y="149.98" width="9.04762" height="9.03153" fill="black"/>
<rect x="1.04785" y="176.832" width="9.04762" height="9.03153" fill="black"/>
<rect x="10.0952" y="185.936" width="9.04762" height="9.03153" fill="#B45A00"/>
<rect x="46.2856" y="159.012" width="9.04762" height="9.03153" fill="#B45A00"/>
<rect x="37.2383" y="194.967" width="9.04762" height="9.03152" fill="black"/>
<rect x="64.3809" y="194.967" width="9.04762" height="9.03152" fill="black"/>
<rect x="91.5239" y="194.967" width="9.04762" height="9.03152" fill="black"/>
<rect x="118.667" y="194.967" width="9.04762" height="9.03152" fill="black"/>
<rect x="118.667" y="140.949" width="9.04762" height="9.03153" fill="#D06300"/>
<rect x="118.667" y="167.803" width="9.04762" height="9.03153" fill="#D06300"/>
<rect x="145.81" y="194.967" width="9.04762" height="9.03152" fill="black"/>
<rect x="136.762" y="140.949" width="9.04762" height="9.03153" fill="#D06300"/>
<rect x="136.762" y="167.803" width="9.04762" height="9.03153" fill="#D06300"/>
<rect x="82.4761" y="105.064" width="9.04762" height="9.03153" fill="black"/>
<rect x="46.2856" y="140.949" width="9.04762" height="9.03153" fill="#B45A00"/>
<rect x="46.2856" y="167.803" width="9.04762" height="9.03153" fill="#B45A00"/>
<rect x="82.4761" y="149.98" width="9.04762" height="9.03153" fill="#D06300"/>
<rect x="82.4761" y="176.832" width="9.04762" height="9.03153" fill="#D06300"/>
<rect x="82.4761" y="185.936" width="9.04762" height="9.03153" fill="#D06300"/>
<rect x="100.571" y="105.064" width="9.04762" height="9.03153" fill="black"/>
<rect x="100.571" y="149.98" width="9.04762" height="9.03153" fill="#D06300"/>
<rect x="100.571" y="176.832" width="9.04762" height="9.03153" fill="#D06300"/>
<rect x="100.571" y="185.936" width="9.04762" height="9.03153" fill="#D06300"/>
<rect x="19.1426" y="194.967" width="9.04762" height="9.03152" fill="black"/>
<rect x="10.0952" y="194.967" width="9.04762" height="9.03152" fill="black"/>
<rect x="46.2856" y="194.967" width="9.04762" height="9.03152" fill="black"/>
<rect x="73.4287" y="194.967" width="9.04762" height="9.03152" fill="black"/>
<rect x="100.571" y="194.967" width="9.04762" height="9.03152" fill="black"/>
<rect x="118.667" y="105.064" width="9.04762" height="9.03153" fill="black"/>
<rect x="127.714" y="194.967" width="9.04762" height="9.03152" fill="black"/>
<rect x="118.667" y="95.9648" width="9.04762" height="9.03153" fill="black"/>
<rect x="118.667" y="86.9668" width="9.04762" height="9.03153" fill="black"/>
<rect x="118.667" y="149.98" width="9.04762" height="9.03153" fill="#D06300"/>
<rect x="118.667" y="176.832" width="9.04762" height="9.03153" fill="#D06300"/>
<rect x="118.667" y="185.936" width="9.04762" height="9.03153" fill="#D06300"/>
<rect x="136.762" y="105.064" width="9.04762" height="9.03153" fill="black"/>
<rect x="136.762" y="149.98" width="9.04762" height="9.03153" fill="#D06300"/>
<rect x="136.762" y="176.832" width="9.04762" height="9.03153" fill="#D06300"/>
<rect x="136.762" y="185.936" width="9.04762" height="9.03153" fill="#D06300"/>
<rect x="46.2856" y="105.064" width="9.04762" height="9.03153" fill="black"/>
<rect x="46.2856" y="149.98" width="9.04762" height="9.03153" fill="#B45A00"/>
<rect x="46.2856" y="176.832" width="9.04762" height="9.03153" fill="#B45A00"/>
<rect x="46.2856" y="185.936" width="9.04762" height="9.03153" fill="#B45A00"/>
<path d="M155.555 59.0032H157.666V56.8961H155.555V59.0032Z" fill="#BF5F22"/>
<path d="M153.443 59.0032H155.554V56.8961H153.443V59.0032Z" fill="#BF5F22"/>
<path d="M157.666 59.0032H159.777V56.8961H157.666V59.0032Z" fill="#231F20"/>
<path d="M147.111 59.0032H149.221V56.8961H147.111V59.0032Z" fill="#715E57"/>
<path d="M151.332 59.0032H153.443V56.8961H151.332V59.0032Z" fill="#231F20"/>
<path d="M159.777 59.0032H161.889V56.8961H159.777V59.0032Z" fill="#231F20"/>
<path d="M149.222 59.0039H151.333V56.8969H149.222V59.0039Z" fill="#715E57"/>
<path d="M132.334 59.0037H134.445V56.8961H132.334V59.0037Z" fill="#231F20"/>
<path d="M144.999 59.0032H147.111V56.8961H144.999V59.0032Z" fill="#231F20"/>
<path d="M134.444 56.8961V59.0037L136.555 59.0032V56.8961H134.444Z" fill="#BF5F22"/>
<path d="M136.555 59.0039H138.667V56.8969H136.555V59.0039Z" fill="#BF5F22"/>
<path d="M140.778 59.0032H142.889V56.8961H140.778V59.0032Z" fill="#231F20"/>
<path d="M142.888 59.0032H144.999V56.8961H142.888V59.0032Z" fill="#715E57"/>
<path d="M138.667 59.0039H140.778V56.8969H138.667V59.0039Z" fill="#BF5F22"/>
<path d="M147.111 54.7892H149.221V52.6822H147.111V54.7892Z" fill="#231F20"/>
<path d="M138.667 54.7892H140.778V52.6822H138.667V54.7892Z" fill="#231F20"/>
<path d="M140.778 54.7892H142.889V52.6822H140.778V54.7892Z" fill="#231F20"/>
<path d="M153.443 54.7892H155.554V52.6822H153.443V54.7892Z" fill="#730B0E"/>
<path d="M149.222 54.7892H151.333V52.6822H149.222V54.7892Z" fill="#231F20"/>
<path d="M151.332 54.7892H153.443V52.6822H151.332V54.7892Z" fill="#730B0E"/>
<path d="M142.888 54.7892H144.999V52.6822H142.888V54.7892Z" fill="#231F20"/>
<path d="M144.999 54.7892H147.111V52.6822H144.999V54.7892Z" fill="#730B0E"/>
<path d="M155.559 54.7892H157.67V52.6822H155.559V54.7892Z" fill="#730B0E"/>
<path d="M161.889 54.7892H164V52.6822H161.889V54.7892Z" fill="#231F20"/>
<path d="M159.777 54.7892H161.889V52.6822H159.777V54.7892Z" fill="#0D6AAA"/>
<path d="M157.648 54.7892H159.759V52.6822H157.648V54.7892Z" fill="#231F20"/>
<path d="M149.222 56.8969H151.333V54.7892H149.222V56.8969Z" fill="#907A72"/>
<path d="M153.443 56.8967H155.554V54.7892H153.443V56.8967Z" fill="#231F20"/>
<path d="M157.666 56.8967H159.777L159.777 54.7892L157.666 54.7891V56.8967Z" fill="#730B0E"/>
<path d="M155.555 56.8967H157.666V54.7891H155.555V56.8967Z" fill="#231F20"/>
<path d="M151.332 56.8967H153.443V54.7892H151.332V56.8967Z" fill="#231F20"/>
<path d="M161.889 56.8967H164V54.7892H161.889V56.8967Z" fill="#231F20"/>
<path d="M159.777 56.8967H161.889V54.7892H159.777L159.777 56.8967Z" fill="#231F20"/>
<path d="M136.555 56.8969H138.667L138.667 54.7892L136.555 54.7891V56.8969Z" fill="#231F20"/>
<path d="M147.111 56.8967H149.221V54.7892H147.111V56.8967Z" fill="#907A72"/>
<path d="M134.444 56.8967L136.555 56.8969V54.7891H134.444V56.8967Z" fill="#231F20"/>
<path d="M142.888 56.8967H144.999V54.7892H142.888V56.8967Z" fill="#907A72"/>
<path d="M144.999 56.8967H147.111V54.7892H144.999V56.8967Z" fill="#231F20"/>
<path d="M138.667 56.8969H140.778V54.7892H138.667L138.667 56.8969Z" fill="#231F20"/>
<path d="M140.778 56.8969L142.889 56.8967V54.7892H140.778V56.8969Z" fill="#231F20"/>
<path d="M147.111 65.3262H149.221V63.2186H147.111V65.3262Z" fill="#231F20"/>
<path d="M161.889 63.2184H164V61.1109H161.889V63.2184Z" fill="#231F20"/>
<path d="M159.777 65.3262H161.889L161.889 63.2184L159.777 63.2186V65.3262Z" fill="#C5181D"/>
<path d="M157.666 65.3262H159.777V63.2186H157.666V65.3262Z" fill="#0994DC"/>
<path d="M155.555 65.3262H157.666V63.2186H155.555V65.3262Z" fill="#9C1116"/>
<path d="M153.443 65.3262H155.554V63.2186H153.443V65.3262Z" fill="#231F20"/>
<path d="M161.889 65.3262H164V63.2184H161.889L161.889 65.3262Z" fill="#231F20"/>
<path d="M144.999 65.3262H147.111V63.2186H144.999V65.3262Z" fill="#BF5F22"/>
<path d="M142.888 65.3262H144.999V63.2186H142.888V65.3262Z" fill="#231F20"/>
<path d="M159.777 63.2186L161.889 63.2184V61.1109H159.777V63.2186Z" fill="#9C1116"/>
<path d="M157.666 63.2186H159.777V61.1109H157.666V63.2186Z" fill="#0994DC"/>
<path d="M157.666 61.1114H159.777V59.0039H157.666V61.1114Z" fill="#0D6AAA"/>
<path d="M159.777 61.1114H161.889V59.0039H159.777V61.1114Z" fill="#730B0E"/>
<path d="M149.222 61.1114H151.333V59.0039H149.222V61.1114Z" fill="#231F20"/>
<path d="M151.332 61.1114H153.443V59.0039H151.332V61.1114Z" fill="#231F20"/>
<path d="M153.443 61.1114H155.554V59.0039H153.443V61.1114Z" fill="#231F20"/>
<path d="M161.889 61.1114H164V59.0039H161.889V61.1114Z" fill="#231F20"/>
<path d="M155.555 61.1114H157.666V59.0039H155.555V61.1114Z" fill="#231F20"/>
<path d="M136.555 61.1114H138.667V59.0039H136.555V61.1114Z" fill="#231F20"/>
<path d="M134.444 59.0044V61.1114H136.555V59.0039L134.444 59.0044Z" fill="#231F20"/>
<path d="M144.999 61.1114H147.111V59.0039H144.999V61.1114Z" fill="#8D4518"/>
<path d="M138.667 61.1114H140.778V59.0039H138.667V61.1114Z" fill="#231F20"/>
<path d="M142.888 61.1114H144.999V59.0039H142.888V61.1114Z" fill="#231F20"/>
<path d="M147.111 61.1114H149.221V59.0039H147.111V61.1114Z" fill="#231F20"/>
<path d="M140.778 61.1114H142.889V59.0039L140.778 59.0039V61.1114Z" fill="#231F20"/>
<path d="M142.888 63.2186H144.999L144.999 61.1109H142.888V63.2186Z" fill="#231F20"/>
<path d="M147.111 63.2186H149.221V61.1109H147.111V63.2186Z" fill="#231F20"/>
<path d="M144.999 63.2186H147.111V61.1109H144.999L144.999 63.2186Z" fill="#BF5F22"/>
<path d="M155.555 63.2186H157.666V61.1109H155.555V63.2186Z" fill="#730B0E"/>
<path d="M153.443 63.2186H155.554V61.1109H153.443V63.2186Z" fill="#231F20"/>
<path d="M138.667 35.8223H140.778V33.7147H138.667V35.8223Z" fill="#C5181D"/>
<path d="M153.443 16.8556H155.554V14.748H153.443V16.8556Z" fill="#C5181D"/>
<path d="M153.443 10.5331H155.554V8.42556H153.443V10.5331Z" fill="#C5181D"/>
<path d="M149.222 10.5331H151.333V8.42556H149.222V10.5331Z" fill="white"/>
<path d="M153.443 12.6409H155.554V10.5331H153.443V12.6409Z" fill="#C5181D"/>
<path d="M153.443 14.748H155.554V12.6403H153.443V14.748Z" fill="#C5181D"/>
<path d="M151.332 10.5331H153.443V8.42556H151.332V10.5331Z" fill="#C5181D"/>
<path d="M140.778 10.5331H142.889V8.42556H140.778V10.5331Z" fill="#231F20"/>
<path d="M147.111 10.5331H149.221V8.42556H147.111V10.5331Z" fill="white"/>
<path d="M142.889 10.5331H145.001V8.42556H142.889V10.5331Z" fill="white"/>
<path d="M151.332 12.6409H153.443V10.5331H151.332V12.6409Z" fill="#C5181D"/>
<path d="M153.443 23.1776H155.554V21.0705H153.443V23.1776Z" fill="#C5181D"/>
<path d="M153.443 33.7153H155.554V31.6077H153.443V33.7153Z" fill="#C5181D"/>
<path d="M153.443 31.6077H155.554V29.5H153.443V31.6077Z" fill="#C5181D"/>
<path d="M153.443 18.9633H155.554V16.8556H153.443V18.9633Z" fill="#C5181D"/>
<path d="M153.443 35.8223H155.554V33.7147H153.443V35.8223Z" fill="#C5181D"/>
<path d="M153.443 29.5H155.554V27.393H153.443V29.5Z" fill="#F1511B"/>
<path d="M153.443 37.9295H155.554V35.8223H153.443V37.9295Z" fill="#C5181D"/>
<path d="M138.667 10.5331H140.778V8.42556H138.667V10.5331Z" fill="#FDDD04"/>
<path d="M153.443 27.393H155.554V25.2853H153.443V27.393Z" fill="#C5181D"/>
<path d="M153.443 21.0705H155.554V18.9628H153.443V21.0705Z" fill="#C5181D"/>
<path d="M153.443 25.2853H155.554V23.1776H153.443V25.2853Z" fill="#C5181D"/>
<path d="M153.443 40.037H155.554V37.9295H153.443V40.037Z" fill="#FABC09"/>
<path d="M132.334 10.5331H134.445V8.42556H132.334V10.5331Z" fill="#FDDD04"/>
<path d="M136.555 10.5331H138.667V8.42556H136.555V10.5331Z" fill="#FDDD04"/>
<path d="M130.223 10.5331H132.334V8.42556H130.223V10.5331Z" fill="#FDDD04"/>
<path d="M130.223 8.42556H132.334L132.334 6.31857H130.223V8.42556Z" fill="#231F20"/>
<path d="M134.444 10.5331H136.555V8.42556H134.444V10.5331Z" fill="#FDDD04"/>
<path d="M128.111 12.6409H130.223L130.223 10.5331L128.111 10.5334V12.6409Z" fill="#FDDD04"/>
<path d="M128.111 10.5334L130.223 10.5331V8.42556H128.111L128.111 10.5334Z" fill="#231F20"/>
<path d="M130.223 12.6409L132.334 12.6409L132.334 10.5331H130.223L130.223 12.6409Z" fill="#FABC09"/>
<path d="M142.889 12.6409H145.001V10.5331H142.889V12.6409Z" fill="#231F20"/>
<path d="M153.443 42.1448H155.554V40.037H153.443V42.1448Z" fill="#FABC09"/>
<path d="M132.334 12.6409H134.445V10.5331H132.334L132.334 12.6409Z" fill="#FABC09"/>
<path d="M149.222 12.6409H151.333L151.333 10.5331H149.222L149.222 12.6409Z" fill="white"/>
<path d="M144.999 12.6409H147.111L147.111 10.5331L144.999 10.5333V12.6409Z" fill="white"/>
<path d="M140.778 12.6409H142.889V10.5331H140.778V12.6409Z" fill="#FDDD04"/>
<path d="M134.444 12.6409H136.555L136.555 10.5331H134.444V12.6409Z" fill="#FABC09"/>
<path d="M136.555 12.6409L138.667 12.6409L138.667 10.5331H136.555L136.555 12.6409Z" fill="#FABC09"/>
<path d="M138.667 12.6409L140.778 12.6409V10.5331H138.667L138.667 12.6409Z" fill="#FABC09"/>
<path d="M147.111 12.6409H149.221V10.5331H147.111L147.111 12.6409Z" fill="white"/>
<path d="M140.778 42.1448H142.889V40.0372H140.778V42.1448Z" fill="#C5181D"/>
<path d="M142.888 42.1448H144.999V40.0372H142.888V42.1448Z" fill="#C5181D"/>
<path d="M132.334 42.1448H134.445V40.0372H132.334V42.1448Z" fill="#231F20"/>
<path d="M134.444 40.0372V42.1448H136.555V40.0372H134.444Z" fill="#9C1116"/>
<path d="M136.555 42.1448L138.667 42.1447V40.0371L136.555 40.0372V42.1448Z" fill="#C5181D"/>
<path d="M151.332 42.1448H153.443V40.037L151.332 40.0372V42.1448Z" fill="#FABC09"/>
<path d="M144.999 42.1448H147.111V40.0372H144.999V42.1448Z" fill="#C5181D"/>
<path d="M149.222 42.1447H151.333V40.0371H149.222V42.1447Z" fill="#231F20"/>
<path d="M147.111 42.1448H149.221V40.0372H147.111V42.1448Z" fill="#C5181D"/>
<path d="M138.667 42.1447L140.778 42.1448V40.0372L138.667 40.0371V42.1447Z" fill="#C5181D"/>
<path d="M144.999 10.5333L147.111 10.5331V8.42556H144.999V10.5333Z" fill="white"/>
<path d="M138.667 8.42556H140.778L140.778 6.31857H138.667V8.42556Z" fill="#231F20"/>
<path d="M132.334 8.42556H134.445V6.31857H132.334L132.334 8.42556Z" fill="#231F20"/>
<path d="M136.555 8.42556H138.667V6.31857H136.555V8.42556Z" fill="#231F20"/>
<path d="M134.444 8.42556H136.555V6.31857H134.444V8.42556Z" fill="#231F20"/>
<path d="M140.778 8.42556H142.889L142.889 6.31857H140.778L140.778 8.42556Z" fill="#231F20"/>
<path d="M134.444 44.2527V46.3597H136.555V44.2527H134.444Z" fill="#231F20"/>
<path d="M136.555 46.359H138.667V44.2519H136.555V46.359Z" fill="#9C1116"/>
<path d="M138.667 46.359H140.778V44.2519H138.667V46.359Z" fill="#C5181D"/>
<path d="M142.888 46.3597H144.999V44.2527H142.888V46.3597Z" fill="#C5181D"/>
<path d="M144.999 46.3597H147.111V44.2527H144.999V46.3597Z" fill="#C5181D"/>
<path d="M140.778 46.3597H142.889V44.2527H140.778V46.3597Z" fill="#C5181D"/>
<path d="M151.332 44.2525H153.443L153.443 42.1448H151.332V44.2525Z" fill="#0994DC"/>
<path d="M138.667 44.2525L140.778 44.2527V42.1448L138.667 42.1447L138.667 44.2525Z" fill="#C5181D"/>
<path d="M144.999 44.2527H147.111V42.1448H144.999V44.2527Z" fill="#C5181D"/>
<path d="M149.222 44.2525H151.333L151.333 42.1447H149.222L149.222 44.2525Z" fill="#231F20"/>
<path d="M140.778 44.2527H142.889V42.1448H140.778V44.2527Z" fill="#C5181D"/>
<path d="M142.888 44.2527H144.999V42.1448H142.888V44.2527Z" fill="#C5181D"/>
<path d="M147.111 44.2527L149.221 44.2525V42.1448H147.111V44.2527Z" fill="#C5181D"/>
<path d="M155.555 44.2525H157.666V42.1449H155.555V44.2525Z" fill="#0994DC"/>
<path d="M155.555 42.1449H157.666V40.0372H155.555V42.1449Z" fill="#FABC09"/>
<path d="M153.443 44.2525H155.554V42.1448H153.443L153.443 44.2525Z" fill="#FABC09"/>
<path d="M155.555 40.0372H157.666V37.9294H155.555V40.0372Z" fill="#FABC09"/>
<path d="M136.555 44.2527L138.667 44.2525L138.667 42.1447L136.555 42.1448V44.2527Z" fill="#9C1116"/>
<path d="M134.444 42.1448V44.2527H136.555V42.1448H134.444Z" fill="#730B0E"/>
<path d="M132.334 44.2525H134.445V42.1448H132.334V44.2525Z" fill="#231F20"/>
<path d="M142.888 8.42561L144.999 8.42556L144.999 6.31857H142.888V8.42561Z" fill="white"/>
<path d="M155.555 10.5331H157.666V8.42556H155.555V10.5331Z" fill="#231F20"/>
<path d="M153.443 8.42556H155.554V6.31857H153.443V8.42556Z" fill="#C5181D"/>
<path d="M155.555 8.42556H157.666V6.31857H155.555V8.42556Z" fill="#231F20"/>
<path d="M155.555 14.7479H157.666V12.6403H155.555V14.7479Z" fill="#231F20"/>
<path d="M155.555 37.9294H157.666V35.8225H155.555V37.9294Z" fill="#FABC09"/>
<path d="M144.999 8.42556H147.111L147.111 6.31857H144.999L144.999 8.42556Z" fill="#231F20"/>
<path d="M155.555 16.8556H157.666V14.7479H155.555V16.8556Z" fill="#231F20"/>
<path d="M147.111 8.42556H149.221V6.31857H147.111L147.111 8.42556Z" fill="white"/>
<path d="M149.222 8.42556H151.333V6.31857H149.222V8.42556Z" fill="white"/>
<path d="M151.332 8.42556H153.443V6.31857H151.332V8.42556Z" fill="#C5181D"/>
<path d="M155.555 12.6409H157.666V10.5331H155.555V12.6409Z" fill="#231F20"/>
<path d="M155.555 33.7153H157.666V31.6077H155.555V33.7153Z" fill="#C5181D"/>
<path d="M155.555 31.6077H157.666V29.5H155.555V31.6077Z" fill="#C5181D"/>
<path d="M155.555 35.8225H157.666V33.7147H155.555V35.8225Z" fill="#C5181D"/>
<path d="M155.555 18.9633H157.666V16.8556H155.555V18.9633Z" fill="#F1511B"/>
<path d="M155.555 29.5H157.666V27.393H155.555V29.5Z" fill="#C5181D"/>
<path d="M155.555 21.0703H157.666V18.9628H155.555V21.0703Z" fill="#C5181D"/>
<path d="M155.555 27.393H157.666V25.2853H155.555V27.393Z" fill="#C5181D"/>
<path d="M155.555 23.1776H157.666V21.0703H155.555V23.1776Z" fill="#C5181D"/>
<path d="M155.555 25.2853H157.666V23.1776H155.555V25.2853Z" fill="#C5181D"/>
<path d="M140.778 29.5H142.889V27.393H140.778V29.5Z" fill="#F36717"/>
<path d="M130.223 18.9633H132.334V16.8558H130.223V18.9633Z" fill="#FABC09"/>
<path d="M130.223 21.0703H132.334V18.9628H130.223V21.0703Z" fill="#231F20"/>
<path d="M132.334 18.9633H134.445V16.8558H132.334V18.9633Z" fill="#231F20"/>
<path d="M134.444 18.9633H136.555V16.8558H134.444V18.9633Z" fill="#231F20"/>
<path d="M136.555 18.9633H138.667V16.8558H136.555V18.9633Z" fill="#231F20"/>
<path d="M144.999 25.2851H147.111V23.1775H144.999V25.2851Z" fill="#C5181D"/>
<path d="M138.667 18.9633H140.778V16.8558H138.667V18.9633Z" fill="#231F20"/>
<path d="M144.999 27.3928H147.111V25.2851H144.999V27.3928Z" fill="#C5181D"/>
<path d="M144.999 31.6075H147.111V29.5H144.999V31.6075Z" fill="#C5181D"/>
<path d="M144.999 29.5H147.111V27.3928H144.999V29.5Z" fill="#F36717"/>
<path d="M144.999 23.1775H147.111V21.0705H144.999V23.1775Z" fill="#C5181D"/>
<path d="M140.778 18.9633H142.889V16.8558H140.778V18.9633Z" fill="#231F20"/>
<path d="M142.889 18.9633H145.001V16.8558H142.889V18.9633Z" fill="#231F20"/>
<path d="M144.999 18.9633H147.111V16.8558H144.999V18.9633Z" fill="#9C1116"/>
<path d="M144.999 21.0705H147.111V18.9628H144.999V21.0705Z" fill="#C5181D"/>
<path d="M147.111 29.5L149.221 29.5V27.393L147.111 27.3928V29.5Z" fill="#C5181D"/>
<path d="M147.111 25.2851H149.221V23.1775H147.111V25.2851Z" fill="#C5181D"/>
<path d="M147.111 23.1775H149.221V21.0705H147.111V23.1775Z" fill="#C5181D"/>
<path d="M147.111 27.3928L149.221 27.393V25.2851H147.111V27.3928Z" fill="#C5181D"/>
<path d="M147.111 21.0705H149.221V18.9628H147.111V21.0705Z" fill="#C5181D"/>
<path d="M144.999 33.7153H147.111V31.6075H144.999V33.7153Z" fill="#C5181D"/>
<path d="M132.334 33.7153H134.445V31.6077H132.334V33.7153Z" fill="#231F20"/>
<path d="M151.332 14.7479L153.443 14.748V12.6403H151.332V14.7479Z" fill="#C5181D"/>
<path d="M147.111 18.9633H149.221V16.8558H147.111V18.9633Z" fill="#C5181D"/>
<path d="M144.999 16.8558H147.111V14.748H144.999V16.8558Z" fill="#231F20"/>
<path d="M147.111 16.8558H149.221V14.748H147.111V16.8558Z" fill="white"/>
<path d="M142.889 16.8558H145.001V14.748H142.889V16.8558Z" fill="#231F20"/>
<path d="M136.555 35.8223H138.667V33.7147H136.555V35.8223Z" fill="#C5181D"/>
<path d="M134.444 33.7147V35.8223H136.555V33.7147H134.444Z" fill="#C5181D"/>
<path d="M132.334 35.8223H134.445V33.7147H132.334V35.8223Z" fill="#231F20"/>
<path d="M147.111 33.7153H149.221V31.6077L147.111 31.6075V33.7153Z" fill="#C5181D"/>
<path d="M144.999 35.8223H147.111V33.7147H144.999V35.8223Z" fill="#C5181D"/>
<path d="M147.111 35.8223H149.221V33.7147H147.111V35.8223Z" fill="#C5181D"/>
<path d="M142.888 35.8223H144.999V33.7147H142.888V35.8223Z" fill="#C5181D"/>
<path d="M140.778 35.8223H142.889V33.7147H140.778V35.8223Z" fill="#C5181D"/>
<path d="M142.888 33.7153H144.999V31.6075L142.888 31.6077V33.7153Z" fill="#F36717"/>
<path d="M140.778 16.8558H142.889V14.748H140.778L140.778 16.8558Z" fill="#231F20"/>
<path d="M134.444 23.1776H136.555V21.0705H134.444V23.1776Z" fill="#231F20"/>
<path d="M134.444 29.5H136.555V27.393H134.444V29.5Z" fill="#231F20"/>
<path d="M138.667 23.1776H140.778V21.0705H138.667V23.1776Z" fill="#9C1116"/>
<path d="M140.778 31.6075H142.889V29.5H140.778V31.6075Z" fill="#C5181D"/>
<path d="M142.888 31.6077L144.999 31.6075V29.5H142.888V31.6077Z" fill="#F36717"/>
<path d="M138.667 31.6075H140.778V29.5L138.667 29.5V31.6075Z" fill="#F36717"/>
<path d="M136.555 31.6075H138.667V29.5L136.555 29.5L136.555 31.6075Z" fill="#F36717"/>
<path d="M136.555 29.5L138.667 29.5L138.667 27.393H136.555V29.5Z" fill="#F36717"/>
<path d="M138.667 27.393H140.778L140.778 25.2852H138.667L138.667 27.393Z" fill="#C5181D"/>
<path d="M136.555 27.393H138.667L138.667 25.2852H136.555L136.555 27.393Z" fill="#231F20"/>
<path d="M136.555 25.2852H138.667L138.667 23.1776H136.555L136.555 25.2852Z" fill="#231F20"/>
<path d="M138.667 25.2852H140.778L140.778 23.1776H138.667L138.667 25.2852Z" fill="#C5181D"/>
<path d="M140.778 23.1776H142.889V21.0705H140.778V23.1776Z" fill="#9C1116"/>
<path d="M140.778 27.393H142.889V25.2853L140.778 25.2852L140.778 27.393Z" fill="#C5181D"/>
<path d="M138.667 29.5L140.778 29.5V27.393H138.667L138.667 29.5Z" fill="#C5181D"/>
<path d="M140.778 25.2852L142.889 25.2853V23.1776H140.778L140.778 25.2852Z" fill="#C5181D"/>
<path d="M147.111 46.3597H149.221V44.2525L147.111 44.2527V46.3597Z" fill="#C5181D"/>
<path d="M136.555 23.1776H138.667V21.0705H136.555V23.1776Z" fill="#9C1116"/>
<path d="M134.444 31.6075H136.555L136.555 29.5H134.444V31.6075Z" fill="#F36717"/>
<path d="M132.334 31.6077H134.445V29.5H132.334V31.6077Z" fill="#231F20"/>
<path d="M134.444 33.7153H136.555L136.555 31.6075H134.444V33.7153Z" fill="#F36717"/>
<path d="M138.667 33.7153H140.778L140.778 31.6075H138.667V33.7153Z" fill="#F36717"/>
<path d="M140.778 33.7153H142.889V31.6075H140.778L140.778 33.7153Z" fill="#C5181D"/>
<path d="M136.555 33.7153H138.667V31.6075H136.555L136.555 33.7153Z" fill="#C5181D"/>
<path d="M138.667 21.0705H140.778V18.9628H138.667V21.0705Z" fill="#231F20"/>
<path d="M142.889 21.0703H145.001V18.9628H142.889V21.0703Z" fill="#9C1116"/>
<path d="M142.888 25.2851H144.999V23.1775H142.888V25.2851Z" fill="#C5181D"/>
<path d="M142.888 23.1775H144.999V21.0705H142.888V23.1775Z" fill="#C5181D"/>
<path d="M142.888 27.3928H144.999V25.2851H142.888V27.3928Z" fill="#C5181D"/>
<path d="M136.555 21.0705H138.667V18.9628H136.555L136.555 21.0705Z" fill="#231F20"/>
<path d="M134.444 21.0705H136.555L136.555 18.9628H134.444V21.0705Z" fill="#231F20"/>
<path d="M132.334 21.0703H134.445V18.9628H132.334V21.0703Z" fill="#231F20"/>
<path d="M140.778 21.0705H142.889V18.9628H140.778V21.0705Z" fill="#231F20"/>
<path d="M142.888 29.5H144.999V27.3928H142.888V29.5Z" fill="#C5181D"/>
<path d="M147.111 31.6075L149.221 31.6077V29.5L147.111 29.5V31.6075Z" fill="#F36717"/>
<path d="M130.223 14.7479H132.334V12.6403H130.223V14.7479Z" fill="#FABC09"/>
<path d="M132.334 40.0372H134.445V37.9294H132.334V40.0372Z" fill="#231F20"/>
<path d="M132.334 14.7479H134.445V12.6403H132.334V14.7479Z" fill="#FABC09"/>
<path d="M134.444 14.7479H136.555V12.6403H134.444V14.7479Z" fill="#FABC09"/>
<path d="M128.111 14.7479H130.223V12.6403H128.111V14.7479Z" fill="#FABC09"/>
<path d="M126 16.8555H128.111L128.111 14.7479L126 14.748V16.8555Z" fill="#231F20"/>
<path d="M126 14.748L128.111 14.7479V12.6403H126L126 14.748Z" fill="#231F20"/>
<path d="M126 12.6409H128.111V10.5334H126V12.6409Z" fill="#231F20"/>
<path d="M126 18.9633H128.111V16.8555H126L126 18.9633Z" fill="#231F20"/>
<path d="M126 21.0703H128.111V18.9628H126V21.0703Z" fill="#231F20"/>
<path d="M134.444 37.9294V40.0372H136.555V37.9294H134.444Z" fill="#C5181D"/>
<path d="M151.332 27.3928L153.443 27.393V25.2853H151.332V27.3928Z" fill="#F1511B"/>
<path d="M151.332 25.2853H153.443V23.1776L151.332 23.1775V25.2853Z" fill="#C5181D"/>
<path d="M151.332 29.5L153.443 29.5V27.393L151.332 27.3928V29.5Z" fill="#231F20"/>
<path d="M151.332 31.6075L153.443 31.6077V29.5L151.332 29.5V31.6075Z" fill="#F1511B"/>
<path d="M136.555 14.7479H138.667V12.6403H136.555V14.7479Z" fill="#FABC09"/>
<path d="M151.332 21.0703L153.443 21.0705V18.9628H151.332V21.0703Z" fill="#C5181D"/>
<path d="M151.332 23.1775L153.443 23.1776V21.0705L151.332 21.0703V23.1775Z" fill="#C5181D"/>
<path d="M151.332 18.9633H153.443V16.8556L151.332 16.8558V18.9633Z" fill="#C5181D"/>
<path d="M151.332 16.8558L153.443 16.8556V14.748L151.332 14.7479V16.8558Z" fill="#C5181D"/>
<path d="M151.332 35.8223H153.443V33.7147H151.332V35.8223Z" fill="#C5181D"/>
<path d="M151.332 33.7153H153.443V31.6077L151.332 31.6075V33.7153Z" fill="#C5181D"/>
<path d="M140.778 40.0372H142.889V37.9294H140.778V40.0372Z" fill="#C5181D"/>
<path d="M138.667 40.0371L140.778 40.0372V37.9294H138.667L138.667 40.0371Z" fill="#C5181D"/>
<path d="M142.888 40.0372H144.999V37.9294H142.888V40.0372Z" fill="#C5181D"/>
<path d="M151.332 37.9295H153.443V35.8223H151.332V37.9295Z" fill="#FABC09"/>
<path d="M136.555 40.0372L138.667 40.0371L138.667 37.9294H136.555V40.0372Z" fill="#C5181D"/>
<path d="M149.222 40.0371H151.333L151.333 37.9294H149.222L149.222 40.0371Z" fill="#231F20"/>
<path d="M151.332 40.0372L153.443 40.037V37.9295H151.332V40.0372Z" fill="#FABC09"/>
<path d="M144.999 40.0372H147.111V37.9294H144.999V40.0372Z" fill="#C5181D"/>
<path d="M147.111 40.0372H149.221V37.9294H147.111V40.0372Z" fill="#C5181D"/>
<path d="M138.667 14.7479L140.778 14.748L140.778 12.6403H138.667V14.7479Z" fill="#FABC09"/>
<path d="M138.667 16.8558H140.778L140.778 14.748L138.667 14.7479V16.8558Z" fill="#FABC09"/>
<path d="M132.334 37.9294H134.445V35.8223H132.334V37.9294Z" fill="#231F20"/>
<path d="M134.444 35.8223V37.9294H136.555L136.555 35.8223H134.444Z" fill="#C5181D"/>
<path d="M136.555 37.9294H138.667V35.8223H136.555L136.555 37.9294Z" fill="#C5181D"/>
<path d="M128.111 23.1776H130.223L130.223 21.0703H128.111L128.111 23.1776Z" fill="#231F20"/>
<path d="M132.334 16.8558H134.445V14.7479H132.334V16.8558Z" fill="#FABC09"/>
<path d="M134.444 16.8558H136.555V14.7479H134.444V16.8558Z" fill="#FABC09"/>
<path d="M136.555 16.8558H138.667V14.7479H136.555V16.8558Z" fill="#FABC09"/>
<path d="M130.223 16.8558H132.334V14.7479H130.223V16.8558Z" fill="#FABC09"/>
<path d="M128.111 21.0703H130.223V18.9628H128.111V21.0703Z" fill="#FABC09"/>
<path d="M138.667 37.9294H140.778L140.778 35.8223H138.667V37.9294Z" fill="#C5181D"/>
<path d="M128.111 16.8555L130.223 16.8558V14.7479H128.111L128.111 16.8555Z" fill="#FABC09"/>
<path d="M128.111 18.9633H130.223V16.8558L128.111 16.8555V18.9633Z" fill="#FABC09"/>
<path d="M149.222 18.9633H151.333V16.8558H149.222V18.9633Z" fill="#C5181D"/>
<path d="M149.222 16.8558H151.333L151.333 14.748H149.222L149.222 16.8558Z" fill="#C5181D"/>
<path d="M149.222 23.1776H151.333V21.0705H149.222V23.1776Z" fill="#C5181D"/>
<path d="M149.222 21.0705H151.333V18.9628H149.222V21.0705Z" fill="#C5181D"/>
<path d="M149.222 14.748H151.333L151.333 12.6403H149.222L149.222 14.748Z" fill="white"/>
<path d="M140.778 37.9294H142.889V35.8223H140.778L140.778 37.9294Z" fill="#C5181D"/>
<path d="M140.778 14.748H142.889V12.6403H140.778L140.778 14.748Z" fill="#FABC09"/>
<path d="M142.889 14.748H145.001V12.6403H142.889V14.748Z" fill="#231F20"/>
<path d="M147.111 14.748H149.221V12.6403H147.111L147.111 14.748Z" fill="white"/>
<path d="M144.999 14.748H147.111L147.111 12.6403H144.999V14.748Z" fill="#231F20"/>
<path d="M149.222 25.2851H151.333V23.1776H149.222V25.2851Z" fill="#C5181D"/>
<path d="M147.111 37.9294H149.221V35.8223H147.111V37.9294Z" fill="#C5181D"/>
<path d="M144.999 37.9294H147.111V35.8223H144.999L144.999 37.9294Z" fill="#C5181D"/>
<path d="M149.222 37.9294H151.333L151.333 35.8225H149.222L149.222 37.9294Z" fill="#231F20"/>
<path d="M149.222 27.3928H151.333L151.333 25.2851H149.222L149.222 27.3928Z" fill="#C5181D"/>
<path d="M142.888 37.9294H144.999L144.999 35.8223H142.888V37.9294Z" fill="#C5181D"/>
<path d="M149.222 31.6075H151.333V29.5H149.222V31.6075Z" fill="#231F20"/>
<path d="M149.222 35.8225H151.333L151.333 33.7147H149.222L149.222 35.8225Z" fill="#231F20"/>
<path d="M149.222 29.5H151.333L151.333 27.3928H149.222L149.222 29.5Z" fill="#C5181D"/>
<path d="M149.222 33.7153H151.333V31.6075H149.222V33.7153Z" fill="#231F20"/>
<path d="M144.999 52.6822H147.111L147.111 50.5744H144.999L144.999 52.6822Z" fill="#730B0E"/>
<path d="M140.778 52.6822H142.889V50.5744H140.778L140.778 52.6822Z" fill="#730B0E"/>
<path d="M136.555 52.6819L138.667 52.6822L138.667 50.5744H136.555V52.6819Z" fill="#231F20"/>
<path d="M142.888 52.6822H144.999L144.999 50.5744H142.888V52.6822Z" fill="#730B0E"/>
<path d="M138.667 52.6822H140.778L140.778 50.5744L138.667 50.5744L138.667 52.6822Z" fill="#730B0E"/>
<path d="M161.889 44.2525H164V42.1449H161.889V44.2525Z" fill="#231F20"/>
<path d="M161.889 42.1449H164V40.0372H161.889V42.1449Z" fill="#231F20"/>
<path d="M161.889 40.0372H164V37.9294H161.889V40.0372Z" fill="#231F20"/>
<path d="M161.889 46.3597H164V44.2525H161.889V46.3597Z" fill="#231F20"/>
<path d="M149.222 46.359H151.333V44.2519H149.222V46.359Z" fill="#9C1116"/>
<path d="M161.889 31.6075H164V29.5H161.889V31.6075Z" fill="#231F20"/>
<path d="M161.889 33.7153H164V31.6075H161.889V33.7153Z" fill="#231F20"/>
<path d="M161.889 37.9294H164V35.8225H161.889V37.9294Z" fill="#231F20"/>
<path d="M147.111 2.10365H149.221V-0.00390625H147.111V2.10365Z" fill="#231F20"/>
<path d="M142.888 2.10365H144.999V-0.00390625H142.888V2.10365Z" fill="#231F20"/>
<path d="M138.667 2.10365H140.778V-0.00390625H138.667V2.10365Z" fill="#231F20"/>
<path d="M140.778 2.10365H142.889V-0.00390625H140.778V2.10365Z" fill="#231F20"/>
<path d="M144.999 2.10365H147.111V-0.00390625H144.999V2.10365Z" fill="#231F20"/>
<path d="M149.222 2.10365H151.333V-0.00390625H149.222V2.10365Z" fill="#231F20"/>
<path d="M151.332 2.10365H153.443V-0.00390625H151.332V2.10365Z" fill="#231F20"/>
<path d="M147.111 52.6822H149.221V50.5744H147.111L147.111 52.6822Z" fill="#730B0E"/>
<path d="M161.889 48.4665H164V46.3589H161.889V48.4665Z" fill="#231F20"/>
<path d="M155.555 52.682H157.666V50.5744H155.555V52.682Z" fill="#231F20"/>
<path d="M151.332 52.6822H153.443L153.443 50.5744H151.332V52.6822Z" fill="#730B0E"/>
<path d="M153.443 52.6822H155.554V50.5744H153.443L153.443 52.6822Z" fill="#730B0E"/>
<path d="M149.222 52.6822H151.333L151.333 50.5744H149.222L149.222 52.6822Z" fill="#730B0E"/>
<path d="M161.889 52.6822H164V50.5744H161.889V52.6822Z" fill="#231F20"/>
<path d="M159.777 52.6822H161.889V50.5744H159.777V52.6822Z" fill="#0994DC"/>
<path d="M157.666 52.682L159.777 52.6822V50.5744H157.666V52.682Z" fill="#0D6AAA"/>
<path d="M161.889 35.8225H164V33.7147H161.889V35.8225Z" fill="#231F20"/>
<path d="M151.332 48.4665H153.443V46.3589H151.332V48.4665Z" fill="#231F20"/>
<path d="M149.222 48.4665H151.333V46.359H149.222V48.4665Z" fill="#9C1116"/>
<path d="M147.111 48.4665H149.221V46.3589H147.111V48.4665Z" fill="#9C1116"/>
<path d="M153.443 48.4665H155.554V46.3589H153.443V48.4665Z" fill="#0D6AAA"/>
<path d="M144.999 48.4665H147.111V46.3589H144.999V48.4665Z" fill="#C5181D"/>
<path d="M159.777 46.3597H161.889V44.2525L159.777 44.2527V46.3597Z" fill="#0994DC"/>
<path d="M142.888 48.4665H144.999V46.3589H142.888V48.4665Z" fill="#C5181D"/>
<path d="M159.777 48.4665H161.889V46.3589H159.777V48.4665Z" fill="#0994DC"/>
<path d="M157.666 48.4665H159.777V46.3589H157.666V48.4665Z" fill="#0994DC"/>
<path d="M155.555 48.4665H157.666V46.3589H155.555V48.4665Z" fill="#0994DC"/>
<path d="M134.444 48.4665H136.555L136.555 46.359L134.444 46.3589V48.4665Z" fill="#231F20"/>
<path d="M136.555 48.4665H138.667V46.359H136.555L136.555 48.4665Z" fill="#730B0E"/>
<path d="M138.667 48.4665H140.778V46.359H138.667V48.4665Z" fill="#9C1116"/>
<path d="M140.778 48.4665H142.889V46.3589L140.778 46.359V48.4665Z" fill="#C5181D"/>
<path d="M157.666 23.1776H159.777V21.0705L157.666 21.0703V23.1776Z" fill="#F1511B"/>
<path d="M159.777 44.2527L161.889 44.2525V42.1449H159.777V44.2527Z" fill="#0994DC"/>
<path d="M157.666 27.393L159.777 27.3928V25.2853H157.666V27.393Z" fill="#C5181D"/>
<path d="M157.666 29.5L159.777 29.5V27.3928L157.666 27.393V29.5Z" fill="#C5181D"/>
<path d="M157.666 33.7153H159.777V31.6077H157.666V33.7153Z" fill="#C5181D"/>
<path d="M157.666 31.6077H159.777V29.5L157.666 29.5V31.6077Z" fill="#C5181D"/>
<path d="M157.666 21.0703L159.777 21.0705V18.9628H157.666V21.0703Z" fill="#231F20"/>
<path d="M157.666 18.9633H159.777V16.8558L157.666 16.8556V18.9633Z" fill="#231F20"/>
<path d="M155.555 46.3597H157.666V44.2525H155.555V46.3597Z" fill="#0994DC"/>
<path d="M153.443 46.3597H155.554V44.2525H153.443L153.443 46.3597Z" fill="#0994DC"/>
<path d="M157.666 46.3597H159.777V44.2527L157.666 44.2525V46.3597Z" fill="#0994DC"/>
<path d="M151.332 46.3597H153.443L153.443 44.2525H151.332V46.3597Z" fill="#231F20"/>
<path d="M161.889 50.5744H164V48.4665H161.889V50.5744Z" fill="#231F20"/>
<path d="M157.666 37.9294L159.777 37.9295V35.8225H157.666V37.9294Z" fill="#C5181D"/>
<path d="M157.666 40.0372L159.777 40.037V37.9295L157.666 37.9294V40.0372Z" fill="#FABC09"/>
<path d="M157.666 44.2525L159.777 44.2527V42.1449H157.666V44.2525Z" fill="#FABC09"/>
<path d="M157.666 35.8225H159.777V33.7147H157.666V35.8225Z" fill="#C5181D"/>
<path d="M157.666 25.2853H159.777V23.1776H157.666V25.2853Z" fill="#231F20"/>
<path d="M134.444 6.31857H136.555L136.555 4.21159H134.444V6.31857Z" fill="#231F20"/>
<path d="M140.778 6.31857H142.889V4.21159H140.778L140.778 6.31857Z" fill="white"/>
<path d="M138.667 6.31786H140.778V4.21083H138.667V6.31786Z" fill="#231F20"/>
<path d="M136.555 6.31786H138.667V4.21083H136.555V6.31786Z" fill="#F1511B"/>
<path d="M144.999 6.31857H147.111V4.21159H144.999L144.999 6.31857Z" fill="#231F20"/>
<path d="M153.443 6.31857H155.554V4.21159H153.443V6.31857Z" fill="#F1511B"/>
<path d="M142.888 6.31857H144.999L144.999 4.21159H142.888V6.31857Z" fill="white"/>
<path d="M155.555 6.31857H157.666V4.21159H155.555V6.31857Z" fill="#231F20"/>
<path d="M151.332 6.31857H153.443V4.21159H151.332V6.31857Z" fill="#C5181D"/>
<path d="M147.111 6.31857H149.221V4.21159H147.111V6.31857Z" fill="white"/>
<path d="M149.222 6.31786H151.333V4.21083H149.222V6.31786Z" fill="#C5181D"/>
<path d="M157.666 42.1449H159.777L159.777 40.037L157.666 40.0372V42.1449Z" fill="#FABC09"/>
<path d="M151.332 50.5744H153.443V48.4665H151.332V50.5744Z" fill="#730B0E"/>
<path d="M147.111 50.5744H149.221V48.4665H147.111L147.111 50.5744Z" fill="#9C1116"/>
<path d="M149.222 50.5744H151.333L151.333 48.4665H149.222L149.222 50.5744Z" fill="#9C1116"/>
<path d="M144.999 50.5744H147.111L147.111 48.4665H144.999V50.5744Z" fill="#9C1116"/>
<path d="M142.888 50.5744H144.999V48.4665H142.888V50.5744Z" fill="#9C1116"/>
<path d="M157.666 50.5744H159.777V48.4665H157.666L157.666 50.5744Z" fill="#0994DC"/>
<path d="M159.777 50.5744H161.889V48.4665H159.777V50.5744Z" fill="#0994DC"/>
<path d="M140.778 50.5744H142.889V48.4665H140.778L140.778 50.5744Z" fill="#9C1116"/>
<path d="M155.555 50.5744H157.666L157.666 48.4665H155.555V50.5744Z" fill="#0D6AAA"/>
<path d="M153.443 50.5744H155.554V48.4665H153.443V50.5744Z" fill="#231F20"/>
<path d="M136.555 50.5744H138.667L138.667 48.4665H136.555L136.555 50.5744Z" fill="#231F20"/>
<path d="M138.667 50.5744L140.778 50.5744L140.778 48.4665H138.667L138.667 50.5744Z" fill="#9C1116"/>
<path d="M159.777 33.7153H161.889V31.6075L159.777 31.6077V33.7153Z" fill="#C5181D"/>
<path d="M159.777 37.9295L161.889 37.9294V35.8225H159.777V37.9295Z" fill="#FABC09"/>
<path d="M159.777 35.8225H161.889V33.7147H159.777V35.8225Z" fill="#C5181D"/>
<path d="M159.777 40.037L161.889 40.0372V37.9294L159.777 37.9295V40.037Z" fill="#FABC09"/>
<path d="M159.777 27.3928H161.889V25.2853H159.777V27.3928Z" fill="#F1511B"/>
<path d="M159.777 25.2853H161.889V23.1775L159.777 23.1776V25.2853Z" fill="#231F20"/>
<path d="M159.777 23.1776L161.889 23.1775V21.0705H159.777V23.1776Z" fill="#231F20"/>
<path d="M159.777 31.6077L161.889 31.6075V29.5L159.777 29.5V31.6077Z" fill="#C5181D"/>
<path d="M159.777 29.5L161.889 29.5L161.889 27.3928H159.777V29.5Z" fill="#C5181D"/>
<path d="M161.889 27.3928H164V25.2853H161.889V27.3928Z" fill="#231F20"/>
<path d="M161.889 29.5H164V27.3928H161.889L161.889 29.5Z" fill="#231F20"/>
<path d="M159.777 42.1449H161.889V40.0372L159.777 40.037L159.777 42.1449Z" fill="#FABC09"/>
<path d="M136.555 4.21159L138.667 4.2114L138.667 2.10365L136.555 2.10384L136.555 4.21159Z" fill="#231F20"/>
<path d="M144.999 4.21159H147.111L147.111 2.10365H144.999L144.999 4.21159Z" fill="#F1511B"/>
<path d="M147.111 4.21159H149.221V2.10365H147.111L147.111 4.21159Z" fill="#F1511B"/>
<path d="M149.222 4.2114H151.333L151.333 2.10365H149.222L149.222 4.2114Z" fill="#F1511B"/>
<path d="M151.332 4.21159H153.443L153.443 2.10365H151.332V4.21159Z" fill="#F1511B"/>
<path d="M153.443 4.21159H155.554V2.10384L153.443 2.10365L153.443 4.21159Z" fill="#231F20"/>
<path d="M138.667 4.2114L140.778 4.21159L140.778 2.10365H138.667L138.667 4.2114Z" fill="#F1511B"/>
<path d="M140.778 4.21159L142.889 4.2114V2.10365H140.778L140.778 4.21159Z" fill="#F1511B"/>
<path d="M142.888 4.21159H144.999L144.999 2.10365H142.888V4.21159Z" fill="#F1511B"/>
<path d="M159.777 77.9706H161.889V75.8636H159.777V77.9706Z" fill="#231F20"/>
<path d="M155.555 77.9706H157.666V75.8636H155.555V77.9706Z" fill="#231F20"/>
<path d="M157.666 77.9706H159.777V75.8636H157.666V77.9706Z" fill="#231F20"/>
<path d="M142.888 77.9706H144.999V75.8636H142.888V77.9706Z" fill="#231F20"/>
<path d="M144.999 77.9706H147.111V75.8636H144.999V77.9706Z" fill="#BF5F22"/>
<path d="M147.111 77.9706H149.221V75.8636H147.111V77.9706Z" fill="#231F20"/>
<path d="M157.666 75.8636H159.777L159.777 73.7558H157.666L157.666 75.8636Z" fill="#C5181D"/>
<path d="M159.777 75.8636H161.889V73.7558H159.777L159.777 75.8636Z" fill="#C5181D"/>
<path d="M155.555 75.8636H157.666L157.666 73.7558H155.555V75.8636Z" fill="#C5181D"/>
<path d="M161.889 75.8636L164 75.8634V73.7558H161.889V75.8636Z" fill="#231F20"/>
<path d="M153.443 75.8634H155.554V73.7558H153.443V75.8634Z" fill="#231F20"/>
<path d="M144.999 75.8636H147.111V73.7558H144.999L144.999 75.8636Z" fill="#BF5F22"/>
<path d="M147.111 75.8636H149.221V73.7558H147.111V75.8636Z" fill="#231F20"/>
<path d="M142.888 75.8636H144.999L144.999 73.7558H142.888V75.8636Z" fill="#231F20"/>
<path d="M142.888 67.4333V69.5414L144.999 69.5409V67.4333H142.888Z" fill="#231F20"/>
<path d="M147.111 69.5409H149.221V67.4333H147.111V69.5409Z" fill="#231F20"/>
<path d="M144.999 69.5409L147.111 69.5409V67.4333H144.999V69.5409Z" fill="#BF5F22"/>
<path d="M153.443 69.5409H155.554V67.4333H153.443V69.5409Z" fill="#231F20"/>
<path d="M157.666 69.5409H159.777V67.4333H157.666V69.5409Z" fill="#0994DC"/>
<path d="M159.777 69.5409H161.889V67.4333H159.777V69.5409Z" fill="#C5181D"/>
<path d="M155.555 69.5409H157.666V67.4333H155.555V69.5409Z" fill="#C5181D"/>
<path d="M161.889 69.5409H164V67.4333H161.889V69.5409Z" fill="#231F20"/>
<path d="M157.666 67.4333H159.777L159.777 65.3262H157.666V67.4333Z" fill="#0994DC"/>
<path d="M155.555 67.4333H157.666V65.3262H155.555V67.4333Z" fill="#C5181D"/>
<path d="M153.443 67.4333H155.554V65.3262H153.443V67.4333Z" fill="#231F20"/>
<path d="M159.777 67.4333H161.889V65.3262H159.777L159.777 67.4333Z" fill="#C5181D"/>
<path d="M161.889 67.4333H164V65.3262H161.889V67.4333Z" fill="#231F20"/>
<path d="M147.111 67.4333H149.221V65.3262H147.111V67.4333Z" fill="#231F20"/>
<path d="M144.999 67.4333H147.111V65.3262H144.999L144.999 67.4333Z" fill="#BF5F22"/>
<path d="M142.888 67.4333H144.999L144.999 65.3262H142.888V67.4333Z" fill="#231F20"/>
<path d="M153.443 73.7564H155.554V71.6488H153.443V73.7564Z" fill="#231F20"/>
<path d="M142.888 73.7564H144.999V71.6488H142.888V73.7564Z" fill="#231F20"/>
<path d="M144.999 73.7564H147.111V71.6488H144.999V73.7564Z" fill="#BF5F22"/>
<path d="M147.111 73.7564H149.221V71.6488H147.111V73.7564Z" fill="#231F20"/>
<path d="M161.889 73.7564H164V71.6488H161.889V73.7564Z" fill="#231F20"/>
<path d="M155.555 73.7564H157.666V71.6488H155.555V73.7564Z" fill="#C5181D"/>
<path d="M157.666 73.7564H159.777V71.6488H157.666V73.7564Z" fill="#0994DC"/>
<path d="M159.777 73.7564H161.889V71.6488H159.777V73.7564Z" fill="#C5181D"/>
<path d="M147.111 71.6488H149.221V69.5409H147.111L147.111 71.6488Z" fill="#231F20"/>
<path d="M142.888 69.5414V71.6488H144.999V69.5409L142.888 69.5414Z" fill="#231F20"/>
<path d="M144.999 71.6488H147.111L147.111 69.5409L144.999 69.5409V71.6488Z" fill="#BF5F22"/>
<path d="M157.666 71.6488H159.777V69.5409H157.666L157.666 71.6488Z" fill="#0994DC"/>
<path d="M153.443 71.6488H155.554V69.5409H153.443V71.6488Z" fill="#231F20"/>
<path d="M159.777 71.6488H161.889L161.889 69.5409H159.777V71.6488Z" fill="#C5181D"/>
<path d="M161.889 71.6488H164V69.5409H161.889L161.889 71.6488Z" fill="#231F20"/>
<path d="M155.555 71.6488H157.666L157.666 69.5409H155.555V71.6488Z" fill="#C5181D"/>
</svg>
