<svg width="250" height="74" viewBox="0 0 250 74" fill="none" xmlns="http://www.w3.org/2000/svg">
<rect x="5" y="5.94922" width="241.251" height="62.478" fill="#3F3F3F"/>
<path d="M245.033 60.5751V64.356H250.001V60.5751V11.4074V7.62793H245.033V11.4074V60.5751Z" fill="#3F3F3F"/>
<path d="M246.932 3.7666H241.965V9.67827H246.932V3.7666Z" fill="#3F3F3F"/>
<path d="M247.5 62.4756H241.25V69.9134H247.5V62.4756Z" fill="#3F3F3F"/>
<path d="M22.9742 5.90971H31.3975H39.8242H48.2408H56.6675H65.0841H73.5108H81.9342H90.3541H98.7775H107.204H115.621H124.047H132.467H140.891H149.314H157.734H166.157H174.584H183.004H191.427H199.847H208.271H216.694H225.114H233.537H241.964V-0.00195312H233.537H225.114H216.694H208.271H199.847H191.427H183.004H174.584H166.157H157.734H149.314H140.891H132.467H124.047H115.621H107.204H98.7775H90.3541H81.9342H73.5108H65.0841H56.6675H48.2408H39.8242H31.3975H22.9742H14.5542H6.13086V5.90971H14.5542H22.9742Z" fill="#3F3F3F"/>
<path d="M22.9742 73.9165H31.3975H39.8242H48.2408H56.6675H65.0841H73.5108H81.9342H90.3541H98.7775H107.204H115.621H124.047H132.467H140.891H149.314H157.734H166.157H174.584H183.004H191.427H199.847H208.271H216.694H225.114H233.537H241.964V68.0049H233.537H225.114H216.694H208.271H199.847H191.427H183.004H174.584H166.157H157.734H149.314H140.891H132.467H124.047H115.621H107.204H98.7775H90.3541H81.9342H73.5108H65.0841H56.6675H48.2408H39.8242H31.3975H22.9742H14.5542H6.13086V73.9165H14.5542H22.9742Z" fill="#3F3F3F"/>
<path d="M7.50002 63.9629H2.5V69.9132H7.50002V63.9629Z" fill="#3F3F3F"/>
<path d="M7.45389 2.95605H2.48633V8.86772H7.45389V2.95605Z" fill="#3F3F3F"/>
<path d="M4.96756 11.3853V7.62793H0V11.3853V60.2654V64.0243H4.96756V60.2654V11.3853Z" fill="#3F3F3F"/>
</svg>
