<svg width="54" height="50" viewBox="0 0 54 50" fill="none" xmlns="http://www.w3.org/2000/svg">
<path d="M44.6213 43.3318H42.8419V44.9989H44.6213V43.3318Z" fill="#F2A317"/>
<path d="M44.6215 39.9985H46.407V38.3308L44.6215 38.3337V39.9985Z" fill="#F2A317"/>
<path d="M8.92427 23.3321H10.7085V21.664L8.9198 21.6672L8.92427 23.3321Z" fill="#FAF1CE"/>
<path d="M51.7616 16.6665H49.9825L48.1906 16.6649L46.4067 16.6665V18.3314V35.0011H44.6212L44.6215 38.3337L46.407 38.3308V39.9985H44.6215V38.3337L42.8373 38.3338L42.8418 39.9986H41.0518V41.6664H39.2679V44.9962L37.4824 44.9991L35.6969 44.9962V46.664H33.913V48.3289L32.1275 48.3301H30.3436L30.3468 49.9934L32.1275 49.9966H35.6969L37.4824 49.9998V48.3301L39.2679 48.3289L41.0518 48.3301V46.664H42.8373L42.8419 44.9989L42.8418 43.3329L44.6212 43.3313L44.6213 44.9989L46.4067 44.9991V41.6664H48.1906V39.9986H49.9761V36.666H51.7616V33.3333H53.5455V23.3321L53.541 21.6672L53.5455 19.9991V16.6665H51.7616Z" fill="#F2A317"/>
<path d="M33.913 48.29V48.3289L30.3436 48.3301L30.3468 49.9934L37.4824 49.9998V48.3301H41.0518V48.2884L33.913 48.29Z" fill="black"/>
<path d="M42.8419 13.3309L44.6213 13.3338V11.6676H42.8419V13.3309Z" fill="white"/>
<path d="M42.8374 16.6666L42.8419 14.9988L42.8419 13.3309V11.6676L41.0516 11.6649V10.0016H39.2677L39.2722 8.3322L37.4819 8.3338V6.66732L35.6964 6.67052V4.99954H33.9125V3.33625L32.127 3.33465L30.3431 3.33625L30.346 1.66657L28.5512 1.66977H23.2023L19.6374 1.66368L16.0632 1.66977V3.33625L12.4922 3.33465V5.00083L10.7067 4.99923V6.667H8.92279V8.33349L7.13728 8.33189V10.0013H5.35338V13.3339H3.56788L3.56339 14.9988L3.56788 16.6666H1.78396V33.3331H3.56788L3.56339 34.9977V36.6658L5.35338 36.6626V39.9984H7.13728V41.6662L8.92279 41.6633L8.91831 43.3327H10.707V44.996L12.4925 44.9989L12.4986 46.6638H16.0632V48.3303L28.5569 48.3287L30.3424 48.3303L30.3453 46.6638H33.9115V44.9989L35.6954 44.996V43.3311H37.4809V41.6662H39.2664V39.9984H41.0503V38.3275L42.8358 38.3335L42.8403 36.6658V34.9948L44.6197 35.0009V16.6666H42.8374ZM8.92406 18.3347V14.9988H10.708V13.3339H12.4935L12.4996 11.6645H14.2786V10.0013H16.0642V8.33349L23.203 8.33189L30.3434 8.33349L30.3463 9.99966L32.127 10.0013V11.669L33.9125 11.6645V13.3339H35.6964V14.9988H37.4819V18.3347H39.2674V28.3359L39.2719 29.9976L39.2674 31.6653H37.4819V34.998H35.6964V36.6661L33.9125 36.669V38.3339H32.127V39.9988H30.3463V41.6636L28.5576 41.6665H26.7737L24.9882 41.6636L23.1982 41.6665H21.4175L19.638 41.6636L17.8477 41.6665H16.0638V39.9988H14.2783V38.3339L12.4928 38.331V36.6661H10.7073V34.998H8.91863L8.9231 33.3334V31.6653H7.1376V18.3347H8.92406Z" fill="#FDCD00"/>
<path d="M12.4937 16.6665H10.7082V19.9991L10.7085 21.664V23.3321L10.705 24.9999L10.7082 26.6648V28.3357L10.705 30.0003H12.4937V33.3333H14.2789V34.9979H16.0644V36.666H19.6386V38.3309H28.5581V36.666H32.1275V34.9979L33.913 34.995V33.3333H35.697V29.9974H37.4825V19.9991H35.697V14.9987L33.907 15.0019L33.913 13.3338H32.1275V11.6692L30.3436 11.6676H28.5581V10.0011L24.9935 9.99955L23.1987 10.0044H21.4177L19.6338 10.0011H17.8483V11.6644L16.0644 11.6676L14.2786 11.6645L14.2789 13.3338L12.4935 13.3339L12.4937 14.9987V16.6665Z" fill="#FDCD00"/>
<path d="M49.9764 11.6677V10.0012L49.9828 8.33181L48.1909 8.33341V10.0012L44.6215 9.99959L44.6213 11.6676V13.3338L44.6215 14.9987H46.407V13.3338H49.9764V15.0019L49.9825 16.6665H51.7616L51.7619 11.6645L49.9764 11.6677Z" fill="#F2A317"/>
<path d="M46.4067 6.66693V5.00076L42.8418 4.99916V3.33427H41.0518V1.6697H37.4824V0.00160119L33.913 0L30.3436 0.00160119L30.3468 1.6665H32.1275L33.913 1.6697V3.33587L35.6969 3.33427V4.99916H37.4824V6.66693H39.2679L39.2727 8.33182L42.8418 8.33342L44.6212 8.33182L46.4067 8.33342L48.1909 8.33341L48.1906 6.66693H46.4067Z" fill="#F2A317"/>
<path d="M49.9764 11.6677V10.0012L49.9828 8.33181L48.1909 8.33341V10.0012L44.6215 9.99959L44.6213 11.6676V13.3338L44.6215 14.9987H46.407V13.3338H49.9764V15.0019L49.9825 16.6665H51.7616L51.7619 11.6645L49.9764 11.6677Z" fill="#F2A317"/>
<path d="M49.9764 11.6677V10.0012L49.9828 8.33181L48.1909 8.33341V10.0012L48.1907 11.6645L49.9764 11.6677V13.3338V15.0019L49.9825 16.6665H51.7616L51.7619 11.6645L49.9764 11.6677Z" fill="black"/>
<path d="M42.8426 3.33422H41.0523V4.99911H42.8426V3.33422Z" fill="black"/>
<path d="M42.8375 6.67013L44.6214 6.66692L46.4067 6.66693V5.00076L42.8418 4.99916L42.8375 6.67013Z" fill="black"/>
<path d="M41.0518 3.33427V1.6697H37.4824L37.4825 3.33579L41.0518 3.33427Z" fill="black"/>
<path d="M48.1906 6.66693H46.4067V8.33342L48.1909 8.33341L48.1906 6.66693Z" fill="black"/>
<path d="M32.1275 1.6697V1.6665L33.913 1.6697L35.6969 1.6665L37.4824 1.6697V0.00160119L33.913 0L30.3436 0.00160119L30.3468 1.6665L32.1275 1.6697Z" fill="black"/>
<path d="M30.3436 48.3301H32.1275L32.123 48.33L30.3436 48.3301Z" fill="black"/>
<path d="M44.6215 38.3337L42.8373 38.3338L42.8418 39.9986L44.6215 39.9985V38.3337Z" fill="black"/>
<path d="M51.7616 16.6665V33.3333H53.5455V23.3321L53.541 21.6672L53.5455 19.9991V16.6665H51.7616Z" fill="black"/>
<path d="M44.6215 41.6662L44.6213 44.9989L46.407 44.9989V41.6662H44.6215Z" fill="black"/>
<path d="M48.1906 39.9986L46.407 39.9985L46.4067 41.6664H48.1906V39.9986Z" fill="black"/>
<path d="M49.9826 33.3332V34.9949L49.9761 36.666L48.1907 36.6658L48.1906 39.9986H49.9761V36.666H51.7616V33.3333L49.9826 33.3332Z" fill="black"/>
<path d="M37.4828 48.33H35.6973V49.9965L37.4828 49.9997V48.33Z" fill="black"/>
<path d="M42.8423 44.9989V43.3327H41.0523V46.6638H42.8378L42.8423 44.9989Z" fill="black"/>
<path d="M41.0523 46.6638L39.2684 46.6638V48.3294H41.0523L41.0523 46.6638Z" fill="black"/>
<path d="M30.3474 46.6641L30.3442 48.3303L28.5587 48.329L16.065 48.3303V49.9968H19.6392L21.4183 50H23.1993L24.9893 49.9968L26.7748 50H28.5587L30.3474 49.9936L30.3442 48.3303L33.9136 48.329V46.6641H30.3474Z" fill="black"/>
<path d="M33.9136 46.6641L35.6973 46.6642L35.6973 44.9961L33.9134 44.9993L33.9136 46.6641Z" fill="black"/>
<path d="M37.4828 43.3314H35.6973V44.9961L37.4828 44.999L39.2683 44.9963V41.6665H37.4828V43.3314Z" fill="black"/>
<path d="M41.0523 39.9988H39.2684L39.2683 41.6665L41.0523 41.6666V39.9988Z" fill="black"/>
<path d="M41.0523 39.9988L42.8423 39.9986L42.8378 38.3337L41.0523 38.3276L41.0523 39.9988Z" fill="black"/>
<path d="M42.842 36.666L42.8378 38.3337L44.6215 38.3337L44.6212 35.0011L42.842 34.995V36.666Z" fill="black"/>
<path d="M44.6215 18.3346L44.6212 35.0011H46.4067V18.3314L44.6215 18.3346Z" fill="black"/>
<path d="M42.8419 14.9988L42.8374 16.6666L44.6214 16.6665L44.6215 14.9987L44.6213 13.3338L42.8419 13.3309L42.8419 14.9988Z" fill="black"/>
<path d="M42.8423 11.6676V10.0011H41.0523V11.6644L42.8423 11.6676Z" fill="black"/>
<path d="M32.1281 38.331L33.9136 38.3339V36.669L32.1281 36.6662V38.331Z" fill="black"/>
<path d="M35.697 19.9991H37.4825V29.9974H35.697V33.3333H33.913V34.995L33.9134 36.6688L35.6973 36.666V34.9979H37.4828V31.6652H39.2683L39.2731 29.9974L39.2683 28.3357V18.3346H37.4828V14.9987H35.697V19.9991Z" fill="black"/>
<path d="M35.697 14.9987L35.6971 13.3338L33.913 13.3338L33.907 15.0019L35.697 14.9987Z" fill="black"/>
<path d="M33.9131 11.6645H32.1231V13.3338L33.913 13.3338L33.9131 11.6645Z" fill="black"/>
<path d="M41.0523 10.0011L41.0523 8.33181H39.2731L39.2684 10.0012L41.0523 10.0011Z" fill="black"/>
<path d="M39.2727 8.33182L39.2679 6.66693H37.4824L37.4825 8.33337L39.2727 8.33182Z" fill="black"/>
<path d="M37.4828 6.66692V4.99915H35.6973V6.67013L37.4828 6.66692Z" fill="black"/>
<path d="M35.6973 3.33516H33.9134V4.99909L35.6973 4.99915L35.6973 3.33516Z" fill="black"/>
<path d="M30.3442 3.33586L32.1281 3.33426L33.9136 3.33586V1.66969L32.1281 1.66649H30.3474L30.3442 3.33586Z" fill="black"/>
<path d="M12.5 46.6641L12.494 48.3303H16.0647V46.6641H12.5Z" fill="black"/>
<path d="M10.7088 44.9964V46.6642L12.5 46.6641L12.4943 44.9993L10.7088 44.9964Z" fill="black"/>
<path d="M8.91966 43.3328L8.92413 41.6634L7.13896 41.6663V44.9961L8.92413 44.999L10.7084 44.9961V43.3328H8.91966Z" fill="black"/>
<path d="M5.355 39.9988V41.6637L7.13924 41.6666V39.9988H5.355Z" fill="black"/>
<path d="M17.8486 41.6663L19.6389 41.6634L21.418 41.6663H23.199L24.989 41.6634L26.7745 41.6663H28.5584L30.3471 41.6634V39.9985L32.1278 39.9953V38.3308L30.3471 38.3337L28.5581 38.3309L28.5584 39.9985L26.7745 39.9953L24.989 39.9985H21.418L19.6389 39.9953L17.8486 39.9985V38.3337H14.2792V39.9985H16.0647V41.6663H17.8486Z" fill="black"/>
<path d="M12.494 36.6662V38.331L14.2792 38.3337L14.2792 36.6662H12.494Z" fill="black"/>
<path d="M5.35477 36.6627L3.5648 36.6659L3.56927 38.3337V39.9986H5.35477V36.6627Z" fill="black"/>
<path d="M3.56911 33.3335H1.78521V36.6662L3.5648 36.6659L3.56464 34.9981L3.56911 33.3335Z" fill="black"/>
<path d="M1.7855 18.3345H0V31.6651H1.7855V18.3345Z" fill="black"/>
<path d="M12.4937 33.3333L10.7084 33.3333V31.6652L10.705 30.0003L8.91966 30.0003L8.92413 28.3325L8.92427 23.3321L8.9198 21.6672L8.92413 19.9978L10.7082 19.9991V16.6665H12.4937V14.9987L12.4939 13.3338H10.7084V14.9987L8.92406 14.9988V18.3347L7.13896 18.3345V31.6652H8.92413V33.3333L8.91966 34.9978H10.7084V36.6659L12.494 36.6662L12.4937 33.3333Z" fill="black"/>
<path d="M3.56464 14.9987L3.56911 13.3338H1.78521V16.6664H3.56911L3.56464 14.9987Z" fill="black"/>
<path d="M14.2792 11.6645H12.5L12.4939 13.3338L14.2789 13.3338L14.2792 11.6645Z" fill="black"/>
<path d="M5.35467 10.0011L3.56917 9.99955L3.56911 13.3338L5.35467 13.3338V10.0011Z" fill="black"/>
<path d="M17.8483 11.6644V10.0011H19.6338L21.4177 10.0044H23.1987L24.9935 9.99955L28.5581 10.0011V11.6676H30.3436L32.1231 11.6645L32.1278 10.0012L30.3471 9.99959L30.3439 8.33341L23.2035 8.33181L16.0647 8.33341V10.0012H14.2792L14.2792 11.6645L16.0644 11.6676L17.8483 11.6644Z" fill="black"/>
<path d="M7.1389 8.33275H5.355V10.0015H7.1389V8.33275Z" fill="black"/>
<path d="M8.92447 6.66689H7.13896V8.33242H8.92447V6.66689Z" fill="black"/>
<path d="M10.7081 4.99977H8.92417L8.92447 6.66689L10.7081 6.6669V4.99977Z" fill="black"/>
<path d="M12.4943 3.33422L10.7088 3.33582V4.99911L12.4943 5.00071V3.33422Z" fill="black"/>
<path d="M16.0647 3.33586V1.66969L14.2792 1.66649L12.494 1.66969L12.4943 3.33422L16.0647 3.33586Z" fill="black"/>
<path d="M19.6392 1.66329L23.2038 1.6697H28.5527L30.3474 1.66649L30.3442 0.00160119L28.5587 0H23.2038L16.065 0.00160119V1.6697L19.6392 1.66329Z" fill="black"/>
<path d="M46.407 13.3338V14.9987H44.6215L44.6214 16.6665L44.6215 18.3346L46.4067 18.3314V16.6665L48.1906 16.6649L49.9825 16.6665L49.9764 15.0019V13.3338H46.407Z" fill="white"/>
<path d="M44.6217 8.33181L42.8423 8.33341L41.0523 8.33181L41.0523 10.0011H42.8423V11.6676L44.6217 11.6677L44.6215 9.99959L48.1909 10.0012V8.33341L44.6217 8.33181Z" fill="white"/>
<path d="M19.6386 38.3309V36.666H16.0644V34.9979H14.2789V33.3333H12.4937L12.494 36.6662H14.2792L14.2792 38.3337H17.8486V39.9985L19.6389 39.9953L21.418 39.9985H24.989L26.7745 39.9953L28.5584 39.9985L28.5581 38.3309H19.6386Z" fill="white"/>
<path d="M28.5581 36.666V38.3309L30.3471 38.3337L32.1278 38.3339L32.1275 36.666H28.5581Z" fill="white"/>
<path d="M32.1275 36.666L33.913 36.6688L33.913 34.995L32.1275 34.9979V36.666Z" fill="white"/>
<path d="M12.4937 30.0003H10.705L10.7084 31.6652V33.3333L12.4937 33.3333V30.0003Z" fill="white"/>
<path d="M10.7082 26.6648L10.705 24.9999L10.7085 23.3321H8.92427L8.92413 28.3325L8.91966 30.0003L10.705 30.0003L10.7082 28.3357V26.6648Z" fill="white"/>
<path d="M10.7082 19.9991L8.92413 19.9978L8.9198 21.6672L10.7085 21.664L10.7082 19.9991Z" fill="white"/>
</svg>
