<svg width="1365" height="331" viewBox="0 0 1365 331" fill="none" xmlns="http://www.w3.org/2000/svg">
<rect x="17.2266" y="9.11035" width="1328.96" height="312.78" fill="white"/>
<path d="M1346.19 293.754V313.387H1365V293.754V38.4519V18.8271H1346.19V38.4519V293.754Z" fill="#3F3F3F"/>
<path d="M1346.34 9.18555H1328.55V18.3749H1346.34V9.18555Z" fill="#3F3F3F"/>
<path d="M1346.34 313.416H1328.55V322.605H1346.34V313.416Z" fill="#3F3F3F"/>
<path d="M126.546 9.11009H172.781H219.034H265.232H311.485H357.682H403.935H450.17H496.386H542.621H588.874H635.071H681.324H727.54H773.775H820.01H866.226H912.46H958.713H1004.93H1051.16H1097.38H1143.61H1189.85H1236.07H1282.3H1328.55V0H1282.3H1236.07H1189.85H1143.61H1097.38H1051.16H1004.93H958.713H912.46H866.226H820.01H773.775H727.54H681.324H635.071H588.874H542.621H496.386H450.17H403.935H357.682H311.485H265.232H219.034H172.781H126.546H80.3303H34.0957V9.11009H80.3303H126.546Z" fill="#3F3F3F"/>
<path d="M126.546 331H172.781H219.034H265.232H311.485H357.682H403.935H450.17H496.386H542.621H588.874H635.071H681.324H727.54H773.775H820.01H866.226H912.46H958.713H1004.93H1051.16H1097.38H1143.61H1189.85H1236.07H1282.3H1328.55V322.497H1282.3H1236.07H1189.85H1143.61H1097.38H1051.16H1004.93H958.713H912.46H866.226H820.01H773.775H727.54H681.324H635.071H588.874H542.621H496.386H450.17H403.935H357.682H311.485H265.232H219.034H172.781H126.546H80.3303H34.0957V331H80.3303H126.546Z" fill="#3F3F3F"/>
<path d="M35.0156 312.779H17.2266V321.965H35.0156V312.779Z" fill="#3F3F3F"/>
<path d="M35.0156 9.18555H17.2266V18.3749H35.0156V9.18555Z" fill="#3F3F3F"/>
<path d="M17.6357 38.4114V18.8271H0V38.4114V293.187V312.779H17.6357V293.187V38.4114Z" fill="#3F3F3F"/>
</svg>
