<svg width="236" height="108" viewBox="0 0 236 108" fill="none" xmlns="http://www.w3.org/2000/svg">
<path d="M184.697 41.1425V46.2841H179.567V41.1425H184.697Z" fill="white"/>
<path d="M200.082 51.4247V56.5753H194.953V51.4247H200.082Z" fill="white"/>
<path d="M97.4736 25.7123V30.863H92.3442V25.7123H97.4736Z" fill="white"/>
<path d="M92.342 30.8635V36.0005H87.2125V30.8635H92.342Z" fill="white"/>
<path d="M117.994 5.15112V10.2882H112.864V5.15112H117.994Z" fill="white"/>
<path d="M236 92.5671V97.7087H230.861V92.5671H236Z" fill="#CEE0E0"/>
<path d="M236 87.4255V92.5671H230.861V87.4255H236Z" fill="#CEE0E0"/>
<path d="M230.862 92.5671V97.7087H225.733V92.5671H230.862Z" fill="#CEE0E0"/>
<path d="M230.862 87.4255V92.5671H225.733V87.4255H230.862Z" fill="#CEE0E0"/>
<path d="M230.862 82.2881V87.4255H225.733V82.2881H230.862Z" fill="#F2F2F2"/>
<path d="M225.734 92.5671V97.7087H220.604V92.5671H225.734Z" fill="#CEE0E0"/>
<path d="M225.734 87.4255V92.5671H220.604V87.4255H225.734Z" fill="#CEE0E0"/>
<path d="M225.734 82.2881V87.4255H220.604V82.2881H225.734Z" fill="#F2F2F2"/>
<path d="M220.604 92.5671V97.7087L215.479 97.7088V92.5672L220.604 92.5671Z" fill="#CEE0E0"/>
<path d="M220.604 87.4255V92.5671L215.479 92.5672L215.479 87.4255H220.604Z" fill="#CEE0E0"/>
<path d="M220.604 82.2881L220.604 87.425L215.479 87.4255L215.479 82.288L220.604 82.2881Z" fill="#F2F2F2"/>
<path d="M220.604 77.137V82.2877L215.479 82.288L215.479 77.137H220.604Z" fill="#F2F2F2"/>
<path d="M215.477 92.5672V97.7088H210.348V92.5672H215.477Z" fill="#CEE0E0"/>
<path d="M215.477 87.4255L215.477 92.5672H210.348L210.348 87.4255H215.477Z" fill="#CEE0E0"/>
<path d="M215.477 82.288L215.477 87.4255H210.348L210.348 82.288H215.477Z" fill="#F2F2F2"/>
<path d="M215.477 77.137L215.477 82.288H210.348L210.348 77.137H215.477Z" fill="#F2F2F2"/>
<path d="M215.477 71.9954V77.137H210.348V71.9954H215.477Z" fill="#F2F2F2"/>
<path d="M210.348 92.5672V97.7088L205.209 97.7087V92.5671L210.348 92.5672Z" fill="#CEE0E0"/>
<path d="M210.348 87.4255L210.348 92.5672L205.209 92.5671V87.4255H210.348Z" fill="#CEE0E0"/>
<path d="M210.348 82.288L210.347 87.4252L205.209 87.4255V82.2881L210.348 82.288Z" fill="#CEE0E0"/>
<path d="M210.348 77.137L210.348 82.288L205.209 82.2881V77.137H210.348Z" fill="#F2F2F2"/>
<path d="M210.348 71.9954V77.137H205.209V71.9954H210.348Z" fill="#F2F2F2"/>
<path d="M210.347 66.8548V71.9964H205.209V66.8548H210.347Z" fill="#F2F2F2"/>
<path d="M205.211 97.7077V102.849H200.081V97.7077H205.211Z" fill="#CEE0E0"/>
<path d="M205.211 92.5671V97.7087H200.081V92.5671H205.211Z" fill="#CEE0E0"/>
<path d="M205.211 87.4255V92.5671H200.081V87.4255H205.211Z" fill="#CEE0E0"/>
<path d="M205.211 82.2881V87.4255H200.081V82.2881H205.211Z" fill="#CEE0E0"/>
<path d="M205.211 77.137V82.2881H200.081V77.137H205.211Z" fill="#F2F2F2"/>
<path d="M205.211 71.9954V77.137H200.081V71.9954H205.211Z" fill="#F2F2F2"/>
<path d="M205.211 66.8548V71.9964H200.081V66.8548H205.211Z" fill="#CEE0E0"/>
<path d="M200.082 102.849V108H194.953V102.849H200.082Z" fill="#CEE0E0"/>
<path d="M200.082 97.7077V102.849H194.953V97.7077H200.082Z" fill="#CEE0E0"/>
<path d="M200.082 92.5671V97.7087H194.953V92.5671H200.082Z" fill="#CEE0E0"/>
<path d="M200.082 87.4255V92.5671H194.953V87.4255H200.082Z" fill="#CEE0E0"/>
<path d="M200.082 82.2881V87.4255H194.953V82.2881H200.082Z" fill="#CEE0E0"/>
<path d="M200.082 77.137V82.2881H194.953V77.137H200.082Z" fill="#CEE0E0"/>
<path d="M200.082 71.9954V77.137H194.953V71.9954H200.082Z" fill="#CEE0E0"/>
<path d="M200.082 66.8548V71.9964H194.953V66.8548H200.082Z" fill="#CEE0E0"/>
<path d="M200.082 61.7174V66.8548H194.953V61.7174H200.082Z" fill="#F2F2F2"/>
<path d="M200.082 56.5753V61.7174H194.953V56.5753H200.082Z" fill="white"/>
<path d="M194.95 102.849V108H189.821V102.849H194.95Z" fill="#CEE0E0"/>
<path d="M194.95 97.7077V102.849H189.821V97.7077H194.95Z" fill="#CEE0E0"/>
<path d="M194.95 92.5671V97.7087H189.821V92.5671H194.95Z" fill="#CEE0E0"/>
<path d="M194.95 87.4255V92.5671H189.821V87.4255H194.95Z" fill="#CEE0E0"/>
<path d="M194.95 82.2881V87.4255H189.821V82.2881H194.95Z" fill="#CEE0E0"/>
<path d="M194.95 77.137V82.2881H189.821V77.137H194.95Z" fill="#CEE0E0"/>
<path d="M194.95 71.9954V77.137H189.821V71.9954H194.95Z" fill="#CEE0E0"/>
<path d="M194.95 66.8548V71.9964H189.821V66.8548H194.95Z" fill="#CEE0E0"/>
<path d="M194.95 61.7174V66.8548H189.821V61.7174H194.95Z" fill="#CEE0E0"/>
<path d="M194.95 56.5758V61.7174H189.821V56.5758H194.95Z" fill="#F2F2F2"/>
<path d="M194.95 51.4247V56.5758H189.821V51.4247H194.95Z" fill="white"/>
<path d="M194.95 46.283V51.4247H189.821V46.283H194.95Z" fill="white"/>
<path d="M189.821 102.849V108H184.696V102.849H189.821Z" fill="#CEE0E0"/>
<path d="M189.821 97.7077V102.849H184.696V97.7077H189.821Z" fill="#CEE0E0"/>
<path d="M189.821 92.5671V97.7087H184.696V92.5671H189.821Z" fill="#CEE0E0"/>
<path d="M189.821 87.4255V92.5671H184.696V87.4255H189.821Z" fill="#CEE0E0"/>
<path d="M189.821 82.2881V87.4255H184.696V82.2881H189.821Z" fill="#CEE0E0"/>
<path d="M189.821 77.137L189.821 82.2877L184.696 82.2881V77.137H189.821Z" fill="#F2F2F2"/>
<path d="M189.821 71.9954V77.137H184.696V71.9954H189.821Z" fill="#F2F2F2"/>
<path d="M189.821 66.8548V71.9964H184.696V66.8548H189.821Z" fill="#F2F2F2"/>
<path d="M189.821 61.7174V66.8548H184.696V61.7174H189.821Z" fill="#F2F2F2"/>
<path d="M189.821 56.5758V61.7174H184.696V56.5758H189.821Z" fill="#F2F2F2"/>
<path d="M189.821 51.4247L189.821 56.5753L184.696 56.5758V51.4247H189.821Z" fill="#F2F2F2"/>
<path d="M189.821 46.283V51.4247H184.696V46.283H189.821Z" fill="white"/>
<path d="M184.697 102.849V108H179.567V102.849H184.697Z" fill="#CEE0E0"/>
<path d="M184.697 97.7076L184.697 102.849H179.567L179.567 97.7076H184.697Z" fill="#CEE0E0"/>
<path d="M184.697 92.5672V97.7088H179.567V92.5672H184.697Z" fill="#CEE0E0"/>
<path d="M184.697 87.4255L184.697 92.5672H179.567L179.567 87.4255H184.697Z" fill="#CEE0E0"/>
<path d="M184.697 82.288L184.697 87.4255H179.567L179.567 82.288H184.697Z" fill="#CEE0E0"/>
<path d="M184.697 77.137L184.697 82.288H179.567L179.567 77.137H184.697Z" fill="#F2F2F2"/>
<path d="M184.697 71.9954V77.137H179.567V71.9954H184.697Z" fill="#F2F2F2"/>
<path d="M184.697 66.8548V71.9963H179.567V66.8548H184.697Z" fill="#F2F2F2"/>
<path d="M184.697 61.7174L184.697 66.8548H179.567L179.567 61.7174H184.697Z" fill="#F2F2F2"/>
<path d="M184.697 56.5758V61.7174H179.567V56.5758H184.697Z" fill="#F2F2F2"/>
<path d="M184.697 51.4247V56.5758H179.567V51.4247H184.697Z" fill="#F2F2F2"/>
<path d="M184.697 46.283V51.4247H179.567V46.283H184.697Z" fill="white"/>
<path d="M179.567 97.7076L179.567 102.849L174.428 102.849V97.7077L179.567 97.7076Z" fill="#CEE0E0"/>
<path d="M179.567 92.5672V97.7088L174.428 97.7087V92.5671L179.567 92.5672Z" fill="#CEE0E0"/>
<path d="M179.567 87.4255L179.567 92.5672L174.428 92.5671V87.4255H179.567Z" fill="#CEE0E0"/>
<path d="M179.567 82.288L179.567 87.4252L174.428 87.4255V82.2881L179.567 82.288Z" fill="#F2F2F2"/>
<path d="M179.567 77.137L179.567 82.2877L174.428 82.2881V77.137H179.567Z" fill="#F2F2F2"/>
<path d="M179.567 71.9954V77.137H174.428V71.9954H179.567Z" fill="#F2F2F2"/>
<path d="M179.567 66.8548V71.9963L174.428 71.9964V66.8548L179.567 66.8548Z" fill="#F2F2F2"/>
<path d="M179.567 61.7174L179.567 66.8548L174.428 66.8548V61.7174H179.567Z" fill="#F2F2F2"/>
<path d="M179.567 56.5758V61.7174H174.428V56.5758H179.567Z" fill="#F2F2F2"/>
<path d="M179.567 51.4247L179.567 56.5753L174.428 56.5758V51.4247H179.567Z" fill="#CEE0E0"/>
<path d="M179.567 46.283V51.4247H174.428V46.283H179.567Z" fill="#CEE0E0"/>
<path d="M179.567 41.1425V46.2841H174.428V41.1425H179.567Z" fill="white"/>
<path d="M179.567 35.9998V41.1414H174.428V35.9998H179.567Z" fill="white"/>
<path d="M179.567 30.8635V36.0005H174.428V30.8635H179.567Z" fill="white"/>
<path d="M179.567 25.7123V30.8635H174.428V25.7123H179.567Z" fill="white"/>
<path d="M179.567 20.5707V25.7123H174.428V20.5707H179.567Z" fill="white"/>
<path d="M179.567 15.4301V20.5717H174.428V15.4301H179.567Z" fill="white"/>
<path d="M174.43 92.5671V97.7087H169.301V92.5671H174.43Z" fill="#CEE0E0"/>
<path d="M174.43 87.4255V92.5671H169.301V87.4255H174.43Z" fill="#CEE0E0"/>
<path d="M174.43 82.2881V87.4255H169.301V82.2881H174.43Z" fill="#F2F2F2"/>
<path d="M174.43 77.137V82.2881H169.301V77.137H174.43Z" fill="#F2F2F2"/>
<path d="M174.43 71.9954V77.137H169.301V71.9954H174.43Z" fill="#F2F2F2"/>
<path d="M174.43 66.8548V71.9964H169.301V66.8548H174.43Z" fill="#F2F2F2"/>
<path d="M174.43 61.7174V66.8548H169.301V61.7174H174.43Z" fill="#F2F2F2"/>
<path d="M174.43 56.5758V61.7174H169.301V56.5758H174.43Z" fill="#F2F2F2"/>
<path d="M174.43 51.4247V56.5758H169.301V51.4247H174.43Z" fill="#CEE0E0"/>
<path d="M174.43 46.283V51.4247H169.301V46.283H174.43Z" fill="#F2F2F2"/>
<path d="M174.43 41.1425V46.2841H169.301V41.1425H174.43Z" fill="#F2F2F2"/>
<path d="M174.43 35.9998V41.1414H169.301V35.9998H174.43Z" fill="#F2F2F2"/>
<path d="M174.43 30.8635V36.0005H169.301V30.8635H174.43Z" fill="#F2F2F2"/>
<path d="M174.43 25.7123V30.8635H169.301V25.7123H174.43Z" fill="#F2F2F2"/>
<path d="M174.43 20.5707V25.7123H169.301V20.5707H174.43Z" fill="#F2F2F2"/>
<path d="M174.43 15.4301V20.5717H169.301V15.4301H174.43Z" fill="white"/>
<path d="M174.43 10.2875V15.429H169.301V10.2875H174.43Z" fill="white"/>
<path d="M169.301 92.5671V97.7087H164.175V92.5671H169.301Z" fill="#CEE0E0"/>
<path d="M169.301 87.4255V92.5671H164.175V87.4255H169.301Z" fill="#CEE0E0"/>
<path d="M169.301 82.2881V87.4255H164.175V82.2881H169.301Z" fill="#CEE0E0"/>
<path d="M169.301 77.137L169.3 82.2877L164.175 82.2881V77.137H169.301Z" fill="#F2F2F2"/>
<path d="M169.301 71.9954V77.137H164.175V71.9954H169.301Z" fill="#F2F2F2"/>
<path d="M169.301 66.8548V71.9964H164.175V66.8548H169.301Z" fill="#F2F2F2"/>
<path d="M169.301 61.7174V66.8548H164.175V61.7174H169.301Z" fill="#F2F2F2"/>
<path d="M169.301 56.5758V61.7174H164.175V56.5758H169.301Z" fill="#CEE0E0"/>
<path d="M169.301 51.4247L169.3 56.5753L164.175 56.5758V51.4247H169.301Z" fill="#CEE0E0"/>
<path d="M169.301 46.283V51.4247H164.175V46.283H169.301Z" fill="#F2F2F2"/>
<path d="M169.301 41.1425V46.2841H164.175V41.1425H169.301Z" fill="#F2F2F2"/>
<path d="M169.301 35.9998V41.1414H164.175V35.9998H169.301Z" fill="#F2F2F2"/>
<path d="M169.301 30.8635V36.0005H164.175V30.8635H169.301Z" fill="#F2F2F2"/>
<path d="M169.301 25.7123L169.3 30.863L164.175 30.8635V25.7123H169.301Z" fill="#F2F2F2"/>
<path d="M169.301 20.5707V25.7123H164.175V20.5707H169.301Z" fill="#F2F2F2"/>
<path d="M169.301 15.4301V20.5717H164.175V15.4301H169.301Z" fill="#F2F2F2"/>
<path d="M169.301 10.2875V15.429H164.175V10.2875H169.301Z" fill="white"/>
<path d="M169.3 5.15112V10.2882H164.175V5.15112H169.3Z" fill="white"/>
<path d="M164.173 92.5671V97.7087H159.044V92.5671H164.173Z" fill="#CEE0E0"/>
<path d="M164.173 87.4255V92.5671H159.044V87.4255H164.173Z" fill="#CEE0E0"/>
<path d="M164.173 82.2881V87.4255H159.044V82.2881H164.173Z" fill="#CEE0E0"/>
<path d="M164.173 77.137V82.2881H159.044V77.137H164.173Z" fill="#CEE0E0"/>
<path d="M164.173 71.9954V77.137H159.044V71.9954H164.173Z" fill="#CEE0E0"/>
<path d="M164.173 66.8548V71.9964H159.044V66.8548H164.173Z" fill="#F2F2F2"/>
<path d="M164.173 61.7174V66.8548H159.044V61.7174H164.173Z" fill="#CEE0E0"/>
<path d="M164.173 56.5758V61.7174H159.044V56.5758H164.173Z" fill="#CEE0E0"/>
<path d="M164.173 51.4247V56.5758H159.044V51.4247H164.173Z" fill="#CEE0E0"/>
<path d="M164.173 46.283V51.4247H159.044V46.283H164.173Z" fill="#F2F2F2"/>
<path d="M164.173 41.1425V46.2841H159.044V41.1425H164.173Z" fill="#F2F2F2"/>
<path d="M164.173 35.9998V41.1414H159.044V35.9998H164.173Z" fill="#F2F2F2"/>
<path d="M164.173 30.8635V36.0005H159.044V30.8635H164.173Z" fill="white"/>
<path d="M164.173 25.7123V30.8635H159.044V25.7123H164.173Z" fill="white"/>
<path d="M164.173 20.5707V25.7123H159.044V20.5707H164.173Z" fill="white"/>
<path d="M164.173 15.4301V20.5717H159.044V15.4301H164.173Z" fill="#F2F2F2"/>
<path d="M164.173 10.2875V15.429H159.044V10.2875H164.173Z" fill="#F2F2F2"/>
<path d="M164.173 5.15112V10.2882H159.044V5.15112H164.173Z" fill="white"/>
<path d="M164.173 0V5.15112H159.044V0H164.173Z" fill="white"/>
<path d="M159.045 92.5671V97.7087H153.915V92.5671H159.045Z" fill="#CEE0E0"/>
<path d="M159.045 87.4255V92.5671H153.915V87.4255H159.045Z" fill="#CEE0E0"/>
<path d="M159.045 82.2881V87.4255H153.915V82.2881H159.045Z" fill="#CEE0E0"/>
<path d="M159.045 77.137V82.2881H153.915V77.137H159.045Z" fill="#CEE0E0"/>
<path d="M159.045 71.9954V77.137H153.915V71.9954H159.045Z" fill="#CEE0E0"/>
<path d="M159.045 66.8548V71.9964H153.915V66.8548H159.045Z" fill="#CEE0E0"/>
<path d="M159.045 61.7174V66.8548H153.915V61.7174H159.045Z" fill="#CEE0E0"/>
<path d="M159.045 56.5758V61.7174H153.915V56.5758H159.045Z" fill="#CEE0E0"/>
<path d="M159.045 51.4247V56.5758H153.915V51.4247H159.045Z" fill="#CEE0E0"/>
<path d="M159.045 46.283V51.4247H153.915V46.283H159.045Z" fill="#F2F2F2"/>
<path d="M159.045 41.1425V46.2841H153.915V41.1425H159.045Z" fill="#F2F2F2"/>
<path d="M159.045 35.9998V41.1414H153.915V35.9998H159.045Z" fill="#F2F2F2"/>
<path d="M159.045 30.8635V36.0005H153.915V30.8635H159.045Z" fill="white"/>
<path d="M159.045 25.7123V30.8635H153.915V25.7123H159.045Z" fill="white"/>
<path d="M159.045 20.5707V25.7123H153.915V20.5707H159.045Z" fill="white"/>
<path d="M159.045 15.4301V20.5717H153.915V15.4301H159.045Z" fill="white"/>
<path d="M159.045 10.2875V15.429H153.915V10.2875H159.045Z" fill="#F2F2F2"/>
<path d="M159.045 5.15112V10.2882H153.915V5.15112H159.045Z" fill="#F2F2F2"/>
<path d="M159.045 0V5.15112H153.915V0H159.045Z" fill="white"/>
<path d="M153.915 92.5671V97.7087H148.776V92.5671H153.915Z" fill="#CEE0E0"/>
<path d="M153.915 87.4255V92.5671H148.776V87.4255H153.915Z" fill="#CEE0E0"/>
<path d="M153.915 82.2881L153.915 87.4252L148.776 87.4255V82.2881H153.915Z" fill="#CEE0E0"/>
<path d="M153.915 77.137L153.915 82.2877L148.776 82.2881V77.137H153.915Z" fill="#CEE0E0"/>
<path d="M153.915 71.9954V77.137H148.776V71.9954H153.915Z" fill="#CEE0E0"/>
<path d="M153.915 66.8548V71.9964H148.776V66.8548H153.915Z" fill="#CEE0E0"/>
<path d="M153.915 61.7174L153.915 66.8544L148.776 66.8548V61.7174H153.915Z" fill="#CEE0E0"/>
<path d="M153.915 56.5758V61.7174H148.776V56.5758H153.915Z" fill="#CEE0E0"/>
<path d="M153.915 51.4247L153.915 56.5753L148.776 56.5758V51.4247H153.915Z" fill="#CEE0E0"/>
<path d="M153.915 46.283V51.4247H148.776V46.283H153.915Z" fill="#F2F2F2"/>
<path d="M153.915 41.1425V46.2841H148.776V41.1425H153.915Z" fill="#F2F2F2"/>
<path d="M153.915 35.9998V41.1414H148.776V35.9998H153.915Z" fill="#F2F2F2"/>
<path d="M153.915 30.8635V36.0005H148.776V30.8635H153.915Z" fill="white"/>
<path d="M153.915 25.7123L153.915 30.863L148.776 30.8635V25.7123H153.915Z" fill="white"/>
<path d="M153.915 20.5707V25.7123H148.776V20.5707H153.915Z" fill="white"/>
<path d="M153.915 15.4301V20.5717H148.776V15.4301H153.915Z" fill="white"/>
<path d="M153.915 10.2875V15.429H148.776V10.2875H153.915Z" fill="#F2F2F2"/>
<path d="M153.915 5.15112V10.2882H148.776V5.15112H153.915Z" fill="#F2F2F2"/>
<path d="M153.915 0L153.915 5.15067L148.776 5.15112V0H153.915Z" fill="white"/>
<path d="M148.777 92.5671V97.7087H143.648V92.5671H148.777Z" fill="#CEE0E0"/>
<path d="M148.777 87.4255V92.5671H143.648V87.4255H148.777Z" fill="#CEE0E0"/>
<path d="M148.777 82.2881V87.4255H143.648V82.2881H148.777Z" fill="#CEE0E0"/>
<path d="M148.777 77.137V82.2881H143.648V77.137H148.777Z" fill="#CEE0E0"/>
<path d="M148.777 71.9954V77.137H143.648V71.9954H148.777Z" fill="#F2F2F2"/>
<path d="M148.777 66.8548V71.9964H143.648V66.8548H148.777Z" fill="#F2F2F2"/>
<path d="M148.777 61.7174V66.8548H143.648V61.7174H148.777Z" fill="#F2F2F2"/>
<path d="M148.777 56.5758V61.7174H143.648V56.5758H148.777Z" fill="#F2F2F2"/>
<path d="M148.777 51.4247V56.5758H143.648V51.4247H148.777Z" fill="#CEE0E0"/>
<path d="M148.777 46.283V51.4247H143.648V46.283H148.777Z" fill="#CEE0E0"/>
<path d="M148.777 41.1425V46.2841H143.648V41.1425H148.777Z" fill="#F2F2F2"/>
<path d="M148.777 35.9998V41.1414H143.648V35.9998H148.777Z" fill="#F2F2F2"/>
<path d="M148.777 30.8635V36.0005H143.648V30.8635H148.777Z" fill="#F2F2F2"/>
<path d="M148.777 25.7123V30.8635H143.648V25.7123H148.777Z" fill="white"/>
<path d="M148.777 20.5707V25.7123H143.648V20.5707H148.777Z" fill="white"/>
<path d="M148.777 15.4301V20.5717H143.648V15.4301H148.777Z" fill="white"/>
<path d="M148.777 10.2875V15.429H143.648V10.2875H148.777Z" fill="#F2F2F2"/>
<path d="M148.777 5.15112V10.2882H143.648V5.15112H148.777Z" fill="#F2F2F2"/>
<path d="M148.777 0V5.15112H143.648V0H148.777Z" fill="white"/>
<path d="M143.646 92.5671V97.7087H138.516V92.5671H143.646Z" fill="#CEE0E0"/>
<path d="M143.646 87.4255V92.5671H138.516V87.4255H143.646Z" fill="#CEE0E0"/>
<path d="M143.646 82.2881V87.4255H138.516V82.2881H143.646Z" fill="#CEE0E0"/>
<path d="M143.646 77.137V82.2881H138.516V77.137H143.646Z" fill="#CEE0E0"/>
<path d="M143.646 71.9954V77.137H138.516V71.9954H143.646Z" fill="#F2F2F2"/>
<path d="M143.646 66.8548V71.9964H138.516V66.8548H143.646Z" fill="#F2F2F2"/>
<path d="M143.646 61.7174V66.8548H138.516V61.7174H143.646Z" fill="#F2F2F2"/>
<path d="M143.646 56.5758V61.7174H138.516V56.5758H143.646Z" fill="#F2F2F2"/>
<path d="M143.646 51.4247V56.5758H138.516V51.4247H143.646Z" fill="#F2F2F2"/>
<path d="M143.646 46.283V51.4247H138.516V46.283H143.646Z" fill="#CEE0E0"/>
<path d="M143.646 41.1425V46.2841H138.516V41.1425H143.646Z" fill="#CEE0E0"/>
<path d="M143.646 35.9998V41.1414H138.516V35.9998H143.646Z" fill="#F2F2F2"/>
<path d="M143.646 30.8635V36.0005H138.516V30.8635H143.646Z" fill="#F2F2F2"/>
<path d="M143.646 25.7123V30.8635H138.516V25.7123H143.646Z" fill="#F2F2F2"/>
<path d="M143.646 20.5707V25.7123H138.516V20.5707H143.646Z" fill="#F2F2F2"/>
<path d="M143.646 15.4301V20.5717H138.516V15.4301H143.646Z" fill="#F2F2F2"/>
<path d="M143.646 10.2875V15.429H138.516V10.2875H143.646Z" fill="#F2F2F2"/>
<path d="M143.646 5.15112V10.2882H138.516V5.15112H143.646Z" fill="#F2F2F2"/>
<path d="M143.646 0V5.15112H138.516V0H143.646Z" fill="white"/>
<path d="M138.517 92.5671V97.7087H133.392V92.5671H138.517Z" fill="#CEE0E0"/>
<path d="M138.517 87.4255V92.5671H133.392V87.4255H138.517Z" fill="#CEE0E0"/>
<path d="M138.517 82.2881V87.4255H133.392V82.2881H138.517Z" fill="#CEE0E0"/>
<path d="M138.517 77.137V82.2881H133.392V77.137H138.517Z" fill="#F2F2F2"/>
<path d="M138.517 71.9954V77.137H133.392V71.9954H138.517Z" fill="#F2F2F2"/>
<path d="M138.517 66.8548V71.9964H133.392V66.8548H138.517Z" fill="#F2F2F2"/>
<path d="M138.517 61.7174V66.8548H133.392V61.7174H138.517Z" fill="#F2F2F2"/>
<path d="M138.517 56.5758V61.7174H133.392V56.5758H138.517Z" fill="#F2F2F2"/>
<path d="M138.517 51.4247V56.5758H133.392V51.4247H138.517Z" fill="#F2F2F2"/>
<path d="M138.517 46.283V51.4247H133.392V46.283H138.517Z" fill="#F2F2F2"/>
<path d="M138.517 41.1425V46.2841H133.392V41.1425H138.517Z" fill="#CEE0E0"/>
<path d="M138.517 35.9998V41.1414H133.392V35.9998H138.517Z" fill="#F2F2F2"/>
<path d="M138.517 30.8635V36.0005H133.392V30.8635H138.517Z" fill="#F2F2F2"/>
<path d="M138.517 25.7123V30.8635H133.392V25.7123H138.517Z" fill="#F2F2F2"/>
<path d="M138.517 20.5707V25.7123H133.392V20.5707H138.517Z" fill="#F2F2F2"/>
<path d="M138.517 15.4301V20.5717H133.392V15.4301H138.517Z" fill="#F2F2F2"/>
<path d="M138.517 10.2875V15.429H133.392V10.2875H138.517Z" fill="#F2F2F2"/>
<path d="M138.517 5.15112V10.2882H133.392V5.15112H138.517Z" fill="#F2F2F2"/>
<path d="M138.517 0V5.15112H133.392V0H138.517Z" fill="white"/>
<path d="M133.393 92.5671V97.7087H128.263V92.5671H133.393Z" fill="#CEE0E0"/>
<path d="M133.393 87.4255V92.5671H128.263V87.4255H133.393Z" fill="#CEE0E0"/>
<path d="M133.393 82.2881V87.4255H128.263V82.2881H133.393Z" fill="#CEE0E0"/>
<path d="M133.393 77.137V82.2881H128.263V77.137H133.393Z" fill="#F2F2F2"/>
<path d="M133.393 71.9954V77.137H128.263V71.9954H133.393Z" fill="#F2F2F2"/>
<path d="M133.393 66.8548V71.9964H128.263V66.8548H133.393Z" fill="#F2F2F2"/>
<path d="M133.393 61.7174V66.8548H128.263V61.7174H133.393Z" fill="#CEE0E0"/>
<path d="M133.393 56.5758V61.7174H128.263V56.5758H133.393Z" fill="#CEE0E0"/>
<path d="M133.393 51.4247V56.5758H128.263V51.4247H133.393Z" fill="#F2F2F2"/>
<path d="M133.393 46.283V51.4247H128.263V46.283H133.393Z" fill="#F2F2F2"/>
<path d="M133.393 41.1425V46.2841H128.263V41.1425H133.393Z" fill="#F2F2F2"/>
<path d="M133.393 35.9998V41.1414H128.263V35.9998H133.393Z" fill="#F2F2F2"/>
<path d="M133.393 30.8635V36.0005H128.263V30.8635H133.393Z" fill="#F2F2F2"/>
<path d="M133.393 25.7123V30.8635H128.263V25.7123H133.393Z" fill="#F2F2F2"/>
<path d="M133.393 20.5707V25.7123H128.263V20.5707H133.393Z" fill="#F2F2F2"/>
<path d="M133.393 15.4301V20.5717H128.263V15.4301H133.393Z" fill="#F2F2F2"/>
<path d="M133.393 10.2875V15.429H128.263V10.2875H133.393Z" fill="#F2F2F2"/>
<path d="M133.393 5.15112V10.2882H128.263V5.15112H133.393Z" fill="white"/>
<path d="M133.393 0V5.15112H128.263V0H133.393Z" fill="white"/>
<path d="M128.263 92.5671V97.7087H123.124V92.5671H128.263Z" fill="#CEE0E0"/>
<path d="M128.263 87.4255V92.5671H123.124V87.4255H128.263Z" fill="#CEE0E0"/>
<path d="M128.263 82.2881L128.263 87.4252L123.124 87.4255V82.2881H128.263Z" fill="#CEE0E0"/>
<path d="M128.263 77.137L128.263 82.2877L123.124 82.2881V77.137H128.263Z" fill="#F2F2F2"/>
<path d="M128.263 71.9954V77.137H123.124V71.9954H128.263Z" fill="#F2F2F2"/>
<path d="M128.263 66.8548V71.9964H123.124V66.8548H128.263Z" fill="#CEE0E0"/>
<path d="M128.263 61.7174L128.263 66.8544L123.124 66.8548V61.7174H128.263Z" fill="#CEE0E0"/>
<path d="M128.263 56.5758V61.7174H123.124V56.5758H128.263Z" fill="#F2F2F2"/>
<path d="M128.263 51.4247L128.263 56.5753L123.124 56.5758V51.4247H128.263Z" fill="#F2F2F2"/>
<path d="M128.263 46.283V51.4247H123.124V46.283H128.263Z" fill="#F2F2F2"/>
<path d="M128.263 41.1425V46.2841H123.124V41.1425H128.263Z" fill="#F2F2F2"/>
<path d="M128.263 35.9998V41.1414H123.124V35.9998H128.263Z" fill="#F2F2F2"/>
<path d="M128.263 30.8635V36.0005H123.124V30.8635H128.263Z" fill="#F2F2F2"/>
<path d="M128.263 25.7123L128.263 30.863L123.124 30.8635V25.7123H128.263Z" fill="#F2F2F2"/>
<path d="M128.263 20.5707V25.7123H123.124V20.5707H128.263Z" fill="#F2F2F2"/>
<path d="M128.263 15.4301V20.5717H123.124V15.4301H128.263Z" fill="#F2F2F2"/>
<path d="M128.263 10.2875V15.429H123.124V10.2875H128.263Z" fill="#F2F2F2"/>
<path d="M128.263 5.15112V10.2882H123.124V5.15112H128.263Z" fill="white"/>
<path d="M123.125 92.5671V97.7087H117.996V92.5671H123.125Z" fill="#CEE0E0"/>
<path d="M123.125 87.4255V92.5671H117.996V87.4255H123.125Z" fill="#CEE0E0"/>
<path d="M123.125 82.2881V87.4255H117.996V82.2881H123.125Z" fill="#CEE0E0"/>
<path d="M123.125 77.137V82.2881H117.996V77.137H123.125Z" fill="#F2F2F2"/>
<path d="M123.125 71.9954V77.137H117.996V71.9954H123.125Z" fill="#F2F2F2"/>
<path d="M123.125 66.8548V71.9964H117.996V66.8548H123.125Z" fill="#CEE0E0"/>
<path d="M123.125 61.7174V66.8548H117.996V61.7174H123.125Z" fill="#F2F2F2"/>
<path d="M123.125 56.5758V61.7174H117.996V56.5758H123.125Z" fill="#F2F2F2"/>
<path d="M123.125 51.4247V56.5758H117.996V51.4247H123.125Z" fill="#F2F2F2"/>
<path d="M123.125 46.283V51.4247H117.996V46.283H123.125Z" fill="#F2F2F2"/>
<path d="M123.125 41.1425V46.2841H117.996V41.1425H123.125Z" fill="white"/>
<path d="M123.125 35.9998V41.1414H117.996V35.9998H123.125Z" fill="white"/>
<path d="M123.125 30.8635V36.0005H117.996V30.8635H123.125Z" fill="white"/>
<path d="M123.125 25.7123V30.8635H117.996V25.7123H123.125Z" fill="#F2F2F2"/>
<path d="M123.125 20.5707V25.7123H117.996V20.5707H123.125Z" fill="#F2F2F2"/>
<path d="M123.125 15.4301V20.5717H117.996V15.4301H123.125Z" fill="#F2F2F2"/>
<path d="M123.125 10.2875V15.429H117.996V10.2875H123.125Z" fill="#F2F2F2"/>
<path d="M123.125 5.15112V10.2882H117.996V5.15112H123.125Z" fill="white"/>
<path d="M117.994 97.7077V102.849H112.864V97.7077H117.994Z" fill="#CEE0E0"/>
<path d="M117.994 92.5671V97.7087H112.864V92.5671H117.994Z" fill="#CEE0E0"/>
<path d="M117.994 87.4255V92.5671H112.864V87.4255H117.994Z" fill="#CEE0E0"/>
<path d="M117.994 82.2881V87.4255H112.864V82.2881H117.994Z" fill="#CEE0E0"/>
<path d="M117.994 77.137V82.2881H112.864V77.137H117.994Z" fill="#CEE0E0"/>
<path d="M117.994 71.9954V77.137H112.864V71.9954H117.994Z" fill="#F2F2F2"/>
<path d="M117.994 66.8548V71.9964H112.864V66.8548H117.994Z" fill="#CEE0E0"/>
<path d="M117.994 61.7174V66.8548H112.864V61.7174H117.994Z" fill="#F2F2F2"/>
<path d="M117.994 56.5758V61.7174H112.864V56.5758H117.994Z" fill="#F2F2F2"/>
<path d="M117.994 51.4247V56.5758H112.864V51.4247H117.994Z" fill="#F2F2F2"/>
<path d="M117.994 46.283V51.4247H112.864V46.283H117.994Z" fill="white"/>
<path d="M117.994 41.1425V46.2841H112.864V41.1425H117.994Z" fill="white"/>
<path d="M117.994 35.9998V41.1414H112.864V35.9998H117.994Z" fill="white"/>
<path d="M117.994 30.8635V36.0005H112.864V30.8635H117.994Z" fill="white"/>
<path d="M117.994 25.7123V30.8635H112.864V25.7123H117.994Z" fill="#F2F2F2"/>
<path d="M117.994 20.5707V25.7123H112.864V20.5707H117.994Z" fill="#F2F2F2"/>
<path d="M117.994 15.4301V20.5717H112.864V15.4301H117.994Z" fill="#F2F2F2"/>
<path d="M117.994 10.2875V15.429H112.864V10.2875H117.994Z" fill="white"/>
<path d="M112.865 97.7077V102.849H107.74V97.7077H112.865Z" fill="#CEE0E0"/>
<path d="M112.865 92.5671V97.7087H107.74V92.5671H112.865Z" fill="#CEE0E0"/>
<path d="M112.865 87.4255V92.5671H107.74V87.4255H112.865Z" fill="#CEE0E0"/>
<path d="M112.865 82.2881V87.4255H107.74V82.2881H112.865Z" fill="#CEE0E0"/>
<path d="M112.865 77.137V82.2881H107.74V77.137H112.865Z" fill="#CEE0E0"/>
<path d="M112.865 71.9954V77.137H107.74V71.9954H112.865Z" fill="#CEE0E0"/>
<path d="M112.865 66.8548V71.9964H107.74V66.8548H112.865Z" fill="#CEE0E0"/>
<path d="M112.865 61.7174V66.8548H107.74V61.7174H112.865Z" fill="#CEE0E0"/>
<path d="M112.865 56.5758V61.7174H107.74V56.5758H112.865Z" fill="#F2F2F2"/>
<path d="M112.865 51.4247V56.5758H107.74V51.4247H112.865Z" fill="#F2F2F2"/>
<path d="M112.865 46.283V51.4247H107.74V46.283H112.865Z" fill="white"/>
<path d="M112.865 41.1425V46.2841H107.74V41.1425H112.865Z" fill="white"/>
<path d="M112.865 35.9998V41.1414H107.74V35.9998H112.865Z" fill="white"/>
<path d="M112.865 30.8635V36.0005H107.74V30.8635H112.865Z" fill="white"/>
<path d="M112.865 25.7123V30.8635H107.74V25.7123H112.865Z" fill="#F2F2F2"/>
<path d="M112.865 20.5707V25.7123H107.74V20.5707H112.865Z" fill="#F2F2F2"/>
<path d="M112.865 15.4301V20.5717H107.74V15.4301H112.865Z" fill="white"/>
<path d="M112.865 10.2875V15.429H107.74V10.2875H112.865Z" fill="white"/>
<path d="M107.741 97.7077V102.849H102.612V97.7077H107.741Z" fill="#CEE0E0"/>
<path d="M107.741 92.5671V97.7087H102.612V92.5671H107.741Z" fill="#CEE0E0"/>
<path d="M107.741 87.4255V92.5671H102.612V87.4255H107.741Z" fill="#CEE0E0"/>
<path d="M107.741 82.2881V87.4255H102.612V82.2881H107.741Z" fill="#CEE0E0"/>
<path d="M107.741 77.137V82.2881H102.612V77.137H107.741Z" fill="#CEE0E0"/>
<path d="M107.741 71.9954V77.137H102.612V71.9954H107.741Z" fill="#CEE0E0"/>
<path d="M107.741 66.8548V71.9964H102.612V66.8548H107.741Z" fill="#F2F2F2"/>
<path d="M107.741 61.7174V66.8548H102.612V61.7174H107.741Z" fill="#CEE0E0"/>
<path d="M107.741 56.5758V61.7174H102.612V56.5758H107.741Z" fill="#CEE0E0"/>
<path d="M107.741 51.4247V56.5758H102.612V51.4247H107.741Z" fill="#F2F2F2"/>
<path d="M107.741 46.283V51.4247H102.612V46.283H107.741Z" fill="#F2F2F2"/>
<path d="M107.741 41.1425V46.2841H102.612V41.1425H107.741Z" fill="white"/>
<path d="M107.741 35.9998V41.1414H102.612V35.9998H107.741Z" fill="white"/>
<path d="M107.741 30.8635V36.0005H102.612V30.8635H107.741Z" fill="#F2F2F2"/>
<path d="M107.741 25.7123V30.8635H102.612V25.7123H107.741Z" fill="#F2F2F2"/>
<path d="M107.741 20.5707V25.7123H102.612V20.5707H107.741Z" fill="white"/>
<path d="M107.741 15.4301V20.5717H102.612V15.4301H107.741Z" fill="white"/>
<path d="M102.612 92.5671V97.7087L97.4727 97.7088V92.5672L102.612 92.5671Z" fill="#CEE0E0"/>
<path d="M102.612 87.4255V92.5671L97.4727 92.5672L97.4726 87.4255H102.612Z" fill="#CEE0E0"/>
<path d="M102.612 82.2881L102.611 87.425L97.4726 87.4255L97.4727 82.288L102.612 82.2881Z" fill="#CEE0E0"/>
<path d="M102.612 77.137L102.611 82.2877L97.4727 82.288L97.4726 77.137H102.612Z" fill="#F2F2F2"/>
<path d="M102.612 71.9954V77.137H97.4726V71.9954H102.612Z" fill="#F2F2F2"/>
<path d="M102.612 66.8548V71.9964L97.4727 71.9963V66.8548L102.612 66.8548Z" fill="#F2F2F2"/>
<path d="M102.612 61.7174L102.611 66.8544L97.4727 66.8548L97.4726 61.7174H102.612Z" fill="#F2F2F2"/>
<path d="M102.612 56.5758V61.7174H97.4726V56.5758H102.612Z" fill="#F2F2F2"/>
<path d="M102.612 51.4247L102.611 56.5753L97.4726 56.5758V51.4247H102.612Z" fill="#F2F2F2"/>
<path d="M102.612 46.283V51.4247H97.4726V46.283H102.612Z" fill="#F2F2F2"/>
<path d="M102.612 41.1425V46.2841H97.4726V41.1425H102.612Z" fill="white"/>
<path d="M102.612 35.9998V41.1414H97.4726V35.9998H102.612Z" fill="white"/>
<path d="M102.612 30.8635V36.0005H97.4726V30.8635H102.612Z" fill="#F2F2F2"/>
<path d="M102.612 25.7123V30.8635H97.4726L97.4727 25.7124L102.612 25.7123Z" fill="white"/>
<path d="M102.612 20.5707V25.7123L97.4727 25.7124L97.4726 20.5707H102.612Z" fill="white"/>
<path d="M97.4736 92.5671V97.7087H92.3442V92.5671H97.4736Z" fill="#CEE0E0"/>
<path d="M97.4736 87.4255V92.5671H92.3442V87.4255H97.4736Z" fill="#CEE0E0"/>
<path d="M97.4736 82.2881V87.4255H92.3442V82.2881H97.4736Z" fill="#CEE0E0"/>
<path d="M97.4736 77.137V82.2881H92.3442V77.137H97.4736Z" fill="#F2F2F2"/>
<path d="M97.4736 71.9954V77.137H92.3442V71.9954H97.4736Z" fill="#F2F2F2"/>
<path d="M97.4736 66.8548V71.9964H92.3442V66.8548H97.4736Z" fill="#CEE0E0"/>
<path d="M97.4736 61.7174V66.8548H92.3442V61.7174H97.4736Z" fill="#CEE0E0"/>
<path d="M97.4736 56.5758V61.7174H92.3442V56.5758H97.4736Z" fill="#F2F2F2"/>
<path d="M97.4736 51.4247V56.5758H92.3442V51.4247H97.4736Z" fill="#F2F2F2"/>
<path d="M97.4736 46.283V51.4247H92.3442V46.283H97.4736Z" fill="#F2F2F2"/>
<path d="M97.4736 41.1425V46.2841H92.3442V41.1425H97.4736Z" fill="#F2F2F2"/>
<path d="M97.4736 35.9998V41.1414H92.3442V35.9998H97.4736Z" fill="#F2F2F2"/>
<path d="M97.4736 30.863V36.0005H92.3442V30.863H97.4736Z" fill="white"/>
<path d="M92.3421 92.5672V97.7088H87.2126V92.5672H92.3421Z" fill="#CEE0E0"/>
<path d="M92.342 87.4255L92.3421 92.5672H87.2126L87.2125 87.4255H92.342Z" fill="#CEE0E0"/>
<path d="M92.3421 82.288L92.342 87.4255H87.2125L87.2126 82.288H92.3421Z" fill="#CEE0E0"/>
<path d="M92.342 77.137L92.3421 82.288H87.2126L87.2125 77.137H92.342Z" fill="#F2F2F2"/>
<path d="M92.342 71.9954V77.137H87.2125V71.9954H92.342Z" fill="#F2F2F2"/>
<path d="M92.3421 66.8548V71.9963H87.2126V66.8548H92.3421Z" fill="#CEE0E0"/>
<path d="M92.342 61.7174L92.3421 66.8548H87.2126L87.2125 61.7174H92.342Z" fill="#F2F2F2"/>
<path d="M92.342 56.5758V61.7174H87.2125V56.5758H92.342Z" fill="#F2F2F2"/>
<path d="M92.342 51.4247V56.5758H87.2125V51.4247H92.342Z" fill="#F2F2F2"/>
<path d="M92.342 46.283V51.4247H87.2125V46.283H92.342Z" fill="#F2F2F2"/>
<path d="M92.342 41.1425V46.2841H87.2125V41.1425H92.342Z" fill="#F2F2F2"/>
<path d="M92.342 35.9998V41.1414H87.2125V35.9998H92.342Z" fill="white"/>
<path d="M87.2135 97.7077V102.849H82.084V97.7077H87.2135Z" fill="#CEE0E0"/>
<path d="M87.2135 92.5671V97.7087H82.084V92.5671H87.2135Z" fill="#CEE0E0"/>
<path d="M87.2135 87.4255V92.5671H82.084V87.4255H87.2135Z" fill="#CEE0E0"/>
<path d="M87.2135 82.2881V87.4255H82.084V82.2881H87.2135Z" fill="#CEE0E0"/>
<path d="M87.2135 77.137V82.2881H82.084V77.137H87.2135Z" fill="#CEE0E0"/>
<path d="M87.2135 71.9954V77.137H82.084V71.9954H87.2135Z" fill="#CEE0E0"/>
<path d="M87.2135 66.8548V71.9964H82.084V66.8548H87.2135Z" fill="#CEE0E0"/>
<path d="M87.2135 61.7174V66.8548H82.084V61.7174H87.2135Z" fill="#CEE0E0"/>
<path d="M87.2135 56.5758V61.7174H82.084V56.5758H87.2135Z" fill="#F2F2F2"/>
<path d="M87.2135 51.4247V56.5758H82.084V51.4247H87.2135Z" fill="#F2F2F2"/>
<path d="M87.2135 46.283V51.4247H82.084V46.283H87.2135Z" fill="#F2F2F2"/>
<path d="M87.2135 41.1425V46.2841H82.084V41.1425H87.2135Z" fill="#F2F2F2"/>
<path d="M87.2135 35.9998V41.1414H82.084V35.9998H87.2135Z" fill="white"/>
<path d="M82.0847 97.7077V102.849H76.9598V97.7077H82.0847Z" fill="#CEE0E0"/>
<path d="M82.0847 92.5671V97.7087H76.9598V92.5671H82.0847Z" fill="#CEE0E0"/>
<path d="M82.0847 87.4255V92.5671H76.9598V87.4255H82.0847Z" fill="#CEE0E0"/>
<path d="M82.0847 82.2881V87.4255H76.9598V82.2881H82.0847Z" fill="#CEE0E0"/>
<path d="M82.0847 77.137V82.2881H76.9598V77.137H82.0847Z" fill="#CEE0E0"/>
<path d="M82.0847 71.9954V77.137H76.9598V71.9954H82.0847Z" fill="#CEE0E0"/>
<path d="M82.0847 66.8548V71.9964H76.9598V66.8548H82.0847Z" fill="#CEE0E0"/>
<path d="M82.0847 61.7174V66.8548H76.9598V61.7174H82.0847Z" fill="#CEE0E0"/>
<path d="M82.0847 56.5758V61.7174H76.9598V56.5758H82.0847Z" fill="#F2F2F2"/>
<path d="M82.0847 51.4247V56.5758H76.9598V51.4247H82.0847Z" fill="#F2F2F2"/>
<path d="M82.0847 46.283V51.4247H76.9598V46.283H82.0847Z" fill="#F2F2F2"/>
<path d="M82.0847 41.1425V46.2841H76.9598V41.1425H82.0847Z" fill="white"/>
<path d="M82.0847 35.9998V41.1414H76.9598V35.9998H82.0847Z" fill="white"/>
<path d="M76.9598 97.7077V102.849L71.8208 102.849V97.7076L76.9598 97.7077Z" fill="#CEE0E0"/>
<path d="M76.9598 92.5671V97.7087L71.8208 97.7088V92.5672L76.9598 92.5671Z" fill="#CEE0E0"/>
<path d="M76.9598 87.4255V92.5671L71.8208 92.5672L71.8208 87.4255H76.9598Z" fill="#CEE0E0"/>
<path d="M76.9598 82.2881L76.9593 87.425L71.8208 87.4255L71.8208 82.288L76.9598 82.2881Z" fill="#CEE0E0"/>
<path d="M76.9598 77.137L76.9593 82.2877L71.8208 82.288L71.8208 77.137H76.9598Z" fill="#CEE0E0"/>
<path d="M76.9598 71.9954V77.137H71.8208V71.9954H76.9598Z" fill="#F2F2F2"/>
<path d="M76.9598 66.8548V71.9964L71.8208 71.9963V66.8548L76.9598 66.8548Z" fill="#F2F2F2"/>
<path d="M76.9598 61.7174L76.9593 66.8544L71.8208 66.8548L71.8208 61.7174H76.9598Z" fill="#F2F2F2"/>
<path d="M76.9598 56.5758V61.7174H71.8208V56.5758H76.9598Z" fill="#F2F2F2"/>
<path d="M76.9598 51.4247L76.9593 56.5753L71.8208 56.5758V51.4247H76.9598Z" fill="#F2F2F2"/>
<path d="M76.9598 46.283V51.4247H71.8208V46.283H76.9598Z" fill="white"/>
<path d="M76.9598 41.1425V46.2841H71.8208V41.1425H76.9598Z" fill="white"/>
<path d="M71.8219 92.5672V97.7088H66.6924V92.5672H71.8219Z" fill="#CEE0E0"/>
<path d="M71.8218 87.4255L71.8219 92.5672H66.6924L66.6923 87.4255H71.8218Z" fill="#CEE0E0"/>
<path d="M71.8219 82.288L71.8218 87.4255H66.6923L66.6924 82.288H71.8219Z" fill="#CEE0E0"/>
<path d="M71.8218 77.137L71.8219 82.288H66.6924L66.6923 77.137H71.8218Z" fill="#CEE0E0"/>
<path d="M71.8218 71.9954V77.137H66.6923V71.9954H71.8218Z" fill="#F2F2F2"/>
<path d="M71.8219 66.8548V71.9963H66.6924V66.8548H71.8219Z" fill="#F2F2F2"/>
<path d="M71.8218 61.7174L71.8219 66.8548H66.6924L66.6923 61.7174H71.8218Z" fill="#F2F2F2"/>
<path d="M66.6902 87.4255V92.5671H61.5607V87.4255H66.6902Z" fill="#CEE0E0"/>
<path d="M66.6901 82.288L66.6902 87.4255H61.5607L61.5606 82.288H66.6901Z" fill="#CEE0E0"/>
<path d="M66.6902 77.137L66.6901 82.288H61.5606L61.5607 77.137H66.6902Z" fill="#CEE0E0"/>
<path d="M66.6902 71.9954V77.137H61.5607V71.9954H66.6902Z" fill="#F2F2F2"/>
<path d="M66.6901 66.8548V71.9963H61.5606V66.8548H66.6901Z" fill="#F2F2F2"/>
<path d="M66.6902 61.7174L66.6901 66.8548H61.5606L61.5607 61.7174H66.6902Z" fill="#F2F2F2"/>
<path d="M66.6902 56.5758V61.7174H61.5607V56.5758H66.6902Z" fill="#F2F2F2"/>
<path d="M61.5617 87.4255V92.5671H56.4322V87.4255H61.5617Z" fill="#CEE0E0"/>
<path d="M61.5618 82.288L61.5617 87.4255H56.4322L56.4323 82.288H61.5618Z" fill="#CEE0E0"/>
<path d="M61.5617 77.137L61.5618 82.288H56.4323L56.4322 77.137H61.5617Z" fill="#CEE0E0"/>
<path d="M61.5617 71.9954V77.137H56.4322V71.9954H61.5617Z" fill="#F2F2F2"/>
<path d="M61.5618 66.8548V71.9963H56.4323V66.8548H61.5618Z" fill="#F2F2F2"/>
<path d="M61.5617 61.7174L61.5618 66.8548H56.4323L56.4322 61.7174H61.5617Z" fill="#F2F2F2"/>
<path d="M61.5617 56.5758V61.7174H56.4322V56.5758H61.5617Z" fill="#F2F2F2"/>
<path d="M56.4332 87.4255V92.5671H51.3037V87.4255H56.4332Z" fill="#CEE0E0"/>
<path d="M56.4332 82.2881V87.4255H51.3037V82.2881H56.4332Z" fill="#CEE0E0"/>
<path d="M56.4332 77.137V82.2881H51.3037V77.137H56.4332Z" fill="#CEE0E0"/>
<path d="M56.4332 71.9954V77.137H51.3037V71.9954H56.4332Z" fill="#F2F2F2"/>
<path d="M56.4332 66.8548V71.9964H51.3037V66.8548H56.4332Z" fill="#F2F2F2"/>
<path d="M56.4332 61.7174V66.8548H51.3037V61.7174H56.4332Z" fill="#F2F2F2"/>
<path d="M51.3043 87.4255V92.5671H46.1658V87.4255H51.3043Z" fill="#CEE0E0"/>
<path d="M51.3043 82.2881V87.4255H46.1658V82.2881H51.3043Z" fill="#CEE0E0"/>
<path d="M51.3043 77.137V82.2881H46.1658V77.137H51.3043Z" fill="#CEE0E0"/>
<path d="M51.3043 71.9954V77.137H46.1658V71.9954H51.3043Z" fill="#F2F2F2"/>
<path d="M51.3043 66.8548V71.9964H46.1658V66.8548H51.3043Z" fill="#F2F2F2"/>
<path d="M46.1658 87.4255V92.5671H41.0404V87.4255H46.1658Z" fill="#CEE0E0"/>
<path d="M46.1658 82.2881L46.1654 87.425L41.0404 87.4255L41.0404 82.288L46.1658 82.2881Z" fill="#CEE0E0"/>
<path d="M46.1658 77.137L46.1654 82.2877L41.0404 82.288L41.0404 77.137H46.1658Z" fill="#CEE0E0"/>
<path d="M41.0383 87.4255V92.5671H35.9088V87.4255H41.0383Z" fill="#CEE0E0"/>
<path d="M41.0383 82.2881V87.4255H35.9088V82.2881H41.0383Z" fill="#CEE0E0"/>
<path d="M41.0383 77.137V82.2881H35.9088V77.137H41.0383Z" fill="#F2F2F2"/>
<path d="M35.9098 87.4255V92.5671H30.7803V87.4255H35.9098Z" fill="#CEE0E0"/>
<path d="M35.9098 82.288L35.9098 87.4255H30.7803L30.7803 82.288H35.9098Z" fill="#CEE0E0"/>
<path d="M35.9098 77.137L35.9098 82.288H30.7803L30.7803 77.137H35.9098Z" fill="#F2F2F2"/>
<path d="M30.7803 87.4255V92.5671H25.655V87.4255H30.7803Z" fill="#CEE0E0"/>
<path d="M30.7803 82.288L30.7803 87.4255H25.655V82.2881L30.7803 82.288Z" fill="#CEE0E0"/>
<path d="M30.7803 77.137L30.7803 82.288L25.655 82.2881V77.137H30.7803Z" fill="#F2F2F2"/>
<path d="M25.657 87.4255V92.5671H20.5139V87.4255H25.657Z" fill="#CEE0E0"/>
<path d="M25.657 82.2881V87.4255H20.5139V82.2881H25.657Z" fill="#CEE0E0"/>
<path d="M25.657 77.137V82.2881H20.5139V77.137H25.657Z" fill="#F2F2F2"/>
<path d="M20.5139 87.4255V92.5671H15.3886V87.4255H20.5139Z" fill="#CEE0E0"/>
<path d="M20.5139 82.2881L20.5134 87.425L15.3886 87.4255L15.3885 82.288L20.5139 82.2881Z" fill="#CEE0E0"/>
<path d="M15.3864 87.4255V92.5671H10.257V87.4255H15.3864Z" fill="#CEE0E0"/>
<path d="M15.3864 82.2881V87.4255H10.257V82.2881H15.3864Z" fill="#F2F2F2"/>
<path d="M10.258 87.4255V92.5671H5.12848V87.4255H10.258Z" fill="#CEE0E0"/>
<path d="M10.2578 82.288L10.258 87.4255H5.12848L5.12835 82.288H10.2578Z" fill="#F2F2F2"/>
<path d="M5.12949 87.4255V92.5671H0V87.4255H5.12949Z" fill="#F2F2F2"/>
</svg>
