<svg width="60" height="60" viewBox="0 0 60 60" fill="none" xmlns="http://www.w3.org/2000/svg">
<path d="M60 18V42H57V48H54V51H51V54H48V57H42V60H18V57H12V54H9V51H6V48H3V42H0V18H3V12H6V9H9V6H12V3H18V0H42V3H48V6H51V9H54V12H57V18H60ZM48 15V12H45V9H39V6H21V9H15V12H12V15H9V21H6V39H9V45H12V48H15V51H21V54H39V51H45V48H48V45H51V39H54V21H51V15H48ZM39 18V21H42V24H39V27H36V33H39V36H42V39H39V42H36V39H33V36H27V39H24V42H21V39H18V36H21V33H24V27H21V24H18V21H21V18H24V21H27V24H33V21H36V18H39Z" fill="#3F3F3F"/>
</svg>
