<svg width="137" height="200" viewBox="0 0 137 200" fill="none" xmlns="http://www.w3.org/2000/svg">
<path d="M105.262 194.735H110.525V189.473H105.262V194.735Z" fill="#231F20"/>
<path d="M100 194.735H105.264V189.473H100V194.735Z" fill="#FAB60A"/>
<path d="M31.5781 194.736H36.8416V189.473H31.5781V194.736Z" fill="#231F20"/>
<path d="M84.2109 194.735H89.4758V189.473H84.2109V194.735Z" fill="#FAB60A"/>
<path d="M94.7344 194.735H99.9979V189.473H94.7344V194.735Z" fill="#231F20"/>
<path d="M89.4727 194.735H94.7344V189.473H89.4727V194.735Z" fill="#FAB60A"/>
<path d="M47.3672 194.736H52.6307V189.473H47.3672V194.736Z" fill="#FAB60A"/>
<path d="M78.9492 194.735H84.2127V189.473H78.9492V194.735Z" fill="#FAB60A"/>
<path d="M42.1055 194.736H47.3672V189.473H42.1055V194.736Z" fill="#231F20"/>
<path d="M52.6328 189.473V194.736L57.8963 194.735V189.473H52.6328Z" fill="#FAB60A"/>
<path d="M36.8438 194.736H42.1073V189.473H36.8438V194.736Z" fill="#FAB60A"/>
<path d="M57.8945 194.735H63.1567V189.473H57.8945V194.735Z" fill="#FAB60A"/>
<path d="M73.6838 194.735H78.9473V189.473H73.6838V194.735Z" fill="#231F20"/>
<path d="M63.1567 194.735H68.4184V189.473H63.1567V194.735Z" fill="#231F20"/>
<path d="M15.7891 36.8416H21.0526V31.5781H15.7891V36.8416Z" fill="#EBA469"/>
<path d="M47.3672 36.8416H52.6307V31.5781H47.3672V36.8416Z" fill="#D46C5B"/>
<path d="M63.1562 36.8416H68.4184V31.5781H63.1562V36.8416Z" fill="#231F20"/>
<path d="M42.1055 36.8416H47.3672V31.5781H42.1055V36.8416Z" fill="#D46C5B"/>
<path d="M57.8945 36.8416H63.1562V31.5781H57.8945V36.8416Z" fill="#231F20"/>
<path d="M52.6328 36.8416H57.8963V31.5781H52.6328V36.8416Z" fill="#231F20"/>
<path d="M31.5781 36.8416H36.8416V31.5781H31.5781V36.8416Z" fill="#C9804E"/>
<path d="M21.0508 36.8416H26.313V31.5781H21.0508V36.8416Z" fill="#EBA469"/>
<path d="M26.3164 36.8416H31.5799V31.5781H26.3164V36.8416Z" fill="#EBA469"/>
<path d="M78.9492 36.8416H84.2127V31.5781H78.9492V36.8416Z" fill="#D46C5B"/>
<path d="M100 36.8416H105.264V31.5781H100V36.8416Z" fill="#EBA469"/>
<path d="M105.262 36.8416H110.525V31.5781H105.262V36.8416Z" fill="#EBA469"/>
<path d="M94.7344 36.8416H99.9979V31.5781H94.7344V36.8416Z" fill="#C9804E"/>
<path d="M68.4219 36.8416H73.6854V31.5781H68.4219V36.8416Z" fill="#231F20"/>
<path d="M110.527 36.8416H115.791V31.5781H110.527V36.8416Z" fill="#EBA469"/>
<path d="M73.6838 36.8416H78.9473V31.5781H73.6838V36.8416Z" fill="#D46C5B"/>
<path d="M89.4727 36.8416H94.7344V31.5781H89.4727V36.8416Z" fill="#AA4E4C"/>
<path d="M10.5273 36.8416H15.7908V31.5781H10.5273V36.8416Z" fill="#AA4E4C"/>
<path d="M84.2109 36.8416H89.4758V31.5781H84.2109V36.8416Z" fill="#AA4E4C"/>
<path d="M36.8438 36.8416H42.1073V31.5781H36.8438V36.8416Z" fill="#AA4E4C"/>
<path d="M5.26562 36.8416H10.5273V31.5781H5.26562V36.8416Z" fill="#231F20"/>
<path d="M10.5273 31.5781H15.7908V26.3145H10.5273V31.5781Z" fill="#AA4E4C"/>
<path d="M5.26562 31.5781H10.5273V26.3145H5.26562V31.5781Z" fill="#231F20"/>
<path d="M15.7891 31.5781H21.0526V26.3145H15.7891V31.5781Z" fill="#EBA469"/>
<path d="M21.0508 31.5781H26.313V26.3145H21.0508V31.5781Z" fill="#EBA469"/>
<path d="M26.3164 31.5781H31.5799V26.3145H26.3164V31.5781Z" fill="#C9804E"/>
<path d="M115.789 36.8416H121.053V31.5781H115.789V36.8416Z" fill="#EBA469"/>
<path d="M31.5781 31.5781H36.8416V26.3145H31.5781V31.5781Z" fill="#AA4E4C"/>
<path d="M73.6838 31.5781H78.9473V26.3145H73.6838V31.5781Z" fill="#231F20"/>
<path d="M78.9492 31.5781H84.2127V26.3145H78.9492V31.5781Z" fill="#231F20"/>
<path d="M42.1055 31.5781H47.3672L47.3677 26.3145H42.1055V31.5781Z" fill="#231F20"/>
<path d="M47.3672 31.5781H52.6307V26.3145H47.3677L47.3672 31.5781Z" fill="#231F20"/>
<path d="M36.8438 31.5781H42.1073V26.3145H36.8438V31.5781Z" fill="#D46C5B"/>
<path d="M84.2109 31.5781H89.4758V26.3145H84.2109V31.5781Z" fill="#D46C5B"/>
<path d="M94.7344 31.5781H99.9979V26.3145H94.7344V31.5781Z" fill="#AA4E4C"/>
<path d="M115.789 31.5781H121.053V26.3145H115.789V31.5781Z" fill="#EBA469"/>
<path d="M126.316 31.578H131.58V26.3145H126.316V31.578Z" fill="#231F20"/>
<path d="M121.051 31.578H126.313V26.3145H121.051V31.578Z" fill="#AA4E4C"/>
<path d="M110.527 31.5781H115.791V26.3145H110.527V31.5781Z" fill="#EBA469"/>
<path d="M100 31.5781H105.264V26.3145H100V31.5781Z" fill="#C9804E"/>
<path d="M89.4727 31.5781H94.7344V26.3145H89.4727V31.5781Z" fill="#D46C5B"/>
<path d="M105.262 31.5781H110.525V26.3145H105.262V31.5781Z" fill="#EBA469"/>
<path d="M84.2109 184.209H89.4758V178.947H84.2109V184.209Z" fill="#E28E0D"/>
<path d="M110.527 42.1053H115.791V36.8416H110.527V42.1053Z" fill="#EBA469"/>
<path d="M115.789 42.1053H121.053V36.8416H115.789V42.1053Z" fill="#AA4E4C"/>
<path d="M78.9492 42.1053H84.2127V36.8416H78.9492V42.1053Z" fill="#AA4E4C"/>
<path d="M121.051 42.1053H126.313V36.8418H121.051V42.1053Z" fill="#231F20"/>
<path d="M105.262 42.1054H110.525V36.8416H105.262V42.1054Z" fill="#EBA469"/>
<path d="M89.4727 42.1053H94.7348L94.7344 36.8416H89.4727V42.1053Z" fill="#AA4E4C"/>
<path d="M100 42.1054H105.263L105.264 36.8416H100L100 42.1054Z" fill="#EBA469"/>
<path d="M84.2109 42.1053H89.4758V36.8416H84.2109V42.1053Z" fill="#AA4E4C"/>
<path d="M94.7348 42.1053H99.9979V36.8416H94.7344L94.7348 42.1053Z" fill="#C9804E"/>
<path d="M31.5781 42.1054H36.8416V36.8416H31.5781L31.5781 42.1054Z" fill="#C9804E"/>
<path d="M73.6838 42.1054H78.9473V36.8416H73.6838V42.1054Z" fill="#D46C5B"/>
<path d="M5.26562 42.1053H10.5278L10.5273 36.8416H5.26562V42.1053Z" fill="#231F20"/>
<path d="M10.5278 42.1053H15.7908V36.8416H10.5273L10.5278 42.1053Z" fill="#AA4E4C"/>
<path d="M15.7891 42.1053H21.0526V36.8416H15.7891V42.1053Z" fill="#EBA469"/>
<path d="M21.0508 42.1053H26.313V36.8416H21.0508V42.1053Z" fill="#EBA469"/>
<path d="M121.051 36.8418H126.313V31.578H121.051V36.8418Z" fill="#AA4E4C"/>
<path d="M57.8945 42.1053H63.1567L63.1562 36.8416H57.8945V42.1053Z" fill="#D46C5B"/>
<path d="M52.6328 42.1053H57.8963V36.8416H52.6328V42.1053Z" fill="#D46C5B"/>
<path d="M63.1567 42.1053H68.4184V36.8416H63.1562L63.1567 42.1053Z" fill="#D46C5B"/>
<path d="M68.4219 42.1053H73.6854V36.8416H68.4219V42.1053Z" fill="#D46C5B"/>
<path d="M36.8438 42.1053H42.1073V36.8416H36.8438V42.1053Z" fill="#AA4E4C"/>
<path d="M26.3164 42.1053H31.5799V36.8416H26.3164V42.1053Z" fill="#EBA469"/>
<path d="M47.3672 42.1053H52.6307V36.8416H47.3672V42.1053Z" fill="#AA4E4C"/>
<path d="M42.1055 42.1053H47.3672V36.8416H42.1055V42.1053Z" fill="#AA4E4C"/>
<path d="M57.8945 184.209H63.1567V178.947H57.8945V184.209Z" fill="#231F20"/>
<path d="M100 184.21H105.263V178.947H100V184.21Z" fill="#231F20"/>
<path d="M47.3672 184.209H52.6307V178.947H47.3672V184.209Z" fill="#231F20"/>
<path d="M89.4727 184.209H94.7348V178.947H89.4727V184.209Z" fill="#231F20"/>
<path d="M78.9492 184.209H84.2127V178.947H78.9492V184.209Z" fill="#231F20"/>
<path d="M52.6328 184.209H57.8963V178.947H52.6328V184.209Z" fill="#E28E0D"/>
<path d="M131.578 178.947H136.842V173.684H131.578V178.947Z" fill="#231F20"/>
<path d="M131.578 136.842H136.842V131.578H131.578V136.842Z" fill="#231F20"/>
<path d="M105.277 184.209H110.541V178.947H105.277V184.209Z" fill="#E7E3E2"/>
<path d="M131.578 110.526H136.842V105.264H131.578V110.526Z" fill="#231F20"/>
<path d="M131.578 115.789H136.842V110.526H131.578V115.789Z" fill="#231F20"/>
<path d="M131.578 126.316H136.842V121.051H131.578V126.316Z" fill="#231F20"/>
<path d="M131.578 121.051H136.842V115.789H131.578V121.051Z" fill="#231F20"/>
<path d="M131.578 131.578H136.842V126.316H131.578V131.578Z" fill="#231F20"/>
<path d="M121.051 184.209H126.313V178.947H121.051V184.209Z" fill="#231F20"/>
<path d="M115.789 184.209H121.053V178.947H115.789V184.209Z" fill="#231F20"/>
<path d="M110.48 184.209H115.744V178.947H110.48V184.209Z" fill="#E7E3E2"/>
<path d="M126.316 184.209H131.58V178.947H126.316V184.209Z" fill="#231F20"/>
<path d="M131.578 173.684H136.842V168.42H131.578V173.684Z" fill="#231F20"/>
<path d="M89.4727 189.473H94.7344L94.7348 184.209H89.4727V189.473Z" fill="#231F20"/>
<path d="M100 189.473H105.264L105.263 184.21H100L100 189.473Z" fill="#231F20"/>
<path d="M110.527 189.472H115.791V184.209H110.527V189.472Z" fill="#231F20"/>
<path d="M105.262 189.473H110.525V184.209H105.262V189.473Z" fill="#231F20"/>
<path d="M94.7344 189.473H99.9979V184.209L94.7348 184.209L94.7344 189.473Z" fill="#231F20"/>
<path d="M126.316 36.8416H131.58V31.578H126.316V36.8416Z" fill="#231F20"/>
<path d="M57.8945 189.473H63.1567V184.209H57.8945V189.473Z" fill="#231F20"/>
<path d="M84.2109 189.473H89.4758V184.209H84.2109V189.473Z" fill="#FAB60A"/>
<path d="M52.6328 189.473H57.8963V184.209H52.6328V189.473Z" fill="#FAB60A"/>
<path d="M42.1055 189.473H47.3672V184.209L42.1055 184.209V189.473Z" fill="#231F20"/>
<path d="M36.8438 189.473H42.1073V184.209H36.8438V189.473Z" fill="#231F20"/>
<path d="M47.3672 189.473H52.6307V184.209H47.3672V189.473Z" fill="#231F20"/>
<path d="M78.9492 189.473H84.2127V184.209H78.9492V189.473Z" fill="#231F20"/>
<path d="M94.7344 21.0526H99.9979V15.7891H94.7344V21.0526Z" fill="#231F20"/>
<path d="M126.316 21.0526H131.58V15.7891H126.316V21.0526Z" fill="#231F20"/>
<path d="M115.789 21.0526H121.053V15.7891H115.789V21.0526Z" fill="#EBA469"/>
<path d="M121.051 21.0526H126.313V15.7891H121.051V21.0526Z" fill="#AA4E4C"/>
<path d="M110.527 21.0526H115.791V15.7891H110.527V21.0526Z" fill="#C9804E"/>
<path d="M105.262 21.0527H110.525V15.7892H105.262V21.0527Z" fill="#AA4E4C"/>
<path d="M100 21.0527H105.263V15.7892H100V21.0527Z" fill="#D46C5B"/>
<path d="M21.0508 21.0526H26.313V15.7891H21.0508V21.0526Z" fill="#AA4E4C"/>
<path d="M31.5781 21.0527H36.8416V15.7892H31.5781V21.0527Z" fill="#231F20"/>
<path d="M15.7891 21.0526H21.0526V15.7891H15.7891V21.0526Z" fill="#AA4E4C"/>
<path d="M26.3164 21.0526H31.5799V15.7891H26.3164V21.0526Z" fill="#D46C5B"/>
<path d="M5.26562 21.0526H10.5278V15.7891H5.26562V21.0526Z" fill="#231F20"/>
<path d="M10.5278 21.0526H15.7908V15.7891H10.5278V21.0526Z" fill="#AA4E4C"/>
<path d="M126.316 26.3145H131.58V21.0526H126.316V26.3145Z" fill="#231F20"/>
<path d="M121.051 26.3145H126.313V21.0526H121.051V26.3145Z" fill="#AA4E4C"/>
<path d="M105.262 26.3145H110.525V21.0527H105.262V26.3145Z" fill="#C9804E"/>
<path d="M115.789 26.3145H121.053V21.0526H115.789V26.3145Z" fill="#EBA469"/>
<path d="M31.5781 200H36.8416V194.736H31.5781L31.5781 200Z" fill="#231F20"/>
<path d="M100 26.3145H105.264L105.263 21.0527H100L100 26.3145Z" fill="#AA4E4C"/>
<path d="M89.4727 199.999H94.7348L94.7344 194.735H89.4727V199.999Z" fill="#231F20"/>
<path d="M94.7348 199.999H99.9979V194.735H94.7344L94.7348 199.999Z" fill="#231F20"/>
<path d="M100 199.999H105.264V194.735H100V199.999Z" fill="#231F20"/>
<path d="M36.8438 200H42.1073V194.736H36.8438V200Z" fill="#231F20"/>
<path d="M105.262 199.999H110.525V194.735H105.262V199.999Z" fill="#231F20"/>
<path d="M57.8945 199.999H63.1567V194.735H57.8945V199.999Z" fill="#231F20"/>
<path d="M47.3672 200H52.6307V194.736H47.3672V200Z" fill="#231F20"/>
<path d="M52.6328 194.736V199.999H57.8963V194.735L52.6328 194.736Z" fill="#231F20"/>
<path d="M42.1055 200H47.3672V194.736H42.1055V200Z" fill="#231F20"/>
<path d="M78.9492 199.999H84.2127V194.735H78.9492V199.999Z" fill="#231F20"/>
<path d="M63.1567 199.999H68.4184V194.735H63.1567V199.999Z" fill="#231F20"/>
<path d="M73.6838 199.999H78.9473V194.735H73.6838V199.999Z" fill="#231F20"/>
<path d="M84.2109 199.999H89.4758V194.735H84.2109V199.999Z" fill="#231F20"/>
<path d="M110.527 26.3145H115.791V21.0526H110.527V26.3145Z" fill="#EBA469"/>
<path d="M94.7344 26.3145H99.9979V21.0526H94.7344V26.3145Z" fill="#D46C5B"/>
<path d="M21.0508 26.3145H26.313V21.0526H21.0508V26.3145Z" fill="#C9804E"/>
<path d="M26.3164 26.3145H31.5799V21.0526H26.3164V26.3145Z" fill="#AA4E4C"/>
<path d="M31.5781 26.3145H36.8416V21.0527H31.5781L31.5781 26.3145Z" fill="#D46C5B"/>
<path d="M15.7891 26.3145H21.0526V21.0526H15.7891V26.3145Z" fill="#EBA469"/>
<path d="M36.8438 26.3145H42.1073V21.0527H36.8438V26.3145Z" fill="#231F20"/>
<path d="M10.5273 26.3145H15.7908V21.0526H10.5278L10.5273 26.3145Z" fill="#AA4E4C"/>
<path d="M5.26562 26.3145H10.5273L10.5278 21.0526H5.26562V26.3145Z" fill="#231F20"/>
<path d="M84.2109 26.3145H89.4758V21.0527H84.2109V26.3145Z" fill="#231F20"/>
<path d="M89.4727 26.3145H94.7344V21.0526L89.4727 21.0527V26.3145Z" fill="#231F20"/>
<path d="M63.1562 136.842H68.4184V131.578H63.1562V136.842Z" fill="#AA4E4C"/>
<path d="M100 89.4725H105.264V84.209H100V89.4725Z" fill="#AA4E4C"/>
<path d="M100 73.6834H105.264V68.4199H100V73.6834Z" fill="#ECB276"/>
<path d="M89.4727 73.6834H94.7348V68.4199H89.4727V73.6834Z" fill="white"/>
<path d="M100 78.9473H105.263L105.264 73.6834H100L100 78.9473Z" fill="#ECB276"/>
<path d="M100 84.209H105.264V78.9453H100V84.209Z" fill="#AA4E4C"/>
<path d="M94.7348 73.6834H99.9979V68.4199H94.7348V73.6834Z" fill="white"/>
<path d="M68.4219 73.6834H73.6854V68.4199H68.4219V73.6834Z" fill="white"/>
<path d="M84.2109 73.6834H89.4758V68.4199H84.2109V73.6834Z" fill="#231F20"/>
<path d="M73.6836 73.6834H78.9458V68.4199H73.6836V73.6834Z" fill="white"/>
<path d="M94.7344 78.9471H99.9979V73.6834H94.7348L94.7344 78.9471Z" fill="white"/>
<path d="M100 105.263H105.263V100H100V105.263Z" fill="#AA4E4C"/>
<path d="M100 131.578H105.263V126.316H100V131.578Z" fill="#AA4E4C"/>
<path d="M100 126.316H105.263L105.264 121.051H100L100 126.316Z" fill="#AA4E4C"/>
<path d="M100 94.7362H105.264V89.4725H100V94.7362Z" fill="#AA4E4C"/>
<path d="M100 136.842H105.264L105.263 131.578H100L100 136.842Z" fill="#AA4E4C"/>
<path d="M100 121.051H105.264L105.263 115.789H100L100 121.051Z" fill="#7D3336"/>
<path d="M100 142.104H105.263L105.264 136.842H100L100 142.104Z" fill="#AA4E4C"/>
<path d="M63.1562 73.6834H68.4184V68.4199H63.1562V73.6834Z" fill="#ECB276"/>
<path d="M100 115.789H105.263L105.264 110.525H100L100 115.789Z" fill="#231F20"/>
<path d="M100 99.9987H105.263L105.264 94.7362H100L100 99.9987Z" fill="#AA4E4C"/>
<path d="M100 110.525H105.264L105.263 105.263H100L100 110.525Z" fill="#E7E3E2"/>
<path d="M21.0508 89.4725H26.313V84.209H21.0508V89.4725Z" fill="#AA4E4C"/>
<path d="M21.0508 105.264H26.313V100H21.0508V105.264Z" fill="#AA4E4C"/>
<path d="M21.0508 110.526H26.313V105.264H21.0508V110.526Z" fill="#E7E3E2"/>
<path d="M21.0508 115.789H26.313V110.526H21.0508V115.789Z" fill="#231F20"/>
<path d="M21.0508 99.9985H26.313V94.7363H21.0508V99.9985Z" fill="#AA4E4C"/>
<path d="M21.0508 94.7363H26.313V89.4725H21.0508V94.7363Z" fill="#AA4E4C"/>
<path d="M21.0508 121.051H26.313V115.789H21.0508V121.051Z" fill="#7D3336"/>
<path d="M21.0508 131.579H26.313V126.316H21.0508V131.579Z" fill="#AA4E4C"/>
<path d="M21.0508 136.842H26.313V131.579H21.0508V136.842Z" fill="#231F20"/>
<path d="M21.0508 126.316H26.313V121.051H21.0508V126.316Z" fill="#AA4E4C"/>
<path d="M100 147.367H105.264L105.263 142.104H100L100 147.367Z" fill="#843539"/>
<path d="M47.3672 73.6834H52.6307V68.4199H47.3672V73.6834Z" fill="#231F20"/>
<path d="M57.8945 73.6834H63.1562V68.4199H57.8945V73.6834Z" fill="#ECB276"/>
<path d="M42.1055 73.6834H47.3672V68.4199H42.1055V73.6834Z" fill="#231F20"/>
<path d="M21.0508 84.209H26.313V78.9453H21.0508V84.209Z" fill="#AA4E4C"/>
<path d="M52.6328 73.6834H57.8963V68.4199H52.6328V73.6834Z" fill="white"/>
<path d="M36.8438 73.6834H42.1073V68.4199H36.8438V73.6834Z" fill="white"/>
<path d="M21.0508 73.6834H26.313V68.4199H21.0508V73.6834Z" fill="#AA4E4C"/>
<path d="M21.0508 78.9471H26.313V73.6834H21.0508V78.9471Z" fill="#AA4E4C"/>
<path d="M31.5781 73.6834H36.8416V68.4199H31.5781V73.6834Z" fill="white"/>
<path d="M26.3164 73.6834H31.5799V68.4199H26.3164V73.6834Z" fill="#ECB276"/>
<path d="M26.3164 147.368H31.5799V142.104H26.3164V147.368Z" fill="#AA4E4C"/>
<path d="M26.3164 84.2088H31.5799V78.9453H26.3164V84.2088Z" fill="#AA4E4C"/>
<path d="M26.3164 78.9471H31.5799V73.6834H26.3164V78.9471Z" fill="#ECB276"/>
<path d="M36.8438 78.9471H42.1073V73.6834H36.8438V78.9471Z" fill="white"/>
<path d="M31.5781 78.9473H36.8416V73.6834H31.5781L31.5781 78.9473Z" fill="white"/>
<path d="M26.3164 89.4725H31.5799V84.2088H26.3164V89.4725Z" fill="#AA4E4C"/>
<path d="M26.3164 110.526H31.5799V105.264H26.3164V110.526Z" fill="#AA4E4C"/>
<path d="M42.1055 78.9471H47.3677L47.3672 73.6834H42.1055V78.9471Z" fill="white"/>
<path d="M26.3164 115.789H31.5799V110.526H26.3164V115.789Z" fill="#E7E3E2"/>
<path d="M26.3164 99.9985H31.5799V94.7363H26.3164V99.9985Z" fill="#AA4E4C"/>
<path d="M26.3164 94.7363H31.5799V89.4725H26.3164V94.7363Z" fill="#AA4E4C"/>
<path d="M26.3164 105.264H31.5799V100H26.3164V105.264Z" fill="#AA4E4C"/>
<path d="M73.6836 78.9471H78.9458V73.6834H73.6836V78.9471Z" fill="white"/>
<path d="M100 152.631H105.264V147.367H100V152.631Z" fill="#231F20"/>
<path d="M47.3677 78.9471H52.6307V73.6834H47.3672L47.3677 78.9471Z" fill="white"/>
<path d="M89.4727 78.9471H94.7344L94.7348 73.6834H89.4727V78.9471Z" fill="white"/>
<path d="M78.9492 78.9471H84.2127V73.6836H78.9492V78.9471Z" fill="white"/>
<path d="M68.4219 78.9471H73.6854V73.6834H68.4219V78.9471Z" fill="white"/>
<path d="M52.6328 78.9471H57.8963V73.6834H52.6328V78.9471Z" fill="white"/>
<path d="M57.8945 78.9471H63.1567L63.1562 73.6834H57.8945V78.9471Z" fill="#ECB276"/>
<path d="M63.1567 78.9471H68.4184V73.6834H63.1562L63.1567 78.9471Z" fill="#ECB276"/>
<path d="M84.2109 78.9471H89.4758V73.6834H84.2109V78.9471Z" fill="white"/>
<path d="M68.4219 152.631H73.6854V147.367H68.4219V152.631Z" fill="#AA4E4C"/>
<path d="M73.6838 152.631H78.9473V147.367H73.6838V152.631Z" fill="#AA4E4C"/>
<path d="M47.3672 152.631H52.6307V147.369H47.3672V152.631Z" fill="#7D3336"/>
<path d="M52.6328 147.368V152.631H57.8963V147.367L52.6328 147.368Z" fill="#AA4E4C"/>
<path d="M57.8945 152.631H63.1567V147.367H57.8945V152.631Z" fill="#AA4E4C"/>
<path d="M26.3164 121.051H31.5799V115.789H26.3164V121.051Z" fill="#231F20"/>
<path d="M94.7344 152.631H99.9979V147.367H94.7344V152.631Z" fill="#AA4E4C"/>
<path d="M78.9492 152.631H84.2127V147.367H78.9492V152.631Z" fill="#AA4E4C"/>
<path d="M89.4727 152.631H94.7344V147.367H89.4727V152.631Z" fill="#AA4E4C"/>
<path d="M84.2109 152.631H89.4758V147.367H84.2109V152.631Z" fill="#AA4E4C"/>
<path d="M63.1567 152.631H68.4184V147.367H63.1567V152.631Z" fill="#AA4E4C"/>
<path d="M26.3164 131.579H31.5799V126.316H26.3164V131.579Z" fill="#AA4E4C"/>
<path d="M26.3164 136.842H31.5799V131.579H26.3164V136.842Z" fill="#AA4E4C"/>
<path d="M26.3164 126.316H31.5799V121.051H26.3164V126.316Z" fill="#7D3336"/>
<path d="M26.3164 142.104H31.5799V136.842H26.3164V142.104Z" fill="#AA4E4C"/>
<path d="M31.5781 152.631H36.8416V147.369H31.5781V152.631Z" fill="#843539"/>
<path d="M36.8438 152.631H42.1073V147.369H36.8438V152.631Z" fill="#AA4E4C"/>
<path d="M21.0508 142.104H26.313V136.842H21.0508V142.104Z" fill="#231F20"/>
<path d="M42.1055 152.631H47.3672V147.369H42.1055V152.631Z" fill="#AA4E4C"/>
<path d="M31.5781 147.369H36.8416L36.8416 142.104H31.5781L31.5781 147.369Z" fill="#AA4E4C"/>
<path d="M78.9492 73.6836H84.2127V68.4199H78.9492V73.6836Z" fill="#231F20"/>
<path d="M15.7891 89.4725H21.0526V84.209H15.7891V89.4725Z" fill="#AA4E4C"/>
<path d="M15.7891 68.4204H21.0526V63.1582H15.7891V68.4204Z" fill="#AA4E4C"/>
<path d="M15.7891 94.7362H21.0526V89.4725H15.7891V94.7362Z" fill="#AA4E4C"/>
<path d="M15.7891 78.9471H21.0526V73.6836H15.7891V78.9471Z" fill="#AA4E4C"/>
<path d="M15.7891 73.6836H21.0526V68.4204H15.7891V73.6836Z" fill="#AA4E4C"/>
<path d="M15.7891 84.209H21.0526V78.9453H15.7891V84.209Z" fill="#AA4E4C"/>
<path d="M15.7891 99.9985H21.0526V94.7362H15.7891V99.9985Z" fill="#AA4E4C"/>
<path d="M15.7891 115.789H21.0508V110.526L15.7891 110.525V115.789Z" fill="#231F20"/>
<path d="M15.7891 110.525L21.0526 110.526V105.264H15.7891V110.525Z" fill="#231F20"/>
<path d="M15.7891 105.264H21.0526V100H15.7891V105.264Z" fill="#E7E3E2"/>
<path d="M63.1562 68.4199H68.4184V63.1582H63.1562V68.4199Z" fill="#ECB276"/>
<path d="M47.3672 68.4199H52.6307V63.1582H47.3672V68.4199Z" fill="#231F20"/>
<path d="M57.8945 68.4199H63.1562V63.1582H57.8945V68.4199Z" fill="#ECB276"/>
<path d="M52.6328 68.4199H57.8963V63.1582H52.6328V68.4199Z" fill="white"/>
<path d="M15.7891 121.051H21.0526V115.789L15.7891 115.789V121.051Z" fill="#231F20"/>
<path d="M36.8438 68.4199H42.1073V63.1582H36.8438V68.4199Z" fill="white"/>
<path d="M31.5781 68.4199H36.8416V63.1581H31.5781L31.5781 68.4199Z" fill="white"/>
<path d="M68.4219 68.4199H73.6854L73.6854 63.1581H68.4219L68.4219 68.4199Z" fill="white"/>
<path d="M42.1055 68.4199H47.3672V63.1582H42.1055V68.4199Z" fill="#231F20"/>
<path d="M21.0508 68.4199H26.313V63.1582H21.0508V68.4199Z" fill="#AA4E4C"/>
<path d="M26.3164 68.4199H31.5799V63.1582H26.3164V68.4199Z" fill="#ECB276"/>
<path d="M52.6328 157.895V163.157H57.8963V157.895H52.6328Z" fill="#AA4E4C"/>
<path d="M47.3672 163.157H52.6307V157.895H47.3672V163.157Z" fill="#AA4E4C"/>
<path d="M42.1055 163.157H47.3672V157.895H42.1055V163.157Z" fill="#843539"/>
<path d="M57.8945 163.157H63.1567V157.895H57.8945V163.157Z" fill="#AA4E4C"/>
<path d="M31.5781 163.157H36.8416V157.895H31.5781V163.157Z" fill="#B3AFAE"/>
<path d="M36.8438 163.157H42.1073V157.895H36.8438V163.157Z" fill="#231F20"/>
<path d="M63.1567 163.157H68.4184V157.895H63.1567V163.157Z" fill="#AA4E4C"/>
<path d="M73.6838 163.157H78.9473V157.895H73.6838V163.157Z" fill="#AA4E4C"/>
<path d="M78.9492 163.157H84.2127V157.895H78.9492V163.157Z" fill="#AA4E4C"/>
<path d="M68.4219 163.157H73.6854V157.895H68.4219V163.157Z" fill="#7D3336"/>
<path d="M15.7891 142.104H21.0526V136.842H15.7891V142.104Z" fill="#231F20"/>
<path d="M15.7891 136.842H21.0526V131.578H15.7891V136.842Z" fill="#AA4E4C"/>
<path d="M15.7891 147.368H21.0526V142.104H15.7891V147.368Z" fill="#E7E3E2"/>
<path d="M15.7891 131.578H21.0526V126.316H15.7891V131.578Z" fill="#231F20"/>
<path d="M26.3164 163.157H31.5799V157.895H26.3164V163.157Z" fill="#231F20"/>
<path d="M15.7891 152.631H21.0526V147.368H15.7891V152.631Z" fill="#231F20"/>
<path d="M15.7891 126.316H21.0526V121.051H15.7891V126.316Z" fill="#231F20"/>
<path d="M21.0508 157.894H26.313V152.631H21.0508V157.894Z" fill="#231F20"/>
<path d="M94.7344 157.894H99.9979V152.631H94.7344V157.894Z" fill="#843539"/>
<path d="M63.1567 157.895H68.4184V152.631H63.1567V157.895Z" fill="#AA4E4C"/>
<path d="M78.9492 157.895H84.2127V152.631H78.9492V157.895Z" fill="#AA4E4C"/>
<path d="M89.4727 157.894H94.7344V152.631H89.4727V157.894Z" fill="#AA4E4C"/>
<path d="M68.4219 157.895H73.6854V152.631H68.4219V157.895Z" fill="#AA4E4C"/>
<path d="M73.6838 157.895H78.9473V152.631H73.6838V157.895Z" fill="#7D3336"/>
<path d="M84.2109 157.894H89.4758V152.631H84.2109V157.894Z" fill="#AA4E4C"/>
<path d="M105.262 157.894H110.525V152.631H105.262V157.894Z" fill="#B3AFAE"/>
<path d="M105.262 152.631H110.525L110.525 147.367H105.262L105.262 152.631Z" fill="#B3AFAE"/>
<path d="M100 157.894H105.264V152.631H100V157.894Z" fill="#231F20"/>
<path d="M21.0508 147.368H26.313V142.104H21.0508V147.368Z" fill="#231F20"/>
<path d="M105.262 147.367H110.525V142.104H105.262V147.367Z" fill="#231F20"/>
<path d="M31.5781 157.895H36.8416L36.8416 152.631H31.5781L31.5781 157.895Z" fill="#231F20"/>
<path d="M26.3164 152.631H31.5799V147.368H26.3164V152.631Z" fill="#231F20"/>
<path d="M26.3164 157.895H31.5799V152.631H26.3164V157.895Z" fill="#B3AFAE"/>
<path d="M21.0508 152.631H26.313V147.368H21.0508V152.631Z" fill="#E7E3E2"/>
<path d="M57.8945 157.895H63.1567V152.631H57.8945V157.895Z" fill="#AA4E4C"/>
<path d="M36.8438 157.895H42.1073V152.631H36.8438V157.895Z" fill="#843539"/>
<path d="M52.6328 152.631V157.895H57.8963V152.631H52.6328Z" fill="#7D3336"/>
<path d="M47.3672 157.895H52.6307V152.631H47.3672V157.895Z" fill="#AA4E4C"/>
<path d="M42.1055 157.895H47.3672V152.631H42.1055V157.895Z" fill="#AA4E4C"/>
<path d="M73.6836 68.4199L78.9473 68.4203V63.1581H73.6838L73.6836 68.4199Z" fill="white"/>
<path d="M105.262 73.6834H110.525V68.4199H105.262V73.6834Z" fill="#AA4E4C"/>
<path d="M100 68.4199H105.264L105.263 63.1581H100L100 68.4199Z" fill="#ECB276"/>
<path d="M105.262 68.4199H110.525V63.1581H105.262V68.4199Z" fill="#AA4E4C"/>
<path d="M105.262 84.2088H110.525V78.9453H105.262V84.2088Z" fill="#AA4E4C"/>
<path d="M105.262 142.104H110.525V136.842H105.262V142.104Z" fill="#231F20"/>
<path d="M78.9492 68.4199H84.2127V63.1582H78.9492V68.4199Z" fill="#231F20"/>
<path d="M105.262 89.4725H110.525V84.2088H105.262V89.4725Z" fill="#AA4E4C"/>
<path d="M84.2109 68.4199H89.4758V63.1582H84.2109V68.4199Z" fill="#231F20"/>
<path d="M89.4727 68.4199H94.7348V63.1582H89.4727V68.4199Z" fill="white"/>
<path d="M94.7348 68.4199H99.9979V63.1582H94.7348V68.4199Z" fill="white"/>
<path d="M105.262 78.9473H110.525V73.6834H105.262V78.9473Z" fill="#AA4E4C"/>
<path d="M105.262 131.578H110.525V126.316H105.262V131.578Z" fill="#AA4E4C"/>
<path d="M105.262 126.316H110.525V121.051H105.262V126.316Z" fill="#AA4E4C"/>
<path d="M105.262 136.842H110.525V131.578H105.262V136.842Z" fill="#AA4E4C"/>
<path d="M105.262 94.7362H110.525V89.4725H105.262V94.7362Z" fill="#AA4E4C"/>
<path d="M105.262 121.051H110.525V115.789H105.262V121.051Z" fill="#AA4E4C"/>
<path d="M105.262 99.9987H110.525V94.7362H105.262V99.9987Z" fill="#AA4E4C"/>
<path d="M105.262 115.789H110.525V110.525H105.262V115.789Z" fill="#7D3336"/>
<path d="M105.262 105.263H110.525V100H105.262V105.263Z" fill="#E7E3E2"/>
<path d="M105.262 110.525H110.525V105.263H105.262V110.525Z" fill="#231F20"/>
<path d="M68.4219 121.051H73.6854V115.789H68.4219V121.051Z" fill="#AA4E4C"/>
<path d="M42.1055 94.7362H47.3677V89.4727H42.1055V94.7362Z" fill="#AA4E4C"/>
<path d="M42.1055 99.9985H47.3677V94.7362H42.1055V99.9985Z" fill="#AA4E4C"/>
<path d="M42.1055 131.579H47.3677V126.316H42.1055V131.579Z" fill="#AA4E4C"/>
<path d="M47.3677 94.7362H52.6307V89.4727H47.3677V94.7362Z" fill="#231F20"/>
<path d="M52.6328 94.7362H57.8963V89.4727H52.6328V94.7362Z" fill="#FFF200"/>
<path d="M42.1055 105.264H47.3677V100H42.1055V105.264Z" fill="#AA4E4C"/>
<path d="M42.1055 110.526H47.3677V105.264H42.1055V110.526Z" fill="#E7E3E2"/>
<path d="M42.1055 121.051H47.3677V115.789H42.1055V121.051Z" fill="#7D3336"/>
<path d="M42.1055 126.316H47.3677V121.051H42.1055V126.316Z" fill="#AA4E4C"/>
<path d="M42.1055 115.789H47.3677V110.526H42.1055V115.789Z" fill="#231F20"/>
<path d="M57.8945 94.7362H63.1567V89.4727H57.8945V94.7362Z" fill="#FBC707"/>
<path d="M78.9492 110.526H84.2127V105.264H78.9492V110.526Z" fill="#AA4E4C"/>
<path d="M63.1567 94.7362H68.4184V89.4727H63.1567V94.7362Z" fill="#FBC707"/>
<path d="M78.9492 115.789H84.2127V110.526H78.9492V115.789Z" fill="#E7E3E2"/>
<path d="M78.9492 126.316H84.2127V121.051H78.9492V126.316Z" fill="#7D3336"/>
<path d="M78.9492 121.051H84.2127V115.789H78.9492V121.051Z" fill="#231F20"/>
<path d="M78.9492 105.264H84.2127V100H78.9492V105.264Z" fill="#AA4E4C"/>
<path d="M68.4219 94.7362H73.6854V89.4727H68.4219V94.7362Z" fill="#231F20"/>
<path d="M73.6836 94.7362H78.9458V89.4727H73.6836V94.7362Z" fill="#AA4E4C"/>
<path d="M78.9492 94.7362H84.2127V89.4727H78.9492V94.7362Z" fill="#AA4E4C"/>
<path d="M78.9492 99.9985H84.2127V94.7362H78.9492V99.9985Z" fill="#AA4E4C"/>
<path d="M84.2109 121.051H89.4758V115.789H84.2109V121.051Z" fill="#231F20"/>
<path d="M84.2109 110.526H89.4758V105.264H84.2109V110.526Z" fill="#AA4E4C"/>
<path d="M84.2109 105.264H89.4758V100H84.2109V105.264Z" fill="#AA4E4C"/>
<path d="M84.2109 115.789H89.4758V110.526H84.2109V115.789Z" fill="#E7E3E2"/>
<path d="M84.2109 99.9985H89.4758V94.7363H84.2109V99.9985Z" fill="#AA4E4C"/>
<path d="M78.9492 131.579H84.2127V126.316H78.9492V131.579Z" fill="#AA4E4C"/>
<path d="M47.3677 131.579H52.6307V126.316H47.3677V131.579Z" fill="#AA4E4C"/>
<path d="M94.7344 84.2088H99.9979V78.9453H94.7344V84.2088Z" fill="#ECB276"/>
<path d="M84.2109 94.7363H89.4758V89.4727H84.2109V94.7363Z" fill="#AA4E4C"/>
<path d="M78.9492 89.4727H84.2127V84.209H78.9492V89.4727Z" fill="#ECB276"/>
<path d="M84.2109 89.4727H89.4758V84.209H84.2109V89.4727Z" fill="#ECB276"/>
<path d="M73.6836 89.4727H78.9458V84.209H73.6836V89.4727Z" fill="#ECB276"/>
<path d="M57.8945 136.842H63.1562V131.578H57.8945V136.842Z" fill="#7D3336"/>
<path d="M52.6328 131.578V136.842H57.8963V131.578H52.6328Z" fill="#AA4E4C"/>
<path d="M47.3672 136.842H52.6307V131.579H47.3677L47.3672 136.842Z" fill="#AA4E4C"/>
<path d="M84.2109 131.579H89.4758V126.316H84.2109V131.579Z" fill="#AA4E4C"/>
<path d="M78.9492 136.842H84.2127V131.579H78.9492V136.842Z" fill="#7D3336"/>
<path d="M84.2109 136.842H89.4758V131.579H84.2109V136.842Z" fill="#AA4E4C"/>
<path d="M73.6838 136.842H78.9473V131.578H73.6838V136.842Z" fill="#AA4E4C"/>
<path d="M68.4219 136.842H73.6854V131.578H68.4219V136.842Z" fill="#AA4E4C"/>
<path d="M73.6838 131.578H78.9473V126.316H73.6838V131.578Z" fill="#AA4E4C"/>
<path d="M52.6328 115.789H57.8963V110.525H52.6328V115.789Z" fill="#7D3336"/>
<path d="M52.6328 110.525H57.8963V105.264H52.6328V110.525Z" fill="#231F20"/>
<path d="M68.4219 89.4727H73.6854V84.209H68.4219V89.4727Z" fill="#231F20"/>
<path d="M52.6328 105.264H57.8963V100H52.6328V105.264Z" fill="#FBC707"/>
<path d="M52.6328 121.051H57.8963V115.789H52.6328V121.051Z" fill="#AA4E4C"/>
<path d="M63.1562 105.264H68.4184V100H63.1562V105.264Z" fill="#231F20"/>
<path d="M68.4219 126.316H73.6854V121.051H68.4219V126.316Z" fill="#AA4E4C"/>
<path d="M73.6838 126.316H78.9473V121.051H73.6838V126.316Z" fill="#AA4E4C"/>
<path d="M63.1562 126.316H68.4184V121.051H63.1562V126.316Z" fill="#AA4E4C"/>
<path d="M57.8945 126.316H63.1562V121.051H57.8945V126.316Z" fill="#AA4E4C"/>
<path d="M57.8945 121.051H63.1562L63.1567 115.789H57.8945V121.051Z" fill="#AA4E4C"/>
<path d="M63.1567 115.789L68.4184 115.789V110.525H63.1562L63.1567 115.789Z" fill="#7D3336"/>
<path d="M57.8945 115.789H63.1567L63.1562 110.525H57.8945V115.789Z" fill="#7D3336"/>
<path d="M57.8945 110.525H63.1562V105.264L57.8945 105.264V110.525Z" fill="#231F20"/>
<path d="M63.1562 110.525H68.4184V105.264H63.1562V110.525Z" fill="#5C2425"/>
<path d="M68.4219 105.264H73.6854V100H68.4219V105.264Z" fill="#E7E3E2"/>
<path d="M68.4219 115.789H73.6854V110.525H68.4219V115.789Z" fill="#7D3336"/>
<path d="M63.1562 121.051H68.4184V115.789L63.1567 115.789L63.1562 121.051Z" fill="#AA4E4C"/>
<path d="M68.4219 110.525H73.6854V105.264H68.4219V110.525Z" fill="#231F20"/>
<path d="M84.2109 163.157H89.4758V157.894H84.2109V163.157Z" fill="#AA4E4C"/>
<path d="M57.8945 105.264L63.1562 105.264V100H57.8945V105.264Z" fill="#EEA00C"/>
<path d="M47.3677 121.051H52.6307V115.789H47.3677V121.051Z" fill="#AA4E4C"/>
<path d="M52.6328 126.316H57.8963V121.051H52.6328V126.316Z" fill="#AA4E4C"/>
<path d="M47.3677 126.316H52.6307V121.051H47.3677V126.316Z" fill="#AA4E4C"/>
<path d="M47.3677 115.789H52.6307V110.525L47.3677 110.526V115.789Z" fill="#7D3336"/>
<path d="M47.3677 110.526L52.6307 110.525V105.264L47.3677 105.264V110.526Z" fill="#231F20"/>
<path d="M52.6328 131.578H57.8963V126.316H52.6328V131.578Z" fill="#7D3336"/>
<path d="M63.1562 131.578H68.4184V126.316H63.1562V131.578Z" fill="#AA4E4C"/>
<path d="M68.4219 131.578H73.6854V126.316H68.4219V131.578Z" fill="#AA4E4C"/>
<path d="M47.3677 105.264L52.6307 105.264V100H47.3677V105.264Z" fill="#231F20"/>
<path d="M57.8945 131.578H63.1562V126.316H57.8945V131.578Z" fill="#AA4E4C"/>
<path d="M63.1562 99.9985H68.4184V94.7362H63.1567L63.1562 99.9985Z" fill="#EEA00C"/>
<path d="M73.6836 99.9985H78.9458V94.7362H73.6836V99.9985Z" fill="#AA4E4C"/>
<path d="M73.6838 110.526H78.9473V105.264H73.6838V110.526Z" fill="#E7E3E2"/>
<path d="M73.6838 105.264H78.9473V100H73.6838V105.264Z" fill="#AA4E4C"/>
<path d="M73.6838 115.789H78.9473V110.526H73.6838V115.789Z" fill="#231F20"/>
<path d="M57.8945 99.9985H63.1562L63.1567 94.7362H57.8945V99.9985Z" fill="#FBC707"/>
<path d="M52.6328 99.9985H57.8963V94.7362H52.6328V99.9985Z" fill="#FBC707"/>
<path d="M47.3677 99.9985H52.6307V94.7362H47.3677V99.9985Z" fill="#231F20"/>
<path d="M68.4219 99.9985H73.6854V94.7362H68.4219V99.9985Z" fill="#231F20"/>
<path d="M73.6838 121.051H78.9473V115.789H73.6838V121.051Z" fill="#7D3336"/>
<path d="M84.2109 126.316H89.4758V121.051H84.2109V126.316Z" fill="#7D3336"/>
<path d="M31.5781 131.578H36.8416V126.316H31.5781V131.578Z" fill="#AA4E4C"/>
<path d="M31.5781 126.316H36.8416V121.051H31.5781L31.5781 126.316Z" fill="#7D3336"/>
<path d="M31.5781 136.842H36.8416V131.578H31.5781L31.5781 136.842Z" fill="#AA4E4C"/>
<path d="M31.5781 121.051H36.8416V115.789H31.5781L31.5781 121.051Z" fill="#231F20"/>
<path d="M31.5781 115.789H36.8416V110.525H31.5781L31.5781 115.789Z" fill="#E7E3E2"/>
<path d="M36.8438 147.369H42.1073V142.104H36.8438V147.369Z" fill="#AA4E4C"/>
<path d="M31.5781 142.104H36.8416V136.842H31.5781V142.104Z" fill="#AA4E4C"/>
<path d="M31.5781 110.525H36.8416V105.264H31.5781L31.5781 110.525Z" fill="#AA4E4C"/>
<path d="M42.1055 147.369H47.3672L47.3677 142.104H42.1055V147.369Z" fill="#AA4E4C"/>
<path d="M36.8438 142.104H42.1073V136.842H36.8438V142.104Z" fill="#AA4E4C"/>
<path d="M42.1055 84.2088H47.3677V78.9453H42.1055V84.2088Z" fill="white"/>
<path d="M47.3672 147.369H52.6307V142.104H47.3677L47.3672 147.369Z" fill="#AA4E4C"/>
<path d="M47.3677 84.2088H52.6307V78.9453H47.3677V84.2088Z" fill="white"/>
<path d="M52.6328 84.2088H57.8963V78.9453H52.6328V84.2088Z" fill="#ECB276"/>
<path d="M36.8438 84.2088H42.1073V78.9453H36.8438V84.2088Z" fill="white"/>
<path d="M31.5781 89.4725H36.8416V84.209H31.5781V89.4725Z" fill="#AA4E4C"/>
<path d="M31.5781 84.209H36.8416V78.9453H31.5781V84.209Z" fill="#ECB276"/>
<path d="M31.5781 94.7362H36.8416V89.4725H31.5781V94.7362Z" fill="#AA4E4C"/>
<path d="M31.5781 99.9987H36.8416V94.7362H31.5781L31.5781 99.9987Z" fill="#AA4E4C"/>
<path d="M31.5781 105.264H36.8416V100H31.5781V105.264Z" fill="#AA4E4C"/>
<path d="M52.6328 142.104V147.368L57.8963 147.367V142.104H52.6328Z" fill="#AA4E4C"/>
<path d="M94.7344 115.789H99.9979V110.525H94.7344V115.789Z" fill="#E7E3E2"/>
<path d="M94.7344 110.525H99.9979V105.264H94.7344V110.525Z" fill="#AA4E4C"/>
<path d="M94.7344 121.051H99.9979V115.789H94.7344V121.051Z" fill="#231F20"/>
<path d="M94.7344 126.316H99.9979V121.051H94.7344V126.316Z" fill="#7D3336"/>
<path d="M57.8945 84.2088H63.1567V78.9453H57.8945V84.2088Z" fill="#231F20"/>
<path d="M94.7344 99.9985H99.9979V94.7363H94.7344V99.9985Z" fill="#AA4E4C"/>
<path d="M94.7344 105.264H99.9979V100H94.7344V105.264Z" fill="#AA4E4C"/>
<path d="M94.7344 94.7363H99.9979V89.4727H94.7344V94.7363Z" fill="#AA4E4C"/>
<path d="M94.7344 89.4727H99.9979V84.2088H94.7344V89.4727Z" fill="#AA4E4C"/>
<path d="M94.7344 136.842H99.9979V131.578H94.7344V136.842Z" fill="#AA4E4C"/>
<path d="M94.7344 131.578H99.9979V126.316H94.7344V131.578Z" fill="#AA4E4C"/>
<path d="M68.4219 147.367H73.6854V142.104H68.4219V147.367Z" fill="#7D3336"/>
<path d="M63.1567 147.367H68.4184V142.104H63.1562L63.1567 147.367Z" fill="#AA4E4C"/>
<path d="M73.6838 147.367H78.9473V142.104H73.6838V147.367Z" fill="#AA4E4C"/>
<path d="M94.7344 142.104H99.9979V136.842H94.7344V142.104Z" fill="#7D3336"/>
<path d="M57.8945 147.367H63.1567L63.1562 142.104H57.8945V147.367Z" fill="#AA4E4C"/>
<path d="M89.4727 147.367H94.7344V142.104L89.4727 142.104V147.367Z" fill="#7D3336"/>
<path d="M94.7344 147.367H99.9979V142.104H94.7344V147.367Z" fill="#AA4E4C"/>
<path d="M78.9492 147.367H84.2127V142.104H78.9492V147.367Z" fill="#AA4E4C"/>
<path d="M84.2109 147.367H89.4758V142.104H84.2109V147.367Z" fill="#AA4E4C"/>
<path d="M36.8438 131.579H42.1073V126.316H36.8438V131.579Z" fill="#AA4E4C"/>
<path d="M42.1055 136.842H47.3672L47.3677 131.579H42.1055V136.842Z" fill="#7D3336"/>
<path d="M63.1567 84.2088H68.4184V78.9453H63.1567V84.2088Z" fill="#231F20"/>
<path d="M63.1567 89.4727H68.4184V84.2088H63.1567V89.4727Z" fill="#FBC707"/>
<path d="M36.8438 126.316H42.1073V121.051H36.8438V126.316Z" fill="#7D3336"/>
<path d="M36.8438 121.051H42.1073V115.789H36.8438V121.051Z" fill="#231F20"/>
<path d="M47.3677 142.104H52.6307V136.842H47.3672L47.3677 142.104Z" fill="#7D3336"/>
<path d="M52.6328 136.842V142.104H57.8963V136.842H52.6328Z" fill="#AA4E4C"/>
<path d="M57.8945 142.104H63.1562V136.842H57.8945V142.104Z" fill="#AA4E4C"/>
<path d="M42.1055 142.104H47.3677L47.3672 136.842H42.1055V142.104Z" fill="#AA4E4C"/>
<path d="M36.8438 115.789H42.1073V110.525H36.8438V115.789Z" fill="#E7E3E2"/>
<path d="M36.8438 105.264H42.1073V100H36.8438V105.264Z" fill="#AA4E4C"/>
<path d="M36.8438 110.525H42.1073V105.264H36.8438V110.525Z" fill="#AA4E4C"/>
<path d="M47.3677 89.4727H52.6307V84.2088H47.3677V89.4727Z" fill="#ECB276"/>
<path d="M52.6328 89.4727H57.8963V84.2088H52.6328V89.4727Z" fill="#231F20"/>
<path d="M57.8945 89.4727H63.1567V84.2088H57.8945V89.4727Z" fill="#FFF200"/>
<path d="M42.1055 89.4727H47.3677V84.2088H42.1055V89.4727Z" fill="#ECB276"/>
<path d="M36.8438 99.9985H42.1073V94.7363H36.8438V99.9985Z" fill="#AA4E4C"/>
<path d="M63.1562 142.104H68.4184V136.842H63.1562V142.104Z" fill="#AA4E4C"/>
<path d="M36.8438 89.4725H42.1073V84.2088H36.8438V89.4725Z" fill="#ECB276"/>
<path d="M36.8438 94.7363H42.1073V89.4725H36.8438V94.7363Z" fill="#AA4E4C"/>
<path d="M36.8438 136.842H42.1073V131.579H36.8438V136.842Z" fill="#AA4E4C"/>
<path d="M89.4727 94.7362L94.7344 94.7363V89.4727H89.4727V94.7362Z" fill="#AA4E4C"/>
<path d="M89.4727 89.4727H94.7344V84.2088L89.4727 84.209V89.4727Z" fill="#ECB276"/>
<path d="M89.4727 105.264L94.7344 105.264V100H89.4727V105.264Z" fill="#AA4E4C"/>
<path d="M89.4727 99.9985H94.7344V94.7363L89.4727 94.7362V99.9985Z" fill="#AA4E4C"/>
<path d="M89.4727 84.209L94.7344 84.2088V78.9453H89.4727V84.209Z" fill="white"/>
<path d="M68.4219 142.104H73.6854V136.842H68.4219V142.104Z" fill="#AA4E4C"/>
<path d="M68.4219 84.209H73.6854V78.9453H68.4219V84.209Z" fill="#ECB276"/>
<path d="M73.6836 84.209H78.9458V78.9453H73.6836V84.209Z" fill="white"/>
<path d="M84.2109 84.209H89.4758V78.9453H84.2109V84.209Z" fill="white"/>
<path d="M78.9492 84.209H84.2127V78.9453H78.9492V84.209Z" fill="white"/>
<path d="M89.4727 110.526L94.7344 110.525V105.264L89.4727 105.264V110.526Z" fill="#AA4E4C"/>
<path d="M84.2109 142.104H89.4758V136.842H84.2109V142.104Z" fill="#AA4E4C"/>
<path d="M78.9492 142.104H84.2127V136.842H78.9492V142.104Z" fill="#AA4E4C"/>
<path d="M89.4727 142.104L94.7344 142.104V136.842L89.4727 136.842V142.104Z" fill="#AA4E4C"/>
<path d="M89.4727 115.789H94.7344V110.525L89.4727 110.526V115.789Z" fill="#E7E3E2"/>
<path d="M73.6838 142.104H78.9473V136.842H73.6838V142.104Z" fill="#7D3336"/>
<path d="M89.4727 126.316H94.7344V121.051L89.4727 121.051V126.316Z" fill="#7D3336"/>
<path d="M89.4727 136.842L94.7344 136.842V131.578H89.4727V136.842Z" fill="#AA4E4C"/>
<path d="M89.4727 121.051L94.7344 121.051V115.789H89.4727V121.051Z" fill="#231F20"/>
<path d="M89.4727 131.578H94.7344V126.316H89.4727V131.578Z" fill="#AA4E4C"/>
<path d="M78.9492 178.947H84.2127V173.684H78.9492V178.947Z" fill="#231F20"/>
<path d="M0 121.051H5.2635V115.789H0V121.051Z" fill="#231F20"/>
<path d="M0 126.316H5.2635V121.051H0L0 126.316Z" fill="#231F20"/>
<path d="M0 131.578H5.2635V126.316H0L0 131.578Z" fill="#231F20"/>
<path d="M0 115.789H5.2635V110.525H0L0 115.789Z" fill="#231F20"/>
<path d="M52.6328 178.947H57.8963V173.684H52.6328V178.947Z" fill="#231F20"/>
<path d="M68.4219 178.947H73.6854V173.684H68.4219V178.947Z" fill="#231F20"/>
<path d="M57.8945 178.947H63.1567V173.684H57.8945V178.947Z" fill="#231F20"/>
<path d="M73.6838 178.947H78.9473V173.684H73.6838V178.947Z" fill="#231F20"/>
<path d="M63.1567 178.947L68.4184 178.947V173.684H63.1567V178.947Z" fill="#231F20"/>
<path d="M47.3672 178.947H52.6307V173.684H47.3672V178.947Z" fill="#231F20"/>
<path d="M15.7891 52.6307H21.0513V47.3672H15.7891V52.6307Z" fill="#231F20"/>
<path d="M121.051 115.789H126.313V110.525H121.051V115.789Z" fill="#AA4E4C"/>
<path d="M121.051 105.264H126.313V100H121.051V105.264Z" fill="#231F20"/>
<path d="M121.051 110.525H126.313V105.264H121.051V110.525Z" fill="#D46C5B"/>
<path d="M121.051 147.367H126.313V142.104H121.051V147.367Z" fill="#231F20"/>
<path d="M89.4727 163.157H94.7348L94.7344 157.894H89.4727V163.157Z" fill="#AA4E4C"/>
<path d="M121.051 126.316H126.313V121.051H121.051V126.316Z" fill="#AA4E4C"/>
<path d="M121.051 131.579H126.313V126.316H121.051V131.579Z" fill="#AA4E4C"/>
<path d="M121.051 142.104H126.313V136.842H121.051V142.104Z" fill="#AA4E4C"/>
<path d="M121.051 121.051H126.313V115.789H121.051V121.051Z" fill="#AA4E4C"/>
<path d="M84.2109 52.6307H89.4758V47.3672H84.2109V52.6307Z" fill="#ECB276"/>
<path d="M47.3672 52.6307H52.6307V47.3672H47.3672V52.6307Z" fill="#ECB276"/>
<path d="M73.6838 52.6307H78.9473V47.3672H73.6838V52.6307Z" fill="#ECB276"/>
<path d="M52.6328 52.6307H57.8963V47.3672H52.6328V52.6307Z" fill="#7D3336"/>
<path d="M63.1562 52.6307H68.4184V47.3672H63.1562V52.6307Z" fill="#AA4E4C"/>
<path d="M68.4219 52.6307H73.6854V47.3672H68.4219V52.6307Z" fill="#7D3336"/>
<path d="M57.8945 52.6307H63.158V47.3672H57.8945V52.6307Z" fill="#AA4E4C"/>
<path d="M31.5781 52.6307H36.8416V47.3672H31.5781V52.6307Z" fill="#AA4E4C"/>
<path d="M42.1055 52.6307H47.3672V47.3672H42.1055V52.6307Z" fill="#ECB276"/>
<path d="M36.8438 52.6307H42.1073V47.3672H36.8438V52.6307Z" fill="#ECB276"/>
<path d="M26.3164 52.6307H31.5799V47.3672H26.3164V52.6307Z" fill="#AA4E4C"/>
<path d="M78.9492 52.6307H84.2127V47.3672H78.9492V52.6307Z" fill="#ECB276"/>
<path d="M115.789 52.6307H121.053V47.3672H115.789V52.6307Z" fill="#231F20"/>
<path d="M105.262 52.6307H110.525V47.3672H105.262V52.6307Z" fill="#AA4E4C"/>
<path d="M110.527 52.6307H115.791V47.3672H110.527V52.6307Z" fill="#AA4E4C"/>
<path d="M100 52.6307H105.264V47.3672H100V52.6307Z" fill="#AA4E4C"/>
<path d="M21.0513 52.6307H26.3143V47.3672H21.0513V52.6307Z" fill="#AA4E4C"/>
<path d="M89.4727 52.6307H94.7348V47.3672H89.4727V52.6307Z" fill="#ECB276"/>
<path d="M94.7348 52.6307H99.9979V47.3672H94.7348V52.6307Z" fill="#AA4E4C"/>
<path d="M10.5273 47.3677H15.7908V42.1053H10.5278L10.5273 47.3677Z" fill="#231F20"/>
<path d="M21.0513 47.3672L26.313 47.3677V42.1053H21.0508L21.0513 47.3672Z" fill="#EBA469"/>
<path d="M15.7891 47.3672L21.0526 47.3677V42.1053H15.7891V47.3672Z" fill="#AA4E4C"/>
<path d="M84.2109 178.947H89.4758V173.684H84.2109V178.947Z" fill="#231F20"/>
<path d="M57.8945 47.3672H63.1562L63.1567 42.1053H57.8945V47.3672Z" fill="#D46C5B"/>
<path d="M63.1562 47.3672H68.4184V42.1053H63.1567L63.1562 47.3672Z" fill="#D46C5B"/>
<path d="M68.4219 47.3672H73.6854V42.1053H68.4219V47.3672Z" fill="#AA4E4C"/>
<path d="M73.6838 47.3672H78.9473V42.1054H73.6838V47.3672Z" fill="#AA4E4C"/>
<path d="M52.6328 47.3672H57.8945V42.1053H52.6328V47.3672Z" fill="#AA4E4C"/>
<path d="M31.5781 47.3672H36.8416V42.1054H31.5781L31.5781 47.3672Z" fill="#AA4E4C"/>
<path d="M36.8438 47.3672H42.1055V42.1053H36.8438V47.3672Z" fill="#AA4E4C"/>
<path d="M42.1055 47.3672L47.369 47.3677V42.1055L42.1055 42.1053V47.3672Z" fill="#AA4E4C"/>
<path d="M47.3672 47.3672H52.6307V42.1053H47.3672V47.3672Z" fill="#AA4E4C"/>
<path d="M121.051 168.42H126.313V163.156H121.051V168.42Z" fill="#231F20"/>
<path d="M78.9492 47.3672H84.2127V42.1053H78.9492V47.3672Z" fill="#AA4E4C"/>
<path d="M26.3164 47.3672H31.5799V42.1053H26.3164V47.3672Z" fill="#EBA469"/>
<path d="M126.316 142.104H131.58V136.842H126.316V142.104Z" fill="#231F20"/>
<path d="M126.316 168.42H131.58V163.156H126.316V168.42Z" fill="#231F20"/>
<path d="M126.316 115.789H131.58V110.525H126.316V115.789Z" fill="#AA4E4C"/>
<path d="M126.316 126.316H131.58V121.051H126.316V126.316Z" fill="#AA4E4C"/>
<path d="M126.316 136.842H131.58V131.578H126.316V136.842Z" fill="#AA4E4C"/>
<path d="M126.316 131.578H131.58V126.316H126.316V131.578Z" fill="#AA4E4C"/>
<path d="M126.316 121.051H131.58V115.789H126.316V121.051Z" fill="#AA4E4C"/>
<path d="M105.262 178.947H110.525V173.684H105.262V178.947Z" fill="#AA4E4C"/>
<path d="M94.7348 178.947L99.9979 178.947V173.684H94.7344L94.7348 178.947Z" fill="#231F20"/>
<path d="M100 178.947H105.263V173.684H100V178.947Z" fill="#AA4E4C"/>
<path d="M126.316 173.683H131.58V168.42H126.316V173.683Z" fill="#E7E3E2"/>
<path d="M89.4727 178.947H94.7348L94.7344 173.684H89.4727V178.947Z" fill="#231F20"/>
<path d="M84.2109 47.3672H89.4758V42.1053H84.2109V47.3672Z" fill="#AA4E4C"/>
<path d="M126.316 178.947H131.58V173.683H126.316V178.947Z" fill="#E7E3E2"/>
<path d="M121.051 178.947H126.313V173.684H121.051V178.947Z" fill="#E7E3E2"/>
<path d="M115.789 178.947H121.053V173.684H115.789V178.947Z" fill="#AA4E4C"/>
<path d="M110.527 178.947H115.791V173.684H110.527V178.947Z" fill="#231F20"/>
<path d="M121.051 47.3677H126.313V42.1053H121.051V47.3677Z" fill="#231F20"/>
<path d="M110.527 47.3672H115.791V42.1053H110.527V47.3672Z" fill="#EBA469"/>
<path d="M115.789 47.3672H121.053V42.1053H115.789V47.3672Z" fill="#AA4E4C"/>
<path d="M105.262 47.3672H110.525V42.1054H105.262V47.3672Z" fill="#EBA469"/>
<path d="M94.7348 47.3672H99.9979V42.1053H94.7348V47.3672Z" fill="#AA4E4C"/>
<path d="M89.4727 47.3672H94.7348V42.1053H89.4727V47.3672Z" fill="#AA4E4C"/>
<path d="M100 47.3672H105.264L105.263 42.1054H100L100 47.3672Z" fill="#AA4E4C"/>
<path d="M126.316 110.525H131.58V105.264H126.316V110.525Z" fill="#D46C5B"/>
<path d="M126.316 105.264H131.58V100H126.316V105.264Z" fill="#231F20"/>
<path d="M121.051 136.842H126.313V131.579H121.051V136.842Z" fill="#AA4E4C"/>
<path d="M10.5273 147.368H15.7908V142.104H10.5273V147.368Z" fill="#231F20"/>
<path d="M10.5273 121.051H15.7908V115.789H10.5273V121.051Z" fill="#AA4E4C"/>
<path d="M10.5273 136.842H15.7908V131.578H10.5273V136.842Z" fill="#AA4E4C"/>
<path d="M10.5273 131.578H15.7908V126.316H10.5273V131.578Z" fill="#AA4E4C"/>
<path d="M10.5273 126.316H15.7908V121.051H10.5273V126.316Z" fill="#AA4E4C"/>
<path d="M10.5273 142.104H15.7908V136.842H10.5273V142.104Z" fill="#AA4E4C"/>
<path d="M10.5273 84.2088H15.7908V78.9453H10.5273V84.2088Z" fill="#231F20"/>
<path d="M10.5273 78.9471H15.7908V73.6836H10.5273V78.9471Z" fill="#231F20"/>
<path d="M10.5273 89.4725H15.7908V84.2088H10.5273V89.4725Z" fill="#231F20"/>
<path d="M10.5273 68.4204H15.7908V63.1582H10.5273V68.4204Z" fill="#231F20"/>
<path d="M10.5273 73.6836H15.7908V68.4204H10.5273V73.6836Z" fill="#231F20"/>
<path d="M10.5273 110.526H15.7908V105.264H10.5273V110.526Z" fill="#231F20"/>
<path d="M10.5273 105.264H15.7908V100H10.5273V105.264Z" fill="#231F20"/>
<path d="M10.5273 94.7362H15.7908V89.4725H10.5273V94.7362Z" fill="#231F20"/>
<path d="M10.5273 115.789H15.7908V110.526H10.5273V115.789Z" fill="#D46C5B"/>
<path d="M10.5273 99.9985H15.7908V94.7362H10.5273V99.9985Z" fill="#231F20"/>
<path d="M94.7344 168.42H99.9979V163.156L94.7348 163.157L94.7344 168.42Z" fill="#843539"/>
<path d="M89.4727 168.42H94.7344L94.7348 163.157H89.4727V168.42Z" fill="#843539"/>
<path d="M84.2109 168.42H89.4758V163.157H84.2109V168.42Z" fill="#AA4E4C"/>
<path d="M100 168.42H105.264V163.156H100V168.42Z" fill="#231F20"/>
<path d="M78.9492 168.42H84.2127V163.157H78.9492V168.42Z" fill="#AA4E4C"/>
<path d="M73.6838 168.42H78.9473V163.157H73.6838V168.42Z" fill="#AA4E4C"/>
<path d="M115.789 168.42H121.053V163.156H115.789V168.42Z" fill="#231F20"/>
<path d="M110.527 168.42H115.791V163.156H110.527V168.42Z" fill="#AA4E4C"/>
<path d="M105.262 168.42H110.525V163.156H105.262V168.42Z" fill="#AA4E4C"/>
<path d="M36.8438 168.42H42.1073V163.157H36.8438V168.42Z" fill="#231F20"/>
<path d="M31.5781 168.42H36.8416V163.157H31.5781L31.5781 168.42Z" fill="#231F20"/>
<path d="M42.1055 168.42H47.3677L47.3672 163.157H42.1055V168.42Z" fill="#231F20"/>
<path d="M52.6328 168.42H57.8963V163.157H52.6328V168.42Z" fill="#843539"/>
<path d="M57.8945 168.42H63.1567V163.157H57.8945V168.42Z" fill="#AA4E4C"/>
<path d="M63.1567 168.42H68.4184V163.157H63.1567V168.42Z" fill="#AA4E4C"/>
<path d="M47.3677 168.42H52.6307V163.157H47.3672L47.3677 168.42Z" fill="#843539"/>
<path d="M68.4219 168.42H73.6854V163.157H68.4219V168.42Z" fill="#AA4E4C"/>
<path d="M110.527 105.264H115.791V100H110.527V105.264Z" fill="#231F20"/>
<path d="M110.527 115.789H115.791V110.525H110.527V115.789Z" fill="#231F20"/>
<path d="M15.7891 63.1582H21.0526V57.8945H15.7891V63.1582Z" fill="#231F20"/>
<path d="M110.527 121.051H115.791V115.789H110.527V121.051Z" fill="#231F20"/>
<path d="M110.527 131.579H115.791V126.316H110.527V131.579Z" fill="#231F20"/>
<path d="M110.527 126.316H115.791V121.051H110.527V126.316Z" fill="#231F20"/>
<path d="M110.527 84.2088H115.791V78.9453H110.527V84.2088Z" fill="#AA4E4C"/>
<path d="M110.527 99.9985H115.791V94.7363H110.527V99.9985Z" fill="#E7E3E2"/>
<path d="M110.527 89.4725H115.791V84.2088H110.527V89.4725Z" fill="#AA4E4C"/>
<path d="M110.527 78.9471H115.791V73.6836H110.527V78.9471Z" fill="#AA4E4C"/>
<path d="M110.527 94.7363H115.791V89.4725H110.527V94.7363Z" fill="#AA4E4C"/>
<path d="M105.262 163.156H110.525L110.525 157.894H105.262L105.262 163.156Z" fill="#231F20"/>
<path d="M100 163.156H105.264V157.894H100V163.156Z" fill="#231F20"/>
<path d="M110.527 163.156H115.791V157.895H110.527V163.156Z" fill="#231F20"/>
<path d="M94.7348 163.157L99.9979 163.156V157.894H94.7344L94.7348 163.157Z" fill="#843539"/>
<path d="M121.051 173.684H126.313V168.42H121.051V173.684Z" fill="#AA4E4C"/>
<path d="M110.527 142.104H115.791V136.842H110.527V142.104Z" fill="#E7E3E2"/>
<path d="M110.527 147.367H115.791V142.104H110.527V147.367Z" fill="#E7E3E2"/>
<path d="M110.527 157.895H115.791V152.631H110.527V157.895Z" fill="#231F20"/>
<path d="M110.527 136.842H115.791V131.579H110.527V136.842Z" fill="#231F20"/>
<path d="M110.527 110.525H115.791V105.264H110.527V110.525Z" fill="#7D3336"/>
<path d="M47.3672 63.1582H52.6307V57.8945H47.3672V63.1582Z" fill="white"/>
<path d="M42.1055 63.1582H47.3672V57.8945H42.1055V63.1582Z" fill="white"/>
<path d="M52.6328 63.1582H57.8963V57.8945H52.6328V63.1582Z" fill="white"/>
<path d="M68.4219 63.1581H73.6854V57.8946H68.4219V63.1581Z" fill="white"/>
<path d="M63.1562 63.1582H68.4184V57.8945H63.1562V63.1582Z" fill="#ECB276"/>
<path d="M57.8945 63.1582H63.1562V57.8945H57.8945V63.1582Z" fill="#ECB276"/>
<path d="M26.3164 63.1582H31.5799V57.8945H26.3164V63.1582Z" fill="#ECB276"/>
<path d="M36.8438 63.1582H42.1073V57.8945H36.8438V63.1582Z" fill="white"/>
<path d="M21.0508 63.1582H26.313V57.8945H21.0508V63.1582Z" fill="#AA4E4C"/>
<path d="M31.5781 63.1581H36.8416V57.8946H31.5781V63.1581Z" fill="white"/>
<path d="M78.9492 63.1582H84.2127V57.8945H78.9492V63.1582Z" fill="white"/>
<path d="M110.527 63.158H115.791V57.8945H110.527V63.158Z" fill="#AA4E4C"/>
<path d="M100 63.1581H105.263V57.8946H100V63.1581Z" fill="#ECB276"/>
<path d="M73.6838 63.1581H78.9473V57.8946H73.6838V63.1581Z" fill="white"/>
<path d="M110.527 68.4204H115.791V63.158H110.527V68.4204Z" fill="#AA4E4C"/>
<path d="M105.262 63.1581H110.525V57.8946H105.262V63.1581Z" fill="#AA4E4C"/>
<path d="M94.7348 63.1582H99.9979V57.8945H94.7344L94.7348 63.1582Z" fill="white"/>
<path d="M110.527 73.6836H115.791V68.4204H110.527V73.6836Z" fill="#AA4E4C"/>
<path d="M84.2109 63.1582H89.4758V57.8945H84.2109V63.1582Z" fill="white"/>
<path d="M89.4727 63.1582H94.7348L94.7344 57.8945H89.4727V63.1582Z" fill="white"/>
<path d="M110.527 152.631H115.791V147.367H110.527V152.631Z" fill="#B3AFAE"/>
<path d="M5.26562 126.316L10.5273 126.316V121.051L5.26562 121.051V126.316Z" fill="#AA4E4C"/>
<path d="M5.26562 131.579L10.5273 131.578V126.316L5.26562 126.316V131.579Z" fill="#AA4E4C"/>
<path d="M5.26562 136.842H10.5273V131.578L5.26562 131.579V136.842Z" fill="#231F20"/>
<path d="M5.26562 142.104L10.5273 142.104V136.842H5.26562V142.104Z" fill="#231F20"/>
<path d="M5.26562 121.051L10.5273 121.051V115.789H5.26562V121.051Z" fill="#AA4E4C"/>
<path d="M5.26562 110.526H10.5273V105.264H5.26562V110.526Z" fill="#231F20"/>
<path d="M5.26562 115.789H10.5273V110.526H5.26562V115.789Z" fill="#D46C5B"/>
<path d="M94.7344 173.684H99.9979V168.42H94.7344V173.684Z" fill="#231F20"/>
<path d="M84.2109 173.684H89.4758V168.42H84.2109V173.684Z" fill="#843539"/>
<path d="M89.4727 173.684H94.7344V168.42H89.4727V173.684Z" fill="#843539"/>
<path d="M78.9492 173.684H84.2127V168.42H78.9492V173.684Z" fill="#843539"/>
<path d="M73.6838 173.684H78.9473V168.42H73.6838V173.684Z" fill="#843539"/>
<path d="M110.527 173.684H115.791V168.42H110.527V173.684Z" fill="#AA4E4C"/>
<path d="M115.789 173.684H121.053V168.42H115.789V173.684Z" fill="#AA4E4C"/>
<path d="M68.4219 173.684H73.6854V168.42H68.4219V173.684Z" fill="#843539"/>
<path d="M105.262 173.684H110.525V168.42H105.262V173.684Z" fill="#231F20"/>
<path d="M100 173.684H105.263L105.264 168.42H100L100 173.684Z" fill="#843539"/>
<path d="M57.8945 173.684H63.1567V168.42H57.8945V173.684Z" fill="#843539"/>
<path d="M52.6328 173.684H57.8963V168.42H52.6328V173.684Z" fill="#843539"/>
<path d="M63.1567 173.684H68.4184V168.42H63.1567V173.684Z" fill="#843539"/>
<path d="M47.3672 173.684H52.6307V168.42H47.3677L47.3672 173.684Z" fill="#231F20"/>
<path d="M115.789 73.6834H121.053V68.4199H115.789V73.6834Z" fill="#231F20"/>
<path d="M115.789 78.9471H121.053V73.6834H115.789V78.9471Z" fill="#231F20"/>
<path d="M115.789 84.2088H121.053V78.9453H115.789V84.2088Z" fill="#231F20"/>
<path d="M115.789 94.7362H121.053V89.4727H115.789V94.7362Z" fill="#231F20"/>
<path d="M105.262 57.8946H110.525V52.6307H105.262V57.8946Z" fill="#AA4E4C"/>
<path d="M115.789 63.158H121.053V57.8945H115.789V63.158Z" fill="#231F20"/>
<path d="M115.789 68.4199H121.053V63.158H115.789V68.4199Z" fill="#231F20"/>
<path d="M110.527 57.8945H115.791V52.6307H110.527V57.8945Z" fill="#231F20"/>
<path d="M115.789 99.9985H121.053V94.7362H115.789V99.9985Z" fill="#231F20"/>
<path d="M115.789 89.4727H121.053V84.2088H115.789V89.4727Z" fill="#231F20"/>
<path d="M115.789 131.579H121.053V126.316H115.789V131.579Z" fill="#AA4E4C"/>
<path d="M115.789 142.104H121.053V136.842H115.789V142.104Z" fill="#231F20"/>
<path d="M115.789 136.842H121.053V131.579H115.789V136.842Z" fill="#AA4E4C"/>
<path d="M115.789 147.367H121.053V142.104H115.789V147.367Z" fill="#E7E3E2"/>
<path d="M115.789 115.789H121.053V110.525H115.789V115.789Z" fill="#AA4E4C"/>
<path d="M115.789 110.525H121.053V105.264H115.789V110.525Z" fill="#231F20"/>
<path d="M115.789 105.264H121.053V100H115.789V105.264Z" fill="#231F20"/>
<path d="M115.789 126.316H121.053V121.051H115.789V126.316Z" fill="#AA4E4C"/>
<path d="M115.789 121.051H121.053V115.789H115.789V121.051Z" fill="#AA4E4C"/>
<path d="M52.6328 57.8945H57.8963V52.6307H52.6328V57.8945Z" fill="#ECB276"/>
<path d="M26.3164 57.8945H31.5799V52.6307H26.3164V57.8945Z" fill="#AA4E4C"/>
<path d="M31.5781 57.8946H36.8416V52.6307H31.5781L31.5781 57.8946Z" fill="#ECB276"/>
<path d="M21.0508 57.8945H26.313V52.6309L21.0513 52.6307L21.0508 57.8945Z" fill="#AA4E4C"/>
<path d="M36.8438 57.8945H42.1073V52.6307H36.8438V57.8945Z" fill="white"/>
<path d="M42.1055 57.8945H47.3672V52.6307H42.1055V57.8945Z" fill="white"/>
<path d="M47.3672 57.8945H52.6307V52.6307H47.3672V57.8945Z" fill="white"/>
<path d="M15.7891 57.8945H21.0526V52.6309L15.7891 52.6307V57.8945Z" fill="#231F20"/>
<path d="M115.789 152.631H121.053V147.367H115.789V152.631Z" fill="#231F20"/>
<path d="M57.8945 57.8945H63.1562V52.6307H57.8945V57.8945Z" fill="#7D3336"/>
<path d="M78.9492 57.8945H84.2127V52.6307H78.9492V57.8945Z" fill="white"/>
<path d="M84.2109 57.8945H89.4758V52.6307H84.2109V57.8945Z" fill="white"/>
<path d="M89.4727 57.8945H94.7344L94.7348 52.6307H89.4727V57.8945Z" fill="white"/>
<path d="M94.7344 57.8945H99.9979V52.6307H94.7348L94.7344 57.8945Z" fill="#ECB276"/>
<path d="M100 57.8946H105.263L105.264 52.6307H100L100 57.8946Z" fill="#AA4E4C"/>
<path d="M63.1562 57.8945L68.4198 57.8944V52.6309L63.1562 52.6307V57.8945Z" fill="#7D3336"/>
<path d="M68.4219 57.8946H73.6854L73.6854 52.6307H68.4219L68.4219 57.8946Z" fill="#ECB276"/>
<path d="M73.6838 57.8946H78.9473V52.6307H73.6838V57.8946Z" fill="white"/>
<path d="M110.527 10.5259H115.791V5.26367H110.527V10.5259Z" fill="#D46C5B"/>
<path d="M105.262 10.5257H110.525V5.26352H105.262V10.5257Z" fill="#231F20"/>
<path d="M115.789 10.5259H121.053V5.26367H115.789V10.5259Z" fill="#231F20"/>
<path d="M21.0508 10.5259H26.313V5.26367H21.0508V10.5259Z" fill="#231F20"/>
<path d="M15.7891 10.5259H21.0526V5.26367H15.7891V10.5259Z" fill="#231F20"/>
<path d="M10.5278 15.7891H15.7908V10.5254H10.5273L10.5278 15.7891Z" fill="#231F20"/>
<path d="M21.0508 15.7891H26.313V10.5259H21.0508V15.7891Z" fill="#D46C5B"/>
<path d="M15.7891 15.7891H21.0526V10.5259H15.7891V15.7891Z" fill="#D46C5B"/>
<path d="M26.3164 15.7891H31.5799V10.5254H26.3164V15.7891Z" fill="#231F20"/>
<path d="M115.789 15.7891H121.053V10.5259H115.789V15.7891Z" fill="#AA4E4C"/>
<path d="M121.051 15.7891H126.313V10.5254H121.051V15.7891Z" fill="#231F20"/>
<path d="M100 15.7892H105.263L105.264 10.5254H100L100 15.7892Z" fill="#231F20"/>
<path d="M110.527 15.7891H115.791V10.5259H110.527V15.7891Z" fill="#AA4E4C"/>
<path d="M105.262 15.7892H110.525V10.5257H105.262V15.7892Z" fill="#D46C5B"/>
<path d="M110.527 5.26367H115.791V0H110.527V5.26367Z" fill="#231F20"/>
</svg>
