<svg width="401" height="183" viewBox="0 0 401 183" fill="none" xmlns="http://www.w3.org/2000/svg">
<path d="M400.011 156.517V169.545H386.68V156.517H400.011Z" fill="#CEE0E0"/>
<path d="M400.011 143.456V156.518H386.68V143.456H400.011Z" fill="#CEE0E0"/>
<path d="M400.011 130.419V143.459H386.68V130.419H400.011Z" fill="#CEE0E0"/>
<path d="M386.683 169.547V182.586H373.352V169.547H386.683Z" fill="#CEE0E0"/>
<path d="M386.683 156.517V169.545H373.352V156.517H386.683Z" fill="#CEE0E0"/>
<path d="M386.683 143.456V156.518H373.352V143.456H386.683Z" fill="#CEE0E0"/>
<path d="M386.683 130.419V143.459H373.352V130.419H386.683Z" fill="#F2F2F2"/>
<path d="M386.683 117.379V130.418H373.352V117.379H386.683Z" fill="white"/>
<path d="M373.352 169.547V182.586H360.032V169.547H373.352Z" fill="#CEE0E0"/>
<path d="M373.352 156.517V169.545H360.032V156.517H373.352Z" fill="#CEE0E0"/>
<path d="M373.352 143.456V156.518H360.032V143.456H373.352Z" fill="#F2F2F2"/>
<path d="M373.352 130.419V143.459H360.032V130.419H373.352Z" fill="#F2F2F2"/>
<path d="M373.352 117.379V130.418H360.032V117.379H373.352Z" fill="white"/>
<path d="M373.351 104.336V117.376H360.032V104.336H373.351Z" fill="white"/>
<path d="M373.351 91.2993V104.339H360.032V91.2993H373.351Z" fill="white"/>
<path d="M373.351 78.2377V91.3003H360.032V78.2377H373.351Z" fill="white"/>
<path d="M360.035 169.547V182.586H346.704V169.547H360.035Z" fill="#CEE0E0"/>
<path d="M360.035 156.517V169.545H346.704V156.517H360.035Z" fill="#CEE0E0"/>
<path d="M360.035 143.456V156.518H346.704V143.456H360.035Z" fill="#F2F2F2"/>
<path d="M360.035 130.419V143.459H346.704V130.419H360.035Z" fill="#F2F2F2"/>
<path d="M360.035 117.379V130.418H346.704V117.379H360.035Z" fill="#F2F2F2"/>
<path d="M360.035 104.336V117.376H346.704V104.336H360.035Z" fill="#F2F2F2"/>
<path d="M360.035 91.2993V104.339H346.704V91.2993H360.035Z" fill="#F2F2F2"/>
<path d="M360.035 78.2377V91.3003H346.704V78.2377H360.035Z" fill="white"/>
<path d="M360.035 65.2105V78.2377H346.704V65.2105H360.035Z" fill="white"/>
<path d="M346.704 156.517V169.545H333.35V156.517H346.704Z" fill="#CEE0E0"/>
<path d="M346.704 143.456V156.518H333.35V143.456H346.704Z" fill="#CEE0E0"/>
<path d="M346.704 130.419V143.459H333.35V130.419H346.704Z" fill="#F2F2F2"/>
<path d="M346.704 117.379V130.418H333.35V117.379H346.704Z" fill="#F2F2F2"/>
<path d="M346.704 104.336V117.376H333.35V104.336H346.704Z" fill="#F2F2F2"/>
<path d="M346.704 91.2993V104.339H333.35V91.2993H346.704Z" fill="#F2F2F2"/>
<path d="M346.704 78.2377V91.3003H333.35V78.2377H346.704Z" fill="#F2F2F2"/>
<path d="M346.704 65.2105V78.2377H333.35V65.2105H346.704Z" fill="white"/>
<path d="M333.344 169.547V182.586H320.013V169.547H333.344Z" fill="#CEE0E0"/>
<path d="M333.344 156.517V169.545H320.013V156.517H333.344Z" fill="#CEE0E0"/>
<path d="M333.344 143.456V156.518H320.013V143.456H333.344Z" fill="#CEE0E0"/>
<path d="M333.344 130.419V143.459H320.013V130.419H333.344Z" fill="#F2F2F2"/>
<path d="M333.344 117.379V130.418H320.013V117.379H333.344Z" fill="#F2F2F2"/>
<path d="M333.344 104.336V117.376H320.013V104.336H333.344Z" fill="#CEE0E0"/>
<path d="M333.344 91.2993V104.339H320.013V91.2993H333.344Z" fill="#CEE0E0"/>
<path d="M333.344 78.2377V91.3003H320.013V78.2377H333.344Z" fill="#F2F2F2"/>
<path d="M333.344 65.2105V78.2377H320.013V65.2105H333.344Z" fill="white"/>
<path d="M333.344 52.168V65.2076H320.013V52.168H333.344Z" fill="white"/>
<path d="M320.016 169.547V182.586H306.685V169.547H320.016Z" fill="#CEE0E0"/>
<path d="M320.016 156.517V169.545H306.685V156.517H320.016Z" fill="#CEE0E0"/>
<path d="M320.016 143.456V156.518H306.685V143.456H320.016Z" fill="#CEE0E0"/>
<path d="M320.016 130.419V143.459H306.685V130.419H320.016Z" fill="#F2F2F2"/>
<path d="M320.016 117.379V130.418H306.685V117.379H320.016Z" fill="#F2F2F2"/>
<path d="M320.016 104.336V117.376H306.685V104.336H320.016Z" fill="#CEE0E0"/>
<path d="M320.016 91.2993V104.339H306.685V91.2993H320.016Z" fill="#F2F2F2"/>
<path d="M320.016 78.2377V91.3003H306.685V78.2377H320.016Z" fill="#F2F2F2"/>
<path d="M320.016 65.2105V78.2377H306.685V65.2105H320.016Z" fill="#F2F2F2"/>
<path d="M320.016 52.168V65.2076H306.685V52.168H320.016Z" fill="white"/>
<path d="M306.685 169.547V182.586H293.365V169.547H306.685Z" fill="#CEE0E0"/>
<path d="M306.685 156.517V169.545H293.365V156.517H306.685Z" fill="#CEE0E0"/>
<path d="M306.685 143.456V156.518H293.365V143.456H306.685Z" fill="#CEE0E0"/>
<path d="M306.685 130.419V143.459H293.365V130.419H306.685Z" fill="#CEE0E0"/>
<path d="M306.685 117.379V130.418H293.365V117.379H306.685Z" fill="#CEE0E0"/>
<path d="M306.685 104.336V117.376H293.365V104.336H306.685Z" fill="#CEE0E0"/>
<path d="M306.685 91.2993V104.339H293.365V91.2993H306.685Z" fill="#CEE0E0"/>
<path d="M306.685 78.2377V91.3003H293.365V78.2377H306.685Z" fill="#F2F2F2"/>
<path d="M306.685 65.2105V78.2377H293.365L293.365 65.2105H306.685Z" fill="#F2F2F2"/>
<path d="M306.685 52.168V65.2076H293.365V52.168H306.685Z" fill="white"/>
<path d="M293.368 169.547V182.586H280.037V169.547H293.368Z" fill="#CEE0E0"/>
<path d="M293.368 156.517V169.545H280.037V156.517H293.368Z" fill="#CEE0E0"/>
<path d="M293.368 143.456V156.518H280.037V143.456H293.368Z" fill="#CEE0E0"/>
<path d="M293.368 130.419V143.459H280.037V130.419H293.368Z" fill="#CEE0E0"/>
<path d="M293.368 117.379V130.418H280.037V117.379H293.368Z" fill="#CEE0E0"/>
<path d="M293.368 104.336V117.376H280.037V104.336H293.368Z" fill="#F2F2F2"/>
<path d="M293.368 91.2993V104.339H280.037V91.2993H293.368Z" fill="#CEE0E0"/>
<path d="M293.368 78.2377V91.3003H280.037V78.2377H293.368Z" fill="#F2F2F2"/>
<path d="M293.368 65.2105V78.2377H280.037V65.2105H293.368Z" fill="#F2F2F2"/>
<path d="M293.368 52.168V65.2076H280.037V52.168H293.368Z" fill="white"/>
<path d="M293.368 39.1275V52.167H280.037V39.1275H293.368Z" fill="white"/>
<path d="M280.037 169.547V182.586H266.683V169.547H280.037Z" fill="#CEE0E0"/>
<path d="M280.037 156.517V169.545H266.683V156.517H280.037Z" fill="#CEE0E0"/>
<path d="M280.037 143.456V156.518H266.683V143.456H280.037Z" fill="#CEE0E0"/>
<path d="M280.037 130.419V143.459H266.683V130.419H280.037Z" fill="#CEE0E0"/>
<path d="M280.037 117.379V130.418H266.683V117.379H280.037Z" fill="#F2F2F2"/>
<path d="M280.037 104.336V117.376H266.683V104.336H280.037Z" fill="#F2F2F2"/>
<path d="M280.037 91.2993V104.339H266.683V91.2993H280.037Z" fill="#F2F2F2"/>
<path d="M280.037 78.2377V91.3003H266.683V78.2377H280.037Z" fill="#F2F2F2"/>
<path d="M280.037 65.2105V78.2377H266.683V65.2105H280.037Z" fill="#F2F2F2"/>
<path d="M280.037 52.168V65.2076H266.683V52.168H280.037Z" fill="#F2F2F2"/>
<path d="M280.037 39.1275V52.167H266.683V39.1275H280.037Z" fill="white"/>
<path d="M280.037 26.0907V39.1302H266.683V26.0907H280.037Z" fill="white"/>
<path d="M280.037 13.0291V26.0917H266.683V13.0291H280.037Z" fill="white"/>
<path d="M266.677 156.517V169.545H253.346V156.517H266.677Z" fill="#CEE0E0"/>
<path d="M266.677 143.456V156.518H253.346V143.456H266.677Z" fill="#CEE0E0"/>
<path d="M266.677 130.419V143.459H253.346V130.419H266.677Z" fill="#F2F2F2"/>
<path d="M266.677 117.379V130.418H253.346V117.379H266.677Z" fill="#F2F2F2"/>
<path d="M266.677 104.336V117.376H253.346V104.336H266.677Z" fill="#F2F2F2"/>
<path d="M266.677 91.2993V104.339H253.346V91.2993H266.677Z" fill="#F2F2F2"/>
<path d="M266.677 78.2377V91.3003H253.346V78.2377H266.677Z" fill="#F2F2F2"/>
<path d="M266.677 65.2105V78.2377H253.346V65.2105H266.677Z" fill="#F2F2F2"/>
<path d="M266.677 52.168V65.2076H253.346V52.168H266.677Z" fill="#F2F2F2"/>
<path d="M266.677 39.1275V52.167H253.346V39.1275H266.677Z" fill="#F2F2F2"/>
<path d="M266.677 26.0907V39.1302H253.346V26.0907H266.677Z" fill="#F2F2F2"/>
<path d="M266.677 13.0291V26.0917H253.346V13.0291H266.677Z" fill="white"/>
<path d="M266.677 0V13.028H253.346V0H266.677Z" fill="white"/>
<path d="M253.349 156.517V169.545H240.018V156.517H253.349Z" fill="#CEE0E0"/>
<path d="M253.349 143.456V156.518H240.018V143.456H253.349Z" fill="#CEE0E0"/>
<path d="M253.349 130.419V143.459H240.018V130.419H253.349Z" fill="#F2F2F2"/>
<path d="M253.349 117.379V130.418H240.018V117.379H253.349Z" fill="#F2F2F2"/>
<path d="M253.349 104.336V117.376H240.018V104.336H253.349Z" fill="white"/>
<path d="M253.349 91.2993V104.339H240.018V91.2993H253.349Z" fill="white"/>
<path d="M253.349 78.2377V91.3003H240.018V78.2377H253.349Z" fill="white"/>
<path d="M253.349 65.2105V78.2377H240.018V65.2105H253.349Z" fill="#F2F2F2"/>
<path d="M253.349 52.168V65.2076H240.018V52.168H253.349Z" fill="#F2F2F2"/>
<path d="M253.349 39.1275V52.167H240.018V39.1275H253.349Z" fill="#F2F2F2"/>
<path d="M253.349 26.0907V39.1302H240.018V26.0907H253.349Z" fill="#F2F2F2"/>
<path d="M253.349 13.0291V26.0917H240.018V13.0291H253.349Z" fill="#F2F2F2"/>
<path d="M253.349 0V13.028H240.018V0H253.349Z" fill="white"/>
<path d="M240.018 156.517V169.545H226.699V156.517H240.018Z" fill="#CEE0E0"/>
<path d="M240.018 143.456V156.518H226.699V143.456H240.018Z" fill="#F2F2F2"/>
<path d="M240.018 130.419V143.459H226.699V130.419H240.018Z" fill="#F2F2F2"/>
<path d="M240.018 117.379V130.418H226.699V117.379H240.018Z" fill="#F2F2F2"/>
<path d="M240.018 104.336V117.376H226.699V104.336H240.018Z" fill="white"/>
<path d="M240.018 91.2993V104.339H226.699V91.2993H240.018Z" fill="white"/>
<path d="M240.018 78.2377V91.3003H226.699V78.2377H240.018Z" fill="white"/>
<path d="M240.018 65.2105L240.018 78.2385L226.699 78.2377V65.2105H240.018Z" fill="#F2F2F2"/>
<path d="M240.018 52.168V65.2076H226.699V52.168H240.018Z" fill="#F2F2F2"/>
<path d="M240.018 39.1275V52.167H226.699V39.1275H240.018Z" fill="#F2F2F2"/>
<path d="M240.018 26.0907V39.1302H226.699V26.0907H240.018Z" fill="#F2F2F2"/>
<path d="M240.018 13.0291V26.0917H226.699V13.0291H240.018Z" fill="#F2F2F2"/>
<path d="M240.018 0V13.028H226.699V0H240.018Z" fill="white"/>
<path d="M226.702 156.517V169.545H213.371V156.517H226.702Z" fill="#CEE0E0"/>
<path d="M226.702 143.456V156.518H213.371V143.456H226.702Z" fill="#F2F2F2"/>
<path d="M226.702 130.419V143.459H213.371V130.419H226.702Z" fill="#F2F2F2"/>
<path d="M226.702 117.379V130.418H213.371V117.379H226.702Z" fill="#F2F2F2"/>
<path d="M226.702 104.336V117.376H213.371V104.336H226.702Z" fill="white"/>
<path d="M226.702 91.2993V104.339H213.371V91.2993H226.702Z" fill="white"/>
<path d="M226.702 78.2377V91.3003H213.371V78.2377H226.702Z" fill="#F2F2F2"/>
<path d="M226.702 65.2105V78.2377H213.371V65.2105H226.702Z" fill="#F2F2F2"/>
<path d="M226.702 52.168V65.2076H213.371V52.168H226.702Z" fill="#F2F2F2"/>
<path d="M226.702 39.1275V52.167H213.371V39.1275H226.702Z" fill="white"/>
<path d="M226.702 26.0907V39.1302H213.371V26.0907H226.702Z" fill="white"/>
<path d="M226.702 13.0291V26.0917H213.371V13.0291H226.702Z" fill="#F2F2F2"/>
<path d="M226.702 0V13.028H213.371V0H226.702Z" fill="#F2F2F2"/>
<path d="M213.371 156.517V169.545H200.017V156.517H213.371Z" fill="#CEE0E0"/>
<path d="M213.371 143.456V156.518H200.017V143.456H213.371Z" fill="#CEE0E0"/>
<path d="M213.371 130.419V143.459H200.017V130.419H213.371Z" fill="#F2F2F2"/>
<path d="M213.371 117.379V130.418H200.017V117.379H213.371Z" fill="#F2F2F2"/>
<path d="M213.371 104.336V117.376H200.017V104.336H213.371Z" fill="#F2F2F2"/>
<path d="M213.371 91.2993V104.339H200.017V91.2993H213.371Z" fill="#F2F2F2"/>
<path d="M213.371 78.2377V91.3003H200.017V78.2377H213.371Z" fill="#F2F2F2"/>
<path d="M213.371 65.2105V78.2377H200.017V65.2105H213.371Z" fill="#CEE0E0"/>
<path d="M213.371 52.168V65.2076H200.017V52.168H213.371Z" fill="#F2F2F2"/>
<path d="M213.371 39.1275V52.167H200.017V39.1275H213.371Z" fill="white"/>
<path d="M213.371 26.0907V39.1302H200.017V26.0907H213.371Z" fill="white"/>
<path d="M213.371 13.0291V26.0917H200.017V13.0291H213.371Z" fill="#F2F2F2"/>
<path d="M213.371 0V13.028H200.017V0H213.371Z" fill="#F2F2F2"/>
<path d="M200.011 156.517V169.545H186.68V156.517H200.011Z" fill="#CEE0E0"/>
<path d="M200.011 143.456V156.518H186.68V143.456H200.011Z" fill="#CEE0E0"/>
<path d="M200.011 130.419V143.459H186.68V130.419H200.011Z" fill="#F2F2F2"/>
<path d="M200.011 117.379V130.418H186.68V117.379H200.011Z" fill="#F2F2F2"/>
<path d="M200.011 104.336V117.376H186.68V104.336H200.011Z" fill="#F2F2F2"/>
<path d="M200.011 91.2993V104.339H186.68V91.2993H200.011Z" fill="#F2F2F2"/>
<path d="M200.011 78.2377V91.3003H186.68V78.2377H200.011Z" fill="#CEE0E0"/>
<path d="M200.011 65.2105V78.2377H186.68V65.2105H200.011Z" fill="#CEE0E0"/>
<path d="M200.011 52.168V65.2076H186.68V52.168H200.011Z" fill="#F2F2F2"/>
<path d="M200.011 39.1275V52.167H186.68V39.1275H200.011Z" fill="#F2F2F2"/>
<path d="M200.011 26.0907V39.1302H186.68V26.0907H200.011Z" fill="#F2F2F2"/>
<path d="M200.011 13.0291V26.0917H186.68V13.0291H200.011Z" fill="#F2F2F2"/>
<path d="M200.011 0V13.028H186.68V0H200.011Z" fill="white"/>
<path d="M186.683 156.517V169.545H173.352V156.517H186.683Z" fill="#CEE0E0"/>
<path d="M186.683 143.456V156.518H173.352V143.456H186.683Z" fill="#CEE0E0"/>
<path d="M186.683 130.419V143.459H173.352V130.419H186.683Z" fill="#F2F2F2"/>
<path d="M186.683 117.379V130.418H173.352V117.379H186.683Z" fill="#F2F2F2"/>
<path d="M186.683 104.336V117.376H173.352V104.336H186.683Z" fill="#F2F2F2"/>
<path d="M186.683 91.2993V104.339H173.352V91.2993H186.683Z" fill="#CEE0E0"/>
<path d="M186.682 78.2377V91.3003H173.351V78.2377H186.682Z" fill="#CEE0E0"/>
<path d="M186.683 65.2105L186.682 78.2377H173.351L173.352 65.2105H186.683Z" fill="#F2F2F2"/>
<path d="M186.683 52.168V65.2076H173.352V52.168H186.683Z" fill="#F2F2F2"/>
<path d="M186.682 39.1275V52.167H173.351V39.1275H186.682Z" fill="#F2F2F2"/>
<path d="M186.683 26.0907V39.1302H173.352V26.0907H186.683Z" fill="#F2F2F2"/>
<path d="M186.683 13.0291V26.0917H173.352V13.0291H186.683Z" fill="white"/>
<path d="M186.683 0V13.028H173.352V0H186.683Z" fill="white"/>
<path d="M173.352 156.517V169.545H160.032V156.517H173.352Z" fill="#CEE0E0"/>
<path d="M173.352 143.456V156.518H160.032V143.456H173.352Z" fill="#CEE0E0"/>
<path d="M173.352 130.419V143.459H160.032V130.419H173.352Z" fill="#CEE0E0"/>
<path d="M173.352 117.379V130.418H160.032V117.379H173.352Z" fill="#CEE0E0"/>
<path d="M173.352 104.336V117.376H160.032V104.336H173.352Z" fill="#CEE0E0"/>
<path d="M173.352 91.2993V104.339H160.032V91.2993H173.352Z" fill="#CEE0E0"/>
<path d="M173.351 78.2377V91.3003H160.032V78.2377H173.351Z" fill="#CEE0E0"/>
<path d="M173.352 65.2105L173.351 78.2377H160.032V65.2105H173.352Z" fill="#F2F2F2"/>
<path d="M173.352 52.168V65.2076H160.032V52.168H173.352Z" fill="#F2F2F2"/>
<path d="M173.351 39.1275V52.167H160.032V39.1275H173.351Z" fill="#F2F2F2"/>
<path d="M173.352 26.0907V39.1302H160.032V26.0907H173.352Z" fill="#F2F2F2"/>
<path d="M173.352 13.0291V26.0917H160.032V13.0291H173.352Z" fill="white"/>
<path d="M160.035 156.517V169.545H146.704V156.517H160.035Z" fill="#CEE0E0"/>
<path d="M160.035 143.456V156.518H146.704V143.456H160.035Z" fill="#CEE0E0"/>
<path d="M160.035 130.419V143.459H146.704V130.419H160.035Z" fill="#CEE0E0"/>
<path d="M160.035 117.379V130.418H146.704V117.379H160.035Z" fill="#CEE0E0"/>
<path d="M160.035 104.336V117.376H146.704V104.336H160.035Z" fill="#CEE0E0"/>
<path d="M160.035 91.2993V104.339H146.704V91.2993H160.035Z" fill="#CEE0E0"/>
<path d="M160.035 78.2377V91.3003H146.704V78.2377H160.035Z" fill="#CEE0E0"/>
<path d="M160.035 65.2105V78.2377H146.704V65.2105H160.035Z" fill="#F2F2F2"/>
<path d="M160.035 52.168V65.2076H146.704V52.168H160.035Z" fill="#F2F2F2"/>
<path d="M160.035 39.1275V52.167H146.704V39.1275H160.035Z" fill="#F2F2F2"/>
<path d="M160.035 26.0907V39.1302H146.704V26.0907H160.035Z" fill="white"/>
<path d="M160.035 13.0291V26.0917H146.704V13.0291H160.035Z" fill="white"/>
<path d="M146.704 156.517V169.545H133.35V156.517H146.704Z" fill="#CEE0E0"/>
<path d="M146.704 143.456V156.518H133.35V143.456H146.704Z" fill="#CEE0E0"/>
<path d="M146.704 130.419V143.459H133.35V130.419H146.704Z" fill="#CEE0E0"/>
<path d="M146.704 117.379V130.418H133.35V117.379H146.704Z" fill="#CEE0E0"/>
<path d="M146.704 104.336V117.376H133.35V104.336H146.704Z" fill="#F2F2F2"/>
<path d="M146.704 91.2993V104.339H133.35V91.2993H146.704Z" fill="#F2F2F2"/>
<path d="M146.704 78.2377V91.3003H133.35V78.2377H146.704Z" fill="#CEE0E0"/>
<path d="M146.704 65.2105V78.2377H133.35V65.2105H146.704Z" fill="#CEE0E0"/>
<path d="M146.704 52.168V65.2076H133.35V52.168H146.704Z" fill="#F2F2F2"/>
<path d="M146.704 39.1275V52.167H133.35V39.1275H146.704Z" fill="white"/>
<path d="M133.344 169.547V182.586H120.013V169.547H133.344Z" fill="#CEE0E0"/>
<path d="M133.344 156.517V169.545H120.013V156.517H133.344Z" fill="#CEE0E0"/>
<path d="M133.344 143.456V156.518H120.013V143.456H133.344Z" fill="#CEE0E0"/>
<path d="M133.344 130.419V143.459H120.013V130.419H133.344Z" fill="#F2F2F2"/>
<path d="M133.344 117.379V130.418H120.013V117.379H133.344Z" fill="#F2F2F2"/>
<path d="M133.344 104.336V117.376H120.013V104.336H133.344Z" fill="#F2F2F2"/>
<path d="M133.344 91.2993V104.339H120.013V91.2993H133.344Z" fill="#F2F2F2"/>
<path d="M133.344 78.2377V91.3003H120.013V78.2377H133.344Z" fill="#F2F2F2"/>
<path d="M133.344 65.2105V78.2377H120.013V65.2105H133.344Z" fill="white"/>
<path d="M133.344 52.168V65.2076H120.013V52.168H133.344Z" fill="white"/>
<path d="M120.016 169.547V182.586H106.685V169.547H120.016Z" fill="#CEE0E0"/>
<path d="M120.016 156.517V169.545H106.685V156.517H120.016Z" fill="#CEE0E0"/>
<path d="M120.016 143.456V156.518H106.685V143.456H120.016Z" fill="#F2F2F2"/>
<path d="M120.016 130.419V143.459H106.685V130.419H120.016Z" fill="#F2F2F2"/>
<path d="M120.016 117.379V130.418H106.685V117.379H120.016Z" fill="#F2F2F2"/>
<path d="M120.016 104.336V117.376H106.685V104.336H120.016Z" fill="#F2F2F2"/>
<path d="M120.016 91.2993V104.339H106.685V91.2993H120.016Z" fill="#F2F2F2"/>
<path d="M120.016 78.2377V91.3003H106.685V78.2377H120.016Z" fill="white"/>
<path d="M120.016 65.2105V78.2377H106.685V65.2105H120.016Z" fill="white"/>
<path d="M106.687 169.547V182.586H93.3564V169.547H106.687Z" fill="#CEE0E0"/>
<path d="M106.687 156.517V169.545H93.3564V156.517H106.687Z" fill="#CEE0E0"/>
<path d="M106.687 143.456V156.518H93.3564V143.456H106.687Z" fill="#F2F2F2"/>
<path d="M106.687 130.419V143.459H93.3564V130.419H106.687Z" fill="#F2F2F2"/>
<path d="M106.687 117.379V130.418H93.3564V117.379H106.687Z" fill="#F2F2F2"/>
<path d="M106.687 104.336V117.376H93.3564V104.336H106.687Z" fill="#F2F2F2"/>
<path d="M106.687 91.2993V104.339H93.3564V91.2993H106.687Z" fill="white"/>
<path d="M106.688 78.2377V91.3003H93.3567V78.2377H106.688Z" fill="white"/>
<path d="M93.3564 169.547V182.586H80.0371V169.547H93.3564Z" fill="#CEE0E0"/>
<path d="M93.3564 156.517V169.545H80.0371V156.517H93.3564Z" fill="#F2F2F2"/>
<path d="M93.3564 143.456V156.518H80.0371V143.456H93.3564Z" fill="#F2F2F2"/>
<path d="M93.3564 130.419V143.459H80.0371V130.419H93.3564Z" fill="#F2F2F2"/>
<path d="M93.3564 117.379V130.418H80.0371V117.379H93.3564Z" fill="white"/>
<path d="M93.3564 104.336V117.376H80.0371V104.336H93.3564Z" fill="white"/>
<path d="M93.3564 91.2993V104.339H80.0371V91.2993H93.3564Z" fill="white"/>
<path d="M80.0371 169.547V182.586H66.6826V169.547H80.0371Z" fill="#CEE0E0"/>
<path d="M80.0371 156.517V169.545H66.6826V156.517H80.0371Z" fill="#F2F2F2"/>
<path d="M80.0371 143.456V156.518H66.6826V143.456H80.0371Z" fill="#F2F2F2"/>
<path d="M80.0371 130.419V143.459H66.6826V130.419H80.0371Z" fill="#F2F2F2"/>
<path d="M80.0371 117.379V130.418H66.6826V117.379H80.0371Z" fill="white"/>
<path d="M66.6767 169.547V182.586H53.3457V169.547H66.6767Z" fill="#CEE0E0"/>
<path d="M66.6767 156.517V169.545H53.3457V156.517H66.6767Z" fill="#F2F2F2"/>
<path d="M66.6767 143.456V156.518H53.3457V143.456H66.6767Z" fill="#F2F2F2"/>
<path d="M66.6767 130.419V143.459H53.3457V130.419H66.6767Z" fill="#F2F2F2"/>
<path d="M66.6767 117.379V130.418H53.3457V117.379H66.6767Z" fill="white"/>
<path d="M66.6767 104.336V117.376H53.3457V104.336H66.6767Z" fill="white"/>
<path d="M53.3486 169.547V182.586H40.0176V169.547H53.3486Z" fill="#CEE0E0"/>
<path d="M53.3486 156.517V169.545H40.0176V156.517H53.3486Z" fill="#F2F2F2"/>
<path d="M53.3486 143.456V156.518H40.0176V143.456H53.3486Z" fill="#F2F2F2"/>
<path d="M53.3486 130.419V143.459H40.0176V130.419H53.3486Z" fill="#F2F2F2"/>
<path d="M53.3486 117.379V130.418H40.0176V117.379H53.3486Z" fill="#F2F2F2"/>
<path d="M53.3486 104.336V117.376H40.0176V104.336H53.3486Z" fill="white"/>
<path d="M40.0214 169.547V182.586H26.6904V169.547H40.0214Z" fill="#CEE0E0"/>
<path d="M40.0214 156.517V169.545H26.6904V156.517H40.0214Z" fill="#CEE0E0"/>
<path d="M40.0214 143.456V156.518H26.6904V143.456H40.0214Z" fill="#F2F2F2"/>
<path d="M40.0214 130.419V143.459H26.6904V130.419H40.0214Z" fill="#F2F2F2"/>
<path d="M40.0214 117.379V130.418H26.6904V117.379H40.0214Z" fill="#F2F2F2"/>
<path d="M40.0214 104.336V117.376H26.6904V104.336H40.0214Z" fill="white"/>
<path d="M26.6845 169.547V182.586H13.3535V169.547H26.6845Z" fill="#CEE0E0"/>
<path d="M26.6845 156.517V169.545H13.3535V156.517H26.6845Z" fill="#CEE0E0"/>
<path d="M26.6845 143.456V156.518H13.3535V143.456H26.6845Z" fill="#CEE0E0"/>
<path d="M26.6845 130.419V143.459H13.3535V130.419H26.6845Z" fill="#F2F2F2"/>
<path d="M26.6845 117.379V130.418H13.3535V117.379H26.6845Z" fill="#F2F2F2"/>
<path d="M26.6845 104.336V117.376H13.3535V104.336H26.6845Z" fill="#F2F2F2"/>
<path d="M13.3535 156.517V169.545H-0.000976562V156.517H13.3535Z" fill="#F2F2F2"/>
<path d="M13.3535 143.456V156.518H-0.000976562V143.456H13.3535Z" fill="#F2F2F2"/>
<path d="M13.3535 130.419V143.459H-0.000976562V130.419H13.3535Z" fill="#F2F2F2"/>
<path d="M13.3535 117.379V130.418H-0.000976562V117.379H13.3535Z" fill="#F2F2F2"/>
</svg>
