<svg width="574" height="196" viewBox="0 0 574 196" fill="none" xmlns="http://www.w3.org/2000/svg">
<path d="M573.313 117.384V130.423H559.982V117.384H573.313Z" fill="#CEE0E0"/>
<path d="M573.313 104.344V117.382H559.982V104.344H573.313Z" fill="#CEE0E0"/>
<path d="M559.982 130.423L559.983 143.45H546.629V130.423L559.982 130.423Z" fill="#CEE0E0"/>
<path d="M559.982 117.384V130.423L546.629 130.423V117.384H559.982Z" fill="#CEE0E0"/>
<path d="M559.982 104.344V117.382H546.629V104.344H559.982Z" fill="#F2F2F2"/>
<path d="M559.983 91.307V104.346H546.629V91.307H559.983Z" fill="#F2F2F2"/>
<path d="M546.629 130.423V143.45H533.311V130.423H546.629Z" fill="#CEE0E0"/>
<path d="M546.629 117.384V130.423H533.311V117.384H546.629Z" fill="#CEE0E0"/>
<path d="M546.629 104.344V117.382H533.311V104.344H546.629Z" fill="#F2F2F2"/>
<path d="M546.629 91.307V104.346H533.311V91.307H546.629Z" fill="#F2F2F2"/>
<path d="M546.629 78.2454L546.629 91.307H533.311V78.2454H546.629Z" fill="white"/>
<path d="M533.315 130.423V143.45H519.984V130.423H533.315Z" fill="#CEE0E0"/>
<path d="M533.315 117.384V130.423H519.984V117.384H533.315Z" fill="#CEE0E0"/>
<path d="M533.315 104.344V117.382H519.984V104.344H533.315Z" fill="#F2F2F2"/>
<path d="M533.315 91.307V104.346H519.984V91.307H533.315Z" fill="#F2F2F2"/>
<path d="M533.315 78.2454V91.307H519.984V78.2454H533.315Z" fill="white"/>
<path d="M519.977 130.423V143.45H506.646V130.423H519.977Z" fill="#CEE0E0"/>
<path d="M519.977 117.384V130.423H506.646V117.384H519.977Z" fill="#CEE0E0"/>
<path d="M519.977 104.344V117.382H506.646V104.344H519.977Z" fill="#F2F2F2"/>
<path d="M519.977 91.307V104.346H506.646V91.307H519.977Z" fill="#F2F2F2"/>
<path d="M519.977 78.2454V91.307H506.646V78.2454H519.977Z" fill="white"/>
<path d="M506.646 130.423V143.45H493.328V130.423H506.646Z" fill="#CEE0E0"/>
<path d="M506.646 117.384V130.423H493.328V117.384H506.646Z" fill="#CEE0E0"/>
<path d="M506.646 104.344V117.382H493.328V104.344H506.646Z" fill="#F2F2F2"/>
<path d="M506.646 91.307V104.346H493.328V91.307H506.646Z" fill="#F2F2F2"/>
<path d="M506.646 78.2454V91.307H493.328V78.2454H506.646Z" fill="white"/>
<path d="M493.332 130.423V143.45H479.967V130.423H493.332Z" fill="#CEE0E0"/>
<path d="M493.332 117.384V130.423H479.967V117.384H493.332Z" fill="#CEE0E0"/>
<path d="M493.332 104.344V117.382H479.967V104.344H493.332Z" fill="#F2F2F2"/>
<path d="M493.332 91.307V104.346H479.967V91.307H493.332Z" fill="#F2F2F2"/>
<path d="M493.332 78.2454V91.307H479.967V78.2454H493.332Z" fill="white"/>
<path d="M479.967 143.45L479.967 156.512H466.648V143.45L479.967 143.45Z" fill="#CEE0E0"/>
<path d="M479.967 130.423V143.45L466.648 143.45V130.423H479.967Z" fill="#CEE0E0"/>
<path d="M479.967 117.384V130.423H466.648V117.384H479.967Z" fill="#CEE0E0"/>
<path d="M479.967 104.344V117.382H466.648V104.344H479.967Z" fill="#F2F2F2"/>
<path d="M479.967 91.307V104.346H466.648V91.307H479.967Z" fill="#F2F2F2"/>
<path d="M479.967 78.2454V91.307H466.648V78.2454H479.967Z" fill="white"/>
<path d="M466.651 143.45V156.512H453.32V143.45H466.651Z" fill="#CEE0E0"/>
<path d="M466.651 130.423V143.45H453.32V130.423H466.651Z" fill="#CEE0E0"/>
<path d="M466.651 117.384V130.423H453.32V117.384H466.651Z" fill="#F2F2F2"/>
<path d="M466.651 104.344V117.382H453.32V104.344H466.651Z" fill="#F2F2F2"/>
<path d="M466.651 91.307V104.346H453.32V91.307H466.651Z" fill="white"/>
<path d="M466.651 78.2454V91.307H453.32V78.2454H466.651Z" fill="white"/>
<path d="M453.315 143.45V156.512H439.984V143.45H453.315Z" fill="#CEE0E0"/>
<path d="M453.315 130.423V143.45H439.984V130.423H453.315Z" fill="#CEE0E0"/>
<path d="M453.315 117.384V130.423H439.984V117.384H453.315Z" fill="#F2F2F2"/>
<path d="M453.315 104.344V117.382H439.984V104.344H453.315Z" fill="#F2F2F2"/>
<path d="M453.315 91.307V104.346H439.984V91.307H453.315Z" fill="white"/>
<path d="M453.315 78.2454V91.307H439.984V78.2454H453.315Z" fill="white"/>
<path d="M439.988 143.45V156.512H426.658V143.45H439.988Z" fill="#CEE0E0"/>
<path d="M439.988 130.423V143.45H426.658V130.423H439.988Z" fill="#CEE0E0"/>
<path d="M439.988 117.384V130.423H426.658V117.384H439.988Z" fill="#F2F2F2"/>
<path d="M439.988 104.344V117.382H426.658V104.344H439.988Z" fill="#F2F2F2"/>
<path d="M439.988 91.307V104.346H426.658V91.307H439.988Z" fill="#F2F2F2"/>
<path d="M439.988 78.2454V91.307H426.658V78.2454H439.988Z" fill="white"/>
<path d="M426.658 143.45V156.512H413.305V143.45H426.658Z" fill="#CEE0E0"/>
<path d="M426.658 130.423V143.45H413.305V130.423H426.658Z" fill="#CEE0E0"/>
<path d="M426.658 117.384V130.423H413.305V117.384H426.658Z" fill="#CEE0E0"/>
<path d="M426.658 104.344V117.382H413.305V104.344H426.658Z" fill="#F2F2F2"/>
<path d="M426.658 91.307V104.346H413.305V91.307H426.658Z" fill="#F2F2F2"/>
<path d="M426.658 78.2454V91.307H413.305V78.2454H426.658Z" fill="white"/>
<path d="M413.303 130.423V143.45H399.984V130.423H413.303Z" fill="#CEE0E0"/>
<path d="M413.303 117.384V130.423H399.984V117.384H413.303Z" fill="#CEE0E0"/>
<path d="M413.303 104.344V117.382H399.984V104.344H413.303Z" fill="#F2F2F2"/>
<path d="M413.303 91.307V104.346H399.984V91.307H413.303Z" fill="#F2F2F2"/>
<path d="M413.303 78.2454V91.307H399.984V78.2454H413.303Z" fill="white"/>
<path d="M399.988 143.45V156.512H386.658V143.45H399.988Z" fill="#CEE0E0"/>
<path d="M399.988 130.423V143.45H386.658V130.423H399.988Z" fill="#CEE0E0"/>
<path d="M399.988 117.384V130.423H386.658V117.384H399.988Z" fill="#F2F2F2"/>
<path d="M399.988 104.344V117.382H386.658V104.344H399.988Z" fill="#F2F2F2"/>
<path d="M399.988 91.307V104.346H386.658V91.307H399.988Z" fill="#F2F2F2"/>
<path d="M399.988 78.2454V91.307H386.658V78.2454H399.988Z" fill="white"/>
<path d="M399.988 65.2184L399.988 78.2454H386.658L386.658 65.2184H399.988Z" fill="white"/>
<path d="M386.652 143.45V156.512H373.322V143.45H386.652Z" fill="#CEE0E0"/>
<path d="M386.652 130.423V143.45H373.322V130.423H386.652Z" fill="#CEE0E0"/>
<path d="M386.652 117.384V130.423H373.322V117.384H386.652Z" fill="#F2F2F2"/>
<path d="M386.652 104.344V117.382H373.322V104.344H386.652Z" fill="#F2F2F2"/>
<path d="M386.652 91.307V104.346H373.322V91.307H386.652Z" fill="#F2F2F2"/>
<path d="M386.652 78.2454V91.307H373.322V78.2454H386.652Z" fill="white"/>
<path d="M386.652 65.2182V78.2454H373.322V65.2182H386.652Z" fill="white"/>
<path d="M386.652 52.1776V65.2164H373.322V52.1776H386.652Z" fill="white"/>
<path d="M373.324 143.45V156.512H359.994V143.45H373.324Z" fill="#CEE0E0"/>
<path d="M373.324 130.423V143.45H359.994V130.423H373.324Z" fill="#CEE0E0"/>
<path d="M373.324 117.384V130.423H359.994V117.384H373.324Z" fill="#F2F2F2"/>
<path d="M373.324 104.344V117.382H359.994V104.344H373.324Z" fill="#F2F2F2"/>
<path d="M373.324 91.307V104.346H359.994V91.307H373.324Z" fill="#F2F2F2"/>
<path d="M373.324 78.2454V91.307H359.994V78.2454H373.324Z" fill="#F2F2F2"/>
<path d="M373.324 65.2182V78.2454H359.994V65.2182H373.324Z" fill="#F2F2F2"/>
<path d="M373.324 52.1776V65.2164H359.994V52.1776H373.324Z" fill="white"/>
<path d="M373.324 39.137V52.1758H359.994V39.137H373.324Z" fill="white"/>
<path d="M359.994 143.45V156.512H346.641V143.45H359.994Z" fill="#CEE0E0"/>
<path d="M359.994 130.423V143.45H346.641V130.423H359.994Z" fill="#CEE0E0"/>
<path d="M359.994 117.384V130.423H346.641V117.384H359.994Z" fill="#F2F2F2"/>
<path d="M359.994 104.344V117.382H346.641V104.344H359.994Z" fill="#F2F2F2"/>
<path d="M359.994 91.307V104.346H346.641V91.307H359.994Z" fill="#F2F2F2"/>
<path d="M359.994 78.2454V91.307H346.641V78.2454H359.994Z" fill="#F2F2F2"/>
<path d="M359.994 65.2182V78.2454H346.641V65.2182H359.994Z" fill="#F2F2F2"/>
<path d="M359.994 52.1776V65.2164H346.641V52.1776H359.994Z" fill="#F2F2F2"/>
<path d="M359.994 39.137V52.1758H346.641V39.137H359.994Z" fill="white"/>
<path d="M359.994 26.1022V39.1409H346.641V26.1022H359.994Z" fill="white"/>
<path d="M346.641 143.45V156.512H333.322V143.45H346.641Z" fill="#CEE0E0"/>
<path d="M346.641 130.423V143.45H333.322V130.423H346.641Z" fill="#CEE0E0"/>
<path d="M346.641 117.384V130.423H333.322V117.384H346.641Z" fill="#CEE0E0"/>
<path d="M346.641 104.344V117.382H333.322V104.344H346.641Z" fill="#F2F2F2"/>
<path d="M346.641 91.307V104.346H333.322V91.307H346.641Z" fill="#F2F2F2"/>
<path d="M346.641 78.2454V91.307H333.322V78.2454H346.641Z" fill="#F2F2F2"/>
<path d="M346.641 65.2182V78.2454H333.322V65.2182H346.641Z" fill="#F2F2F2"/>
<path d="M346.641 52.1776V65.2164H333.322V52.1776H346.641Z" fill="#F2F2F2"/>
<path d="M346.641 39.137V52.1758H333.322V39.137H346.641Z" fill="#F2F2F2"/>
<path d="M346.641 26.1022V39.1409H333.322V26.1022H346.641Z" fill="white"/>
<path d="M333.326 169.548V182.587H319.996V169.548H333.326Z" fill="#CEE0E0"/>
<path d="M333.326 156.514V169.552H319.996V156.514H333.326Z" fill="#CEE0E0"/>
<path d="M333.326 143.45V156.512H319.996V143.45H333.326Z" fill="#CEE0E0"/>
<path d="M333.326 130.423V143.45H319.996V130.423H333.326Z" fill="#CEE0E0"/>
<path d="M333.326 117.384V130.423H319.996V117.384H333.326Z" fill="#CEE0E0"/>
<path d="M333.326 104.344V117.382H319.996V104.344H333.326Z" fill="#F2F2F2"/>
<path d="M333.326 91.307V104.346H319.996V91.307H333.326Z" fill="#F2F2F2"/>
<path d="M333.326 78.2454V91.307H319.996V78.2454H333.326Z" fill="#F2F2F2"/>
<path d="M333.326 65.2182V78.2454H319.996V65.2182H333.326Z" fill="#F2F2F2"/>
<path d="M333.326 52.1776V65.2164H319.996V52.1776H333.326Z" fill="#F2F2F2"/>
<path d="M333.326 39.137V52.1758H319.996V39.137H333.326Z" fill="#F2F2F2"/>
<path d="M333.326 26.1022V39.1409H319.996V26.1022H333.326Z" fill="white"/>
<path d="M319.99 169.548V182.587H306.66V169.548H319.99Z" fill="#CEE0E0"/>
<path d="M319.99 156.514V169.552H306.66V156.514H319.99Z" fill="#CEE0E0"/>
<path d="M319.99 143.45V156.512H306.66V143.45H319.99Z" fill="#F2F2F2"/>
<path d="M319.99 130.423V143.45H306.66V130.423H319.99Z" fill="#F2F2F2"/>
<path d="M319.99 117.384V130.423H306.66V117.384H319.99Z" fill="#F2F2F2"/>
<path d="M319.99 104.344V117.382H306.66V104.344H319.99Z" fill="#F2F2F2"/>
<path d="M319.99 91.307V104.346H306.66V91.307H319.99Z" fill="#F2F2F2"/>
<path d="M319.99 78.2454V91.307H306.66V78.2454H319.99Z" fill="#F2F2F2"/>
<path d="M319.99 65.2182V78.2454H306.66V65.2182H319.99Z" fill="#F2F2F2"/>
<path d="M319.99 52.1776V65.2164H306.66V52.1776H319.99Z" fill="#F2F2F2"/>
<path d="M319.99 39.137V52.1758H306.66V39.137H319.99Z" fill="white"/>
<path d="M319.99 26.1022V39.1409H306.66V26.1022H319.99Z" fill="white"/>
<path d="M306.662 182.589V195.628H293.332V182.589H306.662Z" fill="#CEE0E0"/>
<path d="M306.662 169.548V182.587H293.332V169.548H306.662Z" fill="#CEE0E0"/>
<path d="M306.662 156.514V169.552H293.332V156.514H306.662Z" fill="#F2F2F2"/>
<path d="M306.662 143.45V156.512H293.332V143.45H306.662Z" fill="#F2F2F2"/>
<path d="M306.662 130.423V143.45H293.332V130.423H306.662Z" fill="#F2F2F2"/>
<path d="M306.662 117.384V130.423H293.332V117.384H306.662Z" fill="#F2F2F2"/>
<path d="M306.662 104.344V117.382H293.332V104.344H306.662Z" fill="#F2F2F2"/>
<path d="M306.662 91.307V104.346H293.332V91.307H306.662Z" fill="#F2F2F2"/>
<path d="M306.662 78.2454V91.307H293.332V78.2454H306.662Z" fill="#F2F2F2"/>
<path d="M306.662 65.2184L306.662 78.2454H293.332L293.332 65.2184H306.662Z" fill="#F2F2F2"/>
<path d="M306.662 52.1776V65.2164H293.332V52.1776H306.662Z" fill="#F2F2F2"/>
<path d="M306.662 39.137V52.1758H293.332V39.137H306.662Z" fill="#F2F2F2"/>
<path d="M293.332 182.589V195.628L279.979 195.628V182.589L293.332 182.589Z" fill="#CEE0E0"/>
<path d="M293.332 169.548V182.587H279.979V169.548H293.332Z" fill="#CEE0E0"/>
<path d="M293.332 156.514V169.552H279.979V156.514H293.332Z" fill="#F2F2F2"/>
<path d="M293.332 143.45V156.512H279.979V143.45H293.332Z" fill="#F2F2F2"/>
<path d="M293.332 130.423V143.45H279.979V130.423H293.332Z" fill="#F2F2F2"/>
<path d="M293.332 117.384V130.423H279.979V117.384H293.332Z" fill="#F2F2F2"/>
<path d="M293.332 104.344V117.382H279.979V104.344H293.332Z" fill="#F2F2F2"/>
<path d="M293.332 91.307V104.346H279.979V91.307H293.332Z" fill="#F2F2F2"/>
<path d="M293.332 78.2454V91.307H279.979V78.2454H293.332Z" fill="#F2F2F2"/>
<path d="M293.332 65.2184L293.332 78.2454H279.979V65.2182L293.332 65.2184Z" fill="#CEE0E0"/>
<path d="M293.332 52.1776V65.2164H279.979V52.1776H293.332Z" fill="#F2F2F2"/>
<path d="M279.981 182.589V195.628H266.65V182.589H279.981Z" fill="#CEE0E0"/>
<path d="M279.981 169.548V182.587H266.65V169.548H279.981Z" fill="#CEE0E0"/>
<path d="M279.981 156.514V169.552H266.65V156.514H279.981Z" fill="#F2F2F2"/>
<path d="M279.981 143.45V156.512H266.65V143.45H279.981Z" fill="#F2F2F2"/>
<path d="M279.981 130.423V143.45H266.65V130.423H279.981Z" fill="#F2F2F2"/>
<path d="M279.981 117.384V130.423H266.65V117.384H279.981Z" fill="#F2F2F2"/>
<path d="M279.981 104.344V117.382H266.65V104.344H279.981Z" fill="#F2F2F2"/>
<path d="M279.981 91.307V104.346H266.65V91.307H279.981Z" fill="#F2F2F2"/>
<path d="M279.981 78.2454V91.307H266.65V78.2454H279.981Z" fill="#CEE0E0"/>
<path d="M279.981 65.2182V78.2454H266.65V65.2182H279.981Z" fill="#F2F2F2"/>
<path d="M279.981 52.1776V65.2164H266.65V52.1776H279.981Z" fill="#F2F2F2"/>
<path d="M279.981 39.137V52.1758H266.65V39.137H279.981Z" fill="white"/>
<path d="M279.981 26.1022V39.1409H266.65V26.1022H279.981Z" fill="white"/>
<path d="M266.65 182.589V195.628H253.332V182.589H266.65Z" fill="#CEE0E0"/>
<path d="M266.65 169.548V182.587H253.332V169.548H266.65Z" fill="#F2F2F2"/>
<path d="M266.65 156.514V169.552H253.332V156.514H266.65Z" fill="#F2F2F2"/>
<path d="M266.65 143.45V156.512H253.332V143.45H266.65Z" fill="#F2F2F2"/>
<path d="M266.65 130.423V143.45H253.332V130.423H266.65Z" fill="#F2F2F2"/>
<path d="M266.65 117.384V130.423H253.332V117.384H266.65Z" fill="#F2F2F2"/>
<path d="M266.65 104.344V117.382H253.332V104.344H266.65Z" fill="#F2F2F2"/>
<path d="M266.65 91.307V104.346H253.332V91.307H266.65Z" fill="#CEE0E0"/>
<path d="M266.65 78.2454V91.307H253.332V78.2454H266.65Z" fill="#CEE0E0"/>
<path d="M266.65 65.2182V78.2454H253.332V65.2182H266.65Z" fill="#F2F2F2"/>
<path d="M266.65 52.1776V65.2164H253.332V52.1776H266.65Z" fill="#F2F2F2"/>
<path d="M266.65 39.137V52.1758H253.332V39.137H266.65Z" fill="#F2F2F2"/>
<path d="M266.65 26.1022V39.1409H253.332V26.1022H266.65Z" fill="white"/>
<path d="M266.65 13.0406L266.65 26.1022H253.332V13.0406H266.65Z" fill="white"/>
<path d="M253.326 182.589V195.628H239.996V182.589H253.326Z" fill="#CEE0E0"/>
<path d="M253.326 169.548V182.587H239.996V169.548H253.326Z" fill="#CEE0E0"/>
<path d="M253.326 156.514V169.552H239.996V156.514H253.326Z" fill="#F2F2F2"/>
<path d="M253.326 143.45V156.512H239.996V143.45H253.326Z" fill="#F2F2F2"/>
<path d="M253.326 130.423V143.45H239.996V130.423H253.326Z" fill="#F2F2F2"/>
<path d="M253.326 117.384V130.423H239.996V117.384H253.326Z" fill="#F2F2F2"/>
<path d="M253.326 104.344V117.382H239.996V104.344H253.326Z" fill="#F2F2F2"/>
<path d="M253.326 91.307V104.346H239.996V91.307H253.326Z" fill="#CEE0E0"/>
<path d="M253.326 78.2454V91.307H239.996V78.2454H253.326Z" fill="#CEE0E0"/>
<path d="M253.326 65.2182V78.2454H239.996V65.2182H253.326Z" fill="#F2F2F2"/>
<path d="M253.326 52.1776V65.2164H239.996V52.1776H253.326Z" fill="#F2F2F2"/>
<path d="M253.326 39.137V52.1758H239.996V39.137H253.326Z" fill="#F2F2F2"/>
<path d="M253.326 26.1022V39.1409H239.996V26.1022H253.326Z" fill="#F2F2F2"/>
<path d="M253.326 13.0406V26.1022H239.996V13.0406H253.326Z" fill="white"/>
<path d="M240 182.589V195.628H226.67V182.589H240Z" fill="#CEE0E0"/>
<path d="M240 169.548V182.587H226.67V169.548H240Z" fill="#CEE0E0"/>
<path d="M240 156.514V169.552H226.67V156.514H240Z" fill="#CEE0E0"/>
<path d="M240 143.45V156.512H226.67V143.45H240Z" fill="#F2F2F2"/>
<path d="M240 130.423V143.45H226.67V130.423H240Z" fill="#CEE0E0"/>
<path d="M240 117.384V130.423H226.67V117.384H240Z" fill="#CEE0E0"/>
<path d="M240 104.344V117.382H226.67V104.344H240Z" fill="#CEE0E0"/>
<path d="M240 91.307V104.346H226.67V91.307H240Z" fill="#CEE0E0"/>
<path d="M240 78.2454V91.307H226.67V78.2454H240Z" fill="#CEE0E0"/>
<path d="M240 65.2182V78.2454H226.67V65.2182H240Z" fill="#F2F2F2"/>
<path d="M240 52.1776V65.2164H226.67V52.1776H240Z" fill="#F2F2F2"/>
<path d="M240 39.137V52.1758H226.67V39.137H240Z" fill="#F2F2F2"/>
<path d="M240 26.1022V39.1409H226.67V26.1022H240Z" fill="#F2F2F2"/>
<path d="M240 13.0406V26.1022H226.67V13.0406H240Z" fill="white"/>
<path d="M240 0V13.0388H226.67V0H240Z" fill="white"/>
<path d="M226.67 169.548V182.587H213.316V169.548H226.67Z" fill="#CEE0E0"/>
<path d="M226.67 156.514V169.552H213.316V156.514H226.67Z" fill="#CEE0E0"/>
<path d="M226.67 143.45V156.512H213.316V143.45H226.67Z" fill="#CEE0E0"/>
<path d="M226.67 130.423V143.45H213.316V130.423H226.67Z" fill="#CEE0E0"/>
<path d="M226.67 117.384V130.423H213.316V117.384H226.67Z" fill="#CEE0E0"/>
<path d="M226.67 104.344V117.382H213.316V104.344H226.67Z" fill="#F2F2F2"/>
<path d="M226.67 91.307V104.346H213.316V91.307H226.67Z" fill="#F2F2F2"/>
<path d="M226.67 78.2454V91.307H213.316V78.2454H226.67Z" fill="#CEE0E0"/>
<path d="M226.67 65.2182V78.2454H213.316V65.2182H226.67Z" fill="#CEE0E0"/>
<path d="M226.67 52.1776V65.2164H213.316V52.1776H226.67Z" fill="#F2F2F2"/>
<path d="M226.67 39.137V52.1758H213.316V39.137H226.67Z" fill="#F2F2F2"/>
<path d="M226.67 26.1022V39.1409H213.316V26.1022H226.67Z" fill="#F2F2F2"/>
<path d="M226.67 13.0406V26.1022H213.316V13.0406H226.67Z" fill="#F2F2F2"/>
<path d="M226.67 0V13.0388H213.316V0H226.67Z" fill="white"/>
<path d="M213.318 156.514V169.552H199.988V156.514H213.318Z" fill="#CEE0E0"/>
<path d="M213.318 143.45V156.512H199.988V143.45H213.318Z" fill="#CEE0E0"/>
<path d="M213.318 130.423V143.45H199.988V130.423H213.318Z" fill="#F2F2F2"/>
<path d="M213.318 117.384V130.423H199.988V117.384H213.318Z" fill="#F2F2F2"/>
<path d="M213.318 104.344V117.382H199.988V104.344H213.318Z" fill="#F2F2F2"/>
<path d="M213.318 91.307V104.346H199.988V91.307H213.318Z" fill="#F2F2F2"/>
<path d="M213.318 78.2454V91.307H199.988V78.2454H213.318Z" fill="#F2F2F2"/>
<path d="M213.318 65.2184L213.318 78.2454H199.988L199.988 65.2184H213.318Z" fill="#F2F2F2"/>
<path d="M213.318 52.1776V65.2164H199.988V52.1776H213.318Z" fill="#F2F2F2"/>
<path d="M213.318 39.137V52.1758H199.988V39.137H213.318Z" fill="#F2F2F2"/>
<path d="M213.318 26.102V39.1408H199.988V26.102H213.318Z" fill="#F2F2F2"/>
<path d="M213.318 13.0406L213.318 26.102H199.988L199.988 13.0406H213.318Z" fill="white"/>
<path d="M213.318 0V13.0388H199.988V0H213.318Z" fill="white"/>
<path d="M199.983 156.514V169.552H186.652V156.514H199.983Z" fill="#CEE0E0"/>
<path d="M199.983 143.45V156.512H186.652V143.45H199.983Z" fill="#F2F2F2"/>
<path d="M199.983 130.423V143.45H186.652V130.423H199.983Z" fill="#F2F2F2"/>
<path d="M199.983 117.384V130.423H186.652V117.384H199.983Z" fill="#F2F2F2"/>
<path d="M199.983 104.344V117.382H186.652V104.344H199.983Z" fill="#F2F2F2"/>
<path d="M199.983 91.307V104.346H186.652V91.307H199.983Z" fill="#F2F2F2"/>
<path d="M199.983 78.2454V91.307H186.652V78.2454H199.983Z" fill="#F2F2F2"/>
<path d="M199.982 65.2184L199.983 78.2454H186.652L186.652 65.2184H199.982Z" fill="#F2F2F2"/>
<path d="M199.983 52.1776V65.2164H186.652V52.1776H199.983Z" fill="#F2F2F2"/>
<path d="M199.983 39.137V52.1758H186.652V39.137H199.983Z" fill="#F2F2F2"/>
<path d="M199.982 26.102V39.1408H186.652V26.102H199.982Z" fill="#F2F2F2"/>
<path d="M199.983 13.0406L199.982 26.102H186.652L186.652 13.0406H199.983Z" fill="white"/>
<path d="M186.652 169.548V182.587H173.334V169.548H186.652Z" fill="#CEE0E0"/>
<path d="M186.652 156.514V169.552H173.334V156.514H186.652Z" fill="#F2F2F2"/>
<path d="M186.652 143.45V156.512H173.334V143.45H186.652Z" fill="#F2F2F2"/>
<path d="M186.652 130.423V143.45H173.334V130.423H186.652Z" fill="#F2F2F2"/>
<path d="M186.652 117.384V130.423H173.334V117.384H186.652Z" fill="#F2F2F2"/>
<path d="M186.652 104.344V117.382H173.334V104.344H186.652Z" fill="#F2F2F2"/>
<path d="M186.652 91.307V104.346H173.334V91.307H186.652Z" fill="#F2F2F2"/>
<path d="M186.652 78.2454V91.307H173.334V78.2454H186.652Z" fill="#F2F2F2"/>
<path d="M186.652 65.2184L186.652 78.2454H173.334V65.2182L186.652 65.2184Z" fill="#F2F2F2"/>
<path d="M186.652 52.1776V65.2164H173.334V52.1776H186.652Z" fill="#F2F2F2"/>
<path d="M186.652 39.137V52.1758H173.334V39.137H186.652Z" fill="#F2F2F2"/>
<path d="M186.652 26.102V39.1408L173.334 39.1409V26.1022L186.652 26.102Z" fill="#F2F2F2"/>
<path d="M186.652 13.0406L186.652 26.102L173.334 26.1022V13.0406H186.652Z" fill="white"/>
<path d="M173.336 169.548V182.587H160.006V169.548H173.336Z" fill="#CEE0E0"/>
<path d="M173.336 156.514V169.552H160.006V156.514H173.336Z" fill="#F2F2F2"/>
<path d="M173.336 143.45V156.512H160.006V143.45H173.336Z" fill="#F2F2F2"/>
<path d="M173.336 130.423V143.45H160.006V130.423H173.336Z" fill="#F2F2F2"/>
<path d="M173.336 117.384V130.423H160.006V117.384H173.336Z" fill="#F2F2F2"/>
<path d="M173.336 104.344V117.382H160.006V104.344H173.336Z" fill="#F2F2F2"/>
<path d="M173.336 91.307V104.346H160.006V91.307H173.336Z" fill="#F2F2F2"/>
<path d="M173.336 78.2454V91.307H160.006V78.2454H173.336Z" fill="#F2F2F2"/>
<path d="M173.336 65.2182V78.2454H160.006V65.2182H173.336Z" fill="#F2F2F2"/>
<path d="M173.336 52.1776V65.2164H160.006V52.1776H173.336Z" fill="#F2F2F2"/>
<path d="M173.336 39.137V52.1758H160.006V39.137H173.336Z" fill="white"/>
<path d="M173.336 26.1022V39.1409H160.006V26.1022H173.336Z" fill="white"/>
<path d="M173.336 13.0406V26.1022H160.006V13.0406H173.336Z" fill="white"/>
<path d="M160.006 169.548V182.587H146.652V169.548H160.006Z" fill="#CEE0E0"/>
<path d="M160.006 156.514V169.552H146.652V156.514H160.006Z" fill="#F2F2F2"/>
<path d="M160.006 143.45V156.512H146.652V143.45H160.006Z" fill="#F2F2F2"/>
<path d="M160.006 130.423V143.45H146.652V130.423H160.006Z" fill="#F2F2F2"/>
<path d="M160.006 117.384V130.423H146.652V117.384H160.006Z" fill="#F2F2F2"/>
<path d="M160.006 104.344V117.382H146.652V104.344H160.006Z" fill="#F2F2F2"/>
<path d="M160.006 91.307V104.346H146.652V91.307H160.006Z" fill="#F2F2F2"/>
<path d="M160.006 78.2454V91.307H146.652V78.2454H160.006Z" fill="#F2F2F2"/>
<path d="M160.006 65.2182V78.2454H146.652V65.2182H160.006Z" fill="#F2F2F2"/>
<path d="M160.006 52.1776V65.2164H146.652V52.1776H160.006Z" fill="#F2F2F2"/>
<path d="M160.006 39.137V52.1758H146.652V39.137H160.006Z" fill="#F2F2F2"/>
<path d="M146.656 169.548V182.587H133.326V169.548H146.656Z" fill="#CEE0E0"/>
<path d="M146.656 156.514V169.552H133.326V156.514H146.656Z" fill="#CEE0E0"/>
<path d="M146.656 143.45V156.512H133.326V143.45H146.656Z" fill="#F2F2F2"/>
<path d="M146.656 130.423V143.45H133.326V130.423H146.656Z" fill="#F2F2F2"/>
<path d="M146.656 117.384V130.423H133.326V117.384H146.656Z" fill="#F2F2F2"/>
<path d="M146.656 104.344V117.382H133.326V104.344H146.656Z" fill="#F2F2F2"/>
<path d="M146.656 91.307V104.346H133.326V91.307H146.656Z" fill="#CEE0E0"/>
<path d="M146.656 78.2454V91.307H133.326V78.2454H146.656Z" fill="#F2F2F2"/>
<path d="M146.656 65.2182V78.2454H133.326V65.2182H146.656Z" fill="#F2F2F2"/>
<path d="M133.326 156.514V169.552H120.008V156.514H133.326Z" fill="#CEE0E0"/>
<path d="M133.326 143.45V156.512H120.008V143.45H133.326Z" fill="#CEE0E0"/>
<path d="M133.326 130.423V143.45H120.008V130.423H133.326Z" fill="#F2F2F2"/>
<path d="M133.326 117.384V130.423H120.008V117.384H133.326Z" fill="#F2F2F2"/>
<path d="M133.326 104.344V117.382H120.008V104.344H133.326Z" fill="#CEE0E0"/>
<path d="M133.326 91.307V104.346H120.008V91.307H133.326Z" fill="#CEE0E0"/>
<path d="M133.326 78.2454V91.307H120.008V78.2454H133.326Z" fill="#F2F2F2"/>
<path d="M133.326 65.2182V78.2454H120.008V65.2182H133.326Z" fill="#F2F2F2"/>
<path d="M133.326 52.1776V65.2164H120.008V52.1776H133.326Z" fill="#F2F2F2"/>
<path d="M133.326 39.137V52.1758H120.008V39.137H133.326Z" fill="white"/>
<path d="M120.002 143.45V156.512H106.672V143.45H120.002Z" fill="#CEE0E0"/>
<path d="M120.002 130.423V143.45H106.672V130.423H120.002Z" fill="#CEE0E0"/>
<path d="M120.002 117.384V130.423H106.672V117.384H120.002Z" fill="#F2F2F2"/>
<path d="M120.002 104.344V117.382H106.672V104.344H120.002Z" fill="#CEE0E0"/>
<path d="M120.002 91.307V104.346H106.672V91.307H120.002Z" fill="#F2F2F2"/>
<path d="M120.002 78.2454V91.307H106.672V78.2454H120.002Z" fill="#F2F2F2"/>
<path d="M120.002 65.2182V78.2454H106.672V65.2182H120.002Z" fill="#F2F2F2"/>
<path d="M120.002 52.1776V65.2164H106.672V52.1776H120.002Z" fill="#F2F2F2"/>
<path d="M120.002 39.137V52.1758H106.672V39.137H120.002Z" fill="white"/>
<path d="M106.674 130.423V143.45H93.3438V130.423H106.674Z" fill="#CEE0E0"/>
<path d="M106.674 117.384V130.423H93.3438V117.384H106.674Z" fill="#CEE0E0"/>
<path d="M106.674 104.344V117.382H93.3438V104.344H106.674Z" fill="#CEE0E0"/>
<path d="M106.674 91.307V104.346H93.3438V91.307H106.674Z" fill="#F2F2F2"/>
<path d="M106.674 78.2454V91.307H93.3438V78.2454H106.674Z" fill="#F2F2F2"/>
<path d="M106.674 65.2184L106.674 78.2454H93.3438L93.3437 65.2184H106.674Z" fill="#F2F2F2"/>
<path d="M106.674 52.1776V65.2164H93.3438V52.1776H106.674Z" fill="#F2F2F2"/>
<path d="M106.674 39.137V52.1758H93.3438V39.137H106.674Z" fill="white"/>
<path d="M93.3438 130.423V143.45H79.9902V130.423H93.3438Z" fill="#CEE0E0"/>
<path d="M93.3438 117.384V130.423H79.9902V117.384H93.3438Z" fill="#CEE0E0"/>
<path d="M93.3438 104.344V117.382H79.9902V104.344H93.3438Z" fill="#CEE0E0"/>
<path d="M93.3438 91.307V104.346H79.9902V91.307H93.3438Z" fill="#CEE0E0"/>
<path d="M93.3438 78.2454V91.307H79.9902V78.2454H93.3438Z" fill="#F2F2F2"/>
<path d="M93.3437 65.2184L93.3438 78.2454H79.9902V65.2182L93.3437 65.2184Z" fill="#F2F2F2"/>
<path d="M93.3438 52.1776V65.2164H79.9902V52.1776H93.3438Z" fill="white"/>
<path d="M93.3438 39.137V52.1758H79.9902V39.137H93.3438Z" fill="white"/>
<path d="M79.9923 130.423V143.45H66.6621V130.423H79.9923Z" fill="#CEE0E0"/>
<path d="M79.9923 117.384V130.423H66.6621V117.384H79.9923Z" fill="#CEE0E0"/>
<path d="M79.9923 104.344V117.382H66.6621V104.344H79.9923Z" fill="#F2F2F2"/>
<path d="M79.9923 91.307V104.346H66.6621V91.307H79.9923Z" fill="#CEE0E0"/>
<path d="M79.9923 78.2454V91.307H66.6621V78.2454H79.9923Z" fill="#F2F2F2"/>
<path d="M79.9923 65.2182V78.2454H66.6621V65.2182H79.9923Z" fill="white"/>
<path d="M79.9923 52.1776V65.2164H66.6621V52.1776H79.9923Z" fill="white"/>
<path d="M66.6564 130.423V143.45H53.3262V130.423H66.6564Z" fill="#CEE0E0"/>
<path d="M66.6564 117.384V130.423H53.3262V117.384H66.6564Z" fill="#CEE0E0"/>
<path d="M66.6564 104.344V117.382H53.3262V104.344H66.6564Z" fill="#F2F2F2"/>
<path d="M66.6564 91.307V104.346H53.3262V91.307H66.6564Z" fill="#F2F2F2"/>
<path d="M66.6564 78.2454V91.307H53.3262V78.2454H66.6564Z" fill="white"/>
<path d="M66.6564 65.2182V78.2454H53.3262V65.2182H66.6564Z" fill="white"/>
<path d="M53.3262 130.423V143.45H40.0078V130.423H53.3262Z" fill="#CEE0E0"/>
<path d="M53.3262 117.384V130.423H40.0078V117.384H53.3262Z" fill="#CEE0E0"/>
<path d="M53.3262 104.344V117.382H40.0078V104.344H53.3262Z" fill="#F2F2F2"/>
<path d="M53.3262 91.307V104.346H40.0078V91.307H53.3262Z" fill="#F2F2F2"/>
<path d="M53.3262 78.2454V91.307H40.0078V78.2454H53.3262Z" fill="white"/>
<path d="M40.0118 130.423V143.45H26.6816V130.423H40.0118Z" fill="#CEE0E0"/>
<path d="M40.0118 117.384V130.423H26.6816V117.384H40.0118Z" fill="#CEE0E0"/>
<path d="M40.0118 104.344V117.382H26.6816V104.344H40.0118Z" fill="#F2F2F2"/>
<path d="M40.0118 91.307V104.346H26.6816V91.307H40.0118Z" fill="#F2F2F2"/>
<path d="M40.0118 78.2454V91.307H26.6816V78.2454H40.0118Z" fill="white"/>
<path d="M26.6837 130.423V143.45H13.3535V130.423H26.6837Z" fill="#CEE0E0"/>
<path d="M26.6837 117.384V130.423H13.3535V117.384H26.6837Z" fill="#CEE0E0"/>
<path d="M26.6837 104.344V117.382H13.3535V104.344H26.6837Z" fill="#F2F2F2"/>
<path d="M26.6837 91.307V104.346H13.3535V91.307H26.6837Z" fill="#F2F2F2"/>
<path d="M26.6837 78.2454V91.307H13.3535V78.2454H26.6837Z" fill="#F2F2F2"/>
<path d="M13.3535 117.384V130.423L0 130.423V117.384H13.3535Z" fill="#CEE0E0"/>
<path d="M13.3535 104.344V117.382H0V104.344H13.3535Z" fill="#CEE0E0"/>
<path d="M13.3535 91.307V104.346H0V91.307H13.3535Z" fill="#F2F2F2"/>
</svg>
