<svg width="28" height="28" viewBox="0 0 28 28" fill="none" xmlns="http://www.w3.org/2000/svg">
<path fill-rule="evenodd" clip-rule="evenodd" d="M12 0.914062H10V1.91406H8V2.91406H6V4.91406H4V6.91406H2V9.91406H0V18.9141H2V21.9141H4V23.9141H6V25.9141H8V26.9141H10V27.9141H12H14H16H18V26.9141H20V25.9141H22V23.9141H24V21.9141H26V18.9141H28V9.91406H26V6.91406H24V4.91406H22V2.91406H20V1.91406H18V0.914062H16H14H12ZM18 3.91406H17V6.91406H16V7.91406H15H14H13H12V10.9141H11V11.9141H10H9H8V14.9141H9H10H11H12V13.9141H13H14H15H16V14.9141H17V19.9141H18H19H20V20.9141H21V21.9141H22V20.9141H23V18.9141H24V16.9141H25V11.9141H24V9.91406H23V8.91406H22V7.91406H21V6.91406H20V5.91406H19V4.91406H18V3.91406ZM3 11.9141H4V13.9141H5V14.9141H6V15.9141H7V16.9141H8V17.9141H9V18.9141H10V21.9141H11V22.9141H12V25.9141H11V24.9141H10H9V23.9141H8H7V22.9141H6V21.9141H5V19.9141H4V17.9141H3V11.9141Z" fill="#11A729"/>
</svg>
