<svg width="234" height="299" viewBox="0 0 234 299" fill="none" xmlns="http://www.w3.org/2000/svg">
<path d="M71.2205 19.9335H81.395V9.96866H71.2205V19.9335Z" fill="#C95B21"/>
<path d="M101.742 19.9335H111.913V9.96866H101.742V19.9335Z" fill="#C95B21"/>
<path d="M61.0447 19.9335H71.2167V9.96866H61.0447V19.9335Z" fill="#EA7A27"/>
<path d="M91.5661 19.9335H101.738V9.96866H91.5661V19.9335Z" fill="#C95B21"/>
<path d="M81.3903 19.9335H91.5661V9.96866H81.3903V19.9335Z" fill="#EA7A27"/>
<path d="M132.263 19.9335H142.435V9.96866H132.263V19.9335Z" fill="#EA7A27"/>
<path d="M111.912 19.9335H122.086V9.96866H111.912V19.9335Z" fill="#EA7A27"/>
<path d="M122.086 19.9335H132.263V9.96866H122.086V19.9335Z" fill="#C95B21"/>
<path d="M142.439 19.9335H152.611V9.96866H142.439V19.9335Z" fill="#231F20"/>
<path d="M50.869 19.9335H61.0447V9.96866H50.869V19.9335Z" fill="#231F20"/>
<path d="M101.742 9.96866H111.913L111.914 0H101.742L101.742 9.96866Z" fill="#231F20"/>
<path d="M111.912 9.96866H122.086V0H111.912V9.96866Z" fill="#231F20"/>
<path d="M122.088 9.96737H132.262V0H122.086L122.088 9.96737Z" fill="#231F20"/>
<path d="M132.263 9.96866H142.435L142.435 0H132.262L132.263 9.96866Z" fill="#231F20"/>
<path d="M61.0447 9.96866H71.2167V0H61.0447V9.96866Z" fill="#231F20"/>
<path d="M71.2205 9.96866H81.395V0H71.2205V9.96866Z" fill="#231F20"/>
<path d="M91.5661 9.96866H101.738V0H91.5661V9.96866Z" fill="#231F20"/>
<path d="M81.3903 9.96866L91.5648 9.96737L91.5661 0H81.3903V9.96866Z" fill="#231F20"/>
<path d="M142.439 299H152.611V289.033H142.439V299Z" fill="#231F20"/>
<path d="M132.263 29.8993H142.435V19.9335H132.263V29.8993Z" fill="#C95B21"/>
<path d="M152.609 29.8993H162.783V19.9344H152.609V29.8993Z" fill="#231F20"/>
<path d="M142.439 29.8993H152.611V19.9335H142.439V29.8993Z" fill="#EA7A27"/>
<path d="M40.6991 29.8993H50.8736V19.9344H40.6991V29.8993Z" fill="#231F20"/>
<path d="M122.088 29.8993H132.263V19.9335L122.088 19.9344V29.8993Z" fill="#C95B21"/>
<path d="M91.5661 29.8993H101.738V19.9335H91.5661V29.8993Z" fill="#C95B21"/>
<path d="M81.3903 29.8993H91.5661L91.5648 19.9344L81.3903 19.9335V29.8993Z" fill="#C95B21"/>
<path d="M101.742 29.8993H111.913V19.9335H101.742V29.8993Z" fill="#EA7A27"/>
<path d="M111.912 29.8993H122.088L122.086 19.9335H111.912V29.8993Z" fill="#C95B21"/>
<path d="M50.869 29.8993H61.0434V19.9344L50.869 19.9335V29.8993Z" fill="#EA7A27"/>
<path d="M71.2205 29.8993H81.395V19.9335H71.2205V29.8993Z" fill="#EA7A27"/>
<path d="M61.0434 29.8993H71.2167V19.9335H61.0447L61.0434 29.8993Z" fill="#C95B21"/>
<path d="M91.5661 299H101.738V289.033H91.5661V299Z" fill="#231F20"/>
<path d="M101.742 299H111.913V289.033H101.742V299Z" fill="#231F20"/>
<path d="M111.912 299H122.086V289.033H111.912V299Z" fill="#231F20"/>
<path d="M172.96 299H183.132V289.033H172.96V299Z" fill="#231F20"/>
<path d="M61.0447 299H71.2167V289.033H61.0447V299Z" fill="#231F20"/>
<path d="M71.2205 299H81.395V289.033H71.2205V299Z" fill="#231F20"/>
<path d="M152.609 299H162.783V289.033H152.609V299Z" fill="#231F20"/>
<path d="M162.783 299H172.96V289.033H162.783V299Z" fill="#231F20"/>
<path d="M122.086 299H132.262V289.033H122.086V299Z" fill="#231F20"/>
<path d="M132.262 299H142.435V289.033H132.262V299Z" fill="#231F20"/>
<path d="M81.3903 299H91.5661V289.033H81.3903V299Z" fill="#231F20"/>
<path d="M50.869 299H61.0447V289.033H50.869V299Z" fill="#231F20"/>
<path d="M40.6991 299H50.8736V289.033H40.6991V299Z" fill="#231F20"/>
<path d="M30.5235 299H40.6991V289.033H30.5235V299Z" fill="#231F20"/>
<path d="M20.3476 299H30.5195V289.033H20.3476V299Z" fill="#231F20"/>
<path d="M10.1777 299H20.3522V289.033H10.1777V299Z" fill="#231F20"/>
<path d="M183.154 299H193.329V289.033H183.154V299Z" fill="#231F20"/>
<path d="M203.482 299H213.656V289.033H203.482V299Z" fill="#231F20"/>
<path d="M193.217 299H203.391V289.033H193.217V299Z" fill="#231F20"/>
<path d="M101.742 209.3H111.914V199.335H101.742V209.3Z" fill="#231F20"/>
<path d="M172.96 119.602H183.132V109.635H172.96V119.602Z" fill="#231F20"/>
<path d="M172.96 89.702H183.132V79.7347H172.96V89.702Z" fill="#231F20"/>
<path d="M152.609 89.702H162.783V79.7347H152.609V89.702Z" fill="#A89179"/>
<path d="M172.96 99.6653H183.132V89.7004H172.96V99.6653Z" fill="#231F20"/>
<path d="M172.96 109.635H183.132V99.6653H172.96V109.635Z" fill="#231F20"/>
<path d="M162.783 89.702H172.96V79.7347H162.783V89.702Z" fill="#C95B21"/>
<path d="M111.912 89.702H122.086V79.7347H111.912V89.702Z" fill="#614F41"/>
<path d="M142.439 89.702H152.611V79.7347H142.439V89.702Z" fill="#A89179"/>
<path d="M122.086 89.702H132.259V79.7347H122.086V89.702Z" fill="#614F41"/>
<path d="M162.785 99.6653H172.96V89.7004H162.785V99.6653Z" fill="#C95B21"/>
<path d="M172.96 149.499H183.132V139.532H172.96V149.499Z" fill="#C95B21"/>
<path d="M172.96 199.337H183.132V189.369H172.96V199.337Z" fill="#C95B21"/>
<path d="M172.96 189.369H183.132V179.401H172.96V189.369Z" fill="#C95B21"/>
<path d="M172.96 129.568H183.132V119.601H172.96V129.568Z" fill="#231F20"/>
<path d="M172.96 209.3H183.132V199.335H172.96V209.3Z" fill="#C95B21"/>
<path d="M172.96 179.401H183.132V169.432H172.96V179.401Z" fill="#C95B21"/>
<path d="M172.96 219.268H183.132V209.3H172.96V219.268Z" fill="#9E3E21"/>
<path d="M101.742 89.702H111.913V79.7347H101.742V89.702Z" fill="#614F41"/>
<path d="M172.96 169.437H183.132V159.469H172.96V169.437Z" fill="#C95B21"/>
<path d="M172.96 139.534H183.132V129.568H172.96V139.534Z" fill="#231F20"/>
<path d="M172.96 159.469H183.132V149.499H172.96V159.469Z" fill="#C95B21"/>
<path d="M20.3476 119.602H30.5195V109.635H20.3476V119.602Z" fill="#231F20"/>
<path d="M20.3476 159.468H30.5195V149.501H20.3476V159.468Z" fill="#231F20"/>
<path d="M20.3476 169.437H30.5195V159.468H20.3476V169.437Z" fill="#EA7A27"/>
<path d="M20.3476 139.534H30.5195V129.569H20.3476V139.534Z" fill="#231F20"/>
<path d="M20.3476 129.569H30.5195V119.601H20.3476V129.569Z" fill="#231F20"/>
<path d="M20.3476 179.399H30.5195V169.432H20.3476V179.399Z" fill="#C95B21"/>
<path d="M20.3476 199.337H30.5195V189.369H20.3476V199.337Z" fill="#C95B21"/>
<path d="M20.3476 209.3H30.5195V199.335H20.3476V209.3Z" fill="#9E3E21"/>
<path d="M20.3476 189.369H30.5195V179.399H20.3476V189.369Z" fill="#C95B21"/>
<path d="M172.96 229.234H183.132V219.267H172.96V229.234Z" fill="#231F20"/>
<path d="M71.2205 89.702H81.395V79.7347H71.2205V89.702Z" fill="#614F41"/>
<path d="M91.5661 89.702H101.738V79.7347H91.5661V89.702Z" fill="#614F41"/>
<path d="M61.0447 89.702H71.2167V79.7347H61.0447V89.702Z" fill="#614F41"/>
<path d="M20.3476 109.635H30.5195V99.6661H20.3476V109.635Z" fill="#231F20"/>
<path d="M81.3903 89.702H91.5661V79.7347H81.3903V89.702Z" fill="#614F41"/>
<path d="M50.869 89.702H61.0447V79.7347H50.869V89.702Z" fill="#836E5B"/>
<path d="M20.3476 89.702H30.5195V79.7347H20.3476V89.702Z" fill="#231F20"/>
<path d="M20.3476 99.6661H30.5195V89.7004H20.3476V99.6661Z" fill="#231F20"/>
<path d="M40.6991 89.702H50.8736V79.7347H40.6991V89.702Z" fill="#A89179"/>
<path d="M30.5235 89.702H40.6991V79.7347H30.5235V89.702Z" fill="#C95B21"/>
<path d="M30.5235 229.234H40.698V219.267H30.5235V229.234Z" fill="#231F20"/>
<path d="M30.5235 109.634H40.6979V99.6662H30.5235V109.634Z" fill="#C95B21"/>
<path d="M30.5235 99.6662H40.6979L40.698 89.7004H30.5235L30.5235 99.6662Z" fill="#C95B21"/>
<path d="M50.869 99.6653H61.0434V89.7004H50.869V99.6653Z" fill="#A89179"/>
<path d="M40.6979 99.6662L50.8736 99.6653V89.7004H40.698L40.6979 99.6662Z" fill="#A89179"/>
<path d="M30.5235 119.602H40.698L40.6979 109.634H30.5235L30.5235 119.602Z" fill="#C95B21"/>
<path d="M30.5235 159.468H40.6979V149.501H30.5235V159.468Z" fill="#EA7A27"/>
<path d="M61.0434 99.6653H71.2167V89.7004H61.0434V99.6653Z" fill="#A89179"/>
<path d="M30.5235 169.437H40.698L40.6979 159.468H30.5235L30.5235 169.437Z" fill="#C95B21"/>
<path d="M30.5235 139.534H40.698V129.569H30.5235V139.534Z" fill="#9E3E21"/>
<path d="M30.5235 129.569H40.698V119.601H30.5235V129.569Z" fill="#C95B21"/>
<path d="M30.5235 149.501H40.6979L40.698 139.532H30.5235L30.5235 149.501Z" fill="#231F20"/>
<path d="M122.088 99.6653H132.259V89.7004H122.088V99.6653Z" fill="#A89179"/>
<path d="M172.96 239.203H183.132V229.234H172.96V239.203Z" fill="#231F20"/>
<path d="M71.2205 99.6653H81.395V89.7004H71.2205V99.6653Z" fill="#A89179"/>
<path d="M152.609 99.6653H162.785V89.7004H152.609V99.6653Z" fill="#A89179"/>
<path d="M132.263 99.6653H142.435V89.7004H132.263V99.6653Z" fill="#A89179"/>
<path d="M111.912 99.6653H122.088V89.7004H111.912V99.6653Z" fill="#A89179"/>
<path d="M81.3903 99.6653H91.5648V89.7004H81.3903V99.6653Z" fill="#231F20"/>
<path d="M91.5648 99.6653H101.738V89.7004H91.5648V99.6653Z" fill="#8C7662"/>
<path d="M101.742 99.6653H111.913V89.7004H101.742V99.6653Z" fill="#231F20"/>
<path d="M142.439 99.6653H152.611V89.7004H142.439V99.6653Z" fill="#A89179"/>
<path d="M111.912 239.203H122.086V229.235H111.912V239.203Z" fill="#231F20"/>
<path d="M122.086 239.203H132.262V229.235H122.086V239.203Z" fill="#231F20"/>
<path d="M71.2205 239.203H81.395V229.235H71.2205V239.203Z" fill="#231F20"/>
<path d="M81.3903 229.235V239.203H91.5648V229.235H81.3903Z" fill="#7F2A20"/>
<path d="M91.5648 239.203H101.738V229.235H91.5648V239.203Z" fill="#7F2A20"/>
<path d="M30.5235 179.399H40.698V169.432H30.5235V179.399Z" fill="#C95B21"/>
<path d="M162.785 239.203H172.96L172.959 229.235H162.785V239.203Z" fill="#7F2A20"/>
<path d="M132.262 239.203H142.435V229.235H132.262V239.203Z" fill="#231F20"/>
<path d="M152.609 239.203H162.785V229.235H152.609V239.203Z" fill="#7F2A20"/>
<path d="M142.439 239.203H152.611V229.235H142.439V239.203Z" fill="#7F2A20"/>
<path d="M101.742 239.203H111.913V229.235H101.742V239.203Z" fill="#7F2A20"/>
<path d="M30.5235 199.334H40.698V189.367H30.5235V199.334Z" fill="#9E3E21"/>
<path d="M30.5235 209.3H40.6979L40.698 199.334H30.5235L30.5235 209.3Z" fill="#C95B21"/>
<path d="M30.5235 189.368H40.698V179.399H30.5235V189.368Z" fill="#231F20"/>
<path d="M30.5235 219.269H40.698V209.304H30.5235V219.269Z" fill="#C95B21"/>
<path d="M40.6991 239.203H50.8736V229.235H40.6991V239.203Z" fill="#231F20"/>
<path d="M50.869 239.203H61.0434V229.235H50.869V239.203Z" fill="#231F20"/>
<path d="M20.3476 219.266H30.5195V209.3H20.3476V219.266Z" fill="#C95B21"/>
<path d="M61.0434 239.203H71.2167V229.235H61.0434V239.203Z" fill="#231F20"/>
<path d="M40.6991 229.235H50.8736V219.267H40.698L40.6991 229.235Z" fill="#9E3E21"/>
<path d="M132.263 89.702H142.435V79.7347H132.263V89.702Z" fill="#836E5B"/>
<path d="M10.1777 119.602H20.3522V109.635H10.1777V119.602Z" fill="#231F20"/>
<path d="M10.1777 99.6653H20.3522V89.7004H10.1777V99.6653Z" fill="#231F20"/>
<path d="M10.1777 109.635H20.3522V99.6653H10.1777V109.635Z" fill="#231F20"/>
<path d="M10.1777 169.437H20.3497V159.469H10.1777V169.437Z" fill="#231F20"/>
<path d="M101.742 79.7347H111.913V69.766H101.742V79.7347Z" fill="#231F20"/>
<path d="M71.2205 79.7347H81.395V69.766H71.2205V79.7347Z" fill="#614F41"/>
<path d="M91.5661 79.7347H101.738V69.766H91.5661V79.7347Z" fill="#A89179"/>
<path d="M81.3903 79.7347L91.5648 79.7334L91.5661 69.766H81.3903V79.7347Z" fill="#231F20"/>
<path d="M10.1777 179.399H20.3522V169.432H10.1777V179.399Z" fill="#EA7A27"/>
<path d="M50.869 79.7347L61.0434 79.7334V69.766H50.869V79.7347Z" fill="#8C7662"/>
<path d="M40.6991 79.7347H50.8736V69.766H40.6991V79.7347Z" fill="#A89179"/>
<path d="M111.918 79.7334H122.092V69.766H111.918V79.7334Z" fill="#614F41"/>
<path d="M61.0447 79.7347H71.2167V69.766H61.0434L61.0447 79.7347Z" fill="#614F41"/>
<path d="M20.3476 79.7347H30.5195V69.766H20.3476V79.7347Z" fill="#231F20"/>
<path d="M30.5235 79.7347L40.698 79.7334L40.6991 69.766H30.5235V79.7347Z" fill="#C95B21"/>
<path d="M81.3903 249.167V259.134H91.5648V249.167H81.3903Z" fill="#231F20"/>
<path d="M71.2205 259.134H81.395V249.167H71.2205V259.134Z" fill="#231F20"/>
<path d="M61.0447 259.134H71.2167V249.167H61.0447V259.134Z" fill="#A89179"/>
<path d="M91.5648 259.134H101.738V249.167H91.5648V259.134Z" fill="#9E3E21"/>
<path d="M40.6991 259.134H50.8736V249.167H40.6991V259.134Z" fill="#231F20"/>
<path d="M50.869 259.134H61.0447V249.167H50.869V259.134Z" fill="#A89179"/>
<path d="M101.742 259.134H111.914V249.167H101.742V259.134Z" fill="#231F20"/>
<path d="M122.088 259.134H132.262V249.167H122.088V259.134Z" fill="#231F20"/>
<path d="M132.262 259.134L142.435 259.134V249.167L132.262 249.167V259.134Z" fill="#A89179"/>
<path d="M111.912 259.134H122.088V249.167H111.912V259.134Z" fill="#231F20"/>
<path d="M20.3476 259.134H30.5195V249.167H20.3476V259.134Z" fill="#C95B21"/>
<path d="M10.1777 219.266H20.3522V209.301H10.1777V219.266Z" fill="#9E3E21"/>
<path d="M10.1777 209.301H20.3522V199.335H10.1777V209.301Z" fill="#C95B21"/>
<path d="M10.1777 229.234H20.3522V219.266H10.1777V229.234Z" fill="#231F20"/>
<path d="M10.1777 199.337H20.3522V189.369H10.1777V199.337Z" fill="#C95B21"/>
<path d="M30.5235 259.134L40.6991 259.134V249.167L30.5235 249.167V259.134Z" fill="#C95B21"/>
<path d="M10.1777 189.369H20.3522V179.399H10.1777V189.369Z" fill="#C95B21"/>
<path d="M20.3476 249.167H30.5195V239.201H20.3476V249.167Z" fill="#EA7A27"/>
<path d="M10.1777 249.166H20.3522V239.201H10.1777V249.166Z" fill="#231F20"/>
<path d="M162.785 249.166H172.959V239.201H162.785V249.166Z" fill="#231F20"/>
<path d="M101.742 249.167H111.914L111.913 239.201H101.742L101.742 249.167Z" fill="#231F20"/>
<path d="M132.262 249.167L142.435 249.167L142.435 239.201H132.263L132.262 249.167Z" fill="#A89179"/>
<path d="M152.609 249.166H162.785V239.201H152.609V249.166Z" fill="#231F20"/>
<path d="M111.912 249.167L122.086 249.166V239.201H111.912V249.167Z" fill="#A89179"/>
<path d="M122.088 249.167H132.262L132.263 239.201H122.086L122.088 249.167Z" fill="#A89179"/>
<path d="M142.439 249.166H152.611V239.201H142.439V249.166Z" fill="#231F20"/>
<path d="M183.13 249.166H193.305V239.201H183.13V249.166Z" fill="#EA7A27"/>
<path d="M183.13 239.203H193.305V229.235H183.13V239.203Z" fill="#231F20"/>
<path d="M172.959 249.166H183.132V239.201H172.959V249.166Z" fill="#EA7A27"/>
<path d="M20.3476 229.234H30.5195V219.266H20.3476V229.234Z" fill="#9E3E21"/>
<path d="M183.13 229.235H193.305V219.267H183.13V229.235Z" fill="#7F2A20"/>
<path d="M40.6991 249.167H50.8736V239.201H40.6991V249.167Z" fill="#C95B21"/>
<path d="M30.5235 239.203H40.6991L40.698 229.234H30.5235V239.203Z" fill="#231F20"/>
<path d="M30.5235 249.167L40.6991 249.167V239.201H30.5235L30.5235 249.167Z" fill="#C95B21"/>
<path d="M20.3476 239.203H30.5195V229.234H20.3476V239.203Z" fill="#231F20"/>
<path d="M91.5661 249.166L101.738 249.167V239.201H91.5661V249.166Z" fill="#9E3E21"/>
<path d="M50.869 249.167L61.0434 249.166V239.201H50.869V249.167Z" fill="#231F20"/>
<path d="M81.3903 239.201V249.167H91.5648L91.5661 239.201H81.3903Z" fill="#231F20"/>
<path d="M71.2205 249.167H81.395V239.201H71.2205V249.167Z" fill="#A89179"/>
<path d="M61.0447 249.167H71.2167V239.201H61.0434L61.0447 249.167Z" fill="#A89179"/>
<path d="M122.088 79.7334H132.262V69.766H122.088V79.7334Z" fill="#614F41"/>
<path d="M172.96 79.7347H183.132V69.766H172.96V79.7347Z" fill="#231F20"/>
<path d="M183.13 109.633H193.305V99.6661H183.13V109.633Z" fill="#231F20"/>
<path d="M183.13 219.268H193.305V209.301H183.13V219.268Z" fill="#231F20"/>
<path d="M132.263 79.7347H142.435V69.766H132.262L132.263 79.7347Z" fill="#836E5B"/>
<path d="M183.13 119.602H193.305V109.633H183.13V119.602Z" fill="#231F20"/>
<path d="M142.439 79.7347H152.611V69.766H142.439V79.7347Z" fill="#A89179"/>
<path d="M152.609 79.7347H162.783V69.766H152.609V79.7347Z" fill="#A89179"/>
<path d="M162.785 79.7334H172.959L172.96 69.766H162.783L162.785 79.7334Z" fill="#C95B21"/>
<path d="M183.13 99.6661H193.305V89.7004H183.13V99.6661Z" fill="#231F20"/>
<path d="M183.13 199.337H193.305V189.369H183.13V199.337Z" fill="#C95B21"/>
<path d="M183.13 189.369H193.305V179.401H183.13V189.369Z" fill="#C95B21"/>
<path d="M183.13 209.301H193.305V199.335H183.13V209.301Z" fill="#231F20"/>
<path d="M183.13 129.568H193.305V119.601H183.13V129.568Z" fill="#C95B21"/>
<path d="M183.13 179.401H193.305V169.432H183.13V179.401Z" fill="#9E3E21"/>
<path d="M183.13 139.534H193.305V129.568H183.13V139.534Z" fill="#C95B21"/>
<path d="M183.13 169.437H193.305V159.469H183.13V169.437Z" fill="#C95B21"/>
<path d="M183.13 149.499H193.305V139.532H183.13V149.499Z" fill="#9E3E21"/>
<path d="M183.13 159.469H193.305V149.499H183.13V159.469Z" fill="#C95B21"/>
<path d="M111.912 179.399H122.086V169.432H111.912V179.399Z" fill="#9E3E21"/>
<path d="M61.0447 129.568H71.2167V119.601H61.0447V129.568Z" fill="#231F20"/>
<path d="M61.0447 139.534H71.2167V129.568H61.0447V139.534Z" fill="#8C7662"/>
<path d="M61.0447 199.337H71.2167V189.369H61.0447V199.337Z" fill="#A89179"/>
<path d="M71.2205 129.568H81.395V119.601H71.2205V129.568Z" fill="#BCAC95"/>
<path d="M81.3903 129.568H91.5648V119.601H81.3903V129.568Z" fill="#BCAC95"/>
<path d="M61.0447 149.499H71.2167V139.532H61.0447V149.499Z" fill="#A89179"/>
<path d="M61.0447 159.468H71.2167V149.499H61.0447V159.468Z" fill="#9E3E21"/>
<path d="M61.0447 179.399H71.2167V169.432H61.0447V179.399Z" fill="#9E3E21"/>
<path d="M61.0447 189.369H71.2167V179.399H61.0447V189.369Z" fill="#231F20"/>
<path d="M61.0447 169.437H71.2167V159.468H61.0447V169.437Z" fill="#231F20"/>
<path d="M91.5648 129.568H101.738V119.601H91.5648V129.568Z" fill="#231F20"/>
<path d="M132.263 159.468H142.435V149.501H132.263V159.468Z" fill="#9E3E21"/>
<path d="M101.742 129.568H111.913V119.601H101.742V129.568Z" fill="#BCAC95"/>
<path d="M132.263 169.437H142.435L142.435 159.468H132.263L132.263 169.437Z" fill="#231F20"/>
<path d="M132.263 189.368H142.435V179.401H132.263V189.368Z" fill="#231F20"/>
<path d="M132.263 179.401H142.435V169.432H132.263V179.401Z" fill="#9E3E21"/>
<path d="M132.263 149.501H142.435L142.435 139.532H132.263L132.263 149.501Z" fill="#A89179"/>
<path d="M111.912 129.568H122.086V119.601H111.912V129.568Z" fill="#BCAC95"/>
<path d="M122.086 129.568H132.259V119.601H122.086V129.568Z" fill="#231F20"/>
<path d="M132.263 129.568H142.435V119.601H132.263V129.568Z" fill="#A89179"/>
<path d="M132.263 139.534H142.435V129.568H132.263V139.534Z" fill="#A89179"/>
<path d="M142.439 179.399H152.611V169.432H142.439V179.399Z" fill="#7F2A20"/>
<path d="M142.439 159.468H152.611V149.501H142.439V159.468Z" fill="#9E3E21"/>
<path d="M142.439 149.501H152.611V139.532H142.439V149.501Z" fill="#A89179"/>
<path d="M142.439 169.437H152.611V159.468H142.439V169.437Z" fill="#231F20"/>
<path d="M142.439 139.534H152.611V129.569H142.439V139.534Z" fill="#A89179"/>
<path d="M132.263 199.334H142.435V189.367H132.263V199.334Z" fill="#231F20"/>
<path d="M71.2205 199.337H81.395V189.369H71.2205V199.337Z" fill="#A89179"/>
<path d="M162.785 109.633H172.959V99.6661L162.785 99.6653V109.633Z" fill="#C95B21"/>
<path d="M142.439 129.569H152.611V119.601H142.439V129.569Z" fill="#A89179"/>
<path d="M132.263 119.602H142.435V109.635H132.263V119.602Z" fill="#A89179"/>
<path d="M142.439 119.602H152.611V109.635H142.439V119.602Z" fill="#A89179"/>
<path d="M122.088 119.602H132.259V109.635H122.088V119.602Z" fill="#6A5647"/>
<path d="M91.5661 209.3H101.738V199.335H91.5661V209.3Z" fill="#9E3E21"/>
<path d="M81.3903 199.335V209.3H91.5661V199.335H81.3903Z" fill="#231F20"/>
<path d="M71.2205 209.3H81.395V199.335H71.2205V209.3Z" fill="#A89179"/>
<path d="M142.439 199.337H152.611V189.369H142.439V199.337Z" fill="#EA7A27"/>
<path d="M132.263 209.3H142.435L142.435 199.334H132.263L132.263 209.3Z" fill="#231F20"/>
<path d="M142.439 209.3H152.611V199.335H142.439V209.3Z" fill="#C95B21"/>
<path d="M122.088 209.3L132.263 209.3L132.262 199.335H122.088V209.3Z" fill="#A89179"/>
<path d="M111.912 209.3H122.088V199.335H111.912V209.3Z" fill="#A89179"/>
<path d="M122.088 199.337H132.262V189.369H122.088V199.337Z" fill="#A89179"/>
<path d="M81.3903 169.437H91.5648V159.469H81.3903V169.437Z" fill="#231F20"/>
<path d="M81.3903 159.469H91.5648V149.501H81.3903V159.469Z" fill="#9E3E21"/>
<path d="M111.912 119.602H122.088V109.635H111.912V119.602Z" fill="#BCAC95"/>
<path d="M81.3903 149.501H91.5648V139.532H81.3903V149.501Z" fill="#BCAC95"/>
<path d="M81.3903 179.399H91.5648V169.432H81.3903V179.399Z" fill="#9E3E21"/>
<path d="M101.742 149.499H111.913V139.532H101.742V149.499Z" fill="#BCAC95"/>
<path d="M111.912 189.368H122.086V179.399H111.912V189.368Z" fill="#231F20"/>
<path d="M122.088 189.369H132.262L132.263 179.401H122.088V189.369Z" fill="#231F20"/>
<path d="M101.742 189.368H111.913V179.401H101.742V189.368Z" fill="#9E3E21"/>
<path d="M91.5661 189.368H101.738V179.401H91.5661V189.368Z" fill="#9E3E21"/>
<path d="M91.5661 179.401H101.738V169.432H91.5648L91.5661 179.401Z" fill="#9E3E21"/>
<path d="M101.742 169.437H111.913V159.469H101.742V169.437Z" fill="#231F20"/>
<path d="M91.5648 169.437H101.738V159.469H91.5648V169.437Z" fill="#7F2A20"/>
<path d="M91.5661 159.468L101.738 159.469V149.501H91.5648L91.5661 159.468Z" fill="#9E3E21"/>
<path d="M101.742 159.469H111.913V149.499H101.742V159.469Z" fill="#9E3E21"/>
<path d="M111.912 149.499H122.086V139.532H111.912V149.499Z" fill="#8C7662"/>
<path d="M111.912 169.437H122.086V159.469H111.912V169.437Z" fill="#7F2A20"/>
<path d="M101.742 179.401H111.913V169.432H101.742V179.401Z" fill="#9E3E21"/>
<path d="M111.912 159.469H122.086V149.499H111.912V159.469Z" fill="#9E3E21"/>
<path d="M142.439 259.134H152.611V249.166H142.439V259.134Z" fill="#A89179"/>
<path d="M91.5661 149.499L101.738 149.501V139.532H91.5648L91.5661 149.499Z" fill="#BCAC95"/>
<path d="M71.2205 179.399H81.395V169.432H71.2205V179.399Z" fill="#9E3E21"/>
<path d="M81.3903 189.368H91.5661L91.5648 179.399H81.3903V189.368Z" fill="#9E3E21"/>
<path d="M71.2205 189.369H81.395V179.399H71.2205V189.369Z" fill="#231F20"/>
<path d="M71.2205 169.437H81.395V159.469H71.2205V169.437Z" fill="#7F2A20"/>
<path d="M71.2205 159.469H81.395V149.501H71.2205V159.469Z" fill="#9E3E21"/>
<path d="M81.3903 199.337H91.5648V189.369L81.3903 189.368V199.337Z" fill="#231F20"/>
<path d="M101.742 199.335H111.914L111.913 189.367H101.742L101.742 199.335Z" fill="#231F20"/>
<path d="M111.912 199.337H122.088L122.086 189.368H111.912V199.337Z" fill="#A89179"/>
<path d="M71.2205 149.501H81.395V139.532H71.2205V149.501Z" fill="#8C7662"/>
<path d="M91.5648 199.337H101.738V189.368H91.5661L91.5648 199.337Z" fill="#9E3E21"/>
<path d="M101.742 139.534H111.913V129.568H101.742V139.534Z" fill="#231F20"/>
<path d="M122.088 139.534H132.259V129.568L122.088 129.569V139.534Z" fill="#8C7662"/>
<path d="M122.088 159.468L132.263 159.468V149.501L122.088 149.501V159.468Z" fill="#9E3E21"/>
<path d="M122.088 149.501L132.262 149.499L132.263 139.532H122.086L122.088 149.501Z" fill="#A89179"/>
<path d="M122.086 169.437H132.263L132.262 159.469L122.088 159.468L122.086 169.437Z" fill="#231F20"/>
<path d="M91.5661 139.534H101.738V129.568L91.5661 129.569V139.534Z" fill="#231F20"/>
<path d="M81.3903 139.534H91.5661L91.5648 129.568H81.3903V139.534Z" fill="#231F20"/>
<path d="M71.2205 139.534H81.395V129.568H71.2205V139.534Z" fill="#231F20"/>
<path d="M111.912 139.534H122.088L122.086 129.568H111.912V139.534Z" fill="#231F20"/>
<path d="M122.088 179.401L132.262 179.399L132.263 169.432H122.086L122.088 179.401Z" fill="#9E3E21"/>
<path d="M142.439 189.369H152.611V179.399H142.439V189.369Z" fill="#231F20"/>
<path d="M40.6991 199.337H50.8736V189.369H40.6991V199.337Z" fill="#EA7A27"/>
<path d="M40.6991 189.369H50.8736V179.401H40.6991V189.369Z" fill="#231F20"/>
<path d="M40.6979 209.3L50.8736 209.3V199.335H40.6991L40.6979 209.3Z" fill="#C95B21"/>
<path d="M40.6991 179.401H50.8736V169.432H40.698L40.6991 179.401Z" fill="#C95B21"/>
<path d="M40.698 169.437H50.8736V159.469H40.6991L40.698 169.437Z" fill="#C95B21"/>
<path d="M50.869 229.235H61.0434V219.267H50.869V229.235Z" fill="#9E3E21"/>
<path d="M40.698 219.267H50.8736V209.3L40.6991 209.301L40.698 219.267Z" fill="#C95B21"/>
<path d="M40.6991 159.469H50.8736V149.501L40.6979 149.501L40.6991 159.469Z" fill="#231F20"/>
<path d="M61.0447 229.234L71.2167 229.235V219.267H61.0434L61.0447 229.234Z" fill="#231F20"/>
<path d="M50.869 219.267H61.0434V209.301H50.869V219.267Z" fill="#231F20"/>
<path d="M61.0447 109.633H71.2167V99.6653L61.0447 99.6661V109.633Z" fill="#A89179"/>
<path d="M71.2205 229.235H81.395V219.267H71.2205V229.235Z" fill="#8C7662"/>
<path d="M71.2205 109.633H81.395V99.6653H71.2205V109.633Z" fill="#6A5647"/>
<path d="M81.3903 109.633H91.5648V99.6653H81.3903V109.633Z" fill="#BCAC95"/>
<path d="M50.869 109.633H61.0447L61.0434 99.6653H50.869V109.633Z" fill="#A89179"/>
<path d="M40.698 119.602H50.8736V109.635H40.6991L40.698 119.602Z" fill="#A89179"/>
<path d="M40.6991 109.635H50.8736V99.6653L40.6979 99.6662L40.6991 109.635Z" fill="#A89179"/>
<path d="M40.6991 129.568H50.8736V119.601H40.698L40.6991 129.568Z" fill="#A89179"/>
<path d="M40.698 139.534H50.8736V129.568H40.6991L40.698 139.534Z" fill="#A89179"/>
<path d="M40.6991 149.499L50.8736 149.501V139.532H40.698L40.6991 149.499Z" fill="#9E3E21"/>
<path d="M81.3903 219.267V229.235H91.5648V219.267H81.3903Z" fill="#231F20"/>
<path d="M162.785 169.437H172.96V159.469H162.785V169.437Z" fill="#C95B21"/>
<path d="M162.785 159.469L172.959 159.468V149.501H162.785V159.469Z" fill="#231F20"/>
<path d="M162.785 179.399H172.959L172.96 169.432H162.785V179.399Z" fill="#231F20"/>
<path d="M162.785 189.368H172.959V179.399H162.785V189.368Z" fill="#EA7A27"/>
<path d="M91.5648 109.633H101.738V99.6653L91.5661 99.6661L91.5648 109.633Z" fill="#231F20"/>
<path d="M162.785 139.534H172.96L172.959 129.569H162.785V139.534Z" fill="#9E3E21"/>
<path d="M162.785 149.501H172.959L172.96 139.532H162.785V149.501Z" fill="#231F20"/>
<path d="M162.785 129.569H172.959L172.96 119.601H162.785V129.569Z" fill="#C95B21"/>
<path d="M162.785 119.602H172.96L172.959 109.633H162.785V119.602Z" fill="#C95B21"/>
<path d="M162.785 209.3H172.96V199.335H162.785V209.3Z" fill="#C95B21"/>
<path d="M162.785 199.337H172.96L172.959 189.368H162.785V199.337Z" fill="#C95B21"/>
<path d="M111.912 229.235H122.086V219.267H111.912V229.235Z" fill="#8C7662"/>
<path d="M101.742 229.235H111.913V219.267H101.742V229.235Z" fill="#231F20"/>
<path d="M122.088 229.234L132.262 229.235V219.267H122.086L122.088 229.234Z" fill="#231F20"/>
<path d="M162.785 219.268H172.96L172.959 209.301L162.785 209.3V219.268Z" fill="#231F20"/>
<path d="M91.5661 229.234L101.738 229.235V219.267H91.5648L91.5661 229.234Z" fill="#9E3E21"/>
<path d="M152.609 229.235L162.783 229.234V219.267H152.609V229.235Z" fill="#231F20"/>
<path d="M162.785 229.235H172.959L172.96 219.267H162.783L162.785 229.235Z" fill="#231F20"/>
<path d="M132.263 229.234L142.435 229.235V219.267H132.262L132.263 229.234Z" fill="#7F2A20"/>
<path d="M142.439 229.235H152.611V219.267H142.439V229.235Z" fill="#231F20"/>
<path d="M50.869 199.337H61.0447V189.369H50.869V199.337Z" fill="#231F20"/>
<path d="M61.0447 209.3H71.2167V199.335H61.0447V209.3Z" fill="#A89179"/>
<path d="M101.742 109.634H111.914L111.913 99.6653H101.742L101.742 109.634Z" fill="#BCAC95"/>
<path d="M101.742 119.602H111.913L111.914 109.634H101.742L101.742 119.602Z" fill="#BCAC95"/>
<path d="M50.869 189.369L61.0434 189.368V179.401H50.869V189.369Z" fill="#231F20"/>
<path d="M50.869 179.401H61.0434L61.0447 169.432H50.869V179.401Z" fill="#C95B21"/>
<path d="M71.2205 219.267H81.395V209.3H71.2205V219.267Z" fill="#A89179"/>
<path d="M81.3903 209.3V219.268H91.5648V209.301L81.3903 209.3Z" fill="#231F20"/>
<path d="M91.5648 219.268H101.738V209.3H91.5661L91.5648 219.268Z" fill="#9E3E21"/>
<path d="M61.0447 219.266L71.2167 219.267V209.3H61.0447V219.266Z" fill="#8C7662"/>
<path d="M50.869 169.437H61.0447L61.0434 159.469H50.869V169.437Z" fill="#231F20"/>
<path d="M50.869 149.499H61.0447V139.532H50.869V149.499Z" fill="#A89179"/>
<path d="M50.869 159.469H61.0434V149.501L50.869 149.499V159.469Z" fill="#9E3E21"/>
<path d="M71.2205 119.602H81.395V109.633H71.2205V119.602Z" fill="#BCAC95"/>
<path d="M81.3903 119.602H91.5648V109.633H81.3903V119.602Z" fill="#BCAC95"/>
<path d="M91.5648 119.602H101.738V109.633L91.5661 109.635L91.5648 119.602Z" fill="#231F20"/>
<path d="M61.0447 119.602H71.2167V109.633H61.0447V119.602Z" fill="#6A5647"/>
<path d="M50.869 139.534H61.0447L61.0434 129.569H50.869V139.534Z" fill="#A89179"/>
<path d="M101.742 219.268H111.913L111.914 209.3H101.742L101.742 219.268Z" fill="#231F20"/>
<path d="M50.869 119.602H61.0447L61.0434 109.635L50.869 109.633V119.602Z" fill="#A89179"/>
<path d="M50.869 129.569H61.0434L61.0447 119.601H50.869V129.569Z" fill="#A89179"/>
<path d="M50.869 209.301H61.0434L61.0447 199.335H50.869V209.301Z" fill="#231F20"/>
<path d="M152.609 129.568H162.783L162.785 119.601H152.609V129.568Z" fill="#A89179"/>
<path d="M152.609 119.602H162.785L162.783 109.635H152.609V119.602Z" fill="#A89179"/>
<path d="M152.609 149.499H162.783L162.785 139.532H152.609V149.499Z" fill="#9E3E21"/>
<path d="M152.609 139.534H162.785L162.783 129.568H152.609V139.534Z" fill="#A89179"/>
<path d="M152.609 109.635H162.783V99.6661L152.609 99.6653V109.635Z" fill="#A89179"/>
<path d="M111.912 219.268H122.086V209.301L111.912 209.3V219.268Z" fill="#A89179"/>
<path d="M111.912 109.635L122.086 109.633V99.6661L111.912 99.6653V109.635Z" fill="#6A5647"/>
<path d="M122.088 109.635H132.259V99.6653H122.088V109.635Z" fill="#A89179"/>
<path d="M142.439 109.635H152.611V99.6653H142.439V109.635Z" fill="#A89179"/>
<path d="M132.263 109.635H142.435V99.6653H132.263V109.635Z" fill="#A89179"/>
<path d="M152.609 159.468H162.783V149.499H152.609V159.468Z" fill="#231F20"/>
<path d="M142.439 219.268H152.611V209.3H142.439V219.268Z" fill="#9E3E21"/>
<path d="M132.263 219.268H142.435L142.435 209.3H132.263L132.263 219.268Z" fill="#231F20"/>
<path d="M152.609 219.268H162.785L162.783 209.301H152.609V219.268Z" fill="#9E3E21"/>
<path d="M152.609 169.437H162.785L162.783 159.468H152.609V169.437Z" fill="#7F2A20"/>
<path d="M122.086 219.268H132.263L132.262 209.301L122.088 209.3L122.086 219.268Z" fill="#8C7662"/>
<path d="M152.609 189.368H162.785L162.783 179.401H152.609V189.368Z" fill="#231F20"/>
<path d="M152.609 209.301H162.783L162.785 199.335H152.609V209.301Z" fill="#C95B21"/>
<path d="M152.609 179.401H162.783L162.785 169.432H152.609V179.401Z" fill="#7F2A20"/>
<path d="M152.609 199.337H162.785L162.783 189.369L152.609 189.368V199.337Z" fill="#EA7A27"/>
<path d="M132.263 289.035H142.435V279.07H132.263V289.035Z" fill="#8C7662"/>
<path d="M61.0447 289.035H71.2167V279.07H61.0447V289.035Z" fill="#8C7662"/>
<path d="M40.6991 289.035H50.8736V279.07H40.6991V289.035Z" fill="#231F20"/>
<path d="M30.5235 289.035H40.6991V279.07H30.5235V289.035Z" fill="#7F2A20"/>
<path d="M50.869 289.035H61.0447V279.07H50.869V289.035Z" fill="#8C7662"/>
<path d="M81.3903 289.035H91.5648V279.07H81.3903V289.035Z" fill="#231F20"/>
<path d="M111.912 289.035H122.086V279.07H111.912V289.035Z" fill="#8C7662"/>
<path d="M91.5648 289.035H101.738V279.07H91.5648V289.035Z" fill="#7F2A20"/>
<path d="M122.086 289.035H132.263V279.07H122.086V289.035Z" fill="#8C7662"/>
<path d="M101.742 289.035H111.913V279.07H101.742V289.035Z" fill="#231F20"/>
<path d="M71.2205 289.035H81.395V279.07H71.2205V289.035Z" fill="#8C7662"/>
<path d="M10.1777 289.035H20.3522V279.07H10.1777V289.035Z" fill="#7F2A20"/>
<path d="M0.00195312 289.035H10.1777V279.07H0.00195312V289.035Z" fill="#231F20"/>
<path d="M20.3476 289.035H30.5195V279.07H20.3476V289.035Z" fill="#231F20"/>
<path d="M213.652 169.437H223.824V159.469H213.652V169.437Z" fill="#C95B21"/>
<path d="M213.652 149.499H223.824V139.532H213.652V149.499Z" fill="#231F20"/>
<path d="M213.652 159.469H223.824V149.499H213.652V159.469Z" fill="#231F20"/>
<path d="M213.652 249.166H223.824V239.201H213.652V249.166Z" fill="#231F20"/>
<path d="M213.652 239.203H223.824V229.235H213.652V239.203Z" fill="#C95B21"/>
<path d="M213.652 229.235H223.824V219.267H213.652V229.235Z" fill="#C95B21"/>
<path d="M213.652 259.134H223.824V249.166H213.652V259.134Z" fill="#C95B21"/>
<path d="M152.609 259.134H162.783V249.167L152.609 249.166V259.134Z" fill="#231F20"/>
<path d="M213.652 189.368H223.824V179.401H213.652V189.368Z" fill="#C95B21"/>
<path d="M213.652 199.337H223.824V189.368H213.652V199.337Z" fill="#C95B21"/>
<path d="M213.652 219.268H223.824V209.301H213.652V219.268Z" fill="#C95B21"/>
<path d="M213.652 179.401H223.824V169.432H213.652V179.401Z" fill="#C95B21"/>
<path d="M142.439 49.8362H152.611V39.8688H142.439V49.8362Z" fill="#C95B21"/>
<path d="M71.2205 49.8362H81.395V39.8688H71.2205V49.8362Z" fill="#A89179"/>
<path d="M122.088 49.8362H132.262V39.8688H122.088V49.8362Z" fill="#A89179"/>
<path d="M81.3903 49.8362H91.5648V39.8688H81.3903V49.8362Z" fill="#A89179"/>
<path d="M101.742 49.8332H111.913V39.8659H101.742V49.8332Z" fill="#A89179"/>
<path d="M111.912 49.8362H122.088V39.8688H111.912V49.8362Z" fill="#A89179"/>
<path d="M91.5648 49.8362H101.741V39.8688H91.5648V49.8362Z" fill="#A89179"/>
<path d="M40.6991 49.8362H50.8736V39.8688H40.6991V49.8362Z" fill="#C95B21"/>
<path d="M61.0447 49.8362H71.2167V39.8688H61.0447V49.8362Z" fill="#A89179"/>
<path d="M50.869 49.8362H61.0447V39.8688H50.869V49.8362Z" fill="#C95B21"/>
<path d="M30.5235 49.8332H40.698V39.8659H30.5235V49.8332Z" fill="#231F20"/>
<path d="M132.263 49.8332H142.435V39.8659H132.263V49.8332Z" fill="#8C7662"/>
<path d="M152.609 49.8362H162.783V39.8688H152.609V49.8362Z" fill="#C95B21"/>
<path d="M162.783 49.8362H172.959V39.8688H162.783V49.8362Z" fill="#231F20"/>
<path d="M142.439 289.035H152.611V279.07H142.439V289.035Z" fill="#8C7662"/>
<path d="M91.5661 39.8675H101.738V29.8993H91.5661V39.8675Z" fill="#C95B21"/>
<path d="M101.742 39.8675H111.913V29.8993H101.742V39.8675Z" fill="#8C7662"/>
<path d="M111.912 39.8688L122.086 39.8675V29.9001L111.912 29.8993V39.8688Z" fill="#C95B21"/>
<path d="M122.088 39.8688H132.262L132.263 29.8993H122.088V39.8688Z" fill="#8C7662"/>
<path d="M81.3963 39.8675H91.5682V29.9001H81.3963V39.8675Z" fill="#8C7662"/>
<path d="M40.6991 39.8688L50.8711 39.8675V29.9001L40.6991 29.8993V39.8688Z" fill="#EA7A27"/>
<path d="M50.869 39.8688L61.0434 39.8675V29.8993H50.869V39.8688Z" fill="#C95B21"/>
<path d="M61.0447 39.8688L71.2192 39.8675V29.9001H61.0447V39.8688Z" fill="#8C7662"/>
<path d="M71.2205 39.8688H81.395V29.8993H71.2205V39.8688Z" fill="#C95B21"/>
<path d="M213.652 269.1H223.824V259.133H213.652V269.1Z" fill="#C95B21"/>
<path d="M132.263 39.8675H142.435V29.8993H132.263V39.8675Z" fill="#C95B21"/>
<path d="M30.5233 39.8675H40.6978V29.9001H30.5233V39.8675Z" fill="#231F20"/>
<path d="M223.827 229.234H234.002V219.267H223.827V229.234Z" fill="#231F20"/>
<path d="M223.827 219.268H234.002V209.301H223.827V219.268Z" fill="#231F20"/>
<path d="M223.827 239.203H234.002V229.234H223.827V239.203Z" fill="#231F20"/>
<path d="M223.827 259.134H234.002V249.167H223.827V259.134Z" fill="#231F20"/>
<path d="M223.827 249.167H234.002V239.201H223.827V249.167Z" fill="#231F20"/>
<path d="M223.827 269.1H234.002V259.133H223.827V269.1Z" fill="#231F20"/>
<path d="M223.827 169.437H234.002V159.469H223.827V169.437Z" fill="#231F20"/>
<path d="M223.827 189.368H234.002V179.401H223.827V189.368Z" fill="#231F20"/>
<path d="M223.827 209.301H234.002V199.335H223.827V209.301Z" fill="#231F20"/>
<path d="M223.827 199.337H234.002V189.368H223.827V199.337Z" fill="#231F20"/>
<path d="M223.827 179.401H234.002V169.432H223.827V179.401Z" fill="#231F20"/>
<path d="M183.13 289.035H193.305V279.07H183.13V289.035Z" fill="#7F2A20"/>
<path d="M162.785 289.035H172.959V279.07H162.785V289.035Z" fill="#7F2A20"/>
<path d="M172.959 289.035H183.132V279.07H172.959V289.035Z" fill="#231F20"/>
<path d="M223.827 279.069H234.002V269.1H223.827V279.069Z" fill="#231F20"/>
<path d="M152.609 289.035H162.785V279.07H152.609V289.035Z" fill="#231F20"/>
<path d="M142.439 39.8688H152.611V29.8993H142.439V39.8688Z" fill="#C95B21"/>
<path d="M213.652 289.035H223.824V279.07H213.652V289.035Z" fill="#231F20"/>
<path d="M203.482 289.035H213.656V279.07H203.482V289.035Z" fill="#7F2A20"/>
<path d="M193.305 289.035H203.482V279.07H193.305V289.035Z" fill="#231F20"/>
<path d="M162.785 39.8675L172.959 39.8688V29.9001H162.785V39.8675Z" fill="#231F20"/>
<path d="M152.609 39.8688H162.783V29.8993H152.609V39.8688Z" fill="#EA7A27"/>
<path d="M213.652 209.301H223.824V199.335H213.652V209.301Z" fill="#C95B21"/>
<path d="M0.00195312 179.399H10.1777V169.432H0.00195312V179.399Z" fill="#231F20"/>
<path d="M0.00195312 209.3H10.1764L10.1777 199.335L0.00195312 199.335V209.3Z" fill="#231F20"/>
<path d="M0.00195312 199.335L10.1764 199.334V189.367H0.00195312V199.335Z" fill="#231F20"/>
<path d="M0.00195312 189.368H10.1764V179.401L0.00195312 179.399V189.368Z" fill="#231F20"/>
<path d="M0.00195312 219.269H10.1764V209.304H0.00195312V219.269Z" fill="#231F20"/>
<path d="M10.1777 269.1H20.3522V259.133H10.1777V269.1Z" fill="#C95B21"/>
<path d="M10.1777 259.134H20.3522V249.166H10.1777V259.134Z" fill="#EA7A27"/>
<path d="M0.00195312 259.134L10.1777 259.134L10.1764 249.167H0.00195312V259.134Z" fill="#231F20"/>
<path d="M20.3476 269.1H30.5195V259.133H20.3476V269.1Z" fill="#C95B21"/>
<path d="M162.785 269.1H172.959V259.133H162.785V269.1Z" fill="#C95B21"/>
<path d="M152.609 269.1H162.785V259.133H152.609V269.1Z" fill="#231F20"/>
<path d="M142.439 269.1H152.611V259.133H142.439V269.1Z" fill="#A89179"/>
<path d="M172.959 269.1H183.132V259.133H172.959V269.1Z" fill="#C95B21"/>
<path d="M132.263 269.103H142.435L142.435 259.134L132.263 259.135V269.103Z" fill="#A89179"/>
<path d="M203.482 259.134H213.656V249.167H203.482V259.134Z" fill="#C95B21"/>
<path d="M122.088 269.1H132.262V259.133H122.088V269.1Z" fill="#A89179"/>
<path d="M203.482 269.1H213.656V259.133H203.482V269.1Z" fill="#C95B21"/>
<path d="M193.306 269.1H203.482V259.133H193.306V269.1Z" fill="#C95B21"/>
<path d="M183.13 269.1H193.306V259.133H183.13V269.1Z" fill="#C95B21"/>
<path d="M50.869 269.1H61.0434V259.133H50.869V269.1Z" fill="#A89179"/>
<path d="M40.6991 269.1H50.8736V259.133H40.6991V269.1Z" fill="#231F20"/>
<path d="M30.5235 269.103H40.698V259.135L30.5235 259.134L30.5235 269.103Z" fill="#C95B21"/>
<path d="M61.0434 269.1H71.2167V259.133H61.0434V269.1Z" fill="#A89179"/>
<path d="M81.3903 269.1H91.5648V259.133H81.3903V269.1Z" fill="#231F20"/>
<path d="M91.5648 269.1H101.738V259.133H91.5648V269.1Z" fill="#9E3E21"/>
<path d="M101.742 269.103H111.913L111.914 259.134H101.742L101.742 269.103Z" fill="#231F20"/>
<path d="M71.2205 269.1H81.395V259.133H71.2205V269.1Z" fill="#A89179"/>
<path d="M111.912 269.1H122.088V259.133H111.912V269.1Z" fill="#A89179"/>
<path d="M193.305 149.499H203.481V139.532H193.305V149.499Z" fill="#C95B21"/>
<path d="M203.482 249.167H213.656V239.201H203.482V249.167Z" fill="#EA7A27"/>
<path d="M193.305 169.437H203.481V159.469H193.305V169.437Z" fill="#C95B21"/>
<path d="M193.306 179.399H203.481V169.432H193.305L193.306 179.399Z" fill="#C95B21"/>
<path d="M193.305 199.337H203.481V189.369H193.305V199.337Z" fill="#C95B21"/>
<path d="M193.306 189.368L203.481 189.369V179.399H193.306V189.368Z" fill="#9E3E21"/>
<path d="M193.305 139.534H203.481V129.569H193.306L193.305 139.534Z" fill="#C95B21"/>
<path d="M193.306 129.569H203.481V119.601H193.305L193.306 129.569Z" fill="#231F20"/>
<path d="M183.13 259.134H193.305V249.166H183.13V259.134Z" fill="#C95B21"/>
<path d="M172.96 259.134H183.132V249.166L172.96 249.167V259.134Z" fill="#C95B21"/>
<path d="M193.305 259.134H203.482V249.167H193.306L193.305 259.134Z" fill="#C95B21"/>
<path d="M162.783 259.134H172.96L172.959 249.166H162.785L162.783 259.134Z" fill="#C95B21"/>
<path d="M213.652 279.07H223.824V269.1H213.652V279.07Z" fill="#9E3E21"/>
<path d="M193.305 219.268H203.481V209.301H193.305V219.268Z" fill="#231F20"/>
<path d="M193.306 229.234H203.481V219.267H193.305L193.306 229.234Z" fill="#7F2A20"/>
<path d="M193.306 249.167L203.481 249.166L203.482 239.201H193.305L193.306 249.167Z" fill="#EA7A27"/>
<path d="M193.306 209.3L203.481 209.301V199.335H193.305L193.306 209.3Z" fill="#9E3E21"/>
<path d="M193.306 159.468L203.481 159.469V149.499L193.306 149.501V159.468Z" fill="#9E3E21"/>
<path d="M71.2205 69.766H81.395V59.8003H71.2205V69.766Z" fill="#614F41"/>
<path d="M61.0447 69.7651L71.2167 69.766V59.8003H61.0447V69.7651Z" fill="#836E5B"/>
<path d="M81.3903 69.766L91.5648 69.7651V59.8003H81.3903V69.766Z" fill="#231F20"/>
<path d="M111.918 69.766H122.092V59.8003H111.918V69.766Z" fill="#614F41"/>
<path d="M101.742 69.766H111.913V59.8003H101.742V69.766Z" fill="#231F20"/>
<path d="M91.5661 69.766H101.738V59.8003H91.5648L91.5661 69.766Z" fill="#836E5B"/>
<path d="M30.5235 69.766H40.6991L40.698 59.8003H30.5235V69.766Z" fill="#EA7A27"/>
<path d="M50.869 69.766H61.0434L61.0447 59.8003H50.869V69.766Z" fill="#BCAC95"/>
<path d="M20.3476 69.766H30.5195V59.8003H20.3476V69.766Z" fill="#231F20"/>
<path d="M40.6991 69.766H50.8736V59.8003H40.698L40.6991 69.766Z" fill="#8C7662"/>
<path d="M132.262 69.766H142.435V59.8003H132.263L132.262 69.766Z" fill="#BCAC95"/>
<path d="M172.96 69.766H183.132V59.8003H172.96V69.766Z" fill="#231F20"/>
<path d="M122.088 69.766H132.262L132.263 59.8003H122.088V69.766Z" fill="#836E5B"/>
<path d="M162.785 69.7651H172.959L172.96 59.8003H162.785V69.7651Z" fill="#C95B21"/>
<path d="M142.439 69.766H152.611V59.8003H142.439V69.766Z" fill="#A89179"/>
<path d="M152.609 69.766H162.783L162.785 59.8003H152.609V69.766Z" fill="#8C7662"/>
<path d="M193.305 239.203H203.481V229.234H193.306L193.305 239.203Z" fill="#231F20"/>
<path d="M0.00195312 269.103H10.1764V259.135L0.00195312 259.134V269.103Z" fill="#231F20"/>
<path d="M0.00195312 279.07L10.1764 279.069V269.101H0.00195312V279.07Z" fill="#231F20"/>
<path d="M162.785 279.07H172.959V269.1H162.785V279.07Z" fill="#9E3E21"/>
<path d="M142.439 279.07H152.611V269.1H142.439V279.07Z" fill="#A89179"/>
<path d="M152.609 279.07L162.783 279.069V269.101L152.609 269.1V279.07Z" fill="#231F20"/>
<path d="M132.263 279.07H142.435V269.101H132.263V279.07Z" fill="#A89179"/>
<path d="M122.088 279.069H132.262V269.1H122.088V279.069Z" fill="#231F20"/>
<path d="M193.306 279.069H203.481V269.101L193.306 269.1V279.069Z" fill="#9E3E21"/>
<path d="M203.482 279.07H213.656V269.1H203.482V279.07Z" fill="#9E3E21"/>
<path d="M111.912 279.07H122.086V269.101L111.912 269.1V279.07Z" fill="#231F20"/>
<path d="M183.13 279.07H193.305V269.101L183.13 269.1V279.07Z" fill="#9E3E21"/>
<path d="M172.96 279.069L183.132 279.07V269.1L172.96 269.101V279.069Z" fill="#9E3E21"/>
<path d="M61.0447 279.07H71.2167V269.1L61.0447 269.101V279.07Z" fill="#A89179"/>
<path d="M30.5235 279.07L40.698 279.069V269.101H30.5235V279.07Z" fill="#9E3E21"/>
<path d="M50.869 279.07L61.0434 279.069V269.1H50.869V279.07Z" fill="#A89179"/>
<path d="M40.6991 279.07H50.8736V269.1H40.6991V279.07Z" fill="#231F20"/>
<path d="M20.3476 279.07H30.5195V269.1H20.3476V279.07Z" fill="#9E3E21"/>
<path d="M91.5661 279.069L101.738 279.07V269.1L91.5661 269.101V279.069Z" fill="#7F2A20"/>
<path d="M81.3903 279.07H91.5648V269.1H81.3903V279.07Z" fill="#231F20"/>
<path d="M10.1777 279.07H20.3522V269.1H10.1777V279.07Z" fill="#9E3E21"/>
<path d="M101.742 279.07H111.913V269.101H101.742V279.07Z" fill="#231F20"/>
<path d="M71.2205 279.07H81.395V269.1H71.2205V279.07Z" fill="#231F20"/>
<path d="M203.481 139.534H213.656V129.569H203.481V139.534Z" fill="#231F20"/>
<path d="M203.481 199.337H213.656V189.369H203.481V199.337Z" fill="#231F20"/>
<path d="M203.481 219.268H213.656V209.301H203.481V219.268Z" fill="#9E3E21"/>
<path d="M203.482 209.3L213.656 209.301V199.335H203.481L203.482 209.3Z" fill="#231F20"/>
<path d="M203.481 229.234H213.656V219.267H203.481V229.234Z" fill="#9E3E21"/>
<path d="M203.481 169.437H213.656V159.469H203.481V169.437Z" fill="#231F20"/>
<path d="M203.482 159.468L213.656 159.469V149.501H203.482V159.468Z" fill="#C95B21"/>
<path d="M203.482 149.501H213.656V139.532H203.481L203.482 149.501Z" fill="#C95B21"/>
<path d="M203.482 189.368L213.656 189.369V179.401H203.482V189.368Z" fill="#231F20"/>
<path d="M203.482 179.401H213.656V169.432H203.481L203.482 179.401Z" fill="#231F20"/>
<path d="M81.3903 59.8003H91.5648V49.8345H81.3903V59.8003Z" fill="#BCAC95"/>
<path d="M30.5235 59.8003H40.698V49.8332H30.5235V59.8003Z" fill="#EA7A27"/>
<path d="M40.698 59.8003H50.8736V49.8345H40.6991L40.698 59.8003Z" fill="#C95B21"/>
<path d="M20.3476 59.8003H30.5195V49.8345H20.3476V59.8003Z" fill="#231F20"/>
<path d="M50.869 59.8003L61.0434 59.7994V49.8345H50.869V59.8003Z" fill="#8C7662"/>
<path d="M61.0447 59.8003H71.2167V49.8345H61.0434L61.0447 59.8003Z" fill="#BCAC95"/>
<path d="M71.2205 59.8003H81.395V49.8345H71.2205V59.8003Z" fill="#BCAC95"/>
<path d="M203.481 239.203H213.656V229.234L203.482 229.235L203.481 239.203Z" fill="#231F20"/>
<path d="M91.5661 59.7994L101.738 59.8003V49.8345H91.5648L91.5661 59.7994Z" fill="#A89179"/>
<path d="M132.263 59.8003H142.435V49.8332H132.263V59.8003Z" fill="#A89179"/>
<path d="M142.439 59.8003H152.611V49.8345H142.439V59.8003Z" fill="#8C7662"/>
<path d="M152.609 59.8003L162.783 59.7994V49.8345H152.609V59.8003Z" fill="#C95B21"/>
<path d="M162.785 59.8003L172.959 59.7994V49.8345H162.783L162.785 59.8003Z" fill="#EA7A27"/>
<path d="M172.96 59.8003H183.132V49.8345H172.959L172.96 59.8003Z" fill="#231F20"/>
<path d="M101.742 59.8003L111.916 59.7993V49.8344L101.742 49.8332V59.8003Z" fill="#BCAC95"/>
<path d="M111.912 59.7994H122.086V49.8345H111.912V59.7994Z" fill="#BCAC95"/>
<path d="M122.088 59.8003H132.263L132.262 49.8345H122.086L122.088 59.8003Z" fill="#BCAC95"/>
<rect x="61" y="30" width="10" height="20" fill="#231F20"/>
<rect x="51" y="50" width="10" height="10" fill="#231F20"/>
<rect x="51" y="140" width="10" height="10" fill="#231F20"/>
<rect x="143" y="50" width="10" height="10" fill="#231F20"/>
<rect x="143" y="140" width="10" height="10" fill="#231F20"/>
<rect x="71" y="40" width="71" height="10" fill="#231F20"/>
<rect x="122" y="30" width="10" height="10" fill="#231F20"/>
<rect x="102" y="30" width="10" height="10" fill="#231F20"/>
<rect x="81" y="30" width="10" height="10" fill="#231F20"/>
<rect x="51" y="150" width="102" height="10" fill="#231F20"/>
<rect x="153" y="60" width="10" height="80" fill="#231F20"/>
<rect x="41" y="60" width="10" height="80" fill="#231F20"/>
</svg>
