<svg width="23" height="40" viewBox="0 0 23 40" fill="none" xmlns="http://www.w3.org/2000/svg">
<path d="M0 0L-4.99559e-07 5.71429L5.71428 5.71429L5.71428 4.99559e-07L0 0ZM11.4286 11.4286L11.4286 5.71429L5.71428 5.71429L5.71428 11.4286L11.4286 11.4286ZM17.1429 17.1429L17.1429 11.4286L11.4286 11.4286L11.4286 17.1429L17.1429 17.1429ZM17.1429 22.8571L22.8571 22.8571L22.8571 17.1429L17.1429 17.1429L17.1429 22.8571ZM11.4286 28.5714L11.4286 22.8571L17.1429 22.8571L17.1429 28.5714L11.4286 28.5714ZM11.4286 28.5714L5.71428 28.5714L5.71428 34.2857L11.4286 34.2857L11.4286 28.5714ZM-3.49691e-06 40L-2.99735e-06 34.2857L5.71428 34.2857L5.71428 40L-3.49691e-06 40Z" fill="#11A729"/>
</svg>
