<svg width="23" height="40" viewBox="0 0 23 40" fill="none" xmlns="http://www.w3.org/2000/svg">
<path d="M23 40L23 34.2857L17.2857 34.2857L17.2857 40L23 40ZM11.5714 28.5714L11.5714 34.2857L17.2857 34.2857L17.2857 28.5714L11.5714 28.5714ZM5.85715 22.8571L5.85715 28.5714L11.5714 28.5714L11.5714 22.8571L5.85715 22.8571ZM5.85715 17.1429L0.142864 17.1429L0.142863 22.8571L5.85715 22.8571L5.85715 17.1429ZM11.5714 11.4286L11.5714 17.1429L5.85715 17.1429L5.85715 11.4286L11.5714 11.4286ZM11.5714 11.4286L17.2857 11.4286L17.2857 5.71429L11.5714 5.71428L11.5714 11.4286ZM23 0L23 5.71429L17.2857 5.71429L17.2857 -9.99117e-07L23 0Z" fill="#11A729"/>
</svg>
