<svg width="17" height="28" viewBox="0 0 17 28" fill="none" xmlns="http://www.w3.org/2000/svg">
<path d="M17 0.786717C17 0.580505 16.9186 0.38274 16.7737 0.236926C16.6288 0.0911122 16.4322 0.0091947 16.2273 0.0091947H12.3636C10.4181 -0.0883208 8.51329 0.592945 7.06539 1.90414C5.61749 3.21534 4.74421 5.04987 4.63636 7.0069V11.2055H0.772727C0.567787 11.2055 0.371241 11.2874 0.226327 11.4332C0.0814123 11.5791 0 11.7768 0 11.983V16.0262C0 16.2324 0.0814123 16.4301 0.226327 16.5759C0.371241 16.7218 0.567787 16.8037 0.772727 16.8037H4.63636V27.2225C4.63636 27.4287 4.71777 27.6265 4.86269 27.7723C5.0076 27.9181 5.20415 28 5.40909 28H10.0455C10.2504 28 10.4469 27.9181 10.5919 27.7723C10.7368 27.6265 10.8182 27.4287 10.8182 27.2225V16.8037H14.8673C15.0391 16.8062 15.2069 16.7509 15.344 16.6467C15.4812 16.5425 15.5799 16.3953 15.6245 16.2283L16.7373 12.1852C16.768 12.0703 16.7722 11.9499 16.7494 11.8331C16.7266 11.7164 16.6774 11.6065 16.6058 11.5118C16.5341 11.4172 16.4418 11.3404 16.336 11.2872C16.2302 11.2341 16.1137 11.2062 15.9955 11.2055H10.8182V7.0069C10.8566 6.62199 11.0363 6.26531 11.322 6.00653C11.6078 5.74774 11.9792 5.60542 12.3636 5.60736H16.2273C16.4322 5.60736 16.6288 5.52544 16.7737 5.37962C16.9186 5.23381 17 5.03605 17 4.82983V0.786717Z" fill="white"/>
</svg>
