<svg width="212" height="62" viewBox="0 0 212 62" fill="none" xmlns="http://www.w3.org/2000/svg">
<path fill-rule="evenodd" clip-rule="evenodd" d="M201.391 35.7755L207.073 37.1996L207.343 36.8438C209.145 34.4678 210.51 31.7039 211.289 28.6415C214.423 16.3233 206.903 3.81596 194.493 0.705541C182.083 -2.40488 169.483 5.0595 166.35 17.3777C163.216 29.6959 170.736 42.2032 183.146 45.3136C185.923 46.0097 188.711 46.1762 191.401 45.8767C191.749 45.8378 192.096 45.7912 192.441 45.7368L192.881 45.6675L194.334 39.9557L198.658 41.0394L197.268 46.5015L204.212 48.2424L205.966 41.3497L200.332 39.9372L201.391 35.7755ZM193.845 39.1412L193.844 39.1443L192.335 45.0744C192 45.1271 191.664 45.1724 191.325 45.2101C190.999 45.2464 190.671 45.2758 190.342 45.2979C190.671 45.2758 190.999 45.2465 191.325 45.2102C191.664 45.1725 192 45.1272 192.335 45.0744L193.844 39.1444L193.845 39.1412ZM200.901 34.961L200.901 34.961L199.512 40.4233L200.901 34.961ZM189.143 31.3253L194.759 32.7331L196.182 27.1377L201.812 28.5492C202.102 27.8784 202.342 27.1761 202.528 26.4455C204.44 18.9304 199.852 11.2999 192.281 9.40224C184.71 7.50462 177.023 12.0585 175.111 19.5736C173.199 27.0888 177.787 34.7193 185.358 36.6169C186.14 36.8129 186.922 36.94 187.699 37.0022L189.143 31.3253ZM29.3907 6.27876L27.9026 0.703313L4.12879 6.95532L5.61689 12.5308L0 14.0079L9.27468 48.7571L21.8147 45.4594L18.8385 34.3085L35.6892 29.8771L34.2011 24.3017L39.818 22.8246L35.0076 4.80163L29.3907 6.27876ZM9.75475 47.937L9.75478 47.9371L20.9886 44.9828L18.0123 33.832L34.863 29.4006L33.3749 23.8251L38.9918 22.348L34.5275 5.6217L34.5274 5.62172L36.0155 11.1971L37.5036 16.7725L38.9917 22.3479L33.3748 23.8251L34.8629 29.4005L29.246 30.8776L23.6291 32.3548L18.0122 33.8319L19.5003 39.4073L20.9884 44.9828L15.3716 46.4599L9.75475 47.937ZM28.9106 7.09872L27.4225 1.52338L27.4224 1.5234L28.9105 7.09874L28.9106 7.09872ZM60.7953 14.7127L48.1797 11.7123L45.157 24.2348L50.8077 25.5787L49.4538 31.1878L55.1046 32.5317L54.0655 36.8363L48.4148 35.4924L47.0609 41.1014L41.4101 39.7575L38.3875 52.28L51.0031 55.2804L53.7109 44.0623L59.3616 45.4062L60.7155 39.7972L65.0521 40.8286L63.6982 46.4376L69.349 47.7815L66.6411 58.9996L79.2567 62L82.2794 49.4775L76.6287 48.1336L77.9826 42.5245L72.3319 41.1806L73.3709 36.876L79.0216 38.2199L80.3755 32.6109L86.0263 33.9548L89.049 21.4323L76.4334 18.4319L73.7256 29.65L68.0748 28.3061L66.7209 33.9151L62.3843 32.8837L63.7382 27.2747L58.0875 25.9308L60.7953 14.7127ZM50.5034 54.4719L50.5033 54.4718L51.8572 48.8628L53.2111 43.2538L53.2112 43.2538L50.5034 54.4719ZM58.8619 44.5977L60.2158 38.9886L60.2159 38.9887L58.862 44.5978L58.8619 44.5977ZM78.7571 61.1915L78.757 61.1914L80.1109 55.5824L78.7571 61.1915ZM75.8142 48.6295L77.1681 43.0205L77.168 43.0204L75.8141 48.6294L75.8142 48.6295ZM71.5174 41.6766L72.8713 36.0675L72.8712 36.0674L71.5173 41.6765L71.5174 41.6766ZM78.5219 37.4114L79.8758 31.8023L79.8759 31.8024L78.522 37.4114L78.5219 37.4114ZM85.5266 33.1462L85.5267 33.1463L86.8805 27.5372L88.2345 21.9282L88.2344 21.9282L86.8805 27.5372L85.5266 33.1462ZM81.4648 49.9734L81.4649 49.9734L80.1109 55.5824L81.4648 49.9734ZM61.5698 33.3797L62.9237 27.7706L62.9236 27.7706L61.5697 33.3796L61.5698 33.3797ZM57.273 26.4267L59.9808 15.2086L59.9807 15.2086L58.6268 20.8176L57.2729 26.4266L57.273 26.4267ZM92.0966 40.202L93.043 46.7122L128.553 41.6256L127.228 32.5114L106.678 35.455L123.058 8.11496L122.118 1.65453L88.8307 6.42273L90.1411 15.4359L108.417 12.818L92.0966 40.202ZM127.788 41.0575L93.6152 45.9525L93.6153 45.9526L127.788 41.0576L127.788 41.0575ZM109.717 11.9542L109.717 11.9541L90.7132 14.6762L90.7133 14.6763L109.717 11.9542ZM105.375 36.3193L122.355 7.97601L122.355 7.97593L105.374 36.3193L105.375 36.3193ZM22.8136 9.39601L26.9319 24.8257L17.0043 27.4364L12.8861 12.0067L22.8136 9.39601ZM16.5242 28.2564L12.0599 11.5302L23.2936 8.57596L23.2936 8.57586L17.6767 10.053L12.0598 11.5301L13.5479 17.1055L15.036 22.681L16.5241 28.2564L16.5242 28.2564ZM148.929 57.9925C158.482 57.9925 166.226 50.3055 166.226 40.8232C166.226 31.3409 158.482 23.654 148.929 23.654C139.376 23.654 131.632 31.3409 131.632 40.8232C131.632 50.3055 139.376 57.9925 148.929 57.9925ZM157.172 40.8232C157.172 45.3421 153.482 49.0055 148.929 49.0055C144.377 49.0055 140.686 45.3421 140.686 40.8232C140.686 36.3043 144.377 32.641 148.929 32.641C153.482 32.641 157.172 36.3043 157.172 40.8232Z" fill="#FED001"/>
</svg>
