<svg width="28" height="28" viewBox="0 0 28 28" fill="none" xmlns="http://www.w3.org/2000/svg">
<path d="M15.4392 0C17.0141 0.0041999 17.8135 0.0125997 18.5037 0.0321993L18.7752 0.041999C19.0888 0.0531987 19.3982 0.0671984 19.772 0.083998C21.2615 0.153996 22.2779 0.389191 23.1696 0.734983C24.0936 1.09057 24.8719 1.57216 25.6503 2.34915C26.3622 3.04898 26.913 3.89553 27.2644 4.82989C27.6102 5.72167 27.8454 6.73804 27.9154 8.22901C27.9322 8.6014 27.9462 8.91079 27.9574 9.22579L27.9658 9.49738C27.9868 10.1862 27.9952 10.9855 27.998 12.5605L27.9994 13.6049V15.4388C28.0028 16.46 27.9921 17.4811 27.9672 18.502L27.9588 18.7736C27.9476 19.0886 27.9336 19.3979 27.9168 19.7703C27.8468 21.2613 27.6088 22.2763 27.2644 23.1695C26.914 24.1043 26.363 24.9511 25.6503 25.6502C24.9503 26.3618 24.1038 26.9126 23.1696 27.2644C22.2779 27.6102 21.2615 27.8454 19.772 27.9153C19.4398 27.931 19.1076 27.945 18.7752 27.9573L18.5037 27.9657C17.8135 27.9853 17.0141 27.9951 15.4392 27.9979L14.3949 27.9993H12.5624C11.5408 28.0029 10.5192 27.9921 9.49792 27.9671L9.22634 27.9587C8.89401 27.9462 8.56175 27.9317 8.22959 27.9153C6.74006 27.8454 5.72371 27.6102 4.83056 27.2644C3.89634 26.9135 3.05016 26.3626 2.35129 25.6502C1.63879 24.9506 1.08747 24.104 0.73577 23.1695C0.389988 22.2777 0.1548 21.2613 0.0848034 19.7703C0.0692065 19.4381 0.0552071 19.1059 0.0428056 18.7736L0.0358061 18.502C0.0100083 17.4811 -0.00165903 16.46 0.00080776 15.4388V12.5605C-0.00309939 11.5394 0.00716784 10.5182 0.0316063 9.49738L0.0414057 9.22579C0.0526052 8.91079 0.0666044 8.6014 0.0834036 8.22901C0.1534 6.73804 0.388588 5.72307 0.73437 4.82989C1.08591 3.89457 1.63833 3.04776 2.35269 2.34915C3.05138 1.63723 3.89701 1.08636 4.83056 0.734983C5.72371 0.389191 6.73866 0.153996 8.22959 0.083998C8.60197 0.0671984 8.91275 0.0531987 9.22634 0.041999L9.49792 0.0335991C10.5187 0.00872559 11.5399 -0.00200853 12.561 0.00139987L15.4392 0ZM14.0001 6.99984C12.1437 6.99984 10.3633 7.73732 9.0506 9.05004C7.73791 10.3628 7.00045 12.1432 7.00045 13.9997C7.00045 15.8561 7.73791 17.6366 9.0506 18.9493C10.3633 20.262 12.1437 20.9995 14.0001 20.9995C15.8565 20.9995 17.6369 20.262 18.9496 18.9493C20.2623 17.6366 20.9997 15.8561 20.9997 13.9997C20.9997 12.1432 20.2623 10.3628 18.9496 9.05004C17.6369 7.73732 15.8565 6.99984 14.0001 6.99984ZM14.0001 9.79977C14.5516 9.79968 15.0978 9.90822 15.6073 10.1192C16.1169 10.3302 16.5799 10.6395 16.97 11.0294C17.36 11.4193 17.6695 11.8823 17.8806 12.3918C18.0918 12.9013 18.2005 13.4474 18.2006 13.999C18.2007 14.5505 18.0921 15.0967 17.8812 15.6063C17.6702 16.1159 17.3609 16.5789 16.971 16.969C16.5811 17.359 16.1181 17.6685 15.6086 17.8796C15.0991 18.0908 14.553 18.1995 14.0015 18.1996C12.8876 18.1996 11.8194 17.7571 11.0318 16.9695C10.2442 16.1818 9.80171 15.1136 9.80171 13.9997C9.80171 12.8858 10.2442 11.8175 11.0318 11.0299C11.8194 10.2423 12.8876 9.79977 14.0015 9.79977M21.3511 4.89989C20.887 4.89989 20.4419 5.08426 20.1137 5.41244C19.7856 5.74062 19.6012 6.18573 19.6012 6.64984C19.6012 7.11396 19.7856 7.55907 20.1137 7.88725C20.4419 8.21543 20.887 8.3998 21.3511 8.3998C21.8152 8.3998 22.2603 8.21543 22.5885 7.88725C22.9167 7.55907 23.101 7.11396 23.101 6.64984C23.101 6.18573 22.9167 5.74062 22.5885 5.41244C22.2603 5.08426 21.8152 4.89989 21.3511 4.89989Z" fill="white"/>
</svg>
