<svg width="25" height="25" viewBox="0 0 25 25" fill="none" xmlns="http://www.w3.org/2000/svg">
<path fill-rule="evenodd" clip-rule="evenodd" d="M18.2263 1.11732V2.23464H17.074H15.9218V3.38687V4.53911H14.7696H13.6173V5.65642V6.77374H12.5H11.3827V7.92598V9.07821H10.2304H9.07821V10.2304V11.3827H7.92598H6.77374V12.5V13.6173H5.65642H4.53911V14.7696V15.9218H3.38687H2.23464V17.074V18.2263H1.11732H0V21.6131V25H3.38687H6.77374V23.8827V22.7654H7.92598H9.07821V21.6131V20.4609H10.2304H11.3827V19.3436V18.2263H12.5H13.6173V17.074V15.9218H14.7696H15.9218V14.7696V13.6173H17.074H18.2263V12.5V11.3827H19.3436H20.4609V10.2304V9.07821H21.6131H22.7654V7.92598V6.77374H23.8827H25V4.50419V2.23464H23.8827H22.7654V1.11732V0H20.4958H18.2263V1.11732ZM22.7654 4.50419V6.77374H21.6131H20.4609V7.92598V9.07821H19.3436H18.2263V10.2304V11.3827H17.074H15.9218V12.4983V13.6138L14.787 13.633L13.6522 13.6522L13.633 14.787L13.6138 15.9218H12.4983H11.3827V17.074V18.2263H10.2304H9.07821V19.3436V20.4609H7.92598H6.77374V21.6131V22.7654H4.50419H2.23464V20.4958V18.2263H3.38687H4.53911V17.074V15.9218H5.65642H6.77374V14.7696V13.6173H7.92598H9.07821V12.5017V11.3862L10.213 11.367L11.3478 11.3478L11.367 10.213L11.3862 9.07821H12.5017H13.6173V7.92598V6.77374H14.7696H15.9218V5.65642V4.53911H17.074H18.2263V3.38687V2.23464H20.4958H22.7654V4.50419ZM18.2263 5.65642V6.77374H19.3436H20.4609V5.65642V4.53911H19.3436H18.2263V5.65642ZM4.53911 19.3436V20.4609H5.65642H6.77374V19.3436V18.2263H5.65642H4.53911V19.3436ZM11.3827 23.8827V25H18.1913H25V23.8827V22.7654H18.1913H11.3827V23.8827Z" fill="#11A729"/>
</svg>
