<svg width="45" height="45" viewBox="0 0 45 45" fill="none" xmlns="http://www.w3.org/2000/svg">
<path d="M24.5455 0H20.4545V4.09091H16.3636V8.18182H12.2727V12.2727H8.18182V16.3636H4.09091V20.4545H0V24.5455H4.09091V28.6364H8.18182V32.7273H12.2727V36.8182H16.3636V40.9091H20.4545V45H24.5455V40.9091H28.6364V36.8182H32.7273V32.7273H36.8182V28.6364H40.9091V24.5455H45V20.4545H40.9091V16.3636H36.8182V12.2727H32.7273V8.18182H28.6364V4.09091H24.5455V0ZM24.5455 4.09091V8.18182H28.6364V12.2727H32.7273V16.3636H36.8182V20.4545H40.9091V24.5455H36.8182V28.6364H32.7273V32.7273H28.6364V36.8182H24.5455V40.9091H20.4545V36.8182H16.3636V32.7273H12.2727V28.6364H8.18182V24.5455H4.09091V20.4545H8.18182V16.3636H12.2727V12.2727H16.3636V8.18182H20.4545V4.09091H24.5455ZM24.5455 12.2727H20.4545V24.5455H24.5455V12.2727ZM24.5455 28.6364H20.4545V32.7273H24.5455V28.6364Z" fill="#FF6100"/>
</svg>
