<svg width="332" height="165" viewBox="0 0 332 165" fill="none" xmlns="http://www.w3.org/2000/svg">
<path d="M272.123 0V5.68965H259.753V11.3793H253.569V17.069H247.384V22.7586H241.2V28.4483H235.015V39.8276H228.83V73.9655H235.015V85.3448H241.2V91.0345H247.384V96.7241H253.569V102.414H259.753V108.103H272.123V113.793H309.23V108.103H321.6V102.414H327.784V96.7241H333.969V91.0345H340.153V85.3448H346.338V73.9655H352.523V39.8276H346.338V28.4483H340.153V22.7586H333.969V17.069H327.784V11.3793H321.6V5.68965H309.23V0H272.123Z" fill="#FCD675"/>
<path d="M272.124 5.6892V11.3789H259.755V17.0685H253.57V22.7582H247.386V28.4478H241.201V39.8271H235.017V73.965H241.201V85.3444H247.386V91.034H253.57V96.7237H259.755V102.413H272.124V108.103H309.232V102.413H321.601V96.7237H327.786V91.034H333.97V85.3444H340.155V73.965H346.34V39.8271H340.155V28.4478H333.97V22.7582H327.786V17.0685H321.601V11.3789H309.232V5.6892H272.124Z" fill="#FABC27"/>
<path d="M272.122 11.3792V17.0689H259.753V22.7585H253.569V28.4482H247.384V39.8275H241.199V73.9654H247.384V85.3447H253.569V91.0344H259.753V96.724H272.122V102.414H309.23V96.724H321.599V91.0344H327.784V85.3447H333.969V73.9654H340.153V39.8275H333.969V28.4482H327.784V22.7585H321.599V17.0689H309.23V11.3792H272.122Z" fill="#FCD675"/>
<path d="M272.121 17.0688V22.7585H259.751V28.4481H253.567V39.8274H247.382V73.9654H253.567V85.3447H259.751V91.0343H272.121V96.724H309.228V91.0343H321.598V85.3447H327.782V73.9654H333.967V39.8274H327.782V28.4481H321.598V22.7585H309.228V17.0688H272.121Z" fill="#FABC27"/>
<path d="M272.126 22.7584V28.4481H259.757V39.8274H253.572V73.9653H259.757V85.3446H272.126V91.0343H309.234V85.3446H321.603V73.9653H327.787V39.8274H321.603V28.4481H309.234V22.7584H272.126Z" fill="#FCD675"/>
<path d="M377.262 159.31V153.62H371.077V147.931H358.708V136.551H364.892V125.172H358.708V119.482H352.523V113.793H346.338V108.103H340.154V102.413L327.784 102.414V96.7241L309.23 96.724V102.414L296.862 102.413V108.103H284.492V102.413L272.122 102.414L272.123 91.0341H265.938V85.3445H259.754V79.6548H253.569V73.9652L247.384 73.9654L247.385 68.2755H241.2V62.5859H228.831V56.8962H191.723V62.5859H179.354V68.2755H173.169V73.9652H166.985V79.6548H154.615V85.3445H142.246V79.6548H129.877V73.9652H117.508V68.2755H92.7692V73.9652H80.4V79.6548H68.0308V85.3445H61.8462V91.0341H49.4769V102.413H43.2923V108.103H37.1077V119.482H30.9231V130.862H37.1077V136.551H43.2923V147.931H24.7385V153.62H12.3692V159.31H0V165H142.246V159.31H148.431V153.62H154.615V147.931H160.8V159.31H173.169V165H284.492V159.31H296.862V153.62H309.231V159.31H315.415V165H402V159.31H377.262Z" fill="white"/>
<path d="M0 165H142.246V159.31H148.431V153.62H154.615V147.931H160.8V159.31H173.169V165H284.492V159.31H296.862V153.62H309.231V159.31H315.415V165H402V159.31H377.262V153.62H371.077V147.931H358.708V136.551H364.892V125.172H358.708V119.482H352.523V142.241H346.339V147.931H333.969V153.621H315.415V147.931H309.231V142.241H290.677V147.931H284.492V153.621H235.015V159.31H197.908V153.621H179.354V147.931H166.985V142.241H160.8V136.552H154.615V142.241H148.431V147.931H136.062V153.621H111.323V159.31H80.4V147.931H68.0308V142.241H55.6615V136.552H49.4769V130.862H43.2923V125.172H37.1077V119.482H30.9231V130.862H37.1077V136.551H43.2923V147.931H24.7385V153.62H12.3692V159.31H0V165Z" fill="#DCE6F6"/>
<path d="M92.7719 125.172H86.5873V119.483H92.7719V125.172Z" fill="#DCE6F6"/>
<path d="M142.245 119.483H136.06V113.793H142.245V119.483Z" fill="#DCE6F6"/>
<path d="M253.567 125.172H247.382V119.483H253.567V125.172Z" fill="#DCE6F6"/>
<path d="M247.384 130.862H241.199V125.172H247.384V130.862Z" fill="#DCE6F6"/>
<path d="M111.324 102.414V108.103H98.9547V113.793H92.7701V119.483H105.139V113.793H117.509V108.103H123.693V113.793H136.062V108.103H129.878V102.414H111.324Z" fill="#DCE6F6"/>
<path d="M142.246 85.3445L142.247 91.0345H154.616V96.7242H160.8V102.414H179.354V108.103H191.723V113.793H210.277V108.103H197.908V102.414H185.539V96.7242H179.354V91.0345H166.985V85.3449H160.8V79.6552L154.615 79.6548V85.3445H142.246Z" fill="#DCE6F6"/>
<path d="M296.864 108.103V113.793H272.126V119.483H253.572V113.793H265.941V108.103H272.126V102.414H284.495V108.103H296.864Z" fill="#DCE6F6"/>
</svg>
