<svg width="393" height="112" viewBox="0 0 393 112" fill="none" xmlns="http://www.w3.org/2000/svg">
<path d="M161.208 71.9997H-62V63.9997H-27.6603V55.9997H-19.0753V47.9998H-10.4904V31.9999H-1.90546V15.9999H6.67947V7.99996H23.8493V0H41.0192V7.99996H49.6041V15.9999H58.1891V23.9999H66.774V15.9999H101.114V23.9999H109.699V31.9999H118.284V39.9998H135.453V55.9997H152.623V63.9997H161.208V71.9997Z" fill="white"/>
<path d="M161.208 71.9997H-62V63.9997H-27.6603V55.9997H-19.0753V47.9998H-10.4904V40.0001H-1.90546V56H15.2644V64H75.3589V56H109.699V31.9999H118.284V39.9998H135.453V55.9997H152.623V63.9997H161.208V71.9997Z" fill="#DCE6F6"/>
<path d="M58.1861 24.0004H41.0162V32.0004H23.8464V24.0004H32.4313V16.0005H58.1861V24.0004Z" fill="#DCE6F6"/>
<path d="M15.2641 40.0001H23.849V32.0001H15.2641V40.0001Z" fill="#DCE6F6"/>
<path d="M49.6026 87.9999V95.9998H75.3574V104H92.5273V112H393V104H367.245V95.9998H350.075V87.9999H332.905V71.9999H324.321V64H315.736V56H289.981V48.0001H272.811V32.0001H264.226V24.0002H255.641V16.0002H229.886V8.00023H204.131V16.0002H195.547V24.0002H186.962V40.0001H169.792V32.0001H135.452V40.0001H126.867V56H109.697V64H101.112V71.9999H92.5273V79.9999H75.3574V87.9999H49.6026Z" fill="white"/>
<path d="M49.6026 95.9998H75.3574V104H92.5273V112H393V104H367.245V95.9998H350.075V87.9999H332.905V71.9999H324.321V64H315.736V88.0001H298.566V96.0001H281.396V104H178.377V96.0001H161.207V88.0001H118.282V80.0001H101.112V71.9999H92.5273V79.9999H75.3574V87.9999H49.6026V95.9998Z" fill="#DCE6F6"/>
<path d="M169.79 40.0003V48.0003H161.205V56.0003H186.96V64.0002H212.715V56.0003H195.545V48.0003H186.96V40.0003H169.79Z" fill="#DCE6F6"/>
<path d="M221.298 72.0002H212.713V64.0002H221.298V72.0002Z" fill="#DCE6F6"/>
<path d="M289.979 63.9997H264.224V71.9996H238.469V63.9997H255.639V55.9997H281.394V47.9998H289.979V63.9997Z" fill="#DCE6F6"/>
<path d="M229.885 79.9996H238.47L238.469 71.9996L229.885 71.9996V79.9996Z" fill="#DCE6F6"/>
<path d="M221.302 87.9998H229.887V79.9999H221.302V87.9998Z" fill="#DCE6F6"/>
</svg>
