<svg width="309" height="104" viewBox="0 0 309 104" fill="none" xmlns="http://www.w3.org/2000/svg">
<path d="M56.7554 58.5001H63.0604V51.9998H56.7554V58.5001Z" fill="#8CD024"/>
<path d="M56.7554 71.4995H63.0604V65.0008H56.7554V71.4995Z" fill="#231F20"/>
<path d="M56.7554 78.0001H63.0604V71.4995H56.7554V78.0001Z" fill="white"/>
<path d="M56.7554 65.0001H63.0604L63.0604 58.5001H56.7554L56.7554 65.0001Z" fill="#8CD024"/>
<path d="M56.7554 84.5001H63.0604L63.0604 78.0001H56.7554L56.7554 84.5001Z" fill="#231F20"/>
<path d="M56.7554 51.9998H63.0604L63.0604 45.4998H56.7554L56.7554 51.9998Z" fill="#8CD024"/>
<path d="M56.7554 45.4998H63.0604V39.0009H56.7554V45.4998Z" fill="#8CD024"/>
<path d="M56.7554 39.0003H63.0604V32.4999H56.7554V39.0003Z" fill="#8CD024"/>
<path d="M56.7554 19.4997H63.0604V13.001H56.7554V19.4997Z" fill="#231F20"/>
<path d="M56.7554 32.4999H63.0604L63.0604 26H56.7554L56.7554 32.4999Z" fill="#8CD024"/>
<path d="M56.7554 26H63.0604L63.0604 19.4997H56.7554L56.7554 26Z" fill="#8CD024"/>
<path d="M50.4492 58.5002H56.7542V51.9998H50.4492V58.5002Z" fill="#8CD024"/>
<path d="M50.4492 32.5003H56.7542V25.9999H50.4492V32.5003Z" fill="#8CD024"/>
<path d="M50.4492 25.9999H56.7542V19.4999H50.4492V25.9999Z" fill="#BFE137"/>
<path d="M50.4492 45.4996H56.7542V39.0009H50.4492V45.4996Z" fill="#8CD024"/>
<path d="M50.4492 65.0001H56.7542V58.5002H50.4492V65.0001Z" fill="#8CD024"/>
<path d="M50.4492 51.9998H56.7542V45.4996H50.4492V51.9998Z" fill="#8CD024"/>
<path d="M50.4492 19.4999H56.7542V13.001H50.4492V19.4999Z" fill="#231F20"/>
<path d="M50.4492 39.0003H56.7542V32.5003H50.4492V39.0003Z" fill="#8CD024"/>
<path d="M245.938 45.4996H252.243V39.0009H245.938V45.4996Z" fill="#8CD024"/>
<path d="M245.938 39.0003H252.243V32.4999H245.938V39.0003Z" fill="#8CD024"/>
<path d="M245.938 58.5002H252.243V51.9998H245.938V58.5002Z" fill="#8CD024"/>
<path d="M245.938 64.9985H252.243V58.5002H245.938V64.9985Z" fill="#8CD024"/>
<path d="M245.938 51.9998H252.243V45.4996H245.938V51.9998Z" fill="#8CD024"/>
<path d="M245.938 32.4999H252.243V25.9999H245.938V32.4999Z" fill="#BFE137"/>
<path d="M245.938 25.9999H252.243V19.4999H245.938V25.9999Z" fill="#231F20"/>
<path d="M245.938 71.4991H252.243V64.9985H245.938V71.4991Z" fill="#8CD024"/>
<path d="M245.938 104H252.243V97.4996H245.938V104Z" fill="#231F20"/>
<path d="M245.938 90.9984H252.243V84.4997H245.938V90.9984Z" fill="#8CD024"/>
<path d="M245.938 84.4997H252.243V77.9997H245.938V84.4997Z" fill="#BFE137"/>
<path d="M245.938 77.9997H252.243V71.4997H245.938V77.9997Z" fill="#231F20"/>
<path d="M245.938 97.4996H252.243V91.0007H245.938V97.4996Z" fill="#D99A09"/>
<path d="M233.326 19.4997H239.632V13.001H233.326V19.4997Z" fill="#231F20"/>
<path d="M50.4492 71.4995H56.7542V65.0008H50.4492V71.4995Z" fill="#231F20"/>
<path d="M233.326 64.9985H239.632V58.4998H233.326V64.9985Z" fill="#8CD024"/>
<path d="M233.326 71.4991H239.632V64.9985H233.326V71.4991Z" fill="#8CD024"/>
<path d="M233.326 84.5001H239.632V77.9997H233.326V84.5001Z" fill="#231F20"/>
<path d="M233.326 90.9984H239.632V84.5001H233.326V90.9984Z" fill="#8CD024"/>
<path d="M233.326 77.9997H239.632V71.4997H233.326V77.9997Z" fill="#8CD024"/>
<path d="M233.326 32.5003H239.632V25.9999H233.326V32.5003Z" fill="#231F20"/>
<path d="M233.326 39.0003H239.632V32.5003H233.326V39.0003Z" fill="#8CD024"/>
<path d="M233.326 52.0002H239.632V45.4998H233.326V52.0002Z" fill="#231F20"/>
<path d="M233.326 45.4998H239.632V39.0009H233.326V45.4998Z" fill="#8CD024"/>
<path d="M233.326 58.4998H239.632V52.0002H233.326V58.4998Z" fill="#8CD024"/>
<path d="M233.326 97.4994H239.632V91.0007H233.326V97.4994Z" fill="#FCD205"/>
<path d="M233.326 104H239.632V97.4994H233.326V104Z" fill="#231F20"/>
<path d="M233.326 25.9999H239.632V19.4997H233.326V25.9999Z" fill="#8CD024"/>
<path d="M239.634 104H245.94V97.4996H239.634V104Z" fill="#231F20"/>
<path d="M239.634 97.4996H245.94V91.0007H239.634V97.4996Z" fill="#FCD205"/>
<path d="M239.634 90.9984H245.94V84.4997H239.634V90.9984Z" fill="#8CD024"/>
<path d="M239.634 71.4991H245.94V64.9987H239.634V71.4991Z" fill="#8CD024"/>
<path d="M239.634 64.9987H245.94V58.4998H239.634V64.9987Z" fill="#8CD024"/>
<path d="M239.634 58.4998H245.94V51.9998H239.634V58.4998Z" fill="#231F20"/>
<path d="M239.634 84.4997H245.94V77.9997H239.634V84.4997Z" fill="#BFE137"/>
<path d="M239.634 26.0003H245.94V19.4999H239.634V26.0003Z" fill="#BFE137"/>
<path d="M239.634 39.0003H245.94V32.4999H239.634V39.0003Z" fill="#8CD024"/>
<path d="M239.634 45.4996H245.94V39.0009H239.634V45.4996Z" fill="#8CD024"/>
<path d="M239.634 32.4999H245.94V26.0003H239.634V32.4999Z" fill="#8CD024"/>
<path d="M239.634 51.9998H245.94V45.4996H239.634V51.9998Z" fill="#8CD024"/>
<path d="M239.634 19.4999H245.94V13.001H239.634V19.4999Z" fill="#231F20"/>
<path d="M239.634 77.9997H245.94V71.4997H239.634V77.9997Z" fill="#231F20"/>
<path d="M63.0596 71.4995H69.3661V65.0008H63.0596V71.4995Z" fill="#231F20"/>
<path d="M63.0596 65.0001H69.3661V58.4998H63.0596V65.0001Z" fill="#8CD024"/>
<path d="M63.0596 52.0002H69.3661V45.4998H63.0596V52.0002Z" fill="#8CD024"/>
<path d="M63.0596 78.0001H69.3661V71.4995H63.0596V78.0001Z" fill="#4A811A"/>
<path d="M63.0596 58.4998H69.3661V52.0002H63.0596V58.4998Z" fill="#8CD024"/>
<path d="M63.0596 84.5001H69.3661V78.0001H63.0596V84.5001Z" fill="#231F20"/>
<path d="M63.0596 45.4998H69.3661V39.0009H63.0596V45.4998Z" fill="#8CD024"/>
<path d="M63.0596 13.0004H69.3661V6.49997H63.0596V13.0004Z" fill="#231F20"/>
<path d="M63.0596 26.0003H69.3661V19.4999H63.0596V26.0003Z" fill="#8CD024"/>
<path d="M63.0596 32.5003H69.3661V26.0003H63.0596V32.5003Z" fill="#8CD024"/>
<path d="M63.0596 39.0003H69.3661V32.5003H63.0596V39.0003Z" fill="#BFE137"/>
<path d="M63.0596 19.4999H69.3661V13.001H63.0596V19.4999Z" fill="#BFE137"/>
<path d="M258.55 104H264.857V97.4996H258.55V104Z" fill="#231F20"/>
<path d="M258.55 64.9985H264.857V58.4998H258.55V64.9985Z" fill="#8CD024"/>
<path d="M258.55 97.4996H264.857L264.857 91.0007H258.55L258.55 97.4996Z" fill="#FCD205"/>
<path d="M258.55 84.5001H264.857V77.9997H258.55V84.5001Z" fill="#231F20"/>
<path d="M258.55 71.4991H264.857L264.857 64.9985H258.55L258.55 71.4991Z" fill="#8CD024"/>
<path d="M258.55 77.9997H264.857L264.857 71.4997H258.55L258.55 77.9997Z" fill="#231F20"/>
<path d="M258.55 90.9984H264.857L264.857 84.5001H258.55L258.55 90.9984Z" fill="#8CD024"/>
<path d="M258.55 58.4998H264.857V51.9998H258.55V58.4998Z" fill="#8CD024"/>
<path d="M258.55 45.4996H264.857V39.0009H258.55V45.4996Z" fill="#8CD024"/>
<path d="M258.55 39.0003H264.857V32.4999H258.55V39.0003Z" fill="#231F20"/>
<path d="M258.55 51.9998H264.857L264.857 45.4996H258.55L258.55 51.9998Z" fill="#231F20"/>
<path d="M264.857 71.4991H271.163V64.9987L264.857 64.9985L264.857 71.4991Z" fill="#8CD024"/>
<path d="M264.857 78.0001H271.163V71.4997H264.857L264.857 78.0001Z" fill="#231F20"/>
<path d="M264.857 64.9985L271.163 64.9987V58.4998H264.857V64.9985Z" fill="#8CD024"/>
<path d="M264.857 90.9984H271.163V84.4997H264.857L264.857 90.9984Z" fill="#8CD024"/>
<path d="M264.857 97.4996L271.163 97.4994V91.0007H264.857L264.857 97.4996Z" fill="#D99A09"/>
<path d="M264.857 84.4997H271.163V78.0001H264.857V84.4997Z" fill="#BFE137"/>
<path d="M264.857 39.0003H271.163V32.4999H264.857V39.0003Z" fill="#231F20"/>
<path d="M264.857 58.5002L271.163 58.4998V51.9998L264.857 51.9998L264.857 58.5002Z" fill="#8CD024"/>
<path d="M264.857 45.4996H271.163V39.0009H264.857V45.4996Z" fill="#BFE137"/>
<path d="M264.857 52.0002L271.163 51.9998V45.4996H264.857L264.857 52.0002Z" fill="#8CD024"/>
<path d="M264.857 104H271.163V97.4994L264.857 97.4996V104Z" fill="#231F20"/>
<path d="M37.835 58.5002H44.1415V51.9998H37.835V58.5002Z" fill="#8CD024"/>
<path d="M37.835 65.0001H44.1415V58.5002H37.835V65.0001Z" fill="white"/>
<path d="M37.835 39.0003H44.1415V32.4999H37.835V39.0003Z" fill="#8CD024"/>
<path d="M37.835 71.4995H44.1415V65.0008H37.835V71.4995Z" fill="#231F20"/>
<path d="M37.835 51.9998H44.1415V45.4998H37.835V51.9998Z" fill="#8CD024"/>
<path d="M37.835 78.0001H44.1415V71.4995H37.835V78.0001Z" fill="#5EA523"/>
<path d="M37.835 84.5001H44.1415V78.0001H37.835V84.5001Z" fill="#231F20"/>
<path d="M37.835 45.4998H44.1415V39.0009H37.835V45.4998Z" fill="#8CD024"/>
<path d="M37.835 32.4999H44.1415V25.9999H37.835V32.4999Z" fill="#8CD024"/>
<path d="M37.835 25.9999H44.1415V19.4999H37.835V25.9999Z" fill="#231F20"/>
<path d="M252.244 45.4996H258.55V39.0009H252.244V45.4996Z" fill="#8CD024"/>
<path d="M252.244 52.0002H258.551L258.55 45.4996H252.244V52.0002Z" fill="#8CD024"/>
<path d="M252.244 39.0003H258.55V32.4999H252.244V39.0003Z" fill="#BFE137"/>
<path d="M252.244 58.5002H258.551V52.0002H252.244V58.5002Z" fill="#8CD024"/>
<path d="M252.244 64.9985H258.55L258.551 58.5002H252.244V64.9985Z" fill="#8CD024"/>
<path d="M252.244 71.4991H258.55L258.55 64.9985H252.244V71.4991Z" fill="#8CD024"/>
<path d="M252.244 32.4999L258.551 32.5003V25.9999H252.244V32.4999Z" fill="#231F20"/>
<path d="M252.244 78.0001H258.551L258.55 71.4997H252.244V78.0001Z" fill="#231F20"/>
<path d="M252.244 104H258.55V97.4996H252.244V104Z" fill="#231F20"/>
<path d="M252.244 84.5001L258.55 84.5001L258.551 78.0001H252.244V84.5001Z" fill="#BFE137"/>
<path d="M252.244 90.9984H258.55L258.551 84.4997L252.244 84.5001V90.9984Z" fill="#8CD024"/>
<path d="M252.244 97.4996H258.55L258.55 91.0007H252.244V97.4996Z" fill="#FCD205"/>
<path d="M50.4492 84.5001H56.7542V77.9997H50.4492V84.5001Z" fill="#231F20"/>
<path d="M44.1431 65.0001H50.4492L50.4496 58.4998H44.1431V65.0001Z" fill="#8CD024"/>
<path d="M44.1431 78.0001H50.4496L50.4492 71.4995L44.1431 71.4997V78.0001Z" fill="#5EA523"/>
<path d="M44.1431 71.4997L50.4492 71.4995V65.0008H44.1431V71.4997Z" fill="#231F20"/>
<path d="M44.1431 58.4998H50.4496L50.4492 51.9998H44.1431V58.4998Z" fill="#8CD024"/>
<path d="M44.1431 84.5001H50.4492L50.4496 78.0001H44.1431V84.5001Z" fill="#231F20"/>
<path d="M50.4492 77.9997H56.7542V71.4995H50.4492V77.9997Z" fill="#5EA523"/>
<path d="M44.1431 51.9998L50.4496 52.0002L50.4492 45.4996L44.1431 45.4998V51.9998Z" fill="#8CD024"/>
<path d="M44.1431 45.4998L50.4492 45.4996V39.0009H44.1431V45.4998Z" fill="#8CD024"/>
<path d="M44.1431 39.0003H50.4492L50.4496 32.4999H44.1431V39.0003Z" fill="#8CD024"/>
<path d="M44.1431 32.4999H50.4496L50.4492 25.9999H44.1431V32.4999Z" fill="#63B32E"/>
<path d="M44.1431 25.9999L50.4496 26.0003L50.4492 19.4999H44.1431V25.9999Z" fill="#231F20"/>
<path d="M151.348 64.9985H157.653V58.4998H151.348V64.9985Z" fill="#8CD024"/>
<path d="M195.491 26.0003H201.796V19.4999H195.491V26.0003Z" fill="#8CD024"/>
<path d="M195.491 58.5002H201.796V51.9998H195.491V58.5002Z" fill="#8CD024"/>
<path d="M195.491 51.9998H201.796V45.4998H195.491V51.9998Z" fill="#8CD024"/>
<path d="M195.491 13.0004H201.796V6.49997H195.491V13.0004Z" fill="#231F20"/>
<path d="M195.491 64.9985H201.796V58.5002H195.491V64.9985Z" fill="#231F20"/>
<path d="M195.491 45.4998H201.796V39.0009H195.491V45.4998Z" fill="#8CD024"/>
<path d="M195.491 71.4991H201.796V64.9985H195.491V71.4991Z" fill="#231F20"/>
<path d="M195.491 39.0003H201.796V32.4999H195.491V39.0003Z" fill="#8CD024"/>
<path d="M195.491 19.4999H201.796V13.001H195.491V19.4999Z" fill="#BFE137"/>
<path d="M195.491 32.4999H201.796V26.0003H195.491V32.4999Z" fill="#231F20"/>
<path d="M100.898 6.50038H107.203V0H100.898V6.50038Z" fill="#231F20"/>
<path d="M100.898 26.0003H107.203V19.4999H100.898V26.0003Z" fill="#8CD024"/>
<path d="M100.898 32.5003H107.203V26.0003H100.898V32.5003Z" fill="#8CD024"/>
<path d="M100.898 39.0003H107.203V32.5003H100.898V39.0003Z" fill="#8CD024"/>
<path d="M100.898 19.4999H107.203V13.001H100.898V19.4999Z" fill="#8CD024"/>
<path d="M100.898 13.0004H107.203V6.50038H100.898V13.0004Z" fill="#BFE137"/>
<path d="M100.898 45.4996H107.203V39.0009H100.898V45.4996Z" fill="#8CD024"/>
<path d="M100.898 58.5002H107.203V51.9998H100.898V58.5002Z" fill="#8CD024"/>
<path d="M100.898 65.0001H107.203V58.5002H100.898V65.0001Z" fill="#8CD024"/>
<path d="M100.898 51.9998H107.203V45.4996H100.898V51.9998Z" fill="#8CD024"/>
<path d="M195.491 78.0001H201.796V71.4997H195.491V78.0001Z" fill="#231F20"/>
<path d="M107.203 78.0001H113.509V71.4997H107.203V78.0001Z" fill="#5EA523"/>
<path d="M107.203 6.50038H113.509V0H107.203V6.50038Z" fill="#231F20"/>
<path d="M107.203 32.5003H113.509V26H107.203V32.5003Z" fill="#8CD024"/>
<path d="M107.203 39.0003H113.509L113.509 32.5003H107.203L107.203 39.0003Z" fill="#8CD024"/>
<path d="M107.203 19.4997H113.509V13.001H107.203V19.4997Z" fill="#8CD024"/>
<path d="M107.203 13.0004H113.509L113.509 6.50038H107.203L107.203 13.0004Z" fill="#BFE137"/>
<path d="M107.203 26H113.509L113.509 19.4997H107.203L107.203 26Z" fill="#63B32E"/>
<path d="M195.491 84.5001H201.796V78.0001H195.491V84.5001Z" fill="#FCD205"/>
<path d="M157.652 84.5001H163.958V77.9997H157.652V84.5001Z" fill="#8CD024"/>
<path d="M163.96 84.5001H170.267V77.9997H163.96V84.5001Z" fill="#231F20"/>
<path d="M132.427 84.5001H138.734V77.9997H132.427V84.5001Z" fill="#231F20"/>
<path d="M138.734 77.9997V84.5001H145.04V77.9997H138.734Z" fill="#BFE137"/>
<path d="M145.042 84.5001H151.348V77.9997H145.042V84.5001Z" fill="#8CD024"/>
<path d="M107.203 45.4996H113.509V39.0009H107.203V45.4996Z" fill="#8CD024"/>
<path d="M189.183 84.5001H195.489V77.9997H189.183V84.5001Z" fill="#FCD205"/>
<path d="M170.264 84.5001H176.569V77.9997H170.264V84.5001Z" fill="#FCD205"/>
<path d="M182.877 84.5001L189.183 84.5001V77.9997L182.877 77.9997V84.5001Z" fill="#FCD205"/>
<path d="M176.572 84.5001H182.877V77.9997H176.572V84.5001Z" fill="#FCD205"/>
<path d="M151.348 84.5001L157.653 84.5001V77.9997L151.348 77.9997V84.5001Z" fill="#8CD024"/>
<path d="M107.203 58.5001H113.509V51.9998H107.203V58.5001Z" fill="#8CD024"/>
<path d="M107.203 65.0001H113.509L113.509 58.5001H107.203L107.203 65.0001Z" fill="#63B32E"/>
<path d="M107.203 51.9998H113.509L113.509 45.4996H107.203L107.203 51.9998Z" fill="#8CD024"/>
<path d="M107.203 71.4997H113.509V65.0008H107.203V71.4997Z" fill="#8CD024"/>
<path d="M113.509 84.5001H119.815V77.9997H113.509V84.5001Z" fill="#E5B506"/>
<path d="M119.817 84.5001H126.123V77.9997H119.817V84.5001Z" fill="#231F20"/>
<path d="M100.898 71.4995H107.203V65.0008H100.898V71.4995Z" fill="#8CD024"/>
<path d="M126.123 84.5001H132.428V77.9997H126.123V84.5001Z" fill="#231F20"/>
<path d="M113.509 77.9997H119.815V71.4997H113.509L113.509 77.9997Z" fill="#5EA523"/>
<path d="M94.5903 6.50038H100.897V0H94.5903V6.50038Z" fill="#231F20"/>
<path d="M94.5903 13.0004H100.897V6.50038H94.5903V13.0004Z" fill="#BFE137"/>
<path d="M94.5903 19.4997H100.897V13.001H94.5903V19.4997Z" fill="#8CD024"/>
<path d="M94.5943 39.0003H100.899V32.4999H94.5943V39.0003Z" fill="#BFE137"/>
<path d="M94.5903 32.5003H100.897V25.9999H94.5903V32.5003Z" fill="#8CD024"/>
<path d="M94.5903 25.9999H100.897V19.4997H94.5903V25.9999Z" fill="#8CD024"/>
<path d="M94.5903 45.4996H100.897V39.0009H94.5903V45.4996Z" fill="#8CD024"/>
<path d="M138.733 91.0002V97.499H145.04V90.9986L138.733 91.0002Z" fill="#5EA523"/>
<path d="M132.427 97.4994H138.734V91.0007H132.427V97.4994Z" fill="#231F20"/>
<path d="M126.123 97.4994H132.428V91.0007H126.123V97.4994Z" fill="#5EA523"/>
<path d="M145.042 97.4994H151.348V91.0007H145.042V97.4994Z" fill="#5EA523"/>
<path d="M113.509 97.4994H119.815V91.0007H113.509V97.4994Z" fill="#5EA523"/>
<path d="M119.817 97.4994H126.123V91.0007H119.817V97.4994Z" fill="#231F20"/>
<path d="M151.348 97.4994H157.653V91.0007H151.348V97.4994Z" fill="#5EA523"/>
<path d="M163.96 97.4994H170.267V91.0007H163.96V97.4994Z" fill="#C39207"/>
<path d="M170.264 97.4994H176.569V91.0007H170.264V97.4994Z" fill="#C39207"/>
<path d="M157.652 97.4994H163.958V91.0007H157.652V97.4994Z" fill="#231F20"/>
<path d="M100.898 97.4994H107.203V91.0007H100.898V97.4994Z" fill="#231F20"/>
<path d="M94.5903 71.4995H100.897V65.0008H94.5903V71.4995Z" fill="#8CD024"/>
<path d="M94.5903 65.0001H100.897V58.4998H94.5903V65.0001Z" fill="#8CD024"/>
<path d="M94.5903 78.0001H100.897V71.4995H94.5903V78.0001Z" fill="#8CD024"/>
<path d="M94.5903 58.4998H100.897V51.9998H94.5903V58.4998Z" fill="#8CD024"/>
<path d="M107.203 97.4994H113.509V91.0007H107.203V97.4994Z" fill="#231F20"/>
<path d="M94.5903 84.5001H100.897V78.0001H94.5903V84.5001Z" fill="#5EA523"/>
<path d="M94.5903 51.9998H100.897V45.4996H94.5903V51.9998Z" fill="#8CD024"/>
<path d="M100.898 91H107.203V84.4997H100.898V91Z" fill="#C39207"/>
<path d="M94.5903 91H100.897V84.5001H94.5903V91Z" fill="#231F20"/>
<path d="M189.183 90.9984H195.489V84.5001H189.183V90.9984Z" fill="#E5B506"/>
<path d="M151.348 90.9984H157.653L157.653 84.5001L151.348 84.4997V90.9984Z" fill="#8CD024"/>
<path d="M170.264 90.9984H176.569V84.5001H170.264V90.9984Z" fill="#E5B506"/>
<path d="M182.877 90.9984H189.183L189.183 84.4997L182.877 84.5001L182.877 90.9984Z" fill="#E5B506"/>
<path d="M157.652 90.9984H163.958V84.5001H157.652V90.9984Z" fill="#5EA523"/>
<path d="M163.96 90.9984H170.267V84.5001H163.96V90.9984Z" fill="#231F20"/>
<path d="M176.572 90.9984H182.877V84.5001H176.572V90.9984Z" fill="#E5B506"/>
<path d="M201.795 90.9984H208.102V84.4997H201.795V90.9984Z" fill="#8CD024"/>
<path d="M201.795 84.4997H208.102L208.102 77.9997H201.795L201.795 84.4997Z" fill="#231F20"/>
<path d="M195.491 90.9984H201.796V84.5001H195.491V90.9984Z" fill="#231F20"/>
<path d="M100.898 78.0001H107.203V71.4995H100.898V78.0001Z" fill="#8CD024"/>
<path d="M201.795 77.9997H208.102L208.102 71.4997H201.795L201.795 77.9997Z" fill="#8CD024"/>
<path d="M113.509 91H119.815V84.5001H113.509V91Z" fill="#231F20"/>
<path d="M107.203 84.5001L113.509 84.5001L113.509 78.0001H107.203L107.203 84.5001Z" fill="#E5B506"/>
<path d="M107.203 91H113.509L113.509 84.4997L107.203 84.5001L107.203 91Z" fill="#C39207"/>
<path d="M100.898 84.4997H107.203V78.0001H100.898V84.4997Z" fill="#5EA523"/>
<path d="M145.042 90.9984H151.348L151.348 84.5001H145.042V90.9984Z" fill="#8CD024"/>
<path d="M119.817 91H126.123V84.5001H119.817V91Z" fill="#BFE137"/>
<path d="M138.733 84.4997V91.0002L145.04 90.9986V84.5001L138.733 84.4997Z" fill="#8CD024"/>
<path d="M132.427 91L138.733 91.0002L138.734 84.5001H132.427V91Z" fill="#8CD024"/>
<path d="M126.123 91H132.428V84.5001L126.123 84.4997L126.123 91Z" fill="#8CD024"/>
<path d="M201.795 71.4991H208.102V64.9987H201.795V71.4991Z" fill="#8CD024"/>
<path d="M201.795 58.5001H208.102V51.9998H201.795V58.5001Z" fill="#231F20"/>
<path d="M201.795 51.9998H208.102V45.4998H201.795V51.9998Z" fill="#8CD024"/>
<path d="M201.795 64.9987H208.102L208.102 58.5001H201.795L201.795 64.9987Z" fill="#BFE137"/>
<path d="M201.795 13.0004H208.102V6.49997H201.795V13.0004Z" fill="#231F20"/>
<path d="M201.795 45.4998H208.102L208.102 39.0009H201.795L201.795 45.4998Z" fill="#8CD024"/>
<path d="M201.795 19.4997H208.102V13.001H201.795V19.4997Z" fill="#BFE137"/>
<path d="M201.795 39.0003H208.102V32.4999H201.795V39.0003Z" fill="#8CD024"/>
<path d="M201.795 26.0003H208.102L208.102 19.4997H201.795L201.795 26.0003Z" fill="#63B32E"/>
<path d="M201.795 32.4999H208.102V26.0003H201.795V32.4999Z" fill="#8CD024"/>
<path d="M157.652 45.4996H163.958V39.0009H157.652V45.4996Z" fill="#8CD024"/>
<path d="M126.123 13.0004H132.428V6.49997H126.123V13.0004Z" fill="#231F20"/>
<path d="M126.123 19.4997H132.428V13.001H126.123V19.4997Z" fill="#BFE137"/>
<path d="M126.123 58.5002H132.428V51.9998H126.123V58.5002Z" fill="#8CD024"/>
<path d="M132.427 13.0004H138.734V6.49997H132.427V13.0004Z" fill="#231F20"/>
<path d="M138.734 13.0004H145.04V6.49997H138.734V13.0004Z" fill="#231F20"/>
<path d="M126.123 26.0003H132.428V19.4997H126.123V26.0003Z" fill="#058D46"/>
<path d="M126.123 32.5003H132.428V26.0003H126.123V32.5003Z" fill="#8CD024"/>
<path d="M126.123 45.4996H132.428V39.0009H126.123V45.4996Z" fill="#8CD024"/>
<path d="M126.123 51.9998H132.428V45.4996H126.123V51.9998Z" fill="#8CD024"/>
<path d="M126.123 39.0003H132.428V32.5003H126.123V39.0003Z" fill="#8CD024"/>
<path d="M145.042 13.0004H151.348V6.49997H145.042V13.0004Z" fill="#231F20"/>
<path d="M170.264 32.5003H176.569V25.9999H170.264V32.5003Z" fill="#8CD024"/>
<path d="M151.348 13.0004H157.653V6.49997H151.348V13.0004Z" fill="#231F20"/>
<path d="M170.264 39.0003H176.569V32.5003H170.264V39.0003Z" fill="#058D46"/>
<path d="M170.264 52.0002H176.569V45.4998H170.264V52.0002Z" fill="#8CD024"/>
<path d="M170.264 45.4998H176.569V39.0009H170.264V45.4998Z" fill="#8CD024"/>
<path d="M170.264 25.9999H176.569V19.4999H170.264V25.9999Z" fill="#8CD024"/>
<path d="M157.652 13.0004H163.958V6.49997H157.652V13.0004Z" fill="#231F20"/>
<path d="M163.96 13.0004H170.265V6.49997H163.96V13.0004Z" fill="#231F20"/>
<path d="M170.264 13.0004H176.569V6.49997H170.264V13.0004Z" fill="#231F20"/>
<path d="M170.264 19.4999H176.569V13.001H170.264V19.4999Z" fill="#231F20"/>
<path d="M176.572 45.4996H182.877V39.0009H176.572V45.4996Z" fill="#8CD024"/>
<path d="M176.572 32.5003H182.877V25.9999H176.572V32.5003Z" fill="#231F20"/>
<path d="M176.572 25.9999H182.877V19.4999H176.572V25.9999Z" fill="#8CD024"/>
<path d="M176.572 39.0003H182.877V32.5003H176.572V39.0003Z" fill="#8CD024"/>
<path d="M176.572 19.4999H182.877V13.001H176.572V19.4999Z" fill="#BFE137"/>
<path d="M170.264 58.5002H176.569V52.0002H170.264V58.5002Z" fill="#8CD024"/>
<path d="M132.427 58.5002H138.734V51.9998H132.427V58.5002Z" fill="#8CD024"/>
<path d="M176.572 13.0004H182.877V6.49997H176.572V13.0004Z" fill="#231F20"/>
<path d="M145.042 64.9985H151.348V58.4998H145.042V64.9985Z" fill="#8CD024"/>
<path d="M138.733 58.4998V65.0001L145.04 64.9985V58.4998H138.733Z" fill="#8CD024"/>
<path d="M132.427 65.0001H138.733L138.734 58.5002H132.427V65.0001Z" fill="#8CD024"/>
<path d="M176.572 58.5002H182.877V51.9998H176.572V58.5002Z" fill="#8CD024"/>
<path d="M170.264 64.9985H176.569V58.5002H170.264V64.9985Z" fill="#8CD024"/>
<path d="M176.572 64.9985H182.877V58.5002H176.572V64.9985Z" fill="#63B32E"/>
<path d="M163.96 64.9985H170.267V58.4998H163.96V64.9985Z" fill="#8CD024"/>
<path d="M157.652 64.9985H163.958V58.4998H157.652V64.9985Z" fill="#8CD024"/>
<path d="M163.96 58.4998H170.267V51.9998H163.96V58.4998Z" fill="#8CD024"/>
<path d="M138.733 39.0003H145.04V32.4999H138.733V39.0003Z" fill="#8CD024"/>
<path d="M138.733 32.4999H145.04V25.9999H138.733V32.4999Z" fill="#231F20"/>
<path d="M138.733 25.9999H145.04V19.4999H138.733V25.9999Z" fill="#8CD024"/>
<path d="M138.733 45.4996H145.04V39.0009H138.733V45.4996Z" fill="#8CD024"/>
<path d="M151.348 26.0003H157.653V19.4999H151.348V26.0003Z" fill="#8CD024"/>
<path d="M157.652 52.0002H163.958V45.4996H157.652V52.0002Z" fill="#8CD024"/>
<path d="M163.96 51.9998H170.267V45.4998H163.96V51.9998Z" fill="#8CD024"/>
<path d="M151.348 52.0002H157.653V45.4998H151.348V52.0002Z" fill="#8CD024"/>
<path d="M145.042 52.0002H151.348V45.4998H145.042V52.0002Z" fill="#8CD024"/>
<path d="M145.042 45.4998H151.348L151.348 39.0009H145.042V45.4998Z" fill="#8CD024"/>
<path d="M151.348 39.0003H157.653V32.4999H151.348V39.0003Z" fill="#058D46"/>
<path d="M145.042 39.0003H151.348V32.4999H145.042V39.0003Z" fill="#8CD024"/>
<path d="M145.042 32.4999L151.348 32.5003V25.9999H145.042V32.4999Z" fill="#8CD024"/>
<path d="M151.348 32.4999H157.653V26.0003H151.348V32.4999Z" fill="#8CD024"/>
<path d="M157.652 26.0003H163.958V19.4999H157.652V26.0003Z" fill="#8CD024"/>
<path d="M157.652 39.0003H163.958V32.4999H157.652V39.0003Z" fill="#8CD024"/>
<path d="M151.348 45.4998H157.653V39.0009H151.348L151.348 45.4998Z" fill="#8CD024"/>
<path d="M157.652 32.4999H163.958V26.0003H157.652V32.4999Z" fill="#231F20"/>
<path d="M176.572 97.4994H182.877V91.0007H176.572V97.4994Z" fill="#C39207"/>
<path d="M145.042 25.9999H151.348L151.348 19.4999H145.042V25.9999Z" fill="#63B32E"/>
<path d="M132.427 45.4996H138.733V39.0009H132.427V45.4996Z" fill="#8CD024"/>
<path d="M138.733 52.0002H145.04V45.4996H138.733V52.0002Z" fill="#8CD024"/>
<path d="M132.427 51.9998H138.734L138.733 45.4996H132.427V51.9998Z" fill="#8CD024"/>
<path d="M132.427 39.0003H138.733V32.4999H132.427V39.0003Z" fill="#058D46"/>
<path d="M132.427 32.4999L138.734 32.5003L138.733 25.9999H132.427V32.4999Z" fill="#8CD024"/>
<path d="M138.733 58.4998H145.04V52.0002H138.733V58.4998Z" fill="#8CD024"/>
<path d="M151.348 58.4998H157.653V52.0002H151.348V58.4998Z" fill="#8CD024"/>
<path d="M157.652 58.4998H163.958V52.0002H157.652V58.4998Z" fill="#8CD024"/>
<path d="M132.427 25.9999L138.734 26.0003L138.733 19.4999H132.427V25.9999Z" fill="#8CD024"/>
<path d="M145.042 58.4998L151.348 58.5002V51.9998L145.042 52.0002V58.4998Z" fill="#63B32E"/>
<path d="M151.348 19.4999H157.653V13.001H151.348V19.4999Z" fill="#231F20"/>
<path d="M163.96 19.4997H170.265V13.001H163.96V19.4997Z" fill="#BFE137"/>
<path d="M163.96 32.5003H170.267V25.9999H163.96V32.5003Z" fill="#8CD024"/>
<path d="M163.96 25.9999H170.267V19.4999L163.96 19.4997V25.9999Z" fill="#63B32E"/>
<path d="M163.96 39.0003H170.267V32.5003H163.96V39.0003Z" fill="#8CD024"/>
<path d="M145.042 19.4999H151.348V13.001H145.042V19.4999Z" fill="#BFE137"/>
<path d="M138.733 19.4999H145.04V13.001H138.733V19.4999Z" fill="#BFE137"/>
<path d="M132.427 19.4999H138.733V13.001H132.427V19.4999Z" fill="#231F20"/>
<path d="M157.652 19.4999H163.958V13.001H157.652V19.4999Z" fill="#BFE137"/>
<path d="M163.96 45.4998H170.267V39.0009H163.96V45.4998Z" fill="#8CD024"/>
<path d="M176.572 51.9998H182.877V45.4996H176.572V51.9998Z" fill="#8CD024"/>
<path d="M113.509 58.5001L119.815 58.5002V51.9998L113.509 51.9998V58.5001Z" fill="#8CD024"/>
<path d="M113.509 52.0002L119.815 51.9998V45.4998L113.509 45.4996L113.509 52.0002Z" fill="#8CD024"/>
<path d="M113.509 65.0001H119.815V58.5002L113.509 58.4998L113.509 65.0001Z" fill="#8CD024"/>
<path d="M113.509 45.4996L119.815 45.4998V39.0009H113.509V45.4996Z" fill="#8CD024"/>
<path d="M113.509 39.0003H119.815V32.4999H113.509L113.509 39.0003Z" fill="#63B32E"/>
<path d="M119.817 77.9997H126.123V71.4997H119.817V77.9997Z" fill="#5EA523"/>
<path d="M113.509 71.4997H119.815V65.0008H113.509V71.4997Z" fill="#8CD024"/>
<path d="M113.509 32.4999H119.815V25.9999L113.509 26L113.509 32.4999Z" fill="#8CD024"/>
<path d="M126.123 78.0001L132.428 77.9997V71.4997H126.123L126.123 78.0001Z" fill="#5EA523"/>
<path d="M119.817 71.4997H126.123V65.0008H119.817V71.4997Z" fill="#5EA523"/>
<path d="M132.427 77.9997H138.734V71.4997H132.427V77.9997Z" fill="#5EA523"/>
<path d="M113.509 13.0004H119.815V6.49997H113.509L113.509 13.0004Z" fill="#231F20"/>
<path d="M113.509 19.4997H119.815V13.001H113.509V19.4997Z" fill="#8CD024"/>
<path d="M113.509 26.0003L119.815 25.9999V19.4997H113.509L113.509 26.0003Z" fill="#8CD024"/>
<path d="M138.734 71.4997L138.733 78.0001L145.04 77.9997V71.4997H138.734Z" fill="#231F20"/>
<path d="M189.183 39.0003H195.489V32.4999H189.183V39.0003Z" fill="#058D46"/>
<path d="M189.183 32.4999H195.489V25.9999H189.183V32.4999Z" fill="#8CD024"/>
<path d="M189.183 45.4996H195.489V39.0009H189.183V45.4996Z" fill="#8CD024"/>
<path d="M189.183 52.0002H195.489V45.4996H189.183V52.0002Z" fill="#8CD024"/>
<path d="M189.183 19.4997H195.489V13.001H189.183V19.4997Z" fill="#231F20"/>
<path d="M189.183 25.9999H195.489V19.4997H189.183V25.9999Z" fill="#8CD024"/>
<path d="M189.183 13.0004H195.489V6.49997H189.183V13.0004Z" fill="#231F20"/>
<path d="M189.183 64.9985H195.489V58.4998H189.183V64.9985Z" fill="#8CD024"/>
<path d="M189.183 58.4998H195.489V52.0002H189.183V58.4998Z" fill="#8CD024"/>
<path d="M157.652 77.9997H163.958V71.4997H157.652V77.9997Z" fill="#8CD024"/>
<path d="M151.348 78.0001L157.653 77.9997L157.653 71.4997H151.348V78.0001Z" fill="#8CD024"/>
<path d="M163.96 77.9997H170.267V71.4997H163.96V77.9997Z" fill="#231F20"/>
<path d="M189.183 71.4991H195.489V64.9985H189.183V71.4991Z" fill="#8CD024"/>
<path d="M145.042 77.9997H151.348L151.348 71.4997H145.042V77.9997Z" fill="#8CD024"/>
<path d="M182.877 77.9997L189.183 78.0001V71.4997H182.877L182.877 77.9997Z" fill="#8CD024"/>
<path d="M189.183 77.9997H195.489V71.4997H189.183L189.183 77.9997Z" fill="#8CD024"/>
<path d="M170.264 77.9997H176.569V71.4997H170.264V77.9997Z" fill="#8CD024"/>
<path d="M176.572 77.9997H182.877V71.4997H176.572V77.9997Z" fill="#8CD024"/>
<path d="M119.817 58.5002H126.123V51.9998H119.817V58.5002Z" fill="#8CD024"/>
<path d="M126.123 65.0001H132.428V58.5002H126.123V65.0001Z" fill="#5EA523"/>
<path d="M119.817 51.9998L126.123 52.0002L126.123 45.4996L119.817 45.4998V51.9998Z" fill="#8CD024"/>
<path d="M119.817 45.4998L126.123 45.4996V39.0009H119.817V45.4998Z" fill="#8CD024"/>
<path d="M132.427 71.4997H138.734V65.0008H132.427V71.4997Z" fill="#8CD024"/>
<path d="M138.733 65.0001V71.4991H145.04V64.9985L138.733 65.0001Z" fill="#8CD024"/>
<path d="M145.042 71.4991H151.348L151.348 64.9985H145.042V71.4991Z" fill="#8CD024"/>
<path d="M126.123 71.4997H132.428V65.0008H126.123V71.4997Z" fill="#5EA523"/>
<path d="M119.817 39.0003H126.123L126.123 32.4999H119.817V39.0003Z" fill="#8CD024"/>
<path d="M119.817 26.0003H126.123V19.4997L119.817 19.4999V26.0003Z" fill="#8CD024"/>
<path d="M119.817 32.4999H126.123V25.9999L119.817 26.0003V32.4999Z" fill="#8CD024"/>
<path d="M119.817 19.4999L126.123 19.4997V13.001H119.817V19.4999Z" fill="#231F20"/>
<path d="M151.348 71.4991H157.653V64.9985H151.348L151.348 71.4991Z" fill="#8CD024"/>
<path d="M119.817 65.0001H126.123L126.123 58.4998L119.817 58.5002V65.0001Z" fill="#8CD024"/>
<path d="M182.877 13.0004H189.183V6.49997H182.877V13.0004Z" fill="#231F20"/>
<path d="M182.877 26.0003H189.183L189.183 19.4997L182.877 19.4999V26.0003Z" fill="#63B32E"/>
<path d="M182.877 19.4999L189.183 19.4997V13.001H182.877L182.877 19.4999Z" fill="#BFE137"/>
<path d="M157.652 71.4991H163.958V64.9985H157.652V71.4991Z" fill="#231F20"/>
<path d="M182.877 32.5003H189.183V26.0003H182.877V32.5003Z" fill="#8CD024"/>
<path d="M176.572 71.4991H182.877V64.9985H176.572V71.4991Z" fill="#8CD024"/>
<path d="M170.264 71.4991H176.569V64.9985H170.264V71.4991Z" fill="#8CD024"/>
<path d="M182.877 71.4991H189.183V64.9985L182.877 64.9987V71.4991Z" fill="#8CD024"/>
<path d="M182.877 39.0003H189.183L189.183 32.5003H182.877V39.0003Z" fill="#8CD024"/>
<path d="M163.96 71.4991H170.267V64.9985H163.96V71.4991Z" fill="#8CD024"/>
<path d="M182.877 52.0002H189.183V45.4996L182.877 45.4998V52.0002Z" fill="#8CD024"/>
<path d="M182.877 64.9987L189.183 64.9985V58.4998H182.877L182.877 64.9987Z" fill="#8CD024"/>
<path d="M182.877 45.4998L189.183 45.4996V39.0009H182.877L182.877 45.4998Z" fill="#8CD024"/>
<path d="M182.877 58.4998L189.183 58.5001V51.9998L182.877 52.0002V58.4998Z" fill="#8CD024"/>
<path d="M75.6739 45.4996H81.9788V39.0009H75.6739V45.4996Z" fill="#8CD024"/>
<path d="M75.6739 78.0001H81.9788V71.4997H75.6739V78.0001Z" fill="#5EA523"/>
<path d="M75.6739 32.5003H81.9788V26H75.6739V32.5003Z" fill="#8CD024"/>
<path d="M75.6739 26H81.9788L81.9788 19.4999H75.6739L75.6739 26Z" fill="#8CD024"/>
<path d="M75.6739 19.4999H81.9788V13.001H75.6739V19.4999Z" fill="#8CD024"/>
<path d="M75.6739 65.0001H81.9788V58.4998H75.6739V65.0001Z" fill="#8CD024"/>
<path d="M75.6739 13.0004H81.9804V6.49997H75.6739V13.0004Z" fill="#BFE137"/>
<path d="M75.6739 71.4997H81.9788V65.0008H75.6739V71.4997Z" fill="#231F20"/>
<path d="M75.6739 52.0002H81.9788V45.4996H75.6739V52.0002Z" fill="#8CD024"/>
<path d="M75.6739 58.4998H81.9788V52.0002H75.6739V58.4998Z" fill="#8CD024"/>
<path d="M75.6739 39.0003H81.9788L81.9788 32.5003H75.6739L75.6739 39.0003Z" fill="#8CD024"/>
<path d="M75.6739 6.49997H81.9804L81.9804 0H75.6739L75.6739 6.49997Z" fill="#231F20"/>
<path d="M75.6739 84.5001H81.9788L81.9788 78.0001H75.6739L75.6739 84.5001Z" fill="#231F20"/>
<path d="M220.715 13.0004H227.02V6.49997H220.715V13.0004Z" fill="#231F20"/>
<path d="M220.715 19.4997H227.02V13.001H220.715V19.4997Z" fill="#BFE137"/>
<path d="M220.715 39.0003H227.02V32.4999H220.715V39.0003Z" fill="#8CD024"/>
<path d="M220.715 26.0003H227.02V19.4997H220.715V26.0003Z" fill="#63B32E"/>
<path d="M220.715 32.4999H227.02V26.0003H220.715V32.4999Z" fill="#8CD024"/>
<path d="M220.715 90.9984H227.02V84.4997H220.715V90.9984Z" fill="#231F20"/>
<path d="M220.715 84.4997H227.02V77.9997H220.715V84.4997Z" fill="#8CD024"/>
<path d="M220.715 77.9997H227.02V71.4997H220.715V77.9997Z" fill="#8CD024"/>
<path d="M220.715 97.4994H227.02V91.0007H220.715V97.4994Z" fill="#FCD205"/>
<path d="M182.877 97.4994H189.183V91.0007H182.877V97.4994Z" fill="#C39207"/>
<path d="M220.715 52.0002H227.02V45.4998H220.715V52.0002Z" fill="#231F20"/>
<path d="M220.715 58.5002H227.02V52.0002H220.715V58.5002Z" fill="#8CD024"/>
<path d="M220.715 71.4991H227.02V64.9987H220.715V71.4991Z" fill="#8CD024"/>
<path d="M220.715 45.4998H227.02V39.0009H220.715V45.4998Z" fill="#8CD024"/>
<path d="M69.3677 71.4995L75.6739 71.4997V65.0008H69.3677V71.4995Z" fill="#231F20"/>
<path d="M69.3677 78.0001H75.6739V71.4997L69.3677 71.4995V78.0001Z" fill="#5EA523"/>
<path d="M220.715 104H227.02V97.4994H220.715V104Z" fill="#231F20"/>
<path d="M69.3677 84.5001L75.6739 84.5001L75.6742 77.9997L69.3677 78.0001V84.5001Z" fill="#231F20"/>
<path d="M69.3677 52.0002H75.6739V45.4996L69.3677 45.4998V52.0002Z" fill="#8CD024"/>
<path d="M69.3677 65.0001H75.6739V58.4998H69.3677V65.0001Z" fill="white"/>
<path d="M69.3677 58.4998L75.6742 58.5002V51.9998L69.3677 52.0002V58.4998Z" fill="#8CD024"/>
<path d="M69.3677 13.0004H75.6739V6.49997H69.3677V13.0004Z" fill="#BFE137"/>
<path d="M69.3677 6.49997L75.6742 6.50038L75.6739 0H69.3677V6.49997Z" fill="#231F20"/>
<path d="M69.3677 19.4997L75.6739 19.4999V13.001H69.3677V19.4997Z" fill="#8CD024"/>
<path d="M69.3677 32.5003L75.6739 32.5003V26L69.3677 25.9999V32.5003Z" fill="#231F20"/>
<path d="M69.3677 45.4998L75.6739 45.4996V39.0009H69.3677V45.4998Z" fill="#8CD024"/>
<path d="M69.3677 39.0003H75.6739L75.6742 32.4999L69.3677 32.5003V39.0003Z" fill="#BFE137"/>
<path d="M69.3677 25.9999L75.6742 26.0003L75.6739 19.4999L69.3677 19.4997V25.9999Z" fill="#231F20"/>
<path d="M227.02 78.0001H233.326L233.326 71.4997H227.02V78.0001Z" fill="#8CD024"/>
<path d="M227.02 71.4991H233.326V64.9985L227.02 64.9987V71.4991Z" fill="#8CD024"/>
<path d="M227.02 84.5001H233.326L233.326 78.0001H227.02V84.5001Z" fill="#231F20"/>
<path d="M227.02 97.4994H233.326V91.0007H227.02V97.4994Z" fill="#D99A09"/>
<path d="M227.02 90.9984H233.326L233.326 84.4997L227.02 84.5001V90.9984Z" fill="#BFE137"/>
<path d="M227.02 104H233.326V97.4994H227.02V104Z" fill="#231F20"/>
<path d="M227.02 39.0003H233.326L233.326 32.4999H227.02V39.0003Z" fill="#058D46"/>
<path d="M227.02 52.0002H233.326V45.4998H227.02V52.0002Z" fill="#231F20"/>
<path d="M227.02 64.9987L233.326 64.9985V58.4998H227.02V64.9987Z" fill="#8CD024"/>
<path d="M227.02 58.4998L233.326 58.5002V51.9998L227.02 52.0002V58.4998Z" fill="#8CD024"/>
<path d="M227.02 45.4998H233.326V39.0009H227.02V45.4998Z" fill="#8CD024"/>
<path d="M227.02 32.4999H233.326L233.326 25.9999H227.02V32.4999Z" fill="#8CD024"/>
<path d="M227.02 19.4997H233.326V13.001H227.02V19.4997Z" fill="#BFE137"/>
<path d="M227.02 25.9999L233.326 26.0003L233.326 19.4997H227.02V25.9999Z" fill="#8CD024"/>
<path d="M227.02 13.0004H233.326V6.49997H227.02V13.0004Z" fill="#231F20"/>
<path d="M220.715 64.9987H227.02V58.5002H220.715V64.9987Z" fill="#63B32E"/>
<path d="M88.2862 78.0001H94.5927V71.4997H88.2862V78.0001Z" fill="#5EA523"/>
<path d="M88.2862 45.4996H94.5927V39.0009H88.2862V45.4996Z" fill="#8CD024"/>
<path d="M88.2862 65.0001H94.5927V58.4998H88.2862V65.0001Z" fill="#BFE137"/>
<path d="M88.2862 58.4998H94.5927V51.9998H88.2862V58.4998Z" fill="#8CD024"/>
<path d="M88.2862 51.9998H94.5927V45.4996H88.2862V51.9998Z" fill="#8CD024"/>
<path d="M88.2862 71.4997H94.5927V65.0008H88.2862V71.4997Z" fill="#8CD024"/>
<path d="M94.5903 97.4994H100.897V91.0007H94.5903V97.4994Z" fill="#397C1F"/>
<path d="M88.2862 84.5001H94.5927V78.0001H88.2862V84.5001Z" fill="#397C1F"/>
<path d="M88.2862 91H94.5927V84.5001H88.2862V91Z" fill="#231F20"/>
<path d="M88.2862 6.50038H94.5927V0H88.2862V6.50038Z" fill="#231F20"/>
<path d="M88.2862 32.5003H94.5927V25.9999H88.2862V32.5003Z" fill="#231F20"/>
<path d="M88.2862 25.9999H94.5927V19.4999H88.2862V25.9999Z" fill="#231F20"/>
<path d="M88.2862 13.0004H94.5927V6.50038H88.2862V13.0004Z" fill="#BFE137"/>
<path d="M88.2862 39.0003H94.5927V32.5003H88.2862V39.0003Z" fill="#BFE137"/>
<path d="M88.2862 19.4999H94.5927V13.001H88.2862V19.4999Z" fill="#8CD024"/>
<path d="M189.183 104H195.489V97.4996L189.183 97.4994L189.183 104Z" fill="#231F20"/>
<path d="M182.877 104H189.183L189.183 97.4994H182.877L182.877 104Z" fill="#231F20"/>
<path d="M176.572 104H182.877V97.4994H176.572V104Z" fill="#231F20"/>
<path d="M195.491 104H201.796V97.4996H195.491V104Z" fill="#231F20"/>
<path d="M170.264 104H176.569V97.4994H170.264V104Z" fill="#231F20"/>
<path d="M214.407 97.4994H220.714V91.0007H214.407V97.4994Z" fill="#231F20"/>
<path d="M163.96 104H170.267V97.4994H163.96V104Z" fill="#231F20"/>
<path d="M214.407 104H220.714V97.4994H214.407V104Z" fill="#231F20"/>
<path d="M208.101 104H214.407V97.4994L208.101 97.4996V104Z" fill="#231F20"/>
<path d="M201.795 104H208.101V97.4996H201.795V104Z" fill="#231F20"/>
<path d="M119.817 104H126.123L126.123 97.4994H119.817V104Z" fill="#231F20"/>
<path d="M113.509 104H119.815V97.4994H113.509V104Z" fill="#231F20"/>
<path d="M126.123 104H132.428V97.4994H126.123L126.123 104Z" fill="#231F20"/>
<path d="M138.733 104H145.04V97.4996L138.734 97.4994L138.733 104Z" fill="#231F20"/>
<path d="M145.042 104H151.348V97.4994H145.042V104Z" fill="#231F20"/>
<path d="M151.348 104H157.653V97.4994H151.348V104Z" fill="#231F20"/>
<path d="M132.427 104H138.733L138.734 97.4994H132.427V104Z" fill="#231F20"/>
<path d="M157.652 104H163.958V97.4994H157.652V104Z" fill="#231F20"/>
<path d="M208.102 26.0003H214.408V19.4999L208.102 19.4997L208.102 26.0003Z" fill="#8CD024"/>
<path d="M214.407 90.9984H220.714V84.4997H214.407V90.9984Z" fill="#8CD024"/>
<path d="M208.102 39.0003H214.408V32.4999H208.102V39.0003Z" fill="#058D46"/>
<path d="M208.102 45.4998L214.408 45.4996V39.0009H208.102L208.102 45.4998Z" fill="#8CD024"/>
<path d="M208.102 58.5001L214.408 58.5002V51.9998L208.102 51.9998V58.5001Z" fill="#BFE137"/>
<path d="M208.101 52.0002L214.408 51.9998V45.4996L208.102 45.4998L208.101 52.0002Z" fill="#231F20"/>
<path d="M208.102 19.4997L214.408 19.4999V13.001H208.102V19.4997Z" fill="#231F20"/>
<path d="M208.102 13.0004H214.408V6.49997H208.102V13.0004Z" fill="#231F20"/>
<path d="M201.795 97.4996H208.101L208.102 91.0007H201.795L201.795 97.4996Z" fill="#231F20"/>
<path d="M195.491 97.4996H201.796V91.0007H195.491V97.4996Z" fill="#5EA523"/>
<path d="M208.101 97.4996L214.407 97.4994V91.0007H208.102L208.101 97.4996Z" fill="#5EA523"/>
<path d="M189.183 97.4994L195.489 97.4996V91.0007H189.183V97.4994Z" fill="#231F20"/>
<path d="M208.102 71.4991H214.408V64.9987H208.102V71.4991Z" fill="#8CD024"/>
<path d="M208.101 78.0001H214.408V71.4997H208.102L208.101 78.0001Z" fill="#8CD024"/>
<path d="M208.102 90.9984H214.407V84.4997H208.102V90.9984Z" fill="#8CD024"/>
<path d="M208.102 64.9987H214.408V58.5002L208.101 58.4998L208.102 64.9987Z" fill="#8CD024"/>
<path d="M208.101 32.5003L214.408 32.4999V26.0003L208.101 25.9999V32.5003Z" fill="#8CD024"/>
<path d="M208.101 84.5001H214.408V78.0001H208.101V84.5001Z" fill="#8CD024"/>
<path d="M81.978 78.0001H88.2846V71.4997H81.978V78.0001Z" fill="#5EA523"/>
<path d="M81.978 52.0002H88.2846V45.4998H81.978V52.0002Z" fill="#8CD024"/>
<path d="M81.978 58.5002H88.2846V52.0002H81.978V58.5002Z" fill="#BFE137"/>
<path d="M81.978 65.0001H88.2846V58.5002H81.978V65.0001Z" fill="#231F20"/>
<path d="M81.978 84.5001H88.2846V78.0001H81.978V84.5001Z" fill="#397C1F"/>
<path d="M81.978 91H88.2846V84.5001H81.978V91Z" fill="#231F20"/>
<path d="M81.978 71.4997H88.2846V65.0008H81.978V71.4997Z" fill="#5EA523"/>
<path d="M81.978 45.4998H88.2846V39.0009H81.978V45.4998Z" fill="#8CD024"/>
<path d="M81.978 13.0004H88.2846V6.49997H81.978V13.0004Z" fill="#BFE137"/>
<path d="M81.978 6.49997H88.2846V0H81.978V6.49997Z" fill="#231F20"/>
<path d="M81.978 32.5003H88.2846V25.9999H81.978V32.5003Z" fill="#8CD024"/>
<path d="M81.978 19.4997H88.2846V13.001H81.978V19.4997Z" fill="#8CD024"/>
<path d="M81.978 39.0003H88.2846V32.5003H81.978V39.0003Z" fill="#8CD024"/>
<path d="M81.978 25.9999H88.2846V19.4997H81.978V25.9999Z" fill="#8CD024"/>
<path d="M214.408 13.0004H220.714V6.49997H214.408V13.0004Z" fill="#231F20"/>
<path d="M214.408 19.4999L220.714 19.4997V13.001H214.408V19.4999Z" fill="#BFE137"/>
<path d="M214.408 58.5002H220.714V51.9998H214.408V58.5002Z" fill="#8CD024"/>
<path d="M214.408 71.4991H220.714V64.9987H214.408V71.4991Z" fill="#8CD024"/>
<path d="M214.408 64.9987H220.714V58.5002L214.407 58.4998L214.408 64.9987Z" fill="#8CD024"/>
<path d="M214.408 78.0001H220.714V71.4997H214.408V78.0001Z" fill="#63B32E"/>
<path d="M214.408 39.0003H220.714V32.4999H214.408V39.0003Z" fill="#8CD024"/>
<path d="M214.407 32.5003L220.714 32.4999V25.9999H214.407V32.5003Z" fill="#231F20"/>
<path d="M214.407 25.9999H220.714V19.4997L214.408 19.4999L214.407 25.9999Z" fill="#8CD024"/>
<path d="M214.407 52.0002L220.714 51.9998V45.4998L214.408 45.4996L214.407 52.0002Z" fill="#231F20"/>
<path d="M214.408 45.4996L220.714 45.4998V39.0009H214.408V45.4996Z" fill="#8CD024"/>
<path d="M214.407 84.4997H220.714V78.0001L214.407 77.9997V84.4997Z" fill="#8CD024"/>
<path d="M0 52.0002H6.30655V45.4998H0V52.0002Z" fill="#231F20"/>
<path d="M0 39.0003H6.30655V32.4999H0V39.0003Z" fill="#231F20"/>
<path d="M0 45.4998H6.30655V39.0009H0V45.4998Z" fill="#231F20"/>
<path d="M0 58.5001H6.30655V52.0002H0L0 58.5001Z" fill="#231F20"/>
<path d="M0 65.0001H6.30655V58.5001H0L0 65.0001Z" fill="#231F20"/>
<path d="M6.30655 65.0001H12.6111V58.4998H6.30615L6.30655 65.0001Z" fill="#8CD024"/>
<path d="M6.30615 32.5003H12.6111V25.9999H6.30615V32.5003Z" fill="#231F20"/>
<path d="M6.30655 39.0003H12.6111V32.5003H6.30615L6.30655 39.0003Z" fill="#BFE137"/>
<path d="M6.30655 52.0002H12.6111V45.4998H6.30655V52.0002Z" fill="#8CD024"/>
<path d="M6.30655 45.4998H12.6111V39.0009H6.30655V45.4998Z" fill="#8CD024"/>
<path d="M6.30615 58.4998H12.6111V52.0002L6.30615 51.9998V58.4998Z" fill="#8CD024"/>
<path d="M6.30615 71.4995H12.6111V65.0008H6.30615V71.4995Z" fill="#231F20"/>
<path d="M296.387 97.4994H302.694V91.0007H296.387V97.4994Z" fill="#231F20"/>
<path d="M296.387 90.9984H302.694V84.4997H296.387V90.9984Z" fill="#FCD205"/>
<path d="M296.387 64.9985H302.694V58.4998H296.387V64.9985Z" fill="#231F20"/>
<path d="M296.387 78.0001H302.694V71.4997H296.387V78.0001Z" fill="#8CD024"/>
<path d="M296.387 84.4997H302.694V78.0001H296.387V84.4997Z" fill="#8CD024"/>
<path d="M296.387 71.4991H302.694L302.694 64.9985H296.387L296.387 71.4991Z" fill="#BFE137"/>
<path d="M302.694 90.9984H309V84.4997H302.694V90.9984Z" fill="#231F20"/>
<path d="M302.694 78.0001H309V71.4997H302.694V78.0001Z" fill="#231F20"/>
<path d="M302.694 71.4991H309V64.9987L302.694 64.9985L302.694 71.4991Z" fill="#231F20"/>
<path d="M302.693 84.5001L309 84.4997V78.0001L302.693 77.9997V84.5001Z" fill="#231F20"/>
<path d="M25.2246 65.0001H31.5312V58.4998H25.2246V65.0001Z" fill="#8CD024"/>
<path d="M25.2246 26.0003H31.5312V19.4999H25.2246V26.0003Z" fill="#231F20"/>
<path d="M25.2246 58.4998H31.5312V51.9998H25.2246V58.4998Z" fill="#8CD024"/>
<path d="M25.2246 51.9998H31.5312V45.4998H25.2246V51.9998Z" fill="#8CD024"/>
<path d="M25.2246 45.4998H31.5312V39.0009H25.2246V45.4998Z" fill="#8CD024"/>
<path d="M25.2246 39.0003H31.5312V32.4999H25.2246V39.0003Z" fill="#8CD024"/>
<path d="M25.2246 32.4999H31.5312V26.0003H25.2246V32.4999Z" fill="#63B32E"/>
<path d="M25.2246 84.5001H31.5312V77.9997H25.2246V84.5001Z" fill="#231F20"/>
<path d="M25.2246 77.9997H31.5312V71.4997H25.2246V77.9997Z" fill="white"/>
<path d="M25.2246 71.4997H31.5312V65.0008H25.2246V71.4997Z" fill="#231F20"/>
<path d="M277.469 45.4996H283.775V39.0009H277.469V45.4996Z" fill="#231F20"/>
<path d="M277.469 52.0002H283.775L283.775 45.4996H277.469L277.469 52.0002Z" fill="#BFE137"/>
<path d="M277.469 90.9984H283.775V84.4997H277.469V90.9984Z" fill="#8CD024"/>
<path d="M277.469 104H283.775V97.4996H277.469V104Z" fill="#231F20"/>
<path d="M277.469 78.0001H283.775V71.4997H277.469V78.0001Z" fill="#8CD024"/>
<path d="M277.469 84.4997H283.775V78.0001H277.469V84.4997Z" fill="#231F20"/>
<path d="M277.469 71.4991H283.775V64.9987H277.469V71.4991Z" fill="#8CD024"/>
<path d="M277.469 64.9987H283.775L283.775 58.4998H277.469L277.469 64.9987Z" fill="#8CD024"/>
<path d="M277.469 58.4998H283.775V52.0002H277.469V58.4998Z" fill="#8CD024"/>
<path d="M277.469 97.4996H283.775L283.775 91.0007H277.469L277.469 97.4996Z" fill="#FCD205"/>
<path d="M271.165 58.5002H277.47V51.9998H271.165V58.5002Z" fill="#231F20"/>
<path d="M31.5312 71.4997L37.8357 71.4995V65.0008H31.5312V71.4997Z" fill="#231F20"/>
<path d="M31.5308 78.0001H37.8357V71.4995L31.5312 71.4997L31.5308 78.0001Z" fill="#4A811A"/>
<path d="M31.5308 58.5002H37.8357V51.9998H31.5312L31.5308 58.5002Z" fill="#8CD024"/>
<path d="M31.5308 52.0002L37.8357 51.9998V45.4998H31.5312L31.5308 52.0002Z" fill="#8CD024"/>
<path d="M31.5312 45.4998H37.8357V39.0009H31.5312V45.4998Z" fill="#231F20"/>
<path d="M31.5312 84.5001H37.8357V78.0001H31.5308L31.5312 84.5001Z" fill="#231F20"/>
<path d="M31.5312 26.0003H37.8357V19.4999H31.5312V26.0003Z" fill="#231F20"/>
<path d="M31.5308 32.5003H37.8357V26.0003L31.5308 25.9999V32.5003Z" fill="#8CD024"/>
<path d="M31.5312 39.0003H37.8357V32.5003H31.5308L31.5312 39.0003Z" fill="#8CD024"/>
<path d="M31.5312 65.0001H37.8357V58.5002H31.5308L31.5312 65.0001Z" fill="#8CD024"/>
<path d="M271.165 90.9984H277.47V84.4997H271.165V90.9984Z" fill="#8CD024"/>
<path d="M271.165 97.4994H277.47V91.0007H271.165V97.4994Z" fill="#FCD205"/>
<path d="M271.165 84.4997H277.47V77.9997H271.165V84.4997Z" fill="#8CD024"/>
<path d="M271.165 104H277.47V97.4994H271.165V104Z" fill="#231F20"/>
<path d="M271.165 77.9997H277.47V71.4997H271.165V77.9997Z" fill="#BFE137"/>
<path d="M271.165 64.9985H277.47V58.5002H271.165V64.9985Z" fill="#8CD024"/>
<path d="M271.165 71.4991H277.47V64.9985H271.165V71.4991Z" fill="#8CD024"/>
<path d="M271.165 51.9998H277.47V45.4998H271.165V51.9998Z" fill="#8CD024"/>
<path d="M271.165 45.4998H277.47V39.0009H271.165V45.4998Z" fill="#231F20"/>
<path d="M12.6123 52.0002H18.9173V45.4998H12.6123V52.0002Z" fill="#8CD024"/>
<path d="M12.6123 58.5002H18.9173V52.0002H12.6123V58.5002Z" fill="#8CD024"/>
<path d="M12.6123 45.4998H18.9173V39.0009H12.6123V45.4998Z" fill="#231F20"/>
<path d="M12.6123 32.5003H18.9173V25.9999H12.6123V32.5003Z" fill="#BFE137"/>
<path d="M12.6123 39.0003H18.9173V32.5003H12.6123V39.0003Z" fill="#8CD024"/>
<path d="M12.6123 65.0001H18.9173V58.5002H12.6123V65.0001Z" fill="#8CD024"/>
<path d="M12.6123 78.0001H18.9173V71.4997H12.6123V78.0001Z" fill="#231F20"/>
<path d="M12.6123 71.4997H18.9173V65.0008H12.6123V71.4997Z" fill="#231F20"/>
<path d="M12.6123 25.9999H18.9173V19.4999H12.6123V25.9999Z" fill="#231F20"/>
<path d="M290.081 71.4991H296.387L296.387 64.9985L290.081 64.9987V71.4991Z" fill="#8CD024"/>
<path d="M290.081 58.5002H296.388V51.9998H290.081V58.5002Z" fill="#231F20"/>
<path d="M290.081 64.9987L296.387 64.9985L296.388 58.5002H290.081V64.9987Z" fill="#BFE137"/>
<path d="M290.081 78.0001H296.387V71.4997H290.081V78.0001Z" fill="#8CD024"/>
<path d="M290.081 90.9984H296.387V84.4997H290.081V90.9984Z" fill="#8CD024"/>
<path d="M290.081 104H296.388L296.387 97.4994L290.081 97.4996V104Z" fill="#231F20"/>
<path d="M290.081 84.4997L296.388 84.5001V77.9997L290.081 78.0001V84.4997Z" fill="#8CD024"/>
<path d="M290.081 97.4996L296.387 97.4994V91.0007H290.081V97.4996Z" fill="#FCD205"/>
<path d="M18.9165 45.4996H25.223V39.0009H18.9165V45.4996Z" fill="#8CD024"/>
<path d="M18.9165 65.0001H25.223V58.4998H18.9165V65.0001Z" fill="#8CD024"/>
<path d="M18.9165 78.0001H25.223V71.4997H18.9165V78.0001Z" fill="#5EA523"/>
<path d="M18.9165 71.4997H25.223V65.0008H18.9165V71.4997Z" fill="#231F20"/>
<path d="M18.9165 58.4998H25.223V51.9998H18.9165V58.4998Z" fill="#8CD024"/>
<path d="M18.9165 51.9998H25.223V45.4996H18.9165V51.9998Z" fill="#8CD024"/>
<path d="M18.9165 84.5001H25.223V78.0001H18.9165V84.5001Z" fill="#231F20"/>
<path d="M18.9165 32.5003H25.223V25.9999H18.9165V32.5003Z" fill="#8CD024"/>
<path d="M18.9165 25.9999H25.223V19.4999H18.9165V25.9999Z" fill="#231F20"/>
<path d="M18.9165 39.0003H25.223V32.5003H18.9165V39.0003Z" fill="#8CD024"/>
<path d="M283.775 78.0001H290.08V71.4997H283.775V78.0001Z" fill="#8CD024"/>
<path d="M283.775 84.5001H290.08V78.0001L283.775 77.9997V84.5001Z" fill="#8CD024"/>
<path d="M283.775 71.4991H290.08V64.9987H283.775V71.4991Z" fill="#231F20"/>
<path d="M283.775 90.9984H290.08V84.5001H283.775L283.775 90.9984Z" fill="#8CD024"/>
<path d="M283.775 52.0002H290.08V45.4998L283.775 45.4996L283.775 52.0002Z" fill="#231F20"/>
<path d="M283.775 64.9987H290.08V58.4998H283.775L283.775 64.9987Z" fill="#8CD024"/>
<path d="M283.775 58.5002L290.08 58.4998V52.0002L283.775 51.9998V58.5002Z" fill="#BFE137"/>
<path d="M283.775 97.4996L290.08 97.4994V91.0007H283.775L283.775 97.4996Z" fill="#D99A09"/>
<path d="M283.775 104H290.08V97.4994L283.775 97.4996V104Z" fill="#231F20"/>
<path d="M88.2862 91V97.499H94.5911V90.9986L88.2862 91Z" fill="#5EA523"/>
<path d="M81.978 97.4994H88.2846V91.0007H81.978V97.4994Z" fill="#5EA523"/>
<path d="M75.6719 97.4994H81.978V91.0007H75.6719V97.4994Z" fill="#231F20"/>
<path d="M63.0615 97.5025H69.3681V91.0037H63.0615V97.5025Z" fill="#231F20"/>
<path d="M69.3657 97.4994H75.6719V91.0007H69.3657V97.4994Z" fill="#5EA523"/>
<path d="M69.3657 91H75.6723V84.4997H69.3657V91Z" fill="#231F20"/>
<path d="M75.6723 91H81.978L81.9784 84.4997H75.6723V91Z" fill="#8CD024"/>
<path d="M69.3657 104H75.6723L75.6719 97.4994H69.3657V104Z" fill="#231F20"/>
<path d="M63.0596 104H69.3657V97.4994L63.0596 97.4996V104Z" fill="#231F20"/>
<path d="M75.6723 104H81.9784L81.978 97.4994H75.6719L75.6723 104Z" fill="#231F20"/>
<path d="M88.2862 104H94.5911V97.4996H88.2862V104Z" fill="#231F20"/>
<path d="M94.5903 104H100.897V97.4994H94.5903V104Z" fill="#231F20"/>
<path d="M100.897 104H107.203L107.203 97.4994H100.897V104Z" fill="#231F20"/>
<path d="M81.9784 104H88.2846V97.4994H81.978L81.9784 104Z" fill="#231F20"/>
</svg>
