<svg width="263" height="200" viewBox="0 0 263 200" fill="none" xmlns="http://www.w3.org/2000/svg">
<path d="M68.75 187.5H75.0004V181.25H68.75V187.5Z" fill="#231F20"/>
<path d="M162.5 187.5H168.75V181.25H162.5V187.5Z" fill="#6F7C80"/>
<path d="M156.25 187.5H162.5V181.25H156.25V187.5Z" fill="#231F20"/>
<path d="M168.75 187.5H174.999V181.25H168.75V187.5Z" fill="#505B5E"/>
<path d="M75.0004 187.5H81.2504V181.25H75.0004V187.5Z" fill="#909FA3"/>
<path d="M137.5 187.5H143.749V181.25H137.5V187.5Z" fill="#909FA3"/>
<path d="M150 187.5H156.249V181.25H150V187.5Z" fill="#6F7C80"/>
<path d="M175 187.5H181.252V181.25H175V187.5Z" fill="#505B5E"/>
<path d="M181.25 187.5H187.499V181.25H181.25V187.5Z" fill="#231F20"/>
<path d="M143.75 187.5H150V181.25H143.75V187.5Z" fill="#909FA3"/>
<path d="M193.75 187.5H200V181.25H193.75V187.5Z" fill="#231F20"/>
<path d="M93.75 187.5H100V181.25H93.75V187.5Z" fill="#231F20"/>
<path d="M131.25 187.5H137.502V181.25H131.25V187.5Z" fill="#909FA3"/>
<path d="M87.5 187.5H93.7489V181.25H87.5V187.5Z" fill="#6F7C80"/>
<path d="M100 187.5H106.25V181.25H100V187.5Z" fill="#231F20"/>
<path d="M81.2504 187.5H87.5V181.25H81.2504V187.5Z" fill="#909FA3"/>
<path d="M106.25 187.5H112.499V181.25H106.25V187.5Z" fill="#231F20"/>
<path d="M125 187.5H131.249V181.25H125V187.5Z" fill="#231F20"/>
<path d="M200 187.5H206.252V181.25H200V187.5Z" fill="#909FA3"/>
<path d="M18.7501 62.5004H24.9989V56.25H18.7501V62.5004Z" fill="#A77A6E"/>
<path d="M18.7501 56.25H24.9989V50H18.7501V56.25Z" fill="#A77A6E"/>
<path d="M18.75 68.7504H24.9989L24.9989 62.5004H18.7501L18.75 68.7504Z" fill="#A77A6E"/>
<path d="M18.7501 37.5004H24.9989V31.25H18.7501V37.5004Z" fill="#909FA3"/>
<path d="M18.75 49.9989H24.9989V43.75H18.75V49.9989Z" fill="#7B5950"/>
<path d="M18.75 43.75H24.9989L24.9989 37.5004H18.7501L18.75 43.75Z" fill="#231F20"/>
<path d="M18.75 93.7504H24.9989V87.5H18.75V93.7504Z" fill="#231F20"/>
<path d="M18.75 74.9989H24.9989V68.7504H18.75V74.9989Z" fill="#231F20"/>
<path d="M18.75 87.5H24.9989L24.9989 81.25H18.7501L18.75 87.5Z" fill="#6F7C80"/>
<path d="M18.7501 81.25H24.9989V75H18.7501V81.25Z" fill="#909FA3"/>
<path d="M18.75 24.9989H24.9989V18.75H18.75V24.9989Z" fill="#231F20"/>
<path d="M18.75 31.2489H24.9989V25H18.75V31.2489Z" fill="#BFC8CB"/>
<path d="M12.5001 87.5004H18.7489V81.25H12.5001V87.5004Z" fill="#231F20"/>
<path d="M12.5001 81.25H18.7489V75H12.5001V81.25Z" fill="#6F7C80"/>
<path d="M12.5 68.7504H18.7489V62.5H12.5V68.7504Z" fill="#231F20"/>
<path d="M12.5 62.5H18.7489L18.7489 56.25H12.5001L12.5 62.5Z" fill="#231F20"/>
<path d="M206.25 187.5H212.499V181.25H206.25V187.5Z" fill="#909FA3"/>
<path d="M12.5 74.9989H18.7489V68.7504H12.5V74.9989Z" fill="#909FA3"/>
<path d="M12.5001 56.25H18.7489V50H12.5001V56.25Z" fill="#231F20"/>
<path d="M12.5 31.2489H18.7489V25H12.5V31.2489Z" fill="#231F20"/>
<path d="M12.5 49.9989H18.7489V43.75H12.5V49.9989Z" fill="#231F20"/>
<path d="M12.5 43.75H18.7489V37.5H12.5V43.75Z" fill="#909FA3"/>
<path d="M12.5 37.5H18.7489L18.7489 31.25H12.5001L12.5 37.5Z" fill="#BFC8CB"/>
<path d="M206.25 99.9989H212.499V93.75H206.25V99.9989Z" fill="#909FA3"/>
<path d="M206.25 62.5004H212.499V56.25H206.25V62.5004Z" fill="#909FA3"/>
<path d="M206.25 93.75H212.499V87.5H206.25V93.75Z" fill="#909FA3"/>
<path d="M206.25 112.499H212.499V106.25H206.25V112.499Z" fill="#909FA3"/>
<path d="M206.25 118.752H212.499V112.5H206.25V118.752Z" fill="#909FA3"/>
<path d="M206.25 106.25H212.499L212.499 100H206.25L206.25 106.25Z" fill="#909FA3"/>
<path d="M206.25 74.9989H212.499V68.75H206.25V74.9989Z" fill="#909FA3"/>
<path d="M206.25 68.75H212.499L212.499 62.5004H206.25L206.25 68.75Z" fill="#909FA3"/>
<path d="M206.25 87.5H212.499L212.499 81.25H206.25L206.25 87.5Z" fill="#909FA3"/>
<path d="M206.25 81.25H212.499V75H206.25V81.25Z" fill="#909FA3"/>
<path d="M206.25 125H212.499V118.75H206.25V125Z" fill="#909FA3"/>
<path d="M206.25 168.75H212.499V162.5H206.25V168.75Z" fill="#909FA3"/>
<path d="M206.25 174.999H212.499L212.499 168.75H206.25L206.25 174.999Z" fill="#6F7C80"/>
<path d="M206.25 181.25H212.499V175H206.25V181.25Z" fill="#909FA3"/>
<path d="M206.25 162.5H212.499V156.25H206.25V162.5Z" fill="#909FA3"/>
<path d="M206.25 156.25H212.499V150H206.25V156.25Z" fill="#909FA3"/>
<path d="M206.25 143.752H212.499V137.5H206.25V143.752Z" fill="#231F20"/>
<path d="M206.25 137.499H212.499V131.25H206.25V137.499Z" fill="#6F7C80"/>
<path d="M206.25 131.25H212.499L212.499 125H206.25L206.25 131.25Z" fill="#909FA3"/>
<path d="M206.25 149.999H212.499V143.75H206.25V149.999Z" fill="#6F7C80"/>
<path d="M206.25 31.2489H212.499V25H206.25V31.2489Z" fill="#909FA3"/>
<path d="M206.25 43.7504H212.499V37.5H206.25V43.7504Z" fill="#909FA3"/>
<path d="M206.25 37.5H212.499L212.499 31.25H206.25L206.25 37.5Z" fill="#909FA3"/>
<path d="M206.25 49.9989H212.499V43.7504H206.25V49.9989Z" fill="#909FA3"/>
<path d="M206.25 56.25H212.499V50H206.25V56.25Z" fill="#909FA3"/>
<path d="M206.25 12.5004H212.499V6.25H206.25V12.5004Z" fill="#231F20"/>
<path d="M206.25 18.7504H212.499V12.5004H206.25V18.7504Z" fill="#BFC8CB"/>
<path d="M206.25 24.9989H212.499L212.499 18.7504H206.25L206.25 24.9989Z" fill="#909FA3"/>
<path d="M137.5 174.999H143.749V168.75H137.5V174.999Z" fill="#909FA3"/>
<path d="M162.5 6.24888H168.75V0H162.5V6.24888Z" fill="#231F20"/>
<path d="M143.75 6.24888H150V0H143.75V6.24888Z" fill="#231F20"/>
<path d="M156.25 6.24888H162.5V0H156.25V6.24888Z" fill="#231F20"/>
<path d="M150 6.24888H156.249V0H150V6.24888Z" fill="#231F20"/>
<path d="M193.75 49.9989H200V43.75H193.75V49.9989Z" fill="#231F20"/>
<path d="M193.75 43.75H200V37.5H193.75V43.75Z" fill="#231F20"/>
<path d="M193.75 56.2504H200.001V50H193.75V56.2504Z" fill="#BFC8CB"/>
<path d="M193.75 68.7504H200V62.5H193.75V68.7504Z" fill="#909FA3"/>
<path d="M193.75 62.5H200L200.001 56.2504H193.75L193.75 62.5Z" fill="#909FA3"/>
<path d="M193.75 31.2489H200V25H193.75V31.2489Z" fill="#909FA3"/>
<path d="M24.9989 31.2489L31.2502 31.2491V25.0002L24.9989 25V31.2489Z" fill="#909FA3"/>
<path d="M193.75 24.9989H200V18.75H193.75V24.9989Z" fill="#909FA3"/>
<path d="M193.75 18.75H200L200.001 12.5H193.75L193.75 18.75Z" fill="#BFC8CB"/>
<path d="M193.75 12.5H200.001V6.25H193.75V12.5Z" fill="#231F20"/>
<path d="M43.7499 6.24888H50.0004V0H43.7499V6.24888Z" fill="#231F20"/>
<path d="M50.0004 6.24888H56.2504V0H50.0004V6.24888Z" fill="#231F20"/>
<path d="M25.0001 18.7504H31.2505V12.5H25.0001V18.7504Z" fill="#231F20"/>
<path d="M37.5 6.24888H43.7489V0H37.5V6.24888Z" fill="#231F20"/>
<path d="M106.25 6.24888H112.499V0H106.25V6.24888Z" fill="#231F20"/>
<path d="M100 6.24888H106.25V0H100V6.24888Z" fill="#231F20"/>
<path d="M112.5 6.24888H118.75V0H112.5V6.24888Z" fill="#231F20"/>
<path d="M118.75 6.24888H125V0H118.75V6.24888Z" fill="#231F20"/>
<path d="M193.75 74.9989H200V68.7504H193.75V74.9989Z" fill="#231F20"/>
<path d="M81.25 6.24888H87.5004V0H81.25V6.24888Z" fill="#231F20"/>
<path d="M93.75 6.24888H100V0H93.75V6.24888Z" fill="#231F20"/>
<path d="M87.5004 6.24888H93.7489V0H87.5004V6.24888Z" fill="#231F20"/>
<path d="M193.75 37.5H200L200.001 31.25H193.75L193.75 37.5Z" fill="#909FA3"/>
<path d="M106.25 174.999H112.499V168.75H106.25V174.999Z" fill="#505B5E"/>
<path d="M112.5 174.999H118.75V168.75H112.5V174.999Z" fill="#231F20"/>
<path d="M156.25 174.999H162.501V168.75H156.25V174.999Z" fill="#231F20"/>
<path d="M87.5001 174.999H93.7489V168.75H87.5001V174.999Z" fill="#6F7C80"/>
<path d="M93.7501 174.999H100V168.75H93.7501V174.999Z" fill="#6F7C80"/>
<path d="M143.75 174.999H150.001V168.75H143.75V174.999Z" fill="#909FA3"/>
<path d="M150.001 174.999H156.249V168.75H150.001V174.999Z" fill="#6F7C80"/>
<path d="M125 174.999H131.249V168.75H125V174.999Z" fill="#231F20"/>
<path d="M131.249 174.999H137.502V168.75H131.249V174.999Z" fill="#909FA3"/>
<path d="M100 174.999H106.25V168.75H100V174.999Z" fill="#6F7C80"/>
<path d="M81.2501 174.999H87.5001V168.75H81.2501V174.999Z" fill="#231F20"/>
<path d="M75.0001 174.999H81.2501V168.75H75.0001V174.999Z" fill="#909FA3"/>
<path d="M68.7501 174.999H75.0001V168.75H68.7501V174.999Z" fill="#231F20"/>
<path d="M193.75 168.75H200V162.5H193.75V168.75Z" fill="#909FA3"/>
<path d="M193.75 118.752H200.001V112.5H193.75V118.752Z" fill="#909FA3"/>
<path d="M193.75 125H200.001V118.75H193.75V125Z" fill="#909FA3"/>
<path d="M193.75 137.499H200V131.25H193.75V137.499Z" fill="#6F7C80"/>
<path d="M193.75 143.752H200.001V137.5H193.75V143.752Z" fill="#6F7C80"/>
<path d="M162.516 174.999H168.766V168.75H162.516V174.999Z" fill="#6F7C80"/>
<path d="M193.75 131.25H200L200.001 125H193.75L193.75 131.25Z" fill="#909FA3"/>
<path d="M193.75 87.5004H200.001V81.25H193.75V87.5004Z" fill="#909FA3"/>
<path d="M193.75 93.7504H200L200.001 87.5004H193.75L193.75 93.7504Z" fill="#909FA3"/>
<path d="M193.75 106.25H200.001V100H193.75V106.25Z" fill="#909FA3"/>
<path d="M193.75 99.9989H200V93.7504H193.75V99.9989Z" fill="#909FA3"/>
<path d="M193.75 112.499H200L200.001 106.25H193.75L193.75 112.499Z" fill="#909FA3"/>
<path d="M181.25 174.999H187.499V168.75H181.25V174.999Z" fill="#231F20"/>
<path d="M175 174.999H181.252V168.75H175V174.999Z" fill="#343B3C"/>
<path d="M168.695 174.999H174.944V168.75H168.695V174.999Z" fill="#505B5E"/>
<path d="M193.75 149.999H200.001V143.75H193.75V149.999Z" fill="#231F20"/>
<path d="M193.75 162.5H200V156.25H193.75V162.5Z" fill="#6F7C80"/>
<path d="M193.75 156.25H200V150H193.75V156.25Z" fill="#505B5E"/>
<path d="M193.75 81.25H200.001V75H193.75V81.25Z" fill="#231F20"/>
<path d="M193.75 174.999H200.001L200 168.75H193.75L193.75 174.999Z" fill="#231F20"/>
<path d="M24.9989 24.9989L31.2502 24.9986L31.2505 18.7504L24.9989 18.75V24.9989Z" fill="#BFC8CB"/>
<path d="M200 156.25L206.252 156.25V150H200V156.25Z" fill="#6F7C80"/>
<path d="M200.001 149.999H206.252V143.75H200.001V149.999Z" fill="#231F20"/>
<path d="M200 168.75H206.252V162.5H200V168.75Z" fill="#909FA3"/>
<path d="M200 162.5H206.252V156.25L200 156.25V162.5Z" fill="#909FA3"/>
<path d="M200.001 174.999H206.252L206.252 168.75H200L200.001 174.999Z" fill="#909FA3"/>
<path d="M200.001 143.752H206.252V137.5H200.001V143.752Z" fill="#505B5E"/>
<path d="M200.001 125H206.252V118.75H200.001V125Z" fill="#909FA3"/>
<path d="M200.001 118.752H206.252V112.5H200.001V118.752Z" fill="#909FA3"/>
<path d="M143.75 181.25H150L150 175H143.75V181.25Z" fill="#909FA3"/>
<path d="M24.9989 37.5004H31.2503L31.2502 31.2491L24.9989 31.25V37.5004Z" fill="#231F20"/>
<path d="M200 181.25H206.252V175H200L200 181.25Z" fill="#909FA3"/>
<path d="M156.25 181.25H162.5L162.5 175H156.25V181.25Z" fill="#231F20"/>
<path d="M168.75 181.25H174.999V175H168.75L168.75 181.25Z" fill="#505B5E"/>
<path d="M162.5 181.25H168.75L168.75 175H162.5L162.5 181.25Z" fill="#6F7C80"/>
<path d="M150 181.25H156.249V175H150L150 181.25Z" fill="#6F7C80"/>
<path d="M181.25 181.25H187.499V175H181.25V181.25Z" fill="#231F20"/>
<path d="M193.75 181.25H200L200 175H193.75V181.25Z" fill="#231F20"/>
<path d="M200 112.499H206.252V106.25L200.001 106.25L200 112.499Z" fill="#909FA3"/>
<path d="M174.999 181.25H181.252L181.252 174.999L174.999 175V181.25Z" fill="#343B3C"/>
<path d="M200 137.499H206.252V131.25H200V137.499Z" fill="#6F7C80"/>
<path d="M200.001 12.5L206.252 12.5004V6.25H200.001V12.5Z" fill="#231F20"/>
<path d="M200 24.9989H206.252V18.75H200V24.9989Z" fill="#909FA3"/>
<path d="M200 18.75H206.252L206.252 12.5004L200.001 12.5L200 18.75Z" fill="#BFC8CB"/>
<path d="M200 31.2489H206.252V25H200V31.2489Z" fill="#909FA3"/>
<path d="M200 37.5L206.252 37.5004V31.25H200.001L200 37.5Z" fill="#909FA3"/>
<path d="M200 43.75L206.252 43.7504L206.252 37.5004L200 37.5V43.75Z" fill="#909FA3"/>
<path d="M200 68.7504H206.252V62.5H200V68.7504Z" fill="#231F20"/>
<path d="M200.001 81.25L206.252 81.2504V75H200.001V81.25Z" fill="#909FA3"/>
<path d="M200 93.7504H206.252V87.5L200.001 87.5004L200 93.7504Z" fill="#909FA3"/>
<path d="M200 49.9989H206.252V43.7504L200 43.75V49.9989Z" fill="#909FA3"/>
<path d="M200 99.9989H206.252V93.7504H200V99.9989Z" fill="#909FA3"/>
<path d="M200.001 87.5004L206.252 87.5L206.252 81.2504L200.001 81.25V87.5004Z" fill="#909FA3"/>
<path d="M200.001 56.2504H206.252V50H200.001V56.2504Z" fill="#231F20"/>
<path d="M200 62.5H206.252L206.252 56.2504H200.001L200 62.5Z" fill="#231F20"/>
<path d="M200.001 106.25L206.252 106.25L206.252 100H200.001V106.25Z" fill="#909FA3"/>
<path d="M200 74.9989H206.252V68.7504H200V74.9989Z" fill="#909FA3"/>
<path d="M200 131.25H206.252L206.252 125H200.001L200 131.25Z" fill="#909FA3"/>
<path d="M25 99.9989H31.2504V93.75H25V99.9989Z" fill="#231F20"/>
<path d="M24.9989 49.9989L31.2502 49.9988V43.75L24.9989 43.75V49.9989Z" fill="#A77A6E"/>
<path d="M24.9999 56.2485H31.2503L31.2502 49.9988L24.9999 49.998V56.2485Z" fill="#A77A6E"/>
<path d="M25.0001 62.5004H31.2505V56.25H25.0001V62.5004Z" fill="#7B5950"/>
<path d="M25 43.7504L31.2502 43.75L31.2503 37.5004L25 37.5V43.7504Z" fill="#7B5950"/>
<path d="M25 68.7504H31.2504L31.2505 62.5004H25.0001L25 68.7504Z" fill="#A77A6E"/>
<path d="M24.9999 81.2504H31.2503V75H24.9989L24.9999 81.2504Z" fill="#A77A6E"/>
<path d="M25.0001 87.5004H31.2505L31.2503 81.2504H24.9999L25.0001 87.5004Z" fill="#909FA3"/>
<path d="M24.9989 93.7504L31.2504 93.75L31.2505 87.5004L24.9989 87.5V93.7504Z" fill="#6F7C80"/>
<path d="M24.9989 74.9989L31.2503 75L31.2504 68.7504H24.9989V74.9989Z" fill="#A77A6E"/>
<path d="M106.25 181.25H112.499V175H106.25L106.25 181.25Z" fill="#505B5E"/>
<path d="M75.0004 181.25H81.2504V175H75L75.0004 181.25Z" fill="#909FA3"/>
<path d="M137.5 181.25H143.749V175H137.5V181.25Z" fill="#909FA3"/>
<path d="M100 181.25H106.25L106.25 175H100L100 181.25Z" fill="#505B5E"/>
<path d="M87.5 181.25H93.7489V175H87.5V181.25Z" fill="#231F20"/>
<path d="M81.2504 181.25H87.5V175H81.2504V181.25Z" fill="#909FA3"/>
<path d="M93.75 181.25H100L100 175H93.75V181.25Z" fill="#505B5E"/>
<path d="M125 181.25H131.249V175H125V181.25Z" fill="#231F20"/>
<path d="M131.25 181.25H137.502L137.502 174.999L131.249 175L131.25 181.25Z" fill="#909FA3"/>
<path d="M112.5 181.25H118.75V175H112.5V181.25Z" fill="#231F20"/>
<path d="M68.75 181.25H75.0004L75 175H68.75V181.25Z" fill="#231F20"/>
<path d="M218.75 162.5H224.999V156.25H218.75V162.5Z" fill="#6F7C80"/>
<path d="M218.75 156.25H224.999V150H218.75V156.25Z" fill="#6F7C80"/>
<path d="M218.75 174.999H224.999V168.75H218.75V174.999Z" fill="#909FA3"/>
<path d="M218.75 118.752H224.999V112.5H218.75V118.752Z" fill="#909FA3"/>
<path d="M218.75 149.999H224.999V143.75H218.75V149.999Z" fill="#6F7C80"/>
<path d="M218.75 137.499H224.999V131.25H218.75V137.499Z" fill="#6F7C80"/>
<path d="M218.75 125H224.999V118.75H218.75V125Z" fill="#6F7C80"/>
<path d="M218.75 131.25H224.999L224.999 125H218.75L218.75 131.25Z" fill="#6F7C80"/>
<path d="M218.75 181.25H224.999V175H218.75V181.25Z" fill="#909FA3"/>
<path d="M218.75 143.752H224.999V137.5H218.75V143.752Z" fill="#6F7C80"/>
<path d="M218.75 168.75H224.999L224.999 162.5H218.75L218.75 168.75Z" fill="#909FA3"/>
<path d="M200 200H206.252V193.75H200V200Z" fill="#231F20"/>
<path d="M181.25 200H187.499V193.75H181.25V200Z" fill="#231F20"/>
<path d="M218.75 193.749H224.999V187.5H218.75V193.749Z" fill="white"/>
<path d="M218.75 200H224.999V193.75H218.75V200Z" fill="#231F20"/>
<path d="M206.25 200H212.499V193.75H206.25V200Z" fill="#231F20"/>
<path d="M218.75 187.5H224.999L224.999 181.25H218.75L218.75 187.5Z" fill="#909FA3"/>
<path d="M212.5 200H218.75V193.75H212.5V200Z" fill="#231F20"/>
<path d="M193.75 200H200V193.75H193.75V200Z" fill="#231F20"/>
<path d="M218.75 31.2489H224.999V25H218.75V31.2489Z" fill="#909FA3"/>
<path d="M218.75 24.9989H224.999V18.75H218.75V24.9989Z" fill="#BFC8CB"/>
<path d="M218.75 43.7504H224.999V37.5H218.75V43.7504Z" fill="#909FA3"/>
<path d="M218.75 18.75H224.999L224.999 12.5H218.75L218.75 18.75Z" fill="#231F20"/>
<path d="M218.75 37.5H224.999L224.999 31.25H218.75L218.75 37.5Z" fill="#909FA3"/>
<path d="M218.75 112.499H224.999V106.25H218.75V112.499Z" fill="#909FA3"/>
<path d="M218.75 49.9989H224.999V43.7504H218.75V49.9989Z" fill="#909FA3"/>
<path d="M218.75 99.9989H224.999V93.75H218.75V99.9989Z" fill="#909FA3"/>
<path d="M218.75 93.75H224.999V87.5H218.75V93.75Z" fill="#909FA3"/>
<path d="M218.75 106.25H224.999L224.999 100H218.75L218.75 106.25Z" fill="#909FA3"/>
<path d="M218.75 87.5H224.999L224.999 81.25H218.75L218.75 87.5Z" fill="#909FA3"/>
<path d="M218.75 74.9989H224.999V68.75H218.75V74.9989Z" fill="#909FA3"/>
<path d="M218.75 62.5004H224.999V56.25H218.75V62.5004Z" fill="#909FA3"/>
<path d="M218.75 68.75H224.999L224.999 62.5004H218.75L218.75 68.75Z" fill="#909FA3"/>
<path d="M218.75 56.25H224.999V50H218.75V56.25Z" fill="#909FA3"/>
<path d="M218.75 81.25H224.999V75H218.75V81.25Z" fill="#909FA3"/>
<path d="M225 125H231.252V118.75H225V125Z" fill="#6F7C80"/>
<path d="M225 131.25H231.252V125H225V131.25Z" fill="#6F7C80"/>
<path d="M225 118.752H231.252V112.5H225V118.752Z" fill="#6F7C80"/>
<path d="M225 143.752H231.252V137.5H225V143.752Z" fill="#231F20"/>
<path d="M225 149.999H231.252V143.75H225V149.999Z" fill="#231F20"/>
<path d="M225 137.499H231.252L231.252 131.25H225L225 137.499Z" fill="#505B5E"/>
<path d="M225 93.7504H231.252V87.5H225V93.7504Z" fill="#909FA3"/>
<path d="M225 112.499H231.252V106.25H225V112.499Z" fill="#909FA3"/>
<path d="M225 99.9989H231.252V93.7504H225V99.9989Z" fill="#909FA3"/>
<path d="M225 106.25H231.252L231.252 100H225L225 106.25Z" fill="#909FA3"/>
<path d="M225 181.25H231.252V175H225V181.25Z" fill="#6F7C80"/>
<path d="M225 187.5H231.252V181.25H225V187.5Z" fill="#6F7C80"/>
<path d="M225 193.749H231.252L231.252 187.5H225L225 193.749Z" fill="#6F7C80"/>
<path d="M225 200H231.252V193.75H225V200Z" fill="#231F20"/>
<path d="M225 162.5H231.252V156.25H225V162.5Z" fill="#6F7C80"/>
<path d="M225 168.75H231.252V162.5H225V168.75Z" fill="#6F7C80"/>
<path d="M225 156.25H231.252V150H225V156.25Z" fill="#231F20"/>
<path d="M225 174.999H231.252L231.252 168.75H225L225 174.999Z" fill="#6F7C80"/>
<path d="M0 49.9988H6.25044V43.75H0V49.9988Z" fill="#231F20"/>
<path d="M6.10352e-05 56.2485H6.2505L6.25044 49.9988H0L6.10352e-05 56.2485Z" fill="#231F20"/>
<path d="M6.10352e-05 62.5004H6.2505V56.25H6.10352e-05V62.5004Z" fill="#231F20"/>
<path d="M0 68.7504H6.25044L6.2505 62.5004H6.10352e-05L0 68.7504Z" fill="#231F20"/>
<path d="M175 200H181.252V193.75H175V200Z" fill="#231F20"/>
<path d="M143.75 200H150V193.75H143.75V200Z" fill="#231F20"/>
<path d="M212.5 99.9989H218.75V93.75H212.5V99.9989Z" fill="#909FA3"/>
<path d="M212.5 106.25L218.75 106.25L218.75 100H212.5V106.25Z" fill="#6F7C80"/>
<path d="M212.5 93.75H218.75V87.5H212.5V93.75Z" fill="#909FA3"/>
<path d="M212.5 112.499H218.75V106.25L212.5 106.25L212.5 112.499Z" fill="#909FA3"/>
<path d="M212.5 118.752H218.75V112.5H212.5V118.752Z" fill="#909FA3"/>
<path d="M212.5 74.9989H218.75V68.75H212.5V74.9989Z" fill="#909FA3"/>
<path d="M212.5 62.5004H218.75V56.25H212.5V62.5004Z" fill="#909FA3"/>
<path d="M212.5 125H218.75V118.75H212.5V125Z" fill="#909FA3"/>
<path d="M212.5 81.2504L218.75 81.25V75H212.5V81.2504Z" fill="#909FA3"/>
<path d="M212.5 87.5H218.75L218.75 81.25L212.5 81.2504L212.5 87.5Z" fill="#909FA3"/>
<path d="M212.5 68.75H218.75L218.75 62.5004H212.5L212.5 68.75Z" fill="#909FA3"/>
<path d="M212.5 168.75L218.75 168.75L218.75 162.5L212.5 162.5V168.75Z" fill="#909FA3"/>
<path d="M212.5 174.999H218.75V168.75L212.5 168.75L212.5 174.999Z" fill="#909FA3"/>
<path d="M212.5 131.25L218.75 131.25L218.75 125H212.5V131.25Z" fill="#6F7C80"/>
<path d="M212.5 181.25H218.75V175H212.5V181.25Z" fill="#909FA3"/>
<path d="M212.5 193.749H218.75V187.5H212.5V193.749Z" fill="#909FA3"/>
<path d="M212.5 187.5H218.75L218.75 181.25H212.5L212.5 187.5Z" fill="#909FA3"/>
<path d="M212.5 156.25L218.75 156.25V150H212.5V156.25Z" fill="#6F7C80"/>
<path d="M212.5 137.499H218.75V131.25L212.5 131.25L212.5 137.499Z" fill="#6F7C80"/>
<path d="M212.5 143.752H218.75V137.5H212.5V143.752Z" fill="#6F7C80"/>
<path d="M212.5 149.999H218.75V143.75H212.5V149.999Z" fill="#6F7C80"/>
<path d="M212.5 162.5L218.75 162.5V156.25L212.5 156.25V162.5Z" fill="#909FA3"/>
<path d="M168.75 200H174.999V193.75H168.75V200Z" fill="#231F20"/>
<path d="M212.5 31.2489H218.75V25H212.5V31.2489Z" fill="#909FA3"/>
<path d="M212.5 43.7504H218.75V37.5H212.5V43.7504Z" fill="#909FA3"/>
<path d="M212.5 37.5H218.75L218.75 31.25H212.5L212.5 37.5Z" fill="#909FA3"/>
<path d="M212.5 49.9989H218.75V43.7504H212.5V49.9989Z" fill="#909FA3"/>
<path d="M212.5 24.9989H218.75V18.75H212.5V24.9989Z" fill="#909FA3"/>
<path d="M212.5 56.25H218.75V50H212.5V56.25Z" fill="#909FA3"/>
<path d="M212.5 18.75H218.75L218.75 12.5H212.5L212.5 18.75Z" fill="#231F20"/>
<path d="M168.75 193.749H174.999L174.999 187.5H168.75L168.75 193.749Z" fill="white"/>
<path d="M68.7501 193.749H75.0005L75.0004 187.5H68.75L68.7501 193.749Z" fill="#231F20"/>
<path d="M75.0005 193.749H81.2505L81.2504 187.5H75.0004L75.0005 193.749Z" fill="white"/>
<path d="M175 193.749H181.252L181.252 187.5H175L175 193.749Z" fill="#505B5E"/>
<path d="M143.75 193.749H150.001L150 187.5H143.75L143.75 193.749Z" fill="white"/>
<path d="M150.001 193.749H156.249L156.249 187.5H150L150.001 193.749Z" fill="#6F7C80"/>
<path d="M156.25 193.749H162.501L162.5 187.5H156.25L156.25 193.749Z" fill="#231F20"/>
<path d="M206.25 193.749H212.499L212.499 187.5H206.25L206.25 193.749Z" fill="white"/>
<path d="M81.2505 193.749H87.5005L87.5 187.5H81.2504L81.2505 193.749Z" fill="#6F7C80"/>
<path d="M200 193.749H206.252L206.252 187.5H200L200 193.749Z" fill="#909FA3"/>
<path d="M193.75 193.749H200L200 187.5H193.75L193.75 193.749Z" fill="#231F20"/>
<path d="M181.25 193.749H187.499L187.499 187.5H181.25L181.25 193.749Z" fill="#231F20"/>
<path d="M162.501 193.749H168.75L168.75 187.5H162.5L162.501 193.749Z" fill="#6F7C80"/>
<path d="M93.7501 193.749H100L100 187.5H93.75L93.7501 193.749Z" fill="#505B5E"/>
<path d="M100 193.749H106.25L106.25 187.5H100L100 193.749Z" fill="#231F20"/>
<path d="M87.5005 193.749H93.7489L93.7489 187.5H87.5L87.5005 193.749Z" fill="white"/>
<path d="M131.25 193.749H137.502L137.502 187.5H131.25L131.25 193.749Z" fill="white"/>
<path d="M125 193.749H131.249L131.249 187.5H125L125 193.749Z" fill="#231F20"/>
<path d="M137.5 193.749H143.749L143.749 187.5H137.5L137.5 193.749Z" fill="#909FA3"/>
<path d="M150 200H156.249V193.75H150V200Z" fill="#231F20"/>
<path d="M125 200H131.249V193.75H125V200Z" fill="#231F20"/>
<path d="M137.5 200H143.749V193.75H137.5V200Z" fill="#231F20"/>
<path d="M131.25 200H137.502V193.75H131.25V200Z" fill="#231F20"/>
<path d="M162.5 200H168.75V193.75H162.5V200Z" fill="#231F20"/>
<path d="M156.25 200H162.5V193.75H156.25V200Z" fill="#231F20"/>
<path d="M100 200H106.25V193.75H100V200Z" fill="#231F20"/>
<path d="M68.75 200H75.0004V193.75H68.75V200Z" fill="#231F20"/>
<path d="M93.75 200H100V193.75H93.75V200Z" fill="#231F20"/>
<path d="M75.0004 200H81.2504V193.75H75.0004V200Z" fill="#231F20"/>
<path d="M87.5 200H93.7489V193.75H87.5V200Z" fill="#231F20"/>
<path d="M81.2504 200H87.5V193.75H81.2504V200Z" fill="#231F20"/>
<path d="M6.25044 43.75L12.5 43.75V37.5H6.25L6.25044 43.75Z" fill="#231F20"/>
<path d="M6.2505 56.25H12.5001V50H6.25006L6.2505 56.25Z" fill="#909FA3"/>
<path d="M6.25 37.5H12.5L12.5001 31.25H6.25006L6.25 37.5Z" fill="#231F20"/>
<path d="M6.25044 49.9988L12.5 49.9989V43.75L6.25044 43.75V49.9988Z" fill="#BFC8CB"/>
<path d="M6.25044 68.7504H12.5V62.5L6.2505 62.5004L6.25044 68.7504Z" fill="#6F7C80"/>
<path d="M6.25 74.9989H12.5V68.7504H6.25044L6.25 74.9989Z" fill="#231F20"/>
<path d="M6.25006 81.2504L12.5001 81.25V75H6.25006V81.2504Z" fill="#231F20"/>
<path d="M6.2505 62.5004L12.5 62.5L12.5001 56.25H6.2505V62.5004Z" fill="#909FA3"/>
<path d="M112.5 118.752H118.75V112.5H112.5V118.752Z" fill="#231F20"/>
<path d="M156.25 62.5004H162.501V56.25H156.25V62.5004Z" fill="#231F20"/>
<path d="M156.25 43.7504H162.5V37.5H156.25V43.7504Z" fill="#A77A6E"/>
<path d="M143.75 43.7504H150V37.5H143.75V43.7504Z" fill="#BFC8CB"/>
<path d="M156.25 49.9989H162.5V43.7504H156.25V49.9989Z" fill="#A77A6E"/>
<path d="M156.25 56.25H162.501V50H156.25V56.25Z" fill="#231F20"/>
<path d="M150 43.7504H156.249V37.5H150V43.7504Z" fill="#231F20"/>
<path d="M118.75 43.7504H125V37.5H118.75V43.7504Z" fill="#909FA3"/>
<path d="M137.5 43.7504H143.749V37.5H137.5V43.7504Z" fill="#909FA3"/>
<path d="M125 43.7504H131.25V37.5H125V43.7504Z" fill="#909FA3"/>
<path d="M150 49.9989H156.249V43.7504H150L150 49.9989Z" fill="#231F20"/>
<path d="M156.25 81.2504H162.501V75H156.25V81.2504Z" fill="#A77A6E"/>
<path d="M156.25 112.499H162.5V106.25H156.25V112.499Z" fill="#231F20"/>
<path d="M156.25 106.25H162.5L162.501 100H156.25L156.25 106.25Z" fill="#6F7C80"/>
<path d="M156.25 68.7504H162.5L162.501 62.5004H156.25L156.25 68.7504Z" fill="#231F20"/>
<path d="M156.25 118.752H162.501V112.5H156.25V118.752Z" fill="#909FA3"/>
<path d="M156.25 99.9989H162.5V93.75H156.25V99.9989Z" fill="#909FA3"/>
<path d="M156.25 125H162.501V118.75H156.25V125Z" fill="#909FA3"/>
<path d="M112.5 43.7504H118.75V37.5H112.5V43.7504Z" fill="#909FA3"/>
<path d="M156.25 93.75H162.5V87.5H156.25V93.75Z" fill="#A77A6E"/>
<path d="M156.25 74.9989H162.5V68.7504H156.25V74.9989Z" fill="#A77A6E"/>
<path d="M156.25 87.5H162.5L162.501 81.2504H156.25L156.25 87.5Z" fill="#A77A6E"/>
<path d="M62.5001 62.5004H68.7489V56.25H62.5001V62.5004Z" fill="#909FA3"/>
<path d="M62.5001 81.2504H68.7489V75H62.5001V81.2504Z" fill="#231F20"/>
<path d="M62.5001 87.5004H68.7489V81.2504H62.5001V87.5004Z" fill="#BFC8CB"/>
<path d="M62.5 93.7504H68.7489L68.7489 87.5004H62.5001L62.5 93.7504Z" fill="#909FA3"/>
<path d="M62.5 74.9989H68.7489V68.75H62.5V74.9989Z" fill="#231F20"/>
<path d="M62.5 68.75H68.7489L68.7489 62.5004H62.5001L62.5 68.75Z" fill="#909FA3"/>
<path d="M62.5 99.9989H68.7489V93.7504H62.5V99.9989Z" fill="#909FA3"/>
<path d="M62.5 112.499H68.7489V106.25H62.5V112.499Z" fill="#231F20"/>
<path d="M62.5001 118.752H68.7489V112.5H62.5001V118.752Z" fill="#505B5E"/>
<path d="M62.5 106.25H68.7489L68.7489 100H62.5001L62.5 106.25Z" fill="#231F20"/>
<path d="M156.25 131.25H162.501V125H156.25V131.25Z" fill="#909FA3"/>
<path d="M93.75 43.7504H100V37.5H93.75V43.7504Z" fill="#909FA3"/>
<path d="M106.25 43.7504H112.499V37.5H106.25V43.7504Z" fill="#909FA3"/>
<path d="M87.5 43.7504H93.7489V37.5H87.5V43.7504Z" fill="#909FA3"/>
<path d="M62.5001 56.25H68.7489V50H62.5001V56.25Z" fill="#909FA3"/>
<path d="M100 43.7504H106.25V37.5H100V43.7504Z" fill="#909FA3"/>
<path d="M81.25 43.7504H87.5V37.5H81.25V43.7504Z" fill="#909FA3"/>
<path d="M62.5 43.7504H68.7489V37.5H62.5V43.7504Z" fill="#909FA3"/>
<path d="M62.5 49.9989H68.7489V43.7504H62.5V49.9989Z" fill="#909FA3"/>
<path d="M75 43.7504H81.25V37.5H75V43.7504Z" fill="#909FA3"/>
<path d="M68.75 43.7504H75V37.5H68.75V43.7504Z" fill="#909FA3"/>
<path d="M68.7501 131.25H75.0005V125H68.7501V131.25Z" fill="white"/>
<path d="M68.7501 56.2504H75.0005V50H68.7501V56.2504Z" fill="#909FA3"/>
<path d="M68.75 49.9989H75.0004L75 43.7504H68.75V49.9989Z" fill="#909FA3"/>
<path d="M81.25 49.9989H87.5004L87.5 43.7504H81.25V49.9989Z" fill="#909FA3"/>
<path d="M75.0004 49.9989H81.25V43.7504H75L75.0004 49.9989Z" fill="#909FA3"/>
<path d="M68.7501 62.5004H75.0005V56.2504H68.7501V62.5004Z" fill="#909FA3"/>
<path d="M68.7501 87.5004H75.0005V81.25H68.7501V87.5004Z" fill="#909FA3"/>
<path d="M87.5004 49.9989H93.7489V43.7504H87.5L87.5004 49.9989Z" fill="#909FA3"/>
<path d="M68.75 93.7504H75.0004L75.0005 87.5004H68.7501L68.75 93.7504Z" fill="#909FA3"/>
<path d="M68.75 74.9989H75.0004V68.75H68.75V74.9989Z" fill="#909FA3"/>
<path d="M68.75 68.75H75.0004L75.0005 62.5004H68.7501L68.75 68.75Z" fill="#909FA3"/>
<path d="M68.7501 81.25H75.0005V75H68.7501V81.25Z" fill="#909FA3"/>
<path d="M125 49.9989H131.25V43.7504H125L125 49.9989Z" fill="#909FA3"/>
<path d="M156.25 137.499H162.5L162.501 131.25H156.25L156.25 137.499Z" fill="#6F7C80"/>
<path d="M93.75 49.9989H100V43.7504H93.75V49.9989Z" fill="#909FA3"/>
<path d="M143.75 49.9989H150L150 43.7504H143.75V49.9989Z" fill="#909FA3"/>
<path d="M131.25 49.9989L137.502 49.9988V43.75L131.25 43.7504V49.9989Z" fill="#909FA3"/>
<path d="M118.75 49.9989H125L125 43.7504H118.75V49.9989Z" fill="#909FA3"/>
<path d="M100 49.9989H106.25L106.25 43.7504H100V49.9989Z" fill="#909FA3"/>
<path d="M106.25 49.9989H112.499V43.7504H106.25L106.25 49.9989Z" fill="#909FA3"/>
<path d="M112.5 49.9989H118.75V43.7504H112.5V49.9989Z" fill="#909FA3"/>
<path d="M137.5 49.9989H143.749V43.7504H137.5V49.9989Z" fill="#909FA3"/>
<path d="M118.75 137.499H125V131.25H118.75V137.499Z" fill="#6F7C80"/>
<path d="M125 137.499H131.249V131.25H125V137.499Z" fill="#6F7C80"/>
<path d="M93.75 137.499H100V131.25H93.75V137.499Z" fill="white"/>
<path d="M100 137.499H106.25V131.25H100V137.499Z" fill="white"/>
<path d="M106.25 137.499H112.499V131.25H106.25V137.499Z" fill="#231F20"/>
<path d="M68.75 99.9989H75.0004V93.7504H68.75V99.9989Z" fill="#909FA3"/>
<path d="M150 137.499H156.249V131.25H150V137.499Z" fill="#909FA3"/>
<path d="M131.249 137.499L137.502 137.499V131.25L131.249 131.25V137.499Z" fill="#909FA3"/>
<path d="M143.75 137.499H150V131.25H143.75V137.499Z" fill="#909FA3"/>
<path d="M137.5 137.499H143.749V131.25H137.5V137.499Z" fill="#909FA3"/>
<path d="M112.5 137.499H118.75V131.25H112.5V137.499Z" fill="#505B5E"/>
<path d="M68.75 112.499H75.0004V106.25H68.75V112.499Z" fill="#909FA3"/>
<path d="M68.7501 118.752H75.0005V112.5H68.7501V118.752Z" fill="#231F20"/>
<path d="M68.75 106.25H75.0004L75.0005 100H68.7501L68.75 106.25Z" fill="#909FA3"/>
<path d="M68.7501 125H75.0005V118.75H68.7501V125Z" fill="white"/>
<path d="M75 137.499H81.2504V131.25L75.0005 131.25L75 137.499Z" fill="#231F20"/>
<path d="M81.2504 137.499H87.5004V131.25H81.2504V137.499Z" fill="#909FA3"/>
<path d="M62.5001 125H68.7489V118.75H62.5001V125Z" fill="#231F20"/>
<path d="M87.5004 137.499H93.7489V131.25H87.5004V137.499Z" fill="#231F20"/>
<path d="M75.0005 131.25L81.2504 131.25L81.2505 125H75.0005V131.25Z" fill="#231F20"/>
<path d="M131.25 43.7504L137.502 43.75L137.502 37.5H131.25V43.7504Z" fill="#909FA3"/>
<path d="M56.2501 62.5004H62.5001V56.25H56.2501V62.5004Z" fill="#909FA3"/>
<path d="M56.2501 37.5004L62.5 37.5L62.5005 31.25H56.2501V37.5004Z" fill="#BFC8CB"/>
<path d="M56.25 68.7504L62.5 68.75L62.5001 62.5004H56.2501L56.25 68.7504Z" fill="#909FA3"/>
<path d="M56.25 49.9989H62.5V43.7504L56.25 43.75V49.9989Z" fill="#909FA3"/>
<path d="M56.25 43.75L62.5 43.7504V37.5L56.2501 37.5004L56.25 43.75Z" fill="#909FA3"/>
<path d="M56.2501 56.25H62.5001V50H56.2501V56.25Z" fill="#909FA3"/>
<path d="M56.25 74.9989H62.5V68.75L56.25 68.7504V74.9989Z" fill="#909FA3"/>
<path d="M56.2539 93.7504H62.5028V87.5H56.2539V93.7504Z" fill="#231F20"/>
<path d="M56.2501 87.5004H62.5001V81.2504L56.2501 81.25V87.5004Z" fill="#BFC8CB"/>
<path d="M56.2501 81.25L62.5001 81.2504V75H56.2501V81.25Z" fill="#909FA3"/>
<path d="M112.5 37.5H118.75L118.75 31.25H112.5L112.5 37.5Z" fill="#909FA3"/>
<path d="M93.75 37.5H100L100 31.25H93.7501L93.75 37.5Z" fill="#909FA3"/>
<path d="M106.25 37.5H112.499L112.499 31.25H106.25L106.25 37.5Z" fill="#909FA3"/>
<path d="M100 37.5H106.25L106.25 31.25H100L100 37.5Z" fill="#909FA3"/>
<path d="M56.25 99.9989H62.5V93.7504L56.25 93.75V99.9989Z" fill="#231F20"/>
<path d="M81.25 37.5H87.5L87.5005 31.25H81.2501L81.25 37.5Z" fill="#909FA3"/>
<path d="M75 37.5H81.25L81.2501 31.25H75.0001L75 37.5Z" fill="#909FA3"/>
<path d="M118.75 37.5L124.999 37.5004V31.25H118.75L118.75 37.5Z" fill="#909FA3"/>
<path d="M87.5 37.5H93.7489L93.7489 31.25H87.5005L87.5 37.5Z" fill="#909FA3"/>
<path d="M62.5 37.5H68.7489L68.7489 31.25H62.5005L62.5 37.5Z" fill="#909FA3"/>
<path d="M68.75 37.5H75L75.0001 31.25H68.7501L68.75 37.5Z" fill="#909FA3"/>
<path d="M100 149.999H106.25V143.75H100V149.999Z" fill="#231F20"/>
<path d="M93.7501 149.999H100V143.75H93.7501V149.999Z" fill="#909FA3"/>
<path d="M87.5001 149.999H93.7489V143.75H87.5001V149.999Z" fill="#231F20"/>
<path d="M106.25 149.999H112.499V143.75H106.25V149.999Z" fill="#505B5E"/>
<path d="M75.0001 149.999H81.2505V143.75H75.0001V149.999Z" fill="#909FA3"/>
<path d="M81.2505 149.999H87.5001V143.75H81.2505V149.999Z" fill="#231F20"/>
<path d="M112.5 149.999H118.75V143.75H112.5V149.999Z" fill="#505B5E"/>
<path d="M125 149.999H131.249V143.75H125V149.999Z" fill="#6F7C80"/>
<path d="M131.25 149.999H137.502V143.75H131.25V149.999Z" fill="#909FA3"/>
<path d="M118.75 149.999H125V143.75H118.75V149.999Z" fill="#231F20"/>
<path d="M56.2501 125H62.5001V118.75H56.2501V125Z" fill="#231F20"/>
<path d="M56.2501 118.752H62.5001V112.5H56.2501V118.752Z" fill="#231F20"/>
<path d="M56.2501 131.25H62.5005L62.5001 125H56.2501V131.25Z" fill="#231F20"/>
<path d="M56.25 112.499H62.5V106.25H56.25V112.499Z" fill="#6F7C80"/>
<path d="M68.7501 149.999H75.0001V143.75H68.7501V149.999Z" fill="#231F20"/>
<path d="M56.25 137.499H62.5004L62.5005 131.25H56.2501L56.25 137.499Z" fill="white"/>
<path d="M56.25 106.25H62.5L62.5001 100H56.2501L56.25 106.25Z" fill="#6F7C80"/>
<path d="M62.5001 143.752H68.7489V137.5H62.5001V143.752Z" fill="#231F20"/>
<path d="M56.2501 143.752H62.5001V137.5H56.2501V143.752Z" fill="#231F20"/>
<path d="M150 143.752H156.249V137.5H150V143.752Z" fill="#6F7C80"/>
<path d="M112.5 143.752H118.75V137.5H112.5V143.752Z" fill="#231F20"/>
<path d="M131.25 143.752H137.502V137.5H131.25V143.752Z" fill="#909FA3"/>
<path d="M143.75 143.752H150V137.5H143.75V143.752Z" fill="#909FA3"/>
<path d="M118.75 143.752H125V137.5H118.75V143.752Z" fill="#6F7C80"/>
<path d="M125 143.752H131.249V137.5H125V143.752Z" fill="#909FA3"/>
<path d="M137.5 143.752H143.749V137.5H137.5V143.752Z" fill="#909FA3"/>
<path d="M162.5 143.752H168.751V137.5H162.5V143.752Z" fill="#505B5E"/>
<path d="M162.5 137.499H168.75V131.25L162.501 131.25L162.5 137.499Z" fill="#231F20"/>
<path d="M156.25 143.752H162.5V137.5H156.25V143.752Z" fill="#231F20"/>
<path d="M62.5005 131.25H68.7489V125H62.5001L62.5005 131.25Z" fill="white"/>
<path d="M162.501 131.25L168.75 131.25L168.751 125L162.501 125V131.25Z" fill="#6F7C80"/>
<path d="M75.0001 143.752H81.2505V137.5H75.0001V143.752Z" fill="#909FA3"/>
<path d="M68.75 137.499H75L75.0005 131.25H68.7501L68.75 137.499Z" fill="#231F20"/>
<path d="M68.7501 143.752H75.0001V137.5H68.7501V143.752Z" fill="#909FA3"/>
<path d="M62.5004 137.499H68.7489L68.7489 131.25H62.5005L62.5004 137.499Z" fill="white"/>
<path d="M106.25 143.752H112.499V137.5H106.25V143.752Z" fill="#505B5E"/>
<path d="M81.2505 143.752H87.5005V137.5H81.2505V143.752Z" fill="#231F20"/>
<path d="M100 143.752H106.25V137.5H100V143.752Z" fill="#231F20"/>
<path d="M93.7501 143.752H100V137.5H93.7501V143.752Z" fill="#231F20"/>
<path d="M87.5005 143.752H93.7489V137.5H87.5005V143.752Z" fill="white"/>
<path d="M125 37.5L131.249 37.5004V31.25H125L125 37.5Z" fill="#909FA3"/>
<path d="M162.5 43.7504H168.75V37.5H162.5V43.7504Z" fill="#A77A6E"/>
<path d="M156.25 37.5H162.5L162.501 31.25H156.25L156.25 37.5Z" fill="#A77A6E"/>
<path d="M162.5 37.5H168.75L168.751 31.25H162.501L162.5 37.5Z" fill="#A77A6E"/>
<path d="M162.501 56.25L168.751 56.2504V50H162.501V56.25Z" fill="#A77A6E"/>
<path d="M162.501 125L168.751 125V118.75H162.501V125Z" fill="#909FA3"/>
<path d="M131.249 37.5004L137.502 37.5L137.502 31.25H131.249V37.5004Z" fill="#909FA3"/>
<path d="M162.501 62.5004H168.751V56.2504L162.501 56.25V62.5004Z" fill="#A77A6E"/>
<path d="M137.5 37.5H143.749L143.749 31.25H137.5L137.5 37.5Z" fill="#BFC8CB"/>
<path d="M143.75 37.5H150L150.001 31.25H143.75L143.75 37.5Z" fill="#231F20"/>
<path d="M150 37.5H156.249L156.249 31.25H150.001L150 37.5Z" fill="#7B5950"/>
<path d="M162.5 49.9989H168.75V43.7504H162.5V49.9989Z" fill="#A77A6E"/>
<path d="M162.5 112.499H168.75V106.25H162.5V112.499Z" fill="#231F20"/>
<path d="M162.5 106.25H168.75L168.751 100H162.501L162.5 106.25Z" fill="#6F7C80"/>
<path d="M162.501 118.752H168.751V112.5H162.501V118.752Z" fill="#909FA3"/>
<path d="M162.5 68.7504H168.75L168.751 62.5004H162.501L162.5 68.7504Z" fill="#A77A6E"/>
<path d="M162.5 99.9989H168.75V93.75H162.5V99.9989Z" fill="#909FA3"/>
<path d="M162.5 74.9989H168.75V68.7504H162.5V74.9989Z" fill="#A77A6E"/>
<path d="M162.5 93.75H168.75V87.5H162.5V93.75Z" fill="#A77A6E"/>
<path d="M162.501 81.2504H168.751V75H162.501V81.2504Z" fill="#A77A6E"/>
<path d="M162.5 87.5H168.75L168.751 81.2504H162.501L162.5 87.5Z" fill="#7B5950"/>
<path d="M118.75 99.9989H125V93.75H118.75V99.9989Z" fill="#909FA3"/>
<path d="M87.5 68.7504H93.7489V62.5H87.5V68.7504Z" fill="#909FA3"/>
<path d="M87.5 74.9989H93.7489V68.7504H87.5V74.9989Z" fill="#909FA3"/>
<path d="M87.5 112.499H93.7489V106.25H87.5V112.499Z" fill="#909FA3"/>
<path d="M93.75 68.7504H100V62.5H93.75V68.7504Z" fill="#909FA3"/>
<path d="M100 68.7504H106.25V62.5H100V68.7504Z" fill="#909FA3"/>
<path d="M87.5001 81.2504H93.7489V75H87.5001V81.2504Z" fill="#909FA3"/>
<path d="M87.5001 87.5004H93.7489V81.2504H87.5001V87.5004Z" fill="#909FA3"/>
<path d="M87.5 99.9989H93.7489V93.75H87.5V99.9989Z" fill="#909FA3"/>
<path d="M87.5 106.25H93.7489L93.7489 100H87.5001L87.5 106.25Z" fill="#6F7C80"/>
<path d="M87.5 93.75H93.7489L93.7489 87.5004H87.5001L87.5 93.75Z" fill="#6F7C80"/>
<path d="M106.25 68.7504H112.499V62.5H106.25V68.7504Z" fill="#909FA3"/>
<path d="M131.25 87.5004H137.502V81.25H131.25V87.5004Z" fill="#6F7C80"/>
<path d="M112.5 68.7504H118.75V62.5H112.5V68.7504Z" fill="#909FA3"/>
<path d="M131.25 93.7503H137.502L137.502 87.5004H131.25L131.25 93.7503Z" fill="#231F20"/>
<path d="M131.25 106.25H137.502V100H131.25V106.25Z" fill="#505B5E"/>
<path d="M131.25 99.9989H137.502L137.502 93.7503H131.25L131.25 99.9989Z" fill="#231F20"/>
<path d="M131.25 81.25H137.502L137.502 75H131.25L131.25 81.25Z" fill="#909FA3"/>
<path d="M118.75 68.7504H125V62.5H118.75V68.7504Z" fill="#909FA3"/>
<path d="M125 68.7504H131.25V62.5H125V68.7504Z" fill="#909FA3"/>
<path d="M131.25 68.7504H137.502V62.5H131.25V68.7504Z" fill="#909FA3"/>
<path d="M131.25 75H137.502L137.502 68.7504H131.25L131.25 75Z" fill="#909FA3"/>
<path d="M137.5 99.9989H143.749V93.75H137.5V99.9989Z" fill="#231F20"/>
<path d="M137.5 87.5004H143.749V81.25H137.5V87.5004Z" fill="#231F20"/>
<path d="M137.5 81.25H143.749V75H137.5V81.25Z" fill="#6F7C80"/>
<path d="M137.5 93.75H143.749L143.749 87.5004H137.5L137.5 93.75Z" fill="#6F7C80"/>
<path d="M137.5 74.9989H143.749V68.75H137.5V74.9989Z" fill="#909FA3"/>
<path d="M131.25 112.499H137.502L137.502 106.25H131.25L131.25 112.499Z" fill="#505B5E"/>
<path d="M93.75 112.499H100V106.25H93.75V112.499Z" fill="#909FA3"/>
<path d="M150 56.2504H156.249V50H150V56.2504Z" fill="#BFC8CB"/>
<path d="M137.5 68.75H143.749V62.5H137.5V68.75Z" fill="#909FA3"/>
<path d="M131.25 62.5H137.502L137.502 56.25H131.25L131.25 62.5Z" fill="#909FA3"/>
<path d="M137.5 62.5H143.749L143.749 56.25H137.5L137.5 62.5Z" fill="#909FA3"/>
<path d="M125 62.5H131.25L131.25 56.25H125L125 62.5Z" fill="#909FA3"/>
<path d="M106.25 118.752H112.499V112.5H106.25V118.752Z" fill="#231F20"/>
<path d="M100 118.752H106.25V112.5H100V118.752Z" fill="#909FA3"/>
<path d="M93.7501 118.752H100V112.5H93.7501V118.752Z" fill="#909FA3"/>
<path d="M225 87.5H231.252L231.252 81.25H225L225 87.5Z" fill="#909FA3"/>
<path d="M137.5 112.499H143.749V106.25H137.5V112.499Z" fill="#6F7C80"/>
<path d="M131.25 118.752H137.502V112.5H131.25V118.752Z" fill="#6F7C80"/>
<path d="M137.5 118.752H143.749V112.5H137.5V118.752Z" fill="#6F7C80"/>
<path d="M125 118.752H131.249V112.5H125V118.752Z" fill="#505B5E"/>
<path d="M118.75 118.752H125V112.5H118.75V118.752Z" fill="#231F20"/>
<path d="M125 112.499H131.249V106.25H125V112.499Z" fill="#505B5E"/>
<path d="M100 93.7504H106.25V87.5H100V93.7504Z" fill="#909FA3"/>
<path d="M100 87.5H106.25L106.25 81.25H100L100 87.5Z" fill="#909FA3"/>
<path d="M118.75 62.5H125L125 56.25H118.75L118.75 62.5Z" fill="#909FA3"/>
<path d="M100 81.25H106.25V75H100V81.25Z" fill="#909FA3"/>
<path d="M100 99.9989H106.25V93.7504H100V99.9989Z" fill="#909FA3"/>
<path d="M112.5 81.2504H118.75V75H112.5V81.2504Z" fill="#231F20"/>
<path d="M118.75 106.25L125 106.25L125 100H118.75V106.25Z" fill="#6F7C80"/>
<path d="M125 106.25H131.249L131.25 100H125L125 106.25Z" fill="#231F20"/>
<path d="M112.5 106.25H118.75V100H112.5V106.25Z" fill="#909FA3"/>
<path d="M106.25 106.25H112.499V100H106.25V106.25Z" fill="#909FA3"/>
<path d="M106.25 99.9989H112.499V93.75L106.25 93.7504V99.9989Z" fill="#909FA3"/>
<path d="M112.5 93.7504L118.75 93.75L118.75 87.5H112.5V93.7504Z" fill="#909FA3"/>
<path d="M106.25 93.7504L112.499 93.75V87.5H106.25V93.7504Z" fill="#909FA3"/>
<path d="M106.25 87.5H112.499L112.499 81.25H106.25L106.25 87.5Z" fill="#909FA3"/>
<path d="M112.5 87.5H118.75L118.75 81.2504H112.5L112.5 87.5Z" fill="#BFC8CB"/>
<path d="M118.75 81.2504H125V75H118.75V81.2504Z" fill="#909FA3"/>
<path d="M118.75 93.75H125V87.5H118.75L118.75 93.75Z" fill="#909FA3"/>
<path d="M112.5 99.9989H118.75V93.75L112.5 93.7504V99.9989Z" fill="#909FA3"/>
<path d="M118.75 87.5H125L125 81.2504H118.75L118.75 87.5Z" fill="#BFC8CB"/>
<path d="M137.5 149.999H143.749V143.75H137.5V149.999Z" fill="#909FA3"/>
<path d="M106.25 81.25H112.499V75H106.25V81.25Z" fill="#909FA3"/>
<path d="M93.75 99.9989H100V93.7504L93.75 93.75V99.9989Z" fill="#909FA3"/>
<path d="M100 106.25L106.25 106.25V100H100L100 106.25Z" fill="#909FA3"/>
<path d="M93.75 106.25H100L100 100H93.7501L93.75 106.25Z" fill="#6F7C80"/>
<path d="M93.75 93.75L100 93.7504V87.5H93.75V93.75Z" fill="#6F7C80"/>
<path d="M93.75 87.5H100L100 81.25H93.7501L93.75 87.5Z" fill="#909FA3"/>
<path d="M100 112.499H106.25L106.25 106.25L100 106.25V112.499Z" fill="#909FA3"/>
<path d="M112.5 112.499H118.75L118.75 106.25H112.5L112.5 112.499Z" fill="#6F7C80"/>
<path d="M118.75 112.499H125V106.25L118.75 106.25L118.75 112.499Z" fill="#231F20"/>
<path d="M93.7501 81.25H100V75H93.7501V81.25Z" fill="#909FA3"/>
<path d="M106.25 112.499H112.499L112.499 106.25H106.25L106.25 112.499Z" fill="#909FA3"/>
<path d="M112.5 74.9989H118.75V68.7504H112.5V74.9989Z" fill="#231F20"/>
<path d="M125 74.9989H131.25V68.7504H125L125 74.9989Z" fill="#909FA3"/>
<path d="M125 87.5L131.249 87.5004V81.25L125 81.2504L125 87.5Z" fill="#909FA3"/>
<path d="M125 81.2504L131.249 81.25L131.25 75H125V81.2504Z" fill="#909FA3"/>
<path d="M125 93.75L131.25 93.7503L131.249 87.5004L125 87.5V93.75Z" fill="#909FA3"/>
<path d="M106.25 74.9989H112.499V68.7504H106.25L106.25 74.9989Z" fill="#909FA3"/>
<path d="M100 74.9989H106.25L106.25 68.7504H100L100 74.9989Z" fill="#909FA3"/>
<path d="M93.75 74.9989H100L100 68.7504H93.75V74.9989Z" fill="#909FA3"/>
<path d="M118.75 74.9989H125L125 68.7504H118.75V74.9989Z" fill="#909FA3"/>
<path d="M125 99.9989H131.249V93.75H125V99.9989Z" fill="#6F7C80"/>
<path d="M137.5 106.25H143.749L143.749 100H137.5L137.5 106.25Z" fill="#505B5E"/>
<path d="M75.0004 112.499H81.2504V106.25H75.0004V112.499Z" fill="#909FA3"/>
<path d="M75.0004 106.25H81.2504L81.2505 100H75.0005L75.0004 106.25Z" fill="#6F7C80"/>
<path d="M75.0005 118.752H81.2505V112.5H75.0005V118.752Z" fill="#909FA3"/>
<path d="M75.0004 99.9989H81.2504V93.75L75.0004 93.7504V99.9989Z" fill="#909FA3"/>
<path d="M75.0004 93.7504L81.2504 93.75V87.5L75.0005 87.5004L75.0004 93.7504Z" fill="#909FA3"/>
<path d="M81.2504 131.25H87.5004L87.5005 125H81.2505L81.2504 131.25Z" fill="#6F7C80"/>
<path d="M75.0005 125H81.2505V118.75H75.0005V125Z" fill="#231F20"/>
<path d="M75.0005 87.5004L81.2504 87.5L81.2505 81.25H75.0005V87.5004Z" fill="#909FA3"/>
<path d="M87.5004 131.25H93.7489L93.7489 125H87.5005L87.5004 131.25Z" fill="#6F7C80"/>
<path d="M81.2505 125H87.5005V118.75H81.2505V125Z" fill="#909FA3"/>
<path d="M87.5001 56.2504H93.7489V50H87.5001V56.2504Z" fill="#909FA3"/>
<path d="M93.75 131.25H100L100 125H93.7501L93.75 131.25Z" fill="#231F20"/>
<path d="M93.7501 56.2504H100V50H93.7501V56.2504Z" fill="#909FA3"/>
<path d="M100 56.2504H106.25V50H100V56.2504Z" fill="#909FA3"/>
<path d="M81.2501 56.2504H87.5001V50H81.2501V56.2504Z" fill="#909FA3"/>
<path d="M75.0005 62.5004H81.2505L81.2501 56.2504H75.0005V62.5004Z" fill="#909FA3"/>
<path d="M75.0005 56.2504H81.2501V50H75.0005V56.2504Z" fill="#909FA3"/>
<path d="M75.0004 68.75L81.2504 68.7504L81.2505 62.5004H75.0005L75.0004 68.75Z" fill="#909FA3"/>
<path d="M75.0004 74.9989H81.2504V68.7504L75.0004 68.75V74.9989Z" fill="#909FA3"/>
<path d="M75.0005 81.25H81.2505V75H75.0005V81.25Z" fill="#909FA3"/>
<path d="M100 131.25H106.25L106.25 125H100L100 131.25Z" fill="white"/>
<path d="M150 93.7504H156.249V87.5H150V93.7504Z" fill="#A77A6E"/>
<path d="M150 87.5H156.249L156.249 81.25H150L150 87.5Z" fill="#A77A6E"/>
<path d="M150 99.9989H156.249V93.7504H150V99.9989Z" fill="#909FA3"/>
<path d="M150 106.25H156.249V100H150V106.25Z" fill="#6F7C80"/>
<path d="M106.25 56.2504H112.499V50H106.25V56.2504Z" fill="#909FA3"/>
<path d="M150 74.9989H156.249V68.75H150V74.9989Z" fill="#231F20"/>
<path d="M150 81.25H156.249V75H150V81.25Z" fill="#A77A6E"/>
<path d="M150 68.75H156.249V62.5H150V68.75Z" fill="#909FA3"/>
<path d="M150 62.5H156.249L156.249 56.2504H150L150 62.5Z" fill="#909FA3"/>
<path d="M150 118.752H156.249V112.5H150V118.752Z" fill="#909FA3"/>
<path d="M150 112.499H156.249L156.249 106.25H150L150 112.499Z" fill="#231F20"/>
<path d="M118.75 131.25H125L125 125H118.75L118.75 131.25Z" fill="#505B5E"/>
<path d="M112.5 131.25H118.75L118.75 125H112.5L112.5 131.25Z" fill="#231F20"/>
<path d="M125 131.25H131.249L131.249 125H125L125 131.25Z" fill="#6F7C80"/>
<path d="M150 125H156.249V118.75H150V125Z" fill="#909FA3"/>
<path d="M106.25 131.25H112.499L112.499 125H106.25L106.25 131.25Z" fill="white"/>
<path d="M143.75 131.25H150L150 125L143.75 125L143.75 131.25Z" fill="#909FA3"/>
<path d="M150 131.25H156.249L156.249 125H150L150 131.25Z" fill="#909FA3"/>
<path d="M131.25 131.25L137.502 131.25L137.502 125H131.25V131.25Z" fill="#909FA3"/>
<path d="M137.5 131.25H143.749L143.749 125H137.5L137.5 131.25Z" fill="#909FA3"/>
<path d="M81.2504 112.499H87.5V106.25H81.2504V112.499Z" fill="#909FA3"/>
<path d="M87.5001 118.752H93.7489V112.5H87.5001V118.752Z" fill="#6F7C80"/>
<path d="M112.5 56.2504L118.75 56.25L118.75 50H112.5V56.2504Z" fill="#909FA3"/>
<path d="M112.5 62.5H118.75L118.75 56.25L112.5 56.2504L112.5 62.5Z" fill="#909FA3"/>
<path d="M81.2504 106.25H87.5L87.5001 100H81.2505L81.2504 106.25Z" fill="#6F7C80"/>
<path d="M81.2504 99.9989H87.5V93.75H81.2504V99.9989Z" fill="#909FA3"/>
<path d="M93.7501 125H100V118.75H93.7501V125Z" fill="#909FA3"/>
<path d="M100 125H106.25V118.75H100V125Z" fill="#231F20"/>
<path d="M106.25 125H112.499V118.75H106.25V125Z" fill="white"/>
<path d="M87.5005 125H93.7489V118.75H87.5005V125Z" fill="#909FA3"/>
<path d="M81.2504 93.75H87.5L87.5001 87.5004L81.2504 87.5V93.75Z" fill="#6F7C80"/>
<path d="M81.2505 81.25L87.5001 81.2504V75H81.2505V81.25Z" fill="#909FA3"/>
<path d="M81.2504 87.5L87.5001 87.5004V81.2504L81.2505 81.25L81.2504 87.5Z" fill="#909FA3"/>
<path d="M93.75 62.5H100L100 56.2504H93.7501L93.75 62.5Z" fill="#909FA3"/>
<path d="M100 62.5H106.25L106.25 56.2504H100L100 62.5Z" fill="#909FA3"/>
<path d="M106.25 62.5H112.499L112.499 56.2504H106.25L106.25 62.5Z" fill="#909FA3"/>
<path d="M87.5 62.5H93.7489L93.7489 56.2504H87.5001L87.5 62.5Z" fill="#909FA3"/>
<path d="M81.2504 74.9989H87.5V68.7504H81.2504V74.9989Z" fill="#909FA3"/>
<path d="M112.5 125H118.75L118.75 118.75H112.5V125Z" fill="white"/>
<path d="M81.2505 62.5004L87.5 62.5L87.5001 56.2504H81.2501L81.2505 62.5004Z" fill="#909FA3"/>
<path d="M81.2504 68.7504H87.5V62.5L81.2505 62.5004L81.2504 68.7504Z" fill="#909FA3"/>
<path d="M81.2505 118.752H87.5001V112.5H81.2505V118.752Z" fill="#6F7C80"/>
<path d="M143.75 68.7504L150 68.75V62.5H143.75V68.7504Z" fill="#909FA3"/>
<path d="M143.75 62.5H150L150 56.2504L143.75 56.25L143.75 62.5Z" fill="#909FA3"/>
<path d="M143.75 81.2504L150 81.25V75H143.75V81.2504Z" fill="#231F20"/>
<path d="M143.75 74.9989H150V68.75L143.75 68.7504V74.9989Z" fill="#6F7C80"/>
<path d="M143.75 56.25L150 56.2504V50H143.75V56.25Z" fill="#909FA3"/>
<path d="M118.75 125H125V118.75H118.75L118.75 125Z" fill="#231F20"/>
<path d="M118.75 56.25H125L125 50H118.75L118.75 56.25Z" fill="#909FA3"/>
<path d="M125 56.25H131.25L131.251 50H125L125 56.25Z" fill="#909FA3"/>
<path d="M137.5 56.25H143.749V50H137.5V56.25Z" fill="#909FA3"/>
<path d="M131.25 56.2485H137.502L137.502 49.9988L131.25 49.9989L131.25 56.2485Z" fill="#909FA3"/>
<path d="M143.75 87.5004L150 87.5L150 81.25L143.75 81.2504V87.5004Z" fill="#A77A6E"/>
<path d="M137.5 125H143.749V118.75H137.5V125Z" fill="#909FA3"/>
<path d="M131.25 124.998H137.502V118.748H131.25V124.998Z" fill="#6F7C80"/>
<path d="M143.75 125L150 125V118.75H143.75V125Z" fill="#909FA3"/>
<path d="M143.75 93.7504H150V87.5L143.75 87.5004L143.75 93.7504Z" fill="#909FA3"/>
<path d="M125 125H131.249V118.75H125V125Z" fill="#6F7C80"/>
<path d="M143.75 106.25H150V100H143.75V106.25Z" fill="#231F20"/>
<path d="M143.75 118.752H150V112.5H143.75V118.752Z" fill="#909FA3"/>
<path d="M143.75 99.9989H150V93.7504H143.75V99.9989Z" fill="#6F7C80"/>
<path d="M143.75 112.499H150L150 106.25H143.75L143.75 112.499Z" fill="#6F7C80"/>
<path d="M131.25 168.75L137.502 168.75L137.502 162.5H131.25V168.75Z" fill="#909FA3"/>
<path d="M37.5 99.9989H43.7489V93.75H37.5V99.9989Z" fill="#909FA3"/>
<path d="M37.5001 87.5004H43.7489V81.25H37.5001V87.5004Z" fill="#A77A6E"/>
<path d="M37.5001 81.25H43.7489V75H37.5001V81.25Z" fill="#A77A6E"/>
<path d="M37.5 74.9989H43.7489V68.75H37.5V74.9989Z" fill="#231F20"/>
<path d="M37.5 68.75L43.7504 68.7504V62.5H37.5V68.75Z" fill="#231F20"/>
<path d="M37.5001 106.25H43.7489V100H37.5001V106.25Z" fill="#6F7C80"/>
<path d="M37.5 112.499H43.7489L43.7489 106.25H37.5001L37.5 112.499Z" fill="#231F20"/>
<path d="M37.5 93.75H43.7489L43.7489 87.5004H37.5001L37.5 93.75Z" fill="#909FA3"/>
<path d="M37.5001 18.7504H43.7489V12.5H37.5001V18.7504Z" fill="#909FA3"/>
<path d="M37.5 24.9989H43.7489L43.7489 18.7504H37.5001L37.5 24.9989Z" fill="#231F20"/>
<path d="M43.7501 18.7504H50.0005V12.5H43.7501V18.7504Z" fill="#909FA3"/>
<path d="M50.0005 18.7504H56.2505V12.5H50.0005V18.7504Z" fill="#909FA3"/>
<path d="M37.5 62.5H43.7504L43.7505 56.25H37.5001L37.5 62.5Z" fill="#231F20"/>
<path d="M37.5001 56.25H43.7505V50H37.5001V56.25Z" fill="#231F20"/>
<path d="M37.5 49.9989H43.7504V43.75H37.5V49.9989Z" fill="#A77A6E"/>
<path d="M37.5001 37.5004H43.7489V31.25H37.5001V37.5004Z" fill="#A77A6E"/>
<path d="M37.5 43.75L43.7489 43.7504L43.7489 37.5004H37.5001L37.5 43.75Z" fill="#A77A6E"/>
<path d="M87.5001 168.75H93.7489L93.7489 162.5H87.5L87.5001 168.75Z" fill="#909FA3"/>
<path d="M75.0001 168.75H81.2501L81.2504 162.5H75L75.0001 168.75Z" fill="#909FA3"/>
<path d="M68.7501 168.75H75.0001L75 162.5H68.75L68.7501 168.75Z" fill="#231F20"/>
<path d="M81.2501 168.75H87.5001L87.5 162.5H81.2504L81.2501 168.75Z" fill="#231F20"/>
<path d="M100 168.75H106.25L106.25 162.5H100L100 168.75Z" fill="#6F7C80"/>
<path d="M106.25 168.75H112.499L112.499 162.5H106.25L106.25 168.75Z" fill="#231F20"/>
<path d="M125 168.75H131.249L131.249 162.5H125L125 168.75Z" fill="#231F20"/>
<path d="M93.7501 168.75H100L100 162.5H93.75L93.7501 168.75Z" fill="#909FA3"/>
<path d="M56.254 18.7504H62.5028V12.5H56.254V18.7504Z" fill="#BFC8CB"/>
<path d="M37.5 31.2489H43.7489V25H37.5V31.2489Z" fill="#7B5950"/>
<path d="M181.25 62.5004H187.499V56.25H181.25V62.5004Z" fill="#A77A6E"/>
<path d="M181.25 68.7504H187.499L187.499 62.5004H181.25L181.25 68.7504Z" fill="#A77A6E"/>
<path d="M181.25 74.9989H187.499V68.7504H181.25V74.9989Z" fill="#231F20"/>
<path d="M181.25 93.7504H187.499V87.5H181.25V93.7504Z" fill="#231F20"/>
<path d="M181.25 81.2504H187.499V75H181.25V81.2504Z" fill="#909FA3"/>
<path d="M181.25 87.5H187.499L187.499 81.2504H181.25L181.25 87.5Z" fill="#6F7C80"/>
<path d="M181.25 43.7504H187.499V37.5H181.25V43.7504Z" fill="#231F20"/>
<path d="M181.25 37.5H187.499L187.499 31.25H181.25L181.25 37.5Z" fill="#909FA3"/>
<path d="M181.25 31.2489H187.499V25H181.25V31.2489Z" fill="#BFC8CB"/>
<path d="M181.25 56.25H187.499V50H181.25V56.25Z" fill="#7B5950"/>
<path d="M181.25 49.9989H187.499V43.7504H181.25V49.9989Z" fill="#231F20"/>
<path d="M181.25 143.752H187.499V137.5H181.25V143.752Z" fill="#6F7C80"/>
<path d="M181.25 137.499H187.499V131.25H181.25V137.499Z" fill="#6F7C80"/>
<path d="M181.25 131.25H187.499L187.499 125H181.25L181.25 131.25Z" fill="#909FA3"/>
<path d="M181.25 149.999H187.499V143.75H181.25V149.999Z" fill="#505B5E"/>
<path d="M143.75 149.999H150.001V143.75H143.75V149.999Z" fill="#909FA3"/>
<path d="M181.25 106.25H187.499V100H181.25V106.25Z" fill="#909FA3"/>
<path d="M181.25 112.499H187.499L187.499 106.25H181.25L181.25 112.499Z" fill="#909FA3"/>
<path d="M181.25 125H187.499V118.75H181.25V125Z" fill="#909FA3"/>
<path d="M181.25 99.9989H187.499V93.7504H181.25V99.9989Z" fill="#909FA3"/>
<path d="M137.5 18.7504H143.749V12.5H137.5V18.7504Z" fill="#BFC8CB"/>
<path d="M93.7501 18.7504H100V12.5H93.7501V18.7504Z" fill="#BFC8CB"/>
<path d="M125 18.7504H131.249V12.5H125V18.7504Z" fill="#BFC8CB"/>
<path d="M100 18.7504H106.25V12.5H100V18.7504Z" fill="#BFC8CB"/>
<path d="M112.5 18.7504H118.75V12.5H112.5V18.7504Z" fill="#BFC8CB"/>
<path d="M118.75 18.7504H125V12.5H118.75V18.7504Z" fill="#BFC8CB"/>
<path d="M106.25 18.7504H112.5V12.5H106.25V18.7504Z" fill="#BFC8CB"/>
<path d="M75.0001 18.7504H81.2505V12.5H75.0001V18.7504Z" fill="#BFC8CB"/>
<path d="M181.25 24.9989H187.499V18.75H181.25V24.9989Z" fill="#231F20"/>
<path d="M87.5001 18.7504H93.7489V12.5H87.5001V18.7504Z" fill="#BFC8CB"/>
<path d="M81.2505 18.7504H87.5001V12.5H81.2505V18.7504Z" fill="#BFC8CB"/>
<path d="M68.7501 18.7504H75.0001V12.5H68.7501V18.7504Z" fill="#BFC8CB"/>
<path d="M131.25 18.7504H137.502V12.5H131.25V18.7504Z" fill="#231F20"/>
<path d="M175 18.7504H181.252V12.5H175V18.7504Z" fill="#231F20"/>
<path d="M181.25 18.75H187.499L187.499 12.5H181.25L181.25 18.75Z" fill="#BFC8CB"/>
<path d="M162.5 18.7504H168.751V12.5H162.5V18.7504Z" fill="#909FA3"/>
<path d="M168.751 18.7504H174.999V12.5H168.751V18.7504Z" fill="#BFC8CB"/>
<path d="M156.25 18.7504H162.5V12.5H156.25V18.7504Z" fill="#909FA3"/>
<path d="M62.5001 18.7504H68.7501V12.5H62.5001V18.7504Z" fill="#231F20"/>
<path d="M143.75 18.7504H150.001V12.5H143.75V18.7504Z" fill="#909FA3"/>
<path d="M150.001 18.7504H156.249V12.5H150.001V18.7504Z" fill="#909FA3"/>
<path d="M50.0005 12.5H56.2505V6.25H50.0001L50.0005 12.5Z" fill="#BFC8CB"/>
<path d="M43.75 12.4985H50.0004L50.0004 6.24888H43.7499L43.75 12.4985Z" fill="#BFC8CB"/>
<path d="M37.5001 12.5H43.7489V6.25H37.5001V12.5Z" fill="#BFC8CB"/>
<path d="M56.2505 12.5H62.5001L62.5005 6.25H56.2505V12.5Z" fill="#231F20"/>
<path d="M31.2502 31.2491L37.5 31.2489V25L31.2502 25.0002V31.2491Z" fill="#231F20"/>
<path d="M31.2502 24.9986L37.5 24.9989L37.5001 18.7504H31.2505L31.2502 24.9986Z" fill="#909FA3"/>
<path d="M137.5 168.75H143.749L143.749 162.5H137.5L137.5 168.75Z" fill="#6F7C80"/>
<path d="M31.2505 12.5H37.5001V6.25H31.2501L31.2505 12.5Z" fill="#231F20"/>
<path d="M31.2505 18.7504H37.5001V12.5H31.2505V18.7504Z" fill="#BFC8CB"/>
<path d="M31.2503 37.5004H37.5001V31.25L31.2502 31.2491L31.2503 37.5004Z" fill="#7B5950"/>
<path d="M106.25 12.5L112.499 12.5004V6.25H106.25L106.25 12.5Z" fill="#BFC8CB"/>
<path d="M112.5 12.5H118.75V6.25H112.5V12.5Z" fill="#BFC8CB"/>
<path d="M118.75 12.5H125L125 6.25H118.75V12.5Z" fill="#BFC8CB"/>
<path d="M125 12.5H131.249V6.25H125L125 12.5Z" fill="#231F20"/>
<path d="M100.004 12.5004H106.253V6.25H100.004V12.5004Z" fill="#BFC8CB"/>
<path d="M75.0001 12.5H81.2505V6.25H75.0001V12.5Z" fill="#231F20"/>
<path d="M81.2505 12.5H87.5001L87.5005 6.25H81.2505V12.5Z" fill="#BFC8CB"/>
<path d="M87.5001 12.5H93.7501L93.7505 6.25H87.5005L87.5001 12.5Z" fill="#BFC8CB"/>
<path d="M93.7501 12.5H100V6.25H93.7505L93.7501 12.5Z" fill="#BFC8CB"/>
<path d="M181.25 156.25H187.499V150H181.25V156.25Z" fill="#231F20"/>
<path d="M31.2501 106.25H37.5001V100H31.2501V106.25Z" fill="#231F20"/>
<path d="M31.2502 43.75L37.5 43.75L37.5001 37.5004H31.2503L31.2502 43.75Z" fill="#A77A6E"/>
<path d="M31.2504 68.7504L37.5 68.75V62.5L31.2505 62.5004L31.2504 68.7504Z" fill="#A77A6E"/>
<path d="M31.2505 62.5004L37.5 62.5L37.5001 56.25H31.2505V62.5004Z" fill="#A77A6E"/>
<path d="M31.2505 56.25H37.5001V50H31.2501L31.2505 56.25Z" fill="#A77A6E"/>
<path d="M31.2502 49.9988L37.5 49.9989V43.75L31.2502 43.75V49.9988Z" fill="#A77A6E"/>
<path d="M31.25 74.9989H37.5V68.75L31.2504 68.7504L31.25 74.9989Z" fill="#A77A6E"/>
<path d="M31.2505 87.5004H37.5001V81.25L31.2503 81.2504L31.2505 87.5004Z" fill="#A77A6E"/>
<path d="M31.2504 99.9989H37.5V93.75H31.2504V99.9989Z" fill="#6F7C80"/>
<path d="M31.2504 93.75H37.5L37.5001 87.5004H31.2505L31.2504 93.75Z" fill="#909FA3"/>
<path d="M31.2503 81.2504L37.5001 81.25V75H31.2503V81.2504Z" fill="#A77A6E"/>
<path d="M68.754 12.5004H75.0044V6.25H68.754V12.5004Z" fill="#231F20"/>
<path d="M187.5 131.25L193.75 131.25L193.75 125L187.5 125V131.25Z" fill="#909FA3"/>
<path d="M187.5 125L193.75 125V118.75H187.5V125Z" fill="#909FA3"/>
<path d="M187.5 137.499H193.75V131.25L187.5 131.25L187.5 137.499Z" fill="#6F7C80"/>
<path d="M187.5 149.999H193.75V143.75H187.5V149.999Z" fill="#505B5E"/>
<path d="M187.5 143.752H193.75V137.5H187.5V143.752Z" fill="#6F7C80"/>
<path d="M187.5 156.25L193.75 156.25V150H187.5V156.25Z" fill="#231F20"/>
<path d="M187.5 93.7504H193.75L193.75 87.5004L187.5 87.5V93.7504Z" fill="#909FA3"/>
<path d="M187.5 106.25H193.75V100H187.5V106.25Z" fill="#909FA3"/>
<path d="M187.5 118.752H193.75V112.5H187.5V118.752Z" fill="#909FA3"/>
<path d="M187.5 112.499H193.75L193.75 106.25H187.5L187.5 112.499Z" fill="#909FA3"/>
<path d="M187.5 99.9989H193.75V93.7504H187.5V99.9989Z" fill="#909FA3"/>
<path d="M162.501 168.75L168.75 168.75V162.5H162.5L162.501 168.75Z" fill="#505B5E"/>
<path d="M150.001 168.75H156.249L156.249 162.5H150L150.001 168.75Z" fill="#6F7C80"/>
<path d="M156.25 168.75H162.501L162.5 162.5H156.25L156.25 168.75Z" fill="#231F20"/>
<path d="M187.5 162.5L193.75 162.5V156.25L187.5 156.25V162.5Z" fill="#231F20"/>
<path d="M143.75 168.75H150.001L150 162.5H143.75L143.75 168.75Z" fill="#909FA3"/>
<path d="M137.5 12.5H143.749V6.25H137.5V12.5Z" fill="#231F20"/>
<path d="M187.5 168.75H193.75V162.5L187.5 162.5V168.75Z" fill="#231F20"/>
<path d="M175 168.75H181.252L181.252 162.5H175L175 168.75Z" fill="#231F20"/>
<path d="M168.75 168.75H174.999V162.5H168.75V168.75Z" fill="#505B5E"/>
<path d="M187.5 24.9989H193.75V18.75H187.5V24.9989Z" fill="#909FA3"/>
<path d="M181.25 12.5H187.499V6.25H181.25V12.5Z" fill="#231F20"/>
<path d="M187.5 18.75H193.75L193.75 12.5H187.5L187.5 18.75Z" fill="#BFC8CB"/>
<path d="M187.5 12.5H193.75V6.25H187.5V12.5Z" fill="#231F20"/>
<path d="M168.751 12.5H174.999V6.25H168.75L168.751 12.5Z" fill="#231F20"/>
<path d="M175 12.4985H181.252V6.24805H175V12.4985Z" fill="#231F20"/>
<path d="M162.5 12.5H168.751L168.75 6.25H162.5V12.5Z" fill="#BFC8CB"/>
<path d="M150.001 12.5H156.249V6.25H150L150.001 12.5Z" fill="#BFC8CB"/>
<path d="M143.75 12.5H150.001L150 6.25H143.75V12.5Z" fill="#BFC8CB"/>
<path d="M156.25 12.5H162.5V6.25H156.25V12.5Z" fill="#BFC8CB"/>
<path d="M187.5 87.5L193.75 87.5004V81.25H187.5L187.5 87.5Z" fill="#231F20"/>
<path d="M187.5 31.2489H193.75V25H187.5V31.2489Z" fill="#231F20"/>
<path d="M187.5 74.9989H193.75V68.7504L187.5 68.75V74.9989Z" fill="#909FA3"/>
<path d="M187.5 62.5004L193.75 62.5L193.75 56.2504L187.5 56.25V62.5004Z" fill="#231F20"/>
<path d="M187.5 81.25H193.75V75H187.5V81.25Z" fill="#6F7C80"/>
<path d="M187.5 68.75L193.75 68.7504V62.5L187.5 62.5004L187.5 68.75Z" fill="#231F20"/>
<path d="M187.5 37.5004L193.75 37.5L193.75 31.25H187.5V37.5004Z" fill="#231F20"/>
<path d="M187.5 43.7504L193.75 43.75V37.5L187.5 37.5004L187.5 43.7504Z" fill="#BFC8CB"/>
<path d="M187.5 49.9989H193.75V43.75L187.5 43.7504V49.9989Z" fill="#909FA3"/>
<path d="M187.5 56.25L193.75 56.2504V50H187.5V56.25Z" fill="#231F20"/>
<path d="M181.25 118.752H187.499V112.5H181.25V118.752Z" fill="#909FA3"/>
<path d="M50 99.9989H56.25V93.75H50V99.9989Z" fill="#6F7C80"/>
<path d="M50 112.499H56.25V106.25H50V112.499Z" fill="#231F20"/>
<path d="M50 106.25H56.25L56.2501 100H50.0001L50 106.25Z" fill="#231F20"/>
<path d="M50 137.499H56.25L56.2501 131.25L50 131.25V137.499Z" fill="#231F20"/>
<path d="M50.0001 143.752H56.2501V137.5H50.0001V143.752Z" fill="white"/>
<path d="M50.0001 149.999H56.2505V143.75H50.0001V149.999Z" fill="#231F20"/>
<path d="M50.0001 56.2504L56.2501 56.25V50H50.0001V56.2504Z" fill="#909FA3"/>
<path d="M50 49.9989H56.25V43.75H50V49.9989Z" fill="#BFC8CB"/>
<path d="M50.0001 62.5004H56.2501V56.25L50.0001 56.2504V62.5004Z" fill="#909FA3"/>
<path d="M50.0001 37.5004H56.2501V31.25H50.0001V37.5004Z" fill="#231F20"/>
<path d="M50 43.75H56.25L56.2501 37.5004H50.0001L50 43.75Z" fill="#BFC8CB"/>
<path d="M50.0001 87.5004H56.2501V81.25H50.0001V87.5004Z" fill="#231F20"/>
<path d="M50.0001 81.25H56.2501V75H50.0001V81.25Z" fill="#909FA3"/>
<path d="M50 68.7504H56.25L56.2501 62.5004H50.0001L50 68.7504Z" fill="#909FA3"/>
<path d="M50 93.75H56.25L56.2501 87.5004H50.0001L50 93.75Z" fill="#A77A6E"/>
<path d="M50 74.9989H56.25V68.7504H50V74.9989Z" fill="#909FA3"/>
<path d="M150 156.25H156.249V150H150V156.25Z" fill="#6F7C80"/>
<path d="M143.75 156.25H150V150H143.75V156.25Z" fill="#909FA3"/>
<path d="M137.5 156.25H143.749V150H137.5V156.25Z" fill="#909FA3"/>
<path d="M156.25 156.25H162.5V150H156.25V156.25Z" fill="#231F20"/>
<path d="M131.25 156.25H137.502V150H131.25V156.25Z" fill="#909FA3"/>
<path d="M50 31.2489H56.2504V25H50V31.2489Z" fill="#231F20"/>
<path d="M175 149.999H181.252V143.75H175V149.999Z" fill="#505B5E"/>
<path d="M125 156.25H131.249V150H125V156.25Z" fill="#231F20"/>
<path d="M175 156.25H181.252V150H175V156.25Z" fill="#231F20"/>
<path d="M168.75 156.25H174.999V150H168.75V156.25Z" fill="#231F20"/>
<path d="M162.5 156.25H168.75V150H162.5V156.25Z" fill="#231F20"/>
<path d="M81.25 156.25H87.5004V150H81.25V156.25Z" fill="#231F20"/>
<path d="M75 156.25H81.25V150H75V156.25Z" fill="#909FA3"/>
<path d="M68.75 156.25H75V150H68.75V156.25Z" fill="#231F20"/>
<path d="M87.5004 156.25H93.7489V150H87.5004V156.25Z" fill="#909FA3"/>
<path d="M100 156.25H106.25V150H100V156.25Z" fill="#231F20"/>
<path d="M106.25 156.25H112.499V150H106.25V156.25Z" fill="#231F20"/>
<path d="M112.5 156.25H118.75V150H112.5V156.25Z" fill="#231F20"/>
<path d="M93.75 156.25H100V150H93.75V156.25Z" fill="#909FA3"/>
<path d="M118.75 156.25H125V150H118.75V156.25Z" fill="#231F20"/>
<path d="M168.751 81.2504H174.999V75H168.751V81.2504Z" fill="#A77A6E"/>
<path d="M175 143.752H181.252V137.5H175V143.752Z" fill="#6F7C80"/>
<path d="M168.75 93.75L174.999 93.7504V87.5H168.75V93.75Z" fill="#909FA3"/>
<path d="M56.2504 31.2489H62.5004V25H56.2504V31.2489Z" fill="#BFC8CB"/>
<path d="M168.75 99.9989H174.999V93.7504L168.75 93.75V99.9989Z" fill="#909FA3"/>
<path d="M168.75 112.499H174.999V106.25H168.75V112.499Z" fill="#909FA3"/>
<path d="M168.75 106.25H174.999L174.999 100H168.751L168.75 106.25Z" fill="#231F20"/>
<path d="M168.751 56.2504H174.999V50H168.751V56.2504Z" fill="#A77A6E"/>
<path d="M168.75 74.9989H174.999V68.75L168.75 68.7504V74.9989Z" fill="#A77A6E"/>
<path d="M168.751 62.5004H174.999V56.2504H168.751V62.5004Z" fill="#A77A6E"/>
<path d="M168.75 49.9989H174.999V43.75L168.75 43.7504V49.9989Z" fill="#A77A6E"/>
<path d="M168.75 68.7504L174.999 68.75L174.999 62.5004H168.751L168.75 68.7504Z" fill="#A77A6E"/>
<path d="M162.5 149.999H168.751V143.75H162.5V149.999Z" fill="#505B5E"/>
<path d="M156.25 149.999H162.5V143.75H156.25V149.999Z" fill="#231F20"/>
<path d="M168.751 149.999H174.999V143.75H168.751V149.999Z" fill="#505B5E"/>
<path d="M150.001 149.999H156.249V143.75H150.001V149.999Z" fill="#6F7C80"/>
<path d="M168.751 125L174.999 125V118.75H168.751V125Z" fill="#6F7C80"/>
<path d="M168.75 131.25L174.999 131.25V125L168.751 125L168.75 131.25Z" fill="#6F7C80"/>
<path d="M168.751 143.752H174.999V137.5H168.751V143.752Z" fill="#505B5E"/>
<path d="M168.751 118.752H174.999V112.5H168.751V118.752Z" fill="#909FA3"/>
<path d="M168.75 87.5H174.999L174.999 81.2504H168.751L168.75 87.5Z" fill="#A77A6E"/>
<path d="M93.75 31.2489H100V25H93.75V31.2489Z" fill="#909FA3"/>
<path d="M87.5 31.2489H93.7489V25H87.5V31.2489Z" fill="#909FA3"/>
<path d="M100 31.2489H106.25V25H100V31.2489Z" fill="#909FA3"/>
<path d="M118.75 31.2489H124.999V25H118.75V31.2489Z" fill="#909FA3"/>
<path d="M112.5 31.2489H118.75V25H112.5V31.2489Z" fill="#909FA3"/>
<path d="M106.25 31.2489H112.499V25H106.25V31.2489Z" fill="#909FA3"/>
<path d="M68.75 31.2489H75.0004V25H68.75V31.2489Z" fill="#909FA3"/>
<path d="M81.25 31.2489H87.5V25H81.25V31.2489Z" fill="#909FA3"/>
<path d="M62.5004 31.2489H68.7489V25H62.5004V31.2489Z" fill="#BFC8CB"/>
<path d="M75.0004 31.2489H81.25V25H75.0004V31.2489Z" fill="#909FA3"/>
<path d="M131.25 31.2491L137.502 31.25L137.502 25.0002H131.25V31.2491Z" fill="#BFC8CB"/>
<path d="M168.75 31.2489H174.999V25H168.75V31.2489Z" fill="#231F20"/>
<path d="M156.25 31.2489H162.5V25H156.25V31.2489Z" fill="#7B5950"/>
<path d="M125 31.2489L131.25 31.2491V25.0002L125 25V31.2489Z" fill="#909FA3"/>
<path d="M168.75 37.5L174.999 37.5004V31.25H168.751L168.75 37.5Z" fill="#7B5950"/>
<path d="M162.5 31.2489H168.75V25H162.5V31.2489Z" fill="#7B5950"/>
<path d="M150 31.2489H156.249V25H150V31.2489Z" fill="#7B5950"/>
<path d="M168.75 43.7504L174.999 43.75L174.999 37.5004L168.75 37.5V43.7504Z" fill="#A77A6E"/>
<path d="M137.5 31.2489H143.749V25H137.5V31.2489Z" fill="#BFC8CB"/>
<path d="M143.75 31.2489H150V25H143.75V31.2489Z" fill="#231F20"/>
<path d="M168.75 137.499H174.999L174.999 131.25L168.75 131.25V137.499Z" fill="#6F7C80"/>
<path d="M43.75 106.25L50 106.25L50.0001 100H43.75V106.25Z" fill="#6F7C80"/>
<path d="M43.75 112.499H50V106.25L43.75 106.25V112.499Z" fill="#231F20"/>
<path d="M43.7504 43.75H50L50.0001 37.5004L43.75 37.5L43.7504 43.75Z" fill="#231F20"/>
<path d="M43.7501 143.752H50.0001V137.5H43.7501V143.752Z" fill="#231F20"/>
<path d="M43.75 99.9989H50V93.75H43.75V99.9989Z" fill="#909FA3"/>
<path d="M43.7504 68.7504H50L50.0001 62.5004L43.7504 62.5V68.7504Z" fill="#909FA3"/>
<path d="M43.75 56.2485H50.0004L50 49.9989H43.7504L43.75 56.2485Z" fill="#BFC8CB"/>
<path d="M43.7504 49.9989H50V43.75H43.7504V49.9989Z" fill="#231F20"/>
<path d="M43.7504 62.5L50.0001 62.5004V56.2504L43.7505 56.25L43.7504 62.5Z" fill="#BFC8CB"/>
<path d="M43.7501 87.5004H50.0001V81.25H43.7501V87.5004Z" fill="#A77A6E"/>
<path d="M43.7499 74.999L50 74.9989V68.7504H43.7504L43.7499 74.999Z" fill="#909FA3"/>
<path d="M43.75 93.75H50L50.0001 87.5004H43.7501L43.75 93.75Z" fill="#A77A6E"/>
<path d="M43.7501 81.25H50.0001V75L43.7499 74.999L43.7501 81.25Z" fill="#231F20"/>
<path d="M150 162.5H156.249V156.25H150V162.5Z" fill="#6F7C80"/>
<path d="M137.5 162.5H143.749V156.25H137.5V162.5Z" fill="#909FA3"/>
<path d="M143.75 162.5H150V156.25H143.75V162.5Z" fill="#909FA3"/>
<path d="M131.25 162.5H137.502V156.25H131.25V162.5Z" fill="#909FA3"/>
<path d="M125 162.5H131.249V156.25H125V162.5Z" fill="#231F20"/>
<path d="M168.75 162.5H174.999V156.25H168.75L168.75 162.5Z" fill="#343B3C"/>
<path d="M175 162.5H181.252V156.25H174.999L175 162.5Z" fill="#231F20"/>
<path d="M162.5 162.5H168.75L168.75 156.25H162.5L162.5 162.5Z" fill="#343B3C"/>
<path d="M156.25 162.5H162.5L162.5 156.25H156.25V162.5Z" fill="#231F20"/>
<path d="M87.5 162.5H93.7489V156.25H87.5004L87.5 162.5Z" fill="#6F7C80"/>
<path d="M68.75 162.5H75V156.25H68.75V162.5Z" fill="#231F20"/>
<path d="M81.2504 162.5H87.5L87.5004 156.25H81.25L81.2504 162.5Z" fill="#231F20"/>
<path d="M75 162.5H81.2504L81.25 156.25H75V162.5Z" fill="#909FA3"/>
<path d="M100 162.5H106.25V156.25H100V162.5Z" fill="#231F20"/>
<path d="M93.75 162.5H100V156.25H93.75V162.5Z" fill="#6F7C80"/>
<path d="M50 24.9989H56.2504L56.2505 18.7504H50.0005L50 24.9989Z" fill="#909FA3"/>
<path d="M175 43.7504H181.252V37.5H175V43.7504Z" fill="#7B5950"/>
<path d="M174.999 49.9989L181.252 49.9988L181.252 43.7504L174.999 43.75V49.9989Z" fill="#A77A6E"/>
<path d="M175 56.2485H181.252L181.252 49.9988L175 49.998V56.2485Z" fill="#A77A6E"/>
<path d="M175 68.7504H181.252V62.5H175V68.7504Z" fill="#A77A6E"/>
<path d="M162.5 24.9989H168.75L168.751 18.7504H162.5L162.5 24.9989Z" fill="#231F20"/>
<path d="M174.999 31.2489L181.252 31.2491V25.0002L174.999 25V31.2489Z" fill="#909FA3"/>
<path d="M175 24.9986H181.252L181.252 18.7504H175L175 24.9986Z" fill="#BFC8CB"/>
<path d="M174.999 37.5004L181.252 37.5L181.252 31.2491L174.999 31.25V37.5004Z" fill="#231F20"/>
<path d="M168.75 24.9989L175 24.9986L174.999 18.7504H168.751L168.75 24.9989Z" fill="#909FA3"/>
<path d="M174.999 74.9989L181.252 74.999L181.252 68.7504L174.999 68.75V74.9989Z" fill="#A77A6E"/>
<path d="M175 62.5H181.252L181.252 56.25H175L175 62.5Z" fill="#7B5950"/>
<path d="M175 112.499H181.252V106.25H175V112.499Z" fill="#909FA3"/>
<path d="M175 124.998H181.252V118.748H175V124.998Z" fill="#909FA3"/>
<path d="M175 118.752H181.252V112.5H175V118.752Z" fill="#909FA3"/>
<path d="M175 131.25H181.252V125H175V131.25Z" fill="#909FA3"/>
<path d="M174.999 93.7504L181.252 93.7503V87.4999L174.999 87.5V93.7504Z" fill="#6F7C80"/>
<path d="M175 87.5004L181.252 87.4999L181.252 81.25H175V87.5004Z" fill="#909FA3"/>
<path d="M174.999 81.2504L181.252 81.25L181.252 74.999L174.999 75V81.2504Z" fill="#A77A6E"/>
<path d="M175 106.25H181.252L181.252 100H174.999L175 106.25Z" fill="#909FA3"/>
<path d="M175 99.9989H181.252L181.252 93.7503L175 93.75V99.9989Z" fill="#231F20"/>
<path d="M100 24.9989H106.25L106.25 18.7504H100L100 24.9989Z" fill="#909FA3"/>
<path d="M68.75 24.9989H75.0004L75.0001 18.7504H68.7501L68.75 24.9989Z" fill="#BFC8CB"/>
<path d="M75.0004 24.9989H81.2504L81.2505 18.7504H75.0001L75.0004 24.9989Z" fill="#909FA3"/>
<path d="M62.5 24.9989H68.7489V18.75L62.5001 18.7504L62.5 24.9989Z" fill="#BFC8CB"/>
<path d="M81.2504 24.9989H87.5004L87.5001 18.7504H81.2505L81.2504 24.9989Z" fill="#909FA3"/>
<path d="M87.5004 24.9989H93.7489L93.7489 18.7504H87.5001L87.5004 24.9989Z" fill="#909FA3"/>
<path d="M93.75 24.9989H100L100 18.7504H93.7501L93.75 24.9989Z" fill="#909FA3"/>
<path d="M43.7499 31.2491L50.0001 31.25L50 25L43.7499 25.0002V31.2491Z" fill="#7B5950"/>
<path d="M56.2504 24.9989H62.5L62.5001 18.7504H56.2505L56.2504 24.9989Z" fill="#231F20"/>
<path d="M43.7499 24.9986L50 24.9989L50.0005 18.7504H43.7501L43.7499 24.9986Z" fill="#231F20"/>
<path d="M174.999 137.499L181.252 137.499L181.252 131.25H175L174.999 137.499Z" fill="#6F7C80"/>
<path d="M106.25 24.9989H112.499V18.75L106.25 18.7504L106.25 24.9989Z" fill="#909FA3"/>
<path d="M131.25 24.9986H137.502L137.502 18.7504H131.25L131.25 24.9986Z" fill="#BFC8CB"/>
<path d="M137.5 24.9989H143.749L143.749 18.7504H137.5L137.5 24.9989Z" fill="#231F20"/>
<path d="M143.75 24.9989H150L150.001 18.7504H143.75L143.75 24.9989Z" fill="#909FA3"/>
<path d="M150 24.9989H156.249L156.249 18.7504H150.001L150 24.9989Z" fill="#231F20"/>
<path d="M156.25 24.9989H162.5L162.5 18.7504H156.25L156.25 24.9989Z" fill="#231F20"/>
<path d="M112.504 24.9989H118.754V18.75H112.504V24.9989Z" fill="#909FA3"/>
<path d="M43.75 37.5L50.0001 37.5004V31.25L43.7499 31.2491L43.75 37.5Z" fill="#7B5950"/>
<path d="M118.75 24.9989H125L125 18.7504H118.75L118.75 24.9989Z" fill="#909FA3"/>
<path d="M125 24.9989L131.25 24.9986L131.249 18.7504H125L125 24.9989Z" fill="#BFC8CB"/>
<path d="M256.25 81.2504H262.5V75H256.25V81.2504Z" fill="#231F20"/>
<path d="M256.25 87.5004H262.5V81.2504H256.25V87.5004Z" fill="#231F20"/>
<path d="M256.25 106.25H262.5V100H256.25V106.25Z" fill="#231F20"/>
<path d="M225 81.25H231.252V75H225V81.25Z" fill="#6F7C80"/>
<path d="M237.5 81.2504H243.751V75H237.5V81.2504Z" fill="#231F20"/>
<path d="M237.5 87.5004H243.751V81.2504H237.5V87.5004Z" fill="#231F20"/>
<path d="M237.5 74.9989H243.75V68.75H237.5V74.9989Z" fill="#231F20"/>
<path d="M237.5 99.9989H243.75V93.75H237.5V99.9989Z" fill="#231F20"/>
<path d="M237.5 68.75H243.75V62.5H237.5V68.75Z" fill="#231F20"/>
<path d="M237.5 49.9989H243.75V43.75H237.5V49.9989Z" fill="#231F20"/>
<path d="M237.5 56.2504H243.751V50H237.5V56.2504Z" fill="#231F20"/>
<path d="M237.5 62.5H243.75L243.751 56.2504H237.5L237.5 62.5Z" fill="#231F20"/>
<path d="M237.5 106.25H243.751V100H237.5V106.25Z" fill="#231F20"/>
<path d="M237.5 93.75H243.75L243.751 87.5004H237.5L237.5 93.75Z" fill="#231F20"/>
<path d="M237.5 112.499H243.75L243.751 106.25H237.5L237.5 112.499Z" fill="#231F20"/>
<path d="M231.254 112.499H237.503V106.25H231.254V112.499Z" fill="#6F7C80"/>
<path d="M225 68.7504H231.252V62.5H225V68.7504Z" fill="#909FA3"/>
<path d="M225 62.5H231.252L231.252 56.25H225L225 62.5Z" fill="#909FA3"/>
<path d="M225 56.25H231.252V50H225V56.25Z" fill="#909FA3"/>
<path d="M225 74.9989H231.252V68.7504H225V74.9989Z" fill="#909FA3"/>
<path d="M225 37.5004H231.252V31.25H225V37.5004Z" fill="#BFC8CB"/>
<path d="M225 49.9989H231.252V43.75H225V49.9989Z" fill="#909FA3"/>
<path d="M225 31.2489H231.252V25H225V31.2489Z" fill="#231F20"/>
<path d="M225 24.9989H231.252V18.75H225V24.9989Z" fill="#231F20"/>
<path d="M225 43.75H231.252L231.252 37.5004H225L225 43.75Z" fill="#909FA3"/>
<path d="M231.254 137.499H237.503V131.25H231.254V137.499Z" fill="#231F20"/>
<path d="M231.254 162.5H237.503V156.25H231.254V162.5Z" fill="#231F20"/>
<path d="M231.254 131.25H237.503L237.503 125H231.254L231.254 131.25Z" fill="#231F20"/>
<path d="M231.254 168.75H237.503V162.5H231.254V168.75Z" fill="#231F20"/>
<path d="M231.254 118.752H237.503V112.5H231.254V118.752Z" fill="#231F20"/>
<path d="M231.254 125H237.503V118.75H231.254V125Z" fill="#231F20"/>
<path d="M231.254 106.25H237.503L237.503 100H231.254L231.254 106.25Z" fill="#6F7C80"/>
<path d="M231.254 187.5H237.503V181.25H231.254V187.5Z" fill="#231F20"/>
<path d="M231.254 174.999H237.503L237.503 168.75H231.254L231.254 174.999Z" fill="#231F20"/>
<path d="M231.254 181.25H237.503V175H231.254V181.25Z" fill="#231F20"/>
<path d="M231.254 200H237.503V193.75H231.254V200Z" fill="#231F20"/>
<path d="M231.254 193.749H237.503L237.503 187.5H231.254L231.254 193.749Z" fill="#231F20"/>
<path d="M231.254 37.5004H237.503V31.25H231.254V37.5004Z" fill="#231F20"/>
<path d="M231.254 99.9989H237.503V93.75H231.254V99.9989Z" fill="#909FA3"/>
<path d="M231.254 87.5004H237.503V81.25H231.254V87.5004Z" fill="#909FA3"/>
<path d="M231.254 81.25H237.503V75H231.254V81.25Z" fill="#909FA3"/>
<path d="M231.254 93.75H237.503L237.503 87.5004H231.254L231.254 93.75Z" fill="#909FA3"/>
<path d="M231.254 74.9989H237.503V68.75H231.254V74.9989Z" fill="#909FA3"/>
<path d="M231.254 68.75H237.503V62.5H231.254V68.75Z" fill="#909FA3"/>
<path d="M231.254 56.2504H237.503V50H231.254V56.2504Z" fill="#909FA3"/>
<path d="M231.254 43.7504H237.503L237.503 37.5004H231.254L231.254 43.7504Z" fill="#231F20"/>
<path d="M231.254 49.9989H237.503V43.7504H231.254V49.9989Z" fill="#BFC8CB"/>
<path d="M231.254 62.5H237.503L237.503 56.2504H231.254L231.254 62.5Z" fill="#909FA3"/>
<path d="M250 99.9989H256.25V93.75H250V99.9989Z" fill="#231F20"/>
<path d="M250 93.75H256.25L256.25 87.5004L250 87.5V93.75Z" fill="#231F20"/>
<path d="M250 74.9989H256.25V68.75H250V74.9989Z" fill="#231F20"/>
<path d="M250 68.75H256.25V62.5H250V68.75Z" fill="#231F20"/>
<path d="M243.75 62.5L249.999 62.5004V56.25L243.751 56.2504L243.75 62.5Z" fill="#231F20"/>
<path d="M243.751 106.25H249.999V100H243.751V106.25Z" fill="#231F20"/>
</svg>
