<svg width="162" height="200" viewBox="0 0 162 200" fill="none" xmlns="http://www.w3.org/2000/svg">
<path d="M109.523 166.667H114.286V161.904H109.523V166.667Z" fill="#231F20"/>
<path d="M104.762 166.667H109.523V161.904H104.762V166.667Z" fill="#D6716C"/>
<path d="M100 166.667H104.762V161.904H100V166.667Z" fill="#231F20"/>
<path d="M90.4766 166.667H95.2388V161.904H90.4766V166.667Z" fill="#231F20"/>
<path d="M80.9531 166.667H85.7153V161.904H80.9531V166.667Z" fill="#231F20"/>
<path d="M85.7153 166.667H90.4766V161.904H85.7153V166.667Z" fill="#D6716C"/>
<path d="M33.332 23.8091H38.0931V19.0469H33.332V23.8091Z" fill="#F9B2AE"/>
<path d="M61.9023 23.8091H66.6646V19.0469H61.9023V23.8091Z" fill="#F68DB9"/>
<path d="M76.1914 23.8091H80.9536V19.0469H76.1914V23.8091Z" fill="#F35B9D"/>
<path d="M57.1406 23.8091H61.9023V19.0469H57.1406V23.8091Z" fill="#F35B9D"/>
<path d="M71.4258 23.8091H76.188V19.0469H71.4258V23.8091Z" fill="#F35B9D"/>
<path d="M66.668 23.8091H71.429V19.0469H66.668V23.8091Z" fill="#F68DB9"/>
<path d="M47.6172 23.8091H52.3794V19.0469H47.6172V23.8091Z" fill="#F68DB9"/>
<path d="M38.0931 23.8091H42.8561V19.0469H38.0931V23.8091Z" fill="#F9B2AE"/>
<path d="M42.8561 23.8091H47.6172V19.0469H42.8561V23.8091Z" fill="#231F20"/>
<path d="M80.9536 23.8091H85.7153V19.0469H80.9536V23.8091Z" fill="#F35B9D"/>
<path d="M85.7153 23.8091H90.4759V19.0469H85.7153V23.8091Z" fill="#231F20"/>
<path d="M28.5703 23.8091H33.332V19.0469H28.5703V23.8091Z" fill="#F9B2AE"/>
<path d="M52.3794 23.8091H57.1406V19.0469H52.3794V23.8091Z" fill="#F68DB9"/>
<path d="M4.76172 42.8579H9.52393V38.0957H4.76172V42.8579Z" fill="#231F20"/>
<path d="M4.76172 23.8091H9.52393V19.0469H4.76172V23.8091Z" fill="#231F20"/>
<path d="M4.76172 47.6196H9.52393V42.8579H4.76172V47.6196Z" fill="#231F20"/>
<path d="M14.2852 23.8091H19.0474V19.0469H14.2852V23.8091Z" fill="#231F20"/>
<path d="M19.0474 23.8091H23.8079V19.0469H19.0474V23.8091Z" fill="#231F20"/>
<path d="M9.52393 23.8091H14.2852V19.0469H9.52393V23.8091Z" fill="#898585"/>
<path d="M4.76172 28.5728H9.52393V23.8105H4.76172V28.5728Z" fill="#898585"/>
<path d="M23.8079 23.8091H28.5703V19.0469H23.8079V23.8091Z" fill="#F9B2AE"/>
<path d="M4.76172 38.0942H9.52393V33.332H4.76172V38.0942Z" fill="#231F20"/>
<path d="M4.76172 33.3333H9.52393V28.5728H4.76172V33.3333Z" fill="#231F20"/>
<path d="M19.0474 19.0469H23.8079V14.2852H19.0469L19.0474 19.0469Z" fill="#231F20"/>
<path d="M28.5703 19.0469H33.332L33.3325 14.2852H28.5703V19.0469Z" fill="#FDE5E7"/>
<path d="M23.8079 19.0469H28.5703V14.2852H23.8079V19.0469Z" fill="#FDE5E7"/>
<path d="M33.332 19.0469H38.0931V14.2852H33.3325L33.332 19.0469Z" fill="#FDE5E7"/>
<path d="M38.0931 19.0469H42.8561V14.2852H38.0931V19.0469Z" fill="#FDE5E7"/>
<path d="M42.8561 19.0469H47.6172L47.6177 14.2852H42.8561V19.0469Z" fill="#231F20"/>
<path d="M47.6172 19.0469H52.3794V14.2852H47.6177L47.6172 19.0469Z" fill="#F35B9D"/>
<path d="M9.52393 19.0469H14.2852L14.2854 14.2852H9.52319L9.52393 19.0469Z" fill="#231F20"/>
<path d="M14.2852 19.0469H19.0474L19.0469 14.2852H14.2854L14.2852 19.0469Z" fill="#898585"/>
<path d="M76.1914 19.0469H80.9536V14.2852H76.1914V19.0469Z" fill="#F35B9D"/>
<path d="M80.9536 19.0469H85.7153V14.2852H80.9536V19.0469Z" fill="#F68DB9"/>
<path d="M85.7153 19.0469H90.4759V14.2852H85.7153V19.0469Z" fill="#231F20"/>
<path d="M57.1406 19.0469H61.9023L61.9028 14.2852H57.1406V19.0469Z" fill="#F35B9D"/>
<path d="M61.9023 19.0469H66.6646V14.2852H61.9028L61.9023 19.0469Z" fill="#231F20"/>
<path d="M71.4258 19.0469H76.188V14.2852H71.4258V19.0469Z" fill="#F35B9D"/>
<path d="M52.3794 19.0469H57.1406V14.2852H52.3794V19.0469Z" fill="#231F20"/>
<path d="M66.668 19.0469H71.429V14.2852H66.668V19.0469Z" fill="#F35B9D"/>
<path d="M0 38.0962L4.76172 38.0957V33.3333L0 33.334V38.0962Z" fill="#231F20"/>
<path d="M0 42.8579H4.76172V38.0957L0 38.0962V42.8579Z" fill="#231F20"/>
<path d="M0 28.5728H4.76172V23.8105H0V28.5728Z" fill="#231F20"/>
<path d="M0 33.334L4.76172 33.3333V28.5728H0V33.334Z" fill="#231F20"/>
<path d="M0 47.6198L4.76172 47.6196V42.8579H0V47.6198Z" fill="#231F20"/>
<path d="M147.617 109.524H152.379V104.762H147.617V109.524Z" fill="#231F20"/>
<path d="M147.617 114.284H152.379V109.524H147.617V114.284Z" fill="#F68DB9"/>
<path d="M147.617 119.047H152.379V114.284H147.617V119.047Z" fill="#F35B9D"/>
<path d="M147.617 133.331H152.379V128.57H147.617V133.331Z" fill="#231F20"/>
<path d="M147.617 128.57H152.379V123.809H147.617V128.57Z" fill="#A92F59"/>
<path d="M147.617 123.809H152.379V119.047H147.617V123.809Z" fill="#231F20"/>
<path d="M47.6172 28.5728H52.3794V23.8105H47.6172V28.5728Z" fill="#F35B9D"/>
<path d="M85.7148 28.5728H90.4759V23.8105H85.7148V28.5728Z" fill="#231F20"/>
<path d="M23.8086 28.5728H28.5708V23.8105H23.8086V28.5728Z" fill="#F9B2AE"/>
<path d="M28.5708 28.5728H33.3325V23.8105H28.5708V28.5728Z" fill="#F9B2AE"/>
<path d="M14.2852 28.5728H19.0474V23.8105H14.2852V28.5728Z" fill="#231F20"/>
<path d="M33.3325 28.5728H38.0931V23.8105H33.3325V28.5728Z" fill="#F9B2AE"/>
<path d="M9.52393 28.5728H14.2852V23.8105H9.52393V28.5728Z" fill="#231F20"/>
<path d="M38.0931 28.5728H42.8561V23.8105H38.0931V28.5728Z" fill="#F9B2AE"/>
<path d="M9.52393 38.0957L14.2854 38.0962V33.334H9.52319L9.52393 38.0957Z" fill="#231F20"/>
<path d="M9.52319 33.334H14.2854L14.2852 28.5728H9.52393L9.52319 33.334Z" fill="#231F20"/>
<path d="M19.0474 28.5728H23.8086V23.8105H19.0474V28.5728Z" fill="#231F20"/>
<path d="M71.4258 28.5728H76.188V23.8105H71.4258V28.5728Z" fill="#F35B9D"/>
<path d="M66.668 28.5728H71.429V23.8105H66.668V28.5728Z" fill="#F35B9D"/>
<path d="M76.1914 28.5728H80.9536V23.8105H76.1914V28.5728Z" fill="#F35B9D"/>
<path d="M80.9536 28.5728H85.7148V23.8105H80.9536V28.5728Z" fill="#F35B9D"/>
<path d="M52.3794 28.5728H57.1399V23.8105H52.3794V28.5728Z" fill="#F35B9D"/>
<path d="M42.8561 28.5728H47.6172V23.8105H42.8561V28.5728Z" fill="#231F20"/>
<path d="M61.9023 28.5728H66.6646V23.8105H61.9023V28.5728Z" fill="#F35B9D"/>
<path d="M57.1399 28.5728H61.9023V23.8105H57.1399V28.5728Z" fill="#F35B9D"/>
<path d="M80.9531 157.143H85.7153V152.381H80.9531V157.143Z" fill="#231F20"/>
<path d="M109.523 157.143H114.286V152.381H109.523V157.143Z" fill="#231F20"/>
<path d="M100 157.143H104.762V152.381H100V157.143Z" fill="#231F20"/>
<path d="M104.762 157.143H109.523V152.381H104.762V157.143Z" fill="#F89A97"/>
<path d="M85.7153 157.143H90.4759V152.381H85.7153V157.143Z" fill="#F89A97"/>
<path d="M90.4759 157.143H95.2388V152.381H90.4759V157.143Z" fill="#231F20"/>
<path d="M138.094 114.284H142.855V109.523H138.094V114.284Z" fill="#F35B9D"/>
<path d="M138.094 119.047H142.855V114.284H138.094V119.047Z" fill="#F35B9D"/>
<path d="M138.094 123.809H142.855V119.047H138.094V123.809Z" fill="#231F20"/>
<path d="M138.094 104.762H142.855V100H138.094V104.762Z" fill="#F68DB9"/>
<path d="M138.094 100H142.855V95.2383H138.094V100Z" fill="#231F20"/>
<path d="M138.094 109.523H142.855V104.762H138.094V109.523Z" fill="#F35B9D"/>
<path d="M9.52393 42.8579H14.2854V38.0962L9.52393 38.0957V42.8579Z" fill="#231F20"/>
<path d="M142.855 119.047H147.617V114.284H142.855V119.047Z" fill="#F35B9D"/>
<path d="M142.855 114.284H147.617V109.524L142.855 109.523V114.284Z" fill="#F35B9D"/>
<path d="M100 161.904H104.762L104.762 157.143H100V161.904Z" fill="#231F20"/>
<path d="M109.523 161.904H114.286V157.143H109.523V161.904Z" fill="#231F20"/>
<path d="M104.762 161.904H109.523V157.143H104.762L104.762 161.904Z" fill="#F89A97"/>
<path d="M142.855 109.523L147.617 109.524V104.762L142.855 104.762V109.523Z" fill="#F68DB9"/>
<path d="M142.855 128.571L147.617 128.57V123.809L142.855 123.809L142.855 128.571Z" fill="#231F20"/>
<path d="M142.855 104.762L147.617 104.762L147.618 100H142.855V104.762Z" fill="#231F20"/>
<path d="M142.855 123.809L147.617 123.809V119.047H142.855V123.809Z" fill="#CD4378"/>
<path d="M85.7153 161.904H90.4766L90.4759 157.143H85.7153V161.904Z" fill="#F89A97"/>
<path d="M90.4766 161.904H95.2388V157.143H90.4759L90.4766 161.904Z" fill="#231F20"/>
<path d="M80.9531 161.904H85.7153V157.143H80.9531V161.904Z" fill="#231F20"/>
<path d="M76.1914 9.52275H80.9536V4.76172H76.1914V9.52275Z" fill="#231F20"/>
<path d="M66.668 9.52275H71.429V4.76172H66.668V9.52275Z" fill="#F68DB9"/>
<path d="M61.9023 9.52275H66.6646V4.76172H61.9023V9.52275Z" fill="#F68DB9"/>
<path d="M71.4258 9.52275H76.188V4.76172H71.4258V9.52275Z" fill="#F68DB9"/>
<path d="M57.1406 9.52275H61.9023V4.76172H57.1406V9.52275Z" fill="#F68DB9"/>
<path d="M52.3789 9.52275H57.1406V4.76172H52.3789V9.52275Z" fill="#F68DB9"/>
<path d="M47.6172 9.52275H52.3789V4.76172H47.6172V9.52275Z" fill="#F68DB9"/>
<path d="M42.8555 9.52275H47.6172V4.76172H42.8555V9.52275Z" fill="#231F20"/>
<path d="M157.141 119.047H161.902V114.285H157.141V119.047Z" fill="#231F20"/>
<path d="M157.141 123.809H161.902V119.047H157.141V123.809Z" fill="#231F20"/>
<path d="M109.523 180.952H114.286V176.189H109.523V180.952Z" fill="#231F20"/>
<path d="M104.762 180.952H109.523V176.189H104.762V180.952Z" fill="#D6716C"/>
<path d="M100 180.952H104.762V176.189H100V180.952Z" fill="#231F20"/>
<path d="M90.4766 180.952H95.2388V176.189H90.4766V180.952Z" fill="#231F20"/>
<path d="M85.7148 180.952H90.4766V176.189H85.7148V180.952Z" fill="#D6716C"/>
<path d="M80.9531 180.952H85.7148V176.189H80.9531V180.952Z" fill="#231F20"/>
<path d="M100 176.189H104.762L104.762 171.428H100V176.189Z" fill="#231F20"/>
<path d="M152.379 114.284L157.141 114.285L157.141 109.523L152.379 109.524V114.284Z" fill="#231F20"/>
<path d="M152.379 119.047H157.141V114.285L152.379 114.284V119.047Z" fill="#F68DB9"/>
<path d="M152.379 123.809L157.141 123.809V119.047H152.379V123.809Z" fill="#F35B9D"/>
<path d="M152.379 128.57L157.141 128.571L157.141 123.809L152.379 123.809V128.57Z" fill="#231F20"/>
<path d="M100 171.429H104.762V166.668H100V171.429Z" fill="#231F20"/>
<path d="M104.762 171.428L109.523 171.427L109.523 166.667H104.762L104.762 171.428Z" fill="#F89A97"/>
<path d="M109.523 171.429H114.286V166.668H109.523V171.429Z" fill="#231F20"/>
<path d="M90.4766 171.429H95.2388V166.668H90.4766V171.429Z" fill="#231F20"/>
<path d="M85.7148 171.429H90.4766V166.668H85.7148V171.429Z" fill="#F89A97"/>
<path d="M80.9531 171.429H85.7148V166.668H80.9531V171.429Z" fill="#231F20"/>
<path d="M104.762 176.189H109.523L109.523 171.427L104.762 171.428L104.762 176.189Z" fill="#F89A97"/>
<path d="M85.7148 176.189H90.4766L90.4759 171.428H85.7148V176.189Z" fill="#F89A97"/>
<path d="M80.9531 176.189H85.7148V171.428H80.9531V176.189Z" fill="#231F20"/>
<path d="M90.4766 176.189H95.2388V171.428H90.4759L90.4766 176.189Z" fill="#231F20"/>
<path d="M109.523 176.189H114.286V171.428L109.523 171.427L109.523 176.189Z" fill="#231F20"/>
<path d="M38.0939 14.2845L42.8561 14.2852L42.8555 9.52275L38.0939 9.52344V14.2845Z" fill="#231F20"/>
<path d="M42.8561 14.2852H47.6177L47.6172 9.52275H42.8555L42.8561 14.2852Z" fill="#F68DB9"/>
<path d="M47.6177 14.2852H52.3794L52.3789 9.52275H47.6172L47.6177 14.2852Z" fill="#F35B9D"/>
<path d="M57.1406 14.2852H61.9028L61.9023 9.52275H57.1406V14.2852Z" fill="#F35B9D"/>
<path d="M33.3325 14.2852H38.0931L38.0939 9.52344H33.332L33.3325 14.2852Z" fill="#231F20"/>
<path d="M52.3794 14.2852H57.1406V9.52275H52.3789L52.3794 14.2852Z" fill="#231F20"/>
<path d="M19.0469 14.2852H23.8079V9.52344H19.0469V14.2852Z" fill="#231F20"/>
<path d="M14.2854 14.2852H19.0469V9.52344H14.2852L14.2854 14.2852Z" fill="#231F20"/>
<path d="M28.5703 14.2852H33.3325L33.332 9.52344H28.5703V14.2852Z" fill="#231F20"/>
<path d="M23.8079 14.2852H28.5703V9.52344H23.8079V14.2852Z" fill="#231F20"/>
<path d="M61.9028 14.2852H66.6646V9.52275H61.9023L61.9028 14.2852Z" fill="#231F20"/>
<path d="M66.668 14.2852H71.429V9.52275H66.668V14.2852Z" fill="#F35B9D"/>
<path d="M80.9536 14.2852H85.7153V9.52344L80.9536 9.52275V14.2852Z" fill="#231F20"/>
<path d="M71.4258 14.2852H76.188V9.52275H71.4258V14.2852Z" fill="#F35B9D"/>
<path d="M76.1914 14.2852H80.9536V9.52275H76.1914V14.2852Z" fill="#F68DB9"/>
<path d="M76.1914 114.284H80.9536V109.523H76.1914V114.284Z" fill="#CD4378"/>
<path d="M80.9531 57.1431H85.7153V52.3809H80.9531V57.1431Z" fill="#CD4378"/>
<path d="M85.7153 57.1431H90.4771V52.3809H85.7153V57.1431Z" fill="#231F20"/>
<path d="M109.523 85.7134H114.286V80.9512H109.523V85.7134Z" fill="#F68DB9"/>
<path d="M109.523 109.524H114.286V104.762H109.523V109.524Z" fill="#F35B9D"/>
<path d="M109.523 104.762H114.286V100H109.523V104.762Z" fill="#F35B9D"/>
<path d="M109.523 114.284H114.286V109.524H109.523V114.284Z" fill="#F35B9D"/>
<path d="M109.523 100H114.286V95.2383H109.523V100Z" fill="#F35B9D"/>
<path d="M109.523 119.047H114.286V114.284H109.523V119.047Z" fill="#CD4378"/>
<path d="M76.1914 57.1431H80.9531V52.3809H76.1914V57.1431Z" fill="#F35B9D"/>
<path d="M109.523 95.2383H114.286V90.4766H109.523V95.2383Z" fill="#231F20"/>
<path d="M109.523 80.9524H114.286V76.1914H109.523V80.9524Z" fill="#231F20"/>
<path d="M109.523 90.4766H114.286V85.7148H109.523V90.4766Z" fill="#F35B9D"/>
<path d="M109.523 123.809H114.286V119.047H109.523V123.809Z" fill="#231F20"/>
<path d="M61.9023 57.1431H66.6646V52.3809H61.9023V57.1431Z" fill="#231F20"/>
<path d="M71.4258 57.1431H76.188V52.3809H71.4258V57.1431Z" fill="#F35B9D"/>
<path d="M66.668 57.1431H71.429V52.3809H66.668V57.1431Z" fill="#F68DB9"/>
<path d="M109.523 128.571H114.286V123.809H109.523V128.571Z" fill="#CD4378"/>
<path d="M61.9023 61.9036H66.6646V57.1431H61.9023V61.9036Z" fill="#231F20"/>
<path d="M80.9531 61.9036H85.7153V57.1431H80.9531V61.9036Z" fill="#231F20"/>
<path d="M66.668 61.9036H71.429V57.1431H66.668V61.9036Z" fill="#F35B9D"/>
<path d="M71.4258 61.9036H76.188V57.1431H71.4258V61.9036Z" fill="#F35B9D"/>
<path d="M76.1914 61.9036H80.9531V57.1431H76.1914V61.9036Z" fill="#F35B9D"/>
<path d="M80.9531 128.571H85.7153V123.809H80.9531V128.571Z" fill="#CD4378"/>
<path d="M85.7153 128.571H90.4759V123.809H85.7153V128.571Z" fill="#CD4378"/>
<path d="M66.668 123.809V128.571H71.429V123.809H66.668Z" fill="#231F20"/>
<path d="M71.4258 128.571H76.188V123.809H71.4258V128.571Z" fill="#A92F59"/>
<path d="M104.762 128.571H109.523V123.809L104.762 123.809V128.571Z" fill="#CD4378"/>
<path d="M90.4759 128.571H95.2388V123.809H90.4759V128.571Z" fill="#CD4378"/>
<path d="M100 128.571H104.762V123.809H100V128.571Z" fill="#CD4378"/>
<path d="M95.2388 128.571H100V123.809H95.2388V128.571Z" fill="#CD4378"/>
<path d="M76.1914 128.571H80.9531V123.809H76.1914V128.571Z" fill="#CD4378"/>
<path d="M76.1914 52.3809H80.9531L80.9536 47.6191H76.1914V52.3809Z" fill="#F35B9D"/>
<path d="M71.4258 52.3809H76.188V47.6191H71.4258V52.3809Z" fill="#F35B9D"/>
<path d="M66.668 52.3809H71.429V47.6191H66.668V52.3809Z" fill="#231F20"/>
<path d="M80.9531 52.3809L85.7139 52.3802V47.6191H80.9536L80.9531 52.3809Z" fill="#F35B9D"/>
<path d="M76.1914 138.095H80.9536V133.334H76.1914V138.095Z" fill="#231F20"/>
<path d="M85.7148 138.095H90.4759V133.334H85.7148V138.095Z" fill="#231F20"/>
<path d="M90.4759 138.095H95.2388V133.334H90.4759V138.095Z" fill="#231F20"/>
<path d="M80.9536 138.095H85.7148V133.334H80.9536V138.095Z" fill="#231F20"/>
<path d="M104.762 133.333H109.523V128.572H104.762V133.333Z" fill="#A92F59"/>
<path d="M76.1914 133.331H80.9536L80.9531 128.571H76.1914V133.331Z" fill="#A92F59"/>
<path d="M90.4766 133.331H95.2388V128.571H90.4759L90.4766 133.331Z" fill="#A92F59"/>
<path d="M100 133.331H104.762L104.762 128.571H100V133.331Z" fill="#A92F59"/>
<path d="M80.9536 133.331H85.7153V128.571H80.9531L80.9536 133.331Z" fill="#A92F59"/>
<path d="M85.7153 133.331H90.4766L90.4759 128.571H85.7153V133.331Z" fill="#A92F59"/>
<path d="M95.2388 133.331H100V128.571H95.2388V133.331Z" fill="#A92F59"/>
<path d="M114.285 133.333H119.047V128.572H114.285V133.333Z" fill="#A92F59"/>
<path d="M114.286 128.571H119.047V123.809L114.286 123.809V128.571Z" fill="#CD4378"/>
<path d="M109.523 133.331H114.286V128.571H109.523V133.331Z" fill="#A92F59"/>
<path d="M114.286 123.809L119.047 123.809L119.047 119.047L114.286 119.047V123.809Z" fill="#231F20"/>
<path d="M71.4258 133.331H76.188V128.571H71.4258V133.331Z" fill="#231F20"/>
<path d="M85.7139 52.3802H90.4759V47.6191H85.7139V52.3802Z" fill="#231F20"/>
<path d="M114.286 119.047L119.047 119.047L119.047 114.285L114.286 114.284V119.047Z" fill="#CD4378"/>
<path d="M114.286 109.524L119.047 109.524V104.762L114.286 104.762V109.524Z" fill="#F35B9D"/>
<path d="M114.286 104.762L119.047 104.762L119.047 100H114.286V104.762Z" fill="#F35B9D"/>
<path d="M114.286 114.284L119.047 114.285L119.047 109.524L114.286 109.524V114.284Z" fill="#F35B9D"/>
<path d="M114.286 100H119.047L119.047 95.2383L114.286 95.2383V100Z" fill="#F68DB9"/>
<path d="M114.286 95.2383L119.047 95.2383L119.047 90.4766H114.286V95.2383Z" fill="#231F20"/>
<path d="M114.286 85.7134H119.047V80.9512H114.286V85.7134Z" fill="#231F20"/>
<path d="M114.286 90.4766H119.047V85.7148H114.286V90.4766Z" fill="#F35B9D"/>
<path d="M80.9531 99.9993H85.7153V95.2383H80.9531V99.9993Z" fill="#F68DB9"/>
<path d="M57.1406 76.1899H61.9028V71.4277H57.1406V76.1899Z" fill="#F68DB9"/>
<path d="M57.1406 80.9524H61.9028V76.1914H57.1406V80.9524Z" fill="#F35B9D"/>
<path d="M57.1406 109.524H61.9028V104.762H57.1406V109.524Z" fill="#CD4378"/>
<path d="M61.9028 76.1899H66.6646V71.4277H61.9028V76.1899Z" fill="#F35B9D"/>
<path d="M66.668 76.1899H71.429V71.4277H66.668V76.1899Z" fill="#F35B9D"/>
<path d="M57.1406 85.7134H61.9028V80.9512H57.1406V85.7134Z" fill="#F35B9D"/>
<path d="M57.1406 90.4771H61.9028V85.7148H57.1406V90.4771Z" fill="#F35B9D"/>
<path d="M57.1406 99.9993H61.9028V95.2383H57.1406V99.9993Z" fill="#F35B9D"/>
<path d="M57.1406 104.762H61.9028V99.9993H57.1406V104.762Z" fill="#CD4378"/>
<path d="M57.1406 95.2383H61.9028V90.4771H57.1406V95.2383Z" fill="#F35B9D"/>
<path d="M71.4258 76.1899H76.188V71.4277H71.4258V76.1899Z" fill="#F35B9D"/>
<path d="M90.4766 90.4771H95.2388V85.7148H90.4766V90.4771Z" fill="#231F20"/>
<path d="M76.1914 76.1899H80.9536V71.4277H76.1914V76.1899Z" fill="#231F20"/>
<path d="M90.4766 95.2388H95.2388V90.4771H90.4766V95.2388Z" fill="#F68DB9"/>
<path d="M90.4766 104.762H95.2388V100H90.4766V104.762Z" fill="#F35B9D"/>
<path d="M90.4766 100H95.2388V95.2388H90.4766V100Z" fill="#F35B9D"/>
<path d="M90.4766 85.7134H95.2388V80.9512H90.4766V85.7134Z" fill="#F68DB9"/>
<path d="M90.4766 80.9524H95.2388V76.1914H90.4766V80.9524Z" fill="#231F20"/>
<path d="M95.2388 100L100 99.9993V95.2383L95.2388 95.2388V100Z" fill="#F35B9D"/>
<path d="M95.2388 90.4771H100V85.7148H95.2388V90.4771Z" fill="#231F20"/>
<path d="M95.2388 85.7134H100V80.9512H95.2388V85.7134Z" fill="#F68DB9"/>
<path d="M95.2388 95.2388L100 95.2383V90.4771H95.2388V95.2388Z" fill="#F68DB9"/>
<path d="M95.2388 80.9524H100V76.1914H95.2388V80.9524Z" fill="#231F20"/>
<path d="M90.4766 109.524H95.2388V104.762H90.4766V109.524Z" fill="#F35B9D"/>
<path d="M61.9028 109.524H66.6646V104.762H61.9028V109.524Z" fill="#F35B9D"/>
<path d="M71.4258 114.284H76.188V109.523H71.4258V114.284Z" fill="#F35B9D"/>
<path d="M66.668 109.523V114.286L71.429 114.284V109.523H66.668Z" fill="#F35B9D"/>
<path d="M61.9023 114.286H66.6646V109.524H61.9028L61.9023 114.286Z" fill="#CD4378"/>
<path d="M95.2388 109.524H100V104.762L95.2388 104.762V109.524Z" fill="#F35B9D"/>
<path d="M90.4766 114.284H95.2388V109.524H90.4766V114.284Z" fill="#F35B9D"/>
<path d="M95.2388 114.284H100V109.524H95.2388V114.284Z" fill="#F35B9D"/>
<path d="M85.7148 114.284H90.4766V109.524L85.7148 109.523V114.284Z" fill="#CD4378"/>
<path d="M80.9536 114.284H85.7148V109.523H80.9536V114.284Z" fill="#231F20"/>
<path d="M85.7148 109.523L90.4766 109.524V104.762L85.7148 104.762V109.523Z" fill="#F35B9D"/>
<path d="M66.668 95.2388H71.429V90.4766H66.668V95.2388Z" fill="#F35B9D"/>
<path d="M66.668 90.4766H71.429V85.7148H66.668V90.4766Z" fill="#F35B9D"/>
<path d="M66.668 85.7134H71.429V80.9512H66.668V85.7134Z" fill="#F35B9D"/>
<path d="M66.668 99.9993H71.429V95.2388H66.668V99.9993Z" fill="#F35B9D"/>
<path d="M76.1914 85.7134H80.9536V80.9512H76.1914V85.7134Z" fill="#F68DB9"/>
<path d="M80.9531 104.762L85.7148 104.762L85.7153 99.9993H80.9531V104.762Z" fill="#F35B9D"/>
<path d="M85.7148 104.762L90.4766 104.762V100L85.7153 99.9993L85.7148 104.762Z" fill="#F35B9D"/>
<path d="M76.1914 104.762H80.9531V99.9993L76.1914 100V104.762Z" fill="#231F20"/>
<path d="M71.4258 104.762H76.188V100H71.4258V104.762Z" fill="#F35B9D"/>
<path d="M71.4258 100H76.188V95.2383H71.4258V100Z" fill="#F35B9D"/>
<path d="M76.1914 95.2388L80.9531 95.2383L80.9536 90.4766H76.1914V95.2388Z" fill="#F35B9D"/>
<path d="M71.4258 95.2383H76.188V90.4766H71.4258V95.2383Z" fill="#F35B9D"/>
<path d="M71.4258 90.4766H76.188V85.7148H71.4258V90.4766Z" fill="#F35B9D"/>
<path d="M76.1914 90.4766H80.9536V85.7148H76.1914V90.4766Z" fill="#F35B9D"/>
<path d="M80.9536 85.7134H85.7153V80.9512H80.9536V85.7134Z" fill="#F68DB9"/>
<path d="M80.9531 95.2383H85.7153V90.4766H80.9536L80.9531 95.2383Z" fill="#231F20"/>
<path d="M76.1914 100L80.9531 99.9993V95.2383L76.1914 95.2388V100Z" fill="#231F20"/>
<path d="M80.9536 90.4766H85.7153V85.7148H80.9536V90.4766Z" fill="#F35B9D"/>
<path d="M95.2388 138.095H100V133.334H95.2388V138.095Z" fill="#231F20"/>
<path d="M71.4258 85.7134H76.188V80.9512H71.4258V85.7134Z" fill="#F35B9D"/>
<path d="M61.9028 99.9993H66.6646V95.2383H61.9028V99.9993Z" fill="#F35B9D"/>
<path d="M66.668 104.762H71.429V99.9993H66.668V104.762Z" fill="#F35B9D"/>
<path d="M61.9028 104.762H66.6646V99.9993H61.9028V104.762Z" fill="#F35B9D"/>
<path d="M61.9028 95.2383H66.6646V90.4766L61.9028 90.4771V95.2383Z" fill="#F35B9D"/>
<path d="M61.9028 90.4771L66.6646 90.4766V85.7148H61.9028V90.4771Z" fill="#F35B9D"/>
<path d="M66.668 109.523H71.429V104.762H66.668V109.523Z" fill="#F35B9D"/>
<path d="M76.1914 109.523H80.9536L80.9531 104.762H76.1914V109.523Z" fill="#231F20"/>
<path d="M80.9536 109.523H85.7148V104.762L80.9531 104.762L80.9536 109.523Z" fill="#CD4378"/>
<path d="M61.9028 85.7134H66.6646V80.9512H61.9028V85.7134Z" fill="#F35B9D"/>
<path d="M71.4258 109.523H76.188V104.762H71.4258V109.523Z" fill="#F35B9D"/>
<path d="M76.1914 80.9524H80.9536V76.1914H76.1914V80.9524Z" fill="#231F20"/>
<path d="M85.7148 80.9524H90.4766V76.1914H85.7148V80.9524Z" fill="#231F20"/>
<path d="M85.7153 90.4766L90.4766 90.4771V85.7148H85.7153V90.4766Z" fill="#231F20"/>
<path d="M85.7153 85.7134H90.4766V80.9512H85.7153V85.7134Z" fill="#F68DB9"/>
<path d="M85.7153 95.2383L90.4766 95.2388V90.4771L85.7153 90.4766V95.2383Z" fill="#F68DB9"/>
<path d="M71.4258 80.9524H76.188V76.1914H71.4258V80.9524Z" fill="#F35B9D"/>
<path d="M66.668 80.9524H71.429V76.1914H66.668V80.9524Z" fill="#F35B9D"/>
<path d="M61.9028 80.9524H66.6646V76.1914H61.9028V80.9524Z" fill="#F35B9D"/>
<path d="M80.9536 80.9524H85.7148V76.1914H80.9536V80.9524Z" fill="#231F20"/>
<path d="M85.7153 99.9993L90.4766 100V95.2388L85.7153 95.2383V99.9993Z" fill="#F35B9D"/>
<path d="M95.2388 104.762L100 104.762V99.9993L95.2388 100V104.762Z" fill="#F35B9D"/>
<path d="M57.1406 66.6665H61.9028L61.9023 61.9036L57.1406 61.9043V66.6665Z" fill="#231F20"/>
<path d="M61.9023 123.809H66.6646V119.047H61.9023V123.809Z" fill="#231F20"/>
<path d="M61.9028 66.6665H66.6646V61.9036H61.9023L61.9028 66.6665Z" fill="#F68DB9"/>
<path d="M66.668 66.6665H71.429V61.9036H66.668V66.6665Z" fill="#F35B9D"/>
<path d="M66.668 119.047V123.809H71.429V119.047H66.668Z" fill="#A92F59"/>
<path d="M104.762 95.2388L109.523 95.2383V90.4766H104.762V95.2388Z" fill="#F68DB9"/>
<path d="M104.762 90.4766H109.523V85.7148H104.762V90.4766Z" fill="#231F20"/>
<path d="M104.762 99.9994L109.523 100V95.2383L104.762 95.2388L104.762 99.9994Z" fill="#F35B9D"/>
<path d="M104.762 104.762L109.523 104.762V100L104.762 99.9994L104.762 104.762Z" fill="#F35B9D"/>
<path d="M71.4258 66.6665H76.188V61.9036H71.4258V66.6665Z" fill="#F35B9D"/>
<path d="M104.762 80.9524H109.523V76.1914H104.762V80.9524Z" fill="#231F20"/>
<path d="M104.762 85.7134H109.523V80.9512H104.762V85.7134Z" fill="#F68DB9"/>
<path d="M104.762 114.284H109.523V109.524L104.762 109.523V114.284Z" fill="#F35B9D"/>
<path d="M104.762 109.523L109.523 109.524V104.762L104.762 104.762V109.523Z" fill="#F35B9D"/>
<path d="M80.9531 123.809H85.7153V119.047H80.9531V123.809Z" fill="#F35B9D"/>
<path d="M76.1914 123.809H80.9531V119.047H76.1914V123.809Z" fill="#F35B9D"/>
<path d="M85.7153 123.809H90.4759V119.047H85.7153V123.809Z" fill="#CD4378"/>
<path d="M104.762 119.047H109.523V114.284H104.762V119.047Z" fill="#CD4378"/>
<path d="M71.4258 123.809H76.188V119.047H71.4258V123.809Z" fill="#CD4378"/>
<path d="M100 123.809H104.762V119.047L100 119.047V123.809Z" fill="#231F20"/>
<path d="M104.762 123.809L109.523 123.809V119.047H104.762V123.809Z" fill="#231F20"/>
<path d="M90.4759 123.809H95.2388V119.047H90.4759V123.809Z" fill="#231F20"/>
<path d="M95.2388 123.809H100V119.047H95.2388V123.809Z" fill="#231F20"/>
<path d="M52.3789 109.524H57.1406V104.762H52.3789V109.524Z" fill="#231F20"/>
<path d="M57.1406 114.286H61.9023L61.9028 109.524H57.1406V114.286Z" fill="#231F20"/>
<path d="M76.1914 66.6665H80.9536L80.9531 61.9036H76.1914V66.6665Z" fill="#CD4378"/>
<path d="M76.1914 71.4277H80.9536V66.6665H76.1914V71.4277Z" fill="#231F20"/>
<path d="M52.3789 104.762H57.1406V99.9993L52.3789 100V104.762Z" fill="#231F20"/>
<path d="M52.3789 100L57.1406 99.9993V95.2383H52.3789V100Z" fill="#231F20"/>
<path d="M61.9023 119.047H66.6646V114.286H61.9023V119.047Z" fill="#A92F59"/>
<path d="M66.668 114.286V119.047H71.429V114.284L66.668 114.286Z" fill="#CD4378"/>
<path d="M71.4258 119.047H76.188V114.284H71.4258V119.047Z" fill="#F35B9D"/>
<path d="M57.1406 119.046L61.9023 119.047V114.286H57.1406V119.046Z" fill="#231F20"/>
<path d="M52.3789 95.2383H57.1406V90.4771L52.3789 90.4766V95.2383Z" fill="#231F20"/>
<path d="M52.3789 85.7134H57.1406V80.9512H52.3789V85.7134Z" fill="#231F20"/>
<path d="M52.3789 90.4766L57.1406 90.4771V85.7148H52.3789V90.4766Z" fill="#231F20"/>
<path d="M61.9028 71.4277H66.6646V66.6665H61.9028V71.4277Z" fill="#F35B9D"/>
<path d="M66.668 71.4277H71.429V66.6665H66.668V71.4277Z" fill="#F35B9D"/>
<path d="M71.4258 71.4277H76.188V66.6665H71.4258V71.4277Z" fill="#F35B9D"/>
<path d="M57.1406 71.4277H61.9028V66.6665H57.1406V71.4277Z" fill="#231F20"/>
<path d="M52.3789 80.9524H57.1406V76.1914H52.3789V80.9524Z" fill="#231F20"/>
<path d="M76.1914 119.047H80.9531L80.9536 114.284H76.1914V119.047Z" fill="#F35B9D"/>
<path d="M52.3789 76.1899H57.1406V71.4277H52.3789V76.1899Z" fill="#231F20"/>
<path d="M100 85.7134H104.762V80.9512H100V85.7134Z" fill="#F68DB9"/>
<path d="M100 80.9524H104.762V76.1914H100V80.9524Z" fill="#231F20"/>
<path d="M80.9531 119.047H85.7153L85.7148 114.284H80.9536L80.9531 119.047Z" fill="#CD4378"/>
<path d="M80.9536 66.6665H85.7153V61.9036H80.9531L80.9536 66.6665Z" fill="#231F20"/>
<path d="M100 90.4771L104.762 90.4766V85.7148H100V90.4771Z" fill="#231F20"/>
<path d="M95.2388 119.047H100L100 114.284H95.2388V119.047Z" fill="#CD4378"/>
<path d="M90.4759 119.047H95.2388V114.284H90.4766L90.4759 119.047Z" fill="#CD4378"/>
<path d="M100 119.047L104.762 119.047V114.284H100L100 119.047Z" fill="#CD4378"/>
<path d="M100 95.2383L104.762 95.2388V90.4766L100 90.4771V95.2383Z" fill="#F68DB9"/>
<path d="M85.7153 119.047H90.4759L90.4766 114.284H85.7148L85.7153 119.047Z" fill="#231F20"/>
<path d="M100 104.762L104.762 104.762L104.762 99.9994L100 99.9993V104.762Z" fill="#F35B9D"/>
<path d="M100 114.284H104.762V109.523L100 109.524V114.284Z" fill="#F35B9D"/>
<path d="M100 99.9993L104.762 99.9994L104.762 95.2388L100 95.2383V99.9993Z" fill="#F35B9D"/>
<path d="M100 109.524L104.762 109.523V104.762L100 104.762V109.524Z" fill="#F35B9D"/>
<path d="M90.4759 152.381H95.2388V147.619H90.4766L90.4759 152.381Z" fill="#231F20"/>
<path d="M19.0469 38.0942H23.8079V33.332H19.0469V38.0942Z" fill="#231F20"/>
<path d="M19.0469 42.8579H23.8079V38.0957H19.0469V42.8579Z" fill="#231F20"/>
<path d="M23.8079 38.0942H28.5708V33.332H23.8079V38.0942Z" fill="#E28C85"/>
<path d="M28.5708 38.0942H33.3325V33.332H28.5708V38.0942Z" fill="#E28C85"/>
<path d="M80.9531 152.381H85.7153V147.619H80.9531V152.381Z" fill="#231F20"/>
<path d="M85.7153 152.381H90.4759L90.4766 147.619H85.7153V152.381Z" fill="#D6716C"/>
<path d="M33.3325 38.0942H38.0942V33.332H33.3325V38.0942Z" fill="#E28C85"/>
<path d="M128.57 95.2388H133.333V90.4766H128.57V95.2388Z" fill="#F68DB9"/>
<path d="M128.57 90.4766H133.333V85.7148H128.57V90.4766Z" fill="#231F20"/>
<path d="M128.57 133.331H133.333V128.57H128.57V133.331Z" fill="#231F20"/>
<path d="M128.57 128.57H133.333V123.809H128.57V128.57Z" fill="#A92F59"/>
<path d="M128.57 123.809H133.333V119.047H128.57V123.809Z" fill="#CD4378"/>
<path d="M100 138.095H104.762L104.762 133.333L100 133.334V138.095Z" fill="#231F20"/>
<path d="M128.57 104.762H133.333V100H128.57V104.762Z" fill="#231F20"/>
<path d="M128.57 109.524H133.333V104.762H128.57V109.524Z" fill="white"/>
<path d="M128.57 119.047H133.333V114.285H128.57V119.047Z" fill="#CD4378"/>
<path d="M128.57 100H133.333V95.2388H128.57V100Z" fill="#F35B9D"/>
<path d="M61.9023 38.0942H66.6646V33.332H61.9023V38.0942Z" fill="#CD4378"/>
<path d="M85.7148 38.0942H90.4759V33.332H85.7148V38.0942Z" fill="#231F20"/>
<path d="M66.668 38.0942H71.429V33.332H66.668V38.0942Z" fill="#F35B9D"/>
<path d="M76.1914 38.0942H80.9536V33.332H76.1914V38.0942Z" fill="#F35B9D"/>
<path d="M80.9536 38.0942H85.7148V33.332H80.9536V38.0942Z" fill="#F35B9D"/>
<path d="M71.429 38.0942H76.1914V33.332H71.429V38.0942Z" fill="#F35B9D"/>
<path d="M47.6172 38.0942H52.3794V33.332H47.6172V38.0942Z" fill="#CD4378"/>
<path d="M57.1406 38.0942H61.9023V33.332H57.1406V38.0942Z" fill="#CD4378"/>
<path d="M52.3794 38.0942H57.1406V33.332H52.3794V38.0942Z" fill="#CD4378"/>
<path d="M42.8555 38.0942H47.6172V33.332H42.8555V38.0942Z" fill="#231F20"/>
<path d="M38.0942 38.0942H42.8555V33.332H38.0942V38.0942Z" fill="#E28C85"/>
<path d="M28.5703 33.3333H33.3325V28.5728H28.5708L28.5703 33.3333Z" fill="#F9B2AE"/>
<path d="M23.8086 33.3333H28.5703L28.5708 28.5728H23.8086V33.3333Z" fill="#F9B2AE"/>
<path d="M38.0939 33.3331H42.8561L42.8561 28.5728L38.0939 28.5721V33.3331Z" fill="#F9B2AE"/>
<path d="M19.0469 33.3333H23.8086V28.5728H19.0474L19.0469 33.3333Z" fill="#231F20"/>
<path d="M33.3325 33.3333L38.0939 33.3331L38.0931 28.5728H33.3325V33.3333Z" fill="#F9B2AE"/>
<path d="M14.2854 42.8579H19.0469V38.0957L14.2854 38.0962V42.8579Z" fill="#231F20"/>
<path d="M14.2854 33.334L19.0469 33.3333L19.0474 28.5728H14.2852L14.2854 33.334Z" fill="#231F20"/>
<path d="M14.2852 38.0942H19.0469V33.332H14.2852V38.0942Z" fill="#231F20"/>
<path d="M71.4258 33.3333H76.188V28.5728H71.4258V33.3333Z" fill="#F35B9D"/>
<path d="M76.1914 33.3333H80.9536V28.5728H76.1914V33.3333Z" fill="#F35B9D"/>
<path d="M80.9536 33.3333H85.7153L85.7148 28.5728H80.9536V33.3333Z" fill="#F35B9D"/>
<path d="M85.7153 33.3333H90.4759V28.5728H85.7148L85.7153 33.3333Z" fill="#231F20"/>
<path d="M66.668 33.3333H71.4302V28.5723L66.668 28.5728V33.3333Z" fill="#F35B9D"/>
<path d="M47.6211 33.3333H52.3821V28.5723H47.6211V33.3333Z" fill="#F35B9D"/>
<path d="M52.3789 33.3333H57.1411V28.5723L52.3794 28.5728L52.3789 33.3333Z" fill="#F35B9D"/>
<path d="M57.1445 33.3333H61.9067V28.5723H57.1445V33.3333Z" fill="#F35B9D"/>
<path d="M61.9067 33.3333H66.668V28.5728L61.9067 28.5723V33.3333Z" fill="#F35B9D"/>
<path d="M42.8561 33.3331L47.6177 33.3333L47.6172 28.5728H42.8561L42.8561 33.3331Z" fill="#231F20"/>
<path d="M133.333 123.809L138.094 123.809V119.047L133.333 119.047V123.809Z" fill="#CD4378"/>
<path d="M133.333 119.047L138.094 119.047V114.284L133.333 114.285V119.047Z" fill="#F35B9D"/>
<path d="M133.333 128.57L138.094 128.571L138.094 123.809L133.333 123.809V128.57Z" fill="#231F20"/>
<path d="M133.333 95.2388L138.094 95.2383L138.094 90.4766H133.333V95.2388Z" fill="#231F20"/>
<path d="M133.333 104.762H138.094V100H133.333V104.762Z" fill="#F35B9D"/>
<path d="M133.333 114.285L138.094 114.284V109.523L133.333 109.524V114.285Z" fill="#CD4378"/>
<path d="M133.333 109.524L138.094 109.523V104.762H133.333V109.524Z" fill="#231F20"/>
<path d="M133.333 100H138.094V95.2383L133.333 95.2388V100Z" fill="#F68DB9"/>
<path d="M104.762 152.381H109.523L109.523 147.619H104.762L104.762 152.381Z" fill="#D6716C"/>
<path d="M109.523 152.381H114.286V147.619L109.523 147.619L109.523 152.381Z" fill="#231F20"/>
<path d="M100 152.381H104.762L104.762 147.619L100 147.619V152.381Z" fill="#231F20"/>
<path d="M128.57 114.285H133.333V109.524H128.57V114.285Z" fill="#231F20"/>
<path d="M104.762 142.856H109.523V138.094H104.762V142.856Z" fill="#D6716C"/>
<path d="M100 142.856H104.762V138.094H100V142.856Z" fill="#231F20"/>
<path d="M109.523 142.856H114.286V138.094H109.523V142.856Z" fill="#231F20"/>
<path d="M90.4766 142.856H95.2388V138.094H90.4766V142.856Z" fill="#231F20"/>
<path d="M85.7148 142.856H90.4766V138.094H85.7148V142.856Z" fill="#D6716C"/>
<path d="M80.9531 142.856H85.7148V138.094H80.9531V142.856Z" fill="#231F20"/>
<path d="M119.047 85.7134H123.808V80.9512H119.047V85.7134Z" fill="#231F20"/>
<path d="M123.808 133.333H128.571V128.572H123.808V133.333Z" fill="#231F20"/>
<path d="M119.047 95.2383L123.808 95.2388V90.4766H119.047L119.047 95.2383Z" fill="#F35B9D"/>
<path d="M119.047 100L123.808 99.9994L123.808 95.2388L119.047 95.2383L119.047 100Z" fill="#231F20"/>
<path d="M119.047 109.524H123.808V104.762H119.047V109.524Z" fill="#F35B9D"/>
<path d="M119.047 104.762H123.808V99.9994L119.047 100L119.047 104.762Z" fill="#F35B9D"/>
<path d="M114.285 138.095H119.047V133.333H114.285V138.095Z" fill="#231F20"/>
<path d="M109.523 138.095H114.285V133.333H109.523L109.523 138.095Z" fill="#231F20"/>
<path d="M119.047 138.095H123.808L123.808 133.333H119.047V138.095Z" fill="#231F20"/>
<path d="M104.762 138.095H109.523L109.523 133.333H104.762L104.762 138.095Z" fill="#231F20"/>
<path d="M119.047 119.047L123.808 119.047V114.285H119.047L119.047 119.047Z" fill="#C8C4C3"/>
<path d="M119.047 123.809L123.808 123.809L123.808 119.047L119.047 119.047L119.047 123.809Z" fill="#231F20"/>
<path d="M119.047 133.333H123.808V128.572H119.047V133.333Z" fill="#A92F59"/>
<path d="M119.047 114.285H123.808L123.808 109.524H119.047L119.047 114.285Z" fill="#231F20"/>
<path d="M119.047 90.4766H123.808V85.7148H119.047V90.4766Z" fill="#F35B9D"/>
<path d="M66.668 47.6191H71.429V42.8574H66.668V47.6191Z" fill="#231F20"/>
<path d="M80.9536 47.6191H85.7139L85.7139 42.8575H80.9529L80.9536 47.6191Z" fill="#F35B9D"/>
<path d="M76.1914 47.6191H80.9536L80.9529 42.8575L76.1914 42.8574V47.6191Z" fill="#F35B9D"/>
<path d="M71.4258 47.6191H76.188V42.8574H71.4258V47.6191Z" fill="#F35B9D"/>
<path d="M85.7148 47.6196L90.4759 47.6191V42.8574L85.7139 42.8575L85.7148 47.6196Z" fill="#231F20"/>
<path d="M119.047 128.571H123.808L123.808 123.809L119.047 123.809V128.571Z" fill="#CD4378"/>
<path d="M104.762 147.619H109.523L109.523 142.857H104.762L104.762 147.619Z" fill="#F89A97"/>
<path d="M100 147.619L104.762 147.619L104.762 142.857H100V147.619Z" fill="#231F20"/>
<path d="M90.4766 147.619H95.2388V142.857H90.4766V147.619Z" fill="#231F20"/>
<path d="M85.7153 147.619H90.4766V142.857H85.7148L85.7153 147.619Z" fill="#F89A97"/>
<path d="M80.9531 147.619H85.7153L85.7148 142.857H80.9531V147.619Z" fill="#231F20"/>
<path d="M109.523 147.619L114.286 147.619V142.857H109.523L109.523 147.619Z" fill="#231F20"/>
<path d="M28.5742 42.8579H33.3352V38.0957H28.5742V42.8579Z" fill="#231F20"/>
<path d="M123.808 109.524L128.57 109.524V104.762L123.808 104.762V109.524Z" fill="#231F20"/>
<path d="M123.808 119.047L128.57 119.047V114.285H123.808V119.047Z" fill="#231F20"/>
<path d="M123.808 114.285H128.57V109.524L123.808 109.524L123.808 114.285Z" fill="white"/>
<path d="M123.808 123.809L128.57 123.809V119.047L123.808 119.047L123.808 123.809Z" fill="#CD4378"/>
<path d="M123.808 95.2388H128.57V90.4766H123.808V95.2388Z" fill="#F35B9D"/>
<path d="M123.808 90.4766H128.57V85.7148H123.808V90.4766Z" fill="#F68DB9"/>
<path d="M123.808 85.7134H128.571V80.9512H123.808V85.7134Z" fill="#231F20"/>
<path d="M123.808 104.762L128.57 104.762V100L123.808 99.9994V104.762Z" fill="#F68DB9"/>
<path d="M123.808 99.9994L128.57 100V95.2388H123.808L123.808 99.9994Z" fill="#231F20"/>
<path d="M66.668 42.8574H71.429V38.0957H66.668V42.8574Z" fill="#CD4378"/>
<path d="M42.8555 42.8579H47.6177V38.0957H42.8555V42.8579Z" fill="#231F20"/>
<path d="M47.6177 42.8579H52.3794V38.0957H47.6177V42.8579Z" fill="#231F20"/>
<path d="M38.0939 42.8579H42.8555V38.0957H38.0939V42.8579Z" fill="#231F20"/>
<path d="M52.3794 42.8579H57.1399V38.0957H52.3794V42.8579Z" fill="#231F20"/>
<path d="M57.1399 42.8579H61.9028V38.0957H57.1399V42.8579Z" fill="#231F20"/>
<path d="M61.9028 42.8579H66.6646V38.0957H61.9028V42.8579Z" fill="#231F20"/>
<path d="M33.332 42.8579H38.0939V38.0957H33.332V42.8579Z" fill="#231F20"/>
<path d="M23.8079 42.8579H28.5708V38.0957H23.8079V42.8579Z" fill="#231F20"/>
<path d="M123.808 128.571L128.57 128.57V123.809L123.808 123.809L123.808 128.571Z" fill="#CD4378"/>
<path d="M71.4258 42.8574H76.188V38.0957H71.4258V42.8574Z" fill="#F35B9D"/>
<path d="M76.1914 42.8574L80.9529 42.8575L80.9536 38.0957H76.1914V42.8574Z" fill="#F35B9D"/>
<path d="M80.9529 42.8575L85.7153 42.8579V38.0957H80.9536L80.9529 42.8575Z" fill="#F35B9D"/>
<path d="M85.7139 42.8575L90.4759 42.8574V38.0957H85.7153L85.7139 42.8575Z" fill="#231F20"/>
<path d="M104.762 190.476H109.523V185.715H104.762V190.476Z" fill="#F89A97"/>
<path d="M76.1914 190.475H80.9536V185.713H76.1914V190.475Z" fill="#231F20"/>
<path d="M80.9536 190.475H85.7153V185.713H80.9536V190.475Z" fill="#231F20"/>
<path d="M85.7153 185.713V190.475H90.4759V185.713H85.7153Z" fill="#F89A97"/>
<path d="M100 190.476H104.762V185.715H100V190.476Z" fill="#231F20"/>
<path d="M90.4766 190.476H95.2388V185.715H90.4766V190.476Z" fill="#231F20"/>
<path d="M109.523 190.476H114.286V185.715H109.523V190.476Z" fill="#231F20"/>
<path d="M114.286 190.476H119.047V185.715H114.286V190.476Z" fill="#231F20"/>
<path d="M47.6172 4.76172H52.3789L52.3794 0H47.6172V4.76172Z" fill="#231F20"/>
<path d="M71.4258 4.76172H76.188V0H71.4258V4.76172Z" fill="#231F20"/>
<path d="M66.668 4.76172H71.429V0H66.668V4.76172Z" fill="#231F20"/>
<path d="M52.3789 4.76172H57.1406L57.1399 0H52.3794L52.3789 4.76172Z" fill="#231F20"/>
<path d="M57.1406 4.76172H61.9023L61.9028 0H57.1399L57.1406 4.76172Z" fill="#231F20"/>
<path d="M61.9023 4.76172H66.6646V0H61.9028L61.9023 4.76172Z" fill="#231F20"/>
<path d="M109.523 185.715H114.286V180.953H109.523L109.523 185.715Z" fill="#231F20"/>
<path d="M104.762 185.715H109.523L109.523 180.953H104.762V185.715Z" fill="#F89A97"/>
<path d="M100 185.715H104.762V180.953H100V185.715Z" fill="#231F20"/>
<path d="M90.4766 185.715H95.2388V180.953H90.4766V185.715Z" fill="#231F20"/>
<path d="M85.7148 185.714L90.4766 185.715V180.953H85.7148V185.714Z" fill="#F89A97"/>
<path d="M80.9531 185.714H85.7148V180.953H80.9531V185.714Z" fill="#231F20"/>
<path d="M76.1914 200.001H80.9536V195.238H76.1914V200.001Z" fill="#231F20"/>
<path d="M109.523 200.001H114.286V195.238H109.523V200.001Z" fill="#231F20"/>
<path d="M85.7148 200.001H90.4759V195.238H85.7148V200.001Z" fill="#231F20"/>
<path d="M71.4258 200.001H76.188V195.238H71.4258V200.001Z" fill="#231F20"/>
<path d="M104.762 200.001H109.523V195.238H104.762V200.001Z" fill="#231F20"/>
<path d="M90.4759 200.001H95.2388V195.238H90.4759V200.001Z" fill="#231F20"/>
<path d="M100 200.001H104.762V195.238H100V200.001Z" fill="#231F20"/>
<path d="M95.2388 200.001H100V195.238H95.2388V200.001Z" fill="#231F20"/>
<path d="M80.9536 200.001H85.7148V195.238H80.9536V200.001Z" fill="#231F20"/>
<path d="M114.286 200.001H119.047V195.238H114.286V200.001Z" fill="#231F20"/>
<path d="M119.047 200.001H123.808V195.238H119.047V200.001Z" fill="#231F20"/>
<path d="M95.2388 195.238H100V190.476H95.2388V195.238Z" fill="#231F20"/>
<path d="M100 195.238H104.762V190.476H100V195.238Z" fill="#D6716C"/>
<path d="M85.7148 190.477V195.238H90.4759L90.4766 190.476L85.7148 190.477Z" fill="#F89A97"/>
<path d="M104.762 195.237H109.523V190.475H104.762V195.237Z" fill="#F89A97"/>
<path d="M90.4759 195.238H95.2388V190.476H90.4766L90.4759 195.238Z" fill="#D6716C"/>
<path d="M119.047 195.237H123.808V190.475H119.047V195.237Z" fill="#231F20"/>
<path d="M109.523 195.238H114.286V190.476H109.523L109.523 195.238Z" fill="#F89A97"/>
<path d="M80.9536 195.238H85.7148V190.477H80.9531L80.9536 195.238Z" fill="#F89A97"/>
<path d="M114.285 195.237H119.047V190.475H114.285V195.237Z" fill="#F89A97"/>
<path d="M76.1914 195.238H80.9536L80.9531 190.477H76.1914V195.238Z" fill="#F89A97"/>
<path d="M71.4258 195.238H76.188V190.477H71.4258V195.238Z" fill="#231F20"/>
</svg>
