<svg width="93" height="33" viewBox="0 0 93 33" fill="none" xmlns="http://www.w3.org/2000/svg">
<mask id="mask0_3477_77983" style="mask-type:alpha" maskUnits="userSpaceOnUse" x="0" y="0" width="93" height="33">
<rect width="93" height="33" fill="#D9D9D9"/>
</mask>
<g mask="url(#mask0_3477_77983)">
<path d="M35.4839 60H37.0647V58.4242H35.4839V60Z" fill="#231F20"/>
<path d="M37.0641 60H38.6448V58.4242H37.0641V60Z" fill="#231F20"/>
<path d="M60.7744 60H62.3548V58.4242H60.7744V60Z" fill="#231F20"/>
<path d="M59.1932 60H60.774V58.4242H59.1932V60Z" fill="#231F20"/>
<path d="M62.3548 60H63.9353V58.4242H62.3548V60Z" fill="#231F20"/>
<path d="M38.6452 60H40.2256V58.4242H38.6452V60Z" fill="#231F20"/>
<path d="M54.4518 60H56.0325V58.4242H54.4518V60Z" fill="#231F20"/>
<path d="M57.6131 60H59.1932V58.4242H57.6131V60Z" fill="#231F20"/>
<path d="M63.9357 60H65.5165V58.4242H63.9357V60Z" fill="#231F20"/>
<path d="M65.5158 60H67.0966V58.4242H65.5158V60Z" fill="#231F20"/>
<path d="M56.0329 60H57.6137V58.4242H56.0329V60Z" fill="#231F20"/>
<path d="M43.3867 60H44.9671V58.4242H43.3867V60Z" fill="#231F20"/>
<path d="M52.8716 60H54.4524V58.4242H52.8716V60Z" fill="#231F20"/>
<path d="M41.8066 60H43.3873V58.4242H41.8066V60Z" fill="#231F20"/>
<path d="M44.9679 58.4242V60H46.5486V58.4242H44.9679Z" fill="#231F20"/>
<path d="M40.2256 60H41.8061V58.4242H40.2256V60Z" fill="#231F20"/>
<path d="M46.548 60H48.1288V58.4242H46.548V60Z" fill="#231F20"/>
<path d="M49.7103 60H51.2911V58.4242H49.7103V60Z" fill="#231F20"/>
<path d="M51.2905 60H52.8708V58.4242H51.2905V60Z" fill="#231F20"/>
<path d="M48.1291 60H49.7099V58.4242H48.1291V60Z" fill="#231F20"/>
<path d="M33.9028 12.7273H35.4835V11.1515H33.9028V12.7273Z" fill="#231F20"/>
<path d="M48.1291 12.7273H49.7099V11.1515H48.1291V12.7273Z" fill="#231F20"/>
<path d="M38.6452 12.7273H40.2256V11.1515H38.6452V12.7273Z" fill="#A7AED5"/>
<path d="M35.4839 12.7273H37.0647V11.1515H35.4839V12.7273Z" fill="#231F20"/>
<path d="M37.0641 12.7273H38.6448V11.1515H37.0641V12.7273Z" fill="#858AAD"/>
<path d="M52.8716 12.7273H54.4524V11.1515H52.8716V12.7273Z" fill="#231F20"/>
<path d="M59.1932 12.7273H60.774V11.1515H59.1932V12.7273Z" fill="#A7AED5"/>
<path d="M60.7744 12.7273H62.3548V11.1515H60.7744V12.7273Z" fill="#231F20"/>
<path d="M57.6131 12.7273H59.1932V11.1515H57.6131V12.7273Z" fill="#858AAD"/>
<path d="M49.7103 12.7273H51.2911V11.1515H49.7103V12.7273Z" fill="#A7AED5"/>
<path d="M51.2905 12.7273H52.8708V11.1515H51.2905V12.7273Z" fill="#858AAD"/>
<path d="M56.0329 12.7273H57.6137V11.1515H56.0329V12.7273Z" fill="#231F20"/>
<path d="M32.3226 12.7273H33.9028V11.1515H32.3226V12.7273Z" fill="#858AAD"/>
<path d="M54.4518 12.7273H56.0325V11.1515H54.4518V12.7273Z" fill="#231F20"/>
<path d="M40.2256 12.7273H41.8061V11.1515H40.2256V12.7273Z" fill="#231F20"/>
<path d="M29.1613 12.7273H30.7421V11.1515H29.1613V12.7273Z" fill="#231F20"/>
<path d="M30.7425 12.7273H32.3232V11.1515H30.7425V12.7273Z" fill="#A7AED5"/>
<path d="M32.3226 11.1515H33.9028L33.9029 9.57574H32.3226V11.1515Z" fill="#A7AED5"/>
<path d="M30.7425 11.1515H32.3232V9.57574H30.7425V11.1515Z" fill="#231F20"/>
<path d="M33.9028 11.1515H35.4835V9.57574H33.9029L33.9028 11.1515Z" fill="#A7AED5"/>
<path d="M35.4839 11.1515H37.0647V9.57574H35.4839V11.1515Z" fill="#A7AED5"/>
<path d="M37.0641 11.1515H38.6448V9.57574H37.0641V11.1515Z" fill="#A7AED5"/>
<path d="M38.6452 11.1515H40.2256V9.57574H38.6452V11.1515Z" fill="#231F20"/>
<path d="M49.7103 11.1515H51.2911V9.57574H49.7103V11.1515Z" fill="#231F20"/>
<path d="M51.2905 11.1515H52.8708V9.57574H51.2905V11.1515Z" fill="#A7AED5"/>
<path d="M52.8716 11.1515H54.4524V9.57574H52.8716V11.1515Z" fill="#A7AED5"/>
<path d="M54.4518 11.1515H56.0325V9.57574H54.4518V11.1515Z" fill="#A7AED5"/>
<path d="M71.8395 55.2727H73.4202V53.6969H71.8395V55.2727Z" fill="#626682"/>
<path d="M71.8395 56.8481H73.4202V55.2727H71.8395V56.8481Z" fill="#231F20"/>
<path d="M71.8395 53.6969H73.4202V52.1212H71.8395V53.6969Z" fill="#858AAD"/>
<path d="M71.8395 52.1208H73.4202V50.5449H71.8395V52.1208Z" fill="#A7AED5"/>
<path d="M71.8395 50.5449H73.4202V48.9692H71.8395V50.5449Z" fill="#231F20"/>
<path d="M57.6131 11.1515H59.1932L59.1935 9.57574H57.6131V11.1515Z" fill="#A7AED5"/>
<path d="M59.1932 11.1515H60.774V9.57574H59.1935L59.1932 11.1515Z" fill="#231F20"/>
<path d="M56.0329 11.1515H57.6137V9.57574H56.0329V11.1515Z" fill="#A7AED5"/>
<path d="M54.4518 56.8481H56.0325V55.2727H54.4518V56.8481Z" fill="#373E52"/>
<path d="M62.3545 14.3036H63.9353V12.7277H62.3545V14.3036Z" fill="#231F20"/>
<path d="M52.8716 14.3036H54.4524V12.7277H52.8716V14.3036Z" fill="#D45D60"/>
<path d="M60.7744 14.3036H62.3545V12.7277H60.7744V14.3036Z" fill="#A7AED5"/>
<path d="M56.0329 14.3036H57.6137V12.7277H56.0329V14.3036Z" fill="#D45D60"/>
<path d="M59.1932 14.3036H60.774V12.7277H59.1932V14.3036Z" fill="#858AAD"/>
<path d="M54.4518 14.3036H56.0325V12.7277H54.4518V14.3036Z" fill="#D45D60"/>
<path d="M57.6131 14.3036H59.1932V12.7277H57.6131V14.3036Z" fill="#231F20"/>
<path d="M26 20.6065H27.5804V19.0307H26V20.6065Z" fill="#231F20"/>
<path d="M38.6452 14.3036H40.2256V12.7277H38.6452V14.3036Z" fill="#858AAD"/>
<path d="M51.2905 14.3036H52.8708V12.7277H51.2905V14.3036Z" fill="#231F20"/>
<path d="M30.7425 14.3036H32.3232V12.7277H30.7425V14.3036Z" fill="#858AAD"/>
<path d="M32.3226 14.3036H33.9029V12.7277H32.3226V14.3036Z" fill="#231F20"/>
<path d="M27.5801 14.3036H29.1609V12.7277H27.5801V14.3036Z" fill="#231F20"/>
<path d="M33.9029 14.3036H35.4835V12.7277H33.9029V14.3036Z" fill="#D45D60"/>
<path d="M35.4839 14.3036H37.0647V12.7277H35.4839V14.3036Z" fill="#D45D60"/>
<path d="M26 17.4545H27.5804V15.8787H26V17.4545Z" fill="#231F20"/>
<path d="M26 15.8793H27.5804L27.5801 14.3036L26 14.3035V15.8793Z" fill="#231F20"/>
<path d="M29.1613 14.3036H30.7421V12.7277H29.1613V14.3036Z" fill="#A7AED5"/>
<path d="M48.1291 14.3036H49.7099V12.7277H48.1291V14.3036Z" fill="#231F20"/>
<path d="M49.7103 14.3036H51.2911V12.7277H49.7103V14.3036Z" fill="#858AAD"/>
<path d="M40.2256 14.3036H41.8061V12.7277H40.2256V14.3036Z" fill="#231F20"/>
<path d="M37.0641 14.3036H38.6448V12.7277H37.0641V14.3036Z" fill="#231F20"/>
<path d="M46.548 56.8481H48.1288V55.2727H46.548V56.8481Z" fill="#373E52"/>
<path d="M48.1291 56.8482H49.7099V55.2727H48.1291V56.8482Z" fill="#373E52"/>
<path d="M49.7103 56.8481H51.2911V55.2727H49.7103V56.8481Z" fill="#373E52"/>
<path d="M59.1932 56.8481H60.774V55.2727H59.1932V56.8481Z" fill="#858AAD"/>
<path d="M41.8066 56.8482H43.3873V55.2727H41.8066V56.8482Z" fill="#626682"/>
<path d="M43.3867 56.8481H44.9671V55.2727H43.3867V56.8481Z" fill="#231F20"/>
<path d="M56.0329 56.8481H57.6137V55.2727H56.0329V56.8481Z" fill="#231F20"/>
<path d="M57.6131 56.8481H59.1932V55.2727H57.6131V56.8481Z" fill="#858AAD"/>
<path d="M51.2905 56.8481H52.8708V55.2727H51.2905V56.8481Z" fill="#373E52"/>
<path d="M52.8716 56.8481H54.4524V55.2727H52.8716V56.8481Z" fill="#373E52"/>
<path d="M44.9679 56.8481H46.5486V55.2727H44.9679V56.8481Z" fill="#373E52"/>
<path d="M40.2254 56.8481H41.8061V55.2727H40.2254V56.8481Z" fill="#858AAD"/>
<path d="M38.6452 56.8481H40.2254V55.2727H38.6452V56.8481Z" fill="#858AAD"/>
<path d="M37.0641 56.8481H38.6448V55.2727H37.0641V56.8481Z" fill="#231F20"/>
<path d="M68.6772 55.2727H70.2579V53.6969H68.6772V55.2727Z" fill="#231F20"/>
<path d="M68.6772 44.2422H70.2579V42.6667H68.6772V44.2422Z" fill="#231F20"/>
<path d="M68.6772 47.3941H70.2579V45.8182H68.6772V47.3941Z" fill="#231F20"/>
<path d="M68.6772 48.9698H70.2579V47.3941H68.6772V48.9698Z" fill="#231F20"/>
<path d="M60.7785 56.8481H62.3588V55.2727H60.7785V56.8481Z" fill="#858AAD"/>
<path d="M68.6772 45.8178H70.2579V44.2422H68.6772V45.8178Z" fill="#231F20"/>
<path d="M65.5158 56.8481H67.0966V55.2727H65.5158V56.8481Z" fill="#626682"/>
<path d="M63.9357 56.8482H65.5165V55.2727H63.9357V56.8482Z" fill="#858AAD"/>
<path d="M62.3413 56.8481H63.9221V55.2727H62.3413V56.8481Z" fill="#858AAD"/>
<path d="M67.097 56.8481H68.6774L68.6772 55.2727L67.097 55.2727V56.8481Z" fill="#373E52"/>
<path d="M68.6772 50.5451H70.2579V48.9692H68.6772V50.5451Z" fill="#231F20"/>
<path d="M68.6772 53.6969H70.2579V52.1212H68.6772V53.6969Z" fill="#231F20"/>
<path d="M68.6772 52.1208H70.2579V50.5451H68.6772V52.1208Z" fill="#231F20"/>
<path d="M68.6774 56.8481H70.2579V55.2727H68.6772L68.6774 56.8481Z" fill="#231F20"/>
<path d="M26 19.0307H27.5804V17.4549H26V19.0307Z" fill="#231F20"/>
<path d="M70.2583 52.1208H71.839V50.5449H70.2583V52.1208Z" fill="#858AAD"/>
<path d="M70.2583 50.5449H71.839V48.9692H70.2583V50.5449Z" fill="#A7AED5"/>
<path d="M70.2583 55.2727H71.839V53.6969H70.2583V55.2727Z" fill="#858AAD"/>
<path d="M70.2583 53.6969H71.839L71.839 52.1212H70.2583L70.2583 53.6969Z" fill="#858AAD"/>
<path d="M70.2583 56.8482H71.839V55.2727H70.2583V56.8482Z" fill="#626682"/>
<path d="M70.2583 48.9698H71.839V47.394H70.2583V48.9698Z" fill="#231F20"/>
<path d="M56.0329 58.4242H57.6137V56.8484H56.0329V58.4242Z" fill="#626682"/>
<path d="M26 22.1819H27.5804V20.6065H26V22.1819Z" fill="#231F20"/>
<path d="M70.2583 58.4243H71.839L71.839 56.8482H70.2583L70.2583 58.4243Z" fill="#231F20"/>
<path d="M59.1932 58.4242H60.774V56.8484H59.1932V58.4242Z" fill="#626682"/>
<path d="M62.3548 58.4242H63.9353V56.8484H62.3545L62.3548 58.4242Z" fill="#626682"/>
<path d="M60.7744 58.4242H62.3548L62.3545 56.8484H60.7744V58.4242Z" fill="#231F20"/>
<path d="M57.6131 58.4242H59.1932V56.8484H57.6131V58.4242Z" fill="#231F20"/>
<path d="M65.5158 58.4242H67.0966V56.8484H65.5158V58.4242Z" fill="#373E52"/>
<path d="M67.097 58.4243H68.6774V56.8484H67.097V58.4243Z" fill="#231F20"/>
<path d="M68.6774 58.4243H70.2579V56.8484H68.6774V58.4243Z" fill="#231F20"/>
<path d="M63.9357 58.4242H65.5165V56.8482H63.9357V58.4242Z" fill="#626682"/>
<path d="M46.548 58.4242H48.1288V56.8484H46.548V58.4242Z" fill="#626682"/>
<path d="M38.6452 58.4242H40.2256V56.8484H38.6452V58.4242Z" fill="#231F20"/>
<path d="M54.4518 58.4242H56.0325V56.8484H54.4518V58.4242Z" fill="#231F20"/>
<path d="M44.9679 58.4242H46.5486V56.8484H44.9679V58.4242Z" fill="#231F20"/>
<path d="M41.8066 58.4242H43.3873L43.3873 56.8482H41.8066L41.8066 58.4242Z" fill="#626682"/>
<path d="M40.2256 58.4242H41.8061V56.8484H40.2256V58.4242Z" fill="#626682"/>
<path d="M43.3867 58.4242H44.9671V56.8484H43.3867V58.4242Z" fill="#373E52"/>
<path d="M51.2905 58.4242H52.8708V56.8484H51.2905V58.4242Z" fill="#626682"/>
<path d="M52.8716 58.4242H54.4524V56.8484H52.8716V58.4242Z" fill="#373E52"/>
<path d="M48.1291 58.4242H49.7099L49.7099 56.8482H48.1291L48.1291 58.4242Z" fill="#626682"/>
<path d="M49.7103 58.4242H51.2911V56.8484H49.7103V58.4242Z" fill="#626682"/>
<path d="M35.4839 58.4242H37.0647V56.8484H35.4839V58.4242Z" fill="#231F20"/>
<path d="M37.0641 58.4242H38.6448V56.8484H37.0641V58.4242Z" fill="#626682"/>
<path d="M73.4196 55.2727H75V53.6969H73.4196V55.2727Z" fill="#231F20"/>
<path d="M73.4196 52.1208H75V50.5449H73.4196V52.1208Z" fill="#231F20"/>
<path d="M73.4196 53.6969H75V52.1212H73.4196V53.6969Z" fill="#231F20"/>
<path d="M57.6131 9.57574H59.1935V8H57.6131V9.57574Z" fill="#231F20"/>
<path d="M35.4839 9.57574H37.0647V8H35.4839V9.57574Z" fill="#231F20"/>
<path d="M37.0641 9.57574H38.6448V8H37.0641V9.57574Z" fill="#231F20"/>
<path d="M33.9029 9.57574H35.4835V8H33.9028L33.9029 9.57574Z" fill="#231F20"/>
<path d="M32.3226 9.57574H33.9029L33.9028 8H32.3226L32.3226 9.57574Z" fill="#231F20"/>
<path d="M52.8716 9.57574H54.4524V8H52.8716V9.57574Z" fill="#231F20"/>
<path d="M54.4518 9.57574H56.0325V8H54.4518V9.57574Z" fill="#231F20"/>
<path d="M56.0329 9.57574H57.6137V8H56.0329V9.57574Z" fill="#231F20"/>
<path d="M51.2905 9.57574H52.8708V8H51.2905V9.57574Z" fill="#231F20"/>
<path d="M48.1291 42.6669H49.7099V41.091H48.1291V42.6669Z" fill="#231F20"/>
<path d="M59.1932 28.4847H60.774V26.9089H59.1932V28.4847Z" fill="#231F20"/>
<path d="M59.1932 23.7576H60.774V22.1822H59.1932V23.7576Z" fill="#626682"/>
<path d="M56.0329 23.7576H57.6137V22.1822H56.0329V23.7576Z" fill="#858AAD"/>
<path d="M59.1932 25.3337H60.774V23.7579H59.1932V25.3337Z" fill="#231F20"/>
<path d="M59.1932 26.9089H60.774V25.3337H59.1932V26.9089Z" fill="#231F20"/>
<path d="M57.6131 23.7576H59.1932V22.1822H57.6131V23.7576Z" fill="#231F20"/>
<path d="M49.7103 23.7576H51.2911V22.1822H49.7103V23.7576Z" fill="#858AAD"/>
<path d="M54.4518 23.7576H56.0325V22.1822H54.4518V23.7576Z" fill="#858AAD"/>
<path d="M51.2905 23.7576H52.8712V22.1822H51.2905V23.7576Z" fill="#858AAD"/>
<path d="M57.6131 25.3337H59.1932V23.7579H57.6131V25.3337Z" fill="#A7AED5"/>
<path d="M59.1932 33.212H60.774V31.6366H59.1932V33.212Z" fill="#231F20"/>
<path d="M59.1932 41.0906H60.774V39.5148H59.1932V41.0906Z" fill="#858AAD"/>
<path d="M59.1932 39.5148H60.774V37.9396H59.1932V39.5148Z" fill="#858AAD"/>
<path d="M59.1932 30.061H60.774V28.4851H59.1932V30.061Z" fill="#231F20"/>
<path d="M59.1932 42.6669H60.774V41.091H59.1932V42.6669Z" fill="#231F20"/>
<path d="M59.1932 37.9396H60.774V36.3638H59.1932V37.9396Z" fill="#626682"/>
<path d="M59.1932 44.2422H60.774V42.6669H59.1932V44.2422Z" fill="#231F20"/>
<path d="M48.1291 23.7576H49.7099V22.1822H48.1291V23.7576Z" fill="#858AAD"/>
<path d="M59.1932 36.3638H60.774V34.7881H59.1932V36.3638Z" fill="#231F20"/>
<path d="M59.1932 31.6366H60.774V30.061H59.1932V31.6366Z" fill="#231F20"/>
<path d="M59.1932 34.7877H60.774V33.212H59.1932V34.7877Z" fill="#231F20"/>
<path d="M35.4839 28.4847H37.0647V26.9089H35.4839V28.4847Z" fill="#858AAD"/>
<path d="M35.4839 33.212H37.0647V31.6366H35.4839V33.212Z" fill="#858AAD"/>
<path d="M35.4839 34.7877H37.0647V33.212H35.4839V34.7877Z" fill="#858AAD"/>
<path d="M35.4839 36.3639H37.0647V34.7881H35.4839V36.3639Z" fill="#858AAD"/>
<path d="M35.4839 31.6366H37.0647V30.0609H35.4839V31.6366Z" fill="#858AAD"/>
<path d="M35.4839 30.0609H37.0647V28.4851H35.4839V30.0609Z" fill="#858AAD"/>
<path d="M35.4839 37.9397H37.0647V36.3639H35.4839V37.9397Z" fill="#626682"/>
<path d="M35.4839 39.515H37.0647V37.9397H35.4839V39.515Z" fill="#231F20"/>
<path d="M59.1932 45.8178H60.774V44.2422H59.1932V45.8178Z" fill="#231F20"/>
<path d="M43.3867 23.7576H44.9671V22.1822H43.3867V23.7576Z" fill="#858AAD"/>
<path d="M46.548 23.7576H48.1288V22.1822H46.548V23.7576Z" fill="#858AAD"/>
<path d="M41.8066 23.7576H43.3873V22.1822H41.8066V23.7576Z" fill="#858AAD"/>
<path d="M35.4839 26.9089H37.0647V25.3336H35.4839V26.9089Z" fill="#858AAD"/>
<path d="M44.9679 23.7576H46.5486V22.1822H44.9679V23.7576Z" fill="#858AAD"/>
<path d="M40.2254 23.7576H41.8061V22.1822H40.2254V23.7576Z" fill="#858AAD"/>
<path d="M35.4839 23.7576H37.0647V22.1822H35.4839V23.7576Z" fill="#858AAD"/>
<path d="M35.4839 25.3336H37.0647V23.7579H35.4839V25.3336Z" fill="#858AAD"/>
<path d="M38.6452 23.7576H40.2254V22.1822H38.6452V23.7576Z" fill="#858AAD"/>
<path d="M37.0641 23.7576H38.6448V22.1822H37.0641V23.7576Z" fill="#858AAD"/>
<path d="M37.0641 26.9091H38.6448V25.3336H37.0641V26.9091Z" fill="#858AAD"/>
<path d="M37.0641 25.3336H38.6448V23.7579H37.0641V25.3336Z" fill="#858AAD"/>
<path d="M40.2254 25.3337H41.8061V23.7579H40.2254V25.3337Z" fill="#858AAD"/>
<path d="M38.6452 25.3337H40.2254V23.7579H38.6452V25.3337Z" fill="#231F20"/>
<path d="M37.0641 28.4847H38.6448V26.9091H37.0641V28.4847Z" fill="#A7AED5"/>
<path d="M37.0641 34.7877H38.6448V33.2118H37.0641V34.7877Z" fill="#858AAD"/>
<path d="M41.8066 25.3337H43.3873V23.7579H41.8066V25.3337Z" fill="#858AAD"/>
<path d="M37.0641 36.3639H38.6448V34.7881H37.0641V36.3639Z" fill="#858AAD"/>
<path d="M37.0641 31.6367H38.6448V30.0609H37.0641V31.6367Z" fill="#858AAD"/>
<path d="M37.0641 30.0609H38.6448V28.4851H37.0641V30.0609Z" fill="#858AAD"/>
<path d="M37.0641 33.2118H38.6448V31.6367H37.0641V33.2118Z" fill="#858AAD"/>
<path d="M51.2905 25.3337H52.8712V23.7579H51.2905V25.3337Z" fill="#858AAD"/>
<path d="M59.1932 47.3941H60.774V45.8182H59.1932V47.3941Z" fill="#231F20"/>
<path d="M43.3867 25.3337H44.9671V23.7579H43.3867V25.3337Z" fill="#858AAD"/>
<path d="M56.0329 25.3337H57.6137V23.7579H56.0329V25.3337Z" fill="#858AAD"/>
<path d="M52.8716 25.3337H54.4524V23.7579H52.8716V25.3337Z" fill="#858AAD"/>
<path d="M49.7103 25.3337H51.2911V23.7579H49.7103V25.3337Z" fill="#231F20"/>
<path d="M44.9679 25.3337H46.5486V23.7579H44.9679V25.3337Z" fill="#858AAD"/>
<path d="M46.548 25.3337H48.1288V23.7579H46.548V25.3337Z" fill="#858AAD"/>
<path d="M48.1291 25.3337H49.7099V23.7579H48.1291V25.3337Z" fill="#858AAD"/>
<path d="M54.4518 25.3337H56.0325V23.7579H54.4518V25.3337Z" fill="#858AAD"/>
<path d="M49.7103 47.3941H51.2911V45.8182H49.7103V47.3941Z" fill="#626682"/>
<path d="M51.2905 47.3941H52.8708V45.8182H51.2905V47.3941Z" fill="#231F20"/>
<path d="M43.3867 47.3941H44.9671V45.8182H43.3867V47.3941Z" fill="#858AAD"/>
<path d="M44.9679 45.8182V47.3941H46.5486V45.8182H44.9679Z" fill="#858AAD"/>
<path d="M46.548 47.3941H48.1288V45.8182H46.548V47.3941Z" fill="#858AAD"/>
<path d="M37.0641 37.9397H38.6448V36.3639H37.0641V37.9397Z" fill="#858AAD"/>
<path d="M57.6131 47.3941H59.1932V45.8182H57.6131V47.3941Z" fill="#626682"/>
<path d="M52.8716 47.3941H54.4524V45.8182H52.8716V47.3941Z" fill="#A7AED5"/>
<path d="M56.0329 47.3941H57.6137V45.8182H56.0329V47.3941Z" fill="#858AAD"/>
<path d="M54.4518 47.3941H56.0325V45.8182H54.4518V47.3941Z" fill="#858AAD"/>
<path d="M48.1291 47.3941H49.7099V45.8182H48.1291V47.3941Z" fill="#858AAD"/>
<path d="M37.0641 41.0906H38.6448V39.5148H37.0641V41.0906Z" fill="#231F20"/>
<path d="M37.0641 39.5148H38.6448V37.9397H37.0641V39.5148Z" fill="#626682"/>
<path d="M38.6452 47.3941H40.2256V45.8182H38.6452V47.3941Z" fill="#231F20"/>
<path d="M40.2256 47.3941H41.8061V45.8182H40.2256V47.3941Z" fill="#858AAD"/>
<path d="M41.8066 47.3941H43.3873V45.8182H41.8066V47.3941Z" fill="#858AAD"/>
<path d="M38.6452 45.8178H40.2256V44.242H38.6452V45.8178Z" fill="#231F20"/>
<path d="M52.8716 23.7576H54.4524V22.1822H52.8716V23.7576Z" fill="#858AAD"/>
<path d="M33.9028 28.4847H35.4835V26.9089H33.9028V28.4847Z" fill="#858AAD"/>
<path d="M33.9028 22.1819H35.4835V20.6064H33.9028V22.1819Z" fill="#A7AED5"/>
<path d="M33.9028 30.061H35.4835V28.4851H33.9028V30.061Z" fill="#858AAD"/>
<path d="M33.9028 25.3337H35.4835V23.7579H33.9028V25.3337Z" fill="#858AAD"/>
<path d="M33.9028 23.7576H35.4835V22.1822H33.9028V23.7576Z" fill="#858AAD"/>
<path d="M33.9028 26.9089H35.4835V25.3337H33.9028V26.9089Z" fill="#858AAD"/>
<path d="M33.9028 31.6367H35.4835V30.061H33.9028V31.6367Z" fill="#858AAD"/>
<path d="M33.9038 36.3639H35.4845V34.7881H33.9038V36.3639Z" fill="#858AAD"/>
<path d="M33.9028 34.7877H35.4835V33.2118H33.9028V34.7877Z" fill="#858AAD"/>
<path d="M33.9028 33.2118H35.4835V31.6367H33.9028V33.2118Z" fill="#858AAD"/>
<path d="M48.1291 22.1819H49.7099V20.6064H48.1291V22.1819Z" fill="#858AAD"/>
<path d="M43.3867 22.1819H44.9671V20.6064H43.3867V22.1819Z" fill="#858AAD"/>
<path d="M46.548 22.1819H48.1288V20.6064H46.548V22.1819Z" fill="#A7AED5"/>
<path d="M44.9679 22.1819H46.5486V20.6064H44.9679V22.1819Z" fill="#858AAD"/>
<path d="M33.9028 37.9397H35.4835V36.3638H33.9028V37.9397Z" fill="#626682"/>
<path d="M40.2254 22.1819H41.8061V20.6064H40.2254V22.1819Z" fill="#858AAD"/>
<path d="M38.6452 22.1819H40.2254V20.6064H38.6452V22.1819Z" fill="#858AAD"/>
<path d="M49.7103 22.1819H51.2907V20.6064H49.7103V22.1819Z" fill="#858AAD"/>
<path d="M41.8066 22.1819H43.3873V20.6064H41.8066V22.1819Z" fill="#A7AED5"/>
<path d="M35.4839 22.1819H37.0647V20.6064H35.4839V22.1819Z" fill="#858AAD"/>
<path d="M37.0641 22.1819H38.6448V20.6064H37.0641V22.1819Z" fill="#858AAD"/>
<path d="M44.9679 48.9697V50.5452H46.5486V48.9697H44.9679Z" fill="#231F20"/>
<path d="M43.3867 50.5452H44.9671V48.9697H43.3867V50.5452Z" fill="#858AAD"/>
<path d="M41.8066 50.5452H43.3873V48.9697H41.8066V50.5452Z" fill="#858AAD"/>
<path d="M46.548 50.5451H48.1288V48.9692H46.548V50.5451Z" fill="#626682"/>
<path d="M38.6452 50.5452H40.2256V48.9697H38.6452V50.5452Z" fill="#231F20"/>
<path d="M40.2256 50.5452H41.8061V48.9697H40.2256V50.5452Z" fill="#858AAD"/>
<path d="M48.1291 50.5451H49.7099V48.9692H48.1291V50.5451Z" fill="#231F20"/>
<path d="M51.2905 50.5451H52.8708V48.9692H51.2905V50.5451Z" fill="#858AAD"/>
<path d="M52.8716 50.5451H54.4524V48.9692H52.8716V50.5451Z" fill="#858AAD"/>
<path d="M49.7103 50.5451H51.2911V48.9692H49.7103V50.5451Z" fill="#A7AED5"/>
<path d="M35.4839 50.5452H37.0647V48.9697H35.4839V50.5452Z" fill="#231F20"/>
<path d="M37.0641 50.5452H38.6448V48.9697H37.0641V50.5452Z" fill="#A7AED5"/>
<path d="M33.9028 39.515H35.4835V37.9397H33.9028V39.515Z" fill="#231F20"/>
<path d="M57.6131 48.9698H59.1935L59.1932 47.3941H57.6131V48.9698Z" fill="#231F20"/>
<path d="M48.1291 48.9698H49.7099V47.3941H48.1291V48.9698Z" fill="#626682"/>
<path d="M52.8716 48.9698H54.4524V47.3941H52.8716V48.9698Z" fill="#858AAD"/>
<path d="M56.0329 48.9698H57.6137V47.3941H56.0329V48.9698Z" fill="#626682"/>
<path d="M49.7103 48.9698H51.2911V47.3941H49.7103V48.9698Z" fill="#231F20"/>
<path d="M51.2905 48.9698H52.8708V47.3941H51.2905V48.9698Z" fill="#A7AED5"/>
<path d="M54.4518 48.9698H56.0325V47.3941H54.4518V48.9698Z" fill="#858AAD"/>
<path d="M60.7744 48.9698H62.3548V47.394H60.7744V48.9698Z" fill="#A7AED5"/>
<path d="M60.7744 47.394H62.3548V45.8182H60.7744V47.394Z" fill="#231F20"/>
<path d="M59.1935 48.9698H60.774V47.3941H59.1932L59.1935 48.9698Z" fill="#A7AED5"/>
<path d="M60.7744 45.8178H62.3548V44.242H60.7744V45.8178Z" fill="#626682"/>
<path d="M38.6452 48.9697H40.2256V47.3941H38.6452V48.9697Z" fill="#231F20"/>
<path d="M37.0641 48.9697H38.6448V47.394H37.0641V48.9697Z" fill="#231F20"/>
<path d="M46.548 48.9698H48.1288V47.3941H46.548V48.9698Z" fill="#626682"/>
<path d="M40.2256 48.9697H41.8061V47.3941H40.2256V48.9697Z" fill="#858AAD"/>
<path d="M44.9679 47.3941V48.9697H46.5486V47.3941H44.9679Z" fill="#626682"/>
<path d="M43.3867 48.9697H44.9671V47.3941H43.3867V48.9697Z" fill="#231F20"/>
<path d="M41.8066 48.9697H43.3873L43.3873 47.3941H41.8066L41.8066 48.9697Z" fill="#858AAD"/>
<path d="M51.2907 22.1819L52.8708 22.1819V20.6064L51.2907 20.6064V22.1819Z" fill="#A7AED5"/>
<path d="M60.7744 23.7576H62.3548V22.1822H60.7744V23.7576Z" fill="#626682"/>
<path d="M59.1932 22.1819H60.774V20.6064H59.1932V22.1819Z" fill="#231F20"/>
<path d="M60.7744 22.1819H62.3548V20.6064H60.7744V22.1819Z" fill="#858AAD"/>
<path d="M60.7744 44.242H62.3548V42.6667H60.7744V44.242Z" fill="#858AAD"/>
<path d="M52.8716 22.1819H54.4524V20.6064H52.8716V22.1819Z" fill="#858AAD"/>
<path d="M54.4518 22.1819H56.0325V20.6064H54.4518V22.1819Z" fill="#858AAD"/>
<path d="M56.0329 22.1819H57.6137V20.6064H56.0329V22.1819Z" fill="#A7AED5"/>
<path d="M57.6131 22.1819H59.1932V20.6064H57.6131V22.1819Z" fill="#231F20"/>
<path d="M60.7744 25.3337H62.3548V23.7579H60.7744V25.3337Z" fill="#231F20"/>
<path d="M60.7744 41.0906H62.3548V39.5148H60.7744V41.0906Z" fill="#858AAD"/>
<path d="M60.7744 39.5148H62.3548V37.9396H60.7744V39.5148Z" fill="#858AAD"/>
<path d="M60.7744 42.6667H62.3548V41.091H60.7744V42.6667Z" fill="#858AAD"/>
<path d="M60.7744 37.9396H62.3548V36.3638H60.7744V37.9396Z" fill="#858AAD"/>
<path d="M60.7744 36.3638H62.3548V34.7881H60.7744V36.3638Z" fill="#A7AED5"/>
<path d="M60.7744 34.7877H62.3548V33.2118H60.7744V34.7877Z" fill="#231F20"/>
<path d="M49.7103 37.9397H51.2911V36.3638H49.7103V37.9397Z" fill="#231F20"/>
<path d="M41.8066 30.061H43.3873V28.4851H41.8066V30.061Z" fill="#896956"/>
<path d="M41.8066 31.6367H43.3873V30.061H41.8066V31.6367Z" fill="#755748"/>
<path d="M41.8066 41.0906H43.3873V39.5148H41.8066V41.0906Z" fill="#626682"/>
<path d="M43.3867 30.061H44.9671V28.4851H43.3867V30.061Z" fill="#755748"/>
<path d="M44.9679 30.061H46.5486V28.4851H44.9679V30.061Z" fill="#755748"/>
<path d="M41.8066 33.212H43.3873L43.3873 31.6367H41.8066L41.8066 33.212Z" fill="#755748"/>
<path d="M41.8066 34.7877H43.3873L43.3873 33.212H41.8066L41.8066 34.7877Z" fill="#5D4339"/>
<path d="M41.8066 37.9397H43.3873V36.3638H41.8066V37.9397Z" fill="#858AAD"/>
<path d="M41.8066 39.5148H43.3873V37.9397H41.8066V39.5148Z" fill="#231F20"/>
<path d="M41.8066 36.3638H43.3873V34.7881H41.8066V36.3638Z" fill="#231F20"/>
<path d="M46.548 30.061H48.1288V28.4851H46.548V30.061Z" fill="#896956"/>
<path d="M52.8716 34.7877H54.4524V33.2118H52.8716V34.7877Z" fill="#858AAD"/>
<path d="M48.1291 30.061H49.7099V28.4851H48.1291V30.061Z" fill="#231F20"/>
<path d="M52.8716 36.3639H54.4524V34.7881H52.8716V36.3639Z" fill="#858AAD"/>
<path d="M52.8716 39.515H54.4524V37.9396H52.8716V39.515Z" fill="#858AAD"/>
<path d="M52.8716 37.9396H54.4524V36.3639H52.8716V37.9396Z" fill="#858AAD"/>
<path d="M52.8716 33.2118H54.4524V31.6366H52.8716V33.2118Z" fill="#858AAD"/>
<path d="M49.7103 30.061H51.2911V28.4851H49.7103V30.061Z" fill="#858AAD"/>
<path d="M51.2905 30.061H52.8712V28.4851H51.2905V30.061Z" fill="#858AAD"/>
<path d="M52.8716 30.061H54.4524V28.4851H52.8716V30.061Z" fill="#858AAD"/>
<path d="M52.8716 31.6366H54.4524V30.061H52.8716V31.6366Z" fill="#858AAD"/>
<path d="M54.4518 37.9397H56.0325V36.3638H54.4518V37.9397Z" fill="#858AAD"/>
<path d="M54.4518 34.7877H56.0325V33.2118H54.4518V34.7877Z" fill="#858AAD"/>
<path d="M54.4518 33.2118H56.0325V31.6366H54.4518V33.2118Z" fill="#858AAD"/>
<path d="M54.4518 36.3638H56.0325V34.7881H54.4518V36.3638Z" fill="#858AAD"/>
<path d="M54.4518 31.6366H56.0325V30.0609H54.4518V31.6366Z" fill="#858AAD"/>
<path d="M52.8716 41.0906H54.4524V39.515H52.8716V41.0906Z" fill="#626682"/>
<path d="M43.3867 41.0906H44.9671V39.5148H43.3867V41.0906Z" fill="#626682"/>
<path d="M57.6131 26.9091H59.1935L59.1932 25.3337H57.6131V26.9091Z" fill="#858AAD"/>
<path d="M54.4518 30.0609H56.0325V28.4851H54.4518V30.0609Z" fill="#858AAD"/>
<path d="M52.8716 28.4847H54.4524V26.9089H52.8716V28.4847Z" fill="#858AAD"/>
<path d="M54.4518 28.4847H56.0325V26.9089H54.4518V28.4847Z" fill="#858AAD"/>
<path d="M51.2905 28.4847H52.8712V26.9089H51.2905V28.4847Z" fill="#A7AED5"/>
<path d="M46.548 42.6669H48.1288V41.091H46.548V42.6669Z" fill="#231F20"/>
<path d="M44.9679 41.091V42.6669H46.5486V41.091H44.9679Z" fill="#231F20"/>
<path d="M43.3867 42.6669H44.9671V41.091H43.3867V42.6669Z" fill="#231F20"/>
<path d="M54.4518 41.0906H56.0325V39.5148H54.4518V41.0906Z" fill="#626682"/>
<path d="M52.8716 42.6669H54.4524V41.091H52.8716V42.6669Z" fill="#626682"/>
<path d="M54.4518 42.6669H56.0325V41.091H54.4518V42.6669Z" fill="#858AAD"/>
<path d="M51.2905 42.6669H52.8708V41.091H51.2905V42.6669Z" fill="#626682"/>
<path d="M49.7103 42.6669H51.2911V41.091H49.7103V42.6669Z" fill="#626682"/>
<path d="M51.2905 41.0906H52.8708V39.5148H51.2905V41.0906Z" fill="#626682"/>
<path d="M44.9679 36.3639H46.5486V34.7881H44.9679V36.3639Z" fill="#231F20"/>
<path d="M44.9679 34.7877H46.5486V33.2118H44.9679V34.7877Z" fill="#5D4339"/>
<path d="M49.7103 28.4847H51.2911V26.9089H49.7103V28.4847Z" fill="#A7AED5"/>
<path d="M44.9679 33.2118H46.5486V31.6366H44.9679V33.2118Z" fill="#755748"/>
<path d="M44.9679 37.9397H46.5486V36.3639H44.9679V37.9397Z" fill="#858AAD"/>
<path d="M48.1291 33.212H49.7099V31.6366H48.1291V33.212Z" fill="#231F20"/>
<path d="M49.7103 39.515H51.2911V37.9397H49.7103V39.515Z" fill="#858AAD"/>
<path d="M51.2905 39.5148H52.8708V37.9396H51.2905V39.5148Z" fill="#858AAD"/>
<path d="M48.1291 39.515H49.7099V37.9396H48.1291V39.515Z" fill="#231F20"/>
<path d="M46.548 39.515H48.1288V37.9396H46.548V39.515Z" fill="#231F20"/>
<path d="M46.548 37.9396H48.1288V36.3638H46.548V37.9396Z" fill="#858AAD"/>
<path d="M48.1291 36.3639H49.7099V34.7881H48.1291V36.3639Z" fill="#626682"/>
<path d="M46.548 36.3638H48.1288V34.7881H46.548V36.3638Z" fill="#231F20"/>
<path d="M46.548 34.7877H48.1288V33.2118H46.548V34.7877Z" fill="#5D4339"/>
<path d="M48.1291 34.7877H49.7099L49.7099 33.212H48.1291L48.1291 34.7877Z" fill="#231F20"/>
<path d="M49.7103 33.212H51.2911V31.6366H49.7103V33.212Z" fill="#858AAD"/>
<path d="M49.7103 36.3638H51.2911V34.7881H49.7103V36.3638Z" fill="#858AAD"/>
<path d="M48.1291 37.9396H49.7099L49.7099 36.3639H48.1291L48.1291 37.9396Z" fill="#858AAD"/>
<path d="M49.7103 34.7877H51.2911V33.212H49.7103V34.7877Z" fill="#858AAD"/>
<path d="M54.4518 50.5451H56.0325V48.9692H54.4518V50.5451Z" fill="#626682"/>
<path d="M46.548 33.2118H48.1288V31.6366H46.548V33.2118Z" fill="#755748"/>
<path d="M43.3867 37.9397H44.9671V36.3638H43.3867V37.9397Z" fill="#858AAD"/>
<path d="M44.9679 39.515H46.5486V37.9397H44.9679V39.515Z" fill="#231F20"/>
<path d="M43.3867 39.5148H44.9671V37.9397H43.3867V39.5148Z" fill="#231F20"/>
<path d="M43.3867 36.3638H44.9671V34.7881H43.3867V36.3638Z" fill="#231F20"/>
<path d="M43.3867 34.7877H44.9671V33.2118H43.3867V34.7877Z" fill="#5D4339"/>
<path d="M44.9679 41.0906H46.5486V39.515H44.9679V41.0906Z" fill="#626682"/>
<path d="M48.1291 41.0906H49.7099L49.7099 39.515H48.1291L48.1291 41.0906Z" fill="#626682"/>
<path d="M49.7103 41.0906H51.2911V39.515H49.7103V41.0906Z" fill="#626682"/>
<path d="M43.3867 33.2118H44.9671V31.6366H43.3867V33.2118Z" fill="#755748"/>
<path d="M46.548 41.0906H48.1288V39.515H46.548V41.0906Z" fill="#626682"/>
<path d="M48.1291 31.6366H49.7099L49.7099 30.061H48.1291L48.1291 31.6366Z" fill="#231F20"/>
<path d="M51.2905 31.6367H52.8712V30.061H51.2905V31.6367Z" fill="#858AAD"/>
<path d="M51.2905 34.7877H52.8708V33.2118H51.2905V34.7877Z" fill="#858AAD"/>
<path d="M51.2905 33.2118H52.8708V31.6366L51.2905 31.6367V33.2118Z" fill="#858AAD"/>
<path d="M51.2905 36.3639H52.8708V34.7881H51.2905V36.3639Z" fill="#858AAD"/>
<path d="M46.548 31.6366H48.1288V30.061H46.548V31.6366Z" fill="#755748"/>
<path d="M44.9679 31.6366H46.5486V30.061H44.9679V31.6366Z" fill="#755748"/>
<path d="M43.3867 31.6366H44.9671V30.061H43.3867V31.6366Z" fill="#755748"/>
<path d="M49.7103 31.6366H51.2911V30.061H49.7103V31.6366Z" fill="#858AAD"/>
<path d="M51.2905 37.9396H52.8708V36.3639H51.2905V37.9396Z" fill="#858AAD"/>
<path d="M54.4518 39.5148H56.0325V37.9397H54.4518V39.5148Z" fill="#626682"/>
<path d="M38.6452 41.0906H40.2256V39.5148H38.6452V41.0906Z" fill="#231F20"/>
<path d="M38.6452 39.5148H40.2256V37.9396H38.6452V39.5148Z" fill="#626682"/>
<path d="M38.6452 37.9396H40.2256V36.3638H38.6452V37.9396Z" fill="#231F20"/>
<path d="M38.6452 36.3638H40.2256V34.7881H38.6452V36.3638Z" fill="#858AAD"/>
<path d="M40.2256 45.8178H41.8061V44.242H40.2256V45.8178Z" fill="#858AAD"/>
<path d="M38.6452 34.7877H40.2256V33.2118H38.6452V34.7877Z" fill="#858AAD"/>
<path d="M41.8066 45.8178H43.3873V44.242H41.8066V45.8178Z" fill="#858AAD"/>
<path d="M40.2254 44.2422L41.8061 44.242V42.6667H40.2254V44.2422Z" fill="#231F20"/>
<path d="M41.8066 26.9091H43.3873V25.3337H41.8066V26.9091Z" fill="#858AAD"/>
<path d="M43.3867 45.8178H44.9671V44.242H43.3867V45.8178Z" fill="#858AAD"/>
<path d="M43.3867 26.9091H44.9671V25.3337H43.3867V26.9091Z" fill="#231F20"/>
<path d="M44.9679 26.9091H46.5486V25.3337H44.9679V26.9091Z" fill="#231F20"/>
<path d="M40.2254 26.9091H41.8061V25.3337H40.2254V26.9091Z" fill="#858AAD"/>
<path d="M38.6452 28.4847H40.2256V26.9089H38.6452V28.4847Z" fill="#A7AED5"/>
<path d="M38.6452 26.9089H40.2256L40.2254 25.3337H38.6452V26.9089Z" fill="#231F20"/>
<path d="M38.6452 30.061H40.2256V28.4851H38.6452V30.061Z" fill="#858AAD"/>
<path d="M38.6452 31.6367H40.2256V30.061H38.6452V31.6367Z" fill="#858AAD"/>
<path d="M38.6452 33.2118H40.2256V31.6367H38.6452V33.2118Z" fill="#858AAD"/>
<path d="M44.9679 44.242V45.8178H46.5486V44.242H44.9679Z" fill="#858AAD"/>
<path d="M57.6131 36.3639L59.1932 36.3638V34.7881H57.6131V36.3639Z" fill="#626682"/>
<path d="M57.6131 34.7877H59.1932L59.1935 33.2118H57.6131V34.7877Z" fill="#858AAD"/>
<path d="M57.6131 37.9397L59.1932 37.9396V36.3638L57.6131 36.3639V37.9397Z" fill="#231F20"/>
<path d="M57.6131 39.515H59.1935L59.1932 37.9396L57.6131 37.9397V39.515Z" fill="#626682"/>
<path d="M46.548 26.9091H48.1288V25.3337H46.548V26.9091Z" fill="#858AAD"/>
<path d="M57.6131 31.6367H59.1935L59.1932 30.061L57.6131 30.0609V31.6367Z" fill="#858AAD"/>
<path d="M57.6131 33.2118H59.1935V31.6367H57.6131V33.2118Z" fill="#858AAD"/>
<path d="M57.6131 30.0609L59.1932 30.061V28.4851H57.6131V30.0609Z" fill="#858AAD"/>
<path d="M57.6131 28.4847H59.1932L59.1935 26.9091H57.6131V28.4847Z" fill="#858AAD"/>
<path d="M57.6131 42.6669H59.1932V41.091H57.6131V42.6669Z" fill="#858AAD"/>
<path d="M57.6131 41.0906H59.1932L59.1935 39.515H57.6131V41.0906Z" fill="#858AAD"/>
<path d="M49.7103 45.8178H51.2911V44.242H49.7103V45.8178Z" fill="#858AAD"/>
<path d="M48.1291 45.8178H49.7099V44.242H48.1291V45.8178Z" fill="#858AAD"/>
<path d="M51.2905 45.8178H52.8708V44.242H51.2905V45.8178Z" fill="#231F20"/>
<path d="M57.6131 44.2422H59.1932L59.1935 42.6667L57.6131 42.6669V44.2422Z" fill="#858AAD"/>
<path d="M46.548 45.8178H48.1288V44.242H46.548V45.8178Z" fill="#858AAD"/>
<path d="M56.0329 45.8178H57.6137V44.242H56.0329V45.8178Z" fill="#858AAD"/>
<path d="M57.6131 45.8178H59.1932L59.1935 44.242L57.6131 44.2422V45.8178Z" fill="#858AAD"/>
<path d="M52.8716 45.8178H54.4524V44.242H52.8716V45.8178Z" fill="#858AAD"/>
<path d="M54.4518 45.8178H56.0325V44.242H54.4518V45.8178Z" fill="#858AAD"/>
<path d="M40.2256 41.0906H41.8061V39.5148H40.2256V41.0906Z" fill="#626682"/>
<path d="M41.8066 42.6669H43.3873V41.091H41.8066V42.6669Z" fill="#231F20"/>
<path d="M48.1291 26.9091H49.7099V25.3337H48.1291V26.9091Z" fill="#858AAD"/>
<path d="M48.1291 28.4847H49.7099V26.9091H48.1291V28.4847Z" fill="#858AAD"/>
<path d="M40.2254 39.515L41.8061 39.5148V37.9396H40.2256L40.2254 39.515Z" fill="#231F20"/>
<path d="M40.2256 37.9396H41.8061V36.3638H40.2256V37.9396Z" fill="#858AAD"/>
<path d="M43.3867 44.242H44.9671V42.6669H43.3867V44.242Z" fill="#626682"/>
<path d="M44.9679 42.6669V44.242H46.5486V42.6669H44.9679Z" fill="#626682"/>
<path d="M46.548 44.242H48.1288V42.6669H46.548V44.242Z" fill="#626682"/>
<path d="M41.8066 44.242H43.3873V42.6669H41.8066V44.242Z" fill="#626682"/>
<path d="M40.2256 36.3638H41.8061V34.7881H40.2256V36.3638Z" fill="#626682"/>
<path d="M40.2254 33.212H41.8061V31.6366H40.2254V33.212Z" fill="#231F20"/>
<path d="M40.2256 34.7877H41.8061V33.212H40.2254L40.2256 34.7877Z" fill="#231F20"/>
<path d="M43.3867 28.4847H44.9671V26.9091H43.3867V28.4847Z" fill="#896956"/>
<path d="M44.9679 28.4847H46.5486V26.9091H44.9679V28.4847Z" fill="#896956"/>
<path d="M46.548 28.4847H48.1288V26.9091H46.548V28.4847Z" fill="#231F20"/>
<path d="M41.8066 28.4847H43.3873V26.9091H41.8066V28.4847Z" fill="#231F20"/>
<path d="M40.2254 31.6366H41.8061V30.0609L40.2256 30.061L40.2254 31.6366Z" fill="#231F20"/>
<path d="M48.1291 44.242H49.7099V42.6669H48.1291V44.242Z" fill="#626682"/>
<path d="M40.2256 28.4847H41.8061V26.9091H40.2254L40.2256 28.4847Z" fill="#858AAD"/>
<path d="M40.2256 30.061L41.8061 30.0609V28.4851H40.2256V30.061Z" fill="#231F20"/>
<path d="M40.2254 42.6667H41.8061V41.091H40.2254V42.6667Z" fill="#231F20"/>
<path d="M56.0329 30.061H57.6137V28.4851H56.0329V30.061Z" fill="#858AAD"/>
<path d="M56.0329 28.4847H57.6137V26.9089H56.0329V28.4847Z" fill="#858AAD"/>
<path d="M56.0329 33.212H57.6137V31.6366H56.0329V33.212Z" fill="#858AAD"/>
<path d="M56.0329 31.6366H57.6137V30.061H56.0329V31.6366Z" fill="#858AAD"/>
<path d="M56.0329 26.9089H57.6137V25.3337H56.0329V26.9089Z" fill="#858AAD"/>
<path d="M49.7103 44.242H51.2911V42.6669H49.7103V44.242Z" fill="#626682"/>
<path d="M49.7103 26.9089H51.2911V25.3337H49.7103V26.9089Z" fill="#231F20"/>
<path d="M51.2905 26.9089H52.8712V25.3337H51.2905V26.9089Z" fill="#858AAD"/>
<path d="M54.4518 26.9089H56.0325V25.3337H54.4518V26.9089Z" fill="#858AAD"/>
<path d="M52.8716 26.9089H54.4524V25.3337H52.8716V26.9089Z" fill="#858AAD"/>
<path d="M56.0329 34.7877H57.6137V33.212H56.0329V34.7877Z" fill="#858AAD"/>
<path d="M54.4518 44.242H56.0325V42.6669H54.4518V44.242Z" fill="#858AAD"/>
<path d="M52.8716 44.242H54.4524V42.6669H52.8716V44.242Z" fill="#858AAD"/>
<path d="M56.0329 44.242H57.6137V42.6667H56.0329V44.242Z" fill="#858AAD"/>
<path d="M56.0329 36.3639H57.6137V34.7881H56.0329V36.3639Z" fill="#858AAD"/>
<path d="M51.2905 44.242H52.8708V42.6669H51.2905V44.242Z" fill="#858AAD"/>
<path d="M56.0329 39.515H57.6137V37.9396H56.0329V39.515Z" fill="#626682"/>
<path d="M56.0329 42.6667H57.6137V41.091H56.0329V42.6667Z" fill="#858AAD"/>
<path d="M56.0329 37.9396H57.6137V36.3639H56.0329V37.9396Z" fill="#626682"/>
<path d="M56.0329 41.0906H57.6137V39.515H56.0329V41.0906Z" fill="#626682"/>
<path d="M52.8716 55.2727H54.4524V53.6969H52.8716V55.2727Z" fill="#231F20"/>
<path d="M29.1613 17.4545H30.7421V15.8787H29.1613V17.4545Z" fill="#231F20"/>
<path d="M29.1613 19.0308H30.7421V17.4549H29.1613V19.0308Z" fill="#231F20"/>
<path d="M30.7425 17.4545H32.3232V15.8787H30.7425V17.4545Z" fill="#D45D60"/>
<path d="M32.3226 17.4545H33.9029V15.8787H32.3226V17.4545Z" fill="#F68288"/>
<path d="M29.1613 25.3337H30.7421V23.7579H29.1613V25.3337Z" fill="#231F20"/>
<path d="M29.1613 22.1819H30.7421V20.6064H29.1613V22.1819Z" fill="#858AAD"/>
<path d="M29.1613 23.7576H30.7421V22.1822H29.1613V23.7576Z" fill="#626682"/>
<path d="M41.8066 55.2727H43.3873V53.6969H41.8066V55.2727Z" fill="#231F20"/>
<path d="M38.6452 55.2727H40.2254L40.2256 53.6969H38.6452V55.2727Z" fill="#858AAD"/>
<path d="M37.0641 55.2727H38.6448V53.6969H37.0641V55.2727Z" fill="#858AAD"/>
<path d="M40.2254 55.2727H41.8061V53.6969H40.2256L40.2254 55.2727Z" fill="#626682"/>
<path d="M44.9679 55.2727H46.5486V53.6969H44.9679V55.2727Z" fill="#231F20"/>
<path d="M49.7103 55.2727H51.2911V53.6969H49.7103V55.2727Z" fill="#231F20"/>
<path d="M46.548 55.2727H48.1288V53.6969H46.548V55.2727Z" fill="#373E52"/>
<path d="M51.2905 55.2727H52.8708V53.6969H51.2905V55.2727Z" fill="#231F20"/>
<path d="M48.1291 55.2727H49.7099V53.6969H48.1291V55.2727Z" fill="#231F20"/>
<path d="M43.3867 55.2727H44.9671V53.6969H43.3867V55.2727Z" fill="#231F20"/>
<path d="M33.9038 17.4545H35.4845V15.8787H33.9038V17.4545Z" fill="#F68288"/>
<path d="M35.4839 55.2727H37.0647V53.6969H35.4839V55.2727Z" fill="#231F20"/>
<path d="M29.1613 20.6064H30.7421V19.0308H29.1613V20.6064Z" fill="#231F20"/>
<path d="M65.5158 48.9698H67.0966V47.394H65.5158V48.9698Z" fill="#231F20"/>
<path d="M65.5158 47.394H67.0966V45.8182H65.5158V47.394Z" fill="#626682"/>
<path d="M65.5158 45.8178H67.0966V44.242H65.5158V45.8178Z" fill="#858AAD"/>
<path d="M65.5158 50.5451H67.0966V48.9692H65.5158V50.5451Z" fill="#231F20"/>
<path d="M56.0329 50.5451H57.6137V48.9692H56.0329V50.5451Z" fill="#231F20"/>
<path d="M65.5158 39.515H67.0966V37.9396H65.5158V39.515Z" fill="#231F20"/>
<path d="M65.5158 41.0906H67.0966V39.515H65.5158V41.0906Z" fill="#231F20"/>
<path d="M65.5158 44.242H67.0966V42.6667H65.5158V44.242Z" fill="#858AAD"/>
<path d="M54.4518 17.4545H56.0325V15.8787H54.4518V17.4545Z" fill="#F68288"/>
<path d="M43.3867 17.4545H44.9671V15.8787H43.3867V17.4545Z" fill="#A7AED5"/>
<path d="M51.2905 17.4545H52.8708V15.8787H51.2905V17.4545Z" fill="#A7AED5"/>
<path d="M44.9679 17.4545H46.5486V15.8787H44.9679V17.4545Z" fill="#A7AED5"/>
<path d="M48.1291 17.4545H49.7099V15.8787H48.1291V17.4545Z" fill="#A7AED5"/>
<path d="M49.7103 17.4545H51.2911V15.8787H49.7103V17.4545Z" fill="#A7AED5"/>
<path d="M46.549 17.4545H48.1298V15.8787H46.549V17.4545Z" fill="#A7AED5"/>
<path d="M38.6452 17.4545H40.2256V15.8787H38.6452V17.4545Z" fill="#A7AED5"/>
<path d="M41.8066 17.4545H43.3873V15.8787H41.8066V17.4545Z" fill="#A7AED5"/>
<path d="M40.2256 17.4545H41.8061V15.8787H40.2256V17.4545Z" fill="#A7AED5"/>
<path d="M37.0641 17.4545H38.6448V15.8787H37.0641V17.4545Z" fill="#231F20"/>
<path d="M52.8716 17.4545H54.4524V15.8787H52.8716V17.4545Z" fill="#231F20"/>
<path d="M63.9357 17.4545H65.5165V15.8787H63.9357V17.4545Z" fill="#231F20"/>
<path d="M60.7744 17.4545H62.3548V15.8787H60.7744V17.4545Z" fill="#231F20"/>
<path d="M62.3548 17.4545H63.9353V15.8787H62.3548V17.4545Z" fill="#858AAD"/>
<path d="M59.1932 17.4545H60.774V15.8787H59.1932V17.4545Z" fill="#D45D60"/>
<path d="M35.4839 17.4545H37.0647V15.8787H35.4839V17.4545Z" fill="#F68288"/>
<path d="M56.0329 17.4545H57.6137V15.8787H56.0329V17.4545Z" fill="#F68288"/>
<path d="M57.6131 17.4545H59.1932V15.8787H57.6131V17.4545Z" fill="#F68288"/>
<path d="M32.3226 15.8793H33.9029V14.3036H32.3226V15.8793Z" fill="#D45D60"/>
<path d="M30.7425 15.8793H32.3232V14.3036H30.7425V15.8793Z" fill="#231F20"/>
<path d="M35.4839 15.8793H37.0647V14.3036H35.4839V15.8793Z" fill="#F68288"/>
<path d="M29.1613 15.8793H30.7421V14.3036H29.1613V15.8793Z" fill="#858AAD"/>
<path d="M33.9029 15.8793H35.4835V14.3036H33.9029V15.8793Z" fill="#F68288"/>
<path d="M27.5804 20.6065H29.1609V19.0307H27.5804V20.6065Z" fill="#858AAD"/>
<path d="M27.5804 19.0307H29.1609V17.4549H27.5804V19.0307Z" fill="#858AAD"/>
<path d="M54.4518 55.2727H56.0325V53.6969H54.4518V55.2727Z" fill="#231F20"/>
<path d="M27.5804 15.8793H29.1609V14.3036H27.5801L27.5804 15.8793Z" fill="#A7AED5"/>
<path d="M27.5804 17.4545H29.1609V15.8787H27.5804V17.4545Z" fill="#858AAD"/>
<path d="M27.5804 22.1819L29.1609 22.1819V20.6065H27.5804V22.1819Z" fill="#626682"/>
<path d="M46.548 15.8793H48.1288V14.3035H46.548V15.8793Z" fill="#231F20"/>
<path d="M48.1291 15.8793H49.7099V14.3036H48.1291V15.8793Z" fill="#231F20"/>
<path d="M49.7103 15.8793H51.2911V14.3036H49.7103V15.8793Z" fill="#231F20"/>
<path d="M51.2905 15.8793H52.8708V14.3036H51.2905V15.8793Z" fill="#231F20"/>
<path d="M44.9679 15.8793H46.5486V14.3035H44.9679V15.8793Z" fill="#231F20"/>
<path d="M38.6452 15.8793H40.226V14.3035L38.6452 14.3036V15.8793Z" fill="#231F20"/>
<path d="M40.2264 15.8793H41.8072V14.3035H40.2264V15.8793Z" fill="#231F20"/>
<path d="M41.8065 15.8793H43.3869V14.3035H41.8065V15.8793Z" fill="#231F20"/>
<path d="M43.3877 15.8793H44.9679V14.3035H43.3877V15.8793Z" fill="#231F20"/>
<path d="M65.5158 52.1208H67.0966V50.5451H65.5158V52.1208Z" fill="#858AAD"/>
<path d="M52.8716 15.8793H54.4524V14.3036H52.8716V15.8793Z" fill="#D45D60"/>
<path d="M27.5801 23.7576H29.1609V22.1822H27.5801V23.7576Z" fill="#231F20"/>
<path d="M37.0651 15.8793H38.6452V14.3036L37.0651 14.3035V15.8793Z" fill="#D45D60"/>
<path d="M67.097 45.8178H68.6772L68.6774 44.242H67.097V45.8178Z" fill="#858AAD"/>
<path d="M67.097 44.242H68.6774L68.6772 42.6667H67.097V44.242Z" fill="#A7AED5"/>
<path d="M67.097 47.3941H68.6772V45.8182H67.097V47.3941Z" fill="#858AAD"/>
<path d="M67.097 50.5451H68.6772V48.9692H67.097V50.5451Z" fill="#858AAD"/>
<path d="M67.097 48.9698H68.6772V47.3941H67.097V48.9698Z" fill="#858AAD"/>
<path d="M67.097 52.1208H68.6772V50.5451H67.097V52.1208Z" fill="#858AAD"/>
<path d="M67.097 42.6667L68.6774 42.6669V41.091H67.097V42.6667Z" fill="#231F20"/>
<path d="M60.7744 55.2727H62.3548V53.6969H60.7744V55.2727Z" fill="#858AAD"/>
<path d="M57.6131 55.2727H59.1932L59.1935 53.6969H57.6131V55.2727Z" fill="#858AAD"/>
<path d="M59.1932 55.2727H60.774V53.6969H59.1935L59.1932 55.2727Z" fill="#858AAD"/>
<path d="M67.097 53.697H68.6774L68.6772 52.1212H67.097V53.697Z" fill="#858AAD"/>
<path d="M56.0329 55.2727H57.6137V53.6969H56.0329V55.2727Z" fill="#858AAD"/>
<path d="M54.4518 15.8793H56.0325V14.3036H54.4518V15.8793Z" fill="#F68288"/>
<path d="M67.097 55.2727L68.6772 55.2727L68.6774 53.697H67.097V55.2727Z" fill="#626682"/>
<path d="M65.5158 55.2727H67.0966V53.6969H65.5158V55.2727Z" fill="#858AAD"/>
<path d="M63.9357 55.2727H65.5165V53.6969H63.9357V55.2727Z" fill="#858AAD"/>
<path d="M62.3548 55.2727H63.9353V53.6969H62.3548V55.2727Z" fill="#858AAD"/>
<path d="M62.3545 15.8793H63.9353V14.3036H62.3545V15.8793Z" fill="#A7AED5"/>
<path d="M63.9357 15.8793H65.5165V14.3035H63.9357V15.8793Z" fill="#231F20"/>
<path d="M60.7744 15.8793H62.3545V14.3036H60.7744V15.8793Z" fill="#858AAD"/>
<path d="M57.6131 15.8793H59.1935L59.1932 14.3036H57.6131V15.8793Z" fill="#D45D60"/>
<path d="M56.0329 15.8793H57.6137V14.3036H56.0329V15.8793Z" fill="#F68288"/>
<path d="M59.1935 15.8793H60.774V14.3036H59.1932L59.1935 15.8793Z" fill="#231F20"/>
<path d="M65.5158 42.6667H67.0966V41.091H65.5158V42.6667Z" fill="#A7AED5"/>
<path d="M32.3226 37.9397H33.9028V36.3638H32.3226V37.9397Z" fill="#231F20"/>
<path d="M32.3226 26.9091H33.9029L33.9028 25.3337L32.3226 25.3336V26.9091Z" fill="#858AAD"/>
<path d="M32.3226 25.3336L33.9028 25.3337V23.7579H32.3226V25.3336Z" fill="#A7AED5"/>
<path d="M32.3226 28.4847H33.9028L33.9029 26.9091H32.3226V28.4847Z" fill="#858AAD"/>
<path d="M32.3226 22.1819L33.9028 22.1819V20.6064L32.3226 20.6064V22.1819Z" fill="#231F20"/>
<path d="M32.3226 23.7576H33.9028V22.1822H32.3226V23.7576Z" fill="#231F20"/>
<path d="M32.3226 34.7877H33.9028V33.2118H32.3226V34.7877Z" fill="#858AAD"/>
<path d="M32.3226 33.2118L33.9029 33.212L33.9028 31.6367L32.3226 31.6366L32.3226 33.2118Z" fill="#858AAD"/>
<path d="M32.3226 30.061H33.9028V28.4851H32.3226V30.061Z" fill="#858AAD"/>
<path d="M32.3226 36.3638H33.9028L33.9029 34.7881H32.3226V36.3638Z" fill="#626682"/>
<path d="M32.3226 31.6366L33.9028 31.6367V30.061H32.3226L32.3226 31.6366Z" fill="#858AAD"/>
<path d="M35.4839 52.1208H37.0647V50.5452H35.4839V52.1208Z" fill="#231F20"/>
<path d="M57.6131 52.1208H59.1935V50.5449H57.6131V52.1208Z" fill="#858AAD"/>
<path d="M56.0329 52.1208H57.6137V50.5451H56.0329V52.1208Z" fill="#A7AED5"/>
<path d="M54.4518 52.1208H56.0325V50.5451H54.4518V52.1208Z" fill="#231F20"/>
<path d="M59.1935 52.1208H60.774V50.5449H59.1935V52.1208Z" fill="#858AAD"/>
<path d="M52.8716 52.1208H54.4524V50.5451H52.8716V52.1208Z" fill="#858AAD"/>
<path d="M32.3226 20.6064L33.9033 20.6065V19.0307H32.3226L32.3226 20.6064Z" fill="#F68288"/>
<path d="M63.9357 50.5451H65.5165V48.9692H63.9357V50.5451Z" fill="#858AAD"/>
<path d="M51.2905 52.1208H52.8708V50.5451H51.2905V52.1208Z" fill="#858AAD"/>
<path d="M63.9357 52.1208H65.5165V50.5451H63.9357V52.1208Z" fill="#858AAD"/>
<path d="M62.3545 52.1208H63.9353V50.5449H62.3545V52.1208Z" fill="#858AAD"/>
<path d="M60.7744 52.1208H62.3545V50.5449H60.7744V52.1208Z" fill="#858AAD"/>
<path d="M40.2254 52.1208H41.8061V50.5452L40.2254 50.5449V52.1208Z" fill="#626682"/>
<path d="M38.6452 52.1208H40.2254L40.2256 50.5452H38.6452V52.1208Z" fill="#231F20"/>
<path d="M37.0641 52.1208H38.6448V50.5452H37.0641V52.1208Z" fill="#858AAD"/>
<path d="M41.8066 52.1208H43.3873L43.3873 50.5452H41.8066L41.8066 52.1208Z" fill="#858AAD"/>
<path d="M44.9679 52.1208H46.5486V50.5452H44.9679V52.1208Z" fill="#858AAD"/>
<path d="M46.548 52.1208H48.1288V50.5451H46.548V52.1208Z" fill="#231F20"/>
<path d="M48.1291 52.1208H49.7099V50.5451H48.1291V52.1208Z" fill="#A7AED5"/>
<path d="M43.3867 52.1208H44.9671V50.5452H43.3867V52.1208Z" fill="#858AAD"/>
<path d="M49.7103 52.1208H51.2911V50.5451H49.7103V52.1208Z" fill="#858AAD"/>
<path d="M63.9357 48.9698H65.5165V47.394H63.9357V48.9698Z" fill="#A7AED5"/>
<path d="M62.3548 36.3638L63.9353 36.3639V34.7881H62.3548V36.3638Z" fill="#231F20"/>
<path d="M33.9028 20.6064H35.4835V19.0307H33.9028V20.6064Z" fill="#231F20"/>
<path d="M62.3548 37.9396L63.9353 37.9397V36.3639L62.3548 36.3638V37.9396Z" fill="#A7AED5"/>
<path d="M62.3548 41.0906H63.9353V39.5148H62.3548V41.0906Z" fill="#858AAD"/>
<path d="M62.3545 39.515L63.9353 39.5148V37.9397L62.3548 37.9396L62.3545 39.515Z" fill="#858AAD"/>
<path d="M60.7744 50.5449H62.3545L62.3548 48.9692H60.7744V50.5449Z" fill="#858AAD"/>
<path d="M59.1935 50.5449H60.774V48.9692H59.1932L59.1935 50.5449Z" fill="#858AAD"/>
<path d="M62.3545 50.5449H63.9353V48.9692H62.3548L62.3545 50.5449Z" fill="#858AAD"/>
<path d="M57.6131 50.5449H59.1935L59.1932 48.9692H57.6131V50.5449Z" fill="#A7AED5"/>
<path d="M65.5158 53.6969H67.0966V52.1212H65.5158V53.6969Z" fill="#858AAD"/>
<path d="M62.3545 44.2422H63.9353V42.6667H62.3548L62.3545 44.2422Z" fill="#858AAD"/>
<path d="M62.3548 45.8178H63.9353V44.2422H62.3545L62.3548 45.8178Z" fill="#858AAD"/>
<path d="M62.3548 48.9698H63.9353V47.394H62.3548V48.9698Z" fill="#A7AED5"/>
<path d="M62.3545 42.6669L63.9353 42.6667V41.091H62.3548L62.3545 42.6669Z" fill="#858AAD"/>
<path d="M43.3867 20.6064H44.9671V19.0307H43.3867V20.6064Z" fill="#858AAD"/>
<path d="M41.8066 20.6064H43.3873L43.3873 19.0307H41.8066L41.8066 20.6064Z" fill="#858AAD"/>
<path d="M44.9679 20.6064H46.5486V19.0307H44.9679V20.6064Z" fill="#A7AED5"/>
<path d="M49.7103 20.6064H51.2907L51.2907 19.0307H49.7103L49.7103 20.6064Z" fill="#A7AED5"/>
<path d="M48.1291 20.6064H49.7099L49.7099 19.0307H48.1291L48.1291 20.6064Z" fill="#858AAD"/>
<path d="M46.548 20.6064H48.1288V19.0307H46.548V20.6064Z" fill="#858AAD"/>
<path d="M37.0641 20.6064H38.6448V19.0307H37.0641V20.6064Z" fill="#858AAD"/>
<path d="M40.2254 20.6064H41.8061V19.0307H40.2254V20.6064Z" fill="#A7AED5"/>
<path d="M35.4839 20.6064H37.0647V19.0307H35.4839V20.6064Z" fill="#A7AED5"/>
<path d="M38.6452 20.6064H40.2254V19.0307H38.6452V20.6064Z" fill="#858AAD"/>
<path d="M52.8716 20.6064H54.4524V19.0307H52.8716V20.6064Z" fill="#858AAD"/>
<path d="M62.3548 20.6064L63.9353 20.6065V19.0307H62.3545L62.3548 20.6064Z" fill="#858AAD"/>
<path d="M59.1932 20.6064H60.774V19.0307H59.1932V20.6064Z" fill="#F68288"/>
<path d="M51.2907 20.6064L52.8708 20.6064V19.0307H51.2907L51.2907 20.6064Z" fill="#858AAD"/>
<path d="M62.3548 22.1819H63.9353V20.6065L62.3548 20.6064V22.1819Z" fill="#626682"/>
<path d="M60.7744 20.6064H62.3548L62.3545 19.0307H60.7744V20.6064Z" fill="#231F20"/>
<path d="M57.6131 20.6064H59.1932V19.0307H57.6131V20.6064Z" fill="#F68288"/>
<path d="M62.3548 23.7576H63.9353V22.1822H62.3548V23.7576Z" fill="#231F20"/>
<path d="M54.4518 20.6064H56.0325V19.0307H54.4518V20.6064Z" fill="#A7AED5"/>
<path d="M56.0329 20.6064H57.6137V19.0307H56.0329V20.6064Z" fill="#231F20"/>
<path d="M62.3548 47.394H63.9353V45.8182H62.3548V47.394Z" fill="#231F20"/>
<path d="M30.7425 23.7576H32.3228V22.1822H30.7425V23.7576Z" fill="#626682"/>
<path d="M30.7425 30.061H32.3232V28.4851H30.7425V30.061Z" fill="#231F20"/>
<path d="M30.7425 26.9091H32.3232V25.3336H30.7425V26.9091Z" fill="#231F20"/>
<path d="M30.7425 25.3336H32.3232V23.7579H30.7425V25.3336Z" fill="#231F20"/>
<path d="M30.7425 28.4847H32.3232V26.9091H30.7425V28.4847Z" fill="#231F20"/>
<path d="M30.7425 34.7877H32.3232V33.2118H30.7425V34.7877Z" fill="#231F20"/>
<path d="M30.7425 31.6367H32.3232V30.061H30.7425V31.6367Z" fill="#231F20"/>
<path d="M30.7425 36.3639H32.3232V34.7881H30.7425V36.3639Z" fill="#231F20"/>
<path d="M30.7425 33.2118H32.3232V31.6367H30.7425V33.2118Z" fill="#231F20"/>
<path d="M57.6131 53.6969H59.1935V52.1212H57.6131V53.6969Z" fill="#858AAD"/>
<path d="M54.4518 53.6969H56.0325V52.1212H54.4518V53.6969Z" fill="#231F20"/>
<path d="M56.0329 53.6969H57.6137V52.1212H56.0329V53.6969Z" fill="#858AAD"/>
<path d="M52.8716 53.6969H54.4524V52.1212H52.8716V53.6969Z" fill="#626682"/>
<path d="M51.2905 53.6969H52.8708V52.1212H51.2905V53.6969Z" fill="#626682"/>
<path d="M62.3545 53.697L63.9353 53.6969V52.1212H62.3545V53.697Z" fill="#858AAD"/>
<path d="M63.9357 53.6969H65.5165V52.1212H63.9357V53.6969Z" fill="#858AAD"/>
<path d="M49.7103 53.6969H51.2911V52.1212H49.7103V53.6969Z" fill="#626682"/>
<path d="M60.7744 53.6969H62.3548L62.3545 52.1212H60.7744V53.6969Z" fill="#858AAD"/>
<path d="M59.1932 53.697L60.774 53.6969V52.1212H59.1935L59.1932 53.697Z" fill="#858AAD"/>
<path d="M41.8066 53.6969H43.3873L43.3873 52.1212H41.8066L41.8066 53.6969Z" fill="#626682"/>
<path d="M37.0641 53.6969H38.6448V52.1212H37.0641V53.6969Z" fill="#858AAD"/>
<path d="M40.2254 53.697L41.8061 53.6969V52.1212H40.2254V53.697Z" fill="#231F20"/>
<path d="M38.6452 53.6969H40.2256L40.2254 52.1212H38.6452V53.6969Z" fill="#626682"/>
<path d="M35.4839 53.6969H37.0647V52.1212H35.4839V53.6969Z" fill="#231F20"/>
<path d="M46.548 53.6969H48.1288V52.1212H46.548V53.6969Z" fill="#231F20"/>
<path d="M44.9679 53.6969H46.5486V52.1212H44.9679V53.6969Z" fill="#626682"/>
<path d="M48.1291 53.6969H49.7099L49.7099 52.1212H48.1291L48.1291 53.6969Z" fill="#626682"/>
<path d="M43.3867 53.6969H44.9671V52.1212H43.3867V53.6969Z" fill="#626682"/>
<path d="M32.3226 19.0307H33.9033V17.4549H32.3226V19.0307Z" fill="#F68288"/>
<path d="M60.7744 19.0307H62.3545L62.3548 17.4549H60.7744V19.0307Z" fill="#231F20"/>
<path d="M63.9357 20.6065H65.5165V19.0307H63.9357V20.6065Z" fill="#231F20"/>
<path d="M63.9357 19.0307H65.5165V17.4549H63.9357V19.0307Z" fill="#231F20"/>
<path d="M63.9357 22.1819H65.5165V20.6065H63.9357V22.1819Z" fill="#231F20"/>
<path d="M62.3545 19.0307H63.9353V17.4549H62.3548L62.3545 19.0307Z" fill="#858AAD"/>
<path d="M63.9357 41.0906H65.5165V39.5148H63.9357V41.0906Z" fill="#858AAD"/>
<path d="M63.9357 44.2422H65.5165V42.6667H63.9357V44.2422Z" fill="#858AAD"/>
<path d="M63.9357 42.6667H65.5165V41.091H63.9357V42.6667Z" fill="#858AAD"/>
<path d="M63.9357 45.8178H65.5165V44.2422H63.9357V45.8178Z" fill="#858AAD"/>
<path d="M63.9357 39.5148H65.5165V37.9396H63.9357V39.5148Z" fill="#A7AED5"/>
<path d="M63.9357 37.9396H65.5165V36.3638H63.9357V37.9396Z" fill="#231F20"/>
<path d="M44.9679 19.0307H46.5486V17.4549H44.9679V19.0307Z" fill="#858AAD"/>
<path d="M37.0641 19.0307H38.6448V17.4549H37.0641V19.0307Z" fill="#A7AED5"/>
<path d="M38.6452 19.0307H40.2254L40.2256 17.4549H38.6452V19.0307Z" fill="#858AAD"/>
<path d="M35.4839 19.0307H37.0647V17.4549H35.4839V19.0307Z" fill="#231F20"/>
<path d="M40.2254 19.0307H41.8061V17.4549H40.2256L40.2254 19.0307Z" fill="#858AAD"/>
<path d="M41.8066 19.0307H43.3873V17.4549H41.8066V19.0307Z" fill="#858AAD"/>
<path d="M43.3867 19.0307H44.9671V17.4549H43.3867V19.0307Z" fill="#858AAD"/>
<path d="M30.7425 20.6065H32.3232V19.0307H30.7425V20.6065Z" fill="#F68288"/>
<path d="M33.9028 19.0307H35.4835V17.4549H33.9028V19.0307Z" fill="#F68288"/>
<path d="M30.7425 19.0307H32.3232V17.4549H30.7425V19.0307Z" fill="#F68288"/>
<path d="M63.9357 47.394H65.5165V45.8182H63.9357V47.394Z" fill="#231F20"/>
<path d="M46.548 19.0307H48.1288V17.4549H46.548V19.0307Z" fill="#858AAD"/>
<path d="M52.8716 19.0307H54.4524V17.4549H52.8716V19.0307Z" fill="#A7AED5"/>
<path d="M54.4518 19.0307H56.0325V17.4549H54.4518V19.0307Z" fill="#231F20"/>
<path d="M56.0329 19.0307H57.6137V17.4549H56.0329V19.0307Z" fill="#F68288"/>
<path d="M57.6131 19.0307H59.1932L59.1935 17.4549H57.6131V19.0307Z" fill="#F68288"/>
<path d="M59.1932 19.0307H60.774V17.4549H59.1935L59.1932 19.0307Z" fill="#F68288"/>
<path d="M48.1291 19.0307L49.7095 19.0308V17.4549H48.1292L48.1291 19.0307Z" fill="#858AAD"/>
<path d="M30.7425 22.1819H32.3228V20.6064L30.7425 20.6065V22.1819Z" fill="#231F20"/>
<path d="M49.7103 19.0307L51.2911 19.0308V17.4549H49.7103L49.7103 19.0307Z" fill="#858AAD"/>
<path d="M51.2907 19.0307H52.8708V17.4549H51.2905L51.2907 19.0307Z" fill="#858AAD"/>
</g>
</svg>
