<svg width="93" height="33" viewBox="0 0 93 33" fill="none" xmlns="http://www.w3.org/2000/svg">
<mask id="mask0_3477_74471" style="mask-type:alpha" maskUnits="userSpaceOnUse" x="0" y="0" width="93" height="33">
<rect width="93" height="33" fill="#D9D9D9"/>
</mask>
<g mask="url(#mask0_3477_74471)">
<path d="M40.0007 12H42.0008V10.0004H40.0007V12Z" fill="#C95B21"/>
<path d="M46.0006 12H48.0002V10.0004H46.0006V12Z" fill="#C95B21"/>
<path d="M38.0004 12H40V10.0004H38.0004V12Z" fill="#EA7A27"/>
<path d="M44.0003 12H45.9999V10.0004H44.0003V12Z" fill="#C95B21"/>
<path d="M41.9999 12H44.0003V10.0004H41.9999V12Z" fill="#EA7A27"/>
<path d="M52.0005 12H54.0002V10.0004H52.0005V12Z" fill="#EA7A27"/>
<path d="M47.9998 12H50V10.0004H47.9998V12Z" fill="#EA7A27"/>
<path d="M50 12H52.0005V10.0004H50V12Z" fill="#C95B21"/>
<path d="M54.001 12H56.0006V10.0004H54.001V12Z" fill="#231F20"/>
<path d="M36 12H38.0004V10.0004H36V12Z" fill="#231F20"/>
<path d="M46.0006 10.0004H48.0002L48.0002 8H46.0006L46.0006 10.0004Z" fill="#231F20"/>
<path d="M47.9998 10.0004H50V8H47.9998V10.0004Z" fill="#231F20"/>
<path d="M50.0002 10.0001H52.0003V8H50L50.0002 10.0001Z" fill="#231F20"/>
<path d="M52.0005 10.0004H54.0002L54.0002 8H52.0003L52.0005 10.0004Z" fill="#231F20"/>
<path d="M38.0004 10.0004H40V8H38.0004V10.0004Z" fill="#231F20"/>
<path d="M40.0007 10.0004H42.0008V8H40.0007V10.0004Z" fill="#231F20"/>
<path d="M44.0003 10.0004H45.9999V8H44.0003V10.0004Z" fill="#231F20"/>
<path d="M41.9999 10.0004L44 10.0001L44.0003 8H41.9999V10.0004Z" fill="#231F20"/>
<path d="M54.001 68H56.0006V65.9999H54.001V68Z" fill="#231F20"/>
<path d="M52.0005 13.9999H54.0002V12H52.0005V13.9999Z" fill="#C95B21"/>
<path d="M56.0001 13.9999H58.0003V12.0002H56.0001V13.9999Z" fill="#231F20"/>
<path d="M54.001 13.9999H56.0006V12H54.001V13.9999Z" fill="#EA7A27"/>
<path d="M34.0008 13.9999H36.0009V12.0002H34.0008V13.9999Z" fill="#231F20"/>
<path d="M50.0002 13.9999H52.0005V12L50.0002 12.0002V13.9999Z" fill="#C95B21"/>
<path d="M44.0003 13.9999H45.9999V12H44.0003V13.9999Z" fill="#C95B21"/>
<path d="M41.9999 13.9999H44.0003L44 12.0002L41.9999 12V13.9999Z" fill="#C95B21"/>
<path d="M46.0006 13.9999H48.0002V12H46.0006V13.9999Z" fill="#EA7A27"/>
<path d="M47.9998 13.9999H50.0002L50 12H47.9998V13.9999Z" fill="#C95B21"/>
<path d="M36 13.9999H38.0001V12.0002L36 12V13.9999Z" fill="#EA7A27"/>
<path d="M40.0007 13.9999H42.0008V12H40.0007V13.9999Z" fill="#EA7A27"/>
<path d="M38.0001 13.9999H40V12H38.0004L38.0001 13.9999Z" fill="#C95B21"/>
<path d="M44.0003 68H45.9999V65.9999H44.0003V68Z" fill="#231F20"/>
<path d="M46.0006 68H48.0002V65.9999H46.0006V68Z" fill="#231F20"/>
<path d="M47.9998 68H50V65.9999H47.9998V68Z" fill="#231F20"/>
<path d="M60.0009 68H62.0005V65.9999H60.0009V68Z" fill="#231F20"/>
<path d="M38.0004 68H40V65.9999H38.0004V68Z" fill="#231F20"/>
<path d="M40.0007 68H42.0008V65.9999H40.0007V68Z" fill="#231F20"/>
<path d="M56.0001 68H58.0003V65.9999H56.0001V68Z" fill="#231F20"/>
<path d="M58.0003 68H60.0009V65.9999H58.0003V68Z" fill="#231F20"/>
<path d="M50 68H52.0003V65.9999H50V68Z" fill="#231F20"/>
<path d="M52.0003 68H54.0002V65.9999H52.0003V68Z" fill="#231F20"/>
<path d="M41.9999 68H44.0003V65.9999H41.9999V68Z" fill="#231F20"/>
<path d="M36 68H38.0004V65.9999H36V68Z" fill="#231F20"/>
<path d="M34.0008 68H36.0009V65.9999H34.0008V68Z" fill="#231F20"/>
<path d="M32.0005 68H34.0008V65.9999H32.0005V68Z" fill="#231F20"/>
<path d="M30.0001 68H31.9997V65.9999H30.0001V68Z" fill="#231F20"/>
<path d="M28.0009 68H30.001V65.9999H28.0009V68Z" fill="#231F20"/>
<path d="M62.0048 68H64.0049V65.9999H62.0048V68Z" fill="#231F20"/>
<path d="M66.0008 68H68.0009V65.9999H66.0008V68Z" fill="#231F20"/>
<path d="M63.9829 68H65.983V65.9999H63.9829V68Z" fill="#231F20"/>
<path d="M46.0006 50H48.0002V48.0003H46.0006V50Z" fill="#231F20"/>
<path d="M60.0009 32.0004H62.0005V30.0003H60.0009V32.0004Z" fill="#231F20"/>
<path d="M60.0009 26.0004H62.0005V24.0003H60.0009V26.0004Z" fill="#231F20"/>
<path d="M56.0001 26.0004H58.0003V24.0003H56.0001V26.0004Z" fill="#A89179"/>
<path d="M60.0009 27.9997H62.0005V26.0001H60.0009V27.9997Z" fill="#231F20"/>
<path d="M60.0009 30.0003H62.0005V27.9997H60.0009V30.0003Z" fill="#231F20"/>
<path d="M58.0003 26.0004H60.0009V24.0003H58.0003V26.0004Z" fill="#C95B21"/>
<path d="M47.9998 26.0004H50V24.0003H47.9998V26.0004Z" fill="#614F41"/>
<path d="M54.001 26.0004H56.0006V24.0003H54.001V26.0004Z" fill="#A89179"/>
<path d="M50 26.0004H51.9998V24.0003H50V26.0004Z" fill="#614F41"/>
<path d="M58.0005 27.9997H60.0009V26.0001H58.0005V27.9997Z" fill="#C95B21"/>
<path d="M60.0009 37.9999H62.0005V35.9997H60.0009V37.9999Z" fill="#C95B21"/>
<path d="M60.0009 48.0007H62.0005V46.0006H60.0009V48.0007Z" fill="#C95B21"/>
<path d="M60.0009 46.0006H62.0005V44.0002H60.0009V46.0006Z" fill="#C95B21"/>
<path d="M60.0009 34.0002H62.0005V32.0001H60.0009V34.0002Z" fill="#231F20"/>
<path d="M60.0009 50H62.0005V48.0004H60.0009V50Z" fill="#C95B21"/>
<path d="M60.0009 44.0002H62.0005V41.9998H60.0009V44.0002Z" fill="#C95B21"/>
<path d="M60.0009 52.0003H62.0005V50H60.0009V52.0003Z" fill="#9E3E21"/>
<path d="M46.0006 26.0004H48.0002V24.0003H46.0006V26.0004Z" fill="#614F41"/>
<path d="M60.0009 42.0007H62.0005V40.0005H60.0009V42.0007Z" fill="#C95B21"/>
<path d="M60.0009 36.0001H62.0005V34.0002H60.0009V36.0001Z" fill="#231F20"/>
<path d="M60.0009 40.0005H62.0005V37.9999H60.0009V40.0005Z" fill="#C95B21"/>
<path d="M30.0001 32.0004H31.9997V30.0003H30.0001V32.0004Z" fill="#231F20"/>
<path d="M30.0001 40.0003H31.9997V38.0001H30.0001V40.0003Z" fill="#231F20"/>
<path d="M30.0001 42.0007H31.9997V40.0003H30.0001V42.0007Z" fill="#EA7A27"/>
<path d="M30.0001 36.0001H31.9997V34.0005H30.0001V36.0001Z" fill="#231F20"/>
<path d="M30.0001 34.0005H31.9997V32.0001H30.0001V34.0005Z" fill="#231F20"/>
<path d="M30.0001 43.9999H31.9997V41.9998H30.0001V43.9999Z" fill="#C95B21"/>
<path d="M30.0001 48.0007H31.9997V46.0006H30.0001V48.0007Z" fill="#C95B21"/>
<path d="M30.0001 50H31.9997V48.0004H30.0001V50Z" fill="#9E3E21"/>
<path d="M30.0001 46.0006H31.9997V43.9999H30.0001V46.0006Z" fill="#C95B21"/>
<path d="M60.0009 54.0001H62.0005V52H60.0009V54.0001Z" fill="#231F20"/>
<path d="M40.0007 26.0004H42.0008V24.0003H40.0007V26.0004Z" fill="#614F41"/>
<path d="M44.0003 26.0004H45.9999V24.0003H44.0003V26.0004Z" fill="#614F41"/>
<path d="M38.0004 26.0004H40V24.0003H38.0004V26.0004Z" fill="#614F41"/>
<path d="M30.0001 30.0003H31.9997V27.9999H30.0001V30.0003Z" fill="#231F20"/>
<path d="M41.9999 26.0004H44.0003V24.0003H41.9999V26.0004Z" fill="#614F41"/>
<path d="M36 26.0004H38.0004V24.0003H36V26.0004Z" fill="#836E5B"/>
<path d="M30.0001 26.0004H31.9997V24.0003H30.0001V26.0004Z" fill="#231F20"/>
<path d="M30.0001 27.9999H31.9997V26.0001H30.0001V27.9999Z" fill="#231F20"/>
<path d="M34.0008 26.0004H36.0009V24.0003H34.0008V26.0004Z" fill="#A89179"/>
<path d="M32.0005 26.0004H34.0008V24.0003H32.0005V26.0004Z" fill="#C95B21"/>
<path d="M32.0005 54.0001H34.0006V52H32.0005V54.0001Z" fill="#231F20"/>
<path d="M32.0004 30H34.0006V27.9999H32.0004V30Z" fill="#C95B21"/>
<path d="M32.0004 27.9999H34.0006L34.0006 26.0001H32.0005L32.0004 27.9999Z" fill="#C95B21"/>
<path d="M36 27.9997H38.0001V26.0001H36V27.9997Z" fill="#A89179"/>
<path d="M34.0006 27.9999L36.0009 27.9997V26.0001H34.0006L34.0006 27.9999Z" fill="#A89179"/>
<path d="M32.0005 32.0004H34.0006L34.0006 30H32.0004L32.0005 32.0004Z" fill="#C95B21"/>
<path d="M32.0004 40.0003H34.0006V38.0001H32.0004V40.0003Z" fill="#EA7A27"/>
<path d="M38.0001 27.9997H40V26.0001H38.0001V27.9997Z" fill="#A89179"/>
<path d="M32.0005 42.0007H34.0006L34.0006 40.0003H32.0004L32.0005 42.0007Z" fill="#C95B21"/>
<path d="M32.0005 36.0001H34.0006V34.0005H32.0005V36.0001Z" fill="#9E3E21"/>
<path d="M32.0005 34.0005H34.0006V32.0001H32.0005V34.0005Z" fill="#C95B21"/>
<path d="M32.0004 38.0001H34.0006L34.0006 35.9997H32.0005L32.0004 38.0001Z" fill="#231F20"/>
<path d="M50.0002 27.9997H51.9998V26.0001H50.0002V27.9997Z" fill="#A89179"/>
<path d="M60.0009 56.0005H62.0005V54.0001H60.0009V56.0005Z" fill="#231F20"/>
<path d="M40.0007 27.9997H42.0008V26.0001H40.0007V27.9997Z" fill="#A89179"/>
<path d="M56.0001 27.9997H58.0005V26.0001H56.0001V27.9997Z" fill="#A89179"/>
<path d="M52.0005 27.9997H54.0002V26.0001H52.0005V27.9997Z" fill="#A89179"/>
<path d="M47.9998 27.9997H50.0002V26.0001H47.9998V27.9997Z" fill="#A89179"/>
<path d="M41.9999 27.9997H44V26.0001H41.9999V27.9997Z" fill="#231F20"/>
<path d="M44 27.9997H45.9999V26.0001H44V27.9997Z" fill="#8C7662"/>
<path d="M46.0006 27.9997H48.0002V26.0001H46.0006V27.9997Z" fill="#231F20"/>
<path d="M54.001 27.9997H56.0006V26.0001H54.001V27.9997Z" fill="#A89179"/>
<path d="M47.9998 56.0005H50V54.0004H47.9998V56.0005Z" fill="#231F20"/>
<path d="M50 56.0005H52.0003V54.0004H50V56.0005Z" fill="#231F20"/>
<path d="M40.0007 56.0005H42.0008V54.0004H40.0007V56.0005Z" fill="#231F20"/>
<path d="M41.9999 54.0004V56.0005H44V54.0004H41.9999Z" fill="#7F2A20"/>
<path d="M44 56.0005H45.9999V54.0004H44V56.0005Z" fill="#7F2A20"/>
<path d="M32.0005 43.9999H34.0006V41.9998H32.0005V43.9999Z" fill="#C95B21"/>
<path d="M58.0005 56.0005H60.0009L60.0006 54.0004H58.0005V56.0005Z" fill="#7F2A20"/>
<path d="M52.0003 56.0005H54.0002V54.0004H52.0003V56.0005Z" fill="#231F20"/>
<path d="M56.0001 56.0005H58.0005V54.0004H56.0001V56.0005Z" fill="#7F2A20"/>
<path d="M54.001 56.0005H56.0006V54.0004H54.001V56.0005Z" fill="#7F2A20"/>
<path d="M46.0006 56.0005H48.0002V54.0004H46.0006V56.0005Z" fill="#7F2A20"/>
<path d="M32.0005 48.0001H34.0006V46H32.0005V48.0001Z" fill="#9E3E21"/>
<path d="M32.0004 50H34.0006L34.0006 48.0001H32.0005L32.0004 50Z" fill="#C95B21"/>
<path d="M32.0005 46.0003H34.0006V43.9999H32.0005V46.0003Z" fill="#231F20"/>
<path d="M32.0005 52.0004H34.0006V50.0008H32.0005V52.0004Z" fill="#C95B21"/>
<path d="M34.0008 56.0005H36.0009V54.0004H34.0008V56.0005Z" fill="#231F20"/>
<path d="M36 56.0005H38.0001V54.0004H36V56.0005Z" fill="#231F20"/>
<path d="M30.0001 51.9998H31.9997V50H30.0001V51.9998Z" fill="#C95B21"/>
<path d="M38.0001 56.0005H40V54.0004H38.0001V56.0005Z" fill="#231F20"/>
<path d="M34.0008 54.0004H36.0009V52H34.0006L34.0008 54.0004Z" fill="#9E3E21"/>
<path d="M52.0005 26.0004H54.0002V24.0003H52.0005V26.0004Z" fill="#836E5B"/>
<path d="M28.0009 32.0004H30.001V30.0003H28.0009V32.0004Z" fill="#231F20"/>
<path d="M28.0009 27.9997H30.001V26.0001H28.0009V27.9997Z" fill="#231F20"/>
<path d="M28.0009 30.0003H30.001V27.9997H28.0009V30.0003Z" fill="#231F20"/>
<path d="M28.0009 42.0007H30.0005V40.0005H28.0009V42.0007Z" fill="#231F20"/>
<path d="M46.0006 24.0003H48.0002V21.9999H46.0006V24.0003Z" fill="#231F20"/>
<path d="M40.0007 24.0003H42.0008V21.9999H40.0007V24.0003Z" fill="#614F41"/>
<path d="M44.0003 24.0003H45.9999V21.9999H44.0003V24.0003Z" fill="#A89179"/>
<path d="M41.9999 24.0003L44 24L44.0003 21.9999H41.9999V24.0003Z" fill="#231F20"/>
<path d="M28.0009 43.9999H30.001V41.9998H28.0009V43.9999Z" fill="#EA7A27"/>
<path d="M36 24.0003L38.0001 24V21.9999H36V24.0003Z" fill="#8C7662"/>
<path d="M34.0008 24.0003H36.0009V21.9999H34.0008V24.0003Z" fill="#A89179"/>
<path d="M48.001 24H50.0011V21.9999H48.001V24Z" fill="#614F41"/>
<path d="M38.0004 24.0003H40V21.9999H38.0001L38.0004 24.0003Z" fill="#614F41"/>
<path d="M30.0001 24.0003H31.9997V21.9999H30.0001V24.0003Z" fill="#231F20"/>
<path d="M32.0005 24.0003L34.0006 24L34.0008 21.9999H32.0005V24.0003Z" fill="#C95B21"/>
<path d="M41.9999 58V60.0002H44V58H41.9999Z" fill="#231F20"/>
<path d="M40.0007 60.0002H42.0008V58H40.0007V60.0002Z" fill="#231F20"/>
<path d="M38.0004 60.0002H40V58H38.0004V60.0002Z" fill="#A89179"/>
<path d="M44 60.0002H45.9999V58H44V60.0002Z" fill="#9E3E21"/>
<path d="M34.0008 60.0002H36.0009V58H34.0008V60.0002Z" fill="#231F20"/>
<path d="M36 60.0002H38.0004V58H36V60.0002Z" fill="#A89179"/>
<path d="M46.0006 60.0002H48.0002V58.0001H46.0006V60.0002Z" fill="#231F20"/>
<path d="M50.0002 60.0002H52.0003V58H50.0002V60.0002Z" fill="#231F20"/>
<path d="M52.0003 60.0002L54.0002 60.0002V58.0001L52.0003 58V60.0002Z" fill="#A89179"/>
<path d="M47.9998 60.0002H50.0002V58H47.9998V60.0002Z" fill="#231F20"/>
<path d="M30.0001 60.0002H31.9997V58H30.0001V60.0002Z" fill="#C95B21"/>
<path d="M28.0009 51.9998H30.001V50.0002H28.0009V51.9998Z" fill="#9E3E21"/>
<path d="M28.0009 50.0002H30.001V48.0004H28.0009V50.0002Z" fill="#C95B21"/>
<path d="M28.0009 54.0001H30.001V51.9998H28.0009V54.0001Z" fill="#231F20"/>
<path d="M28.0009 48.0007H30.001V46.0006H28.0009V48.0007Z" fill="#C95B21"/>
<path d="M32.0004 60.0002L34.0008 60.0002V58L32.0004 58.0001V60.0002Z" fill="#C95B21"/>
<path d="M28.0009 46.0006H30.001V43.9999H28.0009V46.0006Z" fill="#C95B21"/>
<path d="M30.0001 58H31.9997V56.0002H30.0001V58Z" fill="#EA7A27"/>
<path d="M28.0009 57.9999H30.001V56.0002H28.0009V57.9999Z" fill="#231F20"/>
<path d="M58.0005 57.9999H60.0006V56.0002H58.0005V57.9999Z" fill="#231F20"/>
<path d="M46.0006 58.0001H48.0002L48.0002 56.0002H46.0006L46.0006 58.0001Z" fill="#231F20"/>
<path d="M52.0003 58L54.0002 58.0001L54.0002 56.0002H52.0005L52.0003 58Z" fill="#A89179"/>
<path d="M56.0001 57.9999H58.0005V56.0002H56.0001V57.9999Z" fill="#231F20"/>
<path d="M47.9998 58L50 57.9999V56.0002H47.9998V58Z" fill="#A89179"/>
<path d="M50.0002 58H52.0003L52.0005 56.0002H50L50.0002 58Z" fill="#A89179"/>
<path d="M54.001 57.9999H56.0006V56.0002H54.001V57.9999Z" fill="#231F20"/>
<path d="M62.0001 57.9999H64.0002V56.0002H62.0001V57.9999Z" fill="#EA7A27"/>
<path d="M62.0001 56.0005H64.0002V54.0004H62.0001V56.0005Z" fill="#231F20"/>
<path d="M60.0006 57.9999H62.0005V56.0002H60.0006V57.9999Z" fill="#EA7A27"/>
<path d="M30.0001 54.0001H31.9997V51.9998H30.0001V54.0001Z" fill="#9E3E21"/>
<path d="M62.0001 54.0004H64.0002V52H62.0001V54.0004Z" fill="#7F2A20"/>
<path d="M34.0008 58H36.0009V56.0002H34.0008V58Z" fill="#C95B21"/>
<path d="M32.0005 56.0005H34.0008L34.0006 54.0001H32.0005V56.0005Z" fill="#231F20"/>
<path d="M32.0004 58.0001L34.0008 58V56.0002H32.0005L32.0004 58.0001Z" fill="#C95B21"/>
<path d="M30.0001 56.0005H31.9997V54.0001H30.0001V56.0005Z" fill="#231F20"/>
<path d="M44.0003 57.9999L45.9999 58V56.0002H44.0003V57.9999Z" fill="#9E3E21"/>
<path d="M36 58L38.0001 57.9999V56.0002H36V58Z" fill="#231F20"/>
<path d="M41.9999 56.0002V58H44L44.0003 56.0002H41.9999Z" fill="#231F20"/>
<path d="M40.0007 58H42.0008V56.0002H40.0007V58Z" fill="#A89179"/>
<path d="M38.0004 58H40V56.0002H38.0001L38.0004 58Z" fill="#A89179"/>
<path d="M50.0002 24H52.0003V21.9999H50.0002V24Z" fill="#614F41"/>
<path d="M60.0009 24.0003H62.0005V21.9999H60.0009V24.0003Z" fill="#231F20"/>
<path d="M62.0001 30H64.0002V27.9999H62.0001V30Z" fill="#231F20"/>
<path d="M62.0001 52.0003H64.0002V50.0002H62.0001V52.0003Z" fill="#231F20"/>
<path d="M52.0005 24.0003H54.0002V21.9999H52.0003L52.0005 24.0003Z" fill="#836E5B"/>
<path d="M62.0001 32.0004H64.0002V30H62.0001V32.0004Z" fill="#231F20"/>
<path d="M54.001 24.0003H56.0006V21.9999H54.001V24.0003Z" fill="#A89179"/>
<path d="M56.0001 24.0003H58.0003V21.9999H56.0001V24.0003Z" fill="#A89179"/>
<path d="M58.0005 24H60.0006L60.0009 21.9999H58.0003L58.0005 24Z" fill="#C95B21"/>
<path d="M62.0001 27.9999H64.0002V26.0001H62.0001V27.9999Z" fill="#231F20"/>
<path d="M62.0001 48.0007H64.0002V46.0006H62.0001V48.0007Z" fill="#C95B21"/>
<path d="M62.0001 46.0006H64.0002V44.0002H62.0001V46.0006Z" fill="#C95B21"/>
<path d="M62.0001 50.0002H64.0002V48.0004H62.0001V50.0002Z" fill="#231F20"/>
<path d="M62.0001 34.0002H64.0002V32.0001H62.0001V34.0002Z" fill="#C95B21"/>
<path d="M62.0001 44.0002H64.0002V41.9998H62.0001V44.0002Z" fill="#9E3E21"/>
<path d="M62.0001 36.0001H64.0002V34.0002H62.0001V36.0001Z" fill="#C95B21"/>
<path d="M62.0001 42.0007H64.0002V40.0005H62.0001V42.0007Z" fill="#C95B21"/>
<path d="M62.0001 37.9999H64.0002V35.9997H62.0001V37.9999Z" fill="#9E3E21"/>
<path d="M62.0001 40.0005H64.0002V37.9999H62.0001V40.0005Z" fill="#C95B21"/>
<path d="M47.9998 43.9999H50V41.9998H47.9998V43.9999Z" fill="#9E3E21"/>
<path d="M38.0004 34.0002H40V32.0001H38.0004V34.0002Z" fill="#231F20"/>
<path d="M38.0004 36.0001H40V34.0002H38.0004V36.0001Z" fill="#8C7662"/>
<path d="M38.0004 48.0007H40V46.0006H38.0004V48.0007Z" fill="#A89179"/>
<path d="M40.0007 34.0002H42.0008V32.0001H40.0007V34.0002Z" fill="#BCAC95"/>
<path d="M41.9999 34.0002H44V32.0001H41.9999V34.0002Z" fill="#BCAC95"/>
<path d="M38.0004 37.9999H40V35.9997H38.0004V37.9999Z" fill="#A89179"/>
<path d="M38.0004 40.0003H40V37.9999H38.0004V40.0003Z" fill="#9E3E21"/>
<path d="M38.0004 43.9999H40V41.9998H38.0004V43.9999Z" fill="#9E3E21"/>
<path d="M38.0004 46.0006H40V43.9999H38.0004V46.0006Z" fill="#231F20"/>
<path d="M38.0004 42.0007H40V40.0003H38.0004V42.0007Z" fill="#231F20"/>
<path d="M44 34.0002H45.9999V32.0001H44V34.0002Z" fill="#231F20"/>
<path d="M52.0005 40.0003H54.0002V38.0001H52.0005V40.0003Z" fill="#9E3E21"/>
<path d="M46.0006 34.0002H48.0002V32.0001H46.0006V34.0002Z" fill="#BCAC95"/>
<path d="M52.0005 42.0007H54.0002L54.0002 40.0003H52.0005L52.0005 42.0007Z" fill="#231F20"/>
<path d="M52.0005 46.0003H54.0002V44.0002H52.0005V46.0003Z" fill="#231F20"/>
<path d="M52.0005 44.0002H54.0002V41.9998H52.0005V44.0002Z" fill="#9E3E21"/>
<path d="M52.0005 38.0001H54.0002L54.0002 35.9997H52.0005L52.0005 38.0001Z" fill="#A89179"/>
<path d="M47.9998 34.0002H50V32.0001H47.9998V34.0002Z" fill="#BCAC95"/>
<path d="M50 34.0002H51.9998V32.0001H50V34.0002Z" fill="#231F20"/>
<path d="M52.0005 34.0002H54.0002V32.0001H52.0005V34.0002Z" fill="#A89179"/>
<path d="M52.0005 36.0001H54.0002V34.0002H52.0005V36.0001Z" fill="#A89179"/>
<path d="M54.001 43.9999H56.0006V41.9998H54.001V43.9999Z" fill="#7F2A20"/>
<path d="M54.001 40.0003H56.0006V38.0001H54.001V40.0003Z" fill="#9E3E21"/>
<path d="M54.001 38.0001H56.0006V35.9997H54.001V38.0001Z" fill="#A89179"/>
<path d="M54.001 42.0007H56.0006V40.0003H54.001V42.0007Z" fill="#231F20"/>
<path d="M54.001 36.0001H56.0006V34.0005H54.001V36.0001Z" fill="#A89179"/>
<path d="M52.0005 48.0001H54.0002V46H52.0005V48.0001Z" fill="#231F20"/>
<path d="M40.0007 48.0007H42.0008V46.0006H40.0007V48.0007Z" fill="#A89179"/>
<path d="M58.0005 30H60.0006V27.9999L58.0005 27.9997V30Z" fill="#C95B21"/>
<path d="M54.001 34.0005H56.0006V32.0001H54.001V34.0005Z" fill="#A89179"/>
<path d="M52.0005 32.0004H54.0002V30.0003H52.0005V32.0004Z" fill="#A89179"/>
<path d="M54.001 32.0004H56.0006V30.0003H54.001V32.0004Z" fill="#A89179"/>
<path d="M50.0002 32.0004H51.9998V30.0003H50.0002V32.0004Z" fill="#6A5647"/>
<path d="M44.0003 50H45.9999V48.0004H44.0003V50Z" fill="#9E3E21"/>
<path d="M41.9999 48.0004V50H44.0003V48.0004H41.9999Z" fill="#231F20"/>
<path d="M40.0007 50H42.0008V48.0004H40.0007V50Z" fill="#A89179"/>
<path d="M54.001 48.0007H56.0006V46.0006H54.001V48.0007Z" fill="#EA7A27"/>
<path d="M52.0005 50H54.0002L54.0002 48.0001H52.0005L52.0005 50Z" fill="#231F20"/>
<path d="M54.001 50H56.0006V48.0004H54.001V50Z" fill="#C95B21"/>
<path d="M50.0002 50L52.0005 50L52.0003 48.0004H50.0002V50Z" fill="#A89179"/>
<path d="M47.9998 50H50.0002V48.0004H47.9998V50Z" fill="#A89179"/>
<path d="M50.0002 48.0007H52.0003V46.0006H50.0002V48.0007Z" fill="#A89179"/>
<path d="M41.9999 42.0007H44V40.0005H41.9999V42.0007Z" fill="#231F20"/>
<path d="M41.9999 40.0005H44V38.0001H41.9999V40.0005Z" fill="#9E3E21"/>
<path d="M47.9998 32.0004H50.0002V30.0003H47.9998V32.0004Z" fill="#BCAC95"/>
<path d="M41.9999 38.0001H44V35.9997H41.9999V38.0001Z" fill="#BCAC95"/>
<path d="M41.9999 43.9999H44V41.9998H41.9999V43.9999Z" fill="#9E3E21"/>
<path d="M46.0006 37.9999H48.0002V35.9997H46.0006V37.9999Z" fill="#BCAC95"/>
<path d="M47.9998 46.0003H50V43.9999H47.9998V46.0003Z" fill="#231F20"/>
<path d="M50.0002 46.0006H52.0003L52.0005 44.0002H50.0002V46.0006Z" fill="#231F20"/>
<path d="M46.0006 46.0003H48.0002V44.0002H46.0006V46.0003Z" fill="#9E3E21"/>
<path d="M44.0003 46.0003H45.9999V44.0002H44.0003V46.0003Z" fill="#9E3E21"/>
<path d="M44.0003 44.0002H45.9999V41.9998H44L44.0003 44.0002Z" fill="#9E3E21"/>
<path d="M46.0006 42.0007H48.0002V40.0005H46.0006V42.0007Z" fill="#231F20"/>
<path d="M44 42.0007H45.9999V40.0005H44V42.0007Z" fill="#7F2A20"/>
<path d="M44.0003 40.0003L45.9999 40.0005V38.0001H44L44.0003 40.0003Z" fill="#9E3E21"/>
<path d="M46.0006 40.0005H48.0002V37.9999H46.0006V40.0005Z" fill="#9E3E21"/>
<path d="M47.9998 37.9999H50V35.9997H47.9998V37.9999Z" fill="#8C7662"/>
<path d="M47.9998 42.0007H50V40.0005H47.9998V42.0007Z" fill="#7F2A20"/>
<path d="M46.0006 44.0002H48.0002V41.9998H46.0006V44.0002Z" fill="#9E3E21"/>
<path d="M47.9998 40.0005H50V37.9999H47.9998V40.0005Z" fill="#9E3E21"/>
<path d="M54.001 60.0002H56.0006V57.9999H54.001V60.0002Z" fill="#A89179"/>
<path d="M44.0003 37.9999L45.9999 38.0001V35.9997H44L44.0003 37.9999Z" fill="#BCAC95"/>
<path d="M40.0007 43.9999H42.0008V41.9998H40.0007V43.9999Z" fill="#9E3E21"/>
<path d="M41.9999 46.0003H44.0003L44 43.9999H41.9999V46.0003Z" fill="#9E3E21"/>
<path d="M40.0007 46.0006H42.0008V43.9999H40.0007V46.0006Z" fill="#231F20"/>
<path d="M40.0007 42.0007H42.0008V40.0005H40.0007V42.0007Z" fill="#7F2A20"/>
<path d="M40.0007 40.0005H42.0008V38.0001H40.0007V40.0005Z" fill="#9E3E21"/>
<path d="M41.9999 48.0007H44V46.0006L41.9999 46.0003V48.0007Z" fill="#231F20"/>
<path d="M46.0006 48.0003H48.0002L48.0002 46H46.0006L46.0006 48.0003Z" fill="#231F20"/>
<path d="M47.9998 48.0007H50.0002L50 46.0003H47.9998V48.0007Z" fill="#A89179"/>
<path d="M40.0007 38.0001H42.0008V35.9997H40.0007V38.0001Z" fill="#8C7662"/>
<path d="M44 48.0007H45.9999V46.0003H44.0003L44 48.0007Z" fill="#9E3E21"/>
<path d="M46.0006 36.0001H48.0002V34.0002H46.0006V36.0001Z" fill="#231F20"/>
<path d="M50.0002 36.0001H51.9998V34.0002L50.0002 34.0005V36.0001Z" fill="#8C7662"/>
<path d="M50.0002 40.0003L52.0005 40.0003V38.0001L50.0002 38.0001V40.0003Z" fill="#9E3E21"/>
<path d="M50.0002 38.0001L52.0003 37.9999L52.0005 35.9997H50L50.0002 38.0001Z" fill="#A89179"/>
<path d="M50 42.0007H52.0005L52.0003 40.0005L50.0002 40.0003L50 42.0007Z" fill="#231F20"/>
<path d="M44.0003 36.0001H45.9999V34.0002L44.0003 34.0005V36.0001Z" fill="#231F20"/>
<path d="M41.9999 36.0001H44.0003L44 34.0002H41.9999V36.0001Z" fill="#231F20"/>
<path d="M40.0007 36.0001H42.0008V34.0002H40.0007V36.0001Z" fill="#231F20"/>
<path d="M47.9998 36.0001H50.0002L50 34.0002H47.9998V36.0001Z" fill="#231F20"/>
<path d="M50.0002 44.0002L52.0003 43.9999L52.0005 41.9998H50L50.0002 44.0002Z" fill="#9E3E21"/>
<path d="M54.001 46.0006H56.0006V43.9999H54.001V46.0006Z" fill="#231F20"/>
<path d="M34.0008 48.0007H36.0009V46.0006H34.0008V48.0007Z" fill="#EA7A27"/>
<path d="M34.0008 46.0006H36.0009V44.0002H34.0008V46.0006Z" fill="#231F20"/>
<path d="M34.0006 50L36.0009 50V48.0004H34.0008L34.0006 50Z" fill="#C95B21"/>
<path d="M34.0008 44.0002H36.0009V41.9998H34.0006L34.0008 44.0002Z" fill="#C95B21"/>
<path d="M34.0006 42.0007H36.0009V40.0005H34.0008L34.0006 42.0007Z" fill="#C95B21"/>
<path d="M36 54.0004H38.0001V52H36V54.0004Z" fill="#9E3E21"/>
<path d="M34.0006 52H36.0009V50L34.0008 50.0002L34.0006 52Z" fill="#C95B21"/>
<path d="M34.0008 40.0005H36.0009V38.0001L34.0006 38.0001L34.0008 40.0005Z" fill="#231F20"/>
<path d="M38.0004 54.0001L40 54.0004V52H38.0001L38.0004 54.0001Z" fill="#231F20"/>
<path d="M36 52H38.0001V50.0002H36V52Z" fill="#231F20"/>
<path d="M38.0004 30H40V27.9997L38.0004 27.9999V30Z" fill="#A89179"/>
<path d="M40.0007 54.0004H42.0008V52H40.0007V54.0004Z" fill="#8C7662"/>
<path d="M40.0007 30H42.0008V27.9997H40.0007V30Z" fill="#6A5647"/>
<path d="M41.9999 30H44V27.9997H41.9999V30Z" fill="#BCAC95"/>
<path d="M36 30H38.0004L38.0001 27.9997H36V30Z" fill="#A89179"/>
<path d="M34.0006 32.0004H36.0009V30.0003H34.0008L34.0006 32.0004Z" fill="#A89179"/>
<path d="M34.0008 30.0003H36.0009V27.9997L34.0006 27.9999L34.0008 30.0003Z" fill="#A89179"/>
<path d="M34.0008 34.0002H36.0009V32.0001H34.0006L34.0008 34.0002Z" fill="#A89179"/>
<path d="M34.0006 36.0001H36.0009V34.0002H34.0008L34.0006 36.0001Z" fill="#A89179"/>
<path d="M34.0008 37.9999L36.0009 38.0001V35.9997H34.0006L34.0008 37.9999Z" fill="#9E3E21"/>
<path d="M41.9999 52V54.0004H44V52H41.9999Z" fill="#231F20"/>
<path d="M58.0005 42.0007H60.0009V40.0005H58.0005V42.0007Z" fill="#C95B21"/>
<path d="M58.0005 40.0005L60.0006 40.0003V38.0001H58.0005V40.0005Z" fill="#231F20"/>
<path d="M58.0005 43.9999H60.0006L60.0009 41.9998H58.0005V43.9999Z" fill="#231F20"/>
<path d="M58.0005 46.0003H60.0006V43.9999H58.0005V46.0003Z" fill="#EA7A27"/>
<path d="M44 30H45.9999V27.9997L44.0003 27.9999L44 30Z" fill="#231F20"/>
<path d="M58.0005 36.0001H60.0009L60.0006 34.0005H58.0005V36.0001Z" fill="#9E3E21"/>
<path d="M58.0005 38.0001H60.0006L60.0009 35.9997H58.0005V38.0001Z" fill="#231F20"/>
<path d="M58.0005 34.0005H60.0006L60.0009 32.0001H58.0005V34.0005Z" fill="#C95B21"/>
<path d="M58.0005 32.0004H60.0009L60.0006 30H58.0005V32.0004Z" fill="#C95B21"/>
<path d="M58.0005 50H60.0009V48.0004H58.0005V50Z" fill="#C95B21"/>
<path d="M58.0005 48.0007H60.0009L60.0006 46.0003H58.0005V48.0007Z" fill="#C95B21"/>
<path d="M47.9998 54.0004H50V52H47.9998V54.0004Z" fill="#8C7662"/>
<path d="M46.0006 54.0004H48.0002V52H46.0006V54.0004Z" fill="#231F20"/>
<path d="M50.0002 54.0001L52.0003 54.0004V52H50L50.0002 54.0001Z" fill="#231F20"/>
<path d="M58.0005 52.0003H60.0009L60.0006 50.0002L58.0005 50V52.0003Z" fill="#231F20"/>
<path d="M44.0003 54.0001L45.9999 54.0004V52H44L44.0003 54.0001Z" fill="#9E3E21"/>
<path d="M56.0001 54.0004L58.0003 54.0001V52H56.0001V54.0004Z" fill="#231F20"/>
<path d="M58.0005 54.0004H60.0006L60.0009 52H58.0003L58.0005 54.0004Z" fill="#231F20"/>
<path d="M52.0005 54.0001L54.0002 54.0004V52H52.0003L52.0005 54.0001Z" fill="#7F2A20"/>
<path d="M54.001 54.0004H56.0006V52H54.001V54.0004Z" fill="#231F20"/>
<path d="M36 48.0007H38.0004V46.0006H36V48.0007Z" fill="#231F20"/>
<path d="M38.0004 50H40V48.0004H38.0004V50Z" fill="#A89179"/>
<path d="M46.0006 30H48.0002L48.0002 27.9997H46.0006L46.0006 30Z" fill="#BCAC95"/>
<path d="M46.0006 32.0004H48.0002L48.0002 30H46.0006L46.0006 32.0004Z" fill="#BCAC95"/>
<path d="M36 46.0006L38.0001 46.0003V44.0002H36V46.0006Z" fill="#231F20"/>
<path d="M36 44.0002H38.0001L38.0004 41.9998H36V44.0002Z" fill="#C95B21"/>
<path d="M40.0007 52H42.0008V50H40.0007V52Z" fill="#A89179"/>
<path d="M41.9999 50V52.0003H44V50.0002L41.9999 50Z" fill="#231F20"/>
<path d="M44 52.0003H45.9999V50H44.0003L44 52.0003Z" fill="#9E3E21"/>
<path d="M38.0004 51.9998L40 52V50H38.0004V51.9998Z" fill="#8C7662"/>
<path d="M36 42.0007H38.0004L38.0001 40.0005H36V42.0007Z" fill="#231F20"/>
<path d="M36 37.9999H38.0004V35.9997H36V37.9999Z" fill="#A89179"/>
<path d="M36 40.0005H38.0001V38.0001L36 37.9999V40.0005Z" fill="#9E3E21"/>
<path d="M40.0007 32.0004H42.0008V30H40.0007V32.0004Z" fill="#BCAC95"/>
<path d="M41.9999 32.0004H44V30H41.9999V32.0004Z" fill="#BCAC95"/>
<path d="M44 32.0004H45.9999V30L44.0003 30.0003L44 32.0004Z" fill="#231F20"/>
<path d="M38.0004 32.0004H40V30H38.0004V32.0004Z" fill="#6A5647"/>
<path d="M36 36.0001H38.0004L38.0001 34.0005H36V36.0001Z" fill="#A89179"/>
<path d="M46.0006 52.0003H48.0002L48.0002 50H46.0006L46.0006 52.0003Z" fill="#231F20"/>
<path d="M36 32.0004H38.0004L38.0001 30.0003L36 30V32.0004Z" fill="#A89179"/>
<path d="M36 34.0005H38.0001L38.0004 32.0001H36V34.0005Z" fill="#A89179"/>
<path d="M36 50.0002H38.0001L38.0004 48.0004H36V50.0002Z" fill="#231F20"/>
<path d="M56.0001 34.0002H58.0003L58.0005 32.0001H56.0001V34.0002Z" fill="#A89179"/>
<path d="M56.0001 32.0004H58.0005L58.0003 30.0003H56.0001V32.0004Z" fill="#A89179"/>
<path d="M56.0001 37.9999H58.0003L58.0005 35.9997H56.0001V37.9999Z" fill="#9E3E21"/>
<path d="M56.0001 36.0001H58.0005L58.0003 34.0002H56.0001V36.0001Z" fill="#A89179"/>
<path d="M56.0001 30.0003H58.0003V27.9999L56.0001 27.9997V30.0003Z" fill="#A89179"/>
<path d="M47.9998 52.0003H50V50.0002L47.9998 50V52.0003Z" fill="#A89179"/>
<path d="M47.9998 30.0003L50 30V27.9999L47.9998 27.9997V30.0003Z" fill="#6A5647"/>
<path d="M50.0002 30.0003H51.9998V27.9997H50.0002V30.0003Z" fill="#A89179"/>
<path d="M54.001 30.0003H56.0006V27.9997H54.001V30.0003Z" fill="#A89179"/>
<path d="M52.0005 30.0003H54.0002V27.9997H52.0005V30.0003Z" fill="#A89179"/>
<path d="M56.0001 40.0003H58.0003V37.9999H56.0001V40.0003Z" fill="#231F20"/>
<path d="M54.001 52.0003H56.0006V50H54.001V52.0003Z" fill="#9E3E21"/>
<path d="M52.0005 52.0003H54.0002L54.0002 50H52.0005L52.0005 52.0003Z" fill="#231F20"/>
<path d="M56.0001 52.0003H58.0005L58.0003 50.0002H56.0001V52.0003Z" fill="#9E3E21"/>
<path d="M56.0001 42.0007H58.0005L58.0003 40.0003H56.0001V42.0007Z" fill="#7F2A20"/>
<path d="M50 52.0003H52.0005L52.0003 50.0002L50.0002 50L50 52.0003Z" fill="#8C7662"/>
<path d="M56.0001 46.0003H58.0005L58.0003 44.0002H56.0001V46.0003Z" fill="#231F20"/>
<path d="M56.0001 50.0002H58.0003L58.0005 48.0004H56.0001V50.0002Z" fill="#C95B21"/>
<path d="M56.0001 44.0002H58.0003L58.0005 41.9998H56.0001V44.0002Z" fill="#7F2A20"/>
<path d="M56.0001 48.0007H58.0005L58.0003 46.0006L56.0001 46.0003V48.0007Z" fill="#EA7A27"/>
<path d="M52.0005 66.0003H54.0002V64.0006H52.0005V66.0003Z" fill="#8C7662"/>
<path d="M38.0004 66.0003H40V64.0006H38.0004V66.0003Z" fill="#8C7662"/>
<path d="M34.0008 66.0003H36.0009V64.0006H34.0008V66.0003Z" fill="#231F20"/>
<path d="M32.0005 66.0003H34.0008V64.0006H32.0005V66.0003Z" fill="#7F2A20"/>
<path d="M36 66.0003H38.0004V64.0006H36V66.0003Z" fill="#8C7662"/>
<path d="M41.9999 66.0003H44V64.0006H41.9999V66.0003Z" fill="#231F20"/>
<path d="M47.9998 66.0003H50V64.0006H47.9998V66.0003Z" fill="#8C7662"/>
<path d="M44 66.0003H45.9999V64.0006H44V66.0003Z" fill="#7F2A20"/>
<path d="M50 66.0003H52.0005V64.0006H50V66.0003Z" fill="#8C7662"/>
<path d="M46.0006 66.0003H48.0002V64.0006H46.0006V66.0003Z" fill="#231F20"/>
<path d="M40.0007 66.0003H42.0008V64.0006H40.0007V66.0003Z" fill="#8C7662"/>
<path d="M28.0009 66.0003H30.001V64.0006H28.0009V66.0003Z" fill="#7F2A20"/>
<path d="M26.0005 66.0003H28.0009V64.0006H26.0005V66.0003Z" fill="#231F20"/>
<path d="M30.0001 66.0003H31.9997V64.0006H30.0001V66.0003Z" fill="#231F20"/>
<path d="M68 42.0007H69.9996V40.0005H68V42.0007Z" fill="#C95B21"/>
<path d="M68 37.9999H69.9996V35.9997H68V37.9999Z" fill="#231F20"/>
<path d="M68 40.0005H69.9996V37.9999H68V40.0005Z" fill="#231F20"/>
<path d="M68 57.9999H69.9996V56.0002H68V57.9999Z" fill="#231F20"/>
<path d="M68 56.0005H69.9996V54.0004H68V56.0005Z" fill="#C95B21"/>
<path d="M68 54.0004H69.9996V52H68V54.0004Z" fill="#C95B21"/>
<path d="M68 60.0002H69.9996V57.9999H68V60.0002Z" fill="#C95B21"/>
<path d="M56.0001 60.0002H58.0003V58L56.0001 57.9999V60.0002Z" fill="#231F20"/>
<path d="M68 46.0003H69.9996V44.0002H68V46.0003Z" fill="#C95B21"/>
<path d="M68 48.0007H69.9996V46.0003H68V48.0007Z" fill="#C95B21"/>
<path d="M68 52.0003H69.9996V50.0002H68V52.0003Z" fill="#C95B21"/>
<path d="M68 44.0002H69.9996V41.9998H68V44.0002Z" fill="#C95B21"/>
<path d="M54.001 18.0006H56.0006V16.0004H54.001V18.0006Z" fill="#C95B21"/>
<path d="M40.0007 18.0006H42.0008V16.0004H40.0007V18.0006Z" fill="#A89179"/>
<path d="M50.0002 18.0006H52.0003V16.0004H50.0002V18.0006Z" fill="#A89179"/>
<path d="M41.9999 18.0006H44V16.0004H41.9999V18.0006Z" fill="#A89179"/>
<path d="M46.0006 18H48.0002V15.9998H46.0006V18Z" fill="#A89179"/>
<path d="M47.9998 18.0006H50.0002V16.0004H47.9998V18.0006Z" fill="#A89179"/>
<path d="M44 18.0006H46.0004V16.0004H44V18.0006Z" fill="#A89179"/>
<path d="M34.0008 18.0006H36.0009V16.0004H34.0008V18.0006Z" fill="#C95B21"/>
<path d="M38.0004 18.0006H40V16.0004H38.0004V18.0006Z" fill="#A89179"/>
<path d="M36 18.0006H38.0004V16.0004H36V18.0006Z" fill="#C95B21"/>
<path d="M32.0005 18H34.0006V15.9998H32.0005V18Z" fill="#231F20"/>
<path d="M52.0005 18H54.0002V15.9998H52.0005V18Z" fill="#8C7662"/>
<path d="M56.0001 18.0006H58.0003V16.0004H56.0001V18.0006Z" fill="#C95B21"/>
<path d="M58.0003 18.0006H60.0006V16.0004H58.0003V18.0006Z" fill="#231F20"/>
<path d="M54.001 66.0003H56.0006V64.0006H54.001V66.0003Z" fill="#8C7662"/>
<path d="M44.0003 16.0002H45.9999V13.9999H44.0003V16.0002Z" fill="#C95B21"/>
<path d="M46.0006 16.0002H48.0002V13.9999H46.0006V16.0002Z" fill="#8C7662"/>
<path d="M47.9998 16.0004L50 16.0002V14L47.9998 13.9999V16.0004Z" fill="#C95B21"/>
<path d="M50.0002 16.0004H52.0003L52.0005 13.9999H50.0002V16.0004Z" fill="#8C7662"/>
<path d="M42.0011 16.0002H44.0007V14H42.0011V16.0002Z" fill="#8C7662"/>
<path d="M34.0008 16.0004L36.0004 16.0002V14L34.0008 13.9999V16.0004Z" fill="#EA7A27"/>
<path d="M36 16.0004L38.0001 16.0002V13.9999H36V16.0004Z" fill="#C95B21"/>
<path d="M38.0004 16.0004L40.0005 16.0002V14H38.0004V16.0004Z" fill="#8C7662"/>
<path d="M40.0007 16.0004H42.0008V13.9999H40.0007V16.0004Z" fill="#C95B21"/>
<path d="M68 62H69.9996V59.9998H68V62Z" fill="#C95B21"/>
<path d="M52.0005 16.0002H54.0002V13.9999H52.0005V16.0002Z" fill="#C95B21"/>
<path d="M32.0004 16.0002H34.0005V14H32.0004V16.0002Z" fill="#231F20"/>
<path d="M70.0004 54.0001H72.0005V52H70.0004V54.0001Z" fill="#231F20"/>
<path d="M70.0004 52.0003H72.0005V50.0002H70.0004V52.0003Z" fill="#231F20"/>
<path d="M70.0004 56.0005H72.0005V54.0001H70.0004V56.0005Z" fill="#231F20"/>
<path d="M70.0004 60.0002H72.0005V58H70.0004V60.0002Z" fill="#231F20"/>
<path d="M70.0004 58H72.0005V56.0002H70.0004V58Z" fill="#231F20"/>
<path d="M70.0004 62H72.0005V59.9998H70.0004V62Z" fill="#231F20"/>
<path d="M70.0004 42.0007H72.0005V40.0005H70.0004V42.0007Z" fill="#231F20"/>
<path d="M70.0004 46.0003H72.0005V44.0002H70.0004V46.0003Z" fill="#231F20"/>
<path d="M70.0004 50.0002H72.0005V48.0004H70.0004V50.0002Z" fill="#231F20"/>
<path d="M70.0004 48.0007H72.0005V46.0003H70.0004V48.0007Z" fill="#231F20"/>
<path d="M70.0004 44.0002H72.0005V41.9998H70.0004V44.0002Z" fill="#231F20"/>
<path d="M62.0001 66.0003H64.0002V64.0006H62.0001V66.0003Z" fill="#7F2A20"/>
<path d="M58.0005 66.0003H60.0006V64.0006H58.0005V66.0003Z" fill="#7F2A20"/>
<path d="M60.0006 66.0003H62.0005V64.0006H60.0006V66.0003Z" fill="#231F20"/>
<path d="M70.0004 64.0004H72.0005V62H70.0004V64.0004Z" fill="#231F20"/>
<path d="M56.0001 66.0003H58.0005V64.0006H56.0001V66.0003Z" fill="#231F20"/>
<path d="M54.001 16.0004H56.0006V13.9999H54.001V16.0004Z" fill="#C95B21"/>
<path d="M68 66.0003H69.9996V64.0006H68V66.0003Z" fill="#231F20"/>
<path d="M66.0008 66.0003H68.0009V64.0006H66.0008V66.0003Z" fill="#7F2A20"/>
<path d="M64.0002 66.0003H66.0008V64.0006H64.0002V66.0003Z" fill="#231F20"/>
<path d="M58.0005 16.0002L60.0006 16.0004V14H58.0005V16.0002Z" fill="#231F20"/>
<path d="M56.0001 16.0004H58.0003V13.9999H56.0001V16.0004Z" fill="#EA7A27"/>
<path d="M68 50.0002H69.9996V48.0004H68V50.0002Z" fill="#C95B21"/>
<path d="M26.0005 43.9999H28.0009V41.9998H26.0005V43.9999Z" fill="#231F20"/>
<path d="M26.0005 50H28.0006L28.0009 48.0004L26.0005 48.0003V50Z" fill="#231F20"/>
<path d="M26.0005 48.0003L28.0006 48.0001V46H26.0005V48.0003Z" fill="#231F20"/>
<path d="M26.0005 46.0003H28.0006V44.0002L26.0005 43.9999V46.0003Z" fill="#231F20"/>
<path d="M26.0005 52.0004H28.0006V50.0008H26.0005V52.0004Z" fill="#231F20"/>
<path d="M28.0009 62H30.001V59.9998H28.0009V62Z" fill="#C95B21"/>
<path d="M28.0009 60.0002H30.001V57.9999H28.0009V60.0002Z" fill="#EA7A27"/>
<path d="M26.0005 60.0002L28.0009 60.0002L28.0006 58.0001H26.0005V60.0002Z" fill="#231F20"/>
<path d="M30.0001 62H31.9997V59.9998H30.0001V62Z" fill="#C95B21"/>
<path d="M58.0005 62H60.0006V59.9998H58.0005V62Z" fill="#C95B21"/>
<path d="M56.0001 62H58.0005V59.9998H56.0001V62Z" fill="#231F20"/>
<path d="M54.001 62H56.0006V59.9998H54.001V62Z" fill="#A89179"/>
<path d="M60.0006 62H62.0005V59.9998H60.0006V62Z" fill="#C95B21"/>
<path d="M52.0005 62.0006H54.0002L54.0002 60.0002L52.0005 60.0004V62.0006Z" fill="#A89179"/>
<path d="M66.0008 60.0002H68.0009V58H66.0008V60.0002Z" fill="#C95B21"/>
<path d="M50.0002 62H52.0003V59.9998H50.0002V62Z" fill="#A89179"/>
<path d="M66.0008 62H68.0009V59.9998H66.0008V62Z" fill="#C95B21"/>
<path d="M64.0004 62H66.0008V59.9998H64.0004V62Z" fill="#C95B21"/>
<path d="M62.0001 62H64.0004V59.9998H62.0001V62Z" fill="#C95B21"/>
<path d="M36 62H38.0001V59.9998H36V62Z" fill="#A89179"/>
<path d="M34.0008 62H36.0009V59.9998H34.0008V62Z" fill="#231F20"/>
<path d="M32.0005 62.0006H34.0006V60.0004L32.0004 60.0002L32.0005 62.0006Z" fill="#C95B21"/>
<path d="M38.0001 62H40V59.9998H38.0001V62Z" fill="#A89179"/>
<path d="M41.9999 62H44V59.9998H41.9999V62Z" fill="#231F20"/>
<path d="M44 62H45.9999V59.9998H44V62Z" fill="#9E3E21"/>
<path d="M46.0006 62.0006H48.0002L48.0002 60.0002H46.0006L46.0006 62.0006Z" fill="#231F20"/>
<path d="M40.0007 62H42.0008V59.9998H40.0007V62Z" fill="#A89179"/>
<path d="M47.9998 62H50.0002V59.9998H47.9998V62Z" fill="#A89179"/>
<path d="M64.0002 37.9999H66.0006V35.9997H64.0002V37.9999Z" fill="#C95B21"/>
<path d="M66.0008 58H68.0009V56.0002H66.0008V58Z" fill="#EA7A27"/>
<path d="M64.0002 42.0007H66.0006V40.0005H64.0002V42.0007Z" fill="#C95B21"/>
<path d="M64.0004 43.9999H66.0006V41.9998H64.0002L64.0004 43.9999Z" fill="#C95B21"/>
<path d="M64.0002 48.0007H66.0006V46.0006H64.0002V48.0007Z" fill="#C95B21"/>
<path d="M64.0004 46.0003L66.0006 46.0006V43.9999H64.0004V46.0003Z" fill="#9E3E21"/>
<path d="M64.0002 36.0001H66.0006V34.0005H64.0004L64.0002 36.0001Z" fill="#C95B21"/>
<path d="M64.0004 34.0005H66.0006V32.0001H64.0002L64.0004 34.0005Z" fill="#231F20"/>
<path d="M62.0001 60.0002H64.0002V57.9999H62.0001V60.0002Z" fill="#C95B21"/>
<path d="M60.0009 60.0002H62.0005V57.9999L60.0009 58V60.0002Z" fill="#C95B21"/>
<path d="M64.0002 60.0002H66.0008V58H64.0004L64.0002 60.0002Z" fill="#C95B21"/>
<path d="M58.0003 60.0002H60.0009L60.0006 57.9999H58.0005L58.0003 60.0002Z" fill="#C95B21"/>
<path d="M68 64.0006H69.9996V62H68V64.0006Z" fill="#9E3E21"/>
<path d="M64.0002 52.0003H66.0006V50.0002H64.0002V52.0003Z" fill="#231F20"/>
<path d="M64.0004 54.0001H66.0006V52H64.0002L64.0004 54.0001Z" fill="#7F2A20"/>
<path d="M64.0004 58L66.0006 57.9999L66.0008 56.0002H64.0002L64.0004 58Z" fill="#EA7A27"/>
<path d="M64.0004 50L66.0006 50.0002V48.0004H64.0002L64.0004 50Z" fill="#9E3E21"/>
<path d="M64.0004 40.0003L66.0006 40.0005V37.9999L64.0004 38.0001V40.0003Z" fill="#9E3E21"/>
<path d="M40.0007 21.9999H42.0008V20.0001H40.0007V21.9999Z" fill="#614F41"/>
<path d="M38.0004 21.9997L40 21.9999V20.0001H38.0004V21.9997Z" fill="#836E5B"/>
<path d="M41.9999 21.9999L44 21.9997V20.0001H41.9999V21.9999Z" fill="#231F20"/>
<path d="M48.001 21.9999H50.0011V20.0001H48.001V21.9999Z" fill="#614F41"/>
<path d="M46.0006 21.9999H48.0002V20.0001H46.0006V21.9999Z" fill="#231F20"/>
<path d="M44.0003 21.9999H45.9999V20.0001H44L44.0003 21.9999Z" fill="#836E5B"/>
<path d="M32.0005 21.9999H34.0008L34.0006 20.0001H32.0005V21.9999Z" fill="#EA7A27"/>
<path d="M36 21.9999H38.0001L38.0004 20.0001H36V21.9999Z" fill="#BCAC95"/>
<path d="M30.0001 21.9999H31.9997V20.0001H30.0001V21.9999Z" fill="#231F20"/>
<path d="M34.0008 21.9999H36.0009V20.0001H34.0006L34.0008 21.9999Z" fill="#8C7662"/>
<path d="M52.0003 21.9999H54.0002V20.0001H52.0005L52.0003 21.9999Z" fill="#BCAC95"/>
<path d="M60.0009 21.9999H62.0005V20.0001H60.0009V21.9999Z" fill="#231F20"/>
<path d="M50.0002 21.9999H52.0003L52.0005 20.0001H50.0002V21.9999Z" fill="#836E5B"/>
<path d="M58.0005 21.9997H60.0006L60.0009 20.0001H58.0005V21.9997Z" fill="#C95B21"/>
<path d="M54.001 21.9999H56.0006V20.0001H54.001V21.9999Z" fill="#A89179"/>
<path d="M56.0001 21.9999H58.0003L58.0005 20.0001H56.0001V21.9999Z" fill="#8C7662"/>
<path d="M64.0002 56.0005H66.0006V54.0001H64.0004L64.0002 56.0005Z" fill="#231F20"/>
<path d="M26.0005 62.0006H28.0006V60.0004L26.0005 60.0002V62.0006Z" fill="#231F20"/>
<path d="M26.0005 64.0006L28.0006 64.0004V62.0002H26.0005V64.0006Z" fill="#231F20"/>
<path d="M58.0005 64.0006H60.0006V62H58.0005V64.0006Z" fill="#9E3E21"/>
<path d="M54.001 64.0006H56.0006V62H54.001V64.0006Z" fill="#A89179"/>
<path d="M56.0001 64.0006L58.0003 64.0004V62.0002L56.0001 62V64.0006Z" fill="#231F20"/>
<path d="M52.0005 64.0006H54.0002V62.0002H52.0005V64.0006Z" fill="#A89179"/>
<path d="M50.0002 64.0004H52.0003V62H50.0002V64.0004Z" fill="#231F20"/>
<path d="M64.0004 64.0004H66.0006V62.0002L64.0004 62V64.0004Z" fill="#9E3E21"/>
<path d="M66.0008 64.0006H68.0009V62H66.0008V64.0006Z" fill="#9E3E21"/>
<path d="M47.9998 64.0006H50V62.0002L47.9998 62V64.0006Z" fill="#231F20"/>
<path d="M62.0001 64.0006H64.0002V62.0002L62.0001 62V64.0006Z" fill="#9E3E21"/>
<path d="M60.0009 64.0004L62.0005 64.0006V62L60.0009 62.0002V64.0004Z" fill="#9E3E21"/>
<path d="M38.0004 64.0006H40V62L38.0004 62.0002V64.0006Z" fill="#A89179"/>
<path d="M32.0005 64.0006L34.0006 64.0004V62.0002H32.0005V64.0006Z" fill="#9E3E21"/>
<path d="M36 64.0006L38.0001 64.0004V62H36V64.0006Z" fill="#A89179"/>
<path d="M34.0008 64.0006H36.0009V62H34.0008V64.0006Z" fill="#231F20"/>
<path d="M30.0001 64.0006H31.9997V62H30.0001V64.0006Z" fill="#9E3E21"/>
<path d="M44.0003 64.0004L45.9999 64.0006V62L44.0003 62.0002V64.0004Z" fill="#7F2A20"/>
<path d="M41.9999 64.0006H44V62H41.9999V64.0006Z" fill="#231F20"/>
<path d="M28.0009 64.0006H30.001V62H28.0009V64.0006Z" fill="#9E3E21"/>
<path d="M46.0006 64.0006H48.0002V62.0002H46.0006V64.0006Z" fill="#231F20"/>
<path d="M40.0007 64.0006H42.0008V62H40.0007V64.0006Z" fill="#231F20"/>
<path d="M66.0006 36.0001H68.0009V34.0005H66.0006V36.0001Z" fill="#231F20"/>
<path d="M66.0006 48.0007H68.0009V46.0006H66.0006V48.0007Z" fill="#231F20"/>
<path d="M66.0006 52.0003H68.0009V50.0002H66.0006V52.0003Z" fill="#9E3E21"/>
<path d="M66.0008 50L68.0009 50.0002V48.0004H66.0006L66.0008 50Z" fill="#231F20"/>
<path d="M66.0006 54.0001H68.0009V52H66.0006V54.0001Z" fill="#9E3E21"/>
<path d="M66.0006 42.0007H68.0009V40.0005H66.0006V42.0007Z" fill="#231F20"/>
<path d="M66.0008 40.0003L68.0009 40.0005V38.0001H66.0008V40.0003Z" fill="#C95B21"/>
<path d="M66.0008 38.0001H68.0009V35.9997H66.0006L66.0008 38.0001Z" fill="#C95B21"/>
<path d="M66.0008 46.0003L68.0009 46.0006V44.0002H66.0008V46.0003Z" fill="#231F20"/>
<path d="M66.0008 44.0002H68.0009V41.9998H66.0006L66.0008 44.0002Z" fill="#231F20"/>
<path d="M41.9999 20.0001H44V18.0002H41.9999V20.0001Z" fill="#BCAC95"/>
<path d="M32.0005 20.0001H34.0006V18H32.0005V20.0001Z" fill="#EA7A27"/>
<path d="M34.0006 20.0001H36.0009V18.0002H34.0008L34.0006 20.0001Z" fill="#C95B21"/>
<path d="M30.0001 20.0001H31.9997V18.0002H30.0001V20.0001Z" fill="#231F20"/>
<path d="M36 20.0001L38.0001 19.9999V18.0002H36V20.0001Z" fill="#8C7662"/>
<path d="M38.0004 20.0001H40V18.0002H38.0001L38.0004 20.0001Z" fill="#BCAC95"/>
<path d="M40.0007 20.0001H42.0008V18.0002H40.0007V20.0001Z" fill="#BCAC95"/>
<path d="M66.0006 56.0005H68.0009V54.0001L66.0008 54.0004L66.0006 56.0005Z" fill="#231F20"/>
<path d="M44.0003 19.9999L45.9999 20.0001V18.0002H44L44.0003 19.9999Z" fill="#A89179"/>
<path d="M52.0005 20.0001H54.0002V18H52.0005V20.0001Z" fill="#A89179"/>
<path d="M54.001 20.0001H56.0006V18.0002H54.001V20.0001Z" fill="#8C7662"/>
<path d="M56.0001 20.0001L58.0003 19.9999V18.0002H56.0001V20.0001Z" fill="#C95B21"/>
<path d="M58.0005 20.0001L60.0006 19.9999V18.0002H58.0003L58.0005 20.0001Z" fill="#EA7A27"/>
<path d="M60.0009 20.0001H62.0005V18.0002H60.0006L60.0009 20.0001Z" fill="#231F20"/>
<path d="M46.0006 20.0001L48.0007 19.9999V18.0002L46.0006 18V20.0001Z" fill="#BCAC95"/>
<path d="M47.9998 19.9999H50V18.0002H47.9998V19.9999Z" fill="#BCAC95"/>
<path d="M50.0002 20.0001H52.0005L52.0003 18.0002H50L50.0002 20.0001Z" fill="#BCAC95"/>
</g>
</svg>
