<svg width="93" height="33" viewBox="0 0 93 33" fill="none" xmlns="http://www.w3.org/2000/svg">
<mask id="mask0_3477_72760" style="mask-type:alpha" maskUnits="userSpaceOnUse" x="0" y="0" width="93" height="33">
<rect width="93" height="33" fill="#D9D9D9"/>
</mask>
<g mask="url(#mask0_3477_72760)">
<path d="M29.1327 61.4705H30.6661V59.9409H29.1327V61.4705Z" fill="#444142"/>
<path d="M27.6003 61.4705H29.1337V59.9409H27.6003V61.4705Z" fill="#231F20"/>
<path d="M30.6672 61.4705H32.2002V59.9409H30.6672V61.4705Z" fill="#444142"/>
<path d="M53.6657 61.4705H55.1991V59.9409H53.6657V61.4705Z" fill="#444142"/>
<path d="M52.1332 61.4705H53.6663V59.9409H52.1332V61.4705Z" fill="#444142"/>
<path d="M55.1991 61.4705H56.7325V59.9409H55.1991V61.4705Z" fill="#444142"/>
<path d="M32.1996 61.4705H33.7331V59.941H32.1996V61.4705Z" fill="#444142"/>
<path d="M47.5329 61.4705H49.0664V59.9409H47.5329V61.4705Z" fill="#231F20"/>
<path d="M50.5998 61.4705H52.1332V59.9409H50.5998V61.4705Z" fill="#444142"/>
<path d="M59.7994 61.4705H61.3328V59.941H59.7994V61.4705Z" fill="#444142"/>
<path d="M56.7325 61.4705H58.2659V59.9409H56.7325V61.4705Z" fill="#444142"/>
<path d="M58.2659 61.4705H59.799V59.9409H58.2659V61.4705Z" fill="#444142"/>
<path d="M49.0664 61.4705H50.5994V59.9409H49.0664V61.4705Z" fill="#444142"/>
<path d="M61.3328 61.4705L62.8663 61.4705V59.9409L61.3328 59.941V61.4705Z" fill="#231F20"/>
<path d="M36.7999 61.4705H38.3329V59.941H36.7999V61.4705Z" fill="#444142"/>
<path d="M45.9995 61.4705H47.5329V59.9409H45.9995V61.4705Z" fill="#A8A5A4"/>
<path d="M35.2665 61.4705L36.7999 61.4705V59.941L35.2665 59.9409V61.4705Z" fill="#444142"/>
<path d="M38.3333 59.9409V61.4705H39.8668V59.9409H38.3333Z" fill="#231F20"/>
<path d="M33.7331 61.4705L35.2665 61.4705V59.9409L33.7331 59.941V61.4705Z" fill="#444142"/>
<path d="M39.8668 61.4705H41.4002V59.9409H39.8668V61.4705Z" fill="#A8A5A4"/>
<path d="M42.9336 61.4705H44.4667V59.9409H42.9336V61.4705Z" fill="#A8A5A4"/>
<path d="M44.4661 61.4705H45.9995V59.9409H44.4661V61.4705Z" fill="#A8A5A4"/>
<path d="M41.4002 61.4705H42.9336V59.9409H41.4002V61.4705Z" fill="#A8A5A4"/>
<path d="M27.6003 15.5882H29.1337V14.0591H27.6003V15.5882Z" fill="#231F20"/>
<path d="M42.9326 15.5882H44.466V14.0591H42.9326V15.5882Z" fill="#5A5758"/>
<path d="M35.2665 15.5882H36.7999V14.0591H35.2665V15.5882Z" fill="#231F20"/>
<path d="M41.3992 15.5882H42.9326V14.0591H41.3992V15.5882Z" fill="#231F20"/>
<path d="M32.1996 15.5882H33.7331V14.059H32.1996V15.5882Z" fill="#CB606E"/>
<path d="M62.8663 61.4705H64.3997V59.9409H62.8663V61.4705Z" fill="#A8A5A4"/>
<path d="M29.1327 15.5882H30.6661V14.0591H29.1327V15.5882Z" fill="#5A5758"/>
<path d="M30.6672 15.5882H32.2002V14.0591H30.6672V15.5882Z" fill="#CB606E"/>
<path d="M47.5319 15.5882H49.0653V14.059H47.5319V15.5882Z" fill="#CB606E"/>
<path d="M44.465 15.5882H45.9985V14.0591H44.465V15.5882Z" fill="#CB606E"/>
<path d="M45.9985 15.5882H47.5315V14.0591H45.9985V15.5882Z" fill="#CB606E"/>
<path d="M50.5988 15.5882H52.1322V14.0591H50.5988V15.5882Z" fill="#231F20"/>
<path d="M49.0653 15.5882L50.5988 15.5882V14.0591L49.0653 14.059V15.5882Z" fill="#5A5758"/>
<path d="M33.7331 15.5882L35.2665 15.5882V14.0591L33.7331 14.059V15.5882Z" fill="#5A5758"/>
<path d="M27.6003 14.0587H29.1337V12.5295H27.6003V14.0587Z" fill="#231F20"/>
<path d="M29.1327 14.0587H30.6661V12.5295H29.1327V14.0587Z" fill="#868484"/>
<path d="M30.6672 14.0587H32.2002V12.5295H30.6672V14.0587Z" fill="#5A5758"/>
<path d="M32.1996 14.0587H33.7331V12.5295H32.1996V14.0587Z" fill="#5A5758"/>
<path d="M42.9326 14.0587H44.466V12.5295H42.9326V14.0587Z" fill="#868484"/>
<path d="M44.465 14.0587H45.9985V12.5295H44.465V14.0587Z" fill="#5A5758"/>
<path d="M45.9985 14.0587H47.5315V12.5295H45.9985V14.0587Z" fill="#5A5758"/>
<path d="M47.5319 14.0587H49.0653V12.5295H47.5319V14.0587Z" fill="#5A5758"/>
<path d="M35.2665 14.0587H36.7999V12.5295H35.2665V14.0587Z" fill="#231F20"/>
<path d="M41.3992 14.0587H42.9326V12.5295H41.3992V14.0587Z" fill="#231F20"/>
<path d="M33.7331 14.0587L35.2665 14.0587V12.5295L33.7331 12.5295V14.0587Z" fill="#5A5758"/>
<path d="M64.3997 61.4705L65.9327 61.4705V59.941L64.3997 59.9409V61.4705Z" fill="#231F20"/>
<path d="M49.0653 14.0587H50.5988V12.5295H49.0653V14.0587Z" fill="#5A5758"/>
<path d="M64.3997 40.059H65.9327V38.5295H64.3997V40.059Z" fill="#231F20"/>
<path d="M64.3997 43.1177H65.9327V41.5886H64.3997V43.1177Z" fill="white"/>
<path d="M64.3997 44.6471H65.9327V43.1177H64.3997V44.6471Z" fill="white"/>
<path d="M64.3997 41.5886H65.9327V40.059H64.3997V41.5886Z" fill="white"/>
<path d="M64.3997 46.1767H65.9327V44.6471H64.3997V46.1767Z" fill="white"/>
<path d="M64.3997 56.8823H65.9327V55.3528H64.3997V56.8823Z" fill="#C8C4C3"/>
<path d="M64.3997 58.4119H65.9327V56.8823H64.3997V58.4119Z" fill="#C8C4C3"/>
<path d="M64.3997 59.9409L65.9327 59.941V58.4119H64.3997L64.3997 59.9409Z" fill="#A8A5A4"/>
<path d="M64.3997 55.3528H65.9327L65.9327 53.8238H64.3997L64.3997 55.3528Z" fill="#E7E3E2"/>
<path d="M64.3997 53.8234H65.9327V52.2943H64.3997V53.8234Z" fill="#E7E3E2"/>
<path d="M64.3997 50.7647H65.9327V49.2352H64.3997V50.7647Z" fill="white"/>
<path d="M64.3997 49.2352H65.9327V47.7057H64.3997V49.2352Z" fill="white"/>
<path d="M64.3997 47.7057H65.9327V46.1767H64.3997V47.7057Z" fill="white"/>
<path d="M64.3997 52.2943H65.9327V50.7647H64.3997V52.2943Z" fill="white"/>
<path d="M50.5988 14.0587L52.1322 14.0587V12.5295L50.5988 12.5295V14.0587Z" fill="#231F20"/>
<path d="M47.5329 58.4119H49.0664V56.8824H47.5329V58.4119Z" fill="#C8C4C3"/>
<path d="M45.9995 17.1176H47.5329V15.5881H45.9995V17.1176Z" fill="#231F20"/>
<path d="M49.0664 17.1176H50.5994V15.5881H49.0664V17.1176Z" fill="#231F20"/>
<path d="M47.5329 17.1176H49.0664V15.5881H47.5329V17.1176Z" fill="#231F20"/>
<path d="M32.1996 17.1176H33.7331L33.7331 15.5882H32.1996L32.1996 17.1176Z" fill="#231F20"/>
<path d="M44.4661 17.1176H45.9995V15.5881L44.466 15.5882L44.4661 17.1176Z" fill="#231F20"/>
<path d="M29.1327 17.1176H30.6661V15.5882H29.1327V17.1176Z" fill="#231F20"/>
<path d="M39.8668 17.1176H41.4002V15.5881H39.8668V17.1176Z" fill="#231F20"/>
<path d="M38.3333 17.1176H39.8668V15.5881H38.3333V17.1176Z" fill="#231F20"/>
<path d="M41.4002 17.1176H42.9336V15.5881H41.4002V17.1176Z" fill="#231F20"/>
<path d="M42.9336 17.1176H44.4667V15.5881H42.9336V17.1176Z" fill="#231F20"/>
<path d="M33.7331 17.1176H35.2664L35.2665 15.5882L33.7331 15.5882L33.7331 17.1176Z" fill="#231F20"/>
<path d="M30.6672 17.1176H32.2002V15.5882H30.6672V17.1176Z" fill="#231F20"/>
<path d="M36.7999 17.1176H38.3329V15.5881L36.7999 15.5882L36.7999 17.1176Z" fill="#231F20"/>
<path d="M35.2664 17.1176H36.7999L36.7999 15.5882H35.2665L35.2664 17.1176Z" fill="#231F20"/>
<path d="M39.8668 58.4119H41.4002V56.8824H39.8668V58.4119Z" fill="#E7E3E2"/>
<path d="M41.4002 58.4119H42.9336V56.8824H41.4002V58.4119Z" fill="#E7E3E2"/>
<path d="M42.9336 58.4119H44.4667V56.8824H42.9336V58.4119Z" fill="#E7E3E2"/>
<path d="M52.1332 58.4119H53.6663V56.8824H52.1332V58.4119Z" fill="#5A5758"/>
<path d="M35.2665 58.4119H36.7999V56.8824H35.2665V58.4119Z" fill="#444142"/>
<path d="M36.7999 58.4119L38.3329 58.4119V56.8823L36.7999 56.8824V58.4119Z" fill="#231F20"/>
<path d="M49.0664 58.4119H50.5994V56.8824H49.0664V58.4119Z" fill="#231F20"/>
<path d="M50.5998 58.4119H52.1332V56.8824H50.5998V58.4119Z" fill="#5A5758"/>
<path d="M44.4661 58.4119H45.9995V56.8824H44.4661V58.4119Z" fill="#E7E3E2"/>
<path d="M45.9995 58.4119H47.5329V56.8824H45.9995V58.4119Z" fill="#E7E3E2"/>
<path d="M38.3333 58.4119H39.8668V56.8824H38.3333V58.4119Z" fill="#E7E3E2"/>
<path d="M33.733 58.4119H35.2665V56.8824H33.733V58.4119Z" fill="#5A5758"/>
<path d="M32.1996 58.4119L33.733 58.4119V56.8824L32.1996 56.8823V58.4119Z" fill="#5A5758"/>
<path d="M30.6672 58.4119H32.2002V56.8824H30.6672V58.4119Z" fill="#5A5758"/>
<path d="M29.1327 58.4119H30.6661V56.8824H29.1327V58.4119Z" fill="#5A5758"/>
<path d="M27.6003 58.4119H29.1337V56.8824H27.6003V58.4119Z" fill="#231F20"/>
<path d="M61.3328 56.8824H62.8663V55.3529H61.3328V56.8824Z" fill="#231F20"/>
<path d="M61.3328 44.6471H62.8663V43.1176H61.3328V44.6471Z" fill="white"/>
<path d="M61.3328 46.1767H62.8663V44.6471H61.3328V46.1767Z" fill="white"/>
<path d="M61.3328 49.2352H62.8663V47.7057H61.3328V49.2352Z" fill="white"/>
<path d="M61.3328 50.7647H62.8663V49.2352H61.3328V50.7647Z" fill="white"/>
<path d="M53.6697 58.4119H55.2032V56.8824H53.6697V58.4119Z" fill="#5A5758"/>
<path d="M61.3328 47.7057H62.8663V46.1767H61.3328V47.7057Z" fill="white"/>
<path d="M61.3328 36.9996H62.8663V35.4705H61.3328V36.9996Z" fill="#5A5758"/>
<path d="M61.3328 38.5295H62.8663V37H61.3328V38.5295Z" fill="#444142"/>
<path d="M61.3328 41.5886H62.8663V40.0591H61.3328V41.5886Z" fill="white"/>
<path d="M61.3328 40.0591H62.8663V38.5295H61.3328V40.0591Z" fill="#231F20"/>
<path d="M61.3328 43.1176H62.8663V41.5886H61.3328V43.1176Z" fill="white"/>
<path d="M58.266 58.4119H59.799V56.8824H58.266V58.4119Z" fill="#5A5758"/>
<path d="M56.7325 58.4119H58.266V56.8824H56.7325V58.4119Z" fill="#5A5758"/>
<path d="M55.1859 58.4119H56.7193V56.8824H55.1859V58.4119Z" fill="#5A5758"/>
<path d="M59.7994 58.4119H61.3328V56.8824L59.7994 56.8823V58.4119Z" fill="#444142"/>
<path d="M61.3328 52.2943H62.8663V50.7647H61.3328V52.2943Z" fill="white"/>
<path d="M61.3328 55.3529H62.8663V53.8238H61.3328V55.3529Z" fill="#231F20"/>
<path d="M61.3328 53.8234H62.8663V52.2943H61.3328V53.8234Z" fill="#231F20"/>
<path d="M61.3328 35.4705H62.8663V33.9409H61.3328V35.4705Z" fill="#231F20"/>
<path d="M61.3328 58.4119L62.8663 58.4119V56.8824H61.3328V58.4119Z" fill="#231F20"/>
<path d="M62.8663 53.8234H64.3997V52.2943L62.8663 52.2943V53.8234Z" fill="white"/>
<path d="M62.8663 52.2943L64.3997 52.2943V50.7647H62.8663V52.2943Z" fill="white"/>
<path d="M62.8663 56.8824L64.3997 56.8823V55.3528L62.8663 55.3529V56.8824Z" fill="#E7E3E2"/>
<path d="M62.8663 55.3529L64.3997 55.3528L64.3997 53.8238H62.8663V55.3529Z" fill="white"/>
<path d="M62.8663 58.4119L64.3997 58.4119V56.8823L62.8663 56.8824V58.4119Z" fill="#C8C4C3"/>
<path d="M62.8663 50.7647H64.3997V49.2352L62.8663 49.2352V50.7647Z" fill="white"/>
<path d="M62.8663 46.1767H64.3997V44.6471H62.8663V46.1767Z" fill="white"/>
<path d="M62.8663 44.6471H64.3997V43.1177L62.8663 43.1176V44.6471Z" fill="white"/>
<path d="M49.0664 59.9409H50.5994V58.4119H49.0664V59.9409Z" fill="#231F20"/>
<path d="M62.8663 59.9409H64.3997L64.3997 58.4119L62.8663 58.4119V59.9409Z" fill="#C8C4C3"/>
<path d="M52.1332 59.9409H53.6663V58.4119H52.1332V59.9409Z" fill="#5A5758"/>
<path d="M55.1991 59.9409H56.7325L56.7325 58.4119L55.1991 58.4119L55.1991 59.9409Z" fill="#5A5758"/>
<path d="M53.6657 59.9409H55.1991L55.1991 58.4119H53.6657V59.9409Z" fill="#5A5758"/>
<path d="M50.5998 59.9409H52.1332V58.4119H50.5998V59.9409Z" fill="#5A5758"/>
<path d="M58.2659 59.9409H59.799V58.4119H58.266L58.2659 59.9409Z" fill="#5A5758"/>
<path d="M59.7994 59.941H61.3328V58.4119H59.7994V59.941Z" fill="#231F20"/>
<path d="M61.3328 59.941L62.8663 59.9409V58.4119L61.3328 58.4119V59.941Z" fill="#231F20"/>
<path d="M62.8663 43.1176L64.3997 43.1177V41.5886L62.8663 41.5886V43.1176Z" fill="white"/>
<path d="M56.7325 59.9409H58.2659L58.266 58.4119H56.7325L56.7325 59.9409Z" fill="#5A5758"/>
<path d="M62.8663 49.2352L64.3997 49.2352V47.7057H62.8663V49.2352Z" fill="white"/>
<path d="M62.8663 38.5295L64.3997 38.5295L64.3997 37H62.8663V38.5295Z" fill="#231F20"/>
<path d="M62.8663 40.0591L64.3997 40.059V38.5295L62.8663 38.5295V40.0591Z" fill="white"/>
<path d="M62.8663 36.9996H64.3997V35.4705H62.8663V36.9996Z" fill="#231F20"/>
<path d="M62.8663 41.5886L64.3997 41.5886V40.059L62.8663 40.0591V41.5886Z" fill="white"/>
<path d="M62.8663 47.7057H64.3997V46.1767H62.8663V47.7057Z" fill="white"/>
<path d="M39.8668 59.9409H41.4002V58.4119H39.8668L39.8668 59.9409Z" fill="#C8C4C3"/>
<path d="M32.1996 59.941H33.7331L33.733 58.4119L32.1996 58.4119V59.941Z" fill="#5A5758"/>
<path d="M47.5329 59.9409H49.0664V58.4119H47.5329V59.9409Z" fill="#C8C4C3"/>
<path d="M38.3333 59.9409H39.8668L39.8668 58.4119H38.3333V59.9409Z" fill="#C8C4C3"/>
<path d="M35.2665 59.9409L36.7999 59.941L36.7999 58.4119H35.2665V59.9409Z" fill="#444142"/>
<path d="M33.7331 59.941L35.2665 59.9409V58.4119H33.733L33.7331 59.941Z" fill="#5A5758"/>
<path d="M36.7999 59.941H38.3329V58.4119L36.7999 58.4119L36.7999 59.941Z" fill="#231F20"/>
<path d="M44.4661 59.9409H45.9995L45.9995 58.4119H44.4661V59.9409Z" fill="#C8C4C3"/>
<path d="M45.9995 59.9409H47.5329V58.4119H45.9995L45.9995 59.9409Z" fill="#C8C4C3"/>
<path d="M41.4002 59.9409H42.9336L42.9336 58.4119H41.4002V59.9409Z" fill="#C8C4C3"/>
<path d="M42.9336 59.9409H44.4667V58.4119H42.9336L42.9336 59.9409Z" fill="#C8C4C3"/>
<path d="M29.1327 59.9409H30.6661V58.4119H29.1327V59.9409Z" fill="#231F20"/>
<path d="M30.6672 59.9409H32.2002V58.4119H30.6672V59.9409Z" fill="#5A5758"/>
<path d="M67.4666 55.353H69V53.8238H67.4666V55.353Z" fill="#231F20"/>
<path d="M67.4666 53.8234H69V52.2943H67.4666V53.8234Z" fill="#231F20"/>
<path d="M67.4666 52.2943H69V50.7648H67.4666V52.2943Z" fill="#231F20"/>
<path d="M67.4666 49.2352H69V47.7057H67.4666V49.2352Z" fill="#231F20"/>
<path d="M67.4666 46.1767H69V44.6472H67.4666V46.1767Z" fill="#231F20"/>
<path d="M67.4666 47.7057H69V46.1767H67.4666V47.7057Z" fill="#231F20"/>
<path d="M67.4666 50.7648H69V49.2352H67.4666V50.7648Z" fill="#231F20"/>
<path d="M67.4666 56.8824H69V55.353H67.4666V56.8824Z" fill="#231F20"/>
<path d="M65.9321 41.5886H67.4655V40.0591H65.9321V41.5886Z" fill="#231F20"/>
<path d="M65.9321 43.1177H67.4655V41.5886H65.9321V43.1177Z" fill="#231F20"/>
<path d="M65.9321 44.6471H67.4655V43.1177H65.9321V44.6471Z" fill="#231F20"/>
<path d="M65.9321 46.1767H67.4655V44.6471H65.9321V46.1767Z" fill="white"/>
<path d="M65.9321 56.8824H67.4655V55.3529H65.9321V56.8824Z" fill="#A8A5A4"/>
<path d="M65.9321 58.4119H67.4655V56.8824H65.9321V58.4119Z" fill="#231F20"/>
<path d="M65.9321 47.7058H67.4655V46.1767H65.9321V47.7058Z" fill="white"/>
<path d="M65.9321 59.941H67.4655V58.4119H65.9321V59.941Z" fill="#231F20"/>
<path d="M65.9321 53.8234H67.4655V52.2943H65.9321V53.8234Z" fill="#C8C4C3"/>
<path d="M65.9321 49.2352H67.4655V47.7058H65.9321V49.2352Z" fill="white"/>
<path d="M65.9321 50.7647H67.4655V49.2352H65.9321V50.7647Z" fill="white"/>
<path d="M65.9321 52.2943H67.4655V50.7647H65.9321V52.2943Z" fill="#C8C4C3"/>
<path d="M65.9321 55.3529H67.4655V53.8238H65.9321V55.3529Z" fill="#C8C4C3"/>
<path d="M55.1991 63H56.7325L56.7325 61.4705H55.1991L55.1991 63Z" fill="#231F20"/>
<path d="M30.6672 63H32.2002L32.2002 61.4705H30.6672L30.6672 63Z" fill="#231F20"/>
<path d="M29.1327 63H30.6661L30.6661 61.4705H29.1327L29.1327 63Z" fill="#231F20"/>
<path d="M32.1996 63H33.7331V61.4705H32.1996V63Z" fill="#231F20"/>
<path d="M27.6003 63H29.1337L29.1337 61.4705H27.6003L27.6003 63Z" fill="#231F20"/>
<path d="M56.7325 63H58.2659L58.2659 61.4705H56.7325L56.7325 63Z" fill="#231F20"/>
<path d="M49.0664 63H50.5994L50.5994 61.4705H49.0664L49.0664 63Z" fill="#231F20"/>
<path d="M50.5998 63H52.1332L52.1332 61.4705H50.5998L50.5998 63Z" fill="#231F20"/>
<path d="M52.1332 63H53.6663L53.6663 61.4705H52.1332L52.1332 63Z" fill="#231F20"/>
<path d="M33.7331 63L35.2664 63L35.2665 61.4705L33.7331 61.4705V63Z" fill="#231F20"/>
<path d="M62.8663 63H64.3997L64.3997 61.4705H62.8663L62.8663 63Z" fill="#231F20"/>
<path d="M61.3328 63H62.8663L62.8663 61.4705L61.3328 61.4705L61.3328 63Z" fill="#231F20"/>
<path d="M59.7994 63L61.3328 63L61.3328 61.4705H59.7994V63Z" fill="#231F20"/>
<path d="M58.2659 63H59.799L59.799 61.4705H58.2659L58.2659 63Z" fill="#231F20"/>
<path d="M53.6657 63H55.1991L55.1991 61.4705H53.6657L53.6657 63Z" fill="#231F20"/>
<path d="M39.8668 63H41.4002L41.4002 61.4705H39.8668L39.8668 63Z" fill="#231F20"/>
<path d="M36.7999 63H38.3329V61.4705H36.7999V63Z" fill="#231F20"/>
<path d="M38.3323 63H39.8657V61.4705H38.3323V63Z" fill="#231F20"/>
<path d="M35.2664 63L36.7999 63V61.4705L35.2665 61.4705L35.2664 63Z" fill="#231F20"/>
<path d="M45.9995 63H47.5329L47.5329 61.4705H45.9995L45.9995 63Z" fill="#231F20"/>
<path d="M41.4002 63H42.9336L42.9336 61.4705H41.4002L41.4002 63Z" fill="#231F20"/>
<path d="M44.4661 63H45.9995L45.9995 61.4705H44.4661L44.4661 63Z" fill="#231F20"/>
<path d="M47.5329 63H49.0664L49.0664 61.4705H47.5329L47.5329 63Z" fill="#231F20"/>
<path d="M42.9336 63H44.4667L44.4667 61.4705H42.9336L42.9336 63Z" fill="#231F20"/>
<path d="M29.1327 12.5295H30.6661V11H29.1327V12.5295Z" fill="#231F20"/>
<path d="M30.6672 12.5295H32.2002V11H30.6672V12.5295Z" fill="#231F20"/>
<path d="M32.1996 12.5295H33.7331V11H32.1996V12.5295Z" fill="#231F20"/>
<path d="M33.7331 12.5295L35.2665 12.5295L35.2664 11H33.7331V12.5295Z" fill="#231F20"/>
<path d="M47.5319 12.5295H49.0653V11H47.5319V12.5295Z" fill="#231F20"/>
<path d="M49.0653 12.5295H50.5988V11H49.0653V12.5295Z" fill="#231F20"/>
<path d="M45.9985 12.5295H47.5315V11H45.9985L45.9985 12.5295Z" fill="#231F20"/>
<path d="M44.465 12.5295H45.9985L45.9985 11H44.465V12.5295Z" fill="#231F20"/>
<path d="M42.9326 12.5295H44.466V11H42.9326V12.5295Z" fill="#231F20"/>
<path d="M41.4002 44.6471H42.9336V43.1176H41.4002V44.6471Z" fill="#5A5758"/>
<path d="M52.1332 30.882H53.6663V29.3529H52.1332V30.882Z" fill="white"/>
<path d="M52.1332 26.2943H53.6663V24.7648H52.1332V26.2943Z" fill="white"/>
<path d="M49.0664 26.2943H50.5994V24.7648H49.0664V26.2943Z" fill="#231F20"/>
<path d="M52.1332 27.8234H53.6663V26.2943H52.1332V27.8234Z" fill="white"/>
<path d="M52.1332 29.3529H53.6663V27.8234H52.1332V29.3529Z" fill="white"/>
<path d="M50.5998 26.2943H52.1332V24.7648H50.5998V26.2943Z" fill="white"/>
<path d="M42.9336 26.2943H44.4667V24.7648H42.9336V26.2943Z" fill="white"/>
<path d="M47.5329 26.2943H49.0664V24.7648H47.5329V26.2943Z" fill="#5A5758"/>
<path d="M44.4671 26.2943H46.0005V24.7648H44.4671V26.2943Z" fill="#231F20"/>
<path d="M50.5998 27.8234H52.1332V26.2943H50.5998V27.8234Z" fill="white"/>
<path d="M52.1332 35.4705H53.6663V33.9409H52.1332V35.4705Z" fill="white"/>
<path d="M52.1332 43.1177H53.6663V41.5886H52.1332V43.1177Z" fill="#5A5758"/>
<path d="M52.1332 41.5886H53.6663V40.0591H52.1332V41.5886Z" fill="#5A5758"/>
<path d="M52.1332 32.4114H53.6663V30.882H52.1332V32.4114Z" fill="white"/>
<path d="M52.1332 44.6471H53.6663V43.1177H52.1332V44.6471Z" fill="#5A5758"/>
<path d="M52.1332 40.0591H53.6663V38.5295H52.1332V40.0591Z" fill="#231F20"/>
<path d="M52.1332 46.1767H53.6663V44.6471H52.1332V46.1767Z" fill="#5A5758"/>
<path d="M41.4002 26.2943H42.9336V24.7648H41.4002V26.2943Z" fill="#5A5758"/>
<path d="M52.1332 38.5295H53.6663V37H52.1332V38.5295Z" fill="#A8A5A4"/>
<path d="M52.1332 33.9409H53.6663V32.4114H52.1332V33.9409Z" fill="white"/>
<path d="M52.1332 36.9996H53.6663V35.4705H52.1332V36.9996Z" fill="#E7E3E2"/>
<path d="M29.1327 30.882H30.6661V29.3529H29.1327V30.882Z" fill="#231F20"/>
<path d="M29.1327 35.4705H30.6661V33.9409H29.1327V35.4705Z" fill="white"/>
<path d="M29.1327 36.9996H30.6661V35.4705H29.1327V36.9996Z" fill="#C8C4C3"/>
<path d="M29.1327 38.5295H30.6661V37H29.1327V38.5295Z" fill="#231F20"/>
<path d="M29.1327 33.9409H30.6661V32.4114H29.1327V33.9409Z" fill="white"/>
<path d="M29.1327 32.4114H30.6661V30.882H29.1327V32.4114Z" fill="white"/>
<path d="M29.1327 44.6471H30.6661V43.1176H29.1327V44.6471Z" fill="#231F20"/>
<path d="M52.1332 47.7058H53.6663V46.1767H52.1332V47.7058Z" fill="#5A5758"/>
<path d="M36.7999 26.2943H38.3329V24.7648H36.7999V26.2943Z" fill="white"/>
<path d="M39.8668 26.2943H41.4002V24.7648H39.8668V26.2943Z" fill="#5A5758"/>
<path d="M35.2665 26.2943H36.7999V24.7648H35.2665V26.2943Z" fill="#231F20"/>
<path d="M29.1327 29.3529H30.6661V27.8233H29.1327V29.3529Z" fill="#5A5758"/>
<path d="M38.3333 26.2943H39.8668V24.7648H38.3333V26.2943Z" fill="#231F20"/>
<path d="M33.733 26.2943H35.2665V24.7648H33.733V26.2943Z" fill="#5A5758"/>
<path d="M29.1327 26.2943H30.6661V24.7648H29.1327V26.2943Z" fill="#5A5758"/>
<path d="M29.1327 27.8233H30.6661V26.2943H29.1327V27.8233Z" fill="#5A5758"/>
<path d="M32.1996 26.2943H33.733V24.7648H32.1996V26.2943Z" fill="#231F20"/>
<path d="M30.6672 26.2943H32.2002V24.7648H30.6672V26.2943Z" fill="white"/>
<path d="M30.6672 47.7062H32.2002V46.1767H30.6672V47.7062Z" fill="#5A5758"/>
<path d="M30.6672 29.3528H32.2002V27.8233H30.6672V29.3528Z" fill="#5A5758"/>
<path d="M30.6672 27.8233H32.2002V26.2943H30.6672V27.8233Z" fill="white"/>
<path d="M33.733 27.8234H35.2664L35.2665 26.2943H33.733V27.8234Z" fill="#5A5758"/>
<path d="M32.1996 27.8234H33.733V26.2943H32.1996V27.8234Z" fill="#231F20"/>
<path d="M30.6672 30.882H32.2002V29.3528H30.6672V30.882Z" fill="#231F20"/>
<path d="M30.6672 36.9996H32.2002V35.4705H30.6672V36.9996Z" fill="#E7E3E2"/>
<path d="M35.2664 27.8234H36.7999L36.7999 26.2943H35.2665L35.2664 27.8234Z" fill="#231F20"/>
<path d="M30.6672 38.5295H32.2002V37H30.6672V38.5295Z" fill="#A8A5A4"/>
<path d="M30.6672 33.9409H32.2002V32.4114H30.6672V33.9409Z" fill="white"/>
<path d="M30.6672 32.4114H32.2002V30.882H30.6672V32.4114Z" fill="white"/>
<path d="M30.6672 35.4705H32.2002V33.9409H30.6672V35.4705Z" fill="white"/>
<path d="M44.4671 27.8234H46.0005V26.2943H44.4671V27.8234Z" fill="#231F20"/>
<path d="M52.1332 49.2352H53.6663V47.7058H52.1332V49.2352Z" fill="#5A5758"/>
<path d="M36.7999 27.8234H38.3329V26.2943H36.7999L36.7999 27.8234Z" fill="white"/>
<path d="M49.0664 27.8234H50.5994V26.2943H49.0664V27.8234Z" fill="#231F20"/>
<path d="M45.9995 27.8234H47.5329L47.5329 26.2943L45.9995 26.2943V27.8234Z" fill="#5A5758"/>
<path d="M42.9336 27.8234H44.4667V26.2943H42.9336V27.8234Z" fill="white"/>
<path d="M38.3333 27.8234H39.8668L39.8668 26.2943H38.3333V27.8234Z" fill="#231F20"/>
<path d="M39.8668 27.8234H41.4002L41.4002 26.2943H39.8668L39.8668 27.8234Z" fill="#5A5758"/>
<path d="M41.4002 27.8234H42.9336V26.2943H41.4002L41.4002 27.8234Z" fill="#5A5758"/>
<path d="M47.5329 27.8234H49.0664V26.2943H47.5329L47.5329 27.8234Z" fill="#5A5758"/>
<path d="M42.9336 49.2352H44.4667V47.7057H42.9336V49.2352Z" fill="#231F20"/>
<path d="M44.4661 49.2352H45.9995V47.7057H44.4661V49.2352Z" fill="#231F20"/>
<path d="M36.7999 49.2353H38.3329V47.7062H36.7999V49.2353Z" fill="#E7E3E2"/>
<path d="M38.3333 47.7061V49.2352H39.8668V47.7057L38.3333 47.7061Z" fill="white"/>
<path d="M39.8668 49.2352H41.4002V47.7057H39.8668V49.2352Z" fill="white"/>
<path d="M30.6672 40.059H32.2002V38.5295H30.6672V40.059Z" fill="#231F20"/>
<path d="M50.5998 49.2352H52.1332V47.7058L50.5998 47.7057V49.2352Z" fill="#5A5758"/>
<path d="M45.9995 49.2352H47.5329V47.7057H45.9995V49.2352Z" fill="#868484"/>
<path d="M49.0664 49.2352H50.5994V47.7057H49.0664V49.2352Z" fill="#5A5758"/>
<path d="M47.5329 49.2352H49.0664V47.7057H47.5329V49.2352Z" fill="#5A5758"/>
<path d="M41.4002 49.2352H42.9336V47.7057H41.4002V49.2352Z" fill="white"/>
<path d="M30.6672 43.1177H32.2002V41.5886H30.6672V43.1177Z" fill="#231F20"/>
<path d="M30.6672 44.6471H32.2002V43.1177H30.6672V44.6471Z" fill="#868484"/>
<path d="M30.6672 46.1767H32.2002V44.6471H30.6672V46.1767Z" fill="#5A5758"/>
<path d="M32.1996 49.2353H33.7331V47.7062H32.1996V49.2353Z" fill="#868484"/>
<path d="M33.7331 49.2353H35.2664V47.7062H33.7331V49.2353Z" fill="#868484"/>
<path d="M29.1327 46.1767H30.6661V44.6471H29.1327V46.1767Z" fill="#868484"/>
<path d="M35.2664 49.2353H36.7999V47.7062H35.2664V49.2353Z" fill="#231F20"/>
<path d="M32.1996 47.7062H33.7331V46.1767H32.1996V47.7062Z" fill="#231F20"/>
<path d="M45.9995 26.2943L47.5329 26.2943V24.7648H45.9995V26.2943Z" fill="#5A5758"/>
<path d="M27.6003 30.882H29.1337V29.3529H27.6003V30.882Z" fill="white"/>
<path d="M27.6003 24.7647H29.1337V23.2352H27.6003V24.7647Z" fill="#231F20"/>
<path d="M27.6003 32.4114H29.1337V30.882H27.6003V32.4114Z" fill="white"/>
<path d="M27.6003 27.8234H29.1337V26.2943H27.6003V27.8234Z" fill="#231F20"/>
<path d="M27.6003 26.2943H29.1337V24.7647H27.6003V26.2943Z" fill="#231F20"/>
<path d="M27.6003 29.3529H29.1337V27.8234H27.6003V29.3529Z" fill="#231F20"/>
<path d="M27.6003 33.9409H29.1337V32.4114H27.6003V33.9409Z" fill="white"/>
<path d="M27.6002 38.5295H29.1333V37H27.6002V38.5295Z" fill="#231F20"/>
<path d="M27.6003 36.9996H29.1337V35.4705H27.6003V36.9996Z" fill="#A8A5A4"/>
<path d="M27.6003 35.4705H29.1337V33.9409H27.6003V35.4705Z" fill="#E7E3E2"/>
<path d="M41.4002 24.7648H42.9336L42.9336 23.2352H41.4002V24.7648Z" fill="#5A5758"/>
<path d="M36.7999 24.7648H38.3329V23.2352H36.7999V24.7648Z" fill="white"/>
<path d="M39.8668 24.7648H41.4002V23.2352H39.8668V24.7648Z" fill="#5A5758"/>
<path d="M38.3333 24.7648H39.8668V23.2352H38.3333V24.7648Z" fill="#231F20"/>
<path d="M33.733 24.7648H35.2665L35.2664 23.2352H33.733V24.7648Z" fill="#5A5758"/>
<path d="M32.1996 24.7648H33.733V23.2352H32.1996V24.7648Z" fill="#5A5758"/>
<path d="M42.9336 24.7648H44.4671L44.4671 23.2352H42.9336L42.9336 24.7648Z" fill="#5A5758"/>
<path d="M35.2665 24.7648H36.7999V23.2352H35.2664L35.2665 24.7648Z" fill="#231F20"/>
<path d="M29.1327 24.7648H30.6661V23.2352H29.1327V24.7648Z" fill="#5A5758"/>
<path d="M30.6672 24.7648H32.2002V23.2352H30.6672V24.7648Z" fill="#5A5758"/>
<path d="M38.3333 50.7648V52.2943H39.8668V50.7648H38.3333Z" fill="white"/>
<path d="M36.7999 52.2943H38.3329V50.7648H36.7999V52.2943Z" fill="#231F20"/>
<path d="M35.2665 52.2943H36.7999V50.7648H35.2665V52.2943Z" fill="#5A5758"/>
<path d="M39.8668 52.2943H41.4002V50.7648H39.8668V52.2943Z" fill="white"/>
<path d="M32.1996 52.2943H33.7331V50.7648H32.1996V52.2943Z" fill="#5A5758"/>
<path d="M33.7331 52.2943H35.2665V50.7648H33.7331V52.2943Z" fill="#5A5758"/>
<path d="M41.4002 52.2943H42.9336V50.7648H41.4002V52.2943Z" fill="#231F20"/>
<path d="M44.4661 52.2943H45.9995V50.7648H44.4661V52.2943Z" fill="#5A5758"/>
<path d="M45.9995 52.2943H47.5329V50.7648H45.9995V52.2943Z" fill="#5A5758"/>
<path d="M42.9336 52.2943H44.4667V50.7648H42.9336V52.2943Z" fill="#5A5758"/>
<path d="M29.1327 52.2943H30.6661V50.7648H29.1327V52.2943Z" fill="#231F20"/>
<path d="M27.6003 46.1767H29.1337V44.6472H27.6003V46.1767Z" fill="#231F20"/>
<path d="M27.6003 47.7062H29.1337V46.1767H27.6003V47.7062Z" fill="#231F20"/>
<path d="M30.6672 52.2943H32.2002V50.7648H30.6672V52.2943Z" fill="#444142"/>
<path d="M27.6003 49.2353H29.1337V47.7062H27.6003V49.2353Z" fill="#231F20"/>
<path d="M29.1327 50.7648H30.6661V49.2352H29.1327V50.7648Z" fill="#444142"/>
<path d="M27.6003 50.7647H29.1337V49.2353H27.6003V50.7647Z" fill="#231F20"/>
<path d="M50.5998 50.7647H52.1332L52.1332 49.2352H50.5998V50.7647Z" fill="#5A5758"/>
<path d="M41.4002 50.7648H42.9336L42.9336 49.2352H41.4002V50.7648Z" fill="#231F20"/>
<path d="M45.9995 50.7648H47.5329V49.2352H45.9995V50.7648Z" fill="#5A5758"/>
<path d="M49.0664 50.7647H50.5994V49.2352H49.0664V50.7647Z" fill="#5A5758"/>
<path d="M42.9336 50.7648H44.4667V49.2352H42.9336L42.9336 50.7648Z" fill="#868484"/>
<path d="M44.4661 50.7648H45.9995V49.2352H44.4661V50.7648Z" fill="#5A5758"/>
<path d="M47.5329 50.7648L49.0664 50.7647V49.2352H47.5329V50.7648Z" fill="#5A5758"/>
<path d="M53.6657 50.7647H55.1991V49.2352H53.6657V50.7647Z" fill="#231F20"/>
<path d="M53.6657 49.2352H55.1991V47.7057H53.6657V49.2352Z" fill="#444142"/>
<path d="M52.1332 50.7647H53.6663V49.2352H52.1332L52.1332 50.7647Z" fill="#444142"/>
<path d="M29.1327 47.7062H30.6661V46.1767H29.1327V47.7062Z" fill="#5A5758"/>
<path d="M53.6657 47.7057H55.1991V46.1767H53.6657V47.7057Z" fill="#5A5758"/>
<path d="M32.1996 50.7648H33.7331V49.2353H32.1996V50.7648Z" fill="#5A5758"/>
<path d="M30.6672 49.2353H32.2002V47.7062H30.6672V49.2353Z" fill="#5A5758"/>
<path d="M30.6672 50.7648H32.2002V49.2353H30.6672V50.7648Z" fill="#5A5758"/>
<path d="M29.1327 49.2352H30.6661V47.7062H29.1327V49.2352Z" fill="#5A5758"/>
<path d="M39.8668 50.7648H41.4002V49.2352H39.8668V50.7648Z" fill="white"/>
<path d="M33.7331 50.7648H35.2665L35.2664 49.2353H33.7331V50.7648Z" fill="#5A5758"/>
<path d="M38.3333 49.2352V50.7648H39.8668V49.2352H38.3333Z" fill="white"/>
<path d="M36.7999 50.7648H38.3329V49.2353H36.7999V50.7648Z" fill="#231F20"/>
<path d="M35.2665 50.7648H36.7999V49.2353H35.2664L35.2665 50.7648Z" fill="#868484"/>
<path d="M44.4661 24.7647L45.9995 24.7648L45.9995 23.2352H44.4661V24.7647Z" fill="#5A5758"/>
<path d="M53.6657 26.2943H55.1991V24.7648H53.6657V26.2943Z" fill="white"/>
<path d="M52.1332 24.7648H53.6663V23.2352H52.1332V24.7648Z" fill="white"/>
<path d="M53.6657 24.7648H55.1991V23.2352H53.6657V24.7648Z" fill="white"/>
<path d="M53.6657 29.3528H55.1991V27.8233H53.6657V29.3528Z" fill="white"/>
<path d="M53.6657 46.1767H55.1991V44.6472H53.6657V46.1767Z" fill="#5A5758"/>
<path d="M45.9995 24.7648H47.5329L47.5329 23.2352H45.9995L45.9995 24.7648Z" fill="#5A5758"/>
<path d="M53.6657 30.882H55.1991V29.3528H53.6657V30.882Z" fill="white"/>
<path d="M47.5329 24.7648H49.0664L49.0664 23.2352H47.5329L47.5329 24.7648Z" fill="#231F20"/>
<path d="M49.0664 24.7648H50.5994V23.2352H49.0664L49.0664 24.7648Z" fill="white"/>
<path d="M50.5998 24.7648H52.1332V23.2352H50.5998V24.7648Z" fill="white"/>
<path d="M53.6657 27.8233H55.1991V26.2943H53.6657V27.8233Z" fill="white"/>
<path d="M53.6657 43.1177H55.1991V41.5886H53.6657V43.1177Z" fill="#5A5758"/>
<path d="M53.6657 41.5886H55.1991V40.0591H53.6657V41.5886Z" fill="#5A5758"/>
<path d="M53.6657 44.6472H55.1991V43.1177H53.6657V44.6472Z" fill="#5A5758"/>
<path d="M53.6657 32.4114H55.1991V30.882H53.6657V32.4114Z" fill="white"/>
<path d="M53.6657 40.0591H55.1991V38.5295H53.6657V40.0591Z" fill="#444142"/>
<path d="M53.6657 33.9409H55.1991V32.4114H53.6657V33.9409Z" fill="white"/>
<path d="M53.6657 38.5295H55.1991V37H53.6657V38.5295Z" fill="#231F20"/>
<path d="M53.6657 35.4705H55.1991V33.9409H53.6657V35.4705Z" fill="#E7E3E2"/>
<path d="M53.6657 36.9996H55.1991V35.4705H53.6657V36.9996Z" fill="#C8C4C3"/>
<path d="M42.9336 40.059H44.4667V38.5295H42.9336V40.059Z" fill="#C8C4C3"/>
<path d="M35.2665 32.4114H36.7999V30.8819H35.2665V32.4114Z" fill="#231F20"/>
<path d="M35.2665 33.9409H36.7999V32.4114H35.2665V33.9409Z" fill="#231F20"/>
<path d="M35.2665 43.1177H36.7999V41.5886H35.2665V43.1177Z" fill="#444142"/>
<path d="M36.7999 32.4119H38.3329V30.8824H36.7999V32.4119Z" fill="#231F20"/>
<path d="M38.3333 32.4114H39.8668V30.8819H38.3333V32.4114Z" fill="white"/>
<path d="M35.2665 35.4705H36.7999V33.9409H35.2665V35.4705Z" fill="white"/>
<path d="M35.2665 36.9996H36.7999V35.4705H35.2665V36.9996Z" fill="#231F20"/>
<path d="M35.2665 40.059H36.7999V38.5295H35.2665V40.059Z" fill="#C8C4C3"/>
<path d="M35.2665 41.5886H36.7999V40.059H35.2665V41.5886Z" fill="#231F20"/>
<path d="M35.2665 38.5295H36.7999V37H35.2665V38.5295Z" fill="#E7E3E2"/>
<path d="M39.8668 32.4114H41.4002V30.8819H39.8668V32.4114Z" fill="white"/>
<path d="M45.9995 36.9996H47.5329V35.4705H45.9995V36.9996Z" fill="white"/>
<path d="M41.4002 32.4114H42.9336V30.8819H41.4002V32.4114Z" fill="#231F20"/>
<path d="M45.9995 38.5295H47.5329V37H45.9995V38.5295Z" fill="#E7E3E2"/>
<path d="M45.9995 41.5886H47.5329V40.0591H45.9995V41.5886Z" fill="#231F20"/>
<path d="M45.9995 40.0591H47.5329V38.5295H45.9995V40.0591Z" fill="#C8C4C3"/>
<path d="M45.9995 35.4705H47.5329V33.9409H45.9995V35.4705Z" fill="white"/>
<path d="M42.9336 32.4114H44.4667V30.8819H42.9336V32.4114Z" fill="#231F20"/>
<path d="M44.4671 32.4114H46.0005V30.8819H44.4671V32.4114Z" fill="#231F20"/>
<path d="M45.9995 32.4114H47.5329V30.8819H45.9995V32.4114Z" fill="#231F20"/>
<path d="M45.9995 33.9409H47.5329V32.4114H45.9995V33.9409Z" fill="white"/>
<path d="M47.5329 40.0591L49.0664 40.059V38.5295L47.5329 38.5295V40.0591Z" fill="#C8C4C3"/>
<path d="M47.5329 36.9996H49.0664V35.4705H47.5329V36.9996Z" fill="white"/>
<path d="M47.5329 35.4705H49.0664V33.9409H47.5329V35.4705Z" fill="white"/>
<path d="M47.5329 38.5295L49.0664 38.5295V37H47.5329V38.5295Z" fill="#E7E3E2"/>
<path d="M47.5329 33.9409H49.0664V32.4114L47.5329 32.4114V33.9409Z" fill="white"/>
<path d="M45.9995 43.1177H47.5329V41.5886H45.9995V43.1177Z" fill="#444142"/>
<path d="M36.7999 43.1177H38.3329V41.5886H36.7999V43.1177Z" fill="#444142"/>
<path d="M50.5998 29.3528L52.1332 29.3529V27.8234H50.5998V29.3528Z" fill="white"/>
<path d="M47.5329 32.4114L49.0664 32.4114V30.8819H47.5329V32.4114Z" fill="#231F20"/>
<path d="M45.9995 30.8819H47.5329V29.3529H45.9995V30.8819Z" fill="#5A5758"/>
<path d="M47.5329 30.8819H49.0664V29.3529H47.5329V30.8819Z" fill="#5A5758"/>
<path d="M44.4671 30.8819H46.0005V29.3529H44.4671V30.8819Z" fill="#5A5758"/>
<path d="M39.8668 44.6471H41.4002V43.1176H39.8668V44.6471Z" fill="#5A5758"/>
<path d="M38.3333 43.1176V44.6471H39.8668V43.1176H38.3333Z" fill="#5A5758"/>
<path d="M36.7999 44.6471H38.3329V43.1177H36.7999L36.7999 44.6471Z" fill="#5A5758"/>
<path d="M47.5329 43.1177H49.0664V41.5886L47.5329 41.5886V43.1177Z" fill="#444142"/>
<path d="M45.9995 44.6471H47.5329V43.1177H45.9995V44.6471Z" fill="#5A5758"/>
<path d="M47.5329 44.6471H49.0664V43.1177H47.5329V44.6471Z" fill="#5A5758"/>
<path d="M44.4661 44.6471H45.9995V43.1177L44.4661 43.1176V44.6471Z" fill="#5A5758"/>
<path d="M42.9336 44.6471H44.4667V43.1176H42.9336V44.6471Z" fill="#5A5758"/>
<path d="M44.4661 43.1176L45.9995 43.1177V41.5886L44.4661 41.5886V43.1176Z" fill="#444142"/>
<path d="M38.3333 38.5295H39.8668V37H38.3333V38.5295Z" fill="#E7E3E2"/>
<path d="M38.3333 36.9996H39.8668V35.4705H38.3333V36.9996Z" fill="#231F20"/>
<path d="M42.9336 30.8819H44.4667V29.3529H42.9336L42.9336 30.8819Z" fill="#5A5758"/>
<path d="M38.3333 35.4705H39.8668V33.9409H38.3333V35.4705Z" fill="white"/>
<path d="M38.3333 40.059H39.8668V38.5295H38.3333V40.059Z" fill="#C8C4C3"/>
<path d="M41.4002 35.4705H42.9336V33.9409H41.4002V35.4705Z" fill="white"/>
<path d="M42.9336 41.5886H44.4667V40.059H42.9336V41.5886Z" fill="#231F20"/>
<path d="M44.4661 41.5886L45.9995 41.5886V40.0591H44.4661V41.5886Z" fill="#231F20"/>
<path d="M41.4002 41.5886H42.9336V40.059L41.4002 40.0591V41.5886Z" fill="#231F20"/>
<path d="M39.8668 41.5886H41.4002V40.0591L39.8668 40.059L39.8668 41.5886Z" fill="#231F20"/>
<path d="M39.8668 40.059L41.4002 40.0591L41.4002 38.5295L39.8668 38.5295V40.059Z" fill="#C8C4C3"/>
<path d="M41.4002 38.5295H42.9336L42.9336 37H41.4002L41.4002 38.5295Z" fill="#E7E3E2"/>
<path d="M39.8668 38.5295L41.4002 38.5295L41.4002 37H39.8668V38.5295Z" fill="#E7E3E2"/>
<path d="M39.8668 36.9996H41.4002L41.4002 35.4705L39.8668 35.4705V36.9996Z" fill="#231F20"/>
<path d="M41.4002 36.9996H42.9336V35.4705H41.4002L41.4002 36.9996Z" fill="#231F20"/>
<path d="M42.9336 35.4705H44.4667V33.9409H42.9336V35.4705Z" fill="#231F20"/>
<path d="M42.9336 38.5295H44.4667V37H42.9336L42.9336 38.5295Z" fill="#E7E3E2"/>
<path d="M41.4002 40.0591L42.9336 40.059V38.5295H41.4002L41.4002 40.0591Z" fill="#C8C4C3"/>
<path d="M42.9336 36.9996H44.4667V35.4705H42.9336V36.9996Z" fill="white"/>
<path d="M47.5329 52.2943H49.0664L49.0664 50.7647L47.5329 50.7648V52.2943Z" fill="#5A5758"/>
<path d="M39.8668 35.4705L41.4002 35.4705V33.9409H39.8668V35.4705Z" fill="white"/>
<path d="M36.7999 40.059H38.3329V38.5295H36.7999V40.059Z" fill="#C8C4C3"/>
<path d="M38.3333 41.5886H39.8668L39.8668 40.059H38.3333V41.5886Z" fill="#231F20"/>
<path d="M36.7999 41.5886H38.3329V40.059H36.7999V41.5886Z" fill="#231F20"/>
<path d="M36.7999 38.5295H38.3329V37H36.7999V38.5295Z" fill="#E7E3E2"/>
<path d="M36.7999 36.9996H38.3329V35.4705L36.7999 35.4705V36.9996Z" fill="#231F20"/>
<path d="M38.3333 43.1176H39.8668V41.5886H38.3333V43.1176Z" fill="#444142"/>
<path d="M41.4002 43.1176H42.9336L42.9336 41.5886H41.4002V43.1176Z" fill="#444142"/>
<path d="M42.9336 43.1176H44.4667V41.5886H42.9336L42.9336 43.1176Z" fill="#444142"/>
<path d="M36.7999 35.4705L38.3329 35.4705V33.9409L36.7999 33.9409V35.4705Z" fill="white"/>
<path d="M39.8668 43.1176H41.4002V41.5886H39.8668V43.1176Z" fill="#444142"/>
<path d="M41.4002 33.9409H42.9336V32.4114H41.4002L41.4002 33.9409Z" fill="white"/>
<path d="M44.4671 33.9409H46.0005V32.4114H44.4671V33.9409Z" fill="white"/>
<path d="M44.4661 36.9996H45.9995V35.4705H44.4661V36.9996Z" fill="white"/>
<path d="M44.4661 35.4705H45.9995V33.9409H44.4661V35.4705Z" fill="white"/>
<path d="M44.4661 38.5295H45.9995V37H44.4661V38.5295Z" fill="#E7E3E2"/>
<path d="M39.8668 33.9409H41.4002L41.4002 32.4114H39.8668V33.9409Z" fill="white"/>
<path d="M38.3333 33.9409H39.8668V32.4114H38.3333V33.9409Z" fill="white"/>
<path d="M36.7999 33.9409L38.3329 33.9409V32.4114L36.7999 32.4114V33.9409Z" fill="#E7E3E2"/>
<path d="M42.9336 33.9409H44.4667V32.4114H42.9336V33.9409Z" fill="white"/>
<path d="M44.4661 40.0591H45.9995V38.5295H44.4661V40.0591Z" fill="#C8C4C3"/>
<path d="M47.5329 41.5886L49.0664 41.5886V40.059L47.5329 40.0591V41.5886Z" fill="#231F20"/>
<path d="M32.1996 43.1177H33.7331V41.5886H32.1996V43.1177Z" fill="#868484"/>
<path d="M32.1996 41.5886H33.7331V40.0591H32.1996V41.5886Z" fill="#231F20"/>
<path d="M32.1996 44.6471H33.7331V43.1177H32.1996V44.6471Z" fill="#5A5758"/>
<path d="M32.1996 40.0591H33.7331V38.5295H32.1996V40.0591Z" fill="#231F20"/>
<path d="M32.1996 38.5295H33.7331V37H32.1996V38.5295Z" fill="#C8C4C3"/>
<path d="M33.7331 47.7062H35.2664V46.1767H33.7331V47.7062Z" fill="#231F20"/>
<path d="M32.1996 46.1767H33.7331V44.6471H32.1996V46.1767Z" fill="#5A5758"/>
<path d="M32.1996 36.9996H33.7331V35.4705H32.1996V36.9996Z" fill="white"/>
<path d="M35.2664 47.7062H36.7999L36.7999 46.1767H35.2664V47.7062Z" fill="#A8A5A4"/>
<path d="M33.7331 46.1767H35.2664V44.6472L33.7331 44.6471V46.1767Z" fill="#231F20"/>
<path d="M35.2665 29.3528H36.7999V27.8234H35.2664L35.2665 29.3528Z" fill="white"/>
<path d="M36.7999 47.7062H38.3329V46.1767H36.7999L36.7999 47.7062Z" fill="#E7E3E2"/>
<path d="M36.7999 29.3528H38.3329V27.8234H36.7999V29.3528Z" fill="white"/>
<path d="M38.3333 29.3528H39.8668V27.8234H38.3333V29.3528Z" fill="#231F20"/>
<path d="M33.733 29.3528H35.2665L35.2664 27.8234H33.733V29.3528Z" fill="#231F20"/>
<path d="M32.1996 30.882H33.7331L33.733 29.3528L32.1996 29.3529V30.882Z" fill="#231F20"/>
<path d="M32.1996 29.3529L33.733 29.3528V27.8234H32.1996V29.3529Z" fill="#5A5758"/>
<path d="M32.1996 32.4119H33.7331V30.8824H32.1996V32.4119Z" fill="#231F20"/>
<path d="M32.1996 33.9409H33.7331V32.4114H32.1996V33.9409Z" fill="#E7E3E2"/>
<path d="M32.1996 35.4705H33.7331V33.9409H32.1996V35.4705Z" fill="white"/>
<path d="M38.3333 46.1767V47.7061L39.8668 47.7057V46.1767H38.3333Z" fill="#E7E3E2"/>
<path d="M50.5998 38.5295L52.1332 38.5295V37H50.5998V38.5295Z" fill="#C8C4C3"/>
<path d="M50.5998 36.9996H52.1332V35.4705L50.5998 35.4705V36.9996Z" fill="#E7E3E2"/>
<path d="M50.5998 40.059L52.1332 40.0591V38.5295L50.5998 38.5295V40.059Z" fill="#231F20"/>
<path d="M50.5998 41.5886L52.1332 41.5886V40.0591L50.5998 40.059V41.5886Z" fill="#444142"/>
<path d="M39.8668 29.3528H41.4002V27.8234H39.8668V29.3528Z" fill="#5A5758"/>
<path d="M50.5998 33.9409L52.1332 33.9409V32.4114L50.5998 32.4114V33.9409Z" fill="white"/>
<path d="M50.5998 35.4705L52.1332 35.4705V33.9409L50.5998 33.9409V35.4705Z" fill="white"/>
<path d="M50.5998 32.4114L52.1332 32.4114V30.882L50.5998 30.8819V32.4114Z" fill="white"/>
<path d="M50.5998 30.8819L52.1332 30.882V29.3529L50.5998 29.3528V30.8819Z" fill="white"/>
<path d="M50.5998 44.6471H52.1332V43.1177L50.5998 43.1176V44.6471Z" fill="#868484"/>
<path d="M50.5998 43.1176L52.1332 43.1177V41.5886L50.5998 41.5886V43.1176Z" fill="#5A5758"/>
<path d="M42.9336 47.7057H44.4667V46.1767H42.9336V47.7057Z" fill="#E7E3E2"/>
<path d="M41.4002 47.7057H42.9336V46.1767H41.4002L41.4002 47.7057Z" fill="#E7E3E2"/>
<path d="M44.4661 47.7057H45.9995V46.1767H44.4661V47.7057Z" fill="#E7E3E2"/>
<path d="M50.5998 46.1767H52.1332V44.6471H50.5998V46.1767Z" fill="#5A5758"/>
<path d="M39.8668 47.7057H41.4002L41.4002 46.1767H39.8668V47.7057Z" fill="#E7E3E2"/>
<path d="M49.0664 47.7057H50.5994V46.1767H49.0664V47.7057Z" fill="#5A5758"/>
<path d="M50.5998 47.7057L52.1332 47.7058V46.1767H50.5998V47.7057Z" fill="#5A5758"/>
<path d="M45.9995 47.7057H47.5329V46.1767H45.9995V47.7057Z" fill="#231F20"/>
<path d="M47.5329 47.7057H49.0664V46.1767H47.5329V47.7057Z" fill="#868484"/>
<path d="M33.7331 43.1177H35.2665V41.5886H33.7331V43.1177Z" fill="#5A5758"/>
<path d="M35.2664 44.6472L36.7999 44.6471L36.7999 43.1177H35.2665L35.2664 44.6472Z" fill="#231F20"/>
<path d="M41.4002 29.3528L42.9336 29.3529V27.8234H41.4002V29.3528Z" fill="#5A5758"/>
<path d="M41.4002 30.8819H42.9336L42.9336 29.3529L41.4002 29.3528V30.8819Z" fill="#5A5758"/>
<path d="M33.7331 41.5886H35.2665V40.059L33.7331 40.0591V41.5886Z" fill="#231F20"/>
<path d="M33.7331 40.0591L35.2665 40.059V38.5295H33.7331V40.0591Z" fill="#C8C4C3"/>
<path d="M36.7999 46.1767H38.3329V44.6471H36.7999L36.7999 46.1767Z" fill="#231F20"/>
<path d="M38.3333 44.6471V46.1767H39.8668L39.8668 44.6471H38.3333Z" fill="#231F20"/>
<path d="M39.8668 46.1767H41.4002V44.6471H39.8668L39.8668 46.1767Z" fill="#231F20"/>
<path d="M35.2664 46.1767H36.7999L36.7999 44.6471L35.2664 44.6472V46.1767Z" fill="#A8A5A4"/>
<path d="M33.7331 38.5295H35.2665V37H33.7331V38.5295Z" fill="#E7E3E2"/>
<path d="M33.7331 35.4705L35.2665 35.4705V33.9409H33.7331V35.4705Z" fill="white"/>
<path d="M33.7331 36.9996H35.2665V35.4705L33.7331 35.4705V36.9996Z" fill="#231F20"/>
<path d="M36.7999 30.8819L38.3329 30.882V29.3528H36.7999V30.8819Z" fill="white"/>
<path d="M38.3333 30.8819H39.8668V29.3528H38.3333V30.8819Z" fill="white"/>
<path d="M39.8668 30.8819H41.4002V29.3528H39.8668V30.8819Z" fill="#231F20"/>
<path d="M35.2665 30.8819H36.7999V29.3528H35.2665V30.8819Z" fill="white"/>
<path d="M33.7331 33.9409H35.2665V32.4114L33.7331 32.4114V33.9409Z" fill="#231F20"/>
<path d="M41.4002 46.1767H42.9336L42.9336 44.6471H41.4002V46.1767Z" fill="#231F20"/>
<path d="M33.7331 30.882L35.2665 30.8819V29.3528H33.733L33.7331 30.882Z" fill="white"/>
<path d="M33.7331 32.4114L35.2665 32.4114V30.8819L33.7331 30.882V32.4114Z" fill="#231F20"/>
<path d="M33.7331 44.6471L35.2664 44.6472L35.2665 43.1177H33.7331V44.6471Z" fill="#231F20"/>
<path d="M49.0664 32.4114L50.5994 32.4114V30.8819H49.0664V32.4114Z" fill="white"/>
<path d="M49.0664 30.8819H50.5994V29.3529H49.0664V30.8819Z" fill="#231F20"/>
<path d="M49.0664 35.4705L50.5994 35.4705V33.9409H49.0664V35.4705Z" fill="white"/>
<path d="M49.0664 33.9409H50.5994V32.4114L49.0664 32.4114V33.9409Z" fill="white"/>
<path d="M49.0664 29.3529H50.5994V27.8234H49.0664L49.0664 29.3529Z" fill="#231F20"/>
<path d="M42.9336 46.1767H44.4667V44.6471H42.9336L42.9336 46.1767Z" fill="#231F20"/>
<path d="M42.9336 29.3529H44.4667V27.8234H42.9336V29.3529Z" fill="#5A5758"/>
<path d="M44.4671 29.3529H46.0005V27.8234H44.4671V29.3529Z" fill="#5A5758"/>
<path d="M47.5329 29.3529H49.0664L49.0664 27.8234H47.5329V29.3529Z" fill="#5A5758"/>
<path d="M45.9995 29.3529H47.5329V27.8234H45.9995V29.3529Z" fill="#5A5758"/>
<path d="M49.0664 36.9996H50.5994V35.4705L49.0664 35.4705V36.9996Z" fill="white"/>
<path d="M47.5329 46.1767H49.0664L49.0664 44.6471H47.5329V46.1767Z" fill="#231F20"/>
<path d="M45.9995 46.1767H47.5329V44.6471H45.9995L45.9995 46.1767Z" fill="#5A5758"/>
<path d="M49.0664 46.1767H50.5994V44.6472L49.0664 44.6471L49.0664 46.1767Z" fill="#868484"/>
<path d="M49.0664 38.5295L50.5994 38.5295V37H49.0664V38.5295Z" fill="#C8C4C3"/>
<path d="M44.4661 46.1767H45.9995L45.9995 44.6471H44.4661V46.1767Z" fill="#231F20"/>
<path d="M49.0664 41.5886L50.5994 41.5886V40.0591L49.0664 40.059V41.5886Z" fill="#444142"/>
<path d="M49.0664 44.6471L50.5994 44.6472V43.1176L49.0664 43.1177V44.6471Z" fill="#5A5758"/>
<path d="M49.0664 40.059L50.5994 40.0591V38.5295L49.0664 38.5295V40.059Z" fill="#231F20"/>
<path d="M49.0664 43.1177L50.5994 43.1176V41.5886L49.0664 41.5886V43.1177Z" fill="#5A5758"/>
<path d="M45.9995 56.8824H47.5329L47.5329 55.3529H45.9995L45.9995 56.8824Z" fill="#E7E3E2"/>
<path d="M23 33.9409H24.5334V32.4114H23V33.9409Z" fill="#231F20"/>
<path d="M23 32.4114L24.533 32.4114V30.8819H23V32.4114Z" fill="#231F20"/>
<path d="M26.0669 20.1767H27.6003V18.6471H26.0669V20.1767Z" fill="#231F20"/>
<path d="M23 30.8819H24.533V29.3529H23V30.8819Z" fill="#231F20"/>
<path d="M23 29.3529H24.533V27.8233H23V29.3529Z" fill="#231F20"/>
<path d="M23 27.8233H24.533V26.2943H23V27.8233Z" fill="#231F20"/>
<path d="M23 26.2943L24.5334 26.2943V24.7648H23V26.2943Z" fill="#231F20"/>
<path d="M35.2665 56.8824H36.7999V55.3529H35.2665V56.8824Z" fill="#444142"/>
<path d="M32.1996 56.8823L33.733 56.8824L33.7331 55.3528H32.1996V56.8823Z" fill="#444142"/>
<path d="M30.6672 56.8824H32.2002V55.3529H30.6672V56.8824Z" fill="#5A5758"/>
<path d="M33.733 56.8824H35.2665V55.3529L33.7331 55.3528L33.733 56.8824Z" fill="#444142"/>
<path d="M38.3333 56.8824H39.8668L39.8668 55.3529H38.3333V56.8824Z" fill="#E7E3E2"/>
<path d="M42.9336 56.8824H44.4667V55.3529H42.9336L42.9336 56.8824Z" fill="#E7E3E2"/>
<path d="M39.8668 56.8824H41.4002V55.3529H39.8668L39.8668 56.8824Z" fill="white"/>
<path d="M44.4661 56.8824H45.9995L45.9995 55.3529H44.4661V56.8824Z" fill="#E7E3E2"/>
<path d="M41.4002 56.8824H42.9336L42.9336 55.3529H41.4002V56.8824Z" fill="white"/>
<path d="M36.7999 56.8824L38.3329 56.8823V55.3528L36.7999 55.3529V56.8824Z" fill="#231F20"/>
<path d="M27.6003 20.1767L29.1333 20.1767V18.6472L27.6003 18.6471V20.1767Z" fill="white"/>
<path d="M27.6003 56.8824H29.1337V55.3529H27.6003V56.8824Z" fill="#231F20"/>
<path d="M29.1327 56.8824H30.6661V55.3529H29.1327V56.8824Z" fill="#5A5758"/>
<path d="M58.266 30.882H59.799V29.3529H58.266V30.882Z" fill="#231F20"/>
<path d="M58.266 32.4114H59.799V30.882H58.266V32.4114Z" fill="#231F20"/>
<path d="M58.266 33.9409H59.799V32.4114H58.266V33.9409Z" fill="#231F20"/>
<path d="M58.266 38.5295H59.799V37H58.266V38.5295Z" fill="#5A5758"/>
<path d="M58.266 35.4705H59.799V33.9409H58.266V35.4705Z" fill="#444142"/>
<path d="M58.266 36.9996H59.799V35.4705H58.266V36.9996Z" fill="#5A5758"/>
<path d="M58.266 26.2943H59.799V24.7648H58.266V26.2943Z" fill="#231F20"/>
<path d="M58.266 29.3529H59.799V27.8233H58.266V29.3529Z" fill="#231F20"/>
<path d="M58.266 27.8233H59.799V26.2943H58.266V27.8233Z" fill="#231F20"/>
<path d="M58.266 50.7647H59.799V49.2352H58.266V50.7647Z" fill="#231F20"/>
<path d="M58.266 49.2352H59.799V47.7057H58.266V49.2352Z" fill="white"/>
<path d="M58.266 47.7057H59.799V46.1767H58.266V47.7057Z" fill="white"/>
<path d="M58.266 52.2943H59.799V50.7647H58.266V52.2943Z" fill="#5A5758"/>
<path d="M49.0664 52.2943H50.5994V50.7647H49.0664L49.0664 52.2943Z" fill="#5A5758"/>
<path d="M58.266 41.5886H59.799V40.0591H58.266V41.5886Z" fill="#444142"/>
<path d="M58.266 43.1177H59.799V41.5886H58.266V43.1177Z" fill="#231F20"/>
<path d="M58.266 46.1767H59.799V44.6472H58.266V46.1767Z" fill="white"/>
<path d="M58.266 40.0591H59.799V38.5295H58.266V40.0591Z" fill="#5A5758"/>
<path d="M47.5329 20.1767H49.0664V18.6471H47.5329V20.1767Z" fill="white"/>
<path d="M36.7999 20.1767H38.3329V18.6472H36.7999V20.1767Z" fill="white"/>
<path d="M44.4661 20.1767H45.9995V18.6471H44.4661V20.1767Z" fill="white"/>
<path d="M38.3333 20.1767H39.8668V18.6471H38.3333V20.1767Z" fill="white"/>
<path d="M41.4002 20.1767H42.9336V18.6471H41.4002V20.1767Z" fill="white"/>
<path d="M42.9336 20.1767H44.4667V18.6471H42.9336V20.1767Z" fill="white"/>
<path d="M39.8668 20.1767H41.3998V18.6471H39.8668V20.1767Z" fill="white"/>
<path d="M32.1996 20.1767H33.7331V18.6472H32.1996V20.1767Z" fill="white"/>
<path d="M35.2665 20.1767L36.7999 20.1767V18.6472L35.2665 18.6471V20.1767Z" fill="white"/>
<path d="M33.7331 20.1767L35.2665 20.1767V18.6471L33.7331 18.6472V20.1767Z" fill="white"/>
<path d="M30.6672 20.1767H32.2002V18.6471H30.6672V20.1767Z" fill="white"/>
<path d="M45.9995 20.1767H47.5329V18.6471H45.9995V20.1767Z" fill="white"/>
<path d="M53.6657 20.1767H55.1991V18.6471H53.6657V20.1767Z" fill="#231F20"/>
<path d="M52.1332 20.1767H53.6663V18.6471H52.1332V20.1767Z" fill="white"/>
<path d="M52.1332 18.6436H53.6663V17.1141H52.1332V18.6436Z" fill="#231F20"/>
<path d="M29.1327 20.1767H30.6661V18.6471H29.1327V20.1767Z" fill="white"/>
<path d="M49.0664 20.1767H50.5994V18.6471H49.0664V20.1767Z" fill="white"/>
<path d="M50.5998 20.1767H52.1332V18.6471H50.5998V20.1767Z" fill="white"/>
<path d="M29.1327 18.6471H30.6661V17.1176H29.1327V18.6471Z" fill="white"/>
<path d="M27.6003 18.6471L29.1337 18.6471V17.1176H27.6003L27.6003 18.6471Z" fill="#231F20"/>
<path d="M47.5329 56.8824H49.0664V55.3529H47.5329L47.5329 56.8824Z" fill="#C8C4C3"/>
<path d="M39.8668 18.6471H41.4002L41.4002 17.1176H39.8668L39.8668 18.6471Z" fill="white"/>
<path d="M41.4002 18.6471H42.9336V17.1176H41.4002L41.4002 18.6471Z" fill="white"/>
<path d="M42.9336 18.6471H44.4667V17.1176H42.9336V18.6471Z" fill="white"/>
<path d="M44.4661 18.6471H45.9995L45.9995 17.1176H44.4661V18.6471Z" fill="white"/>
<path d="M38.3333 18.6471H39.8668L39.8668 17.1176H38.3333V18.6471Z" fill="white"/>
<path d="M32.2006 18.6471H33.734V17.1176H32.2006V18.6471Z" fill="white"/>
<path d="M33.7331 18.6472L35.2661 18.6471V17.1176L33.7331 17.1176L33.7331 18.6472Z" fill="white"/>
<path d="M35.2665 18.6471L36.7995 18.6471V17.1176L35.2664 17.1176L35.2665 18.6471Z" fill="white"/>
<path d="M36.7999 18.6472L38.3333 18.6471V17.1176H36.7999L36.7999 18.6472Z" fill="white"/>
<path d="M58.266 53.8234H59.799V52.2943H58.266V53.8234Z" fill="#5A5758"/>
<path d="M45.9995 18.6471H47.5329L47.5329 17.1176H45.9995L45.9995 18.6471Z" fill="white"/>
<path d="M30.6672 18.6471L32.2006 18.6471V17.1176L30.6672 17.1176V18.6471Z" fill="white"/>
<path d="M59.7994 47.7058L61.3328 47.7057V46.1767L59.7994 46.1767V47.7058Z" fill="white"/>
<path d="M59.7994 46.1767L61.3328 46.1767V44.6471L59.7994 44.6472V46.1767Z" fill="white"/>
<path d="M59.7994 49.2352H61.3328V47.7057L59.7994 47.7058V49.2352Z" fill="white"/>
<path d="M59.7994 52.2943H61.3328V50.7647L59.7994 50.7648V52.2943Z" fill="#231F20"/>
<path d="M59.7994 50.7648L61.3328 50.7647V49.2352H59.7994V50.7648Z" fill="white"/>
<path d="M59.7994 53.8234H61.3328V52.2943H59.7994V53.8234Z" fill="#5A5758"/>
<path d="M59.7994 38.5295H61.3328V37H59.7994V38.5295Z" fill="#5A5758"/>
<path d="M59.7994 41.5886H61.3328V40.0591H59.7994V41.5886Z" fill="#231F20"/>
<path d="M59.7994 44.6472L61.3328 44.6471V43.1176H59.7994V44.6472Z" fill="white"/>
<path d="M59.7994 43.1176H61.3328V41.5886H59.7994V43.1176Z" fill="white"/>
<path d="M59.7994 40.0591H61.3328V38.5295H59.7994V40.0591Z" fill="#444142"/>
<path d="M53.6657 56.8824H55.1991V55.3529H53.6657V56.8824Z" fill="#5A5758"/>
<path d="M50.5998 56.8824H52.1332L52.1332 55.3529H50.5998V56.8824Z" fill="#5A5758"/>
<path d="M52.1332 56.8824H53.6663V55.3529H52.1332L52.1332 56.8824Z" fill="#5A5758"/>
<path d="M59.7994 55.353L61.3328 55.3529V53.8238H59.7994V55.353Z" fill="#5A5758"/>
<path d="M49.0664 56.8824H50.5994V55.3529H49.0664V56.8824Z" fill="#231F20"/>
<path d="M47.5329 18.6471H49.0664L49.0664 17.1176H47.5329L47.5329 18.6471Z" fill="white"/>
<path d="M59.7994 56.8823L61.3328 56.8824V55.3529L59.7994 55.353L59.7994 56.8823Z" fill="#444142"/>
<path d="M58.266 56.8824H59.799V55.3529H58.266V56.8824Z" fill="#5A5758"/>
<path d="M56.7325 56.8824H58.266V55.3529H56.7325V56.8824Z" fill="#5A5758"/>
<path d="M55.1991 56.8824L56.7325 56.8824V55.3529H55.1991V56.8824Z" fill="#5A5758"/>
<path d="M50.5998 18.6471H52.1332L52.1332 17.1176H50.5998V18.6471Z" fill="white"/>
<path d="M50.5998 17.1181H52.1332V15.5886H50.5998V17.1181Z" fill="#231F20"/>
<path d="M49.0664 18.6471H50.5994V17.1176H49.0664L49.0664 18.6471Z" fill="white"/>
<path d="M59.7994 36.9996H61.3328V35.4705H59.7994V36.9996Z" fill="#5A5758"/>
<path d="M59.7994 33.9409L61.3328 33.9409L61.3329 32.4114H59.7994V33.9409Z" fill="#231F20"/>
<path d="M59.7994 35.4705H61.3328V33.9409L59.7994 33.9409V35.4705Z" fill="#5A5758"/>
<path d="M58.266 44.6472H59.799V43.1177H58.266V44.6472Z" fill="#E7E3E2"/>
<path d="M27.6003 53.8234H29.1337V52.2943H27.6003V53.8234Z" fill="#231F20"/>
<path d="M26.0669 29.3528L27.6003 29.3529V27.8234L26.0669 27.8233V29.3528Z" fill="white"/>
<path d="M26.0669 27.8233L27.6003 27.8234V26.2943H26.0669V27.8233Z" fill="white"/>
<path d="M26.0669 30.882H27.6003V29.3529L26.0669 29.3528V30.882Z" fill="white"/>
<path d="M26.0669 24.7647H27.6003V23.2352H26.0669V24.7647Z" fill="white"/>
<path d="M26.0669 26.2943H27.6003V24.7647H26.0669V26.2943Z" fill="white"/>
<path d="M26.0669 36.9996H27.6003V35.4705H26.0669V36.9996Z" fill="#231F20"/>
<path d="M26.0669 35.4705H27.6003V33.9409L26.0669 33.9409V35.4705Z" fill="#C8C4C3"/>
<path d="M26.0669 32.4114H27.6003V30.882H26.0669V32.4114Z" fill="white"/>
<path d="M26.0669 33.9409L27.6003 33.9409V32.4114H26.0669V33.9409Z" fill="#E7E3E2"/>
<path d="M29.1327 53.8234H30.6661V52.2943H29.1327V53.8234Z" fill="#444142"/>
<path d="M50.5998 53.8234H52.1332V52.2943H50.5998V53.8234Z" fill="#231F20"/>
<path d="M49.0664 53.8234H50.5994V52.2943H49.0664L49.0664 53.8234Z" fill="#444142"/>
<path d="M47.5329 53.8234H49.0664L49.0664 52.2943H47.5329L47.5329 53.8234Z" fill="#444142"/>
<path d="M52.1332 53.8234H53.6663V52.2943H52.1332V53.8234Z" fill="#444142"/>
<path d="M45.9995 53.8234H47.5329L47.5329 52.2943H45.9995L45.9995 53.8234Z" fill="#444142"/>
<path d="M26.0669 23.2352H27.6003L27.6003 21.7057H26.0669V23.2352Z" fill="white"/>
<path d="M56.7325 52.2943H58.266V50.7647L56.7325 50.7648V52.2943Z" fill="#868484"/>
<path d="M44.4661 53.8234H45.9995L45.9995 52.2943H44.4661V53.8234Z" fill="#444142"/>
<path d="M56.7325 53.8234H58.266V52.2943H56.7325V53.8234Z" fill="#5A5758"/>
<path d="M55.1991 53.8234H56.7325V52.2943L55.1991 52.2943V53.8234Z" fill="#5A5758"/>
<path d="M53.6657 53.8234H55.1991V52.2943H53.6657V53.8234Z" fill="#868484"/>
<path d="M33.733 53.8234H35.2664L35.2665 52.2943H33.7331L33.733 53.8234Z" fill="#444142"/>
<path d="M32.1996 53.8234H33.733L33.7331 52.2943H32.1996V53.8234Z" fill="#444142"/>
<path d="M30.6672 53.8234H32.2002V52.2943H30.6672V53.8234Z" fill="#231F20"/>
<path d="M35.2664 53.8234H36.7999L36.7999 52.2943H35.2665L35.2664 53.8234Z" fill="#444142"/>
<path d="M38.3333 53.8234H39.8668V52.2943H38.3333V53.8234Z" fill="white"/>
<path d="M39.8668 53.8234H41.4002V52.2943H39.8668V53.8234Z" fill="white"/>
<path d="M41.4002 53.8234H42.9336V52.2943H41.4002V53.8234Z" fill="#231F20"/>
<path d="M36.7999 53.8234H38.3329V52.2943H36.7999L36.7999 53.8234Z" fill="#231F20"/>
<path d="M42.9336 53.8234H44.4667V52.2943H42.9336V53.8234Z" fill="#444142"/>
<path d="M55.1991 35.4705H56.7325V33.9409L55.1991 33.9409V35.4705Z" fill="#C8C4C3"/>
<path d="M56.7325 50.7648L58.266 50.7647V49.2352H56.7325V50.7648Z" fill="#5A5758"/>
<path d="M55.1991 38.5295L56.7325 38.5295V37H55.1991V38.5295Z" fill="#444142"/>
<path d="M27.6003 23.2352H29.1337V21.7057H27.6003L27.6003 23.2352Z" fill="white"/>
<path d="M55.1991 40.0591L56.7325 40.059V38.5295L55.1991 38.5295V40.0591Z" fill="#5A5758"/>
<path d="M55.1991 43.1177H56.7325V41.5886H55.1991V43.1177Z" fill="#5A5758"/>
<path d="M55.1991 41.5886H56.7325V40.059L55.1991 40.0591V41.5886Z" fill="#5A5758"/>
<path d="M55.1991 29.3528H56.7325V27.8233H55.1991V29.3528Z" fill="white"/>
<path d="M55.1991 33.9409L56.7325 33.9409V32.4114L55.1991 32.4114V33.9409Z" fill="#E7E3E2"/>
<path d="M55.1991 30.882H56.7325V29.3528H55.1991V30.882Z" fill="white"/>
<path d="M55.1991 27.8233H56.7325V26.2943L55.1991 26.2943V27.8233Z" fill="white"/>
<path d="M55.1991 32.4114L56.7325 32.4114V30.882H55.1991V32.4114Z" fill="white"/>
<path d="M53.6657 52.2943H55.1991L55.1991 50.7647H53.6657V52.2943Z" fill="#444142"/>
<path d="M52.1332 52.2943H53.6663V50.7647H52.1332V52.2943Z" fill="#231F20"/>
<path d="M55.1991 52.2943L56.7325 52.2943V50.7648L55.1991 50.7647L55.1991 52.2943Z" fill="#868484"/>
<path d="M50.5998 52.2943H52.1332V50.7647H50.5998V52.2943Z" fill="#444142"/>
<path d="M58.266 55.3529H59.799V53.8238H58.266V55.3529Z" fill="#5A5758"/>
<path d="M55.1991 46.1767L56.7325 46.1767V44.6472H55.1991V46.1767Z" fill="#444142"/>
<path d="M55.1991 47.7057L56.7325 47.7058V46.1767L55.1991 46.1767V47.7057Z" fill="#231F20"/>
<path d="M55.1991 50.7647L56.7325 50.7648V49.2352H55.1991V50.7647Z" fill="#444142"/>
<path d="M55.1991 44.6472H56.7325V43.1177H55.1991V44.6472Z" fill="#444142"/>
<path d="M55.1991 36.9996H56.7325V35.4705H55.1991V36.9996Z" fill="#231F20"/>
<path d="M36.7999 23.2352H38.3329V21.7057H36.7999V23.2352Z" fill="white"/>
<path d="M35.2664 23.2352H36.7999V21.7057H35.2665L35.2664 23.2352Z" fill="#231F20"/>
<path d="M38.3333 23.2352H39.8668L39.8668 21.7057H38.3333V23.2352Z" fill="#231F20"/>
<path d="M42.9336 23.2352H44.4671V21.7057H42.9336L42.9336 23.2352Z" fill="#5A5758"/>
<path d="M41.4002 23.2352H42.9336L42.9336 21.7057H41.4002V23.2352Z" fill="#5A5758"/>
<path d="M39.8668 23.2352H41.4002V21.7057H39.8668L39.8668 23.2352Z" fill="#5A5758"/>
<path d="M30.6672 23.2352H32.2002V21.7057H30.6672V23.2352Z" fill="#5A5758"/>
<path d="M33.733 23.2352H35.2664L35.2665 21.7057H33.733V23.2352Z" fill="#5A5758"/>
<path d="M29.1327 23.2352H30.6661V21.7057H29.1327V23.2352Z" fill="#231F20"/>
<path d="M32.1996 23.2352H33.733V21.7057H32.1996V23.2352Z" fill="#5A5758"/>
<path d="M45.9995 23.2352H47.5329V21.7057H45.9995L45.9995 23.2352Z" fill="#231F20"/>
<path d="M55.1991 23.2352L56.7325 23.2352V21.7057H55.1991L55.1991 23.2352Z" fill="white"/>
<path d="M52.1332 23.2352H53.6663V21.7057H52.1332V23.2352Z" fill="white"/>
<path d="M44.4661 23.2352H45.9995L45.9995 21.7057H44.4661V23.2352Z" fill="#5A5758"/>
<path d="M55.1991 24.7648L56.7325 24.7647V23.2352L55.1991 23.2352V24.7648Z" fill="white"/>
<path d="M53.6657 23.2352H55.1991L55.1991 21.7057H53.6657V23.2352Z" fill="white"/>
<path d="M50.5998 23.2352H52.1332V21.7057H50.5998V23.2352Z" fill="white"/>
<path d="M55.1991 26.2943L56.7325 26.2943V24.7647L55.1991 24.7648V26.2943Z" fill="white"/>
<path d="M47.5329 23.2352H49.0664V21.7057H47.5329V23.2352Z" fill="white"/>
<path d="M49.0664 23.2352H50.5994V21.7057H49.0664V23.2352Z" fill="white"/>
<path d="M55.1991 49.2352H56.7325L56.7325 47.7058L55.1991 47.7057V49.2352Z" fill="#231F20"/>
<path d="M24.5334 26.2943L26.0669 26.2943V24.7647L24.5334 24.7648V26.2943Z" fill="white"/>
<path d="M24.5334 32.4114L26.0665 32.4114V30.8819H24.5334L24.5334 32.4114Z" fill="#E7E3E2"/>
<path d="M24.5334 29.3528H26.0665V27.8233H24.5334V29.3528Z" fill="white"/>
<path d="M24.5334 27.8233H26.0665V26.2943L24.5334 26.2943L24.5334 27.8233Z" fill="white"/>
<path d="M24.5334 30.8819H26.0665V29.3528H24.5334V30.8819Z" fill="white"/>
<path d="M24.5334 33.9409H26.0665V32.4114L24.5334 32.4114V33.9409Z" fill="#C8C4C3"/>
<path d="M24.5334 35.4705H26.0665V33.9409H24.5334L24.5334 35.4705Z" fill="#231F20"/>
<path d="M50.5998 55.3529H52.1332V53.8238H50.5998V55.3529Z" fill="#444142"/>
<path d="M47.5329 55.3529H49.0664V53.8238H47.5329L47.5329 55.3529Z" fill="#231F20"/>
<path d="M49.0664 55.3529H50.5994V53.8238H49.0664V55.3529Z" fill="#231F20"/>
<path d="M45.9995 55.3529H47.5329L47.5329 53.8238H45.9995V55.3529Z" fill="#231F20"/>
<path d="M44.4661 55.3529H45.9995V53.8238H44.4661V55.3529Z" fill="#231F20"/>
<path d="M55.1991 55.3529H56.7325L56.7325 53.8238H55.1991L55.1991 55.3529Z" fill="#5A5758"/>
<path d="M56.7325 55.3529H58.266V53.8238H56.7325L56.7325 55.3529Z" fill="#5A5758"/>
<path d="M42.9336 55.3529H44.4667V53.8238H42.9336V55.3529Z" fill="#231F20"/>
<path d="M53.6657 55.3529H55.1991L55.1991 53.8238H53.6657V55.3529Z" fill="#5A5758"/>
<path d="M52.1332 55.3529H53.6663V53.8238H52.1332V55.3529Z" fill="#868484"/>
<path d="M35.2665 55.3529H36.7999V53.8238H35.2665V55.3529Z" fill="#231F20"/>
<path d="M30.6672 55.3529H32.2002V53.8238H30.6672V55.3529Z" fill="#444142"/>
<path d="M33.7331 55.3528L35.2665 55.3529V53.8238H33.733L33.7331 55.3528Z" fill="#231F20"/>
<path d="M32.1996 55.3528H33.7331L33.733 53.8238H32.1996L32.1996 55.3528Z" fill="#231F20"/>
<path d="M29.1327 55.3529H30.6661V53.8238H29.1327V55.3529Z" fill="#868484"/>
<path d="M39.8668 55.3529H41.4002V53.8238H39.8668L39.8668 55.3529Z" fill="white"/>
<path d="M38.3333 55.3529H39.8668L39.8668 53.8238H38.3333V55.3529Z" fill="white"/>
<path d="M27.6003 55.3529H29.1337V53.8238H27.6003V55.3529Z" fill="#231F20"/>
<path d="M41.4002 55.3529H42.9336V53.8238H41.4002V55.3529Z" fill="#E7E3E2"/>
<path d="M36.7999 55.3529L38.3329 55.3528L38.3329 53.8238H36.7999V55.3529Z" fill="#231F20"/>
<path d="M26.0669 21.7057H27.6003V20.1767H26.0669V21.7057Z" fill="white"/>
<path d="M56.7325 26.2943L58.266 26.2943V24.7648L56.7325 24.7647V26.2943Z" fill="white"/>
<path d="M56.7325 27.8233H58.266V26.2943L56.7325 26.2943V27.8233Z" fill="white"/>
<path d="M56.7325 29.3528L58.266 29.3529V27.8233H56.7325V29.3528Z" fill="#E7E3E2"/>
<path d="M56.7325 32.4114L58.266 32.4114V30.882H56.7325V32.4114Z" fill="#E7E3E2"/>
<path d="M53.6657 21.7057H55.1991L55.1991 20.1767H53.6657V21.7057Z" fill="white"/>
<path d="M56.7325 23.2352H58.2659V21.7057H56.7325V23.2352Z" fill="#231F20"/>
<path d="M56.7325 24.7647L58.266 24.7648L58.2659 23.2352H56.7325V24.7647Z" fill="#231F20"/>
<path d="M55.1991 21.7057H56.7325L56.7325 20.1767L55.1991 20.1767L55.1991 21.7057Z" fill="#231F20"/>
<path d="M56.7325 33.9409L58.266 33.9409V32.4114L56.7325 32.4114V33.9409Z" fill="#C8C4C3"/>
<path d="M56.7325 30.882H58.266V29.3529L56.7325 29.3528V30.882Z" fill="#E7E3E2"/>
<path d="M56.7325 43.1177H58.266V41.5886L56.7325 41.5886V43.1177Z" fill="#444142"/>
<path d="M56.7325 46.1767L58.266 46.1767V44.6472H56.7325V46.1767Z" fill="#231F20"/>
<path d="M56.7325 44.6472H58.266V43.1177H56.7325V44.6472Z" fill="#231F20"/>
<path d="M56.7325 47.7058L58.266 47.7057V46.1767L56.7325 46.1767V47.7058Z" fill="#E7E3E2"/>
<path d="M56.7325 38.5295H58.266V37H56.7325V38.5295Z" fill="#5A5758"/>
<path d="M56.7325 36.9996H58.266V35.4705H56.7325V36.9996Z" fill="#444142"/>
<path d="M56.7325 35.4705H58.266V33.9409L56.7325 33.9409V35.4705Z" fill="#231F20"/>
<path d="M56.7325 41.5886L58.266 41.5886V40.0591L56.7325 40.059V41.5886Z" fill="#5A5758"/>
<path d="M56.7325 40.059L58.266 40.0591V38.5295H56.7325V40.059Z" fill="#5A5758"/>
<path d="M38.3333 21.7057H39.8668V20.1767H38.3333V21.7057Z" fill="white"/>
<path d="M30.6672 21.7057H32.2002V20.1767H30.6672V21.7057Z" fill="#231F20"/>
<path d="M32.1996 21.7057H33.733L33.7331 20.1767H32.1996L32.1996 21.7057Z" fill="#231F20"/>
<path d="M29.1327 21.7057H30.6661V20.1767H29.1327V21.7057Z" fill="white"/>
<path d="M33.733 21.7057H35.2665V20.1767L33.7331 20.1767L33.733 21.7057Z" fill="#231F20"/>
<path d="M35.2665 21.7057H36.7999L36.7999 20.1767L35.2665 20.1767V21.7057Z" fill="white"/>
<path d="M36.7999 21.7057H38.3329L38.3329 20.1767H36.7999L36.7999 21.7057Z" fill="white"/>
<path d="M24.5334 23.2352H26.0665V21.7057H24.5334V23.2352Z" fill="#231F20"/>
<path d="M27.6003 21.7057H29.1337L29.1337 20.1767L27.6003 20.1767V21.7057Z" fill="white"/>
<path d="M24.5334 21.7057H26.0665L26.0665 20.1767H24.5334L24.5334 21.7057Z" fill="#231F20"/>
<path d="M56.7325 49.2352H58.266V47.7057L56.7325 47.7058L56.7325 49.2352Z" fill="#231F20"/>
<path d="M39.8668 21.7057H41.4002V20.1767H39.8668V21.7057Z" fill="#231F20"/>
<path d="M45.9995 21.7057H47.5329L47.5329 20.1767H45.9995L45.9995 21.7057Z" fill="white"/>
<path d="M47.5329 21.7057H49.0664V20.1767H47.5329L47.5329 21.7057Z" fill="white"/>
<path d="M49.0664 21.7057H50.5994V20.1767H49.0664V21.7057Z" fill="white"/>
<path d="M50.5998 21.7057H52.1332V20.1767H50.5998V21.7057Z" fill="white"/>
<path d="M52.1332 21.7057H53.6663V20.1767H52.1332V21.7057Z" fill="white"/>
<path d="M41.4002 21.7057H42.9336L42.9336 20.1767H41.4002V21.7057Z" fill="#231F20"/>
<path d="M24.5334 24.7648L26.0669 24.7647V23.2352L24.5334 23.2352L24.5334 24.7648Z" fill="#231F20"/>
<path d="M42.9336 21.7057L44.4667 21.7058L44.4667 20.1767H42.9336L42.9336 21.7057Z" fill="#231F20"/>
<path d="M44.4661 21.7057H45.9995L45.9995 20.1767H44.4661V21.7057Z" fill="#231F20"/>
</g>
</svg>
