<svg width="51" height="33" viewBox="0 0 51 33" fill="none" xmlns="http://www.w3.org/2000/svg">
<mask id="mask0_3477_69428" style="mask-type:alpha" maskUnits="userSpaceOnUse" x="0" y="0" width="51" height="33">
<rect width="51" height="33" fill="#D9D9D9"/>
</mask>
<g mask="url(#mask0_3477_69428)">
<path d="M34.9228 58.6311H36.2691V57.2629H34.9228V58.6311Z" fill="#231F20"/>
<path d="M33.577 58.6311H34.9233V57.2629H33.577V58.6311Z" fill="#FAB60A"/>
<path d="M16.0767 58.6314H17.423V57.2629H16.0767V58.6314Z" fill="#231F20"/>
<path d="M29.5387 58.6311H30.8852V57.2629H29.5387V58.6311Z" fill="#FAB60A"/>
<path d="M32.2302 58.6311H33.5765V57.2629H32.2302V58.6311Z" fill="#231F20"/>
<path d="M30.8844 58.6311H32.2302V57.2629H30.8844V58.6311Z" fill="#FAB60A"/>
<path d="M20.1151 58.6314H21.4614V57.2629H20.1151V58.6314Z" fill="#FAB60A"/>
<path d="M28.1929 58.6311H29.5391V57.2629H28.1929V58.6311Z" fill="#FAB60A"/>
<path d="M18.7693 58.6314H20.1151V57.2629H18.7693V58.6314Z" fill="#231F20"/>
<path d="M21.4619 57.2629V58.6314L22.8082 58.6311V57.2629H21.4619Z" fill="#FAB60A"/>
<path d="M17.4235 58.6314H18.7698V57.2629H17.4235V58.6314Z" fill="#FAB60A"/>
<path d="M22.8077 58.6311H24.1536V57.2629H22.8077V58.6311Z" fill="#FAB60A"/>
<path d="M26.8461 58.6311H28.1924V57.2629H26.8461V58.6311Z" fill="#231F20"/>
<path d="M24.1536 58.6311H25.4994V57.2629H24.1536V58.6311Z" fill="#231F20"/>
<path d="M12.0384 17.5788H13.3846V16.2103H12.0384V17.5788Z" fill="#EBA469"/>
<path d="M20.1151 17.5788H21.4614V16.2103H20.1151V17.5788Z" fill="#D46C5B"/>
<path d="M24.1535 17.5788H25.4994V16.2103H24.1535V17.5788Z" fill="#231F20"/>
<path d="M18.7693 17.5788H20.1151V16.2103H18.7693V17.5788Z" fill="#D46C5B"/>
<path d="M22.8077 17.5788H24.1535V16.2103H22.8077V17.5788Z" fill="#231F20"/>
<path d="M21.4619 17.5788H22.8082V16.2103H21.4619V17.5788Z" fill="#231F20"/>
<path d="M16.0767 17.5788H17.423V16.2103H16.0767V17.5788Z" fill="#C9804E"/>
<path d="M13.3842 17.5788H14.7301V16.2103H13.3842V17.5788Z" fill="#EBA469"/>
<path d="M14.731 17.5788H16.0772V16.2103H14.731V17.5788Z" fill="#EBA469"/>
<path d="M28.1929 17.5788H29.5391V16.2103H28.1929V17.5788Z" fill="#D46C5B"/>
<path d="M33.577 17.5788H34.9233V16.2103H33.577V17.5788Z" fill="#EBA469"/>
<path d="M34.9228 17.5788H36.2691V16.2103H34.9228V17.5788Z" fill="#EBA469"/>
<path d="M32.2302 17.5788H33.5765V16.2103H32.2302V17.5788Z" fill="#C9804E"/>
<path d="M25.5003 17.5788H26.8465V16.2103H25.5003V17.5788Z" fill="#231F20"/>
<path d="M36.2696 17.5788H37.6159V16.2103H36.2696V17.5788Z" fill="#EBA469"/>
<path d="M26.8461 17.5788H28.1924V16.2103H26.8461V17.5788Z" fill="#D46C5B"/>
<path d="M30.8844 17.5788H32.2302V16.2103H30.8844V17.5788Z" fill="#AA4E4C"/>
<path d="M10.6926 17.5788H12.0388V16.2103H10.6926V17.5788Z" fill="#AA4E4C"/>
<path d="M29.5387 17.5788H30.8852V16.2103H29.5387V17.5788Z" fill="#AA4E4C"/>
<path d="M17.4235 17.5788H18.7698V16.2103H17.4235V17.5788Z" fill="#AA4E4C"/>
<path d="M9.34679 17.5788H10.6926V16.2103H9.34679V17.5788Z" fill="#231F20"/>
<path d="M10.6926 16.2103H12.0388V14.8418H10.6926V16.2103Z" fill="#AA4E4C"/>
<path d="M9.34679 16.2103H10.6926V14.8418H9.34679V16.2103Z" fill="#231F20"/>
<path d="M12.0384 16.2103H13.3846V14.8418H12.0384V16.2103Z" fill="#EBA469"/>
<path d="M13.3842 16.2103H14.7301V14.8418H13.3842V16.2103Z" fill="#EBA469"/>
<path d="M14.731 16.2103H16.0772V14.8418H14.731V16.2103Z" fill="#C9804E"/>
<path d="M37.6154 17.5788H38.9616V16.2103H37.6154V17.5788Z" fill="#EBA469"/>
<path d="M16.0767 16.2103H17.423V14.8418H16.0767V16.2103Z" fill="#AA4E4C"/>
<path d="M26.8461 16.2103H28.1924V14.8418H26.8461V16.2103Z" fill="#231F20"/>
<path d="M28.1929 16.2103H29.5391V14.8418H28.1929V16.2103Z" fill="#231F20"/>
<path d="M18.7693 16.2103H20.1151L20.1152 14.8418H18.7693V16.2103Z" fill="#231F20"/>
<path d="M20.1151 16.2103H21.4614V14.8418H20.1152L20.1151 16.2103Z" fill="#231F20"/>
<path d="M17.4235 16.2103H18.7698V14.8418H17.4235V16.2103Z" fill="#D46C5B"/>
<path d="M29.5387 16.2103H30.8852V14.8418H29.5387V16.2103Z" fill="#D46C5B"/>
<path d="M32.2302 16.2103H33.5765V14.8418H32.2302V16.2103Z" fill="#AA4E4C"/>
<path d="M37.6154 16.2103H38.9616V14.8418H37.6154V16.2103Z" fill="#EBA469"/>
<path d="M40.308 16.2103H41.6542V14.8418H40.308V16.2103Z" fill="#231F20"/>
<path d="M38.9612 16.2103H40.3071V14.8418H38.9612V16.2103Z" fill="#AA4E4C"/>
<path d="M36.2696 16.2103H37.6159V14.8418H36.2696V16.2103Z" fill="#EBA469"/>
<path d="M33.577 16.2103H34.9233V14.8418H33.577V16.2103Z" fill="#C9804E"/>
<path d="M30.8844 16.2103H32.2302V14.8418H30.8844V16.2103Z" fill="#D46C5B"/>
<path d="M34.9228 16.2103H36.2691V14.8418H34.9228V16.2103Z" fill="#EBA469"/>
<path d="M29.5387 55.8945H30.8852V54.5263H29.5387V55.8945Z" fill="#E28E0D"/>
<path d="M36.2696 18.9474H37.6159V17.5788H36.2696V18.9474Z" fill="#EBA469"/>
<path d="M37.6154 18.9474H38.9616V17.5788H37.6154V18.9474Z" fill="#AA4E4C"/>
<path d="M28.1929 18.9474H29.5391V17.5788H28.1929V18.9474Z" fill="#AA4E4C"/>
<path d="M38.9612 18.9474H40.3071V17.5789H38.9612V18.9474Z" fill="#231F20"/>
<path d="M34.9228 18.9474H36.2691V17.5788H34.9228V18.9474Z" fill="#EBA469"/>
<path d="M30.8844 18.9474H32.2304L32.2302 17.5788H30.8844V18.9474Z" fill="#AA4E4C"/>
<path d="M33.577 18.9474H34.9233L34.9233 17.5788H33.577L33.577 18.9474Z" fill="#EBA469"/>
<path d="M29.5387 18.9474H30.8852V17.5788H29.5387V18.9474Z" fill="#AA4E4C"/>
<path d="M32.2304 18.9474H33.5765V17.5788H32.2302L32.2304 18.9474Z" fill="#C9804E"/>
<path d="M16.0767 18.9474H17.423V17.5788H16.0767L16.0767 18.9474Z" fill="#C9804E"/>
<path d="M26.8461 18.9474H28.1924V17.5788H26.8461V18.9474Z" fill="#D46C5B"/>
<path d="M9.34679 18.9474H10.6927L10.6926 17.5788H9.34679V18.9474Z" fill="#231F20"/>
<path d="M10.6927 18.9474H12.0388V17.5788H10.6926L10.6927 18.9474Z" fill="#AA4E4C"/>
<path d="M12.0384 18.9474H13.3846V17.5788H12.0384V18.9474Z" fill="#EBA469"/>
<path d="M13.3842 18.9474H14.7301V17.5788H13.3842V18.9474Z" fill="#EBA469"/>
<path d="M38.9612 17.5789H40.3071V16.2103H38.9612V17.5789Z" fill="#AA4E4C"/>
<path d="M22.8077 18.9474H24.1536L24.1535 17.5788H22.8077V18.9474Z" fill="#D46C5B"/>
<path d="M21.4619 18.9474H22.8082V17.5788H21.4619V18.9474Z" fill="#D46C5B"/>
<path d="M24.1536 18.9474H25.4994V17.5788H24.1535L24.1536 18.9474Z" fill="#D46C5B"/>
<path d="M25.5003 18.9474H26.8465V17.5788H25.5003V18.9474Z" fill="#D46C5B"/>
<path d="M17.4235 18.9474H18.7698V17.5788H17.4235V18.9474Z" fill="#AA4E4C"/>
<path d="M14.731 18.9474H16.0772V17.5788H14.731V18.9474Z" fill="#EBA469"/>
<path d="M20.1151 18.9474H21.4614V17.5788H20.1151V18.9474Z" fill="#AA4E4C"/>
<path d="M18.7693 18.9474H20.1151V17.5788H18.7693V18.9474Z" fill="#AA4E4C"/>
<path d="M22.8077 55.8945H24.1536V54.5263H22.8077V55.8945Z" fill="#231F20"/>
<path d="M33.577 55.8945H34.9233V54.5263H33.577V55.8945Z" fill="#231F20"/>
<path d="M20.1151 55.8945H21.4614V54.5263H20.1151V55.8945Z" fill="#231F20"/>
<path d="M30.8844 55.8945H32.2304V54.5263H30.8844V55.8945Z" fill="#231F20"/>
<path d="M28.1929 55.8945H29.5391V54.5263H28.1929V55.8945Z" fill="#231F20"/>
<path d="M21.4619 55.8945H22.8082V54.5263H21.4619V55.8945Z" fill="#E28E0D"/>
<path d="M41.6538 54.5263H43V53.1578H41.6538V54.5263Z" fill="#231F20"/>
<path d="M41.6538 43.5788H43V42.2103H41.6538V43.5788Z" fill="#231F20"/>
<path d="M34.9268 55.8945H36.2731V54.5263H34.9268V55.8945Z" fill="#E7E3E2"/>
<path d="M41.6538 36.7367H43V35.3685H41.6538V36.7367Z" fill="#231F20"/>
<path d="M41.6538 38.1051H43V36.7367H41.6538V38.1051Z" fill="#231F20"/>
<path d="M41.6538 40.8421H43V39.4732H41.6538V40.8421Z" fill="#231F20"/>
<path d="M41.6538 39.4732H43V38.1051H41.6538V39.4732Z" fill="#231F20"/>
<path d="M41.6538 42.2103H43V40.8421H41.6538V42.2103Z" fill="#231F20"/>
<path d="M38.9612 55.8945H40.3071V54.5263H38.9612V55.8945Z" fill="#231F20"/>
<path d="M37.6154 55.8945H38.9616V54.5263H37.6154V55.8945Z" fill="#231F20"/>
<path d="M36.2576 55.8945H37.6039V54.5263H36.2576V55.8945Z" fill="#E7E3E2"/>
<path d="M40.308 55.8945H41.6542V54.5263H40.308V55.8945Z" fill="#231F20"/>
<path d="M41.6538 53.1578H43V51.7892H41.6538V53.1578Z" fill="#231F20"/>
<path d="M30.8844 57.2629H32.2302L32.2304 55.8945H30.8844V57.2629Z" fill="#231F20"/>
<path d="M33.577 57.2629H34.9233L34.9233 55.8945H33.577L33.577 57.2629Z" fill="#231F20"/>
<path d="M36.2696 57.2628H37.6159V55.8943H36.2696V57.2628Z" fill="#231F20"/>
<path d="M34.9228 57.2629H36.2691V55.8943H34.9228V57.2629Z" fill="#231F20"/>
<path d="M32.2302 57.2629H33.5765V55.8943L32.2304 55.8945L32.2302 57.2629Z" fill="#231F20"/>
<path d="M40.308 17.5788H41.6542V16.2103H40.308V17.5788Z" fill="#231F20"/>
<path d="M22.8077 57.2629H24.1536V55.8945H22.8077V57.2629Z" fill="#231F20"/>
<path d="M29.5387 57.2629H30.8852V55.8945H29.5387V57.2629Z" fill="#FAB60A"/>
<path d="M21.4619 57.2629H22.8082V55.8945H21.4619V57.2629Z" fill="#FAB60A"/>
<path d="M18.7693 57.2629H20.1151V55.8945L18.7693 55.8943V57.2629Z" fill="#231F20"/>
<path d="M17.4235 57.2629H18.7698V55.8943H17.4235V57.2629Z" fill="#231F20"/>
<path d="M20.1151 57.2629H21.4614V55.8945H20.1151V57.2629Z" fill="#231F20"/>
<path d="M28.1929 57.2629H29.5391V55.8945H28.1929V57.2629Z" fill="#231F20"/>
<path d="M32.2302 13.4737H33.5765V12.1052H32.2302V13.4737Z" fill="#231F20"/>
<path d="M40.308 13.4737H41.6542V12.1052H40.308V13.4737Z" fill="#231F20"/>
<path d="M37.6154 13.4737H38.9616V12.1052H37.6154V13.4737Z" fill="#EBA469"/>
<path d="M38.9612 13.4737H40.3071V12.1052H38.9612V13.4737Z" fill="#AA4E4C"/>
<path d="M36.2696 13.4737H37.6159V12.1052H36.2696V13.4737Z" fill="#C9804E"/>
<path d="M34.9228 13.4737H36.2691V12.1052H34.9228V13.4737Z" fill="#AA4E4C"/>
<path d="M33.577 13.4737H34.9233V12.1052H33.577V13.4737Z" fill="#D46C5B"/>
<path d="M13.3842 13.4737H14.7301V12.1052H13.3842V13.4737Z" fill="#AA4E4C"/>
<path d="M16.0767 13.4737H17.423V12.1052H16.0767V13.4737Z" fill="#231F20"/>
<path d="M12.0384 13.4737H13.3846V12.1052H12.0384V13.4737Z" fill="#AA4E4C"/>
<path d="M14.731 13.4737H16.0772V12.1052H14.731V13.4737Z" fill="#D46C5B"/>
<path d="M9.34679 13.4737H10.6927V12.1052H9.34679V13.4737Z" fill="#231F20"/>
<path d="M10.6927 13.4737H12.0388V12.1052H10.6927V13.4737Z" fill="#AA4E4C"/>
<path d="M40.308 14.8418H41.6542V13.4737H40.308V14.8418Z" fill="#231F20"/>
<path d="M38.9612 14.8418H40.3071V13.4737H38.9612V14.8418Z" fill="#AA4E4C"/>
<path d="M34.9228 14.8418H36.2691V13.4737H34.9228V14.8418Z" fill="#C9804E"/>
<path d="M37.6154 14.8418H38.9616V13.4737H37.6154V14.8418Z" fill="#EBA469"/>
<path d="M16.0767 60H17.423V58.6314H16.0767L16.0767 60Z" fill="#231F20"/>
<path d="M33.577 14.8418H34.9233L34.9233 13.4737H33.577L33.577 14.8418Z" fill="#AA4E4C"/>
<path d="M30.8844 59.9998H32.2304L32.2302 58.6311H30.8844V59.9998Z" fill="#231F20"/>
<path d="M32.2304 59.9998H33.5765V58.6311H32.2302L32.2304 59.9998Z" fill="#231F20"/>
<path d="M33.577 59.9998H34.9233V58.6311H33.577V59.9998Z" fill="#231F20"/>
<path d="M17.4235 60H18.7698V58.6314H17.4235V60Z" fill="#231F20"/>
<path d="M34.9228 59.9998H36.2691V58.6311H34.9228V59.9998Z" fill="#231F20"/>
<path d="M22.8077 59.9998H24.1536V58.6311H22.8077V59.9998Z" fill="#231F20"/>
<path d="M20.1151 60H21.4614V58.6314H20.1151V60Z" fill="#231F20"/>
<path d="M21.4619 58.6314V59.9998H22.8082V58.6311L21.4619 58.6314Z" fill="#231F20"/>
<path d="M18.7693 60H20.1151V58.6314H18.7693V60Z" fill="#231F20"/>
<path d="M28.1929 59.9998H29.5391V58.6311H28.1929V59.9998Z" fill="#231F20"/>
<path d="M24.1536 59.9998H25.4994V58.6311H24.1536V59.9998Z" fill="#231F20"/>
<path d="M26.8461 59.9998H28.1924V58.6311H26.8461V59.9998Z" fill="#231F20"/>
<path d="M29.5387 59.9998H30.8852V58.6311H29.5387V59.9998Z" fill="#231F20"/>
<path d="M36.2696 14.8418H37.6159V13.4737H36.2696V14.8418Z" fill="#EBA469"/>
<path d="M32.2302 14.8418H33.5765V13.4737H32.2302V14.8418Z" fill="#D46C5B"/>
<path d="M13.3842 14.8418H14.7301V13.4737H13.3842V14.8418Z" fill="#C9804E"/>
<path d="M14.731 14.8418H16.0772V13.4737H14.731V14.8418Z" fill="#AA4E4C"/>
<path d="M16.0767 14.8418H17.423V13.4737H16.0767L16.0767 14.8418Z" fill="#D46C5B"/>
<path d="M12.0384 14.8418H13.3846V13.4737H12.0384V14.8418Z" fill="#EBA469"/>
<path d="M17.4235 14.8418H18.7698V13.4737H17.4235V14.8418Z" fill="#231F20"/>
<path d="M10.6926 14.8418H12.0388V13.4737H10.6927L10.6926 14.8418Z" fill="#AA4E4C"/>
<path d="M9.34679 14.8418H10.6926L10.6927 13.4737H9.34679V14.8418Z" fill="#231F20"/>
<path d="M29.5387 14.8418H30.8852V13.4737H29.5387V14.8418Z" fill="#231F20"/>
<path d="M30.8844 14.8418H32.2302V13.4737L30.8844 13.4737V14.8418Z" fill="#231F20"/>
<path d="M24.1535 43.5788H25.4994V42.2103H24.1535V43.5788Z" fill="#AA4E4C"/>
<path d="M33.577 31.2628H34.9233V29.8943H33.577V31.2628Z" fill="#AA4E4C"/>
<path d="M33.577 27.1577H34.9233V25.7892H33.577V27.1577Z" fill="#ECB276"/>
<path d="M30.8844 27.1577H32.2304V25.7892H30.8844V27.1577Z" fill="white"/>
<path d="M33.577 28.5263H34.9233L34.9233 27.1577H33.577L33.577 28.5263Z" fill="#ECB276"/>
<path d="M33.577 29.8943H34.9233V28.5258H33.577V29.8943Z" fill="#AA4E4C"/>
<path d="M32.2304 27.1577H33.5765V25.7892H32.2304V27.1577Z" fill="white"/>
<path d="M25.5003 27.1577H26.8465V25.7892H25.5003V27.1577Z" fill="white"/>
<path d="M29.5387 27.1577H30.8852V25.7892H29.5387V27.1577Z" fill="#231F20"/>
<path d="M26.8461 27.1577H28.192V25.7892H26.8461V27.1577Z" fill="white"/>
<path d="M32.2302 28.5262H33.5765V27.1577H32.2304L32.2302 28.5262Z" fill="white"/>
<path d="M33.577 35.3685H34.9233V34H33.577V35.3685Z" fill="#AA4E4C"/>
<path d="M33.577 42.2104H34.9233V40.8422H33.577V42.2104Z" fill="#AA4E4C"/>
<path d="M33.577 40.8422H34.9233L34.9233 39.4732H33.577L33.577 40.8422Z" fill="#AA4E4C"/>
<path d="M33.577 32.6314H34.9233V31.2628H33.577V32.6314Z" fill="#AA4E4C"/>
<path d="M33.577 43.5788H34.9233L34.9233 42.2104H33.577L33.577 43.5788Z" fill="#AA4E4C"/>
<path d="M33.577 39.4732H34.9233L34.9233 38.1052H33.577L33.577 39.4732Z" fill="#7D3336"/>
<path d="M33.577 44.9471H34.9233L34.9233 43.5788H33.577L33.577 44.9471Z" fill="#AA4E4C"/>
<path d="M24.1535 27.1577H25.4994V25.7892H24.1535V27.1577Z" fill="#ECB276"/>
<path d="M33.577 38.1052H34.9233L34.9233 36.7366H33.577L33.577 38.1052Z" fill="#231F20"/>
<path d="M33.577 33.9997H34.9233L34.9233 32.6314H33.577L33.577 33.9997Z" fill="#AA4E4C"/>
<path d="M33.577 36.7366H34.9233L34.9233 35.3685H33.577L33.577 36.7366Z" fill="#E7E3E2"/>
<path d="M13.3842 31.2628H14.7301V29.8943H13.3842V31.2628Z" fill="#AA4E4C"/>
<path d="M13.3842 35.3685H14.7301V34H13.3842V35.3685Z" fill="#AA4E4C"/>
<path d="M13.3842 36.7367H14.7301V35.3685H13.3842V36.7367Z" fill="#E7E3E2"/>
<path d="M13.3842 38.1051H14.7301V36.7367H13.3842V38.1051Z" fill="#231F20"/>
<path d="M13.3842 33.9996H14.7301V32.6314H13.3842V33.9996Z" fill="#AA4E4C"/>
<path d="M13.3842 32.6314H14.7301V31.2628H13.3842V32.6314Z" fill="#AA4E4C"/>
<path d="M13.3842 39.4733H14.7301V38.1051H13.3842V39.4733Z" fill="#7D3336"/>
<path d="M13.3842 42.2104H14.7301V40.8423H13.3842V42.2104Z" fill="#AA4E4C"/>
<path d="M13.3842 43.5788H14.7301V42.2104H13.3842V43.5788Z" fill="#231F20"/>
<path d="M13.3842 40.8423H14.7301V39.4733H13.3842V40.8423Z" fill="#AA4E4C"/>
<path d="M33.577 46.3154H34.9233L34.9233 44.9471H33.577L33.577 46.3154Z" fill="#843539"/>
<path d="M20.1151 27.1577H21.4614V25.7892H20.1151V27.1577Z" fill="#231F20"/>
<path d="M22.8077 27.1577H24.1535V25.7892H22.8077V27.1577Z" fill="#ECB276"/>
<path d="M18.7693 27.1577H20.1151V25.7892H18.7693V27.1577Z" fill="#231F20"/>
<path d="M13.3842 29.8943H14.7301V28.5258H13.3842V29.8943Z" fill="#AA4E4C"/>
<path d="M21.4619 27.1577H22.8082V25.7892H21.4619V27.1577Z" fill="white"/>
<path d="M17.4235 27.1577H18.7698V25.7892H17.4235V27.1577Z" fill="white"/>
<path d="M13.3842 27.1577H14.7301V25.7892H13.3842V27.1577Z" fill="#AA4E4C"/>
<path d="M13.3842 28.5262H14.7301V27.1577H13.3842V28.5262Z" fill="#AA4E4C"/>
<path d="M16.0767 27.1577H17.423V25.7892H16.0767V27.1577Z" fill="white"/>
<path d="M14.731 27.1577H16.0772V25.7892H14.731V27.1577Z" fill="#ECB276"/>
<path d="M14.731 46.3158H16.0772V44.9469H14.731V46.3158Z" fill="#AA4E4C"/>
<path d="M14.731 29.8943H16.0772V28.5258H14.731V29.8943Z" fill="#AA4E4C"/>
<path d="M14.731 28.5262H16.0772V27.1577H14.731V28.5262Z" fill="#ECB276"/>
<path d="M17.4235 28.5262H18.7698V27.1577H17.4235V28.5262Z" fill="white"/>
<path d="M16.0767 28.5263H17.423V27.1577H16.0767L16.0767 28.5263Z" fill="white"/>
<path d="M14.731 31.2628H16.0772V29.8943H14.731V31.2628Z" fill="#AA4E4C"/>
<path d="M14.731 36.7367H16.0772V35.3686H14.731V36.7367Z" fill="#AA4E4C"/>
<path d="M18.7693 28.5262H20.1152L20.1151 27.1577H18.7693V28.5262Z" fill="white"/>
<path d="M14.731 38.1051H16.0772V36.7367H14.731V38.1051Z" fill="#E7E3E2"/>
<path d="M14.731 33.9996H16.0772V32.6314H14.731V33.9996Z" fill="#AA4E4C"/>
<path d="M14.731 32.6314H16.0772V31.2628H14.731V32.6314Z" fill="#AA4E4C"/>
<path d="M14.731 35.3686H16.0772V34H14.731V35.3686Z" fill="#AA4E4C"/>
<path d="M26.8461 28.5262H28.192V27.1577H26.8461V28.5262Z" fill="white"/>
<path d="M33.577 47.684H34.9233V46.3154H33.577V47.684Z" fill="#231F20"/>
<path d="M20.1152 28.5262H21.4614V27.1577H20.1151L20.1152 28.5262Z" fill="white"/>
<path d="M30.8844 28.5262H32.2302L32.2304 27.1577H30.8844V28.5262Z" fill="white"/>
<path d="M28.1929 28.5262H29.5391V27.1577H28.1929V28.5262Z" fill="white"/>
<path d="M25.5003 28.5262H26.8465V27.1577H25.5003V28.5262Z" fill="white"/>
<path d="M21.4619 28.5262H22.8082V27.1577H21.4619V28.5262Z" fill="white"/>
<path d="M22.8077 28.5262H24.1536L24.1535 27.1577H22.8077V28.5262Z" fill="#ECB276"/>
<path d="M24.1536 28.5262H25.4994V27.1577H24.1535L24.1536 28.5262Z" fill="#ECB276"/>
<path d="M29.5387 28.5262H30.8852V27.1577H29.5387V28.5262Z" fill="white"/>
<path d="M25.5003 47.684H26.8465V46.3155H25.5003V47.684Z" fill="#AA4E4C"/>
<path d="M26.8461 47.684H28.1924V46.3155H26.8461V47.684Z" fill="#AA4E4C"/>
<path d="M20.1151 47.6841H21.4614V46.316H20.1151V47.6841Z" fill="#7D3336"/>
<path d="M21.4619 46.3158V47.684H22.8082V46.3155L21.4619 46.3158Z" fill="#AA4E4C"/>
<path d="M22.8077 47.684H24.1536V46.3155H22.8077V47.684Z" fill="#AA4E4C"/>
<path d="M14.731 39.4733H16.0772V38.1051H14.731V39.4733Z" fill="#231F20"/>
<path d="M32.2302 47.684H33.5765V46.3155H32.2302V47.684Z" fill="#AA4E4C"/>
<path d="M28.1929 47.684H29.5391V46.3155H28.1929V47.684Z" fill="#AA4E4C"/>
<path d="M30.8844 47.684H32.2302V46.3155H30.8844V47.684Z" fill="#AA4E4C"/>
<path d="M29.5387 47.684H30.8852V46.3155H29.5387V47.684Z" fill="#AA4E4C"/>
<path d="M24.1536 47.684H25.4994V46.3155H24.1536V47.684Z" fill="#AA4E4C"/>
<path d="M14.731 42.2104H16.0772V40.8423H14.731V42.2104Z" fill="#AA4E4C"/>
<path d="M14.731 43.5788H16.0772V42.2104H14.731V43.5788Z" fill="#AA4E4C"/>
<path d="M14.731 40.8423H16.0772V39.4733H14.731V40.8423Z" fill="#7D3336"/>
<path d="M14.731 44.9469H16.0772V43.5788H14.731V44.9469Z" fill="#AA4E4C"/>
<path d="M16.0767 47.6841H17.423V46.316H16.0767V47.6841Z" fill="#843539"/>
<path d="M17.4235 47.6841H18.7698V46.316H17.4235V47.6841Z" fill="#AA4E4C"/>
<path d="M13.3842 44.947H14.7301V43.5788H13.3842V44.947Z" fill="#231F20"/>
<path d="M18.7693 47.6841H20.1151V46.316H18.7693V47.6841Z" fill="#AA4E4C"/>
<path d="M16.0767 46.316H17.423L17.423 44.9469H16.0767L16.0767 46.316Z" fill="#AA4E4C"/>
<path d="M28.1929 27.1577H29.5391V25.7892H28.1929V27.1577Z" fill="#231F20"/>
<path d="M12.0384 31.2628H13.3846V29.8943H12.0384V31.2628Z" fill="#AA4E4C"/>
<path d="M12.0384 25.7893H13.3846V24.4211H12.0384V25.7893Z" fill="#AA4E4C"/>
<path d="M12.0384 32.6314H13.3846V31.2628H12.0384V32.6314Z" fill="#AA4E4C"/>
<path d="M12.0384 28.5262H13.3846V27.1577H12.0384V28.5262Z" fill="#AA4E4C"/>
<path d="M12.0384 27.1577H13.3846V25.7893H12.0384V27.1577Z" fill="#AA4E4C"/>
<path d="M12.0384 29.8943H13.3846V28.5258H12.0384V29.8943Z" fill="#AA4E4C"/>
<path d="M12.0384 33.9996H13.3846V32.6314H12.0384V33.9996Z" fill="#AA4E4C"/>
<path d="M12.0384 38.1051H13.3842V36.7367L12.0384 36.7366V38.1051Z" fill="#231F20"/>
<path d="M12.0384 36.7366L13.3846 36.7367V35.3686H12.0384V36.7366Z" fill="#231F20"/>
<path d="M12.0384 35.3686H13.3846V34H12.0384V35.3686Z" fill="#E7E3E2"/>
<path d="M24.1535 25.7892H25.4994V24.4211H24.1535V25.7892Z" fill="#ECB276"/>
<path d="M20.1151 25.7892H21.4614V24.4211H20.1151V25.7892Z" fill="#231F20"/>
<path d="M22.8077 25.7892H24.1535V24.4211H22.8077V25.7892Z" fill="#ECB276"/>
<path d="M21.4619 25.7892H22.8082V24.4211H21.4619V25.7892Z" fill="white"/>
<path d="M12.0384 39.4733H13.3846V38.1052L12.0384 38.1051V39.4733Z" fill="#231F20"/>
<path d="M17.4235 25.7892H18.7698V24.4211H17.4235V25.7892Z" fill="white"/>
<path d="M16.0767 25.7892H17.423V24.4211H16.0767L16.0767 25.7892Z" fill="white"/>
<path d="M25.5003 25.7892H26.8465L26.8465 24.4211H25.5003L25.5003 25.7892Z" fill="white"/>
<path d="M18.7693 25.7892H20.1151V24.4211H18.7693V25.7892Z" fill="#231F20"/>
<path d="M13.3842 25.7892H14.7301V24.4211H13.3842V25.7892Z" fill="#AA4E4C"/>
<path d="M14.731 25.7892H16.0772V24.4211H14.731V25.7892Z" fill="#ECB276"/>
<path d="M21.4619 49.0526V50.4207H22.8082V49.0526H21.4619Z" fill="#AA4E4C"/>
<path d="M20.1151 50.4207H21.4614V49.0526H20.1151V50.4207Z" fill="#AA4E4C"/>
<path d="M18.7693 50.4207H20.1151V49.0526H18.7693V50.4207Z" fill="#843539"/>
<path d="M22.8077 50.4207H24.1536V49.0526H22.8077V50.4207Z" fill="#AA4E4C"/>
<path d="M16.0767 50.4208H17.423V49.0526H16.0767V50.4208Z" fill="#B3AFAE"/>
<path d="M17.4235 50.4207H18.7698V49.0526H17.4235V50.4207Z" fill="#231F20"/>
<path d="M24.1536 50.4207H25.4994V49.0526H24.1536V50.4207Z" fill="#AA4E4C"/>
<path d="M26.8461 50.4208H28.1924V49.0526H26.8461V50.4208Z" fill="#AA4E4C"/>
<path d="M28.1929 50.4207H29.5391V49.0526H28.1929V50.4207Z" fill="#AA4E4C"/>
<path d="M25.5003 50.4207H26.8465V49.0526H25.5003V50.4207Z" fill="#7D3336"/>
<path d="M12.0384 44.947H13.3846V43.5789H12.0384V44.947Z" fill="#231F20"/>
<path d="M12.0384 43.5789H13.3846V42.2103H12.0384V43.5789Z" fill="#AA4E4C"/>
<path d="M12.0384 46.3158H13.3846V44.947H12.0384V46.3158Z" fill="#E7E3E2"/>
<path d="M12.0384 42.2103H13.3846V40.8423H12.0384V42.2103Z" fill="#231F20"/>
<path d="M14.731 50.4207H16.0772V49.0526H14.731V50.4207Z" fill="#231F20"/>
<path d="M12.0384 47.6841H13.3846V46.3158H12.0384V47.6841Z" fill="#231F20"/>
<path d="M12.0384 40.8423H13.3846V39.4733H12.0384V40.8423Z" fill="#231F20"/>
<path d="M13.3842 49.0525H14.7301V47.684H13.3842V49.0525Z" fill="#231F20"/>
<path d="M32.2302 49.0525H33.5765V47.684H32.2302V49.0525Z" fill="#843539"/>
<path d="M24.1536 49.0526H25.4994V47.684H24.1536V49.0526Z" fill="#AA4E4C"/>
<path d="M28.1929 49.0526H29.5391V47.684H28.1929V49.0526Z" fill="#AA4E4C"/>
<path d="M30.8844 49.0525H32.2302V47.684H30.8844V49.0525Z" fill="#AA4E4C"/>
<path d="M25.5003 49.0526H26.8465V47.684H25.5003V49.0526Z" fill="#AA4E4C"/>
<path d="M26.8461 49.0526H28.1924V47.684H26.8461V49.0526Z" fill="#7D3336"/>
<path d="M29.5387 49.0525H30.8852V47.684H29.5387V49.0525Z" fill="#AA4E4C"/>
<path d="M34.9228 49.0525H36.2691V47.684H34.9228V49.0525Z" fill="#B3AFAE"/>
<path d="M34.9228 47.684H36.2691L36.2691 46.3155H34.9228L34.9228 47.684Z" fill="#B3AFAE"/>
<path d="M33.577 49.0525H34.9233V47.684H33.577V49.0525Z" fill="#231F20"/>
<path d="M13.3842 46.3158H14.7301V44.947H13.3842V46.3158Z" fill="#231F20"/>
<path d="M34.9228 46.3155H36.2691V44.9469H34.9228V46.3155Z" fill="#231F20"/>
<path d="M16.0767 49.0526H17.423L17.423 47.6841H16.0767L16.0767 49.0526Z" fill="#231F20"/>
<path d="M14.731 47.6841H16.0772V46.3158H14.731V47.6841Z" fill="#231F20"/>
<path d="M14.731 49.0526H16.0772V47.6841H14.731V49.0526Z" fill="#B3AFAE"/>
<path d="M13.3842 47.684H14.7301V46.3158H13.3842V47.684Z" fill="#E7E3E2"/>
<path d="M22.8077 49.0526H24.1536V47.684H22.8077V49.0526Z" fill="#AA4E4C"/>
<path d="M17.4235 49.0526H18.7698V47.6841H17.4235V49.0526Z" fill="#843539"/>
<path d="M21.4619 47.684V49.0526H22.8082V47.684H21.4619Z" fill="#7D3336"/>
<path d="M20.1151 49.0526H21.4614V47.6841H20.1151V49.0526Z" fill="#AA4E4C"/>
<path d="M18.7693 49.0526H20.1151V47.6841H18.7693V49.0526Z" fill="#AA4E4C"/>
<path d="M26.8461 25.7892L28.1924 25.7893V24.4211H26.8461L26.8461 25.7892Z" fill="white"/>
<path d="M34.9228 27.1577H36.2691V25.7892H34.9228V27.1577Z" fill="#AA4E4C"/>
<path d="M33.577 25.7892H34.9233L34.9233 24.4211H33.577L33.577 25.7892Z" fill="#ECB276"/>
<path d="M34.9228 25.7892H36.2691V24.4211H34.9228V25.7892Z" fill="#AA4E4C"/>
<path d="M34.9228 29.8943H36.2691V28.5258H34.9228V29.8943Z" fill="#AA4E4C"/>
<path d="M34.9228 44.9469H36.2691V43.5789H34.9228V44.9469Z" fill="#231F20"/>
<path d="M28.1929 25.7892H29.5391V24.4211H28.1929V25.7892Z" fill="#231F20"/>
<path d="M34.9228 31.2628H36.2691V29.8943H34.9228V31.2628Z" fill="#AA4E4C"/>
<path d="M29.5387 25.7892H30.8852V24.4211H29.5387V25.7892Z" fill="#231F20"/>
<path d="M30.8844 25.7892H32.2304V24.4211H30.8844V25.7892Z" fill="white"/>
<path d="M32.2304 25.7892H33.5765V24.4211H32.2304V25.7892Z" fill="white"/>
<path d="M34.9228 28.5263H36.2691V27.1577H34.9228V28.5263Z" fill="#AA4E4C"/>
<path d="M34.9228 42.2104H36.2691V40.8422H34.9228V42.2104Z" fill="#AA4E4C"/>
<path d="M34.9228 40.8422H36.2691V39.4732H34.9228V40.8422Z" fill="#AA4E4C"/>
<path d="M34.9228 43.5789H36.2691V42.2104H34.9228V43.5789Z" fill="#AA4E4C"/>
<path d="M34.9228 32.6314H36.2691V31.2628H34.9228V32.6314Z" fill="#AA4E4C"/>
<path d="M34.9228 39.4732H36.2691V38.1052H34.9228V39.4732Z" fill="#AA4E4C"/>
<path d="M34.9228 33.9997H36.2691V32.6314H34.9228V33.9997Z" fill="#AA4E4C"/>
<path d="M34.9228 38.1052H36.2691V36.7366H34.9228V38.1052Z" fill="#7D3336"/>
<path d="M34.9228 35.3685H36.2691V34H34.9228V35.3685Z" fill="#E7E3E2"/>
<path d="M34.9228 36.7366H36.2691V35.3685H34.9228V36.7366Z" fill="#231F20"/>
<path d="M25.5003 39.4733H26.8465V38.1052H25.5003V39.4733Z" fill="#AA4E4C"/>
<path d="M18.7693 32.6314H20.1152V31.2629H18.7693V32.6314Z" fill="#AA4E4C"/>
<path d="M18.7693 33.9996H20.1152V32.6314H18.7693V33.9996Z" fill="#AA4E4C"/>
<path d="M18.7693 42.2104H20.1152V40.8423H18.7693V42.2104Z" fill="#AA4E4C"/>
<path d="M20.1152 32.6314H21.4614V31.2629H20.1152V32.6314Z" fill="#231F20"/>
<path d="M21.4619 32.6314H22.8082V31.2629H21.4619V32.6314Z" fill="#FFF200"/>
<path d="M18.7693 35.3685H20.1152V34H18.7693V35.3685Z" fill="#AA4E4C"/>
<path d="M18.7693 36.7367H20.1152V35.3685H18.7693V36.7367Z" fill="#E7E3E2"/>
<path d="M18.7693 39.4733H20.1152V38.1052H18.7693V39.4733Z" fill="#7D3336"/>
<path d="M18.7693 40.8423H20.1152V39.4733H18.7693V40.8423Z" fill="#AA4E4C"/>
<path d="M18.7693 38.1052H20.1152V36.7367H18.7693V38.1052Z" fill="#231F20"/>
<path d="M22.8077 32.6314H24.1536V31.2629H22.8077V32.6314Z" fill="#FBC707"/>
<path d="M28.1929 36.7367H29.5391V35.3686H28.1929V36.7367Z" fill="#AA4E4C"/>
<path d="M24.1536 32.6314H25.4994V31.2629H24.1536V32.6314Z" fill="#FBC707"/>
<path d="M28.1929 38.1051H29.5391V36.7367H28.1929V38.1051Z" fill="#E7E3E2"/>
<path d="M28.1929 40.8421H29.5391V39.4732H28.1929V40.8421Z" fill="#7D3336"/>
<path d="M28.1929 39.4732H29.5391V38.1051H28.1929V39.4732Z" fill="#231F20"/>
<path d="M28.1929 35.3686H29.5391V34H28.1929V35.3686Z" fill="#AA4E4C"/>
<path d="M25.5003 32.6314H26.8465V31.2629H25.5003V32.6314Z" fill="#231F20"/>
<path d="M26.8461 32.6314H28.192V31.2629H26.8461V32.6314Z" fill="#AA4E4C"/>
<path d="M28.1929 32.6314H29.5391V31.2629H28.1929V32.6314Z" fill="#AA4E4C"/>
<path d="M28.1929 33.9996H29.5391V32.6314H28.1929V33.9996Z" fill="#AA4E4C"/>
<path d="M29.5387 39.4733H30.8852V38.1052H29.5387V39.4733Z" fill="#231F20"/>
<path d="M29.5387 36.7367H30.8852V35.3686H29.5387V36.7367Z" fill="#AA4E4C"/>
<path d="M29.5387 35.3686H30.8852V34H29.5387V35.3686Z" fill="#AA4E4C"/>
<path d="M29.5387 38.1052H30.8852V36.7367H29.5387V38.1052Z" fill="#E7E3E2"/>
<path d="M29.5387 33.9996H30.8852V32.6314H29.5387V33.9996Z" fill="#AA4E4C"/>
<path d="M28.1929 42.2104H29.5391V40.8421H28.1929V42.2104Z" fill="#AA4E4C"/>
<path d="M20.1152 42.2104H21.4614V40.8423H20.1152V42.2104Z" fill="#AA4E4C"/>
<path d="M32.2302 29.8943H33.5765V28.5258H32.2302V29.8943Z" fill="#ECB276"/>
<path d="M29.5387 32.6314H30.8852V31.2629H29.5387V32.6314Z" fill="#AA4E4C"/>
<path d="M28.1929 31.2629H29.5391V29.8943H28.1929V31.2629Z" fill="#ECB276"/>
<path d="M29.5387 31.2629H30.8852V29.8943H29.5387V31.2629Z" fill="#ECB276"/>
<path d="M26.8461 31.2629H28.192V29.8943H26.8461V31.2629Z" fill="#ECB276"/>
<path d="M22.8077 43.5788H24.1535V42.2103H22.8077V43.5788Z" fill="#7D3336"/>
<path d="M21.4619 42.2103V43.5788H22.8082V42.2103H21.4619Z" fill="#AA4E4C"/>
<path d="M20.1151 43.5788H21.4614V42.2104H20.1152L20.1151 43.5788Z" fill="#AA4E4C"/>
<path d="M29.5387 42.2104H30.8852V40.8423H29.5387V42.2104Z" fill="#AA4E4C"/>
<path d="M28.1929 43.5788H29.5391V42.2104H28.1929V43.5788Z" fill="#7D3336"/>
<path d="M29.5387 43.5788H30.8852V42.2104H29.5387V43.5788Z" fill="#AA4E4C"/>
<path d="M26.8461 43.5788H28.1924V42.2103H26.8461V43.5788Z" fill="#AA4E4C"/>
<path d="M25.5003 43.5788H26.8465V42.2103H25.5003V43.5788Z" fill="#AA4E4C"/>
<path d="M26.8461 42.2103H28.1924V40.8422H26.8461V42.2103Z" fill="#AA4E4C"/>
<path d="M21.4619 38.1051H22.8082V36.7366H21.4619V38.1051Z" fill="#7D3336"/>
<path d="M21.4619 36.7366H22.8082V35.3686H21.4619V36.7366Z" fill="#231F20"/>
<path d="M25.5003 31.2629H26.8465V29.8943H25.5003V31.2629Z" fill="#231F20"/>
<path d="M21.4619 35.3686H22.8082V34H21.4619V35.3686Z" fill="#FBC707"/>
<path d="M21.4619 39.4733H22.8082V38.1051H21.4619V39.4733Z" fill="#AA4E4C"/>
<path d="M24.1535 35.3685H25.4994V34H24.1535V35.3685Z" fill="#231F20"/>
<path d="M25.5003 40.8421H26.8465V39.4733H25.5003V40.8421Z" fill="#AA4E4C"/>
<path d="M26.8461 40.8422H28.1924V39.4732H26.8461V40.8422Z" fill="#AA4E4C"/>
<path d="M24.1535 40.8421H25.4994V39.4732H24.1535V40.8421Z" fill="#AA4E4C"/>
<path d="M22.8077 40.8421H24.1535V39.4732H22.8077V40.8421Z" fill="#AA4E4C"/>
<path d="M22.8077 39.4732H24.1535L24.1536 38.1052H22.8077V39.4732Z" fill="#AA4E4C"/>
<path d="M24.1536 38.1052L25.4994 38.1051V36.7366H24.1535L24.1536 38.1052Z" fill="#7D3336"/>
<path d="M22.8077 38.1052H24.1536L24.1535 36.7366H22.8077V38.1052Z" fill="#7D3336"/>
<path d="M22.8077 36.7366H24.1535V35.3685L22.8077 35.3686V36.7366Z" fill="#231F20"/>
<path d="M24.1535 36.7366H25.4994V35.3685H24.1535V36.7366Z" fill="#5C2425"/>
<path d="M25.5003 35.3685H26.8465V34H25.5003V35.3685Z" fill="#E7E3E2"/>
<path d="M25.5003 38.1052H26.8465V36.7366H25.5003V38.1052Z" fill="#7D3336"/>
<path d="M24.1535 39.4732H25.4994V38.1051L24.1536 38.1052L24.1535 39.4732Z" fill="#AA4E4C"/>
<path d="M25.5003 36.7366H26.8465V35.3685H25.5003V36.7366Z" fill="#231F20"/>
<path d="M29.5387 50.4207H30.8852V49.0525H29.5387V50.4207Z" fill="#AA4E4C"/>
<path d="M22.8077 35.3686L24.1535 35.3685V34H22.8077V35.3686Z" fill="#EEA00C"/>
<path d="M20.1152 39.4733H21.4614V38.1052H20.1152V39.4733Z" fill="#AA4E4C"/>
<path d="M21.4619 40.8421H22.8082V39.4733H21.4619V40.8421Z" fill="#AA4E4C"/>
<path d="M20.1152 40.8423H21.4614V39.4733H20.1152V40.8423Z" fill="#AA4E4C"/>
<path d="M20.1152 38.1052H21.4614V36.7366L20.1152 36.7367V38.1052Z" fill="#7D3336"/>
<path d="M20.1152 36.7367L21.4614 36.7366V35.3686L20.1152 35.3685V36.7367Z" fill="#231F20"/>
<path d="M21.4619 42.2103H22.8082V40.8421H21.4619V42.2103Z" fill="#7D3336"/>
<path d="M24.1535 42.2103H25.4994V40.8421H24.1535V42.2103Z" fill="#AA4E4C"/>
<path d="M25.5003 42.2103H26.8465V40.8421H25.5003V42.2103Z" fill="#AA4E4C"/>
<path d="M20.1152 35.3685L21.4614 35.3686V34H20.1152V35.3685Z" fill="#231F20"/>
<path d="M22.8077 42.2103H24.1535V40.8421H22.8077V42.2103Z" fill="#AA4E4C"/>
<path d="M24.1535 33.9996H25.4994V32.6314H24.1536L24.1535 33.9996Z" fill="#EEA00C"/>
<path d="M26.8461 33.9996H28.192V32.6314H26.8461V33.9996Z" fill="#AA4E4C"/>
<path d="M26.8461 36.7367H28.1924V35.3685H26.8461V36.7367Z" fill="#E7E3E2"/>
<path d="M26.8461 35.3685H28.1924V34H26.8461V35.3685Z" fill="#AA4E4C"/>
<path d="M26.8461 38.1051H28.1924V36.7367H26.8461V38.1051Z" fill="#231F20"/>
<path d="M22.8077 33.9996H24.1535L24.1536 32.6314H22.8077V33.9996Z" fill="#FBC707"/>
<path d="M21.4619 33.9996H22.8082V32.6314H21.4619V33.9996Z" fill="#FBC707"/>
<path d="M20.1152 33.9996H21.4614V32.6314H20.1152V33.9996Z" fill="#231F20"/>
<path d="M25.5003 33.9996H26.8465V32.6314H25.5003V33.9996Z" fill="#231F20"/>
<path d="M26.8461 39.4732H28.1924V38.1051H26.8461V39.4732Z" fill="#7D3336"/>
<path d="M29.5387 40.8423H30.8852V39.4733H29.5387V40.8423Z" fill="#7D3336"/>
<path d="M16.0767 42.2104H17.423V40.8422H16.0767V42.2104Z" fill="#AA4E4C"/>
<path d="M16.0767 40.8422H17.423V39.4732H16.0767L16.0767 40.8422Z" fill="#7D3336"/>
<path d="M16.0767 43.5788H17.423V42.2104H16.0767L16.0767 43.5788Z" fill="#AA4E4C"/>
<path d="M16.0767 39.4732H17.423V38.1052H16.0767L16.0767 39.4732Z" fill="#231F20"/>
<path d="M16.0767 38.1052H17.423V36.7366H16.0767L16.0767 38.1052Z" fill="#E7E3E2"/>
<path d="M17.4235 46.316H18.7698V44.9469H17.4235V46.316Z" fill="#AA4E4C"/>
<path d="M16.0767 44.9469H17.423V43.5788H16.0767V44.9469Z" fill="#AA4E4C"/>
<path d="M16.0767 36.7366H17.423V35.3685H16.0767L16.0767 36.7366Z" fill="#AA4E4C"/>
<path d="M18.7693 46.316H20.1151L20.1152 44.9469H18.7693V46.316Z" fill="#AA4E4C"/>
<path d="M17.4235 44.9469H18.7698V43.5789H17.4235V44.9469Z" fill="#AA4E4C"/>
<path d="M18.7693 29.8943H20.1152V28.5258H18.7693V29.8943Z" fill="white"/>
<path d="M20.1151 46.316H21.4614V44.9469H20.1152L20.1151 46.316Z" fill="#AA4E4C"/>
<path d="M20.1152 29.8943H21.4614V28.5258H20.1152V29.8943Z" fill="white"/>
<path d="M21.4619 29.8943H22.8082V28.5258H21.4619V29.8943Z" fill="#ECB276"/>
<path d="M17.4235 29.8943H18.7698V28.5258H17.4235V29.8943Z" fill="white"/>
<path d="M16.0767 31.2628H17.423V29.8943H16.0767V31.2628Z" fill="#AA4E4C"/>
<path d="M16.0767 29.8943H17.423V28.5258H16.0767V29.8943Z" fill="#ECB276"/>
<path d="M16.0767 32.6314H17.423V31.2628H16.0767V32.6314Z" fill="#AA4E4C"/>
<path d="M16.0767 33.9997H17.423V32.6314H16.0767L16.0767 33.9997Z" fill="#AA4E4C"/>
<path d="M16.0767 35.3685H17.423V34H16.0767V35.3685Z" fill="#AA4E4C"/>
<path d="M21.4619 44.9469V46.3158L22.8082 46.3155V44.9469H21.4619Z" fill="#AA4E4C"/>
<path d="M32.2302 38.1051H33.5765V36.7366H32.2302V38.1051Z" fill="#E7E3E2"/>
<path d="M32.2302 36.7366H33.5765V35.3686H32.2302V36.7366Z" fill="#AA4E4C"/>
<path d="M32.2302 39.4733H33.5765V38.1051H32.2302V39.4733Z" fill="#231F20"/>
<path d="M32.2302 40.8421H33.5765V39.4733H32.2302V40.8421Z" fill="#7D3336"/>
<path d="M22.8077 29.8943H24.1536V28.5258H22.8077V29.8943Z" fill="#231F20"/>
<path d="M32.2302 33.9996H33.5765V32.6314H32.2302V33.9996Z" fill="#AA4E4C"/>
<path d="M32.2302 35.3686H33.5765V34H32.2302V35.3686Z" fill="#AA4E4C"/>
<path d="M32.2302 32.6314H33.5765V31.2629H32.2302V32.6314Z" fill="#AA4E4C"/>
<path d="M32.2302 31.2629H33.5765V29.8943H32.2302V31.2629Z" fill="#AA4E4C"/>
<path d="M32.2302 43.5788H33.5765V42.2103H32.2302V43.5788Z" fill="#AA4E4C"/>
<path d="M32.2302 42.2103H33.5765V40.8421H32.2302V42.2103Z" fill="#AA4E4C"/>
<path d="M25.5003 46.3155H26.8465V44.9469H25.5003V46.3155Z" fill="#7D3336"/>
<path d="M24.1536 46.3155H25.4994V44.9469H24.1535L24.1536 46.3155Z" fill="#AA4E4C"/>
<path d="M26.8461 46.3155H28.1924V44.9469H26.8461V46.3155Z" fill="#AA4E4C"/>
<path d="M32.2302 44.947H33.5765V43.5788H32.2302V44.947Z" fill="#7D3336"/>
<path d="M22.8077 46.3155H24.1536L24.1535 44.9469H22.8077V46.3155Z" fill="#AA4E4C"/>
<path d="M30.8844 46.3155H32.2302V44.947L30.8844 44.9469V46.3155Z" fill="#7D3336"/>
<path d="M32.2302 46.3155H33.5765V44.947H32.2302V46.3155Z" fill="#AA4E4C"/>
<path d="M28.1929 46.3155H29.5391V44.9469H28.1929V46.3155Z" fill="#AA4E4C"/>
<path d="M29.5387 46.3155H30.8852V44.9469H29.5387V46.3155Z" fill="#AA4E4C"/>
<path d="M17.4235 42.2104H18.7698V40.8423H17.4235V42.2104Z" fill="#AA4E4C"/>
<path d="M18.7693 43.5788H20.1151L20.1152 42.2104H18.7693V43.5788Z" fill="#7D3336"/>
<path d="M24.1536 29.8943H25.4994V28.5258H24.1536V29.8943Z" fill="#231F20"/>
<path d="M24.1536 31.2629H25.4994V29.8943H24.1536V31.2629Z" fill="#FBC707"/>
<path d="M17.4235 40.8423H18.7698V39.4732H17.4235V40.8423Z" fill="#7D3336"/>
<path d="M17.4235 39.4732H18.7698V38.1052H17.4235V39.4732Z" fill="#231F20"/>
<path d="M20.1152 44.9469H21.4614V43.5788H20.1151L20.1152 44.9469Z" fill="#7D3336"/>
<path d="M21.4619 43.5788V44.9469H22.8082V43.5788H21.4619Z" fill="#AA4E4C"/>
<path d="M22.8077 44.9469H24.1535V43.5788H22.8077V44.9469Z" fill="#AA4E4C"/>
<path d="M18.7693 44.9469H20.1152L20.1151 43.5788H18.7693V44.9469Z" fill="#AA4E4C"/>
<path d="M17.4235 38.1052H18.7698V36.7366H17.4235V38.1052Z" fill="#E7E3E2"/>
<path d="M17.4235 35.3685H18.7698V34H17.4235V35.3685Z" fill="#AA4E4C"/>
<path d="M17.4235 36.7366H18.7698V35.3685H17.4235V36.7366Z" fill="#AA4E4C"/>
<path d="M20.1152 31.2629H21.4614V29.8943H20.1152V31.2629Z" fill="#ECB276"/>
<path d="M21.4619 31.2629H22.8082V29.8943H21.4619V31.2629Z" fill="#231F20"/>
<path d="M22.8077 31.2629H24.1536V29.8943H22.8077V31.2629Z" fill="#FFF200"/>
<path d="M18.7693 31.2629H20.1152V29.8943H18.7693V31.2629Z" fill="#ECB276"/>
<path d="M17.4235 33.9996H18.7698V32.6314H17.4235V33.9996Z" fill="#AA4E4C"/>
<path d="M24.1535 44.9469H25.4994V43.5788H24.1535V44.9469Z" fill="#AA4E4C"/>
<path d="M17.4235 31.2628H18.7698V29.8943H17.4235V31.2628Z" fill="#ECB276"/>
<path d="M17.4235 32.6314H18.7698V31.2628H17.4235V32.6314Z" fill="#AA4E4C"/>
<path d="M17.4235 43.5789H18.7698V42.2104H17.4235V43.5789Z" fill="#AA4E4C"/>
<path d="M30.8844 32.6314L32.2302 32.6314V31.2629H30.8844V32.6314Z" fill="#AA4E4C"/>
<path d="M30.8844 31.2629H32.2302V29.8943L30.8844 29.8943V31.2629Z" fill="#ECB276"/>
<path d="M30.8844 35.3685L32.2302 35.3686V34H30.8844V35.3685Z" fill="#AA4E4C"/>
<path d="M30.8844 33.9996H32.2302V32.6314L30.8844 32.6314V33.9996Z" fill="#AA4E4C"/>
<path d="M30.8844 29.8943L32.2302 29.8943V28.5258H30.8844V29.8943Z" fill="white"/>
<path d="M25.5003 44.9469H26.8465V43.5788H25.5003V44.9469Z" fill="#AA4E4C"/>
<path d="M25.5003 29.8943H26.8465V28.5258H25.5003V29.8943Z" fill="#ECB276"/>
<path d="M26.8461 29.8943H28.192V28.5258H26.8461V29.8943Z" fill="white"/>
<path d="M29.5387 29.8943H30.8852V28.5258H29.5387V29.8943Z" fill="white"/>
<path d="M28.1929 29.8943H29.5391V28.5258H28.1929V29.8943Z" fill="white"/>
<path d="M30.8844 36.7367L32.2302 36.7366V35.3686L30.8844 35.3685V36.7367Z" fill="#AA4E4C"/>
<path d="M29.5387 44.9469H30.8852V43.5788H29.5387V44.9469Z" fill="#AA4E4C"/>
<path d="M28.1929 44.9469H29.5391V43.5788H28.1929V44.9469Z" fill="#AA4E4C"/>
<path d="M30.8844 44.9469L32.2302 44.947V43.5788L30.8844 43.5789V44.9469Z" fill="#AA4E4C"/>
<path d="M30.8844 38.1051H32.2302V36.7366L30.8844 36.7367V38.1051Z" fill="#E7E3E2"/>
<path d="M26.8461 44.9469H28.1924V43.5788H26.8461V44.9469Z" fill="#7D3336"/>
<path d="M30.8844 40.8421H32.2302V39.4733L30.8844 39.4732V40.8421Z" fill="#7D3336"/>
<path d="M30.8844 43.5789L32.2302 43.5788V42.2103H30.8844V43.5789Z" fill="#AA4E4C"/>
<path d="M30.8844 39.4732L32.2302 39.4733V38.1051H30.8844V39.4732Z" fill="#231F20"/>
<path d="M30.8844 42.2103H32.2302V40.8421H30.8844V42.2103Z" fill="#AA4E4C"/>
<path d="M28.1929 54.5263H29.5391V53.1577H28.1929V54.5263Z" fill="#231F20"/>
<path d="M8 39.4734H9.34625V38.1052H8V39.4734Z" fill="#231F20"/>
<path d="M8 40.8421H9.34625V39.4734H8L8 40.8421Z" fill="#231F20"/>
<path d="M8 42.2104H9.34625V40.8421H8L8 42.2104Z" fill="#231F20"/>
<path d="M8 38.1052H9.34625V36.7366H8L8 38.1052Z" fill="#231F20"/>
<path d="M21.4619 54.5263H22.8082V53.1577H21.4619V54.5263Z" fill="#231F20"/>
<path d="M25.5003 54.5262H26.8465V53.1577H25.5003V54.5262Z" fill="#231F20"/>
<path d="M22.8077 54.5263H24.1536V53.1577H22.8077V54.5263Z" fill="#231F20"/>
<path d="M26.8461 54.5263H28.1924V53.1578H26.8461V54.5263Z" fill="#231F20"/>
<path d="M24.1536 54.5263L25.4994 54.5262V53.1577H24.1536V54.5263Z" fill="#231F20"/>
<path d="M20.1151 54.5263H21.4614V53.1577H20.1151V54.5263Z" fill="#231F20"/>
<path d="M12.0384 21.684H13.3843V20.3155H12.0384V21.684Z" fill="#231F20"/>
<path d="M38.9612 38.1051H40.3071V36.7366H38.9612V38.1051Z" fill="#AA4E4C"/>
<path d="M38.9612 35.3685H40.3071V34H38.9612V35.3685Z" fill="#231F20"/>
<path d="M38.9612 36.7366H40.3071V35.3685H38.9612V36.7366Z" fill="#D46C5B"/>
<path d="M38.9612 46.3154H40.3071V44.9469H38.9612V46.3154Z" fill="#231F20"/>
<path d="M30.8844 50.4207H32.2304L32.2302 49.0525H30.8844V50.4207Z" fill="#AA4E4C"/>
<path d="M38.9612 40.8421H40.3071V39.4732H38.9612V40.8421Z" fill="#AA4E4C"/>
<path d="M38.9612 42.2104H40.3071V40.8421H38.9612V42.2104Z" fill="#AA4E4C"/>
<path d="M38.9612 44.9469H40.3071V43.5789H38.9612V44.9469Z" fill="#AA4E4C"/>
<path d="M38.9612 39.4732H40.3071V38.1051H38.9612V39.4732Z" fill="#AA4E4C"/>
<path d="M29.5387 21.684H30.8852V20.3155H29.5387V21.684Z" fill="#ECB276"/>
<path d="M20.1151 21.684H21.4614V20.3155H20.1151V21.684Z" fill="#ECB276"/>
<path d="M26.8461 21.684H28.1924V20.3155H26.8461V21.684Z" fill="#ECB276"/>
<path d="M21.4619 21.684H22.8082V20.3155H21.4619V21.684Z" fill="#7D3336"/>
<path d="M24.1535 21.684H25.4994V20.3155H24.1535V21.684Z" fill="#AA4E4C"/>
<path d="M25.5003 21.684H26.8465V20.3155H25.5003V21.684Z" fill="#7D3336"/>
<path d="M22.8077 21.684H24.1539V20.3155H22.8077V21.684Z" fill="#AA4E4C"/>
<path d="M16.0767 21.684H17.423V20.3155H16.0767V21.684Z" fill="#AA4E4C"/>
<path d="M18.7693 21.684H20.1151V20.3155H18.7693V21.684Z" fill="#ECB276"/>
<path d="M17.4235 21.684H18.7698V20.3155H17.4235V21.684Z" fill="#ECB276"/>
<path d="M14.731 21.684H16.0772V20.3155H14.731V21.684Z" fill="#AA4E4C"/>
<path d="M28.1929 21.684H29.5391V20.3155H28.1929V21.684Z" fill="#ECB276"/>
<path d="M37.6154 21.684H38.9616V20.3155H37.6154V21.684Z" fill="#231F20"/>
<path d="M34.9228 21.684H36.2691V20.3155H34.9228V21.684Z" fill="#AA4E4C"/>
<path d="M36.2696 21.684H37.6159V20.3155H36.2696V21.684Z" fill="#AA4E4C"/>
<path d="M33.577 21.684H34.9233V20.3155H33.577V21.684Z" fill="#AA4E4C"/>
<path d="M13.3843 21.684H14.7304V20.3155H13.3843V21.684Z" fill="#AA4E4C"/>
<path d="M30.8844 21.684H32.2304V20.3155H30.8844V21.684Z" fill="#ECB276"/>
<path d="M32.2304 21.684H33.5765V20.3155H32.2304V21.684Z" fill="#AA4E4C"/>
<path d="M10.6926 20.3156H12.0388V18.9474H10.6927L10.6926 20.3156Z" fill="#231F20"/>
<path d="M13.3843 20.3155L14.7301 20.3156V18.9474H13.3842L13.3843 20.3155Z" fill="#EBA469"/>
<path d="M12.0384 20.3155L13.3846 20.3156V18.9474H12.0384V20.3155Z" fill="#AA4E4C"/>
<path d="M29.5387 54.5263H30.8852V53.1577H29.5387V54.5263Z" fill="#231F20"/>
<path d="M22.8077 20.3155H24.1535L24.1536 18.9474H22.8077V20.3155Z" fill="#D46C5B"/>
<path d="M24.1535 20.3155H25.4994V18.9474H24.1536L24.1535 20.3155Z" fill="#D46C5B"/>
<path d="M25.5003 20.3155H26.8465V18.9474H25.5003V20.3155Z" fill="#AA4E4C"/>
<path d="M26.8461 20.3155H28.1924V18.9474H26.8461V20.3155Z" fill="#AA4E4C"/>
<path d="M21.4619 20.3155H22.8077V18.9474H21.4619V20.3155Z" fill="#AA4E4C"/>
<path d="M16.0767 20.3155H17.423V18.9474H16.0767L16.0767 20.3155Z" fill="#AA4E4C"/>
<path d="M17.4235 20.3155H18.7693V18.9474H17.4235V20.3155Z" fill="#AA4E4C"/>
<path d="M18.7693 20.3155L20.1156 20.3156V18.9474L18.7693 18.9474V20.3155Z" fill="#AA4E4C"/>
<path d="M20.1151 20.3155H21.4614V18.9474H20.1151V20.3155Z" fill="#AA4E4C"/>
<path d="M38.9612 51.7891H40.3071V50.4206H38.9612V51.7891Z" fill="#231F20"/>
<path d="M28.1929 20.3155H29.5391V18.9474H28.1929V20.3155Z" fill="#AA4E4C"/>
<path d="M14.731 20.3155H16.0772V18.9474H14.731V20.3155Z" fill="#EBA469"/>
<path d="M40.308 44.947H41.6542V43.5789H40.308V44.947Z" fill="#231F20"/>
<path d="M40.308 51.7891H41.6542V50.4206H40.308V51.7891Z" fill="#231F20"/>
<path d="M40.308 38.1051H41.6542V36.7366H40.308V38.1051Z" fill="#AA4E4C"/>
<path d="M40.308 40.8421H41.6542V39.4732H40.308V40.8421Z" fill="#AA4E4C"/>
<path d="M40.308 43.5789H41.6542V42.2103H40.308V43.5789Z" fill="#AA4E4C"/>
<path d="M40.308 42.2103H41.6542V40.8421H40.308V42.2103Z" fill="#AA4E4C"/>
<path d="M40.308 39.4732H41.6542V38.1051H40.308V39.4732Z" fill="#AA4E4C"/>
<path d="M34.9228 54.5263H36.2691V53.1578H34.9228V54.5263Z" fill="#AA4E4C"/>
<path d="M32.2304 54.5263L33.5765 54.5262V53.1577H32.2302L32.2304 54.5263Z" fill="#231F20"/>
<path d="M33.577 54.5263H34.9233V53.1578H33.577V54.5263Z" fill="#AA4E4C"/>
<path d="M40.308 53.1577H41.6542V51.7891H40.308V53.1577Z" fill="#E7E3E2"/>
<path d="M30.8844 54.5263H32.2304L32.2302 53.1577H30.8844V54.5263Z" fill="#231F20"/>
<path d="M29.5387 20.3155H30.8852V18.9474H29.5387V20.3155Z" fill="#AA4E4C"/>
<path d="M40.308 54.5263H41.6542V53.1577H40.308V54.5263Z" fill="#E7E3E2"/>
<path d="M38.9612 54.5263H40.3071V53.1577H38.9612V54.5263Z" fill="#E7E3E2"/>
<path d="M37.6154 54.5263H38.9616V53.1577H37.6154V54.5263Z" fill="#AA4E4C"/>
<path d="M36.2696 54.5262H37.6159V53.1577H36.2696V54.5262Z" fill="#231F20"/>
<path d="M38.9612 20.3156H40.3071V18.9474H38.9612V20.3156Z" fill="#231F20"/>
<path d="M36.2696 20.3155H37.6159V18.9474H36.2696V20.3155Z" fill="#EBA469"/>
<path d="M37.6154 20.3155H38.9616V18.9474H37.6154V20.3155Z" fill="#AA4E4C"/>
<path d="M34.9228 20.3155H36.2691V18.9474H34.9228V20.3155Z" fill="#EBA469"/>
<path d="M32.2304 20.3155H33.5765V18.9474H32.2304V20.3155Z" fill="#AA4E4C"/>
<path d="M30.8844 20.3155H32.2304V18.9474H30.8844V20.3155Z" fill="#AA4E4C"/>
<path d="M33.577 20.3155H34.9233L34.9233 18.9474H33.577L33.577 20.3155Z" fill="#AA4E4C"/>
<path d="M40.308 36.7366H41.6542V35.3686H40.308V36.7366Z" fill="#D46C5B"/>
<path d="M40.308 35.3686H41.6542V34H40.308V35.3686Z" fill="#231F20"/>
<path d="M38.9612 43.5789H40.3071V42.2104H38.9612V43.5789Z" fill="#AA4E4C"/>
<path d="M10.6926 46.3158H12.0388V44.9469H10.6926V46.3158Z" fill="#231F20"/>
<path d="M10.6926 39.4733H12.0388V38.1052H10.6926V39.4733Z" fill="#AA4E4C"/>
<path d="M10.6926 43.5788H12.0388V42.2103H10.6926V43.5788Z" fill="#AA4E4C"/>
<path d="M10.6926 42.2103H12.0388V40.8423H10.6926V42.2103Z" fill="#AA4E4C"/>
<path d="M10.6926 40.8423H12.0388V39.4733H10.6926V40.8423Z" fill="#AA4E4C"/>
<path d="M10.6926 44.9469H12.0388V43.5788H10.6926V44.9469Z" fill="#AA4E4C"/>
<path d="M10.6926 29.8943H12.0388V28.5258H10.6926V29.8943Z" fill="#231F20"/>
<path d="M10.6926 28.5262H12.0388V27.1577H10.6926V28.5262Z" fill="#231F20"/>
<path d="M10.6926 31.2628H12.0388V29.8943H10.6926V31.2628Z" fill="#231F20"/>
<path d="M10.6926 25.7893H12.0388V24.4211H10.6926V25.7893Z" fill="#231F20"/>
<path d="M10.6926 27.1577H12.0388V25.7893H10.6926V27.1577Z" fill="#231F20"/>
<path d="M10.6926 36.7367H12.0388V35.3686H10.6926V36.7367Z" fill="#231F20"/>
<path d="M10.6926 35.3686H12.0388V34H10.6926V35.3686Z" fill="#231F20"/>
<path d="M10.6926 32.6314H12.0388V31.2628H10.6926V32.6314Z" fill="#231F20"/>
<path d="M10.6926 38.1052H12.0388V36.7367H10.6926V38.1052Z" fill="#D46C5B"/>
<path d="M10.6926 33.9996H12.0388V32.6314H10.6926V33.9996Z" fill="#231F20"/>
<path d="M32.2302 51.7891H33.5765V50.4206L32.2304 50.4207L32.2302 51.7891Z" fill="#843539"/>
<path d="M30.8844 51.7891H32.2302L32.2304 50.4207H30.8844V51.7891Z" fill="#843539"/>
<path d="M29.5387 51.7891H30.8852V50.4207H29.5387V51.7891Z" fill="#AA4E4C"/>
<path d="M33.577 51.7891H34.9233V50.4206H33.577V51.7891Z" fill="#231F20"/>
<path d="M28.1929 51.7891H29.5391V50.4207H28.1929V51.7891Z" fill="#AA4E4C"/>
<path d="M26.8461 51.7891H28.1924V50.4208H26.8461V51.7891Z" fill="#AA4E4C"/>
<path d="M37.6154 51.7891H38.9616V50.4206H37.6154V51.7891Z" fill="#231F20"/>
<path d="M36.2696 51.7891H37.6159V50.4206H36.2696V51.7891Z" fill="#AA4E4C"/>
<path d="M34.9228 51.7891H36.2691V50.4206H34.9228V51.7891Z" fill="#AA4E4C"/>
<path d="M17.4235 51.7891H18.7698V50.4207H17.4235V51.7891Z" fill="#231F20"/>
<path d="M16.0767 51.7891H17.423V50.4208H16.0767L16.0767 51.7891Z" fill="#231F20"/>
<path d="M18.7693 51.7891H20.1152L20.1151 50.4207H18.7693V51.7891Z" fill="#231F20"/>
<path d="M21.4619 51.7891H22.8082V50.4207H21.4619V51.7891Z" fill="#843539"/>
<path d="M22.8077 51.7891H24.1536V50.4207H22.8077V51.7891Z" fill="#AA4E4C"/>
<path d="M24.1536 51.7891H25.4994V50.4207H24.1536V51.7891Z" fill="#AA4E4C"/>
<path d="M20.1152 51.7891H21.4614V50.4207H20.1151L20.1152 51.7891Z" fill="#843539"/>
<path d="M25.5003 51.7891H26.8465V50.4207H25.5003V51.7891Z" fill="#AA4E4C"/>
<path d="M36.2696 35.3685H37.6159V34H36.2696V35.3685Z" fill="#231F20"/>
<path d="M36.2696 38.1051H37.6159V36.7366H36.2696V38.1051Z" fill="#231F20"/>
<path d="M12.0384 24.4211H13.3846V23.0526H12.0384V24.4211Z" fill="#231F20"/>
<path d="M36.2696 39.4733H37.6159V38.1051H36.2696V39.4733Z" fill="#231F20"/>
<path d="M36.2696 42.2104H37.6159V40.8423H36.2696V42.2104Z" fill="#231F20"/>
<path d="M36.2696 40.8423H37.6159V39.4733H36.2696V40.8423Z" fill="#231F20"/>
<path d="M36.2696 29.8943H37.6159V28.5258H36.2696V29.8943Z" fill="#AA4E4C"/>
<path d="M36.2696 33.9996H37.6159V32.6314H36.2696V33.9996Z" fill="#E7E3E2"/>
<path d="M36.2696 31.2628H37.6159V29.8943H36.2696V31.2628Z" fill="#AA4E4C"/>
<path d="M36.2696 28.5262H37.6159V27.1577H36.2696V28.5262Z" fill="#AA4E4C"/>
<path d="M36.2696 32.6314H37.6159V31.2628H36.2696V32.6314Z" fill="#AA4E4C"/>
<path d="M34.9228 50.4206H36.2691L36.2691 49.0525H34.9228L34.9228 50.4206Z" fill="#231F20"/>
<path d="M33.577 50.4206H34.9233V49.0525H33.577V50.4206Z" fill="#231F20"/>
<path d="M36.2696 50.4206H37.6159V49.0526H36.2696V50.4206Z" fill="#231F20"/>
<path d="M32.2304 50.4207L33.5765 50.4206V49.0525H32.2302L32.2304 50.4207Z" fill="#843539"/>
<path d="M38.9612 53.1577H40.3071V51.7891H38.9612V53.1577Z" fill="#AA4E4C"/>
<path d="M36.2696 44.947H37.6159V43.5789H36.2696V44.947Z" fill="#E7E3E2"/>
<path d="M36.2696 46.3154H37.6159V44.947H36.2696V46.3154Z" fill="#E7E3E2"/>
<path d="M36.2696 49.0526H37.6159V47.684H36.2696V49.0526Z" fill="#231F20"/>
<path d="M36.2696 43.5789H37.6159V42.2104H36.2696V43.5789Z" fill="#231F20"/>
<path d="M36.2696 36.7366H37.6159V35.3685H36.2696V36.7366Z" fill="#7D3336"/>
<path d="M20.1151 24.4211H21.4614V23.0526H20.1151V24.4211Z" fill="white"/>
<path d="M18.7693 24.4211H20.1151V23.0526H18.7693V24.4211Z" fill="white"/>
<path d="M21.4619 24.4211H22.8082V23.0526H21.4619V24.4211Z" fill="white"/>
<path d="M25.5003 24.4211H26.8465V23.0526H25.5003V24.4211Z" fill="white"/>
<path d="M24.1535 24.4211H25.4994V23.0526H24.1535V24.4211Z" fill="#ECB276"/>
<path d="M22.8077 24.4211H24.1535V23.0526H22.8077V24.4211Z" fill="#ECB276"/>
<path d="M14.731 24.4211H16.0772V23.0526H14.731V24.4211Z" fill="#ECB276"/>
<path d="M17.4235 24.4211H18.7698V23.0526H17.4235V24.4211Z" fill="white"/>
<path d="M13.3842 24.4211H14.7301V23.0526H13.3842V24.4211Z" fill="#AA4E4C"/>
<path d="M16.0767 24.4211H17.423V23.0526H16.0767V24.4211Z" fill="white"/>
<path d="M28.1929 24.4211H29.5391V23.0526H28.1929V24.4211Z" fill="white"/>
<path d="M36.2696 24.4211H37.6159V23.0526H36.2696V24.4211Z" fill="#AA4E4C"/>
<path d="M33.577 24.4211H34.9233V23.0526H33.577V24.4211Z" fill="#ECB276"/>
<path d="M26.8461 24.4211H28.1924V23.0526H26.8461V24.4211Z" fill="white"/>
<path d="M36.2696 25.7893H37.6159V24.4211H36.2696V25.7893Z" fill="#AA4E4C"/>
<path d="M34.9228 24.4211H36.2691V23.0526H34.9228V24.4211Z" fill="#AA4E4C"/>
<path d="M32.2304 24.4211H33.5765V23.0526H32.2302L32.2304 24.4211Z" fill="white"/>
<path d="M36.2696 27.1577H37.6159V25.7893H36.2696V27.1577Z" fill="#AA4E4C"/>
<path d="M29.5387 24.4211H30.8852V23.0526H29.5387V24.4211Z" fill="white"/>
<path d="M30.8844 24.4211H32.2304L32.2302 23.0526H30.8844V24.4211Z" fill="white"/>
<path d="M36.2696 47.684H37.6159V46.3154H36.2696V47.684Z" fill="#B3AFAE"/>
<path d="M9.34679 40.8421L10.6926 40.8423V39.4733L9.34679 39.4732V40.8421Z" fill="#AA4E4C"/>
<path d="M9.34679 42.2104L10.6926 42.2103V40.8423L9.34679 40.8421V42.2104Z" fill="#AA4E4C"/>
<path d="M9.34679 43.5788H10.6926V42.2103L9.34679 42.2104V43.5788Z" fill="#231F20"/>
<path d="M9.34679 44.947L10.6926 44.9469V43.5788H9.34679V44.947Z" fill="#231F20"/>
<path d="M9.34679 39.4732L10.6926 39.4733V38.1052H9.34679V39.4732Z" fill="#AA4E4C"/>
<path d="M9.34679 36.7367H10.6926V35.3686H9.34679V36.7367Z" fill="#231F20"/>
<path d="M9.34679 38.1052H10.6926V36.7367H9.34679V38.1052Z" fill="#D46C5B"/>
<path d="M32.2302 53.1577H33.5765V51.7891H32.2302V53.1577Z" fill="#231F20"/>
<path d="M29.5387 53.1577H30.8852V51.7891H29.5387V53.1577Z" fill="#843539"/>
<path d="M30.8844 53.1577H32.2302V51.7891H30.8844V53.1577Z" fill="#843539"/>
<path d="M28.1929 53.1577H29.5391V51.7891H28.1929V53.1577Z" fill="#843539"/>
<path d="M26.8461 53.1578H28.1924V51.7891H26.8461V53.1578Z" fill="#843539"/>
<path d="M36.2696 53.1577H37.6159V51.7891H36.2696V53.1577Z" fill="#AA4E4C"/>
<path d="M37.6154 53.1577H38.9616V51.7891H37.6154V53.1577Z" fill="#AA4E4C"/>
<path d="M25.5003 53.1577H26.8465V51.7891H25.5003V53.1577Z" fill="#843539"/>
<path d="M34.9228 53.1578H36.2691V51.7891H34.9228V53.1578Z" fill="#231F20"/>
<path d="M33.577 53.1578H34.9233L34.9233 51.7891H33.577L33.577 53.1578Z" fill="#843539"/>
<path d="M22.8077 53.1577H24.1536V51.7891H22.8077V53.1577Z" fill="#843539"/>
<path d="M21.4619 53.1577H22.8082V51.7891H21.4619V53.1577Z" fill="#843539"/>
<path d="M24.1536 53.1577H25.4994V51.7891H24.1536V53.1577Z" fill="#843539"/>
<path d="M20.1151 53.1577H21.4614V51.7891H20.1152L20.1151 53.1577Z" fill="#231F20"/>
<path d="M37.6154 27.1577H38.9616V25.7892H37.6154V27.1577Z" fill="#231F20"/>
<path d="M37.6154 28.5262H38.9616V27.1577H37.6154V28.5262Z" fill="#231F20"/>
<path d="M37.6154 29.8943H38.9616V28.5258H37.6154V29.8943Z" fill="#231F20"/>
<path d="M37.6154 32.6314H38.9616V31.2629H37.6154V32.6314Z" fill="#231F20"/>
<path d="M34.9228 23.0526H36.2691V21.684H34.9228V23.0526Z" fill="#AA4E4C"/>
<path d="M37.6154 24.4211H38.9616V23.0526H37.6154V24.4211Z" fill="#231F20"/>
<path d="M37.6154 25.7892H38.9616V24.4211H37.6154V25.7892Z" fill="#231F20"/>
<path d="M36.2696 23.0526H37.6159V21.684H36.2696V23.0526Z" fill="#231F20"/>
<path d="M37.6154 33.9996H38.9616V32.6314H37.6154V33.9996Z" fill="#231F20"/>
<path d="M37.6154 31.2629H38.9616V29.8943H37.6154V31.2629Z" fill="#231F20"/>
<path d="M37.6154 42.2104H38.9616V40.8423H37.6154V42.2104Z" fill="#AA4E4C"/>
<path d="M37.6154 44.947H38.9616V43.5789H37.6154V44.947Z" fill="#231F20"/>
<path d="M37.6154 43.5789H38.9616V42.2104H37.6154V43.5789Z" fill="#AA4E4C"/>
<path d="M37.6154 46.3154H38.9616V44.947H37.6154V46.3154Z" fill="#E7E3E2"/>
<path d="M37.6154 38.1051H38.9616V36.7366H37.6154V38.1051Z" fill="#AA4E4C"/>
<path d="M37.6154 36.7366H38.9616V35.3686H37.6154V36.7366Z" fill="#231F20"/>
<path d="M37.6154 35.3686H38.9616V34H37.6154V35.3686Z" fill="#231F20"/>
<path d="M37.6154 40.8423H38.9616V39.4732H37.6154V40.8423Z" fill="#AA4E4C"/>
<path d="M37.6154 39.4732H38.9616V38.1051H37.6154V39.4732Z" fill="#AA4E4C"/>
<path d="M21.4619 23.0526H22.8082V21.684H21.4619V23.0526Z" fill="#ECB276"/>
<path d="M14.731 23.0526H16.0772V21.684H14.731V23.0526Z" fill="#AA4E4C"/>
<path d="M16.0767 23.0526H17.423V21.684H16.0767L16.0767 23.0526Z" fill="#ECB276"/>
<path d="M13.3842 23.0526H14.7301V21.684L13.3843 21.684L13.3842 23.0526Z" fill="#AA4E4C"/>
<path d="M17.4235 23.0526H18.7698V21.684H17.4235V23.0526Z" fill="white"/>
<path d="M18.7693 23.0526H20.1151V21.684H18.7693V23.0526Z" fill="white"/>
<path d="M20.1151 23.0526H21.4614V21.684H20.1151V23.0526Z" fill="white"/>
<path d="M12.0384 23.0526H13.3846V21.684L12.0384 21.684V23.0526Z" fill="#231F20"/>
<path d="M37.6154 47.684H38.9616V46.3154H37.6154V47.684Z" fill="#231F20"/>
<path d="M22.8077 23.0526H24.1535V21.684H22.8077V23.0526Z" fill="#7D3336"/>
<path d="M28.1929 23.0526H29.5391V21.684H28.1929V23.0526Z" fill="white"/>
<path d="M29.5387 23.0526H30.8852V21.684H29.5387V23.0526Z" fill="white"/>
<path d="M30.8844 23.0526H32.2302L32.2304 21.684H30.8844V23.0526Z" fill="white"/>
<path d="M32.2302 23.0526H33.5765V21.684H32.2304L32.2302 23.0526Z" fill="#ECB276"/>
<path d="M33.577 23.0526H34.9233L34.9233 21.684H33.577L33.577 23.0526Z" fill="#AA4E4C"/>
<path d="M24.1535 23.0526L25.4997 23.0525V21.684L24.1535 21.684V23.0526Z" fill="#7D3336"/>
<path d="M25.5003 23.0526H26.8465L26.8465 21.684H25.5003L25.5003 23.0526Z" fill="#ECB276"/>
<path d="M26.8461 23.0526H28.1924V21.684H26.8461V23.0526Z" fill="white"/>
<path d="M36.2696 10.7367H37.6159V9.36855H36.2696V10.7367Z" fill="#D46C5B"/>
<path d="M34.9228 10.7367H36.2691V9.36852H34.9228V10.7367Z" fill="#231F20"/>
<path d="M37.6154 10.7367H38.9616V9.36855H37.6154V10.7367Z" fill="#231F20"/>
<path d="M13.3842 10.7367H14.7301V9.36855H13.3842V10.7367Z" fill="#231F20"/>
<path d="M12.0384 10.7367H13.3846V9.36855H12.0384V10.7367Z" fill="#231F20"/>
<path d="M10.6927 12.1052H12.0388V10.7366H10.6926L10.6927 12.1052Z" fill="#231F20"/>
<path d="M13.3842 12.1052H14.7301V10.7367H13.3842V12.1052Z" fill="#D46C5B"/>
<path d="M12.0384 12.1052H13.3846V10.7367H12.0384V12.1052Z" fill="#D46C5B"/>
<path d="M14.731 12.1052H16.0772V10.7366H14.731V12.1052Z" fill="#231F20"/>
<path d="M37.6154 12.1052H38.9616V10.7367H37.6154V12.1052Z" fill="#AA4E4C"/>
<path d="M38.9612 12.1052H40.3071V10.7366H38.9612V12.1052Z" fill="#231F20"/>
<path d="M33.577 12.1052H34.9233L34.9233 10.7366H33.577L33.577 12.1052Z" fill="#231F20"/>
<path d="M36.2696 12.1052H37.6159V10.7367H36.2696V12.1052Z" fill="#AA4E4C"/>
<path d="M34.9228 12.1052H36.2691V10.7367H34.9228V12.1052Z" fill="#D46C5B"/>
<path d="M36.2696 9.36855H37.6159V8H36.2696V9.36855Z" fill="#231F20"/>
</g>
</svg>
