<svg width="93" height="33" viewBox="0 0 93 33" fill="none" xmlns="http://www.w3.org/2000/svg">
<mask id="mask0_3477_76212" style="mask-type:alpha" maskUnits="userSpaceOnUse" x="0" y="0" width="93" height="33">
<rect width="93" height="33" fill="#D9D9D9"/>
</mask>
<g mask="url(#mask0_3477_76212)">
<path d="M36.1387 69.9473H37.8285V68.263H36.1387V69.9473Z" fill="#231F20"/>
<path d="M61.4824 69.9473H63.1717V68.263H61.4824V69.9473Z" fill="#231F20"/>
<path d="M59.7932 69.9473H61.483V68.263H59.7932V69.9473Z" fill="#231F20"/>
<path d="M63.1717 69.9473L64.8613 69.9473V68.263L63.1717 68.263V69.9473Z" fill="#231F20"/>
<path d="M37.8279 69.9473H39.5172V68.263H37.8279V69.9473Z" fill="#231F20"/>
<path d="M54.7245 69.9473H56.4142V68.263H54.7245V69.9473Z" fill="#231F20"/>
<path d="M58.1028 69.9473H59.7921V68.263H58.1028V69.9473Z" fill="#231F20"/>
<path d="M68.2415 69.9473H69.9308V68.263H68.2415V69.9473Z" fill="#231F20"/>
<path d="M64.862 69.9473H66.5517V68.263H64.862V69.9473Z" fill="#354053"/>
<path d="M66.5511 69.9473H68.2409V68.263H66.5511V69.9473Z" fill="#354053"/>
<path d="M56.4136 69.9473H58.1034V68.263H56.4136V69.9473Z" fill="#231F20"/>
<path d="M42.8966 69.9473H44.5863V68.263H42.8966V69.9473Z" fill="#231F20"/>
<path d="M53.0341 69.9473H54.7238V68.263H53.0341V69.9473Z" fill="#354053"/>
<path d="M41.2062 69.9473H42.8959V68.263H41.2062V69.9473Z" fill="#231F20"/>
<path d="M44.587 68.263V69.9473H46.2763V68.263H44.587Z" fill="#354053"/>
<path d="M39.5172 69.9473H41.2068V68.263H39.5172V69.9473Z" fill="#231F20"/>
<path d="M46.2763 69.9473H47.9659V68.263H46.2763V69.9473Z" fill="#354053"/>
<path d="M49.6545 69.9473H51.3442V68.263H49.6545V69.9473Z" fill="#354053"/>
<path d="M51.3449 69.9473H53.0341V68.263H51.3449V69.9473Z" fill="#354053"/>
<path d="M47.9653 69.9473H49.6551V68.263H47.9653V69.9473Z" fill="#354053"/>
<path d="M32.7579 19.4208H34.4476V17.7369H32.7579V19.4208Z" fill="#231F20"/>
<path d="M42.8966 19.4208H44.5863V17.7369H42.8966V19.4208Z" fill="white"/>
<path d="M47.9653 19.4208H49.6551V17.7369H47.9653V19.4208Z" fill="white"/>
<path d="M41.2062 19.4208H42.8959V17.7369H41.2062V19.4208Z" fill="#231F20"/>
<path d="M46.2762 19.4208H47.9659V17.7369H46.2762V19.4208Z" fill="#231F20"/>
<path d="M44.587 19.4208H46.2762V17.7369H44.587V19.4208Z" fill="white"/>
<path d="M37.8279 19.4208H39.5172V17.7369H37.8279V19.4208Z" fill="white"/>
<path d="M34.4483 19.4208H36.138V17.7369H34.4483V19.4208Z" fill="#54607B"/>
<path d="M36.1387 19.4208H37.8285V17.7369H36.1387V19.4208Z" fill="#54607B"/>
<path d="M53.0341 19.4208H54.7238V17.7369H53.0341V19.4208Z" fill="#54607B"/>
<path d="M58.1028 19.4208H59.7921V17.7369H58.1028V19.4208Z" fill="#231F20"/>
<path d="M49.6545 19.4208H51.3442V17.7369H49.6545V19.4208Z" fill="white"/>
<path d="M51.3449 19.4208H53.0341V17.7369H51.3449V19.4208Z" fill="white"/>
<path d="M56.4136 19.4208H58.1034V17.7369H56.4136V19.4208Z" fill="#54607B"/>
<path d="M54.7245 19.4208H56.4142V17.7369H54.7245V19.4208Z" fill="#54607B"/>
<path d="M39.5172 19.4208H41.2068V17.7369H39.5172V19.4208Z" fill="white"/>
<path d="M32.7579 17.7364H34.4476V16.0525H32.7579V17.7364Z" fill="#231F20"/>
<path d="M34.4483 17.7365H36.138V16.0526H34.4483V17.7365Z" fill="#707FA9"/>
<path d="M36.1387 17.7364H37.8285V16.0525H36.1387V17.7364Z" fill="#54607B"/>
<path d="M37.8279 17.7364H39.5172V16.0525H37.8279V17.7364Z" fill="white"/>
<path d="M47.9653 17.7364H49.6551V16.0525H47.9653V17.7364Z" fill="white"/>
<path d="M49.6545 17.7364H51.3442V16.0525H49.6545V17.7364Z" fill="white"/>
<path d="M51.3449 17.7365H53.0342V16.0526H51.3449V17.7365Z" fill="white"/>
<path d="M53.0342 17.7365H54.7238V16.0526H53.0342V17.7365Z" fill="#54607B"/>
<path d="M41.2062 17.7364H42.8959V16.0525H41.2062V17.7364Z" fill="#231F20"/>
<path d="M42.8966 17.7365H44.5863V16.0526H42.8966V17.7365Z" fill="white"/>
<path d="M46.2762 17.7364H47.9659V16.0525H46.2762V17.7364Z" fill="#231F20"/>
<path d="M39.5172 17.7364H41.2068V16.0525H39.5172V17.7364Z" fill="white"/>
<path d="M44.587 17.7364H46.2762V16.0525H44.587V17.7364Z" fill="white"/>
<path d="M54.7245 17.7364H56.4142V16.0525H54.7245V17.7364Z" fill="#54607B"/>
<path d="M73.3103 64.8948H75V63.2105H73.3103V64.8948Z" fill="#231F20"/>
<path d="M73.3103 63.21H75V61.5261H73.3103V63.21Z" fill="#231F20"/>
<path d="M58.1028 17.7364H59.7921V16.0525H58.1028V17.7364Z" fill="#231F20"/>
<path d="M56.4136 17.7364H58.1034V16.0525H56.4136V17.7364Z" fill="#707FA9"/>
<path d="M54.7245 66.5792H56.4142V64.8949H54.7245V66.5792Z" fill="#D2CFCD"/>
<path d="M53.0341 21.1049H54.7239L54.7238 19.4208H53.0341L53.0341 21.1049Z" fill="#54607B"/>
<path d="M56.4136 21.1049H58.1034V19.4208H56.4136V21.1049Z" fill="#54607B"/>
<path d="M59.7932 21.1049H61.483V19.4206H59.7932V21.1049Z" fill="#231F20"/>
<path d="M54.7245 21.1049H56.4142V19.4208H54.7245V21.1049Z" fill="#54607B"/>
<path d="M58.1028 21.1049H59.7921V19.4208H58.1028V21.1049Z" fill="#707FA9"/>
<path d="M37.8279 21.1049H39.5172V19.4208H37.8279V21.1049Z" fill="#231F20"/>
<path d="M51.3449 21.1049H53.0341L53.0341 19.4208H51.3449L51.3449 21.1049Z" fill="white"/>
<path d="M31.0687 21.1049H32.7581L32.7579 19.4208L31.0687 19.4206V21.1049Z" fill="#231F20"/>
<path d="M32.7581 21.1049H34.4476V19.4208H32.7579L32.7581 21.1049Z" fill="#231F20"/>
<path d="M34.4483 21.1049H36.138L36.138 19.4208H34.4483L34.4483 21.1049Z" fill="#231F20"/>
<path d="M46.2762 21.1049H47.9659V19.4208H46.2762V21.1049Z" fill="white"/>
<path d="M44.587 21.1049H46.2762V19.4208H44.587V21.1049Z" fill="white"/>
<path d="M47.9653 21.1049H49.6551V19.4208H47.9653V21.1049Z" fill="white"/>
<path d="M49.6545 21.1049H51.3442V19.4208H49.6545V21.1049Z" fill="white"/>
<path d="M39.5172 21.1049H41.2068V19.4208H39.5172V21.1049Z" fill="#231F20"/>
<path d="M36.1387 21.1049H37.8285V19.4208H36.1387V21.1049Z" fill="#231F20"/>
<path d="M42.8966 21.1049H44.5863L44.5863 19.4208H42.8966L42.8966 21.1049Z" fill="#231F20"/>
<path d="M41.2062 21.1049H42.8959V19.4208H41.2062V21.1049Z" fill="#231F20"/>
<path d="M46.2762 66.5792H47.9659V64.8949H46.2762V66.5792Z" fill="#D2CFCD"/>
<path d="M47.9653 66.5792H49.6551V64.8949H47.9653V66.5792Z" fill="#D2CFCD"/>
<path d="M49.6545 66.5792H51.3442V64.8949H49.6545V66.5792Z" fill="#D2CFCD"/>
<path d="M59.7932 66.5792H61.483V64.8949H59.7932V66.5792Z" fill="#54607B"/>
<path d="M41.2062 66.5792H42.8959V64.8949H41.2062V66.5792Z" fill="#D2CFCD"/>
<path d="M42.8966 66.5792H44.5863V64.8949H42.8966V66.5792Z" fill="#D2CFCD"/>
<path d="M56.4136 66.5792H58.1034V64.8949H56.4136V66.5792Z" fill="#354053"/>
<path d="M58.1028 66.5792H59.7921V64.8949H58.1028V66.5792Z" fill="#54607B"/>
<path d="M51.3449 66.5792H53.0342V64.8949H51.3449V66.5792Z" fill="#D2CFCD"/>
<path d="M53.0342 66.5792H54.7239V64.8949H53.0342V66.5792Z" fill="#D2CFCD"/>
<path d="M44.587 66.5792H46.2762V64.8949H44.587V66.5792Z" fill="#D2CFCD"/>
<path d="M39.517 66.5792H41.2068V64.8949H39.517V66.5792Z" fill="#354053"/>
<path d="M37.8279 66.5792H39.517V64.8949H37.8279V66.5792Z" fill="#354053"/>
<path d="M36.1387 66.5792H37.8285V64.8949H36.1387V66.5792Z" fill="#231F20"/>
<path d="M69.9307 64.8948H71.6204V63.2105H69.9307V64.8948Z" fill="#354053"/>
<path d="M69.9307 51.4211H71.6204V49.7368H69.9307V51.4211Z" fill="#231F20"/>
<path d="M69.9307 53.1055H71.6204V51.4211H69.9307V53.1055Z" fill="#231F20"/>
<path d="M69.9307 56.4736H71.6204V54.7893H69.9307V56.4736Z" fill="#231F20"/>
<path d="M69.9307 58.158H71.6204V56.4736H69.9307V58.158Z" fill="#231F20"/>
<path d="M61.4874 66.5792H63.1767V64.8949H61.4874V66.5792Z" fill="#54607B"/>
<path d="M69.9307 54.7888H71.6204V53.1049H69.9307V54.7888Z" fill="#231F20"/>
<path d="M69.9307 48.053H71.6204V46.3687H69.9307V48.053Z" fill="#231F20"/>
<path d="M69.9307 49.7363H71.6204V48.0524H69.9307V49.7363Z" fill="#231F20"/>
<path d="M66.5511 66.5792H68.2409V64.8949H66.5511V66.5792Z" fill="#54607B"/>
<path d="M64.862 66.5792H66.5517V64.8949H64.862V66.5792Z" fill="#54607B"/>
<path d="M63.1715 66.5792H64.8613V64.8949H63.1715V66.5792Z" fill="#54607B"/>
<path d="M68.2415 66.5792H69.9308L69.9307 64.8948L68.2415 64.8949V66.5792Z" fill="#354053"/>
<path d="M69.9307 59.8423H71.6204V58.158H69.9307V59.8423Z" fill="#231F20"/>
<path d="M69.9307 63.21H71.6204V61.5261H69.9307V63.21Z" fill="#354053"/>
<path d="M69.9307 61.5261H71.6204V59.8423H69.9307V61.5261Z" fill="#231F20"/>
<path d="M69.9308 66.5792H71.6204V64.8948H69.9307L69.9308 66.5792Z" fill="#354053"/>
<path d="M71.6198 61.5263H73.3096V59.8424H71.6198V61.5263Z" fill="#231F20"/>
<path d="M71.6198 64.8948H73.3096V63.2105H71.6198V64.8948Z" fill="#354053"/>
<path d="M71.6198 63.21H73.3096V61.5263H71.6198V63.21Z" fill="#707FA9"/>
<path d="M71.6198 66.5792H73.3096V64.8948H71.6198V66.5792Z" fill="#231F20"/>
<path d="M56.4136 68.263H58.1034V66.5792H56.4136V68.263Z" fill="#354053"/>
<path d="M59.7932 68.263H61.483V66.5792H59.7932V68.263Z" fill="#354053"/>
<path d="M63.1717 68.263L64.8613 68.263V66.5792H63.1715L63.1717 68.263Z" fill="#354053"/>
<path d="M61.4824 68.263H63.1717L63.1715 66.5792L61.4824 66.5792L61.4824 68.263Z" fill="#354053"/>
<path d="M58.1028 68.263H59.7921V66.5792H58.1028V68.263Z" fill="#354053"/>
<path d="M66.5511 68.263H68.2409V66.5792H66.5511V68.263Z" fill="#354053"/>
<path d="M68.2415 68.263H69.9308V66.5792H68.2415V68.263Z" fill="#354053"/>
<path d="M69.9308 68.263L71.6204 68.2631V66.5792H69.9308V68.263Z" fill="#231F20"/>
<path d="M64.862 68.263H66.5517V66.5792H64.862V68.263Z" fill="#354053"/>
<path d="M46.2763 68.263H47.9659V66.5792H46.2762L46.2763 68.263Z" fill="#D2CFCD"/>
<path d="M37.8279 68.263H39.5172L39.517 66.5792H37.8279V68.263Z" fill="#231F20"/>
<path d="M54.7245 68.263H56.4142V66.5792H54.7245V68.263Z" fill="#354053"/>
<path d="M44.587 68.263H46.2763L46.2762 66.5792H44.587V68.263Z" fill="#D2CFCD"/>
<path d="M41.2062 68.263H42.8959V66.5792H41.2062V68.263Z" fill="#354053"/>
<path d="M39.5172 68.263H41.2068V66.5792H39.517L39.5172 68.263Z" fill="#354053"/>
<path d="M42.8966 68.263H44.5863L44.5863 66.5792H42.8966L42.8966 68.263Z" fill="#54607B"/>
<path d="M51.3449 68.263H53.0341L53.0342 66.5792H51.3449L51.3449 68.263Z" fill="#D2CFCD"/>
<path d="M53.0341 68.263H54.7238L54.7239 66.5792H53.0342L53.0341 68.263Z" fill="#354053"/>
<path d="M47.9653 68.263H49.6551V66.5792H47.9653V68.263Z" fill="#D2CFCD"/>
<path d="M49.6545 68.263H51.3442V66.5792H49.6545V68.263Z" fill="#D2CFCD"/>
<path d="M54.7245 75H56.4142V73.3161H54.7245V75Z" fill="#231F20"/>
<path d="M51.3449 14.3681H53.0342V12.6837H51.3449V14.3681Z" fill="#707FA9"/>
<path d="M53.0342 14.3681H54.7239V12.6837H53.0342V14.3681Z" fill="#707FA9"/>
<path d="M49.6545 14.3681H51.3442V12.6837H49.6545V14.3681Z" fill="#707FA9"/>
<path d="M54.7245 14.3681H56.4142V12.6837H54.7245V14.3681Z" fill="#231F20"/>
<path d="M47.9653 14.3681H49.6551V12.6837H47.9653V14.3681Z" fill="#707FA9"/>
<path d="M44.587 14.3681H46.2763V12.6837H44.587V14.3681Z" fill="#707FA9"/>
<path d="M42.8966 14.3681H44.5863V12.6837H42.8966V14.3681Z" fill="#707FA9"/>
<path d="M46.2763 14.3681H47.9659V12.6837H46.2763V14.3681Z" fill="#707FA9"/>
<path d="M41.2062 14.3681H42.8959V12.6837H41.2062V14.3681Z" fill="#707FA9"/>
<path d="M39.517 14.3681H41.2068V12.6837H39.517V14.3681Z" fill="#707FA9"/>
<path d="M37.8279 14.3681H39.517V12.6837H37.8279V14.3681Z" fill="#707FA9"/>
<path d="M36.1387 14.3681H37.8285V12.6837H36.1387V14.3681Z" fill="#231F20"/>
<path d="M66.5511 73.3156H68.2409V71.6317H66.5511V73.3156Z" fill="#231F20"/>
<path d="M64.862 75H66.5517V73.3161H64.862V75Z" fill="#231F20"/>
<path d="M63.1715 75H64.8613V73.3161H63.1715V75Z" fill="#231F20"/>
<path d="M61.4824 75H63.1715V73.3161H61.4824V75Z" fill="#231F20"/>
<path d="M59.7932 75H61.483V73.3161H59.7932V75Z" fill="#231F20"/>
<path d="M66.5511 75H68.2409V73.3161H66.5511V75Z" fill="#231F20"/>
<path d="M58.1028 75H59.7921V73.3161H58.1028V75Z" fill="#231F20"/>
<path d="M46.2762 75H47.9659V73.3161H46.2762V75Z" fill="#231F20"/>
<path d="M44.587 73.3159V74.9998L46.2762 75L46.2763 73.3155L44.587 73.3159Z" fill="#231F20"/>
<path d="M56.4136 75H58.1034V73.3161H56.4136V75Z" fill="#231F20"/>
<path d="M47.9653 75H49.6551V73.3161H47.9653V75Z" fill="#231F20"/>
<path d="M42.8966 75H44.5863V73.3161H42.8966V75Z" fill="#231F20"/>
<path d="M41.2062 75H42.8959V73.3161H41.2062V75Z" fill="#231F20"/>
<path d="M53.0341 75H54.7239V73.3161H53.0341V75Z" fill="#231F20"/>
<path d="M51.3449 75H53.0341V73.3161H51.3449V75Z" fill="#231F20"/>
<path d="M49.6545 75H51.3442V73.3161H49.6545V75Z" fill="#231F20"/>
<path d="M36.1387 75H37.8285V73.3161H36.1387V75Z" fill="#231F20"/>
<path d="M32.7579 75H34.4476V73.3161H32.7579V75Z" fill="#231F20"/>
<path d="M37.8279 75H39.5172V73.3161H37.8279V75Z" fill="#231F20"/>
<path d="M34.4483 75H36.138V73.3161H34.4483V75Z" fill="#231F20"/>
<path d="M64.862 73.3156H66.5517V71.6317H64.862V73.3156Z" fill="#D46212"/>
<path d="M39.5172 75H41.2068V73.3161H39.5172V75Z" fill="#231F20"/>
<path d="M56.4136 73.3156H58.1034V71.6317H56.4136V73.3156Z" fill="#D46212"/>
<path d="M63.1715 73.3156H64.8613V71.6317H63.1715V73.3156Z" fill="#231F20"/>
<path d="M63.1715 71.6317H64.8613V69.9473L63.1717 69.9473L63.1715 71.6317Z" fill="#FBC707"/>
<path d="M36.1387 71.6317H37.8285V69.9473H36.1387V71.6317Z" fill="#FBC707"/>
<path d="M34.4483 71.6317H36.138V69.9474H34.4483V71.6317Z" fill="#231F20"/>
<path d="M37.8279 71.6317H39.5172V69.9473H37.8279V71.6317Z" fill="#FBC707"/>
<path d="M64.862 71.6317H66.5517V69.9473H64.862V71.6317Z" fill="#231F20"/>
<path d="M56.4136 71.6317H58.1034V69.9473H56.4136V71.6317Z" fill="#F79210"/>
<path d="M58.1028 71.6317H59.7921V69.9473H58.1028V71.6317Z" fill="#F79210"/>
<path d="M59.7932 71.6317H61.483V69.9473H59.7932V71.6317Z" fill="#F79210"/>
<path d="M39.5172 71.6317H41.2068V69.9473H39.5172V71.6317Z" fill="#F79210"/>
<path d="M66.5511 71.6317H68.2409V69.9473H66.5511V71.6317Z" fill="#231F20"/>
<path d="M61.4824 71.6317L63.1715 71.6317L63.1717 69.9473H61.4824L61.4824 71.6317Z" fill="#FBC707"/>
<path d="M46.2762 71.6317H47.9659V69.9473H46.2763L46.2762 71.6317Z" fill="#354053"/>
<path d="M42.8966 71.6317H44.5863L44.5863 69.9473H42.8966L42.8966 71.6317Z" fill="#F79210"/>
<path d="M44.587 69.9473V71.6317H46.2762L46.2763 69.9473H44.587Z" fill="#231F20"/>
<path d="M41.2062 71.6317H42.8959V69.9473H41.2062V71.6317Z" fill="#F79210"/>
<path d="M53.0341 71.6317H54.7239L54.7238 69.9473H53.0341L53.0341 71.6317Z" fill="#231F20"/>
<path d="M47.9653 71.6317H49.6551V69.9473H47.9653V71.6317Z" fill="#354053"/>
<path d="M51.3449 71.6317H53.0341L53.0341 69.9473H51.3449L51.3449 71.6317Z" fill="#354053"/>
<path d="M54.7245 71.6317H56.4142V69.9473H54.7245V71.6317Z" fill="#F79210"/>
<path d="M49.6545 71.6317H51.3442V69.9473H49.6545V71.6317Z" fill="#354053"/>
<path d="M58.1028 73.3156H59.7921V71.6317H58.1028V73.3156Z" fill="#D46212"/>
<path d="M46.2763 73.3155L47.9659 73.3156V71.6317H46.2762L46.2763 73.3155Z" fill="#231F20"/>
<path d="M51.3449 73.3156H53.0342L53.0341 71.6317H51.3449V73.3156Z" fill="#231F20"/>
<path d="M49.6545 73.3156H51.3442V71.6317H49.6545V73.3156Z" fill="#212A37"/>
<path d="M54.7245 73.3156H56.4142V71.6317H54.7245V73.3156Z" fill="#D46212"/>
<path d="M53.0342 73.3156H54.7239V71.6317H53.0341L53.0342 73.3156Z" fill="#D46212"/>
<path d="M61.4824 73.3156H63.1715V71.6317L61.4824 71.6317V73.3156Z" fill="#D46212"/>
<path d="M59.7932 73.3156H61.483V71.6317H59.7932V73.3156Z" fill="#231F20"/>
<path d="M34.4483 73.3161H36.138V71.6317H34.4483V73.3161Z" fill="#D46212"/>
<path d="M44.587 71.6317V73.3159L46.2763 73.3155L46.2762 71.6317H44.587Z" fill="#D46212"/>
<path d="M36.1387 73.3161H37.8285V71.6317H36.1387V73.3161Z" fill="#231F20"/>
<path d="M32.7579 73.3161H34.4476V71.6317H32.7579V73.3161Z" fill="#231F20"/>
<path d="M42.8966 73.3161H44.5863V71.6317H42.8966V73.3161Z" fill="#D46212"/>
<path d="M37.8279 73.3161H39.5172V71.6317H37.8279V73.3161Z" fill="#D46212"/>
<path d="M41.2062 73.3161H42.8959V71.6317H41.2062V73.3161Z" fill="#D46212"/>
<path d="M39.5172 73.3161H41.2068V71.6317H39.5172V73.3161Z" fill="#231F20"/>
<path d="M47.9653 73.3156H49.6551V71.6317H47.9653V73.3156Z" fill="#212A37"/>
<path d="M34.4483 16.0526H36.138L36.138 14.3681H34.4483L34.4483 16.0526Z" fill="#231F20"/>
<path d="M36.1387 16.0525H37.8285V14.3681H36.1387V16.0525Z" fill="#707FA9"/>
<path d="M37.8279 16.0525H39.5172L39.517 14.3681H37.8279V16.0525Z" fill="#54607B"/>
<path d="M41.2062 16.0525H42.8959V14.3681H41.2062V16.0525Z" fill="white"/>
<path d="M39.5172 16.0525H41.2068V14.3681H39.517L39.5172 16.0525Z" fill="white"/>
<path d="M53.0342 16.0526H54.7238L54.7239 14.3681H53.0342L53.0342 16.0526Z" fill="#54607B"/>
<path d="M54.7245 16.0525H56.4142V14.3681H54.7245V16.0525Z" fill="#707FA9"/>
<path d="M42.8966 16.0526H44.5863L44.5863 14.3681H42.8966L42.8966 16.0526Z" fill="white"/>
<path d="M56.4136 16.0525H58.1034V14.3681H56.4136V16.0525Z" fill="#231F20"/>
<path d="M51.3449 16.0526H53.0342L53.0342 14.3681H51.3449L51.3449 16.0526Z" fill="#54607B"/>
<path d="M44.587 16.0525H46.2762L46.2763 14.3681H44.587V16.0525Z" fill="white"/>
<path d="M49.6545 16.0525H51.3442V14.3681H49.6545V16.0525Z" fill="white"/>
<path d="M46.2762 16.0525H47.9659V14.3681H46.2763L46.2762 16.0525Z" fill="white"/>
<path d="M47.9653 16.0525H49.6551V14.3681H47.9653V16.0525Z" fill="white"/>
<path d="M47.9653 51.4211H49.6551V49.7368H47.9653V51.4211Z" fill="white"/>
<path d="M59.7932 36.2626H61.483V34.5787H59.7932V36.2626Z" fill="#54607B"/>
<path d="M59.7932 31.2105H61.483V29.5262H59.7932V31.2105Z" fill="#54607B"/>
<path d="M56.4136 31.2105H58.1034V29.5262H56.4136V31.2105Z" fill="#54607B"/>
<path d="M59.7932 32.8945H61.483V31.2105H59.7932V32.8945Z" fill="#54607B"/>
<path d="M59.7932 34.5793H61.483V32.8949H59.7932V34.5793Z" fill="#54607B"/>
<path d="M58.1028 31.2105H59.7921V29.5262H58.1028V31.2105Z" fill="#54607B"/>
<path d="M49.6545 31.2105H51.3442V29.5262H49.6545V31.2105Z" fill="white"/>
<path d="M54.7245 31.2105H56.4142V29.5262H54.7245V31.2105Z" fill="#54607B"/>
<path d="M51.3449 31.2105H53.0346V29.5262H51.3449V31.2105Z" fill="white"/>
<path d="M58.1028 32.8945H59.7921V31.2105H58.1028V32.8945Z" fill="#54607B"/>
<path d="M59.7932 41.3155H61.483V39.6312H59.7932V41.3155Z" fill="#54607B"/>
<path d="M59.7932 49.7363H61.483V48.0524H59.7932V49.7363Z" fill="#354053"/>
<path d="M59.7932 48.053H61.483V46.3687H59.7932V48.053Z" fill="#231F20"/>
<path d="M59.7932 37.9474H61.483V36.2631H59.7932V37.9474Z" fill="#707FA9"/>
<path d="M59.7932 51.4211H61.483V49.7368H59.7932V51.4211Z" fill="#54607B"/>
<path d="M59.7932 46.368H61.483V44.6837H59.7932V46.368Z" fill="#231F20"/>
<path d="M59.7932 53.1055H61.483V51.4211H59.7932V53.1055Z" fill="#54607B"/>
<path d="M47.9653 31.2105H49.6551V29.5262H47.9653V31.2105Z" fill="white"/>
<path d="M59.7932 44.6842H61.483V42.9999H59.7932V44.6842Z" fill="#231F20"/>
<path d="M59.7932 39.6318H61.483V37.9474H59.7932V39.6318Z" fill="#54607B"/>
<path d="M59.7932 42.9999H61.483V41.3162H59.7932V42.9999Z" fill="white"/>
<path d="M34.4483 41.3155H36.138V39.6312H34.4483V41.3155Z" fill="#231F20"/>
<path d="M34.4483 42.9995H36.138V41.3155H34.4483V42.9995Z" fill="#231F20"/>
<path d="M34.4483 44.6842H36.138V42.9999H34.4483V44.6842Z" fill="#231F20"/>
<path d="M34.4483 39.6318H36.138V37.9474H34.4483V39.6318Z" fill="#231F20"/>
<path d="M34.4483 37.9474H36.138V36.2631H34.4483V37.9474Z" fill="#231F20"/>
<path d="M34.4483 46.3686H36.138V44.6842H34.4483V46.3686Z" fill="#54607B"/>
<path d="M34.4483 49.7363H36.138V48.0524H34.4483V49.7363Z" fill="#54607B"/>
<path d="M34.4483 51.4211H36.138V49.7368H34.4483V51.4211Z" fill="#54607B"/>
<path d="M34.4483 48.053H36.138V46.3686H34.4483V48.053Z" fill="#54607B"/>
<path d="M59.7932 54.7888H61.483V53.1049H59.7932V54.7888Z" fill="#54607B"/>
<path d="M42.8966 31.2105H44.5863V29.5262H42.8966V31.2105Z" fill="white"/>
<path d="M46.2762 31.2105H47.9659V29.5262H46.2762V31.2105Z" fill="white"/>
<path d="M41.2062 31.2105H42.8959V29.5262H41.2062V31.2105Z" fill="white"/>
<path d="M44.587 31.2105H46.2762V29.5262H44.587V31.2105Z" fill="white"/>
<path d="M39.517 31.2105H41.2068V29.5262H39.517V31.2105Z" fill="white"/>
<path d="M34.4483 31.2105H36.138V29.5262H34.4483V31.2105Z" fill="#231F20"/>
<path d="M34.4483 32.8945H36.138V31.2105H34.4483V32.8945Z" fill="#231F20"/>
<path d="M37.8279 31.2105H39.517V29.5262H37.8279V31.2105Z" fill="#54607B"/>
<path d="M36.1387 31.2105H37.8285V29.5262H36.1387V31.2105Z" fill="#54607B"/>
<path d="M36.1387 54.7892H37.8285V53.1049H36.1387V54.7892Z" fill="white"/>
<path d="M36.1387 34.5793H37.8285V32.8949H36.1387V34.5793Z" fill="#231F20"/>
<path d="M36.1387 32.8945H37.8285V31.2105H36.1387V32.8945Z" fill="#54607B"/>
<path d="M39.517 32.8945H41.2068V31.2105H39.517V32.8945Z" fill="white"/>
<path d="M37.8279 32.8945H39.517V31.2105H37.8279V32.8945Z" fill="#54607B"/>
<path d="M36.1387 36.2626H37.8285V34.5787H36.1387V36.2626Z" fill="#231F20"/>
<path d="M36.1387 43.0001H37.8285V41.3162H36.1387V43.0001Z" fill="#54607B"/>
<path d="M41.2062 32.8945H42.8959V31.2105H41.2062V32.8945Z" fill="white"/>
<path d="M36.1387 44.6842H37.8285V43.0001H36.1387V44.6842Z" fill="#54607B"/>
<path d="M36.1387 39.6318H37.8285V37.9474H36.1387V39.6318Z" fill="#54607B"/>
<path d="M36.1387 37.9474H37.8285V36.2631H36.1387V37.9474Z" fill="#54607B"/>
<path d="M36.1387 41.3155H37.8285V39.6312H36.1387V41.3155Z" fill="#54607B"/>
<path d="M51.3449 32.8945H53.0346V31.2105H51.3449V32.8945Z" fill="white"/>
<path d="M59.7932 56.4736H61.483V54.7893H59.7932V56.4736Z" fill="#54607B"/>
<path d="M42.8966 32.8945H44.5863V31.2105H42.8966V32.8945Z" fill="white"/>
<path d="M56.4136 32.8945H58.1034V31.2105H56.4136V32.8945Z" fill="#54607B"/>
<path d="M53.0341 32.8945H54.7239V31.2106H53.0341V32.8945Z" fill="white"/>
<path d="M49.6545 32.8945H51.3442V31.2105H49.6545V32.8945Z" fill="white"/>
<path d="M44.587 32.8945H46.2763L46.2762 31.2105H44.587V32.8945Z" fill="white"/>
<path d="M46.2763 32.8945H47.9659V31.2105H46.2762L46.2763 32.8945Z" fill="white"/>
<path d="M47.9653 32.8945H49.6551V31.2105H47.9653V32.8945Z" fill="white"/>
<path d="M54.7245 32.8945H56.4142V31.2105H54.7245V32.8945Z" fill="#54607B"/>
<path d="M49.6545 56.4736H51.3442V54.7893H49.6545V56.4736Z" fill="white"/>
<path d="M51.3449 56.4736H53.0342V54.7893H51.3449V56.4736Z" fill="white"/>
<path d="M42.8966 56.4738H44.5863V54.7899H42.8966V56.4738Z" fill="white"/>
<path d="M44.587 54.7897V56.4736H46.2763V54.7893L44.587 54.7897Z" fill="white"/>
<path d="M46.2763 56.4736H47.9659V54.7893H46.2763V56.4736Z" fill="white"/>
<path d="M36.1387 46.368H37.8285V44.6837H36.1387V46.368Z" fill="white"/>
<path d="M58.1028 56.4736H59.7921V54.7893H58.1028V56.4736Z" fill="#54607B"/>
<path d="M53.0342 56.4736H54.7239V54.7893H53.0342V56.4736Z" fill="white"/>
<path d="M56.4136 56.4736H58.1034V54.7893H56.4136V56.4736Z" fill="white"/>
<path d="M54.7245 56.4736H56.4142V54.7893H54.7245V56.4736Z" fill="white"/>
<path d="M47.9653 56.4736H49.6551V54.7893H47.9653V56.4736Z" fill="white"/>
<path d="M36.1387 49.7363H37.8285V48.0524H36.1387V49.7363Z" fill="white"/>
<path d="M36.1387 51.4211H37.8285V49.7368H36.1387V51.4211Z" fill="white"/>
<path d="M36.1387 48.053H37.8285V46.3687H36.1387V48.053Z" fill="white"/>
<path d="M36.1387 53.1055H37.8285V51.4211H36.1387V53.1055Z" fill="white"/>
<path d="M37.8279 56.4738H39.5172V54.7899H37.8279V56.4738Z" fill="white"/>
<path d="M39.5172 56.4738H41.2068V54.7899H39.5172V56.4738Z" fill="white"/>
<path d="M34.4483 53.1055H36.138V51.4211H34.4483V53.1055Z" fill="#54607B"/>
<path d="M41.2062 56.4738H42.8959V54.7899H41.2062V56.4738Z" fill="white"/>
<path d="M37.8279 54.7892H39.5172V53.1049H37.8279V54.7892Z" fill="white"/>
<path d="M53.0341 31.2106H54.7239V29.5262H53.0341V31.2106Z" fill="#54607B"/>
<path d="M32.7579 29.5262H34.4476V27.8418H32.7579V29.5262Z" fill="#231F20"/>
<path d="M32.7591 44.6842H34.4488V42.9999H32.7591V44.6842Z" fill="white"/>
<path d="M32.7579 43.0001H34.4476V41.3162H32.7579V43.0001Z" fill="#707FA9"/>
<path d="M32.7579 41.3155H34.4476V39.6312H32.7579V41.3155Z" fill="#231F20"/>
<path d="M47.9653 29.5262H49.6551V27.8418H47.9653V29.5262Z" fill="white"/>
<path d="M42.8966 29.5262H44.5863V27.8418H42.8966V29.5262Z" fill="white"/>
<path d="M46.2762 29.5262H47.9659V27.8418H46.2762V29.5262Z" fill="white"/>
<path d="M44.587 29.5262H46.2762V27.8418H44.587V29.5262Z" fill="white"/>
<path d="M32.7579 46.368H34.4476V44.6837H32.7579V46.368Z" fill="#231F20"/>
<path d="M39.517 29.5262H41.2068V27.8418H39.517V29.5262Z" fill="white"/>
<path d="M37.8279 29.5262H39.517V27.8418H37.8279V29.5262Z" fill="white"/>
<path d="M49.6545 29.5262H51.3442V27.8418H49.6545V29.5262Z" fill="white"/>
<path d="M41.2062 29.5262H42.8959V27.8418H41.2062V29.5262Z" fill="white"/>
<path d="M34.4483 29.5262H36.138V27.8418H34.4483V29.5262Z" fill="#54607B"/>
<path d="M36.1387 29.5262H37.8285V27.8418H36.1387V29.5262Z" fill="#354053"/>
<path d="M44.587 58.158V59.8423H46.2763V58.158H44.587Z" fill="white"/>
<path d="M42.8966 59.8423H44.5863V58.158H42.8966V59.8423Z" fill="white"/>
<path d="M41.2062 59.8423H42.8959V58.158H41.2062V59.8423Z" fill="white"/>
<path d="M46.2763 59.8423H47.9659V58.158H46.2763V59.8423Z" fill="white"/>
<path d="M37.8279 59.8423H39.5172V58.158H37.8279V59.8423Z" fill="white"/>
<path d="M39.5172 59.8423H41.2068V58.158H39.5172V59.8423Z" fill="white"/>
<path d="M47.9653 59.8423H49.6551V58.158H47.9653V59.8423Z" fill="white"/>
<path d="M51.3449 59.8423H53.0342V58.158H51.3449V59.8423Z" fill="white"/>
<path d="M53.0342 59.8423H54.7239V58.158H53.0342V59.8423Z" fill="white"/>
<path d="M49.6545 59.8423H51.3442V58.158H49.6545V59.8423Z" fill="white"/>
<path d="M34.4483 59.8423H36.138V58.158H34.4483V59.8423Z" fill="#54607B"/>
<path d="M32.7579 53.1055H34.4476V51.4211H32.7579V53.1055Z" fill="#231F20"/>
<path d="M32.7579 51.4211H34.4476V49.7368H32.7579V51.4211Z" fill="#231F20"/>
<path d="M32.7579 54.7892H34.4476V53.1049H32.7579V54.7892Z" fill="#231F20"/>
<path d="M32.7579 49.7363H34.4476V48.0524H32.7579V49.7363Z" fill="#231F20"/>
<path d="M36.1387 59.8423H37.8285V58.158H36.1387V59.8423Z" fill="#D2CFCD"/>
<path d="M32.7579 56.4738H34.4476V54.7899H32.7579V56.4738Z" fill="#231F20"/>
<path d="M32.7579 48.053H34.4476V46.3687H32.7579V48.053Z" fill="#231F20"/>
<path d="M34.4483 58.158H36.138V56.4736H34.4483V58.158Z" fill="#54607B"/>
<path d="M32.7579 58.158H34.4476V56.4738H32.7579V58.158Z" fill="#231F20"/>
<path d="M58.1028 58.158H59.7921V56.4736H58.1028V58.158Z" fill="#54607B"/>
<path d="M47.9653 58.158H49.6551V56.4736H47.9653V58.158Z" fill="white"/>
<path d="M53.0342 58.158H54.7239V56.4736H53.0342V58.158Z" fill="white"/>
<path d="M56.4136 58.158H58.1034V56.4736H56.4136V58.158Z" fill="white"/>
<path d="M49.6545 58.158H51.3442V56.4736H49.6545V58.158Z" fill="white"/>
<path d="M51.3449 58.158H53.0342V56.4736H51.3449V58.158Z" fill="white"/>
<path d="M54.7245 58.158H56.4142V56.4736H54.7245V58.158Z" fill="white"/>
<path d="M61.4824 58.158H63.1717V56.4736H61.4824V58.158Z" fill="#54607B"/>
<path d="M61.4824 56.4736H63.1717V54.7893H61.4824V56.4736Z" fill="#54607B"/>
<path d="M59.7932 58.158H61.483V56.4736H59.7932V58.158Z" fill="#54607B"/>
<path d="M34.4483 54.7898H36.138V53.1055H34.4483V54.7898Z" fill="#54607B"/>
<path d="M61.4824 54.7893H63.1717V53.1055H61.4824V54.7893Z" fill="#54607B"/>
<path d="M37.8279 58.158H39.5172V56.4738H37.8279V58.158Z" fill="white"/>
<path d="M36.1387 56.4738H37.8285V54.7899H36.1387V56.4738Z" fill="white"/>
<path d="M36.1387 58.158H37.8285V56.4738H36.1387V58.158Z" fill="white"/>
<path d="M34.4483 56.4736H36.138V54.7898H34.4483V56.4736Z" fill="#54607B"/>
<path d="M46.2763 58.158H47.9659V56.4736H46.2763V58.158Z" fill="white"/>
<path d="M39.5172 58.158H41.2068V56.4738H39.5172V58.158Z" fill="white"/>
<path d="M44.587 56.4736V58.158H46.2763V56.4736H44.587Z" fill="white"/>
<path d="M42.8966 58.158H44.5863V56.4738H42.8966V58.158Z" fill="white"/>
<path d="M41.2062 58.158H42.8959V56.4738H41.2062V58.158Z" fill="white"/>
<path d="M51.3449 29.5262H53.0341L53.0342 27.8418H51.3449V29.5262Z" fill="white"/>
<path d="M61.4824 31.2105H63.1717V29.5262H61.4824V31.2105Z" fill="#54607B"/>
<path d="M59.7932 29.5262H61.483V27.8418H59.7932V29.5262Z" fill="#54607B"/>
<path d="M61.4824 29.5262H63.1717V27.8418H61.4824V29.5262Z" fill="#54607B"/>
<path d="M61.4824 34.5786H63.1717V32.8943H61.4824V34.5786Z" fill="#54607B"/>
<path d="M61.4824 53.1055H63.1717V51.4211H61.4824V53.1055Z" fill="#354053"/>
<path d="M53.0341 29.5262H54.7239V27.8418H53.0342L53.0341 29.5262Z" fill="#54607B"/>
<path d="M61.4824 36.2626H63.1717V34.5786H61.4824V36.2626Z" fill="#54607B"/>
<path d="M54.7245 29.5262H56.4142V27.8418H54.7245V29.5262Z" fill="#54607B"/>
<path d="M56.4136 29.5262H58.1034V27.8418H56.4136V29.5262Z" fill="#54607B"/>
<path d="M58.1028 29.5262H59.7921V27.8418H58.1028V29.5262Z" fill="#54607B"/>
<path d="M61.4824 32.8943H63.1717V31.2105H61.4824V32.8943Z" fill="#54607B"/>
<path d="M61.4824 49.7363H63.1717V48.0524H61.4824V49.7363Z" fill="#231F20"/>
<path d="M61.4824 48.053H63.1717V46.3687H61.4824V48.053Z" fill="white"/>
<path d="M61.4824 51.4211H63.1717V49.7368H61.4824V51.4211Z" fill="#231F20"/>
<path d="M61.4824 37.9474H63.1717V36.2631H61.4824V37.9474Z" fill="#231F20"/>
<path d="M61.4824 46.3687H63.1717V44.6843H61.4824V46.3687Z" fill="white"/>
<path d="M61.4824 39.6318H63.1717V37.9474H61.4824V39.6318Z" fill="#707FA9"/>
<path d="M61.4824 44.6843H63.1717V42.9999H61.4824V44.6843Z" fill="white"/>
<path d="M61.4824 41.3155H63.1717V39.6312H61.4824V41.3155Z" fill="#54607B"/>
<path d="M61.4824 42.9995H63.1717V41.3155H61.4824V42.9995Z" fill="#54607B"/>
<path d="M49.6545 46.368H51.3442V44.6837H49.6545V46.368Z" fill="white"/>
<path d="M41.2062 37.9474H42.8959V36.2631H41.2062V37.9474Z" fill="white"/>
<path d="M41.2062 39.6318H42.8959V37.9474H41.2062V39.6318Z" fill="white"/>
<path d="M41.2062 49.7363H42.8959V48.0524H41.2062V49.7363Z" fill="white"/>
<path d="M42.8966 37.9474H44.5863V36.2631H42.8966V37.9474Z" fill="white"/>
<path d="M44.587 37.9474H46.2763V36.2631H44.587V37.9474Z" fill="white"/>
<path d="M41.2062 41.3155H42.8959V39.6312H41.2062V41.3155Z" fill="white"/>
<path d="M41.2062 43.0001H42.8959V41.3162H41.2062V43.0001Z" fill="white"/>
<path d="M41.2062 46.368H42.8959V44.6837H41.2062V46.368Z" fill="white"/>
<path d="M41.2062 48.053H42.8959V46.3687H41.2062V48.053Z" fill="white"/>
<path d="M41.2062 44.6842H42.8959V43.0001H41.2062V44.6842Z" fill="white"/>
<path d="M46.2763 37.9474H47.9659V36.2631H46.2763V37.9474Z" fill="white"/>
<path d="M53.0341 42.9995H54.7239V41.3155H53.0341V42.9995Z" fill="white"/>
<path d="M47.9653 37.9474H49.6551V36.2631H47.9653V37.9474Z" fill="white"/>
<path d="M53.0341 44.6842H54.7239V42.9999H53.0341V44.6842Z" fill="white"/>
<path d="M53.0341 48.053H54.7239V46.3687H53.0341V48.053Z" fill="white"/>
<path d="M53.0341 46.3687H54.7239V44.6842H53.0341V46.3687Z" fill="white"/>
<path d="M53.0341 41.3155H54.7239V39.6312H53.0341V41.3155Z" fill="white"/>
<path d="M49.6545 37.9474H51.3442V36.2631H49.6545V37.9474Z" fill="white"/>
<path d="M51.3449 37.9474H53.0346V36.2631H51.3449V37.9474Z" fill="white"/>
<path d="M53.0341 37.9474H54.7239V36.2631H53.0341V37.9474Z" fill="white"/>
<path d="M53.0341 39.6318H54.7239V37.9474H53.0341V39.6318Z" fill="white"/>
<path d="M54.7245 46.368H56.4142V44.6837H54.7245V46.368Z" fill="white"/>
<path d="M54.7245 43.0001H56.4142V41.3162H54.7245V43.0001Z" fill="white"/>
<path d="M54.7245 41.3155H56.4142V39.6312H54.7245V41.3155Z" fill="white"/>
<path d="M54.7245 44.6842H56.4142V43.0001H54.7245V44.6842Z" fill="white"/>
<path d="M54.7245 39.6318H56.4142V37.9474H54.7245V39.6318Z" fill="white"/>
<path d="M53.0341 49.7363H54.7239V48.0524H53.0341V49.7363Z" fill="white"/>
<path d="M42.8966 49.7363H44.5863V48.0524H42.8966V49.7363Z" fill="white"/>
<path d="M58.1028 34.5793H59.7921V32.8949H58.1028V34.5793Z" fill="#54607B"/>
<path d="M54.7245 37.9474H56.4142V36.2631H54.7245V37.9474Z" fill="white"/>
<path d="M53.0341 36.2626H54.7239V34.5787H53.0341V36.2626Z" fill="white"/>
<path d="M54.7245 36.2626H56.4142V34.5787H54.7245V36.2626Z" fill="white"/>
<path d="M51.3449 36.2626H53.0346V34.5787H51.3449V36.2626Z" fill="white"/>
<path d="M46.2762 51.4211H47.9659V49.7368H46.2762V51.4211Z" fill="white"/>
<path d="M44.587 49.7368V51.4211H46.2762V49.7368H44.587Z" fill="white"/>
<path d="M42.8966 51.4211H44.5863V49.7368H42.8966V51.4211Z" fill="white"/>
<path d="M54.7245 49.7363H56.4142V48.0524H54.7245V49.7363Z" fill="white"/>
<path d="M53.0341 51.4211H54.7239V49.7368H53.0341V51.4211Z" fill="white"/>
<path d="M54.7245 51.4211H56.4142V49.7368H54.7245V51.4211Z" fill="white"/>
<path d="M51.3449 51.4211H53.0341V49.7368H51.3449V51.4211Z" fill="white"/>
<path d="M49.6545 51.4211H51.3442V49.7368H49.6545V51.4211Z" fill="white"/>
<path d="M51.3449 49.7363H53.0341V48.0524H51.3449V49.7363Z" fill="white"/>
<path d="M44.587 44.6842H46.2763V42.9999H44.587V44.6842Z" fill="white"/>
<path d="M44.587 42.9999H46.2763V41.3162H44.587V42.9999Z" fill="white"/>
<path d="M49.6545 36.2626H51.3442V34.5787H49.6545V36.2626Z" fill="white"/>
<path d="M44.587 41.3155H46.2763V39.6312H44.587V41.3155Z" fill="white"/>
<path d="M44.587 46.368H46.2763V44.6837H44.587V46.368Z" fill="white"/>
<path d="M47.9653 41.3155H49.6551V39.6312H47.9653V41.3155Z" fill="white"/>
<path d="M49.6545 48.053H51.3442V46.3687H49.6545V48.053Z" fill="white"/>
<path d="M51.3449 48.053H53.0341V46.3687H51.3449V48.053Z" fill="white"/>
<path d="M47.9653 48.053H49.6551V46.3687H47.9653V48.053Z" fill="white"/>
<path d="M46.2762 48.053H47.9659V46.3687H46.2762V48.053Z" fill="white"/>
<path d="M46.2763 46.368H47.9659V44.6837H46.2763V46.368Z" fill="white"/>
<path d="M47.9653 44.6842H49.6551V42.9999H47.9653V44.6842Z" fill="white"/>
<path d="M46.2763 44.6842H47.9659V42.9999H46.2763V44.6842Z" fill="white"/>
<path d="M46.2763 42.9999H47.9659V41.3162H46.2763V42.9999Z" fill="white"/>
<path d="M47.9653 42.9999H49.6551V41.3162H47.9653V42.9999Z" fill="white"/>
<path d="M49.6545 41.3155H51.3442V39.6312H49.6545V41.3155Z" fill="white"/>
<path d="M49.6545 44.6842H51.3442V42.9999H49.6545V44.6842Z" fill="white"/>
<path d="M47.9653 46.368H49.6551V44.6837H47.9653V46.368Z" fill="white"/>
<path d="M49.6545 42.9999H51.3442V41.3162H49.6545V42.9999Z" fill="white"/>
<path d="M54.7245 59.8423H56.4142V58.158H54.7245V59.8423Z" fill="white"/>
<path d="M46.2763 41.3155H47.9659V39.6312H46.2763V41.3155Z" fill="white"/>
<path d="M42.8966 46.3686H44.5863V44.6843H42.8966V46.3686Z" fill="white"/>
<path d="M44.587 48.053H46.2762V46.3687H44.587V48.053Z" fill="white"/>
<path d="M42.8966 48.053H44.5863V46.3686H42.8966V48.053Z" fill="white"/>
<path d="M42.8966 44.6843H44.5863V42.9999H42.8966V44.6843Z" fill="white"/>
<path d="M42.8966 42.9995H44.5863V41.3155H42.8966V42.9995Z" fill="white"/>
<path d="M44.587 49.7363H46.2763V48.0524H44.587V49.7363Z" fill="white"/>
<path d="M47.9653 49.7363H49.6551V48.0524H47.9653V49.7363Z" fill="white"/>
<path d="M49.6545 49.7363H51.3442V48.0524H49.6545V49.7363Z" fill="white"/>
<path d="M42.8966 41.3155H44.5863V39.6312H42.8966V41.3155Z" fill="white"/>
<path d="M46.2763 49.7363H47.9659V48.0524H46.2763V49.7363Z" fill="white"/>
<path d="M47.9653 39.6318H49.6551V37.9474H47.9653V39.6318Z" fill="white"/>
<path d="M51.3449 39.6318H53.0346V37.9474H51.3449V39.6318Z" fill="white"/>
<path d="M51.3449 42.9995H53.0341V41.3155H51.3449V42.9995Z" fill="white"/>
<path d="M51.3449 41.3155H53.0341V39.6312H51.3449V41.3155Z" fill="white"/>
<path d="M51.3449 44.6842H53.0341V42.9999H51.3449V44.6842Z" fill="white"/>
<path d="M46.2762 39.6318H47.9659V37.9474H46.2763L46.2762 39.6318Z" fill="white"/>
<path d="M44.587 39.6318H46.2762L46.2763 37.9474H44.587V39.6318Z" fill="white"/>
<path d="M42.8966 39.6318H44.5863V37.9474H42.8966V39.6318Z" fill="white"/>
<path d="M49.6545 39.6318H51.3442V37.9474H49.6545V39.6318Z" fill="white"/>
<path d="M51.3449 46.3687H53.0341V44.6842H51.3449V46.3687Z" fill="white"/>
<path d="M54.7245 48.053H56.4142V46.3687H54.7245V48.053Z" fill="white"/>
<path d="M37.8279 49.7363H39.5172V48.0524H37.8279V49.7363Z" fill="white"/>
<path d="M37.8279 48.053H39.5172V46.3687H37.8279V48.053Z" fill="white"/>
<path d="M37.8279 51.4211H39.5172V49.7368H37.8279V51.4211Z" fill="white"/>
<path d="M37.8279 46.368H39.5172V44.6837H37.8279V46.368Z" fill="white"/>
<path d="M37.8279 44.6842H39.5172V42.9999H37.8279V44.6842Z" fill="white"/>
<path d="M39.5172 54.7892H41.2068V53.1049H39.5172V54.7892Z" fill="white"/>
<path d="M37.8279 53.1055H39.5172V51.4211H37.8279V53.1055Z" fill="white"/>
<path d="M37.8279 42.9999H39.5172V41.3162H37.8279V42.9999Z" fill="white"/>
<path d="M41.2062 54.7892H42.8959V53.1049H41.2062V54.7892Z" fill="white"/>
<path d="M39.5172 53.1055H41.2068V51.4211L39.5172 51.4211V53.1055Z" fill="white"/>
<path d="M41.2062 34.5793H42.8959V32.8949H41.2062V34.5793Z" fill="white"/>
<path d="M42.8966 54.7899H44.5863V53.1055H42.8966V54.7899Z" fill="white"/>
<path d="M42.8966 34.5786H44.5863V32.8945H42.8966V34.5786Z" fill="white"/>
<path d="M44.587 34.5793H46.2763V32.8949H44.587V34.5793Z" fill="white"/>
<path d="M39.517 34.5793H41.2068V32.8949H39.517V34.5793Z" fill="white"/>
<path d="M37.8279 36.2626H39.5172V34.5787H37.8279V36.2626Z" fill="#54607B"/>
<path d="M37.8279 34.5793H39.517V32.8949H37.8279V34.5793Z" fill="#54607B"/>
<path d="M37.8279 37.9474H39.5172V36.2631H37.8279V37.9474Z" fill="#54607B"/>
<path d="M37.8279 39.6318H39.5172V37.9474H37.8279V39.6318Z" fill="white"/>
<path d="M37.8279 41.3155H39.5172V39.6312H37.8279V41.3155Z" fill="white"/>
<path d="M44.587 53.1049V54.7892L46.2763 54.7888V53.1049H44.587Z" fill="white"/>
<path d="M58.1028 44.6842H59.7921V42.9999H58.1028V44.6842Z" fill="#354053"/>
<path d="M58.1028 42.9999H59.7921V41.3162H58.1028V42.9999Z" fill="#231F20"/>
<path d="M58.1028 46.368H59.7921V44.6837H58.1028V46.368Z" fill="#354053"/>
<path d="M58.1028 48.053H59.7921V46.3687H58.1028V48.053Z" fill="#54607B"/>
<path d="M46.2763 34.5793H47.9659V32.8949H46.2763V34.5793Z" fill="white"/>
<path d="M58.1028 39.6318H59.7921V37.9474H58.1028V39.6318Z" fill="#54607B"/>
<path d="M58.1028 41.3155H59.7921V39.6312H58.1028V41.3155Z" fill="#231F20"/>
<path d="M58.1028 37.9474H59.7921V36.2631H58.1028V37.9474Z" fill="#54607B"/>
<path d="M58.1028 36.2626H59.7921V34.5787H58.1028V36.2626Z" fill="#54607B"/>
<path d="M58.1028 51.4211H59.7921V49.7368H58.1028V51.4211Z" fill="#54607B"/>
<path d="M58.1028 49.7363H59.7921V48.0524H58.1028V49.7363Z" fill="#54607B"/>
<path d="M49.6545 54.7888H51.3442V53.1049H49.6545V54.7888Z" fill="white"/>
<path d="M47.9653 54.7888H49.6551V53.1049H47.9653V54.7888Z" fill="white"/>
<path d="M51.3449 54.7893H53.0342V53.1055H51.3449V54.7893Z" fill="white"/>
<path d="M58.1028 53.1055H59.7921V51.4211H58.1028V53.1055Z" fill="#54607B"/>
<path d="M46.2763 54.7888H47.9659V53.1049H46.2763V54.7888Z" fill="white"/>
<path d="M56.4136 54.7888H58.1034V53.1049H56.4136V54.7888Z" fill="white"/>
<path d="M58.1028 54.7888H59.7921V53.1049H58.1028V54.7888Z" fill="#54607B"/>
<path d="M53.0342 54.7893H54.7239V53.1055H53.0342V54.7893Z" fill="white"/>
<path d="M54.7245 54.7888H56.4142V53.1049H54.7245V54.7888Z" fill="white"/>
<path d="M39.5172 49.7363H41.2068V48.0524H39.5172V49.7363Z" fill="white"/>
<path d="M41.2062 51.4211H42.8959V49.7368H41.2062V51.4211Z" fill="white"/>
<path d="M47.9653 34.5793H49.6551V32.8949H47.9653V34.5793Z" fill="white"/>
<path d="M47.9653 36.2626H49.6551V34.5787H47.9653V36.2626Z" fill="white"/>
<path d="M39.5172 48.053H41.2068V46.3687H39.5172V48.053Z" fill="white"/>
<path d="M39.5172 46.368H41.2068V44.6837H39.5172V46.368Z" fill="white"/>
<path d="M42.8966 53.1055H44.5863V51.4211H42.8966V53.1055Z" fill="white"/>
<path d="M44.587 51.4211V53.1055H46.2763L46.2762 51.4211H44.587Z" fill="white"/>
<path d="M46.2763 53.1055H47.9659V51.4211H46.2762L46.2763 53.1055Z" fill="white"/>
<path d="M41.2062 53.1055H42.8959V51.4211H41.2062V53.1055Z" fill="white"/>
<path d="M39.5172 44.6842H41.2068V42.9999H39.5172V44.6842Z" fill="white"/>
<path d="M39.5172 41.3155H41.2068V39.6312H39.5172V41.3155Z" fill="white"/>
<path d="M39.5172 42.9999H41.2068V41.3162H39.5172V42.9999Z" fill="white"/>
<path d="M42.8966 36.2626H44.5863V34.5786H42.8966V36.2626Z" fill="white"/>
<path d="M44.587 36.2626H46.2763V34.5787H44.587V36.2626Z" fill="white"/>
<path d="M46.2763 36.2626H47.9659V34.5787H46.2763V36.2626Z" fill="white"/>
<path d="M41.2062 36.2626H42.8959V34.5787H41.2062V36.2626Z" fill="white"/>
<path d="M39.5172 39.6318H41.2068V37.9474L39.5172 37.9474V39.6318Z" fill="white"/>
<path d="M47.9653 53.1055H49.6551V51.4211H47.9653V53.1055Z" fill="white"/>
<path d="M39.5172 36.2626H41.2068V34.5787H39.5172V36.2626Z" fill="white"/>
<path d="M39.5172 37.9474L41.2068 37.9474V36.2631H39.5172V37.9474Z" fill="white"/>
<path d="M39.5172 51.4211L41.2068 51.4211V49.7368H39.5172V51.4211Z" fill="white"/>
<path d="M56.4136 37.9474H58.1034V36.2631H56.4136V37.9474Z" fill="#54607B"/>
<path d="M56.4136 36.2626H58.1034V34.5787H56.4136V36.2626Z" fill="#54607B"/>
<path d="M56.4136 41.3155H58.1034V39.6312H56.4136V41.3155Z" fill="#54607B"/>
<path d="M56.4136 39.6318H58.1034V37.9474H56.4136V39.6318Z" fill="#54607B"/>
<path d="M56.4136 34.5793H58.1034V32.8949H56.4136V34.5793Z" fill="#54607B"/>
<path d="M49.6545 53.1055H51.3442V51.4211H49.6545V53.1055Z" fill="white"/>
<path d="M49.6545 34.5793H51.3442V32.8949H49.6545V34.5793Z" fill="white"/>
<path d="M51.3449 34.5787H53.0346V32.8945H51.3449V34.5787Z" fill="white"/>
<path d="M54.7245 34.5793H56.4142V32.8949H54.7245V34.5793Z" fill="#54607B"/>
<path d="M53.0341 34.5787H54.7239V32.8945H53.0341V34.5787Z" fill="white"/>
<path d="M56.4136 43.0001H58.1034V41.3162H56.4136V43.0001Z" fill="#54607B"/>
<path d="M54.7245 53.1055H56.4142V51.4211H54.7245V53.1055Z" fill="white"/>
<path d="M53.0342 53.1055H54.7239V51.4211H53.0341L53.0342 53.1055Z" fill="white"/>
<path d="M56.4136 53.1055H58.1034V51.4211H56.4136V53.1055Z" fill="white"/>
<path d="M56.4136 44.6842H58.1034V43.0001H56.4136V44.6842Z" fill="#54607B"/>
<path d="M51.3449 53.1055H53.0342L53.0341 51.4211H51.3449V53.1055Z" fill="white"/>
<path d="M56.4136 48.053H58.1034V46.3687H56.4136V48.053Z" fill="white"/>
<path d="M56.4136 51.4211H58.1034V49.7368H56.4136V51.4211Z" fill="white"/>
<path d="M56.4136 46.368H58.1034V44.6837H56.4136V46.368Z" fill="#54607B"/>
<path d="M56.4136 49.7363H58.1034V48.0524H56.4136V49.7363Z" fill="white"/>
<path d="M53.0342 64.8949H54.7239V63.2105H53.0341L53.0342 64.8949Z" fill="#D2CFCD"/>
<path d="M27.6904 24.4737H29.3802V22.7893H27.6904V24.4737Z" fill="#FABC09"/>
<path d="M27.6904 26.1576H29.3802V24.4737H27.6904V26.1576Z" fill="#231F20"/>
<path d="M29.3796 24.4737H31.0693V22.7893H29.3796V24.4737Z" fill="#F79210"/>
<path d="M31.0687 24.4737H32.7581V22.7893H31.0687V24.4737Z" fill="#F79210"/>
<path d="M41.2062 64.8949H42.8959V63.2105H41.2062V64.8949Z" fill="#D2CFCD"/>
<path d="M37.8279 64.8949H39.517L39.5172 63.2105H37.8279V64.8949Z" fill="#354053"/>
<path d="M36.1387 64.8949H37.8285V63.2105H36.1387V64.8949Z" fill="#231F20"/>
<path d="M39.517 64.8949H41.2068V63.2105H39.5172L39.517 64.8949Z" fill="#D2CFCD"/>
<path d="M44.587 64.8949H46.2762L46.2763 63.2105H44.587V64.8949Z" fill="white"/>
<path d="M49.6545 64.8949H51.3442V63.2105H49.6545V64.8949Z" fill="white"/>
<path d="M46.2762 64.8949H47.9659V63.2105H46.2763L46.2762 64.8949Z" fill="white"/>
<path d="M51.3449 64.8949H53.0342L53.0341 63.2105H51.3449V64.8949Z" fill="white"/>
<path d="M47.9653 64.8949H49.6551V63.2105H47.9653V64.8949Z" fill="white"/>
<path d="M42.8966 64.8949H44.5863V63.2105H42.8966V64.8949Z" fill="white"/>
<path d="M32.7591 24.4737H34.4488V22.7893H32.7591V24.4737Z" fill="#F79210"/>
<path d="M66.5511 44.6842H68.2409V42.9999H66.5511V44.6842Z" fill="#707FA9"/>
<path d="M66.5511 42.9999H68.2409V41.3162H66.5511V42.9999Z" fill="#231F20"/>
<path d="M66.5511 58.158H68.2409V56.4736H66.5511V58.158Z" fill="white"/>
<path d="M66.5511 56.4736H68.2409V54.7893H66.5511V56.4736Z" fill="white"/>
<path d="M66.5511 54.7888H68.2409V53.1049H66.5511V54.7888Z" fill="#54607B"/>
<path d="M66.5511 59.8423H68.2409V58.158H66.5511V59.8423Z" fill="#231F20"/>
<path d="M56.4136 59.8423H58.1034V58.158H56.4136V59.8423Z" fill="#D2CFCD"/>
<path d="M66.5511 48.053H68.2409V46.3687H66.5511V48.053Z" fill="#54607B"/>
<path d="M66.5511 49.7363H68.2409V48.0524H66.5511V49.7363Z" fill="#54607B"/>
<path d="M66.5511 53.1055H68.2409V51.4211H66.5511V53.1055Z" fill="#54607B"/>
<path d="M66.5511 46.368H68.2409V44.6837H66.5511V46.368Z" fill="#54607B"/>
<path d="M54.7245 24.4737H56.4142V22.7893H54.7245V24.4737Z" fill="#54607B"/>
<path d="M42.8966 24.4737H44.5863V22.7893H42.8966V24.4737Z" fill="#F79210"/>
<path d="M51.3449 24.4737H53.0342V22.7893H51.3449V24.4737Z" fill="#54607B"/>
<path d="M44.587 24.4737H46.2763V22.7893H44.587V24.4737Z" fill="#F79210"/>
<path d="M47.9653 24.4737H49.6551V22.7893H47.9653V24.4737Z" fill="#54607B"/>
<path d="M49.6545 24.4737H51.3442V22.7893H49.6545V24.4737Z" fill="#54607B"/>
<path d="M46.2763 24.4737H47.9659V22.7893H46.2763V24.4737Z" fill="#231F20"/>
<path d="M37.8279 24.4737H39.5172V22.7893H37.8279V24.4737Z" fill="#F79210"/>
<path d="M41.2062 24.4737H42.8959V22.7893H41.2062V24.4737Z" fill="#F79210"/>
<path d="M39.5172 24.4737H41.2068V22.7893H39.5172V24.4737Z" fill="#F79210"/>
<path d="M36.1387 24.4737H37.8285V22.7893H36.1387V24.4737Z" fill="#F79210"/>
<path d="M53.0342 24.4737H54.7239V22.7893H53.0342V24.4737Z" fill="#54607B"/>
<path d="M61.4824 24.4737H63.1717V22.7893H61.4824V24.4737Z" fill="#231F20"/>
<path d="M59.7932 24.4737H61.483V22.7893H59.7932V24.4737Z" fill="#707FA9"/>
<path d="M34.4483 24.4737H36.1376V22.7893H34.4483V24.4737Z" fill="#F79210"/>
<path d="M56.4136 24.4737H58.1034V22.7893H56.4136V24.4737Z" fill="#54607B"/>
<path d="M58.1028 24.4737H59.7921V22.7893H58.1028V24.4737Z" fill="#54607B"/>
<path d="M31.0687 22.7893H32.7581V21.1049H31.0687V22.7893Z" fill="#FABC09"/>
<path d="M29.3796 22.7893H31.0693V21.105H29.3796V22.7893Z" fill="#231F20"/>
<path d="M34.4483 22.7893L36.138 22.7893V21.1049H34.4483V22.7893Z" fill="#FABC09"/>
<path d="M27.6904 22.7893H29.3802V21.105H27.6904V22.7893Z" fill="#231F20"/>
<path d="M32.7581 22.7893L34.4476 22.7893V21.1049H32.7581V22.7893Z" fill="#FABC09"/>
<path d="M54.7245 64.8949H56.4142V63.2105H54.7245V64.8949Z" fill="#D2CFCD"/>
<path d="M26 24.4737H27.6897V22.7893H26V24.4737Z" fill="#231F20"/>
<path d="M46.2763 22.7893H47.9659V21.1049H46.2762L46.2763 22.7893Z" fill="white"/>
<path d="M47.9653 22.7893H49.6551V21.1049H47.9653V22.7893Z" fill="white"/>
<path d="M49.6545 22.7893H51.3442V21.1049H49.6545V22.7893Z" fill="white"/>
<path d="M51.3449 22.7893H53.0342L53.0341 21.1049H51.3449V22.7893Z" fill="#54607B"/>
<path d="M44.587 22.7893L46.2768 22.7893V21.105L44.587 21.1049V22.7893Z" fill="#231F20"/>
<path d="M37.8279 22.7893L39.5176 22.7893V21.105L37.8279 21.1049V22.7893Z" fill="#FABC09"/>
<path d="M39.5172 22.7893H41.2068V21.1049H39.5172V22.7893Z" fill="#FABC09"/>
<path d="M41.2075 22.7893L42.8966 22.7893V21.1049L41.2075 21.105V22.7893Z" fill="#FABC09"/>
<path d="M42.8966 22.7893L44.5859 22.7893V21.105L42.8966 21.1049V22.7893Z" fill="#FABC09"/>
<path d="M66.5511 61.5263H68.2409V59.8423H66.5511V61.5263Z" fill="#354053"/>
<path d="M53.0342 22.7893H54.7239V21.1049H53.0341L53.0342 22.7893Z" fill="#54607B"/>
<path d="M36.1387 22.7893H37.8279V21.1049H36.1387V22.7893Z" fill="#FABC09"/>
<path d="M68.2415 54.7888H69.9307V53.1049H68.2415V54.7888Z" fill="#54607B"/>
<path d="M68.2415 53.1055H69.9307V51.4211L68.2415 51.4211V53.1055Z" fill="#54607B"/>
<path d="M68.2415 56.4736H69.9307V54.7893H68.2415V56.4736Z" fill="#54607B"/>
<path d="M68.2415 59.8423H69.9307V58.158L68.2415 58.158V59.8423Z" fill="white"/>
<path d="M68.2415 58.158L69.9307 58.158V56.4736H68.2415V58.158Z" fill="#54607B"/>
<path d="M68.2415 61.5263L69.9307 61.5261V59.8423H68.2415V61.5263Z" fill="#231F20"/>
<path d="M68.2415 44.6842H69.9308V42.9999H68.2415V44.6842Z" fill="#231F20"/>
<path d="M68.2415 48.053H69.9307V46.3687H68.2415V48.053Z" fill="#707FA9"/>
<path d="M68.2415 51.4211L69.9307 51.4211V49.7368H68.2415V51.4211Z" fill="#54607B"/>
<path d="M68.2415 49.7363H69.9307V48.0524H68.2415V49.7363Z" fill="#54607B"/>
<path d="M68.2415 46.368H69.9308V44.6837H68.2415V46.368Z" fill="#231F20"/>
<path d="M61.4824 64.8948L63.1715 64.8949L63.1717 63.2105H61.4824V64.8948Z" fill="#54607B"/>
<path d="M58.1028 64.8949H59.7921V63.2105H58.1028V64.8949Z" fill="#54607B"/>
<path d="M59.7932 64.8949H61.483V63.2105H59.7932V64.8949Z" fill="#54607B"/>
<path d="M68.2415 63.21H69.9307V61.5261L68.2415 61.5263V63.21Z" fill="#354053"/>
<path d="M56.4136 64.8949H58.1034V63.2105H56.4136V64.8949Z" fill="#D2CFCD"/>
<path d="M54.7245 22.7893H56.4142V21.1049H54.7245V22.7893Z" fill="#54607B"/>
<path d="M68.2415 64.8949L69.9307 64.8948V63.2105H68.2415V64.8949Z" fill="#54607B"/>
<path d="M66.5511 64.8949H68.2409V63.2105H66.5511V64.8949Z" fill="#54607B"/>
<path d="M64.862 64.8949H66.5517V63.2105H64.862V64.8949Z" fill="#54607B"/>
<path d="M63.1715 64.8949H64.8613V63.2105H63.1717L63.1715 64.8949Z" fill="#54607B"/>
<path d="M58.1028 22.7893H59.7921V21.1049H58.1028V22.7893Z" fill="#54607B"/>
<path d="M56.4136 22.7893H58.1034V21.1049H56.4136V22.7893Z" fill="#54607B"/>
<path d="M59.7932 22.7893H61.483V21.1049H59.7932V22.7893Z" fill="#231F20"/>
<path d="M66.5511 51.4211H68.2409V49.7368H66.5511V51.4211Z" fill="#54607B"/>
<path d="M31.0687 54.7892H32.7579V53.1049H31.0687V54.7892Z" fill="white"/>
<path d="M31.0687 46.368H32.7579V44.6837H31.0687V46.368Z" fill="#707FA9"/>
<path d="M31.0687 51.4211L32.7579 51.4211V49.7368H31.0687V51.4211Z" fill="white"/>
<path d="M31.0687 49.7363H32.7579V48.0524H31.0687V49.7363Z" fill="white"/>
<path d="M31.0687 48.053H32.7579V46.3687H31.0687V48.053Z" fill="white"/>
<path d="M31.0687 53.1055H32.7579V51.4211L31.0687 51.4211V53.1055Z" fill="white"/>
<path d="M32.7579 59.8423H34.4476V58.158H32.7579V59.8423Z" fill="#231F20"/>
<path d="M31.0687 56.4738H32.7579V54.7899H31.0687V56.4738Z" fill="white"/>
<path d="M31.0687 58.158H32.7579V56.4738H31.0687V58.158Z" fill="#D2CFCD"/>
<path d="M31.0687 59.8423H32.7579V58.158H31.0687V59.8423Z" fill="#D2CFCD"/>
<path d="M31.0687 43.0001H32.7579V41.3162H31.0687V43.0001Z" fill="#231F20"/>
<path d="M31.0687 44.6842H32.7581L32.7579 43.0001H31.0687V44.6842Z" fill="#231F20"/>
<path d="M34.4483 61.5263H36.138V59.8423H34.4483V61.5263Z" fill="#231F20"/>
<path d="M58.1028 61.5263H59.7921V59.8424H58.1028V61.5263Z" fill="#54607B"/>
<path d="M56.4136 61.5263H58.1034V59.8423H56.4136V61.5263Z" fill="#D2CFCD"/>
<path d="M54.7245 61.5263H56.4142V59.8423H54.7245V61.5263Z" fill="white"/>
<path d="M59.7932 61.5263H61.483V59.8424H59.7932V61.5263Z" fill="#54607B"/>
<path d="M53.0341 61.5263H54.7239V59.8423H53.0342L53.0341 61.5263Z" fill="white"/>
<path d="M64.862 59.8423H66.5517V58.158H64.862V59.8423Z" fill="#354053"/>
<path d="M51.3449 61.5263H53.0341L53.0342 59.8423H51.3449V61.5263Z" fill="white"/>
<path d="M64.862 61.5263H66.5517V59.8423H64.862V61.5263Z" fill="#54607B"/>
<path d="M63.1715 61.5263H64.8613V59.8424H63.1715V61.5263Z" fill="#54607B"/>
<path d="M61.4824 61.5263H63.1715V59.8424H61.4824V61.5263Z" fill="#54607B"/>
<path d="M39.517 61.5263H41.2068V59.8423H39.5172L39.517 61.5263Z" fill="white"/>
<path d="M37.8279 61.5263H39.517L39.5172 59.8423H37.8279V61.5263Z" fill="#D2CFCD"/>
<path d="M36.1387 61.5263H37.8285V59.8423H36.1387V61.5263Z" fill="#D2CFCD"/>
<path d="M41.2062 61.5263H42.8959V59.8423H41.2062V61.5263Z" fill="white"/>
<path d="M44.587 61.5263H46.2763V59.8423H44.587V61.5263Z" fill="white"/>
<path d="M46.2763 61.5263H47.9659V59.8423H46.2763V61.5263Z" fill="white"/>
<path d="M47.9653 61.5263H49.6551V59.8423H47.9653V61.5263Z" fill="white"/>
<path d="M42.8966 61.5263H44.5863V59.8423H42.8966V61.5263Z" fill="white"/>
<path d="M49.6545 61.5263H51.3442V59.8423H49.6545V61.5263Z" fill="white"/>
<path d="M63.1717 41.3155H64.8613V39.6312H63.1717V41.3155Z" fill="#707FA9"/>
<path d="M64.862 58.158H66.5517V56.4736H64.862V58.158Z" fill="#231F20"/>
<path d="M63.1717 44.6843L64.8613 44.6842V42.9999H63.1717V44.6843Z" fill="#54607B"/>
<path d="M32.7579 27.8418H34.4476V26.1575H32.7579V27.8418Z" fill="#231F20"/>
<path d="M63.1715 46.368H64.8613V44.6837H63.1715V46.368Z" fill="#54607B"/>
<path d="M63.1717 49.7363H64.8613V48.0524H63.1717V49.7363Z" fill="white"/>
<path d="M63.1717 48.053H64.8613V46.3687H63.1717V48.053Z" fill="#54607B"/>
<path d="M63.1715 34.5793H64.8613V32.8949H63.1715V34.5793Z" fill="#54607B"/>
<path d="M63.1717 39.6318H64.8613V37.9474L63.1717 37.9474V39.6318Z" fill="#231F20"/>
<path d="M63.1717 36.2626H64.8613V34.5787L63.1717 34.5786V36.2626Z" fill="#54607B"/>
<path d="M63.1717 32.8943L64.8613 32.8945V31.2106L63.1717 31.2105V32.8943Z" fill="#707FA9"/>
<path d="M63.1717 37.9474L64.8613 37.9474V36.2631H63.1717V37.9474Z" fill="#354053"/>
<path d="M61.4824 59.8424H63.1715L63.1717 58.158H61.4824V59.8424Z" fill="#54607B"/>
<path d="M59.7932 59.8424H61.483V58.158H59.7932V59.8424Z" fill="#54607B"/>
<path d="M63.1715 59.8424H64.8613V58.158L63.1717 58.158L63.1715 59.8424Z" fill="#54607B"/>
<path d="M58.1028 59.8424H59.7921V58.158H58.1028V59.8424Z" fill="#54607B"/>
<path d="M66.5511 63.21H68.2409V61.5263H66.5511V63.21Z" fill="#54607B"/>
<path d="M63.1717 53.1055L64.8613 53.1055V51.4211H63.1717V53.1055Z" fill="#231F20"/>
<path d="M63.1715 54.7888H64.8613V53.1049H63.1715V54.7888Z" fill="#231F20"/>
<path d="M63.1717 58.158L64.8613 58.158V56.4736H63.1717V58.158Z" fill="#54607B"/>
<path d="M63.1717 51.4211H64.8613V49.7368H63.1717V51.4211Z" fill="white"/>
<path d="M63.1717 42.9999H64.8613V41.3162H63.1715L63.1717 42.9999Z" fill="#54607B"/>
<path d="M42.8966 27.8418H44.5863V26.1575H42.8966V27.8418Z" fill="#D2CFCD"/>
<path d="M41.2062 27.8418H42.8959V26.1575H41.2062V27.8418Z" fill="#D2CFCD"/>
<path d="M44.587 27.8418H46.2762L46.2763 26.1575H44.587V27.8418Z" fill="#D2CFCD"/>
<path d="M49.6545 27.8418H51.3442V26.1575H49.6545V27.8418Z" fill="white"/>
<path d="M47.9653 27.8418H49.6551V26.1575H47.9653V27.8418Z" fill="white"/>
<path d="M46.2762 27.8418H47.9659V26.1575H46.2763L46.2762 27.8418Z" fill="white"/>
<path d="M36.1387 27.8418H37.8285V26.1575H36.1387V27.8418Z" fill="#D2CFCD"/>
<path d="M39.517 27.8418H41.2068V26.1575H39.517V27.8418Z" fill="#D2CFCD"/>
<path d="M34.4483 27.8418H36.138V26.1575H34.4483V27.8418Z" fill="#354053"/>
<path d="M37.8279 27.8418H39.517V26.1575H37.8279V27.8418Z" fill="#D2CFCD"/>
<path d="M53.0342 27.8418H54.7239V26.1575H53.0341L53.0342 27.8418Z" fill="#54607B"/>
<path d="M63.1717 27.8418L64.8613 27.8418V26.1575H63.1715L63.1717 27.8418Z" fill="#231F20"/>
<path d="M59.7932 27.8418H61.483V26.1575H59.7932V27.8418Z" fill="#54607B"/>
<path d="M51.3449 27.8418H53.0342L53.0341 26.1575H51.3449V27.8418Z" fill="#54607B"/>
<path d="M63.1717 29.5262L64.8613 29.5262V27.8418L63.1717 27.8418V29.5262Z" fill="#231F20"/>
<path d="M61.4824 27.8418H63.1717L63.1715 26.1575H61.4824V27.8418Z" fill="#707FA9"/>
<path d="M58.1028 27.8418H59.7921V26.1575H58.1028V27.8418Z" fill="#54607B"/>
<path d="M63.1717 31.2105L64.8613 31.2106V29.5262L63.1717 29.5262V31.2105Z" fill="#231F20"/>
<path d="M54.7245 27.8418H56.4142V26.1575H54.7245V27.8418Z" fill="#54607B"/>
<path d="M56.4136 27.8418H58.1034V26.1575H56.4136V27.8418Z" fill="#54607B"/>
<path d="M63.1717 56.4736H64.8613V54.7893H63.1717V56.4736Z" fill="#354053"/>
<path d="M29.3796 54.7892H31.0693V53.1049H29.3796V54.7892Z" fill="#231F20"/>
<path d="M29.3796 48.053H31.0693V46.3687H29.3796V48.053Z" fill="#231F20"/>
<path d="M29.3796 49.7363H31.0693V48.0524H29.3796V49.7363Z" fill="#231F20"/>
<path d="M29.3796 51.4211H31.0693V49.7368H29.3796V51.4211Z" fill="#231F20"/>
<path d="M29.3796 56.4738H31.0693V54.7899H29.3796V56.4738Z" fill="#231F20"/>
<path d="M31.0687 61.5263H32.7581L32.7579 59.8423H31.0687V61.5263Z" fill="#231F20"/>
<path d="M29.3796 59.8423H31.0693V58.158H29.3796V59.8423Z" fill="#231F20"/>
<path d="M29.3796 58.158H31.0693V56.4738H29.3796V58.158Z" fill="#231F20"/>
<path d="M29.3796 53.1055H31.0693V51.4211H29.3796V53.1055Z" fill="#231F20"/>
<path d="M29.3796 46.368H31.0693V44.6837H29.3796V46.368Z" fill="#231F20"/>
<path d="M58.1028 63.21H59.7921V61.5263H58.1028V63.21Z" fill="#54607B"/>
<path d="M54.7245 63.21H56.4142V61.5263H54.7245V63.21Z" fill="#D2CFCD"/>
<path d="M56.4136 63.21H58.1034V61.5263H56.4136V63.21Z" fill="#D2CFCD"/>
<path d="M53.0341 63.2105H54.7239V61.5267H53.0341V63.2105Z" fill="white"/>
<path d="M51.3449 63.2105H53.0341V61.5267H51.3449V63.2105Z" fill="white"/>
<path d="M63.1715 63.21H64.8613V61.5263H63.1715V63.21Z" fill="#54607B"/>
<path d="M64.862 63.21H66.5517V61.5263H64.862V63.21Z" fill="#54607B"/>
<path d="M49.6545 63.21H51.3442V61.5263H49.6545V63.21Z" fill="white"/>
<path d="M61.4824 63.2105H63.1717V61.5267H61.4824V63.2105Z" fill="#54607B"/>
<path d="M59.7932 63.21H61.483V61.5263H59.7932V63.21Z" fill="#54607B"/>
<path d="M41.2062 63.21H42.8959V61.5263H41.2062V63.21Z" fill="white"/>
<path d="M36.1387 63.21H37.8285V61.5263H36.1387V63.21Z" fill="#354053"/>
<path d="M39.517 63.21H41.2068V61.5263H39.517V63.21Z" fill="#D2CFCD"/>
<path d="M37.8279 63.21H39.517V61.5263H37.8279V63.21Z" fill="#D2CFCD"/>
<path d="M34.4483 63.2107H36.138V61.5267H34.4483V63.2107Z" fill="#231F20"/>
<path d="M46.2762 63.21H47.9659V61.5263H46.2763L46.2762 63.21Z" fill="white"/>
<path d="M44.587 63.21H46.2762L46.2763 61.5263H44.587V63.21Z" fill="white"/>
<path d="M47.9653 63.21H49.6551V61.5263H47.9653V63.21Z" fill="white"/>
<path d="M42.8966 63.2105H44.5863V61.5267H42.8966V63.2105Z" fill="white"/>
<path d="M31.0687 26.1576H32.7585V24.4737L31.0687 24.4737V26.1576Z" fill="#231F20"/>
<path d="M64.862 32.8945H66.5517V31.2106H64.862V32.8945Z" fill="#231F20"/>
<path d="M64.862 34.5793H66.5517V32.8949H64.862V34.5793Z" fill="#231F20"/>
<path d="M64.862 37.9474H66.5517V36.2631H64.862V37.9474Z" fill="#231F20"/>
<path d="M61.4824 26.1575H63.1715L63.1717 24.4737H61.4824V26.1575Z" fill="#231F20"/>
<path d="M64.862 39.6318H66.5517V37.9474H64.862V39.6318Z" fill="#231F20"/>
<path d="M64.862 36.2626H66.5517V34.5787H64.862V36.2626Z" fill="#231F20"/>
<path d="M64.862 49.7363H66.5517V48.0524H64.862V49.7363Z" fill="#54607B"/>
<path d="M64.862 53.1055H66.5517V51.4211H64.862V53.1055Z" fill="white"/>
<path d="M64.862 51.4211H66.5517V49.7368H64.862V51.4211Z" fill="#54607B"/>
<path d="M64.862 54.7888H66.5517V53.1049H64.862V54.7888Z" fill="white"/>
<path d="M64.862 44.6842H66.5517V42.9999H64.862V44.6842Z" fill="#54607B"/>
<path d="M64.862 42.9999H66.5517V41.3162H64.862V42.9999Z" fill="#707FA9"/>
<path d="M64.862 41.3155H66.5517V39.6312H64.862V41.3155Z" fill="#231F20"/>
<path d="M64.862 48.053H66.5517V46.3687H64.862V48.053Z" fill="#54607B"/>
<path d="M64.862 46.368H66.5517V44.6837H64.862V46.368Z" fill="#54607B"/>
<path d="M44.587 26.1575H46.2763V24.4737H44.587V26.1575Z" fill="#231F20"/>
<path d="M36.1387 26.1575H37.8285V24.4737H36.1387V26.1575Z" fill="#231F20"/>
<path d="M37.8279 26.1575H39.517L39.5172 24.4737H37.8279V26.1575Z" fill="#231F20"/>
<path d="M34.4483 26.1575H36.138L36.138 24.4738L34.4483 24.4737V26.1575Z" fill="#231F20"/>
<path d="M39.517 26.1575H41.2068V24.4737H39.5172L39.517 26.1575Z" fill="#231F20"/>
<path d="M41.2062 26.1575H42.8959V24.4737H41.2062V26.1575Z" fill="#231F20"/>
<path d="M42.8966 26.1575H44.5863V24.4737H42.8966V26.1575Z" fill="#231F20"/>
<path d="M32.7579 26.1575H34.4476V24.4737L32.7581 24.4737L32.7579 26.1575Z" fill="#231F20"/>
<path d="M29.3796 26.1576H31.0693V24.4737H29.3796V26.1576Z" fill="#231F20"/>
<path d="M64.862 56.4736H66.5517V54.7893H64.862V56.4736Z" fill="#231F20"/>
<path d="M46.2763 26.1575H47.9659V24.4737H46.2763V26.1575Z" fill="#D2CFCD"/>
<path d="M53.0341 26.1575H54.7239V24.4737H53.0342L53.0341 26.1575Z" fill="#54607B"/>
<path d="M54.7245 26.1575H56.4142V24.4737H54.7245V26.1575Z" fill="#54607B"/>
<path d="M56.4136 26.1575H58.1034V24.4737H56.4136V26.1575Z" fill="#54607B"/>
<path d="M58.1028 26.1575H59.7921V24.4737H58.1028V26.1575Z" fill="#54607B"/>
<path d="M59.7932 26.1575H61.483V24.4737H59.7932V26.1575Z" fill="#54607B"/>
<path d="M47.9653 26.1575H49.6551V24.4737H47.9653V26.1575Z" fill="#54607B"/>
<path d="M49.6545 26.1575H51.3442V24.4737H49.6545V26.1575Z" fill="#54607B"/>
<path d="M51.3449 26.1575H53.0341L53.0342 24.4737H51.3449V26.1575Z" fill="#54607B"/>
<path d="M47.9653 12.6837H49.6551V11H47.9653V12.6837Z" fill="#231F20"/>
<path d="M37.8279 12.6837H39.517L39.5172 11H37.8279V12.6837Z" fill="#231F20"/>
<path d="M49.6545 12.6837H51.3442V11H49.6545V12.6837Z" fill="#231F20"/>
<path d="M46.2763 12.6837H47.9659V11H46.2762L46.2763 12.6837Z" fill="#231F20"/>
<path d="M53.0342 12.6837H54.7239L54.7238 11H53.0341L53.0342 12.6837Z" fill="#231F20"/>
<path d="M51.3449 12.6837H53.0342L53.0341 11H51.3449L51.3449 12.6837Z" fill="#231F20"/>
<path d="M44.587 12.6837H46.2763L46.2762 11H44.587V12.6837Z" fill="#231F20"/>
<path d="M39.517 12.6837H41.2068V11H39.5172L39.517 12.6837Z" fill="#231F20"/>
<path d="M41.2062 12.6837H42.8959V11H41.2062V12.6837Z" fill="#231F20"/>
<path d="M42.8966 12.6837H44.5863L44.5863 11H42.8966L42.8966 12.6837Z" fill="#231F20"/>
</g>
</svg>
