<svg width="93" height="33" viewBox="0 0 93 33" fill="none" xmlns="http://www.w3.org/2000/svg">
<mask id="mask0_3477_71079" style="mask-type:alpha" maskUnits="userSpaceOnUse" x="0" y="0" width="93" height="33">
<rect width="93" height="33" fill="#D9D9D9"/>
</mask>
<g mask="url(#mask0_3477_71079)">
<path d="M26.2681 15.9995H27.9263V14.3327H26.2681V15.9995Z" fill="#C8C4C3"/>
<path d="M36.2191 15.9995H37.8777V14.3327H36.2191V15.9995Z" fill="#C8C4C3"/>
<path d="M41.1952 15.9995H42.8538V14.3327H41.1952V15.9995Z" fill="#F36717"/>
<path d="M34.5601 15.9995H36.2187V14.3327H34.5601V15.9995Z" fill="#F36717"/>
<path d="M39.5361 15.9995H41.1943V14.3327H39.5361V15.9995Z" fill="#C8C4C3"/>
<path d="M37.8781 15.9995H39.5368V14.3327H37.8781V15.9995Z" fill="#C8C4C3"/>
<path d="M27.9263 15.9995H29.5847V14.3327H27.9263V15.9995Z" fill="#F36717"/>
<path d="M29.5851 15.9995H31.2437V14.3327H29.5851V15.9995Z" fill="#231F20"/>
<path d="M42.8531 15.9995H44.5118V14.3327H42.8531V15.9995Z" fill="#231F20"/>
<path d="M24.6101 15.9995H26.2687V14.3327H24.6101V15.9995Z" fill="#C8C4C3"/>
<path d="M32.9021 15.9995H34.5601V14.3327H32.9021V15.9995Z" fill="#231F20"/>
<path d="M16.317 32.6665H17.9757V30.9997H16.317V32.6665Z" fill="#7C3D1B"/>
<path d="M16.317 30.9994H17.9757V29.3331H16.317V30.9994Z" fill="#231F20"/>
<path d="M16.317 34.3331H17.9757V32.6665H16.317V34.3331Z" fill="#231F20"/>
<path d="M16.317 35.9998H17.9757V34.3331H16.317V35.9998Z" fill="white"/>
<path d="M16.317 39.3331H17.9757V37.6663H16.317V39.3331Z" fill="#231F20"/>
<path d="M16.317 37.666H17.9757V35.9998H16.317V37.666Z" fill="#D2CFCD"/>
<path d="M21.2931 15.9995H22.9513V14.3327H21.2931V15.9995Z" fill="#231F20"/>
<path d="M22.9513 15.9995H24.6097V14.3327H22.9513V15.9995Z" fill="#F36717"/>
<path d="M21.2931 14.3334H22.9513V12.6666H21.2931V14.3334Z" fill="#231F20"/>
<path d="M24.6101 14.3334H26.2687V12.6666H24.6101V14.3334Z" fill="#C8C4C3"/>
<path d="M22.9513 14.3334H24.6097V12.6666H22.9513V14.3334Z" fill="#F36717"/>
<path d="M26.2681 14.3334H27.9263V12.6666H26.2681V14.3334Z" fill="#C8C4C3"/>
<path d="M27.9263 14.3334H29.5847V12.6666H27.9263V14.3334Z" fill="#F36717"/>
<path d="M29.5851 14.3334H31.2437V12.6666H29.5851V14.3334Z" fill="#231F20"/>
<path d="M41.1952 14.3334H42.8538V12.6666H41.1952V14.3334Z" fill="#F36717"/>
<path d="M42.8531 14.3334H44.5118V12.6666H42.8531V14.3334Z" fill="#231F20"/>
<path d="M34.5601 14.3334H36.2187V12.6666H34.5601V14.3334Z" fill="#F36717"/>
<path d="M36.2191 14.3334H37.8777V12.6666H36.2191V14.3334Z" fill="#C8C4C3"/>
<path d="M39.5361 14.3334H41.1943V12.6666H39.5361V14.3334Z" fill="#C8C4C3"/>
<path d="M32.9021 14.3334H34.5601V12.6666H32.9021V14.3334Z" fill="#231F20"/>
<path d="M37.8781 14.3334H39.5368V12.6666H37.8781V14.3334Z" fill="#C8C4C3"/>
<path d="M14.659 37.666H16.317L16.3173 35.9996H14.659V37.666Z" fill="#231F20"/>
<path d="M14.659 34.3331H16.317L16.3173 32.6663H14.659V34.3331Z" fill="white"/>
<path d="M14.659 32.6663H16.3173L16.317 30.9997H14.659V32.6663Z" fill="#231F20"/>
<path d="M14.659 35.9996H16.3173V34.333L14.659 34.3331V35.9996Z" fill="#D2CFCD"/>
<path d="M14.659 30.9994H16.317V29.3331H14.659V30.9994Z" fill="#231F20"/>
<path d="M66.0722 42.6669H67.7309V41.0001H66.0722V42.6669Z" fill="#231F20"/>
<path d="M66.0722 32.6665H67.7309V30.9997H66.0722V32.6665Z" fill="#C84316"/>
<path d="M66.0722 40.9997H67.7309V39.3329H66.0722V40.9997Z" fill="#231F20"/>
<path d="M66.0722 45.9996H67.7309V44.3329H66.0722V45.9996Z" fill="#231F20"/>
<path d="M66.0722 47.6663H67.7309V45.9996H66.0722V47.6663Z" fill="#231F20"/>
<path d="M66.0722 44.3326H67.7309V42.6662H66.0722V44.3326Z" fill="#231F20"/>
<path d="M66.0722 35.9998H67.7309V34.333H66.0722V35.9998Z" fill="#231F20"/>
<path d="M66.0722 34.333H67.7309V32.6665H66.0722V34.333Z" fill="#231F20"/>
<path d="M66.0722 39.3329H67.7309V37.6663H66.0722V39.3329Z" fill="#231F20"/>
<path d="M66.0722 37.666H67.7309V35.9998H66.0722V37.666Z" fill="#231F20"/>
<path d="M66.0722 49.3331H67.7309V47.6667H66.0722V49.3331Z" fill="#231F20"/>
<path d="M66.0722 61H67.7309V59.3332H66.0722V61Z" fill="#231F20"/>
<path d="M66.0722 59.3332H67.7309V57.6666H66.0722V59.3332Z" fill="#D2CFCD"/>
<path d="M66.0722 57.6662H67.7309V55.9994H66.0722V57.6662Z" fill="white"/>
<path d="M66.0722 54.3329H67.7309V52.6661H66.0722V54.3329Z" fill="#F36717"/>
<path d="M66.0722 52.6668H67.7309V51H66.0722V52.6668Z" fill="#F36717"/>
<path d="M66.0722 50.9996H67.7309V49.3331H66.0722V50.9996Z" fill="#F89C0E"/>
<path d="M66.0722 55.9994H67.7309V54.3333H66.0722V55.9994Z" fill="white"/>
<path d="M66.0722 24.3332H67.7309V22.6665H66.0722V24.3332Z" fill="#F36717"/>
<path d="M66.0722 27.6665H67.7309V25.9998H66.0722V27.6665Z" fill="#231F20"/>
<path d="M66.0722 25.9998H67.7309V24.3336H66.0722V25.9998Z" fill="#231F20"/>
<path d="M66.0722 29.3332H67.7309V27.6665H66.0722V29.3332Z" fill="#231F20"/>
<path d="M66.0722 30.9994H67.7309V29.3332H66.0722V30.9994Z" fill="#F89C0E"/>
<path d="M66.0722 19.3329H67.7309V17.6665H66.0722V19.3329Z" fill="#F89C0E"/>
<path d="M66.0722 17.6665H67.7309V15.9999H66.0722V17.6665Z" fill="#231F20"/>
<path d="M66.0722 20.9999H67.7309V19.3332H66.0722V20.9999Z" fill="#F36717"/>
<path d="M66.0722 22.6665H67.7309V20.9999H66.0722V22.6665Z" fill="#F36717"/>
<path d="M62.7552 29.3332H64.4139V27.6664H62.7552V29.3332Z" fill="#231F20"/>
<path d="M62.7552 30.9994H64.4139V29.3332H62.7552V30.9994Z" fill="#F89C0E"/>
<path d="M62.7552 34.3331H64.4139V32.6663H62.7552V34.3331Z" fill="#F36717"/>
<path d="M62.7552 32.6663H64.4139V30.9997H62.7552V32.6663Z" fill="#F36717"/>
<path d="M31.2441 17.6667H32.9028V15.9999H31.2441V17.6667Z" fill="#231F20"/>
<path d="M22.951 17.6667H24.6097V15.9999H22.951V17.6667Z" fill="#F36717"/>
<path d="M24.6101 17.6667H26.2687V15.9999H24.6101V17.6667Z" fill="#C8C4C3"/>
<path d="M26.2681 17.6667H27.9263V15.9999H26.2681V17.6667Z" fill="#C8C4C3"/>
<path d="M27.9263 17.6667H29.5847V15.9999H27.9263V17.6667Z" fill="#F36717"/>
<path d="M21.2931 17.6667H22.951V15.9999H21.2931V17.6667Z" fill="#231F20"/>
<path d="M39.5361 17.6667H41.1943V15.9999H39.5361V17.6667Z" fill="#C8C4C3"/>
<path d="M37.8781 17.6667H39.5368V15.9999H37.8781V17.6667Z" fill="#C8C4C3"/>
<path d="M41.1952 17.6667H42.8538V15.9999H41.1952V17.6667Z" fill="#F36717"/>
<path d="M42.8531 17.6667H44.5118V15.9999H42.8531V17.6667Z" fill="#231F20"/>
<path d="M62.7552 35.9998H64.4139V34.3331H62.7552V35.9998Z" fill="#F36717"/>
<path d="M32.9021 17.6667H34.5603V15.9999H32.9021V17.6667Z" fill="#231F20"/>
<path d="M29.5851 17.6667H31.2437V15.9999H29.5851V17.6667Z" fill="#231F20"/>
<path d="M36.2191 17.6667H37.8777V15.9999H36.2191V17.6667Z" fill="#C8C4C3"/>
<path d="M34.5603 17.6667H36.2187V15.9999H34.5603V17.6667Z" fill="#F36717"/>
<path d="M62.7552 47.6663H64.4139V45.9995H62.7552V47.6663Z" fill="#F36717"/>
<path d="M62.7552 49.3331H64.4139V47.6667H62.7552V49.3331Z" fill="#F36717"/>
<path d="M62.7552 52.6668H64.4139V51H62.7552V52.6668Z" fill="#231F20"/>
<path d="M62.7552 50.9996H64.4139V49.3331H62.7552V50.9996Z" fill="#C84316"/>
<path d="M62.7552 39.3331H64.4139V37.6663H62.7552V39.3331Z" fill="#F36717"/>
<path d="M62.7552 40.9997H64.4139V39.3331H62.7552V40.9997Z" fill="#F36717"/>
<path d="M62.7552 44.3326H64.4139V42.6662H62.7552V44.3326Z" fill="#F36717"/>
<path d="M62.7552 42.6669H64.4139V41.0001H62.7552V42.6669Z" fill="#F36717"/>
<path d="M62.7552 45.9995H64.4139V44.3329H62.7552V45.9995Z" fill="#F36717"/>
<path d="M62.7552 37.666H64.4139V35.9998H62.7552V37.666Z" fill="#F36717"/>
<path d="M64.4143 57.6662H66.0722V55.9994H64.4143V57.6662Z" fill="#231F20"/>
<path d="M64.4143 55.9994L66.0725 55.9996L66.0722 54.3333H64.4143V55.9994Z" fill="#231F20"/>
<path d="M64.4143 61H66.0722V59.3332H64.4143V61Z" fill="#231F20"/>
<path d="M64.4143 59.3332L66.0725 59.3334L66.0722 57.6666H64.4143V59.3332Z" fill="#231F20"/>
<path d="M64.4143 54.3329H66.0722V52.6661H64.4143V54.3329Z" fill="#231F20"/>
<path d="M64.4143 49.3331H66.0722V47.6667H64.4143V49.3331Z" fill="#F36717"/>
<path d="M64.4143 47.6663H66.0722L66.0725 45.9995H64.4143V47.6663Z" fill="#F36717"/>
<path d="M64.4143 45.9995H66.0725L66.0722 44.3329H64.4143V45.9995Z" fill="#F36717"/>
<path d="M64.4143 52.6668H66.0722V51H64.4143V52.6668Z" fill="#C84316"/>
<path d="M64.4143 19.3329H66.0722V17.6665H64.4143V19.3329Z" fill="#231F20"/>
<path d="M64.4143 22.6666H66.0725V20.9998H64.4143V22.6666Z" fill="#231F20"/>
<path d="M64.4143 20.9998H66.0725L66.0722 19.3332H64.4143V20.9998Z" fill="#231F20"/>
<path d="M64.4143 24.3332H66.0722L66.0725 22.6666H64.4143V24.3332Z" fill="#231F20"/>
<path d="M64.4143 34.3331H66.0725V32.6663H64.4143V34.3331Z" fill="#F36717"/>
<path d="M64.4143 37.666H66.0722L66.0725 35.9996H64.4143V37.666Z" fill="#F36717"/>
<path d="M64.4143 40.9997H66.0722V39.3329H64.4143V40.9997Z" fill="#F36717"/>
<path d="M64.4143 42.6669H66.0722V41.0001H64.4143V42.6669Z" fill="#F36717"/>
<path d="M64.4143 39.3329L66.0725 39.3331L66.0722 37.6663H64.4143V39.3329Z" fill="#F36717"/>
<path d="M64.4143 30.9994H66.0722L66.0725 29.3331H64.4143V30.9994Z" fill="#231F20"/>
<path d="M64.4143 32.6663H66.0725L66.0722 30.9997H64.4143V32.6663Z" fill="#F36717"/>
<path d="M64.4143 44.3326H66.0722V42.6662H64.4143V44.3326Z" fill="#F36717"/>
<path d="M64.4143 35.9996H66.0725V34.3331H64.4143V35.9996Z" fill="#F36717"/>
<path d="M64.4143 50.9996H66.0722L66.0725 49.3328L64.4143 49.3331V50.9996Z" fill="#F36717"/>
<path d="M17.9761 29.3332H19.6347V27.6664H17.9761V29.3332Z" fill="#231F20"/>
<path d="M17.9761 30.9994H19.6347V29.3332H17.9761V30.9994Z" fill="#231F20"/>
<path d="M17.9761 32.6665H19.6347V30.9997H17.9761V32.6665Z" fill="#7C3D1B"/>
<path d="M17.9761 34.3331H19.6347V32.6665H17.9761V34.3331Z" fill="#231F20"/>
<path d="M17.9761 37.666H19.6347V35.9996H17.9761V37.666Z" fill="#D2CFCD"/>
<path d="M17.9761 39.3331H19.6347V37.6663H17.9761V39.3331Z" fill="#231F20"/>
<path d="M17.9761 35.9996H19.6347V34.3331H17.9761V35.9996Z" fill="white"/>
<path d="M41.1952 11.0001H42.8538V9.33329H41.1952V11.0001Z" fill="#231F20"/>
<path d="M37.8781 11.0001H39.5368V9.33329H37.8781V11.0001Z" fill="#F36717"/>
<path d="M36.2191 11.0001H37.8777V9.33329H36.2191V11.0001Z" fill="#F36717"/>
<path d="M39.5361 11.0001H41.1943V9.33329H39.5361V11.0001Z" fill="#F36717"/>
<path d="M34.5601 11.0001H36.2187V9.33329H34.5601V11.0001Z" fill="#231F20"/>
<path d="M27.926 11.0001H29.5847V9.33329H27.926V11.0001Z" fill="#F89C0E"/>
<path d="M26.2681 11.0001H27.926V9.33329H26.2681V11.0001Z" fill="#F36717"/>
<path d="M29.5851 11.0001H31.2437V9.33329H29.5851V11.0001Z" fill="#231F20"/>
<path d="M22.951 11.0001H24.6097V9.33329H22.951V11.0001Z" fill="#231F20"/>
<path d="M24.6101 11.0001H26.2687V9.33329H24.6101V11.0001Z" fill="#F36717"/>
<path d="M69.3903 24.3332H71.049V22.6665H69.3903V24.3332Z" fill="#F36717"/>
<path d="M69.3903 22.6665H71.049V20.9998H69.3903V22.6665Z" fill="#F36717"/>
<path d="M69.3903 27.6665H71.049V25.9998H69.3903V27.6665Z" fill="#F36717"/>
<path d="M69.3903 20.9998H71.049V19.3332H69.3903V20.9998Z" fill="#F36717"/>
<path d="M69.3903 25.9998H71.049V24.3336H69.3903V25.9998Z" fill="#F36717"/>
<path d="M69.3903 29.3332H71.049V27.6665H69.3903V29.3332Z" fill="#F36717"/>
<path d="M69.3903 14.3334H71.049V12.6666H69.3903V14.3334Z" fill="#231F20"/>
<path d="M69.3903 19.3329H71.049V17.6665H69.3903V19.3329Z" fill="#F36717"/>
<path d="M69.3903 17.6665H71.049V15.9999H69.3903V17.6665Z" fill="#F36717"/>
<path d="M69.3903 15.9995H71.049V14.3327H69.3903V15.9995Z" fill="#231F20"/>
<path d="M69.3903 32.6665H71.049V30.9997H69.3903V32.6665Z" fill="#231F20"/>
<path d="M69.3903 30.9994H71.049V29.3332H69.3903V30.9994Z" fill="#C84316"/>
<path d="M67.7313 32.6665H69.3899V30.9997H67.7313V32.6665Z" fill="#231F20"/>
<path d="M67.7313 61H69.3899V59.3332H67.7313V61Z" fill="#231F20"/>
<path d="M67.7313 50.9996H69.3899V49.3329H67.7313V50.9996Z" fill="#231F20"/>
<path d="M67.7313 57.6662H69.3899V55.9994H67.7313V57.6662Z" fill="#231F20"/>
<path d="M67.7313 52.6668H69.3899V51H67.7313V52.6668Z" fill="#231F20"/>
<path d="M67.7313 54.3334H69.3899V52.6668H67.7313V54.3334Z" fill="#231F20"/>
<path d="M67.7313 55.9994H69.3899V54.3334H67.7313V55.9994Z" fill="#231F20"/>
<path d="M67.7313 59.3332H69.3899V57.6666H67.7313V59.3332Z" fill="#231F20"/>
<path d="M67.7313 19.3329H69.3899V17.6665H67.7313V19.3329Z" fill="#F36717"/>
<path d="M67.7313 24.3333H69.3899V22.6665H67.7313V24.3333Z" fill="#F36717"/>
<path d="M67.7313 27.6665H69.3899V25.9998H67.7313V27.6665Z" fill="#F36717"/>
<path d="M67.7313 25.9998H69.3899V24.3336H67.7313V25.9998Z" fill="#F36717"/>
<path d="M67.7313 29.3332H69.3899V27.6665H67.7313V29.3332Z" fill="#F36717"/>
<path d="M67.7313 22.6665H69.3899V20.9998H67.7313V22.6665Z" fill="#F36717"/>
<path d="M67.7313 17.6665H69.3899V15.9998H67.7313V17.6665Z" fill="#F89C0E"/>
<path d="M67.7313 30.9994H69.3899V29.3332H67.7313V30.9994Z" fill="#F36717"/>
<path d="M67.7313 20.9998H69.3899V19.3332H67.7313V20.9998Z" fill="#F36717"/>
<path d="M67.7313 15.9995H69.3899V14.3327H67.7313V15.9995Z" fill="#231F20"/>
<path d="M27.926 12.6663H29.5847V11.0001H27.926V12.6663Z" fill="#F36717"/>
<path d="M29.5851 12.6663H31.2437V11.0001H29.5851V12.6663Z" fill="#231F20"/>
<path d="M34.5601 12.6663H36.2187V11.0001H34.5601V12.6663Z" fill="#F89C0E"/>
<path d="M26.2681 12.6663H27.926L27.9263 10.9999L26.2681 11.0001V12.6663Z" fill="#C8C4C3"/>
<path d="M32.9021 12.6663H34.5601L34.5603 10.9999H32.9021V12.6663Z" fill="#231F20"/>
<path d="M21.2931 12.6663H22.9513V10.9999H21.2931V12.6663Z" fill="#231F20"/>
<path d="M24.6101 12.6663H26.2687V11.0001H24.6101V12.6663Z" fill="#F36717"/>
<path d="M22.9513 12.6663H24.6097V11.0001H22.951L22.9513 12.6663Z" fill="#F89C0E"/>
<path d="M36.2191 12.6663H37.8777V11.0001H36.2191V12.6663Z" fill="#F36717"/>
<path d="M37.8781 12.6663H39.5368V11.0001H37.8781V12.6663Z" fill="#C8C4C3"/>
<path d="M42.8531 12.6663H44.5118V10.9999H42.8531V12.6663Z" fill="#231F20"/>
<path d="M39.5361 12.6663H41.1943V11.0001H39.5361V12.6663Z" fill="#F36717"/>
<path d="M41.1952 12.6663H42.8538V11.0001H41.1952V12.6663Z" fill="#F89C0E"/>
<path d="M13 34.3331H14.6586V32.6663H13V34.3331Z" fill="#231F20"/>
<path d="M13 35.9998H14.6586V34.3331H13V35.9998Z" fill="#231F20"/>
<path d="M13 32.6663H14.6586V30.9997H13V32.6663Z" fill="#231F20"/>
<path d="M41.1952 47.6663H42.8538V45.9995H41.1952V47.6663Z" fill="#231F20"/>
<path d="M52.8052 32.6665H54.4635V30.9997H52.8052V32.6665Z" fill="#F36717"/>
<path d="M52.8052 30.9994H54.4635V29.3331H52.8052V30.9994Z" fill="#231F20"/>
<path d="M42.8531 27.6665H44.5118V25.9998H42.8531V27.6665Z" fill="#231F20"/>
<path d="M52.8052 37.666H54.4635V35.9996H52.8052V37.666Z" fill="#F36717"/>
<path d="M52.8052 45.9996H54.4635V44.3329H52.8052V45.9996Z" fill="#C84316"/>
<path d="M52.8052 44.3326H54.4635V42.6662H52.8052V44.3326Z" fill="#F36717"/>
<path d="M52.8052 34.3331H54.4635V32.6665H52.8052V34.3331Z" fill="#F36717"/>
<path d="M52.8052 47.6663H54.4635V45.9996H52.8052V47.6663Z" fill="#231F20"/>
<path d="M52.8052 42.6669H54.4635V41.0001H52.8052V42.6669Z" fill="#F36717"/>
<path d="M41.1952 27.6665H42.8538V25.9998H41.1952V27.6665Z" fill="#F89C0E"/>
<path d="M52.8052 40.9997H54.4635V39.3329H52.8052V40.9997Z" fill="#F36717"/>
<path d="M52.8052 35.9996H54.4635V34.3331H52.8052V35.9996Z" fill="#F36717"/>
<path d="M52.8052 39.3329H54.4635V37.6663H52.8052V39.3329Z" fill="#F36717"/>
<path d="M27.926 32.6665H29.5847V30.9997H27.926V32.6665Z" fill="#231F20"/>
<path d="M27.926 37.666H29.5847V35.9996H27.926V37.666Z" fill="white"/>
<path d="M27.926 39.3331H29.5847V37.6663H27.926V39.3331Z" fill="#D2CFCD"/>
<path d="M27.926 40.9997H29.5847V39.3331H27.926V40.9997Z" fill="#231F20"/>
<path d="M27.926 35.9996H29.5847V34.333H27.926V35.9996Z" fill="white"/>
<path d="M27.926 34.333H29.5847V32.6665H27.926V34.333Z" fill="white"/>
<path d="M36.2191 27.6665H37.8777V25.9998H36.2191V27.6665Z" fill="#F36717"/>
<path d="M39.5361 27.6665H41.1943V25.9998H39.5361V27.6665Z" fill="#F36717"/>
<path d="M34.5601 27.6665H36.2187V25.9998H34.5601V27.6665Z" fill="#F36717"/>
<path d="M27.926 30.9994H29.5847V29.3331H27.926V30.9994Z" fill="#F36717"/>
<path d="M37.8781 27.6665H39.5368V25.9998H37.8781V27.6665Z" fill="#F36717"/>
<path d="M32.9021 27.6665H34.5601V25.9998H32.9021V27.6665Z" fill="#F36717"/>
<path d="M27.926 27.6665H29.5847V25.9998H27.926V27.6665Z" fill="#F36717"/>
<path d="M27.926 29.3331H29.5847V27.6665H27.926V29.3331Z" fill="#F36717"/>
<path d="M31.2441 27.6665H32.9028V25.9998H31.2441V27.6665Z" fill="#F36717"/>
<path d="M29.5851 27.6665H31.2437V25.9998H29.5851V27.6665Z" fill="#231F20"/>
<path d="M29.5851 30.9994H31.2437V29.3331H29.5851V30.9994Z" fill="#F36717"/>
<path d="M29.5851 29.3331H31.2437V27.6665H29.5851V29.3331Z" fill="#F89C0E"/>
<path d="M32.9021 29.3332H34.5603V27.6664L32.9021 27.6665V29.3332Z" fill="#F36717"/>
<path d="M31.2441 29.3332H32.9028V27.6665H31.2441V29.3332Z" fill="#F89C0E"/>
<path d="M29.5851 32.6665H31.2437V30.9997H29.5851V32.6665Z" fill="#F36717"/>
<path d="M29.5851 39.3331H31.2437V37.6663H29.5851V39.3331Z" fill="#231F20"/>
<path d="M34.5603 29.3332H36.2187V27.6665H34.5601L34.5603 29.3332Z" fill="#F36717"/>
<path d="M29.5851 40.9997H31.2437V39.3331H29.5851V40.9997Z" fill="#231F20"/>
<path d="M29.5851 35.9998H31.2437V34.333H29.5851V35.9998Z" fill="white"/>
<path d="M29.5851 34.333H31.2437V32.6665H29.5851V34.333Z" fill="#231F20"/>
<path d="M29.5851 37.666H31.2437V35.9998H29.5851V37.666Z" fill="#D2CFCD"/>
<path d="M44.5122 29.3332H46.1708V27.6664H44.5122V29.3332Z" fill="#231F20"/>
<path d="M36.2191 29.3332H37.8777V27.6665H36.2191V29.3332Z" fill="#F36717"/>
<path d="M46.1712 29.3332H47.8294V27.6664H46.1712V29.3332Z" fill="#231F20"/>
<path d="M42.8531 29.3332H44.5118V27.6665H42.8531V29.3332Z" fill="#F89C0E"/>
<path d="M37.8781 29.3332H39.5368V27.6665H37.8781V29.3332Z" fill="#F36717"/>
<path d="M39.5361 29.3332H41.1943V27.6665H39.5361V29.3332Z" fill="#F36717"/>
<path d="M41.1952 29.3332H42.8538V27.6665H41.1952V29.3332Z" fill="#F36717"/>
<path d="M47.8294 29.3332H49.4878V27.6664H47.8294V29.3332Z" fill="#231F20"/>
<path d="M42.8531 52.6668H44.5118V51H42.8531V52.6668Z" fill="#231F20"/>
<path d="M44.5122 52.6668H46.1704V51H44.5122V52.6668Z" fill="#F36717"/>
<path d="M36.2191 52.6668H37.8777V51H36.2191V52.6668Z" fill="white"/>
<path d="M37.8781 52.6668H39.5368V51H37.8781V52.6668Z" fill="white"/>
<path d="M39.5361 52.6668H41.1943V51H39.5361V52.6668Z" fill="#231F20"/>
<path d="M46.1712 52.6668H47.8294V51H46.1712V52.6668Z" fill="#231F20"/>
<path d="M34.5601 52.6668H36.2187V51H34.5601V52.6668Z" fill="#231F20"/>
<path d="M26.2681 32.6665H27.926V30.9997H26.2681V32.6665Z" fill="white"/>
<path d="M26.2681 26H27.9263V24.3336H26.2681V26Z" fill="#F36717"/>
<path d="M26.2681 34.3331H27.9263V32.6663L26.2681 32.6665V34.3331Z" fill="white"/>
<path d="M26.2681 29.3332H27.9263V27.6664H26.2681V29.3332Z" fill="#F36717"/>
<path d="M26.2681 27.6664H27.9263V26H26.2681V27.6664Z" fill="#F36717"/>
<path d="M26.2681 30.9994H27.926L27.9263 29.3332H26.2681V30.9994Z" fill="#231F20"/>
<path d="M26.2681 35.9998H27.9263V34.3331H26.2681V35.9998Z" fill="#231F20"/>
<path d="M26.2681 40.9997H27.9267V39.3329H26.2681V40.9997Z" fill="#231F20"/>
<path d="M26.2681 39.3329L27.926 39.3331V37.6663H26.2681V39.3329Z" fill="#D2CFCD"/>
<path d="M26.2681 37.666H27.926L27.9263 35.9998H26.2681V37.666Z" fill="white"/>
<path d="M41.1952 25.9998H42.8538V24.3336H41.1952V25.9998Z" fill="#231F20"/>
<path d="M36.2191 25.9998H37.8777V24.3336H36.2191V25.9998Z" fill="#F36717"/>
<path d="M39.5361 25.9998H41.1943V24.3336H39.5361V25.9998Z" fill="#F36717"/>
<path d="M37.8781 25.9998H39.5368V24.3336H37.8781V25.9998Z" fill="#F36717"/>
<path d="M32.9021 25.9998L34.5603 26V24.3336H32.9021V25.9998Z" fill="#F36717"/>
<path d="M31.2441 25.9998H32.9028V24.3336H31.2441V25.9998Z" fill="#F36717"/>
<path d="M34.5601 25.9998H36.2187V24.3336H34.5603L34.5601 25.9998Z" fill="#F36717"/>
<path d="M27.926 25.9998H29.5847V24.3336H27.9263L27.926 25.9998Z" fill="#F36717"/>
<path d="M29.5851 25.9998H31.2437V24.3336H29.5851V25.9998Z" fill="#231F20"/>
<path d="M37.8781 55.9996H39.5368V54.3333H37.8781V55.9996Z" fill="#231F20"/>
<path d="M39.5361 55.9996H41.1943V54.3333H39.5361V55.9996Z" fill="#D2CFCD"/>
<path d="M41.1952 55.9996H42.8538V54.3333H41.1952V55.9996Z" fill="#D2CFCD"/>
<path d="M44.5122 55.9996H46.1704V54.3333H44.5122V55.9996Z" fill="white"/>
<path d="M46.1712 55.9996H47.8294V54.3333H46.1712V55.9996Z" fill="#231F20"/>
<path d="M42.8531 55.9996H44.5118V54.3333H42.8531V55.9996Z" fill="#231F20"/>
<path d="M41.1952 54.3329H42.8538V52.6661H41.1952V54.3329Z" fill="#231F20"/>
<path d="M46.1712 54.3329H47.8294V52.6661H46.1712V54.3329Z" fill="#231F20"/>
<path d="M42.8531 54.3329H44.5118V52.6661H42.8531V54.3329Z" fill="#231F20"/>
<path d="M44.5122 54.3329H46.1704V52.6661H44.5122V54.3329Z" fill="#F36717"/>
<path d="M54.4632 50.9996H56.1219V49.3328H54.4632V50.9996Z" fill="#231F20"/>
<path d="M39.5361 54.3329H41.1943V52.6661H39.5361V54.3329Z" fill="white"/>
<path d="M37.8781 54.3329H39.5368V52.6661H37.8781V54.3329Z" fill="white"/>
<path d="M36.2191 54.3329H37.8777V52.6661H36.2191V54.3329Z" fill="#231F20"/>
<path d="M54.4635 30.9994H56.1219V29.3331H54.4635V30.9994Z" fill="#231F20"/>
<path d="M54.4632 49.3328H56.1219V47.6667H54.4632V49.3328Z" fill="#231F20"/>
<path d="M54.4635 32.6665H56.1219V30.9997H54.4635V32.6665Z" fill="#F36717"/>
<path d="M54.4635 45.9996H56.1219V44.3329H54.4635V45.9996Z" fill="#231F20"/>
<path d="M54.4635 44.3326H56.1219V42.6662H54.4635V44.3326Z" fill="#C84316"/>
<path d="M54.4635 47.6663H56.1219V45.9996L54.4632 45.9995L54.4635 47.6663Z" fill="#231F20"/>
<path d="M54.4635 34.3331H56.1219V32.6665L54.4632 32.6663L54.4635 34.3331Z" fill="#F36717"/>
<path d="M54.4635 42.6669H56.1219V41.0001H54.4635V42.6669Z" fill="#F36717"/>
<path d="M54.4632 35.9998H56.1219V34.3331L54.4632 34.333V35.9998Z" fill="#F36717"/>
<path d="M54.4635 40.9997H56.1219V39.3329H54.4635V40.9997Z" fill="#F36717"/>
<path d="M54.4635 37.666H56.1219V35.9998H54.4632L54.4635 37.666Z" fill="#F36717"/>
<path d="M54.4632 39.3331L56.1219 39.3329V37.6663H54.4635L54.4632 39.3331Z" fill="#F36717"/>
<path d="M42.8531 42.6669H44.5118V41.0001H42.8531V42.6669Z" fill="#F36717"/>
<path d="M34.5601 34.3331H36.2187V32.6663H34.5601V34.3331Z" fill="#F36717"/>
<path d="M34.5601 35.9998H36.2187V34.3331H34.5601V35.9998Z" fill="#F36717"/>
<path d="M36.2191 34.3331H37.8777V32.6663H36.2191V34.3331Z" fill="#F36717"/>
<path d="M37.8781 34.3331H39.5368V32.6663H37.8781V34.3331Z" fill="#F36717"/>
<path d="M34.5601 37.666H36.2187V35.9998H34.5601V37.666Z" fill="#F36717"/>
<path d="M34.5601 39.3331H36.2187V37.6663H34.5601V39.3331Z" fill="#C84316"/>
<path d="M34.5601 40.9997H36.2187V39.3331H34.5601V40.9997Z" fill="#231F20"/>
<path d="M39.5361 34.3331H41.1943V32.6663H39.5361V34.3331Z" fill="#F36717"/>
<path d="M46.1712 39.3331H47.8294V37.6663H46.1712V39.3331Z" fill="#F36717"/>
<path d="M41.1952 34.3331H42.8538V32.6663H41.1952V34.3331Z" fill="#F36717"/>
<path d="M46.1712 40.9997H47.8294V39.3331H46.1712V40.9997Z" fill="#F36717"/>
<path d="M46.1712 44.3326H47.8294V42.6662H46.1712V44.3326Z" fill="#F36717"/>
<path d="M46.1712 42.6669H47.8294V41.0001H46.1712V42.6669Z" fill="#F36717"/>
<path d="M46.1712 37.666H47.8294V35.9996H46.1712V37.666Z" fill="#F36717"/>
<path d="M42.8531 34.3331H44.5118V32.6663H42.8531V34.3331Z" fill="#F36717"/>
<path d="M44.5122 34.3331H46.1708V32.6663H44.5122V34.3331Z" fill="#F36717"/>
<path d="M46.1712 34.3331H47.8294V32.6663H46.1712V34.3331Z" fill="#F36717"/>
<path d="M46.1712 35.9996H47.8294V34.3331H46.1712V35.9996Z" fill="#F36717"/>
<path d="M47.8294 42.6669H49.4878V41.0001H47.8294V42.6669Z" fill="#F36717"/>
<path d="M47.8294 39.3331H49.4878V37.6663H47.8294V39.3331Z" fill="#F36717"/>
<path d="M47.8294 37.666H49.4878V35.9996H47.8294V37.666Z" fill="#F36717"/>
<path d="M47.8294 40.9997H49.4878V39.3331L47.8292 39.3329L47.8294 40.9997Z" fill="#F36717"/>
<path d="M47.8292 35.9998L49.4878 35.9996V34.333H47.8292V35.9998Z" fill="#F36717"/>
<path d="M46.1712 45.9996H47.8294V44.3329H46.1712V45.9996Z" fill="#F36717"/>
<path d="M36.2191 45.9996H37.8777V44.3329H36.2191V45.9996Z" fill="#231F20"/>
<path d="M51.1462 30.9994H52.8048V29.3331H51.1462V30.9994Z" fill="#231F20"/>
<path d="M47.8292 34.333H49.4878V32.6663H47.8294L47.8292 34.333Z" fill="#F36717"/>
<path d="M46.1712 32.6663H47.8294V30.9997H46.1712V32.6663Z" fill="#F36717"/>
<path d="M47.8292 32.6665L49.4878 32.6663V30.9997H47.8294L47.8292 32.6665Z" fill="#F36717"/>
<path d="M44.5122 32.6663H46.1708V30.9997H44.5122V32.6663Z" fill="#F36717"/>
<path d="M39.5361 47.6663H41.1943V45.9995H39.5361V47.6663Z" fill="#C84316"/>
<path d="M37.8781 47.6663H39.5368V45.9995H37.8781V47.6663Z" fill="#F36717"/>
<path d="M36.2191 47.6663H37.8777V45.9996H36.2191V47.6663Z" fill="#231F20"/>
<path d="M47.8294 45.9996H49.4878V44.3329H47.8294V45.9996Z" fill="#C84316"/>
<path d="M46.1712 47.6663H47.8294V45.9996H46.1712V47.6663Z" fill="#C84316"/>
<path d="M47.8294 47.6663H49.4878V45.9996L47.8292 45.9995L47.8294 47.6663Z" fill="#231F20"/>
<path d="M44.5122 47.6663H46.1704V45.9995H44.5122V47.6663Z" fill="#F36717"/>
<path d="M42.8531 47.6663H44.5118V45.9995H42.8531V47.6663Z" fill="#C84316"/>
<path d="M44.5122 45.9995H46.1704V44.3329H44.5122V45.9995Z" fill="#F36717"/>
<path d="M37.8781 40.9997H39.5368V39.3329H37.8781V40.9997Z" fill="#C84316"/>
<path d="M37.8781 39.3329H39.5368V37.6663H37.8781V39.3329Z" fill="#C84316"/>
<path d="M42.8531 32.6663H44.5118V30.9997H42.8531V32.6663Z" fill="#F36717"/>
<path d="M37.8781 37.666H39.5368V35.9996H37.8781V37.666Z" fill="#F36717"/>
<path d="M37.8781 42.6669H39.5368V41.0001H37.8781V42.6669Z" fill="#C84316"/>
<path d="M41.1952 37.666H42.8538V35.9996H41.1952V37.666Z" fill="#F36717"/>
<path d="M42.8531 44.3326H44.5118V42.6662H42.8531V44.3326Z" fill="#F36717"/>
<path d="M44.5122 44.3326H46.1704V42.6662H44.5122V44.3326Z" fill="#F36717"/>
<path d="M41.1952 44.3326H42.8538V42.6662H41.1952V44.3326Z" fill="#F36717"/>
<path d="M39.5361 44.3326H41.1943V42.6662H39.5361V44.3326Z" fill="#C84316"/>
<path d="M39.5361 42.6669H41.1943V41.0001H39.5361V42.6669Z" fill="#C84316"/>
<path d="M41.1952 40.9997H42.8538V39.3329H41.1952V40.9997Z" fill="#F36717"/>
<path d="M39.5361 40.9997H41.1943V39.3329H39.5361V40.9997Z" fill="#F36717"/>
<path d="M39.5361 39.3329H41.1943V37.6663H39.5361V39.3329Z" fill="#C84316"/>
<path d="M41.1952 39.3329H42.8538V37.6663H41.1952V39.3329Z" fill="#F36717"/>
<path d="M42.8531 37.666H44.5118V35.9996H42.8531V37.666Z" fill="#F36717"/>
<path d="M42.8531 40.9997H44.5118V39.3329H42.8531V40.9997Z" fill="#F36717"/>
<path d="M41.1952 42.6669H42.8538V41.0001H41.1952V42.6669Z" fill="#F36717"/>
<path d="M42.8531 39.3329H44.5118V37.6663H42.8531V39.3329Z" fill="#F36717"/>
<path d="M39.5361 37.666H41.1943V35.9996H39.5361V37.666Z" fill="#C84316"/>
<path d="M36.2191 42.6669H37.8777V41.0001H36.2191V42.6669Z" fill="#231F20"/>
<path d="M37.8781 44.3326H39.5368V42.6662H37.8781V44.3326Z" fill="#231F20"/>
<path d="M36.2191 40.9997H37.8777V39.3329H36.2191V40.9997Z" fill="#A83712"/>
<path d="M36.2191 39.3329H37.8777V37.6663H36.2191V39.3329Z" fill="#C84316"/>
<path d="M37.8781 45.9995H39.5368V44.3329H37.8781V45.9995Z" fill="#F89C0E"/>
<path d="M41.1952 45.9995H42.8538V44.3329H41.1952V45.9995Z" fill="#C84316"/>
<path d="M42.8531 45.9995H44.5118V44.3329H42.8531V45.9995Z" fill="#F36717"/>
<path d="M36.2191 37.666H37.8777V35.9996H36.2191V37.666Z" fill="#F36717"/>
<path d="M39.5361 45.9995H41.1943V44.3329H39.5361V45.9995Z" fill="#231F20"/>
<path d="M41.1952 35.9996H42.8538V34.3331H41.1952V35.9996Z" fill="#C84316"/>
<path d="M44.5122 35.9998H46.1708V34.3331H44.5122V35.9998Z" fill="#F36717"/>
<path d="M44.5122 39.3331H46.1704V37.6663H44.5122V39.3331Z" fill="#F36717"/>
<path d="M44.5122 37.666H46.1704V35.9996L44.5122 35.9998V37.666Z" fill="#F36717"/>
<path d="M44.5122 40.9997H46.1704V39.3331H44.5122V40.9997Z" fill="#F36717"/>
<path d="M39.5361 35.9996H41.1943V34.3331H39.5361V35.9996Z" fill="#F36717"/>
<path d="M37.8781 35.9996H39.5368V34.3331H37.8781V35.9996Z" fill="#F36717"/>
<path d="M36.2191 35.9996H37.8777V34.3331H36.2191V35.9996Z" fill="#F36717"/>
<path d="M42.8531 35.9996H44.5118V34.3331H42.8531V35.9996Z" fill="#F36717"/>
<path d="M44.5122 42.6669H46.1704V41.0001H44.5122V42.6669Z" fill="#F36717"/>
<path d="M47.8294 44.3326H49.4878V42.6662H47.8294V44.3326Z" fill="#F36717"/>
<path d="M31.2441 40.9997H32.9028V39.3329H31.2441V40.9997Z" fill="#231F20"/>
<path d="M32.9021 50.9996H34.5603V49.3328H32.9021V50.9996Z" fill="#231F20"/>
<path d="M31.2441 39.3329H32.9028V37.6663H31.2441V39.3329Z" fill="#A83712"/>
<path d="M34.5603 50.9996H36.2187V49.3328H34.5603V50.9996Z" fill="#F89C0E"/>
<path d="M34.5601 30.9994H36.2187V29.3332L34.5601 29.3331V30.9994Z" fill="#F36717"/>
<path d="M36.2191 50.9996H37.8777V49.3328H36.2191V50.9996Z" fill="#C84316"/>
<path d="M36.2191 30.9994H37.8777V29.3332H36.2191V30.9994Z" fill="#F36717"/>
<path d="M37.8781 30.9994H39.5368V29.3332H37.8781V30.9994Z" fill="#F36717"/>
<path d="M32.9021 30.9994H34.5601L34.5603 29.3332H32.9021V30.9994Z" fill="#F36717"/>
<path d="M31.2441 32.6665H32.9028V30.9997H31.2441V32.6665Z" fill="#F36717"/>
<path d="M31.2441 30.9994H32.9028V29.3332H31.2441V30.9994Z" fill="#F36717"/>
<path d="M31.2441 34.3331H32.9028V32.6665H31.2441V34.3331Z" fill="#F36717"/>
<path d="M31.2441 35.9998H32.9028V34.3331H31.2441V35.9998Z" fill="#231F20"/>
<path d="M31.2441 37.666H32.9028V35.9998H31.2441V37.666Z" fill="#231F20"/>
<path d="M37.8781 50.9996H39.5368V49.3328H37.8781V50.9996Z" fill="#231F20"/>
<path d="M51.1462 40.9997H52.8048V39.3329H51.1462V40.9997Z" fill="#F36717"/>
<path d="M51.1462 39.3329H52.8048V37.6663H51.1462V39.3329Z" fill="#F36717"/>
<path d="M51.1462 42.6669H52.8048V41.0001H51.1462V42.6669Z" fill="#F36717"/>
<path d="M51.1462 44.3326H52.8048V42.6662H51.1462V44.3326Z" fill="#F36717"/>
<path d="M39.5361 30.9994H41.1943V29.3332H39.5361V30.9994Z" fill="#F36717"/>
<path d="M51.1462 35.9998H52.8048V34.333H51.1462V35.9998Z" fill="#F36717"/>
<path d="M51.1462 37.666H52.8048V35.9998H51.1462V37.666Z" fill="#F36717"/>
<path d="M51.1462 34.333H52.8048V32.6663H51.1462V34.333Z" fill="#F36717"/>
<path d="M51.1462 32.6663H52.8048V30.9997H51.1462V32.6663Z" fill="#F36717"/>
<path d="M51.1462 47.6663H52.8048V45.9995H51.1462V47.6663Z" fill="#231F20"/>
<path d="M51.1462 45.9995H52.8048V44.3329H51.1462V45.9995Z" fill="#C84316"/>
<path d="M42.8531 50.9996H44.5118V49.3328H42.8531V50.9996Z" fill="#231F20"/>
<path d="M44.5122 50.9996H46.1704V49.3328H44.5122V50.9996Z" fill="#F36717"/>
<path d="M46.1712 50.9996H47.8294V49.3328H46.1712V50.9996Z" fill="#231F20"/>
<path d="M41.1952 30.9994H42.8538V29.3332H41.1952V30.9994Z" fill="#F36717"/>
<path d="M41.1952 32.6663H42.8538V30.9997H41.1952V32.6663Z" fill="#F36717"/>
<path d="M36.2191 49.3328H37.8777V47.6667H36.2191V49.3328Z" fill="#F89C0E"/>
<path d="M37.8781 49.3328H39.5368V47.6667H37.8781V49.3328Z" fill="#C84316"/>
<path d="M39.5361 49.3331H41.1943V47.6667H39.5361V49.3331Z" fill="#231F20"/>
<path d="M34.5601 49.3331L36.2187 49.3328V47.6667H34.5601V49.3331Z" fill="#231F20"/>
<path d="M32.9021 40.9997H34.5601L34.5603 39.3329H32.9021V40.9997Z" fill="#231F20"/>
<path d="M32.9021 37.666H34.5601L34.5603 35.9996H32.9021V37.666Z" fill="#C84316"/>
<path d="M32.9021 39.3329H34.5603L34.5601 37.6663H32.9021V39.3329Z" fill="#C84316"/>
<path d="M36.2191 32.6663H37.8777V30.9997H36.2191V32.6663Z" fill="#F36717"/>
<path d="M37.8781 32.6663H39.5368V30.9997H37.8781V32.6663Z" fill="#F36717"/>
<path d="M39.5361 32.6663H41.1943V30.9997H39.5361V32.6663Z" fill="#F36717"/>
<path d="M34.5601 32.6663H36.2187V30.9997H34.5601V32.6663Z" fill="#F36717"/>
<path d="M32.9021 35.9996H34.5603V34.333H32.9021V35.9996Z" fill="#F36717"/>
<path d="M32.9021 32.6665H34.5603L34.5601 30.9997H32.9021V32.6665Z" fill="#F36717"/>
<path d="M32.9021 34.333H34.5603V32.6665H32.9021V34.333Z" fill="#F36717"/>
<path d="M49.4872 34.3331H51.1458V32.6663H49.4872V34.3331Z" fill="#F36717"/>
<path d="M49.4872 32.6663H51.1458V30.9997H49.4872V32.6663Z" fill="#F36717"/>
<path d="M49.4872 37.666H51.1458V35.9996H49.4872V37.666Z" fill="#F36717"/>
<path d="M49.4872 35.9996H51.1458V34.3331H49.4872V35.9996Z" fill="#F36717"/>
<path d="M49.4872 30.9994H51.1458V29.3331H49.4872V30.9994Z" fill="#231F20"/>
<path d="M42.8531 49.3328H44.5118V47.6667H42.8531V49.3328Z" fill="#231F20"/>
<path d="M42.8531 30.9994H44.5118V29.3332H42.8531V30.9994Z" fill="#F36717"/>
<path d="M44.5122 30.9994H46.1708V29.3332H44.5122V30.9994Z" fill="#F89C0E"/>
<path d="M47.8292 30.9994H49.4878V29.3332L47.8292 29.3331V30.9994Z" fill="#F89C0E"/>
<path d="M46.1712 30.9994H47.8292L47.8294 29.3332H46.1712V30.9994Z" fill="#F89C0E"/>
<path d="M49.4872 39.3331H51.1458V37.6663H49.4872V39.3331Z" fill="#F36717"/>
<path d="M46.1712 49.3328H47.8294V47.6667H46.1712V49.3328Z" fill="#231F20"/>
<path d="M49.4872 40.9997H51.1458V39.3331H49.4872V40.9997Z" fill="#F36717"/>
<path d="M44.5122 49.3328H46.1704V47.6667H44.5122V49.3328Z" fill="#F36717"/>
<path d="M49.4872 44.3326H51.1458V42.6662H49.4872V44.3326Z" fill="#F36717"/>
<path d="M49.4872 47.6663H51.1458V45.9995H49.4872V47.6663Z" fill="#231F20"/>
<path d="M49.4872 42.6669H51.1458V41.0001H49.4872V42.6669Z" fill="#F36717"/>
<path d="M49.4872 45.9995H51.1458V44.3329H49.4872V45.9995Z" fill="#C84316"/>
<path d="M46.1712 61H47.8294V59.3332H46.1712V61Z" fill="#231F20"/>
<path d="M21.2931 39.3331H22.9513V37.6663H21.2931V39.3331Z" fill="#D2CFCD"/>
<path d="M21.2931 37.666H22.9513V35.9996H21.2931V37.666Z" fill="#231F20"/>
<path d="M21.2931 35.9996H22.9513V34.333H21.2931V35.9996Z" fill="white"/>
<path d="M21.2931 34.333L22.9517 34.3331V32.6663H21.2931V34.333Z" fill="white"/>
<path d="M21.2931 40.9997H22.9513V39.3331H21.2931V40.9997Z" fill="#231F20"/>
<path d="M21.2931 20.9999H22.9513V19.3332H21.2931V20.9999Z" fill="#231F20"/>
<path d="M21.2931 22.6666H22.9513V20.9999H21.2931V22.6666Z" fill="#231F20"/>
<path d="M22.9513 20.9999H24.6097V19.3332H22.9513V20.9999Z" fill="#F36717"/>
<path d="M24.6101 20.9999H26.2687V19.3332H24.6101V20.9999Z" fill="#231F20"/>
<path d="M21.2931 32.6663H22.9517V30.9997H21.2931V32.6663Z" fill="white"/>
<path d="M21.2931 30.9994H22.9517V29.3331H21.2931V30.9994Z" fill="#231F20"/>
<path d="M21.2931 29.3331H22.9517V27.6664H21.2931V29.3331Z" fill="#F36717"/>
<path d="M21.2931 26H22.9513V24.3336H21.2931V26Z" fill="#231F20"/>
<path d="M21.2931 27.6664L22.9513 27.6665V26H21.2931V27.6664Z" fill="#F89C0E"/>
<path d="M42.8531 61H44.5118V59.3332H42.8531V61Z" fill="#231F20"/>
<path d="M44.5122 61H46.1704V59.3332H44.5122V61Z" fill="#231F20"/>
<path d="M26.2681 20.9999H27.9267V19.3332H26.2681V20.9999Z" fill="#F89C0E"/>
<path d="M21.2931 24.3332H22.9513V22.6666H21.2931V24.3332Z" fill="#231F20"/>
<path d="M59.4382 32.6665H61.0968V30.9997H59.4382V32.6665Z" fill="#F36717"/>
<path d="M59.4382 34.3331H61.0968V32.6665H59.4382V34.3331Z" fill="#F36717"/>
<path d="M59.4382 35.9998H61.0968V34.3331H59.4382V35.9998Z" fill="#F36717"/>
<path d="M59.4382 40.9997H61.0968V39.3329H59.4382V40.9997Z" fill="#F36717"/>
<path d="M59.4382 37.666H61.0968V35.9998H59.4382V37.666Z" fill="#F36717"/>
<path d="M59.4382 39.3329H61.0968V37.6663H59.4382V39.3329Z" fill="#F36717"/>
<path d="M59.4382 30.9994H61.0968V29.3331H59.4382V30.9994Z" fill="#F89C0E"/>
<path d="M59.4382 29.3331H61.0968V27.6664H59.4382V29.3331Z" fill="#231F20"/>
<path d="M59.4382 54.3329H61.0968V52.6661H59.4382V54.3329Z" fill="#C84316"/>
<path d="M59.4382 52.6668H61.0968V51H59.4382V52.6668Z" fill="#9E3410"/>
<path d="M59.4382 50.9996H61.0968V49.3328H59.4382V50.9996Z" fill="#231F20"/>
<path d="M59.4382 55.9996H61.0968V54.3333H59.4382V55.9996Z" fill="white"/>
<path d="M59.4382 44.3326H61.0968V42.6662H59.4382V44.3326Z" fill="#F36717"/>
<path d="M59.4382 45.9996H61.0968V44.3329H59.4382V45.9996Z" fill="#C84316"/>
<path d="M59.4382 49.3328H61.0968V47.6667H59.4382V49.3328Z" fill="#231F20"/>
<path d="M59.4382 42.6669H61.0968V41.0001H59.4382V42.6669Z" fill="#F36717"/>
<path d="M36.2191 20.9999H37.8777V19.3332H36.2191V20.9999Z" fill="#F36717"/>
<path d="M37.8781 20.9999H39.5368V19.3332H37.8781V20.9999Z" fill="#F36717"/>
<path d="M41.1952 20.9999H42.8538V19.3332H41.1952V20.9999Z" fill="#231F20"/>
<path d="M39.5361 20.9999H41.1948V19.3332H39.5361V20.9999Z" fill="#F36717"/>
<path d="M31.2441 20.9999H32.9028V19.3332H31.2441V20.9999Z" fill="#F36717"/>
<path d="M34.5601 20.9999H36.2187V19.3332H34.5601V20.9999Z" fill="#F36717"/>
<path d="M32.9021 20.9999H34.5601V19.3332H32.9021V20.9999Z" fill="#F36717"/>
<path d="M29.5851 20.9999H31.2437V19.3332H29.5851V20.9999Z" fill="#F36717"/>
<path d="M27.9271 20.9999H29.5857V19.3332H27.9271V20.9999Z" fill="#F89C0E"/>
<path d="M24.6101 19.3329H26.2687V17.6667H24.6101V19.3329Z" fill="#F36717"/>
<path d="M22.951 19.3329H24.6097V17.6667H22.951V19.3329Z" fill="#F36717"/>
<path d="M27.926 19.3329H29.5847V17.6667L27.926 17.6665V19.3329Z" fill="#231F20"/>
<path d="M21.2931 19.3329H22.951L22.9513 17.6665L21.2931 17.6667V19.3329Z" fill="#231F20"/>
<path d="M26.2681 19.3329H27.926L27.9263 17.6667H26.2681V19.3329Z" fill="#231F20"/>
<path d="M39.5361 19.3329H41.1943V17.6667H39.5361V19.3329Z" fill="#F36717"/>
<path d="M41.1952 19.3329H42.8538V17.6667H41.1952V19.3329Z" fill="#F36717"/>
<path d="M42.8531 19.3329H44.5118V17.6667H42.8531V19.3329Z" fill="#231F20"/>
<path d="M37.8781 19.3329H39.5368V17.6667H37.8781V19.3329Z" fill="#F36717"/>
<path d="M31.2441 19.3329H32.9028V17.6667H31.2441V19.3329Z" fill="#F89C0E"/>
<path d="M32.9021 19.3329H34.5607V17.6665L32.9021 17.6667V19.3329Z" fill="#F36717"/>
<path d="M34.5611 19.3329H36.2198V17.6665H34.5611V19.3329Z" fill="#F36717"/>
<path d="M36.2191 19.3329H37.8777V17.6667H36.2191V19.3329Z" fill="#F36717"/>
<path d="M59.4382 57.6662H61.0968V55.9996H59.4382V57.6662Z" fill="white"/>
<path d="M19.634 27.6665H21.2927V25.9998H19.634V27.6665Z" fill="#231F20"/>
<path d="M19.634 34.3331H21.2927V32.6663H19.634V34.3331Z" fill="white"/>
<path d="M19.634 32.6663H21.2927L21.2927 30.9997H19.634L19.634 32.6663Z" fill="#231F20"/>
<path d="M19.634 30.9994H21.2927V29.3331H19.634V30.9994Z" fill="#231F20"/>
<path d="M19.634 29.3331H21.2927V27.6665H19.634V29.3331Z" fill="#F89C0E"/>
<path d="M19.634 35.9998H21.2927L21.2927 34.3331H19.634L19.634 35.9998Z" fill="white"/>
<path d="M19.634 39.333H21.2927V37.6662H19.634V39.333Z" fill="#D2CFCD"/>
<path d="M19.634 40.9997H21.2927L21.2927 39.333H19.634L19.634 40.9997Z" fill="#231F20"/>
<path d="M19.634 37.6662H21.2927L21.2927 35.9998H19.634L19.634 37.6662Z" fill="#231F20"/>
<path d="M29.5851 19.3329H31.2433V17.6665L29.5851 17.6667V19.3329Z" fill="#F89C0E"/>
<path d="M61.0972 50.9996H62.7559V49.3329H61.0972V50.9996Z" fill="#231F20"/>
<path d="M61.0972 49.3329H62.7559V47.6667H61.0972V49.3329Z" fill="#C84316"/>
<path d="M61.0972 52.6668H62.7559V51H61.0972V52.6668Z" fill="#231F20"/>
<path d="M61.0972 55.9996H62.7559V54.3333H61.0972V55.9996Z" fill="#231F20"/>
<path d="M61.0972 54.3333H62.7559V52.6668H61.0972V54.3333Z" fill="#231F20"/>
<path d="M61.0972 57.6662H62.7559V55.9996H61.0972V57.6662Z" fill="#231F20"/>
<path d="M61.0972 40.9997H62.7559V39.3329H61.0972V40.9997Z" fill="#F36717"/>
<path d="M61.0972 44.3326H62.7559V42.6662H61.0972V44.3326Z" fill="#F36717"/>
<path d="M61.0972 47.6663H62.7559V45.9995H61.0972V47.6663Z" fill="#F36717"/>
<path d="M61.0972 45.9995H62.7559V44.3329H61.0972V45.9995Z" fill="#F36717"/>
<path d="M61.0972 42.6662H62.7559V40.9997H61.0972V42.6662Z" fill="#F36717"/>
<path d="M61.0972 59.3334H62.7559V57.6666H61.0972V59.3334Z" fill="#231F20"/>
<path d="M61.0972 61H62.7559V59.3334H61.0972V61Z" fill="#231F20"/>
<path d="M59.4382 61H61.0968V59.3332H59.4382V61Z" fill="#231F20"/>
<path d="M57.7802 61H59.4382V59.3332H57.7802V61Z" fill="#231F20"/>
<path d="M61.0972 39.3329H62.7559V37.6662H61.0972V39.3329Z" fill="#F36717"/>
<path d="M61.0972 35.9998H62.7559V34.333H61.0972V35.9998Z" fill="#F36717"/>
<path d="M61.0972 32.6665H62.7559V30.9997H61.0972V32.6665Z" fill="#F36717"/>
<path d="M61.0972 37.6662H62.7559V35.9998H61.0972V37.6662Z" fill="#F36717"/>
<path d="M61.0972 34.333H62.7559V32.6665H61.0972V34.333Z" fill="#F36717"/>
<path d="M61.0972 29.3332H62.7559V27.6664H61.0972V29.3332Z" fill="#231F20"/>
<path d="M61.0972 30.9994H62.7559V29.3332H61.0972V30.9994Z" fill="#F89C0E"/>
<path d="M59.4382 47.6663H61.0968V45.9996H59.4382V47.6663Z" fill="#C84316"/>
<path d="M24.6101 30.9994H26.2687V29.3331H24.6101V30.9994Z" fill="#231F20"/>
<path d="M24.6101 29.3331H26.2687V27.6664H24.6101V29.3331Z" fill="#F89C0E"/>
<path d="M24.6101 32.6665H26.2687V30.9997H24.6101V32.6665Z" fill="white"/>
<path d="M24.6101 26H26.2687V24.3336H24.6101V26Z" fill="#231F20"/>
<path d="M24.6101 27.6664H26.2687V26H24.6101V27.6664Z" fill="#231F20"/>
<path d="M24.6101 39.3331H26.2687V37.6663H24.6101V39.3331Z" fill="#D2CFCD"/>
<path d="M24.6101 37.666H26.2687V35.9996H24.6101V37.666Z" fill="#231F20"/>
<path d="M24.6101 34.3331H26.2687V32.6665H24.6101V34.3331Z" fill="white"/>
<path d="M24.6101 40.9997H26.2687V39.3331H24.6101V40.9997Z" fill="#231F20"/>
<path d="M24.6101 35.9996H26.2687V34.3331H24.6101V35.9996Z" fill="white"/>
<path d="M46.1712 57.6662H47.8294V55.9996H46.1712V57.6662Z" fill="#231F20"/>
<path d="M24.6101 24.3332H26.2683V22.6665H24.6101V24.3332Z" fill="#F36717"/>
<path d="M57.7802 55.9996H59.4382V54.3333H57.7802V55.9996Z" fill="#231F20"/>
<path d="M44.5122 57.6662H46.1704V55.9996H44.5122V57.6662Z" fill="white"/>
<path d="M57.7802 57.6662H59.4382L59.4385 55.9994L57.7802 55.9996V57.6662Z" fill="#231F20"/>
<path d="M39.5361 57.6662H41.1943V55.9996H39.5361V57.6662Z" fill="#231F20"/>
<path d="M41.1952 57.6662H42.8538V55.9996H41.1952V57.6662Z" fill="#231F20"/>
<path d="M42.8531 57.6662H44.5118V55.9996H42.8531V57.6662Z" fill="#231F20"/>
<path d="M56.1212 37.666H57.7798V35.9996H56.1212V37.666Z" fill="#F36717"/>
<path d="M57.7802 54.3329H59.4382V52.6661H57.7802V54.3329Z" fill="#231F20"/>
<path d="M56.1212 40.9997H57.7798V39.3329H56.1212V40.9997Z" fill="#F36717"/>
<path d="M26.2683 24.3332H27.9263V22.6665H26.2683V24.3332Z" fill="#F36717"/>
<path d="M56.1212 42.6669H57.7798V41.0001H56.1212V42.6669Z" fill="#F36717"/>
<path d="M56.1212 45.9996H57.7798V44.3329H56.1212V45.9996Z" fill="#231F20"/>
<path d="M56.1212 44.3326H57.7798V42.6662H56.1212V44.3326Z" fill="#C84316"/>
<path d="M56.1212 30.9994H57.7798V29.3331H56.1212V30.9994Z" fill="#F89C0E"/>
<path d="M56.1212 35.9996H57.7798V34.333H56.1212V35.9996Z" fill="#F36717"/>
<path d="M56.1212 32.6665H57.7798V30.9997H56.1212V32.6665Z" fill="#F36717"/>
<path d="M56.1212 29.3331H57.7798V27.6664H56.1212V29.3331Z" fill="#231F20"/>
<path d="M56.1212 34.333H57.7798V32.6665H56.1212V34.333Z" fill="#F36717"/>
<path d="M59.4382 59.3332H61.0968V57.6666H59.4382V59.3332Z" fill="#D2CFCD"/>
<path d="M56.1212 49.3331H57.7798V47.6667H56.1212V49.3331Z" fill="#C84316"/>
<path d="M56.1212 50.9996H57.7798V49.3331H56.1212V50.9996Z" fill="#C84316"/>
<path d="M56.1212 47.6663H57.7798V45.9996H56.1212V47.6663Z" fill="#9E3410"/>
<path d="M56.1212 39.3329H57.7798V37.6663H56.1212V39.3329Z" fill="#F36717"/>
<path d="M36.2191 24.3332H37.8777V22.6665H36.2191V24.3332Z" fill="#F36717"/>
<path d="M34.5601 24.3332H36.2187V22.6665H34.5601V24.3332Z" fill="#F36717"/>
<path d="M37.8781 24.3332H39.5368V22.6665H37.8781V24.3332Z" fill="#F36717"/>
<path d="M41.1952 24.3332H42.8538V22.6665H41.1952V24.3332Z" fill="#231F20"/>
<path d="M39.5361 24.3332H41.1943V22.6665H39.5361V24.3332Z" fill="#F36717"/>
<path d="M29.5851 24.3332H31.2437V22.6665H29.5851V24.3332Z" fill="#F36717"/>
<path d="M32.9021 24.3332H34.5601V22.6665H32.9021V24.3332Z" fill="#F36717"/>
<path d="M27.9263 24.3332H29.5847V22.6665H27.9263V24.3332Z" fill="#F36717"/>
<path d="M31.2441 24.3332H32.9028V22.6665H31.2441V24.3332Z" fill="#F36717"/>
<path d="M56.1212 52.6668H57.7798V51H56.1212V52.6668Z" fill="#231F20"/>
<path d="M22.9513 27.6665H24.6093V25.9998H22.951L22.9513 27.6665Z" fill="#F36717"/>
<path d="M22.951 34.3331H24.6097V32.6663H22.951V34.3331Z" fill="white"/>
<path d="M22.951 30.9994H24.6097V29.3331H22.951V30.9994Z" fill="#231F20"/>
<path d="M22.951 29.3331H24.6097V27.6664H22.951V29.3331Z" fill="#F89C0E"/>
<path d="M22.951 32.6663H24.6097V30.9997H22.951V32.6663Z" fill="white"/>
<path d="M22.9513 39.3331H24.6097V37.6663H22.9513V39.3331Z" fill="#D2CFCD"/>
<path d="M22.951 35.9998H24.6097V34.3331H22.951V35.9998Z" fill="white"/>
<path d="M22.9513 40.9997H24.6097V39.3331L22.951 39.3329L22.9513 40.9997Z" fill="#231F20"/>
<path d="M22.9513 37.666H24.6097V35.9998H22.951L22.9513 37.666Z" fill="#231F20"/>
<path d="M46.1712 59.3332H47.8294V57.6666H46.1712V59.3332Z" fill="#231F20"/>
<path d="M44.5122 59.3332H46.1704V57.6666H44.5122V59.3332Z" fill="#E7E3E2"/>
<path d="M57.7802 59.3332L59.4385 59.3334L59.4382 57.6666H57.7802V59.3332Z" fill="#231F20"/>
<path d="M42.8531 59.3332H44.5118V57.6666H42.8531V59.3332Z" fill="#231F20"/>
<path d="M24.6101 22.6665H26.2683V20.9998L24.6101 20.9999V22.6665Z" fill="#F89C0E"/>
<path d="M57.7802 29.3332H59.4385L59.4382 27.6664H57.7802V29.3332Z" fill="#231F20"/>
<path d="M57.7802 30.9994H59.4382L59.4385 29.3332H57.7802V30.9994Z" fill="#F89C0E"/>
<path d="M57.7802 34.3331H59.4382L59.4385 32.6663H57.7802V34.3331Z" fill="#F36717"/>
<path d="M57.7802 35.9998H59.4382L59.4385 34.333L57.7802 34.3331V35.9998Z" fill="#F36717"/>
<path d="M57.7802 32.6663H59.4385L59.4382 30.9997H57.7802V32.6663Z" fill="#F36717"/>
<path d="M57.7802 45.9996H59.4382V44.3329H57.7802V45.9996Z" fill="#231F20"/>
<path d="M57.7802 49.3331H59.4385L59.4382 47.6667H57.7802V49.3331Z" fill="#9E3410"/>
<path d="M57.7802 47.6663H59.4382L59.4385 45.9995L57.7802 45.9996V47.6663Z" fill="#231F20"/>
<path d="M57.7802 50.9996H59.4382L59.4385 49.3331H57.7802V50.9996Z" fill="#C84316"/>
<path d="M57.7802 40.9997H59.4382V39.3329H57.7802V40.9997Z" fill="#F36717"/>
<path d="M57.7802 39.3329L59.4385 39.3331L59.4382 37.6663H57.7802V39.3329Z" fill="#F36717"/>
<path d="M57.7802 37.666H59.4382L59.4385 35.9996L57.7802 35.9998V37.666Z" fill="#F36717"/>
<path d="M57.7802 44.3326H59.4382V42.6662H57.7802V44.3326Z" fill="#C84316"/>
<path d="M57.7802 42.6669H59.4382V41.0001H57.7802V42.6669Z" fill="#F36717"/>
<path d="M37.8781 22.6665H39.5368V20.9999H37.8781V22.6665Z" fill="#F36717"/>
<path d="M29.5851 22.6665H31.2437V20.9999H29.5851V22.6665Z" fill="#F36717"/>
<path d="M31.2441 22.6665H32.9028V20.9999H31.2441V22.6665Z" fill="#F36717"/>
<path d="M27.926 22.6666L29.5847 22.6665V20.9998H27.926V22.6666Z" fill="#F36717"/>
<path d="M32.9021 22.6665L34.5603 22.6666V20.9998L32.9021 20.9999V22.6665Z" fill="#F36717"/>
<path d="M34.5601 22.6665H36.2187V20.9999H34.5601V22.6665Z" fill="#F36717"/>
<path d="M36.2191 22.6665H37.8777V20.9999H36.2191V22.6665Z" fill="#F36717"/>
<path d="M22.9513 24.3332H24.6097V22.6665H22.951L22.9513 24.3332Z" fill="#F36717"/>
<path d="M26.2681 22.6666L27.9263 22.6665L27.926 20.9998L26.2681 20.9999V22.6666Z" fill="#F36717"/>
<path d="M22.951 22.6665H24.6097V20.9999L22.951 20.9998V22.6665Z" fill="#F36717"/>
<path d="M57.7802 52.6668H59.4382V51H57.7802V52.6668Z" fill="#C84316"/>
<path d="M39.5361 22.6665H41.1943V20.9998L39.5361 20.9999V22.6665Z" fill="#F36717"/>
<path d="M41.1952 22.6665H42.8538V20.9999H41.1952V22.6665Z" fill="#231F20"/>
<path d="M22.951 25.9998H24.6093V24.3336H22.9513L22.951 25.9998Z" fill="#F36717"/>
<path d="M79.3414 15.9995H81V14.3327H79.3414V15.9995Z" fill="#231F20"/>
<path d="M39.5361 7.66636H41.1943V6H39.5361V7.66636Z" fill="#231F20"/>
<path d="M37.8781 7.66636H39.5368V6H37.8781V7.66636Z" fill="#231F20"/>
<path d="M36.2191 7.66636H37.8777V6H36.2191V7.66636Z" fill="#231F20"/>
<path d="M26.2681 7.66636H27.9263V6H26.2681V7.66636Z" fill="#231F20"/>
<path d="M24.6101 7.66636H26.2687V6H24.6101V7.66636Z" fill="#231F20"/>
<path d="M74.3653 22.6666H76.0235V20.9998H74.3653V22.6666Z" fill="#231F20"/>
<path d="M74.3653 27.6665H76.0235V25.9998H74.3653V27.6665Z" fill="#231F20"/>
<path d="M74.3653 25.9998H76.0235V24.3336H74.3653V25.9998Z" fill="#231F20"/>
<path d="M74.3653 20.9998H76.0235V19.3332H74.3653V20.9998Z" fill="#231F20"/>
<path d="M74.3653 19.3329H76.0235V17.6665H74.3653V19.3329Z" fill="#231F20"/>
<path d="M74.3653 24.3333H76.0235L76.0235 22.6666H74.3653L74.3653 24.3333Z" fill="#231F20"/>
<path d="M74.3653 17.6665H76.0235L76.0235 15.9998H74.3653L74.3653 17.6665Z" fill="#D2CFCD"/>
<path d="M74.3653 12.6663H76.0235V10.9999H74.3653V12.6663Z" fill="#231F20"/>
<path d="M74.3653 14.3328H76.0235L76.0235 12.6663H74.3653L74.3653 14.3328Z" fill="white"/>
<path d="M74.3653 15.9995H76.0235V14.3328H74.3653V15.9995Z" fill="white"/>
<path d="M22.951 9.33289H24.6097V7.66611H22.951V9.33289Z" fill="#231F20"/>
<path d="M24.6101 9.33289H26.2687V7.66636H24.6101V9.33289Z" fill="#F89C0E"/>
<path d="M27.926 9.33289H29.5847V7.66611H27.926V9.33289Z" fill="#231F20"/>
<path d="M26.2681 9.33289H27.926L27.9263 7.66636H26.2681V9.33289Z" fill="#F89C0E"/>
<path d="M71.0483 12.6663H72.7065V10.9999H71.0483V12.6663Z" fill="#231F20"/>
<path d="M71.0483 15.9995H72.7065V14.3327H71.0483V15.9995Z" fill="white"/>
<path d="M71.0483 17.6667H72.7065V15.9999H71.0483V17.6667Z" fill="#231F20"/>
<path d="M71.0483 19.3329H72.7065V17.6667H71.0483V19.3329Z" fill="#F36717"/>
<path d="M71.0483 20.9999H72.7065V19.3332H71.0483V20.9999Z" fill="#F36717"/>
<path d="M71.0483 14.3334H72.7065V12.6666H71.0483V14.3334Z" fill="white"/>
<path d="M71.0483 30.9994H72.7065V29.3331H71.0483V30.9994Z" fill="#231F20"/>
<path d="M71.0483 26H72.7065V24.3336H71.0483V26Z" fill="#F36717"/>
<path d="M71.0483 29.3331H72.7065V27.6664H71.0483V29.3331Z" fill="#C84316"/>
<path d="M71.0483 24.3332H72.7065V22.6665H71.0483V24.3332Z" fill="#F36717"/>
<path d="M71.0483 22.6665H72.7065V20.9999H71.0483V22.6665Z" fill="#F36717"/>
<path d="M71.0483 27.6664H72.7065V26H71.0483V27.6664Z" fill="#F36717"/>
<path d="M41.1952 9.33289H42.8538V7.66611H41.1952V9.33289Z" fill="#231F20"/>
<path d="M39.5361 9.33289H41.1943V7.66636H39.5361V9.33289Z" fill="#F89C0E"/>
<path d="M37.8781 9.33289H39.5368V7.66636H37.8781V9.33289Z" fill="#F89C0E"/>
<path d="M34.5601 9.33289H36.2187V7.66611H34.5601V9.33289Z" fill="#231F20"/>
<path d="M36.2191 9.33289H37.8777V7.66636H36.2191V9.33289Z" fill="#F89C0E"/>
<path d="M72.7073 26H74.366V24.3336H72.7073V26Z" fill="#F36717"/>
<path d="M72.7073 20.9999H74.366V19.3332H72.7073V20.9999Z" fill="#F36717"/>
<path d="M72.7073 19.3329H74.366V17.6665H72.7073V19.3329Z" fill="#231F20"/>
<path d="M72.7073 17.6665H74.366V15.9999H72.7073V17.6665Z" fill="white"/>
<path d="M72.7073 22.6666H74.366V20.9999H72.7073V22.6666Z" fill="#F36717"/>
<path d="M72.7073 24.3332H74.366V22.6666H72.7073V24.3332Z" fill="#F36717"/>
<path d="M72.7073 15.9995H74.366V14.3327H72.7073V15.9995Z" fill="white"/>
<path d="M72.7073 14.3334H74.366V12.6666H72.7073V14.3334Z" fill="white"/>
<path d="M72.7073 12.6663H74.366V10.9999H72.7073V12.6663Z" fill="#231F20"/>
<path d="M72.7073 27.6665H74.366V26H72.7073V27.6665Z" fill="#C84316"/>
<path d="M72.7073 29.3332H74.366V27.6665H72.7073V29.3332Z" fill="#231F20"/>
<path d="M77.6823 14.3334H79.341V12.6666H77.6823V14.3334Z" fill="#231F20"/>
<path d="M77.6823 17.6667H79.341V15.9999H77.6823V17.6667Z" fill="#231F20"/>
<path d="M77.6823 15.9995H79.341V14.3327H77.6823V15.9995Z" fill="#D2CFCD"/>
<path d="M76.0235 15.9995H77.6819V14.3327H76.0233L76.0235 15.9995Z" fill="#D2CFCD"/>
<path d="M76.0233 17.6667H77.6819V15.9999L76.0235 15.9998L76.0233 17.6667Z" fill="#231F20"/>
<path d="M76.0233 14.3334H77.6819V12.6666H76.0233V14.3334Z" fill="white"/>
<path d="M76.0235 12.6663L77.6819 12.6663V10.9999L76.0235 10.9999V12.6663Z" fill="#231F20"/>
</g>
</svg>
