<svg width="468" height="469" viewBox="0 0 468 469" fill="none" xmlns="http://www.w3.org/2000/svg">
<rect x="14.0977" y="98.6699" width="439.527" height="142.238" fill="white"/>
<rect x="14.0977" y="298.571" width="439.527" height="70.4781" fill="white"/>
<rect x="71.7578" y="255.003" width="14.0956" height="28.1913" fill="#252021"/>
<rect x="14.0977" y="283.194" width="57.6639" height="14.0956" fill="#252021"/>
<rect x="128.141" y="283.194" width="107.639" height="14.0956" fill="#252021"/>
<rect x="14.0977" y="369.049" width="221.686" height="14.0956" fill="#252021"/>
<rect x="114.047" y="255.003" width="14.0956" height="28.1913" fill="#252021"/>
<rect x="71.7578" y="383.145" width="14.0956" height="57.6639" fill="#252021"/>
<rect x="114.047" y="383.145" width="14.0956" height="57.6639" fill="#252021"/>
<rect y="297.29" width="14.0956" height="85.8552" fill="#252021"/>
<rect x="57.668" y="440.809" width="14.0956" height="28.1913" fill="#252021"/>
<rect x="71.7578" y="454.904" width="56.3825" height="14.0956" fill="#252021"/>
<rect x="128.141" y="440.809" width="14.0956" height="28.1913" fill="#252021"/>
<rect y="98.6699" width="14.0956" height="156.333" fill="#252021"/>
<rect x="14.0977" y="240.907" width="221.045" height="14.0956" fill="#252021"/>
<rect x="28.1953" y="98.6689" width="14.0956" height="14.0956" fill="#ED5E00"/>
<rect x="14.0977" y="112.766" width="14.0956" height="14.0956" fill="#ED5E00"/>
<rect x="85.8555" y="98.6689" width="14.0956" height="14.0956" fill="#ED5E00"/>
<rect x="71.7617" y="112.766" width="14.0956" height="14.0956" fill="#ED5E00"/>
<rect x="57.668" y="126.861" width="14.0956" height="14.0956" fill="#ED5E00"/>
<rect x="43.5703" y="140.957" width="14.0956" height="14.0956" fill="#ED5E00"/>
<rect x="29.4727" y="155.052" width="14.0956" height="14.0956" fill="#ED5E00"/>
<rect x="42.2891" y="98.6689" width="43.5683" height="14.0956" fill="#FF7B00"/>
<rect x="28.1953" y="112.766" width="43.5683" height="14.0956" fill="#FF7B00"/>
<rect x="14.0977" y="126.861" width="43.5683" height="14.0956" fill="#FF7B00"/>
<rect x="14.0977" y="140.957" width="29.4727" height="14.0956" fill="#FF7B00"/>
<rect x="14.0977" y="155.052" width="15.377" height="14.0956" fill="#FF7B00"/>
<rect x="14.0977" y="169.147" width="15.377" height="15.377" fill="#ED5E00"/>
<rect x="142.238" y="98.6689" width="14.0956" height="14.0956" fill="#ED5E00"/>
<rect x="128.145" y="112.766" width="14.0956" height="14.0956" fill="#ED5E00"/>
<rect x="114.047" y="126.861" width="14.0956" height="14.0956" fill="#ED5E00"/>
<rect x="99.9531" y="140.957" width="14.0956" height="14.0956" fill="#ED5E00"/>
<rect x="85.8555" y="155.052" width="14.0956" height="14.0956" fill="#ED5E00"/>
<rect x="71.7617" y="169.147" width="14.0956" height="14.0956" fill="#ED5E00"/>
<rect x="57.668" y="183.243" width="14.0956" height="14.0956" fill="#ED5E00"/>
<rect x="43.5703" y="197.339" width="14.0956" height="14.0956" fill="#ED5E00"/>
<rect x="29.4727" y="211.435" width="14.0956" height="14.0956" fill="#ED5E00"/>
<rect x="14.0977" y="225.53" width="15.377" height="15.377" fill="#ED5E00"/>
<rect x="157.617" y="126.861" width="14.0956" height="14.0956" fill="#ED5E00"/>
<rect x="214" y="126.861" width="14.0956" height="14.0956" fill="#ED5E00"/>
<rect x="256.285" y="126.861" width="14.0956" height="14.0956" fill="#ED5E00"/>
<rect x="312.668" y="126.861" width="14.0956" height="14.0956" fill="#ED5E00"/>
<rect x="354.957" y="126.861" width="14.0956" height="14.0956" fill="#ED5E00"/>
<rect x="185.809" y="98.6689" width="14.0956" height="14.0956" fill="#ED5E00"/>
<rect x="171.715" y="112.765" width="14.0956" height="14.0956" fill="#ED5E00"/>
<rect x="143.523" y="140.956" width="14.0956" height="14.0956" fill="#ED5E00"/>
<rect x="129.426" y="155.051" width="14.0956" height="14.0956" fill="#ED5E00"/>
<rect x="115.332" y="169.146" width="14.0956" height="14.0956" fill="#ED5E00"/>
<rect x="101.238" y="183.242" width="14.0956" height="14.0956" fill="#ED5E00"/>
<rect x="87.1406" y="197.339" width="14.0956" height="14.0956" fill="#ED5E00"/>
<rect x="73.043" y="211.435" width="14.0956" height="14.0956" fill="#ED5E00"/>
<rect x="57.668" y="225.53" width="15.377" height="15.377" fill="#ED5E00"/>
<rect x="242.188" y="98.6689" width="14.0956" height="14.0956" fill="#ED5E00"/>
<rect x="228.094" y="112.765" width="14.0956" height="14.0956" fill="#ED5E00"/>
<rect x="199.902" y="140.955" width="14.0956" height="14.0956" fill="#ED5E00"/>
<rect x="185.805" y="155.051" width="14.0956" height="14.0956" fill="#ED5E00"/>
<rect x="171.711" y="169.146" width="14.0956" height="14.0956" fill="#ED5E00"/>
<rect x="157.617" y="183.242" width="14.0956" height="14.0956" fill="#ED5E00"/>
<rect x="143.52" y="197.339" width="14.0956" height="14.0956" fill="#ED5E00"/>
<rect x="129.422" y="211.435" width="14.0956" height="14.0956" fill="#ED5E00"/>
<rect x="114.047" y="225.529" width="15.377" height="15.377" fill="#ED5E00"/>
<rect x="284.477" y="98.6689" width="14.0956" height="14.0956" fill="#ED5E00"/>
<rect x="270.383" y="112.765" width="14.0956" height="14.0956" fill="#ED5E00"/>
<rect x="242.191" y="140.956" width="14.0956" height="14.0956" fill="#ED5E00"/>
<rect x="228.094" y="155.051" width="14.0956" height="14.0956" fill="#ED5E00"/>
<rect x="214" y="169.146" width="14.0956" height="14.0956" fill="#ED5E00"/>
<rect x="199.906" y="183.242" width="14.0956" height="14.0956" fill="#ED5E00"/>
<rect x="185.809" y="197.339" width="14.0956" height="14.0956" fill="#ED5E00"/>
<rect x="171.711" y="211.435" width="14.0956" height="14.0956" fill="#ED5E00"/>
<rect x="156.336" y="225.53" width="15.377" height="15.377" fill="#ED5E00"/>
<rect x="340.859" y="98.6689" width="14.0956" height="14.0956" fill="#ED5E00"/>
<rect x="326.766" y="112.765" width="14.0956" height="14.0956" fill="#ED5E00"/>
<rect x="298.574" y="140.956" width="14.0956" height="14.0956" fill="#ED5E00"/>
<rect x="284.477" y="155.051" width="14.0956" height="14.0956" fill="#ED5E00"/>
<rect x="270.383" y="169.146" width="14.0956" height="14.0956" fill="#ED5E00"/>
<rect x="256.289" y="183.242" width="14.0956" height="14.0956" fill="#ED5E00"/>
<rect x="242.191" y="197.339" width="14.0956" height="14.0956" fill="#ED5E00"/>
<rect x="228.094" y="211.435" width="14.0956" height="14.0956" fill="#ED5E00"/>
<rect x="212.719" y="225.53" width="15.377" height="15.377" fill="#ED5E00"/>
<rect x="383.145" y="98.6689" width="14.0956" height="14.0956" fill="#ED5E00"/>
<rect x="369.051" y="112.765" width="14.0956" height="14.0956" fill="#ED5E00"/>
<rect x="340.859" y="140.956" width="14.0956" height="14.0956" fill="#ED5E00"/>
<rect x="326.762" y="155.051" width="14.0956" height="14.0956" fill="#ED5E00"/>
<rect x="312.668" y="169.146" width="14.0956" height="14.0956" fill="#ED5E00"/>
<rect x="298.574" y="183.242" width="14.0956" height="14.0956" fill="#ED5E00"/>
<rect x="284.477" y="197.339" width="14.0956" height="14.0956" fill="#ED5E00"/>
<rect x="270.379" y="211.435" width="14.0956" height="14.0956" fill="#ED5E00"/>
<rect x="255.004" y="225.53" width="15.377" height="15.377" fill="#ED5E00"/>
<rect x="412.617" y="126.861" width="14.0956" height="14.0956" fill="#ED5E00"/>
<rect x="440.809" y="98.6689" width="14.0956" height="14.0956" fill="#ED5E00"/>
<rect x="426.715" y="112.765" width="14.0956" height="14.0956" fill="#ED5E00"/>
<rect x="398.523" y="140.956" width="14.0956" height="14.0956" fill="#ED5E00"/>
<rect x="384.426" y="155.051" width="14.0956" height="14.0956" fill="#ED5E00"/>
<rect x="370.332" y="169.146" width="14.0956" height="14.0956" fill="#ED5E00"/>
<rect x="356.238" y="183.242" width="14.0956" height="14.0956" fill="#ED5E00"/>
<rect x="342.141" y="197.339" width="14.0956" height="14.0956" fill="#ED5E00"/>
<rect x="328.043" y="211.435" width="14.0956" height="14.0956" fill="#ED5E00"/>
<rect x="312.668" y="225.53" width="15.377" height="15.377" fill="#ED5E00"/>
<rect x="440.812" y="140.957" width="14.0956" height="14.0956" fill="#ED5E00"/>
<rect x="426.715" y="155.052" width="14.0956" height="14.0956" fill="#ED5E00"/>
<rect x="412.617" y="169.147" width="14.0956" height="14.0956" fill="#ED5E00"/>
<rect x="398.523" y="183.243" width="14.0956" height="14.0956" fill="#ED5E00"/>
<rect x="384.43" y="197.339" width="14.0956" height="14.0956" fill="#ED5E00"/>
<rect x="370.332" y="211.435" width="14.0956" height="14.0956" fill="#ED5E00"/>
<rect x="354.957" y="225.53" width="15.377" height="15.377" fill="#ED5E00"/>
<rect x="439.527" y="197.339" width="14.0956" height="14.0956" fill="#ED5E00"/>
<rect x="425.434" y="211.435" width="14.0956" height="14.0956" fill="#ED5E00"/>
<rect x="410.055" y="225.53" width="15.377" height="15.377" fill="#ED5E00"/>
<rect x="99.9531" y="297.29" width="14.0956" height="15.377" fill="#ED5E00"/>
<rect x="85.8555" y="312.667" width="14.0956" height="14.0956" fill="#ED5E00"/>
<rect x="71.7617" y="326.763" width="14.0956" height="14.0956" fill="#ED5E00"/>
<rect x="57.668" y="340.858" width="14.0956" height="14.0956" fill="#ED5E00"/>
<rect x="43.5703" y="354.953" width="14.0956" height="14.0956" fill="#ED5E00"/>
<rect x="57.668" y="297.29" width="14.0956" height="15.377" fill="#ED5E00"/>
<rect x="43.5703" y="312.667" width="14.0956" height="14.0956" fill="#ED5E00"/>
<rect x="29.4727" y="326.763" width="14.0956" height="14.0956" fill="#ED5E00"/>
<rect x="14.0977" y="340.858" width="15.377" height="15.377" fill="#ED5E00"/>
<rect x="156.336" y="297.29" width="14.0956" height="15.377" fill="#ED5E00"/>
<rect x="142.238" y="312.667" width="14.0956" height="14.0956" fill="#ED5E00"/>
<rect x="128.145" y="326.763" width="14.0956" height="14.0956" fill="#ED5E00"/>
<rect x="114.051" y="340.858" width="14.0956" height="14.0956" fill="#ED5E00"/>
<rect x="99.9531" y="354.953" width="14.0956" height="14.0956" fill="#ED5E00"/>
<rect x="198.625" y="297.29" width="14.0956" height="15.377" fill="#ED5E00"/>
<rect x="184.527" y="312.667" width="14.0956" height="14.0956" fill="#ED5E00"/>
<rect x="170.434" y="326.763" width="14.0956" height="14.0956" fill="#ED5E00"/>
<rect x="156.34" y="340.858" width="14.0956" height="14.0956" fill="#ED5E00"/>
<rect x="142.242" y="354.953" width="14.0956" height="14.0956" fill="#ED5E00"/>
<rect x="256.285" y="297.29" width="14.0956" height="15.377" fill="#ED5E00"/>
<rect x="242.188" y="312.667" width="14.0956" height="14.0956" fill="#ED5E00"/>
<rect x="228.094" y="326.763" width="14.0956" height="14.0956" fill="#ED5E00"/>
<rect x="214" y="340.858" width="14.0956" height="14.0956" fill="#ED5E00"/>
<rect x="199.902" y="354.953" width="14.0956" height="14.0956" fill="#ED5E00"/>
<rect x="298.574" y="297.29" width="14.0956" height="15.377" fill="#ED5E00"/>
<rect x="284.477" y="312.667" width="14.0956" height="14.0956" fill="#ED5E00"/>
<rect x="270.383" y="326.763" width="14.0956" height="14.0956" fill="#ED5E00"/>
<rect x="256.289" y="340.858" width="14.0956" height="14.0956" fill="#ED5E00"/>
<rect x="242.191" y="354.953" width="14.0956" height="14.0956" fill="#ED5E00"/>
<rect x="356.238" y="297.29" width="14.0956" height="15.377" fill="#ED5E00"/>
<rect x="342.141" y="312.667" width="14.0956" height="14.0956" fill="#ED5E00"/>
<rect x="328.047" y="326.763" width="14.0956" height="14.0956" fill="#ED5E00"/>
<rect x="313.953" y="340.858" width="14.0956" height="14.0956" fill="#ED5E00"/>
<rect x="299.855" y="354.953" width="14.0956" height="14.0956" fill="#ED5E00"/>
<rect x="398.523" y="297.29" width="14.0956" height="15.377" fill="#ED5E00"/>
<rect x="384.426" y="312.667" width="14.0956" height="14.0956" fill="#ED5E00"/>
<rect x="370.332" y="326.763" width="14.0956" height="14.0956" fill="#ED5E00"/>
<rect x="356.238" y="340.858" width="14.0956" height="14.0956" fill="#ED5E00"/>
<rect x="342.141" y="354.953" width="14.0956" height="14.0956" fill="#ED5E00"/>
<rect x="439.531" y="312.666" width="14.0956" height="14.0956" fill="#ED5E00"/>
<rect x="426.715" y="326.762" width="14.0956" height="14.0956" fill="#ED5E00"/>
<rect x="398.523" y="354.953" width="14.0956" height="14.0956" fill="#ED5E00"/>
<rect x="412.621" y="340.857" width="14.0956" height="14.0956" fill="#ED5E00"/>
<rect x="128.141" y="126.86" width="29.4727" height="14.0956" fill="#FF7B00"/>
<rect x="156.332" y="98.6689" width="29.4727" height="14.0956" fill="#FF7B00"/>
<rect x="142.238" y="112.765" width="29.4727" height="14.0956" fill="#FF7B00"/>
<rect x="114.047" y="140.956" width="29.4727" height="14.0956" fill="#FF7B00"/>
<rect x="99.9531" y="155.051" width="29.4727" height="14.0956" fill="#FF7B00"/>
<rect x="85.8555" y="169.146" width="29.4727" height="14.0956" fill="#FF7B00"/>
<rect x="71.7578" y="183.242" width="29.4727" height="14.0956" fill="#FF7B00"/>
<rect x="57.6641" y="197.339" width="29.4727" height="14.0956" fill="#FF7B00"/>
<rect x="43.5703" y="211.435" width="29.4727" height="14.0956" fill="#FF7B00"/>
<rect x="29.4727" y="225.53" width="29.4727" height="15.377" fill="#FF7B00"/>
<rect x="228.094" y="126.86" width="29.4727" height="14.0956" fill="#FF7B00"/>
<rect x="256.285" y="98.6689" width="29.4727" height="14.0956" fill="#FF7B00"/>
<rect x="242.191" y="112.765" width="29.4727" height="14.0956" fill="#FF7B00"/>
<rect x="214" y="140.956" width="29.4727" height="14.0956" fill="#FF7B00"/>
<rect x="199.906" y="155.051" width="29.4727" height="14.0956" fill="#FF7B00"/>
<rect x="185.809" y="169.146" width="29.4727" height="14.0956" fill="#FF7B00"/>
<rect x="171.711" y="183.242" width="29.4727" height="14.0956" fill="#FF7B00"/>
<rect x="157.617" y="197.339" width="29.4727" height="14.0956" fill="#FF7B00"/>
<rect x="143.523" y="211.435" width="29.4727" height="14.0956" fill="#FF7B00"/>
<rect x="129.426" y="225.53" width="29.4727" height="15.377" fill="#FF7B00"/>
<rect x="326.762" y="126.86" width="29.4727" height="14.0956" fill="#FF7B00"/>
<rect x="354.953" y="98.6689" width="29.4727" height="14.0956" fill="#FF7B00"/>
<rect x="340.859" y="112.765" width="29.4727" height="14.0956" fill="#FF7B00"/>
<rect x="312.668" y="140.956" width="29.4727" height="14.0956" fill="#FF7B00"/>
<rect x="298.574" y="155.051" width="29.4727" height="14.0956" fill="#FF7B00"/>
<rect x="284.477" y="169.146" width="29.4727" height="14.0956" fill="#FF7B00"/>
<rect x="270.379" y="183.242" width="29.4727" height="14.0956" fill="#FF7B00"/>
<rect x="256.285" y="197.339" width="29.4727" height="14.0956" fill="#FF7B00"/>
<rect x="242.191" y="211.435" width="29.4727" height="14.0956" fill="#FF7B00"/>
<rect x="228.094" y="225.53" width="29.4727" height="15.377" fill="#FF7B00"/>
<rect x="426.711" y="126.859" width="28.1913" height="14.0956" fill="#FF7B00"/>
<rect x="440.809" y="112.764" width="14.0956" height="14.0956" fill="#FF7B00"/>
<rect x="425.43" y="225.529" width="28.1913" height="15.377" fill="#FF7B00"/>
<rect x="412.617" y="140.955" width="29.4727" height="14.0956" fill="#FF7B00"/>
<rect x="398.523" y="155.051" width="29.4727" height="14.0956" fill="#FF7B00"/>
<rect x="384.426" y="169.146" width="29.4727" height="14.0956" fill="#FF7B00"/>
<rect x="370.328" y="183.241" width="29.4727" height="14.0956" fill="#FF7B00"/>
<rect x="356.234" y="197.338" width="29.4727" height="14.0956" fill="#FF7B00"/>
<rect x="342.141" y="211.434" width="29.4727" height="14.0956" fill="#FF7B00"/>
<rect x="328.043" y="225.529" width="29.4727" height="15.377" fill="#FF7B00"/>
<rect x="439.527" y="211.434" width="14.0956" height="14.0956" fill="#FF7B00"/>
<rect x="71.7617" y="297.29" width="28.1913" height="15.377" fill="#FF7B00"/>
<rect x="57.668" y="312.667" width="28.1913" height="14.0956" fill="#FF7B00"/>
<rect x="43.5703" y="326.763" width="28.1913" height="14.0956" fill="#FF7B00"/>
<rect x="29.4727" y="340.858" width="28.1913" height="14.0956" fill="#FF7B00"/>
<rect x="14.0977" y="354.953" width="29.4727" height="14.0956" fill="#FF7B00"/>
<rect x="170.43" y="297.29" width="28.1913" height="15.377" fill="#FF7B00"/>
<rect x="156.332" y="312.667" width="28.1913" height="14.0956" fill="#FF7B00"/>
<rect x="142.238" y="326.763" width="28.1913" height="14.0956" fill="#FF7B00"/>
<rect x="128.145" y="340.858" width="28.1913" height="14.0956" fill="#FF7B00"/>
<rect x="114.047" y="354.953" width="29.4727" height="14.0956" fill="#FF7B00"/>
<rect x="270.379" y="297.29" width="28.1913" height="15.377" fill="#FF7B00"/>
<rect x="256.281" y="312.667" width="28.1913" height="14.0956" fill="#FF7B00"/>
<rect x="242.188" y="326.763" width="28.1913" height="14.0956" fill="#FF7B00"/>
<rect x="228.094" y="340.858" width="28.1913" height="14.0956" fill="#FF7B00"/>
<rect x="213.996" y="354.953" width="29.4727" height="14.0956" fill="#FF7B00"/>
<rect x="370.328" y="297.29" width="28.1913" height="15.377" fill="#FF7B00"/>
<rect x="356.23" y="312.667" width="28.1913" height="14.0956" fill="#FF7B00"/>
<rect x="342.137" y="326.763" width="28.1913" height="14.0956" fill="#FF7B00"/>
<rect x="328.043" y="340.858" width="28.1913" height="14.0956" fill="#FF7B00"/>
<rect x="313.945" y="354.953" width="29.4727" height="14.0956" fill="#FF7B00"/>
<rect x="440.809" y="326.762" width="12.8142" height="14.0956" fill="#FF7B00"/>
<rect x="426.715" y="340.857" width="26.9098" height="14.0956" fill="#FF7B00"/>
<rect x="412.617" y="354.953" width="41.0055" height="14.0956" fill="#FF7B00"/>
<rect x="71.7578" width="56.3825" height="14.0956" fill="#252021"/>
<rect x="57.6641" y="14.0957" width="14.0956" height="42.2869" fill="#252021"/>
<rect x="128.141" y="14.0957" width="14.0956" height="42.2869" fill="#252021"/>
<rect x="14.0977" y="84.5742" width="221.045" height="14.0956" fill="#252021"/>
<rect x="71.7578" y="56.3818" width="14.0956" height="28.1913" fill="#252021"/>
<rect x="114.047" y="56.3818" width="14.0956" height="29.4727" fill="#252021"/>
<rect x="114.047" y="56.3818" width="14.0956" height="28.1913" fill="#252021"/>
<rect x="71.7578" width="56.3825" height="14.0956" fill="#252021"/>
<rect x="71.7578" y="255.003" width="14.0956" height="28.1913" fill="#252021"/>
<rect x="14.0977" y="283.194" width="57.6639" height="14.0956" fill="#252021"/>
<rect x="85.8555" y="269.099" width="28.1913" height="14.0956" fill="#888382"/>
<rect x="85.8555" y="269.099" width="28.1913" height="14.0956" fill="#ADACAC"/>
<rect x="85.8555" y="255.003" width="28.1913" height="14.0956" fill="#888382"/>
<rect x="85.8555" y="255.003" width="28.1913" height="14.0956" fill="#848482"/>
<rect x="71.7578" y="283.194" width="57.6639" height="14.0956" fill="#C34800"/>
<rect x="128.141" y="283.194" width="107.639" height="14.0956" fill="#252021"/>
<rect x="14.0977" y="369.049" width="221.686" height="14.0956" fill="#252021"/>
<rect x="114.047" y="255.003" width="14.0956" height="28.1913" fill="#252021"/>
<rect x="71.7578" y="383.145" width="14.0956" height="57.6639" fill="#252021"/>
<rect x="114.047" y="383.145" width="14.0956" height="57.6639" fill="#252021"/>
<rect y="297.29" width="14.0956" height="85.8552" fill="#252021"/>
<rect x="57.6641" y="440.809" width="14.0956" height="28.1913" fill="#252021"/>
<rect x="71.7578" y="454.904" width="56.3825" height="14.0956" fill="#252021"/>
<rect x="71.7578" y="440.809" width="56.3825" height="14.0956" fill="#454746"/>
<rect x="85.8555" y="397.24" width="28.1913" height="43.5683" fill="#ADACAC"/>
<rect x="128.141" y="440.809" width="14.0956" height="28.1913" fill="#252021"/>
<rect x="57.6641" y="14.0957" width="14.0956" height="42.2869" fill="#252021"/>
<rect x="128.141" y="14.0957" width="14.0956" height="42.2869" fill="#252021"/>
<rect y="98.6699" width="14.0956" height="156.333" fill="#252021"/>
<rect x="14.0977" y="84.5742" width="221.045" height="14.0956" fill="#252021"/>
<rect x="14.0977" y="240.907" width="221.045" height="14.0956" fill="#252021"/>
<rect x="71.7578" y="56.3818" width="14.0956" height="28.1913" fill="#252021"/>
<rect x="114.047" y="56.3818" width="14.0956" height="29.4727" fill="#252021"/>
<rect x="114.047" y="56.3818" width="14.0956" height="28.1913" fill="#252021"/>
<rect x="71.7578" y="14.0957" width="42.2869" height="14.0956" fill="#EC3F45"/>
<rect x="71.7578" y="28.1914" width="14.0956" height="14.0956" fill="#EC3F45"/>
<rect x="114.047" y="14.0957" width="14.0956" height="14.0956" fill="#B00014"/>
<rect x="85.8555" y="28.1914" width="42.2869" height="14.0956" fill="#B00014"/>
<rect x="71.7578" y="42.2871" width="56.3825" height="14.0956" fill="#B00014"/>
<rect x="85.8555" y="56.3818" width="28.1913" height="14.0956" fill="#68000D"/>
<rect x="85.8555" y="70.4775" width="28.1913" height="14.0956" fill="#B0AFAD"/>
<rect x="85.8555" y="383.145" width="28.1913" height="14.0956" fill="#888382"/>
<rect x="85.8555" y="383.145" width="28.1913" height="14.0956" fill="#848482"/>
<rect width="56.3825" height="14.0956" transform="matrix(-1 0 0 1 395.961 0)" fill="#252021"/>
<rect width="14.0956" height="42.2869" transform="matrix(-1 0 0 1 410.055 14.0957)" fill="#252021"/>
<rect width="14.0956" height="42.2869" transform="matrix(-1 0 0 1 339.578 14.0957)" fill="#252021"/>
<rect width="221.045" height="14.0956" transform="matrix(-1 0 0 1 453.621 84.5742)" fill="#252021"/>
<rect width="14.0956" height="28.1913" transform="matrix(-1 0 0 1 395.961 56.3818)" fill="#252021"/>
<rect width="14.0956" height="29.4727" transform="matrix(-1 0 0 1 353.672 56.3818)" fill="#252021"/>
<rect width="14.0956" height="28.1913" transform="matrix(-1 0 0 1 353.672 56.3818)" fill="#252021"/>
<rect width="56.3825" height="14.0956" transform="matrix(-1 0 0 1 395.961 0)" fill="#252021"/>
<rect width="14.0956" height="28.1913" transform="matrix(-1 0 0 1 395.961 255.003)" fill="#252021"/>
<rect width="57.6639" height="14.0956" transform="matrix(-1 0 0 1 453.621 283.194)" fill="#252021"/>
<rect width="28.1913" height="14.0956" transform="matrix(-1 0 0 1 381.863 269.099)" fill="#888382"/>
<rect width="28.1913" height="14.0956" transform="matrix(-1 0 0 1 381.863 269.099)" fill="#ADACAC"/>
<rect width="28.1913" height="14.0956" transform="matrix(-1 0 0 1 381.863 255.003)" fill="#888382"/>
<rect width="28.1913" height="14.0956" transform="matrix(-1 0 0 1 381.863 255.003)" fill="#848482"/>
<rect width="57.6639" height="14.0956" transform="matrix(-1 0 0 1 395.961 283.194)" fill="#C34800"/>
<rect width="107.639" height="14.0956" transform="matrix(-1 0 0 1 339.578 283.194)" fill="#252021"/>
<rect width="221.686" height="14.0956" transform="matrix(-1 0 0 1 453.621 369.049)" fill="#252021"/>
<rect width="14.0956" height="28.1913" transform="matrix(-1 0 0 1 353.672 255.003)" fill="#252021"/>
<rect width="14.0956" height="57.6639" transform="matrix(-1 0 0 1 395.961 383.145)" fill="#252021"/>
<rect width="14.0956" height="57.6639" transform="matrix(-1 0 0 1 353.672 383.145)" fill="#252021"/>
<rect width="14.0956" height="85.8552" transform="matrix(-1 0 0 1 467.719 297.29)" fill="#252021"/>
<rect width="14.0956" height="28.1913" transform="matrix(-1 0 0 1 410.055 440.809)" fill="#252021"/>
<rect width="56.3825" height="14.0956" transform="matrix(-1 0 0 1 395.961 454.904)" fill="#252021"/>
<rect width="56.3825" height="14.0956" transform="matrix(-1 0 0 1 395.961 440.809)" fill="#454746"/>
<rect width="28.1913" height="43.5683" transform="matrix(-1 0 0 1 381.863 397.24)" fill="#ADACAC"/>
<rect width="14.0956" height="28.1913" transform="matrix(-1 0 0 1 339.578 440.809)" fill="#252021"/>
<rect width="14.0956" height="42.2869" transform="matrix(-1 0 0 1 410.055 14.0957)" fill="#252021"/>
<rect width="14.0956" height="42.2869" transform="matrix(-1 0 0 1 339.578 14.0957)" fill="#252021"/>
<rect width="14.0956" height="156.333" transform="matrix(-1 0 0 1 467.719 98.6699)" fill="#252021"/>
<rect width="221.045" height="14.0956" transform="matrix(-1 0 0 1 453.621 84.5742)" fill="#252021"/>
<rect width="221.045" height="14.0956" transform="matrix(-1 0 0 1 453.621 240.907)" fill="#252021"/>
<rect width="14.0956" height="28.1913" transform="matrix(-1 0 0 1 395.961 56.3818)" fill="#252021"/>
<rect width="14.0956" height="29.4727" transform="matrix(-1 0 0 1 353.672 56.3818)" fill="#252021"/>
<rect width="14.0956" height="28.1913" transform="matrix(-1 0 0 1 353.672 56.3818)" fill="#252021"/>
<rect width="42.2869" height="14.0956" transform="matrix(-1 0 0 1 395.961 14.0957)" fill="#EC3F45"/>
<rect width="14.0956" height="14.0956" transform="matrix(-1 0 0 1 395.961 28.1914)" fill="#EC3F45"/>
<rect width="14.0956" height="14.0956" transform="matrix(-1 0 0 1 353.672 14.0957)" fill="#B00014"/>
<rect width="42.2869" height="14.0956" transform="matrix(-1 0 0 1 381.863 28.1914)" fill="#B00014"/>
<rect width="56.3825" height="14.0956" transform="matrix(-1 0 0 1 395.961 42.2871)" fill="#B00014"/>
<rect width="28.1913" height="14.0956" transform="matrix(-1 0 0 1 381.863 56.3818)" fill="#68000D"/>
<rect width="28.1913" height="14.0956" transform="matrix(-1 0 0 1 381.863 70.4775)" fill="#B0AFAD"/>
<rect width="28.1913" height="14.0956" transform="matrix(-1 0 0 1 381.863 383.145)" fill="#888382"/>
<rect width="28.1913" height="14.0956" transform="matrix(-1 0 0 1 381.863 383.145)" fill="#848482"/>
</svg>
