<svg width="234" height="69" viewBox="0 0 234 69" fill="none" xmlns="http://www.w3.org/2000/svg">
<path fill-rule="evenodd" clip-rule="evenodd" d="M222.29 39.8147L228.561 41.3996L228.859 41.0035C230.849 38.3593 232.356 35.2834 233.215 31.8752C236.674 18.1663 228.374 4.24679 214.676 0.785199C200.979 -2.67639 187.071 5.63073 183.612 19.3397C180.153 33.0486 188.454 46.9681 202.151 50.4297C205.216 51.2043 208.294 51.3897 211.263 51.0563C211.648 51.0131 212.031 50.9611 212.412 50.9007L212.897 50.8235L214.501 44.4668L219.274 45.6729L217.74 51.7517L225.404 53.6891L227.34 46.0182L221.121 44.4463L222.29 39.8147ZM213.961 43.5604L213.96 43.5638L212.295 50.1634C211.925 50.2221 211.553 50.2725 211.18 50.3144C210.82 50.3549 210.458 50.3876 210.094 50.4121C210.458 50.3876 210.82 50.355 211.18 50.3145C211.553 50.2726 211.925 50.2222 212.295 50.1635L213.96 43.5639L213.961 43.5604ZM208.771 34.8621L214.969 36.4288L216.541 30.2016L222.755 31.7725C223.075 31.0259 223.34 30.2444 223.545 29.4313C225.655 21.0677 220.591 12.5756 212.235 10.4638C203.878 8.35192 195.393 13.42 193.283 21.7836C191.173 30.1472 196.236 38.6392 204.593 40.7511C205.456 40.9691 206.32 41.1106 207.177 41.1799L208.771 34.8621ZM32.4407 6.98765L30.7981 0.782719L4.55724 7.74059L6.19977 13.9455L0 15.5894L10.2372 54.262L24.0785 50.5919L20.7934 38.182L39.3928 33.2504L37.7502 27.0454L43.95 25.4015L38.6404 5.34375L32.4407 6.98765ZM10.767 53.3492L10.7671 53.3493L23.1666 50.0616L19.8816 37.6517L38.4809 32.72L36.8383 26.5151L43.0381 24.8712L38.1105 6.25641L38.1105 6.25643L39.7529 12.4612L41.3955 18.6662L43.038 24.8711L36.8382 26.515L38.4808 32.7199L32.281 34.3638L26.0812 36.0077L19.8814 37.6516L21.524 43.8565L23.1665 50.0615L16.9667 51.7054L10.767 53.3492ZM31.9107 7.90019L30.2682 1.69537L30.2682 1.69539L31.9107 7.90021L31.9107 7.90019ZM67.1042 16.3738L53.1795 13.0347L49.8431 26.971L56.0802 28.4667L54.5858 34.709L60.823 36.2046L59.6761 40.9953L53.439 39.4996L51.9445 45.7419L45.7074 44.2463L42.3711 58.1826L56.2958 61.5217L59.2846 49.0371L65.5218 50.5328L67.0162 44.2904L71.8028 45.4383L70.3084 51.6806L76.5455 53.1762L73.5567 65.6609L87.4815 69L90.8178 55.0637L84.5807 53.568L86.0751 47.3257L79.838 45.83L80.9849 41.0394L87.222 42.5351L88.7164 36.2928L94.9535 37.7884L98.2899 23.8521L84.3651 20.5129L81.3763 32.9976L75.1392 31.5019L73.6448 37.7442L68.8581 36.5964L70.3525 30.3541L64.1154 28.8584L67.1042 16.3738ZM55.4849 34.157L55.4849 34.157L61.7219 35.6527L61.7219 35.6526L55.4849 34.157ZM56.9791 27.9147L56.9792 27.9146L50.7421 26.419L50.7421 26.4191L56.9791 27.9147ZM66.2051 16.9257L64.7107 23.168L63.2163 29.4103L63.2164 29.4104L64.7107 23.168L66.2052 16.9257L66.2051 16.9257ZM69.4534 30.9059L67.959 37.1483L67.9591 37.1484L69.4535 30.906L69.4534 30.9059ZM43.2701 57.6307L43.2701 57.6306L49.5071 59.1262L55.7442 60.6219L57.2386 54.3796L58.7331 48.1372L58.7332 48.1373L55.7443 60.622L43.2701 57.6307ZM64.9702 49.6329L66.4646 43.3906L66.4647 43.3907L64.9703 49.633L64.9702 49.6329ZM86.93 68.1002L86.9299 68.1002L88.4243 61.8578L89.9187 55.6155L89.9188 55.6156L86.93 68.1002ZM85.1761 47.8776L83.6817 54.12L83.6816 54.1199L85.176 47.8775L85.1761 47.8776ZM78.939 46.382L80.4334 40.1397L80.4333 40.1396L78.9389 46.3819L78.939 46.382ZM86.6704 41.6352L88.1648 35.3929L88.1649 35.393L86.6705 41.6353L86.6704 41.6352ZM94.402 36.8886L94.4021 36.8886L97.3909 24.404L97.3908 24.4039L95.8964 30.6462L94.402 36.8886ZM101.654 44.741L102.698 51.9861L141.894 46.3253L140.431 36.182L117.749 39.458L135.828 9.03117L134.791 1.84133L98.049 7.14788L99.4953 17.1786L119.668 14.2652L101.654 44.741ZM141.049 45.6931L103.33 51.1407L103.33 51.1408L141.049 45.6931ZM121.102 13.3039L121.102 13.3038L100.127 16.3332L100.127 16.3333L121.102 13.3039ZM116.31 40.4198L135.052 8.87653L116.309 40.4199L116.31 40.4198ZM25.1811 10.4568L29.7267 27.6286L18.7689 30.5341L14.2233 13.3623L25.1811 10.4568ZM18.239 31.4467L13.3114 12.832L25.7109 9.54422L25.7109 9.54411L19.5111 11.188L13.3113 12.8319L14.9539 19.0368L16.5964 25.2417L18.2389 31.4467L18.239 31.4467ZM164.384 64.54C174.928 64.54 183.476 55.9852 183.476 45.4323C183.476 34.8794 174.928 26.3246 164.384 26.3246C153.84 26.3246 145.292 34.8794 145.292 45.4323C145.292 55.9852 153.84 64.54 164.384 64.54ZM173.482 45.4323C173.482 50.4614 169.409 54.5383 164.384 54.5383C159.359 54.5383 155.285 50.4614 155.285 45.4323C155.285 40.4032 159.359 36.3263 164.384 36.3263C169.409 36.3263 173.482 40.4032 173.482 45.4323Z" fill="#11A729"/>
</svg>
