<svg width="176" height="131" viewBox="0 0 176 131" fill="none" xmlns="http://www.w3.org/2000/svg">
<path d="M76.6577 74H79.3152V71.3332H76.6577V74Z" fill="#231F20"/>
<path d="M76.6577 71.3332H79.3152V68.6662H76.6577V71.3332Z" fill="#7D726F"/>
<path d="M76.6577 63.3336H79.3152V60.6668H76.6577V63.3336Z" fill="#231F20"/>
<path d="M76.6577 68.6662H79.3152V66H76.6577V68.6662Z" fill="#A89E9B"/>
<path d="M76.6577 66H79.3152V63.333H76.6577V66Z" fill="#C7C0BE"/>
<path d="M74.0002 68.6662H76.6583V66H74.0002V68.6662Z" fill="#231F20"/>
<path d="M74.0002 66H76.6583V63.333H74.0002V66Z" fill="#231F20"/>
<path d="M74.0002 71.3331H76.6583V68.6662H74.0002L74.0002 71.3331Z" fill="#231F20"/>
<path d="M156.394 57.9997H159.052V55.3335H156.394V57.9997Z" fill="#655C59"/>
<path d="M156.394 71.3331H159.052V68.6662H156.394V71.3331Z" fill="#231F20"/>
<path d="M156.394 63.3336H159.052V60.6668H156.394V63.3336Z" fill="#655C59"/>
<path d="M156.394 60.6668H159.052V57.9997H156.394V60.6668Z" fill="#A89E9B"/>
<path d="M156.394 68.6662H159.052V66H156.394V68.6662Z" fill="#7D726F"/>
<path d="M156.394 66H159.052V63.333H156.394V66Z" fill="#655C59"/>
<path d="M156.394 103.333H159.052V100.666H156.394V103.333Z" fill="#231F20"/>
<path d="M156.394 100.666H159.052V97.9999H156.394V100.666Z" fill="#231F20"/>
<path d="M156.394 97.9999H159.052V95.3337H156.394V97.9999Z" fill="#231F20"/>
<path d="M156.394 95.3337H159.052V92.6667H156.394V95.3337Z" fill="#231F20"/>
<path d="M156.394 44.667H159.052V42.0002H156.394V44.667Z" fill="#655C59"/>
<path d="M156.394 50.0002H159.052V47.3334H156.394V50.0002Z" fill="#A89E9B"/>
<path d="M156.394 47.3334H159.052V44.6664H156.394V47.3334Z" fill="#655C59"/>
<path d="M156.394 52.6665H159.052V50.0002H156.394V52.6665Z" fill="#A89E9B"/>
<path d="M156.394 55.3335H159.052V52.6665H156.394V55.3335Z" fill="#655C59"/>
<path d="M156.394 36.6668H159.052V34H156.394V36.6668Z" fill="#231F20"/>
<path d="M156.394 39.3338H159.052V36.6668H156.394V39.3338Z" fill="#C7C0BE"/>
<path d="M156.394 42.0002H159.052V39.3338H156.394V42.0002Z" fill="#655C59"/>
<path d="M151.079 52.6665H153.737V50.0003H151.079V52.6665Z" fill="#231F20"/>
<path d="M151.079 50.0003H153.737V47.3334H151.079V50.0003Z" fill="#231F20"/>
<path d="M151.079 44.667H153.737V42.0002H151.079V44.667Z" fill="#231F20"/>
<path d="M151.079 42.0002H153.737V39.3339H151.079V42.0002Z" fill="#231F20"/>
<path d="M151.079 47.3334H153.737V44.6664H151.079V47.3334Z" fill="#231F20"/>
<path d="M113.868 106H116.526V103.333H113.868V106Z" fill="#231F20"/>
<path d="M116.527 106H119.185V103.333H116.527V106Z" fill="#231F20"/>
<path d="M119.185 106H121.843V103.333H119.185V106Z" fill="#231F20"/>
<path d="M151.079 103.333H153.737V100.666H151.079V103.333Z" fill="#443B38"/>
<path d="M151.079 82.0002H153.737V79.3334H151.079V82.0002Z" fill="#A89E9B"/>
<path d="M151.079 84.6665H153.737V81.9996H151.079V84.6665Z" fill="#A89E9B"/>
<path d="M151.079 89.9997H153.737V87.3328H151.079V89.9997Z" fill="#A89E9B"/>
<path d="M151.079 92.6666H153.737V89.9997H151.079V92.6666Z" fill="#A89E9B"/>
<path d="M137.795 106H140.454V103.333H137.795V106Z" fill="#231F20"/>
<path d="M151.079 87.3328H153.737V84.6665H151.079V87.3328Z" fill="#A89E9B"/>
<path d="M151.079 68.6662H153.737V66H151.079V68.6662Z" fill="#A89E9B"/>
<path d="M151.079 71.3331H153.737V68.6662H151.079V71.3331Z" fill="#231F20"/>
<path d="M151.079 76.667H153.737V74.0001H151.079V76.667Z" fill="#A89E9B"/>
<path d="M151.079 74.0001H153.737V71.3331H151.079V74.0001Z" fill="#C7C0BE"/>
<path d="M151.079 79.3334H153.737V76.667H151.079V79.3334Z" fill="#A89E9B"/>
<path d="M143.106 106H145.764V103.333H143.106V106Z" fill="#231F20"/>
<path d="M140.424 106H143.082V103.333H140.424V106Z" fill="#231F20"/>
<path d="M148.421 106H151.079V103.333H148.421V106Z" fill="#231F20"/>
<path d="M151.079 95.3336H153.737V92.6666H151.079V95.3336Z" fill="#A89E9B"/>
<path d="M151.079 100.666H153.737V97.9999H151.079V100.666Z" fill="#231F20"/>
<path d="M151.079 97.9999H153.737V95.3336H151.079V97.9999Z" fill="#A89E9B"/>
<path d="M151.079 66H153.737V63.333H151.079V66Z" fill="#231F20"/>
<path d="M151.079 106H153.737V103.333H151.079V106Z" fill="#231F20"/>
<path d="M153.738 97.9999H156.395V95.3337H153.738V97.9999Z" fill="#A89E9B"/>
<path d="M153.738 95.3337H156.395V92.6667H153.738V95.3337Z" fill="#A89E9B"/>
<path d="M153.738 103.333H156.395V100.666H153.738V103.333Z" fill="#443B38"/>
<path d="M153.738 100.666H156.395V97.9999H153.738V100.666Z" fill="#655C59"/>
<path d="M153.738 106H156.395V103.333H153.738V106Z" fill="#231F20"/>
<path d="M153.738 92.6667H156.395V89.9998H153.738V92.6667Z" fill="#231F20"/>
<path d="M153.738 84.6665H156.395V81.9996H153.738V84.6665Z" fill="#231F20"/>
<path d="M153.738 82.0002H156.395V79.3334H153.738V82.0002Z" fill="#231F20"/>
<path d="M153.738 79.3334H156.395V76.6671H153.738V79.3334Z" fill="#231F20"/>
<path d="M153.738 89.9998H156.395V87.3328H153.738V89.9998Z" fill="#231F20"/>
<path d="M153.738 42.0001H156.395V39.3339H153.738V42.0001Z" fill="#857C79"/>
<path d="M153.738 39.3339H156.395V36.667H153.738V39.3339Z" fill="#231F20"/>
<path d="M153.738 44.667H156.395V42.0001H153.738V44.667Z" fill="#655C59"/>
<path d="M153.738 47.3333H156.395V44.6664H153.738V47.3333Z" fill="#655C59"/>
<path d="M153.738 50.0002H156.395V47.3333H153.738V50.0002Z" fill="#A89E9B"/>
<path d="M153.738 60.6666H156.395V57.9998H153.738V60.6666Z" fill="#231F20"/>
<path d="M153.738 65.9999H156.395V63.333H153.738V65.9999Z" fill="#655C59"/>
<path d="M153.738 71.3331H156.395V68.6662H153.738V71.3331Z" fill="#231F20"/>
<path d="M153.738 52.6665H156.395V50.0002H153.738V52.6665Z" fill="#A89E9B"/>
<path d="M153.738 74H156.395V71.3331H153.738V74Z" fill="#231F20"/>
<path d="M153.738 68.6662H156.395V65.9999H153.738V68.6662Z" fill="#A89E9B"/>
<path d="M153.738 55.3334H156.395V52.6665H153.738V55.3334Z" fill="#231F20"/>
<path d="M153.738 57.9998H156.395V55.3334H153.738V57.9998Z" fill="#231F20"/>
<path d="M153.738 76.6671H156.395V74H153.738V76.6671Z" fill="#231F20"/>
<path d="M153.738 63.3336H156.395V60.6666H153.738V63.3336Z" fill="#231F20"/>
<path d="M153.738 87.3328H156.395V84.6665H153.738V87.3328Z" fill="#231F20"/>
<path d="M79.3152 76.667H81.9733V74.0001L79.3152 74L79.3152 76.667Z" fill="#231F20"/>
<path d="M79.3152 74L81.9733 74.0001V71.3332H79.3152V74Z" fill="#7D726F"/>
<path d="M79.3152 60.6668L81.9733 60.6666V57.9998H79.3152L79.3152 60.6668Z" fill="#231F20"/>
<path d="M79.3152 66L81.9733 65.9999V63.333H79.3152V66Z" fill="#A89E9B"/>
<path d="M79.3152 68.6662L81.9733 68.6662V65.9999L79.3152 66V68.6662Z" fill="#A89E9B"/>
<path d="M79.3152 71.3332H81.9733V68.6662L79.3152 68.6662V71.3332Z" fill="#A89E9B"/>
<path d="M79.3152 63.3336H81.9733V60.6666L79.3152 60.6668V63.3336Z" fill="#C7C0BE"/>
<path d="M161.711 44.667H164.37V42.0002H161.711V44.667Z" fill="#655C59"/>
<path d="M161.711 42.0002H164.37V39.3339H161.711V42.0002Z" fill="#655C59"/>
<path d="M161.711 50.0002H164.37V47.3334H161.711V50.0002Z" fill="#A89E9B"/>
<path d="M161.711 39.3339H164.37V36.667H161.711V39.3339Z" fill="#A89E9B"/>
<path d="M161.711 47.3334H164.37V44.6664H161.711V47.3334Z" fill="#655C59"/>
<path d="M161.711 52.6665H164.37V50.0002H161.711V52.6665Z" fill="#A89E9B"/>
<path d="M161.711 36.667H164.37V34H161.711V36.667Z" fill="#231F20"/>
<path d="M161.711 63.3336H164.37V60.6668H161.711V63.3336Z" fill="#7D726F"/>
<path d="M161.711 57.9997H164.37V55.3335H161.711V57.9997Z" fill="#655C59"/>
<path d="M161.711 60.6668H164.37V57.9997H161.711V60.6668Z" fill="#A89E9B"/>
<path d="M161.711 55.3335H164.37V52.6665H161.711V55.3335Z" fill="#655C59"/>
<path d="M161.711 65.9999H164.37V63.333H161.711V65.9999Z" fill="#231F20"/>
<path d="M159.053 63.3336H161.711V60.6668H159.053V63.3336Z" fill="#A89E9B"/>
<path d="M159.053 57.9997H161.711V55.3335H159.053V57.9997Z" fill="#655C59"/>
<path d="M159.053 65.9999H161.711V63.333H159.053V65.9999Z" fill="#443B38"/>
<path d="M159.053 68.6662H161.711V65.9999H159.053V68.6662Z" fill="#231F20"/>
<path d="M159.053 60.6668H161.711V57.9997H159.053V60.6668Z" fill="#A89E9B"/>
<path d="M159.053 36.6668H161.711V34H159.053V36.6668Z" fill="#231F20"/>
<path d="M159.053 44.667H161.711V42.0002H159.053V44.667Z" fill="#655C59"/>
<path d="M159.053 50.0002H161.711V47.3334H159.053V50.0002Z" fill="#A89E9B"/>
<path d="M159.053 47.3334H161.711V44.6664H159.053V47.3334Z" fill="#655C59"/>
<path d="M159.053 52.6666H161.711L161.711 50.0002H159.053L159.053 52.6666Z" fill="#A89E9B"/>
<path d="M159.053 42.0002H161.711V39.3339H159.053V42.0002Z" fill="#655C59"/>
<path d="M159.053 55.3335H161.711L161.711 52.6666H159.053L159.053 55.3335Z" fill="#655C59"/>
<path d="M159.053 39.3339H161.711L161.711 36.6668H159.053L159.053 39.3339Z" fill="#A89E9B"/>
<path d="M116.527 82.0002H119.185V79.3334H116.527V82.0002Z" fill="#A89E9B"/>
<path d="M135.132 79.3333H137.79V76.6671H135.132V79.3333Z" fill="#A89E9B"/>
<path d="M135.132 76.6671H137.79V74.0001H135.132V76.6671Z" fill="#A89E9B"/>
<path d="M135.132 82.0002H137.79V79.3333H135.132V82.0002Z" fill="#A89E9B"/>
<path d="M135.132 74.0001H137.79V71.3332H135.132V74.0001Z" fill="#A89E9B"/>
<path d="M135.132 84.6665H137.79V81.9996H135.132V84.6665Z" fill="#A89E9B"/>
<path d="M116.527 50.0002H119.185V47.3334H116.527V50.0002Z" fill="#231F20"/>
<path d="M135.132 71.3332H137.79V68.6662H135.132V71.3332Z" fill="#C7C0BE"/>
<path d="M135.132 68.6662H137.79V66H135.132V68.6662Z" fill="#231F20"/>
<path d="M95.263 57.9997H97.9204V55.3335H95.263V57.9997Z" fill="#A89E9B"/>
<path d="M95.263 65.9999H97.9204V63.333H95.263V65.9999Z" fill="#A89E9B"/>
<path d="M95.263 68.6662H97.9204V65.9999H95.263V68.6662Z" fill="#7D726F"/>
<path d="M95.263 71.3331H97.9204V68.6662H95.263V71.3331Z" fill="#ECEAE9"/>
<path d="M95.263 63.3336H97.9204V60.6668H95.263V63.3336Z" fill="#A89E9B"/>
<path d="M95.263 60.6668H97.9204V57.9997H95.263V60.6668Z" fill="#A89E9B"/>
<path d="M95.263 74H97.9204V71.3331H95.263V74Z" fill="#ECEAE9"/>
<path d="M95.263 79.3333H97.9204V76.6671H95.263V79.3333Z" fill="#231F20"/>
<path d="M95.263 82.0002H97.9204V79.3333H95.263V82.0002Z" fill="#C9C3C1"/>
<path d="M95.263 76.6671H97.9204V74H95.263V76.6671Z" fill="#ECEAE9"/>
<path d="M135.132 87.3327H137.79V84.6665H135.132V87.3327Z" fill="#A89E9B"/>
<path d="M108.552 50.0002H111.21V47.3334H108.552V50.0002Z" fill="#A89E9B"/>
<path d="M113.868 50.0002H116.526V47.3334H113.868V50.0002Z" fill="#A89E9B"/>
<path d="M105.896 50.0002H108.553V47.3334H105.896V50.0002Z" fill="#A89E9B"/>
<path d="M95.263 55.3335H97.9204V52.6666H95.263V55.3335Z" fill="#A89E9B"/>
<path d="M111.211 50.0002H113.869V47.3334H111.211V50.0002Z" fill="#F2546B"/>
<path d="M103.237 50.0002H105.895V47.3334H103.237V50.0002Z" fill="#8D837F"/>
<path d="M95.263 50.0002H97.9204V47.3334H95.263V50.0002Z" fill="#8D837F"/>
<path d="M95.263 52.6666H97.9204V50.0002H95.263V52.6666Z" fill="#A89E9B"/>
<path d="M100.579 50.0002H103.237V47.3334H100.579V50.0002Z" fill="#A89E9B"/>
<path d="M97.9204 50.0002H100.579V47.3334H97.9204V50.0002Z" fill="#A89E9B"/>
<path d="M97.9204 55.3335L100.579 55.3334V52.6666H97.9204V55.3335Z" fill="#A89E9B"/>
<path d="M97.9204 52.6666H100.579V50.0002H97.9204V52.6666Z" fill="#A89E9B"/>
<path d="M103.237 52.6665H105.895V50.0002H103.237V52.6665Z" fill="#A89E9B"/>
<path d="M100.579 52.6665H103.237V50.0002H100.579V52.6665Z" fill="#8D837F"/>
<path d="M97.9204 57.9997H100.579V55.3334L97.9204 55.3335V57.9997Z" fill="#E7E3E2"/>
<path d="M97.9204 68.6662H100.579V66L97.9204 65.9999V68.6662Z" fill="#655C59"/>
<path d="M105.896 52.6665H108.553V50.0002H105.896V52.6665Z" fill="#A89E9B"/>
<path d="M97.9204 71.3331H100.579V68.6662H97.9204V71.3331Z" fill="#ECEAE9"/>
<path d="M97.9204 63.3336H100.579V60.6668H97.9204V63.3336Z" fill="#655C59"/>
<path d="M97.9204 60.6668H100.579V57.9997H97.9204V60.6668Z" fill="#655C59"/>
<path d="M97.9204 65.9999L100.579 66V63.333H97.9204V65.9999Z" fill="#655C59"/>
<path d="M135.132 89.9997H137.79V87.3327H135.132V89.9997Z" fill="#ECEAE9"/>
<path d="M108.552 52.6665H111.21V50.0002H108.552V52.6665Z" fill="#A89E9B"/>
<path d="M111.211 52.6666H113.869L113.869 50.0002H111.211L111.211 52.6666Z" fill="#A89E9B"/>
<path d="M113.868 52.6665H116.526V50.0002H113.868V52.6665Z" fill="#A89E9B"/>
<path d="M116.527 52.6665H119.185V50.0002H116.527V52.6665Z" fill="#231F20"/>
<path d="M119.185 89.9997H121.843V87.3328H119.185V89.9997Z" fill="#A89E9B"/>
<path d="M121.842 89.9997H124.5V87.3329H121.842V89.9997Z" fill="#A89E9B"/>
<path d="M108.552 89.9997H111.21V87.3335H108.552V89.9997Z" fill="#847976"/>
<path d="M111.211 87.3335V89.9997H113.869V87.3329L111.211 87.3335Z" fill="#847976"/>
<path d="M113.868 89.9997H116.526V87.3328H113.868V89.9997Z" fill="#231F20"/>
<path d="M97.9204 74H100.579V71.3331H97.9204V74Z" fill="#ECEAE9"/>
<path d="M132.473 89.9997H135.132V87.3328H132.473V89.9997Z" fill="#ECEAE9"/>
<path d="M124.501 89.9997H127.159V87.3328H124.501V89.9997Z" fill="#231F20"/>
<path d="M129.816 89.9997H132.474V87.3329H129.816V89.9997Z" fill="#ECEAE9"/>
<path d="M127.158 89.9997L129.816 89.9997V87.3329L127.158 87.3328V89.9997Z" fill="#ECEAE9"/>
<path d="M116.527 89.9997H119.185V87.3328H116.527V89.9997Z" fill="#7D726F"/>
<path d="M97.9204 79.3333H100.579V76.6671H97.9204V79.3333Z" fill="#231F20"/>
<path d="M97.9204 82.0002H100.579V79.3333H97.9204V82.0002Z" fill="#C9C3C1"/>
<path d="M97.9204 76.6671H100.579V74H97.9204V76.6671Z" fill="#ECEAE9"/>
<path d="M97.9205 84.6665H100.579V81.9996H97.9205V84.6665Z" fill="#231F20"/>
<path d="M100.579 89.9997H103.237V87.3335H100.579V89.9997Z" fill="#231F20"/>
<path d="M103.237 89.9997H105.895V87.3335H103.237V89.9997Z" fill="#655C59"/>
<path d="M95.263 84.6665H97.9205V81.9996H95.263V84.6665Z" fill="#231F20"/>
<path d="M105.896 89.9997H108.553V87.3335H105.896V89.9997Z" fill="#443B38"/>
<path d="M92.6055 57.9997H95.2636V55.3335H92.6055V57.9997Z" fill="#E7E3E2"/>
<path d="M92.6055 47.3333H95.2636V44.6664H92.6055V47.3333Z" fill="#A89E9B"/>
<path d="M92.6055 60.6666H95.2636V57.9997H92.6055V60.6666Z" fill="#655C59"/>
<path d="M92.6055 52.6666H95.2635V50.0004H92.6055V52.6666Z" fill="#8D837F"/>
<path d="M92.6055 50.0004H95.2635L95.2636 47.3333H92.6055L92.6055 50.0004Z" fill="#231F20"/>
<path d="M92.6055 55.3335H95.2636L95.2635 52.6666H92.6055L92.6055 55.3335Z" fill="#A89E9B"/>
<path d="M92.6055 63.3336H95.2636V60.6666H92.6055V63.3336Z" fill="#655C59"/>
<path d="M92.6055 71.3331H95.263V68.6662L92.6055 68.6662V71.3331Z" fill="#934226"/>
<path d="M92.6055 68.6662L95.2636 68.6662V66H92.6055V68.6662Z" fill="#655C59"/>
<path d="M92.6055 66H95.2636V63.333H92.6055V66Z" fill="#655C59"/>
<path d="M116.527 47.3334H119.185V44.6664H116.527V47.3334Z" fill="#231F20"/>
<path d="M108.552 47.3334H111.21V44.6664H108.552V47.3334Z" fill="#F2546B"/>
<path d="M113.868 47.3334H116.526V44.6664H113.868V47.3334Z" fill="#A89E9B"/>
<path d="M111.211 47.3334H113.869V44.6664H111.211V47.3334Z" fill="#F2546B"/>
<path d="M92.6055 74H95.2635V71.3332L92.6055 71.3331L92.6055 74Z" fill="#ECEAE9"/>
<path d="M103.237 47.3334H105.895V44.6664H103.237V47.3334Z" fill="#231F20"/>
<path d="M100.579 47.3334H103.237V44.6664H100.579V47.3334Z" fill="#231F20"/>
<path d="M105.896 47.3334H108.553V44.6664H105.896V47.3334Z" fill="#A89E9B"/>
<path d="M95.263 47.3334H97.9204V44.6664H95.263V47.3334Z" fill="#231F20"/>
<path d="M97.9204 47.3334H100.579V44.6664H97.9204V47.3334Z" fill="#231F20"/>
<path d="M100.579 95.3336H103.237V92.6667H100.579V95.3336Z" fill="#443B38"/>
<path d="M103.237 95.3336H105.895V92.6667H103.237V95.3336Z" fill="#231F20"/>
<path d="M116.527 95.3336H119.185V92.6667H116.527V95.3336Z" fill="#231F20"/>
<path d="M121.842 95.3336H124.5V92.6667H121.842V95.3336Z" fill="#231F20"/>
<path d="M119.185 95.3336H121.843V92.6667H119.185V95.3336Z" fill="#A89E9B"/>
<path d="M92.6055 84.6665H95.2636V81.9996H92.6055V84.6665Z" fill="#231F20"/>
<path d="M92.6055 82.0002H95.2636V79.3334H92.6055V82.0002Z" fill="#C9C3C1"/>
<path d="M92.6055 79.3334H95.2636V76.6671H92.6055V79.3334Z" fill="#231F20"/>
<path d="M97.9205 95.3336H100.579V92.6667H97.9205V95.3336Z" fill="#231F20"/>
<path d="M92.6055 76.6671H95.2636L95.2635 74H92.6055L92.6055 76.6671Z" fill="#ECEAE9"/>
<path d="M132.473 92.6666H135.132V89.9997H132.473V92.6666Z" fill="#231F20"/>
<path d="M116.527 92.6667H119.185L119.185 89.9997H116.527V92.6667Z" fill="#231F20"/>
<path d="M124.501 92.6666H127.159V89.9997H124.501V92.6666Z" fill="#231F20"/>
<path d="M129.816 92.6666H132.474V89.9997H129.816V92.6666Z" fill="#231F20"/>
<path d="M119.185 92.6667H121.843V89.9997H119.185L119.185 92.6667Z" fill="#A89E9B"/>
<path d="M121.842 92.6667H124.5L124.5 89.9997H121.842L121.842 92.6667Z" fill="#7D726F"/>
<path d="M127.158 92.6666L129.816 92.6666V89.9997L127.158 89.9997V92.6666Z" fill="#231F20"/>
<path d="M137.79 92.6666H140.448V89.9998L137.79 89.9997L137.79 92.6666Z" fill="#231F20"/>
<path d="M137.79 89.9997L140.448 89.9998V87.3328L137.79 87.3327V89.9997Z" fill="#ECEAE9"/>
<path d="M135.132 92.6666H137.79L137.79 89.9997H135.132V92.6666Z" fill="#231F20"/>
<path d="M137.79 87.3327L140.448 87.3328V84.6666L137.79 84.6665V87.3327Z" fill="#A89E9B"/>
<path d="M100.579 92.6667H103.237V89.9997H100.579V92.6667Z" fill="#655C59"/>
<path d="M97.9205 92.6667H100.579V89.9998H97.9205V92.6667Z" fill="#231F20"/>
<path d="M113.868 92.6666H116.526V89.9997H113.868V92.6666Z" fill="#231F20"/>
<path d="M103.237 92.6667H105.895V89.9997H103.237V92.6667Z" fill="#443B38"/>
<path d="M111.211 89.9997V92.6666H113.869V89.9997H111.211Z" fill="#231F20"/>
<path d="M108.552 92.6666H111.21V89.9997H108.552V92.6666Z" fill="#231F20"/>
<path d="M105.896 92.6666H108.553V89.9997H105.896V92.6666Z" fill="#231F20"/>
<path d="M137.79 84.6665L140.448 84.6666V81.9996H137.79V84.6665Z" fill="#A89E9B"/>
<path d="M137.79 79.3333H140.448V76.6671H137.79V79.3333Z" fill="#8D837F"/>
<path d="M137.79 76.6671H140.448V74.0001H137.79V76.6671Z" fill="#A89E9B"/>
<path d="M137.79 82.0002H140.448V79.3333H137.79V82.0002Z" fill="#A89E9B"/>
<path d="M137.79 74.0001H140.448V71.3332H137.79V74.0001Z" fill="#A89E9B"/>
<path d="M137.79 71.3332H140.448V68.6662H137.79V71.3332Z" fill="#A89E9B"/>
<path d="M137.79 66L140.448 65.9999V63.333H137.79L137.79 66Z" fill="#231F20"/>
<path d="M137.79 68.6662H140.448V65.9999L137.79 66V68.6662Z" fill="#C7C0BE"/>
<path d="M119.185 74H121.843V71.3332H119.185V74Z" fill="#231F20"/>
<path d="M105.896 60.6666H108.553V57.9998H105.896V60.6666Z" fill="#E7E3E2"/>
<path d="M105.896 63.3336H108.553V60.6666H105.896V63.3336Z" fill="#655C59"/>
<path d="M105.896 79.3333H108.553V76.6671H105.896V79.3333Z" fill="#ECEAE9"/>
<path d="M108.552 60.6666H111.21V57.9998H108.552V60.6666Z" fill="#A89E9B"/>
<path d="M111.211 60.6666H113.869V57.9998H111.211V60.6666Z" fill="#A89E9B"/>
<path d="M105.896 65.9999H108.553V63.333H105.896V65.9999Z" fill="#655C59"/>
<path d="M105.896 68.6662H108.553V65.9999H105.896V68.6662Z" fill="#655C59"/>
<path d="M105.896 74H108.553V71.3332H105.896V74Z" fill="#A89E9B"/>
<path d="M105.896 76.6671H108.553V74H105.896V76.6671Z" fill="#ECEAE9"/>
<path d="M105.896 71.3332H108.553V68.6662H105.896V71.3332Z" fill="#655C59"/>
<path d="M113.868 60.6666H116.526V57.9998H113.868V60.6666Z" fill="#A89E9B"/>
<path d="M124.501 68.6662H127.159V66H124.501V68.6662Z" fill="#231F20"/>
<path d="M116.527 60.6666H119.185V57.9998H116.527V60.6666Z" fill="#A89E9B"/>
<path d="M124.501 71.3331H127.159V68.6662H124.501V71.3331Z" fill="#C7C0BE"/>
<path d="M124.501 76.667H127.159V74.0001H124.501V76.667Z" fill="#A89E9B"/>
<path d="M124.501 74.0001H127.159V71.3331H124.501V74.0001Z" fill="#A89E9B"/>
<path d="M119.185 60.6666H121.843V57.9998H119.185V60.6666Z" fill="#C7C0BE"/>
<path d="M121.842 60.6666H124.5V57.9998H121.842V60.6666Z" fill="#231F20"/>
<path d="M127.158 74H129.816V71.3332H127.158V74Z" fill="#A89E9B"/>
<path d="M127.158 68.6662H129.816V66H127.158V68.6662Z" fill="#231F20"/>
<path d="M127.158 71.3332H129.816V68.6662H127.158V71.3332Z" fill="#C7C0BE"/>
<path d="M124.501 79.3333H127.159V76.667H124.501V79.3333Z" fill="#A89E9B"/>
<path d="M108.552 79.3333H111.21V76.6671H108.552V79.3333Z" fill="#A89E9B"/>
<path d="M113.868 82.0002H116.526V79.3334H113.868V82.0002Z" fill="#7D726F"/>
<path d="M111.211 79.3334V82.0002H113.869V79.3334H111.211Z" fill="#231F20"/>
<path d="M108.552 82.0002H111.21V79.3333H108.552V82.0002Z" fill="#7D726F"/>
<path d="M127.158 79.3333H129.816V76.6671H127.158V79.3333Z" fill="#A89E9B"/>
<path d="M124.501 82.0002H127.159V79.3333H124.501V82.0002Z" fill="#A89E9B"/>
<path d="M127.158 82.0002H129.816V79.3333H127.158V82.0002Z" fill="#A89E9B"/>
<path d="M121.842 82.0002H124.5V79.3334H121.842V82.0002Z" fill="#8D837F"/>
<path d="M119.185 82.0002H121.843V79.3334H119.185V82.0002Z" fill="#A89E9B"/>
<path d="M121.842 79.3334H124.5V76.6671H121.842V79.3334Z" fill="#A89E9B"/>
<path d="M111.211 71.3331H113.869V68.6663H111.211V71.3331Z" fill="#E7E3E2"/>
<path d="M111.211 68.6663H113.869L113.869 66H111.211L111.211 68.6663Z" fill="#E7E3E2"/>
<path d="M119.185 57.9998H121.843V55.3335H119.185L119.185 57.9998Z" fill="#231F20"/>
<path d="M111.211 66H113.869V63.333H111.211V66Z" fill="#E7E3E2"/>
<path d="M111.211 74H113.869V71.3331H111.211V74Z" fill="#A89E9B"/>
<path d="M116.527 65.9999H119.185V63.333H116.527V65.9999Z" fill="#A89E9B"/>
<path d="M119.185 76.667H121.843V74H119.185V76.667Z" fill="#7D726F"/>
<path d="M121.842 76.6671H124.5V74.0001H121.842V76.6671Z" fill="#A89E9B"/>
<path d="M116.527 76.667H119.185V74L116.527 74.0001V76.667Z" fill="#231F20"/>
<path d="M113.868 76.667H116.526V74.0001H113.868V76.667Z" fill="#7D726F"/>
<path d="M113.868 74.0001H116.526V71.3332H113.868V74.0001Z" fill="#A89E9B"/>
<path d="M116.527 71.3331L119.185 71.3332L119.185 68.6662H116.527V71.3331Z" fill="#A89E9B"/>
<path d="M113.868 71.3332H116.526V68.6662H113.868V71.3332Z" fill="#A89E9B"/>
<path d="M113.868 68.6662H116.526V66H113.868V68.6662Z" fill="#A89E9B"/>
<path d="M116.527 68.6662H119.185V65.9999H116.527V68.6662Z" fill="#A89E9B"/>
<path d="M119.185 65.9999H121.843V63.333H119.185V65.9999Z" fill="#A89E9B"/>
<path d="M119.185 71.3332H121.843V68.6662H119.185L119.185 71.3332Z" fill="#7D726F"/>
<path d="M116.527 74.0001L119.185 74V71.3332L116.527 71.3331V74.0001Z" fill="#7D726F"/>
<path d="M119.185 68.6662H121.843V65.9999H119.185V68.6662Z" fill="#A89E9B"/>
<path d="M113.868 66H116.526V63.333H113.868V66Z" fill="#A89E9B"/>
<path d="M108.552 74H111.21V71.3332H108.552V74Z" fill="#A89E9B"/>
<path d="M111.211 76.667H113.869L113.869 74H111.211L111.211 76.667Z" fill="#A89E9B"/>
<path d="M108.552 76.6671H111.21V74H108.552V76.6671Z" fill="#A89E9B"/>
<path d="M108.552 71.3332H111.21V68.6662H108.552V71.3332Z" fill="#655C59"/>
<path d="M108.552 68.6662H111.21V66H108.552V68.6662Z" fill="#655C59"/>
<path d="M111.211 79.3334H113.869V76.667H111.211V79.3334Z" fill="#7D726F"/>
<path d="M116.527 79.3334H119.185L119.185 76.667H116.527V79.3334Z" fill="#7D726F"/>
<path d="M119.185 79.3334H121.843V76.667H119.185L119.185 79.3334Z" fill="#A89E9B"/>
<path d="M108.552 66H111.21V63.333H108.552V66Z" fill="#655C59"/>
<path d="M113.868 79.3334H116.526V76.667H113.868V79.3334Z" fill="#231F20"/>
<path d="M116.527 63.3336H119.185V60.6666H116.527V63.3336Z" fill="#A89E9B"/>
<path d="M121.842 63.3336H124.5V60.6666H121.842V63.3336Z" fill="#231F20"/>
<path d="M121.842 68.6662H124.5V66H121.842V68.6662Z" fill="#231F20"/>
<path d="M121.842 66H124.5V63.333H121.842V66Z" fill="#231F20"/>
<path d="M121.842 71.3331H124.5L124.5 68.6662H121.842L121.842 71.3331Z" fill="#231F20"/>
<path d="M113.868 63.3336H116.526V60.6666H113.868V63.3336Z" fill="#A89E9B"/>
<path d="M111.211 63.3336H113.869V60.6666H111.211V63.3336Z" fill="#A89E9B"/>
<path d="M108.552 63.3336H111.21V60.6666H108.552V63.3336Z" fill="#E7E3E2"/>
<path d="M119.185 63.3336H121.843V60.6666H119.185V63.3336Z" fill="#A89E9B"/>
<path d="M121.842 74.0001H124.5L124.5 71.3331H121.842L121.842 74.0001Z" fill="#7D726F"/>
<path d="M127.158 76.6671H129.816V74H127.158V76.6671Z" fill="#8D837F"/>
<path d="M100.579 79.3333H103.237V76.6671H100.579V79.3333Z" fill="#ECEAE9"/>
<path d="M100.579 76.6671H103.237V74.0001H100.579V76.6671Z" fill="#231F20"/>
<path d="M100.579 82.0002H103.237V79.3333H100.579V82.0002Z" fill="#C9C3C1"/>
<path d="M100.579 74.0001H103.237V71.3332H100.579V74.0001Z" fill="#ECEAE9"/>
<path d="M100.579 71.3332H103.237V68.6662H100.579V71.3332Z" fill="#ECEAE9"/>
<path d="M103.237 87.3335H105.895V84.6666H103.237V87.3335Z" fill="#231F20"/>
<path d="M100.579 84.6665H103.237V81.9996H100.579V84.6665Z" fill="#231F20"/>
<path d="M100.579 68.6662H103.237V66H100.579V68.6662Z" fill="#655C59"/>
<path d="M105.896 87.3335H108.553V84.6666H105.896V87.3335Z" fill="#231F20"/>
<path d="M103.237 84.6666H105.895V81.9996H103.237V84.6666Z" fill="#231F20"/>
<path d="M105.896 55.3334H108.553V52.6665H105.896V55.3334Z" fill="#A89E9B"/>
<path d="M108.552 87.3335H111.21V84.6666H108.552V87.3335Z" fill="#7D726F"/>
<path d="M108.552 55.3334H111.21V52.6665H108.552V55.3334Z" fill="#A89E9B"/>
<path d="M111.211 55.3334H113.869V52.6666H111.211V55.3334Z" fill="#A89E9B"/>
<path d="M103.237 55.3334H105.895V52.6665H103.237V55.3334Z" fill="#A89E9B"/>
<path d="M100.579 57.9997H103.237V55.3335H100.579V57.9997Z" fill="#E7E3E2"/>
<path d="M100.579 55.3335H103.237V52.6665H100.579V55.3335Z" fill="#A89E9B"/>
<path d="M100.579 60.6666H103.237V57.9997H100.579V60.6666Z" fill="#655C59"/>
<path d="M100.579 63.3336H103.237V60.6666H100.579V63.3336Z" fill="#231F20"/>
<path d="M100.579 66H103.237V63.333H100.579V66Z" fill="#231F20"/>
<path d="M111.211 84.6666L111.211 87.3335L113.869 87.3329L113.869 84.6666H111.211Z" fill="#7D726F"/>
<path d="M132.473 71.3331H135.132V68.6662H132.473V71.3331Z" fill="#C7C0BE"/>
<path d="M132.473 68.6662H135.132V66H132.473V68.6662Z" fill="#231F20"/>
<path d="M132.473 74H135.132V71.3331H132.473V74Z" fill="#A89E9B"/>
<path d="M132.473 76.667H135.132V74H132.473V76.667Z" fill="#A89E9B"/>
<path d="M113.868 55.3334H116.526V52.6665H113.868V55.3334Z" fill="#A89E9B"/>
<path d="M132.473 82.0002H135.132V79.3334H132.473V82.0002Z" fill="#A89E9B"/>
<path d="M132.473 79.3334H135.132V76.667H132.473V79.3334Z" fill="#A89E9B"/>
<path d="M119.185 87.3328H121.843V84.6666H119.185V87.3328Z" fill="#A89E9B"/>
<path d="M116.527 87.3328H119.185V84.6666H116.527V87.3328Z" fill="#A89E9B"/>
<path d="M121.842 87.3329H124.5L124.5 84.6666H121.842L121.842 87.3329Z" fill="#A89E9B"/>
<path d="M132.473 84.6665H135.132V81.9996H132.473V84.6665Z" fill="#A89E9B"/>
<path d="M113.868 87.3328H116.526V84.6666H113.868V87.3328Z" fill="#231F20"/>
<path d="M129.816 87.3329H132.474L132.474 84.6666H129.816L129.816 87.3329Z" fill="#A89E9B"/>
<path d="M132.473 87.3328H135.132V84.6665H132.473V87.3328Z" fill="#A89E9B"/>
<path d="M124.501 87.3328H127.159V84.6666H124.501V87.3328Z" fill="#A89E9B"/>
<path d="M127.158 87.3328L129.816 87.3329L129.816 84.6666H127.158V87.3328Z" fill="#A89E9B"/>
<path d="M103.237 79.3333H105.895V76.6671H103.237V79.3333Z" fill="#ECEAE9"/>
<path d="M105.896 82.0002H108.553V79.3333H105.896V82.0002Z" fill="#C9C3C1"/>
<path d="M116.527 55.3334L119.185 55.3335L119.185 52.6665H116.527V55.3334Z" fill="#231F20"/>
<path d="M116.527 57.9998H119.185L119.185 55.3335L116.527 55.3334V57.9998Z" fill="#C7C0BE"/>
<path d="M103.237 76.6671H105.895V74.0001H103.237V76.6671Z" fill="#ECEAE9"/>
<path d="M103.237 74.0001H105.895V71.3332H103.237V74.0001Z" fill="#ECEAE9"/>
<path d="M108.552 84.6666H111.21V81.9996H108.552V84.6666Z" fill="#231F20"/>
<path d="M111.211 81.9996V84.6666H113.869V81.9996H111.211Z" fill="#231F20"/>
<path d="M113.868 84.6666H116.526V81.9996H113.868V84.6666Z" fill="#7D726F"/>
<path d="M105.896 84.6666H108.553V81.9996H105.896V84.6666Z" fill="#231F20"/>
<path d="M103.237 71.3332H105.895V68.6662H103.237V71.3332Z" fill="#655C59"/>
<path d="M103.237 65.9999H105.895V63.333H103.237V65.9999Z" fill="#655C59"/>
<path d="M103.237 68.6662H105.895V65.9999H103.237V68.6662Z" fill="#655C59"/>
<path d="M108.552 57.9998H111.21V55.3334H108.552V57.9998Z" fill="#A89E9B"/>
<path d="M111.211 57.9998H113.869L113.869 55.3334H111.211L111.211 57.9998Z" fill="#A89E9B"/>
<path d="M113.868 57.9998H116.526V55.3334H113.868V57.9998Z" fill="#A89E9B"/>
<path d="M105.896 57.9998H108.553V55.3334H105.896V57.9998Z" fill="#A89E9B"/>
<path d="M103.237 63.3336H105.895V60.6668H103.237V63.3336Z" fill="#655C59"/>
<path d="M116.527 84.6666H119.185L119.185 81.9996H116.527V84.6666Z" fill="#A89E9B"/>
<path d="M103.237 57.9997H105.895V55.3334H103.237V57.9997Z" fill="#E7E3E2"/>
<path d="M103.237 60.6668H105.895V57.9997H103.237V60.6668Z" fill="#655C59"/>
<path d="M103.237 82.0002H105.895V79.3333H103.237V82.0002Z" fill="#C9C3C1"/>
<path d="M119.185 84.6666H121.843V81.9996H119.185L119.185 84.6666Z" fill="#A89E9B"/>
<path d="M129.816 68.6662H132.474V66H129.816V68.6662Z" fill="#231F20"/>
<path d="M127.158 84.6666H129.816L129.816 81.9996H127.158V84.6666Z" fill="#A89E9B"/>
<path d="M124.501 84.6666H127.159V81.9996H124.501V84.6666Z" fill="#8D837F"/>
<path d="M129.816 84.6666H132.474V81.9996H129.816L129.816 84.6666Z" fill="#A89E9B"/>
<path d="M129.816 71.3332L132.474 71.3331L132.474 68.6662H129.816V71.3332Z" fill="#C7C0BE"/>
<path d="M121.842 84.6666H124.5V81.9996H121.842V84.6666Z" fill="#A89E9B"/>
<path d="M129.816 76.6671L132.474 76.667V74.0001L129.816 74V76.6671Z" fill="#A89E9B"/>
<path d="M129.816 82.0002H132.474V79.3334L129.816 79.3333V82.0002Z" fill="#A89E9B"/>
<path d="M129.816 74L132.474 74.0001L132.474 71.3331L129.816 71.3332V74Z" fill="#A89E9B"/>
<path d="M129.816 79.3333L132.474 79.3334V76.667L129.816 76.6671V79.3333Z" fill="#8D837F"/>
<path d="M84.6316 74H87.289V71.3332H84.6316V74Z" fill="#ECEAE9"/>
<path d="M84.6316 68.6662H87.289V66H84.6316V68.6662Z" fill="#655C59"/>
<path d="M84.6316 66H87.289V63.333H84.6316V66Z" fill="#655C59"/>
<path d="M84.6316 63.3336H87.289V60.6668H84.6316V63.3336Z" fill="#655C59"/>
<path d="M84.6316 82.0002H87.289V79.3334H84.6316V82.0002Z" fill="#231F20"/>
<path d="M84.6316 60.6668L87.2897 60.6666V57.9998H84.6316V60.6668Z" fill="#E7E3E2"/>
<path d="M84.6316 76.667H87.289V74H84.6316V76.667Z" fill="#ECEAE9"/>
<path d="M84.6316 79.3334H87.289V76.667H84.6316V79.3334Z" fill="#C9C3C1"/>
<path d="M84.6316 71.3332H87.289V68.6662H84.6316V71.3332Z" fill="#655C59"/>
<path d="M84.6316 42.0001H87.289V39.3339H84.6316V42.0001Z" fill="#231F20"/>
<path d="M87.289 39.3339L89.9472 39.3338V36.667H87.2891L87.289 39.3339Z" fill="#231F20"/>
<path d="M89.9466 39.3338H92.6047V36.667H89.9466V39.3338Z" fill="#231F20"/>
<path d="M84.6316 57.9998H87.2897V55.3335H84.6316V57.9998Z" fill="#A89E9B"/>
<path d="M84.6316 55.3335H87.2897V52.6666H84.6316V55.3335Z" fill="#A89E9B"/>
<path d="M84.6316 52.6666H87.2897V50.0003H84.6316V52.6666Z" fill="#A89E9B"/>
<path d="M84.6316 47.3333H87.289V44.6664H84.6316V47.3333Z" fill="#A89E9B"/>
<path d="M84.6316 50.0003L87.289 50.0002V47.3333H84.6316V50.0003Z" fill="#A89E9B"/>
<path d="M119.185 103.333H121.843V100.666H119.185L119.185 103.333Z" fill="#443B38"/>
<path d="M113.868 103.333H116.526V100.666H113.868V103.333Z" fill="#231F20"/>
<path d="M121.842 103.333H124.5V100.666H121.842V103.333Z" fill="#231F20"/>
<path d="M116.527 103.333H119.185L119.185 100.666H116.527V103.333Z" fill="#443B38"/>
<path d="M84.6316 44.667H87.289V42.0001H84.6316V44.667Z" fill="#C7C0BE"/>
<path d="M145.762 71.3331H148.42V68.6662H145.762V71.3331Z" fill="#A89E9B"/>
<path d="M145.762 65.9999H148.42V63.333H145.762V65.9999Z" fill="#231F20"/>
<path d="M145.762 68.6662H148.42V65.9999H145.762V68.6662Z" fill="#C7C0BE"/>
<path d="M145.762 92.6666H148.42V89.9998H145.762V92.6666Z" fill="#7D726F"/>
<path d="M145.762 89.9998H148.42V87.3328H145.762V89.9998Z" fill="#A89E9B"/>
<path d="M145.762 87.3328H148.42V84.6666H145.762V87.3328Z" fill="#A89E9B"/>
<path d="M145.762 95.3336H148.42V92.6666H145.762V95.3336Z" fill="#231F20"/>
<path d="M145.762 76.667H148.42V74.0001H145.762V76.667Z" fill="#8D837F"/>
<path d="M145.762 79.3333H148.42V76.667H145.762V79.3333Z" fill="#A89E9B"/>
<path d="M145.762 84.6666H148.42V81.9996H145.762V84.6666Z" fill="#A89E9B"/>
<path d="M145.762 74.0001H148.42V71.3331H145.762V74.0001Z" fill="#A89E9B"/>
<path d="M108.552 39.3338H111.21V36.667H108.552V39.3338Z" fill="#231F20"/>
<path d="M111.211 39.3338H113.869V36.667H111.211V39.3338Z" fill="#231F20"/>
<path d="M81.9741 44.667H84.6322V42.0002H81.9741V44.667Z" fill="#231F20"/>
<path d="M81.9741 47.3333H84.6322V44.6664H81.9741V47.3333Z" fill="#231F20"/>
<path d="M145.762 97.9999H148.42V95.3336H145.762V97.9999Z" fill="#231F20"/>
<path d="M81.9741 76.667H84.6322V74.0001H81.9741V76.667Z" fill="#7D726F"/>
<path d="M81.9741 79.3333H84.6322V76.667H81.9741V79.3333Z" fill="#231F20"/>
<path d="M81.9741 50.0002H84.6322V47.3333H81.9741V50.0002Z" fill="#231F20"/>
<path d="M81.9741 60.6666H84.6322V57.9998H81.9741V60.6666Z" fill="#C7C0BE"/>
<path d="M81.9741 57.9998H84.6322V55.3335H81.9741V57.9998Z" fill="#231F20"/>
<path d="M81.9741 55.3335H84.6322V52.6666H81.9741V55.3335Z" fill="#231F20"/>
<path d="M81.9741 52.6666H84.6322V50.0002H81.9741V52.6666Z" fill="#231F20"/>
<path d="M81.9741 63.3336H84.6322V60.6666H81.9741V63.3336Z" fill="#E7E3E2"/>
<path d="M81.9741 68.6662H84.6322V66H81.9741V68.6662Z" fill="#E7E3E2"/>
<path d="M81.9741 74.0001H84.6322V71.3332H81.9741V74.0001Z" fill="#A89E9B"/>
<path d="M81.9741 71.3332H84.6322V68.6662H81.9741V71.3332Z" fill="#E7E3E2"/>
<path d="M81.9741 66H84.6322V63.333H81.9741V66Z" fill="#E7E3E2"/>
<path d="M148.421 87.3327H151.079V84.6666H148.421V87.3327Z" fill="#A89E9B"/>
<path d="M148.421 84.6666H151.079V81.9996H148.421V84.6666Z" fill="#A89E9B"/>
<path d="M148.421 89.9997H151.079L151.079 87.3327H148.421L148.421 89.9997Z" fill="#A89E9B"/>
<path d="M148.421 95.3336H151.079V92.6667H148.421V95.3336Z" fill="#7D726F"/>
<path d="M148.421 92.6667H151.079L151.079 89.9997H148.421L148.421 92.6667Z" fill="#A89E9B"/>
<path d="M148.421 97.9999H151.079V95.3336H148.421V97.9999Z" fill="#231F20"/>
<path d="M148.421 71.3331H151.079V68.6663H148.421V71.3331Z" fill="#C7C0BE"/>
<path d="M148.421 76.667H151.079V74.0001H148.421V76.667Z" fill="#A89E9B"/>
<path d="M148.421 82.0002H151.079V79.3334H148.421V82.0002Z" fill="#A89E9B"/>
<path d="M148.421 79.3334H151.079V76.667H148.421V79.3334Z" fill="#A89E9B"/>
<path d="M148.421 74.0001H151.079L151.079 71.3331H148.421L148.421 74.0001Z" fill="#A89E9B"/>
<path d="M137.79 103.333H140.448V100.666H137.79V103.333Z" fill="#231F20"/>
<path d="M148.421 103.333H151.079V100.666H148.421V103.333Z" fill="#231F20"/>
<path d="M145.762 103.333H148.42V100.666H145.762V103.333Z" fill="#231F20"/>
<path d="M143.106 103.333H145.764V100.666H143.106V103.333Z" fill="#443B38"/>
<path d="M140.447 103.333H143.105V100.666H140.447V103.333Z" fill="#443B38"/>
<path d="M148.421 68.6663H151.079L151.079 66H148.421L148.421 68.6663Z" fill="#231F20"/>
<path d="M145.762 82.0002H148.42V79.3333H145.762V82.0002Z" fill="#A89E9B"/>
<path d="M89.9466 74H92.6047V71.3332H89.9466V74Z" fill="#ECEAE9"/>
<path d="M89.9466 82.0002H92.6047V79.3334H89.9466V82.0002Z" fill="#C9C3C1"/>
<path d="M89.9466 79.3334H92.6047V76.6671H89.9466V79.3334Z" fill="#ECEAE9"/>
<path d="M89.9466 76.6671H92.6047V74H89.9466V76.6671Z" fill="#ECEAE9"/>
<path d="M89.9466 84.6665H92.6047V81.9996H89.9466V84.6665Z" fill="#231F20"/>
<path d="M89.9466 55.3334H92.6047V52.6666H89.9466V55.3334Z" fill="#A89E9B"/>
<path d="M89.9466 52.6666H92.6047V50.0003H89.9466V52.6666Z" fill="#A89E9B"/>
<path d="M89.9466 57.9997H92.6047V55.3334H89.9466V57.9997Z" fill="#E7E3E2"/>
<path d="M89.9466 47.3333H92.6047V44.6664H89.9466V47.3333Z" fill="#F2546B"/>
<path d="M89.9466 50.0003H92.6047V47.3333H89.9466V50.0003Z" fill="#A89E9B"/>
<path d="M89.9466 68.6662H92.6047V66H89.9466V68.6662Z" fill="#655C59"/>
<path d="M89.9466 66H92.6047V63.333H89.9466V66Z" fill="#231F20"/>
<path d="M89.9466 60.6666H92.6047V57.9997H89.9466V60.6666Z" fill="#655C59"/>
<path d="M89.9466 71.3332H92.6047V68.6662H89.9466V71.3332Z" fill="#934226"/>
<path d="M89.9466 63.3336H92.6047V60.6666H89.9466V63.3336Z" fill="#231F20"/>
<path d="M89.948 44.667H92.6061V42.0002H89.948V44.667Z" fill="#F2546B"/>
<path d="M143.106 95.3336H145.764V92.6667H143.106V95.3336Z" fill="#6D6360"/>
<path d="M121.842 97.9999H124.5V95.3336H121.842V97.9999Z" fill="#231F20"/>
<path d="M143.106 97.9999H145.764V95.3336H143.106V97.9999Z" fill="#7D726F"/>
<path d="M140.447 97.9999H143.105V95.3337H140.447V97.9999Z" fill="#7D726F"/>
<path d="M137.79 97.9999H140.448V95.3337H137.79V97.9999Z" fill="#231F20"/>
<path d="M103.237 97.9999H105.895V95.3336H103.237V97.9999Z" fill="#231F20"/>
<path d="M100.579 97.9999H103.237V95.3336H100.579V97.9999Z" fill="#231F20"/>
<path d="M116.527 97.9999H119.185V95.3336H116.527V97.9999Z" fill="#231F20"/>
<path d="M119.185 97.9999H121.843V95.3336H119.185V97.9999Z" fill="#655C59"/>
<path d="M140.447 65.9999H143.105V63.333H140.447V65.9999Z" fill="#231F20"/>
<path d="M143.106 92.6667H145.764V89.9998H143.106V92.6667Z" fill="#231F20"/>
<path d="M140.447 71.3331H143.105V68.6663H140.447V71.3331Z" fill="#A89E9B"/>
<path d="M92.6055 44.667H95.2636V42.0002H92.6055V44.667Z" fill="#A89E9B"/>
<path d="M140.447 74H143.105V71.3331H140.447V74Z" fill="#A89E9B"/>
<path d="M140.447 79.3333H143.105V76.6671H140.447V79.3333Z" fill="#A89E9B"/>
<path d="M140.447 76.6671H143.105L143.105 74H140.447L140.447 76.6671Z" fill="#A89E9B"/>
<path d="M137.79 95.3337H140.448V92.6666H137.79V95.3337Z" fill="#6D6360"/>
<path d="M135.132 95.3336L137.79 95.3337V92.6666H135.132V95.3336Z" fill="#231F20"/>
<path d="M140.447 95.3337H143.105V92.6667H140.447V95.3337Z" fill="#6D6360"/>
<path d="M145.762 100.666H148.42V97.9999H145.762V100.666Z" fill="#231F20"/>
<path d="M140.447 84.6665H143.105V81.9996H140.447V84.6665Z" fill="#A89E9B"/>
<path d="M140.447 87.3327H143.105V84.6665H140.447V87.3327Z" fill="#A89E9B"/>
<path d="M140.447 92.6667H143.105L143.105 89.9997H140.447L140.447 92.6667Z" fill="#231F20"/>
<path d="M140.447 82.0002H143.105V79.3333H140.447V82.0002Z" fill="#8D837F"/>
<path d="M140.447 68.6663H143.105L143.105 65.9999H140.447L140.447 68.6663Z" fill="#C7C0BE"/>
<path d="M108.552 44.667H111.21V42.0002H108.552V44.667Z" fill="#F2546B"/>
<path d="M105.896 44.667H108.553V42.0002H105.896V44.667Z" fill="#C7C0BE"/>
<path d="M111.211 44.667H113.869V42.0002H111.211V44.667Z" fill="#F2546B"/>
<path d="M116.527 44.667H119.185V42.0002H116.527V44.667Z" fill="#231F20"/>
<path d="M113.868 44.667H116.526V42.0002H113.868V44.667Z" fill="#A89E9B"/>
<path d="M103.237 44.667H105.895V42.0002H103.237V44.667Z" fill="#231F20"/>
<path d="M95.263 44.667H97.9204V42.0002H95.263V44.667Z" fill="#231F20"/>
<path d="M140.447 89.9997H143.105L143.105 87.3327H140.447L140.447 89.9997Z" fill="#ECEAE9"/>
<path d="M87.289 76.667H89.9472V74.0001L87.289 74V76.667Z" fill="#ECEAE9"/>
<path d="M87.289 79.3334L89.9472 79.3333V76.667H87.289V79.3334Z" fill="#C9C3C1"/>
<path d="M87.289 82.0002H89.9472V79.3333L87.289 79.3334V82.0002Z" fill="#231F20"/>
<path d="M87.2905 50.0002H89.9486V47.3334H87.2905V50.0002Z" fill="#F2546B"/>
<path d="M87.289 74L89.9472 74.0001V71.3332H87.289V74Z" fill="#ECEAE9"/>
<path d="M87.289 60.6668L89.9472 60.6666V57.9998H87.2891L87.289 60.6668Z" fill="#655C59"/>
<path d="M87.2891 55.3334H89.9472V52.6666H87.2891V55.3334Z" fill="#A89E9B"/>
<path d="M87.2891 52.6666H89.9472V50.0003L87.289 50.0002L87.2891 52.6666Z" fill="#A89E9B"/>
<path d="M87.2891 57.9998H89.9472V55.3334H87.2891V57.9998Z" fill="#E7E3E2"/>
<path d="M87.289 68.6662H89.9472V66H87.289V68.6662Z" fill="#655C59"/>
<path d="M87.289 63.3336H89.9472V60.6666L87.289 60.6668V63.3336Z" fill="#655C59"/>
<path d="M87.289 71.3332H89.9472V68.6662H87.289V71.3332Z" fill="#ECEAE9"/>
<path d="M87.289 66H89.9472V63.333H87.289V66Z" fill="#655C59"/>
<path d="M121.842 100.666H124.5V97.9999H121.842V100.666Z" fill="#231F20"/>
<path d="M140.447 100.666H143.105V97.9999H140.447V100.666Z" fill="#231F20"/>
<path d="M143.106 100.666H145.764V97.9999H143.106V100.666Z" fill="#655C59"/>
<path d="M119.185 100.666H121.843V97.9999H119.185L119.185 100.666Z" fill="#655C59"/>
<path d="M116.527 100.666H119.185L119.185 97.9999H116.527V100.666Z" fill="#231F20"/>
<path d="M89.948 42.0002H92.6061V39.3339H89.948V42.0002Z" fill="#A89E9B"/>
<path d="M143.106 79.3333H145.764V76.6671H143.106V79.3333Z" fill="#A89E9B"/>
<path d="M143.106 84.6665H145.764V81.9996H143.106V84.6665Z" fill="#A89E9B"/>
<path d="M143.106 82.0002H145.764V79.3333H143.106V82.0002Z" fill="#A89E9B"/>
<path d="M143.106 87.3327H145.764V84.6665H143.106V87.3327Z" fill="#A89E9B"/>
<path d="M143.106 71.3331H145.764V68.6662H143.106V71.3331Z" fill="#A89E9B"/>
<path d="M143.106 68.6662H145.764V66H143.106V68.6662Z" fill="#C7C0BE"/>
<path d="M143.106 66H145.764V63.333H143.106V66Z" fill="#231F20"/>
<path d="M143.106 76.6671H145.764V74.0001H143.106V76.6671Z" fill="#A89E9B"/>
<path d="M143.106 74.0001H145.764V71.3331H143.106V74.0001Z" fill="#8D837F"/>
<path d="M111.211 42.0002H113.869V39.3338H111.211V42.0002Z" fill="#A89E9B"/>
<path d="M105.896 42.0002H108.553V39.3339H105.896V42.0002Z" fill="#231F20"/>
<path d="M108.552 42.0002H111.21V39.3338H108.552V42.0002Z" fill="#C7C0BE"/>
<path d="M87.289 44.667H89.9472V42.0002L87.289 42.0001V44.667Z" fill="#F2546B"/>
<path d="M92.6055 42.0002H95.2636V39.3339H92.6055V42.0002Z" fill="#231F20"/>
<path d="M87.289 42.0001L89.9472 42.0002V39.3338L87.289 39.3339V42.0001Z" fill="#C7C0BE"/>
<path d="M143.106 89.9998H145.764V87.3327H143.106V89.9998Z" fill="#7D726F"/>
<path d="M113.868 42.0002H116.526V39.3339H113.868V42.0002Z" fill="#231F20"/>
<path d="M87.2905 47.3334H89.9486V44.6664H87.2905V47.3334Z" fill="#F2546B"/>
<path d="M169.684 42.0001H172.342V39.3339H169.684V42.0001Z" fill="#A89E9B"/>
<path d="M169.684 50.0002H172.342V47.3334H169.684V50.0002Z" fill="#231F20"/>
<path d="M169.684 47.3334H172.342V44.6664H169.684V47.3334Z" fill="#443B38"/>
<path d="M169.684 39.3339H172.342V36.667H169.684V39.3339Z" fill="#231F20"/>
<path d="M169.684 44.667H172.342V42.0001H169.684V44.667Z" fill="#443B38"/>
<path d="M164.369 36.6668H167.026V34H164.369V36.6668Z" fill="#231F20"/>
<path d="M164.369 39.3338H167.026V36.6668H164.369V39.3338Z" fill="#A89E9B"/>
<path d="M164.369 60.6666H167.026V57.9998H164.369V60.6666Z" fill="#443B38"/>
<path d="M164.369 57.9998H167.026V55.3335H164.369V57.9998Z" fill="#655C59"/>
<path d="M164.369 55.3335H167.026V52.6666H164.369V55.3335Z" fill="#A89E9B"/>
<path d="M164.369 63.3336H167.026V60.6666H164.369V63.3336Z" fill="#231F20"/>
<path d="M164.369 47.3333H167.026V44.6664H164.369V47.3333Z" fill="#655C59"/>
<path d="M164.369 52.6666H167.026V50.0003H164.369V52.6666Z" fill="#A89E9B"/>
<path d="M164.369 44.667H167.026V42.0002H164.369V44.667Z" fill="#655C59"/>
<path d="M164.369 42.0002H167.026V39.3338H164.369V42.0002Z" fill="#655C59"/>
<path d="M164.369 50.0003H167.026V47.3333H164.369V50.0003Z" fill="#A89E9B"/>
<path d="M167.026 47.3333H169.685V44.6664H167.026V47.3333Z" fill="#655C59"/>
<path d="M167.026 39.3338H169.685V36.667L167.026 36.6668V39.3338Z" fill="#A89E9B"/>
<path d="M167.026 36.6668L169.685 36.667V34H167.026V36.6668Z" fill="#231F20"/>
<path d="M167.026 42.0002L169.685 42.0001V39.3338H167.026V42.0002Z" fill="#655C59"/>
<path d="M167.026 44.667H169.685V42.0001L167.026 42.0002V44.667Z" fill="#655C59"/>
<path d="M167.026 60.6666H169.685V57.9998H167.026V60.6666Z" fill="#231F20"/>
<path d="M167.026 55.3335L169.685 55.3334V52.6666H167.026V55.3335Z" fill="#231F20"/>
<path d="M167.026 50.0003L169.685 50.0002V47.3333H167.026V50.0003Z" fill="#443B38"/>
<path d="M167.026 52.6666H169.685V50.0002L167.026 50.0003V52.6666Z" fill="#231F20"/>
<path d="M167.026 57.9998H169.685V55.3334L167.026 55.3335V57.9998Z" fill="#231F20"/>
<path d="M172.343 42.0001H175V39.3339H172.343V42.0001Z" fill="#231F20"/>
<path d="M172.343 44.667H175V42.0001H172.343V44.667Z" fill="#231F20"/>
<path d="M172.343 47.3333H175V44.6664H172.343V47.3333Z" fill="#231F20"/>
<path d="M164.209 33.2278V21.9197H152.916V10.6133H33.7322V21.9197H22.4413V33.2278H11.1477V107.5H22.4413V118.808H33.7322V130.115L152.916 130.115V118.808H164.209V107.5H175.5V33.2278H164.209Z" fill="#3F3F3F"/>
<path d="M153.207 17.3082V6L22.5 6V17.3082H11.2091V96.4662H22.5V107.774H153.207V96.4662H164.5V17.3082H153.207Z" fill="white"/>
<path d="M153.207 17.3082V6L22.5812 6V17.3082H11.2903V96.4662H22.5812V107.774H153.207V96.4662H164.5V17.3082H153.207Z" fill="white"/>
<path d="M164.172 22.3086V101.467H175.463V22.3086H164.172Z" fill="#3F3F3F"/>
<path d="M164.173 22.3082V11H152.88V22.3082H164.173Z" fill="#3F3F3F"/>
<path d="M148.438 108H23V119H153V108H148.438Z" fill="#3F3F3F"/>
<path d="M27.5614 11H153V0H23V11H27.5614Z" fill="#3F3F3F"/>
<path d="M22.5846 11.3066H11.2937V22.6148H22.5846V11.3066Z" fill="#3F3F3F"/>
<path d="M11 75.8582V23H0V97H11V75.8582Z" fill="#3F3F3F"/>
</svg>
