<svg width="212" height="515" viewBox="0 0 212 515" fill="none" xmlns="http://www.w3.org/2000/svg">
<mask id="path-1-inside-1_1309_4204" fill="white">
<path fill-rule="evenodd" clip-rule="evenodd" d="M30.4064 0L181.594 1.32172e-05V8.44615H186.661V13.5139L190.884 13.5139V17.737H195.108V22.8047H199.331V27.8724L203.554 27.8725V32.9402H207.777H212V38V38.0079V477V482.068H207.777H203.554V487.136H199.331V492.203H195.108V497.271H190.884V501.494H186.661V506.562H181.594V515.008H30.4065L30.4064 506.562H25.3387L25.3387 501.494H21.1155V497.271H16.8924V492.203H12.6693L12.6693 487.136H8.44621V482.068H4.22311H4.43026e-07L3.32276e-06 477L0 38.0079L4.43035e-07 32.9402H4.22311H8.44621V27.8724L12.6693 27.8724L12.6693 22.8047H16.8924V17.737H21.1155V13.5139H25.3386L25.3386 8.44614L30.4064 8.44614L30.4064 0Z"/>
</mask>
<path fill-rule="evenodd" clip-rule="evenodd" d="M30.4064 0L181.594 1.32172e-05V8.44615H186.661V13.5139L190.884 13.5139V17.737H195.108V22.8047H199.331V27.8724L203.554 27.8725V32.9402H207.777H212V38V38.0079V477V482.068H207.777H203.554V487.136H199.331V492.203H195.108V497.271H190.884V501.494H186.661V506.562H181.594V515.008H30.4065L30.4064 506.562H25.3387L25.3387 501.494H21.1155V497.271H16.8924V492.203H12.6693L12.6693 487.136H8.44621V482.068H4.22311H4.43026e-07L3.32276e-06 477L0 38.0079L4.43035e-07 32.9402H4.22311H8.44621V27.8724L12.6693 27.8724L12.6693 22.8047H16.8924V17.737H21.1155V13.5139H25.3386L25.3386 8.44614L30.4064 8.44614L30.4064 0Z" fill="#FED001"/>
<path d="M181.594 1.32172e-05H184.594V-2.99999L181.594 -2.99999V1.32172e-05ZM30.4064 0V-3L27.4064 -3L27.4064 1.35495e-06L30.4064 0ZM181.594 8.44615H178.594V11.4462H181.594V8.44615ZM186.661 8.44615H189.661V5.44615H186.661V8.44615ZM186.661 13.5139H183.661V16.5139L186.661 16.5139V13.5139ZM190.884 13.5139H193.884V10.5139H190.884V13.5139ZM190.884 17.737H187.884V20.737H190.884V17.737ZM195.108 17.737H198.108V14.737H195.108V17.737ZM195.108 22.8047H192.108V25.8047H195.108V22.8047ZM199.331 22.8047H202.331V19.8047H199.331V22.8047ZM199.331 27.8724H196.331V30.8724H199.331V27.8724ZM203.554 27.8725H206.554V24.8725L203.554 24.8725V27.8725ZM203.554 32.9402H200.554V35.9402H203.554V32.9402ZM212 32.9402H215V29.9402H212V32.9402ZM212 482.068V485.068H215V482.068H212ZM203.554 482.068V479.068H200.554V482.068H203.554ZM203.554 487.136V490.136H206.554V487.136H203.554ZM199.331 487.136V484.136H196.331V487.136H199.331ZM199.331 492.203V495.203H202.331V492.203H199.331ZM195.108 492.203V489.203H192.108V492.203H195.108ZM195.108 497.271V500.271H198.108V497.271H195.108ZM190.884 497.271V494.271H187.884V497.271H190.884ZM190.884 501.494V504.494H193.884V501.494H190.884ZM186.661 501.494V498.494H183.661V501.494H186.661ZM186.661 506.562V509.562H189.661V506.562H186.661ZM181.594 506.562V503.562H178.594V506.562H181.594ZM181.594 515.008V518.008H184.594V515.008H181.594ZM30.4065 515.008L27.4065 515.008L27.4065 518.008H30.4065V515.008ZM30.4064 506.562L33.4064 506.562L33.4063 503.562H30.4064V506.562ZM25.3387 506.562H22.3387V509.562H25.3387V506.562ZM25.3387 501.494L28.3387 501.494L28.3387 498.494H25.3387V501.494ZM21.1155 501.494H18.1155V504.494H21.1155V501.494ZM21.1155 497.271H24.1155V494.271H21.1155V497.271ZM16.8924 497.271H13.8924V500.271H16.8924V497.271ZM16.8924 492.203H19.8924V489.203H16.8924V492.203ZM12.6693 492.203H9.66933L9.66933 495.203H12.6693V492.203ZM12.6693 487.136H15.6693V484.136H12.6693V487.136ZM8.44621 487.136H5.44621V490.136H8.44621V487.136ZM8.44621 482.068H11.4462V479.068H8.44621V482.068ZM4.43026e-07 482.068L-3 482.068L-3 485.068H4.43026e-07V482.068ZM3.32276e-06 477H3H3.32276e-06ZM0 38.0079H-3H0ZM4.43035e-07 32.9402V29.9402H-3L-3 32.9402H4.43035e-07ZM8.44621 32.9402V35.9402H11.4462V32.9402H8.44621ZM8.44621 27.8724L8.44621 24.8724L5.44622 24.8724V27.8724H8.44621ZM12.6693 27.8724L12.6693 30.8724H15.6693V27.8724L12.6693 27.8724ZM12.6693 22.8047V19.8047H9.66932L9.66932 22.8047H12.6693ZM16.8924 22.8047V25.8047H19.8924V22.8047H16.8924ZM16.8924 17.737V14.737H13.8924V17.737H16.8924ZM21.1155 17.737V20.737H24.1155V17.737H21.1155ZM21.1155 13.5139V10.5139H18.1155V13.5139H21.1155ZM25.3386 13.5139V16.5139H28.3386L28.3386 13.5139L25.3386 13.5139ZM25.3386 8.44614V5.44614L22.3386 5.44614V8.44614L25.3386 8.44614ZM30.4064 8.44614L30.4064 11.4461H33.4064L33.4064 8.44614L30.4064 8.44614ZM181.594 -2.99999L30.4064 -3V3L181.594 3.00001V-2.99999ZM184.594 8.44615V1.32172e-05H178.594V8.44615H184.594ZM186.661 5.44615H181.594V11.4462H186.661V5.44615ZM189.661 13.5139V8.44615H183.661V13.5139H189.661ZM190.884 10.5139L186.661 10.5139V16.5139H190.884V10.5139ZM193.884 17.737V13.5139H187.884V17.737H193.884ZM195.108 14.737H190.884V20.737H195.108V14.737ZM198.108 22.8047V17.737H192.108V22.8047H198.108ZM199.331 19.8047H195.108V25.8047H199.331V19.8047ZM202.331 27.8724V22.8047H196.331V27.8724H202.331ZM203.554 24.8725L199.331 24.8724V30.8724L203.554 30.8725V24.8725ZM206.554 32.9402V27.8725H200.554V32.9402H206.554ZM207.777 29.9402H203.554V35.9402H207.777V29.9402ZM212 29.9402H207.777V35.9402H212V29.9402ZM215 38V32.9402H209V38H215ZM215 38.0079V38H209V38.0079H215ZM215 477V38.0079H209V477H215ZM215 482.068V477H209V482.068H215ZM207.777 485.068H212V479.068H207.777V485.068ZM203.554 485.068H207.777V479.068H203.554V485.068ZM206.554 487.136V482.068H200.554V487.136H206.554ZM199.331 490.136H203.554V484.136H199.331V490.136ZM202.331 492.203V487.136H196.331V492.203H202.331ZM195.108 495.203H199.331V489.203H195.108V495.203ZM198.108 497.271V492.203H192.108V497.271H198.108ZM190.884 500.271H195.108V494.271H190.884V500.271ZM193.884 501.494V497.271H187.884V501.494H193.884ZM186.661 504.494H190.884V498.494H186.661V504.494ZM189.661 506.562V501.494H183.661V506.562H189.661ZM181.594 509.562H186.661V503.562H181.594V509.562ZM184.594 515.008V506.562H178.594V515.008H184.594ZM30.4065 518.008H181.594V512.008H30.4065V518.008ZM27.4064 506.562L27.4065 515.008L33.4065 515.008L33.4064 506.562L27.4064 506.562ZM25.3387 509.562H30.4064V503.562H25.3387V509.562ZM22.3387 501.494L22.3387 506.562L28.3387 506.562L28.3387 501.494L22.3387 501.494ZM21.1155 504.494H25.3387V498.494H21.1155V504.494ZM18.1155 497.271V501.494H24.1155V497.271H18.1155ZM16.8924 500.271H21.1155V494.271H16.8924V500.271ZM13.8924 492.203V497.271H19.8924V492.203H13.8924ZM12.6693 495.203H16.8924V489.203H12.6693V495.203ZM9.66933 487.136L9.66933 492.203H15.6693L15.6693 487.136H9.66933ZM8.44621 490.136H12.6693V484.136H8.44621V490.136ZM5.44621 482.068V487.136H11.4462V482.068H5.44621ZM4.22311 485.068H8.44621V479.068H4.22311V485.068ZM4.43026e-07 485.068H4.22311V479.068H4.43026e-07V485.068ZM-3 477L-3 482.068L3 482.068L3 477L-3 477ZM-3 38.0079L-3 477H3L3 38.0079H-3ZM-3 32.9402L-3 38.0079H3L3 32.9402H-3ZM4.22311 29.9402H4.43035e-07V35.9402H4.22311V29.9402ZM8.44621 29.9402H4.22311V35.9402H8.44621V29.9402ZM5.44622 27.8724V32.9402H11.4462V27.8724H5.44622ZM12.6693 24.8724L8.44621 24.8724L8.44622 30.8724L12.6693 30.8724L12.6693 24.8724ZM9.66932 22.8047L9.66932 27.8724L15.6693 27.8724L15.6693 22.8047L9.66932 22.8047ZM16.8924 19.8047H12.6693V25.8047H16.8924V19.8047ZM13.8924 17.737V22.8047H19.8924V17.737H13.8924ZM21.1155 14.737H16.8924V20.737H21.1155V14.737ZM18.1155 13.5139V17.737H24.1155V13.5139H18.1155ZM25.3386 10.5139H21.1155V16.5139H25.3386V10.5139ZM22.3386 8.44614L22.3386 13.5139L28.3386 13.5139L28.3386 8.44614L22.3386 8.44614ZM30.4064 5.44614L25.3386 5.44614L25.3386 11.4461L30.4064 11.4461L30.4064 5.44614ZM27.4064 1.35495e-06L27.4064 8.44614L33.4064 8.44614L33.4064 -1.35495e-06L27.4064 1.35495e-06Z" fill="#3F3F3F" mask="url(#path-1-inside-1_1309_4204)"/>
<mask id="path-3-inside-2_1309_4204" fill="white">
<path fill-rule="evenodd" clip-rule="evenodd" d="M43.0001 15L169 15V23.4462L173.068 23.4462V28.5139H177.291V32.7371L181.514 32.7371V37.8048H185.737V42.8725H189.96V47.9402H194.183H198.406V53.008H198V463H198.406V468.068H194.183H189.96V473.136H185.737V478.203H181.514V483.271H177.291V487.494H173.068V492.562H170V501H41V492.562H38.3387L38.3387 487.494H34.1155V483.271H29.8924V478.203H25.6693L25.6693 473.136H21.4462V468.068H17.2231H13L13 463L13 53.0079L13 47.9401H17.2231H21.4462V42.8724L25.6693 42.8724L25.6693 37.8047H29.8924V32.737H34.1155V28.5139H38.3386L38.3386 23.4461L43.0001 23.4461L43.0001 15Z"/>
</mask>
<path fill-rule="evenodd" clip-rule="evenodd" d="M43.0001 15L169 15V23.4462L173.068 23.4462V28.5139H177.291V32.7371L181.514 32.7371V37.8048H185.737V42.8725H189.96V47.9402H194.183H198.406V53.008H198V463H198.406V468.068H194.183H189.96V473.136H185.737V478.203H181.514V483.271H177.291V487.494H173.068V492.562H170V501H41V492.562H38.3387L38.3387 487.494H34.1155V483.271H29.8924V478.203H25.6693L25.6693 473.136H21.4462V468.068H17.2231H13L13 463L13 53.0079L13 47.9401H17.2231H21.4462V42.8724L25.6693 42.8724L25.6693 37.8047H29.8924V32.737H34.1155V28.5139H38.3386L38.3386 23.4461L43.0001 23.4461L43.0001 15Z" fill="#F5EFEB"/>
<path d="M169 15H172V12L169 12V15ZM43.0001 15V12L40.0001 12V15L43.0001 15ZM169 23.4462H166V26.4462L169 26.4462V23.4462ZM173.068 23.4462H176.068V20.4462L173.068 20.4462V23.4462ZM173.068 28.5139H170.068V31.5139H173.068V28.5139ZM177.291 28.5139H180.291V25.5139H177.291V28.5139ZM177.291 32.7371H174.291V35.737L177.291 35.7371V32.7371ZM181.514 32.7371H184.514V29.7371L181.514 29.7371V32.7371ZM181.514 37.8048H178.514V40.8048H181.514V37.8048ZM185.737 37.8048H188.737V34.8048H185.737V37.8048ZM185.737 42.8725H182.737V45.8725H185.737V42.8725ZM189.96 42.8725H192.96V39.8725H189.96V42.8725ZM189.96 47.9402H186.96V50.9402H189.96V47.9402ZM198.406 47.9402H201.406V44.9402H198.406V47.9402ZM198.406 53.008V56.008H201.406V53.008H198.406ZM198 53.008V50.008H195V53.008H198ZM198 463H195V466H198V463ZM198.406 463H201.406V460H198.406V463ZM198.406 468.068V471.068H201.406V468.068H198.406ZM189.96 468.068V465.068H186.96V468.068H189.96ZM189.96 473.136V476.136H192.96V473.136H189.96ZM185.737 473.136V470.136H182.737V473.136H185.737ZM185.737 478.203V481.203H188.737V478.203H185.737ZM181.514 478.203V475.203H178.514V478.203H181.514ZM181.514 483.271V486.271H184.514V483.271H181.514ZM177.291 483.271V480.271H174.291V483.271H177.291ZM177.291 487.494V490.494H180.291V487.494H177.291ZM173.068 487.494V484.494H170.068V487.494H173.068ZM173.068 492.562V495.562H176.068V492.562H173.068ZM170 492.562V489.562H167V492.562H170ZM170 501V504H173V501H170ZM41 501H38V504H41V501ZM41 492.562H44V489.562H41V492.562ZM38.3387 492.562H35.3387L35.3387 495.562H38.3387V492.562ZM38.3387 487.494H41.3387L41.3386 484.494H38.3387V487.494ZM34.1155 487.494H31.1155V490.494H34.1155V487.494ZM34.1155 483.271H37.1155V480.271H34.1155V483.271ZM29.8924 483.271H26.8924V486.271H29.8924V483.271ZM29.8924 478.203H32.8924V475.203H29.8924V478.203ZM25.6693 478.203H22.6693L22.6693 481.203H25.6693V478.203ZM25.6693 473.136H28.6693L28.6693 470.136H25.6693V473.136ZM21.4462 473.136H18.4462V476.136H21.4462V473.136ZM21.4462 468.068H24.4462V465.068H21.4462V468.068ZM13 468.068H10L10 471.068H13V468.068ZM13 463H10H13ZM13 53.0079H10H13ZM13 47.9401V44.9401H10L10 47.9401H13ZM21.4462 47.9401V50.9401H24.4462V47.9401H21.4462ZM21.4462 42.8724L21.4462 39.8724L18.4462 39.8724V42.8724H21.4462ZM25.6693 42.8724L25.6693 45.8724L28.6693 45.8724L28.6693 42.8724H25.6693ZM25.6693 37.8047V34.8047H22.6693L22.6693 37.8047H25.6693ZM29.8924 37.8047V40.8047H32.8924V37.8047H29.8924ZM29.8924 32.737V29.737H26.8924V32.737H29.8924ZM34.1155 32.737V35.737H37.1155V32.737H34.1155ZM34.1155 28.5139V25.5139H31.1155V28.5139H34.1155ZM38.3386 28.5139V31.5139H41.3386L41.3386 28.5139L38.3386 28.5139ZM38.3386 23.4461V20.4461L35.3386 20.4461L35.3386 23.4461L38.3386 23.4461ZM43.0001 23.4461V26.4461L46.0001 26.4461V23.4461L43.0001 23.4461ZM169 12L43.0001 12V18L169 18V12ZM172 23.4462V15H166V23.4462H172ZM173.068 20.4462L169 20.4462V26.4462L173.068 26.4462V20.4462ZM176.068 28.5139V23.4462H170.068V28.5139H176.068ZM177.291 25.5139H173.068V31.5139H177.291V25.5139ZM180.291 32.7371V28.5139H174.291V32.7371H180.291ZM181.514 29.7371L177.291 29.7371V35.7371L181.514 35.7371V29.7371ZM184.514 37.8048V32.7371H178.514V37.8048H184.514ZM185.737 34.8048H181.514V40.8048H185.737V34.8048ZM188.737 42.8725V37.8048H182.737V42.8725H188.737ZM189.96 39.8725H185.737V45.8725H189.96V39.8725ZM192.96 47.9402V42.8725H186.96V47.9402H192.96ZM194.183 44.9402H189.96V50.9402H194.183V44.9402ZM198.406 44.9402H194.183V50.9402H198.406V44.9402ZM201.406 53.008V47.9402H195.406V53.008H201.406ZM198 56.008H198.406V50.008H198V56.008ZM201 463V53.008H195V463H201ZM198.406 460H198V466H198.406V460ZM201.406 468.068V463H195.406V468.068H201.406ZM194.183 471.068H198.406V465.068H194.183V471.068ZM189.96 471.068H194.183V465.068H189.96V471.068ZM192.96 473.136V468.068H186.96V473.136H192.96ZM185.737 476.136H189.96V470.136H185.737V476.136ZM188.737 478.203V473.136H182.737V478.203H188.737ZM181.514 481.203H185.737V475.203H181.514V481.203ZM184.514 483.271V478.203H178.514V483.271H184.514ZM177.291 486.271H181.514V480.271H177.291V486.271ZM180.291 487.494V483.271H174.291V487.494H180.291ZM173.068 490.494H177.291V484.494H173.068V490.494ZM176.068 492.562V487.494H170.068V492.562H176.068ZM170 495.562H173.068V489.562H170V495.562ZM173 501V492.562H167V501H173ZM41 504H170V498H41V504ZM38 492.562V501H44V492.562H38ZM38.3387 495.562H41V489.562H38.3387V495.562ZM35.3387 487.494L35.3387 492.562H41.3387L41.3387 487.494H35.3387ZM34.1155 490.494H38.3387V484.494H34.1155V490.494ZM31.1155 483.271V487.494H37.1155V483.271H31.1155ZM29.8924 486.271H34.1155V480.271H29.8924V486.271ZM26.8924 478.203V483.271H32.8924V478.203H26.8924ZM25.6693 481.203H29.8924V475.203H25.6693V481.203ZM22.6693 473.136L22.6693 478.203H28.6693L28.6693 473.136H22.6693ZM21.4462 476.136H25.6693V470.136H21.4462V476.136ZM18.4462 468.068V473.136H24.4462V468.068H18.4462ZM17.2231 471.068H21.4462V465.068H17.2231V471.068ZM13 471.068H17.2231V465.068H13V471.068ZM10 463L10 468.068H16L16 463H10ZM10 53.0079V463H16V53.0079H10ZM10 47.9401L10 53.0079H16L16 47.9401H10ZM17.2231 44.9401H13V50.9401H17.2231V44.9401ZM21.4462 44.9401H17.2231V50.9401H21.4462V44.9401ZM18.4462 42.8724V47.9401H24.4462V42.8724H18.4462ZM25.6693 39.8724L21.4462 39.8724L21.4462 45.8724L25.6693 45.8724L25.6693 39.8724ZM22.6693 37.8047L22.6693 42.8724H28.6693L28.6693 37.8047H22.6693ZM29.8924 34.8047H25.6693V40.8047H29.8924V34.8047ZM26.8924 32.737V37.8047H32.8924V32.737H26.8924ZM34.1155 29.737H29.8924V35.737H34.1155V29.737ZM31.1155 28.5139V32.737H37.1155V28.5139H31.1155ZM38.3386 25.5139H34.1155V31.5139H38.3386V25.5139ZM35.3386 23.4461L35.3386 28.5139L41.3386 28.5139L41.3386 23.4461L35.3386 23.4461ZM43.0001 20.4461L38.3386 20.4461V26.4461L43.0001 26.4461V20.4461ZM40.0001 15L40.0001 23.4461L46.0001 23.4461L46.0001 15L40.0001 15Z" fill="#3F3F3F" mask="url(#path-3-inside-2_1309_4204)"/>
</svg>
