<svg width="94" height="115" viewBox="0 0 94 115" fill="none" xmlns="http://www.w3.org/2000/svg">
<path d="M70.0735 44.0356C70.1838 43.9996 70.2937 43.9598 70.4039 43.9225C70.2285 43.0064 69.851 40.1418 69.7026 39.2201C69.7785 39.6966 35.0675 50.3782 35.809 31.8775C35.9447 28.5003 37.7727 25.2119 40.623 23.3936C42.4052 22.2553 44.4978 21.7002 46.5819 21.3382C51.9839 20.4013 57.5914 20.6733 62.8795 22.1277C64.8297 22.6641 66.4508 22.75 67.6368 22.5523C67.9118 21.4499 68.2175 20.3574 68.5579 19.2764C67.8046 18.6957 66.6836 18.1038 65.0986 17.5567C59.1187 15.4893 52.7142 13.8972 46.3428 14.2409C38.3007 14.6742 29.9154 19.0354 27.2136 26.6232C26.2616 29.2945 26.0651 32.189 26.2945 35.0151C26.5615 38.2737 27.4282 41.5756 29.4172 44.1701C33.8995 50.0229 42.4969 50.6093 49.7809 49.4619C56.7047 48.3712 63.4073 46.1987 70.0735 44.0356Z" fill="#F5EFEB"/>
<path d="M64.9529 66.18C65.0684 66.1912 65.1844 66.207 65.3001 66.2197C65.3273 67.1502 65.5802 70.0285 65.6347 70.956C65.5935 70.4727 26.5141 67.1672 34.9253 87.4199C39.2505 97.8369 55.1038 93.1424 62.6818 89.1266C64.4693 88.1802 66.0331 87.7446 67.2339 87.6806C67.7414 88.6968 68.2768 89.6971 68.8435 90.6785C68.2341 91.4087 67.2682 92.2297 65.8397 93.1084C60.4504 96.4227 54.5437 99.3661 48.2494 100.413C38.9175 101.965 28.2988 98.1476 24.9212 88.6457C19.9732 74.7263 31.5291 66.0612 43.9665 65.2849C50.9621 64.8481 57.9762 65.5144 64.9529 66.18Z" fill="#F5EFEB"/>
</svg>
