<svg width="89" height="121" viewBox="0 0 89 121" fill="none" xmlns="http://www.w3.org/2000/svg">
<path d="M41.6862 19.6329C42.2826 18.1699 41.0839 14.3204 44.1509 15.8003C45.5717 16.4856 46.8364 18.1528 45.6982 19.2457C44.9066 20.0075 43.5514 19.8855 42.7491 20.6344C42.0977 21.243 42.0104 22.2264 41.9653 23.1148C41.8609 25.1116 41.7578 27.1058 41.6552 29.102C41.6139 29.9042 41.722 30.9329 42.4914 31.1634C42.8532 31.2719 43.2407 31.1462 43.5885 31.001C46.1797 29.9224 49.6748 24.4854 51.2756 22.2295C53.1724 19.5544 50.7979 18.6869 53.2055 17.2633C55.4805 15.9179 57.6647 19.2106 57.2031 21.1304C56.7499 23.0142 53.9191 21.4807 52.5608 22.8265C50.4996 24.8666 48.5038 30.0829 47.7748 32.8943C51.094 32.3437 54.2877 31.0538 57.0576 29.1448C57.6477 28.7391 58.2252 28.2964 58.6557 27.7257C59.0402 27.2142 59.294 26.6168 59.6387 26.0795C60.5911 24.605 62.4868 23.6163 64.1398 24.1997C65.7953 24.7844 66.5481 27.2879 65.1977 28.4076C64.6235 28.8844 63.849 29.0218 63.1172 29.1696C57.723 30.2672 52.6629 32.9537 48.7323 36.8073C47.9303 37.5934 47.1305 38.5256 47.0676 39.6476C46.9807 41.1853 48.2917 42.4231 49.5882 43.254C51.7336 44.6277 54.1648 45.5525 56.6806 45.9539C56.6855 45.9564 57.7012 44.0052 59.156 44.3893C60.3949 44.7165 61.7015 46.057 61.6368 47.3803C61.4936 50.284 56.1157 51.0223 55.6503 47.9658C55.5301 47.1689 54.339 47.0427 53.5932 46.7359C49.0367 44.861 44.0285 42.9537 39.3083 44.366C37.7857 44.8222 36.1818 45.6164 34.6937 45.0617C30.0614 43.3346 32.9716 38.1671 34.7185 35.8843C37.5691 32.1583 41.0891 21.0939 41.6862 19.6329Z" fill="#F5EFEB"/>
<path d="M35.6379 76.7162C36.1207 76.2747 36.5907 75.7775 36.7719 75.1489C36.9597 74.4912 36.8028 73.7689 37.0042 73.1148C37.364 71.9352 39.0185 71.3927 40.0079 72.1296C40.9967 72.8647 40.9501 74.6059 39.9245 75.2881C39.5082 75.5663 39.0017 75.6705 38.5283 75.8358C36.7832 76.4464 35.475 77.8785 34.2438 79.2575C33.5551 80.0299 32.8143 81.0019 33.1012 81.9966C33.452 83.2033 34.996 83.5032 36.2511 83.5559C40.6613 83.7428 45.0879 83.589 49.4746 83.0991C49.9882 83.0401 50.5285 82.968 50.9402 82.6582C51.4574 82.2691 51.6581 81.6008 51.9623 81.0297C52.4819 80.0522 53.4226 79.2665 54.5159 79.1053C55.6093 78.9442 56.8187 79.5007 57.2623 80.5123C57.8757 81.9131 56.8551 83.5886 55.4826 84.2607C54.1108 84.9345 52.5132 84.8846 50.9846 84.8732C46.1344 84.834 41.2813 85.3089 36.5304 86.291C35.9684 87.4112 37.4562 88.4211 38.6521 88.7981C42.3445 89.9638 46.1512 91.0885 50.0143 90.8534C52.0332 90.731 54.4849 90.4157 55.6745 92.0506C55.8975 92.3595 56.0555 92.7505 55.96 93.1202C55.83 93.6134 55.3127 93.8867 54.8489 94.0984C53.733 94.6065 52.2364 95.0477 51.4298 94.1244C51.068 93.7118 50.9526 93.1055 50.5268 92.7602C50.241 92.5285 49.8622 92.4547 49.4989 92.3901C45.8587 91.7425 42.1777 91.3095 38.4864 91.0951C38.0558 91.0699 37.5974 91.0542 37.2216 91.2691C36.3596 91.7632 36.5077 93.043 36.8505 93.9773C38.0625 97.2885 40.284 100.223 43.1411 102.29C44.204 101.535 45.8897 101.91 46.5318 103.049C47.1713 104.186 46.6193 105.822 45.4224 106.342C44.2229 106.86 42.6521 106.141 42.2627 104.893C42.0598 104.242 42.1456 103.522 41.8945 102.888C41.6622 102.296 41.1677 101.852 40.6875 101.433C39.2949 100.21 37.9017 98.9859 36.5066 97.7623C34.7547 96.2257 32.9648 94.6627 30.823 93.7492C28.2744 92.6617 25.277 92.5048 23.1213 90.7664C21.6901 89.613 20.8505 87.7908 20.7838 85.966C20.6956 83.5735 21.3834 83.0415 23.5107 82.4477C27.8383 81.2373 32.255 79.8145 35.6379 76.7162Z" fill="#F5EFEB"/>
</svg>
