<svg width="149" height="76" viewBox="0 0 149 76" fill="none" xmlns="http://www.w3.org/2000/svg">
<path d="M149 43.4269V48.8577H143.479V43.4269H149Z" fill="#445268"/>
<path d="M143.479 48.8577L143.479 54.2846H137.961V48.8577L143.479 48.8577Z" fill="#445268"/>
<path d="M143.479 43.4269V48.8577L137.961 48.8577V43.4269H143.479Z" fill="#445268"/>
<path d="M143.479 38L143.479 43.4269H137.961V38H143.479Z" fill="#6180BA"/>
<path d="M137.961 48.8577V54.2846H132.442V48.8577H137.961Z" fill="#445268"/>
<path d="M137.961 43.4269V48.8577H132.442V43.4269H137.961Z" fill="#6180BA"/>
<path d="M137.961 38V43.4269H132.442V38H137.961Z" fill="#6180BA"/>
<path d="M137.961 32.5692V38H132.442V32.5692H137.961Z" fill="#6180BA"/>
<path d="M132.442 48.8577V54.2846H126.924V48.8577H132.442Z" fill="#445268"/>
<path d="M132.442 43.4269V48.8577H126.924V43.4269H132.442Z" fill="#6180BA"/>
<path d="M132.442 38V43.4269H126.924V38H132.442Z" fill="#6180BA"/>
<path d="M132.442 32.5692V38H126.924V32.5692H132.442Z" fill="#6180BA"/>
<path d="M126.924 59.7154V65.1423H121.407V59.7154H126.924Z" fill="#445268"/>
<path d="M126.924 54.2846L126.924 59.7154H121.407V54.2846L126.924 54.2846Z" fill="#445268"/>
<path d="M126.924 48.8577V54.2846L121.407 54.2846V48.8577H126.924Z" fill="#445268"/>
<path d="M126.924 43.4269V48.8577H121.407V43.4269H126.924Z" fill="#6180BA"/>
<path d="M126.924 38V43.4269H121.407V38H126.924Z" fill="#6180BA"/>
<path d="M126.924 32.5692V38H121.407V32.5692H126.924Z" fill="#6180BA"/>
<path d="M121.407 65.1423L121.407 70.5731H115.886V65.1423L121.407 65.1423Z" fill="#445268"/>
<path d="M121.407 59.7154V65.1423L115.886 65.1423V59.7154H121.407Z" fill="#445268"/>
<path d="M121.407 54.2846V59.7154H115.886V54.2846H121.407Z" fill="#445268"/>
<path d="M121.407 48.8577V54.2846H115.886V48.8577H121.407Z" fill="#445268"/>
<path d="M121.407 43.4269V48.8577H115.886V43.4269H121.407Z" fill="#6180BA"/>
<path d="M121.407 38V43.4269H115.886V38H121.407Z" fill="#6180BA"/>
<path d="M121.407 32.5692V38H115.886V32.5692H121.407Z" fill="#6180BA"/>
<path d="M121.407 27.1423L121.407 32.5692H115.886V27.1423H121.407Z" fill="#6180BA"/>
<path d="M115.886 70.5731L115.886 76H110.369V70.5731L115.886 70.5731Z" fill="#445268"/>
<path d="M115.886 65.1423V70.5731L110.369 70.5731V65.1423H115.886Z" fill="#445268"/>
<path d="M115.886 59.7154V65.1423H110.369V59.7154H115.886Z" fill="#445268"/>
<path d="M115.886 54.2846V59.7154H110.369V54.2846H115.886Z" fill="#445268"/>
<path d="M115.886 48.8577V54.2846H110.369V48.8577H115.886Z" fill="#6180BA"/>
<path d="M115.886 43.4269V48.8577H110.369V43.4269H115.886Z" fill="#6180BA"/>
<path d="M115.886 38V43.4269H110.369V38H115.886Z" fill="#6180BA"/>
<path d="M115.886 32.5692V38H110.369V32.5692H115.886Z" fill="#6180BA"/>
<path d="M115.886 27.1423V32.5692H110.369V27.1423H115.886Z" fill="#6180BA"/>
<path d="M115.886 21.7154L115.886 27.1423H110.369V21.7154H115.886Z" fill="#6180BA"/>
<path d="M110.369 70.5731V76H104.849V70.5731H110.369Z" fill="#445268"/>
<path d="M110.369 65.1423V70.5731H104.849V65.1423H110.369Z" fill="#445268"/>
<path d="M110.369 59.7154V65.1423H104.849V59.7154H110.369Z" fill="#445268"/>
<path d="M110.369 54.2846V59.7154H104.849V54.2846H110.369Z" fill="#445268"/>
<path d="M110.369 48.8577V54.2846H104.849V48.8577H110.369Z" fill="#445268"/>
<path d="M110.369 43.4269V48.8577H104.849V43.4269H110.369Z" fill="#6180BA"/>
<path d="M110.369 38V43.4269H104.849V38H110.369Z" fill="#6180BA"/>
<path d="M110.369 32.5692V38H104.849V32.5692H110.369Z" fill="#6180BA"/>
<path d="M110.369 27.1423V32.5692H104.849V27.1423H110.369Z" fill="#6180BA"/>
<path d="M110.369 21.7154V27.1423H104.849V21.7154H110.369Z" fill="#6180BA"/>
<path d="M110.369 16.2846L110.369 21.7154H104.849V16.2846H110.369Z" fill="#6180BA"/>
<path d="M104.849 70.5731V76H99.3321V70.5731H104.849Z" fill="#445268"/>
<path d="M104.849 65.1423V70.5731H99.3321V65.1423H104.849Z" fill="#445268"/>
<path d="M104.849 59.7154V65.1423H99.3321V59.7154H104.849Z" fill="#445268"/>
<path d="M104.849 54.2846V59.7154H99.3321V54.2846H104.849Z" fill="#445268"/>
<path d="M104.849 48.8577V54.2846H99.3321V48.8577H104.849Z" fill="#445268"/>
<path d="M104.849 43.4269V48.8577H99.3321V43.4269H104.849Z" fill="#445268"/>
<path d="M104.849 38V43.4269H99.3321V38H104.849Z" fill="#6180BA"/>
<path d="M104.849 32.5692V38H99.3321V32.5692H104.849Z" fill="#6180BA"/>
<path d="M104.849 27.1423V32.5692H99.3321V27.1423H104.849Z" fill="#6180BA"/>
<path d="M104.849 21.7154V27.1423H99.3321V21.7154H104.849Z" fill="#6180BA"/>
<path d="M104.849 16.2846V21.7154H99.3321V16.2846H104.849Z" fill="#6180BA"/>
<path d="M104.849 10.8577L104.849 16.2846H99.3321V10.8577H104.849Z" fill="#6180BA"/>
<path d="M99.3321 70.5731V76H93.8112V70.5731H99.3321Z" fill="#445268"/>
<path d="M99.3321 65.1423V70.5731H93.8112V65.1423H99.3321Z" fill="#445268"/>
<path d="M99.3321 59.7154V65.1423H93.8112V59.7154H99.3321Z" fill="#445268"/>
<path d="M99.3321 54.2846V59.7154H93.8112V54.2846H99.3321Z" fill="#445268"/>
<path d="M99.3321 48.8577V54.2846H93.8112V48.8577H99.3321Z" fill="#445268"/>
<path d="M99.3321 43.4269V48.8577H93.8112V43.4269H99.3321Z" fill="#445268"/>
<path d="M99.3321 38V43.4269H93.8112V38H99.3321Z" fill="#445268"/>
<path d="M99.3321 32.5692V38H93.8112V32.5692H99.3321Z" fill="#6180BA"/>
<path d="M99.3321 27.1423V32.5692H93.8112V27.1423H99.3321Z" fill="#6180BA"/>
<path d="M99.3321 21.7154V27.1423H93.8112V21.7154H99.3321Z" fill="#6180BA"/>
<path d="M99.3321 16.2846V21.7154H93.8112V16.2846H99.3321Z" fill="#6180BA"/>
<path d="M99.3321 10.8577V16.2846H93.8112V10.8577H99.3321Z" fill="#6180BA"/>
<path d="M93.8112 70.5731V76H88.2945V70.5731H93.8112Z" fill="#445268"/>
<path d="M93.8112 65.1423V70.5731H88.2945V65.1423H93.8112Z" fill="#445268"/>
<path d="M93.8112 59.7154V65.1423H88.2945V59.7154H93.8112Z" fill="#445268"/>
<path d="M93.8112 54.2846V59.7154H88.2945V54.2846H93.8112Z" fill="#445268"/>
<path d="M93.8112 48.8577V54.2846H88.2945V48.8577H93.8112Z" fill="#445268"/>
<path d="M93.8112 43.4269V48.8577H88.2945V43.4269H93.8112Z" fill="#445268"/>
<path d="M93.8112 38V43.4269H88.2945V38H93.8112Z" fill="#445268"/>
<path d="M93.8112 32.5692V38H88.2945V32.5692H93.8112Z" fill="#6180BA"/>
<path d="M93.8112 27.1423V32.5692H88.2945V27.1423H93.8112Z" fill="#6180BA"/>
<path d="M93.8112 21.7154V27.1423H88.2945V21.7154H93.8112Z" fill="#6180BA"/>
<path d="M93.8112 16.2846V21.7154H88.2945V16.2846H93.8112Z" fill="#6180BA"/>
<path d="M93.8112 10.8577V16.2846H88.2945V10.8577H93.8112Z" fill="#6180BA"/>
<path d="M93.8113 5.42949L93.8112 10.8577H88.2945V5.42949H93.8113Z" fill="#6180BA"/>
<path d="M93.8113 0V5.42949H88.2945V0H93.8113Z" fill="#6180BA"/>
<path d="M88.2945 70.5731V76H82.7739V70.5731H88.2945Z" fill="#445268"/>
<path d="M88.2945 65.1423V70.5731H82.7739V65.1423H88.2945Z" fill="#445268"/>
<path d="M88.2945 59.7154V65.1423H82.7739V59.7154H88.2945Z" fill="#445268"/>
<path d="M88.2945 54.2846V59.7154H82.7739V54.2846H88.2945Z" fill="#445268"/>
<path d="M88.2945 48.8577V54.2846H82.7739V48.8577H88.2945Z" fill="#445268"/>
<path d="M88.2945 43.4269V48.8577H82.7739V43.4269H88.2945Z" fill="#445268"/>
<path d="M88.2945 38V43.4269H82.7739V38H88.2945Z" fill="#445268"/>
<path d="M88.2945 32.5692V38H82.7739V32.5692H88.2945Z" fill="#6180BA"/>
<path d="M88.2945 27.1423V32.5692H82.7739V27.1423H88.2945Z" fill="#6180BA"/>
<path d="M88.2945 21.7154V27.1423H82.7739V21.7154H88.2945Z" fill="#6180BA"/>
<path d="M88.2945 16.2846V21.7154H82.7739V16.2846H88.2945Z" fill="#6180BA"/>
<path d="M88.2945 10.8577V16.2846H82.7739V10.8577H88.2945Z" fill="#6180BA"/>
<path d="M88.2945 5.42949V10.8577H82.7739V5.42949H88.2945Z" fill="#6180BA"/>
<path d="M88.2945 0V5.42949H82.7739V0H88.2945Z" fill="#6180BA"/>
<path d="M82.7739 65.1423V70.5731L77.257 70.5731V65.1423H82.7739Z" fill="#445268"/>
<path d="M82.7739 59.7154V65.1423H77.257V59.7154H82.7739Z" fill="#445268"/>
<path d="M82.7739 54.2846V59.7154H77.257V54.2846H82.7739Z" fill="#445268"/>
<path d="M82.7739 48.8577V54.2846H77.257V48.8577H82.7739Z" fill="#445268"/>
<path d="M82.7739 43.4269V48.8577H77.257V43.4269H82.7739Z" fill="#6180BA"/>
<path d="M82.7739 38V43.4269H77.257V38H82.7739Z" fill="#6180BA"/>
<path d="M82.7739 32.5692V38H77.257V32.5692H82.7739Z" fill="#6180BA"/>
<path d="M82.7739 27.1423V32.5692H77.257V27.1423H82.7739Z" fill="#6180BA"/>
<path d="M82.7739 21.7154V27.1423H77.257V21.7154H82.7739Z" fill="#6180BA"/>
<path d="M82.7739 16.2846V21.7154H77.257V16.2846H82.7739Z" fill="#6180BA"/>
<path d="M82.7739 10.8577V16.2846H77.257V10.8577H82.7739Z" fill="#6180BA"/>
<path d="M82.7739 5.42949V10.8577H77.257V5.42949H82.7739Z" fill="#6180BA"/>
<path d="M82.7739 0V5.42949H77.257V0H82.7739Z" fill="#6180BA"/>
<path d="M77.257 65.1423V70.5731H71.7403V65.1423H77.257Z" fill="#445268"/>
<path d="M77.257 59.7154V65.1423H71.7403V59.7154H77.257Z" fill="#445268"/>
<path d="M77.257 54.2846V59.7154H71.7403V54.2846H77.257Z" fill="#445268"/>
<path d="M77.257 48.8577V54.2846H71.7403V48.8577H77.257Z" fill="#445268"/>
<path d="M77.257 43.4269V48.8577H71.7403V43.4269H77.257Z" fill="#445268"/>
<path d="M77.257 38V43.4269H71.7403V38H77.257Z" fill="#6180BA"/>
<path d="M77.257 32.5692V38H71.7403V32.5692H77.257Z" fill="#6180BA"/>
<path d="M77.257 27.1423V32.5692H71.7403V27.1423H77.257Z" fill="#6180BA"/>
<path d="M77.257 21.7154V27.1423H71.7403V21.7154H77.257Z" fill="#6180BA"/>
<path d="M77.257 16.2846V21.7154H71.7403V16.2846H77.257Z" fill="#6180BA"/>
<path d="M77.257 10.8577V16.2846H71.7403V10.8577H77.257Z" fill="#6180BA"/>
<path d="M77.257 5.42949V10.8577H71.7403V5.42949H77.257Z" fill="#6180BA"/>
<path d="M77.257 0V5.42949H71.7403V0H77.257Z" fill="#6180BA"/>
<path d="M71.7403 65.1423V70.5731H66.2221V65.1423H71.7403Z" fill="#445268"/>
<path d="M71.7403 59.7154V65.1423H66.2221V59.7154H71.7403Z" fill="#445268"/>
<path d="M71.7403 54.2846V59.7154H66.2221V54.2846H71.7403Z" fill="#445268"/>
<path d="M71.7403 48.8577V54.2846H66.2221V48.8577H71.7403Z" fill="#445268"/>
<path d="M71.7403 43.4269V48.8577H66.2221V43.4269H71.7403Z" fill="#445268"/>
<path d="M71.7403 38V43.4269H66.2221V38H71.7403Z" fill="#6180BA"/>
<path d="M71.7403 32.5692V38H66.2221V32.5692H71.7403Z" fill="#6180BA"/>
<path d="M71.7403 27.1423V32.5692H66.2221V27.1423H71.7403Z" fill="#6180BA"/>
<path d="M71.7403 21.7154V27.1423H66.2221V21.7154H71.7403Z" fill="#6180BA"/>
<path d="M71.7403 16.2846V21.7154H66.2221V16.2846H71.7403Z" fill="#6180BA"/>
<path d="M71.7403 10.8577V16.2846H66.2221V10.8577H71.7403Z" fill="#6180BA"/>
<path d="M71.7403 5.42949V10.8577H66.2221V5.42949H71.7403Z" fill="#6180BA"/>
<path d="M66.2221 65.1423V70.5731H60.703V65.1423H66.2221Z" fill="#445268"/>
<path d="M66.2221 59.7154V65.1423H60.703V59.7154H66.2221Z" fill="#445268"/>
<path d="M66.2221 54.2846V59.7154H60.703V54.2846H66.2221Z" fill="#445268"/>
<path d="M66.2221 48.8577V54.2846H60.703V48.8577H66.2221Z" fill="#445268"/>
<path d="M66.2221 43.4269V48.8577H60.703V43.4269H66.2221Z" fill="#445268"/>
<path d="M66.2221 38V43.4269H60.703V38H66.2221Z" fill="#6180BA"/>
<path d="M66.2221 32.5692V38H60.703V32.5692H66.2221Z" fill="#6180BA"/>
<path d="M66.2221 27.1423V32.5692H60.703V27.1423H66.2221Z" fill="#6180BA"/>
<path d="M66.2221 21.7154V27.1423H60.703V21.7154H66.2221Z" fill="#6180BA"/>
<path d="M66.2221 16.2846V21.7154H60.703V16.2846H66.2221Z" fill="#6180BA"/>
<path d="M66.2221 10.8577V16.2846H60.703V10.8577H66.2221Z" fill="#6180BA"/>
<path d="M60.703 65.1423V70.5731H55.1848V65.1423H60.703Z" fill="#445268"/>
<path d="M60.703 59.7154V65.1423H55.1848V59.7154H60.703Z" fill="#445268"/>
<path d="M60.703 54.2846V59.7154H55.1848V54.2846H60.703Z" fill="#445268"/>
<path d="M60.703 48.8577V54.2846H55.1848V48.8577H60.703Z" fill="#445268"/>
<path d="M60.703 43.4269V48.8577H55.1848V43.4269H60.703Z" fill="#445268"/>
<path d="M60.703 38V43.4269H55.1848V38H60.703Z" fill="#6180BA"/>
<path d="M60.703 32.5692V38H55.1848V32.5692H60.703Z" fill="#6180BA"/>
<path d="M60.703 27.1423V32.5692H55.1848V27.1423H60.703Z" fill="#6180BA"/>
<path d="M60.703 21.7154V27.1423H55.1848V21.7154H60.703Z" fill="#6180BA"/>
<path d="M60.703 16.2846V21.7154H55.1848V16.2846H60.703Z" fill="#6180BA"/>
<path d="M60.703 10.8577V16.2846H55.1848V10.8577H60.703Z" fill="#6180BA"/>
<path d="M55.1848 65.1423V70.5731H49.6654V65.1423H55.1848Z" fill="#445268"/>
<path d="M55.1848 59.7154V65.1423H49.6654V59.7154H55.1848Z" fill="#445268"/>
<path d="M55.1848 54.2846V59.7154H49.6654V54.2846H55.1848Z" fill="#445268"/>
<path d="M55.1848 48.8577V54.2846H49.6654V48.8577H55.1848Z" fill="#445268"/>
<path d="M55.1848 43.4269V48.8577H49.6654V43.4269H55.1848Z" fill="#445268"/>
<path d="M55.1848 38V43.4269H49.6654V38H55.1848Z" fill="#6180BA"/>
<path d="M55.1848 32.5692V38H49.6654V32.5692H55.1848Z" fill="#6180BA"/>
<path d="M55.1848 27.1423V32.5692H49.6654V27.1423H55.1848Z" fill="#6180BA"/>
<path d="M55.1848 21.7154V27.1423H49.6654V21.7154H55.1848Z" fill="#6180BA"/>
<path d="M55.1848 16.2846V21.7154H49.6654V16.2846H55.1848Z" fill="#6180BA"/>
<path d="M49.6654 59.7154V65.1423L44.1473 65.1423V59.7154H49.6654Z" fill="#445268"/>
<path d="M49.6654 54.2846V59.7154H44.1473V54.2846H49.6654Z" fill="#445268"/>
<path d="M49.6654 48.8577V54.2846H44.1473V48.8577H49.6654Z" fill="#445268"/>
<path d="M49.6654 43.4269V48.8577H44.1473V43.4269H49.6654Z" fill="#445268"/>
<path d="M49.6654 38V43.4269H44.1473V38H49.6654Z" fill="#445268"/>
<path d="M49.6654 32.5692V38H44.1473V32.5692H49.6654Z" fill="#6180BA"/>
<path d="M49.6654 27.1423V32.5692H44.1473V27.1423H49.6654Z" fill="#6180BA"/>
<path d="M49.6654 21.7154V27.1423H44.1473V21.7154H49.6654Z" fill="#6180BA"/>
<path d="M44.1473 59.7154V65.1423H38.6279V59.7154H44.1473Z" fill="#445268"/>
<path d="M44.1473 54.2846V59.7154H38.6279V54.2846H44.1473Z" fill="#445268"/>
<path d="M44.1473 48.8577V54.2846H38.6279V48.8577H44.1473Z" fill="#445268"/>
<path d="M44.1473 43.4269V48.8577H38.6279V43.4269H44.1473Z" fill="#445268"/>
<path d="M44.1473 38V43.4269H38.6279V38H44.1473Z" fill="#6180BA"/>
<path d="M44.1473 32.5692V38H38.6279V32.5692H44.1473Z" fill="#6180BA"/>
<path d="M44.1473 27.1423V32.5692H38.6279V27.1423H44.1473Z" fill="#6180BA"/>
<path d="M44.1473 21.7154V27.1423H38.6279V21.7154H44.1473Z" fill="#6180BA"/>
<path d="M38.6279 65.1423L38.628 70.5731H33.11V65.1423L38.6279 65.1423Z" fill="#445268"/>
<path d="M38.6279 59.7154V65.1423L33.11 65.1423V59.7154H38.6279Z" fill="#445268"/>
<path d="M38.6279 54.2846V59.7154H33.11V54.2846H38.6279Z" fill="#445268"/>
<path d="M38.6279 48.8577V54.2846H33.11V48.8577H38.6279Z" fill="#6180BA"/>
<path d="M38.6279 43.4269V48.8577H33.11V43.4269H38.6279Z" fill="#6180BA"/>
<path d="M38.6279 38V43.4269H33.11V38H38.6279Z" fill="#6180BA"/>
<path d="M38.6279 32.5692V38H33.11V32.5692H38.6279Z" fill="#6180BA"/>
<path d="M38.6279 27.1423V32.5692H33.11V27.1423H38.6279Z" fill="#6180BA"/>
<path d="M38.6279 21.7154V27.1423H33.11V21.7154H38.6279Z" fill="#6180BA"/>
<path d="M33.11 65.1423V70.5731H27.5906V65.1423H33.11Z" fill="#445268"/>
<path d="M33.11 59.7154V65.1423H27.5906V59.7154H33.11Z" fill="#445268"/>
<path d="M33.11 54.2846V59.7154H27.5906V54.2846H33.11Z" fill="#445268"/>
<path d="M33.11 48.8577V54.2846H27.5906V48.8577H33.11Z" fill="#6180BA"/>
<path d="M33.11 43.4269V48.8577H27.5906V43.4269H33.11Z" fill="#6180BA"/>
<path d="M33.11 38V43.4269H27.5906V38H33.11Z" fill="#6180BA"/>
<path d="M33.11 32.5692V38H27.5906V32.5692H33.11Z" fill="#6180BA"/>
<path d="M33.11 27.1423V32.5692H27.5906V27.1423H33.11Z" fill="#6180BA"/>
<path d="M33.11 21.7154V27.1423H27.5906V21.7154H33.11Z" fill="#6180BA"/>
<path d="M27.5906 65.1423V70.5731H22.0724V65.1423H27.5906Z" fill="#445268"/>
<path d="M27.5906 59.7154V65.1423H22.0724V59.7154H27.5906Z" fill="#445268"/>
<path d="M27.5906 54.2846V59.7154H22.0724V54.2846H27.5906Z" fill="#445268"/>
<path d="M27.5906 48.8577V54.2846H22.0724V48.8577H27.5906Z" fill="#445268"/>
<path d="M27.5906 43.4269V48.8577H22.0724V43.4269H27.5906Z" fill="#6180BA"/>
<path d="M27.5906 38V43.4269H22.0724V38H27.5906Z" fill="#6180BA"/>
<path d="M27.5906 32.5692V38H22.0724V32.5692H27.5906Z" fill="#6180BA"/>
<path d="M27.5906 27.1423V32.5692H22.0724V27.1423H27.5906Z" fill="#6180BA"/>
<path d="M27.5906 21.7154V27.1423H22.0724V21.7154H27.5906Z" fill="#6180BA"/>
<path d="M22.0724 59.7154V65.1423L16.5555 65.1423V59.7154H22.0724Z" fill="#445268"/>
<path d="M22.0724 54.2846V59.7154H16.5555V54.2846H22.0724Z" fill="#445268"/>
<path d="M22.0724 48.8577V54.2846H16.5555V48.8577H22.0724Z" fill="#6180BA"/>
<path d="M22.0724 43.4269V48.8577H16.5555V43.4269H22.0724Z" fill="#6180BA"/>
<path d="M22.0724 38V43.4269H16.5555V38H22.0724Z" fill="#6180BA"/>
<path d="M22.0724 32.5692V38H16.5555V32.5692H22.0724Z" fill="#6180BA"/>
<path d="M22.0724 27.1423V32.5692H16.5555V27.1423H22.0724Z" fill="#6180BA"/>
<path d="M16.5555 54.2846V59.7154L11.0361 59.7154V54.2846H16.5555Z" fill="#445268"/>
<path d="M16.5555 48.8577V54.2846H11.0361V48.8577H16.5555Z" fill="#445268"/>
<path d="M16.5555 43.4269V48.8577H11.0361V43.4269H16.5555Z" fill="#6180BA"/>
<path d="M16.5555 38V43.4269H11.0361V38H16.5555Z" fill="#6180BA"/>
<path d="M16.5555 32.5692V38H11.0361V32.5692H16.5555Z" fill="#6180BA"/>
<path d="M16.5555 27.1423V32.5692H11.0361V27.1423H16.5555Z" fill="#6180BA"/>
<path d="M11.0361 48.8577V54.2846L5.51816 54.2846V48.8577H11.0361Z" fill="#445268"/>
<path d="M11.0361 43.4269V48.8577H5.51816V43.4269H11.0361Z" fill="#6180BA"/>
<path d="M11.0361 38V43.4269H5.51816V38H11.0361Z" fill="#6180BA"/>
<path d="M5.51816 48.8577V54.2846H0V48.8577H5.51816Z" fill="#445268"/>
<path d="M5.51816 43.4269V48.8577H0V43.4269H5.51816Z" fill="#6180BA"/>
</svg>
