<svg width="568" height="167" viewBox="0 0 568 167" fill="none" xmlns="http://www.w3.org/2000/svg">
<mask id="path-1-inside-1_4298_34274" fill="white">
<path fill-rule="evenodd" clip-rule="evenodd" d="M-1.44249e-06 134L2.07027e-06 29.9997L8.44614 29.9997L8.44614 25.3383L13.5139 25.3383L13.5139 21.1152L17.737 21.1152L17.737 16.8921L22.8047 16.8921L22.8047 12.669L27.8724 12.669L27.8724 8.44591L32.9402 8.44591L32.9402 4.22281L32.9402 -0.000306616L38.0079 -0.000306837L38.0079 2.88562e-05L530 7.35054e-06L535.068 -0.000298047L535.068 4.22282L535.068 8.44591L540.135 8.44591L540.135 12.669L545.203 12.669L545.203 16.8921L550.271 16.8921L550.271 21.1152L554.494 21.1152L554.494 25.3384L559.562 25.3384L559.562 29.9997L568 29.9997L568 134L559.562 134L559.562 138.067L554.494 138.067L554.494 142.291L550.271 142.291L550.271 146.514L545.203 146.514L545.203 150.737L540.135 150.737L540.135 154.96L535.068 154.96L535.068 159.183L535.068 163.406L530 163.406L530 167L38 167L38 163.406L32.9402 163.406L32.9402 159.183L32.9402 154.96L27.8725 154.96L27.8725 150.737L22.8048 150.737L22.8048 146.514L17.7371 146.514L17.7371 142.291L13.5139 142.291L13.5139 138.067L8.44622 138.067L8.44622 134L-1.44249e-06 134Z"/>
</mask>
<path fill-rule="evenodd" clip-rule="evenodd" d="M-1.44249e-06 134L2.07027e-06 29.9997L8.44614 29.9997L8.44614 25.3383L13.5139 25.3383L13.5139 21.1152L17.737 21.1152L17.737 16.8921L22.8047 16.8921L22.8047 12.669L27.8724 12.669L27.8724 8.44591L32.9402 8.44591L32.9402 4.22281L32.9402 -0.000306616L38.0079 -0.000306837L38.0079 2.88562e-05L530 7.35054e-06L535.068 -0.000298047L535.068 4.22282L535.068 8.44591L540.135 8.44591L540.135 12.669L545.203 12.669L545.203 16.8921L550.271 16.8921L550.271 21.1152L554.494 21.1152L554.494 25.3384L559.562 25.3384L559.562 29.9997L568 29.9997L568 134L559.562 134L559.562 138.067L554.494 138.067L554.494 142.291L550.271 142.291L550.271 146.514L545.203 146.514L545.203 150.737L540.135 150.737L540.135 154.96L535.068 154.96L535.068 159.183L535.068 163.406L530 163.406L530 167L38 167L38 163.406L32.9402 163.406L32.9402 159.183L32.9402 154.96L27.8725 154.96L27.8725 150.737L22.8048 150.737L22.8048 146.514L17.7371 146.514L17.7371 142.291L13.5139 142.291L13.5139 138.067L8.44622 138.067L8.44622 134L-1.44249e-06 134Z" fill="#11A729"/>
<path d="M2.07027e-06 29.9997L1.93914e-06 26.9997L-3 26.9997L-3 29.9997L2.07027e-06 29.9997ZM-1.44249e-06 134L-3 134L-3 137L-1.31135e-06 137L-1.44249e-06 134ZM8.44614 29.9997L8.44614 32.9997L11.4461 32.9997L11.4461 29.9997L8.44614 29.9997ZM8.44614 25.3383L8.44614 22.3383L5.44614 22.3383L5.44614 25.3383L8.44614 25.3383ZM13.5139 25.3383L13.5139 28.3383L16.5139 28.3383L16.5139 25.3383L13.5139 25.3383ZM13.5139 21.1152L13.5139 18.1152L10.5139 18.1152L10.5139 21.1152L13.5139 21.1152ZM17.737 21.1152L17.737 24.1152L20.737 24.1152L20.737 21.1152L17.737 21.1152ZM17.737 16.8921L17.737 13.8921L14.737 13.8921L14.737 16.8921L17.737 16.8921ZM22.8047 16.8921L22.8047 19.8921L25.8047 19.8921L25.8047 16.8921L22.8047 16.8921ZM22.8047 12.669L22.8047 9.66902L19.8047 9.66902L19.8047 12.669L22.8047 12.669ZM27.8724 12.669L27.8724 15.669L30.8724 15.669L30.8724 12.669L27.8724 12.669ZM27.8724 8.44591L27.8724 5.44591L24.8724 5.44591L24.8724 8.44591L27.8724 8.44591ZM32.9402 8.44591L32.9402 11.4459L35.9402 11.4459L35.9402 8.44591L32.9402 8.44591ZM32.9402 4.22281L29.9402 4.22281L32.9402 4.22281ZM32.9402 -0.000306616L32.9402 -3.00031L29.9402 -3.00031L29.9402 -0.000306485L32.9402 -0.000306616ZM38.0079 -0.000306837L41.0079 -0.000306968L41.0079 -3.00031L38.0079 -3.00031L38.0079 -0.000306837ZM38.0079 2.88562e-05L35.0079 2.89873e-05L35.0079 3.00003L38.0079 3.00003L38.0079 2.88562e-05ZM530 7.35054e-06L530 3.00001L530 3.00001L530 7.35054e-06ZM535.068 -0.000298047L538.068 -0.000298178L538.068 -3.00048L535.067 -3.0003L535.068 -0.000298047ZM535.068 8.44591L532.068 8.44591L532.068 11.4459L535.068 11.4459L535.068 8.44591ZM540.135 8.44591L543.135 8.44591L543.135 5.44591L540.135 5.44591L540.135 8.44591ZM540.135 12.669L537.135 12.669L537.135 15.669L540.135 15.669L540.135 12.669ZM545.203 12.669L548.203 12.669L548.203 9.66903L545.203 9.66903L545.203 12.669ZM545.203 16.8921L542.203 16.8921L542.203 19.8921L545.203 19.8921L545.203 16.8921ZM550.271 16.8921L553.271 16.8921L553.271 13.8921L550.271 13.8921L550.271 16.8921ZM550.271 21.1152L547.271 21.1152L547.271 24.1152L550.271 24.1152L550.271 21.1152ZM554.494 21.1152L557.494 21.1152L557.494 18.1152L554.494 18.1152L554.494 21.1152ZM554.494 25.3384L551.494 25.3384L551.494 28.3384L554.494 28.3384L554.494 25.3384ZM559.562 25.3384L562.562 25.3384L562.562 22.3384L559.562 22.3384L559.562 25.3384ZM559.562 29.9997L556.562 29.9997L556.562 32.9997L559.562 32.9997L559.562 29.9997ZM568 29.9997L571 29.9997L571 26.9997L568 26.9997L568 29.9997ZM568 134L568 137L571 137L571 134L568 134ZM559.562 134L559.562 131L556.562 131L556.562 134L559.562 134ZM559.562 138.067L559.562 141.067L562.562 141.067L562.562 138.067L559.562 138.067ZM554.494 138.067L554.494 135.067L551.494 135.067L551.494 138.067L554.494 138.067ZM554.494 142.291L554.494 145.291L557.494 145.291L557.494 142.291L554.494 142.291ZM550.271 142.291L550.271 139.291L547.271 139.291L547.271 142.291L550.271 142.291ZM550.271 146.514L550.271 149.514L553.271 149.514L553.271 146.514L550.271 146.514ZM545.203 146.514L545.203 143.514L542.203 143.514L542.203 146.514L545.203 146.514ZM545.203 150.737L545.203 153.737L548.203 153.737L548.203 150.737L545.203 150.737ZM540.135 150.737L540.135 147.737L537.135 147.737L537.135 150.737L540.135 150.737ZM540.135 154.96L540.135 157.96L543.135 157.96L543.135 154.96L540.135 154.96ZM535.068 154.96L535.068 151.96L532.068 151.96L532.068 154.96L535.068 154.96ZM535.068 163.406L535.068 166.406L538.068 166.406L538.068 163.406L535.068 163.406ZM530 163.406L530 160.406L527 160.406L527 163.406L530 163.406ZM530 167L530 170L533 170L533 167L530 167ZM38 167L35 167L35 170L38 170L38 167ZM38 163.406L41 163.406L41 160.406L38 160.406L38 163.406ZM32.9402 163.406L29.9402 163.406L29.9402 166.406L32.9402 166.406L32.9402 163.406ZM32.9402 159.183L35.9402 159.183L35.9402 159.183L32.9402 159.183ZM32.9402 154.96L35.9402 154.96L35.9402 151.96L32.9402 151.96L32.9402 154.96ZM27.8725 154.96L24.8725 154.96L24.8725 157.96L27.8725 157.96L27.8725 154.96ZM27.8725 150.737L30.8725 150.737L30.8725 147.737L27.8725 147.737L27.8725 150.737ZM22.8048 150.737L19.8048 150.737L19.8048 153.737L22.8048 153.737L22.8048 150.737ZM22.8048 146.514L25.8048 146.514L25.8048 143.514L22.8048 143.514L22.8048 146.514ZM17.7371 146.514L14.7371 146.514L14.7371 149.514L17.7371 149.514L17.7371 146.514ZM17.7371 142.291L20.7371 142.291L20.7371 139.291L17.7371 139.291L17.7371 142.291ZM13.5139 142.291L10.5139 142.291L10.5139 145.291L13.5139 145.291L13.5139 142.291ZM13.5139 138.067L16.5139 138.067L16.5139 135.067L13.5139 135.067L13.5139 138.067ZM8.44622 138.067L5.44622 138.067L5.44622 141.067L8.44622 141.067L8.44622 138.067ZM8.44622 134L11.4462 134L11.4462 131L8.44622 131L8.44622 134ZM-3 29.9997L-3 134L3 134L3 29.9997L-3 29.9997ZM8.44614 26.9997L1.93914e-06 26.9997L2.2014e-06 32.9997L8.44614 32.9997L8.44614 26.9997ZM5.44614 25.3383L5.44614 29.9997L11.4461 29.9997L11.4461 25.3383L5.44614 25.3383ZM13.5139 22.3383L8.44614 22.3383L8.44614 28.3383L13.5139 28.3383L13.5139 22.3383ZM10.5139 21.1152L10.5139 25.3383L16.5139 25.3383L16.5139 21.1152L10.5139 21.1152ZM17.737 18.1152L13.5139 18.1152L13.5139 24.1152L17.737 24.1152L17.737 18.1152ZM14.737 16.8921L14.737 21.1152L20.737 21.1152L20.737 16.8921L14.737 16.8921ZM22.8047 13.8921L17.737 13.8921L17.737 19.8921L22.8047 19.8921L22.8047 13.8921ZM19.8047 12.669L19.8047 16.8921L25.8047 16.8921L25.8047 12.669L19.8047 12.669ZM27.8724 9.66902L22.8047 9.66902L22.8047 15.669L27.8724 15.669L27.8724 9.66902ZM24.8724 8.44591L24.8724 12.669L30.8724 12.669L30.8724 8.44591L24.8724 8.44591ZM32.9402 5.44591L27.8724 5.44591L27.8724 11.4459L32.9402 11.4459L32.9402 5.44591ZM29.9402 4.22281L29.9402 8.44591L35.9402 8.44591L35.9402 4.22281L29.9402 4.22281ZM29.9402 -0.000306485L29.9402 4.22281L35.9402 4.22281L35.9402 -0.000306747L29.9402 -0.000306485ZM38.0079 -3.00031L32.9402 -3.00031L32.9402 2.99969L38.0079 2.99969L38.0079 -3.00031ZM41.0079 2.87251e-05L41.0079 -0.000306968L35.0079 -0.000306706L35.0079 2.89873e-05L41.0079 2.87251e-05ZM530 -2.99999L38.0079 -2.99997L38.0079 3.00003L530 3.00001L530 -2.99999ZM535.067 -3.0003L530 -2.99999L530 3.00001L535.068 2.9997L535.067 -3.0003ZM538.068 4.22282L538.068 -0.000298178L532.068 -0.000297916L532.068 4.22282L538.068 4.22282ZM538.068 8.44591L538.068 4.22282L532.068 4.22282L532.068 8.44591L538.068 8.44591ZM540.135 5.44591L535.068 5.44591L535.068 11.4459L540.135 11.4459L540.135 5.44591ZM543.135 12.669L543.135 8.44591L537.135 8.44591L537.135 12.669L543.135 12.669ZM545.203 9.66903L540.135 9.66903L540.135 15.669L545.203 15.669L545.203 9.66903ZM548.203 16.8921L548.203 12.669L542.203 12.669L542.203 16.8921L548.203 16.8921ZM550.271 13.8921L545.203 13.8921L545.203 19.8921L550.271 19.8921L550.271 13.8921ZM553.271 21.1152L553.271 16.8921L547.271 16.8921L547.271 21.1152L553.271 21.1152ZM554.494 18.1152L550.271 18.1152L550.271 24.1152L554.494 24.1152L554.494 18.1152ZM557.494 25.3384L557.494 21.1152L551.494 21.1152L551.494 25.3384L557.494 25.3384ZM559.562 22.3384L554.494 22.3384L554.494 28.3384L559.562 28.3384L559.562 22.3384ZM562.562 29.9997L562.562 25.3384L556.562 25.3384L556.562 29.9997L562.562 29.9997ZM568 26.9997L559.562 26.9997L559.562 32.9997L568 32.9997L568 26.9997ZM571 134L571 29.9997L565 29.9997L565 134L571 134ZM559.562 137L568 137L568 131L559.562 131L559.562 137ZM562.562 138.067L562.562 134L556.562 134L556.562 138.067L562.562 138.067ZM554.494 141.067L559.562 141.067L559.562 135.067L554.494 135.067L554.494 141.067ZM557.494 142.291L557.494 138.067L551.494 138.067L551.494 142.291L557.494 142.291ZM550.271 145.291L554.494 145.291L554.494 139.291L550.271 139.291L550.271 145.291ZM553.271 146.514L553.271 142.291L547.271 142.291L547.271 146.514L553.271 146.514ZM545.203 149.514L550.271 149.514L550.271 143.514L545.203 143.514L545.203 149.514ZM548.203 150.737L548.203 146.514L542.203 146.514L542.203 150.737L548.203 150.737ZM540.135 153.737L545.203 153.737L545.203 147.737L540.135 147.737L540.135 153.737ZM543.135 154.96L543.135 150.737L537.135 150.737L537.135 154.96L543.135 154.96ZM535.068 157.96L540.135 157.96L540.135 151.96L535.068 151.96L535.068 157.96ZM538.068 159.183L538.068 154.96L532.068 154.96L532.068 159.183L538.068 159.183ZM538.068 163.406L538.068 159.183L532.068 159.183L532.068 163.406L538.068 163.406ZM530 166.406L535.068 166.406L535.068 160.406L530 160.406L530 166.406ZM533 167L533 163.406L527 163.406L527 167L533 167ZM38 170L530 170L530 164L38 164L38 170ZM35 163.406L35 167L41 167L41 163.406L35 163.406ZM32.9402 166.406L38 166.406L38 160.406L32.9402 160.406L32.9402 166.406ZM29.9402 159.183L29.9402 163.406L35.9402 163.406L35.9402 159.183L29.9402 159.183ZM29.9402 154.96L29.9402 159.183L35.9402 159.183L35.9402 154.96L29.9402 154.96ZM27.8725 157.96L32.9402 157.96L32.9402 151.96L27.8725 151.96L27.8725 157.96ZM24.8725 150.737L24.8725 154.96L30.8725 154.96L30.8725 150.737L24.8725 150.737ZM22.8048 153.737L27.8725 153.737L27.8725 147.737L22.8048 147.737L22.8048 153.737ZM19.8048 146.514L19.8048 150.737L25.8048 150.737L25.8048 146.514L19.8048 146.514ZM17.7371 149.514L22.8048 149.514L22.8048 143.514L17.7371 143.514L17.7371 149.514ZM14.7371 142.291L14.7371 146.514L20.7371 146.514L20.7371 142.291L14.7371 142.291ZM13.5139 145.291L17.7371 145.291L17.7371 139.291L13.5139 139.291L13.5139 145.291ZM10.5139 138.067L10.5139 142.291L16.5139 142.291L16.5139 138.067L10.5139 138.067ZM8.44622 141.067L13.5139 141.067L13.5139 135.067L8.44622 135.067L8.44622 141.067ZM5.44622 134L5.44622 138.067L11.4462 138.067L11.4462 134L5.44622 134ZM-1.31135e-06 137L8.44622 137L8.44622 131L-1.57362e-06 131L-1.31135e-06 137Z" fill="#3F3F3F" mask="url(#path-1-inside-1_4298_34274)"/>
<mask id="path-3-inside-2_4298_34274" fill="white">
<path fill-rule="evenodd" clip-rule="evenodd" d="M15 119.999L15 42.9991L23.4462 42.9991L23.4462 38.9315L28.5139 38.9315L28.5139 34.7084L32.7371 34.7084L32.7371 30.4853L37.8048 30.4853L37.8048 26.2622L42.8725 26.2622L42.8725 22.0391L47.9402 22.0391L47.9402 17.816L47.9402 13.5928L53 13.5928L53 13L518 13L518 13.5929L521.068 13.5929L521.068 17.8161L521.068 22.0392L526.136 22.0392L526.136 26.2623L531.203 26.2623L531.203 30.4854L536.271 30.4854L536.271 34.7085L540.494 34.7085L540.494 38.9316L545.562 38.9316L545.562 43.9992L554 43.9992L554 121.999L545.562 121.999L545.562 125.067L540.494 125.067L540.494 129.29L536.271 129.29L536.271 133.513L531.203 133.513L531.203 137.736L526.136 137.736L526.136 141.959L521.068 141.959L521.068 146.182L521.068 150.406L518 150.406L518 150.52L53 150.52L53 150.405L47.9402 150.405L47.9402 146.182L47.9402 141.959L42.8725 141.959L42.8725 137.736L37.8048 137.736L37.8048 133.513L32.7371 133.513L32.7371 129.29L28.5139 129.29L28.514 125.067L23.4462 125.067L23.4462 119.999L15 119.999Z"/>
</mask>
<path fill-rule="evenodd" clip-rule="evenodd" d="M15 119.999L15 42.9991L23.4462 42.9991L23.4462 38.9315L28.5139 38.9315L28.5139 34.7084L32.7371 34.7084L32.7371 30.4853L37.8048 30.4853L37.8048 26.2622L42.8725 26.2622L42.8725 22.0391L47.9402 22.0391L47.9402 17.816L47.9402 13.5928L53 13.5928L53 13L518 13L518 13.5929L521.068 13.5929L521.068 17.8161L521.068 22.0392L526.136 22.0392L526.136 26.2623L531.203 26.2623L531.203 30.4854L536.271 30.4854L536.271 34.7085L540.494 34.7085L540.494 38.9316L545.562 38.9316L545.562 43.9992L554 43.9992L554 121.999L545.562 121.999L545.562 125.067L540.494 125.067L540.494 129.29L536.271 129.29L536.271 133.513L531.203 133.513L531.203 137.736L526.136 137.736L526.136 141.959L521.068 141.959L521.068 146.182L521.068 150.406L518 150.406L518 150.52L53 150.52L53 150.405L47.9402 150.405L47.9402 146.182L47.9402 141.959L42.8725 141.959L42.8725 137.736L37.8048 137.736L37.8048 133.513L32.7371 133.513L32.7371 129.29L28.5139 129.29L28.514 125.067L23.4462 125.067L23.4462 119.999L15 119.999Z" fill="#F5EFEB"/>
<path d="M15 42.9991L15 39.9991L12 39.9991L12 42.9991L15 42.9991ZM15 119.999L12 119.999L12 122.999L15 122.999L15 119.999ZM23.4462 42.9991L23.4462 45.9991L26.4462 45.9991L26.4462 42.9991L23.4462 42.9991ZM23.4462 38.9315L23.4462 35.9315L20.4462 35.9315L20.4462 38.9315L23.4462 38.9315ZM28.5139 38.9315L28.5139 41.9315L31.5139 41.9315L31.5139 38.9315L28.5139 38.9315ZM28.5139 34.7084L28.5139 31.7084L25.5139 31.7084L25.5139 34.7084L28.5139 34.7084ZM32.7371 34.7084L32.7371 37.7084L35.7371 37.7084L35.7371 34.7084L32.7371 34.7084ZM32.7371 30.4853L32.7371 27.4853L29.7371 27.4853L29.7371 30.4853L32.7371 30.4853ZM37.8048 30.4853L37.8048 33.4853L40.8048 33.4853L40.8048 30.4853L37.8048 30.4853ZM37.8048 26.2622L37.8048 23.2622L34.8048 23.2622L34.8048 26.2622L37.8048 26.2622ZM42.8725 26.2622L42.8725 29.2622L45.8725 29.2622L45.8725 26.2622L42.8725 26.2622ZM42.8725 22.0391L42.8725 19.0391L39.8725 19.0391L39.8725 22.0391L42.8725 22.0391ZM47.9402 22.0391L47.9402 25.0391L50.9402 25.0391L50.9402 22.0391L47.9402 22.0391ZM47.9402 17.816L44.9402 17.816L47.9402 17.816ZM47.9402 13.5928L47.9402 10.5928L44.9402 10.5928L44.9402 13.5928L47.9402 13.5928ZM53 13.5928L53 16.5928L56 16.5928L56 13.5928L53 13.5928ZM53 13L53 9.99999L50 9.99999L50 13L53 13ZM518 13L521 13L521 9.99997L518 9.99997L518 13ZM518 13.5929L515 13.5929L515 16.5929L518 16.5929L518 13.5929ZM521.068 13.5929L524.068 13.5929L524.068 10.5929L521.068 10.5929L521.068 13.5929ZM521.068 22.0392L518.068 22.0392L518.068 25.0392L521.068 25.0392L521.068 22.0392ZM526.136 22.0392L529.136 22.0392L529.136 19.0392L526.136 19.0392L526.136 22.0392ZM526.136 26.2623L523.136 26.2623L523.136 29.2623L526.136 29.2623L526.136 26.2623ZM531.203 26.2623L534.203 26.2623L534.203 23.2623L531.203 23.2623L531.203 26.2623ZM531.203 30.4854L528.203 30.4854L528.203 33.4854L531.203 33.4854L531.203 30.4854ZM536.271 30.4854L539.271 30.4854L539.271 27.4854L536.271 27.4854L536.271 30.4854ZM536.271 34.7085L533.271 34.7085L533.271 37.7085L536.271 37.7085L536.271 34.7085ZM540.494 34.7085L543.494 34.7085L543.494 31.7085L540.494 31.7085L540.494 34.7085ZM540.494 38.9316L537.494 38.9316L537.494 41.9316L540.494 41.9316L540.494 38.9316ZM545.562 38.9316L548.562 38.9316L548.562 35.9316L545.562 35.9316L545.562 38.9316ZM545.562 43.9992L542.562 43.9992L542.562 46.9992L545.562 46.9992L545.562 43.9992ZM554 43.9992L557 43.9992L557 40.9992L554 40.9992L554 43.9992ZM554 121.999L554 124.999L557 124.999L557 121.999L554 121.999ZM545.562 121.999L545.562 118.999L542.562 118.999L542.562 121.999L545.562 121.999ZM545.562 125.067L545.562 128.067L548.562 128.067L548.562 125.067L545.562 125.067ZM540.494 125.067L540.494 122.067L537.494 122.067L537.494 125.067L540.494 125.067ZM540.494 129.29L540.494 132.29L543.494 132.29L543.494 129.29L540.494 129.29ZM536.271 129.29L536.271 126.29L533.271 126.29L533.271 129.29L536.271 129.29ZM536.271 133.513L536.271 136.513L539.271 136.513L539.271 133.513L536.271 133.513ZM531.203 133.513L531.203 130.513L528.203 130.513L528.203 133.513L531.203 133.513ZM531.203 137.736L531.203 140.736L534.203 140.736L534.203 137.736L531.203 137.736ZM526.136 137.736L526.136 134.736L523.136 134.736L523.136 137.736L526.136 137.736ZM526.136 141.959L526.136 144.959L529.136 144.959L529.136 141.959L526.136 141.959ZM521.068 141.959L521.068 138.959L518.068 138.959L518.068 141.959L521.068 141.959ZM521.068 150.406L521.068 153.406L524.068 153.406L524.068 150.406L521.068 150.406ZM518 150.406L518 147.406L515 147.406L515 150.406L518 150.406ZM518 150.52L518 153.52L521 153.52L521 150.52L518 150.52ZM53 150.52L50 150.52L50 153.52L53 153.52L53 150.52ZM53 150.405L56 150.405L56 147.405L53 147.405L53 150.405ZM47.9402 150.405L44.9402 150.405L44.9402 153.405L47.9402 153.405L47.9402 150.405ZM47.9402 141.959L50.9402 141.959L50.9402 138.959L47.9402 138.959L47.9402 141.959ZM42.8725 141.959L39.8725 141.959L39.8725 144.959L42.8725 144.959L42.8725 141.959ZM42.8725 137.736L45.8725 137.736L45.8725 134.736L42.8725 134.736L42.8725 137.736ZM37.8048 137.736L34.8048 137.736L34.8048 140.736L37.8048 140.736L37.8048 137.736ZM37.8048 133.513L40.8048 133.513L40.8048 130.513L37.8048 130.513L37.8048 133.513ZM32.7371 133.513L29.7371 133.513L29.7371 136.513L32.7371 136.513L32.7371 133.513ZM32.7371 129.29L35.7371 129.29L35.7371 126.29L32.7371 126.29L32.7371 129.29ZM28.5139 129.29L25.5139 129.29L25.5139 132.29L28.5139 132.29L28.5139 129.29ZM28.514 125.067L31.514 125.067L31.514 122.067L28.514 122.067L28.514 125.067ZM23.4462 125.067L20.4462 125.067L20.4462 128.067L23.4462 128.067L23.4462 125.067ZM23.4462 119.999L26.4462 119.999L26.4462 116.999L23.4462 116.999L23.4462 119.999ZM12 42.9991L12 119.999L18 119.999L18 42.9991L12 42.9991ZM23.4462 39.9991L15 39.9991L15 45.9991L23.4462 45.9991L23.4462 39.9991ZM20.4462 38.9315L20.4462 42.9991L26.4462 42.9991L26.4462 38.9315L20.4462 38.9315ZM28.5139 35.9315L23.4462 35.9315L23.4462 41.9315L28.5139 41.9315L28.5139 35.9315ZM25.5139 34.7084L25.5139 38.9315L31.5139 38.9315L31.5139 34.7084L25.5139 34.7084ZM32.7371 31.7084L28.5139 31.7084L28.5139 37.7084L32.7371 37.7084L32.7371 31.7084ZM29.7371 30.4853L29.7371 34.7084L35.7371 34.7084L35.7371 30.4853L29.7371 30.4853ZM37.8048 27.4853L32.7371 27.4853L32.7371 33.4853L37.8048 33.4853L37.8048 27.4853ZM34.8048 26.2622L34.8048 30.4853L40.8048 30.4853L40.8048 26.2622L34.8048 26.2622ZM42.8725 23.2622L37.8048 23.2622L37.8048 29.2622L42.8725 29.2622L42.8725 23.2622ZM39.8725 22.0391L39.8725 26.2622L45.8725 26.2622L45.8725 22.0391L39.8725 22.0391ZM47.9402 19.0391L42.8725 19.0391L42.8725 25.0391L47.9402 25.0391L47.9402 19.0391ZM44.9402 17.816L44.9402 22.0391L50.9402 22.0391L50.9402 17.816L44.9402 17.816ZM44.9402 13.5928L44.9402 17.816L50.9402 17.816L50.9402 13.5928L44.9402 13.5928ZM53 10.5928L47.9402 10.5928L47.9402 16.5928L53 16.5928L53 10.5928ZM50 13L50 13.5928L56 13.5928L56 13L50 13ZM518 9.99997L53 9.99999L53 16L518 16L518 9.99997ZM521 13.5929L521 13L515 13L515 13.5929L521 13.5929ZM521.068 10.5929L518 10.5929L518 16.5929L521.068 16.5929L521.068 10.5929ZM524.068 17.8161L524.068 13.5929L518.068 13.5929L518.068 17.8161L524.068 17.8161ZM524.068 22.0392L524.068 17.8161L518.068 17.8161L518.068 22.0392L524.068 22.0392ZM526.136 19.0392L521.068 19.0392L521.068 25.0392L526.136 25.0392L526.136 19.0392ZM529.136 26.2623L529.136 22.0392L523.136 22.0392L523.136 26.2623L529.136 26.2623ZM531.203 23.2623L526.136 23.2623L526.136 29.2623L531.203 29.2623L531.203 23.2623ZM534.203 30.4854L534.203 26.2623L528.203 26.2623L528.203 30.4854L534.203 30.4854ZM536.271 27.4854L531.203 27.4854L531.203 33.4854L536.271 33.4854L536.271 27.4854ZM539.271 34.7085L539.271 30.4854L533.271 30.4854L533.271 34.7085L539.271 34.7085ZM540.494 31.7085L536.271 31.7085L536.271 37.7085L540.494 37.7085L540.494 31.7085ZM543.494 38.9316L543.494 34.7085L537.494 34.7085L537.494 38.9316L543.494 38.9316ZM545.562 35.9316L540.494 35.9316L540.494 41.9316L545.562 41.9316L545.562 35.9316ZM548.562 43.9992L548.562 38.9316L542.562 38.9316L542.562 43.9992L548.562 43.9992ZM554 40.9992L545.562 40.9992L545.562 46.9992L554 46.9992L554 40.9992ZM557 121.999L557 43.9992L551 43.9992L551 121.999L557 121.999ZM545.562 124.999L554 124.999L554 118.999L545.562 118.999L545.562 124.999ZM548.562 125.067L548.562 121.999L542.562 121.999L542.562 125.067L548.562 125.067ZM540.494 128.067L545.562 128.067L545.562 122.067L540.494 122.067L540.494 128.067ZM543.494 129.29L543.494 125.067L537.494 125.067L537.494 129.29L543.494 129.29ZM536.271 132.29L540.494 132.29L540.494 126.29L536.271 126.29L536.271 132.29ZM539.271 133.513L539.271 129.29L533.271 129.29L533.271 133.513L539.271 133.513ZM531.203 136.513L536.271 136.513L536.271 130.513L531.203 130.513L531.203 136.513ZM534.203 137.736L534.203 133.513L528.203 133.513L528.203 137.736L534.203 137.736ZM526.136 140.736L531.203 140.736L531.203 134.736L526.136 134.736L526.136 140.736ZM529.136 141.959L529.136 137.736L523.136 137.736L523.136 141.959L529.136 141.959ZM521.068 144.959L526.136 144.959L526.136 138.959L521.068 138.959L521.068 144.959ZM524.068 146.182L524.068 141.959L518.068 141.959L518.068 146.182L524.068 146.182ZM524.068 150.406L524.068 146.182L518.068 146.182L518.068 150.406L524.068 150.406ZM518 153.406L521.068 153.406L521.068 147.406L518 147.406L518 153.406ZM521 150.52L521 150.406L515 150.406L515 150.52L521 150.52ZM53 153.52L518 153.52L518 147.52L53 147.52L53 153.52ZM50 150.405L50 150.52L56 150.52L56 150.405L50 150.405ZM47.9402 153.405L53 153.405L53 147.405L47.9402 147.405L47.9402 153.405ZM44.9402 146.182L44.9402 150.405L50.9402 150.405L50.9402 146.182L44.9402 146.182ZM44.9402 141.959L44.9402 146.182L50.9402 146.182L50.9402 141.959L44.9402 141.959ZM42.8725 144.959L47.9402 144.959L47.9402 138.959L42.8725 138.959L42.8725 144.959ZM39.8725 137.736L39.8725 141.959L45.8725 141.959L45.8725 137.736L39.8725 137.736ZM37.8048 140.736L42.8725 140.736L42.8725 134.736L37.8048 134.736L37.8048 140.736ZM34.8048 133.513L34.8048 137.736L40.8048 137.736L40.8048 133.513L34.8048 133.513ZM32.7371 136.513L37.8048 136.513L37.8048 130.513L32.7371 130.513L32.7371 136.513ZM29.7371 129.29L29.7371 133.513L35.7371 133.513L35.7371 129.29L29.7371 129.29ZM28.5139 132.29L32.7371 132.29L32.7371 126.29L28.5139 126.29L28.5139 132.29ZM25.514 125.067L25.5139 129.29L31.5139 129.29L31.514 125.067L25.514 125.067ZM23.4462 128.067L28.5139 128.067L28.514 122.067L23.4462 122.067L23.4462 128.067ZM20.4462 119.999L20.4462 125.067L26.4462 125.067L26.4462 119.999L20.4462 119.999ZM15 122.999L23.4462 122.999L23.4462 116.999L15 116.999L15 122.999Z" fill="#3F3F3F" mask="url(#path-3-inside-2_4298_34274)"/>
</svg>
