<svg width="20" height="25" viewBox="0 0 20 25" fill="none" xmlns="http://www.w3.org/2000/svg">
<path d="M17.5 11.75H2.5V5.5H17.5M15.625 19.25C15.1277 19.25 14.6508 19.0525 14.2992 18.7008C13.9475 18.3492 13.75 17.8723 13.75 17.375C13.75 16.8777 13.9475 16.4008 14.2992 16.0492C14.6508 15.6975 15.1277 15.5 15.625 15.5C16.1223 15.5 16.5992 15.6975 16.9508 16.0492C17.3025 16.4008 17.5 16.8777 17.5 17.375C17.5 17.8723 17.3025 18.3492 16.9508 18.7008C16.5992 19.0525 16.1223 19.25 15.625 19.25ZM4.375 19.25C3.87772 19.25 3.40081 19.0525 3.04917 18.7008C2.69754 18.3492 2.5 17.8723 2.5 17.375C2.5 16.8777 2.69754 16.4008 3.04917 16.0492C3.40081 15.6975 3.87772 15.5 4.375 15.5C4.87228 15.5 5.34919 15.6975 5.70083 16.0492C6.05246 16.4008 6.25 16.8777 6.25 17.375C6.25 17.8723 6.05246 18.3492 5.70083 18.7008C5.34919 19.0525 4.87228 19.25 4.375 19.25ZM0 18C0 19.1 0.4875 20.0875 1.25 20.775V23C1.25 23.3315 1.3817 23.6495 1.61612 23.8839C1.85054 24.1183 2.16848 24.25 2.5 24.25H3.75C4.08152 24.25 4.39946 24.1183 4.63388 23.8839C4.8683 23.6495 5 23.3315 5 23V21.75H15V23C15 23.3315 15.1317 23.6495 15.3661 23.8839C15.6005 24.1183 15.9185 24.25 16.25 24.25H17.5C17.8315 24.25 18.1495 24.1183 18.3839 23.8839C18.6183 23.6495 18.75 23.3315 18.75 23V20.775C19.5125 20.0875 20 19.1 20 18V5.5C20 1.125 15.525 0.5 10 0.5C4.475 0.5 0 1.125 0 5.5V18Z" fill="#3F3F3F"/>
</svg>
