<svg width="127" height="94" viewBox="0 0 127 94" fill="none" xmlns="http://www.w3.org/2000/svg">
<path d="M93.4508 69.8495C93.4309 67.9739 92.8059 66.1633 92.1882 64.3918C90.5254 59.6226 88.8624 54.8533 87.1983 50.0863C86.8301 49.0306 86.4494 47.9496 85.7373 47.0889C83.8871 44.8531 80.5416 44.7911 77.6423 44.9163C74.8446 45.0366 71.9814 45.1711 69.3944 46.2384C66.805 47.3066 64.5047 49.5132 64.129 52.2877C63.7955 54.7456 64.9813 57.1275 66.1329 59.3241C68.265 63.3944 70.3954 67.4661 72.5274 71.5364C73.3201 73.0492 74.1283 74.5831 75.3081 75.8199C82.0076 82.842 93.5677 80.5536 93.4508 69.8495Z" fill="#F5EFEB"/>
<path d="M92.1169 34.4683C91.9423 33.9933 91.2507 34.065 90.7802 34.2503C88.6013 35.1112 86.6629 36.4759 84.7495 37.8275C83.9024 38.4251 82.975 39.1608 82.9073 40.1957C82.8242 41.4896 84.2492 42.4702 85.5452 42.4209C86.8421 42.3697 87.9904 41.615 89.0642 40.8847C90.0617 40.2068 91.079 39.5099 91.7909 38.5347C92.5008 37.5601 92.855 36.2365 92.3823 35.1275L92.1169 34.4683Z" fill="#F5EFEB"/>
<path d="M98.7679 38.0179C97.7627 37.7053 96.0107 38.5891 95.1839 39.1079C93.4809 40.1754 91.7801 41.2424 90.0776 42.3104C89.7056 42.5445 89.3137 42.8004 89.1421 43.2052C88.971 43.6106 89.0627 44.073 89.1623 44.5024C89.4641 45.8032 89.8821 47.1856 90.9382 48.0033C92.1099 48.9108 93.8041 48.8689 95.1662 48.2825C96.5268 47.6975 97.6299 46.6551 98.7032 45.6323C99.2471 45.1142 99.8143 44.557 99.9987 43.83C100.14 43.2751 100.039 42.6911 99.9371 42.1292C99.755 41.1186 100.023 38.9661 99.1233 38.2071C99.0203 38.1199 98.9004 38.0583 98.7679 38.0179Z" fill="#F5EFEB"/>
<path d="M100.52 48.0288C98.8819 48.9638 97.2432 49.8986 95.6047 50.8335C94.6641 51.3701 93.6565 51.982 93.2705 52.9946C92.634 54.6657 94.2263 56.5615 96.0049 56.7536C97.782 56.9469 99.482 55.891 100.695 54.577C101.468 53.739 102.124 52.7469 102.324 51.6252C102.524 50.5039 102.192 49.2401 101.291 48.5427L100.52 48.0288Z" fill="#F5EFEB"/>
<path d="M102.499 59.2415C100.917 57.9699 97.4992 60.1417 96.0426 61.1212C96.0659 62.909 98.2055 64.1608 99.9233 63.6628C101.071 63.3308 104.018 60.5967 102.563 59.2959C102.542 59.2769 102.52 59.258 102.499 59.2415Z" fill="#F5EFEB"/>
<path d="M102.821 66.6386C102.327 66.5927 101.837 66.7207 101.358 66.8466C100.597 67.0471 99.8133 67.2582 99.1918 67.743C98.5718 68.2257 98.1527 69.0581 98.388 69.8092C98.74 70.9329 100.35 71.1878 101.356 70.5733C102.36 69.9603 102.892 68.8182 103.37 67.7412C103.49 67.1168 102.821 66.6386 102.821 66.6386Z" fill="#F5EFEB"/>
<path d="M92.39 33.1069C93.3152 32.8745 94.241 32.6428 95.1662 32.4105C94.4765 33.0202 93.7868 33.63 93.0971 34.2397C92.9355 33.792 92.7753 33.3431 92.6131 32.8947L92.39 33.1069Z" fill="#F5EFEB"/>
<path d="M99.7534 36.9937C100.925 36.323 102.177 35.6325 103.523 35.6932C102.767 36.671 101.92 37.5781 100.996 38.3995C100.663 37.8423 100.263 37.3245 99.8078 36.8615L99.7534 36.9937Z" fill="#F5EFEB"/>
<path d="M101.352 47.6934C102.497 46.9955 103.642 46.2977 104.788 45.5998C104.012 46.6419 103.198 47.655 102.348 48.6376C102.048 48.3741 101.801 48.0497 101.627 47.6901L101.352 47.6934Z" fill="#F5EFEB"/>
<path d="M102.69 58.0948C103.633 57.248 104.662 56.495 105.755 55.8533C105.305 56.9235 104.525 57.853 103.55 58.481C103.261 58.2737 102.939 58.1139 102.6 58.0078L102.69 58.0948Z" fill="#F5EFEB"/>
<path d="M103.612 65.7646C104.224 65.11 104.902 64.5158 105.632 63.993C105.404 64.5813 105.135 65.1553 104.832 65.7084C104.701 65.9466 104.54 66.2007 104.28 66.2764C104.018 66.3534 103.678 66.1068 103.779 65.8548L103.612 65.7646Z" fill="#F5EFEB"/>
<path d="M43.7936 59.3612C45.167 57.2676 46.1414 54.5455 46.7243 51.6372C47.2918 48.7922 47.7459 45.4775 45.8212 43.3053C45.0794 42.4691 44.0708 41.9268 43.0857 41.3997C38.6291 39.0228 34.1725 36.6461 29.7159 34.2692C28.0622 33.386 26.3697 32.4906 24.5189 32.1811C8.06667 29.4359 12.5343 56.7286 24.4526 58.2529C25.3881 58.3725 26.4117 58.3188 27.4113 58.351C28.5089 59.1636 29.6078 59.9761 30.7072 60.7872C36.6956 65.2182 41.0441 63.5511 43.7936 59.3612Z" fill="#F5EFEB"/>
<path d="M59.2747 38.9394C59.7171 39.1851 59.54 39.8575 59.283 40.295C58.0978 42.3164 56.4505 44.021 54.8212 45.7043C54.1001 46.449 53.2304 47.2521 52.1978 47.1604C50.9065 47.0435 50.1569 45.4847 50.4049 44.2116C50.6545 42.9374 51.5788 41.9181 52.4641 40.9707C53.2868 40.0888 54.1335 39.1896 55.2056 38.6381C56.2777 38.0864 57.6397 37.9396 58.6633 38.5778L59.2747 38.9394Z" fill="#F5EFEB"/>
<path d="M56.7871 31.8262C56.9422 32.8655 55.7985 34.4625 55.1601 35.1984C53.8429 36.7163 52.5257 38.2342 51.2088 39.7526C50.922 40.083 50.6067 40.4315 50.1823 40.5381C49.7539 40.646 49.3108 40.4838 48.9022 40.3199C47.6629 39.8212 46.3618 39.196 45.7161 38.0266C44.9997 36.7294 45.3032 35.0604 46.09 33.8054C46.8774 32.551 48.079 31.6207 49.2528 30.7181C49.8484 30.2604 50.4867 29.7864 51.235 29.7147C51.8034 29.6619 52.3649 29.8509 52.9045 30.0383C53.875 30.3737 56.0432 30.4397 56.6548 31.4459C56.7245 31.5603 56.7669 31.6882 56.7871 31.8262Z" fill="#F5EFEB"/>
<path d="M47.1666 28.5522C45.9909 30.0276 44.8156 31.5034 43.6392 32.978C42.9643 33.8249 42.2047 34.7263 41.1449 34.9521C39.3955 35.324 37.768 33.4597 37.8516 31.6726C37.9354 29.8856 39.2383 28.369 40.7239 27.3729C41.6702 26.7376 42.7519 26.2423 43.8906 26.2171C45.0297 26.1923 46.2274 26.7147 46.7773 27.7122L47.1666 28.5522Z" fill="#F5EFEB"/>
<path d="M36.3912 24.8737C37.4039 26.6312 34.7322 29.6747 33.5426 30.9623C31.7777 30.6658 30.8713 28.3579 31.6263 26.7374C32.1309 25.6556 35.2868 23.1625 36.3474 24.8014C36.3629 24.8254 36.3778 24.8489 36.3912 24.8737Z" fill="#F5EFEB"/>
<path d="M29.1318 23.4181C29.1014 23.9125 28.9011 24.3771 28.7023 24.8314C28.3867 25.5529 28.0573 26.2943 27.4832 26.8343C26.9101 27.3724 26.0237 27.6591 25.3179 27.3107C24.2623 26.7886 24.2569 25.1594 25.0191 24.261C25.7808 23.3619 26.9898 23.0124 28.1275 22.706C28.7631 22.6834 29.1318 23.4181 29.1318 23.4181Z" fill="#F5EFEB"/>
<path d="M60.663 38.8801C61.0328 38.0023 61.4047 37.1238 61.7767 36.2454C61.0675 36.8324 60.359 37.4201 59.6504 38.0078C60.0699 38.2357 60.4875 38.4644 60.9064 38.6917L60.663 38.8801Z" fill="#F5EFEB"/>
<path d="M57.9546 31.0052C58.7965 29.9529 59.6714 28.8218 59.818 27.4815C58.7355 28.0782 57.7088 28.7762 56.7558 29.5632C57.255 29.9776 57.7053 30.4521 58.0926 30.9737L57.9546 31.0052Z" fill="#F5EFEB"/>
<path d="M47.6268 27.7833C48.4925 26.7589 49.3583 25.7345 50.224 24.7101C49.075 25.3163 47.9484 25.964 46.8471 26.6531C47.0628 26.9893 47.3454 27.2831 47.6726 27.5116L47.6268 27.7833Z" fill="#F5EFEB"/>
<path d="M37.5561 24.859C38.538 24.0575 39.4382 23.1576 40.241 22.1771C39.1142 22.4571 38.0759 23.0844 37.3053 23.9518C37.4652 24.2681 37.5751 24.6102 37.6263 24.9621L37.5561 24.859Z" fill="#F5EFEB"/>
<path d="M30.1186 22.7692C30.8601 22.2652 31.5523 21.6855 32.1804 21.0459C31.5639 21.1811 30.9564 21.3568 30.3623 21.5725C30.1067 21.6654 29.8308 21.7859 29.7161 22.0312C29.5998 22.2778 29.7912 22.6518 30.0557 22.5904L30.1186 22.7692Z" fill="#F5EFEB"/>
</svg>
