<svg width="24" height="24" viewBox="0 0 24 24" fill="none" xmlns="http://www.w3.org/2000/svg">
<path d="M13.0909 0L10.9091 0V2.18182H8.72727V4.36364H6.54545V6.54545H4.36364V8.72727H2.18182V10.9091H0L0 13.0909H2.18182V15.2727H4.36364V17.4545H6.54545V19.6364H8.72727V21.8182H10.9091V24H13.0909V21.8182H15.2727V19.6364H17.4545V17.4545H19.6364V15.2727H21.8182V13.0909H24V10.9091H21.8182V8.72727H19.6364V6.54545H17.4545V4.36364H15.2727V2.18182H13.0909V0ZM13.0909 2.18182V4.36364H15.2727V6.54545H17.4545V8.72727H19.6364V10.9091H21.8182V13.0909H19.6364V15.2727H17.4545V17.4545H15.2727V19.6364H13.0909V21.8182H10.9091V19.6364H8.72727V17.4545H6.54545V15.2727H4.36364V13.0909H2.18182V10.9091H4.36364V8.72727H6.54545V6.54545H8.72727V4.36364H10.9091V2.18182H13.0909ZM13.0909 6.54545H10.9091V13.0909H13.0909V6.54545ZM13.0909 15.2727H10.9091V17.4545H13.0909V15.2727Z" fill="#FED001"/>
</svg>
