<svg width="20" height="25" viewBox="0 0 20 25" fill="none" xmlns="http://www.w3.org/2000/svg">
<path d="M10 0.5C5 0.5 0 1.125 0 5.5V17.375C0 19.7875 1.9625 21.75 4.375 21.75L2.5 23.625V24.25H5.2875L7.7875 21.75H12.5L15 24.25H17.5V23.625L15.625 21.75C18.0375 21.75 20 19.7875 20 17.375V5.5C20 1.125 15.525 0.5 10 0.5ZM4.375 19.25C3.3375 19.25 2.5 18.4125 2.5 17.375C2.5 16.3375 3.3375 15.5 4.375 15.5C5.4125 15.5 6.25 16.3375 6.25 17.375C6.25 18.4125 5.4125 19.25 4.375 19.25ZM8.75 10.5H2.5V5.5H8.75V10.5ZM11.25 10.5V5.5H17.5V10.5H11.25ZM15.625 19.25C14.5875 19.25 13.75 18.4125 13.75 17.375C13.75 16.3375 14.5875 15.5 15.625 15.5C16.6625 15.5 17.5 16.3375 17.5 17.375C17.5 18.4125 16.6625 19.25 15.625 19.25Z" fill="#3F3F3F"/>
</svg>
