<svg width="44" height="38" viewBox="0 0 44 38" fill="none" xmlns="http://www.w3.org/2000/svg">
<path d="M-0.000181079 16.7271L-0.00018088 18.9998L6.818 18.9998L6.818 25.818L9.09073 25.818L9.09073 30.3635L11.3635 30.3635L11.3635 32.6362L13.6362 32.6362L13.6362 34.9089L18.1816 34.9089L18.1816 37.1816L31.818 37.1816L31.818 34.9089L36.3635 34.9089L36.3635 32.6362L38.6362 32.6362L38.6362 30.3635L40.9089 30.3635L40.9089 25.818L43.1816 25.818L43.1816 16L38.6362 16L38.6362 23.5453L36.3635 23.5453L36.3635 28.0907L34.0907 28.0907L34.0907 30.3635L29.5453 30.3635L29.5453 32.6362L20.4544 32.6362L20.4544 30.3635L15.9089 30.3635L15.9089 28.0907L13.6362 28.0907L13.6362 23.5453L11.3635 23.5453L11.3635 18.9998L18.1816 18.9998L18.1816 16.7271L15.9089 16.7271L15.9089 14.4544L13.6362 14.4544L13.6362 12.1816L11.3635 12.1816L11.3635 9.90892L6.818 9.90892L6.818 12.1816L4.54527 12.1816L4.54527 14.4544L2.27254 14.4544L2.27254 16.7271L-0.000181079 16.7271Z" fill="#3F3F3F"/>
</svg>
