<svg width="41" height="51" viewBox="0 0 41 51" fill="none" xmlns="http://www.w3.org/2000/svg">
<path d="M40.9998 26.8618V28.2751H39.5864V26.8618H40.9998Z" fill="black"/>
<path d="M40.9998 25.4482V26.8615H39.5864V25.4482H40.9998Z" fill="black"/>
<path d="M40.9998 24.0347V25.4479H39.5864V24.0347H40.9998Z" fill="black"/>
<path d="M40.9998 22.6221V24.0353H39.5864V22.6221H40.9998Z" fill="black"/>
<path d="M40.9998 21.2085V22.6218H39.5864V21.2085H40.9998Z" fill="black"/>
<path d="M40.9998 19.7925V21.2088H39.5864V19.7925H40.9998Z" fill="black"/>
<path d="M40.9998 18.3789V19.7922H39.5864V18.3789H40.9998Z" fill="black"/>
<path d="M40.9998 16.9648V18.3781H39.5864V16.9648H40.9998Z" fill="black"/>
<path d="M40.9998 15.5527V16.966H39.5864V15.5527H40.9998Z" fill="black"/>
<path d="M40.9998 14.1392V15.5524H39.5864V14.1392H40.9998Z" fill="black"/>
<path d="M39.5867 29.688V31.1044H38.1733V29.688H39.5867Z" fill="black"/>
<path d="M39.5867 28.2744V29.6877H38.1733V28.2744H39.5867Z" fill="black"/>
<path d="M39.5867 26.8618V28.2751H38.1733V26.8618H39.5867Z" fill="black"/>
<path d="M39.5867 25.4482V26.8615H38.1733V25.4482H39.5867Z" fill="black"/>
<path d="M39.5867 24.0347V25.4479H38.1733V24.0347H39.5867Z" fill="black"/>
<path d="M39.5867 22.6221V24.0353H38.1733V22.6221H39.5867Z" fill="black"/>
<path d="M39.5867 21.2085V22.6218H38.1733V21.2085H39.5867Z" fill="black"/>
<path d="M39.5867 19.7925V21.2088H38.1733V19.7925H39.5867Z" fill="black"/>
<path d="M39.5867 18.3789V19.7922H38.1733V18.3789H39.5867Z" fill="black"/>
<path d="M39.5867 16.9648V18.3781H38.1733V16.9648H39.5867Z" fill="black"/>
<path d="M39.5867 15.5527V16.966H38.1733V15.5527H39.5867Z" fill="black"/>
<path d="M39.5867 14.1392V15.5524H38.1733V14.1392H39.5867Z" fill="black"/>
<path d="M39.5867 12.7251V14.1384H38.1733V12.7251H39.5867Z" fill="black"/>
<path d="M39.5867 11.313V12.7263H38.1733V11.313H39.5867Z" fill="black"/>
<path d="M38.1731 32.5176V33.9309H36.7598V32.5176H38.1731Z" fill="black"/>
<path d="M38.1731 31.104V32.5173H36.7598V31.104H38.1731Z" fill="black"/>
<path d="M38.1731 29.688V31.1044H36.7598V29.688H38.1731Z" fill="black"/>
<path d="M38.1731 28.2744V29.6877H36.7598V28.2744H38.1731Z" fill="black"/>
<path d="M38.1731 26.8618V28.2751H36.7598V26.8618H38.1731Z" fill="black"/>
<path d="M38.1731 25.4482V26.8615H36.7598V25.4482H38.1731Z" fill="#BE5E99"/>
<path d="M38.1731 24.0347V25.4479H36.7598V24.0347H38.1731Z" fill="#BE5E99"/>
<path d="M38.1731 22.6221V24.0353H36.7598V22.6221H38.1731Z" fill="#BE5E99"/>
<path d="M38.1731 21.2085V22.6218H36.7598V21.2085H38.1731Z" fill="#BE5E99"/>
<path d="M38.1731 19.7925V21.2088H36.7598V19.7925H38.1731Z" fill="#BE5E99"/>
<path d="M38.1731 18.3789V19.7922H36.7598V18.3789H38.1731Z" fill="#BE5E99"/>
<path d="M38.1731 16.9648V18.3781H36.7598V16.9648H38.1731Z" fill="#BE5E99"/>
<path d="M38.1731 15.5527V16.966H36.7598V15.5527H38.1731Z" fill="#BE5E99"/>
<path d="M38.1731 14.1392V15.5524H36.7598V14.1392H38.1731Z" fill="#BE5E99"/>
<path d="M38.1731 12.7251V14.1384H36.7598V12.7251H38.1731Z" fill="#BE5E99"/>
<path d="M38.1731 11.313V12.7263H36.7598V11.313H38.1731Z" fill="black"/>
<path d="M38.1731 9.89551V11.3119H36.7598V9.89551H38.1731Z" fill="black"/>
<path d="M38.1731 8.48291V9.89618H36.7598V8.48291H38.1731Z" fill="black"/>
<path d="M36.76 32.5176V33.9309H35.3467V32.5176H36.76Z" fill="black"/>
<path d="M36.76 31.104V32.5173H35.3467V31.104H36.76Z" fill="black"/>
<path d="M36.76 29.688V31.1044H35.3467V29.688H36.76Z" fill="black"/>
<path d="M36.76 28.2744V29.6877H35.3467V28.2744H36.76Z" fill="#BE5E99"/>
<path d="M36.76 26.8618V28.2751H35.3467V26.8618H36.76Z" fill="#BE5E99"/>
<path d="M36.76 25.4482V26.8615H35.3467V25.4482H36.76Z" fill="#EA7FC1"/>
<path d="M36.76 24.0347V25.4479H35.3467V24.0347H36.76Z" fill="#EA7FC1"/>
<path d="M36.76 22.6221V24.0353H35.3467V22.6221H36.76Z" fill="#EA7FC1"/>
<path d="M36.76 21.2085V22.6218H35.3467V21.2085H36.76Z" fill="#EA7FC1"/>
<path d="M36.76 19.7925V21.2088H35.3467V19.7925H36.76Z" fill="#EA7FC1"/>
<path d="M36.76 18.3789V19.7922H35.3467V18.3789H36.76Z" fill="#EA7FC1"/>
<path d="M36.76 16.9648V18.3781H35.3467V16.9648H36.76Z" fill="#EA7FC1"/>
<path d="M36.76 15.5527V16.966H35.3467V15.5527H36.76Z" fill="#EA7FC1"/>
<path d="M36.76 14.1392V15.5524H35.3467V14.1392H36.76Z" fill="#EA7FC1"/>
<path d="M36.76 12.7251V14.1384H35.3467V12.7251H36.76Z" fill="#EA7FC1"/>
<path d="M36.76 11.313V12.7263H35.3467V11.313H36.76Z" fill="#BE5E99"/>
<path d="M36.76 9.89551V11.3119H35.3467V9.89551H36.76Z" fill="#BE5E99"/>
<path d="M36.76 8.48291V9.89618H35.3467V8.48291H36.76Z" fill="black"/>
<path d="M36.76 7.06934V8.48261H35.3467V7.06934H36.76Z" fill="black"/>
<path d="M35.347 35.3438V36.757H33.9336V35.3438H35.347Z" fill="black"/>
<path d="M35.347 33.9312V35.3444H33.9336V33.9312H35.347Z" fill="black"/>
<path d="M35.347 32.5176V33.9309H33.9336V32.5176H35.347Z" fill="black"/>
<path d="M35.347 31.104V32.5173H33.9336V31.104H35.347Z" fill="#BE5E99"/>
<path d="M35.347 29.688V31.1044H33.9336V29.688H35.347Z" fill="#BE5E99"/>
<path d="M35.347 28.2744V29.6877H33.9336V28.2744H35.347Z" fill="#EA7FC1"/>
<path d="M35.347 26.8618V28.2751H33.9336V26.8618H35.347Z" fill="#EA7FC1"/>
<path d="M35.347 25.4482V26.8615H33.9336V25.4482H35.347Z" fill="#F59CD0"/>
<path d="M35.347 24.0347V25.4479H33.9336V24.0347H35.347Z" fill="#F59CD0"/>
<path d="M35.347 22.6221V24.0353H33.9336V22.6221H35.347Z" fill="#F59CD0"/>
<path d="M35.347 21.2085V22.6218H33.9336V21.2085H35.347Z" fill="#F59CD0"/>
<path d="M35.347 19.7925V21.2088H33.9336V19.7925H35.347Z" fill="#F59CD0"/>
<path d="M35.347 18.3789V19.7922H33.9336V18.3789H35.347Z" fill="#F59CD0"/>
<path d="M35.347 16.9648V18.3781H33.9336V16.9648H35.347Z" fill="#F59CD0"/>
<path d="M35.347 15.5527V16.966H33.9336V15.5527H35.347Z" fill="#F59CD0"/>
<path d="M35.347 14.1392V15.5524H33.9336V14.1392H35.347Z" fill="#F59CD0"/>
<path d="M35.347 12.7251V14.1384H33.9336V12.7251H35.347Z" fill="#F59CD0"/>
<path d="M35.347 11.313V12.7263H33.9336V11.313H35.347Z" fill="#EA7FC1"/>
<path d="M35.347 9.89551V11.3119H33.9336V9.89551H35.347Z" fill="#EA7FC1"/>
<path d="M35.347 8.48291V9.89618H33.9336V8.48291H35.347Z" fill="#BE5E99"/>
<path d="M35.347 7.06934V8.48261H33.9336V7.06934H35.347Z" fill="#BE5E99"/>
<path d="M35.347 5.65576V7.06904H33.9336V5.65576H35.347Z" fill="black"/>
<path d="M33.9329 35.3438V36.757H32.5195V35.3438H33.9329Z" fill="black"/>
<path d="M33.9329 33.9312V35.3444H32.5195V33.9312H33.9329Z" fill="black"/>
<path d="M33.9329 32.5176V33.9309H32.5195V32.5176H33.9329Z" fill="#BE5E99"/>
<path d="M33.9329 31.104V32.5173H32.5195V31.104H33.9329Z" fill="#EA7FC1"/>
<path d="M33.9329 29.688V31.1044H32.5195V29.688H33.9329Z" fill="#F59CD0"/>
<path d="M33.9329 28.2744V29.6877H32.5195V28.2744H33.9329Z" fill="#F59CD0"/>
<path d="M33.9329 26.8618V28.2751H32.5195V26.8618H33.9329Z" fill="#F59CD0"/>
<path d="M33.9329 25.4482V26.8615H32.5195V25.4482H33.9329Z" fill="#F59CD0"/>
<path d="M33.9329 24.0347V25.4479H32.5195V24.0347H33.9329Z" fill="#F59CD0"/>
<path d="M33.9329 22.6221V24.0353H32.5195V22.6221H33.9329Z" fill="#F59CD0"/>
<path d="M33.9329 21.2085V22.6218H32.5195V21.2085H33.9329Z" fill="#F59CD0"/>
<path d="M33.9329 19.7925V21.2088H32.5195V19.7925H33.9329Z" fill="#F59CD0"/>
<path d="M33.9329 18.3789V19.7922H32.5195V18.3789H33.9329Z" fill="#F59CD0"/>
<path d="M33.9329 16.9648V18.3781H32.5195V16.9648H33.9329Z" fill="#F59CD0"/>
<path d="M33.9329 15.5527V16.966H32.5195V15.5527H33.9329Z" fill="#F59CD0"/>
<path d="M33.9329 14.1392V15.5524H32.5195V14.1392H33.9329Z" fill="#F59CD0"/>
<path d="M33.9329 12.7251V14.1384H32.5195V12.7251H33.9329Z" fill="#F59CD0"/>
<path d="M33.9329 11.313V12.7263H32.5195V11.313H33.9329Z" fill="#F59CD0"/>
<path d="M33.9329 9.89551V11.3119H32.5195V9.89551H33.9329Z" fill="#F59CD0"/>
<path d="M33.9329 8.48291V9.89618H32.5195V8.48291H33.9329Z" fill="#EA7FC1"/>
<path d="M33.9329 7.06934V8.48261H32.5195V7.06934H33.9329Z" fill="#EA7FC1"/>
<path d="M33.9329 5.65576V7.06904H32.5195V5.65576H33.9329Z" fill="#EA7FC1"/>
<path d="M33.9329 4.24316V5.65644H32.5195V4.24316H33.9329Z" fill="black"/>
<path d="M32.52 36.7573V38.1706H31.1035V36.7573H32.52Z" fill="black"/>
<path d="M32.52 35.3438V36.757H31.1035V35.3438H32.52Z" fill="black"/>
<path d="M32.52 33.9312V35.3444H31.1035V33.9312H32.52Z" fill="#BE5E99"/>
<path d="M32.52 32.5176V33.9309H31.1035V32.5176H32.52Z" fill="#EA7FC1"/>
<path d="M32.52 31.104V32.5173H31.1035V31.104H32.52Z" fill="#F59CD0"/>
<path d="M32.52 29.688V31.1044H31.1035V29.688H32.52Z" fill="#F59CD0"/>
<path d="M32.52 28.2744V29.6877H31.1035V28.2744H32.52Z" fill="#F59CD0"/>
<path d="M32.52 26.8618V28.2751H31.1035V26.8618H32.52Z" fill="#F59CD0"/>
<path d="M32.52 25.4482V26.8615H31.1035V25.4482H32.52Z" fill="#F59CD0"/>
<path d="M32.52 24.0347V25.4479H31.1035V24.0347H32.52Z" fill="#F59CD0"/>
<path d="M32.52 22.6221V24.0353H31.1035V22.6221H32.52Z" fill="#F59CD0"/>
<path d="M32.52 21.2085V22.6218H31.1035V21.2085H32.52Z" fill="#F59CD0"/>
<path d="M32.52 19.7925V21.2088H31.1035V19.7925H32.52Z" fill="#F59CD0"/>
<path d="M32.52 18.3789V19.7922H31.1035V18.3789H32.52Z" fill="#F59CD0"/>
<path d="M32.52 16.9648V18.3781H31.1035V16.9648H32.52Z" fill="#F59CD0"/>
<path d="M32.52 15.5527V16.966H31.1035V15.5527H32.52Z" fill="#F59CD0"/>
<path d="M32.52 14.1392V15.5524H31.1035V14.1392H32.52Z" fill="#F59CD0"/>
<path d="M32.52 12.7251V14.1384H31.1035V12.7251H32.52Z" fill="#F59CD0"/>
<path d="M32.52 11.313V12.7263H31.1035V11.313H32.52Z" fill="#F59CD0"/>
<path d="M32.52 9.89551V11.3119H31.1035V9.89551H32.52Z" fill="#F59CD0"/>
<path d="M32.52 8.48291V9.89618H31.1035V8.48291H32.52Z" fill="#F59CD0"/>
<path d="M32.52 7.06934V8.48261H31.1035V7.06934H32.52Z" fill="#F59CD0"/>
<path d="M32.52 5.65576V7.06904H31.1035V5.65576H32.52Z" fill="#F59CD0"/>
<path d="M32.52 4.24316V5.65644H31.1035V4.24316H32.52Z" fill="#EA7FC1"/>
<path d="M32.52 2.82959V4.24286H31.1035V2.82959H32.52Z" fill="black"/>
<path d="M31.1033 36.7573V38.1706H29.6899V36.7573H31.1033Z" fill="black"/>
<path d="M31.1033 35.3438V36.757H29.6899V35.3438H31.1033Z" fill="black"/>
<path d="M31.1033 33.9312V35.3444H29.6899V33.9312H31.1033Z" fill="#BE5E99"/>
<path d="M31.1033 32.5176V33.9309H29.6899V32.5176H31.1033Z" fill="#EA7FC1"/>
<path d="M31.1033 31.104V32.5173H29.6899V31.104H31.1033Z" fill="#F59CD0"/>
<path d="M31.1033 29.688V31.1044H29.6899V29.688H31.1033Z" fill="#F59CD0"/>
<path d="M31.1033 28.2744V29.6877H29.6899V28.2744H31.1033Z" fill="#F59CD0"/>
<path d="M31.1033 26.8618V28.2751H29.6899V26.8618H31.1033Z" fill="#F59CD0"/>
<path d="M31.1033 25.4482V26.8615H29.6899V25.4482H31.1033Z" fill="#F59CD0"/>
<path d="M31.1033 24.0347V25.4479H29.6899V24.0347H31.1033Z" fill="#F59CD0"/>
<path d="M31.1033 22.6221V24.0353H29.6899V22.6221H31.1033Z" fill="#F59CD0"/>
<path d="M31.1033 21.2085V22.6218H29.6899V21.2085H31.1033Z" fill="#F59CD0"/>
<path d="M31.1033 19.7925V21.2088H29.6899V19.7925H31.1033Z" fill="#F59CD0"/>
<path d="M31.1033 18.3789V19.7922H29.6899V18.3789H31.1033Z" fill="#F59CD0"/>
<path d="M31.1033 16.9648V18.3781H29.6899V16.9648H31.1033Z" fill="#F59CD0"/>
<path d="M31.1033 15.5527V16.966H29.6899V15.5527H31.1033Z" fill="#F59CD0"/>
<path d="M31.1033 14.1392V15.5524H29.6899V14.1392H31.1033Z" fill="#F59CD0"/>
<path d="M31.1033 12.7251V14.1384H29.6899V12.7251H31.1033Z" fill="#F59CD0"/>
<path d="M31.1033 11.313V12.7263H29.6899V11.313H31.1033Z" fill="#F59CD0"/>
<path d="M31.1033 9.89551V11.3119H29.6899V9.89551H31.1033Z" fill="#F59CD0"/>
<path d="M31.1033 8.48291V9.89618H29.6899V8.48291H31.1033Z" fill="#F59CD0"/>
<path d="M31.1033 7.06934V8.48261H29.6899V7.06934H31.1033Z" fill="#F59CD0"/>
<path d="M31.1033 5.65576V7.06904H29.6899V5.65576H31.1033Z" fill="#F59CD0"/>
<path d="M31.1033 4.24316V5.65644H29.6899V4.24316H31.1033Z" fill="#F59CD0"/>
<path d="M31.1033 2.82959V4.24286H29.6899V2.82959H31.1033Z" fill="black"/>
<path d="M29.6902 38.1709V39.5842H28.2769V38.1709H29.6902Z" fill="black"/>
<path d="M29.6902 36.7573V38.1706H28.2769V36.7573H29.6902Z" fill="black"/>
<path d="M29.6902 35.3438V36.757H28.2769V35.3438H29.6902Z" fill="#BE5E99"/>
<path d="M29.6902 33.9312V35.3444H28.2769V33.9312H29.6902Z" fill="#EA7FC1"/>
<path d="M29.6902 32.5176V33.9309H28.2769V32.5176H29.6902Z" fill="#F59CD0"/>
<path d="M29.6902 31.104V32.5173H28.2769V31.104H29.6902Z" fill="#F59CD0"/>
<path d="M29.6902 29.688V31.1044H28.2769V29.688H29.6902Z" fill="#F59CD0"/>
<path d="M29.6902 28.2744V29.6877H28.2769V28.2744H29.6902Z" fill="#F59CD0"/>
<path d="M29.6902 26.8618V28.2751H28.2769V26.8618H29.6902Z" fill="#F59CD0"/>
<path d="M29.6902 25.4482V26.8615H28.2769V25.4482H29.6902Z" fill="#F59CD0"/>
<path d="M29.6902 24.0347V25.4479H28.2769V24.0347H29.6902Z" fill="#F59CD0"/>
<path d="M29.6902 22.6221V24.0353H28.2769V22.6221H29.6902Z" fill="#F59CD0"/>
<path d="M29.6902 21.2085V22.6218H28.2769V21.2085H29.6902Z" fill="#F59CD0"/>
<path d="M29.6902 19.7925V21.2088H28.2769V19.7925H29.6902Z" fill="#F59CD0"/>
<path d="M29.6902 18.3789V19.7922H28.2769V18.3789H29.6902Z" fill="#F59CD0"/>
<path d="M29.6902 16.9648V18.3781H28.2769V16.9648H29.6902Z" fill="#F59CD0"/>
<path d="M29.6902 15.5527V16.966H28.2769V15.5527H29.6902Z" fill="#F59CD0"/>
<path d="M29.6902 14.1392V15.5524H28.2769V14.1392H29.6902Z" fill="#F59CD0"/>
<path d="M29.6902 12.7251V14.1384H28.2769V12.7251H29.6902Z" fill="#F59CD0"/>
<path d="M29.6902 11.313V12.7263H28.2769V11.313H29.6902Z" fill="#F59CD0"/>
<path d="M29.6902 9.89551V11.3119H28.2769V9.89551H29.6902Z" fill="#F59CD0"/>
<path d="M29.6902 8.48291V9.89618H28.2769V8.48291H29.6902Z" fill="#F59CD0"/>
<path d="M29.6902 7.06934V8.48261H28.2769V7.06934H29.6902Z" fill="#F59CD0"/>
<path d="M29.6902 5.65576V7.06904H28.2769V5.65576H29.6902Z" fill="#F59CD0"/>
<path d="M29.6902 4.24316V5.65644H28.2769V4.24316H29.6902Z" fill="#F59CD0"/>
<path d="M29.6902 2.82959V4.24286H28.2769V2.82959H29.6902Z" fill="#F59CD0"/>
<path d="M29.6902 1.41602V2.82929H28.2769V1.41602H29.6902Z" fill="black"/>
<path d="M28.2766 39.5835V40.9999H26.8633V39.5835H28.2766Z" fill="black"/>
<path d="M28.2766 38.1709V39.5842H26.8633V38.1709H28.2766Z" fill="black"/>
<path d="M28.2766 36.7573V38.1706H26.8633V36.7573H28.2766Z" fill="black"/>
<path d="M28.2766 35.3438V36.757H26.8633V35.3438H28.2766Z" fill="#BE5E99"/>
<path d="M28.2766 33.9312V35.3444H26.8633V33.9312H28.2766Z" fill="#EA7FC1"/>
<path d="M28.2766 32.5176V33.9309H26.8633V32.5176H28.2766Z" fill="#F59CD0"/>
<path d="M28.2766 31.104V32.5173H26.8633V31.104H28.2766Z" fill="#F59CD0"/>
<path d="M28.2766 29.688V31.1044H26.8633V29.688H28.2766Z" fill="#F59CD0"/>
<path d="M28.2766 28.2744V29.6877H26.8633V28.2744H28.2766Z" fill="#F59CD0"/>
<path d="M28.2766 26.8618V28.2751H26.8633V26.8618H28.2766Z" fill="#F59CD0"/>
<path d="M28.2766 25.4482V26.8615H26.8633V25.4482H28.2766Z" fill="#F59CD0"/>
<path d="M28.2766 24.0347V25.4479H26.8633V24.0347H28.2766Z" fill="#F59CD0"/>
<path d="M28.2766 22.6221V24.0353H26.8633V22.6221H28.2766Z" fill="#F59CD0"/>
<path d="M28.2766 21.2085V22.6218H26.8633V21.2085H28.2766Z" fill="#F59CD0"/>
<path d="M28.2766 19.7925V21.2088H26.8633V19.7925H28.2766Z" fill="#F59CD0"/>
<path d="M26.8631 39.5835V40.9999H25.4497V39.5835H26.8631Z" fill="black"/>
<path d="M26.8631 38.1709V39.5842H25.4497V38.1709H26.8631Z" fill="black"/>
<path d="M26.8631 36.7573V38.1706H25.4497V36.7573H26.8631Z" fill="#BE5E99"/>
<path d="M26.8631 35.3438V36.757H25.4497V35.3438H26.8631Z" fill="#EA7FC1"/>
<path d="M26.8631 33.9312V35.3444H25.4497V33.9312H26.8631Z" fill="#F59CD0"/>
<path d="M26.8631 32.5176V33.9309H25.4497V32.5176H26.8631Z" fill="#F59CD0"/>
<path d="M26.8631 31.104V32.5173H25.4497V31.104H26.8631Z" fill="#F59CD0"/>
<path d="M26.8631 29.688V31.1044H25.4497V29.688H26.8631Z" fill="#F59CD0"/>
<path d="M26.8631 28.2744V29.6877H25.4497V28.2744H26.8631Z" fill="#F59CD0"/>
<path d="M26.8631 26.8618V28.2751H25.4497V26.8618H26.8631Z" fill="#F59CD0"/>
<path d="M26.8631 25.4482V26.8615H25.4497V25.4482H26.8631Z" fill="#F59CD0"/>
<path d="M26.8631 24.0347V25.4479H25.4497V24.0347H26.8631Z" fill="#F59CD0"/>
<path d="M26.8631 22.6221V24.0353H25.4497V22.6221H26.8631Z" fill="#F59CD0"/>
<path d="M28.2766 18.3789V19.7922H26.8633V18.3789H28.2766Z" fill="#F59CD0"/>
<path d="M28.2766 16.9648V18.3781H26.8633V16.9648H28.2766Z" fill="#F59CD0"/>
<path d="M28.2766 15.5527V16.966H26.8633V15.5527H28.2766Z" fill="#F59CD0"/>
<path d="M28.2766 14.1392V15.5524H26.8633V14.1392H28.2766Z" fill="#F59CD0"/>
<path d="M28.2766 12.7251V14.1384H26.8633V12.7251H28.2766Z" fill="#F59CD0"/>
<path d="M28.2766 11.313V12.7263H26.8633V11.313H28.2766Z" fill="#F59CD0"/>
<path d="M28.2766 9.89551V11.3119H26.8633V9.89551H28.2766Z" fill="#F59CD0"/>
<path d="M28.2766 8.48291V9.89618H26.8633V8.48291H28.2766Z" fill="#F59CD0"/>
<path d="M28.2766 7.06934V8.48261H26.8633V7.06934H28.2766Z" fill="#F59CD0"/>
<path d="M28.2766 5.65576V7.06904H26.8633V5.65576H28.2766Z" fill="#F59CD0"/>
<path d="M28.2766 4.24316V5.65644H26.8633V4.24316H28.2766Z" fill="#F59CD0"/>
<path d="M28.2766 2.82959V4.24286H26.8633V2.82959H28.2766Z" fill="#F59CD0"/>
<path d="M28.2766 1.41602V2.82929H26.8633V1.41602H28.2766Z" fill="black"/>
<path d="M25.45 39.5835V40.9999H24.0366V39.5835H25.45Z" fill="#BE5E99"/>
<path d="M25.45 38.1709V39.5842H24.0366V38.1709H25.45Z" fill="#BE5E99"/>
<path d="M25.45 36.7573V38.1706H24.0366V36.7573H25.45Z" fill="#EA7FC1"/>
<path d="M25.45 35.3438V36.757H24.0366V35.3438H25.45Z" fill="#F59CD0"/>
<path d="M25.45 33.9312V35.3444H24.0366V33.9312H25.45Z" fill="#F59CD0"/>
<path d="M25.45 32.5176V33.9309H24.0366V32.5176H25.45Z" fill="#F59CD0"/>
<path d="M25.45 31.104V32.5173H24.0366V31.104H25.45Z" fill="#F59CD0"/>
<path d="M25.45 29.688V31.1044H24.0366V29.688H25.45Z" fill="#F59CD0"/>
<path d="M25.45 28.2744V29.6877H24.0366V28.2744H25.45Z" fill="#F59CD0"/>
<path d="M25.45 26.8618V28.2751H24.0366V26.8618H25.45Z" fill="#F59CD0"/>
<path d="M25.45 25.4482V26.8615H24.0366V25.4482H25.45Z" fill="#F59CD0"/>
<path d="M25.45 24.0347V25.4479H24.0366V24.0347H25.45Z" fill="#F59CD0"/>
<path d="M25.45 22.6221V24.0353H24.0366V22.6221H25.45Z" fill="#F59CD0"/>
<path d="M26.8631 21.2085V22.6218H25.4497V21.2085H26.8631Z" fill="#F59CD0"/>
<path d="M26.8631 19.7925V21.2088H25.4497V19.7925H26.8631Z" fill="#F59CD0"/>
<path d="M26.8631 18.3789V19.7922H25.4497V18.3789H26.8631Z" fill="#F59CD0"/>
<path d="M26.8631 16.9648V18.3781H25.4497V16.9648H26.8631Z" fill="#F59CD0"/>
<path d="M26.8631 15.5527V16.966H25.4497V15.5527H26.8631Z" fill="#F59CD0"/>
<path d="M26.8631 14.1392V15.5524H25.4497V14.1392H26.8631Z" fill="#F59CD0"/>
<path d="M24.0369 39.5835V40.9999H22.6235V39.5835H24.0369Z" fill="#EA7FC1"/>
<path d="M24.0369 38.1709V39.5842H22.6235V38.1709H24.0369Z" fill="#EA7FC1"/>
<path d="M24.0369 36.7573V38.1706H22.6235V36.7573H24.0369Z" fill="#F59CD0"/>
<path d="M24.0369 35.3438V36.757H22.6235V35.3438H24.0369Z" fill="#F59CD0"/>
<path d="M24.0369 33.9312V35.3444H22.6235V33.9312H24.0369Z" fill="#F59CD0"/>
<path d="M24.0369 32.5176V33.9309H22.6235V32.5176H24.0369Z" fill="#F59CD0"/>
<path d="M24.0369 31.104V32.5173H22.6235V31.104H24.0369Z" fill="#F59CD0"/>
<path d="M24.0369 29.688V31.1044H22.6235V29.688H24.0369Z" fill="#F59CD0"/>
<path d="M24.0369 28.2744V29.6877H22.6235V28.2744H24.0369Z" fill="#F59CD0"/>
<path d="M24.0369 26.8618V28.2751H22.6235V26.8618H24.0369Z" fill="#F59CD0"/>
<path d="M24.0369 25.4482V26.8615H22.6235V25.4482H24.0369Z" fill="#F59CD0"/>
<path d="M24.0369 24.0347V25.4479H22.6235V24.0347H24.0369Z" fill="#F59CD0"/>
<path d="M24.0369 22.6221V24.0353H22.6235V22.6221H24.0369Z" fill="#F59CD0"/>
<path d="M26.8631 12.7251V14.1384H25.4497V12.7251H26.8631Z" fill="#F59CD0"/>
<path d="M26.8631 11.313V12.7263H25.4497V11.313H26.8631Z" fill="#F59CD0"/>
<path d="M26.8631 9.89551V11.3119H25.4497V9.89551H26.8631Z" fill="#F59CD0"/>
<path d="M26.8631 8.48291V9.89618H25.4497V8.48291H26.8631Z" fill="#F59CD0"/>
<path d="M26.8631 7.06934V8.48261H25.4497V7.06934H26.8631Z" fill="#F59CD0"/>
<path d="M26.8631 5.65576V7.06904H25.4497V5.65576H26.8631Z" fill="#F59CD0"/>
<path d="M26.8631 4.24316V5.65644H25.4497V4.24316H26.8631Z" fill="#F59CD0"/>
<path d="M26.8631 2.82959V4.24286H25.4497V2.82959H26.8631Z" fill="#F59CD0"/>
<path d="M26.8631 1.41602V2.82929H25.4497V1.41602H26.8631Z" fill="#F59CD0"/>
<path d="M26.8631 0V1.41637H25.4497V0H26.8631Z" fill="black"/>
<path d="M22.623 39.5835V40.9999H21.2065V39.5835H22.623Z" fill="#F59CD0"/>
<path d="M22.623 38.1709V39.5842H21.2065V38.1709H22.623Z" fill="#F59CD0"/>
<path d="M22.623 36.7573V38.1706H21.2065V36.7573H22.623Z" fill="#F59CD0"/>
<path d="M22.623 35.3438V36.757H21.2065V35.3438H22.623Z" fill="#F59CD0"/>
<path d="M22.623 33.9312V35.3444H21.2065V33.9312H22.623Z" fill="#F59CD0"/>
<path d="M22.623 32.5176V33.9309H21.2065V32.5176H22.623Z" fill="#F59CD0"/>
<path d="M22.623 31.104V32.5173H21.2065V31.104H22.623Z" fill="#F59CD0"/>
<path d="M22.623 29.688V31.1044H21.2065V29.688H22.623Z" fill="#F59CD0"/>
<path d="M22.623 28.2744V29.6877H21.2065V28.2744H22.623Z" fill="#F59CD0"/>
<path d="M22.623 26.8618V28.2751H21.2065V26.8618H22.623Z" fill="#F59CD0"/>
<path d="M22.623 25.4482V26.8615H21.2065V25.4482H22.623Z" fill="#F59CD0"/>
<path d="M22.623 24.0347V25.4479H21.2065V24.0347H22.623Z" fill="#F59CD0"/>
<path d="M22.623 22.6221V24.0353H21.2065V22.6221H22.623Z" fill="#F59CD0"/>
<path d="M25.45 21.2085V22.6218H24.0366V21.2085H25.45Z" fill="#F59CD0"/>
<path d="M25.45 19.7925V21.2088H24.0366V19.7925H25.45Z" fill="#F59CD0"/>
<path d="M25.45 18.3789V19.7922H24.0366V18.3789H25.45Z" fill="#F59CD0"/>
<path d="M25.45 16.9648V18.3781H24.0366V16.9648H25.45Z" fill="#F59CD0"/>
<path d="M25.45 15.5527V16.966H24.0366V15.5527H25.45Z" fill="#F59CD0"/>
<path d="M25.45 14.1392V15.5524H24.0366V14.1392H25.45Z" fill="#F59CD0"/>
<path d="M25.45 12.7251V14.1384H24.0366V12.7251H25.45Z" fill="#F59CD0"/>
<path d="M25.45 11.313V12.7263H24.0366V11.313H25.45Z" fill="#F59CD0"/>
<path d="M25.45 9.89551V11.3119H24.0366V9.89551H25.45Z" fill="#F59CD0"/>
<path d="M21.2068 39.5835V40.9999H19.7935V39.5835H21.2068Z" fill="#F59CD0"/>
<path d="M21.2068 38.1709V39.5842H19.7935V38.1709H21.2068Z" fill="#F59CD0"/>
<path d="M21.2068 36.7573V38.1706H19.7935V36.7573H21.2068Z" fill="#F59CD0"/>
<path d="M21.2068 35.3438V36.757H19.7935V35.3438H21.2068Z" fill="#F59CD0"/>
<path d="M21.2068 33.9312V35.3444H19.7935V33.9312H21.2068Z" fill="#F59CD0"/>
<path d="M21.2068 32.5176V33.9309H19.7935V32.5176H21.2068Z" fill="#F59CD0"/>
<path d="M21.2068 31.104V32.5173H19.7935V31.104H21.2068Z" fill="#F59CD0"/>
<path d="M21.2068 29.688V31.1044H19.7935V29.688H21.2068Z" fill="#F59CD0"/>
<path d="M21.2068 28.2744V29.6877H19.7935V28.2744H21.2068Z" fill="#F59CD0"/>
<path d="M21.2068 26.8618V28.2751H19.7935V26.8618H21.2068Z" fill="#F59CD0"/>
<path d="M21.2068 25.4482V26.8615H19.7935V25.4482H21.2068Z" fill="#F59CD0"/>
<path d="M21.2068 24.0347V25.4479H19.7935V24.0347H21.2068Z" fill="#F59CD0"/>
<path d="M21.2068 22.6221V24.0353H19.7935V22.6221H21.2068Z" fill="#F59CD0"/>
<path d="M25.45 8.48291V9.89618H24.0366V8.48291H25.45Z" fill="#F59CD0"/>
<path d="M25.45 7.06934V8.48261H24.0366V7.06934H25.45Z" fill="#F59CD0"/>
<path d="M25.45 5.65576V7.06904H24.0366V5.65576H25.45Z" fill="#F59CD0"/>
<path d="M25.45 4.24316V5.65644H24.0366V4.24316H25.45Z" fill="#F59CD0"/>
<path d="M25.45 2.82959V4.24286H24.0366V2.82959H25.45Z" fill="#FAF4D9"/>
<path d="M25.45 1.41602V2.82929H24.0366V1.41602H25.45Z" fill="#F59CD0"/>
<path d="M25.45 0V1.41637H24.0366V0H25.45Z" fill="black"/>
<path d="M19.7932 39.5835V40.9999H18.3799V39.5835H19.7932Z" fill="#EA7FC1"/>
<path d="M19.7932 38.1709V39.5842H18.3799V38.1709H19.7932Z" fill="#EA7FC1"/>
<path d="M19.7932 36.7573V38.1706H18.3799V36.7573H19.7932Z" fill="#F59CD0"/>
<path d="M19.7932 35.3438V36.757H18.3799V35.3438H19.7932Z" fill="#F59CD0"/>
<path d="M19.7932 33.9312V35.3444H18.3799V33.9312H19.7932Z" fill="#F59CD0"/>
<path d="M19.7932 32.5176V33.9309H18.3799V32.5176H19.7932Z" fill="#F59CD0"/>
<path d="M19.7932 31.104V32.5173H18.3799V31.104H19.7932Z" fill="#F59CD0"/>
<path d="M19.7932 29.688V31.1044H18.3799V29.688H19.7932Z" fill="#F59CD0"/>
<path d="M19.7932 28.2744V29.6877H18.3799V28.2744H19.7932Z" fill="#F59CD0"/>
<path d="M19.7932 26.8618V28.2751H18.3799V26.8618H19.7932Z" fill="#F59CD0"/>
<path d="M19.7932 25.4482V26.8615H18.3799V25.4482H19.7932Z" fill="#F59CD0"/>
<path d="M19.7932 24.0347V25.4479H18.3799V24.0347H19.7932Z" fill="#F59CD0"/>
<path d="M19.7932 22.6221V24.0353H18.3799V22.6221H19.7932Z" fill="#F59CD0"/>
<path d="M24.0369 21.2085V22.6218H22.6235V21.2085H24.0369Z" fill="#F59CD0"/>
<path d="M24.0369 19.7925V21.2088H22.6235V19.7925H24.0369Z" fill="#F59CD0"/>
<path d="M24.0369 18.3789V19.7922H22.6235V18.3789H24.0369Z" fill="#F59CD0"/>
<path d="M24.0369 16.9648V18.3781H22.6235V16.9648H24.0369Z" fill="#F59CD0"/>
<path d="M24.0369 15.5527V16.966H22.6235V15.5527H24.0369Z" fill="#F59CD0"/>
<path d="M24.0369 14.1392V15.5524H22.6235V14.1392H24.0369Z" fill="#F59CD0"/>
<path d="M24.0369 12.7251V14.1384H22.6235V12.7251H24.0369Z" fill="#F59CD0"/>
<path d="M24.0369 11.313V12.7263H22.6235V11.313H24.0369Z" fill="#F59CD0"/>
<path d="M24.0369 9.89551V11.3119H22.6235V9.89551H24.0369Z" fill="#F59CD0"/>
<path d="M24.0369 8.48291V9.89618H22.6235V8.48291H24.0369Z" fill="#F59CD0"/>
<path d="M24.0369 7.06934V8.48261H22.6235V7.06934H24.0369Z" fill="#F59CD0"/>
<path d="M24.0369 5.65576V7.06904H22.6235V5.65576H24.0369Z" fill="#F59CD0"/>
<path d="M18.3802 39.5835V40.9999H16.9668V39.5835H18.3802Z" fill="#BE5E99"/>
<path d="M18.3802 38.1709V39.5842H16.9668V38.1709H18.3802Z" fill="#BE5E99"/>
<path d="M18.3802 36.7573V38.1706H16.9668V36.7573H18.3802Z" fill="#EA7FC1"/>
<path d="M18.3802 35.3438V36.757H16.9668V35.3438H18.3802Z" fill="#F59CD0"/>
<path d="M18.3802 33.9312V35.3444H16.9668V33.9312H18.3802Z" fill="#F59CD0"/>
<path d="M18.3802 32.5176V33.9309H16.9668V32.5176H18.3802Z" fill="#F59CD0"/>
<path d="M18.3802 31.104V32.5173H16.9668V31.104H18.3802Z" fill="#F59CD0"/>
<path d="M18.3802 29.688V31.1044H16.9668V29.688H18.3802Z" fill="#F59CD0"/>
<path d="M18.3802 28.2744V29.6877H16.9668V28.2744H18.3802Z" fill="#F59CD0"/>
<path d="M18.3802 26.8618V28.2751H16.9668V26.8618H18.3802Z" fill="#F59CD0"/>
<path d="M18.3802 25.4482V26.8615H16.9668V25.4482H18.3802Z" fill="#F59CD0"/>
<path d="M18.3802 24.0347V25.4479H16.9668V24.0347H18.3802Z" fill="#F59CD0"/>
<path d="M18.3802 22.6221V24.0353H16.9668V22.6221H18.3802Z" fill="#F59CD0"/>
<path d="M24.0369 4.24316V5.65644H22.6235V4.24316H24.0369Z" fill="#F59CD0"/>
<path d="M24.0369 2.82959V4.24286H22.6235V2.82959H24.0369Z" fill="#FAF4D9"/>
<path d="M24.0369 1.41602V2.82929H22.6235V1.41602H24.0369Z" fill="#F59CD0"/>
<path d="M24.0369 0V1.41637H22.6235V0H24.0369Z" fill="black"/>
<path d="M16.9671 39.5835V40.9999H15.5537V39.5835H16.9671Z" fill="black"/>
<path d="M16.9671 38.1709V39.5842H15.5537V38.1709H16.9671Z" fill="black"/>
<path d="M16.9671 36.7573V38.1706H15.5537V36.7573H16.9671Z" fill="#BE5E99"/>
<path d="M16.9671 35.3438V36.757H15.5537V35.3438H16.9671Z" fill="#F59CD0"/>
<path d="M16.9671 33.9312V35.3444H15.5537V33.9312H16.9671Z" fill="#F59CD0"/>
<path d="M16.9671 32.5176V33.9309H15.5537V32.5176H16.9671Z" fill="#F59CD0"/>
<path d="M16.9671 31.104V32.5173H15.5537V31.104H16.9671Z" fill="#F59CD0"/>
<path d="M16.9671 29.688V31.1044H15.5537V29.688H16.9671Z" fill="#F59CD0"/>
<path d="M16.9671 28.2744V29.6877H15.5537V28.2744H16.9671Z" fill="#F59CD0"/>
<path d="M16.9671 26.8618V28.2751H15.5537V26.8618H16.9671Z" fill="#F59CD0"/>
<path d="M16.9671 25.4482V26.8615H15.5537V25.4482H16.9671Z" fill="#F59CD0"/>
<path d="M16.9671 24.0347V25.4479H15.5537V24.0347H16.9671Z" fill="#F59CD0"/>
<path d="M16.9671 22.6221V24.0353H15.5537V22.6221H16.9671Z" fill="#F59CD0"/>
<path d="M22.623 21.2085V22.6218H21.2065V21.2085H22.623Z" fill="#F59CD0"/>
<path d="M22.623 19.7925V21.2088H21.2065V19.7925H22.623Z" fill="#F59CD0"/>
<path d="M22.623 18.3789V19.7922H21.2065V18.3789H22.623Z" fill="#F59CD0"/>
<path d="M22.623 16.9648V18.3781H21.2065V16.9648H22.623Z" fill="#F59CD0"/>
<path d="M22.623 15.5527V16.966H21.2065V15.5527H22.623Z" fill="#F59CD0"/>
<path d="M22.623 14.1392V15.5524H21.2065V14.1392H22.623Z" fill="#F59CD0"/>
<path d="M22.623 12.7251V14.1384H21.2065V12.7251H22.623Z" fill="#F59CD0"/>
<path d="M22.623 11.313V12.7263H21.2065V11.313H22.623Z" fill="#F59CD0"/>
<path d="M22.623 9.89551V11.3119H21.2065V9.89551H22.623Z" fill="#F59CD0"/>
<path d="M22.623 8.48291V9.89618H21.2065V8.48291H22.623Z" fill="#F59CD0"/>
<path d="M22.623 7.06934V8.48261H21.2065V7.06934H22.623Z" fill="#F59CD0"/>
<path d="M22.623 5.65576V7.06904H21.2065V5.65576H22.623Z" fill="#F59CD0"/>
<path d="M22.623 4.24316V5.65644H21.2065V4.24316H22.623Z" fill="#F59CD0"/>
<path d="M22.623 2.82959V4.24286H21.2065V2.82959H22.623Z" fill="#FAF4D9"/>
<path d="M22.623 1.41602V2.82929H21.2065V1.41602H22.623Z" fill="#F59CD0"/>
<path d="M15.553 39.5835V40.9999H14.1396V39.5835H15.553Z" fill="black"/>
<path d="M15.553 38.1709V39.5842H14.1396V38.1709H15.553Z" fill="black"/>
<path d="M15.553 36.7573V38.1706H14.1396V36.7573H15.553Z" fill="#BE5E99"/>
<path d="M15.553 35.3438V36.757H14.1396V35.3438H15.553Z" fill="#EA7FC1"/>
<path d="M15.553 33.9312V35.3444H14.1396V33.9312H15.553Z" fill="#F59CD0"/>
<path d="M15.553 32.5176V33.9309H14.1396V32.5176H15.553Z" fill="#F59CD0"/>
<path d="M15.553 31.104V32.5173H14.1396V31.104H15.553Z" fill="#F59CD0"/>
<path d="M15.553 29.688V31.1044H14.1396V29.688H15.553Z" fill="#F59CD0"/>
<path d="M15.553 28.2744V29.6877H14.1396V28.2744H15.553Z" fill="#F59CD0"/>
<path d="M15.553 26.8618V28.2751H14.1396V26.8618H15.553Z" fill="#F59CD0"/>
<path d="M15.553 25.4482V26.8615H14.1396V25.4482H15.553Z" fill="#F59CD0"/>
<path d="M15.553 24.0347V25.4479H14.1396V24.0347H15.553Z" fill="#F59CD0"/>
<path d="M15.553 22.6221V24.0353H14.1396V22.6221H15.553Z" fill="#F59CD0"/>
<path d="M22.623 0V1.41637H21.2065V0H22.623Z" fill="black"/>
<path d="M21.2068 21.2085V22.6218H19.7935V21.2085H21.2068Z" fill="#F59CD0"/>
<path d="M21.2068 19.7925V21.2088H19.7935V19.7925H21.2068Z" fill="#F59CD0"/>
<path d="M21.2068 18.3789V19.7922H19.7935V18.3789H21.2068Z" fill="#F59CD0"/>
<path d="M21.2068 16.9648V18.3781H19.7935V16.9648H21.2068Z" fill="#F59CD0"/>
<path d="M21.2068 15.5527V16.966H19.7935V15.5527H21.2068Z" fill="#F59CD0"/>
<path d="M21.2068 14.1392V15.5524H19.7935V14.1392H21.2068Z" fill="#F59CD0"/>
<path d="M21.2068 12.7251V14.1384H19.7935V12.7251H21.2068Z" fill="#F59CD0"/>
<path d="M21.2068 11.313V12.7263H19.7935V11.313H21.2068Z" fill="#F59CD0"/>
<path d="M21.2068 9.89551V11.3119H19.7935V9.89551H21.2068Z" fill="#F59CD0"/>
<path d="M21.2068 8.48291V9.89618H19.7935V8.48291H21.2068Z" fill="#F59CD0"/>
<path d="M21.2068 7.06934V8.48261H19.7935V7.06934H21.2068Z" fill="#F59CD0"/>
<path d="M21.2068 5.65576V7.06904H19.7935V5.65576H21.2068Z" fill="#F59CD0"/>
<path d="M21.2068 4.24316V5.65644H19.7935V4.24316H21.2068Z" fill="#F59CD0"/>
<path d="M21.2068 2.82959V4.24286H19.7935V2.82959H21.2068Z" fill="#FAF4D9"/>
<path d="M21.2068 1.41602V2.82929H19.7935V1.41602H21.2068Z" fill="#F59CD0"/>
<path d="M21.2068 0V1.41637H19.7935V0H21.2068Z" fill="black"/>
<path d="M19.7932 21.2085V22.6218H18.3799V21.2085H19.7932Z" fill="#F59CD0"/>
<path d="M19.7932 19.7925V21.2088H18.3799V19.7925H19.7932Z" fill="#F59CD0"/>
<path d="M19.7932 18.3789V19.7922H18.3799V18.3789H19.7932Z" fill="#F59CD0"/>
<path d="M19.7932 16.9648V18.3781H18.3799V16.9648H19.7932Z" fill="#F59CD0"/>
<path d="M19.7932 15.5527V16.966H18.3799V15.5527H19.7932Z" fill="#F59CD0"/>
<path d="M19.7932 14.1392V15.5524H18.3799V14.1392H19.7932Z" fill="#F59CD0"/>
<path d="M19.7932 12.7251V14.1384H18.3799V12.7251H19.7932Z" fill="#F59CD0"/>
<path d="M19.7932 11.313V12.7263H18.3799V11.313H19.7932Z" fill="#F59CD0"/>
<path d="M19.7932 9.89551V11.3119H18.3799V9.89551H19.7932Z" fill="#F59CD0"/>
<path d="M19.7932 8.48291V9.89618H18.3799V8.48291H19.7932Z" fill="#F59CD0"/>
<path d="M19.7932 7.06934V8.48261H18.3799V7.06934H19.7932Z" fill="#F59CD0"/>
<path d="M19.7932 5.65576V7.06904H18.3799V5.65576H19.7932Z" fill="#F59CD0"/>
<path d="M19.7932 4.24316V5.65644H18.3799V4.24316H19.7932Z" fill="#F59CD0"/>
<path d="M19.7932 2.82959V4.24286H18.3799V2.82959H19.7932Z" fill="#FAF4D9"/>
<path d="M19.7932 1.41602V2.82929H18.3799V1.41602H19.7932Z" fill="#F59CD0"/>
<path d="M19.7932 0V1.41637H18.3799V0H19.7932Z" fill="black"/>
<path d="M18.3802 21.2085V22.6218H16.9668V21.2085H18.3802Z" fill="#F59CD0"/>
<path d="M18.3802 19.7925V21.2088H16.9668V19.7925H18.3802Z" fill="#F59CD0"/>
<path d="M18.3802 18.3789V19.7922H16.9668V18.3789H18.3802Z" fill="#F59CD0"/>
<path d="M18.3802 16.9648V18.3781H16.9668V16.9648H18.3802Z" fill="#F59CD0"/>
<path d="M18.3802 15.5527V16.966H16.9668V15.5527H18.3802Z" fill="#F59CD0"/>
<path d="M18.3802 14.1392V15.5524H16.9668V14.1392H18.3802Z" fill="#F59CD0"/>
<path d="M18.3802 12.7251V14.1384H16.9668V12.7251H18.3802Z" fill="#F59CD0"/>
<path d="M18.3802 11.313V12.7263H16.9668V11.313H18.3802Z" fill="#F59CD0"/>
<path d="M18.3802 9.89551V11.3119H16.9668V9.89551H18.3802Z" fill="#F59CD0"/>
<path d="M18.3802 8.48291V9.89618H16.9668V8.48291H18.3802Z" fill="#F59CD0"/>
<path d="M18.3802 7.06934V8.48261H16.9668V7.06934H18.3802Z" fill="#F59CD0"/>
<path d="M18.3802 5.65576V7.06904H16.9668V5.65576H18.3802Z" fill="#F59CD0"/>
<path d="M18.3802 4.24316V5.65644H16.9668V4.24316H18.3802Z" fill="#F59CD0"/>
<path d="M18.3802 2.82959V4.24286H16.9668V2.82959H18.3802Z" fill="#FAF4D9"/>
<path d="M18.3802 1.41602V2.82929H16.9668V1.41602H18.3802Z" fill="#F59CD0"/>
<path d="M18.3802 0V1.41637H16.9668V0H18.3802Z" fill="black"/>
<path d="M16.9671 21.2085V22.6218H15.5537V21.2085H16.9671Z" fill="#F59CD0"/>
<path d="M16.9671 19.7925V21.2088H15.5537V19.7925H16.9671Z" fill="#F59CD0"/>
<path d="M16.9671 18.3789V19.7922H15.5537V18.3789H16.9671Z" fill="#F59CD0"/>
<path d="M16.9671 16.9648V18.3781H15.5537V16.9648H16.9671Z" fill="#F59CD0"/>
<path d="M16.9671 15.5527V16.966H15.5537V15.5527H16.9671Z" fill="#F59CD0"/>
<path d="M16.9671 14.1392V15.5524H15.5537V14.1392H16.9671Z" fill="#F59CD0"/>
<path d="M16.9671 12.7251V14.1384H15.5537V12.7251H16.9671Z" fill="#F59CD0"/>
<path d="M16.9671 11.313V12.7263H15.5537V11.313H16.9671Z" fill="#F59CD0"/>
<path d="M16.9671 9.89551V11.3119H15.5537V9.89551H16.9671Z" fill="#F59CD0"/>
<path d="M16.9671 8.48291V9.89618H15.5537V8.48291H16.9671Z" fill="#F59CD0"/>
<path d="M16.9671 7.06934V8.48261H15.5537V7.06934H16.9671Z" fill="#F59CD0"/>
<path d="M16.9671 5.65576V7.06904H15.5537V5.65576H16.9671Z" fill="#F59CD0"/>
<path d="M16.9671 4.24316V5.65644H15.5537V4.24316H16.9671Z" fill="#F59CD0"/>
<path d="M16.9671 2.82959V4.24286H15.5537V2.82959H16.9671Z" fill="#FAF4D9"/>
<path d="M16.9671 1.41602V2.82929H15.5537V1.41602H16.9671Z" fill="#F59CD0"/>
<path d="M16.9671 0V1.41637H15.5537V0H16.9671Z" fill="black"/>
<path d="M15.553 21.2085V22.6218H14.1396V21.2085H15.553Z" fill="#F59CD0"/>
<path d="M15.553 19.7925V21.2088H14.1396V19.7925H15.553Z" fill="#F59CD0"/>
<path d="M15.553 18.3789V19.7922H14.1396V18.3789H15.553Z" fill="#F59CD0"/>
<path d="M15.553 16.9648V18.3781H14.1396V16.9648H15.553Z" fill="#F59CD0"/>
<path d="M15.553 15.5527V16.966H14.1396V15.5527H15.553Z" fill="#F59CD0"/>
<path d="M15.553 14.1392V15.5524H14.1396V14.1392H15.553Z" fill="#F59CD0"/>
<path d="M15.553 12.7251V14.1384H14.1396V12.7251H15.553Z" fill="#F59CD0"/>
<path d="M15.553 11.313V12.7263H14.1396V11.313H15.553Z" fill="#F59CD0"/>
<path d="M15.553 9.89551V11.3119H14.1396V9.89551H15.553Z" fill="#F59CD0"/>
<path d="M15.553 8.48291V9.89618H14.1396V8.48291H15.553Z" fill="#F59CD0"/>
<path d="M15.553 7.06934V8.48261H14.1396V7.06934H15.553Z" fill="#F59CD0"/>
<path d="M15.553 5.65576V7.06904H14.1396V5.65576H15.553Z" fill="#F59CD0"/>
<path d="M15.553 4.24316V5.65644H14.1396V4.24316H15.553Z" fill="#F59CD0"/>
<path d="M15.553 2.82959V4.24286H14.1396V2.82959H15.553Z" fill="#FAF4D9"/>
<path d="M15.553 1.41602V2.82929H14.1396V1.41602H15.553Z" fill="#F59CD0"/>
<path d="M15.553 0V1.41637H14.1396V0H15.553Z" fill="black"/>
<path d="M14.1399 38.1709V39.5842H12.7266V38.1709H14.1399Z" fill="black"/>
<path d="M14.1399 36.7573V38.1706H12.7266V36.7573H14.1399Z" fill="#BE5E99"/>
<path d="M14.1399 35.3438V36.757H12.7266V35.3438H14.1399Z" fill="#EA7FC1"/>
<path d="M14.1399 33.9312V35.3444H12.7266V33.9312H14.1399Z" fill="#F59CD0"/>
<path d="M14.1399 32.5176V33.9309H12.7266V32.5176H14.1399Z" fill="#F59CD0"/>
<path d="M14.1399 31.104V32.5173H12.7266V31.104H14.1399Z" fill="#F59CD0"/>
<path d="M14.1399 29.688V31.1044H12.7266V29.688H14.1399Z" fill="#F59CD0"/>
<path d="M14.1399 28.2744V29.6877H12.7266V28.2744H14.1399Z" fill="#F59CD0"/>
<path d="M14.1399 26.8618V28.2751H12.7266V26.8618H14.1399Z" fill="#F59CD0"/>
<path d="M14.1399 25.4482V26.8615H12.7266V25.4482H14.1399Z" fill="#F59CD0"/>
<path d="M14.1399 24.0347V25.4479H12.7266V24.0347H14.1399Z" fill="#F59CD0"/>
<path d="M14.1399 22.6221V24.0353H12.7266V22.6221H14.1399Z" fill="#F59CD0"/>
<path d="M14.1399 21.2085V22.6218H12.7266V21.2085H14.1399Z" fill="#F59CD0"/>
<path d="M14.1399 19.7925V21.2088H12.7266V19.7925H14.1399Z" fill="#F59CD0"/>
<path d="M14.1399 18.3789V19.7922H12.7266V18.3789H14.1399Z" fill="#F59CD0"/>
<path d="M14.1399 16.9648V18.3781H12.7266V16.9648H14.1399Z" fill="#F59CD0"/>
<path d="M14.1399 15.5527V16.966H12.7266V15.5527H14.1399Z" fill="#F59CD0"/>
<path d="M14.1399 14.1392V15.5524H12.7266V14.1392H14.1399Z" fill="#F59CD0"/>
<path d="M14.1399 12.7251V14.1384H12.7266V12.7251H14.1399Z" fill="#F59CD0"/>
<path d="M14.1399 11.313V12.7263H12.7266V11.313H14.1399Z" fill="#F59CD0"/>
<path d="M14.1399 9.89551V11.3119H12.7266V9.89551H14.1399Z" fill="#F59CD0"/>
<path d="M14.1399 8.48291V9.89618H12.7266V8.48291H14.1399Z" fill="#F59CD0"/>
<path d="M14.1399 7.06934V8.48261H12.7266V7.06934H14.1399Z" fill="#F59CD0"/>
<path d="M14.1399 5.65576V7.06904H12.7266V5.65576H14.1399Z" fill="#F59CD0"/>
<path d="M14.1399 4.24316V5.65644H12.7266V4.24316H14.1399Z" fill="#FAF4D9"/>
<path d="M14.1399 2.82959V4.24286H12.7266V2.82959H14.1399Z" fill="#F59CD0"/>
<path d="M14.1399 1.41602V2.82929H12.7266V1.41602H14.1399Z" fill="#F59CD0"/>
<path d="M14.1399 0V1.41637H12.7266V0H14.1399Z" fill="black"/>
<path d="M12.7265 38.1709V39.5842H11.3101V38.1709H12.7265Z" fill="black"/>
<path d="M12.7265 36.7573V38.1706H11.3101V36.7573H12.7265Z" fill="black"/>
<path d="M12.7265 35.3438V36.757H11.3101V35.3438H12.7265Z" fill="#BE5E99"/>
<path d="M12.7265 33.9312V35.3444H11.3101V33.9312H12.7265Z" fill="#EA7FC1"/>
<path d="M12.7265 32.5176V33.9309H11.3101V32.5176H12.7265Z" fill="#F59CD0"/>
<path d="M12.7265 31.104V32.5173H11.3101V31.104H12.7265Z" fill="#F59CD0"/>
<path d="M12.7265 29.688V31.1044H11.3101V29.688H12.7265Z" fill="#F59CD0"/>
<path d="M12.7265 28.2744V29.6877H11.3101V28.2744H12.7265Z" fill="#F59CD0"/>
<path d="M12.7265 26.8618V28.2751H11.3101V26.8618H12.7265Z" fill="#F59CD0"/>
<path d="M12.7265 25.4482V26.8615H11.3101V25.4482H12.7265Z" fill="#F59CD0"/>
<path d="M12.7265 24.0347V25.4479H11.3101V24.0347H12.7265Z" fill="#F59CD0"/>
<path d="M12.7265 22.6221V24.0353H11.3101V22.6221H12.7265Z" fill="#F59CD0"/>
<path d="M12.7265 21.2085V22.6218H11.3101V21.2085H12.7265Z" fill="#F59CD0"/>
<path d="M12.7265 19.7925V21.2088H11.3101V19.7925H12.7265Z" fill="#F59CD0"/>
<path d="M12.7265 18.3789V19.7922H11.3101V18.3789H12.7265Z" fill="#F59CD0"/>
<path d="M12.7265 16.9648V18.3781H11.3101V16.9648H12.7265Z" fill="#F59CD0"/>
<path d="M12.7265 15.5527V16.966H11.3101V15.5527H12.7265Z" fill="#F59CD0"/>
<path d="M12.7265 14.1392V15.5524H11.3101V14.1392H12.7265Z" fill="#F59CD0"/>
<path d="M12.7265 12.7251V14.1384H11.3101V12.7251H12.7265Z" fill="#F59CD0"/>
<path d="M12.7265 11.313V12.7263H11.3101V11.313H12.7265Z" fill="#F59CD0"/>
<path d="M12.7265 9.89551V11.3119H11.3101V9.89551H12.7265Z" fill="#F59CD0"/>
<path d="M12.7265 8.48291V9.89618H11.3101V8.48291H12.7265Z" fill="#F59CD0"/>
<path d="M12.7265 7.06934V8.48261H11.3101V7.06934H12.7265Z" fill="#F59CD0"/>
<path d="M12.7265 5.65576V7.06904H11.3101V5.65576H12.7265Z" fill="#F59CD0"/>
<path d="M12.7265 4.24316V5.65644H11.3101V4.24316H12.7265Z" fill="#FAF4D9"/>
<path d="M12.7265 2.82959V4.24286H11.3101V2.82959H12.7265Z" fill="#F59CD0"/>
<path d="M12.7265 1.41602V2.82929H11.3101V1.41602H12.7265Z" fill="black"/>
<path d="M11.3103 36.7573V38.1706H9.89697V36.7573H11.3103Z" fill="black"/>
<path d="M11.3103 35.3438V36.757H9.89697V35.3438H11.3103Z" fill="#BE5E99"/>
<path d="M11.3103 33.9312V35.3444H9.89697V33.9312H11.3103Z" fill="#EA7FC1"/>
<path d="M11.3103 32.5176V33.9309H9.89697V32.5176H11.3103Z" fill="#F59CD0"/>
<path d="M11.3103 31.104V32.5173H9.89697V31.104H11.3103Z" fill="#F59CD0"/>
<path d="M11.3103 29.688V31.1044H9.89697V29.688H11.3103Z" fill="#F59CD0"/>
<path d="M11.3103 28.2744V29.6877H9.89697V28.2744H11.3103Z" fill="#F59CD0"/>
<path d="M11.3103 26.8618V28.2751H9.89697V26.8618H11.3103Z" fill="#F59CD0"/>
<path d="M11.3103 25.4482V26.8615H9.89697V25.4482H11.3103Z" fill="#F59CD0"/>
<path d="M11.3103 24.0347V25.4479H9.89697V24.0347H11.3103Z" fill="#F59CD0"/>
<path d="M11.3103 22.6221V24.0353H9.89697V22.6221H11.3103Z" fill="#F59CD0"/>
<path d="M11.3103 21.2085V22.6218H9.89697V21.2085H11.3103Z" fill="#F59CD0"/>
<path d="M11.3103 19.7925V21.2088H9.89697V19.7925H11.3103Z" fill="#F59CD0"/>
<path d="M11.3103 18.3789V19.7922H9.89697V18.3789H11.3103Z" fill="#F59CD0"/>
<path d="M11.3103 16.9648V18.3781H9.89697V16.9648H11.3103Z" fill="#F59CD0"/>
<path d="M11.3103 15.5527V16.966H9.89697V15.5527H11.3103Z" fill="#F59CD0"/>
<path d="M11.3103 14.1392V15.5524H9.89697V14.1392H11.3103Z" fill="#F59CD0"/>
<path d="M11.3103 12.7251V14.1384H9.89697V12.7251H11.3103Z" fill="#F59CD0"/>
<path d="M11.3103 11.313V12.7263H9.89697V11.313H11.3103Z" fill="#F59CD0"/>
<path d="M11.3103 9.89551V11.3119H9.89697V9.89551H11.3103Z" fill="#F59CD0"/>
<path d="M11.3103 8.48291V9.89618H9.89697V8.48291H11.3103Z" fill="#F59CD0"/>
<path d="M11.3103 7.06934V8.48261H9.89697V7.06934H11.3103Z" fill="#F59CD0"/>
<path d="M11.3103 5.65576V7.06904H9.89697V5.65576H11.3103Z" fill="#FAF4D9"/>
<path d="M11.3103 4.24316V5.65644H9.89697V4.24316H11.3103Z" fill="#F59CD0"/>
<path d="M11.3103 2.82959V4.24286H9.89697V2.82959H11.3103Z" fill="#F59CD0"/>
<path d="M11.3103 1.41602V2.82929H9.89697V1.41602H11.3103Z" fill="black"/>
<path d="M9.89676 36.7573V38.1706H8.4834V36.7573H9.89676Z" fill="black"/>
<path d="M9.89676 35.3438V36.757H8.4834V35.3438H9.89676Z" fill="black"/>
<path d="M9.89676 33.9312V35.3444H8.4834V33.9312H9.89676Z" fill="#BE5E99"/>
<path d="M9.89676 32.5176V33.9309H8.4834V32.5176H9.89676Z" fill="#EA7FC1"/>
<path d="M9.89676 31.104V32.5173H8.4834V31.104H9.89676Z" fill="#F59CD0"/>
<path d="M9.89676 29.688V31.1044H8.4834V29.688H9.89676Z" fill="#F59CD0"/>
<path d="M9.89676 28.2744V29.6877H8.4834V28.2744H9.89676Z" fill="#F59CD0"/>
<path d="M9.89676 26.8618V28.2751H8.4834V26.8618H9.89676Z" fill="#F59CD0"/>
<path d="M9.89676 25.4482V26.8615H8.4834V25.4482H9.89676Z" fill="#F59CD0"/>
<path d="M9.89676 24.0347V25.4479H8.4834V24.0347H9.89676Z" fill="#F59CD0"/>
<path d="M9.89676 22.6221V24.0353H8.4834V22.6221H9.89676Z" fill="#F59CD0"/>
<path d="M9.89676 21.2085V22.6218H8.4834V21.2085H9.89676Z" fill="#F59CD0"/>
<path d="M9.89676 19.7925V21.2088H8.4834V19.7925H9.89676Z" fill="#F59CD0"/>
<path d="M9.89676 18.3789V19.7922H8.4834V18.3789H9.89676Z" fill="#F59CD0"/>
<path d="M9.89676 16.9648V18.3781H8.4834V16.9648H9.89676Z" fill="#F59CD0"/>
<path d="M9.89676 15.5527V16.966H8.4834V15.5527H9.89676Z" fill="#F59CD0"/>
<path d="M9.89676 14.1392V15.5524H8.4834V14.1392H9.89676Z" fill="#F59CD0"/>
<path d="M9.89676 12.7251V14.1384H8.4834V12.7251H9.89676Z" fill="#F59CD0"/>
<path d="M9.89676 11.313V12.7263H8.4834V11.313H9.89676Z" fill="#F59CD0"/>
<path d="M9.89676 9.89551V11.3119H8.4834V9.89551H9.89676Z" fill="#F59CD0"/>
<path d="M9.89676 8.48291V9.89618H8.4834V8.48291H9.89676Z" fill="#F59CD0"/>
<path d="M9.89676 7.06934V8.48261H8.4834V7.06934H9.89676Z" fill="#F59CD0"/>
<path d="M9.89676 5.65576V7.06904H8.4834V5.65576H9.89676Z" fill="#FAF4D9"/>
<path d="M9.89676 4.24316V5.65644H8.4834V4.24316H9.89676Z" fill="#F59CD0"/>
<path d="M9.89676 2.82959V4.24286H8.4834V2.82959H9.89676Z" fill="black"/>
<path d="M8.48318 35.3438V36.757H7.06982V35.3438H8.48318Z" fill="black"/>
<path d="M8.48318 33.9312V35.3444H7.06982V33.9312H8.48318Z" fill="#BE5E99"/>
<path d="M8.48318 32.5176V33.9309H7.06982V32.5176H8.48318Z" fill="#EA7FC1"/>
<path d="M8.48318 31.104V32.5173H7.06982V31.104H8.48318Z" fill="#F59CD0"/>
<path d="M8.48318 29.688V31.1044H7.06982V29.688H8.48318Z" fill="#F59CD0"/>
<path d="M8.48318 28.2744V29.6877H7.06982V28.2744H8.48318Z" fill="#F59CD0"/>
<path d="M8.48318 26.8618V28.2751H7.06982V26.8618H8.48318Z" fill="#F59CD0"/>
<path d="M8.48318 25.4482V26.8615H7.06982V25.4482H8.48318Z" fill="#F59CD0"/>
<path d="M8.48318 24.0347V25.4479H7.06982V24.0347H8.48318Z" fill="#F59CD0"/>
<path d="M8.48318 22.6221V24.0353H7.06982V22.6221H8.48318Z" fill="#F59CD0"/>
<path d="M8.48318 21.2085V22.6218H7.06982V21.2085H8.48318Z" fill="#F59CD0"/>
<path d="M8.48318 19.7925V21.2088H7.06982V19.7925H8.48318Z" fill="#F59CD0"/>
<path d="M8.48318 18.3789V19.7922H7.06982V18.3789H8.48318Z" fill="#F59CD0"/>
<path d="M8.48318 16.9648V18.3781H7.06982V16.9648H8.48318Z" fill="#F59CD0"/>
<path d="M8.48318 15.5527V16.966H7.06982V15.5527H8.48318Z" fill="#F59CD0"/>
<path d="M8.48318 14.1392V15.5524H7.06982V14.1392H8.48318Z" fill="#F59CD0"/>
<path d="M8.48318 12.7251V14.1384H7.06982V12.7251H8.48318Z" fill="#F59CD0"/>
<path d="M8.48318 11.313V12.7263H7.06982V11.313H8.48318Z" fill="#F59CD0"/>
<path d="M8.48318 9.89551V11.3119H7.06982V9.89551H8.48318Z" fill="#F59CD0"/>
<path d="M8.48318 8.48291V9.89618H7.06982V8.48291H8.48318Z" fill="#F59CD0"/>
<path d="M8.48318 7.06934V8.48261H7.06982V7.06934H8.48318Z" fill="#FAF4D9"/>
<path d="M8.48318 5.65576V7.06904H7.06982V5.65576H8.48318Z" fill="#F59CD0"/>
<path d="M8.48318 4.24316V5.65644H7.06982V4.24316H8.48318Z" fill="#F59CD0"/>
<path d="M8.48318 2.82959V4.24286H7.06982V2.82959H8.48318Z" fill="black"/>
<path d="M7.0701 33.9312V35.3444H5.65674V33.9312H7.0701Z" fill="black"/>
<path d="M7.0701 32.5176V33.9309H5.65674V32.5176H7.0701Z" fill="#BE5E99"/>
<path d="M7.0701 31.104V32.5173H5.65674V31.104H7.0701Z" fill="#EA7FC1"/>
<path d="M7.0701 29.688V31.1044H5.65674V29.688H7.0701Z" fill="#F59CD0"/>
<path d="M7.0701 28.2744V29.6877H5.65674V28.2744H7.0701Z" fill="#F59CD0"/>
<path d="M7.0701 26.8618V28.2751H5.65674V26.8618H7.0701Z" fill="#F59CD0"/>
<path d="M7.0701 25.4482V26.8615H5.65674V25.4482H7.0701Z" fill="#F59CD0"/>
<path d="M7.0701 24.0347V25.4479H5.65674V24.0347H7.0701Z" fill="#F59CD0"/>
<path d="M7.0701 22.6221V24.0353H5.65674V22.6221H7.0701Z" fill="#F59CD0"/>
<path d="M7.0701 21.2085V22.6218H5.65674V21.2085H7.0701Z" fill="#F59CD0"/>
<path d="M7.0701 19.7925V21.2088H5.65674V19.7925H7.0701Z" fill="#F59CD0"/>
<path d="M7.0701 18.3789V19.7922H5.65674V18.3789H7.0701Z" fill="#F59CD0"/>
<path d="M7.0701 16.9648V18.3781H5.65674V16.9648H7.0701Z" fill="#F59CD0"/>
<path d="M7.0701 15.5527V16.966H5.65674V15.5527H7.0701Z" fill="#F59CD0"/>
<path d="M7.0701 14.1392V15.5524H5.65674V14.1392H7.0701Z" fill="#F59CD0"/>
<path d="M7.0701 12.7251V14.1384H5.65674V12.7251H7.0701Z" fill="#F59CD0"/>
<path d="M7.0701 11.313V12.7263H5.65674V11.313H7.0701Z" fill="#F59CD0"/>
<path d="M7.0701 9.89551V11.3119H5.65674V9.89551H7.0701Z" fill="#FAF4D9"/>
<path d="M7.0701 8.48291V9.89618H5.65674V8.48291H7.0701Z" fill="#FAF4D9"/>
<path d="M7.0701 7.06934V8.48261H5.65674V7.06934H7.0701Z" fill="#F59CD0"/>
<path d="M7.0701 5.65576V7.06904H5.65674V5.65576H7.0701Z" fill="#F59CD0"/>
<path d="M7.0701 4.24316V5.65644H5.65674V4.24316H7.0701Z" fill="black"/>
<path d="M5.65701 32.5176V33.9309H4.24365V32.5176H5.65701Z" fill="black"/>
<path d="M5.65701 31.104V32.5173H4.24365V31.104H5.65701Z" fill="#BE5E99"/>
<path d="M5.65701 29.688V31.1044H4.24365V29.688H5.65701Z" fill="#EA7FC1"/>
<path d="M5.65701 28.2744V29.6877H4.24365V28.2744H5.65701Z" fill="#EA7FC1"/>
<path d="M5.65701 26.8618V28.2751H4.24365V26.8618H5.65701Z" fill="#F59CD0"/>
<path d="M5.65701 25.4482V26.8615H4.24365V25.4482H5.65701Z" fill="#F59CD0"/>
<path d="M5.65701 24.0347V25.4479H4.24365V24.0347H5.65701Z" fill="#F59CD0"/>
<path d="M5.65701 22.6221V24.0353H4.24365V22.6221H5.65701Z" fill="#F59CD0"/>
<path d="M5.65701 21.2085V22.6218H4.24365V21.2085H5.65701Z" fill="#F59CD0"/>
<path d="M5.65701 19.7925V21.2088H4.24365V19.7925H5.65701Z" fill="#F59CD0"/>
<path d="M5.65701 18.3789V19.7922H4.24365V18.3789H5.65701Z" fill="#F59CD0"/>
<path d="M5.65701 16.9648V18.3781H4.24365V16.9648H5.65701Z" fill="#F59CD0"/>
<path d="M5.65701 15.5527V16.966H4.24365V15.5527H5.65701Z" fill="#F59CD0"/>
<path d="M5.65701 14.1392V15.5524H4.24365V14.1392H5.65701Z" fill="#F59CD0"/>
<path d="M5.65701 12.7251V14.1384H4.24365V12.7251H5.65701Z" fill="#FAF4D9"/>
<path d="M5.65701 11.313V12.7263H4.24365V11.313H5.65701Z" fill="#FAF4D9"/>
<path d="M5.65701 9.89551V11.3119H4.24365V9.89551H5.65701Z" fill="#F59CD0"/>
<path d="M5.65701 8.48291V9.89618H4.24365V8.48291H5.65701Z" fill="#F59CD0"/>
<path d="M5.65701 7.06934V8.48261H4.24365V7.06934H5.65701Z" fill="#F59CD0"/>
<path d="M5.65701 5.65576V7.06904H4.24365V5.65576H5.65701Z" fill="black"/>
<path d="M4.24295 31.104V32.5173H2.82959V31.104H4.24295Z" fill="black"/>
<path d="M4.24295 29.688V31.1044H2.82959V29.688H4.24295Z" fill="black"/>
<path d="M4.24295 28.2744V29.6877H2.82959V28.2744H4.24295Z" fill="#BE5E99"/>
<path d="M4.24295 26.8618V28.2751H2.82959V26.8618H4.24295Z" fill="#EA7FC1"/>
<path d="M4.24295 25.4482V26.8615H2.82959V25.4482H4.24295Z" fill="#F59CD0"/>
<path d="M4.24295 24.0347V25.4479H2.82959V24.0347H4.24295Z" fill="#FAF4D9"/>
<path d="M4.24295 22.6221V24.0353H2.82959V22.6221H4.24295Z" fill="#FAF4D9"/>
<path d="M4.24295 21.2085V22.6218H2.82959V21.2085H4.24295Z" fill="#FAF4D9"/>
<path d="M4.24295 19.7925V21.2088H2.82959V19.7925H4.24295Z" fill="#FAF4D9"/>
<path d="M4.24295 18.3789V19.7922H2.82959V18.3789H4.24295Z" fill="#FAF4D9"/>
<path d="M4.24295 16.9648V18.3781H2.82959V16.9648H4.24295Z" fill="#FAF4D9"/>
<path d="M4.24295 15.5527V16.966H2.82959V15.5527H4.24295Z" fill="#FAF4D9"/>
<path d="M4.24295 14.1392V15.5524H2.82959V14.1392H4.24295Z" fill="#FAF4D9"/>
<path d="M4.24295 12.7251V14.1384H2.82959V12.7251H4.24295Z" fill="#F59CD0"/>
<path d="M4.24295 11.313V12.7263H2.82959V11.313H4.24295Z" fill="#F59CD0"/>
<path d="M4.24295 9.89551V11.3119H2.82959V9.89551H4.24295Z" fill="#F59CD0"/>
<path d="M4.24295 8.48291V9.89618H2.82959V8.48291H4.24295Z" fill="black"/>
<path d="M4.24295 7.06934V8.48261H2.82959V7.06934H4.24295Z" fill="black"/>
<path d="M2.83003 28.2744V29.6877H1.41357V28.2744H2.83003Z" fill="black"/>
<path d="M2.83003 26.8618V28.2751H1.41357V26.8618H2.83003Z" fill="black"/>
<path d="M2.83003 25.4482V26.8615H1.41357V25.4482H2.83003Z" fill="#EA7FC1"/>
<path d="M2.83003 24.0347V25.4479H1.41357V24.0347H2.83003Z" fill="#F59CD0"/>
<path d="M2.83003 22.6221V24.0353H1.41357V22.6221H2.83003Z" fill="#EA7FC1"/>
<path d="M2.83003 21.2085V22.6218H1.41357V21.2085H2.83003Z" fill="#F59CD0"/>
<path d="M2.83003 19.7925V21.2088H1.41357V19.7925H2.83003Z" fill="#F59CD0"/>
<path d="M2.83003 18.3789V19.7922H1.41357V18.3789H2.83003Z" fill="#F59CD0"/>
<path d="M2.83003 16.9648V18.3781H1.41357V16.9648H2.83003Z" fill="#F59CD0"/>
<path d="M2.83003 15.5527V16.966H1.41357V15.5527H2.83003Z" fill="#F59CD0"/>
<path d="M2.83003 14.1392V15.5524H1.41357V14.1392H2.83003Z" fill="#F59CD0"/>
<path d="M2.83003 12.7251V14.1384H1.41357V12.7251H2.83003Z" fill="#F59CD0"/>
<path d="M2.83003 11.313V12.7263H1.41357V11.313H2.83003Z" fill="black"/>
<path d="M2.83003 9.89551V11.3119H1.41357V9.89551H2.83003Z" fill="black"/>
<path d="M1.41336 25.4482V26.8615H0V25.4482H1.41336Z" fill="black"/>
<path d="M1.41336 24.0347V25.4479H0V24.0347H1.41336Z" fill="black"/>
<path d="M1.41336 22.6221V24.0353H0V22.6221H1.41336Z" fill="black"/>
<path d="M1.41336 21.2085V22.6218H0V21.2085H1.41336Z" fill="black"/>
<path d="M1.41336 19.7925V21.2088H0V19.7925H1.41336Z" fill="black"/>
<path d="M1.41336 18.3789V19.7922H0V18.3789H1.41336Z" fill="black"/>
<path d="M1.41336 16.9648V18.3781H0V16.9648H1.41336Z" fill="black"/>
<path d="M1.41336 15.5527V16.966H0V15.5527H1.41336Z" fill="black"/>
<path d="M1.41336 14.1392V15.5524H0V14.1392H1.41336Z" fill="black"/>
<path d="M1.41336 12.7251V14.1384H0V12.7251H1.41336Z" fill="black"/>
<path d="M26.8631 42.4126V43.8259H25.4497V42.4126H26.8631Z" fill="black"/>
<path d="M26.8631 41V42.4133H25.4497V41H26.8631Z" fill="black"/>
<path d="M25.45 45.2397V46.653H24.0366V45.2397H25.45Z" fill="black"/>
<path d="M25.45 43.8262V45.2394H24.0366V43.8262H25.45Z" fill="black"/>
<path d="M25.45 42.4126V43.8259H24.0366V42.4126H25.45Z" fill="black"/>
<path d="M25.45 41V42.4133H24.0366V41H25.45Z" fill="black"/>
<path d="M24.0369 48.0659V49.4823H22.6235V48.0659H24.0369Z" fill="black"/>
<path d="M24.0369 46.6523V48.0656H22.6235V46.6523H24.0369Z" fill="black"/>
<path d="M24.0369 45.2397V46.653H22.6235V45.2397H24.0369Z" fill="black"/>
<path d="M24.0369 43.8262V45.2394H22.6235V43.8262H24.0369Z" fill="black"/>
<path d="M24.0369 42.4126V43.8259H22.6235V42.4126H24.0369Z" fill="#F59CD0"/>
<path d="M24.0369 41V42.4133H22.6235V41H24.0369Z" fill="#F59CD0"/>
<path d="M22.623 49.4819V50.8952H21.2065V49.4819H22.623Z" fill="black"/>
<path d="M22.623 48.0659V49.4823H21.2065V48.0659H22.623Z" fill="black"/>
<path d="M22.623 46.6523V48.0656H21.2065V46.6523H22.623Z" fill="#F59CD0"/>
<path d="M22.623 45.2397V46.653H21.2065V45.2397H22.623Z" fill="#F59CD0"/>
<path d="M22.623 43.8262V45.2394H21.2065V43.8262H22.623Z" fill="#F59CD0"/>
<path d="M22.623 42.4126V43.8259H21.2065V42.4126H22.623Z" fill="#F59CD0"/>
<path d="M22.623 41V42.4133H21.2065V41H22.623Z" fill="#F59CD0"/>
<path d="M21.2068 49.4819V50.8952H19.7935V49.4819H21.2068Z" fill="black"/>
<path d="M21.2068 48.0659V49.4823H19.7935V48.0659H21.2068Z" fill="black"/>
<path d="M21.2068 46.6523V48.0656H19.7935V46.6523H21.2068Z" fill="#F59CD0"/>
<path d="M21.2068 45.2397V46.653H19.7935V45.2397H21.2068Z" fill="#F59CD0"/>
<path d="M21.2068 43.8262V45.2394H19.7935V43.8262H21.2068Z" fill="#F59CD0"/>
<path d="M21.2068 42.4126V43.8259H19.7935V42.4126H21.2068Z" fill="#F59CD0"/>
<path d="M21.2068 41V42.4133H19.7935V41H21.2068Z" fill="#F59CD0"/>
<path d="M19.7932 48.0659V49.4823H18.3799V48.0659H19.7932Z" fill="black"/>
<path d="M19.7932 46.6523V48.0656H18.3799V46.6523H19.7932Z" fill="black"/>
<path d="M19.7932 45.2397V46.653H18.3799V45.2397H19.7932Z" fill="black"/>
<path d="M19.7932 43.8262V45.2394H18.3799V43.8262H19.7932Z" fill="black"/>
<path d="M19.7932 42.4126V43.8259H18.3799V42.4126H19.7932Z" fill="#F59CD0"/>
<path d="M19.7932 41V42.4133H18.3799V41H19.7932Z" fill="#F59CD0"/>
<path d="M18.3802 45.2397V46.653H16.9668V45.2397H18.3802Z" fill="black"/>
<path d="M18.3802 43.8262V45.2394H16.9668V43.8262H18.3802Z" fill="black"/>
<path d="M18.3802 42.4126V43.8259H16.9668V42.4126H18.3802Z" fill="black"/>
<path d="M18.3802 41V42.4133H16.9668V41H18.3802Z" fill="black"/>
<path d="M16.9671 42.4126V43.8259H15.5537V42.4126H16.9671Z" fill="black"/>
<path d="M16.9671 41V42.4133H15.5537V41H16.9671Z" fill="black"/>
<path d="M20 8C15 8 10 8.625 10 13V24.875C10 27.2875 11.9625 29.25 14.375 29.25L12.5 31.125V31.75H15.2875L17.7875 29.25H22.5L25 31.75H27.5V31.125L25.625 29.25C28.0375 29.25 30 27.2875 30 24.875V13C30 8.625 25.525 8 20 8ZM14.375 26.75C13.3375 26.75 12.5 25.9125 12.5 24.875C12.5 23.8375 13.3375 23 14.375 23C15.4125 23 16.25 23.8375 16.25 24.875C16.25 25.9125 15.4125 26.75 14.375 26.75ZM18.75 18H12.5V13H18.75V18ZM21.25 18V13H27.5V18H21.25ZM25.625 26.75C24.5875 26.75 23.75 25.9125 23.75 24.875C23.75 23.8375 24.5875 23 25.625 23C26.6625 23 27.5 23.8375 27.5 24.875C27.5 25.9125 26.6625 26.75 25.625 26.75Z" fill="white"/>
</svg>
