<svg width="30" height="20" viewBox="0 0 30 20" fill="none" xmlns="http://www.w3.org/2000/svg">
<path d="M6.25 20C4.47917 20 2.995 19.4012 1.7975 18.2038C0.6 17.0063 0.000833333 15.5217 0 13.75C0 11.9792 0.609583 10.495 1.82875 9.2975C3.04792 8.1 4.52167 7.50083 6.25 7.5C7.85417 7.5 9.20333 7.97917 10.2975 8.9375C11.3917 9.89583 12.0842 11.0833 12.375 12.5H13.1875L10.9375 6.25H8.75V3.75H15V6.25H13.625L14.0625 7.5H20.0625L18.25 2.5H15V0H18.25C18.7917 0 19.2762 0.145833 19.7037 0.4375C20.1312 0.729167 20.4383 1.125 20.625 1.625L22.75 7.4375H23.75C25.4792 7.4375 26.9533 8.04708 28.1725 9.26625C29.3917 10.4854 30.0008 11.9592 30 13.6875C30 15.4375 29.3958 16.9271 28.1875 18.1562C26.9792 19.3854 25.5 20 23.75 20C22.25 20 20.9325 19.5312 19.7975 18.5938C18.6625 17.6562 17.9383 16.4583 17.625 15H12.375C12.0833 16.4375 11.375 17.6304 10.25 18.5788C9.125 19.5271 7.79167 20.0008 6.25 20ZM6.25 17.5C7.10417 17.5 7.83875 17.2658 8.45375 16.7975C9.06875 16.3292 9.50083 15.73 9.75 15H6.25V12.5H9.75C9.5 11.75 9.06792 11.1458 8.45375 10.6875C7.83958 10.2292 7.105 10 6.25 10C5.1875 10 4.29708 10.3596 3.57875 11.0787C2.86042 11.7979 2.50083 12.6883 2.5 13.75C2.5 14.7917 2.85958 15.6771 3.57875 16.4062C4.29792 17.1354 5.18833 17.5 6.25 17.5ZM15.875 12.5H17.625C17.7292 12.0208 17.87 11.5729 18.0475 11.1562C18.225 10.7396 18.4592 10.3542 18.75 10H14.9375L15.875 12.5ZM23.75 17.5C24.8125 17.5 25.7033 17.1354 26.4225 16.4062C27.1417 15.6771 27.5008 14.7917 27.5 13.75C27.5 12.6875 27.1408 11.7971 26.4225 11.0787C25.7042 10.3604 24.8133 10.0008 23.75 10H23.625L24.875 13.3125L22.5 14.1875L21.3125 10.875C20.8958 11.2292 20.5729 11.6458 20.3438 12.125C20.1146 12.6042 20 13.1458 20 13.75C20 14.7917 20.3596 15.6771 21.0788 16.4062C21.7979 17.1354 22.6883 17.5 23.75 17.5Z" fill="#3F3F3F"/>
</svg>
