<svg width="216" height="160" viewBox="0 0 216 160" fill="none" xmlns="http://www.w3.org/2000/svg">
<path d="M215.997 63.9961V71.9992H207.998V63.9961H215.997Z" fill="#CEE0E0"/>
<path d="M207.998 71.9992L207.997 79.9974H199.996V72L207.998 71.9992Z" fill="#CEE0E0"/>
<path d="M207.998 63.9961V71.9992L199.996 72V63.9961H207.998Z" fill="#CEE0E0"/>
<path d="M207.997 56V63.9974H199.996V56H207.997Z" fill="#F2F2F2"/>
<path d="M199.996 72V79.9974H191.997V72H199.996Z" fill="#CEE0E0"/>
<path d="M199.996 63.9961V72H191.997V63.9961H199.996Z" fill="#F2F2F2"/>
<path d="M199.996 56V63.9974H191.997V56H199.996Z" fill="#F2F2F2"/>
<path d="M199.996 47.9961L199.996 56H191.997V47.9961H199.996Z" fill="#F2F2F2"/>
<path d="M191.997 72V79.9974H184V72H191.997Z" fill="#CEE0E0"/>
<path d="M191.997 63.9961V72H184V63.9961H191.997Z" fill="#F2F2F2"/>
<path d="M191.997 56V63.9974H184V56H191.997Z" fill="#F2F2F2"/>
<path d="M191.997 47.9961V56H184V47.9961H191.997Z" fill="#F2F2F2"/>
<path d="M183.999 88V95.9993H175.998V88H183.999Z" fill="#CEE0E0"/>
<path d="M184 79.9974L183.999 88.0011H175.998V79.998L184 79.9974Z" fill="#CEE0E0"/>
<path d="M184 72V79.9974L175.998 79.998V72H184Z" fill="#CEE0E0"/>
<path d="M184 63.9961V72H175.998V63.9961H184Z" fill="#F2F2F2"/>
<path d="M184 56V63.9974H175.998V56H184Z" fill="#F2F2F2"/>
<path d="M184 47.9961V56H175.998V47.9961H184Z" fill="#F2F2F2"/>
<path d="M175.998 95.9993L175.998 104.001H167.999V96L175.998 95.9993Z" fill="#CEE0E0"/>
<path d="M175.998 88V95.9993L167.999 96V88H175.998Z" fill="#CEE0E0"/>
<path d="M175.998 79.998V88.0011H167.999V79.998H175.998Z" fill="#CEE0E0"/>
<path d="M175.998 72V79.998H167.999V72H175.998Z" fill="#CEE0E0"/>
<path d="M175.998 63.9961V72H167.999V63.9961H175.998Z" fill="#F2F2F2"/>
<path d="M175.998 56V63.9974H167.999V56H175.998Z" fill="#F2F2F2"/>
<path d="M175.998 47.9961V56H167.999V47.9961H175.998Z" fill="#F2F2F2"/>
<path d="M175.998 39.998L175.998 47.9961H167.999V39.998H175.998Z" fill="#F2F2F2"/>
<path d="M167.999 128V135.997H159.998V128H167.999Z" fill="#CEE0E0"/>
<path d="M167.999 104.001L167.999 112.001H159.998V104.002L167.999 104.001Z" fill="#CEE0E0"/>
<path d="M167.999 96V104.001L159.998 104.002V96H167.999Z" fill="#CEE0E0"/>
<path d="M167.999 88V96H159.998V88H167.999Z" fill="#CEE0E0"/>
<path d="M167.999 79.998V88.0011H159.998V79.998H167.999Z" fill="#CEE0E0"/>
<path d="M167.999 72V79.998H159.998V72H167.999Z" fill="#F2F2F2"/>
<path d="M167.999 63.9961V72H159.998V63.9961H167.999Z" fill="#F2F2F2"/>
<path d="M167.999 56V63.9974H159.998V56H167.999Z" fill="#F2F2F2"/>
<path d="M167.999 47.9961V56H159.998V47.9961H167.999Z" fill="#CEE0E0"/>
<path d="M167.999 39.998V47.9961H159.998V39.998H167.999Z" fill="#F2F2F2"/>
<path d="M167.999 32.002V39.9994H159.998V32.002H167.999Z" fill="#F2F2F2"/>
<path d="M159.998 135.997L159.998 144.001H151.999V135.998L159.998 135.997Z" fill="#CEE0E0"/>
<path d="M159.998 104.002V112.001H151.999V104.002H159.998Z" fill="#CEE0E0"/>
<path d="M159.998 96V104.002H151.999V96H159.998Z" fill="#CEE0E0"/>
<path d="M159.998 88V96H151.999V88H159.998Z" fill="#CEE0E0"/>
<path d="M159.998 79.998V88.0011H151.999V79.998H159.998Z" fill="#CEE0E0"/>
<path d="M159.998 72V79.998H151.999V72H159.998Z" fill="#CEE0E0"/>
<path d="M159.998 63.9961V72H151.999V63.9961H159.998Z" fill="#F2F2F2"/>
<path d="M159.998 56V63.9974H151.999V56H159.998Z" fill="#F2F2F2"/>
<path d="M159.998 47.9961V56H151.999V47.9961H159.998Z" fill="#F2F2F2"/>
<path d="M159.998 39.998V47.9961H151.999V39.998H159.998Z" fill="#F2F2F2"/>
<path d="M159.998 32.002V39.9994H151.999V32.002H159.998Z" fill="#F2F2F2"/>
<path d="M159.998 24.0039L159.998 32.002H151.999V24.0039H159.998Z" fill="#F2F2F2"/>
<path d="M151.999 144.001L151.998 151.999H143.997V144.002L151.999 144.001Z" fill="#CEE0E0"/>
<path d="M151.998 112V119.997H143.997V112H151.998Z" fill="#CEE0E0"/>
<path d="M151.999 104.002V112.001H143.997V104.002H151.999Z" fill="#CEE0E0"/>
<path d="M151.999 96V104.002H143.997V96H151.999Z" fill="#CEE0E0"/>
<path d="M151.999 88V96H143.997V88H151.999Z" fill="#CEE0E0"/>
<path d="M151.999 79.998V88.0011H143.997V79.998H151.999Z" fill="#CEE0E0"/>
<path d="M151.999 72V79.998H143.997V72H151.999Z" fill="#CEE0E0"/>
<path d="M151.999 63.9961V72H143.997V63.9961H151.999Z" fill="#CEE0E0"/>
<path d="M151.999 56V63.9974H143.997V56H151.999Z" fill="#F2F2F2"/>
<path d="M151.999 47.9961V56H143.997V47.9961H151.999Z" fill="#F2F2F2"/>
<path d="M151.999 39.998V47.9961H143.997V39.998H151.999Z" fill="#F2F2F2"/>
<path d="M151.999 32.002V39.9994H143.997V32.002H151.999Z" fill="#F2F2F2"/>
<path d="M151.999 24.0039V32.002H143.997V24.0039H151.999Z" fill="#F2F2F2"/>
<path d="M151.998 16L151.999 24.0039H143.997V16H151.998Z" fill="#F2F2F2"/>
<path d="M143.997 119.997L143.997 128.001H135.998V119.998L143.997 119.997Z" fill="#CEE0E0"/>
<path d="M143.997 104.002V112.001H135.998V104.002H143.997Z" fill="#CEE0E0"/>
<path d="M143.997 96V104.002H135.998V96H143.997Z" fill="#CEE0E0"/>
<path d="M143.997 88V96H135.998V88H143.997Z" fill="#CEE0E0"/>
<path d="M143.997 79.998V88.0011H135.998V79.998H143.997Z" fill="#CEE0E0"/>
<path d="M143.997 72V79.998H135.998V72H143.997Z" fill="#CEE0E0"/>
<path d="M143.997 63.9961V72H135.998V63.9961H143.997Z" fill="#CEE0E0"/>
<path d="M143.997 56V63.9974H135.998V56H143.997Z" fill="#CEE0E0"/>
<path d="M143.997 47.9961V56H135.998V47.9961H143.997Z" fill="#F2F2F2"/>
<path d="M143.997 39.998V47.9961H135.998V39.998H143.997Z" fill="#F2F2F2"/>
<path d="M143.997 32.002V39.9994H135.998V32.002H143.997Z" fill="#F2F2F2"/>
<path d="M143.997 24.0039V32.002H135.998V24.0039H143.997Z" fill="#F2F2F2"/>
<path d="M143.997 16V24.0039H135.998V16H143.997Z" fill="#F2F2F2"/>
<path d="M135.998 128V135.997H127.999V128H135.998Z" fill="#CEE0E0"/>
<path d="M135.998 104.002V112.001H127.999V104.002H135.998Z" fill="#CEE0E0"/>
<path d="M135.998 96V104.002H127.999V96H135.998Z" fill="#CEE0E0"/>
<path d="M135.998 88V96H127.999V88H135.998Z" fill="#CEE0E0"/>
<path d="M135.998 79.998V88.0011H127.999V79.998H135.998Z" fill="#CEE0E0"/>
<path d="M135.998 72V79.998H127.999V72H135.998Z" fill="#CEE0E0"/>
<path d="M135.998 63.9961V72H127.999V63.9961H135.998Z" fill="#CEE0E0"/>
<path d="M135.998 56V63.9974H127.999V56H135.998Z" fill="#CEE0E0"/>
<path d="M135.998 47.9961V56H127.999V47.9961H135.998Z" fill="#F2F2F2"/>
<path d="M135.998 39.998V47.9961H127.999V39.998H135.998Z" fill="#F2F2F2"/>
<path d="M135.998 32.002V39.9994H127.999V32.002H135.998Z" fill="#F2F2F2"/>
<path d="M135.998 24.0039V32.002H127.999V24.0039H135.998Z" fill="#F2F2F2"/>
<path d="M135.998 16V24.0039H127.999V16H135.998Z" fill="#F2F2F2"/>
<path d="M135.998 8.00391V16.0013H127.999V8.00391H135.998Z" fill="#F2F2F2"/>
<path d="M135.998 0V8.00391H127.999V0H135.998Z" fill="#F2F2F2"/>
<path d="M127.999 135.997L127.998 144.001H119.997V135.998L127.999 135.997Z" fill="#CEE0E0"/>
<path d="M127.999 104.002V112.001H119.997V104.002H127.999Z" fill="#CEE0E0"/>
<path d="M127.999 96V104.002H119.997V96H127.999Z" fill="#CEE0E0"/>
<path d="M127.999 88V96H119.997V88H127.999Z" fill="#CEE0E0"/>
<path d="M127.999 79.998V88.0011H119.997V79.998H127.999Z" fill="#CEE0E0"/>
<path d="M127.999 72V79.998H119.997V72H127.999Z" fill="#CEE0E0"/>
<path d="M127.999 63.9961V72H119.997V63.9961H127.999Z" fill="#CEE0E0"/>
<path d="M127.999 56V63.9974H119.997V56H127.999Z" fill="#CEE0E0"/>
<path d="M127.999 47.9961V56H119.997V47.9961H127.999Z" fill="#F2F2F2"/>
<path d="M127.999 39.998V47.9961H119.997V39.998H127.999Z" fill="#F2F2F2"/>
<path d="M127.999 32.002V39.9994H119.997V32.002H127.999Z" fill="#F2F2F2"/>
<path d="M127.999 24.0039V32.002H119.997V24.0039H127.999Z" fill="#F2F2F2"/>
<path d="M127.999 16V24.0039H119.997V16H127.999Z" fill="#F2F2F2"/>
<path d="M127.999 8.00391V16.0013H119.997V8.00391H127.999Z" fill="#F2F2F2"/>
<path d="M127.999 0V8.00391H119.997V0H127.999Z" fill="#F2F2F2"/>
<path d="M119.997 112V119.997H111.998V112H119.997Z" fill="#CEE0E0"/>
<path d="M119.997 96V104.002L111.998 104.001V96H119.997Z" fill="#CEE0E0"/>
<path d="M119.997 88V96H111.998V88H119.997Z" fill="#CEE0E0"/>
<path d="M119.997 79.998V88.0011H111.998V79.998H119.997Z" fill="#CEE0E0"/>
<path d="M119.997 72V79.998H111.998V72H119.997Z" fill="#CEE0E0"/>
<path d="M119.997 63.9961V72H111.998V63.9961H119.997Z" fill="#F2F2F2"/>
<path d="M119.997 56V63.9974H111.998V56H119.997Z" fill="#F2F2F2"/>
<path d="M119.997 47.9961V56H111.998V47.9961H119.997Z" fill="#F2F2F2"/>
<path d="M119.997 39.998V47.9961H111.998V39.998H119.997Z" fill="#F2F2F2"/>
<path d="M119.997 32.002V39.9994H111.998V32.002H119.997Z" fill="#F2F2F2"/>
<path d="M119.997 24.0039V32.002H111.998V24.0039H119.997Z" fill="#F2F2F2"/>
<path d="M119.997 16V24.0039H111.998V16H119.997Z" fill="#F2F2F2"/>
<path d="M119.997 8.00391V16.0013H111.998V8.00391H119.997Z" fill="#F2F2F2"/>
<path d="M119.997 0V8.00391H111.998V0H119.997Z" fill="#F2F2F2"/>
<path d="M111.998 119.997L111.998 128.001H104V119.998L111.998 119.997Z" fill="#CEE0E0"/>
<path d="M111.998 96V104.001H104V96H111.998Z" fill="#CEE0E0"/>
<path d="M111.998 88V96H104V88H111.998Z" fill="#CEE0E0"/>
<path d="M111.998 79.998V88.0011H104V79.998H111.998Z" fill="#CEE0E0"/>
<path d="M111.998 72V79.998H104V72H111.998Z" fill="#CEE0E0"/>
<path d="M111.998 63.9961V72H104V63.9961H111.998Z" fill="#CEE0E0"/>
<path d="M111.998 56V63.9974H104V56H111.998Z" fill="#F2F2F2"/>
<path d="M111.998 47.9961V56H104V47.9961H111.998Z" fill="#F2F2F2"/>
<path d="M111.998 39.998V47.9961H104V39.998H111.998Z" fill="#F2F2F2"/>
<path d="M111.998 32.002V39.9994H104V32.002H111.998Z" fill="#F2F2F2"/>
<path d="M111.998 24.0039V32.002H104V24.0039H111.998Z" fill="#F2F2F2"/>
<path d="M111.998 16V24.0039H104V16H111.998Z" fill="#F2F2F2"/>
<path d="M111.998 8.00391V16.0013H104V8.00391H111.998Z" fill="#F2F2F2"/>
<path d="M111.998 0V8.00391H104V0H111.998Z" fill="#F2F2F2"/>
<path d="M104 144.002V151.999H95.999V144.002H104Z" fill="#CEE0E0"/>
<path d="M104 96V104.001H95.999V96H104Z" fill="#CEE0E0"/>
<path d="M104 88V96H95.999V88H104Z" fill="#CEE0E0"/>
<path d="M104 79.998V88.0011H95.999V79.998H104Z" fill="#CEE0E0"/>
<path d="M104 72V79.998H95.999V72H104Z" fill="#CEE0E0"/>
<path d="M104 63.9961V72H95.999V63.9961H104Z" fill="#CEE0E0"/>
<path d="M104 56V63.9974H95.999V56H104Z" fill="#F2F2F2"/>
<path d="M104 47.9961V56H95.999V47.9961H104Z" fill="#F2F2F2"/>
<path d="M104 39.998V47.9961H95.999V39.998H104Z" fill="#CEE0E0"/>
<path d="M104 32.002V39.9994H95.999V32.002H104Z" fill="#F2F2F2"/>
<path d="M104 24.0039V32.002H95.999V24.0039H104Z" fill="#F2F2F2"/>
<path d="M104 16V24.0039H95.999V16H104Z" fill="#F2F2F2"/>
<path d="M104 8.00391V16.0013H95.999V8.00391H104Z" fill="#F2F2F2"/>
<path d="M95.9993 151.998V160.001H88V151.998H95.9993Z" fill="#CEE0E0"/>
<path d="M95.9993 112V119.997H88V112H95.9993Z" fill="#CEE0E0"/>
<path d="M95.999 96V104.001H88V96H95.999Z" fill="#CEE0E0"/>
<path d="M95.999 88V96H88V88H95.999Z" fill="#CEE0E0"/>
<path d="M95.999 79.998V88.0011H88V79.998H95.999Z" fill="#CEE0E0"/>
<path d="M95.999 72V79.998H88V72H95.999Z" fill="#CEE0E0"/>
<path d="M95.999 63.9961V72H88V63.9961H95.999Z" fill="#CEE0E0"/>
<path d="M95.999 56V63.9974H88V56H95.999Z" fill="#F2F2F2"/>
<path d="M95.999 47.9961V56H88V47.9961H95.999Z" fill="#F2F2F2"/>
<path d="M95.999 39.998V47.9961H88V39.998H95.999Z" fill="#F2F2F2"/>
<path d="M95.999 32.002V39.9994H88V32.002H95.999Z" fill="#F2F2F2"/>
<path d="M95.999 24.0039V32.002H88V24.0039H95.999Z" fill="#F2F2F2"/>
<path d="M95.999 16V24.0039H88V16H95.999Z" fill="#F2F2F2"/>
<path d="M88.0002 128V135.997H79.999V128H88.0002Z" fill="#CEE0E0"/>
<path d="M88 96V104.001H79.999V96H88Z" fill="#CEE0E0"/>
<path d="M88 88V96H79.999V88H88Z" fill="#CEE0E0"/>
<path d="M88 79.998V88.0011H79.999V79.998H88Z" fill="#CEE0E0"/>
<path d="M88 72V79.998H79.999V72H88Z" fill="#CEE0E0"/>
<path d="M88 63.9961V72H79.999V63.9961H88Z" fill="#CEE0E0"/>
<path d="M88 56V63.9974H79.999V56H88Z" fill="#F2F2F2"/>
<path d="M88 47.9961V56H79.999V47.9961H88Z" fill="#F2F2F2"/>
<path d="M88 39.998V47.9961H79.999V39.998H88Z" fill="#F2F2F2"/>
<path d="M88 32.002V39.9994H79.999V32.002H88Z" fill="#F2F2F2"/>
<path d="M88 24.0039V32.002H79.999V24.0039H88Z" fill="#F2F2F2"/>
<path d="M88 16V24.0039H79.999V16H88Z" fill="#F2F2F2"/>
<path d="M79.999 135.997L79.9988 144.001H71.9995V135.998L79.999 135.997Z" fill="#CEE0E0"/>
<path d="M79.999 96V104.001H71.9995V96H79.999Z" fill="#CEE0E0"/>
<path d="M79.999 88V96H71.9995V88H79.999Z" fill="#CEE0E0"/>
<path d="M79.999 79.998V88.0011H71.9995V79.998H79.999Z" fill="#CEE0E0"/>
<path d="M79.999 72V79.998H71.9995V72H79.999Z" fill="#CEE0E0"/>
<path d="M79.999 63.9961V72H71.9995V63.9961H79.999Z" fill="#CEE0E0"/>
<path d="M79.999 56V63.9974H71.9995V56H79.999Z" fill="#F2F2F2"/>
<path d="M79.999 47.9961V56H71.9995V47.9961H79.999Z" fill="#F2F2F2"/>
<path d="M79.999 39.998V47.9961H71.9995V39.998H79.999Z" fill="#F2F2F2"/>
<path d="M79.999 32.002V39.9994H71.9995V32.002H79.999Z" fill="#F2F2F2"/>
<path d="M79.999 24.0039V32.002H71.9995V24.0039H79.999Z" fill="#F2F2F2"/>
<path d="M71.9995 144.001L71.9993 151.999H63.998V144.002L71.9995 144.001Z" fill="#CEE0E0"/>
<path d="M71.9995 88V96L63.998 95.9993V88H71.9995Z" fill="#CEE0E0"/>
<path d="M71.9995 79.998V88.0011H63.998V79.998H71.9995Z" fill="#CEE0E0"/>
<path d="M71.9995 72V79.998H63.998V72H71.9995Z" fill="#CEE0E0"/>
<path d="M71.9995 63.9961V72H63.998V63.9961H71.9995Z" fill="#CEE0E0"/>
<path d="M71.9995 56V63.9974H63.998V56H71.9995Z" fill="#CEE0E0"/>
<path d="M71.9995 47.9961V56H63.998V47.9961H71.9995Z" fill="#F2F2F2"/>
<path d="M71.9995 39.998V47.9961H63.998V39.998H71.9995Z" fill="#F2F2F2"/>
<path d="M71.9995 32.002V39.9994H63.998V32.002H71.9995Z" fill="#F2F2F2"/>
<path d="M63.9983 112V119.997H55.999V112H63.9983Z" fill="#CEE0E0"/>
<path d="M63.998 88V95.9993H55.999V88H63.998Z" fill="#CEE0E0"/>
<path d="M63.998 79.998V88.0011H55.999V79.998H63.998Z" fill="#CEE0E0"/>
<path d="M63.998 72V79.998H55.999V72H63.998Z" fill="#CEE0E0"/>
<path d="M63.998 63.9961V72H55.999V63.9961H63.998Z" fill="#CEE0E0"/>
<path d="M63.998 56V63.9974H55.999V56H63.998Z" fill="#F2F2F2"/>
<path d="M63.998 47.9961V56H55.999V47.9961H63.998Z" fill="#F2F2F2"/>
<path d="M63.998 39.998V47.9961H55.999V39.998H63.998Z" fill="#F2F2F2"/>
<path d="M63.998 32.002V39.9994H55.999V32.002H63.998Z" fill="#F2F2F2"/>
<path d="M55.9988 128V135.997H47.9976V128H55.9988Z" fill="#CEE0E0"/>
<path d="M55.999 95.9993L55.9988 104.001H47.9976V96L55.999 95.9993Z" fill="#CEE0E0"/>
<path d="M55.999 88V95.9993L47.9976 96V88H55.999Z" fill="#CEE0E0"/>
<path d="M55.999 79.998V88.0011H47.9976V79.998H55.999Z" fill="#CEE0E0"/>
<path d="M55.999 72V79.998H47.9976V72H55.999Z" fill="#F2F2F2"/>
<path d="M55.999 63.9961V72H47.9976V63.9961H55.999Z" fill="#F2F2F2"/>
<path d="M55.999 56V63.9974H47.9976V56H55.999Z" fill="#F2F2F2"/>
<path d="M55.999 47.9961V56H47.9976V47.9961H55.999Z" fill="#F2F2F2"/>
<path d="M55.999 39.998V47.9961H47.9976V39.998H55.999Z" fill="#F2F2F2"/>
<path d="M55.999 32.002V39.9994H47.9976V32.002H55.999Z" fill="#F2F2F2"/>
<path d="M47.9976 96V104.001H39.9985V96H47.9976Z" fill="#CEE0E0"/>
<path d="M47.9976 88V96H39.9985V88H47.9976Z" fill="#CEE0E0"/>
<path d="M47.9976 79.998V88.0011H39.9985V79.998H47.9976Z" fill="#CEE0E0"/>
<path d="M47.9976 72V79.998H39.9985V72H47.9976Z" fill="#F2F2F2"/>
<path d="M47.9976 63.9961V72H39.9985V63.9961H47.9976Z" fill="#F2F2F2"/>
<path d="M47.9976 56V63.9974H39.9985V56H47.9976Z" fill="#F2F2F2"/>
<path d="M47.9976 47.9961V56H39.9985V47.9961H47.9976Z" fill="#F2F2F2"/>
<path d="M47.9976 39.998V47.9961H39.9985V39.998H47.9976Z" fill="#F2F2F2"/>
<path d="M47.9976 32.002V39.9994H39.9985V32.002H47.9976Z" fill="#F2F2F2"/>
<path d="M39.9985 96V104.001H31.9976V96H39.9985Z" fill="#CEE0E0"/>
<path d="M39.9985 88V96H31.9976V88H39.9985Z" fill="#CEE0E0"/>
<path d="M39.9985 79.998V88.0011H31.9976V79.998H39.9985Z" fill="#CEE0E0"/>
<path d="M39.9985 72V79.998H31.9976V72H39.9985Z" fill="#CEE0E0"/>
<path d="M39.9985 63.9961V72H31.9976V63.9961H39.9985Z" fill="#F2F2F2"/>
<path d="M39.9985 56V63.9974H31.9976V56H39.9985Z" fill="#F2F2F2"/>
<path d="M39.9985 47.9961V56H31.9976V47.9961H39.9985Z" fill="#F2F2F2"/>
<path d="M39.9985 39.998V47.9961H31.9976V39.998H39.9985Z" fill="#F2F2F2"/>
<path d="M39.9985 32.002V39.9994H31.9976V32.002H39.9985Z" fill="#F2F2F2"/>
<path d="M31.9969 144.002V151.999H23.9995V144.002H31.9969Z" fill="#CEE0E0"/>
<path d="M31.9969 112V119.997H23.9995V112H31.9969Z" fill="#CEE0E0"/>
<path d="M31.9976 88V96L23.9995 95.9993V88H31.9976Z" fill="#CEE0E0"/>
<path d="M31.9976 79.998V88.0011H23.9995V79.998H31.9976Z" fill="#CEE0E0"/>
<path d="M31.9976 72V79.998H23.9995V72H31.9976Z" fill="#F2F2F2"/>
<path d="M31.9976 63.9961L31.9969 71.9992L23.9995 72V63.9961H31.9976Z" fill="#F2F2F2"/>
<path d="M31.9976 56V63.9974H23.9995V56H31.9976Z" fill="#F2F2F2"/>
<path d="M31.9976 47.9961L31.9969 55.9992L23.9995 56V47.9961H31.9976Z" fill="#F2F2F2"/>
<path d="M31.9976 39.998V47.9961H23.9995V39.998H31.9976Z" fill="#F2F2F2"/>
<path d="M23.9995 119.997L23.9998 128.001H16.0005V119.998L23.9995 119.997Z" fill="#CEE0E0"/>
<path d="M23.9995 79.998V88.0011H16.0005V79.998H23.9995Z" fill="#CEE0E0"/>
<path d="M23.9995 72V79.998H16.0005V72H23.9995Z" fill="#CEE0E0"/>
<path d="M23.9995 63.9961V72H16.0005V63.9961H23.9995Z" fill="#F2F2F2"/>
<path d="M23.9995 56V63.9974H16.0005V56H23.9995Z" fill="#F2F2F2"/>
<path d="M23.9995 47.9961V56H16.0005V47.9961H23.9995Z" fill="#F2F2F2"/>
<path d="M23.9995 39.998V47.9961H16.0005V39.998H23.9995Z" fill="#F2F2F2"/>
<path d="M16.0005 72V79.998L8.00098 79.9974V72H16.0005Z" fill="#CEE0E0"/>
<path d="M16.0005 63.9961V72H8.00098V63.9961H16.0005Z" fill="#F2F2F2"/>
<path d="M16.0005 56V63.9974H8.00098V56H16.0005Z" fill="#F2F2F2"/>
<path d="M8.00098 72V79.9974H0V72H8.00098Z" fill="#CEE0E0"/>
</svg>
