<svg width="109" height="136" viewBox="0 0 109 136" fill="none" xmlns="http://www.w3.org/2000/svg">
<path d="M75.4883 28.3112C73.4551 23.2498 53.9564 29.1255 52.1747 33.3184C50.8026 36.5479 56.4933 38.5936 59.2995 38.0795C63.5359 37.3037 68.4719 36.2935 72.2602 34.0123C75.1566 32.2685 76.147 29.9618 75.4883 28.3112Z" fill="#F5EFEB"/>
<path d="M76.3116 26.0479C77.0687 27.3303 77.8276 28.6119 78.5869 29.8942C81.6215 28.2822 84.9239 27.171 88.3159 26.6199C84.5483 25.2019 80.3109 25.0648 76.4577 26.2349L76.3116 26.0479Z" fill="#F5EFEB"/>
<path d="M44.7169 58.8195C45.2654 56.6185 44.6501 54.3191 44.476 52.0567C44.41 51.2063 44.538 50.293 44.7381 49.353C45.7191 48.3238 46.7279 47.3943 47.3367 46.7112C48.8858 44.9745 51.8099 42.7911 51.5086 40.143C50.9348 35.1058 38.9188 37.0638 35.6903 38.1038C31.9955 39.2931 25.3992 43.2233 23.7174 46.9808C21.6777 51.5334 26.1518 52.3895 26.8719 55.8621C27.0709 56.8164 27.5261 57.6571 28.225 58.2886C29.7207 61.0135 32.1204 63.2383 35.1068 63.9871C39.0254 64.9713 43.7392 62.7414 44.7169 58.8195Z" fill="#F5EFEB"/>
<path d="M51.4581 53.1003C54.3521 51.5356 59.9229 51.3661 61.8589 51.8138C62.8222 52.0371 63.9413 52.5544 64.0182 53.5405C64.0775 54.3072 63.456 54.9386 62.8852 55.4523C61.1629 57.0002 59.3681 58.5781 57.1734 59.3168C54.9806 60.0548 52.2639 59.7449 50.7826 57.9642C48.8607 55.6483 49.6208 54.0941 51.4581 53.1003Z" fill="#F5EFEB"/>
<path d="M66.6357 51.9043C69.0767 49.2276 73.0695 48.0783 76.5587 49.0488C63.7773 58.4503 66.6357 51.9043 66.6357 51.9043Z" fill="#F5EFEB"/>
<path d="M73.0531 87.4868C75.8817 92.1509 59.4806 104.223 55.0568 103.13C51.6498 102.289 53.4291 96.5107 55.5243 94.5744C58.6872 91.6511 62.458 88.3101 66.5562 86.6489C69.6892 85.3783 72.1284 85.9697 73.0531 87.4868Z" fill="#F5EFEB"/>
<path d="M75.3616 88.1873C74.7898 86.8113 74.2197 85.4344 73.6497 84.0576C76.7599 82.5969 79.6311 80.623 82.1073 78.24C80.9789 82.1059 78.5473 85.5767 75.2994 87.9578L75.3616 88.1873Z" fill="#F5EFEB"/>
<path d="M30.1854 93.7908C32.2751 94.673 33.7455 96.5457 35.4507 98.0426C36.0917 98.6067 36.8984 99.0508 37.7707 99.4556C39.1825 99.2884 40.5314 99.0389 41.4431 98.9619C43.7624 98.7659 47.2632 97.7362 49.2004 99.566C52.8857 103.049 44.1082 111.485 41.3395 113.445C38.1705 115.686 31.068 118.604 27.0532 117.694C22.1871 116.593 24.1879 112.501 21.8417 109.84C21.198 109.109 20.7987 108.24 20.713 107.302C19.4292 104.471 19.0914 101.215 20.2845 98.3768C21.8491 94.652 26.4615 92.2193 30.1854 93.7908Z" fill="#F5EFEB"/>
<path d="M38.8042 91.832C41.7945 90.4554 45.2737 86.1018 46.077 84.2836C46.4765 83.3789 46.734 82.1729 45.9914 81.5195C45.414 81.0127 44.5359 81.1308 43.7807 81.28C41.5108 81.7281 39.1714 82.2166 37.2634 83.5288C35.3572 84.8402 33.9747 87.199 34.5102 89.4528C35.2089 92.3791 36.9088 92.705 38.8042 91.832Z" fill="#F5EFEB"/>
<path d="M48.8712 80.4089C52.4771 80.0623 55.7932 77.5594 57.1105 74.1853C41.9197 78.7668 48.8712 80.4089 48.8712 80.4089Z" fill="#F5EFEB"/>
</svg>
