<svg width="148" height="76" viewBox="0 0 148 76" fill="none" xmlns="http://www.w3.org/2000/svg">
<path d="M148 43.4269V48.8577H142.519V43.4269H148Z" fill="#CEE0E0"/>
<path d="M142.519 48.8577L142.519 54.2846H137.036V48.8577L142.519 48.8577Z" fill="#CEE0E0"/>
<path d="M142.519 43.4269V48.8577L137.036 48.8577V43.4269H142.519Z" fill="#CEE0E0"/>
<path d="M142.519 38L142.519 43.4269H137.036V38H142.519Z" fill="#F2F2F2"/>
<path d="M137.036 48.8577V54.2846H131.556V48.8577H137.036Z" fill="#CEE0E0"/>
<path d="M137.036 43.4269V48.8577H131.556V43.4269H137.036Z" fill="#F2F2F2"/>
<path d="M137.036 38V43.4269H131.556V38H137.036Z" fill="#F2F2F2"/>
<path d="M137.037 32.5692L137.036 38H131.556V32.5692H137.037Z" fill="#F2F2F2"/>
<path d="M131.556 48.8577V54.2846H126.076V48.8577H131.556Z" fill="#CEE0E0"/>
<path d="M131.556 43.4269V48.8577H126.076V43.4269H131.556Z" fill="#F2F2F2"/>
<path d="M131.556 38V43.4269H126.076V38H131.556Z" fill="#F2F2F2"/>
<path d="M131.556 32.5692V38H126.076V32.5692H131.556Z" fill="#F2F2F2"/>
<path d="M126.076 59.7154V65.1423H120.593V59.7154H126.076Z" fill="#CEE0E0"/>
<path d="M126.076 54.2846V59.7154H120.593V54.2846L126.076 54.2846Z" fill="#CEE0E0"/>
<path d="M126.076 48.8577V54.2846L120.593 54.2846V48.8577H126.076Z" fill="#CEE0E0"/>
<path d="M126.076 43.4269V48.8577H120.593V43.4269H126.076Z" fill="#F2F2F2"/>
<path d="M126.076 38V43.4269H120.593V38H126.076Z" fill="#F2F2F2"/>
<path d="M126.076 32.5692V38H120.593V32.5692H126.076Z" fill="#F2F2F2"/>
<path d="M120.593 65.1423L120.593 70.5731H115.112V65.1423L120.593 65.1423Z" fill="#CEE0E0"/>
<path d="M120.593 59.7154V65.1423L115.112 65.1423V59.7154H120.593Z" fill="#CEE0E0"/>
<path d="M120.593 54.2846V59.7154H115.112V54.2846H120.593Z" fill="#CEE0E0"/>
<path d="M120.593 48.8577V54.2846H115.112V48.8577H120.593Z" fill="#CEE0E0"/>
<path d="M120.593 43.4269V48.8577H115.112V43.4269H120.593Z" fill="#F2F2F2"/>
<path d="M120.593 38V43.4269H115.112V38H120.593Z" fill="#F2F2F2"/>
<path d="M120.593 32.5692V38H115.112V32.5692H120.593Z" fill="#F2F2F2"/>
<path d="M120.593 27.1423L120.593 32.5692H115.112V27.1423H120.593Z" fill="#F2F2F2"/>
<path d="M115.112 70.5731V76H109.63V70.5731L115.112 70.5731Z" fill="#CEE0E0"/>
<path d="M115.112 65.1423V70.5731L109.63 70.5731V65.1423H115.112Z" fill="#CEE0E0"/>
<path d="M115.112 59.7154V65.1423H109.63V59.7154H115.112Z" fill="#CEE0E0"/>
<path d="M115.112 54.2846V59.7154H109.63V54.2846H115.112Z" fill="#CEE0E0"/>
<path d="M115.112 48.8577V54.2846H109.63V48.8577H115.112Z" fill="#F2F2F2"/>
<path d="M115.112 43.4269V48.8577H109.63V43.4269H115.112Z" fill="#F2F2F2"/>
<path d="M115.112 38V43.4269H109.63V38H115.112Z" fill="#F2F2F2"/>
<path d="M115.112 32.5692V38H109.63V32.5692H115.112Z" fill="#CEE0E0"/>
<path d="M115.112 27.1423V32.5692H109.63V27.1423H115.112Z" fill="#F2F2F2"/>
<path d="M115.112 21.7154V27.1423H109.63V21.7154H115.112Z" fill="#F2F2F2"/>
<path d="M109.63 70.5731V76H104.149V70.5731H109.63Z" fill="#CEE0E0"/>
<path d="M109.63 65.1423V70.5731H104.149V65.1423H109.63Z" fill="#CEE0E0"/>
<path d="M109.63 59.7154V65.1423H104.149V59.7154H109.63Z" fill="#CEE0E0"/>
<path d="M109.63 54.2846V59.7154H104.149V54.2846H109.63Z" fill="#CEE0E0"/>
<path d="M109.63 48.8577V54.2846H104.149V48.8577H109.63Z" fill="#CEE0E0"/>
<path d="M109.63 43.4269V48.8577H104.149V43.4269H109.63Z" fill="#F2F2F2"/>
<path d="M109.63 38V43.4269H104.149V38H109.63Z" fill="#F2F2F2"/>
<path d="M109.63 32.5692V38H104.149V32.5692H109.63Z" fill="#F2F2F2"/>
<path d="M109.63 27.1423V32.5692H104.149V27.1423H109.63Z" fill="#F2F2F2"/>
<path d="M109.63 21.7154V27.1423H104.149V21.7154H109.63Z" fill="#F2F2F2"/>
<path d="M109.63 16.2846L109.63 21.7154H104.149V16.2846H109.63Z" fill="#F2F2F2"/>
<path d="M104.149 70.5731V76H98.6675V70.5731H104.149Z" fill="#CEE0E0"/>
<path d="M104.149 65.1423V70.5731H98.6675V65.1423H104.149Z" fill="#CEE0E0"/>
<path d="M104.149 59.7154V65.1423H98.6675V59.7154H104.149Z" fill="#CEE0E0"/>
<path d="M104.149 54.2846V59.7154H98.6675V54.2846H104.149Z" fill="#CEE0E0"/>
<path d="M104.149 48.8577V54.2846H98.6675V48.8577H104.149Z" fill="#CEE0E0"/>
<path d="M104.149 43.4269V48.8577H98.6675V43.4269H104.149Z" fill="#CEE0E0"/>
<path d="M104.149 38V43.4269H98.6675V38H104.149Z" fill="#F2F2F2"/>
<path d="M104.149 32.5692V38H98.6675V32.5692H104.149Z" fill="#F2F2F2"/>
<path d="M104.149 27.1423V32.5692H98.6675V27.1423H104.149Z" fill="#F2F2F2"/>
<path d="M104.149 21.7154V27.1423H98.6675V21.7154H104.149Z" fill="#F2F2F2"/>
<path d="M104.149 16.2846V21.7154H98.6675V16.2846H104.149Z" fill="#F2F2F2"/>
<path d="M104.149 10.8577L104.149 16.2846H98.6675V10.8577H104.149Z" fill="#F2F2F2"/>
<path d="M98.6675 70.5731V76H93.1851V70.5731H98.6675Z" fill="#CEE0E0"/>
<path d="M98.6675 65.1423V70.5731H93.1851V65.1423H98.6675Z" fill="#CEE0E0"/>
<path d="M98.6675 59.7154V65.1423H93.1851V59.7154H98.6675Z" fill="#CEE0E0"/>
<path d="M98.6675 54.2846V59.7154H93.1851V54.2846H98.6675Z" fill="#CEE0E0"/>
<path d="M98.6675 48.8577V54.2846H93.1851V48.8577H98.6675Z" fill="#CEE0E0"/>
<path d="M98.6675 43.4269V48.8577H93.1851V43.4269H98.6675Z" fill="#CEE0E0"/>
<path d="M98.6675 38V43.4269H93.1851V38H98.6675Z" fill="#CEE0E0"/>
<path d="M98.6675 32.5692V38H93.1851V32.5692H98.6675Z" fill="#F2F2F2"/>
<path d="M98.6675 27.1423V32.5692H93.1851V27.1423H98.6675Z" fill="#F2F2F2"/>
<path d="M98.6675 21.7154V27.1423H93.1851V21.7154H98.6675Z" fill="#F2F2F2"/>
<path d="M98.6675 16.2846V21.7154H93.1851V16.2846H98.6675Z" fill="#F2F2F2"/>
<path d="M98.6675 10.8577V16.2846H93.1851V10.8577H98.6675Z" fill="#F2F2F2"/>
<path d="M93.1851 70.5731V76H87.7042V70.5731H93.1851Z" fill="#CEE0E0"/>
<path d="M93.1851 65.1423V70.5731H87.7042V65.1423H93.1851Z" fill="#CEE0E0"/>
<path d="M93.1851 59.7154V65.1423H87.7042V59.7154H93.1851Z" fill="#CEE0E0"/>
<path d="M93.1851 54.2846V59.7154H87.7042V54.2846H93.1851Z" fill="#CEE0E0"/>
<path d="M93.1851 48.8577V54.2846H87.7042V48.8577H93.1851Z" fill="#CEE0E0"/>
<path d="M93.1851 43.4269V48.8577H87.7042V43.4269H93.1851Z" fill="#CEE0E0"/>
<path d="M93.1851 38V43.4269H87.7042V38H93.1851Z" fill="#CEE0E0"/>
<path d="M93.1851 32.5692V38H87.7042V32.5692H93.1851Z" fill="#F2F2F2"/>
<path d="M93.1851 27.1423V32.5692H87.7042V27.1423H93.1851Z" fill="#F2F2F2"/>
<path d="M93.1851 21.7154V27.1423H87.7042V21.7154H93.1851Z" fill="#F2F2F2"/>
<path d="M93.1851 16.2846V21.7154H87.7042V16.2846H93.1851Z" fill="#F2F2F2"/>
<path d="M93.1851 10.8577V16.2846H87.7042V10.8577H93.1851Z" fill="#F2F2F2"/>
<path d="M93.1853 5.42949L93.1851 10.8577H87.7042V5.42949H93.1853Z" fill="#F2F2F2"/>
<path d="M93.1853 0V5.42949H87.7042V0H93.1853Z" fill="#F2F2F2"/>
<path d="M87.7042 70.5731V76H82.2218V70.5731H87.7042Z" fill="#CEE0E0"/>
<path d="M87.7042 65.1423V70.5731H82.2218V65.1423H87.7042Z" fill="#CEE0E0"/>
<path d="M87.7042 59.7154V65.1423H82.2218V59.7154H87.7042Z" fill="#CEE0E0"/>
<path d="M87.7042 54.2846V59.7154H82.2218V54.2846H87.7042Z" fill="#CEE0E0"/>
<path d="M87.7042 48.8577V54.2846H82.2218V48.8577H87.7042Z" fill="#CEE0E0"/>
<path d="M87.7042 43.4269V48.8577H82.2218V43.4269H87.7042Z" fill="#CEE0E0"/>
<path d="M87.7042 38V43.4269H82.2218V38H87.7042Z" fill="#CEE0E0"/>
<path d="M87.7042 32.5692V38H82.2218V32.5692H87.7042Z" fill="#F2F2F2"/>
<path d="M87.7042 27.1423V32.5692H82.2218V27.1423H87.7042Z" fill="#F2F2F2"/>
<path d="M87.7042 21.7154V27.1423H82.2218V21.7154H87.7042Z" fill="#F2F2F2"/>
<path d="M87.7042 16.2846V21.7154H82.2218V16.2846H87.7042Z" fill="#F2F2F2"/>
<path d="M87.7042 10.8577V16.2846H82.2218V10.8577H87.7042Z" fill="#F2F2F2"/>
<path d="M87.7042 5.42949V10.8577H82.2218V5.42949H87.7042Z" fill="#F2F2F2"/>
<path d="M87.7042 0V5.42949H82.2218V0H87.7042Z" fill="#F2F2F2"/>
<path d="M82.2218 65.1423V70.5731L76.7406 70.5731V65.1423H82.2218Z" fill="#CEE0E0"/>
<path d="M82.2218 59.7154V65.1423H76.7406V59.7154H82.2218Z" fill="#CEE0E0"/>
<path d="M82.2218 54.2846V59.7154H76.7406V54.2846H82.2218Z" fill="#CEE0E0"/>
<path d="M82.2218 48.8577V54.2846H76.7406V48.8577H82.2218Z" fill="#CEE0E0"/>
<path d="M82.2218 43.4269V48.8577H76.7406V43.4269H82.2218Z" fill="#F2F2F2"/>
<path d="M82.2218 38V43.4269H76.7406V38H82.2218Z" fill="#F2F2F2"/>
<path d="M82.2218 32.5692V38H76.7406V32.5692H82.2218Z" fill="#F2F2F2"/>
<path d="M82.2218 27.1423V32.5692H76.7406V27.1423H82.2218Z" fill="#F2F2F2"/>
<path d="M82.2218 21.7154V27.1423H76.7406V21.7154H82.2218Z" fill="#F2F2F2"/>
<path d="M82.2218 16.2846V21.7154H76.7406V16.2846H82.2218Z" fill="#F2F2F2"/>
<path d="M82.2218 10.8577V16.2846H76.7406V10.8577H82.2218Z" fill="#F2F2F2"/>
<path d="M82.2218 5.42949V10.8577H76.7406V5.42949H82.2218Z" fill="#F2F2F2"/>
<path d="M82.2218 0V5.42949H76.7406V0H82.2218Z" fill="#F2F2F2"/>
<path d="M76.7406 65.1423V70.5731H71.2609V65.1423H76.7406Z" fill="#CEE0E0"/>
<path d="M76.7406 59.7154V65.1423H71.2609V59.7154H76.7406Z" fill="#CEE0E0"/>
<path d="M76.7406 54.2846V59.7154H71.2609V54.2846H76.7406Z" fill="#CEE0E0"/>
<path d="M76.7406 48.8577V54.2846H71.2609V48.8577H76.7406Z" fill="#CEE0E0"/>
<path d="M76.7406 43.4269V48.8577H71.2609V43.4269H76.7406Z" fill="#CEE0E0"/>
<path d="M76.7406 38V43.4269H71.2609V38H76.7406Z" fill="#F2F2F2"/>
<path d="M76.7406 32.5692V38H71.2609V32.5692H76.7406Z" fill="#F2F2F2"/>
<path d="M76.7406 27.1423V32.5692H71.2609V27.1423H76.7406Z" fill="#F2F2F2"/>
<path d="M76.7406 21.7154V27.1423H71.2609V21.7154H76.7406Z" fill="#F2F2F2"/>
<path d="M76.7406 16.2846V21.7154H71.2609V16.2846H76.7406Z" fill="#F2F2F2"/>
<path d="M76.7406 10.8577V16.2846H71.2609V10.8577H76.7406Z" fill="#F2F2F2"/>
<path d="M76.7406 5.42949V10.8577H71.2609V5.42949H76.7406Z" fill="#F2F2F2"/>
<path d="M76.7406 0V5.42949H71.2609V0H76.7406Z" fill="#F2F2F2"/>
<path d="M71.2609 65.1423V70.5731H65.7785V65.1423H71.2609Z" fill="#CEE0E0"/>
<path d="M71.2609 59.7154V65.1423H65.7785V59.7154H71.2609Z" fill="#CEE0E0"/>
<path d="M71.2609 54.2846V59.7154H65.7785V54.2846H71.2609Z" fill="#CEE0E0"/>
<path d="M71.2609 48.8577V54.2846H65.7785V48.8577H71.2609Z" fill="#CEE0E0"/>
<path d="M71.2609 43.4269V48.8577H65.7785V43.4269H71.2609Z" fill="#CEE0E0"/>
<path d="M71.2609 38V43.4269H65.7785V38H71.2609Z" fill="#F2F2F2"/>
<path d="M71.2609 32.5692V38H65.7785V32.5692H71.2609Z" fill="#F2F2F2"/>
<path d="M71.2609 27.1423V32.5692H65.7785V27.1423H71.2609Z" fill="#CEE0E0"/>
<path d="M71.2609 21.7154V27.1423H65.7785V21.7154H71.2609Z" fill="#F2F2F2"/>
<path d="M71.2609 16.2846V21.7154H65.7785V16.2846H71.2609Z" fill="#F2F2F2"/>
<path d="M71.2609 10.8577V16.2846H65.7785V10.8577H71.2609Z" fill="#F2F2F2"/>
<path d="M71.2609 5.42949V10.8577H65.7785V5.42949H71.2609Z" fill="#F2F2F2"/>
<path d="M65.7785 65.1423V70.5731H60.2973V65.1423H65.7785Z" fill="#CEE0E0"/>
<path d="M65.7785 59.7154V65.1423H60.2973V59.7154H65.7785Z" fill="#CEE0E0"/>
<path d="M65.7785 54.2846V59.7154H60.2973V54.2846H65.7785Z" fill="#CEE0E0"/>
<path d="M65.7785 48.8577V54.2846H60.2973V48.8577H65.7785Z" fill="#CEE0E0"/>
<path d="M65.7785 43.4269V48.8577H60.2973V43.4269H65.7785Z" fill="#CEE0E0"/>
<path d="M65.7785 38V43.4269H60.2973V38H65.7785Z" fill="#F2F2F2"/>
<path d="M65.7785 32.5692V38H60.2973V32.5692H65.7785Z" fill="#F2F2F2"/>
<path d="M65.7785 27.1423V32.5692H60.2973V27.1423H65.7785Z" fill="#F2F2F2"/>
<path d="M65.7785 21.7154V27.1423H60.2973V21.7154H65.7785Z" fill="#F2F2F2"/>
<path d="M65.7785 16.2846V21.7154H60.2973V16.2846H65.7785Z" fill="#F2F2F2"/>
<path d="M65.7785 10.8577V16.2846H60.2973V10.8577H65.7785Z" fill="#F2F2F2"/>
<path d="M60.2973 65.1423V70.5731H54.8149V65.1423H60.2973Z" fill="#CEE0E0"/>
<path d="M60.2973 59.7154V65.1423H54.8149V59.7154H60.2973Z" fill="#CEE0E0"/>
<path d="M60.2973 54.2846V59.7154H54.8149V54.2846H60.2973Z" fill="#CEE0E0"/>
<path d="M60.2973 48.8577V54.2846H54.8149V48.8577H60.2973Z" fill="#CEE0E0"/>
<path d="M60.2973 43.4269V48.8577H54.8149V43.4269H60.2973Z" fill="#CEE0E0"/>
<path d="M60.2973 38V43.4269H54.8149V38H60.2973Z" fill="#F2F2F2"/>
<path d="M60.2973 32.5692V38H54.8149V32.5692H60.2973Z" fill="#F2F2F2"/>
<path d="M60.2973 27.1423V32.5692H54.8149V27.1423H60.2973Z" fill="#F2F2F2"/>
<path d="M60.2973 21.7154V27.1423H54.8149V21.7154H60.2973Z" fill="#F2F2F2"/>
<path d="M60.2973 16.2846V21.7154H54.8149V16.2846H60.2973Z" fill="#F2F2F2"/>
<path d="M60.2973 10.8577V16.2846H54.8149V10.8577H60.2973Z" fill="#F2F2F2"/>
<path d="M54.8149 65.1423V70.5731H49.3338V65.1423H54.8149Z" fill="#CEE0E0"/>
<path d="M54.8149 59.7154V65.1423H49.3338V59.7154H54.8149Z" fill="#CEE0E0"/>
<path d="M54.8149 54.2846V59.7154H49.3338V54.2846H54.8149Z" fill="#CEE0E0"/>
<path d="M54.8149 48.8577V54.2846H49.3338V48.8577H54.8149Z" fill="#CEE0E0"/>
<path d="M54.8149 43.4269V48.8577H49.3338V43.4269H54.8149Z" fill="#CEE0E0"/>
<path d="M54.8149 38V43.4269H49.3338V38H54.8149Z" fill="#F2F2F2"/>
<path d="M54.8149 32.5692V38H49.3338V32.5692H54.8149Z" fill="#F2F2F2"/>
<path d="M54.8149 27.1423V32.5692H49.3338V27.1423H54.8149Z" fill="#F2F2F2"/>
<path d="M54.8149 21.7154V27.1423H49.3338V21.7154H54.8149Z" fill="#F2F2F2"/>
<path d="M54.8149 16.2846V21.7154H49.3338V16.2846H54.8149Z" fill="#F2F2F2"/>
<path d="M49.3338 59.7154V65.1423L43.8514 65.1423V59.7154H49.3338Z" fill="#CEE0E0"/>
<path d="M49.3338 54.2846V59.7154H43.8514V54.2846H49.3338Z" fill="#CEE0E0"/>
<path d="M49.3338 48.8577V54.2846H43.8514V48.8577H49.3338Z" fill="#CEE0E0"/>
<path d="M49.3338 43.4269V48.8577H43.8514V43.4269H49.3338Z" fill="#CEE0E0"/>
<path d="M49.3338 38V43.4269H43.8514V38H49.3338Z" fill="#CEE0E0"/>
<path d="M49.3338 32.5692V38H43.8514V32.5692H49.3338Z" fill="#F2F2F2"/>
<path d="M49.3338 27.1423V32.5692H43.8514V27.1423H49.3338Z" fill="#F2F2F2"/>
<path d="M49.3338 21.7154V27.1423H43.8514V21.7154H49.3338Z" fill="#F2F2F2"/>
<path d="M43.8514 59.7154V65.1423H38.3704V59.7154H43.8514Z" fill="#CEE0E0"/>
<path d="M43.8514 54.2846V59.7154H38.3704V54.2846H43.8514Z" fill="#CEE0E0"/>
<path d="M43.8514 48.8577V54.2846H38.3704V48.8577H43.8514Z" fill="#CEE0E0"/>
<path d="M43.8514 43.4269V48.8577H38.3704V43.4269H43.8514Z" fill="#CEE0E0"/>
<path d="M43.8514 38V43.4269H38.3704V38H43.8514Z" fill="#F2F2F2"/>
<path d="M43.8514 32.5692V38H38.3704V32.5692H43.8514Z" fill="#F2F2F2"/>
<path d="M43.8514 27.1423V32.5692H38.3704V27.1423H43.8514Z" fill="#F2F2F2"/>
<path d="M43.8514 21.7154V27.1423H38.3704V21.7154H43.8514Z" fill="#F2F2F2"/>
<path d="M38.3704 65.1423L38.3704 70.5731H32.888V65.1423L38.3704 65.1423Z" fill="#CEE0E0"/>
<path d="M38.3704 59.7154V65.1423L32.888 65.1423V59.7154H38.3704Z" fill="#CEE0E0"/>
<path d="M38.3704 54.2846V59.7154H32.888V54.2846H38.3704Z" fill="#CEE0E0"/>
<path d="M38.3704 48.8577V54.2846H32.888V48.8577H38.3704Z" fill="#F2F2F2"/>
<path d="M38.3704 43.4269V48.8577H32.888V43.4269H38.3704Z" fill="#F2F2F2"/>
<path d="M38.3704 38V43.4269H32.888V38H38.3704Z" fill="#F2F2F2"/>
<path d="M38.3704 32.5692V38H32.888V32.5692H38.3704Z" fill="#F2F2F2"/>
<path d="M38.3704 27.1423V32.5692H32.888V27.1423H38.3704Z" fill="#F2F2F2"/>
<path d="M38.3704 21.7154V27.1423H32.888V21.7154H38.3704Z" fill="#F2F2F2"/>
<path d="M32.888 65.1423V70.5731H27.4069V65.1423H32.888Z" fill="#CEE0E0"/>
<path d="M32.888 59.7154V65.1423H27.4069V59.7154H32.888Z" fill="#CEE0E0"/>
<path d="M32.888 54.2846V59.7154H27.4069V54.2846H32.888Z" fill="#CEE0E0"/>
<path d="M32.888 48.8577V54.2846H27.4069V48.8577H32.888Z" fill="#F2F2F2"/>
<path d="M32.888 43.4269V48.8577H27.4069V43.4269H32.888Z" fill="#F2F2F2"/>
<path d="M32.888 38V43.4269H27.4069V38H32.888Z" fill="#F2F2F2"/>
<path d="M32.888 32.5692V38H27.4069V32.5692H32.888Z" fill="#F2F2F2"/>
<path d="M32.888 27.1423V32.5692H27.4069V27.1423H32.888Z" fill="#F2F2F2"/>
<path d="M32.888 21.7154V27.1423H27.4069V21.7154H32.888Z" fill="#F2F2F2"/>
<path d="M27.4069 65.1423V70.5731H21.9257V65.1423H27.4069Z" fill="#CEE0E0"/>
<path d="M27.4069 59.7154V65.1423H21.9257V59.7154H27.4069Z" fill="#CEE0E0"/>
<path d="M27.4069 54.2846V59.7154H21.9257V54.2846H27.4069Z" fill="#CEE0E0"/>
<path d="M27.4069 48.8577V54.2846H21.9257V48.8577H27.4069Z" fill="#CEE0E0"/>
<path d="M27.4069 43.4269V48.8577H21.9257V43.4269H27.4069Z" fill="#F2F2F2"/>
<path d="M27.4069 38V43.4269H21.9257V38H27.4069Z" fill="#F2F2F2"/>
<path d="M27.4069 32.5692V38H21.9257V32.5692H27.4069Z" fill="#F2F2F2"/>
<path d="M27.4069 27.1423V32.5692H21.9257V27.1423H27.4069Z" fill="#F2F2F2"/>
<path d="M27.4069 21.7154V27.1423H21.9257V21.7154H27.4069Z" fill="#F2F2F2"/>
<path d="M21.9257 59.7154V65.1423L16.446 65.1423V59.7154H21.9257Z" fill="#CEE0E0"/>
<path d="M21.9257 54.2846V59.7154H16.446V54.2846H21.9257Z" fill="#CEE0E0"/>
<path d="M21.9257 48.8577V54.2846H16.446V48.8577H21.9257Z" fill="#F2F2F2"/>
<path d="M21.9257 43.4269V48.8577H16.446V43.4269H21.9257Z" fill="#F2F2F2"/>
<path d="M21.9257 38V43.4269H16.446V38H21.9257Z" fill="#F2F2F2"/>
<path d="M21.9257 32.5692V38H16.446V32.5692H21.9257Z" fill="#F2F2F2"/>
<path d="M21.9257 27.1423V32.5692H16.446V27.1423H21.9257Z" fill="#F2F2F2"/>
<path d="M16.446 54.2846V59.7154L10.9636 59.7154V54.2846H16.446Z" fill="#CEE0E0"/>
<path d="M16.446 48.8577V54.2846H10.9636V48.8577H16.446Z" fill="#CEE0E0"/>
<path d="M16.446 43.4269V48.8577H10.9636V43.4269H16.446Z" fill="#F2F2F2"/>
<path d="M16.446 38V43.4269H10.9636V38H16.446Z" fill="#F2F2F2"/>
<path d="M16.446 32.5692V38H10.9636V32.5692H16.446Z" fill="#F2F2F2"/>
<path d="M16.446 27.1423V32.5692H10.9636V27.1423H16.446Z" fill="#F2F2F2"/>
<path d="M10.9636 48.8577V54.2846L5.48239 54.2846V48.8577H10.9636Z" fill="#CEE0E0"/>
<path d="M10.9636 43.4269V48.8577H5.48239V43.4269H10.9636Z" fill="#F2F2F2"/>
<path d="M10.9636 38V43.4269H5.48239V38H10.9636Z" fill="#F2F2F2"/>
<path d="M5.48239 48.8577V54.2846H0V48.8577H5.48239Z" fill="#CEE0E0"/>
<path d="M5.48239 43.4269V48.8577H0V43.4269H5.48239Z" fill="#F2F2F2"/>
</svg>
