<svg width="121" height="511" viewBox="0 0 121 511" fill="none" xmlns="http://www.w3.org/2000/svg">
<path d="M38.2207 477.561H34.0825V473.423H38.2207V477.561Z" fill="#DC8A0D"/>
<path d="M42.3574 477.561H38.2203V473.423H42.3574V477.561Z" fill="#231F20"/>
<path d="M34.084 477.561H29.9468V473.423H34.084V477.561Z" fill="#DC8A0D"/>
<path d="M21.6719 477.561H17.5337V473.423H21.6719V477.561Z" fill="#231F20"/>
<path d="M29.9453 477.561H25.8071V473.423H29.9453V477.561Z" fill="#231F20"/>
<path d="M17.5312 477.561H13.3941V473.423H17.5312V477.561Z" fill="#FAB20B"/>
<path d="M79.6016 473.423V477.561H75.4644V473.423H79.6016Z" fill="#231F20"/>
<path d="M75.4648 477.561H71.3267V473.423H75.4648V477.561Z" fill="#FAB20B"/>
<path d="M67.1875 477.561H63.0493V473.423H67.1875V477.561Z" fill="#FAB20B"/>
<path d="M63.0508 477.561H58.9126V473.423H63.0508V477.561Z" fill="#231F20"/>
<path d="M71.3242 477.561H67.186V473.423H71.3242V477.561Z" fill="#231F20"/>
<path d="M13.3945 477.561H9.25634V473.423H13.3945V477.561Z" fill="#231F20"/>
<path d="M9.25586 456.871H5.11767V452.732H9.25586V456.871Z" fill="#231F20"/>
<path d="M9.25586 440.319H5.11767V436.182H9.25586V440.319Z" fill="#231F20"/>
<path d="M9.25586 452.733H5.11767V448.596H9.25586V452.733Z" fill="#231F20"/>
<path d="M75.4648 469.285H71.3267V465.147H75.4648V469.285Z" fill="#A94019"/>
<path d="M71.3242 469.285H67.186V465.147H71.3242V469.285Z" fill="#231F20"/>
<path d="M67.1875 469.285H63.0493V465.147H67.1875V469.285Z" fill="#A94019"/>
<path d="M42.3574 469.285H38.2203V465.147H42.3574V469.285Z" fill="#A94019"/>
<path d="M46.498 469.285H42.3599V465.147H46.498V469.285Z" fill="#231F20"/>
<path d="M63.0508 469.285H58.9126V465.147H63.0508V469.285Z" fill="#231F20"/>
<path d="M79.6016 469.285H75.4644V465.147H79.6016V469.285Z" fill="#231F20"/>
<path d="M17.5312 465.147H13.3941V461.009H17.5312V465.147Z" fill="#FCCB06"/>
<path d="M17.5312 432.044H13.3941V427.906H17.5312V432.044Z" fill="#231F20"/>
<path d="M17.5312 436.18H13.3941V432.043H17.5312V436.18Z" fill="#231F20"/>
<path d="M17.5312 444.458H13.3941V440.319H17.5312V444.458Z" fill="#231F20"/>
<path d="M17.5312 448.596H13.3941V444.458H17.5312V448.596Z" fill="#231F20"/>
<path d="M38.2109 469.285H34.0727V465.147H38.2109V469.285Z" fill="#DC8A0D"/>
<path d="M17.5312 440.319H13.3941V436.182H17.5312V440.319Z" fill="#231F20"/>
<path d="M25.8086 469.285H21.6704V465.147H25.8086V469.285Z" fill="#DC8A0D"/>
<path d="M29.9453 469.285H25.8071V465.147H29.9453V469.285Z" fill="#231F20"/>
<path d="M34.1191 469.285H29.981V465.147H34.1191V469.285Z" fill="#DC8A0D"/>
<path d="M21.6719 469.285H17.5337V465.147H21.6719V469.285Z" fill="#A94019"/>
<path d="M17.5312 452.733H13.3941V448.596H17.5312V452.733Z" fill="#231F20"/>
<path d="M17.5312 461.009H13.3941V456.871H17.5312V461.009Z" fill="#231F20"/>
<path d="M17.5312 456.871H13.3941V452.732H17.5312V456.871Z" fill="#231F20"/>
<path d="M17.5312 469.285H13.3941V465.147H17.5312V469.285Z" fill="#A94019"/>
<path d="M13.3945 465.147H9.25634V461.009H13.3945V465.147Z" fill="#231F20"/>
<path d="M13.3945 469.285H9.25634V465.147H13.3945V469.285Z" fill="#231F20"/>
<path d="M13.3945 436.18H9.25634V432.043H13.3945V436.18Z" fill="#231F20"/>
<path d="M13.3945 473.422H9.25634V469.284H13.3945V473.422Z" fill="#231F20"/>
<path d="M42.3574 473.422H38.2203V469.284H42.3574V473.422Z" fill="#DC8A0D"/>
<path d="M34.084 473.422H29.9468V469.284H34.084V473.422Z" fill="#DC8A0D"/>
<path d="M38.2207 473.422H34.0825V469.284H38.2207V473.422Z" fill="#DC8A0D"/>
<path d="M46.498 473.422H42.3599V469.284H46.498V473.422Z" fill="#231F20"/>
<path d="M25.8086 473.422H21.6704V469.284H25.8086V473.422Z" fill="#231F20"/>
<path d="M21.6719 473.422H17.5337V469.284H21.6719V473.422Z" fill="#DC8A0D"/>
<path d="M17.5312 473.422H13.3941V469.284H17.5312V473.422Z" fill="#A94019"/>
<path d="M29.9453 473.422H25.8071V469.284H29.9453V473.422Z" fill="#231F20"/>
<path d="M75.4648 473.422H71.3267V469.284H75.4648V473.422Z" fill="#FAB20B"/>
<path d="M79.6016 473.422H75.4644V469.284H79.6016V473.422Z" fill="#231F20"/>
<path d="M63.0508 473.422H58.9126V469.284H63.0508V473.422Z" fill="#231F20"/>
<path d="M71.3242 473.422H67.186V469.284H71.3242V473.422Z" fill="#231F20"/>
<path d="M67.1875 473.422H63.0493V469.284H67.1875V473.422Z" fill="#FAB20B"/>
<path d="M21.6719 485.836H17.5337V481.699H21.6719V485.836Z" fill="#231F20"/>
<path d="M13.3945 485.836H9.25634V481.699H13.3945V485.836Z" fill="#231F20"/>
<path d="M17.5312 485.836H13.3941V481.699H17.5312V485.836Z" fill="#FEE795"/>
<path d="M29.9453 489.974H25.8071V485.836H29.9453V489.974Z" fill="#231F20"/>
<path d="M34.084 489.974H29.9468V485.836H34.084V489.974Z" fill="#FEE795"/>
<path d="M38.2207 489.974H34.0825V485.836H38.2207V489.974Z" fill="#231F20"/>
<path d="M17.5312 489.974H13.3941V485.836H17.5312V489.974Z" fill="#FEE795"/>
<path d="M21.6719 489.974H17.5337V485.836H21.6719V489.974Z" fill="#231F20"/>
<path d="M13.3945 489.974H9.25634V485.836H13.3945V489.974Z" fill="#231F20"/>
<path d="M75.4648 489.974H71.3267V485.836H75.4648V489.974Z" fill="#FEE795"/>
<path d="M79.6016 485.836V489.974H75.4644V485.836H79.6016Z" fill="#231F20"/>
<path d="M71.3242 489.974H67.186V485.836H71.3242V489.974Z" fill="#231F20"/>
<path d="M63.0508 489.974H58.9126V485.836H63.0508V489.974Z" fill="#231F20"/>
<path d="M67.1875 489.974H63.0493V485.836H67.1875V489.974Z" fill="#FEE795"/>
<path d="M29.9453 485.836H25.8071V481.699H29.9453V485.836Z" fill="#231F20"/>
<path d="M5.11914 444.458H0.980952V440.319H5.11914V444.458Z" fill="#231F20"/>
<path d="M5.11914 448.596H0.980952V444.458H5.11914V448.596Z" fill="#231F20"/>
<path d="M34.084 485.836H29.9468V481.699H34.084V485.836Z" fill="#FEE795"/>
<path d="M34.084 481.699H29.9468V477.561H34.084V481.699Z" fill="#DC8A0D"/>
<path d="M29.9453 481.699H25.8071V477.561H29.9453V481.699Z" fill="#231F20"/>
<path d="M13.3945 481.699H9.25634V477.561H13.3945V481.699Z" fill="#231F20"/>
<path d="M17.5312 481.699H13.3941V477.561H17.5312V481.699Z" fill="#FAB20B"/>
<path d="M21.6719 481.699H17.5337V477.561H21.6719V481.699Z" fill="#231F20"/>
<path d="M38.2207 481.699H34.0825V477.561H38.2207V481.699Z" fill="#231F20"/>
<path d="M75.4648 481.699H71.3267V477.561H75.4648V481.699Z" fill="#FAB20B"/>
<path d="M79.6016 477.561V481.699H75.4644V477.561H79.6016Z" fill="#231F20"/>
<path d="M71.3242 481.699H67.186V477.561H71.3242V481.699Z" fill="#231F20"/>
<path d="M63.0508 481.699H58.9126V477.561H63.0508V481.699Z" fill="#231F20"/>
<path d="M67.1875 481.699H63.0493V477.561H67.1875V481.699Z" fill="#FAB20B"/>
<path d="M75.4648 485.836H71.3267V481.699H75.4648V485.836Z" fill="#FEE795"/>
<path d="M63.0508 485.836H58.9126V481.699H63.0508V485.836Z" fill="#231F20"/>
<path d="M67.1875 485.836H63.0493V481.699H67.1875V485.836Z" fill="#FEE795"/>
<path d="M38.2207 485.836H34.0825V481.699H38.2207V485.836Z" fill="#231F20"/>
<path d="M79.6016 481.699V485.836H75.4644V481.699H79.6016Z" fill="#231F20"/>
<path d="M71.3242 485.836H67.186V481.699H71.3242V485.836Z" fill="#231F20"/>
<path d="M71.3242 432.044H67.186V427.906H71.3242V432.044Z" fill="#A94019"/>
<path d="M42.3574 427.906H38.2203V423.769H42.3574V427.906Z" fill="#FAB20B"/>
<path d="M42.3574 423.768H38.2203V419.63H42.3574V423.768Z" fill="#CB5D19"/>
<path d="M42.3574 432.044H38.2203V427.906H42.3574V432.044Z" fill="#FAB20B"/>
<path d="M42.3574 419.631H38.2203V415.493H42.3574V419.631Z" fill="#231F20"/>
<path d="M42.3574 436.18H38.2203V432.043H42.3574V436.18Z" fill="#A94019"/>
<path d="M42.3574 440.319H38.2203V436.182H42.3574V440.319Z" fill="#A94019"/>
<path d="M42.3574 444.458H38.2203V440.319H42.3574V444.458Z" fill="#A94019"/>
<path d="M67.1875 444.458H63.0493V440.319H67.1875V444.458Z" fill="#A94019"/>
<path d="M63.0508 444.458H58.9126V440.319H63.0508V444.458Z" fill="#FAB20B"/>
<path d="M83.7383 444.457H79.6001V440.32H83.7383V444.457Z" fill="#742415"/>
<path d="M79.6016 440.32V444.458H75.4644V440.319L79.6016 440.32Z" fill="#A94019"/>
<path d="M75.4648 444.458H71.3267V440.319H75.4648V444.458Z" fill="#FAB20B"/>
<path d="M46.498 444.458H42.3599V440.319H46.498V444.458Z" fill="#A94019"/>
<path d="M58.9102 444.458H54.773V440.319H58.9102V444.458Z" fill="#FAB20B"/>
<path d="M50.6348 444.458H46.4966V440.319H50.6348V444.458Z" fill="#A94019"/>
<path d="M54.7715 444.458H50.6333V440.319H54.7715V444.458Z" fill="#FAB20B"/>
<path d="M71.3242 444.458H67.186V440.319H71.3242V444.458Z" fill="#FAB20B"/>
<path d="M87.877 444.457H83.7388V440.32H87.877V444.457Z" fill="#231F20"/>
<path d="M79.6016 448.596V452.733H75.4644V448.596H79.6016Z" fill="#742415"/>
<path d="M83.7383 452.733H79.6001V448.596H83.7383V452.733Z" fill="#231F20"/>
<path d="M75.4648 452.733H71.3267V448.596H75.4648V452.733Z" fill="#FAB20B"/>
<path d="M71.3242 452.733H67.186V448.596H71.3242V452.733Z" fill="#FAB20B"/>
<path d="M63.0508 452.733H58.9126V448.596H63.0508V452.733Z" fill="#FAB20B"/>
<path d="M58.9102 452.733H54.773V448.596H58.9102V452.733Z" fill="#A94019"/>
<path d="M67.1875 452.733H63.0493V448.596H67.1875V452.733Z" fill="#FAB20B"/>
<path d="M46.498 448.596H42.3599V444.458H46.498V448.596Z" fill="#A94019"/>
<path d="M71.3242 448.596H67.186V444.458H71.3242V448.596Z" fill="#FAB20B"/>
<path d="M58.9102 448.596H54.773V444.458H58.9102V448.596Z" fill="#FAB20B"/>
<path d="M50.6348 448.596H46.4966V444.458H50.6348V448.596Z" fill="#FAB20B"/>
<path d="M67.1875 448.596H63.0493V444.458H67.1875V448.596Z" fill="#FAB20B"/>
<path d="M63.0508 448.596H58.9126V444.458H63.0508V448.596Z" fill="#FAB20B"/>
<path d="M54.7715 448.596H50.6333V444.458H54.7715V448.596Z" fill="#FAB20B"/>
<path d="M38.2207 448.596H34.0825V444.458H38.2207V448.596Z" fill="#FAB20B"/>
<path d="M38.2207 444.458H34.0825V440.319H38.2207V444.458Z" fill="#A94019"/>
<path d="M42.3574 448.596H38.2203V444.458H42.3574V448.596Z" fill="#A94019"/>
<path d="M38.2207 440.319H34.0825V436.182H38.2207V440.319Z" fill="#A94019"/>
<path d="M75.4648 448.596H71.3267V444.458H75.4648V448.596Z" fill="#A94019"/>
<path d="M79.6016 444.458V448.596H75.4644V444.458H79.6016Z" fill="#A94019"/>
<path d="M83.7383 448.596H79.6001V444.458H83.7383V448.596Z" fill="#231F20"/>
<path d="M38.2207 436.18H34.0825V432.043H38.2207V436.18Z" fill="#FAB20B"/>
<path d="M38.2207 427.906H34.0825V423.769H38.2207V427.906Z" fill="#FAB20B"/>
<path d="M38.2207 423.768H34.0825V419.63H38.2207V423.768Z" fill="#FCCB06"/>
<path d="M38.2207 432.044H34.0825V427.906H38.2207V432.044Z" fill="#FAB20B"/>
<path d="M38.2207 419.631H34.0825V415.493H38.2207V419.631Z" fill="#231F20"/>
<path d="M67.1875 419.631H63.0493V415.493H67.1875V419.631Z" fill="#A94019"/>
<path d="M87.877 427.906H83.7388V423.769H87.877V427.906Z" fill="#231F20"/>
<path d="M83.7383 398.94H79.6001V394.802H83.7383V398.94Z" fill="#231F20"/>
<path d="M79.6016 398.94H75.4644V394.802H79.6016V398.94Z" fill="#742415"/>
<path d="M87.877 419.631H83.7388V415.493H87.877V419.631Z" fill="#231F20"/>
<path d="M87.877 423.768H83.7388V419.63H87.877V423.768Z" fill="#231F20"/>
<path d="M75.4648 398.94H71.3267V394.802H75.4648V398.94Z" fill="#FAB20B"/>
<path d="M71.3242 398.94H67.186V394.802H71.3242V398.94Z" fill="#FAB20B"/>
<path d="M58.9102 423.768H54.773V419.63H58.9102V423.768Z" fill="#FCCB06"/>
<path d="M58.9102 419.631H54.773V415.493H58.9102V419.631Z" fill="#231F20"/>
<path d="M67.1875 398.94H63.0493V394.802H67.1875V398.94Z" fill="#231F20"/>
<path d="M54.7715 419.631H50.6333V415.493H54.7715V419.631Z" fill="#231F20"/>
<path d="M58.9102 427.906H54.773V423.769H58.9102V427.906Z" fill="#FAB20B"/>
<path d="M83.7383 427.906H79.6001V423.769H83.7383V427.906Z" fill="#A94019"/>
<path d="M75.4648 432.044H71.3267V427.906H75.4648V432.044Z" fill="#FAB20B"/>
<path d="M79.6016 427.906V432.044H75.4644V427.906H79.6016Z" fill="#FAB20B"/>
<path d="M83.7383 432.044H79.6001V427.906H83.7383V432.044Z" fill="#A94019"/>
<path d="M54.7715 427.906H50.6333V423.769H54.7715V427.906Z" fill="#FAB20B"/>
<path d="M58.9102 432.044H54.773V427.906H58.9102V432.044Z" fill="#FAB20B"/>
<path d="M54.7715 432.044H50.6333V427.906H54.7715V432.044Z" fill="#FAB20B"/>
<path d="M63.0508 432.044H58.9126V427.906H63.0508V432.044Z" fill="#A94019"/>
<path d="M67.1875 432.044H63.0493V427.906H67.1875V432.044Z" fill="#A94019"/>
<path d="M63.0508 427.906H58.9126V423.769H63.0508V427.906Z" fill="#FAB20B"/>
<path d="M79.6016 415.492H75.4644V411.354H79.6016V415.492Z" fill="#DC8A0D"/>
<path d="M79.6016 411.353H75.4644V407.215H79.6016V411.353Z" fill="#DC8A0D"/>
<path d="M67.1875 394.803H63.0493V390.665H67.1875V394.803Z" fill="#231F20"/>
<path d="M79.6016 407.215H75.4644V403.078H79.6016V407.215Z" fill="#742415"/>
<path d="M79.6016 419.631H75.4644V415.493H79.6016V419.631Z" fill="#FAB20B"/>
<path d="M71.3242 407.215H67.186V403.078H71.3242V407.215Z" fill="#FAB20B"/>
<path d="M67.1875 423.768H63.0493V419.63H67.1875V423.768Z" fill="#FAB20B"/>
<path d="M63.0508 423.768H58.9126V419.63H63.0508V423.768Z" fill="#FAB20B"/>
<path d="M71.3242 423.768H67.186V419.63H71.3242V423.768Z" fill="#FAB20B"/>
<path d="M75.4648 423.768H71.3267V419.63H75.4648V423.768Z" fill="#FAB20B"/>
<path d="M75.4648 419.631H71.3267V415.493H75.4648V419.631Z" fill="#FAB20B"/>
<path d="M71.3242 415.492H67.186V411.354H71.3242V415.492Z" fill="#A94019"/>
<path d="M75.4648 415.492H71.3267V411.354H75.4648V415.492Z" fill="#FAB20B"/>
<path d="M75.4648 411.353H71.3267V407.215H75.4648V411.353Z" fill="#FAB20B"/>
<path d="M71.3242 411.353H67.186V407.215H71.3242V411.353Z" fill="#FAB20B"/>
<path d="M67.1875 407.215H63.0493V403.078H67.1875V407.215Z" fill="#231F20"/>
<path d="M67.1875 415.492H63.0493V411.354H67.1875V415.492Z" fill="#CB5D19"/>
<path d="M71.3242 419.631H67.186V415.493H71.3242V419.631Z" fill="#FAB20B"/>
<path d="M67.1875 411.353H63.0493V407.215H67.1875V411.353Z" fill="#231F20"/>
<path d="M54.7715 452.733H50.6333V448.596H54.7715V452.733Z" fill="#A94019"/>
<path d="M75.4648 407.215H71.3267V403.078H75.4648V407.215Z" fill="#A94019"/>
<path d="M83.7383 419.631H79.6001V415.493H83.7383V419.631Z" fill="#CB5D19"/>
<path d="M79.6016 423.768H75.4644V419.63H79.6016V423.768Z" fill="#A94019"/>
<path d="M83.7383 423.768H79.6001V419.63H83.7383V423.768Z" fill="#A94019"/>
<path d="M83.7383 415.492H79.6001V411.354H83.7383V415.492Z" fill="#231F20"/>
<path d="M83.7383 411.353H79.6001V407.215H83.7383V411.353Z" fill="#231F20"/>
<path d="M79.6016 427.906H75.4644V423.769H79.6016V427.906Z" fill="#A94019"/>
<path d="M71.3242 427.906H67.186V423.769H71.3242V427.906Z" fill="#FAB20B"/>
<path d="M67.1875 427.906H63.0493V423.769H67.1875V427.906Z" fill="#A94019"/>
<path d="M83.7383 407.215H79.6001V403.078H83.7383V407.215Z" fill="#231F20"/>
<path d="M75.4648 427.906H71.3267V423.769H75.4648V427.906Z" fill="#FAB20B"/>
<path d="M71.3242 403.079H67.186V398.94H71.3242V403.079Z" fill="#FAB20B"/>
<path d="M63.0508 415.492H58.9126V411.354H63.0508V415.492Z" fill="#231F20"/>
<path d="M75.4648 403.079H71.3267V398.94H75.4648V403.079Z" fill="#A94019"/>
<path d="M79.6016 403.079H75.4644V398.94H79.6016V403.079Z" fill="#742415"/>
<path d="M83.7383 403.079H79.6001V398.94H83.7383V403.079Z" fill="#231F20"/>
<path d="M67.1875 403.079H63.0493V398.94H67.1875V403.079Z" fill="#231F20"/>
<path d="M63.0508 419.631H58.9126V415.493H63.0508V419.631Z" fill="#CB5D19"/>
<path d="M54.7715 423.768H50.6333V419.63H54.7715V423.768Z" fill="#CB5D19"/>
<path d="M87.877 440.32H83.7388V436.181H87.877V440.32Z" fill="#231F20"/>
<path d="M83.7383 440.32H79.6001V436.181H83.7383V440.32Z" fill="#FAB20B"/>
<path d="M79.6016 436.181V440.32L75.4644 440.319V436.181H79.6016Z" fill="#FAB20B"/>
<path d="M46.498 419.631H42.3599V415.493H46.498V419.631Z" fill="#231F20"/>
<path d="M46.498 423.768H42.3599V419.63H46.498V423.768Z" fill="#CB5D19"/>
<path d="M46.498 432.044H42.3599V427.906H46.498V432.044Z" fill="#FAB20B"/>
<path d="M46.498 427.906H42.3599V423.769H46.498V427.906Z" fill="#A94019"/>
<path d="M67.1875 440.319H63.0493V436.182H67.1875V440.319Z" fill="#A94019"/>
<path d="M71.3242 440.319H67.186V436.182H71.3242V440.319Z" fill="#A94019"/>
<path d="M63.0508 440.319H58.9126V436.182H63.0508V440.319Z" fill="#A94019"/>
<path d="M46.498 436.18H42.3599V432.043H46.498V436.18Z" fill="#A94019"/>
<path d="M75.4648 440.319H71.3267V436.182H75.4648V440.319Z" fill="#FAB20B"/>
<path d="M50.6348 440.319H46.4966V436.182H50.6348V440.319Z" fill="#A94019"/>
<path d="M46.498 440.319H42.3599V436.182H46.498V440.319Z" fill="#A94019"/>
<path d="M58.9102 440.319H54.773V436.182H58.9102V440.319Z" fill="#FAB20B"/>
<path d="M54.7715 440.319H50.6333V436.182H54.7715V440.319Z" fill="#FAB20B"/>
<path d="M87.877 432.044H83.7388V427.906H87.877V432.044Z" fill="#231F20"/>
<path d="M71.3242 394.803H67.186V390.665H71.3242V394.803Z" fill="#FAB20B"/>
<path d="M83.7383 436.18H79.6001V432.043H83.7383V436.18Z" fill="#FAB20B"/>
<path d="M79.6016 432.043V436.18H75.4644V432.043H79.6016Z" fill="#FAB20B"/>
<path d="M75.4648 436.18H71.3267V432.043H75.4648V436.18Z" fill="#A94019"/>
<path d="M87.877 436.18H83.7388V432.043H87.877V436.18Z" fill="#231F20"/>
<path d="M83.7383 394.803H79.6001V390.665H83.7383V394.803Z" fill="#231F20"/>
<path d="M79.6016 394.803H75.4644V390.665H79.6016V394.803Z" fill="#DC8A0D"/>
<path d="M75.4648 394.803H71.3267V390.665H75.4648V394.803Z" fill="#FAB20B"/>
<path d="M71.3242 436.18H67.186V432.043H71.3242V436.18Z" fill="#A94019"/>
<path d="M67.1875 436.18H63.0493V432.043H67.1875V436.18Z" fill="#A94019"/>
<path d="M67.166 386.598H63.0112V390.735H67.166V386.598Z" fill="#231F20"/>
<path d="M71.3203 386.598H67.1655V390.735H71.3203V386.598Z" fill="#A94019"/>
<path d="M83.7832 386.598H79.6283V390.735H83.7832V386.598Z" fill="#231F20"/>
<path d="M75.4766 386.598H71.3217V390.735H75.4766V386.598Z" fill="#FAB20B"/>
<path d="M79.6289 386.598H75.4751V390.735H79.6289V386.598Z" fill="#DC8A0D"/>
<path d="M83.7832 382.459H79.6283V386.598H83.7832V382.459Z" fill="#231F20"/>
<path d="M67.166 382.459H63.0112V386.598H67.166V382.459Z" fill="#231F20"/>
<path d="M79.6289 382.459H75.4751V386.598H79.6289V382.459Z" fill="#DC8A0D"/>
<path d="M75.4766 382.459H71.3217V386.598H75.4766V382.459Z" fill="#A94019"/>
<path d="M71.3203 382.459H67.1655V386.598H71.3203V382.459Z" fill="#A94019"/>
<path d="M83.7832 370.046H79.6283V374.185H83.7832V370.046Z" fill="#231F20"/>
<path d="M79.6289 370.046H75.4751V374.185H79.6289V370.046Z" fill="#742415"/>
<path d="M75.4766 370.046H71.3217V374.185H75.4766V370.046Z" fill="#FAB20B"/>
<path d="M71.3203 370.046H67.1655V374.185H71.3203V370.046Z" fill="#FAB20B"/>
<path d="M67.166 370.046H63.0112V374.185H67.166V370.046Z" fill="#231F20"/>
<path d="M79.6289 357.633H75.4751V361.771H79.6289V357.633Z" fill="#DC8A0D"/>
<path d="M67.166 374.185H63.0112V378.323H67.166V374.185Z" fill="#231F20"/>
<path d="M79.6289 361.772H75.4751V365.909H79.6289V361.772Z" fill="#742415"/>
<path d="M71.3203 361.772H67.1655V365.909H71.3203V361.772Z" fill="#FAB20B"/>
<path d="M75.4766 357.633H71.3217V361.771H75.4766V357.633Z" fill="#FAB20B"/>
<path d="M71.3203 357.633H67.1655V361.771H71.3203V357.633Z" fill="#FAB20B"/>
<path d="M67.166 361.772H63.0112V365.909H67.166V361.772Z" fill="#231F20"/>
<path d="M67.166 357.633H63.0112V361.771H67.166V357.633Z" fill="#231F20"/>
<path d="M75.4766 361.772H71.3217V365.909H75.4766V361.772Z" fill="#A94019"/>
<path d="M83.7832 357.633H79.6283V361.771H83.7832V357.633Z" fill="#231F20"/>
<path d="M79.6289 353.558H75.4751V357.696H79.6289V353.558Z" fill="#DC8A0D"/>
<path d="M75.4766 353.558H71.3217V357.696H75.4766V353.558Z" fill="#FAB20B"/>
<path d="M71.3203 353.558H67.1655V357.696H71.3203V353.558Z" fill="#FAB20B"/>
<path d="M67.166 353.558H63.0112V357.696H67.166V353.558Z" fill="#231F20"/>
<path d="M83.7832 353.558H79.6283V357.696H83.7832V353.558Z" fill="#231F20"/>
<path d="M79.6289 349.601H75.4751V353.739H79.6289V349.601Z" fill="#DC8A0D"/>
<path d="M75.4766 349.601H71.3217V353.739H75.4766V349.601Z" fill="#FAB20B"/>
<path d="M71.3203 349.601H67.1655V353.739H71.3203V349.601Z" fill="#FAB20B"/>
<path d="M67.166 349.403H63.0112V353.541H67.166V349.403Z" fill="#231F20"/>
<path d="M83.7832 349.601H79.6283V353.739H83.7832V349.601Z" fill="#231F20"/>
<path d="M83.7832 361.772H79.6283V365.909H83.7832V361.772Z" fill="#231F20"/>
<path d="M71.3203 365.908H67.1655V370.046H71.3203V365.908Z" fill="#FAB20B"/>
<path d="M75.4766 365.908H71.3217V370.046H75.4766V365.908Z" fill="#A94019"/>
<path d="M79.6289 365.908H75.4751V370.046H79.6289V365.908Z" fill="#742415"/>
<path d="M83.7832 365.908H79.6283V370.046H83.7832V365.908Z" fill="#231F20"/>
<path d="M67.166 365.908H63.0112V370.046H67.166V365.908Z" fill="#231F20"/>
<path d="M83.7832 378.322H79.6283V382.459H83.7832V378.322Z" fill="#231F20"/>
<path d="M79.6289 378.322H75.4751V382.459H79.6289V378.322Z" fill="#DC8A0D"/>
<path d="M75.4766 378.322H71.3217V382.459H75.4766V378.322Z" fill="#A94019"/>
<path d="M71.3203 378.322H67.1655V382.459H71.3203V378.322Z" fill="#A94019"/>
<path d="M71.3203 374.185H67.1655V378.323H71.3203V374.185Z" fill="#FAB20B"/>
<path d="M83.7832 374.185H79.6283V378.323H83.7832V374.185Z" fill="#231F20"/>
<path d="M79.6289 374.185H75.4751V378.323H79.6289V374.185Z" fill="#DC8A0D"/>
<path d="M75.4766 374.185H71.3217V378.323H75.4766V374.185Z" fill="#FAB20B"/>
<path d="M67.166 378.322H63.0112V382.459H67.166V378.322Z" fill="#231F20"/>
<path d="M67.2305 345.842H63.0923V349.979H67.2305V345.842Z" fill="#231F20"/>
<path d="M71.3691 345.842H67.231V349.979H71.3691V345.842Z" fill="#A94019"/>
<path d="M83.7832 345.842H79.645V349.979H83.7832V345.842Z" fill="#231F20"/>
<path d="M75.5078 345.842H71.3696V349.979H75.5078V345.842Z" fill="#FAB20B"/>
<path d="M79.6465 345.842H75.5093V349.979H79.6465V345.842Z" fill="#DC8A0D"/>
<path d="M83.7832 341.704H79.645V345.842H83.7832V341.704Z" fill="#231F20"/>
<path d="M67.2305 341.704H63.0923V345.842H67.2305V341.704Z" fill="#231F20"/>
<path d="M79.6465 341.704H75.5093V345.842H79.6465V341.704Z" fill="#DC8A0D"/>
<path d="M75.5078 341.704H71.3696V345.842H75.5078V341.704Z" fill="#A94019"/>
<path d="M71.3691 341.704H67.231V345.842H71.3691V341.704Z" fill="#A94019"/>
<path d="M83.7832 329.291H79.645V333.429H83.7832V329.291Z" fill="#231F20"/>
<path d="M79.6465 329.291H75.5093V333.429H79.6465V329.291Z" fill="#742415"/>
<path d="M75.5078 329.291H71.3696V333.429H75.5078V329.291Z" fill="#FAB20B"/>
<path d="M71.3691 329.291H67.231V333.429H71.3691V329.291Z" fill="#FAB20B"/>
<path d="M67.2305 329.291H63.0923V333.429H67.2305V329.291Z" fill="#231F20"/>
<path d="M79.6465 316.877H75.5093V321.016H79.6465V316.877Z" fill="#DC8A0D"/>
<path d="M67.2305 333.429H63.0923V337.567H67.2305V333.429Z" fill="#231F20"/>
<path d="M79.6465 321.016H75.5093V325.153H79.6465V321.016Z" fill="#742415"/>
<path d="M71.3691 321.016H67.231V325.153H71.3691V321.016Z" fill="#FAB20B"/>
<path d="M75.5078 316.877H71.3696V321.016H75.5078V316.877Z" fill="#FAB20B"/>
<path d="M71.3691 316.877H67.231V321.016H71.3691V316.877Z" fill="#FAB20B"/>
<path d="M67.2305 321.016H63.0923V325.153H67.2305V321.016Z" fill="#231F20"/>
<path d="M67.2305 316.877H63.0923V321.016H67.2305V316.877Z" fill="#231F20"/>
<path d="M75.5078 321.016H71.3696V325.153H75.5078V321.016Z" fill="#A94019"/>
<path d="M83.7832 316.877H79.645V321.016H83.7832V316.877Z" fill="#231F20"/>
<path d="M79.6465 312.802H75.5093V316.94H79.6465V312.802Z" fill="#DC8A0D"/>
<path d="M75.5078 312.802H71.3696V316.94H75.5078V312.802Z" fill="#FAB20B"/>
<path d="M71.3691 312.802H67.231V316.94H71.3691V312.802Z" fill="#FAB20B"/>
<path d="M67.2305 312.802H63.0923V316.94H67.2305V312.802Z" fill="#231F20"/>
<path d="M83.7832 312.802H79.645V316.94H83.7832V312.802Z" fill="#231F20"/>
<path d="M79.6465 308.845H75.5093V312.983H79.6465V308.845Z" fill="#DC8A0D"/>
<path d="M75.5078 308.845H71.3696V312.983H75.5078V308.845Z" fill="#FAB20B"/>
<path d="M71.3691 308.845H67.231V312.983H71.3691V308.845Z" fill="#FAB20B"/>
<path d="M67.2305 308.647H63.0923V312.785H67.2305V308.647Z" fill="#231F20"/>
<path d="M83.7832 308.845H79.645V312.983H83.7832V308.845Z" fill="#231F20"/>
<path d="M83.7832 321.016H79.645V325.153H83.7832V321.016Z" fill="#231F20"/>
<path d="M71.3691 325.152H67.231V329.29H71.3691V325.152Z" fill="#FAB20B"/>
<path d="M75.5078 325.152H71.3696V329.29H75.5078V325.152Z" fill="#A94019"/>
<path d="M79.6465 325.152H75.5093V329.29H79.6465V325.152Z" fill="#742415"/>
<path d="M83.7832 325.152H79.645V329.29H83.7832V325.152Z" fill="#231F20"/>
<path d="M67.2305 325.152H63.0923V329.29H67.2305V325.152Z" fill="#231F20"/>
<path d="M83.7832 337.566H79.645V341.703H83.7832V337.566Z" fill="#231F20"/>
<path d="M79.6465 337.566H75.5093V341.703H79.6465V337.566Z" fill="#DC8A0D"/>
<path d="M75.5078 337.566H71.3696V341.703H75.5078V337.566Z" fill="#A94019"/>
<path d="M71.3691 337.566H67.231V341.703H71.3691V337.566Z" fill="#A94019"/>
<path d="M71.3691 333.429H67.231V337.567H71.3691V333.429Z" fill="#FAB20B"/>
<path d="M83.7832 333.429H79.645V337.567H83.7832V333.429Z" fill="#231F20"/>
<path d="M79.6465 333.429H75.5093V337.567H79.6465V333.429Z" fill="#DC8A0D"/>
<path d="M75.5078 333.429H71.3696V337.567H75.5078V333.429Z" fill="#FAB20B"/>
<path d="M67.2305 337.566H63.0923V341.703H67.2305V337.566Z" fill="#231F20"/>
<path d="M67.2305 306.473H63.0923V310.61H67.2305V306.473Z" fill="#231F20"/>
<path d="M71.3691 306.473H67.231V310.61H71.3691V306.473Z" fill="#A94019"/>
<path d="M83.7832 306.473H79.645V310.61H83.7832V306.473Z" fill="#231F20"/>
<path d="M75.5078 306.473H71.3696V310.61H75.5078V306.473Z" fill="#FAB20B"/>
<path d="M79.6465 306.473H75.5093V310.61H79.6465V306.473Z" fill="#DC8A0D"/>
<path d="M83.7832 302.334H79.645V306.473H83.7832V302.334Z" fill="#231F20"/>
<path d="M67.2305 302.334H63.0923V306.473H67.2305V302.334Z" fill="#231F20"/>
<path d="M79.6465 302.334H75.5093V306.473H79.6465V302.334Z" fill="#DC8A0D"/>
<path d="M75.5078 302.334H71.3696V306.473H75.5078V302.334Z" fill="#A94019"/>
<path d="M71.3691 302.334H67.231V306.473H71.3691V302.334Z" fill="#A94019"/>
<path d="M83.7832 289.921H79.645V294.06H83.7832V289.921Z" fill="#231F20"/>
<path d="M79.6465 289.921H75.5093V294.06H79.6465V289.921Z" fill="#742415"/>
<path d="M75.5078 289.921H71.3696V294.06H75.5078V289.921Z" fill="#FAB20B"/>
<path d="M71.3691 289.921H67.231V294.06H71.3691V289.921Z" fill="#FAB20B"/>
<path d="M67.2305 289.921H63.0923V294.06H67.2305V289.921Z" fill="#231F20"/>
<path d="M79.6465 277.508H75.5093V281.646H79.6465V277.508Z" fill="#DC8A0D"/>
<path d="M67.2305 294.06H63.0923V298.198H67.2305V294.06Z" fill="#231F20"/>
<path d="M79.6465 281.647H75.5093V285.784H79.6465V281.647Z" fill="#742415"/>
<path d="M71.3691 281.647H67.231V285.784H71.3691V281.647Z" fill="#FAB20B"/>
<path d="M75.5078 277.508H71.3696V281.646H75.5078V277.508Z" fill="#FAB20B"/>
<path d="M71.3691 277.508H67.231V281.646H71.3691V277.508Z" fill="#FAB20B"/>
<path d="M67.2305 281.647H63.0923V285.784H67.2305V281.647Z" fill="#231F20"/>
<path d="M67.2305 277.508H63.0923V281.646H67.2305V277.508Z" fill="#231F20"/>
<path d="M75.5078 281.647H71.3696V285.784H75.5078V281.647Z" fill="#A94019"/>
<path d="M83.7832 277.508H79.645V281.646H83.7832V277.508Z" fill="#231F20"/>
<path d="M79.6465 273.433H75.5093V277.571H79.6465V273.433Z" fill="#DC8A0D"/>
<path d="M75.5078 273.433H71.3696V277.571H75.5078V273.433Z" fill="#FAB20B"/>
<path d="M71.3691 273.433H67.231V277.571H71.3691V273.433Z" fill="#FAB20B"/>
<path d="M67.2305 273.433H63.0923V277.571H67.2305V273.433Z" fill="#231F20"/>
<path d="M83.7832 273.433H79.645V277.571H83.7832V273.433Z" fill="#231F20"/>
<path d="M79.6465 269.476H75.5093V273.614H79.6465V269.476Z" fill="#DC8A0D"/>
<path d="M75.5078 269.476H71.3696V273.614H75.5078V269.476Z" fill="#FAB20B"/>
<path d="M71.3691 269.476H67.231V273.614H71.3691V269.476Z" fill="#FAB20B"/>
<path d="M67.2305 269.278H63.0923V273.416H67.2305V269.278Z" fill="#231F20"/>
<path d="M83.7832 269.476H79.645V273.614H83.7832V269.476Z" fill="#231F20"/>
<path d="M83.7832 281.647H79.645V285.784H83.7832V281.647Z" fill="#231F20"/>
<path d="M71.3691 285.783H67.231V289.921H71.3691V285.783Z" fill="#FAB20B"/>
<path d="M75.5078 285.783H71.3696V289.921H75.5078V285.783Z" fill="#A94019"/>
<path d="M79.6465 285.783H75.5093V289.921H79.6465V285.783Z" fill="#742415"/>
<path d="M83.7832 285.783H79.645V289.921H83.7832V285.783Z" fill="#231F20"/>
<path d="M67.2305 285.783H63.0923V289.921H67.2305V285.783Z" fill="#231F20"/>
<path d="M83.7832 298.197H79.645V302.334H83.7832V298.197Z" fill="#231F20"/>
<path d="M79.6465 298.197H75.5093V302.334H79.6465V298.197Z" fill="#DC8A0D"/>
<path d="M75.5078 298.197H71.3696V302.334H75.5078V298.197Z" fill="#A94019"/>
<path d="M71.3691 298.197H67.231V302.334H71.3691V298.197Z" fill="#A94019"/>
<path d="M71.3691 294.06H67.231V298.198H71.3691V294.06Z" fill="#FAB20B"/>
<path d="M83.7832 294.06H79.645V298.198H83.7832V294.06Z" fill="#231F20"/>
<path d="M79.6465 294.06H75.5093V298.198H79.6465V294.06Z" fill="#DC8A0D"/>
<path d="M75.5078 294.06H71.3696V298.198H75.5078V294.06Z" fill="#FAB20B"/>
<path d="M67.2305 298.197H63.0923V302.334H67.2305V298.197Z" fill="#231F20"/>
<path d="M54.7715 436.18H50.6333V432.043H54.7715V436.18Z" fill="#FAB20B"/>
<path d="M58.9102 436.18H54.773V432.043H58.9102V436.18Z" fill="#A94019"/>
<path d="M50.6348 436.18H46.4966V432.043H50.6348V436.18Z" fill="#FAB20B"/>
<path d="M63.0508 436.18H58.9126V432.043H63.0508V436.18Z" fill="#A94019"/>
<path d="M50.6348 423.768H46.4966V419.63H50.6348V423.768Z" fill="#CB5D19"/>
<path d="M50.6348 432.044H46.4966V427.906H50.6348V432.044Z" fill="#FAB20B"/>
<path d="M50.6348 419.631H46.4966V415.493H50.6348V419.631Z" fill="#231F20"/>
<path d="M50.6348 427.906H46.4966V423.769H50.6348V427.906Z" fill="#A94019"/>
<path d="M79.6016 465.147H75.4644V461.009H79.6016V465.147Z" fill="#231F20"/>
<path d="M67.1875 465.147H63.0493V461.009H67.1875V465.147Z" fill="#A94019"/>
<path d="M75.4648 465.147H71.3267V461.009H75.4648V465.147Z" fill="#742415"/>
<path d="M63.0508 465.147H58.9126V461.009H63.0508V465.147Z" fill="#231F20"/>
<path d="M71.3242 465.147H67.186V461.009H71.3242V465.147Z" fill="#231F20"/>
<path d="M25.8086 448.596H21.6704V444.458H25.8086V448.596Z" fill="#A94019"/>
<path d="M25.8086 444.458H21.6704V440.319H25.8086V444.458Z" fill="#FAB20B"/>
<path d="M25.8086 440.319H21.6704V436.182H25.8086V440.319Z" fill="#FAB20B"/>
<path d="M25.8086 452.733H21.6704V448.596H25.8086V452.733Z" fill="#A94019"/>
<path d="M50.6348 452.733H46.4966V448.596H50.6348V452.733Z" fill="#FAB20B"/>
<path d="M25.8086 423.768H21.6704V419.63H25.8086V423.768Z" fill="#231F20"/>
<path d="M25.8086 427.906H21.6704V423.769H25.8086V427.906Z" fill="#CB5D19"/>
<path d="M25.8086 436.18H21.6704V432.043H25.8086V436.18Z" fill="#A94019"/>
<path d="M25.8086 456.871H21.6704V452.732H25.8086V456.871Z" fill="#FAB20B"/>
<path d="M21.6719 440.319H17.5337V436.182H21.6719V440.319Z" fill="#FAB20B"/>
<path d="M21.6719 436.18H17.5337V432.043H21.6719V436.18Z" fill="#A94019"/>
<path d="M21.6719 444.458H17.5337V440.319H21.6719V444.458Z" fill="#A94019"/>
<path d="M21.6719 452.733H17.5337V448.596H21.6719V452.733Z" fill="#A94019"/>
<path d="M21.6719 448.596H17.5337V444.458H21.6719V448.596Z" fill="#A94019"/>
<path d="M21.6719 456.871H17.5337V452.732H21.6719V456.871Z" fill="#A94019"/>
<path d="M21.6719 432.044H17.5337V427.906H21.6719V432.044Z" fill="#CB5D19"/>
<path d="M21.6719 427.906H17.5337V423.769H21.6719V427.906Z" fill="#231F20"/>
<path d="M38.2207 465.147H34.0825V461.009H38.2207V465.147Z" fill="#DC8A0D"/>
<path d="M46.498 465.147H42.3599V461.009H46.498V465.147Z" fill="#231F20"/>
<path d="M42.3574 465.147H38.2203V461.009H42.3574V465.147Z" fill="#742415"/>
<path d="M21.6719 461.009H17.5337V456.871H21.6719V461.009Z" fill="#FAB20B"/>
<path d="M21.6719 465.147H17.5337V461.009H21.6719V465.147Z" fill="#FAB20B"/>
<path d="M25.8086 465.147H21.6704V461.009H25.8086V465.147Z" fill="#FAB20B"/>
<path d="M29.9453 465.147H25.8071V461.009H29.9453V465.147Z" fill="#742415"/>
<path d="M34.084 465.147H29.9468V461.009H34.084V465.147Z" fill="#231F20"/>
<path d="M25.8086 432.044H21.6704V427.906H25.8086V432.044Z" fill="#A94019"/>
<path d="M46.498 456.871H42.3599V452.732H46.498V456.871Z" fill="#DC8A0D"/>
<path d="M50.6348 456.871H46.4966V452.732H50.6348V456.871Z" fill="#742415"/>
<path d="M54.7715 456.871H50.6333V452.732H54.7715V456.871Z" fill="#742415"/>
<path d="M42.3574 456.871H38.2203V452.732H42.3574V456.871Z" fill="#DC8A0D"/>
<path d="M58.9102 456.871H54.773V452.732H58.9102V456.871Z" fill="#742415"/>
<path d="M29.9453 452.733H25.8071V448.596H29.9453V452.733Z" fill="#FAB20B"/>
<path d="M63.0508 456.871H58.9126V452.732H63.0508V456.871Z" fill="#742415"/>
<path d="M29.9453 456.871H25.8071V452.732H29.9453V456.871Z" fill="#FAB20B"/>
<path d="M34.084 456.871H29.9468V452.732H34.084V456.871Z" fill="#A94019"/>
<path d="M38.2207 456.871H34.0825V452.732H38.2207V456.871Z" fill="#742415"/>
<path d="M79.6016 456.871H75.4644V452.732H79.6016V456.871Z" fill="#231F20"/>
<path d="M75.4648 456.871H71.3267V452.732H75.4648V456.871Z" fill="#DC8A0D"/>
<path d="M71.3242 456.871H67.186V452.732H71.3242V456.871Z" fill="#DC8A0D"/>
<path d="M67.1875 456.871H63.0493V452.732H67.1875V456.871Z" fill="#FAB20B"/>
<path d="M29.9453 448.596H25.8071V444.458H29.9453V448.596Z" fill="#FAB20B"/>
<path d="M34.084 419.631H29.9468V415.493H34.084V419.631Z" fill="#231F20"/>
<path d="M34.084 427.906H29.9468V423.769H34.084V427.906Z" fill="#FAB20B"/>
<path d="M34.084 423.768H29.9468V419.63H34.084V423.768Z" fill="#FCCB06"/>
<path d="M38.2207 452.733H34.0825V448.596H38.2207V452.733Z" fill="#FAB20B"/>
<path d="M42.3574 452.733H38.2203V448.596H42.3574V452.733Z" fill="#FAB20B"/>
<path d="M34.084 452.733H29.9468V448.596H34.084V452.733Z" fill="#FAB20B"/>
<path d="M46.498 452.733H42.3599V448.596H46.498V452.733Z" fill="#FAB20B"/>
<path d="M25.8086 461.009H21.6704V456.871H25.8086V461.009Z" fill="#FAB20B"/>
<path d="M34.084 436.18H29.9468V432.043H34.084V436.18Z" fill="#FAB20B"/>
<path d="M34.084 440.319H29.9468V436.182H34.084V440.319Z" fill="#FAB20B"/>
<path d="M34.084 448.596H29.9468V444.458H34.084V448.596Z" fill="#FAB20B"/>
<path d="M34.084 432.044H29.9468V427.906H34.084V432.044Z" fill="#FAB20B"/>
<path d="M34.084 444.458H29.9468V440.319H34.084V444.458Z" fill="#FAB20B"/>
<path d="M46.498 461.009H42.3599V456.871H46.498V461.009Z" fill="#231F20"/>
<path d="M54.7715 461.009H50.6333V456.871H54.7715V461.009Z" fill="#231F20"/>
<path d="M50.6348 461.009H46.4966V456.871H50.6348V461.009Z" fill="#231F20"/>
<path d="M58.9102 461.009H54.773V456.871H58.9102V461.009Z" fill="#231F20"/>
<path d="M63.0508 461.009H58.9126V456.871H63.0508V461.009Z" fill="#231F20"/>
<path d="M34.084 461.009H29.9468V456.871H34.084V461.009Z" fill="#742415"/>
<path d="M29.9453 461.009H25.8071V456.871H29.9453V461.009Z" fill="#A94019"/>
<path d="M67.1875 461.009H63.0493V456.871H67.1875V461.009Z" fill="#FAB20B"/>
<path d="M38.2207 461.009H34.0825V456.871H38.2207V461.009Z" fill="#231F20"/>
<path d="M42.3574 461.009H38.2203V456.871H42.3574V461.009Z" fill="#231F20"/>
<path d="M75.4648 461.009H71.3267V456.871H75.4648V461.009Z" fill="#231F20"/>
<path d="M79.6016 461.009H75.4644V456.871H79.6016V461.009Z" fill="#231F20"/>
<path d="M71.3242 461.009H67.186V456.871H71.3242V461.009Z" fill="#231F20"/>
<path d="M29.9453 427.906H25.8071V423.769H29.9453V427.906Z" fill="#A94019"/>
<path d="M29.9453 436.18H25.8071V432.043H29.9453V436.18Z" fill="#FAB20B"/>
<path d="M29.9453 432.044H25.8071V427.906H29.9453V432.044Z" fill="#A94019"/>
<path d="M29.9453 440.319H25.8071V436.182H29.9453V440.319Z" fill="#FAB20B"/>
<path d="M29.9453 423.768H25.8071V419.63H29.9453V423.768Z" fill="#231F20"/>
<path d="M29.9453 444.458H25.8071V440.319H29.9453V444.458Z" fill="#FAB20B"/>
<path d="M34.084 510.664H29.9468V506.525H34.084V510.664Z" fill="#231F20"/>
<path d="M29.9453 510.664H25.8071V506.525H29.9453V510.664Z" fill="#231F20"/>
<path d="M38.2207 510.664H34.0825V506.525H38.2207V510.664Z" fill="#605E5E"/>
<path d="M17.5312 510.664H13.3941V506.525H17.5312V510.664Z" fill="#231F20"/>
<path d="M21.6719 510.664H17.5337V506.525H21.6719V510.664Z" fill="#605E5E"/>
<path d="M13.3945 510.664H9.25634V506.525H13.3945V510.664Z" fill="#231F20"/>
<path d="M71.3242 510.664H67.186V506.525H71.3242V510.664Z" fill="#605E5E"/>
<path d="M75.4648 510.664H71.3267V506.525H75.4648V510.664Z" fill="#231F20"/>
<path d="M79.6016 510.664H75.4644V506.525H79.6016V510.664Z" fill="#605E5E"/>
<path d="M63.0508 510.664H58.9126V506.525H63.0508V510.664Z" fill="#231F20"/>
<path d="M67.1875 510.664H63.0493V506.525H67.1875V510.664Z" fill="#231F20"/>
<path d="M71.3242 498.25H67.186V494.112H71.3242V498.25Z" fill="#231F20"/>
<path d="M67.1875 498.25H63.0493V494.112H67.1875V498.25Z" fill="#FEE795"/>
<path d="M75.4648 498.25H71.3267V494.112H75.4648V498.25Z" fill="#FEE795"/>
<path d="M63.0508 494.112V498.25H58.9126V494.112H63.0508Z" fill="#231F20"/>
<path d="M79.6016 494.112V498.25H75.4644V494.112H79.6016Z" fill="#231F20"/>
<path d="M34.084 498.25H29.9468V494.112H34.084V498.25Z" fill="#FEE795"/>
<path d="M29.9453 498.25H25.8071V494.112H29.9453V498.25Z" fill="#231F20"/>
<path d="M38.2207 498.25H34.0825V494.112H38.2207V498.25Z" fill="#231F20"/>
<path d="M21.6719 498.25H17.5337V494.112H21.6719V498.25Z" fill="#231F20"/>
<path d="M13.3945 498.25H9.25634V494.112H13.3945V498.25Z" fill="#231F20"/>
<path d="M17.5312 498.25H13.3941V494.112H17.5312V498.25Z" fill="#FEE795"/>
<path d="M34.084 494.112H29.9468V489.974H34.084V494.112Z" fill="#FEE795"/>
<path d="M38.2207 494.112H34.0825V489.974H38.2207V494.112Z" fill="#231F20"/>
<path d="M29.9453 494.112H25.8071V489.974H29.9453V494.112Z" fill="#231F20"/>
<path d="M13.3945 494.112H9.25634V489.974H13.3945V494.112Z" fill="#231F20"/>
<path d="M17.5312 494.112H13.3941V489.974H17.5312V494.112Z" fill="#FEE795"/>
<path d="M21.6719 494.112H17.5337V489.974H21.6719V494.112Z" fill="#231F20"/>
<path d="M75.4648 494.112H71.3267V489.974H75.4648V494.112Z" fill="#FEE795"/>
<path d="M79.6016 489.974V494.112H75.4644V489.974H79.6016Z" fill="#231F20"/>
<path d="M63.0508 494.112H58.9126V489.974H63.0508V494.112Z" fill="#231F20"/>
<path d="M71.3242 494.112H67.186V489.974H71.3242V494.112Z" fill="#231F20"/>
<path d="M67.1875 494.112H63.0493V489.974H67.1875V494.112Z" fill="#FEE795"/>
<path d="M71.3242 506.527H67.186V502.389H71.3242V506.527Z" fill="#231F20"/>
<path d="M63.0508 506.527H58.9126V502.389H63.0508V506.527Z" fill="#231F20"/>
<path d="M75.4648 506.527H71.3267V502.389H75.4648V506.527Z" fill="#231F20"/>
<path d="M79.6016 506.527H75.4644V502.389H79.6016V506.527Z" fill="#231F20"/>
<path d="M67.1875 506.527H63.0493V502.389H67.1875V506.527Z" fill="#231F20"/>
<path d="M13.3945 506.527H9.25634V502.389H13.3945V506.527Z" fill="#231F20"/>
<path d="M38.2207 506.527H34.0825V502.389H38.2207V506.527Z" fill="#231F20"/>
<path d="M21.6719 506.527H17.5337V502.389H21.6719V506.527Z" fill="#231F20"/>
<path d="M34.084 506.527H29.9468V502.389H34.084V506.527Z" fill="#231F20"/>
<path d="M29.9453 506.527H25.8071V502.389H29.9453V506.527Z" fill="#231F20"/>
<path d="M17.5312 506.527H13.3941V502.389H17.5312V506.527Z" fill="#231F20"/>
<path d="M108.586 33.103H104.449V28.9648H108.586V33.103Z" fill="#231F20"/>
<path d="M83.7578 33.103H79.6196V28.9648H83.7578V33.103Z" fill="#FAB20B"/>
<path d="M71.3438 33.103H67.2056V28.9648H71.3438V33.103Z" fill="#FAB20B"/>
<path d="M87.8965 33.103H83.7583V28.9648H87.8965V33.103Z" fill="#231F20"/>
<path d="M75.4844 33.103H71.3462V28.9648H75.4844V33.103Z" fill="#FAB20B"/>
<path d="M79.6211 33.103H75.4839V28.9648H79.6211V33.103Z" fill="#FAB20B"/>
<path d="M96.1738 33.103H92.0356V28.9648H96.1738V33.103Z" fill="#231F20"/>
<path d="M104.447 33.103H100.309V28.9648H104.447V33.103Z" fill="#FCCB06"/>
<path d="M100.311 33.103H96.1724V28.9648H100.311V33.103Z" fill="#FAB20B"/>
<path d="M58.9297 33.103H54.7925V28.9648H58.9297V33.103Z" fill="#231F20"/>
<path d="M67.207 33.103H63.0688V28.9648H67.207V33.103Z" fill="#FAB20B"/>
<path d="M63.0703 33.103H58.9321V28.9648H63.0703V33.103Z" fill="#FCCB06"/>
<path d="M92.0332 33.103H87.896V28.9648H92.0332V33.103Z" fill="#FAB20B"/>
<path d="M104.447 28.9653H100.309V24.8281H104.447V28.9653Z" fill="#231F20"/>
<path d="M100.311 28.9653H96.1724V24.8281H100.311V28.9653Z" fill="#FCCB06"/>
<path d="M96.1738 28.9653H92.0356V24.8281H96.1738V28.9653Z" fill="#FAB20B"/>
<path d="M71.3438 28.9653H67.2056V24.8281H71.3438V28.9653Z" fill="#FAB20B"/>
<path d="M67.207 28.9653H63.0688V24.8281H67.207V28.9653Z" fill="#FCCB06"/>
<path d="M63.0703 28.9653H58.9321V24.8281H63.0703V28.9653Z" fill="#231F20"/>
<path d="M87.8965 28.9653H83.7583V24.8281H87.8965V28.9653Z" fill="#FAB20B"/>
<path d="M83.7578 28.9653H79.6196V24.8281H83.7578V28.9653Z" fill="#FAB20B"/>
<path d="M75.4844 28.9653H71.3462V24.8281H75.4844V28.9653Z" fill="#FAB20B"/>
<path d="M92.0332 28.9653H87.896V24.8281H92.0332V28.9653Z" fill="#FAB20B"/>
<path d="M79.6211 28.9653H75.4839V24.8281H79.6211V28.9653Z" fill="#FAB20B"/>
<path d="M58.9297 37.2417H54.7925V33.1035H58.9297V37.2417Z" fill="#DC8A0D"/>
<path d="M54.793 37.2417H50.6548V33.1035H54.793V37.2417Z" fill="#231F20"/>
<path d="M96.1738 37.2417H92.0356V33.1035H96.1738V37.2417Z" fill="#231F20"/>
<path d="M63.0703 37.2417H58.9321V33.1035H63.0703V37.2417Z" fill="#DC8A0D"/>
<path d="M112.723 37.2417H108.584V33.1035H112.723V37.2417Z" fill="#231F20"/>
<path d="M108.586 37.2417H104.449V33.1035H108.586V37.2417Z" fill="#FCCB06"/>
<path d="M104.447 37.2417H100.309V33.1035H104.447V37.2417Z" fill="#FAB20B"/>
<path d="M75.4844 37.2417H71.3462V33.1035H75.4844V37.2417Z" fill="#FAB20B"/>
<path d="M79.6211 37.2417H75.4839V33.1035H79.6211V37.2417Z" fill="#FAB20B"/>
<path d="M71.3438 37.2417H67.2056V33.1035H71.3438V37.2417Z" fill="#FAB20B"/>
<path d="M67.207 37.2417H63.0688V33.1035H67.207V37.2417Z" fill="#231F20"/>
<path d="M92.0332 37.2417H87.896V33.1035H92.0332V37.2417Z" fill="#FAB20B"/>
<path d="M100.311 37.2417H96.1724V33.1035H100.311V37.2417Z" fill="#FAB20B"/>
<path d="M83.7578 37.2417H79.6196V33.1035H83.7578V37.2417Z" fill="#FAB20B"/>
<path d="M87.8965 37.2417H83.7583V33.1035H87.8965V37.2417Z" fill="#231F20"/>
<path d="M71.3438 20.6899H67.2056V16.5518H71.3438V20.6899Z" fill="#231F20"/>
<path d="M79.6211 20.6899H75.4839V16.5518H79.6211V20.6899Z" fill="#231F20"/>
<path d="M83.7578 20.6899H79.6196V16.5518H83.7578V20.6899Z" fill="#231F20"/>
<path d="M75.4844 20.6899H71.3462V16.5518H75.4844V20.6899Z" fill="#231F20"/>
<path d="M87.8965 20.6899H83.7583V16.5518H87.8965V20.6899Z" fill="#231F20"/>
<path d="M92.0332 20.6899H87.896V16.5518H92.0332V20.6899Z" fill="#231F20"/>
<path d="M100.311 24.8276H96.1724V20.6895H100.311V24.8276Z" fill="#231F20"/>
<path d="M96.1738 24.8276H92.0356V20.6895H96.1738V24.8276Z" fill="#231F20"/>
<path d="M87.8965 24.8276H83.7583V20.6895H87.8965V24.8276Z" fill="#FCCB06"/>
<path d="M92.0332 24.8276H87.896V20.6895H92.0332V24.8276Z" fill="#FCCB06"/>
<path d="M83.7578 24.8276H79.6196V20.6895H83.7578V24.8276Z" fill="#FCCB06"/>
<path d="M79.6211 24.8276H75.4839V20.6895H79.6211V24.8276Z" fill="#FCCB06"/>
<path d="M67.207 24.8276H63.0688V20.6895H67.207V24.8276Z" fill="#231F20"/>
<path d="M75.4844 24.8276H71.3462V20.6895H75.4844V24.8276Z" fill="#FCCB06"/>
<path d="M71.3438 24.8276H67.2056V20.6895H71.3438V24.8276Z" fill="#FCCB06"/>
<path d="M67.207 62.0688H63.0688V57.9316H67.207V62.0688Z" fill="#231F20"/>
<path d="M71.3438 62.0688H67.2056V57.9316H71.3438V62.0688Z" fill="#A94019"/>
<path d="M83.7578 62.0688H79.6196V57.9316H83.7578V62.0688Z" fill="#231F20"/>
<path d="M75.4844 62.0688H71.3462V57.9316H75.4844V62.0688Z" fill="#FAB20B"/>
<path d="M79.6211 62.0688H75.4839V57.9316H79.6211V62.0688Z" fill="#DC8A0D"/>
<path d="M92.0332 62.0688H87.896V57.9316H92.0332V62.0688Z" fill="#231F20"/>
<path d="M104.447 62.0688H100.309V57.9316H104.447V62.0688Z" fill="#E6C26F"/>
<path d="M104.447 66.2075H100.309V62.0693H104.447V66.2075Z" fill="#231F20"/>
<path d="M96.1738 62.0688H92.0356V57.9316H96.1738V62.0688Z" fill="#E6C26F"/>
<path d="M100.311 62.0688H96.1724V57.9316H100.311V62.0688Z" fill="#E6C26F"/>
<path d="M100.311 66.2075H96.1724V62.0693H100.311V66.2075Z" fill="#231F20"/>
<path d="M96.1738 66.2075H92.0356V62.0693H96.1738V66.2075Z" fill="#231F20"/>
<path d="M83.7578 66.2075H79.6196V62.0693H83.7578V66.2075Z" fill="#231F20"/>
<path d="M67.207 66.2075H63.0688V62.0693H67.207V66.2075Z" fill="#231F20"/>
<path d="M79.6211 66.2075H75.4839V62.0693H79.6211V66.2075Z" fill="#DC8A0D"/>
<path d="M75.4844 66.2075H71.3462V62.0693H75.4844V66.2075Z" fill="#A94019"/>
<path d="M71.3438 66.2075H67.2056V62.0693H71.3438V66.2075Z" fill="#A94019"/>
<path d="M108.586 57.9312H104.449V53.793H108.586V57.9312Z" fill="#FEE795"/>
<path d="M108.586 66.2075H104.449V62.0693H108.586V66.2075Z" fill="#231F20"/>
<path d="M108.586 62.0688H104.449V57.9316H108.586V62.0688Z" fill="#E6C26F"/>
<path d="M71.3438 57.9312H67.2056V53.793H71.3438V57.9312Z" fill="#FAB20B"/>
<path d="M83.7578 57.9312H79.6196V53.793H83.7578V57.9312Z" fill="#231F20"/>
<path d="M75.4844 57.9312H71.3462V53.793H75.4844V57.9312Z" fill="#FAB20B"/>
<path d="M79.6211 57.9312H75.4839V53.793H79.6211V57.9312Z" fill="#DC8A0D"/>
<path d="M92.0332 57.9312H87.896V53.793H92.0332V57.9312Z" fill="#E6C26F"/>
<path d="M96.1738 57.9312H92.0356V53.793H96.1738V57.9312Z" fill="#FEE795"/>
<path d="M67.207 57.9312H63.0699V53.793H67.207V57.9312Z" fill="#231F20"/>
<path d="M87.8965 57.9312H83.7583V53.793H87.8965V57.9312Z" fill="#231F20"/>
<path d="M104.447 57.9312H100.309V53.793H104.447V57.9312Z" fill="#FEE795"/>
<path d="M100.311 57.9312H96.1724V53.793H100.311V57.9312Z" fill="#FEE795"/>
<path d="M83.7578 70.3432H79.6196V66.2061H83.7578V70.3432Z" fill="#231F20"/>
<path d="M79.6211 70.3432H75.4839V66.2061H79.6211V70.3432Z" fill="#DC8A0D"/>
<path d="M75.4844 70.3432H71.3462V66.2061H75.4844V70.3432Z" fill="#A94019"/>
<path d="M71.3438 70.3432H67.2056V66.2061H71.3438V70.3432Z" fill="#A94019"/>
<path d="M67.207 70.3432H63.0688V66.2061H67.207V70.3432Z" fill="#231F20"/>
<path d="M121 49.6558H116.862V45.5176H121V49.6558Z" fill="#231F20"/>
<path d="M116.863 45.517H112.725V41.3799H116.863V45.517Z" fill="#231F20"/>
<path d="M112.723 45.517H108.584V41.3799H112.723V45.517Z" fill="#FAB20B"/>
<path d="M121 57.9312H116.862V53.793H121V57.9312Z" fill="#231F20"/>
<path d="M108.586 45.517H104.448V41.3799H108.586V45.517Z" fill="#FAB20B"/>
<path d="M121 53.7925H116.862V49.6543H121V53.7925Z" fill="#231F20"/>
<path d="M83.7578 45.517H79.6196V41.3799H83.7578V45.517Z" fill="#FAB20B"/>
<path d="M79.6211 45.517H75.4839V41.3799H79.6211V45.517Z" fill="#FAB20B"/>
<path d="M71.3438 45.517H67.2056V41.3799H71.3438V45.517Z" fill="#A94019"/>
<path d="M67.207 45.517H63.0688V41.3799H67.207V45.517Z" fill="#231F20"/>
<path d="M75.4805 45.517H71.3423V41.3799H75.4805V45.517Z" fill="#FAB20B"/>
<path d="M96.1738 45.517H92.0356V41.3799H96.1738V45.517Z" fill="#FAB20B"/>
<path d="M87.8965 45.517H83.7583V41.3799H87.8965V45.517Z" fill="#FAB20B"/>
<path d="M92.0332 45.517H87.896V41.3799H92.0332V45.517Z" fill="#FAB20B"/>
<path d="M100.311 45.517H96.1724V41.3799H100.311V45.517Z" fill="#FAB20B"/>
<path d="M104.447 45.517H100.309V41.3799H104.447V45.517Z" fill="#FAB20B"/>
<path d="M112.723 41.3794H108.584V37.2412H112.723V41.3794Z" fill="#FCCB06"/>
<path d="M116.863 41.3794H112.725V37.2412H116.863V41.3794Z" fill="#231F20"/>
<path d="M104.447 41.3794H100.309V37.2412H104.447V41.3794Z" fill="#FAB20B"/>
<path d="M108.586 41.3794H104.449V37.2412H108.586V41.3794Z" fill="#FAB20B"/>
<path d="M75.4844 41.3794H71.3462V37.2412H75.4844V41.3794Z" fill="#FAB20B"/>
<path d="M71.3438 41.3794H67.2056V37.2412H71.3438V41.3794Z" fill="#FAB20B"/>
<path d="M67.207 41.3794H63.0688V37.2412H67.207V41.3794Z" fill="#231F20"/>
<path d="M63.0703 41.3794H58.9321V37.2412H63.0703V41.3794Z" fill="#231F20"/>
<path d="M79.6211 41.3794H75.4829V37.2412H79.6211V41.3794Z" fill="#FAB20B"/>
<path d="M96.1699 41.3794H92.0328V37.2412H96.1699V41.3794Z" fill="#FCCB06"/>
<path d="M92.0332 41.3794H87.895V37.2412H92.0332V41.3794Z" fill="#FAB20B"/>
<path d="M87.8965 41.3794H83.7583V37.2412H87.8965V41.3794Z" fill="#FCCB06"/>
<path d="M83.7578 41.3794H79.6207V37.2412H83.7578V41.3794Z" fill="#FCCB06"/>
<path d="M58.9297 41.3794H54.7925V37.2412H58.9297V41.3794Z" fill="#231F20"/>
<path d="M100.311 41.3794H96.1724V37.2412H100.311V41.3794Z" fill="#FCCB06"/>
<path d="M112.723 66.2075H108.584V62.0693H112.723V66.2075Z" fill="#231F20"/>
<path d="M112.723 57.9312H108.584V53.793H112.723V57.9312Z" fill="#FEE795"/>
<path d="M112.723 62.0688H108.584V57.9316H112.723V62.0688Z" fill="#E6C26F"/>
<path d="M112.723 53.7925H108.585V49.6543H112.723V53.7925Z" fill="#FEE795"/>
<path d="M108.586 53.7925H104.449V49.6543H108.586V53.7925Z" fill="#7F2B32"/>
<path d="M83.7578 53.7925H79.6196V49.6543H83.7578V53.7925Z" fill="#DC8A0D"/>
<path d="M87.8965 53.7925H83.7583V49.6543H87.8965V53.7925Z" fill="#DC8A0D"/>
<path d="M79.6211 53.7925H75.4839V49.6543H79.6211V53.7925Z" fill="#231F20"/>
<path d="M67.207 53.7925H63.0699V49.6543H67.207V53.7925Z" fill="#231F20"/>
<path d="M71.3438 53.7925H67.2056V49.6543H71.3438V53.7925Z" fill="#FAB20B"/>
<path d="M75.4844 53.7925H71.3462V49.6543H75.4844V53.7925Z" fill="#DC8A0D"/>
<path d="M100.311 53.7925H96.1724V49.6543H100.311V53.7925Z" fill="#FEE795"/>
<path d="M92.0332 53.7925H87.896V49.6543H92.0332V53.7925Z" fill="#FEE795"/>
<path d="M104.447 53.7925H100.309V49.6543H104.447V53.7925Z" fill="#7F2B32"/>
<path d="M96.1738 53.7925H92.0356V49.6543H96.1738V53.7925Z" fill="#FEE795"/>
<path d="M116.859 62.0688H112.721V57.9316H116.859V62.0688Z" fill="#231F20"/>
<path d="M112.723 49.6558H108.585V45.5176H112.723V49.6558Z" fill="#7F2B32"/>
<path d="M79.6211 49.6558H75.4839V45.5176H79.6211V49.6558Z" fill="#DC8A0D"/>
<path d="M100.311 49.6558H96.1724V45.5176H100.311V49.6558Z" fill="#7F2B32"/>
<path d="M96.1738 49.6558H92.0356V45.5176H96.1738V49.6558Z" fill="#FEE795"/>
<path d="M104.447 49.6558H100.309V45.5176H104.447V49.6558Z" fill="#7F2B32"/>
<path d="M92.0332 49.6558H87.896V45.5176H92.0332V49.6558Z" fill="#FAB20B"/>
<path d="M87.8965 49.6558H83.7583V45.5176H87.8965V49.6558Z" fill="#FAB20B"/>
<path d="M83.7578 49.6558H79.6196V45.5176H83.7578V49.6558Z" fill="#FAB20B"/>
<path d="M116.863 53.7925H112.725V49.6543H116.863V53.7925Z" fill="#FEE795"/>
<path d="M108.586 49.6558H104.449V45.5176H108.586V49.6558Z" fill="#7F2B32"/>
<path d="M116.863 49.6558H112.725V45.5176H116.863V49.6558Z" fill="#FEE795"/>
<path d="M75.4844 49.6558H71.3462V45.5176H75.4844V49.6558Z" fill="#DC8A0D"/>
<path d="M71.3438 49.6558H67.2056V45.5176H71.3438V49.6558Z" fill="#A94019"/>
<path d="M116.859 57.9312H112.721V53.793H116.859V57.9312Z" fill="#E6C26F"/>
<path d="M67.207 49.6558H63.0688V45.5176H67.207V49.6558Z" fill="#231F20"/>
<path d="M71.3438 12.4146H67.2056V8.27637H71.3438V12.4146Z" fill="#231F20"/>
<path d="M75.4844 12.4146H71.3462V8.27637H75.4844V12.4146Z" fill="#704722"/>
<path d="M79.6211 12.4146H75.4839V8.27637H79.6211V12.4146Z" fill="#231F20"/>
<path d="M87.8965 12.4146H83.7583V8.27637H87.8965V12.4146Z" fill="#231F20"/>
<path d="M83.7578 12.4146H79.6196V8.27637H83.7578V12.4146Z" fill="#704722"/>
<path d="M71.3438 16.5513H67.2056V12.4131H71.3438V16.5513Z" fill="#231F20"/>
<path d="M75.4844 16.5513H71.3462V12.4131H75.4844V16.5513Z" fill="#704722"/>
<path d="M79.6211 16.5513H75.4839V12.4131H79.6211V16.5513Z" fill="#231F20"/>
<path d="M87.8965 16.5513H83.7583V12.4131H87.8965V16.5513Z" fill="#231F20"/>
<path d="M83.7578 16.5513H79.6196V12.4131H83.7578V16.5513Z" fill="#704722"/>
<path d="M83.7578 4.13819H79.6196V0H83.7578V4.13819Z" fill="#231F20"/>
<path d="M87.8965 4.13819H83.7583V0H87.8965V4.13819Z" fill="#231F20"/>
<path d="M71.3438 4.13819H67.2056V0H71.3438V4.13819Z" fill="#231F20"/>
<path d="M75.4844 4.13819H71.3462V0H75.4844V4.13819Z" fill="#231F20"/>
<path d="M67.207 8.27686H63.0688V4.13867H67.207V8.27686Z" fill="#231F20"/>
<path d="M79.6211 8.27686H75.4839V4.13867H79.6211V8.27686Z" fill="#231F20"/>
<path d="M71.3438 8.27686H67.2056V4.13867H71.3438V8.27686Z" fill="#916223"/>
<path d="M75.4844 8.27686H71.3462V4.13867H75.4844V8.27686Z" fill="#704722"/>
<path d="M87.8965 8.27686H83.7583V4.13867H87.8965V8.27686Z" fill="#916223"/>
<path d="M83.7578 8.27686H79.6196V4.13867H83.7578V8.27686Z" fill="#704722"/>
<path d="M92.0332 8.27686H87.896V4.13867H92.0332V8.27686Z" fill="#231F20"/>
<path d="M63.0508 498.251V502.388H58.9126V498.251H63.0508Z" fill="#231F20"/>
<path d="M34.084 502.388H29.9468V498.251H34.084V502.388Z" fill="#E6C26F"/>
<path d="M29.9453 502.388H25.8071V498.251H29.9453V502.388Z" fill="#231F20"/>
<path d="M67.1875 502.388H63.0493V498.251H67.1875V502.388Z" fill="#E6C26F"/>
<path d="M38.2207 502.388H34.0825V498.251H38.2207V502.388Z" fill="#231F20"/>
<path d="M79.6016 502.388H75.4644V498.251H79.6016V502.388Z" fill="#231F20"/>
<path d="M71.3242 502.388H67.186V498.251H71.3242V502.388Z" fill="#231F20"/>
<path d="M75.4648 502.388H71.3267V498.251H75.4648V502.388Z" fill="#E6C26F"/>
<path d="M21.6719 502.388H17.5337V498.251H21.6719V502.388Z" fill="#231F20"/>
<path d="M13.3945 502.388H9.25634V498.251H13.3945V502.388Z" fill="#231F20"/>
<path d="M17.5312 502.388H13.3941V498.251H17.5312V502.388Z" fill="#E6C26F"/>
<path d="M67.1855 267.321H63.0307V271.458H67.1855V267.321Z" fill="#231F20"/>
<path d="M71.3398 267.321H67.185V271.458H71.3398V267.321Z" fill="#A94019"/>
<path d="M83.8027 267.321H79.6479V271.458H83.8027V267.321Z" fill="#231F20"/>
<path d="M75.4961 267.321H71.3412V271.458H75.4961V267.321Z" fill="#FAB20B"/>
<path d="M79.6484 267.321H75.4946V271.458H79.6484V267.321Z" fill="#DC8A0D"/>
<path d="M83.8027 263.182H79.6479V267.32H83.8027V263.182Z" fill="#231F20"/>
<path d="M67.1855 263.182H63.0307V267.32H67.1855V263.182Z" fill="#231F20"/>
<path d="M79.6484 263.182H75.4946V267.32H79.6484V263.182Z" fill="#DC8A0D"/>
<path d="M75.4961 263.182H71.3412V267.32H75.4961V263.182Z" fill="#A94019"/>
<path d="M71.3398 263.182H67.185V267.32H71.3398V263.182Z" fill="#A94019"/>
<path d="M83.8027 250.769H79.6479V254.907H83.8027V250.769Z" fill="#231F20"/>
<path d="M79.6484 250.769H75.4946V254.907H79.6484V250.769Z" fill="#742415"/>
<path d="M75.4961 250.769H71.3412V254.907H75.4961V250.769Z" fill="#FAB20B"/>
<path d="M71.3398 250.769H67.185V254.907H71.3398V250.769Z" fill="#FAB20B"/>
<path d="M67.1855 250.769H63.0307V254.907H67.1855V250.769Z" fill="#231F20"/>
<path d="M79.6484 238.356H75.4946V242.494H79.6484V238.356Z" fill="#DC8A0D"/>
<path d="M67.1855 254.908H63.0307V259.046H67.1855V254.908Z" fill="#231F20"/>
<path d="M79.6484 242.495H75.4946V246.632H79.6484V242.495Z" fill="#742415"/>
<path d="M71.3398 242.495H67.185V246.632H71.3398V242.495Z" fill="#FAB20B"/>
<path d="M75.4961 238.356H71.3412V242.494H75.4961V238.356Z" fill="#FAB20B"/>
<path d="M71.3398 238.356H67.185V242.494H71.3398V238.356Z" fill="#FAB20B"/>
<path d="M67.1855 242.495H63.0307V246.632H67.1855V242.495Z" fill="#231F20"/>
<path d="M67.1855 238.356H63.0307V242.494H67.1855V238.356Z" fill="#231F20"/>
<path d="M75.4961 242.495H71.3412V246.632H75.4961V242.495Z" fill="#A94019"/>
<path d="M83.8027 238.356H79.6479V242.494H83.8027V238.356Z" fill="#231F20"/>
<path d="M79.6484 234.281H75.4946V238.419H79.6484V234.281Z" fill="#DC8A0D"/>
<path d="M75.4961 234.281H71.3412V238.419H75.4961V234.281Z" fill="#FAB20B"/>
<path d="M71.3398 234.281H67.185V238.419H71.3398V234.281Z" fill="#FAB20B"/>
<path d="M67.1855 234.281H63.0307V238.419H67.1855V234.281Z" fill="#231F20"/>
<path d="M83.8027 234.281H79.6479V238.419H83.8027V234.281Z" fill="#231F20"/>
<path d="M79.6484 230.324H75.4946V234.462H79.6484V230.324Z" fill="#DC8A0D"/>
<path d="M75.4961 230.324H71.3412V234.462H75.4961V230.324Z" fill="#FAB20B"/>
<path d="M71.3398 230.324H67.185V234.462H71.3398V230.324Z" fill="#FAB20B"/>
<path d="M67.1855 230.125H63.0307V234.264H67.1855V230.125Z" fill="#231F20"/>
<path d="M83.8027 230.324H79.6479V234.462H83.8027V230.324Z" fill="#231F20"/>
<path d="M83.8027 242.495H79.6479V246.632H83.8027V242.495Z" fill="#231F20"/>
<path d="M71.3398 246.63H67.185V250.769H71.3398V246.63Z" fill="#FAB20B"/>
<path d="M75.4961 246.63H71.3412V250.769H75.4961V246.63Z" fill="#A94019"/>
<path d="M79.6484 246.63H75.4946V250.769H79.6484V246.63Z" fill="#742415"/>
<path d="M83.8027 246.63H79.6479V250.769H83.8027V246.63Z" fill="#231F20"/>
<path d="M67.1855 246.63H63.0307V250.769H67.1855V246.63Z" fill="#231F20"/>
<path d="M83.8027 259.044H79.6479V263.182H83.8027V259.044Z" fill="#231F20"/>
<path d="M79.6484 259.044H75.4946V263.182H79.6484V259.044Z" fill="#DC8A0D"/>
<path d="M75.4961 259.044H71.3412V263.182H75.4961V259.044Z" fill="#A94019"/>
<path d="M71.3398 259.044H67.185V263.182H71.3398V259.044Z" fill="#A94019"/>
<path d="M71.3398 254.908H67.185V259.046H71.3398V254.908Z" fill="#FAB20B"/>
<path d="M83.8027 254.908H79.6479V259.046H83.8027V254.908Z" fill="#231F20"/>
<path d="M79.6484 254.908H75.4946V259.046H79.6484V254.908Z" fill="#DC8A0D"/>
<path d="M75.4961 254.908H71.3412V259.046H75.4961V254.908Z" fill="#FAB20B"/>
<path d="M67.1855 259.044H63.0307V263.182H67.1855V259.044Z" fill="#231F20"/>
<path d="M67.25 226.565H63.1118V230.702H67.25V226.565Z" fill="#231F20"/>
<path d="M71.3887 226.565H67.2505V230.702H71.3887V226.565Z" fill="#A94019"/>
<path d="M83.8027 226.565H79.6645V230.702H83.8027V226.565Z" fill="#231F20"/>
<path d="M75.5273 226.565H71.3892V230.702H75.5273V226.565Z" fill="#FAB20B"/>
<path d="M79.666 226.565H75.5289V230.702H79.666V226.565Z" fill="#DC8A0D"/>
<path d="M83.8027 222.426H79.6645V226.564H83.8027V222.426Z" fill="#231F20"/>
<path d="M67.25 222.426H63.1118V226.564H67.25V222.426Z" fill="#231F20"/>
<path d="M79.666 222.426H75.5289V226.564H79.666V222.426Z" fill="#DC8A0D"/>
<path d="M75.5273 222.426H71.3892V226.564H75.5273V222.426Z" fill="#A94019"/>
<path d="M71.3887 222.426H67.2505V226.564H71.3887V222.426Z" fill="#A94019"/>
<path d="M83.8027 210.013H79.6645V214.151H83.8027V210.013Z" fill="#231F20"/>
<path d="M79.666 210.013H75.5289V214.151H79.666V210.013Z" fill="#742415"/>
<path d="M75.5273 210.013H71.3892V214.151H75.5273V210.013Z" fill="#FAB20B"/>
<path d="M71.3887 210.013H67.2505V214.151H71.3887V210.013Z" fill="#FAB20B"/>
<path d="M67.25 210.013H63.1118V214.151H67.25V210.013Z" fill="#231F20"/>
<path d="M79.666 197.6H75.5289V201.738H79.666V197.6Z" fill="#DC8A0D"/>
<path d="M67.25 214.152H63.1118V218.29H67.25V214.152Z" fill="#231F20"/>
<path d="M79.666 201.739H75.5289V205.876H79.666V201.739Z" fill="#742415"/>
<path d="M71.3887 201.739H67.2505V205.876H71.3887V201.739Z" fill="#FAB20B"/>
<path d="M75.5273 197.6H71.3892V201.738H75.5273V197.6Z" fill="#FAB20B"/>
<path d="M71.3887 197.6H67.2505V201.738H71.3887V197.6Z" fill="#FAB20B"/>
<path d="M67.25 201.739H63.1118V205.876H67.25V201.739Z" fill="#231F20"/>
<path d="M67.25 197.6H63.1118V201.738H67.25V197.6Z" fill="#231F20"/>
<path d="M75.5273 201.739H71.3892V205.876H75.5273V201.739Z" fill="#A94019"/>
<path d="M83.8027 197.6H79.6645V201.738H83.8027V197.6Z" fill="#231F20"/>
<path d="M79.666 193.525H75.5289V197.663H79.666V193.525Z" fill="#DC8A0D"/>
<path d="M75.5273 193.525H71.3892V197.663H75.5273V193.525Z" fill="#FAB20B"/>
<path d="M71.3887 193.525H67.2505V197.663H71.3887V193.525Z" fill="#FAB20B"/>
<path d="M67.25 193.525H63.1118V197.663H67.25V193.525Z" fill="#231F20"/>
<path d="M83.8027 193.525H79.6645V197.663H83.8027V193.525Z" fill="#231F20"/>
<path d="M79.666 189.568H75.5289V193.706H79.666V189.568Z" fill="#DC8A0D"/>
<path d="M75.5273 189.568H71.3892V193.706H75.5273V189.568Z" fill="#FAB20B"/>
<path d="M71.3887 189.568H67.2505V193.706H71.3887V189.568Z" fill="#FAB20B"/>
<path d="M67.25 189.37H63.1118V193.508H67.25V189.37Z" fill="#231F20"/>
<path d="M83.8027 189.568H79.6645V193.706H83.8027V189.568Z" fill="#231F20"/>
<path d="M83.8027 201.739H79.6645V205.876H83.8027V201.739Z" fill="#231F20"/>
<path d="M71.3887 205.875H67.2505V210.013H71.3887V205.875Z" fill="#FAB20B"/>
<path d="M75.5273 205.875H71.3892V210.013H75.5273V205.875Z" fill="#A94019"/>
<path d="M79.666 205.875H75.5289V210.013H79.666V205.875Z" fill="#742415"/>
<path d="M83.8027 205.875H79.6645V210.013H83.8027V205.875Z" fill="#231F20"/>
<path d="M67.25 205.875H63.1118V210.013H67.25V205.875Z" fill="#231F20"/>
<path d="M83.8027 218.289H79.6645V222.426H83.8027V218.289Z" fill="#231F20"/>
<path d="M79.666 218.289H75.5289V222.426H79.666V218.289Z" fill="#DC8A0D"/>
<path d="M75.5273 218.289H71.3892V222.426H75.5273V218.289Z" fill="#A94019"/>
<path d="M71.3887 218.289H67.2505V222.426H71.3887V218.289Z" fill="#A94019"/>
<path d="M71.3887 214.152H67.2505V218.29H71.3887V214.152Z" fill="#FAB20B"/>
<path d="M83.8027 214.152H79.6645V218.29H83.8027V214.152Z" fill="#231F20"/>
<path d="M79.666 214.152H75.5289V218.29H79.666V214.152Z" fill="#DC8A0D"/>
<path d="M75.5273 214.152H71.3892V218.29H75.5273V214.152Z" fill="#FAB20B"/>
<path d="M67.25 218.289H63.1118V222.426H67.25V218.289Z" fill="#231F20"/>
<path d="M67.25 187.196H63.1118V191.333H67.25V187.196Z" fill="#231F20"/>
<path d="M71.3887 187.196H67.2505V191.333H71.3887V187.196Z" fill="#A94019"/>
<path d="M83.8027 187.196H79.6645V191.333H83.8027V187.196Z" fill="#231F20"/>
<path d="M75.5273 187.196H71.3892V191.333H75.5273V187.196Z" fill="#FAB20B"/>
<path d="M79.666 187.196H75.5289V191.333H79.666V187.196Z" fill="#DC8A0D"/>
<path d="M83.8027 183.057H79.6645V187.195H83.8027V183.057Z" fill="#231F20"/>
<path d="M67.25 183.057H63.1118V187.195H67.25V183.057Z" fill="#231F20"/>
<path d="M79.666 183.057H75.5289V187.195H79.666V183.057Z" fill="#DC8A0D"/>
<path d="M75.5273 183.057H71.3892V187.195H75.5273V183.057Z" fill="#A94019"/>
<path d="M71.3887 183.057H67.2505V187.195H71.3887V183.057Z" fill="#A94019"/>
<path d="M83.8027 170.644H79.6645V174.782H83.8027V170.644Z" fill="#231F20"/>
<path d="M79.666 170.644H75.5289V174.782H79.666V170.644Z" fill="#742415"/>
<path d="M75.5273 170.644H71.3892V174.782H75.5273V170.644Z" fill="#FAB20B"/>
<path d="M71.3887 170.644H67.2505V174.782H71.3887V170.644Z" fill="#FAB20B"/>
<path d="M67.25 170.644H63.1118V174.782H67.25V170.644Z" fill="#231F20"/>
<path d="M79.666 158.231H75.5289V162.369H79.666V158.231Z" fill="#DC8A0D"/>
<path d="M67.25 174.783H63.1118V178.921H67.25V174.783Z" fill="#231F20"/>
<path d="M79.666 162.37H75.5289V166.507H79.666V162.37Z" fill="#742415"/>
<path d="M71.3887 162.37H67.2505V166.507H71.3887V162.37Z" fill="#FAB20B"/>
<path d="M75.5273 158.231H71.3892V162.369H75.5273V158.231Z" fill="#FAB20B"/>
<path d="M71.3887 158.231H67.2505V162.369H71.3887V158.231Z" fill="#FAB20B"/>
<path d="M67.25 162.37H63.1118V166.507H67.25V162.37Z" fill="#231F20"/>
<path d="M67.25 158.231H63.1118V162.369H67.25V158.231Z" fill="#231F20"/>
<path d="M75.5273 162.37H71.3892V166.507H75.5273V162.37Z" fill="#A94019"/>
<path d="M83.8027 158.231H79.6645V162.369H83.8027V158.231Z" fill="#231F20"/>
<path d="M79.666 154.156H75.5289V158.294H79.666V154.156Z" fill="#DC8A0D"/>
<path d="M75.5273 154.156H71.3892V158.294H75.5273V154.156Z" fill="#FAB20B"/>
<path d="M71.3887 154.156H67.2505V158.294H71.3887V154.156Z" fill="#FAB20B"/>
<path d="M67.25 154.156H63.1118V158.294H67.25V154.156Z" fill="#231F20"/>
<path d="M83.8027 154.156H79.6645V158.294H83.8027V154.156Z" fill="#231F20"/>
<path d="M79.666 150.199H75.5289V154.337H79.666V150.199Z" fill="#DC8A0D"/>
<path d="M75.5273 150.199H71.3892V154.337H75.5273V150.199Z" fill="#FAB20B"/>
<path d="M71.3887 150.199H67.2505V154.337H71.3887V150.199Z" fill="#FAB20B"/>
<path d="M67.25 150H63.1118V154.139H67.25V150Z" fill="#231F20"/>
<path d="M83.8027 150.199H79.6645V154.337H83.8027V150.199Z" fill="#231F20"/>
<path d="M83.8027 162.37H79.6645V166.507H83.8027V162.37Z" fill="#231F20"/>
<path d="M71.3887 166.505H67.2505V170.644H71.3887V166.505Z" fill="#FAB20B"/>
<path d="M75.5273 166.505H71.3892V170.644H75.5273V166.505Z" fill="#A94019"/>
<path d="M79.666 166.505H75.5289V170.644H79.666V166.505Z" fill="#742415"/>
<path d="M83.8027 166.505H79.6645V170.644H83.8027V166.505Z" fill="#231F20"/>
<path d="M67.25 166.505H63.1118V170.644H67.25V166.505Z" fill="#231F20"/>
<path d="M83.8027 178.919H79.6645V183.057H83.8027V178.919Z" fill="#231F20"/>
<path d="M79.666 178.919H75.5289V183.057H79.666V178.919Z" fill="#DC8A0D"/>
<path d="M75.5273 178.919H71.3892V183.057H75.5273V178.919Z" fill="#A94019"/>
<path d="M71.3887 178.919H67.2505V183.057H71.3887V178.919Z" fill="#A94019"/>
<path d="M71.3887 174.783H67.2505V178.921H71.3887V174.783Z" fill="#FAB20B"/>
<path d="M83.8027 174.783H79.6645V178.921H83.8027V174.783Z" fill="#231F20"/>
<path d="M79.666 174.783H75.5289V178.921H79.666V174.783Z" fill="#DC8A0D"/>
<path d="M75.5273 174.783H71.3892V178.921H75.5273V174.783Z" fill="#FAB20B"/>
<path d="M67.25 178.919H63.1118V183.057H67.25V178.919Z" fill="#231F20"/>
<path d="M67.25 146.565H63.1118V150.702H67.25V146.565Z" fill="#231F20"/>
<path d="M71.3887 146.565H67.2505V150.702H71.3887V146.565Z" fill="#A94019"/>
<path d="M83.8027 146.565H79.6645V150.702H83.8027V146.565Z" fill="#231F20"/>
<path d="M75.5273 146.565H71.3892V150.702H75.5273V146.565Z" fill="#FAB20B"/>
<path d="M79.666 146.565H75.5289V150.702H79.666V146.565Z" fill="#DC8A0D"/>
<path d="M83.8027 142.426H79.6645V146.564H83.8027V142.426Z" fill="#231F20"/>
<path d="M67.25 142.426H63.1118V146.564H67.25V142.426Z" fill="#231F20"/>
<path d="M79.666 142.426H75.5289V146.564H79.666V142.426Z" fill="#DC8A0D"/>
<path d="M75.5273 142.426H71.3892V146.564H75.5273V142.426Z" fill="#A94019"/>
<path d="M71.3887 142.426H67.2505V146.564H71.3887V142.426Z" fill="#A94019"/>
<path d="M83.8027 130.013H79.6645V134.151H83.8027V130.013Z" fill="#231F20"/>
<path d="M79.666 130.013H75.5289V134.151H79.666V130.013Z" fill="#742415"/>
<path d="M75.5273 130.013H71.3892V134.151H75.5273V130.013Z" fill="#FAB20B"/>
<path d="M71.3887 130.013H67.2505V134.151H71.3887V130.013Z" fill="#FAB20B"/>
<path d="M67.25 130.013H63.1118V134.151H67.25V130.013Z" fill="#231F20"/>
<path d="M79.666 117.6H75.5289V121.738H79.666V117.6Z" fill="#DC8A0D"/>
<path d="M67.25 134.152H63.1118V138.29H67.25V134.152Z" fill="#231F20"/>
<path d="M79.666 121.739H75.5289V125.876H79.666V121.739Z" fill="#742415"/>
<path d="M71.3887 121.739H67.2505V125.876H71.3887V121.739Z" fill="#FAB20B"/>
<path d="M75.5273 117.6H71.3892V121.738H75.5273V117.6Z" fill="#FAB20B"/>
<path d="M71.3887 117.6H67.2505V121.738H71.3887V117.6Z" fill="#FAB20B"/>
<path d="M67.25 121.739H63.1118V125.876H67.25V121.739Z" fill="#231F20"/>
<path d="M67.25 117.6H63.1118V121.738H67.25V117.6Z" fill="#231F20"/>
<path d="M75.5273 121.739H71.3892V125.876H75.5273V121.739Z" fill="#A94019"/>
<path d="M83.8027 117.6H79.6645V121.738H83.8027V117.6Z" fill="#231F20"/>
<path d="M79.666 113.525H75.5289V117.663H79.666V113.525Z" fill="#DC8A0D"/>
<path d="M75.5273 113.525H71.3892V117.663H75.5273V113.525Z" fill="#FAB20B"/>
<path d="M71.3887 113.525H67.2505V117.663H71.3887V113.525Z" fill="#FAB20B"/>
<path d="M67.25 113.525H63.1118V117.663H67.25V113.525Z" fill="#231F20"/>
<path d="M83.8027 113.525H79.6645V117.663H83.8027V113.525Z" fill="#231F20"/>
<path d="M79.666 109.568H75.5289V113.706H79.666V109.568Z" fill="#DC8A0D"/>
<path d="M75.5273 109.568H71.3892V113.706H75.5273V109.568Z" fill="#FAB20B"/>
<path d="M71.3887 109.568H67.2505V113.706H71.3887V109.568Z" fill="#FAB20B"/>
<path d="M67.25 109.37H63.1118V113.508H67.25V109.37Z" fill="#231F20"/>
<path d="M83.8027 109.568H79.6645V113.706H83.8027V109.568Z" fill="#231F20"/>
<path d="M83.8027 121.739H79.6645V125.876H83.8027V121.739Z" fill="#231F20"/>
<path d="M71.3887 125.875H67.2505V130.013H71.3887V125.875Z" fill="#FAB20B"/>
<path d="M75.5273 125.875H71.3892V130.013H75.5273V125.875Z" fill="#A94019"/>
<path d="M79.666 125.875H75.5289V130.013H79.666V125.875Z" fill="#742415"/>
<path d="M83.8027 125.875H79.6645V130.013H83.8027V125.875Z" fill="#231F20"/>
<path d="M67.25 125.875H63.1118V130.013H67.25V125.875Z" fill="#231F20"/>
<path d="M83.8027 138.289H79.6645V142.426H83.8027V138.289Z" fill="#231F20"/>
<path d="M79.666 138.289H75.5289V142.426H79.666V138.289Z" fill="#DC8A0D"/>
<path d="M75.5273 138.289H71.3892V142.426H75.5273V138.289Z" fill="#A94019"/>
<path d="M71.3887 138.289H67.2505V142.426H71.3887V138.289Z" fill="#A94019"/>
<path d="M71.3887 134.152H67.2505V138.29H71.3887V134.152Z" fill="#FAB20B"/>
<path d="M83.8027 134.152H79.6645V138.29H83.8027V134.152Z" fill="#231F20"/>
<path d="M79.666 134.152H75.5289V138.29H79.666V134.152Z" fill="#DC8A0D"/>
<path d="M75.5273 134.152H71.3892V138.29H75.5273V134.152Z" fill="#FAB20B"/>
<path d="M67.25 138.289H63.1118V142.426H67.25V138.289Z" fill="#231F20"/>
<path d="M67.25 107.196H63.1118V111.333H67.25V107.196Z" fill="#231F20"/>
<path d="M71.3887 107.196H67.2505V111.333H71.3887V107.196Z" fill="#A94019"/>
<path d="M83.8027 107.196H79.6645V111.333H83.8027V107.196Z" fill="#231F20"/>
<path d="M75.5273 107.196H71.3892V111.333H75.5273V107.196Z" fill="#FAB20B"/>
<path d="M79.666 107.196H75.5289V111.333H79.666V107.196Z" fill="#DC8A0D"/>
<path d="M83.8027 103.057H79.6645V107.195H83.8027V103.057Z" fill="#231F20"/>
<path d="M67.25 103.057H63.1118V107.195H67.25V103.057Z" fill="#231F20"/>
<path d="M79.666 103.057H75.5289V107.195H79.666V103.057Z" fill="#DC8A0D"/>
<path d="M75.5273 103.057H71.3892V107.195H75.5273V103.057Z" fill="#A94019"/>
<path d="M71.3887 103.057H67.2505V107.195H71.3887V103.057Z" fill="#A94019"/>
<path d="M83.8027 90.644H79.6645V94.7822H83.8027V90.644Z" fill="#231F20"/>
<path d="M79.666 90.644H75.5289V94.7822H79.666V90.644Z" fill="#742415"/>
<path d="M75.5273 90.644H71.3892V94.7822H75.5273V90.644Z" fill="#FAB20B"/>
<path d="M71.3887 90.644H67.2505V94.7822H71.3887V90.644Z" fill="#FAB20B"/>
<path d="M67.25 90.644H63.1118V94.7822H67.25V90.644Z" fill="#231F20"/>
<path d="M79.666 78.231H75.5289V82.3691H79.666V78.231Z" fill="#DC8A0D"/>
<path d="M67.25 94.7827H63.1118V98.9209H67.25V94.7827Z" fill="#231F20"/>
<path d="M79.666 82.3697H75.5289V86.5068H79.666V82.3697Z" fill="#742415"/>
<path d="M71.3887 82.3697H67.2505V86.5068H71.3887V82.3697Z" fill="#FAB20B"/>
<path d="M75.5273 78.231H71.3892V82.3691H75.5273V78.231Z" fill="#FAB20B"/>
<path d="M71.3887 78.231H67.2505V82.3691H71.3887V78.231Z" fill="#FAB20B"/>
<path d="M67.25 82.3697H63.1118V86.5068H67.25V82.3697Z" fill="#231F20"/>
<path d="M67.25 78.231H63.1118V82.3691H67.25V78.231Z" fill="#231F20"/>
<path d="M75.5273 82.3697H71.3892V86.5068H75.5273V82.3697Z" fill="#A94019"/>
<path d="M83.8027 78.231H79.6645V82.3691H83.8027V78.231Z" fill="#231F20"/>
<path d="M79.666 74.1558H75.5289V78.2939H79.666V74.1558Z" fill="#DC8A0D"/>
<path d="M75.5273 74.1558H71.3892V78.2939H75.5273V74.1558Z" fill="#FAB20B"/>
<path d="M71.3887 74.1558H67.2505V78.2939H71.3887V74.1558Z" fill="#FAB20B"/>
<path d="M67.25 74.1558H63.1118V78.2939H67.25V74.1558Z" fill="#231F20"/>
<path d="M83.8027 74.1558H79.6645V78.2939H83.8027V74.1558Z" fill="#231F20"/>
<path d="M79.666 70.1987H75.5289V74.3369H79.666V70.1987Z" fill="#DC8A0D"/>
<path d="M75.5273 70.1987H71.3892V74.3369H75.5273V70.1987Z" fill="#FAB20B"/>
<path d="M71.3887 70.1987H67.2505V74.3369H71.3887V70.1987Z" fill="#FAB20B"/>
<path d="M67.25 70.0005H63.1118V74.1387H67.25V70.0005Z" fill="#231F20"/>
<path d="M83.8027 70.1987H79.6645V74.3369H83.8027V70.1987Z" fill="#231F20"/>
<path d="M83.8027 82.3697H79.6645V86.5068H83.8027V82.3697Z" fill="#231F20"/>
<path d="M71.3887 86.5054H67.2505V90.6436H71.3887V86.5054Z" fill="#FAB20B"/>
<path d="M75.5273 86.5054H71.3892V90.6436H75.5273V86.5054Z" fill="#A94019"/>
<path d="M79.666 86.5054H75.5289V90.6436H79.666V86.5054Z" fill="#742415"/>
<path d="M83.8027 86.5054H79.6645V90.6436H83.8027V86.5054Z" fill="#231F20"/>
<path d="M67.25 86.5054H63.1118V90.6436H67.25V86.5054Z" fill="#231F20"/>
<path d="M83.8027 98.9195H79.6645V103.057H83.8027V98.9195Z" fill="#231F20"/>
<path d="M79.666 98.9195H75.5289V103.057H79.666V98.9195Z" fill="#DC8A0D"/>
<path d="M75.5273 98.9195H71.3892V103.057H75.5273V98.9195Z" fill="#A94019"/>
<path d="M71.3887 98.9195H67.2505V103.057H71.3887V98.9195Z" fill="#A94019"/>
<path d="M71.3887 94.7827H67.2505V98.9209H71.3887V94.7827Z" fill="#FAB20B"/>
<path d="M83.8027 94.7827H79.6645V98.9209H83.8027V94.7827Z" fill="#231F20"/>
<path d="M79.666 94.7827H75.5289V98.9209H79.666V94.7827Z" fill="#DC8A0D"/>
<path d="M75.5273 94.7827H71.3892V98.9209H75.5273V94.7827Z" fill="#FAB20B"/>
<path d="M67.25 98.9195H63.1118V103.057H67.25V98.9195Z" fill="#231F20"/>
</svg>
