<svg width="123" height="92" viewBox="0 0 123 92" fill="none" xmlns="http://www.w3.org/2000/svg">
<path d="M123 36.8013V41.3998H118.443V36.8013H123Z" fill="#445268"/>
<path d="M118.443 41.3998L118.443 45.9984H113.887V41.3998L118.443 41.3998Z" fill="#445268"/>
<path d="M118.443 36.8013V41.3998L113.887 41.3998V36.8013H118.443Z" fill="#445268"/>
<path d="M118.443 32.1995L118.443 36.8013H113.887V32.1995H118.443Z" fill="#6180BA"/>
<path d="M113.887 41.3998V45.9984H109.331V41.3998H113.887Z" fill="#445268"/>
<path d="M113.887 36.8013V41.3998H109.331V36.8013H113.887Z" fill="#6180BA"/>
<path d="M113.887 32.1995V36.8013H109.331V32.1995H113.887Z" fill="#6180BA"/>
<path d="M113.887 27.601V32.1995H109.331V27.601H113.887Z" fill="#6180BA"/>
<path d="M109.331 59.8005V64.399H104.776V59.8005H109.331Z" fill="#6180BA"/>
<path d="M109.331 41.3998V45.9984H104.776V41.3998H109.331Z" fill="#445268"/>
<path d="M109.331 36.8013V41.3998H104.776V36.8013H109.331Z" fill="#6180BA"/>
<path d="M109.331 32.1995V36.8013H104.776V32.1995H109.331Z" fill="#6180BA"/>
<path d="M109.331 27.601V32.1995H104.776V27.601H109.331Z" fill="#6180BA"/>
<path d="M104.776 78.1989V82.7996H100.222V78.1989H104.776Z" fill="#6180BA"/>
<path d="M104.776 64.399L104.776 68.9986H100.222V64.399L104.776 64.399Z" fill="#6180BA"/>
<path d="M104.776 50.6002V55.1987H100.222V50.6002H104.776Z" fill="#445268"/>
<path d="M104.776 45.9984L104.776 50.6002H100.222V45.9984L104.776 45.9984Z" fill="#445268"/>
<path d="M104.776 41.3998V45.9984L100.222 45.9984V41.3998H104.776Z" fill="#445268"/>
<path d="M104.776 36.8013V41.3998H100.222V36.8013H104.776Z" fill="#6180BA"/>
<path d="M104.776 32.1995V36.8013H100.222V32.1995H104.776Z" fill="#6180BA"/>
<path d="M104.776 27.601V32.1995H100.222V27.601H104.776Z" fill="#6180BA"/>
<path d="M100.222 68.9986L100.222 73.5993H95.6645V68.9986L100.222 68.9986Z" fill="#6180BA"/>
<path d="M100.222 55.1987L100.222 59.8005H95.6645V55.1987L100.222 55.1987Z" fill="#445268"/>
<path d="M100.222 50.6002V55.1987L95.6645 55.1987V50.6002H100.222Z" fill="#445268"/>
<path d="M100.222 45.9984V50.6002H95.6645V45.9984H100.222Z" fill="#445268"/>
<path d="M100.222 41.3998V45.9984H95.6645V41.3998H100.222Z" fill="#445268"/>
<path d="M100.222 36.8013V41.3998H95.6645V36.8013H100.222Z" fill="#6180BA"/>
<path d="M100.222 32.1995V36.8013H95.6645V32.1995H100.222Z" fill="#6180BA"/>
<path d="M100.222 27.601V32.1995H95.6645V27.601H100.222Z" fill="#6180BA"/>
<path d="M100.222 22.9992L100.222 27.601H95.6645V22.9992H100.222Z" fill="#6180BA"/>
<path d="M95.6645 59.8005L95.6644 64.399H91.1103V59.8005L95.6645 59.8005Z" fill="#445268"/>
<path d="M95.6645 55.1987V59.8005L91.1103 59.8005V55.1987H95.6645Z" fill="#445268"/>
<path d="M95.6645 50.6002V55.1987H91.1103V50.6002H95.6645Z" fill="#445268"/>
<path d="M95.6645 45.9984V50.6002H91.1103V45.9984H95.6645Z" fill="#445268"/>
<path d="M95.6645 41.3998V45.9984H91.1103V41.3998H95.6645Z" fill="#6180BA"/>
<path d="M95.6645 36.8013V41.3998H91.1103V36.8013H95.6645Z" fill="#6180BA"/>
<path d="M95.6645 32.1995V36.8013H91.1103V32.1995H95.6645Z" fill="#6180BA"/>
<path d="M95.6645 27.601V32.1995H91.1103V27.601H95.6645Z" fill="#6180BA"/>
<path d="M95.6645 22.9992V27.601H91.1103V22.9992H95.6645Z" fill="#6180BA"/>
<path d="M95.6644 18.4007L95.6645 22.9992H91.1103V18.4007H95.6644Z" fill="#6180BA"/>
<path d="M91.1104 78.1989V82.7996H86.553V78.1989H91.1104Z" fill="#6180BA"/>
<path d="M91.1104 68.9986V73.5993H86.553V68.9986H91.1104Z" fill="#6180BA"/>
<path d="M91.1103 59.8005V64.399H86.553V59.8005H91.1103Z" fill="#445268"/>
<path d="M91.1103 55.1987V59.8005H86.553V55.1987H91.1103Z" fill="#445268"/>
<path d="M91.1103 50.6002V55.1987H86.553V50.6002H91.1103Z" fill="#445268"/>
<path d="M91.1103 45.9984V50.6002H86.553V45.9984H91.1103Z" fill="#445268"/>
<path d="M91.1103 41.3998V45.9984H86.553V41.3998H91.1103Z" fill="#445268"/>
<path d="M91.1103 36.8013V41.3998H86.553V36.8013H91.1103Z" fill="#6180BA"/>
<path d="M91.1103 32.1995V36.8013H86.553V32.1995H91.1103Z" fill="#6180BA"/>
<path d="M91.1103 27.601V32.1995H86.553V27.601H91.1103Z" fill="#6180BA"/>
<path d="M91.1103 22.9992V27.601H86.553V22.9992H91.1103Z" fill="#6180BA"/>
<path d="M91.1103 18.4007V22.9992H86.553V18.4007H91.1103Z" fill="#6180BA"/>
<path d="M91.1104 13.801L91.1103 18.4007H86.553V13.801H91.1104Z" fill="#6180BA"/>
<path d="M86.553 82.7996L86.5531 87.3992H81.999V82.7996L86.553 82.7996Z" fill="#6180BA"/>
<path d="M86.553 59.8005V64.399H81.999V59.8005H86.553Z" fill="#445268"/>
<path d="M86.553 55.1987V59.8005H81.999V55.1987H86.553Z" fill="#445268"/>
<path d="M86.553 50.6002V55.1987H81.999V50.6002H86.553Z" fill="#445268"/>
<path d="M86.553 45.9984V50.6002H81.999V45.9984H86.553Z" fill="#445268"/>
<path d="M86.553 41.3998V45.9984H81.999V41.3998H86.553Z" fill="#445268"/>
<path d="M86.553 36.8013V41.3998H81.999V36.8013H86.553Z" fill="#445268"/>
<path d="M86.553 32.1995V36.8013H81.999V32.1995H86.553Z" fill="#6180BA"/>
<path d="M86.553 27.601V32.1995H81.999V27.601H86.553Z" fill="#6180BA"/>
<path d="M86.553 22.9992V27.601H81.999V22.9992H86.553Z" fill="#6180BA"/>
<path d="M86.553 18.4007V22.9992H81.999V18.4007H86.553Z" fill="#6180BA"/>
<path d="M86.553 13.801V18.4007H81.999V13.801H86.553Z" fill="#6180BA"/>
<path d="M86.5531 9.20034L86.553 13.801H81.999V9.20034H86.5531Z" fill="#6180BA"/>
<path d="M81.999 59.8005V64.399H77.4415V59.8005H81.999Z" fill="#445268"/>
<path d="M81.999 55.1987V59.8005H77.4415V55.1987H81.999Z" fill="#445268"/>
<path d="M81.999 50.6002V55.1987H77.4415V50.6002H81.999Z" fill="#445268"/>
<path d="M81.999 45.9984V50.6002H77.4415V45.9984H81.999Z" fill="#445268"/>
<path d="M81.999 41.3998V45.9984H77.4415V41.3998H81.999Z" fill="#445268"/>
<path d="M81.999 36.8013V41.3998H77.4415V36.8013H81.999Z" fill="#445268"/>
<path d="M81.999 32.1995V36.8013H77.4415V32.1995H81.999Z" fill="#445268"/>
<path d="M81.999 27.601V32.1995H77.4415V27.601H81.999Z" fill="#6180BA"/>
<path d="M81.999 22.9992V27.601H77.4415V22.9992H81.999Z" fill="#6180BA"/>
<path d="M81.999 18.4007V22.9992H77.4415V18.4007H81.999Z" fill="#6180BA"/>
<path d="M81.999 13.801V18.4007H77.4415V13.801H81.999Z" fill="#6180BA"/>
<path d="M81.999 9.20034V13.801H77.4415V9.20034H81.999Z" fill="#6180BA"/>
<path d="M77.4415 68.9986V73.5993H72.8874V68.9986H77.4415Z" fill="#6180BA"/>
<path d="M77.4415 59.8005V64.399H72.8874V59.8005H77.4415Z" fill="#445268"/>
<path d="M77.4415 55.1987V59.8005H72.8874V55.1987H77.4415Z" fill="#445268"/>
<path d="M77.4415 50.6002V55.1987H72.8874V50.6002H77.4415Z" fill="#445268"/>
<path d="M77.4415 45.9984V50.6002H72.8874V45.9984H77.4415Z" fill="#445268"/>
<path d="M77.4415 41.3998V45.9984H72.8874V41.3998H77.4415Z" fill="#445268"/>
<path d="M77.4415 36.8013V41.3998H72.8874V36.8013H77.4415Z" fill="#445268"/>
<path d="M77.4415 32.1995V36.8013H72.8874V32.1995H77.4415Z" fill="#445268"/>
<path d="M77.4415 27.601V32.1995H72.8874V27.601H77.4415Z" fill="#6180BA"/>
<path d="M77.4415 22.9992V27.601H72.8874V22.9992H77.4415Z" fill="#6180BA"/>
<path d="M77.4415 18.4007V22.9992H72.8874V18.4007H77.4415Z" fill="#6180BA"/>
<path d="M77.4415 13.801V18.4007H72.8874V13.801H77.4415Z" fill="#6180BA"/>
<path d="M77.4415 9.20034V13.801H72.8874V9.20034H77.4415Z" fill="#6180BA"/>
<path d="M77.4415 4.6007L77.4415 9.20034H72.8874V4.6007H77.4415Z" fill="#6180BA"/>
<path d="M77.4415 0V4.6007H72.8874V0H77.4415Z" fill="#6180BA"/>
<path d="M72.8875 87.3993V92H68.3301V87.3993H72.8875Z" fill="#6180BA"/>
<path d="M72.8874 73.5993L72.8875 78.199H68.3301V73.5993L72.8874 73.5993Z" fill="#6180BA"/>
<path d="M72.8874 59.8005V64.399H68.3301V59.8005H72.8874Z" fill="#445268"/>
<path d="M72.8874 55.1987V59.8005H68.3301V55.1987H72.8874Z" fill="#445268"/>
<path d="M72.8874 50.6002V55.1987H68.3301V50.6002H72.8874Z" fill="#445268"/>
<path d="M72.8874 45.9984V50.6002H68.3301V45.9984H72.8874Z" fill="#445268"/>
<path d="M72.8874 41.3998V45.9984H68.3301V41.3998H72.8874Z" fill="#445268"/>
<path d="M72.8874 36.8013V41.3998H68.3301V36.8013H72.8874Z" fill="#445268"/>
<path d="M72.8874 32.1995V36.8013H68.3301V32.1995H72.8874Z" fill="#445268"/>
<path d="M72.8874 27.601V32.1995H68.3301V27.601H72.8874Z" fill="#6180BA"/>
<path d="M72.8874 22.9992V27.601H68.3301V22.9992H72.8874Z" fill="#6180BA"/>
<path d="M72.8874 18.4007V22.9992H68.3301V18.4007H72.8874Z" fill="#6180BA"/>
<path d="M72.8874 13.801V18.4007H68.3301V13.801H72.8874Z" fill="#6180BA"/>
<path d="M72.8874 9.20034V13.801H68.3301V9.20034H72.8874Z" fill="#6180BA"/>
<path d="M72.8874 4.6007V9.20034H68.3301V4.6007H72.8874Z" fill="#6180BA"/>
<path d="M72.8874 0V4.6007H68.3301V0H72.8874Z" fill="#6180BA"/>
<path d="M68.3301 78.199L68.33 82.7996H63.7759V78.1989L68.3301 78.199Z" fill="#6180BA"/>
<path d="M68.3301 55.1987V59.8005L63.7759 59.8005V55.1987H68.3301Z" fill="#445268"/>
<path d="M68.3301 50.6002V55.1987H63.7759V50.6002H68.3301Z" fill="#445268"/>
<path d="M68.3301 45.9984V50.6002H63.7759V45.9984H68.3301Z" fill="#445268"/>
<path d="M68.3301 41.3998V45.9984H63.7759V41.3998H68.3301Z" fill="#445268"/>
<path d="M68.3301 36.8013V41.3998H63.7759V36.8013H68.3301Z" fill="#6180BA"/>
<path d="M68.3301 32.1995V36.8013H63.7759V32.1995H68.3301Z" fill="#6180BA"/>
<path d="M68.3301 27.601V32.1995H63.7759V27.601H68.3301Z" fill="#6180BA"/>
<path d="M68.3301 22.9992V27.601H63.7759V22.9992H68.3301Z" fill="#6180BA"/>
<path d="M68.3301 18.4007V22.9992H63.7759V18.4007H68.3301Z" fill="#6180BA"/>
<path d="M68.3301 13.801V18.4007H63.7759V13.801H68.3301Z" fill="#6180BA"/>
<path d="M68.3301 9.20034V13.801H63.7759V9.20034H68.3301Z" fill="#6180BA"/>
<path d="M68.3301 4.6007V9.20034H63.7759V4.6007H68.3301Z" fill="#6180BA"/>
<path d="M68.3301 0V4.6007H63.7759V0H68.3301Z" fill="#6180BA"/>
<path d="M63.7759 55.1987V59.8005H59.2218V55.1987H63.7759Z" fill="#445268"/>
<path d="M63.7759 50.6002V55.1987H59.2218V50.6002H63.7759Z" fill="#445268"/>
<path d="M63.7759 45.9984V50.6002H59.2218V45.9984H63.7759Z" fill="#445268"/>
<path d="M63.7759 41.3998V45.9984H59.2218V41.3998H63.7759Z" fill="#445268"/>
<path d="M63.7759 36.8013V41.3998H59.2218V36.8013H63.7759Z" fill="#445268"/>
<path d="M63.7759 32.1995V36.8013H59.2218V32.1995H63.7759Z" fill="#6180BA"/>
<path d="M63.7759 27.601V32.1995H59.2218V27.601H63.7759Z" fill="#6180BA"/>
<path d="M63.7759 22.9992V27.601H59.2218V22.9992H63.7759Z" fill="#6180BA"/>
<path d="M63.7759 18.4007V22.9992H59.2218V18.4007H63.7759Z" fill="#6180BA"/>
<path d="M63.7759 13.801V18.4007H59.2218V13.801H63.7759Z" fill="#6180BA"/>
<path d="M63.7759 9.20034V13.801H59.2218V9.20034H63.7759Z" fill="#6180BA"/>
<path d="M63.7759 4.6007V9.20034H59.2218V4.6007H63.7759Z" fill="#6180BA"/>
<path d="M63.7759 0V4.6007H59.2218V0H63.7759Z" fill="#6180BA"/>
<path d="M59.2218 68.9986V73.5993H54.6666V68.9986H59.2218Z" fill="#F8EA30"/>
<path d="M59.2218 64.399V68.9986H54.6666V64.399H59.2218Z" fill="#F8EA30"/>
<path d="M59.2218 55.1987V59.8005H54.6666V55.1987H59.2218Z" fill="#445268"/>
<path d="M59.2218 50.6002V55.1987H54.6666V50.6002H59.2218Z" fill="#445268"/>
<path d="M59.2218 45.9984V50.6002H54.6666V45.9984H59.2218Z" fill="#445268"/>
<path d="M59.2218 41.3998V45.9984H54.6666V41.3998H59.2218Z" fill="#445268"/>
<path d="M59.2218 36.8013V41.3998H54.6666V36.8013H59.2218Z" fill="#445268"/>
<path d="M59.2218 32.1995V36.8013H54.6666V32.1995H59.2218Z" fill="#6180BA"/>
<path d="M59.2218 27.601V32.1995H54.6666V27.601H59.2218Z" fill="#6180BA"/>
<path d="M59.2218 22.9992V27.601H54.6666V22.9992H59.2218Z" fill="#6180BA"/>
<path d="M59.2218 18.4007V22.9992H54.6666V18.4007H59.2218Z" fill="#6180BA"/>
<path d="M59.2218 13.801V18.4007H54.6666V13.801H59.2218Z" fill="#6180BA"/>
<path d="M59.2218 9.20034V13.801H54.6666V9.20034H59.2218Z" fill="#6180BA"/>
<path d="M59.2218 4.6007V9.20034H54.6666V4.6007H59.2218Z" fill="#6180BA"/>
<path d="M54.6666 73.5993L54.6668 78.199H50.1105V73.5993L54.6666 73.5993Z" fill="#F8EA30"/>
<path d="M54.6666 68.9986V73.5993L50.1105 73.5993V68.9986H54.6666Z" fill="#F8EA30"/>
<path d="M54.6666 64.399V68.9986H50.1105V64.399H54.6666Z" fill="#F8EA30"/>
<path d="M54.6666 55.1987V59.8005H50.1105V55.1987H54.6666Z" fill="#445268"/>
<path d="M54.6666 50.6002V55.1987H50.1105V50.6002H54.6666Z" fill="#445268"/>
<path d="M54.6666 45.9984V50.6002H50.1105V45.9984H54.6666Z" fill="#445268"/>
<path d="M54.6666 41.3998V45.9984H50.1105V41.3998H54.6666Z" fill="#445268"/>
<path d="M54.6666 36.8013V41.3998H50.1105V36.8013H54.6666Z" fill="#445268"/>
<path d="M54.6666 32.1995V36.8013H50.1105V32.1995H54.6666Z" fill="#6180BA"/>
<path d="M54.6666 27.601V32.1995H50.1105V27.601H54.6666Z" fill="#6180BA"/>
<path d="M54.6666 22.9992V27.601H50.1105V22.9992H54.6666Z" fill="#6180BA"/>
<path d="M54.6666 18.4007V22.9992H50.1105V18.4007H54.6666Z" fill="#6180BA"/>
<path d="M54.6666 13.801V18.4007H50.1105V13.801H54.6666Z" fill="#6180BA"/>
<path d="M54.6666 9.20034V13.801H50.1105V9.20034H54.6666Z" fill="#6180BA"/>
<path d="M50.1104 82.7996V87.3992H45.5552V82.7996H50.1104Z" fill="#F8EA30"/>
<path d="M50.1105 78.199L50.1104 82.7996H45.5552V78.1989L50.1105 78.199Z" fill="#F8EA30"/>
<path d="M50.1105 73.5993V78.199L45.5552 78.1989V73.5993H50.1105Z" fill="#F8EA30"/>
<path d="M50.1105 68.9986V73.5993H45.5552V68.9986H50.1105Z" fill="#F8EA30"/>
<path d="M50.1105 55.1987V59.8005H45.5552V55.1987H50.1105Z" fill="#445268"/>
<path d="M50.1105 50.6002V55.1987H45.5552V50.6002H50.1105Z" fill="#445268"/>
<path d="M50.1105 45.9984V50.6002H45.5552V45.9984H50.1105Z" fill="#445268"/>
<path d="M50.1105 41.3998V45.9984H45.5552V41.3998H50.1105Z" fill="#445268"/>
<path d="M50.1105 36.8013V41.3998H45.5552V36.8013H50.1105Z" fill="#445268"/>
<path d="M50.1105 32.1995V36.8013H45.5552V32.1995H50.1105Z" fill="#6180BA"/>
<path d="M50.1105 27.601V32.1995H45.5552V27.601H50.1105Z" fill="#6180BA"/>
<path d="M50.1105 22.9992V27.601H45.5552V22.9992H50.1105Z" fill="#6180BA"/>
<path d="M50.1105 18.4007V22.9992H45.5552V18.4007H50.1105Z" fill="#6180BA"/>
<path d="M50.1105 13.801V18.4007H45.5552V13.801H50.1105Z" fill="#6180BA"/>
<path d="M50.1105 9.20034V13.801H45.5552V9.20034H50.1105Z" fill="#6180BA"/>
<path d="M45.5552 82.7996V87.3992H40.999V82.7996H45.5552Z" fill="#F8EA30"/>
<path d="M45.5552 78.1989V82.7996H40.999V78.1989H45.5552Z" fill="#F8EA30"/>
<path d="M45.5552 73.5993V78.1989H40.999V73.5993H45.5552Z" fill="#F8EA30"/>
<path d="M45.5552 55.1987V59.8005H40.999V55.1987H45.5552Z" fill="#445268"/>
<path d="M45.5552 50.6002V55.1987H40.999V50.6002H45.5552Z" fill="#445268"/>
<path d="M45.5552 45.9984V50.6002H40.999V45.9984H45.5552Z" fill="#445268"/>
<path d="M45.5552 41.3998V45.9984H40.999V41.3998H45.5552Z" fill="#445268"/>
<path d="M45.5552 36.8013V41.3998H40.999V36.8013H45.5552Z" fill="#445268"/>
<path d="M45.5552 32.1995V36.8013H40.999V32.1995H45.5552Z" fill="#6180BA"/>
<path d="M45.5552 27.601V32.1995H40.999V27.601H45.5552Z" fill="#6180BA"/>
<path d="M45.5552 22.9992V27.601H40.999V22.9992H45.5552Z" fill="#6180BA"/>
<path d="M45.5552 18.4007V22.9992H40.999V18.4007H45.5552Z" fill="#6180BA"/>
<path d="M45.5552 13.801V18.4007H40.999V13.801H45.5552Z" fill="#6180BA"/>
<path d="M40.999 87.3992L40.9989 92H36.4437V87.3993L40.999 87.3992Z" fill="#F8EA30"/>
<path d="M40.999 82.7996V87.3992L36.4437 87.3993V82.7996H40.999Z" fill="#F8EA30"/>
<path d="M40.999 59.8005L40.9989 64.399H36.4437V59.8005L40.999 59.8005Z" fill="#6180BA"/>
<path d="M40.999 50.6002V55.1987L36.4437 55.1987V50.6002H40.999Z" fill="#445268"/>
<path d="M40.999 45.9984V50.6002H36.4437V45.9984H40.999Z" fill="#445268"/>
<path d="M40.999 41.3998V45.9984H36.4437V41.3998H40.999Z" fill="#445268"/>
<path d="M40.999 36.8013V41.3998H36.4437V36.8013H40.999Z" fill="#445268"/>
<path d="M40.999 32.1995V36.8013H36.4437V32.1995H40.999Z" fill="#445268"/>
<path d="M40.999 27.601V32.1995H36.4437V27.601H40.999Z" fill="#6180BA"/>
<path d="M40.999 22.9992V27.601H36.4437V22.9992H40.999Z" fill="#6180BA"/>
<path d="M40.999 18.4007V22.9992H36.4437V18.4007H40.999Z" fill="#6180BA"/>
<path d="M36.4437 64.399V68.9986H31.8874V64.399L36.4437 64.399Z" fill="#6180BA"/>
<path d="M36.4437 50.6002V55.1987H31.8874V50.6002H36.4437Z" fill="#445268"/>
<path d="M36.4437 45.9984V50.6002H31.8874V45.9984H36.4437Z" fill="#445268"/>
<path d="M36.4437 41.3998V45.9984H31.8874V41.3998H36.4437Z" fill="#445268"/>
<path d="M36.4437 36.8013V41.3998H31.8874V36.8013H36.4437Z" fill="#445268"/>
<path d="M36.4437 32.1995V36.8013H31.8874V32.1995H36.4437Z" fill="#6180BA"/>
<path d="M36.4437 27.601V32.1995H31.8874V27.601H36.4437Z" fill="#6180BA"/>
<path d="M36.4437 22.9992V27.601H31.8874V22.9992H36.4437Z" fill="#6180BA"/>
<path d="M36.4437 18.4007V22.9992H31.8874V18.4007H36.4437Z" fill="#6180BA"/>
<path d="M31.8874 68.9986L31.8876 73.5993H27.3324V68.9986L31.8874 68.9986Z" fill="#6180BA"/>
<path d="M31.8874 55.1987L31.8876 59.8005H27.3324V55.1987L31.8874 55.1987Z" fill="#445268"/>
<path d="M31.8874 50.6002V55.1987L27.3324 55.1987V50.6002H31.8874Z" fill="#445268"/>
<path d="M31.8874 45.9984V50.6002H27.3324V45.9984H31.8874Z" fill="#445268"/>
<path d="M31.8874 41.3998V45.9984H27.3324V41.3998H31.8874Z" fill="#6180BA"/>
<path d="M31.8874 36.8013V41.3998H27.3324V36.8013H31.8874Z" fill="#6180BA"/>
<path d="M31.8874 32.1995V36.8013H27.3324V32.1995H31.8874Z" fill="#6180BA"/>
<path d="M31.8874 27.601V32.1995H27.3324V27.601H31.8874Z" fill="#6180BA"/>
<path d="M31.8874 22.9992V27.601H27.3324V22.9992H31.8874Z" fill="#6180BA"/>
<path d="M31.8874 18.4007V22.9992H27.3324V18.4007H31.8874Z" fill="#6180BA"/>
<path d="M27.3324 55.1987V59.8005H22.7761V55.1987H27.3324Z" fill="#445268"/>
<path d="M27.3324 50.6002V55.1987H22.7761V50.6002H27.3324Z" fill="#445268"/>
<path d="M27.3324 45.9984V50.6002H22.7761V45.9984H27.3324Z" fill="#445268"/>
<path d="M27.3324 41.3998V45.9984H22.7761V41.3998H27.3324Z" fill="#6180BA"/>
<path d="M27.3324 36.8013V41.3998H22.7761V36.8013H27.3324Z" fill="#6180BA"/>
<path d="M27.3324 32.1995V36.8013H22.7761V32.1995H27.3324Z" fill="#6180BA"/>
<path d="M27.3324 27.601V32.1995H22.7761V27.601H27.3324Z" fill="#6180BA"/>
<path d="M27.3324 22.9992V27.601H22.7761V22.9992H27.3324Z" fill="#6180BA"/>
<path d="M27.3324 18.4007V22.9992H22.7761V18.4007H27.3324Z" fill="#6180BA"/>
<path d="M22.776 82.7996V87.3992H18.2208V82.7996H22.776Z" fill="#6180BA"/>
<path d="M22.7761 55.1987V59.8005H18.2208V55.1987H22.7761Z" fill="#445268"/>
<path d="M22.7761 50.6002V55.1987H18.2208V50.6002H22.7761Z" fill="#445268"/>
<path d="M22.7761 45.9984V50.6002H18.2208V45.9984H22.7761Z" fill="#445268"/>
<path d="M22.7761 41.3998V45.9984H18.2208V41.3998H22.7761Z" fill="#445268"/>
<path d="M22.7761 36.8013V41.3998H18.2208V36.8013H22.7761Z" fill="#6180BA"/>
<path d="M22.7761 32.1995V36.8013H18.2208V32.1995H22.7761Z" fill="#6180BA"/>
<path d="M22.7761 27.601V32.1995H18.2208V27.601H22.7761Z" fill="#6180BA"/>
<path d="M22.7761 22.9992V27.601H18.2208V22.9992H22.7761Z" fill="#6180BA"/>
<path d="M22.7761 18.4007V22.9992H18.2208V18.4007H22.7761Z" fill="#6180BA"/>
<path d="M18.2207 64.399V68.9986H13.6666V64.399H18.2207Z" fill="#6180BA"/>
<path d="M18.2208 50.6002V55.1987L13.6666 55.1987V50.6002H18.2208Z" fill="#445268"/>
<path d="M18.2208 45.9984V50.6002H13.6666V45.9984H18.2208Z" fill="#445268"/>
<path d="M18.2208 41.3998V45.9984H13.6666V41.3998H18.2208Z" fill="#6180BA"/>
<path d="M18.2208 36.8013V41.3998H13.6666V36.8013H18.2208Z" fill="#6180BA"/>
<path d="M18.2208 32.1995V36.8013H13.6666V32.1995H18.2208Z" fill="#6180BA"/>
<path d="M18.2208 27.601V32.1995H13.6666V27.601H18.2208Z" fill="#6180BA"/>
<path d="M18.2208 22.9992V27.601H13.6666V22.9992H18.2208Z" fill="#6180BA"/>
<path d="M13.6666 68.9986V73.5993H9.11032V68.9986L13.6666 68.9986Z" fill="#6180BA"/>
<path d="M13.6666 45.9984V50.6002L9.11032 50.6001V45.9984H13.6666Z" fill="#445268"/>
<path d="M13.6666 41.3998V45.9984H9.11032V41.3998H13.6666Z" fill="#445268"/>
<path d="M13.6666 36.8013V41.3998H9.11032V36.8013H13.6666Z" fill="#6180BA"/>
<path d="M13.6666 32.1995V36.8013H9.11032V32.1995H13.6666Z" fill="#6180BA"/>
<path d="M13.6666 27.601V32.1995H9.11032V27.601H13.6666Z" fill="#6180BA"/>
<path d="M13.6666 22.9992V27.601H9.11032V22.9992H13.6666Z" fill="#6180BA"/>
<path d="M9.11032 73.5993L9.11046 78.199H4.55526V73.5993L9.11032 73.5993Z" fill="#6180BA"/>
<path d="M9.11046 55.1987V59.8005H4.55526V55.1987H9.11046Z" fill="#6180BA"/>
<path d="M9.11032 41.3998V45.9984L4.55526 45.9984V41.3998H9.11032Z" fill="#445268"/>
<path d="M9.11032 36.8013V41.3998H4.55526V36.8013H9.11032Z" fill="#6180BA"/>
<path d="M9.11032 32.1995V36.8013H4.55526V32.1995H9.11032Z" fill="#6180BA"/>
<path d="M4.55526 41.3998V45.9984H0V41.3998H4.55526Z" fill="#445268"/>
<path d="M4.55526 36.8013V41.3998H0V36.8013H4.55526Z" fill="#6180BA"/>
</svg>
