<svg width="144" height="111" viewBox="0 0 144 111" fill="none" xmlns="http://www.w3.org/2000/svg">
<path d="M98.8385 84.4609C102.299 83.7405 105.537 82.1546 108.65 80.4443C111.569 78.8423 114.463 77.0831 116.744 74.6781C120.756 70.4512 122.456 64.7221 124.02 59.2332C124.348 58.0854 124.539 56.5805 123.5 56.0249C122.783 55.6395 121.861 55.965 121.125 56.3781C116.811 58.8 114.543 63.9159 110.144 66.177C104.102 69.2827 96.3725 65.9018 90.3665 69.0775C86.2509 71.2547 83.4887 78.0043 86.2169 81.9507C88.5404 85.3095 95.1003 85.2411 98.8385 84.4609Z" fill="#F5EFEB"/>
<path d="M79.9366 87.1772C80.5998 87.1919 81.3521 87.8306 81.9474 88.101C82.8237 88.4993 83.7238 88.8523 84.6403 89.1553C86.415 89.7382 88.2535 90.1333 90.1154 90.2937C90.8163 90.3545 91.6947 90.5123 92.0141 91.2502C92.3578 92.0465 91.7327 92.7436 91.1542 93.1679C89.4557 94.4106 87.6135 95.5642 85.4594 95.7565C83.7747 95.9053 81.9558 95.4381 80.3425 94.4397C78.9313 93.5694 77.602 92.153 77.2776 90.481C77.0183 89.151 78.4932 87.1877 79.9366 87.1772Z" fill="#F5EFEB"/>
<path d="M73.9282 72.2351C73.9396 72.2196 73.95 72.2023 73.9621 72.184C74.3823 71.5232 74.4601 70.273 74.6207 69.5059C74.8121 68.5878 74.9699 67.6621 75.0923 66.7339C75.2104 65.8376 76.0794 61.4201 75.077 61.1799C74.4126 61.0214 73.1821 62.0566 72.7221 62.4355C72.0411 62.9999 71.4297 63.6621 70.912 64.3812C69.845 65.8668 69.1973 67.7057 69.3016 69.549C69.3636 70.6491 69.6979 71.7871 70.5399 72.4917C71.3939 73.2053 73.2069 73.2764 73.9282 72.2351Z" fill="#F5EFEB"/>
<path d="M85.8292 54.7229C94.3974 47.3936 106.51 46.0239 117.655 46.1367C119.101 46.1497 120.816 46.3421 121.423 47.5971C122.459 49.7346 94.2508 61.8498 91.612 63.3856C88.3812 65.2633 83.3464 71.1916 80.8307 66.8954C78.6514 63.1739 83.0815 57.073 85.8292 54.7229Z" fill="#F5EFEB"/>
<path d="M31.1094 30.9543C33.4784 28.3338 36.4821 26.3396 39.5312 24.5152C42.3885 22.8051 45.3672 21.1966 48.5959 20.4411C54.269 19.114 60.0743 20.5407 65.6013 21.9623C66.7561 22.2595 68.1512 22.8538 68.1066 24.0319C68.0782 24.8445 67.3319 25.4763 66.6035 25.9028C62.3341 28.4022 56.7739 27.7768 52.6002 30.4313C46.8687 34.078 45.8812 42.4578 40.1085 46.0365C36.151 48.4893 28.9285 47.4651 26.9023 43.117C25.1763 39.4144 28.5484 33.7873 31.1094 30.9543Z" fill="#F5EFEB"/>
<path d="M41.2223 49.9881C44.3207 48.6079 47.687 47.9861 50.8566 46.7893C55.2877 45.1151 59.2655 42.3314 62.6616 39.0414C65.0011 36.7748 67.1107 34.2412 69.7918 32.3774C70.4212 31.9397 71.1603 31.5238 71.9029 31.6456C72.8749 31.8052 73.4267 32.8697 73.3474 33.8377C73.2685 34.8063 72.7258 35.6907 72.1977 36.5334C70.7477 38.8473 69.2978 41.1611 67.8479 43.4752C65.3614 47.4419 62.8489 51.442 59.5932 54.8549C56.3389 58.2662 52.2389 61.0927 47.6288 62.0769C43.9737 62.8563 37.9457 62.4506 35.5634 59.2846C32.7003 55.4809 37.4295 51.6771 41.2223 49.9881Z" fill="#F5EFEB"/>
<path d="M22.2916 50.8085C22.4024 50.6357 22.4812 50.4503 22.5195 50.2572C23.2129 46.8012 24.2387 43.5981 26.1093 40.565C26.5085 39.9189 26.9351 39.0762 26.4851 38.5001C25.9991 37.8811 24.9755 38.1629 24.2262 38.5097C22.0244 39.5282 19.8104 40.7105 18.2507 42.5495C17.0278 43.9879 16.2697 45.7878 16.1143 47.6151C15.9784 49.2127 16.379 50.9505 17.6544 51.899C18.847 52.7857 21.4647 52.1065 22.2916 50.8085Z" fill="#F5EFEB"/>
<path d="M28.1354 62.2922C28.8281 62.2521 29.5234 62.5986 30.2238 62.816C31.2044 63.1206 32.171 63.4675 33.1203 63.8553C33.966 64.2002 34.7863 64.6267 35.6026 65.0344C36.0552 65.2607 38.1608 66.0073 38.3003 66.5457C38.5318 67.4535 34.9074 68.5109 34.2211 68.6408C32.5625 68.9532 30.814 68.8174 29.2448 68.1873C28.0072 67.6905 26.8216 66.8317 26.3804 65.5741C26.0294 64.5723 26.3218 63.2476 27.2179 62.6175C27.5239 62.4031 27.8294 62.3099 28.1354 62.2922Z" fill="#F5EFEB"/>
</svg>
