<svg width="326" height="131" viewBox="0 0 326 131" fill="none" xmlns="http://www.w3.org/2000/svg">
<path d="M314.292 33.2278V21.9197H303V10.6133H33.7319V21.9197H22.441V33.2278H11.1475V107.5H22.441V118.808H33.7319V130.115L303 130.115V118.808H314.292V107.5H325.583V33.2278H314.292Z" fill="#3F3F3F"/>
<path d="M302.995 17.3082V6L22.581 6V17.3082H11.29V96.4662H22.581V107.774H302.995V96.4662H314.287V17.3082H302.995Z" fill="white"/>
<path d="M302.995 17.3082V6L22.581 6V17.3082H11.29V96.4662H22.581V107.774H302.995V96.4662H314.287V17.3082H302.995Z" fill="white"/>
<path d="M314.172 22.6152V101.773H325.463V22.6152H314.172Z" fill="#3F3F3F"/>
<path d="M314.173 22.6148V11.3066H302.88V22.6148H314.173Z" fill="#3F3F3F"/>
<path d="M293.175 107.773H23V118.773H303V107.773H293.175Z" fill="#3F3F3F"/>
<path d="M32.8245 11H303V0H23V11H32.8245Z" fill="#3F3F3F"/>
<path d="M22.5849 11.3066H11.2939V22.6148H22.5849V11.3066Z" fill="#3F3F3F"/>
<path d="M11 75.8582V23H0V97H11V75.8582Z" fill="#3F3F3F"/>
<rect x="280" y="85" width="11" height="11" fill="#3F3F3F"/>
<rect x="291" y="74" width="11" height="11" fill="#3F3F3F"/>
</svg>
