<svg width="93" height="97" viewBox="0 0 93 97" fill="none" xmlns="http://www.w3.org/2000/svg">
<path d="M32.0542 17.3702C32.7448 18.2683 33.4196 19.3197 33.2809 20.4438C33.1403 21.5755 32.2194 22.4318 31.322 23.1367C28.3269 25.4961 24.9319 27.3475 21.3275 28.5905C20.4829 28.8813 19.5671 29.1414 18.7083 28.8918C17.3228 28.4865 16.614 26.8419 16.7811 25.4086C16.9462 23.9749 17.767 22.7129 18.576 21.5187C19.385 20.3244 20.2256 19.0812 20.4435 17.6538C20.8793 14.7909 18.2496 9.06111 23.4409 9.8697C26.5053 10.3467 30.289 15.0837 32.0542 17.3702Z" fill="#F5EFEB"/>
<path d="M28.9462 7.49262C31.4537 7.24763 33.9882 7.25643 36.4942 7.52404C37.1736 7.5948 37.88 7.69602 38.4513 8.07334C39.0208 8.45022 39.4135 9.18596 39.186 9.83062C39.0036 10.3511 38.4924 10.6698 38.0148 10.9481C36.9428 11.5738 35.8689 12.1991 34.7946 12.8263C34.1634 13.1933 33.4223 13.5748 32.7369 13.3236C32.3165 13.1687 32.0148 12.8083 31.7342 12.4609C30.3602 10.771 28.9847 9.0787 27.6112 7.38686L28.9462 7.49262Z" fill="#F5EFEB"/>
<path d="M28.5353 28.2062C26.3881 29.4026 24.3337 30.7697 22.4008 32.2878C24.8644 33.9978 27.713 35.1464 30.6729 35.623C31.931 35.8253 33.6676 35.5566 33.7939 34.2887C33.8564 33.6355 33.4132 33.0549 32.9794 32.563C31.6682 31.0768 30.2249 29.7086 28.6681 28.4807L28.5353 28.2062Z" fill="#F5EFEB"/>
<path d="M44.459 13.3894C47.332 14.1594 48.6519 17.4016 49.5611 20.2338C49.682 20.6101 49.8029 21.0126 49.6992 21.3947C49.4289 22.3934 48.0335 22.4082 47.0191 22.2046C44.9365 21.7868 42.854 21.3691 40.7714 20.9513C39.6108 20.7194 38.4033 20.4645 37.4756 19.7281C33.5297 16.5844 41.6876 12.6492 44.459 13.3894Z" fill="#F5EFEB"/>
<path d="M38.5798 22.8627C37.7358 22.7131 36.8065 22.5758 36.0714 23.017C34.6781 23.8551 35.0402 25.9917 35.8523 27.4011C36.9107 29.2363 38.6649 30.9087 40.7813 30.9422C42.4286 30.9683 43.9067 30.0093 45.2716 29.0861C52.6107 24.1222 42.7655 23.6106 38.5798 22.8627Z" fill="#F5EFEB"/>
<path d="M56.6122 21.8272C55.4623 21.9016 54.26 21.9416 53.2084 21.4678C52.1588 20.9944 51.3219 19.8448 51.5847 18.7236C51.5847 18.7236 55.3199 20.0719 56.6122 21.8272Z" fill="#F5EFEB"/>
<path d="M55.3512 27.2466C54.1278 27.6256 52.9044 28.0047 51.6806 28.3856C51.4508 28.4565 51.2086 28.5284 50.971 28.4868C50.1018 28.3333 50.1723 27.0625 50.4732 26.2339C50.4732 26.2339 53.5254 27.3295 55.3512 27.2466Z" fill="#F5EFEB"/>
<path d="M35.2671 33.3145C36.6509 33.667 38.0365 34.02 39.4203 34.3725C38.1224 34.6919 36.8241 35.0131 35.5258 35.3343C35.6001 34.9313 35.2671 33.3145 35.2671 33.3145Z" fill="#F5EFEB"/>
<path d="M45.1233 9.58627C43.911 9.6863 42.6987 9.78632 41.486 9.88826C41.606 9.06752 41.447 8.20957 41.0388 7.48828C41.0388 7.48828 43.596 8.74749 45.1233 9.58627Z" fill="#F5EFEB"/>
<path d="M49.0292 75.4031C50.141 75.191 51.3431 74.8512 51.9859 73.9197C52.6309 72.9786 52.5118 71.7276 52.3085 70.6038C51.6329 66.8528 50.3233 63.2148 48.453 59.8918C48.014 59.113 47.5002 58.3106 46.6922 57.9301C45.3886 57.3128 43.7646 58.0706 42.9384 59.2528C42.1116 60.4369 41.8875 61.9252 41.7009 63.3559C41.5125 64.7862 41.3168 66.2732 40.5318 67.4852C38.9582 69.9163 33.1867 72.4577 37.608 75.2985C40.2164 76.9741 46.1892 75.9422 49.0292 75.4031Z" fill="#F5EFEB"/>
<path d="M40.1463 80.7286C41.8595 82.5765 43.7601 84.2511 45.8124 85.7159C46.3693 86.112 46.9632 86.5046 47.6425 86.6015C48.32 86.698 49.0996 86.41 49.3586 85.7767C49.5668 85.2663 49.3948 84.6869 49.2237 84.164C48.8349 82.9826 48.4479 81.8016 48.0609 80.6207C47.8336 79.9257 47.5305 79.1506 46.8511 78.8827C46.4349 78.7188 45.9699 78.7889 45.5282 78.8623C43.3776 79.2151 41.229 79.5684 39.0784 79.9212L40.1463 80.7286Z" fill="#F5EFEB"/>
<path d="M53.5888 64.9642C52.7751 62.6432 52.1471 60.2592 51.7067 57.8387C54.6848 58.1948 57.5788 59.2272 60.1083 60.836C61.1853 61.519 62.3041 62.8735 61.5558 63.903C61.1717 64.4345 60.4531 64.5738 59.8026 64.6547C57.8366 64.8979 55.8486 64.9608 53.8698 64.847L53.5888 64.9642Z" fill="#F5EFEB"/>
<path d="M55.6626 86.6133C58.323 87.947 61.4621 86.3977 64.0222 84.8817C64.3631 84.68 64.7204 84.46 64.8962 84.105C65.3566 83.179 64.3215 82.2403 63.4294 81.7214C61.5942 80.6515 59.7594 79.5797 57.9243 78.5099C56.9013 77.914 55.8296 77.3028 54.6458 77.2385C49.6073 76.9706 53.097 85.3299 55.6626 86.6133Z" fill="#F5EFEB"/>
<path d="M57.5533 75.624C56.8233 75.1773 56.0366 74.663 55.7799 73.8445C55.2949 72.2925 56.9846 70.9366 58.5256 70.4208C60.5333 69.7509 62.9576 69.6634 64.5631 71.0435C65.8121 72.1168 66.2827 73.8162 66.6891 75.4121C68.8829 83.9967 61.1807 77.8442 57.5533 75.624Z" fill="#F5EFEB"/>
<path d="M70.3552 88.37C69.5455 87.5506 68.6735 86.7226 67.5711 86.3797C66.4706 86.0373 65.0822 86.3394 64.5366 87.354C64.5366 87.354 68.2227 88.8256 70.3552 88.37Z" fill="#F5EFEB"/>
<path d="M73.0077 83.4773C72.3432 82.3821 71.681 81.2855 71.0164 80.1903C70.8917 79.9841 70.7589 79.7699 70.5552 79.6437C69.8025 79.1816 69.012 80.177 68.6868 80.998C68.6868 80.998 71.6973 82.2025 73.0077 83.4773Z" fill="#F5EFEB"/>
<path d="M62.0134 65.6093C63.2819 66.2647 64.5504 66.9201 65.8208 67.576C65.0631 66.4751 64.3058 65.3722 63.5461 64.2709C63.3352 64.6217 62.0134 65.6093 62.0134 65.6093Z" fill="#F5EFEB"/>
<path d="M53.6369 89.8995C52.7969 89.0206 51.9574 88.1399 51.1155 87.2607C50.663 87.9552 49.974 88.4917 49.1908 88.7607C49.1908 88.7607 51.9387 89.5154 53.6369 89.8995Z" fill="#F5EFEB"/>
</svg>
